<?xml version="1.0" encoding="UTF-8" standalone="no"?>
<!DOCTYPE svg PUBLIC "-//W3C//DTD SVG 1.1//EN"
 "http://www.w3.org/Graphics/SVG/1.1/DTD/svg11.dtd">
<!-- Generated by graphviz version 2.38.0 (20140413.2041)
 -->
<!-- Title: %3 Pages: 1 -->
<svg width="4296pt" height="418pt"
 viewBox="0.00 0.00 4296.00 418.00" xmlns="http://www.w3.org/2000/svg" xmlns:xlink="http://www.w3.org/1999/xlink">
<g id="graph0" class="graph" transform="scale(1 1) rotate(0) translate(4 414)">
<title>%3</title>
<polygon fill="none" stroke="none" points="-4,4 -4,-414 4292,-414 4292,4 -4,4"/>
<!-- 0 -->
<g id="node1" class="node"><title>0</title>
<path fill="#ffd3d3" stroke="black" d="M2327,-410C2327,-410 2136,-410 2136,-410 2130,-410 2124,-404 2124,-398 2124,-398 2124,-369 2124,-369 2124,-363 2130,-357 2136,-357 2136,-357 2327,-357 2327,-357 2333,-357 2339,-363 2339,-369 2339,-369 2339,-398 2339,-398 2339,-404 2333,-410 2327,-410"/>
<text text-anchor="middle" x="2231.5" y="-394.8" font-family="Times,serif" font-size="14.00">net</text>
<text text-anchor="middle" x="2231.5" y="-379.8" font-family="Times,serif" font-size="14.00">k width: 3 &#160;&#160;log gamma2: &#45;6.317071</text>
<text text-anchor="middle" x="2231.5" y="-364.8" font-family="Times,serif" font-size="14.00">n kernels: 16</text>
</g>
<!-- 1 -->
<g id="node2" class="node"><title>1</title>
<path fill="#e9ffd3" stroke="black" d="M605,-313.5C605,-313.5 346,-313.5 346,-313.5 340,-313.5 334,-307.5 334,-301.5 334,-301.5 334,-287.5 334,-287.5 334,-281.5 340,-275.5 346,-275.5 346,-275.5 605,-275.5 605,-275.5 611,-275.5 617,-281.5 617,-287.5 617,-287.5 617,-301.5 617,-301.5 617,-307.5 611,-313.5 605,-313.5"/>
<text text-anchor="middle" x="475.5" y="-298.3" font-family="Times,serif" font-size="14.00">conv block 0</text>
<text text-anchor="middle" x="475.5" y="-283.3" font-family="Times,serif" font-size="14.00">log gamma1: 1.405644 &#160;&#160;log gamma2: 0.115679</text>
</g>
<!-- 0&#45;&gt;1 -->
<g id="edge1" class="edge"><title>0&#45;&gt;1</title>
<path fill="none" stroke="black" d="M2123.97,-377.172C1823.64,-362.293 975.183,-320.257 627.236,-303.018"/>
<polygon fill="black" stroke="black" points="627.25,-299.514 617.089,-302.515 626.904,-306.506 627.25,-299.514"/>
</g>
<!-- 2 -->
<g id="node3" class="node"><title>2</title>
<path fill="#e9ffd3" stroke="black" d="M1688.5,-321C1688.5,-321 1482.5,-321 1482.5,-321 1476.5,-321 1470.5,-315 1470.5,-309 1470.5,-309 1470.5,-280 1470.5,-280 1470.5,-274 1476.5,-268 1482.5,-268 1482.5,-268 1688.5,-268 1688.5,-268 1694.5,-268 1700.5,-274 1700.5,-280 1700.5,-280 1700.5,-309 1700.5,-309 1700.5,-315 1694.5,-321 1688.5,-321"/>
<text text-anchor="middle" x="1585.5" y="-305.8" font-family="Times,serif" font-size="14.00">conv block 1</text>
<text text-anchor="middle" x="1585.5" y="-290.8" font-family="Times,serif" font-size="14.00">log gamma1: &#45;1.206803 &#160;&#160;n kernels: 16</text>
<text text-anchor="middle" x="1585.5" y="-275.8" font-family="Times,serif" font-size="14.00">pool z: 1 &#160;&#160;spatial scale: 1</text>
</g>
<!-- 0&#45;&gt;2 -->
<g id="edge2" class="edge"><title>0&#45;&gt;2</title>
<path fill="none" stroke="black" d="M2123.74,-367.987C2009.91,-352.657 1830.63,-328.513 1710.63,-312.352"/>
<polygon fill="black" stroke="black" points="1711.03,-308.875 1700.66,-311.009 1710.1,-315.812 1711.03,-308.875"/>
</g>
<!-- 3 -->
<g id="node4" class="node"><title>3</title>
<path fill="#e9ffd3" stroke="black" d="M2855,-313.5C2855,-313.5 2782,-313.5 2782,-313.5 2776,-313.5 2770,-307.5 2770,-301.5 2770,-301.5 2770,-287.5 2770,-287.5 2770,-281.5 2776,-275.5 2782,-275.5 2782,-275.5 2855,-275.5 2855,-275.5 2861,-275.5 2867,-281.5 2867,-287.5 2867,-287.5 2867,-301.5 2867,-301.5 2867,-307.5 2861,-313.5 2855,-313.5"/>
<text text-anchor="middle" x="2818.5" y="-298.3" font-family="Times,serif" font-size="14.00">conv block 2</text>
<text text-anchor="middle" x="2818.5" y="-283.3" font-family="Times,serif" font-size="14.00">spatial scale: 2</text>
</g>
<!-- 0&#45;&gt;3 -->
<g id="edge3" class="edge"><title>0&#45;&gt;3</title>
<path fill="none" stroke="black" d="M2339.16,-366.543C2462.88,-348.207 2661.42,-318.781 2759.6,-304.229"/>
<polygon fill="black" stroke="black" points="2760.26,-307.67 2769.64,-302.741 2759.24,-300.745 2760.26,-307.67"/>
</g>
<!-- 4 -->
<g id="node5" class="node"><title>4</title>
<path fill="#e9ffd3" stroke="black" d="M3684,-312.5C3684,-312.5 3617,-312.5 3617,-312.5 3611,-312.5 3605,-306.5 3605,-300.5 3605,-300.5 3605,-288.5 3605,-288.5 3605,-282.5 3611,-276.5 3617,-276.5 3617,-276.5 3684,-276.5 3684,-276.5 3690,-276.5 3696,-282.5 3696,-288.5 3696,-288.5 3696,-300.5 3696,-300.5 3696,-306.5 3690,-312.5 3684,-312.5"/>
<text text-anchor="middle" x="3650.5" y="-290.8" font-family="Times,serif" font-size="14.00">path combine</text>
</g>
<!-- 0&#45;&gt;4 -->
<g id="edge4" class="edge"><title>0&#45;&gt;4</title>
<path fill="none" stroke="black" d="M2339.03,-375.907C2622.3,-358.54 3381.83,-311.973 3594.48,-298.935"/>
<polygon fill="black" stroke="black" points="3595.01,-302.409 3604.78,-298.303 3594.58,-295.422 3595.01,-302.409"/>
</g>
<!-- 5 -->
<g id="node6" class="node"><title>5</title>
<path fill="#d3ffff" stroke="black" d="M308.5,-202C308.5,-202 188.5,-202 188.5,-202 182.5,-202 176.5,-196 176.5,-190 176.5,-190 176.5,-176 176.5,-176 176.5,-170 182.5,-164 188.5,-164 188.5,-164 308.5,-164 308.5,-164 314.5,-164 320.5,-170 320.5,-176 320.5,-176 320.5,-190 320.5,-190 320.5,-196 314.5,-202 308.5,-202"/>
<text text-anchor="middle" x="248.5" y="-186.8" font-family="Times,serif" font-size="14.00">comp 0</text>
<text text-anchor="middle" x="248.5" y="-171.8" font-family="Times,serif" font-size="14.00">log gamma2: 1.569370</text>
</g>
<!-- 1&#45;&gt;5 -->
<g id="edge5" class="edge"><title>1&#45;&gt;5</title>
<path fill="none" stroke="black" d="M438.016,-275.418C398.913,-256.556 337.534,-226.948 295.281,-206.566"/>
<polygon fill="black" stroke="black" points="296.568,-203.301 286.04,-202.109 293.526,-209.606 296.568,-203.301"/>
</g>
<!-- 6 -->
<g id="node7" class="node"><title>6</title>
<path fill="#bfe6e6" stroke="black" d="M503.5,-202C503.5,-202 447.5,-202 447.5,-202 441.5,-202 435.5,-196 435.5,-190 435.5,-190 435.5,-176 435.5,-176 435.5,-170 441.5,-164 447.5,-164 447.5,-164 503.5,-164 503.5,-164 509.5,-164 515.5,-170 515.5,-176 515.5,-176 515.5,-190 515.5,-190 515.5,-196 509.5,-202 503.5,-202"/>
<text text-anchor="middle" x="475.5" y="-186.8" font-family="Times,serif" font-size="14.00">comp 1</text>
<text text-anchor="middle" x="475.5" y="-171.8" font-family="Times,serif" font-size="14.00">n kernels: 8</text>
</g>
<!-- 1&#45;&gt;6 -->
<g id="edge6" class="edge"><title>1&#45;&gt;6</title>
<path fill="none" stroke="black" d="M475.5,-275.418C475.5,-258.221 475.5,-232.089 475.5,-212.163"/>
<polygon fill="black" stroke="black" points="479,-212.109 475.5,-202.109 472,-212.109 479,-212.109"/>
</g>
<!-- 7 -->
<g id="node8" class="node"><title>7</title>
<path fill="#d3ffff" stroke="black" d="M983,-202C983,-202 724,-202 724,-202 718,-202 712,-196 712,-190 712,-190 712,-176 712,-176 712,-170 718,-164 724,-164 724,-164 983,-164 983,-164 989,-164 995,-170 995,-176 995,-176 995,-190 995,-190 995,-196 989,-202 983,-202"/>
<text text-anchor="middle" x="853.5" y="-186.8" font-family="Times,serif" font-size="14.00">comp 0</text>
<text text-anchor="middle" x="853.5" y="-171.8" font-family="Times,serif" font-size="14.00">log gamma1: 1.310254 &#160;&#160;log gamma2: 0.103239</text>
</g>
<!-- 2&#45;&gt;7 -->
<g id="edge7" class="edge"><title>2&#45;&gt;7</title>
<path fill="none" stroke="black" d="M1470.3,-283.792C1363.37,-273.892 1200,-256.503 1059.5,-232 1017.16,-224.616 970.475,-213.951 932.27,-204.548"/>
<polygon fill="black" stroke="black" points="932.788,-201.07 922.239,-202.061 931.103,-207.865 932.788,-201.07"/>
</g>
<!-- 8 -->
<g id="node9" class="node"><title>8</title>
<path fill="#bfe6e6" stroke="black" d="M1282.5,-202C1282.5,-202 1080.5,-202 1080.5,-202 1074.5,-202 1068.5,-196 1068.5,-190 1068.5,-190 1068.5,-176 1068.5,-176 1068.5,-170 1074.5,-164 1080.5,-164 1080.5,-164 1282.5,-164 1282.5,-164 1288.5,-164 1294.5,-170 1294.5,-176 1294.5,-176 1294.5,-190 1294.5,-190 1294.5,-196 1288.5,-202 1282.5,-202"/>
<text text-anchor="middle" x="1181.5" y="-186.8" font-family="Times,serif" font-size="14.00">comp 1</text>
<text text-anchor="middle" x="1181.5" y="-171.8" font-family="Times,serif" font-size="14.00">log gamma2: 1.132535 &#160;&#160;n kernels: 10</text>
</g>
<!-- 2&#45;&gt;8 -->
<g id="edge8" class="edge"><title>2&#45;&gt;8</title>
<path fill="none" stroke="black" d="M1491.29,-267.965C1420.32,-248.73 1324.25,-222.691 1258,-204.735"/>
<polygon fill="black" stroke="black" points="1258.61,-201.274 1248.04,-202.036 1256.78,-208.03 1258.61,-201.274"/>
</g>
<!-- 9 -->
<g id="node10" class="node"><title>9</title>
<path fill="#abcece" stroke="black" d="M1585.5,-202C1585.5,-202 1385.5,-202 1385.5,-202 1379.5,-202 1373.5,-196 1373.5,-190 1373.5,-190 1373.5,-176 1373.5,-176 1373.5,-170 1379.5,-164 1385.5,-164 1385.5,-164 1585.5,-164 1585.5,-164 1591.5,-164 1597.5,-170 1597.5,-176 1597.5,-176 1597.5,-190 1597.5,-190 1597.5,-196 1591.5,-202 1585.5,-202"/>
<text text-anchor="middle" x="1485.5" y="-186.8" font-family="Times,serif" font-size="14.00">comp 2</text>
<text text-anchor="middle" x="1485.5" y="-171.8" font-family="Times,serif" font-size="14.00">log gamma1: 1.207382 &#160;&#160;n kernels: &#45;6</text>
</g>
<!-- 2&#45;&gt;9 -->
<g id="edge9" class="edge"><title>2&#45;&gt;9</title>
<path fill="none" stroke="black" d="M1562.05,-267.827C1546.13,-250.395 1525.16,-227.423 1509.19,-209.936"/>
<polygon fill="black" stroke="black" points="1511.56,-207.351 1502.24,-202.327 1506.4,-212.071 1511.56,-207.351"/>
</g>
<!-- 10 -->
<g id="node11" class="node"><title>10</title>
<path fill="#97b6b6" stroke="black" d="M1702.5,-201C1702.5,-201 1668.5,-201 1668.5,-201 1662.5,-201 1656.5,-195 1656.5,-189 1656.5,-189 1656.5,-177 1656.5,-177 1656.5,-171 1662.5,-165 1668.5,-165 1668.5,-165 1702.5,-165 1702.5,-165 1708.5,-165 1714.5,-171 1714.5,-177 1714.5,-177 1714.5,-189 1714.5,-189 1714.5,-195 1708.5,-201 1702.5,-201"/>
<text text-anchor="middle" x="1685.5" y="-179.3" font-family="Times,serif" font-size="14.00">comp 3</text>
</g>
<!-- 2&#45;&gt;10 -->
<g id="edge10" class="edge"><title>2&#45;&gt;10</title>
<path fill="none" stroke="black" d="M1608.95,-267.827C1625.17,-250.066 1646.64,-226.554 1662.71,-208.952"/>
<polygon fill="black" stroke="black" points="1665.52,-211.067 1669.68,-201.322 1660.35,-206.346 1665.52,-211.067"/>
</g>
<!-- 11 -->
<g id="node12" class="node"><title>11</title>
<path fill="#839e9e" stroke="black" d="M2022,-202C2022,-202 1883,-202 1883,-202 1877,-202 1871,-196 1871,-190 1871,-190 1871,-176 1871,-176 1871,-170 1877,-164 1883,-164 1883,-164 2022,-164 2022,-164 2028,-164 2034,-170 2034,-176 2034,-176 2034,-190 2034,-190 2034,-196 2028,-202 2022,-202"/>
<text text-anchor="middle" x="1952.5" y="-186.8" font-family="Times,serif" font-size="14.00">path end 1</text>
<text text-anchor="middle" x="1952.5" y="-171.8" font-family="Times,serif" font-size="14.00">k width: &#45;2 &#160;&#160;n kernels: &#45;16</text>
</g>
<!-- 2&#45;&gt;11 -->
<g id="edge11" class="edge"><title>2&#45;&gt;11</title>
<path fill="none" stroke="black" d="M1671.08,-267.965C1735.29,-248.809 1822.11,-222.904 1882.26,-204.957"/>
<polygon fill="black" stroke="black" points="1883.47,-208.249 1892.05,-202.036 1881.47,-201.541 1883.47,-208.249"/>
</g>
<!-- 12 -->
<g id="node13" class="node"><title>12</title>
<path fill="#d3ffff" stroke="black" d="M2532.5,-201C2532.5,-201 2498.5,-201 2498.5,-201 2492.5,-201 2486.5,-195 2486.5,-189 2486.5,-189 2486.5,-177 2486.5,-177 2486.5,-171 2492.5,-165 2498.5,-165 2498.5,-165 2532.5,-165 2532.5,-165 2538.5,-165 2544.5,-171 2544.5,-177 2544.5,-177 2544.5,-189 2544.5,-189 2544.5,-195 2538.5,-201 2532.5,-201"/>
<text text-anchor="middle" x="2515.5" y="-179.3" font-family="Times,serif" font-size="14.00">comp 0</text>
</g>
<!-- 3&#45;&gt;12 -->
<g id="edge12" class="edge"><title>3&#45;&gt;12</title>
<path fill="none" stroke="black" d="M2769.82,-275.907C2709.97,-254.28 2609.6,-218.007 2554.55,-198.113"/>
<polygon fill="black" stroke="black" points="2555.41,-194.703 2544.82,-194.596 2553.03,-201.286 2555.41,-194.703"/>
</g>
<!-- 13 -->
<g id="node14" class="node"><title>13</title>
<path fill="#bfe6e6" stroke="black" d="M2796.5,-202C2796.5,-202 2676.5,-202 2676.5,-202 2670.5,-202 2664.5,-196 2664.5,-190 2664.5,-190 2664.5,-176 2664.5,-176 2664.5,-170 2670.5,-164 2676.5,-164 2676.5,-164 2796.5,-164 2796.5,-164 2802.5,-164 2808.5,-170 2808.5,-176 2808.5,-176 2808.5,-190 2808.5,-190 2808.5,-196 2802.5,-202 2796.5,-202"/>
<text text-anchor="middle" x="2736.5" y="-186.8" font-family="Times,serif" font-size="14.00">comp 1</text>
<text text-anchor="middle" x="2736.5" y="-171.8" font-family="Times,serif" font-size="14.00">log gamma2: 1.256236</text>
</g>
<!-- 3&#45;&gt;13 -->
<g id="edge13" class="edge"><title>3&#45;&gt;13</title>
<path fill="none" stroke="black" d="M2804.96,-275.418C2791.67,-257.666 2771.24,-230.394 2756.16,-210.255"/>
<polygon fill="black" stroke="black" points="2758.86,-208.015 2750.06,-202.109 2753.25,-212.211 2758.86,-208.015"/>
</g>
<!-- 14 -->
<g id="node15" class="node"><title>14</title>
<path fill="#abcece" stroke="black" d="M2964,-202C2964,-202 2839,-202 2839,-202 2833,-202 2827,-196 2827,-190 2827,-190 2827,-176 2827,-176 2827,-170 2833,-164 2839,-164 2839,-164 2964,-164 2964,-164 2970,-164 2976,-170 2976,-176 2976,-176 2976,-190 2976,-190 2976,-196 2970,-202 2964,-202"/>
<text text-anchor="middle" x="2901.5" y="-186.8" font-family="Times,serif" font-size="14.00">comp 2</text>
<text text-anchor="middle" x="2901.5" y="-171.8" font-family="Times,serif" font-size="14.00">log gamma1: &#45;1.206803</text>
</g>
<!-- 3&#45;&gt;14 -->
<g id="edge14" class="edge"><title>3&#45;&gt;14</title>
<path fill="none" stroke="black" d="M2832.21,-275.418C2845.66,-257.666 2866.33,-230.394 2881.6,-210.255"/>
<polygon fill="black" stroke="black" points="2884.52,-212.192 2887.77,-202.109 2878.94,-207.964 2884.52,-212.192"/>
</g>
<!-- 15 -->
<g id="node16" class="node"><title>15</title>
<path fill="#97b6b6" stroke="black" d="M3211.5,-202C3211.5,-202 3005.5,-202 3005.5,-202 2999.5,-202 2993.5,-196 2993.5,-190 2993.5,-190 2993.5,-176 2993.5,-176 2993.5,-170 2999.5,-164 3005.5,-164 3005.5,-164 3211.5,-164 3211.5,-164 3217.5,-164 3223.5,-170 3223.5,-176 3223.5,-176 3223.5,-190 3223.5,-190 3223.5,-196 3217.5,-202 3211.5,-202"/>
<text text-anchor="middle" x="3108.5" y="-186.8" font-family="Times,serif" font-size="14.00">comp 3</text>
<text text-anchor="middle" x="3108.5" y="-171.8" font-family="Times,serif" font-size="14.00">log gamma2: &#45;0.196504 &#160;&#160;n kernels: 12</text>
</g>
<!-- 3&#45;&gt;15 -->
<g id="edge15" class="edge"><title>3&#45;&gt;15</title>
<path fill="none" stroke="black" d="M2867.24,-275.656C2900.35,-263.479 2945.12,-246.914 2984.5,-232 3006.87,-223.527 3031.45,-214.048 3052.78,-205.766"/>
<polygon fill="black" stroke="black" points="3054.28,-208.938 3062.34,-202.053 3051.75,-202.413 3054.28,-208.938"/>
</g>
<!-- 16 -->
<g id="node17" class="node"><title>16</title>
<path fill="#839e9e" stroke="black" d="M3307,-202C3307,-202 3254,-202 3254,-202 3248,-202 3242,-196 3242,-190 3242,-190 3242,-176 3242,-176 3242,-170 3248,-164 3254,-164 3254,-164 3307,-164 3307,-164 3313,-164 3319,-170 3319,-176 3319,-176 3319,-190 3319,-190 3319,-196 3313,-202 3307,-202"/>
<text text-anchor="middle" x="3280.5" y="-186.8" font-family="Times,serif" font-size="14.00">path end 2</text>
<text text-anchor="middle" x="3280.5" y="-171.8" font-family="Times,serif" font-size="14.00">k width: &#45;2</text>
</g>
<!-- 3&#45;&gt;16 -->
<g id="edge16" class="edge"><title>3&#45;&gt;16</title>
<path fill="none" stroke="black" d="M2867.04,-290.115C2962.13,-282.867 3169.22,-263.86 3232.5,-232 3242.98,-226.725 3252.56,-218.296 3260.37,-209.963"/>
<polygon fill="black" stroke="black" points="3263.02,-212.246 3267.01,-202.43 3257.77,-207.617 3263.02,-212.246"/>
</g>
<!-- 17 -->
<g id="node18" class="node"><title>17</title>
<path fill="#d3ffff" stroke="black" d="M3630,-232C3630,-232 3349,-232 3349,-232 3343,-232 3337,-226 3337,-220 3337,-220 3337,-146 3337,-146 3337,-140 3343,-134 3349,-134 3349,-134 3630,-134 3630,-134 3636,-134 3642,-140 3642,-146 3642,-146 3642,-220 3642,-220 3642,-226 3636,-232 3630,-232"/>
<text text-anchor="middle" x="3489.5" y="-216.8" font-family="Times,serif" font-size="14.00">forward</text>
<text text-anchor="middle" x="3489.5" y="-201.8" font-family="Times,serif" font-size="14.00">CB0/C1</text>
<text text-anchor="middle" x="3489.5" y="-186.8" font-family="Times,serif" font-size="14.00">dilation rate: 1 &#160;&#160;k width: 3</text>
<text text-anchor="middle" x="3489.5" y="-171.8" font-family="Times,serif" font-size="14.00">log gamma1: &#45;11.000000 &#160;&#160;log gamma2: &#45;11.000000</text>
<text text-anchor="middle" x="3489.5" y="-156.8" font-family="Times,serif" font-size="14.00">log lambda1: &#45;11.000000 &#160;&#160;log lambda2: &#45;11.000000</text>
<text text-anchor="middle" x="3489.5" y="-141.8" font-family="Times,serif" font-size="14.00">n kernels: 64</text>
</g>
<!-- 4&#45;&gt;17 -->
<g id="edge17" class="edge"><title>4&#45;&gt;17</title>
<path fill="none" stroke="black" d="M3625.34,-276.391C3609.95,-265.923 3589.33,-251.898 3568.81,-237.942"/>
<polygon fill="black" stroke="black" points="3570.59,-234.917 3560.35,-232.188 3566.65,-240.706 3570.59,-234.917"/>
</g>
<!-- 18 -->
<g id="node19" class="node"><title>18</title>
<path fill="#bfe6e6" stroke="black" d="M3953,-232C3953,-232 3672,-232 3672,-232 3666,-232 3660,-226 3660,-220 3660,-220 3660,-146 3660,-146 3660,-140 3666,-134 3672,-134 3672,-134 3953,-134 3953,-134 3959,-134 3965,-140 3965,-146 3965,-146 3965,-220 3965,-220 3965,-226 3959,-232 3953,-232"/>
<text text-anchor="middle" x="3812.5" y="-216.8" font-family="Times,serif" font-size="14.00">residual 1</text>
<text text-anchor="middle" x="3812.5" y="-201.8" font-family="Times,serif" font-size="14.00">CB1/PE1</text>
<text text-anchor="middle" x="3812.5" y="-186.8" font-family="Times,serif" font-size="14.00">dilation rate: 1 &#160;&#160;k width: 3</text>
<text text-anchor="middle" x="3812.5" y="-171.8" font-family="Times,serif" font-size="14.00">log gamma1: &#45;11.000000 &#160;&#160;log gamma2: &#45;11.000000</text>
<text text-anchor="middle" x="3812.5" y="-156.8" font-family="Times,serif" font-size="14.00">log lambda1: &#45;11.000000 &#160;&#160;log lambda2: &#45;11.000000</text>
<text text-anchor="middle" x="3812.5" y="-141.8" font-family="Times,serif" font-size="14.00">n kernels: 64</text>
</g>
<!-- 4&#45;&gt;18 -->
<g id="edge18" class="edge"><title>4&#45;&gt;18</title>
<path fill="none" stroke="black" d="M3675.81,-276.391C3691.3,-265.923 3712.05,-251.898 3732.69,-237.942"/>
<polygon fill="black" stroke="black" points="3734.88,-240.687 3741.21,-232.188 3730.96,-234.888 3734.88,-240.687"/>
</g>
<!-- 19 -->
<g id="node20" class="node"><title>19</title>
<path fill="#abcece" stroke="black" d="M4276,-232C4276,-232 3995,-232 3995,-232 3989,-232 3983,-226 3983,-220 3983,-220 3983,-146 3983,-146 3983,-140 3989,-134 3995,-134 3995,-134 4276,-134 4276,-134 4282,-134 4288,-140 4288,-146 4288,-146 4288,-220 4288,-220 4288,-226 4282,-232 4276,-232"/>
<text text-anchor="middle" x="4135.5" y="-216.8" font-family="Times,serif" font-size="14.00">residual 2</text>
<text text-anchor="middle" x="4135.5" y="-201.8" font-family="Times,serif" font-size="14.00">CB2/PE2</text>
<text text-anchor="middle" x="4135.5" y="-186.8" font-family="Times,serif" font-size="14.00">dilation rate: 1 &#160;&#160;k width: 3</text>
<text text-anchor="middle" x="4135.5" y="-171.8" font-family="Times,serif" font-size="14.00">log gamma1: &#45;11.000000 &#160;&#160;log gamma2: &#45;11.000000</text>
<text text-anchor="middle" x="4135.5" y="-156.8" font-family="Times,serif" font-size="14.00">log lambda1: &#45;11.000000 &#160;&#160;log lambda2: &#45;11.000000</text>
<text text-anchor="middle" x="4135.5" y="-141.8" font-family="Times,serif" font-size="14.00">n kernels: 64</text>
</g>
<!-- 4&#45;&gt;19 -->
<g id="edge19" class="edge"><title>4&#45;&gt;19</title>
<path fill="none" stroke="black" d="M3696.01,-286.309C3756.92,-276.361 3868.44,-257.014 3973.2,-232.009"/>
<polygon fill="black" stroke="black" points="3974.09,-235.395 3982.99,-229.651 3972.45,-228.59 3974.09,-235.395"/>
</g>
<!-- 20 -->
<g id="node21" class="node"><title>20</title>
<path fill="#e9d3ff" stroke="black" d="M293,-98C293,-98 12,-98 12,-98 6,-98 0,-92 0,-86 0,-86 0,-12 0,-12 0,-6 6,-0 12,-0 12,-0 293,-0 293,-0 299,-0 305,-6 305,-12 305,-12 305,-86 305,-86 305,-92 299,-98 293,-98"/>
<text text-anchor="middle" x="152.5" y="-82.8" font-family="Times,serif" font-size="14.00">forward</text>
<text text-anchor="middle" x="152.5" y="-67.8" font-family="Times,serif" font-size="14.00">input</text>
<text text-anchor="middle" x="152.5" y="-52.8" font-family="Times,serif" font-size="14.00">dilation rate: 1 &#160;&#160;k width: 3</text>
<text text-anchor="middle" x="152.5" y="-37.8" font-family="Times,serif" font-size="14.00">log gamma1: &#45;11.000000 &#160;&#160;log gamma2: &#45;11.000000</text>
<text text-anchor="middle" x="152.5" y="-22.8" font-family="Times,serif" font-size="14.00">log lambda1: &#45;11.000000 &#160;&#160;log lambda2: &#45;11.000000</text>
<text text-anchor="middle" x="152.5" y="-7.8" font-family="Times,serif" font-size="14.00">n kernels: 64</text>
</g>
<!-- 5&#45;&gt;20 -->
<g id="edge20" class="edge"><title>5&#45;&gt;20</title>
<path fill="none" stroke="black" d="M235.353,-163.923C224.518,-149.025 208.543,-127.059 193.504,-106.381"/>
<polygon fill="black" stroke="black" points="196.291,-104.262 187.579,-98.2336 190.63,-108.38 196.291,-104.262"/>
</g>
<!-- 21 -->
<g id="node22" class="node"><title>21</title>
<path fill="#e9d3ff" stroke="black" d="M616,-98C616,-98 335,-98 335,-98 329,-98 323,-92 323,-86 323,-86 323,-12 323,-12 323,-6 329,-0 335,-0 335,-0 616,-0 616,-0 622,-0 628,-6 628,-12 628,-12 628,-86 628,-86 628,-92 622,-98 616,-98"/>
<text text-anchor="middle" x="475.5" y="-82.8" font-family="Times,serif" font-size="14.00">forward</text>
<text text-anchor="middle" x="475.5" y="-67.8" font-family="Times,serif" font-size="14.00">CB0/C0</text>
<text text-anchor="middle" x="475.5" y="-52.8" font-family="Times,serif" font-size="14.00">dilation rate: 1 &#160;&#160;k width: 3</text>
<text text-anchor="middle" x="475.5" y="-37.8" font-family="Times,serif" font-size="14.00">log gamma1: &#45;11.000000 &#160;&#160;log gamma2: &#45;11.000000</text>
<text text-anchor="middle" x="475.5" y="-22.8" font-family="Times,serif" font-size="14.00">log lambda1: &#45;11.000000 &#160;&#160;log lambda2: &#45;11.000000</text>
<text text-anchor="middle" x="475.5" y="-7.8" font-family="Times,serif" font-size="14.00">n kernels: 64</text>
</g>
<!-- 6&#45;&gt;21 -->
<g id="edge21" class="edge"><title>6&#45;&gt;21</title>
<path fill="none" stroke="black" d="M475.5,-163.923C475.5,-149.486 475.5,-128.413 475.5,-108.306"/>
<polygon fill="black" stroke="black" points="479,-108.234 475.5,-98.2336 472,-108.234 479,-108.234"/>
</g>
<!-- 22 -->
<g id="node23" class="node"><title>22</title>
<path fill="#e9d3ff" stroke="black" d="M939,-98C939,-98 658,-98 658,-98 652,-98 646,-92 646,-86 646,-86 646,-12 646,-12 646,-6 652,-0 658,-0 658,-0 939,-0 939,-0 945,-0 951,-6 951,-12 951,-12 951,-86 951,-86 951,-92 945,-98 939,-98"/>
<text text-anchor="middle" x="798.5" y="-82.8" font-family="Times,serif" font-size="14.00">forward</text>
<text text-anchor="middle" x="798.5" y="-67.8" font-family="Times,serif" font-size="14.00">input</text>
<text text-anchor="middle" x="798.5" y="-52.8" font-family="Times,serif" font-size="14.00">dilation rate: 1 &#160;&#160;k width: 3</text>
<text text-anchor="middle" x="798.5" y="-37.8" font-family="Times,serif" font-size="14.00">log gamma1: &#45;11.000000 &#160;&#160;log gamma2: &#45;11.000000</text>
<text text-anchor="middle" x="798.5" y="-22.8" font-family="Times,serif" font-size="14.00">log lambda1: &#45;11.000000 &#160;&#160;log lambda2: &#45;11.000000</text>
<text text-anchor="middle" x="798.5" y="-7.8" font-family="Times,serif" font-size="14.00">n kernels: 64</text>
</g>
<!-- 7&#45;&gt;22 -->
<g id="edge22" class="edge"><title>7&#45;&gt;22</title>
<path fill="none" stroke="black" d="M845.968,-163.923C839.87,-149.289 830.931,-127.835 822.45,-107.48"/>
<polygon fill="black" stroke="black" points="825.674,-106.118 818.597,-98.2336 819.213,-108.811 825.674,-106.118"/>
</g>
<!-- 23 -->
<g id="node24" class="node"><title>23</title>
<path fill="#e9d3ff" stroke="black" d="M1262,-98C1262,-98 981,-98 981,-98 975,-98 969,-92 969,-86 969,-86 969,-12 969,-12 969,-6 975,-0 981,-0 981,-0 1262,-0 1262,-0 1268,-0 1274,-6 1274,-12 1274,-12 1274,-86 1274,-86 1274,-92 1268,-98 1262,-98"/>
<text text-anchor="middle" x="1121.5" y="-82.8" font-family="Times,serif" font-size="14.00">forward</text>
<text text-anchor="middle" x="1121.5" y="-67.8" font-family="Times,serif" font-size="14.00">CB1/C0</text>
<text text-anchor="middle" x="1121.5" y="-52.8" font-family="Times,serif" font-size="14.00">dilation rate: 1 &#160;&#160;k width: 3</text>
<text text-anchor="middle" x="1121.5" y="-37.8" font-family="Times,serif" font-size="14.00">log gamma1: &#45;11.000000 &#160;&#160;log gamma2: &#45;11.000000</text>
<text text-anchor="middle" x="1121.5" y="-22.8" font-family="Times,serif" font-size="14.00">log lambda1: &#45;11.000000 &#160;&#160;log lambda2: &#45;11.000000</text>
<text text-anchor="middle" x="1121.5" y="-7.8" font-family="Times,serif" font-size="14.00">n kernels: 64</text>
</g>
<!-- 8&#45;&gt;23 -->
<g id="edge23" class="edge"><title>8&#45;&gt;23</title>
<path fill="none" stroke="black" d="M1173.28,-163.923C1166.63,-149.289 1156.88,-127.835 1147.63,-107.48"/>
<polygon fill="black" stroke="black" points="1150.75,-105.889 1143.42,-98.2336 1144.38,-108.786 1150.75,-105.889"/>
</g>
<!-- 24 -->
<g id="node25" class="node"><title>24</title>
<path fill="#e9d3ff" stroke="black" d="M1585,-98C1585,-98 1304,-98 1304,-98 1298,-98 1292,-92 1292,-86 1292,-86 1292,-12 1292,-12 1292,-6 1298,-0 1304,-0 1304,-0 1585,-0 1585,-0 1591,-0 1597,-6 1597,-12 1597,-12 1597,-86 1597,-86 1597,-92 1591,-98 1585,-98"/>
<text text-anchor="middle" x="1444.5" y="-82.8" font-family="Times,serif" font-size="14.00">forward</text>
<text text-anchor="middle" x="1444.5" y="-67.8" font-family="Times,serif" font-size="14.00">CB1/C1</text>
<text text-anchor="middle" x="1444.5" y="-52.8" font-family="Times,serif" font-size="14.00">dilation rate: 1 &#160;&#160;k width: 3</text>
<text text-anchor="middle" x="1444.5" y="-37.8" font-family="Times,serif" font-size="14.00">log gamma1: &#45;11.000000 &#160;&#160;log gamma2: &#45;11.000000</text>
<text text-anchor="middle" x="1444.5" y="-22.8" font-family="Times,serif" font-size="14.00">log lambda1: &#45;11.000000 &#160;&#160;log lambda2: &#45;11.000000</text>
<text text-anchor="middle" x="1444.5" y="-7.8" font-family="Times,serif" font-size="14.00">n kernels: 64</text>
</g>
<!-- 9&#45;&gt;24 -->
<g id="edge24" class="edge"><title>9&#45;&gt;24</title>
<path fill="none" stroke="black" d="M1479.89,-163.923C1475.38,-149.42 1468.8,-128.221 1462.52,-108.03"/>
<polygon fill="black" stroke="black" points="1465.79,-106.745 1459.48,-98.2336 1459.11,-108.822 1465.79,-106.745"/>
</g>
<!-- 25 -->
<g id="node26" class="node"><title>25</title>
<path fill="#e9d3ff" stroke="black" d="M1908,-98C1908,-98 1627,-98 1627,-98 1621,-98 1615,-92 1615,-86 1615,-86 1615,-12 1615,-12 1615,-6 1621,-0 1627,-0 1627,-0 1908,-0 1908,-0 1914,-0 1920,-6 1920,-12 1920,-12 1920,-86 1920,-86 1920,-92 1914,-98 1908,-98"/>
<text text-anchor="middle" x="1767.5" y="-82.8" font-family="Times,serif" font-size="14.00">forward</text>
<text text-anchor="middle" x="1767.5" y="-67.8" font-family="Times,serif" font-size="14.00">CB1/C2</text>
<text text-anchor="middle" x="1767.5" y="-52.8" font-family="Times,serif" font-size="14.00">dilation rate: 1 &#160;&#160;k width: 3</text>
<text text-anchor="middle" x="1767.5" y="-37.8" font-family="Times,serif" font-size="14.00">log gamma1: &#45;11.000000 &#160;&#160;log gamma2: &#45;11.000000</text>
<text text-anchor="middle" x="1767.5" y="-22.8" font-family="Times,serif" font-size="14.00">log lambda1: &#45;11.000000 &#160;&#160;log lambda2: &#45;11.000000</text>
<text text-anchor="middle" x="1767.5" y="-7.8" font-family="Times,serif" font-size="14.00">n kernels: 64</text>
</g>
<!-- 10&#45;&gt;25 -->
<g id="edge25" class="edge"><title>10&#45;&gt;25</title>
<path fill="none" stroke="black" d="M1696.22,-164.743C1705.42,-149.941 1719.2,-127.748 1732.21,-106.812"/>
<polygon fill="black" stroke="black" points="1735.22,-108.595 1737.52,-98.2533 1729.27,-104.901 1735.22,-108.595"/>
</g>
<!-- 26 -->
<g id="node27" class="node"><title>26</title>
<path fill="#e9d3ff" stroke="black" d="M2231,-98C2231,-98 1950,-98 1950,-98 1944,-98 1938,-92 1938,-86 1938,-86 1938,-12 1938,-12 1938,-6 1944,-0 1950,-0 1950,-0 2231,-0 2231,-0 2237,-0 2243,-6 2243,-12 2243,-12 2243,-86 2243,-86 2243,-92 2237,-98 2231,-98"/>
<text text-anchor="middle" x="2090.5" y="-82.8" font-family="Times,serif" font-size="14.00">forward</text>
<text text-anchor="middle" x="2090.5" y="-67.8" font-family="Times,serif" font-size="14.00">CB1/C3</text>
<text text-anchor="middle" x="2090.5" y="-52.8" font-family="Times,serif" font-size="14.00">dilation rate: 1 &#160;&#160;k width: 3</text>
<text text-anchor="middle" x="2090.5" y="-37.8" font-family="Times,serif" font-size="14.00">log gamma1: &#45;11.000000 &#160;&#160;log gamma2: &#45;11.000000</text>
<text text-anchor="middle" x="2090.5" y="-22.8" font-family="Times,serif" font-size="14.00">log lambda1: &#45;11.000000 &#160;&#160;log lambda2: &#45;11.000000</text>
<text text-anchor="middle" x="2090.5" y="-7.8" font-family="Times,serif" font-size="14.00">n kernels: 64</text>
</g>
<!-- 11&#45;&gt;26 -->
<g id="edge26" class="edge"><title>11&#45;&gt;26</title>
<path fill="none" stroke="black" d="M1971.4,-163.923C1987.25,-148.761 2010.75,-126.279 2032.7,-105.284"/>
<polygon fill="black" stroke="black" points="2035.27,-107.675 2040.07,-98.2336 2030.43,-102.617 2035.27,-107.675"/>
</g>
<!-- 27 -->
<g id="node28" class="node"><title>27</title>
<path fill="#e9d3ff" stroke="black" d="M2554,-98C2554,-98 2273,-98 2273,-98 2267,-98 2261,-92 2261,-86 2261,-86 2261,-12 2261,-12 2261,-6 2267,-0 2273,-0 2273,-0 2554,-0 2554,-0 2560,-0 2566,-6 2566,-12 2566,-12 2566,-86 2566,-86 2566,-92 2560,-98 2554,-98"/>
<text text-anchor="middle" x="2413.5" y="-82.8" font-family="Times,serif" font-size="14.00">forward</text>
<text text-anchor="middle" x="2413.5" y="-67.8" font-family="Times,serif" font-size="14.00">input</text>
<text text-anchor="middle" x="2413.5" y="-52.8" font-family="Times,serif" font-size="14.00">dilation rate: 1 &#160;&#160;k width: 3</text>
<text text-anchor="middle" x="2413.5" y="-37.8" font-family="Times,serif" font-size="14.00">log gamma1: &#45;11.000000 &#160;&#160;log gamma2: &#45;11.000000</text>
<text text-anchor="middle" x="2413.5" y="-22.8" font-family="Times,serif" font-size="14.00">log lambda1: &#45;11.000000 &#160;&#160;log lambda2: &#45;11.000000</text>
<text text-anchor="middle" x="2413.5" y="-7.8" font-family="Times,serif" font-size="14.00">n kernels: 64</text>
</g>
<!-- 12&#45;&gt;27 -->
<g id="edge27" class="edge"><title>12&#45;&gt;27</title>
<path fill="none" stroke="black" d="M2502.17,-164.743C2490.63,-149.809 2473.27,-127.353 2456.97,-106.254"/>
<polygon fill="black" stroke="black" points="2459.67,-104.026 2450.79,-98.2533 2454.13,-108.306 2459.67,-104.026"/>
</g>
<!-- 28 -->
<g id="node29" class="node"><title>28</title>
<path fill="#e9d3ff" stroke="black" d="M2877,-98C2877,-98 2596,-98 2596,-98 2590,-98 2584,-92 2584,-86 2584,-86 2584,-12 2584,-12 2584,-6 2590,-0 2596,-0 2596,-0 2877,-0 2877,-0 2883,-0 2889,-6 2889,-12 2889,-12 2889,-86 2889,-86 2889,-92 2883,-98 2877,-98"/>
<text text-anchor="middle" x="2736.5" y="-82.8" font-family="Times,serif" font-size="14.00">forward</text>
<text text-anchor="middle" x="2736.5" y="-67.8" font-family="Times,serif" font-size="14.00">CB2/C0</text>
<text text-anchor="middle" x="2736.5" y="-52.8" font-family="Times,serif" font-size="14.00">dilation rate: 1 &#160;&#160;k width: 3</text>
<text text-anchor="middle" x="2736.5" y="-37.8" font-family="Times,serif" font-size="14.00">log gamma1: &#45;11.000000 &#160;&#160;log gamma2: &#45;11.000000</text>
<text text-anchor="middle" x="2736.5" y="-22.8" font-family="Times,serif" font-size="14.00">log lambda1: &#45;11.000000 &#160;&#160;log lambda2: &#45;11.000000</text>
<text text-anchor="middle" x="2736.5" y="-7.8" font-family="Times,serif" font-size="14.00">n kernels: 64</text>
</g>
<!-- 13&#45;&gt;28 -->
<g id="edge28" class="edge"><title>13&#45;&gt;28</title>
<path fill="none" stroke="black" d="M2736.5,-163.923C2736.5,-149.486 2736.5,-128.413 2736.5,-108.306"/>
<polygon fill="black" stroke="black" points="2740,-108.234 2736.5,-98.2336 2733,-108.234 2740,-108.234"/>
</g>
<!-- 29 -->
<g id="node30" class="node"><title>29</title>
<path fill="#e9d3ff" stroke="black" d="M3200,-98C3200,-98 2919,-98 2919,-98 2913,-98 2907,-92 2907,-86 2907,-86 2907,-12 2907,-12 2907,-6 2913,-0 2919,-0 2919,-0 3200,-0 3200,-0 3206,-0 3212,-6 3212,-12 3212,-12 3212,-86 3212,-86 3212,-92 3206,-98 3200,-98"/>
<text text-anchor="middle" x="3059.5" y="-82.8" font-family="Times,serif" font-size="14.00">forward</text>
<text text-anchor="middle" x="3059.5" y="-67.8" font-family="Times,serif" font-size="14.00">CB2/C1</text>
<text text-anchor="middle" x="3059.5" y="-52.8" font-family="Times,serif" font-size="14.00">dilation rate: 1 &#160;&#160;k width: 3</text>
<text text-anchor="middle" x="3059.5" y="-37.8" font-family="Times,serif" font-size="14.00">log gamma1: &#45;11.000000 &#160;&#160;log gamma2: &#45;11.000000</text>
<text text-anchor="middle" x="3059.5" y="-22.8" font-family="Times,serif" font-size="14.00">log lambda1: &#45;11.000000 &#160;&#160;log lambda2: &#45;11.000000</text>
<text text-anchor="middle" x="3059.5" y="-7.8" font-family="Times,serif" font-size="14.00">n kernels: 64</text>
</g>
<!-- 14&#45;&gt;29 -->
<g id="edge29" class="edge"><title>14&#45;&gt;29</title>
<path fill="none" stroke="black" d="M2923.14,-163.923C2941.44,-148.629 2968.66,-125.888 2993.98,-104.737"/>
<polygon fill="black" stroke="black" points="2996.34,-107.331 3001.77,-98.2336 2991.85,-101.959 2996.34,-107.331"/>
</g>
<!-- 30 -->
<g id="node31" class="node"><title>30</title>
<path fill="#e9d3ff" stroke="black" d="M3523,-98C3523,-98 3242,-98 3242,-98 3236,-98 3230,-92 3230,-86 3230,-86 3230,-12 3230,-12 3230,-6 3236,-0 3242,-0 3242,-0 3523,-0 3523,-0 3529,-0 3535,-6 3535,-12 3535,-12 3535,-86 3535,-86 3535,-92 3529,-98 3523,-98"/>
<text text-anchor="middle" x="3382.5" y="-82.8" font-family="Times,serif" font-size="14.00">forward</text>
<text text-anchor="middle" x="3382.5" y="-67.8" font-family="Times,serif" font-size="14.00">CB2/C2</text>
<text text-anchor="middle" x="3382.5" y="-52.8" font-family="Times,serif" font-size="14.00">dilation rate: 1 &#160;&#160;k width: 3</text>
<text text-anchor="middle" x="3382.5" y="-37.8" font-family="Times,serif" font-size="14.00">log gamma1: &#45;11.000000 &#160;&#160;log gamma2: &#45;11.000000</text>
<text text-anchor="middle" x="3382.5" y="-22.8" font-family="Times,serif" font-size="14.00">log lambda1: &#45;11.000000 &#160;&#160;log lambda2: &#45;11.000000</text>
<text text-anchor="middle" x="3382.5" y="-7.8" font-family="Times,serif" font-size="14.00">n kernels: 64</text>
</g>
<!-- 15&#45;&gt;30 -->
<g id="edge30" class="edge"><title>15&#45;&gt;30</title>
<path fill="none" stroke="black" d="M3146.02,-163.923C3178.86,-148.102 3228.25,-124.31 3273.41,-102.554"/>
<polygon fill="black" stroke="black" points="3275.19,-105.583 3282.68,-98.0901 3272.15,-99.2771 3275.19,-105.583"/>
</g>
<!-- 31 -->
<g id="node32" class="node"><title>31</title>
<path fill="#e9d3ff" stroke="black" d="M3846,-98C3846,-98 3565,-98 3565,-98 3559,-98 3553,-92 3553,-86 3553,-86 3553,-12 3553,-12 3553,-6 3559,-0 3565,-0 3565,-0 3846,-0 3846,-0 3852,-0 3858,-6 3858,-12 3858,-12 3858,-86 3858,-86 3858,-92 3852,-98 3846,-98"/>
<text text-anchor="middle" x="3705.5" y="-82.8" font-family="Times,serif" font-size="14.00">forward</text>
<text text-anchor="middle" x="3705.5" y="-67.8" font-family="Times,serif" font-size="14.00">CB2/C3</text>
<text text-anchor="middle" x="3705.5" y="-52.8" font-family="Times,serif" font-size="14.00">dilation rate: 1 &#160;&#160;k width: 3</text>
<text text-anchor="middle" x="3705.5" y="-37.8" font-family="Times,serif" font-size="14.00">log gamma1: &#45;11.000000 &#160;&#160;log gamma2: &#45;11.000000</text>
<text text-anchor="middle" x="3705.5" y="-22.8" font-family="Times,serif" font-size="14.00">log lambda1: &#45;11.000000 &#160;&#160;log lambda2: &#45;11.000000</text>
<text text-anchor="middle" x="3705.5" y="-7.8" font-family="Times,serif" font-size="14.00">n kernels: 64</text>
</g>
<!-- 16&#45;&gt;31 -->
<g id="edge31" class="edge"><title>16&#45;&gt;31</title>
<path fill="none" stroke="black" d="M3293.68,-163.656C3302.15,-153.277 3314.06,-141.009 3327.5,-134 3411.02,-90.4612 3446.36,-117.956 3542.74,-98.01"/>
<polygon fill="black" stroke="black" points="3543.56,-101.414 3552.58,-95.8552 3542.06,-94.5765 3543.56,-101.414"/>
</g>
</g>
</svg>
