<?xml version="1.0" encoding="UTF-8" standalone="no"?>
<!DOCTYPE svg PUBLIC "-//W3C//DTD SVG 1.1//EN"
 "http://www.w3.org/Graphics/SVG/1.1/DTD/svg11.dtd">
<!-- Generated by graphviz version 2.38.0 (20140413.2041)
 -->
<!-- Title: %3 Pages: 1 -->
<svg width="2541pt" height="387pt"
 viewBox="0.00 0.00 2541.00 387.00" xmlns="http://www.w3.org/2000/svg" xmlns:xlink="http://www.w3.org/1999/xlink">
<g id="graph0" class="graph" transform="scale(1 1) rotate(0) translate(4 383)">
<title>%3</title>
<polygon fill="none" stroke="none" points="-4,4 -4,-383 2537,-383 2537,4 -4,4"/>
<!-- 0 -->
<g id="node1" class="node"><title>0</title>
<path fill="#ffd3d3" stroke="black" d="M1447,-379C1447,-379 1377,-379 1377,-379 1371,-379 1365,-373 1365,-367 1365,-367 1365,-353 1365,-353 1365,-347 1371,-341 1377,-341 1377,-341 1447,-341 1447,-341 1453,-341 1459,-347 1459,-353 1459,-353 1459,-367 1459,-367 1459,-373 1453,-379 1447,-379"/>
<text text-anchor="middle" x="1412" y="-363.8" font-family="Times,serif" font-size="14.00">net</text>
<text text-anchor="middle" x="1412" y="-348.8" font-family="Times,serif" font-size="14.00">n kernels: 124</text>
</g>
<!-- 1 -->
<g id="node2" class="node"><title>1</title>
<path fill="#f6ffd3" stroke="black" d="M1270.5,-305C1270.5,-305 1007.5,-305 1007.5,-305 1001.5,-305 995.5,-299 995.5,-293 995.5,-293 995.5,-264 995.5,-264 995.5,-258 1001.5,-252 1007.5,-252 1007.5,-252 1270.5,-252 1270.5,-252 1276.5,-252 1282.5,-258 1282.5,-264 1282.5,-264 1282.5,-293 1282.5,-293 1282.5,-299 1276.5,-305 1270.5,-305"/>
<text text-anchor="middle" x="1139" y="-289.8" font-family="Times,serif" font-size="14.00">encoder</text>
<text text-anchor="middle" x="1139" y="-274.8" font-family="Times,serif" font-size="14.00">log gamma1: 0.210991 &#160;&#160;log gamma2: &#45;0.411259</text>
<text text-anchor="middle" x="1139" y="-259.8" font-family="Times,serif" font-size="14.00">pooling type: &#45;1</text>
</g>
<!-- 0&#45;&gt;1 -->
<g id="edge1" class="edge"><title>0&#45;&gt;1</title>
<path fill="none" stroke="black" d="M1364.76,-345.243C1329.5,-334.976 1280.1,-320.589 1236.49,-307.89"/>
<polygon fill="black" stroke="black" points="1237.28,-304.476 1226.7,-305.04 1235.33,-311.197 1237.28,-304.476"/>
</g>
<!-- 2 -->
<g id="node3" class="node"><title>2</title>
<path fill="#f6ffd3" stroke="black" d="M1814.5,-305C1814.5,-305 1555.5,-305 1555.5,-305 1549.5,-305 1543.5,-299 1543.5,-293 1543.5,-293 1543.5,-264 1543.5,-264 1543.5,-258 1549.5,-252 1555.5,-252 1555.5,-252 1814.5,-252 1814.5,-252 1820.5,-252 1826.5,-258 1826.5,-264 1826.5,-264 1826.5,-293 1826.5,-293 1826.5,-299 1820.5,-305 1814.5,-305"/>
<text text-anchor="middle" x="1685" y="-289.8" font-family="Times,serif" font-size="14.00">decoder</text>
<text text-anchor="middle" x="1685" y="-274.8" font-family="Times,serif" font-size="14.00">log gamma1: 0.252445 &#160;&#160;log gamma2: 0.267190</text>
<text text-anchor="middle" x="1685" y="-259.8" font-family="Times,serif" font-size="14.00">n kernels: &#45;2 &#160;&#160;pooling type: 1</text>
</g>
<!-- 0&#45;&gt;2 -->
<g id="edge2" class="edge"><title>0&#45;&gt;2</title>
<path fill="none" stroke="black" d="M1459.24,-345.243C1494.5,-334.976 1543.9,-320.589 1587.51,-307.89"/>
<polygon fill="black" stroke="black" points="1588.67,-311.197 1597.3,-305.04 1586.72,-304.476 1588.67,-311.197"/>
</g>
<!-- 3 -->
<g id="node4" class="node"><title>3</title>
<path fill="#d3ffe4" stroke="black" d="M681.5,-216C681.5,-216 418.5,-216 418.5,-216 412.5,-216 406.5,-210 406.5,-204 406.5,-204 406.5,-175 406.5,-175 406.5,-169 412.5,-163 418.5,-163 418.5,-163 681.5,-163 681.5,-163 687.5,-163 693.5,-169 693.5,-175 693.5,-175 693.5,-204 693.5,-204 693.5,-210 687.5,-216 681.5,-216"/>
<text text-anchor="middle" x="550" y="-200.8" font-family="Times,serif" font-size="14.00">encode block 0</text>
<text text-anchor="middle" x="550" y="-185.8" font-family="Times,serif" font-size="14.00">log gamma1: 0.161059 &#160;&#160;log gamma2: &#45;0.236671</text>
<text text-anchor="middle" x="550" y="-170.8" font-family="Times,serif" font-size="14.00">n kernels: 8 &#160;&#160;pooling type: &#45;1</text>
</g>
<!-- 1&#45;&gt;3 -->
<g id="edge3" class="edge"><title>1&#45;&gt;3</title>
<path fill="none" stroke="black" d="M995.291,-256.273C906.912,-243.219 793.722,-226.5 703.579,-213.185"/>
<polygon fill="black" stroke="black" points="703.945,-209.701 693.541,-211.702 702.922,-216.626 703.945,-209.701"/>
</g>
<!-- 4 -->
<g id="node5" class="node"><title>4</title>
<path fill="#bfe6cf" stroke="black" d="M1239,-216C1239,-216 1039,-216 1039,-216 1033,-216 1027,-210 1027,-204 1027,-204 1027,-175 1027,-175 1027,-169 1033,-163 1039,-163 1039,-163 1239,-163 1239,-163 1245,-163 1251,-169 1251,-175 1251,-175 1251,-204 1251,-204 1251,-210 1245,-216 1239,-216"/>
<text text-anchor="middle" x="1139" y="-200.8" font-family="Times,serif" font-size="14.00">encode block 1</text>
<text text-anchor="middle" x="1139" y="-185.8" font-family="Times,serif" font-size="14.00">log gamma1: &#45;0.212415 &#160;&#160;n kernels: 7</text>
<text text-anchor="middle" x="1139" y="-170.8" font-family="Times,serif" font-size="14.00">spatial scale: 1</text>
</g>
<!-- 1&#45;&gt;4 -->
<g id="edge4" class="edge"><title>1&#45;&gt;4</title>
<path fill="none" stroke="black" d="M1139,-251.868C1139,-243.886 1139,-234.932 1139,-226.384"/>
<polygon fill="black" stroke="black" points="1142.5,-226.25 1139,-216.25 1135.5,-226.25 1142.5,-226.25"/>
</g>
<!-- 5 -->
<g id="node6" class="node"><title>5</title>
<path fill="#d3ffe4" stroke="black" d="M1785,-216C1785,-216 1585,-216 1585,-216 1579,-216 1573,-210 1573,-204 1573,-204 1573,-175 1573,-175 1573,-169 1579,-163 1585,-163 1585,-163 1785,-163 1785,-163 1791,-163 1797,-169 1797,-175 1797,-175 1797,-204 1797,-204 1797,-210 1791,-216 1785,-216"/>
<text text-anchor="middle" x="1685" y="-200.8" font-family="Times,serif" font-size="14.00">decode block 1</text>
<text text-anchor="middle" x="1685" y="-185.8" font-family="Times,serif" font-size="14.00">log gamma1: &#45;0.079896 &#160;&#160;n kernels: 2</text>
<text text-anchor="middle" x="1685" y="-170.8" font-family="Times,serif" font-size="14.00">spatial scale: 1</text>
</g>
<!-- 2&#45;&gt;5 -->
<g id="edge5" class="edge"><title>2&#45;&gt;5</title>
<path fill="none" stroke="black" d="M1685,-251.868C1685,-243.886 1685,-234.932 1685,-226.384"/>
<polygon fill="black" stroke="black" points="1688.5,-226.25 1685,-216.25 1681.5,-226.25 1688.5,-226.25"/>
</g>
<!-- 6 -->
<g id="node7" class="node"><title>6</title>
<path fill="#bfe6cf" stroke="black" d="M2318.5,-216C2318.5,-216 2059.5,-216 2059.5,-216 2053.5,-216 2047.5,-210 2047.5,-204 2047.5,-204 2047.5,-175 2047.5,-175 2047.5,-169 2053.5,-163 2059.5,-163 2059.5,-163 2318.5,-163 2318.5,-163 2324.5,-163 2330.5,-169 2330.5,-175 2330.5,-175 2330.5,-204 2330.5,-204 2330.5,-210 2324.5,-216 2318.5,-216"/>
<text text-anchor="middle" x="2189" y="-200.8" font-family="Times,serif" font-size="14.00">decode block 0</text>
<text text-anchor="middle" x="2189" y="-185.8" font-family="Times,serif" font-size="14.00">log gamma1: 0.027005 &#160;&#160;log gamma2: 0.222945</text>
<text text-anchor="middle" x="2189" y="-170.8" font-family="Times,serif" font-size="14.00">pooling type: 1</text>
</g>
<!-- 2&#45;&gt;6 -->
<g id="edge6" class="edge"><title>2&#45;&gt;6</title>
<path fill="none" stroke="black" d="M1826.73,-253.034C1892.37,-241.704 1970.43,-228.229 2037.26,-216.693"/>
<polygon fill="black" stroke="black" points="2038.2,-220.083 2047.46,-214.933 2037.01,-213.185 2038.2,-220.083"/>
</g>
<!-- 7 -->
<g id="node8" class="node"><title>7</title>
<path fill="#d3e4ff" stroke="black" d="M280,-119.5C280,-119.5 12,-119.5 12,-119.5 6,-119.5 0,-113.5 0,-107.5 0,-107.5 0,-93.5 0,-93.5 0,-87.5 6,-81.5 12,-81.5 12,-81.5 280,-81.5 280,-81.5 286,-81.5 292,-87.5 292,-93.5 292,-93.5 292,-107.5 292,-107.5 292,-113.5 286,-119.5 280,-119.5"/>
<text text-anchor="middle" x="146" y="-104.3" font-family="Times,serif" font-size="14.00">comp 0</text>
<text text-anchor="middle" x="146" y="-89.3" font-family="Times,serif" font-size="14.00">log gamma1: &#45;0.160815 &#160;&#160;log gamma2: &#45;0.399426</text>
</g>
<!-- 3&#45;&gt;7 -->
<g id="edge7" class="edge"><title>3&#45;&gt;7</title>
<path fill="none" stroke="black" d="M431.516,-162.985C370.456,-149.836 297.038,-134.026 239.943,-121.73"/>
<polygon fill="black" stroke="black" points="240.354,-118.239 229.841,-119.555 238.88,-125.082 240.354,-118.239"/>
</g>
<!-- 8 -->
<g id="node9" class="node"><title>8</title>
<path fill="#bfcfe6" stroke="black" d="M585.5,-119.5C585.5,-119.5 322.5,-119.5 322.5,-119.5 316.5,-119.5 310.5,-113.5 310.5,-107.5 310.5,-107.5 310.5,-93.5 310.5,-93.5 310.5,-87.5 316.5,-81.5 322.5,-81.5 322.5,-81.5 585.5,-81.5 585.5,-81.5 591.5,-81.5 597.5,-87.5 597.5,-93.5 597.5,-93.5 597.5,-107.5 597.5,-107.5 597.5,-113.5 591.5,-119.5 585.5,-119.5"/>
<text text-anchor="middle" x="454" y="-104.3" font-family="Times,serif" font-size="14.00">comp 1</text>
<text text-anchor="middle" x="454" y="-89.3" font-family="Times,serif" font-size="14.00">log gamma1: &#45;0.099577 &#160;&#160;log gamma2: 0.328360</text>
</g>
<!-- 3&#45;&gt;8 -->
<g id="edge8" class="edge"><title>3&#45;&gt;8</title>
<path fill="none" stroke="black" d="M521.716,-162.868C508.983,-151.328 494.01,-137.759 481.385,-126.318"/>
<polygon fill="black" stroke="black" points="483.63,-123.628 473.869,-119.507 478.929,-128.815 483.63,-123.628"/>
</g>
<!-- 9 -->
<g id="node10" class="node"><title>9</title>
<path fill="#abb9ce" stroke="black" d="M662,-118.5C662,-118.5 628,-118.5 628,-118.5 622,-118.5 616,-112.5 616,-106.5 616,-106.5 616,-94.5 616,-94.5 616,-88.5 622,-82.5 628,-82.5 628,-82.5 662,-82.5 662,-82.5 668,-82.5 674,-88.5 674,-94.5 674,-94.5 674,-106.5 674,-106.5 674,-112.5 668,-118.5 662,-118.5"/>
<text text-anchor="middle" x="645" y="-96.8" font-family="Times,serif" font-size="14.00">identity</text>
</g>
<!-- 3&#45;&gt;9 -->
<g id="edge9" class="edge"><title>3&#45;&gt;9</title>
<path fill="none" stroke="black" d="M577.989,-162.868C590.862,-151.079 606.047,-137.172 618.705,-125.58"/>
<polygon fill="black" stroke="black" points="621.206,-128.036 626.217,-118.701 616.478,-122.874 621.206,-128.036"/>
</g>
<!-- 10 -->
<g id="node11" class="node"><title>10</title>
<path fill="#d3e4ff" stroke="black" d="M967.5,-127C967.5,-127 704.5,-127 704.5,-127 698.5,-127 692.5,-121 692.5,-115 692.5,-115 692.5,-86 692.5,-86 692.5,-80 698.5,-74 704.5,-74 704.5,-74 967.5,-74 967.5,-74 973.5,-74 979.5,-80 979.5,-86 979.5,-86 979.5,-115 979.5,-115 979.5,-121 973.5,-127 967.5,-127"/>
<text text-anchor="middle" x="836" y="-111.8" font-family="Times,serif" font-size="14.00">comp 0</text>
<text text-anchor="middle" x="836" y="-96.8" font-family="Times,serif" font-size="14.00">log gamma1: 0.426789 &#160;&#160;log gamma2: &#45;0.078778</text>
<text text-anchor="middle" x="836" y="-81.8" font-family="Times,serif" font-size="14.00">pooling type: 1</text>
</g>
<!-- 4&#45;&gt;10 -->
<g id="edge10" class="edge"><title>4&#45;&gt;10</title>
<path fill="none" stroke="black" d="M1050.14,-162.985C1013.91,-152.583 971.883,-140.516 934.704,-129.841"/>
<polygon fill="black" stroke="black" points="935.439,-126.41 924.861,-127.015 933.507,-133.138 935.439,-126.41"/>
</g>
<!-- 11 -->
<g id="node12" class="node"><title>11</title>
<path fill="#bfcfe6" stroke="black" d="M1268.5,-127C1268.5,-127 1009.5,-127 1009.5,-127 1003.5,-127 997.5,-121 997.5,-115 997.5,-115 997.5,-86 997.5,-86 997.5,-80 1003.5,-74 1009.5,-74 1009.5,-74 1268.5,-74 1268.5,-74 1274.5,-74 1280.5,-80 1280.5,-86 1280.5,-86 1280.5,-115 1280.5,-115 1280.5,-121 1274.5,-127 1268.5,-127"/>
<text text-anchor="middle" x="1139" y="-111.8" font-family="Times,serif" font-size="14.00">comp 1</text>
<text text-anchor="middle" x="1139" y="-96.8" font-family="Times,serif" font-size="14.00">log gamma1: 0.060345 &#160;&#160;log gamma2: 0.468786</text>
<text text-anchor="middle" x="1139" y="-81.8" font-family="Times,serif" font-size="14.00">n kernels: &#45;3 &#160;&#160;pooling type: 1</text>
</g>
<!-- 4&#45;&gt;11 -->
<g id="edge11" class="edge"><title>4&#45;&gt;11</title>
<path fill="none" stroke="black" d="M1139,-162.868C1139,-154.886 1139,-145.932 1139,-137.384"/>
<polygon fill="black" stroke="black" points="1142.5,-137.25 1139,-127.25 1135.5,-137.25 1142.5,-137.25"/>
</g>
<!-- 12 -->
<g id="node13" class="node"><title>12</title>
<path fill="#abb9ce" stroke="black" d="M1345,-118.5C1345,-118.5 1311,-118.5 1311,-118.5 1305,-118.5 1299,-112.5 1299,-106.5 1299,-106.5 1299,-94.5 1299,-94.5 1299,-88.5 1305,-82.5 1311,-82.5 1311,-82.5 1345,-82.5 1345,-82.5 1351,-82.5 1357,-88.5 1357,-94.5 1357,-94.5 1357,-106.5 1357,-106.5 1357,-112.5 1351,-118.5 1345,-118.5"/>
<text text-anchor="middle" x="1328" y="-96.8" font-family="Times,serif" font-size="14.00">identity</text>
</g>
<!-- 4&#45;&gt;12 -->
<g id="edge12" class="edge"><title>4&#45;&gt;12</title>
<path fill="none" stroke="black" d="M1209.33,-162.865C1234.9,-152.716 1263.71,-140.295 1289,-127 1290.77,-126.068 1292.57,-125.078 1294.36,-124.05"/>
<polygon fill="black" stroke="black" points="1296.5,-126.848 1303.25,-118.683 1292.88,-120.856 1296.5,-126.848"/>
</g>
<!-- 13 -->
<g id="node14" class="node"><title>13</title>
<path fill="#d3e4ff" stroke="black" d="M1511.5,-119.5C1511.5,-119.5 1386.5,-119.5 1386.5,-119.5 1380.5,-119.5 1374.5,-113.5 1374.5,-107.5 1374.5,-107.5 1374.5,-93.5 1374.5,-93.5 1374.5,-87.5 1380.5,-81.5 1386.5,-81.5 1386.5,-81.5 1511.5,-81.5 1511.5,-81.5 1517.5,-81.5 1523.5,-87.5 1523.5,-93.5 1523.5,-93.5 1523.5,-107.5 1523.5,-107.5 1523.5,-113.5 1517.5,-119.5 1511.5,-119.5"/>
<text text-anchor="middle" x="1449" y="-104.3" font-family="Times,serif" font-size="14.00">comp 0</text>
<text text-anchor="middle" x="1449" y="-89.3" font-family="Times,serif" font-size="14.00">log gamma1: &#45;0.139850</text>
</g>
<!-- 5&#45;&gt;13 -->
<g id="edge13" class="edge"><title>5&#45;&gt;13</title>
<path fill="none" stroke="black" d="M1615.79,-162.985C1581.37,-150.299 1540.24,-135.135 1507.43,-123.041"/>
<polygon fill="black" stroke="black" points="1508.57,-119.73 1497.98,-119.555 1506.15,-126.298 1508.57,-119.73"/>
</g>
<!-- 14 -->
<g id="node15" class="node"><title>14</title>
<path fill="#bfcfe6" stroke="black" d="M1816.5,-119.5C1816.5,-119.5 1553.5,-119.5 1553.5,-119.5 1547.5,-119.5 1541.5,-113.5 1541.5,-107.5 1541.5,-107.5 1541.5,-93.5 1541.5,-93.5 1541.5,-87.5 1547.5,-81.5 1553.5,-81.5 1553.5,-81.5 1816.5,-81.5 1816.5,-81.5 1822.5,-81.5 1828.5,-87.5 1828.5,-93.5 1828.5,-93.5 1828.5,-107.5 1828.5,-107.5 1828.5,-113.5 1822.5,-119.5 1816.5,-119.5"/>
<text text-anchor="middle" x="1685" y="-104.3" font-family="Times,serif" font-size="14.00">comp 1</text>
<text text-anchor="middle" x="1685" y="-89.3" font-family="Times,serif" font-size="14.00">log gamma1: &#45;0.234525 &#160;&#160;log gamma2: 0.119814</text>
</g>
<!-- 5&#45;&gt;14 -->
<g id="edge14" class="edge"><title>5&#45;&gt;14</title>
<path fill="none" stroke="black" d="M1685,-162.868C1685,-152.417 1685,-140.301 1685,-129.609"/>
<polygon fill="black" stroke="black" points="1688.5,-129.507 1685,-119.507 1681.5,-129.507 1688.5,-129.507"/>
</g>
<!-- 15 -->
<g id="node16" class="node"><title>15</title>
<path fill="#abb9ce" stroke="black" d="M1893,-118.5C1893,-118.5 1859,-118.5 1859,-118.5 1853,-118.5 1847,-112.5 1847,-106.5 1847,-106.5 1847,-94.5 1847,-94.5 1847,-88.5 1853,-82.5 1859,-82.5 1859,-82.5 1893,-82.5 1893,-82.5 1899,-82.5 1905,-88.5 1905,-94.5 1905,-94.5 1905,-106.5 1905,-106.5 1905,-112.5 1899,-118.5 1893,-118.5"/>
<text text-anchor="middle" x="1876" y="-96.8" font-family="Times,serif" font-size="14.00">identity</text>
</g>
<!-- 5&#45;&gt;15 -->
<g id="edge15" class="edge"><title>5&#45;&gt;15</title>
<path fill="none" stroke="black" d="M1756.29,-162.966C1782.2,-152.828 1811.39,-140.388 1837,-127 1838.77,-126.072 1840.57,-125.086 1842.37,-124.06"/>
<polygon fill="black" stroke="black" points="1844.5,-126.86 1851.26,-118.701 1840.89,-120.865 1844.5,-126.86"/>
</g>
<!-- 16 -->
<g id="node17" class="node"><title>16</title>
<path fill="#d3e4ff" stroke="black" d="M2194.5,-119.5C2194.5,-119.5 1935.5,-119.5 1935.5,-119.5 1929.5,-119.5 1923.5,-113.5 1923.5,-107.5 1923.5,-107.5 1923.5,-93.5 1923.5,-93.5 1923.5,-87.5 1929.5,-81.5 1935.5,-81.5 1935.5,-81.5 2194.5,-81.5 2194.5,-81.5 2200.5,-81.5 2206.5,-87.5 2206.5,-93.5 2206.5,-93.5 2206.5,-107.5 2206.5,-107.5 2206.5,-113.5 2200.5,-119.5 2194.5,-119.5"/>
<text text-anchor="middle" x="2065" y="-104.3" font-family="Times,serif" font-size="14.00">comp 0</text>
<text text-anchor="middle" x="2065" y="-89.3" font-family="Times,serif" font-size="14.00">log gamma1: 0.200151 &#160;&#160;log gamma2: 0.311401</text>
</g>
<!-- 6&#45;&gt;16 -->
<g id="edge16" class="edge"><title>6&#45;&gt;16</title>
<path fill="none" stroke="black" d="M2152.47,-162.868C2135.55,-151.002 2115.58,-136.989 2099,-125.352"/>
<polygon fill="black" stroke="black" points="2100.86,-122.385 2090.66,-119.507 2096.84,-128.115 2100.86,-122.385"/>
</g>
<!-- 17 -->
<g id="node18" class="node"><title>17</title>
<path fill="#bfcfe6" stroke="black" d="M2391.5,-119.5C2391.5,-119.5 2236.5,-119.5 2236.5,-119.5 2230.5,-119.5 2224.5,-113.5 2224.5,-107.5 2224.5,-107.5 2224.5,-93.5 2224.5,-93.5 2224.5,-87.5 2230.5,-81.5 2236.5,-81.5 2236.5,-81.5 2391.5,-81.5 2391.5,-81.5 2397.5,-81.5 2403.5,-87.5 2403.5,-93.5 2403.5,-93.5 2403.5,-107.5 2403.5,-107.5 2403.5,-113.5 2397.5,-119.5 2391.5,-119.5"/>
<text text-anchor="middle" x="2314" y="-104.3" font-family="Times,serif" font-size="14.00">comp 1</text>
<text text-anchor="middle" x="2314" y="-89.3" font-family="Times,serif" font-size="14.00">n kernels: 8 &#160;&#160;pooling type: &#45;1</text>
</g>
<!-- 6&#45;&gt;17 -->
<g id="edge17" class="edge"><title>6&#45;&gt;17</title>
<path fill="none" stroke="black" d="M2225.83,-162.868C2242.88,-151.002 2263.01,-136.989 2279.73,-125.352"/>
<polygon fill="black" stroke="black" points="2281.92,-128.092 2288.13,-119.507 2277.92,-122.347 2281.92,-128.092"/>
</g>
<!-- 18 -->
<g id="node19" class="node"><title>18</title>
<path fill="#abb9ce" stroke="black" d="M2468,-118.5C2468,-118.5 2434,-118.5 2434,-118.5 2428,-118.5 2422,-112.5 2422,-106.5 2422,-106.5 2422,-94.5 2422,-94.5 2422,-88.5 2428,-82.5 2434,-82.5 2434,-82.5 2468,-82.5 2468,-82.5 2474,-82.5 2480,-88.5 2480,-94.5 2480,-94.5 2480,-106.5 2480,-106.5 2480,-112.5 2474,-118.5 2468,-118.5"/>
<text text-anchor="middle" x="2451" y="-96.8" font-family="Times,serif" font-size="14.00">identity</text>
</g>
<!-- 6&#45;&gt;18 -->
<g id="edge18" class="edge"><title>6&#45;&gt;18</title>
<path fill="none" stroke="black" d="M2308,-162.986C2342.34,-153.689 2379.33,-141.749 2412,-127 2414.1,-126.053 2416.21,-125.002 2418.31,-123.882"/>
<polygon fill="black" stroke="black" points="2420.44,-126.688 2427.33,-118.633 2416.92,-120.638 2420.44,-126.688"/>
</g>
<!-- 19 -->
<g id="node20" class="node"><title>19</title>
<path fill="#f6d3ff" stroke="black" d="M163.5,-38C163.5,-38 128.5,-38 128.5,-38 122.5,-38 116.5,-32 116.5,-26 116.5,-26 116.5,-12 116.5,-12 116.5,-6 122.5,-0 128.5,-0 128.5,-0 163.5,-0 163.5,-0 169.5,-0 175.5,-6 175.5,-12 175.5,-12 175.5,-26 175.5,-26 175.5,-32 169.5,-38 163.5,-38"/>
<text text-anchor="middle" x="146" y="-22.8" font-family="Times,serif" font-size="14.00">forward</text>
<text text-anchor="middle" x="146" y="-7.8" font-family="Times,serif" font-size="14.00">input</text>
</g>
<!-- 7&#45;&gt;19 -->
<g id="edge19" class="edge"><title>7&#45;&gt;19</title>
<path fill="none" stroke="black" d="M146,-81.4602C146,-71.67 146,-59.3453 146,-48.3073"/>
<polygon fill="black" stroke="black" points="149.5,-48.2435 146,-38.2436 142.5,-48.2436 149.5,-48.2435"/>
</g>
<!-- 20 -->
<g id="node21" class="node"><title>20</title>
<path fill="#f6d3ff" stroke="black" d="M472,-38C472,-38 436,-38 436,-38 430,-38 424,-32 424,-26 424,-26 424,-12 424,-12 424,-6 430,-0 436,-0 436,-0 472,-0 472,-0 478,-0 484,-6 484,-12 484,-12 484,-26 484,-26 484,-32 478,-38 472,-38"/>
<text text-anchor="middle" x="454" y="-22.8" font-family="Times,serif" font-size="14.00">forward</text>
<text text-anchor="middle" x="454" y="-7.8" font-family="Times,serif" font-size="14.00">EB0/C0</text>
</g>
<!-- 8&#45;&gt;20 -->
<g id="edge20" class="edge"><title>8&#45;&gt;20</title>
<path fill="none" stroke="black" d="M454,-81.4602C454,-71.67 454,-59.3453 454,-48.3073"/>
<polygon fill="black" stroke="black" points="457.5,-48.2435 454,-38.2436 450.5,-48.2436 457.5,-48.2435"/>
</g>
<!-- 21 -->
<g id="node22" class="node"><title>21</title>
<path fill="#f6d3ff" stroke="black" d="M624,-38C624,-38 588,-38 588,-38 582,-38 576,-32 576,-26 576,-26 576,-12 576,-12 576,-6 582,-0 588,-0 588,-0 624,-0 624,-0 630,-0 636,-6 636,-12 636,-12 636,-26 636,-26 636,-32 630,-38 624,-38"/>
<text text-anchor="middle" x="606" y="-22.8" font-family="Times,serif" font-size="14.00">residual</text>
<text text-anchor="middle" x="606" y="-7.8" font-family="Times,serif" font-size="14.00">EB0/C0</text>
</g>
<!-- 9&#45;&gt;21 -->
<g id="edge21" class="edge"><title>9&#45;&gt;21</title>
<path fill="none" stroke="black" d="M636.538,-82.2497C631.532,-72.0459 625.079,-58.8928 619.396,-47.3078"/>
<polygon fill="black" stroke="black" points="622.399,-45.4808 614.852,-38.0444 616.114,-48.5639 622.399,-45.4808"/>
</g>
<!-- 22 -->
<g id="node23" class="node"><title>22</title>
<path fill="#debfe6" stroke="black" d="M702,-38C702,-38 666,-38 666,-38 660,-38 654,-32 654,-26 654,-26 654,-12 654,-12 654,-6 660,-0 666,-0 666,-0 702,-0 702,-0 708,-0 714,-6 714,-12 714,-12 714,-26 714,-26 714,-32 708,-38 702,-38"/>
<text text-anchor="middle" x="684" y="-22.8" font-family="Times,serif" font-size="14.00">forward</text>
<text text-anchor="middle" x="684" y="-7.8" font-family="Times,serif" font-size="14.00">EB0/C1</text>
</g>
<!-- 9&#45;&gt;22 -->
<g id="edge22" class="edge"><title>9&#45;&gt;22</title>
<path fill="none" stroke="black" d="M653.462,-82.2497C658.468,-72.0459 664.921,-58.8928 670.604,-47.3078"/>
<polygon fill="black" stroke="black" points="673.886,-48.5639 675.148,-38.0444 667.601,-45.4808 673.886,-48.5639"/>
</g>
<!-- 23 -->
<g id="node24" class="node"><title>23</title>
<path fill="#f6d3ff" stroke="black" d="M853.5,-38C853.5,-38 818.5,-38 818.5,-38 812.5,-38 806.5,-32 806.5,-26 806.5,-26 806.5,-12 806.5,-12 806.5,-6 812.5,-0 818.5,-0 818.5,-0 853.5,-0 853.5,-0 859.5,-0 865.5,-6 865.5,-12 865.5,-12 865.5,-26 865.5,-26 865.5,-32 859.5,-38 853.5,-38"/>
<text text-anchor="middle" x="836" y="-22.8" font-family="Times,serif" font-size="14.00">forward</text>
<text text-anchor="middle" x="836" y="-7.8" font-family="Times,serif" font-size="14.00">EB0/I</text>
</g>
<!-- 10&#45;&gt;23 -->
<g id="edge23" class="edge"><title>10&#45;&gt;23</title>
<path fill="none" stroke="black" d="M836,-73.9081C836,-65.7377 836,-56.6492 836,-48.2981"/>
<polygon fill="black" stroke="black" points="839.5,-48.2389 836,-38.2389 832.5,-48.2389 839.5,-48.2389"/>
</g>
<!-- 24 -->
<g id="node25" class="node"><title>24</title>
<path fill="#f6d3ff" stroke="black" d="M1157,-38C1157,-38 1121,-38 1121,-38 1115,-38 1109,-32 1109,-26 1109,-26 1109,-12 1109,-12 1109,-6 1115,-0 1121,-0 1121,-0 1157,-0 1157,-0 1163,-0 1169,-6 1169,-12 1169,-12 1169,-26 1169,-26 1169,-32 1163,-38 1157,-38"/>
<text text-anchor="middle" x="1139" y="-22.8" font-family="Times,serif" font-size="14.00">forward</text>
<text text-anchor="middle" x="1139" y="-7.8" font-family="Times,serif" font-size="14.00">EB1/C0</text>
</g>
<!-- 11&#45;&gt;24 -->
<g id="edge24" class="edge"><title>11&#45;&gt;24</title>
<path fill="none" stroke="black" d="M1139,-73.9081C1139,-65.7377 1139,-56.6492 1139,-48.2981"/>
<polygon fill="black" stroke="black" points="1142.5,-48.2389 1139,-38.2389 1135.5,-48.2389 1142.5,-48.2389"/>
</g>
<!-- 25 -->
<g id="node26" class="node"><title>25</title>
<path fill="#f6d3ff" stroke="black" d="M1279,-38C1279,-38 1243,-38 1243,-38 1237,-38 1231,-32 1231,-26 1231,-26 1231,-12 1231,-12 1231,-6 1237,-0 1243,-0 1243,-0 1279,-0 1279,-0 1285,-0 1291,-6 1291,-12 1291,-12 1291,-26 1291,-26 1291,-32 1285,-38 1279,-38"/>
<text text-anchor="middle" x="1261" y="-22.8" font-family="Times,serif" font-size="14.00">residual</text>
<text text-anchor="middle" x="1261" y="-7.8" font-family="Times,serif" font-size="14.00">EB1/C0</text>
</g>
<!-- 12&#45;&gt;25 -->
<g id="edge25" class="edge"><title>12&#45;&gt;25</title>
<path fill="none" stroke="black" d="M1313.46,-82.2497C1304.52,-71.6378 1292.89,-57.8359 1282.85,-45.9255"/>
<polygon fill="black" stroke="black" points="1285.33,-43.4356 1276.21,-38.0444 1279.98,-47.9466 1285.33,-43.4356"/>
</g>
<!-- 26 -->
<g id="node27" class="node"><title>26</title>
<path fill="#debfe6" stroke="black" d="M1357,-38C1357,-38 1321,-38 1321,-38 1315,-38 1309,-32 1309,-26 1309,-26 1309,-12 1309,-12 1309,-6 1315,-0 1321,-0 1321,-0 1357,-0 1357,-0 1363,-0 1369,-6 1369,-12 1369,-12 1369,-26 1369,-26 1369,-32 1363,-38 1357,-38"/>
<text text-anchor="middle" x="1339" y="-22.8" font-family="Times,serif" font-size="14.00">forward</text>
<text text-anchor="middle" x="1339" y="-7.8" font-family="Times,serif" font-size="14.00">EB1/C1</text>
</g>
<!-- 12&#45;&gt;26 -->
<g id="edge26" class="edge"><title>12&#45;&gt;26</title>
<path fill="none" stroke="black" d="M1330.39,-82.2497C1331.77,-72.25 1333.55,-59.4178 1335.13,-48.0048"/>
<polygon fill="black" stroke="black" points="1338.6,-48.4298 1336.5,-38.0444 1331.67,-47.4703 1338.6,-48.4298"/>
</g>
<!-- 27 -->
<g id="node28" class="node"><title>27</title>
<path fill="#f6d3ff" stroke="black" d="M1455.5,-38C1455.5,-38 1420.5,-38 1420.5,-38 1414.5,-38 1408.5,-32 1408.5,-26 1408.5,-26 1408.5,-12 1408.5,-12 1408.5,-6 1414.5,-0 1420.5,-0 1420.5,-0 1455.5,-0 1455.5,-0 1461.5,-0 1467.5,-6 1467.5,-12 1467.5,-12 1467.5,-26 1467.5,-26 1467.5,-32 1461.5,-38 1455.5,-38"/>
<text text-anchor="middle" x="1438" y="-22.8" font-family="Times,serif" font-size="14.00">forward</text>
<text text-anchor="middle" x="1438" y="-7.8" font-family="Times,serif" font-size="14.00">EB1/I</text>
</g>
<!-- 13&#45;&gt;27 -->
<g id="edge27" class="edge"><title>13&#45;&gt;27</title>
<path fill="none" stroke="black" d="M1446.5,-81.4602C1445.15,-71.67 1443.44,-59.3453 1441.92,-48.3073"/>
<polygon fill="black" stroke="black" points="1445.36,-47.6695 1440.52,-38.2436 1438.43,-48.6289 1445.36,-47.6695"/>
</g>
<!-- 28 -->
<g id="node29" class="node"><title>28</title>
<path fill="#debfe6" stroke="black" d="M1528,-38C1528,-38 1498,-38 1498,-38 1492,-38 1486,-32 1486,-26 1486,-26 1486,-12 1486,-12 1486,-6 1492,-0 1498,-0 1498,-0 1528,-0 1528,-0 1534,-0 1540,-6 1540,-12 1540,-12 1540,-26 1540,-26 1540,-32 1534,-38 1528,-38"/>
<text text-anchor="middle" x="1513" y="-22.8" font-family="Times,serif" font-size="14.00">merge</text>
<text text-anchor="middle" x="1513" y="-7.8" font-family="Times,serif" font-size="14.00">EB1/I</text>
</g>
<!-- 13&#45;&gt;28 -->
<g id="edge28" class="edge"><title>13&#45;&gt;28</title>
<path fill="none" stroke="black" d="M1463.52,-81.4602C1471.89,-71.0644 1482.56,-57.8108 1491.85,-46.2747"/>
<polygon fill="black" stroke="black" points="1494.77,-48.2279 1498.31,-38.2436 1489.32,-43.8383 1494.77,-48.2279"/>
</g>
<!-- 29 -->
<g id="node30" class="node"><title>29</title>
<path fill="#f6d3ff" stroke="black" d="M1704,-38C1704,-38 1666,-38 1666,-38 1660,-38 1654,-32 1654,-26 1654,-26 1654,-12 1654,-12 1654,-6 1660,-0 1666,-0 1666,-0 1704,-0 1704,-0 1710,-0 1716,-6 1716,-12 1716,-12 1716,-26 1716,-26 1716,-32 1710,-38 1704,-38"/>
<text text-anchor="middle" x="1685" y="-22.8" font-family="Times,serif" font-size="14.00">forward</text>
<text text-anchor="middle" x="1685" y="-7.8" font-family="Times,serif" font-size="14.00">DB1/C0</text>
</g>
<!-- 14&#45;&gt;29 -->
<g id="edge29" class="edge"><title>14&#45;&gt;29</title>
<path fill="none" stroke="black" d="M1685,-81.4602C1685,-71.67 1685,-59.3453 1685,-48.3073"/>
<polygon fill="black" stroke="black" points="1688.5,-48.2435 1685,-38.2436 1681.5,-48.2436 1688.5,-48.2435"/>
</g>
<!-- 30 -->
<g id="node31" class="node"><title>30</title>
<path fill="#f6d3ff" stroke="black" d="M1832,-38C1832,-38 1794,-38 1794,-38 1788,-38 1782,-32 1782,-26 1782,-26 1782,-12 1782,-12 1782,-6 1788,-0 1794,-0 1794,-0 1832,-0 1832,-0 1838,-0 1844,-6 1844,-12 1844,-12 1844,-26 1844,-26 1844,-32 1838,-38 1832,-38"/>
<text text-anchor="middle" x="1813" y="-22.8" font-family="Times,serif" font-size="14.00">residual</text>
<text text-anchor="middle" x="1813" y="-7.8" font-family="Times,serif" font-size="14.00">DB1/C0</text>
</g>
<!-- 15&#45;&gt;30 -->
<g id="edge30" class="edge"><title>15&#45;&gt;30</title>
<path fill="none" stroke="black" d="M1862.33,-82.2497C1853.92,-71.6378 1842.98,-57.8359 1833.54,-45.9255"/>
<polygon fill="black" stroke="black" points="1836.25,-43.7081 1827.3,-38.0444 1830.77,-48.0557 1836.25,-43.7081"/>
</g>
<!-- 31 -->
<g id="node32" class="node"><title>31</title>
<path fill="#debfe6" stroke="black" d="M1912,-38C1912,-38 1874,-38 1874,-38 1868,-38 1862,-32 1862,-26 1862,-26 1862,-12 1862,-12 1862,-6 1868,-0 1874,-0 1874,-0 1912,-0 1912,-0 1918,-0 1924,-6 1924,-12 1924,-12 1924,-26 1924,-26 1924,-32 1918,-38 1912,-38"/>
<text text-anchor="middle" x="1893" y="-22.8" font-family="Times,serif" font-size="14.00">forward</text>
<text text-anchor="middle" x="1893" y="-7.8" font-family="Times,serif" font-size="14.00">DB1/C1</text>
</g>
<!-- 15&#45;&gt;31 -->
<g id="edge31" class="edge"><title>15&#45;&gt;31</title>
<path fill="none" stroke="black" d="M1879.69,-82.2497C1881.83,-72.25 1884.57,-59.4178 1887.01,-48.0048"/>
<polygon fill="black" stroke="black" points="1890.47,-48.5553 1889.14,-38.0444 1883.63,-47.0915 1890.47,-48.5553"/>
</g>
<!-- 32 -->
<g id="node33" class="node"><title>32</title>
<path fill="#f6d3ff" stroke="black" d="M2044.5,-38C2044.5,-38 2009.5,-38 2009.5,-38 2003.5,-38 1997.5,-32 1997.5,-26 1997.5,-26 1997.5,-12 1997.5,-12 1997.5,-6 2003.5,-0 2009.5,-0 2009.5,-0 2044.5,-0 2044.5,-0 2050.5,-0 2056.5,-6 2056.5,-12 2056.5,-12 2056.5,-26 2056.5,-26 2056.5,-32 2050.5,-38 2044.5,-38"/>
<text text-anchor="middle" x="2027" y="-22.8" font-family="Times,serif" font-size="14.00">forward</text>
<text text-anchor="middle" x="2027" y="-7.8" font-family="Times,serif" font-size="14.00">DB1/I</text>
</g>
<!-- 16&#45;&gt;32 -->
<g id="edge32" class="edge"><title>16&#45;&gt;32</title>
<path fill="none" stroke="black" d="M2056.38,-81.4602C2051.55,-71.3672 2045.44,-58.5805 2040.04,-47.287"/>
<polygon fill="black" stroke="black" points="2043.19,-45.7565 2035.72,-38.2436 2036.87,-48.7753 2043.19,-45.7565"/>
</g>
<!-- 33 -->
<g id="node34" class="node"><title>33</title>
<path fill="#debfe6" stroke="black" d="M2117,-38C2117,-38 2087,-38 2087,-38 2081,-38 2075,-32 2075,-26 2075,-26 2075,-12 2075,-12 2075,-6 2081,-0 2087,-0 2087,-0 2117,-0 2117,-0 2123,-0 2129,-6 2129,-12 2129,-12 2129,-26 2129,-26 2129,-32 2123,-38 2117,-38"/>
<text text-anchor="middle" x="2102" y="-22.8" font-family="Times,serif" font-size="14.00">merge</text>
<text text-anchor="middle" x="2102" y="-7.8" font-family="Times,serif" font-size="14.00">EB0/I</text>
</g>
<!-- 16&#45;&gt;33 -->
<g id="edge33" class="edge"><title>16&#45;&gt;33</title>
<path fill="none" stroke="black" d="M2073.4,-81.4602C2078.05,-71.4682 2083.93,-58.8359 2089.14,-47.6262"/>
<polygon fill="black" stroke="black" points="2092.46,-48.7866 2093.51,-38.2436 2086.12,-45.8329 2092.46,-48.7866"/>
</g>
<!-- 34 -->
<g id="node35" class="node"><title>34</title>
<path fill="#f6d3ff" stroke="black" d="M2333,-38C2333,-38 2295,-38 2295,-38 2289,-38 2283,-32 2283,-26 2283,-26 2283,-12 2283,-12 2283,-6 2289,-0 2295,-0 2295,-0 2333,-0 2333,-0 2339,-0 2345,-6 2345,-12 2345,-12 2345,-26 2345,-26 2345,-32 2339,-38 2333,-38"/>
<text text-anchor="middle" x="2314" y="-22.8" font-family="Times,serif" font-size="14.00">forward</text>
<text text-anchor="middle" x="2314" y="-7.8" font-family="Times,serif" font-size="14.00">DB0/C0</text>
</g>
<!-- 17&#45;&gt;34 -->
<g id="edge34" class="edge"><title>17&#45;&gt;34</title>
<path fill="none" stroke="black" d="M2314,-81.4602C2314,-71.67 2314,-59.3453 2314,-48.3073"/>
<polygon fill="black" stroke="black" points="2317.5,-48.2435 2314,-38.2436 2310.5,-48.2436 2317.5,-48.2435"/>
</g>
<!-- 35 -->
<g id="node36" class="node"><title>35</title>
<path fill="#f6d3ff" stroke="black" d="M2441,-38C2441,-38 2403,-38 2403,-38 2397,-38 2391,-32 2391,-26 2391,-26 2391,-12 2391,-12 2391,-6 2397,-0 2403,-0 2403,-0 2441,-0 2441,-0 2447,-0 2453,-6 2453,-12 2453,-12 2453,-26 2453,-26 2453,-32 2447,-38 2441,-38"/>
<text text-anchor="middle" x="2422" y="-22.8" font-family="Times,serif" font-size="14.00">residual</text>
<text text-anchor="middle" x="2422" y="-7.8" font-family="Times,serif" font-size="14.00">DB0/C0</text>
</g>
<!-- 18&#45;&gt;35 -->
<g id="edge35" class="edge"><title>18&#45;&gt;35</title>
<path fill="none" stroke="black" d="M2444.71,-82.2497C2441.02,-72.148 2436.28,-59.1556 2432.09,-47.6559"/>
<polygon fill="black" stroke="black" points="2435.3,-46.2395 2428.58,-38.0444 2428.72,-48.6384 2435.3,-46.2395"/>
</g>
<!-- 36 -->
<g id="node37" class="node"><title>36</title>
<path fill="#debfe6" stroke="black" d="M2521,-38C2521,-38 2483,-38 2483,-38 2477,-38 2471,-32 2471,-26 2471,-26 2471,-12 2471,-12 2471,-6 2477,-0 2483,-0 2483,-0 2521,-0 2521,-0 2527,-0 2533,-6 2533,-12 2533,-12 2533,-26 2533,-26 2533,-32 2527,-38 2521,-38"/>
<text text-anchor="middle" x="2502" y="-22.8" font-family="Times,serif" font-size="14.00">forward</text>
<text text-anchor="middle" x="2502" y="-7.8" font-family="Times,serif" font-size="14.00">DB0/C1</text>
</g>
<!-- 18&#45;&gt;36 -->
<g id="edge36" class="edge"><title>18&#45;&gt;36</title>
<path fill="none" stroke="black" d="M2462.07,-82.2497C2468.74,-71.8419 2477.39,-58.3655 2484.93,-46.6147"/>
<polygon fill="black" stroke="black" points="2487.97,-48.3513 2490.42,-38.0444 2482.08,-44.5715 2487.97,-48.3513"/>
</g>
</g>
</svg>
