<?xml version="1.0" encoding="UTF-8" standalone="no"?>
<!DOCTYPE svg PUBLIC "-//W3C//DTD SVG 1.1//EN"
 "http://www.w3.org/Graphics/SVG/1.1/DTD/svg11.dtd">
<!-- Generated by graphviz version 2.38.0 (20140413.2041)
 -->
<!-- Title: %3 Pages: 1 -->
<svg width="1738pt" height="418pt"
 viewBox="0.00 0.00 1738.00 418.00" xmlns="http://www.w3.org/2000/svg" xmlns:xlink="http://www.w3.org/1999/xlink">
<g id="graph0" class="graph" transform="scale(1 1) rotate(0) translate(4 414)">
<title>%3</title>
<polygon fill="none" stroke="none" points="-4,4 -4,-414 1734,-414 1734,4 -4,4"/>
<!-- 0 -->
<g id="node1" class="node"><title>0</title>
<path fill="#ffd3d3" stroke="black" d="M998,-410C998,-410 807,-410 807,-410 801,-410 795,-404 795,-398 795,-398 795,-369 795,-369 795,-363 801,-357 807,-357 807,-357 998,-357 998,-357 1004,-357 1010,-363 1010,-369 1010,-369 1010,-398 1010,-398 1010,-404 1004,-410 998,-410"/>
<text text-anchor="middle" x="902.5" y="-394.8" font-family="Times,serif" font-size="14.00">net</text>
<text text-anchor="middle" x="902.5" y="-379.8" font-family="Times,serif" font-size="14.00">k width: 3 &#160;&#160;log gamma2: &#45;8.765028</text>
<text text-anchor="middle" x="902.5" y="-364.8" font-family="Times,serif" font-size="14.00">n kernels: 61</text>
</g>
<!-- 1 -->
<g id="node2" class="node"><title>1</title>
<path fill="#e9ffd3" stroke="black" d="M507,-312.5C507,-312.5 444,-312.5 444,-312.5 438,-312.5 432,-306.5 432,-300.5 432,-300.5 432,-288.5 432,-288.5 432,-282.5 438,-276.5 444,-276.5 444,-276.5 507,-276.5 507,-276.5 513,-276.5 519,-282.5 519,-288.5 519,-288.5 519,-300.5 519,-300.5 519,-306.5 513,-312.5 507,-312.5"/>
<text text-anchor="middle" x="475.5" y="-290.8" font-family="Times,serif" font-size="14.00">conv block 0</text>
</g>
<!-- 0&#45;&gt;1 -->
<g id="edge1" class="edge"><title>0&#45;&gt;1</title>
<path fill="none" stroke="black" d="M794.75,-360.546C709.916,-343.262 595.28,-319.905 528.972,-306.395"/>
<polygon fill="black" stroke="black" points="529.65,-302.961 519.153,-304.394 528.252,-309.82 529.65,-302.961"/>
</g>
<!-- 2 -->
<g id="node3" class="node"><title>2</title>
<path fill="#e9ffd3" stroke="black" d="M1002.5,-321C1002.5,-321 802.5,-321 802.5,-321 796.5,-321 790.5,-315 790.5,-309 790.5,-309 790.5,-280 790.5,-280 790.5,-274 796.5,-268 802.5,-268 802.5,-268 1002.5,-268 1002.5,-268 1008.5,-268 1014.5,-274 1014.5,-280 1014.5,-280 1014.5,-309 1014.5,-309 1014.5,-315 1008.5,-321 1002.5,-321"/>
<text text-anchor="middle" x="902.5" y="-305.8" font-family="Times,serif" font-size="14.00">conv block 1</text>
<text text-anchor="middle" x="902.5" y="-290.8" font-family="Times,serif" font-size="14.00">log gamma1: 0.022996 &#160;&#160;n kernels: &#45;6</text>
<text text-anchor="middle" x="902.5" y="-275.8" font-family="Times,serif" font-size="14.00">pool z: 1 &#160;&#160;spatial scale: 1</text>
</g>
<!-- 0&#45;&gt;2 -->
<g id="edge2" class="edge"><title>0&#45;&gt;2</title>
<path fill="none" stroke="black" d="M902.5,-356.868C902.5,-348.886 902.5,-339.932 902.5,-331.384"/>
<polygon fill="black" stroke="black" points="906,-331.25 902.5,-321.25 899,-331.25 906,-331.25"/>
</g>
<!-- 3 -->
<g id="node4" class="node"><title>3</title>
<path fill="#e9ffd3" stroke="black" d="M1288,-312.5C1288,-312.5 1221,-312.5 1221,-312.5 1215,-312.5 1209,-306.5 1209,-300.5 1209,-300.5 1209,-288.5 1209,-288.5 1209,-282.5 1215,-276.5 1221,-276.5 1221,-276.5 1288,-276.5 1288,-276.5 1294,-276.5 1300,-282.5 1300,-288.5 1300,-288.5 1300,-300.5 1300,-300.5 1300,-306.5 1294,-312.5 1288,-312.5"/>
<text text-anchor="middle" x="1254.5" y="-290.8" font-family="Times,serif" font-size="14.00">path combine</text>
</g>
<!-- 0&#45;&gt;3 -->
<g id="edge3" class="edge"><title>0&#45;&gt;3</title>
<path fill="none" stroke="black" d="M1005.73,-356.985C1068.87,-341.379 1147.18,-322.025 1198.88,-309.247"/>
<polygon fill="black" stroke="black" points="1199.98,-312.58 1208.85,-306.782 1198.3,-305.784 1199.98,-312.58"/>
</g>
<!-- 4 -->
<g id="node5" class="node"><title>4</title>
<path fill="#d3ffff" stroke="black" d="M294,-202C294,-202 169,-202 169,-202 163,-202 157,-196 157,-190 157,-190 157,-176 157,-176 157,-170 163,-164 169,-164 169,-164 294,-164 294,-164 300,-164 306,-170 306,-176 306,-176 306,-190 306,-190 306,-196 300,-202 294,-202"/>
<text text-anchor="middle" x="231.5" y="-186.8" font-family="Times,serif" font-size="14.00">comp 0</text>
<text text-anchor="middle" x="231.5" y="-171.8" font-family="Times,serif" font-size="14.00">log gamma1: &#45;0.870359</text>
</g>
<!-- 1&#45;&gt;4 -->
<g id="edge4" class="edge"><title>1&#45;&gt;4</title>
<path fill="none" stroke="black" d="M437.375,-276.391C395.243,-257.483 327.243,-226.966 281.019,-206.223"/>
<polygon fill="black" stroke="black" points="282.348,-202.983 271.792,-202.082 279.482,-209.369 282.348,-202.983"/>
</g>
<!-- 5 -->
<g id="node6" class="node"><title>5</title>
<path fill="#bfe6e6" stroke="black" d="M535.5,-202C535.5,-202 415.5,-202 415.5,-202 409.5,-202 403.5,-196 403.5,-190 403.5,-190 403.5,-176 403.5,-176 403.5,-170 409.5,-164 415.5,-164 415.5,-164 535.5,-164 535.5,-164 541.5,-164 547.5,-170 547.5,-176 547.5,-176 547.5,-190 547.5,-190 547.5,-196 541.5,-202 535.5,-202"/>
<text text-anchor="middle" x="475.5" y="-186.8" font-family="Times,serif" font-size="14.00">comp 1</text>
<text text-anchor="middle" x="475.5" y="-171.8" font-family="Times,serif" font-size="14.00">log gamma2: 1.054306</text>
</g>
<!-- 1&#45;&gt;5 -->
<g id="edge5" class="edge"><title>1&#45;&gt;5</title>
<path fill="none" stroke="black" d="M475.5,-276.391C475.5,-259.259 475.5,-232.598 475.5,-212.31"/>
<polygon fill="black" stroke="black" points="479,-212.082 475.5,-202.082 472,-212.082 479,-212.082"/>
</g>
<!-- 6 -->
<g id="node7" class="node"><title>6</title>
<path fill="#d3ffff" stroke="black" d="M901.5,-202C901.5,-202 695.5,-202 695.5,-202 689.5,-202 683.5,-196 683.5,-190 683.5,-190 683.5,-176 683.5,-176 683.5,-170 689.5,-164 695.5,-164 695.5,-164 901.5,-164 901.5,-164 907.5,-164 913.5,-170 913.5,-176 913.5,-176 913.5,-190 913.5,-190 913.5,-196 907.5,-202 901.5,-202"/>
<text text-anchor="middle" x="798.5" y="-186.8" font-family="Times,serif" font-size="14.00">comp 0</text>
<text text-anchor="middle" x="798.5" y="-171.8" font-family="Times,serif" font-size="14.00">log gamma2: 0.515851 &#160;&#160;n kernels: &#45;11</text>
</g>
<!-- 2&#45;&gt;6 -->
<g id="edge6" class="edge"><title>2&#45;&gt;6</title>
<path fill="none" stroke="black" d="M878.117,-267.827C861.56,-250.395 839.742,-227.423 823.133,-209.936"/>
<polygon fill="black" stroke="black" points="825.331,-207.167 815.906,-202.327 820.255,-211.988 825.331,-207.167"/>
</g>
<!-- 7 -->
<g id="node8" class="node"><title>7</title>
<path fill="#bfe6e6" stroke="black" d="M1071.5,-202C1071.5,-202 943.5,-202 943.5,-202 937.5,-202 931.5,-196 931.5,-190 931.5,-190 931.5,-176 931.5,-176 931.5,-170 937.5,-164 943.5,-164 943.5,-164 1071.5,-164 1071.5,-164 1077.5,-164 1083.5,-170 1083.5,-176 1083.5,-176 1083.5,-190 1083.5,-190 1083.5,-196 1077.5,-202 1071.5,-202"/>
<text text-anchor="middle" x="1007.5" y="-186.8" font-family="Times,serif" font-size="14.00">path end 1</text>
<text text-anchor="middle" x="1007.5" y="-171.8" font-family="Times,serif" font-size="14.00">k width: &#45;2 &#160;&#160;n kernels: 6</text>
</g>
<!-- 2&#45;&gt;7 -->
<g id="edge7" class="edge"><title>2&#45;&gt;7</title>
<path fill="none" stroke="black" d="M927.118,-267.827C943.833,-250.395 965.861,-227.423 982.63,-209.936"/>
<polygon fill="black" stroke="black" points="985.531,-211.967 989.926,-202.327 980.479,-207.122 985.531,-211.967"/>
</g>
<!-- 8 -->
<g id="node9" class="node"><title>8</title>
<path fill="#d3ffff" stroke="black" d="M1395,-232C1395,-232 1114,-232 1114,-232 1108,-232 1102,-226 1102,-220 1102,-220 1102,-146 1102,-146 1102,-140 1108,-134 1114,-134 1114,-134 1395,-134 1395,-134 1401,-134 1407,-140 1407,-146 1407,-146 1407,-220 1407,-220 1407,-226 1401,-232 1395,-232"/>
<text text-anchor="middle" x="1254.5" y="-216.8" font-family="Times,serif" font-size="14.00">forward</text>
<text text-anchor="middle" x="1254.5" y="-201.8" font-family="Times,serif" font-size="14.00">CB0/C1</text>
<text text-anchor="middle" x="1254.5" y="-186.8" font-family="Times,serif" font-size="14.00">dilation rate: 1 &#160;&#160;k width: 3</text>
<text text-anchor="middle" x="1254.5" y="-171.8" font-family="Times,serif" font-size="14.00">log gamma1: &#45;11.000000 &#160;&#160;log gamma2: &#45;11.000000</text>
<text text-anchor="middle" x="1254.5" y="-156.8" font-family="Times,serif" font-size="14.00">log lambda1: &#45;11.000000 &#160;&#160;log lambda2: &#45;11.000000</text>
<text text-anchor="middle" x="1254.5" y="-141.8" font-family="Times,serif" font-size="14.00">n kernels: 64</text>
</g>
<!-- 3&#45;&gt;8 -->
<g id="edge8" class="edge"><title>3&#45;&gt;8</title>
<path fill="none" stroke="black" d="M1254.5,-276.391C1254.5,-266.993 1254.5,-254.728 1254.5,-242.22"/>
<polygon fill="black" stroke="black" points="1258,-242.188 1254.5,-232.188 1251,-242.188 1258,-242.188"/>
</g>
<!-- 9 -->
<g id="node10" class="node"><title>9</title>
<path fill="#bfe6e6" stroke="black" d="M1718,-232C1718,-232 1437,-232 1437,-232 1431,-232 1425,-226 1425,-220 1425,-220 1425,-146 1425,-146 1425,-140 1431,-134 1437,-134 1437,-134 1718,-134 1718,-134 1724,-134 1730,-140 1730,-146 1730,-146 1730,-220 1730,-220 1730,-226 1724,-232 1718,-232"/>
<text text-anchor="middle" x="1577.5" y="-216.8" font-family="Times,serif" font-size="14.00">merge 1</text>
<text text-anchor="middle" x="1577.5" y="-201.8" font-family="Times,serif" font-size="14.00">CB1/PE1</text>
<text text-anchor="middle" x="1577.5" y="-186.8" font-family="Times,serif" font-size="14.00">dilation rate: 1 &#160;&#160;k width: 3</text>
<text text-anchor="middle" x="1577.5" y="-171.8" font-family="Times,serif" font-size="14.00">log gamma1: &#45;11.000000 &#160;&#160;log gamma2: &#45;11.000000</text>
<text text-anchor="middle" x="1577.5" y="-156.8" font-family="Times,serif" font-size="14.00">log lambda1: &#45;11.000000 &#160;&#160;log lambda2: &#45;11.000000</text>
<text text-anchor="middle" x="1577.5" y="-141.8" font-family="Times,serif" font-size="14.00">n kernels: 64</text>
</g>
<!-- 3&#45;&gt;9 -->
<g id="edge9" class="edge"><title>3&#45;&gt;9</title>
<path fill="none" stroke="black" d="M1300.09,-278.044C1333.21,-266.816 1380.08,-250.928 1425.88,-235.402"/>
<polygon fill="black" stroke="black" points="1427.28,-238.621 1435.63,-232.096 1425.03,-231.991 1427.28,-238.621"/>
</g>
<!-- 10 -->
<g id="node11" class="node"><title>10</title>
<path fill="#e9d3ff" stroke="black" d="M293,-98C293,-98 12,-98 12,-98 6,-98 0,-92 0,-86 0,-86 0,-12 0,-12 0,-6 6,-0 12,-0 12,-0 293,-0 293,-0 299,-0 305,-6 305,-12 305,-12 305,-86 305,-86 305,-92 299,-98 293,-98"/>
<text text-anchor="middle" x="152.5" y="-82.8" font-family="Times,serif" font-size="14.00">forward</text>
<text text-anchor="middle" x="152.5" y="-67.8" font-family="Times,serif" font-size="14.00">input</text>
<text text-anchor="middle" x="152.5" y="-52.8" font-family="Times,serif" font-size="14.00">dilation rate: 1 &#160;&#160;k width: 3</text>
<text text-anchor="middle" x="152.5" y="-37.8" font-family="Times,serif" font-size="14.00">log gamma1: &#45;11.000000 &#160;&#160;log gamma2: &#45;11.000000</text>
<text text-anchor="middle" x="152.5" y="-22.8" font-family="Times,serif" font-size="14.00">log lambda1: &#45;11.000000 &#160;&#160;log lambda2: &#45;11.000000</text>
<text text-anchor="middle" x="152.5" y="-7.8" font-family="Times,serif" font-size="14.00">n kernels: 64</text>
</g>
<!-- 4&#45;&gt;10 -->
<g id="edge10" class="edge"><title>4&#45;&gt;10</title>
<path fill="none" stroke="black" d="M220.681,-163.923C211.844,-149.157 198.851,-127.447 186.572,-106.93"/>
<polygon fill="black" stroke="black" points="189.506,-105.017 181.367,-98.2336 183.499,-108.612 189.506,-105.017"/>
</g>
<!-- 11 -->
<g id="node12" class="node"><title>11</title>
<path fill="#e9d3ff" stroke="black" d="M616,-98C616,-98 335,-98 335,-98 329,-98 323,-92 323,-86 323,-86 323,-12 323,-12 323,-6 329,-0 335,-0 335,-0 616,-0 616,-0 622,-0 628,-6 628,-12 628,-12 628,-86 628,-86 628,-92 622,-98 616,-98"/>
<text text-anchor="middle" x="475.5" y="-82.8" font-family="Times,serif" font-size="14.00">forward</text>
<text text-anchor="middle" x="475.5" y="-67.8" font-family="Times,serif" font-size="14.00">CB0/C0</text>
<text text-anchor="middle" x="475.5" y="-52.8" font-family="Times,serif" font-size="14.00">dilation rate: 1 &#160;&#160;k width: 3</text>
<text text-anchor="middle" x="475.5" y="-37.8" font-family="Times,serif" font-size="14.00">log gamma1: &#45;11.000000 &#160;&#160;log gamma2: &#45;11.000000</text>
<text text-anchor="middle" x="475.5" y="-22.8" font-family="Times,serif" font-size="14.00">log lambda1: &#45;11.000000 &#160;&#160;log lambda2: &#45;11.000000</text>
<text text-anchor="middle" x="475.5" y="-7.8" font-family="Times,serif" font-size="14.00">n kernels: 64</text>
</g>
<!-- 5&#45;&gt;11 -->
<g id="edge11" class="edge"><title>5&#45;&gt;11</title>
<path fill="none" stroke="black" d="M475.5,-163.923C475.5,-149.486 475.5,-128.413 475.5,-108.306"/>
<polygon fill="black" stroke="black" points="479,-108.234 475.5,-98.2336 472,-108.234 479,-108.234"/>
</g>
<!-- 12 -->
<g id="node13" class="node"><title>12</title>
<path fill="#e9d3ff" stroke="black" d="M939,-98C939,-98 658,-98 658,-98 652,-98 646,-92 646,-86 646,-86 646,-12 646,-12 646,-6 652,-0 658,-0 658,-0 939,-0 939,-0 945,-0 951,-6 951,-12 951,-12 951,-86 951,-86 951,-92 945,-98 939,-98"/>
<text text-anchor="middle" x="798.5" y="-82.8" font-family="Times,serif" font-size="14.00">forward</text>
<text text-anchor="middle" x="798.5" y="-67.8" font-family="Times,serif" font-size="14.00">input</text>
<text text-anchor="middle" x="798.5" y="-52.8" font-family="Times,serif" font-size="14.00">dilation rate: 1 &#160;&#160;k width: 3</text>
<text text-anchor="middle" x="798.5" y="-37.8" font-family="Times,serif" font-size="14.00">log gamma1: &#45;11.000000 &#160;&#160;log gamma2: &#45;11.000000</text>
<text text-anchor="middle" x="798.5" y="-22.8" font-family="Times,serif" font-size="14.00">log lambda1: &#45;11.000000 &#160;&#160;log lambda2: &#45;11.000000</text>
<text text-anchor="middle" x="798.5" y="-7.8" font-family="Times,serif" font-size="14.00">n kernels: 64</text>
</g>
<!-- 6&#45;&gt;12 -->
<g id="edge12" class="edge"><title>6&#45;&gt;12</title>
<path fill="none" stroke="black" d="M798.5,-163.923C798.5,-149.486 798.5,-128.413 798.5,-108.306"/>
<polygon fill="black" stroke="black" points="802,-108.234 798.5,-98.2336 795,-108.234 802,-108.234"/>
</g>
<!-- 13 -->
<g id="node14" class="node"><title>13</title>
<path fill="#e9d3ff" stroke="black" d="M1262,-98C1262,-98 981,-98 981,-98 975,-98 969,-92 969,-86 969,-86 969,-12 969,-12 969,-6 975,-0 981,-0 981,-0 1262,-0 1262,-0 1268,-0 1274,-6 1274,-12 1274,-12 1274,-86 1274,-86 1274,-92 1268,-98 1262,-98"/>
<text text-anchor="middle" x="1121.5" y="-82.8" font-family="Times,serif" font-size="14.00">forward</text>
<text text-anchor="middle" x="1121.5" y="-67.8" font-family="Times,serif" font-size="14.00">CB1/C0</text>
<text text-anchor="middle" x="1121.5" y="-52.8" font-family="Times,serif" font-size="14.00">dilation rate: 1 &#160;&#160;k width: 3</text>
<text text-anchor="middle" x="1121.5" y="-37.8" font-family="Times,serif" font-size="14.00">log gamma1: &#45;11.000000 &#160;&#160;log gamma2: &#45;11.000000</text>
<text text-anchor="middle" x="1121.5" y="-22.8" font-family="Times,serif" font-size="14.00">log lambda1: &#45;11.000000 &#160;&#160;log lambda2: &#45;11.000000</text>
<text text-anchor="middle" x="1121.5" y="-7.8" font-family="Times,serif" font-size="14.00">n kernels: 64</text>
</g>
<!-- 7&#45;&gt;13 -->
<g id="edge13" class="edge"><title>7&#45;&gt;13</title>
<path fill="none" stroke="black" d="M1023.11,-163.923C1036.09,-148.893 1055.29,-126.67 1073.28,-105.832"/>
<polygon fill="black" stroke="black" points="1075.96,-108.09 1079.84,-98.2336 1070.66,-103.514 1075.96,-108.09"/>
</g>
</g>
</svg>
