<?xml version="1.0" encoding="UTF-8" standalone="no"?>
<!DOCTYPE svg PUBLIC "-//W3C//DTD SVG 1.1//EN"
 "http://www.w3.org/Graphics/SVG/1.1/DTD/svg11.dtd">
<!-- Generated by graphviz version 2.38.0 (20140413.2041)
 -->
<!-- Title: %3 Pages: 1 -->
<svg width="3302pt" height="357pt"
 viewBox="0.00 0.00 3302.00 357.00" xmlns="http://www.w3.org/2000/svg" xmlns:xlink="http://www.w3.org/1999/xlink">
<g id="graph0" class="graph" transform="scale(1 1) rotate(0) translate(4 353)">
<title>%3</title>
<polygon fill="none" stroke="none" points="-4,4 -4,-353 3298,-353 3298,4 -4,4"/>
<!-- 0 -->
<g id="node1" class="node"><title>0</title>
<path fill="#ffd3d3" stroke="black" d="M1519.5,-349C1519.5,-349 1362.5,-349 1362.5,-349 1356.5,-349 1350.5,-343 1350.5,-337 1350.5,-337 1350.5,-323 1350.5,-323 1350.5,-317 1356.5,-311 1362.5,-311 1362.5,-311 1519.5,-311 1519.5,-311 1525.5,-311 1531.5,-317 1531.5,-323 1531.5,-323 1531.5,-337 1531.5,-337 1531.5,-343 1525.5,-349 1519.5,-349"/>
<text text-anchor="middle" x="1441" y="-333.8" font-family="Times,serif" font-size="14.00">net</text>
<text text-anchor="middle" x="1441" y="-318.8" font-family="Times,serif" font-size="14.00">n kernels: 85 &#160;&#160;pooling type: 0</text>
</g>
<!-- 1 -->
<g id="node2" class="node"><title>1</title>
<path fill="#f6ffd3" stroke="black" d="M960,-275C960,-275 840,-275 840,-275 834,-275 828,-269 828,-263 828,-263 828,-249 828,-249 828,-243 834,-237 840,-237 840,-237 960,-237 960,-237 966,-237 972,-243 972,-249 972,-249 972,-263 972,-263 972,-269 966,-275 960,-275"/>
<text text-anchor="middle" x="900" y="-259.8" font-family="Times,serif" font-size="14.00">encoder</text>
<text text-anchor="middle" x="900" y="-244.8" font-family="Times,serif" font-size="14.00">log gamma1: 0.084732</text>
</g>
<!-- 0&#45;&gt;1 -->
<g id="edge1" class="edge"><title>0&#45;&gt;1</title>
<path fill="none" stroke="black" d="M1350.45,-316.949C1247.65,-303.267 1081.38,-281.14 982.184,-267.938"/>
<polygon fill="black" stroke="black" points="982.581,-264.46 972.207,-266.61 981.657,-271.398 982.581,-264.46"/>
</g>
<!-- 2 -->
<g id="node3" class="node"><title>2</title>
<path fill="#f6ffd3" stroke="black" d="M2017,-275C2017,-275 1949,-275 1949,-275 1943,-275 1937,-269 1937,-263 1937,-263 1937,-249 1937,-249 1937,-243 1943,-237 1949,-237 1949,-237 2017,-237 2017,-237 2023,-237 2029,-243 2029,-249 2029,-249 2029,-263 2029,-263 2029,-269 2023,-275 2017,-275"/>
<text text-anchor="middle" x="1983" y="-259.8" font-family="Times,serif" font-size="14.00">decoder</text>
<text text-anchor="middle" x="1983" y="-244.8" font-family="Times,serif" font-size="14.00">n kernels: &#45;20</text>
</g>
<!-- 0&#45;&gt;2 -->
<g id="edge2" class="edge"><title>0&#45;&gt;2</title>
<path fill="none" stroke="black" d="M1531.72,-316.949C1644.42,-301.977 1833.25,-276.893 1926.87,-264.457"/>
<polygon fill="black" stroke="black" points="1927.53,-267.899 1936.99,-263.112 1926.61,-260.96 1927.53,-267.899"/>
</g>
<!-- 3 -->
<g id="node4" class="node"><title>3</title>
<path fill="#d3ffe4" stroke="black" d="M335.5,-193.5C335.5,-193.5 260.5,-193.5 260.5,-193.5 254.5,-193.5 248.5,-187.5 248.5,-181.5 248.5,-181.5 248.5,-167.5 248.5,-167.5 248.5,-161.5 254.5,-155.5 260.5,-155.5 260.5,-155.5 335.5,-155.5 335.5,-155.5 341.5,-155.5 347.5,-161.5 347.5,-167.5 347.5,-167.5 347.5,-181.5 347.5,-181.5 347.5,-187.5 341.5,-193.5 335.5,-193.5"/>
<text text-anchor="middle" x="298" y="-178.3" font-family="Times,serif" font-size="14.00">encode block 0</text>
<text text-anchor="middle" x="298" y="-163.3" font-family="Times,serif" font-size="14.00">dilation rate: 1</text>
</g>
<!-- 1&#45;&gt;3 -->
<g id="edge3" class="edge"><title>1&#45;&gt;3</title>
<path fill="none" stroke="black" d="M827.983,-245.489C707.985,-229.643 469.33,-198.126 357.907,-183.411"/>
<polygon fill="black" stroke="black" points="358.223,-179.923 347.851,-182.083 357.307,-186.863 358.223,-179.923"/>
</g>
<!-- 4 -->
<g id="node5" class="node"><title>4</title>
<path fill="#bfe6cf" stroke="black" d="M720.5,-193.5C720.5,-193.5 565.5,-193.5 565.5,-193.5 559.5,-193.5 553.5,-187.5 553.5,-181.5 553.5,-181.5 553.5,-167.5 553.5,-167.5 553.5,-161.5 559.5,-155.5 565.5,-155.5 565.5,-155.5 720.5,-155.5 720.5,-155.5 726.5,-155.5 732.5,-161.5 732.5,-167.5 732.5,-167.5 732.5,-181.5 732.5,-181.5 732.5,-187.5 726.5,-193.5 720.5,-193.5"/>
<text text-anchor="middle" x="643" y="-178.3" font-family="Times,serif" font-size="14.00">encode block 1</text>
<text text-anchor="middle" x="643" y="-163.3" font-family="Times,serif" font-size="14.00">n kernels: 85 &#160;&#160;spatial scale: 1</text>
</g>
<!-- 1&#45;&gt;4 -->
<g id="edge4" class="edge"><title>1&#45;&gt;4</title>
<path fill="none" stroke="black" d="M841.683,-236.96C802.882,-224.958 751.766,-209.145 711.098,-196.565"/>
<polygon fill="black" stroke="black" points="712.118,-193.217 701.531,-193.606 710.05,-199.905 712.118,-193.217"/>
</g>
<!-- 5 -->
<g id="node6" class="node"><title>5</title>
<path fill="#abceb9" stroke="black" d="M980.5,-193.5C980.5,-193.5 819.5,-193.5 819.5,-193.5 813.5,-193.5 807.5,-187.5 807.5,-181.5 807.5,-181.5 807.5,-167.5 807.5,-167.5 807.5,-161.5 813.5,-155.5 819.5,-155.5 819.5,-155.5 980.5,-155.5 980.5,-155.5 986.5,-155.5 992.5,-161.5 992.5,-167.5 992.5,-167.5 992.5,-181.5 992.5,-181.5 992.5,-187.5 986.5,-193.5 980.5,-193.5"/>
<text text-anchor="middle" x="900" y="-178.3" font-family="Times,serif" font-size="14.00">encode block 2</text>
<text text-anchor="middle" x="900" y="-163.3" font-family="Times,serif" font-size="14.00">n kernels: 255 &#160;&#160;spatial scale: 2</text>
</g>
<!-- 1&#45;&gt;5 -->
<g id="edge5" class="edge"><title>1&#45;&gt;5</title>
<path fill="none" stroke="black" d="M900,-236.96C900,-227.17 900,-214.845 900,-203.807"/>
<polygon fill="black" stroke="black" points="903.5,-203.744 900,-193.744 896.5,-203.744 903.5,-203.744"/>
</g>
<!-- 6 -->
<g id="node7" class="node"><title>6</title>
<path fill="#97b6a3" stroke="black" d="M1216.5,-193.5C1216.5,-193.5 1055.5,-193.5 1055.5,-193.5 1049.5,-193.5 1043.5,-187.5 1043.5,-181.5 1043.5,-181.5 1043.5,-167.5 1043.5,-167.5 1043.5,-161.5 1049.5,-155.5 1055.5,-155.5 1055.5,-155.5 1216.5,-155.5 1216.5,-155.5 1222.5,-155.5 1228.5,-161.5 1228.5,-167.5 1228.5,-167.5 1228.5,-181.5 1228.5,-181.5 1228.5,-187.5 1222.5,-193.5 1216.5,-193.5"/>
<text text-anchor="middle" x="1136" y="-178.3" font-family="Times,serif" font-size="14.00">encode block 3</text>
<text text-anchor="middle" x="1136" y="-163.3" font-family="Times,serif" font-size="14.00">n kernels: 595 &#160;&#160;spatial scale: 3</text>
</g>
<!-- 1&#45;&gt;6 -->
<g id="edge6" class="edge"><title>1&#45;&gt;6</title>
<path fill="none" stroke="black" d="M953.552,-236.96C988.882,-225.059 1035.33,-209.412 1072.52,-196.885"/>
<polygon fill="black" stroke="black" points="1073.89,-200.115 1082.25,-193.606 1071.66,-193.481 1073.89,-200.115"/>
</g>
<!-- 7 -->
<g id="node8" class="node"><title>7</title>
<path fill="#d3ffe4" stroke="black" d="M1523.5,-193.5C1523.5,-193.5 1368.5,-193.5 1368.5,-193.5 1362.5,-193.5 1356.5,-187.5 1356.5,-181.5 1356.5,-181.5 1356.5,-167.5 1356.5,-167.5 1356.5,-161.5 1362.5,-155.5 1368.5,-155.5 1368.5,-155.5 1523.5,-155.5 1523.5,-155.5 1529.5,-155.5 1535.5,-161.5 1535.5,-167.5 1535.5,-167.5 1535.5,-181.5 1535.5,-181.5 1535.5,-187.5 1529.5,-193.5 1523.5,-193.5"/>
<text text-anchor="middle" x="1446" y="-178.3" font-family="Times,serif" font-size="14.00">decode block 4</text>
<text text-anchor="middle" x="1446" y="-163.3" font-family="Times,serif" font-size="14.00">n kernels: 17 &#160;&#160;spatial scale: 4</text>
</g>
<!-- 2&#45;&gt;7 -->
<g id="edge7" class="edge"><title>2&#45;&gt;7</title>
<path fill="none" stroke="black" d="M1936.75,-248.153C1850.23,-235.344 1662.13,-207.496 1545.56,-190.24"/>
<polygon fill="black" stroke="black" points="1545.96,-186.761 1535.56,-188.759 1544.94,-193.685 1545.96,-186.761"/>
</g>
<!-- 8 -->
<g id="node9" class="node"><title>8</title>
<path fill="#bfe6cf" stroke="black" d="M1920.5,-201C1920.5,-201 1711.5,-201 1711.5,-201 1705.5,-201 1699.5,-195 1699.5,-189 1699.5,-189 1699.5,-160 1699.5,-160 1699.5,-154 1705.5,-148 1711.5,-148 1711.5,-148 1920.5,-148 1920.5,-148 1926.5,-148 1932.5,-154 1932.5,-160 1932.5,-160 1932.5,-189 1932.5,-189 1932.5,-195 1926.5,-201 1920.5,-201"/>
<text text-anchor="middle" x="1816" y="-185.8" font-family="Times,serif" font-size="14.00">decode block 3</text>
<text text-anchor="middle" x="1816" y="-170.8" font-family="Times,serif" font-size="14.00">log gamma1: 0.084732 &#160;&#160;n kernels: 455</text>
<text text-anchor="middle" x="1816" y="-155.8" font-family="Times,serif" font-size="14.00">spatial scale: 3</text>
</g>
<!-- 2&#45;&gt;8 -->
<g id="edge8" class="edge"><title>2&#45;&gt;8</title>
<path fill="none" stroke="black" d="M1945.11,-236.96C1925.48,-227.619 1901.01,-215.97 1878.67,-205.333"/>
<polygon fill="black" stroke="black" points="1880.11,-202.141 1869.57,-201.003 1877.1,-208.461 1880.11,-202.141"/>
</g>
<!-- 9 -->
<g id="node10" class="node"><title>9</title>
<path fill="#abceb9" stroke="black" d="M2247.5,-201C2247.5,-201 2052.5,-201 2052.5,-201 2046.5,-201 2040.5,-195 2040.5,-189 2040.5,-189 2040.5,-160 2040.5,-160 2040.5,-154 2046.5,-148 2052.5,-148 2052.5,-148 2247.5,-148 2247.5,-148 2253.5,-148 2259.5,-154 2259.5,-160 2259.5,-160 2259.5,-189 2259.5,-189 2259.5,-195 2253.5,-201 2247.5,-201"/>
<text text-anchor="middle" x="2150" y="-185.8" font-family="Times,serif" font-size="14.00">decode block 2</text>
<text text-anchor="middle" x="2150" y="-170.8" font-family="Times,serif" font-size="14.00">log gamma1: 0.084732 &#160;&#160;n kernels: 2</text>
<text text-anchor="middle" x="2150" y="-155.8" font-family="Times,serif" font-size="14.00">spatial scale: 2</text>
</g>
<!-- 2&#45;&gt;9 -->
<g id="edge9" class="edge"><title>2&#45;&gt;9</title>
<path fill="none" stroke="black" d="M2020.89,-236.96C2040.52,-227.619 2064.99,-215.97 2087.33,-205.333"/>
<polygon fill="black" stroke="black" points="2088.9,-208.461 2096.43,-201.003 2085.89,-202.141 2088.9,-208.461"/>
</g>
<!-- 10 -->
<g id="node11" class="node"><title>10</title>
<path fill="#97b6a3" stroke="black" d="M2726,-201C2726,-201 2524,-201 2524,-201 2518,-201 2512,-195 2512,-189 2512,-189 2512,-160 2512,-160 2512,-154 2518,-148 2524,-148 2524,-148 2726,-148 2726,-148 2732,-148 2738,-154 2738,-160 2738,-160 2738,-189 2738,-189 2738,-195 2732,-201 2726,-201"/>
<text text-anchor="middle" x="2625" y="-185.8" font-family="Times,serif" font-size="14.00">decode block 1</text>
<text text-anchor="middle" x="2625" y="-170.8" font-family="Times,serif" font-size="14.00">log gamma1: 0.084732 &#160;&#160;n kernels: 65</text>
<text text-anchor="middle" x="2625" y="-155.8" font-family="Times,serif" font-size="14.00">spatial scale: 1</text>
</g>
<!-- 2&#45;&gt;10 -->
<g id="edge10" class="edge"><title>2&#45;&gt;10</title>
<path fill="none" stroke="black" d="M2029.17,-249.283C2126.95,-237.174 2357.72,-208.598 2501.66,-190.773"/>
<polygon fill="black" stroke="black" points="2502.38,-194.211 2511.87,-189.509 2501.52,-187.265 2502.38,-194.211"/>
</g>
<!-- 11 -->
<g id="node12" class="node"><title>11</title>
<path fill="#839e8d" stroke="black" d="M3071.5,-193.5C3071.5,-193.5 2996.5,-193.5 2996.5,-193.5 2990.5,-193.5 2984.5,-187.5 2984.5,-181.5 2984.5,-181.5 2984.5,-167.5 2984.5,-167.5 2984.5,-161.5 2990.5,-155.5 2996.5,-155.5 2996.5,-155.5 3071.5,-155.5 3071.5,-155.5 3077.5,-155.5 3083.5,-161.5 3083.5,-167.5 3083.5,-167.5 3083.5,-181.5 3083.5,-181.5 3083.5,-187.5 3077.5,-193.5 3071.5,-193.5"/>
<text text-anchor="middle" x="3034" y="-178.3" font-family="Times,serif" font-size="14.00">decode block 0</text>
<text text-anchor="middle" x="3034" y="-163.3" font-family="Times,serif" font-size="14.00">dilation rate: 1</text>
</g>
<!-- 2&#45;&gt;11 -->
<g id="edge11" class="edge"><title>2&#45;&gt;11</title>
<path fill="none" stroke="black" d="M2029.1,-252.033C2148.02,-244.315 2474.94,-222.699 2747,-201 2825.56,-194.734 2916.12,-186.523 2974.16,-181.134"/>
<polygon fill="black" stroke="black" points="2974.62,-184.606 2984.25,-180.195 2973.97,-177.637 2974.62,-184.606"/>
</g>
<!-- 12 -->
<g id="node13" class="node"><title>12</title>
<path fill="#d3e4ff" stroke="black" d="M168,-112C168,-112 12,-112 12,-112 6,-112 0,-106 0,-100 0,-100 0,-86 0,-86 0,-80 6,-74 12,-74 12,-74 168,-74 168,-74 174,-74 180,-80 180,-86 180,-86 180,-100 180,-100 180,-106 174,-112 168,-112"/>
<text text-anchor="middle" x="90" y="-96.8" font-family="Times,serif" font-size="14.00">comp 0</text>
<text text-anchor="middle" x="90" y="-81.8" font-family="Times,serif" font-size="14.00">dilation rate: &#45;1 &#160;&#160;n kernels: &#45;6</text>
</g>
<!-- 3&#45;&gt;12 -->
<g id="edge12" class="edge"><title>3&#45;&gt;12</title>
<path fill="none" stroke="black" d="M250.802,-155.46C219.929,-143.66 179.422,-128.178 146.788,-115.705"/>
<polygon fill="black" stroke="black" points="147.962,-112.407 137.371,-112.106 145.463,-118.945 147.962,-112.407"/>
</g>
<!-- 13 -->
<g id="node14" class="node"><title>13</title>
<path fill="#bfcfe6" stroke="black" d="M287.5,-112C287.5,-112 210.5,-112 210.5,-112 204.5,-112 198.5,-106 198.5,-100 198.5,-100 198.5,-86 198.5,-86 198.5,-80 204.5,-74 210.5,-74 210.5,-74 287.5,-74 287.5,-74 293.5,-74 299.5,-80 299.5,-86 299.5,-86 299.5,-100 299.5,-100 299.5,-106 293.5,-112 287.5,-112"/>
<text text-anchor="middle" x="249" y="-96.8" font-family="Times,serif" font-size="14.00">comp 1</text>
<text text-anchor="middle" x="249" y="-81.8" font-family="Times,serif" font-size="14.00">dilation rate: &#45;1</text>
</g>
<!-- 3&#45;&gt;13 -->
<g id="edge13" class="edge"><title>3&#45;&gt;13</title>
<path fill="none" stroke="black" d="M286.881,-155.46C280.598,-145.266 272.621,-132.324 265.61,-120.949"/>
<polygon fill="black" stroke="black" points="268.471,-118.92 260.244,-112.244 262.512,-122.593 268.471,-118.92"/>
</g>
<!-- 14 -->
<g id="node15" class="node"><title>14</title>
<path fill="#abb9ce" stroke="black" d="M364,-111C364,-111 330,-111 330,-111 324,-111 318,-105 318,-99 318,-99 318,-87 318,-87 318,-81 324,-75 330,-75 330,-75 364,-75 364,-75 370,-75 376,-81 376,-87 376,-87 376,-99 376,-99 376,-105 370,-111 364,-111"/>
<text text-anchor="middle" x="347" y="-89.3" font-family="Times,serif" font-size="14.00">comp 2</text>
</g>
<!-- 3&#45;&gt;14 -->
<g id="edge14" class="edge"><title>3&#45;&gt;14</title>
<path fill="none" stroke="black" d="M309.119,-155.46C315.58,-144.977 323.833,-131.588 330.984,-119.984"/>
<polygon fill="black" stroke="black" points="334.162,-121.5 336.429,-111.151 328.202,-117.827 334.162,-121.5"/>
</g>
<!-- 15 -->
<g id="node16" class="node"><title>15</title>
<path fill="#d3e4ff" stroke="black" d="M441,-111C441,-111 407,-111 407,-111 401,-111 395,-105 395,-99 395,-99 395,-87 395,-87 395,-81 401,-75 407,-75 407,-75 441,-75 441,-75 447,-75 453,-81 453,-87 453,-87 453,-99 453,-99 453,-105 447,-111 441,-111"/>
<text text-anchor="middle" x="424" y="-89.3" font-family="Times,serif" font-size="14.00">comp 0</text>
</g>
<!-- 4&#45;&gt;15 -->
<g id="edge15" class="edge"><title>4&#45;&gt;15</title>
<path fill="none" stroke="black" d="M584.092,-155.377C550.693,-144.666 508.059,-130.266 462.718,-112.1"/>
<polygon fill="black" stroke="black" points="463.893,-108.8 453.31,-108.292 461.266,-115.288 463.893,-108.8"/>
</g>
<!-- 16 -->
<g id="node17" class="node"><title>16</title>
<path fill="#bfcfe6" stroke="black" d="M689,-112C689,-112 483,-112 483,-112 477,-112 471,-106 471,-100 471,-100 471,-86 471,-86 471,-80 477,-74 483,-74 483,-74 689,-74 689,-74 695,-74 701,-80 701,-86 701,-86 701,-100 701,-100 701,-106 695,-112 689,-112"/>
<text text-anchor="middle" x="586" y="-96.8" font-family="Times,serif" font-size="14.00">comp 1</text>
<text text-anchor="middle" x="586" y="-81.8" font-family="Times,serif" font-size="14.00">log gamma2: 0.544551 &#160;&#160;n kernels: &#45;42</text>
</g>
<!-- 4&#45;&gt;16 -->
<g id="edge16" class="edge"><title>4&#45;&gt;16</title>
<path fill="none" stroke="black" d="M630.066,-155.46C622.685,-145.165 613.294,-132.068 605.08,-120.611"/>
<polygon fill="black" stroke="black" points="607.752,-118.331 599.08,-112.244 602.063,-122.41 607.752,-118.331"/>
</g>
<!-- 17 -->
<g id="node18" class="node"><title>17</title>
<path fill="#abb9ce" stroke="black" d="M765,-111C765,-111 731,-111 731,-111 725,-111 719,-105 719,-99 719,-99 719,-87 719,-87 719,-81 725,-75 731,-75 731,-75 765,-75 765,-75 771,-75 777,-81 777,-87 777,-87 777,-99 777,-99 777,-105 771,-111 765,-111"/>
<text text-anchor="middle" x="748" y="-89.3" font-family="Times,serif" font-size="14.00">comp 2</text>
</g>
<!-- 4&#45;&gt;17 -->
<g id="edge17" class="edge"><title>4&#45;&gt;17</title>
<path fill="none" stroke="black" d="M666.826,-155.46C681.768,-144.147 701.181,-129.449 717.275,-117.263"/>
<polygon fill="black" stroke="black" points="719.488,-119.978 725.348,-111.151 715.263,-114.397 719.488,-119.978"/>
</g>
<!-- 18 -->
<g id="node19" class="node"><title>18</title>
<path fill="#d3e4ff" stroke="black" d="M841,-111C841,-111 807,-111 807,-111 801,-111 795,-105 795,-99 795,-99 795,-87 795,-87 795,-81 801,-75 807,-75 807,-75 841,-75 841,-75 847,-75 853,-81 853,-87 853,-87 853,-99 853,-99 853,-105 847,-111 841,-111"/>
<text text-anchor="middle" x="824" y="-89.3" font-family="Times,serif" font-size="14.00">comp 0</text>
</g>
<!-- 5&#45;&gt;18 -->
<g id="edge18" class="edge"><title>5&#45;&gt;18</title>
<path fill="none" stroke="black" d="M882.754,-155.46C872.336,-144.562 858.915,-130.523 847.531,-118.614"/>
<polygon fill="black" stroke="black" points="849.836,-115.961 840.396,-111.151 844.776,-120.798 849.836,-115.961"/>
</g>
<!-- 19 -->
<g id="node20" class="node"><title>19</title>
<path fill="#bfcfe6" stroke="black" d="M917,-111C917,-111 883,-111 883,-111 877,-111 871,-105 871,-99 871,-99 871,-87 871,-87 871,-81 877,-75 883,-75 883,-75 917,-75 917,-75 923,-75 929,-81 929,-87 929,-87 929,-99 929,-99 929,-105 923,-111 917,-111"/>
<text text-anchor="middle" x="900" y="-89.3" font-family="Times,serif" font-size="14.00">comp 1</text>
</g>
<!-- 5&#45;&gt;19 -->
<g id="edge19" class="edge"><title>5&#45;&gt;19</title>
<path fill="none" stroke="black" d="M900,-155.46C900,-145.392 900,-132.644 900,-121.371"/>
<polygon fill="black" stroke="black" points="903.5,-121.151 900,-111.151 896.5,-121.151 903.5,-121.151"/>
</g>
<!-- 20 -->
<g id="node21" class="node"><title>20</title>
<path fill="#abb9ce" stroke="black" d="M1033,-112C1033,-112 959,-112 959,-112 953,-112 947,-106 947,-100 947,-100 947,-86 947,-86 947,-80 953,-74 959,-74 959,-74 1033,-74 1033,-74 1039,-74 1045,-80 1045,-86 1045,-86 1045,-100 1045,-100 1045,-106 1039,-112 1033,-112"/>
<text text-anchor="middle" x="996" y="-96.8" font-family="Times,serif" font-size="14.00">comp 2</text>
<text text-anchor="middle" x="996" y="-81.8" font-family="Times,serif" font-size="14.00">n kernels: &#45;212</text>
</g>
<!-- 5&#45;&gt;20 -->
<g id="edge20" class="edge"><title>5&#45;&gt;20</title>
<path fill="none" stroke="black" d="M921.784,-155.46C934.825,-144.661 951.59,-130.777 965.885,-118.939"/>
<polygon fill="black" stroke="black" points="968.5,-121.317 973.97,-112.244 964.036,-115.926 968.5,-121.317"/>
</g>
<!-- 21 -->
<g id="node22" class="node"><title>21</title>
<path fill="#d3e4ff" stroke="black" d="M1109,-111C1109,-111 1075,-111 1075,-111 1069,-111 1063,-105 1063,-99 1063,-99 1063,-87 1063,-87 1063,-81 1069,-75 1075,-75 1075,-75 1109,-75 1109,-75 1115,-75 1121,-81 1121,-87 1121,-87 1121,-99 1121,-99 1121,-105 1115,-111 1109,-111"/>
<text text-anchor="middle" x="1092" y="-89.3" font-family="Times,serif" font-size="14.00">comp 0</text>
</g>
<!-- 6&#45;&gt;21 -->
<g id="edge21" class="edge"><title>6&#45;&gt;21</title>
<path fill="none" stroke="black" d="M1126.02,-155.46C1120.21,-144.977 1112.8,-131.588 1106.38,-119.984"/>
<polygon fill="black" stroke="black" points="1109.4,-118.205 1101.49,-111.151 1103.27,-121.595 1109.4,-118.205"/>
</g>
<!-- 22 -->
<g id="node23" class="node"><title>22</title>
<path fill="#bfcfe6" stroke="black" d="M1185,-111C1185,-111 1151,-111 1151,-111 1145,-111 1139,-105 1139,-99 1139,-99 1139,-87 1139,-87 1139,-81 1145,-75 1151,-75 1151,-75 1185,-75 1185,-75 1191,-75 1197,-81 1197,-87 1197,-87 1197,-99 1197,-99 1197,-105 1191,-111 1185,-111"/>
<text text-anchor="middle" x="1168" y="-89.3" font-family="Times,serif" font-size="14.00">comp 1</text>
</g>
<!-- 6&#45;&gt;22 -->
<g id="edge22" class="edge"><title>6&#45;&gt;22</title>
<path fill="none" stroke="black" d="M1143.26,-155.46C1147.4,-145.185 1152.66,-132.117 1157.26,-120.676"/>
<polygon fill="black" stroke="black" points="1160.61,-121.735 1161.1,-111.151 1154.12,-119.121 1160.61,-121.735"/>
</g>
<!-- 23 -->
<g id="node24" class="node"><title>23</title>
<path fill="#abb9ce" stroke="black" d="M1262,-111C1262,-111 1228,-111 1228,-111 1222,-111 1216,-105 1216,-99 1216,-99 1216,-87 1216,-87 1216,-81 1222,-75 1228,-75 1228,-75 1262,-75 1262,-75 1268,-75 1274,-81 1274,-87 1274,-87 1274,-99 1274,-99 1274,-105 1268,-111 1262,-111"/>
<text text-anchor="middle" x="1245" y="-89.3" font-family="Times,serif" font-size="14.00">comp 2</text>
</g>
<!-- 6&#45;&gt;23 -->
<g id="edge23" class="edge"><title>6&#45;&gt;23</title>
<path fill="none" stroke="black" d="M1160.73,-155.46C1176.25,-144.147 1196.4,-129.449 1213.1,-117.263"/>
<polygon fill="black" stroke="black" points="1215.47,-119.871 1221.48,-111.151 1211.34,-114.216 1215.47,-119.871"/>
</g>
<!-- 24 -->
<g id="node25" class="node"><title>24</title>
<path fill="#d3e4ff" stroke="black" d="M1340,-111C1340,-111 1306,-111 1306,-111 1300,-111 1294,-105 1294,-99 1294,-99 1294,-87 1294,-87 1294,-81 1300,-75 1306,-75 1306,-75 1340,-75 1340,-75 1346,-75 1352,-81 1352,-87 1352,-87 1352,-99 1352,-99 1352,-105 1346,-111 1340,-111"/>
<text text-anchor="middle" x="1323" y="-89.3" font-family="Times,serif" font-size="14.00">comp 0</text>
</g>
<!-- 7&#45;&gt;24 -->
<g id="edge24" class="edge"><title>7&#45;&gt;24</title>
<path fill="none" stroke="black" d="M1418.09,-155.46C1400.26,-143.939 1377.01,-128.908 1357.96,-116.595"/>
<polygon fill="black" stroke="black" points="1359.83,-113.64 1349.54,-111.151 1356.03,-119.519 1359.83,-113.64"/>
</g>
<!-- 25 -->
<g id="node26" class="node"><title>25</title>
<path fill="#bfcfe6" stroke="black" d="M1416,-111C1416,-111 1382,-111 1382,-111 1376,-111 1370,-105 1370,-99 1370,-99 1370,-87 1370,-87 1370,-81 1376,-75 1382,-75 1382,-75 1416,-75 1416,-75 1422,-75 1428,-81 1428,-87 1428,-87 1428,-99 1428,-99 1428,-105 1422,-111 1416,-111"/>
<text text-anchor="middle" x="1399" y="-89.3" font-family="Times,serif" font-size="14.00">comp 1</text>
</g>
<!-- 7&#45;&gt;25 -->
<g id="edge25" class="edge"><title>7&#45;&gt;25</title>
<path fill="none" stroke="black" d="M1435.33,-155.46C1429.14,-144.977 1421.22,-131.588 1414.36,-119.984"/>
<polygon fill="black" stroke="black" points="1417.24,-117.978 1409.14,-111.151 1411.22,-121.54 1417.24,-117.978"/>
</g>
<!-- 26 -->
<g id="node27" class="node"><title>26</title>
<path fill="#abb9ce" stroke="black" d="M1530,-112C1530,-112 1458,-112 1458,-112 1452,-112 1446,-106 1446,-100 1446,-100 1446,-86 1446,-86 1446,-80 1452,-74 1458,-74 1458,-74 1530,-74 1530,-74 1536,-74 1542,-80 1542,-86 1542,-86 1542,-100 1542,-100 1542,-106 1536,-112 1530,-112"/>
<text text-anchor="middle" x="1494" y="-96.8" font-family="Times,serif" font-size="14.00">comp 2</text>
<text text-anchor="middle" x="1494" y="-81.8" font-family="Times,serif" font-size="14.00">dilation rate: 1</text>
</g>
<!-- 7&#45;&gt;26 -->
<g id="edge26" class="edge"><title>7&#45;&gt;26</title>
<path fill="none" stroke="black" d="M1456.89,-155.46C1463.05,-145.266 1470.86,-132.324 1477.73,-120.949"/>
<polygon fill="black" stroke="black" points="1480.81,-122.613 1482.99,-112.244 1474.82,-118.995 1480.81,-122.613"/>
</g>
<!-- 27 -->
<g id="node28" class="node"><title>27</title>
<path fill="#d3e4ff" stroke="black" d="M1697.5,-112C1697.5,-112 1572.5,-112 1572.5,-112 1566.5,-112 1560.5,-106 1560.5,-100 1560.5,-100 1560.5,-86 1560.5,-86 1560.5,-80 1566.5,-74 1572.5,-74 1572.5,-74 1697.5,-74 1697.5,-74 1703.5,-74 1709.5,-80 1709.5,-86 1709.5,-86 1709.5,-100 1709.5,-100 1709.5,-106 1703.5,-112 1697.5,-112"/>
<text text-anchor="middle" x="1635" y="-96.8" font-family="Times,serif" font-size="14.00">comp 0</text>
<text text-anchor="middle" x="1635" y="-81.8" font-family="Times,serif" font-size="14.00">log gamma2: &#45;0.198141</text>
</g>
<!-- 8&#45;&gt;27 -->
<g id="edge27" class="edge"><title>8&#45;&gt;27</title>
<path fill="none" stroke="black" d="M1757.73,-147.908C1734.49,-137.701 1707.99,-126.061 1685.58,-116.215"/>
<polygon fill="black" stroke="black" points="1686.81,-112.932 1676.24,-112.115 1683.99,-119.341 1686.81,-112.932"/>
</g>
<!-- 28 -->
<g id="node29" class="node"><title>28</title>
<path fill="#bfcfe6" stroke="black" d="M1773,-111C1773,-111 1739,-111 1739,-111 1733,-111 1727,-105 1727,-99 1727,-99 1727,-87 1727,-87 1727,-81 1733,-75 1739,-75 1739,-75 1773,-75 1773,-75 1779,-75 1785,-81 1785,-87 1785,-87 1785,-99 1785,-99 1785,-105 1779,-111 1773,-111"/>
<text text-anchor="middle" x="1756" y="-89.3" font-family="Times,serif" font-size="14.00">comp 1</text>
</g>
<!-- 8&#45;&gt;28 -->
<g id="edge28" class="edge"><title>8&#45;&gt;28</title>
<path fill="none" stroke="black" d="M1796.69,-147.908C1789.76,-138.733 1781.96,-128.401 1775.06,-119.255"/>
<polygon fill="black" stroke="black" points="1777.84,-117.13 1769.02,-111.256 1772.25,-121.347 1777.84,-117.13"/>
</g>
<!-- 29 -->
<g id="node30" class="node"><title>29</title>
<path fill="#abb9ce" stroke="black" d="M1939.5,-112C1939.5,-112 1814.5,-112 1814.5,-112 1808.5,-112 1802.5,-106 1802.5,-100 1802.5,-100 1802.5,-86 1802.5,-86 1802.5,-80 1808.5,-74 1814.5,-74 1814.5,-74 1939.5,-74 1939.5,-74 1945.5,-74 1951.5,-80 1951.5,-86 1951.5,-86 1951.5,-100 1951.5,-100 1951.5,-106 1945.5,-112 1939.5,-112"/>
<text text-anchor="middle" x="1877" y="-96.8" font-family="Times,serif" font-size="14.00">comp 2</text>
<text text-anchor="middle" x="1877" y="-81.8" font-family="Times,serif" font-size="14.00">log gamma1: &#45;1.908378</text>
</g>
<!-- 8&#45;&gt;29 -->
<g id="edge29" class="edge"><title>8&#45;&gt;29</title>
<path fill="none" stroke="black" d="M1835.64,-147.908C1842.39,-139.102 1849.97,-129.23 1856.77,-120.364"/>
<polygon fill="black" stroke="black" points="1859.69,-122.303 1863.01,-112.239 1854.14,-118.042 1859.69,-122.303"/>
</g>
<!-- 30 -->
<g id="node31" class="node"><title>30</title>
<path fill="#d3e4ff" stroke="black" d="M2106.5,-112C2106.5,-112 1981.5,-112 1981.5,-112 1975.5,-112 1969.5,-106 1969.5,-100 1969.5,-100 1969.5,-86 1969.5,-86 1969.5,-80 1975.5,-74 1981.5,-74 1981.5,-74 2106.5,-74 2106.5,-74 2112.5,-74 2118.5,-80 2118.5,-86 2118.5,-86 2118.5,-100 2118.5,-100 2118.5,-106 2112.5,-112 2106.5,-112"/>
<text text-anchor="middle" x="2044" y="-96.8" font-family="Times,serif" font-size="14.00">comp 0</text>
<text text-anchor="middle" x="2044" y="-81.8" font-family="Times,serif" font-size="14.00">log gamma2: &#45;0.198141</text>
</g>
<!-- 9&#45;&gt;30 -->
<g id="edge30" class="edge"><title>9&#45;&gt;30</title>
<path fill="none" stroke="black" d="M2115.88,-147.908C2103.29,-138.467 2089.07,-127.799 2076.61,-118.461"/>
<polygon fill="black" stroke="black" points="2078.42,-115.439 2068.32,-112.239 2074.22,-121.039 2078.42,-115.439"/>
</g>
<!-- 31 -->
<g id="node32" class="node"><title>31</title>
<path fill="#bfcfe6" stroke="black" d="M2363.5,-112C2363.5,-112 2148.5,-112 2148.5,-112 2142.5,-112 2136.5,-106 2136.5,-100 2136.5,-100 2136.5,-86 2136.5,-86 2136.5,-80 2142.5,-74 2148.5,-74 2148.5,-74 2363.5,-74 2363.5,-74 2369.5,-74 2375.5,-80 2375.5,-86 2375.5,-86 2375.5,-100 2375.5,-100 2375.5,-106 2369.5,-112 2363.5,-112"/>
<text text-anchor="middle" x="2256" y="-96.8" font-family="Times,serif" font-size="14.00">comp 1</text>
<text text-anchor="middle" x="2256" y="-81.8" font-family="Times,serif" font-size="14.00">dilation rate: 1 &#160;&#160;log gamma1: &#45;1.872551</text>
</g>
<!-- 9&#45;&gt;31 -->
<g id="edge31" class="edge"><title>9&#45;&gt;31</title>
<path fill="none" stroke="black" d="M2184.12,-147.908C2196.71,-138.467 2210.93,-127.799 2223.39,-118.461"/>
<polygon fill="black" stroke="black" points="2225.78,-121.039 2231.68,-112.239 2221.58,-115.439 2225.78,-121.039"/>
</g>
<!-- 32 -->
<g id="node33" class="node"><title>32</title>
<path fill="#abb9ce" stroke="black" d="M2439,-111C2439,-111 2405,-111 2405,-111 2399,-111 2393,-105 2393,-99 2393,-99 2393,-87 2393,-87 2393,-81 2399,-75 2405,-75 2405,-75 2439,-75 2439,-75 2445,-75 2451,-81 2451,-87 2451,-87 2451,-99 2451,-99 2451,-105 2445,-111 2439,-111"/>
<text text-anchor="middle" x="2422" y="-89.3" font-family="Times,serif" font-size="14.00">comp 2</text>
</g>
<!-- 9&#45;&gt;32 -->
<g id="edge32" class="edge"><title>9&#45;&gt;32</title>
<path fill="none" stroke="black" d="M2259.64,-149.15C2296.68,-139.836 2338.21,-128.202 2383.13,-112.025"/>
<polygon fill="black" stroke="black" points="2384.58,-115.223 2392.77,-108.503 2382.18,-108.648 2384.58,-115.223"/>
</g>
<!-- 33 -->
<g id="node34" class="node"><title>33</title>
<path fill="#d3e4ff" stroke="black" d="M2605.5,-112C2605.5,-112 2480.5,-112 2480.5,-112 2474.5,-112 2468.5,-106 2468.5,-100 2468.5,-100 2468.5,-86 2468.5,-86 2468.5,-80 2474.5,-74 2480.5,-74 2480.5,-74 2605.5,-74 2605.5,-74 2611.5,-74 2617.5,-80 2617.5,-86 2617.5,-86 2617.5,-100 2617.5,-100 2617.5,-106 2611.5,-112 2605.5,-112"/>
<text text-anchor="middle" x="2543" y="-96.8" font-family="Times,serif" font-size="14.00">comp 0</text>
<text text-anchor="middle" x="2543" y="-81.8" font-family="Times,serif" font-size="14.00">log gamma1: &#45;1.431888</text>
</g>
<!-- 10&#45;&gt;33 -->
<g id="edge33" class="edge"><title>10&#45;&gt;33</title>
<path fill="none" stroke="black" d="M2598.6,-147.908C2589.15,-138.739 2578.5,-128.414 2569.07,-119.272"/>
<polygon fill="black" stroke="black" points="2571.43,-116.687 2561.81,-112.239 2566.56,-121.713 2571.43,-116.687"/>
</g>
<!-- 34 -->
<g id="node35" class="node"><title>34</title>
<path fill="#bfcfe6" stroke="black" d="M2768,-112C2768,-112 2648,-112 2648,-112 2642,-112 2636,-106 2636,-100 2636,-100 2636,-86 2636,-86 2636,-80 2642,-74 2648,-74 2648,-74 2768,-74 2768,-74 2774,-74 2780,-80 2780,-86 2780,-86 2780,-100 2780,-100 2780,-106 2774,-112 2768,-112"/>
<text text-anchor="middle" x="2708" y="-96.8" font-family="Times,serif" font-size="14.00">comp 1</text>
<text text-anchor="middle" x="2708" y="-81.8" font-family="Times,serif" font-size="14.00">log gamma2: 1.141309</text>
</g>
<!-- 10&#45;&gt;34 -->
<g id="edge34" class="edge"><title>10&#45;&gt;34</title>
<path fill="none" stroke="black" d="M2651.72,-147.908C2661.29,-138.739 2672.07,-128.414 2681.62,-119.272"/>
<polygon fill="black" stroke="black" points="2684.16,-121.684 2688.96,-112.239 2679.32,-116.628 2684.16,-121.684"/>
</g>
<!-- 35 -->
<g id="node36" class="node"><title>35</title>
<path fill="#abb9ce" stroke="black" d="M2844,-111C2844,-111 2810,-111 2810,-111 2804,-111 2798,-105 2798,-99 2798,-99 2798,-87 2798,-87 2798,-81 2804,-75 2810,-75 2810,-75 2844,-75 2844,-75 2850,-75 2856,-81 2856,-87 2856,-87 2856,-99 2856,-99 2856,-105 2850,-111 2844,-111"/>
<text text-anchor="middle" x="2827" y="-89.3" font-family="Times,serif" font-size="14.00">comp 2</text>
</g>
<!-- 10&#45;&gt;35 -->
<g id="edge35" class="edge"><title>10&#45;&gt;35</title>
<path fill="none" stroke="black" d="M2696.96,-147.996C2723.42,-138.263 2753.73,-126.708 2788.29,-112.169"/>
<polygon fill="black" stroke="black" points="2789.81,-115.324 2797.65,-108.199 2787.08,-108.879 2789.81,-115.324"/>
</g>
<!-- 36 -->
<g id="node37" class="node"><title>36</title>
<path fill="#d3e4ff" stroke="black" d="M3044,-112C3044,-112 2886,-112 2886,-112 2880,-112 2874,-106 2874,-100 2874,-100 2874,-86 2874,-86 2874,-80 2880,-74 2886,-74 2886,-74 3044,-74 3044,-74 3050,-74 3056,-80 3056,-86 3056,-86 3056,-100 3056,-100 3056,-106 3050,-112 3044,-112"/>
<text text-anchor="middle" x="2965" y="-96.8" font-family="Times,serif" font-size="14.00">comp 0</text>
<text text-anchor="middle" x="2965" y="-81.8" font-family="Times,serif" font-size="14.00">dilation rate: &#45;1 &#160;&#160;n kernels: 14</text>
</g>
<!-- 11&#45;&gt;36 -->
<g id="edge36" class="edge"><title>11&#45;&gt;36</title>
<path fill="none" stroke="black" d="M3018.34,-155.46C3009.23,-144.964 2997.59,-131.553 2987.51,-119.939"/>
<polygon fill="black" stroke="black" points="2990.03,-117.502 2980.83,-112.244 2984.75,-122.09 2990.03,-117.502"/>
</g>
<!-- 37 -->
<g id="node38" class="node"><title>37</title>
<path fill="#bfcfe6" stroke="black" d="M3120,-111C3120,-111 3086,-111 3086,-111 3080,-111 3074,-105 3074,-99 3074,-99 3074,-87 3074,-87 3074,-81 3080,-75 3086,-75 3086,-75 3120,-75 3120,-75 3126,-75 3132,-81 3132,-87 3132,-87 3132,-99 3132,-99 3132,-105 3126,-111 3120,-111"/>
<text text-anchor="middle" x="3103" y="-89.3" font-family="Times,serif" font-size="14.00">comp 1</text>
</g>
<!-- 11&#45;&gt;37 -->
<g id="edge37" class="edge"><title>11&#45;&gt;37</title>
<path fill="none" stroke="black" d="M3049.66,-155.46C3059.03,-144.666 3071.07,-130.79 3081.34,-118.955"/>
<polygon fill="black" stroke="black" points="3084.2,-120.997 3088.11,-111.151 3078.92,-116.409 3084.2,-120.997"/>
</g>
<!-- 38 -->
<g id="node39" class="node"><title>38</title>
<path fill="#abb9ce" stroke="black" d="M3282,-112C3282,-112 3162,-112 3162,-112 3156,-112 3150,-106 3150,-100 3150,-100 3150,-86 3150,-86 3150,-80 3156,-74 3162,-74 3162,-74 3282,-74 3282,-74 3288,-74 3294,-80 3294,-86 3294,-86 3294,-100 3294,-100 3294,-106 3288,-112 3282,-112"/>
<text text-anchor="middle" x="3222" y="-96.8" font-family="Times,serif" font-size="14.00">comp 2</text>
<text text-anchor="middle" x="3222" y="-81.8" font-family="Times,serif" font-size="14.00">log gamma2: 1.983878</text>
</g>
<!-- 11&#45;&gt;38 -->
<g id="edge38" class="edge"><title>11&#45;&gt;38</title>
<path fill="none" stroke="black" d="M3076.66,-155.46C3104.33,-143.761 3140.55,-128.444 3169.91,-116.027"/>
<polygon fill="black" stroke="black" points="3171.34,-119.224 3179.18,-112.106 3168.61,-112.777 3171.34,-119.224"/>
</g>
<!-- 39 -->
<g id="node40" class="node"><title>39</title>
<path fill="#f6d3ff" stroke="black" d="M107.5,-38C107.5,-38 72.5,-38 72.5,-38 66.5,-38 60.5,-32 60.5,-26 60.5,-26 60.5,-12 60.5,-12 60.5,-6 66.5,-0 72.5,-0 72.5,-0 107.5,-0 107.5,-0 113.5,-0 119.5,-6 119.5,-12 119.5,-12 119.5,-26 119.5,-26 119.5,-32 113.5,-38 107.5,-38"/>
<text text-anchor="middle" x="90" y="-22.8" font-family="Times,serif" font-size="14.00">forward</text>
<text text-anchor="middle" x="90" y="-7.8" font-family="Times,serif" font-size="14.00">input</text>
</g>
<!-- 12&#45;&gt;39 -->
<g id="edge39" class="edge"><title>12&#45;&gt;39</title>
<path fill="none" stroke="black" d="M90,-73.8314C90,-66.131 90,-56.9743 90,-48.4166"/>
<polygon fill="black" stroke="black" points="93.5001,-48.4132 90,-38.4133 86.5001,-48.4133 93.5001,-48.4132"/>
</g>
<!-- 40 -->
<g id="node41" class="node"><title>40</title>
<path fill="#f6d3ff" stroke="black" d="M267,-38C267,-38 231,-38 231,-38 225,-38 219,-32 219,-26 219,-26 219,-12 219,-12 219,-6 225,-0 231,-0 231,-0 267,-0 267,-0 273,-0 279,-6 279,-12 279,-12 279,-26 279,-26 279,-32 273,-38 267,-38"/>
<text text-anchor="middle" x="249" y="-22.8" font-family="Times,serif" font-size="14.00">forward</text>
<text text-anchor="middle" x="249" y="-7.8" font-family="Times,serif" font-size="14.00">EB0/C0</text>
</g>
<!-- 13&#45;&gt;40 -->
<g id="edge40" class="edge"><title>13&#45;&gt;40</title>
<path fill="none" stroke="black" d="M249,-73.8314C249,-66.131 249,-56.9743 249,-48.4166"/>
<polygon fill="black" stroke="black" points="252.5,-48.4132 249,-38.4133 245.5,-48.4133 252.5,-48.4132"/>
</g>
<!-- 41 -->
<g id="node42" class="node"><title>41</title>
<path fill="#f6d3ff" stroke="black" d="M364,-38C364,-38 328,-38 328,-38 322,-38 316,-32 316,-26 316,-26 316,-12 316,-12 316,-6 322,-0 328,-0 328,-0 364,-0 364,-0 370,-0 376,-6 376,-12 376,-12 376,-26 376,-26 376,-32 370,-38 364,-38"/>
<text text-anchor="middle" x="346" y="-22.8" font-family="Times,serif" font-size="14.00">forward</text>
<text text-anchor="middle" x="346" y="-7.8" font-family="Times,serif" font-size="14.00">EB0/C1</text>
</g>
<!-- 14&#45;&gt;41 -->
<g id="edge41" class="edge"><title>14&#45;&gt;41</title>
<path fill="none" stroke="black" d="M346.763,-74.937C346.653,-66.9865 346.518,-57.3134 346.393,-48.3127"/>
<polygon fill="black" stroke="black" points="349.891,-48.1496 346.253,-38.1992 342.892,-48.2468 349.891,-48.1496"/>
</g>
<!-- 42 -->
<g id="node43" class="node"><title>42</title>
<path fill="#f6d3ff" stroke="black" d="M442,-38C442,-38 406,-38 406,-38 400,-38 394,-32 394,-26 394,-26 394,-12 394,-12 394,-6 400,-0 406,-0 406,-0 442,-0 442,-0 448,-0 454,-6 454,-12 454,-12 454,-26 454,-26 454,-32 448,-38 442,-38"/>
<text text-anchor="middle" x="424" y="-22.8" font-family="Times,serif" font-size="14.00">forward</text>
<text text-anchor="middle" x="424" y="-7.8" font-family="Times,serif" font-size="14.00">EB0/C2</text>
</g>
<!-- 15&#45;&gt;42 -->
<g id="edge42" class="edge"><title>15&#45;&gt;42</title>
<path fill="none" stroke="black" d="M424,-74.937C424,-66.9865 424,-57.3134 424,-48.3127"/>
<polygon fill="black" stroke="black" points="427.5,-48.1991 424,-38.1992 420.5,-48.1992 427.5,-48.1991"/>
</g>
<!-- 43 -->
<g id="node44" class="node"><title>43</title>
<path fill="#f6d3ff" stroke="black" d="M604,-38C604,-38 568,-38 568,-38 562,-38 556,-32 556,-26 556,-26 556,-12 556,-12 556,-6 562,-0 568,-0 568,-0 604,-0 604,-0 610,-0 616,-6 616,-12 616,-12 616,-26 616,-26 616,-32 610,-38 604,-38"/>
<text text-anchor="middle" x="586" y="-22.8" font-family="Times,serif" font-size="14.00">forward</text>
<text text-anchor="middle" x="586" y="-7.8" font-family="Times,serif" font-size="14.00">EB1/C0</text>
</g>
<!-- 16&#45;&gt;43 -->
<g id="edge43" class="edge"><title>16&#45;&gt;43</title>
<path fill="none" stroke="black" d="M586,-73.8314C586,-66.131 586,-56.9743 586,-48.4166"/>
<polygon fill="black" stroke="black" points="589.5,-48.4132 586,-38.4133 582.5,-48.4133 589.5,-48.4132"/>
</g>
<!-- 44 -->
<g id="node45" class="node"><title>44</title>
<path fill="#f6d3ff" stroke="black" d="M764,-38C764,-38 728,-38 728,-38 722,-38 716,-32 716,-26 716,-26 716,-12 716,-12 716,-6 722,-0 728,-0 728,-0 764,-0 764,-0 770,-0 776,-6 776,-12 776,-12 776,-26 776,-26 776,-32 770,-38 764,-38"/>
<text text-anchor="middle" x="746" y="-22.8" font-family="Times,serif" font-size="14.00">forward</text>
<text text-anchor="middle" x="746" y="-7.8" font-family="Times,serif" font-size="14.00">EB1/C1</text>
</g>
<!-- 17&#45;&gt;44 -->
<g id="edge44" class="edge"><title>17&#45;&gt;44</title>
<path fill="none" stroke="black" d="M747.526,-74.937C747.305,-66.9865 747.036,-57.3134 746.786,-48.3127"/>
<polygon fill="black" stroke="black" points="750.282,-48.0981 746.506,-38.1992 743.285,-48.2925 750.282,-48.0981"/>
</g>
<!-- 45 -->
<g id="node46" class="node"><title>45</title>
<path fill="#f6d3ff" stroke="black" d="M842,-38C842,-38 806,-38 806,-38 800,-38 794,-32 794,-26 794,-26 794,-12 794,-12 794,-6 800,-0 806,-0 806,-0 842,-0 842,-0 848,-0 854,-6 854,-12 854,-12 854,-26 854,-26 854,-32 848,-38 842,-38"/>
<text text-anchor="middle" x="824" y="-22.8" font-family="Times,serif" font-size="14.00">forward</text>
<text text-anchor="middle" x="824" y="-7.8" font-family="Times,serif" font-size="14.00">EB1/C2</text>
</g>
<!-- 18&#45;&gt;45 -->
<g id="edge45" class="edge"><title>18&#45;&gt;45</title>
<path fill="none" stroke="black" d="M824,-74.937C824,-66.9865 824,-57.3134 824,-48.3127"/>
<polygon fill="black" stroke="black" points="827.5,-48.1991 824,-38.1992 820.5,-48.1992 827.5,-48.1991"/>
</g>
<!-- 46 -->
<g id="node47" class="node"><title>46</title>
<path fill="#f6d3ff" stroke="black" d="M920,-38C920,-38 884,-38 884,-38 878,-38 872,-32 872,-26 872,-26 872,-12 872,-12 872,-6 878,-0 884,-0 884,-0 920,-0 920,-0 926,-0 932,-6 932,-12 932,-12 932,-26 932,-26 932,-32 926,-38 920,-38"/>
<text text-anchor="middle" x="902" y="-22.8" font-family="Times,serif" font-size="14.00">forward</text>
<text text-anchor="middle" x="902" y="-7.8" font-family="Times,serif" font-size="14.00">EB2/C0</text>
</g>
<!-- 19&#45;&gt;46 -->
<g id="edge46" class="edge"><title>19&#45;&gt;46</title>
<path fill="none" stroke="black" d="M900.474,-74.937C900.695,-66.9865 900.964,-57.3134 901.214,-48.3127"/>
<polygon fill="black" stroke="black" points="904.715,-48.2925 901.494,-38.1992 897.718,-48.0981 904.715,-48.2925"/>
</g>
<!-- 47 -->
<g id="node48" class="node"><title>47</title>
<path fill="#f6d3ff" stroke="black" d="M1014,-38C1014,-38 978,-38 978,-38 972,-38 966,-32 966,-26 966,-26 966,-12 966,-12 966,-6 972,-0 978,-0 978,-0 1014,-0 1014,-0 1020,-0 1026,-6 1026,-12 1026,-12 1026,-26 1026,-26 1026,-32 1020,-38 1014,-38"/>
<text text-anchor="middle" x="996" y="-22.8" font-family="Times,serif" font-size="14.00">forward</text>
<text text-anchor="middle" x="996" y="-7.8" font-family="Times,serif" font-size="14.00">EB2/C1</text>
</g>
<!-- 20&#45;&gt;47 -->
<g id="edge47" class="edge"><title>20&#45;&gt;47</title>
<path fill="none" stroke="black" d="M996,-73.8314C996,-66.131 996,-56.9743 996,-48.4166"/>
<polygon fill="black" stroke="black" points="999.5,-48.4132 996,-38.4133 992.5,-48.4133 999.5,-48.4132"/>
</g>
<!-- 48 -->
<g id="node49" class="node"><title>48</title>
<path fill="#f6d3ff" stroke="black" d="M1107,-38C1107,-38 1071,-38 1071,-38 1065,-38 1059,-32 1059,-26 1059,-26 1059,-12 1059,-12 1059,-6 1065,-0 1071,-0 1071,-0 1107,-0 1107,-0 1113,-0 1119,-6 1119,-12 1119,-12 1119,-26 1119,-26 1119,-32 1113,-38 1107,-38"/>
<text text-anchor="middle" x="1089" y="-22.8" font-family="Times,serif" font-size="14.00">forward</text>
<text text-anchor="middle" x="1089" y="-7.8" font-family="Times,serif" font-size="14.00">EB2/C2</text>
</g>
<!-- 21&#45;&gt;48 -->
<g id="edge48" class="edge"><title>21&#45;&gt;48</title>
<path fill="none" stroke="black" d="M1091.29,-74.937C1090.96,-66.9865 1090.55,-57.3134 1090.18,-48.3127"/>
<polygon fill="black" stroke="black" points="1093.67,-48.0448 1089.76,-38.1992 1086.68,-48.3362 1093.67,-48.0448"/>
</g>
<!-- 49 -->
<g id="node50" class="node"><title>49</title>
<path fill="#f6d3ff" stroke="black" d="M1185,-38C1185,-38 1149,-38 1149,-38 1143,-38 1137,-32 1137,-26 1137,-26 1137,-12 1137,-12 1137,-6 1143,-0 1149,-0 1149,-0 1185,-0 1185,-0 1191,-0 1197,-6 1197,-12 1197,-12 1197,-26 1197,-26 1197,-32 1191,-38 1185,-38"/>
<text text-anchor="middle" x="1167" y="-22.8" font-family="Times,serif" font-size="14.00">forward</text>
<text text-anchor="middle" x="1167" y="-7.8" font-family="Times,serif" font-size="14.00">EB3/C0</text>
</g>
<!-- 22&#45;&gt;49 -->
<g id="edge49" class="edge"><title>22&#45;&gt;49</title>
<path fill="none" stroke="black" d="M1167.76,-74.937C1167.65,-66.9865 1167.52,-57.3134 1167.39,-48.3127"/>
<polygon fill="black" stroke="black" points="1170.89,-48.1496 1167.25,-38.1992 1163.89,-48.2468 1170.89,-48.1496"/>
</g>
<!-- 50 -->
<g id="node51" class="node"><title>50</title>
<path fill="#f6d3ff" stroke="black" d="M1263,-38C1263,-38 1227,-38 1227,-38 1221,-38 1215,-32 1215,-26 1215,-26 1215,-12 1215,-12 1215,-6 1221,-0 1227,-0 1227,-0 1263,-0 1263,-0 1269,-0 1275,-6 1275,-12 1275,-12 1275,-26 1275,-26 1275,-32 1269,-38 1263,-38"/>
<text text-anchor="middle" x="1245" y="-22.8" font-family="Times,serif" font-size="14.00">forward</text>
<text text-anchor="middle" x="1245" y="-7.8" font-family="Times,serif" font-size="14.00">EB3/C1</text>
</g>
<!-- 23&#45;&gt;50 -->
<g id="edge50" class="edge"><title>23&#45;&gt;50</title>
<path fill="none" stroke="black" d="M1245,-74.937C1245,-66.9865 1245,-57.3134 1245,-48.3127"/>
<polygon fill="black" stroke="black" points="1248.5,-48.1991 1245,-38.1992 1241.5,-48.1992 1248.5,-48.1991"/>
</g>
<!-- 51 -->
<g id="node52" class="node"><title>51</title>
<path fill="#f6d3ff" stroke="black" d="M1341,-38C1341,-38 1305,-38 1305,-38 1299,-38 1293,-32 1293,-26 1293,-26 1293,-12 1293,-12 1293,-6 1299,-0 1305,-0 1305,-0 1341,-0 1341,-0 1347,-0 1353,-6 1353,-12 1353,-12 1353,-26 1353,-26 1353,-32 1347,-38 1341,-38"/>
<text text-anchor="middle" x="1323" y="-22.8" font-family="Times,serif" font-size="14.00">forward</text>
<text text-anchor="middle" x="1323" y="-7.8" font-family="Times,serif" font-size="14.00">EB3/C2</text>
</g>
<!-- 24&#45;&gt;51 -->
<g id="edge51" class="edge"><title>24&#45;&gt;51</title>
<path fill="none" stroke="black" d="M1323,-74.937C1323,-66.9865 1323,-57.3134 1323,-48.3127"/>
<polygon fill="black" stroke="black" points="1326.5,-48.1991 1323,-38.1992 1319.5,-48.1992 1326.5,-48.1991"/>
</g>
<!-- 52 -->
<g id="node53" class="node"><title>52</title>
<path fill="#f6d3ff" stroke="black" d="M1421,-38C1421,-38 1383,-38 1383,-38 1377,-38 1371,-32 1371,-26 1371,-26 1371,-12 1371,-12 1371,-6 1377,-0 1383,-0 1383,-0 1421,-0 1421,-0 1427,-0 1433,-6 1433,-12 1433,-12 1433,-26 1433,-26 1433,-32 1427,-38 1421,-38"/>
<text text-anchor="middle" x="1402" y="-22.8" font-family="Times,serif" font-size="14.00">forward</text>
<text text-anchor="middle" x="1402" y="-7.8" font-family="Times,serif" font-size="14.00">DB4/C0</text>
</g>
<!-- 25&#45;&gt;52 -->
<g id="edge52" class="edge"><title>25&#45;&gt;52</title>
<path fill="none" stroke="black" d="M1399.71,-74.937C1400.04,-66.9865 1400.45,-57.3134 1400.82,-48.3127"/>
<polygon fill="black" stroke="black" points="1404.32,-48.3362 1401.24,-38.1992 1397.33,-48.0448 1404.32,-48.3362"/>
</g>
<!-- 53 -->
<g id="node54" class="node"><title>53</title>
<path fill="#f6d3ff" stroke="black" d="M1513,-38C1513,-38 1475,-38 1475,-38 1469,-38 1463,-32 1463,-26 1463,-26 1463,-12 1463,-12 1463,-6 1469,-0 1475,-0 1475,-0 1513,-0 1513,-0 1519,-0 1525,-6 1525,-12 1525,-12 1525,-26 1525,-26 1525,-32 1519,-38 1513,-38"/>
<text text-anchor="middle" x="1494" y="-22.8" font-family="Times,serif" font-size="14.00">forward</text>
<text text-anchor="middle" x="1494" y="-7.8" font-family="Times,serif" font-size="14.00">DB4/C1</text>
</g>
<!-- 26&#45;&gt;53 -->
<g id="edge53" class="edge"><title>26&#45;&gt;53</title>
<path fill="none" stroke="black" d="M1494,-73.8314C1494,-66.131 1494,-56.9743 1494,-48.4166"/>
<polygon fill="black" stroke="black" points="1497.5,-48.4132 1494,-38.4133 1490.5,-48.4133 1497.5,-48.4132"/>
</g>
<!-- 54 -->
<g id="node55" class="node"><title>54</title>
<path fill="#f6d3ff" stroke="black" d="M1605,-38C1605,-38 1567,-38 1567,-38 1561,-38 1555,-32 1555,-26 1555,-26 1555,-12 1555,-12 1555,-6 1561,-0 1567,-0 1567,-0 1605,-0 1605,-0 1611,-0 1617,-6 1617,-12 1617,-12 1617,-26 1617,-26 1617,-32 1611,-38 1605,-38"/>
<text text-anchor="middle" x="1586" y="-22.8" font-family="Times,serif" font-size="14.00">forward</text>
<text text-anchor="middle" x="1586" y="-7.8" font-family="Times,serif" font-size="14.00">DB4/C2</text>
</g>
<!-- 27&#45;&gt;54 -->
<g id="edge54" class="edge"><title>27&#45;&gt;54</title>
<path fill="none" stroke="black" d="M1622.64,-73.8314C1617.05,-65.6232 1610.34,-55.7606 1604.19,-46.7323"/>
<polygon fill="black" stroke="black" points="1607.05,-44.7112 1598.53,-38.4133 1601.26,-48.6496 1607.05,-44.7112"/>
</g>
<!-- 55 -->
<g id="node56" class="node"><title>55</title>
<path fill="#debfe6" stroke="black" d="M1683,-38C1683,-38 1647,-38 1647,-38 1641,-38 1635,-32 1635,-26 1635,-26 1635,-12 1635,-12 1635,-6 1641,-0 1647,-0 1647,-0 1683,-0 1683,-0 1689,-0 1695,-6 1695,-12 1695,-12 1695,-26 1695,-26 1695,-32 1689,-38 1683,-38"/>
<text text-anchor="middle" x="1665" y="-22.8" font-family="Times,serif" font-size="14.00">merge</text>
<text text-anchor="middle" x="1665" y="-7.8" font-family="Times,serif" font-size="14.00">EB3/C2</text>
</g>
<!-- 27&#45;&gt;55 -->
<g id="edge55" class="edge"><title>27&#45;&gt;55</title>
<path fill="none" stroke="black" d="M1642.57,-73.8314C1645.85,-65.9617 1649.76,-56.5712 1653.39,-47.8533"/>
<polygon fill="black" stroke="black" points="1656.71,-48.9902 1657.33,-38.4133 1650.25,-46.2979 1656.71,-48.9902"/>
</g>
<!-- 56 -->
<g id="node57" class="node"><title>56</title>
<path fill="#f6d3ff" stroke="black" d="M1775,-38C1775,-38 1737,-38 1737,-38 1731,-38 1725,-32 1725,-26 1725,-26 1725,-12 1725,-12 1725,-6 1731,-0 1737,-0 1737,-0 1775,-0 1775,-0 1781,-0 1787,-6 1787,-12 1787,-12 1787,-26 1787,-26 1787,-32 1781,-38 1775,-38"/>
<text text-anchor="middle" x="1756" y="-22.8" font-family="Times,serif" font-size="14.00">forward</text>
<text text-anchor="middle" x="1756" y="-7.8" font-family="Times,serif" font-size="14.00">DB3/C0</text>
</g>
<!-- 28&#45;&gt;56 -->
<g id="edge56" class="edge"><title>28&#45;&gt;56</title>
<path fill="none" stroke="black" d="M1756,-74.937C1756,-66.9865 1756,-57.3134 1756,-48.3127"/>
<polygon fill="black" stroke="black" points="1759.5,-48.1991 1756,-38.1992 1752.5,-48.1992 1759.5,-48.1991"/>
</g>
<!-- 57 -->
<g id="node58" class="node"><title>57</title>
<path fill="#f6d3ff" stroke="black" d="M1896,-38C1896,-38 1858,-38 1858,-38 1852,-38 1846,-32 1846,-26 1846,-26 1846,-12 1846,-12 1846,-6 1852,-0 1858,-0 1858,-0 1896,-0 1896,-0 1902,-0 1908,-6 1908,-12 1908,-12 1908,-26 1908,-26 1908,-32 1902,-38 1896,-38"/>
<text text-anchor="middle" x="1877" y="-22.8" font-family="Times,serif" font-size="14.00">forward</text>
<text text-anchor="middle" x="1877" y="-7.8" font-family="Times,serif" font-size="14.00">DB3/C1</text>
</g>
<!-- 29&#45;&gt;57 -->
<g id="edge57" class="edge"><title>29&#45;&gt;57</title>
<path fill="none" stroke="black" d="M1877,-73.8314C1877,-66.131 1877,-56.9743 1877,-48.4166"/>
<polygon fill="black" stroke="black" points="1880.5,-48.4132 1877,-38.4133 1873.5,-48.4133 1880.5,-48.4132"/>
</g>
<!-- 58 -->
<g id="node59" class="node"><title>58</title>
<path fill="#f6d3ff" stroke="black" d="M2024,-38C2024,-38 1986,-38 1986,-38 1980,-38 1974,-32 1974,-26 1974,-26 1974,-12 1974,-12 1974,-6 1980,-0 1986,-0 1986,-0 2024,-0 2024,-0 2030,-0 2036,-6 2036,-12 2036,-12 2036,-26 2036,-26 2036,-32 2030,-38 2024,-38"/>
<text text-anchor="middle" x="2005" y="-22.8" font-family="Times,serif" font-size="14.00">forward</text>
<text text-anchor="middle" x="2005" y="-7.8" font-family="Times,serif" font-size="14.00">DB3/C2</text>
</g>
<!-- 30&#45;&gt;58 -->
<g id="edge58" class="edge"><title>30&#45;&gt;58</title>
<path fill="none" stroke="black" d="M2034.16,-73.8314C2029.8,-65.7925 2024.59,-56.1666 2019.78,-47.2918"/>
<polygon fill="black" stroke="black" points="2022.81,-45.5392 2014.97,-38.4133 2016.66,-48.8732 2022.81,-45.5392"/>
</g>
<!-- 59 -->
<g id="node60" class="node"><title>59</title>
<path fill="#debfe6" stroke="black" d="M2102,-38C2102,-38 2066,-38 2066,-38 2060,-38 2054,-32 2054,-26 2054,-26 2054,-12 2054,-12 2054,-6 2060,-0 2066,-0 2066,-0 2102,-0 2102,-0 2108,-0 2114,-6 2114,-12 2114,-12 2114,-26 2114,-26 2114,-32 2108,-38 2102,-38"/>
<text text-anchor="middle" x="2084" y="-22.8" font-family="Times,serif" font-size="14.00">merge</text>
<text text-anchor="middle" x="2084" y="-7.8" font-family="Times,serif" font-size="14.00">EB2/C2</text>
</g>
<!-- 30&#45;&gt;59 -->
<g id="edge59" class="edge"><title>30&#45;&gt;59</title>
<path fill="none" stroke="black" d="M2054.09,-73.8314C2058.56,-65.7925 2063.91,-56.1666 2068.84,-47.2918"/>
<polygon fill="black" stroke="black" points="2071.97,-48.8546 2073.77,-38.4133 2065.85,-45.4551 2071.97,-48.8546"/>
</g>
<!-- 60 -->
<g id="node61" class="node"><title>60</title>
<path fill="#f6d3ff" stroke="black" d="M2275,-38C2275,-38 2237,-38 2237,-38 2231,-38 2225,-32 2225,-26 2225,-26 2225,-12 2225,-12 2225,-6 2231,-0 2237,-0 2237,-0 2275,-0 2275,-0 2281,-0 2287,-6 2287,-12 2287,-12 2287,-26 2287,-26 2287,-32 2281,-38 2275,-38"/>
<text text-anchor="middle" x="2256" y="-22.8" font-family="Times,serif" font-size="14.00">forward</text>
<text text-anchor="middle" x="2256" y="-7.8" font-family="Times,serif" font-size="14.00">DB2/C0</text>
</g>
<!-- 31&#45;&gt;60 -->
<g id="edge60" class="edge"><title>31&#45;&gt;60</title>
<path fill="none" stroke="black" d="M2256,-73.8314C2256,-66.131 2256,-56.9743 2256,-48.4166"/>
<polygon fill="black" stroke="black" points="2259.5,-48.4132 2256,-38.4133 2252.5,-48.4133 2259.5,-48.4132"/>
</g>
<!-- 61 -->
<g id="node62" class="node"><title>61</title>
<path fill="#f6d3ff" stroke="black" d="M2441,-38C2441,-38 2403,-38 2403,-38 2397,-38 2391,-32 2391,-26 2391,-26 2391,-12 2391,-12 2391,-6 2397,-0 2403,-0 2403,-0 2441,-0 2441,-0 2447,-0 2453,-6 2453,-12 2453,-12 2453,-26 2453,-26 2453,-32 2447,-38 2441,-38"/>
<text text-anchor="middle" x="2422" y="-22.8" font-family="Times,serif" font-size="14.00">forward</text>
<text text-anchor="middle" x="2422" y="-7.8" font-family="Times,serif" font-size="14.00">DB2/C1</text>
</g>
<!-- 32&#45;&gt;61 -->
<g id="edge61" class="edge"><title>32&#45;&gt;61</title>
<path fill="none" stroke="black" d="M2422,-74.937C2422,-66.9865 2422,-57.3134 2422,-48.3127"/>
<polygon fill="black" stroke="black" points="2425.5,-48.1991 2422,-38.1992 2418.5,-48.1992 2425.5,-48.1991"/>
</g>
<!-- 62 -->
<g id="node63" class="node"><title>62</title>
<path fill="#f6d3ff" stroke="black" d="M2541,-38C2541,-38 2503,-38 2503,-38 2497,-38 2491,-32 2491,-26 2491,-26 2491,-12 2491,-12 2491,-6 2497,-0 2503,-0 2503,-0 2541,-0 2541,-0 2547,-0 2553,-6 2553,-12 2553,-12 2553,-26 2553,-26 2553,-32 2547,-38 2541,-38"/>
<text text-anchor="middle" x="2522" y="-22.8" font-family="Times,serif" font-size="14.00">forward</text>
<text text-anchor="middle" x="2522" y="-7.8" font-family="Times,serif" font-size="14.00">DB2/C2</text>
</g>
<!-- 33&#45;&gt;62 -->
<g id="edge62" class="edge"><title>33&#45;&gt;62</title>
<path fill="none" stroke="black" d="M2537.7,-73.8314C2535.43,-66.0463 2532.73,-56.7729 2530.21,-48.1347"/>
<polygon fill="black" stroke="black" points="2533.53,-47.0332 2527.37,-38.4133 2526.81,-48.9933 2533.53,-47.0332"/>
</g>
<!-- 63 -->
<g id="node64" class="node"><title>63</title>
<path fill="#debfe6" stroke="black" d="M2619,-38C2619,-38 2583,-38 2583,-38 2577,-38 2571,-32 2571,-26 2571,-26 2571,-12 2571,-12 2571,-6 2577,-0 2583,-0 2583,-0 2619,-0 2619,-0 2625,-0 2631,-6 2631,-12 2631,-12 2631,-26 2631,-26 2631,-32 2625,-38 2619,-38"/>
<text text-anchor="middle" x="2601" y="-22.8" font-family="Times,serif" font-size="14.00">merge</text>
<text text-anchor="middle" x="2601" y="-7.8" font-family="Times,serif" font-size="14.00">EB1/C2</text>
</g>
<!-- 33&#45;&gt;63 -->
<g id="edge63" class="edge"><title>33&#45;&gt;63</title>
<path fill="none" stroke="black" d="M2557.64,-73.8314C2564.32,-65.5386 2572.36,-55.557 2579.69,-46.4533"/>
<polygon fill="black" stroke="black" points="2582.62,-48.3965 2586.17,-38.4133 2577.17,-44.0052 2582.62,-48.3965"/>
</g>
<!-- 64 -->
<g id="node65" class="node"><title>64</title>
<path fill="#f6d3ff" stroke="black" d="M2727,-38C2727,-38 2689,-38 2689,-38 2683,-38 2677,-32 2677,-26 2677,-26 2677,-12 2677,-12 2677,-6 2683,-0 2689,-0 2689,-0 2727,-0 2727,-0 2733,-0 2739,-6 2739,-12 2739,-12 2739,-26 2739,-26 2739,-32 2733,-38 2727,-38"/>
<text text-anchor="middle" x="2708" y="-22.8" font-family="Times,serif" font-size="14.00">forward</text>
<text text-anchor="middle" x="2708" y="-7.8" font-family="Times,serif" font-size="14.00">DB1/C0</text>
</g>
<!-- 34&#45;&gt;64 -->
<g id="edge64" class="edge"><title>34&#45;&gt;64</title>
<path fill="none" stroke="black" d="M2708,-73.8314C2708,-66.131 2708,-56.9743 2708,-48.4166"/>
<polygon fill="black" stroke="black" points="2711.5,-48.4132 2708,-38.4133 2704.5,-48.4133 2711.5,-48.4132"/>
</g>
<!-- 65 -->
<g id="node66" class="node"><title>65</title>
<path fill="#f6d3ff" stroke="black" d="M2846,-38C2846,-38 2808,-38 2808,-38 2802,-38 2796,-32 2796,-26 2796,-26 2796,-12 2796,-12 2796,-6 2802,-0 2808,-0 2808,-0 2846,-0 2846,-0 2852,-0 2858,-6 2858,-12 2858,-12 2858,-26 2858,-26 2858,-32 2852,-38 2846,-38"/>
<text text-anchor="middle" x="2827" y="-22.8" font-family="Times,serif" font-size="14.00">forward</text>
<text text-anchor="middle" x="2827" y="-7.8" font-family="Times,serif" font-size="14.00">DB1/C1</text>
</g>
<!-- 35&#45;&gt;65 -->
<g id="edge65" class="edge"><title>35&#45;&gt;65</title>
<path fill="none" stroke="black" d="M2827,-74.937C2827,-66.9865 2827,-57.3134 2827,-48.3127"/>
<polygon fill="black" stroke="black" points="2830.5,-48.1991 2827,-38.1992 2823.5,-48.1992 2830.5,-48.1991"/>
</g>
<!-- 66 -->
<g id="node67" class="node"><title>66</title>
<path fill="#f6d3ff" stroke="black" d="M2945,-38C2945,-38 2907,-38 2907,-38 2901,-38 2895,-32 2895,-26 2895,-26 2895,-12 2895,-12 2895,-6 2901,-0 2907,-0 2907,-0 2945,-0 2945,-0 2951,-0 2957,-6 2957,-12 2957,-12 2957,-26 2957,-26 2957,-32 2951,-38 2945,-38"/>
<text text-anchor="middle" x="2926" y="-22.8" font-family="Times,serif" font-size="14.00">forward</text>
<text text-anchor="middle" x="2926" y="-7.8" font-family="Times,serif" font-size="14.00">DB1/C2</text>
</g>
<!-- 36&#45;&gt;66 -->
<g id="edge66" class="edge"><title>36&#45;&gt;66</title>
<path fill="none" stroke="black" d="M2955.16,-73.8314C2950.8,-65.7925 2945.59,-56.1666 2940.78,-47.2918"/>
<polygon fill="black" stroke="black" points="2943.81,-45.5392 2935.97,-38.4133 2937.66,-48.8732 2943.81,-45.5392"/>
</g>
<!-- 67 -->
<g id="node68" class="node"><title>67</title>
<path fill="#debfe6" stroke="black" d="M3023,-38C3023,-38 2987,-38 2987,-38 2981,-38 2975,-32 2975,-26 2975,-26 2975,-12 2975,-12 2975,-6 2981,-0 2987,-0 2987,-0 3023,-0 3023,-0 3029,-0 3035,-6 3035,-12 3035,-12 3035,-26 3035,-26 3035,-32 3029,-38 3023,-38"/>
<text text-anchor="middle" x="3005" y="-22.8" font-family="Times,serif" font-size="14.00">merge</text>
<text text-anchor="middle" x="3005" y="-7.8" font-family="Times,serif" font-size="14.00">EB0/C2</text>
</g>
<!-- 36&#45;&gt;67 -->
<g id="edge67" class="edge"><title>36&#45;&gt;67</title>
<path fill="none" stroke="black" d="M2975.09,-73.8314C2979.56,-65.7925 2984.91,-56.1666 2989.84,-47.2918"/>
<polygon fill="black" stroke="black" points="2992.97,-48.8546 2994.77,-38.4133 2986.85,-45.4551 2992.97,-48.8546"/>
</g>
<!-- 68 -->
<g id="node69" class="node"><title>68</title>
<path fill="#f6d3ff" stroke="black" d="M3122,-38C3122,-38 3084,-38 3084,-38 3078,-38 3072,-32 3072,-26 3072,-26 3072,-12 3072,-12 3072,-6 3078,-0 3084,-0 3084,-0 3122,-0 3122,-0 3128,-0 3134,-6 3134,-12 3134,-12 3134,-26 3134,-26 3134,-32 3128,-38 3122,-38"/>
<text text-anchor="middle" x="3103" y="-22.8" font-family="Times,serif" font-size="14.00">forward</text>
<text text-anchor="middle" x="3103" y="-7.8" font-family="Times,serif" font-size="14.00">DB0/C0</text>
</g>
<!-- 37&#45;&gt;68 -->
<g id="edge68" class="edge"><title>37&#45;&gt;68</title>
<path fill="none" stroke="black" d="M3103,-74.937C3103,-66.9865 3103,-57.3134 3103,-48.3127"/>
<polygon fill="black" stroke="black" points="3106.5,-48.1991 3103,-38.1992 3099.5,-48.1992 3106.5,-48.1991"/>
</g>
<!-- 69 -->
<g id="node70" class="node"><title>69</title>
<path fill="#f6d3ff" stroke="black" d="M3241,-38C3241,-38 3203,-38 3203,-38 3197,-38 3191,-32 3191,-26 3191,-26 3191,-12 3191,-12 3191,-6 3197,-0 3203,-0 3203,-0 3241,-0 3241,-0 3247,-0 3253,-6 3253,-12 3253,-12 3253,-26 3253,-26 3253,-32 3247,-38 3241,-38"/>
<text text-anchor="middle" x="3222" y="-22.8" font-family="Times,serif" font-size="14.00">forward</text>
<text text-anchor="middle" x="3222" y="-7.8" font-family="Times,serif" font-size="14.00">DB0/C1</text>
</g>
<!-- 38&#45;&gt;69 -->
<g id="edge69" class="edge"><title>38&#45;&gt;69</title>
<path fill="none" stroke="black" d="M3222,-73.8314C3222,-66.131 3222,-56.9743 3222,-48.4166"/>
<polygon fill="black" stroke="black" points="3225.5,-48.4132 3222,-38.4133 3218.5,-48.4133 3225.5,-48.4132"/>
</g>
</g>
</svg>
