<?xml version="1.0" encoding="UTF-8" standalone="no"?>
<!DOCTYPE svg PUBLIC "-//W3C//DTD SVG 1.1//EN"
 "http://www.w3.org/Graphics/SVG/1.1/DTD/svg11.dtd">
<!-- Generated by graphviz version 2.38.0 (20140413.2041)
 -->
<!-- Title: %3 Pages: 1 -->
<svg width="2699pt" height="418pt"
 viewBox="0.00 0.00 2699.00 418.00" xmlns="http://www.w3.org/2000/svg" xmlns:xlink="http://www.w3.org/1999/xlink">
<g id="graph0" class="graph" transform="scale(1 1) rotate(0) translate(4 414)">
<title>%3</title>
<polygon fill="none" stroke="none" points="-4,4 -4,-414 2695,-414 2695,4 -4,4"/>
<!-- 0 -->
<g id="node1" class="node"><title>0</title>
<path fill="#ffd3d3" stroke="black" d="M1850,-410C1850,-410 1659,-410 1659,-410 1653,-410 1647,-404 1647,-398 1647,-398 1647,-369 1647,-369 1647,-363 1653,-357 1659,-357 1659,-357 1850,-357 1850,-357 1856,-357 1862,-363 1862,-369 1862,-369 1862,-398 1862,-398 1862,-404 1856,-410 1850,-410"/>
<text text-anchor="middle" x="1754.5" y="-394.8" font-family="Times,serif" font-size="14.00">net</text>
<text text-anchor="middle" x="1754.5" y="-379.8" font-family="Times,serif" font-size="14.00">k width: 3 &#160;&#160;log gamma2: &#45;6.418639</text>
<text text-anchor="middle" x="1754.5" y="-364.8" font-family="Times,serif" font-size="14.00">n kernels: 63</text>
</g>
<!-- 1 -->
<g id="node2" class="node"><title>1</title>
<path fill="#e9ffd3" stroke="black" d="M830,-312.5C830,-312.5 767,-312.5 767,-312.5 761,-312.5 755,-306.5 755,-300.5 755,-300.5 755,-288.5 755,-288.5 755,-282.5 761,-276.5 767,-276.5 767,-276.5 830,-276.5 830,-276.5 836,-276.5 842,-282.5 842,-288.5 842,-288.5 842,-300.5 842,-300.5 842,-306.5 836,-312.5 830,-312.5"/>
<text text-anchor="middle" x="798.5" y="-290.8" font-family="Times,serif" font-size="14.00">conv block 0</text>
</g>
<!-- 0&#45;&gt;1 -->
<g id="edge1" class="edge"><title>0&#45;&gt;1</title>
<path fill="none" stroke="black" d="M1646.69,-372.689C1442.15,-354.075 1004.58,-314.254 852.172,-300.384"/>
<polygon fill="black" stroke="black" points="852.4,-296.891 842.124,-299.47 851.766,-303.862 852.4,-296.891"/>
</g>
<!-- 2 -->
<g id="node3" class="node"><title>2</title>
<path fill="#e9ffd3" stroke="black" d="M1815.5,-321C1815.5,-321 1693.5,-321 1693.5,-321 1687.5,-321 1681.5,-315 1681.5,-309 1681.5,-309 1681.5,-280 1681.5,-280 1681.5,-274 1687.5,-268 1693.5,-268 1693.5,-268 1815.5,-268 1815.5,-268 1821.5,-268 1827.5,-274 1827.5,-280 1827.5,-280 1827.5,-309 1827.5,-309 1827.5,-315 1821.5,-321 1815.5,-321"/>
<text text-anchor="middle" x="1754.5" y="-305.8" font-family="Times,serif" font-size="14.00">conv block 1</text>
<text text-anchor="middle" x="1754.5" y="-290.8" font-family="Times,serif" font-size="14.00">n kernels: 63 &#160;&#160;pool z: 1</text>
<text text-anchor="middle" x="1754.5" y="-275.8" font-family="Times,serif" font-size="14.00">spatial scale: 1</text>
</g>
<!-- 0&#45;&gt;2 -->
<g id="edge2" class="edge"><title>0&#45;&gt;2</title>
<path fill="none" stroke="black" d="M1754.5,-356.868C1754.5,-348.886 1754.5,-339.932 1754.5,-331.384"/>
<polygon fill="black" stroke="black" points="1758,-331.25 1754.5,-321.25 1751,-331.25 1758,-331.25"/>
</g>
<!-- 3 -->
<g id="node4" class="node"><title>3</title>
<path fill="#e9ffd3" stroke="black" d="M2249,-312.5C2249,-312.5 2182,-312.5 2182,-312.5 2176,-312.5 2170,-306.5 2170,-300.5 2170,-300.5 2170,-288.5 2170,-288.5 2170,-282.5 2176,-276.5 2182,-276.5 2182,-276.5 2249,-276.5 2249,-276.5 2255,-276.5 2261,-282.5 2261,-288.5 2261,-288.5 2261,-300.5 2261,-300.5 2261,-306.5 2255,-312.5 2249,-312.5"/>
<text text-anchor="middle" x="2215.5" y="-290.8" font-family="Times,serif" font-size="14.00">path combine</text>
</g>
<!-- 0&#45;&gt;3 -->
<g id="edge3" class="edge"><title>0&#45;&gt;3</title>
<path fill="none" stroke="black" d="M1862,-362.212C1955.26,-344.613 2086.5,-319.844 2160.02,-305.971"/>
<polygon fill="black" stroke="black" points="2160.82,-309.381 2170,-304.087 2159.52,-302.503 2160.82,-309.381"/>
</g>
<!-- 4 -->
<g id="node5" class="node"><title>4</title>
<path fill="#d3ffff" stroke="black" d="M301.5,-201C301.5,-201 267.5,-201 267.5,-201 261.5,-201 255.5,-195 255.5,-189 255.5,-189 255.5,-177 255.5,-177 255.5,-171 261.5,-165 267.5,-165 267.5,-165 301.5,-165 301.5,-165 307.5,-165 313.5,-171 313.5,-177 313.5,-177 313.5,-189 313.5,-189 313.5,-195 307.5,-201 301.5,-201"/>
<text text-anchor="middle" x="284.5" y="-179.3" font-family="Times,serif" font-size="14.00">comp 0</text>
</g>
<!-- 1&#45;&gt;4 -->
<g id="edge4" class="edge"><title>1&#45;&gt;4</title>
<path fill="none" stroke="black" d="M754.779,-287.095C689.169,-277.164 561.517,-256.612 454.5,-232 409.072,-221.552 357.66,-206.59 323.384,-196.157"/>
<polygon fill="black" stroke="black" points="324.343,-192.79 313.757,-193.209 322.293,-199.484 324.343,-192.79"/>
</g>
<!-- 5 -->
<g id="node6" class="node"><title>5</title>
<path fill="#bfe6e6" stroke="black" d="M595.5,-202C595.5,-202 475.5,-202 475.5,-202 469.5,-202 463.5,-196 463.5,-190 463.5,-190 463.5,-176 463.5,-176 463.5,-170 469.5,-164 475.5,-164 475.5,-164 595.5,-164 595.5,-164 601.5,-164 607.5,-170 607.5,-176 607.5,-176 607.5,-190 607.5,-190 607.5,-196 601.5,-202 595.5,-202"/>
<text text-anchor="middle" x="535.5" y="-186.8" font-family="Times,serif" font-size="14.00">comp 1</text>
<text text-anchor="middle" x="535.5" y="-171.8" font-family="Times,serif" font-size="14.00">log gamma2: 1.183567</text>
</g>
<!-- 1&#45;&gt;5 -->
<g id="edge5" class="edge"><title>1&#45;&gt;5</title>
<path fill="none" stroke="black" d="M757.406,-276.391C711.803,-257.404 638.085,-226.711 588.253,-205.964"/>
<polygon fill="black" stroke="black" points="589.506,-202.694 578.929,-202.082 586.816,-209.157 589.506,-202.694"/>
</g>
<!-- 6 -->
<g id="node7" class="node"><title>6</title>
<path fill="#abcece" stroke="black" d="M898.5,-202C898.5,-202 698.5,-202 698.5,-202 692.5,-202 686.5,-196 686.5,-190 686.5,-190 686.5,-176 686.5,-176 686.5,-170 692.5,-164 698.5,-164 698.5,-164 898.5,-164 898.5,-164 904.5,-164 910.5,-170 910.5,-176 910.5,-176 910.5,-190 910.5,-190 910.5,-196 904.5,-202 898.5,-202"/>
<text text-anchor="middle" x="798.5" y="-186.8" font-family="Times,serif" font-size="14.00">comp 2</text>
<text text-anchor="middle" x="798.5" y="-171.8" font-family="Times,serif" font-size="14.00">log gamma2: &#45;1.442084 &#160;&#160;n kernels: 4</text>
</g>
<!-- 1&#45;&gt;6 -->
<g id="edge6" class="edge"><title>1&#45;&gt;6</title>
<path fill="none" stroke="black" d="M798.5,-276.391C798.5,-259.259 798.5,-232.598 798.5,-212.31"/>
<polygon fill="black" stroke="black" points="802,-212.082 798.5,-202.082 795,-212.082 802,-212.082"/>
</g>
<!-- 7 -->
<g id="node8" class="node"><title>7</title>
<path fill="#97b6b6" stroke="black" d="M1178,-202C1178,-202 983,-202 983,-202 977,-202 971,-196 971,-190 971,-190 971,-176 971,-176 971,-170 977,-164 983,-164 983,-164 1178,-164 1178,-164 1184,-164 1190,-170 1190,-176 1190,-176 1190,-190 1190,-190 1190,-196 1184,-202 1178,-202"/>
<text text-anchor="middle" x="1080.5" y="-186.8" font-family="Times,serif" font-size="14.00">comp 3</text>
<text text-anchor="middle" x="1080.5" y="-171.8" font-family="Times,serif" font-size="14.00">log gamma2: 1.326463 &#160;&#160;n kernels: 3</text>
</g>
<!-- 1&#45;&gt;7 -->
<g id="edge7" class="edge"><title>1&#45;&gt;7</title>
<path fill="none" stroke="black" d="M842.253,-276.511C891.289,-257.47 970.921,-226.549 1024.47,-205.755"/>
<polygon fill="black" stroke="black" points="1025.77,-209.006 1033.82,-202.124 1023.24,-202.481 1025.77,-209.006"/>
</g>
<!-- 8 -->
<g id="node9" class="node"><title>8</title>
<path fill="#d3ffff" stroke="black" d="M1589,-202C1589,-202 1326,-202 1326,-202 1320,-202 1314,-196 1314,-190 1314,-190 1314,-176 1314,-176 1314,-170 1320,-164 1326,-164 1326,-164 1589,-164 1589,-164 1595,-164 1601,-170 1601,-176 1601,-176 1601,-190 1601,-190 1601,-196 1595,-202 1589,-202"/>
<text text-anchor="middle" x="1457.5" y="-186.8" font-family="Times,serif" font-size="14.00">comp 0</text>
<text text-anchor="middle" x="1457.5" y="-171.8" font-family="Times,serif" font-size="14.00">log gamma1: 0.036038 &#160;&#160;log gamma2: &#45;1.822766</text>
</g>
<!-- 2&#45;&gt;8 -->
<g id="edge8" class="edge"><title>2&#45;&gt;8</title>
<path fill="none" stroke="black" d="M1685.24,-267.965C1633.82,-249.006 1564.47,-223.438 1515.85,-205.514"/>
<polygon fill="black" stroke="black" points="1517.01,-202.211 1506.42,-202.036 1514.59,-208.779 1517.01,-202.211"/>
</g>
<!-- 9 -->
<g id="node10" class="node"><title>9</title>
<path fill="#bfe6e6" stroke="black" d="M1852,-202C1852,-202 1657,-202 1657,-202 1651,-202 1645,-196 1645,-190 1645,-190 1645,-176 1645,-176 1645,-170 1651,-164 1657,-164 1657,-164 1852,-164 1852,-164 1858,-164 1864,-170 1864,-176 1864,-176 1864,-190 1864,-190 1864,-196 1858,-202 1852,-202"/>
<text text-anchor="middle" x="1754.5" y="-186.8" font-family="Times,serif" font-size="14.00">comp 1</text>
<text text-anchor="middle" x="1754.5" y="-171.8" font-family="Times,serif" font-size="14.00">log gamma1: 1.468775 &#160;&#160;n kernels: 2</text>
</g>
<!-- 2&#45;&gt;9 -->
<g id="edge9" class="edge"><title>2&#45;&gt;9</title>
<path fill="none" stroke="black" d="M1754.5,-267.827C1754.5,-251.18 1754.5,-229.482 1754.5,-212.332"/>
<polygon fill="black" stroke="black" points="1758,-212.327 1754.5,-202.327 1751,-212.327 1758,-212.327"/>
</g>
<!-- 10 -->
<g id="node11" class="node"><title>10</title>
<path fill="#abcece" stroke="black" d="M2033,-202C2033,-202 1894,-202 1894,-202 1888,-202 1882,-196 1882,-190 1882,-190 1882,-176 1882,-176 1882,-170 1888,-164 1894,-164 1894,-164 2033,-164 2033,-164 2039,-164 2045,-170 2045,-176 2045,-176 2045,-190 2045,-190 2045,-196 2039,-202 2033,-202"/>
<text text-anchor="middle" x="1963.5" y="-186.8" font-family="Times,serif" font-size="14.00">path end 1</text>
<text text-anchor="middle" x="1963.5" y="-171.8" font-family="Times,serif" font-size="14.00">k width: &#45;2 &#160;&#160;n kernels: &#45;63</text>
</g>
<!-- 2&#45;&gt;10 -->
<g id="edge10" class="edge"><title>2&#45;&gt;10</title>
<path fill="none" stroke="black" d="M1803.61,-267.971C1824.82,-256.933 1849.89,-243.854 1872.5,-232 1888.09,-223.826 1905.16,-214.832 1920.26,-206.861"/>
<polygon fill="black" stroke="black" points="1922.17,-209.811 1929.38,-202.047 1918.91,-203.621 1922.17,-209.811"/>
</g>
<!-- 11 -->
<g id="node12" class="node"><title>11</title>
<path fill="#d3ffff" stroke="black" d="M2356,-232C2356,-232 2075,-232 2075,-232 2069,-232 2063,-226 2063,-220 2063,-220 2063,-146 2063,-146 2063,-140 2069,-134 2075,-134 2075,-134 2356,-134 2356,-134 2362,-134 2368,-140 2368,-146 2368,-146 2368,-220 2368,-220 2368,-226 2362,-232 2356,-232"/>
<text text-anchor="middle" x="2215.5" y="-216.8" font-family="Times,serif" font-size="14.00">forward</text>
<text text-anchor="middle" x="2215.5" y="-201.8" font-family="Times,serif" font-size="14.00">CB0/C3</text>
<text text-anchor="middle" x="2215.5" y="-186.8" font-family="Times,serif" font-size="14.00">dilation rate: 1 &#160;&#160;k width: 3</text>
<text text-anchor="middle" x="2215.5" y="-171.8" font-family="Times,serif" font-size="14.00">log gamma1: &#45;11.000000 &#160;&#160;log gamma2: &#45;11.000000</text>
<text text-anchor="middle" x="2215.5" y="-156.8" font-family="Times,serif" font-size="14.00">log lambda1: &#45;11.000000 &#160;&#160;log lambda2: &#45;11.000000</text>
<text text-anchor="middle" x="2215.5" y="-141.8" font-family="Times,serif" font-size="14.00">n kernels: 64</text>
</g>
<!-- 3&#45;&gt;11 -->
<g id="edge11" class="edge"><title>3&#45;&gt;11</title>
<path fill="none" stroke="black" d="M2215.5,-276.391C2215.5,-266.993 2215.5,-254.728 2215.5,-242.22"/>
<polygon fill="black" stroke="black" points="2219,-242.188 2215.5,-232.188 2212,-242.188 2219,-242.188"/>
</g>
<!-- 12 -->
<g id="node13" class="node"><title>12</title>
<path fill="#bfe6e6" stroke="black" d="M2679,-232C2679,-232 2398,-232 2398,-232 2392,-232 2386,-226 2386,-220 2386,-220 2386,-146 2386,-146 2386,-140 2392,-134 2398,-134 2398,-134 2679,-134 2679,-134 2685,-134 2691,-140 2691,-146 2691,-146 2691,-220 2691,-220 2691,-226 2685,-232 2679,-232"/>
<text text-anchor="middle" x="2538.5" y="-216.8" font-family="Times,serif" font-size="14.00">residual 1</text>
<text text-anchor="middle" x="2538.5" y="-201.8" font-family="Times,serif" font-size="14.00">CB1/PE1</text>
<text text-anchor="middle" x="2538.5" y="-186.8" font-family="Times,serif" font-size="14.00">dilation rate: 1 &#160;&#160;k width: 3</text>
<text text-anchor="middle" x="2538.5" y="-171.8" font-family="Times,serif" font-size="14.00">log gamma1: &#45;11.000000 &#160;&#160;log gamma2: &#45;11.000000</text>
<text text-anchor="middle" x="2538.5" y="-156.8" font-family="Times,serif" font-size="14.00">log lambda1: &#45;11.000000 &#160;&#160;log lambda2: &#45;11.000000</text>
<text text-anchor="middle" x="2538.5" y="-141.8" font-family="Times,serif" font-size="14.00">n kernels: 64</text>
</g>
<!-- 3&#45;&gt;12 -->
<g id="edge12" class="edge"><title>3&#45;&gt;12</title>
<path fill="none" stroke="black" d="M2261.09,-278.044C2294.21,-266.816 2341.08,-250.928 2386.88,-235.402"/>
<polygon fill="black" stroke="black" points="2388.28,-238.621 2396.63,-232.096 2386.03,-231.991 2388.28,-238.621"/>
</g>
<!-- 13 -->
<g id="node14" class="node"><title>13</title>
<path fill="#e9d3ff" stroke="black" d="M293,-98C293,-98 12,-98 12,-98 6,-98 0,-92 0,-86 0,-86 0,-12 0,-12 0,-6 6,-0 12,-0 12,-0 293,-0 293,-0 299,-0 305,-6 305,-12 305,-12 305,-86 305,-86 305,-92 299,-98 293,-98"/>
<text text-anchor="middle" x="152.5" y="-82.8" font-family="Times,serif" font-size="14.00">forward</text>
<text text-anchor="middle" x="152.5" y="-67.8" font-family="Times,serif" font-size="14.00">input</text>
<text text-anchor="middle" x="152.5" y="-52.8" font-family="Times,serif" font-size="14.00">dilation rate: 1 &#160;&#160;k width: 3</text>
<text text-anchor="middle" x="152.5" y="-37.8" font-family="Times,serif" font-size="14.00">log gamma1: &#45;11.000000 &#160;&#160;log gamma2: &#45;11.000000</text>
<text text-anchor="middle" x="152.5" y="-22.8" font-family="Times,serif" font-size="14.00">log lambda1: &#45;11.000000 &#160;&#160;log lambda2: &#45;11.000000</text>
<text text-anchor="middle" x="152.5" y="-7.8" font-family="Times,serif" font-size="14.00">n kernels: 64</text>
</g>
<!-- 4&#45;&gt;13 -->
<g id="edge13" class="edge"><title>4&#45;&gt;13</title>
<path fill="none" stroke="black" d="M267.243,-164.743C252.112,-149.612 229.258,-126.758 207.919,-105.419"/>
<polygon fill="black" stroke="black" points="210.299,-102.85 200.753,-98.2533 205.35,-107.799 210.299,-102.85"/>
</g>
<!-- 14 -->
<g id="node15" class="node"><title>14</title>
<path fill="#e9d3ff" stroke="black" d="M616,-98C616,-98 335,-98 335,-98 329,-98 323,-92 323,-86 323,-86 323,-12 323,-12 323,-6 329,-0 335,-0 335,-0 616,-0 616,-0 622,-0 628,-6 628,-12 628,-12 628,-86 628,-86 628,-92 622,-98 616,-98"/>
<text text-anchor="middle" x="475.5" y="-82.8" font-family="Times,serif" font-size="14.00">forward</text>
<text text-anchor="middle" x="475.5" y="-67.8" font-family="Times,serif" font-size="14.00">CB0/C0</text>
<text text-anchor="middle" x="475.5" y="-52.8" font-family="Times,serif" font-size="14.00">dilation rate: 1 &#160;&#160;k width: 3</text>
<text text-anchor="middle" x="475.5" y="-37.8" font-family="Times,serif" font-size="14.00">log gamma1: &#45;11.000000 &#160;&#160;log gamma2: &#45;11.000000</text>
<text text-anchor="middle" x="475.5" y="-22.8" font-family="Times,serif" font-size="14.00">log lambda1: &#45;11.000000 &#160;&#160;log lambda2: &#45;11.000000</text>
<text text-anchor="middle" x="475.5" y="-7.8" font-family="Times,serif" font-size="14.00">n kernels: 64</text>
</g>
<!-- 5&#45;&gt;14 -->
<g id="edge14" class="edge"><title>5&#45;&gt;14</title>
<path fill="none" stroke="black" d="M527.283,-163.923C520.631,-149.289 510.879,-127.835 501.627,-107.48"/>
<polygon fill="black" stroke="black" points="504.749,-105.889 497.424,-98.2336 498.376,-108.786 504.749,-105.889"/>
</g>
<!-- 15 -->
<g id="node16" class="node"><title>15</title>
<path fill="#e9d3ff" stroke="black" d="M939,-98C939,-98 658,-98 658,-98 652,-98 646,-92 646,-86 646,-86 646,-12 646,-12 646,-6 652,-0 658,-0 658,-0 939,-0 939,-0 945,-0 951,-6 951,-12 951,-12 951,-86 951,-86 951,-92 945,-98 939,-98"/>
<text text-anchor="middle" x="798.5" y="-82.8" font-family="Times,serif" font-size="14.00">forward</text>
<text text-anchor="middle" x="798.5" y="-67.8" font-family="Times,serif" font-size="14.00">CB0/C1</text>
<text text-anchor="middle" x="798.5" y="-52.8" font-family="Times,serif" font-size="14.00">dilation rate: 1 &#160;&#160;k width: 3</text>
<text text-anchor="middle" x="798.5" y="-37.8" font-family="Times,serif" font-size="14.00">log gamma1: &#45;11.000000 &#160;&#160;log gamma2: &#45;11.000000</text>
<text text-anchor="middle" x="798.5" y="-22.8" font-family="Times,serif" font-size="14.00">log lambda1: &#45;11.000000 &#160;&#160;log lambda2: &#45;11.000000</text>
<text text-anchor="middle" x="798.5" y="-7.8" font-family="Times,serif" font-size="14.00">n kernels: 64</text>
</g>
<!-- 6&#45;&gt;15 -->
<g id="edge15" class="edge"><title>6&#45;&gt;15</title>
<path fill="none" stroke="black" d="M798.5,-163.923C798.5,-149.486 798.5,-128.413 798.5,-108.306"/>
<polygon fill="black" stroke="black" points="802,-108.234 798.5,-98.2336 795,-108.234 802,-108.234"/>
</g>
<!-- 16 -->
<g id="node17" class="node"><title>16</title>
<path fill="#e9d3ff" stroke="black" d="M1262,-98C1262,-98 981,-98 981,-98 975,-98 969,-92 969,-86 969,-86 969,-12 969,-12 969,-6 975,-0 981,-0 981,-0 1262,-0 1262,-0 1268,-0 1274,-6 1274,-12 1274,-12 1274,-86 1274,-86 1274,-92 1268,-98 1262,-98"/>
<text text-anchor="middle" x="1121.5" y="-82.8" font-family="Times,serif" font-size="14.00">forward</text>
<text text-anchor="middle" x="1121.5" y="-67.8" font-family="Times,serif" font-size="14.00">CB0/C2</text>
<text text-anchor="middle" x="1121.5" y="-52.8" font-family="Times,serif" font-size="14.00">dilation rate: 1 &#160;&#160;k width: 3</text>
<text text-anchor="middle" x="1121.5" y="-37.8" font-family="Times,serif" font-size="14.00">log gamma1: &#45;11.000000 &#160;&#160;log gamma2: &#45;11.000000</text>
<text text-anchor="middle" x="1121.5" y="-22.8" font-family="Times,serif" font-size="14.00">log lambda1: &#45;11.000000 &#160;&#160;log lambda2: &#45;11.000000</text>
<text text-anchor="middle" x="1121.5" y="-7.8" font-family="Times,serif" font-size="14.00">n kernels: 64</text>
</g>
<!-- 7&#45;&gt;16 -->
<g id="edge16" class="edge"><title>7&#45;&gt;16</title>
<path fill="none" stroke="black" d="M1086.11,-163.923C1090.62,-149.42 1097.2,-128.221 1103.48,-108.03"/>
<polygon fill="black" stroke="black" points="1106.89,-108.822 1106.52,-98.2336 1100.21,-106.745 1106.89,-108.822"/>
</g>
<!-- 17 -->
<g id="node18" class="node"><title>17</title>
<path fill="#e9d3ff" stroke="black" d="M1585,-98C1585,-98 1304,-98 1304,-98 1298,-98 1292,-92 1292,-86 1292,-86 1292,-12 1292,-12 1292,-6 1298,-0 1304,-0 1304,-0 1585,-0 1585,-0 1591,-0 1597,-6 1597,-12 1597,-12 1597,-86 1597,-86 1597,-92 1591,-98 1585,-98"/>
<text text-anchor="middle" x="1444.5" y="-82.8" font-family="Times,serif" font-size="14.00">forward</text>
<text text-anchor="middle" x="1444.5" y="-67.8" font-family="Times,serif" font-size="14.00">input</text>
<text text-anchor="middle" x="1444.5" y="-52.8" font-family="Times,serif" font-size="14.00">dilation rate: 1 &#160;&#160;k width: 3</text>
<text text-anchor="middle" x="1444.5" y="-37.8" font-family="Times,serif" font-size="14.00">log gamma1: &#45;11.000000 &#160;&#160;log gamma2: &#45;11.000000</text>
<text text-anchor="middle" x="1444.5" y="-22.8" font-family="Times,serif" font-size="14.00">log lambda1: &#45;11.000000 &#160;&#160;log lambda2: &#45;11.000000</text>
<text text-anchor="middle" x="1444.5" y="-7.8" font-family="Times,serif" font-size="14.00">n kernels: 64</text>
</g>
<!-- 8&#45;&gt;17 -->
<g id="edge17" class="edge"><title>8&#45;&gt;17</title>
<path fill="none" stroke="black" d="M1455.72,-163.923C1454.3,-149.486 1452.22,-128.413 1450.24,-108.306"/>
<polygon fill="black" stroke="black" points="1453.71,-107.842 1449.25,-98.2336 1446.75,-108.529 1453.71,-107.842"/>
</g>
<!-- 18 -->
<g id="node19" class="node"><title>18</title>
<path fill="#e9d3ff" stroke="black" d="M1908,-98C1908,-98 1627,-98 1627,-98 1621,-98 1615,-92 1615,-86 1615,-86 1615,-12 1615,-12 1615,-6 1621,-0 1627,-0 1627,-0 1908,-0 1908,-0 1914,-0 1920,-6 1920,-12 1920,-12 1920,-86 1920,-86 1920,-92 1914,-98 1908,-98"/>
<text text-anchor="middle" x="1767.5" y="-82.8" font-family="Times,serif" font-size="14.00">forward</text>
<text text-anchor="middle" x="1767.5" y="-67.8" font-family="Times,serif" font-size="14.00">CB1/C0</text>
<text text-anchor="middle" x="1767.5" y="-52.8" font-family="Times,serif" font-size="14.00">dilation rate: 1 &#160;&#160;k width: 3</text>
<text text-anchor="middle" x="1767.5" y="-37.8" font-family="Times,serif" font-size="14.00">log gamma1: &#45;11.000000 &#160;&#160;log gamma2: &#45;11.000000</text>
<text text-anchor="middle" x="1767.5" y="-22.8" font-family="Times,serif" font-size="14.00">log lambda1: &#45;11.000000 &#160;&#160;log lambda2: &#45;11.000000</text>
<text text-anchor="middle" x="1767.5" y="-7.8" font-family="Times,serif" font-size="14.00">n kernels: 64</text>
</g>
<!-- 9&#45;&gt;18 -->
<g id="edge18" class="edge"><title>9&#45;&gt;18</title>
<path fill="none" stroke="black" d="M1756.28,-163.923C1757.7,-149.486 1759.78,-128.413 1761.76,-108.306"/>
<polygon fill="black" stroke="black" points="1765.25,-108.529 1762.75,-98.2336 1758.29,-107.842 1765.25,-108.529"/>
</g>
<!-- 19 -->
<g id="node20" class="node"><title>19</title>
<path fill="#e9d3ff" stroke="black" d="M2231,-98C2231,-98 1950,-98 1950,-98 1944,-98 1938,-92 1938,-86 1938,-86 1938,-12 1938,-12 1938,-6 1944,-0 1950,-0 1950,-0 2231,-0 2231,-0 2237,-0 2243,-6 2243,-12 2243,-12 2243,-86 2243,-86 2243,-92 2237,-98 2231,-98"/>
<text text-anchor="middle" x="2090.5" y="-82.8" font-family="Times,serif" font-size="14.00">forward</text>
<text text-anchor="middle" x="2090.5" y="-67.8" font-family="Times,serif" font-size="14.00">CB1/C1</text>
<text text-anchor="middle" x="2090.5" y="-52.8" font-family="Times,serif" font-size="14.00">dilation rate: 1 &#160;&#160;k width: 3</text>
<text text-anchor="middle" x="2090.5" y="-37.8" font-family="Times,serif" font-size="14.00">log gamma1: &#45;11.000000 &#160;&#160;log gamma2: &#45;11.000000</text>
<text text-anchor="middle" x="2090.5" y="-22.8" font-family="Times,serif" font-size="14.00">log lambda1: &#45;11.000000 &#160;&#160;log lambda2: &#45;11.000000</text>
<text text-anchor="middle" x="2090.5" y="-7.8" font-family="Times,serif" font-size="14.00">n kernels: 64</text>
</g>
<!-- 10&#45;&gt;19 -->
<g id="edge19" class="edge"><title>10&#45;&gt;19</title>
<path fill="none" stroke="black" d="M1980.89,-163.923C1995.42,-148.827 2016.92,-126.475 2037.05,-105.558"/>
<polygon fill="black" stroke="black" points="2039.68,-107.867 2044.09,-98.2336 2034.64,-103.013 2039.68,-107.867"/>
</g>
</g>
</svg>
