<?xml version="1.0" encoding="UTF-8" standalone="no"?>
<!DOCTYPE svg PUBLIC "-//W3C//DTD SVG 1.1//EN"
 "http://www.w3.org/Graphics/SVG/1.1/DTD/svg11.dtd">
<!-- Generated by graphviz version 2.38.0 (20140413.2041)
 -->
<!-- Title: %3 Pages: 1 -->
<svg width="875pt" height="387pt"
 viewBox="0.00 0.00 875.00 387.00" xmlns="http://www.w3.org/2000/svg" xmlns:xlink="http://www.w3.org/1999/xlink">
<g id="graph0" class="graph" transform="scale(1 1) rotate(0) translate(4 383)">
<title>%3</title>
<polygon fill="none" stroke="none" points="-4,4 -4,-383 871,-383 871,4 -4,4"/>
<!-- 0 -->
<g id="node1" class="node"><title>0</title>
<path fill="#ffd3d3" stroke="black" d="M338.5,-379C338.5,-379 268.5,-379 268.5,-379 262.5,-379 256.5,-373 256.5,-367 256.5,-367 256.5,-353 256.5,-353 256.5,-347 262.5,-341 268.5,-341 268.5,-341 338.5,-341 338.5,-341 344.5,-341 350.5,-347 350.5,-353 350.5,-353 350.5,-367 350.5,-367 350.5,-373 344.5,-379 338.5,-379"/>
<text text-anchor="middle" x="303.5" y="-363.8" font-family="Times,serif" font-size="14.00">net</text>
<text text-anchor="middle" x="303.5" y="-348.8" font-family="Times,serif" font-size="14.00">n kernels: 212</text>
</g>
<!-- 1 -->
<g id="node2" class="node"><title>1</title>
<path fill="#f6ffd3" stroke="black" d="M293,-305C293,-305 34,-305 34,-305 28,-305 22,-299 22,-293 22,-293 22,-264 22,-264 22,-258 28,-252 34,-252 34,-252 293,-252 293,-252 299,-252 305,-258 305,-264 305,-264 305,-293 305,-293 305,-299 299,-305 293,-305"/>
<text text-anchor="middle" x="163.5" y="-289.8" font-family="Times,serif" font-size="14.00">encoder</text>
<text text-anchor="middle" x="163.5" y="-274.8" font-family="Times,serif" font-size="14.00">log gamma1: 0.194032 &#160;&#160;log gamma2: 0.429528</text>
<text text-anchor="middle" x="163.5" y="-259.8" font-family="Times,serif" font-size="14.00">pooling type: 1</text>
</g>
<!-- 0&#45;&gt;1 -->
<g id="edge1" class="edge"><title>0&#45;&gt;1</title>
<path fill="none" stroke="black" d="M271.732,-340.96C255.647,-331.826 235.678,-320.487 217.288,-310.044"/>
<polygon fill="black" stroke="black" points="218.835,-306.897 208.411,-305.003 215.378,-312.984 218.835,-306.897"/>
</g>
<!-- 2 -->
<g id="node3" class="node"><title>2</title>
<path fill="#f6ffd3" stroke="black" d="M547.5,-305C547.5,-305 341.5,-305 341.5,-305 335.5,-305 329.5,-299 329.5,-293 329.5,-293 329.5,-264 329.5,-264 329.5,-258 335.5,-252 341.5,-252 341.5,-252 547.5,-252 547.5,-252 553.5,-252 559.5,-258 559.5,-264 559.5,-264 559.5,-293 559.5,-293 559.5,-299 553.5,-305 547.5,-305"/>
<text text-anchor="middle" x="444.5" y="-289.8" font-family="Times,serif" font-size="14.00">decoder</text>
<text text-anchor="middle" x="444.5" y="-274.8" font-family="Times,serif" font-size="14.00">log gamma2: 0.023413 &#160;&#160;n kernels: &#45;10</text>
<text text-anchor="middle" x="444.5" y="-259.8" font-family="Times,serif" font-size="14.00">pooling type: 1</text>
</g>
<!-- 0&#45;&gt;2 -->
<g id="edge2" class="edge"><title>0&#45;&gt;2</title>
<path fill="none" stroke="black" d="M335.495,-340.96C351.695,-331.826 371.807,-320.487 390.328,-310.044"/>
<polygon fill="black" stroke="black" points="392.277,-312.963 399.268,-305.003 388.839,-306.866 392.277,-312.963"/>
</g>
<!-- 3 -->
<g id="node4" class="node"><title>3</title>
<path fill="#d3ffe4" stroke="black" d="M256,-216C256,-216 45,-216 45,-216 39,-216 33,-210 33,-204 33,-204 33,-175 33,-175 33,-169 39,-163 45,-163 45,-163 256,-163 256,-163 262,-163 268,-169 268,-175 268,-175 268,-204 268,-204 268,-210 262,-216 256,-216"/>
<text text-anchor="middle" x="150.5" y="-200.8" font-family="Times,serif" font-size="14.00">encode block 0</text>
<text text-anchor="middle" x="150.5" y="-185.8" font-family="Times,serif" font-size="14.00">log gamma1: &#45;0.134110 &#160;&#160;n kernels: &#45;10</text>
<text text-anchor="middle" x="150.5" y="-170.8" font-family="Times,serif" font-size="14.00">pooling type: &#45;1</text>
</g>
<!-- 1&#45;&gt;3 -->
<g id="edge3" class="edge"><title>1&#45;&gt;3</title>
<path fill="none" stroke="black" d="M159.67,-251.868C158.477,-243.886 157.139,-234.932 155.862,-226.384"/>
<polygon fill="black" stroke="black" points="159.287,-225.623 154.348,-216.25 152.364,-226.657 159.287,-225.623"/>
</g>
<!-- 4 -->
<g id="node5" class="node"><title>4</title>
<path fill="#d3ffe4" stroke="black" d="M550,-216C550,-216 339,-216 339,-216 333,-216 327,-210 327,-204 327,-204 327,-175 327,-175 327,-169 333,-163 339,-163 339,-163 550,-163 550,-163 556,-163 562,-169 562,-175 562,-175 562,-204 562,-204 562,-210 556,-216 550,-216"/>
<text text-anchor="middle" x="444.5" y="-200.8" font-family="Times,serif" font-size="14.00">decode block 1</text>
<text text-anchor="middle" x="444.5" y="-185.8" font-family="Times,serif" font-size="14.00">log gamma1: &#45;0.040907 &#160;&#160;n kernels: &#45;10</text>
<text text-anchor="middle" x="444.5" y="-170.8" font-family="Times,serif" font-size="14.00">spatial scale: 1</text>
</g>
<!-- 2&#45;&gt;4 -->
<g id="edge4" class="edge"><title>2&#45;&gt;4</title>
<path fill="none" stroke="black" d="M444.5,-251.868C444.5,-243.886 444.5,-234.932 444.5,-226.384"/>
<polygon fill="black" stroke="black" points="448,-226.25 444.5,-216.25 441,-226.25 448,-226.25"/>
</g>
<!-- 5 -->
<g id="node6" class="node"><title>5</title>
<path fill="#bfe6cf" stroke="black" d="M855,-216C855,-216 592,-216 592,-216 586,-216 580,-210 580,-204 580,-204 580,-175 580,-175 580,-169 586,-163 592,-163 592,-163 855,-163 855,-163 861,-163 867,-169 867,-175 867,-175 867,-204 867,-204 867,-210 861,-216 855,-216"/>
<text text-anchor="middle" x="723.5" y="-200.8" font-family="Times,serif" font-size="14.00">decode block 0</text>
<text text-anchor="middle" x="723.5" y="-185.8" font-family="Times,serif" font-size="14.00">log gamma1: 0.022906 &#160;&#160;log gamma2: &#45;0.498573</text>
<text text-anchor="middle" x="723.5" y="-170.8" font-family="Times,serif" font-size="14.00">pooling type: 1</text>
</g>
<!-- 2&#45;&gt;5 -->
<g id="edge5" class="edge"><title>2&#45;&gt;5</title>
<path fill="none" stroke="black" d="M526.324,-251.985C559.398,-241.672 597.722,-229.721 631.739,-219.114"/>
<polygon fill="black" stroke="black" points="633.173,-222.333 641.677,-216.015 631.089,-215.65 633.173,-222.333"/>
</g>
<!-- 6 -->
<g id="node7" class="node"><title>6</title>
<path fill="#d3e4ff" stroke="black" d="M275,-119.5C275,-119.5 12,-119.5 12,-119.5 6,-119.5 0,-113.5 0,-107.5 0,-107.5 0,-93.5 0,-93.5 0,-87.5 6,-81.5 12,-81.5 12,-81.5 275,-81.5 275,-81.5 281,-81.5 287,-87.5 287,-93.5 287,-93.5 287,-107.5 287,-107.5 287,-113.5 281,-119.5 275,-119.5"/>
<text text-anchor="middle" x="143.5" y="-104.3" font-family="Times,serif" font-size="14.00">comp 0</text>
<text text-anchor="middle" x="143.5" y="-89.3" font-family="Times,serif" font-size="14.00">log gamma1: &#45;0.446871 &#160;&#160;log gamma2: 0.092595</text>
</g>
<!-- 3&#45;&gt;6 -->
<g id="edge6" class="edge"><title>3&#45;&gt;6</title>
<path fill="none" stroke="black" d="M148.438,-162.868C147.597,-152.417 146.622,-140.301 145.762,-129.609"/>
<polygon fill="black" stroke="black" points="149.24,-129.194 144.949,-119.507 142.262,-129.755 149.24,-129.194"/>
</g>
<!-- 7 -->
<g id="node8" class="node"><title>7</title>
<path fill="#d3e4ff" stroke="black" d="M580,-127C580,-127 317,-127 317,-127 311,-127 305,-121 305,-115 305,-115 305,-86 305,-86 305,-80 311,-74 317,-74 317,-74 580,-74 580,-74 586,-74 592,-80 592,-86 592,-86 592,-115 592,-115 592,-121 586,-127 580,-127"/>
<text text-anchor="middle" x="448.5" y="-111.8" font-family="Times,serif" font-size="14.00">comp 0</text>
<text text-anchor="middle" x="448.5" y="-96.8" font-family="Times,serif" font-size="14.00">log gamma1: &#45;0.191266 &#160;&#160;log gamma2: 0.241847</text>
<text text-anchor="middle" x="448.5" y="-81.8" font-family="Times,serif" font-size="14.00">n kernels: 5</text>
</g>
<!-- 4&#45;&gt;7 -->
<g id="edge7" class="edge"><title>4&#45;&gt;7</title>
<path fill="none" stroke="black" d="M445.678,-162.868C446.045,-154.886 446.457,-145.932 446.85,-137.384"/>
<polygon fill="black" stroke="black" points="450.353,-137.4 447.316,-127.25 443.36,-137.078 450.353,-137.4"/>
</g>
<!-- 8 -->
<g id="node9" class="node"><title>8</title>
<path fill="#d3e4ff" stroke="black" d="M821,-119.5C821,-119.5 626,-119.5 626,-119.5 620,-119.5 614,-113.5 614,-107.5 614,-107.5 614,-93.5 614,-93.5 614,-87.5 620,-81.5 626,-81.5 626,-81.5 821,-81.5 821,-81.5 827,-81.5 833,-87.5 833,-93.5 833,-93.5 833,-107.5 833,-107.5 833,-113.5 827,-119.5 821,-119.5"/>
<text text-anchor="middle" x="723.5" y="-104.3" font-family="Times,serif" font-size="14.00">comp 0</text>
<text text-anchor="middle" x="723.5" y="-89.3" font-family="Times,serif" font-size="14.00">log gamma2: 0.019882 &#160;&#160;n kernels: 7</text>
</g>
<!-- 5&#45;&gt;8 -->
<g id="edge8" class="edge"><title>5&#45;&gt;8</title>
<path fill="none" stroke="black" d="M723.5,-162.868C723.5,-152.417 723.5,-140.301 723.5,-129.609"/>
<polygon fill="black" stroke="black" points="727,-129.507 723.5,-119.507 720,-129.507 727,-129.507"/>
</g>
<!-- 9 -->
<g id="node10" class="node"><title>9</title>
<path fill="#f6d3ff" stroke="black" d="M161,-38C161,-38 126,-38 126,-38 120,-38 114,-32 114,-26 114,-26 114,-12 114,-12 114,-6 120,-0 126,-0 126,-0 161,-0 161,-0 167,-0 173,-6 173,-12 173,-12 173,-26 173,-26 173,-32 167,-38 161,-38"/>
<text text-anchor="middle" x="143.5" y="-22.8" font-family="Times,serif" font-size="14.00">forward</text>
<text text-anchor="middle" x="143.5" y="-7.8" font-family="Times,serif" font-size="14.00">input</text>
</g>
<!-- 6&#45;&gt;9 -->
<g id="edge9" class="edge"><title>6&#45;&gt;9</title>
<path fill="none" stroke="black" d="M143.5,-81.4602C143.5,-71.67 143.5,-59.3453 143.5,-48.3073"/>
<polygon fill="black" stroke="black" points="147,-48.2435 143.5,-38.2436 140,-48.2436 147,-48.2435"/>
</g>
<!-- 10 -->
<g id="node11" class="node"><title>10</title>
<path fill="#f6d3ff" stroke="black" d="M466.5,-38C466.5,-38 430.5,-38 430.5,-38 424.5,-38 418.5,-32 418.5,-26 418.5,-26 418.5,-12 418.5,-12 418.5,-6 424.5,-0 430.5,-0 430.5,-0 466.5,-0 466.5,-0 472.5,-0 478.5,-6 478.5,-12 478.5,-12 478.5,-26 478.5,-26 478.5,-32 472.5,-38 466.5,-38"/>
<text text-anchor="middle" x="448.5" y="-22.8" font-family="Times,serif" font-size="14.00">forward</text>
<text text-anchor="middle" x="448.5" y="-7.8" font-family="Times,serif" font-size="14.00">EB0/C0</text>
</g>
<!-- 7&#45;&gt;10 -->
<g id="edge10" class="edge"><title>7&#45;&gt;10</title>
<path fill="none" stroke="black" d="M448.5,-73.9081C448.5,-65.7377 448.5,-56.6492 448.5,-48.2981"/>
<polygon fill="black" stroke="black" points="452,-48.2389 448.5,-38.2389 445,-48.2389 452,-48.2389"/>
</g>
<!-- 11 -->
<g id="node12" class="node"><title>11</title>
<path fill="#f6d3ff" stroke="black" d="M702.5,-38C702.5,-38 664.5,-38 664.5,-38 658.5,-38 652.5,-32 652.5,-26 652.5,-26 652.5,-12 652.5,-12 652.5,-6 658.5,-0 664.5,-0 664.5,-0 702.5,-0 702.5,-0 708.5,-0 714.5,-6 714.5,-12 714.5,-12 714.5,-26 714.5,-26 714.5,-32 708.5,-38 702.5,-38"/>
<text text-anchor="middle" x="683.5" y="-22.8" font-family="Times,serif" font-size="14.00">forward</text>
<text text-anchor="middle" x="683.5" y="-7.8" font-family="Times,serif" font-size="14.00">DB1/C0</text>
</g>
<!-- 8&#45;&gt;11 -->
<g id="edge11" class="edge"><title>8&#45;&gt;11</title>
<path fill="none" stroke="black" d="M714.423,-81.4602C709.345,-71.3672 702.912,-58.5805 697.229,-47.287"/>
<polygon fill="black" stroke="black" points="700.3,-45.6035 692.679,-38.2436 694.047,-48.7497 700.3,-45.6035"/>
</g>
<!-- 12 -->
<g id="node13" class="node"><title>12</title>
<path fill="#debfe6" stroke="black" d="M780.5,-38C780.5,-38 744.5,-38 744.5,-38 738.5,-38 732.5,-32 732.5,-26 732.5,-26 732.5,-12 732.5,-12 732.5,-6 738.5,-0 744.5,-0 744.5,-0 780.5,-0 780.5,-0 786.5,-0 792.5,-6 792.5,-12 792.5,-12 792.5,-26 792.5,-26 792.5,-32 786.5,-38 780.5,-38"/>
<text text-anchor="middle" x="762.5" y="-22.8" font-family="Times,serif" font-size="14.00">merge</text>
<text text-anchor="middle" x="762.5" y="-7.8" font-family="Times,serif" font-size="14.00">EB0/C0</text>
</g>
<!-- 8&#45;&gt;12 -->
<g id="edge12" class="edge"><title>8&#45;&gt;12</title>
<path fill="none" stroke="black" d="M732.35,-81.4602C737.301,-71.3672 743.574,-58.5805 749.114,-47.287"/>
<polygon fill="black" stroke="black" points="752.288,-48.763 753.55,-38.2436 746.004,-45.68 752.288,-48.763"/>
</g>
</g>
</svg>
