<?xml version="1.0" encoding="UTF-8" standalone="no"?>
<!DOCTYPE svg PUBLIC "-//W3C//DTD SVG 1.1//EN"
 "http://www.w3.org/Graphics/SVG/1.1/DTD/svg11.dtd">
<!-- Generated by graphviz version 2.38.0 (20140413.2041)
 -->
<!-- Title: %3 Pages: 1 -->
<svg width="4835pt" height="462pt"
 viewBox="0.00 0.00 4835.00 462.00" xmlns="http://www.w3.org/2000/svg" xmlns:xlink="http://www.w3.org/1999/xlink">
<g id="graph0" class="graph" transform="scale(1 1) rotate(0) translate(4 458)">
<title>%3</title>
<polygon fill="none" stroke="none" points="-4,4 -4,-458 4831,-458 4831,4 -4,4"/>
<!-- 0 -->
<g id="node1" class="node"><title>0</title>
<path fill="#ffd3d3" stroke="black" d="M1939.5,-454C1939.5,-454 1659.5,-454 1659.5,-454 1653.5,-454 1647.5,-448 1647.5,-442 1647.5,-442 1647.5,-413 1647.5,-413 1647.5,-407 1653.5,-401 1659.5,-401 1659.5,-401 1939.5,-401 1939.5,-401 1945.5,-401 1951.5,-407 1951.5,-413 1951.5,-413 1951.5,-442 1951.5,-442 1951.5,-448 1945.5,-454 1939.5,-454"/>
<text text-anchor="middle" x="1799.5" y="-438.8" font-family="Times,serif" font-size="14.00">net</text>
<text text-anchor="middle" x="1799.5" y="-423.8" font-family="Times,serif" font-size="14.00">log lambda1: &#45;11.000000 &#160;&#160;log lambda2: &#45;11.000000</text>
<text text-anchor="middle" x="1799.5" y="-408.8" font-family="Times,serif" font-size="14.00">n kernels: 64 &#160;&#160;pooling type: 0</text>
</g>
<!-- 1 -->
<g id="node2" class="node"><title>1</title>
<path fill="#f6ffd3" stroke="black" d="M858.5,-357.5C858.5,-357.5 738.5,-357.5 738.5,-357.5 732.5,-357.5 726.5,-351.5 726.5,-345.5 726.5,-345.5 726.5,-331.5 726.5,-331.5 726.5,-325.5 732.5,-319.5 738.5,-319.5 738.5,-319.5 858.5,-319.5 858.5,-319.5 864.5,-319.5 870.5,-325.5 870.5,-331.5 870.5,-331.5 870.5,-345.5 870.5,-345.5 870.5,-351.5 864.5,-357.5 858.5,-357.5"/>
<text text-anchor="middle" x="798.5" y="-342.3" font-family="Times,serif" font-size="14.00">encoder</text>
<text text-anchor="middle" x="798.5" y="-327.3" font-family="Times,serif" font-size="14.00">log gamma1: 0.367395</text>
</g>
<!-- 0&#45;&gt;1 -->
<g id="edge1" class="edge"><title>0&#45;&gt;1</title>
<path fill="none" stroke="black" d="M1647.47,-413.287C1432.81,-394.63 1048.38,-361.218 880.595,-346.635"/>
<polygon fill="black" stroke="black" points="880.852,-343.144 870.587,-345.765 880.246,-350.118 880.852,-343.144"/>
</g>
<!-- 2 -->
<g id="node3" class="node"><title>2</title>
<path fill="#f6ffd3" stroke="black" d="M2961,-365C2961,-365 2702,-365 2702,-365 2696,-365 2690,-359 2690,-353 2690,-353 2690,-324 2690,-324 2690,-318 2696,-312 2702,-312 2702,-312 2961,-312 2961,-312 2967,-312 2973,-318 2973,-324 2973,-324 2973,-353 2973,-353 2973,-359 2967,-365 2961,-365"/>
<text text-anchor="middle" x="2831.5" y="-349.8" font-family="Times,serif" font-size="14.00">decoder</text>
<text text-anchor="middle" x="2831.5" y="-334.8" font-family="Times,serif" font-size="14.00">log gamma1: 0.549576 &#160;&#160;log gamma2: 0.370739</text>
<text text-anchor="middle" x="2831.5" y="-319.8" font-family="Times,serif" font-size="14.00">n kernels: 11</text>
</g>
<!-- 0&#45;&gt;2 -->
<g id="edge2" class="edge"><title>0&#45;&gt;2</title>
<path fill="none" stroke="black" d="M1951.78,-413.663C2147.28,-397.182 2484.51,-368.752 2679.76,-352.292"/>
<polygon fill="black" stroke="black" points="2680.14,-355.773 2689.81,-351.445 2679.55,-348.797 2680.14,-355.773"/>
</g>
<!-- 3 -->
<g id="node4" class="node"><title>3</title>
<path fill="#d3ffe4" stroke="black" d="M489,-268.5C489,-268.5 364,-268.5 364,-268.5 358,-268.5 352,-262.5 352,-256.5 352,-256.5 352,-242.5 352,-242.5 352,-236.5 358,-230.5 364,-230.5 364,-230.5 489,-230.5 489,-230.5 495,-230.5 501,-236.5 501,-242.5 501,-242.5 501,-256.5 501,-256.5 501,-262.5 495,-268.5 489,-268.5"/>
<text text-anchor="middle" x="426.5" y="-253.3" font-family="Times,serif" font-size="14.00">encode block 0</text>
<text text-anchor="middle" x="426.5" y="-238.3" font-family="Times,serif" font-size="14.00">log gamma1: &#45;0.242601</text>
</g>
<!-- 1&#45;&gt;3 -->
<g id="edge3" class="edge"><title>1&#45;&gt;3</title>
<path fill="none" stroke="black" d="M726.334,-320.622C664.635,-306.193 575.785,-285.413 510.822,-270.221"/>
<polygon fill="black" stroke="black" points="511.548,-266.796 501.014,-267.927 509.954,-273.612 511.548,-266.796"/>
</g>
<!-- 4 -->
<g id="node5" class="node"><title>4</title>
<path fill="#bfe6cf" stroke="black" d="M932.5,-276C932.5,-276 664.5,-276 664.5,-276 658.5,-276 652.5,-270 652.5,-264 652.5,-264 652.5,-235 652.5,-235 652.5,-229 658.5,-223 664.5,-223 664.5,-223 932.5,-223 932.5,-223 938.5,-223 944.5,-229 944.5,-235 944.5,-235 944.5,-264 944.5,-264 944.5,-270 938.5,-276 932.5,-276"/>
<text text-anchor="middle" x="798.5" y="-260.8" font-family="Times,serif" font-size="14.00">encode block 1</text>
<text text-anchor="middle" x="798.5" y="-245.8" font-family="Times,serif" font-size="14.00">log gamma1: &#45;1.898332 &#160;&#160;log gamma2: &#45;0.067262</text>
<text text-anchor="middle" x="798.5" y="-230.8" font-family="Times,serif" font-size="14.00">n kernels: &#45;12 &#160;&#160;spatial scale: 1</text>
</g>
<!-- 1&#45;&gt;4 -->
<g id="edge4" class="edge"><title>1&#45;&gt;4</title>
<path fill="none" stroke="black" d="M798.5,-319.474C798.5,-309.871 798.5,-297.711 798.5,-286.285"/>
<polygon fill="black" stroke="black" points="802,-286.092 798.5,-276.092 795,-286.092 802,-286.092"/>
</g>
<!-- 5 -->
<g id="node6" class="node"><title>5</title>
<path fill="#d3ffe4" stroke="black" d="M2353.5,-276C2353.5,-276 2149.5,-276 2149.5,-276 2143.5,-276 2137.5,-270 2137.5,-264 2137.5,-264 2137.5,-235 2137.5,-235 2137.5,-229 2143.5,-223 2149.5,-223 2149.5,-223 2353.5,-223 2353.5,-223 2359.5,-223 2365.5,-229 2365.5,-235 2365.5,-235 2365.5,-264 2365.5,-264 2365.5,-270 2359.5,-276 2353.5,-276"/>
<text text-anchor="middle" x="2251.5" y="-260.8" font-family="Times,serif" font-size="14.00">decode block 2</text>
<text text-anchor="middle" x="2251.5" y="-245.8" font-family="Times,serif" font-size="14.00">log gamma2: &#45;1.153930 &#160;&#160;n kernels: &#45;5</text>
<text text-anchor="middle" x="2251.5" y="-230.8" font-family="Times,serif" font-size="14.00">spatial scale: 2</text>
</g>
<!-- 2&#45;&gt;5 -->
<g id="edge5" class="edge"><title>2&#45;&gt;5</title>
<path fill="none" stroke="black" d="M2689.99,-316.273C2593.89,-301.859 2468.01,-282.976 2375.78,-269.142"/>
<polygon fill="black" stroke="black" points="2376.25,-265.673 2365.84,-267.651 2375.21,-272.595 2376.25,-265.673"/>
</g>
<!-- 6 -->
<g id="node7" class="node"><title>6</title>
<path fill="#bfe6cf" stroke="black" d="M3299,-268.5C3299,-268.5 3144,-268.5 3144,-268.5 3138,-268.5 3132,-262.5 3132,-256.5 3132,-256.5 3132,-242.5 3132,-242.5 3132,-236.5 3138,-230.5 3144,-230.5 3144,-230.5 3299,-230.5 3299,-230.5 3305,-230.5 3311,-236.5 3311,-242.5 3311,-242.5 3311,-256.5 3311,-256.5 3311,-262.5 3305,-268.5 3299,-268.5"/>
<text text-anchor="middle" x="3221.5" y="-253.3" font-family="Times,serif" font-size="14.00">decode block 1</text>
<text text-anchor="middle" x="3221.5" y="-238.3" font-family="Times,serif" font-size="14.00">n kernels: 75 &#160;&#160;spatial scale: 1</text>
</g>
<!-- 2&#45;&gt;6 -->
<g id="edge6" class="edge"><title>2&#45;&gt;6</title>
<path fill="none" stroke="black" d="M2945.88,-311.985C3004.7,-298.863 3075.4,-283.091 3130.47,-270.807"/>
<polygon fill="black" stroke="black" points="3131.57,-274.148 3140.56,-268.555 3130.04,-267.316 3131.57,-274.148"/>
</g>
<!-- 7 -->
<g id="node8" class="node"><title>7</title>
<path fill="#abceb9" stroke="black" d="M4263.5,-268.5C4263.5,-268.5 4057.5,-268.5 4057.5,-268.5 4051.5,-268.5 4045.5,-262.5 4045.5,-256.5 4045.5,-256.5 4045.5,-242.5 4045.5,-242.5 4045.5,-236.5 4051.5,-230.5 4057.5,-230.5 4057.5,-230.5 4263.5,-230.5 4263.5,-230.5 4269.5,-230.5 4275.5,-236.5 4275.5,-242.5 4275.5,-242.5 4275.5,-256.5 4275.5,-256.5 4275.5,-262.5 4269.5,-268.5 4263.5,-268.5"/>
<text text-anchor="middle" x="4160.5" y="-253.3" font-family="Times,serif" font-size="14.00">decode block 0</text>
<text text-anchor="middle" x="4160.5" y="-238.3" font-family="Times,serif" font-size="14.00">log gamma2: 0.834780 &#160;&#160;n kernels: &#45;11</text>
</g>
<!-- 2&#45;&gt;7 -->
<g id="edge7" class="edge"><title>2&#45;&gt;7</title>
<path fill="none" stroke="black" d="M2973.1,-328.231C3234,-311.151 3786.62,-274.975 4034.98,-258.717"/>
<polygon fill="black" stroke="black" points="4035.38,-262.198 4045.13,-258.052 4034.93,-255.213 4035.38,-262.198"/>
</g>
<!-- 8 -->
<g id="node9" class="node"><title>8</title>
<path fill="#d3e4ff" stroke="black" d="M320.5,-179.5C320.5,-179.5 264.5,-179.5 264.5,-179.5 258.5,-179.5 252.5,-173.5 252.5,-167.5 252.5,-167.5 252.5,-153.5 252.5,-153.5 252.5,-147.5 258.5,-141.5 264.5,-141.5 264.5,-141.5 320.5,-141.5 320.5,-141.5 326.5,-141.5 332.5,-147.5 332.5,-153.5 332.5,-153.5 332.5,-167.5 332.5,-167.5 332.5,-173.5 326.5,-179.5 320.5,-179.5"/>
<text text-anchor="middle" x="292.5" y="-164.3" font-family="Times,serif" font-size="14.00">comp 0</text>
<text text-anchor="middle" x="292.5" y="-149.3" font-family="Times,serif" font-size="14.00">n kernels: 9</text>
</g>
<!-- 3&#45;&gt;8 -->
<g id="edge8" class="edge"><title>3&#45;&gt;8</title>
<path fill="none" stroke="black" d="M398.735,-230.474C378.432,-217.292 350.708,-199.292 328.673,-184.985"/>
<polygon fill="black" stroke="black" points="330.523,-182.013 320.229,-179.503 326.711,-187.884 330.523,-182.013"/>
</g>
<!-- 9 -->
<g id="node10" class="node"><title>9</title>
<path fill="#d3e4ff" stroke="black" d="M566,-179.5C566,-179.5 503,-179.5 503,-179.5 497,-179.5 491,-173.5 491,-167.5 491,-167.5 491,-153.5 491,-153.5 491,-147.5 497,-141.5 503,-141.5 503,-141.5 566,-141.5 566,-141.5 572,-141.5 578,-147.5 578,-153.5 578,-153.5 578,-167.5 578,-167.5 578,-173.5 572,-179.5 566,-179.5"/>
<text text-anchor="middle" x="534.5" y="-164.3" font-family="Times,serif" font-size="14.00">comp 0</text>
<text text-anchor="middle" x="534.5" y="-149.3" font-family="Times,serif" font-size="14.00">n kernels: 20</text>
</g>
<!-- 4&#45;&gt;9 -->
<g id="edge9" class="edge"><title>4&#45;&gt;9</title>
<path fill="none" stroke="black" d="M721.075,-222.985C678.337,-208.901 626.336,-191.764 588.099,-179.163"/>
<polygon fill="black" stroke="black" points="588.788,-175.705 578.195,-175.899 586.597,-182.354 588.788,-175.705"/>
</g>
<!-- 10 -->
<g id="node11" class="node"><title>10</title>
<path fill="#bfcfe6" stroke="black" d="M930,-187C930,-187 667,-187 667,-187 661,-187 655,-181 655,-175 655,-175 655,-146 655,-146 655,-140 661,-134 667,-134 667,-134 930,-134 930,-134 936,-134 942,-140 942,-146 942,-146 942,-175 942,-175 942,-181 936,-187 930,-187"/>
<text text-anchor="middle" x="798.5" y="-171.8" font-family="Times,serif" font-size="14.00">comp 1</text>
<text text-anchor="middle" x="798.5" y="-156.8" font-family="Times,serif" font-size="14.00">log gamma1: 1.868721 &#160;&#160;log gamma2: &#45;0.920070</text>
<text text-anchor="middle" x="798.5" y="-141.8" font-family="Times,serif" font-size="14.00">n kernels: 4</text>
</g>
<!-- 4&#45;&gt;10 -->
<g id="edge10" class="edge"><title>4&#45;&gt;10</title>
<path fill="none" stroke="black" d="M798.5,-222.868C798.5,-214.886 798.5,-205.932 798.5,-197.384"/>
<polygon fill="black" stroke="black" points="802,-197.25 798.5,-187.25 795,-197.25 802,-197.25"/>
</g>
<!-- 11 -->
<g id="node12" class="node"><title>11</title>
<path fill="#abb9ce" stroke="black" d="M1248.5,-179.5C1248.5,-179.5 980.5,-179.5 980.5,-179.5 974.5,-179.5 968.5,-173.5 968.5,-167.5 968.5,-167.5 968.5,-153.5 968.5,-153.5 968.5,-147.5 974.5,-141.5 980.5,-141.5 980.5,-141.5 1248.5,-141.5 1248.5,-141.5 1254.5,-141.5 1260.5,-147.5 1260.5,-153.5 1260.5,-153.5 1260.5,-167.5 1260.5,-167.5 1260.5,-173.5 1254.5,-179.5 1248.5,-179.5"/>
<text text-anchor="middle" x="1114.5" y="-164.3" font-family="Times,serif" font-size="14.00">comp 2</text>
<text text-anchor="middle" x="1114.5" y="-149.3" font-family="Times,serif" font-size="14.00">log gamma1: &#45;0.458023 &#160;&#160;log gamma2: &#45;1.288992</text>
</g>
<!-- 4&#45;&gt;11 -->
<g id="edge11" class="edge"><title>4&#45;&gt;11</title>
<path fill="none" stroke="black" d="M891.175,-222.985C938.243,-210.026 994.699,-194.483 1039.07,-182.267"/>
<polygon fill="black" stroke="black" points="1040.21,-185.584 1048.92,-179.555 1038.35,-178.835 1040.21,-185.584"/>
</g>
<!-- 12 -->
<g id="node13" class="node"><title>12</title>
<path fill="#d3e4ff" stroke="black" d="M1620,-179.5C1620,-179.5 1357,-179.5 1357,-179.5 1351,-179.5 1345,-173.5 1345,-167.5 1345,-167.5 1345,-153.5 1345,-153.5 1345,-147.5 1351,-141.5 1357,-141.5 1357,-141.5 1620,-141.5 1620,-141.5 1626,-141.5 1632,-147.5 1632,-153.5 1632,-153.5 1632,-167.5 1632,-167.5 1632,-173.5 1626,-179.5 1620,-179.5"/>
<text text-anchor="middle" x="1488.5" y="-164.3" font-family="Times,serif" font-size="14.00">comp 0</text>
<text text-anchor="middle" x="1488.5" y="-149.3" font-family="Times,serif" font-size="14.00">log gamma1: &#45;0.974632 &#160;&#160;log gamma2: 0.506932</text>
</g>
<!-- 5&#45;&gt;12 -->
<g id="edge12" class="edge"><title>5&#45;&gt;12</title>
<path fill="none" stroke="black" d="M2137.27,-235.475C2005.6,-220.462 1788.57,-195.715 1642.17,-179.022"/>
<polygon fill="black" stroke="black" points="1642.53,-175.54 1632.2,-177.885 1641.74,-182.495 1642.53,-175.54"/>
</g>
<!-- 13 -->
<g id="node14" class="node"><title>13</title>
<path fill="#bfcfe6" stroke="black" d="M1937.5,-179.5C1937.5,-179.5 1737.5,-179.5 1737.5,-179.5 1731.5,-179.5 1725.5,-173.5 1725.5,-167.5 1725.5,-167.5 1725.5,-153.5 1725.5,-153.5 1725.5,-147.5 1731.5,-141.5 1737.5,-141.5 1737.5,-141.5 1937.5,-141.5 1937.5,-141.5 1943.5,-141.5 1949.5,-147.5 1949.5,-153.5 1949.5,-153.5 1949.5,-167.5 1949.5,-167.5 1949.5,-173.5 1943.5,-179.5 1937.5,-179.5"/>
<text text-anchor="middle" x="1837.5" y="-164.3" font-family="Times,serif" font-size="14.00">comp 1</text>
<text text-anchor="middle" x="1837.5" y="-149.3" font-family="Times,serif" font-size="14.00">log gamma2: 1.139421 &#160;&#160;n kernels: &#45;2</text>
</g>
<!-- 5&#45;&gt;13 -->
<g id="edge13" class="edge"><title>5&#45;&gt;13</title>
<path fill="none" stroke="black" d="M2137.28,-224.497C2073.23,-211.037 1994.24,-194.438 1933.43,-181.658"/>
<polygon fill="black" stroke="black" points="1933.95,-178.192 1923.44,-179.56 1932.51,-185.042 1933.95,-178.192"/>
</g>
<!-- 14 -->
<g id="node15" class="node"><title>14</title>
<path fill="#abb9ce" stroke="black" d="M2221.5,-179.5C2221.5,-179.5 2019.5,-179.5 2019.5,-179.5 2013.5,-179.5 2007.5,-173.5 2007.5,-167.5 2007.5,-167.5 2007.5,-153.5 2007.5,-153.5 2007.5,-147.5 2013.5,-141.5 2019.5,-141.5 2019.5,-141.5 2221.5,-141.5 2221.5,-141.5 2227.5,-141.5 2233.5,-147.5 2233.5,-153.5 2233.5,-153.5 2233.5,-167.5 2233.5,-167.5 2233.5,-173.5 2227.5,-179.5 2221.5,-179.5"/>
<text text-anchor="middle" x="2120.5" y="-164.3" font-family="Times,serif" font-size="14.00">comp 2</text>
<text text-anchor="middle" x="2120.5" y="-149.3" font-family="Times,serif" font-size="14.00">log gamma2: 0.815917 &#160;&#160;n kernels: 15</text>
</g>
<!-- 5&#45;&gt;14 -->
<g id="edge14" class="edge"><title>5&#45;&gt;14</title>
<path fill="none" stroke="black" d="M2212.9,-222.868C2195.04,-211.002 2173.94,-196.989 2156.41,-185.352"/>
<polygon fill="black" stroke="black" points="2157.88,-182.123 2147.61,-179.507 2154.01,-187.955 2157.88,-182.123"/>
</g>
<!-- 15 -->
<g id="node16" class="node"><title>15</title>
<path fill="#97a3b6" stroke="black" d="M2443.5,-179.5C2443.5,-179.5 2323.5,-179.5 2323.5,-179.5 2317.5,-179.5 2311.5,-173.5 2311.5,-167.5 2311.5,-167.5 2311.5,-153.5 2311.5,-153.5 2311.5,-147.5 2317.5,-141.5 2323.5,-141.5 2323.5,-141.5 2443.5,-141.5 2443.5,-141.5 2449.5,-141.5 2455.5,-147.5 2455.5,-153.5 2455.5,-153.5 2455.5,-167.5 2455.5,-167.5 2455.5,-173.5 2449.5,-179.5 2443.5,-179.5"/>
<text text-anchor="middle" x="2383.5" y="-164.3" font-family="Times,serif" font-size="14.00">comp 3</text>
<text text-anchor="middle" x="2383.5" y="-149.3" font-family="Times,serif" font-size="14.00">log gamma2: 1.191002</text>
</g>
<!-- 5&#45;&gt;15 -->
<g id="edge15" class="edge"><title>5&#45;&gt;15</title>
<path fill="none" stroke="black" d="M2290.39,-222.868C2308.56,-210.893 2330.04,-196.732 2347.8,-185.032"/>
<polygon fill="black" stroke="black" points="2349.76,-187.932 2356.18,-179.507 2345.9,-182.087 2349.76,-187.932"/>
</g>
<!-- 16 -->
<g id="node17" class="node"><title>16</title>
<path fill="#838d9e" stroke="black" d="M2697.5,-179.5C2697.5,-179.5 2641.5,-179.5 2641.5,-179.5 2635.5,-179.5 2629.5,-173.5 2629.5,-167.5 2629.5,-167.5 2629.5,-153.5 2629.5,-153.5 2629.5,-147.5 2635.5,-141.5 2641.5,-141.5 2641.5,-141.5 2697.5,-141.5 2697.5,-141.5 2703.5,-141.5 2709.5,-147.5 2709.5,-153.5 2709.5,-153.5 2709.5,-167.5 2709.5,-167.5 2709.5,-173.5 2703.5,-179.5 2697.5,-179.5"/>
<text text-anchor="middle" x="2669.5" y="-164.3" font-family="Times,serif" font-size="14.00">comp 4</text>
<text text-anchor="middle" x="2669.5" y="-149.3" font-family="Times,serif" font-size="14.00">n kernels: 1</text>
</g>
<!-- 5&#45;&gt;16 -->
<g id="edge16" class="edge"><title>5&#45;&gt;16</title>
<path fill="none" stroke="black" d="M2365.72,-224.727C2448.61,-207.475 2556.73,-184.971 2619.11,-171.988"/>
<polygon fill="black" stroke="black" points="2620.01,-175.375 2629.09,-169.911 2618.58,-168.522 2620.01,-175.375"/>
</g>
<!-- 17 -->
<g id="node18" class="node"><title>17</title>
<path fill="#d3e4ff" stroke="black" d="M3353,-187C3353,-187 3090,-187 3090,-187 3084,-187 3078,-181 3078,-175 3078,-175 3078,-146 3078,-146 3078,-140 3084,-134 3090,-134 3090,-134 3353,-134 3353,-134 3359,-134 3365,-140 3365,-146 3365,-146 3365,-175 3365,-175 3365,-181 3359,-187 3353,-187"/>
<text text-anchor="middle" x="3221.5" y="-171.8" font-family="Times,serif" font-size="14.00">comp 0</text>
<text text-anchor="middle" x="3221.5" y="-156.8" font-family="Times,serif" font-size="14.00">log gamma1: &#45;1.674550 &#160;&#160;log gamma2: 0.021465</text>
<text text-anchor="middle" x="3221.5" y="-141.8" font-family="Times,serif" font-size="14.00">n kernels: &#45;22</text>
</g>
<!-- 6&#45;&gt;17 -->
<g id="edge17" class="edge"><title>6&#45;&gt;17</title>
<path fill="none" stroke="black" d="M3221.5,-230.474C3221.5,-220.871 3221.5,-208.711 3221.5,-197.285"/>
<polygon fill="black" stroke="black" points="3225,-197.092 3221.5,-187.092 3218,-197.092 3225,-197.092"/>
</g>
<!-- 18 -->
<g id="node19" class="node"><title>18</title>
<path fill="#bfcfe6" stroke="black" d="M3563,-179.5C3563,-179.5 3438,-179.5 3438,-179.5 3432,-179.5 3426,-173.5 3426,-167.5 3426,-167.5 3426,-153.5 3426,-153.5 3426,-147.5 3432,-141.5 3438,-141.5 3438,-141.5 3563,-141.5 3563,-141.5 3569,-141.5 3575,-147.5 3575,-153.5 3575,-153.5 3575,-167.5 3575,-167.5 3575,-173.5 3569,-179.5 3563,-179.5"/>
<text text-anchor="middle" x="3500.5" y="-164.3" font-family="Times,serif" font-size="14.00">comp 1</text>
<text text-anchor="middle" x="3500.5" y="-149.3" font-family="Times,serif" font-size="14.00">log gamma2: &#45;1.316744</text>
</g>
<!-- 6&#45;&gt;18 -->
<g id="edge18" class="edge"><title>6&#45;&gt;18</title>
<path fill="none" stroke="black" d="M3279.31,-230.474C3324.01,-216.534 3386,-197.205 3432.98,-182.555"/>
<polygon fill="black" stroke="black" points="3434.26,-185.822 3442.77,-179.503 3432.18,-179.139 3434.26,-185.822"/>
</g>
<!-- 19 -->
<g id="node20" class="node"><title>19</title>
<path fill="#d3e4ff" stroke="black" d="M4220.5,-179.5C4220.5,-179.5 4100.5,-179.5 4100.5,-179.5 4094.5,-179.5 4088.5,-173.5 4088.5,-167.5 4088.5,-167.5 4088.5,-153.5 4088.5,-153.5 4088.5,-147.5 4094.5,-141.5 4100.5,-141.5 4100.5,-141.5 4220.5,-141.5 4220.5,-141.5 4226.5,-141.5 4232.5,-147.5 4232.5,-153.5 4232.5,-153.5 4232.5,-167.5 4232.5,-167.5 4232.5,-173.5 4226.5,-179.5 4220.5,-179.5"/>
<text text-anchor="middle" x="4160.5" y="-164.3" font-family="Times,serif" font-size="14.00">comp 0</text>
<text text-anchor="middle" x="4160.5" y="-149.3" font-family="Times,serif" font-size="14.00">log gamma2: 0.148533</text>
</g>
<!-- 7&#45;&gt;19 -->
<g id="edge19" class="edge"><title>7&#45;&gt;19</title>
<path fill="none" stroke="black" d="M4160.5,-230.474C4160.5,-218.692 4160.5,-203.061 4160.5,-189.658"/>
<polygon fill="black" stroke="black" points="4164,-189.503 4160.5,-179.503 4157,-189.503 4164,-189.503"/>
</g>
<!-- 20 -->
<g id="node21" class="node"><title>20</title>
<path fill="#bfcfe6" stroke="black" d="M4559.5,-178.5C4559.5,-178.5 4525.5,-178.5 4525.5,-178.5 4519.5,-178.5 4513.5,-172.5 4513.5,-166.5 4513.5,-166.5 4513.5,-154.5 4513.5,-154.5 4513.5,-148.5 4519.5,-142.5 4525.5,-142.5 4525.5,-142.5 4559.5,-142.5 4559.5,-142.5 4565.5,-142.5 4571.5,-148.5 4571.5,-154.5 4571.5,-154.5 4571.5,-166.5 4571.5,-166.5 4571.5,-172.5 4565.5,-178.5 4559.5,-178.5"/>
<text text-anchor="middle" x="4542.5" y="-156.8" font-family="Times,serif" font-size="14.00">comp 1</text>
</g>
<!-- 7&#45;&gt;20 -->
<g id="edge20" class="edge"><title>7&#45;&gt;20</title>
<path fill="none" stroke="black" d="M4239.65,-230.474C4320.01,-212.171 4441.16,-184.58 4503.05,-170.484"/>
<polygon fill="black" stroke="black" points="4504.21,-173.811 4513.18,-168.177 4502.65,-166.985 4504.21,-173.811"/>
</g>
<!-- 21 -->
<g id="node22" class="node"><title>21</title>
<path fill="#f6d3ff" stroke="black" d="M293,-98C293,-98 12,-98 12,-98 6,-98 0,-92 0,-86 0,-86 0,-12 0,-12 0,-6 6,-0 12,-0 12,-0 293,-0 293,-0 299,-0 305,-6 305,-12 305,-12 305,-86 305,-86 305,-92 299,-98 293,-98"/>
<text text-anchor="middle" x="152.5" y="-82.8" font-family="Times,serif" font-size="14.00">forward</text>
<text text-anchor="middle" x="152.5" y="-67.8" font-family="Times,serif" font-size="14.00">input</text>
<text text-anchor="middle" x="152.5" y="-52.8" font-family="Times,serif" font-size="14.00">dilation rate: 1 &#160;&#160;k width: 3</text>
<text text-anchor="middle" x="152.5" y="-37.8" font-family="Times,serif" font-size="14.00">log gamma1: &#45;11.000000 &#160;&#160;log gamma2: &#45;11.000000</text>
<text text-anchor="middle" x="152.5" y="-22.8" font-family="Times,serif" font-size="14.00">log lambda1: &#45;11.000000 &#160;&#160;log lambda2: &#45;11.000000</text>
<text text-anchor="middle" x="152.5" y="-7.8" font-family="Times,serif" font-size="14.00">n kernels: 64</text>
</g>
<!-- 8&#45;&gt;21 -->
<g id="edge21" class="edge"><title>8&#45;&gt;21</title>
<path fill="none" stroke="black" d="M269.382,-141.418C256.367,-131.239 239.351,-117.93 222.346,-104.63"/>
<polygon fill="black" stroke="black" points="224.051,-101.519 214.017,-98.1154 219.738,-107.033 224.051,-101.519"/>
</g>
<!-- 22 -->
<g id="node23" class="node"><title>22</title>
<path fill="#f6d3ff" stroke="black" d="M616,-98C616,-98 335,-98 335,-98 329,-98 323,-92 323,-86 323,-86 323,-12 323,-12 323,-6 329,-0 335,-0 335,-0 616,-0 616,-0 622,-0 628,-6 628,-12 628,-12 628,-86 628,-86 628,-92 622,-98 616,-98"/>
<text text-anchor="middle" x="475.5" y="-82.8" font-family="Times,serif" font-size="14.00">forward</text>
<text text-anchor="middle" x="475.5" y="-67.8" font-family="Times,serif" font-size="14.00">EB0/C0</text>
<text text-anchor="middle" x="475.5" y="-52.8" font-family="Times,serif" font-size="14.00">dilation rate: 1 &#160;&#160;k width: 3</text>
<text text-anchor="middle" x="475.5" y="-37.8" font-family="Times,serif" font-size="14.00">log gamma1: &#45;11.000000 &#160;&#160;log gamma2: &#45;11.000000</text>
<text text-anchor="middle" x="475.5" y="-22.8" font-family="Times,serif" font-size="14.00">log lambda1: &#45;11.000000 &#160;&#160;log lambda2: &#45;11.000000</text>
<text text-anchor="middle" x="475.5" y="-7.8" font-family="Times,serif" font-size="14.00">n kernels: 64</text>
</g>
<!-- 9&#45;&gt;22 -->
<g id="edge22" class="edge"><title>9&#45;&gt;22</title>
<path fill="none" stroke="black" d="M524.757,-141.418C519.648,-131.936 513.075,-119.737 506.406,-107.36"/>
<polygon fill="black" stroke="black" points="509.377,-105.495 501.553,-98.352 503.215,-108.816 509.377,-105.495"/>
</g>
<!-- 23 -->
<g id="node24" class="node"><title>23</title>
<path fill="#f6d3ff" stroke="black" d="M939,-98C939,-98 658,-98 658,-98 652,-98 646,-92 646,-86 646,-86 646,-12 646,-12 646,-6 652,-0 658,-0 658,-0 939,-0 939,-0 945,-0 951,-6 951,-12 951,-12 951,-86 951,-86 951,-92 945,-98 939,-98"/>
<text text-anchor="middle" x="798.5" y="-82.8" font-family="Times,serif" font-size="14.00">forward</text>
<text text-anchor="middle" x="798.5" y="-67.8" font-family="Times,serif" font-size="14.00">EB1/C0</text>
<text text-anchor="middle" x="798.5" y="-52.8" font-family="Times,serif" font-size="14.00">dilation rate: 1 &#160;&#160;k width: 3</text>
<text text-anchor="middle" x="798.5" y="-37.8" font-family="Times,serif" font-size="14.00">log gamma1: &#45;11.000000 &#160;&#160;log gamma2: &#45;11.000000</text>
<text text-anchor="middle" x="798.5" y="-22.8" font-family="Times,serif" font-size="14.00">log lambda1: &#45;11.000000 &#160;&#160;log lambda2: &#45;11.000000</text>
<text text-anchor="middle" x="798.5" y="-7.8" font-family="Times,serif" font-size="14.00">n kernels: 64</text>
</g>
<!-- 10&#45;&gt;23 -->
<g id="edge23" class="edge"><title>10&#45;&gt;23</title>
<path fill="none" stroke="black" d="M798.5,-133.827C798.5,-126.111 798.5,-117.31 798.5,-108.379"/>
<polygon fill="black" stroke="black" points="802,-108.292 798.5,-98.2922 795,-108.292 802,-108.292"/>
</g>
<!-- 24 -->
<g id="node25" class="node"><title>24</title>
<path fill="#f6d3ff" stroke="black" d="M1262,-98C1262,-98 981,-98 981,-98 975,-98 969,-92 969,-86 969,-86 969,-12 969,-12 969,-6 975,-0 981,-0 981,-0 1262,-0 1262,-0 1268,-0 1274,-6 1274,-12 1274,-12 1274,-86 1274,-86 1274,-92 1268,-98 1262,-98"/>
<text text-anchor="middle" x="1121.5" y="-82.8" font-family="Times,serif" font-size="14.00">forward</text>
<text text-anchor="middle" x="1121.5" y="-67.8" font-family="Times,serif" font-size="14.00">EB1/C1</text>
<text text-anchor="middle" x="1121.5" y="-52.8" font-family="Times,serif" font-size="14.00">dilation rate: 1 &#160;&#160;k width: 3</text>
<text text-anchor="middle" x="1121.5" y="-37.8" font-family="Times,serif" font-size="14.00">log gamma1: &#45;11.000000 &#160;&#160;log gamma2: &#45;11.000000</text>
<text text-anchor="middle" x="1121.5" y="-22.8" font-family="Times,serif" font-size="14.00">log lambda1: &#45;11.000000 &#160;&#160;log lambda2: &#45;11.000000</text>
<text text-anchor="middle" x="1121.5" y="-7.8" font-family="Times,serif" font-size="14.00">n kernels: 64</text>
</g>
<!-- 11&#45;&gt;24 -->
<g id="edge24" class="edge"><title>11&#45;&gt;24</title>
<path fill="none" stroke="black" d="M1115.66,-141.418C1116.24,-132.212 1117,-120.445 1117.76,-108.441"/>
<polygon fill="black" stroke="black" points="1121.26,-108.555 1118.41,-98.352 1114.28,-108.108 1121.26,-108.555"/>
</g>
<!-- 25 -->
<g id="node26" class="node"><title>25</title>
<path fill="#f6d3ff" stroke="black" d="M1585,-98C1585,-98 1304,-98 1304,-98 1298,-98 1292,-92 1292,-86 1292,-86 1292,-12 1292,-12 1292,-6 1298,-0 1304,-0 1304,-0 1585,-0 1585,-0 1591,-0 1597,-6 1597,-12 1597,-12 1597,-86 1597,-86 1597,-92 1591,-98 1585,-98"/>
<text text-anchor="middle" x="1444.5" y="-82.8" font-family="Times,serif" font-size="14.00">forward</text>
<text text-anchor="middle" x="1444.5" y="-67.8" font-family="Times,serif" font-size="14.00">EB1/C2</text>
<text text-anchor="middle" x="1444.5" y="-52.8" font-family="Times,serif" font-size="14.00">dilation rate: 1 &#160;&#160;k width: 3</text>
<text text-anchor="middle" x="1444.5" y="-37.8" font-family="Times,serif" font-size="14.00">log gamma1: &#45;11.000000 &#160;&#160;log gamma2: &#45;11.000000</text>
<text text-anchor="middle" x="1444.5" y="-22.8" font-family="Times,serif" font-size="14.00">log lambda1: &#45;11.000000 &#160;&#160;log lambda2: &#45;11.000000</text>
<text text-anchor="middle" x="1444.5" y="-7.8" font-family="Times,serif" font-size="14.00">n kernels: 64</text>
</g>
<!-- 12&#45;&gt;25 -->
<g id="edge25" class="edge"><title>12&#45;&gt;25</title>
<path fill="none" stroke="black" d="M1481.23,-141.418C1477.46,-132.028 1472.62,-119.973 1467.69,-107.72"/>
<polygon fill="black" stroke="black" points="1470.91,-106.326 1463.93,-98.352 1464.41,-108.936 1470.91,-106.326"/>
</g>
<!-- 26 -->
<g id="node27" class="node"><title>26</title>
<path fill="#f6d3ff" stroke="black" d="M1908,-98C1908,-98 1627,-98 1627,-98 1621,-98 1615,-92 1615,-86 1615,-86 1615,-12 1615,-12 1615,-6 1621,-0 1627,-0 1627,-0 1908,-0 1908,-0 1914,-0 1920,-6 1920,-12 1920,-12 1920,-86 1920,-86 1920,-92 1914,-98 1908,-98"/>
<text text-anchor="middle" x="1767.5" y="-82.8" font-family="Times,serif" font-size="14.00">forward</text>
<text text-anchor="middle" x="1767.5" y="-67.8" font-family="Times,serif" font-size="14.00">DB2/C0</text>
<text text-anchor="middle" x="1767.5" y="-52.8" font-family="Times,serif" font-size="14.00">dilation rate: 1 &#160;&#160;k width: 3</text>
<text text-anchor="middle" x="1767.5" y="-37.8" font-family="Times,serif" font-size="14.00">log gamma1: &#45;11.000000 &#160;&#160;log gamma2: &#45;11.000000</text>
<text text-anchor="middle" x="1767.5" y="-22.8" font-family="Times,serif" font-size="14.00">log lambda1: &#45;11.000000 &#160;&#160;log lambda2: &#45;11.000000</text>
<text text-anchor="middle" x="1767.5" y="-7.8" font-family="Times,serif" font-size="14.00">n kernels: 64</text>
</g>
<!-- 13&#45;&gt;26 -->
<g id="edge26" class="edge"><title>13&#45;&gt;26</title>
<path fill="none" stroke="black" d="M1825.94,-141.418C1819.82,-131.843 1811.93,-119.5 1803.94,-106.999"/>
<polygon fill="black" stroke="black" points="1806.75,-104.892 1798.41,-98.352 1800.85,-108.663 1806.75,-104.892"/>
</g>
<!-- 27 -->
<g id="node28" class="node"><title>27</title>
<path fill="#f6d3ff" stroke="black" d="M2231,-98C2231,-98 1950,-98 1950,-98 1944,-98 1938,-92 1938,-86 1938,-86 1938,-12 1938,-12 1938,-6 1944,-0 1950,-0 1950,-0 2231,-0 2231,-0 2237,-0 2243,-6 2243,-12 2243,-12 2243,-86 2243,-86 2243,-92 2237,-98 2231,-98"/>
<text text-anchor="middle" x="2090.5" y="-82.8" font-family="Times,serif" font-size="14.00">forward</text>
<text text-anchor="middle" x="2090.5" y="-67.8" font-family="Times,serif" font-size="14.00">DB2/C1</text>
<text text-anchor="middle" x="2090.5" y="-52.8" font-family="Times,serif" font-size="14.00">dilation rate: 1 &#160;&#160;k width: 3</text>
<text text-anchor="middle" x="2090.5" y="-37.8" font-family="Times,serif" font-size="14.00">log gamma1: &#45;11.000000 &#160;&#160;log gamma2: &#45;11.000000</text>
<text text-anchor="middle" x="2090.5" y="-22.8" font-family="Times,serif" font-size="14.00">log lambda1: &#45;11.000000 &#160;&#160;log lambda2: &#45;11.000000</text>
<text text-anchor="middle" x="2090.5" y="-7.8" font-family="Times,serif" font-size="14.00">n kernels: 64</text>
</g>
<!-- 14&#45;&gt;27 -->
<g id="edge27" class="edge"><title>14&#45;&gt;27</title>
<path fill="none" stroke="black" d="M2115.55,-141.418C2113,-132.12 2109.74,-120.209 2106.41,-108.08"/>
<polygon fill="black" stroke="black" points="2109.77,-107.072 2103.75,-98.352 2103.01,-108.921 2109.77,-107.072"/>
</g>
<!-- 28 -->
<g id="node29" class="node"><title>28</title>
<path fill="#f6d3ff" stroke="black" d="M2554,-98C2554,-98 2273,-98 2273,-98 2267,-98 2261,-92 2261,-86 2261,-86 2261,-12 2261,-12 2261,-6 2267,-0 2273,-0 2273,-0 2554,-0 2554,-0 2560,-0 2566,-6 2566,-12 2566,-12 2566,-86 2566,-86 2566,-92 2560,-98 2554,-98"/>
<text text-anchor="middle" x="2413.5" y="-82.8" font-family="Times,serif" font-size="14.00">forward</text>
<text text-anchor="middle" x="2413.5" y="-67.8" font-family="Times,serif" font-size="14.00">DB2/C2</text>
<text text-anchor="middle" x="2413.5" y="-52.8" font-family="Times,serif" font-size="14.00">dilation rate: 1 &#160;&#160;k width: 3</text>
<text text-anchor="middle" x="2413.5" y="-37.8" font-family="Times,serif" font-size="14.00">log gamma1: &#45;11.000000 &#160;&#160;log gamma2: &#45;11.000000</text>
<text text-anchor="middle" x="2413.5" y="-22.8" font-family="Times,serif" font-size="14.00">log lambda1: &#45;11.000000 &#160;&#160;log lambda2: &#45;11.000000</text>
<text text-anchor="middle" x="2413.5" y="-7.8" font-family="Times,serif" font-size="14.00">n kernels: 64</text>
</g>
<!-- 15&#45;&gt;28 -->
<g id="edge28" class="edge"><title>15&#45;&gt;28</title>
<path fill="none" stroke="black" d="M2388.45,-141.418C2391,-132.12 2394.26,-120.209 2397.59,-108.08"/>
<polygon fill="black" stroke="black" points="2400.99,-108.921 2400.25,-98.352 2394.23,-107.072 2400.99,-108.921"/>
</g>
<!-- 29 -->
<g id="node30" class="node"><title>29</title>
<path fill="#f6d3ff" stroke="black" d="M2877,-98C2877,-98 2596,-98 2596,-98 2590,-98 2584,-92 2584,-86 2584,-86 2584,-12 2584,-12 2584,-6 2590,-0 2596,-0 2596,-0 2877,-0 2877,-0 2883,-0 2889,-6 2889,-12 2889,-12 2889,-86 2889,-86 2889,-92 2883,-98 2877,-98"/>
<text text-anchor="middle" x="2736.5" y="-82.8" font-family="Times,serif" font-size="14.00">forward</text>
<text text-anchor="middle" x="2736.5" y="-67.8" font-family="Times,serif" font-size="14.00">DB2/C3</text>
<text text-anchor="middle" x="2736.5" y="-52.8" font-family="Times,serif" font-size="14.00">dilation rate: 1 &#160;&#160;k width: 3</text>
<text text-anchor="middle" x="2736.5" y="-37.8" font-family="Times,serif" font-size="14.00">log gamma1: &#45;11.000000 &#160;&#160;log gamma2: &#45;11.000000</text>
<text text-anchor="middle" x="2736.5" y="-22.8" font-family="Times,serif" font-size="14.00">log lambda1: &#45;11.000000 &#160;&#160;log lambda2: &#45;11.000000</text>
<text text-anchor="middle" x="2736.5" y="-7.8" font-family="Times,serif" font-size="14.00">n kernels: 64</text>
</g>
<!-- 16&#45;&gt;29 -->
<g id="edge29" class="edge"><title>16&#45;&gt;29</title>
<path fill="none" stroke="black" d="M2680.56,-141.418C2686.42,-131.843 2693.98,-119.5 2701.62,-106.999"/>
<polygon fill="black" stroke="black" points="2704.68,-108.709 2706.91,-98.352 2698.71,-105.055 2704.68,-108.709"/>
</g>
<!-- 30 -->
<g id="node31" class="node"><title>30</title>
<path fill="#f6d3ff" stroke="black" d="M3200,-98C3200,-98 2919,-98 2919,-98 2913,-98 2907,-92 2907,-86 2907,-86 2907,-12 2907,-12 2907,-6 2913,-0 2919,-0 2919,-0 3200,-0 3200,-0 3206,-0 3212,-6 3212,-12 3212,-12 3212,-86 3212,-86 3212,-92 3206,-98 3200,-98"/>
<text text-anchor="middle" x="3059.5" y="-82.8" font-family="Times,serif" font-size="14.00">forward</text>
<text text-anchor="middle" x="3059.5" y="-67.8" font-family="Times,serif" font-size="14.00">DB2/C4</text>
<text text-anchor="middle" x="3059.5" y="-52.8" font-family="Times,serif" font-size="14.00">dilation rate: 1 &#160;&#160;k width: 3</text>
<text text-anchor="middle" x="3059.5" y="-37.8" font-family="Times,serif" font-size="14.00">log gamma1: &#45;11.000000 &#160;&#160;log gamma2: &#45;11.000000</text>
<text text-anchor="middle" x="3059.5" y="-22.8" font-family="Times,serif" font-size="14.00">log lambda1: &#45;11.000000 &#160;&#160;log lambda2: &#45;11.000000</text>
<text text-anchor="middle" x="3059.5" y="-7.8" font-family="Times,serif" font-size="14.00">n kernels: 64</text>
</g>
<!-- 17&#45;&gt;30 -->
<g id="edge30" class="edge"><title>17&#45;&gt;30</title>
<path fill="none" stroke="black" d="M3183.52,-133.827C3170.18,-124.813 3154.66,-114.318 3139.19,-103.866"/>
<polygon fill="black" stroke="black" points="3140.87,-100.774 3130.62,-98.0737 3136.95,-106.573 3140.87,-100.774"/>
</g>
<!-- 31 -->
<g id="node32" class="node"><title>31</title>
<path fill="#debfe6" stroke="black" d="M3523,-98C3523,-98 3242,-98 3242,-98 3236,-98 3230,-92 3230,-86 3230,-86 3230,-12 3230,-12 3230,-6 3236,-0 3242,-0 3242,-0 3523,-0 3523,-0 3529,-0 3535,-6 3535,-12 3535,-12 3535,-86 3535,-86 3535,-92 3529,-98 3523,-98"/>
<text text-anchor="middle" x="3382.5" y="-82.8" font-family="Times,serif" font-size="14.00">merge</text>
<text text-anchor="middle" x="3382.5" y="-67.8" font-family="Times,serif" font-size="14.00">EB1/C2</text>
<text text-anchor="middle" x="3382.5" y="-52.8" font-family="Times,serif" font-size="14.00">dilation rate: 1 &#160;&#160;k width: 3</text>
<text text-anchor="middle" x="3382.5" y="-37.8" font-family="Times,serif" font-size="14.00">log gamma1: &#45;11.000000 &#160;&#160;log gamma2: &#45;11.000000</text>
<text text-anchor="middle" x="3382.5" y="-22.8" font-family="Times,serif" font-size="14.00">log lambda1: &#45;11.000000 &#160;&#160;log lambda2: &#45;11.000000</text>
<text text-anchor="middle" x="3382.5" y="-7.8" font-family="Times,serif" font-size="14.00">n kernels: 64</text>
</g>
<!-- 17&#45;&gt;31 -->
<g id="edge31" class="edge"><title>17&#45;&gt;31</title>
<path fill="none" stroke="black" d="M3259.25,-133.827C3272.5,-124.813 3287.93,-114.318 3303.3,-103.866"/>
<polygon fill="black" stroke="black" points="3305.52,-106.592 3311.82,-98.0737 3301.58,-100.803 3305.52,-106.592"/>
</g>
<!-- 32 -->
<g id="node33" class="node"><title>32</title>
<path fill="#f6d3ff" stroke="black" d="M3846,-98C3846,-98 3565,-98 3565,-98 3559,-98 3553,-92 3553,-86 3553,-86 3553,-12 3553,-12 3553,-6 3559,-0 3565,-0 3565,-0 3846,-0 3846,-0 3852,-0 3858,-6 3858,-12 3858,-12 3858,-86 3858,-86 3858,-92 3852,-98 3846,-98"/>
<text text-anchor="middle" x="3705.5" y="-82.8" font-family="Times,serif" font-size="14.00">forward</text>
<text text-anchor="middle" x="3705.5" y="-67.8" font-family="Times,serif" font-size="14.00">DB1/C0</text>
<text text-anchor="middle" x="3705.5" y="-52.8" font-family="Times,serif" font-size="14.00">dilation rate: 1 &#160;&#160;k width: 3</text>
<text text-anchor="middle" x="3705.5" y="-37.8" font-family="Times,serif" font-size="14.00">log gamma1: &#45;11.000000 &#160;&#160;log gamma2: &#45;11.000000</text>
<text text-anchor="middle" x="3705.5" y="-22.8" font-family="Times,serif" font-size="14.00">log lambda1: &#45;11.000000 &#160;&#160;log lambda2: &#45;11.000000</text>
<text text-anchor="middle" x="3705.5" y="-7.8" font-family="Times,serif" font-size="14.00">n kernels: 64</text>
</g>
<!-- 18&#45;&gt;32 -->
<g id="edge32" class="edge"><title>18&#45;&gt;32</title>
<path fill="none" stroke="black" d="M3534.35,-141.418C3554.19,-130.822 3580.37,-116.835 3606.28,-102.998"/>
<polygon fill="black" stroke="black" points="3608.25,-105.914 3615.42,-98.1154 3604.95,-99.7397 3608.25,-105.914"/>
</g>
<!-- 33 -->
<g id="node34" class="node"><title>33</title>
<path fill="#f6d3ff" stroke="black" d="M4169,-98C4169,-98 3888,-98 3888,-98 3882,-98 3876,-92 3876,-86 3876,-86 3876,-12 3876,-12 3876,-6 3882,-0 3888,-0 3888,-0 4169,-0 4169,-0 4175,-0 4181,-6 4181,-12 4181,-12 4181,-86 4181,-86 4181,-92 4175,-98 4169,-98"/>
<text text-anchor="middle" x="4028.5" y="-82.8" font-family="Times,serif" font-size="14.00">forward</text>
<text text-anchor="middle" x="4028.5" y="-67.8" font-family="Times,serif" font-size="14.00">DB1/C1</text>
<text text-anchor="middle" x="4028.5" y="-52.8" font-family="Times,serif" font-size="14.00">dilation rate: 1 &#160;&#160;k width: 3</text>
<text text-anchor="middle" x="4028.5" y="-37.8" font-family="Times,serif" font-size="14.00">log gamma1: &#45;11.000000 &#160;&#160;log gamma2: &#45;11.000000</text>
<text text-anchor="middle" x="4028.5" y="-22.8" font-family="Times,serif" font-size="14.00">log lambda1: &#45;11.000000 &#160;&#160;log lambda2: &#45;11.000000</text>
<text text-anchor="middle" x="4028.5" y="-7.8" font-family="Times,serif" font-size="14.00">n kernels: 64</text>
</g>
<!-- 19&#45;&gt;33 -->
<g id="edge33" class="edge"><title>19&#45;&gt;33</title>
<path fill="none" stroke="black" d="M4138.7,-141.418C4126.43,-131.239 4110.39,-117.93 4094.36,-104.63"/>
<polygon fill="black" stroke="black" points="4096.43,-101.806 4086.5,-98.1154 4091.96,-107.194 4096.43,-101.806"/>
</g>
<!-- 34 -->
<g id="node35" class="node"><title>34</title>
<path fill="#debfe6" stroke="black" d="M4492,-98C4492,-98 4211,-98 4211,-98 4205,-98 4199,-92 4199,-86 4199,-86 4199,-12 4199,-12 4199,-6 4205,-0 4211,-0 4211,-0 4492,-0 4492,-0 4498,-0 4504,-6 4504,-12 4504,-12 4504,-86 4504,-86 4504,-92 4498,-98 4492,-98"/>
<text text-anchor="middle" x="4351.5" y="-82.8" font-family="Times,serif" font-size="14.00">merge</text>
<text text-anchor="middle" x="4351.5" y="-67.8" font-family="Times,serif" font-size="14.00">EB0/C0</text>
<text text-anchor="middle" x="4351.5" y="-52.8" font-family="Times,serif" font-size="14.00">dilation rate: 1 &#160;&#160;k width: 3</text>
<text text-anchor="middle" x="4351.5" y="-37.8" font-family="Times,serif" font-size="14.00">log gamma1: &#45;11.000000 &#160;&#160;log gamma2: &#45;11.000000</text>
<text text-anchor="middle" x="4351.5" y="-22.8" font-family="Times,serif" font-size="14.00">log lambda1: &#45;11.000000 &#160;&#160;log lambda2: &#45;11.000000</text>
<text text-anchor="middle" x="4351.5" y="-7.8" font-family="Times,serif" font-size="14.00">n kernels: 64</text>
</g>
<!-- 19&#45;&gt;34 -->
<g id="edge34" class="edge"><title>19&#45;&gt;34</title>
<path fill="none" stroke="black" d="M4192.04,-141.418C4210.44,-130.869 4234.71,-116.958 4258.74,-103.179"/>
<polygon fill="black" stroke="black" points="4260.64,-106.126 4267.57,-98.1154 4257.16,-100.053 4260.64,-106.126"/>
</g>
<!-- 35 -->
<g id="node36" class="node"><title>35</title>
<path fill="#f6d3ff" stroke="black" d="M4815,-98C4815,-98 4534,-98 4534,-98 4528,-98 4522,-92 4522,-86 4522,-86 4522,-12 4522,-12 4522,-6 4528,-0 4534,-0 4534,-0 4815,-0 4815,-0 4821,-0 4827,-6 4827,-12 4827,-12 4827,-86 4827,-86 4827,-92 4821,-98 4815,-98"/>
<text text-anchor="middle" x="4674.5" y="-82.8" font-family="Times,serif" font-size="14.00">forward</text>
<text text-anchor="middle" x="4674.5" y="-67.8" font-family="Times,serif" font-size="14.00">DB0/C0</text>
<text text-anchor="middle" x="4674.5" y="-52.8" font-family="Times,serif" font-size="14.00">dilation rate: 1 &#160;&#160;k width: 3</text>
<text text-anchor="middle" x="4674.5" y="-37.8" font-family="Times,serif" font-size="14.00">log gamma1: &#45;11.000000 &#160;&#160;log gamma2: &#45;11.000000</text>
<text text-anchor="middle" x="4674.5" y="-22.8" font-family="Times,serif" font-size="14.00">log lambda1: &#45;11.000000 &#160;&#160;log lambda2: &#45;11.000000</text>
<text text-anchor="middle" x="4674.5" y="-7.8" font-family="Times,serif" font-size="14.00">n kernels: 64</text>
</g>
<!-- 20&#45;&gt;35 -->
<g id="edge35" class="edge"><title>20&#45;&gt;35</title>
<path fill="none" stroke="black" d="M4563.12,-142.391C4575.46,-132.156 4591.9,-118.519 4608.35,-104.873"/>
<polygon fill="black" stroke="black" points="4610.95,-107.266 4616.41,-98.1876 4606.48,-101.879 4610.95,-107.266"/>
</g>
</g>
</svg>
