<?xml version="1.0" encoding="UTF-8" standalone="no"?>
<!DOCTYPE svg PUBLIC "-//W3C//DTD SVG 1.1//EN"
 "http://www.w3.org/Graphics/SVG/1.1/DTD/svg11.dtd">
<!-- Generated by graphviz version 2.38.0 (20140413.2041)
 -->
<!-- Title: %3 Pages: 1 -->
<svg width="2343pt" height="387pt"
 viewBox="0.00 0.00 2343.00 387.00" xmlns="http://www.w3.org/2000/svg" xmlns:xlink="http://www.w3.org/1999/xlink">
<g id="graph0" class="graph" transform="scale(1 1) rotate(0) translate(4 383)">
<title>%3</title>
<polygon fill="none" stroke="none" points="-4,4 -4,-383 2339,-383 2339,4 -4,4"/>
<!-- 0 -->
<g id="node1" class="node"><title>0</title>
<path fill="#ffd3d3" stroke="black" d="M1166.5,-379C1166.5,-379 886.5,-379 886.5,-379 880.5,-379 874.5,-373 874.5,-367 874.5,-367 874.5,-338 874.5,-338 874.5,-332 880.5,-326 886.5,-326 886.5,-326 1166.5,-326 1166.5,-326 1172.5,-326 1178.5,-332 1178.5,-338 1178.5,-338 1178.5,-367 1178.5,-367 1178.5,-373 1172.5,-379 1166.5,-379"/>
<text text-anchor="middle" x="1026.5" y="-363.8" font-family="Times,serif" font-size="14.00">net</text>
<text text-anchor="middle" x="1026.5" y="-348.8" font-family="Times,serif" font-size="14.00">log lambda1: &#45;11.000000 &#160;&#160;log lambda2: &#45;11.000000</text>
<text text-anchor="middle" x="1026.5" y="-333.8" font-family="Times,serif" font-size="14.00">n kernels: 66 &#160;&#160;pooling type: 0</text>
</g>
<!-- 1 -->
<g id="node2" class="node"><title>1</title>
<path fill="#f6ffd3" stroke="black" d="M733,-289C733,-289 698,-289 698,-289 692,-289 686,-283 686,-277 686,-277 686,-265 686,-265 686,-259 692,-253 698,-253 698,-253 733,-253 733,-253 739,-253 745,-259 745,-265 745,-265 745,-277 745,-277 745,-283 739,-289 733,-289"/>
<text text-anchor="middle" x="715.5" y="-267.3" font-family="Times,serif" font-size="14.00">encoder</text>
</g>
<!-- 0&#45;&gt;1 -->
<g id="edge1" class="edge"><title>0&#45;&gt;1</title>
<path fill="none" stroke="black" d="M926.386,-325.908C868.027,-310.99 797.697,-293.012 754.81,-282.049"/>
<polygon fill="black" stroke="black" points="755.6,-278.638 745.045,-279.553 753.867,-285.42 755.6,-278.638"/>
</g>
<!-- 2 -->
<g id="node3" class="node"><title>2</title>
<path fill="#f6ffd3" stroke="black" d="M1376.5,-290C1376.5,-290 1320.5,-290 1320.5,-290 1314.5,-290 1308.5,-284 1308.5,-278 1308.5,-278 1308.5,-264 1308.5,-264 1308.5,-258 1314.5,-252 1320.5,-252 1320.5,-252 1376.5,-252 1376.5,-252 1382.5,-252 1388.5,-258 1388.5,-264 1388.5,-264 1388.5,-278 1388.5,-278 1388.5,-284 1382.5,-290 1376.5,-290"/>
<text text-anchor="middle" x="1348.5" y="-274.8" font-family="Times,serif" font-size="14.00">decoder</text>
<text text-anchor="middle" x="1348.5" y="-259.8" font-family="Times,serif" font-size="14.00">n kernels: 6</text>
</g>
<!-- 0&#45;&gt;2 -->
<g id="edge2" class="edge"><title>0&#45;&gt;2</title>
<path fill="none" stroke="black" d="M1130.16,-325.908C1186.56,-311.982 1253.77,-295.389 1298.58,-284.326"/>
<polygon fill="black" stroke="black" points="1299.47,-287.709 1308.34,-281.914 1297.8,-280.913 1299.47,-287.709"/>
</g>
<!-- 3 -->
<g id="node4" class="node"><title>3</title>
<path fill="#d3ffe4" stroke="black" d="M413,-215C413,-215 338,-215 338,-215 332,-215 326,-209 326,-203 326,-203 326,-191 326,-191 326,-185 332,-179 338,-179 338,-179 413,-179 413,-179 419,-179 425,-185 425,-191 425,-191 425,-203 425,-203 425,-209 419,-215 413,-215"/>
<text text-anchor="middle" x="375.5" y="-193.3" font-family="Times,serif" font-size="14.00">encode block 0</text>
</g>
<!-- 1&#45;&gt;3 -->
<g id="edge3" class="edge"><title>1&#45;&gt;3</title>
<path fill="none" stroke="black" d="M685.922,-263.736C630.141,-251.924 508.432,-226.15 435.076,-210.616"/>
<polygon fill="black" stroke="black" points="435.566,-207.142 425.058,-208.495 434.116,-213.99 435.566,-207.142"/>
</g>
<!-- 4 -->
<g id="node5" class="node"><title>4</title>
<path fill="#bfe6cf" stroke="black" d="M753,-216C753,-216 678,-216 678,-216 672,-216 666,-210 666,-204 666,-204 666,-190 666,-190 666,-184 672,-178 678,-178 678,-178 753,-178 753,-178 759,-178 765,-184 765,-190 765,-190 765,-204 765,-204 765,-210 759,-216 753,-216"/>
<text text-anchor="middle" x="715.5" y="-200.8" font-family="Times,serif" font-size="14.00">encode block 1</text>
<text text-anchor="middle" x="715.5" y="-185.8" font-family="Times,serif" font-size="14.00">spatial scale: 1</text>
</g>
<!-- 1&#45;&gt;4 -->
<g id="edge4" class="edge"><title>1&#45;&gt;4</title>
<path fill="none" stroke="black" d="M715.5,-252.937C715.5,-244.987 715.5,-235.313 715.5,-226.313"/>
<polygon fill="black" stroke="black" points="719,-226.199 715.5,-216.199 712,-226.199 719,-226.199"/>
</g>
<!-- 5 -->
<g id="node6" class="node"><title>5</title>
<path fill="#d3ffe4" stroke="black" d="M1248,-216C1248,-216 1087,-216 1087,-216 1081,-216 1075,-210 1075,-204 1075,-204 1075,-190 1075,-190 1075,-184 1081,-178 1087,-178 1087,-178 1248,-178 1248,-178 1254,-178 1260,-184 1260,-190 1260,-190 1260,-204 1260,-204 1260,-210 1254,-216 1248,-216"/>
<text text-anchor="middle" x="1167.5" y="-200.8" font-family="Times,serif" font-size="14.00">decode block 2</text>
<text text-anchor="middle" x="1167.5" y="-185.8" font-family="Times,serif" font-size="14.00">n kernels: 216 &#160;&#160;spatial scale: 2</text>
</g>
<!-- 2&#45;&gt;5 -->
<g id="edge5" class="edge"><title>2&#45;&gt;5</title>
<path fill="none" stroke="black" d="M1308.33,-254.021C1283.08,-243.978 1250.17,-230.886 1222.52,-219.885"/>
<polygon fill="black" stroke="black" points="1223.56,-216.533 1212.97,-216.089 1220.97,-223.037 1223.56,-216.533"/>
</g>
<!-- 6 -->
<g id="node7" class="node"><title>6</title>
<path fill="#bfe6cf" stroke="black" d="M1526,-216C1526,-216 1371,-216 1371,-216 1365,-216 1359,-210 1359,-204 1359,-204 1359,-190 1359,-190 1359,-184 1365,-178 1371,-178 1371,-178 1526,-178 1526,-178 1532,-178 1538,-184 1538,-190 1538,-190 1538,-204 1538,-204 1538,-210 1532,-216 1526,-216"/>
<text text-anchor="middle" x="1448.5" y="-200.8" font-family="Times,serif" font-size="14.00">decode block 1</text>
<text text-anchor="middle" x="1448.5" y="-185.8" font-family="Times,serif" font-size="14.00">n kernels: 72 &#160;&#160;spatial scale: 1</text>
</g>
<!-- 2&#45;&gt;6 -->
<g id="edge6" class="edge"><title>2&#45;&gt;6</title>
<path fill="none" stroke="black" d="M1373.73,-251.831C1386.29,-242.793 1401.63,-231.748 1415.14,-222.02"/>
<polygon fill="black" stroke="black" points="1417.2,-224.846 1423.27,-216.163 1413.11,-219.166 1417.2,-224.846"/>
</g>
<!-- 7 -->
<g id="node8" class="node"><title>7</title>
<path fill="#abceb9" stroke="black" d="M1996,-216C1996,-216 1921,-216 1921,-216 1915,-216 1909,-210 1909,-204 1909,-204 1909,-190 1909,-190 1909,-184 1915,-178 1921,-178 1921,-178 1996,-178 1996,-178 2002,-178 2008,-184 2008,-190 2008,-190 2008,-204 2008,-204 2008,-210 2002,-216 1996,-216"/>
<text text-anchor="middle" x="1958.5" y="-200.8" font-family="Times,serif" font-size="14.00">decode block 0</text>
<text text-anchor="middle" x="1958.5" y="-185.8" font-family="Times,serif" font-size="14.00">n kernels: 14</text>
</g>
<!-- 2&#45;&gt;7 -->
<g id="edge7" class="edge"><title>2&#45;&gt;7</title>
<path fill="none" stroke="black" d="M1388.52,-265.276C1493.07,-252.937 1774.78,-219.685 1898.66,-205.063"/>
<polygon fill="black" stroke="black" points="1899.21,-208.523 1908.73,-203.875 1898.39,-201.571 1899.21,-208.523"/>
</g>
<!-- 8 -->
<g id="node9" class="node"><title>8</title>
<path fill="#d3e4ff" stroke="black" d="M151.5,-141C151.5,-141 117.5,-141 117.5,-141 111.5,-141 105.5,-135 105.5,-129 105.5,-129 105.5,-117 105.5,-117 105.5,-111 111.5,-105 117.5,-105 117.5,-105 151.5,-105 151.5,-105 157.5,-105 163.5,-111 163.5,-117 163.5,-117 163.5,-129 163.5,-129 163.5,-135 157.5,-141 151.5,-141"/>
<text text-anchor="middle" x="134.5" y="-119.3" font-family="Times,serif" font-size="14.00">comp 0</text>
</g>
<!-- 3&#45;&gt;8 -->
<g id="edge8" class="edge"><title>3&#45;&gt;8</title>
<path fill="none" stroke="black" d="M325.857,-181.169C280.667,-167.668 214.856,-148.007 173.383,-135.616"/>
<polygon fill="black" stroke="black" points="174.229,-132.216 163.646,-132.707 172.225,-138.924 174.229,-132.216"/>
</g>
<!-- 9 -->
<g id="node10" class="node"><title>9</title>
<path fill="#bfcfe6" stroke="black" d="M301.5,-141C301.5,-141 267.5,-141 267.5,-141 261.5,-141 255.5,-135 255.5,-129 255.5,-129 255.5,-117 255.5,-117 255.5,-111 261.5,-105 267.5,-105 267.5,-105 301.5,-105 301.5,-105 307.5,-105 313.5,-111 313.5,-117 313.5,-117 313.5,-129 313.5,-129 313.5,-135 307.5,-141 301.5,-141"/>
<text text-anchor="middle" x="284.5" y="-119.3" font-family="Times,serif" font-size="14.00">comp 1</text>
</g>
<!-- 3&#45;&gt;9 -->
<g id="edge9" class="edge"><title>3&#45;&gt;9</title>
<path fill="none" stroke="black" d="M353.934,-178.937C342.121,-169.59 327.298,-157.863 314.385,-147.646"/>
<polygon fill="black" stroke="black" points="316.24,-144.65 306.226,-141.19 311.897,-150.14 316.24,-144.65"/>
</g>
<!-- 10 -->
<g id="node11" class="node"><title>10</title>
<path fill="#abb9ce" stroke="black" d="M456,-142C456,-142 387,-142 387,-142 381,-142 375,-136 375,-130 375,-130 375,-116 375,-116 375,-110 381,-104 387,-104 387,-104 456,-104 456,-104 462,-104 468,-110 468,-116 468,-116 468,-130 468,-130 468,-136 462,-142 456,-142"/>
<text text-anchor="middle" x="421.5" y="-126.8" font-family="Times,serif" font-size="14.00">comp 2</text>
<text text-anchor="middle" x="421.5" y="-111.8" font-family="Times,serif" font-size="14.00">batch norm: 1</text>
</g>
<!-- 3&#45;&gt;10 -->
<g id="edge10" class="edge"><title>3&#45;&gt;10</title>
<path fill="none" stroke="black" d="M386.401,-178.937C391.757,-170.554 398.336,-160.257 404.345,-150.852"/>
<polygon fill="black" stroke="black" points="407.438,-152.511 409.873,-142.199 401.539,-148.742 407.438,-152.511"/>
</g>
<!-- 11 -->
<g id="node12" class="node"><title>11</title>
<path fill="#d3e4ff" stroke="black" d="M652.5,-141C652.5,-141 618.5,-141 618.5,-141 612.5,-141 606.5,-135 606.5,-129 606.5,-129 606.5,-117 606.5,-117 606.5,-111 612.5,-105 618.5,-105 618.5,-105 652.5,-105 652.5,-105 658.5,-105 664.5,-111 664.5,-117 664.5,-117 664.5,-129 664.5,-129 664.5,-135 658.5,-141 652.5,-141"/>
<text text-anchor="middle" x="635.5" y="-119.3" font-family="Times,serif" font-size="14.00">comp 0</text>
</g>
<!-- 4&#45;&gt;11 -->
<g id="edge11" class="edge"><title>4&#45;&gt;11</title>
<path fill="none" stroke="black" d="M695.313,-177.831C685.256,-168.78 672.964,-157.717 662.144,-147.98"/>
<polygon fill="black" stroke="black" points="664.354,-145.26 654.579,-141.171 659.671,-150.463 664.354,-145.26"/>
</g>
<!-- 12 -->
<g id="node13" class="node"><title>12</title>
<path fill="#bfcfe6" stroke="black" d="M872,-142C872,-142 717,-142 717,-142 711,-142 705,-136 705,-130 705,-130 705,-116 705,-116 705,-110 711,-104 717,-104 717,-104 872,-104 872,-104 878,-104 884,-110 884,-116 884,-116 884,-130 884,-130 884,-136 878,-142 872,-142"/>
<text text-anchor="middle" x="794.5" y="-126.8" font-family="Times,serif" font-size="14.00">comp 1</text>
<text text-anchor="middle" x="794.5" y="-111.8" font-family="Times,serif" font-size="14.00">batch norm: 1 &#160;&#160;n kernels: &#45;14</text>
</g>
<!-- 4&#45;&gt;12 -->
<g id="edge12" class="edge"><title>4&#45;&gt;12</title>
<path fill="none" stroke="black" d="M735.435,-177.831C744.978,-169.134 756.56,-158.578 766.931,-149.127"/>
<polygon fill="black" stroke="black" points="769.538,-151.486 774.571,-142.163 764.823,-146.312 769.538,-151.486"/>
</g>
<!-- 13 -->
<g id="node14" class="node"><title>13</title>
<path fill="#d3e4ff" stroke="black" d="M1024.5,-141C1024.5,-141 990.5,-141 990.5,-141 984.5,-141 978.5,-135 978.5,-129 978.5,-129 978.5,-117 978.5,-117 978.5,-111 984.5,-105 990.5,-105 990.5,-105 1024.5,-105 1024.5,-105 1030.5,-105 1036.5,-111 1036.5,-117 1036.5,-117 1036.5,-129 1036.5,-129 1036.5,-135 1030.5,-141 1024.5,-141"/>
<text text-anchor="middle" x="1007.5" y="-119.3" font-family="Times,serif" font-size="14.00">comp 0</text>
</g>
<!-- 5&#45;&gt;13 -->
<g id="edge13" class="edge"><title>5&#45;&gt;13</title>
<path fill="none" stroke="black" d="M1127.13,-177.831C1102.28,-166.651 1070.61,-152.401 1046.1,-141.371"/>
<polygon fill="black" stroke="black" points="1047.31,-138.076 1036.75,-137.164 1044.44,-144.459 1047.31,-138.076"/>
</g>
<!-- 14 -->
<g id="node15" class="node"><title>14</title>
<path fill="#bfcfe6" stroke="black" d="M1248.5,-142C1248.5,-142 1086.5,-142 1086.5,-142 1080.5,-142 1074.5,-136 1074.5,-130 1074.5,-130 1074.5,-116 1074.5,-116 1074.5,-110 1080.5,-104 1086.5,-104 1086.5,-104 1248.5,-104 1248.5,-104 1254.5,-104 1260.5,-110 1260.5,-116 1260.5,-116 1260.5,-130 1260.5,-130 1260.5,-136 1254.5,-142 1248.5,-142"/>
<text text-anchor="middle" x="1167.5" y="-126.8" font-family="Times,serif" font-size="14.00">comp 1</text>
<text text-anchor="middle" x="1167.5" y="-111.8" font-family="Times,serif" font-size="14.00">batch norm: 1 &#160;&#160;n kernels: &#45;160</text>
</g>
<!-- 5&#45;&gt;14 -->
<g id="edge14" class="edge"><title>5&#45;&gt;14</title>
<path fill="none" stroke="black" d="M1167.5,-177.831C1167.5,-170.131 1167.5,-160.974 1167.5,-152.417"/>
<polygon fill="black" stroke="black" points="1171,-152.413 1167.5,-142.413 1164,-152.413 1171,-152.413"/>
</g>
<!-- 15 -->
<g id="node16" class="node"><title>15</title>
<path fill="#d3e4ff" stroke="black" d="M1465.5,-141C1465.5,-141 1431.5,-141 1431.5,-141 1425.5,-141 1419.5,-135 1419.5,-129 1419.5,-129 1419.5,-117 1419.5,-117 1419.5,-111 1425.5,-105 1431.5,-105 1431.5,-105 1465.5,-105 1465.5,-105 1471.5,-105 1477.5,-111 1477.5,-117 1477.5,-117 1477.5,-129 1477.5,-129 1477.5,-135 1471.5,-141 1465.5,-141"/>
<text text-anchor="middle" x="1448.5" y="-119.3" font-family="Times,serif" font-size="14.00">comp 0</text>
</g>
<!-- 6&#45;&gt;15 -->
<g id="edge15" class="edge"><title>6&#45;&gt;15</title>
<path fill="none" stroke="black" d="M1448.5,-177.831C1448.5,-169.894 1448.5,-160.409 1448.5,-151.628"/>
<polygon fill="black" stroke="black" points="1452,-151.418 1448.5,-141.418 1445,-151.418 1452,-151.418"/>
</g>
<!-- 16 -->
<g id="node17" class="node"><title>16</title>
<path fill="#bfcfe6" stroke="black" d="M1620,-142C1620,-142 1551,-142 1551,-142 1545,-142 1539,-136 1539,-130 1539,-130 1539,-116 1539,-116 1539,-110 1545,-104 1551,-104 1551,-104 1620,-104 1620,-104 1626,-104 1632,-110 1632,-116 1632,-116 1632,-130 1632,-130 1632,-136 1626,-142 1620,-142"/>
<text text-anchor="middle" x="1585.5" y="-126.8" font-family="Times,serif" font-size="14.00">comp 1</text>
<text text-anchor="middle" x="1585.5" y="-111.8" font-family="Times,serif" font-size="14.00">batch norm: 1</text>
</g>
<!-- 6&#45;&gt;16 -->
<g id="edge16" class="edge"><title>6&#45;&gt;16</title>
<path fill="none" stroke="black" d="M1483.07,-177.831C1500.92,-168.452 1522.88,-156.911 1541.88,-146.924"/>
<polygon fill="black" stroke="black" points="1543.72,-149.913 1550.94,-142.163 1540.46,-143.717 1543.72,-149.913"/>
</g>
<!-- 17 -->
<g id="node18" class="node"><title>17</title>
<path fill="#d3e4ff" stroke="black" d="M1975.5,-141C1975.5,-141 1941.5,-141 1941.5,-141 1935.5,-141 1929.5,-135 1929.5,-129 1929.5,-129 1929.5,-117 1929.5,-117 1929.5,-111 1935.5,-105 1941.5,-105 1941.5,-105 1975.5,-105 1975.5,-105 1981.5,-105 1987.5,-111 1987.5,-117 1987.5,-117 1987.5,-129 1987.5,-129 1987.5,-135 1981.5,-141 1975.5,-141"/>
<text text-anchor="middle" x="1958.5" y="-119.3" font-family="Times,serif" font-size="14.00">comp 0</text>
</g>
<!-- 7&#45;&gt;17 -->
<g id="edge17" class="edge"><title>7&#45;&gt;17</title>
<path fill="none" stroke="black" d="M1958.5,-177.831C1958.5,-169.894 1958.5,-160.409 1958.5,-151.628"/>
<polygon fill="black" stroke="black" points="1962,-151.418 1958.5,-141.418 1955,-151.418 1962,-151.418"/>
</g>
<!-- 18 -->
<g id="node19" class="node"><title>18</title>
<path fill="#bfcfe6" stroke="black" d="M2220,-142C2220,-142 2151,-142 2151,-142 2145,-142 2139,-136 2139,-130 2139,-130 2139,-116 2139,-116 2139,-110 2145,-104 2151,-104 2151,-104 2220,-104 2220,-104 2226,-104 2232,-110 2232,-116 2232,-116 2232,-130 2232,-130 2232,-136 2226,-142 2220,-142"/>
<text text-anchor="middle" x="2185.5" y="-126.8" font-family="Times,serif" font-size="14.00">comp 1</text>
<text text-anchor="middle" x="2185.5" y="-111.8" font-family="Times,serif" font-size="14.00">batch norm: 1</text>
</g>
<!-- 7&#45;&gt;18 -->
<g id="edge18" class="edge"><title>7&#45;&gt;18</title>
<path fill="none" stroke="black" d="M2008.04,-180.288C2043.72,-168.969 2091.93,-153.677 2129.1,-141.889"/>
<polygon fill="black" stroke="black" points="2130.31,-145.178 2138.78,-138.818 2128.19,-138.505 2130.31,-145.178"/>
</g>
<!-- 19 -->
<g id="node20" class="node"><title>19</title>
<path fill="#f6d3ff" stroke="black" d="M151,-68C151,-68 12,-68 12,-68 6,-68 0,-62 0,-56 0,-56 0,-12 0,-12 0,-6 6,-0 12,-0 12,-0 151,-0 151,-0 157,-0 163,-6 163,-12 163,-12 163,-56 163,-56 163,-62 157,-68 151,-68"/>
<text text-anchor="middle" x="81.5" y="-52.8" font-family="Times,serif" font-size="14.00">forward</text>
<text text-anchor="middle" x="81.5" y="-37.8" font-family="Times,serif" font-size="14.00">input</text>
<text text-anchor="middle" x="81.5" y="-22.8" font-family="Times,serif" font-size="14.00">dilation rate: 1 &#160;&#160;k width: 3</text>
<text text-anchor="middle" x="81.5" y="-7.8" font-family="Times,serif" font-size="14.00">n kernels: 64</text>
</g>
<!-- 8&#45;&gt;19 -->
<g id="edge19" class="edge"><title>8&#45;&gt;19</title>
<path fill="none" stroke="black" d="M124.029,-104.812C119.082,-96.6918 112.942,-86.6128 106.88,-76.6623"/>
<polygon fill="black" stroke="black" points="109.797,-74.7226 101.606,-68.0034 103.819,-78.3644 109.797,-74.7226"/>
</g>
<!-- 20 -->
<g id="node21" class="node"><title>20</title>
<path fill="#f6d3ff" stroke="black" d="M332,-68C332,-68 193,-68 193,-68 187,-68 181,-62 181,-56 181,-56 181,-12 181,-12 181,-6 187,-0 193,-0 193,-0 332,-0 332,-0 338,-0 344,-6 344,-12 344,-12 344,-56 344,-56 344,-62 338,-68 332,-68"/>
<text text-anchor="middle" x="262.5" y="-52.8" font-family="Times,serif" font-size="14.00">forward</text>
<text text-anchor="middle" x="262.5" y="-37.8" font-family="Times,serif" font-size="14.00">EB0/C0</text>
<text text-anchor="middle" x="262.5" y="-22.8" font-family="Times,serif" font-size="14.00">dilation rate: 1 &#160;&#160;k width: 3</text>
<text text-anchor="middle" x="262.5" y="-7.8" font-family="Times,serif" font-size="14.00">n kernels: 64</text>
</g>
<!-- 9&#45;&gt;20 -->
<g id="edge20" class="edge"><title>9&#45;&gt;20</title>
<path fill="none" stroke="black" d="M280.154,-104.812C278.183,-97.0199 275.757,-87.4241 273.34,-77.8689"/>
<polygon fill="black" stroke="black" points="276.691,-76.8402 270.846,-68.0034 269.904,-78.5563 276.691,-76.8402"/>
</g>
<!-- 21 -->
<g id="node22" class="node"><title>21</title>
<path fill="#f6d3ff" stroke="black" d="M513,-68C513,-68 374,-68 374,-68 368,-68 362,-62 362,-56 362,-56 362,-12 362,-12 362,-6 368,-0 374,-0 374,-0 513,-0 513,-0 519,-0 525,-6 525,-12 525,-12 525,-56 525,-56 525,-62 519,-68 513,-68"/>
<text text-anchor="middle" x="443.5" y="-52.8" font-family="Times,serif" font-size="14.00">forward</text>
<text text-anchor="middle" x="443.5" y="-37.8" font-family="Times,serif" font-size="14.00">EB0/C1</text>
<text text-anchor="middle" x="443.5" y="-22.8" font-family="Times,serif" font-size="14.00">dilation rate: 1 &#160;&#160;k width: 3</text>
<text text-anchor="middle" x="443.5" y="-7.8" font-family="Times,serif" font-size="14.00">n kernels: 64</text>
</g>
<!-- 10&#45;&gt;21 -->
<g id="edge21" class="edge"><title>10&#45;&gt;21</title>
<path fill="none" stroke="black" d="M426.058,-103.974C427.981,-96.371 430.309,-87.1656 432.629,-77.9905"/>
<polygon fill="black" stroke="black" points="436.065,-78.6765 435.124,-68.1236 429.279,-76.9604 436.065,-78.6765"/>
</g>
<!-- 22 -->
<g id="node23" class="node"><title>22</title>
<path fill="#f6d3ff" stroke="black" d="M694,-68C694,-68 555,-68 555,-68 549,-68 543,-62 543,-56 543,-56 543,-12 543,-12 543,-6 549,-0 555,-0 555,-0 694,-0 694,-0 700,-0 706,-6 706,-12 706,-12 706,-56 706,-56 706,-62 700,-68 694,-68"/>
<text text-anchor="middle" x="624.5" y="-52.8" font-family="Times,serif" font-size="14.00">forward</text>
<text text-anchor="middle" x="624.5" y="-37.8" font-family="Times,serif" font-size="14.00">EB0/C2</text>
<text text-anchor="middle" x="624.5" y="-22.8" font-family="Times,serif" font-size="14.00">dilation rate: 1 &#160;&#160;k width: 3</text>
<text text-anchor="middle" x="624.5" y="-7.8" font-family="Times,serif" font-size="14.00">n kernels: 64</text>
</g>
<!-- 11&#45;&gt;22 -->
<g id="edge22" class="edge"><title>11&#45;&gt;22</title>
<path fill="none" stroke="black" d="M633.327,-104.812C632.352,-97.1019 631.154,-87.6259 629.958,-78.1706"/>
<polygon fill="black" stroke="black" points="633.4,-77.4853 628.673,-68.0034 626.455,-78.3635 633.4,-77.4853"/>
</g>
<!-- 23 -->
<g id="node24" class="node"><title>23</title>
<path fill="#f6d3ff" stroke="black" d="M875,-68C875,-68 736,-68 736,-68 730,-68 724,-62 724,-56 724,-56 724,-12 724,-12 724,-6 730,-0 736,-0 736,-0 875,-0 875,-0 881,-0 887,-6 887,-12 887,-12 887,-56 887,-56 887,-62 881,-68 875,-68"/>
<text text-anchor="middle" x="805.5" y="-52.8" font-family="Times,serif" font-size="14.00">forward</text>
<text text-anchor="middle" x="805.5" y="-37.8" font-family="Times,serif" font-size="14.00">EB1/C0</text>
<text text-anchor="middle" x="805.5" y="-22.8" font-family="Times,serif" font-size="14.00">dilation rate: 1 &#160;&#160;k width: 3</text>
<text text-anchor="middle" x="805.5" y="-7.8" font-family="Times,serif" font-size="14.00">n kernels: 64</text>
</g>
<!-- 12&#45;&gt;23 -->
<g id="edge23" class="edge"><title>12&#45;&gt;23</title>
<path fill="none" stroke="black" d="M796.779,-103.974C797.73,-96.4519 798.88,-87.3613 800.027,-78.2833"/>
<polygon fill="black" stroke="black" points="803.53,-78.4837 801.312,-68.1236 796.585,-77.6056 803.53,-78.4837"/>
</g>
<!-- 24 -->
<g id="node25" class="node"><title>24</title>
<path fill="#f6d3ff" stroke="black" d="M1056,-68C1056,-68 917,-68 917,-68 911,-68 905,-62 905,-56 905,-56 905,-12 905,-12 905,-6 911,-0 917,-0 917,-0 1056,-0 1056,-0 1062,-0 1068,-6 1068,-12 1068,-12 1068,-56 1068,-56 1068,-62 1062,-68 1056,-68"/>
<text text-anchor="middle" x="986.5" y="-52.8" font-family="Times,serif" font-size="14.00">forward</text>
<text text-anchor="middle" x="986.5" y="-37.8" font-family="Times,serif" font-size="14.00">EB1/C1</text>
<text text-anchor="middle" x="986.5" y="-22.8" font-family="Times,serif" font-size="14.00">dilation rate: 1 &#160;&#160;k width: 3</text>
<text text-anchor="middle" x="986.5" y="-7.8" font-family="Times,serif" font-size="14.00">n kernels: 64</text>
</g>
<!-- 13&#45;&gt;24 -->
<g id="edge24" class="edge"><title>13&#45;&gt;24</title>
<path fill="none" stroke="black" d="M1003.35,-104.812C1001.47,-97.0199 999.154,-87.4241 996.848,-77.8689"/>
<polygon fill="black" stroke="black" points="1000.22,-76.9029 994.466,-68.0034 993.411,-78.5455 1000.22,-76.9029"/>
</g>
<!-- 25 -->
<g id="node26" class="node"><title>25</title>
<path fill="#f6d3ff" stroke="black" d="M1237,-68C1237,-68 1098,-68 1098,-68 1092,-68 1086,-62 1086,-56 1086,-56 1086,-12 1086,-12 1086,-6 1092,-0 1098,-0 1098,-0 1237,-0 1237,-0 1243,-0 1249,-6 1249,-12 1249,-12 1249,-56 1249,-56 1249,-62 1243,-68 1237,-68"/>
<text text-anchor="middle" x="1167.5" y="-52.8" font-family="Times,serif" font-size="14.00">forward</text>
<text text-anchor="middle" x="1167.5" y="-37.8" font-family="Times,serif" font-size="14.00">DB2/C0</text>
<text text-anchor="middle" x="1167.5" y="-22.8" font-family="Times,serif" font-size="14.00">dilation rate: 1 &#160;&#160;k width: 3</text>
<text text-anchor="middle" x="1167.5" y="-7.8" font-family="Times,serif" font-size="14.00">n kernels: 64</text>
</g>
<!-- 14&#45;&gt;25 -->
<g id="edge25" class="edge"><title>14&#45;&gt;25</title>
<path fill="none" stroke="black" d="M1167.5,-103.974C1167.5,-96.4519 1167.5,-87.3613 1167.5,-78.2833"/>
<polygon fill="black" stroke="black" points="1171,-78.1236 1167.5,-68.1236 1164,-78.1237 1171,-78.1236"/>
</g>
<!-- 26 -->
<g id="node27" class="node"><title>26</title>
<path fill="#f6d3ff" stroke="black" d="M1418,-68C1418,-68 1279,-68 1279,-68 1273,-68 1267,-62 1267,-56 1267,-56 1267,-12 1267,-12 1267,-6 1273,-0 1279,-0 1279,-0 1418,-0 1418,-0 1424,-0 1430,-6 1430,-12 1430,-12 1430,-56 1430,-56 1430,-62 1424,-68 1418,-68"/>
<text text-anchor="middle" x="1348.5" y="-52.8" font-family="Times,serif" font-size="14.00">forward</text>
<text text-anchor="middle" x="1348.5" y="-37.8" font-family="Times,serif" font-size="14.00">DB2/C1</text>
<text text-anchor="middle" x="1348.5" y="-22.8" font-family="Times,serif" font-size="14.00">dilation rate: 1 &#160;&#160;k width: 3</text>
<text text-anchor="middle" x="1348.5" y="-7.8" font-family="Times,serif" font-size="14.00">n kernels: 64</text>
</g>
<!-- 15&#45;&gt;26 -->
<g id="edge26" class="edge"><title>15&#45;&gt;26</title>
<path fill="none" stroke="black" d="M1428.74,-104.812C1418.84,-96.1997 1406.41,-85.3839 1394.31,-74.855"/>
<polygon fill="black" stroke="black" points="1396.28,-71.9265 1386.43,-68.0034 1391.68,-77.2076 1396.28,-71.9265"/>
</g>
<!-- 27 -->
<g id="node28" class="node"><title>27</title>
<path fill="#debfe6" stroke="black" d="M1599,-68C1599,-68 1460,-68 1460,-68 1454,-68 1448,-62 1448,-56 1448,-56 1448,-12 1448,-12 1448,-6 1454,-0 1460,-0 1460,-0 1599,-0 1599,-0 1605,-0 1611,-6 1611,-12 1611,-12 1611,-56 1611,-56 1611,-62 1605,-68 1599,-68"/>
<text text-anchor="middle" x="1529.5" y="-52.8" font-family="Times,serif" font-size="14.00">merge</text>
<text text-anchor="middle" x="1529.5" y="-37.8" font-family="Times,serif" font-size="14.00">EB1/C1</text>
<text text-anchor="middle" x="1529.5" y="-22.8" font-family="Times,serif" font-size="14.00">dilation rate: 1 &#160;&#160;k width: 3</text>
<text text-anchor="middle" x="1529.5" y="-7.8" font-family="Times,serif" font-size="14.00">n kernels: 64</text>
</g>
<!-- 15&#45;&gt;27 -->
<g id="edge27" class="edge"><title>15&#45;&gt;27</title>
<path fill="none" stroke="black" d="M1464.5,-104.812C1472.37,-96.3637 1482.21,-85.7951 1491.83,-75.4569"/>
<polygon fill="black" stroke="black" points="1494.52,-77.7073 1498.77,-68.0034 1489.4,-72.9374 1494.52,-77.7073"/>
</g>
<!-- 28 -->
<g id="node29" class="node"><title>28</title>
<path fill="#f6d3ff" stroke="black" d="M1780,-68C1780,-68 1641,-68 1641,-68 1635,-68 1629,-62 1629,-56 1629,-56 1629,-12 1629,-12 1629,-6 1635,-0 1641,-0 1641,-0 1780,-0 1780,-0 1786,-0 1792,-6 1792,-12 1792,-12 1792,-56 1792,-56 1792,-62 1786,-68 1780,-68"/>
<text text-anchor="middle" x="1710.5" y="-52.8" font-family="Times,serif" font-size="14.00">forward</text>
<text text-anchor="middle" x="1710.5" y="-37.8" font-family="Times,serif" font-size="14.00">DB1/C0</text>
<text text-anchor="middle" x="1710.5" y="-22.8" font-family="Times,serif" font-size="14.00">dilation rate: 1 &#160;&#160;k width: 3</text>
<text text-anchor="middle" x="1710.5" y="-7.8" font-family="Times,serif" font-size="14.00">n kernels: 64</text>
</g>
<!-- 16&#45;&gt;28 -->
<g id="edge28" class="edge"><title>16&#45;&gt;28</title>
<path fill="none" stroke="black" d="M1611.4,-103.974C1623.95,-95.2387 1639.54,-84.3881 1654.61,-73.8984"/>
<polygon fill="black" stroke="black" points="1656.7,-76.7089 1662.91,-68.1236 1652.7,-70.9635 1656.7,-76.7089"/>
</g>
<!-- 29 -->
<g id="node30" class="node"><title>29</title>
<path fill="#f6d3ff" stroke="black" d="M1961,-68C1961,-68 1822,-68 1822,-68 1816,-68 1810,-62 1810,-56 1810,-56 1810,-12 1810,-12 1810,-6 1816,-0 1822,-0 1822,-0 1961,-0 1961,-0 1967,-0 1973,-6 1973,-12 1973,-12 1973,-56 1973,-56 1973,-62 1967,-68 1961,-68"/>
<text text-anchor="middle" x="1891.5" y="-52.8" font-family="Times,serif" font-size="14.00">forward</text>
<text text-anchor="middle" x="1891.5" y="-37.8" font-family="Times,serif" font-size="14.00">DB1/C1</text>
<text text-anchor="middle" x="1891.5" y="-22.8" font-family="Times,serif" font-size="14.00">dilation rate: 1 &#160;&#160;k width: 3</text>
<text text-anchor="middle" x="1891.5" y="-7.8" font-family="Times,serif" font-size="14.00">n kernels: 64</text>
</g>
<!-- 17&#45;&gt;29 -->
<g id="edge29" class="edge"><title>17&#45;&gt;29</title>
<path fill="none" stroke="black" d="M1945.26,-104.812C1938.88,-96.5278 1930.93,-86.2048 1923.12,-76.0594"/>
<polygon fill="black" stroke="black" points="1925.79,-73.7907 1916.92,-68.0034 1920.24,-78.0618 1925.79,-73.7907"/>
</g>
<!-- 30 -->
<g id="node31" class="node"><title>30</title>
<path fill="#debfe6" stroke="black" d="M2142,-68C2142,-68 2003,-68 2003,-68 1997,-68 1991,-62 1991,-56 1991,-56 1991,-12 1991,-12 1991,-6 1997,-0 2003,-0 2003,-0 2142,-0 2142,-0 2148,-0 2154,-6 2154,-12 2154,-12 2154,-56 2154,-56 2154,-62 2148,-68 2142,-68"/>
<text text-anchor="middle" x="2072.5" y="-52.8" font-family="Times,serif" font-size="14.00">merge</text>
<text text-anchor="middle" x="2072.5" y="-37.8" font-family="Times,serif" font-size="14.00">EB0/C2</text>
<text text-anchor="middle" x="2072.5" y="-22.8" font-family="Times,serif" font-size="14.00">dilation rate: 1 &#160;&#160;k width: 3</text>
<text text-anchor="middle" x="2072.5" y="-7.8" font-family="Times,serif" font-size="14.00">n kernels: 64</text>
</g>
<!-- 17&#45;&gt;30 -->
<g id="edge30" class="edge"><title>17&#45;&gt;30</title>
<path fill="none" stroke="black" d="M1981.02,-104.812C1992.52,-96.0357 2007.02,-84.9711 2021.06,-74.2536"/>
<polygon fill="black" stroke="black" points="2023.43,-76.8525 2029.25,-68.0034 2019.18,-71.2878 2023.43,-76.8525"/>
</g>
<!-- 31 -->
<g id="node32" class="node"><title>31</title>
<path fill="#f6d3ff" stroke="black" d="M2323,-68C2323,-68 2184,-68 2184,-68 2178,-68 2172,-62 2172,-56 2172,-56 2172,-12 2172,-12 2172,-6 2178,-0 2184,-0 2184,-0 2323,-0 2323,-0 2329,-0 2335,-6 2335,-12 2335,-12 2335,-56 2335,-56 2335,-62 2329,-68 2323,-68"/>
<text text-anchor="middle" x="2253.5" y="-52.8" font-family="Times,serif" font-size="14.00">forward</text>
<text text-anchor="middle" x="2253.5" y="-37.8" font-family="Times,serif" font-size="14.00">DB0/C0</text>
<text text-anchor="middle" x="2253.5" y="-22.8" font-family="Times,serif" font-size="14.00">dilation rate: 1 &#160;&#160;k width: 3</text>
<text text-anchor="middle" x="2253.5" y="-7.8" font-family="Times,serif" font-size="14.00">n kernels: 64</text>
</g>
<!-- 18&#45;&gt;31 -->
<g id="edge31" class="edge"><title>18&#45;&gt;31</title>
<path fill="none" stroke="black" d="M2199.59,-103.974C2205.91,-95.8857 2213.65,-85.9839 2221.27,-76.2343"/>
<polygon fill="black" stroke="black" points="2224.21,-78.1579 2227.61,-68.1236 2218.69,-73.8471 2224.21,-78.1579"/>
</g>
</g>
</svg>
