<?xml version="1.0" encoding="UTF-8" standalone="no"?>
<!DOCTYPE svg PUBLIC "-//W3C//DTD SVG 1.1//EN"
 "http://www.w3.org/Graphics/SVG/1.1/DTD/svg11.dtd">
<!-- Generated by graphviz version 2.38.0 (20140413.2041)
 -->
<!-- Title: %3 Pages: 1 -->
<svg width="3046pt" height="298pt"
 viewBox="0.00 0.00 3045.50 298.00" xmlns="http://www.w3.org/2000/svg" xmlns:xlink="http://www.w3.org/1999/xlink">
<g id="graph0" class="graph" transform="scale(1 1) rotate(0) translate(4 294)">
<title>%3</title>
<polygon fill="none" stroke="none" points="-4,4 -4,-294 3041.5,-294 3041.5,4 -4,4"/>
<!-- 0 -->
<g id="node1" class="node"><title>0</title>
<path fill="#ffd3d3" stroke="black" d="M1727,-290C1727,-290 1573,-290 1573,-290 1567,-290 1561,-284 1561,-278 1561,-278 1561,-249 1561,-249 1561,-243 1567,-237 1573,-237 1573,-237 1727,-237 1727,-237 1733,-237 1739,-243 1739,-249 1739,-249 1739,-278 1739,-278 1739,-284 1733,-290 1727,-290"/>
<text text-anchor="middle" x="1650" y="-274.8" font-family="Times,serif" font-size="14.00">net</text>
<text text-anchor="middle" x="1650" y="-259.8" font-family="Times,serif" font-size="14.00">dilation rate: 1 &#160;&#160;n kernels: 22</text>
<text text-anchor="middle" x="1650" y="-244.8" font-family="Times,serif" font-size="14.00">pooling type: 0</text>
</g>
<!-- 1 -->
<g id="node2" class="node"><title>1</title>
<path fill="#e9ffd3" stroke="black" d="M766.5,-201C766.5,-201 555.5,-201 555.5,-201 549.5,-201 543.5,-195 543.5,-189 543.5,-189 543.5,-175 543.5,-175 543.5,-169 549.5,-163 555.5,-163 555.5,-163 766.5,-163 766.5,-163 772.5,-163 778.5,-169 778.5,-175 778.5,-175 778.5,-189 778.5,-189 778.5,-195 772.5,-201 766.5,-201"/>
<text text-anchor="middle" x="661" y="-185.8" font-family="Times,serif" font-size="14.00">conv block 0</text>
<text text-anchor="middle" x="661" y="-170.8" font-family="Times,serif" font-size="14.00">dilation rate: 1 &#160;&#160;log gamma2: 1.000000</text>
</g>
<!-- 0&#45;&gt;1 -->
<g id="edge1" class="edge"><title>0&#45;&gt;1</title>
<path fill="none" stroke="black" d="M1560.93,-255.34C1385.01,-241.199 992.459,-209.644 788.912,-193.282"/>
<polygon fill="black" stroke="black" points="789.015,-189.779 778.767,-192.467 788.454,-196.757 789.015,-189.779"/>
</g>
<!-- 2 -->
<g id="node3" class="node"><title>2</title>
<path fill="#e9ffd3" stroke="black" d="M1686,-201C1686,-201 1614,-201 1614,-201 1608,-201 1602,-195 1602,-189 1602,-189 1602,-175 1602,-175 1602,-169 1608,-163 1614,-163 1614,-163 1686,-163 1686,-163 1692,-163 1698,-169 1698,-175 1698,-175 1698,-189 1698,-189 1698,-195 1692,-201 1686,-201"/>
<text text-anchor="middle" x="1650" y="-185.8" font-family="Times,serif" font-size="14.00">conv block 1</text>
<text text-anchor="middle" x="1650" y="-170.8" font-family="Times,serif" font-size="14.00">dilation rate: 1</text>
</g>
<!-- 0&#45;&gt;2 -->
<g id="edge2" class="edge"><title>0&#45;&gt;2</title>
<path fill="none" stroke="black" d="M1650,-236.908C1650,-228.738 1650,-219.649 1650,-211.298"/>
<polygon fill="black" stroke="black" points="1653.5,-211.239 1650,-201.239 1646.5,-211.239 1653.5,-211.239"/>
</g>
<!-- 3 -->
<g id="node4" class="node"><title>3</title>
<path fill="#e9ffd3" stroke="black" d="M2647.5,-201C2647.5,-201 2436.5,-201 2436.5,-201 2430.5,-201 2424.5,-195 2424.5,-189 2424.5,-189 2424.5,-175 2424.5,-175 2424.5,-169 2430.5,-163 2436.5,-163 2436.5,-163 2647.5,-163 2647.5,-163 2653.5,-163 2659.5,-169 2659.5,-175 2659.5,-175 2659.5,-189 2659.5,-189 2659.5,-195 2653.5,-201 2647.5,-201"/>
<text text-anchor="middle" x="2542" y="-185.8" font-family="Times,serif" font-size="14.00">conv block 2</text>
<text text-anchor="middle" x="2542" y="-170.8" font-family="Times,serif" font-size="14.00">dilation rate: 3 &#160;&#160;log gamma2: 1.000000</text>
</g>
<!-- 0&#45;&gt;3 -->
<g id="edge3" class="edge"><title>0&#45;&gt;3</title>
<path fill="none" stroke="black" d="M1739.2,-254.55C1898.13,-240.385 2230.76,-210.74 2414.04,-194.405"/>
<polygon fill="black" stroke="black" points="2414.62,-197.867 2424.27,-193.493 2414,-190.894 2414.62,-197.867"/>
</g>
<!-- 4 -->
<g id="node5" class="node"><title>4</title>
<path fill="#d3ffff" stroke="black" d="M132,-119.5C132,-119.5 12,-119.5 12,-119.5 6,-119.5 0,-113.5 0,-107.5 0,-107.5 0,-93.5 0,-93.5 0,-87.5 6,-81.5 12,-81.5 12,-81.5 132,-81.5 132,-81.5 138,-81.5 144,-87.5 144,-93.5 144,-93.5 144,-107.5 144,-107.5 144,-113.5 138,-119.5 132,-119.5"/>
<text text-anchor="middle" x="72" y="-104.3" font-family="Times,serif" font-size="14.00">comp 0</text>
<text text-anchor="middle" x="72" y="-89.3" font-family="Times,serif" font-size="14.00">log gamma2: 0.730375</text>
</g>
<!-- 1&#45;&gt;4 -->
<g id="edge4" class="edge"><title>1&#45;&gt;4</title>
<path fill="none" stroke="black" d="M543.455,-175.155C439.828,-168.428 285.193,-154.547 153,-127 146.749,-125.697 140.294,-124.106 133.884,-122.36"/>
<polygon fill="black" stroke="black" points="134.459,-118.884 123.883,-119.509 132.54,-125.616 134.459,-118.884"/>
</g>
<!-- 5 -->
<g id="node6" class="node"><title>5</title>
<path fill="#bfe6e6" stroke="black" d="M378,-119.5C378,-119.5 174,-119.5 174,-119.5 168,-119.5 162,-113.5 162,-107.5 162,-107.5 162,-93.5 162,-93.5 162,-87.5 168,-81.5 174,-81.5 174,-81.5 378,-81.5 378,-81.5 384,-81.5 390,-87.5 390,-93.5 390,-93.5 390,-107.5 390,-107.5 390,-113.5 384,-119.5 378,-119.5"/>
<text text-anchor="middle" x="276" y="-104.3" font-family="Times,serif" font-size="14.00">comp 1</text>
<text text-anchor="middle" x="276" y="-89.3" font-family="Times,serif" font-size="14.00">log gamma1: &#45;0.582629 &#160;&#160;n kernels: &#45;6</text>
</g>
<!-- 1&#45;&gt;5 -->
<g id="edge5" class="edge"><title>1&#45;&gt;5</title>
<path fill="none" stroke="black" d="M573.363,-162.964C522.459,-152.481 457.102,-139.01 399,-127 390.543,-125.252 381.76,-123.434 372.953,-121.611"/>
<polygon fill="black" stroke="black" points="373.518,-118.154 363.016,-119.553 372.099,-125.008 373.518,-118.154"/>
</g>
<!-- 6 -->
<g id="node7" class="node"><title>6</title>
<path fill="#abcece" stroke="black" d="M540,-119.5C540,-119.5 420,-119.5 420,-119.5 414,-119.5 408,-113.5 408,-107.5 408,-107.5 408,-93.5 408,-93.5 408,-87.5 414,-81.5 420,-81.5 420,-81.5 540,-81.5 540,-81.5 546,-81.5 552,-87.5 552,-93.5 552,-93.5 552,-107.5 552,-107.5 552,-113.5 546,-119.5 540,-119.5"/>
<text text-anchor="middle" x="480" y="-104.3" font-family="Times,serif" font-size="14.00">comp 2</text>
<text text-anchor="middle" x="480" y="-89.3" font-family="Times,serif" font-size="14.00">log gamma1: 0.267555</text>
</g>
<!-- 1&#45;&gt;6 -->
<g id="edge6" class="edge"><title>1&#45;&gt;6</title>
<path fill="none" stroke="black" d="M619.928,-162.96C593.409,-151.312 558.721,-136.076 530.517,-123.688"/>
<polygon fill="black" stroke="black" points="531.785,-120.423 521.222,-119.606 528.97,-126.832 531.785,-120.423"/>
</g>
<!-- 7 -->
<g id="node8" class="node"><title>7</title>
<path fill="#97b6b6" stroke="black" d="M740,-119.5C740,-119.5 582,-119.5 582,-119.5 576,-119.5 570,-113.5 570,-107.5 570,-107.5 570,-93.5 570,-93.5 570,-87.5 576,-81.5 582,-81.5 582,-81.5 740,-81.5 740,-81.5 746,-81.5 752,-87.5 752,-93.5 752,-93.5 752,-107.5 752,-107.5 752,-113.5 746,-119.5 740,-119.5"/>
<text text-anchor="middle" x="661" y="-104.3" font-family="Times,serif" font-size="14.00">comp 3</text>
<text text-anchor="middle" x="661" y="-89.3" font-family="Times,serif" font-size="14.00">dilation rate: &#45;1 &#160;&#160;n kernels: 13</text>
</g>
<!-- 1&#45;&gt;7 -->
<g id="edge7" class="edge"><title>1&#45;&gt;7</title>
<path fill="none" stroke="black" d="M661,-162.96C661,-153.17 661,-140.845 661,-129.807"/>
<polygon fill="black" stroke="black" points="664.5,-129.744 661,-119.744 657.5,-129.744 664.5,-129.744"/>
</g>
<!-- 8 -->
<g id="node9" class="node"><title>8</title>
<path fill="#839e9e" stroke="black" d="M902,-119.5C902,-119.5 782,-119.5 782,-119.5 776,-119.5 770,-113.5 770,-107.5 770,-107.5 770,-93.5 770,-93.5 770,-87.5 776,-81.5 782,-81.5 782,-81.5 902,-81.5 902,-81.5 908,-81.5 914,-87.5 914,-93.5 914,-93.5 914,-107.5 914,-107.5 914,-113.5 908,-119.5 902,-119.5"/>
<text text-anchor="middle" x="842" y="-104.3" font-family="Times,serif" font-size="14.00">comp 4</text>
<text text-anchor="middle" x="842" y="-89.3" font-family="Times,serif" font-size="14.00">log gamma1: 0.856689</text>
</g>
<!-- 1&#45;&gt;8 -->
<g id="edge8" class="edge"><title>1&#45;&gt;8</title>
<path fill="none" stroke="black" d="M702.072,-162.96C728.591,-151.312 763.279,-136.076 791.483,-123.688"/>
<polygon fill="black" stroke="black" points="793.03,-126.832 800.778,-119.606 790.215,-120.423 793.03,-126.832"/>
</g>
<!-- 9 -->
<g id="node10" class="node"><title>9</title>
<path fill="#6f8585" stroke="black" d="M978,-118.5C978,-118.5 944,-118.5 944,-118.5 938,-118.5 932,-112.5 932,-106.5 932,-106.5 932,-94.5 932,-94.5 932,-88.5 938,-82.5 944,-82.5 944,-82.5 978,-82.5 978,-82.5 984,-82.5 990,-88.5 990,-94.5 990,-94.5 990,-106.5 990,-106.5 990,-112.5 984,-118.5 978,-118.5"/>
<text text-anchor="middle" x="961" y="-96.8" font-family="Times,serif" font-size="14.00">identity</text>
</g>
<!-- 1&#45;&gt;9 -->
<g id="edge9" class="edge"><title>1&#45;&gt;9</title>
<path fill="none" stroke="black" d="M778.683,-166.719C824.881,-158.572 877.603,-146.041 923,-127 925.143,-126.101 927.292,-125.075 929.419,-123.962"/>
<polygon fill="black" stroke="black" points="931.634,-126.721 938.502,-118.654 928.102,-120.677 931.634,-126.721"/>
</g>
<!-- 10 -->
<g id="node11" class="node"><title>10</title>
<path fill="#d3ffff" stroke="black" d="M1234.5,-119.5C1234.5,-119.5 1019.5,-119.5 1019.5,-119.5 1013.5,-119.5 1007.5,-113.5 1007.5,-107.5 1007.5,-107.5 1007.5,-93.5 1007.5,-93.5 1007.5,-87.5 1013.5,-81.5 1019.5,-81.5 1019.5,-81.5 1234.5,-81.5 1234.5,-81.5 1240.5,-81.5 1246.5,-87.5 1246.5,-93.5 1246.5,-93.5 1246.5,-107.5 1246.5,-107.5 1246.5,-113.5 1240.5,-119.5 1234.5,-119.5"/>
<text text-anchor="middle" x="1127" y="-104.3" font-family="Times,serif" font-size="14.00">comp 0</text>
<text text-anchor="middle" x="1127" y="-89.3" font-family="Times,serif" font-size="14.00">dilation rate: &#45;1 &#160;&#160;log gamma2: 1.941623</text>
</g>
<!-- 2&#45;&gt;10 -->
<g id="edge10" class="edge"><title>2&#45;&gt;10</title>
<path fill="none" stroke="black" d="M1601.82,-175.372C1527.28,-166.447 1379.57,-147.904 1255,-127 1244.92,-125.309 1234.43,-123.423 1223.97,-121.463"/>
<polygon fill="black" stroke="black" points="1224.45,-117.991 1213.97,-119.564 1223.14,-124.868 1224.45,-117.991"/>
</g>
<!-- 11 -->
<g id="node12" class="node"><title>11</title>
<path fill="#bfe6e6" stroke="black" d="M1476,-119.5C1476,-119.5 1276,-119.5 1276,-119.5 1270,-119.5 1264,-113.5 1264,-107.5 1264,-107.5 1264,-93.5 1264,-93.5 1264,-87.5 1270,-81.5 1276,-81.5 1276,-81.5 1476,-81.5 1476,-81.5 1482,-81.5 1488,-87.5 1488,-93.5 1488,-93.5 1488,-107.5 1488,-107.5 1488,-113.5 1482,-119.5 1476,-119.5"/>
<text text-anchor="middle" x="1376" y="-104.3" font-family="Times,serif" font-size="14.00">comp 1</text>
<text text-anchor="middle" x="1376" y="-89.3" font-family="Times,serif" font-size="14.00">log gamma1: 1.783640 &#160;&#160;n kernels: &#45;1</text>
</g>
<!-- 2&#45;&gt;11 -->
<g id="edge11" class="edge"><title>2&#45;&gt;11</title>
<path fill="none" stroke="black" d="M1601.96,-167.061C1559.39,-154.709 1496.62,-136.497 1448.04,-122.401"/>
<polygon fill="black" stroke="black" points="1448.79,-118.974 1438.21,-119.549 1446.84,-125.697 1448.79,-118.974"/>
</g>
<!-- 12 -->
<g id="node13" class="node"><title>12</title>
<path fill="#abcece" stroke="black" d="M1781.5,-127C1781.5,-127 1518.5,-127 1518.5,-127 1512.5,-127 1506.5,-121 1506.5,-115 1506.5,-115 1506.5,-86 1506.5,-86 1506.5,-80 1512.5,-74 1518.5,-74 1518.5,-74 1781.5,-74 1781.5,-74 1787.5,-74 1793.5,-80 1793.5,-86 1793.5,-86 1793.5,-115 1793.5,-115 1793.5,-121 1787.5,-127 1781.5,-127"/>
<text text-anchor="middle" x="1650" y="-111.8" font-family="Times,serif" font-size="14.00">comp 2</text>
<text text-anchor="middle" x="1650" y="-96.8" font-family="Times,serif" font-size="14.00">log gamma1: &#45;1.347526 &#160;&#160;log gamma2: 1.000000</text>
<text text-anchor="middle" x="1650" y="-81.8" font-family="Times,serif" font-size="14.00">n kernels: &#45;3</text>
</g>
<!-- 2&#45;&gt;12 -->
<g id="edge12" class="edge"><title>2&#45;&gt;12</title>
<path fill="none" stroke="black" d="M1650,-162.96C1650,-155.321 1650,-146.139 1650,-137.229"/>
<polygon fill="black" stroke="black" points="1653.5,-137.003 1650,-127.003 1646.5,-137.003 1653.5,-137.003"/>
</g>
<!-- 13 -->
<g id="node14" class="node"><title>13</title>
<path fill="#97b6b6" stroke="black" d="M2028,-119.5C2028,-119.5 1824,-119.5 1824,-119.5 1818,-119.5 1812,-113.5 1812,-107.5 1812,-107.5 1812,-93.5 1812,-93.5 1812,-87.5 1818,-81.5 1824,-81.5 1824,-81.5 2028,-81.5 2028,-81.5 2034,-81.5 2040,-87.5 2040,-93.5 2040,-93.5 2040,-107.5 2040,-107.5 2040,-113.5 2034,-119.5 2028,-119.5"/>
<text text-anchor="middle" x="1926" y="-104.3" font-family="Times,serif" font-size="14.00">comp 3</text>
<text text-anchor="middle" x="1926" y="-89.3" font-family="Times,serif" font-size="14.00">log gamma1: &#45;0.815492 &#160;&#160;n kernels: &#45;6</text>
</g>
<!-- 2&#45;&gt;13 -->
<g id="edge13" class="edge"><title>2&#45;&gt;13</title>
<path fill="none" stroke="black" d="M1698.08,-167.152C1741.08,-154.765 1804.72,-136.435 1853.83,-122.289"/>
<polygon fill="black" stroke="black" points="1854.81,-125.649 1863.45,-119.518 1852.87,-118.923 1854.81,-125.649"/>
</g>
<!-- 14 -->
<g id="node15" class="node"><title>14</title>
<path fill="#839e9e" stroke="black" d="M2104,-118.5C2104,-118.5 2070,-118.5 2070,-118.5 2064,-118.5 2058,-112.5 2058,-106.5 2058,-106.5 2058,-94.5 2058,-94.5 2058,-88.5 2064,-82.5 2070,-82.5 2070,-82.5 2104,-82.5 2104,-82.5 2110,-82.5 2116,-88.5 2116,-94.5 2116,-94.5 2116,-106.5 2116,-106.5 2116,-112.5 2110,-118.5 2104,-118.5"/>
<text text-anchor="middle" x="2087" y="-96.8" font-family="Times,serif" font-size="14.00">identity</text>
</g>
<!-- 2&#45;&gt;14 -->
<g id="edge14" class="edge"><title>2&#45;&gt;14</title>
<path fill="none" stroke="black" d="M1698.08,-181.423C1774.82,-180.593 1928.59,-172.706 2049,-127 2051.4,-126.087 2053.81,-124.997 2056.17,-123.79"/>
<polygon fill="black" stroke="black" points="2058.12,-126.71 2065.02,-118.676 2054.61,-120.649 2058.12,-126.71"/>
</g>
<!-- 15 -->
<g id="node16" class="node"><title>15</title>
<path fill="#d3ffff" stroke="black" d="M2366,-127C2366,-127 2146,-127 2146,-127 2140,-127 2134,-121 2134,-115 2134,-115 2134,-86 2134,-86 2134,-80 2140,-74 2146,-74 2146,-74 2366,-74 2366,-74 2372,-74 2378,-80 2378,-86 2378,-86 2378,-115 2378,-115 2378,-121 2372,-127 2366,-127"/>
<text text-anchor="middle" x="2256" y="-111.8" font-family="Times,serif" font-size="14.00">comp 0</text>
<text text-anchor="middle" x="2256" y="-96.8" font-family="Times,serif" font-size="14.00">dilation rate: &#45;2 &#160;&#160;log gamma1: &#45;0.550936</text>
<text text-anchor="middle" x="2256" y="-81.8" font-family="Times,serif" font-size="14.00">n kernels: &#45;6</text>
</g>
<!-- 3&#45;&gt;15 -->
<g id="edge15" class="edge"><title>3&#45;&gt;15</title>
<path fill="none" stroke="black" d="M2477.1,-162.96C2441.78,-153.141 2397.28,-140.773 2357.49,-129.711"/>
<polygon fill="black" stroke="black" points="2358.32,-126.309 2347.75,-127.003 2356.44,-133.053 2358.32,-126.309"/>
</g>
<!-- 16 -->
<g id="node17" class="node"><title>16</title>
<path fill="#bfe6e6" stroke="black" d="M2533.5,-119.5C2533.5,-119.5 2408.5,-119.5 2408.5,-119.5 2402.5,-119.5 2396.5,-113.5 2396.5,-107.5 2396.5,-107.5 2396.5,-93.5 2396.5,-93.5 2396.5,-87.5 2402.5,-81.5 2408.5,-81.5 2408.5,-81.5 2533.5,-81.5 2533.5,-81.5 2539.5,-81.5 2545.5,-87.5 2545.5,-93.5 2545.5,-93.5 2545.5,-107.5 2545.5,-107.5 2545.5,-113.5 2539.5,-119.5 2533.5,-119.5"/>
<text text-anchor="middle" x="2471" y="-104.3" font-family="Times,serif" font-size="14.00">comp 1</text>
<text text-anchor="middle" x="2471" y="-89.3" font-family="Times,serif" font-size="14.00">log gamma1: &#45;0.136714</text>
</g>
<!-- 3&#45;&gt;16 -->
<g id="edge16" class="edge"><title>3&#45;&gt;16</title>
<path fill="none" stroke="black" d="M2525.89,-162.96C2516.51,-152.464 2504.54,-139.053 2494.17,-127.439"/>
<polygon fill="black" stroke="black" points="2496.56,-124.871 2487.29,-119.744 2491.34,-129.534 2496.56,-124.871"/>
</g>
<!-- 17 -->
<g id="node18" class="node"><title>17</title>
<path fill="#abcece" stroke="black" d="M2652.5,-119.5C2652.5,-119.5 2575.5,-119.5 2575.5,-119.5 2569.5,-119.5 2563.5,-113.5 2563.5,-107.5 2563.5,-107.5 2563.5,-93.5 2563.5,-93.5 2563.5,-87.5 2569.5,-81.5 2575.5,-81.5 2575.5,-81.5 2652.5,-81.5 2652.5,-81.5 2658.5,-81.5 2664.5,-87.5 2664.5,-93.5 2664.5,-93.5 2664.5,-107.5 2664.5,-107.5 2664.5,-113.5 2658.5,-119.5 2652.5,-119.5"/>
<text text-anchor="middle" x="2614" y="-104.3" font-family="Times,serif" font-size="14.00">comp 2</text>
<text text-anchor="middle" x="2614" y="-89.3" font-family="Times,serif" font-size="14.00">dilation rate: &#45;2</text>
</g>
<!-- 3&#45;&gt;17 -->
<g id="edge17" class="edge"><title>3&#45;&gt;17</title>
<path fill="none" stroke="black" d="M2558.34,-162.96C2567.84,-152.464 2579.99,-139.053 2590.51,-127.439"/>
<polygon fill="black" stroke="black" points="2593.36,-129.505 2597.48,-119.744 2588.17,-124.806 2593.36,-129.505"/>
</g>
<!-- 18 -->
<g id="node19" class="node"><title>18</title>
<path fill="#97b6b6" stroke="black" d="M2909.5,-119.5C2909.5,-119.5 2694.5,-119.5 2694.5,-119.5 2688.5,-119.5 2682.5,-113.5 2682.5,-107.5 2682.5,-107.5 2682.5,-93.5 2682.5,-93.5 2682.5,-87.5 2688.5,-81.5 2694.5,-81.5 2694.5,-81.5 2909.5,-81.5 2909.5,-81.5 2915.5,-81.5 2921.5,-87.5 2921.5,-93.5 2921.5,-93.5 2921.5,-107.5 2921.5,-107.5 2921.5,-113.5 2915.5,-119.5 2909.5,-119.5"/>
<text text-anchor="middle" x="2802" y="-104.3" font-family="Times,serif" font-size="14.00">comp 3</text>
<text text-anchor="middle" x="2802" y="-89.3" font-family="Times,serif" font-size="14.00">dilation rate: &#45;2 &#160;&#160;log gamma2: 0.794978</text>
</g>
<!-- 3&#45;&gt;18 -->
<g id="edge18" class="edge"><title>3&#45;&gt;18</title>
<path fill="none" stroke="black" d="M2601,-162.96C2640.25,-150.958 2691.96,-135.145 2733.11,-122.565"/>
<polygon fill="black" stroke="black" points="2734.25,-125.877 2742.79,-119.606 2732.2,-119.183 2734.25,-125.877"/>
</g>
<!-- 19 -->
<g id="node20" class="node"><title>19</title>
<path fill="#839e9e" stroke="black" d="M2985,-118.5C2985,-118.5 2951,-118.5 2951,-118.5 2945,-118.5 2939,-112.5 2939,-106.5 2939,-106.5 2939,-94.5 2939,-94.5 2939,-88.5 2945,-82.5 2951,-82.5 2951,-82.5 2985,-82.5 2985,-82.5 2991,-82.5 2997,-88.5 2997,-94.5 2997,-94.5 2997,-106.5 2997,-106.5 2997,-112.5 2991,-118.5 2985,-118.5"/>
<text text-anchor="middle" x="2968" y="-96.8" font-family="Times,serif" font-size="14.00">identity</text>
</g>
<!-- 3&#45;&gt;19 -->
<g id="edge19" class="edge"><title>3&#45;&gt;19</title>
<path fill="none" stroke="black" d="M2659.58,-178.356C2738.34,-173.31 2843.11,-160.168 2930,-127 2932.4,-126.083 2934.81,-124.99 2937.17,-123.78"/>
<polygon fill="black" stroke="black" points="2939.12,-126.698 2946.02,-118.66 2935.61,-120.639 2939.12,-126.698"/>
</g>
<!-- 20 -->
<g id="node21" class="node"><title>20</title>
<path fill="#e9d3ff" stroke="black" d="M89.5,-38C89.5,-38 54.5,-38 54.5,-38 48.5,-38 42.5,-32 42.5,-26 42.5,-26 42.5,-12 42.5,-12 42.5,-6 48.5,-0 54.5,-0 54.5,-0 89.5,-0 89.5,-0 95.5,-0 101.5,-6 101.5,-12 101.5,-12 101.5,-26 101.5,-26 101.5,-32 95.5,-38 89.5,-38"/>
<text text-anchor="middle" x="72" y="-22.8" font-family="Times,serif" font-size="14.00">forward</text>
<text text-anchor="middle" x="72" y="-7.8" font-family="Times,serif" font-size="14.00">input</text>
</g>
<!-- 4&#45;&gt;20 -->
<g id="edge20" class="edge"><title>4&#45;&gt;20</title>
<path fill="none" stroke="black" d="M72,-81.4602C72,-71.67 72,-59.3453 72,-48.3073"/>
<polygon fill="black" stroke="black" points="75.5001,-48.2435 72,-38.2436 68.5001,-48.2436 75.5001,-48.2435"/>
</g>
<!-- 21 -->
<g id="node22" class="node"><title>21</title>
<path fill="#e9d3ff" stroke="black" d="M294.5,-38C294.5,-38 257.5,-38 257.5,-38 251.5,-38 245.5,-32 245.5,-26 245.5,-26 245.5,-12 245.5,-12 245.5,-6 251.5,-0 257.5,-0 257.5,-0 294.5,-0 294.5,-0 300.5,-0 306.5,-6 306.5,-12 306.5,-12 306.5,-26 306.5,-26 306.5,-32 300.5,-38 294.5,-38"/>
<text text-anchor="middle" x="276" y="-22.8" font-family="Times,serif" font-size="14.00">forward</text>
<text text-anchor="middle" x="276" y="-7.8" font-family="Times,serif" font-size="14.00">CB0/C0</text>
</g>
<!-- 5&#45;&gt;21 -->
<g id="edge21" class="edge"><title>5&#45;&gt;21</title>
<path fill="none" stroke="black" d="M276,-81.4602C276,-71.67 276,-59.3453 276,-48.3073"/>
<polygon fill="black" stroke="black" points="279.5,-48.2435 276,-38.2436 272.5,-48.2436 279.5,-48.2435"/>
</g>
<!-- 22 -->
<g id="node23" class="node"><title>22</title>
<path fill="#e9d3ff" stroke="black" d="M498.5,-38C498.5,-38 461.5,-38 461.5,-38 455.5,-38 449.5,-32 449.5,-26 449.5,-26 449.5,-12 449.5,-12 449.5,-6 455.5,-0 461.5,-0 461.5,-0 498.5,-0 498.5,-0 504.5,-0 510.5,-6 510.5,-12 510.5,-12 510.5,-26 510.5,-26 510.5,-32 504.5,-38 498.5,-38"/>
<text text-anchor="middle" x="480" y="-22.8" font-family="Times,serif" font-size="14.00">forward</text>
<text text-anchor="middle" x="480" y="-7.8" font-family="Times,serif" font-size="14.00">CB0/C1</text>
</g>
<!-- 6&#45;&gt;22 -->
<g id="edge22" class="edge"><title>6&#45;&gt;22</title>
<path fill="none" stroke="black" d="M480,-81.4602C480,-71.67 480,-59.3453 480,-48.3073"/>
<polygon fill="black" stroke="black" points="483.5,-48.2435 480,-38.2436 476.5,-48.2436 483.5,-48.2435"/>
</g>
<!-- 23 -->
<g id="node24" class="node"><title>23</title>
<path fill="#e9d3ff" stroke="black" d="M679.5,-38C679.5,-38 642.5,-38 642.5,-38 636.5,-38 630.5,-32 630.5,-26 630.5,-26 630.5,-12 630.5,-12 630.5,-6 636.5,-0 642.5,-0 642.5,-0 679.5,-0 679.5,-0 685.5,-0 691.5,-6 691.5,-12 691.5,-12 691.5,-26 691.5,-26 691.5,-32 685.5,-38 679.5,-38"/>
<text text-anchor="middle" x="661" y="-22.8" font-family="Times,serif" font-size="14.00">forward</text>
<text text-anchor="middle" x="661" y="-7.8" font-family="Times,serif" font-size="14.00">CB0/C2</text>
</g>
<!-- 7&#45;&gt;23 -->
<g id="edge23" class="edge"><title>7&#45;&gt;23</title>
<path fill="none" stroke="black" d="M661,-81.4602C661,-71.67 661,-59.3453 661,-48.3073"/>
<polygon fill="black" stroke="black" points="664.5,-48.2435 661,-38.2436 657.5,-48.2436 664.5,-48.2435"/>
</g>
<!-- 24 -->
<g id="node25" class="node"><title>24</title>
<path fill="#e9d3ff" stroke="black" d="M860.5,-38C860.5,-38 823.5,-38 823.5,-38 817.5,-38 811.5,-32 811.5,-26 811.5,-26 811.5,-12 811.5,-12 811.5,-6 817.5,-0 823.5,-0 823.5,-0 860.5,-0 860.5,-0 866.5,-0 872.5,-6 872.5,-12 872.5,-12 872.5,-26 872.5,-26 872.5,-32 866.5,-38 860.5,-38"/>
<text text-anchor="middle" x="842" y="-22.8" font-family="Times,serif" font-size="14.00">forward</text>
<text text-anchor="middle" x="842" y="-7.8" font-family="Times,serif" font-size="14.00">CB0/C3</text>
</g>
<!-- 8&#45;&gt;24 -->
<g id="edge24" class="edge"><title>8&#45;&gt;24</title>
<path fill="none" stroke="black" d="M842,-81.4602C842,-71.67 842,-59.3453 842,-48.3073"/>
<polygon fill="black" stroke="black" points="845.5,-48.2435 842,-38.2436 838.5,-48.2436 845.5,-48.2435"/>
</g>
<!-- 25 -->
<g id="node26" class="node"><title>25</title>
<path fill="#e9d3ff" stroke="black" d="M959.5,-38C959.5,-38 922.5,-38 922.5,-38 916.5,-38 910.5,-32 910.5,-26 910.5,-26 910.5,-12 910.5,-12 910.5,-6 916.5,-0 922.5,-0 922.5,-0 959.5,-0 959.5,-0 965.5,-0 971.5,-6 971.5,-12 971.5,-12 971.5,-26 971.5,-26 971.5,-32 965.5,-38 959.5,-38"/>
<text text-anchor="middle" x="941" y="-22.8" font-family="Times,serif" font-size="14.00">residual</text>
<text text-anchor="middle" x="941" y="-7.8" font-family="Times,serif" font-size="14.00">CB0/C0</text>
</g>
<!-- 9&#45;&gt;25 -->
<g id="edge25" class="edge"><title>9&#45;&gt;25</title>
<path fill="none" stroke="black" d="M956.66,-82.2497C954.145,-72.25 950.916,-59.4178 948.045,-48.0048"/>
<polygon fill="black" stroke="black" points="951.374,-46.8883 945.539,-38.0444 944.585,-48.5962 951.374,-46.8883"/>
</g>
<!-- 26 -->
<g id="node27" class="node"><title>26</title>
<path fill="#d3bfe6" stroke="black" d="M1038.5,-38C1038.5,-38 1001.5,-38 1001.5,-38 995.5,-38 989.5,-32 989.5,-26 989.5,-26 989.5,-12 989.5,-12 989.5,-6 995.5,-0 1001.5,-0 1001.5,-0 1038.5,-0 1038.5,-0 1044.5,-0 1050.5,-6 1050.5,-12 1050.5,-12 1050.5,-26 1050.5,-26 1050.5,-32 1044.5,-38 1038.5,-38"/>
<text text-anchor="middle" x="1020" y="-22.8" font-family="Times,serif" font-size="14.00">forward</text>
<text text-anchor="middle" x="1020" y="-7.8" font-family="Times,serif" font-size="14.00">CB0/C4</text>
</g>
<!-- 9&#45;&gt;26 -->
<g id="edge26" class="edge"><title>9&#45;&gt;26</title>
<path fill="none" stroke="black" d="M973.802,-82.2497C981.602,-71.7398 991.724,-58.101 1000.5,-46.2695"/>
<polygon fill="black" stroke="black" points="1003.46,-48.1605 1006.61,-38.0444 997.838,-43.9888 1003.46,-48.1605"/>
</g>
<!-- 27 -->
<g id="node28" class="node"><title>27</title>
<path fill="#e9d3ff" stroke="black" d="M1144.5,-38C1144.5,-38 1109.5,-38 1109.5,-38 1103.5,-38 1097.5,-32 1097.5,-26 1097.5,-26 1097.5,-12 1097.5,-12 1097.5,-6 1103.5,-0 1109.5,-0 1109.5,-0 1144.5,-0 1144.5,-0 1150.5,-0 1156.5,-6 1156.5,-12 1156.5,-12 1156.5,-26 1156.5,-26 1156.5,-32 1150.5,-38 1144.5,-38"/>
<text text-anchor="middle" x="1127" y="-22.8" font-family="Times,serif" font-size="14.00">forward</text>
<text text-anchor="middle" x="1127" y="-7.8" font-family="Times,serif" font-size="14.00">CB0/I</text>
</g>
<!-- 10&#45;&gt;27 -->
<g id="edge27" class="edge"><title>10&#45;&gt;27</title>
<path fill="none" stroke="black" d="M1127,-81.4602C1127,-71.67 1127,-59.3453 1127,-48.3073"/>
<polygon fill="black" stroke="black" points="1130.5,-48.2435 1127,-38.2436 1123.5,-48.2436 1130.5,-48.2435"/>
</g>
<!-- 28 -->
<g id="node29" class="node"><title>28</title>
<path fill="#e9d3ff" stroke="black" d="M1394.5,-38C1394.5,-38 1357.5,-38 1357.5,-38 1351.5,-38 1345.5,-32 1345.5,-26 1345.5,-26 1345.5,-12 1345.5,-12 1345.5,-6 1351.5,-0 1357.5,-0 1357.5,-0 1394.5,-0 1394.5,-0 1400.5,-0 1406.5,-6 1406.5,-12 1406.5,-12 1406.5,-26 1406.5,-26 1406.5,-32 1400.5,-38 1394.5,-38"/>
<text text-anchor="middle" x="1376" y="-22.8" font-family="Times,serif" font-size="14.00">forward</text>
<text text-anchor="middle" x="1376" y="-7.8" font-family="Times,serif" font-size="14.00">CB1/C0</text>
</g>
<!-- 11&#45;&gt;28 -->
<g id="edge28" class="edge"><title>11&#45;&gt;28</title>
<path fill="none" stroke="black" d="M1376,-81.4602C1376,-71.67 1376,-59.3453 1376,-48.3073"/>
<polygon fill="black" stroke="black" points="1379.5,-48.2435 1376,-38.2436 1372.5,-48.2436 1379.5,-48.2435"/>
</g>
<!-- 29 -->
<g id="node30" class="node"><title>29</title>
<path fill="#e9d3ff" stroke="black" d="M1668.5,-38C1668.5,-38 1631.5,-38 1631.5,-38 1625.5,-38 1619.5,-32 1619.5,-26 1619.5,-26 1619.5,-12 1619.5,-12 1619.5,-6 1625.5,-0 1631.5,-0 1631.5,-0 1668.5,-0 1668.5,-0 1674.5,-0 1680.5,-6 1680.5,-12 1680.5,-12 1680.5,-26 1680.5,-26 1680.5,-32 1674.5,-38 1668.5,-38"/>
<text text-anchor="middle" x="1650" y="-22.8" font-family="Times,serif" font-size="14.00">forward</text>
<text text-anchor="middle" x="1650" y="-7.8" font-family="Times,serif" font-size="14.00">CB1/C1</text>
</g>
<!-- 12&#45;&gt;29 -->
<g id="edge29" class="edge"><title>12&#45;&gt;29</title>
<path fill="none" stroke="black" d="M1650,-73.9081C1650,-65.7377 1650,-56.6492 1650,-48.2981"/>
<polygon fill="black" stroke="black" points="1653.5,-48.2389 1650,-38.2389 1646.5,-48.2389 1653.5,-48.2389"/>
</g>
<!-- 30 -->
<g id="node31" class="node"><title>30</title>
<path fill="#e9d3ff" stroke="black" d="M1944.5,-38C1944.5,-38 1907.5,-38 1907.5,-38 1901.5,-38 1895.5,-32 1895.5,-26 1895.5,-26 1895.5,-12 1895.5,-12 1895.5,-6 1901.5,-0 1907.5,-0 1907.5,-0 1944.5,-0 1944.5,-0 1950.5,-0 1956.5,-6 1956.5,-12 1956.5,-12 1956.5,-26 1956.5,-26 1956.5,-32 1950.5,-38 1944.5,-38"/>
<text text-anchor="middle" x="1926" y="-22.8" font-family="Times,serif" font-size="14.00">forward</text>
<text text-anchor="middle" x="1926" y="-7.8" font-family="Times,serif" font-size="14.00">CB1/C2</text>
</g>
<!-- 13&#45;&gt;30 -->
<g id="edge30" class="edge"><title>13&#45;&gt;30</title>
<path fill="none" stroke="black" d="M1926,-81.4602C1926,-71.67 1926,-59.3453 1926,-48.3073"/>
<polygon fill="black" stroke="black" points="1929.5,-48.2435 1926,-38.2436 1922.5,-48.2436 1929.5,-48.2435"/>
</g>
<!-- 31 -->
<g id="node32" class="node"><title>31</title>
<path fill="#e9d3ff" stroke="black" d="M2065.5,-38C2065.5,-38 2028.5,-38 2028.5,-38 2022.5,-38 2016.5,-32 2016.5,-26 2016.5,-26 2016.5,-12 2016.5,-12 2016.5,-6 2022.5,-0 2028.5,-0 2028.5,-0 2065.5,-0 2065.5,-0 2071.5,-0 2077.5,-6 2077.5,-12 2077.5,-12 2077.5,-26 2077.5,-26 2077.5,-32 2071.5,-38 2065.5,-38"/>
<text text-anchor="middle" x="2047" y="-22.8" font-family="Times,serif" font-size="14.00">residual</text>
<text text-anchor="middle" x="2047" y="-7.8" font-family="Times,serif" font-size="14.00">CB1/C0</text>
</g>
<!-- 14&#45;&gt;31 -->
<g id="edge31" class="edge"><title>14&#45;&gt;31</title>
<path fill="none" stroke="black" d="M2078.32,-82.2497C2073.19,-72.0459 2066.57,-58.8928 2060.74,-47.3078"/>
<polygon fill="black" stroke="black" points="2063.7,-45.4043 2056.08,-38.0444 2057.45,-48.5506 2063.7,-45.4043"/>
</g>
<!-- 32 -->
<g id="node33" class="node"><title>32</title>
<path fill="#d3bfe6" stroke="black" d="M2144.5,-38C2144.5,-38 2107.5,-38 2107.5,-38 2101.5,-38 2095.5,-32 2095.5,-26 2095.5,-26 2095.5,-12 2095.5,-12 2095.5,-6 2101.5,-0 2107.5,-0 2107.5,-0 2144.5,-0 2144.5,-0 2150.5,-0 2156.5,-6 2156.5,-12 2156.5,-12 2156.5,-26 2156.5,-26 2156.5,-32 2150.5,-38 2144.5,-38"/>
<text text-anchor="middle" x="2126" y="-22.8" font-family="Times,serif" font-size="14.00">forward</text>
<text text-anchor="middle" x="2126" y="-7.8" font-family="Times,serif" font-size="14.00">CB1/C3</text>
</g>
<!-- 14&#45;&gt;32 -->
<g id="edge32" class="edge"><title>14&#45;&gt;32</title>
<path fill="none" stroke="black" d="M2095.46,-82.2497C2100.47,-72.0459 2106.92,-58.8928 2112.6,-47.3078"/>
<polygon fill="black" stroke="black" points="2115.89,-48.5639 2117.15,-38.0444 2109.6,-45.4808 2115.89,-48.5639"/>
</g>
<!-- 33 -->
<g id="node34" class="node"><title>33</title>
<path fill="#e9d3ff" stroke="black" d="M2273.5,-38C2273.5,-38 2238.5,-38 2238.5,-38 2232.5,-38 2226.5,-32 2226.5,-26 2226.5,-26 2226.5,-12 2226.5,-12 2226.5,-6 2232.5,-0 2238.5,-0 2238.5,-0 2273.5,-0 2273.5,-0 2279.5,-0 2285.5,-6 2285.5,-12 2285.5,-12 2285.5,-26 2285.5,-26 2285.5,-32 2279.5,-38 2273.5,-38"/>
<text text-anchor="middle" x="2256" y="-22.8" font-family="Times,serif" font-size="14.00">forward</text>
<text text-anchor="middle" x="2256" y="-7.8" font-family="Times,serif" font-size="14.00">CB1/I</text>
</g>
<!-- 15&#45;&gt;33 -->
<g id="edge33" class="edge"><title>15&#45;&gt;33</title>
<path fill="none" stroke="black" d="M2256,-73.9081C2256,-65.7377 2256,-56.6492 2256,-48.2981"/>
<polygon fill="black" stroke="black" points="2259.5,-48.2389 2256,-38.2389 2252.5,-48.2389 2259.5,-48.2389"/>
</g>
<!-- 34 -->
<g id="node35" class="node"><title>34</title>
<path fill="#e9d3ff" stroke="black" d="M2489.5,-38C2489.5,-38 2452.5,-38 2452.5,-38 2446.5,-38 2440.5,-32 2440.5,-26 2440.5,-26 2440.5,-12 2440.5,-12 2440.5,-6 2446.5,-0 2452.5,-0 2452.5,-0 2489.5,-0 2489.5,-0 2495.5,-0 2501.5,-6 2501.5,-12 2501.5,-12 2501.5,-26 2501.5,-26 2501.5,-32 2495.5,-38 2489.5,-38"/>
<text text-anchor="middle" x="2471" y="-22.8" font-family="Times,serif" font-size="14.00">forward</text>
<text text-anchor="middle" x="2471" y="-7.8" font-family="Times,serif" font-size="14.00">CB2/C0</text>
</g>
<!-- 16&#45;&gt;34 -->
<g id="edge34" class="edge"><title>16&#45;&gt;34</title>
<path fill="none" stroke="black" d="M2471,-81.4602C2471,-71.67 2471,-59.3453 2471,-48.3073"/>
<polygon fill="black" stroke="black" points="2474.5,-48.2435 2471,-38.2436 2467.5,-48.2436 2474.5,-48.2435"/>
</g>
<!-- 35 -->
<g id="node36" class="node"><title>35</title>
<path fill="#e9d3ff" stroke="black" d="M2632.5,-38C2632.5,-38 2595.5,-38 2595.5,-38 2589.5,-38 2583.5,-32 2583.5,-26 2583.5,-26 2583.5,-12 2583.5,-12 2583.5,-6 2589.5,-0 2595.5,-0 2595.5,-0 2632.5,-0 2632.5,-0 2638.5,-0 2644.5,-6 2644.5,-12 2644.5,-12 2644.5,-26 2644.5,-26 2644.5,-32 2638.5,-38 2632.5,-38"/>
<text text-anchor="middle" x="2614" y="-22.8" font-family="Times,serif" font-size="14.00">forward</text>
<text text-anchor="middle" x="2614" y="-7.8" font-family="Times,serif" font-size="14.00">CB2/C1</text>
</g>
<!-- 17&#45;&gt;35 -->
<g id="edge35" class="edge"><title>17&#45;&gt;35</title>
<path fill="none" stroke="black" d="M2614,-81.4602C2614,-71.67 2614,-59.3453 2614,-48.3073"/>
<polygon fill="black" stroke="black" points="2617.5,-48.2435 2614,-38.2436 2610.5,-48.2436 2617.5,-48.2435"/>
</g>
<!-- 36 -->
<g id="node37" class="node"><title>36</title>
<path fill="#e9d3ff" stroke="black" d="M2820.5,-38C2820.5,-38 2783.5,-38 2783.5,-38 2777.5,-38 2771.5,-32 2771.5,-26 2771.5,-26 2771.5,-12 2771.5,-12 2771.5,-6 2777.5,-0 2783.5,-0 2783.5,-0 2820.5,-0 2820.5,-0 2826.5,-0 2832.5,-6 2832.5,-12 2832.5,-12 2832.5,-26 2832.5,-26 2832.5,-32 2826.5,-38 2820.5,-38"/>
<text text-anchor="middle" x="2802" y="-22.8" font-family="Times,serif" font-size="14.00">forward</text>
<text text-anchor="middle" x="2802" y="-7.8" font-family="Times,serif" font-size="14.00">CB2/C2</text>
</g>
<!-- 18&#45;&gt;36 -->
<g id="edge36" class="edge"><title>18&#45;&gt;36</title>
<path fill="none" stroke="black" d="M2802,-81.4602C2802,-71.67 2802,-59.3453 2802,-48.3073"/>
<polygon fill="black" stroke="black" points="2805.5,-48.2435 2802,-38.2436 2798.5,-48.2436 2805.5,-48.2435"/>
</g>
<!-- 37 -->
<g id="node38" class="node"><title>37</title>
<path fill="#e9d3ff" stroke="black" d="M2946.5,-38C2946.5,-38 2909.5,-38 2909.5,-38 2903.5,-38 2897.5,-32 2897.5,-26 2897.5,-26 2897.5,-12 2897.5,-12 2897.5,-6 2903.5,-0 2909.5,-0 2909.5,-0 2946.5,-0 2946.5,-0 2952.5,-0 2958.5,-6 2958.5,-12 2958.5,-12 2958.5,-26 2958.5,-26 2958.5,-32 2952.5,-38 2946.5,-38"/>
<text text-anchor="middle" x="2928" y="-22.8" font-family="Times,serif" font-size="14.00">residual</text>
<text text-anchor="middle" x="2928" y="-7.8" font-family="Times,serif" font-size="14.00">CB2/C0</text>
</g>
<!-- 19&#45;&gt;37 -->
<g id="edge37" class="edge"><title>19&#45;&gt;37</title>
<path fill="none" stroke="black" d="M2959.32,-82.2497C2954.19,-72.0459 2947.57,-58.8928 2941.74,-47.3078"/>
<polygon fill="black" stroke="black" points="2944.7,-45.4043 2937.08,-38.0444 2938.45,-48.5506 2944.7,-45.4043"/>
</g>
<!-- 38 -->
<g id="node39" class="node"><title>38</title>
<path fill="#d3bfe6" stroke="black" d="M3025.5,-38C3025.5,-38 2988.5,-38 2988.5,-38 2982.5,-38 2976.5,-32 2976.5,-26 2976.5,-26 2976.5,-12 2976.5,-12 2976.5,-6 2982.5,-0 2988.5,-0 2988.5,-0 3025.5,-0 3025.5,-0 3031.5,-0 3037.5,-6 3037.5,-12 3037.5,-12 3037.5,-26 3037.5,-26 3037.5,-32 3031.5,-38 3025.5,-38"/>
<text text-anchor="middle" x="3007" y="-22.8" font-family="Times,serif" font-size="14.00">forward</text>
<text text-anchor="middle" x="3007" y="-7.8" font-family="Times,serif" font-size="14.00">CB2/C3</text>
</g>
<!-- 19&#45;&gt;38 -->
<g id="edge38" class="edge"><title>19&#45;&gt;38</title>
<path fill="none" stroke="black" d="M2976.46,-82.2497C2981.47,-72.0459 2987.92,-58.8928 2993.6,-47.3078"/>
<polygon fill="black" stroke="black" points="2996.89,-48.5639 2998.15,-38.0444 2990.6,-45.4808 2996.89,-48.5639"/>
</g>
</g>
</svg>
