<?xml version="1.0" encoding="UTF-8" standalone="no"?>
<!DOCTYPE svg PUBLIC "-//W3C//DTD SVG 1.1//EN"
 "http://www.w3.org/Graphics/SVG/1.1/DTD/svg11.dtd">
<!-- Generated by graphviz version 2.38.0 (20140413.2041)
 -->
<!-- Title: %3 Pages: 1 -->
<svg width="3574pt" height="357pt"
 viewBox="0.00 0.00 3573.50 357.00" xmlns="http://www.w3.org/2000/svg" xmlns:xlink="http://www.w3.org/1999/xlink">
<g id="graph0" class="graph" transform="scale(1 1) rotate(0) translate(4 353)">
<title>%3</title>
<polygon fill="none" stroke="none" points="-4,4 -4,-353 3569.5,-353 3569.5,4 -4,4"/>
<!-- 0 -->
<g id="node1" class="node"><title>0</title>
<path fill="#ffd3d3" stroke="black" d="M1760.5,-349C1760.5,-349 1596.5,-349 1596.5,-349 1590.5,-349 1584.5,-343 1584.5,-337 1584.5,-337 1584.5,-323 1584.5,-323 1584.5,-317 1590.5,-311 1596.5,-311 1596.5,-311 1760.5,-311 1760.5,-311 1766.5,-311 1772.5,-317 1772.5,-323 1772.5,-323 1772.5,-337 1772.5,-337 1772.5,-343 1766.5,-349 1760.5,-349"/>
<text text-anchor="middle" x="1678.5" y="-333.8" font-family="Times,serif" font-size="14.00">net</text>
<text text-anchor="middle" x="1678.5" y="-318.8" font-family="Times,serif" font-size="14.00">n kernels: 128 &#160;&#160;pooling type: 0</text>
</g>
<!-- 1 -->
<g id="node2" class="node"><title>1</title>
<path fill="#f6ffd3" stroke="black" d="M1000,-275C1000,-275 789,-275 789,-275 783,-275 777,-269 777,-263 777,-263 777,-249 777,-249 777,-243 783,-237 789,-237 789,-237 1000,-237 1000,-237 1006,-237 1012,-243 1012,-249 1012,-249 1012,-263 1012,-263 1012,-269 1006,-275 1000,-275"/>
<text text-anchor="middle" x="894.5" y="-259.8" font-family="Times,serif" font-size="14.00">encoder</text>
<text text-anchor="middle" x="894.5" y="-244.8" font-family="Times,serif" font-size="14.00">dilation rate: 1 &#160;&#160;log gamma2: 1.000000</text>
</g>
<!-- 0&#45;&gt;1 -->
<g id="edge1" class="edge"><title>0&#45;&gt;1</title>
<path fill="none" stroke="black" d="M1584.32,-320.351C1444.09,-307.472 1180.03,-283.222 1022.43,-268.748"/>
<polygon fill="black" stroke="black" points="1022.48,-265.239 1012.2,-267.809 1021.84,-272.209 1022.48,-265.239"/>
</g>
<!-- 2 -->
<g id="node3" class="node"><title>2</title>
<path fill="#f6ffd3" stroke="black" d="M2306,-274C2306,-274 2271,-274 2271,-274 2265,-274 2259,-268 2259,-262 2259,-262 2259,-250 2259,-250 2259,-244 2265,-238 2271,-238 2271,-238 2306,-238 2306,-238 2312,-238 2318,-244 2318,-250 2318,-250 2318,-262 2318,-262 2318,-268 2312,-274 2306,-274"/>
<text text-anchor="middle" x="2288.5" y="-252.3" font-family="Times,serif" font-size="14.00">decoder</text>
</g>
<!-- 0&#45;&gt;2 -->
<g id="edge2" class="edge"><title>0&#45;&gt;2</title>
<path fill="none" stroke="black" d="M1772.81,-317.868C1908.51,-301.851 2153.04,-272.989 2248.65,-261.704"/>
<polygon fill="black" stroke="black" points="2249.24,-265.158 2258.76,-260.51 2248.42,-258.206 2249.24,-265.158"/>
</g>
<!-- 3 -->
<g id="node4" class="node"><title>3</title>
<path fill="#d3ffe4" stroke="black" d="M242,-192.5C242,-192.5 167,-192.5 167,-192.5 161,-192.5 155,-186.5 155,-180.5 155,-180.5 155,-168.5 155,-168.5 155,-162.5 161,-156.5 167,-156.5 167,-156.5 242,-156.5 242,-156.5 248,-156.5 254,-162.5 254,-168.5 254,-168.5 254,-180.5 254,-180.5 254,-186.5 248,-192.5 242,-192.5"/>
<text text-anchor="middle" x="204.5" y="-170.8" font-family="Times,serif" font-size="14.00">encode block 0</text>
</g>
<!-- 1&#45;&gt;3 -->
<g id="edge3" class="edge"><title>1&#45;&gt;3</title>
<path fill="none" stroke="black" d="M776.669,-241.424C628.114,-224.308 378.399,-195.536 264.449,-182.407"/>
<polygon fill="black" stroke="black" points="264.517,-178.892 254.182,-181.224 263.715,-185.846 264.517,-178.892"/>
</g>
<!-- 4 -->
<g id="node5" class="node"><title>4</title>
<path fill="#bfe6cf" stroke="black" d="M819.5,-201C819.5,-201 619.5,-201 619.5,-201 613.5,-201 607.5,-195 607.5,-189 607.5,-189 607.5,-160 607.5,-160 607.5,-154 613.5,-148 619.5,-148 619.5,-148 819.5,-148 819.5,-148 825.5,-148 831.5,-154 831.5,-160 831.5,-160 831.5,-189 831.5,-189 831.5,-195 825.5,-201 819.5,-201"/>
<text text-anchor="middle" x="719.5" y="-185.8" font-family="Times,serif" font-size="14.00">encode block 1</text>
<text text-anchor="middle" x="719.5" y="-170.8" font-family="Times,serif" font-size="14.00">log gamma1: 0.572150 &#160;&#160;n kernels: &#45;3</text>
<text text-anchor="middle" x="719.5" y="-155.8" font-family="Times,serif" font-size="14.00">spatial scale: 1</text>
</g>
<!-- 1&#45;&gt;4 -->
<g id="edge4" class="edge"><title>1&#45;&gt;4</title>
<path fill="none" stroke="black" d="M854.79,-236.96C834.136,-227.577 808.357,-215.866 784.858,-205.191"/>
<polygon fill="black" stroke="black" points="786.191,-201.952 775.638,-201.003 783.295,-208.326 786.191,-201.952"/>
</g>
<!-- 5 -->
<g id="node6" class="node"><title>5</title>
<path fill="#abceb9" stroke="black" d="M1151,-193.5C1151,-193.5 990,-193.5 990,-193.5 984,-193.5 978,-187.5 978,-181.5 978,-181.5 978,-167.5 978,-167.5 978,-161.5 984,-155.5 990,-155.5 990,-155.5 1151,-155.5 1151,-155.5 1157,-155.5 1163,-161.5 1163,-167.5 1163,-167.5 1163,-181.5 1163,-181.5 1163,-187.5 1157,-193.5 1151,-193.5"/>
<text text-anchor="middle" x="1070.5" y="-178.3" font-family="Times,serif" font-size="14.00">encode block 2</text>
<text text-anchor="middle" x="1070.5" y="-163.3" font-family="Times,serif" font-size="14.00">n kernels: 384 &#160;&#160;spatial scale: 2</text>
</g>
<!-- 1&#45;&gt;5 -->
<g id="edge5" class="edge"><title>1&#45;&gt;5</title>
<path fill="none" stroke="black" d="M934.437,-236.96C960.112,-225.363 993.661,-210.209 1021.02,-197.85"/>
<polygon fill="black" stroke="black" points="1022.74,-200.912 1030.42,-193.606 1019.86,-194.533 1022.74,-200.912"/>
</g>
<!-- 6 -->
<g id="node7" class="node"><title>6</title>
<path fill="#d3ffe4" stroke="black" d="M1711,-193.5C1711,-193.5 1636,-193.5 1636,-193.5 1630,-193.5 1624,-187.5 1624,-181.5 1624,-181.5 1624,-167.5 1624,-167.5 1624,-161.5 1630,-155.5 1636,-155.5 1636,-155.5 1711,-155.5 1711,-155.5 1717,-155.5 1723,-161.5 1723,-167.5 1723,-167.5 1723,-181.5 1723,-181.5 1723,-187.5 1717,-193.5 1711,-193.5"/>
<text text-anchor="middle" x="1673.5" y="-178.3" font-family="Times,serif" font-size="14.00">decode block 3</text>
<text text-anchor="middle" x="1673.5" y="-163.3" font-family="Times,serif" font-size="14.00">spatial scale: 3</text>
</g>
<!-- 2&#45;&gt;6 -->
<g id="edge6" class="edge"><title>2&#45;&gt;6</title>
<path fill="none" stroke="black" d="M2258.84,-251.166C2163.29,-238.814 1862.29,-199.904 1733.22,-183.22"/>
<polygon fill="black" stroke="black" points="1733.49,-179.725 1723.12,-181.914 1732.59,-186.668 1733.49,-179.725"/>
</g>
<!-- 7 -->
<g id="node8" class="node"><title>7</title>
<path fill="#bfe6cf" stroke="black" d="M2390.5,-201C2390.5,-201 2186.5,-201 2186.5,-201 2180.5,-201 2174.5,-195 2174.5,-189 2174.5,-189 2174.5,-160 2174.5,-160 2174.5,-154 2180.5,-148 2186.5,-148 2186.5,-148 2390.5,-148 2390.5,-148 2396.5,-148 2402.5,-154 2402.5,-160 2402.5,-160 2402.5,-189 2402.5,-189 2402.5,-195 2396.5,-201 2390.5,-201"/>
<text text-anchor="middle" x="2288.5" y="-185.8" font-family="Times,serif" font-size="14.00">decode block 2</text>
<text text-anchor="middle" x="2288.5" y="-170.8" font-family="Times,serif" font-size="14.00">log gamma1: &#45;0.561513 &#160;&#160;n kernels: &#45;3</text>
<text text-anchor="middle" x="2288.5" y="-155.8" font-family="Times,serif" font-size="14.00">spatial scale: 2</text>
</g>
<!-- 2&#45;&gt;7 -->
<g id="edge7" class="edge"><title>2&#45;&gt;7</title>
<path fill="none" stroke="black" d="M2288.5,-237.75C2288.5,-229.986 2288.5,-220.514 2288.5,-211.325"/>
<polygon fill="black" stroke="black" points="2292,-211.176 2288.5,-201.176 2285,-211.176 2292,-211.176"/>
</g>
<!-- 8 -->
<g id="node9" class="node"><title>8</title>
<path fill="#abceb9" stroke="black" d="M2988,-193.5C2988,-193.5 2827,-193.5 2827,-193.5 2821,-193.5 2815,-187.5 2815,-181.5 2815,-181.5 2815,-167.5 2815,-167.5 2815,-161.5 2821,-155.5 2827,-155.5 2827,-155.5 2988,-155.5 2988,-155.5 2994,-155.5 3000,-161.5 3000,-167.5 3000,-167.5 3000,-181.5 3000,-181.5 3000,-187.5 2994,-193.5 2988,-193.5"/>
<text text-anchor="middle" x="2907.5" y="-178.3" font-family="Times,serif" font-size="14.00">decode block 1</text>
<text text-anchor="middle" x="2907.5" y="-163.3" font-family="Times,serif" font-size="14.00">n kernels: 128 &#160;&#160;spatial scale: 1</text>
</g>
<!-- 2&#45;&gt;8 -->
<g id="edge8" class="edge"><title>2&#45;&gt;8</title>
<path fill="none" stroke="black" d="M2318.36,-251.166C2405.14,-240.019 2660.35,-207.242 2804.79,-188.691"/>
<polygon fill="black" stroke="black" points="2805.52,-192.126 2815,-187.38 2804.63,-185.183 2805.52,-192.126"/>
</g>
<!-- 9 -->
<g id="node10" class="node"><title>9</title>
<path fill="#97b6a3" stroke="black" d="M3358.5,-193.5C3358.5,-193.5 3238.5,-193.5 3238.5,-193.5 3232.5,-193.5 3226.5,-187.5 3226.5,-181.5 3226.5,-181.5 3226.5,-167.5 3226.5,-167.5 3226.5,-161.5 3232.5,-155.5 3238.5,-155.5 3238.5,-155.5 3358.5,-155.5 3358.5,-155.5 3364.5,-155.5 3370.5,-161.5 3370.5,-167.5 3370.5,-167.5 3370.5,-181.5 3370.5,-181.5 3370.5,-187.5 3364.5,-193.5 3358.5,-193.5"/>
<text text-anchor="middle" x="3298.5" y="-178.3" font-family="Times,serif" font-size="14.00">decode block 0</text>
<text text-anchor="middle" x="3298.5" y="-163.3" font-family="Times,serif" font-size="14.00">log gamma2: 1.000000</text>
</g>
<!-- 2&#45;&gt;9 -->
<g id="edge9" class="edge"><title>2&#45;&gt;9</title>
<path fill="none" stroke="black" d="M2318,-252.924C2416.13,-245.989 2740.51,-222.831 3008.5,-201 3078.59,-195.29 3158.17,-188.254 3216.2,-183.02"/>
<polygon fill="black" stroke="black" points="3216.77,-186.483 3226.42,-182.097 3216.15,-179.511 3216.77,-186.483"/>
</g>
<!-- 10 -->
<g id="node11" class="node"><title>10</title>
<path fill="#d3e4ff" stroke="black" d="M47.5,-111C47.5,-111 13.5,-111 13.5,-111 7.5,-111 1.5,-105 1.5,-99 1.5,-99 1.5,-87 1.5,-87 1.5,-81 7.5,-75 13.5,-75 13.5,-75 47.5,-75 47.5,-75 53.5,-75 59.5,-81 59.5,-87 59.5,-87 59.5,-99 59.5,-99 59.5,-105 53.5,-111 47.5,-111"/>
<text text-anchor="middle" x="30.5" y="-89.3" font-family="Times,serif" font-size="14.00">comp 0</text>
</g>
<!-- 3&#45;&gt;10 -->
<g id="edge10" class="edge"><title>3&#45;&gt;10</title>
<path fill="none" stroke="black" d="M166.313,-156.449C141.036,-145.113 106.945,-129.732 68.7771,-112.096"/>
<polygon fill="black" stroke="black" points="70.0665,-108.836 59.5213,-107.812 67.1262,-115.188 70.0665,-108.836"/>
</g>
<!-- 11 -->
<g id="node12" class="node"><title>11</title>
<path fill="#bfcfe6" stroke="black" d="M123.5,-111C123.5,-111 89.5,-111 89.5,-111 83.5,-111 77.5,-105 77.5,-99 77.5,-99 77.5,-87 77.5,-87 77.5,-81 83.5,-75 89.5,-75 89.5,-75 123.5,-75 123.5,-75 129.5,-75 135.5,-81 135.5,-87 135.5,-87 135.5,-99 135.5,-99 135.5,-105 129.5,-111 123.5,-111"/>
<text text-anchor="middle" x="106.5" y="-89.3" font-family="Times,serif" font-size="14.00">comp 1</text>
</g>
<!-- 3&#45;&gt;11 -->
<g id="edge11" class="edge"><title>3&#45;&gt;11</title>
<path fill="none" stroke="black" d="M183.235,-156.25C169.366,-144.998 151.076,-130.161 135.832,-117.794"/>
<polygon fill="black" stroke="black" points="137.694,-114.799 127.723,-111.217 133.284,-120.235 137.694,-114.799"/>
</g>
<!-- 12 -->
<g id="node13" class="node"><title>12</title>
<path fill="#abb9ce" stroke="black" d="M243,-112C243,-112 166,-112 166,-112 160,-112 154,-106 154,-100 154,-100 154,-86 154,-86 154,-80 160,-74 166,-74 166,-74 243,-74 243,-74 249,-74 255,-80 255,-86 255,-86 255,-100 255,-100 255,-106 249,-112 243,-112"/>
<text text-anchor="middle" x="204.5" y="-96.8" font-family="Times,serif" font-size="14.00">comp 2</text>
<text text-anchor="middle" x="204.5" y="-81.8" font-family="Times,serif" font-size="14.00">dilation rate: &#45;1</text>
</g>
<!-- 3&#45;&gt;12 -->
<g id="edge12" class="edge"><title>3&#45;&gt;12</title>
<path fill="none" stroke="black" d="M204.5,-156.25C204.5,-146.352 204.5,-133.679 204.5,-122.355"/>
<polygon fill="black" stroke="black" points="208,-122.044 204.5,-112.044 201,-122.044 208,-122.044"/>
</g>
<!-- 13 -->
<g id="node14" class="node"><title>13</title>
<path fill="#97a3b6" stroke="black" d="M405.5,-112C405.5,-112 285.5,-112 285.5,-112 279.5,-112 273.5,-106 273.5,-100 273.5,-100 273.5,-86 273.5,-86 273.5,-80 279.5,-74 285.5,-74 285.5,-74 405.5,-74 405.5,-74 411.5,-74 417.5,-80 417.5,-86 417.5,-86 417.5,-100 417.5,-100 417.5,-106 411.5,-112 405.5,-112"/>
<text text-anchor="middle" x="345.5" y="-96.8" font-family="Times,serif" font-size="14.00">comp 3</text>
<text text-anchor="middle" x="345.5" y="-81.8" font-family="Times,serif" font-size="14.00">log gamma1: 0.603338</text>
</g>
<!-- 3&#45;&gt;13 -->
<g id="edge13" class="edge"><title>3&#45;&gt;13</title>
<path fill="none" stroke="black" d="M234.748,-156.445C255.088,-144.977 282.151,-129.718 304.433,-117.155"/>
<polygon fill="black" stroke="black" points="306.349,-120.093 313.341,-112.132 302.911,-113.995 306.349,-120.093"/>
</g>
<!-- 14 -->
<g id="node15" class="node"><title>14</title>
<path fill="#d3e4ff" stroke="black" d="M481.5,-111C481.5,-111 447.5,-111 447.5,-111 441.5,-111 435.5,-105 435.5,-99 435.5,-99 435.5,-87 435.5,-87 435.5,-81 441.5,-75 447.5,-75 447.5,-75 481.5,-75 481.5,-75 487.5,-75 493.5,-81 493.5,-87 493.5,-87 493.5,-99 493.5,-99 493.5,-105 487.5,-111 481.5,-111"/>
<text text-anchor="middle" x="464.5" y="-89.3" font-family="Times,serif" font-size="14.00">comp 0</text>
</g>
<!-- 4&#45;&gt;14 -->
<g id="edge14" class="edge"><title>4&#45;&gt;14</title>
<path fill="none" stroke="black" d="M615.981,-147.933C582.224,-138.677 544.596,-127.384 503.206,-112.006"/>
<polygon fill="black" stroke="black" points="504.342,-108.694 493.75,-108.446 501.875,-115.245 504.342,-108.694"/>
</g>
<!-- 15 -->
<g id="node16" class="node"><title>15</title>
<path fill="#bfcfe6" stroke="black" d="M643.5,-112C643.5,-112 523.5,-112 523.5,-112 517.5,-112 511.5,-106 511.5,-100 511.5,-100 511.5,-86 511.5,-86 511.5,-80 517.5,-74 523.5,-74 523.5,-74 643.5,-74 643.5,-74 649.5,-74 655.5,-80 655.5,-86 655.5,-86 655.5,-100 655.5,-100 655.5,-106 649.5,-112 643.5,-112"/>
<text text-anchor="middle" x="583.5" y="-96.8" font-family="Times,serif" font-size="14.00">comp 1</text>
<text text-anchor="middle" x="583.5" y="-81.8" font-family="Times,serif" font-size="14.00">log gamma2: 0.310688</text>
</g>
<!-- 4&#45;&gt;15 -->
<g id="edge15" class="edge"><title>4&#45;&gt;15</title>
<path fill="none" stroke="black" d="M675.72,-147.908C658.948,-138.104 639.914,-126.977 623.512,-117.389"/>
<polygon fill="black" stroke="black" points="625.101,-114.264 614.701,-112.239 621.568,-120.307 625.101,-114.264"/>
</g>
<!-- 16 -->
<g id="node17" class="node"><title>16</title>
<path fill="#abb9ce" stroke="black" d="M753.5,-112C753.5,-112 685.5,-112 685.5,-112 679.5,-112 673.5,-106 673.5,-100 673.5,-100 673.5,-86 673.5,-86 673.5,-80 679.5,-74 685.5,-74 685.5,-74 753.5,-74 753.5,-74 759.5,-74 765.5,-80 765.5,-86 765.5,-86 765.5,-100 765.5,-100 765.5,-106 759.5,-112 753.5,-112"/>
<text text-anchor="middle" x="719.5" y="-96.8" font-family="Times,serif" font-size="14.00">comp 2</text>
<text text-anchor="middle" x="719.5" y="-81.8" font-family="Times,serif" font-size="14.00">n kernels: &#45;14</text>
</g>
<!-- 4&#45;&gt;16 -->
<g id="edge16" class="edge"><title>4&#45;&gt;16</title>
<path fill="none" stroke="black" d="M719.5,-147.908C719.5,-139.738 719.5,-130.649 719.5,-122.298"/>
<polygon fill="black" stroke="black" points="723,-122.239 719.5,-112.239 716,-122.239 723,-122.239"/>
</g>
<!-- 17 -->
<g id="node18" class="node"><title>17</title>
<path fill="#97a3b6" stroke="black" d="M915.5,-112C915.5,-112 795.5,-112 795.5,-112 789.5,-112 783.5,-106 783.5,-100 783.5,-100 783.5,-86 783.5,-86 783.5,-80 789.5,-74 795.5,-74 795.5,-74 915.5,-74 915.5,-74 921.5,-74 927.5,-80 927.5,-86 927.5,-86 927.5,-100 927.5,-100 927.5,-106 921.5,-112 915.5,-112"/>
<text text-anchor="middle" x="855.5" y="-96.8" font-family="Times,serif" font-size="14.00">comp 3</text>
<text text-anchor="middle" x="855.5" y="-81.8" font-family="Times,serif" font-size="14.00">log gamma1: 0.138900</text>
</g>
<!-- 4&#45;&gt;17 -->
<g id="edge17" class="edge"><title>4&#45;&gt;17</title>
<path fill="none" stroke="black" d="M763.28,-147.908C780.052,-138.104 799.086,-126.977 815.488,-117.389"/>
<polygon fill="black" stroke="black" points="817.432,-120.307 824.299,-112.239 813.899,-114.264 817.432,-120.307"/>
</g>
<!-- 18 -->
<g id="node19" class="node"><title>18</title>
<path fill="#d3e4ff" stroke="black" d="M991.5,-111C991.5,-111 957.5,-111 957.5,-111 951.5,-111 945.5,-105 945.5,-99 945.5,-99 945.5,-87 945.5,-87 945.5,-81 951.5,-75 957.5,-75 957.5,-75 991.5,-75 991.5,-75 997.5,-75 1003.5,-81 1003.5,-87 1003.5,-87 1003.5,-99 1003.5,-99 1003.5,-105 997.5,-111 991.5,-111"/>
<text text-anchor="middle" x="974.5" y="-89.3" font-family="Times,serif" font-size="14.00">comp 0</text>
</g>
<!-- 5&#45;&gt;18 -->
<g id="edge18" class="edge"><title>5&#45;&gt;18</title>
<path fill="none" stroke="black" d="M1048.72,-155.46C1035.18,-144.251 1017.63,-129.718 1003,-117.599"/>
<polygon fill="black" stroke="black" points="1005.14,-114.833 995.211,-111.151 1000.68,-120.225 1005.14,-114.833"/>
</g>
<!-- 19 -->
<g id="node20" class="node"><title>19</title>
<path fill="#bfcfe6" stroke="black" d="M1107.5,-112C1107.5,-112 1033.5,-112 1033.5,-112 1027.5,-112 1021.5,-106 1021.5,-100 1021.5,-100 1021.5,-86 1021.5,-86 1021.5,-80 1027.5,-74 1033.5,-74 1033.5,-74 1107.5,-74 1107.5,-74 1113.5,-74 1119.5,-80 1119.5,-86 1119.5,-86 1119.5,-100 1119.5,-100 1119.5,-106 1113.5,-112 1107.5,-112"/>
<text text-anchor="middle" x="1070.5" y="-96.8" font-family="Times,serif" font-size="14.00">comp 1</text>
<text text-anchor="middle" x="1070.5" y="-81.8" font-family="Times,serif" font-size="14.00">n kernels: &#45;384</text>
</g>
<!-- 5&#45;&gt;19 -->
<g id="edge19" class="edge"><title>5&#45;&gt;19</title>
<path fill="none" stroke="black" d="M1070.5,-155.46C1070.5,-145.67 1070.5,-133.345 1070.5,-122.307"/>
<polygon fill="black" stroke="black" points="1074,-122.244 1070.5,-112.244 1067,-122.244 1074,-122.244"/>
</g>
<!-- 20 -->
<g id="node21" class="node"><title>20</title>
<path fill="#abb9ce" stroke="black" d="M1223.5,-112C1223.5,-112 1149.5,-112 1149.5,-112 1143.5,-112 1137.5,-106 1137.5,-100 1137.5,-100 1137.5,-86 1137.5,-86 1137.5,-80 1143.5,-74 1149.5,-74 1149.5,-74 1223.5,-74 1223.5,-74 1229.5,-74 1235.5,-80 1235.5,-86 1235.5,-86 1235.5,-100 1235.5,-100 1235.5,-106 1229.5,-112 1223.5,-112"/>
<text text-anchor="middle" x="1186.5" y="-96.8" font-family="Times,serif" font-size="14.00">comp 2</text>
<text text-anchor="middle" x="1186.5" y="-81.8" font-family="Times,serif" font-size="14.00">n kernels: &#45;384</text>
</g>
<!-- 5&#45;&gt;20 -->
<g id="edge20" class="edge"><title>5&#45;&gt;20</title>
<path fill="none" stroke="black" d="M1096.82,-155.46C1113.02,-144.358 1133.98,-129.996 1151.56,-117.948"/>
<polygon fill="black" stroke="black" points="1153.61,-120.784 1159.88,-112.244 1149.65,-115.01 1153.61,-120.784"/>
</g>
<!-- 21 -->
<g id="node22" class="node"><title>21</title>
<path fill="#97a3b6" stroke="black" d="M1299.5,-111C1299.5,-111 1265.5,-111 1265.5,-111 1259.5,-111 1253.5,-105 1253.5,-99 1253.5,-99 1253.5,-87 1253.5,-87 1253.5,-81 1259.5,-75 1265.5,-75 1265.5,-75 1299.5,-75 1299.5,-75 1305.5,-75 1311.5,-81 1311.5,-87 1311.5,-87 1311.5,-99 1311.5,-99 1311.5,-105 1305.5,-111 1299.5,-111"/>
<text text-anchor="middle" x="1282.5" y="-89.3" font-family="Times,serif" font-size="14.00">comp 3</text>
</g>
<!-- 5&#45;&gt;21 -->
<g id="edge21" class="edge"><title>5&#45;&gt;21</title>
<path fill="none" stroke="black" d="M1126.29,-155.406C1158.42,-144.615 1199.64,-130.138 1243.73,-112.148"/>
<polygon fill="black" stroke="black" points="1245.26,-115.3 1253.18,-108.256 1242.6,-108.828 1245.26,-115.3"/>
</g>
<!-- 22 -->
<g id="node23" class="node"><title>22</title>
<path fill="#d3e4ff" stroke="black" d="M1376.5,-111C1376.5,-111 1342.5,-111 1342.5,-111 1336.5,-111 1330.5,-105 1330.5,-99 1330.5,-99 1330.5,-87 1330.5,-87 1330.5,-81 1336.5,-75 1342.5,-75 1342.5,-75 1376.5,-75 1376.5,-75 1382.5,-75 1388.5,-81 1388.5,-87 1388.5,-87 1388.5,-99 1388.5,-99 1388.5,-105 1382.5,-111 1376.5,-111"/>
<text text-anchor="middle" x="1359.5" y="-89.3" font-family="Times,serif" font-size="14.00">comp 0</text>
</g>
<!-- 6&#45;&gt;22 -->
<g id="edge22" class="edge"><title>6&#45;&gt;22</title>
<path fill="none" stroke="black" d="M1623.98,-165.898C1570.1,-156.872 1481.57,-139.834 1398.29,-111.897"/>
<polygon fill="black" stroke="black" points="1399.28,-108.537 1388.69,-108.618 1397.02,-115.162 1399.28,-108.537"/>
</g>
<!-- 23 -->
<g id="node24" class="node"><title>23</title>
<path fill="#bfcfe6" stroke="black" d="M1452.5,-111C1452.5,-111 1418.5,-111 1418.5,-111 1412.5,-111 1406.5,-105 1406.5,-99 1406.5,-99 1406.5,-87 1406.5,-87 1406.5,-81 1412.5,-75 1418.5,-75 1418.5,-75 1452.5,-75 1452.5,-75 1458.5,-75 1464.5,-81 1464.5,-87 1464.5,-87 1464.5,-99 1464.5,-99 1464.5,-105 1458.5,-111 1452.5,-111"/>
<text text-anchor="middle" x="1435.5" y="-89.3" font-family="Times,serif" font-size="14.00">comp 1</text>
</g>
<!-- 6&#45;&gt;23 -->
<g id="edge23" class="edge"><title>6&#45;&gt;23</title>
<path fill="none" stroke="black" d="M1623.92,-160.403C1585.19,-149.689 1529.99,-133.36 1474.11,-111.994"/>
<polygon fill="black" stroke="black" points="1475.36,-108.727 1464.78,-108.379 1472.84,-115.254 1475.36,-108.727"/>
</g>
<!-- 24 -->
<g id="node25" class="node"><title>24</title>
<path fill="#abb9ce" stroke="black" d="M1614.5,-112C1614.5,-112 1494.5,-112 1494.5,-112 1488.5,-112 1482.5,-106 1482.5,-100 1482.5,-100 1482.5,-86 1482.5,-86 1482.5,-80 1488.5,-74 1494.5,-74 1494.5,-74 1614.5,-74 1614.5,-74 1620.5,-74 1626.5,-80 1626.5,-86 1626.5,-86 1626.5,-100 1626.5,-100 1626.5,-106 1620.5,-112 1614.5,-112"/>
<text text-anchor="middle" x="1554.5" y="-96.8" font-family="Times,serif" font-size="14.00">comp 2</text>
<text text-anchor="middle" x="1554.5" y="-81.8" font-family="Times,serif" font-size="14.00">log gamma2: 1.577908</text>
</g>
<!-- 6&#45;&gt;24 -->
<g id="edge24" class="edge"><title>6&#45;&gt;24</title>
<path fill="none" stroke="black" d="M1646.5,-155.46C1629.88,-144.358 1608.38,-129.996 1590.35,-117.948"/>
<polygon fill="black" stroke="black" points="1592.07,-114.888 1581.81,-112.244 1588.18,-120.709 1592.07,-114.888"/>
</g>
<!-- 25 -->
<g id="node26" class="node"><title>25</title>
<path fill="#97a3b6" stroke="black" d="M1690.5,-111C1690.5,-111 1656.5,-111 1656.5,-111 1650.5,-111 1644.5,-105 1644.5,-99 1644.5,-99 1644.5,-87 1644.5,-87 1644.5,-81 1650.5,-75 1656.5,-75 1656.5,-75 1690.5,-75 1690.5,-75 1696.5,-75 1702.5,-81 1702.5,-87 1702.5,-87 1702.5,-99 1702.5,-99 1702.5,-105 1696.5,-111 1690.5,-111"/>
<text text-anchor="middle" x="1673.5" y="-89.3" font-family="Times,serif" font-size="14.00">comp 3</text>
</g>
<!-- 6&#45;&gt;25 -->
<g id="edge25" class="edge"><title>6&#45;&gt;25</title>
<path fill="none" stroke="black" d="M1673.5,-155.46C1673.5,-145.392 1673.5,-132.644 1673.5,-121.371"/>
<polygon fill="black" stroke="black" points="1677,-121.151 1673.5,-111.151 1670,-121.151 1677,-121.151"/>
</g>
<!-- 26 -->
<g id="node27" class="node"><title>26</title>
<path fill="#838d9e" stroke="black" d="M1857,-112C1857,-112 1732,-112 1732,-112 1726,-112 1720,-106 1720,-100 1720,-100 1720,-86 1720,-86 1720,-80 1726,-74 1732,-74 1732,-74 1857,-74 1857,-74 1863,-74 1869,-80 1869,-86 1869,-86 1869,-100 1869,-100 1869,-106 1863,-112 1857,-112"/>
<text text-anchor="middle" x="1794.5" y="-96.8" font-family="Times,serif" font-size="14.00">comp 4</text>
<text text-anchor="middle" x="1794.5" y="-81.8" font-family="Times,serif" font-size="14.00">log gamma1: &#45;1.545513</text>
</g>
<!-- 6&#45;&gt;26 -->
<g id="edge26" class="edge"><title>6&#45;&gt;26</title>
<path fill="none" stroke="black" d="M1700.96,-155.46C1717.85,-144.358 1739.71,-129.996 1758.05,-117.948"/>
<polygon fill="black" stroke="black" points="1760.3,-120.66 1766.73,-112.244 1756.45,-114.81 1760.3,-120.66"/>
</g>
<!-- 27 -->
<g id="node28" class="node"><title>27</title>
<path fill="#6f7885" stroke="black" d="M1932.5,-111C1932.5,-111 1898.5,-111 1898.5,-111 1892.5,-111 1886.5,-105 1886.5,-99 1886.5,-99 1886.5,-87 1886.5,-87 1886.5,-81 1892.5,-75 1898.5,-75 1898.5,-75 1932.5,-75 1932.5,-75 1938.5,-75 1944.5,-81 1944.5,-87 1944.5,-87 1944.5,-99 1944.5,-99 1944.5,-105 1938.5,-111 1932.5,-111"/>
<text text-anchor="middle" x="1915.5" y="-89.3" font-family="Times,serif" font-size="14.00">comp 5</text>
</g>
<!-- 6&#45;&gt;27 -->
<g id="edge27" class="edge"><title>6&#45;&gt;27</title>
<path fill="none" stroke="black" d="M1723.25,-160.743C1762.79,-150.102 1819.52,-133.716 1876.68,-112.061"/>
<polygon fill="black" stroke="black" points="1878.15,-115.247 1886.23,-108.396 1875.64,-108.712 1878.15,-115.247"/>
</g>
<!-- 28 -->
<g id="node29" class="node"><title>28</title>
<path fill="#d3e4ff" stroke="black" d="M2094.5,-112C2094.5,-112 1974.5,-112 1974.5,-112 1968.5,-112 1962.5,-106 1962.5,-100 1962.5,-100 1962.5,-86 1962.5,-86 1962.5,-80 1968.5,-74 1974.5,-74 1974.5,-74 2094.5,-74 2094.5,-74 2100.5,-74 2106.5,-80 2106.5,-86 2106.5,-86 2106.5,-100 2106.5,-100 2106.5,-106 2100.5,-112 2094.5,-112"/>
<text text-anchor="middle" x="2034.5" y="-96.8" font-family="Times,serif" font-size="14.00">comp 0</text>
<text text-anchor="middle" x="2034.5" y="-81.8" font-family="Times,serif" font-size="14.00">log gamma1: 0.058752</text>
</g>
<!-- 7&#45;&gt;28 -->
<g id="edge28" class="edge"><title>7&#45;&gt;28</title>
<path fill="none" stroke="black" d="M2206.73,-147.908C2172.96,-137.336 2134.27,-125.227 2102.13,-115.167"/>
<polygon fill="black" stroke="black" points="2102.97,-111.762 2092.38,-112.115 2100.88,-118.442 2102.97,-111.762"/>
</g>
<!-- 29 -->
<g id="node30" class="node"><title>29</title>
<path fill="#bfcfe6" stroke="black" d="M2170.5,-111C2170.5,-111 2136.5,-111 2136.5,-111 2130.5,-111 2124.5,-105 2124.5,-99 2124.5,-99 2124.5,-87 2124.5,-87 2124.5,-81 2130.5,-75 2136.5,-75 2136.5,-75 2170.5,-75 2170.5,-75 2176.5,-75 2182.5,-81 2182.5,-87 2182.5,-87 2182.5,-99 2182.5,-99 2182.5,-105 2176.5,-111 2170.5,-111"/>
<text text-anchor="middle" x="2153.5" y="-89.3" font-family="Times,serif" font-size="14.00">comp 1</text>
</g>
<!-- 7&#45;&gt;29 -->
<g id="edge29" class="edge"><title>7&#45;&gt;29</title>
<path fill="none" stroke="black" d="M2245.04,-147.908C2227.74,-137.721 2208.02,-126.106 2191.32,-116.273"/>
<polygon fill="black" stroke="black" points="2192.78,-113.072 2182.39,-111.014 2189.23,-119.104 2192.78,-113.072"/>
</g>
<!-- 30 -->
<g id="node31" class="node"><title>30</title>
<path fill="#abb9ce" stroke="black" d="M2246.5,-111C2246.5,-111 2212.5,-111 2212.5,-111 2206.5,-111 2200.5,-105 2200.5,-99 2200.5,-99 2200.5,-87 2200.5,-87 2200.5,-81 2206.5,-75 2212.5,-75 2212.5,-75 2246.5,-75 2246.5,-75 2252.5,-75 2258.5,-81 2258.5,-87 2258.5,-87 2258.5,-99 2258.5,-99 2258.5,-105 2252.5,-111 2246.5,-111"/>
<text text-anchor="middle" x="2229.5" y="-89.3" font-family="Times,serif" font-size="14.00">comp 2</text>
</g>
<!-- 7&#45;&gt;30 -->
<g id="edge30" class="edge"><title>7&#45;&gt;30</title>
<path fill="none" stroke="black" d="M2269.51,-147.908C2262.77,-138.827 2255.19,-128.612 2248.45,-119.535"/>
<polygon fill="black" stroke="black" points="2251.08,-117.201 2242.31,-111.256 2245.46,-121.373 2251.08,-117.201"/>
</g>
<!-- 31 -->
<g id="node32" class="node"><title>31</title>
<path fill="#97a3b6" stroke="black" d="M2408.5,-112C2408.5,-112 2288.5,-112 2288.5,-112 2282.5,-112 2276.5,-106 2276.5,-100 2276.5,-100 2276.5,-86 2276.5,-86 2276.5,-80 2282.5,-74 2288.5,-74 2288.5,-74 2408.5,-74 2408.5,-74 2414.5,-74 2420.5,-80 2420.5,-86 2420.5,-86 2420.5,-100 2420.5,-100 2420.5,-106 2414.5,-112 2408.5,-112"/>
<text text-anchor="middle" x="2348.5" y="-96.8" font-family="Times,serif" font-size="14.00">comp 3</text>
<text text-anchor="middle" x="2348.5" y="-81.8" font-family="Times,serif" font-size="14.00">log gamma2: 1.000000</text>
</g>
<!-- 7&#45;&gt;31 -->
<g id="edge31" class="edge"><title>7&#45;&gt;31</title>
<path fill="none" stroke="black" d="M2307.81,-147.908C2314.46,-139.102 2321.91,-129.23 2328.6,-120.364"/>
<polygon fill="black" stroke="black" points="2331.5,-122.329 2334.73,-112.239 2325.92,-118.112 2331.5,-122.329"/>
</g>
<!-- 32 -->
<g id="node33" class="node"><title>32</title>
<path fill="#838d9e" stroke="black" d="M2576,-112C2576,-112 2451,-112 2451,-112 2445,-112 2439,-106 2439,-100 2439,-100 2439,-86 2439,-86 2439,-80 2445,-74 2451,-74 2451,-74 2576,-74 2576,-74 2582,-74 2588,-80 2588,-86 2588,-86 2588,-100 2588,-100 2588,-106 2582,-112 2576,-112"/>
<text text-anchor="middle" x="2513.5" y="-96.8" font-family="Times,serif" font-size="14.00">comp 4</text>
<text text-anchor="middle" x="2513.5" y="-81.8" font-family="Times,serif" font-size="14.00">log gamma1: &#45;0.016007</text>
</g>
<!-- 7&#45;&gt;32 -->
<g id="edge32" class="edge"><title>7&#45;&gt;32</title>
<path fill="none" stroke="black" d="M2360.93,-147.908C2390.46,-137.473 2424.24,-125.54 2452.48,-115.559"/>
<polygon fill="black" stroke="black" points="2453.97,-118.747 2462.23,-112.115 2451.64,-112.147 2453.97,-118.747"/>
</g>
<!-- 33 -->
<g id="node34" class="node"><title>33</title>
<path fill="#6f7885" stroke="black" d="M2686.5,-112C2686.5,-112 2618.5,-112 2618.5,-112 2612.5,-112 2606.5,-106 2606.5,-100 2606.5,-100 2606.5,-86 2606.5,-86 2606.5,-80 2612.5,-74 2618.5,-74 2618.5,-74 2686.5,-74 2686.5,-74 2692.5,-74 2698.5,-80 2698.5,-86 2698.5,-86 2698.5,-100 2698.5,-100 2698.5,-106 2692.5,-112 2686.5,-112"/>
<text text-anchor="middle" x="2652.5" y="-96.8" font-family="Times,serif" font-size="14.00">comp 5</text>
<text text-anchor="middle" x="2652.5" y="-81.8" font-family="Times,serif" font-size="14.00">n kernels: &#45;15</text>
</g>
<!-- 7&#45;&gt;33 -->
<g id="edge33" class="edge"><title>7&#45;&gt;33</title>
<path fill="none" stroke="black" d="M2402.57,-153.929C2460.94,-143.107 2532.9,-128.513 2596.5,-112 2596.6,-111.974 2596.7,-111.947 2596.81,-111.92"/>
<polygon fill="black" stroke="black" points="2597.77,-115.286 2606.48,-109.252 2595.91,-108.538 2597.77,-115.286"/>
</g>
<!-- 34 -->
<g id="node35" class="node"><title>34</title>
<path fill="#d3e4ff" stroke="black" d="M2848.5,-112C2848.5,-112 2728.5,-112 2728.5,-112 2722.5,-112 2716.5,-106 2716.5,-100 2716.5,-100 2716.5,-86 2716.5,-86 2716.5,-80 2722.5,-74 2728.5,-74 2728.5,-74 2848.5,-74 2848.5,-74 2854.5,-74 2860.5,-80 2860.5,-86 2860.5,-86 2860.5,-100 2860.5,-100 2860.5,-106 2854.5,-112 2848.5,-112"/>
<text text-anchor="middle" x="2788.5" y="-96.8" font-family="Times,serif" font-size="14.00">comp 0</text>
<text text-anchor="middle" x="2788.5" y="-81.8" font-family="Times,serif" font-size="14.00">log gamma2: 1.212746</text>
</g>
<!-- 8&#45;&gt;34 -->
<g id="edge34" class="edge"><title>8&#45;&gt;34</title>
<path fill="none" stroke="black" d="M2880.5,-155.46C2863.88,-144.358 2842.38,-129.996 2824.35,-117.948"/>
<polygon fill="black" stroke="black" points="2826.07,-114.888 2815.81,-112.244 2822.18,-120.709 2826.07,-114.888"/>
</g>
<!-- 35 -->
<g id="node36" class="node"><title>35</title>
<path fill="#bfcfe6" stroke="black" d="M2924.5,-111C2924.5,-111 2890.5,-111 2890.5,-111 2884.5,-111 2878.5,-105 2878.5,-99 2878.5,-99 2878.5,-87 2878.5,-87 2878.5,-81 2884.5,-75 2890.5,-75 2890.5,-75 2924.5,-75 2924.5,-75 2930.5,-75 2936.5,-81 2936.5,-87 2936.5,-87 2936.5,-99 2936.5,-99 2936.5,-105 2930.5,-111 2924.5,-111"/>
<text text-anchor="middle" x="2907.5" y="-89.3" font-family="Times,serif" font-size="14.00">comp 1</text>
</g>
<!-- 8&#45;&gt;35 -->
<g id="edge35" class="edge"><title>8&#45;&gt;35</title>
<path fill="none" stroke="black" d="M2907.5,-155.46C2907.5,-145.392 2907.5,-132.644 2907.5,-121.371"/>
<polygon fill="black" stroke="black" points="2911,-121.151 2907.5,-111.151 2904,-121.151 2911,-121.151"/>
</g>
<!-- 36 -->
<g id="node37" class="node"><title>36</title>
<path fill="#abb9ce" stroke="black" d="M3000.5,-111C3000.5,-111 2966.5,-111 2966.5,-111 2960.5,-111 2954.5,-105 2954.5,-99 2954.5,-99 2954.5,-87 2954.5,-87 2954.5,-81 2960.5,-75 2966.5,-75 2966.5,-75 3000.5,-75 3000.5,-75 3006.5,-75 3012.5,-81 3012.5,-87 3012.5,-87 3012.5,-99 3012.5,-99 3012.5,-105 3006.5,-111 3000.5,-111"/>
<text text-anchor="middle" x="2983.5" y="-89.3" font-family="Times,serif" font-size="14.00">comp 2</text>
</g>
<!-- 8&#45;&gt;36 -->
<g id="edge36" class="edge"><title>8&#45;&gt;36</title>
<path fill="none" stroke="black" d="M2924.75,-155.46C2935.16,-144.562 2948.59,-130.523 2959.97,-118.614"/>
<polygon fill="black" stroke="black" points="2962.72,-120.798 2967.1,-111.151 2957.66,-115.961 2962.72,-120.798"/>
</g>
<!-- 37 -->
<g id="node38" class="node"><title>37</title>
<path fill="#97a3b6" stroke="black" d="M3078.5,-111C3078.5,-111 3044.5,-111 3044.5,-111 3038.5,-111 3032.5,-105 3032.5,-99 3032.5,-99 3032.5,-87 3032.5,-87 3032.5,-81 3038.5,-75 3044.5,-75 3044.5,-75 3078.5,-75 3078.5,-75 3084.5,-75 3090.5,-81 3090.5,-87 3090.5,-87 3090.5,-99 3090.5,-99 3090.5,-105 3084.5,-111 3078.5,-111"/>
<text text-anchor="middle" x="3061.5" y="-89.3" font-family="Times,serif" font-size="14.00">comp 3</text>
</g>
<!-- 8&#45;&gt;37 -->
<g id="edge37" class="edge"><title>8&#45;&gt;37</title>
<path fill="none" stroke="black" d="M2942.44,-155.46C2966.52,-143.03 2998.52,-126.513 3023.28,-113.733"/>
<polygon fill="black" stroke="black" points="3025.1,-116.731 3032.38,-109.034 3021.89,-110.511 3025.1,-116.731"/>
</g>
<!-- 38 -->
<g id="node39" class="node"><title>38</title>
<path fill="#d3e4ff" stroke="black" d="M3238.5,-111C3238.5,-111 3204.5,-111 3204.5,-111 3198.5,-111 3192.5,-105 3192.5,-99 3192.5,-99 3192.5,-87 3192.5,-87 3192.5,-81 3198.5,-75 3204.5,-75 3204.5,-75 3238.5,-75 3238.5,-75 3244.5,-75 3250.5,-81 3250.5,-87 3250.5,-87 3250.5,-99 3250.5,-99 3250.5,-105 3244.5,-111 3238.5,-111"/>
<text text-anchor="middle" x="3221.5" y="-89.3" font-family="Times,serif" font-size="14.00">comp 0</text>
</g>
<!-- 9&#45;&gt;38 -->
<g id="edge38" class="edge"><title>9&#45;&gt;38</title>
<path fill="none" stroke="black" d="M3281.03,-155.46C3270.47,-144.562 3256.87,-130.523 3245.34,-118.614"/>
<polygon fill="black" stroke="black" points="3247.58,-115.899 3238.11,-111.151 3242.55,-120.769 3247.58,-115.899"/>
</g>
<!-- 39 -->
<g id="node40" class="node"><title>39</title>
<path fill="#bfcfe6" stroke="black" d="M3315.5,-111C3315.5,-111 3281.5,-111 3281.5,-111 3275.5,-111 3269.5,-105 3269.5,-99 3269.5,-99 3269.5,-87 3269.5,-87 3269.5,-81 3275.5,-75 3281.5,-75 3281.5,-75 3315.5,-75 3315.5,-75 3321.5,-75 3327.5,-81 3327.5,-87 3327.5,-87 3327.5,-99 3327.5,-99 3327.5,-105 3321.5,-111 3315.5,-111"/>
<text text-anchor="middle" x="3298.5" y="-89.3" font-family="Times,serif" font-size="14.00">comp 1</text>
</g>
<!-- 9&#45;&gt;39 -->
<g id="edge39" class="edge"><title>9&#45;&gt;39</title>
<path fill="none" stroke="black" d="M3298.5,-155.46C3298.5,-145.392 3298.5,-132.644 3298.5,-121.371"/>
<polygon fill="black" stroke="black" points="3302,-121.151 3298.5,-111.151 3295,-121.151 3302,-121.151"/>
</g>
<!-- 40 -->
<g id="node41" class="node"><title>40</title>
<path fill="#abb9ce" stroke="black" d="M3391.5,-111C3391.5,-111 3357.5,-111 3357.5,-111 3351.5,-111 3345.5,-105 3345.5,-99 3345.5,-99 3345.5,-87 3345.5,-87 3345.5,-81 3351.5,-75 3357.5,-75 3357.5,-75 3391.5,-75 3391.5,-75 3397.5,-75 3403.5,-81 3403.5,-87 3403.5,-87 3403.5,-99 3403.5,-99 3403.5,-105 3397.5,-111 3391.5,-111"/>
<text text-anchor="middle" x="3374.5" y="-89.3" font-family="Times,serif" font-size="14.00">comp 2</text>
</g>
<!-- 9&#45;&gt;40 -->
<g id="edge40" class="edge"><title>9&#45;&gt;40</title>
<path fill="none" stroke="black" d="M3315.75,-155.46C3326.16,-144.562 3339.59,-130.523 3350.97,-118.614"/>
<polygon fill="black" stroke="black" points="3353.72,-120.798 3358.1,-111.151 3348.66,-115.961 3353.72,-120.798"/>
</g>
<!-- 41 -->
<g id="node42" class="node"><title>41</title>
<path fill="#97a3b6" stroke="black" d="M3553.5,-112C3553.5,-112 3433.5,-112 3433.5,-112 3427.5,-112 3421.5,-106 3421.5,-100 3421.5,-100 3421.5,-86 3421.5,-86 3421.5,-80 3427.5,-74 3433.5,-74 3433.5,-74 3553.5,-74 3553.5,-74 3559.5,-74 3565.5,-80 3565.5,-86 3565.5,-86 3565.5,-100 3565.5,-100 3565.5,-106 3559.5,-112 3553.5,-112"/>
<text text-anchor="middle" x="3493.5" y="-96.8" font-family="Times,serif" font-size="14.00">comp 3</text>
<text text-anchor="middle" x="3493.5" y="-81.8" font-family="Times,serif" font-size="14.00">log gamma1: 1.550070</text>
</g>
<!-- 9&#45;&gt;41 -->
<g id="edge41" class="edge"><title>9&#45;&gt;41</title>
<path fill="none" stroke="black" d="M3342.75,-155.46C3371.44,-143.761 3409.02,-128.444 3439.47,-116.027"/>
<polygon fill="black" stroke="black" points="3441.15,-119.122 3449.09,-112.106 3438.51,-112.64 3441.15,-119.122"/>
</g>
<!-- 42 -->
<g id="node43" class="node"><title>42</title>
<path fill="#f6d3ff" stroke="black" d="M47,-38C47,-38 12,-38 12,-38 6,-38 0,-32 0,-26 0,-26 0,-12 0,-12 0,-6 6,-0 12,-0 12,-0 47,-0 47,-0 53,-0 59,-6 59,-12 59,-12 59,-26 59,-26 59,-32 53,-38 47,-38"/>
<text text-anchor="middle" x="29.5" y="-22.8" font-family="Times,serif" font-size="14.00">forward</text>
<text text-anchor="middle" x="29.5" y="-7.8" font-family="Times,serif" font-size="14.00">input</text>
</g>
<!-- 10&#45;&gt;42 -->
<g id="edge42" class="edge"><title>10&#45;&gt;42</title>
<path fill="none" stroke="black" d="M30.263,-74.937C30.1526,-66.9865 30.0182,-57.3134 29.8932,-48.3127"/>
<polygon fill="black" stroke="black" points="33.3914,-48.1496 29.7528,-38.1992 26.3921,-48.2468 33.3914,-48.1496"/>
</g>
<!-- 43 -->
<g id="node44" class="node"><title>43</title>
<path fill="#f6d3ff" stroke="black" d="M125.5,-38C125.5,-38 89.5,-38 89.5,-38 83.5,-38 77.5,-32 77.5,-26 77.5,-26 77.5,-12 77.5,-12 77.5,-6 83.5,-0 89.5,-0 89.5,-0 125.5,-0 125.5,-0 131.5,-0 137.5,-6 137.5,-12 137.5,-12 137.5,-26 137.5,-26 137.5,-32 131.5,-38 125.5,-38"/>
<text text-anchor="middle" x="107.5" y="-22.8" font-family="Times,serif" font-size="14.00">forward</text>
<text text-anchor="middle" x="107.5" y="-7.8" font-family="Times,serif" font-size="14.00">EB0/C0</text>
</g>
<!-- 11&#45;&gt;43 -->
<g id="edge43" class="edge"><title>11&#45;&gt;43</title>
<path fill="none" stroke="black" d="M106.737,-74.937C106.847,-66.9865 106.982,-57.3134 107.107,-48.3127"/>
<polygon fill="black" stroke="black" points="110.608,-48.2468 107.247,-38.1992 103.609,-48.1496 110.608,-48.2468"/>
</g>
<!-- 44 -->
<g id="node45" class="node"><title>44</title>
<path fill="#f6d3ff" stroke="black" d="M222.5,-38C222.5,-38 186.5,-38 186.5,-38 180.5,-38 174.5,-32 174.5,-26 174.5,-26 174.5,-12 174.5,-12 174.5,-6 180.5,-0 186.5,-0 186.5,-0 222.5,-0 222.5,-0 228.5,-0 234.5,-6 234.5,-12 234.5,-12 234.5,-26 234.5,-26 234.5,-32 228.5,-38 222.5,-38"/>
<text text-anchor="middle" x="204.5" y="-22.8" font-family="Times,serif" font-size="14.00">forward</text>
<text text-anchor="middle" x="204.5" y="-7.8" font-family="Times,serif" font-size="14.00">EB0/C1</text>
</g>
<!-- 12&#45;&gt;44 -->
<g id="edge44" class="edge"><title>12&#45;&gt;44</title>
<path fill="none" stroke="black" d="M204.5,-73.8314C204.5,-66.131 204.5,-56.9743 204.5,-48.4166"/>
<polygon fill="black" stroke="black" points="208,-48.4132 204.5,-38.4133 201,-48.4133 208,-48.4132"/>
</g>
<!-- 45 -->
<g id="node46" class="node"><title>45</title>
<path fill="#f6d3ff" stroke="black" d="M363.5,-38C363.5,-38 327.5,-38 327.5,-38 321.5,-38 315.5,-32 315.5,-26 315.5,-26 315.5,-12 315.5,-12 315.5,-6 321.5,-0 327.5,-0 327.5,-0 363.5,-0 363.5,-0 369.5,-0 375.5,-6 375.5,-12 375.5,-12 375.5,-26 375.5,-26 375.5,-32 369.5,-38 363.5,-38"/>
<text text-anchor="middle" x="345.5" y="-22.8" font-family="Times,serif" font-size="14.00">forward</text>
<text text-anchor="middle" x="345.5" y="-7.8" font-family="Times,serif" font-size="14.00">EB0/C2</text>
</g>
<!-- 13&#45;&gt;45 -->
<g id="edge45" class="edge"><title>13&#45;&gt;45</title>
<path fill="none" stroke="black" d="M345.5,-73.8314C345.5,-66.131 345.5,-56.9743 345.5,-48.4166"/>
<polygon fill="black" stroke="black" points="349,-48.4132 345.5,-38.4133 342,-48.4133 349,-48.4132"/>
</g>
<!-- 46 -->
<g id="node47" class="node"><title>46</title>
<path fill="#f6d3ff" stroke="black" d="M482.5,-38C482.5,-38 446.5,-38 446.5,-38 440.5,-38 434.5,-32 434.5,-26 434.5,-26 434.5,-12 434.5,-12 434.5,-6 440.5,-0 446.5,-0 446.5,-0 482.5,-0 482.5,-0 488.5,-0 494.5,-6 494.5,-12 494.5,-12 494.5,-26 494.5,-26 494.5,-32 488.5,-38 482.5,-38"/>
<text text-anchor="middle" x="464.5" y="-22.8" font-family="Times,serif" font-size="14.00">forward</text>
<text text-anchor="middle" x="464.5" y="-7.8" font-family="Times,serif" font-size="14.00">EB0/C3</text>
</g>
<!-- 14&#45;&gt;46 -->
<g id="edge46" class="edge"><title>14&#45;&gt;46</title>
<path fill="none" stroke="black" d="M464.5,-74.937C464.5,-66.9865 464.5,-57.3134 464.5,-48.3127"/>
<polygon fill="black" stroke="black" points="468,-48.1991 464.5,-38.1992 461,-48.1992 468,-48.1991"/>
</g>
<!-- 47 -->
<g id="node48" class="node"><title>47</title>
<path fill="#f6d3ff" stroke="black" d="M601.5,-38C601.5,-38 565.5,-38 565.5,-38 559.5,-38 553.5,-32 553.5,-26 553.5,-26 553.5,-12 553.5,-12 553.5,-6 559.5,-0 565.5,-0 565.5,-0 601.5,-0 601.5,-0 607.5,-0 613.5,-6 613.5,-12 613.5,-12 613.5,-26 613.5,-26 613.5,-32 607.5,-38 601.5,-38"/>
<text text-anchor="middle" x="583.5" y="-22.8" font-family="Times,serif" font-size="14.00">forward</text>
<text text-anchor="middle" x="583.5" y="-7.8" font-family="Times,serif" font-size="14.00">EB1/C0</text>
</g>
<!-- 15&#45;&gt;47 -->
<g id="edge47" class="edge"><title>15&#45;&gt;47</title>
<path fill="none" stroke="black" d="M583.5,-73.8314C583.5,-66.131 583.5,-56.9743 583.5,-48.4166"/>
<polygon fill="black" stroke="black" points="587,-48.4132 583.5,-38.4133 580,-48.4133 587,-48.4132"/>
</g>
<!-- 48 -->
<g id="node49" class="node"><title>48</title>
<path fill="#f6d3ff" stroke="black" d="M737.5,-38C737.5,-38 701.5,-38 701.5,-38 695.5,-38 689.5,-32 689.5,-26 689.5,-26 689.5,-12 689.5,-12 689.5,-6 695.5,-0 701.5,-0 701.5,-0 737.5,-0 737.5,-0 743.5,-0 749.5,-6 749.5,-12 749.5,-12 749.5,-26 749.5,-26 749.5,-32 743.5,-38 737.5,-38"/>
<text text-anchor="middle" x="719.5" y="-22.8" font-family="Times,serif" font-size="14.00">forward</text>
<text text-anchor="middle" x="719.5" y="-7.8" font-family="Times,serif" font-size="14.00">EB1/C1</text>
</g>
<!-- 16&#45;&gt;48 -->
<g id="edge48" class="edge"><title>16&#45;&gt;48</title>
<path fill="none" stroke="black" d="M719.5,-73.8314C719.5,-66.131 719.5,-56.9743 719.5,-48.4166"/>
<polygon fill="black" stroke="black" points="723,-48.4132 719.5,-38.4133 716,-48.4133 723,-48.4132"/>
</g>
<!-- 49 -->
<g id="node50" class="node"><title>49</title>
<path fill="#f6d3ff" stroke="black" d="M873.5,-38C873.5,-38 837.5,-38 837.5,-38 831.5,-38 825.5,-32 825.5,-26 825.5,-26 825.5,-12 825.5,-12 825.5,-6 831.5,-0 837.5,-0 837.5,-0 873.5,-0 873.5,-0 879.5,-0 885.5,-6 885.5,-12 885.5,-12 885.5,-26 885.5,-26 885.5,-32 879.5,-38 873.5,-38"/>
<text text-anchor="middle" x="855.5" y="-22.8" font-family="Times,serif" font-size="14.00">forward</text>
<text text-anchor="middle" x="855.5" y="-7.8" font-family="Times,serif" font-size="14.00">EB1/C2</text>
</g>
<!-- 17&#45;&gt;49 -->
<g id="edge49" class="edge"><title>17&#45;&gt;49</title>
<path fill="none" stroke="black" d="M855.5,-73.8314C855.5,-66.131 855.5,-56.9743 855.5,-48.4166"/>
<polygon fill="black" stroke="black" points="859,-48.4132 855.5,-38.4133 852,-48.4133 859,-48.4132"/>
</g>
<!-- 50 -->
<g id="node51" class="node"><title>50</title>
<path fill="#f6d3ff" stroke="black" d="M992.5,-38C992.5,-38 956.5,-38 956.5,-38 950.5,-38 944.5,-32 944.5,-26 944.5,-26 944.5,-12 944.5,-12 944.5,-6 950.5,-0 956.5,-0 956.5,-0 992.5,-0 992.5,-0 998.5,-0 1004.5,-6 1004.5,-12 1004.5,-12 1004.5,-26 1004.5,-26 1004.5,-32 998.5,-38 992.5,-38"/>
<text text-anchor="middle" x="974.5" y="-22.8" font-family="Times,serif" font-size="14.00">forward</text>
<text text-anchor="middle" x="974.5" y="-7.8" font-family="Times,serif" font-size="14.00">EB1/C3</text>
</g>
<!-- 18&#45;&gt;50 -->
<g id="edge50" class="edge"><title>18&#45;&gt;50</title>
<path fill="none" stroke="black" d="M974.5,-74.937C974.5,-66.9865 974.5,-57.3134 974.5,-48.3127"/>
<polygon fill="black" stroke="black" points="978,-48.1991 974.5,-38.1992 971,-48.1992 978,-48.1991"/>
</g>
<!-- 51 -->
<g id="node52" class="node"><title>51</title>
<path fill="#f6d3ff" stroke="black" d="M1088.5,-38C1088.5,-38 1052.5,-38 1052.5,-38 1046.5,-38 1040.5,-32 1040.5,-26 1040.5,-26 1040.5,-12 1040.5,-12 1040.5,-6 1046.5,-0 1052.5,-0 1052.5,-0 1088.5,-0 1088.5,-0 1094.5,-0 1100.5,-6 1100.5,-12 1100.5,-12 1100.5,-26 1100.5,-26 1100.5,-32 1094.5,-38 1088.5,-38"/>
<text text-anchor="middle" x="1070.5" y="-22.8" font-family="Times,serif" font-size="14.00">forward</text>
<text text-anchor="middle" x="1070.5" y="-7.8" font-family="Times,serif" font-size="14.00">EB2/C0</text>
</g>
<!-- 19&#45;&gt;51 -->
<g id="edge51" class="edge"><title>19&#45;&gt;51</title>
<path fill="none" stroke="black" d="M1070.5,-73.8314C1070.5,-66.131 1070.5,-56.9743 1070.5,-48.4166"/>
<polygon fill="black" stroke="black" points="1074,-48.4132 1070.5,-38.4133 1067,-48.4133 1074,-48.4132"/>
</g>
<!-- 52 -->
<g id="node53" class="node"><title>52</title>
<path fill="#f6d3ff" stroke="black" d="M1204.5,-38C1204.5,-38 1168.5,-38 1168.5,-38 1162.5,-38 1156.5,-32 1156.5,-26 1156.5,-26 1156.5,-12 1156.5,-12 1156.5,-6 1162.5,-0 1168.5,-0 1168.5,-0 1204.5,-0 1204.5,-0 1210.5,-0 1216.5,-6 1216.5,-12 1216.5,-12 1216.5,-26 1216.5,-26 1216.5,-32 1210.5,-38 1204.5,-38"/>
<text text-anchor="middle" x="1186.5" y="-22.8" font-family="Times,serif" font-size="14.00">forward</text>
<text text-anchor="middle" x="1186.5" y="-7.8" font-family="Times,serif" font-size="14.00">EB2/C1</text>
</g>
<!-- 20&#45;&gt;52 -->
<g id="edge52" class="edge"><title>20&#45;&gt;52</title>
<path fill="none" stroke="black" d="M1186.5,-73.8314C1186.5,-66.131 1186.5,-56.9743 1186.5,-48.4166"/>
<polygon fill="black" stroke="black" points="1190,-48.4132 1186.5,-38.4133 1183,-48.4133 1190,-48.4132"/>
</g>
<!-- 53 -->
<g id="node54" class="node"><title>53</title>
<path fill="#f6d3ff" stroke="black" d="M1299.5,-38C1299.5,-38 1263.5,-38 1263.5,-38 1257.5,-38 1251.5,-32 1251.5,-26 1251.5,-26 1251.5,-12 1251.5,-12 1251.5,-6 1257.5,-0 1263.5,-0 1263.5,-0 1299.5,-0 1299.5,-0 1305.5,-0 1311.5,-6 1311.5,-12 1311.5,-12 1311.5,-26 1311.5,-26 1311.5,-32 1305.5,-38 1299.5,-38"/>
<text text-anchor="middle" x="1281.5" y="-22.8" font-family="Times,serif" font-size="14.00">forward</text>
<text text-anchor="middle" x="1281.5" y="-7.8" font-family="Times,serif" font-size="14.00">EB2/C2</text>
</g>
<!-- 21&#45;&gt;53 -->
<g id="edge53" class="edge"><title>21&#45;&gt;53</title>
<path fill="none" stroke="black" d="M1282.26,-74.937C1282.15,-66.9865 1282.02,-57.3134 1281.89,-48.3127"/>
<polygon fill="black" stroke="black" points="1285.39,-48.1496 1281.75,-38.1992 1278.39,-48.2468 1285.39,-48.1496"/>
</g>
<!-- 54 -->
<g id="node55" class="node"><title>54</title>
<path fill="#f6d3ff" stroke="black" d="M1377.5,-38C1377.5,-38 1341.5,-38 1341.5,-38 1335.5,-38 1329.5,-32 1329.5,-26 1329.5,-26 1329.5,-12 1329.5,-12 1329.5,-6 1335.5,-0 1341.5,-0 1341.5,-0 1377.5,-0 1377.5,-0 1383.5,-0 1389.5,-6 1389.5,-12 1389.5,-12 1389.5,-26 1389.5,-26 1389.5,-32 1383.5,-38 1377.5,-38"/>
<text text-anchor="middle" x="1359.5" y="-22.8" font-family="Times,serif" font-size="14.00">forward</text>
<text text-anchor="middle" x="1359.5" y="-7.8" font-family="Times,serif" font-size="14.00">EB2/C3</text>
</g>
<!-- 22&#45;&gt;54 -->
<g id="edge54" class="edge"><title>22&#45;&gt;54</title>
<path fill="none" stroke="black" d="M1359.5,-74.937C1359.5,-66.9865 1359.5,-57.3134 1359.5,-48.3127"/>
<polygon fill="black" stroke="black" points="1363,-48.1991 1359.5,-38.1992 1356,-48.1992 1363,-48.1991"/>
</g>
<!-- 55 -->
<g id="node56" class="node"><title>55</title>
<path fill="#f6d3ff" stroke="black" d="M1457.5,-38C1457.5,-38 1419.5,-38 1419.5,-38 1413.5,-38 1407.5,-32 1407.5,-26 1407.5,-26 1407.5,-12 1407.5,-12 1407.5,-6 1413.5,-0 1419.5,-0 1419.5,-0 1457.5,-0 1457.5,-0 1463.5,-0 1469.5,-6 1469.5,-12 1469.5,-12 1469.5,-26 1469.5,-26 1469.5,-32 1463.5,-38 1457.5,-38"/>
<text text-anchor="middle" x="1438.5" y="-22.8" font-family="Times,serif" font-size="14.00">forward</text>
<text text-anchor="middle" x="1438.5" y="-7.8" font-family="Times,serif" font-size="14.00">DB3/C0</text>
</g>
<!-- 23&#45;&gt;55 -->
<g id="edge55" class="edge"><title>23&#45;&gt;55</title>
<path fill="none" stroke="black" d="M1436.21,-74.937C1436.54,-66.9865 1436.95,-57.3134 1437.32,-48.3127"/>
<polygon fill="black" stroke="black" points="1440.82,-48.3362 1437.74,-38.1992 1433.83,-48.0448 1440.82,-48.3362"/>
</g>
<!-- 56 -->
<g id="node57" class="node"><title>56</title>
<path fill="#f6d3ff" stroke="black" d="M1573.5,-38C1573.5,-38 1535.5,-38 1535.5,-38 1529.5,-38 1523.5,-32 1523.5,-26 1523.5,-26 1523.5,-12 1523.5,-12 1523.5,-6 1529.5,-0 1535.5,-0 1535.5,-0 1573.5,-0 1573.5,-0 1579.5,-0 1585.5,-6 1585.5,-12 1585.5,-12 1585.5,-26 1585.5,-26 1585.5,-32 1579.5,-38 1573.5,-38"/>
<text text-anchor="middle" x="1554.5" y="-22.8" font-family="Times,serif" font-size="14.00">forward</text>
<text text-anchor="middle" x="1554.5" y="-7.8" font-family="Times,serif" font-size="14.00">DB3/C1</text>
</g>
<!-- 24&#45;&gt;56 -->
<g id="edge56" class="edge"><title>24&#45;&gt;56</title>
<path fill="none" stroke="black" d="M1554.5,-73.8314C1554.5,-66.131 1554.5,-56.9743 1554.5,-48.4166"/>
<polygon fill="black" stroke="black" points="1558,-48.4132 1554.5,-38.4133 1551,-48.4133 1558,-48.4132"/>
</g>
<!-- 57 -->
<g id="node58" class="node"><title>57</title>
<path fill="#f6d3ff" stroke="black" d="M1692.5,-38C1692.5,-38 1654.5,-38 1654.5,-38 1648.5,-38 1642.5,-32 1642.5,-26 1642.5,-26 1642.5,-12 1642.5,-12 1642.5,-6 1648.5,-0 1654.5,-0 1654.5,-0 1692.5,-0 1692.5,-0 1698.5,-0 1704.5,-6 1704.5,-12 1704.5,-12 1704.5,-26 1704.5,-26 1704.5,-32 1698.5,-38 1692.5,-38"/>
<text text-anchor="middle" x="1673.5" y="-22.8" font-family="Times,serif" font-size="14.00">forward</text>
<text text-anchor="middle" x="1673.5" y="-7.8" font-family="Times,serif" font-size="14.00">DB3/C2</text>
</g>
<!-- 25&#45;&gt;57 -->
<g id="edge57" class="edge"><title>25&#45;&gt;57</title>
<path fill="none" stroke="black" d="M1673.5,-74.937C1673.5,-66.9865 1673.5,-57.3134 1673.5,-48.3127"/>
<polygon fill="black" stroke="black" points="1677,-48.1991 1673.5,-38.1992 1670,-48.1992 1677,-48.1991"/>
</g>
<!-- 58 -->
<g id="node59" class="node"><title>58</title>
<path fill="#f6d3ff" stroke="black" d="M1813.5,-38C1813.5,-38 1775.5,-38 1775.5,-38 1769.5,-38 1763.5,-32 1763.5,-26 1763.5,-26 1763.5,-12 1763.5,-12 1763.5,-6 1769.5,-0 1775.5,-0 1775.5,-0 1813.5,-0 1813.5,-0 1819.5,-0 1825.5,-6 1825.5,-12 1825.5,-12 1825.5,-26 1825.5,-26 1825.5,-32 1819.5,-38 1813.5,-38"/>
<text text-anchor="middle" x="1794.5" y="-22.8" font-family="Times,serif" font-size="14.00">forward</text>
<text text-anchor="middle" x="1794.5" y="-7.8" font-family="Times,serif" font-size="14.00">DB3/C3</text>
</g>
<!-- 26&#45;&gt;58 -->
<g id="edge58" class="edge"><title>26&#45;&gt;58</title>
<path fill="none" stroke="black" d="M1794.5,-73.8314C1794.5,-66.131 1794.5,-56.9743 1794.5,-48.4166"/>
<polygon fill="black" stroke="black" points="1798,-48.4132 1794.5,-38.4133 1791,-48.4133 1798,-48.4132"/>
</g>
<!-- 59 -->
<g id="node60" class="node"><title>59</title>
<path fill="#f6d3ff" stroke="black" d="M1934.5,-38C1934.5,-38 1896.5,-38 1896.5,-38 1890.5,-38 1884.5,-32 1884.5,-26 1884.5,-26 1884.5,-12 1884.5,-12 1884.5,-6 1890.5,-0 1896.5,-0 1896.5,-0 1934.5,-0 1934.5,-0 1940.5,-0 1946.5,-6 1946.5,-12 1946.5,-12 1946.5,-26 1946.5,-26 1946.5,-32 1940.5,-38 1934.5,-38"/>
<text text-anchor="middle" x="1915.5" y="-22.8" font-family="Times,serif" font-size="14.00">forward</text>
<text text-anchor="middle" x="1915.5" y="-7.8" font-family="Times,serif" font-size="14.00">DB3/C4</text>
</g>
<!-- 27&#45;&gt;59 -->
<g id="edge59" class="edge"><title>27&#45;&gt;59</title>
<path fill="none" stroke="black" d="M1915.5,-74.937C1915.5,-66.9865 1915.5,-57.3134 1915.5,-48.3127"/>
<polygon fill="black" stroke="black" points="1919,-48.1991 1915.5,-38.1992 1912,-48.1992 1919,-48.1991"/>
</g>
<!-- 60 -->
<g id="node61" class="node"><title>60</title>
<path fill="#f6d3ff" stroke="black" d="M2014.5,-38C2014.5,-38 1976.5,-38 1976.5,-38 1970.5,-38 1964.5,-32 1964.5,-26 1964.5,-26 1964.5,-12 1964.5,-12 1964.5,-6 1970.5,-0 1976.5,-0 1976.5,-0 2014.5,-0 2014.5,-0 2020.5,-0 2026.5,-6 2026.5,-12 2026.5,-12 2026.5,-26 2026.5,-26 2026.5,-32 2020.5,-38 2014.5,-38"/>
<text text-anchor="middle" x="1995.5" y="-22.8" font-family="Times,serif" font-size="14.00">forward</text>
<text text-anchor="middle" x="1995.5" y="-7.8" font-family="Times,serif" font-size="14.00">DB3/C5</text>
</g>
<!-- 28&#45;&gt;60 -->
<g id="edge60" class="edge"><title>28&#45;&gt;60</title>
<path fill="none" stroke="black" d="M2024.66,-73.8314C2020.3,-65.7925 2015.09,-56.1666 2010.28,-47.2918"/>
<polygon fill="black" stroke="black" points="2013.31,-45.5392 2005.47,-38.4133 2007.16,-48.8732 2013.31,-45.5392"/>
</g>
<!-- 61 -->
<g id="node62" class="node"><title>61</title>
<path fill="#debfe6" stroke="black" d="M2092.5,-38C2092.5,-38 2056.5,-38 2056.5,-38 2050.5,-38 2044.5,-32 2044.5,-26 2044.5,-26 2044.5,-12 2044.5,-12 2044.5,-6 2050.5,-0 2056.5,-0 2056.5,-0 2092.5,-0 2092.5,-0 2098.5,-0 2104.5,-6 2104.5,-12 2104.5,-12 2104.5,-26 2104.5,-26 2104.5,-32 2098.5,-38 2092.5,-38"/>
<text text-anchor="middle" x="2074.5" y="-22.8" font-family="Times,serif" font-size="14.00">merge</text>
<text text-anchor="middle" x="2074.5" y="-7.8" font-family="Times,serif" font-size="14.00">EB2/C3</text>
</g>
<!-- 28&#45;&gt;61 -->
<g id="edge61" class="edge"><title>28&#45;&gt;61</title>
<path fill="none" stroke="black" d="M2044.59,-73.8314C2049.06,-65.7925 2054.41,-56.1666 2059.34,-47.2918"/>
<polygon fill="black" stroke="black" points="2062.47,-48.8546 2064.27,-38.4133 2056.35,-45.4551 2062.47,-48.8546"/>
</g>
<!-- 62 -->
<g id="node63" class="node"><title>62</title>
<path fill="#f6d3ff" stroke="black" d="M2172.5,-38C2172.5,-38 2134.5,-38 2134.5,-38 2128.5,-38 2122.5,-32 2122.5,-26 2122.5,-26 2122.5,-12 2122.5,-12 2122.5,-6 2128.5,-0 2134.5,-0 2134.5,-0 2172.5,-0 2172.5,-0 2178.5,-0 2184.5,-6 2184.5,-12 2184.5,-12 2184.5,-26 2184.5,-26 2184.5,-32 2178.5,-38 2172.5,-38"/>
<text text-anchor="middle" x="2153.5" y="-22.8" font-family="Times,serif" font-size="14.00">forward</text>
<text text-anchor="middle" x="2153.5" y="-7.8" font-family="Times,serif" font-size="14.00">DB2/C0</text>
</g>
<!-- 29&#45;&gt;62 -->
<g id="edge62" class="edge"><title>29&#45;&gt;62</title>
<path fill="none" stroke="black" d="M2153.5,-74.937C2153.5,-66.9865 2153.5,-57.3134 2153.5,-48.3127"/>
<polygon fill="black" stroke="black" points="2157,-48.1991 2153.5,-38.1992 2150,-48.1992 2157,-48.1991"/>
</g>
<!-- 63 -->
<g id="node64" class="node"><title>63</title>
<path fill="#f6d3ff" stroke="black" d="M2252.5,-38C2252.5,-38 2214.5,-38 2214.5,-38 2208.5,-38 2202.5,-32 2202.5,-26 2202.5,-26 2202.5,-12 2202.5,-12 2202.5,-6 2208.5,-0 2214.5,-0 2214.5,-0 2252.5,-0 2252.5,-0 2258.5,-0 2264.5,-6 2264.5,-12 2264.5,-12 2264.5,-26 2264.5,-26 2264.5,-32 2258.5,-38 2252.5,-38"/>
<text text-anchor="middle" x="2233.5" y="-22.8" font-family="Times,serif" font-size="14.00">forward</text>
<text text-anchor="middle" x="2233.5" y="-7.8" font-family="Times,serif" font-size="14.00">DB2/C1</text>
</g>
<!-- 30&#45;&gt;63 -->
<g id="edge63" class="edge"><title>30&#45;&gt;63</title>
<path fill="none" stroke="black" d="M2230.45,-74.937C2230.89,-66.9865 2231.43,-57.3134 2231.93,-48.3127"/>
<polygon fill="black" stroke="black" points="2235.43,-48.3779 2232.49,-38.1992 2228.44,-47.9896 2235.43,-48.3779"/>
</g>
<!-- 64 -->
<g id="node65" class="node"><title>64</title>
<path fill="#f6d3ff" stroke="black" d="M2367.5,-38C2367.5,-38 2329.5,-38 2329.5,-38 2323.5,-38 2317.5,-32 2317.5,-26 2317.5,-26 2317.5,-12 2317.5,-12 2317.5,-6 2323.5,-0 2329.5,-0 2329.5,-0 2367.5,-0 2367.5,-0 2373.5,-0 2379.5,-6 2379.5,-12 2379.5,-12 2379.5,-26 2379.5,-26 2379.5,-32 2373.5,-38 2367.5,-38"/>
<text text-anchor="middle" x="2348.5" y="-22.8" font-family="Times,serif" font-size="14.00">forward</text>
<text text-anchor="middle" x="2348.5" y="-7.8" font-family="Times,serif" font-size="14.00">DB2/C2</text>
</g>
<!-- 31&#45;&gt;64 -->
<g id="edge64" class="edge"><title>31&#45;&gt;64</title>
<path fill="none" stroke="black" d="M2348.5,-73.8314C2348.5,-66.131 2348.5,-56.9743 2348.5,-48.4166"/>
<polygon fill="black" stroke="black" points="2352,-48.4132 2348.5,-38.4133 2345,-48.4133 2352,-48.4132"/>
</g>
<!-- 65 -->
<g id="node66" class="node"><title>65</title>
<path fill="#f6d3ff" stroke="black" d="M2532.5,-38C2532.5,-38 2494.5,-38 2494.5,-38 2488.5,-38 2482.5,-32 2482.5,-26 2482.5,-26 2482.5,-12 2482.5,-12 2482.5,-6 2488.5,-0 2494.5,-0 2494.5,-0 2532.5,-0 2532.5,-0 2538.5,-0 2544.5,-6 2544.5,-12 2544.5,-12 2544.5,-26 2544.5,-26 2544.5,-32 2538.5,-38 2532.5,-38"/>
<text text-anchor="middle" x="2513.5" y="-22.8" font-family="Times,serif" font-size="14.00">forward</text>
<text text-anchor="middle" x="2513.5" y="-7.8" font-family="Times,serif" font-size="14.00">DB2/C3</text>
</g>
<!-- 32&#45;&gt;65 -->
<g id="edge65" class="edge"><title>32&#45;&gt;65</title>
<path fill="none" stroke="black" d="M2513.5,-73.8314C2513.5,-66.131 2513.5,-56.9743 2513.5,-48.4166"/>
<polygon fill="black" stroke="black" points="2517,-48.4132 2513.5,-38.4133 2510,-48.4133 2517,-48.4132"/>
</g>
<!-- 66 -->
<g id="node67" class="node"><title>66</title>
<path fill="#f6d3ff" stroke="black" d="M2671.5,-38C2671.5,-38 2633.5,-38 2633.5,-38 2627.5,-38 2621.5,-32 2621.5,-26 2621.5,-26 2621.5,-12 2621.5,-12 2621.5,-6 2627.5,-0 2633.5,-0 2633.5,-0 2671.5,-0 2671.5,-0 2677.5,-0 2683.5,-6 2683.5,-12 2683.5,-12 2683.5,-26 2683.5,-26 2683.5,-32 2677.5,-38 2671.5,-38"/>
<text text-anchor="middle" x="2652.5" y="-22.8" font-family="Times,serif" font-size="14.00">forward</text>
<text text-anchor="middle" x="2652.5" y="-7.8" font-family="Times,serif" font-size="14.00">DB2/C4</text>
</g>
<!-- 33&#45;&gt;66 -->
<g id="edge66" class="edge"><title>33&#45;&gt;66</title>
<path fill="none" stroke="black" d="M2652.5,-73.8314C2652.5,-66.131 2652.5,-56.9743 2652.5,-48.4166"/>
<polygon fill="black" stroke="black" points="2656,-48.4132 2652.5,-38.4133 2649,-48.4133 2656,-48.4132"/>
</g>
<!-- 67 -->
<g id="node68" class="node"><title>67</title>
<path fill="#f6d3ff" stroke="black" d="M2755.5,-38C2755.5,-38 2717.5,-38 2717.5,-38 2711.5,-38 2705.5,-32 2705.5,-26 2705.5,-26 2705.5,-12 2705.5,-12 2705.5,-6 2711.5,-0 2717.5,-0 2717.5,-0 2755.5,-0 2755.5,-0 2761.5,-0 2767.5,-6 2767.5,-12 2767.5,-12 2767.5,-26 2767.5,-26 2767.5,-32 2761.5,-38 2755.5,-38"/>
<text text-anchor="middle" x="2736.5" y="-22.8" font-family="Times,serif" font-size="14.00">forward</text>
<text text-anchor="middle" x="2736.5" y="-7.8" font-family="Times,serif" font-size="14.00">DB2/C5</text>
</g>
<!-- 34&#45;&gt;67 -->
<g id="edge67" class="edge"><title>34&#45;&gt;67</title>
<path fill="none" stroke="black" d="M2775.38,-73.8314C2769.45,-65.6232 2762.33,-55.7606 2755.81,-46.7323"/>
<polygon fill="black" stroke="black" points="2758.49,-44.4708 2749.8,-38.4133 2752.82,-48.5693 2758.49,-44.4708"/>
</g>
<!-- 68 -->
<g id="node69" class="node"><title>68</title>
<path fill="#debfe6" stroke="black" d="M2833.5,-38C2833.5,-38 2797.5,-38 2797.5,-38 2791.5,-38 2785.5,-32 2785.5,-26 2785.5,-26 2785.5,-12 2785.5,-12 2785.5,-6 2791.5,-0 2797.5,-0 2797.5,-0 2833.5,-0 2833.5,-0 2839.5,-0 2845.5,-6 2845.5,-12 2845.5,-12 2845.5,-26 2845.5,-26 2845.5,-32 2839.5,-38 2833.5,-38"/>
<text text-anchor="middle" x="2815.5" y="-22.8" font-family="Times,serif" font-size="14.00">merge</text>
<text text-anchor="middle" x="2815.5" y="-7.8" font-family="Times,serif" font-size="14.00">EB1/C3</text>
</g>
<!-- 34&#45;&gt;68 -->
<g id="edge68" class="edge"><title>34&#45;&gt;68</title>
<path fill="none" stroke="black" d="M2795.31,-73.8314C2798.26,-65.9617 2801.79,-56.5712 2805.06,-47.8533"/>
<polygon fill="black" stroke="black" points="2808.36,-49.0055 2808.6,-38.4133 2801.81,-46.5476 2808.36,-49.0055"/>
</g>
<!-- 69 -->
<g id="node70" class="node"><title>69</title>
<path fill="#f6d3ff" stroke="black" d="M2921.5,-38C2921.5,-38 2883.5,-38 2883.5,-38 2877.5,-38 2871.5,-32 2871.5,-26 2871.5,-26 2871.5,-12 2871.5,-12 2871.5,-6 2877.5,-0 2883.5,-0 2883.5,-0 2921.5,-0 2921.5,-0 2927.5,-0 2933.5,-6 2933.5,-12 2933.5,-12 2933.5,-26 2933.5,-26 2933.5,-32 2927.5,-38 2921.5,-38"/>
<text text-anchor="middle" x="2902.5" y="-22.8" font-family="Times,serif" font-size="14.00">forward</text>
<text text-anchor="middle" x="2902.5" y="-7.8" font-family="Times,serif" font-size="14.00">DB1/C0</text>
</g>
<!-- 35&#45;&gt;69 -->
<g id="edge69" class="edge"><title>35&#45;&gt;69</title>
<path fill="none" stroke="black" d="M2906.32,-74.937C2905.76,-66.9865 2905.09,-57.3134 2904.47,-48.3127"/>
<polygon fill="black" stroke="black" points="2907.95,-47.9326 2903.76,-38.1992 2900.97,-48.4176 2907.95,-47.9326"/>
</g>
<!-- 70 -->
<g id="node71" class="node"><title>70</title>
<path fill="#f6d3ff" stroke="black" d="M3001.5,-38C3001.5,-38 2963.5,-38 2963.5,-38 2957.5,-38 2951.5,-32 2951.5,-26 2951.5,-26 2951.5,-12 2951.5,-12 2951.5,-6 2957.5,-0 2963.5,-0 2963.5,-0 3001.5,-0 3001.5,-0 3007.5,-0 3013.5,-6 3013.5,-12 3013.5,-12 3013.5,-26 3013.5,-26 3013.5,-32 3007.5,-38 3001.5,-38"/>
<text text-anchor="middle" x="2982.5" y="-22.8" font-family="Times,serif" font-size="14.00">forward</text>
<text text-anchor="middle" x="2982.5" y="-7.8" font-family="Times,serif" font-size="14.00">DB1/C1</text>
</g>
<!-- 36&#45;&gt;70 -->
<g id="edge70" class="edge"><title>36&#45;&gt;70</title>
<path fill="none" stroke="black" d="M2983.26,-74.937C2983.15,-66.9865 2983.02,-57.3134 2982.89,-48.3127"/>
<polygon fill="black" stroke="black" points="2986.39,-48.1496 2982.75,-38.1992 2979.39,-48.2468 2986.39,-48.1496"/>
</g>
<!-- 71 -->
<g id="node72" class="node"><title>71</title>
<path fill="#f6d3ff" stroke="black" d="M3081.5,-38C3081.5,-38 3043.5,-38 3043.5,-38 3037.5,-38 3031.5,-32 3031.5,-26 3031.5,-26 3031.5,-12 3031.5,-12 3031.5,-6 3037.5,-0 3043.5,-0 3043.5,-0 3081.5,-0 3081.5,-0 3087.5,-0 3093.5,-6 3093.5,-12 3093.5,-12 3093.5,-26 3093.5,-26 3093.5,-32 3087.5,-38 3081.5,-38"/>
<text text-anchor="middle" x="3062.5" y="-22.8" font-family="Times,serif" font-size="14.00">forward</text>
<text text-anchor="middle" x="3062.5" y="-7.8" font-family="Times,serif" font-size="14.00">DB1/C2</text>
</g>
<!-- 37&#45;&gt;71 -->
<g id="edge71" class="edge"><title>37&#45;&gt;71</title>
<path fill="none" stroke="black" d="M3061.74,-74.937C3061.85,-66.9865 3061.98,-57.3134 3062.11,-48.3127"/>
<polygon fill="black" stroke="black" points="3065.61,-48.2468 3062.25,-38.1992 3058.61,-48.1496 3065.61,-48.2468"/>
</g>
<!-- 72 -->
<g id="node73" class="node"><title>72</title>
<path fill="#f6d3ff" stroke="black" d="M3161.5,-38C3161.5,-38 3123.5,-38 3123.5,-38 3117.5,-38 3111.5,-32 3111.5,-26 3111.5,-26 3111.5,-12 3111.5,-12 3111.5,-6 3117.5,-0 3123.5,-0 3123.5,-0 3161.5,-0 3161.5,-0 3167.5,-0 3173.5,-6 3173.5,-12 3173.5,-12 3173.5,-26 3173.5,-26 3173.5,-32 3167.5,-38 3161.5,-38"/>
<text text-anchor="middle" x="3142.5" y="-22.8" font-family="Times,serif" font-size="14.00">forward</text>
<text text-anchor="middle" x="3142.5" y="-7.8" font-family="Times,serif" font-size="14.00">DB1/C3</text>
</g>
<!-- 38&#45;&gt;72 -->
<g id="edge72" class="edge"><title>38&#45;&gt;72</title>
<path fill="none" stroke="black" d="M3202.78,-74.937C3193.01,-66.0359 3180.88,-54.9756 3170.06,-45.1172"/>
<polygon fill="black" stroke="black" points="3172.22,-42.3484 3162.47,-38.1992 3167.5,-47.5221 3172.22,-42.3484"/>
</g>
<!-- 73 -->
<g id="node74" class="node"><title>73</title>
<path fill="#debfe6" stroke="black" d="M3239.5,-38C3239.5,-38 3203.5,-38 3203.5,-38 3197.5,-38 3191.5,-32 3191.5,-26 3191.5,-26 3191.5,-12 3191.5,-12 3191.5,-6 3197.5,-0 3203.5,-0 3203.5,-0 3239.5,-0 3239.5,-0 3245.5,-0 3251.5,-6 3251.5,-12 3251.5,-12 3251.5,-26 3251.5,-26 3251.5,-32 3245.5,-38 3239.5,-38"/>
<text text-anchor="middle" x="3221.5" y="-22.8" font-family="Times,serif" font-size="14.00">merge</text>
<text text-anchor="middle" x="3221.5" y="-7.8" font-family="Times,serif" font-size="14.00">EB0/C3</text>
</g>
<!-- 38&#45;&gt;73 -->
<g id="edge73" class="edge"><title>38&#45;&gt;73</title>
<path fill="none" stroke="black" d="M3221.5,-74.937C3221.5,-66.9865 3221.5,-57.3134 3221.5,-48.3127"/>
<polygon fill="black" stroke="black" points="3225,-48.1991 3221.5,-38.1992 3218,-48.1992 3225,-48.1991"/>
</g>
<!-- 74 -->
<g id="node75" class="node"><title>74</title>
<path fill="#f6d3ff" stroke="black" d="M3319.5,-38C3319.5,-38 3281.5,-38 3281.5,-38 3275.5,-38 3269.5,-32 3269.5,-26 3269.5,-26 3269.5,-12 3269.5,-12 3269.5,-6 3275.5,-0 3281.5,-0 3281.5,-0 3319.5,-0 3319.5,-0 3325.5,-0 3331.5,-6 3331.5,-12 3331.5,-12 3331.5,-26 3331.5,-26 3331.5,-32 3325.5,-38 3319.5,-38"/>
<text text-anchor="middle" x="3300.5" y="-22.8" font-family="Times,serif" font-size="14.00">forward</text>
<text text-anchor="middle" x="3300.5" y="-7.8" font-family="Times,serif" font-size="14.00">DB0/C0</text>
</g>
<!-- 39&#45;&gt;74 -->
<g id="edge74" class="edge"><title>39&#45;&gt;74</title>
<path fill="none" stroke="black" d="M3298.97,-74.937C3299.19,-66.9865 3299.46,-57.3134 3299.71,-48.3127"/>
<polygon fill="black" stroke="black" points="3303.22,-48.2925 3299.99,-38.1992 3296.22,-48.0981 3303.22,-48.2925"/>
</g>
<!-- 75 -->
<g id="node76" class="node"><title>75</title>
<path fill="#f6d3ff" stroke="black" d="M3399.5,-38C3399.5,-38 3361.5,-38 3361.5,-38 3355.5,-38 3349.5,-32 3349.5,-26 3349.5,-26 3349.5,-12 3349.5,-12 3349.5,-6 3355.5,-0 3361.5,-0 3361.5,-0 3399.5,-0 3399.5,-0 3405.5,-0 3411.5,-6 3411.5,-12 3411.5,-12 3411.5,-26 3411.5,-26 3411.5,-32 3405.5,-38 3399.5,-38"/>
<text text-anchor="middle" x="3380.5" y="-22.8" font-family="Times,serif" font-size="14.00">forward</text>
<text text-anchor="middle" x="3380.5" y="-7.8" font-family="Times,serif" font-size="14.00">DB0/C1</text>
</g>
<!-- 40&#45;&gt;75 -->
<g id="edge75" class="edge"><title>40&#45;&gt;75</title>
<path fill="none" stroke="black" d="M3375.92,-74.937C3376.58,-66.9865 3377.39,-57.3134 3378.14,-48.3127"/>
<polygon fill="black" stroke="black" points="3381.64,-48.4553 3378.98,-38.1992 3374.66,-47.8739 3381.64,-48.4553"/>
</g>
<!-- 76 -->
<g id="node77" class="node"><title>76</title>
<path fill="#f6d3ff" stroke="black" d="M3512.5,-38C3512.5,-38 3474.5,-38 3474.5,-38 3468.5,-38 3462.5,-32 3462.5,-26 3462.5,-26 3462.5,-12 3462.5,-12 3462.5,-6 3468.5,-0 3474.5,-0 3474.5,-0 3512.5,-0 3512.5,-0 3518.5,-0 3524.5,-6 3524.5,-12 3524.5,-12 3524.5,-26 3524.5,-26 3524.5,-32 3518.5,-38 3512.5,-38"/>
<text text-anchor="middle" x="3493.5" y="-22.8" font-family="Times,serif" font-size="14.00">forward</text>
<text text-anchor="middle" x="3493.5" y="-7.8" font-family="Times,serif" font-size="14.00">DB0/C2</text>
</g>
<!-- 41&#45;&gt;76 -->
<g id="edge76" class="edge"><title>41&#45;&gt;76</title>
<path fill="none" stroke="black" d="M3493.5,-73.8314C3493.5,-66.131 3493.5,-56.9743 3493.5,-48.4166"/>
<polygon fill="black" stroke="black" points="3497,-48.4132 3493.5,-38.4133 3490,-48.4133 3497,-48.4132"/>
</g>
</g>
</svg>
