<?xml version="1.0" encoding="UTF-8" standalone="no"?>
<!DOCTYPE svg PUBLIC "-//W3C//DTD SVG 1.1//EN"
 "http://www.w3.org/Graphics/SVG/1.1/DTD/svg11.dtd">
<!-- Generated by graphviz version 2.38.0 (20140413.2041)
 -->
<!-- Title: %3 Pages: 1 -->
<svg width="6325pt" height="387pt"
 viewBox="0.00 0.00 6325.00 387.00" xmlns="http://www.w3.org/2000/svg" xmlns:xlink="http://www.w3.org/1999/xlink">
<g id="graph0" class="graph" transform="scale(1 1) rotate(0) translate(4 383)">
<title>%3</title>
<polygon fill="none" stroke="none" points="-4,4 -4,-383 6321,-383 6321,4 -4,4"/>
<!-- 0 -->
<g id="node1" class="node"><title>0</title>
<path fill="#ffd3d3" stroke="black" d="M2959.5,-379C2959.5,-379 2679.5,-379 2679.5,-379 2673.5,-379 2667.5,-373 2667.5,-367 2667.5,-367 2667.5,-338 2667.5,-338 2667.5,-332 2673.5,-326 2679.5,-326 2679.5,-326 2959.5,-326 2959.5,-326 2965.5,-326 2971.5,-332 2971.5,-338 2971.5,-338 2971.5,-367 2971.5,-367 2971.5,-373 2965.5,-379 2959.5,-379"/>
<text text-anchor="middle" x="2819.5" y="-363.8" font-family="Times,serif" font-size="14.00">net</text>
<text text-anchor="middle" x="2819.5" y="-348.8" font-family="Times,serif" font-size="14.00">log lambda1: &#45;11.000000 &#160;&#160;log lambda2: &#45;11.000000</text>
<text text-anchor="middle" x="2819.5" y="-333.8" font-family="Times,serif" font-size="14.00">n kernels: 86 &#160;&#160;pooling type: 0</text>
</g>
<!-- 1 -->
<g id="node2" class="node"><title>1</title>
<path fill="#f6ffd3" stroke="black" d="M2237.5,-290C2237.5,-290 2181.5,-290 2181.5,-290 2175.5,-290 2169.5,-284 2169.5,-278 2169.5,-278 2169.5,-264 2169.5,-264 2169.5,-258 2175.5,-252 2181.5,-252 2181.5,-252 2237.5,-252 2237.5,-252 2243.5,-252 2249.5,-258 2249.5,-264 2249.5,-264 2249.5,-278 2249.5,-278 2249.5,-284 2243.5,-290 2237.5,-290"/>
<text text-anchor="middle" x="2209.5" y="-274.8" font-family="Times,serif" font-size="14.00">encoder</text>
<text text-anchor="middle" x="2209.5" y="-259.8" font-family="Times,serif" font-size="14.00">n kernels: 5</text>
</g>
<!-- 0&#45;&gt;1 -->
<g id="edge1" class="edge"><title>0&#45;&gt;1</title>
<path fill="none" stroke="black" d="M2667.14,-331.644C2533.74,-314.258 2347.85,-290.031 2259.7,-278.542"/>
<polygon fill="black" stroke="black" points="2260.07,-275.061 2249.7,-277.239 2259.16,-282.002 2260.07,-275.061"/>
</g>
<!-- 2 -->
<g id="node3" class="node"><title>2</title>
<path fill="#f6ffd3" stroke="black" d="M3447,-289C3447,-289 3412,-289 3412,-289 3406,-289 3400,-283 3400,-277 3400,-277 3400,-265 3400,-265 3400,-259 3406,-253 3412,-253 3412,-253 3447,-253 3447,-253 3453,-253 3459,-259 3459,-265 3459,-265 3459,-277 3459,-277 3459,-283 3453,-289 3447,-289"/>
<text text-anchor="middle" x="3429.5" y="-267.3" font-family="Times,serif" font-size="14.00">decoder</text>
</g>
<!-- 0&#45;&gt;2 -->
<g id="edge2" class="edge"><title>0&#45;&gt;2</title>
<path fill="none" stroke="black" d="M2971.86,-331.644C3110.77,-313.539 3306.61,-288.015 3389.72,-277.184"/>
<polygon fill="black" stroke="black" points="3390.29,-280.64 3399.75,-275.877 3389.39,-273.699 3390.29,-280.64"/>
</g>
<!-- 3 -->
<g id="node4" class="node"><title>3</title>
<path fill="#d3ffe4" stroke="black" d="M1024,-215C1024,-215 949,-215 949,-215 943,-215 937,-209 937,-203 937,-203 937,-191 937,-191 937,-185 943,-179 949,-179 949,-179 1024,-179 1024,-179 1030,-179 1036,-185 1036,-191 1036,-191 1036,-203 1036,-203 1036,-209 1030,-215 1024,-215"/>
<text text-anchor="middle" x="986.5" y="-193.3" font-family="Times,serif" font-size="14.00">encode block 0</text>
</g>
<!-- 1&#45;&gt;3 -->
<g id="edge3" class="edge"><title>1&#45;&gt;3</title>
<path fill="none" stroke="black" d="M2169.16,-267.625C1989.42,-257.043 1261.01,-214.161 1046.32,-201.522"/>
<polygon fill="black" stroke="black" points="1046.38,-198.019 1036.19,-200.926 1045.97,-205.007 1046.38,-198.019"/>
</g>
<!-- 4 -->
<g id="node5" class="node"><title>4</title>
<path fill="#d3ffe4" stroke="black" d="M3507,-216C3507,-216 3352,-216 3352,-216 3346,-216 3340,-210 3340,-204 3340,-204 3340,-190 3340,-190 3340,-184 3346,-178 3352,-178 3352,-178 3507,-178 3507,-178 3513,-178 3519,-184 3519,-190 3519,-190 3519,-204 3519,-204 3519,-210 3513,-216 3507,-216"/>
<text text-anchor="middle" x="3429.5" y="-200.8" font-family="Times,serif" font-size="14.00">decode block 1</text>
<text text-anchor="middle" x="3429.5" y="-185.8" font-family="Times,serif" font-size="14.00">n kernels: 86 &#160;&#160;spatial scale: 1</text>
</g>
<!-- 2&#45;&gt;4 -->
<g id="edge4" class="edge"><title>2&#45;&gt;4</title>
<path fill="none" stroke="black" d="M3429.5,-252.937C3429.5,-244.987 3429.5,-235.313 3429.5,-226.313"/>
<polygon fill="black" stroke="black" points="3433,-226.199 3429.5,-216.199 3426,-226.199 3433,-226.199"/>
</g>
<!-- 5 -->
<g id="node6" class="node"><title>5</title>
<path fill="#bfe6cf" stroke="black" d="M5368,-216C5368,-216 5293,-216 5293,-216 5287,-216 5281,-210 5281,-204 5281,-204 5281,-190 5281,-190 5281,-184 5287,-178 5293,-178 5293,-178 5368,-178 5368,-178 5374,-178 5380,-184 5380,-190 5380,-190 5380,-204 5380,-204 5380,-210 5374,-216 5368,-216"/>
<text text-anchor="middle" x="5330.5" y="-200.8" font-family="Times,serif" font-size="14.00">decode block 0</text>
<text text-anchor="middle" x="5330.5" y="-185.8" font-family="Times,serif" font-size="14.00">n kernels: &#45;3</text>
</g>
<!-- 2&#45;&gt;5 -->
<g id="edge5" class="edge"><title>2&#45;&gt;5</title>
<path fill="none" stroke="black" d="M3459.36,-268.869C3673.4,-260.762 4974.15,-211.497 5270.46,-200.274"/>
<polygon fill="black" stroke="black" points="5270.71,-203.767 5280.57,-199.891 5270.45,-196.772 5270.71,-203.767"/>
</g>
<!-- 6 -->
<g id="node7" class="node"><title>6</title>
<path fill="#d3e4ff" stroke="black" d="M208.5,-141C208.5,-141 174.5,-141 174.5,-141 168.5,-141 162.5,-135 162.5,-129 162.5,-129 162.5,-117 162.5,-117 162.5,-111 168.5,-105 174.5,-105 174.5,-105 208.5,-105 208.5,-105 214.5,-105 220.5,-111 220.5,-117 220.5,-117 220.5,-129 220.5,-129 220.5,-135 214.5,-141 208.5,-141"/>
<text text-anchor="middle" x="191.5" y="-119.3" font-family="Times,serif" font-size="14.00">comp 0</text>
</g>
<!-- 3&#45;&gt;6 -->
<g id="edge6" class="edge"><title>3&#45;&gt;6</title>
<path fill="none" stroke="black" d="M936.927,-192.504C828.482,-184.715 562.077,-164.815 339.5,-142 302.532,-138.211 260.479,-133.01 230.672,-129.173"/>
<polygon fill="black" stroke="black" points="231.035,-125.691 220.668,-127.877 230.136,-132.633 231.035,-125.691"/>
</g>
<!-- 7 -->
<g id="node8" class="node"><title>7</title>
<path fill="#bfcfe6" stroke="black" d="M424,-142C424,-142 361,-142 361,-142 355,-142 349,-136 349,-130 349,-130 349,-116 349,-116 349,-110 355,-104 361,-104 361,-104 424,-104 424,-104 430,-104 436,-110 436,-116 436,-116 436,-130 436,-130 436,-136 430,-142 424,-142"/>
<text text-anchor="middle" x="392.5" y="-126.8" font-family="Times,serif" font-size="14.00">comp 1</text>
<text text-anchor="middle" x="392.5" y="-111.8" font-family="Times,serif" font-size="14.00">n kernels: 17</text>
</g>
<!-- 3&#45;&gt;7 -->
<g id="edge7" class="edge"><title>3&#45;&gt;7</title>
<path fill="none" stroke="black" d="M936.878,-189.985C826.423,-176.597 561.016,-144.426 446.549,-130.551"/>
<polygon fill="black" stroke="black" points="446.628,-127.035 436.279,-129.307 445.785,-133.985 446.628,-127.035"/>
</g>
<!-- 8 -->
<g id="node9" class="node"><title>8</title>
<path fill="#abb9ce" stroke="black" d="M652.5,-142C652.5,-142 596.5,-142 596.5,-142 590.5,-142 584.5,-136 584.5,-130 584.5,-130 584.5,-116 584.5,-116 584.5,-110 590.5,-104 596.5,-104 596.5,-104 652.5,-104 652.5,-104 658.5,-104 664.5,-110 664.5,-116 664.5,-116 664.5,-130 664.5,-130 664.5,-136 658.5,-142 652.5,-142"/>
<text text-anchor="middle" x="624.5" y="-126.8" font-family="Times,serif" font-size="14.00">comp 2</text>
<text text-anchor="middle" x="624.5" y="-111.8" font-family="Times,serif" font-size="14.00">n kernels: 3</text>
</g>
<!-- 3&#45;&gt;8 -->
<g id="edge8" class="edge"><title>3&#45;&gt;8</title>
<path fill="none" stroke="black" d="M936.924,-186.14C868.04,-172.439 744.055,-147.779 674.791,-134.003"/>
<polygon fill="black" stroke="black" points="675.062,-130.488 664.572,-131.97 673.697,-137.354 675.062,-130.488"/>
</g>
<!-- 9 -->
<g id="node10" class="node"><title>9</title>
<path fill="#97a3b6" stroke="black" d="M1020.5,-142C1020.5,-142 952.5,-142 952.5,-142 946.5,-142 940.5,-136 940.5,-130 940.5,-130 940.5,-116 940.5,-116 940.5,-110 946.5,-104 952.5,-104 952.5,-104 1020.5,-104 1020.5,-104 1026.5,-104 1032.5,-110 1032.5,-116 1032.5,-116 1032.5,-130 1032.5,-130 1032.5,-136 1026.5,-142 1020.5,-142"/>
<text text-anchor="middle" x="986.5" y="-126.8" font-family="Times,serif" font-size="14.00">comp 3</text>
<text text-anchor="middle" x="986.5" y="-111.8" font-family="Times,serif" font-size="14.00">n kernels: &#45;16</text>
</g>
<!-- 3&#45;&gt;9 -->
<g id="edge9" class="edge"><title>3&#45;&gt;9</title>
<path fill="none" stroke="black" d="M986.5,-178.937C986.5,-170.987 986.5,-161.313 986.5,-152.313"/>
<polygon fill="black" stroke="black" points="990,-152.199 986.5,-142.199 983,-152.199 990,-152.199"/>
</g>
<!-- 10 -->
<g id="node11" class="node"><title>10</title>
<path fill="#838d9e" stroke="black" d="M1546.5,-141C1546.5,-141 1512.5,-141 1512.5,-141 1506.5,-141 1500.5,-135 1500.5,-129 1500.5,-129 1500.5,-117 1500.5,-117 1500.5,-111 1506.5,-105 1512.5,-105 1512.5,-105 1546.5,-105 1546.5,-105 1552.5,-105 1558.5,-111 1558.5,-117 1558.5,-117 1558.5,-129 1558.5,-129 1558.5,-135 1552.5,-141 1546.5,-141"/>
<text text-anchor="middle" x="1529.5" y="-119.3" font-family="Times,serif" font-size="14.00">comp 4</text>
</g>
<!-- 3&#45;&gt;10 -->
<g id="edge10" class="edge"><title>3&#45;&gt;10</title>
<path fill="none" stroke="black" d="M1036.13,-189.42C1143.1,-175.235 1393.57,-142.024 1490.36,-129.19"/>
<polygon fill="black" stroke="black" points="1490.86,-132.654 1500.31,-127.87 1489.94,-125.715 1490.86,-132.654"/>
</g>
<!-- 11 -->
<g id="node12" class="node"><title>11</title>
<path fill="#6f7885" stroke="black" d="M2360.5,-141C2360.5,-141 2326.5,-141 2326.5,-141 2320.5,-141 2314.5,-135 2314.5,-129 2314.5,-129 2314.5,-117 2314.5,-117 2314.5,-111 2320.5,-105 2326.5,-105 2326.5,-105 2360.5,-105 2360.5,-105 2366.5,-105 2372.5,-111 2372.5,-117 2372.5,-117 2372.5,-129 2372.5,-129 2372.5,-135 2366.5,-141 2360.5,-141"/>
<text text-anchor="middle" x="2343.5" y="-119.3" font-family="Times,serif" font-size="14.00">comp 5</text>
</g>
<!-- 3&#45;&gt;11 -->
<g id="edge11" class="edge"><title>3&#45;&gt;11</title>
<path fill="none" stroke="black" d="M1036,-193.374C1252.01,-181.913 2109.9,-136.394 2304.23,-126.084"/>
<polygon fill="black" stroke="black" points="2304.47,-129.576 2314.27,-125.551 2304.1,-122.586 2304.47,-129.576"/>
</g>
<!-- 12 -->
<g id="node13" class="node"><title>12</title>
<path fill="#d3e4ff" stroke="black" d="M3055.5,-142C3055.5,-142 2987.5,-142 2987.5,-142 2981.5,-142 2975.5,-136 2975.5,-130 2975.5,-130 2975.5,-116 2975.5,-116 2975.5,-110 2981.5,-104 2987.5,-104 2987.5,-104 3055.5,-104 3055.5,-104 3061.5,-104 3067.5,-110 3067.5,-116 3067.5,-116 3067.5,-130 3067.5,-130 3067.5,-136 3061.5,-142 3055.5,-142"/>
<text text-anchor="middle" x="3021.5" y="-126.8" font-family="Times,serif" font-size="14.00">comp 0</text>
<text text-anchor="middle" x="3021.5" y="-111.8" font-family="Times,serif" font-size="14.00">n kernels: &#45;44</text>
</g>
<!-- 4&#45;&gt;12 -->
<g id="edge12" class="edge"><title>4&#45;&gt;12</title>
<path fill="none" stroke="black" d="M3339.96,-180.199C3259.97,-166.084 3145.27,-145.842 3077.58,-133.896"/>
<polygon fill="black" stroke="black" points="3077.99,-130.415 3067.53,-132.124 3076.77,-137.308 3077.99,-130.415"/>
</g>
<!-- 13 -->
<g id="node14" class="node"><title>13</title>
<path fill="#bfcfe6" stroke="black" d="M3227.5,-141C3227.5,-141 3193.5,-141 3193.5,-141 3187.5,-141 3181.5,-135 3181.5,-129 3181.5,-129 3181.5,-117 3181.5,-117 3181.5,-111 3187.5,-105 3193.5,-105 3193.5,-105 3227.5,-105 3227.5,-105 3233.5,-105 3239.5,-111 3239.5,-117 3239.5,-117 3239.5,-129 3239.5,-129 3239.5,-135 3233.5,-141 3227.5,-141"/>
<text text-anchor="middle" x="3210.5" y="-119.3" font-family="Times,serif" font-size="14.00">comp 1</text>
</g>
<!-- 4&#45;&gt;13 -->
<g id="edge13" class="edge"><title>4&#45;&gt;13</title>
<path fill="none" stroke="black" d="M3374.52,-177.924C3335.54,-165.11 3284.19,-148.227 3249.4,-136.791"/>
<polygon fill="black" stroke="black" points="3250.21,-133.371 3239.62,-133.572 3248.02,-140.021 3250.21,-133.371"/>
</g>
<!-- 14 -->
<g id="node15" class="node"><title>14</title>
<path fill="#abb9ce" stroke="black" d="M3446.5,-141C3446.5,-141 3412.5,-141 3412.5,-141 3406.5,-141 3400.5,-135 3400.5,-129 3400.5,-129 3400.5,-117 3400.5,-117 3400.5,-111 3406.5,-105 3412.5,-105 3412.5,-105 3446.5,-105 3446.5,-105 3452.5,-105 3458.5,-111 3458.5,-117 3458.5,-117 3458.5,-129 3458.5,-129 3458.5,-135 3452.5,-141 3446.5,-141"/>
<text text-anchor="middle" x="3429.5" y="-119.3" font-family="Times,serif" font-size="14.00">comp 2</text>
</g>
<!-- 4&#45;&gt;14 -->
<g id="edge14" class="edge"><title>4&#45;&gt;14</title>
<path fill="none" stroke="black" d="M3429.5,-177.831C3429.5,-169.894 3429.5,-160.409 3429.5,-151.628"/>
<polygon fill="black" stroke="black" points="3433,-151.418 3429.5,-141.418 3426,-151.418 3433,-151.418"/>
</g>
<!-- 15 -->
<g id="node16" class="node"><title>15</title>
<path fill="#97a3b6" stroke="black" d="M3825.5,-142C3825.5,-142 3757.5,-142 3757.5,-142 3751.5,-142 3745.5,-136 3745.5,-130 3745.5,-130 3745.5,-116 3745.5,-116 3745.5,-110 3751.5,-104 3757.5,-104 3757.5,-104 3825.5,-104 3825.5,-104 3831.5,-104 3837.5,-110 3837.5,-116 3837.5,-116 3837.5,-130 3837.5,-130 3837.5,-136 3831.5,-142 3825.5,-142"/>
<text text-anchor="middle" x="3791.5" y="-126.8" font-family="Times,serif" font-size="14.00">comp 3</text>
<text text-anchor="middle" x="3791.5" y="-111.8" font-family="Times,serif" font-size="14.00">n kernels: &#45;44</text>
</g>
<!-- 4&#45;&gt;15 -->
<g id="edge15" class="edge"><title>4&#45;&gt;15</title>
<path fill="none" stroke="black" d="M3519.45,-178.11C3587.01,-164.673 3677.45,-146.685 3735.11,-135.217"/>
<polygon fill="black" stroke="black" points="3736,-138.607 3745.12,-133.224 3734.63,-131.742 3736,-138.607"/>
</g>
<!-- 16 -->
<g id="node17" class="node"><title>16</title>
<path fill="#838d9e" stroke="black" d="M4442.5,-141C4442.5,-141 4408.5,-141 4408.5,-141 4402.5,-141 4396.5,-135 4396.5,-129 4396.5,-129 4396.5,-117 4396.5,-117 4396.5,-111 4402.5,-105 4408.5,-105 4408.5,-105 4442.5,-105 4442.5,-105 4448.5,-105 4454.5,-111 4454.5,-117 4454.5,-117 4454.5,-129 4454.5,-129 4454.5,-135 4448.5,-141 4442.5,-141"/>
<text text-anchor="middle" x="4425.5" y="-119.3" font-family="Times,serif" font-size="14.00">comp 4</text>
</g>
<!-- 4&#45;&gt;16 -->
<g id="edge16" class="edge"><title>4&#45;&gt;16</title>
<path fill="none" stroke="black" d="M3519.2,-189.515C3727.96,-174.425 4239.65,-137.435 4385.88,-126.864"/>
<polygon fill="black" stroke="black" points="4386.44,-130.333 4396.16,-126.121 4385.94,-123.351 4386.44,-130.333"/>
</g>
<!-- 17 -->
<g id="node18" class="node"><title>17</title>
<path fill="#d3e4ff" stroke="black" d="M5166.5,-141C5166.5,-141 5132.5,-141 5132.5,-141 5126.5,-141 5120.5,-135 5120.5,-129 5120.5,-129 5120.5,-117 5120.5,-117 5120.5,-111 5126.5,-105 5132.5,-105 5132.5,-105 5166.5,-105 5166.5,-105 5172.5,-105 5178.5,-111 5178.5,-117 5178.5,-117 5178.5,-129 5178.5,-129 5178.5,-135 5172.5,-141 5166.5,-141"/>
<text text-anchor="middle" x="5149.5" y="-119.3" font-family="Times,serif" font-size="14.00">comp 0</text>
</g>
<!-- 5&#45;&gt;17 -->
<g id="edge17" class="edge"><title>5&#45;&gt;17</title>
<path fill="none" stroke="black" d="M5284.83,-177.831C5255.04,-165.981 5216.58,-150.682 5188.27,-139.424"/>
<polygon fill="black" stroke="black" points="5189.3,-136.067 5178.72,-135.623 5186.72,-142.571 5189.3,-136.067"/>
</g>
<!-- 18 -->
<g id="node19" class="node"><title>18</title>
<path fill="#bfcfe6" stroke="black" d="M5347.5,-141C5347.5,-141 5313.5,-141 5313.5,-141 5307.5,-141 5301.5,-135 5301.5,-129 5301.5,-129 5301.5,-117 5301.5,-117 5301.5,-111 5307.5,-105 5313.5,-105 5313.5,-105 5347.5,-105 5347.5,-105 5353.5,-105 5359.5,-111 5359.5,-117 5359.5,-117 5359.5,-129 5359.5,-129 5359.5,-135 5353.5,-141 5347.5,-141"/>
<text text-anchor="middle" x="5330.5" y="-119.3" font-family="Times,serif" font-size="14.00">comp 1</text>
</g>
<!-- 5&#45;&gt;18 -->
<g id="edge18" class="edge"><title>5&#45;&gt;18</title>
<path fill="none" stroke="black" d="M5330.5,-177.831C5330.5,-169.894 5330.5,-160.409 5330.5,-151.628"/>
<polygon fill="black" stroke="black" points="5334,-151.418 5330.5,-141.418 5327,-151.418 5334,-151.418"/>
</g>
<!-- 19 -->
<g id="node20" class="node"><title>19</title>
<path fill="#abb9ce" stroke="black" d="M5543,-142C5543,-142 5480,-142 5480,-142 5474,-142 5468,-136 5468,-130 5468,-130 5468,-116 5468,-116 5468,-110 5474,-104 5480,-104 5480,-104 5543,-104 5543,-104 5549,-104 5555,-110 5555,-116 5555,-116 5555,-130 5555,-130 5555,-136 5549,-142 5543,-142"/>
<text text-anchor="middle" x="5511.5" y="-126.8" font-family="Times,serif" font-size="14.00">comp 2</text>
<text text-anchor="middle" x="5511.5" y="-111.8" font-family="Times,serif" font-size="14.00">n kernels: 19</text>
</g>
<!-- 5&#45;&gt;19 -->
<g id="edge19" class="edge"><title>5&#45;&gt;19</title>
<path fill="none" stroke="black" d="M5376.17,-177.831C5401.17,-167.888 5432.27,-155.516 5458.35,-145.141"/>
<polygon fill="black" stroke="black" points="5459.72,-148.366 5467.71,-141.418 5457.13,-141.862 5459.72,-148.366"/>
</g>
<!-- 20 -->
<g id="node21" class="node"><title>20</title>
<path fill="#97a3b6" stroke="black" d="M5980.5,-141C5980.5,-141 5946.5,-141 5946.5,-141 5940.5,-141 5934.5,-135 5934.5,-129 5934.5,-129 5934.5,-117 5934.5,-117 5934.5,-111 5940.5,-105 5946.5,-105 5946.5,-105 5980.5,-105 5980.5,-105 5986.5,-105 5992.5,-111 5992.5,-117 5992.5,-117 5992.5,-129 5992.5,-129 5992.5,-135 5986.5,-141 5980.5,-141"/>
<text text-anchor="middle" x="5963.5" y="-119.3" font-family="Times,serif" font-size="14.00">comp 3</text>
</g>
<!-- 5&#45;&gt;20 -->
<g id="edge20" class="edge"><title>5&#45;&gt;20</title>
<path fill="none" stroke="black" d="M5380.17,-190.35C5502.14,-176.477 5814.45,-140.954 5924.45,-128.442"/>
<polygon fill="black" stroke="black" points="5924.91,-131.912 5934.45,-127.305 5924.12,-124.957 5924.91,-131.912"/>
</g>
<!-- 21 -->
<g id="node22" class="node"><title>21</title>
<path fill="#f6d3ff" stroke="black" d="M151,-68C151,-68 12,-68 12,-68 6,-68 0,-62 0,-56 0,-56 0,-12 0,-12 0,-6 6,-0 12,-0 12,-0 151,-0 151,-0 157,-0 163,-6 163,-12 163,-12 163,-56 163,-56 163,-62 157,-68 151,-68"/>
<text text-anchor="middle" x="81.5" y="-52.8" font-family="Times,serif" font-size="14.00">forward</text>
<text text-anchor="middle" x="81.5" y="-37.8" font-family="Times,serif" font-size="14.00">input</text>
<text text-anchor="middle" x="81.5" y="-22.8" font-family="Times,serif" font-size="14.00">dilation rate: 1 &#160;&#160;k width: 3</text>
<text text-anchor="middle" x="81.5" y="-7.8" font-family="Times,serif" font-size="14.00">n kernels: 64</text>
</g>
<!-- 6&#45;&gt;21 -->
<g id="edge21" class="edge"><title>6&#45;&gt;21</title>
<path fill="none" stroke="black" d="M169.768,-104.812C158.672,-96.0357 144.682,-84.9711 131.131,-74.2536"/>
<polygon fill="black" stroke="black" points="133.243,-71.4616 123.228,-68.0034 128.901,-76.952 133.243,-71.4616"/>
</g>
<!-- 22 -->
<g id="node23" class="node"><title>22</title>
<path fill="#f6d3ff" stroke="black" d="M332,-68C332,-68 193,-68 193,-68 187,-68 181,-62 181,-56 181,-56 181,-12 181,-12 181,-6 187,-0 193,-0 193,-0 332,-0 332,-0 338,-0 344,-6 344,-12 344,-12 344,-56 344,-56 344,-62 338,-68 332,-68"/>
<text text-anchor="middle" x="262.5" y="-52.8" font-family="Times,serif" font-size="14.00">forward</text>
<text text-anchor="middle" x="262.5" y="-37.8" font-family="Times,serif" font-size="14.00">EB0/C0</text>
<text text-anchor="middle" x="262.5" y="-22.8" font-family="Times,serif" font-size="14.00">dilation rate: 1 &#160;&#160;k width: 3</text>
<text text-anchor="middle" x="262.5" y="-7.8" font-family="Times,serif" font-size="14.00">n kernels: 64</text>
</g>
<!-- 7&#45;&gt;22 -->
<g id="edge22" class="edge"><title>7&#45;&gt;22</title>
<path fill="none" stroke="black" d="M365.564,-103.974C352.512,-95.2387 336.298,-84.3881 320.624,-73.8984"/>
<polygon fill="black" stroke="black" points="322.252,-70.7767 311.995,-68.1236 318.359,-76.5942 322.252,-70.7767"/>
</g>
<!-- 23 -->
<g id="node24" class="node"><title>23</title>
<path fill="#f6d3ff" stroke="black" d="M513,-68C513,-68 374,-68 374,-68 368,-68 362,-62 362,-56 362,-56 362,-12 362,-12 362,-6 368,-0 374,-0 374,-0 513,-0 513,-0 519,-0 525,-6 525,-12 525,-12 525,-56 525,-56 525,-62 519,-68 513,-68"/>
<text text-anchor="middle" x="443.5" y="-52.8" font-family="Times,serif" font-size="14.00">forward</text>
<text text-anchor="middle" x="443.5" y="-37.8" font-family="Times,serif" font-size="14.00">EB0/C1</text>
<text text-anchor="middle" x="443.5" y="-22.8" font-family="Times,serif" font-size="14.00">dilation rate: 1 &#160;&#160;k width: 3</text>
<text text-anchor="middle" x="443.5" y="-7.8" font-family="Times,serif" font-size="14.00">n kernels: 64</text>
</g>
<!-- 8&#45;&gt;23 -->
<g id="edge23" class="edge"><title>8&#45;&gt;23</title>
<path fill="none" stroke="black" d="M586.997,-103.974C568.067,-94.8748 544.361,-83.4802 521.703,-72.5892"/>
<polygon fill="black" stroke="black" points="522.942,-69.3013 512.412,-68.1236 519.909,-75.6104 522.942,-69.3013"/>
</g>
<!-- 24 -->
<g id="node25" class="node"><title>24</title>
<path fill="#debfe6" stroke="black" d="M694,-68C694,-68 555,-68 555,-68 549,-68 543,-62 543,-56 543,-56 543,-12 543,-12 543,-6 549,-0 555,-0 555,-0 694,-0 694,-0 700,-0 706,-6 706,-12 706,-12 706,-56 706,-56 706,-62 700,-68 694,-68"/>
<text text-anchor="middle" x="624.5" y="-52.8" font-family="Times,serif" font-size="14.00">merge</text>
<text text-anchor="middle" x="624.5" y="-37.8" font-family="Times,serif" font-size="14.00">EB0/C0</text>
<text text-anchor="middle" x="624.5" y="-22.8" font-family="Times,serif" font-size="14.00">dilation rate: 1 &#160;&#160;k width: 3</text>
<text text-anchor="middle" x="624.5" y="-7.8" font-family="Times,serif" font-size="14.00">n kernels: 64</text>
</g>
<!-- 8&#45;&gt;24 -->
<g id="edge24" class="edge"><title>8&#45;&gt;24</title>
<path fill="none" stroke="black" d="M624.5,-103.974C624.5,-96.4519 624.5,-87.3613 624.5,-78.2833"/>
<polygon fill="black" stroke="black" points="628,-78.1236 624.5,-68.1236 621,-78.1237 628,-78.1236"/>
</g>
<!-- 25 -->
<g id="node26" class="node"><title>25</title>
<path fill="#f6d3ff" stroke="black" d="M875,-68C875,-68 736,-68 736,-68 730,-68 724,-62 724,-56 724,-56 724,-12 724,-12 724,-6 730,-0 736,-0 736,-0 875,-0 875,-0 881,-0 887,-6 887,-12 887,-12 887,-56 887,-56 887,-62 881,-68 875,-68"/>
<text text-anchor="middle" x="805.5" y="-52.8" font-family="Times,serif" font-size="14.00">forward</text>
<text text-anchor="middle" x="805.5" y="-37.8" font-family="Times,serif" font-size="14.00">EB0/C2</text>
<text text-anchor="middle" x="805.5" y="-22.8" font-family="Times,serif" font-size="14.00">dilation rate: 1 &#160;&#160;k width: 3</text>
<text text-anchor="middle" x="805.5" y="-7.8" font-family="Times,serif" font-size="14.00">n kernels: 64</text>
</g>
<!-- 9&#45;&gt;25 -->
<g id="edge25" class="edge"><title>9&#45;&gt;25</title>
<path fill="none" stroke="black" d="M948.997,-103.974C930.067,-94.8748 906.361,-83.4802 883.703,-72.5892"/>
<polygon fill="black" stroke="black" points="884.942,-69.3013 874.412,-68.1236 881.909,-75.6104 884.942,-69.3013"/>
</g>
<!-- 26 -->
<g id="node27" class="node"><title>26</title>
<path fill="#debfe6" stroke="black" d="M1056,-68C1056,-68 917,-68 917,-68 911,-68 905,-62 905,-56 905,-56 905,-12 905,-12 905,-6 911,-0 917,-0 917,-0 1056,-0 1056,-0 1062,-0 1068,-6 1068,-12 1068,-12 1068,-56 1068,-56 1068,-62 1062,-68 1056,-68"/>
<text text-anchor="middle" x="986.5" y="-52.8" font-family="Times,serif" font-size="14.00">merge</text>
<text text-anchor="middle" x="986.5" y="-37.8" font-family="Times,serif" font-size="14.00">EB0/C0</text>
<text text-anchor="middle" x="986.5" y="-22.8" font-family="Times,serif" font-size="14.00">dilation rate: 1 &#160;&#160;k width: 3</text>
<text text-anchor="middle" x="986.5" y="-7.8" font-family="Times,serif" font-size="14.00">n kernels: 64</text>
</g>
<!-- 9&#45;&gt;26 -->
<g id="edge26" class="edge"><title>9&#45;&gt;26</title>
<path fill="none" stroke="black" d="M986.5,-103.974C986.5,-96.4519 986.5,-87.3613 986.5,-78.2833"/>
<polygon fill="black" stroke="black" points="990,-78.1236 986.5,-68.1236 983,-78.1237 990,-78.1236"/>
</g>
<!-- 27 -->
<g id="node28" class="node"><title>27</title>
<path fill="#c7abce" stroke="black" d="M1237,-68C1237,-68 1098,-68 1098,-68 1092,-68 1086,-62 1086,-56 1086,-56 1086,-12 1086,-12 1086,-6 1092,-0 1098,-0 1098,-0 1237,-0 1237,-0 1243,-0 1249,-6 1249,-12 1249,-12 1249,-56 1249,-56 1249,-62 1243,-68 1237,-68"/>
<text text-anchor="middle" x="1167.5" y="-52.8" font-family="Times,serif" font-size="14.00">merge</text>
<text text-anchor="middle" x="1167.5" y="-37.8" font-family="Times,serif" font-size="14.00">EB0/C1</text>
<text text-anchor="middle" x="1167.5" y="-22.8" font-family="Times,serif" font-size="14.00">dilation rate: 1 &#160;&#160;k width: 3</text>
<text text-anchor="middle" x="1167.5" y="-7.8" font-family="Times,serif" font-size="14.00">n kernels: 64</text>
</g>
<!-- 9&#45;&gt;27 -->
<g id="edge27" class="edge"><title>9&#45;&gt;27</title>
<path fill="none" stroke="black" d="M1024,-103.974C1042.93,-94.8748 1066.64,-83.4802 1089.3,-72.5892"/>
<polygon fill="black" stroke="black" points="1091.09,-75.6104 1098.59,-68.1236 1088.06,-69.3013 1091.09,-75.6104"/>
</g>
<!-- 28 -->
<g id="node29" class="node"><title>28</title>
<path fill="#f6d3ff" stroke="black" d="M1418,-68C1418,-68 1279,-68 1279,-68 1273,-68 1267,-62 1267,-56 1267,-56 1267,-12 1267,-12 1267,-6 1273,-0 1279,-0 1279,-0 1418,-0 1418,-0 1424,-0 1430,-6 1430,-12 1430,-12 1430,-56 1430,-56 1430,-62 1424,-68 1418,-68"/>
<text text-anchor="middle" x="1348.5" y="-52.8" font-family="Times,serif" font-size="14.00">forward</text>
<text text-anchor="middle" x="1348.5" y="-37.8" font-family="Times,serif" font-size="14.00">EB0/C3</text>
<text text-anchor="middle" x="1348.5" y="-22.8" font-family="Times,serif" font-size="14.00">dilation rate: 1 &#160;&#160;k width: 3</text>
<text text-anchor="middle" x="1348.5" y="-7.8" font-family="Times,serif" font-size="14.00">n kernels: 64</text>
</g>
<!-- 10&#45;&gt;28 -->
<g id="edge28" class="edge"><title>10&#45;&gt;28</title>
<path fill="none" stroke="black" d="M1500.42,-108.022C1480.4,-98.3973 1452.78,-85.122 1426.57,-72.5274"/>
<polygon fill="black" stroke="black" points="1427.91,-69.2858 1417.38,-68.1081 1424.88,-75.5949 1427.91,-69.2858"/>
</g>
<!-- 29 -->
<g id="node30" class="node"><title>29</title>
<path fill="#debfe6" stroke="black" d="M1599,-68C1599,-68 1460,-68 1460,-68 1454,-68 1448,-62 1448,-56 1448,-56 1448,-12 1448,-12 1448,-6 1454,-0 1460,-0 1460,-0 1599,-0 1599,-0 1605,-0 1611,-6 1611,-12 1611,-12 1611,-56 1611,-56 1611,-62 1605,-68 1599,-68"/>
<text text-anchor="middle" x="1529.5" y="-52.8" font-family="Times,serif" font-size="14.00">merge</text>
<text text-anchor="middle" x="1529.5" y="-37.8" font-family="Times,serif" font-size="14.00">EB0/C0</text>
<text text-anchor="middle" x="1529.5" y="-22.8" font-family="Times,serif" font-size="14.00">dilation rate: 1 &#160;&#160;k width: 3</text>
<text text-anchor="middle" x="1529.5" y="-7.8" font-family="Times,serif" font-size="14.00">n kernels: 64</text>
</g>
<!-- 10&#45;&gt;29 -->
<g id="edge29" class="edge"><title>10&#45;&gt;29</title>
<path fill="none" stroke="black" d="M1529.5,-104.812C1529.5,-97.1019 1529.5,-87.6259 1529.5,-78.1706"/>
<polygon fill="black" stroke="black" points="1533,-78.0034 1529.5,-68.0034 1526,-78.0034 1533,-78.0034"/>
</g>
<!-- 30 -->
<g id="node31" class="node"><title>30</title>
<path fill="#c7abce" stroke="black" d="M1780,-68C1780,-68 1641,-68 1641,-68 1635,-68 1629,-62 1629,-56 1629,-56 1629,-12 1629,-12 1629,-6 1635,-0 1641,-0 1641,-0 1780,-0 1780,-0 1786,-0 1792,-6 1792,-12 1792,-12 1792,-56 1792,-56 1792,-62 1786,-68 1780,-68"/>
<text text-anchor="middle" x="1710.5" y="-52.8" font-family="Times,serif" font-size="14.00">merge</text>
<text text-anchor="middle" x="1710.5" y="-37.8" font-family="Times,serif" font-size="14.00">EB0/C1</text>
<text text-anchor="middle" x="1710.5" y="-22.8" font-family="Times,serif" font-size="14.00">dilation rate: 1 &#160;&#160;k width: 3</text>
<text text-anchor="middle" x="1710.5" y="-7.8" font-family="Times,serif" font-size="14.00">n kernels: 64</text>
</g>
<!-- 10&#45;&gt;30 -->
<g id="edge30" class="edge"><title>10&#45;&gt;30</title>
<path fill="none" stroke="black" d="M1558.58,-108.022C1578.6,-98.3973 1606.22,-85.122 1632.43,-72.5274"/>
<polygon fill="black" stroke="black" points="1634.12,-75.5949 1641.62,-68.1081 1631.09,-69.2858 1634.12,-75.5949"/>
</g>
<!-- 31 -->
<g id="node32" class="node"><title>31</title>
<path fill="#b097b6" stroke="black" d="M1961,-68C1961,-68 1822,-68 1822,-68 1816,-68 1810,-62 1810,-56 1810,-56 1810,-12 1810,-12 1810,-6 1816,-0 1822,-0 1822,-0 1961,-0 1961,-0 1967,-0 1973,-6 1973,-12 1973,-12 1973,-56 1973,-56 1973,-62 1967,-68 1961,-68"/>
<text text-anchor="middle" x="1891.5" y="-52.8" font-family="Times,serif" font-size="14.00">merge</text>
<text text-anchor="middle" x="1891.5" y="-37.8" font-family="Times,serif" font-size="14.00">EB0/C2</text>
<text text-anchor="middle" x="1891.5" y="-22.8" font-family="Times,serif" font-size="14.00">dilation rate: 1 &#160;&#160;k width: 3</text>
<text text-anchor="middle" x="1891.5" y="-7.8" font-family="Times,serif" font-size="14.00">n kernels: 64</text>
</g>
<!-- 10&#45;&gt;31 -->
<g id="edge31" class="edge"><title>10&#45;&gt;31</title>
<path fill="none" stroke="black" d="M1558.72,-117.666C1607.05,-110.179 1706.74,-93.3907 1799.97,-68.0015"/>
<polygon fill="black" stroke="black" points="1801.13,-71.3111 1809.84,-65.2737 1799.27,-64.564 1801.13,-71.3111"/>
</g>
<!-- 32 -->
<g id="node33" class="node"><title>32</title>
<path fill="#f6d3ff" stroke="black" d="M2142,-68C2142,-68 2003,-68 2003,-68 1997,-68 1991,-62 1991,-56 1991,-56 1991,-12 1991,-12 1991,-6 1997,-0 2003,-0 2003,-0 2142,-0 2142,-0 2148,-0 2154,-6 2154,-12 2154,-12 2154,-56 2154,-56 2154,-62 2148,-68 2142,-68"/>
<text text-anchor="middle" x="2072.5" y="-52.8" font-family="Times,serif" font-size="14.00">forward</text>
<text text-anchor="middle" x="2072.5" y="-37.8" font-family="Times,serif" font-size="14.00">EB0/C4</text>
<text text-anchor="middle" x="2072.5" y="-22.8" font-family="Times,serif" font-size="14.00">dilation rate: 1 &#160;&#160;k width: 3</text>
<text text-anchor="middle" x="2072.5" y="-7.8" font-family="Times,serif" font-size="14.00">n kernels: 64</text>
</g>
<!-- 11&#45;&gt;32 -->
<g id="edge32" class="edge"><title>11&#45;&gt;32</title>
<path fill="none" stroke="black" d="M2314.49,-113.94C2280.49,-104.365 2222.27,-87.5685 2164.06,-68.4624"/>
<polygon fill="black" stroke="black" points="2164.93,-65.0655 2154.34,-65.2508 2162.74,-71.712 2164.93,-65.0655"/>
</g>
<!-- 33 -->
<g id="node34" class="node"><title>33</title>
<path fill="#debfe6" stroke="black" d="M2323,-68C2323,-68 2184,-68 2184,-68 2178,-68 2172,-62 2172,-56 2172,-56 2172,-12 2172,-12 2172,-6 2178,-0 2184,-0 2184,-0 2323,-0 2323,-0 2329,-0 2335,-6 2335,-12 2335,-12 2335,-56 2335,-56 2335,-62 2329,-68 2323,-68"/>
<text text-anchor="middle" x="2253.5" y="-52.8" font-family="Times,serif" font-size="14.00">merge</text>
<text text-anchor="middle" x="2253.5" y="-37.8" font-family="Times,serif" font-size="14.00">EB0/C0</text>
<text text-anchor="middle" x="2253.5" y="-22.8" font-family="Times,serif" font-size="14.00">dilation rate: 1 &#160;&#160;k width: 3</text>
<text text-anchor="middle" x="2253.5" y="-7.8" font-family="Times,serif" font-size="14.00">n kernels: 64</text>
</g>
<!-- 11&#45;&gt;33 -->
<g id="edge33" class="edge"><title>11&#45;&gt;33</title>
<path fill="none" stroke="black" d="M2325.72,-104.812C2316.89,-96.2817 2305.83,-85.5897 2295.04,-75.1559"/>
<polygon fill="black" stroke="black" points="2297.26,-72.4372 2287.64,-68.0034 2292.4,-77.4701 2297.26,-72.4372"/>
</g>
<!-- 34 -->
<g id="node35" class="node"><title>34</title>
<path fill="#c7abce" stroke="black" d="M2504,-68C2504,-68 2365,-68 2365,-68 2359,-68 2353,-62 2353,-56 2353,-56 2353,-12 2353,-12 2353,-6 2359,-0 2365,-0 2365,-0 2504,-0 2504,-0 2510,-0 2516,-6 2516,-12 2516,-12 2516,-56 2516,-56 2516,-62 2510,-68 2504,-68"/>
<text text-anchor="middle" x="2434.5" y="-52.8" font-family="Times,serif" font-size="14.00">merge</text>
<text text-anchor="middle" x="2434.5" y="-37.8" font-family="Times,serif" font-size="14.00">EB0/C1</text>
<text text-anchor="middle" x="2434.5" y="-22.8" font-family="Times,serif" font-size="14.00">dilation rate: 1 &#160;&#160;k width: 3</text>
<text text-anchor="middle" x="2434.5" y="-7.8" font-family="Times,serif" font-size="14.00">n kernels: 64</text>
</g>
<!-- 11&#45;&gt;34 -->
<g id="edge34" class="edge"><title>11&#45;&gt;34</title>
<path fill="none" stroke="black" d="M2361.48,-104.812C2370.4,-96.2817 2381.58,-85.5897 2392.5,-75.1559"/>
<polygon fill="black" stroke="black" points="2395.17,-77.4437 2399.98,-68.0034 2390.33,-72.384 2395.17,-77.4437"/>
</g>
<!-- 35 -->
<g id="node36" class="node"><title>35</title>
<path fill="#b097b6" stroke="black" d="M2685,-68C2685,-68 2546,-68 2546,-68 2540,-68 2534,-62 2534,-56 2534,-56 2534,-12 2534,-12 2534,-6 2540,-0 2546,-0 2546,-0 2685,-0 2685,-0 2691,-0 2697,-6 2697,-12 2697,-12 2697,-56 2697,-56 2697,-62 2691,-68 2685,-68"/>
<text text-anchor="middle" x="2615.5" y="-52.8" font-family="Times,serif" font-size="14.00">merge</text>
<text text-anchor="middle" x="2615.5" y="-37.8" font-family="Times,serif" font-size="14.00">EB0/C2</text>
<text text-anchor="middle" x="2615.5" y="-22.8" font-family="Times,serif" font-size="14.00">dilation rate: 1 &#160;&#160;k width: 3</text>
<text text-anchor="middle" x="2615.5" y="-7.8" font-family="Times,serif" font-size="14.00">n kernels: 64</text>
</g>
<!-- 11&#45;&gt;35 -->
<g id="edge35" class="edge"><title>11&#45;&gt;35</title>
<path fill="none" stroke="black" d="M2372.5,-113.908C2406.56,-104.284 2464.94,-87.4078 2524.21,-68.0371"/>
<polygon fill="black" stroke="black" points="2525.32,-71.3564 2533.73,-64.9076 2523.13,-64.7067 2525.32,-71.3564"/>
</g>
<!-- 36 -->
<g id="node37" class="node"><title>36</title>
<path fill="#98839e" stroke="black" d="M2866,-68C2866,-68 2727,-68 2727,-68 2721,-68 2715,-62 2715,-56 2715,-56 2715,-12 2715,-12 2715,-6 2721,-0 2727,-0 2727,-0 2866,-0 2866,-0 2872,-0 2878,-6 2878,-12 2878,-12 2878,-56 2878,-56 2878,-62 2872,-68 2866,-68"/>
<text text-anchor="middle" x="2796.5" y="-52.8" font-family="Times,serif" font-size="14.00">merge</text>
<text text-anchor="middle" x="2796.5" y="-37.8" font-family="Times,serif" font-size="14.00">EB0/C3</text>
<text text-anchor="middle" x="2796.5" y="-22.8" font-family="Times,serif" font-size="14.00">dilation rate: 1 &#160;&#160;k width: 3</text>
<text text-anchor="middle" x="2796.5" y="-7.8" font-family="Times,serif" font-size="14.00">n kernels: 64</text>
</g>
<!-- 11&#45;&gt;36 -->
<g id="edge36" class="edge"><title>11&#45;&gt;36</title>
<path fill="none" stroke="black" d="M2372.51,-119.655C2432.87,-114.356 2576.31,-99.5795 2704.87,-67.9713"/>
<polygon fill="black" stroke="black" points="2706.04,-71.2882 2714.89,-65.4665 2704.34,-64.4973 2706.04,-71.2882"/>
</g>
<!-- 37 -->
<g id="node38" class="node"><title>37</title>
<path fill="#f6d3ff" stroke="black" d="M3047,-68C3047,-68 2908,-68 2908,-68 2902,-68 2896,-62 2896,-56 2896,-56 2896,-12 2896,-12 2896,-6 2902,-0 2908,-0 2908,-0 3047,-0 3047,-0 3053,-0 3059,-6 3059,-12 3059,-12 3059,-56 3059,-56 3059,-62 3053,-68 3047,-68"/>
<text text-anchor="middle" x="2977.5" y="-52.8" font-family="Times,serif" font-size="14.00">forward</text>
<text text-anchor="middle" x="2977.5" y="-37.8" font-family="Times,serif" font-size="14.00">EB0/C5</text>
<text text-anchor="middle" x="2977.5" y="-22.8" font-family="Times,serif" font-size="14.00">dilation rate: 1 &#160;&#160;k width: 3</text>
<text text-anchor="middle" x="2977.5" y="-7.8" font-family="Times,serif" font-size="14.00">n kernels: 64</text>
</g>
<!-- 12&#45;&gt;37 -->
<g id="edge37" class="edge"><title>12&#45;&gt;37</title>
<path fill="none" stroke="black" d="M3012.38,-103.974C3008.42,-96.1284 3003.58,-86.5764 2998.8,-77.1122"/>
<polygon fill="black" stroke="black" points="3001.89,-75.4677 2994.25,-68.1236 2995.64,-78.6269 3001.89,-75.4677"/>
</g>
<!-- 38 -->
<g id="node39" class="node"><title>38</title>
<path fill="#f6d3ff" stroke="black" d="M3228,-68C3228,-68 3089,-68 3089,-68 3083,-68 3077,-62 3077,-56 3077,-56 3077,-12 3077,-12 3077,-6 3083,-0 3089,-0 3089,-0 3228,-0 3228,-0 3234,-0 3240,-6 3240,-12 3240,-12 3240,-56 3240,-56 3240,-62 3234,-68 3228,-68"/>
<text text-anchor="middle" x="3158.5" y="-52.8" font-family="Times,serif" font-size="14.00">forward</text>
<text text-anchor="middle" x="3158.5" y="-37.8" font-family="Times,serif" font-size="14.00">DB1/C0</text>
<text text-anchor="middle" x="3158.5" y="-22.8" font-family="Times,serif" font-size="14.00">dilation rate: 1 &#160;&#160;k width: 3</text>
<text text-anchor="middle" x="3158.5" y="-7.8" font-family="Times,serif" font-size="14.00">n kernels: 64</text>
</g>
<!-- 13&#45;&gt;38 -->
<g id="edge38" class="edge"><title>13&#45;&gt;38</title>
<path fill="none" stroke="black" d="M3200.23,-104.812C3195.37,-96.6918 3189.35,-86.6128 3183.4,-76.6623"/>
<polygon fill="black" stroke="black" points="3186.36,-74.7914 3178.23,-68.0034 3180.35,-78.3827 3186.36,-74.7914"/>
</g>
<!-- 39 -->
<g id="node40" class="node"><title>39</title>
<path fill="#f6d3ff" stroke="black" d="M3409,-68C3409,-68 3270,-68 3270,-68 3264,-68 3258,-62 3258,-56 3258,-56 3258,-12 3258,-12 3258,-6 3264,-0 3270,-0 3270,-0 3409,-0 3409,-0 3415,-0 3421,-6 3421,-12 3421,-12 3421,-56 3421,-56 3421,-62 3415,-68 3409,-68"/>
<text text-anchor="middle" x="3339.5" y="-52.8" font-family="Times,serif" font-size="14.00">forward</text>
<text text-anchor="middle" x="3339.5" y="-37.8" font-family="Times,serif" font-size="14.00">DB1/C1</text>
<text text-anchor="middle" x="3339.5" y="-22.8" font-family="Times,serif" font-size="14.00">dilation rate: 1 &#160;&#160;k width: 3</text>
<text text-anchor="middle" x="3339.5" y="-7.8" font-family="Times,serif" font-size="14.00">n kernels: 64</text>
</g>
<!-- 14&#45;&gt;39 -->
<g id="edge39" class="edge"><title>14&#45;&gt;39</title>
<path fill="none" stroke="black" d="M3411.72,-104.812C3402.89,-96.2817 3391.83,-85.5897 3381.04,-75.1559"/>
<polygon fill="black" stroke="black" points="3383.26,-72.4372 3373.64,-68.0034 3378.4,-77.4701 3383.26,-72.4372"/>
</g>
<!-- 40 -->
<g id="node41" class="node"><title>40</title>
<path fill="#debfe6" stroke="black" d="M3590,-68C3590,-68 3451,-68 3451,-68 3445,-68 3439,-62 3439,-56 3439,-56 3439,-12 3439,-12 3439,-6 3445,-0 3451,-0 3451,-0 3590,-0 3590,-0 3596,-0 3602,-6 3602,-12 3602,-12 3602,-56 3602,-56 3602,-62 3596,-68 3590,-68"/>
<text text-anchor="middle" x="3520.5" y="-52.8" font-family="Times,serif" font-size="14.00">merge</text>
<text text-anchor="middle" x="3520.5" y="-37.8" font-family="Times,serif" font-size="14.00">DB1/C0</text>
<text text-anchor="middle" x="3520.5" y="-22.8" font-family="Times,serif" font-size="14.00">dilation rate: 1 &#160;&#160;k width: 3</text>
<text text-anchor="middle" x="3520.5" y="-7.8" font-family="Times,serif" font-size="14.00">n kernels: 64</text>
</g>
<!-- 14&#45;&gt;40 -->
<g id="edge40" class="edge"><title>14&#45;&gt;40</title>
<path fill="none" stroke="black" d="M3447.48,-104.812C3456.4,-96.2817 3467.58,-85.5897 3478.5,-75.1559"/>
<polygon fill="black" stroke="black" points="3481.17,-77.4437 3485.98,-68.0034 3476.33,-72.384 3481.17,-77.4437"/>
</g>
<!-- 41 -->
<g id="node42" class="node"><title>41</title>
<path fill="#f6d3ff" stroke="black" d="M3771,-68C3771,-68 3632,-68 3632,-68 3626,-68 3620,-62 3620,-56 3620,-56 3620,-12 3620,-12 3620,-6 3626,-0 3632,-0 3632,-0 3771,-0 3771,-0 3777,-0 3783,-6 3783,-12 3783,-12 3783,-56 3783,-56 3783,-62 3777,-68 3771,-68"/>
<text text-anchor="middle" x="3701.5" y="-52.8" font-family="Times,serif" font-size="14.00">forward</text>
<text text-anchor="middle" x="3701.5" y="-37.8" font-family="Times,serif" font-size="14.00">DB1/C2</text>
<text text-anchor="middle" x="3701.5" y="-22.8" font-family="Times,serif" font-size="14.00">dilation rate: 1 &#160;&#160;k width: 3</text>
<text text-anchor="middle" x="3701.5" y="-7.8" font-family="Times,serif" font-size="14.00">n kernels: 64</text>
</g>
<!-- 15&#45;&gt;41 -->
<g id="edge41" class="edge"><title>15&#45;&gt;41</title>
<path fill="none" stroke="black" d="M3772.85,-103.974C3764.23,-95.6431 3753.63,-85.3882 3743.25,-75.3573"/>
<polygon fill="black" stroke="black" points="3745.39,-72.5574 3735.77,-68.1236 3740.52,-77.5904 3745.39,-72.5574"/>
</g>
<!-- 42 -->
<g id="node43" class="node"><title>42</title>
<path fill="#debfe6" stroke="black" d="M3952,-68C3952,-68 3813,-68 3813,-68 3807,-68 3801,-62 3801,-56 3801,-56 3801,-12 3801,-12 3801,-6 3807,-0 3813,-0 3813,-0 3952,-0 3952,-0 3958,-0 3964,-6 3964,-12 3964,-12 3964,-56 3964,-56 3964,-62 3958,-68 3952,-68"/>
<text text-anchor="middle" x="3882.5" y="-52.8" font-family="Times,serif" font-size="14.00">merge</text>
<text text-anchor="middle" x="3882.5" y="-37.8" font-family="Times,serif" font-size="14.00">DB1/C0</text>
<text text-anchor="middle" x="3882.5" y="-22.8" font-family="Times,serif" font-size="14.00">dilation rate: 1 &#160;&#160;k width: 3</text>
<text text-anchor="middle" x="3882.5" y="-7.8" font-family="Times,serif" font-size="14.00">n kernels: 64</text>
</g>
<!-- 15&#45;&gt;42 -->
<g id="edge42" class="edge"><title>15&#45;&gt;42</title>
<path fill="none" stroke="black" d="M3810.36,-103.974C3819.15,-95.5622 3830,-85.1889 3840.59,-75.0653"/>
<polygon fill="black" stroke="black" points="3843.04,-77.5639 3847.85,-68.1236 3838.21,-72.5042 3843.04,-77.5639"/>
</g>
<!-- 43 -->
<g id="node44" class="node"><title>43</title>
<path fill="#c7abce" stroke="black" d="M4133,-68C4133,-68 3994,-68 3994,-68 3988,-68 3982,-62 3982,-56 3982,-56 3982,-12 3982,-12 3982,-6 3988,-0 3994,-0 3994,-0 4133,-0 4133,-0 4139,-0 4145,-6 4145,-12 4145,-12 4145,-56 4145,-56 4145,-62 4139,-68 4133,-68"/>
<text text-anchor="middle" x="4063.5" y="-52.8" font-family="Times,serif" font-size="14.00">merge</text>
<text text-anchor="middle" x="4063.5" y="-37.8" font-family="Times,serif" font-size="14.00">DB1/C1</text>
<text text-anchor="middle" x="4063.5" y="-22.8" font-family="Times,serif" font-size="14.00">dilation rate: 1 &#160;&#160;k width: 3</text>
<text text-anchor="middle" x="4063.5" y="-7.8" font-family="Times,serif" font-size="14.00">n kernels: 64</text>
</g>
<!-- 15&#45;&gt;43 -->
<g id="edge43" class="edge"><title>15&#45;&gt;43</title>
<path fill="none" stroke="black" d="M3837.85,-108.972C3872.41,-99.0796 3920.94,-84.8049 3972.14,-68.062"/>
<polygon fill="black" stroke="black" points="3973.32,-71.3576 3981.73,-64.9076 3971.13,-64.7083 3973.32,-71.3576"/>
</g>
<!-- 44 -->
<g id="node45" class="node"><title>44</title>
<path fill="#f6d3ff" stroke="black" d="M4314,-68C4314,-68 4175,-68 4175,-68 4169,-68 4163,-62 4163,-56 4163,-56 4163,-12 4163,-12 4163,-6 4169,-0 4175,-0 4175,-0 4314,-0 4314,-0 4320,-0 4326,-6 4326,-12 4326,-12 4326,-56 4326,-56 4326,-62 4320,-68 4314,-68"/>
<text text-anchor="middle" x="4244.5" y="-52.8" font-family="Times,serif" font-size="14.00">forward</text>
<text text-anchor="middle" x="4244.5" y="-37.8" font-family="Times,serif" font-size="14.00">DB1/C3</text>
<text text-anchor="middle" x="4244.5" y="-22.8" font-family="Times,serif" font-size="14.00">dilation rate: 1 &#160;&#160;k width: 3</text>
<text text-anchor="middle" x="4244.5" y="-7.8" font-family="Times,serif" font-size="14.00">n kernels: 64</text>
</g>
<!-- 16&#45;&gt;44 -->
<g id="edge44" class="edge"><title>16&#45;&gt;44</title>
<path fill="none" stroke="black" d="M4396.42,-108.022C4376.4,-98.3973 4348.78,-85.122 4322.57,-72.5274"/>
<polygon fill="black" stroke="black" points="4323.91,-69.2858 4313.38,-68.1081 4320.88,-75.5949 4323.91,-69.2858"/>
</g>
<!-- 45 -->
<g id="node46" class="node"><title>45</title>
<path fill="#debfe6" stroke="black" d="M4495,-68C4495,-68 4356,-68 4356,-68 4350,-68 4344,-62 4344,-56 4344,-56 4344,-12 4344,-12 4344,-6 4350,-0 4356,-0 4356,-0 4495,-0 4495,-0 4501,-0 4507,-6 4507,-12 4507,-12 4507,-56 4507,-56 4507,-62 4501,-68 4495,-68"/>
<text text-anchor="middle" x="4425.5" y="-52.8" font-family="Times,serif" font-size="14.00">merge</text>
<text text-anchor="middle" x="4425.5" y="-37.8" font-family="Times,serif" font-size="14.00">DB1/C0</text>
<text text-anchor="middle" x="4425.5" y="-22.8" font-family="Times,serif" font-size="14.00">dilation rate: 1 &#160;&#160;k width: 3</text>
<text text-anchor="middle" x="4425.5" y="-7.8" font-family="Times,serif" font-size="14.00">n kernels: 64</text>
</g>
<!-- 16&#45;&gt;45 -->
<g id="edge45" class="edge"><title>16&#45;&gt;45</title>
<path fill="none" stroke="black" d="M4425.5,-104.812C4425.5,-97.1019 4425.5,-87.6259 4425.5,-78.1706"/>
<polygon fill="black" stroke="black" points="4429,-78.0034 4425.5,-68.0034 4422,-78.0034 4429,-78.0034"/>
</g>
<!-- 46 -->
<g id="node47" class="node"><title>46</title>
<path fill="#c7abce" stroke="black" d="M4676,-68C4676,-68 4537,-68 4537,-68 4531,-68 4525,-62 4525,-56 4525,-56 4525,-12 4525,-12 4525,-6 4531,-0 4537,-0 4537,-0 4676,-0 4676,-0 4682,-0 4688,-6 4688,-12 4688,-12 4688,-56 4688,-56 4688,-62 4682,-68 4676,-68"/>
<text text-anchor="middle" x="4606.5" y="-52.8" font-family="Times,serif" font-size="14.00">merge</text>
<text text-anchor="middle" x="4606.5" y="-37.8" font-family="Times,serif" font-size="14.00">DB1/C1</text>
<text text-anchor="middle" x="4606.5" y="-22.8" font-family="Times,serif" font-size="14.00">dilation rate: 1 &#160;&#160;k width: 3</text>
<text text-anchor="middle" x="4606.5" y="-7.8" font-family="Times,serif" font-size="14.00">n kernels: 64</text>
</g>
<!-- 16&#45;&gt;46 -->
<g id="edge46" class="edge"><title>16&#45;&gt;46</title>
<path fill="none" stroke="black" d="M4454.58,-108.022C4474.6,-98.3973 4502.22,-85.122 4528.43,-72.5274"/>
<polygon fill="black" stroke="black" points="4530.12,-75.5949 4537.62,-68.1081 4527.09,-69.2858 4530.12,-75.5949"/>
</g>
<!-- 47 -->
<g id="node48" class="node"><title>47</title>
<path fill="#b097b6" stroke="black" d="M4857,-68C4857,-68 4718,-68 4718,-68 4712,-68 4706,-62 4706,-56 4706,-56 4706,-12 4706,-12 4706,-6 4712,-0 4718,-0 4718,-0 4857,-0 4857,-0 4863,-0 4869,-6 4869,-12 4869,-12 4869,-56 4869,-56 4869,-62 4863,-68 4857,-68"/>
<text text-anchor="middle" x="4787.5" y="-52.8" font-family="Times,serif" font-size="14.00">merge</text>
<text text-anchor="middle" x="4787.5" y="-37.8" font-family="Times,serif" font-size="14.00">DB1/C2</text>
<text text-anchor="middle" x="4787.5" y="-22.8" font-family="Times,serif" font-size="14.00">dilation rate: 1 &#160;&#160;k width: 3</text>
<text text-anchor="middle" x="4787.5" y="-7.8" font-family="Times,serif" font-size="14.00">n kernels: 64</text>
</g>
<!-- 16&#45;&gt;47 -->
<g id="edge47" class="edge"><title>16&#45;&gt;47</title>
<path fill="none" stroke="black" d="M4454.72,-117.666C4503.05,-110.179 4602.74,-93.3907 4695.97,-68.0015"/>
<polygon fill="black" stroke="black" points="4697.13,-71.3111 4705.84,-65.2737 4695.27,-64.564 4697.13,-71.3111"/>
</g>
<!-- 48 -->
<g id="node49" class="node"><title>48</title>
<path fill="#f6d3ff" stroke="black" d="M5038,-68C5038,-68 4899,-68 4899,-68 4893,-68 4887,-62 4887,-56 4887,-56 4887,-12 4887,-12 4887,-6 4893,-0 4899,-0 4899,-0 5038,-0 5038,-0 5044,-0 5050,-6 5050,-12 5050,-12 5050,-56 5050,-56 5050,-62 5044,-68 5038,-68"/>
<text text-anchor="middle" x="4968.5" y="-52.8" font-family="Times,serif" font-size="14.00">forward</text>
<text text-anchor="middle" x="4968.5" y="-37.8" font-family="Times,serif" font-size="14.00">DB1/C4</text>
<text text-anchor="middle" x="4968.5" y="-22.8" font-family="Times,serif" font-size="14.00">dilation rate: 1 &#160;&#160;k width: 3</text>
<text text-anchor="middle" x="4968.5" y="-7.8" font-family="Times,serif" font-size="14.00">n kernels: 64</text>
</g>
<!-- 17&#45;&gt;48 -->
<g id="edge48" class="edge"><title>17&#45;&gt;48</title>
<path fill="none" stroke="black" d="M5120.42,-108.022C5100.4,-98.3973 5072.78,-85.122 5046.57,-72.5274"/>
<polygon fill="black" stroke="black" points="5047.91,-69.2858 5037.38,-68.1081 5044.88,-75.5949 5047.91,-69.2858"/>
</g>
<!-- 49 -->
<g id="node50" class="node"><title>49</title>
<path fill="#debfe6" stroke="black" d="M5219,-68C5219,-68 5080,-68 5080,-68 5074,-68 5068,-62 5068,-56 5068,-56 5068,-12 5068,-12 5068,-6 5074,-0 5080,-0 5080,-0 5219,-0 5219,-0 5225,-0 5231,-6 5231,-12 5231,-12 5231,-56 5231,-56 5231,-62 5225,-68 5219,-68"/>
<text text-anchor="middle" x="5149.5" y="-52.8" font-family="Times,serif" font-size="14.00">merge</text>
<text text-anchor="middle" x="5149.5" y="-37.8" font-family="Times,serif" font-size="14.00">EB0/C5</text>
<text text-anchor="middle" x="5149.5" y="-22.8" font-family="Times,serif" font-size="14.00">dilation rate: 1 &#160;&#160;k width: 3</text>
<text text-anchor="middle" x="5149.5" y="-7.8" font-family="Times,serif" font-size="14.00">n kernels: 64</text>
</g>
<!-- 17&#45;&gt;49 -->
<g id="edge49" class="edge"><title>17&#45;&gt;49</title>
<path fill="none" stroke="black" d="M5149.5,-104.812C5149.5,-97.1019 5149.5,-87.6259 5149.5,-78.1706"/>
<polygon fill="black" stroke="black" points="5153,-78.0034 5149.5,-68.0034 5146,-78.0034 5153,-78.0034"/>
</g>
<!-- 50 -->
<g id="node51" class="node"><title>50</title>
<path fill="#f6d3ff" stroke="black" d="M5400,-68C5400,-68 5261,-68 5261,-68 5255,-68 5249,-62 5249,-56 5249,-56 5249,-12 5249,-12 5249,-6 5255,-0 5261,-0 5261,-0 5400,-0 5400,-0 5406,-0 5412,-6 5412,-12 5412,-12 5412,-56 5412,-56 5412,-62 5406,-68 5400,-68"/>
<text text-anchor="middle" x="5330.5" y="-52.8" font-family="Times,serif" font-size="14.00">forward</text>
<text text-anchor="middle" x="5330.5" y="-37.8" font-family="Times,serif" font-size="14.00">DB0/C0</text>
<text text-anchor="middle" x="5330.5" y="-22.8" font-family="Times,serif" font-size="14.00">dilation rate: 1 &#160;&#160;k width: 3</text>
<text text-anchor="middle" x="5330.5" y="-7.8" font-family="Times,serif" font-size="14.00">n kernels: 64</text>
</g>
<!-- 18&#45;&gt;50 -->
<g id="edge50" class="edge"><title>18&#45;&gt;50</title>
<path fill="none" stroke="black" d="M5330.5,-104.812C5330.5,-97.1019 5330.5,-87.6259 5330.5,-78.1706"/>
<polygon fill="black" stroke="black" points="5334,-78.0034 5330.5,-68.0034 5327,-78.0034 5334,-78.0034"/>
</g>
<!-- 51 -->
<g id="node52" class="node"><title>51</title>
<path fill="#f6d3ff" stroke="black" d="M5581,-68C5581,-68 5442,-68 5442,-68 5436,-68 5430,-62 5430,-56 5430,-56 5430,-12 5430,-12 5430,-6 5436,-0 5442,-0 5442,-0 5581,-0 5581,-0 5587,-0 5593,-6 5593,-12 5593,-12 5593,-56 5593,-56 5593,-62 5587,-68 5581,-68"/>
<text text-anchor="middle" x="5511.5" y="-52.8" font-family="Times,serif" font-size="14.00">forward</text>
<text text-anchor="middle" x="5511.5" y="-37.8" font-family="Times,serif" font-size="14.00">DB0/C1</text>
<text text-anchor="middle" x="5511.5" y="-22.8" font-family="Times,serif" font-size="14.00">dilation rate: 1 &#160;&#160;k width: 3</text>
<text text-anchor="middle" x="5511.5" y="-7.8" font-family="Times,serif" font-size="14.00">n kernels: 64</text>
</g>
<!-- 19&#45;&gt;51 -->
<g id="edge51" class="edge"><title>19&#45;&gt;51</title>
<path fill="none" stroke="black" d="M5511.5,-103.974C5511.5,-96.4519 5511.5,-87.3613 5511.5,-78.2833"/>
<polygon fill="black" stroke="black" points="5515,-78.1236 5511.5,-68.1236 5508,-78.1237 5515,-78.1236"/>
</g>
<!-- 52 -->
<g id="node53" class="node"><title>52</title>
<path fill="#debfe6" stroke="black" d="M5762,-68C5762,-68 5623,-68 5623,-68 5617,-68 5611,-62 5611,-56 5611,-56 5611,-12 5611,-12 5611,-6 5617,-0 5623,-0 5623,-0 5762,-0 5762,-0 5768,-0 5774,-6 5774,-12 5774,-12 5774,-56 5774,-56 5774,-62 5768,-68 5762,-68"/>
<text text-anchor="middle" x="5692.5" y="-52.8" font-family="Times,serif" font-size="14.00">merge</text>
<text text-anchor="middle" x="5692.5" y="-37.8" font-family="Times,serif" font-size="14.00">DB0/C0</text>
<text text-anchor="middle" x="5692.5" y="-22.8" font-family="Times,serif" font-size="14.00">dilation rate: 1 &#160;&#160;k width: 3</text>
<text text-anchor="middle" x="5692.5" y="-7.8" font-family="Times,serif" font-size="14.00">n kernels: 64</text>
</g>
<!-- 19&#45;&gt;52 -->
<g id="edge52" class="edge"><title>19&#45;&gt;52</title>
<path fill="none" stroke="black" d="M5549,-103.974C5567.93,-94.8748 5591.64,-83.4802 5614.3,-72.5892"/>
<polygon fill="black" stroke="black" points="5616.09,-75.6104 5623.59,-68.1236 5613.06,-69.3013 5616.09,-75.6104"/>
</g>
<!-- 53 -->
<g id="node54" class="node"><title>53</title>
<path fill="#f6d3ff" stroke="black" d="M5943,-68C5943,-68 5804,-68 5804,-68 5798,-68 5792,-62 5792,-56 5792,-56 5792,-12 5792,-12 5792,-6 5798,-0 5804,-0 5804,-0 5943,-0 5943,-0 5949,-0 5955,-6 5955,-12 5955,-12 5955,-56 5955,-56 5955,-62 5949,-68 5943,-68"/>
<text text-anchor="middle" x="5873.5" y="-52.8" font-family="Times,serif" font-size="14.00">forward</text>
<text text-anchor="middle" x="5873.5" y="-37.8" font-family="Times,serif" font-size="14.00">DB0/C2</text>
<text text-anchor="middle" x="5873.5" y="-22.8" font-family="Times,serif" font-size="14.00">dilation rate: 1 &#160;&#160;k width: 3</text>
<text text-anchor="middle" x="5873.5" y="-7.8" font-family="Times,serif" font-size="14.00">n kernels: 64</text>
</g>
<!-- 20&#45;&gt;53 -->
<g id="edge53" class="edge"><title>20&#45;&gt;53</title>
<path fill="none" stroke="black" d="M5945.72,-104.812C5936.89,-96.2817 5925.83,-85.5897 5915.04,-75.1559"/>
<polygon fill="black" stroke="black" points="5917.26,-72.4372 5907.64,-68.0034 5912.4,-77.4701 5917.26,-72.4372"/>
</g>
<!-- 54 -->
<g id="node55" class="node"><title>54</title>
<path fill="#debfe6" stroke="black" d="M6124,-68C6124,-68 5985,-68 5985,-68 5979,-68 5973,-62 5973,-56 5973,-56 5973,-12 5973,-12 5973,-6 5979,-0 5985,-0 5985,-0 6124,-0 6124,-0 6130,-0 6136,-6 6136,-12 6136,-12 6136,-56 6136,-56 6136,-62 6130,-68 6124,-68"/>
<text text-anchor="middle" x="6054.5" y="-52.8" font-family="Times,serif" font-size="14.00">merge</text>
<text text-anchor="middle" x="6054.5" y="-37.8" font-family="Times,serif" font-size="14.00">DB0/C0</text>
<text text-anchor="middle" x="6054.5" y="-22.8" font-family="Times,serif" font-size="14.00">dilation rate: 1 &#160;&#160;k width: 3</text>
<text text-anchor="middle" x="6054.5" y="-7.8" font-family="Times,serif" font-size="14.00">n kernels: 64</text>
</g>
<!-- 20&#45;&gt;54 -->
<g id="edge54" class="edge"><title>20&#45;&gt;54</title>
<path fill="none" stroke="black" d="M5981.48,-104.812C5990.4,-96.2817 6001.58,-85.5897 6012.5,-75.1559"/>
<polygon fill="black" stroke="black" points="6015.17,-77.4437 6019.98,-68.0034 6010.33,-72.384 6015.17,-77.4437"/>
</g>
<!-- 55 -->
<g id="node56" class="node"><title>55</title>
<path fill="#c7abce" stroke="black" d="M6305,-68C6305,-68 6166,-68 6166,-68 6160,-68 6154,-62 6154,-56 6154,-56 6154,-12 6154,-12 6154,-6 6160,-0 6166,-0 6166,-0 6305,-0 6305,-0 6311,-0 6317,-6 6317,-12 6317,-12 6317,-56 6317,-56 6317,-62 6311,-68 6305,-68"/>
<text text-anchor="middle" x="6235.5" y="-52.8" font-family="Times,serif" font-size="14.00">merge</text>
<text text-anchor="middle" x="6235.5" y="-37.8" font-family="Times,serif" font-size="14.00">DB0/C1</text>
<text text-anchor="middle" x="6235.5" y="-22.8" font-family="Times,serif" font-size="14.00">dilation rate: 1 &#160;&#160;k width: 3</text>
<text text-anchor="middle" x="6235.5" y="-7.8" font-family="Times,serif" font-size="14.00">n kernels: 64</text>
</g>
<!-- 20&#45;&gt;55 -->
<g id="edge55" class="edge"><title>20&#45;&gt;55</title>
<path fill="none" stroke="black" d="M5992.68,-113.956C6026.86,-104.397 6085.41,-87.6161 6143.9,-68.4742"/>
<polygon fill="black" stroke="black" points="6145.26,-71.7106 6153.66,-65.2561 6143.07,-65.0624 6145.26,-71.7106"/>
</g>
</g>
</svg>
