<?xml version="1.0" encoding="UTF-8" standalone="no"?>
<!DOCTYPE svg PUBLIC "-//W3C//DTD SVG 1.1//EN"
 "http://www.w3.org/Graphics/SVG/1.1/DTD/svg11.dtd">
<!-- Generated by graphviz version 2.38.0 (20140413.2041)
 -->
<!-- Title: %3 Pages: 1 -->
<svg width="3704pt" height="433pt"
 viewBox="0.00 0.00 3704.00 433.00" xmlns="http://www.w3.org/2000/svg" xmlns:xlink="http://www.w3.org/1999/xlink">
<g id="graph0" class="graph" transform="scale(1 1) rotate(0) translate(4 429)">
<title>%3</title>
<polygon fill="none" stroke="none" points="-4,4 -4,-429 3700,-429 3700,4 -4,4"/>
<!-- 0 -->
<g id="node1" class="node"><title>0</title>
<path fill="#ffd3d3" stroke="black" d="M2470,-425C2470,-425 2279,-425 2279,-425 2273,-425 2267,-419 2267,-413 2267,-413 2267,-384 2267,-384 2267,-378 2273,-372 2279,-372 2279,-372 2470,-372 2470,-372 2476,-372 2482,-378 2482,-384 2482,-384 2482,-413 2482,-413 2482,-419 2476,-425 2470,-425"/>
<text text-anchor="middle" x="2374.5" y="-409.8" font-family="Times,serif" font-size="14.00">net</text>
<text text-anchor="middle" x="2374.5" y="-394.8" font-family="Times,serif" font-size="14.00">k width: 3 &#160;&#160;log gamma2: &#45;3.128310</text>
<text text-anchor="middle" x="2374.5" y="-379.8" font-family="Times,serif" font-size="14.00">n kernels: 96</text>
</g>
<!-- 1 -->
<g id="node2" class="node"><title>1</title>
<path fill="#e9ffd3" stroke="black" d="M930,-321C930,-321 667,-321 667,-321 661,-321 655,-315 655,-309 655,-309 655,-295 655,-295 655,-289 661,-283 667,-283 667,-283 930,-283 930,-283 936,-283 942,-289 942,-295 942,-295 942,-309 942,-309 942,-315 936,-321 930,-321"/>
<text text-anchor="middle" x="798.5" y="-305.8" font-family="Times,serif" font-size="14.00">conv block 0</text>
<text text-anchor="middle" x="798.5" y="-290.8" font-family="Times,serif" font-size="14.00">log gamma1: &#45;1.760843 &#160;&#160;log gamma2: 0.128310</text>
</g>
<!-- 0&#45;&gt;1 -->
<g id="edge1" class="edge"><title>0&#45;&gt;1</title>
<path fill="none" stroke="black" d="M2266.8,-391.042C1993.16,-374.634 1270.44,-331.298 952.411,-312.229"/>
<polygon fill="black" stroke="black" points="952.386,-308.721 942.195,-311.616 951.967,-315.709 952.386,-308.721"/>
</g>
<!-- 2 -->
<g id="node3" class="node"><title>2</title>
<path fill="#e9ffd3" stroke="black" d="M2506,-336C2506,-336 2243,-336 2243,-336 2237,-336 2231,-330 2231,-324 2231,-324 2231,-280 2231,-280 2231,-274 2237,-268 2243,-268 2243,-268 2506,-268 2506,-268 2512,-268 2518,-274 2518,-280 2518,-280 2518,-324 2518,-324 2518,-330 2512,-336 2506,-336"/>
<text text-anchor="middle" x="2374.5" y="-320.8" font-family="Times,serif" font-size="14.00">conv block 1</text>
<text text-anchor="middle" x="2374.5" y="-305.8" font-family="Times,serif" font-size="14.00">log gamma1: 1.230313 &#160;&#160;log gamma2: &#45;1.338858</text>
<text text-anchor="middle" x="2374.5" y="-290.8" font-family="Times,serif" font-size="14.00">n kernels: 96 &#160;&#160;pool z: 1</text>
<text text-anchor="middle" x="2374.5" y="-275.8" font-family="Times,serif" font-size="14.00">spatial scale: 1</text>
</g>
<!-- 0&#45;&gt;2 -->
<g id="edge2" class="edge"><title>0&#45;&gt;2</title>
<path fill="none" stroke="black" d="M2374.5,-371.677C2374.5,-363.822 2374.5,-354.964 2374.5,-346.285"/>
<polygon fill="black" stroke="black" points="2378,-346.251 2374.5,-336.251 2371,-346.251 2378,-346.251"/>
</g>
<!-- 3 -->
<g id="node4" class="node"><title>3</title>
<path fill="#e9ffd3" stroke="black" d="M3254,-320C3254,-320 3187,-320 3187,-320 3181,-320 3175,-314 3175,-308 3175,-308 3175,-296 3175,-296 3175,-290 3181,-284 3187,-284 3187,-284 3254,-284 3254,-284 3260,-284 3266,-290 3266,-296 3266,-296 3266,-308 3266,-308 3266,-314 3260,-320 3254,-320"/>
<text text-anchor="middle" x="3220.5" y="-298.3" font-family="Times,serif" font-size="14.00">path combine</text>
</g>
<!-- 0&#45;&gt;3 -->
<g id="edge3" class="edge"><title>0&#45;&gt;3</title>
<path fill="none" stroke="black" d="M2482.08,-385.484C2663.99,-365.163 3026.11,-324.714 3164.74,-309.229"/>
<polygon fill="black" stroke="black" points="3165.17,-312.702 3174.72,-308.114 3164.39,-305.746 3165.17,-312.702"/>
</g>
<!-- 4 -->
<g id="node5" class="node"><title>4</title>
<path fill="#d3ffff" stroke="black" d="M280,-202C280,-202 155,-202 155,-202 149,-202 143,-196 143,-190 143,-190 143,-176 143,-176 143,-170 149,-164 155,-164 155,-164 280,-164 280,-164 286,-164 292,-170 292,-176 292,-176 292,-190 292,-190 292,-196 286,-202 280,-202"/>
<text text-anchor="middle" x="217.5" y="-186.8" font-family="Times,serif" font-size="14.00">comp 0</text>
<text text-anchor="middle" x="217.5" y="-171.8" font-family="Times,serif" font-size="14.00">log gamma1: &#45;0.580295</text>
</g>
<!-- 1&#45;&gt;4 -->
<g id="edge4" class="edge"><title>1&#45;&gt;4</title>
<path fill="none" stroke="black" d="M654.539,-283.777C569.758,-272.217 460.795,-254.899 365.5,-232 335.676,-224.833 303.19,-214.58 276.272,-205.389"/>
<polygon fill="black" stroke="black" points="277.216,-202.012 266.622,-202.058 274.933,-208.629 277.216,-202.012"/>
</g>
<!-- 5 -->
<g id="node6" class="node"><title>5</title>
<path fill="#bfe6e6" stroke="black" d="M650,-202C650,-202 387,-202 387,-202 381,-202 375,-196 375,-190 375,-190 375,-176 375,-176 375,-170 381,-164 387,-164 387,-164 650,-164 650,-164 656,-164 662,-170 662,-176 662,-176 662,-190 662,-190 662,-196 656,-202 650,-202"/>
<text text-anchor="middle" x="518.5" y="-186.8" font-family="Times,serif" font-size="14.00">comp 1</text>
<text text-anchor="middle" x="518.5" y="-171.8" font-family="Times,serif" font-size="14.00">log gamma1: 1.376015 &#160;&#160;log gamma2: &#45;0.398082</text>
</g>
<!-- 1&#45;&gt;5 -->
<g id="edge5" class="edge"><title>1&#45;&gt;5</title>
<path fill="none" stroke="black" d="M755.364,-282.975C705.727,-262.234 624.226,-228.179 570.961,-205.921"/>
<polygon fill="black" stroke="black" points="572.262,-202.671 561.685,-202.045 569.563,-209.13 572.262,-202.671"/>
</g>
<!-- 6 -->
<g id="node7" class="node"><title>6</title>
<path fill="#abcece" stroke="black" d="M861,-202C861,-202 736,-202 736,-202 730,-202 724,-196 724,-190 724,-190 724,-176 724,-176 724,-170 730,-164 736,-164 736,-164 861,-164 861,-164 867,-164 873,-170 873,-176 873,-176 873,-190 873,-190 873,-196 867,-202 861,-202"/>
<text text-anchor="middle" x="798.5" y="-186.8" font-family="Times,serif" font-size="14.00">comp 2</text>
<text text-anchor="middle" x="798.5" y="-171.8" font-family="Times,serif" font-size="14.00">log gamma1: &#45;0.876379</text>
</g>
<!-- 1&#45;&gt;6 -->
<g id="edge6" class="edge"><title>1&#45;&gt;6</title>
<path fill="none" stroke="black" d="M798.5,-282.975C798.5,-264.136 798.5,-234.311 798.5,-212.321"/>
<polygon fill="black" stroke="black" points="802,-212.238 798.5,-202.238 795,-212.238 802,-212.238"/>
</g>
<!-- 7 -->
<g id="node8" class="node"><title>7</title>
<path fill="#97b6b6" stroke="black" d="M1060,-202C1060,-202 997,-202 997,-202 991,-202 985,-196 985,-190 985,-190 985,-176 985,-176 985,-170 991,-164 997,-164 997,-164 1060,-164 1060,-164 1066,-164 1072,-170 1072,-176 1072,-176 1072,-190 1072,-190 1072,-196 1066,-202 1060,-202"/>
<text text-anchor="middle" x="1028.5" y="-186.8" font-family="Times,serif" font-size="14.00">comp 3</text>
<text text-anchor="middle" x="1028.5" y="-171.8" font-family="Times,serif" font-size="14.00">n kernels: 17</text>
</g>
<!-- 1&#45;&gt;7 -->
<g id="edge7" class="edge"><title>1&#45;&gt;7</title>
<path fill="none" stroke="black" d="M833.933,-282.975C874.285,-262.449 940.27,-228.882 984.041,-206.616"/>
<polygon fill="black" stroke="black" points="985.7,-209.699 993.026,-202.045 982.526,-203.46 985.7,-209.699"/>
</g>
<!-- 8 -->
<g id="node9" class="node"><title>8</title>
<path fill="#d3ffff" stroke="black" d="M1624,-202C1624,-202 1413,-202 1413,-202 1407,-202 1401,-196 1401,-190 1401,-190 1401,-176 1401,-176 1401,-170 1407,-164 1413,-164 1413,-164 1624,-164 1624,-164 1630,-164 1636,-170 1636,-176 1636,-176 1636,-190 1636,-190 1636,-196 1630,-202 1624,-202"/>
<text text-anchor="middle" x="1518.5" y="-186.8" font-family="Times,serif" font-size="14.00">comp 0</text>
<text text-anchor="middle" x="1518.5" y="-171.8" font-family="Times,serif" font-size="14.00">log gamma2: &#45;1.234988 &#160;&#160;n kernels: &#45;64</text>
</g>
<!-- 2&#45;&gt;8 -->
<g id="edge8" class="edge"><title>2&#45;&gt;8</title>
<path fill="none" stroke="black" d="M2230.89,-291.17C2097.89,-280.81 1894.94,-261.801 1720.5,-232 1678.59,-224.84 1632.41,-214.087 1594.8,-204.572"/>
<polygon fill="black" stroke="black" points="1595.49,-201.135 1584.93,-202.055 1593.76,-207.918 1595.49,-201.135"/>
</g>
<!-- 9 -->
<g id="node10" class="node"><title>9</title>
<path fill="#bfe6e6" stroke="black" d="M1947.5,-202C1947.5,-202 1741.5,-202 1741.5,-202 1735.5,-202 1729.5,-196 1729.5,-190 1729.5,-190 1729.5,-176 1729.5,-176 1729.5,-170 1735.5,-164 1741.5,-164 1741.5,-164 1947.5,-164 1947.5,-164 1953.5,-164 1959.5,-170 1959.5,-176 1959.5,-176 1959.5,-190 1959.5,-190 1959.5,-196 1953.5,-202 1947.5,-202"/>
<text text-anchor="middle" x="1844.5" y="-186.8" font-family="Times,serif" font-size="14.00">comp 1</text>
<text text-anchor="middle" x="1844.5" y="-171.8" font-family="Times,serif" font-size="14.00">log gamma2: 1.467168 &#160;&#160;n kernels: &#45;64</text>
</g>
<!-- 2&#45;&gt;9 -->
<g id="edge9" class="edge"><title>2&#45;&gt;9</title>
<path fill="none" stroke="black" d="M2230.99,-271.802C2173.28,-259.825 2106.15,-245.599 2045.5,-232 2006.78,-223.318 1964,-213.179 1927.89,-204.462"/>
<polygon fill="black" stroke="black" points="1928.44,-200.992 1917.9,-202.043 1926.79,-207.796 1928.44,-200.992"/>
</g>
<!-- 10 -->
<g id="node11" class="node"><title>10</title>
<path fill="#abcece" stroke="black" d="M2192,-202C2192,-202 2067,-202 2067,-202 2061,-202 2055,-196 2055,-190 2055,-190 2055,-176 2055,-176 2055,-170 2061,-164 2067,-164 2067,-164 2192,-164 2192,-164 2198,-164 2204,-170 2204,-176 2204,-176 2204,-190 2204,-190 2204,-196 2198,-202 2192,-202"/>
<text text-anchor="middle" x="2129.5" y="-186.8" font-family="Times,serif" font-size="14.00">comp 2</text>
<text text-anchor="middle" x="2129.5" y="-171.8" font-family="Times,serif" font-size="14.00">log gamma2: &#45;0.963897</text>
</g>
<!-- 2&#45;&gt;10 -->
<g id="edge10" class="edge"><title>2&#45;&gt;10</title>
<path fill="none" stroke="black" d="M2305.28,-267.942C2264.23,-248.34 2213.27,-224.005 2176.81,-206.592"/>
<polygon fill="black" stroke="black" points="2177.93,-203.249 2167.4,-202.098 2174.91,-209.566 2177.93,-203.249"/>
</g>
<!-- 11 -->
<g id="node12" class="node"><title>11</title>
<path fill="#97b6b6" stroke="black" d="M2437,-202C2437,-202 2312,-202 2312,-202 2306,-202 2300,-196 2300,-190 2300,-190 2300,-176 2300,-176 2300,-170 2306,-164 2312,-164 2312,-164 2437,-164 2437,-164 2443,-164 2449,-170 2449,-176 2449,-176 2449,-190 2449,-190 2449,-196 2443,-202 2437,-202"/>
<text text-anchor="middle" x="2374.5" y="-186.8" font-family="Times,serif" font-size="14.00">comp 3</text>
<text text-anchor="middle" x="2374.5" y="-171.8" font-family="Times,serif" font-size="14.00">log gamma2: &#45;0.850465</text>
</g>
<!-- 2&#45;&gt;11 -->
<g id="edge11" class="edge"><title>2&#45;&gt;11</title>
<path fill="none" stroke="black" d="M2374.5,-267.785C2374.5,-250.273 2374.5,-229.017 2374.5,-212.296"/>
<polygon fill="black" stroke="black" points="2378,-212.049 2374.5,-202.049 2371,-212.049 2378,-212.049"/>
</g>
<!-- 12 -->
<g id="node13" class="node"><title>12</title>
<path fill="#839e9e" stroke="black" d="M2690,-202C2690,-202 2479,-202 2479,-202 2473,-202 2467,-196 2467,-190 2467,-190 2467,-176 2467,-176 2467,-170 2473,-164 2479,-164 2479,-164 2690,-164 2690,-164 2696,-164 2702,-170 2702,-176 2702,-176 2702,-190 2702,-190 2702,-196 2696,-202 2690,-202"/>
<text text-anchor="middle" x="2584.5" y="-186.8" font-family="Times,serif" font-size="14.00">comp 4</text>
<text text-anchor="middle" x="2584.5" y="-171.8" font-family="Times,serif" font-size="14.00">log gamma2: &#45;0.740667 &#160;&#160;n kernels: &#45;64</text>
</g>
<!-- 2&#45;&gt;12 -->
<g id="edge12" class="edge"><title>2&#45;&gt;12</title>
<path fill="none" stroke="black" d="M2433.84,-267.942C2468.72,-248.507 2511.95,-224.419 2543.15,-207.038"/>
<polygon fill="black" stroke="black" points="2544.98,-210.022 2552.02,-202.098 2541.58,-203.907 2544.98,-210.022"/>
</g>
<!-- 13 -->
<g id="node14" class="node"><title>13</title>
<path fill="#6f8585" stroke="black" d="M2857,-202C2857,-202 2732,-202 2732,-202 2726,-202 2720,-196 2720,-190 2720,-190 2720,-176 2720,-176 2720,-170 2726,-164 2732,-164 2732,-164 2857,-164 2857,-164 2863,-164 2869,-170 2869,-176 2869,-176 2869,-190 2869,-190 2869,-196 2863,-202 2857,-202"/>
<text text-anchor="middle" x="2794.5" y="-186.8" font-family="Times,serif" font-size="14.00">comp 5</text>
<text text-anchor="middle" x="2794.5" y="-171.8" font-family="Times,serif" font-size="14.00">log gamma1: &#45;1.858923</text>
</g>
<!-- 2&#45;&gt;13 -->
<g id="edge13" class="edge"><title>2&#45;&gt;13</title>
<path fill="none" stroke="black" d="M2518.32,-281.765C2578.88,-271.047 2649.35,-255.075 2710.5,-232 2727.29,-225.665 2744.69,-216.258 2759.27,-207.447"/>
<polygon fill="black" stroke="black" points="2761.3,-210.31 2767.96,-202.071 2757.61,-204.359 2761.3,-210.31"/>
</g>
<!-- 14 -->
<g id="node15" class="node"><title>14</title>
<path fill="#5b6d6d" stroke="black" d="M3038,-202C3038,-202 2899,-202 2899,-202 2893,-202 2887,-196 2887,-190 2887,-190 2887,-176 2887,-176 2887,-170 2893,-164 2899,-164 2899,-164 3038,-164 3038,-164 3044,-164 3050,-170 3050,-176 3050,-176 3050,-190 3050,-190 3050,-196 3044,-202 3038,-202"/>
<text text-anchor="middle" x="2968.5" y="-186.8" font-family="Times,serif" font-size="14.00">path end 1</text>
<text text-anchor="middle" x="2968.5" y="-171.8" font-family="Times,serif" font-size="14.00">k width: &#45;2 &#160;&#160;n kernels: &#45;96</text>
</g>
<!-- 2&#45;&gt;14 -->
<g id="edge14" class="edge"><title>2&#45;&gt;14</title>
<path fill="none" stroke="black" d="M2518.09,-294.608C2620.34,-286.873 2759.91,-269.779 2877.5,-232 2896.12,-226.017 2915.46,-216.37 2931.5,-207.287"/>
<polygon fill="black" stroke="black" points="2933.65,-210.089 2940.53,-202.037 2930.13,-204.037 2933.65,-210.089"/>
</g>
<!-- 15 -->
<g id="node16" class="node"><title>15</title>
<path fill="#d3ffff" stroke="black" d="M3361,-232C3361,-232 3080,-232 3080,-232 3074,-232 3068,-226 3068,-220 3068,-220 3068,-146 3068,-146 3068,-140 3074,-134 3080,-134 3080,-134 3361,-134 3361,-134 3367,-134 3373,-140 3373,-146 3373,-146 3373,-220 3373,-220 3373,-226 3367,-232 3361,-232"/>
<text text-anchor="middle" x="3220.5" y="-216.8" font-family="Times,serif" font-size="14.00">forward</text>
<text text-anchor="middle" x="3220.5" y="-201.8" font-family="Times,serif" font-size="14.00">CB0/C3</text>
<text text-anchor="middle" x="3220.5" y="-186.8" font-family="Times,serif" font-size="14.00">dilation rate: 1 &#160;&#160;k width: 3</text>
<text text-anchor="middle" x="3220.5" y="-171.8" font-family="Times,serif" font-size="14.00">log gamma1: &#45;11.000000 &#160;&#160;log gamma2: &#45;11.000000</text>
<text text-anchor="middle" x="3220.5" y="-156.8" font-family="Times,serif" font-size="14.00">log lambda1: &#45;11.000000 &#160;&#160;log lambda2: &#45;11.000000</text>
<text text-anchor="middle" x="3220.5" y="-141.8" font-family="Times,serif" font-size="14.00">n kernels: 64</text>
</g>
<!-- 3&#45;&gt;15 -->
<g id="edge15" class="edge"><title>3&#45;&gt;15</title>
<path fill="none" stroke="black" d="M3220.5,-283.987C3220.5,-272.809 3220.5,-257.468 3220.5,-242.158"/>
<polygon fill="black" stroke="black" points="3224,-242.146 3220.5,-232.146 3217,-242.146 3224,-242.146"/>
</g>
<!-- 16 -->
<g id="node17" class="node"><title>16</title>
<path fill="#bfe6e6" stroke="black" d="M3684,-232C3684,-232 3403,-232 3403,-232 3397,-232 3391,-226 3391,-220 3391,-220 3391,-146 3391,-146 3391,-140 3397,-134 3403,-134 3403,-134 3684,-134 3684,-134 3690,-134 3696,-140 3696,-146 3696,-146 3696,-220 3696,-220 3696,-226 3690,-232 3684,-232"/>
<text text-anchor="middle" x="3543.5" y="-216.8" font-family="Times,serif" font-size="14.00">residual 1</text>
<text text-anchor="middle" x="3543.5" y="-201.8" font-family="Times,serif" font-size="14.00">CB1/PE1</text>
<text text-anchor="middle" x="3543.5" y="-186.8" font-family="Times,serif" font-size="14.00">dilation rate: 1 &#160;&#160;k width: 3</text>
<text text-anchor="middle" x="3543.5" y="-171.8" font-family="Times,serif" font-size="14.00">log gamma1: &#45;11.000000 &#160;&#160;log gamma2: &#45;11.000000</text>
<text text-anchor="middle" x="3543.5" y="-156.8" font-family="Times,serif" font-size="14.00">log lambda1: &#45;11.000000 &#160;&#160;log lambda2: &#45;11.000000</text>
<text text-anchor="middle" x="3543.5" y="-141.8" font-family="Times,serif" font-size="14.00">n kernels: 64</text>
</g>
<!-- 3&#45;&gt;16 -->
<g id="edge16" class="edge"><title>3&#45;&gt;16</title>
<path fill="none" stroke="black" d="M3266.09,-284.485C3301.47,-271.67 3352.53,-253.175 3401.23,-235.536"/>
<polygon fill="black" stroke="black" points="3402.72,-238.718 3410.93,-232.022 3400.33,-232.137 3402.72,-238.718"/>
</g>
<!-- 17 -->
<g id="node18" class="node"><title>17</title>
<path fill="#e9d3ff" stroke="black" d="M293,-98C293,-98 12,-98 12,-98 6,-98 0,-92 0,-86 0,-86 0,-12 0,-12 0,-6 6,-0 12,-0 12,-0 293,-0 293,-0 299,-0 305,-6 305,-12 305,-12 305,-86 305,-86 305,-92 299,-98 293,-98"/>
<text text-anchor="middle" x="152.5" y="-82.8" font-family="Times,serif" font-size="14.00">forward</text>
<text text-anchor="middle" x="152.5" y="-67.8" font-family="Times,serif" font-size="14.00">input</text>
<text text-anchor="middle" x="152.5" y="-52.8" font-family="Times,serif" font-size="14.00">dilation rate: 1 &#160;&#160;k width: 3</text>
<text text-anchor="middle" x="152.5" y="-37.8" font-family="Times,serif" font-size="14.00">log gamma1: &#45;11.000000 &#160;&#160;log gamma2: &#45;11.000000</text>
<text text-anchor="middle" x="152.5" y="-22.8" font-family="Times,serif" font-size="14.00">log lambda1: &#45;11.000000 &#160;&#160;log lambda2: &#45;11.000000</text>
<text text-anchor="middle" x="152.5" y="-7.8" font-family="Times,serif" font-size="14.00">n kernels: 64</text>
</g>
<!-- 4&#45;&gt;17 -->
<g id="edge17" class="edge"><title>4&#45;&gt;17</title>
<path fill="none" stroke="black" d="M208.598,-163.923C201.36,-149.223 190.732,-127.641 180.669,-107.205"/>
<polygon fill="black" stroke="black" points="183.809,-105.659 176.251,-98.2336 177.529,-108.751 183.809,-105.659"/>
</g>
<!-- 18 -->
<g id="node19" class="node"><title>18</title>
<path fill="#e9d3ff" stroke="black" d="M616,-98C616,-98 335,-98 335,-98 329,-98 323,-92 323,-86 323,-86 323,-12 323,-12 323,-6 329,-0 335,-0 335,-0 616,-0 616,-0 622,-0 628,-6 628,-12 628,-12 628,-86 628,-86 628,-92 622,-98 616,-98"/>
<text text-anchor="middle" x="475.5" y="-82.8" font-family="Times,serif" font-size="14.00">forward</text>
<text text-anchor="middle" x="475.5" y="-67.8" font-family="Times,serif" font-size="14.00">CB0/C0</text>
<text text-anchor="middle" x="475.5" y="-52.8" font-family="Times,serif" font-size="14.00">dilation rate: 1 &#160;&#160;k width: 3</text>
<text text-anchor="middle" x="475.5" y="-37.8" font-family="Times,serif" font-size="14.00">log gamma1: &#45;11.000000 &#160;&#160;log gamma2: &#45;11.000000</text>
<text text-anchor="middle" x="475.5" y="-22.8" font-family="Times,serif" font-size="14.00">log lambda1: &#45;11.000000 &#160;&#160;log lambda2: &#45;11.000000</text>
<text text-anchor="middle" x="475.5" y="-7.8" font-family="Times,serif" font-size="14.00">n kernels: 64</text>
</g>
<!-- 5&#45;&gt;18 -->
<g id="edge18" class="edge"><title>5&#45;&gt;18</title>
<path fill="none" stroke="black" d="M512.611,-163.923C507.865,-149.355 500.918,-128.028 494.314,-107.755"/>
<polygon fill="black" stroke="black" points="497.638,-106.658 491.212,-98.2336 490.982,-108.826 497.638,-106.658"/>
</g>
<!-- 19 -->
<g id="node20" class="node"><title>19</title>
<path fill="#e9d3ff" stroke="black" d="M939,-98C939,-98 658,-98 658,-98 652,-98 646,-92 646,-86 646,-86 646,-12 646,-12 646,-6 652,-0 658,-0 658,-0 939,-0 939,-0 945,-0 951,-6 951,-12 951,-12 951,-86 951,-86 951,-92 945,-98 939,-98"/>
<text text-anchor="middle" x="798.5" y="-82.8" font-family="Times,serif" font-size="14.00">forward</text>
<text text-anchor="middle" x="798.5" y="-67.8" font-family="Times,serif" font-size="14.00">CB0/C1</text>
<text text-anchor="middle" x="798.5" y="-52.8" font-family="Times,serif" font-size="14.00">dilation rate: 1 &#160;&#160;k width: 3</text>
<text text-anchor="middle" x="798.5" y="-37.8" font-family="Times,serif" font-size="14.00">log gamma1: &#45;11.000000 &#160;&#160;log gamma2: &#45;11.000000</text>
<text text-anchor="middle" x="798.5" y="-22.8" font-family="Times,serif" font-size="14.00">log lambda1: &#45;11.000000 &#160;&#160;log lambda2: &#45;11.000000</text>
<text text-anchor="middle" x="798.5" y="-7.8" font-family="Times,serif" font-size="14.00">n kernels: 64</text>
</g>
<!-- 6&#45;&gt;19 -->
<g id="edge19" class="edge"><title>6&#45;&gt;19</title>
<path fill="none" stroke="black" d="M798.5,-163.923C798.5,-149.486 798.5,-128.413 798.5,-108.306"/>
<polygon fill="black" stroke="black" points="802,-108.234 798.5,-98.2336 795,-108.234 802,-108.234"/>
</g>
<!-- 20 -->
<g id="node21" class="node"><title>20</title>
<path fill="#e9d3ff" stroke="black" d="M1262,-98C1262,-98 981,-98 981,-98 975,-98 969,-92 969,-86 969,-86 969,-12 969,-12 969,-6 975,-0 981,-0 981,-0 1262,-0 1262,-0 1268,-0 1274,-6 1274,-12 1274,-12 1274,-86 1274,-86 1274,-92 1268,-98 1262,-98"/>
<text text-anchor="middle" x="1121.5" y="-82.8" font-family="Times,serif" font-size="14.00">forward</text>
<text text-anchor="middle" x="1121.5" y="-67.8" font-family="Times,serif" font-size="14.00">CB0/C2</text>
<text text-anchor="middle" x="1121.5" y="-52.8" font-family="Times,serif" font-size="14.00">dilation rate: 1 &#160;&#160;k width: 3</text>
<text text-anchor="middle" x="1121.5" y="-37.8" font-family="Times,serif" font-size="14.00">log gamma1: &#45;11.000000 &#160;&#160;log gamma2: &#45;11.000000</text>
<text text-anchor="middle" x="1121.5" y="-22.8" font-family="Times,serif" font-size="14.00">log lambda1: &#45;11.000000 &#160;&#160;log lambda2: &#45;11.000000</text>
<text text-anchor="middle" x="1121.5" y="-7.8" font-family="Times,serif" font-size="14.00">n kernels: 64</text>
</g>
<!-- 7&#45;&gt;20 -->
<g id="edge20" class="edge"><title>7&#45;&gt;20</title>
<path fill="none" stroke="black" d="M1041.24,-163.923C1051.69,-149.091 1067.07,-127.253 1081.58,-106.655"/>
<polygon fill="black" stroke="black" points="1084.62,-108.424 1087.52,-98.2336 1078.9,-104.393 1084.62,-108.424"/>
</g>
<!-- 21 -->
<g id="node22" class="node"><title>21</title>
<path fill="#e9d3ff" stroke="black" d="M1585,-98C1585,-98 1304,-98 1304,-98 1298,-98 1292,-92 1292,-86 1292,-86 1292,-12 1292,-12 1292,-6 1298,-0 1304,-0 1304,-0 1585,-0 1585,-0 1591,-0 1597,-6 1597,-12 1597,-12 1597,-86 1597,-86 1597,-92 1591,-98 1585,-98"/>
<text text-anchor="middle" x="1444.5" y="-82.8" font-family="Times,serif" font-size="14.00">forward</text>
<text text-anchor="middle" x="1444.5" y="-67.8" font-family="Times,serif" font-size="14.00">input</text>
<text text-anchor="middle" x="1444.5" y="-52.8" font-family="Times,serif" font-size="14.00">dilation rate: 1 &#160;&#160;k width: 3</text>
<text text-anchor="middle" x="1444.5" y="-37.8" font-family="Times,serif" font-size="14.00">log gamma1: &#45;11.000000 &#160;&#160;log gamma2: &#45;11.000000</text>
<text text-anchor="middle" x="1444.5" y="-22.8" font-family="Times,serif" font-size="14.00">log lambda1: &#45;11.000000 &#160;&#160;log lambda2: &#45;11.000000</text>
<text text-anchor="middle" x="1444.5" y="-7.8" font-family="Times,serif" font-size="14.00">n kernels: 64</text>
</g>
<!-- 8&#45;&gt;21 -->
<g id="edge21" class="edge"><title>8&#45;&gt;21</title>
<path fill="none" stroke="black" d="M1508.37,-163.923C1500.12,-149.223 1488.03,-127.641 1476.57,-107.205"/>
<polygon fill="black" stroke="black" points="1479.48,-105.245 1471.54,-98.2336 1473.38,-108.668 1479.48,-105.245"/>
</g>
<!-- 22 -->
<g id="node23" class="node"><title>22</title>
<path fill="#e9d3ff" stroke="black" d="M1908,-98C1908,-98 1627,-98 1627,-98 1621,-98 1615,-92 1615,-86 1615,-86 1615,-12 1615,-12 1615,-6 1621,-0 1627,-0 1627,-0 1908,-0 1908,-0 1914,-0 1920,-6 1920,-12 1920,-12 1920,-86 1920,-86 1920,-92 1914,-98 1908,-98"/>
<text text-anchor="middle" x="1767.5" y="-82.8" font-family="Times,serif" font-size="14.00">forward</text>
<text text-anchor="middle" x="1767.5" y="-67.8" font-family="Times,serif" font-size="14.00">CB1/C0</text>
<text text-anchor="middle" x="1767.5" y="-52.8" font-family="Times,serif" font-size="14.00">dilation rate: 1 &#160;&#160;k width: 3</text>
<text text-anchor="middle" x="1767.5" y="-37.8" font-family="Times,serif" font-size="14.00">log gamma1: &#45;11.000000 &#160;&#160;log gamma2: &#45;11.000000</text>
<text text-anchor="middle" x="1767.5" y="-22.8" font-family="Times,serif" font-size="14.00">log lambda1: &#45;11.000000 &#160;&#160;log lambda2: &#45;11.000000</text>
<text text-anchor="middle" x="1767.5" y="-7.8" font-family="Times,serif" font-size="14.00">n kernels: 64</text>
</g>
<!-- 9&#45;&gt;22 -->
<g id="edge22" class="edge"><title>9&#45;&gt;22</title>
<path fill="none" stroke="black" d="M1833.95,-163.923C1825.34,-149.157 1812.68,-127.447 1800.71,-106.93"/>
<polygon fill="black" stroke="black" points="1803.7,-105.108 1795.64,-98.2336 1797.65,-108.635 1803.7,-105.108"/>
</g>
<!-- 23 -->
<g id="node24" class="node"><title>23</title>
<path fill="#e9d3ff" stroke="black" d="M2231,-98C2231,-98 1950,-98 1950,-98 1944,-98 1938,-92 1938,-86 1938,-86 1938,-12 1938,-12 1938,-6 1944,-0 1950,-0 1950,-0 2231,-0 2231,-0 2237,-0 2243,-6 2243,-12 2243,-12 2243,-86 2243,-86 2243,-92 2237,-98 2231,-98"/>
<text text-anchor="middle" x="2090.5" y="-82.8" font-family="Times,serif" font-size="14.00">forward</text>
<text text-anchor="middle" x="2090.5" y="-67.8" font-family="Times,serif" font-size="14.00">CB1/C1</text>
<text text-anchor="middle" x="2090.5" y="-52.8" font-family="Times,serif" font-size="14.00">dilation rate: 1 &#160;&#160;k width: 3</text>
<text text-anchor="middle" x="2090.5" y="-37.8" font-family="Times,serif" font-size="14.00">log gamma1: &#45;11.000000 &#160;&#160;log gamma2: &#45;11.000000</text>
<text text-anchor="middle" x="2090.5" y="-22.8" font-family="Times,serif" font-size="14.00">log lambda1: &#45;11.000000 &#160;&#160;log lambda2: &#45;11.000000</text>
<text text-anchor="middle" x="2090.5" y="-7.8" font-family="Times,serif" font-size="14.00">n kernels: 64</text>
</g>
<!-- 10&#45;&gt;23 -->
<g id="edge23" class="edge"><title>10&#45;&gt;23</title>
<path fill="none" stroke="black" d="M2124.16,-163.923C2119.87,-149.42 2113.61,-128.221 2107.65,-108.03"/>
<polygon fill="black" stroke="black" points="2110.94,-106.832 2104.75,-98.2336 2104.23,-108.816 2110.94,-106.832"/>
</g>
<!-- 24 -->
<g id="node25" class="node"><title>24</title>
<path fill="#e9d3ff" stroke="black" d="M2554,-98C2554,-98 2273,-98 2273,-98 2267,-98 2261,-92 2261,-86 2261,-86 2261,-12 2261,-12 2261,-6 2267,-0 2273,-0 2273,-0 2554,-0 2554,-0 2560,-0 2566,-6 2566,-12 2566,-12 2566,-86 2566,-86 2566,-92 2560,-98 2554,-98"/>
<text text-anchor="middle" x="2413.5" y="-82.8" font-family="Times,serif" font-size="14.00">forward</text>
<text text-anchor="middle" x="2413.5" y="-67.8" font-family="Times,serif" font-size="14.00">CB1/C2</text>
<text text-anchor="middle" x="2413.5" y="-52.8" font-family="Times,serif" font-size="14.00">dilation rate: 1 &#160;&#160;k width: 3</text>
<text text-anchor="middle" x="2413.5" y="-37.8" font-family="Times,serif" font-size="14.00">log gamma1: &#45;11.000000 &#160;&#160;log gamma2: &#45;11.000000</text>
<text text-anchor="middle" x="2413.5" y="-22.8" font-family="Times,serif" font-size="14.00">log lambda1: &#45;11.000000 &#160;&#160;log lambda2: &#45;11.000000</text>
<text text-anchor="middle" x="2413.5" y="-7.8" font-family="Times,serif" font-size="14.00">n kernels: 64</text>
</g>
<!-- 11&#45;&gt;24 -->
<g id="edge24" class="edge"><title>11&#45;&gt;24</title>
<path fill="none" stroke="black" d="M2379.84,-163.923C2384.13,-149.42 2390.39,-128.221 2396.35,-108.03"/>
<polygon fill="black" stroke="black" points="2399.77,-108.816 2399.25,-98.2336 2393.06,-106.832 2399.77,-108.816"/>
</g>
<!-- 25 -->
<g id="node26" class="node"><title>25</title>
<path fill="#e9d3ff" stroke="black" d="M2877,-98C2877,-98 2596,-98 2596,-98 2590,-98 2584,-92 2584,-86 2584,-86 2584,-12 2584,-12 2584,-6 2590,-0 2596,-0 2596,-0 2877,-0 2877,-0 2883,-0 2889,-6 2889,-12 2889,-12 2889,-86 2889,-86 2889,-92 2883,-98 2877,-98"/>
<text text-anchor="middle" x="2736.5" y="-82.8" font-family="Times,serif" font-size="14.00">forward</text>
<text text-anchor="middle" x="2736.5" y="-67.8" font-family="Times,serif" font-size="14.00">CB1/C3</text>
<text text-anchor="middle" x="2736.5" y="-52.8" font-family="Times,serif" font-size="14.00">dilation rate: 1 &#160;&#160;k width: 3</text>
<text text-anchor="middle" x="2736.5" y="-37.8" font-family="Times,serif" font-size="14.00">log gamma1: &#45;11.000000 &#160;&#160;log gamma2: &#45;11.000000</text>
<text text-anchor="middle" x="2736.5" y="-22.8" font-family="Times,serif" font-size="14.00">log lambda1: &#45;11.000000 &#160;&#160;log lambda2: &#45;11.000000</text>
<text text-anchor="middle" x="2736.5" y="-7.8" font-family="Times,serif" font-size="14.00">n kernels: 64</text>
</g>
<!-- 12&#45;&gt;25 -->
<g id="edge25" class="edge"><title>12&#45;&gt;25</title>
<path fill="none" stroke="black" d="M2605.32,-163.923C2622.85,-148.695 2648.89,-126.084 2673.15,-105.01"/>
<polygon fill="black" stroke="black" points="2675.7,-107.433 2680.96,-98.2336 2671.11,-102.148 2675.7,-107.433"/>
</g>
<!-- 26 -->
<g id="node27" class="node"><title>26</title>
<path fill="#e9d3ff" stroke="black" d="M3200,-98C3200,-98 2919,-98 2919,-98 2913,-98 2907,-92 2907,-86 2907,-86 2907,-12 2907,-12 2907,-6 2913,-0 2919,-0 2919,-0 3200,-0 3200,-0 3206,-0 3212,-6 3212,-12 3212,-12 3212,-86 3212,-86 3212,-92 3206,-98 3200,-98"/>
<text text-anchor="middle" x="3059.5" y="-82.8" font-family="Times,serif" font-size="14.00">forward</text>
<text text-anchor="middle" x="3059.5" y="-67.8" font-family="Times,serif" font-size="14.00">CB1/C4</text>
<text text-anchor="middle" x="3059.5" y="-52.8" font-family="Times,serif" font-size="14.00">dilation rate: 1 &#160;&#160;k width: 3</text>
<text text-anchor="middle" x="3059.5" y="-37.8" font-family="Times,serif" font-size="14.00">log gamma1: &#45;11.000000 &#160;&#160;log gamma2: &#45;11.000000</text>
<text text-anchor="middle" x="3059.5" y="-22.8" font-family="Times,serif" font-size="14.00">log lambda1: &#45;11.000000 &#160;&#160;log lambda2: &#45;11.000000</text>
<text text-anchor="middle" x="3059.5" y="-7.8" font-family="Times,serif" font-size="14.00">n kernels: 64</text>
</g>
<!-- 13&#45;&gt;26 -->
<g id="edge26" class="edge"><title>13&#45;&gt;26</title>
<path fill="none" stroke="black" d="M2824.1,-163.998C2839.78,-154.688 2859.47,-143.348 2877.5,-134 2898.04,-123.347 2920.2,-112.56 2941.73,-102.428"/>
<polygon fill="black" stroke="black" points="2943.35,-105.538 2950.92,-98.1286 2940.38,-99.198 2943.35,-105.538"/>
</g>
<!-- 27 -->
<g id="node28" class="node"><title>27</title>
<path fill="#e9d3ff" stroke="black" d="M3523,-98C3523,-98 3242,-98 3242,-98 3236,-98 3230,-92 3230,-86 3230,-86 3230,-12 3230,-12 3230,-6 3236,-0 3242,-0 3242,-0 3523,-0 3523,-0 3529,-0 3535,-6 3535,-12 3535,-12 3535,-86 3535,-86 3535,-92 3529,-98 3523,-98"/>
<text text-anchor="middle" x="3382.5" y="-82.8" font-family="Times,serif" font-size="14.00">forward</text>
<text text-anchor="middle" x="3382.5" y="-67.8" font-family="Times,serif" font-size="14.00">CB1/C5</text>
<text text-anchor="middle" x="3382.5" y="-52.8" font-family="Times,serif" font-size="14.00">dilation rate: 1 &#160;&#160;k width: 3</text>
<text text-anchor="middle" x="3382.5" y="-37.8" font-family="Times,serif" font-size="14.00">log gamma1: &#45;11.000000 &#160;&#160;log gamma2: &#45;11.000000</text>
<text text-anchor="middle" x="3382.5" y="-22.8" font-family="Times,serif" font-size="14.00">log lambda1: &#45;11.000000 &#160;&#160;log lambda2: &#45;11.000000</text>
<text text-anchor="middle" x="3382.5" y="-7.8" font-family="Times,serif" font-size="14.00">n kernels: 64</text>
</g>
<!-- 14&#45;&gt;27 -->
<g id="edge27" class="edge"><title>14&#45;&gt;27</title>
<path fill="none" stroke="black" d="M2997.56,-163.898C3014.74,-153.864 3037.24,-141.864 3058.5,-134 3124.7,-109.51 3147.17,-115.856 3219.85,-98.0664"/>
<polygon fill="black" stroke="black" points="3221.11,-101.358 3229.95,-95.5194 3219.4,-94.5704 3221.11,-101.358"/>
</g>
</g>
</svg>
