<?xml version="1.0" encoding="UTF-8" standalone="no"?>
<!DOCTYPE svg PUBLIC "-//W3C//DTD SVG 1.1//EN"
 "http://www.w3.org/Graphics/SVG/1.1/DTD/svg11.dtd">
<!-- Generated by graphviz version 2.38.0 (20140413.2041)
 -->
<!-- Title: %3 Pages: 1 -->
<svg width="2698pt" height="402pt"
 viewBox="0.00 0.00 2697.50 402.00" xmlns="http://www.w3.org/2000/svg" xmlns:xlink="http://www.w3.org/1999/xlink">
<g id="graph0" class="graph" transform="scale(1 1) rotate(0) translate(4 398)">
<title>%3</title>
<polygon fill="none" stroke="none" points="-4,4 -4,-398 2693.5,-398 2693.5,4 -4,4"/>
<!-- 0 -->
<g id="node1" class="node"><title>0</title>
<path fill="#ffd3d3" stroke="black" d="M1399.5,-394C1399.5,-394 1329.5,-394 1329.5,-394 1323.5,-394 1317.5,-388 1317.5,-382 1317.5,-382 1317.5,-368 1317.5,-368 1317.5,-362 1323.5,-356 1329.5,-356 1329.5,-356 1399.5,-356 1399.5,-356 1405.5,-356 1411.5,-362 1411.5,-368 1411.5,-368 1411.5,-382 1411.5,-382 1411.5,-388 1405.5,-394 1399.5,-394"/>
<text text-anchor="middle" x="1364.5" y="-378.8" font-family="Times,serif" font-size="14.00">net</text>
<text text-anchor="middle" x="1364.5" y="-363.8" font-family="Times,serif" font-size="14.00">n kernels: 212</text>
</g>
<!-- 1 -->
<g id="node2" class="node"><title>1</title>
<path fill="#f6ffd3" stroke="black" d="M1134,-320C1134,-320 875,-320 875,-320 869,-320 863,-314 863,-308 863,-308 863,-279 863,-279 863,-273 869,-267 875,-267 875,-267 1134,-267 1134,-267 1140,-267 1146,-273 1146,-279 1146,-279 1146,-308 1146,-308 1146,-314 1140,-320 1134,-320"/>
<text text-anchor="middle" x="1004.5" y="-304.8" font-family="Times,serif" font-size="14.00">encoder</text>
<text text-anchor="middle" x="1004.5" y="-289.8" font-family="Times,serif" font-size="14.00">log gamma1: 0.194032 &#160;&#160;log gamma2: 0.429528</text>
<text text-anchor="middle" x="1004.5" y="-274.8" font-family="Times,serif" font-size="14.00">pooling type: 1</text>
</g>
<!-- 0&#45;&gt;1 -->
<g id="edge1" class="edge"><title>0&#45;&gt;1</title>
<path fill="none" stroke="black" d="M1317.44,-363.607C1270.03,-353.138 1194.83,-336.531 1130.03,-322.221"/>
<polygon fill="black" stroke="black" points="1130.66,-318.775 1120.14,-320.036 1129.15,-325.61 1130.66,-318.775"/>
</g>
<!-- 2 -->
<g id="node3" class="node"><title>2</title>
<path fill="#f6ffd3" stroke="black" d="M1828.5,-320C1828.5,-320 1622.5,-320 1622.5,-320 1616.5,-320 1610.5,-314 1610.5,-308 1610.5,-308 1610.5,-279 1610.5,-279 1610.5,-273 1616.5,-267 1622.5,-267 1622.5,-267 1828.5,-267 1828.5,-267 1834.5,-267 1840.5,-273 1840.5,-279 1840.5,-279 1840.5,-308 1840.5,-308 1840.5,-314 1834.5,-320 1828.5,-320"/>
<text text-anchor="middle" x="1725.5" y="-304.8" font-family="Times,serif" font-size="14.00">decoder</text>
<text text-anchor="middle" x="1725.5" y="-289.8" font-family="Times,serif" font-size="14.00">log gamma2: 0.023413 &#160;&#160;n kernels: &#45;10</text>
<text text-anchor="middle" x="1725.5" y="-274.8" font-family="Times,serif" font-size="14.00">pooling type: 1</text>
</g>
<!-- 0&#45;&gt;2 -->
<g id="edge2" class="edge"><title>0&#45;&gt;2</title>
<path fill="none" stroke="black" d="M1411.69,-363.607C1459.41,-353.098 1535.22,-336.404 1600.37,-322.057"/>
<polygon fill="black" stroke="black" points="1601.3,-325.436 1610.31,-319.867 1599.79,-318.6 1601.3,-325.436"/>
</g>
<!-- 3 -->
<g id="node4" class="node"><title>3</title>
<path fill="#d3ffe4" stroke="black" d="M535,-223.5C535,-223.5 324,-223.5 324,-223.5 318,-223.5 312,-217.5 312,-211.5 312,-211.5 312,-182.5 312,-182.5 312,-176.5 318,-170.5 324,-170.5 324,-170.5 535,-170.5 535,-170.5 541,-170.5 547,-176.5 547,-182.5 547,-182.5 547,-211.5 547,-211.5 547,-217.5 541,-223.5 535,-223.5"/>
<text text-anchor="middle" x="429.5" y="-208.3" font-family="Times,serif" font-size="14.00">encode block 0</text>
<text text-anchor="middle" x="429.5" y="-193.3" font-family="Times,serif" font-size="14.00">log gamma1: &#45;0.134110 &#160;&#160;n kernels: &#45;10</text>
<text text-anchor="middle" x="429.5" y="-178.3" font-family="Times,serif" font-size="14.00">pooling type: &#45;1</text>
</g>
<!-- 1&#45;&gt;3 -->
<g id="edge3" class="edge"><title>1&#45;&gt;3</title>
<path fill="none" stroke="black" d="M862.734,-269.201C769.3,-253.845 647.947,-233.901 557.454,-219.029"/>
<polygon fill="black" stroke="black" points="557.846,-215.546 547.411,-217.378 556.711,-222.454 557.846,-215.546"/>
</g>
<!-- 4 -->
<g id="node5" class="node"><title>4</title>
<path fill="#bfe6cf" stroke="black" d="M1110,-223.5C1110,-223.5 899,-223.5 899,-223.5 893,-223.5 887,-217.5 887,-211.5 887,-211.5 887,-182.5 887,-182.5 887,-176.5 893,-170.5 899,-170.5 899,-170.5 1110,-170.5 1110,-170.5 1116,-170.5 1122,-176.5 1122,-182.5 1122,-182.5 1122,-211.5 1122,-211.5 1122,-217.5 1116,-223.5 1110,-223.5"/>
<text text-anchor="middle" x="1004.5" y="-208.3" font-family="Times,serif" font-size="14.00">encode block 1</text>
<text text-anchor="middle" x="1004.5" y="-193.3" font-family="Times,serif" font-size="14.00">log gamma1: &#45;0.040907 &#160;&#160;n kernels: &#45;10</text>
<text text-anchor="middle" x="1004.5" y="-178.3" font-family="Times,serif" font-size="14.00">spatial scale: 1</text>
</g>
<!-- 1&#45;&gt;4 -->
<g id="edge4" class="edge"><title>1&#45;&gt;4</title>
<path fill="none" stroke="black" d="M1004.5,-266.677C1004.5,-256.573 1004.5,-244.809 1004.5,-233.903"/>
<polygon fill="black" stroke="black" points="1008,-233.791 1004.5,-223.791 1001,-233.791 1008,-233.791"/>
</g>
<!-- 5 -->
<g id="node6" class="node"><title>5</title>
<path fill="#d3ffe4" stroke="black" d="M1697,-231C1697,-231 1434,-231 1434,-231 1428,-231 1422,-225 1422,-219 1422,-219 1422,-175 1422,-175 1422,-169 1428,-163 1434,-163 1434,-163 1697,-163 1697,-163 1703,-163 1709,-169 1709,-175 1709,-175 1709,-219 1709,-219 1709,-225 1703,-231 1697,-231"/>
<text text-anchor="middle" x="1565.5" y="-215.8" font-family="Times,serif" font-size="14.00">decode block 2</text>
<text text-anchor="middle" x="1565.5" y="-200.8" font-family="Times,serif" font-size="14.00">log gamma1: 0.022906 &#160;&#160;log gamma2: &#45;0.498573</text>
<text text-anchor="middle" x="1565.5" y="-185.8" font-family="Times,serif" font-size="14.00">n kernels: 192 &#160;&#160;pooling type: 1</text>
<text text-anchor="middle" x="1565.5" y="-170.8" font-family="Times,serif" font-size="14.00">spatial scale: 2</text>
</g>
<!-- 2&#45;&gt;5 -->
<g id="edge5" class="edge"><title>2&#45;&gt;5</title>
<path fill="none" stroke="black" d="M1682.2,-266.927C1666.28,-257.524 1647.89,-246.66 1630.48,-236.376"/>
<polygon fill="black" stroke="black" points="1631.87,-233.135 1621.48,-231.063 1628.31,-239.162 1631.87,-233.135"/>
</g>
<!-- 6 -->
<g id="node7" class="node"><title>6</title>
<path fill="#bfe6cf" stroke="black" d="M2017,-223.5C2017,-223.5 1754,-223.5 1754,-223.5 1748,-223.5 1742,-217.5 1742,-211.5 1742,-211.5 1742,-182.5 1742,-182.5 1742,-176.5 1748,-170.5 1754,-170.5 1754,-170.5 2017,-170.5 2017,-170.5 2023,-170.5 2029,-176.5 2029,-182.5 2029,-182.5 2029,-211.5 2029,-211.5 2029,-217.5 2023,-223.5 2017,-223.5"/>
<text text-anchor="middle" x="1885.5" y="-208.3" font-family="Times,serif" font-size="14.00">decode block 1</text>
<text text-anchor="middle" x="1885.5" y="-193.3" font-family="Times,serif" font-size="14.00">log gamma1: &#45;0.446871 &#160;&#160;log gamma2: 0.092595</text>
<text text-anchor="middle" x="1885.5" y="-178.3" font-family="Times,serif" font-size="14.00">n kernels: 64 &#160;&#160;spatial scale: 1</text>
</g>
<!-- 2&#45;&gt;6 -->
<g id="edge6" class="edge"><title>2&#45;&gt;6</title>
<path fill="none" stroke="black" d="M1768.8,-266.927C1788.72,-255.161 1812.52,-241.106 1833.41,-228.765"/>
<polygon fill="black" stroke="black" points="1835.34,-231.693 1842.17,-223.594 1831.78,-225.665 1835.34,-231.693"/>
</g>
<!-- 7 -->
<g id="node8" class="node"><title>7</title>
<path fill="#abceb9" stroke="black" d="M2494,-223.5C2494,-223.5 2231,-223.5 2231,-223.5 2225,-223.5 2219,-217.5 2219,-211.5 2219,-211.5 2219,-182.5 2219,-182.5 2219,-176.5 2225,-170.5 2231,-170.5 2231,-170.5 2494,-170.5 2494,-170.5 2500,-170.5 2506,-176.5 2506,-182.5 2506,-182.5 2506,-211.5 2506,-211.5 2506,-217.5 2500,-223.5 2494,-223.5"/>
<text text-anchor="middle" x="2362.5" y="-208.3" font-family="Times,serif" font-size="14.00">decode block 0</text>
<text text-anchor="middle" x="2362.5" y="-193.3" font-family="Times,serif" font-size="14.00">log gamma1: &#45;0.191266 &#160;&#160;log gamma2: 0.241847</text>
<text text-anchor="middle" x="2362.5" y="-178.3" font-family="Times,serif" font-size="14.00">n kernels: 5</text>
</g>
<!-- 2&#45;&gt;7 -->
<g id="edge7" class="edge"><title>2&#45;&gt;7</title>
<path fill="none" stroke="black" d="M1840.86,-275.387C1943.87,-260.104 2095.55,-237.603 2208.82,-220.798"/>
<polygon fill="black" stroke="black" points="2209.6,-224.222 2218.97,-219.292 2208.57,-217.298 2209.6,-224.222"/>
</g>
<!-- 8 -->
<g id="node9" class="node"><title>8</title>
<path fill="#d3e4ff" stroke="black" d="M207,-119.5C207,-119.5 12,-119.5 12,-119.5 6,-119.5 -1.42109e-14,-113.5 -1.42109e-14,-107.5 -1.42109e-14,-107.5 -1.42109e-14,-93.5 -1.42109e-14,-93.5 -1.42109e-14,-87.5 6,-81.5 12,-81.5 12,-81.5 207,-81.5 207,-81.5 213,-81.5 219,-87.5 219,-93.5 219,-93.5 219,-107.5 219,-107.5 219,-113.5 213,-119.5 207,-119.5"/>
<text text-anchor="middle" x="109.5" y="-104.3" font-family="Times,serif" font-size="14.00">comp 0</text>
<text text-anchor="middle" x="109.5" y="-89.3" font-family="Times,serif" font-size="14.00">log gamma2: 0.019882 &#160;&#160;n kernels: 7</text>
</g>
<!-- 3&#45;&gt;8 -->
<g id="edge8" class="edge"><title>3&#45;&gt;8</title>
<path fill="none" stroke="black" d="M342.903,-170.427C291.992,-155.392 228.423,-136.619 180.487,-122.463"/>
<polygon fill="black" stroke="black" points="181.394,-119.082 170.812,-119.606 179.411,-125.795 181.394,-119.082"/>
</g>
<!-- 9 -->
<g id="node10" class="node"><title>9</title>
<path fill="#bfcfe6" stroke="black" d="M449.5,-119.5C449.5,-119.5 249.5,-119.5 249.5,-119.5 243.5,-119.5 237.5,-113.5 237.5,-107.5 237.5,-107.5 237.5,-93.5 237.5,-93.5 237.5,-87.5 243.5,-81.5 249.5,-81.5 249.5,-81.5 449.5,-81.5 449.5,-81.5 455.5,-81.5 461.5,-87.5 461.5,-93.5 461.5,-93.5 461.5,-107.5 461.5,-107.5 461.5,-113.5 455.5,-119.5 449.5,-119.5"/>
<text text-anchor="middle" x="349.5" y="-104.3" font-family="Times,serif" font-size="14.00">comp 1</text>
<text text-anchor="middle" x="349.5" y="-89.3" font-family="Times,serif" font-size="14.00">log gamma1: 0.300479 &#160;&#160;n kernels: &#45;4</text>
</g>
<!-- 3&#45;&gt;9 -->
<g id="edge9" class="edge"><title>3&#45;&gt;9</title>
<path fill="none" stroke="black" d="M407.64,-170.177C396.376,-156.872 382.678,-140.692 371.408,-127.378"/>
<polygon fill="black" stroke="black" points="373.88,-124.882 364.747,-119.511 368.537,-129.405 373.88,-124.882"/>
</g>
<!-- 10 -->
<g id="node11" class="node"><title>10</title>
<path fill="#abb9ce" stroke="black" d="M525.5,-118.5C525.5,-118.5 491.5,-118.5 491.5,-118.5 485.5,-118.5 479.5,-112.5 479.5,-106.5 479.5,-106.5 479.5,-94.5 479.5,-94.5 479.5,-88.5 485.5,-82.5 491.5,-82.5 491.5,-82.5 525.5,-82.5 525.5,-82.5 531.5,-82.5 537.5,-88.5 537.5,-94.5 537.5,-94.5 537.5,-106.5 537.5,-106.5 537.5,-112.5 531.5,-118.5 525.5,-118.5"/>
<text text-anchor="middle" x="508.5" y="-96.8" font-family="Times,serif" font-size="14.00">identity</text>
</g>
<!-- 3&#45;&gt;10 -->
<g id="edge10" class="edge"><title>3&#45;&gt;10</title>
<path fill="none" stroke="black" d="M451.087,-170.177C462.437,-156.601 476.29,-140.03 487.545,-126.567"/>
<polygon fill="black" stroke="black" points="490.442,-128.558 494.171,-118.641 485.072,-124.068 490.442,-128.558"/>
</g>
<!-- 11 -->
<g id="node12" class="node"><title>11</title>
<path fill="#d3e4ff" stroke="black" d="M831,-127C831,-127 568,-127 568,-127 562,-127 556,-121 556,-115 556,-115 556,-86 556,-86 556,-80 562,-74 568,-74 568,-74 831,-74 831,-74 837,-74 843,-80 843,-86 843,-86 843,-115 843,-115 843,-121 837,-127 831,-127"/>
<text text-anchor="middle" x="699.5" y="-111.8" font-family="Times,serif" font-size="14.00">comp 0</text>
<text text-anchor="middle" x="699.5" y="-96.8" font-family="Times,serif" font-size="14.00">log gamma1: 0.158748 &#160;&#160;log gamma2: &#45;0.142929</text>
<text text-anchor="middle" x="699.5" y="-81.8" font-family="Times,serif" font-size="14.00">n kernels: &#45;2</text>
</g>
<!-- 4&#45;&gt;11 -->
<g id="edge11" class="edge"><title>4&#45;&gt;11</title>
<path fill="none" stroke="black" d="M921.963,-170.427C881.618,-157.927 832.932,-142.842 791.405,-129.976"/>
<polygon fill="black" stroke="black" points="792.427,-126.628 781.839,-127.012 790.355,-133.314 792.427,-126.628"/>
</g>
<!-- 12 -->
<g id="node13" class="node"><title>12</title>
<path fill="#bfcfe6" stroke="black" d="M1136,-127C1136,-127 873,-127 873,-127 867,-127 861,-121 861,-115 861,-115 861,-86 861,-86 861,-80 867,-74 873,-74 873,-74 1136,-74 1136,-74 1142,-74 1148,-80 1148,-86 1148,-86 1148,-115 1148,-115 1148,-121 1142,-127 1136,-127"/>
<text text-anchor="middle" x="1004.5" y="-111.8" font-family="Times,serif" font-size="14.00">comp 1</text>
<text text-anchor="middle" x="1004.5" y="-96.8" font-family="Times,serif" font-size="14.00">log gamma1: &#45;0.321574 &#160;&#160;log gamma2: 0.439593</text>
<text text-anchor="middle" x="1004.5" y="-81.8" font-family="Times,serif" font-size="14.00">n kernels: 1</text>
</g>
<!-- 4&#45;&gt;12 -->
<g id="edge12" class="edge"><title>4&#45;&gt;12</title>
<path fill="none" stroke="black" d="M1004.5,-170.177C1004.5,-160.073 1004.5,-148.309 1004.5,-137.403"/>
<polygon fill="black" stroke="black" points="1008,-137.291 1004.5,-127.291 1001,-137.291 1008,-137.291"/>
</g>
<!-- 13 -->
<g id="node14" class="node"><title>13</title>
<path fill="#abb9ce" stroke="black" d="M1212.5,-118.5C1212.5,-118.5 1178.5,-118.5 1178.5,-118.5 1172.5,-118.5 1166.5,-112.5 1166.5,-106.5 1166.5,-106.5 1166.5,-94.5 1166.5,-94.5 1166.5,-88.5 1172.5,-82.5 1178.5,-82.5 1178.5,-82.5 1212.5,-82.5 1212.5,-82.5 1218.5,-82.5 1224.5,-88.5 1224.5,-94.5 1224.5,-94.5 1224.5,-106.5 1224.5,-106.5 1224.5,-112.5 1218.5,-118.5 1212.5,-118.5"/>
<text text-anchor="middle" x="1195.5" y="-96.8" font-family="Times,serif" font-size="14.00">identity</text>
</g>
<!-- 4&#45;&gt;13 -->
<g id="edge13" class="edge"><title>4&#45;&gt;13</title>
<path fill="none" stroke="black" d="M1066.56,-170.391C1094.53,-158.203 1127.67,-142.845 1156.5,-127 1158.25,-126.036 1160.03,-125.019 1161.82,-123.97"/>
<polygon fill="black" stroke="black" points="1163.98,-126.751 1170.67,-118.539 1160.32,-120.784 1163.98,-126.751"/>
</g>
<!-- 14 -->
<g id="node15" class="node"><title>14</title>
<path fill="#d3e4ff" stroke="black" d="M1478,-119.5C1478,-119.5 1255,-119.5 1255,-119.5 1249,-119.5 1243,-113.5 1243,-107.5 1243,-107.5 1243,-93.5 1243,-93.5 1243,-87.5 1249,-81.5 1255,-81.5 1255,-81.5 1478,-81.5 1478,-81.5 1484,-81.5 1490,-87.5 1490,-93.5 1490,-93.5 1490,-107.5 1490,-107.5 1490,-113.5 1484,-119.5 1478,-119.5"/>
<text text-anchor="middle" x="1366.5" y="-104.3" font-family="Times,serif" font-size="14.00">comp 0</text>
<text text-anchor="middle" x="1366.5" y="-89.3" font-family="Times,serif" font-size="14.00">log gamma1: &#45;0.053067 &#160;&#160;pooling type: &#45;1</text>
</g>
<!-- 5&#45;&gt;14 -->
<g id="edge14" class="edge"><title>5&#45;&gt;14</title>
<path fill="none" stroke="black" d="M1495.9,-162.948C1468.67,-150.017 1438.14,-135.521 1413.58,-123.858"/>
<polygon fill="black" stroke="black" points="1415.01,-120.664 1404.48,-119.535 1412.01,-126.987 1415.01,-120.664"/>
</g>
<!-- 15 -->
<g id="node16" class="node"><title>15</title>
<path fill="#bfcfe6" stroke="black" d="M1595,-119.5C1595,-119.5 1520,-119.5 1520,-119.5 1514,-119.5 1508,-113.5 1508,-107.5 1508,-107.5 1508,-93.5 1508,-93.5 1508,-87.5 1514,-81.5 1520,-81.5 1520,-81.5 1595,-81.5 1595,-81.5 1601,-81.5 1607,-87.5 1607,-93.5 1607,-93.5 1607,-107.5 1607,-107.5 1607,-113.5 1601,-119.5 1595,-119.5"/>
<text text-anchor="middle" x="1557.5" y="-104.3" font-family="Times,serif" font-size="14.00">comp 1</text>
<text text-anchor="middle" x="1557.5" y="-89.3" font-family="Times,serif" font-size="14.00">pooling type: 1</text>
</g>
<!-- 5&#45;&gt;15 -->
<g id="edge15" class="edge"><title>5&#45;&gt;15</title>
<path fill="none" stroke="black" d="M1562.7,-162.948C1561.79,-152.125 1560.78,-140.205 1559.89,-129.768"/>
<polygon fill="black" stroke="black" points="1563.36,-129.205 1559.03,-119.535 1556.38,-129.795 1563.36,-129.205"/>
</g>
<!-- 16 -->
<g id="node17" class="node"><title>16</title>
<path fill="#abb9ce" stroke="black" d="M1671.5,-118.5C1671.5,-118.5 1637.5,-118.5 1637.5,-118.5 1631.5,-118.5 1625.5,-112.5 1625.5,-106.5 1625.5,-106.5 1625.5,-94.5 1625.5,-94.5 1625.5,-88.5 1631.5,-82.5 1637.5,-82.5 1637.5,-82.5 1671.5,-82.5 1671.5,-82.5 1677.5,-82.5 1683.5,-88.5 1683.5,-94.5 1683.5,-94.5 1683.5,-106.5 1683.5,-106.5 1683.5,-112.5 1677.5,-118.5 1671.5,-118.5"/>
<text text-anchor="middle" x="1654.5" y="-96.8" font-family="Times,serif" font-size="14.00">identity</text>
</g>
<!-- 5&#45;&gt;16 -->
<g id="edge16" class="edge"><title>5&#45;&gt;16</title>
<path fill="none" stroke="black" d="M1596.63,-162.948C1608.03,-150.84 1620.73,-137.36 1631.32,-126.118"/>
<polygon fill="black" stroke="black" points="1633.96,-128.416 1638.27,-118.737 1628.86,-123.617 1633.96,-128.416"/>
</g>
<!-- 17 -->
<g id="node18" class="node"><title>17</title>
<path fill="#d3e4ff" stroke="black" d="M1749.5,-118.5C1749.5,-118.5 1715.5,-118.5 1715.5,-118.5 1709.5,-118.5 1703.5,-112.5 1703.5,-106.5 1703.5,-106.5 1703.5,-94.5 1703.5,-94.5 1703.5,-88.5 1709.5,-82.5 1715.5,-82.5 1715.5,-82.5 1749.5,-82.5 1749.5,-82.5 1755.5,-82.5 1761.5,-88.5 1761.5,-94.5 1761.5,-94.5 1761.5,-106.5 1761.5,-106.5 1761.5,-112.5 1755.5,-118.5 1749.5,-118.5"/>
<text text-anchor="middle" x="1732.5" y="-96.8" font-family="Times,serif" font-size="14.00">comp 0</text>
</g>
<!-- 6&#45;&gt;17 -->
<g id="edge17" class="edge"><title>6&#45;&gt;17</title>
<path fill="none" stroke="black" d="M1841.77,-170.466C1820.16,-157.672 1793.79,-141.789 1770.5,-127 1769.07,-126.092 1767.62,-125.159 1766.15,-124.211"/>
<polygon fill="black" stroke="black" points="1768.01,-121.246 1757.73,-118.688 1764.17,-127.099 1768.01,-121.246"/>
</g>
<!-- 18 -->
<g id="node19" class="node"><title>18</title>
<path fill="#bfcfe6" stroke="black" d="M1995.5,-127C1995.5,-127 1791.5,-127 1791.5,-127 1785.5,-127 1779.5,-121 1779.5,-115 1779.5,-115 1779.5,-86 1779.5,-86 1779.5,-80 1785.5,-74 1791.5,-74 1791.5,-74 1995.5,-74 1995.5,-74 2001.5,-74 2007.5,-80 2007.5,-86 2007.5,-86 2007.5,-115 2007.5,-115 2007.5,-121 2001.5,-127 1995.5,-127"/>
<text text-anchor="middle" x="1893.5" y="-111.8" font-family="Times,serif" font-size="14.00">comp 1</text>
<text text-anchor="middle" x="1893.5" y="-96.8" font-family="Times,serif" font-size="14.00">log gamma2: &#45;0.491783 &#160;&#160;n kernels: &#45;2</text>
<text text-anchor="middle" x="1893.5" y="-81.8" font-family="Times,serif" font-size="14.00">pooling type: 1</text>
</g>
<!-- 6&#45;&gt;18 -->
<g id="edge18" class="edge"><title>6&#45;&gt;18</title>
<path fill="none" stroke="black" d="M1887.69,-170.177C1888.54,-160.073 1889.54,-148.309 1890.46,-137.403"/>
<polygon fill="black" stroke="black" points="1893.96,-137.551 1891.32,-127.291 1886.99,-136.96 1893.96,-137.551"/>
</g>
<!-- 19 -->
<g id="node20" class="node"><title>19</title>
<path fill="#abb9ce" stroke="black" d="M2071.5,-118.5C2071.5,-118.5 2037.5,-118.5 2037.5,-118.5 2031.5,-118.5 2025.5,-112.5 2025.5,-106.5 2025.5,-106.5 2025.5,-94.5 2025.5,-94.5 2025.5,-88.5 2031.5,-82.5 2037.5,-82.5 2037.5,-82.5 2071.5,-82.5 2071.5,-82.5 2077.5,-82.5 2083.5,-88.5 2083.5,-94.5 2083.5,-94.5 2083.5,-106.5 2083.5,-106.5 2083.5,-112.5 2077.5,-118.5 2071.5,-118.5"/>
<text text-anchor="middle" x="2054.5" y="-96.8" font-family="Times,serif" font-size="14.00">identity</text>
</g>
<!-- 6&#45;&gt;19 -->
<g id="edge19" class="edge"><title>6&#45;&gt;19</title>
<path fill="none" stroke="black" d="M1937.21,-170.369C1961.6,-157.876 1990.89,-142.277 2016.5,-127 2018,-126.104 2019.52,-125.175 2021.06,-124.223"/>
<polygon fill="black" stroke="black" points="2023.27,-126.96 2029.81,-118.619 2019.5,-121.065 2023.27,-126.96"/>
</g>
<!-- 20 -->
<g id="node21" class="node"><title>20</title>
<path fill="#d3e4ff" stroke="black" d="M2377,-127C2377,-127 2114,-127 2114,-127 2108,-127 2102,-121 2102,-115 2102,-115 2102,-86 2102,-86 2102,-80 2108,-74 2114,-74 2114,-74 2377,-74 2377,-74 2383,-74 2389,-80 2389,-86 2389,-86 2389,-115 2389,-115 2389,-121 2383,-127 2377,-127"/>
<text text-anchor="middle" x="2245.5" y="-111.8" font-family="Times,serif" font-size="14.00">comp 0</text>
<text text-anchor="middle" x="2245.5" y="-96.8" font-family="Times,serif" font-size="14.00">log gamma1: &#45;0.365430 &#160;&#160;log gamma2: 0.090346</text>
<text text-anchor="middle" x="2245.5" y="-81.8" font-family="Times,serif" font-size="14.00">n kernels: 6 &#160;&#160;pooling type: 1</text>
</g>
<!-- 7&#45;&gt;20 -->
<g id="edge20" class="edge"><title>7&#45;&gt;20</title>
<path fill="none" stroke="black" d="M2330.84,-170.427C2316.79,-159.081 2300.11,-145.607 2285.24,-133.594"/>
<polygon fill="black" stroke="black" points="2287.17,-130.654 2277.19,-127.094 2282.77,-136.1 2287.17,-130.654"/>
</g>
<!-- 21 -->
<g id="node22" class="node"><title>21</title>
<path fill="#bfcfe6" stroke="black" d="M2539.5,-119.5C2539.5,-119.5 2419.5,-119.5 2419.5,-119.5 2413.5,-119.5 2407.5,-113.5 2407.5,-107.5 2407.5,-107.5 2407.5,-93.5 2407.5,-93.5 2407.5,-87.5 2413.5,-81.5 2419.5,-81.5 2419.5,-81.5 2539.5,-81.5 2539.5,-81.5 2545.5,-81.5 2551.5,-87.5 2551.5,-93.5 2551.5,-93.5 2551.5,-107.5 2551.5,-107.5 2551.5,-113.5 2545.5,-119.5 2539.5,-119.5"/>
<text text-anchor="middle" x="2479.5" y="-104.3" font-family="Times,serif" font-size="14.00">comp 1</text>
<text text-anchor="middle" x="2479.5" y="-89.3" font-family="Times,serif" font-size="14.00">log gamma2: 0.271442</text>
</g>
<!-- 7&#45;&gt;21 -->
<g id="edge21" class="edge"><title>7&#45;&gt;21</title>
<path fill="none" stroke="black" d="M2394.16,-170.427C2411.26,-156.616 2432.26,-139.652 2449.16,-126.008"/>
<polygon fill="black" stroke="black" points="2451.5,-128.612 2457.08,-119.606 2447.1,-123.167 2451.5,-128.612"/>
</g>
<!-- 22 -->
<g id="node23" class="node"><title>22</title>
<path fill="#abb9ce" stroke="black" d="M2615.5,-118.5C2615.5,-118.5 2581.5,-118.5 2581.5,-118.5 2575.5,-118.5 2569.5,-112.5 2569.5,-106.5 2569.5,-106.5 2569.5,-94.5 2569.5,-94.5 2569.5,-88.5 2575.5,-82.5 2581.5,-82.5 2581.5,-82.5 2615.5,-82.5 2615.5,-82.5 2621.5,-82.5 2627.5,-88.5 2627.5,-94.5 2627.5,-94.5 2627.5,-106.5 2627.5,-106.5 2627.5,-112.5 2621.5,-118.5 2615.5,-118.5"/>
<text text-anchor="middle" x="2598.5" y="-96.8" font-family="Times,serif" font-size="14.00">identity</text>
</g>
<!-- 7&#45;&gt;22 -->
<g id="edge22" class="edge"><title>7&#45;&gt;22</title>
<path fill="none" stroke="black" d="M2451.22,-170.45C2486.1,-159.033 2525.98,-144.24 2560.5,-127 2562.31,-126.095 2564.14,-125.117 2565.96,-124.09"/>
<polygon fill="black" stroke="black" points="2568.2,-126.828 2574.94,-118.653 2564.57,-120.841 2568.2,-126.828"/>
</g>
<!-- 23 -->
<g id="node24" class="node"><title>23</title>
<path fill="#f6d3ff" stroke="black" d="M127,-38C127,-38 92,-38 92,-38 86,-38 80,-32 80,-26 80,-26 80,-12 80,-12 80,-6 86,-0 92,-0 92,-0 127,-0 127,-0 133,-0 139,-6 139,-12 139,-12 139,-26 139,-26 139,-32 133,-38 127,-38"/>
<text text-anchor="middle" x="109.5" y="-22.8" font-family="Times,serif" font-size="14.00">forward</text>
<text text-anchor="middle" x="109.5" y="-7.8" font-family="Times,serif" font-size="14.00">input</text>
</g>
<!-- 8&#45;&gt;23 -->
<g id="edge23" class="edge"><title>8&#45;&gt;23</title>
<path fill="none" stroke="black" d="M109.5,-81.4602C109.5,-71.67 109.5,-59.3453 109.5,-48.3073"/>
<polygon fill="black" stroke="black" points="113,-48.2435 109.5,-38.2436 106,-48.2436 113,-48.2435"/>
</g>
<!-- 24 -->
<g id="node25" class="node"><title>24</title>
<path fill="#f6d3ff" stroke="black" d="M367.5,-38C367.5,-38 331.5,-38 331.5,-38 325.5,-38 319.5,-32 319.5,-26 319.5,-26 319.5,-12 319.5,-12 319.5,-6 325.5,-0 331.5,-0 331.5,-0 367.5,-0 367.5,-0 373.5,-0 379.5,-6 379.5,-12 379.5,-12 379.5,-26 379.5,-26 379.5,-32 373.5,-38 367.5,-38"/>
<text text-anchor="middle" x="349.5" y="-22.8" font-family="Times,serif" font-size="14.00">forward</text>
<text text-anchor="middle" x="349.5" y="-7.8" font-family="Times,serif" font-size="14.00">EB0/C0</text>
</g>
<!-- 9&#45;&gt;24 -->
<g id="edge24" class="edge"><title>9&#45;&gt;24</title>
<path fill="none" stroke="black" d="M349.5,-81.4602C349.5,-71.67 349.5,-59.3453 349.5,-48.3073"/>
<polygon fill="black" stroke="black" points="353,-48.2435 349.5,-38.2436 346,-48.2436 353,-48.2435"/>
</g>
<!-- 25 -->
<g id="node26" class="node"><title>25</title>
<path fill="#f6d3ff" stroke="black" d="M487.5,-38C487.5,-38 451.5,-38 451.5,-38 445.5,-38 439.5,-32 439.5,-26 439.5,-26 439.5,-12 439.5,-12 439.5,-6 445.5,-0 451.5,-0 451.5,-0 487.5,-0 487.5,-0 493.5,-0 499.5,-6 499.5,-12 499.5,-12 499.5,-26 499.5,-26 499.5,-32 493.5,-38 487.5,-38"/>
<text text-anchor="middle" x="469.5" y="-22.8" font-family="Times,serif" font-size="14.00">residual</text>
<text text-anchor="middle" x="469.5" y="-7.8" font-family="Times,serif" font-size="14.00">EB0/C0</text>
</g>
<!-- 10&#45;&gt;25 -->
<g id="edge25" class="edge"><title>10&#45;&gt;25</title>
<path fill="none" stroke="black" d="M500.038,-82.2497C495.032,-72.0459 488.579,-58.8928 482.896,-47.3078"/>
<polygon fill="black" stroke="black" points="485.899,-45.4808 478.352,-38.0444 479.614,-48.5639 485.899,-45.4808"/>
</g>
<!-- 26 -->
<g id="node27" class="node"><title>26</title>
<path fill="#debfe6" stroke="black" d="M565.5,-38C565.5,-38 529.5,-38 529.5,-38 523.5,-38 517.5,-32 517.5,-26 517.5,-26 517.5,-12 517.5,-12 517.5,-6 523.5,-0 529.5,-0 529.5,-0 565.5,-0 565.5,-0 571.5,-0 577.5,-6 577.5,-12 577.5,-12 577.5,-26 577.5,-26 577.5,-32 571.5,-38 565.5,-38"/>
<text text-anchor="middle" x="547.5" y="-22.8" font-family="Times,serif" font-size="14.00">forward</text>
<text text-anchor="middle" x="547.5" y="-7.8" font-family="Times,serif" font-size="14.00">EB0/C1</text>
</g>
<!-- 10&#45;&gt;26 -->
<g id="edge26" class="edge"><title>10&#45;&gt;26</title>
<path fill="none" stroke="black" d="M516.962,-82.2497C521.968,-72.0459 528.421,-58.8928 534.104,-47.3078"/>
<polygon fill="black" stroke="black" points="537.386,-48.5639 538.648,-38.0444 531.101,-45.4808 537.386,-48.5639"/>
</g>
<!-- 27 -->
<g id="node28" class="node"><title>27</title>
<path fill="#f6d3ff" stroke="black" d="M717,-38C717,-38 682,-38 682,-38 676,-38 670,-32 670,-26 670,-26 670,-12 670,-12 670,-6 676,-0 682,-0 682,-0 717,-0 717,-0 723,-0 729,-6 729,-12 729,-12 729,-26 729,-26 729,-32 723,-38 717,-38"/>
<text text-anchor="middle" x="699.5" y="-22.8" font-family="Times,serif" font-size="14.00">forward</text>
<text text-anchor="middle" x="699.5" y="-7.8" font-family="Times,serif" font-size="14.00">EB0/I</text>
</g>
<!-- 11&#45;&gt;27 -->
<g id="edge27" class="edge"><title>11&#45;&gt;27</title>
<path fill="none" stroke="black" d="M699.5,-73.9081C699.5,-65.7377 699.5,-56.6492 699.5,-48.2981"/>
<polygon fill="black" stroke="black" points="703,-48.2389 699.5,-38.2389 696,-48.2389 703,-48.2389"/>
</g>
<!-- 28 -->
<g id="node29" class="node"><title>28</title>
<path fill="#f6d3ff" stroke="black" d="M1022.5,-38C1022.5,-38 986.5,-38 986.5,-38 980.5,-38 974.5,-32 974.5,-26 974.5,-26 974.5,-12 974.5,-12 974.5,-6 980.5,-0 986.5,-0 986.5,-0 1022.5,-0 1022.5,-0 1028.5,-0 1034.5,-6 1034.5,-12 1034.5,-12 1034.5,-26 1034.5,-26 1034.5,-32 1028.5,-38 1022.5,-38"/>
<text text-anchor="middle" x="1004.5" y="-22.8" font-family="Times,serif" font-size="14.00">forward</text>
<text text-anchor="middle" x="1004.5" y="-7.8" font-family="Times,serif" font-size="14.00">EB1/C0</text>
</g>
<!-- 12&#45;&gt;28 -->
<g id="edge28" class="edge"><title>12&#45;&gt;28</title>
<path fill="none" stroke="black" d="M1004.5,-73.9081C1004.5,-65.7377 1004.5,-56.6492 1004.5,-48.2981"/>
<polygon fill="black" stroke="black" points="1008,-48.2389 1004.5,-38.2389 1001,-48.2389 1008,-48.2389"/>
</g>
<!-- 29 -->
<g id="node30" class="node"><title>29</title>
<path fill="#f6d3ff" stroke="black" d="M1174.5,-38C1174.5,-38 1138.5,-38 1138.5,-38 1132.5,-38 1126.5,-32 1126.5,-26 1126.5,-26 1126.5,-12 1126.5,-12 1126.5,-6 1132.5,-0 1138.5,-0 1138.5,-0 1174.5,-0 1174.5,-0 1180.5,-0 1186.5,-6 1186.5,-12 1186.5,-12 1186.5,-26 1186.5,-26 1186.5,-32 1180.5,-38 1174.5,-38"/>
<text text-anchor="middle" x="1156.5" y="-22.8" font-family="Times,serif" font-size="14.00">residual</text>
<text text-anchor="middle" x="1156.5" y="-7.8" font-family="Times,serif" font-size="14.00">EB1/C0</text>
</g>
<!-- 13&#45;&gt;29 -->
<g id="edge29" class="edge"><title>13&#45;&gt;29</title>
<path fill="none" stroke="black" d="M1187.04,-82.2497C1182.03,-72.0459 1175.58,-58.8928 1169.9,-47.3078"/>
<polygon fill="black" stroke="black" points="1172.9,-45.4808 1165.35,-38.0444 1166.61,-48.5639 1172.9,-45.4808"/>
</g>
<!-- 30 -->
<g id="node31" class="node"><title>30</title>
<path fill="#debfe6" stroke="black" d="M1252.5,-38C1252.5,-38 1216.5,-38 1216.5,-38 1210.5,-38 1204.5,-32 1204.5,-26 1204.5,-26 1204.5,-12 1204.5,-12 1204.5,-6 1210.5,-0 1216.5,-0 1216.5,-0 1252.5,-0 1252.5,-0 1258.5,-0 1264.5,-6 1264.5,-12 1264.5,-12 1264.5,-26 1264.5,-26 1264.5,-32 1258.5,-38 1252.5,-38"/>
<text text-anchor="middle" x="1234.5" y="-22.8" font-family="Times,serif" font-size="14.00">forward</text>
<text text-anchor="middle" x="1234.5" y="-7.8" font-family="Times,serif" font-size="14.00">EB1/C1</text>
</g>
<!-- 13&#45;&gt;30 -->
<g id="edge30" class="edge"><title>13&#45;&gt;30</title>
<path fill="none" stroke="black" d="M1203.96,-82.2497C1208.97,-72.0459 1215.42,-58.8928 1221.1,-47.3078"/>
<polygon fill="black" stroke="black" points="1224.39,-48.5639 1225.65,-38.0444 1218.1,-45.4808 1224.39,-48.5639"/>
</g>
<!-- 31 -->
<g id="node32" class="node"><title>31</title>
<path fill="#f6d3ff" stroke="black" d="M1384,-38C1384,-38 1349,-38 1349,-38 1343,-38 1337,-32 1337,-26 1337,-26 1337,-12 1337,-12 1337,-6 1343,-0 1349,-0 1349,-0 1384,-0 1384,-0 1390,-0 1396,-6 1396,-12 1396,-12 1396,-26 1396,-26 1396,-32 1390,-38 1384,-38"/>
<text text-anchor="middle" x="1366.5" y="-22.8" font-family="Times,serif" font-size="14.00">forward</text>
<text text-anchor="middle" x="1366.5" y="-7.8" font-family="Times,serif" font-size="14.00">EB1/I</text>
</g>
<!-- 14&#45;&gt;31 -->
<g id="edge31" class="edge"><title>14&#45;&gt;31</title>
<path fill="none" stroke="black" d="M1366.5,-81.4602C1366.5,-71.67 1366.5,-59.3453 1366.5,-48.3073"/>
<polygon fill="black" stroke="black" points="1370,-48.2435 1366.5,-38.2436 1363,-48.2436 1370,-48.2435"/>
</g>
<!-- 32 -->
<g id="node33" class="node"><title>32</title>
<path fill="#f6d3ff" stroke="black" d="M1513.5,-38C1513.5,-38 1475.5,-38 1475.5,-38 1469.5,-38 1463.5,-32 1463.5,-26 1463.5,-26 1463.5,-12 1463.5,-12 1463.5,-6 1469.5,-0 1475.5,-0 1475.5,-0 1513.5,-0 1513.5,-0 1519.5,-0 1525.5,-6 1525.5,-12 1525.5,-12 1525.5,-26 1525.5,-26 1525.5,-32 1519.5,-38 1513.5,-38"/>
<text text-anchor="middle" x="1494.5" y="-22.8" font-family="Times,serif" font-size="14.00">forward</text>
<text text-anchor="middle" x="1494.5" y="-7.8" font-family="Times,serif" font-size="14.00">DB2/C0</text>
</g>
<!-- 15&#45;&gt;32 -->
<g id="edge32" class="edge"><title>15&#45;&gt;32</title>
<path fill="none" stroke="black" d="M1543.2,-81.4602C1534.97,-71.0644 1524.46,-57.8108 1515.32,-46.2747"/>
<polygon fill="black" stroke="black" points="1517.91,-43.9073 1508.96,-38.2436 1512.42,-48.2549 1517.91,-43.9073"/>
</g>
<!-- 33 -->
<g id="node34" class="node"><title>33</title>
<path fill="#f6d3ff" stroke="black" d="M1593.5,-38C1593.5,-38 1555.5,-38 1555.5,-38 1549.5,-38 1543.5,-32 1543.5,-26 1543.5,-26 1543.5,-12 1543.5,-12 1543.5,-6 1549.5,-0 1555.5,-0 1555.5,-0 1593.5,-0 1593.5,-0 1599.5,-0 1605.5,-6 1605.5,-12 1605.5,-12 1605.5,-26 1605.5,-26 1605.5,-32 1599.5,-38 1593.5,-38"/>
<text text-anchor="middle" x="1574.5" y="-22.8" font-family="Times,serif" font-size="14.00">residual</text>
<text text-anchor="middle" x="1574.5" y="-7.8" font-family="Times,serif" font-size="14.00">DB2/C0</text>
</g>
<!-- 16&#45;&gt;33 -->
<g id="edge33" class="edge"><title>16&#45;&gt;33</title>
<path fill="none" stroke="black" d="M1637.14,-82.2497C1626.26,-71.4337 1612.04,-57.3038 1599.9,-45.2405"/>
<polygon fill="black" stroke="black" points="1602.22,-42.6107 1592.66,-38.0444 1597.28,-47.576 1602.22,-42.6107"/>
</g>
<!-- 34 -->
<g id="node35" class="node"><title>34</title>
<path fill="#debfe6" stroke="black" d="M1673.5,-38C1673.5,-38 1635.5,-38 1635.5,-38 1629.5,-38 1623.5,-32 1623.5,-26 1623.5,-26 1623.5,-12 1623.5,-12 1623.5,-6 1629.5,-0 1635.5,-0 1635.5,-0 1673.5,-0 1673.5,-0 1679.5,-0 1685.5,-6 1685.5,-12 1685.5,-12 1685.5,-26 1685.5,-26 1685.5,-32 1679.5,-38 1673.5,-38"/>
<text text-anchor="middle" x="1654.5" y="-22.8" font-family="Times,serif" font-size="14.00">forward</text>
<text text-anchor="middle" x="1654.5" y="-7.8" font-family="Times,serif" font-size="14.00">DB2/C1</text>
</g>
<!-- 16&#45;&gt;34 -->
<g id="edge34" class="edge"><title>16&#45;&gt;34</title>
<path fill="none" stroke="black" d="M1654.5,-82.2497C1654.5,-72.352 1654.5,-59.6794 1654.5,-48.3546"/>
<polygon fill="black" stroke="black" points="1658,-48.0444 1654.5,-38.0444 1651,-48.0445 1658,-48.0444"/>
</g>
<!-- 35 -->
<g id="node36" class="node"><title>35</title>
<path fill="#f6d3ff" stroke="black" d="M1751,-38C1751,-38 1716,-38 1716,-38 1710,-38 1704,-32 1704,-26 1704,-26 1704,-12 1704,-12 1704,-6 1710,-0 1716,-0 1716,-0 1751,-0 1751,-0 1757,-0 1763,-6 1763,-12 1763,-12 1763,-26 1763,-26 1763,-32 1757,-38 1751,-38"/>
<text text-anchor="middle" x="1733.5" y="-22.8" font-family="Times,serif" font-size="14.00">forward</text>
<text text-anchor="middle" x="1733.5" y="-7.8" font-family="Times,serif" font-size="14.00">DB2/I</text>
</g>
<!-- 17&#45;&gt;35 -->
<g id="edge35" class="edge"><title>17&#45;&gt;35</title>
<path fill="none" stroke="black" d="M1732.72,-82.2497C1732.84,-72.352 1733,-59.6794 1733.14,-48.3546"/>
<polygon fill="black" stroke="black" points="1736.65,-48.0877 1733.27,-38.0444 1729.65,-47.9996 1736.65,-48.0877"/>
</g>
<!-- 36 -->
<g id="node37" class="node"><title>36</title>
<path fill="#debfe6" stroke="black" d="M1823.5,-38C1823.5,-38 1793.5,-38 1793.5,-38 1787.5,-38 1781.5,-32 1781.5,-26 1781.5,-26 1781.5,-12 1781.5,-12 1781.5,-6 1787.5,-0 1793.5,-0 1793.5,-0 1823.5,-0 1823.5,-0 1829.5,-0 1835.5,-6 1835.5,-12 1835.5,-12 1835.5,-26 1835.5,-26 1835.5,-32 1829.5,-38 1823.5,-38"/>
<text text-anchor="middle" x="1808.5" y="-22.8" font-family="Times,serif" font-size="14.00">merge</text>
<text text-anchor="middle" x="1808.5" y="-7.8" font-family="Times,serif" font-size="14.00">EB1/I</text>
</g>
<!-- 17&#45;&gt;36 -->
<g id="edge36" class="edge"><title>17&#45;&gt;36</title>
<path fill="none" stroke="black" d="M1748.99,-82.2497C1759.23,-71.5357 1772.58,-57.5701 1784.04,-45.5824"/>
<polygon fill="black" stroke="black" points="1786.87,-47.6914 1791.25,-38.0444 1781.81,-42.8543 1786.87,-47.6914"/>
</g>
<!-- 37 -->
<g id="node38" class="node"><title>37</title>
<path fill="#f6d3ff" stroke="black" d="M1912.5,-38C1912.5,-38 1874.5,-38 1874.5,-38 1868.5,-38 1862.5,-32 1862.5,-26 1862.5,-26 1862.5,-12 1862.5,-12 1862.5,-6 1868.5,-0 1874.5,-0 1874.5,-0 1912.5,-0 1912.5,-0 1918.5,-0 1924.5,-6 1924.5,-12 1924.5,-12 1924.5,-26 1924.5,-26 1924.5,-32 1918.5,-38 1912.5,-38"/>
<text text-anchor="middle" x="1893.5" y="-22.8" font-family="Times,serif" font-size="14.00">forward</text>
<text text-anchor="middle" x="1893.5" y="-7.8" font-family="Times,serif" font-size="14.00">DB1/C0</text>
</g>
<!-- 18&#45;&gt;37 -->
<g id="edge37" class="edge"><title>18&#45;&gt;37</title>
<path fill="none" stroke="black" d="M1893.5,-73.9081C1893.5,-65.7377 1893.5,-56.6492 1893.5,-48.2981"/>
<polygon fill="black" stroke="black" points="1897,-48.2389 1893.5,-38.2389 1890,-48.2389 1897,-48.2389"/>
</g>
<!-- 38 -->
<g id="node39" class="node"><title>38</title>
<path fill="#f6d3ff" stroke="black" d="M2011.5,-38C2011.5,-38 1973.5,-38 1973.5,-38 1967.5,-38 1961.5,-32 1961.5,-26 1961.5,-26 1961.5,-12 1961.5,-12 1961.5,-6 1967.5,-0 1973.5,-0 1973.5,-0 2011.5,-0 2011.5,-0 2017.5,-0 2023.5,-6 2023.5,-12 2023.5,-12 2023.5,-26 2023.5,-26 2023.5,-32 2017.5,-38 2011.5,-38"/>
<text text-anchor="middle" x="1992.5" y="-22.8" font-family="Times,serif" font-size="14.00">residual</text>
<text text-anchor="middle" x="1992.5" y="-7.8" font-family="Times,serif" font-size="14.00">DB1/C0</text>
</g>
<!-- 19&#45;&gt;38 -->
<g id="edge38" class="edge"><title>19&#45;&gt;38</title>
<path fill="none" stroke="black" d="M2041.05,-82.2497C2032.85,-71.7398 2022.21,-58.101 2012.99,-46.2695"/>
<polygon fill="black" stroke="black" points="2015.48,-43.7776 2006.57,-38.0444 2009.96,-48.0824 2015.48,-43.7776"/>
</g>
<!-- 39 -->
<g id="node40" class="node"><title>39</title>
<path fill="#debfe6" stroke="black" d="M2091.5,-38C2091.5,-38 2053.5,-38 2053.5,-38 2047.5,-38 2041.5,-32 2041.5,-26 2041.5,-26 2041.5,-12 2041.5,-12 2041.5,-6 2047.5,-0 2053.5,-0 2053.5,-0 2091.5,-0 2091.5,-0 2097.5,-0 2103.5,-6 2103.5,-12 2103.5,-12 2103.5,-26 2103.5,-26 2103.5,-32 2097.5,-38 2091.5,-38"/>
<text text-anchor="middle" x="2072.5" y="-22.8" font-family="Times,serif" font-size="14.00">forward</text>
<text text-anchor="middle" x="2072.5" y="-7.8" font-family="Times,serif" font-size="14.00">DB1/C1</text>
</g>
<!-- 19&#45;&gt;39 -->
<g id="edge39" class="edge"><title>19&#45;&gt;39</title>
<path fill="none" stroke="black" d="M2058.41,-82.2497C2060.67,-72.25 2063.58,-59.4178 2066.16,-48.0048"/>
<polygon fill="black" stroke="black" points="2069.62,-48.5705 2068.41,-38.0444 2062.79,-47.0247 2069.62,-48.5705"/>
</g>
<!-- 40 -->
<g id="node41" class="node"><title>40</title>
<path fill="#f6d3ff" stroke="black" d="M2225,-38C2225,-38 2190,-38 2190,-38 2184,-38 2178,-32 2178,-26 2178,-26 2178,-12 2178,-12 2178,-6 2184,-0 2190,-0 2190,-0 2225,-0 2225,-0 2231,-0 2237,-6 2237,-12 2237,-12 2237,-26 2237,-26 2237,-32 2231,-38 2225,-38"/>
<text text-anchor="middle" x="2207.5" y="-22.8" font-family="Times,serif" font-size="14.00">forward</text>
<text text-anchor="middle" x="2207.5" y="-7.8" font-family="Times,serif" font-size="14.00">DB1/I</text>
</g>
<!-- 20&#45;&gt;40 -->
<g id="edge40" class="edge"><title>20&#45;&gt;40</title>
<path fill="none" stroke="black" d="M2233.27,-73.9081C2229.23,-65.4653 2224.73,-56.0423 2220.63,-47.4655"/>
<polygon fill="black" stroke="black" points="2223.69,-45.7518 2216.22,-38.2389 2217.37,-48.7706 2223.69,-45.7518"/>
</g>
<!-- 41 -->
<g id="node42" class="node"><title>41</title>
<path fill="#debfe6" stroke="black" d="M2297.5,-38C2297.5,-38 2267.5,-38 2267.5,-38 2261.5,-38 2255.5,-32 2255.5,-26 2255.5,-26 2255.5,-12 2255.5,-12 2255.5,-6 2261.5,-0 2267.5,-0 2267.5,-0 2297.5,-0 2297.5,-0 2303.5,-0 2309.5,-6 2309.5,-12 2309.5,-12 2309.5,-26 2309.5,-26 2309.5,-32 2303.5,-38 2297.5,-38"/>
<text text-anchor="middle" x="2282.5" y="-22.8" font-family="Times,serif" font-size="14.00">merge</text>
<text text-anchor="middle" x="2282.5" y="-7.8" font-family="Times,serif" font-size="14.00">EB0/I</text>
</g>
<!-- 20&#45;&gt;41 -->
<g id="edge41" class="edge"><title>20&#45;&gt;41</title>
<path fill="none" stroke="black" d="M2257.41,-73.9081C2261.34,-65.4653 2265.73,-56.0423 2269.72,-47.4655"/>
<polygon fill="black" stroke="black" points="2272.97,-48.782 2274.01,-38.2389 2266.62,-45.8283 2272.97,-48.782"/>
</g>
<!-- 42 -->
<g id="node43" class="node"><title>42</title>
<path fill="#f6d3ff" stroke="black" d="M2498.5,-38C2498.5,-38 2460.5,-38 2460.5,-38 2454.5,-38 2448.5,-32 2448.5,-26 2448.5,-26 2448.5,-12 2448.5,-12 2448.5,-6 2454.5,-0 2460.5,-0 2460.5,-0 2498.5,-0 2498.5,-0 2504.5,-0 2510.5,-6 2510.5,-12 2510.5,-12 2510.5,-26 2510.5,-26 2510.5,-32 2504.5,-38 2498.5,-38"/>
<text text-anchor="middle" x="2479.5" y="-22.8" font-family="Times,serif" font-size="14.00">forward</text>
<text text-anchor="middle" x="2479.5" y="-7.8" font-family="Times,serif" font-size="14.00">DB0/C0</text>
</g>
<!-- 21&#45;&gt;42 -->
<g id="edge42" class="edge"><title>21&#45;&gt;42</title>
<path fill="none" stroke="black" d="M2479.5,-81.4602C2479.5,-71.67 2479.5,-59.3453 2479.5,-48.3073"/>
<polygon fill="black" stroke="black" points="2483,-48.2435 2479.5,-38.2436 2476,-48.2436 2483,-48.2435"/>
</g>
<!-- 43 -->
<g id="node44" class="node"><title>43</title>
<path fill="#f6d3ff" stroke="black" d="M2597.5,-38C2597.5,-38 2559.5,-38 2559.5,-38 2553.5,-38 2547.5,-32 2547.5,-26 2547.5,-26 2547.5,-12 2547.5,-12 2547.5,-6 2553.5,-0 2559.5,-0 2559.5,-0 2597.5,-0 2597.5,-0 2603.5,-0 2609.5,-6 2609.5,-12 2609.5,-12 2609.5,-26 2609.5,-26 2609.5,-32 2603.5,-38 2597.5,-38"/>
<text text-anchor="middle" x="2578.5" y="-22.8" font-family="Times,serif" font-size="14.00">residual</text>
<text text-anchor="middle" x="2578.5" y="-7.8" font-family="Times,serif" font-size="14.00">DB0/C0</text>
</g>
<!-- 22&#45;&gt;43 -->
<g id="edge43" class="edge"><title>22&#45;&gt;43</title>
<path fill="none" stroke="black" d="M2594.16,-82.2497C2591.64,-72.25 2588.42,-59.4178 2585.55,-48.0048"/>
<polygon fill="black" stroke="black" points="2588.87,-46.8883 2583.04,-38.0444 2582.09,-48.5962 2588.87,-46.8883"/>
</g>
<!-- 44 -->
<g id="node45" class="node"><title>44</title>
<path fill="#debfe6" stroke="black" d="M2677.5,-38C2677.5,-38 2639.5,-38 2639.5,-38 2633.5,-38 2627.5,-32 2627.5,-26 2627.5,-26 2627.5,-12 2627.5,-12 2627.5,-6 2633.5,-0 2639.5,-0 2639.5,-0 2677.5,-0 2677.5,-0 2683.5,-0 2689.5,-6 2689.5,-12 2689.5,-12 2689.5,-26 2689.5,-26 2689.5,-32 2683.5,-38 2677.5,-38"/>
<text text-anchor="middle" x="2658.5" y="-22.8" font-family="Times,serif" font-size="14.00">forward</text>
<text text-anchor="middle" x="2658.5" y="-7.8" font-family="Times,serif" font-size="14.00">DB0/C1</text>
</g>
<!-- 22&#45;&gt;44 -->
<g id="edge44" class="edge"><title>22&#45;&gt;44</title>
<path fill="none" stroke="black" d="M2611.52,-82.2497C2619.45,-71.7398 2629.74,-58.101 2638.67,-46.2695"/>
<polygon fill="black" stroke="black" points="2641.65,-48.1348 2644.88,-38.0444 2636.06,-43.9179 2641.65,-48.1348"/>
</g>
</g>
</svg>
