<?xml version="1.0" encoding="UTF-8" standalone="no"?>
<!DOCTYPE svg PUBLIC "-//W3C//DTD SVG 1.1//EN"
 "http://www.w3.org/Graphics/SVG/1.1/DTD/svg11.dtd">
<!-- Generated by graphviz version 2.38.0 (20140413.2041)
 -->
<!-- Title: %3 Pages: 1 -->
<svg width="2731pt" height="357pt"
 viewBox="0.00 0.00 2731.00 357.00" xmlns="http://www.w3.org/2000/svg" xmlns:xlink="http://www.w3.org/1999/xlink">
<g id="graph0" class="graph" transform="scale(1 1) rotate(0) translate(4 353)">
<title>%3</title>
<polygon fill="none" stroke="none" points="-4,4 -4,-353 2727,-353 2727,4 -4,4"/>
<!-- 0 -->
<g id="node1" class="node"><title>0</title>
<path fill="#ffd3d3" stroke="black" d="M937.5,-349C937.5,-349 773.5,-349 773.5,-349 767.5,-349 761.5,-343 761.5,-337 761.5,-337 761.5,-323 761.5,-323 761.5,-317 767.5,-311 773.5,-311 773.5,-311 937.5,-311 937.5,-311 943.5,-311 949.5,-317 949.5,-323 949.5,-323 949.5,-337 949.5,-337 949.5,-343 943.5,-349 937.5,-349"/>
<text text-anchor="middle" x="855.5" y="-333.8" font-family="Times,serif" font-size="14.00">net</text>
<text text-anchor="middle" x="855.5" y="-318.8" font-family="Times,serif" font-size="14.00">n kernels: 128 &#160;&#160;pooling type: 0</text>
</g>
<!-- 1 -->
<g id="node2" class="node"><title>1</title>
<path fill="#f6ffd3" stroke="black" d="M328,-274C328,-274 293,-274 293,-274 287,-274 281,-268 281,-262 281,-262 281,-250 281,-250 281,-244 287,-238 293,-238 293,-238 328,-238 328,-238 334,-238 340,-244 340,-250 340,-250 340,-262 340,-262 340,-268 334,-274 328,-274"/>
<text text-anchor="middle" x="310.5" y="-252.3" font-family="Times,serif" font-size="14.00">encoder</text>
</g>
<!-- 0&#45;&gt;1 -->
<g id="edge1" class="edge"><title>0&#45;&gt;1</title>
<path fill="none" stroke="black" d="M761.19,-316.541C640.257,-300.564 435.946,-273.573 350.228,-262.248"/>
<polygon fill="black" stroke="black" points="350.508,-258.755 340.136,-260.915 349.591,-265.695 350.508,-258.755"/>
</g>
<!-- 2 -->
<g id="node3" class="node"><title>2</title>
<path fill="#f6ffd3" stroke="black" d="M1363,-275C1363,-275 1238,-275 1238,-275 1232,-275 1226,-269 1226,-263 1226,-263 1226,-249 1226,-249 1226,-243 1232,-237 1238,-237 1238,-237 1363,-237 1363,-237 1369,-237 1375,-243 1375,-249 1375,-249 1375,-263 1375,-263 1375,-269 1369,-275 1363,-275"/>
<text text-anchor="middle" x="1300.5" y="-259.8" font-family="Times,serif" font-size="14.00">decoder</text>
<text text-anchor="middle" x="1300.5" y="-244.8" font-family="Times,serif" font-size="14.00">log gamma2: &#45;1.921075</text>
</g>
<!-- 0&#45;&gt;2 -->
<g id="edge2" class="edge"><title>0&#45;&gt;2</title>
<path fill="none" stroke="black" d="M949.601,-313.775C1028.32,-301.037 1139.65,-283.025 1215.66,-270.727"/>
<polygon fill="black" stroke="black" points="1216.37,-274.158 1225.68,-269.106 1215.25,-267.248 1216.37,-274.158"/>
</g>
<!-- 3 -->
<g id="node4" class="node"><title>3</title>
<path fill="#d3ffe4" stroke="black" d="M87,-192.5C87,-192.5 12,-192.5 12,-192.5 6,-192.5 0,-186.5 0,-180.5 0,-180.5 0,-168.5 0,-168.5 0,-162.5 6,-156.5 12,-156.5 12,-156.5 87,-156.5 87,-156.5 93,-156.5 99,-162.5 99,-168.5 99,-168.5 99,-180.5 99,-180.5 99,-186.5 93,-192.5 87,-192.5"/>
<text text-anchor="middle" x="49.5" y="-170.8" font-family="Times,serif" font-size="14.00">encode block 0</text>
</g>
<!-- 1&#45;&gt;3 -->
<g id="edge3" class="edge"><title>1&#45;&gt;3</title>
<path fill="none" stroke="black" d="M280.823,-248.619C240.891,-239.692 167.9,-222.169 107.5,-201 103.529,-199.608 99.4506,-198.063 95.3844,-196.442"/>
<polygon fill="black" stroke="black" points="96.5554,-193.139 85.9766,-192.556 93.8828,-199.608 96.5554,-193.139"/>
</g>
<!-- 4 -->
<g id="node5" class="node"><title>4</title>
<path fill="#bfe6cf" stroke="black" d="M290,-193.5C290,-193.5 129,-193.5 129,-193.5 123,-193.5 117,-187.5 117,-181.5 117,-181.5 117,-167.5 117,-167.5 117,-161.5 123,-155.5 129,-155.5 129,-155.5 290,-155.5 290,-155.5 296,-155.5 302,-161.5 302,-167.5 302,-167.5 302,-181.5 302,-181.5 302,-187.5 296,-193.5 290,-193.5"/>
<text text-anchor="middle" x="209.5" y="-178.3" font-family="Times,serif" font-size="14.00">encode block 1</text>
<text text-anchor="middle" x="209.5" y="-163.3" font-family="Times,serif" font-size="14.00">n kernels: 128 &#160;&#160;spatial scale: 1</text>
</g>
<!-- 1&#45;&gt;4 -->
<g id="edge4" class="edge"><title>1&#45;&gt;4</title>
<path fill="none" stroke="black" d="M288.585,-237.75C274.584,-226.73 256.213,-212.269 240.702,-200.06"/>
<polygon fill="black" stroke="black" points="242.447,-196.979 232.424,-193.544 238.117,-202.48 242.447,-196.979"/>
</g>
<!-- 5 -->
<g id="node6" class="node"><title>5</title>
<path fill="#abceb9" stroke="black" d="M493,-193.5C493,-193.5 332,-193.5 332,-193.5 326,-193.5 320,-187.5 320,-181.5 320,-181.5 320,-167.5 320,-167.5 320,-161.5 326,-155.5 332,-155.5 332,-155.5 493,-155.5 493,-155.5 499,-155.5 505,-161.5 505,-167.5 505,-167.5 505,-181.5 505,-181.5 505,-187.5 499,-193.5 493,-193.5"/>
<text text-anchor="middle" x="412.5" y="-178.3" font-family="Times,serif" font-size="14.00">encode block 2</text>
<text text-anchor="middle" x="412.5" y="-163.3" font-family="Times,serif" font-size="14.00">n kernels: 384 &#160;&#160;spatial scale: 2</text>
</g>
<!-- 1&#45;&gt;5 -->
<g id="edge5" class="edge"><title>1&#45;&gt;5</title>
<path fill="none" stroke="black" d="M332.382,-237.945C346.638,-226.834 365.46,-212.164 381.278,-199.835"/>
<polygon fill="black" stroke="black" points="383.5,-202.54 389.236,-193.632 379.197,-197.019 383.5,-202.54"/>
</g>
<!-- 6 -->
<g id="node7" class="node"><title>6</title>
<path fill="#d3ffe4" stroke="black" d="M878,-201C878,-201 615,-201 615,-201 609,-201 603,-195 603,-189 603,-189 603,-160 603,-160 603,-154 609,-148 615,-148 615,-148 878,-148 878,-148 884,-148 890,-154 890,-160 890,-160 890,-189 890,-189 890,-195 884,-201 878,-201"/>
<text text-anchor="middle" x="746.5" y="-185.8" font-family="Times,serif" font-size="14.00">decode block 3</text>
<text text-anchor="middle" x="746.5" y="-170.8" font-family="Times,serif" font-size="14.00">log gamma1: &#45;1.898316 &#160;&#160;log gamma2: 1.869851</text>
<text text-anchor="middle" x="746.5" y="-155.8" font-family="Times,serif" font-size="14.00">n kernels: 896 &#160;&#160;spatial scale: 3</text>
</g>
<!-- 2&#45;&gt;6 -->
<g id="edge6" class="edge"><title>2&#45;&gt;6</title>
<path fill="none" stroke="black" d="M1225.79,-244.278C1142.74,-232.361 1006.36,-212.79 900.266,-197.566"/>
<polygon fill="black" stroke="black" points="900.492,-194.062 890.096,-196.106 899.498,-200.991 900.492,-194.062"/>
</g>
<!-- 7 -->
<g id="node8" class="node"><title>7</title>
<path fill="#bfe6cf" stroke="black" d="M1434.5,-201C1434.5,-201 1166.5,-201 1166.5,-201 1160.5,-201 1154.5,-195 1154.5,-189 1154.5,-189 1154.5,-160 1154.5,-160 1154.5,-154 1160.5,-148 1166.5,-148 1166.5,-148 1434.5,-148 1434.5,-148 1440.5,-148 1446.5,-154 1446.5,-160 1446.5,-160 1446.5,-189 1446.5,-189 1446.5,-195 1440.5,-201 1434.5,-201"/>
<text text-anchor="middle" x="1300.5" y="-185.8" font-family="Times,serif" font-size="14.00">decode block 2</text>
<text text-anchor="middle" x="1300.5" y="-170.8" font-family="Times,serif" font-size="14.00">log gamma1: &#45;1.389058 &#160;&#160;log gamma2: &#45;0.165517</text>
<text text-anchor="middle" x="1300.5" y="-155.8" font-family="Times,serif" font-size="14.00">n kernels: 384 &#160;&#160;spatial scale: 2</text>
</g>
<!-- 2&#45;&gt;7 -->
<g id="edge7" class="edge"><title>2&#45;&gt;7</title>
<path fill="none" stroke="black" d="M1300.5,-236.96C1300.5,-229.321 1300.5,-220.139 1300.5,-211.229"/>
<polygon fill="black" stroke="black" points="1304,-211.003 1300.5,-201.003 1297,-211.003 1304,-211.003"/>
</g>
<!-- 8 -->
<g id="node9" class="node"><title>8</title>
<path fill="#abceb9" stroke="black" d="M1762,-193.5C1762,-193.5 1687,-193.5 1687,-193.5 1681,-193.5 1675,-187.5 1675,-181.5 1675,-181.5 1675,-167.5 1675,-167.5 1675,-161.5 1681,-155.5 1687,-155.5 1687,-155.5 1762,-155.5 1762,-155.5 1768,-155.5 1774,-161.5 1774,-167.5 1774,-167.5 1774,-181.5 1774,-181.5 1774,-187.5 1768,-193.5 1762,-193.5"/>
<text text-anchor="middle" x="1724.5" y="-178.3" font-family="Times,serif" font-size="14.00">decode block 1</text>
<text text-anchor="middle" x="1724.5" y="-163.3" font-family="Times,serif" font-size="14.00">spatial scale: 1</text>
</g>
<!-- 2&#45;&gt;8 -->
<g id="edge8" class="edge"><title>2&#45;&gt;8</title>
<path fill="none" stroke="black" d="M1375.33,-240.97C1457.92,-225.484 1589.19,-200.872 1665.05,-186.647"/>
<polygon fill="black" stroke="black" points="1665.74,-190.079 1674.92,-184.796 1664.45,-183.199 1665.74,-190.079"/>
</g>
<!-- 9 -->
<g id="node10" class="node"><title>9</title>
<path fill="#97b6a3" stroke="black" d="M2281,-193.5C2281,-193.5 2204,-193.5 2204,-193.5 2198,-193.5 2192,-187.5 2192,-181.5 2192,-181.5 2192,-167.5 2192,-167.5 2192,-161.5 2198,-155.5 2204,-155.5 2204,-155.5 2281,-155.5 2281,-155.5 2287,-155.5 2293,-161.5 2293,-167.5 2293,-167.5 2293,-181.5 2293,-181.5 2293,-187.5 2287,-193.5 2281,-193.5"/>
<text text-anchor="middle" x="2242.5" y="-178.3" font-family="Times,serif" font-size="14.00">decode block 0</text>
<text text-anchor="middle" x="2242.5" y="-163.3" font-family="Times,serif" font-size="14.00">dilation rate: &#45;1</text>
</g>
<!-- 2&#45;&gt;9 -->
<g id="edge9" class="edge"><title>2&#45;&gt;9</title>
<path fill="none" stroke="black" d="M1375.2,-248.695C1556.36,-233.407 2016.27,-194.593 2181.89,-180.615"/>
<polygon fill="black" stroke="black" points="2182.23,-184.099 2191.9,-179.77 2181.65,-177.123 2182.23,-184.099"/>
</g>
<!-- 10 -->
<g id="node11" class="node"><title>10</title>
<path fill="#d3e4ff" stroke="black" d="M66.5,-111C66.5,-111 32.5,-111 32.5,-111 26.5,-111 20.5,-105 20.5,-99 20.5,-99 20.5,-87 20.5,-87 20.5,-81 26.5,-75 32.5,-75 32.5,-75 66.5,-75 66.5,-75 72.5,-75 78.5,-81 78.5,-87 78.5,-87 78.5,-99 78.5,-99 78.5,-105 72.5,-111 66.5,-111"/>
<text text-anchor="middle" x="49.5" y="-89.3" font-family="Times,serif" font-size="14.00">comp 0</text>
</g>
<!-- 3&#45;&gt;10 -->
<g id="edge10" class="edge"><title>3&#45;&gt;10</title>
<path fill="none" stroke="black" d="M49.5,-156.25C49.5,-146.04 49.5,-132.878 49.5,-121.288"/>
<polygon fill="black" stroke="black" points="53.0001,-121.217 49.5,-111.217 46.0001,-121.217 53.0001,-121.217"/>
</g>
<!-- 11 -->
<g id="node12" class="node"><title>11</title>
<path fill="#d3e4ff" stroke="black" d="M253.5,-112C253.5,-112 133.5,-112 133.5,-112 127.5,-112 121.5,-106 121.5,-100 121.5,-100 121.5,-86 121.5,-86 121.5,-80 127.5,-74 133.5,-74 133.5,-74 253.5,-74 253.5,-74 259.5,-74 265.5,-80 265.5,-86 265.5,-86 265.5,-100 265.5,-100 265.5,-106 259.5,-112 253.5,-112"/>
<text text-anchor="middle" x="193.5" y="-96.8" font-family="Times,serif" font-size="14.00">comp 0</text>
<text text-anchor="middle" x="193.5" y="-81.8" font-family="Times,serif" font-size="14.00">log gamma2: 0.399223</text>
</g>
<!-- 4&#45;&gt;11 -->
<g id="edge11" class="edge"><title>4&#45;&gt;11</title>
<path fill="none" stroke="black" d="M205.869,-155.46C203.899,-145.67 201.419,-133.345 199.197,-122.307"/>
<polygon fill="black" stroke="black" points="202.576,-121.356 197.172,-112.244 195.714,-122.738 202.576,-121.356"/>
</g>
<!-- 12 -->
<g id="node13" class="node"><title>12</title>
<path fill="#d3e4ff" stroke="black" d="M369.5,-112C369.5,-112 295.5,-112 295.5,-112 289.5,-112 283.5,-106 283.5,-100 283.5,-100 283.5,-86 283.5,-86 283.5,-80 289.5,-74 295.5,-74 295.5,-74 369.5,-74 369.5,-74 375.5,-74 381.5,-80 381.5,-86 381.5,-86 381.5,-100 381.5,-100 381.5,-106 375.5,-112 369.5,-112"/>
<text text-anchor="middle" x="332.5" y="-96.8" font-family="Times,serif" font-size="14.00">comp 0</text>
<text text-anchor="middle" x="332.5" y="-81.8" font-family="Times,serif" font-size="14.00">n kernels: &#45;384</text>
</g>
<!-- 5&#45;&gt;12 -->
<g id="edge12" class="edge"><title>5&#45;&gt;12</title>
<path fill="none" stroke="black" d="M394.347,-155.46C383.682,-144.863 370.03,-131.295 358.266,-119.605"/>
<polygon fill="black" stroke="black" points="360.419,-116.81 350.858,-112.244 355.484,-121.775 360.419,-116.81"/>
</g>
<!-- 13 -->
<g id="node14" class="node"><title>13</title>
<path fill="#bfcfe6" stroke="black" d="M445.5,-111C445.5,-111 411.5,-111 411.5,-111 405.5,-111 399.5,-105 399.5,-99 399.5,-99 399.5,-87 399.5,-87 399.5,-81 405.5,-75 411.5,-75 411.5,-75 445.5,-75 445.5,-75 451.5,-75 457.5,-81 457.5,-87 457.5,-87 457.5,-99 457.5,-99 457.5,-105 451.5,-111 445.5,-111"/>
<text text-anchor="middle" x="428.5" y="-89.3" font-family="Times,serif" font-size="14.00">comp 1</text>
</g>
<!-- 5&#45;&gt;13 -->
<g id="edge13" class="edge"><title>5&#45;&gt;13</title>
<path fill="none" stroke="black" d="M416.131,-155.46C418.178,-145.288 420.776,-132.381 423.061,-121.023"/>
<polygon fill="black" stroke="black" points="426.506,-121.645 425.048,-111.151 419.644,-120.264 426.506,-121.645"/>
</g>
<!-- 14 -->
<g id="node15" class="node"><title>14</title>
<path fill="#d3e4ff" stroke="black" d="M612,-112C612,-112 487,-112 487,-112 481,-112 475,-106 475,-100 475,-100 475,-86 475,-86 475,-80 481,-74 487,-74 487,-74 612,-74 612,-74 618,-74 624,-80 624,-86 624,-86 624,-100 624,-100 624,-106 618,-112 612,-112"/>
<text text-anchor="middle" x="549.5" y="-96.8" font-family="Times,serif" font-size="14.00">comp 0</text>
<text text-anchor="middle" x="549.5" y="-81.8" font-family="Times,serif" font-size="14.00">log gamma1: &#45;0.683260</text>
</g>
<!-- 6&#45;&gt;14 -->
<g id="edge14" class="edge"><title>6&#45;&gt;14</title>
<path fill="none" stroke="black" d="M683.084,-147.908C657.564,-137.61 628.43,-125.853 603.897,-115.952"/>
<polygon fill="black" stroke="black" points="604.972,-112.612 594.389,-112.115 602.353,-119.103 604.972,-112.612"/>
</g>
<!-- 15 -->
<g id="node16" class="node"><title>15</title>
<path fill="#bfcfe6" stroke="black" d="M687.5,-111C687.5,-111 653.5,-111 653.5,-111 647.5,-111 641.5,-105 641.5,-99 641.5,-99 641.5,-87 641.5,-87 641.5,-81 647.5,-75 653.5,-75 653.5,-75 687.5,-75 687.5,-75 693.5,-75 699.5,-81 699.5,-87 699.5,-87 699.5,-99 699.5,-99 699.5,-105 693.5,-111 687.5,-111"/>
<text text-anchor="middle" x="670.5" y="-89.3" font-family="Times,serif" font-size="14.00">comp 1</text>
</g>
<!-- 6&#45;&gt;15 -->
<g id="edge15" class="edge"><title>6&#45;&gt;15</title>
<path fill="none" stroke="black" d="M722.035,-147.908C713.085,-138.546 702.983,-127.979 694.109,-118.697"/>
<polygon fill="black" stroke="black" points="696.437,-116.066 686.997,-111.256 691.377,-120.903 696.437,-116.066"/>
</g>
<!-- 16 -->
<g id="node17" class="node"><title>16</title>
<path fill="#abb9ce" stroke="black" d="M763.5,-111C763.5,-111 729.5,-111 729.5,-111 723.5,-111 717.5,-105 717.5,-99 717.5,-99 717.5,-87 717.5,-87 717.5,-81 723.5,-75 729.5,-75 729.5,-75 763.5,-75 763.5,-75 769.5,-75 775.5,-81 775.5,-87 775.5,-87 775.5,-99 775.5,-99 775.5,-105 769.5,-111 763.5,-111"/>
<text text-anchor="middle" x="746.5" y="-89.3" font-family="Times,serif" font-size="14.00">comp 2</text>
</g>
<!-- 6&#45;&gt;16 -->
<g id="edge16" class="edge"><title>6&#45;&gt;16</title>
<path fill="none" stroke="black" d="M746.5,-147.908C746.5,-139.482 746.5,-130.08 746.5,-121.517"/>
<polygon fill="black" stroke="black" points="750,-121.256 746.5,-111.256 743,-121.256 750,-121.256"/>
</g>
<!-- 17 -->
<g id="node18" class="node"><title>17</title>
<path fill="#97a3b6" stroke="black" d="M879.5,-112C879.5,-112 805.5,-112 805.5,-112 799.5,-112 793.5,-106 793.5,-100 793.5,-100 793.5,-86 793.5,-86 793.5,-80 799.5,-74 805.5,-74 805.5,-74 879.5,-74 879.5,-74 885.5,-74 891.5,-80 891.5,-86 891.5,-86 891.5,-100 891.5,-100 891.5,-106 885.5,-112 879.5,-112"/>
<text text-anchor="middle" x="842.5" y="-96.8" font-family="Times,serif" font-size="14.00">comp 3</text>
<text text-anchor="middle" x="842.5" y="-81.8" font-family="Times,serif" font-size="14.00">n kernels: &#45;896</text>
</g>
<!-- 6&#45;&gt;17 -->
<g id="edge17" class="edge"><title>6&#45;&gt;17</title>
<path fill="none" stroke="black" d="M777.403,-147.908C788.695,-138.557 801.438,-128.005 812.637,-118.73"/>
<polygon fill="black" stroke="black" points="815.006,-121.313 820.476,-112.239 810.541,-115.921 815.006,-121.313"/>
</g>
<!-- 18 -->
<g id="node19" class="node"><title>18</title>
<path fill="#d3e4ff" stroke="black" d="M1139.5,-112C1139.5,-112 921.5,-112 921.5,-112 915.5,-112 909.5,-106 909.5,-100 909.5,-100 909.5,-86 909.5,-86 909.5,-80 915.5,-74 921.5,-74 921.5,-74 1139.5,-74 1139.5,-74 1145.5,-74 1151.5,-80 1151.5,-86 1151.5,-86 1151.5,-100 1151.5,-100 1151.5,-106 1145.5,-112 1139.5,-112"/>
<text text-anchor="middle" x="1030.5" y="-96.8" font-family="Times,serif" font-size="14.00">comp 0</text>
<text text-anchor="middle" x="1030.5" y="-81.8" font-family="Times,serif" font-size="14.00">log gamma2: &#45;1.393698 &#160;&#160;n kernels: &#45;384</text>
</g>
<!-- 7&#45;&gt;18 -->
<g id="edge18" class="edge"><title>7&#45;&gt;18</title>
<path fill="none" stroke="black" d="M1213.58,-147.908C1177.52,-137.291 1136.2,-125.123 1101.95,-115.037"/>
<polygon fill="black" stroke="black" points="1102.6,-111.582 1092.02,-112.115 1100.63,-118.297 1102.6,-111.582"/>
</g>
<!-- 19 -->
<g id="node20" class="node"><title>19</title>
<path fill="#bfcfe6" stroke="black" d="M1301.5,-112C1301.5,-112 1181.5,-112 1181.5,-112 1175.5,-112 1169.5,-106 1169.5,-100 1169.5,-100 1169.5,-86 1169.5,-86 1169.5,-80 1175.5,-74 1181.5,-74 1181.5,-74 1301.5,-74 1301.5,-74 1307.5,-74 1313.5,-80 1313.5,-86 1313.5,-86 1313.5,-100 1313.5,-100 1313.5,-106 1307.5,-112 1301.5,-112"/>
<text text-anchor="middle" x="1241.5" y="-96.8" font-family="Times,serif" font-size="14.00">comp 1</text>
<text text-anchor="middle" x="1241.5" y="-81.8" font-family="Times,serif" font-size="14.00">log gamma1: 1.605932</text>
</g>
<!-- 7&#45;&gt;19 -->
<g id="edge19" class="edge"><title>7&#45;&gt;19</title>
<path fill="none" stroke="black" d="M1281.51,-147.908C1274.97,-139.102 1267.65,-129.23 1261.07,-120.364"/>
<polygon fill="black" stroke="black" points="1263.81,-118.183 1255.04,-112.239 1258.18,-122.355 1263.81,-118.183"/>
</g>
<!-- 20 -->
<g id="node21" class="node"><title>20</title>
<path fill="#abb9ce" stroke="black" d="M1377.5,-111C1377.5,-111 1343.5,-111 1343.5,-111 1337.5,-111 1331.5,-105 1331.5,-99 1331.5,-99 1331.5,-87 1331.5,-87 1331.5,-81 1337.5,-75 1343.5,-75 1343.5,-75 1377.5,-75 1377.5,-75 1383.5,-75 1389.5,-81 1389.5,-87 1389.5,-87 1389.5,-99 1389.5,-99 1389.5,-105 1383.5,-111 1377.5,-111"/>
<text text-anchor="middle" x="1360.5" y="-89.3" font-family="Times,serif" font-size="14.00">comp 2</text>
</g>
<!-- 7&#45;&gt;20 -->
<g id="edge20" class="edge"><title>7&#45;&gt;20</title>
<path fill="none" stroke="black" d="M1319.81,-147.908C1326.74,-138.733 1334.54,-128.401 1341.44,-119.255"/>
<polygon fill="black" stroke="black" points="1344.25,-121.347 1347.48,-111.256 1338.66,-117.13 1344.25,-121.347"/>
</g>
<!-- 21 -->
<g id="node22" class="node"><title>21</title>
<path fill="#97a3b6" stroke="black" d="M1453.5,-111C1453.5,-111 1419.5,-111 1419.5,-111 1413.5,-111 1407.5,-105 1407.5,-99 1407.5,-99 1407.5,-87 1407.5,-87 1407.5,-81 1413.5,-75 1419.5,-75 1419.5,-75 1453.5,-75 1453.5,-75 1459.5,-75 1465.5,-81 1465.5,-87 1465.5,-87 1465.5,-99 1465.5,-99 1465.5,-105 1459.5,-111 1453.5,-111"/>
<text text-anchor="middle" x="1436.5" y="-89.3" font-family="Times,serif" font-size="14.00">comp 3</text>
</g>
<!-- 7&#45;&gt;21 -->
<g id="edge21" class="edge"><title>7&#45;&gt;21</title>
<path fill="none" stroke="black" d="M1344.28,-147.908C1361.71,-137.721 1381.58,-126.106 1398.4,-116.273"/>
<polygon fill="black" stroke="black" points="1400.53,-119.082 1407.4,-111.014 1397,-113.039 1400.53,-119.082"/>
</g>
<!-- 22 -->
<g id="node23" class="node"><title>22</title>
<path fill="#d3e4ff" stroke="black" d="M1620,-112C1620,-112 1495,-112 1495,-112 1489,-112 1483,-106 1483,-100 1483,-100 1483,-86 1483,-86 1483,-80 1489,-74 1495,-74 1495,-74 1620,-74 1620,-74 1626,-74 1632,-80 1632,-86 1632,-86 1632,-100 1632,-100 1632,-106 1626,-112 1620,-112"/>
<text text-anchor="middle" x="1557.5" y="-96.8" font-family="Times,serif" font-size="14.00">comp 0</text>
<text text-anchor="middle" x="1557.5" y="-81.8" font-family="Times,serif" font-size="14.00">log gamma1: &#45;0.783903</text>
</g>
<!-- 8&#45;&gt;22 -->
<g id="edge22" class="edge"><title>8&#45;&gt;22</title>
<path fill="none" stroke="black" d="M1686.61,-155.46C1662.35,-143.913 1630.69,-128.841 1604.79,-116.512"/>
<polygon fill="black" stroke="black" points="1606.07,-113.244 1595.53,-112.106 1603.06,-119.564 1606.07,-113.244"/>
</g>
<!-- 23 -->
<g id="node24" class="node"><title>23</title>
<path fill="#bfcfe6" stroke="black" d="M1787,-112C1787,-112 1662,-112 1662,-112 1656,-112 1650,-106 1650,-100 1650,-100 1650,-86 1650,-86 1650,-80 1656,-74 1662,-74 1662,-74 1787,-74 1787,-74 1793,-74 1799,-80 1799,-86 1799,-86 1799,-100 1799,-100 1799,-106 1793,-112 1787,-112"/>
<text text-anchor="middle" x="1724.5" y="-96.8" font-family="Times,serif" font-size="14.00">comp 1</text>
<text text-anchor="middle" x="1724.5" y="-81.8" font-family="Times,serif" font-size="14.00">log gamma1: &#45;0.985802</text>
</g>
<!-- 8&#45;&gt;23 -->
<g id="edge23" class="edge"><title>8&#45;&gt;23</title>
<path fill="none" stroke="black" d="M1724.5,-155.46C1724.5,-145.67 1724.5,-133.345 1724.5,-122.307"/>
<polygon fill="black" stroke="black" points="1728,-122.244 1724.5,-112.244 1721,-122.244 1728,-122.244"/>
</g>
<!-- 24 -->
<g id="node25" class="node"><title>24</title>
<path fill="#abb9ce" stroke="black" d="M1897.5,-112C1897.5,-112 1829.5,-112 1829.5,-112 1823.5,-112 1817.5,-106 1817.5,-100 1817.5,-100 1817.5,-86 1817.5,-86 1817.5,-80 1823.5,-74 1829.5,-74 1829.5,-74 1897.5,-74 1897.5,-74 1903.5,-74 1909.5,-80 1909.5,-86 1909.5,-86 1909.5,-100 1909.5,-100 1909.5,-106 1903.5,-112 1897.5,-112"/>
<text text-anchor="middle" x="1863.5" y="-96.8" font-family="Times,serif" font-size="14.00">comp 2</text>
<text text-anchor="middle" x="1863.5" y="-81.8" font-family="Times,serif" font-size="14.00">n kernels: &#45;17</text>
</g>
<!-- 8&#45;&gt;24 -->
<g id="edge24" class="edge"><title>8&#45;&gt;24</title>
<path fill="none" stroke="black" d="M1756.04,-155.46C1775.81,-144.156 1801.48,-129.473 1822.77,-117.293"/>
<polygon fill="black" stroke="black" points="1824.66,-120.247 1831.6,-112.244 1821.18,-114.17 1824.66,-120.247"/>
</g>
<!-- 25 -->
<g id="node26" class="node"><title>25</title>
<path fill="#97a3b6" stroke="black" d="M1973.5,-111C1973.5,-111 1939.5,-111 1939.5,-111 1933.5,-111 1927.5,-105 1927.5,-99 1927.5,-99 1927.5,-87 1927.5,-87 1927.5,-81 1933.5,-75 1939.5,-75 1939.5,-75 1973.5,-75 1973.5,-75 1979.5,-75 1985.5,-81 1985.5,-87 1985.5,-87 1985.5,-99 1985.5,-99 1985.5,-105 1979.5,-111 1973.5,-111"/>
<text text-anchor="middle" x="1956.5" y="-89.3" font-family="Times,serif" font-size="14.00">comp 3</text>
</g>
<!-- 8&#45;&gt;25 -->
<g id="edge25" class="edge"><title>8&#45;&gt;25</title>
<path fill="none" stroke="black" d="M1774.18,-159.768C1811.59,-148.971 1864.19,-132.829 1917.89,-112.013"/>
<polygon fill="black" stroke="black" points="1919.18,-115.264 1927.21,-108.353 1916.63,-108.748 1919.18,-115.264"/>
</g>
<!-- 26 -->
<g id="node27" class="node"><title>26</title>
<path fill="#d3e4ff" stroke="black" d="M2140,-112C2140,-112 2015,-112 2015,-112 2009,-112 2003,-106 2003,-100 2003,-100 2003,-86 2003,-86 2003,-80 2009,-74 2015,-74 2015,-74 2140,-74 2140,-74 2146,-74 2152,-80 2152,-86 2152,-86 2152,-100 2152,-100 2152,-106 2146,-112 2140,-112"/>
<text text-anchor="middle" x="2077.5" y="-96.8" font-family="Times,serif" font-size="14.00">comp 0</text>
<text text-anchor="middle" x="2077.5" y="-81.8" font-family="Times,serif" font-size="14.00">log gamma1: &#45;1.454863</text>
</g>
<!-- 9&#45;&gt;26 -->
<g id="edge26" class="edge"><title>9&#45;&gt;26</title>
<path fill="none" stroke="black" d="M2205.06,-155.46C2181.09,-143.913 2149.81,-128.841 2124.22,-116.512"/>
<polygon fill="black" stroke="black" points="2125.61,-113.293 2115.08,-112.106 2122.57,-119.6 2125.61,-113.293"/>
</g>
<!-- 27 -->
<g id="node28" class="node"><title>27</title>
<path fill="#bfcfe6" stroke="black" d="M2302.5,-112C2302.5,-112 2182.5,-112 2182.5,-112 2176.5,-112 2170.5,-106 2170.5,-100 2170.5,-100 2170.5,-86 2170.5,-86 2170.5,-80 2176.5,-74 2182.5,-74 2182.5,-74 2302.5,-74 2302.5,-74 2308.5,-74 2314.5,-80 2314.5,-86 2314.5,-86 2314.5,-100 2314.5,-100 2314.5,-106 2308.5,-112 2302.5,-112"/>
<text text-anchor="middle" x="2242.5" y="-96.8" font-family="Times,serif" font-size="14.00">comp 1</text>
<text text-anchor="middle" x="2242.5" y="-81.8" font-family="Times,serif" font-size="14.00">log gamma1: 0.293329</text>
</g>
<!-- 9&#45;&gt;27 -->
<g id="edge27" class="edge"><title>9&#45;&gt;27</title>
<path fill="none" stroke="black" d="M2242.5,-155.46C2242.5,-145.67 2242.5,-133.345 2242.5,-122.307"/>
<polygon fill="black" stroke="black" points="2246,-122.244 2242.5,-112.244 2239,-122.244 2246,-122.244"/>
</g>
<!-- 28 -->
<g id="node29" class="node"><title>28</title>
<path fill="#abb9ce" stroke="black" d="M2544.5,-112C2544.5,-112 2344.5,-112 2344.5,-112 2338.5,-112 2332.5,-106 2332.5,-100 2332.5,-100 2332.5,-86 2332.5,-86 2332.5,-80 2338.5,-74 2344.5,-74 2344.5,-74 2544.5,-74 2544.5,-74 2550.5,-74 2556.5,-80 2556.5,-86 2556.5,-86 2556.5,-100 2556.5,-100 2556.5,-106 2550.5,-112 2544.5,-112"/>
<text text-anchor="middle" x="2444.5" y="-96.8" font-family="Times,serif" font-size="14.00">comp 2</text>
<text text-anchor="middle" x="2444.5" y="-81.8" font-family="Times,serif" font-size="14.00">log gamma1: 0.293329 &#160;&#160;n kernels: &#45;4</text>
</g>
<!-- 9&#45;&gt;28 -->
<g id="edge28" class="edge"><title>9&#45;&gt;28</title>
<path fill="none" stroke="black" d="M2288.34,-155.46C2318.19,-143.711 2357.32,-128.311 2388.94,-115.866"/>
<polygon fill="black" stroke="black" points="2390.47,-119.025 2398.5,-112.106 2387.91,-112.511 2390.47,-119.025"/>
</g>
<!-- 29 -->
<g id="node30" class="node"><title>29</title>
<path fill="#97a3b6" stroke="black" d="M2711,-112C2711,-112 2586,-112 2586,-112 2580,-112 2574,-106 2574,-100 2574,-100 2574,-86 2574,-86 2574,-80 2580,-74 2586,-74 2586,-74 2711,-74 2711,-74 2717,-74 2723,-80 2723,-86 2723,-86 2723,-100 2723,-100 2723,-106 2717,-112 2711,-112"/>
<text text-anchor="middle" x="2648.5" y="-96.8" font-family="Times,serif" font-size="14.00">comp 3</text>
<text text-anchor="middle" x="2648.5" y="-81.8" font-family="Times,serif" font-size="14.00">log gamma1: &#45;0.395248</text>
</g>
<!-- 9&#45;&gt;29 -->
<g id="edge29" class="edge"><title>9&#45;&gt;29</title>
<path fill="none" stroke="black" d="M2293.21,-164.257C2354.89,-152.922 2462.44,-132.863 2564.05,-112.274"/>
<polygon fill="black" stroke="black" points="2564.76,-115.701 2573.86,-110.28 2563.37,-108.842 2564.76,-115.701"/>
</g>
<!-- 30 -->
<g id="node31" class="node"><title>30</title>
<path fill="#f6d3ff" stroke="black" d="M67,-38C67,-38 32,-38 32,-38 26,-38 20,-32 20,-26 20,-26 20,-12 20,-12 20,-6 26,-0 32,-0 32,-0 67,-0 67,-0 73,-0 79,-6 79,-12 79,-12 79,-26 79,-26 79,-32 73,-38 67,-38"/>
<text text-anchor="middle" x="49.5" y="-22.8" font-family="Times,serif" font-size="14.00">forward</text>
<text text-anchor="middle" x="49.5" y="-7.8" font-family="Times,serif" font-size="14.00">input</text>
</g>
<!-- 10&#45;&gt;30 -->
<g id="edge30" class="edge"><title>10&#45;&gt;30</title>
<path fill="none" stroke="black" d="M49.5,-74.937C49.5,-66.9865 49.5,-57.3134 49.5,-48.3127"/>
<polygon fill="black" stroke="black" points="53.0001,-48.1991 49.5,-38.1992 46.0001,-48.1992 53.0001,-48.1991"/>
</g>
<!-- 31 -->
<g id="node32" class="node"><title>31</title>
<path fill="#f6d3ff" stroke="black" d="M211.5,-38C211.5,-38 175.5,-38 175.5,-38 169.5,-38 163.5,-32 163.5,-26 163.5,-26 163.5,-12 163.5,-12 163.5,-6 169.5,-0 175.5,-0 175.5,-0 211.5,-0 211.5,-0 217.5,-0 223.5,-6 223.5,-12 223.5,-12 223.5,-26 223.5,-26 223.5,-32 217.5,-38 211.5,-38"/>
<text text-anchor="middle" x="193.5" y="-22.8" font-family="Times,serif" font-size="14.00">forward</text>
<text text-anchor="middle" x="193.5" y="-7.8" font-family="Times,serif" font-size="14.00">EB0/C0</text>
</g>
<!-- 11&#45;&gt;31 -->
<g id="edge31" class="edge"><title>11&#45;&gt;31</title>
<path fill="none" stroke="black" d="M193.5,-73.8314C193.5,-66.131 193.5,-56.9743 193.5,-48.4166"/>
<polygon fill="black" stroke="black" points="197,-48.4132 193.5,-38.4133 190,-48.4133 197,-48.4132"/>
</g>
<!-- 32 -->
<g id="node33" class="node"><title>32</title>
<path fill="#f6d3ff" stroke="black" d="M350.5,-38C350.5,-38 314.5,-38 314.5,-38 308.5,-38 302.5,-32 302.5,-26 302.5,-26 302.5,-12 302.5,-12 302.5,-6 308.5,-0 314.5,-0 314.5,-0 350.5,-0 350.5,-0 356.5,-0 362.5,-6 362.5,-12 362.5,-12 362.5,-26 362.5,-26 362.5,-32 356.5,-38 350.5,-38"/>
<text text-anchor="middle" x="332.5" y="-22.8" font-family="Times,serif" font-size="14.00">forward</text>
<text text-anchor="middle" x="332.5" y="-7.8" font-family="Times,serif" font-size="14.00">EB1/C0</text>
</g>
<!-- 12&#45;&gt;32 -->
<g id="edge32" class="edge"><title>12&#45;&gt;32</title>
<path fill="none" stroke="black" d="M332.5,-73.8314C332.5,-66.131 332.5,-56.9743 332.5,-48.4166"/>
<polygon fill="black" stroke="black" points="336,-48.4132 332.5,-38.4133 329,-48.4133 336,-48.4132"/>
</g>
<!-- 33 -->
<g id="node34" class="node"><title>33</title>
<path fill="#f6d3ff" stroke="black" d="M446.5,-38C446.5,-38 410.5,-38 410.5,-38 404.5,-38 398.5,-32 398.5,-26 398.5,-26 398.5,-12 398.5,-12 398.5,-6 404.5,-0 410.5,-0 410.5,-0 446.5,-0 446.5,-0 452.5,-0 458.5,-6 458.5,-12 458.5,-12 458.5,-26 458.5,-26 458.5,-32 452.5,-38 446.5,-38"/>
<text text-anchor="middle" x="428.5" y="-22.8" font-family="Times,serif" font-size="14.00">forward</text>
<text text-anchor="middle" x="428.5" y="-7.8" font-family="Times,serif" font-size="14.00">EB2/C0</text>
</g>
<!-- 13&#45;&gt;33 -->
<g id="edge33" class="edge"><title>13&#45;&gt;33</title>
<path fill="none" stroke="black" d="M428.5,-74.937C428.5,-66.9865 428.5,-57.3134 428.5,-48.3127"/>
<polygon fill="black" stroke="black" points="432,-48.1991 428.5,-38.1992 425,-48.1992 432,-48.1991"/>
</g>
<!-- 34 -->
<g id="node35" class="node"><title>34</title>
<path fill="#f6d3ff" stroke="black" d="M567.5,-38C567.5,-38 531.5,-38 531.5,-38 525.5,-38 519.5,-32 519.5,-26 519.5,-26 519.5,-12 519.5,-12 519.5,-6 525.5,-0 531.5,-0 531.5,-0 567.5,-0 567.5,-0 573.5,-0 579.5,-6 579.5,-12 579.5,-12 579.5,-26 579.5,-26 579.5,-32 573.5,-38 567.5,-38"/>
<text text-anchor="middle" x="549.5" y="-22.8" font-family="Times,serif" font-size="14.00">forward</text>
<text text-anchor="middle" x="549.5" y="-7.8" font-family="Times,serif" font-size="14.00">EB2/C1</text>
</g>
<!-- 14&#45;&gt;34 -->
<g id="edge34" class="edge"><title>14&#45;&gt;34</title>
<path fill="none" stroke="black" d="M549.5,-73.8314C549.5,-66.131 549.5,-56.9743 549.5,-48.4166"/>
<polygon fill="black" stroke="black" points="553,-48.4132 549.5,-38.4133 546,-48.4133 553,-48.4132"/>
</g>
<!-- 35 -->
<g id="node36" class="node"><title>35</title>
<path fill="#f6d3ff" stroke="black" d="M687.5,-38C687.5,-38 649.5,-38 649.5,-38 643.5,-38 637.5,-32 637.5,-26 637.5,-26 637.5,-12 637.5,-12 637.5,-6 643.5,-0 649.5,-0 649.5,-0 687.5,-0 687.5,-0 693.5,-0 699.5,-6 699.5,-12 699.5,-12 699.5,-26 699.5,-26 699.5,-32 693.5,-38 687.5,-38"/>
<text text-anchor="middle" x="668.5" y="-22.8" font-family="Times,serif" font-size="14.00">forward</text>
<text text-anchor="middle" x="668.5" y="-7.8" font-family="Times,serif" font-size="14.00">DB3/C0</text>
</g>
<!-- 15&#45;&gt;35 -->
<g id="edge35" class="edge"><title>15&#45;&gt;35</title>
<path fill="none" stroke="black" d="M670.026,-74.937C669.805,-66.9865 669.536,-57.3134 669.286,-48.3127"/>
<polygon fill="black" stroke="black" points="672.782,-48.0981 669.006,-38.1992 665.785,-48.2925 672.782,-48.0981"/>
</g>
<!-- 36 -->
<g id="node37" class="node"><title>36</title>
<path fill="#f6d3ff" stroke="black" d="M767.5,-38C767.5,-38 729.5,-38 729.5,-38 723.5,-38 717.5,-32 717.5,-26 717.5,-26 717.5,-12 717.5,-12 717.5,-6 723.5,-0 729.5,-0 729.5,-0 767.5,-0 767.5,-0 773.5,-0 779.5,-6 779.5,-12 779.5,-12 779.5,-26 779.5,-26 779.5,-32 773.5,-38 767.5,-38"/>
<text text-anchor="middle" x="748.5" y="-22.8" font-family="Times,serif" font-size="14.00">forward</text>
<text text-anchor="middle" x="748.5" y="-7.8" font-family="Times,serif" font-size="14.00">DB3/C1</text>
</g>
<!-- 16&#45;&gt;36 -->
<g id="edge36" class="edge"><title>16&#45;&gt;36</title>
<path fill="none" stroke="black" d="M746.974,-74.937C747.195,-66.9865 747.464,-57.3134 747.714,-48.3127"/>
<polygon fill="black" stroke="black" points="751.215,-48.2925 747.994,-38.1992 744.218,-48.0981 751.215,-48.2925"/>
</g>
<!-- 37 -->
<g id="node38" class="node"><title>37</title>
<path fill="#f6d3ff" stroke="black" d="M861.5,-38C861.5,-38 823.5,-38 823.5,-38 817.5,-38 811.5,-32 811.5,-26 811.5,-26 811.5,-12 811.5,-12 811.5,-6 817.5,-0 823.5,-0 823.5,-0 861.5,-0 861.5,-0 867.5,-0 873.5,-6 873.5,-12 873.5,-12 873.5,-26 873.5,-26 873.5,-32 867.5,-38 861.5,-38"/>
<text text-anchor="middle" x="842.5" y="-22.8" font-family="Times,serif" font-size="14.00">forward</text>
<text text-anchor="middle" x="842.5" y="-7.8" font-family="Times,serif" font-size="14.00">DB3/C2</text>
</g>
<!-- 17&#45;&gt;37 -->
<g id="edge37" class="edge"><title>17&#45;&gt;37</title>
<path fill="none" stroke="black" d="M842.5,-73.8314C842.5,-66.131 842.5,-56.9743 842.5,-48.4166"/>
<polygon fill="black" stroke="black" points="846,-48.4132 842.5,-38.4133 839,-48.4133 846,-48.4132"/>
</g>
<!-- 38 -->
<g id="node39" class="node"><title>38</title>
<path fill="#f6d3ff" stroke="black" d="M1010.5,-38C1010.5,-38 972.5,-38 972.5,-38 966.5,-38 960.5,-32 960.5,-26 960.5,-26 960.5,-12 960.5,-12 960.5,-6 966.5,-0 972.5,-0 972.5,-0 1010.5,-0 1010.5,-0 1016.5,-0 1022.5,-6 1022.5,-12 1022.5,-12 1022.5,-26 1022.5,-26 1022.5,-32 1016.5,-38 1010.5,-38"/>
<text text-anchor="middle" x="991.5" y="-22.8" font-family="Times,serif" font-size="14.00">forward</text>
<text text-anchor="middle" x="991.5" y="-7.8" font-family="Times,serif" font-size="14.00">DB3/C3</text>
</g>
<!-- 18&#45;&gt;38 -->
<g id="edge38" class="edge"><title>18&#45;&gt;38</title>
<path fill="none" stroke="black" d="M1020.66,-73.8314C1016.3,-65.7925 1011.09,-56.1666 1006.28,-47.2918"/>
<polygon fill="black" stroke="black" points="1009.31,-45.5392 1001.47,-38.4133 1003.16,-48.8732 1009.31,-45.5392"/>
</g>
<!-- 39 -->
<g id="node40" class="node"><title>39</title>
<path fill="#debfe6" stroke="black" d="M1088.5,-38C1088.5,-38 1052.5,-38 1052.5,-38 1046.5,-38 1040.5,-32 1040.5,-26 1040.5,-26 1040.5,-12 1040.5,-12 1040.5,-6 1046.5,-0 1052.5,-0 1052.5,-0 1088.5,-0 1088.5,-0 1094.5,-0 1100.5,-6 1100.5,-12 1100.5,-12 1100.5,-26 1100.5,-26 1100.5,-32 1094.5,-38 1088.5,-38"/>
<text text-anchor="middle" x="1070.5" y="-22.8" font-family="Times,serif" font-size="14.00">merge</text>
<text text-anchor="middle" x="1070.5" y="-7.8" font-family="Times,serif" font-size="14.00">EB2/C1</text>
</g>
<!-- 18&#45;&gt;39 -->
<g id="edge39" class="edge"><title>18&#45;&gt;39</title>
<path fill="none" stroke="black" d="M1040.59,-73.8314C1045.06,-65.7925 1050.41,-56.1666 1055.34,-47.2918"/>
<polygon fill="black" stroke="black" points="1058.47,-48.8546 1060.27,-38.4133 1052.35,-45.4551 1058.47,-48.8546"/>
</g>
<!-- 40 -->
<g id="node41" class="node"><title>40</title>
<path fill="#f6d3ff" stroke="black" d="M1260.5,-38C1260.5,-38 1222.5,-38 1222.5,-38 1216.5,-38 1210.5,-32 1210.5,-26 1210.5,-26 1210.5,-12 1210.5,-12 1210.5,-6 1216.5,-0 1222.5,-0 1222.5,-0 1260.5,-0 1260.5,-0 1266.5,-0 1272.5,-6 1272.5,-12 1272.5,-12 1272.5,-26 1272.5,-26 1272.5,-32 1266.5,-38 1260.5,-38"/>
<text text-anchor="middle" x="1241.5" y="-22.8" font-family="Times,serif" font-size="14.00">forward</text>
<text text-anchor="middle" x="1241.5" y="-7.8" font-family="Times,serif" font-size="14.00">DB2/C0</text>
</g>
<!-- 19&#45;&gt;40 -->
<g id="edge40" class="edge"><title>19&#45;&gt;40</title>
<path fill="none" stroke="black" d="M1241.5,-73.8314C1241.5,-66.131 1241.5,-56.9743 1241.5,-48.4166"/>
<polygon fill="black" stroke="black" points="1245,-48.4132 1241.5,-38.4133 1238,-48.4133 1245,-48.4132"/>
</g>
<!-- 41 -->
<g id="node42" class="node"><title>41</title>
<path fill="#f6d3ff" stroke="black" d="M1377.5,-38C1377.5,-38 1339.5,-38 1339.5,-38 1333.5,-38 1327.5,-32 1327.5,-26 1327.5,-26 1327.5,-12 1327.5,-12 1327.5,-6 1333.5,-0 1339.5,-0 1339.5,-0 1377.5,-0 1377.5,-0 1383.5,-0 1389.5,-6 1389.5,-12 1389.5,-12 1389.5,-26 1389.5,-26 1389.5,-32 1383.5,-38 1377.5,-38"/>
<text text-anchor="middle" x="1358.5" y="-22.8" font-family="Times,serif" font-size="14.00">forward</text>
<text text-anchor="middle" x="1358.5" y="-7.8" font-family="Times,serif" font-size="14.00">DB2/C1</text>
</g>
<!-- 20&#45;&gt;41 -->
<g id="edge41" class="edge"><title>20&#45;&gt;41</title>
<path fill="none" stroke="black" d="M1360.03,-74.937C1359.81,-66.9865 1359.54,-57.3134 1359.29,-48.3127"/>
<polygon fill="black" stroke="black" points="1362.78,-48.0981 1359.01,-38.1992 1355.78,-48.2925 1362.78,-48.0981"/>
</g>
<!-- 42 -->
<g id="node43" class="node"><title>42</title>
<path fill="#f6d3ff" stroke="black" d="M1457.5,-38C1457.5,-38 1419.5,-38 1419.5,-38 1413.5,-38 1407.5,-32 1407.5,-26 1407.5,-26 1407.5,-12 1407.5,-12 1407.5,-6 1413.5,-0 1419.5,-0 1419.5,-0 1457.5,-0 1457.5,-0 1463.5,-0 1469.5,-6 1469.5,-12 1469.5,-12 1469.5,-26 1469.5,-26 1469.5,-32 1463.5,-38 1457.5,-38"/>
<text text-anchor="middle" x="1438.5" y="-22.8" font-family="Times,serif" font-size="14.00">forward</text>
<text text-anchor="middle" x="1438.5" y="-7.8" font-family="Times,serif" font-size="14.00">DB2/C2</text>
</g>
<!-- 21&#45;&gt;42 -->
<g id="edge42" class="edge"><title>21&#45;&gt;42</title>
<path fill="none" stroke="black" d="M1436.97,-74.937C1437.19,-66.9865 1437.46,-57.3134 1437.71,-48.3127"/>
<polygon fill="black" stroke="black" points="1441.22,-48.2925 1437.99,-38.1992 1434.22,-48.0981 1441.22,-48.2925"/>
</g>
<!-- 43 -->
<g id="node44" class="node"><title>43</title>
<path fill="#f6d3ff" stroke="black" d="M1555.5,-38C1555.5,-38 1517.5,-38 1517.5,-38 1511.5,-38 1505.5,-32 1505.5,-26 1505.5,-26 1505.5,-12 1505.5,-12 1505.5,-6 1511.5,-0 1517.5,-0 1517.5,-0 1555.5,-0 1555.5,-0 1561.5,-0 1567.5,-6 1567.5,-12 1567.5,-12 1567.5,-26 1567.5,-26 1567.5,-32 1561.5,-38 1555.5,-38"/>
<text text-anchor="middle" x="1536.5" y="-22.8" font-family="Times,serif" font-size="14.00">forward</text>
<text text-anchor="middle" x="1536.5" y="-7.8" font-family="Times,serif" font-size="14.00">DB2/C3</text>
</g>
<!-- 22&#45;&gt;43 -->
<g id="edge43" class="edge"><title>22&#45;&gt;43</title>
<path fill="none" stroke="black" d="M1552.2,-73.8314C1549.93,-66.0463 1547.23,-56.7729 1544.71,-48.1347"/>
<polygon fill="black" stroke="black" points="1548.03,-47.0332 1541.87,-38.4133 1541.31,-48.9933 1548.03,-47.0332"/>
</g>
<!-- 44 -->
<g id="node45" class="node"><title>44</title>
<path fill="#debfe6" stroke="black" d="M1633.5,-38C1633.5,-38 1597.5,-38 1597.5,-38 1591.5,-38 1585.5,-32 1585.5,-26 1585.5,-26 1585.5,-12 1585.5,-12 1585.5,-6 1591.5,-0 1597.5,-0 1597.5,-0 1633.5,-0 1633.5,-0 1639.5,-0 1645.5,-6 1645.5,-12 1645.5,-12 1645.5,-26 1645.5,-26 1645.5,-32 1639.5,-38 1633.5,-38"/>
<text text-anchor="middle" x="1615.5" y="-22.8" font-family="Times,serif" font-size="14.00">merge</text>
<text text-anchor="middle" x="1615.5" y="-7.8" font-family="Times,serif" font-size="14.00">EB1/C0</text>
</g>
<!-- 22&#45;&gt;44 -->
<g id="edge44" class="edge"><title>22&#45;&gt;44</title>
<path fill="none" stroke="black" d="M1572.14,-73.8314C1578.82,-65.5386 1586.86,-55.557 1594.19,-46.4533"/>
<polygon fill="black" stroke="black" points="1597.12,-48.3965 1600.67,-38.4133 1591.67,-44.0052 1597.12,-48.3965"/>
</g>
<!-- 45 -->
<g id="node46" class="node"><title>45</title>
<path fill="#f6d3ff" stroke="black" d="M1743.5,-38C1743.5,-38 1705.5,-38 1705.5,-38 1699.5,-38 1693.5,-32 1693.5,-26 1693.5,-26 1693.5,-12 1693.5,-12 1693.5,-6 1699.5,-0 1705.5,-0 1705.5,-0 1743.5,-0 1743.5,-0 1749.5,-0 1755.5,-6 1755.5,-12 1755.5,-12 1755.5,-26 1755.5,-26 1755.5,-32 1749.5,-38 1743.5,-38"/>
<text text-anchor="middle" x="1724.5" y="-22.8" font-family="Times,serif" font-size="14.00">forward</text>
<text text-anchor="middle" x="1724.5" y="-7.8" font-family="Times,serif" font-size="14.00">DB1/C0</text>
</g>
<!-- 23&#45;&gt;45 -->
<g id="edge45" class="edge"><title>23&#45;&gt;45</title>
<path fill="none" stroke="black" d="M1724.5,-73.8314C1724.5,-66.131 1724.5,-56.9743 1724.5,-48.4166"/>
<polygon fill="black" stroke="black" points="1728,-48.4132 1724.5,-38.4133 1721,-48.4133 1728,-48.4132"/>
</g>
<!-- 46 -->
<g id="node47" class="node"><title>46</title>
<path fill="#f6d3ff" stroke="black" d="M1882.5,-38C1882.5,-38 1844.5,-38 1844.5,-38 1838.5,-38 1832.5,-32 1832.5,-26 1832.5,-26 1832.5,-12 1832.5,-12 1832.5,-6 1838.5,-0 1844.5,-0 1844.5,-0 1882.5,-0 1882.5,-0 1888.5,-0 1894.5,-6 1894.5,-12 1894.5,-12 1894.5,-26 1894.5,-26 1894.5,-32 1888.5,-38 1882.5,-38"/>
<text text-anchor="middle" x="1863.5" y="-22.8" font-family="Times,serif" font-size="14.00">forward</text>
<text text-anchor="middle" x="1863.5" y="-7.8" font-family="Times,serif" font-size="14.00">DB1/C1</text>
</g>
<!-- 24&#45;&gt;46 -->
<g id="edge46" class="edge"><title>24&#45;&gt;46</title>
<path fill="none" stroke="black" d="M1863.5,-73.8314C1863.5,-66.131 1863.5,-56.9743 1863.5,-48.4166"/>
<polygon fill="black" stroke="black" points="1867,-48.4132 1863.5,-38.4133 1860,-48.4133 1867,-48.4132"/>
</g>
<!-- 47 -->
<g id="node48" class="node"><title>47</title>
<path fill="#f6d3ff" stroke="black" d="M1975.5,-38C1975.5,-38 1937.5,-38 1937.5,-38 1931.5,-38 1925.5,-32 1925.5,-26 1925.5,-26 1925.5,-12 1925.5,-12 1925.5,-6 1931.5,-0 1937.5,-0 1937.5,-0 1975.5,-0 1975.5,-0 1981.5,-0 1987.5,-6 1987.5,-12 1987.5,-12 1987.5,-26 1987.5,-26 1987.5,-32 1981.5,-38 1975.5,-38"/>
<text text-anchor="middle" x="1956.5" y="-22.8" font-family="Times,serif" font-size="14.00">forward</text>
<text text-anchor="middle" x="1956.5" y="-7.8" font-family="Times,serif" font-size="14.00">DB1/C2</text>
</g>
<!-- 25&#45;&gt;47 -->
<g id="edge47" class="edge"><title>25&#45;&gt;47</title>
<path fill="none" stroke="black" d="M1956.5,-74.937C1956.5,-66.9865 1956.5,-57.3134 1956.5,-48.3127"/>
<polygon fill="black" stroke="black" points="1960,-48.1991 1956.5,-38.1992 1953,-48.1992 1960,-48.1991"/>
</g>
<!-- 48 -->
<g id="node49" class="node"><title>48</title>
<path fill="#f6d3ff" stroke="black" d="M2075.5,-38C2075.5,-38 2037.5,-38 2037.5,-38 2031.5,-38 2025.5,-32 2025.5,-26 2025.5,-26 2025.5,-12 2025.5,-12 2025.5,-6 2031.5,-0 2037.5,-0 2037.5,-0 2075.5,-0 2075.5,-0 2081.5,-0 2087.5,-6 2087.5,-12 2087.5,-12 2087.5,-26 2087.5,-26 2087.5,-32 2081.5,-38 2075.5,-38"/>
<text text-anchor="middle" x="2056.5" y="-22.8" font-family="Times,serif" font-size="14.00">forward</text>
<text text-anchor="middle" x="2056.5" y="-7.8" font-family="Times,serif" font-size="14.00">DB1/C3</text>
</g>
<!-- 26&#45;&gt;48 -->
<g id="edge48" class="edge"><title>26&#45;&gt;48</title>
<path fill="none" stroke="black" d="M2072.2,-73.8314C2069.93,-66.0463 2067.23,-56.7729 2064.71,-48.1347"/>
<polygon fill="black" stroke="black" points="2068.03,-47.0332 2061.87,-38.4133 2061.31,-48.9933 2068.03,-47.0332"/>
</g>
<!-- 49 -->
<g id="node50" class="node"><title>49</title>
<path fill="#debfe6" stroke="black" d="M2153.5,-38C2153.5,-38 2117.5,-38 2117.5,-38 2111.5,-38 2105.5,-32 2105.5,-26 2105.5,-26 2105.5,-12 2105.5,-12 2105.5,-6 2111.5,-0 2117.5,-0 2117.5,-0 2153.5,-0 2153.5,-0 2159.5,-0 2165.5,-6 2165.5,-12 2165.5,-12 2165.5,-26 2165.5,-26 2165.5,-32 2159.5,-38 2153.5,-38"/>
<text text-anchor="middle" x="2135.5" y="-22.8" font-family="Times,serif" font-size="14.00">merge</text>
<text text-anchor="middle" x="2135.5" y="-7.8" font-family="Times,serif" font-size="14.00">EB0/C0</text>
</g>
<!-- 26&#45;&gt;49 -->
<g id="edge49" class="edge"><title>26&#45;&gt;49</title>
<path fill="none" stroke="black" d="M2092.14,-73.8314C2098.82,-65.5386 2106.86,-55.557 2114.19,-46.4533"/>
<polygon fill="black" stroke="black" points="2117.12,-48.3965 2120.67,-38.4133 2111.67,-44.0052 2117.12,-48.3965"/>
</g>
<!-- 50 -->
<g id="node51" class="node"><title>50</title>
<path fill="#f6d3ff" stroke="black" d="M2261.5,-38C2261.5,-38 2223.5,-38 2223.5,-38 2217.5,-38 2211.5,-32 2211.5,-26 2211.5,-26 2211.5,-12 2211.5,-12 2211.5,-6 2217.5,-0 2223.5,-0 2223.5,-0 2261.5,-0 2261.5,-0 2267.5,-0 2273.5,-6 2273.5,-12 2273.5,-12 2273.5,-26 2273.5,-26 2273.5,-32 2267.5,-38 2261.5,-38"/>
<text text-anchor="middle" x="2242.5" y="-22.8" font-family="Times,serif" font-size="14.00">forward</text>
<text text-anchor="middle" x="2242.5" y="-7.8" font-family="Times,serif" font-size="14.00">DB0/C0</text>
</g>
<!-- 27&#45;&gt;50 -->
<g id="edge50" class="edge"><title>27&#45;&gt;50</title>
<path fill="none" stroke="black" d="M2242.5,-73.8314C2242.5,-66.131 2242.5,-56.9743 2242.5,-48.4166"/>
<polygon fill="black" stroke="black" points="2246,-48.4132 2242.5,-38.4133 2239,-48.4133 2246,-48.4132"/>
</g>
<!-- 51 -->
<g id="node52" class="node"><title>51</title>
<path fill="#f6d3ff" stroke="black" d="M2463.5,-38C2463.5,-38 2425.5,-38 2425.5,-38 2419.5,-38 2413.5,-32 2413.5,-26 2413.5,-26 2413.5,-12 2413.5,-12 2413.5,-6 2419.5,-0 2425.5,-0 2425.5,-0 2463.5,-0 2463.5,-0 2469.5,-0 2475.5,-6 2475.5,-12 2475.5,-12 2475.5,-26 2475.5,-26 2475.5,-32 2469.5,-38 2463.5,-38"/>
<text text-anchor="middle" x="2444.5" y="-22.8" font-family="Times,serif" font-size="14.00">forward</text>
<text text-anchor="middle" x="2444.5" y="-7.8" font-family="Times,serif" font-size="14.00">DB0/C1</text>
</g>
<!-- 28&#45;&gt;51 -->
<g id="edge51" class="edge"><title>28&#45;&gt;51</title>
<path fill="none" stroke="black" d="M2444.5,-73.8314C2444.5,-66.131 2444.5,-56.9743 2444.5,-48.4166"/>
<polygon fill="black" stroke="black" points="2448,-48.4132 2444.5,-38.4133 2441,-48.4133 2448,-48.4132"/>
</g>
<!-- 52 -->
<g id="node53" class="node"><title>52</title>
<path fill="#f6d3ff" stroke="black" d="M2667.5,-38C2667.5,-38 2629.5,-38 2629.5,-38 2623.5,-38 2617.5,-32 2617.5,-26 2617.5,-26 2617.5,-12 2617.5,-12 2617.5,-6 2623.5,-0 2629.5,-0 2629.5,-0 2667.5,-0 2667.5,-0 2673.5,-0 2679.5,-6 2679.5,-12 2679.5,-12 2679.5,-26 2679.5,-26 2679.5,-32 2673.5,-38 2667.5,-38"/>
<text text-anchor="middle" x="2648.5" y="-22.8" font-family="Times,serif" font-size="14.00">forward</text>
<text text-anchor="middle" x="2648.5" y="-7.8" font-family="Times,serif" font-size="14.00">DB0/C2</text>
</g>
<!-- 29&#45;&gt;52 -->
<g id="edge52" class="edge"><title>29&#45;&gt;52</title>
<path fill="none" stroke="black" d="M2648.5,-73.8314C2648.5,-66.131 2648.5,-56.9743 2648.5,-48.4166"/>
<polygon fill="black" stroke="black" points="2652,-48.4132 2648.5,-38.4133 2645,-48.4133 2652,-48.4132"/>
</g>
</g>
</svg>
