<?xml version="1.0" encoding="UTF-8" standalone="no"?>
<!DOCTYPE svg PUBLIC "-//W3C//DTD SVG 1.1//EN"
 "http://www.w3.org/Graphics/SVG/1.1/DTD/svg11.dtd">
<!-- Generated by graphviz version 2.38.0 (20140413.2041)
 -->
<!-- Title: %3 Pages: 1 -->
<svg width="1655pt" height="357pt"
 viewBox="0.00 0.00 1654.50 357.00" xmlns="http://www.w3.org/2000/svg" xmlns:xlink="http://www.w3.org/1999/xlink">
<g id="graph0" class="graph" transform="scale(1 1) rotate(0) translate(4 353)">
<title>%3</title>
<polygon fill="none" stroke="none" points="-4,4 -4,-353 1650.5,-353 1650.5,4 -4,4"/>
<!-- 0 -->
<g id="node1" class="node"><title>0</title>
<path fill="#ffd3d3" stroke="black" d="M947.5,-349C947.5,-349 783.5,-349 783.5,-349 777.5,-349 771.5,-343 771.5,-337 771.5,-337 771.5,-323 771.5,-323 771.5,-317 777.5,-311 783.5,-311 783.5,-311 947.5,-311 947.5,-311 953.5,-311 959.5,-317 959.5,-323 959.5,-323 959.5,-337 959.5,-337 959.5,-343 953.5,-349 947.5,-349"/>
<text text-anchor="middle" x="865.5" y="-333.8" font-family="Times,serif" font-size="14.00">net</text>
<text text-anchor="middle" x="865.5" y="-318.8" font-family="Times,serif" font-size="14.00">n kernels: 123 &#160;&#160;pooling type: 0</text>
</g>
<!-- 1 -->
<g id="node2" class="node"><title>1</title>
<path fill="#f6ffd3" stroke="black" d="M592.5,-275C592.5,-275 392.5,-275 392.5,-275 386.5,-275 380.5,-269 380.5,-263 380.5,-263 380.5,-249 380.5,-249 380.5,-243 386.5,-237 392.5,-237 392.5,-237 592.5,-237 592.5,-237 598.5,-237 604.5,-243 604.5,-249 604.5,-249 604.5,-263 604.5,-263 604.5,-269 598.5,-275 592.5,-275"/>
<text text-anchor="middle" x="492.5" y="-259.8" font-family="Times,serif" font-size="14.00">encoder</text>
<text text-anchor="middle" x="492.5" y="-244.8" font-family="Times,serif" font-size="14.00">log gamma2: &#45;0.276721 &#160;&#160;n kernels: 6</text>
</g>
<!-- 0&#45;&gt;1 -->
<g id="edge1" class="edge"><title>0&#45;&gt;1</title>
<path fill="none" stroke="black" d="M771.858,-310.924C718.326,-300.591 651.091,-287.613 595.997,-276.978"/>
<polygon fill="black" stroke="black" points="596.339,-273.48 585.857,-275.021 595.013,-280.353 596.339,-273.48"/>
</g>
<!-- 2 -->
<g id="node3" class="node"><title>2</title>
<path fill="#f6ffd3" stroke="black" d="M1199.5,-275C1199.5,-275 999.5,-275 999.5,-275 993.5,-275 987.5,-269 987.5,-263 987.5,-263 987.5,-249 987.5,-249 987.5,-243 993.5,-237 999.5,-237 999.5,-237 1199.5,-237 1199.5,-237 1205.5,-237 1211.5,-243 1211.5,-249 1211.5,-249 1211.5,-263 1211.5,-263 1211.5,-269 1205.5,-275 1199.5,-275"/>
<text text-anchor="middle" x="1099.5" y="-259.8" font-family="Times,serif" font-size="14.00">decoder</text>
<text text-anchor="middle" x="1099.5" y="-244.8" font-family="Times,serif" font-size="14.00">log gamma2: 0.367503 &#160;&#160;n kernels: &#45;2</text>
</g>
<!-- 0&#45;&gt;2 -->
<g id="edge2" class="edge"><title>0&#45;&gt;2</title>
<path fill="none" stroke="black" d="M924.246,-310.924C956.652,-300.953 997.064,-288.519 1030.91,-278.104"/>
<polygon fill="black" stroke="black" points="1032.2,-281.369 1040.73,-275.083 1030.14,-274.679 1032.2,-281.369"/>
</g>
<!-- 3 -->
<g id="node4" class="node"><title>3</title>
<path fill="#d3ffe4" stroke="black" d="M207,-193.5C207,-193.5 12,-193.5 12,-193.5 6,-193.5 -1.42109e-14,-187.5 -1.42109e-14,-181.5 -1.42109e-14,-181.5 -1.42109e-14,-167.5 -1.42109e-14,-167.5 -1.42109e-14,-161.5 6,-155.5 12,-155.5 12,-155.5 207,-155.5 207,-155.5 213,-155.5 219,-161.5 219,-167.5 219,-167.5 219,-181.5 219,-181.5 219,-187.5 213,-193.5 207,-193.5"/>
<text text-anchor="middle" x="109.5" y="-178.3" font-family="Times,serif" font-size="14.00">encode block 0</text>
<text text-anchor="middle" x="109.5" y="-163.3" font-family="Times,serif" font-size="14.00">log gamma1: 0.055349 &#160;&#160;n kernels: 1</text>
</g>
<!-- 1&#45;&gt;3 -->
<g id="edge3" class="edge"><title>1&#45;&gt;3</title>
<path fill="none" stroke="black" d="M402.598,-236.955C351.274,-226.584 285.743,-213.227 227.5,-201 219.318,-199.282 210.82,-197.481 202.304,-195.663"/>
<polygon fill="black" stroke="black" points="202.828,-192.196 192.317,-193.526 201.364,-199.041 202.828,-192.196"/>
</g>
<!-- 4 -->
<g id="node5" class="node"><title>4</title>
<path fill="#bfe6cf" stroke="black" d="M458,-201C458,-201 249,-201 249,-201 243,-201 237,-195 237,-189 237,-189 237,-160 237,-160 237,-154 243,-148 249,-148 249,-148 458,-148 458,-148 464,-148 470,-154 470,-160 470,-160 470,-189 470,-189 470,-195 464,-201 458,-201"/>
<text text-anchor="middle" x="353.5" y="-185.8" font-family="Times,serif" font-size="14.00">encode block 1</text>
<text text-anchor="middle" x="353.5" y="-170.8" font-family="Times,serif" font-size="14.00">log gamma2: 0.000014 &#160;&#160;n kernels: 192</text>
<text text-anchor="middle" x="353.5" y="-155.8" font-family="Times,serif" font-size="14.00">spatial scale: 1</text>
</g>
<!-- 1&#45;&gt;4 -->
<g id="edge4" class="edge"><title>1&#45;&gt;4</title>
<path fill="none" stroke="black" d="M460.959,-236.96C444.989,-227.826 425.162,-216.487 406.903,-206.044"/>
<polygon fill="black" stroke="black" points="408.508,-202.929 398.09,-201.003 405.033,-209.006 408.508,-202.929"/>
</g>
<!-- 5 -->
<g id="node6" class="node"><title>5</title>
<path fill="#abceb9" stroke="black" d="M763,-201C763,-201 500,-201 500,-201 494,-201 488,-195 488,-189 488,-189 488,-160 488,-160 488,-154 494,-148 500,-148 500,-148 763,-148 763,-148 769,-148 775,-154 775,-160 775,-160 775,-189 775,-189 775,-195 769,-201 763,-201"/>
<text text-anchor="middle" x="631.5" y="-185.8" font-family="Times,serif" font-size="14.00">encode block 2</text>
<text text-anchor="middle" x="631.5" y="-170.8" font-family="Times,serif" font-size="14.00">log gamma1: &#45;0.224494 &#160;&#160;log gamma2: 0.294399</text>
<text text-anchor="middle" x="631.5" y="-155.8" font-family="Times,serif" font-size="14.00">n kernels: 576 &#160;&#160;spatial scale: 2</text>
</g>
<!-- 1&#45;&gt;5 -->
<g id="edge5" class="edge"><title>1&#45;&gt;5</title>
<path fill="none" stroke="black" d="M524.041,-236.96C540.011,-227.826 559.838,-216.487 578.097,-206.044"/>
<polygon fill="black" stroke="black" points="579.967,-209.006 586.91,-201.003 576.492,-202.929 579.967,-209.006"/>
</g>
<!-- 6 -->
<g id="node7" class="node"><title>6</title>
<path fill="#d3ffe4" stroke="black" d="M973.5,-193.5C973.5,-193.5 805.5,-193.5 805.5,-193.5 799.5,-193.5 793.5,-187.5 793.5,-181.5 793.5,-181.5 793.5,-167.5 793.5,-167.5 793.5,-161.5 799.5,-155.5 805.5,-155.5 805.5,-155.5 973.5,-155.5 973.5,-155.5 979.5,-155.5 985.5,-161.5 985.5,-167.5 985.5,-167.5 985.5,-181.5 985.5,-181.5 985.5,-187.5 979.5,-193.5 973.5,-193.5"/>
<text text-anchor="middle" x="889.5" y="-178.3" font-family="Times,serif" font-size="14.00">decode block 3</text>
<text text-anchor="middle" x="889.5" y="-163.3" font-family="Times,serif" font-size="14.00">n kernels: 3680 &#160;&#160;spatial scale: 3</text>
</g>
<!-- 2&#45;&gt;6 -->
<g id="edge6" class="edge"><title>2&#45;&gt;6</title>
<path fill="none" stroke="black" d="M1051.85,-236.96C1020.68,-225.16 979.782,-209.678 946.834,-197.205"/>
<polygon fill="black" stroke="black" points="947.918,-193.873 937.327,-193.606 945.44,-200.42 947.918,-193.873"/>
</g>
<!-- 7 -->
<g id="node8" class="node"><title>7</title>
<path fill="#bfe6cf" stroke="black" d="M1183.5,-193.5C1183.5,-193.5 1015.5,-193.5 1015.5,-193.5 1009.5,-193.5 1003.5,-187.5 1003.5,-181.5 1003.5,-181.5 1003.5,-167.5 1003.5,-167.5 1003.5,-161.5 1009.5,-155.5 1015.5,-155.5 1015.5,-155.5 1183.5,-155.5 1183.5,-155.5 1189.5,-155.5 1195.5,-161.5 1195.5,-167.5 1195.5,-167.5 1195.5,-181.5 1195.5,-181.5 1195.5,-187.5 1189.5,-193.5 1183.5,-193.5"/>
<text text-anchor="middle" x="1099.5" y="-178.3" font-family="Times,serif" font-size="14.00">decode block 2</text>
<text text-anchor="middle" x="1099.5" y="-163.3" font-family="Times,serif" font-size="14.00">n kernels: 1552 &#160;&#160;spatial scale: 2</text>
</g>
<!-- 2&#45;&gt;7 -->
<g id="edge7" class="edge"><title>2&#45;&gt;7</title>
<path fill="none" stroke="black" d="M1099.5,-236.96C1099.5,-227.17 1099.5,-214.845 1099.5,-203.807"/>
<polygon fill="black" stroke="black" points="1103,-203.744 1099.5,-193.744 1096,-203.744 1103,-203.744"/>
</g>
<!-- 8 -->
<g id="node9" class="node"><title>8</title>
<path fill="#abceb9" stroke="black" d="M1387,-193.5C1387,-193.5 1226,-193.5 1226,-193.5 1220,-193.5 1214,-187.5 1214,-181.5 1214,-181.5 1214,-167.5 1214,-167.5 1214,-161.5 1220,-155.5 1226,-155.5 1226,-155.5 1387,-155.5 1387,-155.5 1393,-155.5 1399,-161.5 1399,-167.5 1399,-167.5 1399,-181.5 1399,-181.5 1399,-187.5 1393,-193.5 1387,-193.5"/>
<text text-anchor="middle" x="1306.5" y="-178.3" font-family="Times,serif" font-size="14.00">decode block 1</text>
<text text-anchor="middle" x="1306.5" y="-163.3" font-family="Times,serif" font-size="14.00">n kernels: 552 &#160;&#160;spatial scale: 1</text>
</g>
<!-- 2&#45;&gt;8 -->
<g id="edge8" class="edge"><title>2&#45;&gt;8</title>
<path fill="none" stroke="black" d="M1146.47,-236.96C1177.2,-225.16 1217.51,-209.678 1249.98,-197.205"/>
<polygon fill="black" stroke="black" points="1251.28,-200.458 1259.36,-193.606 1248.77,-193.924 1251.28,-200.458"/>
</g>
<!-- 9 -->
<g id="node10" class="node"><title>9</title>
<path fill="#97b6a3" stroke="black" d="M1520,-193.5C1520,-193.5 1445,-193.5 1445,-193.5 1439,-193.5 1433,-187.5 1433,-181.5 1433,-181.5 1433,-167.5 1433,-167.5 1433,-161.5 1439,-155.5 1445,-155.5 1445,-155.5 1520,-155.5 1520,-155.5 1526,-155.5 1532,-161.5 1532,-167.5 1532,-167.5 1532,-181.5 1532,-181.5 1532,-187.5 1526,-193.5 1520,-193.5"/>
<text text-anchor="middle" x="1482.5" y="-178.3" font-family="Times,serif" font-size="14.00">decode block 0</text>
<text text-anchor="middle" x="1482.5" y="-163.3" font-family="Times,serif" font-size="14.00">n kernels: 1</text>
</g>
<!-- 2&#45;&gt;9 -->
<g id="edge9" class="edge"><title>2&#45;&gt;9</title>
<path fill="none" stroke="black" d="M1211.58,-239.606C1270.38,-230.462 1343.34,-217.428 1407.5,-201 1412.53,-199.711 1417.72,-198.247 1422.89,-196.688"/>
<polygon fill="black" stroke="black" points="1424.3,-199.916 1432.8,-193.594 1422.21,-193.235 1424.3,-199.916"/>
</g>
<!-- 10 -->
<g id="node11" class="node"><title>10</title>
<path fill="#d3e4ff" stroke="black" d="M88.5,-111C88.5,-111 54.5,-111 54.5,-111 48.5,-111 42.5,-105 42.5,-99 42.5,-99 42.5,-87 42.5,-87 42.5,-81 48.5,-75 54.5,-75 54.5,-75 88.5,-75 88.5,-75 94.5,-75 100.5,-81 100.5,-87 100.5,-87 100.5,-99 100.5,-99 100.5,-105 94.5,-111 88.5,-111"/>
<text text-anchor="middle" x="71.5" y="-89.3" font-family="Times,serif" font-size="14.00">comp 0</text>
</g>
<!-- 3&#45;&gt;10 -->
<g id="edge10" class="edge"><title>3&#45;&gt;10</title>
<path fill="none" stroke="black" d="M100.877,-155.46C95.916,-145.081 89.5932,-131.853 84.0852,-120.33"/>
<polygon fill="black" stroke="black" points="87.1683,-118.664 79.6979,-111.151 80.8527,-121.683 87.1683,-118.664"/>
</g>
<!-- 11 -->
<g id="node12" class="node"><title>11</title>
<path fill="#bfcfe6" stroke="black" d="M165.5,-111C165.5,-111 131.5,-111 131.5,-111 125.5,-111 119.5,-105 119.5,-99 119.5,-99 119.5,-87 119.5,-87 119.5,-81 125.5,-75 131.5,-75 131.5,-75 165.5,-75 165.5,-75 171.5,-75 177.5,-81 177.5,-87 177.5,-87 177.5,-99 177.5,-99 177.5,-105 171.5,-111 165.5,-111"/>
<text text-anchor="middle" x="148.5" y="-89.3" font-family="Times,serif" font-size="14.00">comp 1</text>
</g>
<!-- 3&#45;&gt;11 -->
<g id="edge11" class="edge"><title>3&#45;&gt;11</title>
<path fill="none" stroke="black" d="M118.35,-155.46C123.441,-145.081 129.931,-131.853 135.584,-120.33"/>
<polygon fill="black" stroke="black" points="138.824,-121.67 140.086,-111.151 132.54,-118.587 138.824,-121.67"/>
</g>
<!-- 12 -->
<g id="node13" class="node"><title>12</title>
<path fill="#d3e4ff" stroke="black" d="M332.5,-111C332.5,-111 298.5,-111 298.5,-111 292.5,-111 286.5,-105 286.5,-99 286.5,-99 286.5,-87 286.5,-87 286.5,-81 292.5,-75 298.5,-75 298.5,-75 332.5,-75 332.5,-75 338.5,-75 344.5,-81 344.5,-87 344.5,-87 344.5,-99 344.5,-99 344.5,-105 338.5,-111 332.5,-111"/>
<text text-anchor="middle" x="315.5" y="-89.3" font-family="Times,serif" font-size="14.00">comp 0</text>
</g>
<!-- 4&#45;&gt;12 -->
<g id="edge12" class="edge"><title>4&#45;&gt;12</title>
<path fill="none" stroke="black" d="M341.267,-147.908C337.061,-139.108 332.346,-129.243 328.11,-120.381"/>
<polygon fill="black" stroke="black" points="331.219,-118.769 323.748,-111.256 324.903,-121.788 331.219,-118.769"/>
</g>
<!-- 13 -->
<g id="node14" class="node"><title>13</title>
<path fill="#bfcfe6" stroke="black" d="M409.5,-111C409.5,-111 375.5,-111 375.5,-111 369.5,-111 363.5,-105 363.5,-99 363.5,-99 363.5,-87 363.5,-87 363.5,-81 369.5,-75 375.5,-75 375.5,-75 409.5,-75 409.5,-75 415.5,-75 421.5,-81 421.5,-87 421.5,-87 421.5,-99 421.5,-99 421.5,-105 415.5,-111 409.5,-111"/>
<text text-anchor="middle" x="392.5" y="-89.3" font-family="Times,serif" font-size="14.00">comp 1</text>
</g>
<!-- 4&#45;&gt;13 -->
<g id="edge13" class="edge"><title>4&#45;&gt;13</title>
<path fill="none" stroke="black" d="M366.055,-147.908C370.372,-139.108 375.211,-129.243 379.558,-120.381"/>
<polygon fill="black" stroke="black" points="382.773,-121.776 384.035,-111.256 376.488,-118.693 382.773,-121.776"/>
</g>
<!-- 14 -->
<g id="node15" class="node"><title>14</title>
<path fill="#d3e4ff" stroke="black" d="M581.5,-111C581.5,-111 547.5,-111 547.5,-111 541.5,-111 535.5,-105 535.5,-99 535.5,-99 535.5,-87 535.5,-87 535.5,-81 541.5,-75 547.5,-75 547.5,-75 581.5,-75 581.5,-75 587.5,-75 593.5,-81 593.5,-87 593.5,-87 593.5,-99 593.5,-99 593.5,-105 587.5,-111 581.5,-111"/>
<text text-anchor="middle" x="564.5" y="-89.3" font-family="Times,serif" font-size="14.00">comp 0</text>
</g>
<!-- 5&#45;&gt;14 -->
<g id="edge14" class="edge"><title>5&#45;&gt;14</title>
<path fill="none" stroke="black" d="M609.932,-147.908C602.121,-138.64 593.314,-128.19 585.549,-118.975"/>
<polygon fill="black" stroke="black" points="588.164,-116.648 579.043,-111.256 582.811,-121.159 588.164,-116.648"/>
</g>
<!-- 15 -->
<g id="node16" class="node"><title>15</title>
<path fill="#bfcfe6" stroke="black" d="M658.5,-111C658.5,-111 624.5,-111 624.5,-111 618.5,-111 612.5,-105 612.5,-99 612.5,-99 612.5,-87 612.5,-87 612.5,-81 618.5,-75 624.5,-75 624.5,-75 658.5,-75 658.5,-75 664.5,-75 670.5,-81 670.5,-87 670.5,-87 670.5,-99 670.5,-99 670.5,-105 664.5,-111 658.5,-111"/>
<text text-anchor="middle" x="641.5" y="-89.3" font-family="Times,serif" font-size="14.00">comp 1</text>
</g>
<!-- 5&#45;&gt;15 -->
<g id="edge15" class="edge"><title>5&#45;&gt;15</title>
<path fill="none" stroke="black" d="M634.719,-147.908C635.791,-139.389 636.988,-129.871 638.075,-121.232"/>
<polygon fill="black" stroke="black" points="641.554,-121.615 639.329,-111.256 634.609,-120.741 641.554,-121.615"/>
</g>
<!-- 16 -->
<g id="node17" class="node"><title>16</title>
<path fill="#d3e4ff" stroke="black" d="M830.5,-112C830.5,-112 710.5,-112 710.5,-112 704.5,-112 698.5,-106 698.5,-100 698.5,-100 698.5,-86 698.5,-86 698.5,-80 704.5,-74 710.5,-74 710.5,-74 830.5,-74 830.5,-74 836.5,-74 842.5,-80 842.5,-86 842.5,-86 842.5,-100 842.5,-100 842.5,-106 836.5,-112 830.5,-112"/>
<text text-anchor="middle" x="770.5" y="-96.8" font-family="Times,serif" font-size="14.00">comp 0</text>
<text text-anchor="middle" x="770.5" y="-81.8" font-family="Times,serif" font-size="14.00">log gamma2: 0.099612</text>
</g>
<!-- 6&#45;&gt;16 -->
<g id="edge16" class="edge"><title>6&#45;&gt;16</title>
<path fill="none" stroke="black" d="M862.497,-155.46C845.879,-144.358 824.381,-129.996 806.347,-117.948"/>
<polygon fill="black" stroke="black" points="808.067,-114.888 797.808,-112.244 804.179,-120.709 808.067,-114.888"/>
</g>
<!-- 17 -->
<g id="node18" class="node"><title>17</title>
<path fill="#bfcfe6" stroke="black" d="M906.5,-111C906.5,-111 872.5,-111 872.5,-111 866.5,-111 860.5,-105 860.5,-99 860.5,-99 860.5,-87 860.5,-87 860.5,-81 866.5,-75 872.5,-75 872.5,-75 906.5,-75 906.5,-75 912.5,-75 918.5,-81 918.5,-87 918.5,-87 918.5,-99 918.5,-99 918.5,-105 912.5,-111 906.5,-111"/>
<text text-anchor="middle" x="889.5" y="-89.3" font-family="Times,serif" font-size="14.00">comp 1</text>
</g>
<!-- 6&#45;&gt;17 -->
<g id="edge17" class="edge"><title>6&#45;&gt;17</title>
<path fill="none" stroke="black" d="M889.5,-155.46C889.5,-145.392 889.5,-132.644 889.5,-121.371"/>
<polygon fill="black" stroke="black" points="893,-121.151 889.5,-111.151 886,-121.151 893,-121.151"/>
</g>
<!-- 18 -->
<g id="node19" class="node"><title>18</title>
<path fill="#d3e4ff" stroke="black" d="M1068.5,-112C1068.5,-112 948.5,-112 948.5,-112 942.5,-112 936.5,-106 936.5,-100 936.5,-100 936.5,-86 936.5,-86 936.5,-80 942.5,-74 948.5,-74 948.5,-74 1068.5,-74 1068.5,-74 1074.5,-74 1080.5,-80 1080.5,-86 1080.5,-86 1080.5,-100 1080.5,-100 1080.5,-106 1074.5,-112 1068.5,-112"/>
<text text-anchor="middle" x="1008.5" y="-96.8" font-family="Times,serif" font-size="14.00">comp 0</text>
<text text-anchor="middle" x="1008.5" y="-81.8" font-family="Times,serif" font-size="14.00">log gamma2: 0.063879</text>
</g>
<!-- 7&#45;&gt;18 -->
<g id="edge18" class="edge"><title>7&#45;&gt;18</title>
<path fill="none" stroke="black" d="M1078.85,-155.46C1066.49,-144.661 1050.6,-130.777 1037.05,-118.939"/>
<polygon fill="black" stroke="black" points="1039.22,-116.187 1029.38,-112.244 1034.61,-121.459 1039.22,-116.187"/>
</g>
<!-- 19 -->
<g id="node20" class="node"><title>19</title>
<path fill="#bfcfe6" stroke="black" d="M1230.5,-112C1230.5,-112 1110.5,-112 1110.5,-112 1104.5,-112 1098.5,-106 1098.5,-100 1098.5,-100 1098.5,-86 1098.5,-86 1098.5,-80 1104.5,-74 1110.5,-74 1110.5,-74 1230.5,-74 1230.5,-74 1236.5,-74 1242.5,-80 1242.5,-86 1242.5,-86 1242.5,-100 1242.5,-100 1242.5,-106 1236.5,-112 1230.5,-112"/>
<text text-anchor="middle" x="1170.5" y="-96.8" font-family="Times,serif" font-size="14.00">comp 1</text>
<text text-anchor="middle" x="1170.5" y="-81.8" font-family="Times,serif" font-size="14.00">log gamma1: 0.499506</text>
</g>
<!-- 7&#45;&gt;19 -->
<g id="edge19" class="edge"><title>7&#45;&gt;19</title>
<path fill="none" stroke="black" d="M1115.61,-155.46C1124.99,-144.964 1136.96,-131.553 1147.33,-119.939"/>
<polygon fill="black" stroke="black" points="1150.16,-122.034 1154.21,-112.244 1144.94,-117.371 1150.16,-122.034"/>
</g>
<!-- 20 -->
<g id="node21" class="node"><title>20</title>
<path fill="#d3e4ff" stroke="black" d="M1315.5,-111C1315.5,-111 1281.5,-111 1281.5,-111 1275.5,-111 1269.5,-105 1269.5,-99 1269.5,-99 1269.5,-87 1269.5,-87 1269.5,-81 1275.5,-75 1281.5,-75 1281.5,-75 1315.5,-75 1315.5,-75 1321.5,-75 1327.5,-81 1327.5,-87 1327.5,-87 1327.5,-99 1327.5,-99 1327.5,-105 1321.5,-111 1315.5,-111"/>
<text text-anchor="middle" x="1298.5" y="-89.3" font-family="Times,serif" font-size="14.00">comp 0</text>
</g>
<!-- 8&#45;&gt;20 -->
<g id="edge20" class="edge"><title>8&#45;&gt;20</title>
<path fill="none" stroke="black" d="M1304.68,-155.46C1303.67,-145.392 1302.39,-132.644 1301.25,-121.371"/>
<polygon fill="black" stroke="black" points="1304.71,-120.75 1300.23,-111.151 1297.74,-121.451 1304.71,-120.75"/>
</g>
<!-- 21 -->
<g id="node22" class="node"><title>21</title>
<path fill="#bfcfe6" stroke="black" d="M1393.5,-111C1393.5,-111 1359.5,-111 1359.5,-111 1353.5,-111 1347.5,-105 1347.5,-99 1347.5,-99 1347.5,-87 1347.5,-87 1347.5,-81 1353.5,-75 1359.5,-75 1359.5,-75 1393.5,-75 1393.5,-75 1399.5,-75 1405.5,-81 1405.5,-87 1405.5,-87 1405.5,-99 1405.5,-99 1405.5,-105 1399.5,-111 1393.5,-111"/>
<text text-anchor="middle" x="1376.5" y="-89.3" font-family="Times,serif" font-size="14.00">comp 1</text>
</g>
<!-- 8&#45;&gt;21 -->
<g id="edge21" class="edge"><title>8&#45;&gt;21</title>
<path fill="none" stroke="black" d="M1322.38,-155.46C1331.89,-144.666 1344.11,-130.79 1354.53,-118.955"/>
<polygon fill="black" stroke="black" points="1357.42,-120.969 1361.4,-111.151 1352.16,-116.343 1357.42,-120.969"/>
</g>
<!-- 22 -->
<g id="node23" class="node"><title>22</title>
<path fill="#d3e4ff" stroke="black" d="M1499.5,-111C1499.5,-111 1465.5,-111 1465.5,-111 1459.5,-111 1453.5,-105 1453.5,-99 1453.5,-99 1453.5,-87 1453.5,-87 1453.5,-81 1459.5,-75 1465.5,-75 1465.5,-75 1499.5,-75 1499.5,-75 1505.5,-75 1511.5,-81 1511.5,-87 1511.5,-87 1511.5,-99 1511.5,-99 1511.5,-105 1505.5,-111 1499.5,-111"/>
<text text-anchor="middle" x="1482.5" y="-89.3" font-family="Times,serif" font-size="14.00">comp 0</text>
</g>
<!-- 9&#45;&gt;22 -->
<g id="edge22" class="edge"><title>9&#45;&gt;22</title>
<path fill="none" stroke="black" d="M1482.5,-155.46C1482.5,-145.392 1482.5,-132.644 1482.5,-121.371"/>
<polygon fill="black" stroke="black" points="1486,-121.151 1482.5,-111.151 1479,-121.151 1486,-121.151"/>
</g>
<!-- 23 -->
<g id="node24" class="node"><title>23</title>
<path fill="#bfcfe6" stroke="black" d="M1615.5,-111C1615.5,-111 1581.5,-111 1581.5,-111 1575.5,-111 1569.5,-105 1569.5,-99 1569.5,-99 1569.5,-87 1569.5,-87 1569.5,-81 1575.5,-75 1581.5,-75 1581.5,-75 1615.5,-75 1615.5,-75 1621.5,-75 1627.5,-81 1627.5,-87 1627.5,-87 1627.5,-99 1627.5,-99 1627.5,-105 1621.5,-111 1615.5,-111"/>
<text text-anchor="middle" x="1598.5" y="-89.3" font-family="Times,serif" font-size="14.00">comp 1</text>
</g>
<!-- 9&#45;&gt;23 -->
<g id="edge23" class="edge"><title>9&#45;&gt;23</title>
<path fill="none" stroke="black" d="M1508.82,-155.46C1525.48,-144.043 1547.17,-129.179 1565.04,-116.928"/>
<polygon fill="black" stroke="black" points="1567.2,-119.691 1573.47,-111.151 1563.25,-113.917 1567.2,-119.691"/>
</g>
<!-- 24 -->
<g id="node25" class="node"><title>24</title>
<path fill="#f6d3ff" stroke="black" d="M89,-38C89,-38 54,-38 54,-38 48,-38 42,-32 42,-26 42,-26 42,-12 42,-12 42,-6 48,-0 54,-0 54,-0 89,-0 89,-0 95,-0 101,-6 101,-12 101,-12 101,-26 101,-26 101,-32 95,-38 89,-38"/>
<text text-anchor="middle" x="71.5" y="-22.8" font-family="Times,serif" font-size="14.00">forward</text>
<text text-anchor="middle" x="71.5" y="-7.8" font-family="Times,serif" font-size="14.00">input</text>
</g>
<!-- 10&#45;&gt;24 -->
<g id="edge24" class="edge"><title>10&#45;&gt;24</title>
<path fill="none" stroke="black" d="M71.5,-74.937C71.5,-66.9865 71.5,-57.3134 71.5,-48.3127"/>
<polygon fill="black" stroke="black" points="75.0001,-48.1991 71.5,-38.1992 68.0001,-48.1992 75.0001,-48.1991"/>
</g>
<!-- 25 -->
<g id="node26" class="node"><title>25</title>
<path fill="#f6d3ff" stroke="black" d="M167.5,-38C167.5,-38 131.5,-38 131.5,-38 125.5,-38 119.5,-32 119.5,-26 119.5,-26 119.5,-12 119.5,-12 119.5,-6 125.5,-0 131.5,-0 131.5,-0 167.5,-0 167.5,-0 173.5,-0 179.5,-6 179.5,-12 179.5,-12 179.5,-26 179.5,-26 179.5,-32 173.5,-38 167.5,-38"/>
<text text-anchor="middle" x="149.5" y="-22.8" font-family="Times,serif" font-size="14.00">forward</text>
<text text-anchor="middle" x="149.5" y="-7.8" font-family="Times,serif" font-size="14.00">EB0/C0</text>
</g>
<!-- 11&#45;&gt;25 -->
<g id="edge25" class="edge"><title>11&#45;&gt;25</title>
<path fill="none" stroke="black" d="M148.737,-74.937C148.847,-66.9865 148.982,-57.3134 149.107,-48.3127"/>
<polygon fill="black" stroke="black" points="152.608,-48.2468 149.247,-38.1992 145.609,-48.1496 152.608,-48.2468"/>
</g>
<!-- 26 -->
<g id="node27" class="node"><title>26</title>
<path fill="#f6d3ff" stroke="black" d="M333.5,-38C333.5,-38 297.5,-38 297.5,-38 291.5,-38 285.5,-32 285.5,-26 285.5,-26 285.5,-12 285.5,-12 285.5,-6 291.5,-0 297.5,-0 297.5,-0 333.5,-0 333.5,-0 339.5,-0 345.5,-6 345.5,-12 345.5,-12 345.5,-26 345.5,-26 345.5,-32 339.5,-38 333.5,-38"/>
<text text-anchor="middle" x="315.5" y="-22.8" font-family="Times,serif" font-size="14.00">forward</text>
<text text-anchor="middle" x="315.5" y="-7.8" font-family="Times,serif" font-size="14.00">EB0/C1</text>
</g>
<!-- 12&#45;&gt;26 -->
<g id="edge26" class="edge"><title>12&#45;&gt;26</title>
<path fill="none" stroke="black" d="M315.5,-74.937C315.5,-66.9865 315.5,-57.3134 315.5,-48.3127"/>
<polygon fill="black" stroke="black" points="319,-48.1991 315.5,-38.1992 312,-48.1992 319,-48.1991"/>
</g>
<!-- 27 -->
<g id="node28" class="node"><title>27</title>
<path fill="#f6d3ff" stroke="black" d="M411.5,-38C411.5,-38 375.5,-38 375.5,-38 369.5,-38 363.5,-32 363.5,-26 363.5,-26 363.5,-12 363.5,-12 363.5,-6 369.5,-0 375.5,-0 375.5,-0 411.5,-0 411.5,-0 417.5,-0 423.5,-6 423.5,-12 423.5,-12 423.5,-26 423.5,-26 423.5,-32 417.5,-38 411.5,-38"/>
<text text-anchor="middle" x="393.5" y="-22.8" font-family="Times,serif" font-size="14.00">forward</text>
<text text-anchor="middle" x="393.5" y="-7.8" font-family="Times,serif" font-size="14.00">EB1/C0</text>
</g>
<!-- 13&#45;&gt;27 -->
<g id="edge27" class="edge"><title>13&#45;&gt;27</title>
<path fill="none" stroke="black" d="M392.737,-74.937C392.847,-66.9865 392.982,-57.3134 393.107,-48.3127"/>
<polygon fill="black" stroke="black" points="396.608,-48.2468 393.247,-38.1992 389.609,-48.1496 396.608,-48.2468"/>
</g>
<!-- 28 -->
<g id="node29" class="node"><title>28</title>
<path fill="#f6d3ff" stroke="black" d="M582.5,-38C582.5,-38 546.5,-38 546.5,-38 540.5,-38 534.5,-32 534.5,-26 534.5,-26 534.5,-12 534.5,-12 534.5,-6 540.5,-0 546.5,-0 546.5,-0 582.5,-0 582.5,-0 588.5,-0 594.5,-6 594.5,-12 594.5,-12 594.5,-26 594.5,-26 594.5,-32 588.5,-38 582.5,-38"/>
<text text-anchor="middle" x="564.5" y="-22.8" font-family="Times,serif" font-size="14.00">forward</text>
<text text-anchor="middle" x="564.5" y="-7.8" font-family="Times,serif" font-size="14.00">EB1/C1</text>
</g>
<!-- 14&#45;&gt;28 -->
<g id="edge28" class="edge"><title>14&#45;&gt;28</title>
<path fill="none" stroke="black" d="M564.5,-74.937C564.5,-66.9865 564.5,-57.3134 564.5,-48.3127"/>
<polygon fill="black" stroke="black" points="568,-48.1991 564.5,-38.1992 561,-48.1992 568,-48.1991"/>
</g>
<!-- 29 -->
<g id="node30" class="node"><title>29</title>
<path fill="#f6d3ff" stroke="black" d="M660.5,-38C660.5,-38 624.5,-38 624.5,-38 618.5,-38 612.5,-32 612.5,-26 612.5,-26 612.5,-12 612.5,-12 612.5,-6 618.5,-0 624.5,-0 624.5,-0 660.5,-0 660.5,-0 666.5,-0 672.5,-6 672.5,-12 672.5,-12 672.5,-26 672.5,-26 672.5,-32 666.5,-38 660.5,-38"/>
<text text-anchor="middle" x="642.5" y="-22.8" font-family="Times,serif" font-size="14.00">forward</text>
<text text-anchor="middle" x="642.5" y="-7.8" font-family="Times,serif" font-size="14.00">EB2/C0</text>
</g>
<!-- 15&#45;&gt;29 -->
<g id="edge29" class="edge"><title>15&#45;&gt;29</title>
<path fill="none" stroke="black" d="M641.737,-74.937C641.847,-66.9865 641.982,-57.3134 642.107,-48.3127"/>
<polygon fill="black" stroke="black" points="645.608,-48.2468 642.247,-38.1992 638.609,-48.1496 645.608,-48.2468"/>
</g>
<!-- 30 -->
<g id="node31" class="node"><title>30</title>
<path fill="#f6d3ff" stroke="black" d="M788.5,-38C788.5,-38 752.5,-38 752.5,-38 746.5,-38 740.5,-32 740.5,-26 740.5,-26 740.5,-12 740.5,-12 740.5,-6 746.5,-0 752.5,-0 752.5,-0 788.5,-0 788.5,-0 794.5,-0 800.5,-6 800.5,-12 800.5,-12 800.5,-26 800.5,-26 800.5,-32 794.5,-38 788.5,-38"/>
<text text-anchor="middle" x="770.5" y="-22.8" font-family="Times,serif" font-size="14.00">forward</text>
<text text-anchor="middle" x="770.5" y="-7.8" font-family="Times,serif" font-size="14.00">EB2/C1</text>
</g>
<!-- 16&#45;&gt;30 -->
<g id="edge30" class="edge"><title>16&#45;&gt;30</title>
<path fill="none" stroke="black" d="M770.5,-73.8314C770.5,-66.131 770.5,-56.9743 770.5,-48.4166"/>
<polygon fill="black" stroke="black" points="774,-48.4132 770.5,-38.4133 767,-48.4133 774,-48.4132"/>
</g>
<!-- 31 -->
<g id="node32" class="node"><title>31</title>
<path fill="#f6d3ff" stroke="black" d="M908.5,-38C908.5,-38 870.5,-38 870.5,-38 864.5,-38 858.5,-32 858.5,-26 858.5,-26 858.5,-12 858.5,-12 858.5,-6 864.5,-0 870.5,-0 870.5,-0 908.5,-0 908.5,-0 914.5,-0 920.5,-6 920.5,-12 920.5,-12 920.5,-26 920.5,-26 920.5,-32 914.5,-38 908.5,-38"/>
<text text-anchor="middle" x="889.5" y="-22.8" font-family="Times,serif" font-size="14.00">forward</text>
<text text-anchor="middle" x="889.5" y="-7.8" font-family="Times,serif" font-size="14.00">DB3/C0</text>
</g>
<!-- 17&#45;&gt;31 -->
<g id="edge31" class="edge"><title>17&#45;&gt;31</title>
<path fill="none" stroke="black" d="M889.5,-74.937C889.5,-66.9865 889.5,-57.3134 889.5,-48.3127"/>
<polygon fill="black" stroke="black" points="893,-48.1991 889.5,-38.1992 886,-48.1992 893,-48.1991"/>
</g>
<!-- 32 -->
<g id="node33" class="node"><title>32</title>
<path fill="#f6d3ff" stroke="black" d="M994.5,-38C994.5,-38 956.5,-38 956.5,-38 950.5,-38 944.5,-32 944.5,-26 944.5,-26 944.5,-12 944.5,-12 944.5,-6 950.5,-0 956.5,-0 956.5,-0 994.5,-0 994.5,-0 1000.5,-0 1006.5,-6 1006.5,-12 1006.5,-12 1006.5,-26 1006.5,-26 1006.5,-32 1000.5,-38 994.5,-38"/>
<text text-anchor="middle" x="975.5" y="-22.8" font-family="Times,serif" font-size="14.00">forward</text>
<text text-anchor="middle" x="975.5" y="-7.8" font-family="Times,serif" font-size="14.00">DB3/C1</text>
</g>
<!-- 18&#45;&gt;32 -->
<g id="edge32" class="edge"><title>18&#45;&gt;32</title>
<path fill="none" stroke="black" d="M1000.17,-73.8314C996.527,-65.8771 992.169,-56.369 988.137,-47.5723"/>
<polygon fill="black" stroke="black" points="991.288,-46.0456 983.939,-38.4133 984.924,-48.9622 991.288,-46.0456"/>
</g>
<!-- 33 -->
<g id="node34" class="node"><title>33</title>
<path fill="#debfe6" stroke="black" d="M1072.5,-38C1072.5,-38 1036.5,-38 1036.5,-38 1030.5,-38 1024.5,-32 1024.5,-26 1024.5,-26 1024.5,-12 1024.5,-12 1024.5,-6 1030.5,-0 1036.5,-0 1036.5,-0 1072.5,-0 1072.5,-0 1078.5,-0 1084.5,-6 1084.5,-12 1084.5,-12 1084.5,-26 1084.5,-26 1084.5,-32 1078.5,-38 1072.5,-38"/>
<text text-anchor="middle" x="1054.5" y="-22.8" font-family="Times,serif" font-size="14.00">merge</text>
<text text-anchor="middle" x="1054.5" y="-7.8" font-family="Times,serif" font-size="14.00">EB2/C1</text>
</g>
<!-- 18&#45;&gt;33 -->
<g id="edge33" class="edge"><title>18&#45;&gt;33</title>
<path fill="none" stroke="black" d="M1020.11,-73.8314C1025.3,-65.7079 1031.52,-55.9637 1037.24,-47.0118"/>
<polygon fill="black" stroke="black" points="1040.3,-48.7246 1042.74,-38.4133 1034.4,-44.9559 1040.3,-48.7246"/>
</g>
<!-- 34 -->
<g id="node35" class="node"><title>34</title>
<path fill="#f6d3ff" stroke="black" d="M1158.5,-38C1158.5,-38 1120.5,-38 1120.5,-38 1114.5,-38 1108.5,-32 1108.5,-26 1108.5,-26 1108.5,-12 1108.5,-12 1108.5,-6 1114.5,-0 1120.5,-0 1120.5,-0 1158.5,-0 1158.5,-0 1164.5,-0 1170.5,-6 1170.5,-12 1170.5,-12 1170.5,-26 1170.5,-26 1170.5,-32 1164.5,-38 1158.5,-38"/>
<text text-anchor="middle" x="1139.5" y="-22.8" font-family="Times,serif" font-size="14.00">forward</text>
<text text-anchor="middle" x="1139.5" y="-7.8" font-family="Times,serif" font-size="14.00">DB2/C0</text>
</g>
<!-- 19&#45;&gt;34 -->
<g id="edge34" class="edge"><title>19&#45;&gt;34</title>
<path fill="none" stroke="black" d="M1162.68,-73.8314C1159.29,-65.9617 1155.25,-56.5712 1151.49,-47.8533"/>
<polygon fill="black" stroke="black" points="1154.6,-46.214 1147.43,-38.4133 1148.17,-48.9822 1154.6,-46.214"/>
</g>
<!-- 35 -->
<g id="node36" class="node"><title>35</title>
<path fill="#f6d3ff" stroke="black" d="M1238.5,-38C1238.5,-38 1200.5,-38 1200.5,-38 1194.5,-38 1188.5,-32 1188.5,-26 1188.5,-26 1188.5,-12 1188.5,-12 1188.5,-6 1194.5,-0 1200.5,-0 1200.5,-0 1238.5,-0 1238.5,-0 1244.5,-0 1250.5,-6 1250.5,-12 1250.5,-12 1250.5,-26 1250.5,-26 1250.5,-32 1244.5,-38 1238.5,-38"/>
<text text-anchor="middle" x="1219.5" y="-22.8" font-family="Times,serif" font-size="14.00">forward</text>
<text text-anchor="middle" x="1219.5" y="-7.8" font-family="Times,serif" font-size="14.00">DB2/C1</text>
</g>
<!-- 20&#45;&gt;35 -->
<g id="edge35" class="edge"><title>20&#45;&gt;35</title>
<path fill="none" stroke="black" d="M1279.78,-74.937C1270.01,-66.0359 1257.88,-54.9756 1247.06,-45.1172"/>
<polygon fill="black" stroke="black" points="1249.22,-42.3484 1239.47,-38.1992 1244.5,-47.5221 1249.22,-42.3484"/>
</g>
<!-- 36 -->
<g id="node37" class="node"><title>36</title>
<path fill="#debfe6" stroke="black" d="M1316.5,-38C1316.5,-38 1280.5,-38 1280.5,-38 1274.5,-38 1268.5,-32 1268.5,-26 1268.5,-26 1268.5,-12 1268.5,-12 1268.5,-6 1274.5,-0 1280.5,-0 1280.5,-0 1316.5,-0 1316.5,-0 1322.5,-0 1328.5,-6 1328.5,-12 1328.5,-12 1328.5,-26 1328.5,-26 1328.5,-32 1322.5,-38 1316.5,-38"/>
<text text-anchor="middle" x="1298.5" y="-22.8" font-family="Times,serif" font-size="14.00">merge</text>
<text text-anchor="middle" x="1298.5" y="-7.8" font-family="Times,serif" font-size="14.00">EB1/C1</text>
</g>
<!-- 20&#45;&gt;36 -->
<g id="edge36" class="edge"><title>20&#45;&gt;36</title>
<path fill="none" stroke="black" d="M1298.5,-74.937C1298.5,-66.9865 1298.5,-57.3134 1298.5,-48.3127"/>
<polygon fill="black" stroke="black" points="1302,-48.1991 1298.5,-38.1992 1295,-48.1992 1302,-48.1991"/>
</g>
<!-- 37 -->
<g id="node38" class="node"><title>37</title>
<path fill="#f6d3ff" stroke="black" d="M1396.5,-38C1396.5,-38 1358.5,-38 1358.5,-38 1352.5,-38 1346.5,-32 1346.5,-26 1346.5,-26 1346.5,-12 1346.5,-12 1346.5,-6 1352.5,-0 1358.5,-0 1358.5,-0 1396.5,-0 1396.5,-0 1402.5,-0 1408.5,-6 1408.5,-12 1408.5,-12 1408.5,-26 1408.5,-26 1408.5,-32 1402.5,-38 1396.5,-38"/>
<text text-anchor="middle" x="1377.5" y="-22.8" font-family="Times,serif" font-size="14.00">forward</text>
<text text-anchor="middle" x="1377.5" y="-7.8" font-family="Times,serif" font-size="14.00">DB1/C0</text>
</g>
<!-- 21&#45;&gt;37 -->
<g id="edge37" class="edge"><title>21&#45;&gt;37</title>
<path fill="none" stroke="black" d="M1376.74,-74.937C1376.85,-66.9865 1376.98,-57.3134 1377.11,-48.3127"/>
<polygon fill="black" stroke="black" points="1380.61,-48.2468 1377.25,-38.1992 1373.61,-48.1496 1380.61,-48.2468"/>
</g>
<!-- 38 -->
<g id="node39" class="node"><title>38</title>
<path fill="#f6d3ff" stroke="black" d="M1476.5,-38C1476.5,-38 1438.5,-38 1438.5,-38 1432.5,-38 1426.5,-32 1426.5,-26 1426.5,-26 1426.5,-12 1426.5,-12 1426.5,-6 1432.5,-0 1438.5,-0 1438.5,-0 1476.5,-0 1476.5,-0 1482.5,-0 1488.5,-6 1488.5,-12 1488.5,-12 1488.5,-26 1488.5,-26 1488.5,-32 1482.5,-38 1476.5,-38"/>
<text text-anchor="middle" x="1457.5" y="-22.8" font-family="Times,serif" font-size="14.00">forward</text>
<text text-anchor="middle" x="1457.5" y="-7.8" font-family="Times,serif" font-size="14.00">DB1/C1</text>
</g>
<!-- 22&#45;&gt;38 -->
<g id="edge38" class="edge"><title>22&#45;&gt;38</title>
<path fill="none" stroke="black" d="M1476.58,-74.937C1473.75,-66.8137 1470.31,-56.892 1467.13,-47.7267"/>
<polygon fill="black" stroke="black" points="1470.41,-46.4978 1463.82,-38.1992 1463.79,-48.794 1470.41,-46.4978"/>
</g>
<!-- 39 -->
<g id="node40" class="node"><title>39</title>
<path fill="#debfe6" stroke="black" d="M1554.5,-38C1554.5,-38 1518.5,-38 1518.5,-38 1512.5,-38 1506.5,-32 1506.5,-26 1506.5,-26 1506.5,-12 1506.5,-12 1506.5,-6 1512.5,-0 1518.5,-0 1518.5,-0 1554.5,-0 1554.5,-0 1560.5,-0 1566.5,-6 1566.5,-12 1566.5,-12 1566.5,-26 1566.5,-26 1566.5,-32 1560.5,-38 1554.5,-38"/>
<text text-anchor="middle" x="1536.5" y="-22.8" font-family="Times,serif" font-size="14.00">merge</text>
<text text-anchor="middle" x="1536.5" y="-7.8" font-family="Times,serif" font-size="14.00">EB0/C1</text>
</g>
<!-- 22&#45;&gt;39 -->
<g id="edge39" class="edge"><title>22&#45;&gt;39</title>
<path fill="none" stroke="black" d="M1495.3,-74.937C1501.71,-66.3816 1509.63,-55.8314 1516.8,-46.271"/>
<polygon fill="black" stroke="black" points="1519.65,-48.2992 1522.85,-38.1992 1514.05,-44.0992 1519.65,-48.2992"/>
</g>
<!-- 40 -->
<g id="node41" class="node"><title>40</title>
<path fill="#f6d3ff" stroke="black" d="M1634.5,-38C1634.5,-38 1596.5,-38 1596.5,-38 1590.5,-38 1584.5,-32 1584.5,-26 1584.5,-26 1584.5,-12 1584.5,-12 1584.5,-6 1590.5,-0 1596.5,-0 1596.5,-0 1634.5,-0 1634.5,-0 1640.5,-0 1646.5,-6 1646.5,-12 1646.5,-12 1646.5,-26 1646.5,-26 1646.5,-32 1640.5,-38 1634.5,-38"/>
<text text-anchor="middle" x="1615.5" y="-22.8" font-family="Times,serif" font-size="14.00">forward</text>
<text text-anchor="middle" x="1615.5" y="-7.8" font-family="Times,serif" font-size="14.00">DB0/C0</text>
</g>
<!-- 23&#45;&gt;40 -->
<g id="edge40" class="edge"><title>23&#45;&gt;40</title>
<path fill="none" stroke="black" d="M1602.53,-74.937C1604.43,-66.9001 1606.74,-57.1029 1608.88,-48.0195"/>
<polygon fill="black" stroke="black" points="1612.31,-48.7359 1611.2,-38.1992 1605.5,-47.1273 1612.31,-48.7359"/>
</g>
</g>
</svg>
