<?xml version="1.0" encoding="UTF-8" standalone="no"?>
<!DOCTYPE svg PUBLIC "-//W3C//DTD SVG 1.1//EN"
 "http://www.w3.org/Graphics/SVG/1.1/DTD/svg11.dtd">
<!-- Generated by graphviz version 2.38.0 (20140413.2041)
 -->
<!-- Title: %3 Pages: 1 -->
<svg width="2239pt" height="387pt"
 viewBox="0.00 0.00 2238.50 387.00" xmlns="http://www.w3.org/2000/svg" xmlns:xlink="http://www.w3.org/1999/xlink">
<g id="graph0" class="graph" transform="scale(1 1) rotate(0) translate(4 383)">
<title>%3</title>
<polygon fill="none" stroke="none" points="-4,4 -4,-383 2234.5,-383 2234.5,4 -4,4"/>
<!-- 0 -->
<g id="node1" class="node"><title>0</title>
<path fill="#ffd3d3" stroke="black" d="M1075,-379C1075,-379 1012,-379 1012,-379 1006,-379 1000,-373 1000,-367 1000,-367 1000,-353 1000,-353 1000,-347 1006,-341 1012,-341 1012,-341 1075,-341 1075,-341 1081,-341 1087,-347 1087,-353 1087,-353 1087,-367 1087,-367 1087,-373 1081,-379 1075,-379"/>
<text text-anchor="middle" x="1043.5" y="-363.8" font-family="Times,serif" font-size="14.00">net</text>
<text text-anchor="middle" x="1043.5" y="-348.8" font-family="Times,serif" font-size="14.00">n kernels: 65</text>
</g>
<!-- 1 -->
<g id="node2" class="node"><title>1</title>
<path fill="#f6ffd3" stroke="black" d="M963,-297.5C963,-297.5 704,-297.5 704,-297.5 698,-297.5 692,-291.5 692,-285.5 692,-285.5 692,-271.5 692,-271.5 692,-265.5 698,-259.5 704,-259.5 704,-259.5 963,-259.5 963,-259.5 969,-259.5 975,-265.5 975,-271.5 975,-271.5 975,-285.5 975,-285.5 975,-291.5 969,-297.5 963,-297.5"/>
<text text-anchor="middle" x="833.5" y="-282.3" font-family="Times,serif" font-size="14.00">encoder</text>
<text text-anchor="middle" x="833.5" y="-267.3" font-family="Times,serif" font-size="14.00">log gamma1: 0.221755 &#160;&#160;log gamma2: 0.417774</text>
</g>
<!-- 0&#45;&gt;1 -->
<g id="edge1" class="edge"><title>0&#45;&gt;1</title>
<path fill="none" stroke="black" d="M999.988,-342.528C968.362,-330.555 925.245,-314.232 890.813,-301.197"/>
<polygon fill="black" stroke="black" points="891.941,-297.882 881.349,-297.614 889.462,-304.428 891.941,-297.882"/>
</g>
<!-- 2 -->
<g id="node3" class="node"><title>2</title>
<path fill="#f6ffd3" stroke="black" d="M1387.5,-305C1387.5,-305 1119.5,-305 1119.5,-305 1113.5,-305 1107.5,-299 1107.5,-293 1107.5,-293 1107.5,-264 1107.5,-264 1107.5,-258 1113.5,-252 1119.5,-252 1119.5,-252 1387.5,-252 1387.5,-252 1393.5,-252 1399.5,-258 1399.5,-264 1399.5,-264 1399.5,-293 1399.5,-293 1399.5,-299 1393.5,-305 1387.5,-305"/>
<text text-anchor="middle" x="1253.5" y="-289.8" font-family="Times,serif" font-size="14.00">decoder</text>
<text text-anchor="middle" x="1253.5" y="-274.8" font-family="Times,serif" font-size="14.00">log gamma1: &#45;0.216423 &#160;&#160;log gamma2: &#45;0.443556</text>
<text text-anchor="middle" x="1253.5" y="-259.8" font-family="Times,serif" font-size="14.00">n kernels: 3 &#160;&#160;pooling type: &#45;1</text>
</g>
<!-- 0&#45;&gt;2 -->
<g id="edge2" class="edge"><title>0&#45;&gt;2</title>
<path fill="none" stroke="black" d="M1087.01,-342.528C1112.81,-332.76 1146.26,-320.098 1176.4,-308.687"/>
<polygon fill="black" stroke="black" points="1177.94,-311.846 1186.06,-305.032 1175.47,-305.299 1177.94,-311.846"/>
</g>
<!-- 3 -->
<g id="node4" class="node"><title>3</title>
<path fill="#d3ffe4" stroke="black" d="M546.5,-216C546.5,-216 346.5,-216 346.5,-216 340.5,-216 334.5,-210 334.5,-204 334.5,-204 334.5,-175 334.5,-175 334.5,-169 340.5,-163 346.5,-163 346.5,-163 546.5,-163 546.5,-163 552.5,-163 558.5,-169 558.5,-175 558.5,-175 558.5,-204 558.5,-204 558.5,-210 552.5,-216 546.5,-216"/>
<text text-anchor="middle" x="446.5" y="-200.8" font-family="Times,serif" font-size="14.00">encode block 0</text>
<text text-anchor="middle" x="446.5" y="-185.8" font-family="Times,serif" font-size="14.00">log gamma1: &#45;0.386016 &#160;&#160;n kernels: 1</text>
<text text-anchor="middle" x="446.5" y="-170.8" font-family="Times,serif" font-size="14.00">pooling type: 1</text>
</g>
<!-- 1&#45;&gt;3 -->
<g id="edge3" class="edge"><title>1&#45;&gt;3</title>
<path fill="none" stroke="black" d="M753.313,-259.474C700.044,-247.498 629.085,-231.546 568.826,-218"/>
<polygon fill="black" stroke="black" points="569.391,-214.539 558.867,-215.761 567.856,-221.369 569.391,-214.539"/>
</g>
<!-- 4 -->
<g id="node5" class="node"><title>4</title>
<path fill="#bfe6cf" stroke="black" d="M936.5,-216C936.5,-216 730.5,-216 730.5,-216 724.5,-216 718.5,-210 718.5,-204 718.5,-204 718.5,-175 718.5,-175 718.5,-169 724.5,-163 730.5,-163 730.5,-163 936.5,-163 936.5,-163 942.5,-163 948.5,-169 948.5,-175 948.5,-175 948.5,-204 948.5,-204 948.5,-210 942.5,-216 936.5,-216"/>
<text text-anchor="middle" x="833.5" y="-200.8" font-family="Times,serif" font-size="14.00">encode block 1</text>
<text text-anchor="middle" x="833.5" y="-185.8" font-family="Times,serif" font-size="14.00">log gamma1: 0.097582 &#160;&#160;n kernels: &#45;10</text>
<text text-anchor="middle" x="833.5" y="-170.8" font-family="Times,serif" font-size="14.00">spatial scale: 1</text>
</g>
<!-- 1&#45;&gt;4 -->
<g id="edge4" class="edge"><title>1&#45;&gt;4</title>
<path fill="none" stroke="black" d="M833.5,-259.474C833.5,-249.871 833.5,-237.711 833.5,-226.285"/>
<polygon fill="black" stroke="black" points="837,-226.092 833.5,-216.092 830,-226.092 837,-226.092"/>
</g>
<!-- 5 -->
<g id="node6" class="node"><title>5</title>
<path fill="#d3ffe4" stroke="black" d="M1353.5,-216C1353.5,-216 1153.5,-216 1153.5,-216 1147.5,-216 1141.5,-210 1141.5,-204 1141.5,-204 1141.5,-175 1141.5,-175 1141.5,-169 1147.5,-163 1153.5,-163 1153.5,-163 1353.5,-163 1353.5,-163 1359.5,-163 1365.5,-169 1365.5,-175 1365.5,-175 1365.5,-204 1365.5,-204 1365.5,-210 1359.5,-216 1353.5,-216"/>
<text text-anchor="middle" x="1253.5" y="-200.8" font-family="Times,serif" font-size="14.00">decode block 1</text>
<text text-anchor="middle" x="1253.5" y="-185.8" font-family="Times,serif" font-size="14.00">log gamma1: &#45;0.115886 &#160;&#160;n kernels: 5</text>
<text text-anchor="middle" x="1253.5" y="-170.8" font-family="Times,serif" font-size="14.00">pooling type: 1 &#160;&#160;spatial scale: 1</text>
</g>
<!-- 2&#45;&gt;5 -->
<g id="edge5" class="edge"><title>2&#45;&gt;5</title>
<path fill="none" stroke="black" d="M1253.5,-251.868C1253.5,-243.886 1253.5,-234.932 1253.5,-226.384"/>
<polygon fill="black" stroke="black" points="1257,-226.25 1253.5,-216.25 1250,-226.25 1257,-226.25"/>
</g>
<!-- 6 -->
<g id="node7" class="node"><title>6</title>
<path fill="#bfe6cf" stroke="black" d="M1976,-216C1976,-216 1713,-216 1713,-216 1707,-216 1701,-210 1701,-204 1701,-204 1701,-175 1701,-175 1701,-169 1707,-163 1713,-163 1713,-163 1976,-163 1976,-163 1982,-163 1988,-169 1988,-175 1988,-175 1988,-204 1988,-204 1988,-210 1982,-216 1976,-216"/>
<text text-anchor="middle" x="1844.5" y="-200.8" font-family="Times,serif" font-size="14.00">decode block 0</text>
<text text-anchor="middle" x="1844.5" y="-185.8" font-family="Times,serif" font-size="14.00">log gamma1: &#45;0.127480 &#160;&#160;log gamma2: 0.048816</text>
<text text-anchor="middle" x="1844.5" y="-170.8" font-family="Times,serif" font-size="14.00">n kernels: 2</text>
</g>
<!-- 2&#45;&gt;6 -->
<g id="edge6" class="edge"><title>2&#45;&gt;6</title>
<path fill="none" stroke="black" d="M1399.59,-255.994C1488.13,-242.96 1600.97,-226.35 1690.85,-213.119"/>
<polygon fill="black" stroke="black" points="1691.47,-216.565 1700.86,-211.646 1690.45,-209.639 1691.47,-216.565"/>
</g>
<!-- 7 -->
<g id="node8" class="node"><title>7</title>
<path fill="#d3e4ff" stroke="black" d="M275,-127C275,-127 12,-127 12,-127 6,-127 0,-121 0,-115 0,-115 0,-86 0,-86 0,-80 6,-74 12,-74 12,-74 275,-74 275,-74 281,-74 287,-80 287,-86 287,-86 287,-115 287,-115 287,-121 281,-127 275,-127"/>
<text text-anchor="middle" x="143.5" y="-111.8" font-family="Times,serif" font-size="14.00">comp 0</text>
<text text-anchor="middle" x="143.5" y="-96.8" font-family="Times,serif" font-size="14.00">log gamma1: &#45;0.153653 &#160;&#160;log gamma2: 0.379915</text>
<text text-anchor="middle" x="143.5" y="-81.8" font-family="Times,serif" font-size="14.00">n kernels: 8</text>
</g>
<!-- 3&#45;&gt;7 -->
<g id="edge7" class="edge"><title>3&#45;&gt;7</title>
<path fill="none" stroke="black" d="M357.637,-162.985C321.41,-152.583 279.383,-140.516 242.204,-129.841"/>
<polygon fill="black" stroke="black" points="242.939,-126.41 232.361,-127.015 241.007,-133.138 242.939,-126.41"/>
</g>
<!-- 8 -->
<g id="node9" class="node"><title>8</title>
<path fill="#bfcfe6" stroke="black" d="M576,-119.5C576,-119.5 317,-119.5 317,-119.5 311,-119.5 305,-113.5 305,-107.5 305,-107.5 305,-93.5 305,-93.5 305,-87.5 311,-81.5 317,-81.5 317,-81.5 576,-81.5 576,-81.5 582,-81.5 588,-87.5 588,-93.5 588,-93.5 588,-107.5 588,-107.5 588,-113.5 582,-119.5 576,-119.5"/>
<text text-anchor="middle" x="446.5" y="-104.3" font-family="Times,serif" font-size="14.00">comp 1</text>
<text text-anchor="middle" x="446.5" y="-89.3" font-family="Times,serif" font-size="14.00">log gamma1: 0.104726 &#160;&#160;log gamma2: 0.006408</text>
</g>
<!-- 3&#45;&gt;8 -->
<g id="edge8" class="edge"><title>3&#45;&gt;8</title>
<path fill="none" stroke="black" d="M446.5,-162.868C446.5,-152.417 446.5,-140.301 446.5,-129.609"/>
<polygon fill="black" stroke="black" points="450,-129.507 446.5,-119.507 443,-129.507 450,-129.507"/>
</g>
<!-- 9 -->
<g id="node10" class="node"><title>9</title>
<path fill="#d3e4ff" stroke="black" d="M818.5,-127C818.5,-127 618.5,-127 618.5,-127 612.5,-127 606.5,-121 606.5,-115 606.5,-115 606.5,-86 606.5,-86 606.5,-80 612.5,-74 618.5,-74 618.5,-74 818.5,-74 818.5,-74 824.5,-74 830.5,-80 830.5,-86 830.5,-86 830.5,-115 830.5,-115 830.5,-121 824.5,-127 818.5,-127"/>
<text text-anchor="middle" x="718.5" y="-111.8" font-family="Times,serif" font-size="14.00">comp 0</text>
<text text-anchor="middle" x="718.5" y="-96.8" font-family="Times,serif" font-size="14.00">log gamma1: 0.366492 &#160;&#160;n kernels: &#45;7</text>
<text text-anchor="middle" x="718.5" y="-81.8" font-family="Times,serif" font-size="14.00">pooling type: 1</text>
</g>
<!-- 4&#45;&gt;9 -->
<g id="edge9" class="edge"><title>4&#45;&gt;9</title>
<path fill="none" stroke="black" d="M799.618,-162.868C787.444,-153.658 773.56,-143.154 760.762,-133.472"/>
<polygon fill="black" stroke="black" points="762.624,-130.492 752.537,-127.25 758.4,-136.074 762.624,-130.492"/>
</g>
<!-- 10 -->
<g id="node11" class="node"><title>10</title>
<path fill="#bfcfe6" stroke="black" d="M1064.5,-119.5C1064.5,-119.5 860.5,-119.5 860.5,-119.5 854.5,-119.5 848.5,-113.5 848.5,-107.5 848.5,-107.5 848.5,-93.5 848.5,-93.5 848.5,-87.5 854.5,-81.5 860.5,-81.5 860.5,-81.5 1064.5,-81.5 1064.5,-81.5 1070.5,-81.5 1076.5,-87.5 1076.5,-93.5 1076.5,-93.5 1076.5,-107.5 1076.5,-107.5 1076.5,-113.5 1070.5,-119.5 1064.5,-119.5"/>
<text text-anchor="middle" x="962.5" y="-104.3" font-family="Times,serif" font-size="14.00">comp 1</text>
<text text-anchor="middle" x="962.5" y="-89.3" font-family="Times,serif" font-size="14.00">log gamma1: &#45;0.035469 &#160;&#160;n kernels: &#45;9</text>
</g>
<!-- 4&#45;&gt;10 -->
<g id="edge10" class="edge"><title>4&#45;&gt;10</title>
<path fill="none" stroke="black" d="M871.507,-162.868C889.101,-151.002 909.878,-136.989 927.133,-125.352"/>
<polygon fill="black" stroke="black" points="929.467,-128 935.8,-119.507 925.553,-122.196 929.467,-128"/>
</g>
<!-- 11 -->
<g id="node12" class="node"><title>11</title>
<path fill="#d3e4ff" stroke="black" d="M1370,-127C1370,-127 1107,-127 1107,-127 1101,-127 1095,-121 1095,-115 1095,-115 1095,-86 1095,-86 1095,-80 1101,-74 1107,-74 1107,-74 1370,-74 1370,-74 1376,-74 1382,-80 1382,-86 1382,-86 1382,-115 1382,-115 1382,-121 1376,-127 1370,-127"/>
<text text-anchor="middle" x="1238.5" y="-111.8" font-family="Times,serif" font-size="14.00">comp 0</text>
<text text-anchor="middle" x="1238.5" y="-96.8" font-family="Times,serif" font-size="14.00">log gamma1: 0.173467 &#160;&#160;log gamma2: &#45;0.449522</text>
<text text-anchor="middle" x="1238.5" y="-81.8" font-family="Times,serif" font-size="14.00">n kernels: 3</text>
</g>
<!-- 5&#45;&gt;11 -->
<g id="edge11" class="edge"><title>5&#45;&gt;11</title>
<path fill="none" stroke="black" d="M1249.08,-162.868C1247.7,-154.886 1246.16,-145.932 1244.69,-137.384"/>
<polygon fill="black" stroke="black" points="1248.09,-136.51 1242.94,-127.25 1241.19,-137.699 1248.09,-136.51"/>
</g>
<!-- 12 -->
<g id="node13" class="node"><title>12</title>
<path fill="#bfcfe6" stroke="black" d="M1671,-127C1671,-127 1412,-127 1412,-127 1406,-127 1400,-121 1400,-115 1400,-115 1400,-86 1400,-86 1400,-80 1406,-74 1412,-74 1412,-74 1671,-74 1671,-74 1677,-74 1683,-80 1683,-86 1683,-86 1683,-115 1683,-115 1683,-121 1677,-127 1671,-127"/>
<text text-anchor="middle" x="1541.5" y="-111.8" font-family="Times,serif" font-size="14.00">comp 1</text>
<text text-anchor="middle" x="1541.5" y="-96.8" font-family="Times,serif" font-size="14.00">log gamma1: 0.244603 &#160;&#160;log gamma2: 0.098256</text>
<text text-anchor="middle" x="1541.5" y="-81.8" font-family="Times,serif" font-size="14.00">n kernels: &#45;10 &#160;&#160;pooling type: 1</text>
</g>
<!-- 5&#45;&gt;12 -->
<g id="edge12" class="edge"><title>5&#45;&gt;12</title>
<path fill="none" stroke="black" d="M1337.96,-162.985C1372.25,-152.627 1412,-140.619 1447.23,-129.977"/>
<polygon fill="black" stroke="black" points="1448.48,-133.257 1457.04,-127.015 1446.45,-126.556 1448.48,-133.257"/>
</g>
<!-- 13 -->
<g id="node14" class="node"><title>13</title>
<path fill="#d3e4ff" stroke="black" d="M1976,-119.5C1976,-119.5 1713,-119.5 1713,-119.5 1707,-119.5 1701,-113.5 1701,-107.5 1701,-107.5 1701,-93.5 1701,-93.5 1701,-87.5 1707,-81.5 1713,-81.5 1713,-81.5 1976,-81.5 1976,-81.5 1982,-81.5 1988,-87.5 1988,-93.5 1988,-93.5 1988,-107.5 1988,-107.5 1988,-113.5 1982,-119.5 1976,-119.5"/>
<text text-anchor="middle" x="1844.5" y="-104.3" font-family="Times,serif" font-size="14.00">comp 0</text>
<text text-anchor="middle" x="1844.5" y="-89.3" font-family="Times,serif" font-size="14.00">log gamma1: 0.404665 &#160;&#160;log gamma2: &#45;0.154698</text>
</g>
<!-- 6&#45;&gt;13 -->
<g id="edge13" class="edge"><title>6&#45;&gt;13</title>
<path fill="none" stroke="black" d="M1844.5,-162.868C1844.5,-152.417 1844.5,-140.301 1844.5,-129.609"/>
<polygon fill="black" stroke="black" points="1848,-129.507 1844.5,-119.507 1841,-129.507 1848,-129.507"/>
</g>
<!-- 14 -->
<g id="node15" class="node"><title>14</title>
<path fill="#bfcfe6" stroke="black" d="M2218.5,-127C2218.5,-127 2018.5,-127 2018.5,-127 2012.5,-127 2006.5,-121 2006.5,-115 2006.5,-115 2006.5,-86 2006.5,-86 2006.5,-80 2012.5,-74 2018.5,-74 2018.5,-74 2218.5,-74 2218.5,-74 2224.5,-74 2230.5,-80 2230.5,-86 2230.5,-86 2230.5,-115 2230.5,-115 2230.5,-121 2224.5,-127 2218.5,-127"/>
<text text-anchor="middle" x="2118.5" y="-111.8" font-family="Times,serif" font-size="14.00">comp 1</text>
<text text-anchor="middle" x="2118.5" y="-96.8" font-family="Times,serif" font-size="14.00">log gamma2: 0.377335 &#160;&#160;n kernels: &#45;5</text>
<text text-anchor="middle" x="2118.5" y="-81.8" font-family="Times,serif" font-size="14.00">pooling type: &#45;1</text>
</g>
<!-- 6&#45;&gt;14 -->
<g id="edge14" class="edge"><title>6&#45;&gt;14</title>
<path fill="none" stroke="black" d="M1924.86,-162.985C1957.34,-152.672 1994.98,-140.721 2028.38,-130.114"/>
<polygon fill="black" stroke="black" points="2029.67,-133.377 2038.14,-127.015 2027.55,-126.705 2029.67,-133.377"/>
</g>
<!-- 15 -->
<g id="node16" class="node"><title>15</title>
<path fill="#f6d3ff" stroke="black" d="M161,-38C161,-38 126,-38 126,-38 120,-38 114,-32 114,-26 114,-26 114,-12 114,-12 114,-6 120,-0 126,-0 126,-0 161,-0 161,-0 167,-0 173,-6 173,-12 173,-12 173,-26 173,-26 173,-32 167,-38 161,-38"/>
<text text-anchor="middle" x="143.5" y="-22.8" font-family="Times,serif" font-size="14.00">forward</text>
<text text-anchor="middle" x="143.5" y="-7.8" font-family="Times,serif" font-size="14.00">input</text>
</g>
<!-- 7&#45;&gt;15 -->
<g id="edge15" class="edge"><title>7&#45;&gt;15</title>
<path fill="none" stroke="black" d="M143.5,-73.9081C143.5,-65.7377 143.5,-56.6492 143.5,-48.2981"/>
<polygon fill="black" stroke="black" points="147,-48.2389 143.5,-38.2389 140,-48.2389 147,-48.2389"/>
</g>
<!-- 16 -->
<g id="node17" class="node"><title>16</title>
<path fill="#f6d3ff" stroke="black" d="M464.5,-38C464.5,-38 428.5,-38 428.5,-38 422.5,-38 416.5,-32 416.5,-26 416.5,-26 416.5,-12 416.5,-12 416.5,-6 422.5,-0 428.5,-0 428.5,-0 464.5,-0 464.5,-0 470.5,-0 476.5,-6 476.5,-12 476.5,-12 476.5,-26 476.5,-26 476.5,-32 470.5,-38 464.5,-38"/>
<text text-anchor="middle" x="446.5" y="-22.8" font-family="Times,serif" font-size="14.00">forward</text>
<text text-anchor="middle" x="446.5" y="-7.8" font-family="Times,serif" font-size="14.00">EB0/C0</text>
</g>
<!-- 8&#45;&gt;16 -->
<g id="edge16" class="edge"><title>8&#45;&gt;16</title>
<path fill="none" stroke="black" d="M446.5,-81.4602C446.5,-71.67 446.5,-59.3453 446.5,-48.3073"/>
<polygon fill="black" stroke="black" points="450,-48.2435 446.5,-38.2436 443,-48.2436 450,-48.2435"/>
</g>
<!-- 17 -->
<g id="node18" class="node"><title>17</title>
<path fill="#f6d3ff" stroke="black" d="M736.5,-38C736.5,-38 700.5,-38 700.5,-38 694.5,-38 688.5,-32 688.5,-26 688.5,-26 688.5,-12 688.5,-12 688.5,-6 694.5,-0 700.5,-0 700.5,-0 736.5,-0 736.5,-0 742.5,-0 748.5,-6 748.5,-12 748.5,-12 748.5,-26 748.5,-26 748.5,-32 742.5,-38 736.5,-38"/>
<text text-anchor="middle" x="718.5" y="-22.8" font-family="Times,serif" font-size="14.00">forward</text>
<text text-anchor="middle" x="718.5" y="-7.8" font-family="Times,serif" font-size="14.00">EB0/C1</text>
</g>
<!-- 9&#45;&gt;17 -->
<g id="edge17" class="edge"><title>9&#45;&gt;17</title>
<path fill="none" stroke="black" d="M718.5,-73.9081C718.5,-65.7377 718.5,-56.6492 718.5,-48.2981"/>
<polygon fill="black" stroke="black" points="722,-48.2389 718.5,-38.2389 715,-48.2389 722,-48.2389"/>
</g>
<!-- 18 -->
<g id="node19" class="node"><title>18</title>
<path fill="#f6d3ff" stroke="black" d="M980.5,-38C980.5,-38 944.5,-38 944.5,-38 938.5,-38 932.5,-32 932.5,-26 932.5,-26 932.5,-12 932.5,-12 932.5,-6 938.5,-0 944.5,-0 944.5,-0 980.5,-0 980.5,-0 986.5,-0 992.5,-6 992.5,-12 992.5,-12 992.5,-26 992.5,-26 992.5,-32 986.5,-38 980.5,-38"/>
<text text-anchor="middle" x="962.5" y="-22.8" font-family="Times,serif" font-size="14.00">forward</text>
<text text-anchor="middle" x="962.5" y="-7.8" font-family="Times,serif" font-size="14.00">EB1/C0</text>
</g>
<!-- 10&#45;&gt;18 -->
<g id="edge18" class="edge"><title>10&#45;&gt;18</title>
<path fill="none" stroke="black" d="M962.5,-81.4602C962.5,-71.67 962.5,-59.3453 962.5,-48.3073"/>
<polygon fill="black" stroke="black" points="966,-48.2435 962.5,-38.2436 959,-48.2436 966,-48.2435"/>
</g>
<!-- 19 -->
<g id="node20" class="node"><title>19</title>
<path fill="#f6d3ff" stroke="black" d="M1217.5,-38C1217.5,-38 1181.5,-38 1181.5,-38 1175.5,-38 1169.5,-32 1169.5,-26 1169.5,-26 1169.5,-12 1169.5,-12 1169.5,-6 1175.5,-0 1181.5,-0 1181.5,-0 1217.5,-0 1217.5,-0 1223.5,-0 1229.5,-6 1229.5,-12 1229.5,-12 1229.5,-26 1229.5,-26 1229.5,-32 1223.5,-38 1217.5,-38"/>
<text text-anchor="middle" x="1199.5" y="-22.8" font-family="Times,serif" font-size="14.00">forward</text>
<text text-anchor="middle" x="1199.5" y="-7.8" font-family="Times,serif" font-size="14.00">EB1/C1</text>
</g>
<!-- 11&#45;&gt;19 -->
<g id="edge19" class="edge"><title>11&#45;&gt;19</title>
<path fill="none" stroke="black" d="M1225.95,-73.9081C1221.8,-65.4653 1217.18,-56.0423 1212.97,-47.4655"/>
<polygon fill="black" stroke="black" points="1215.99,-45.6753 1208.45,-38.2389 1209.71,-48.7583 1215.99,-45.6753"/>
</g>
<!-- 20 -->
<g id="node21" class="node"><title>20</title>
<path fill="#debfe6" stroke="black" d="M1295.5,-38C1295.5,-38 1259.5,-38 1259.5,-38 1253.5,-38 1247.5,-32 1247.5,-26 1247.5,-26 1247.5,-12 1247.5,-12 1247.5,-6 1253.5,-0 1259.5,-0 1259.5,-0 1295.5,-0 1295.5,-0 1301.5,-0 1307.5,-6 1307.5,-12 1307.5,-12 1307.5,-26 1307.5,-26 1307.5,-32 1301.5,-38 1295.5,-38"/>
<text text-anchor="middle" x="1277.5" y="-22.8" font-family="Times,serif" font-size="14.00">merge</text>
<text text-anchor="middle" x="1277.5" y="-7.8" font-family="Times,serif" font-size="14.00">EB1/C1</text>
</g>
<!-- 11&#45;&gt;20 -->
<g id="edge20" class="edge"><title>11&#45;&gt;20</title>
<path fill="none" stroke="black" d="M1251.05,-73.9081C1255.2,-65.4653 1259.82,-56.0423 1264.03,-47.4655"/>
<polygon fill="black" stroke="black" points="1267.29,-48.7583 1268.55,-38.2389 1261.01,-45.6753 1267.29,-48.7583"/>
</g>
<!-- 21 -->
<g id="node22" class="node"><title>21</title>
<path fill="#f6d3ff" stroke="black" d="M1560.5,-38C1560.5,-38 1522.5,-38 1522.5,-38 1516.5,-38 1510.5,-32 1510.5,-26 1510.5,-26 1510.5,-12 1510.5,-12 1510.5,-6 1516.5,-0 1522.5,-0 1522.5,-0 1560.5,-0 1560.5,-0 1566.5,-0 1572.5,-6 1572.5,-12 1572.5,-12 1572.5,-26 1572.5,-26 1572.5,-32 1566.5,-38 1560.5,-38"/>
<text text-anchor="middle" x="1541.5" y="-22.8" font-family="Times,serif" font-size="14.00">forward</text>
<text text-anchor="middle" x="1541.5" y="-7.8" font-family="Times,serif" font-size="14.00">DB1/C0</text>
</g>
<!-- 12&#45;&gt;21 -->
<g id="edge21" class="edge"><title>12&#45;&gt;21</title>
<path fill="none" stroke="black" d="M1541.5,-73.9081C1541.5,-65.7377 1541.5,-56.6492 1541.5,-48.2981"/>
<polygon fill="black" stroke="black" points="1545,-48.2389 1541.5,-38.2389 1538,-48.2389 1545,-48.2389"/>
</g>
<!-- 22 -->
<g id="node23" class="node"><title>22</title>
<path fill="#f6d3ff" stroke="black" d="M1823.5,-38C1823.5,-38 1785.5,-38 1785.5,-38 1779.5,-38 1773.5,-32 1773.5,-26 1773.5,-26 1773.5,-12 1773.5,-12 1773.5,-6 1779.5,-0 1785.5,-0 1785.5,-0 1823.5,-0 1823.5,-0 1829.5,-0 1835.5,-6 1835.5,-12 1835.5,-12 1835.5,-26 1835.5,-26 1835.5,-32 1829.5,-38 1823.5,-38"/>
<text text-anchor="middle" x="1804.5" y="-22.8" font-family="Times,serif" font-size="14.00">forward</text>
<text text-anchor="middle" x="1804.5" y="-7.8" font-family="Times,serif" font-size="14.00">DB1/C1</text>
</g>
<!-- 13&#45;&gt;22 -->
<g id="edge22" class="edge"><title>13&#45;&gt;22</title>
<path fill="none" stroke="black" d="M1835.42,-81.4602C1830.35,-71.3672 1823.91,-58.5805 1818.23,-47.287"/>
<polygon fill="black" stroke="black" points="1821.3,-45.6035 1813.68,-38.2436 1815.05,-48.7497 1821.3,-45.6035"/>
</g>
<!-- 23 -->
<g id="node24" class="node"><title>23</title>
<path fill="#debfe6" stroke="black" d="M1901.5,-38C1901.5,-38 1865.5,-38 1865.5,-38 1859.5,-38 1853.5,-32 1853.5,-26 1853.5,-26 1853.5,-12 1853.5,-12 1853.5,-6 1859.5,-0 1865.5,-0 1865.5,-0 1901.5,-0 1901.5,-0 1907.5,-0 1913.5,-6 1913.5,-12 1913.5,-12 1913.5,-26 1913.5,-26 1913.5,-32 1907.5,-38 1901.5,-38"/>
<text text-anchor="middle" x="1883.5" y="-22.8" font-family="Times,serif" font-size="14.00">merge</text>
<text text-anchor="middle" x="1883.5" y="-7.8" font-family="Times,serif" font-size="14.00">EB0/C1</text>
</g>
<!-- 13&#45;&gt;23 -->
<g id="edge23" class="edge"><title>13&#45;&gt;23</title>
<path fill="none" stroke="black" d="M1853.35,-81.4602C1858.3,-71.3672 1864.57,-58.5805 1870.11,-47.287"/>
<polygon fill="black" stroke="black" points="1873.29,-48.763 1874.55,-38.2436 1867,-45.68 1873.29,-48.763"/>
</g>
<!-- 24 -->
<g id="node25" class="node"><title>24</title>
<path fill="#f6d3ff" stroke="black" d="M2137.5,-38C2137.5,-38 2099.5,-38 2099.5,-38 2093.5,-38 2087.5,-32 2087.5,-26 2087.5,-26 2087.5,-12 2087.5,-12 2087.5,-6 2093.5,-0 2099.5,-0 2099.5,-0 2137.5,-0 2137.5,-0 2143.5,-0 2149.5,-6 2149.5,-12 2149.5,-12 2149.5,-26 2149.5,-26 2149.5,-32 2143.5,-38 2137.5,-38"/>
<text text-anchor="middle" x="2118.5" y="-22.8" font-family="Times,serif" font-size="14.00">forward</text>
<text text-anchor="middle" x="2118.5" y="-7.8" font-family="Times,serif" font-size="14.00">DB0/C0</text>
</g>
<!-- 14&#45;&gt;24 -->
<g id="edge24" class="edge"><title>14&#45;&gt;24</title>
<path fill="none" stroke="black" d="M2118.5,-73.9081C2118.5,-65.7377 2118.5,-56.6492 2118.5,-48.2981"/>
<polygon fill="black" stroke="black" points="2122,-48.2389 2118.5,-38.2389 2115,-48.2389 2122,-48.2389"/>
</g>
</g>
</svg>
