<?xml version="1.0" encoding="UTF-8" standalone="no"?>
<!DOCTYPE svg PUBLIC "-//W3C//DTD SVG 1.1//EN"
 "http://www.w3.org/Graphics/SVG/1.1/DTD/svg11.dtd">
<!-- Generated by graphviz version 2.38.0 (20140413.2041)
 -->
<!-- Title: %3 Pages: 1 -->
<svg width="2090pt" height="283pt"
 viewBox="0.00 0.00 2089.50 283.00" xmlns="http://www.w3.org/2000/svg" xmlns:xlink="http://www.w3.org/1999/xlink">
<g id="graph0" class="graph" transform="scale(1 1) rotate(0) translate(4 279)">
<title>%3</title>
<polygon fill="none" stroke="none" points="-4,4 -4,-279 2085.5,-279 2085.5,4 -4,4"/>
<!-- 0 -->
<g id="node1" class="node"><title>0</title>
<path fill="#ffd3d3" stroke="black" d="M1187,-275C1187,-275 1033,-275 1033,-275 1027,-275 1021,-269 1021,-263 1021,-263 1021,-234 1021,-234 1021,-228 1027,-222 1033,-222 1033,-222 1187,-222 1187,-222 1193,-222 1199,-228 1199,-234 1199,-234 1199,-263 1199,-263 1199,-269 1193,-275 1187,-275"/>
<text text-anchor="middle" x="1110" y="-259.8" font-family="Times,serif" font-size="14.00">net</text>
<text text-anchor="middle" x="1110" y="-244.8" font-family="Times,serif" font-size="14.00">dilation rate: 1 &#160;&#160;n kernels: 64</text>
<text text-anchor="middle" x="1110" y="-229.8" font-family="Times,serif" font-size="14.00">pooling type: 0</text>
</g>
<!-- 1 -->
<g id="node2" class="node"><title>1</title>
<path fill="#e9ffd3" stroke="black" d="M518.5,-186C518.5,-186 393.5,-186 393.5,-186 387.5,-186 381.5,-180 381.5,-174 381.5,-174 381.5,-160 381.5,-160 381.5,-154 387.5,-148 393.5,-148 393.5,-148 518.5,-148 518.5,-148 524.5,-148 530.5,-154 530.5,-160 530.5,-160 530.5,-174 530.5,-174 530.5,-180 524.5,-186 518.5,-186"/>
<text text-anchor="middle" x="456" y="-170.8" font-family="Times,serif" font-size="14.00">conv block 0</text>
<text text-anchor="middle" x="456" y="-155.8" font-family="Times,serif" font-size="14.00">log gamma1: &#45;0.361324</text>
</g>
<!-- 0&#45;&gt;1 -->
<g id="edge1" class="edge"><title>0&#45;&gt;1</title>
<path fill="none" stroke="black" d="M1020.78,-236.654C894.473,-221.301 665.144,-193.423 541.117,-178.347"/>
<polygon fill="black" stroke="black" points="541.261,-174.839 530.912,-177.106 540.416,-181.787 541.261,-174.839"/>
</g>
<!-- 2 -->
<g id="node3" class="node"><title>2</title>
<path fill="#e9ffd3" stroke="black" d="M1211,-186C1211,-186 1009,-186 1009,-186 1003,-186 997,-180 997,-174 997,-174 997,-160 997,-160 997,-154 1003,-148 1009,-148 1009,-148 1211,-148 1211,-148 1217,-148 1223,-154 1223,-160 1223,-160 1223,-174 1223,-174 1223,-180 1217,-186 1211,-186"/>
<text text-anchor="middle" x="1110" y="-170.8" font-family="Times,serif" font-size="14.00">conv block 1</text>
<text text-anchor="middle" x="1110" y="-155.8" font-family="Times,serif" font-size="14.00">log gamma1: 1.694440 &#160;&#160;n kernels: 12</text>
</g>
<!-- 0&#45;&gt;2 -->
<g id="edge2" class="edge"><title>0&#45;&gt;2</title>
<path fill="none" stroke="black" d="M1110,-221.908C1110,-213.738 1110,-204.649 1110,-196.298"/>
<polygon fill="black" stroke="black" points="1113.5,-196.239 1110,-186.239 1106.5,-196.239 1113.5,-196.239"/>
</g>
<!-- 3 -->
<g id="node4" class="node"><title>3</title>
<path fill="#e9ffd3" stroke="black" d="M1804,-186C1804,-186 1732,-186 1732,-186 1726,-186 1720,-180 1720,-174 1720,-174 1720,-160 1720,-160 1720,-154 1726,-148 1732,-148 1732,-148 1804,-148 1804,-148 1810,-148 1816,-154 1816,-160 1816,-160 1816,-174 1816,-174 1816,-180 1810,-186 1804,-186"/>
<text text-anchor="middle" x="1768" y="-170.8" font-family="Times,serif" font-size="14.00">conv block 2</text>
<text text-anchor="middle" x="1768" y="-155.8" font-family="Times,serif" font-size="14.00">dilation rate: 3</text>
</g>
<!-- 0&#45;&gt;3 -->
<g id="edge3" class="edge"><title>0&#45;&gt;3</title>
<path fill="none" stroke="black" d="M1199.08,-236.737C1335.92,-220.205 1594.08,-189.013 1709.58,-175.059"/>
<polygon fill="black" stroke="black" points="1710.13,-178.517 1719.64,-173.843 1709.29,-171.568 1710.13,-178.517"/>
</g>
<!-- 4 -->
<g id="node5" class="node"><title>4</title>
<path fill="#d3ffff" stroke="black" d="M132,-112C132,-112 12,-112 12,-112 6,-112 0,-106 0,-100 0,-100 0,-86 0,-86 0,-80 6,-74 12,-74 12,-74 132,-74 132,-74 138,-74 144,-80 144,-86 144,-86 144,-100 144,-100 144,-106 138,-112 132,-112"/>
<text text-anchor="middle" x="72" y="-96.8" font-family="Times,serif" font-size="14.00">comp 0</text>
<text text-anchor="middle" x="72" y="-81.8" font-family="Times,serif" font-size="14.00">log gamma2: 1.000000</text>
</g>
<!-- 1&#45;&gt;4 -->
<g id="edge4" class="edge"><title>1&#45;&gt;4</title>
<path fill="none" stroke="black" d="M381.433,-153.615C322.339,-143.592 237.438,-128.729 154.261,-112.215"/>
<polygon fill="black" stroke="black" points="154.883,-108.77 144.391,-110.246 153.513,-115.635 154.883,-108.77"/>
</g>
<!-- 5 -->
<g id="node6" class="node"><title>5</title>
<path fill="#bfe6e6" stroke="black" d="M294,-112C294,-112 174,-112 174,-112 168,-112 162,-106 162,-100 162,-100 162,-86 162,-86 162,-80 168,-74 174,-74 174,-74 294,-74 294,-74 300,-74 306,-80 306,-86 306,-86 306,-100 306,-100 306,-106 300,-112 294,-112"/>
<text text-anchor="middle" x="234" y="-96.8" font-family="Times,serif" font-size="14.00">comp 1</text>
<text text-anchor="middle" x="234" y="-81.8" font-family="Times,serif" font-size="14.00">log gamma2: 1.939677</text>
</g>
<!-- 1&#45;&gt;5 -->
<g id="edge5" class="edge"><title>1&#45;&gt;5</title>
<path fill="none" stroke="black" d="M400.267,-147.924C369.654,-137.996 331.512,-125.625 299.484,-115.238"/>
<polygon fill="black" stroke="black" points="300.348,-111.839 289.756,-112.083 298.189,-118.498 300.348,-111.839"/>
</g>
<!-- 6 -->
<g id="node7" class="node"><title>6</title>
<path fill="#abcece" stroke="black" d="M399.5,-112C399.5,-112 336.5,-112 336.5,-112 330.5,-112 324.5,-106 324.5,-100 324.5,-100 324.5,-86 324.5,-86 324.5,-80 330.5,-74 336.5,-74 336.5,-74 399.5,-74 399.5,-74 405.5,-74 411.5,-80 411.5,-86 411.5,-86 411.5,-100 411.5,-100 411.5,-106 405.5,-112 399.5,-112"/>
<text text-anchor="middle" x="368" y="-96.8" font-family="Times,serif" font-size="14.00">comp 2</text>
<text text-anchor="middle" x="368" y="-81.8" font-family="Times,serif" font-size="14.00">n kernels: 20</text>
</g>
<!-- 1&#45;&gt;6 -->
<g id="edge6" class="edge"><title>1&#45;&gt;6</title>
<path fill="none" stroke="black" d="M433.794,-147.831C422.955,-138.963 409.756,-128.164 398.032,-118.572"/>
<polygon fill="black" stroke="black" points="400.155,-115.786 390.199,-112.163 395.722,-121.204 400.155,-115.786"/>
</g>
<!-- 7 -->
<g id="node8" class="node"><title>7</title>
<path fill="#97b6b6" stroke="black" d="M646,-112C646,-112 442,-112 442,-112 436,-112 430,-106 430,-100 430,-100 430,-86 430,-86 430,-80 436,-74 442,-74 442,-74 646,-74 646,-74 652,-74 658,-80 658,-86 658,-86 658,-100 658,-100 658,-106 652,-112 646,-112"/>
<text text-anchor="middle" x="544" y="-96.8" font-family="Times,serif" font-size="14.00">comp 3</text>
<text text-anchor="middle" x="544" y="-81.8" font-family="Times,serif" font-size="14.00">log gamma1: &#45;0.561513 &#160;&#160;n kernels: &#45;3</text>
</g>
<!-- 1&#45;&gt;7 -->
<g id="edge7" class="edge"><title>1&#45;&gt;7</title>
<path fill="none" stroke="black" d="M478.206,-147.831C489.045,-138.963 502.244,-128.164 513.968,-118.572"/>
<polygon fill="black" stroke="black" points="516.278,-121.204 521.801,-112.163 511.845,-115.786 516.278,-121.204"/>
</g>
<!-- 8 -->
<g id="node9" class="node"><title>8</title>
<path fill="#839e9e" stroke="black" d="M722,-111C722,-111 688,-111 688,-111 682,-111 676,-105 676,-99 676,-99 676,-87 676,-87 676,-81 682,-75 688,-75 688,-75 722,-75 722,-75 728,-75 734,-81 734,-87 734,-87 734,-99 734,-99 734,-105 728,-111 722,-111"/>
<text text-anchor="middle" x="705" y="-89.3" font-family="Times,serif" font-size="14.00">identity</text>
</g>
<!-- 1&#45;&gt;8 -->
<g id="edge8" class="edge"><title>1&#45;&gt;8</title>
<path fill="none" stroke="black" d="M530.776,-150.547C569.133,-141.761 616.569,-129.571 666.164,-111.99"/>
<polygon fill="black" stroke="black" points="667.559,-115.208 675.778,-108.523 665.184,-108.623 667.559,-115.208"/>
</g>
<!-- 9 -->
<g id="node10" class="node"><title>9</title>
<path fill="#d3ffff" stroke="black" d="M799,-111C799,-111 765,-111 765,-111 759,-111 753,-105 753,-99 753,-99 753,-87 753,-87 753,-81 759,-75 765,-75 765,-75 799,-75 799,-75 805,-75 811,-81 811,-87 811,-87 811,-99 811,-99 811,-105 805,-111 799,-111"/>
<text text-anchor="middle" x="782" y="-89.3" font-family="Times,serif" font-size="14.00">comp 0</text>
</g>
<!-- 2&#45;&gt;9 -->
<g id="edge9" class="edge"><title>2&#45;&gt;9</title>
<path fill="none" stroke="black" d="M996.771,-151.858C945.128,-143.746 883.37,-131.709 820.795,-111.846"/>
<polygon fill="black" stroke="black" points="821.744,-108.475 811.152,-108.725 819.588,-115.135 821.744,-108.475"/>
</g>
<!-- 10 -->
<g id="node11" class="node"><title>10</title>
<path fill="#bfe6e6" stroke="black" d="M1036.5,-112C1036.5,-112 841.5,-112 841.5,-112 835.5,-112 829.5,-106 829.5,-100 829.5,-100 829.5,-86 829.5,-86 829.5,-80 835.5,-74 841.5,-74 841.5,-74 1036.5,-74 1036.5,-74 1042.5,-74 1048.5,-80 1048.5,-86 1048.5,-86 1048.5,-100 1048.5,-100 1048.5,-106 1042.5,-112 1036.5,-112"/>
<text text-anchor="middle" x="939" y="-96.8" font-family="Times,serif" font-size="14.00">comp 1</text>
<text text-anchor="middle" x="939" y="-81.8" font-family="Times,serif" font-size="14.00">log gamma1: 1.126703 &#160;&#160;n kernels: 8</text>
</g>
<!-- 2&#45;&gt;10 -->
<g id="edge10" class="edge"><title>2&#45;&gt;10</title>
<path fill="none" stroke="black" d="M1066.85,-147.831C1043.88,-138.159 1015.45,-126.189 991.237,-115.994"/>
<polygon fill="black" stroke="black" points="992.415,-112.693 981.84,-112.038 989.698,-119.144 992.415,-112.693"/>
</g>
<!-- 11 -->
<g id="node12" class="node"><title>11</title>
<path fill="#abcece" stroke="black" d="M1141.5,-112C1141.5,-112 1078.5,-112 1078.5,-112 1072.5,-112 1066.5,-106 1066.5,-100 1066.5,-100 1066.5,-86 1066.5,-86 1066.5,-80 1072.5,-74 1078.5,-74 1078.5,-74 1141.5,-74 1141.5,-74 1147.5,-74 1153.5,-80 1153.5,-86 1153.5,-86 1153.5,-100 1153.5,-100 1153.5,-106 1147.5,-112 1141.5,-112"/>
<text text-anchor="middle" x="1110" y="-96.8" font-family="Times,serif" font-size="14.00">comp 2</text>
<text text-anchor="middle" x="1110" y="-81.8" font-family="Times,serif" font-size="14.00">n kernels: 13</text>
</g>
<!-- 2&#45;&gt;11 -->
<g id="edge11" class="edge"><title>2&#45;&gt;11</title>
<path fill="none" stroke="black" d="M1110,-147.831C1110,-140.131 1110,-130.974 1110,-122.417"/>
<polygon fill="black" stroke="black" points="1113.5,-122.413 1110,-112.413 1106.5,-122.413 1113.5,-122.413"/>
</g>
<!-- 12 -->
<g id="node13" class="node"><title>12</title>
<path fill="#97b6b6" stroke="black" d="M1442.5,-112C1442.5,-112 1183.5,-112 1183.5,-112 1177.5,-112 1171.5,-106 1171.5,-100 1171.5,-100 1171.5,-86 1171.5,-86 1171.5,-80 1177.5,-74 1183.5,-74 1183.5,-74 1442.5,-74 1442.5,-74 1448.5,-74 1454.5,-80 1454.5,-86 1454.5,-86 1454.5,-100 1454.5,-100 1454.5,-106 1448.5,-112 1442.5,-112"/>
<text text-anchor="middle" x="1313" y="-96.8" font-family="Times,serif" font-size="14.00">comp 3</text>
<text text-anchor="middle" x="1313" y="-81.8" font-family="Times,serif" font-size="14.00">log gamma1: 1.650760 &#160;&#160;log gamma2: 1.000000</text>
</g>
<!-- 2&#45;&gt;12 -->
<g id="edge12" class="edge"><title>2&#45;&gt;12</title>
<path fill="none" stroke="black" d="M1160.96,-147.924C1188.71,-138.081 1223.23,-125.839 1252.36,-115.507"/>
<polygon fill="black" stroke="black" points="1253.76,-118.725 1262.02,-112.083 1251.42,-112.127 1253.76,-118.725"/>
</g>
<!-- 13 -->
<g id="node14" class="node"><title>13</title>
<path fill="#839e9e" stroke="black" d="M1519,-111C1519,-111 1485,-111 1485,-111 1479,-111 1473,-105 1473,-99 1473,-99 1473,-87 1473,-87 1473,-81 1479,-75 1485,-75 1485,-75 1519,-75 1519,-75 1525,-75 1531,-81 1531,-87 1531,-87 1531,-99 1531,-99 1531,-105 1525,-111 1519,-111"/>
<text text-anchor="middle" x="1502" y="-89.3" font-family="Times,serif" font-size="14.00">identity</text>
</g>
<!-- 2&#45;&gt;13 -->
<g id="edge13" class="edge"><title>2&#45;&gt;13</title>
<path fill="none" stroke="black" d="M1223.07,-156.853C1293.23,-149.187 1384.63,-135.566 1463,-112 1463.1,-111.969 1463.21,-111.938 1463.31,-111.907"/>
<polygon fill="black" stroke="black" points="1464.71,-115.123 1472.96,-108.471 1462.36,-108.528 1464.71,-115.123"/>
</g>
<!-- 14 -->
<g id="node15" class="node"><title>14</title>
<path fill="#d3ffff" stroke="black" d="M1638.5,-112C1638.5,-112 1561.5,-112 1561.5,-112 1555.5,-112 1549.5,-106 1549.5,-100 1549.5,-100 1549.5,-86 1549.5,-86 1549.5,-80 1555.5,-74 1561.5,-74 1561.5,-74 1638.5,-74 1638.5,-74 1644.5,-74 1650.5,-80 1650.5,-86 1650.5,-86 1650.5,-100 1650.5,-100 1650.5,-106 1644.5,-112 1638.5,-112"/>
<text text-anchor="middle" x="1600" y="-96.8" font-family="Times,serif" font-size="14.00">comp 0</text>
<text text-anchor="middle" x="1600" y="-81.8" font-family="Times,serif" font-size="14.00">dilation rate: &#45;2</text>
</g>
<!-- 3&#45;&gt;14 -->
<g id="edge14" class="edge"><title>3&#45;&gt;14</title>
<path fill="none" stroke="black" d="M1725.61,-147.831C1703.04,-138.159 1675.11,-126.189 1651.32,-115.994"/>
<polygon fill="black" stroke="black" points="1652.66,-112.76 1642.09,-112.038 1649.9,-119.194 1652.66,-112.76"/>
</g>
<!-- 15 -->
<g id="node16" class="node"><title>15</title>
<path fill="#bfe6e6" stroke="black" d="M1757.5,-112C1757.5,-112 1680.5,-112 1680.5,-112 1674.5,-112 1668.5,-106 1668.5,-100 1668.5,-100 1668.5,-86 1668.5,-86 1668.5,-80 1674.5,-74 1680.5,-74 1680.5,-74 1757.5,-74 1757.5,-74 1763.5,-74 1769.5,-80 1769.5,-86 1769.5,-86 1769.5,-100 1769.5,-100 1769.5,-106 1763.5,-112 1757.5,-112"/>
<text text-anchor="middle" x="1719" y="-96.8" font-family="Times,serif" font-size="14.00">comp 1</text>
<text text-anchor="middle" x="1719" y="-81.8" font-family="Times,serif" font-size="14.00">dilation rate: &#45;2</text>
</g>
<!-- 3&#45;&gt;15 -->
<g id="edge15" class="edge"><title>3&#45;&gt;15</title>
<path fill="none" stroke="black" d="M1755.64,-147.831C1750.05,-139.623 1743.34,-129.761 1737.19,-120.732"/>
<polygon fill="black" stroke="black" points="1740.05,-118.711 1731.53,-112.413 1734.26,-122.65 1740.05,-118.711"/>
</g>
<!-- 16 -->
<g id="node17" class="node"><title>16</title>
<path fill="#abcece" stroke="black" d="M1834,-111C1834,-111 1800,-111 1800,-111 1794,-111 1788,-105 1788,-99 1788,-99 1788,-87 1788,-87 1788,-81 1794,-75 1800,-75 1800,-75 1834,-75 1834,-75 1840,-75 1846,-81 1846,-87 1846,-87 1846,-99 1846,-99 1846,-105 1840,-111 1834,-111"/>
<text text-anchor="middle" x="1817" y="-89.3" font-family="Times,serif" font-size="14.00">comp 2</text>
</g>
<!-- 3&#45;&gt;16 -->
<g id="edge16" class="edge"><title>3&#45;&gt;16</title>
<path fill="none" stroke="black" d="M1780.36,-147.831C1786.12,-139.371 1793.08,-129.152 1799.37,-119.901"/>
<polygon fill="black" stroke="black" points="1802.41,-121.654 1805.15,-111.418 1796.63,-117.716 1802.41,-121.654"/>
</g>
<!-- 17 -->
<g id="node18" class="node"><title>17</title>
<path fill="#97b6b6" stroke="black" d="M1910,-111C1910,-111 1876,-111 1876,-111 1870,-111 1864,-105 1864,-99 1864,-99 1864,-87 1864,-87 1864,-81 1870,-75 1876,-75 1876,-75 1910,-75 1910,-75 1916,-75 1922,-81 1922,-87 1922,-87 1922,-99 1922,-99 1922,-105 1916,-111 1910,-111"/>
<text text-anchor="middle" x="1893" y="-89.3" font-family="Times,serif" font-size="14.00">comp 3</text>
</g>
<!-- 3&#45;&gt;17 -->
<g id="edge17" class="edge"><title>3&#45;&gt;17</title>
<path fill="none" stroke="black" d="M1799.54,-147.831C1816.29,-138.182 1837.02,-126.246 1854.69,-116.068"/>
<polygon fill="black" stroke="black" points="1856.7,-118.95 1863.61,-110.926 1853.2,-112.885 1856.7,-118.95"/>
</g>
<!-- 18 -->
<g id="node19" class="node"><title>18</title>
<path fill="#839e9e" stroke="black" d="M1989,-111C1989,-111 1955,-111 1955,-111 1949,-111 1943,-105 1943,-99 1943,-99 1943,-87 1943,-87 1943,-81 1949,-75 1955,-75 1955,-75 1989,-75 1989,-75 1995,-75 2001,-81 2001,-87 2001,-87 2001,-99 2001,-99 2001,-105 1995,-111 1989,-111"/>
<text text-anchor="middle" x="1972" y="-89.3" font-family="Times,serif" font-size="14.00">identity</text>
</g>
<!-- 3&#45;&gt;18 -->
<g id="edge18" class="edge"><title>3&#45;&gt;18</title>
<path fill="none" stroke="black" d="M1816.2,-151.338C1848.87,-141.082 1892.88,-126.647 1931,-112 1931.71,-111.728 1932.42,-111.451 1933.14,-111.169"/>
<polygon fill="black" stroke="black" points="1934.64,-114.335 1942.58,-107.312 1932,-107.855 1934.64,-114.335"/>
</g>
<!-- 19 -->
<g id="node20" class="node"><title>19</title>
<path fill="#e9d3ff" stroke="black" d="M89.5,-38C89.5,-38 54.5,-38 54.5,-38 48.5,-38 42.5,-32 42.5,-26 42.5,-26 42.5,-12 42.5,-12 42.5,-6 48.5,-0 54.5,-0 54.5,-0 89.5,-0 89.5,-0 95.5,-0 101.5,-6 101.5,-12 101.5,-12 101.5,-26 101.5,-26 101.5,-32 95.5,-38 89.5,-38"/>
<text text-anchor="middle" x="72" y="-22.8" font-family="Times,serif" font-size="14.00">forward</text>
<text text-anchor="middle" x="72" y="-7.8" font-family="Times,serif" font-size="14.00">input</text>
</g>
<!-- 4&#45;&gt;19 -->
<g id="edge19" class="edge"><title>4&#45;&gt;19</title>
<path fill="none" stroke="black" d="M72,-73.8314C72,-66.131 72,-56.9743 72,-48.4166"/>
<polygon fill="black" stroke="black" points="75.5001,-48.4132 72,-38.4133 68.5001,-48.4133 75.5001,-48.4132"/>
</g>
<!-- 20 -->
<g id="node21" class="node"><title>20</title>
<path fill="#e9d3ff" stroke="black" d="M252.5,-38C252.5,-38 215.5,-38 215.5,-38 209.5,-38 203.5,-32 203.5,-26 203.5,-26 203.5,-12 203.5,-12 203.5,-6 209.5,-0 215.5,-0 215.5,-0 252.5,-0 252.5,-0 258.5,-0 264.5,-6 264.5,-12 264.5,-12 264.5,-26 264.5,-26 264.5,-32 258.5,-38 252.5,-38"/>
<text text-anchor="middle" x="234" y="-22.8" font-family="Times,serif" font-size="14.00">forward</text>
<text text-anchor="middle" x="234" y="-7.8" font-family="Times,serif" font-size="14.00">CB0/C0</text>
</g>
<!-- 5&#45;&gt;20 -->
<g id="edge20" class="edge"><title>5&#45;&gt;20</title>
<path fill="none" stroke="black" d="M234,-73.8314C234,-66.131 234,-56.9743 234,-48.4166"/>
<polygon fill="black" stroke="black" points="237.5,-48.4132 234,-38.4133 230.5,-48.4133 237.5,-48.4132"/>
</g>
<!-- 21 -->
<g id="node22" class="node"><title>21</title>
<path fill="#e9d3ff" stroke="black" d="M386.5,-38C386.5,-38 349.5,-38 349.5,-38 343.5,-38 337.5,-32 337.5,-26 337.5,-26 337.5,-12 337.5,-12 337.5,-6 343.5,-0 349.5,-0 349.5,-0 386.5,-0 386.5,-0 392.5,-0 398.5,-6 398.5,-12 398.5,-12 398.5,-26 398.5,-26 398.5,-32 392.5,-38 386.5,-38"/>
<text text-anchor="middle" x="368" y="-22.8" font-family="Times,serif" font-size="14.00">forward</text>
<text text-anchor="middle" x="368" y="-7.8" font-family="Times,serif" font-size="14.00">CB0/C1</text>
</g>
<!-- 6&#45;&gt;21 -->
<g id="edge21" class="edge"><title>6&#45;&gt;21</title>
<path fill="none" stroke="black" d="M368,-73.8314C368,-66.131 368,-56.9743 368,-48.4166"/>
<polygon fill="black" stroke="black" points="371.5,-48.4132 368,-38.4133 364.5,-48.4133 371.5,-48.4132"/>
</g>
<!-- 22 -->
<g id="node23" class="node"><title>22</title>
<path fill="#e9d3ff" stroke="black" d="M562.5,-38C562.5,-38 525.5,-38 525.5,-38 519.5,-38 513.5,-32 513.5,-26 513.5,-26 513.5,-12 513.5,-12 513.5,-6 519.5,-0 525.5,-0 525.5,-0 562.5,-0 562.5,-0 568.5,-0 574.5,-6 574.5,-12 574.5,-12 574.5,-26 574.5,-26 574.5,-32 568.5,-38 562.5,-38"/>
<text text-anchor="middle" x="544" y="-22.8" font-family="Times,serif" font-size="14.00">forward</text>
<text text-anchor="middle" x="544" y="-7.8" font-family="Times,serif" font-size="14.00">CB0/C2</text>
</g>
<!-- 7&#45;&gt;22 -->
<g id="edge22" class="edge"><title>7&#45;&gt;22</title>
<path fill="none" stroke="black" d="M544,-73.8314C544,-66.131 544,-56.9743 544,-48.4166"/>
<polygon fill="black" stroke="black" points="547.5,-48.4132 544,-38.4133 540.5,-48.4133 547.5,-48.4132"/>
</g>
<!-- 23 -->
<g id="node24" class="node"><title>23</title>
<path fill="#e9d3ff" stroke="black" d="M644.5,-38C644.5,-38 607.5,-38 607.5,-38 601.5,-38 595.5,-32 595.5,-26 595.5,-26 595.5,-12 595.5,-12 595.5,-6 601.5,-0 607.5,-0 607.5,-0 644.5,-0 644.5,-0 650.5,-0 656.5,-6 656.5,-12 656.5,-12 656.5,-26 656.5,-26 656.5,-32 650.5,-38 644.5,-38"/>
<text text-anchor="middle" x="626" y="-22.8" font-family="Times,serif" font-size="14.00">residual</text>
<text text-anchor="middle" x="626" y="-7.8" font-family="Times,serif" font-size="14.00">CB0/C0</text>
</g>
<!-- 8&#45;&gt;23 -->
<g id="edge23" class="edge"><title>8&#45;&gt;23</title>
<path fill="none" stroke="black" d="M686.278,-74.937C676.512,-66.0359 664.376,-54.9756 653.559,-45.1172"/>
<polygon fill="black" stroke="black" points="655.717,-42.3484 645.969,-38.1992 651.002,-47.5221 655.717,-42.3484"/>
</g>
<!-- 24 -->
<g id="node25" class="node"><title>24</title>
<path fill="#d3bfe6" stroke="black" d="M723.5,-38C723.5,-38 686.5,-38 686.5,-38 680.5,-38 674.5,-32 674.5,-26 674.5,-26 674.5,-12 674.5,-12 674.5,-6 680.5,-0 686.5,-0 686.5,-0 723.5,-0 723.5,-0 729.5,-0 735.5,-6 735.5,-12 735.5,-12 735.5,-26 735.5,-26 735.5,-32 729.5,-38 723.5,-38"/>
<text text-anchor="middle" x="705" y="-22.8" font-family="Times,serif" font-size="14.00">forward</text>
<text text-anchor="middle" x="705" y="-7.8" font-family="Times,serif" font-size="14.00">CB0/C3</text>
</g>
<!-- 8&#45;&gt;24 -->
<g id="edge24" class="edge"><title>8&#45;&gt;24</title>
<path fill="none" stroke="black" d="M705,-74.937C705,-66.9865 705,-57.3134 705,-48.3127"/>
<polygon fill="black" stroke="black" points="708.5,-48.1991 705,-38.1992 701.5,-48.1992 708.5,-48.1991"/>
</g>
<!-- 25 -->
<g id="node26" class="node"><title>25</title>
<path fill="#e9d3ff" stroke="black" d="M800.5,-38C800.5,-38 765.5,-38 765.5,-38 759.5,-38 753.5,-32 753.5,-26 753.5,-26 753.5,-12 753.5,-12 753.5,-6 759.5,-0 765.5,-0 765.5,-0 800.5,-0 800.5,-0 806.5,-0 812.5,-6 812.5,-12 812.5,-12 812.5,-26 812.5,-26 812.5,-32 806.5,-38 800.5,-38"/>
<text text-anchor="middle" x="783" y="-22.8" font-family="Times,serif" font-size="14.00">forward</text>
<text text-anchor="middle" x="783" y="-7.8" font-family="Times,serif" font-size="14.00">CB0/I</text>
</g>
<!-- 9&#45;&gt;25 -->
<g id="edge25" class="edge"><title>9&#45;&gt;25</title>
<path fill="none" stroke="black" d="M782.237,-74.937C782.347,-66.9865 782.482,-57.3134 782.607,-48.3127"/>
<polygon fill="black" stroke="black" points="786.108,-48.2468 782.747,-38.1992 779.109,-48.1496 786.108,-48.2468"/>
</g>
<!-- 26 -->
<g id="node27" class="node"><title>26</title>
<path fill="#e9d3ff" stroke="black" d="M957.5,-38C957.5,-38 920.5,-38 920.5,-38 914.5,-38 908.5,-32 908.5,-26 908.5,-26 908.5,-12 908.5,-12 908.5,-6 914.5,-0 920.5,-0 920.5,-0 957.5,-0 957.5,-0 963.5,-0 969.5,-6 969.5,-12 969.5,-12 969.5,-26 969.5,-26 969.5,-32 963.5,-38 957.5,-38"/>
<text text-anchor="middle" x="939" y="-22.8" font-family="Times,serif" font-size="14.00">forward</text>
<text text-anchor="middle" x="939" y="-7.8" font-family="Times,serif" font-size="14.00">CB1/C0</text>
</g>
<!-- 10&#45;&gt;26 -->
<g id="edge26" class="edge"><title>10&#45;&gt;26</title>
<path fill="none" stroke="black" d="M939,-73.8314C939,-66.131 939,-56.9743 939,-48.4166"/>
<polygon fill="black" stroke="black" points="942.5,-48.4132 939,-38.4133 935.5,-48.4133 942.5,-48.4132"/>
</g>
<!-- 27 -->
<g id="node28" class="node"><title>27</title>
<path fill="#e9d3ff" stroke="black" d="M1128.5,-38C1128.5,-38 1091.5,-38 1091.5,-38 1085.5,-38 1079.5,-32 1079.5,-26 1079.5,-26 1079.5,-12 1079.5,-12 1079.5,-6 1085.5,-0 1091.5,-0 1091.5,-0 1128.5,-0 1128.5,-0 1134.5,-0 1140.5,-6 1140.5,-12 1140.5,-12 1140.5,-26 1140.5,-26 1140.5,-32 1134.5,-38 1128.5,-38"/>
<text text-anchor="middle" x="1110" y="-22.8" font-family="Times,serif" font-size="14.00">forward</text>
<text text-anchor="middle" x="1110" y="-7.8" font-family="Times,serif" font-size="14.00">CB1/C1</text>
</g>
<!-- 11&#45;&gt;27 -->
<g id="edge27" class="edge"><title>11&#45;&gt;27</title>
<path fill="none" stroke="black" d="M1110,-73.8314C1110,-66.131 1110,-56.9743 1110,-48.4166"/>
<polygon fill="black" stroke="black" points="1113.5,-48.4132 1110,-38.4133 1106.5,-48.4133 1113.5,-48.4132"/>
</g>
<!-- 28 -->
<g id="node29" class="node"><title>28</title>
<path fill="#e9d3ff" stroke="black" d="M1331.5,-38C1331.5,-38 1294.5,-38 1294.5,-38 1288.5,-38 1282.5,-32 1282.5,-26 1282.5,-26 1282.5,-12 1282.5,-12 1282.5,-6 1288.5,-0 1294.5,-0 1294.5,-0 1331.5,-0 1331.5,-0 1337.5,-0 1343.5,-6 1343.5,-12 1343.5,-12 1343.5,-26 1343.5,-26 1343.5,-32 1337.5,-38 1331.5,-38"/>
<text text-anchor="middle" x="1313" y="-22.8" font-family="Times,serif" font-size="14.00">forward</text>
<text text-anchor="middle" x="1313" y="-7.8" font-family="Times,serif" font-size="14.00">CB1/C2</text>
</g>
<!-- 12&#45;&gt;28 -->
<g id="edge28" class="edge"><title>12&#45;&gt;28</title>
<path fill="none" stroke="black" d="M1313,-73.8314C1313,-66.131 1313,-56.9743 1313,-48.4166"/>
<polygon fill="black" stroke="black" points="1316.5,-48.4132 1313,-38.4133 1309.5,-48.4133 1316.5,-48.4132"/>
</g>
<!-- 29 -->
<g id="node30" class="node"><title>29</title>
<path fill="#e9d3ff" stroke="black" d="M1451.5,-38C1451.5,-38 1414.5,-38 1414.5,-38 1408.5,-38 1402.5,-32 1402.5,-26 1402.5,-26 1402.5,-12 1402.5,-12 1402.5,-6 1408.5,-0 1414.5,-0 1414.5,-0 1451.5,-0 1451.5,-0 1457.5,-0 1463.5,-6 1463.5,-12 1463.5,-12 1463.5,-26 1463.5,-26 1463.5,-32 1457.5,-38 1451.5,-38"/>
<text text-anchor="middle" x="1433" y="-22.8" font-family="Times,serif" font-size="14.00">residual</text>
<text text-anchor="middle" x="1433" y="-7.8" font-family="Times,serif" font-size="14.00">CB1/C0</text>
</g>
<!-- 13&#45;&gt;29 -->
<g id="edge29" class="edge"><title>13&#45;&gt;29</title>
<path fill="none" stroke="black" d="M1485.65,-74.937C1477.28,-66.2088 1466.93,-55.4044 1457.62,-45.6928"/>
<polygon fill="black" stroke="black" points="1459.89,-42.9974 1450.44,-38.1992 1454.83,-47.8408 1459.89,-42.9974"/>
</g>
<!-- 30 -->
<g id="node31" class="node"><title>30</title>
<path fill="#d3bfe6" stroke="black" d="M1530.5,-38C1530.5,-38 1493.5,-38 1493.5,-38 1487.5,-38 1481.5,-32 1481.5,-26 1481.5,-26 1481.5,-12 1481.5,-12 1481.5,-6 1487.5,-0 1493.5,-0 1493.5,-0 1530.5,-0 1530.5,-0 1536.5,-0 1542.5,-6 1542.5,-12 1542.5,-12 1542.5,-26 1542.5,-26 1542.5,-32 1536.5,-38 1530.5,-38"/>
<text text-anchor="middle" x="1512" y="-22.8" font-family="Times,serif" font-size="14.00">forward</text>
<text text-anchor="middle" x="1512" y="-7.8" font-family="Times,serif" font-size="14.00">CB1/C3</text>
</g>
<!-- 13&#45;&gt;30 -->
<g id="edge30" class="edge"><title>13&#45;&gt;30</title>
<path fill="none" stroke="black" d="M1504.37,-74.937C1505.47,-66.9865 1506.82,-57.3134 1508.07,-48.3127"/>
<polygon fill="black" stroke="black" points="1511.56,-48.5856 1509.47,-38.1992 1504.63,-47.6226 1511.56,-48.5856"/>
</g>
<!-- 31 -->
<g id="node32" class="node"><title>31</title>
<path fill="#e9d3ff" stroke="black" d="M1617.5,-38C1617.5,-38 1582.5,-38 1582.5,-38 1576.5,-38 1570.5,-32 1570.5,-26 1570.5,-26 1570.5,-12 1570.5,-12 1570.5,-6 1576.5,-0 1582.5,-0 1582.5,-0 1617.5,-0 1617.5,-0 1623.5,-0 1629.5,-6 1629.5,-12 1629.5,-12 1629.5,-26 1629.5,-26 1629.5,-32 1623.5,-38 1617.5,-38"/>
<text text-anchor="middle" x="1600" y="-22.8" font-family="Times,serif" font-size="14.00">forward</text>
<text text-anchor="middle" x="1600" y="-7.8" font-family="Times,serif" font-size="14.00">CB1/I</text>
</g>
<!-- 14&#45;&gt;31 -->
<g id="edge31" class="edge"><title>14&#45;&gt;31</title>
<path fill="none" stroke="black" d="M1600,-73.8314C1600,-66.131 1600,-56.9743 1600,-48.4166"/>
<polygon fill="black" stroke="black" points="1603.5,-48.4132 1600,-38.4133 1596.5,-48.4133 1603.5,-48.4132"/>
</g>
<!-- 32 -->
<g id="node33" class="node"><title>32</title>
<path fill="#e9d3ff" stroke="black" d="M1737.5,-38C1737.5,-38 1700.5,-38 1700.5,-38 1694.5,-38 1688.5,-32 1688.5,-26 1688.5,-26 1688.5,-12 1688.5,-12 1688.5,-6 1694.5,-0 1700.5,-0 1700.5,-0 1737.5,-0 1737.5,-0 1743.5,-0 1749.5,-6 1749.5,-12 1749.5,-12 1749.5,-26 1749.5,-26 1749.5,-32 1743.5,-38 1737.5,-38"/>
<text text-anchor="middle" x="1719" y="-22.8" font-family="Times,serif" font-size="14.00">forward</text>
<text text-anchor="middle" x="1719" y="-7.8" font-family="Times,serif" font-size="14.00">CB2/C0</text>
</g>
<!-- 15&#45;&gt;32 -->
<g id="edge32" class="edge"><title>15&#45;&gt;32</title>
<path fill="none" stroke="black" d="M1719,-73.8314C1719,-66.131 1719,-56.9743 1719,-48.4166"/>
<polygon fill="black" stroke="black" points="1722.5,-48.4132 1719,-38.4133 1715.5,-48.4133 1722.5,-48.4132"/>
</g>
<!-- 33 -->
<g id="node34" class="node"><title>33</title>
<path fill="#e9d3ff" stroke="black" d="M1832.5,-38C1832.5,-38 1795.5,-38 1795.5,-38 1789.5,-38 1783.5,-32 1783.5,-26 1783.5,-26 1783.5,-12 1783.5,-12 1783.5,-6 1789.5,-0 1795.5,-0 1795.5,-0 1832.5,-0 1832.5,-0 1838.5,-0 1844.5,-6 1844.5,-12 1844.5,-12 1844.5,-26 1844.5,-26 1844.5,-32 1838.5,-38 1832.5,-38"/>
<text text-anchor="middle" x="1814" y="-22.8" font-family="Times,serif" font-size="14.00">forward</text>
<text text-anchor="middle" x="1814" y="-7.8" font-family="Times,serif" font-size="14.00">CB2/C1</text>
</g>
<!-- 16&#45;&gt;33 -->
<g id="edge33" class="edge"><title>16&#45;&gt;33</title>
<path fill="none" stroke="black" d="M1816.29,-74.937C1815.96,-66.9865 1815.55,-57.3134 1815.18,-48.3127"/>
<polygon fill="black" stroke="black" points="1818.67,-48.0448 1814.76,-38.1992 1811.68,-48.3362 1818.67,-48.0448"/>
</g>
<!-- 34 -->
<g id="node35" class="node"><title>34</title>
<path fill="#e9d3ff" stroke="black" d="M1911.5,-38C1911.5,-38 1874.5,-38 1874.5,-38 1868.5,-38 1862.5,-32 1862.5,-26 1862.5,-26 1862.5,-12 1862.5,-12 1862.5,-6 1868.5,-0 1874.5,-0 1874.5,-0 1911.5,-0 1911.5,-0 1917.5,-0 1923.5,-6 1923.5,-12 1923.5,-12 1923.5,-26 1923.5,-26 1923.5,-32 1917.5,-38 1911.5,-38"/>
<text text-anchor="middle" x="1893" y="-22.8" font-family="Times,serif" font-size="14.00">forward</text>
<text text-anchor="middle" x="1893" y="-7.8" font-family="Times,serif" font-size="14.00">CB2/C2</text>
</g>
<!-- 17&#45;&gt;34 -->
<g id="edge34" class="edge"><title>17&#45;&gt;34</title>
<path fill="none" stroke="black" d="M1893,-74.937C1893,-66.9865 1893,-57.3134 1893,-48.3127"/>
<polygon fill="black" stroke="black" points="1896.5,-48.1991 1893,-38.1992 1889.5,-48.1992 1896.5,-48.1991"/>
</g>
<!-- 35 -->
<g id="node36" class="node"><title>35</title>
<path fill="#e9d3ff" stroke="black" d="M1990.5,-38C1990.5,-38 1953.5,-38 1953.5,-38 1947.5,-38 1941.5,-32 1941.5,-26 1941.5,-26 1941.5,-12 1941.5,-12 1941.5,-6 1947.5,-0 1953.5,-0 1953.5,-0 1990.5,-0 1990.5,-0 1996.5,-0 2002.5,-6 2002.5,-12 2002.5,-12 2002.5,-26 2002.5,-26 2002.5,-32 1996.5,-38 1990.5,-38"/>
<text text-anchor="middle" x="1972" y="-22.8" font-family="Times,serif" font-size="14.00">residual</text>
<text text-anchor="middle" x="1972" y="-7.8" font-family="Times,serif" font-size="14.00">CB2/C0</text>
</g>
<!-- 18&#45;&gt;35 -->
<g id="edge35" class="edge"><title>18&#45;&gt;35</title>
<path fill="none" stroke="black" d="M1972,-74.937C1972,-66.9865 1972,-57.3134 1972,-48.3127"/>
<polygon fill="black" stroke="black" points="1975.5,-48.1991 1972,-38.1992 1968.5,-48.1992 1975.5,-48.1991"/>
</g>
<!-- 36 -->
<g id="node37" class="node"><title>36</title>
<path fill="#d3bfe6" stroke="black" d="M2069.5,-38C2069.5,-38 2032.5,-38 2032.5,-38 2026.5,-38 2020.5,-32 2020.5,-26 2020.5,-26 2020.5,-12 2020.5,-12 2020.5,-6 2026.5,-0 2032.5,-0 2032.5,-0 2069.5,-0 2069.5,-0 2075.5,-0 2081.5,-6 2081.5,-12 2081.5,-12 2081.5,-26 2081.5,-26 2081.5,-32 2075.5,-38 2069.5,-38"/>
<text text-anchor="middle" x="2051" y="-22.8" font-family="Times,serif" font-size="14.00">forward</text>
<text text-anchor="middle" x="2051" y="-7.8" font-family="Times,serif" font-size="14.00">CB2/C3</text>
</g>
<!-- 18&#45;&gt;36 -->
<g id="edge36" class="edge"><title>18&#45;&gt;36</title>
<path fill="none" stroke="black" d="M1990.72,-74.937C2000.49,-66.0359 2012.62,-54.9756 2023.44,-45.1172"/>
<polygon fill="black" stroke="black" points="2026,-47.5221 2031.03,-38.1992 2021.28,-42.3484 2026,-47.5221"/>
</g>
</g>
</svg>
