<?xml version="1.0" encoding="UTF-8" standalone="no"?>
<!DOCTYPE svg PUBLIC "-//W3C//DTD SVG 1.1//EN"
 "http://www.w3.org/Graphics/SVG/1.1/DTD/svg11.dtd">
<!-- Generated by graphviz version 2.38.0 (20140413.2041)
 -->
<!-- Title: %3 Pages: 1 -->
<svg width="3376pt" height="418pt"
 viewBox="0.00 0.00 3376.00 418.00" xmlns="http://www.w3.org/2000/svg" xmlns:xlink="http://www.w3.org/1999/xlink">
<g id="graph0" class="graph" transform="scale(1 1) rotate(0) translate(4 414)">
<title>%3</title>
<polygon fill="none" stroke="none" points="-4,4 -4,-414 3372,-414 3372,4 -4,4"/>
<!-- 0 -->
<g id="node1" class="node"><title>0</title>
<path fill="#ffd3d3" stroke="black" d="M2461,-410C2461,-410 2270,-410 2270,-410 2264,-410 2258,-404 2258,-398 2258,-398 2258,-369 2258,-369 2258,-363 2264,-357 2270,-357 2270,-357 2461,-357 2461,-357 2467,-357 2473,-363 2473,-369 2473,-369 2473,-398 2473,-398 2473,-404 2467,-410 2461,-410"/>
<text text-anchor="middle" x="2365.5" y="-394.8" font-family="Times,serif" font-size="14.00">net</text>
<text text-anchor="middle" x="2365.5" y="-379.8" font-family="Times,serif" font-size="14.00">k width: 3 &#160;&#160;log gamma2: &#45;9.767389</text>
<text text-anchor="middle" x="2365.5" y="-364.8" font-family="Times,serif" font-size="14.00">n kernels: 66</text>
</g>
<!-- 1 -->
<g id="node2" class="node"><title>1</title>
<path fill="#e9ffd3" stroke="black" d="M1047.5,-321C1047.5,-321 779.5,-321 779.5,-321 773.5,-321 767.5,-315 767.5,-309 767.5,-309 767.5,-280 767.5,-280 767.5,-274 773.5,-268 779.5,-268 779.5,-268 1047.5,-268 1047.5,-268 1053.5,-268 1059.5,-274 1059.5,-280 1059.5,-280 1059.5,-309 1059.5,-309 1059.5,-315 1053.5,-321 1047.5,-321"/>
<text text-anchor="middle" x="913.5" y="-305.8" font-family="Times,serif" font-size="14.00">conv block 0</text>
<text text-anchor="middle" x="913.5" y="-290.8" font-family="Times,serif" font-size="14.00">log gamma1: &#45;1.027779 &#160;&#160;log gamma2: &#45;0.232611</text>
<text text-anchor="middle" x="913.5" y="-275.8" font-family="Times,serif" font-size="14.00">n kernels: 10</text>
</g>
<!-- 0&#45;&gt;1 -->
<g id="edge1" class="edge"><title>0&#45;&gt;1</title>
<path fill="none" stroke="black" d="M2257.85,-376.05C2003.94,-360.836 1366.81,-322.661 1070.09,-304.883"/>
<polygon fill="black" stroke="black" points="1069.87,-301.363 1059.68,-304.259 1069.45,-308.351 1069.87,-301.363"/>
</g>
<!-- 2 -->
<g id="node3" class="node"><title>2</title>
<path fill="#e9ffd3" stroke="black" d="M2426.5,-321C2426.5,-321 2304.5,-321 2304.5,-321 2298.5,-321 2292.5,-315 2292.5,-309 2292.5,-309 2292.5,-280 2292.5,-280 2292.5,-274 2298.5,-268 2304.5,-268 2304.5,-268 2426.5,-268 2426.5,-268 2432.5,-268 2438.5,-274 2438.5,-280 2438.5,-280 2438.5,-309 2438.5,-309 2438.5,-315 2432.5,-321 2426.5,-321"/>
<text text-anchor="middle" x="2365.5" y="-305.8" font-family="Times,serif" font-size="14.00">conv block 1</text>
<text text-anchor="middle" x="2365.5" y="-290.8" font-family="Times,serif" font-size="14.00">n kernels: 66 &#160;&#160;pool z: 1</text>
<text text-anchor="middle" x="2365.5" y="-275.8" font-family="Times,serif" font-size="14.00">spatial scale: 1</text>
</g>
<!-- 0&#45;&gt;2 -->
<g id="edge2" class="edge"><title>0&#45;&gt;2</title>
<path fill="none" stroke="black" d="M2365.5,-356.868C2365.5,-348.886 2365.5,-339.932 2365.5,-331.384"/>
<polygon fill="black" stroke="black" points="2369,-331.25 2365.5,-321.25 2362,-331.25 2369,-331.25"/>
</g>
<!-- 3 -->
<g id="node4" class="node"><title>3</title>
<path fill="#e9ffd3" stroke="black" d="M2926,-312.5C2926,-312.5 2859,-312.5 2859,-312.5 2853,-312.5 2847,-306.5 2847,-300.5 2847,-300.5 2847,-288.5 2847,-288.5 2847,-282.5 2853,-276.5 2859,-276.5 2859,-276.5 2926,-276.5 2926,-276.5 2932,-276.5 2938,-282.5 2938,-288.5 2938,-288.5 2938,-300.5 2938,-300.5 2938,-306.5 2932,-312.5 2926,-312.5"/>
<text text-anchor="middle" x="2892.5" y="-290.8" font-family="Times,serif" font-size="14.00">path combine</text>
</g>
<!-- 0&#45;&gt;3 -->
<g id="edge3" class="edge"><title>0&#45;&gt;3</title>
<path fill="none" stroke="black" d="M2473.1,-364.737C2583.32,-346.542 2750.36,-318.965 2836.6,-304.728"/>
<polygon fill="black" stroke="black" points="2837.41,-308.142 2846.71,-303.06 2836.27,-301.235 2837.41,-308.142"/>
</g>
<!-- 4 -->
<g id="node5" class="node"><title>4</title>
<path fill="#d3ffff" stroke="black" d="M370.5,-202C370.5,-202 302.5,-202 302.5,-202 296.5,-202 290.5,-196 290.5,-190 290.5,-190 290.5,-176 290.5,-176 290.5,-170 296.5,-164 302.5,-164 302.5,-164 370.5,-164 370.5,-164 376.5,-164 382.5,-170 382.5,-176 382.5,-176 382.5,-190 382.5,-190 382.5,-196 376.5,-202 370.5,-202"/>
<text text-anchor="middle" x="336.5" y="-186.8" font-family="Times,serif" font-size="14.00">comp 0</text>
<text text-anchor="middle" x="336.5" y="-171.8" font-family="Times,serif" font-size="14.00">n kernels: &#45;11</text>
</g>
<!-- 1&#45;&gt;4 -->
<g id="edge4" class="edge"><title>1&#45;&gt;4</title>
<path fill="none" stroke="black" d="M770.741,-267.998C710.718,-257.133 640.172,-244.176 576.5,-232 513.573,-219.966 441.518,-205.457 392.916,-195.563"/>
<polygon fill="black" stroke="black" points="393.41,-192.092 382.912,-193.524 392.012,-198.951 393.41,-192.092"/>
</g>
<!-- 5 -->
<g id="node6" class="node"><title>5</title>
<path fill="#bfe6e6" stroke="black" d="M631.5,-201C631.5,-201 597.5,-201 597.5,-201 591.5,-201 585.5,-195 585.5,-189 585.5,-189 585.5,-177 585.5,-177 585.5,-171 591.5,-165 597.5,-165 597.5,-165 631.5,-165 631.5,-165 637.5,-165 643.5,-171 643.5,-177 643.5,-177 643.5,-189 643.5,-189 643.5,-195 637.5,-201 631.5,-201"/>
<text text-anchor="middle" x="614.5" y="-179.3" font-family="Times,serif" font-size="14.00">comp 1</text>
</g>
<!-- 1&#45;&gt;5 -->
<g id="edge5" class="edge"><title>1&#45;&gt;5</title>
<path fill="none" stroke="black" d="M843.775,-267.965C784.365,-246.208 701.185,-215.746 653.064,-198.123"/>
<polygon fill="black" stroke="black" points="654.231,-194.823 643.637,-194.671 651.823,-201.396 654.231,-194.823"/>
</g>
<!-- 6 -->
<g id="node7" class="node"><title>6</title>
<path fill="#abcece" stroke="black" d="M877,-202C877,-202 814,-202 814,-202 808,-202 802,-196 802,-190 802,-190 802,-176 802,-176 802,-170 808,-164 814,-164 814,-164 877,-164 877,-164 883,-164 889,-170 889,-176 889,-176 889,-190 889,-190 889,-196 883,-202 877,-202"/>
<text text-anchor="middle" x="845.5" y="-186.8" font-family="Times,serif" font-size="14.00">comp 2</text>
<text text-anchor="middle" x="845.5" y="-171.8" font-family="Times,serif" font-size="14.00">n kernels: 13</text>
</g>
<!-- 1&#45;&gt;6 -->
<g id="edge6" class="edge"><title>1&#45;&gt;6</title>
<path fill="none" stroke="black" d="M897.557,-267.827C886.927,-250.709 872.979,-228.249 862.197,-210.887"/>
<polygon fill="black" stroke="black" points="865.13,-208.976 856.881,-202.327 859.183,-212.669 865.13,-208.976"/>
</g>
<!-- 7 -->
<g id="node8" class="node"><title>7</title>
<path fill="#97b6b6" stroke="black" d="M1091,-202C1091,-202 966,-202 966,-202 960,-202 954,-196 954,-190 954,-190 954,-176 954,-176 954,-170 960,-164 966,-164 966,-164 1091,-164 1091,-164 1097,-164 1103,-170 1103,-176 1103,-176 1103,-190 1103,-190 1103,-196 1097,-202 1091,-202"/>
<text text-anchor="middle" x="1028.5" y="-186.8" font-family="Times,serif" font-size="14.00">comp 3</text>
<text text-anchor="middle" x="1028.5" y="-171.8" font-family="Times,serif" font-size="14.00">log gamma1: &#45;1.694235</text>
</g>
<!-- 1&#45;&gt;7 -->
<g id="edge7" class="edge"><title>1&#45;&gt;7</title>
<path fill="none" stroke="black" d="M940.462,-267.827C958.935,-250.238 983.331,-227.009 1001.76,-209.465"/>
<polygon fill="black" stroke="black" points="1004.42,-211.757 1009.25,-202.327 999.597,-206.688 1004.42,-211.757"/>
</g>
<!-- 8 -->
<g id="node9" class="node"><title>8</title>
<path fill="#839e9e" stroke="black" d="M1381,-202C1381,-202 1320,-202 1320,-202 1314,-202 1308,-196 1308,-190 1308,-190 1308,-176 1308,-176 1308,-170 1314,-164 1320,-164 1320,-164 1381,-164 1381,-164 1387,-164 1393,-170 1393,-176 1393,-176 1393,-190 1393,-190 1393,-196 1387,-202 1381,-202"/>
<text text-anchor="middle" x="1350.5" y="-186.8" font-family="Times,serif" font-size="14.00">comp 4</text>
<text text-anchor="middle" x="1350.5" y="-171.8" font-family="Times,serif" font-size="14.00">n kernels: &#45;6</text>
</g>
<!-- 1&#45;&gt;8 -->
<g id="edge8" class="edge"><title>1&#45;&gt;8</title>
<path fill="none" stroke="black" d="M1015.41,-267.965C1103.87,-245.799 1228.39,-214.598 1298.05,-197.143"/>
<polygon fill="black" stroke="black" points="1299.07,-200.496 1307.92,-194.671 1297.36,-193.706 1299.07,-200.496"/>
</g>
<!-- 9 -->
<g id="node10" class="node"><title>9</title>
<path fill="#d3ffff" stroke="black" d="M1924.5,-201C1924.5,-201 1890.5,-201 1890.5,-201 1884.5,-201 1878.5,-195 1878.5,-189 1878.5,-189 1878.5,-177 1878.5,-177 1878.5,-171 1884.5,-165 1890.5,-165 1890.5,-165 1924.5,-165 1924.5,-165 1930.5,-165 1936.5,-171 1936.5,-177 1936.5,-177 1936.5,-189 1936.5,-189 1936.5,-195 1930.5,-201 1924.5,-201"/>
<text text-anchor="middle" x="1907.5" y="-179.3" font-family="Times,serif" font-size="14.00">comp 0</text>
</g>
<!-- 2&#45;&gt;9 -->
<g id="edge9" class="edge"><title>2&#45;&gt;9</title>
<path fill="none" stroke="black" d="M2292.47,-278.446C2235.84,-266.534 2155.48,-249.111 2085.5,-232 2037.54,-220.272 1982.74,-205.248 1946.76,-195.159"/>
<polygon fill="black" stroke="black" points="1947.26,-191.663 1936.68,-192.324 1945.36,-198.401 1947.26,-191.663"/>
</g>
<!-- 10 -->
<g id="node11" class="node"><title>10</title>
<path fill="#bfe6e6" stroke="black" d="M2168,-202C2168,-202 2107,-202 2107,-202 2101,-202 2095,-196 2095,-190 2095,-190 2095,-176 2095,-176 2095,-170 2101,-164 2107,-164 2107,-164 2168,-164 2168,-164 2174,-164 2180,-170 2180,-176 2180,-176 2180,-190 2180,-190 2180,-196 2174,-202 2168,-202"/>
<text text-anchor="middle" x="2137.5" y="-186.8" font-family="Times,serif" font-size="14.00">comp 1</text>
<text text-anchor="middle" x="2137.5" y="-171.8" font-family="Times,serif" font-size="14.00">n kernels: &#45;4</text>
</g>
<!-- 2&#45;&gt;10 -->
<g id="edge10" class="edge"><title>2&#45;&gt;10</title>
<path fill="none" stroke="black" d="M2312.33,-267.965C2273.51,-249.322 2221.39,-224.288 2184.18,-206.417"/>
<polygon fill="black" stroke="black" points="2185.58,-203.21 2175.05,-202.036 2182.55,-209.52 2185.58,-203.21"/>
</g>
<!-- 11 -->
<g id="node12" class="node"><title>11</title>
<path fill="#abcece" stroke="black" d="M2425.5,-202C2425.5,-202 2305.5,-202 2305.5,-202 2299.5,-202 2293.5,-196 2293.5,-190 2293.5,-190 2293.5,-176 2293.5,-176 2293.5,-170 2299.5,-164 2305.5,-164 2305.5,-164 2425.5,-164 2425.5,-164 2431.5,-164 2437.5,-170 2437.5,-176 2437.5,-176 2437.5,-190 2437.5,-190 2437.5,-196 2431.5,-202 2425.5,-202"/>
<text text-anchor="middle" x="2365.5" y="-186.8" font-family="Times,serif" font-size="14.00">comp 2</text>
<text text-anchor="middle" x="2365.5" y="-171.8" font-family="Times,serif" font-size="14.00">log gamma1: 0.470855</text>
</g>
<!-- 2&#45;&gt;11 -->
<g id="edge11" class="edge"><title>2&#45;&gt;11</title>
<path fill="none" stroke="black" d="M2365.5,-267.827C2365.5,-251.18 2365.5,-229.482 2365.5,-212.332"/>
<polygon fill="black" stroke="black" points="2369,-212.327 2365.5,-202.327 2362,-212.327 2369,-212.327"/>
</g>
<!-- 12 -->
<g id="node13" class="node"><title>12</title>
<path fill="#97b6b6" stroke="black" d="M2529,-202C2529,-202 2468,-202 2468,-202 2462,-202 2456,-196 2456,-190 2456,-190 2456,-176 2456,-176 2456,-170 2462,-164 2468,-164 2468,-164 2529,-164 2529,-164 2535,-164 2541,-170 2541,-176 2541,-176 2541,-190 2541,-190 2541,-196 2535,-202 2529,-202"/>
<text text-anchor="middle" x="2498.5" y="-186.8" font-family="Times,serif" font-size="14.00">comp 3</text>
<text text-anchor="middle" x="2498.5" y="-171.8" font-family="Times,serif" font-size="14.00">n kernels: &#45;4</text>
</g>
<!-- 2&#45;&gt;12 -->
<g id="edge12" class="edge"><title>2&#45;&gt;12</title>
<path fill="none" stroke="black" d="M2400.76,-267.881C2415.18,-257.106 2431.88,-244.247 2446.5,-232 2454.98,-224.899 2463.92,-216.858 2471.95,-209.416"/>
<polygon fill="black" stroke="black" points="2474.72,-211.618 2479.63,-202.23 2469.94,-206.506 2474.72,-211.618"/>
</g>
<!-- 13 -->
<g id="node14" class="node"><title>13</title>
<path fill="#839e9e" stroke="black" d="M2710,-202C2710,-202 2571,-202 2571,-202 2565,-202 2559,-196 2559,-190 2559,-190 2559,-176 2559,-176 2559,-170 2565,-164 2571,-164 2571,-164 2710,-164 2710,-164 2716,-164 2722,-170 2722,-176 2722,-176 2722,-190 2722,-190 2722,-196 2716,-202 2710,-202"/>
<text text-anchor="middle" x="2640.5" y="-186.8" font-family="Times,serif" font-size="14.00">path end 1</text>
<text text-anchor="middle" x="2640.5" y="-171.8" font-family="Times,serif" font-size="14.00">k width: &#45;2 &#160;&#160;n kernels: &#45;56</text>
</g>
<!-- 2&#45;&gt;13 -->
<g id="edge13" class="edge"><title>2&#45;&gt;13</title>
<path fill="none" stroke="black" d="M2438.61,-272.078C2472.78,-261.304 2513.73,-247.292 2549.5,-232 2566.52,-224.722 2584.68,-215.469 2600.26,-207.032"/>
<polygon fill="black" stroke="black" points="2602.03,-210.057 2609.11,-202.181 2598.66,-203.919 2602.03,-210.057"/>
</g>
<!-- 14 -->
<g id="node15" class="node"><title>14</title>
<path fill="#d3ffff" stroke="black" d="M3033,-232C3033,-232 2752,-232 2752,-232 2746,-232 2740,-226 2740,-220 2740,-220 2740,-146 2740,-146 2740,-140 2746,-134 2752,-134 2752,-134 3033,-134 3033,-134 3039,-134 3045,-140 3045,-146 3045,-146 3045,-220 3045,-220 3045,-226 3039,-232 3033,-232"/>
<text text-anchor="middle" x="2892.5" y="-216.8" font-family="Times,serif" font-size="14.00">forward</text>
<text text-anchor="middle" x="2892.5" y="-201.8" font-family="Times,serif" font-size="14.00">CB0/C4</text>
<text text-anchor="middle" x="2892.5" y="-186.8" font-family="Times,serif" font-size="14.00">dilation rate: 1 &#160;&#160;k width: 3</text>
<text text-anchor="middle" x="2892.5" y="-171.8" font-family="Times,serif" font-size="14.00">log gamma1: &#45;11.000000 &#160;&#160;log gamma2: &#45;11.000000</text>
<text text-anchor="middle" x="2892.5" y="-156.8" font-family="Times,serif" font-size="14.00">log lambda1: &#45;11.000000 &#160;&#160;log lambda2: &#45;11.000000</text>
<text text-anchor="middle" x="2892.5" y="-141.8" font-family="Times,serif" font-size="14.00">n kernels: 64</text>
</g>
<!-- 3&#45;&gt;14 -->
<g id="edge14" class="edge"><title>3&#45;&gt;14</title>
<path fill="none" stroke="black" d="M2892.5,-276.391C2892.5,-266.993 2892.5,-254.728 2892.5,-242.22"/>
<polygon fill="black" stroke="black" points="2896,-242.188 2892.5,-232.188 2889,-242.188 2896,-242.188"/>
</g>
<!-- 15 -->
<g id="node16" class="node"><title>15</title>
<path fill="#bfe6e6" stroke="black" d="M3356,-232C3356,-232 3075,-232 3075,-232 3069,-232 3063,-226 3063,-220 3063,-220 3063,-146 3063,-146 3063,-140 3069,-134 3075,-134 3075,-134 3356,-134 3356,-134 3362,-134 3368,-140 3368,-146 3368,-146 3368,-220 3368,-220 3368,-226 3362,-232 3356,-232"/>
<text text-anchor="middle" x="3215.5" y="-216.8" font-family="Times,serif" font-size="14.00">residual 1</text>
<text text-anchor="middle" x="3215.5" y="-201.8" font-family="Times,serif" font-size="14.00">CB1/PE1</text>
<text text-anchor="middle" x="3215.5" y="-186.8" font-family="Times,serif" font-size="14.00">dilation rate: 1 &#160;&#160;k width: 3</text>
<text text-anchor="middle" x="3215.5" y="-171.8" font-family="Times,serif" font-size="14.00">log gamma1: &#45;11.000000 &#160;&#160;log gamma2: &#45;11.000000</text>
<text text-anchor="middle" x="3215.5" y="-156.8" font-family="Times,serif" font-size="14.00">log lambda1: &#45;11.000000 &#160;&#160;log lambda2: &#45;11.000000</text>
<text text-anchor="middle" x="3215.5" y="-141.8" font-family="Times,serif" font-size="14.00">n kernels: 64</text>
</g>
<!-- 3&#45;&gt;15 -->
<g id="edge15" class="edge"><title>3&#45;&gt;15</title>
<path fill="none" stroke="black" d="M2938.09,-278.044C2971.21,-266.816 3018.08,-250.928 3063.88,-235.402"/>
<polygon fill="black" stroke="black" points="3065.28,-238.621 3073.63,-232.096 3063.03,-231.991 3065.28,-238.621"/>
</g>
<!-- 16 -->
<g id="node17" class="node"><title>16</title>
<path fill="#e9d3ff" stroke="black" d="M293,-98C293,-98 12,-98 12,-98 6,-98 0,-92 0,-86 0,-86 0,-12 0,-12 0,-6 6,-0 12,-0 12,-0 293,-0 293,-0 299,-0 305,-6 305,-12 305,-12 305,-86 305,-86 305,-92 299,-98 293,-98"/>
<text text-anchor="middle" x="152.5" y="-82.8" font-family="Times,serif" font-size="14.00">forward</text>
<text text-anchor="middle" x="152.5" y="-67.8" font-family="Times,serif" font-size="14.00">input</text>
<text text-anchor="middle" x="152.5" y="-52.8" font-family="Times,serif" font-size="14.00">dilation rate: 1 &#160;&#160;k width: 3</text>
<text text-anchor="middle" x="152.5" y="-37.8" font-family="Times,serif" font-size="14.00">log gamma1: &#45;11.000000 &#160;&#160;log gamma2: &#45;11.000000</text>
<text text-anchor="middle" x="152.5" y="-22.8" font-family="Times,serif" font-size="14.00">log lambda1: &#45;11.000000 &#160;&#160;log lambda2: &#45;11.000000</text>
<text text-anchor="middle" x="152.5" y="-7.8" font-family="Times,serif" font-size="14.00">n kernels: 64</text>
</g>
<!-- 4&#45;&gt;16 -->
<g id="edge16" class="edge"><title>4&#45;&gt;16</title>
<path fill="none" stroke="black" d="M311.301,-163.923C289.8,-148.498 257.736,-125.495 228.038,-104.19"/>
<polygon fill="black" stroke="black" points="229.9,-101.219 219.735,-98.2336 225.82,-106.907 229.9,-101.219"/>
</g>
<!-- 17 -->
<g id="node18" class="node"><title>17</title>
<path fill="#e9d3ff" stroke="black" d="M616,-98C616,-98 335,-98 335,-98 329,-98 323,-92 323,-86 323,-86 323,-12 323,-12 323,-6 329,-0 335,-0 335,-0 616,-0 616,-0 622,-0 628,-6 628,-12 628,-12 628,-86 628,-86 628,-92 622,-98 616,-98"/>
<text text-anchor="middle" x="475.5" y="-82.8" font-family="Times,serif" font-size="14.00">forward</text>
<text text-anchor="middle" x="475.5" y="-67.8" font-family="Times,serif" font-size="14.00">CB0/C0</text>
<text text-anchor="middle" x="475.5" y="-52.8" font-family="Times,serif" font-size="14.00">dilation rate: 1 &#160;&#160;k width: 3</text>
<text text-anchor="middle" x="475.5" y="-37.8" font-family="Times,serif" font-size="14.00">log gamma1: &#45;11.000000 &#160;&#160;log gamma2: &#45;11.000000</text>
<text text-anchor="middle" x="475.5" y="-22.8" font-family="Times,serif" font-size="14.00">log lambda1: &#45;11.000000 &#160;&#160;log lambda2: &#45;11.000000</text>
<text text-anchor="middle" x="475.5" y="-7.8" font-family="Times,serif" font-size="14.00">n kernels: 64</text>
</g>
<!-- 5&#45;&gt;17 -->
<g id="edge17" class="edge"><title>5&#45;&gt;17</title>
<path fill="none" stroke="black" d="M596.328,-164.743C580.325,-149.546 556.119,-126.559 533.564,-105.14"/>
<polygon fill="black" stroke="black" points="535.974,-102.602 526.312,-98.2533 531.153,-107.677 535.974,-102.602"/>
</g>
<!-- 18 -->
<g id="node19" class="node"><title>18</title>
<path fill="#e9d3ff" stroke="black" d="M939,-98C939,-98 658,-98 658,-98 652,-98 646,-92 646,-86 646,-86 646,-12 646,-12 646,-6 652,-0 658,-0 658,-0 939,-0 939,-0 945,-0 951,-6 951,-12 951,-12 951,-86 951,-86 951,-92 945,-98 939,-98"/>
<text text-anchor="middle" x="798.5" y="-82.8" font-family="Times,serif" font-size="14.00">forward</text>
<text text-anchor="middle" x="798.5" y="-67.8" font-family="Times,serif" font-size="14.00">CB0/C1</text>
<text text-anchor="middle" x="798.5" y="-52.8" font-family="Times,serif" font-size="14.00">dilation rate: 1 &#160;&#160;k width: 3</text>
<text text-anchor="middle" x="798.5" y="-37.8" font-family="Times,serif" font-size="14.00">log gamma1: &#45;11.000000 &#160;&#160;log gamma2: &#45;11.000000</text>
<text text-anchor="middle" x="798.5" y="-22.8" font-family="Times,serif" font-size="14.00">log lambda1: &#45;11.000000 &#160;&#160;log lambda2: &#45;11.000000</text>
<text text-anchor="middle" x="798.5" y="-7.8" font-family="Times,serif" font-size="14.00">n kernels: 64</text>
</g>
<!-- 6&#45;&gt;18 -->
<g id="edge18" class="edge"><title>6&#45;&gt;18</title>
<path fill="none" stroke="black" d="M839.063,-163.923C833.876,-149.355 826.283,-128.028 819.064,-107.755"/>
<polygon fill="black" stroke="black" points="822.326,-106.48 815.674,-98.2336 815.731,-108.828 822.326,-106.48"/>
</g>
<!-- 19 -->
<g id="node20" class="node"><title>19</title>
<path fill="#e9d3ff" stroke="black" d="M1262,-98C1262,-98 981,-98 981,-98 975,-98 969,-92 969,-86 969,-86 969,-12 969,-12 969,-6 975,-0 981,-0 981,-0 1262,-0 1262,-0 1268,-0 1274,-6 1274,-12 1274,-12 1274,-86 1274,-86 1274,-92 1268,-98 1262,-98"/>
<text text-anchor="middle" x="1121.5" y="-82.8" font-family="Times,serif" font-size="14.00">forward</text>
<text text-anchor="middle" x="1121.5" y="-67.8" font-family="Times,serif" font-size="14.00">CB0/C2</text>
<text text-anchor="middle" x="1121.5" y="-52.8" font-family="Times,serif" font-size="14.00">dilation rate: 1 &#160;&#160;k width: 3</text>
<text text-anchor="middle" x="1121.5" y="-37.8" font-family="Times,serif" font-size="14.00">log gamma1: &#45;11.000000 &#160;&#160;log gamma2: &#45;11.000000</text>
<text text-anchor="middle" x="1121.5" y="-22.8" font-family="Times,serif" font-size="14.00">log lambda1: &#45;11.000000 &#160;&#160;log lambda2: &#45;11.000000</text>
<text text-anchor="middle" x="1121.5" y="-7.8" font-family="Times,serif" font-size="14.00">n kernels: 64</text>
</g>
<!-- 7&#45;&gt;19 -->
<g id="edge19" class="edge"><title>7&#45;&gt;19</title>
<path fill="none" stroke="black" d="M1041.24,-163.923C1051.69,-149.091 1067.07,-127.253 1081.58,-106.655"/>
<polygon fill="black" stroke="black" points="1084.62,-108.424 1087.52,-98.2336 1078.9,-104.393 1084.62,-108.424"/>
</g>
<!-- 20 -->
<g id="node21" class="node"><title>20</title>
<path fill="#e9d3ff" stroke="black" d="M1585,-98C1585,-98 1304,-98 1304,-98 1298,-98 1292,-92 1292,-86 1292,-86 1292,-12 1292,-12 1292,-6 1298,-0 1304,-0 1304,-0 1585,-0 1585,-0 1591,-0 1597,-6 1597,-12 1597,-12 1597,-86 1597,-86 1597,-92 1591,-98 1585,-98"/>
<text text-anchor="middle" x="1444.5" y="-82.8" font-family="Times,serif" font-size="14.00">forward</text>
<text text-anchor="middle" x="1444.5" y="-67.8" font-family="Times,serif" font-size="14.00">CB0/C3</text>
<text text-anchor="middle" x="1444.5" y="-52.8" font-family="Times,serif" font-size="14.00">dilation rate: 1 &#160;&#160;k width: 3</text>
<text text-anchor="middle" x="1444.5" y="-37.8" font-family="Times,serif" font-size="14.00">log gamma1: &#45;11.000000 &#160;&#160;log gamma2: &#45;11.000000</text>
<text text-anchor="middle" x="1444.5" y="-22.8" font-family="Times,serif" font-size="14.00">log lambda1: &#45;11.000000 &#160;&#160;log lambda2: &#45;11.000000</text>
<text text-anchor="middle" x="1444.5" y="-7.8" font-family="Times,serif" font-size="14.00">n kernels: 64</text>
</g>
<!-- 8&#45;&gt;20 -->
<g id="edge20" class="edge"><title>8&#45;&gt;20</title>
<path fill="none" stroke="black" d="M1363.37,-163.923C1373.98,-149.025 1389.62,-127.059 1404.35,-106.381"/>
<polygon fill="black" stroke="black" points="1407.2,-108.41 1410.15,-98.2336 1401.5,-104.349 1407.2,-108.41"/>
</g>
<!-- 21 -->
<g id="node22" class="node"><title>21</title>
<path fill="#e9d3ff" stroke="black" d="M1908,-98C1908,-98 1627,-98 1627,-98 1621,-98 1615,-92 1615,-86 1615,-86 1615,-12 1615,-12 1615,-6 1621,-0 1627,-0 1627,-0 1908,-0 1908,-0 1914,-0 1920,-6 1920,-12 1920,-12 1920,-86 1920,-86 1920,-92 1914,-98 1908,-98"/>
<text text-anchor="middle" x="1767.5" y="-82.8" font-family="Times,serif" font-size="14.00">forward</text>
<text text-anchor="middle" x="1767.5" y="-67.8" font-family="Times,serif" font-size="14.00">input</text>
<text text-anchor="middle" x="1767.5" y="-52.8" font-family="Times,serif" font-size="14.00">dilation rate: 1 &#160;&#160;k width: 3</text>
<text text-anchor="middle" x="1767.5" y="-37.8" font-family="Times,serif" font-size="14.00">log gamma1: &#45;11.000000 &#160;&#160;log gamma2: &#45;11.000000</text>
<text text-anchor="middle" x="1767.5" y="-22.8" font-family="Times,serif" font-size="14.00">log lambda1: &#45;11.000000 &#160;&#160;log lambda2: &#45;11.000000</text>
<text text-anchor="middle" x="1767.5" y="-7.8" font-family="Times,serif" font-size="14.00">n kernels: 64</text>
</g>
<!-- 9&#45;&gt;21 -->
<g id="edge21" class="edge"><title>9&#45;&gt;21</title>
<path fill="none" stroke="black" d="M1889.2,-164.743C1873.08,-149.546 1848.7,-126.559 1825.98,-105.14"/>
<polygon fill="black" stroke="black" points="1828.35,-102.567 1818.68,-98.2533 1823.55,-107.66 1828.35,-102.567"/>
</g>
<!-- 22 -->
<g id="node23" class="node"><title>22</title>
<path fill="#e9d3ff" stroke="black" d="M2231,-98C2231,-98 1950,-98 1950,-98 1944,-98 1938,-92 1938,-86 1938,-86 1938,-12 1938,-12 1938,-6 1944,-0 1950,-0 1950,-0 2231,-0 2231,-0 2237,-0 2243,-6 2243,-12 2243,-12 2243,-86 2243,-86 2243,-92 2237,-98 2231,-98"/>
<text text-anchor="middle" x="2090.5" y="-82.8" font-family="Times,serif" font-size="14.00">forward</text>
<text text-anchor="middle" x="2090.5" y="-67.8" font-family="Times,serif" font-size="14.00">CB1/C0</text>
<text text-anchor="middle" x="2090.5" y="-52.8" font-family="Times,serif" font-size="14.00">dilation rate: 1 &#160;&#160;k width: 3</text>
<text text-anchor="middle" x="2090.5" y="-37.8" font-family="Times,serif" font-size="14.00">log gamma1: &#45;11.000000 &#160;&#160;log gamma2: &#45;11.000000</text>
<text text-anchor="middle" x="2090.5" y="-22.8" font-family="Times,serif" font-size="14.00">log lambda1: &#45;11.000000 &#160;&#160;log lambda2: &#45;11.000000</text>
<text text-anchor="middle" x="2090.5" y="-7.8" font-family="Times,serif" font-size="14.00">n kernels: 64</text>
</g>
<!-- 10&#45;&gt;22 -->
<g id="edge22" class="edge"><title>10&#45;&gt;22</title>
<path fill="none" stroke="black" d="M2131.06,-163.923C2125.88,-149.355 2118.28,-128.028 2111.06,-107.755"/>
<polygon fill="black" stroke="black" points="2114.33,-106.48 2107.67,-98.2336 2107.73,-108.828 2114.33,-106.48"/>
</g>
<!-- 23 -->
<g id="node24" class="node"><title>23</title>
<path fill="#e9d3ff" stroke="black" d="M2554,-98C2554,-98 2273,-98 2273,-98 2267,-98 2261,-92 2261,-86 2261,-86 2261,-12 2261,-12 2261,-6 2267,-0 2273,-0 2273,-0 2554,-0 2554,-0 2560,-0 2566,-6 2566,-12 2566,-12 2566,-86 2566,-86 2566,-92 2560,-98 2554,-98"/>
<text text-anchor="middle" x="2413.5" y="-82.8" font-family="Times,serif" font-size="14.00">forward</text>
<text text-anchor="middle" x="2413.5" y="-67.8" font-family="Times,serif" font-size="14.00">CB1/C1</text>
<text text-anchor="middle" x="2413.5" y="-52.8" font-family="Times,serif" font-size="14.00">dilation rate: 1 &#160;&#160;k width: 3</text>
<text text-anchor="middle" x="2413.5" y="-37.8" font-family="Times,serif" font-size="14.00">log gamma1: &#45;11.000000 &#160;&#160;log gamma2: &#45;11.000000</text>
<text text-anchor="middle" x="2413.5" y="-22.8" font-family="Times,serif" font-size="14.00">log lambda1: &#45;11.000000 &#160;&#160;log lambda2: &#45;11.000000</text>
<text text-anchor="middle" x="2413.5" y="-7.8" font-family="Times,serif" font-size="14.00">n kernels: 64</text>
</g>
<!-- 11&#45;&gt;23 -->
<g id="edge23" class="edge"><title>11&#45;&gt;23</title>
<path fill="none" stroke="black" d="M2372.07,-163.923C2377.37,-149.355 2385.13,-128.028 2392.5,-107.755"/>
<polygon fill="black" stroke="black" points="2395.83,-108.828 2395.96,-98.2336 2389.25,-106.435 2395.83,-108.828"/>
</g>
<!-- 24 -->
<g id="node25" class="node"><title>24</title>
<path fill="#e9d3ff" stroke="black" d="M2877,-98C2877,-98 2596,-98 2596,-98 2590,-98 2584,-92 2584,-86 2584,-86 2584,-12 2584,-12 2584,-6 2590,-0 2596,-0 2596,-0 2877,-0 2877,-0 2883,-0 2889,-6 2889,-12 2889,-12 2889,-86 2889,-86 2889,-92 2883,-98 2877,-98"/>
<text text-anchor="middle" x="2736.5" y="-82.8" font-family="Times,serif" font-size="14.00">forward</text>
<text text-anchor="middle" x="2736.5" y="-67.8" font-family="Times,serif" font-size="14.00">CB1/C2</text>
<text text-anchor="middle" x="2736.5" y="-52.8" font-family="Times,serif" font-size="14.00">dilation rate: 1 &#160;&#160;k width: 3</text>
<text text-anchor="middle" x="2736.5" y="-37.8" font-family="Times,serif" font-size="14.00">log gamma1: &#45;11.000000 &#160;&#160;log gamma2: &#45;11.000000</text>
<text text-anchor="middle" x="2736.5" y="-22.8" font-family="Times,serif" font-size="14.00">log lambda1: &#45;11.000000 &#160;&#160;log lambda2: &#45;11.000000</text>
<text text-anchor="middle" x="2736.5" y="-7.8" font-family="Times,serif" font-size="14.00">n kernels: 64</text>
</g>
<!-- 12&#45;&gt;24 -->
<g id="edge24" class="edge"><title>12&#45;&gt;24</title>
<path fill="none" stroke="black" d="M2515.19,-163.552C2524.6,-153.895 2536.96,-142.371 2549.5,-134 2566.62,-122.57 2585.55,-112.017 2604.6,-102.529"/>
<polygon fill="black" stroke="black" points="2606.21,-105.639 2613.65,-98.101 2603.13,-99.3507 2606.21,-105.639"/>
</g>
<!-- 25 -->
<g id="node26" class="node"><title>25</title>
<path fill="#e9d3ff" stroke="black" d="M3200,-98C3200,-98 2919,-98 2919,-98 2913,-98 2907,-92 2907,-86 2907,-86 2907,-12 2907,-12 2907,-6 2913,-0 2919,-0 2919,-0 3200,-0 3200,-0 3206,-0 3212,-6 3212,-12 3212,-12 3212,-86 3212,-86 3212,-92 3206,-98 3200,-98"/>
<text text-anchor="middle" x="3059.5" y="-82.8" font-family="Times,serif" font-size="14.00">forward</text>
<text text-anchor="middle" x="3059.5" y="-67.8" font-family="Times,serif" font-size="14.00">CB1/C3</text>
<text text-anchor="middle" x="3059.5" y="-52.8" font-family="Times,serif" font-size="14.00">dilation rate: 1 &#160;&#160;k width: 3</text>
<text text-anchor="middle" x="3059.5" y="-37.8" font-family="Times,serif" font-size="14.00">log gamma1: &#45;11.000000 &#160;&#160;log gamma2: &#45;11.000000</text>
<text text-anchor="middle" x="3059.5" y="-22.8" font-family="Times,serif" font-size="14.00">log lambda1: &#45;11.000000 &#160;&#160;log lambda2: &#45;11.000000</text>
<text text-anchor="middle" x="3059.5" y="-7.8" font-family="Times,serif" font-size="14.00">n kernels: 64</text>
</g>
<!-- 13&#45;&gt;25 -->
<g id="edge25" class="edge"><title>13&#45;&gt;25</title>
<path fill="none" stroke="black" d="M2669.54,-163.847C2686.72,-153.797 2709.22,-141.797 2730.5,-134 2798.87,-108.955 2822.04,-116.126 2897.05,-98.0139"/>
<polygon fill="black" stroke="black" points="2898.1,-101.358 2906.96,-95.5466 2896.41,-94.5647 2898.1,-101.358"/>
</g>
</g>
</svg>
