<?xml version="1.0" encoding="UTF-8" standalone="no"?>
<!DOCTYPE svg PUBLIC "-//W3C//DTD SVG 1.1//EN"
 "http://www.w3.org/Graphics/SVG/1.1/DTD/svg11.dtd">
<!-- Generated by graphviz version 2.38.0 (20140413.2041)
 -->
<!-- Title: %3 Pages: 1 -->
<svg width="1438pt" height="385pt"
 viewBox="0.00 0.00 1438.00 385.00" xmlns="http://www.w3.org/2000/svg" xmlns:xlink="http://www.w3.org/1999/xlink">
<g id="graph0" class="graph" transform="scale(1 1) rotate(0) translate(4 381)">
<title>%3</title>
<polygon fill="none" stroke="none" points="-4,4 -4,-381 1434,-381 1434,4 -4,4"/>
<!-- 0 -->
<g id="node1" class="node"><title>0</title>
<path fill="#ffd3d3" stroke="black" d="M654.5,-377C654.5,-377 374.5,-377 374.5,-377 368.5,-377 362.5,-371 362.5,-365 362.5,-365 362.5,-336 362.5,-336 362.5,-330 368.5,-324 374.5,-324 374.5,-324 654.5,-324 654.5,-324 660.5,-324 666.5,-330 666.5,-336 666.5,-336 666.5,-365 666.5,-365 666.5,-371 660.5,-377 654.5,-377"/>
<text text-anchor="middle" x="514.5" y="-361.8" font-family="Times,serif" font-size="14.00">net</text>
<text text-anchor="middle" x="514.5" y="-346.8" font-family="Times,serif" font-size="14.00">log lambda1: &#45;11.000000 &#160;&#160;log lambda2: &#45;11.000000</text>
<text text-anchor="middle" x="514.5" y="-331.8" font-family="Times,serif" font-size="14.00">n kernels: 85 &#160;&#160;pooling type: 0</text>
</g>
<!-- 1 -->
<g id="node2" class="node"><title>1</title>
<path fill="#f6ffd3" stroke="black" d="M423,-288C423,-288 388,-288 388,-288 382,-288 376,-282 376,-276 376,-276 376,-264 376,-264 376,-258 382,-252 388,-252 388,-252 423,-252 423,-252 429,-252 435,-258 435,-264 435,-264 435,-276 435,-276 435,-282 429,-288 423,-288"/>
<text text-anchor="middle" x="405.5" y="-266.3" font-family="Times,serif" font-size="14.00">encoder</text>
</g>
<!-- 0&#45;&gt;1 -->
<g id="edge1" class="edge"><title>0&#45;&gt;1</title>
<path fill="none" stroke="black" d="M478.809,-323.796C465.465,-314.186 450.407,-303.341 437.424,-293.991"/>
<polygon fill="black" stroke="black" points="439.391,-291.095 429.231,-288.091 435.3,-296.775 439.391,-291.095"/>
</g>
<!-- 2 -->
<g id="node3" class="node"><title>2</title>
<path fill="#f6ffd3" stroke="black" d="M642,-288C642,-288 607,-288 607,-288 601,-288 595,-282 595,-276 595,-276 595,-264 595,-264 595,-258 601,-252 607,-252 607,-252 642,-252 642,-252 648,-252 654,-258 654,-264 654,-264 654,-276 654,-276 654,-282 648,-288 642,-288"/>
<text text-anchor="middle" x="624.5" y="-266.3" font-family="Times,serif" font-size="14.00">decoder</text>
</g>
<!-- 0&#45;&gt;2 -->
<g id="edge2" class="edge"><title>0&#45;&gt;2</title>
<path fill="none" stroke="black" d="M550.518,-323.796C563.985,-314.186 579.182,-303.341 592.283,-293.991"/>
<polygon fill="black" stroke="black" points="594.444,-296.749 600.551,-288.091 590.378,-291.051 594.444,-296.749"/>
</g>
<!-- 3 -->
<g id="node4" class="node"><title>3</title>
<path fill="#d3ffe4" stroke="black" d="M300,-216C300,-216 225,-216 225,-216 219,-216 213,-210 213,-204 213,-204 213,-190 213,-190 213,-184 219,-178 225,-178 225,-178 300,-178 300,-178 306,-178 312,-184 312,-190 312,-190 312,-204 312,-204 312,-210 306,-216 300,-216"/>
<text text-anchor="middle" x="262.5" y="-200.8" font-family="Times,serif" font-size="14.00">encode block 0</text>
<text text-anchor="middle" x="262.5" y="-185.8" font-family="Times,serif" font-size="14.00">n kernels: 12</text>
</g>
<!-- 1&#45;&gt;3 -->
<g id="edge3" class="edge"><title>1&#45;&gt;3</title>
<path fill="none" stroke="black" d="M375.87,-254.289C356.328,-244.586 330.344,-231.685 308.182,-220.681"/>
<polygon fill="black" stroke="black" points="309.461,-217.409 298.948,-216.096 306.348,-223.678 309.461,-217.409"/>
</g>
<!-- 4 -->
<g id="node5" class="node"><title>4</title>
<path fill="#d3ffe4" stroke="black" d="M704,-216C704,-216 545,-216 545,-216 539,-216 533,-210 533,-204 533,-204 533,-190 533,-190 533,-184 539,-178 545,-178 545,-178 704,-178 704,-178 710,-178 716,-184 716,-190 716,-190 716,-204 716,-204 716,-210 710,-216 704,-216"/>
<text text-anchor="middle" x="624.5" y="-200.8" font-family="Times,serif" font-size="14.00">decode block 1</text>
<text text-anchor="middle" x="624.5" y="-185.8" font-family="Times,serif" font-size="14.00">n kernels: &#45;19 &#160;&#160;spatial scale: 1</text>
</g>
<!-- 2&#45;&gt;4 -->
<g id="edge4" class="edge"><title>2&#45;&gt;4</title>
<path fill="none" stroke="black" d="M624.5,-251.813C624.5,-244.11 624.5,-234.823 624.5,-226.149"/>
<polygon fill="black" stroke="black" points="628,-226.02 624.5,-216.02 621,-226.02 628,-226.02"/>
</g>
<!-- 5 -->
<g id="node6" class="node"><title>5</title>
<path fill="#bfe6cf" stroke="black" d="M1076,-216C1076,-216 1001,-216 1001,-216 995,-216 989,-210 989,-204 989,-204 989,-190 989,-190 989,-184 995,-178 1001,-178 1001,-178 1076,-178 1076,-178 1082,-178 1088,-184 1088,-190 1088,-190 1088,-204 1088,-204 1088,-210 1082,-216 1076,-216"/>
<text text-anchor="middle" x="1038.5" y="-200.8" font-family="Times,serif" font-size="14.00">decode block 0</text>
<text text-anchor="middle" x="1038.5" y="-185.8" font-family="Times,serif" font-size="14.00">n kernels: &#45;11</text>
</g>
<!-- 2&#45;&gt;5 -->
<g id="edge5" class="edge"><title>2&#45;&gt;5</title>
<path fill="none" stroke="black" d="M654.274,-263.894C722.023,-252.275 888.782,-223.676 978.713,-208.253"/>
<polygon fill="black" stroke="black" points="979.494,-211.671 988.758,-206.531 978.31,-204.771 979.494,-211.671"/>
</g>
<!-- 6 -->
<g id="node7" class="node"><title>6</title>
<path fill="#d3e4ff" stroke="black" d="M128,-142C128,-142 65,-142 65,-142 59,-142 53,-136 53,-130 53,-130 53,-116 53,-116 53,-110 59,-104 65,-104 65,-104 128,-104 128,-104 134,-104 140,-110 140,-116 140,-116 140,-130 140,-130 140,-136 134,-142 128,-142"/>
<text text-anchor="middle" x="96.5" y="-126.8" font-family="Times,serif" font-size="14.00">comp 0</text>
<text text-anchor="middle" x="96.5" y="-111.8" font-family="Times,serif" font-size="14.00">n kernels: 14</text>
</g>
<!-- 3&#45;&gt;6 -->
<g id="edge6" class="edge"><title>3&#45;&gt;6</title>
<path fill="none" stroke="black" d="M220.611,-177.831C198.41,-168.202 170.958,-156.295 147.522,-146.13"/>
<polygon fill="black" stroke="black" points="148.655,-142.806 138.088,-142.038 145.869,-149.228 148.655,-142.806"/>
</g>
<!-- 7 -->
<g id="node8" class="node"><title>7</title>
<path fill="#bfcfe6" stroke="black" d="M340,-142C340,-142 185,-142 185,-142 179,-142 173,-136 173,-130 173,-130 173,-116 173,-116 173,-110 179,-104 185,-104 185,-104 340,-104 340,-104 346,-104 352,-110 352,-116 352,-116 352,-130 352,-130 352,-136 346,-142 340,-142"/>
<text text-anchor="middle" x="262.5" y="-126.8" font-family="Times,serif" font-size="14.00">comp 1</text>
<text text-anchor="middle" x="262.5" y="-111.8" font-family="Times,serif" font-size="14.00">batch norm: 1 &#160;&#160;n kernels: &#45;12</text>
</g>
<!-- 3&#45;&gt;7 -->
<g id="edge7" class="edge"><title>3&#45;&gt;7</title>
<path fill="none" stroke="black" d="M262.5,-177.831C262.5,-170.131 262.5,-160.974 262.5,-152.417"/>
<polygon fill="black" stroke="black" points="266,-152.413 262.5,-142.413 259,-152.413 266,-152.413"/>
</g>
<!-- 8 -->
<g id="node9" class="node"><title>8</title>
<path fill="#d3e4ff" stroke="black" d="M513.5,-141C513.5,-141 479.5,-141 479.5,-141 473.5,-141 467.5,-135 467.5,-129 467.5,-129 467.5,-117 467.5,-117 467.5,-111 473.5,-105 479.5,-105 479.5,-105 513.5,-105 513.5,-105 519.5,-105 525.5,-111 525.5,-117 525.5,-117 525.5,-129 525.5,-129 525.5,-135 519.5,-141 513.5,-141"/>
<text text-anchor="middle" x="496.5" y="-119.3" font-family="Times,serif" font-size="14.00">comp 0</text>
</g>
<!-- 4&#45;&gt;8 -->
<g id="edge8" class="edge"><title>4&#45;&gt;8</title>
<path fill="none" stroke="black" d="M592.2,-177.831C574.714,-167.995 553.004,-155.783 534.684,-145.478"/>
<polygon fill="black" stroke="black" points="536.157,-142.291 525.725,-140.439 532.725,-148.392 536.157,-142.291"/>
</g>
<!-- 9 -->
<g id="node10" class="node"><title>9</title>
<path fill="#bfcfe6" stroke="black" d="M641.5,-141C641.5,-141 607.5,-141 607.5,-141 601.5,-141 595.5,-135 595.5,-129 595.5,-129 595.5,-117 595.5,-117 595.5,-111 601.5,-105 607.5,-105 607.5,-105 641.5,-105 641.5,-105 647.5,-105 653.5,-111 653.5,-117 653.5,-117 653.5,-129 653.5,-129 653.5,-135 647.5,-141 641.5,-141"/>
<text text-anchor="middle" x="624.5" y="-119.3" font-family="Times,serif" font-size="14.00">comp 1</text>
</g>
<!-- 4&#45;&gt;9 -->
<g id="edge9" class="edge"><title>4&#45;&gt;9</title>
<path fill="none" stroke="black" d="M624.5,-177.831C624.5,-169.894 624.5,-160.409 624.5,-151.628"/>
<polygon fill="black" stroke="black" points="628,-151.418 624.5,-141.418 621,-151.418 628,-151.418"/>
</g>
<!-- 10 -->
<g id="node11" class="node"><title>10</title>
<path fill="#abb9ce" stroke="black" d="M856,-142C856,-142 707,-142 707,-142 701,-142 695,-136 695,-130 695,-130 695,-116 695,-116 695,-110 701,-104 707,-104 707,-104 856,-104 856,-104 862,-104 868,-110 868,-116 868,-116 868,-130 868,-130 868,-136 862,-142 856,-142"/>
<text text-anchor="middle" x="781.5" y="-126.8" font-family="Times,serif" font-size="14.00">comp 2</text>
<text text-anchor="middle" x="781.5" y="-111.8" font-family="Times,serif" font-size="14.00">batch norm: 1 &#160;&#160;n kernels: &#45;7</text>
</g>
<!-- 4&#45;&gt;10 -->
<g id="edge10" class="edge"><title>4&#45;&gt;10</title>
<path fill="none" stroke="black" d="M664.118,-177.831C685.022,-168.245 710.848,-156.401 732.949,-146.266"/>
<polygon fill="black" stroke="black" points="734.536,-149.388 742.167,-142.038 731.618,-143.025 734.536,-149.388"/>
</g>
<!-- 11 -->
<g id="node12" class="node"><title>11</title>
<path fill="#d3e4ff" stroke="black" d="M1072.5,-142C1072.5,-142 1004.5,-142 1004.5,-142 998.5,-142 992.5,-136 992.5,-130 992.5,-130 992.5,-116 992.5,-116 992.5,-110 998.5,-104 1004.5,-104 1004.5,-104 1072.5,-104 1072.5,-104 1078.5,-104 1084.5,-110 1084.5,-116 1084.5,-116 1084.5,-130 1084.5,-130 1084.5,-136 1078.5,-142 1072.5,-142"/>
<text text-anchor="middle" x="1038.5" y="-126.8" font-family="Times,serif" font-size="14.00">comp 0</text>
<text text-anchor="middle" x="1038.5" y="-111.8" font-family="Times,serif" font-size="14.00">n kernels: &#45;14</text>
</g>
<!-- 5&#45;&gt;11 -->
<g id="edge11" class="edge"><title>5&#45;&gt;11</title>
<path fill="none" stroke="black" d="M1038.5,-177.831C1038.5,-170.131 1038.5,-160.974 1038.5,-152.417"/>
<polygon fill="black" stroke="black" points="1042,-152.413 1038.5,-142.413 1035,-152.413 1042,-152.413"/>
</g>
<!-- 12 -->
<g id="node13" class="node"><title>12</title>
<path fill="#bfcfe6" stroke="black" d="M1374,-142C1374,-142 1219,-142 1219,-142 1213,-142 1207,-136 1207,-130 1207,-130 1207,-116 1207,-116 1207,-110 1213,-104 1219,-104 1219,-104 1374,-104 1374,-104 1380,-104 1386,-110 1386,-116 1386,-116 1386,-130 1386,-130 1386,-136 1380,-142 1374,-142"/>
<text text-anchor="middle" x="1296.5" y="-126.8" font-family="Times,serif" font-size="14.00">comp 1</text>
<text text-anchor="middle" x="1296.5" y="-111.8" font-family="Times,serif" font-size="14.00">batch norm: 1 &#160;&#160;n kernels: &#45;18</text>
</g>
<!-- 5&#45;&gt;12 -->
<g id="edge12" class="edge"><title>5&#45;&gt;12</title>
<path fill="none" stroke="black" d="M1088.24,-182.118C1126.15,-171.541 1178.95,-156.804 1221.9,-144.818"/>
<polygon fill="black" stroke="black" points="1223.06,-148.129 1231.75,-142.07 1221.18,-141.387 1223.06,-148.129"/>
</g>
<!-- 13 -->
<g id="node14" class="node"><title>13</title>
<path fill="#f6d3ff" stroke="black" d="M151,-68C151,-68 12,-68 12,-68 6,-68 0,-62 0,-56 0,-56 0,-12 0,-12 0,-6 6,-0 12,-0 12,-0 151,-0 151,-0 157,-0 163,-6 163,-12 163,-12 163,-56 163,-56 163,-62 157,-68 151,-68"/>
<text text-anchor="middle" x="81.5" y="-52.8" font-family="Times,serif" font-size="14.00">forward</text>
<text text-anchor="middle" x="81.5" y="-37.8" font-family="Times,serif" font-size="14.00">input</text>
<text text-anchor="middle" x="81.5" y="-22.8" font-family="Times,serif" font-size="14.00">dilation rate: 1 &#160;&#160;k width: 3</text>
<text text-anchor="middle" x="81.5" y="-7.8" font-family="Times,serif" font-size="14.00">n kernels: 64</text>
</g>
<!-- 6&#45;&gt;13 -->
<g id="edge13" class="edge"><title>6&#45;&gt;13</title>
<path fill="none" stroke="black" d="M93.392,-103.974C92.0812,-96.371 90.4941,-87.1656 88.9122,-77.9905"/>
<polygon fill="black" stroke="black" points="92.3592,-77.3835 87.211,-68.1236 85.461,-78.5729 92.3592,-77.3835"/>
</g>
<!-- 14 -->
<g id="node15" class="node"><title>14</title>
<path fill="#f6d3ff" stroke="black" d="M332,-68C332,-68 193,-68 193,-68 187,-68 181,-62 181,-56 181,-56 181,-12 181,-12 181,-6 187,-0 193,-0 193,-0 332,-0 332,-0 338,-0 344,-6 344,-12 344,-12 344,-56 344,-56 344,-62 338,-68 332,-68"/>
<text text-anchor="middle" x="262.5" y="-52.8" font-family="Times,serif" font-size="14.00">forward</text>
<text text-anchor="middle" x="262.5" y="-37.8" font-family="Times,serif" font-size="14.00">EB0/C0</text>
<text text-anchor="middle" x="262.5" y="-22.8" font-family="Times,serif" font-size="14.00">dilation rate: 1 &#160;&#160;k width: 3</text>
<text text-anchor="middle" x="262.5" y="-7.8" font-family="Times,serif" font-size="14.00">n kernels: 64</text>
</g>
<!-- 7&#45;&gt;14 -->
<g id="edge14" class="edge"><title>7&#45;&gt;14</title>
<path fill="none" stroke="black" d="M262.5,-103.974C262.5,-96.4519 262.5,-87.3613 262.5,-78.2833"/>
<polygon fill="black" stroke="black" points="266,-78.1236 262.5,-68.1236 259,-78.1237 266,-78.1236"/>
</g>
<!-- 15 -->
<g id="node16" class="node"><title>15</title>
<path fill="#f6d3ff" stroke="black" d="M513,-68C513,-68 374,-68 374,-68 368,-68 362,-62 362,-56 362,-56 362,-12 362,-12 362,-6 368,-0 374,-0 374,-0 513,-0 513,-0 519,-0 525,-6 525,-12 525,-12 525,-56 525,-56 525,-62 519,-68 513,-68"/>
<text text-anchor="middle" x="443.5" y="-52.8" font-family="Times,serif" font-size="14.00">forward</text>
<text text-anchor="middle" x="443.5" y="-37.8" font-family="Times,serif" font-size="14.00">EB0/C1</text>
<text text-anchor="middle" x="443.5" y="-22.8" font-family="Times,serif" font-size="14.00">dilation rate: 1 &#160;&#160;k width: 3</text>
<text text-anchor="middle" x="443.5" y="-7.8" font-family="Times,serif" font-size="14.00">n kernels: 64</text>
</g>
<!-- 8&#45;&gt;15 -->
<g id="edge15" class="edge"><title>8&#45;&gt;15</title>
<path fill="none" stroke="black" d="M486.029,-104.812C481.082,-96.6918 474.942,-86.6128 468.88,-76.6623"/>
<polygon fill="black" stroke="black" points="471.797,-74.7226 463.606,-68.0034 465.819,-78.3644 471.797,-74.7226"/>
</g>
<!-- 16 -->
<g id="node17" class="node"><title>16</title>
<path fill="#f6d3ff" stroke="black" d="M694,-68C694,-68 555,-68 555,-68 549,-68 543,-62 543,-56 543,-56 543,-12 543,-12 543,-6 549,-0 555,-0 555,-0 694,-0 694,-0 700,-0 706,-6 706,-12 706,-12 706,-56 706,-56 706,-62 700,-68 694,-68"/>
<text text-anchor="middle" x="624.5" y="-52.8" font-family="Times,serif" font-size="14.00">forward</text>
<text text-anchor="middle" x="624.5" y="-37.8" font-family="Times,serif" font-size="14.00">DB1/C0</text>
<text text-anchor="middle" x="624.5" y="-22.8" font-family="Times,serif" font-size="14.00">dilation rate: 1 &#160;&#160;k width: 3</text>
<text text-anchor="middle" x="624.5" y="-7.8" font-family="Times,serif" font-size="14.00">n kernels: 64</text>
</g>
<!-- 9&#45;&gt;16 -->
<g id="edge16" class="edge"><title>9&#45;&gt;16</title>
<path fill="none" stroke="black" d="M624.5,-104.812C624.5,-97.1019 624.5,-87.6259 624.5,-78.1706"/>
<polygon fill="black" stroke="black" points="628,-78.0034 624.5,-68.0034 621,-78.0034 628,-78.0034"/>
</g>
<!-- 17 -->
<g id="node18" class="node"><title>17</title>
<path fill="#f6d3ff" stroke="black" d="M875,-68C875,-68 736,-68 736,-68 730,-68 724,-62 724,-56 724,-56 724,-12 724,-12 724,-6 730,-0 736,-0 736,-0 875,-0 875,-0 881,-0 887,-6 887,-12 887,-12 887,-56 887,-56 887,-62 881,-68 875,-68"/>
<text text-anchor="middle" x="805.5" y="-52.8" font-family="Times,serif" font-size="14.00">forward</text>
<text text-anchor="middle" x="805.5" y="-37.8" font-family="Times,serif" font-size="14.00">DB1/C1</text>
<text text-anchor="middle" x="805.5" y="-22.8" font-family="Times,serif" font-size="14.00">dilation rate: 1 &#160;&#160;k width: 3</text>
<text text-anchor="middle" x="805.5" y="-7.8" font-family="Times,serif" font-size="14.00">n kernels: 64</text>
</g>
<!-- 10&#45;&gt;17 -->
<g id="edge17" class="edge"><title>10&#45;&gt;17</title>
<path fill="none" stroke="black" d="M786.473,-103.974C788.57,-96.371 791.109,-87.1656 793.641,-77.9905"/>
<polygon fill="black" stroke="black" points="797.077,-78.6943 796.362,-68.1236 790.329,-76.8328 797.077,-78.6943"/>
</g>
<!-- 18 -->
<g id="node19" class="node"><title>18</title>
<path fill="#f6d3ff" stroke="black" d="M1056,-68C1056,-68 917,-68 917,-68 911,-68 905,-62 905,-56 905,-56 905,-12 905,-12 905,-6 911,-0 917,-0 917,-0 1056,-0 1056,-0 1062,-0 1068,-6 1068,-12 1068,-12 1068,-56 1068,-56 1068,-62 1062,-68 1056,-68"/>
<text text-anchor="middle" x="986.5" y="-52.8" font-family="Times,serif" font-size="14.00">forward</text>
<text text-anchor="middle" x="986.5" y="-37.8" font-family="Times,serif" font-size="14.00">DB1/C2</text>
<text text-anchor="middle" x="986.5" y="-22.8" font-family="Times,serif" font-size="14.00">dilation rate: 1 &#160;&#160;k width: 3</text>
<text text-anchor="middle" x="986.5" y="-7.8" font-family="Times,serif" font-size="14.00">n kernels: 64</text>
</g>
<!-- 11&#45;&gt;18 -->
<g id="edge18" class="edge"><title>11&#45;&gt;18</title>
<path fill="none" stroke="black" d="M1027.73,-103.974C1022.99,-96.0475 1017.21,-86.3793 1011.5,-76.8195"/>
<polygon fill="black" stroke="black" points="1014.43,-74.9116 1006.3,-68.1236 1008.42,-78.5029 1014.43,-74.9116"/>
</g>
<!-- 19 -->
<g id="node20" class="node"><title>19</title>
<path fill="#debfe6" stroke="black" d="M1237,-68C1237,-68 1098,-68 1098,-68 1092,-68 1086,-62 1086,-56 1086,-56 1086,-12 1086,-12 1086,-6 1092,-0 1098,-0 1098,-0 1237,-0 1237,-0 1243,-0 1249,-6 1249,-12 1249,-12 1249,-56 1249,-56 1249,-62 1243,-68 1237,-68"/>
<text text-anchor="middle" x="1167.5" y="-52.8" font-family="Times,serif" font-size="14.00">merge</text>
<text text-anchor="middle" x="1167.5" y="-37.8" font-family="Times,serif" font-size="14.00">EB0/C1</text>
<text text-anchor="middle" x="1167.5" y="-22.8" font-family="Times,serif" font-size="14.00">dilation rate: 1 &#160;&#160;k width: 3</text>
<text text-anchor="middle" x="1167.5" y="-7.8" font-family="Times,serif" font-size="14.00">n kernels: 64</text>
</g>
<!-- 11&#45;&gt;19 -->
<g id="edge19" class="edge"><title>11&#45;&gt;19</title>
<path fill="none" stroke="black" d="M1065.23,-103.974C1078.18,-95.2387 1094.27,-84.3881 1109.82,-73.8984"/>
<polygon fill="black" stroke="black" points="1112.05,-76.6169 1118.39,-68.1236 1108.14,-70.8133 1112.05,-76.6169"/>
</g>
<!-- 20 -->
<g id="node21" class="node"><title>20</title>
<path fill="#f6d3ff" stroke="black" d="M1418,-68C1418,-68 1279,-68 1279,-68 1273,-68 1267,-62 1267,-56 1267,-56 1267,-12 1267,-12 1267,-6 1273,-0 1279,-0 1279,-0 1418,-0 1418,-0 1424,-0 1430,-6 1430,-12 1430,-12 1430,-56 1430,-56 1430,-62 1424,-68 1418,-68"/>
<text text-anchor="middle" x="1348.5" y="-52.8" font-family="Times,serif" font-size="14.00">forward</text>
<text text-anchor="middle" x="1348.5" y="-37.8" font-family="Times,serif" font-size="14.00">DB0/C0</text>
<text text-anchor="middle" x="1348.5" y="-22.8" font-family="Times,serif" font-size="14.00">dilation rate: 1 &#160;&#160;k width: 3</text>
<text text-anchor="middle" x="1348.5" y="-7.8" font-family="Times,serif" font-size="14.00">n kernels: 64</text>
</g>
<!-- 12&#45;&gt;20 -->
<g id="edge20" class="edge"><title>12&#45;&gt;20</title>
<path fill="none" stroke="black" d="M1307.27,-103.974C1312.01,-96.0475 1317.79,-86.3793 1323.5,-76.8195"/>
<polygon fill="black" stroke="black" points="1326.58,-78.5029 1328.7,-68.1236 1320.57,-74.9116 1326.58,-78.5029"/>
</g>
</g>
</svg>
