<?xml version="1.0" encoding="UTF-8" standalone="no"?>
<!DOCTYPE svg PUBLIC "-//W3C//DTD SVG 1.1//EN"
 "http://www.w3.org/Graphics/SVG/1.1/DTD/svg11.dtd">
<!-- Generated by graphviz version 2.38.0 (20140413.2041)
 -->
<!-- Title: %3 Pages: 1 -->
<svg width="3186pt" height="372pt"
 viewBox="0.00 0.00 3185.50 372.00" xmlns="http://www.w3.org/2000/svg" xmlns:xlink="http://www.w3.org/1999/xlink">
<g id="graph0" class="graph" transform="scale(1 1) rotate(0) translate(4 368)">
<title>%3</title>
<polygon fill="none" stroke="none" points="-4,4 -4,-368 3181.5,-368 3181.5,4 -4,4"/>
<!-- 0 -->
<g id="node1" class="node"><title>0</title>
<path fill="#ffd3d3" stroke="black" d="M1613,-364C1613,-364 1456,-364 1456,-364 1450,-364 1444,-358 1444,-352 1444,-352 1444,-338 1444,-338 1444,-332 1450,-326 1456,-326 1456,-326 1613,-326 1613,-326 1619,-326 1625,-332 1625,-338 1625,-338 1625,-352 1625,-352 1625,-358 1619,-364 1613,-364"/>
<text text-anchor="middle" x="1534.5" y="-348.8" font-family="Times,serif" font-size="14.00">net</text>
<text text-anchor="middle" x="1534.5" y="-333.8" font-family="Times,serif" font-size="14.00">n kernels: 64 &#160;&#160;pooling type: 0</text>
</g>
<!-- 1 -->
<g id="node2" class="node"><title>1</title>
<path fill="#f6ffd3" stroke="black" d="M1051,-290C1051,-290 788,-290 788,-290 782,-290 776,-284 776,-278 776,-278 776,-249 776,-249 776,-243 782,-237 788,-237 788,-237 1051,-237 1051,-237 1057,-237 1063,-243 1063,-249 1063,-249 1063,-278 1063,-278 1063,-284 1057,-290 1051,-290"/>
<text text-anchor="middle" x="919.5" y="-274.8" font-family="Times,serif" font-size="14.00">encoder</text>
<text text-anchor="middle" x="919.5" y="-259.8" font-family="Times,serif" font-size="14.00">log gamma1: 0.409962 &#160;&#160;log gamma2: &#45;0.305187</text>
<text text-anchor="middle" x="919.5" y="-244.8" font-family="Times,serif" font-size="14.00">n kernels: 2</text>
</g>
<!-- 0&#45;&gt;1 -->
<g id="edge1" class="edge"><title>0&#45;&gt;1</title>
<path fill="none" stroke="black" d="M1443.75,-332.27C1346.36,-319.679 1189.93,-299.457 1073.25,-284.376"/>
<polygon fill="black" stroke="black" points="1073.52,-280.881 1063.16,-283.07 1072.63,-287.823 1073.52,-280.881"/>
</g>
<!-- 2 -->
<g id="node3" class="node"><title>2</title>
<path fill="#f6ffd3" stroke="black" d="M2126,-290C2126,-290 1863,-290 1863,-290 1857,-290 1851,-284 1851,-278 1851,-278 1851,-249 1851,-249 1851,-243 1857,-237 1863,-237 1863,-237 2126,-237 2126,-237 2132,-237 2138,-243 2138,-249 2138,-249 2138,-278 2138,-278 2138,-284 2132,-290 2126,-290"/>
<text text-anchor="middle" x="1994.5" y="-274.8" font-family="Times,serif" font-size="14.00">decoder</text>
<text text-anchor="middle" x="1994.5" y="-259.8" font-family="Times,serif" font-size="14.00">log gamma1: &#45;0.394559 &#160;&#160;log gamma2: 0.256900</text>
<text text-anchor="middle" x="1994.5" y="-244.8" font-family="Times,serif" font-size="14.00">n kernels: &#45;2</text>
</g>
<!-- 0&#45;&gt;2 -->
<g id="edge2" class="edge"><title>0&#45;&gt;2</title>
<path fill="none" stroke="black" d="M1625.11,-328.341C1686.48,-317.734 1769.11,-303.454 1840.66,-291.088"/>
<polygon fill="black" stroke="black" points="1841.42,-294.509 1850.67,-289.357 1840.22,-287.611 1841.42,-294.509"/>
</g>
<!-- 3 -->
<g id="node4" class="node"><title>3</title>
<path fill="#d3ffe4" stroke="black" d="M322.5,-193.5C322.5,-193.5 122.5,-193.5 122.5,-193.5 116.5,-193.5 110.5,-187.5 110.5,-181.5 110.5,-181.5 110.5,-167.5 110.5,-167.5 110.5,-161.5 116.5,-155.5 122.5,-155.5 122.5,-155.5 322.5,-155.5 322.5,-155.5 328.5,-155.5 334.5,-161.5 334.5,-167.5 334.5,-167.5 334.5,-181.5 334.5,-181.5 334.5,-187.5 328.5,-193.5 322.5,-193.5"/>
<text text-anchor="middle" x="222.5" y="-178.3" font-family="Times,serif" font-size="14.00">encode block 0</text>
<text text-anchor="middle" x="222.5" y="-163.3" font-family="Times,serif" font-size="14.00">log gamma1: &#45;0.354088 &#160;&#160;n kernels: 5</text>
</g>
<!-- 1&#45;&gt;3 -->
<g id="edge3" class="edge"><title>1&#45;&gt;3</title>
<path fill="none" stroke="black" d="M775.926,-244.579C648.692,-228.698 464.937,-205.761 344.628,-190.744"/>
<polygon fill="black" stroke="black" points="344.991,-187.262 334.634,-189.497 344.124,-194.208 344.991,-187.262"/>
</g>
<!-- 4 -->
<g id="node5" class="node"><title>4</title>
<path fill="#bfe6cf" stroke="black" d="M842,-193.5C842,-193.5 687,-193.5 687,-193.5 681,-193.5 675,-187.5 675,-181.5 675,-181.5 675,-167.5 675,-167.5 675,-161.5 681,-155.5 687,-155.5 687,-155.5 842,-155.5 842,-155.5 848,-155.5 854,-161.5 854,-167.5 854,-167.5 854,-181.5 854,-181.5 854,-187.5 848,-193.5 842,-193.5"/>
<text text-anchor="middle" x="764.5" y="-178.3" font-family="Times,serif" font-size="14.00">encode block 1</text>
<text text-anchor="middle" x="764.5" y="-163.3" font-family="Times,serif" font-size="14.00">n kernels: 68 &#160;&#160;spatial scale: 1</text>
</g>
<!-- 1&#45;&gt;4 -->
<g id="edge4" class="edge"><title>1&#45;&gt;4</title>
<path fill="none" stroke="black" d="M873.833,-236.868C852.208,-224.73 826.581,-210.345 805.575,-198.555"/>
<polygon fill="black" stroke="black" points="807.014,-195.349 796.581,-193.507 803.588,-201.453 807.014,-195.349"/>
</g>
<!-- 5 -->
<g id="node6" class="node"><title>5</title>
<path fill="#abceb9" stroke="black" d="M1179,-201C1179,-201 970,-201 970,-201 964,-201 958,-195 958,-189 958,-189 958,-160 958,-160 958,-154 964,-148 970,-148 970,-148 1179,-148 1179,-148 1185,-148 1191,-154 1191,-160 1191,-160 1191,-189 1191,-189 1191,-195 1185,-201 1179,-201"/>
<text text-anchor="middle" x="1074.5" y="-185.8" font-family="Times,serif" font-size="14.00">encode block 2</text>
<text text-anchor="middle" x="1074.5" y="-170.8" font-family="Times,serif" font-size="14.00">log gamma2: 0.164426 &#160;&#160;n kernels: 328</text>
<text text-anchor="middle" x="1074.5" y="-155.8" font-family="Times,serif" font-size="14.00">spatial scale: 2</text>
</g>
<!-- 1&#45;&gt;5 -->
<g id="edge5" class="edge"><title>1&#45;&gt;5</title>
<path fill="none" stroke="black" d="M965.167,-236.868C982.277,-227.264 1001.89,-216.254 1019.74,-206.235"/>
<polygon fill="black" stroke="black" points="1021.88,-209.046 1028.89,-201.099 1018.46,-202.942 1021.88,-209.046"/>
</g>
<!-- 6 -->
<g id="node7" class="node"><title>6</title>
<path fill="#d3ffe4" stroke="black" d="M1687.5,-193.5C1687.5,-193.5 1519.5,-193.5 1519.5,-193.5 1513.5,-193.5 1507.5,-187.5 1507.5,-181.5 1507.5,-181.5 1507.5,-167.5 1507.5,-167.5 1507.5,-161.5 1513.5,-155.5 1519.5,-155.5 1519.5,-155.5 1687.5,-155.5 1687.5,-155.5 1693.5,-155.5 1699.5,-161.5 1699.5,-167.5 1699.5,-167.5 1699.5,-181.5 1699.5,-181.5 1699.5,-187.5 1693.5,-193.5 1687.5,-193.5"/>
<text text-anchor="middle" x="1603.5" y="-178.3" font-family="Times,serif" font-size="14.00">decode block 3</text>
<text text-anchor="middle" x="1603.5" y="-163.3" font-family="Times,serif" font-size="14.00">n kernels: 2736 &#160;&#160;spatial scale: 3</text>
</g>
<!-- 2&#45;&gt;6 -->
<g id="edge6" class="edge"><title>2&#45;&gt;6</title>
<path fill="none" stroke="black" d="M1879.83,-236.985C1820.73,-223.836 1749.68,-208.026 1694.42,-195.73"/>
<polygon fill="black" stroke="black" points="1695.16,-192.311 1684.64,-193.555 1693.64,-199.143 1695.16,-192.311"/>
</g>
<!-- 7 -->
<g id="node8" class="node"><title>7</title>
<path fill="#bfe6cf" stroke="black" d="M2102,-201C2102,-201 1887,-201 1887,-201 1881,-201 1875,-195 1875,-189 1875,-189 1875,-160 1875,-160 1875,-154 1881,-148 1887,-148 1887,-148 2102,-148 2102,-148 2108,-148 2114,-154 2114,-160 2114,-160 2114,-189 2114,-189 2114,-195 2108,-201 2102,-201"/>
<text text-anchor="middle" x="1994.5" y="-185.8" font-family="Times,serif" font-size="14.00">decode block 2</text>
<text text-anchor="middle" x="1994.5" y="-170.8" font-family="Times,serif" font-size="14.00">log gamma1: 0.443090 &#160;&#160;n kernels: 1080</text>
<text text-anchor="middle" x="1994.5" y="-155.8" font-family="Times,serif" font-size="14.00">spatial scale: 2</text>
</g>
<!-- 2&#45;&gt;7 -->
<g id="edge7" class="edge"><title>2&#45;&gt;7</title>
<path fill="none" stroke="black" d="M1994.5,-236.868C1994.5,-228.886 1994.5,-219.932 1994.5,-211.384"/>
<polygon fill="black" stroke="black" points="1998,-211.25 1994.5,-201.25 1991,-211.25 1998,-211.25"/>
</g>
<!-- 8 -->
<g id="node9" class="node"><title>8</title>
<path fill="#abceb9" stroke="black" d="M2533,-201C2533,-201 2320,-201 2320,-201 2314,-201 2308,-195 2308,-189 2308,-189 2308,-160 2308,-160 2308,-154 2314,-148 2320,-148 2320,-148 2533,-148 2533,-148 2539,-148 2545,-154 2545,-160 2545,-160 2545,-189 2545,-189 2545,-195 2539,-201 2533,-201"/>
<text text-anchor="middle" x="2426.5" y="-185.8" font-family="Times,serif" font-size="14.00">decode block 1</text>
<text text-anchor="middle" x="2426.5" y="-170.8" font-family="Times,serif" font-size="14.00">log gamma2: &#45;0.026692 &#160;&#160;n kernels: 316</text>
<text text-anchor="middle" x="2426.5" y="-155.8" font-family="Times,serif" font-size="14.00">spatial scale: 1</text>
</g>
<!-- 2&#45;&gt;8 -->
<g id="edge8" class="edge"><title>2&#45;&gt;8</title>
<path fill="none" stroke="black" d="M2121.2,-236.985C2176.86,-225.775 2242.12,-212.631 2297.99,-201.38"/>
<polygon fill="black" stroke="black" points="2298.84,-204.78 2307.95,-199.374 2297.46,-197.918 2298.84,-204.78"/>
</g>
<!-- 9 -->
<g id="node10" class="node"><title>9</title>
<path fill="#97b6a3" stroke="black" d="M2926,-192.5C2926,-192.5 2851,-192.5 2851,-192.5 2845,-192.5 2839,-186.5 2839,-180.5 2839,-180.5 2839,-168.5 2839,-168.5 2839,-162.5 2845,-156.5 2851,-156.5 2851,-156.5 2926,-156.5 2926,-156.5 2932,-156.5 2938,-162.5 2938,-168.5 2938,-168.5 2938,-180.5 2938,-180.5 2938,-186.5 2932,-192.5 2926,-192.5"/>
<text text-anchor="middle" x="2888.5" y="-170.8" font-family="Times,serif" font-size="14.00">decode block 0</text>
</g>
<!-- 2&#45;&gt;9 -->
<g id="edge9" class="edge"><title>2&#45;&gt;9</title>
<path fill="none" stroke="black" d="M2138.14,-248.522C2337.25,-229.145 2688.42,-194.971 2828.42,-181.346"/>
<polygon fill="black" stroke="black" points="2828.92,-184.815 2838.53,-180.363 2828.24,-177.848 2828.92,-184.815"/>
</g>
<!-- 10 -->
<g id="node11" class="node"><title>10</title>
<path fill="#d3e4ff" stroke="black" d="M47.5,-111C47.5,-111 13.5,-111 13.5,-111 7.5,-111 1.5,-105 1.5,-99 1.5,-99 1.5,-87 1.5,-87 1.5,-81 7.5,-75 13.5,-75 13.5,-75 47.5,-75 47.5,-75 53.5,-75 59.5,-81 59.5,-87 59.5,-87 59.5,-99 59.5,-99 59.5,-105 53.5,-111 47.5,-111"/>
<text text-anchor="middle" x="30.5" y="-89.3" font-family="Times,serif" font-size="14.00">comp 0</text>
</g>
<!-- 3&#45;&gt;10 -->
<g id="edge10" class="edge"><title>3&#45;&gt;10</title>
<path fill="none" stroke="black" d="M175.714,-155.398C145.293,-143.455 104.855,-127.253 69.5,-112 69.4016,-111.958 69.303,-111.915 69.2043,-111.872"/>
<polygon fill="black" stroke="black" points="70.3778,-108.564 59.8165,-107.722 67.5474,-114.967 70.3778,-108.564"/>
</g>
<!-- 11 -->
<g id="node12" class="node"><title>11</title>
<path fill="#bfcfe6" stroke="black" d="M124.5,-111C124.5,-111 90.5,-111 90.5,-111 84.5,-111 78.5,-105 78.5,-99 78.5,-99 78.5,-87 78.5,-87 78.5,-81 84.5,-75 90.5,-75 90.5,-75 124.5,-75 124.5,-75 130.5,-75 136.5,-81 136.5,-87 136.5,-87 136.5,-99 136.5,-99 136.5,-105 130.5,-111 124.5,-111"/>
<text text-anchor="middle" x="107.5" y="-89.3" font-family="Times,serif" font-size="14.00">comp 1</text>
</g>
<!-- 3&#45;&gt;11 -->
<g id="edge11" class="edge"><title>3&#45;&gt;11</title>
<path fill="none" stroke="black" d="M196.405,-155.46C179.889,-144.043 158.387,-129.179 140.667,-116.928"/>
<polygon fill="black" stroke="black" points="142.526,-113.958 132.309,-111.151 138.545,-119.717 142.526,-113.958"/>
</g>
<!-- 12 -->
<g id="node13" class="node"><title>12</title>
<path fill="#abb9ce" stroke="black" d="M201.5,-111C201.5,-111 167.5,-111 167.5,-111 161.5,-111 155.5,-105 155.5,-99 155.5,-99 155.5,-87 155.5,-87 155.5,-81 161.5,-75 167.5,-75 167.5,-75 201.5,-75 201.5,-75 207.5,-75 213.5,-81 213.5,-87 213.5,-87 213.5,-99 213.5,-99 213.5,-105 207.5,-111 201.5,-111"/>
<text text-anchor="middle" x="184.5" y="-89.3" font-family="Times,serif" font-size="14.00">comp 2</text>
</g>
<!-- 3&#45;&gt;12 -->
<g id="edge12" class="edge"><title>3&#45;&gt;12</title>
<path fill="none" stroke="black" d="M213.877,-155.46C208.916,-145.081 202.593,-131.853 197.085,-120.33"/>
<polygon fill="black" stroke="black" points="200.168,-118.664 192.698,-111.151 193.853,-121.683 200.168,-118.664"/>
</g>
<!-- 13 -->
<g id="node14" class="node"><title>13</title>
<path fill="#97a3b6" stroke="black" d="M277.5,-111C277.5,-111 243.5,-111 243.5,-111 237.5,-111 231.5,-105 231.5,-99 231.5,-99 231.5,-87 231.5,-87 231.5,-81 237.5,-75 243.5,-75 243.5,-75 277.5,-75 277.5,-75 283.5,-75 289.5,-81 289.5,-87 289.5,-87 289.5,-99 289.5,-99 289.5,-105 283.5,-111 277.5,-111"/>
<text text-anchor="middle" x="260.5" y="-89.3" font-family="Times,serif" font-size="14.00">comp 3</text>
</g>
<!-- 3&#45;&gt;13 -->
<g id="edge13" class="edge"><title>3&#45;&gt;13</title>
<path fill="none" stroke="black" d="M231.123,-155.46C236.084,-145.081 242.407,-131.853 247.915,-120.33"/>
<polygon fill="black" stroke="black" points="251.147,-121.683 252.302,-111.151 244.832,-118.664 251.147,-121.683"/>
</g>
<!-- 14 -->
<g id="node15" class="node"><title>14</title>
<path fill="#838d9e" stroke="black" d="M515,-112C515,-112 320,-112 320,-112 314,-112 308,-106 308,-100 308,-100 308,-86 308,-86 308,-80 314,-74 320,-74 320,-74 515,-74 515,-74 521,-74 527,-80 527,-86 527,-86 527,-100 527,-100 527,-106 521,-112 515,-112"/>
<text text-anchor="middle" x="417.5" y="-96.8" font-family="Times,serif" font-size="14.00">comp 4</text>
<text text-anchor="middle" x="417.5" y="-81.8" font-family="Times,serif" font-size="14.00">log gamma1: 0.249404 &#160;&#160;n kernels: 6</text>
</g>
<!-- 3&#45;&gt;14 -->
<g id="edge14" class="edge"><title>3&#45;&gt;14</title>
<path fill="none" stroke="black" d="M266.749,-155.46C295.444,-143.761 333.016,-128.444 363.472,-116.027"/>
<polygon fill="black" stroke="black" points="365.151,-119.122 373.089,-112.106 362.508,-112.64 365.151,-119.122"/>
</g>
<!-- 15 -->
<g id="node16" class="node"><title>15</title>
<path fill="#d3e4ff" stroke="black" d="M591.5,-111C591.5,-111 557.5,-111 557.5,-111 551.5,-111 545.5,-105 545.5,-99 545.5,-99 545.5,-87 545.5,-87 545.5,-81 551.5,-75 557.5,-75 557.5,-75 591.5,-75 591.5,-75 597.5,-75 603.5,-81 603.5,-87 603.5,-87 603.5,-99 603.5,-99 603.5,-105 597.5,-111 591.5,-111"/>
<text text-anchor="middle" x="574.5" y="-89.3" font-family="Times,serif" font-size="14.00">comp 0</text>
</g>
<!-- 4&#45;&gt;15 -->
<g id="edge15" class="edge"><title>4&#45;&gt;15</title>
<path fill="none" stroke="black" d="M717.978,-155.485C689.865,-144.414 653.163,-129.638 613.041,-112.14"/>
<polygon fill="black" stroke="black" points="614.445,-108.934 603.881,-108.123 611.634,-115.345 614.445,-108.934"/>
</g>
<!-- 16 -->
<g id="node17" class="node"><title>16</title>
<path fill="#bfcfe6" stroke="black" d="M667.5,-111C667.5,-111 633.5,-111 633.5,-111 627.5,-111 621.5,-105 621.5,-99 621.5,-99 621.5,-87 621.5,-87 621.5,-81 627.5,-75 633.5,-75 633.5,-75 667.5,-75 667.5,-75 673.5,-75 679.5,-81 679.5,-87 679.5,-87 679.5,-99 679.5,-99 679.5,-105 673.5,-111 667.5,-111"/>
<text text-anchor="middle" x="650.5" y="-89.3" font-family="Times,serif" font-size="14.00">comp 1</text>
</g>
<!-- 4&#45;&gt;16 -->
<g id="edge16" class="edge"><title>4&#45;&gt;16</title>
<path fill="none" stroke="black" d="M738.632,-155.46C722.26,-144.043 700.945,-129.179 683.378,-116.928"/>
<polygon fill="black" stroke="black" points="685.298,-114 675.094,-111.151 681.294,-119.742 685.298,-114"/>
</g>
<!-- 17 -->
<g id="node18" class="node"><title>17</title>
<path fill="#abb9ce" stroke="black" d="M743.5,-111C743.5,-111 709.5,-111 709.5,-111 703.5,-111 697.5,-105 697.5,-99 697.5,-99 697.5,-87 697.5,-87 697.5,-81 703.5,-75 709.5,-75 709.5,-75 743.5,-75 743.5,-75 749.5,-75 755.5,-81 755.5,-87 755.5,-87 755.5,-99 755.5,-99 755.5,-105 749.5,-111 743.5,-111"/>
<text text-anchor="middle" x="726.5" y="-89.3" font-family="Times,serif" font-size="14.00">comp 2</text>
</g>
<!-- 4&#45;&gt;17 -->
<g id="edge17" class="edge"><title>4&#45;&gt;17</title>
<path fill="none" stroke="black" d="M755.877,-155.46C750.916,-145.081 744.593,-131.853 739.085,-120.33"/>
<polygon fill="black" stroke="black" points="742.168,-118.664 734.698,-111.151 735.853,-121.683 742.168,-118.664"/>
</g>
<!-- 18 -->
<g id="node19" class="node"><title>18</title>
<path fill="#97a3b6" stroke="black" d="M819.5,-111C819.5,-111 785.5,-111 785.5,-111 779.5,-111 773.5,-105 773.5,-99 773.5,-99 773.5,-87 773.5,-87 773.5,-81 779.5,-75 785.5,-75 785.5,-75 819.5,-75 819.5,-75 825.5,-75 831.5,-81 831.5,-87 831.5,-87 831.5,-99 831.5,-99 831.5,-105 825.5,-111 819.5,-111"/>
<text text-anchor="middle" x="802.5" y="-89.3" font-family="Times,serif" font-size="14.00">comp 3</text>
</g>
<!-- 4&#45;&gt;18 -->
<g id="edge18" class="edge"><title>4&#45;&gt;18</title>
<path fill="none" stroke="black" d="M773.123,-155.46C778.084,-145.081 784.407,-131.853 789.915,-120.33"/>
<polygon fill="black" stroke="black" points="793.147,-121.683 794.302,-111.151 786.832,-118.664 793.147,-121.683"/>
</g>
<!-- 19 -->
<g id="node20" class="node"><title>19</title>
<path fill="#838d9e" stroke="black" d="M896.5,-111C896.5,-111 862.5,-111 862.5,-111 856.5,-111 850.5,-105 850.5,-99 850.5,-99 850.5,-87 850.5,-87 850.5,-81 856.5,-75 862.5,-75 862.5,-75 896.5,-75 896.5,-75 902.5,-75 908.5,-81 908.5,-87 908.5,-87 908.5,-99 908.5,-99 908.5,-105 902.5,-111 896.5,-111"/>
<text text-anchor="middle" x="879.5" y="-89.3" font-family="Times,serif" font-size="14.00">comp 4</text>
</g>
<!-- 4&#45;&gt;19 -->
<g id="edge19" class="edge"><title>4&#45;&gt;19</title>
<path fill="none" stroke="black" d="M790.595,-155.46C807.111,-144.043 828.613,-129.179 846.333,-116.928"/>
<polygon fill="black" stroke="black" points="848.455,-119.717 854.691,-111.151 844.474,-113.958 848.455,-119.717"/>
</g>
<!-- 20 -->
<g id="node21" class="node"><title>20</title>
<path fill="#d3e4ff" stroke="black" d="M976.5,-111C976.5,-111 942.5,-111 942.5,-111 936.5,-111 930.5,-105 930.5,-99 930.5,-99 930.5,-87 930.5,-87 930.5,-81 936.5,-75 942.5,-75 942.5,-75 976.5,-75 976.5,-75 982.5,-75 988.5,-81 988.5,-87 988.5,-87 988.5,-99 988.5,-99 988.5,-105 982.5,-111 976.5,-111"/>
<text text-anchor="middle" x="959.5" y="-89.3" font-family="Times,serif" font-size="14.00">comp 0</text>
</g>
<!-- 5&#45;&gt;20 -->
<g id="edge20" class="edge"><title>5&#45;&gt;20</title>
<path fill="none" stroke="black" d="M1037.48,-147.908C1023.02,-137.909 1006.56,-126.536 992.511,-116.821"/>
<polygon fill="black" stroke="black" points="994.327,-113.821 984.111,-111.014 990.346,-119.579 994.327,-113.821"/>
</g>
<!-- 21 -->
<g id="node22" class="node"><title>21</title>
<path fill="#bfcfe6" stroke="black" d="M1053.5,-111C1053.5,-111 1019.5,-111 1019.5,-111 1013.5,-111 1007.5,-105 1007.5,-99 1007.5,-99 1007.5,-87 1007.5,-87 1007.5,-81 1013.5,-75 1019.5,-75 1019.5,-75 1053.5,-75 1053.5,-75 1059.5,-75 1065.5,-81 1065.5,-87 1065.5,-87 1065.5,-99 1065.5,-99 1065.5,-105 1059.5,-111 1053.5,-111"/>
<text text-anchor="middle" x="1036.5" y="-89.3" font-family="Times,serif" font-size="14.00">comp 1</text>
</g>
<!-- 5&#45;&gt;21 -->
<g id="edge21" class="edge"><title>5&#45;&gt;21</title>
<path fill="none" stroke="black" d="M1062.27,-147.908C1058.06,-139.108 1053.35,-129.243 1049.11,-120.381"/>
<polygon fill="black" stroke="black" points="1052.22,-118.769 1044.75,-111.256 1045.9,-121.788 1052.22,-118.769"/>
</g>
<!-- 22 -->
<g id="node23" class="node"><title>22</title>
<path fill="#abb9ce" stroke="black" d="M1130.5,-111C1130.5,-111 1096.5,-111 1096.5,-111 1090.5,-111 1084.5,-105 1084.5,-99 1084.5,-99 1084.5,-87 1084.5,-87 1084.5,-81 1090.5,-75 1096.5,-75 1096.5,-75 1130.5,-75 1130.5,-75 1136.5,-75 1142.5,-81 1142.5,-87 1142.5,-87 1142.5,-99 1142.5,-99 1142.5,-105 1136.5,-111 1130.5,-111"/>
<text text-anchor="middle" x="1113.5" y="-89.3" font-family="Times,serif" font-size="14.00">comp 2</text>
</g>
<!-- 5&#45;&gt;22 -->
<g id="edge22" class="edge"><title>5&#45;&gt;22</title>
<path fill="none" stroke="black" d="M1087.05,-147.908C1091.37,-139.108 1096.21,-129.243 1100.56,-120.381"/>
<polygon fill="black" stroke="black" points="1103.77,-121.776 1105.03,-111.256 1097.49,-118.693 1103.77,-121.776"/>
</g>
<!-- 23 -->
<g id="node24" class="node"><title>23</title>
<path fill="#97a3b6" stroke="black" d="M1208.5,-111C1208.5,-111 1174.5,-111 1174.5,-111 1168.5,-111 1162.5,-105 1162.5,-99 1162.5,-99 1162.5,-87 1162.5,-87 1162.5,-81 1168.5,-75 1174.5,-75 1174.5,-75 1208.5,-75 1208.5,-75 1214.5,-75 1220.5,-81 1220.5,-87 1220.5,-87 1220.5,-99 1220.5,-99 1220.5,-105 1214.5,-111 1208.5,-111"/>
<text text-anchor="middle" x="1191.5" y="-89.3" font-family="Times,serif" font-size="14.00">comp 3</text>
</g>
<!-- 5&#45;&gt;23 -->
<g id="edge23" class="edge"><title>5&#45;&gt;23</title>
<path fill="none" stroke="black" d="M1112.16,-147.908C1126.88,-137.909 1143.62,-126.536 1157.91,-116.821"/>
<polygon fill="black" stroke="black" points="1160.16,-119.529 1166.46,-111.014 1156.22,-113.739 1160.16,-119.529"/>
</g>
<!-- 24 -->
<g id="node25" class="node"><title>24</title>
<path fill="#838d9e" stroke="black" d="M1286.5,-111C1286.5,-111 1252.5,-111 1252.5,-111 1246.5,-111 1240.5,-105 1240.5,-99 1240.5,-99 1240.5,-87 1240.5,-87 1240.5,-81 1246.5,-75 1252.5,-75 1252.5,-75 1286.5,-75 1286.5,-75 1292.5,-75 1298.5,-81 1298.5,-87 1298.5,-87 1298.5,-99 1298.5,-99 1298.5,-105 1292.5,-111 1286.5,-111"/>
<text text-anchor="middle" x="1269.5" y="-89.3" font-family="Times,serif" font-size="14.00">comp 4</text>
</g>
<!-- 5&#45;&gt;24 -->
<g id="edge24" class="edge"><title>5&#45;&gt;24</title>
<path fill="none" stroke="black" d="M1140.76,-147.968C1168.32,-137.153 1200.57,-124.24 1229.5,-112 1229.94,-111.815 1230.38,-111.627 1230.82,-111.439"/>
<polygon fill="black" stroke="black" points="1232.51,-114.519 1240.29,-107.326 1229.73,-108.099 1232.51,-114.519"/>
</g>
<!-- 25 -->
<g id="node26" class="node"><title>25</title>
<path fill="#d3e4ff" stroke="black" d="M1365.5,-111C1365.5,-111 1331.5,-111 1331.5,-111 1325.5,-111 1319.5,-105 1319.5,-99 1319.5,-99 1319.5,-87 1319.5,-87 1319.5,-81 1325.5,-75 1331.5,-75 1331.5,-75 1365.5,-75 1365.5,-75 1371.5,-75 1377.5,-81 1377.5,-87 1377.5,-87 1377.5,-99 1377.5,-99 1377.5,-105 1371.5,-111 1365.5,-111"/>
<text text-anchor="middle" x="1348.5" y="-89.3" font-family="Times,serif" font-size="14.00">comp 0</text>
</g>
<!-- 6&#45;&gt;25 -->
<g id="edge25" class="edge"><title>6&#45;&gt;25</title>
<path fill="none" stroke="black" d="M1528.19,-155.449C1488.45,-145.157 1438.9,-131.11 1387.39,-112.061"/>
<polygon fill="black" stroke="black" points="1388.34,-108.681 1377.75,-108.446 1385.88,-115.235 1388.34,-108.681"/>
</g>
<!-- 26 -->
<g id="node27" class="node"><title>26</title>
<path fill="#bfcfe6" stroke="black" d="M1441.5,-111C1441.5,-111 1407.5,-111 1407.5,-111 1401.5,-111 1395.5,-105 1395.5,-99 1395.5,-99 1395.5,-87 1395.5,-87 1395.5,-81 1401.5,-75 1407.5,-75 1407.5,-75 1441.5,-75 1441.5,-75 1447.5,-75 1453.5,-81 1453.5,-87 1453.5,-87 1453.5,-99 1453.5,-99 1453.5,-105 1447.5,-111 1441.5,-111"/>
<text text-anchor="middle" x="1424.5" y="-89.3" font-family="Times,serif" font-size="14.00">comp 1</text>
</g>
<!-- 6&#45;&gt;26 -->
<g id="edge26" class="edge"><title>6&#45;&gt;26</title>
<path fill="none" stroke="black" d="M1561.08,-155.407C1535.1,-144.229 1500.97,-129.385 1462.77,-112.065"/>
<polygon fill="black" stroke="black" points="1464.05,-108.806 1453.5,-107.852 1461.16,-115.178 1464.05,-108.806"/>
</g>
<!-- 27 -->
<g id="node28" class="node"><title>27</title>
<path fill="#abb9ce" stroke="black" d="M1603.5,-112C1603.5,-112 1483.5,-112 1483.5,-112 1477.5,-112 1471.5,-106 1471.5,-100 1471.5,-100 1471.5,-86 1471.5,-86 1471.5,-80 1477.5,-74 1483.5,-74 1483.5,-74 1603.5,-74 1603.5,-74 1609.5,-74 1615.5,-80 1615.5,-86 1615.5,-86 1615.5,-100 1615.5,-100 1615.5,-106 1609.5,-112 1603.5,-112"/>
<text text-anchor="middle" x="1543.5" y="-96.8" font-family="Times,serif" font-size="14.00">comp 2</text>
<text text-anchor="middle" x="1543.5" y="-81.8" font-family="Times,serif" font-size="14.00">log gamma1: 0.006829</text>
</g>
<!-- 6&#45;&gt;27 -->
<g id="edge27" class="edge"><title>6&#45;&gt;27</title>
<path fill="none" stroke="black" d="M1589.89,-155.46C1582.04,-145.064 1572.04,-131.811 1563.33,-120.275"/>
<polygon fill="black" stroke="black" points="1566.09,-118.117 1557.27,-112.244 1560.5,-122.334 1566.09,-118.117"/>
</g>
<!-- 28 -->
<g id="node29" class="node"><title>28</title>
<path fill="#97a3b6" stroke="black" d="M1679.5,-111C1679.5,-111 1645.5,-111 1645.5,-111 1639.5,-111 1633.5,-105 1633.5,-99 1633.5,-99 1633.5,-87 1633.5,-87 1633.5,-81 1639.5,-75 1645.5,-75 1645.5,-75 1679.5,-75 1679.5,-75 1685.5,-75 1691.5,-81 1691.5,-87 1691.5,-87 1691.5,-99 1691.5,-99 1691.5,-105 1685.5,-111 1679.5,-111"/>
<text text-anchor="middle" x="1662.5" y="-89.3" font-family="Times,serif" font-size="14.00">comp 3</text>
</g>
<!-- 6&#45;&gt;28 -->
<g id="edge28" class="edge"><title>6&#45;&gt;28</title>
<path fill="none" stroke="black" d="M1616.89,-155.46C1624.82,-144.77 1635,-131.057 1643.73,-119.297"/>
<polygon fill="black" stroke="black" points="1646.62,-121.267 1649.77,-111.151 1641,-117.095 1646.62,-121.267"/>
</g>
<!-- 29 -->
<g id="node30" class="node"><title>29</title>
<path fill="#838d9e" stroke="black" d="M1755.5,-111C1755.5,-111 1721.5,-111 1721.5,-111 1715.5,-111 1709.5,-105 1709.5,-99 1709.5,-99 1709.5,-87 1709.5,-87 1709.5,-81 1715.5,-75 1721.5,-75 1721.5,-75 1755.5,-75 1755.5,-75 1761.5,-75 1767.5,-81 1767.5,-87 1767.5,-87 1767.5,-99 1767.5,-99 1767.5,-105 1761.5,-111 1755.5,-111"/>
<text text-anchor="middle" x="1738.5" y="-89.3" font-family="Times,serif" font-size="14.00">comp 4</text>
</g>
<!-- 6&#45;&gt;29 -->
<g id="edge29" class="edge"><title>6&#45;&gt;29</title>
<path fill="none" stroke="black" d="M1634.13,-155.46C1653.87,-143.835 1679.68,-128.637 1700.7,-116.263"/>
<polygon fill="black" stroke="black" points="1702.53,-119.241 1709.38,-111.151 1698.98,-113.209 1702.53,-119.241"/>
</g>
<!-- 30 -->
<g id="node31" class="node"><title>30</title>
<path fill="#d3e4ff" stroke="black" d="M1896.5,-111C1896.5,-111 1862.5,-111 1862.5,-111 1856.5,-111 1850.5,-105 1850.5,-99 1850.5,-99 1850.5,-87 1850.5,-87 1850.5,-81 1856.5,-75 1862.5,-75 1862.5,-75 1896.5,-75 1896.5,-75 1902.5,-75 1908.5,-81 1908.5,-87 1908.5,-87 1908.5,-99 1908.5,-99 1908.5,-105 1902.5,-111 1896.5,-111"/>
<text text-anchor="middle" x="1879.5" y="-89.3" font-family="Times,serif" font-size="14.00">comp 0</text>
</g>
<!-- 7&#45;&gt;30 -->
<g id="edge30" class="edge"><title>7&#45;&gt;30</title>
<path fill="none" stroke="black" d="M1957.48,-147.908C1943.02,-137.909 1926.56,-126.536 1912.51,-116.821"/>
<polygon fill="black" stroke="black" points="1914.33,-113.821 1904.11,-111.014 1910.35,-119.579 1914.33,-113.821"/>
</g>
<!-- 31 -->
<g id="node32" class="node"><title>31</title>
<path fill="#bfcfe6" stroke="black" d="M1973.5,-111C1973.5,-111 1939.5,-111 1939.5,-111 1933.5,-111 1927.5,-105 1927.5,-99 1927.5,-99 1927.5,-87 1927.5,-87 1927.5,-81 1933.5,-75 1939.5,-75 1939.5,-75 1973.5,-75 1973.5,-75 1979.5,-75 1985.5,-81 1985.5,-87 1985.5,-87 1985.5,-99 1985.5,-99 1985.5,-105 1979.5,-111 1973.5,-111"/>
<text text-anchor="middle" x="1956.5" y="-89.3" font-family="Times,serif" font-size="14.00">comp 1</text>
</g>
<!-- 7&#45;&gt;31 -->
<g id="edge31" class="edge"><title>7&#45;&gt;31</title>
<path fill="none" stroke="black" d="M1982.27,-147.908C1978.06,-139.108 1973.35,-129.243 1969.11,-120.381"/>
<polygon fill="black" stroke="black" points="1972.22,-118.769 1964.75,-111.256 1965.9,-121.788 1972.22,-118.769"/>
</g>
<!-- 32 -->
<g id="node33" class="node"><title>32</title>
<path fill="#abb9ce" stroke="black" d="M2049.5,-111C2049.5,-111 2015.5,-111 2015.5,-111 2009.5,-111 2003.5,-105 2003.5,-99 2003.5,-99 2003.5,-87 2003.5,-87 2003.5,-81 2009.5,-75 2015.5,-75 2015.5,-75 2049.5,-75 2049.5,-75 2055.5,-75 2061.5,-81 2061.5,-87 2061.5,-87 2061.5,-99 2061.5,-99 2061.5,-105 2055.5,-111 2049.5,-111"/>
<text text-anchor="middle" x="2032.5" y="-89.3" font-family="Times,serif" font-size="14.00">comp 2</text>
</g>
<!-- 7&#45;&gt;32 -->
<g id="edge32" class="edge"><title>7&#45;&gt;32</title>
<path fill="none" stroke="black" d="M2006.73,-147.908C2010.94,-139.108 2015.65,-129.243 2019.89,-120.381"/>
<polygon fill="black" stroke="black" points="2023.1,-121.788 2024.25,-111.256 2016.78,-118.769 2023.1,-121.788"/>
</g>
<!-- 33 -->
<g id="node34" class="node"><title>33</title>
<path fill="#97a3b6" stroke="black" d="M2125.5,-111C2125.5,-111 2091.5,-111 2091.5,-111 2085.5,-111 2079.5,-105 2079.5,-99 2079.5,-99 2079.5,-87 2079.5,-87 2079.5,-81 2085.5,-75 2091.5,-75 2091.5,-75 2125.5,-75 2125.5,-75 2131.5,-75 2137.5,-81 2137.5,-87 2137.5,-87 2137.5,-99 2137.5,-99 2137.5,-105 2131.5,-111 2125.5,-111"/>
<text text-anchor="middle" x="2108.5" y="-89.3" font-family="Times,serif" font-size="14.00">comp 3</text>
</g>
<!-- 7&#45;&gt;33 -->
<g id="edge33" class="edge"><title>7&#45;&gt;33</title>
<path fill="none" stroke="black" d="M2031.2,-147.908C2045.54,-137.909 2061.85,-126.536 2075.78,-116.821"/>
<polygon fill="black" stroke="black" points="2077.9,-119.605 2084.1,-111.014 2073.9,-113.863 2077.9,-119.605"/>
</g>
<!-- 34 -->
<g id="node35" class="node"><title>34</title>
<path fill="#d3e4ff" stroke="black" d="M2367.5,-112C2367.5,-112 2167.5,-112 2167.5,-112 2161.5,-112 2155.5,-106 2155.5,-100 2155.5,-100 2155.5,-86 2155.5,-86 2155.5,-80 2161.5,-74 2167.5,-74 2167.5,-74 2367.5,-74 2367.5,-74 2373.5,-74 2379.5,-80 2379.5,-86 2379.5,-86 2379.5,-100 2379.5,-100 2379.5,-106 2373.5,-112 2367.5,-112"/>
<text text-anchor="middle" x="2267.5" y="-96.8" font-family="Times,serif" font-size="14.00">comp 0</text>
<text text-anchor="middle" x="2267.5" y="-81.8" font-family="Times,serif" font-size="14.00">log gamma1: &#45;0.480825 &#160;&#160;n kernels: 9</text>
</g>
<!-- 8&#45;&gt;34 -->
<g id="edge34" class="edge"><title>8&#45;&gt;34</title>
<path fill="none" stroke="black" d="M2375.32,-147.908C2355.25,-137.877 2332.42,-126.461 2312.95,-116.726"/>
<polygon fill="black" stroke="black" points="2314.49,-113.581 2303.98,-112.239 2311.36,-119.842 2314.49,-113.581"/>
</g>
<!-- 35 -->
<g id="node36" class="node"><title>35</title>
<path fill="#bfcfe6" stroke="black" d="M2443.5,-111C2443.5,-111 2409.5,-111 2409.5,-111 2403.5,-111 2397.5,-105 2397.5,-99 2397.5,-99 2397.5,-87 2397.5,-87 2397.5,-81 2403.5,-75 2409.5,-75 2409.5,-75 2443.5,-75 2443.5,-75 2449.5,-75 2455.5,-81 2455.5,-87 2455.5,-87 2455.5,-99 2455.5,-99 2455.5,-105 2449.5,-111 2443.5,-111"/>
<text text-anchor="middle" x="2426.5" y="-89.3" font-family="Times,serif" font-size="14.00">comp 1</text>
</g>
<!-- 8&#45;&gt;35 -->
<g id="edge35" class="edge"><title>8&#45;&gt;35</title>
<path fill="none" stroke="black" d="M2426.5,-147.908C2426.5,-139.482 2426.5,-130.08 2426.5,-121.517"/>
<polygon fill="black" stroke="black" points="2430,-121.256 2426.5,-111.256 2423,-121.256 2430,-121.256"/>
</g>
<!-- 36 -->
<g id="node37" class="node"><title>36</title>
<path fill="#abb9ce" stroke="black" d="M2519.5,-111C2519.5,-111 2485.5,-111 2485.5,-111 2479.5,-111 2473.5,-105 2473.5,-99 2473.5,-99 2473.5,-87 2473.5,-87 2473.5,-81 2479.5,-75 2485.5,-75 2485.5,-75 2519.5,-75 2519.5,-75 2525.5,-75 2531.5,-81 2531.5,-87 2531.5,-87 2531.5,-99 2531.5,-99 2531.5,-105 2525.5,-111 2519.5,-111"/>
<text text-anchor="middle" x="2502.5" y="-89.3" font-family="Times,serif" font-size="14.00">comp 2</text>
</g>
<!-- 8&#45;&gt;36 -->
<g id="edge36" class="edge"><title>8&#45;&gt;36</title>
<path fill="none" stroke="black" d="M2450.97,-147.908C2459.92,-138.546 2470.02,-127.979 2478.89,-118.697"/>
<polygon fill="black" stroke="black" points="2481.62,-120.903 2486,-111.256 2476.56,-116.066 2481.62,-120.903"/>
</g>
<!-- 37 -->
<g id="node38" class="node"><title>37</title>
<path fill="#97a3b6" stroke="black" d="M2686,-112C2686,-112 2561,-112 2561,-112 2555,-112 2549,-106 2549,-100 2549,-100 2549,-86 2549,-86 2549,-80 2555,-74 2561,-74 2561,-74 2686,-74 2686,-74 2692,-74 2698,-80 2698,-86 2698,-86 2698,-100 2698,-100 2698,-106 2692,-112 2686,-112"/>
<text text-anchor="middle" x="2623.5" y="-96.8" font-family="Times,serif" font-size="14.00">comp 3</text>
<text text-anchor="middle" x="2623.5" y="-81.8" font-family="Times,serif" font-size="14.00">log gamma2: &#45;0.250733</text>
</g>
<!-- 8&#45;&gt;37 -->
<g id="edge37" class="edge"><title>8&#45;&gt;37</title>
<path fill="none" stroke="black" d="M2489.92,-147.908C2515.44,-137.61 2544.57,-125.853 2569.1,-115.952"/>
<polygon fill="black" stroke="black" points="2570.65,-119.103 2578.61,-112.115 2568.03,-112.612 2570.65,-119.103"/>
</g>
<!-- 38 -->
<g id="node39" class="node"><title>38</title>
<path fill="#d3e4ff" stroke="black" d="M2770.5,-111C2770.5,-111 2736.5,-111 2736.5,-111 2730.5,-111 2724.5,-105 2724.5,-99 2724.5,-99 2724.5,-87 2724.5,-87 2724.5,-81 2730.5,-75 2736.5,-75 2736.5,-75 2770.5,-75 2770.5,-75 2776.5,-75 2782.5,-81 2782.5,-87 2782.5,-87 2782.5,-99 2782.5,-99 2782.5,-105 2776.5,-111 2770.5,-111"/>
<text text-anchor="middle" x="2753.5" y="-89.3" font-family="Times,serif" font-size="14.00">comp 0</text>
</g>
<!-- 9&#45;&gt;38 -->
<g id="edge38" class="edge"><title>9&#45;&gt;38</title>
<path fill="none" stroke="black" d="M2859.54,-156.445C2839.52,-144.656 2812.7,-128.861 2791.04,-116.107"/>
<polygon fill="black" stroke="black" points="2792.81,-113.085 2782.41,-111.027 2789.25,-119.117 2792.81,-113.085"/>
</g>
<!-- 39 -->
<g id="node40" class="node"><title>39</title>
<path fill="#bfcfe6" stroke="black" d="M2846.5,-111C2846.5,-111 2812.5,-111 2812.5,-111 2806.5,-111 2800.5,-105 2800.5,-99 2800.5,-99 2800.5,-87 2800.5,-87 2800.5,-81 2806.5,-75 2812.5,-75 2812.5,-75 2846.5,-75 2846.5,-75 2852.5,-75 2858.5,-81 2858.5,-87 2858.5,-87 2858.5,-99 2858.5,-99 2858.5,-105 2852.5,-111 2846.5,-111"/>
<text text-anchor="middle" x="2829.5" y="-89.3" font-family="Times,serif" font-size="14.00">comp 1</text>
</g>
<!-- 9&#45;&gt;39 -->
<g id="edge39" class="edge"><title>9&#45;&gt;39</title>
<path fill="none" stroke="black" d="M2875.7,-156.25C2867.73,-145.519 2857.35,-131.527 2848.44,-119.527"/>
<polygon fill="black" stroke="black" points="2851.05,-117.161 2842.28,-111.217 2845.43,-121.333 2851.05,-117.161"/>
</g>
<!-- 40 -->
<g id="node41" class="node"><title>40</title>
<path fill="#abb9ce" stroke="black" d="M3008.5,-112C3008.5,-112 2888.5,-112 2888.5,-112 2882.5,-112 2876.5,-106 2876.5,-100 2876.5,-100 2876.5,-86 2876.5,-86 2876.5,-80 2882.5,-74 2888.5,-74 2888.5,-74 3008.5,-74 3008.5,-74 3014.5,-74 3020.5,-80 3020.5,-86 3020.5,-86 3020.5,-100 3020.5,-100 3020.5,-106 3014.5,-112 3008.5,-112"/>
<text text-anchor="middle" x="2948.5" y="-96.8" font-family="Times,serif" font-size="14.00">comp 2</text>
<text text-anchor="middle" x="2948.5" y="-81.8" font-family="Times,serif" font-size="14.00">log gamma1: 0.436077</text>
</g>
<!-- 9&#45;&gt;40 -->
<g id="edge40" class="edge"><title>9&#45;&gt;40</title>
<path fill="none" stroke="black" d="M2901.52,-156.25C2909.45,-145.74 2919.74,-132.101 2928.67,-120.27"/>
<polygon fill="black" stroke="black" points="2931.65,-122.135 2934.88,-112.044 2926.06,-117.918 2931.65,-122.135"/>
</g>
<!-- 41 -->
<g id="node42" class="node"><title>41</title>
<path fill="#97a3b6" stroke="black" d="M3084.5,-111C3084.5,-111 3050.5,-111 3050.5,-111 3044.5,-111 3038.5,-105 3038.5,-99 3038.5,-99 3038.5,-87 3038.5,-87 3038.5,-81 3044.5,-75 3050.5,-75 3050.5,-75 3084.5,-75 3084.5,-75 3090.5,-75 3096.5,-81 3096.5,-87 3096.5,-87 3096.5,-99 3096.5,-99 3096.5,-105 3090.5,-111 3084.5,-111"/>
<text text-anchor="middle" x="3067.5" y="-89.3" font-family="Times,serif" font-size="14.00">comp 3</text>
</g>
<!-- 9&#45;&gt;41 -->
<g id="edge41" class="edge"><title>9&#45;&gt;41</title>
<path fill="none" stroke="black" d="M2928.45,-156.465C2954.66,-145.202 2989.88,-129.902 3029.01,-112.164"/>
<polygon fill="black" stroke="black" points="3030.84,-115.177 3038.5,-107.852 3027.95,-108.805 3030.84,-115.177"/>
</g>
<!-- 42 -->
<g id="node43" class="node"><title>42</title>
<path fill="#838d9e" stroke="black" d="M3161.5,-111C3161.5,-111 3127.5,-111 3127.5,-111 3121.5,-111 3115.5,-105 3115.5,-99 3115.5,-99 3115.5,-87 3115.5,-87 3115.5,-81 3121.5,-75 3127.5,-75 3127.5,-75 3161.5,-75 3161.5,-75 3167.5,-75 3173.5,-81 3173.5,-87 3173.5,-87 3173.5,-99 3173.5,-99 3173.5,-105 3167.5,-111 3161.5,-111"/>
<text text-anchor="middle" x="3144.5" y="-89.3" font-family="Times,serif" font-size="14.00">comp 4</text>
</g>
<!-- 9&#45;&gt;42 -->
<g id="edge42" class="edge"><title>9&#45;&gt;42</title>
<path fill="none" stroke="black" d="M2938.33,-161.738C2982.77,-150.692 3049.31,-132.784 3105.5,-112 3105.6,-111.963 3105.7,-111.925 3105.8,-111.888"/>
<polygon fill="black" stroke="black" points="3107.35,-115.039 3115.32,-108.063 3104.74,-108.544 3107.35,-115.039"/>
</g>
<!-- 43 -->
<g id="node44" class="node"><title>43</title>
<path fill="#f6d3ff" stroke="black" d="M47,-38C47,-38 12,-38 12,-38 6,-38 0,-32 0,-26 0,-26 0,-12 0,-12 0,-6 6,-0 12,-0 12,-0 47,-0 47,-0 53,-0 59,-6 59,-12 59,-12 59,-26 59,-26 59,-32 53,-38 47,-38"/>
<text text-anchor="middle" x="29.5" y="-22.8" font-family="Times,serif" font-size="14.00">forward</text>
<text text-anchor="middle" x="29.5" y="-7.8" font-family="Times,serif" font-size="14.00">input</text>
</g>
<!-- 10&#45;&gt;43 -->
<g id="edge43" class="edge"><title>10&#45;&gt;43</title>
<path fill="none" stroke="black" d="M30.263,-74.937C30.1526,-66.9865 30.0182,-57.3134 29.8932,-48.3127"/>
<polygon fill="black" stroke="black" points="33.3914,-48.1496 29.7528,-38.1992 26.3921,-48.2468 33.3914,-48.1496"/>
</g>
<!-- 44 -->
<g id="node45" class="node"><title>44</title>
<path fill="#f6d3ff" stroke="black" d="M125.5,-38C125.5,-38 89.5,-38 89.5,-38 83.5,-38 77.5,-32 77.5,-26 77.5,-26 77.5,-12 77.5,-12 77.5,-6 83.5,-0 89.5,-0 89.5,-0 125.5,-0 125.5,-0 131.5,-0 137.5,-6 137.5,-12 137.5,-12 137.5,-26 137.5,-26 137.5,-32 131.5,-38 125.5,-38"/>
<text text-anchor="middle" x="107.5" y="-22.8" font-family="Times,serif" font-size="14.00">forward</text>
<text text-anchor="middle" x="107.5" y="-7.8" font-family="Times,serif" font-size="14.00">EB0/C0</text>
</g>
<!-- 11&#45;&gt;44 -->
<g id="edge44" class="edge"><title>11&#45;&gt;44</title>
<path fill="none" stroke="black" d="M107.5,-74.937C107.5,-66.9865 107.5,-57.3134 107.5,-48.3127"/>
<polygon fill="black" stroke="black" points="111,-48.1991 107.5,-38.1992 104,-48.1992 111,-48.1991"/>
</g>
<!-- 45 -->
<g id="node46" class="node"><title>45</title>
<path fill="#f6d3ff" stroke="black" d="M203.5,-38C203.5,-38 167.5,-38 167.5,-38 161.5,-38 155.5,-32 155.5,-26 155.5,-26 155.5,-12 155.5,-12 155.5,-6 161.5,-0 167.5,-0 167.5,-0 203.5,-0 203.5,-0 209.5,-0 215.5,-6 215.5,-12 215.5,-12 215.5,-26 215.5,-26 215.5,-32 209.5,-38 203.5,-38"/>
<text text-anchor="middle" x="185.5" y="-22.8" font-family="Times,serif" font-size="14.00">forward</text>
<text text-anchor="middle" x="185.5" y="-7.8" font-family="Times,serif" font-size="14.00">EB0/C1</text>
</g>
<!-- 12&#45;&gt;45 -->
<g id="edge45" class="edge"><title>12&#45;&gt;45</title>
<path fill="none" stroke="black" d="M184.737,-74.937C184.847,-66.9865 184.982,-57.3134 185.107,-48.3127"/>
<polygon fill="black" stroke="black" points="188.608,-48.2468 185.247,-38.1992 181.609,-48.1496 188.608,-48.2468"/>
</g>
<!-- 46 -->
<g id="node47" class="node"><title>46</title>
<path fill="#f6d3ff" stroke="black" d="M281.5,-38C281.5,-38 245.5,-38 245.5,-38 239.5,-38 233.5,-32 233.5,-26 233.5,-26 233.5,-12 233.5,-12 233.5,-6 239.5,-0 245.5,-0 245.5,-0 281.5,-0 281.5,-0 287.5,-0 293.5,-6 293.5,-12 293.5,-12 293.5,-26 293.5,-26 293.5,-32 287.5,-38 281.5,-38"/>
<text text-anchor="middle" x="263.5" y="-22.8" font-family="Times,serif" font-size="14.00">forward</text>
<text text-anchor="middle" x="263.5" y="-7.8" font-family="Times,serif" font-size="14.00">EB0/C2</text>
</g>
<!-- 13&#45;&gt;46 -->
<g id="edge46" class="edge"><title>13&#45;&gt;46</title>
<path fill="none" stroke="black" d="M261.211,-74.937C261.542,-66.9865 261.945,-57.3134 262.32,-48.3127"/>
<polygon fill="black" stroke="black" points="265.822,-48.3362 262.742,-38.1992 258.828,-48.0448 265.822,-48.3362"/>
</g>
<!-- 47 -->
<g id="node48" class="node"><title>47</title>
<path fill="#f6d3ff" stroke="black" d="M435.5,-38C435.5,-38 399.5,-38 399.5,-38 393.5,-38 387.5,-32 387.5,-26 387.5,-26 387.5,-12 387.5,-12 387.5,-6 393.5,-0 399.5,-0 399.5,-0 435.5,-0 435.5,-0 441.5,-0 447.5,-6 447.5,-12 447.5,-12 447.5,-26 447.5,-26 447.5,-32 441.5,-38 435.5,-38"/>
<text text-anchor="middle" x="417.5" y="-22.8" font-family="Times,serif" font-size="14.00">forward</text>
<text text-anchor="middle" x="417.5" y="-7.8" font-family="Times,serif" font-size="14.00">EB0/C3</text>
</g>
<!-- 14&#45;&gt;47 -->
<g id="edge47" class="edge"><title>14&#45;&gt;47</title>
<path fill="none" stroke="black" d="M417.5,-73.8314C417.5,-66.131 417.5,-56.9743 417.5,-48.4166"/>
<polygon fill="black" stroke="black" points="421,-48.4132 417.5,-38.4133 414,-48.4133 421,-48.4132"/>
</g>
<!-- 48 -->
<g id="node49" class="node"><title>48</title>
<path fill="#f6d3ff" stroke="black" d="M586.5,-38C586.5,-38 550.5,-38 550.5,-38 544.5,-38 538.5,-32 538.5,-26 538.5,-26 538.5,-12 538.5,-12 538.5,-6 544.5,-0 550.5,-0 550.5,-0 586.5,-0 586.5,-0 592.5,-0 598.5,-6 598.5,-12 598.5,-12 598.5,-26 598.5,-26 598.5,-32 592.5,-38 586.5,-38"/>
<text text-anchor="middle" x="568.5" y="-22.8" font-family="Times,serif" font-size="14.00">forward</text>
<text text-anchor="middle" x="568.5" y="-7.8" font-family="Times,serif" font-size="14.00">EB0/C4</text>
</g>
<!-- 15&#45;&gt;48 -->
<g id="edge48" class="edge"><title>15&#45;&gt;48</title>
<path fill="none" stroke="black" d="M573.078,-74.937C572.416,-66.9865 571.609,-57.3134 570.859,-48.3127"/>
<polygon fill="black" stroke="black" points="574.335,-47.8739 570.017,-38.1992 567.359,-48.4553 574.335,-47.8739"/>
</g>
<!-- 49 -->
<g id="node50" class="node"><title>49</title>
<path fill="#f6d3ff" stroke="black" d="M664.5,-38C664.5,-38 628.5,-38 628.5,-38 622.5,-38 616.5,-32 616.5,-26 616.5,-26 616.5,-12 616.5,-12 616.5,-6 622.5,-0 628.5,-0 628.5,-0 664.5,-0 664.5,-0 670.5,-0 676.5,-6 676.5,-12 676.5,-12 676.5,-26 676.5,-26 676.5,-32 670.5,-38 664.5,-38"/>
<text text-anchor="middle" x="646.5" y="-22.8" font-family="Times,serif" font-size="14.00">forward</text>
<text text-anchor="middle" x="646.5" y="-7.8" font-family="Times,serif" font-size="14.00">EB1/C0</text>
</g>
<!-- 16&#45;&gt;49 -->
<g id="edge49" class="edge"><title>16&#45;&gt;49</title>
<path fill="none" stroke="black" d="M649.552,-74.937C649.11,-66.9865 648.573,-57.3134 648.073,-48.3127"/>
<polygon fill="black" stroke="black" points="651.56,-47.9896 647.511,-38.1992 644.571,-48.3779 651.56,-47.9896"/>
</g>
<!-- 50 -->
<g id="node51" class="node"><title>50</title>
<path fill="#f6d3ff" stroke="black" d="M742.5,-38C742.5,-38 706.5,-38 706.5,-38 700.5,-38 694.5,-32 694.5,-26 694.5,-26 694.5,-12 694.5,-12 694.5,-6 700.5,-0 706.5,-0 706.5,-0 742.5,-0 742.5,-0 748.5,-0 754.5,-6 754.5,-12 754.5,-12 754.5,-26 754.5,-26 754.5,-32 748.5,-38 742.5,-38"/>
<text text-anchor="middle" x="724.5" y="-22.8" font-family="Times,serif" font-size="14.00">forward</text>
<text text-anchor="middle" x="724.5" y="-7.8" font-family="Times,serif" font-size="14.00">EB1/C1</text>
</g>
<!-- 17&#45;&gt;50 -->
<g id="edge50" class="edge"><title>17&#45;&gt;50</title>
<path fill="none" stroke="black" d="M726.026,-74.937C725.805,-66.9865 725.536,-57.3134 725.286,-48.3127"/>
<polygon fill="black" stroke="black" points="728.782,-48.0981 725.006,-38.1992 721.785,-48.2925 728.782,-48.0981"/>
</g>
<!-- 51 -->
<g id="node52" class="node"><title>51</title>
<path fill="#f6d3ff" stroke="black" d="M820.5,-38C820.5,-38 784.5,-38 784.5,-38 778.5,-38 772.5,-32 772.5,-26 772.5,-26 772.5,-12 772.5,-12 772.5,-6 778.5,-0 784.5,-0 784.5,-0 820.5,-0 820.5,-0 826.5,-0 832.5,-6 832.5,-12 832.5,-12 832.5,-26 832.5,-26 832.5,-32 826.5,-38 820.5,-38"/>
<text text-anchor="middle" x="802.5" y="-22.8" font-family="Times,serif" font-size="14.00">forward</text>
<text text-anchor="middle" x="802.5" y="-7.8" font-family="Times,serif" font-size="14.00">EB1/C2</text>
</g>
<!-- 18&#45;&gt;51 -->
<g id="edge51" class="edge"><title>18&#45;&gt;51</title>
<path fill="none" stroke="black" d="M802.5,-74.937C802.5,-66.9865 802.5,-57.3134 802.5,-48.3127"/>
<polygon fill="black" stroke="black" points="806,-48.1991 802.5,-38.1992 799,-48.1992 806,-48.1991"/>
</g>
<!-- 52 -->
<g id="node53" class="node"><title>52</title>
<path fill="#f6d3ff" stroke="black" d="M898.5,-38C898.5,-38 862.5,-38 862.5,-38 856.5,-38 850.5,-32 850.5,-26 850.5,-26 850.5,-12 850.5,-12 850.5,-6 856.5,-0 862.5,-0 862.5,-0 898.5,-0 898.5,-0 904.5,-0 910.5,-6 910.5,-12 910.5,-12 910.5,-26 910.5,-26 910.5,-32 904.5,-38 898.5,-38"/>
<text text-anchor="middle" x="880.5" y="-22.8" font-family="Times,serif" font-size="14.00">forward</text>
<text text-anchor="middle" x="880.5" y="-7.8" font-family="Times,serif" font-size="14.00">EB1/C3</text>
</g>
<!-- 19&#45;&gt;52 -->
<g id="edge52" class="edge"><title>19&#45;&gt;52</title>
<path fill="none" stroke="black" d="M879.737,-74.937C879.847,-66.9865 879.982,-57.3134 880.107,-48.3127"/>
<polygon fill="black" stroke="black" points="883.608,-48.2468 880.247,-38.1992 876.609,-48.1496 883.608,-48.2468"/>
</g>
<!-- 53 -->
<g id="node54" class="node"><title>53</title>
<path fill="#f6d3ff" stroke="black" d="M976.5,-38C976.5,-38 940.5,-38 940.5,-38 934.5,-38 928.5,-32 928.5,-26 928.5,-26 928.5,-12 928.5,-12 928.5,-6 934.5,-0 940.5,-0 940.5,-0 976.5,-0 976.5,-0 982.5,-0 988.5,-6 988.5,-12 988.5,-12 988.5,-26 988.5,-26 988.5,-32 982.5,-38 976.5,-38"/>
<text text-anchor="middle" x="958.5" y="-22.8" font-family="Times,serif" font-size="14.00">forward</text>
<text text-anchor="middle" x="958.5" y="-7.8" font-family="Times,serif" font-size="14.00">EB1/C4</text>
</g>
<!-- 20&#45;&gt;53 -->
<g id="edge53" class="edge"><title>20&#45;&gt;53</title>
<path fill="none" stroke="black" d="M959.263,-74.937C959.153,-66.9865 959.018,-57.3134 958.893,-48.3127"/>
<polygon fill="black" stroke="black" points="962.391,-48.1496 958.753,-38.1992 955.392,-48.2468 962.391,-48.1496"/>
</g>
<!-- 54 -->
<g id="node55" class="node"><title>54</title>
<path fill="#f6d3ff" stroke="black" d="M1054.5,-38C1054.5,-38 1018.5,-38 1018.5,-38 1012.5,-38 1006.5,-32 1006.5,-26 1006.5,-26 1006.5,-12 1006.5,-12 1006.5,-6 1012.5,-0 1018.5,-0 1018.5,-0 1054.5,-0 1054.5,-0 1060.5,-0 1066.5,-6 1066.5,-12 1066.5,-12 1066.5,-26 1066.5,-26 1066.5,-32 1060.5,-38 1054.5,-38"/>
<text text-anchor="middle" x="1036.5" y="-22.8" font-family="Times,serif" font-size="14.00">forward</text>
<text text-anchor="middle" x="1036.5" y="-7.8" font-family="Times,serif" font-size="14.00">EB2/C0</text>
</g>
<!-- 21&#45;&gt;54 -->
<g id="edge54" class="edge"><title>21&#45;&gt;54</title>
<path fill="none" stroke="black" d="M1036.5,-74.937C1036.5,-66.9865 1036.5,-57.3134 1036.5,-48.3127"/>
<polygon fill="black" stroke="black" points="1040,-48.1991 1036.5,-38.1992 1033,-48.1992 1040,-48.1991"/>
</g>
<!-- 55 -->
<g id="node56" class="node"><title>55</title>
<path fill="#f6d3ff" stroke="black" d="M1132.5,-38C1132.5,-38 1096.5,-38 1096.5,-38 1090.5,-38 1084.5,-32 1084.5,-26 1084.5,-26 1084.5,-12 1084.5,-12 1084.5,-6 1090.5,-0 1096.5,-0 1096.5,-0 1132.5,-0 1132.5,-0 1138.5,-0 1144.5,-6 1144.5,-12 1144.5,-12 1144.5,-26 1144.5,-26 1144.5,-32 1138.5,-38 1132.5,-38"/>
<text text-anchor="middle" x="1114.5" y="-22.8" font-family="Times,serif" font-size="14.00">forward</text>
<text text-anchor="middle" x="1114.5" y="-7.8" font-family="Times,serif" font-size="14.00">EB2/C1</text>
</g>
<!-- 22&#45;&gt;55 -->
<g id="edge55" class="edge"><title>22&#45;&gt;55</title>
<path fill="none" stroke="black" d="M1113.74,-74.937C1113.85,-66.9865 1113.98,-57.3134 1114.11,-48.3127"/>
<polygon fill="black" stroke="black" points="1117.61,-48.2468 1114.25,-38.1992 1110.61,-48.1496 1117.61,-48.2468"/>
</g>
<!-- 56 -->
<g id="node57" class="node"><title>56</title>
<path fill="#f6d3ff" stroke="black" d="M1210.5,-38C1210.5,-38 1174.5,-38 1174.5,-38 1168.5,-38 1162.5,-32 1162.5,-26 1162.5,-26 1162.5,-12 1162.5,-12 1162.5,-6 1168.5,-0 1174.5,-0 1174.5,-0 1210.5,-0 1210.5,-0 1216.5,-0 1222.5,-6 1222.5,-12 1222.5,-12 1222.5,-26 1222.5,-26 1222.5,-32 1216.5,-38 1210.5,-38"/>
<text text-anchor="middle" x="1192.5" y="-22.8" font-family="Times,serif" font-size="14.00">forward</text>
<text text-anchor="middle" x="1192.5" y="-7.8" font-family="Times,serif" font-size="14.00">EB2/C2</text>
</g>
<!-- 23&#45;&gt;56 -->
<g id="edge56" class="edge"><title>23&#45;&gt;56</title>
<path fill="none" stroke="black" d="M1191.74,-74.937C1191.85,-66.9865 1191.98,-57.3134 1192.11,-48.3127"/>
<polygon fill="black" stroke="black" points="1195.61,-48.2468 1192.25,-38.1992 1188.61,-48.1496 1195.61,-48.2468"/>
</g>
<!-- 57 -->
<g id="node58" class="node"><title>57</title>
<path fill="#f6d3ff" stroke="black" d="M1288.5,-38C1288.5,-38 1252.5,-38 1252.5,-38 1246.5,-38 1240.5,-32 1240.5,-26 1240.5,-26 1240.5,-12 1240.5,-12 1240.5,-6 1246.5,-0 1252.5,-0 1252.5,-0 1288.5,-0 1288.5,-0 1294.5,-0 1300.5,-6 1300.5,-12 1300.5,-12 1300.5,-26 1300.5,-26 1300.5,-32 1294.5,-38 1288.5,-38"/>
<text text-anchor="middle" x="1270.5" y="-22.8" font-family="Times,serif" font-size="14.00">forward</text>
<text text-anchor="middle" x="1270.5" y="-7.8" font-family="Times,serif" font-size="14.00">EB2/C3</text>
</g>
<!-- 24&#45;&gt;57 -->
<g id="edge57" class="edge"><title>24&#45;&gt;57</title>
<path fill="none" stroke="black" d="M1269.74,-74.937C1269.85,-66.9865 1269.98,-57.3134 1270.11,-48.3127"/>
<polygon fill="black" stroke="black" points="1273.61,-48.2468 1270.25,-38.1992 1266.61,-48.1496 1273.61,-48.2468"/>
</g>
<!-- 58 -->
<g id="node59" class="node"><title>58</title>
<path fill="#f6d3ff" stroke="black" d="M1366.5,-38C1366.5,-38 1330.5,-38 1330.5,-38 1324.5,-38 1318.5,-32 1318.5,-26 1318.5,-26 1318.5,-12 1318.5,-12 1318.5,-6 1324.5,-0 1330.5,-0 1330.5,-0 1366.5,-0 1366.5,-0 1372.5,-0 1378.5,-6 1378.5,-12 1378.5,-12 1378.5,-26 1378.5,-26 1378.5,-32 1372.5,-38 1366.5,-38"/>
<text text-anchor="middle" x="1348.5" y="-22.8" font-family="Times,serif" font-size="14.00">forward</text>
<text text-anchor="middle" x="1348.5" y="-7.8" font-family="Times,serif" font-size="14.00">EB2/C4</text>
</g>
<!-- 25&#45;&gt;58 -->
<g id="edge58" class="edge"><title>25&#45;&gt;58</title>
<path fill="none" stroke="black" d="M1348.5,-74.937C1348.5,-66.9865 1348.5,-57.3134 1348.5,-48.3127"/>
<polygon fill="black" stroke="black" points="1352,-48.1991 1348.5,-38.1992 1345,-48.1992 1352,-48.1991"/>
</g>
<!-- 59 -->
<g id="node60" class="node"><title>59</title>
<path fill="#f6d3ff" stroke="black" d="M1446.5,-38C1446.5,-38 1408.5,-38 1408.5,-38 1402.5,-38 1396.5,-32 1396.5,-26 1396.5,-26 1396.5,-12 1396.5,-12 1396.5,-6 1402.5,-0 1408.5,-0 1408.5,-0 1446.5,-0 1446.5,-0 1452.5,-0 1458.5,-6 1458.5,-12 1458.5,-12 1458.5,-26 1458.5,-26 1458.5,-32 1452.5,-38 1446.5,-38"/>
<text text-anchor="middle" x="1427.5" y="-22.8" font-family="Times,serif" font-size="14.00">forward</text>
<text text-anchor="middle" x="1427.5" y="-7.8" font-family="Times,serif" font-size="14.00">DB3/C0</text>
</g>
<!-- 26&#45;&gt;59 -->
<g id="edge59" class="edge"><title>26&#45;&gt;59</title>
<path fill="none" stroke="black" d="M1425.21,-74.937C1425.54,-66.9865 1425.95,-57.3134 1426.32,-48.3127"/>
<polygon fill="black" stroke="black" points="1429.82,-48.3362 1426.74,-38.1992 1422.83,-48.0448 1429.82,-48.3362"/>
</g>
<!-- 60 -->
<g id="node61" class="node"><title>60</title>
<path fill="#f6d3ff" stroke="black" d="M1562.5,-38C1562.5,-38 1524.5,-38 1524.5,-38 1518.5,-38 1512.5,-32 1512.5,-26 1512.5,-26 1512.5,-12 1512.5,-12 1512.5,-6 1518.5,-0 1524.5,-0 1524.5,-0 1562.5,-0 1562.5,-0 1568.5,-0 1574.5,-6 1574.5,-12 1574.5,-12 1574.5,-26 1574.5,-26 1574.5,-32 1568.5,-38 1562.5,-38"/>
<text text-anchor="middle" x="1543.5" y="-22.8" font-family="Times,serif" font-size="14.00">forward</text>
<text text-anchor="middle" x="1543.5" y="-7.8" font-family="Times,serif" font-size="14.00">DB3/C1</text>
</g>
<!-- 27&#45;&gt;60 -->
<g id="edge60" class="edge"><title>27&#45;&gt;60</title>
<path fill="none" stroke="black" d="M1543.5,-73.8314C1543.5,-66.131 1543.5,-56.9743 1543.5,-48.4166"/>
<polygon fill="black" stroke="black" points="1547,-48.4132 1543.5,-38.4133 1540,-48.4133 1547,-48.4132"/>
</g>
<!-- 61 -->
<g id="node62" class="node"><title>61</title>
<path fill="#f6d3ff" stroke="black" d="M1659.5,-38C1659.5,-38 1621.5,-38 1621.5,-38 1615.5,-38 1609.5,-32 1609.5,-26 1609.5,-26 1609.5,-12 1609.5,-12 1609.5,-6 1615.5,-0 1621.5,-0 1621.5,-0 1659.5,-0 1659.5,-0 1665.5,-0 1671.5,-6 1671.5,-12 1671.5,-12 1671.5,-26 1671.5,-26 1671.5,-32 1665.5,-38 1659.5,-38"/>
<text text-anchor="middle" x="1640.5" y="-22.8" font-family="Times,serif" font-size="14.00">forward</text>
<text text-anchor="middle" x="1640.5" y="-7.8" font-family="Times,serif" font-size="14.00">DB3/C2</text>
</g>
<!-- 28&#45;&gt;61 -->
<g id="edge61" class="edge"><title>28&#45;&gt;61</title>
<path fill="none" stroke="black" d="M1657.29,-74.937C1654.83,-66.9001 1651.84,-57.1029 1649.06,-48.0195"/>
<polygon fill="black" stroke="black" points="1652.33,-46.7399 1646.06,-38.1992 1645.64,-48.7855 1652.33,-46.7399"/>
</g>
<!-- 62 -->
<g id="node63" class="node"><title>62</title>
<path fill="#f6d3ff" stroke="black" d="M1739.5,-38C1739.5,-38 1701.5,-38 1701.5,-38 1695.5,-38 1689.5,-32 1689.5,-26 1689.5,-26 1689.5,-12 1689.5,-12 1689.5,-6 1695.5,-0 1701.5,-0 1701.5,-0 1739.5,-0 1739.5,-0 1745.5,-0 1751.5,-6 1751.5,-12 1751.5,-12 1751.5,-26 1751.5,-26 1751.5,-32 1745.5,-38 1739.5,-38"/>
<text text-anchor="middle" x="1720.5" y="-22.8" font-family="Times,serif" font-size="14.00">forward</text>
<text text-anchor="middle" x="1720.5" y="-7.8" font-family="Times,serif" font-size="14.00">DB3/C3</text>
</g>
<!-- 29&#45;&gt;62 -->
<g id="edge62" class="edge"><title>29&#45;&gt;62</title>
<path fill="none" stroke="black" d="M1734.23,-74.937C1732.23,-66.9001 1729.78,-57.1029 1727.5,-48.0195"/>
<polygon fill="black" stroke="black" points="1730.87,-47.0517 1725.05,-38.1992 1724.08,-48.7495 1730.87,-47.0517"/>
</g>
<!-- 63 -->
<g id="node64" class="node"><title>63</title>
<path fill="#f6d3ff" stroke="black" d="M1819.5,-38C1819.5,-38 1781.5,-38 1781.5,-38 1775.5,-38 1769.5,-32 1769.5,-26 1769.5,-26 1769.5,-12 1769.5,-12 1769.5,-6 1775.5,-0 1781.5,-0 1781.5,-0 1819.5,-0 1819.5,-0 1825.5,-0 1831.5,-6 1831.5,-12 1831.5,-12 1831.5,-26 1831.5,-26 1831.5,-32 1825.5,-38 1819.5,-38"/>
<text text-anchor="middle" x="1800.5" y="-22.8" font-family="Times,serif" font-size="14.00">forward</text>
<text text-anchor="middle" x="1800.5" y="-7.8" font-family="Times,serif" font-size="14.00">DB3/C4</text>
</g>
<!-- 30&#45;&gt;63 -->
<g id="edge63" class="edge"><title>30&#45;&gt;63</title>
<path fill="none" stroke="black" d="M1860.78,-74.937C1851.01,-66.0359 1838.88,-54.9756 1828.06,-45.1172"/>
<polygon fill="black" stroke="black" points="1830.22,-42.3484 1820.47,-38.1992 1825.5,-47.5221 1830.22,-42.3484"/>
</g>
<!-- 64 -->
<g id="node65" class="node"><title>64</title>
<path fill="#debfe6" stroke="black" d="M1897.5,-38C1897.5,-38 1861.5,-38 1861.5,-38 1855.5,-38 1849.5,-32 1849.5,-26 1849.5,-26 1849.5,-12 1849.5,-12 1849.5,-6 1855.5,-0 1861.5,-0 1861.5,-0 1897.5,-0 1897.5,-0 1903.5,-0 1909.5,-6 1909.5,-12 1909.5,-12 1909.5,-26 1909.5,-26 1909.5,-32 1903.5,-38 1897.5,-38"/>
<text text-anchor="middle" x="1879.5" y="-22.8" font-family="Times,serif" font-size="14.00">merge</text>
<text text-anchor="middle" x="1879.5" y="-7.8" font-family="Times,serif" font-size="14.00">EB2/C4</text>
</g>
<!-- 30&#45;&gt;64 -->
<g id="edge64" class="edge"><title>30&#45;&gt;64</title>
<path fill="none" stroke="black" d="M1879.5,-74.937C1879.5,-66.9865 1879.5,-57.3134 1879.5,-48.3127"/>
<polygon fill="black" stroke="black" points="1883,-48.1991 1879.5,-38.1992 1876,-48.1992 1883,-48.1991"/>
</g>
<!-- 65 -->
<g id="node66" class="node"><title>65</title>
<path fill="#f6d3ff" stroke="black" d="M1977.5,-38C1977.5,-38 1939.5,-38 1939.5,-38 1933.5,-38 1927.5,-32 1927.5,-26 1927.5,-26 1927.5,-12 1927.5,-12 1927.5,-6 1933.5,-0 1939.5,-0 1939.5,-0 1977.5,-0 1977.5,-0 1983.5,-0 1989.5,-6 1989.5,-12 1989.5,-12 1989.5,-26 1989.5,-26 1989.5,-32 1983.5,-38 1977.5,-38"/>
<text text-anchor="middle" x="1958.5" y="-22.8" font-family="Times,serif" font-size="14.00">forward</text>
<text text-anchor="middle" x="1958.5" y="-7.8" font-family="Times,serif" font-size="14.00">DB2/C0</text>
</g>
<!-- 31&#45;&gt;65 -->
<g id="edge65" class="edge"><title>31&#45;&gt;65</title>
<path fill="none" stroke="black" d="M1956.97,-74.937C1957.19,-66.9865 1957.46,-57.3134 1957.71,-48.3127"/>
<polygon fill="black" stroke="black" points="1961.22,-48.2925 1957.99,-38.1992 1954.22,-48.0981 1961.22,-48.2925"/>
</g>
<!-- 66 -->
<g id="node67" class="node"><title>66</title>
<path fill="#f6d3ff" stroke="black" d="M2057.5,-38C2057.5,-38 2019.5,-38 2019.5,-38 2013.5,-38 2007.5,-32 2007.5,-26 2007.5,-26 2007.5,-12 2007.5,-12 2007.5,-6 2013.5,-0 2019.5,-0 2019.5,-0 2057.5,-0 2057.5,-0 2063.5,-0 2069.5,-6 2069.5,-12 2069.5,-12 2069.5,-26 2069.5,-26 2069.5,-32 2063.5,-38 2057.5,-38"/>
<text text-anchor="middle" x="2038.5" y="-22.8" font-family="Times,serif" font-size="14.00">forward</text>
<text text-anchor="middle" x="2038.5" y="-7.8" font-family="Times,serif" font-size="14.00">DB2/C1</text>
</g>
<!-- 32&#45;&gt;66 -->
<g id="edge66" class="edge"><title>32&#45;&gt;66</title>
<path fill="none" stroke="black" d="M2033.92,-74.937C2034.58,-66.9865 2035.39,-57.3134 2036.14,-48.3127"/>
<polygon fill="black" stroke="black" points="2039.64,-48.4553 2036.98,-38.1992 2032.66,-47.8739 2039.64,-48.4553"/>
</g>
<!-- 67 -->
<g id="node68" class="node"><title>67</title>
<path fill="#f6d3ff" stroke="black" d="M2137.5,-38C2137.5,-38 2099.5,-38 2099.5,-38 2093.5,-38 2087.5,-32 2087.5,-26 2087.5,-26 2087.5,-12 2087.5,-12 2087.5,-6 2093.5,-0 2099.5,-0 2099.5,-0 2137.5,-0 2137.5,-0 2143.5,-0 2149.5,-6 2149.5,-12 2149.5,-12 2149.5,-26 2149.5,-26 2149.5,-32 2143.5,-38 2137.5,-38"/>
<text text-anchor="middle" x="2118.5" y="-22.8" font-family="Times,serif" font-size="14.00">forward</text>
<text text-anchor="middle" x="2118.5" y="-7.8" font-family="Times,serif" font-size="14.00">DB2/C2</text>
</g>
<!-- 33&#45;&gt;67 -->
<g id="edge67" class="edge"><title>33&#45;&gt;67</title>
<path fill="none" stroke="black" d="M2110.87,-74.937C2111.97,-66.9865 2113.32,-57.3134 2114.57,-48.3127"/>
<polygon fill="black" stroke="black" points="2118.06,-48.5856 2115.97,-38.1992 2111.13,-47.6226 2118.06,-48.5856"/>
</g>
<!-- 68 -->
<g id="node69" class="node"><title>68</title>
<path fill="#f6d3ff" stroke="black" d="M2251.5,-38C2251.5,-38 2213.5,-38 2213.5,-38 2207.5,-38 2201.5,-32 2201.5,-26 2201.5,-26 2201.5,-12 2201.5,-12 2201.5,-6 2207.5,-0 2213.5,-0 2213.5,-0 2251.5,-0 2251.5,-0 2257.5,-0 2263.5,-6 2263.5,-12 2263.5,-12 2263.5,-26 2263.5,-26 2263.5,-32 2257.5,-38 2251.5,-38"/>
<text text-anchor="middle" x="2232.5" y="-22.8" font-family="Times,serif" font-size="14.00">forward</text>
<text text-anchor="middle" x="2232.5" y="-7.8" font-family="Times,serif" font-size="14.00">DB2/C3</text>
</g>
<!-- 34&#45;&gt;68 -->
<g id="edge68" class="edge"><title>34&#45;&gt;68</title>
<path fill="none" stroke="black" d="M2258.67,-73.8314C2254.8,-65.8771 2250.18,-56.369 2245.9,-47.5723"/>
<polygon fill="black" stroke="black" points="2248.97,-45.8768 2241.45,-38.4133 2242.68,-48.9371 2248.97,-45.8768"/>
</g>
<!-- 69 -->
<g id="node70" class="node"><title>69</title>
<path fill="#debfe6" stroke="black" d="M2329.5,-38C2329.5,-38 2293.5,-38 2293.5,-38 2287.5,-38 2281.5,-32 2281.5,-26 2281.5,-26 2281.5,-12 2281.5,-12 2281.5,-6 2287.5,-0 2293.5,-0 2293.5,-0 2329.5,-0 2329.5,-0 2335.5,-0 2341.5,-6 2341.5,-12 2341.5,-12 2341.5,-26 2341.5,-26 2341.5,-32 2335.5,-38 2329.5,-38"/>
<text text-anchor="middle" x="2311.5" y="-22.8" font-family="Times,serif" font-size="14.00">merge</text>
<text text-anchor="middle" x="2311.5" y="-7.8" font-family="Times,serif" font-size="14.00">EB1/C4</text>
</g>
<!-- 34&#45;&gt;69 -->
<g id="edge69" class="edge"><title>34&#45;&gt;69</title>
<path fill="none" stroke="black" d="M2278.6,-73.8314C2283.57,-65.7079 2289.52,-55.9637 2294.99,-47.0118"/>
<polygon fill="black" stroke="black" points="2298.02,-48.7712 2300.25,-38.4133 2292.05,-45.121 2298.02,-48.7712"/>
</g>
<!-- 70 -->
<g id="node71" class="node"><title>70</title>
<path fill="#f6d3ff" stroke="black" d="M2443.5,-38C2443.5,-38 2405.5,-38 2405.5,-38 2399.5,-38 2393.5,-32 2393.5,-26 2393.5,-26 2393.5,-12 2393.5,-12 2393.5,-6 2399.5,-0 2405.5,-0 2405.5,-0 2443.5,-0 2443.5,-0 2449.5,-0 2455.5,-6 2455.5,-12 2455.5,-12 2455.5,-26 2455.5,-26 2455.5,-32 2449.5,-38 2443.5,-38"/>
<text text-anchor="middle" x="2424.5" y="-22.8" font-family="Times,serif" font-size="14.00">forward</text>
<text text-anchor="middle" x="2424.5" y="-7.8" font-family="Times,serif" font-size="14.00">DB1/C0</text>
</g>
<!-- 35&#45;&gt;70 -->
<g id="edge70" class="edge"><title>35&#45;&gt;70</title>
<path fill="none" stroke="black" d="M2426.03,-74.937C2425.81,-66.9865 2425.54,-57.3134 2425.29,-48.3127"/>
<polygon fill="black" stroke="black" points="2428.78,-48.0981 2425.01,-38.1992 2421.78,-48.2925 2428.78,-48.0981"/>
</g>
<!-- 71 -->
<g id="node72" class="node"><title>71</title>
<path fill="#f6d3ff" stroke="black" d="M2523.5,-38C2523.5,-38 2485.5,-38 2485.5,-38 2479.5,-38 2473.5,-32 2473.5,-26 2473.5,-26 2473.5,-12 2473.5,-12 2473.5,-6 2479.5,-0 2485.5,-0 2485.5,-0 2523.5,-0 2523.5,-0 2529.5,-0 2535.5,-6 2535.5,-12 2535.5,-12 2535.5,-26 2535.5,-26 2535.5,-32 2529.5,-38 2523.5,-38"/>
<text text-anchor="middle" x="2504.5" y="-22.8" font-family="Times,serif" font-size="14.00">forward</text>
<text text-anchor="middle" x="2504.5" y="-7.8" font-family="Times,serif" font-size="14.00">DB1/C1</text>
</g>
<!-- 36&#45;&gt;71 -->
<g id="edge71" class="edge"><title>36&#45;&gt;71</title>
<path fill="none" stroke="black" d="M2502.97,-74.937C2503.19,-66.9865 2503.46,-57.3134 2503.71,-48.3127"/>
<polygon fill="black" stroke="black" points="2507.22,-48.2925 2503.99,-38.1992 2500.22,-48.0981 2507.22,-48.2925"/>
</g>
<!-- 72 -->
<g id="node73" class="node"><title>72</title>
<path fill="#f6d3ff" stroke="black" d="M2620.5,-38C2620.5,-38 2582.5,-38 2582.5,-38 2576.5,-38 2570.5,-32 2570.5,-26 2570.5,-26 2570.5,-12 2570.5,-12 2570.5,-6 2576.5,-0 2582.5,-0 2582.5,-0 2620.5,-0 2620.5,-0 2626.5,-0 2632.5,-6 2632.5,-12 2632.5,-12 2632.5,-26 2632.5,-26 2632.5,-32 2626.5,-38 2620.5,-38"/>
<text text-anchor="middle" x="2601.5" y="-22.8" font-family="Times,serif" font-size="14.00">forward</text>
<text text-anchor="middle" x="2601.5" y="-7.8" font-family="Times,serif" font-size="14.00">DB1/C2</text>
</g>
<!-- 37&#45;&gt;72 -->
<g id="edge72" class="edge"><title>37&#45;&gt;72</title>
<path fill="none" stroke="black" d="M2617.95,-73.8314C2615.57,-66.0463 2612.74,-56.7729 2610.1,-48.1347"/>
<polygon fill="black" stroke="black" points="2613.4,-46.954 2607.13,-38.4133 2606.7,-48.9996 2613.4,-46.954"/>
</g>
<!-- 73 -->
<g id="node74" class="node"><title>73</title>
<path fill="#f6d3ff" stroke="black" d="M2700.5,-38C2700.5,-38 2662.5,-38 2662.5,-38 2656.5,-38 2650.5,-32 2650.5,-26 2650.5,-26 2650.5,-12 2650.5,-12 2650.5,-6 2656.5,-0 2662.5,-0 2662.5,-0 2700.5,-0 2700.5,-0 2706.5,-0 2712.5,-6 2712.5,-12 2712.5,-12 2712.5,-26 2712.5,-26 2712.5,-32 2706.5,-38 2700.5,-38"/>
<text text-anchor="middle" x="2681.5" y="-22.8" font-family="Times,serif" font-size="14.00">forward</text>
<text text-anchor="middle" x="2681.5" y="-7.8" font-family="Times,serif" font-size="14.00">DB1/C3</text>
</g>
<!-- 38&#45;&gt;73 -->
<g id="edge73" class="edge"><title>38&#45;&gt;73</title>
<path fill="none" stroke="black" d="M2736.44,-74.937C2727.62,-66.1223 2716.69,-55.1902 2706.9,-45.4047"/>
<polygon fill="black" stroke="black" points="2709.25,-42.7954 2699.7,-38.1992 2704.3,-47.7451 2709.25,-42.7954"/>
</g>
<!-- 74 -->
<g id="node75" class="node"><title>74</title>
<path fill="#debfe6" stroke="black" d="M2778.5,-38C2778.5,-38 2742.5,-38 2742.5,-38 2736.5,-38 2730.5,-32 2730.5,-26 2730.5,-26 2730.5,-12 2730.5,-12 2730.5,-6 2736.5,-0 2742.5,-0 2742.5,-0 2778.5,-0 2778.5,-0 2784.5,-0 2790.5,-6 2790.5,-12 2790.5,-12 2790.5,-26 2790.5,-26 2790.5,-32 2784.5,-38 2778.5,-38"/>
<text text-anchor="middle" x="2760.5" y="-22.8" font-family="Times,serif" font-size="14.00">merge</text>
<text text-anchor="middle" x="2760.5" y="-7.8" font-family="Times,serif" font-size="14.00">EB0/C4</text>
</g>
<!-- 38&#45;&gt;74 -->
<g id="edge74" class="edge"><title>38&#45;&gt;74</title>
<path fill="none" stroke="black" d="M2755.16,-74.937C2755.93,-66.9865 2756.87,-57.3134 2757.75,-48.3127"/>
<polygon fill="black" stroke="black" points="2761.25,-48.4909 2758.73,-38.1992 2754.28,-47.8135 2761.25,-48.4909"/>
</g>
<!-- 75 -->
<g id="node76" class="node"><title>75</title>
<path fill="#f6d3ff" stroke="black" d="M2858.5,-38C2858.5,-38 2820.5,-38 2820.5,-38 2814.5,-38 2808.5,-32 2808.5,-26 2808.5,-26 2808.5,-12 2808.5,-12 2808.5,-6 2814.5,-0 2820.5,-0 2820.5,-0 2858.5,-0 2858.5,-0 2864.5,-0 2870.5,-6 2870.5,-12 2870.5,-12 2870.5,-26 2870.5,-26 2870.5,-32 2864.5,-38 2858.5,-38"/>
<text text-anchor="middle" x="2839.5" y="-22.8" font-family="Times,serif" font-size="14.00">forward</text>
<text text-anchor="middle" x="2839.5" y="-7.8" font-family="Times,serif" font-size="14.00">DB0/C0</text>
</g>
<!-- 39&#45;&gt;75 -->
<g id="edge75" class="edge"><title>39&#45;&gt;75</title>
<path fill="none" stroke="black" d="M2831.87,-74.937C2832.97,-66.9865 2834.32,-57.3134 2835.57,-48.3127"/>
<polygon fill="black" stroke="black" points="2839.06,-48.5856 2836.97,-38.1992 2832.13,-47.6226 2839.06,-48.5856"/>
</g>
<!-- 76 -->
<g id="node77" class="node"><title>76</title>
<path fill="#f6d3ff" stroke="black" d="M2967.5,-38C2967.5,-38 2929.5,-38 2929.5,-38 2923.5,-38 2917.5,-32 2917.5,-26 2917.5,-26 2917.5,-12 2917.5,-12 2917.5,-6 2923.5,-0 2929.5,-0 2929.5,-0 2967.5,-0 2967.5,-0 2973.5,-0 2979.5,-6 2979.5,-12 2979.5,-12 2979.5,-26 2979.5,-26 2979.5,-32 2973.5,-38 2967.5,-38"/>
<text text-anchor="middle" x="2948.5" y="-22.8" font-family="Times,serif" font-size="14.00">forward</text>
<text text-anchor="middle" x="2948.5" y="-7.8" font-family="Times,serif" font-size="14.00">DB0/C1</text>
</g>
<!-- 40&#45;&gt;76 -->
<g id="edge76" class="edge"><title>40&#45;&gt;76</title>
<path fill="none" stroke="black" d="M2948.5,-73.8314C2948.5,-66.131 2948.5,-56.9743 2948.5,-48.4166"/>
<polygon fill="black" stroke="black" points="2952,-48.4132 2948.5,-38.4133 2945,-48.4133 2952,-48.4132"/>
</g>
<!-- 77 -->
<g id="node78" class="node"><title>77</title>
<path fill="#f6d3ff" stroke="black" d="M3085.5,-38C3085.5,-38 3047.5,-38 3047.5,-38 3041.5,-38 3035.5,-32 3035.5,-26 3035.5,-26 3035.5,-12 3035.5,-12 3035.5,-6 3041.5,-0 3047.5,-0 3047.5,-0 3085.5,-0 3085.5,-0 3091.5,-0 3097.5,-6 3097.5,-12 3097.5,-12 3097.5,-26 3097.5,-26 3097.5,-32 3091.5,-38 3085.5,-38"/>
<text text-anchor="middle" x="3066.5" y="-22.8" font-family="Times,serif" font-size="14.00">forward</text>
<text text-anchor="middle" x="3066.5" y="-7.8" font-family="Times,serif" font-size="14.00">DB0/C2</text>
</g>
<!-- 41&#45;&gt;77 -->
<g id="edge77" class="edge"><title>41&#45;&gt;77</title>
<path fill="none" stroke="black" d="M3067.26,-74.937C3067.15,-66.9865 3067.02,-57.3134 3066.89,-48.3127"/>
<polygon fill="black" stroke="black" points="3070.39,-48.1496 3066.75,-38.1992 3063.39,-48.2468 3070.39,-48.1496"/>
</g>
<!-- 78 -->
<g id="node79" class="node"><title>78</title>
<path fill="#f6d3ff" stroke="black" d="M3165.5,-38C3165.5,-38 3127.5,-38 3127.5,-38 3121.5,-38 3115.5,-32 3115.5,-26 3115.5,-26 3115.5,-12 3115.5,-12 3115.5,-6 3121.5,-0 3127.5,-0 3127.5,-0 3165.5,-0 3165.5,-0 3171.5,-0 3177.5,-6 3177.5,-12 3177.5,-12 3177.5,-26 3177.5,-26 3177.5,-32 3171.5,-38 3165.5,-38"/>
<text text-anchor="middle" x="3146.5" y="-22.8" font-family="Times,serif" font-size="14.00">forward</text>
<text text-anchor="middle" x="3146.5" y="-7.8" font-family="Times,serif" font-size="14.00">DB0/C3</text>
</g>
<!-- 42&#45;&gt;78 -->
<g id="edge78" class="edge"><title>42&#45;&gt;78</title>
<path fill="none" stroke="black" d="M3144.97,-74.937C3145.19,-66.9865 3145.46,-57.3134 3145.71,-48.3127"/>
<polygon fill="black" stroke="black" points="3149.22,-48.2925 3145.99,-38.1992 3142.22,-48.0981 3149.22,-48.2925"/>
</g>
</g>
</svg>
