<?xml version="1.0" encoding="UTF-8" standalone="no"?>
<!DOCTYPE svg PUBLIC "-//W3C//DTD SVG 1.1//EN"
 "http://www.w3.org/Graphics/SVG/1.1/DTD/svg11.dtd">
<!-- Generated by graphviz version 2.38.0 (20140413.2041)
 -->
<!-- Title: %3 Pages: 1 -->
<svg width="2897pt" height="432pt"
 viewBox="0.00 0.00 2897.00 432.00" xmlns="http://www.w3.org/2000/svg" xmlns:xlink="http://www.w3.org/1999/xlink">
<g id="graph0" class="graph" transform="scale(1 1) rotate(0) translate(4 428)">
<title>%3</title>
<polygon fill="none" stroke="none" points="-4,4 -4,-428 2893,-428 2893,4 -4,4"/>
<!-- 0 -->
<g id="node1" class="node"><title>0</title>
<path fill="#ffd3d3" stroke="black" d="M1074.5,-424C1074.5,-424 794.5,-424 794.5,-424 788.5,-424 782.5,-418 782.5,-412 782.5,-412 782.5,-383 782.5,-383 782.5,-377 788.5,-371 794.5,-371 794.5,-371 1074.5,-371 1074.5,-371 1080.5,-371 1086.5,-377 1086.5,-383 1086.5,-383 1086.5,-412 1086.5,-412 1086.5,-418 1080.5,-424 1074.5,-424"/>
<text text-anchor="middle" x="934.5" y="-408.8" font-family="Times,serif" font-size="14.00">net</text>
<text text-anchor="middle" x="934.5" y="-393.8" font-family="Times,serif" font-size="14.00">log lambda1: &#45;11.000000 &#160;&#160;log lambda2: &#45;11.000000</text>
<text text-anchor="middle" x="934.5" y="-378.8" font-family="Times,serif" font-size="14.00">n kernels: 17 &#160;&#160;pooling type: 0</text>
</g>
<!-- 1 -->
<g id="node2" class="node"><title>1</title>
<path fill="#f6ffd3" stroke="black" d="M779,-335C779,-335 718,-335 718,-335 712,-335 706,-329 706,-323 706,-323 706,-309 706,-309 706,-303 712,-297 718,-297 718,-297 779,-297 779,-297 785,-297 791,-303 791,-309 791,-309 791,-323 791,-323 791,-329 785,-335 779,-335"/>
<text text-anchor="middle" x="748.5" y="-319.8" font-family="Times,serif" font-size="14.00">encoder</text>
<text text-anchor="middle" x="748.5" y="-304.8" font-family="Times,serif" font-size="14.00">n kernels: &#45;1</text>
</g>
<!-- 0&#45;&gt;1 -->
<g id="edge1" class="edge"><title>0&#45;&gt;1</title>
<path fill="none" stroke="black" d="M874.625,-370.908C850.637,-360.655 823.266,-348.957 800.167,-339.084"/>
<polygon fill="black" stroke="black" points="801.454,-335.827 790.883,-335.115 798.702,-342.264 801.454,-335.827"/>
</g>
<!-- 2 -->
<g id="node3" class="node"><title>2</title>
<path fill="#f6ffd3" stroke="black" d="M1149.5,-335C1149.5,-335 1093.5,-335 1093.5,-335 1087.5,-335 1081.5,-329 1081.5,-323 1081.5,-323 1081.5,-309 1081.5,-309 1081.5,-303 1087.5,-297 1093.5,-297 1093.5,-297 1149.5,-297 1149.5,-297 1155.5,-297 1161.5,-303 1161.5,-309 1161.5,-309 1161.5,-323 1161.5,-323 1161.5,-329 1155.5,-335 1149.5,-335"/>
<text text-anchor="middle" x="1121.5" y="-319.8" font-family="Times,serif" font-size="14.00">decoder</text>
<text text-anchor="middle" x="1121.5" y="-304.8" font-family="Times,serif" font-size="14.00">n kernels: 1</text>
</g>
<!-- 0&#45;&gt;2 -->
<g id="edge2" class="edge"><title>0&#45;&gt;2</title>
<path fill="none" stroke="black" d="M994.697,-370.908C1019.66,-360.296 1048.26,-348.135 1071.98,-338.053"/>
<polygon fill="black" stroke="black" points="1073.65,-341.147 1081.48,-334.014 1070.91,-334.705 1073.65,-341.147"/>
</g>
<!-- 3 -->
<g id="node4" class="node"><title>3</title>
<path fill="#d3ffe4" stroke="black" d="M538,-261C538,-261 413,-261 413,-261 407,-261 401,-255 401,-249 401,-249 401,-235 401,-235 401,-229 407,-223 413,-223 413,-223 538,-223 538,-223 544,-223 550,-229 550,-235 550,-235 550,-249 550,-249 550,-255 544,-261 538,-261"/>
<text text-anchor="middle" x="475.5" y="-245.8" font-family="Times,serif" font-size="14.00">encode block 0</text>
<text text-anchor="middle" x="475.5" y="-230.8" font-family="Times,serif" font-size="14.00">log gamma1: &#45;0.764121</text>
</g>
<!-- 1&#45;&gt;3 -->
<g id="edge3" class="edge"><title>1&#45;&gt;3</title>
<path fill="none" stroke="black" d="M705.844,-303.75C665.213,-293.034 603.082,-276.648 553.582,-263.593"/>
<polygon fill="black" stroke="black" points="554.423,-260.195 543.861,-261.029 552.638,-266.964 554.423,-260.195"/>
</g>
<!-- 4 -->
<g id="node5" class="node"><title>4</title>
<path fill="#d3ffe4" stroke="black" d="M1199,-261C1199,-261 1044,-261 1044,-261 1038,-261 1032,-255 1032,-249 1032,-249 1032,-235 1032,-235 1032,-229 1038,-223 1044,-223 1044,-223 1199,-223 1199,-223 1205,-223 1211,-229 1211,-235 1211,-235 1211,-249 1211,-249 1211,-255 1205,-261 1199,-261"/>
<text text-anchor="middle" x="1121.5" y="-245.8" font-family="Times,serif" font-size="14.00">decode block 1</text>
<text text-anchor="middle" x="1121.5" y="-230.8" font-family="Times,serif" font-size="14.00">n kernels: 10 &#160;&#160;spatial scale: 1</text>
</g>
<!-- 2&#45;&gt;4 -->
<g id="edge4" class="edge"><title>2&#45;&gt;4</title>
<path fill="none" stroke="black" d="M1121.5,-296.831C1121.5,-289.131 1121.5,-279.974 1121.5,-271.417"/>
<polygon fill="black" stroke="black" points="1125,-271.413 1121.5,-261.413 1118,-271.413 1125,-271.413"/>
</g>
<!-- 5 -->
<g id="node6" class="node"><title>5</title>
<path fill="#bfe6cf" stroke="black" d="M2307.5,-261C2307.5,-261 2187.5,-261 2187.5,-261 2181.5,-261 2175.5,-255 2175.5,-249 2175.5,-249 2175.5,-235 2175.5,-235 2175.5,-229 2181.5,-223 2187.5,-223 2187.5,-223 2307.5,-223 2307.5,-223 2313.5,-223 2319.5,-229 2319.5,-235 2319.5,-235 2319.5,-249 2319.5,-249 2319.5,-255 2313.5,-261 2307.5,-261"/>
<text text-anchor="middle" x="2247.5" y="-245.8" font-family="Times,serif" font-size="14.00">decode block 0</text>
<text text-anchor="middle" x="2247.5" y="-230.8" font-family="Times,serif" font-size="14.00">log gamma2: 0.163043</text>
</g>
<!-- 2&#45;&gt;5 -->
<g id="edge5" class="edge"><title>2&#45;&gt;5</title>
<path fill="none" stroke="black" d="M1161.57,-312.437C1324.78,-302.001 1941.34,-262.577 2165.44,-248.247"/>
<polygon fill="black" stroke="black" points="2165.74,-251.736 2175.49,-247.604 2165.29,-244.75 2165.74,-251.736"/>
</g>
<!-- 6 -->
<g id="node7" class="node"><title>6</title>
<path fill="#d3e4ff" stroke="black" d="M277.5,-179.5C277.5,-179.5 77.5,-179.5 77.5,-179.5 71.5,-179.5 65.5,-173.5 65.5,-167.5 65.5,-167.5 65.5,-153.5 65.5,-153.5 65.5,-147.5 71.5,-141.5 77.5,-141.5 77.5,-141.5 277.5,-141.5 277.5,-141.5 283.5,-141.5 289.5,-147.5 289.5,-153.5 289.5,-153.5 289.5,-167.5 289.5,-167.5 289.5,-173.5 283.5,-179.5 277.5,-179.5"/>
<text text-anchor="middle" x="177.5" y="-164.3" font-family="Times,serif" font-size="14.00">comp 0</text>
<text text-anchor="middle" x="177.5" y="-149.3" font-family="Times,serif" font-size="14.00">log gamma2: &#45;0.557714 &#160;&#160;n kernels: 4</text>
</g>
<!-- 3&#45;&gt;6 -->
<g id="edge6" class="edge"><title>3&#45;&gt;6</title>
<path fill="none" stroke="black" d="M407.879,-222.96C362.428,-210.835 302.405,-194.822 255.02,-182.181"/>
<polygon fill="black" stroke="black" points="255.675,-178.733 245.111,-179.537 253.871,-185.497 255.675,-178.733"/>
</g>
<!-- 7 -->
<g id="node8" class="node"><title>7</title>
<path fill="#bfcfe6" stroke="black" d="M607,-179.5C607,-179.5 344,-179.5 344,-179.5 338,-179.5 332,-173.5 332,-167.5 332,-167.5 332,-153.5 332,-153.5 332,-147.5 338,-141.5 344,-141.5 344,-141.5 607,-141.5 607,-141.5 613,-141.5 619,-147.5 619,-153.5 619,-153.5 619,-167.5 619,-167.5 619,-173.5 613,-179.5 607,-179.5"/>
<text text-anchor="middle" x="475.5" y="-164.3" font-family="Times,serif" font-size="14.00">comp 1</text>
<text text-anchor="middle" x="475.5" y="-149.3" font-family="Times,serif" font-size="14.00">log gamma1: &#45;0.872221 &#160;&#160;log gamma2: 1.491441</text>
</g>
<!-- 3&#45;&gt;7 -->
<g id="edge7" class="edge"><title>3&#45;&gt;7</title>
<path fill="none" stroke="black" d="M475.5,-222.96C475.5,-213.17 475.5,-200.845 475.5,-189.807"/>
<polygon fill="black" stroke="black" points="479,-189.744 475.5,-179.744 472,-189.744 479,-189.744"/>
</g>
<!-- 8 -->
<g id="node9" class="node"><title>8</title>
<path fill="#d3e4ff" stroke="black" d="M896.5,-178.5C896.5,-178.5 862.5,-178.5 862.5,-178.5 856.5,-178.5 850.5,-172.5 850.5,-166.5 850.5,-166.5 850.5,-154.5 850.5,-154.5 850.5,-148.5 856.5,-142.5 862.5,-142.5 862.5,-142.5 896.5,-142.5 896.5,-142.5 902.5,-142.5 908.5,-148.5 908.5,-154.5 908.5,-154.5 908.5,-166.5 908.5,-166.5 908.5,-172.5 902.5,-178.5 896.5,-178.5"/>
<text text-anchor="middle" x="879.5" y="-156.8" font-family="Times,serif" font-size="14.00">comp 0</text>
</g>
<!-- 4&#45;&gt;8 -->
<g id="edge8" class="edge"><title>4&#45;&gt;8</title>
<path fill="none" stroke="black" d="M1066.59,-222.96C1021.33,-208.094 958.292,-187.384 918.188,-174.209"/>
<polygon fill="black" stroke="black" points="919.103,-170.826 908.511,-171.03 916.919,-177.477 919.103,-170.826"/>
</g>
<!-- 9 -->
<g id="node10" class="node"><title>9</title>
<path fill="#bfcfe6" stroke="black" d="M1224.5,-179.5C1224.5,-179.5 1018.5,-179.5 1018.5,-179.5 1012.5,-179.5 1006.5,-173.5 1006.5,-167.5 1006.5,-167.5 1006.5,-153.5 1006.5,-153.5 1006.5,-147.5 1012.5,-141.5 1018.5,-141.5 1018.5,-141.5 1224.5,-141.5 1224.5,-141.5 1230.5,-141.5 1236.5,-147.5 1236.5,-153.5 1236.5,-153.5 1236.5,-167.5 1236.5,-167.5 1236.5,-173.5 1230.5,-179.5 1224.5,-179.5"/>
<text text-anchor="middle" x="1121.5" y="-164.3" font-family="Times,serif" font-size="14.00">comp 1</text>
<text text-anchor="middle" x="1121.5" y="-149.3" font-family="Times,serif" font-size="14.00">log gamma1: 0.661307 &#160;&#160;n kernels: &#45;12</text>
</g>
<!-- 4&#45;&gt;9 -->
<g id="edge9" class="edge"><title>4&#45;&gt;9</title>
<path fill="none" stroke="black" d="M1121.5,-222.96C1121.5,-213.17 1121.5,-200.845 1121.5,-189.807"/>
<polygon fill="black" stroke="black" points="1125,-189.744 1121.5,-179.744 1118,-189.744 1125,-189.744"/>
</g>
<!-- 10 -->
<g id="node11" class="node"><title>10</title>
<path fill="#abb9ce" stroke="black" d="M1514,-179.5C1514,-179.5 1303,-179.5 1303,-179.5 1297,-179.5 1291,-173.5 1291,-167.5 1291,-167.5 1291,-153.5 1291,-153.5 1291,-147.5 1297,-141.5 1303,-141.5 1303,-141.5 1514,-141.5 1514,-141.5 1520,-141.5 1526,-147.5 1526,-153.5 1526,-153.5 1526,-167.5 1526,-167.5 1526,-173.5 1520,-179.5 1514,-179.5"/>
<text text-anchor="middle" x="1408.5" y="-164.3" font-family="Times,serif" font-size="14.00">comp 2</text>
<text text-anchor="middle" x="1408.5" y="-149.3" font-family="Times,serif" font-size="14.00">log gamma2: &#45;0.557714 &#160;&#160;n kernels: &#45;12</text>
</g>
<!-- 4&#45;&gt;10 -->
<g id="edge10" class="edge"><title>4&#45;&gt;10</title>
<path fill="none" stroke="black" d="M1186.62,-222.96C1230.23,-210.882 1287.76,-194.945 1333.31,-182.327"/>
<polygon fill="black" stroke="black" points="1334.43,-185.648 1343.14,-179.606 1332.57,-178.902 1334.43,-185.648"/>
</g>
<!-- 11 -->
<g id="node12" class="node"><title>11</title>
<path fill="#d3e4ff" stroke="black" d="M2224.5,-187C2224.5,-187 1956.5,-187 1956.5,-187 1950.5,-187 1944.5,-181 1944.5,-175 1944.5,-175 1944.5,-146 1944.5,-146 1944.5,-140 1950.5,-134 1956.5,-134 1956.5,-134 2224.5,-134 2224.5,-134 2230.5,-134 2236.5,-140 2236.5,-146 2236.5,-146 2236.5,-175 2236.5,-175 2236.5,-181 2230.5,-187 2224.5,-187"/>
<text text-anchor="middle" x="2090.5" y="-171.8" font-family="Times,serif" font-size="14.00">comp 0</text>
<text text-anchor="middle" x="2090.5" y="-156.8" font-family="Times,serif" font-size="14.00">log gamma1: &#45;1.558795 &#160;&#160;log gamma2: &#45;0.132925</text>
<text text-anchor="middle" x="2090.5" y="-141.8" font-family="Times,serif" font-size="14.00">n kernels: 11</text>
</g>
<!-- 5&#45;&gt;11 -->
<g id="edge11" class="edge"><title>5&#45;&gt;11</title>
<path fill="none" stroke="black" d="M2211.87,-222.96C2193.59,-213.702 2170.83,-202.177 2149.98,-191.617"/>
<polygon fill="black" stroke="black" points="2151.37,-188.398 2140.86,-187.003 2148.2,-194.643 2151.37,-188.398"/>
</g>
<!-- 12 -->
<g id="node13" class="node"><title>12</title>
<path fill="#bfcfe6" stroke="black" d="M2537,-187C2537,-187 2274,-187 2274,-187 2268,-187 2262,-181 2262,-175 2262,-175 2262,-146 2262,-146 2262,-140 2268,-134 2274,-134 2274,-134 2537,-134 2537,-134 2543,-134 2549,-140 2549,-146 2549,-146 2549,-175 2549,-175 2549,-181 2543,-187 2537,-187"/>
<text text-anchor="middle" x="2405.5" y="-171.8" font-family="Times,serif" font-size="14.00">comp 1</text>
<text text-anchor="middle" x="2405.5" y="-156.8" font-family="Times,serif" font-size="14.00">log gamma1: &#45;0.877093 &#160;&#160;log gamma2: 1.105759</text>
<text text-anchor="middle" x="2405.5" y="-141.8" font-family="Times,serif" font-size="14.00">n kernels: 13</text>
</g>
<!-- 5&#45;&gt;12 -->
<g id="edge12" class="edge"><title>5&#45;&gt;12</title>
<path fill="none" stroke="black" d="M2283.35,-222.96C2301.75,-213.702 2324.66,-202.177 2345.64,-191.617"/>
<polygon fill="black" stroke="black" points="2347.46,-194.624 2354.82,-187.003 2344.31,-188.371 2347.46,-194.624"/>
</g>
<!-- 13 -->
<g id="node14" class="node"><title>13</title>
<path fill="#abb9ce" stroke="black" d="M2858,-179.5C2858,-179.5 2595,-179.5 2595,-179.5 2589,-179.5 2583,-173.5 2583,-167.5 2583,-167.5 2583,-153.5 2583,-153.5 2583,-147.5 2589,-141.5 2595,-141.5 2595,-141.5 2858,-141.5 2858,-141.5 2864,-141.5 2870,-147.5 2870,-153.5 2870,-153.5 2870,-167.5 2870,-167.5 2870,-173.5 2864,-179.5 2858,-179.5"/>
<text text-anchor="middle" x="2726.5" y="-164.3" font-family="Times,serif" font-size="14.00">comp 2</text>
<text text-anchor="middle" x="2726.5" y="-149.3" font-family="Times,serif" font-size="14.00">log gamma1: &#45;1.516129 &#160;&#160;log gamma2: 1.030129</text>
</g>
<!-- 5&#45;&gt;13 -->
<g id="edge13" class="edge"><title>5&#45;&gt;13</title>
<path fill="none" stroke="black" d="M2319.73,-229.012C2395.93,-216.365 2517.26,-196.228 2607.6,-181.233"/>
<polygon fill="black" stroke="black" points="2608.34,-184.659 2617.63,-179.569 2607.19,-177.754 2608.34,-184.659"/>
</g>
<!-- 14 -->
<g id="node15" class="node"><title>14</title>
<path fill="#f6d3ff" stroke="black" d="M293,-98C293,-98 12,-98 12,-98 6,-98 0,-92 0,-86 0,-86 0,-12 0,-12 0,-6 6,-0 12,-0 12,-0 293,-0 293,-0 299,-0 305,-6 305,-12 305,-12 305,-86 305,-86 305,-92 299,-98 293,-98"/>
<text text-anchor="middle" x="152.5" y="-82.8" font-family="Times,serif" font-size="14.00">forward</text>
<text text-anchor="middle" x="152.5" y="-67.8" font-family="Times,serif" font-size="14.00">input</text>
<text text-anchor="middle" x="152.5" y="-52.8" font-family="Times,serif" font-size="14.00">dilation rate: 1 &#160;&#160;k width: 3</text>
<text text-anchor="middle" x="152.5" y="-37.8" font-family="Times,serif" font-size="14.00">log gamma1: &#45;11.000000 &#160;&#160;log gamma2: &#45;11.000000</text>
<text text-anchor="middle" x="152.5" y="-22.8" font-family="Times,serif" font-size="14.00">log lambda1: &#45;11.000000 &#160;&#160;log lambda2: &#45;11.000000</text>
<text text-anchor="middle" x="152.5" y="-7.8" font-family="Times,serif" font-size="14.00">n kernels: 64</text>
</g>
<!-- 6&#45;&gt;14 -->
<g id="edge14" class="edge"><title>6&#45;&gt;14</title>
<path fill="none" stroke="black" d="M173.372,-141.418C171.27,-132.212 168.583,-120.445 165.843,-108.441"/>
<polygon fill="black" stroke="black" points="169.177,-107.322 163.539,-98.352 162.353,-108.88 169.177,-107.322"/>
</g>
<!-- 15 -->
<g id="node16" class="node"><title>15</title>
<path fill="#f6d3ff" stroke="black" d="M616,-98C616,-98 335,-98 335,-98 329,-98 323,-92 323,-86 323,-86 323,-12 323,-12 323,-6 329,-0 335,-0 335,-0 616,-0 616,-0 622,-0 628,-6 628,-12 628,-12 628,-86 628,-86 628,-92 622,-98 616,-98"/>
<text text-anchor="middle" x="475.5" y="-82.8" font-family="Times,serif" font-size="14.00">forward</text>
<text text-anchor="middle" x="475.5" y="-67.8" font-family="Times,serif" font-size="14.00">EB0/C0</text>
<text text-anchor="middle" x="475.5" y="-52.8" font-family="Times,serif" font-size="14.00">dilation rate: 1 &#160;&#160;k width: 3</text>
<text text-anchor="middle" x="475.5" y="-37.8" font-family="Times,serif" font-size="14.00">log gamma1: &#45;11.000000 &#160;&#160;log gamma2: &#45;11.000000</text>
<text text-anchor="middle" x="475.5" y="-22.8" font-family="Times,serif" font-size="14.00">log lambda1: &#45;11.000000 &#160;&#160;log lambda2: &#45;11.000000</text>
<text text-anchor="middle" x="475.5" y="-7.8" font-family="Times,serif" font-size="14.00">n kernels: 64</text>
</g>
<!-- 7&#45;&gt;15 -->
<g id="edge15" class="edge"><title>7&#45;&gt;15</title>
<path fill="none" stroke="black" d="M475.5,-141.418C475.5,-132.212 475.5,-120.445 475.5,-108.441"/>
<polygon fill="black" stroke="black" points="479,-108.352 475.5,-98.352 472,-108.352 479,-108.352"/>
</g>
<!-- 16 -->
<g id="node17" class="node"><title>16</title>
<path fill="#f6d3ff" stroke="black" d="M939,-98C939,-98 658,-98 658,-98 652,-98 646,-92 646,-86 646,-86 646,-12 646,-12 646,-6 652,-0 658,-0 658,-0 939,-0 939,-0 945,-0 951,-6 951,-12 951,-12 951,-86 951,-86 951,-92 945,-98 939,-98"/>
<text text-anchor="middle" x="798.5" y="-82.8" font-family="Times,serif" font-size="14.00">forward</text>
<text text-anchor="middle" x="798.5" y="-67.8" font-family="Times,serif" font-size="14.00">EB0/C1</text>
<text text-anchor="middle" x="798.5" y="-52.8" font-family="Times,serif" font-size="14.00">dilation rate: 1 &#160;&#160;k width: 3</text>
<text text-anchor="middle" x="798.5" y="-37.8" font-family="Times,serif" font-size="14.00">log gamma1: &#45;11.000000 &#160;&#160;log gamma2: &#45;11.000000</text>
<text text-anchor="middle" x="798.5" y="-22.8" font-family="Times,serif" font-size="14.00">log lambda1: &#45;11.000000 &#160;&#160;log lambda2: &#45;11.000000</text>
<text text-anchor="middle" x="798.5" y="-7.8" font-family="Times,serif" font-size="14.00">n kernels: 64</text>
</g>
<!-- 8&#45;&gt;16 -->
<g id="edge16" class="edge"><title>8&#45;&gt;16</title>
<path fill="none" stroke="black" d="M866.844,-142.391C859.548,-132.528 849.916,-119.507 840.192,-106.361"/>
<polygon fill="black" stroke="black" points="842.907,-104.146 834.146,-98.1876 837.279,-108.309 842.907,-104.146"/>
</g>
<!-- 17 -->
<g id="node18" class="node"><title>17</title>
<path fill="#f6d3ff" stroke="black" d="M1262,-98C1262,-98 981,-98 981,-98 975,-98 969,-92 969,-86 969,-86 969,-12 969,-12 969,-6 975,-0 981,-0 981,-0 1262,-0 1262,-0 1268,-0 1274,-6 1274,-12 1274,-12 1274,-86 1274,-86 1274,-92 1268,-98 1262,-98"/>
<text text-anchor="middle" x="1121.5" y="-82.8" font-family="Times,serif" font-size="14.00">forward</text>
<text text-anchor="middle" x="1121.5" y="-67.8" font-family="Times,serif" font-size="14.00">DB1/C0</text>
<text text-anchor="middle" x="1121.5" y="-52.8" font-family="Times,serif" font-size="14.00">dilation rate: 1 &#160;&#160;k width: 3</text>
<text text-anchor="middle" x="1121.5" y="-37.8" font-family="Times,serif" font-size="14.00">log gamma1: &#45;11.000000 &#160;&#160;log gamma2: &#45;11.000000</text>
<text text-anchor="middle" x="1121.5" y="-22.8" font-family="Times,serif" font-size="14.00">log lambda1: &#45;11.000000 &#160;&#160;log lambda2: &#45;11.000000</text>
<text text-anchor="middle" x="1121.5" y="-7.8" font-family="Times,serif" font-size="14.00">n kernels: 64</text>
</g>
<!-- 9&#45;&gt;17 -->
<g id="edge17" class="edge"><title>9&#45;&gt;17</title>
<path fill="none" stroke="black" d="M1121.5,-141.418C1121.5,-132.212 1121.5,-120.445 1121.5,-108.441"/>
<polygon fill="black" stroke="black" points="1125,-108.352 1121.5,-98.352 1118,-108.352 1125,-108.352"/>
</g>
<!-- 18 -->
<g id="node19" class="node"><title>18</title>
<path fill="#f6d3ff" stroke="black" d="M1585,-98C1585,-98 1304,-98 1304,-98 1298,-98 1292,-92 1292,-86 1292,-86 1292,-12 1292,-12 1292,-6 1298,-0 1304,-0 1304,-0 1585,-0 1585,-0 1591,-0 1597,-6 1597,-12 1597,-12 1597,-86 1597,-86 1597,-92 1591,-98 1585,-98"/>
<text text-anchor="middle" x="1444.5" y="-82.8" font-family="Times,serif" font-size="14.00">forward</text>
<text text-anchor="middle" x="1444.5" y="-67.8" font-family="Times,serif" font-size="14.00">DB1/C1</text>
<text text-anchor="middle" x="1444.5" y="-52.8" font-family="Times,serif" font-size="14.00">dilation rate: 1 &#160;&#160;k width: 3</text>
<text text-anchor="middle" x="1444.5" y="-37.8" font-family="Times,serif" font-size="14.00">log gamma1: &#45;11.000000 &#160;&#160;log gamma2: &#45;11.000000</text>
<text text-anchor="middle" x="1444.5" y="-22.8" font-family="Times,serif" font-size="14.00">log lambda1: &#45;11.000000 &#160;&#160;log lambda2: &#45;11.000000</text>
<text text-anchor="middle" x="1444.5" y="-7.8" font-family="Times,serif" font-size="14.00">n kernels: 64</text>
</g>
<!-- 10&#45;&gt;18 -->
<g id="edge18" class="edge"><title>10&#45;&gt;18</title>
<path fill="none" stroke="black" d="M1414.44,-141.418C1417.5,-132.12 1421.42,-120.209 1425.41,-108.08"/>
<polygon fill="black" stroke="black" points="1428.81,-108.945 1428.6,-98.352 1422.16,-106.759 1428.81,-108.945"/>
</g>
<!-- 19 -->
<g id="node20" class="node"><title>19</title>
<path fill="#f6d3ff" stroke="black" d="M1908,-98C1908,-98 1627,-98 1627,-98 1621,-98 1615,-92 1615,-86 1615,-86 1615,-12 1615,-12 1615,-6 1621,-0 1627,-0 1627,-0 1908,-0 1908,-0 1914,-0 1920,-6 1920,-12 1920,-12 1920,-86 1920,-86 1920,-92 1914,-98 1908,-98"/>
<text text-anchor="middle" x="1767.5" y="-82.8" font-family="Times,serif" font-size="14.00">forward</text>
<text text-anchor="middle" x="1767.5" y="-67.8" font-family="Times,serif" font-size="14.00">DB1/C2</text>
<text text-anchor="middle" x="1767.5" y="-52.8" font-family="Times,serif" font-size="14.00">dilation rate: 1 &#160;&#160;k width: 3</text>
<text text-anchor="middle" x="1767.5" y="-37.8" font-family="Times,serif" font-size="14.00">log gamma1: &#45;11.000000 &#160;&#160;log gamma2: &#45;11.000000</text>
<text text-anchor="middle" x="1767.5" y="-22.8" font-family="Times,serif" font-size="14.00">log lambda1: &#45;11.000000 &#160;&#160;log lambda2: &#45;11.000000</text>
<text text-anchor="middle" x="1767.5" y="-7.8" font-family="Times,serif" font-size="14.00">n kernels: 64</text>
</g>
<!-- 11&#45;&gt;19 -->
<g id="edge19" class="edge"><title>11&#45;&gt;19</title>
<path fill="none" stroke="black" d="M2015.18,-133.965C1986.42,-124.216 1952.51,-112.719 1919.15,-101.412"/>
<polygon fill="black" stroke="black" points="1919.89,-97.9671 1909.3,-98.0711 1917.65,-104.596 1919.89,-97.9671"/>
</g>
<!-- 20 -->
<g id="node21" class="node"><title>20</title>
<path fill="#debfe6" stroke="black" d="M2231,-98C2231,-98 1950,-98 1950,-98 1944,-98 1938,-92 1938,-86 1938,-86 1938,-12 1938,-12 1938,-6 1944,-0 1950,-0 1950,-0 2231,-0 2231,-0 2237,-0 2243,-6 2243,-12 2243,-12 2243,-86 2243,-86 2243,-92 2237,-98 2231,-98"/>
<text text-anchor="middle" x="2090.5" y="-82.8" font-family="Times,serif" font-size="14.00">merge</text>
<text text-anchor="middle" x="2090.5" y="-67.8" font-family="Times,serif" font-size="14.00">EB0/C1</text>
<text text-anchor="middle" x="2090.5" y="-52.8" font-family="Times,serif" font-size="14.00">dilation rate: 1 &#160;&#160;k width: 3</text>
<text text-anchor="middle" x="2090.5" y="-37.8" font-family="Times,serif" font-size="14.00">log gamma1: &#45;11.000000 &#160;&#160;log gamma2: &#45;11.000000</text>
<text text-anchor="middle" x="2090.5" y="-22.8" font-family="Times,serif" font-size="14.00">log lambda1: &#45;11.000000 &#160;&#160;log lambda2: &#45;11.000000</text>
<text text-anchor="middle" x="2090.5" y="-7.8" font-family="Times,serif" font-size="14.00">n kernels: 64</text>
</g>
<!-- 11&#45;&gt;20 -->
<g id="edge20" class="edge"><title>11&#45;&gt;20</title>
<path fill="none" stroke="black" d="M2090.5,-133.827C2090.5,-126.111 2090.5,-117.31 2090.5,-108.379"/>
<polygon fill="black" stroke="black" points="2094,-108.292 2090.5,-98.2922 2087,-108.292 2094,-108.292"/>
</g>
<!-- 21 -->
<g id="node22" class="node"><title>21</title>
<path fill="#f6d3ff" stroke="black" d="M2554,-98C2554,-98 2273,-98 2273,-98 2267,-98 2261,-92 2261,-86 2261,-86 2261,-12 2261,-12 2261,-6 2267,-0 2273,-0 2273,-0 2554,-0 2554,-0 2560,-0 2566,-6 2566,-12 2566,-12 2566,-86 2566,-86 2566,-92 2560,-98 2554,-98"/>
<text text-anchor="middle" x="2413.5" y="-82.8" font-family="Times,serif" font-size="14.00">forward</text>
<text text-anchor="middle" x="2413.5" y="-67.8" font-family="Times,serif" font-size="14.00">DB0/C0</text>
<text text-anchor="middle" x="2413.5" y="-52.8" font-family="Times,serif" font-size="14.00">dilation rate: 1 &#160;&#160;k width: 3</text>
<text text-anchor="middle" x="2413.5" y="-37.8" font-family="Times,serif" font-size="14.00">log gamma1: &#45;11.000000 &#160;&#160;log gamma2: &#45;11.000000</text>
<text text-anchor="middle" x="2413.5" y="-22.8" font-family="Times,serif" font-size="14.00">log lambda1: &#45;11.000000 &#160;&#160;log lambda2: &#45;11.000000</text>
<text text-anchor="middle" x="2413.5" y="-7.8" font-family="Times,serif" font-size="14.00">n kernels: 64</text>
</g>
<!-- 12&#45;&gt;21 -->
<g id="edge21" class="edge"><title>12&#45;&gt;21</title>
<path fill="none" stroke="black" d="M2407.38,-133.827C2407.94,-126.111 2408.58,-117.31 2409.23,-108.379"/>
<polygon fill="black" stroke="black" points="2412.73,-108.521 2409.97,-98.2922 2405.75,-108.011 2412.73,-108.521"/>
</g>
<!-- 22 -->
<g id="node23" class="node"><title>22</title>
<path fill="#f6d3ff" stroke="black" d="M2877,-98C2877,-98 2596,-98 2596,-98 2590,-98 2584,-92 2584,-86 2584,-86 2584,-12 2584,-12 2584,-6 2590,-0 2596,-0 2596,-0 2877,-0 2877,-0 2883,-0 2889,-6 2889,-12 2889,-12 2889,-86 2889,-86 2889,-92 2883,-98 2877,-98"/>
<text text-anchor="middle" x="2736.5" y="-82.8" font-family="Times,serif" font-size="14.00">forward</text>
<text text-anchor="middle" x="2736.5" y="-67.8" font-family="Times,serif" font-size="14.00">DB0/C1</text>
<text text-anchor="middle" x="2736.5" y="-52.8" font-family="Times,serif" font-size="14.00">dilation rate: 1 &#160;&#160;k width: 3</text>
<text text-anchor="middle" x="2736.5" y="-37.8" font-family="Times,serif" font-size="14.00">log gamma1: &#45;11.000000 &#160;&#160;log gamma2: &#45;11.000000</text>
<text text-anchor="middle" x="2736.5" y="-22.8" font-family="Times,serif" font-size="14.00">log lambda1: &#45;11.000000 &#160;&#160;log lambda2: &#45;11.000000</text>
<text text-anchor="middle" x="2736.5" y="-7.8" font-family="Times,serif" font-size="14.00">n kernels: 64</text>
</g>
<!-- 13&#45;&gt;22 -->
<g id="edge22" class="edge"><title>13&#45;&gt;22</title>
<path fill="none" stroke="black" d="M2728.15,-141.418C2728.99,-132.212 2730.07,-120.445 2731.16,-108.441"/>
<polygon fill="black" stroke="black" points="2734.66,-108.629 2732.08,-98.352 2727.69,-107.992 2734.66,-108.629"/>
</g>
</g>
</svg>
