<?xml version="1.0" encoding="UTF-8" standalone="no"?>
<!DOCTYPE svg PUBLIC "-//W3C//DTD SVG 1.1//EN"
 "http://www.w3.org/Graphics/SVG/1.1/DTD/svg11.dtd">
<!-- Generated by graphviz version 2.38.0 (20140413.2041)
 -->
<!-- Title: %3 Pages: 1 -->
<svg width="1361pt" height="372pt"
 viewBox="0.00 0.00 1360.50 372.00" xmlns="http://www.w3.org/2000/svg" xmlns:xlink="http://www.w3.org/1999/xlink">
<g id="graph0" class="graph" transform="scale(1 1) rotate(0) translate(4 368)">
<title>%3</title>
<polygon fill="none" stroke="none" points="-4,4 -4,-368 1356.5,-368 1356.5,4 -4,4"/>
<!-- 0 -->
<g id="node1" class="node"><title>0</title>
<path fill="#eaebf0" stroke="black" d="M328.5,-364C328.5,-364 75.5,-364 75.5,-364 69.5,-364 63.5,-358 63.5,-352 63.5,-352 63.5,-323 63.5,-323 63.5,-317 69.5,-311 75.5,-311 75.5,-311 328.5,-311 328.5,-311 334.5,-311 340.5,-317 340.5,-323 340.5,-323 340.5,-352 340.5,-352 340.5,-358 334.5,-364 328.5,-364"/>
<text text-anchor="middle" x="202" y="-348.8" font-family="Times,serif" font-size="14.00">Gene graph</text>
<text text-anchor="middle" x="202" y="-333.8" font-family="Times,serif" font-size="14.00">n parameters: ???</text>
<text text-anchor="middle" x="202" y="-318.8" font-family="Times,serif" font-size="14.00">input shape: [500, 500] output shape:[484, 484]</text>
</g>
<!-- 1 -->
<g id="node2" class="node"><title>1</title>
<path fill="#ffd3d3" stroke="black" d="M433.5,-356.5C433.5,-356.5 370.5,-356.5 370.5,-356.5 364.5,-356.5 358.5,-350.5 358.5,-344.5 358.5,-344.5 358.5,-330.5 358.5,-330.5 358.5,-324.5 364.5,-318.5 370.5,-318.5 370.5,-318.5 433.5,-318.5 433.5,-318.5 439.5,-318.5 445.5,-324.5 445.5,-330.5 445.5,-330.5 445.5,-344.5 445.5,-344.5 445.5,-350.5 439.5,-356.5 433.5,-356.5"/>
<text text-anchor="middle" x="402" y="-341.3" font-family="Times,serif" font-size="14.00">net</text>
<text text-anchor="middle" x="402" y="-326.3" font-family="Times,serif" font-size="14.00">n kernels: 76</text>
</g>
<!-- 2 -->
<g id="node3" class="node"><title>2</title>
<path fill="#f6ffd3" stroke="black" d="M280,-275C280,-275 12,-275 12,-275 6,-275 0,-269 0,-263 0,-263 0,-249 0,-249 0,-243 6,-237 12,-237 12,-237 280,-237 280,-237 286,-237 292,-243 292,-249 292,-249 292,-263 292,-263 292,-269 286,-275 280,-275"/>
<text text-anchor="middle" x="146" y="-259.8" font-family="Times,serif" font-size="14.00">encoder</text>
<text text-anchor="middle" x="146" y="-244.8" font-family="Times,serif" font-size="14.00">log gamma1: &#45;1.216945 &#160;&#160;log gamma2: &#45;1.199457</text>
</g>
<!-- 1&#45;&gt;2 -->
<g id="edge1" class="edge"><title>1&#45;&gt;2</title>
<path fill="none" stroke="black" d="M366.763,-318.414C360.909,-315.739 354.842,-313.16 349,-311 313.358,-297.819 273.097,-286.422 237.884,-277.54"/>
<polygon fill="black" stroke="black" points="238.643,-274.122 228.094,-275.102 236.952,-280.914 238.643,-274.122"/>
</g>
<!-- 3 -->
<g id="node4" class="node"><title>3</title>
<path fill="#f6ffd3" stroke="black" d="M462,-275C462,-275 342,-275 342,-275 336,-275 330,-269 330,-263 330,-263 330,-249 330,-249 330,-243 336,-237 342,-237 342,-237 462,-237 462,-237 468,-237 474,-243 474,-249 474,-249 474,-263 474,-263 474,-269 468,-275 462,-275"/>
<text text-anchor="middle" x="402" y="-259.8" font-family="Times,serif" font-size="14.00">decoder</text>
<text text-anchor="middle" x="402" y="-244.8" font-family="Times,serif" font-size="14.00">log gamma2: 0.164053</text>
</g>
<!-- 1&#45;&gt;3 -->
<g id="edge2" class="edge"><title>1&#45;&gt;3</title>
<path fill="none" stroke="black" d="M402,-318.46C402,-308.67 402,-296.345 402,-285.307"/>
<polygon fill="black" stroke="black" points="405.5,-285.244 402,-275.244 398.5,-285.244 405.5,-285.244"/>
</g>
<!-- 20 -->
<g id="node21" class="node"><title>20</title>
<path fill="#f6ffd3" stroke="black" d="M922.5,-275C922.5,-275 859.5,-275 859.5,-275 853.5,-275 847.5,-269 847.5,-263 847.5,-263 847.5,-249 847.5,-249 847.5,-243 853.5,-237 859.5,-237 859.5,-237 922.5,-237 922.5,-237 928.5,-237 934.5,-243 934.5,-249 934.5,-249 934.5,-263 934.5,-263 934.5,-269 928.5,-275 922.5,-275"/>
<text text-anchor="middle" x="891" y="-259.8" font-family="Times,serif" font-size="14.00">aspp</text>
<text text-anchor="middle" x="891" y="-244.8" font-family="Times,serif" font-size="14.00">n kernels: 52</text>
</g>
<!-- 1&#45;&gt;20 -->
<g id="edge19" class="edge"><title>1&#45;&gt;20</title>
<path fill="none" stroke="black" d="M445.826,-329.375C535.598,-314.78 740.121,-281.529 837.52,-265.695"/>
<polygon fill="black" stroke="black" points="838.139,-269.14 847.448,-264.081 837.016,-262.231 838.139,-269.14"/>
</g>
<!-- 4 -->
<g id="node5" class="node"><title>4</title>
<path fill="#d3ffe4" stroke="black" d="M164.5,-192.5C164.5,-192.5 89.5,-192.5 89.5,-192.5 83.5,-192.5 77.5,-186.5 77.5,-180.5 77.5,-180.5 77.5,-168.5 77.5,-168.5 77.5,-162.5 83.5,-156.5 89.5,-156.5 89.5,-156.5 164.5,-156.5 164.5,-156.5 170.5,-156.5 176.5,-162.5 176.5,-168.5 176.5,-168.5 176.5,-180.5 176.5,-180.5 176.5,-186.5 170.5,-192.5 164.5,-192.5"/>
<text text-anchor="middle" x="127" y="-170.8" font-family="Times,serif" font-size="14.00">encode block 0</text>
</g>
<!-- 2&#45;&gt;4 -->
<g id="edge3" class="edge"><title>2&#45;&gt;4</title>
<path fill="none" stroke="black" d="M141.689,-236.96C139.258,-226.788 136.173,-213.881 133.458,-202.523"/>
<polygon fill="black" stroke="black" points="136.828,-201.563 131.099,-192.651 130.019,-203.191 136.828,-201.563"/>
</g>
<!-- 5 -->
<g id="node6" class="node"><title>5</title>
<path fill="#d3ffe4" stroke="black" d="M361.5,-193.5C361.5,-193.5 206.5,-193.5 206.5,-193.5 200.5,-193.5 194.5,-187.5 194.5,-181.5 194.5,-181.5 194.5,-167.5 194.5,-167.5 194.5,-161.5 200.5,-155.5 206.5,-155.5 206.5,-155.5 361.5,-155.5 361.5,-155.5 367.5,-155.5 373.5,-161.5 373.5,-167.5 373.5,-167.5 373.5,-181.5 373.5,-181.5 373.5,-187.5 367.5,-193.5 361.5,-193.5"/>
<text text-anchor="middle" x="284" y="-178.3" font-family="Times,serif" font-size="14.00">decode block 1</text>
<text text-anchor="middle" x="284" y="-163.3" font-family="Times,serif" font-size="14.00">n kernels: 76 &#160;&#160;spatial scale: 1</text>
</g>
<!-- 3&#45;&gt;5 -->
<g id="edge4" class="edge"><title>3&#45;&gt;5</title>
<path fill="none" stroke="black" d="M375.224,-236.96C358.745,-225.858 337.428,-211.496 319.545,-199.448"/>
<polygon fill="black" stroke="black" points="321.328,-196.428 311.079,-193.744 317.416,-202.234 321.328,-196.428"/>
</g>
<!-- 6 -->
<g id="node7" class="node"><title>6</title>
<path fill="#bfe6cf" stroke="black" d="M478.5,-192.5C478.5,-192.5 403.5,-192.5 403.5,-192.5 397.5,-192.5 391.5,-186.5 391.5,-180.5 391.5,-180.5 391.5,-168.5 391.5,-168.5 391.5,-162.5 397.5,-156.5 403.5,-156.5 403.5,-156.5 478.5,-156.5 478.5,-156.5 484.5,-156.5 490.5,-162.5 490.5,-168.5 490.5,-168.5 490.5,-180.5 490.5,-180.5 490.5,-186.5 484.5,-192.5 478.5,-192.5"/>
<text text-anchor="middle" x="441" y="-170.8" font-family="Times,serif" font-size="14.00">decode block 0</text>
</g>
<!-- 3&#45;&gt;6 -->
<g id="edge5" class="edge"><title>3&#45;&gt;6</title>
<path fill="none" stroke="black" d="M410.85,-236.96C415.941,-226.581 422.431,-213.353 428.084,-201.83"/>
<polygon fill="black" stroke="black" points="431.324,-203.17 432.586,-192.651 425.04,-200.087 431.324,-203.17"/>
</g>
<!-- 7 -->
<g id="node8" class="node"><title>7</title>
<path fill="#d3e4ff" stroke="black" d="M67,-111C67,-111 33,-111 33,-111 27,-111 21,-105 21,-99 21,-99 21,-87 21,-87 21,-81 27,-75 33,-75 33,-75 67,-75 67,-75 73,-75 79,-81 79,-87 79,-87 79,-99 79,-99 79,-105 73,-111 67,-111"/>
<text text-anchor="middle" x="50" y="-89.3" font-family="Times,serif" font-size="14.00">comp 0</text>
</g>
<!-- 4&#45;&gt;7 -->
<g id="edge6" class="edge"><title>4&#45;&gt;7</title>
<path fill="none" stroke="black" d="M110.292,-156.25C99.5965,-145.207 85.5551,-130.71 73.7141,-118.484"/>
<polygon fill="black" stroke="black" points="76.1466,-115.965 66.6752,-111.217 71.1184,-120.835 76.1466,-115.965"/>
</g>
<!-- 8 -->
<g id="node9" class="node"><title>8</title>
<path fill="#bfcfe6" stroke="black" d="M144,-111C144,-111 110,-111 110,-111 104,-111 98,-105 98,-99 98,-99 98,-87 98,-87 98,-81 104,-75 110,-75 110,-75 144,-75 144,-75 150,-75 156,-81 156,-87 156,-87 156,-99 156,-99 156,-105 150,-111 144,-111"/>
<text text-anchor="middle" x="127" y="-89.3" font-family="Times,serif" font-size="14.00">comp 1</text>
</g>
<!-- 4&#45;&gt;8 -->
<g id="edge7" class="edge"><title>4&#45;&gt;8</title>
<path fill="none" stroke="black" d="M127,-156.25C127,-146.04 127,-132.878 127,-121.288"/>
<polygon fill="black" stroke="black" points="130.5,-121.217 127,-111.217 123.5,-121.217 130.5,-121.217"/>
</g>
<!-- 9 -->
<g id="node10" class="node"><title>9</title>
<path fill="#d3e4ff" stroke="black" d="M223,-111C223,-111 189,-111 189,-111 183,-111 177,-105 177,-99 177,-99 177,-87 177,-87 177,-81 183,-75 189,-75 189,-75 223,-75 223,-75 229,-75 235,-81 235,-87 235,-87 235,-99 235,-99 235,-105 229,-111 223,-111"/>
<text text-anchor="middle" x="206" y="-89.3" font-family="Times,serif" font-size="14.00">comp 0</text>
</g>
<!-- 5&#45;&gt;9 -->
<g id="edge8" class="edge"><title>5&#45;&gt;9</title>
<path fill="none" stroke="black" d="M266.301,-155.46C255.608,-144.562 241.834,-130.523 230.15,-118.614"/>
<polygon fill="black" stroke="black" points="232.329,-115.838 222.827,-111.151 227.332,-120.74 232.329,-115.838"/>
</g>
<!-- 10 -->
<g id="node11" class="node"><title>10</title>
<path fill="#bfcfe6" stroke="black" d="M301,-111C301,-111 267,-111 267,-111 261,-111 255,-105 255,-99 255,-99 255,-87 255,-87 255,-81 261,-75 267,-75 267,-75 301,-75 301,-75 307,-75 313,-81 313,-87 313,-87 313,-99 313,-99 313,-105 307,-111 301,-111"/>
<text text-anchor="middle" x="284" y="-89.3" font-family="Times,serif" font-size="14.00">comp 1</text>
</g>
<!-- 5&#45;&gt;10 -->
<g id="edge9" class="edge"><title>5&#45;&gt;10</title>
<path fill="none" stroke="black" d="M284,-155.46C284,-145.392 284,-132.644 284,-121.371"/>
<polygon fill="black" stroke="black" points="287.5,-121.151 284,-111.151 280.5,-121.151 287.5,-121.151"/>
</g>
<!-- 11 -->
<g id="node12" class="node"><title>11</title>
<path fill="#d3e4ff" stroke="black" d="M391,-111C391,-111 357,-111 357,-111 351,-111 345,-105 345,-99 345,-99 345,-87 345,-87 345,-81 351,-75 357,-75 357,-75 391,-75 391,-75 397,-75 403,-81 403,-87 403,-87 403,-99 403,-99 403,-105 397,-111 391,-111"/>
<text text-anchor="middle" x="374" y="-89.3" font-family="Times,serif" font-size="14.00">comp 0</text>
</g>
<!-- 6&#45;&gt;11 -->
<g id="edge10" class="edge"><title>6&#45;&gt;11</title>
<path fill="none" stroke="black" d="M426.462,-156.25C417.331,-145.415 405.398,-131.255 395.22,-119.178"/>
<polygon fill="black" stroke="black" points="397.63,-116.608 388.51,-111.217 392.278,-121.119 397.63,-116.608"/>
</g>
<!-- 12 -->
<g id="node13" class="node"><title>12</title>
<path fill="#bfcfe6" stroke="black" d="M467,-111C467,-111 433,-111 433,-111 427,-111 421,-105 421,-99 421,-99 421,-87 421,-87 421,-81 427,-75 433,-75 433,-75 467,-75 467,-75 473,-75 479,-81 479,-87 479,-87 479,-99 479,-99 479,-105 473,-111 467,-111"/>
<text text-anchor="middle" x="450" y="-89.3" font-family="Times,serif" font-size="14.00">comp 1</text>
</g>
<!-- 6&#45;&gt;12 -->
<g id="edge11" class="edge"><title>6&#45;&gt;12</title>
<path fill="none" stroke="black" d="M442.953,-156.25C444.109,-146.04 445.599,-132.878 446.911,-121.288"/>
<polygon fill="black" stroke="black" points="450.404,-121.547 448.051,-111.217 443.448,-120.759 450.404,-121.547"/>
</g>
<!-- 13 -->
<g id="node14" class="node"><title>13</title>
<path fill="#f6d3ff" stroke="black" d="M66.5,-38C66.5,-38 31.5,-38 31.5,-38 25.5,-38 19.5,-32 19.5,-26 19.5,-26 19.5,-12 19.5,-12 19.5,-6 25.5,-0 31.5,-0 31.5,-0 66.5,-0 66.5,-0 72.5,-0 78.5,-6 78.5,-12 78.5,-12 78.5,-26 78.5,-26 78.5,-32 72.5,-38 66.5,-38"/>
<text text-anchor="middle" x="49" y="-22.8" font-family="Times,serif" font-size="14.00">forward</text>
<text text-anchor="middle" x="49" y="-7.8" font-family="Times,serif" font-size="14.00">input</text>
</g>
<!-- 7&#45;&gt;13 -->
<g id="edge12" class="edge"><title>7&#45;&gt;13</title>
<path fill="none" stroke="black" d="M49.763,-74.937C49.6526,-66.9865 49.5182,-57.3134 49.3932,-48.3127"/>
<polygon fill="black" stroke="black" points="52.8914,-48.1496 49.2528,-38.1992 45.8921,-48.2468 52.8914,-48.1496"/>
</g>
<!-- 14 -->
<g id="node15" class="node"><title>14</title>
<path fill="#f6d3ff" stroke="black" d="M145,-38C145,-38 109,-38 109,-38 103,-38 97,-32 97,-26 97,-26 97,-12 97,-12 97,-6 103,-0 109,-0 109,-0 145,-0 145,-0 151,-0 157,-6 157,-12 157,-12 157,-26 157,-26 157,-32 151,-38 145,-38"/>
<text text-anchor="middle" x="127" y="-22.8" font-family="Times,serif" font-size="14.00">forward</text>
<text text-anchor="middle" x="127" y="-7.8" font-family="Times,serif" font-size="14.00">EB0/C0</text>
</g>
<!-- 8&#45;&gt;14 -->
<g id="edge13" class="edge"><title>8&#45;&gt;14</title>
<path fill="none" stroke="black" d="M127,-74.937C127,-66.9865 127,-57.3134 127,-48.3127"/>
<polygon fill="black" stroke="black" points="130.5,-48.1991 127,-38.1992 123.5,-48.1992 130.5,-48.1991"/>
</g>
<!-- 15 -->
<g id="node16" class="node"><title>15</title>
<path fill="#f6d3ff" stroke="black" d="M223,-38C223,-38 187,-38 187,-38 181,-38 175,-32 175,-26 175,-26 175,-12 175,-12 175,-6 181,-0 187,-0 187,-0 223,-0 223,-0 229,-0 235,-6 235,-12 235,-12 235,-26 235,-26 235,-32 229,-38 223,-38"/>
<text text-anchor="middle" x="205" y="-22.8" font-family="Times,serif" font-size="14.00">forward</text>
<text text-anchor="middle" x="205" y="-7.8" font-family="Times,serif" font-size="14.00">EB0/C1</text>
</g>
<!-- 9&#45;&gt;15 -->
<g id="edge14" class="edge"><title>9&#45;&gt;15</title>
<path fill="none" stroke="black" d="M205.763,-74.937C205.653,-66.9865 205.518,-57.3134 205.393,-48.3127"/>
<polygon fill="black" stroke="black" points="208.891,-48.1496 205.253,-38.1992 201.892,-48.2468 208.891,-48.1496"/>
</g>
<!-- 16 -->
<g id="node17" class="node"><title>16</title>
<path fill="#f6d3ff" stroke="black" d="M303,-38C303,-38 265,-38 265,-38 259,-38 253,-32 253,-26 253,-26 253,-12 253,-12 253,-6 259,-0 265,-0 265,-0 303,-0 303,-0 309,-0 315,-6 315,-12 315,-12 315,-26 315,-26 315,-32 309,-38 303,-38"/>
<text text-anchor="middle" x="284" y="-22.8" font-family="Times,serif" font-size="14.00">forward</text>
<text text-anchor="middle" x="284" y="-7.8" font-family="Times,serif" font-size="14.00">DB1/C0</text>
</g>
<!-- 10&#45;&gt;16 -->
<g id="edge15" class="edge"><title>10&#45;&gt;16</title>
<path fill="none" stroke="black" d="M284,-74.937C284,-66.9865 284,-57.3134 284,-48.3127"/>
<polygon fill="black" stroke="black" points="287.5,-48.1991 284,-38.1992 280.5,-48.1992 287.5,-48.1991"/>
</g>
<!-- 17 -->
<g id="node18" class="node"><title>17</title>
<path fill="#f6d3ff" stroke="black" d="M383,-38C383,-38 345,-38 345,-38 339,-38 333,-32 333,-26 333,-26 333,-12 333,-12 333,-6 339,-0 345,-0 345,-0 383,-0 383,-0 389,-0 395,-6 395,-12 395,-12 395,-26 395,-26 395,-32 389,-38 383,-38"/>
<text text-anchor="middle" x="364" y="-22.8" font-family="Times,serif" font-size="14.00">forward</text>
<text text-anchor="middle" x="364" y="-7.8" font-family="Times,serif" font-size="14.00">DB1/C1</text>
</g>
<!-- 11&#45;&gt;17 -->
<g id="edge16" class="edge"><title>11&#45;&gt;17</title>
<path fill="none" stroke="black" d="M371.63,-74.937C370.526,-66.9865 369.182,-57.3134 367.932,-48.3127"/>
<polygon fill="black" stroke="black" points="371.37,-47.6226 366.528,-38.1992 364.437,-48.5856 371.37,-47.6226"/>
</g>
<!-- 18 -->
<g id="node19" class="node"><title>18</title>
<path fill="#debfe6" stroke="black" d="M461,-38C461,-38 425,-38 425,-38 419,-38 413,-32 413,-26 413,-26 413,-12 413,-12 413,-6 419,-0 425,-0 425,-0 461,-0 461,-0 467,-0 473,-6 473,-12 473,-12 473,-26 473,-26 473,-32 467,-38 461,-38"/>
<text text-anchor="middle" x="443" y="-22.8" font-family="Times,serif" font-size="14.00">merge</text>
<text text-anchor="middle" x="443" y="-7.8" font-family="Times,serif" font-size="14.00">EB0/C1</text>
</g>
<!-- 11&#45;&gt;18 -->
<g id="edge17" class="edge"><title>11&#45;&gt;18</title>
<path fill="none" stroke="black" d="M390.352,-74.937C398.717,-66.2088 409.071,-55.4044 418.378,-45.6928"/>
<polygon fill="black" stroke="black" points="421.167,-47.8408 425.559,-38.1992 416.113,-42.9974 421.167,-47.8408"/>
</g>
<!-- 19 -->
<g id="node20" class="node"><title>19</title>
<path fill="#f6d3ff" stroke="black" d="M541,-38C541,-38 503,-38 503,-38 497,-38 491,-32 491,-26 491,-26 491,-12 491,-12 491,-6 497,-0 503,-0 503,-0 541,-0 541,-0 547,-0 553,-6 553,-12 553,-12 553,-26 553,-26 553,-32 547,-38 541,-38"/>
<text text-anchor="middle" x="522" y="-22.8" font-family="Times,serif" font-size="14.00">forward</text>
<text text-anchor="middle" x="522" y="-7.8" font-family="Times,serif" font-size="14.00">DB0/C0</text>
</g>
<!-- 12&#45;&gt;19 -->
<g id="edge18" class="edge"><title>12&#45;&gt;19</title>
<path fill="none" stroke="black" d="M467.063,-74.937C475.878,-66.1223 486.81,-55.1902 496.595,-45.4047"/>
<polygon fill="black" stroke="black" points="499.205,-47.7451 503.801,-38.1992 494.255,-42.7954 499.205,-47.7451"/>
</g>
<!-- 21 -->
<g id="node22" class="node"><title>21</title>
<path fill="#d3ffe4" stroke="black" d="M680,-201C680,-201 532,-201 532,-201 526,-201 520,-195 520,-189 520,-189 520,-160 520,-160 520,-154 526,-148 532,-148 532,-148 680,-148 680,-148 686,-148 692,-154 692,-160 692,-160 692,-189 692,-189 692,-195 686,-201 680,-201"/>
<text text-anchor="middle" x="606" y="-185.8" font-family="Times,serif" font-size="14.00">aspp output</text>
<text text-anchor="middle" x="606" y="-170.8" font-family="Times,serif" font-size="14.00">dilation rate: &#45;5 &#160;&#160;k width: &#45;2</text>
<text text-anchor="middle" x="606" y="-155.8" font-family="Times,serif" font-size="14.00">padding: 1</text>
</g>
<!-- 20&#45;&gt;21 -->
<g id="edge20" class="edge"><title>20&#45;&gt;21</title>
<path fill="none" stroke="black" d="M847.404,-242.839C808.811,-232.074 751.12,-215.981 701.813,-202.227"/>
<polygon fill="black" stroke="black" points="702.644,-198.825 692.071,-199.509 700.763,-205.568 702.644,-198.825"/>
</g>
<!-- 22 -->
<g id="node23" class="node"><title>22</title>
<path fill="#bfe6cf" stroke="black" d="M870,-201C870,-201 722,-201 722,-201 716,-201 710,-195 710,-189 710,-189 710,-160 710,-160 710,-154 716,-148 722,-148 722,-148 870,-148 870,-148 876,-148 882,-154 882,-160 882,-160 882,-189 882,-189 882,-195 876,-201 870,-201"/>
<text text-anchor="middle" x="796" y="-185.8" font-family="Times,serif" font-size="14.00">aspp path 0</text>
<text text-anchor="middle" x="796" y="-170.8" font-family="Times,serif" font-size="14.00">dilation rate: &#45;5 &#160;&#160;k width: &#45;2</text>
<text text-anchor="middle" x="796" y="-155.8" font-family="Times,serif" font-size="14.00">padding: 1 &#160;&#160;spatial scale: 1</text>
</g>
<!-- 20&#45;&gt;22 -->
<g id="edge21" class="edge"><title>20&#45;&gt;22</title>
<path fill="none" stroke="black" d="M869.443,-236.96C859.025,-228.242 846.204,-217.513 834.207,-207.473"/>
<polygon fill="black" stroke="black" points="836.39,-204.736 826.475,-201.003 831.898,-210.105 836.39,-204.736"/>
</g>
<!-- 23 -->
<g id="node24" class="node"><title>23</title>
<path fill="#abceb9" stroke="black" d="M1060,-201C1060,-201 912,-201 912,-201 906,-201 900,-195 900,-189 900,-189 900,-160 900,-160 900,-154 906,-148 912,-148 912,-148 1060,-148 1060,-148 1066,-148 1072,-154 1072,-160 1072,-160 1072,-189 1072,-189 1072,-195 1066,-201 1060,-201"/>
<text text-anchor="middle" x="986" y="-185.8" font-family="Times,serif" font-size="14.00">aspp path 1</text>
<text text-anchor="middle" x="986" y="-170.8" font-family="Times,serif" font-size="14.00">dilation rate: &#45;5 &#160;&#160;k width: &#45;2</text>
<text text-anchor="middle" x="986" y="-155.8" font-family="Times,serif" font-size="14.00">padding: 1</text>
</g>
<!-- 20&#45;&gt;23 -->
<g id="edge22" class="edge"><title>20&#45;&gt;23</title>
<path fill="none" stroke="black" d="M912.557,-236.96C922.975,-228.242 935.796,-217.513 947.793,-207.473"/>
<polygon fill="black" stroke="black" points="950.102,-210.105 955.525,-201.003 945.61,-204.736 950.102,-210.105"/>
</g>
<!-- 24 -->
<g id="node25" class="node"><title>24</title>
<path fill="#97b6a3" stroke="black" d="M1157.5,-193.5C1157.5,-193.5 1102.5,-193.5 1102.5,-193.5 1096.5,-193.5 1090.5,-187.5 1090.5,-181.5 1090.5,-181.5 1090.5,-167.5 1090.5,-167.5 1090.5,-161.5 1096.5,-155.5 1102.5,-155.5 1102.5,-155.5 1157.5,-155.5 1157.5,-155.5 1163.5,-155.5 1169.5,-161.5 1169.5,-167.5 1169.5,-167.5 1169.5,-181.5 1169.5,-181.5 1169.5,-187.5 1163.5,-193.5 1157.5,-193.5"/>
<text text-anchor="middle" x="1130" y="-178.3" font-family="Times,serif" font-size="14.00">aspp path 2</text>
<text text-anchor="middle" x="1130" y="-163.3" font-family="Times,serif" font-size="14.00">padding: 1</text>
</g>
<!-- 20&#45;&gt;24 -->
<g id="edge23" class="edge"><title>20&#45;&gt;24</title>
<path fill="none" stroke="black" d="M934.594,-239.923C937.769,-238.908 940.929,-237.924 944,-237 1004.29,-218.866 1022.27,-223.672 1081,-201 1083.51,-200.03 1086.07,-198.965 1088.62,-197.839"/>
<polygon fill="black" stroke="black" points="1090.21,-200.957 1097.79,-193.548 1087.25,-194.617 1090.21,-200.957"/>
</g>
<!-- 25 -->
<g id="node26" class="node"><title>25</title>
<path fill="#839e8d" stroke="black" d="M1340.5,-193.5C1340.5,-193.5 1199.5,-193.5 1199.5,-193.5 1193.5,-193.5 1187.5,-187.5 1187.5,-181.5 1187.5,-181.5 1187.5,-167.5 1187.5,-167.5 1187.5,-161.5 1193.5,-155.5 1199.5,-155.5 1199.5,-155.5 1340.5,-155.5 1340.5,-155.5 1346.5,-155.5 1352.5,-161.5 1352.5,-167.5 1352.5,-167.5 1352.5,-181.5 1352.5,-181.5 1352.5,-187.5 1346.5,-193.5 1340.5,-193.5"/>
<text text-anchor="middle" x="1270" y="-178.3" font-family="Times,serif" font-size="14.00">aspp path 3</text>
<text text-anchor="middle" x="1270" y="-163.3" font-family="Times,serif" font-size="14.00">dilation rate: 6 &#160;&#160;padding: 1</text>
</g>
<!-- 20&#45;&gt;25 -->
<g id="edge24" class="edge"><title>20&#45;&gt;25</title>
<path fill="none" stroke="black" d="M934.784,-239.469C937.886,-238.573 940.979,-237.738 944,-237 1046.64,-211.914 1075.72,-223.296 1179,-201 1185.68,-199.558 1192.6,-197.91 1199.49,-196.161"/>
<polygon fill="black" stroke="black" points="1200.76,-199.447 1209.56,-193.539 1199,-192.673 1200.76,-199.447"/>
</g>
<!-- 26 -->
<g id="node27" class="node"><title>26</title>
<path fill="#d3e4ff" stroke="black" d="M539,-112C539,-112 509,-112 509,-112 503,-112 497,-106 497,-100 497,-100 497,-86 497,-86 497,-80 503,-74 509,-74 509,-74 539,-74 539,-74 545,-74 551,-80 551,-86 551,-86 551,-100 551,-100 551,-106 545,-112 539,-112"/>
<text text-anchor="middle" x="524" y="-96.8" font-family="Times,serif" font-size="14.00">merge</text>
<text text-anchor="middle" x="524" y="-81.8" font-family="Times,serif" font-size="14.00">A/AP0</text>
</g>
<!-- 21&#45;&gt;26 -->
<g id="edge25" class="edge"><title>21&#45;&gt;26</title>
<path fill="none" stroke="black" d="M579.603,-147.908C570.146,-138.739 559.496,-128.414 550.067,-119.272"/>
<polygon fill="black" stroke="black" points="552.428,-116.687 542.812,-112.239 547.556,-121.713 552.428,-116.687"/>
</g>
<!-- 27 -->
<g id="node28" class="node"><title>27</title>
<path fill="#bfcfe6" stroke="black" d="M611,-112C611,-112 581,-112 581,-112 575,-112 569,-106 569,-100 569,-100 569,-86 569,-86 569,-80 575,-74 581,-74 581,-74 611,-74 611,-74 617,-74 623,-80 623,-86 623,-86 623,-100 623,-100 623,-106 617,-112 611,-112"/>
<text text-anchor="middle" x="596" y="-96.8" font-family="Times,serif" font-size="14.00">merge</text>
<text text-anchor="middle" x="596" y="-81.8" font-family="Times,serif" font-size="14.00">A/AP1</text>
</g>
<!-- 21&#45;&gt;27 -->
<g id="edge26" class="edge"><title>21&#45;&gt;27</title>
<path fill="none" stroke="black" d="M602.781,-147.908C601.753,-139.738 600.61,-130.649 599.56,-122.298"/>
<polygon fill="black" stroke="black" points="603.015,-121.724 598.294,-112.239 596.07,-122.598 603.015,-121.724"/>
</g>
<!-- 28 -->
<g id="node29" class="node"><title>28</title>
<path fill="#abb9ce" stroke="black" d="M683,-112C683,-112 653,-112 653,-112 647,-112 641,-106 641,-100 641,-100 641,-86 641,-86 641,-80 647,-74 653,-74 653,-74 683,-74 683,-74 689,-74 695,-80 695,-86 695,-86 695,-100 695,-100 695,-106 689,-112 683,-112"/>
<text text-anchor="middle" x="668" y="-96.8" font-family="Times,serif" font-size="14.00">merge</text>
<text text-anchor="middle" x="668" y="-81.8" font-family="Times,serif" font-size="14.00">A/AP2</text>
</g>
<!-- 21&#45;&gt;28 -->
<g id="edge27" class="edge"><title>21&#45;&gt;28</title>
<path fill="none" stroke="black" d="M625.958,-147.908C632.826,-139.102 640.525,-129.23 647.44,-120.364"/>
<polygon fill="black" stroke="black" points="650.386,-122.277 653.776,-112.239 644.866,-117.972 650.386,-122.277"/>
</g>
<!-- 29 -->
<g id="node30" class="node"><title>29</title>
<path fill="#97a3b6" stroke="black" d="M755,-112C755,-112 725,-112 725,-112 719,-112 713,-106 713,-100 713,-100 713,-86 713,-86 713,-80 719,-74 725,-74 725,-74 755,-74 755,-74 761,-74 767,-80 767,-86 767,-86 767,-100 767,-100 767,-106 761,-112 755,-112"/>
<text text-anchor="middle" x="740" y="-96.8" font-family="Times,serif" font-size="14.00">merge</text>
<text text-anchor="middle" x="740" y="-81.8" font-family="Times,serif" font-size="14.00">A/AP3</text>
</g>
<!-- 21&#45;&gt;29 -->
<g id="edge28" class="edge"><title>21&#45;&gt;29</title>
<path fill="none" stroke="black" d="M649.136,-147.908C666.824,-137.414 687.064,-125.406 703.946,-115.39"/>
<polygon fill="black" stroke="black" points="706.127,-118.166 712.941,-110.054 702.555,-112.146 706.127,-118.166"/>
</g>
<!-- 30 -->
<g id="node31" class="node"><title>30</title>
<path fill="#d3e4ff" stroke="black" d="M835,-112C835,-112 797,-112 797,-112 791,-112 785,-106 785,-100 785,-100 785,-86 785,-86 785,-80 791,-74 797,-74 797,-74 835,-74 835,-74 841,-74 847,-80 847,-86 847,-86 847,-100 847,-100 847,-106 841,-112 835,-112"/>
<text text-anchor="middle" x="816" y="-96.8" font-family="Times,serif" font-size="14.00">forward</text>
<text text-anchor="middle" x="816" y="-81.8" font-family="Times,serif" font-size="14.00">DB0/C1</text>
</g>
<!-- 22&#45;&gt;30 -->
<g id="edge29" class="edge"><title>22&#45;&gt;30</title>
<path fill="none" stroke="black" d="M802.438,-147.908C804.517,-139.647 806.831,-130.447 808.951,-122.02"/>
<polygon fill="black" stroke="black" points="812.366,-122.791 811.412,-112.239 805.578,-121.083 812.366,-122.791"/>
</g>
<!-- 31 -->
<g id="node32" class="node"><title>31</title>
<path fill="#d3e4ff" stroke="black" d="M1005,-112C1005,-112 967,-112 967,-112 961,-112 955,-106 955,-100 955,-100 955,-86 955,-86 955,-80 961,-74 967,-74 967,-74 1005,-74 1005,-74 1011,-74 1017,-80 1017,-86 1017,-86 1017,-100 1017,-100 1017,-106 1011,-112 1005,-112"/>
<text text-anchor="middle" x="986" y="-96.8" font-family="Times,serif" font-size="14.00">forward</text>
<text text-anchor="middle" x="986" y="-81.8" font-family="Times,serif" font-size="14.00">DB0/C1</text>
</g>
<!-- 23&#45;&gt;31 -->
<g id="edge30" class="edge"><title>23&#45;&gt;31</title>
<path fill="none" stroke="black" d="M986,-147.908C986,-139.738 986,-130.649 986,-122.298"/>
<polygon fill="black" stroke="black" points="989.5,-122.239 986,-112.239 982.5,-122.239 989.5,-122.239"/>
</g>
<!-- 32 -->
<g id="node33" class="node"><title>32</title>
<path fill="#d3e4ff" stroke="black" d="M1149,-112C1149,-112 1111,-112 1111,-112 1105,-112 1099,-106 1099,-100 1099,-100 1099,-86 1099,-86 1099,-80 1105,-74 1111,-74 1111,-74 1149,-74 1149,-74 1155,-74 1161,-80 1161,-86 1161,-86 1161,-100 1161,-100 1161,-106 1155,-112 1149,-112"/>
<text text-anchor="middle" x="1130" y="-96.8" font-family="Times,serif" font-size="14.00">forward</text>
<text text-anchor="middle" x="1130" y="-81.8" font-family="Times,serif" font-size="14.00">DB0/C1</text>
</g>
<!-- 24&#45;&gt;32 -->
<g id="edge31" class="edge"><title>24&#45;&gt;32</title>
<path fill="none" stroke="black" d="M1130,-155.46C1130,-145.67 1130,-133.345 1130,-122.307"/>
<polygon fill="black" stroke="black" points="1133.5,-122.244 1130,-112.244 1126.5,-122.244 1133.5,-122.244"/>
</g>
<!-- 33 -->
<g id="node34" class="node"><title>33</title>
<path fill="#d3e4ff" stroke="black" d="M1289,-112C1289,-112 1251,-112 1251,-112 1245,-112 1239,-106 1239,-100 1239,-100 1239,-86 1239,-86 1239,-80 1245,-74 1251,-74 1251,-74 1289,-74 1289,-74 1295,-74 1301,-80 1301,-86 1301,-86 1301,-100 1301,-100 1301,-106 1295,-112 1289,-112"/>
<text text-anchor="middle" x="1270" y="-96.8" font-family="Times,serif" font-size="14.00">forward</text>
<text text-anchor="middle" x="1270" y="-81.8" font-family="Times,serif" font-size="14.00">DB0/C1</text>
</g>
<!-- 25&#45;&gt;33 -->
<g id="edge32" class="edge"><title>25&#45;&gt;33</title>
<path fill="none" stroke="black" d="M1270,-155.46C1270,-145.67 1270,-133.345 1270,-122.307"/>
<polygon fill="black" stroke="black" points="1273.5,-122.244 1270,-112.244 1266.5,-122.244 1273.5,-122.244"/>
</g>
<!-- 34 -->
<g id="node35" class="node"><title>34</title>
<path fill="#ffd3d3" stroke="black" d="M1013.5,-356.5C1013.5,-356.5 950.5,-356.5 950.5,-356.5 944.5,-356.5 938.5,-350.5 938.5,-344.5 938.5,-344.5 938.5,-330.5 938.5,-330.5 938.5,-324.5 944.5,-318.5 950.5,-318.5 950.5,-318.5 1013.5,-318.5 1013.5,-318.5 1019.5,-318.5 1025.5,-324.5 1025.5,-330.5 1025.5,-330.5 1025.5,-344.5 1025.5,-344.5 1025.5,-350.5 1019.5,-356.5 1013.5,-356.5"/>
<text text-anchor="middle" x="982" y="-341.3" font-family="Times,serif" font-size="14.00">predictor</text>
<text text-anchor="middle" x="982" y="-326.3" font-family="Times,serif" font-size="14.00">n kernels: 76</text>
</g>
<!-- 35 -->
<g id="node36" class="node"><title>35</title>
<path fill="#d3ffff" stroke="black" d="M999.5,-275C999.5,-275 964.5,-275 964.5,-275 958.5,-275 952.5,-269 952.5,-263 952.5,-263 952.5,-249 952.5,-249 952.5,-243 958.5,-237 964.5,-237 964.5,-237 999.5,-237 999.5,-237 1005.5,-237 1011.5,-243 1011.5,-249 1011.5,-249 1011.5,-263 1011.5,-263 1011.5,-269 1005.5,-275 999.5,-275"/>
<text text-anchor="middle" x="982" y="-259.8" font-family="Times,serif" font-size="14.00">forward</text>
<text text-anchor="middle" x="982" y="-244.8" font-family="Times,serif" font-size="14.00">A/AO</text>
</g>
<!-- 34&#45;&gt;35 -->
<g id="edge33" class="edge"><title>34&#45;&gt;35</title>
<path fill="none" stroke="black" d="M982,-318.46C982,-308.67 982,-296.345 982,-285.307"/>
<polygon fill="black" stroke="black" points="985.5,-285.244 982,-275.244 978.5,-285.244 985.5,-285.244"/>
</g>
</g>
</svg>
