<?xml version="1.0" encoding="UTF-8" standalone="no"?>
<!DOCTYPE svg PUBLIC "-//W3C//DTD SVG 1.1//EN"
 "http://www.w3.org/Graphics/SVG/1.1/DTD/svg11.dtd">
<!-- Generated by graphviz version 2.38.0 (20140413.2041)
 -->
<!-- Title: %3 Pages: 1 -->
<svg width="959pt" height="358pt"
 viewBox="0.00 0.00 959.00 358.00" xmlns="http://www.w3.org/2000/svg" xmlns:xlink="http://www.w3.org/1999/xlink">
<g id="graph0" class="graph" transform="scale(1 1) rotate(0) translate(4 354)">
<title>%3</title>
<polygon fill="none" stroke="none" points="-4,4 -4,-354 955,-354 955,4 -4,4"/>
<!-- 0 -->
<g id="node1" class="node"><title>0</title>
<path fill="#ffd3d3" stroke="black" d="M571,-350C571,-350 380,-350 380,-350 374,-350 368,-344 368,-338 368,-338 368,-309 368,-309 368,-303 374,-297 380,-297 380,-297 571,-297 571,-297 577,-297 583,-303 583,-309 583,-309 583,-338 583,-338 583,-344 577,-350 571,-350"/>
<text text-anchor="middle" x="475.5" y="-334.8" font-family="Times,serif" font-size="14.00">net</text>
<text text-anchor="middle" x="475.5" y="-319.8" font-family="Times,serif" font-size="14.00">k width: 3 &#160;&#160;log gamma2: &#45;9.255716</text>
<text text-anchor="middle" x="475.5" y="-304.8" font-family="Times,serif" font-size="14.00">n kernels: 70</text>
</g>
<!-- 1 -->
<g id="node2" class="node"><title>1</title>
<path fill="#e9ffd3" stroke="black" d="M605,-261C605,-261 346,-261 346,-261 340,-261 334,-255 334,-249 334,-249 334,-220 334,-220 334,-214 340,-208 346,-208 346,-208 605,-208 605,-208 611,-208 617,-214 617,-220 617,-220 617,-249 617,-249 617,-255 611,-261 605,-261"/>
<text text-anchor="middle" x="475.5" y="-245.8" font-family="Times,serif" font-size="14.00">conv block 0</text>
<text text-anchor="middle" x="475.5" y="-230.8" font-family="Times,serif" font-size="14.00">log gamma1: 0.607706 &#160;&#160;log gamma2: 0.177401</text>
<text text-anchor="middle" x="475.5" y="-215.8" font-family="Times,serif" font-size="14.00">n kernels: 9</text>
</g>
<!-- 0&#45;&gt;1 -->
<g id="edge1" class="edge"><title>0&#45;&gt;1</title>
<path fill="none" stroke="black" d="M475.5,-296.868C475.5,-288.886 475.5,-279.932 475.5,-271.384"/>
<polygon fill="black" stroke="black" points="479,-271.25 475.5,-261.25 472,-271.25 479,-271.25"/>
</g>
<!-- 2 -->
<g id="node3" class="node"><title>2</title>
<path fill="#d3ffff" stroke="black" d="M279.5,-172C279.5,-172 211.5,-172 211.5,-172 205.5,-172 199.5,-166 199.5,-160 199.5,-160 199.5,-146 199.5,-146 199.5,-140 205.5,-134 211.5,-134 211.5,-134 279.5,-134 279.5,-134 285.5,-134 291.5,-140 291.5,-146 291.5,-146 291.5,-160 291.5,-160 291.5,-166 285.5,-172 279.5,-172"/>
<text text-anchor="middle" x="245.5" y="-156.8" font-family="Times,serif" font-size="14.00">comp 0</text>
<text text-anchor="middle" x="245.5" y="-141.8" font-family="Times,serif" font-size="14.00">n kernels: &#45;10</text>
</g>
<!-- 1&#45;&gt;2 -->
<g id="edge2" class="edge"><title>1&#45;&gt;2</title>
<path fill="none" stroke="black" d="M401.461,-207.908C368.874,-196.644 331.24,-183.636 301.106,-173.22"/>
<polygon fill="black" stroke="black" points="302.196,-169.894 291.601,-169.935 299.909,-176.51 302.196,-169.894"/>
</g>
<!-- 3 -->
<g id="node4" class="node"><title>3</title>
<path fill="#bfe6e6" stroke="black" d="M535.5,-172C535.5,-172 415.5,-172 415.5,-172 409.5,-172 403.5,-166 403.5,-160 403.5,-160 403.5,-146 403.5,-146 403.5,-140 409.5,-134 415.5,-134 415.5,-134 535.5,-134 535.5,-134 541.5,-134 547.5,-140 547.5,-146 547.5,-146 547.5,-160 547.5,-160 547.5,-166 541.5,-172 535.5,-172"/>
<text text-anchor="middle" x="475.5" y="-156.8" font-family="Times,serif" font-size="14.00">comp 1</text>
<text text-anchor="middle" x="475.5" y="-141.8" font-family="Times,serif" font-size="14.00">log gamma2: 1.687532</text>
</g>
<!-- 1&#45;&gt;3 -->
<g id="edge3" class="edge"><title>1&#45;&gt;3</title>
<path fill="none" stroke="black" d="M475.5,-207.908C475.5,-199.738 475.5,-190.649 475.5,-182.298"/>
<polygon fill="black" stroke="black" points="479,-182.239 475.5,-172.239 472,-182.239 479,-182.239"/>
</g>
<!-- 4 -->
<g id="node5" class="node"><title>4</title>
<path fill="#abcece" stroke="black" d="M834,-172C834,-172 639,-172 639,-172 633,-172 627,-166 627,-160 627,-160 627,-146 627,-146 627,-140 633,-134 639,-134 639,-134 834,-134 834,-134 840,-134 846,-140 846,-146 846,-146 846,-160 846,-160 846,-166 840,-172 834,-172"/>
<text text-anchor="middle" x="736.5" y="-156.8" font-family="Times,serif" font-size="14.00">comp 2</text>
<text text-anchor="middle" x="736.5" y="-141.8" font-family="Times,serif" font-size="14.00">log gamma1: 0.644009 &#160;&#160;n kernels: 4</text>
</g>
<!-- 1&#45;&gt;4 -->
<g id="edge4" class="edge"><title>1&#45;&gt;4</title>
<path fill="none" stroke="black" d="M559.519,-207.908C594.376,-197.291 634.323,-185.123 667.434,-175.037"/>
<polygon fill="black" stroke="black" points="668.481,-178.377 677.028,-172.115 666.442,-171.681 668.481,-178.377"/>
</g>
<!-- 5 -->
<g id="node6" class="node"><title>5</title>
<path fill="#e9d3ff" stroke="black" d="M293,-98C293,-98 12,-98 12,-98 6,-98 0,-92 0,-86 0,-86 0,-12 0,-12 0,-6 6,-0 12,-0 12,-0 293,-0 293,-0 299,-0 305,-6 305,-12 305,-12 305,-86 305,-86 305,-92 299,-98 293,-98"/>
<text text-anchor="middle" x="152.5" y="-82.8" font-family="Times,serif" font-size="14.00">forward</text>
<text text-anchor="middle" x="152.5" y="-67.8" font-family="Times,serif" font-size="14.00">input</text>
<text text-anchor="middle" x="152.5" y="-52.8" font-family="Times,serif" font-size="14.00">dilation rate: 1 &#160;&#160;k width: 3</text>
<text text-anchor="middle" x="152.5" y="-37.8" font-family="Times,serif" font-size="14.00">log gamma1: &#45;11.000000 &#160;&#160;log gamma2: &#45;11.000000</text>
<text text-anchor="middle" x="152.5" y="-22.8" font-family="Times,serif" font-size="14.00">log lambda1: &#45;11.000000 &#160;&#160;log lambda2: &#45;11.000000</text>
<text text-anchor="middle" x="152.5" y="-7.8" font-family="Times,serif" font-size="14.00">n kernels: 64</text>
</g>
<!-- 2&#45;&gt;5 -->
<g id="edge5" class="edge"><title>2&#45;&gt;5</title>
<path fill="none" stroke="black" d="M228.873,-133.764C221.558,-125.741 212.532,-115.842 203.279,-105.693"/>
<polygon fill="black" stroke="black" points="205.845,-103.313 196.521,-98.2813 200.672,-108.029 205.845,-103.313"/>
</g>
<!-- 6 -->
<g id="node7" class="node"><title>6</title>
<path fill="#e9d3ff" stroke="black" d="M616,-98C616,-98 335,-98 335,-98 329,-98 323,-92 323,-86 323,-86 323,-12 323,-12 323,-6 329,-0 335,-0 335,-0 616,-0 616,-0 622,-0 628,-6 628,-12 628,-12 628,-86 628,-86 628,-92 622,-98 616,-98"/>
<text text-anchor="middle" x="475.5" y="-82.8" font-family="Times,serif" font-size="14.00">forward</text>
<text text-anchor="middle" x="475.5" y="-67.8" font-family="Times,serif" font-size="14.00">CB0/C0</text>
<text text-anchor="middle" x="475.5" y="-52.8" font-family="Times,serif" font-size="14.00">dilation rate: 1 &#160;&#160;k width: 3</text>
<text text-anchor="middle" x="475.5" y="-37.8" font-family="Times,serif" font-size="14.00">log gamma1: &#45;11.000000 &#160;&#160;log gamma2: &#45;11.000000</text>
<text text-anchor="middle" x="475.5" y="-22.8" font-family="Times,serif" font-size="14.00">log lambda1: &#45;11.000000 &#160;&#160;log lambda2: &#45;11.000000</text>
<text text-anchor="middle" x="475.5" y="-7.8" font-family="Times,serif" font-size="14.00">n kernels: 64</text>
</g>
<!-- 3&#45;&gt;6 -->
<g id="edge6" class="edge"><title>3&#45;&gt;6</title>
<path fill="none" stroke="black" d="M475.5,-133.764C475.5,-126.442 475.5,-117.558 475.5,-108.346"/>
<polygon fill="black" stroke="black" points="479,-108.281 475.5,-98.2813 472,-108.281 479,-108.281"/>
</g>
<!-- 7 -->
<g id="node8" class="node"><title>7</title>
<path fill="#e9d3ff" stroke="black" d="M939,-98C939,-98 658,-98 658,-98 652,-98 646,-92 646,-86 646,-86 646,-12 646,-12 646,-6 652,-0 658,-0 658,-0 939,-0 939,-0 945,-0 951,-6 951,-12 951,-12 951,-86 951,-86 951,-92 945,-98 939,-98"/>
<text text-anchor="middle" x="798.5" y="-82.8" font-family="Times,serif" font-size="14.00">forward</text>
<text text-anchor="middle" x="798.5" y="-67.8" font-family="Times,serif" font-size="14.00">CB0/C1</text>
<text text-anchor="middle" x="798.5" y="-52.8" font-family="Times,serif" font-size="14.00">dilation rate: 1 &#160;&#160;k width: 3</text>
<text text-anchor="middle" x="798.5" y="-37.8" font-family="Times,serif" font-size="14.00">log gamma1: &#45;11.000000 &#160;&#160;log gamma2: &#45;11.000000</text>
<text text-anchor="middle" x="798.5" y="-22.8" font-family="Times,serif" font-size="14.00">log lambda1: &#45;11.000000 &#160;&#160;log lambda2: &#45;11.000000</text>
<text text-anchor="middle" x="798.5" y="-7.8" font-family="Times,serif" font-size="14.00">n kernels: 64</text>
</g>
<!-- 4&#45;&gt;7 -->
<g id="edge7" class="edge"><title>4&#45;&gt;7</title>
<path fill="none" stroke="black" d="M747.584,-133.764C752.272,-126.053 758.013,-116.608 763.93,-106.874"/>
<polygon fill="black" stroke="black" points="766.949,-108.645 769.153,-98.2813 760.967,-105.009 766.949,-108.645"/>
</g>
</g>
</svg>
