<?xml version="1.0" encoding="UTF-8" standalone="no"?>
<!DOCTYPE svg PUBLIC "-//W3C//DTD SVG 1.1//EN"
 "http://www.w3.org/Graphics/SVG/1.1/DTD/svg11.dtd">
<!-- Generated by graphviz version 2.38.0 (20140413.2041)
 -->
<!-- Title: %3 Pages: 1 -->
<svg width="6165pt" height="433pt"
 viewBox="0.00 0.00 6165.00 433.00" xmlns="http://www.w3.org/2000/svg" xmlns:xlink="http://www.w3.org/1999/xlink">
<g id="graph0" class="graph" transform="scale(1 1) rotate(0) translate(4 429)">
<title>%3</title>
<polygon fill="none" stroke="none" points="-4,4 -4,-429 6161,-429 6161,4 -4,4"/>
<!-- 0 -->
<g id="node1" class="node"><title>0</title>
<path fill="#ffd3d3" stroke="black" d="M3560,-425C3560,-425 3369,-425 3369,-425 3363,-425 3357,-419 3357,-413 3357,-413 3357,-384 3357,-384 3357,-378 3363,-372 3369,-372 3369,-372 3560,-372 3560,-372 3566,-372 3572,-378 3572,-384 3572,-384 3572,-413 3572,-413 3572,-419 3566,-425 3560,-425"/>
<text text-anchor="middle" x="3464.5" y="-409.8" font-family="Times,serif" font-size="14.00">net</text>
<text text-anchor="middle" x="3464.5" y="-394.8" font-family="Times,serif" font-size="14.00">k width: 3 &#160;&#160;log gamma2: &#45;8.507102</text>
<text text-anchor="middle" x="3464.5" y="-379.8" font-family="Times,serif" font-size="14.00">n kernels: 128</text>
</g>
<!-- 1 -->
<g id="node2" class="node"><title>1</title>
<path fill="#e9ffd3" stroke="black" d="M1073,-321C1073,-321 810,-321 810,-321 804,-321 798,-315 798,-309 798,-309 798,-295 798,-295 798,-289 804,-283 810,-283 810,-283 1073,-283 1073,-283 1079,-283 1085,-289 1085,-295 1085,-295 1085,-309 1085,-309 1085,-315 1079,-321 1073,-321"/>
<text text-anchor="middle" x="941.5" y="-305.8" font-family="Times,serif" font-size="14.00">conv block 0</text>
<text text-anchor="middle" x="941.5" y="-290.8" font-family="Times,serif" font-size="14.00">log gamma1: &#45;0.049236 &#160;&#160;log gamma2: 0.682280</text>
</g>
<!-- 0&#45;&gt;1 -->
<g id="edge1" class="edge"><title>0&#45;&gt;1</title>
<path fill="none" stroke="black" d="M3356.9,-393.47C2957.98,-378.528 1562.56,-326.262 1095.29,-308.76"/>
<polygon fill="black" stroke="black" points="1095.22,-305.255 1085.1,-308.379 1094.96,-312.251 1095.22,-305.255"/>
</g>
<!-- 2 -->
<g id="node3" class="node"><title>2</title>
<path fill="#e9ffd3" stroke="black" d="M2868,-336C2868,-336 2605,-336 2605,-336 2599,-336 2593,-330 2593,-324 2593,-324 2593,-280 2593,-280 2593,-274 2599,-268 2605,-268 2605,-268 2868,-268 2868,-268 2874,-268 2880,-274 2880,-280 2880,-280 2880,-324 2880,-324 2880,-330 2874,-336 2868,-336"/>
<text text-anchor="middle" x="2736.5" y="-320.8" font-family="Times,serif" font-size="14.00">conv block 1</text>
<text text-anchor="middle" x="2736.5" y="-305.8" font-family="Times,serif" font-size="14.00">log gamma1: 0.365627 &#160;&#160;log gamma2: &#45;1.492898</text>
<text text-anchor="middle" x="2736.5" y="-290.8" font-family="Times,serif" font-size="14.00">n kernels: 128 &#160;&#160;pool z: 1</text>
<text text-anchor="middle" x="2736.5" y="-275.8" font-family="Times,serif" font-size="14.00">spatial scale: 1</text>
</g>
<!-- 0&#45;&gt;2 -->
<g id="edge2" class="edge"><title>0&#45;&gt;2</title>
<path fill="none" stroke="black" d="M3356.69,-383.505C3233.29,-367.487 3030.21,-341.126 2890.25,-322.958"/>
<polygon fill="black" stroke="black" points="2890.65,-319.481 2880.28,-321.664 2889.75,-326.423 2890.65,-319.481"/>
</g>
<!-- 3 -->
<g id="node4" class="node"><title>3</title>
<path fill="#e9ffd3" stroke="black" d="M4392,-321C4392,-321 4231,-321 4231,-321 4225,-321 4219,-315 4219,-309 4219,-309 4219,-295 4219,-295 4219,-289 4225,-283 4231,-283 4231,-283 4392,-283 4392,-283 4398,-283 4404,-289 4404,-295 4404,-295 4404,-309 4404,-309 4404,-315 4398,-321 4392,-321"/>
<text text-anchor="middle" x="4311.5" y="-305.8" font-family="Times,serif" font-size="14.00">conv block 2</text>
<text text-anchor="middle" x="4311.5" y="-290.8" font-family="Times,serif" font-size="14.00">n kernels: 384 &#160;&#160;spatial scale: 2</text>
</g>
<!-- 0&#45;&gt;3 -->
<g id="edge3" class="edge"><title>0&#45;&gt;3</title>
<path fill="none" stroke="black" d="M3572.2,-385.484C3736.35,-367.169 4047.05,-332.505 4208.41,-314.502"/>
<polygon fill="black" stroke="black" points="4209.27,-317.928 4218.82,-313.341 4208.49,-310.971 4209.27,-317.928"/>
</g>
<!-- 4 -->
<g id="node5" class="node"><title>4</title>
<path fill="#e9ffd3" stroke="black" d="M5553,-320C5553,-320 5486,-320 5486,-320 5480,-320 5474,-314 5474,-308 5474,-308 5474,-296 5474,-296 5474,-290 5480,-284 5486,-284 5486,-284 5553,-284 5553,-284 5559,-284 5565,-290 5565,-296 5565,-296 5565,-308 5565,-308 5565,-314 5559,-320 5553,-320"/>
<text text-anchor="middle" x="5519.5" y="-298.3" font-family="Times,serif" font-size="14.00">path combine</text>
</g>
<!-- 0&#45;&gt;4 -->
<g id="edge4" class="edge"><title>0&#45;&gt;4</title>
<path fill="none" stroke="black" d="M3572.09,-392.552C3946.55,-375.333 5185.05,-318.38 5463.56,-305.572"/>
<polygon fill="black" stroke="black" points="5464,-309.056 5473.82,-305.1 5463.67,-302.064 5464,-309.056"/>
</g>
<!-- 5 -->
<g id="node6" class="node"><title>5</title>
<path fill="#d3ffff" stroke="black" d="M399,-202C399,-202 140,-202 140,-202 134,-202 128,-196 128,-190 128,-190 128,-176 128,-176 128,-170 134,-164 140,-164 140,-164 399,-164 399,-164 405,-164 411,-170 411,-176 411,-176 411,-190 411,-190 411,-196 405,-202 399,-202"/>
<text text-anchor="middle" x="269.5" y="-186.8" font-family="Times,serif" font-size="14.00">comp 0</text>
<text text-anchor="middle" x="269.5" y="-171.8" font-family="Times,serif" font-size="14.00">log gamma1: 0.414864 &#160;&#160;log gamma2: 0.851119</text>
</g>
<!-- 1&#45;&gt;5 -->
<g id="edge5" class="edge"><title>1&#45;&gt;5</title>
<path fill="none" stroke="black" d="M834.283,-282.93C752.842,-269.146 638.079,-249.596 537.5,-232 485.337,-222.874 427.503,-212.543 378.953,-203.809"/>
<polygon fill="black" stroke="black" points="379.517,-200.355 369.055,-202.028 378.277,-207.244 379.517,-200.355"/>
</g>
<!-- 6 -->
<g id="node7" class="node"><title>6</title>
<path fill="#bfe6e6" stroke="black" d="M592.5,-201C592.5,-201 558.5,-201 558.5,-201 552.5,-201 546.5,-195 546.5,-189 546.5,-189 546.5,-177 546.5,-177 546.5,-171 552.5,-165 558.5,-165 558.5,-165 592.5,-165 592.5,-165 598.5,-165 604.5,-171 604.5,-177 604.5,-177 604.5,-189 604.5,-189 604.5,-195 598.5,-201 592.5,-201"/>
<text text-anchor="middle" x="575.5" y="-179.3" font-family="Times,serif" font-size="14.00">comp 1</text>
</g>
<!-- 1&#45;&gt;6 -->
<g id="edge6" class="edge"><title>1&#45;&gt;6</title>
<path fill="none" stroke="black" d="M879.644,-282.878C833.892,-269.309 770.134,-250.054 714.5,-232 680.545,-220.981 642.213,-207.679 614.417,-197.875"/>
<polygon fill="black" stroke="black" points="615.275,-194.466 604.68,-194.432 612.941,-201.066 615.275,-194.466"/>
</g>
<!-- 7 -->
<g id="node8" class="node"><title>7</title>
<path fill="#abcece" stroke="black" d="M935.5,-202C935.5,-202 735.5,-202 735.5,-202 729.5,-202 723.5,-196 723.5,-190 723.5,-190 723.5,-176 723.5,-176 723.5,-170 729.5,-164 735.5,-164 735.5,-164 935.5,-164 935.5,-164 941.5,-164 947.5,-170 947.5,-176 947.5,-176 947.5,-190 947.5,-190 947.5,-196 941.5,-202 935.5,-202"/>
<text text-anchor="middle" x="835.5" y="-186.8" font-family="Times,serif" font-size="14.00">comp 2</text>
<text text-anchor="middle" x="835.5" y="-171.8" font-family="Times,serif" font-size="14.00">log gamma2: 0.259176 &#160;&#160;n kernels: &#45;6</text>
</g>
<!-- 1&#45;&gt;7 -->
<g id="edge7" class="edge"><title>1&#45;&gt;7</title>
<path fill="none" stroke="black" d="M925.17,-282.975C907.403,-263.365 878.854,-231.853 858.75,-209.663"/>
<polygon fill="black" stroke="black" points="861.331,-207.299 852.023,-202.238 856.144,-211.999 861.331,-207.299"/>
</g>
<!-- 8 -->
<g id="node9" class="node"><title>8</title>
<path fill="#97b6b6" stroke="black" d="M1077,-202C1077,-202 1016,-202 1016,-202 1010,-202 1004,-196 1004,-190 1004,-190 1004,-176 1004,-176 1004,-170 1010,-164 1016,-164 1016,-164 1077,-164 1077,-164 1083,-164 1089,-170 1089,-176 1089,-176 1089,-190 1089,-190 1089,-196 1083,-202 1077,-202"/>
<text text-anchor="middle" x="1046.5" y="-186.8" font-family="Times,serif" font-size="14.00">comp 3</text>
<text text-anchor="middle" x="1046.5" y="-171.8" font-family="Times,serif" font-size="14.00">n kernels: &#45;2</text>
</g>
<!-- 1&#45;&gt;8 -->
<g id="edge8" class="edge"><title>1&#45;&gt;8</title>
<path fill="none" stroke="black" d="M957.676,-282.975C975.198,-263.451 1003.31,-232.128 1023.21,-209.954"/>
<polygon fill="black" stroke="black" points="1026.06,-212.018 1030.13,-202.238 1020.85,-207.343 1026.06,-212.018"/>
</g>
<!-- 9 -->
<g id="node10" class="node"><title>9</title>
<path fill="#839e9e" stroke="black" d="M1476,-202C1476,-202 1217,-202 1217,-202 1211,-202 1205,-196 1205,-190 1205,-190 1205,-176 1205,-176 1205,-170 1211,-164 1217,-164 1217,-164 1476,-164 1476,-164 1482,-164 1488,-170 1488,-176 1488,-176 1488,-190 1488,-190 1488,-196 1482,-202 1476,-202"/>
<text text-anchor="middle" x="1346.5" y="-186.8" font-family="Times,serif" font-size="14.00">comp 4</text>
<text text-anchor="middle" x="1346.5" y="-171.8" font-family="Times,serif" font-size="14.00">log gamma1: 0.414864 &#160;&#160;log gamma2: 0.172233</text>
</g>
<!-- 1&#45;&gt;9 -->
<g id="edge9" class="edge"><title>1&#45;&gt;9</title>
<path fill="none" stroke="black" d="M1003.89,-282.975C1076.88,-261.89 1197.49,-227.047 1274.41,-204.825"/>
<polygon fill="black" stroke="black" points="1275.4,-208.183 1284.04,-202.045 1273.46,-201.458 1275.4,-208.183"/>
</g>
<!-- 10 -->
<g id="node11" class="node"><title>10</title>
<path fill="#d3ffff" stroke="black" d="M1888.5,-201C1888.5,-201 1854.5,-201 1854.5,-201 1848.5,-201 1842.5,-195 1842.5,-189 1842.5,-189 1842.5,-177 1842.5,-177 1842.5,-171 1848.5,-165 1854.5,-165 1854.5,-165 1888.5,-165 1888.5,-165 1894.5,-165 1900.5,-171 1900.5,-177 1900.5,-177 1900.5,-189 1900.5,-189 1900.5,-195 1894.5,-201 1888.5,-201"/>
<text text-anchor="middle" x="1871.5" y="-179.3" font-family="Times,serif" font-size="14.00">comp 0</text>
</g>
<!-- 2&#45;&gt;10 -->
<g id="edge10" class="edge"><title>2&#45;&gt;10</title>
<path fill="none" stroke="black" d="M2592.69,-297.031C2445.71,-290.706 2211.56,-274.331 2013.5,-232 1977.65,-224.337 1938.25,-210.57 1910.06,-199.739"/>
<polygon fill="black" stroke="black" points="1911.18,-196.416 1900.59,-196.045 1908.63,-202.938 1911.18,-196.416"/>
</g>
<!-- 11 -->
<g id="node12" class="node"><title>11</title>
<path fill="#bfe6e6" stroke="black" d="M2252.5,-202C2252.5,-202 2034.5,-202 2034.5,-202 2028.5,-202 2022.5,-196 2022.5,-190 2022.5,-190 2022.5,-176 2022.5,-176 2022.5,-170 2028.5,-164 2034.5,-164 2034.5,-164 2252.5,-164 2252.5,-164 2258.5,-164 2264.5,-170 2264.5,-176 2264.5,-176 2264.5,-190 2264.5,-190 2264.5,-196 2258.5,-202 2252.5,-202"/>
<text text-anchor="middle" x="2143.5" y="-186.8" font-family="Times,serif" font-size="14.00">comp 1</text>
<text text-anchor="middle" x="2143.5" y="-171.8" font-family="Times,serif" font-size="14.00">log gamma1: &#45;1.508071 &#160;&#160;n kernels: &#45;128</text>
</g>
<!-- 2&#45;&gt;11 -->
<g id="edge11" class="edge"><title>2&#45;&gt;11</title>
<path fill="none" stroke="black" d="M2592.64,-280.027C2513.73,-267.712 2414.36,-250.876 2326.5,-232 2289.97,-224.151 2249.76,-213.798 2216.36,-204.717"/>
<polygon fill="black" stroke="black" points="2217.25,-201.332 2206.68,-202.069 2215.4,-208.084 2217.25,-201.332"/>
</g>
<!-- 12 -->
<g id="node13" class="node"><title>12</title>
<path fill="#abcece" stroke="black" d="M2611,-202C2611,-202 2348,-202 2348,-202 2342,-202 2336,-196 2336,-190 2336,-190 2336,-176 2336,-176 2336,-170 2342,-164 2348,-164 2348,-164 2611,-164 2611,-164 2617,-164 2623,-170 2623,-176 2623,-176 2623,-190 2623,-190 2623,-196 2617,-202 2611,-202"/>
<text text-anchor="middle" x="2479.5" y="-186.8" font-family="Times,serif" font-size="14.00">comp 2</text>
<text text-anchor="middle" x="2479.5" y="-171.8" font-family="Times,serif" font-size="14.00">log gamma1: &#45;0.548550 &#160;&#160;log gamma2: 1.638303</text>
</g>
<!-- 2&#45;&gt;12 -->
<g id="edge12" class="edge"><title>2&#45;&gt;12</title>
<path fill="none" stroke="black" d="M2663.88,-267.942C2620.64,-248.256 2566.92,-223.798 2528.64,-206.37"/>
<polygon fill="black" stroke="black" points="2529.8,-203.056 2519.25,-202.098 2526.9,-209.427 2529.8,-203.056"/>
</g>
<!-- 13 -->
<g id="node14" class="node"><title>13</title>
<path fill="#97b6b6" stroke="black" d="M2753.5,-201C2753.5,-201 2719.5,-201 2719.5,-201 2713.5,-201 2707.5,-195 2707.5,-189 2707.5,-189 2707.5,-177 2707.5,-177 2707.5,-171 2713.5,-165 2719.5,-165 2719.5,-165 2753.5,-165 2753.5,-165 2759.5,-165 2765.5,-171 2765.5,-177 2765.5,-177 2765.5,-189 2765.5,-189 2765.5,-195 2759.5,-201 2753.5,-201"/>
<text text-anchor="middle" x="2736.5" y="-179.3" font-family="Times,serif" font-size="14.00">comp 3</text>
</g>
<!-- 2&#45;&gt;13 -->
<g id="edge13" class="edge"><title>2&#45;&gt;13</title>
<path fill="none" stroke="black" d="M2736.5,-267.785C2736.5,-249.94 2736.5,-228.208 2736.5,-211.349"/>
<polygon fill="black" stroke="black" points="2740,-211.064 2736.5,-201.064 2733,-211.064 2740,-211.064"/>
</g>
<!-- 14 -->
<g id="node15" class="node"><title>14</title>
<path fill="#839e9e" stroke="black" d="M3017.5,-202C3017.5,-202 2897.5,-202 2897.5,-202 2891.5,-202 2885.5,-196 2885.5,-190 2885.5,-190 2885.5,-176 2885.5,-176 2885.5,-170 2891.5,-164 2897.5,-164 2897.5,-164 3017.5,-164 3017.5,-164 3023.5,-164 3029.5,-170 3029.5,-176 3029.5,-176 3029.5,-190 3029.5,-190 3029.5,-196 3023.5,-202 3017.5,-202"/>
<text text-anchor="middle" x="2957.5" y="-186.8" font-family="Times,serif" font-size="14.00">comp 4</text>
<text text-anchor="middle" x="2957.5" y="-171.8" font-family="Times,serif" font-size="14.00">log gamma2: 1.899688</text>
</g>
<!-- 2&#45;&gt;14 -->
<g id="edge14" class="edge"><title>2&#45;&gt;14</title>
<path fill="none" stroke="black" d="M2798.94,-267.942C2835.81,-248.423 2881.54,-224.212 2914.41,-206.814"/>
<polygon fill="black" stroke="black" points="2916.11,-209.87 2923.32,-202.098 2912.84,-203.683 2916.11,-209.87"/>
</g>
<!-- 15 -->
<g id="node16" class="node"><title>15</title>
<path fill="#6f8585" stroke="black" d="M3330.5,-202C3330.5,-202 3184.5,-202 3184.5,-202 3178.5,-202 3172.5,-196 3172.5,-190 3172.5,-190 3172.5,-176 3172.5,-176 3172.5,-170 3178.5,-164 3184.5,-164 3184.5,-164 3330.5,-164 3330.5,-164 3336.5,-164 3342.5,-170 3342.5,-176 3342.5,-176 3342.5,-190 3342.5,-190 3342.5,-196 3336.5,-202 3330.5,-202"/>
<text text-anchor="middle" x="3257.5" y="-186.8" font-family="Times,serif" font-size="14.00">path end 1</text>
<text text-anchor="middle" x="3257.5" y="-171.8" font-family="Times,serif" font-size="14.00">k width: &#45;2 &#160;&#160;n kernels: &#45;128</text>
</g>
<!-- 2&#45;&gt;15 -->
<g id="edge15" class="edge"><title>2&#45;&gt;15</title>
<path fill="none" stroke="black" d="M2880.24,-268.72C2972.1,-248.092 3088.37,-221.982 3167.38,-204.238"/>
<polygon fill="black" stroke="black" points="3168.32,-207.614 3177.31,-202.008 3166.79,-200.784 3168.32,-207.614"/>
</g>
<!-- 16 -->
<g id="node17" class="node"><title>16</title>
<path fill="#d3ffff" stroke="black" d="M3887,-202C3887,-202 3674,-202 3674,-202 3668,-202 3662,-196 3662,-190 3662,-190 3662,-176 3662,-176 3662,-170 3668,-164 3674,-164 3674,-164 3887,-164 3887,-164 3893,-164 3899,-170 3899,-176 3899,-176 3899,-190 3899,-190 3899,-196 3893,-202 3887,-202"/>
<text text-anchor="middle" x="3780.5" y="-186.8" font-family="Times,serif" font-size="14.00">comp 0</text>
<text text-anchor="middle" x="3780.5" y="-171.8" font-family="Times,serif" font-size="14.00">log gamma2: 1.840880 &#160;&#160;n kernels: &#45;384</text>
</g>
<!-- 3&#45;&gt;16 -->
<g id="edge16" class="edge"><title>3&#45;&gt;16</title>
<path fill="none" stroke="black" d="M4222.97,-282.997C4156.89,-269.409 4064.43,-250.077 3983.5,-232 3944.57,-223.304 3901.56,-213.206 3865.19,-204.521"/>
<polygon fill="black" stroke="black" points="3865.66,-201.034 3855.12,-202.111 3864.03,-207.842 3865.66,-201.034"/>
</g>
<!-- 17 -->
<g id="node18" class="node"><title>17</title>
<path fill="#bfe6e6" stroke="black" d="M4130,-202C4130,-202 4005,-202 4005,-202 3999,-202 3993,-196 3993,-190 3993,-190 3993,-176 3993,-176 3993,-170 3999,-164 4005,-164 4005,-164 4130,-164 4130,-164 4136,-164 4142,-170 4142,-176 4142,-176 4142,-190 4142,-190 4142,-196 4136,-202 4130,-202"/>
<text text-anchor="middle" x="4067.5" y="-186.8" font-family="Times,serif" font-size="14.00">comp 1</text>
<text text-anchor="middle" x="4067.5" y="-171.8" font-family="Times,serif" font-size="14.00">log gamma1: &#45;0.514787</text>
</g>
<!-- 3&#45;&gt;17 -->
<g id="edge17" class="edge"><title>3&#45;&gt;17</title>
<path fill="none" stroke="black" d="M4273.91,-282.975C4231.01,-262.406 4160.81,-228.742 4114.37,-206.477"/>
<polygon fill="black" stroke="black" points="4115.66,-203.213 4105.13,-202.045 4112.64,-209.525 4115.66,-203.213"/>
</g>
<!-- 18 -->
<g id="node19" class="node"><title>18</title>
<path fill="#abcece" stroke="black" d="M4371.5,-202C4371.5,-202 4251.5,-202 4251.5,-202 4245.5,-202 4239.5,-196 4239.5,-190 4239.5,-190 4239.5,-176 4239.5,-176 4239.5,-170 4245.5,-164 4251.5,-164 4251.5,-164 4371.5,-164 4371.5,-164 4377.5,-164 4383.5,-170 4383.5,-176 4383.5,-176 4383.5,-190 4383.5,-190 4383.5,-196 4377.5,-202 4371.5,-202"/>
<text text-anchor="middle" x="4311.5" y="-186.8" font-family="Times,serif" font-size="14.00">comp 2</text>
<text text-anchor="middle" x="4311.5" y="-171.8" font-family="Times,serif" font-size="14.00">log gamma2: 0.151529</text>
</g>
<!-- 3&#45;&gt;18 -->
<g id="edge18" class="edge"><title>3&#45;&gt;18</title>
<path fill="none" stroke="black" d="M4311.5,-282.975C4311.5,-264.136 4311.5,-234.311 4311.5,-212.321"/>
<polygon fill="black" stroke="black" points="4315,-212.238 4311.5,-202.238 4308,-212.238 4315,-212.238"/>
</g>
<!-- 19 -->
<g id="node20" class="node"><title>19</title>
<path fill="#97b6b6" stroke="black" d="M4681.5,-202C4681.5,-202 4413.5,-202 4413.5,-202 4407.5,-202 4401.5,-196 4401.5,-190 4401.5,-190 4401.5,-176 4401.5,-176 4401.5,-170 4407.5,-164 4413.5,-164 4413.5,-164 4681.5,-164 4681.5,-164 4687.5,-164 4693.5,-170 4693.5,-176 4693.5,-176 4693.5,-190 4693.5,-190 4693.5,-196 4687.5,-202 4681.5,-202"/>
<text text-anchor="middle" x="4547.5" y="-186.8" font-family="Times,serif" font-size="14.00">comp 3</text>
<text text-anchor="middle" x="4547.5" y="-171.8" font-family="Times,serif" font-size="14.00">log gamma1: &#45;0.105382 &#160;&#160;log gamma2: &#45;1.272140</text>
</g>
<!-- 3&#45;&gt;19 -->
<g id="edge19" class="edge"><title>3&#45;&gt;19</title>
<path fill="none" stroke="black" d="M4347.86,-282.975C4389.26,-262.449 4456.97,-228.882 4501.88,-206.616"/>
<polygon fill="black" stroke="black" points="4503.7,-209.623 4511.1,-202.045 4500.59,-203.351 4503.7,-209.623"/>
</g>
<!-- 20 -->
<g id="node21" class="node"><title>20</title>
<path fill="#839e9e" stroke="black" d="M4987,-202C4987,-202 4724,-202 4724,-202 4718,-202 4712,-196 4712,-190 4712,-190 4712,-176 4712,-176 4712,-170 4718,-164 4724,-164 4724,-164 4987,-164 4987,-164 4993,-164 4999,-170 4999,-176 4999,-176 4999,-190 4999,-190 4999,-196 4993,-202 4987,-202"/>
<text text-anchor="middle" x="4855.5" y="-186.8" font-family="Times,serif" font-size="14.00">comp 4</text>
<text text-anchor="middle" x="4855.5" y="-171.8" font-family="Times,serif" font-size="14.00">log gamma1: &#45;1.152764 &#160;&#160;log gamma2: 0.705607</text>
</g>
<!-- 3&#45;&gt;20 -->
<g id="edge20" class="edge"><title>3&#45;&gt;20</title>
<path fill="none" stroke="black" d="M4404.24,-288.092C4483.91,-276.182 4601.55,-256.633 4702.5,-232 4733.1,-224.532 4766.55,-214.288 4794.34,-205.181"/>
<polygon fill="black" stroke="black" points="4795.52,-208.475 4803.92,-202.013 4793.33,-201.829 4795.52,-208.475"/>
</g>
<!-- 21 -->
<g id="node22" class="node"><title>21</title>
<path fill="#6f8585" stroke="black" d="M5175.5,-202C5175.5,-202 5029.5,-202 5029.5,-202 5023.5,-202 5017.5,-196 5017.5,-190 5017.5,-190 5017.5,-176 5017.5,-176 5017.5,-170 5023.5,-164 5029.5,-164 5029.5,-164 5175.5,-164 5175.5,-164 5181.5,-164 5187.5,-170 5187.5,-176 5187.5,-176 5187.5,-190 5187.5,-190 5187.5,-196 5181.5,-202 5175.5,-202"/>
<text text-anchor="middle" x="5102.5" y="-186.8" font-family="Times,serif" font-size="14.00">path end 2</text>
<text text-anchor="middle" x="5102.5" y="-171.8" font-family="Times,serif" font-size="14.00">k width: &#45;2 &#160;&#160;n kernels: &#45;384</text>
</g>
<!-- 3&#45;&gt;21 -->
<g id="edge21" class="edge"><title>3&#45;&gt;21</title>
<path fill="none" stroke="black" d="M4404.02,-296.055C4566.57,-286.665 4896.67,-264.269 5007.5,-232 5027.26,-226.247 5047.81,-216.414 5064.72,-207.141"/>
<polygon fill="black" stroke="black" points="5066.71,-210.033 5073.71,-202.076 5063.28,-203.934 5066.71,-210.033"/>
</g>
<!-- 22 -->
<g id="node23" class="node"><title>22</title>
<path fill="#d3ffff" stroke="black" d="M5499,-232C5499,-232 5218,-232 5218,-232 5212,-232 5206,-226 5206,-220 5206,-220 5206,-146 5206,-146 5206,-140 5212,-134 5218,-134 5218,-134 5499,-134 5499,-134 5505,-134 5511,-140 5511,-146 5511,-146 5511,-220 5511,-220 5511,-226 5505,-232 5499,-232"/>
<text text-anchor="middle" x="5358.5" y="-216.8" font-family="Times,serif" font-size="14.00">forward</text>
<text text-anchor="middle" x="5358.5" y="-201.8" font-family="Times,serif" font-size="14.00">CB0/C4</text>
<text text-anchor="middle" x="5358.5" y="-186.8" font-family="Times,serif" font-size="14.00">dilation rate: 1 &#160;&#160;k width: 3</text>
<text text-anchor="middle" x="5358.5" y="-171.8" font-family="Times,serif" font-size="14.00">log gamma1: &#45;11.000000 &#160;&#160;log gamma2: &#45;11.000000</text>
<text text-anchor="middle" x="5358.5" y="-156.8" font-family="Times,serif" font-size="14.00">log lambda1: &#45;11.000000 &#160;&#160;log lambda2: &#45;11.000000</text>
<text text-anchor="middle" x="5358.5" y="-141.8" font-family="Times,serif" font-size="14.00">n kernels: 64</text>
</g>
<!-- 4&#45;&gt;22 -->
<g id="edge22" class="edge"><title>4&#45;&gt;22</title>
<path fill="none" stroke="black" d="M5496.09,-283.987C5479.39,-271.851 5455.94,-254.808 5433.12,-238.224"/>
<polygon fill="black" stroke="black" points="5434.9,-235.193 5424.75,-232.146 5430.78,-240.856 5434.9,-235.193"/>
</g>
<!-- 23 -->
<g id="node24" class="node"><title>23</title>
<path fill="#bfe6e6" stroke="black" d="M5822,-232C5822,-232 5541,-232 5541,-232 5535,-232 5529,-226 5529,-220 5529,-220 5529,-146 5529,-146 5529,-140 5535,-134 5541,-134 5541,-134 5822,-134 5822,-134 5828,-134 5834,-140 5834,-146 5834,-146 5834,-220 5834,-220 5834,-226 5828,-232 5822,-232"/>
<text text-anchor="middle" x="5681.5" y="-216.8" font-family="Times,serif" font-size="14.00">residual 1</text>
<text text-anchor="middle" x="5681.5" y="-201.8" font-family="Times,serif" font-size="14.00">CB1/PE1</text>
<text text-anchor="middle" x="5681.5" y="-186.8" font-family="Times,serif" font-size="14.00">dilation rate: 1 &#160;&#160;k width: 3</text>
<text text-anchor="middle" x="5681.5" y="-171.8" font-family="Times,serif" font-size="14.00">log gamma1: &#45;11.000000 &#160;&#160;log gamma2: &#45;11.000000</text>
<text text-anchor="middle" x="5681.5" y="-156.8" font-family="Times,serif" font-size="14.00">log lambda1: &#45;11.000000 &#160;&#160;log lambda2: &#45;11.000000</text>
<text text-anchor="middle" x="5681.5" y="-141.8" font-family="Times,serif" font-size="14.00">n kernels: 64</text>
</g>
<!-- 4&#45;&gt;23 -->
<g id="edge23" class="edge"><title>4&#45;&gt;23</title>
<path fill="none" stroke="black" d="M5543.06,-283.987C5559.93,-271.798 5583.67,-254.658 5606.72,-238.006"/>
<polygon fill="black" stroke="black" points="5608.78,-240.838 5614.84,-232.146 5604.68,-235.163 5608.78,-240.838"/>
</g>
<!-- 24 -->
<g id="node25" class="node"><title>24</title>
<path fill="#abcece" stroke="black" d="M6145,-232C6145,-232 5864,-232 5864,-232 5858,-232 5852,-226 5852,-220 5852,-220 5852,-146 5852,-146 5852,-140 5858,-134 5864,-134 5864,-134 6145,-134 6145,-134 6151,-134 6157,-140 6157,-146 6157,-146 6157,-220 6157,-220 6157,-226 6151,-232 6145,-232"/>
<text text-anchor="middle" x="6004.5" y="-216.8" font-family="Times,serif" font-size="14.00">residual 2</text>
<text text-anchor="middle" x="6004.5" y="-201.8" font-family="Times,serif" font-size="14.00">CB2/PE2</text>
<text text-anchor="middle" x="6004.5" y="-186.8" font-family="Times,serif" font-size="14.00">dilation rate: 1 &#160;&#160;k width: 3</text>
<text text-anchor="middle" x="6004.5" y="-171.8" font-family="Times,serif" font-size="14.00">log gamma1: &#45;11.000000 &#160;&#160;log gamma2: &#45;11.000000</text>
<text text-anchor="middle" x="6004.5" y="-156.8" font-family="Times,serif" font-size="14.00">log lambda1: &#45;11.000000 &#160;&#160;log lambda2: &#45;11.000000</text>
<text text-anchor="middle" x="6004.5" y="-141.8" font-family="Times,serif" font-size="14.00">n kernels: 64</text>
</g>
<!-- 4&#45;&gt;24 -->
<g id="edge24" class="edge"><title>4&#45;&gt;24</title>
<path fill="none" stroke="black" d="M5565.23,-292.393C5626.14,-280.671 5737.42,-258.369 5842.17,-232.033"/>
<polygon fill="black" stroke="black" points="5843.13,-235.402 5851.96,-229.555 5841.41,-228.616 5843.13,-235.402"/>
</g>
<!-- 25 -->
<g id="node26" class="node"><title>25</title>
<path fill="#e9d3ff" stroke="black" d="M293,-98C293,-98 12,-98 12,-98 6,-98 0,-92 0,-86 0,-86 0,-12 0,-12 0,-6 6,-0 12,-0 12,-0 293,-0 293,-0 299,-0 305,-6 305,-12 305,-12 305,-86 305,-86 305,-92 299,-98 293,-98"/>
<text text-anchor="middle" x="152.5" y="-82.8" font-family="Times,serif" font-size="14.00">forward</text>
<text text-anchor="middle" x="152.5" y="-67.8" font-family="Times,serif" font-size="14.00">input</text>
<text text-anchor="middle" x="152.5" y="-52.8" font-family="Times,serif" font-size="14.00">dilation rate: 1 &#160;&#160;k width: 3</text>
<text text-anchor="middle" x="152.5" y="-37.8" font-family="Times,serif" font-size="14.00">log gamma1: &#45;11.000000 &#160;&#160;log gamma2: &#45;11.000000</text>
<text text-anchor="middle" x="152.5" y="-22.8" font-family="Times,serif" font-size="14.00">log lambda1: &#45;11.000000 &#160;&#160;log lambda2: &#45;11.000000</text>
<text text-anchor="middle" x="152.5" y="-7.8" font-family="Times,serif" font-size="14.00">n kernels: 64</text>
</g>
<!-- 5&#45;&gt;25 -->
<g id="edge25" class="edge"><title>5&#45;&gt;25</title>
<path fill="none" stroke="black" d="M253.477,-163.923C240.155,-148.893 220.457,-126.67 201.988,-105.832"/>
<polygon fill="black" stroke="black" points="204.505,-103.396 195.253,-98.2336 199.266,-108.039 204.505,-103.396"/>
</g>
<!-- 26 -->
<g id="node27" class="node"><title>26</title>
<path fill="#e9d3ff" stroke="black" d="M616,-98C616,-98 335,-98 335,-98 329,-98 323,-92 323,-86 323,-86 323,-12 323,-12 323,-6 329,-0 335,-0 335,-0 616,-0 616,-0 622,-0 628,-6 628,-12 628,-12 628,-86 628,-86 628,-92 622,-98 616,-98"/>
<text text-anchor="middle" x="475.5" y="-82.8" font-family="Times,serif" font-size="14.00">forward</text>
<text text-anchor="middle" x="475.5" y="-67.8" font-family="Times,serif" font-size="14.00">CB0/C0</text>
<text text-anchor="middle" x="475.5" y="-52.8" font-family="Times,serif" font-size="14.00">dilation rate: 1 &#160;&#160;k width: 3</text>
<text text-anchor="middle" x="475.5" y="-37.8" font-family="Times,serif" font-size="14.00">log gamma1: &#45;11.000000 &#160;&#160;log gamma2: &#45;11.000000</text>
<text text-anchor="middle" x="475.5" y="-22.8" font-family="Times,serif" font-size="14.00">log lambda1: &#45;11.000000 &#160;&#160;log lambda2: &#45;11.000000</text>
<text text-anchor="middle" x="475.5" y="-7.8" font-family="Times,serif" font-size="14.00">n kernels: 64</text>
</g>
<!-- 6&#45;&gt;26 -->
<g id="edge26" class="edge"><title>6&#45;&gt;26</title>
<path fill="none" stroke="black" d="M562.427,-164.743C551.113,-149.809 534.1,-127.353 518.117,-106.254"/>
<polygon fill="black" stroke="black" points="520.884,-104.111 512.056,-98.2533 515.304,-108.338 520.884,-104.111"/>
</g>
<!-- 27 -->
<g id="node28" class="node"><title>27</title>
<path fill="#e9d3ff" stroke="black" d="M939,-98C939,-98 658,-98 658,-98 652,-98 646,-92 646,-86 646,-86 646,-12 646,-12 646,-6 652,-0 658,-0 658,-0 939,-0 939,-0 945,-0 951,-6 951,-12 951,-12 951,-86 951,-86 951,-92 945,-98 939,-98"/>
<text text-anchor="middle" x="798.5" y="-82.8" font-family="Times,serif" font-size="14.00">forward</text>
<text text-anchor="middle" x="798.5" y="-67.8" font-family="Times,serif" font-size="14.00">CB0/C1</text>
<text text-anchor="middle" x="798.5" y="-52.8" font-family="Times,serif" font-size="14.00">dilation rate: 1 &#160;&#160;k width: 3</text>
<text text-anchor="middle" x="798.5" y="-37.8" font-family="Times,serif" font-size="14.00">log gamma1: &#45;11.000000 &#160;&#160;log gamma2: &#45;11.000000</text>
<text text-anchor="middle" x="798.5" y="-22.8" font-family="Times,serif" font-size="14.00">log lambda1: &#45;11.000000 &#160;&#160;log lambda2: &#45;11.000000</text>
<text text-anchor="middle" x="798.5" y="-7.8" font-family="Times,serif" font-size="14.00">n kernels: 64</text>
</g>
<!-- 7&#45;&gt;27 -->
<g id="edge27" class="edge"><title>7&#45;&gt;27</title>
<path fill="none" stroke="black" d="M830.433,-163.923C826.368,-149.42 820.425,-128.221 814.766,-108.03"/>
<polygon fill="black" stroke="black" points="818.089,-106.918 812.02,-98.2336 811.349,-108.807 818.089,-106.918"/>
</g>
<!-- 28 -->
<g id="node29" class="node"><title>28</title>
<path fill="#e9d3ff" stroke="black" d="M1262,-98C1262,-98 981,-98 981,-98 975,-98 969,-92 969,-86 969,-86 969,-12 969,-12 969,-6 975,-0 981,-0 981,-0 1262,-0 1262,-0 1268,-0 1274,-6 1274,-12 1274,-12 1274,-86 1274,-86 1274,-92 1268,-98 1262,-98"/>
<text text-anchor="middle" x="1121.5" y="-82.8" font-family="Times,serif" font-size="14.00">forward</text>
<text text-anchor="middle" x="1121.5" y="-67.8" font-family="Times,serif" font-size="14.00">CB0/C2</text>
<text text-anchor="middle" x="1121.5" y="-52.8" font-family="Times,serif" font-size="14.00">dilation rate: 1 &#160;&#160;k width: 3</text>
<text text-anchor="middle" x="1121.5" y="-37.8" font-family="Times,serif" font-size="14.00">log gamma1: &#45;11.000000 &#160;&#160;log gamma2: &#45;11.000000</text>
<text text-anchor="middle" x="1121.5" y="-22.8" font-family="Times,serif" font-size="14.00">log lambda1: &#45;11.000000 &#160;&#160;log lambda2: &#45;11.000000</text>
<text text-anchor="middle" x="1121.5" y="-7.8" font-family="Times,serif" font-size="14.00">n kernels: 64</text>
</g>
<!-- 8&#45;&gt;28 -->
<g id="edge28" class="edge"><title>8&#45;&gt;28</title>
<path fill="none" stroke="black" d="M1056.77,-163.923C1065.16,-149.157 1077.5,-127.447 1089.15,-106.93"/>
<polygon fill="black" stroke="black" points="1092.2,-108.657 1094.09,-98.2336 1086.11,-105.199 1092.2,-108.657"/>
</g>
<!-- 29 -->
<g id="node30" class="node"><title>29</title>
<path fill="#e9d3ff" stroke="black" d="M1585,-98C1585,-98 1304,-98 1304,-98 1298,-98 1292,-92 1292,-86 1292,-86 1292,-12 1292,-12 1292,-6 1298,-0 1304,-0 1304,-0 1585,-0 1585,-0 1591,-0 1597,-6 1597,-12 1597,-12 1597,-86 1597,-86 1597,-92 1591,-98 1585,-98"/>
<text text-anchor="middle" x="1444.5" y="-82.8" font-family="Times,serif" font-size="14.00">forward</text>
<text text-anchor="middle" x="1444.5" y="-67.8" font-family="Times,serif" font-size="14.00">CB0/C3</text>
<text text-anchor="middle" x="1444.5" y="-52.8" font-family="Times,serif" font-size="14.00">dilation rate: 1 &#160;&#160;k width: 3</text>
<text text-anchor="middle" x="1444.5" y="-37.8" font-family="Times,serif" font-size="14.00">log gamma1: &#45;11.000000 &#160;&#160;log gamma2: &#45;11.000000</text>
<text text-anchor="middle" x="1444.5" y="-22.8" font-family="Times,serif" font-size="14.00">log lambda1: &#45;11.000000 &#160;&#160;log lambda2: &#45;11.000000</text>
<text text-anchor="middle" x="1444.5" y="-7.8" font-family="Times,serif" font-size="14.00">n kernels: 64</text>
</g>
<!-- 9&#45;&gt;29 -->
<g id="edge29" class="edge"><title>9&#45;&gt;29</title>
<path fill="none" stroke="black" d="M1359.92,-163.923C1370.98,-149.025 1387.29,-127.059 1402.64,-106.381"/>
<polygon fill="black" stroke="black" points="1405.54,-108.349 1408.69,-98.2336 1399.92,-104.176 1405.54,-108.349"/>
</g>
<!-- 30 -->
<g id="node31" class="node"><title>30</title>
<path fill="#e9d3ff" stroke="black" d="M1908,-98C1908,-98 1627,-98 1627,-98 1621,-98 1615,-92 1615,-86 1615,-86 1615,-12 1615,-12 1615,-6 1621,-0 1627,-0 1627,-0 1908,-0 1908,-0 1914,-0 1920,-6 1920,-12 1920,-12 1920,-86 1920,-86 1920,-92 1914,-98 1908,-98"/>
<text text-anchor="middle" x="1767.5" y="-82.8" font-family="Times,serif" font-size="14.00">forward</text>
<text text-anchor="middle" x="1767.5" y="-67.8" font-family="Times,serif" font-size="14.00">input</text>
<text text-anchor="middle" x="1767.5" y="-52.8" font-family="Times,serif" font-size="14.00">dilation rate: 1 &#160;&#160;k width: 3</text>
<text text-anchor="middle" x="1767.5" y="-37.8" font-family="Times,serif" font-size="14.00">log gamma1: &#45;11.000000 &#160;&#160;log gamma2: &#45;11.000000</text>
<text text-anchor="middle" x="1767.5" y="-22.8" font-family="Times,serif" font-size="14.00">log lambda1: &#45;11.000000 &#160;&#160;log lambda2: &#45;11.000000</text>
<text text-anchor="middle" x="1767.5" y="-7.8" font-family="Times,serif" font-size="14.00">n kernels: 64</text>
</g>
<!-- 10&#45;&gt;30 -->
<g id="edge30" class="edge"><title>10&#45;&gt;30</title>
<path fill="none" stroke="black" d="M1857.9,-164.743C1846.14,-149.809 1828.44,-127.353 1811.82,-106.254"/>
<polygon fill="black" stroke="black" points="1814.46,-103.942 1805.52,-98.2533 1808.96,-108.274 1814.46,-103.942"/>
</g>
<!-- 31 -->
<g id="node32" class="node"><title>31</title>
<path fill="#e9d3ff" stroke="black" d="M2231,-98C2231,-98 1950,-98 1950,-98 1944,-98 1938,-92 1938,-86 1938,-86 1938,-12 1938,-12 1938,-6 1944,-0 1950,-0 1950,-0 2231,-0 2231,-0 2237,-0 2243,-6 2243,-12 2243,-12 2243,-86 2243,-86 2243,-92 2237,-98 2231,-98"/>
<text text-anchor="middle" x="2090.5" y="-82.8" font-family="Times,serif" font-size="14.00">forward</text>
<text text-anchor="middle" x="2090.5" y="-67.8" font-family="Times,serif" font-size="14.00">CB1/C0</text>
<text text-anchor="middle" x="2090.5" y="-52.8" font-family="Times,serif" font-size="14.00">dilation rate: 1 &#160;&#160;k width: 3</text>
<text text-anchor="middle" x="2090.5" y="-37.8" font-family="Times,serif" font-size="14.00">log gamma1: &#45;11.000000 &#160;&#160;log gamma2: &#45;11.000000</text>
<text text-anchor="middle" x="2090.5" y="-22.8" font-family="Times,serif" font-size="14.00">log lambda1: &#45;11.000000 &#160;&#160;log lambda2: &#45;11.000000</text>
<text text-anchor="middle" x="2090.5" y="-7.8" font-family="Times,serif" font-size="14.00">n kernels: 64</text>
</g>
<!-- 11&#45;&gt;31 -->
<g id="edge31" class="edge"><title>11&#45;&gt;31</title>
<path fill="none" stroke="black" d="M2136.24,-163.923C2130.39,-149.355 2121.83,-128.028 2113.69,-107.755"/>
<polygon fill="black" stroke="black" points="2116.84,-106.209 2109.87,-98.2336 2110.34,-108.818 2116.84,-106.209"/>
</g>
<!-- 32 -->
<g id="node33" class="node"><title>32</title>
<path fill="#e9d3ff" stroke="black" d="M2554,-98C2554,-98 2273,-98 2273,-98 2267,-98 2261,-92 2261,-86 2261,-86 2261,-12 2261,-12 2261,-6 2267,-0 2273,-0 2273,-0 2554,-0 2554,-0 2560,-0 2566,-6 2566,-12 2566,-12 2566,-86 2566,-86 2566,-92 2560,-98 2554,-98"/>
<text text-anchor="middle" x="2413.5" y="-82.8" font-family="Times,serif" font-size="14.00">forward</text>
<text text-anchor="middle" x="2413.5" y="-67.8" font-family="Times,serif" font-size="14.00">CB1/C1</text>
<text text-anchor="middle" x="2413.5" y="-52.8" font-family="Times,serif" font-size="14.00">dilation rate: 1 &#160;&#160;k width: 3</text>
<text text-anchor="middle" x="2413.5" y="-37.8" font-family="Times,serif" font-size="14.00">log gamma1: &#45;11.000000 &#160;&#160;log gamma2: &#45;11.000000</text>
<text text-anchor="middle" x="2413.5" y="-22.8" font-family="Times,serif" font-size="14.00">log lambda1: &#45;11.000000 &#160;&#160;log lambda2: &#45;11.000000</text>
<text text-anchor="middle" x="2413.5" y="-7.8" font-family="Times,serif" font-size="14.00">n kernels: 64</text>
</g>
<!-- 12&#45;&gt;32 -->
<g id="edge32" class="edge"><title>12&#45;&gt;32</title>
<path fill="none" stroke="black" d="M2470.46,-163.923C2463.11,-149.223 2452.32,-127.641 2442.1,-107.205"/>
<polygon fill="black" stroke="black" points="2445.22,-105.613 2437.62,-98.2336 2438.96,-108.743 2445.22,-105.613"/>
</g>
<!-- 33 -->
<g id="node34" class="node"><title>33</title>
<path fill="#e9d3ff" stroke="black" d="M2877,-98C2877,-98 2596,-98 2596,-98 2590,-98 2584,-92 2584,-86 2584,-86 2584,-12 2584,-12 2584,-6 2590,-0 2596,-0 2596,-0 2877,-0 2877,-0 2883,-0 2889,-6 2889,-12 2889,-12 2889,-86 2889,-86 2889,-92 2883,-98 2877,-98"/>
<text text-anchor="middle" x="2736.5" y="-82.8" font-family="Times,serif" font-size="14.00">forward</text>
<text text-anchor="middle" x="2736.5" y="-67.8" font-family="Times,serif" font-size="14.00">CB1/C2</text>
<text text-anchor="middle" x="2736.5" y="-52.8" font-family="Times,serif" font-size="14.00">dilation rate: 1 &#160;&#160;k width: 3</text>
<text text-anchor="middle" x="2736.5" y="-37.8" font-family="Times,serif" font-size="14.00">log gamma1: &#45;11.000000 &#160;&#160;log gamma2: &#45;11.000000</text>
<text text-anchor="middle" x="2736.5" y="-22.8" font-family="Times,serif" font-size="14.00">log lambda1: &#45;11.000000 &#160;&#160;log lambda2: &#45;11.000000</text>
<text text-anchor="middle" x="2736.5" y="-7.8" font-family="Times,serif" font-size="14.00">n kernels: 64</text>
</g>
<!-- 13&#45;&gt;33 -->
<g id="edge33" class="edge"><title>13&#45;&gt;33</title>
<path fill="none" stroke="black" d="M2736.5,-164.743C2736.5,-150.336 2736.5,-128.926 2736.5,-108.49"/>
<polygon fill="black" stroke="black" points="2740,-108.253 2736.5,-98.2533 2733,-108.253 2740,-108.253"/>
</g>
<!-- 34 -->
<g id="node35" class="node"><title>34</title>
<path fill="#e9d3ff" stroke="black" d="M3200,-98C3200,-98 2919,-98 2919,-98 2913,-98 2907,-92 2907,-86 2907,-86 2907,-12 2907,-12 2907,-6 2913,-0 2919,-0 2919,-0 3200,-0 3200,-0 3206,-0 3212,-6 3212,-12 3212,-12 3212,-86 3212,-86 3212,-92 3206,-98 3200,-98"/>
<text text-anchor="middle" x="3059.5" y="-82.8" font-family="Times,serif" font-size="14.00">forward</text>
<text text-anchor="middle" x="3059.5" y="-67.8" font-family="Times,serif" font-size="14.00">CB1/C3</text>
<text text-anchor="middle" x="3059.5" y="-52.8" font-family="Times,serif" font-size="14.00">dilation rate: 1 &#160;&#160;k width: 3</text>
<text text-anchor="middle" x="3059.5" y="-37.8" font-family="Times,serif" font-size="14.00">log gamma1: &#45;11.000000 &#160;&#160;log gamma2: &#45;11.000000</text>
<text text-anchor="middle" x="3059.5" y="-22.8" font-family="Times,serif" font-size="14.00">log lambda1: &#45;11.000000 &#160;&#160;log lambda2: &#45;11.000000</text>
<text text-anchor="middle" x="3059.5" y="-7.8" font-family="Times,serif" font-size="14.00">n kernels: 64</text>
</g>
<!-- 14&#45;&gt;34 -->
<g id="edge34" class="edge"><title>14&#45;&gt;34</title>
<path fill="none" stroke="black" d="M2971.47,-163.923C2982.98,-149.025 2999.95,-127.059 3015.93,-106.381"/>
<polygon fill="black" stroke="black" points="3018.88,-108.287 3022.23,-98.2336 3013.34,-104.006 3018.88,-108.287"/>
</g>
<!-- 35 -->
<g id="node36" class="node"><title>35</title>
<path fill="#e9d3ff" stroke="black" d="M3523,-98C3523,-98 3242,-98 3242,-98 3236,-98 3230,-92 3230,-86 3230,-86 3230,-12 3230,-12 3230,-6 3236,-0 3242,-0 3242,-0 3523,-0 3523,-0 3529,-0 3535,-6 3535,-12 3535,-12 3535,-86 3535,-86 3535,-92 3529,-98 3523,-98"/>
<text text-anchor="middle" x="3382.5" y="-82.8" font-family="Times,serif" font-size="14.00">forward</text>
<text text-anchor="middle" x="3382.5" y="-67.8" font-family="Times,serif" font-size="14.00">CB1/C4</text>
<text text-anchor="middle" x="3382.5" y="-52.8" font-family="Times,serif" font-size="14.00">dilation rate: 1 &#160;&#160;k width: 3</text>
<text text-anchor="middle" x="3382.5" y="-37.8" font-family="Times,serif" font-size="14.00">log gamma1: &#45;11.000000 &#160;&#160;log gamma2: &#45;11.000000</text>
<text text-anchor="middle" x="3382.5" y="-22.8" font-family="Times,serif" font-size="14.00">log lambda1: &#45;11.000000 &#160;&#160;log lambda2: &#45;11.000000</text>
<text text-anchor="middle" x="3382.5" y="-7.8" font-family="Times,serif" font-size="14.00">n kernels: 64</text>
</g>
<!-- 15&#45;&gt;35 -->
<g id="edge35" class="edge"><title>15&#45;&gt;35</title>
<path fill="none" stroke="black" d="M3274.62,-163.923C3288.91,-148.827 3310.08,-126.475 3329.89,-105.558"/>
<polygon fill="black" stroke="black" points="3332.49,-107.901 3336.82,-98.2336 3327.41,-103.088 3332.49,-107.901"/>
</g>
<!-- 36 -->
<g id="node37" class="node"><title>36</title>
<path fill="#e9d3ff" stroke="black" d="M3846,-98C3846,-98 3565,-98 3565,-98 3559,-98 3553,-92 3553,-86 3553,-86 3553,-12 3553,-12 3553,-6 3559,-0 3565,-0 3565,-0 3846,-0 3846,-0 3852,-0 3858,-6 3858,-12 3858,-12 3858,-86 3858,-86 3858,-92 3852,-98 3846,-98"/>
<text text-anchor="middle" x="3705.5" y="-82.8" font-family="Times,serif" font-size="14.00">forward</text>
<text text-anchor="middle" x="3705.5" y="-67.8" font-family="Times,serif" font-size="14.00">input</text>
<text text-anchor="middle" x="3705.5" y="-52.8" font-family="Times,serif" font-size="14.00">dilation rate: 1 &#160;&#160;k width: 3</text>
<text text-anchor="middle" x="3705.5" y="-37.8" font-family="Times,serif" font-size="14.00">log gamma1: &#45;11.000000 &#160;&#160;log gamma2: &#45;11.000000</text>
<text text-anchor="middle" x="3705.5" y="-22.8" font-family="Times,serif" font-size="14.00">log lambda1: &#45;11.000000 &#160;&#160;log lambda2: &#45;11.000000</text>
<text text-anchor="middle" x="3705.5" y="-7.8" font-family="Times,serif" font-size="14.00">n kernels: 64</text>
</g>
<!-- 16&#45;&gt;36 -->
<g id="edge36" class="edge"><title>16&#45;&gt;36</title>
<path fill="none" stroke="black" d="M3770.23,-163.923C3761.84,-149.157 3749.5,-127.447 3737.85,-106.93"/>
<polygon fill="black" stroke="black" points="3740.89,-105.199 3732.91,-98.2336 3734.8,-108.657 3740.89,-105.199"/>
</g>
<!-- 37 -->
<g id="node38" class="node"><title>37</title>
<path fill="#e9d3ff" stroke="black" d="M4169,-98C4169,-98 3888,-98 3888,-98 3882,-98 3876,-92 3876,-86 3876,-86 3876,-12 3876,-12 3876,-6 3882,-0 3888,-0 3888,-0 4169,-0 4169,-0 4175,-0 4181,-6 4181,-12 4181,-12 4181,-86 4181,-86 4181,-92 4175,-98 4169,-98"/>
<text text-anchor="middle" x="4028.5" y="-82.8" font-family="Times,serif" font-size="14.00">forward</text>
<text text-anchor="middle" x="4028.5" y="-67.8" font-family="Times,serif" font-size="14.00">CB2/C0</text>
<text text-anchor="middle" x="4028.5" y="-52.8" font-family="Times,serif" font-size="14.00">dilation rate: 1 &#160;&#160;k width: 3</text>
<text text-anchor="middle" x="4028.5" y="-37.8" font-family="Times,serif" font-size="14.00">log gamma1: &#45;11.000000 &#160;&#160;log gamma2: &#45;11.000000</text>
<text text-anchor="middle" x="4028.5" y="-22.8" font-family="Times,serif" font-size="14.00">log lambda1: &#45;11.000000 &#160;&#160;log lambda2: &#45;11.000000</text>
<text text-anchor="middle" x="4028.5" y="-7.8" font-family="Times,serif" font-size="14.00">n kernels: 64</text>
</g>
<!-- 17&#45;&gt;37 -->
<g id="edge37" class="edge"><title>17&#45;&gt;37</title>
<path fill="none" stroke="black" d="M4062.16,-163.923C4057.87,-149.42 4051.61,-128.221 4045.65,-108.03"/>
<polygon fill="black" stroke="black" points="4048.94,-106.832 4042.75,-98.2336 4042.23,-108.816 4048.94,-106.832"/>
</g>
<!-- 38 -->
<g id="node39" class="node"><title>38</title>
<path fill="#e9d3ff" stroke="black" d="M4492,-98C4492,-98 4211,-98 4211,-98 4205,-98 4199,-92 4199,-86 4199,-86 4199,-12 4199,-12 4199,-6 4205,-0 4211,-0 4211,-0 4492,-0 4492,-0 4498,-0 4504,-6 4504,-12 4504,-12 4504,-86 4504,-86 4504,-92 4498,-98 4492,-98"/>
<text text-anchor="middle" x="4351.5" y="-82.8" font-family="Times,serif" font-size="14.00">forward</text>
<text text-anchor="middle" x="4351.5" y="-67.8" font-family="Times,serif" font-size="14.00">CB2/C1</text>
<text text-anchor="middle" x="4351.5" y="-52.8" font-family="Times,serif" font-size="14.00">dilation rate: 1 &#160;&#160;k width: 3</text>
<text text-anchor="middle" x="4351.5" y="-37.8" font-family="Times,serif" font-size="14.00">log gamma1: &#45;11.000000 &#160;&#160;log gamma2: &#45;11.000000</text>
<text text-anchor="middle" x="4351.5" y="-22.8" font-family="Times,serif" font-size="14.00">log lambda1: &#45;11.000000 &#160;&#160;log lambda2: &#45;11.000000</text>
<text text-anchor="middle" x="4351.5" y="-7.8" font-family="Times,serif" font-size="14.00">n kernels: 64</text>
</g>
<!-- 18&#45;&gt;38 -->
<g id="edge38" class="edge"><title>18&#45;&gt;38</title>
<path fill="none" stroke="black" d="M4316.98,-163.923C4321.37,-149.42 4327.8,-128.221 4333.92,-108.03"/>
<polygon fill="black" stroke="black" points="4337.33,-108.819 4336.88,-98.2336 4330.63,-106.789 4337.33,-108.819"/>
</g>
<!-- 39 -->
<g id="node40" class="node"><title>39</title>
<path fill="#e9d3ff" stroke="black" d="M4815,-98C4815,-98 4534,-98 4534,-98 4528,-98 4522,-92 4522,-86 4522,-86 4522,-12 4522,-12 4522,-6 4528,-0 4534,-0 4534,-0 4815,-0 4815,-0 4821,-0 4827,-6 4827,-12 4827,-12 4827,-86 4827,-86 4827,-92 4821,-98 4815,-98"/>
<text text-anchor="middle" x="4674.5" y="-82.8" font-family="Times,serif" font-size="14.00">forward</text>
<text text-anchor="middle" x="4674.5" y="-67.8" font-family="Times,serif" font-size="14.00">CB2/C2</text>
<text text-anchor="middle" x="4674.5" y="-52.8" font-family="Times,serif" font-size="14.00">dilation rate: 1 &#160;&#160;k width: 3</text>
<text text-anchor="middle" x="4674.5" y="-37.8" font-family="Times,serif" font-size="14.00">log gamma1: &#45;11.000000 &#160;&#160;log gamma2: &#45;11.000000</text>
<text text-anchor="middle" x="4674.5" y="-22.8" font-family="Times,serif" font-size="14.00">log lambda1: &#45;11.000000 &#160;&#160;log lambda2: &#45;11.000000</text>
<text text-anchor="middle" x="4674.5" y="-7.8" font-family="Times,serif" font-size="14.00">n kernels: 64</text>
</g>
<!-- 19&#45;&gt;39 -->
<g id="edge39" class="edge"><title>19&#45;&gt;39</title>
<path fill="none" stroke="black" d="M4564.89,-163.923C4579.42,-148.827 4600.92,-126.475 4621.05,-105.558"/>
<polygon fill="black" stroke="black" points="4623.68,-107.867 4628.09,-98.2336 4618.64,-103.013 4623.68,-107.867"/>
</g>
<!-- 40 -->
<g id="node41" class="node"><title>40</title>
<path fill="#e9d3ff" stroke="black" d="M5138,-98C5138,-98 4857,-98 4857,-98 4851,-98 4845,-92 4845,-86 4845,-86 4845,-12 4845,-12 4845,-6 4851,-0 4857,-0 4857,-0 5138,-0 5138,-0 5144,-0 5150,-6 5150,-12 5150,-12 5150,-86 5150,-86 5150,-92 5144,-98 5138,-98"/>
<text text-anchor="middle" x="4997.5" y="-82.8" font-family="Times,serif" font-size="14.00">forward</text>
<text text-anchor="middle" x="4997.5" y="-67.8" font-family="Times,serif" font-size="14.00">CB2/C3</text>
<text text-anchor="middle" x="4997.5" y="-52.8" font-family="Times,serif" font-size="14.00">dilation rate: 1 &#160;&#160;k width: 3</text>
<text text-anchor="middle" x="4997.5" y="-37.8" font-family="Times,serif" font-size="14.00">log gamma1: &#45;11.000000 &#160;&#160;log gamma2: &#45;11.000000</text>
<text text-anchor="middle" x="4997.5" y="-22.8" font-family="Times,serif" font-size="14.00">log lambda1: &#45;11.000000 &#160;&#160;log lambda2: &#45;11.000000</text>
<text text-anchor="middle" x="4997.5" y="-7.8" font-family="Times,serif" font-size="14.00">n kernels: 64</text>
</g>
<!-- 20&#45;&gt;40 -->
<g id="edge40" class="edge"><title>20&#45;&gt;40</title>
<path fill="none" stroke="black" d="M4874.95,-163.923C4891.26,-148.761 4915.44,-126.279 4938.03,-105.284"/>
<polygon fill="black" stroke="black" points="4940.67,-107.606 4945.61,-98.2336 4935.91,-102.479 4940.67,-107.606"/>
</g>
<!-- 41 -->
<g id="node42" class="node"><title>41</title>
<path fill="#e9d3ff" stroke="black" d="M5461,-98C5461,-98 5180,-98 5180,-98 5174,-98 5168,-92 5168,-86 5168,-86 5168,-12 5168,-12 5168,-6 5174,-0 5180,-0 5180,-0 5461,-0 5461,-0 5467,-0 5473,-6 5473,-12 5473,-12 5473,-86 5473,-86 5473,-92 5467,-98 5461,-98"/>
<text text-anchor="middle" x="5320.5" y="-82.8" font-family="Times,serif" font-size="14.00">forward</text>
<text text-anchor="middle" x="5320.5" y="-67.8" font-family="Times,serif" font-size="14.00">CB2/C4</text>
<text text-anchor="middle" x="5320.5" y="-52.8" font-family="Times,serif" font-size="14.00">dilation rate: 1 &#160;&#160;k width: 3</text>
<text text-anchor="middle" x="5320.5" y="-37.8" font-family="Times,serif" font-size="14.00">log gamma1: &#45;11.000000 &#160;&#160;log gamma2: &#45;11.000000</text>
<text text-anchor="middle" x="5320.5" y="-22.8" font-family="Times,serif" font-size="14.00">log lambda1: &#45;11.000000 &#160;&#160;log lambda2: &#45;11.000000</text>
<text text-anchor="middle" x="5320.5" y="-7.8" font-family="Times,serif" font-size="14.00">n kernels: 64</text>
</g>
<!-- 21&#45;&gt;41 -->
<g id="edge41" class="edge"><title>21&#45;&gt;41</title>
<path fill="none" stroke="black" d="M5132.35,-163.923C5158.05,-148.366 5196.47,-125.101 5231.91,-103.644"/>
<polygon fill="black" stroke="black" points="5234.1,-106.407 5240.84,-98.2336 5230.47,-100.419 5234.1,-106.407"/>
</g>
</g>
</svg>
