<?xml version="1.0" encoding="UTF-8" standalone="no"?>
<!DOCTYPE svg PUBLIC "-//W3C//DTD SVG 1.1//EN"
 "http://www.w3.org/Graphics/SVG/1.1/DTD/svg11.dtd">
<!-- Generated by graphviz version 2.38.0 (20140413.2041)
 -->
<!-- Title: %3 Pages: 1 -->
<svg width="2140pt" height="387pt"
 viewBox="0.00 0.00 2139.50 387.00" xmlns="http://www.w3.org/2000/svg" xmlns:xlink="http://www.w3.org/1999/xlink">
<g id="graph0" class="graph" transform="scale(1 1) rotate(0) translate(4 383)">
<title>%3</title>
<polygon fill="none" stroke="none" points="-4,4 -4,-383 2135.5,-383 2135.5,4 -4,4"/>
<!-- 0 -->
<g id="node1" class="node"><title>0</title>
<path fill="#ffd3d3" stroke="black" d="M1090.5,-379C1090.5,-379 1020.5,-379 1020.5,-379 1014.5,-379 1008.5,-373 1008.5,-367 1008.5,-367 1008.5,-353 1008.5,-353 1008.5,-347 1014.5,-341 1020.5,-341 1020.5,-341 1090.5,-341 1090.5,-341 1096.5,-341 1102.5,-347 1102.5,-353 1102.5,-353 1102.5,-367 1102.5,-367 1102.5,-373 1096.5,-379 1090.5,-379"/>
<text text-anchor="middle" x="1055.5" y="-363.8" font-family="Times,serif" font-size="14.00">net</text>
<text text-anchor="middle" x="1055.5" y="-348.8" font-family="Times,serif" font-size="14.00">n kernels: 145</text>
</g>
<!-- 1 -->
<g id="node2" class="node"><title>1</title>
<path fill="#f6ffd3" stroke="black" d="M1018,-305C1018,-305 755,-305 755,-305 749,-305 743,-299 743,-293 743,-293 743,-264 743,-264 743,-258 749,-252 755,-252 755,-252 1018,-252 1018,-252 1024,-252 1030,-258 1030,-264 1030,-264 1030,-293 1030,-293 1030,-299 1024,-305 1018,-305"/>
<text text-anchor="middle" x="886.5" y="-289.8" font-family="Times,serif" font-size="14.00">encoder</text>
<text text-anchor="middle" x="886.5" y="-274.8" font-family="Times,serif" font-size="14.00">log gamma1: &#45;0.085765 &#160;&#160;log gamma2: 0.128788</text>
<text text-anchor="middle" x="886.5" y="-259.8" font-family="Times,serif" font-size="14.00">n kernels: 2</text>
</g>
<!-- 0&#45;&gt;1 -->
<g id="edge1" class="edge"><title>0&#45;&gt;1</title>
<path fill="none" stroke="black" d="M1017.15,-340.96C997.293,-331.619 972.53,-319.97 949.919,-309.333"/>
<polygon fill="black" stroke="black" points="951.252,-306.093 940.714,-305.003 948.273,-312.427 951.252,-306.093"/>
</g>
<!-- 2 -->
<g id="node3" class="node"><title>2</title>
<path fill="#f6ffd3" stroke="black" d="M1287.5,-297.5C1287.5,-297.5 1207.5,-297.5 1207.5,-297.5 1201.5,-297.5 1195.5,-291.5 1195.5,-285.5 1195.5,-285.5 1195.5,-271.5 1195.5,-271.5 1195.5,-265.5 1201.5,-259.5 1207.5,-259.5 1207.5,-259.5 1287.5,-259.5 1287.5,-259.5 1293.5,-259.5 1299.5,-265.5 1299.5,-271.5 1299.5,-271.5 1299.5,-285.5 1299.5,-285.5 1299.5,-291.5 1293.5,-297.5 1287.5,-297.5"/>
<text text-anchor="middle" x="1247.5" y="-282.3" font-family="Times,serif" font-size="14.00">decoder</text>
<text text-anchor="middle" x="1247.5" y="-267.3" font-family="Times,serif" font-size="14.00">pooling type: &#45;1</text>
</g>
<!-- 0&#45;&gt;2 -->
<g id="edge2" class="edge"><title>0&#45;&gt;2</title>
<path fill="none" stroke="black" d="M1099.07,-340.96C1127.32,-329.261 1164.32,-313.944 1194.3,-301.527"/>
<polygon fill="black" stroke="black" points="1195.87,-304.665 1203.77,-297.606 1193.19,-298.198 1195.87,-304.665"/>
</g>
<!-- 3 -->
<g id="node4" class="node"><title>3</title>
<path fill="#d3ffe4" stroke="black" d="M488,-216C488,-216 229,-216 229,-216 223,-216 217,-210 217,-204 217,-204 217,-175 217,-175 217,-169 223,-163 229,-163 229,-163 488,-163 488,-163 494,-163 500,-169 500,-175 500,-175 500,-204 500,-204 500,-210 494,-216 488,-216"/>
<text text-anchor="middle" x="358.5" y="-200.8" font-family="Times,serif" font-size="14.00">encode block 0</text>
<text text-anchor="middle" x="358.5" y="-185.8" font-family="Times,serif" font-size="14.00">log gamma1: 0.279515 &#160;&#160;log gamma2: 0.077663</text>
<text text-anchor="middle" x="358.5" y="-170.8" font-family="Times,serif" font-size="14.00">n kernels: &#45;8 &#160;&#160;pooling type: 1</text>
</g>
<!-- 1&#45;&gt;3 -->
<g id="edge3" class="edge"><title>1&#45;&gt;3</title>
<path fill="none" stroke="black" d="M742.919,-253.842C670.88,-241.972 583.616,-227.593 510.451,-215.537"/>
<polygon fill="black" stroke="black" points="510.659,-212.025 500.223,-213.852 509.521,-218.931 510.659,-212.025"/>
</g>
<!-- 4 -->
<g id="node5" class="node"><title>4</title>
<path fill="#bfe6cf" stroke="black" d="M988.5,-216C988.5,-216 784.5,-216 784.5,-216 778.5,-216 772.5,-210 772.5,-204 772.5,-204 772.5,-175 772.5,-175 772.5,-169 778.5,-163 784.5,-163 784.5,-163 988.5,-163 988.5,-163 994.5,-163 1000.5,-169 1000.5,-175 1000.5,-175 1000.5,-204 1000.5,-204 1000.5,-210 994.5,-216 988.5,-216"/>
<text text-anchor="middle" x="886.5" y="-200.8" font-family="Times,serif" font-size="14.00">encode block 1</text>
<text text-anchor="middle" x="886.5" y="-185.8" font-family="Times,serif" font-size="14.00">log gamma2: &#45;0.030512 &#160;&#160;n kernels: &#45;7</text>
<text text-anchor="middle" x="886.5" y="-170.8" font-family="Times,serif" font-size="14.00">spatial scale: 1</text>
</g>
<!-- 1&#45;&gt;4 -->
<g id="edge4" class="edge"><title>1&#45;&gt;4</title>
<path fill="none" stroke="black" d="M886.5,-251.868C886.5,-243.886 886.5,-234.932 886.5,-226.384"/>
<polygon fill="black" stroke="black" points="890,-226.25 886.5,-216.25 883,-226.25 890,-226.25"/>
</g>
<!-- 5 -->
<g id="node6" class="node"><title>5</title>
<path fill="#d3ffe4" stroke="black" d="M1349.5,-216C1349.5,-216 1145.5,-216 1145.5,-216 1139.5,-216 1133.5,-210 1133.5,-204 1133.5,-204 1133.5,-175 1133.5,-175 1133.5,-169 1139.5,-163 1145.5,-163 1145.5,-163 1349.5,-163 1349.5,-163 1355.5,-163 1361.5,-169 1361.5,-175 1361.5,-175 1361.5,-204 1361.5,-204 1361.5,-210 1355.5,-216 1349.5,-216"/>
<text text-anchor="middle" x="1247.5" y="-200.8" font-family="Times,serif" font-size="14.00">decode block 1</text>
<text text-anchor="middle" x="1247.5" y="-185.8" font-family="Times,serif" font-size="14.00">log gamma2: &#45;0.025683 &#160;&#160;n kernels: &#45;5</text>
<text text-anchor="middle" x="1247.5" y="-170.8" font-family="Times,serif" font-size="14.00">pooling type: &#45;1 &#160;&#160;spatial scale: 1</text>
</g>
<!-- 2&#45;&gt;5 -->
<g id="edge5" class="edge"><title>2&#45;&gt;5</title>
<path fill="none" stroke="black" d="M1247.5,-259.474C1247.5,-249.871 1247.5,-237.711 1247.5,-226.285"/>
<polygon fill="black" stroke="black" points="1251,-226.092 1247.5,-216.092 1244,-226.092 1251,-226.092"/>
</g>
<!-- 6 -->
<g id="node7" class="node"><title>6</title>
<path fill="#bfe6cf" stroke="black" d="M1795,-208.5C1795,-208.5 1636,-208.5 1636,-208.5 1630,-208.5 1624,-202.5 1624,-196.5 1624,-196.5 1624,-182.5 1624,-182.5 1624,-176.5 1630,-170.5 1636,-170.5 1636,-170.5 1795,-170.5 1795,-170.5 1801,-170.5 1807,-176.5 1807,-182.5 1807,-182.5 1807,-196.5 1807,-196.5 1807,-202.5 1801,-208.5 1795,-208.5"/>
<text text-anchor="middle" x="1715.5" y="-193.3" font-family="Times,serif" font-size="14.00">decode block 0</text>
<text text-anchor="middle" x="1715.5" y="-178.3" font-family="Times,serif" font-size="14.00">n kernels: &#45;3 &#160;&#160;pooling type: &#45;1</text>
</g>
<!-- 2&#45;&gt;6 -->
<g id="edge6" class="edge"><title>2&#45;&gt;6</title>
<path fill="none" stroke="black" d="M1299.82,-267.773C1375.5,-253.705 1517,-227.4 1613.69,-209.426"/>
<polygon fill="black" stroke="black" points="1614.59,-212.818 1623.79,-207.549 1613.31,-205.936 1614.59,-212.818"/>
</g>
<!-- 7 -->
<g id="node8" class="node"><title>7</title>
<path fill="#d3e4ff" stroke="black" d="M137,-119.5C137,-119.5 12,-119.5 12,-119.5 6,-119.5 1.42109e-14,-113.5 1.42109e-14,-107.5 1.42109e-14,-107.5 1.42109e-14,-93.5 1.42109e-14,-93.5 1.42109e-14,-87.5 6,-81.5 12,-81.5 12,-81.5 137,-81.5 137,-81.5 143,-81.5 149,-87.5 149,-93.5 149,-93.5 149,-107.5 149,-107.5 149,-113.5 143,-119.5 137,-119.5"/>
<text text-anchor="middle" x="74.5" y="-104.3" font-family="Times,serif" font-size="14.00">comp 0</text>
<text text-anchor="middle" x="74.5" y="-89.3" font-family="Times,serif" font-size="14.00">log gamma1: &#45;0.342969</text>
</g>
<!-- 3&#45;&gt;7 -->
<g id="edge7" class="edge"><title>3&#45;&gt;7</title>
<path fill="none" stroke="black" d="M274.88,-162.938C238.773,-151.895 196.053,-138.82 157.5,-127 152.879,-125.583 148.114,-124.121 143.313,-122.648"/>
<polygon fill="black" stroke="black" points="144.029,-119.207 133.442,-119.618 141.975,-125.898 144.029,-119.207"/>
</g>
<!-- 8 -->
<g id="node9" class="node"><title>8</title>
<path fill="#bfcfe6" stroke="black" d="M378.5,-127C378.5,-127 178.5,-127 178.5,-127 172.5,-127 166.5,-121 166.5,-115 166.5,-115 166.5,-86 166.5,-86 166.5,-80 172.5,-74 178.5,-74 178.5,-74 378.5,-74 378.5,-74 384.5,-74 390.5,-80 390.5,-86 390.5,-86 390.5,-115 390.5,-115 390.5,-121 384.5,-127 378.5,-127"/>
<text text-anchor="middle" x="278.5" y="-111.8" font-family="Times,serif" font-size="14.00">comp 1</text>
<text text-anchor="middle" x="278.5" y="-96.8" font-family="Times,serif" font-size="14.00">log gamma1: 0.439299 &#160;&#160;n kernels: &#45;2</text>
<text text-anchor="middle" x="278.5" y="-81.8" font-family="Times,serif" font-size="14.00">pooling type: 1</text>
</g>
<!-- 3&#45;&gt;8 -->
<g id="edge8" class="edge"><title>3&#45;&gt;8</title>
<path fill="none" stroke="black" d="M334.93,-162.868C326.864,-154.096 317.72,-144.152 309.176,-134.86"/>
<polygon fill="black" stroke="black" points="311.523,-132.242 302.178,-127.25 306.37,-136.98 311.523,-132.242"/>
</g>
<!-- 9 -->
<g id="node10" class="node"><title>9</title>
<path fill="#abb9ce" stroke="black" d="M454.5,-118.5C454.5,-118.5 420.5,-118.5 420.5,-118.5 414.5,-118.5 408.5,-112.5 408.5,-106.5 408.5,-106.5 408.5,-94.5 408.5,-94.5 408.5,-88.5 414.5,-82.5 420.5,-82.5 420.5,-82.5 454.5,-82.5 454.5,-82.5 460.5,-82.5 466.5,-88.5 466.5,-94.5 466.5,-94.5 466.5,-106.5 466.5,-106.5 466.5,-112.5 460.5,-118.5 454.5,-118.5"/>
<text text-anchor="middle" x="437.5" y="-96.8" font-family="Times,serif" font-size="14.00">identity</text>
</g>
<!-- 3&#45;&gt;9 -->
<g id="edge9" class="edge"><title>3&#45;&gt;9</title>
<path fill="none" stroke="black" d="M381.775,-162.868C392.278,-151.302 404.632,-137.696 415.036,-126.239"/>
<polygon fill="black" stroke="black" points="417.749,-128.458 421.88,-118.701 412.567,-123.752 417.749,-128.458"/>
</g>
<!-- 10 -->
<g id="node11" class="node"><title>10</title>
<path fill="#d3e4ff" stroke="black" d="M764.5,-127C764.5,-127 496.5,-127 496.5,-127 490.5,-127 484.5,-121 484.5,-115 484.5,-115 484.5,-86 484.5,-86 484.5,-80 490.5,-74 496.5,-74 496.5,-74 764.5,-74 764.5,-74 770.5,-74 776.5,-80 776.5,-86 776.5,-86 776.5,-115 776.5,-115 776.5,-121 770.5,-127 764.5,-127"/>
<text text-anchor="middle" x="630.5" y="-111.8" font-family="Times,serif" font-size="14.00">comp 0</text>
<text text-anchor="middle" x="630.5" y="-96.8" font-family="Times,serif" font-size="14.00">log gamma1: &#45;0.178303 &#160;&#160;log gamma2: &#45;0.140315</text>
<text text-anchor="middle" x="630.5" y="-81.8" font-family="Times,serif" font-size="14.00">n kernels: 9 &#160;&#160;pooling type: &#45;1</text>
</g>
<!-- 4&#45;&gt;10 -->
<g id="edge10" class="edge"><title>4&#45;&gt;10</title>
<path fill="none" stroke="black" d="M811.421,-162.985C781.204,-152.716 746.211,-140.824 715.099,-130.25"/>
<polygon fill="black" stroke="black" points="716.172,-126.918 705.577,-127.015 713.919,-133.546 716.172,-126.918"/>
</g>
<!-- 11 -->
<g id="node12" class="node"><title>11</title>
<path fill="#bfcfe6" stroke="black" d="M966,-119.5C966,-119.5 807,-119.5 807,-119.5 801,-119.5 795,-113.5 795,-107.5 795,-107.5 795,-93.5 795,-93.5 795,-87.5 801,-81.5 807,-81.5 807,-81.5 966,-81.5 966,-81.5 972,-81.5 978,-87.5 978,-93.5 978,-93.5 978,-107.5 978,-107.5 978,-113.5 972,-119.5 966,-119.5"/>
<text text-anchor="middle" x="886.5" y="-104.3" font-family="Times,serif" font-size="14.00">comp 1</text>
<text text-anchor="middle" x="886.5" y="-89.3" font-family="Times,serif" font-size="14.00">n kernels: &#45;3 &#160;&#160;pooling type: &#45;1</text>
</g>
<!-- 4&#45;&gt;11 -->
<g id="edge11" class="edge"><title>4&#45;&gt;11</title>
<path fill="none" stroke="black" d="M886.5,-162.868C886.5,-152.417 886.5,-140.301 886.5,-129.609"/>
<polygon fill="black" stroke="black" points="890,-129.507 886.5,-119.507 883,-129.507 890,-129.507"/>
</g>
<!-- 12 -->
<g id="node13" class="node"><title>12</title>
<path fill="#abb9ce" stroke="black" d="M1042.5,-118.5C1042.5,-118.5 1008.5,-118.5 1008.5,-118.5 1002.5,-118.5 996.5,-112.5 996.5,-106.5 996.5,-106.5 996.5,-94.5 996.5,-94.5 996.5,-88.5 1002.5,-82.5 1008.5,-82.5 1008.5,-82.5 1042.5,-82.5 1042.5,-82.5 1048.5,-82.5 1054.5,-88.5 1054.5,-94.5 1054.5,-94.5 1054.5,-106.5 1054.5,-106.5 1054.5,-112.5 1048.5,-118.5 1042.5,-118.5"/>
<text text-anchor="middle" x="1025.5" y="-96.8" font-family="Times,serif" font-size="14.00">identity</text>
</g>
<!-- 4&#45;&gt;12 -->
<g id="edge12" class="edge"><title>4&#45;&gt;12</title>
<path fill="none" stroke="black" d="M928.993,-162.724C946.826,-151.815 967.739,-138.899 986.5,-127 987.956,-126.077 989.44,-125.13 990.937,-124.171"/>
<polygon fill="black" stroke="black" points="993.049,-126.974 999.552,-118.609 989.252,-121.093 993.049,-126.974"/>
</g>
<!-- 13 -->
<g id="node14" class="node"><title>13</title>
<path fill="#d3e4ff" stroke="black" d="M1143.5,-118.5C1143.5,-118.5 1109.5,-118.5 1109.5,-118.5 1103.5,-118.5 1097.5,-112.5 1097.5,-106.5 1097.5,-106.5 1097.5,-94.5 1097.5,-94.5 1097.5,-88.5 1103.5,-82.5 1109.5,-82.5 1109.5,-82.5 1143.5,-82.5 1143.5,-82.5 1149.5,-82.5 1155.5,-88.5 1155.5,-94.5 1155.5,-94.5 1155.5,-106.5 1155.5,-106.5 1155.5,-112.5 1149.5,-118.5 1143.5,-118.5"/>
<text text-anchor="middle" x="1126.5" y="-96.8" font-family="Times,serif" font-size="14.00">comp 0</text>
</g>
<!-- 5&#45;&gt;13 -->
<g id="edge13" class="edge"><title>5&#45;&gt;13</title>
<path fill="none" stroke="black" d="M1211.85,-162.868C1194.99,-150.746 1175.02,-136.383 1158.63,-124.602"/>
<polygon fill="black" stroke="black" points="1160.59,-121.697 1150.42,-118.701 1156.5,-127.381 1160.59,-121.697"/>
</g>
<!-- 14 -->
<g id="node15" class="node"><title>14</title>
<path fill="#bfcfe6" stroke="black" d="M1310,-119.5C1310,-119.5 1185,-119.5 1185,-119.5 1179,-119.5 1173,-113.5 1173,-107.5 1173,-107.5 1173,-93.5 1173,-93.5 1173,-87.5 1179,-81.5 1185,-81.5 1185,-81.5 1310,-81.5 1310,-81.5 1316,-81.5 1322,-87.5 1322,-93.5 1322,-93.5 1322,-107.5 1322,-107.5 1322,-113.5 1316,-119.5 1310,-119.5"/>
<text text-anchor="middle" x="1247.5" y="-104.3" font-family="Times,serif" font-size="14.00">comp 1</text>
<text text-anchor="middle" x="1247.5" y="-89.3" font-family="Times,serif" font-size="14.00">log gamma2: &#45;0.377682</text>
</g>
<!-- 5&#45;&gt;14 -->
<g id="edge14" class="edge"><title>5&#45;&gt;14</title>
<path fill="none" stroke="black" d="M1247.5,-162.868C1247.5,-152.417 1247.5,-140.301 1247.5,-129.609"/>
<polygon fill="black" stroke="black" points="1251,-129.507 1247.5,-119.507 1244,-129.507 1251,-129.507"/>
</g>
<!-- 15 -->
<g id="node16" class="node"><title>15</title>
<path fill="#abb9ce" stroke="black" d="M1385.5,-118.5C1385.5,-118.5 1351.5,-118.5 1351.5,-118.5 1345.5,-118.5 1339.5,-112.5 1339.5,-106.5 1339.5,-106.5 1339.5,-94.5 1339.5,-94.5 1339.5,-88.5 1345.5,-82.5 1351.5,-82.5 1351.5,-82.5 1385.5,-82.5 1385.5,-82.5 1391.5,-82.5 1397.5,-88.5 1397.5,-94.5 1397.5,-94.5 1397.5,-106.5 1397.5,-106.5 1397.5,-112.5 1391.5,-118.5 1385.5,-118.5"/>
<text text-anchor="middle" x="1368.5" y="-96.8" font-family="Times,serif" font-size="14.00">identity</text>
</g>
<!-- 5&#45;&gt;15 -->
<g id="edge15" class="edge"><title>5&#45;&gt;15</title>
<path fill="none" stroke="black" d="M1283.15,-162.868C1300.01,-150.746 1319.98,-136.383 1336.37,-124.602"/>
<polygon fill="black" stroke="black" points="1338.5,-127.381 1344.58,-118.701 1334.41,-121.697 1338.5,-127.381"/>
</g>
<!-- 16 -->
<g id="node17" class="node"><title>16</title>
<path fill="#d3e4ff" stroke="black" d="M1695.5,-119.5C1695.5,-119.5 1427.5,-119.5 1427.5,-119.5 1421.5,-119.5 1415.5,-113.5 1415.5,-107.5 1415.5,-107.5 1415.5,-93.5 1415.5,-93.5 1415.5,-87.5 1421.5,-81.5 1427.5,-81.5 1427.5,-81.5 1695.5,-81.5 1695.5,-81.5 1701.5,-81.5 1707.5,-87.5 1707.5,-93.5 1707.5,-93.5 1707.5,-107.5 1707.5,-107.5 1707.5,-113.5 1701.5,-119.5 1695.5,-119.5"/>
<text text-anchor="middle" x="1561.5" y="-104.3" font-family="Times,serif" font-size="14.00">comp 0</text>
<text text-anchor="middle" x="1561.5" y="-89.3" font-family="Times,serif" font-size="14.00">log gamma1: &#45;0.416946 &#160;&#160;log gamma2: &#45;0.278517</text>
</g>
<!-- 6&#45;&gt;16 -->
<g id="edge16" class="edge"><title>6&#45;&gt;16</title>
<path fill="none" stroke="black" d="M1683.59,-170.474C1660.05,-157.175 1627.83,-138.973 1602.4,-124.607"/>
<polygon fill="black" stroke="black" points="1603.8,-121.375 1593.37,-119.503 1600.35,-127.469 1603.8,-121.375"/>
</g>
<!-- 17 -->
<g id="node18" class="node"><title>17</title>
<path fill="#bfcfe6" stroke="black" d="M2001,-127C2001,-127 1738,-127 1738,-127 1732,-127 1726,-121 1726,-115 1726,-115 1726,-86 1726,-86 1726,-80 1732,-74 1738,-74 1738,-74 2001,-74 2001,-74 2007,-74 2013,-80 2013,-86 2013,-86 2013,-115 2013,-115 2013,-121 2007,-127 2001,-127"/>
<text text-anchor="middle" x="1869.5" y="-111.8" font-family="Times,serif" font-size="14.00">comp 1</text>
<text text-anchor="middle" x="1869.5" y="-96.8" font-family="Times,serif" font-size="14.00">log gamma1: &#45;0.257892 &#160;&#160;log gamma2: 0.307777</text>
<text text-anchor="middle" x="1869.5" y="-81.8" font-family="Times,serif" font-size="14.00">n kernels: &#45;8</text>
</g>
<!-- 6&#45;&gt;17 -->
<g id="edge17" class="edge"><title>6&#45;&gt;17</title>
<path fill="none" stroke="black" d="M1747.41,-170.474C1767.01,-159.401 1792.63,-144.929 1815.33,-132.101"/>
<polygon fill="black" stroke="black" points="1817.21,-135.058 1824.2,-127.092 1813.77,-128.963 1817.21,-135.058"/>
</g>
<!-- 18 -->
<g id="node19" class="node"><title>18</title>
<path fill="#abb9ce" stroke="black" d="M2077.5,-118.5C2077.5,-118.5 2043.5,-118.5 2043.5,-118.5 2037.5,-118.5 2031.5,-112.5 2031.5,-106.5 2031.5,-106.5 2031.5,-94.5 2031.5,-94.5 2031.5,-88.5 2037.5,-82.5 2043.5,-82.5 2043.5,-82.5 2077.5,-82.5 2077.5,-82.5 2083.5,-82.5 2089.5,-88.5 2089.5,-94.5 2089.5,-94.5 2089.5,-106.5 2089.5,-106.5 2089.5,-112.5 2083.5,-118.5 2077.5,-118.5"/>
<text text-anchor="middle" x="2060.5" y="-96.8" font-family="Times,serif" font-size="14.00">identity</text>
</g>
<!-- 6&#45;&gt;18 -->
<g id="edge18" class="edge"><title>6&#45;&gt;18</title>
<path fill="none" stroke="black" d="M1807.18,-179.318C1869.39,-170.884 1952.55,-155.238 2021.5,-127 2023.86,-126.034 2026.23,-124.92 2028.57,-123.709"/>
<polygon fill="black" stroke="black" points="2030.44,-126.671 2037.37,-118.662 2026.96,-120.597 2030.44,-126.671"/>
</g>
<!-- 19 -->
<g id="node20" class="node"><title>19</title>
<path fill="#f6d3ff" stroke="black" d="M92,-38C92,-38 57,-38 57,-38 51,-38 45,-32 45,-26 45,-26 45,-12 45,-12 45,-6 51,-0 57,-0 57,-0 92,-0 92,-0 98,-0 104,-6 104,-12 104,-12 104,-26 104,-26 104,-32 98,-38 92,-38"/>
<text text-anchor="middle" x="74.5" y="-22.8" font-family="Times,serif" font-size="14.00">forward</text>
<text text-anchor="middle" x="74.5" y="-7.8" font-family="Times,serif" font-size="14.00">input</text>
</g>
<!-- 7&#45;&gt;19 -->
<g id="edge19" class="edge"><title>7&#45;&gt;19</title>
<path fill="none" stroke="black" d="M74.5,-81.4602C74.5,-71.67 74.5,-59.3453 74.5,-48.3073"/>
<polygon fill="black" stroke="black" points="78.0001,-48.2435 74.5,-38.2436 71.0001,-48.2436 78.0001,-48.2435"/>
</g>
<!-- 20 -->
<g id="node21" class="node"><title>20</title>
<path fill="#f6d3ff" stroke="black" d="M296.5,-38C296.5,-38 260.5,-38 260.5,-38 254.5,-38 248.5,-32 248.5,-26 248.5,-26 248.5,-12 248.5,-12 248.5,-6 254.5,-0 260.5,-0 260.5,-0 296.5,-0 296.5,-0 302.5,-0 308.5,-6 308.5,-12 308.5,-12 308.5,-26 308.5,-26 308.5,-32 302.5,-38 296.5,-38"/>
<text text-anchor="middle" x="278.5" y="-22.8" font-family="Times,serif" font-size="14.00">forward</text>
<text text-anchor="middle" x="278.5" y="-7.8" font-family="Times,serif" font-size="14.00">EB0/C0</text>
</g>
<!-- 8&#45;&gt;20 -->
<g id="edge20" class="edge"><title>8&#45;&gt;20</title>
<path fill="none" stroke="black" d="M278.5,-73.9081C278.5,-65.7377 278.5,-56.6492 278.5,-48.2981"/>
<polygon fill="black" stroke="black" points="282,-48.2389 278.5,-38.2389 275,-48.2389 282,-48.2389"/>
</g>
<!-- 21 -->
<g id="node22" class="node"><title>21</title>
<path fill="#f6d3ff" stroke="black" d="M416.5,-38C416.5,-38 380.5,-38 380.5,-38 374.5,-38 368.5,-32 368.5,-26 368.5,-26 368.5,-12 368.5,-12 368.5,-6 374.5,-0 380.5,-0 380.5,-0 416.5,-0 416.5,-0 422.5,-0 428.5,-6 428.5,-12 428.5,-12 428.5,-26 428.5,-26 428.5,-32 422.5,-38 416.5,-38"/>
<text text-anchor="middle" x="398.5" y="-22.8" font-family="Times,serif" font-size="14.00">residual</text>
<text text-anchor="middle" x="398.5" y="-7.8" font-family="Times,serif" font-size="14.00">EB0/C0</text>
</g>
<!-- 9&#45;&gt;21 -->
<g id="edge21" class="edge"><title>9&#45;&gt;21</title>
<path fill="none" stroke="black" d="M429.038,-82.2497C424.032,-72.0459 417.579,-58.8928 411.896,-47.3078"/>
<polygon fill="black" stroke="black" points="414.899,-45.4808 407.352,-38.0444 408.614,-48.5639 414.899,-45.4808"/>
</g>
<!-- 22 -->
<g id="node23" class="node"><title>22</title>
<path fill="#debfe6" stroke="black" d="M494.5,-38C494.5,-38 458.5,-38 458.5,-38 452.5,-38 446.5,-32 446.5,-26 446.5,-26 446.5,-12 446.5,-12 446.5,-6 452.5,-0 458.5,-0 458.5,-0 494.5,-0 494.5,-0 500.5,-0 506.5,-6 506.5,-12 506.5,-12 506.5,-26 506.5,-26 506.5,-32 500.5,-38 494.5,-38"/>
<text text-anchor="middle" x="476.5" y="-22.8" font-family="Times,serif" font-size="14.00">forward</text>
<text text-anchor="middle" x="476.5" y="-7.8" font-family="Times,serif" font-size="14.00">EB0/C1</text>
</g>
<!-- 9&#45;&gt;22 -->
<g id="edge22" class="edge"><title>9&#45;&gt;22</title>
<path fill="none" stroke="black" d="M445.962,-82.2497C450.968,-72.0459 457.421,-58.8928 463.104,-47.3078"/>
<polygon fill="black" stroke="black" points="466.386,-48.5639 467.648,-38.0444 460.101,-45.4808 466.386,-48.5639"/>
</g>
<!-- 23 -->
<g id="node24" class="node"><title>23</title>
<path fill="#f6d3ff" stroke="black" d="M648,-38C648,-38 613,-38 613,-38 607,-38 601,-32 601,-26 601,-26 601,-12 601,-12 601,-6 607,-0 613,-0 613,-0 648,-0 648,-0 654,-0 660,-6 660,-12 660,-12 660,-26 660,-26 660,-32 654,-38 648,-38"/>
<text text-anchor="middle" x="630.5" y="-22.8" font-family="Times,serif" font-size="14.00">forward</text>
<text text-anchor="middle" x="630.5" y="-7.8" font-family="Times,serif" font-size="14.00">EB0/I</text>
</g>
<!-- 10&#45;&gt;23 -->
<g id="edge23" class="edge"><title>10&#45;&gt;23</title>
<path fill="none" stroke="black" d="M630.5,-73.9081C630.5,-65.7377 630.5,-56.6492 630.5,-48.2981"/>
<polygon fill="black" stroke="black" points="634,-48.2389 630.5,-38.2389 627,-48.2389 634,-48.2389"/>
</g>
<!-- 24 -->
<g id="node25" class="node"><title>24</title>
<path fill="#f6d3ff" stroke="black" d="M895.5,-38C895.5,-38 859.5,-38 859.5,-38 853.5,-38 847.5,-32 847.5,-26 847.5,-26 847.5,-12 847.5,-12 847.5,-6 853.5,-0 859.5,-0 859.5,-0 895.5,-0 895.5,-0 901.5,-0 907.5,-6 907.5,-12 907.5,-12 907.5,-26 907.5,-26 907.5,-32 901.5,-38 895.5,-38"/>
<text text-anchor="middle" x="877.5" y="-22.8" font-family="Times,serif" font-size="14.00">forward</text>
<text text-anchor="middle" x="877.5" y="-7.8" font-family="Times,serif" font-size="14.00">EB1/C0</text>
</g>
<!-- 11&#45;&gt;24 -->
<g id="edge24" class="edge"><title>11&#45;&gt;24</title>
<path fill="none" stroke="black" d="M884.458,-81.4602C883.349,-71.67 881.954,-59.3453 880.705,-48.3073"/>
<polygon fill="black" stroke="black" points="884.168,-47.7864 879.565,-38.2436 877.213,-48.5739 884.168,-47.7864"/>
</g>
<!-- 25 -->
<g id="node26" class="node"><title>25</title>
<path fill="#f6d3ff" stroke="black" d="M973.5,-38C973.5,-38 937.5,-38 937.5,-38 931.5,-38 925.5,-32 925.5,-26 925.5,-26 925.5,-12 925.5,-12 925.5,-6 931.5,-0 937.5,-0 937.5,-0 973.5,-0 973.5,-0 979.5,-0 985.5,-6 985.5,-12 985.5,-12 985.5,-26 985.5,-26 985.5,-32 979.5,-38 973.5,-38"/>
<text text-anchor="middle" x="955.5" y="-22.8" font-family="Times,serif" font-size="14.00">residual</text>
<text text-anchor="middle" x="955.5" y="-7.8" font-family="Times,serif" font-size="14.00">EB1/C0</text>
</g>
<!-- 12&#45;&gt;25 -->
<g id="edge25" class="edge"><title>12&#45;&gt;25</title>
<path fill="none" stroke="black" d="M1010.31,-82.2497C1000.88,-71.5357 988.581,-57.5701 978.025,-45.5824"/>
<polygon fill="black" stroke="black" points="980.623,-43.2368 971.388,-38.0444 975.37,-47.8627 980.623,-43.2368"/>
</g>
<!-- 26 -->
<g id="node27" class="node"><title>26</title>
<path fill="#debfe6" stroke="black" d="M1051.5,-38C1051.5,-38 1015.5,-38 1015.5,-38 1009.5,-38 1003.5,-32 1003.5,-26 1003.5,-26 1003.5,-12 1003.5,-12 1003.5,-6 1009.5,-0 1015.5,-0 1015.5,-0 1051.5,-0 1051.5,-0 1057.5,-0 1063.5,-6 1063.5,-12 1063.5,-12 1063.5,-26 1063.5,-26 1063.5,-32 1057.5,-38 1051.5,-38"/>
<text text-anchor="middle" x="1033.5" y="-22.8" font-family="Times,serif" font-size="14.00">forward</text>
<text text-anchor="middle" x="1033.5" y="-7.8" font-family="Times,serif" font-size="14.00">EB1/C1</text>
</g>
<!-- 12&#45;&gt;26 -->
<g id="edge26" class="edge"><title>12&#45;&gt;26</title>
<path fill="none" stroke="black" d="M1027.24,-82.2497C1028.24,-72.25 1029.53,-59.4178 1030.68,-48.0048"/>
<polygon fill="black" stroke="black" points="1034.17,-48.3447 1031.68,-38.0444 1027.2,-47.6437 1034.17,-48.3447"/>
</g>
<!-- 27 -->
<g id="node28" class="node"><title>27</title>
<path fill="#f6d3ff" stroke="black" d="M1129,-38C1129,-38 1094,-38 1094,-38 1088,-38 1082,-32 1082,-26 1082,-26 1082,-12 1082,-12 1082,-6 1088,-0 1094,-0 1094,-0 1129,-0 1129,-0 1135,-0 1141,-6 1141,-12 1141,-12 1141,-26 1141,-26 1141,-32 1135,-38 1129,-38"/>
<text text-anchor="middle" x="1111.5" y="-22.8" font-family="Times,serif" font-size="14.00">forward</text>
<text text-anchor="middle" x="1111.5" y="-7.8" font-family="Times,serif" font-size="14.00">EB1/I</text>
</g>
<!-- 13&#45;&gt;27 -->
<g id="edge27" class="edge"><title>13&#45;&gt;27</title>
<path fill="none" stroke="black" d="M1123.25,-82.2497C1121.36,-72.25 1118.94,-59.4178 1116.78,-48.0048"/>
<polygon fill="black" stroke="black" points="1120.2,-47.2221 1114.9,-38.0444 1113.32,-48.52 1120.2,-47.2221"/>
</g>
<!-- 28 -->
<g id="node29" class="node"><title>28</title>
<path fill="#debfe6" stroke="black" d="M1201.5,-38C1201.5,-38 1171.5,-38 1171.5,-38 1165.5,-38 1159.5,-32 1159.5,-26 1159.5,-26 1159.5,-12 1159.5,-12 1159.5,-6 1165.5,-0 1171.5,-0 1171.5,-0 1201.5,-0 1201.5,-0 1207.5,-0 1213.5,-6 1213.5,-12 1213.5,-12 1213.5,-26 1213.5,-26 1213.5,-32 1207.5,-38 1201.5,-38"/>
<text text-anchor="middle" x="1186.5" y="-22.8" font-family="Times,serif" font-size="14.00">merge</text>
<text text-anchor="middle" x="1186.5" y="-7.8" font-family="Times,serif" font-size="14.00">EB1/I</text>
</g>
<!-- 13&#45;&gt;28 -->
<g id="edge28" class="edge"><title>13&#45;&gt;28</title>
<path fill="none" stroke="black" d="M1139.52,-82.2497C1147.45,-71.7398 1157.74,-58.101 1166.67,-46.2695"/>
<polygon fill="black" stroke="black" points="1169.65,-48.1348 1172.88,-38.0444 1164.06,-43.9179 1169.65,-48.1348"/>
</g>
<!-- 29 -->
<g id="node30" class="node"><title>29</title>
<path fill="#f6d3ff" stroke="black" d="M1281.5,-38C1281.5,-38 1243.5,-38 1243.5,-38 1237.5,-38 1231.5,-32 1231.5,-26 1231.5,-26 1231.5,-12 1231.5,-12 1231.5,-6 1237.5,-0 1243.5,-0 1243.5,-0 1281.5,-0 1281.5,-0 1287.5,-0 1293.5,-6 1293.5,-12 1293.5,-12 1293.5,-26 1293.5,-26 1293.5,-32 1287.5,-38 1281.5,-38"/>
<text text-anchor="middle" x="1262.5" y="-22.8" font-family="Times,serif" font-size="14.00">forward</text>
<text text-anchor="middle" x="1262.5" y="-7.8" font-family="Times,serif" font-size="14.00">DB1/C0</text>
</g>
<!-- 14&#45;&gt;29 -->
<g id="edge29" class="edge"><title>14&#45;&gt;29</title>
<path fill="none" stroke="black" d="M1250.9,-81.4602C1252.75,-71.67 1255.08,-59.3453 1257.16,-48.3073"/>
<polygon fill="black" stroke="black" points="1260.64,-48.7192 1259.06,-38.2436 1253.76,-47.4212 1260.64,-48.7192"/>
</g>
<!-- 30 -->
<g id="node31" class="node"><title>30</title>
<path fill="#f6d3ff" stroke="black" d="M1366.5,-38C1366.5,-38 1328.5,-38 1328.5,-38 1322.5,-38 1316.5,-32 1316.5,-26 1316.5,-26 1316.5,-12 1316.5,-12 1316.5,-6 1322.5,-0 1328.5,-0 1328.5,-0 1366.5,-0 1366.5,-0 1372.5,-0 1378.5,-6 1378.5,-12 1378.5,-12 1378.5,-26 1378.5,-26 1378.5,-32 1372.5,-38 1366.5,-38"/>
<text text-anchor="middle" x="1347.5" y="-22.8" font-family="Times,serif" font-size="14.00">residual</text>
<text text-anchor="middle" x="1347.5" y="-7.8" font-family="Times,serif" font-size="14.00">DB1/C0</text>
</g>
<!-- 15&#45;&gt;30 -->
<g id="edge30" class="edge"><title>15&#45;&gt;30</title>
<path fill="none" stroke="black" d="M1363.94,-82.2497C1361.3,-72.25 1357.91,-59.4178 1354.9,-48.0048"/>
<polygon fill="black" stroke="black" points="1358.2,-46.8189 1352.27,-38.0444 1351.44,-48.6067 1358.2,-46.8189"/>
</g>
<!-- 31 -->
<g id="node32" class="node"><title>31</title>
<path fill="#debfe6" stroke="black" d="M1446.5,-38C1446.5,-38 1408.5,-38 1408.5,-38 1402.5,-38 1396.5,-32 1396.5,-26 1396.5,-26 1396.5,-12 1396.5,-12 1396.5,-6 1402.5,-0 1408.5,-0 1408.5,-0 1446.5,-0 1446.5,-0 1452.5,-0 1458.5,-6 1458.5,-12 1458.5,-12 1458.5,-26 1458.5,-26 1458.5,-32 1452.5,-38 1446.5,-38"/>
<text text-anchor="middle" x="1427.5" y="-22.8" font-family="Times,serif" font-size="14.00">forward</text>
<text text-anchor="middle" x="1427.5" y="-7.8" font-family="Times,serif" font-size="14.00">DB1/C1</text>
</g>
<!-- 15&#45;&gt;31 -->
<g id="edge31" class="edge"><title>15&#45;&gt;31</title>
<path fill="none" stroke="black" d="M1381.3,-82.2497C1389.1,-71.7398 1399.22,-58.101 1408,-46.2695"/>
<polygon fill="black" stroke="black" points="1410.96,-48.1605 1414.11,-38.0444 1405.34,-43.9888 1410.96,-48.1605"/>
</g>
<!-- 32 -->
<g id="node33" class="node"><title>32</title>
<path fill="#f6d3ff" stroke="black" d="M1546,-38C1546,-38 1511,-38 1511,-38 1505,-38 1499,-32 1499,-26 1499,-26 1499,-12 1499,-12 1499,-6 1505,-0 1511,-0 1511,-0 1546,-0 1546,-0 1552,-0 1558,-6 1558,-12 1558,-12 1558,-26 1558,-26 1558,-32 1552,-38 1546,-38"/>
<text text-anchor="middle" x="1528.5" y="-22.8" font-family="Times,serif" font-size="14.00">forward</text>
<text text-anchor="middle" x="1528.5" y="-7.8" font-family="Times,serif" font-size="14.00">DB1/I</text>
</g>
<!-- 16&#45;&gt;32 -->
<g id="edge32" class="edge"><title>16&#45;&gt;32</title>
<path fill="none" stroke="black" d="M1554.01,-81.4602C1549.86,-71.4682 1544.62,-58.8359 1539.97,-47.6262"/>
<polygon fill="black" stroke="black" points="1543.14,-46.1377 1536.07,-38.2436 1536.67,-48.8213 1543.14,-46.1377"/>
</g>
<!-- 33 -->
<g id="node34" class="node"><title>33</title>
<path fill="#debfe6" stroke="black" d="M1618.5,-38C1618.5,-38 1588.5,-38 1588.5,-38 1582.5,-38 1576.5,-32 1576.5,-26 1576.5,-26 1576.5,-12 1576.5,-12 1576.5,-6 1582.5,-0 1588.5,-0 1588.5,-0 1618.5,-0 1618.5,-0 1624.5,-0 1630.5,-6 1630.5,-12 1630.5,-12 1630.5,-26 1630.5,-26 1630.5,-32 1624.5,-38 1618.5,-38"/>
<text text-anchor="middle" x="1603.5" y="-22.8" font-family="Times,serif" font-size="14.00">merge</text>
<text text-anchor="middle" x="1603.5" y="-7.8" font-family="Times,serif" font-size="14.00">EB0/I</text>
</g>
<!-- 16&#45;&gt;33 -->
<g id="edge33" class="edge"><title>16&#45;&gt;33</title>
<path fill="none" stroke="black" d="M1571.03,-81.4602C1576.36,-71.3672 1583.12,-58.5805 1589.08,-47.287"/>
<polygon fill="black" stroke="black" points="1592.29,-48.7205 1593.86,-38.2436 1586.1,-45.4506 1592.29,-48.7205"/>
</g>
<!-- 34 -->
<g id="node35" class="node"><title>34</title>
<path fill="#f6d3ff" stroke="black" d="M1888.5,-38C1888.5,-38 1850.5,-38 1850.5,-38 1844.5,-38 1838.5,-32 1838.5,-26 1838.5,-26 1838.5,-12 1838.5,-12 1838.5,-6 1844.5,-0 1850.5,-0 1850.5,-0 1888.5,-0 1888.5,-0 1894.5,-0 1900.5,-6 1900.5,-12 1900.5,-12 1900.5,-26 1900.5,-26 1900.5,-32 1894.5,-38 1888.5,-38"/>
<text text-anchor="middle" x="1869.5" y="-22.8" font-family="Times,serif" font-size="14.00">forward</text>
<text text-anchor="middle" x="1869.5" y="-7.8" font-family="Times,serif" font-size="14.00">DB0/C0</text>
</g>
<!-- 17&#45;&gt;34 -->
<g id="edge34" class="edge"><title>17&#45;&gt;34</title>
<path fill="none" stroke="black" d="M1869.5,-73.9081C1869.5,-65.7377 1869.5,-56.6492 1869.5,-48.2981"/>
<polygon fill="black" stroke="black" points="1873,-48.2389 1869.5,-38.2389 1866,-48.2389 1873,-48.2389"/>
</g>
<!-- 35 -->
<g id="node36" class="node"><title>35</title>
<path fill="#f6d3ff" stroke="black" d="M2039.5,-38C2039.5,-38 2001.5,-38 2001.5,-38 1995.5,-38 1989.5,-32 1989.5,-26 1989.5,-26 1989.5,-12 1989.5,-12 1989.5,-6 1995.5,-0 2001.5,-0 2001.5,-0 2039.5,-0 2039.5,-0 2045.5,-0 2051.5,-6 2051.5,-12 2051.5,-12 2051.5,-26 2051.5,-26 2051.5,-32 2045.5,-38 2039.5,-38"/>
<text text-anchor="middle" x="2020.5" y="-22.8" font-family="Times,serif" font-size="14.00">residual</text>
<text text-anchor="middle" x="2020.5" y="-7.8" font-family="Times,serif" font-size="14.00">DB0/C0</text>
</g>
<!-- 18&#45;&gt;35 -->
<g id="edge35" class="edge"><title>18&#45;&gt;35</title>
<path fill="none" stroke="black" d="M2051.82,-82.2497C2046.69,-72.0459 2040.07,-58.8928 2034.24,-47.3078"/>
<polygon fill="black" stroke="black" points="2037.2,-45.4043 2029.58,-38.0444 2030.95,-48.5506 2037.2,-45.4043"/>
</g>
<!-- 36 -->
<g id="node37" class="node"><title>36</title>
<path fill="#debfe6" stroke="black" d="M2119.5,-38C2119.5,-38 2081.5,-38 2081.5,-38 2075.5,-38 2069.5,-32 2069.5,-26 2069.5,-26 2069.5,-12 2069.5,-12 2069.5,-6 2075.5,-0 2081.5,-0 2081.5,-0 2119.5,-0 2119.5,-0 2125.5,-0 2131.5,-6 2131.5,-12 2131.5,-12 2131.5,-26 2131.5,-26 2131.5,-32 2125.5,-38 2119.5,-38"/>
<text text-anchor="middle" x="2100.5" y="-22.8" font-family="Times,serif" font-size="14.00">forward</text>
<text text-anchor="middle" x="2100.5" y="-7.8" font-family="Times,serif" font-size="14.00">DB0/C1</text>
</g>
<!-- 18&#45;&gt;36 -->
<g id="edge36" class="edge"><title>18&#45;&gt;36</title>
<path fill="none" stroke="black" d="M2069.18,-82.2497C2074.31,-72.0459 2080.93,-58.8928 2086.76,-47.3078"/>
<polygon fill="black" stroke="black" points="2090.05,-48.5506 2091.42,-38.0444 2083.8,-45.4043 2090.05,-48.5506"/>
</g>
</g>
</svg>
