<?xml version="1.0" encoding="UTF-8" standalone="no"?>
<!DOCTYPE svg PUBLIC "-//W3C//DTD SVG 1.1//EN"
 "http://www.w3.org/Graphics/SVG/1.1/DTD/svg11.dtd">
<!-- Generated by graphviz version 2.38.0 (20140413.2041)
 -->
<!-- Title: %3 Pages: 1 -->
<svg width="2621pt" height="402pt"
 viewBox="0.00 0.00 2620.50 402.00" xmlns="http://www.w3.org/2000/svg" xmlns:xlink="http://www.w3.org/1999/xlink">
<g id="graph0" class="graph" transform="scale(1 1) rotate(0) translate(4 398)">
<title>%3</title>
<polygon fill="none" stroke="none" points="-4,4 -4,-398 2616.5,-398 2616.5,4 -4,4"/>
<!-- 0 -->
<g id="node1" class="node"><title>0</title>
<path fill="#ffd3d3" stroke="black" d="M1438,-394C1438,-394 1375,-394 1375,-394 1369,-394 1363,-388 1363,-382 1363,-382 1363,-368 1363,-368 1363,-362 1369,-356 1375,-356 1375,-356 1438,-356 1438,-356 1444,-356 1450,-362 1450,-368 1450,-368 1450,-382 1450,-382 1450,-388 1444,-394 1438,-394"/>
<text text-anchor="middle" x="1406.5" y="-378.8" font-family="Times,serif" font-size="14.00">net</text>
<text text-anchor="middle" x="1406.5" y="-363.8" font-family="Times,serif" font-size="14.00">n kernels: 64</text>
</g>
<!-- 1 -->
<g id="node2" class="node"><title>1</title>
<path fill="#f6ffd3" stroke="black" d="M1174.5,-320C1174.5,-320 970.5,-320 970.5,-320 964.5,-320 958.5,-314 958.5,-308 958.5,-308 958.5,-279 958.5,-279 958.5,-273 964.5,-267 970.5,-267 970.5,-267 1174.5,-267 1174.5,-267 1180.5,-267 1186.5,-273 1186.5,-279 1186.5,-279 1186.5,-308 1186.5,-308 1186.5,-314 1180.5,-320 1174.5,-320"/>
<text text-anchor="middle" x="1072.5" y="-304.8" font-family="Times,serif" font-size="14.00">encoder</text>
<text text-anchor="middle" x="1072.5" y="-289.8" font-family="Times,serif" font-size="14.00">log gamma2: &#45;0.416439 &#160;&#160;n kernels: &#45;5</text>
<text text-anchor="middle" x="1072.5" y="-274.8" font-family="Times,serif" font-size="14.00">pooling type: 1</text>
</g>
<!-- 0&#45;&gt;1 -->
<g id="edge1" class="edge"><title>0&#45;&gt;1</title>
<path fill="none" stroke="black" d="M1362.84,-363.607C1319.03,-353.181 1249.66,-336.667 1189.7,-322.397"/>
<polygon fill="black" stroke="black" points="1190.32,-318.947 1179.78,-320.036 1188.7,-325.757 1190.32,-318.947"/>
</g>
<!-- 2 -->
<g id="node3" class="node"><title>2</title>
<path fill="#f6ffd3" stroke="black" d="M1871,-312.5C1871,-312.5 1612,-312.5 1612,-312.5 1606,-312.5 1600,-306.5 1600,-300.5 1600,-300.5 1600,-286.5 1600,-286.5 1600,-280.5 1606,-274.5 1612,-274.5 1612,-274.5 1871,-274.5 1871,-274.5 1877,-274.5 1883,-280.5 1883,-286.5 1883,-286.5 1883,-300.5 1883,-300.5 1883,-306.5 1877,-312.5 1871,-312.5"/>
<text text-anchor="middle" x="1741.5" y="-297.3" font-family="Times,serif" font-size="14.00">decoder</text>
<text text-anchor="middle" x="1741.5" y="-282.3" font-family="Times,serif" font-size="14.00">log gamma1: 0.494318 &#160;&#160;log gamma2: 0.078790</text>
</g>
<!-- 0&#45;&gt;2 -->
<g id="edge2" class="edge"><title>0&#45;&gt;2</title>
<path fill="none" stroke="black" d="M1450.3,-363.607C1502.17,-351.296 1589.81,-330.499 1655.42,-314.928"/>
<polygon fill="black" stroke="black" points="1656.42,-318.288 1665.34,-312.573 1654.8,-311.477 1656.42,-318.288"/>
</g>
<!-- 3 -->
<g id="node4" class="node"><title>3</title>
<path fill="#d3ffe4" stroke="black" d="M674,-223.5C674,-223.5 415,-223.5 415,-223.5 409,-223.5 403,-217.5 403,-211.5 403,-211.5 403,-182.5 403,-182.5 403,-176.5 409,-170.5 415,-170.5 415,-170.5 674,-170.5 674,-170.5 680,-170.5 686,-176.5 686,-182.5 686,-182.5 686,-211.5 686,-211.5 686,-217.5 680,-223.5 674,-223.5"/>
<text text-anchor="middle" x="544.5" y="-208.3" font-family="Times,serif" font-size="14.00">encode block 0</text>
<text text-anchor="middle" x="544.5" y="-193.3" font-family="Times,serif" font-size="14.00">log gamma1: 0.452877 &#160;&#160;log gamma2: 0.365100</text>
<text text-anchor="middle" x="544.5" y="-178.3" font-family="Times,serif" font-size="14.00">n kernels: &#45;3 &#160;&#160;pooling type: 1</text>
</g>
<!-- 1&#45;&gt;3 -->
<g id="edge3" class="edge"><title>1&#45;&gt;3</title>
<path fill="none" stroke="black" d="M958.257,-272.053C881.623,-258.337 779.832,-240.119 696.391,-225.185"/>
<polygon fill="black" stroke="black" points="696.77,-221.697 686.31,-223.381 695.537,-228.588 696.77,-221.697"/>
</g>
<!-- 4 -->
<g id="node5" class="node"><title>4</title>
<path fill="#bfe6cf" stroke="black" d="M1202,-231C1202,-231 943,-231 943,-231 937,-231 931,-225 931,-219 931,-219 931,-175 931,-175 931,-169 937,-163 943,-163 943,-163 1202,-163 1202,-163 1208,-163 1214,-169 1214,-175 1214,-175 1214,-219 1214,-219 1214,-225 1208,-231 1202,-231"/>
<text text-anchor="middle" x="1072.5" y="-215.8" font-family="Times,serif" font-size="14.00">encode block 1</text>
<text text-anchor="middle" x="1072.5" y="-200.8" font-family="Times,serif" font-size="14.00">log gamma1: 0.364155 &#160;&#160;log gamma2: 0.375247</text>
<text text-anchor="middle" x="1072.5" y="-185.8" font-family="Times,serif" font-size="14.00">n kernels: 9 &#160;&#160;pooling type: &#45;1</text>
<text text-anchor="middle" x="1072.5" y="-170.8" font-family="Times,serif" font-size="14.00">spatial scale: 1</text>
</g>
<!-- 1&#45;&gt;4 -->
<g id="edge4" class="edge"><title>1&#45;&gt;4</title>
<path fill="none" stroke="black" d="M1072.5,-266.677C1072.5,-258.822 1072.5,-249.964 1072.5,-241.285"/>
<polygon fill="black" stroke="black" points="1076,-241.251 1072.5,-231.251 1069,-241.251 1076,-241.251"/>
</g>
<!-- 5 -->
<g id="node6" class="node"><title>5</title>
<path fill="#d3ffe4" stroke="black" d="M1873,-223.5C1873,-223.5 1610,-223.5 1610,-223.5 1604,-223.5 1598,-217.5 1598,-211.5 1598,-211.5 1598,-182.5 1598,-182.5 1598,-176.5 1604,-170.5 1610,-170.5 1610,-170.5 1873,-170.5 1873,-170.5 1879,-170.5 1885,-176.5 1885,-182.5 1885,-182.5 1885,-211.5 1885,-211.5 1885,-217.5 1879,-223.5 1873,-223.5"/>
<text text-anchor="middle" x="1741.5" y="-208.3" font-family="Times,serif" font-size="14.00">decode block 1</text>
<text text-anchor="middle" x="1741.5" y="-193.3" font-family="Times,serif" font-size="14.00">log gamma1: 0.393467 &#160;&#160;log gamma2: &#45;0.438831</text>
<text text-anchor="middle" x="1741.5" y="-178.3" font-family="Times,serif" font-size="14.00">n kernels: 9 &#160;&#160;spatial scale: 1</text>
</g>
<!-- 2&#45;&gt;5 -->
<g id="edge5" class="edge"><title>2&#45;&gt;5</title>
<path fill="none" stroke="black" d="M1741.5,-274.279C1741.5,-262.825 1741.5,-247.655 1741.5,-233.862"/>
<polygon fill="black" stroke="black" points="1745,-233.667 1741.5,-223.667 1738,-233.667 1745,-233.667"/>
</g>
<!-- 6 -->
<g id="node7" class="node"><title>6</title>
<path fill="#bfe6cf" stroke="black" d="M2373,-223.5C2373,-223.5 2110,-223.5 2110,-223.5 2104,-223.5 2098,-217.5 2098,-211.5 2098,-211.5 2098,-182.5 2098,-182.5 2098,-176.5 2104,-170.5 2110,-170.5 2110,-170.5 2373,-170.5 2373,-170.5 2379,-170.5 2385,-176.5 2385,-182.5 2385,-182.5 2385,-211.5 2385,-211.5 2385,-217.5 2379,-223.5 2373,-223.5"/>
<text text-anchor="middle" x="2241.5" y="-208.3" font-family="Times,serif" font-size="14.00">decode block 0</text>
<text text-anchor="middle" x="2241.5" y="-193.3" font-family="Times,serif" font-size="14.00">log gamma1: 0.137289 &#160;&#160;log gamma2: &#45;0.382422</text>
<text text-anchor="middle" x="2241.5" y="-178.3" font-family="Times,serif" font-size="14.00">n kernels: &#45;7 &#160;&#160;pooling type: 1</text>
</g>
<!-- 2&#45;&gt;6 -->
<g id="edge6" class="edge"><title>2&#45;&gt;6</title>
<path fill="none" stroke="black" d="M1837.02,-274.447C1910.29,-260.599 2012.67,-241.248 2096.1,-225.481"/>
<polygon fill="black" stroke="black" points="2097,-228.872 2106.18,-223.576 2095.7,-221.994 2097,-228.872"/>
</g>
<!-- 7 -->
<g id="node8" class="node"><title>7</title>
<path fill="#d3e4ff" stroke="black" d="M275,-127C275,-127 12,-127 12,-127 6,-127 0,-121 0,-115 0,-115 0,-86 0,-86 0,-80 6,-74 12,-74 12,-74 275,-74 275,-74 281,-74 287,-80 287,-86 287,-86 287,-115 287,-115 287,-121 281,-127 275,-127"/>
<text text-anchor="middle" x="143.5" y="-111.8" font-family="Times,serif" font-size="14.00">comp 0</text>
<text text-anchor="middle" x="143.5" y="-96.8" font-family="Times,serif" font-size="14.00">log gamma1: 0.073844 &#160;&#160;log gamma2: &#45;0.096947</text>
<text text-anchor="middle" x="143.5" y="-81.8" font-family="Times,serif" font-size="14.00">n kernels: &#45;5</text>
</g>
<!-- 3&#45;&gt;7 -->
<g id="edge7" class="edge"><title>3&#45;&gt;7</title>
<path fill="none" stroke="black" d="M436.248,-170.489C382.308,-157.778 316.978,-142.382 261.73,-129.362"/>
<polygon fill="black" stroke="black" points="262.428,-125.931 251.892,-127.044 260.823,-132.744 262.428,-125.931"/>
</g>
<!-- 8 -->
<g id="node9" class="node"><title>8</title>
<path fill="#bfcfe6" stroke="black" d="M580,-127C580,-127 317,-127 317,-127 311,-127 305,-121 305,-115 305,-115 305,-86 305,-86 305,-80 311,-74 317,-74 317,-74 580,-74 580,-74 586,-74 592,-80 592,-86 592,-86 592,-115 592,-115 592,-121 586,-127 580,-127"/>
<text text-anchor="middle" x="448.5" y="-111.8" font-family="Times,serif" font-size="14.00">comp 1</text>
<text text-anchor="middle" x="448.5" y="-96.8" font-family="Times,serif" font-size="14.00">log gamma1: &#45;0.272344 &#160;&#160;log gamma2: 0.403971</text>
<text text-anchor="middle" x="448.5" y="-81.8" font-family="Times,serif" font-size="14.00">n kernels: 1 &#160;&#160;pooling type: &#45;1</text>
</g>
<!-- 3&#45;&gt;8 -->
<g id="edge8" class="edge"><title>3&#45;&gt;8</title>
<path fill="none" stroke="black" d="M518.521,-170.427C507.209,-159.291 493.813,-146.105 481.783,-134.263"/>
<polygon fill="black" stroke="black" points="484.082,-131.614 474.5,-127.094 479.171,-136.603 484.082,-131.614"/>
</g>
<!-- 9 -->
<g id="node10" class="node"><title>9</title>
<path fill="#abb9ce" stroke="black" d="M656.5,-118.5C656.5,-118.5 622.5,-118.5 622.5,-118.5 616.5,-118.5 610.5,-112.5 610.5,-106.5 610.5,-106.5 610.5,-94.5 610.5,-94.5 610.5,-88.5 616.5,-82.5 622.5,-82.5 622.5,-82.5 656.5,-82.5 656.5,-82.5 662.5,-82.5 668.5,-88.5 668.5,-94.5 668.5,-94.5 668.5,-106.5 668.5,-106.5 668.5,-112.5 662.5,-118.5 656.5,-118.5"/>
<text text-anchor="middle" x="639.5" y="-96.8" font-family="Times,serif" font-size="14.00">identity</text>
</g>
<!-- 3&#45;&gt;9 -->
<g id="edge9" class="edge"><title>3&#45;&gt;9</title>
<path fill="none" stroke="black" d="M570.459,-170.177C584.365,-156.345 601.396,-139.403 615.063,-125.808"/>
<polygon fill="black" stroke="black" points="617.647,-128.174 622.269,-118.641 612.711,-123.212 617.647,-128.174"/>
</g>
<!-- 10 -->
<g id="node11" class="node"><title>10</title>
<path fill="#d3e4ff" stroke="black" d="M898.5,-119.5C898.5,-119.5 698.5,-119.5 698.5,-119.5 692.5,-119.5 686.5,-113.5 686.5,-107.5 686.5,-107.5 686.5,-93.5 686.5,-93.5 686.5,-87.5 692.5,-81.5 698.5,-81.5 698.5,-81.5 898.5,-81.5 898.5,-81.5 904.5,-81.5 910.5,-87.5 910.5,-93.5 910.5,-93.5 910.5,-107.5 910.5,-107.5 910.5,-113.5 904.5,-119.5 898.5,-119.5"/>
<text text-anchor="middle" x="798.5" y="-104.3" font-family="Times,serif" font-size="14.00">comp 0</text>
<text text-anchor="middle" x="798.5" y="-89.3" font-family="Times,serif" font-size="14.00">log gamma1: &#45;0.158652 &#160;&#160;n kernels: 7</text>
</g>
<!-- 4&#45;&gt;10 -->
<g id="edge10" class="edge"><title>4&#45;&gt;10</title>
<path fill="none" stroke="black" d="M976.668,-162.948C938.182,-149.675 894.919,-134.754 860.662,-122.939"/>
<polygon fill="black" stroke="black" points="861.388,-119.487 850.793,-119.535 859.106,-126.105 861.388,-119.487"/>
</g>
<!-- 11 -->
<g id="node12" class="node"><title>11</title>
<path fill="#bfcfe6" stroke="black" d="M1204,-127C1204,-127 941,-127 941,-127 935,-127 929,-121 929,-115 929,-115 929,-86 929,-86 929,-80 935,-74 941,-74 941,-74 1204,-74 1204,-74 1210,-74 1216,-80 1216,-86 1216,-86 1216,-115 1216,-115 1216,-121 1210,-127 1204,-127"/>
<text text-anchor="middle" x="1072.5" y="-111.8" font-family="Times,serif" font-size="14.00">comp 1</text>
<text text-anchor="middle" x="1072.5" y="-96.8" font-family="Times,serif" font-size="14.00">log gamma1: &#45;0.352688 &#160;&#160;log gamma2: 0.444056</text>
<text text-anchor="middle" x="1072.5" y="-81.8" font-family="Times,serif" font-size="14.00">n kernels: 1</text>
</g>
<!-- 4&#45;&gt;11 -->
<g id="edge11" class="edge"><title>4&#45;&gt;11</title>
<path fill="none" stroke="black" d="M1072.5,-162.948C1072.5,-154.715 1072.5,-145.848 1072.5,-137.481"/>
<polygon fill="black" stroke="black" points="1076,-137.237 1072.5,-127.237 1069,-137.237 1076,-137.237"/>
</g>
<!-- 12 -->
<g id="node13" class="node"><title>12</title>
<path fill="#abb9ce" stroke="black" d="M1280.5,-118.5C1280.5,-118.5 1246.5,-118.5 1246.5,-118.5 1240.5,-118.5 1234.5,-112.5 1234.5,-106.5 1234.5,-106.5 1234.5,-94.5 1234.5,-94.5 1234.5,-88.5 1240.5,-82.5 1246.5,-82.5 1246.5,-82.5 1280.5,-82.5 1280.5,-82.5 1286.5,-82.5 1292.5,-88.5 1292.5,-94.5 1292.5,-94.5 1292.5,-106.5 1292.5,-106.5 1292.5,-112.5 1286.5,-118.5 1280.5,-118.5"/>
<text text-anchor="middle" x="1263.5" y="-96.8" font-family="Times,serif" font-size="14.00">identity</text>
</g>
<!-- 4&#45;&gt;12 -->
<g id="edge12" class="edge"><title>4&#45;&gt;12</title>
<path fill="none" stroke="black" d="M1151.34,-162.966C1175.22,-152.231 1201.26,-139.774 1224.5,-127 1226.25,-126.036 1228.03,-125.019 1229.82,-123.97"/>
<polygon fill="black" stroke="black" points="1231.98,-126.751 1238.67,-118.539 1228.32,-120.784 1231.98,-126.751"/>
</g>
<!-- 13 -->
<g id="node14" class="node"><title>13</title>
<path fill="#d3e4ff" stroke="black" d="M1590.5,-127C1590.5,-127 1322.5,-127 1322.5,-127 1316.5,-127 1310.5,-121 1310.5,-115 1310.5,-115 1310.5,-86 1310.5,-86 1310.5,-80 1316.5,-74 1322.5,-74 1322.5,-74 1590.5,-74 1590.5,-74 1596.5,-74 1602.5,-80 1602.5,-86 1602.5,-86 1602.5,-115 1602.5,-115 1602.5,-121 1596.5,-127 1590.5,-127"/>
<text text-anchor="middle" x="1456.5" y="-111.8" font-family="Times,serif" font-size="14.00">comp 0</text>
<text text-anchor="middle" x="1456.5" y="-96.8" font-family="Times,serif" font-size="14.00">log gamma1: &#45;0.134473 &#160;&#160;log gamma2: &#45;0.001383</text>
<text text-anchor="middle" x="1456.5" y="-81.8" font-family="Times,serif" font-size="14.00">n kernels: 8 &#160;&#160;pooling type: 1</text>
</g>
<!-- 5&#45;&gt;13 -->
<g id="edge13" class="edge"><title>5&#45;&gt;13</title>
<path fill="none" stroke="black" d="M1664.37,-170.427C1626.99,-158.031 1581.94,-143.093 1543.35,-130.298"/>
<polygon fill="black" stroke="black" points="1544.28,-126.919 1533.69,-127.094 1542.08,-133.563 1544.28,-126.919"/>
</g>
<!-- 14 -->
<g id="node15" class="node"><title>14</title>
<path fill="#bfcfe6" stroke="black" d="M1850.5,-119.5C1850.5,-119.5 1632.5,-119.5 1632.5,-119.5 1626.5,-119.5 1620.5,-113.5 1620.5,-107.5 1620.5,-107.5 1620.5,-93.5 1620.5,-93.5 1620.5,-87.5 1626.5,-81.5 1632.5,-81.5 1632.5,-81.5 1850.5,-81.5 1850.5,-81.5 1856.5,-81.5 1862.5,-87.5 1862.5,-93.5 1862.5,-93.5 1862.5,-107.5 1862.5,-107.5 1862.5,-113.5 1856.5,-119.5 1850.5,-119.5"/>
<text text-anchor="middle" x="1741.5" y="-104.3" font-family="Times,serif" font-size="14.00">comp 1</text>
<text text-anchor="middle" x="1741.5" y="-89.3" font-family="Times,serif" font-size="14.00">log gamma2: &#45;0.437727 &#160;&#160;pooling type: 1</text>
</g>
<!-- 5&#45;&gt;14 -->
<g id="edge14" class="edge"><title>5&#45;&gt;14</title>
<path fill="none" stroke="black" d="M1741.5,-170.177C1741.5,-157.626 1741.5,-142.514 1741.5,-129.666"/>
<polygon fill="black" stroke="black" points="1745,-129.511 1741.5,-119.511 1738,-129.511 1745,-129.511"/>
</g>
<!-- 15 -->
<g id="node16" class="node"><title>15</title>
<path fill="#abb9ce" stroke="black" d="M1926.5,-118.5C1926.5,-118.5 1892.5,-118.5 1892.5,-118.5 1886.5,-118.5 1880.5,-112.5 1880.5,-106.5 1880.5,-106.5 1880.5,-94.5 1880.5,-94.5 1880.5,-88.5 1886.5,-82.5 1892.5,-82.5 1892.5,-82.5 1926.5,-82.5 1926.5,-82.5 1932.5,-82.5 1938.5,-88.5 1938.5,-94.5 1938.5,-94.5 1938.5,-106.5 1938.5,-106.5 1938.5,-112.5 1932.5,-118.5 1926.5,-118.5"/>
<text text-anchor="middle" x="1909.5" y="-96.8" font-family="Times,serif" font-size="14.00">identity</text>
</g>
<!-- 5&#45;&gt;15 -->
<g id="edge15" class="edge"><title>5&#45;&gt;15</title>
<path fill="none" stroke="black" d="M1792.49,-170.485C1816.74,-157.955 1845.96,-142.292 1871.5,-127 1873,-126.102 1874.52,-125.17 1876.05,-124.217"/>
<polygon fill="black" stroke="black" points="1878.27,-126.952 1884.8,-118.608 1874.49,-121.06 1878.27,-126.952"/>
</g>
<!-- 16 -->
<g id="node17" class="node"><title>16</title>
<path fill="#d3e4ff" stroke="black" d="M2236.5,-127C2236.5,-127 1968.5,-127 1968.5,-127 1962.5,-127 1956.5,-121 1956.5,-115 1956.5,-115 1956.5,-86 1956.5,-86 1956.5,-80 1962.5,-74 1968.5,-74 1968.5,-74 2236.5,-74 2236.5,-74 2242.5,-74 2248.5,-80 2248.5,-86 2248.5,-86 2248.5,-115 2248.5,-115 2248.5,-121 2242.5,-127 2236.5,-127"/>
<text text-anchor="middle" x="2102.5" y="-111.8" font-family="Times,serif" font-size="14.00">comp 0</text>
<text text-anchor="middle" x="2102.5" y="-96.8" font-family="Times,serif" font-size="14.00">log gamma1: &#45;0.260336 &#160;&#160;log gamma2: &#45;0.296738</text>
<text text-anchor="middle" x="2102.5" y="-81.8" font-family="Times,serif" font-size="14.00">n kernels: 6</text>
</g>
<!-- 6&#45;&gt;16 -->
<g id="edge16" class="edge"><title>6&#45;&gt;16</title>
<path fill="none" stroke="black" d="M2203.88,-170.427C2186.89,-158.871 2166.64,-145.107 2148.73,-132.928"/>
<polygon fill="black" stroke="black" points="2150.38,-129.821 2140.15,-127.094 2146.45,-135.61 2150.38,-129.821"/>
</g>
<!-- 17 -->
<g id="node18" class="node"><title>17</title>
<path fill="#bfcfe6" stroke="black" d="M2482.5,-127C2482.5,-127 2278.5,-127 2278.5,-127 2272.5,-127 2266.5,-121 2266.5,-115 2266.5,-115 2266.5,-86 2266.5,-86 2266.5,-80 2272.5,-74 2278.5,-74 2278.5,-74 2482.5,-74 2482.5,-74 2488.5,-74 2494.5,-80 2494.5,-86 2494.5,-86 2494.5,-115 2494.5,-115 2494.5,-121 2488.5,-127 2482.5,-127"/>
<text text-anchor="middle" x="2380.5" y="-111.8" font-family="Times,serif" font-size="14.00">comp 1</text>
<text text-anchor="middle" x="2380.5" y="-96.8" font-family="Times,serif" font-size="14.00">log gamma2: &#45;0.233827 &#160;&#160;n kernels: &#45;3</text>
<text text-anchor="middle" x="2380.5" y="-81.8" font-family="Times,serif" font-size="14.00">pooling type: &#45;1</text>
</g>
<!-- 6&#45;&gt;17 -->
<g id="edge17" class="edge"><title>6&#45;&gt;17</title>
<path fill="none" stroke="black" d="M2279.12,-170.427C2296.11,-158.871 2316.36,-145.107 2334.27,-132.928"/>
<polygon fill="black" stroke="black" points="2336.55,-135.61 2342.85,-127.094 2332.62,-129.821 2336.55,-135.61"/>
</g>
<!-- 18 -->
<g id="node19" class="node"><title>18</title>
<path fill="#abb9ce" stroke="black" d="M2558.5,-118.5C2558.5,-118.5 2524.5,-118.5 2524.5,-118.5 2518.5,-118.5 2512.5,-112.5 2512.5,-106.5 2512.5,-106.5 2512.5,-94.5 2512.5,-94.5 2512.5,-88.5 2518.5,-82.5 2524.5,-82.5 2524.5,-82.5 2558.5,-82.5 2558.5,-82.5 2564.5,-82.5 2570.5,-88.5 2570.5,-94.5 2570.5,-94.5 2570.5,-106.5 2570.5,-106.5 2570.5,-112.5 2564.5,-118.5 2558.5,-118.5"/>
<text text-anchor="middle" x="2541.5" y="-96.8" font-family="Times,serif" font-size="14.00">identity</text>
</g>
<!-- 6&#45;&gt;18 -->
<g id="edge18" class="edge"><title>6&#45;&gt;18</title>
<path fill="none" stroke="black" d="M2373.05,-170.448C2415.71,-159.789 2462.56,-145.492 2503.5,-127 2505.56,-126.07 2507.63,-125.032 2509.68,-123.921"/>
<polygon fill="black" stroke="black" points="2511.68,-126.807 2518.5,-118.697 2508.11,-120.786 2511.68,-126.807"/>
</g>
<!-- 19 -->
<g id="node20" class="node"><title>19</title>
<path fill="#f6d3ff" stroke="black" d="M161,-38C161,-38 126,-38 126,-38 120,-38 114,-32 114,-26 114,-26 114,-12 114,-12 114,-6 120,-0 126,-0 126,-0 161,-0 161,-0 167,-0 173,-6 173,-12 173,-12 173,-26 173,-26 173,-32 167,-38 161,-38"/>
<text text-anchor="middle" x="143.5" y="-22.8" font-family="Times,serif" font-size="14.00">forward</text>
<text text-anchor="middle" x="143.5" y="-7.8" font-family="Times,serif" font-size="14.00">input</text>
</g>
<!-- 7&#45;&gt;19 -->
<g id="edge19" class="edge"><title>7&#45;&gt;19</title>
<path fill="none" stroke="black" d="M143.5,-73.9081C143.5,-65.7377 143.5,-56.6492 143.5,-48.2981"/>
<polygon fill="black" stroke="black" points="147,-48.2389 143.5,-38.2389 140,-48.2389 147,-48.2389"/>
</g>
<!-- 20 -->
<g id="node21" class="node"><title>20</title>
<path fill="#f6d3ff" stroke="black" d="M466.5,-38C466.5,-38 430.5,-38 430.5,-38 424.5,-38 418.5,-32 418.5,-26 418.5,-26 418.5,-12 418.5,-12 418.5,-6 424.5,-0 430.5,-0 430.5,-0 466.5,-0 466.5,-0 472.5,-0 478.5,-6 478.5,-12 478.5,-12 478.5,-26 478.5,-26 478.5,-32 472.5,-38 466.5,-38"/>
<text text-anchor="middle" x="448.5" y="-22.8" font-family="Times,serif" font-size="14.00">forward</text>
<text text-anchor="middle" x="448.5" y="-7.8" font-family="Times,serif" font-size="14.00">EB0/C0</text>
</g>
<!-- 8&#45;&gt;20 -->
<g id="edge20" class="edge"><title>8&#45;&gt;20</title>
<path fill="none" stroke="black" d="M448.5,-73.9081C448.5,-65.7377 448.5,-56.6492 448.5,-48.2981"/>
<polygon fill="black" stroke="black" points="452,-48.2389 448.5,-38.2389 445,-48.2389 452,-48.2389"/>
</g>
<!-- 21 -->
<g id="node22" class="node"><title>21</title>
<path fill="#f6d3ff" stroke="black" d="M618.5,-38C618.5,-38 582.5,-38 582.5,-38 576.5,-38 570.5,-32 570.5,-26 570.5,-26 570.5,-12 570.5,-12 570.5,-6 576.5,-0 582.5,-0 582.5,-0 618.5,-0 618.5,-0 624.5,-0 630.5,-6 630.5,-12 630.5,-12 630.5,-26 630.5,-26 630.5,-32 624.5,-38 618.5,-38"/>
<text text-anchor="middle" x="600.5" y="-22.8" font-family="Times,serif" font-size="14.00">residual</text>
<text text-anchor="middle" x="600.5" y="-7.8" font-family="Times,serif" font-size="14.00">EB0/C0</text>
</g>
<!-- 9&#45;&gt;21 -->
<g id="edge21" class="edge"><title>9&#45;&gt;21</title>
<path fill="none" stroke="black" d="M631.038,-82.2497C626.032,-72.0459 619.579,-58.8928 613.896,-47.3078"/>
<polygon fill="black" stroke="black" points="616.899,-45.4808 609.352,-38.0444 610.614,-48.5639 616.899,-45.4808"/>
</g>
<!-- 22 -->
<g id="node23" class="node"><title>22</title>
<path fill="#debfe6" stroke="black" d="M696.5,-38C696.5,-38 660.5,-38 660.5,-38 654.5,-38 648.5,-32 648.5,-26 648.5,-26 648.5,-12 648.5,-12 648.5,-6 654.5,-0 660.5,-0 660.5,-0 696.5,-0 696.5,-0 702.5,-0 708.5,-6 708.5,-12 708.5,-12 708.5,-26 708.5,-26 708.5,-32 702.5,-38 696.5,-38"/>
<text text-anchor="middle" x="678.5" y="-22.8" font-family="Times,serif" font-size="14.00">forward</text>
<text text-anchor="middle" x="678.5" y="-7.8" font-family="Times,serif" font-size="14.00">EB0/C1</text>
</g>
<!-- 9&#45;&gt;22 -->
<g id="edge22" class="edge"><title>9&#45;&gt;22</title>
<path fill="none" stroke="black" d="M647.962,-82.2497C652.968,-72.0459 659.421,-58.8928 665.104,-47.3078"/>
<polygon fill="black" stroke="black" points="668.386,-48.5639 669.648,-38.0444 662.101,-45.4808 668.386,-48.5639"/>
</g>
<!-- 23 -->
<g id="node24" class="node"><title>23</title>
<path fill="#f6d3ff" stroke="black" d="M816,-38C816,-38 781,-38 781,-38 775,-38 769,-32 769,-26 769,-26 769,-12 769,-12 769,-6 775,-0 781,-0 781,-0 816,-0 816,-0 822,-0 828,-6 828,-12 828,-12 828,-26 828,-26 828,-32 822,-38 816,-38"/>
<text text-anchor="middle" x="798.5" y="-22.8" font-family="Times,serif" font-size="14.00">forward</text>
<text text-anchor="middle" x="798.5" y="-7.8" font-family="Times,serif" font-size="14.00">EB0/I</text>
</g>
<!-- 10&#45;&gt;23 -->
<g id="edge23" class="edge"><title>10&#45;&gt;23</title>
<path fill="none" stroke="black" d="M798.5,-81.4602C798.5,-71.67 798.5,-59.3453 798.5,-48.3073"/>
<polygon fill="black" stroke="black" points="802,-48.2435 798.5,-38.2436 795,-48.2436 802,-48.2435"/>
</g>
<!-- 24 -->
<g id="node25" class="node"><title>24</title>
<path fill="#f6d3ff" stroke="black" d="M1090.5,-38C1090.5,-38 1054.5,-38 1054.5,-38 1048.5,-38 1042.5,-32 1042.5,-26 1042.5,-26 1042.5,-12 1042.5,-12 1042.5,-6 1048.5,-0 1054.5,-0 1054.5,-0 1090.5,-0 1090.5,-0 1096.5,-0 1102.5,-6 1102.5,-12 1102.5,-12 1102.5,-26 1102.5,-26 1102.5,-32 1096.5,-38 1090.5,-38"/>
<text text-anchor="middle" x="1072.5" y="-22.8" font-family="Times,serif" font-size="14.00">forward</text>
<text text-anchor="middle" x="1072.5" y="-7.8" font-family="Times,serif" font-size="14.00">EB1/C0</text>
</g>
<!-- 11&#45;&gt;24 -->
<g id="edge24" class="edge"><title>11&#45;&gt;24</title>
<path fill="none" stroke="black" d="M1072.5,-73.9081C1072.5,-65.7377 1072.5,-56.6492 1072.5,-48.2981"/>
<polygon fill="black" stroke="black" points="1076,-48.2389 1072.5,-38.2389 1069,-48.2389 1076,-48.2389"/>
</g>
<!-- 25 -->
<g id="node26" class="node"><title>25</title>
<path fill="#f6d3ff" stroke="black" d="M1223.5,-38C1223.5,-38 1187.5,-38 1187.5,-38 1181.5,-38 1175.5,-32 1175.5,-26 1175.5,-26 1175.5,-12 1175.5,-12 1175.5,-6 1181.5,-0 1187.5,-0 1187.5,-0 1223.5,-0 1223.5,-0 1229.5,-0 1235.5,-6 1235.5,-12 1235.5,-12 1235.5,-26 1235.5,-26 1235.5,-32 1229.5,-38 1223.5,-38"/>
<text text-anchor="middle" x="1205.5" y="-22.8" font-family="Times,serif" font-size="14.00">residual</text>
<text text-anchor="middle" x="1205.5" y="-7.8" font-family="Times,serif" font-size="14.00">EB1/C0</text>
</g>
<!-- 12&#45;&gt;25 -->
<g id="edge25" class="edge"><title>12&#45;&gt;25</title>
<path fill="none" stroke="black" d="M1250.91,-82.2497C1243.25,-71.7398 1233.3,-58.101 1224.67,-46.2695"/>
<polygon fill="black" stroke="black" points="1227.39,-44.0602 1218.66,-38.0444 1221.73,-48.1859 1227.39,-44.0602"/>
</g>
<!-- 26 -->
<g id="node27" class="node"><title>26</title>
<path fill="#debfe6" stroke="black" d="M1301.5,-38C1301.5,-38 1265.5,-38 1265.5,-38 1259.5,-38 1253.5,-32 1253.5,-26 1253.5,-26 1253.5,-12 1253.5,-12 1253.5,-6 1259.5,-0 1265.5,-0 1265.5,-0 1301.5,-0 1301.5,-0 1307.5,-0 1313.5,-6 1313.5,-12 1313.5,-12 1313.5,-26 1313.5,-26 1313.5,-32 1307.5,-38 1301.5,-38"/>
<text text-anchor="middle" x="1283.5" y="-22.8" font-family="Times,serif" font-size="14.00">forward</text>
<text text-anchor="middle" x="1283.5" y="-7.8" font-family="Times,serif" font-size="14.00">EB1/C1</text>
</g>
<!-- 12&#45;&gt;26 -->
<g id="edge26" class="edge"><title>12&#45;&gt;26</title>
<path fill="none" stroke="black" d="M1267.84,-82.2497C1270.36,-72.25 1273.58,-59.4178 1276.45,-48.0048"/>
<polygon fill="black" stroke="black" points="1279.91,-48.5962 1278.96,-38.0444 1273.13,-46.8883 1279.91,-48.5962"/>
</g>
<!-- 27 -->
<g id="node28" class="node"><title>27</title>
<path fill="#f6d3ff" stroke="black" d="M1436,-38C1436,-38 1401,-38 1401,-38 1395,-38 1389,-32 1389,-26 1389,-26 1389,-12 1389,-12 1389,-6 1395,-0 1401,-0 1401,-0 1436,-0 1436,-0 1442,-0 1448,-6 1448,-12 1448,-12 1448,-26 1448,-26 1448,-32 1442,-38 1436,-38"/>
<text text-anchor="middle" x="1418.5" y="-22.8" font-family="Times,serif" font-size="14.00">forward</text>
<text text-anchor="middle" x="1418.5" y="-7.8" font-family="Times,serif" font-size="14.00">EB1/I</text>
</g>
<!-- 13&#45;&gt;27 -->
<g id="edge27" class="edge"><title>13&#45;&gt;27</title>
<path fill="none" stroke="black" d="M1444.27,-73.9081C1440.23,-65.4653 1435.73,-56.0423 1431.63,-47.4655"/>
<polygon fill="black" stroke="black" points="1434.69,-45.7518 1427.22,-38.2389 1428.37,-48.7706 1434.69,-45.7518"/>
</g>
<!-- 28 -->
<g id="node29" class="node"><title>28</title>
<path fill="#debfe6" stroke="black" d="M1508.5,-38C1508.5,-38 1478.5,-38 1478.5,-38 1472.5,-38 1466.5,-32 1466.5,-26 1466.5,-26 1466.5,-12 1466.5,-12 1466.5,-6 1472.5,-0 1478.5,-0 1478.5,-0 1508.5,-0 1508.5,-0 1514.5,-0 1520.5,-6 1520.5,-12 1520.5,-12 1520.5,-26 1520.5,-26 1520.5,-32 1514.5,-38 1508.5,-38"/>
<text text-anchor="middle" x="1493.5" y="-22.8" font-family="Times,serif" font-size="14.00">merge</text>
<text text-anchor="middle" x="1493.5" y="-7.8" font-family="Times,serif" font-size="14.00">EB1/I</text>
</g>
<!-- 13&#45;&gt;28 -->
<g id="edge28" class="edge"><title>13&#45;&gt;28</title>
<path fill="none" stroke="black" d="M1468.41,-73.9081C1472.34,-65.4653 1476.73,-56.0423 1480.72,-47.4655"/>
<polygon fill="black" stroke="black" points="1483.97,-48.782 1485.01,-38.2389 1477.62,-45.8283 1483.97,-48.782"/>
</g>
<!-- 29 -->
<g id="node30" class="node"><title>29</title>
<path fill="#f6d3ff" stroke="black" d="M1760.5,-38C1760.5,-38 1722.5,-38 1722.5,-38 1716.5,-38 1710.5,-32 1710.5,-26 1710.5,-26 1710.5,-12 1710.5,-12 1710.5,-6 1716.5,-0 1722.5,-0 1722.5,-0 1760.5,-0 1760.5,-0 1766.5,-0 1772.5,-6 1772.5,-12 1772.5,-12 1772.5,-26 1772.5,-26 1772.5,-32 1766.5,-38 1760.5,-38"/>
<text text-anchor="middle" x="1741.5" y="-22.8" font-family="Times,serif" font-size="14.00">forward</text>
<text text-anchor="middle" x="1741.5" y="-7.8" font-family="Times,serif" font-size="14.00">DB1/C0</text>
</g>
<!-- 14&#45;&gt;29 -->
<g id="edge29" class="edge"><title>14&#45;&gt;29</title>
<path fill="none" stroke="black" d="M1741.5,-81.4602C1741.5,-71.67 1741.5,-59.3453 1741.5,-48.3073"/>
<polygon fill="black" stroke="black" points="1745,-48.2435 1741.5,-38.2436 1738,-48.2436 1745,-48.2435"/>
</g>
<!-- 30 -->
<g id="node31" class="node"><title>30</title>
<path fill="#f6d3ff" stroke="black" d="M1867.5,-38C1867.5,-38 1829.5,-38 1829.5,-38 1823.5,-38 1817.5,-32 1817.5,-26 1817.5,-26 1817.5,-12 1817.5,-12 1817.5,-6 1823.5,-0 1829.5,-0 1829.5,-0 1867.5,-0 1867.5,-0 1873.5,-0 1879.5,-6 1879.5,-12 1879.5,-12 1879.5,-26 1879.5,-26 1879.5,-32 1873.5,-38 1867.5,-38"/>
<text text-anchor="middle" x="1848.5" y="-22.8" font-family="Times,serif" font-size="14.00">residual</text>
<text text-anchor="middle" x="1848.5" y="-7.8" font-family="Times,serif" font-size="14.00">DB1/C0</text>
</g>
<!-- 15&#45;&gt;30 -->
<g id="edge30" class="edge"><title>15&#45;&gt;30</title>
<path fill="none" stroke="black" d="M1896.26,-82.2497C1888.2,-71.7398 1877.73,-58.101 1868.66,-46.2695"/>
<polygon fill="black" stroke="black" points="1871.21,-43.8475 1862.35,-38.0444 1865.66,-48.1087 1871.21,-43.8475"/>
</g>
<!-- 31 -->
<g id="node32" class="node"><title>31</title>
<path fill="#debfe6" stroke="black" d="M1947.5,-38C1947.5,-38 1909.5,-38 1909.5,-38 1903.5,-38 1897.5,-32 1897.5,-26 1897.5,-26 1897.5,-12 1897.5,-12 1897.5,-6 1903.5,-0 1909.5,-0 1909.5,-0 1947.5,-0 1947.5,-0 1953.5,-0 1959.5,-6 1959.5,-12 1959.5,-12 1959.5,-26 1959.5,-26 1959.5,-32 1953.5,-38 1947.5,-38"/>
<text text-anchor="middle" x="1928.5" y="-22.8" font-family="Times,serif" font-size="14.00">forward</text>
<text text-anchor="middle" x="1928.5" y="-7.8" font-family="Times,serif" font-size="14.00">DB1/C1</text>
</g>
<!-- 15&#45;&gt;31 -->
<g id="edge31" class="edge"><title>15&#45;&gt;31</title>
<path fill="none" stroke="black" d="M1913.62,-82.2497C1916.01,-72.25 1919.08,-59.4178 1921.81,-48.0048"/>
<polygon fill="black" stroke="black" points="1925.27,-48.5841 1924.19,-38.0444 1918.46,-46.9569 1925.27,-48.5841"/>
</g>
<!-- 32 -->
<g id="node33" class="node"><title>32</title>
<path fill="#f6d3ff" stroke="black" d="M2082,-38C2082,-38 2047,-38 2047,-38 2041,-38 2035,-32 2035,-26 2035,-26 2035,-12 2035,-12 2035,-6 2041,-0 2047,-0 2047,-0 2082,-0 2082,-0 2088,-0 2094,-6 2094,-12 2094,-12 2094,-26 2094,-26 2094,-32 2088,-38 2082,-38"/>
<text text-anchor="middle" x="2064.5" y="-22.8" font-family="Times,serif" font-size="14.00">forward</text>
<text text-anchor="middle" x="2064.5" y="-7.8" font-family="Times,serif" font-size="14.00">DB1/I</text>
</g>
<!-- 16&#45;&gt;32 -->
<g id="edge32" class="edge"><title>16&#45;&gt;32</title>
<path fill="none" stroke="black" d="M2090.27,-73.9081C2086.23,-65.4653 2081.73,-56.0423 2077.63,-47.4655"/>
<polygon fill="black" stroke="black" points="2080.69,-45.7518 2073.22,-38.2389 2074.37,-48.7706 2080.69,-45.7518"/>
</g>
<!-- 33 -->
<g id="node34" class="node"><title>33</title>
<path fill="#debfe6" stroke="black" d="M2154.5,-38C2154.5,-38 2124.5,-38 2124.5,-38 2118.5,-38 2112.5,-32 2112.5,-26 2112.5,-26 2112.5,-12 2112.5,-12 2112.5,-6 2118.5,-0 2124.5,-0 2124.5,-0 2154.5,-0 2154.5,-0 2160.5,-0 2166.5,-6 2166.5,-12 2166.5,-12 2166.5,-26 2166.5,-26 2166.5,-32 2160.5,-38 2154.5,-38"/>
<text text-anchor="middle" x="2139.5" y="-22.8" font-family="Times,serif" font-size="14.00">merge</text>
<text text-anchor="middle" x="2139.5" y="-7.8" font-family="Times,serif" font-size="14.00">EB0/I</text>
</g>
<!-- 16&#45;&gt;33 -->
<g id="edge33" class="edge"><title>16&#45;&gt;33</title>
<path fill="none" stroke="black" d="M2114.41,-73.9081C2118.34,-65.4653 2122.73,-56.0423 2126.72,-47.4655"/>
<polygon fill="black" stroke="black" points="2129.97,-48.782 2131.01,-38.2389 2123.62,-45.8283 2129.97,-48.782"/>
</g>
<!-- 34 -->
<g id="node35" class="node"><title>34</title>
<path fill="#f6d3ff" stroke="black" d="M2399.5,-38C2399.5,-38 2361.5,-38 2361.5,-38 2355.5,-38 2349.5,-32 2349.5,-26 2349.5,-26 2349.5,-12 2349.5,-12 2349.5,-6 2355.5,-0 2361.5,-0 2361.5,-0 2399.5,-0 2399.5,-0 2405.5,-0 2411.5,-6 2411.5,-12 2411.5,-12 2411.5,-26 2411.5,-26 2411.5,-32 2405.5,-38 2399.5,-38"/>
<text text-anchor="middle" x="2380.5" y="-22.8" font-family="Times,serif" font-size="14.00">forward</text>
<text text-anchor="middle" x="2380.5" y="-7.8" font-family="Times,serif" font-size="14.00">DB0/C0</text>
</g>
<!-- 17&#45;&gt;34 -->
<g id="edge34" class="edge"><title>17&#45;&gt;34</title>
<path fill="none" stroke="black" d="M2380.5,-73.9081C2380.5,-65.7377 2380.5,-56.6492 2380.5,-48.2981"/>
<polygon fill="black" stroke="black" points="2384,-48.2389 2380.5,-38.2389 2377,-48.2389 2384,-48.2389"/>
</g>
<!-- 35 -->
<g id="node36" class="node"><title>35</title>
<path fill="#f6d3ff" stroke="black" d="M2520.5,-38C2520.5,-38 2482.5,-38 2482.5,-38 2476.5,-38 2470.5,-32 2470.5,-26 2470.5,-26 2470.5,-12 2470.5,-12 2470.5,-6 2476.5,-0 2482.5,-0 2482.5,-0 2520.5,-0 2520.5,-0 2526.5,-0 2532.5,-6 2532.5,-12 2532.5,-12 2532.5,-26 2532.5,-26 2532.5,-32 2526.5,-38 2520.5,-38"/>
<text text-anchor="middle" x="2501.5" y="-22.8" font-family="Times,serif" font-size="14.00">residual</text>
<text text-anchor="middle" x="2501.5" y="-7.8" font-family="Times,serif" font-size="14.00">DB0/C0</text>
</g>
<!-- 18&#45;&gt;35 -->
<g id="edge35" class="edge"><title>18&#45;&gt;35</title>
<path fill="none" stroke="black" d="M2532.82,-82.2497C2527.69,-72.0459 2521.07,-58.8928 2515.24,-47.3078"/>
<polygon fill="black" stroke="black" points="2518.2,-45.4043 2510.58,-38.0444 2511.95,-48.5506 2518.2,-45.4043"/>
</g>
<!-- 36 -->
<g id="node37" class="node"><title>36</title>
<path fill="#debfe6" stroke="black" d="M2600.5,-38C2600.5,-38 2562.5,-38 2562.5,-38 2556.5,-38 2550.5,-32 2550.5,-26 2550.5,-26 2550.5,-12 2550.5,-12 2550.5,-6 2556.5,-0 2562.5,-0 2562.5,-0 2600.5,-0 2600.5,-0 2606.5,-0 2612.5,-6 2612.5,-12 2612.5,-12 2612.5,-26 2612.5,-26 2612.5,-32 2606.5,-38 2600.5,-38"/>
<text text-anchor="middle" x="2581.5" y="-22.8" font-family="Times,serif" font-size="14.00">forward</text>
<text text-anchor="middle" x="2581.5" y="-7.8" font-family="Times,serif" font-size="14.00">DB0/C1</text>
</g>
<!-- 18&#45;&gt;36 -->
<g id="edge36" class="edge"><title>18&#45;&gt;36</title>
<path fill="none" stroke="black" d="M2550.18,-82.2497C2555.31,-72.0459 2561.93,-58.8928 2567.76,-47.3078"/>
<polygon fill="black" stroke="black" points="2571.05,-48.5506 2572.42,-38.0444 2564.8,-45.4043 2571.05,-48.5506"/>
</g>
</g>
</svg>
