<?xml version="1.0" encoding="UTF-8" standalone="no"?>
<!DOCTYPE svg PUBLIC "-//W3C//DTD SVG 1.1//EN"
 "http://www.w3.org/Graphics/SVG/1.1/DTD/svg11.dtd">
<!-- Generated by graphviz version 2.38.0 (20140413.2041)
 -->
<!-- Title: %3 Pages: 1 -->
<svg width="4247pt" height="357pt"
 viewBox="0.00 0.00 4247.00 357.00" xmlns="http://www.w3.org/2000/svg" xmlns:xlink="http://www.w3.org/1999/xlink">
<g id="graph0" class="graph" transform="scale(1 1) rotate(0) translate(4 353)">
<title>%3</title>
<polygon fill="none" stroke="none" points="-4,4 -4,-353 4243,-353 4243,4 -4,4"/>
<!-- 0 -->
<g id="node1" class="node"><title>0</title>
<path fill="#ffd3d3" stroke="black" d="M1931,-349C1931,-349 1774,-349 1774,-349 1768,-349 1762,-343 1762,-337 1762,-337 1762,-323 1762,-323 1762,-317 1768,-311 1774,-311 1774,-311 1931,-311 1931,-311 1937,-311 1943,-317 1943,-323 1943,-323 1943,-337 1943,-337 1943,-343 1937,-349 1931,-349"/>
<text text-anchor="middle" x="1852.5" y="-333.8" font-family="Times,serif" font-size="14.00">net</text>
<text text-anchor="middle" x="1852.5" y="-318.8" font-family="Times,serif" font-size="14.00">n kernels: 60 &#160;&#160;pooling type: 0</text>
</g>
<!-- 1 -->
<g id="node2" class="node"><title>1</title>
<path fill="#f6ffd3" stroke="black" d="M1107,-274C1107,-274 1072,-274 1072,-274 1066,-274 1060,-268 1060,-262 1060,-262 1060,-250 1060,-250 1060,-244 1066,-238 1072,-238 1072,-238 1107,-238 1107,-238 1113,-238 1119,-244 1119,-250 1119,-250 1119,-262 1119,-262 1119,-268 1113,-274 1107,-274"/>
<text text-anchor="middle" x="1089.5" y="-252.3" font-family="Times,serif" font-size="14.00">encoder</text>
</g>
<!-- 0&#45;&gt;1 -->
<g id="edge1" class="edge"><title>0&#45;&gt;1</title>
<path fill="none" stroke="black" d="M1761.98,-320.458C1595.48,-304.747 1246.95,-271.858 1129.28,-260.754"/>
<polygon fill="black" stroke="black" points="1129.55,-257.264 1119.27,-259.809 1128.9,-264.233 1129.55,-257.264"/>
</g>
<!-- 2 -->
<g id="node3" class="node"><title>2</title>
<path fill="#f6ffd3" stroke="black" d="M2716.5,-275C2716.5,-275 2516.5,-275 2516.5,-275 2510.5,-275 2504.5,-269 2504.5,-263 2504.5,-263 2504.5,-249 2504.5,-249 2504.5,-243 2510.5,-237 2516.5,-237 2516.5,-237 2716.5,-237 2716.5,-237 2722.5,-237 2728.5,-243 2728.5,-249 2728.5,-249 2728.5,-263 2728.5,-263 2728.5,-269 2722.5,-275 2716.5,-275"/>
<text text-anchor="middle" x="2616.5" y="-259.8" font-family="Times,serif" font-size="14.00">decoder</text>
<text text-anchor="middle" x="2616.5" y="-244.8" font-family="Times,serif" font-size="14.00">log gamma2: 1.000000 &#160;&#160;n kernels: &#45;4</text>
</g>
<!-- 0&#45;&gt;2 -->
<g id="edge2" class="edge"><title>0&#45;&gt;2</title>
<path fill="none" stroke="black" d="M1943.14,-320.458C2080.25,-307.536 2340.66,-282.996 2494.36,-268.511"/>
<polygon fill="black" stroke="black" points="2494.7,-271.994 2504.32,-267.572 2494.04,-265.025 2494.7,-271.994"/>
</g>
<!-- 3 -->
<g id="node4" class="node"><title>3</title>
<path fill="#d3ffe4" stroke="black" d="M287.5,-193.5C287.5,-193.5 167.5,-193.5 167.5,-193.5 161.5,-193.5 155.5,-187.5 155.5,-181.5 155.5,-181.5 155.5,-167.5 155.5,-167.5 155.5,-161.5 161.5,-155.5 167.5,-155.5 167.5,-155.5 287.5,-155.5 287.5,-155.5 293.5,-155.5 299.5,-161.5 299.5,-167.5 299.5,-167.5 299.5,-181.5 299.5,-181.5 299.5,-187.5 293.5,-193.5 287.5,-193.5"/>
<text text-anchor="middle" x="227.5" y="-178.3" font-family="Times,serif" font-size="14.00">encode block 0</text>
<text text-anchor="middle" x="227.5" y="-163.3" font-family="Times,serif" font-size="14.00">log gamma2: 1.950725</text>
</g>
<!-- 1&#45;&gt;3 -->
<g id="edge3" class="edge"><title>1&#45;&gt;3</title>
<path fill="none" stroke="black" d="M1059.83,-252.263C940.789,-241.285 495.36,-200.204 309.627,-183.074"/>
<polygon fill="black" stroke="black" points="309.921,-179.587 299.642,-182.153 309.279,-186.557 309.921,-179.587"/>
</g>
<!-- 4 -->
<g id="node5" class="node"><title>4</title>
<path fill="#bfe6cf" stroke="black" d="M744.5,-201C744.5,-201 542.5,-201 542.5,-201 536.5,-201 530.5,-195 530.5,-189 530.5,-189 530.5,-160 530.5,-160 530.5,-154 536.5,-148 542.5,-148 542.5,-148 744.5,-148 744.5,-148 750.5,-148 756.5,-154 756.5,-160 756.5,-160 756.5,-189 756.5,-189 756.5,-195 750.5,-201 744.5,-201"/>
<text text-anchor="middle" x="643.5" y="-185.8" font-family="Times,serif" font-size="14.00">encode block 1</text>
<text text-anchor="middle" x="643.5" y="-170.8" font-family="Times,serif" font-size="14.00">log gamma2: 1.000000 &#160;&#160;n kernels: 60</text>
<text text-anchor="middle" x="643.5" y="-155.8" font-family="Times,serif" font-size="14.00">spatial scale: 1</text>
</g>
<!-- 1&#45;&gt;4 -->
<g id="edge4" class="edge"><title>1&#45;&gt;4</title>
<path fill="none" stroke="black" d="M1059.89,-249.722C1001.15,-239.251 866.873,-215.316 766.586,-197.44"/>
<polygon fill="black" stroke="black" points="767.143,-193.984 756.684,-195.675 765.915,-200.876 767.143,-193.984"/>
</g>
<!-- 5 -->
<g id="node6" class="node"><title>5</title>
<path fill="#abceb9" stroke="black" d="M1194,-201C1194,-201 985,-201 985,-201 979,-201 973,-195 973,-189 973,-189 973,-160 973,-160 973,-154 979,-148 985,-148 985,-148 1194,-148 1194,-148 1200,-148 1206,-154 1206,-160 1206,-160 1206,-189 1206,-189 1206,-195 1200,-201 1194,-201"/>
<text text-anchor="middle" x="1089.5" y="-185.8" font-family="Times,serif" font-size="14.00">encode block 2</text>
<text text-anchor="middle" x="1089.5" y="-170.8" font-family="Times,serif" font-size="14.00">log gamma2: 1.000000 &#160;&#160;n kernels: 180</text>
<text text-anchor="middle" x="1089.5" y="-155.8" font-family="Times,serif" font-size="14.00">spatial scale: 2</text>
</g>
<!-- 1&#45;&gt;5 -->
<g id="edge5" class="edge"><title>1&#45;&gt;5</title>
<path fill="none" stroke="black" d="M1089.5,-237.75C1089.5,-229.986 1089.5,-220.514 1089.5,-211.325"/>
<polygon fill="black" stroke="black" points="1093,-211.176 1089.5,-201.176 1086,-211.176 1093,-211.176"/>
</g>
<!-- 6 -->
<g id="node7" class="node"><title>6</title>
<path fill="#97b6a3" stroke="black" d="M1482,-193.5C1482,-193.5 1321,-193.5 1321,-193.5 1315,-193.5 1309,-187.5 1309,-181.5 1309,-181.5 1309,-167.5 1309,-167.5 1309,-161.5 1315,-155.5 1321,-155.5 1321,-155.5 1482,-155.5 1482,-155.5 1488,-155.5 1494,-161.5 1494,-167.5 1494,-167.5 1494,-181.5 1494,-181.5 1494,-187.5 1488,-193.5 1482,-193.5"/>
<text text-anchor="middle" x="1401.5" y="-178.3" font-family="Times,serif" font-size="14.00">encode block 3</text>
<text text-anchor="middle" x="1401.5" y="-163.3" font-family="Times,serif" font-size="14.00">n kernels: 420 &#160;&#160;spatial scale: 3</text>
</g>
<!-- 1&#45;&gt;6 -->
<g id="edge6" class="edge"><title>1&#45;&gt;6</title>
<path fill="none" stroke="black" d="M1119.13,-247.449C1165,-235.763 1254.77,-212.888 1320.83,-196.055"/>
<polygon fill="black" stroke="black" points="1321.98,-199.374 1330.81,-193.513 1320.25,-192.591 1321.98,-199.374"/>
</g>
<!-- 7 -->
<g id="node8" class="node"><title>7</title>
<path fill="#d3ffe4" stroke="black" d="M2138,-193.5C2138,-193.5 1977,-193.5 1977,-193.5 1971,-193.5 1965,-187.5 1965,-181.5 1965,-181.5 1965,-167.5 1965,-167.5 1965,-161.5 1971,-155.5 1977,-155.5 1977,-155.5 2138,-155.5 2138,-155.5 2144,-155.5 2150,-161.5 2150,-167.5 2150,-167.5 2150,-181.5 2150,-181.5 2150,-187.5 2144,-193.5 2138,-193.5"/>
<text text-anchor="middle" x="2057.5" y="-178.3" font-family="Times,serif" font-size="14.00">decode block 4</text>
<text text-anchor="middle" x="2057.5" y="-163.3" font-family="Times,serif" font-size="14.00">n kernels: 840 &#160;&#160;spatial scale: 4</text>
</g>
<!-- 2&#45;&gt;7 -->
<g id="edge7" class="edge"><title>2&#45;&gt;7</title>
<path fill="none" stroke="black" d="M2504.39,-239.055C2404.04,-224.784 2258.11,-204.03 2160.61,-190.164"/>
<polygon fill="black" stroke="black" points="2160.84,-186.661 2150.44,-188.718 2159.85,-193.592 2160.84,-186.661"/>
</g>
<!-- 8 -->
<g id="node9" class="node"><title>8</title>
<path fill="#bfe6cf" stroke="black" d="M2519,-193.5C2519,-193.5 2358,-193.5 2358,-193.5 2352,-193.5 2346,-187.5 2346,-181.5 2346,-181.5 2346,-167.5 2346,-167.5 2346,-161.5 2352,-155.5 2358,-155.5 2358,-155.5 2519,-155.5 2519,-155.5 2525,-155.5 2531,-161.5 2531,-167.5 2531,-167.5 2531,-181.5 2531,-181.5 2531,-187.5 2525,-193.5 2519,-193.5"/>
<text text-anchor="middle" x="2438.5" y="-178.3" font-family="Times,serif" font-size="14.00">decode block 3</text>
<text text-anchor="middle" x="2438.5" y="-163.3" font-family="Times,serif" font-size="14.00">n kernels: 392 &#160;&#160;spatial scale: 3</text>
</g>
<!-- 2&#45;&gt;8 -->
<g id="edge8" class="edge"><title>2&#45;&gt;8</title>
<path fill="none" stroke="black" d="M2576.11,-236.96C2550.03,-225.312 2515.92,-210.076 2488.18,-197.688"/>
<polygon fill="black" stroke="black" points="2489.6,-194.488 2479.04,-193.606 2486.74,-200.88 2489.6,-194.488"/>
</g>
<!-- 9 -->
<g id="node10" class="node"><title>9</title>
<path fill="#abceb9" stroke="black" d="M2876,-193.5C2876,-193.5 2715,-193.5 2715,-193.5 2709,-193.5 2703,-187.5 2703,-181.5 2703,-181.5 2703,-167.5 2703,-167.5 2703,-161.5 2709,-155.5 2715,-155.5 2715,-155.5 2876,-155.5 2876,-155.5 2882,-155.5 2888,-161.5 2888,-167.5 2888,-167.5 2888,-181.5 2888,-181.5 2888,-187.5 2882,-193.5 2876,-193.5"/>
<text text-anchor="middle" x="2795.5" y="-178.3" font-family="Times,serif" font-size="14.00">decode block 2</text>
<text text-anchor="middle" x="2795.5" y="-163.3" font-family="Times,serif" font-size="14.00">n kernels: 168 &#160;&#160;spatial scale: 2</text>
</g>
<!-- 2&#45;&gt;9 -->
<g id="edge9" class="edge"><title>2&#45;&gt;9</title>
<path fill="none" stroke="black" d="M2657.12,-236.96C2683.34,-225.312 2717.65,-210.076 2745.54,-197.688"/>
<polygon fill="black" stroke="black" points="2747.01,-200.864 2754.73,-193.606 2744.17,-194.466 2747.01,-200.864"/>
</g>
<!-- 10 -->
<g id="node11" class="node"><title>10</title>
<path fill="#97b6a3" stroke="black" d="M3475,-193.5C3475,-193.5 3320,-193.5 3320,-193.5 3314,-193.5 3308,-187.5 3308,-181.5 3308,-181.5 3308,-167.5 3308,-167.5 3308,-161.5 3314,-155.5 3320,-155.5 3320,-155.5 3475,-155.5 3475,-155.5 3481,-155.5 3487,-161.5 3487,-167.5 3487,-167.5 3487,-181.5 3487,-181.5 3487,-187.5 3481,-193.5 3475,-193.5"/>
<text text-anchor="middle" x="3397.5" y="-178.3" font-family="Times,serif" font-size="14.00">decode block 1</text>
<text text-anchor="middle" x="3397.5" y="-163.3" font-family="Times,serif" font-size="14.00">n kernels: 56 &#160;&#160;spatial scale: 1</text>
</g>
<!-- 2&#45;&gt;10 -->
<g id="edge10" class="edge"><title>2&#45;&gt;10</title>
<path fill="none" stroke="black" d="M2728.81,-243.567C2881.33,-228.042 3151.61,-200.529 3297.48,-185.681"/>
<polygon fill="black" stroke="black" points="3298.17,-189.129 3307.77,-184.634 3297.46,-182.165 3298.17,-189.129"/>
</g>
<!-- 11 -->
<g id="node12" class="node"><title>11</title>
<path fill="#839e8d" stroke="black" d="M3915,-192.5C3915,-192.5 3840,-192.5 3840,-192.5 3834,-192.5 3828,-186.5 3828,-180.5 3828,-180.5 3828,-168.5 3828,-168.5 3828,-162.5 3834,-156.5 3840,-156.5 3840,-156.5 3915,-156.5 3915,-156.5 3921,-156.5 3927,-162.5 3927,-168.5 3927,-168.5 3927,-180.5 3927,-180.5 3927,-186.5 3921,-192.5 3915,-192.5"/>
<text text-anchor="middle" x="3877.5" y="-170.8" font-family="Times,serif" font-size="14.00">decode block 0</text>
</g>
<!-- 2&#45;&gt;11 -->
<g id="edge11" class="edge"><title>2&#45;&gt;11</title>
<path fill="none" stroke="black" d="M2728.56,-248.307C2895.62,-238.284 3219.9,-218.664 3495.5,-201 3609.37,-193.701 3742.31,-184.724 3817.53,-179.602"/>
<polygon fill="black" stroke="black" points="3818.01,-183.077 3827.75,-178.905 3817.54,-176.093 3818.01,-183.077"/>
</g>
<!-- 12 -->
<g id="node13" class="node"><title>12</title>
<path fill="#d3e4ff" stroke="black" d="M47.5,-111C47.5,-111 13.5,-111 13.5,-111 7.5,-111 1.5,-105 1.5,-99 1.5,-99 1.5,-87 1.5,-87 1.5,-81 7.5,-75 13.5,-75 13.5,-75 47.5,-75 47.5,-75 53.5,-75 59.5,-81 59.5,-87 59.5,-87 59.5,-99 59.5,-99 59.5,-105 53.5,-111 47.5,-111"/>
<text text-anchor="middle" x="30.5" y="-89.3" font-family="Times,serif" font-size="14.00">comp 0</text>
</g>
<!-- 3&#45;&gt;12 -->
<g id="edge12" class="edge"><title>3&#45;&gt;12</title>
<path fill="none" stroke="black" d="M178.06,-155.443C148.704,-144.479 110.616,-129.831 69.2909,-112.216"/>
<polygon fill="black" stroke="black" points="70.4313,-108.897 59.8615,-108.169 67.6702,-115.329 70.4313,-108.897"/>
</g>
<!-- 13 -->
<g id="node14" class="node"><title>13</title>
<path fill="#bfcfe6" stroke="black" d="M123.5,-111C123.5,-111 89.5,-111 89.5,-111 83.5,-111 77.5,-105 77.5,-99 77.5,-99 77.5,-87 77.5,-87 77.5,-81 83.5,-75 89.5,-75 89.5,-75 123.5,-75 123.5,-75 129.5,-75 135.5,-81 135.5,-87 135.5,-87 135.5,-99 135.5,-99 135.5,-105 129.5,-111 123.5,-111"/>
<text text-anchor="middle" x="106.5" y="-89.3" font-family="Times,serif" font-size="14.00">comp 1</text>
</g>
<!-- 3&#45;&gt;13 -->
<g id="edge13" class="edge"><title>3&#45;&gt;13</title>
<path fill="none" stroke="black" d="M200.043,-155.46C182.587,-143.991 159.837,-129.044 141.143,-116.761"/>
<polygon fill="black" stroke="black" points="142.883,-113.717 132.604,-111.151 139.04,-119.567 142.883,-113.717"/>
</g>
<!-- 14 -->
<g id="node15" class="node"><title>14</title>
<path fill="#abb9ce" stroke="black" d="M290,-112C290,-112 165,-112 165,-112 159,-112 153,-106 153,-100 153,-100 153,-86 153,-86 153,-80 159,-74 165,-74 165,-74 290,-74 290,-74 296,-74 302,-80 302,-86 302,-86 302,-100 302,-100 302,-106 296,-112 290,-112"/>
<text text-anchor="middle" x="227.5" y="-96.8" font-family="Times,serif" font-size="14.00">comp 2</text>
<text text-anchor="middle" x="227.5" y="-81.8" font-family="Times,serif" font-size="14.00">log gamma1: &#45;1.961686</text>
</g>
<!-- 3&#45;&gt;14 -->
<g id="edge14" class="edge"><title>3&#45;&gt;14</title>
<path fill="none" stroke="black" d="M227.5,-155.46C227.5,-145.67 227.5,-133.345 227.5,-122.307"/>
<polygon fill="black" stroke="black" points="231,-122.244 227.5,-112.244 224,-122.244 231,-122.244"/>
</g>
<!-- 15 -->
<g id="node16" class="node"><title>15</title>
<path fill="#97a3b6" stroke="black" d="M365.5,-111C365.5,-111 331.5,-111 331.5,-111 325.5,-111 319.5,-105 319.5,-99 319.5,-99 319.5,-87 319.5,-87 319.5,-81 325.5,-75 331.5,-75 331.5,-75 365.5,-75 365.5,-75 371.5,-75 377.5,-81 377.5,-87 377.5,-87 377.5,-99 377.5,-99 377.5,-105 371.5,-111 365.5,-111"/>
<text text-anchor="middle" x="348.5" y="-89.3" font-family="Times,serif" font-size="14.00">comp 3</text>
</g>
<!-- 3&#45;&gt;15 -->
<g id="edge15" class="edge"><title>3&#45;&gt;15</title>
<path fill="none" stroke="black" d="M254.957,-155.46C272.413,-143.991 295.163,-129.044 313.857,-116.761"/>
<polygon fill="black" stroke="black" points="315.96,-119.567 322.396,-111.151 312.117,-113.717 315.96,-119.567"/>
</g>
<!-- 16 -->
<g id="node17" class="node"><title>16</title>
<path fill="#d3e4ff" stroke="black" d="M463.5,-112C463.5,-112 407.5,-112 407.5,-112 401.5,-112 395.5,-106 395.5,-100 395.5,-100 395.5,-86 395.5,-86 395.5,-80 401.5,-74 407.5,-74 407.5,-74 463.5,-74 463.5,-74 469.5,-74 475.5,-80 475.5,-86 475.5,-86 475.5,-100 475.5,-100 475.5,-106 469.5,-112 463.5,-112"/>
<text text-anchor="middle" x="435.5" y="-96.8" font-family="Times,serif" font-size="14.00">comp 0</text>
<text text-anchor="middle" x="435.5" y="-81.8" font-family="Times,serif" font-size="14.00">n kernels: 8</text>
</g>
<!-- 4&#45;&gt;16 -->
<g id="edge16" class="edge"><title>4&#45;&gt;16</title>
<path fill="none" stroke="black" d="M576.543,-147.908C546.797,-136.539 512.401,-123.392 485.023,-112.928"/>
<polygon fill="black" stroke="black" points="486.241,-109.647 475.651,-109.346 483.742,-116.186 486.241,-109.647"/>
</g>
<!-- 17 -->
<g id="node18" class="node"><title>17</title>
<path fill="#bfcfe6" stroke="black" d="M573.5,-112C573.5,-112 505.5,-112 505.5,-112 499.5,-112 493.5,-106 493.5,-100 493.5,-100 493.5,-86 493.5,-86 493.5,-80 499.5,-74 505.5,-74 505.5,-74 573.5,-74 573.5,-74 579.5,-74 585.5,-80 585.5,-86 585.5,-86 585.5,-100 585.5,-100 585.5,-106 579.5,-112 573.5,-112"/>
<text text-anchor="middle" x="539.5" y="-96.8" font-family="Times,serif" font-size="14.00">comp 1</text>
<text text-anchor="middle" x="539.5" y="-81.8" font-family="Times,serif" font-size="14.00">n kernels: &#45;20</text>
</g>
<!-- 4&#45;&gt;17 -->
<g id="edge17" class="edge"><title>4&#45;&gt;17</title>
<path fill="none" stroke="black" d="M610.021,-147.908C597.67,-138.467 583.716,-127.799 571.499,-118.461"/>
<polygon fill="black" stroke="black" points="573.43,-115.531 563.36,-112.239 569.179,-121.093 573.43,-115.531"/>
</g>
<!-- 18 -->
<g id="node19" class="node"><title>18</title>
<path fill="#abb9ce" stroke="black" d="M671.5,-112C671.5,-112 615.5,-112 615.5,-112 609.5,-112 603.5,-106 603.5,-100 603.5,-100 603.5,-86 603.5,-86 603.5,-80 609.5,-74 615.5,-74 615.5,-74 671.5,-74 671.5,-74 677.5,-74 683.5,-80 683.5,-86 683.5,-86 683.5,-100 683.5,-100 683.5,-106 677.5,-112 671.5,-112"/>
<text text-anchor="middle" x="643.5" y="-96.8" font-family="Times,serif" font-size="14.00">comp 2</text>
<text text-anchor="middle" x="643.5" y="-81.8" font-family="Times,serif" font-size="14.00">n kernels: 8</text>
</g>
<!-- 4&#45;&gt;18 -->
<g id="edge18" class="edge"><title>4&#45;&gt;18</title>
<path fill="none" stroke="black" d="M643.5,-147.908C643.5,-139.738 643.5,-130.649 643.5,-122.298"/>
<polygon fill="black" stroke="black" points="647,-122.239 643.5,-112.239 640,-122.239 647,-122.239"/>
</g>
<!-- 19 -->
<g id="node20" class="node"><title>19</title>
<path fill="#97a3b6" stroke="black" d="M781.5,-112C781.5,-112 713.5,-112 713.5,-112 707.5,-112 701.5,-106 701.5,-100 701.5,-100 701.5,-86 701.5,-86 701.5,-80 707.5,-74 713.5,-74 713.5,-74 781.5,-74 781.5,-74 787.5,-74 793.5,-80 793.5,-86 793.5,-86 793.5,-100 793.5,-100 793.5,-106 787.5,-112 781.5,-112"/>
<text text-anchor="middle" x="747.5" y="-96.8" font-family="Times,serif" font-size="14.00">comp 3</text>
<text text-anchor="middle" x="747.5" y="-81.8" font-family="Times,serif" font-size="14.00">n kernels: &#45;15</text>
</g>
<!-- 4&#45;&gt;19 -->
<g id="edge19" class="edge"><title>4&#45;&gt;19</title>
<path fill="none" stroke="black" d="M676.979,-147.908C689.33,-138.467 703.284,-127.799 715.501,-118.461"/>
<polygon fill="black" stroke="black" points="717.821,-121.093 723.64,-112.239 713.57,-115.531 717.821,-121.093"/>
</g>
<!-- 20 -->
<g id="node21" class="node"><title>20</title>
<path fill="#d3e4ff" stroke="black" d="M857.5,-111C857.5,-111 823.5,-111 823.5,-111 817.5,-111 811.5,-105 811.5,-99 811.5,-99 811.5,-87 811.5,-87 811.5,-81 817.5,-75 823.5,-75 823.5,-75 857.5,-75 857.5,-75 863.5,-75 869.5,-81 869.5,-87 869.5,-87 869.5,-99 869.5,-99 869.5,-105 863.5,-111 857.5,-111"/>
<text text-anchor="middle" x="840.5" y="-89.3" font-family="Times,serif" font-size="14.00">comp 0</text>
</g>
<!-- 5&#45;&gt;20 -->
<g id="edge20" class="edge"><title>5&#45;&gt;20</title>
<path fill="none" stroke="black" d="M989.938,-147.989C956.939,-138.683 920.032,-127.359 879.337,-112.069"/>
<polygon fill="black" stroke="black" points="880.35,-108.71 869.759,-108.423 877.859,-115.252 880.35,-108.71"/>
</g>
<!-- 21 -->
<g id="node22" class="node"><title>21</title>
<path fill="#bfcfe6" stroke="black" d="M1113,-112C1113,-112 900,-112 900,-112 894,-112 888,-106 888,-100 888,-100 888,-86 888,-86 888,-80 894,-74 900,-74 900,-74 1113,-74 1113,-74 1119,-74 1125,-80 1125,-86 1125,-86 1125,-100 1125,-100 1125,-106 1119,-112 1113,-112"/>
<text text-anchor="middle" x="1006.5" y="-96.8" font-family="Times,serif" font-size="14.00">comp 1</text>
<text text-anchor="middle" x="1006.5" y="-81.8" font-family="Times,serif" font-size="14.00">log gamma1: 1.128097 &#160;&#160;n kernels: &#45;112</text>
</g>
<!-- 5&#45;&gt;21 -->
<g id="edge21" class="edge"><title>5&#45;&gt;21</title>
<path fill="none" stroke="black" d="M1062.78,-147.908C1053.21,-138.739 1042.43,-128.414 1032.88,-119.272"/>
<polygon fill="black" stroke="black" points="1035.18,-116.628 1025.54,-112.239 1030.34,-121.684 1035.18,-116.628"/>
</g>
<!-- 22 -->
<g id="node23" class="node"><title>22</title>
<path fill="#abb9ce" stroke="black" d="M1189.5,-111C1189.5,-111 1155.5,-111 1155.5,-111 1149.5,-111 1143.5,-105 1143.5,-99 1143.5,-99 1143.5,-87 1143.5,-87 1143.5,-81 1149.5,-75 1155.5,-75 1155.5,-75 1189.5,-75 1189.5,-75 1195.5,-75 1201.5,-81 1201.5,-87 1201.5,-87 1201.5,-99 1201.5,-99 1201.5,-105 1195.5,-111 1189.5,-111"/>
<text text-anchor="middle" x="1172.5" y="-89.3" font-family="Times,serif" font-size="14.00">comp 2</text>
</g>
<!-- 5&#45;&gt;22 -->
<g id="edge22" class="edge"><title>5&#45;&gt;22</title>
<path fill="none" stroke="black" d="M1116.22,-147.908C1126.17,-138.381 1137.42,-127.605 1147.23,-118.206"/>
<polygon fill="black" stroke="black" points="1149.94,-120.458 1154.74,-111.014 1145.09,-115.403 1149.94,-120.458"/>
</g>
<!-- 23 -->
<g id="node24" class="node"><title>23</title>
<path fill="#97a3b6" stroke="black" d="M1265.5,-111C1265.5,-111 1231.5,-111 1231.5,-111 1225.5,-111 1219.5,-105 1219.5,-99 1219.5,-99 1219.5,-87 1219.5,-87 1219.5,-81 1225.5,-75 1231.5,-75 1231.5,-75 1265.5,-75 1265.5,-75 1271.5,-75 1277.5,-81 1277.5,-87 1277.5,-87 1277.5,-99 1277.5,-99 1277.5,-105 1271.5,-111 1265.5,-111"/>
<text text-anchor="middle" x="1248.5" y="-89.3" font-family="Times,serif" font-size="14.00">comp 3</text>
</g>
<!-- 5&#45;&gt;23 -->
<g id="edge23" class="edge"><title>5&#45;&gt;23</title>
<path fill="none" stroke="black" d="M1140.68,-147.908C1163.2,-136.65 1189.2,-123.65 1210.03,-113.236"/>
<polygon fill="black" stroke="black" points="1211.82,-116.252 1219.2,-108.65 1208.69,-109.991 1211.82,-116.252"/>
</g>
<!-- 24 -->
<g id="node25" class="node"><title>24</title>
<path fill="#d3e4ff" stroke="black" d="M1342.5,-111C1342.5,-111 1308.5,-111 1308.5,-111 1302.5,-111 1296.5,-105 1296.5,-99 1296.5,-99 1296.5,-87 1296.5,-87 1296.5,-81 1302.5,-75 1308.5,-75 1308.5,-75 1342.5,-75 1342.5,-75 1348.5,-75 1354.5,-81 1354.5,-87 1354.5,-87 1354.5,-99 1354.5,-99 1354.5,-105 1348.5,-111 1342.5,-111"/>
<text text-anchor="middle" x="1325.5" y="-89.3" font-family="Times,serif" font-size="14.00">comp 0</text>
</g>
<!-- 6&#45;&gt;24 -->
<g id="edge24" class="edge"><title>6&#45;&gt;24</title>
<path fill="none" stroke="black" d="M1384.25,-155.46C1373.84,-144.562 1360.41,-130.523 1349.03,-118.614"/>
<polygon fill="black" stroke="black" points="1351.34,-115.961 1341.9,-111.151 1346.28,-120.798 1351.34,-115.961"/>
</g>
<!-- 25 -->
<g id="node26" class="node"><title>25</title>
<path fill="#bfcfe6" stroke="black" d="M1418.5,-111C1418.5,-111 1384.5,-111 1384.5,-111 1378.5,-111 1372.5,-105 1372.5,-99 1372.5,-99 1372.5,-87 1372.5,-87 1372.5,-81 1378.5,-75 1384.5,-75 1384.5,-75 1418.5,-75 1418.5,-75 1424.5,-75 1430.5,-81 1430.5,-87 1430.5,-87 1430.5,-99 1430.5,-99 1430.5,-105 1424.5,-111 1418.5,-111"/>
<text text-anchor="middle" x="1401.5" y="-89.3" font-family="Times,serif" font-size="14.00">comp 1</text>
</g>
<!-- 6&#45;&gt;25 -->
<g id="edge25" class="edge"><title>6&#45;&gt;25</title>
<path fill="none" stroke="black" d="M1401.5,-155.46C1401.5,-145.392 1401.5,-132.644 1401.5,-121.371"/>
<polygon fill="black" stroke="black" points="1405,-121.151 1401.5,-111.151 1398,-121.151 1405,-121.151"/>
</g>
<!-- 26 -->
<g id="node27" class="node"><title>26</title>
<path fill="#abb9ce" stroke="black" d="M1626,-112C1626,-112 1461,-112 1461,-112 1455,-112 1449,-106 1449,-100 1449,-100 1449,-86 1449,-86 1449,-80 1455,-74 1461,-74 1461,-74 1626,-74 1626,-74 1632,-74 1638,-80 1638,-86 1638,-86 1638,-100 1638,-100 1638,-106 1632,-112 1626,-112"/>
<text text-anchor="middle" x="1543.5" y="-96.8" font-family="Times,serif" font-size="14.00">comp 2</text>
<text text-anchor="middle" x="1543.5" y="-81.8" font-family="Times,serif" font-size="14.00">dilation rate: 1 &#160;&#160;n kernels: &#45;352</text>
</g>
<!-- 6&#45;&gt;26 -->
<g id="edge26" class="edge"><title>6&#45;&gt;26</title>
<path fill="none" stroke="black" d="M1433.72,-155.46C1454,-144.106 1480.37,-129.342 1502.19,-117.13"/>
<polygon fill="black" stroke="black" points="1503.9,-120.183 1510.91,-112.244 1500.48,-114.075 1503.9,-120.183"/>
</g>
<!-- 27 -->
<g id="node28" class="node"><title>27</title>
<path fill="#97a3b6" stroke="black" d="M1702.5,-111C1702.5,-111 1668.5,-111 1668.5,-111 1662.5,-111 1656.5,-105 1656.5,-99 1656.5,-99 1656.5,-87 1656.5,-87 1656.5,-81 1662.5,-75 1668.5,-75 1668.5,-75 1702.5,-75 1702.5,-75 1708.5,-75 1714.5,-81 1714.5,-87 1714.5,-87 1714.5,-99 1714.5,-99 1714.5,-105 1708.5,-111 1702.5,-111"/>
<text text-anchor="middle" x="1685.5" y="-89.3" font-family="Times,serif" font-size="14.00">comp 3</text>
</g>
<!-- 6&#45;&gt;27 -->
<g id="edge27" class="edge"><title>6&#45;&gt;27</title>
<path fill="none" stroke="black" d="M1489.98,-155.481C1537.09,-144.845 1595.63,-129.947 1646.5,-112 1646.6,-111.964 1646.7,-111.929 1646.8,-111.893"/>
<polygon fill="black" stroke="black" points="1648.31,-115.06 1656.36,-108.161 1645.77,-108.54 1648.31,-115.06"/>
</g>
<!-- 28 -->
<g id="node29" class="node"><title>28</title>
<path fill="#d3e4ff" stroke="black" d="M1816.5,-112C1816.5,-112 1744.5,-112 1744.5,-112 1738.5,-112 1732.5,-106 1732.5,-100 1732.5,-100 1732.5,-86 1732.5,-86 1732.5,-80 1738.5,-74 1744.5,-74 1744.5,-74 1816.5,-74 1816.5,-74 1822.5,-74 1828.5,-80 1828.5,-86 1828.5,-86 1828.5,-100 1828.5,-100 1828.5,-106 1822.5,-112 1816.5,-112"/>
<text text-anchor="middle" x="1780.5" y="-96.8" font-family="Times,serif" font-size="14.00">comp 0</text>
<text text-anchor="middle" x="1780.5" y="-81.8" font-family="Times,serif" font-size="14.00">dilation rate: 1</text>
</g>
<!-- 7&#45;&gt;28 -->
<g id="edge28" class="edge"><title>7&#45;&gt;28</title>
<path fill="none" stroke="black" d="M1990.42,-155.371C1949.14,-144.071 1894.94,-128.973 1838.49,-112.253"/>
<polygon fill="black" stroke="black" points="1839.25,-108.828 1828.67,-109.335 1837.26,-115.538 1839.25,-108.828"/>
</g>
<!-- 29 -->
<g id="node30" class="node"><title>29</title>
<path fill="#bfcfe6" stroke="black" d="M1932.5,-112C1932.5,-112 1858.5,-112 1858.5,-112 1852.5,-112 1846.5,-106 1846.5,-100 1846.5,-100 1846.5,-86 1846.5,-86 1846.5,-80 1852.5,-74 1858.5,-74 1858.5,-74 1932.5,-74 1932.5,-74 1938.5,-74 1944.5,-80 1944.5,-86 1944.5,-86 1944.5,-100 1944.5,-100 1944.5,-106 1938.5,-112 1932.5,-112"/>
<text text-anchor="middle" x="1895.5" y="-96.8" font-family="Times,serif" font-size="14.00">comp 1</text>
<text text-anchor="middle" x="1895.5" y="-81.8" font-family="Times,serif" font-size="14.00">n kernels: &#45;768</text>
</g>
<!-- 7&#45;&gt;29 -->
<g id="edge29" class="edge"><title>7&#45;&gt;29</title>
<path fill="none" stroke="black" d="M2020.74,-155.46C1997.21,-143.913 1966.5,-128.841 1941.37,-116.512"/>
<polygon fill="black" stroke="black" points="1942.91,-113.369 1932.39,-112.106 1939.83,-119.653 1942.91,-113.369"/>
</g>
<!-- 30 -->
<g id="node31" class="node"><title>30</title>
<path fill="#abb9ce" stroke="black" d="M2140,-112C2140,-112 1975,-112 1975,-112 1969,-112 1963,-106 1963,-100 1963,-100 1963,-86 1963,-86 1963,-80 1969,-74 1975,-74 1975,-74 2140,-74 2140,-74 2146,-74 2152,-80 2152,-86 2152,-86 2152,-100 2152,-100 2152,-106 2146,-112 2140,-112"/>
<text text-anchor="middle" x="2057.5" y="-96.8" font-family="Times,serif" font-size="14.00">comp 2</text>
<text text-anchor="middle" x="2057.5" y="-81.8" font-family="Times,serif" font-size="14.00">dilation rate: 1 &#160;&#160;n kernels: &#45;768</text>
</g>
<!-- 7&#45;&gt;30 -->
<g id="edge30" class="edge"><title>7&#45;&gt;30</title>
<path fill="none" stroke="black" d="M2057.5,-155.46C2057.5,-145.67 2057.5,-133.345 2057.5,-122.307"/>
<polygon fill="black" stroke="black" points="2061,-122.244 2057.5,-112.244 2054,-122.244 2061,-122.244"/>
</g>
<!-- 31 -->
<g id="node32" class="node"><title>31</title>
<path fill="#97a3b6" stroke="black" d="M2216.5,-111C2216.5,-111 2182.5,-111 2182.5,-111 2176.5,-111 2170.5,-105 2170.5,-99 2170.5,-99 2170.5,-87 2170.5,-87 2170.5,-81 2176.5,-75 2182.5,-75 2182.5,-75 2216.5,-75 2216.5,-75 2222.5,-75 2228.5,-81 2228.5,-87 2228.5,-87 2228.5,-99 2228.5,-99 2228.5,-105 2222.5,-111 2216.5,-111"/>
<text text-anchor="middle" x="2199.5" y="-89.3" font-family="Times,serif" font-size="14.00">comp 3</text>
</g>
<!-- 7&#45;&gt;31 -->
<g id="edge31" class="edge"><title>7&#45;&gt;31</title>
<path fill="none" stroke="black" d="M2089.72,-155.46C2111.01,-143.542 2139.01,-127.867 2161.4,-115.331"/>
<polygon fill="black" stroke="black" points="2163.29,-118.285 2170.3,-110.346 2159.87,-112.177 2163.29,-118.285"/>
</g>
<!-- 32 -->
<g id="node33" class="node"><title>32</title>
<path fill="#d3e4ff" stroke="black" d="M2302.5,-111C2302.5,-111 2268.5,-111 2268.5,-111 2262.5,-111 2256.5,-105 2256.5,-99 2256.5,-99 2256.5,-87 2256.5,-87 2256.5,-81 2262.5,-75 2268.5,-75 2268.5,-75 2302.5,-75 2302.5,-75 2308.5,-75 2314.5,-81 2314.5,-87 2314.5,-87 2314.5,-99 2314.5,-99 2314.5,-105 2308.5,-111 2302.5,-111"/>
<text text-anchor="middle" x="2285.5" y="-89.3" font-family="Times,serif" font-size="14.00">comp 0</text>
</g>
<!-- 8&#45;&gt;32 -->
<g id="edge32" class="edge"><title>8&#45;&gt;32</title>
<path fill="none" stroke="black" d="M2403.78,-155.46C2380.02,-143.111 2348.49,-126.729 2323.96,-113.984"/>
<polygon fill="black" stroke="black" points="2325.42,-110.798 2314.93,-109.293 2322.19,-117.01 2325.42,-110.798"/>
</g>
<!-- 33 -->
<g id="node34" class="node"><title>33</title>
<path fill="#bfcfe6" stroke="black" d="M2379.5,-111C2379.5,-111 2345.5,-111 2345.5,-111 2339.5,-111 2333.5,-105 2333.5,-99 2333.5,-99 2333.5,-87 2333.5,-87 2333.5,-81 2339.5,-75 2345.5,-75 2345.5,-75 2379.5,-75 2379.5,-75 2385.5,-75 2391.5,-81 2391.5,-87 2391.5,-87 2391.5,-99 2391.5,-99 2391.5,-105 2385.5,-111 2379.5,-111"/>
<text text-anchor="middle" x="2362.5" y="-89.3" font-family="Times,serif" font-size="14.00">comp 1</text>
</g>
<!-- 8&#45;&gt;33 -->
<g id="edge33" class="edge"><title>8&#45;&gt;33</title>
<path fill="none" stroke="black" d="M2421.25,-155.46C2410.84,-144.562 2397.41,-130.523 2386.03,-118.614"/>
<polygon fill="black" stroke="black" points="2388.34,-115.961 2378.9,-111.151 2383.28,-120.798 2388.34,-115.961"/>
</g>
<!-- 34 -->
<g id="node35" class="node"><title>34</title>
<path fill="#abb9ce" stroke="black" d="M2455.5,-111C2455.5,-111 2421.5,-111 2421.5,-111 2415.5,-111 2409.5,-105 2409.5,-99 2409.5,-99 2409.5,-87 2409.5,-87 2409.5,-81 2415.5,-75 2421.5,-75 2421.5,-75 2455.5,-75 2455.5,-75 2461.5,-75 2467.5,-81 2467.5,-87 2467.5,-87 2467.5,-99 2467.5,-99 2467.5,-105 2461.5,-111 2455.5,-111"/>
<text text-anchor="middle" x="2438.5" y="-89.3" font-family="Times,serif" font-size="14.00">comp 2</text>
</g>
<!-- 8&#45;&gt;34 -->
<g id="edge34" class="edge"><title>8&#45;&gt;34</title>
<path fill="none" stroke="black" d="M2438.5,-155.46C2438.5,-145.392 2438.5,-132.644 2438.5,-121.371"/>
<polygon fill="black" stroke="black" points="2442,-121.151 2438.5,-111.151 2435,-121.151 2442,-121.151"/>
</g>
<!-- 35 -->
<g id="node36" class="node"><title>35</title>
<path fill="#97a3b6" stroke="black" d="M2531.5,-111C2531.5,-111 2497.5,-111 2497.5,-111 2491.5,-111 2485.5,-105 2485.5,-99 2485.5,-99 2485.5,-87 2485.5,-87 2485.5,-81 2491.5,-75 2497.5,-75 2497.5,-75 2531.5,-75 2531.5,-75 2537.5,-75 2543.5,-81 2543.5,-87 2543.5,-87 2543.5,-99 2543.5,-99 2543.5,-105 2537.5,-111 2531.5,-111"/>
<text text-anchor="middle" x="2514.5" y="-89.3" font-family="Times,serif" font-size="14.00">comp 3</text>
</g>
<!-- 8&#45;&gt;35 -->
<g id="edge35" class="edge"><title>8&#45;&gt;35</title>
<path fill="none" stroke="black" d="M2455.75,-155.46C2466.16,-144.562 2479.59,-130.523 2490.97,-118.614"/>
<polygon fill="black" stroke="black" points="2493.72,-120.798 2498.1,-111.151 2488.66,-115.961 2493.72,-120.798"/>
</g>
<!-- 36 -->
<g id="node37" class="node"><title>36</title>
<path fill="#d3e4ff" stroke="black" d="M2693.5,-112C2693.5,-112 2573.5,-112 2573.5,-112 2567.5,-112 2561.5,-106 2561.5,-100 2561.5,-100 2561.5,-86 2561.5,-86 2561.5,-80 2567.5,-74 2573.5,-74 2573.5,-74 2693.5,-74 2693.5,-74 2699.5,-74 2705.5,-80 2705.5,-86 2705.5,-86 2705.5,-100 2705.5,-100 2705.5,-106 2699.5,-112 2693.5,-112"/>
<text text-anchor="middle" x="2633.5" y="-96.8" font-family="Times,serif" font-size="14.00">comp 0</text>
<text text-anchor="middle" x="2633.5" y="-81.8" font-family="Times,serif" font-size="14.00">log gamma1: 0.833373</text>
</g>
<!-- 9&#45;&gt;36 -->
<g id="edge36" class="edge"><title>9&#45;&gt;36</title>
<path fill="none" stroke="black" d="M2758.74,-155.46C2735.21,-143.913 2704.5,-128.841 2679.37,-116.512"/>
<polygon fill="black" stroke="black" points="2680.91,-113.369 2670.39,-112.106 2677.83,-119.653 2680.91,-113.369"/>
</g>
<!-- 37 -->
<g id="node38" class="node"><title>37</title>
<path fill="#bfcfe6" stroke="black" d="M2855.5,-112C2855.5,-112 2735.5,-112 2735.5,-112 2729.5,-112 2723.5,-106 2723.5,-100 2723.5,-100 2723.5,-86 2723.5,-86 2723.5,-80 2729.5,-74 2735.5,-74 2735.5,-74 2855.5,-74 2855.5,-74 2861.5,-74 2867.5,-80 2867.5,-86 2867.5,-86 2867.5,-100 2867.5,-100 2867.5,-106 2861.5,-112 2855.5,-112"/>
<text text-anchor="middle" x="2795.5" y="-96.8" font-family="Times,serif" font-size="14.00">comp 1</text>
<text text-anchor="middle" x="2795.5" y="-81.8" font-family="Times,serif" font-size="14.00">log gamma1: 0.672335</text>
</g>
<!-- 9&#45;&gt;37 -->
<g id="edge37" class="edge"><title>9&#45;&gt;37</title>
<path fill="none" stroke="black" d="M2795.5,-155.46C2795.5,-145.67 2795.5,-133.345 2795.5,-122.307"/>
<polygon fill="black" stroke="black" points="2799,-122.244 2795.5,-112.244 2792,-122.244 2799,-122.244"/>
</g>
<!-- 38 -->
<g id="node39" class="node"><title>38</title>
<path fill="#abb9ce" stroke="black" d="M2931.5,-111C2931.5,-111 2897.5,-111 2897.5,-111 2891.5,-111 2885.5,-105 2885.5,-99 2885.5,-99 2885.5,-87 2885.5,-87 2885.5,-81 2891.5,-75 2897.5,-75 2897.5,-75 2931.5,-75 2931.5,-75 2937.5,-75 2943.5,-81 2943.5,-87 2943.5,-87 2943.5,-99 2943.5,-99 2943.5,-105 2937.5,-111 2931.5,-111"/>
<text text-anchor="middle" x="2914.5" y="-89.3" font-family="Times,serif" font-size="14.00">comp 2</text>
</g>
<!-- 9&#45;&gt;38 -->
<g id="edge38" class="edge"><title>9&#45;&gt;38</title>
<path fill="none" stroke="black" d="M2822.5,-155.46C2839.59,-144.043 2861.84,-129.179 2880.18,-116.928"/>
<polygon fill="black" stroke="black" points="2882.46,-119.616 2888.83,-111.151 2878.57,-113.796 2882.46,-119.616"/>
</g>
<!-- 39 -->
<g id="node40" class="node"><title>39</title>
<path fill="#97a3b6" stroke="black" d="M3007.5,-111C3007.5,-111 2973.5,-111 2973.5,-111 2967.5,-111 2961.5,-105 2961.5,-99 2961.5,-99 2961.5,-87 2961.5,-87 2961.5,-81 2967.5,-75 2973.5,-75 2973.5,-75 3007.5,-75 3007.5,-75 3013.5,-75 3019.5,-81 3019.5,-87 3019.5,-87 3019.5,-99 3019.5,-99 3019.5,-105 3013.5,-111 3007.5,-111"/>
<text text-anchor="middle" x="2990.5" y="-89.3" font-family="Times,serif" font-size="14.00">comp 3</text>
</g>
<!-- 9&#45;&gt;39 -->
<g id="edge39" class="edge"><title>9&#45;&gt;39</title>
<path fill="none" stroke="black" d="M2844.3,-155.379C2873.28,-144.391 2910.89,-129.738 2951.8,-112.188"/>
<polygon fill="black" stroke="black" points="2953.34,-115.334 2961.13,-108.156 2950.56,-108.907 2953.34,-115.334"/>
</g>
<!-- 40 -->
<g id="node41" class="node"><title>40</title>
<path fill="#d3e4ff" stroke="black" d="M3249.5,-112C3249.5,-112 3049.5,-112 3049.5,-112 3043.5,-112 3037.5,-106 3037.5,-100 3037.5,-100 3037.5,-86 3037.5,-86 3037.5,-80 3043.5,-74 3049.5,-74 3049.5,-74 3249.5,-74 3249.5,-74 3255.5,-74 3261.5,-80 3261.5,-86 3261.5,-86 3261.5,-100 3261.5,-100 3261.5,-106 3255.5,-112 3249.5,-112"/>
<text text-anchor="middle" x="3149.5" y="-96.8" font-family="Times,serif" font-size="14.00">comp 0</text>
<text text-anchor="middle" x="3149.5" y="-81.8" font-family="Times,serif" font-size="14.00">log gamma2: 1.855825 &#160;&#160;n kernels: &#45;5</text>
</g>
<!-- 10&#45;&gt;40 -->
<g id="edge40" class="edge"><title>10&#45;&gt;40</title>
<path fill="none" stroke="black" d="M3341.22,-155.46C3303.94,-143.508 3254.87,-127.779 3215.71,-115.225"/>
<polygon fill="black" stroke="black" points="3216.57,-111.826 3205.98,-112.106 3214.44,-118.491 3216.57,-111.826"/>
</g>
<!-- 41 -->
<g id="node42" class="node"><title>41</title>
<path fill="#bfcfe6" stroke="black" d="M3503,-112C3503,-112 3292,-112 3292,-112 3286,-112 3280,-106 3280,-100 3280,-100 3280,-86 3280,-86 3280,-80 3286,-74 3292,-74 3292,-74 3503,-74 3503,-74 3509,-74 3515,-80 3515,-86 3515,-86 3515,-100 3515,-100 3515,-106 3509,-112 3503,-112"/>
<text text-anchor="middle" x="3397.5" y="-96.8" font-family="Times,serif" font-size="14.00">comp 1</text>
<text text-anchor="middle" x="3397.5" y="-81.8" font-family="Times,serif" font-size="14.00">log gamma1: &#45;0.827165 &#160;&#160;n kernels: &#45;10</text>
</g>
<!-- 10&#45;&gt;41 -->
<g id="edge41" class="edge"><title>10&#45;&gt;41</title>
<path fill="none" stroke="black" d="M3397.5,-155.46C3397.5,-145.67 3397.5,-133.345 3397.5,-122.307"/>
<polygon fill="black" stroke="black" points="3401,-122.244 3397.5,-112.244 3394,-122.244 3401,-122.244"/>
</g>
<!-- 42 -->
<g id="node43" class="node"><title>42</title>
<path fill="#abb9ce" stroke="black" d="M3579.5,-111C3579.5,-111 3545.5,-111 3545.5,-111 3539.5,-111 3533.5,-105 3533.5,-99 3533.5,-99 3533.5,-87 3533.5,-87 3533.5,-81 3539.5,-75 3545.5,-75 3545.5,-75 3579.5,-75 3579.5,-75 3585.5,-75 3591.5,-81 3591.5,-87 3591.5,-87 3591.5,-99 3591.5,-99 3591.5,-105 3585.5,-111 3579.5,-111"/>
<text text-anchor="middle" x="3562.5" y="-89.3" font-family="Times,serif" font-size="14.00">comp 2</text>
</g>
<!-- 10&#45;&gt;42 -->
<g id="edge42" class="edge"><title>10&#45;&gt;42</title>
<path fill="none" stroke="black" d="M3434.94,-155.46C3461.65,-142.592 3497.44,-125.346 3524.32,-112.398"/>
<polygon fill="black" stroke="black" points="3525.93,-115.505 3533.42,-108.011 3522.89,-109.199 3525.93,-115.505"/>
</g>
<!-- 43 -->
<g id="node44" class="node"><title>43</title>
<path fill="#97a3b6" stroke="black" d="M3683,-112C3683,-112 3622,-112 3622,-112 3616,-112 3610,-106 3610,-100 3610,-100 3610,-86 3610,-86 3610,-80 3616,-74 3622,-74 3622,-74 3683,-74 3683,-74 3689,-74 3695,-80 3695,-86 3695,-86 3695,-100 3695,-100 3695,-106 3689,-112 3683,-112"/>
<text text-anchor="middle" x="3652.5" y="-96.8" font-family="Times,serif" font-size="14.00">comp 3</text>
<text text-anchor="middle" x="3652.5" y="-81.8" font-family="Times,serif" font-size="14.00">n kernels: &#45;1</text>
</g>
<!-- 10&#45;&gt;43 -->
<g id="edge43" class="edge"><title>10&#45;&gt;43</title>
<path fill="none" stroke="black" d="M3459.44,-155.419C3497.46,-144.16 3547.35,-129.106 3600.39,-111.978"/>
<polygon fill="black" stroke="black" points="3601.54,-115.284 3609.98,-108.871 3599.39,-108.625 3601.54,-115.284"/>
</g>
<!-- 44 -->
<g id="node45" class="node"><title>44</title>
<path fill="#d3e4ff" stroke="black" d="M3799.5,-111C3799.5,-111 3765.5,-111 3765.5,-111 3759.5,-111 3753.5,-105 3753.5,-99 3753.5,-99 3753.5,-87 3753.5,-87 3753.5,-81 3759.5,-75 3765.5,-75 3765.5,-75 3799.5,-75 3799.5,-75 3805.5,-75 3811.5,-81 3811.5,-87 3811.5,-87 3811.5,-99 3811.5,-99 3811.5,-105 3805.5,-111 3799.5,-111"/>
<text text-anchor="middle" x="3782.5" y="-89.3" font-family="Times,serif" font-size="14.00">comp 0</text>
</g>
<!-- 11&#45;&gt;44 -->
<g id="edge44" class="edge"><title>11&#45;&gt;44</title>
<path fill="none" stroke="black" d="M3856.89,-156.25C3843.44,-144.998 3825.71,-130.161 3810.93,-117.794"/>
<polygon fill="black" stroke="black" points="3812.99,-114.95 3803.07,-111.217 3808.5,-120.319 3812.99,-114.95"/>
</g>
<!-- 45 -->
<g id="node46" class="node"><title>45</title>
<path fill="#bfcfe6" stroke="black" d="M3913.5,-112C3913.5,-112 3841.5,-112 3841.5,-112 3835.5,-112 3829.5,-106 3829.5,-100 3829.5,-100 3829.5,-86 3829.5,-86 3829.5,-80 3835.5,-74 3841.5,-74 3841.5,-74 3913.5,-74 3913.5,-74 3919.5,-74 3925.5,-80 3925.5,-86 3925.5,-86 3925.5,-100 3925.5,-100 3925.5,-106 3919.5,-112 3913.5,-112"/>
<text text-anchor="middle" x="3877.5" y="-96.8" font-family="Times,serif" font-size="14.00">comp 1</text>
<text text-anchor="middle" x="3877.5" y="-81.8" font-family="Times,serif" font-size="14.00">dilation rate: 1</text>
</g>
<!-- 11&#45;&gt;45 -->
<g id="edge45" class="edge"><title>11&#45;&gt;45</title>
<path fill="none" stroke="black" d="M3877.5,-156.25C3877.5,-146.352 3877.5,-133.679 3877.5,-122.355"/>
<polygon fill="black" stroke="black" points="3881,-122.044 3877.5,-112.044 3874,-122.044 3881,-122.044"/>
</g>
<!-- 46 -->
<g id="node47" class="node"><title>46</title>
<path fill="#abb9ce" stroke="black" d="M3989.5,-111C3989.5,-111 3955.5,-111 3955.5,-111 3949.5,-111 3943.5,-105 3943.5,-99 3943.5,-99 3943.5,-87 3943.5,-87 3943.5,-81 3949.5,-75 3955.5,-75 3955.5,-75 3989.5,-75 3989.5,-75 3995.5,-75 4001.5,-81 4001.5,-87 4001.5,-87 4001.5,-99 4001.5,-99 4001.5,-105 3995.5,-111 3989.5,-111"/>
<text text-anchor="middle" x="3972.5" y="-89.3" font-family="Times,serif" font-size="14.00">comp 2</text>
</g>
<!-- 11&#45;&gt;46 -->
<g id="edge46" class="edge"><title>11&#45;&gt;46</title>
<path fill="none" stroke="black" d="M3898.11,-156.25C3911.56,-144.998 3929.29,-130.161 3944.07,-117.794"/>
<polygon fill="black" stroke="black" points="3946.5,-120.319 3951.93,-111.217 3942.01,-114.95 3946.5,-120.319"/>
</g>
<!-- 47 -->
<g id="node48" class="node"><title>47</title>
<path fill="#97a3b6" stroke="black" d="M4227,-112C4227,-112 4032,-112 4032,-112 4026,-112 4020,-106 4020,-100 4020,-100 4020,-86 4020,-86 4020,-80 4026,-74 4032,-74 4032,-74 4227,-74 4227,-74 4233,-74 4239,-80 4239,-86 4239,-86 4239,-100 4239,-100 4239,-106 4233,-112 4227,-112"/>
<text text-anchor="middle" x="4129.5" y="-96.8" font-family="Times,serif" font-size="14.00">comp 3</text>
<text text-anchor="middle" x="4129.5" y="-81.8" font-family="Times,serif" font-size="14.00">log gamma2: 1.789691 &#160;&#160;n kernels: 3</text>
</g>
<!-- 11&#45;&gt;47 -->
<g id="edge47" class="edge"><title>11&#45;&gt;47</title>
<path fill="none" stroke="black" d="M3927.29,-157.793C3966.01,-145.577 4020.12,-128.507 4062.62,-115.099"/>
<polygon fill="black" stroke="black" points="4063.85,-118.382 4072.33,-112.036 4061.74,-111.707 4063.85,-118.382"/>
</g>
<!-- 48 -->
<g id="node49" class="node"><title>48</title>
<path fill="#f6d3ff" stroke="black" d="M47,-38C47,-38 12,-38 12,-38 6,-38 0,-32 0,-26 0,-26 0,-12 0,-12 0,-6 6,-0 12,-0 12,-0 47,-0 47,-0 53,-0 59,-6 59,-12 59,-12 59,-26 59,-26 59,-32 53,-38 47,-38"/>
<text text-anchor="middle" x="29.5" y="-22.8" font-family="Times,serif" font-size="14.00">forward</text>
<text text-anchor="middle" x="29.5" y="-7.8" font-family="Times,serif" font-size="14.00">input</text>
</g>
<!-- 12&#45;&gt;48 -->
<g id="edge48" class="edge"><title>12&#45;&gt;48</title>
<path fill="none" stroke="black" d="M30.263,-74.937C30.1526,-66.9865 30.0182,-57.3134 29.8932,-48.3127"/>
<polygon fill="black" stroke="black" points="33.3914,-48.1496 29.7528,-38.1992 26.3921,-48.2468 33.3914,-48.1496"/>
</g>
<!-- 49 -->
<g id="node50" class="node"><title>49</title>
<path fill="#f6d3ff" stroke="black" d="M125.5,-38C125.5,-38 89.5,-38 89.5,-38 83.5,-38 77.5,-32 77.5,-26 77.5,-26 77.5,-12 77.5,-12 77.5,-6 83.5,-0 89.5,-0 89.5,-0 125.5,-0 125.5,-0 131.5,-0 137.5,-6 137.5,-12 137.5,-12 137.5,-26 137.5,-26 137.5,-32 131.5,-38 125.5,-38"/>
<text text-anchor="middle" x="107.5" y="-22.8" font-family="Times,serif" font-size="14.00">forward</text>
<text text-anchor="middle" x="107.5" y="-7.8" font-family="Times,serif" font-size="14.00">EB0/C0</text>
</g>
<!-- 13&#45;&gt;49 -->
<g id="edge49" class="edge"><title>13&#45;&gt;49</title>
<path fill="none" stroke="black" d="M106.737,-74.937C106.847,-66.9865 106.982,-57.3134 107.107,-48.3127"/>
<polygon fill="black" stroke="black" points="110.608,-48.2468 107.247,-38.1992 103.609,-48.1496 110.608,-48.2468"/>
</g>
<!-- 50 -->
<g id="node51" class="node"><title>50</title>
<path fill="#f6d3ff" stroke="black" d="M245.5,-38C245.5,-38 209.5,-38 209.5,-38 203.5,-38 197.5,-32 197.5,-26 197.5,-26 197.5,-12 197.5,-12 197.5,-6 203.5,-0 209.5,-0 209.5,-0 245.5,-0 245.5,-0 251.5,-0 257.5,-6 257.5,-12 257.5,-12 257.5,-26 257.5,-26 257.5,-32 251.5,-38 245.5,-38"/>
<text text-anchor="middle" x="227.5" y="-22.8" font-family="Times,serif" font-size="14.00">forward</text>
<text text-anchor="middle" x="227.5" y="-7.8" font-family="Times,serif" font-size="14.00">EB0/C1</text>
</g>
<!-- 14&#45;&gt;50 -->
<g id="edge50" class="edge"><title>14&#45;&gt;50</title>
<path fill="none" stroke="black" d="M227.5,-73.8314C227.5,-66.131 227.5,-56.9743 227.5,-48.4166"/>
<polygon fill="black" stroke="black" points="231,-48.4132 227.5,-38.4133 224,-48.4133 231,-48.4132"/>
</g>
<!-- 51 -->
<g id="node52" class="node"><title>51</title>
<path fill="#f6d3ff" stroke="black" d="M366.5,-38C366.5,-38 330.5,-38 330.5,-38 324.5,-38 318.5,-32 318.5,-26 318.5,-26 318.5,-12 318.5,-12 318.5,-6 324.5,-0 330.5,-0 330.5,-0 366.5,-0 366.5,-0 372.5,-0 378.5,-6 378.5,-12 378.5,-12 378.5,-26 378.5,-26 378.5,-32 372.5,-38 366.5,-38"/>
<text text-anchor="middle" x="348.5" y="-22.8" font-family="Times,serif" font-size="14.00">forward</text>
<text text-anchor="middle" x="348.5" y="-7.8" font-family="Times,serif" font-size="14.00">EB0/C2</text>
</g>
<!-- 15&#45;&gt;51 -->
<g id="edge51" class="edge"><title>15&#45;&gt;51</title>
<path fill="none" stroke="black" d="M348.5,-74.937C348.5,-66.9865 348.5,-57.3134 348.5,-48.3127"/>
<polygon fill="black" stroke="black" points="352,-48.1991 348.5,-38.1992 345,-48.1992 352,-48.1991"/>
</g>
<!-- 52 -->
<g id="node53" class="node"><title>52</title>
<path fill="#f6d3ff" stroke="black" d="M453.5,-38C453.5,-38 417.5,-38 417.5,-38 411.5,-38 405.5,-32 405.5,-26 405.5,-26 405.5,-12 405.5,-12 405.5,-6 411.5,-0 417.5,-0 417.5,-0 453.5,-0 453.5,-0 459.5,-0 465.5,-6 465.5,-12 465.5,-12 465.5,-26 465.5,-26 465.5,-32 459.5,-38 453.5,-38"/>
<text text-anchor="middle" x="435.5" y="-22.8" font-family="Times,serif" font-size="14.00">forward</text>
<text text-anchor="middle" x="435.5" y="-7.8" font-family="Times,serif" font-size="14.00">EB0/C3</text>
</g>
<!-- 16&#45;&gt;52 -->
<g id="edge52" class="edge"><title>16&#45;&gt;52</title>
<path fill="none" stroke="black" d="M435.5,-73.8314C435.5,-66.131 435.5,-56.9743 435.5,-48.4166"/>
<polygon fill="black" stroke="black" points="439,-48.4132 435.5,-38.4133 432,-48.4133 439,-48.4132"/>
</g>
<!-- 53 -->
<g id="node54" class="node"><title>53</title>
<path fill="#f6d3ff" stroke="black" d="M557.5,-38C557.5,-38 521.5,-38 521.5,-38 515.5,-38 509.5,-32 509.5,-26 509.5,-26 509.5,-12 509.5,-12 509.5,-6 515.5,-0 521.5,-0 521.5,-0 557.5,-0 557.5,-0 563.5,-0 569.5,-6 569.5,-12 569.5,-12 569.5,-26 569.5,-26 569.5,-32 563.5,-38 557.5,-38"/>
<text text-anchor="middle" x="539.5" y="-22.8" font-family="Times,serif" font-size="14.00">forward</text>
<text text-anchor="middle" x="539.5" y="-7.8" font-family="Times,serif" font-size="14.00">EB1/C0</text>
</g>
<!-- 17&#45;&gt;53 -->
<g id="edge53" class="edge"><title>17&#45;&gt;53</title>
<path fill="none" stroke="black" d="M539.5,-73.8314C539.5,-66.131 539.5,-56.9743 539.5,-48.4166"/>
<polygon fill="black" stroke="black" points="543,-48.4132 539.5,-38.4133 536,-48.4133 543,-48.4132"/>
</g>
<!-- 54 -->
<g id="node55" class="node"><title>54</title>
<path fill="#f6d3ff" stroke="black" d="M661.5,-38C661.5,-38 625.5,-38 625.5,-38 619.5,-38 613.5,-32 613.5,-26 613.5,-26 613.5,-12 613.5,-12 613.5,-6 619.5,-0 625.5,-0 625.5,-0 661.5,-0 661.5,-0 667.5,-0 673.5,-6 673.5,-12 673.5,-12 673.5,-26 673.5,-26 673.5,-32 667.5,-38 661.5,-38"/>
<text text-anchor="middle" x="643.5" y="-22.8" font-family="Times,serif" font-size="14.00">forward</text>
<text text-anchor="middle" x="643.5" y="-7.8" font-family="Times,serif" font-size="14.00">EB1/C1</text>
</g>
<!-- 18&#45;&gt;54 -->
<g id="edge54" class="edge"><title>18&#45;&gt;54</title>
<path fill="none" stroke="black" d="M643.5,-73.8314C643.5,-66.131 643.5,-56.9743 643.5,-48.4166"/>
<polygon fill="black" stroke="black" points="647,-48.4132 643.5,-38.4133 640,-48.4133 647,-48.4132"/>
</g>
<!-- 55 -->
<g id="node56" class="node"><title>55</title>
<path fill="#f6d3ff" stroke="black" d="M765.5,-38C765.5,-38 729.5,-38 729.5,-38 723.5,-38 717.5,-32 717.5,-26 717.5,-26 717.5,-12 717.5,-12 717.5,-6 723.5,-0 729.5,-0 729.5,-0 765.5,-0 765.5,-0 771.5,-0 777.5,-6 777.5,-12 777.5,-12 777.5,-26 777.5,-26 777.5,-32 771.5,-38 765.5,-38"/>
<text text-anchor="middle" x="747.5" y="-22.8" font-family="Times,serif" font-size="14.00">forward</text>
<text text-anchor="middle" x="747.5" y="-7.8" font-family="Times,serif" font-size="14.00">EB1/C2</text>
</g>
<!-- 19&#45;&gt;55 -->
<g id="edge55" class="edge"><title>19&#45;&gt;55</title>
<path fill="none" stroke="black" d="M747.5,-73.8314C747.5,-66.131 747.5,-56.9743 747.5,-48.4166"/>
<polygon fill="black" stroke="black" points="751,-48.4132 747.5,-38.4133 744,-48.4133 751,-48.4132"/>
</g>
<!-- 56 -->
<g id="node57" class="node"><title>56</title>
<path fill="#f6d3ff" stroke="black" d="M858.5,-38C858.5,-38 822.5,-38 822.5,-38 816.5,-38 810.5,-32 810.5,-26 810.5,-26 810.5,-12 810.5,-12 810.5,-6 816.5,-0 822.5,-0 822.5,-0 858.5,-0 858.5,-0 864.5,-0 870.5,-6 870.5,-12 870.5,-12 870.5,-26 870.5,-26 870.5,-32 864.5,-38 858.5,-38"/>
<text text-anchor="middle" x="840.5" y="-22.8" font-family="Times,serif" font-size="14.00">forward</text>
<text text-anchor="middle" x="840.5" y="-7.8" font-family="Times,serif" font-size="14.00">EB1/C3</text>
</g>
<!-- 20&#45;&gt;56 -->
<g id="edge56" class="edge"><title>20&#45;&gt;56</title>
<path fill="none" stroke="black" d="M840.5,-74.937C840.5,-66.9865 840.5,-57.3134 840.5,-48.3127"/>
<polygon fill="black" stroke="black" points="844,-48.1991 840.5,-38.1992 837,-48.1992 844,-48.1991"/>
</g>
<!-- 57 -->
<g id="node58" class="node"><title>57</title>
<path fill="#f6d3ff" stroke="black" d="M1024.5,-38C1024.5,-38 988.5,-38 988.5,-38 982.5,-38 976.5,-32 976.5,-26 976.5,-26 976.5,-12 976.5,-12 976.5,-6 982.5,-0 988.5,-0 988.5,-0 1024.5,-0 1024.5,-0 1030.5,-0 1036.5,-6 1036.5,-12 1036.5,-12 1036.5,-26 1036.5,-26 1036.5,-32 1030.5,-38 1024.5,-38"/>
<text text-anchor="middle" x="1006.5" y="-22.8" font-family="Times,serif" font-size="14.00">forward</text>
<text text-anchor="middle" x="1006.5" y="-7.8" font-family="Times,serif" font-size="14.00">EB2/C0</text>
</g>
<!-- 21&#45;&gt;57 -->
<g id="edge57" class="edge"><title>21&#45;&gt;57</title>
<path fill="none" stroke="black" d="M1006.5,-73.8314C1006.5,-66.131 1006.5,-56.9743 1006.5,-48.4166"/>
<polygon fill="black" stroke="black" points="1010,-48.4132 1006.5,-38.4133 1003,-48.4133 1010,-48.4132"/>
</g>
<!-- 58 -->
<g id="node59" class="node"><title>58</title>
<path fill="#f6d3ff" stroke="black" d="M1187.5,-38C1187.5,-38 1151.5,-38 1151.5,-38 1145.5,-38 1139.5,-32 1139.5,-26 1139.5,-26 1139.5,-12 1139.5,-12 1139.5,-6 1145.5,-0 1151.5,-0 1151.5,-0 1187.5,-0 1187.5,-0 1193.5,-0 1199.5,-6 1199.5,-12 1199.5,-12 1199.5,-26 1199.5,-26 1199.5,-32 1193.5,-38 1187.5,-38"/>
<text text-anchor="middle" x="1169.5" y="-22.8" font-family="Times,serif" font-size="14.00">forward</text>
<text text-anchor="middle" x="1169.5" y="-7.8" font-family="Times,serif" font-size="14.00">EB2/C1</text>
</g>
<!-- 22&#45;&gt;58 -->
<g id="edge58" class="edge"><title>22&#45;&gt;58</title>
<path fill="none" stroke="black" d="M1171.79,-74.937C1171.46,-66.9865 1171.05,-57.3134 1170.68,-48.3127"/>
<polygon fill="black" stroke="black" points="1174.17,-48.0448 1170.26,-38.1992 1167.18,-48.3362 1174.17,-48.0448"/>
</g>
<!-- 59 -->
<g id="node60" class="node"><title>59</title>
<path fill="#f6d3ff" stroke="black" d="M1265.5,-38C1265.5,-38 1229.5,-38 1229.5,-38 1223.5,-38 1217.5,-32 1217.5,-26 1217.5,-26 1217.5,-12 1217.5,-12 1217.5,-6 1223.5,-0 1229.5,-0 1229.5,-0 1265.5,-0 1265.5,-0 1271.5,-0 1277.5,-6 1277.5,-12 1277.5,-12 1277.5,-26 1277.5,-26 1277.5,-32 1271.5,-38 1265.5,-38"/>
<text text-anchor="middle" x="1247.5" y="-22.8" font-family="Times,serif" font-size="14.00">forward</text>
<text text-anchor="middle" x="1247.5" y="-7.8" font-family="Times,serif" font-size="14.00">EB2/C2</text>
</g>
<!-- 23&#45;&gt;59 -->
<g id="edge59" class="edge"><title>23&#45;&gt;59</title>
<path fill="none" stroke="black" d="M1248.26,-74.937C1248.15,-66.9865 1248.02,-57.3134 1247.89,-48.3127"/>
<polygon fill="black" stroke="black" points="1251.39,-48.1496 1247.75,-38.1992 1244.39,-48.2468 1251.39,-48.1496"/>
</g>
<!-- 60 -->
<g id="node61" class="node"><title>60</title>
<path fill="#f6d3ff" stroke="black" d="M1343.5,-38C1343.5,-38 1307.5,-38 1307.5,-38 1301.5,-38 1295.5,-32 1295.5,-26 1295.5,-26 1295.5,-12 1295.5,-12 1295.5,-6 1301.5,-0 1307.5,-0 1307.5,-0 1343.5,-0 1343.5,-0 1349.5,-0 1355.5,-6 1355.5,-12 1355.5,-12 1355.5,-26 1355.5,-26 1355.5,-32 1349.5,-38 1343.5,-38"/>
<text text-anchor="middle" x="1325.5" y="-22.8" font-family="Times,serif" font-size="14.00">forward</text>
<text text-anchor="middle" x="1325.5" y="-7.8" font-family="Times,serif" font-size="14.00">EB2/C3</text>
</g>
<!-- 24&#45;&gt;60 -->
<g id="edge60" class="edge"><title>24&#45;&gt;60</title>
<path fill="none" stroke="black" d="M1325.5,-74.937C1325.5,-66.9865 1325.5,-57.3134 1325.5,-48.3127"/>
<polygon fill="black" stroke="black" points="1329,-48.1991 1325.5,-38.1992 1322,-48.1992 1329,-48.1991"/>
</g>
<!-- 61 -->
<g id="node62" class="node"><title>61</title>
<path fill="#f6d3ff" stroke="black" d="M1421.5,-38C1421.5,-38 1385.5,-38 1385.5,-38 1379.5,-38 1373.5,-32 1373.5,-26 1373.5,-26 1373.5,-12 1373.5,-12 1373.5,-6 1379.5,-0 1385.5,-0 1385.5,-0 1421.5,-0 1421.5,-0 1427.5,-0 1433.5,-6 1433.5,-12 1433.5,-12 1433.5,-26 1433.5,-26 1433.5,-32 1427.5,-38 1421.5,-38"/>
<text text-anchor="middle" x="1403.5" y="-22.8" font-family="Times,serif" font-size="14.00">forward</text>
<text text-anchor="middle" x="1403.5" y="-7.8" font-family="Times,serif" font-size="14.00">EB3/C0</text>
</g>
<!-- 25&#45;&gt;61 -->
<g id="edge61" class="edge"><title>25&#45;&gt;61</title>
<path fill="none" stroke="black" d="M1401.97,-74.937C1402.19,-66.9865 1402.46,-57.3134 1402.71,-48.3127"/>
<polygon fill="black" stroke="black" points="1406.22,-48.2925 1402.99,-38.1992 1399.22,-48.0981 1406.22,-48.2925"/>
</g>
<!-- 62 -->
<g id="node63" class="node"><title>62</title>
<path fill="#f6d3ff" stroke="black" d="M1561.5,-38C1561.5,-38 1525.5,-38 1525.5,-38 1519.5,-38 1513.5,-32 1513.5,-26 1513.5,-26 1513.5,-12 1513.5,-12 1513.5,-6 1519.5,-0 1525.5,-0 1525.5,-0 1561.5,-0 1561.5,-0 1567.5,-0 1573.5,-6 1573.5,-12 1573.5,-12 1573.5,-26 1573.5,-26 1573.5,-32 1567.5,-38 1561.5,-38"/>
<text text-anchor="middle" x="1543.5" y="-22.8" font-family="Times,serif" font-size="14.00">forward</text>
<text text-anchor="middle" x="1543.5" y="-7.8" font-family="Times,serif" font-size="14.00">EB3/C1</text>
</g>
<!-- 26&#45;&gt;62 -->
<g id="edge62" class="edge"><title>26&#45;&gt;62</title>
<path fill="none" stroke="black" d="M1543.5,-73.8314C1543.5,-66.131 1543.5,-56.9743 1543.5,-48.4166"/>
<polygon fill="black" stroke="black" points="1547,-48.4132 1543.5,-38.4133 1540,-48.4133 1547,-48.4132"/>
</g>
<!-- 63 -->
<g id="node64" class="node"><title>63</title>
<path fill="#f6d3ff" stroke="black" d="M1703.5,-38C1703.5,-38 1667.5,-38 1667.5,-38 1661.5,-38 1655.5,-32 1655.5,-26 1655.5,-26 1655.5,-12 1655.5,-12 1655.5,-6 1661.5,-0 1667.5,-0 1667.5,-0 1703.5,-0 1703.5,-0 1709.5,-0 1715.5,-6 1715.5,-12 1715.5,-12 1715.5,-26 1715.5,-26 1715.5,-32 1709.5,-38 1703.5,-38"/>
<text text-anchor="middle" x="1685.5" y="-22.8" font-family="Times,serif" font-size="14.00">forward</text>
<text text-anchor="middle" x="1685.5" y="-7.8" font-family="Times,serif" font-size="14.00">EB3/C2</text>
</g>
<!-- 27&#45;&gt;63 -->
<g id="edge63" class="edge"><title>27&#45;&gt;63</title>
<path fill="none" stroke="black" d="M1685.5,-74.937C1685.5,-66.9865 1685.5,-57.3134 1685.5,-48.3127"/>
<polygon fill="black" stroke="black" points="1689,-48.1991 1685.5,-38.1992 1682,-48.1992 1689,-48.1991"/>
</g>
<!-- 64 -->
<g id="node65" class="node"><title>64</title>
<path fill="#f6d3ff" stroke="black" d="M1798.5,-38C1798.5,-38 1762.5,-38 1762.5,-38 1756.5,-38 1750.5,-32 1750.5,-26 1750.5,-26 1750.5,-12 1750.5,-12 1750.5,-6 1756.5,-0 1762.5,-0 1762.5,-0 1798.5,-0 1798.5,-0 1804.5,-0 1810.5,-6 1810.5,-12 1810.5,-12 1810.5,-26 1810.5,-26 1810.5,-32 1804.5,-38 1798.5,-38"/>
<text text-anchor="middle" x="1780.5" y="-22.8" font-family="Times,serif" font-size="14.00">forward</text>
<text text-anchor="middle" x="1780.5" y="-7.8" font-family="Times,serif" font-size="14.00">EB3/C3</text>
</g>
<!-- 28&#45;&gt;64 -->
<g id="edge64" class="edge"><title>28&#45;&gt;64</title>
<path fill="none" stroke="black" d="M1780.5,-73.8314C1780.5,-66.131 1780.5,-56.9743 1780.5,-48.4166"/>
<polygon fill="black" stroke="black" points="1784,-48.4132 1780.5,-38.4133 1777,-48.4133 1784,-48.4132"/>
</g>
<!-- 65 -->
<g id="node66" class="node"><title>65</title>
<path fill="#f6d3ff" stroke="black" d="M1914.5,-38C1914.5,-38 1876.5,-38 1876.5,-38 1870.5,-38 1864.5,-32 1864.5,-26 1864.5,-26 1864.5,-12 1864.5,-12 1864.5,-6 1870.5,-0 1876.5,-0 1876.5,-0 1914.5,-0 1914.5,-0 1920.5,-0 1926.5,-6 1926.5,-12 1926.5,-12 1926.5,-26 1926.5,-26 1926.5,-32 1920.5,-38 1914.5,-38"/>
<text text-anchor="middle" x="1895.5" y="-22.8" font-family="Times,serif" font-size="14.00">forward</text>
<text text-anchor="middle" x="1895.5" y="-7.8" font-family="Times,serif" font-size="14.00">DB4/C0</text>
</g>
<!-- 29&#45;&gt;65 -->
<g id="edge65" class="edge"><title>29&#45;&gt;65</title>
<path fill="none" stroke="black" d="M1895.5,-73.8314C1895.5,-66.131 1895.5,-56.9743 1895.5,-48.4166"/>
<polygon fill="black" stroke="black" points="1899,-48.4132 1895.5,-38.4133 1892,-48.4133 1899,-48.4132"/>
</g>
<!-- 66 -->
<g id="node67" class="node"><title>66</title>
<path fill="#f6d3ff" stroke="black" d="M2065.5,-38C2065.5,-38 2027.5,-38 2027.5,-38 2021.5,-38 2015.5,-32 2015.5,-26 2015.5,-26 2015.5,-12 2015.5,-12 2015.5,-6 2021.5,-0 2027.5,-0 2027.5,-0 2065.5,-0 2065.5,-0 2071.5,-0 2077.5,-6 2077.5,-12 2077.5,-12 2077.5,-26 2077.5,-26 2077.5,-32 2071.5,-38 2065.5,-38"/>
<text text-anchor="middle" x="2046.5" y="-22.8" font-family="Times,serif" font-size="14.00">forward</text>
<text text-anchor="middle" x="2046.5" y="-7.8" font-family="Times,serif" font-size="14.00">DB4/C1</text>
</g>
<!-- 30&#45;&gt;66 -->
<g id="edge66" class="edge"><title>30&#45;&gt;66</title>
<path fill="none" stroke="black" d="M2054.72,-73.8314C2053.55,-66.131 2052.15,-56.9743 2050.84,-48.4166"/>
<polygon fill="black" stroke="black" points="2054.28,-47.7699 2049.31,-38.4133 2047.36,-48.8272 2054.28,-47.7699"/>
</g>
<!-- 67 -->
<g id="node68" class="node"><title>67</title>
<path fill="#f6d3ff" stroke="black" d="M2145.5,-38C2145.5,-38 2107.5,-38 2107.5,-38 2101.5,-38 2095.5,-32 2095.5,-26 2095.5,-26 2095.5,-12 2095.5,-12 2095.5,-6 2101.5,-0 2107.5,-0 2107.5,-0 2145.5,-0 2145.5,-0 2151.5,-0 2157.5,-6 2157.5,-12 2157.5,-12 2157.5,-26 2157.5,-26 2157.5,-32 2151.5,-38 2145.5,-38"/>
<text text-anchor="middle" x="2126.5" y="-22.8" font-family="Times,serif" font-size="14.00">forward</text>
<text text-anchor="middle" x="2126.5" y="-7.8" font-family="Times,serif" font-size="14.00">DB4/C2</text>
</g>
<!-- 31&#45;&gt;67 -->
<g id="edge67" class="edge"><title>31&#45;&gt;67</title>
<path fill="none" stroke="black" d="M2182.2,-74.937C2173.26,-66.1223 2162.18,-55.1902 2152.26,-45.4047"/>
<polygon fill="black" stroke="black" points="2154.53,-42.7294 2144.95,-38.1992 2149.61,-47.7132 2154.53,-42.7294"/>
</g>
<!-- 68 -->
<g id="node69" class="node"><title>68</title>
<path fill="#f6d3ff" stroke="black" d="M2225.5,-38C2225.5,-38 2187.5,-38 2187.5,-38 2181.5,-38 2175.5,-32 2175.5,-26 2175.5,-26 2175.5,-12 2175.5,-12 2175.5,-6 2181.5,-0 2187.5,-0 2187.5,-0 2225.5,-0 2225.5,-0 2231.5,-0 2237.5,-6 2237.5,-12 2237.5,-12 2237.5,-26 2237.5,-26 2237.5,-32 2231.5,-38 2225.5,-38"/>
<text text-anchor="middle" x="2206.5" y="-22.8" font-family="Times,serif" font-size="14.00">forward</text>
<text text-anchor="middle" x="2206.5" y="-7.8" font-family="Times,serif" font-size="14.00">DB4/C3</text>
</g>
<!-- 32&#45;&gt;68 -->
<g id="edge68" class="edge"><title>32&#45;&gt;68</title>
<path fill="none" stroke="black" d="M2266.78,-74.937C2257.01,-66.0359 2244.88,-54.9756 2234.06,-45.1172"/>
<polygon fill="black" stroke="black" points="2236.22,-42.3484 2226.47,-38.1992 2231.5,-47.5221 2236.22,-42.3484"/>
</g>
<!-- 69 -->
<g id="node70" class="node"><title>69</title>
<path fill="#debfe6" stroke="black" d="M2303.5,-38C2303.5,-38 2267.5,-38 2267.5,-38 2261.5,-38 2255.5,-32 2255.5,-26 2255.5,-26 2255.5,-12 2255.5,-12 2255.5,-6 2261.5,-0 2267.5,-0 2267.5,-0 2303.5,-0 2303.5,-0 2309.5,-0 2315.5,-6 2315.5,-12 2315.5,-12 2315.5,-26 2315.5,-26 2315.5,-32 2309.5,-38 2303.5,-38"/>
<text text-anchor="middle" x="2285.5" y="-22.8" font-family="Times,serif" font-size="14.00">merge</text>
<text text-anchor="middle" x="2285.5" y="-7.8" font-family="Times,serif" font-size="14.00">EB3/C3</text>
</g>
<!-- 32&#45;&gt;69 -->
<g id="edge69" class="edge"><title>32&#45;&gt;69</title>
<path fill="none" stroke="black" d="M2285.5,-74.937C2285.5,-66.9865 2285.5,-57.3134 2285.5,-48.3127"/>
<polygon fill="black" stroke="black" points="2289,-48.1991 2285.5,-38.1992 2282,-48.1992 2289,-48.1991"/>
</g>
<!-- 70 -->
<g id="node71" class="node"><title>70</title>
<path fill="#f6d3ff" stroke="black" d="M2383.5,-38C2383.5,-38 2345.5,-38 2345.5,-38 2339.5,-38 2333.5,-32 2333.5,-26 2333.5,-26 2333.5,-12 2333.5,-12 2333.5,-6 2339.5,-0 2345.5,-0 2345.5,-0 2383.5,-0 2383.5,-0 2389.5,-0 2395.5,-6 2395.5,-12 2395.5,-12 2395.5,-26 2395.5,-26 2395.5,-32 2389.5,-38 2383.5,-38"/>
<text text-anchor="middle" x="2364.5" y="-22.8" font-family="Times,serif" font-size="14.00">forward</text>
<text text-anchor="middle" x="2364.5" y="-7.8" font-family="Times,serif" font-size="14.00">DB3/C0</text>
</g>
<!-- 33&#45;&gt;70 -->
<g id="edge70" class="edge"><title>33&#45;&gt;70</title>
<path fill="none" stroke="black" d="M2362.97,-74.937C2363.19,-66.9865 2363.46,-57.3134 2363.71,-48.3127"/>
<polygon fill="black" stroke="black" points="2367.22,-48.2925 2363.99,-38.1992 2360.22,-48.0981 2367.22,-48.2925"/>
</g>
<!-- 71 -->
<g id="node72" class="node"><title>71</title>
<path fill="#f6d3ff" stroke="black" d="M2463.5,-38C2463.5,-38 2425.5,-38 2425.5,-38 2419.5,-38 2413.5,-32 2413.5,-26 2413.5,-26 2413.5,-12 2413.5,-12 2413.5,-6 2419.5,-0 2425.5,-0 2425.5,-0 2463.5,-0 2463.5,-0 2469.5,-0 2475.5,-6 2475.5,-12 2475.5,-12 2475.5,-26 2475.5,-26 2475.5,-32 2469.5,-38 2463.5,-38"/>
<text text-anchor="middle" x="2444.5" y="-22.8" font-family="Times,serif" font-size="14.00">forward</text>
<text text-anchor="middle" x="2444.5" y="-7.8" font-family="Times,serif" font-size="14.00">DB3/C1</text>
</g>
<!-- 34&#45;&gt;71 -->
<g id="edge71" class="edge"><title>34&#45;&gt;71</title>
<path fill="none" stroke="black" d="M2439.92,-74.937C2440.58,-66.9865 2441.39,-57.3134 2442.14,-48.3127"/>
<polygon fill="black" stroke="black" points="2445.64,-48.4553 2442.98,-38.1992 2438.66,-47.8739 2445.64,-48.4553"/>
</g>
<!-- 72 -->
<g id="node73" class="node"><title>72</title>
<path fill="#f6d3ff" stroke="black" d="M2543.5,-38C2543.5,-38 2505.5,-38 2505.5,-38 2499.5,-38 2493.5,-32 2493.5,-26 2493.5,-26 2493.5,-12 2493.5,-12 2493.5,-6 2499.5,-0 2505.5,-0 2505.5,-0 2543.5,-0 2543.5,-0 2549.5,-0 2555.5,-6 2555.5,-12 2555.5,-12 2555.5,-26 2555.5,-26 2555.5,-32 2549.5,-38 2543.5,-38"/>
<text text-anchor="middle" x="2524.5" y="-22.8" font-family="Times,serif" font-size="14.00">forward</text>
<text text-anchor="middle" x="2524.5" y="-7.8" font-family="Times,serif" font-size="14.00">DB3/C2</text>
</g>
<!-- 35&#45;&gt;72 -->
<g id="edge72" class="edge"><title>35&#45;&gt;72</title>
<path fill="none" stroke="black" d="M2516.87,-74.937C2517.97,-66.9865 2519.32,-57.3134 2520.57,-48.3127"/>
<polygon fill="black" stroke="black" points="2524.06,-48.5856 2521.97,-38.1992 2517.13,-47.6226 2524.06,-48.5856"/>
</g>
<!-- 73 -->
<g id="node74" class="node"><title>73</title>
<path fill="#f6d3ff" stroke="black" d="M2637.5,-38C2637.5,-38 2599.5,-38 2599.5,-38 2593.5,-38 2587.5,-32 2587.5,-26 2587.5,-26 2587.5,-12 2587.5,-12 2587.5,-6 2593.5,-0 2599.5,-0 2599.5,-0 2637.5,-0 2637.5,-0 2643.5,-0 2649.5,-6 2649.5,-12 2649.5,-12 2649.5,-26 2649.5,-26 2649.5,-32 2643.5,-38 2637.5,-38"/>
<text text-anchor="middle" x="2618.5" y="-22.8" font-family="Times,serif" font-size="14.00">forward</text>
<text text-anchor="middle" x="2618.5" y="-7.8" font-family="Times,serif" font-size="14.00">DB3/C3</text>
</g>
<!-- 36&#45;&gt;73 -->
<g id="edge73" class="edge"><title>36&#45;&gt;73</title>
<path fill="none" stroke="black" d="M2629.71,-73.8314C2628.11,-66.131 2626.2,-56.9743 2624.42,-48.4166"/>
<polygon fill="black" stroke="black" points="2627.8,-47.4892 2622.34,-38.4133 2620.95,-48.9169 2627.8,-47.4892"/>
</g>
<!-- 74 -->
<g id="node75" class="node"><title>74</title>
<path fill="#debfe6" stroke="black" d="M2715.5,-38C2715.5,-38 2679.5,-38 2679.5,-38 2673.5,-38 2667.5,-32 2667.5,-26 2667.5,-26 2667.5,-12 2667.5,-12 2667.5,-6 2673.5,-0 2679.5,-0 2679.5,-0 2715.5,-0 2715.5,-0 2721.5,-0 2727.5,-6 2727.5,-12 2727.5,-12 2727.5,-26 2727.5,-26 2727.5,-32 2721.5,-38 2715.5,-38"/>
<text text-anchor="middle" x="2697.5" y="-22.8" font-family="Times,serif" font-size="14.00">merge</text>
<text text-anchor="middle" x="2697.5" y="-7.8" font-family="Times,serif" font-size="14.00">EB2/C3</text>
</g>
<!-- 36&#45;&gt;74 -->
<g id="edge74" class="edge"><title>36&#45;&gt;74</title>
<path fill="none" stroke="black" d="M2649.65,-73.8314C2657.17,-65.3694 2666.26,-55.1489 2674.48,-45.8971"/>
<polygon fill="black" stroke="black" points="2677.1,-48.2127 2681.13,-38.4133 2671.87,-43.5621 2677.1,-48.2127"/>
</g>
<!-- 75 -->
<g id="node76" class="node"><title>75</title>
<path fill="#f6d3ff" stroke="black" d="M2814.5,-38C2814.5,-38 2776.5,-38 2776.5,-38 2770.5,-38 2764.5,-32 2764.5,-26 2764.5,-26 2764.5,-12 2764.5,-12 2764.5,-6 2770.5,-0 2776.5,-0 2776.5,-0 2814.5,-0 2814.5,-0 2820.5,-0 2826.5,-6 2826.5,-12 2826.5,-12 2826.5,-26 2826.5,-26 2826.5,-32 2820.5,-38 2814.5,-38"/>
<text text-anchor="middle" x="2795.5" y="-22.8" font-family="Times,serif" font-size="14.00">forward</text>
<text text-anchor="middle" x="2795.5" y="-7.8" font-family="Times,serif" font-size="14.00">DB2/C0</text>
</g>
<!-- 37&#45;&gt;75 -->
<g id="edge75" class="edge"><title>37&#45;&gt;75</title>
<path fill="none" stroke="black" d="M2795.5,-73.8314C2795.5,-66.131 2795.5,-56.9743 2795.5,-48.4166"/>
<polygon fill="black" stroke="black" points="2799,-48.4132 2795.5,-38.4133 2792,-48.4133 2799,-48.4132"/>
</g>
<!-- 76 -->
<g id="node77" class="node"><title>76</title>
<path fill="#f6d3ff" stroke="black" d="M2931.5,-38C2931.5,-38 2893.5,-38 2893.5,-38 2887.5,-38 2881.5,-32 2881.5,-26 2881.5,-26 2881.5,-12 2881.5,-12 2881.5,-6 2887.5,-0 2893.5,-0 2893.5,-0 2931.5,-0 2931.5,-0 2937.5,-0 2943.5,-6 2943.5,-12 2943.5,-12 2943.5,-26 2943.5,-26 2943.5,-32 2937.5,-38 2931.5,-38"/>
<text text-anchor="middle" x="2912.5" y="-22.8" font-family="Times,serif" font-size="14.00">forward</text>
<text text-anchor="middle" x="2912.5" y="-7.8" font-family="Times,serif" font-size="14.00">DB2/C1</text>
</g>
<!-- 38&#45;&gt;76 -->
<g id="edge76" class="edge"><title>38&#45;&gt;76</title>
<path fill="none" stroke="black" d="M2914.03,-74.937C2913.81,-66.9865 2913.54,-57.3134 2913.29,-48.3127"/>
<polygon fill="black" stroke="black" points="2916.78,-48.0981 2913.01,-38.1992 2909.78,-48.2925 2916.78,-48.0981"/>
</g>
<!-- 77 -->
<g id="node78" class="node"><title>77</title>
<path fill="#f6d3ff" stroke="black" d="M3011.5,-38C3011.5,-38 2973.5,-38 2973.5,-38 2967.5,-38 2961.5,-32 2961.5,-26 2961.5,-26 2961.5,-12 2961.5,-12 2961.5,-6 2967.5,-0 2973.5,-0 2973.5,-0 3011.5,-0 3011.5,-0 3017.5,-0 3023.5,-6 3023.5,-12 3023.5,-12 3023.5,-26 3023.5,-26 3023.5,-32 3017.5,-38 3011.5,-38"/>
<text text-anchor="middle" x="2992.5" y="-22.8" font-family="Times,serif" font-size="14.00">forward</text>
<text text-anchor="middle" x="2992.5" y="-7.8" font-family="Times,serif" font-size="14.00">DB2/C2</text>
</g>
<!-- 39&#45;&gt;77 -->
<g id="edge77" class="edge"><title>39&#45;&gt;77</title>
<path fill="none" stroke="black" d="M2990.97,-74.937C2991.19,-66.9865 2991.46,-57.3134 2991.71,-48.3127"/>
<polygon fill="black" stroke="black" points="2995.22,-48.2925 2991.99,-38.1992 2988.22,-48.0981 2995.22,-48.2925"/>
</g>
<!-- 78 -->
<g id="node79" class="node"><title>78</title>
<path fill="#f6d3ff" stroke="black" d="M3128.5,-38C3128.5,-38 3090.5,-38 3090.5,-38 3084.5,-38 3078.5,-32 3078.5,-26 3078.5,-26 3078.5,-12 3078.5,-12 3078.5,-6 3084.5,-0 3090.5,-0 3090.5,-0 3128.5,-0 3128.5,-0 3134.5,-0 3140.5,-6 3140.5,-12 3140.5,-12 3140.5,-26 3140.5,-26 3140.5,-32 3134.5,-38 3128.5,-38"/>
<text text-anchor="middle" x="3109.5" y="-22.8" font-family="Times,serif" font-size="14.00">forward</text>
<text text-anchor="middle" x="3109.5" y="-7.8" font-family="Times,serif" font-size="14.00">DB2/C3</text>
</g>
<!-- 40&#45;&gt;78 -->
<g id="edge78" class="edge"><title>40&#45;&gt;78</title>
<path fill="none" stroke="black" d="M3139.41,-73.8314C3134.94,-65.7925 3129.59,-56.1666 3124.66,-47.2918"/>
<polygon fill="black" stroke="black" points="3127.65,-45.4551 3119.73,-38.4133 3121.53,-48.8546 3127.65,-45.4551"/>
</g>
<!-- 79 -->
<g id="node80" class="node"><title>79</title>
<path fill="#debfe6" stroke="black" d="M3206.5,-38C3206.5,-38 3170.5,-38 3170.5,-38 3164.5,-38 3158.5,-32 3158.5,-26 3158.5,-26 3158.5,-12 3158.5,-12 3158.5,-6 3164.5,-0 3170.5,-0 3170.5,-0 3206.5,-0 3206.5,-0 3212.5,-0 3218.5,-6 3218.5,-12 3218.5,-12 3218.5,-26 3218.5,-26 3218.5,-32 3212.5,-38 3206.5,-38"/>
<text text-anchor="middle" x="3188.5" y="-22.8" font-family="Times,serif" font-size="14.00">merge</text>
<text text-anchor="middle" x="3188.5" y="-7.8" font-family="Times,serif" font-size="14.00">EB1/C3</text>
</g>
<!-- 40&#45;&gt;79 -->
<g id="edge79" class="edge"><title>40&#45;&gt;79</title>
<path fill="none" stroke="black" d="M3159.34,-73.8314C3163.7,-65.7925 3168.91,-56.1666 3173.72,-47.2918"/>
<polygon fill="black" stroke="black" points="3176.84,-48.8732 3178.53,-38.4133 3170.69,-45.5392 3176.84,-48.8732"/>
</g>
<!-- 80 -->
<g id="node81" class="node"><title>80</title>
<path fill="#f6d3ff" stroke="black" d="M3416.5,-38C3416.5,-38 3378.5,-38 3378.5,-38 3372.5,-38 3366.5,-32 3366.5,-26 3366.5,-26 3366.5,-12 3366.5,-12 3366.5,-6 3372.5,-0 3378.5,-0 3378.5,-0 3416.5,-0 3416.5,-0 3422.5,-0 3428.5,-6 3428.5,-12 3428.5,-12 3428.5,-26 3428.5,-26 3428.5,-32 3422.5,-38 3416.5,-38"/>
<text text-anchor="middle" x="3397.5" y="-22.8" font-family="Times,serif" font-size="14.00">forward</text>
<text text-anchor="middle" x="3397.5" y="-7.8" font-family="Times,serif" font-size="14.00">DB1/C0</text>
</g>
<!-- 41&#45;&gt;80 -->
<g id="edge80" class="edge"><title>41&#45;&gt;80</title>
<path fill="none" stroke="black" d="M3397.5,-73.8314C3397.5,-66.131 3397.5,-56.9743 3397.5,-48.4166"/>
<polygon fill="black" stroke="black" points="3401,-48.4132 3397.5,-38.4133 3394,-48.4133 3401,-48.4132"/>
</g>
<!-- 81 -->
<g id="node82" class="node"><title>81</title>
<path fill="#f6d3ff" stroke="black" d="M3581.5,-38C3581.5,-38 3543.5,-38 3543.5,-38 3537.5,-38 3531.5,-32 3531.5,-26 3531.5,-26 3531.5,-12 3531.5,-12 3531.5,-6 3537.5,-0 3543.5,-0 3543.5,-0 3581.5,-0 3581.5,-0 3587.5,-0 3593.5,-6 3593.5,-12 3593.5,-12 3593.5,-26 3593.5,-26 3593.5,-32 3587.5,-38 3581.5,-38"/>
<text text-anchor="middle" x="3562.5" y="-22.8" font-family="Times,serif" font-size="14.00">forward</text>
<text text-anchor="middle" x="3562.5" y="-7.8" font-family="Times,serif" font-size="14.00">DB1/C1</text>
</g>
<!-- 42&#45;&gt;81 -->
<g id="edge81" class="edge"><title>42&#45;&gt;81</title>
<path fill="none" stroke="black" d="M3562.5,-74.937C3562.5,-66.9865 3562.5,-57.3134 3562.5,-48.3127"/>
<polygon fill="black" stroke="black" points="3566,-48.1991 3562.5,-38.1992 3559,-48.1992 3566,-48.1991"/>
</g>
<!-- 82 -->
<g id="node83" class="node"><title>82</title>
<path fill="#f6d3ff" stroke="black" d="M3666.5,-38C3666.5,-38 3628.5,-38 3628.5,-38 3622.5,-38 3616.5,-32 3616.5,-26 3616.5,-26 3616.5,-12 3616.5,-12 3616.5,-6 3622.5,-0 3628.5,-0 3628.5,-0 3666.5,-0 3666.5,-0 3672.5,-0 3678.5,-6 3678.5,-12 3678.5,-12 3678.5,-26 3678.5,-26 3678.5,-32 3672.5,-38 3666.5,-38"/>
<text text-anchor="middle" x="3647.5" y="-22.8" font-family="Times,serif" font-size="14.00">forward</text>
<text text-anchor="middle" x="3647.5" y="-7.8" font-family="Times,serif" font-size="14.00">DB1/C2</text>
</g>
<!-- 43&#45;&gt;82 -->
<g id="edge82" class="edge"><title>43&#45;&gt;82</title>
<path fill="none" stroke="black" d="M3651.24,-73.8314C3650.7,-66.131 3650.07,-56.9743 3649.47,-48.4166"/>
<polygon fill="black" stroke="black" points="3652.96,-48.1467 3648.78,-38.4133 3645.98,-48.6317 3652.96,-48.1467"/>
</g>
<!-- 83 -->
<g id="node84" class="node"><title>83</title>
<path fill="#f6d3ff" stroke="black" d="M3746.5,-38C3746.5,-38 3708.5,-38 3708.5,-38 3702.5,-38 3696.5,-32 3696.5,-26 3696.5,-26 3696.5,-12 3696.5,-12 3696.5,-6 3702.5,-0 3708.5,-0 3708.5,-0 3746.5,-0 3746.5,-0 3752.5,-0 3758.5,-6 3758.5,-12 3758.5,-12 3758.5,-26 3758.5,-26 3758.5,-32 3752.5,-38 3746.5,-38"/>
<text text-anchor="middle" x="3727.5" y="-22.8" font-family="Times,serif" font-size="14.00">forward</text>
<text text-anchor="middle" x="3727.5" y="-7.8" font-family="Times,serif" font-size="14.00">DB1/C3</text>
</g>
<!-- 44&#45;&gt;83 -->
<g id="edge83" class="edge"><title>44&#45;&gt;83</title>
<path fill="none" stroke="black" d="M3769.47,-74.937C3762.93,-66.3816 3754.87,-55.8314 3747.57,-46.271"/>
<polygon fill="black" stroke="black" points="3750.25,-44.0212 3741.4,-38.1992 3744.69,-48.2706 3750.25,-44.0212"/>
</g>
<!-- 84 -->
<g id="node85" class="node"><title>84</title>
<path fill="#debfe6" stroke="black" d="M3824.5,-38C3824.5,-38 3788.5,-38 3788.5,-38 3782.5,-38 3776.5,-32 3776.5,-26 3776.5,-26 3776.5,-12 3776.5,-12 3776.5,-6 3782.5,-0 3788.5,-0 3788.5,-0 3824.5,-0 3824.5,-0 3830.5,-0 3836.5,-6 3836.5,-12 3836.5,-12 3836.5,-26 3836.5,-26 3836.5,-32 3830.5,-38 3824.5,-38"/>
<text text-anchor="middle" x="3806.5" y="-22.8" font-family="Times,serif" font-size="14.00">merge</text>
<text text-anchor="middle" x="3806.5" y="-7.8" font-family="Times,serif" font-size="14.00">EB0/C3</text>
</g>
<!-- 44&#45;&gt;84 -->
<g id="edge84" class="edge"><title>44&#45;&gt;84</title>
<path fill="none" stroke="black" d="M3788.19,-74.937C3790.9,-66.8137 3794.2,-56.892 3797.26,-47.7267"/>
<polygon fill="black" stroke="black" points="3800.59,-48.7928 3800.43,-38.1992 3793.95,-46.5792 3800.59,-48.7928"/>
</g>
<!-- 85 -->
<g id="node86" class="node"><title>85</title>
<path fill="#f6d3ff" stroke="black" d="M3904.5,-38C3904.5,-38 3866.5,-38 3866.5,-38 3860.5,-38 3854.5,-32 3854.5,-26 3854.5,-26 3854.5,-12 3854.5,-12 3854.5,-6 3860.5,-0 3866.5,-0 3866.5,-0 3904.5,-0 3904.5,-0 3910.5,-0 3916.5,-6 3916.5,-12 3916.5,-12 3916.5,-26 3916.5,-26 3916.5,-32 3910.5,-38 3904.5,-38"/>
<text text-anchor="middle" x="3885.5" y="-22.8" font-family="Times,serif" font-size="14.00">forward</text>
<text text-anchor="middle" x="3885.5" y="-7.8" font-family="Times,serif" font-size="14.00">DB0/C0</text>
</g>
<!-- 45&#45;&gt;85 -->
<g id="edge85" class="edge"><title>45&#45;&gt;85</title>
<path fill="none" stroke="black" d="M3879.52,-73.8314C3880.37,-66.131 3881.39,-56.9743 3882.34,-48.4166"/>
<polygon fill="black" stroke="black" points="3885.83,-48.7386 3883.45,-38.4133 3878.87,-47.9656 3885.83,-48.7386"/>
</g>
<!-- 86 -->
<g id="node87" class="node"><title>86</title>
<path fill="#f6d3ff" stroke="black" d="M3991.5,-38C3991.5,-38 3953.5,-38 3953.5,-38 3947.5,-38 3941.5,-32 3941.5,-26 3941.5,-26 3941.5,-12 3941.5,-12 3941.5,-6 3947.5,-0 3953.5,-0 3953.5,-0 3991.5,-0 3991.5,-0 3997.5,-0 4003.5,-6 4003.5,-12 4003.5,-12 4003.5,-26 4003.5,-26 4003.5,-32 3997.5,-38 3991.5,-38"/>
<text text-anchor="middle" x="3972.5" y="-22.8" font-family="Times,serif" font-size="14.00">forward</text>
<text text-anchor="middle" x="3972.5" y="-7.8" font-family="Times,serif" font-size="14.00">DB0/C1</text>
</g>
<!-- 46&#45;&gt;86 -->
<g id="edge86" class="edge"><title>46&#45;&gt;86</title>
<path fill="none" stroke="black" d="M3972.5,-74.937C3972.5,-66.9865 3972.5,-57.3134 3972.5,-48.3127"/>
<polygon fill="black" stroke="black" points="3976,-48.1991 3972.5,-38.1992 3969,-48.1992 3976,-48.1991"/>
</g>
<!-- 87 -->
<g id="node88" class="node"><title>87</title>
<path fill="#f6d3ff" stroke="black" d="M4148.5,-38C4148.5,-38 4110.5,-38 4110.5,-38 4104.5,-38 4098.5,-32 4098.5,-26 4098.5,-26 4098.5,-12 4098.5,-12 4098.5,-6 4104.5,-0 4110.5,-0 4110.5,-0 4148.5,-0 4148.5,-0 4154.5,-0 4160.5,-6 4160.5,-12 4160.5,-12 4160.5,-26 4160.5,-26 4160.5,-32 4154.5,-38 4148.5,-38"/>
<text text-anchor="middle" x="4129.5" y="-22.8" font-family="Times,serif" font-size="14.00">forward</text>
<text text-anchor="middle" x="4129.5" y="-7.8" font-family="Times,serif" font-size="14.00">DB0/C2</text>
</g>
<!-- 47&#45;&gt;87 -->
<g id="edge87" class="edge"><title>47&#45;&gt;87</title>
<path fill="none" stroke="black" d="M4129.5,-73.8314C4129.5,-66.131 4129.5,-56.9743 4129.5,-48.4166"/>
<polygon fill="black" stroke="black" points="4133,-48.4132 4129.5,-38.4133 4126,-48.4133 4133,-48.4132"/>
</g>
</g>
</svg>
