<?xml version="1.0" encoding="UTF-8" standalone="no"?>
<!DOCTYPE svg PUBLIC "-//W3C//DTD SVG 1.1//EN"
 "http://www.w3.org/Graphics/SVG/1.1/DTD/svg11.dtd">
<!-- Generated by graphviz version 2.38.0 (20140413.2041)
 -->
<!-- Title: %3 Pages: 1 -->
<svg width="5899pt" height="433pt"
 viewBox="0.00 0.00 5899.00 433.00" xmlns="http://www.w3.org/2000/svg" xmlns:xlink="http://www.w3.org/1999/xlink">
<g id="graph0" class="graph" transform="scale(1 1) rotate(0) translate(4 429)">
<title>%3</title>
<polygon fill="none" stroke="none" points="-4,4 -4,-429 5895,-429 5895,4 -4,4"/>
<!-- 0 -->
<g id="node1" class="node"><title>0</title>
<path fill="#ffd3d3" stroke="black" d="M3584,-425C3584,-425 3393,-425 3393,-425 3387,-425 3381,-419 3381,-413 3381,-413 3381,-384 3381,-384 3381,-378 3387,-372 3393,-372 3393,-372 3584,-372 3584,-372 3590,-372 3596,-378 3596,-384 3596,-384 3596,-413 3596,-413 3596,-419 3590,-425 3584,-425"/>
<text text-anchor="middle" x="3488.5" y="-409.8" font-family="Times,serif" font-size="14.00">net</text>
<text text-anchor="middle" x="3488.5" y="-394.8" font-family="Times,serif" font-size="14.00">k width: 3 &#160;&#160;log gamma2: &#45;5.196222</text>
<text text-anchor="middle" x="3488.5" y="-379.8" font-family="Times,serif" font-size="14.00">n kernels: 119</text>
</g>
<!-- 1 -->
<g id="node2" class="node"><title>1</title>
<path fill="#e9ffd3" stroke="black" d="M986,-320C986,-320 923,-320 923,-320 917,-320 911,-314 911,-308 911,-308 911,-296 911,-296 911,-290 917,-284 923,-284 923,-284 986,-284 986,-284 992,-284 998,-290 998,-296 998,-296 998,-308 998,-308 998,-314 992,-320 986,-320"/>
<text text-anchor="middle" x="954.5" y="-298.3" font-family="Times,serif" font-size="14.00">conv block 0</text>
</g>
<!-- 0&#45;&gt;1 -->
<g id="edge1" class="edge"><title>0&#45;&gt;1</title>
<path fill="none" stroke="black" d="M3380.83,-393.485C2945.71,-377.258 1325.33,-316.829 1008.44,-305.012"/>
<polygon fill="black" stroke="black" points="1008.28,-301.503 998.153,-304.628 1008.02,-308.498 1008.28,-301.503"/>
</g>
<!-- 2 -->
<g id="node3" class="node"><title>2</title>
<path fill="#e9ffd3" stroke="black" d="M2868,-336C2868,-336 2605,-336 2605,-336 2599,-336 2593,-330 2593,-324 2593,-324 2593,-280 2593,-280 2593,-274 2599,-268 2605,-268 2605,-268 2868,-268 2868,-268 2874,-268 2880,-274 2880,-280 2880,-280 2880,-324 2880,-324 2880,-330 2874,-336 2868,-336"/>
<text text-anchor="middle" x="2736.5" y="-320.8" font-family="Times,serif" font-size="14.00">conv block 1</text>
<text text-anchor="middle" x="2736.5" y="-305.8" font-family="Times,serif" font-size="14.00">log gamma1: 0.027768 &#160;&#160;log gamma2: &#45;0.139508</text>
<text text-anchor="middle" x="2736.5" y="-290.8" font-family="Times,serif" font-size="14.00">n kernels: &#45;4 &#160;&#160;pool z: 1</text>
<text text-anchor="middle" x="2736.5" y="-275.8" font-family="Times,serif" font-size="14.00">spatial scale: 1</text>
</g>
<!-- 0&#45;&gt;2 -->
<g id="edge2" class="edge"><title>0&#45;&gt;2</title>
<path fill="none" stroke="black" d="M3380.76,-383.96C3252.13,-367.796 3036.1,-340.65 2890.03,-322.294"/>
<polygon fill="black" stroke="black" points="2890.43,-318.817 2880.08,-321.042 2889.56,-325.762 2890.43,-318.817"/>
</g>
<!-- 3 -->
<g id="node4" class="node"><title>3</title>
<path fill="#e9ffd3" stroke="black" d="M4428,-328.5C4428,-328.5 4219,-328.5 4219,-328.5 4213,-328.5 4207,-322.5 4207,-316.5 4207,-316.5 4207,-287.5 4207,-287.5 4207,-281.5 4213,-275.5 4219,-275.5 4219,-275.5 4428,-275.5 4428,-275.5 4434,-275.5 4440,-281.5 4440,-287.5 4440,-287.5 4440,-316.5 4440,-316.5 4440,-322.5 4434,-328.5 4428,-328.5"/>
<text text-anchor="middle" x="4323.5" y="-313.3" font-family="Times,serif" font-size="14.00">conv block 2</text>
<text text-anchor="middle" x="4323.5" y="-298.3" font-family="Times,serif" font-size="14.00">log gamma1: 1.389273 &#160;&#160;n kernels: 357</text>
<text text-anchor="middle" x="4323.5" y="-283.3" font-family="Times,serif" font-size="14.00">spatial scale: 2</text>
</g>
<!-- 0&#45;&gt;3 -->
<g id="edge3" class="edge"><title>0&#45;&gt;3</title>
<path fill="none" stroke="black" d="M3596.38,-385.291C3750.43,-367.856 4032.89,-335.889 4196.73,-317.347"/>
<polygon fill="black" stroke="black" points="4197.32,-320.803 4206.86,-316.2 4196.53,-313.847 4197.32,-320.803"/>
</g>
<!-- 4 -->
<g id="node5" class="node"><title>4</title>
<path fill="#e9ffd3" stroke="black" d="M5287,-320C5287,-320 5220,-320 5220,-320 5214,-320 5208,-314 5208,-308 5208,-308 5208,-296 5208,-296 5208,-290 5214,-284 5220,-284 5220,-284 5287,-284 5287,-284 5293,-284 5299,-290 5299,-296 5299,-296 5299,-308 5299,-308 5299,-314 5293,-320 5287,-320"/>
<text text-anchor="middle" x="5253.5" y="-298.3" font-family="Times,serif" font-size="14.00">path combine</text>
</g>
<!-- 0&#45;&gt;4 -->
<g id="edge4" class="edge"><title>0&#45;&gt;4</title>
<path fill="none" stroke="black" d="M3596.25,-391.731C3931.42,-373.785 4948.08,-319.352 5197.7,-305.987"/>
<polygon fill="black" stroke="black" points="5198.18,-309.467 5207.98,-305.437 5197.81,-302.477 5198.18,-309.467"/>
</g>
<!-- 5 -->
<g id="node6" class="node"><title>5</title>
<path fill="#d3ffff" stroke="black" d="M357,-209.5C357,-209.5 98,-209.5 98,-209.5 92,-209.5 86,-203.5 86,-197.5 86,-197.5 86,-168.5 86,-168.5 86,-162.5 92,-156.5 98,-156.5 98,-156.5 357,-156.5 357,-156.5 363,-156.5 369,-162.5 369,-168.5 369,-168.5 369,-197.5 369,-197.5 369,-203.5 363,-209.5 357,-209.5"/>
<text text-anchor="middle" x="227.5" y="-194.3" font-family="Times,serif" font-size="14.00">comp 0</text>
<text text-anchor="middle" x="227.5" y="-179.3" font-family="Times,serif" font-size="14.00">log gamma1: 0.526321 &#160;&#160;log gamma2: 1.136349</text>
<text text-anchor="middle" x="227.5" y="-164.3" font-family="Times,serif" font-size="14.00">n kernels: &#45;17</text>
</g>
<!-- 1&#45;&gt;5 -->
<g id="edge5" class="edge"><title>1&#45;&gt;5</title>
<path fill="none" stroke="black" d="M910.776,-296.058C823.524,-285.96 621.72,-261.408 453.5,-232 419.696,-226.09 383.244,-218.77 349.691,-211.641"/>
<polygon fill="black" stroke="black" points="350.355,-208.204 339.845,-209.537 348.892,-215.049 350.355,-208.204"/>
</g>
<!-- 6 -->
<g id="node7" class="node"><title>6</title>
<path fill="#bfe6e6" stroke="black" d="M600,-202C600,-202 475,-202 475,-202 469,-202 463,-196 463,-190 463,-190 463,-176 463,-176 463,-170 469,-164 475,-164 475,-164 600,-164 600,-164 606,-164 612,-170 612,-176 612,-176 612,-190 612,-190 612,-196 606,-202 600,-202"/>
<text text-anchor="middle" x="537.5" y="-186.8" font-family="Times,serif" font-size="14.00">comp 1</text>
<text text-anchor="middle" x="537.5" y="-171.8" font-family="Times,serif" font-size="14.00">log gamma2: &#45;0.438522</text>
</g>
<!-- 1&#45;&gt;6 -->
<g id="edge6" class="edge"><title>1&#45;&gt;6</title>
<path fill="none" stroke="black" d="M910.902,-290.953C856.966,-278.291 762.469,-255.347 682.5,-232 654.738,-223.895 624.312,-213.983 598.532,-205.276"/>
<polygon fill="black" stroke="black" points="599.488,-201.904 588.894,-202.004 597.238,-208.533 599.488,-201.904"/>
</g>
<!-- 7 -->
<g id="node8" class="node"><title>7</title>
<path fill="#abcece" stroke="black" d="M915,-202C915,-202 704,-202 704,-202 698,-202 692,-196 692,-190 692,-190 692,-176 692,-176 692,-170 698,-164 704,-164 704,-164 915,-164 915,-164 921,-164 927,-170 927,-176 927,-176 927,-190 927,-190 927,-196 921,-202 915,-202"/>
<text text-anchor="middle" x="809.5" y="-186.8" font-family="Times,serif" font-size="14.00">comp 2</text>
<text text-anchor="middle" x="809.5" y="-171.8" font-family="Times,serif" font-size="14.00">log gamma1: &#45;1.404076 &#160;&#160;n kernels: &#45;10</text>
</g>
<!-- 1&#45;&gt;7 -->
<g id="edge7" class="edge"><title>1&#45;&gt;7</title>
<path fill="none" stroke="black" d="M933.416,-283.987C908.824,-264.144 867.97,-231.18 839.94,-208.562"/>
<polygon fill="black" stroke="black" points="842.022,-205.745 832.042,-202.189 837.626,-211.192 842.022,-205.745"/>
</g>
<!-- 8 -->
<g id="node9" class="node"><title>8</title>
<path fill="#97b6b6" stroke="black" d="M1228,-209.5C1228,-209.5 969,-209.5 969,-209.5 963,-209.5 957,-203.5 957,-197.5 957,-197.5 957,-168.5 957,-168.5 957,-162.5 963,-156.5 969,-156.5 969,-156.5 1228,-156.5 1228,-156.5 1234,-156.5 1240,-162.5 1240,-168.5 1240,-168.5 1240,-197.5 1240,-197.5 1240,-203.5 1234,-209.5 1228,-209.5"/>
<text text-anchor="middle" x="1098.5" y="-194.3" font-family="Times,serif" font-size="14.00">comp 3</text>
<text text-anchor="middle" x="1098.5" y="-179.3" font-family="Times,serif" font-size="14.00">log gamma1: 1.389273 &#160;&#160;log gamma2: 0.623485</text>
<text text-anchor="middle" x="1098.5" y="-164.3" font-family="Times,serif" font-size="14.00">n kernels: 9</text>
</g>
<!-- 1&#45;&gt;8 -->
<g id="edge8" class="edge"><title>1&#45;&gt;8</title>
<path fill="none" stroke="black" d="M975.439,-283.987C997.212,-266.297 1031.82,-238.178 1058.8,-216.259"/>
<polygon fill="black" stroke="black" points="1061.35,-218.696 1066.9,-209.674 1056.93,-213.263 1061.35,-218.696"/>
</g>
<!-- 9 -->
<g id="node10" class="node"><title>9</title>
<path fill="#839e9e" stroke="black" d="M1504,-202C1504,-202 1309,-202 1309,-202 1303,-202 1297,-196 1297,-190 1297,-190 1297,-176 1297,-176 1297,-170 1303,-164 1309,-164 1309,-164 1504,-164 1504,-164 1510,-164 1516,-170 1516,-176 1516,-176 1516,-190 1516,-190 1516,-196 1510,-202 1504,-202"/>
<text text-anchor="middle" x="1406.5" y="-186.8" font-family="Times,serif" font-size="14.00">comp 4</text>
<text text-anchor="middle" x="1406.5" y="-171.8" font-family="Times,serif" font-size="14.00">log gamma1: 1.389273 &#160;&#160;n kernels: 9</text>
</g>
<!-- 1&#45;&gt;9 -->
<g id="edge9" class="edge"><title>1&#45;&gt;9</title>
<path fill="none" stroke="black" d="M998.057,-291.697C1055.64,-279.189 1160.15,-255.761 1248.5,-232 1278.84,-223.841 1312.15,-213.872 1340.34,-205.138"/>
<polygon fill="black" stroke="black" points="1341.57,-208.419 1350.08,-202.105 1339.49,-201.735 1341.57,-208.419"/>
</g>
<!-- 10 -->
<g id="node11" class="node"><title>10</title>
<path fill="#d3ffff" stroke="black" d="M1935.5,-201C1935.5,-201 1901.5,-201 1901.5,-201 1895.5,-201 1889.5,-195 1889.5,-189 1889.5,-189 1889.5,-177 1889.5,-177 1889.5,-171 1895.5,-165 1901.5,-165 1901.5,-165 1935.5,-165 1935.5,-165 1941.5,-165 1947.5,-171 1947.5,-177 1947.5,-177 1947.5,-189 1947.5,-189 1947.5,-195 1941.5,-201 1935.5,-201"/>
<text text-anchor="middle" x="1918.5" y="-179.3" font-family="Times,serif" font-size="14.00">comp 0</text>
</g>
<!-- 2&#45;&gt;10 -->
<g id="edge10" class="edge"><title>2&#45;&gt;10</title>
<path fill="none" stroke="black" d="M2592.74,-291.053C2464.5,-280.806 2272,-262.037 2106.5,-232 2054.39,-222.543 1995.38,-206.598 1957.6,-195.701"/>
<polygon fill="black" stroke="black" points="1958.11,-192.204 1947.53,-192.771 1956.15,-198.925 1958.11,-192.204"/>
</g>
<!-- 11 -->
<g id="node12" class="node"><title>11</title>
<path fill="#bfe6e6" stroke="black" d="M2253,-202C2253,-202 2128,-202 2128,-202 2122,-202 2116,-196 2116,-190 2116,-190 2116,-176 2116,-176 2116,-170 2122,-164 2128,-164 2128,-164 2253,-164 2253,-164 2259,-164 2265,-170 2265,-176 2265,-176 2265,-190 2265,-190 2265,-196 2259,-202 2253,-202"/>
<text text-anchor="middle" x="2190.5" y="-186.8" font-family="Times,serif" font-size="14.00">comp 1</text>
<text text-anchor="middle" x="2190.5" y="-171.8" font-family="Times,serif" font-size="14.00">log gamma2: &#45;1.446402</text>
</g>
<!-- 2&#45;&gt;11 -->
<g id="edge11" class="edge"><title>2&#45;&gt;11</title>
<path fill="none" stroke="black" d="M2592.93,-276.056C2526.02,-263.831 2445.46,-248.256 2373.5,-232 2337.64,-223.899 2298.16,-213.707 2265.08,-204.801"/>
<polygon fill="black" stroke="black" points="2265.59,-201.314 2255.02,-202.082 2263.76,-208.072 2265.59,-201.314"/>
</g>
<!-- 12 -->
<g id="node13" class="node"><title>12</title>
<path fill="#abcece" stroke="black" d="M2520,-202C2520,-202 2395,-202 2395,-202 2389,-202 2383,-196 2383,-190 2383,-190 2383,-176 2383,-176 2383,-170 2389,-164 2395,-164 2395,-164 2520,-164 2520,-164 2526,-164 2532,-170 2532,-176 2532,-176 2532,-190 2532,-190 2532,-196 2526,-202 2520,-202"/>
<text text-anchor="middle" x="2457.5" y="-186.8" font-family="Times,serif" font-size="14.00">comp 2</text>
<text text-anchor="middle" x="2457.5" y="-171.8" font-family="Times,serif" font-size="14.00">log gamma1: &#45;0.437170</text>
</g>
<!-- 2&#45;&gt;12 -->
<g id="edge12" class="edge"><title>2&#45;&gt;12</title>
<path fill="none" stroke="black" d="M2657.67,-267.942C2610.43,-248.131 2551.66,-223.486 2510.05,-206.038"/>
<polygon fill="black" stroke="black" points="2511.23,-202.737 2500.66,-202.098 2508.52,-209.193 2511.23,-202.737"/>
</g>
<!-- 13 -->
<g id="node14" class="node"><title>13</title>
<path fill="#97b6b6" stroke="black" d="M2868,-202C2868,-202 2605,-202 2605,-202 2599,-202 2593,-196 2593,-190 2593,-190 2593,-176 2593,-176 2593,-170 2599,-164 2605,-164 2605,-164 2868,-164 2868,-164 2874,-164 2880,-170 2880,-176 2880,-176 2880,-190 2880,-190 2880,-196 2874,-202 2868,-202"/>
<text text-anchor="middle" x="2736.5" y="-186.8" font-family="Times,serif" font-size="14.00">comp 3</text>
<text text-anchor="middle" x="2736.5" y="-171.8" font-family="Times,serif" font-size="14.00">log gamma1: 1.361506 &#160;&#160;log gamma2: &#45;0.200809</text>
</g>
<!-- 2&#45;&gt;13 -->
<g id="edge13" class="edge"><title>2&#45;&gt;13</title>
<path fill="none" stroke="black" d="M2736.5,-267.785C2736.5,-250.273 2736.5,-229.017 2736.5,-212.296"/>
<polygon fill="black" stroke="black" points="2740,-212.049 2736.5,-202.049 2733,-212.049 2740,-212.049"/>
</g>
<!-- 14 -->
<g id="node15" class="node"><title>14</title>
<path fill="#839e9e" stroke="black" d="M3075.5,-202C3075.5,-202 2955.5,-202 2955.5,-202 2949.5,-202 2943.5,-196 2943.5,-190 2943.5,-190 2943.5,-176 2943.5,-176 2943.5,-170 2949.5,-164 2955.5,-164 2955.5,-164 3075.5,-164 3075.5,-164 3081.5,-164 3087.5,-170 3087.5,-176 3087.5,-176 3087.5,-190 3087.5,-190 3087.5,-196 3081.5,-202 3075.5,-202"/>
<text text-anchor="middle" x="3015.5" y="-186.8" font-family="Times,serif" font-size="14.00">comp 4</text>
<text text-anchor="middle" x="3015.5" y="-171.8" font-family="Times,serif" font-size="14.00">log gamma1: 0.348502</text>
</g>
<!-- 2&#45;&gt;14 -->
<g id="edge14" class="edge"><title>2&#45;&gt;14</title>
<path fill="none" stroke="black" d="M2815.33,-267.942C2862.57,-248.131 2921.34,-223.486 2962.95,-206.038"/>
<polygon fill="black" stroke="black" points="2964.48,-209.193 2972.34,-202.098 2961.77,-202.737 2964.48,-209.193"/>
</g>
<!-- 15 -->
<g id="node16" class="node"><title>15</title>
<path fill="#6f8585" stroke="black" d="M3346.5,-202C3346.5,-202 3218.5,-202 3218.5,-202 3212.5,-202 3206.5,-196 3206.5,-190 3206.5,-190 3206.5,-176 3206.5,-176 3206.5,-170 3212.5,-164 3218.5,-164 3218.5,-164 3346.5,-164 3346.5,-164 3352.5,-164 3358.5,-170 3358.5,-176 3358.5,-176 3358.5,-190 3358.5,-190 3358.5,-196 3352.5,-202 3346.5,-202"/>
<text text-anchor="middle" x="3282.5" y="-186.8" font-family="Times,serif" font-size="14.00">path end 1</text>
<text text-anchor="middle" x="3282.5" y="-171.8" font-family="Times,serif" font-size="14.00">k width: &#45;2 &#160;&#160;n kernels: 4</text>
</g>
<!-- 2&#45;&gt;15 -->
<g id="edge15" class="edge"><title>2&#45;&gt;15</title>
<path fill="none" stroke="black" d="M2880.14,-275.619C2946.24,-263.39 3025.56,-247.935 3096.5,-232 3133.07,-223.784 3173.39,-213.529 3207.11,-204.61"/>
<polygon fill="black" stroke="black" points="3208.13,-207.961 3216.89,-202.011 3206.33,-201.196 3208.13,-207.961"/>
</g>
<!-- 16 -->
<g id="node17" class="node"><title>16</title>
<path fill="#d3ffff" stroke="black" d="M3859.5,-202C3859.5,-202 3641.5,-202 3641.5,-202 3635.5,-202 3629.5,-196 3629.5,-190 3629.5,-190 3629.5,-176 3629.5,-176 3629.5,-170 3635.5,-164 3641.5,-164 3641.5,-164 3859.5,-164 3859.5,-164 3865.5,-164 3871.5,-170 3871.5,-176 3871.5,-176 3871.5,-190 3871.5,-190 3871.5,-196 3865.5,-202 3859.5,-202"/>
<text text-anchor="middle" x="3750.5" y="-186.8" font-family="Times,serif" font-size="14.00">comp 0</text>
<text text-anchor="middle" x="3750.5" y="-171.8" font-family="Times,serif" font-size="14.00">log gamma1: &#45;0.527567 &#160;&#160;n kernels: &#45;348</text>
</g>
<!-- 3&#45;&gt;16 -->
<g id="edge16" class="edge"><title>3&#45;&gt;16</title>
<path fill="none" stroke="black" d="M4206.67,-283.773C4127.05,-271.292 4019.44,-252.975 3925.5,-232 3890.67,-224.223 3852.4,-213.93 3820.55,-204.87"/>
<polygon fill="black" stroke="black" points="3821.46,-201.49 3810.88,-202.102 3819.53,-208.22 3821.46,-201.49"/>
</g>
<!-- 17 -->
<g id="node18" class="node"><title>17</title>
<path fill="#bfe6e6" stroke="black" d="M4164.5,-202C4164.5,-202 3946.5,-202 3946.5,-202 3940.5,-202 3934.5,-196 3934.5,-190 3934.5,-190 3934.5,-176 3934.5,-176 3934.5,-170 3940.5,-164 3946.5,-164 3946.5,-164 4164.5,-164 4164.5,-164 4170.5,-164 4176.5,-170 4176.5,-176 4176.5,-176 4176.5,-190 4176.5,-190 4176.5,-196 4170.5,-202 4164.5,-202"/>
<text text-anchor="middle" x="4055.5" y="-186.8" font-family="Times,serif" font-size="14.00">comp 1</text>
<text text-anchor="middle" x="4055.5" y="-171.8" font-family="Times,serif" font-size="14.00">log gamma1: &#45;0.680519 &#160;&#160;n kernels: &#45;348</text>
</g>
<!-- 3&#45;&gt;17 -->
<g id="edge17" class="edge"><title>3&#45;&gt;17</title>
<path fill="none" stroke="black" d="M4265.02,-275.468C4217.57,-254.753 4151.36,-225.849 4106.15,-206.112"/>
<polygon fill="black" stroke="black" points="4107.4,-202.839 4096.83,-202.045 4104.6,-209.254 4107.4,-202.839"/>
</g>
<!-- 18 -->
<g id="node19" class="node"><title>18</title>
<path fill="#abcece" stroke="black" d="M4386,-202C4386,-202 4261,-202 4261,-202 4255,-202 4249,-196 4249,-190 4249,-190 4249,-176 4249,-176 4249,-170 4255,-164 4261,-164 4261,-164 4386,-164 4386,-164 4392,-164 4398,-170 4398,-176 4398,-176 4398,-190 4398,-190 4398,-196 4392,-202 4386,-202"/>
<text text-anchor="middle" x="4323.5" y="-186.8" font-family="Times,serif" font-size="14.00">comp 2</text>
<text text-anchor="middle" x="4323.5" y="-171.8" font-family="Times,serif" font-size="14.00">log gamma2: &#45;0.533204</text>
</g>
<!-- 3&#45;&gt;18 -->
<g id="edge18" class="edge"><title>3&#45;&gt;18</title>
<path fill="none" stroke="black" d="M4323.5,-275.324C4323.5,-256.794 4323.5,-231.767 4323.5,-212.599"/>
<polygon fill="black" stroke="black" points="4327,-212.358 4323.5,-202.358 4320,-212.358 4327,-212.358"/>
</g>
<!-- 19 -->
<g id="node20" class="node"><title>19</title>
<path fill="#97b6b6" stroke="black" d="M4645.5,-202C4645.5,-202 4427.5,-202 4427.5,-202 4421.5,-202 4415.5,-196 4415.5,-190 4415.5,-190 4415.5,-176 4415.5,-176 4415.5,-170 4421.5,-164 4427.5,-164 4427.5,-164 4645.5,-164 4645.5,-164 4651.5,-164 4657.5,-170 4657.5,-176 4657.5,-176 4657.5,-190 4657.5,-190 4657.5,-196 4651.5,-202 4645.5,-202"/>
<text text-anchor="middle" x="4536.5" y="-186.8" font-family="Times,serif" font-size="14.00">comp 3</text>
<text text-anchor="middle" x="4536.5" y="-171.8" font-family="Times,serif" font-size="14.00">log gamma2: &#45;1.527042 &#160;&#160;n kernels: &#45;348</text>
</g>
<!-- 3&#45;&gt;19 -->
<g id="edge19" class="edge"><title>3&#45;&gt;19</title>
<path fill="none" stroke="black" d="M4369.98,-275.468C4407.06,-255.1 4458.56,-226.814 4494.43,-207.11"/>
<polygon fill="black" stroke="black" points="4496.57,-209.927 4503.65,-202.045 4493.2,-203.792 4496.57,-209.927"/>
</g>
<!-- 20 -->
<g id="node21" class="node"><title>20</title>
<path fill="#839e9e" stroke="black" d="M4721.5,-201C4721.5,-201 4687.5,-201 4687.5,-201 4681.5,-201 4675.5,-195 4675.5,-189 4675.5,-189 4675.5,-177 4675.5,-177 4675.5,-171 4681.5,-165 4687.5,-165 4687.5,-165 4721.5,-165 4721.5,-165 4727.5,-165 4733.5,-171 4733.5,-177 4733.5,-177 4733.5,-189 4733.5,-189 4733.5,-195 4727.5,-201 4721.5,-201"/>
<text text-anchor="middle" x="4704.5" y="-179.3" font-family="Times,serif" font-size="14.00">comp 4</text>
</g>
<!-- 3&#45;&gt;20 -->
<g id="edge20" class="edge"><title>3&#45;&gt;20</title>
<path fill="none" stroke="black" d="M4440.05,-297.492C4510.09,-290.739 4598.53,-273.659 4666.5,-232 4675.51,-226.476 4683.26,-218 4689.36,-209.699"/>
<polygon fill="black" stroke="black" points="4692.38,-211.481 4695.11,-201.243 4686.59,-207.545 4692.38,-211.481"/>
</g>
<!-- 21 -->
<g id="node22" class="node"><title>21</title>
<path fill="#6f8585" stroke="black" d="M4909.5,-202C4909.5,-202 4763.5,-202 4763.5,-202 4757.5,-202 4751.5,-196 4751.5,-190 4751.5,-190 4751.5,-176 4751.5,-176 4751.5,-170 4757.5,-164 4763.5,-164 4763.5,-164 4909.5,-164 4909.5,-164 4915.5,-164 4921.5,-170 4921.5,-176 4921.5,-176 4921.5,-190 4921.5,-190 4921.5,-196 4915.5,-202 4909.5,-202"/>
<text text-anchor="middle" x="4836.5" y="-186.8" font-family="Times,serif" font-size="14.00">path end 2</text>
<text text-anchor="middle" x="4836.5" y="-171.8" font-family="Times,serif" font-size="14.00">k width: &#45;2 &#160;&#160;n kernels: &#45;357</text>
</g>
<!-- 3&#45;&gt;21 -->
<g id="edge21" class="edge"><title>3&#45;&gt;21</title>
<path fill="none" stroke="black" d="M4440.05,-291.542C4525.43,-282.29 4643.23,-264.641 4742.5,-232 4761.59,-225.722 4781.58,-216.012 4798.19,-206.963"/>
<polygon fill="black" stroke="black" points="4800.02,-209.955 4807.05,-202.03 4796.61,-203.84 4800.02,-209.955"/>
</g>
<!-- 22 -->
<g id="node23" class="node"><title>22</title>
<path fill="#d3ffff" stroke="black" d="M5233,-232C5233,-232 4952,-232 4952,-232 4946,-232 4940,-226 4940,-220 4940,-220 4940,-146 4940,-146 4940,-140 4946,-134 4952,-134 4952,-134 5233,-134 5233,-134 5239,-134 5245,-140 5245,-146 5245,-146 5245,-220 5245,-220 5245,-226 5239,-232 5233,-232"/>
<text text-anchor="middle" x="5092.5" y="-216.8" font-family="Times,serif" font-size="14.00">forward</text>
<text text-anchor="middle" x="5092.5" y="-201.8" font-family="Times,serif" font-size="14.00">CB0/C4</text>
<text text-anchor="middle" x="5092.5" y="-186.8" font-family="Times,serif" font-size="14.00">dilation rate: 1 &#160;&#160;k width: 3</text>
<text text-anchor="middle" x="5092.5" y="-171.8" font-family="Times,serif" font-size="14.00">log gamma1: &#45;11.000000 &#160;&#160;log gamma2: &#45;11.000000</text>
<text text-anchor="middle" x="5092.5" y="-156.8" font-family="Times,serif" font-size="14.00">log lambda1: &#45;11.000000 &#160;&#160;log lambda2: &#45;11.000000</text>
<text text-anchor="middle" x="5092.5" y="-141.8" font-family="Times,serif" font-size="14.00">n kernels: 64</text>
</g>
<!-- 4&#45;&gt;22 -->
<g id="edge22" class="edge"><title>4&#45;&gt;22</title>
<path fill="none" stroke="black" d="M5230.09,-283.987C5213.39,-271.851 5189.94,-254.808 5167.12,-238.224"/>
<polygon fill="black" stroke="black" points="5168.9,-235.193 5158.75,-232.146 5164.78,-240.856 5168.9,-235.193"/>
</g>
<!-- 23 -->
<g id="node24" class="node"><title>23</title>
<path fill="#bfe6e6" stroke="black" d="M5556,-232C5556,-232 5275,-232 5275,-232 5269,-232 5263,-226 5263,-220 5263,-220 5263,-146 5263,-146 5263,-140 5269,-134 5275,-134 5275,-134 5556,-134 5556,-134 5562,-134 5568,-140 5568,-146 5568,-146 5568,-220 5568,-220 5568,-226 5562,-232 5556,-232"/>
<text text-anchor="middle" x="5415.5" y="-216.8" font-family="Times,serif" font-size="14.00">merge 1</text>
<text text-anchor="middle" x="5415.5" y="-201.8" font-family="Times,serif" font-size="14.00">CB1/PE1</text>
<text text-anchor="middle" x="5415.5" y="-186.8" font-family="Times,serif" font-size="14.00">dilation rate: 1 &#160;&#160;k width: 3</text>
<text text-anchor="middle" x="5415.5" y="-171.8" font-family="Times,serif" font-size="14.00">log gamma1: &#45;11.000000 &#160;&#160;log gamma2: &#45;11.000000</text>
<text text-anchor="middle" x="5415.5" y="-156.8" font-family="Times,serif" font-size="14.00">log lambda1: &#45;11.000000 &#160;&#160;log lambda2: &#45;11.000000</text>
<text text-anchor="middle" x="5415.5" y="-141.8" font-family="Times,serif" font-size="14.00">n kernels: 64</text>
</g>
<!-- 4&#45;&gt;23 -->
<g id="edge23" class="edge"><title>4&#45;&gt;23</title>
<path fill="none" stroke="black" d="M5277.06,-283.987C5293.93,-271.798 5317.67,-254.658 5340.72,-238.006"/>
<polygon fill="black" stroke="black" points="5342.78,-240.838 5348.84,-232.146 5338.68,-235.163 5342.78,-240.838"/>
</g>
<!-- 24 -->
<g id="node25" class="node"><title>24</title>
<path fill="#abcece" stroke="black" d="M5879,-232C5879,-232 5598,-232 5598,-232 5592,-232 5586,-226 5586,-220 5586,-220 5586,-146 5586,-146 5586,-140 5592,-134 5598,-134 5598,-134 5879,-134 5879,-134 5885,-134 5891,-140 5891,-146 5891,-146 5891,-220 5891,-220 5891,-226 5885,-232 5879,-232"/>
<text text-anchor="middle" x="5738.5" y="-216.8" font-family="Times,serif" font-size="14.00">merge 2</text>
<text text-anchor="middle" x="5738.5" y="-201.8" font-family="Times,serif" font-size="14.00">CB2/PE2</text>
<text text-anchor="middle" x="5738.5" y="-186.8" font-family="Times,serif" font-size="14.00">dilation rate: 1 &#160;&#160;k width: 3</text>
<text text-anchor="middle" x="5738.5" y="-171.8" font-family="Times,serif" font-size="14.00">log gamma1: &#45;11.000000 &#160;&#160;log gamma2: &#45;11.000000</text>
<text text-anchor="middle" x="5738.5" y="-156.8" font-family="Times,serif" font-size="14.00">log lambda1: &#45;11.000000 &#160;&#160;log lambda2: &#45;11.000000</text>
<text text-anchor="middle" x="5738.5" y="-141.8" font-family="Times,serif" font-size="14.00">n kernels: 64</text>
</g>
<!-- 4&#45;&gt;24 -->
<g id="edge24" class="edge"><title>4&#45;&gt;24</title>
<path fill="none" stroke="black" d="M5299.23,-292.393C5360.14,-280.671 5471.42,-258.369 5576.17,-232.033"/>
<polygon fill="black" stroke="black" points="5577.13,-235.402 5585.96,-229.555 5575.41,-228.616 5577.13,-235.402"/>
</g>
<!-- 25 -->
<g id="node26" class="node"><title>25</title>
<path fill="#e9d3ff" stroke="black" d="M293,-98C293,-98 12,-98 12,-98 6,-98 0,-92 0,-86 0,-86 0,-12 0,-12 0,-6 6,-0 12,-0 12,-0 293,-0 293,-0 299,-0 305,-6 305,-12 305,-12 305,-86 305,-86 305,-92 299,-98 293,-98"/>
<text text-anchor="middle" x="152.5" y="-82.8" font-family="Times,serif" font-size="14.00">forward</text>
<text text-anchor="middle" x="152.5" y="-67.8" font-family="Times,serif" font-size="14.00">input</text>
<text text-anchor="middle" x="152.5" y="-52.8" font-family="Times,serif" font-size="14.00">dilation rate: 1 &#160;&#160;k width: 3</text>
<text text-anchor="middle" x="152.5" y="-37.8" font-family="Times,serif" font-size="14.00">log gamma1: &#45;11.000000 &#160;&#160;log gamma2: &#45;11.000000</text>
<text text-anchor="middle" x="152.5" y="-22.8" font-family="Times,serif" font-size="14.00">log lambda1: &#45;11.000000 &#160;&#160;log lambda2: &#45;11.000000</text>
<text text-anchor="middle" x="152.5" y="-7.8" font-family="Times,serif" font-size="14.00">n kernels: 64</text>
</g>
<!-- 5&#45;&gt;25 -->
<g id="edge25" class="edge"><title>5&#45;&gt;25</title>
<path fill="none" stroke="black" d="M212.861,-156.236C204.875,-142.18 194.651,-124.186 184.897,-107.019"/>
<polygon fill="black" stroke="black" points="187.837,-105.108 179.854,-98.1423 181.751,-108.566 187.837,-105.108"/>
</g>
<!-- 26 -->
<g id="node27" class="node"><title>26</title>
<path fill="#e9d3ff" stroke="black" d="M616,-98C616,-98 335,-98 335,-98 329,-98 323,-92 323,-86 323,-86 323,-12 323,-12 323,-6 329,-0 335,-0 335,-0 616,-0 616,-0 622,-0 628,-6 628,-12 628,-12 628,-86 628,-86 628,-92 622,-98 616,-98"/>
<text text-anchor="middle" x="475.5" y="-82.8" font-family="Times,serif" font-size="14.00">forward</text>
<text text-anchor="middle" x="475.5" y="-67.8" font-family="Times,serif" font-size="14.00">CB0/C0</text>
<text text-anchor="middle" x="475.5" y="-52.8" font-family="Times,serif" font-size="14.00">dilation rate: 1 &#160;&#160;k width: 3</text>
<text text-anchor="middle" x="475.5" y="-37.8" font-family="Times,serif" font-size="14.00">log gamma1: &#45;11.000000 &#160;&#160;log gamma2: &#45;11.000000</text>
<text text-anchor="middle" x="475.5" y="-22.8" font-family="Times,serif" font-size="14.00">log lambda1: &#45;11.000000 &#160;&#160;log lambda2: &#45;11.000000</text>
<text text-anchor="middle" x="475.5" y="-7.8" font-family="Times,serif" font-size="14.00">n kernels: 64</text>
</g>
<!-- 6&#45;&gt;26 -->
<g id="edge26" class="edge"><title>6&#45;&gt;26</title>
<path fill="none" stroke="black" d="M529.009,-163.923C522.136,-149.289 512.059,-127.835 502.498,-107.48"/>
<polygon fill="black" stroke="black" points="505.575,-105.797 498.155,-98.2336 499.239,-108.773 505.575,-105.797"/>
</g>
<!-- 27 -->
<g id="node28" class="node"><title>27</title>
<path fill="#e9d3ff" stroke="black" d="M939,-98C939,-98 658,-98 658,-98 652,-98 646,-92 646,-86 646,-86 646,-12 646,-12 646,-6 652,-0 658,-0 658,-0 939,-0 939,-0 945,-0 951,-6 951,-12 951,-12 951,-86 951,-86 951,-92 945,-98 939,-98"/>
<text text-anchor="middle" x="798.5" y="-82.8" font-family="Times,serif" font-size="14.00">forward</text>
<text text-anchor="middle" x="798.5" y="-67.8" font-family="Times,serif" font-size="14.00">CB0/C1</text>
<text text-anchor="middle" x="798.5" y="-52.8" font-family="Times,serif" font-size="14.00">dilation rate: 1 &#160;&#160;k width: 3</text>
<text text-anchor="middle" x="798.5" y="-37.8" font-family="Times,serif" font-size="14.00">log gamma1: &#45;11.000000 &#160;&#160;log gamma2: &#45;11.000000</text>
<text text-anchor="middle" x="798.5" y="-22.8" font-family="Times,serif" font-size="14.00">log lambda1: &#45;11.000000 &#160;&#160;log lambda2: &#45;11.000000</text>
<text text-anchor="middle" x="798.5" y="-7.8" font-family="Times,serif" font-size="14.00">n kernels: 64</text>
</g>
<!-- 7&#45;&gt;27 -->
<g id="edge27" class="edge"><title>7&#45;&gt;27</title>
<path fill="none" stroke="black" d="M807.994,-163.923C806.791,-149.486 805.034,-128.413 803.359,-108.306"/>
<polygon fill="black" stroke="black" points="806.838,-107.908 802.519,-98.2336 799.862,-108.49 806.838,-107.908"/>
</g>
<!-- 28 -->
<g id="node29" class="node"><title>28</title>
<path fill="#e9d3ff" stroke="black" d="M1262,-98C1262,-98 981,-98 981,-98 975,-98 969,-92 969,-86 969,-86 969,-12 969,-12 969,-6 975,-0 981,-0 981,-0 1262,-0 1262,-0 1268,-0 1274,-6 1274,-12 1274,-12 1274,-86 1274,-86 1274,-92 1268,-98 1262,-98"/>
<text text-anchor="middle" x="1121.5" y="-82.8" font-family="Times,serif" font-size="14.00">forward</text>
<text text-anchor="middle" x="1121.5" y="-67.8" font-family="Times,serif" font-size="14.00">CB0/C2</text>
<text text-anchor="middle" x="1121.5" y="-52.8" font-family="Times,serif" font-size="14.00">dilation rate: 1 &#160;&#160;k width: 3</text>
<text text-anchor="middle" x="1121.5" y="-37.8" font-family="Times,serif" font-size="14.00">log gamma1: &#45;11.000000 &#160;&#160;log gamma2: &#45;11.000000</text>
<text text-anchor="middle" x="1121.5" y="-22.8" font-family="Times,serif" font-size="14.00">log lambda1: &#45;11.000000 &#160;&#160;log lambda2: &#45;11.000000</text>
<text text-anchor="middle" x="1121.5" y="-7.8" font-family="Times,serif" font-size="14.00">n kernels: 64</text>
</g>
<!-- 8&#45;&gt;28 -->
<g id="edge28" class="edge"><title>8&#45;&gt;28</title>
<path fill="none" stroke="black" d="M1102.99,-156.236C1105.37,-142.567 1108.4,-125.174 1111.32,-108.438"/>
<polygon fill="black" stroke="black" points="1114.84,-108.595 1113.11,-98.1423 1107.95,-107.393 1114.84,-108.595"/>
</g>
<!-- 29 -->
<g id="node30" class="node"><title>29</title>
<path fill="#e9d3ff" stroke="black" d="M1585,-98C1585,-98 1304,-98 1304,-98 1298,-98 1292,-92 1292,-86 1292,-86 1292,-12 1292,-12 1292,-6 1298,-0 1304,-0 1304,-0 1585,-0 1585,-0 1591,-0 1597,-6 1597,-12 1597,-12 1597,-86 1597,-86 1597,-92 1591,-98 1585,-98"/>
<text text-anchor="middle" x="1444.5" y="-82.8" font-family="Times,serif" font-size="14.00">forward</text>
<text text-anchor="middle" x="1444.5" y="-67.8" font-family="Times,serif" font-size="14.00">CB0/C3</text>
<text text-anchor="middle" x="1444.5" y="-52.8" font-family="Times,serif" font-size="14.00">dilation rate: 1 &#160;&#160;k width: 3</text>
<text text-anchor="middle" x="1444.5" y="-37.8" font-family="Times,serif" font-size="14.00">log gamma1: &#45;11.000000 &#160;&#160;log gamma2: &#45;11.000000</text>
<text text-anchor="middle" x="1444.5" y="-22.8" font-family="Times,serif" font-size="14.00">log lambda1: &#45;11.000000 &#160;&#160;log lambda2: &#45;11.000000</text>
<text text-anchor="middle" x="1444.5" y="-7.8" font-family="Times,serif" font-size="14.00">n kernels: 64</text>
</g>
<!-- 9&#45;&gt;29 -->
<g id="edge29" class="edge"><title>9&#45;&gt;29</title>
<path fill="none" stroke="black" d="M1411.7,-163.923C1415.88,-149.42 1421.98,-128.221 1427.79,-108.03"/>
<polygon fill="black" stroke="black" points="1431.21,-108.812 1430.61,-98.2336 1424.48,-106.875 1431.21,-108.812"/>
</g>
<!-- 30 -->
<g id="node31" class="node"><title>30</title>
<path fill="#e9d3ff" stroke="black" d="M1908,-98C1908,-98 1627,-98 1627,-98 1621,-98 1615,-92 1615,-86 1615,-86 1615,-12 1615,-12 1615,-6 1621,-0 1627,-0 1627,-0 1908,-0 1908,-0 1914,-0 1920,-6 1920,-12 1920,-12 1920,-86 1920,-86 1920,-92 1914,-98 1908,-98"/>
<text text-anchor="middle" x="1767.5" y="-82.8" font-family="Times,serif" font-size="14.00">forward</text>
<text text-anchor="middle" x="1767.5" y="-67.8" font-family="Times,serif" font-size="14.00">input</text>
<text text-anchor="middle" x="1767.5" y="-52.8" font-family="Times,serif" font-size="14.00">dilation rate: 1 &#160;&#160;k width: 3</text>
<text text-anchor="middle" x="1767.5" y="-37.8" font-family="Times,serif" font-size="14.00">log gamma1: &#45;11.000000 &#160;&#160;log gamma2: &#45;11.000000</text>
<text text-anchor="middle" x="1767.5" y="-22.8" font-family="Times,serif" font-size="14.00">log lambda1: &#45;11.000000 &#160;&#160;log lambda2: &#45;11.000000</text>
<text text-anchor="middle" x="1767.5" y="-7.8" font-family="Times,serif" font-size="14.00">n kernels: 64</text>
</g>
<!-- 10&#45;&gt;30 -->
<g id="edge30" class="edge"><title>10&#45;&gt;30</title>
<path fill="none" stroke="black" d="M1898.76,-164.743C1881.3,-149.48 1854.85,-126.36 1830.26,-104.862"/>
<polygon fill="black" stroke="black" points="1832.53,-102.2 1822.7,-98.2533 1827.92,-107.47 1832.53,-102.2"/>
</g>
<!-- 31 -->
<g id="node32" class="node"><title>31</title>
<path fill="#e9d3ff" stroke="black" d="M2231,-98C2231,-98 1950,-98 1950,-98 1944,-98 1938,-92 1938,-86 1938,-86 1938,-12 1938,-12 1938,-6 1944,-0 1950,-0 1950,-0 2231,-0 2231,-0 2237,-0 2243,-6 2243,-12 2243,-12 2243,-86 2243,-86 2243,-92 2237,-98 2231,-98"/>
<text text-anchor="middle" x="2090.5" y="-82.8" font-family="Times,serif" font-size="14.00">forward</text>
<text text-anchor="middle" x="2090.5" y="-67.8" font-family="Times,serif" font-size="14.00">CB1/C0</text>
<text text-anchor="middle" x="2090.5" y="-52.8" font-family="Times,serif" font-size="14.00">dilation rate: 1 &#160;&#160;k width: 3</text>
<text text-anchor="middle" x="2090.5" y="-37.8" font-family="Times,serif" font-size="14.00">log gamma1: &#45;11.000000 &#160;&#160;log gamma2: &#45;11.000000</text>
<text text-anchor="middle" x="2090.5" y="-22.8" font-family="Times,serif" font-size="14.00">log lambda1: &#45;11.000000 &#160;&#160;log lambda2: &#45;11.000000</text>
<text text-anchor="middle" x="2090.5" y="-7.8" font-family="Times,serif" font-size="14.00">n kernels: 64</text>
</g>
<!-- 11&#45;&gt;31 -->
<g id="edge31" class="edge"><title>11&#45;&gt;31</title>
<path fill="none" stroke="black" d="M2176.81,-163.923C2165.52,-149.025 2148.88,-127.059 2133.21,-106.381"/>
<polygon fill="black" stroke="black" points="2135.87,-104.091 2127.04,-98.2336 2130.29,-108.318 2135.87,-104.091"/>
</g>
<!-- 32 -->
<g id="node33" class="node"><title>32</title>
<path fill="#e9d3ff" stroke="black" d="M2554,-98C2554,-98 2273,-98 2273,-98 2267,-98 2261,-92 2261,-86 2261,-86 2261,-12 2261,-12 2261,-6 2267,-0 2273,-0 2273,-0 2554,-0 2554,-0 2560,-0 2566,-6 2566,-12 2566,-12 2566,-86 2566,-86 2566,-92 2560,-98 2554,-98"/>
<text text-anchor="middle" x="2413.5" y="-82.8" font-family="Times,serif" font-size="14.00">forward</text>
<text text-anchor="middle" x="2413.5" y="-67.8" font-family="Times,serif" font-size="14.00">CB1/C1</text>
<text text-anchor="middle" x="2413.5" y="-52.8" font-family="Times,serif" font-size="14.00">dilation rate: 1 &#160;&#160;k width: 3</text>
<text text-anchor="middle" x="2413.5" y="-37.8" font-family="Times,serif" font-size="14.00">log gamma1: &#45;11.000000 &#160;&#160;log gamma2: &#45;11.000000</text>
<text text-anchor="middle" x="2413.5" y="-22.8" font-family="Times,serif" font-size="14.00">log lambda1: &#45;11.000000 &#160;&#160;log lambda2: &#45;11.000000</text>
<text text-anchor="middle" x="2413.5" y="-7.8" font-family="Times,serif" font-size="14.00">n kernels: 64</text>
</g>
<!-- 12&#45;&gt;32 -->
<g id="edge32" class="edge"><title>12&#45;&gt;32</title>
<path fill="none" stroke="black" d="M2451.47,-163.923C2446.62,-149.355 2439.51,-128.028 2432.75,-107.755"/>
<polygon fill="black" stroke="black" points="2436.06,-106.614 2429.58,-98.2336 2429.42,-108.827 2436.06,-106.614"/>
</g>
<!-- 33 -->
<g id="node34" class="node"><title>33</title>
<path fill="#e9d3ff" stroke="black" d="M2877,-98C2877,-98 2596,-98 2596,-98 2590,-98 2584,-92 2584,-86 2584,-86 2584,-12 2584,-12 2584,-6 2590,-0 2596,-0 2596,-0 2877,-0 2877,-0 2883,-0 2889,-6 2889,-12 2889,-12 2889,-86 2889,-86 2889,-92 2883,-98 2877,-98"/>
<text text-anchor="middle" x="2736.5" y="-82.8" font-family="Times,serif" font-size="14.00">forward</text>
<text text-anchor="middle" x="2736.5" y="-67.8" font-family="Times,serif" font-size="14.00">CB1/C2</text>
<text text-anchor="middle" x="2736.5" y="-52.8" font-family="Times,serif" font-size="14.00">dilation rate: 1 &#160;&#160;k width: 3</text>
<text text-anchor="middle" x="2736.5" y="-37.8" font-family="Times,serif" font-size="14.00">log gamma1: &#45;11.000000 &#160;&#160;log gamma2: &#45;11.000000</text>
<text text-anchor="middle" x="2736.5" y="-22.8" font-family="Times,serif" font-size="14.00">log lambda1: &#45;11.000000 &#160;&#160;log lambda2: &#45;11.000000</text>
<text text-anchor="middle" x="2736.5" y="-7.8" font-family="Times,serif" font-size="14.00">n kernels: 64</text>
</g>
<!-- 13&#45;&gt;33 -->
<g id="edge33" class="edge"><title>13&#45;&gt;33</title>
<path fill="none" stroke="black" d="M2736.5,-163.923C2736.5,-149.486 2736.5,-128.413 2736.5,-108.306"/>
<polygon fill="black" stroke="black" points="2740,-108.234 2736.5,-98.2336 2733,-108.234 2740,-108.234"/>
</g>
<!-- 34 -->
<g id="node35" class="node"><title>34</title>
<path fill="#e9d3ff" stroke="black" d="M3200,-98C3200,-98 2919,-98 2919,-98 2913,-98 2907,-92 2907,-86 2907,-86 2907,-12 2907,-12 2907,-6 2913,-0 2919,-0 2919,-0 3200,-0 3200,-0 3206,-0 3212,-6 3212,-12 3212,-12 3212,-86 3212,-86 3212,-92 3206,-98 3200,-98"/>
<text text-anchor="middle" x="3059.5" y="-82.8" font-family="Times,serif" font-size="14.00">forward</text>
<text text-anchor="middle" x="3059.5" y="-67.8" font-family="Times,serif" font-size="14.00">CB1/C3</text>
<text text-anchor="middle" x="3059.5" y="-52.8" font-family="Times,serif" font-size="14.00">dilation rate: 1 &#160;&#160;k width: 3</text>
<text text-anchor="middle" x="3059.5" y="-37.8" font-family="Times,serif" font-size="14.00">log gamma1: &#45;11.000000 &#160;&#160;log gamma2: &#45;11.000000</text>
<text text-anchor="middle" x="3059.5" y="-22.8" font-family="Times,serif" font-size="14.00">log lambda1: &#45;11.000000 &#160;&#160;log lambda2: &#45;11.000000</text>
<text text-anchor="middle" x="3059.5" y="-7.8" font-family="Times,serif" font-size="14.00">n kernels: 64</text>
</g>
<!-- 14&#45;&gt;34 -->
<g id="edge34" class="edge"><title>14&#45;&gt;34</title>
<path fill="none" stroke="black" d="M3021.53,-163.923C3026.38,-149.355 3033.49,-128.028 3040.25,-107.755"/>
<polygon fill="black" stroke="black" points="3043.58,-108.827 3043.42,-98.2336 3036.94,-106.614 3043.58,-108.827"/>
</g>
<!-- 35 -->
<g id="node36" class="node"><title>35</title>
<path fill="#e9d3ff" stroke="black" d="M3523,-98C3523,-98 3242,-98 3242,-98 3236,-98 3230,-92 3230,-86 3230,-86 3230,-12 3230,-12 3230,-6 3236,-0 3242,-0 3242,-0 3523,-0 3523,-0 3529,-0 3535,-6 3535,-12 3535,-12 3535,-86 3535,-86 3535,-92 3529,-98 3523,-98"/>
<text text-anchor="middle" x="3382.5" y="-82.8" font-family="Times,serif" font-size="14.00">forward</text>
<text text-anchor="middle" x="3382.5" y="-67.8" font-family="Times,serif" font-size="14.00">CB1/C4</text>
<text text-anchor="middle" x="3382.5" y="-52.8" font-family="Times,serif" font-size="14.00">dilation rate: 1 &#160;&#160;k width: 3</text>
<text text-anchor="middle" x="3382.5" y="-37.8" font-family="Times,serif" font-size="14.00">log gamma1: &#45;11.000000 &#160;&#160;log gamma2: &#45;11.000000</text>
<text text-anchor="middle" x="3382.5" y="-22.8" font-family="Times,serif" font-size="14.00">log lambda1: &#45;11.000000 &#160;&#160;log lambda2: &#45;11.000000</text>
<text text-anchor="middle" x="3382.5" y="-7.8" font-family="Times,serif" font-size="14.00">n kernels: 64</text>
</g>
<!-- 15&#45;&gt;35 -->
<g id="edge35" class="edge"><title>15&#45;&gt;35</title>
<path fill="none" stroke="black" d="M3296.19,-163.923C3307.48,-149.025 3324.12,-127.059 3339.79,-106.381"/>
<polygon fill="black" stroke="black" points="3342.71,-108.318 3345.96,-98.2336 3337.13,-104.091 3342.71,-108.318"/>
</g>
<!-- 36 -->
<g id="node37" class="node"><title>36</title>
<path fill="#e9d3ff" stroke="black" d="M3846,-98C3846,-98 3565,-98 3565,-98 3559,-98 3553,-92 3553,-86 3553,-86 3553,-12 3553,-12 3553,-6 3559,-0 3565,-0 3565,-0 3846,-0 3846,-0 3852,-0 3858,-6 3858,-12 3858,-12 3858,-86 3858,-86 3858,-92 3852,-98 3846,-98"/>
<text text-anchor="middle" x="3705.5" y="-82.8" font-family="Times,serif" font-size="14.00">forward</text>
<text text-anchor="middle" x="3705.5" y="-67.8" font-family="Times,serif" font-size="14.00">input</text>
<text text-anchor="middle" x="3705.5" y="-52.8" font-family="Times,serif" font-size="14.00">dilation rate: 1 &#160;&#160;k width: 3</text>
<text text-anchor="middle" x="3705.5" y="-37.8" font-family="Times,serif" font-size="14.00">log gamma1: &#45;11.000000 &#160;&#160;log gamma2: &#45;11.000000</text>
<text text-anchor="middle" x="3705.5" y="-22.8" font-family="Times,serif" font-size="14.00">log lambda1: &#45;11.000000 &#160;&#160;log lambda2: &#45;11.000000</text>
<text text-anchor="middle" x="3705.5" y="-7.8" font-family="Times,serif" font-size="14.00">n kernels: 64</text>
</g>
<!-- 16&#45;&gt;36 -->
<g id="edge36" class="edge"><title>16&#45;&gt;36</title>
<path fill="none" stroke="black" d="M3744.34,-163.923C3739.37,-149.355 3732.1,-128.028 3725.19,-107.755"/>
<polygon fill="black" stroke="black" points="3728.48,-106.569 3721.94,-98.2336 3721.86,-108.828 3728.48,-106.569"/>
</g>
<!-- 37 -->
<g id="node38" class="node"><title>37</title>
<path fill="#e9d3ff" stroke="black" d="M4169,-98C4169,-98 3888,-98 3888,-98 3882,-98 3876,-92 3876,-86 3876,-86 3876,-12 3876,-12 3876,-6 3882,-0 3888,-0 3888,-0 4169,-0 4169,-0 4175,-0 4181,-6 4181,-12 4181,-12 4181,-86 4181,-86 4181,-92 4175,-98 4169,-98"/>
<text text-anchor="middle" x="4028.5" y="-82.8" font-family="Times,serif" font-size="14.00">forward</text>
<text text-anchor="middle" x="4028.5" y="-67.8" font-family="Times,serif" font-size="14.00">CB2/C0</text>
<text text-anchor="middle" x="4028.5" y="-52.8" font-family="Times,serif" font-size="14.00">dilation rate: 1 &#160;&#160;k width: 3</text>
<text text-anchor="middle" x="4028.5" y="-37.8" font-family="Times,serif" font-size="14.00">log gamma1: &#45;11.000000 &#160;&#160;log gamma2: &#45;11.000000</text>
<text text-anchor="middle" x="4028.5" y="-22.8" font-family="Times,serif" font-size="14.00">log lambda1: &#45;11.000000 &#160;&#160;log lambda2: &#45;11.000000</text>
<text text-anchor="middle" x="4028.5" y="-7.8" font-family="Times,serif" font-size="14.00">n kernels: 64</text>
</g>
<!-- 17&#45;&gt;37 -->
<g id="edge37" class="edge"><title>17&#45;&gt;37</title>
<path fill="none" stroke="black" d="M4051.8,-163.923C4048.85,-149.486 4044.54,-128.413 4040.43,-108.306"/>
<polygon fill="black" stroke="black" points="4043.8,-107.329 4038.37,-98.2336 4036.94,-108.732 4043.8,-107.329"/>
</g>
<!-- 38 -->
<g id="node39" class="node"><title>38</title>
<path fill="#e9d3ff" stroke="black" d="M4492,-98C4492,-98 4211,-98 4211,-98 4205,-98 4199,-92 4199,-86 4199,-86 4199,-12 4199,-12 4199,-6 4205,-0 4211,-0 4211,-0 4492,-0 4492,-0 4498,-0 4504,-6 4504,-12 4504,-12 4504,-86 4504,-86 4504,-92 4498,-98 4492,-98"/>
<text text-anchor="middle" x="4351.5" y="-82.8" font-family="Times,serif" font-size="14.00">forward</text>
<text text-anchor="middle" x="4351.5" y="-67.8" font-family="Times,serif" font-size="14.00">CB2/C1</text>
<text text-anchor="middle" x="4351.5" y="-52.8" font-family="Times,serif" font-size="14.00">dilation rate: 1 &#160;&#160;k width: 3</text>
<text text-anchor="middle" x="4351.5" y="-37.8" font-family="Times,serif" font-size="14.00">log gamma1: &#45;11.000000 &#160;&#160;log gamma2: &#45;11.000000</text>
<text text-anchor="middle" x="4351.5" y="-22.8" font-family="Times,serif" font-size="14.00">log lambda1: &#45;11.000000 &#160;&#160;log lambda2: &#45;11.000000</text>
<text text-anchor="middle" x="4351.5" y="-7.8" font-family="Times,serif" font-size="14.00">n kernels: 64</text>
</g>
<!-- 18&#45;&gt;38 -->
<g id="edge38" class="edge"><title>18&#45;&gt;38</title>
<path fill="none" stroke="black" d="M4327.33,-163.923C4330.41,-149.42 4334.91,-128.221 4339.19,-108.03"/>
<polygon fill="black" stroke="black" points="4342.62,-108.742 4341.27,-98.2336 4335.77,-107.29 4342.62,-108.742"/>
</g>
<!-- 39 -->
<g id="node40" class="node"><title>39</title>
<path fill="#e9d3ff" stroke="black" d="M4815,-98C4815,-98 4534,-98 4534,-98 4528,-98 4522,-92 4522,-86 4522,-86 4522,-12 4522,-12 4522,-6 4528,-0 4534,-0 4534,-0 4815,-0 4815,-0 4821,-0 4827,-6 4827,-12 4827,-12 4827,-86 4827,-86 4827,-92 4821,-98 4815,-98"/>
<text text-anchor="middle" x="4674.5" y="-82.8" font-family="Times,serif" font-size="14.00">forward</text>
<text text-anchor="middle" x="4674.5" y="-67.8" font-family="Times,serif" font-size="14.00">CB2/C2</text>
<text text-anchor="middle" x="4674.5" y="-52.8" font-family="Times,serif" font-size="14.00">dilation rate: 1 &#160;&#160;k width: 3</text>
<text text-anchor="middle" x="4674.5" y="-37.8" font-family="Times,serif" font-size="14.00">log gamma1: &#45;11.000000 &#160;&#160;log gamma2: &#45;11.000000</text>
<text text-anchor="middle" x="4674.5" y="-22.8" font-family="Times,serif" font-size="14.00">log lambda1: &#45;11.000000 &#160;&#160;log lambda2: &#45;11.000000</text>
<text text-anchor="middle" x="4674.5" y="-7.8" font-family="Times,serif" font-size="14.00">n kernels: 64</text>
</g>
<!-- 19&#45;&gt;39 -->
<g id="edge39" class="edge"><title>19&#45;&gt;39</title>
<path fill="none" stroke="black" d="M4555.4,-163.923C4571.25,-148.761 4594.75,-126.279 4616.7,-105.284"/>
<polygon fill="black" stroke="black" points="4619.27,-107.675 4624.07,-98.2336 4614.43,-102.617 4619.27,-107.675"/>
</g>
<!-- 40 -->
<g id="node41" class="node"><title>40</title>
<path fill="#e9d3ff" stroke="black" d="M5138,-98C5138,-98 4857,-98 4857,-98 4851,-98 4845,-92 4845,-86 4845,-86 4845,-12 4845,-12 4845,-6 4851,-0 4857,-0 4857,-0 5138,-0 5138,-0 5144,-0 5150,-6 5150,-12 5150,-12 5150,-86 5150,-86 5150,-92 5144,-98 5138,-98"/>
<text text-anchor="middle" x="4997.5" y="-82.8" font-family="Times,serif" font-size="14.00">forward</text>
<text text-anchor="middle" x="4997.5" y="-67.8" font-family="Times,serif" font-size="14.00">CB2/C3</text>
<text text-anchor="middle" x="4997.5" y="-52.8" font-family="Times,serif" font-size="14.00">dilation rate: 1 &#160;&#160;k width: 3</text>
<text text-anchor="middle" x="4997.5" y="-37.8" font-family="Times,serif" font-size="14.00">log gamma1: &#45;11.000000 &#160;&#160;log gamma2: &#45;11.000000</text>
<text text-anchor="middle" x="4997.5" y="-22.8" font-family="Times,serif" font-size="14.00">log lambda1: &#45;11.000000 &#160;&#160;log lambda2: &#45;11.000000</text>
<text text-anchor="middle" x="4997.5" y="-7.8" font-family="Times,serif" font-size="14.00">n kernels: 64</text>
</g>
<!-- 20&#45;&gt;40 -->
<g id="edge40" class="edge"><title>20&#45;&gt;40</title>
<path fill="none" stroke="black" d="M4714.51,-164.779C4721.25,-154.544 4731,-142.034 4742.5,-134 4751.75,-127.537 4790.51,-113.94 4835.12,-99.5316"/>
<polygon fill="black" stroke="black" points="4836.27,-102.839 4844.72,-96.4471 4834.13,-96.1741 4836.27,-102.839"/>
</g>
<!-- 41 -->
<g id="node42" class="node"><title>41</title>
<path fill="#e9d3ff" stroke="black" d="M5461,-98C5461,-98 5180,-98 5180,-98 5174,-98 5168,-92 5168,-86 5168,-86 5168,-12 5168,-12 5168,-6 5174,-0 5180,-0 5180,-0 5461,-0 5461,-0 5467,-0 5473,-6 5473,-12 5473,-12 5473,-86 5473,-86 5473,-92 5467,-98 5461,-98"/>
<text text-anchor="middle" x="5320.5" y="-82.8" font-family="Times,serif" font-size="14.00">forward</text>
<text text-anchor="middle" x="5320.5" y="-67.8" font-family="Times,serif" font-size="14.00">CB2/C4</text>
<text text-anchor="middle" x="5320.5" y="-52.8" font-family="Times,serif" font-size="14.00">dilation rate: 1 &#160;&#160;k width: 3</text>
<text text-anchor="middle" x="5320.5" y="-37.8" font-family="Times,serif" font-size="14.00">log gamma1: &#45;11.000000 &#160;&#160;log gamma2: &#45;11.000000</text>
<text text-anchor="middle" x="5320.5" y="-22.8" font-family="Times,serif" font-size="14.00">log lambda1: &#45;11.000000 &#160;&#160;log lambda2: &#45;11.000000</text>
<text text-anchor="middle" x="5320.5" y="-7.8" font-family="Times,serif" font-size="14.00">n kernels: 64</text>
</g>
<!-- 21&#45;&gt;41 -->
<g id="edge41" class="edge"><title>21&#45;&gt;41</title>
<path fill="none" stroke="black" d="M4865.93,-163.915C4883.96,-153.629 4907.85,-141.366 4930.5,-134 5025.01,-103.27 5056.47,-119.523 5157.58,-98.0858"/>
<polygon fill="black" stroke="black" points="5158.57,-101.452 5167.58,-95.8906 5157.07,-94.6148 5158.57,-101.452"/>
</g>
</g>
</svg>
