<?xml version="1.0" encoding="UTF-8" standalone="no"?>
<!DOCTYPE svg PUBLIC "-//W3C//DTD SVG 1.1//EN"
 "http://www.w3.org/Graphics/SVG/1.1/DTD/svg11.dtd">
<!-- Generated by graphviz version 2.38.0 (20140413.2041)
 -->
<!-- Title: %3 Pages: 1 -->
<svg width="2224pt" height="387pt"
 viewBox="0.00 0.00 2224.00 387.00" xmlns="http://www.w3.org/2000/svg" xmlns:xlink="http://www.w3.org/1999/xlink">
<g id="graph0" class="graph" transform="scale(1 1) rotate(0) translate(4 383)">
<title>%3</title>
<polygon fill="none" stroke="none" points="-4,4 -4,-383 2220,-383 2220,4 -4,4"/>
<!-- 0 -->
<g id="node1" class="node"><title>0</title>
<path fill="#ffd3d3" stroke="black" d="M1264,-379C1264,-379 1194,-379 1194,-379 1188,-379 1182,-373 1182,-367 1182,-367 1182,-353 1182,-353 1182,-347 1188,-341 1194,-341 1194,-341 1264,-341 1264,-341 1270,-341 1276,-347 1276,-353 1276,-353 1276,-367 1276,-367 1276,-373 1270,-379 1264,-379"/>
<text text-anchor="middle" x="1229" y="-363.8" font-family="Times,serif" font-size="14.00">net</text>
<text text-anchor="middle" x="1229" y="-348.8" font-family="Times,serif" font-size="14.00">n kernels: 190</text>
</g>
<!-- 1 -->
<g id="node2" class="node"><title>1</title>
<path fill="#f6ffd3" stroke="black" d="M1093,-297.5C1093,-297.5 875,-297.5 875,-297.5 869,-297.5 863,-291.5 863,-285.5 863,-285.5 863,-271.5 863,-271.5 863,-265.5 869,-259.5 875,-259.5 875,-259.5 1093,-259.5 1093,-259.5 1099,-259.5 1105,-265.5 1105,-271.5 1105,-271.5 1105,-285.5 1105,-285.5 1105,-291.5 1099,-297.5 1093,-297.5"/>
<text text-anchor="middle" x="984" y="-282.3" font-family="Times,serif" font-size="14.00">encoder</text>
<text text-anchor="middle" x="984" y="-267.3" font-family="Times,serif" font-size="14.00">log gamma1: &#45;0.306335 &#160;&#160;pooling type: 1</text>
</g>
<!-- 0&#45;&gt;1 -->
<g id="edge1" class="edge"><title>0&#45;&gt;1</title>
<path fill="none" stroke="black" d="M1181.76,-343.672C1144.09,-331.448 1090.92,-314.195 1049.2,-300.657"/>
<polygon fill="black" stroke="black" points="1050.26,-297.322 1039.67,-297.565 1048.1,-303.98 1050.26,-297.322"/>
</g>
<!-- 2 -->
<g id="node3" class="node"><title>2</title>
<path fill="#f6ffd3" stroke="black" d="M1608,-305C1608,-305 1340,-305 1340,-305 1334,-305 1328,-299 1328,-293 1328,-293 1328,-264 1328,-264 1328,-258 1334,-252 1340,-252 1340,-252 1608,-252 1608,-252 1614,-252 1620,-258 1620,-264 1620,-264 1620,-293 1620,-293 1620,-299 1614,-305 1608,-305"/>
<text text-anchor="middle" x="1474" y="-289.8" font-family="Times,serif" font-size="14.00">decoder</text>
<text text-anchor="middle" x="1474" y="-274.8" font-family="Times,serif" font-size="14.00">log gamma1: &#45;0.184411 &#160;&#160;log gamma2: &#45;0.276865</text>
<text text-anchor="middle" x="1474" y="-259.8" font-family="Times,serif" font-size="14.00">pooling type: &#45;1</text>
</g>
<!-- 0&#45;&gt;2 -->
<g id="edge2" class="edge"><title>0&#45;&gt;2</title>
<path fill="none" stroke="black" d="M1276.24,-343.672C1307.13,-333.648 1348.44,-320.242 1385.32,-308.276"/>
<polygon fill="black" stroke="black" points="1386.66,-311.521 1395.09,-305.106 1384.5,-304.863 1386.66,-311.521"/>
</g>
<!-- 3 -->
<g id="node4" class="node"><title>3</title>
<path fill="#d3ffe4" stroke="black" d="M537,-208.5C537,-208.5 331,-208.5 331,-208.5 325,-208.5 319,-202.5 319,-196.5 319,-196.5 319,-182.5 319,-182.5 319,-176.5 325,-170.5 331,-170.5 331,-170.5 537,-170.5 537,-170.5 543,-170.5 549,-176.5 549,-182.5 549,-182.5 549,-196.5 549,-196.5 549,-202.5 543,-208.5 537,-208.5"/>
<text text-anchor="middle" x="434" y="-193.3" font-family="Times,serif" font-size="14.00">encode block 0</text>
<text text-anchor="middle" x="434" y="-178.3" font-family="Times,serif" font-size="14.00">log gamma2: &#45;0.348188 &#160;&#160;n kernels: 10</text>
</g>
<!-- 1&#45;&gt;3 -->
<g id="edge3" class="edge"><title>1&#45;&gt;3</title>
<path fill="none" stroke="black" d="M870.04,-259.474C778.965,-245.067 651.505,-224.905 557.907,-210.1"/>
<polygon fill="black" stroke="black" points="558.238,-206.609 547.814,-208.503 557.145,-213.523 558.238,-206.609"/>
</g>
<!-- 4 -->
<g id="node5" class="node"><title>4</title>
<path fill="#bfe6cf" stroke="black" d="M1091,-216C1091,-216 877,-216 877,-216 871,-216 865,-210 865,-204 865,-204 865,-175 865,-175 865,-169 871,-163 877,-163 877,-163 1091,-163 1091,-163 1097,-163 1103,-169 1103,-175 1103,-175 1103,-204 1103,-204 1103,-210 1097,-216 1091,-216"/>
<text text-anchor="middle" x="984" y="-200.8" font-family="Times,serif" font-size="14.00">encode block 1</text>
<text text-anchor="middle" x="984" y="-185.8" font-family="Times,serif" font-size="14.00">log gamma1: 0.484142 &#160;&#160;pooling type: 1</text>
<text text-anchor="middle" x="984" y="-170.8" font-family="Times,serif" font-size="14.00">spatial scale: 1</text>
</g>
<!-- 1&#45;&gt;4 -->
<g id="edge4" class="edge"><title>1&#45;&gt;4</title>
<path fill="none" stroke="black" d="M984,-259.474C984,-249.871 984,-237.711 984,-226.285"/>
<polygon fill="black" stroke="black" points="987.5,-226.092 984,-216.092 980.5,-226.092 987.5,-226.092"/>
</g>
<!-- 5 -->
<g id="node6" class="node"><title>5</title>
<path fill="#d3ffe4" stroke="black" d="M1571.5,-216C1571.5,-216 1376.5,-216 1376.5,-216 1370.5,-216 1364.5,-210 1364.5,-204 1364.5,-204 1364.5,-175 1364.5,-175 1364.5,-169 1370.5,-163 1376.5,-163 1376.5,-163 1571.5,-163 1571.5,-163 1577.5,-163 1583.5,-169 1583.5,-175 1583.5,-175 1583.5,-204 1583.5,-204 1583.5,-210 1577.5,-216 1571.5,-216"/>
<text text-anchor="middle" x="1474" y="-200.8" font-family="Times,serif" font-size="14.00">decode block 1</text>
<text text-anchor="middle" x="1474" y="-185.8" font-family="Times,serif" font-size="14.00">log gamma1: 0.245546 &#160;&#160;n kernels: 9</text>
<text text-anchor="middle" x="1474" y="-170.8" font-family="Times,serif" font-size="14.00">spatial scale: 1</text>
</g>
<!-- 2&#45;&gt;5 -->
<g id="edge5" class="edge"><title>2&#45;&gt;5</title>
<path fill="none" stroke="black" d="M1474,-251.868C1474,-243.886 1474,-234.932 1474,-226.384"/>
<polygon fill="black" stroke="black" points="1477.5,-226.25 1474,-216.25 1470.5,-226.25 1477.5,-226.25"/>
</g>
<!-- 6 -->
<g id="node7" class="node"><title>6</title>
<path fill="#bfe6cf" stroke="black" d="M1959,-208.5C1959,-208.5 1759,-208.5 1759,-208.5 1753,-208.5 1747,-202.5 1747,-196.5 1747,-196.5 1747,-182.5 1747,-182.5 1747,-176.5 1753,-170.5 1759,-170.5 1759,-170.5 1959,-170.5 1959,-170.5 1965,-170.5 1971,-176.5 1971,-182.5 1971,-182.5 1971,-196.5 1971,-196.5 1971,-202.5 1965,-208.5 1959,-208.5"/>
<text text-anchor="middle" x="1859" y="-193.3" font-family="Times,serif" font-size="14.00">decode block 0</text>
<text text-anchor="middle" x="1859" y="-178.3" font-family="Times,serif" font-size="14.00">log gamma2: 0.457162 &#160;&#160;n kernels: &#45;3</text>
</g>
<!-- 2&#45;&gt;6 -->
<g id="edge6" class="edge"><title>2&#45;&gt;6</title>
<path fill="none" stroke="black" d="M1586.91,-251.985C1644.98,-238.863 1714.78,-223.091 1769.14,-210.807"/>
<polygon fill="black" stroke="black" points="1770.12,-214.173 1779.1,-208.555 1768.58,-207.345 1770.12,-214.173"/>
</g>
<!-- 7 -->
<g id="node8" class="node"><title>7</title>
<path fill="#d3e4ff" stroke="black" d="M212,-119.5C212,-119.5 12,-119.5 12,-119.5 6,-119.5 0,-113.5 0,-107.5 0,-107.5 0,-93.5 0,-93.5 0,-87.5 6,-81.5 12,-81.5 12,-81.5 212,-81.5 212,-81.5 218,-81.5 224,-87.5 224,-93.5 224,-93.5 224,-107.5 224,-107.5 224,-113.5 218,-119.5 212,-119.5"/>
<text text-anchor="middle" x="112" y="-104.3" font-family="Times,serif" font-size="14.00">comp 0</text>
<text text-anchor="middle" x="112" y="-89.3" font-family="Times,serif" font-size="14.00">log gamma2: &#45;0.046411 &#160;&#160;n kernels: 4</text>
</g>
<!-- 3&#45;&gt;7 -->
<g id="edge7" class="edge"><title>3&#45;&gt;7</title>
<path fill="none" stroke="black" d="M367.281,-170.474C315.256,-156.417 242.952,-136.881 188.57,-122.188"/>
<polygon fill="black" stroke="black" points="189.2,-118.733 178.633,-119.503 187.374,-125.491 189.2,-118.733"/>
</g>
<!-- 8 -->
<g id="node9" class="node"><title>8</title>
<path fill="#bfcfe6" stroke="black" d="M454,-127C454,-127 254,-127 254,-127 248,-127 242,-121 242,-115 242,-115 242,-86 242,-86 242,-80 248,-74 254,-74 254,-74 454,-74 454,-74 460,-74 466,-80 466,-86 466,-86 466,-115 466,-115 466,-121 460,-127 454,-127"/>
<text text-anchor="middle" x="354" y="-111.8" font-family="Times,serif" font-size="14.00">comp 1</text>
<text text-anchor="middle" x="354" y="-96.8" font-family="Times,serif" font-size="14.00">log gamma2: 0.190793 &#160;&#160;n kernels: &#45;4</text>
<text text-anchor="middle" x="354" y="-81.8" font-family="Times,serif" font-size="14.00">pooling type: 1</text>
</g>
<!-- 3&#45;&gt;8 -->
<g id="edge8" class="edge"><title>3&#45;&gt;8</title>
<path fill="none" stroke="black" d="M417.424,-170.474C407.873,-160.087 395.571,-146.709 384.348,-134.503"/>
<polygon fill="black" stroke="black" points="386.878,-132.084 377.533,-127.092 381.725,-136.822 386.878,-132.084"/>
</g>
<!-- 9 -->
<g id="node10" class="node"><title>9</title>
<path fill="#abb9ce" stroke="black" d="M530,-118.5C530,-118.5 496,-118.5 496,-118.5 490,-118.5 484,-112.5 484,-106.5 484,-106.5 484,-94.5 484,-94.5 484,-88.5 490,-82.5 496,-82.5 496,-82.5 530,-82.5 530,-82.5 536,-82.5 542,-88.5 542,-94.5 542,-94.5 542,-106.5 542,-106.5 542,-112.5 536,-118.5 530,-118.5"/>
<text text-anchor="middle" x="513" y="-96.8" font-family="Times,serif" font-size="14.00">identity</text>
</g>
<!-- 3&#45;&gt;9 -->
<g id="edge9" class="edge"><title>3&#45;&gt;9</title>
<path fill="none" stroke="black" d="M450.369,-170.474C462.038,-157.623 477.864,-140.194 490.688,-126.071"/>
<polygon fill="black" stroke="black" points="493.327,-128.372 497.458,-118.615 488.145,-123.666 493.327,-128.372"/>
</g>
<!-- 10 -->
<g id="node11" class="node"><title>10</title>
<path fill="#d3e4ff" stroke="black" d="M840,-127C840,-127 572,-127 572,-127 566,-127 560,-121 560,-115 560,-115 560,-86 560,-86 560,-80 566,-74 572,-74 572,-74 840,-74 840,-74 846,-74 852,-80 852,-86 852,-86 852,-115 852,-115 852,-121 846,-127 840,-127"/>
<text text-anchor="middle" x="706" y="-111.8" font-family="Times,serif" font-size="14.00">comp 0</text>
<text text-anchor="middle" x="706" y="-96.8" font-family="Times,serif" font-size="14.00">log gamma1: &#45;0.391516 &#160;&#160;log gamma2: &#45;0.472911</text>
<text text-anchor="middle" x="706" y="-81.8" font-family="Times,serif" font-size="14.00">pooling type: &#45;1</text>
</g>
<!-- 4&#45;&gt;10 -->
<g id="edge10" class="edge"><title>4&#45;&gt;10</title>
<path fill="none" stroke="black" d="M902.469,-162.985C869.514,-152.672 831.328,-140.721 797.432,-130.114"/>
<polygon fill="black" stroke="black" points="798.118,-126.661 787.529,-127.015 796.028,-133.342 798.118,-126.661"/>
</g>
<!-- 11 -->
<g id="node12" class="node"><title>11</title>
<path fill="#bfcfe6" stroke="black" d="M1086,-127C1086,-127 882,-127 882,-127 876,-127 870,-121 870,-115 870,-115 870,-86 870,-86 870,-80 876,-74 882,-74 882,-74 1086,-74 1086,-74 1092,-74 1098,-80 1098,-86 1098,-86 1098,-115 1098,-115 1098,-121 1092,-127 1086,-127"/>
<text text-anchor="middle" x="984" y="-111.8" font-family="Times,serif" font-size="14.00">comp 1</text>
<text text-anchor="middle" x="984" y="-96.8" font-family="Times,serif" font-size="14.00">log gamma2: &#45;0.216085 &#160;&#160;n kernels: &#45;4</text>
<text text-anchor="middle" x="984" y="-81.8" font-family="Times,serif" font-size="14.00">pooling type: 1</text>
</g>
<!-- 4&#45;&gt;11 -->
<g id="edge11" class="edge"><title>4&#45;&gt;11</title>
<path fill="none" stroke="black" d="M984,-162.868C984,-154.886 984,-145.932 984,-137.384"/>
<polygon fill="black" stroke="black" points="987.5,-137.25 984,-127.25 980.5,-137.25 987.5,-137.25"/>
</g>
<!-- 12 -->
<g id="node13" class="node"><title>12</title>
<path fill="#abb9ce" stroke="black" d="M1162,-118.5C1162,-118.5 1128,-118.5 1128,-118.5 1122,-118.5 1116,-112.5 1116,-106.5 1116,-106.5 1116,-94.5 1116,-94.5 1116,-88.5 1122,-82.5 1128,-82.5 1128,-82.5 1162,-82.5 1162,-82.5 1168,-82.5 1174,-88.5 1174,-94.5 1174,-94.5 1174,-106.5 1174,-106.5 1174,-112.5 1168,-118.5 1162,-118.5"/>
<text text-anchor="middle" x="1145" y="-96.8" font-family="Times,serif" font-size="14.00">identity</text>
</g>
<!-- 4&#45;&gt;12 -->
<g id="edge12" class="edge"><title>4&#45;&gt;12</title>
<path fill="none" stroke="black" d="M1038.98,-162.868C1060.52,-152.348 1085.23,-139.675 1107,-127 1108.51,-126.12 1110.04,-125.204 1111.58,-124.263"/>
<polygon fill="black" stroke="black" points="1113.78,-127.01 1120.35,-118.698 1110.03,-121.099 1113.78,-127.01"/>
</g>
<!-- 13 -->
<g id="node14" class="node"><title>13</title>
<path fill="#d3e4ff" stroke="black" d="M1404,-119.5C1404,-119.5 1204,-119.5 1204,-119.5 1198,-119.5 1192,-113.5 1192,-107.5 1192,-107.5 1192,-93.5 1192,-93.5 1192,-87.5 1198,-81.5 1204,-81.5 1204,-81.5 1404,-81.5 1404,-81.5 1410,-81.5 1416,-87.5 1416,-93.5 1416,-93.5 1416,-107.5 1416,-107.5 1416,-113.5 1410,-119.5 1404,-119.5"/>
<text text-anchor="middle" x="1304" y="-104.3" font-family="Times,serif" font-size="14.00">comp 0</text>
<text text-anchor="middle" x="1304" y="-89.3" font-family="Times,serif" font-size="14.00">log gamma1: 0.293260 &#160;&#160;n kernels: &#45;6</text>
</g>
<!-- 5&#45;&gt;13 -->
<g id="edge13" class="edge"><title>5&#45;&gt;13</title>
<path fill="none" stroke="black" d="M1423.91,-162.868C1399.88,-150.566 1371.33,-135.958 1348.12,-124.08"/>
<polygon fill="black" stroke="black" points="1349.68,-120.947 1339.19,-119.507 1346.49,-127.178 1349.68,-120.947"/>
</g>
<!-- 14 -->
<g id="node15" class="node"><title>14</title>
<path fill="#bfcfe6" stroke="black" d="M1502,-119.5C1502,-119.5 1446,-119.5 1446,-119.5 1440,-119.5 1434,-113.5 1434,-107.5 1434,-107.5 1434,-93.5 1434,-93.5 1434,-87.5 1440,-81.5 1446,-81.5 1446,-81.5 1502,-81.5 1502,-81.5 1508,-81.5 1514,-87.5 1514,-93.5 1514,-93.5 1514,-107.5 1514,-107.5 1514,-113.5 1508,-119.5 1502,-119.5"/>
<text text-anchor="middle" x="1474" y="-104.3" font-family="Times,serif" font-size="14.00">comp 1</text>
<text text-anchor="middle" x="1474" y="-89.3" font-family="Times,serif" font-size="14.00">n kernels: 6</text>
</g>
<!-- 5&#45;&gt;14 -->
<g id="edge14" class="edge"><title>5&#45;&gt;14</title>
<path fill="none" stroke="black" d="M1474,-162.868C1474,-152.417 1474,-140.301 1474,-129.609"/>
<polygon fill="black" stroke="black" points="1477.5,-129.507 1474,-119.507 1470.5,-129.507 1477.5,-129.507"/>
</g>
<!-- 15 -->
<g id="node16" class="node"><title>15</title>
<path fill="#abb9ce" stroke="black" d="M1578,-118.5C1578,-118.5 1544,-118.5 1544,-118.5 1538,-118.5 1532,-112.5 1532,-106.5 1532,-106.5 1532,-94.5 1532,-94.5 1532,-88.5 1538,-82.5 1544,-82.5 1544,-82.5 1578,-82.5 1578,-82.5 1584,-82.5 1590,-88.5 1590,-94.5 1590,-94.5 1590,-106.5 1590,-106.5 1590,-112.5 1584,-118.5 1578,-118.5"/>
<text text-anchor="middle" x="1561" y="-96.8" font-family="Times,serif" font-size="14.00">identity</text>
</g>
<!-- 5&#45;&gt;15 -->
<g id="edge15" class="edge"><title>5&#45;&gt;15</title>
<path fill="none" stroke="black" d="M1499.63,-162.868C1511.31,-151.191 1525.07,-137.435 1536.59,-125.909"/>
<polygon fill="black" stroke="black" points="1539.2,-128.247 1543.8,-118.701 1534.25,-123.298 1539.2,-128.247"/>
</g>
<!-- 16 -->
<g id="node17" class="node"><title>16</title>
<path fill="#d3e4ff" stroke="black" d="M1843.5,-119.5C1843.5,-119.5 1620.5,-119.5 1620.5,-119.5 1614.5,-119.5 1608.5,-113.5 1608.5,-107.5 1608.5,-107.5 1608.5,-93.5 1608.5,-93.5 1608.5,-87.5 1614.5,-81.5 1620.5,-81.5 1620.5,-81.5 1843.5,-81.5 1843.5,-81.5 1849.5,-81.5 1855.5,-87.5 1855.5,-93.5 1855.5,-93.5 1855.5,-107.5 1855.5,-107.5 1855.5,-113.5 1849.5,-119.5 1843.5,-119.5"/>
<text text-anchor="middle" x="1732" y="-104.3" font-family="Times,serif" font-size="14.00">comp 0</text>
<text text-anchor="middle" x="1732" y="-89.3" font-family="Times,serif" font-size="14.00">log gamma1: &#45;0.124087 &#160;&#160;pooling type: &#45;1</text>
</g>
<!-- 6&#45;&gt;16 -->
<g id="edge16" class="edge"><title>6&#45;&gt;16</title>
<path fill="none" stroke="black" d="M1832.69,-170.474C1813.53,-157.35 1787.4,-139.451 1766.56,-125.176"/>
<polygon fill="black" stroke="black" points="1768.51,-122.267 1758.28,-119.503 1764.55,-128.042 1768.51,-122.267"/>
</g>
<!-- 17 -->
<g id="node18" class="node"><title>17</title>
<path fill="#bfcfe6" stroke="black" d="M2086,-119.5C2086,-119.5 1886,-119.5 1886,-119.5 1880,-119.5 1874,-113.5 1874,-107.5 1874,-107.5 1874,-93.5 1874,-93.5 1874,-87.5 1880,-81.5 1886,-81.5 1886,-81.5 2086,-81.5 2086,-81.5 2092,-81.5 2098,-87.5 2098,-93.5 2098,-93.5 2098,-107.5 2098,-107.5 2098,-113.5 2092,-119.5 2086,-119.5"/>
<text text-anchor="middle" x="1986" y="-104.3" font-family="Times,serif" font-size="14.00">comp 1</text>
<text text-anchor="middle" x="1986" y="-89.3" font-family="Times,serif" font-size="14.00">log gamma1: &#45;0.298801 &#160;&#160;n kernels: 7</text>
</g>
<!-- 6&#45;&gt;17 -->
<g id="edge17" class="edge"><title>6&#45;&gt;17</title>
<path fill="none" stroke="black" d="M1885.31,-170.474C1904.47,-157.35 1930.6,-139.451 1951.44,-125.176"/>
<polygon fill="black" stroke="black" points="1953.45,-128.042 1959.72,-119.503 1949.49,-122.267 1953.45,-128.042"/>
</g>
<!-- 18 -->
<g id="node19" class="node"><title>18</title>
<path fill="#abb9ce" stroke="black" d="M2162,-118.5C2162,-118.5 2128,-118.5 2128,-118.5 2122,-118.5 2116,-112.5 2116,-106.5 2116,-106.5 2116,-94.5 2116,-94.5 2116,-88.5 2122,-82.5 2128,-82.5 2128,-82.5 2162,-82.5 2162,-82.5 2168,-82.5 2174,-88.5 2174,-94.5 2174,-94.5 2174,-106.5 2174,-106.5 2174,-112.5 2168,-118.5 2162,-118.5"/>
<text text-anchor="middle" x="2145" y="-96.8" font-family="Times,serif" font-size="14.00">identity</text>
</g>
<!-- 6&#45;&gt;18 -->
<g id="edge18" class="edge"><title>6&#45;&gt;18</title>
<path fill="none" stroke="black" d="M1966.06,-170.461C2010.8,-160.771 2062.59,-146.676 2107,-127 2109.07,-126.085 2111.14,-125.058 2113.2,-123.956"/>
<polygon fill="black" stroke="black" points="2115.19,-126.849 2122.02,-118.755 2111.63,-120.818 2115.19,-126.849"/>
</g>
<!-- 19 -->
<g id="node20" class="node"><title>19</title>
<path fill="#f6d3ff" stroke="black" d="M129.5,-38C129.5,-38 94.5,-38 94.5,-38 88.5,-38 82.5,-32 82.5,-26 82.5,-26 82.5,-12 82.5,-12 82.5,-6 88.5,-0 94.5,-0 94.5,-0 129.5,-0 129.5,-0 135.5,-0 141.5,-6 141.5,-12 141.5,-12 141.5,-26 141.5,-26 141.5,-32 135.5,-38 129.5,-38"/>
<text text-anchor="middle" x="112" y="-22.8" font-family="Times,serif" font-size="14.00">forward</text>
<text text-anchor="middle" x="112" y="-7.8" font-family="Times,serif" font-size="14.00">input</text>
</g>
<!-- 7&#45;&gt;19 -->
<g id="edge19" class="edge"><title>7&#45;&gt;19</title>
<path fill="none" stroke="black" d="M112,-81.4602C112,-71.67 112,-59.3453 112,-48.3073"/>
<polygon fill="black" stroke="black" points="115.5,-48.2435 112,-38.2436 108.5,-48.2436 115.5,-48.2435"/>
</g>
<!-- 20 -->
<g id="node21" class="node"><title>20</title>
<path fill="#f6d3ff" stroke="black" d="M372,-38C372,-38 336,-38 336,-38 330,-38 324,-32 324,-26 324,-26 324,-12 324,-12 324,-6 330,-0 336,-0 336,-0 372,-0 372,-0 378,-0 384,-6 384,-12 384,-12 384,-26 384,-26 384,-32 378,-38 372,-38"/>
<text text-anchor="middle" x="354" y="-22.8" font-family="Times,serif" font-size="14.00">forward</text>
<text text-anchor="middle" x="354" y="-7.8" font-family="Times,serif" font-size="14.00">EB0/C0</text>
</g>
<!-- 8&#45;&gt;20 -->
<g id="edge20" class="edge"><title>8&#45;&gt;20</title>
<path fill="none" stroke="black" d="M354,-73.9081C354,-65.7377 354,-56.6492 354,-48.2981"/>
<polygon fill="black" stroke="black" points="357.5,-48.2389 354,-38.2389 350.5,-48.2389 357.5,-48.2389"/>
</g>
<!-- 21 -->
<g id="node22" class="node"><title>21</title>
<path fill="#f6d3ff" stroke="black" d="M492,-38C492,-38 456,-38 456,-38 450,-38 444,-32 444,-26 444,-26 444,-12 444,-12 444,-6 450,-0 456,-0 456,-0 492,-0 492,-0 498,-0 504,-6 504,-12 504,-12 504,-26 504,-26 504,-32 498,-38 492,-38"/>
<text text-anchor="middle" x="474" y="-22.8" font-family="Times,serif" font-size="14.00">residual</text>
<text text-anchor="middle" x="474" y="-7.8" font-family="Times,serif" font-size="14.00">EB0/C0</text>
</g>
<!-- 9&#45;&gt;21 -->
<g id="edge21" class="edge"><title>9&#45;&gt;21</title>
<path fill="none" stroke="black" d="M504.538,-82.2497C499.532,-72.0459 493.079,-58.8928 487.396,-47.3078"/>
<polygon fill="black" stroke="black" points="490.399,-45.4808 482.852,-38.0444 484.114,-48.5639 490.399,-45.4808"/>
</g>
<!-- 22 -->
<g id="node23" class="node"><title>22</title>
<path fill="#debfe6" stroke="black" d="M570,-38C570,-38 534,-38 534,-38 528,-38 522,-32 522,-26 522,-26 522,-12 522,-12 522,-6 528,-0 534,-0 534,-0 570,-0 570,-0 576,-0 582,-6 582,-12 582,-12 582,-26 582,-26 582,-32 576,-38 570,-38"/>
<text text-anchor="middle" x="552" y="-22.8" font-family="Times,serif" font-size="14.00">forward</text>
<text text-anchor="middle" x="552" y="-7.8" font-family="Times,serif" font-size="14.00">EB0/C1</text>
</g>
<!-- 9&#45;&gt;22 -->
<g id="edge22" class="edge"><title>9&#45;&gt;22</title>
<path fill="none" stroke="black" d="M521.462,-82.2497C526.468,-72.0459 532.921,-58.8928 538.604,-47.3078"/>
<polygon fill="black" stroke="black" points="541.886,-48.5639 543.148,-38.0444 535.601,-45.4808 541.886,-48.5639"/>
</g>
<!-- 23 -->
<g id="node24" class="node"><title>23</title>
<path fill="#f6d3ff" stroke="black" d="M723.5,-38C723.5,-38 688.5,-38 688.5,-38 682.5,-38 676.5,-32 676.5,-26 676.5,-26 676.5,-12 676.5,-12 676.5,-6 682.5,-0 688.5,-0 688.5,-0 723.5,-0 723.5,-0 729.5,-0 735.5,-6 735.5,-12 735.5,-12 735.5,-26 735.5,-26 735.5,-32 729.5,-38 723.5,-38"/>
<text text-anchor="middle" x="706" y="-22.8" font-family="Times,serif" font-size="14.00">forward</text>
<text text-anchor="middle" x="706" y="-7.8" font-family="Times,serif" font-size="14.00">EB0/I</text>
</g>
<!-- 10&#45;&gt;23 -->
<g id="edge23" class="edge"><title>10&#45;&gt;23</title>
<path fill="none" stroke="black" d="M706,-73.9081C706,-65.7377 706,-56.6492 706,-48.2981"/>
<polygon fill="black" stroke="black" points="709.5,-48.2389 706,-38.2389 702.5,-48.2389 709.5,-48.2389"/>
</g>
<!-- 24 -->
<g id="node25" class="node"><title>24</title>
<path fill="#f6d3ff" stroke="black" d="M1002,-38C1002,-38 966,-38 966,-38 960,-38 954,-32 954,-26 954,-26 954,-12 954,-12 954,-6 960,-0 966,-0 966,-0 1002,-0 1002,-0 1008,-0 1014,-6 1014,-12 1014,-12 1014,-26 1014,-26 1014,-32 1008,-38 1002,-38"/>
<text text-anchor="middle" x="984" y="-22.8" font-family="Times,serif" font-size="14.00">forward</text>
<text text-anchor="middle" x="984" y="-7.8" font-family="Times,serif" font-size="14.00">EB1/C0</text>
</g>
<!-- 11&#45;&gt;24 -->
<g id="edge24" class="edge"><title>11&#45;&gt;24</title>
<path fill="none" stroke="black" d="M984,-73.9081C984,-65.7377 984,-56.6492 984,-48.2981"/>
<polygon fill="black" stroke="black" points="987.5,-48.2389 984,-38.2389 980.5,-48.2389 987.5,-48.2389"/>
</g>
<!-- 25 -->
<g id="node26" class="node"><title>25</title>
<path fill="#f6d3ff" stroke="black" d="M1088,-38C1088,-38 1052,-38 1052,-38 1046,-38 1040,-32 1040,-26 1040,-26 1040,-12 1040,-12 1040,-6 1046,-0 1052,-0 1052,-0 1088,-0 1088,-0 1094,-0 1100,-6 1100,-12 1100,-12 1100,-26 1100,-26 1100,-32 1094,-38 1088,-38"/>
<text text-anchor="middle" x="1070" y="-22.8" font-family="Times,serif" font-size="14.00">residual</text>
<text text-anchor="middle" x="1070" y="-7.8" font-family="Times,serif" font-size="14.00">EB1/C0</text>
</g>
<!-- 12&#45;&gt;25 -->
<g id="edge25" class="edge"><title>12&#45;&gt;25</title>
<path fill="none" stroke="black" d="M1128.73,-82.2497C1118.62,-71.5357 1105.44,-57.5701 1094.13,-45.5824"/>
<polygon fill="black" stroke="black" points="1096.43,-42.9166 1087.02,-38.0444 1091.34,-47.7202 1096.43,-42.9166"/>
</g>
<!-- 26 -->
<g id="node27" class="node"><title>26</title>
<path fill="#debfe6" stroke="black" d="M1166,-38C1166,-38 1130,-38 1130,-38 1124,-38 1118,-32 1118,-26 1118,-26 1118,-12 1118,-12 1118,-6 1124,-0 1130,-0 1130,-0 1166,-0 1166,-0 1172,-0 1178,-6 1178,-12 1178,-12 1178,-26 1178,-26 1178,-32 1172,-38 1166,-38"/>
<text text-anchor="middle" x="1148" y="-22.8" font-family="Times,serif" font-size="14.00">forward</text>
<text text-anchor="middle" x="1148" y="-7.8" font-family="Times,serif" font-size="14.00">EB1/C1</text>
</g>
<!-- 12&#45;&gt;26 -->
<g id="edge26" class="edge"><title>12&#45;&gt;26</title>
<path fill="none" stroke="black" d="M1145.65,-82.2497C1146.02,-72.352 1146.5,-59.6794 1146.93,-48.3546"/>
<polygon fill="black" stroke="black" points="1150.44,-48.1693 1147.32,-38.0444 1143.44,-47.9053 1150.44,-48.1693"/>
</g>
<!-- 27 -->
<g id="node28" class="node"><title>27</title>
<path fill="#f6d3ff" stroke="black" d="M1283.5,-38C1283.5,-38 1248.5,-38 1248.5,-38 1242.5,-38 1236.5,-32 1236.5,-26 1236.5,-26 1236.5,-12 1236.5,-12 1236.5,-6 1242.5,-0 1248.5,-0 1248.5,-0 1283.5,-0 1283.5,-0 1289.5,-0 1295.5,-6 1295.5,-12 1295.5,-12 1295.5,-26 1295.5,-26 1295.5,-32 1289.5,-38 1283.5,-38"/>
<text text-anchor="middle" x="1266" y="-22.8" font-family="Times,serif" font-size="14.00">forward</text>
<text text-anchor="middle" x="1266" y="-7.8" font-family="Times,serif" font-size="14.00">EB1/I</text>
</g>
<!-- 13&#45;&gt;27 -->
<g id="edge27" class="edge"><title>13&#45;&gt;27</title>
<path fill="none" stroke="black" d="M1295.38,-81.4602C1290.55,-71.3672 1284.44,-58.5805 1279.04,-47.287"/>
<polygon fill="black" stroke="black" points="1282.19,-45.7565 1274.72,-38.2436 1275.87,-48.7753 1282.19,-45.7565"/>
</g>
<!-- 28 -->
<g id="node29" class="node"><title>28</title>
<path fill="#debfe6" stroke="black" d="M1356,-38C1356,-38 1326,-38 1326,-38 1320,-38 1314,-32 1314,-26 1314,-26 1314,-12 1314,-12 1314,-6 1320,-0 1326,-0 1326,-0 1356,-0 1356,-0 1362,-0 1368,-6 1368,-12 1368,-12 1368,-26 1368,-26 1368,-32 1362,-38 1356,-38"/>
<text text-anchor="middle" x="1341" y="-22.8" font-family="Times,serif" font-size="14.00">merge</text>
<text text-anchor="middle" x="1341" y="-7.8" font-family="Times,serif" font-size="14.00">EB1/I</text>
</g>
<!-- 13&#45;&gt;28 -->
<g id="edge28" class="edge"><title>13&#45;&gt;28</title>
<path fill="none" stroke="black" d="M1312.4,-81.4602C1317.05,-71.4682 1322.93,-58.8359 1328.14,-47.6262"/>
<polygon fill="black" stroke="black" points="1331.46,-48.7866 1332.51,-38.2436 1325.12,-45.8329 1331.46,-48.7866"/>
</g>
<!-- 29 -->
<g id="node30" class="node"><title>29</title>
<path fill="#f6d3ff" stroke="black" d="M1493,-38C1493,-38 1455,-38 1455,-38 1449,-38 1443,-32 1443,-26 1443,-26 1443,-12 1443,-12 1443,-6 1449,-0 1455,-0 1455,-0 1493,-0 1493,-0 1499,-0 1505,-6 1505,-12 1505,-12 1505,-26 1505,-26 1505,-32 1499,-38 1493,-38"/>
<text text-anchor="middle" x="1474" y="-22.8" font-family="Times,serif" font-size="14.00">forward</text>
<text text-anchor="middle" x="1474" y="-7.8" font-family="Times,serif" font-size="14.00">DB1/C0</text>
</g>
<!-- 14&#45;&gt;29 -->
<g id="edge29" class="edge"><title>14&#45;&gt;29</title>
<path fill="none" stroke="black" d="M1474,-81.4602C1474,-71.67 1474,-59.3453 1474,-48.3073"/>
<polygon fill="black" stroke="black" points="1477.5,-48.2435 1474,-38.2436 1470.5,-48.2436 1477.5,-48.2435"/>
</g>
<!-- 30 -->
<g id="node31" class="node"><title>30</title>
<path fill="#f6d3ff" stroke="black" d="M1576,-38C1576,-38 1538,-38 1538,-38 1532,-38 1526,-32 1526,-26 1526,-26 1526,-12 1526,-12 1526,-6 1532,-0 1538,-0 1538,-0 1576,-0 1576,-0 1582,-0 1588,-6 1588,-12 1588,-12 1588,-26 1588,-26 1588,-32 1582,-38 1576,-38"/>
<text text-anchor="middle" x="1557" y="-22.8" font-family="Times,serif" font-size="14.00">residual</text>
<text text-anchor="middle" x="1557" y="-7.8" font-family="Times,serif" font-size="14.00">DB1/C0</text>
</g>
<!-- 15&#45;&gt;30 -->
<g id="edge30" class="edge"><title>15&#45;&gt;30</title>
<path fill="none" stroke="black" d="M1560.13,-82.2497C1559.63,-72.352 1559,-59.6794 1558.43,-48.3546"/>
<polygon fill="black" stroke="black" points="1561.91,-47.8559 1557.91,-38.0444 1554.91,-48.2077 1561.91,-47.8559"/>
</g>
<!-- 31 -->
<g id="node32" class="node"><title>31</title>
<path fill="#debfe6" stroke="black" d="M1656,-38C1656,-38 1618,-38 1618,-38 1612,-38 1606,-32 1606,-26 1606,-26 1606,-12 1606,-12 1606,-6 1612,-0 1618,-0 1618,-0 1656,-0 1656,-0 1662,-0 1668,-6 1668,-12 1668,-12 1668,-26 1668,-26 1668,-32 1662,-38 1656,-38"/>
<text text-anchor="middle" x="1637" y="-22.8" font-family="Times,serif" font-size="14.00">forward</text>
<text text-anchor="middle" x="1637" y="-7.8" font-family="Times,serif" font-size="14.00">DB1/C1</text>
</g>
<!-- 15&#45;&gt;31 -->
<g id="edge31" class="edge"><title>15&#45;&gt;31</title>
<path fill="none" stroke="black" d="M1577.49,-82.2497C1587.73,-71.5357 1601.08,-57.5701 1612.54,-45.5824"/>
<polygon fill="black" stroke="black" points="1615.37,-47.6914 1619.75,-38.0444 1610.31,-42.8543 1615.37,-47.6914"/>
</g>
<!-- 32 -->
<g id="node33" class="node"><title>32</title>
<path fill="#f6d3ff" stroke="black" d="M1742.5,-38C1742.5,-38 1707.5,-38 1707.5,-38 1701.5,-38 1695.5,-32 1695.5,-26 1695.5,-26 1695.5,-12 1695.5,-12 1695.5,-6 1701.5,-0 1707.5,-0 1707.5,-0 1742.5,-0 1742.5,-0 1748.5,-0 1754.5,-6 1754.5,-12 1754.5,-12 1754.5,-26 1754.5,-26 1754.5,-32 1748.5,-38 1742.5,-38"/>
<text text-anchor="middle" x="1725" y="-22.8" font-family="Times,serif" font-size="14.00">forward</text>
<text text-anchor="middle" x="1725" y="-7.8" font-family="Times,serif" font-size="14.00">DB1/I</text>
</g>
<!-- 16&#45;&gt;32 -->
<g id="edge32" class="edge"><title>16&#45;&gt;32</title>
<path fill="none" stroke="black" d="M1730.41,-81.4602C1729.55,-71.67 1728.46,-59.3453 1727.49,-48.3073"/>
<polygon fill="black" stroke="black" points="1730.97,-47.898 1726.61,-38.2436 1724,-48.5121 1730.97,-47.898"/>
</g>
<!-- 33 -->
<g id="node34" class="node"><title>33</title>
<path fill="#debfe6" stroke="black" d="M1815,-38C1815,-38 1785,-38 1785,-38 1779,-38 1773,-32 1773,-26 1773,-26 1773,-12 1773,-12 1773,-6 1779,-0 1785,-0 1785,-0 1815,-0 1815,-0 1821,-0 1827,-6 1827,-12 1827,-12 1827,-26 1827,-26 1827,-32 1821,-38 1815,-38"/>
<text text-anchor="middle" x="1800" y="-22.8" font-family="Times,serif" font-size="14.00">merge</text>
<text text-anchor="middle" x="1800" y="-7.8" font-family="Times,serif" font-size="14.00">EB0/I</text>
</g>
<!-- 16&#45;&gt;33 -->
<g id="edge33" class="edge"><title>16&#45;&gt;33</title>
<path fill="none" stroke="black" d="M1747.43,-81.4602C1756.41,-70.9635 1767.88,-57.5532 1777.81,-45.9392"/>
<polygon fill="black" stroke="black" points="1780.56,-48.1179 1784.4,-38.2436 1775.24,-43.5679 1780.56,-48.1179"/>
</g>
<!-- 34 -->
<g id="node35" class="node"><title>34</title>
<path fill="#f6d3ff" stroke="black" d="M2005,-38C2005,-38 1967,-38 1967,-38 1961,-38 1955,-32 1955,-26 1955,-26 1955,-12 1955,-12 1955,-6 1961,-0 1967,-0 1967,-0 2005,-0 2005,-0 2011,-0 2017,-6 2017,-12 2017,-12 2017,-26 2017,-26 2017,-32 2011,-38 2005,-38"/>
<text text-anchor="middle" x="1986" y="-22.8" font-family="Times,serif" font-size="14.00">forward</text>
<text text-anchor="middle" x="1986" y="-7.8" font-family="Times,serif" font-size="14.00">DB0/C0</text>
</g>
<!-- 17&#45;&gt;34 -->
<g id="edge34" class="edge"><title>17&#45;&gt;34</title>
<path fill="none" stroke="black" d="M1986,-81.4602C1986,-71.67 1986,-59.3453 1986,-48.3073"/>
<polygon fill="black" stroke="black" points="1989.5,-48.2435 1986,-38.2436 1982.5,-48.2436 1989.5,-48.2435"/>
</g>
<!-- 35 -->
<g id="node36" class="node"><title>35</title>
<path fill="#f6d3ff" stroke="black" d="M2124,-38C2124,-38 2086,-38 2086,-38 2080,-38 2074,-32 2074,-26 2074,-26 2074,-12 2074,-12 2074,-6 2080,-0 2086,-0 2086,-0 2124,-0 2124,-0 2130,-0 2136,-6 2136,-12 2136,-12 2136,-26 2136,-26 2136,-32 2130,-38 2124,-38"/>
<text text-anchor="middle" x="2105" y="-22.8" font-family="Times,serif" font-size="14.00">residual</text>
<text text-anchor="middle" x="2105" y="-7.8" font-family="Times,serif" font-size="14.00">DB0/C0</text>
</g>
<!-- 18&#45;&gt;35 -->
<g id="edge35" class="edge"><title>18&#45;&gt;35</title>
<path fill="none" stroke="black" d="M2136.32,-82.2497C2131.19,-72.0459 2124.57,-58.8928 2118.74,-47.3078"/>
<polygon fill="black" stroke="black" points="2121.7,-45.4043 2114.08,-38.0444 2115.45,-48.5506 2121.7,-45.4043"/>
</g>
<!-- 36 -->
<g id="node37" class="node"><title>36</title>
<path fill="#debfe6" stroke="black" d="M2204,-38C2204,-38 2166,-38 2166,-38 2160,-38 2154,-32 2154,-26 2154,-26 2154,-12 2154,-12 2154,-6 2160,-0 2166,-0 2166,-0 2204,-0 2204,-0 2210,-0 2216,-6 2216,-12 2216,-12 2216,-26 2216,-26 2216,-32 2210,-38 2204,-38"/>
<text text-anchor="middle" x="2185" y="-22.8" font-family="Times,serif" font-size="14.00">forward</text>
<text text-anchor="middle" x="2185" y="-7.8" font-family="Times,serif" font-size="14.00">DB0/C1</text>
</g>
<!-- 18&#45;&gt;36 -->
<g id="edge36" class="edge"><title>18&#45;&gt;36</title>
<path fill="none" stroke="black" d="M2153.68,-82.2497C2158.81,-72.0459 2165.43,-58.8928 2171.26,-47.3078"/>
<polygon fill="black" stroke="black" points="2174.55,-48.5506 2175.92,-38.0444 2168.3,-45.4043 2174.55,-48.5506"/>
</g>
</g>
</svg>
