<?xml version="1.0" encoding="UTF-8" standalone="no"?>
<!DOCTYPE svg PUBLIC "-//W3C//DTD SVG 1.1//EN"
 "http://www.w3.org/Graphics/SVG/1.1/DTD/svg11.dtd">
<!-- Generated by graphviz version 2.38.0 (20140413.2041)
 -->
<!-- Title: %3 Pages: 1 -->
<svg width="1184pt" height="372pt"
 viewBox="0.00 0.00 1183.50 372.00" xmlns="http://www.w3.org/2000/svg" xmlns:xlink="http://www.w3.org/1999/xlink">
<g id="graph0" class="graph" transform="scale(1 1) rotate(0) translate(4 368)">
<title>%3</title>
<polygon fill="none" stroke="none" points="-4,4 -4,-368 1179.5,-368 1179.5,4 -4,4"/>
<!-- 0 -->
<g id="node1" class="node"><title>0</title>
<path fill="#ffd3d3" stroke="black" d="M593.5,-364C593.5,-364 429.5,-364 429.5,-364 423.5,-364 417.5,-358 417.5,-352 417.5,-352 417.5,-338 417.5,-338 417.5,-332 423.5,-326 429.5,-326 429.5,-326 593.5,-326 593.5,-326 599.5,-326 605.5,-332 605.5,-338 605.5,-338 605.5,-352 605.5,-352 605.5,-358 599.5,-364 593.5,-364"/>
<text text-anchor="middle" x="511.5" y="-348.8" font-family="Times,serif" font-size="14.00">net</text>
<text text-anchor="middle" x="511.5" y="-333.8" font-family="Times,serif" font-size="14.00">n kernels: 110 &#160;&#160;pooling type: 0</text>
</g>
<!-- 1 -->
<g id="node2" class="node"><title>1</title>
<path fill="#f6ffd3" stroke="black" d="M494,-290C494,-290 231,-290 231,-290 225,-290 219,-284 219,-278 219,-278 219,-249 219,-249 219,-243 225,-237 231,-237 231,-237 494,-237 494,-237 500,-237 506,-243 506,-249 506,-249 506,-278 506,-278 506,-284 500,-290 494,-290"/>
<text text-anchor="middle" x="362.5" y="-274.8" font-family="Times,serif" font-size="14.00">encoder</text>
<text text-anchor="middle" x="362.5" y="-259.8" font-family="Times,serif" font-size="14.00">log gamma1: 0.390817 &#160;&#160;log gamma2: &#45;0.469383</text>
<text text-anchor="middle" x="362.5" y="-244.8" font-family="Times,serif" font-size="14.00">n kernels: &#45;6</text>
</g>
<!-- 0&#45;&gt;1 -->
<g id="edge1" class="edge"><title>0&#45;&gt;1</title>
<path fill="none" stroke="black" d="M477.69,-325.96C460.415,-316.743 438.931,-305.28 419.212,-294.759"/>
<polygon fill="black" stroke="black" points="420.768,-291.622 410.298,-290.003 417.473,-297.798 420.768,-291.622"/>
</g>
<!-- 2 -->
<g id="node3" class="node"><title>2</title>
<path fill="#f6ffd3" stroke="black" d="M723,-282.5C723,-282.5 598,-282.5 598,-282.5 592,-282.5 586,-276.5 586,-270.5 586,-270.5 586,-256.5 586,-256.5 586,-250.5 592,-244.5 598,-244.5 598,-244.5 723,-244.5 723,-244.5 729,-244.5 735,-250.5 735,-256.5 735,-256.5 735,-270.5 735,-270.5 735,-276.5 729,-282.5 723,-282.5"/>
<text text-anchor="middle" x="660.5" y="-267.3" font-family="Times,serif" font-size="14.00">decoder</text>
<text text-anchor="middle" x="660.5" y="-252.3" font-family="Times,serif" font-size="14.00">log gamma1: &#45;0.086333</text>
</g>
<!-- 0&#45;&gt;2 -->
<g id="edge2" class="edge"><title>0&#45;&gt;2</title>
<path fill="none" stroke="black" d="M545.31,-325.96C566.762,-314.515 594.706,-299.605 617.698,-287.337"/>
<polygon fill="black" stroke="black" points="619.391,-290.401 626.566,-282.606 616.095,-284.225 619.391,-290.401"/>
</g>
<!-- 3 -->
<g id="node4" class="node"><title>3</title>
<path fill="#d3ffe4" stroke="black" d="M144,-192.5C144,-192.5 69,-192.5 69,-192.5 63,-192.5 57,-186.5 57,-180.5 57,-180.5 57,-168.5 57,-168.5 57,-162.5 63,-156.5 69,-156.5 69,-156.5 144,-156.5 144,-156.5 150,-156.5 156,-162.5 156,-168.5 156,-168.5 156,-180.5 156,-180.5 156,-186.5 150,-192.5 144,-192.5"/>
<text text-anchor="middle" x="106.5" y="-170.8" font-family="Times,serif" font-size="14.00">encode block 0</text>
</g>
<!-- 1&#45;&gt;3 -->
<g id="edge3" class="edge"><title>1&#45;&gt;3</title>
<path fill="none" stroke="black" d="M287.421,-236.985C248.717,-223.832 202.178,-208.016 165.994,-195.719"/>
<polygon fill="black" stroke="black" points="166.672,-192.253 156.078,-192.349 164.42,-198.88 166.672,-192.253"/>
</g>
<!-- 4 -->
<g id="node5" class="node"><title>4</title>
<path fill="#bfe6cf" stroke="black" d="M443,-193.5C443,-193.5 282,-193.5 282,-193.5 276,-193.5 270,-187.5 270,-181.5 270,-181.5 270,-167.5 270,-167.5 270,-161.5 276,-155.5 282,-155.5 282,-155.5 443,-155.5 443,-155.5 449,-155.5 455,-161.5 455,-167.5 455,-167.5 455,-181.5 455,-181.5 455,-187.5 449,-193.5 443,-193.5"/>
<text text-anchor="middle" x="362.5" y="-178.3" font-family="Times,serif" font-size="14.00">encode block 1</text>
<text text-anchor="middle" x="362.5" y="-163.3" font-family="Times,serif" font-size="14.00">n kernels: 144 &#160;&#160;spatial scale: 1</text>
</g>
<!-- 1&#45;&gt;4 -->
<g id="edge4" class="edge"><title>1&#45;&gt;4</title>
<path fill="none" stroke="black" d="M362.5,-236.868C362.5,-226.417 362.5,-214.301 362.5,-203.609"/>
<polygon fill="black" stroke="black" points="366,-203.507 362.5,-193.507 359,-203.507 366,-203.507"/>
</g>
<!-- 5 -->
<g id="node6" class="node"><title>5</title>
<path fill="#d3ffe4" stroke="black" d="M734,-201C734,-201 519,-201 519,-201 513,-201 507,-195 507,-189 507,-189 507,-160 507,-160 507,-154 513,-148 519,-148 519,-148 734,-148 734,-148 740,-148 746,-154 746,-160 746,-160 746,-189 746,-189 746,-195 740,-201 734,-201"/>
<text text-anchor="middle" x="626.5" y="-185.8" font-family="Times,serif" font-size="14.00">decode block 2</text>
<text text-anchor="middle" x="626.5" y="-170.8" font-family="Times,serif" font-size="14.00">log gamma1: 0.353043 &#160;&#160;n kernels: 2608</text>
<text text-anchor="middle" x="626.5" y="-155.8" font-family="Times,serif" font-size="14.00">spatial scale: 2</text>
</g>
<!-- 2&#45;&gt;5 -->
<g id="edge5" class="edge"><title>2&#45;&gt;5</title>
<path fill="none" stroke="black" d="M653.455,-244.474C649.626,-234.675 644.756,-222.214 640.212,-210.586"/>
<polygon fill="black" stroke="black" points="643.401,-209.132 636.501,-201.092 636.882,-211.68 643.401,-209.132"/>
</g>
<!-- 6 -->
<g id="node7" class="node"><title>6</title>
<path fill="#bfe6cf" stroke="black" d="M931,-193.5C931,-193.5 776,-193.5 776,-193.5 770,-193.5 764,-187.5 764,-181.5 764,-181.5 764,-167.5 764,-167.5 764,-161.5 770,-155.5 776,-155.5 776,-155.5 931,-155.5 931,-155.5 937,-155.5 943,-161.5 943,-167.5 943,-167.5 943,-181.5 943,-181.5 943,-187.5 937,-193.5 931,-193.5"/>
<text text-anchor="middle" x="853.5" y="-178.3" font-family="Times,serif" font-size="14.00">decode block 1</text>
<text text-anchor="middle" x="853.5" y="-163.3" font-family="Times,serif" font-size="14.00">n kernels: 10 &#160;&#160;spatial scale: 1</text>
</g>
<!-- 2&#45;&gt;6 -->
<g id="edge6" class="edge"><title>2&#45;&gt;6</title>
<path fill="none" stroke="black" d="M700.49,-244.474C730.637,-230.884 772.146,-212.172 804.325,-197.667"/>
<polygon fill="black" stroke="black" points="805.883,-200.804 813.562,-193.503 803.007,-194.422 805.883,-200.804"/>
</g>
<!-- 7 -->
<g id="node8" class="node"><title>7</title>
<path fill="#abceb9" stroke="black" d="M1083,-193.5C1083,-193.5 1008,-193.5 1008,-193.5 1002,-193.5 996,-187.5 996,-181.5 996,-181.5 996,-167.5 996,-167.5 996,-161.5 1002,-155.5 1008,-155.5 1008,-155.5 1083,-155.5 1083,-155.5 1089,-155.5 1095,-161.5 1095,-167.5 1095,-167.5 1095,-181.5 1095,-181.5 1095,-187.5 1089,-193.5 1083,-193.5"/>
<text text-anchor="middle" x="1045.5" y="-178.3" font-family="Times,serif" font-size="14.00">decode block 0</text>
<text text-anchor="middle" x="1045.5" y="-163.3" font-family="Times,serif" font-size="14.00">n kernels: 284</text>
</g>
<!-- 2&#45;&gt;7 -->
<g id="edge7" class="edge"><title>2&#45;&gt;7</title>
<path fill="none" stroke="black" d="M735.219,-247.92C794.156,-236.129 878.336,-218.64 951.5,-201 962.688,-198.302 974.572,-195.237 985.99,-192.189"/>
<polygon fill="black" stroke="black" points="987.13,-195.507 995.875,-189.526 985.309,-188.748 987.13,-195.507"/>
</g>
<!-- 8 -->
<g id="node9" class="node"><title>8</title>
<path fill="#d3e4ff" stroke="black" d="M47.5,-111C47.5,-111 13.5,-111 13.5,-111 7.5,-111 1.5,-105 1.5,-99 1.5,-99 1.5,-87 1.5,-87 1.5,-81 7.5,-75 13.5,-75 13.5,-75 47.5,-75 47.5,-75 53.5,-75 59.5,-81 59.5,-87 59.5,-87 59.5,-99 59.5,-99 59.5,-105 53.5,-111 47.5,-111"/>
<text text-anchor="middle" x="30.5" y="-89.3" font-family="Times,serif" font-size="14.00">comp 0</text>
</g>
<!-- 3&#45;&gt;8 -->
<g id="edge8" class="edge"><title>3&#45;&gt;8</title>
<path fill="none" stroke="black" d="M90.0091,-156.25C79.4524,-145.207 65.5934,-130.71 53.9061,-118.484"/>
<polygon fill="black" stroke="black" points="56.3988,-116.027 46.9587,-111.217 51.3389,-120.864 56.3988,-116.027"/>
</g>
<!-- 9 -->
<g id="node10" class="node"><title>9</title>
<path fill="#bfcfe6" stroke="black" d="M123.5,-111C123.5,-111 89.5,-111 89.5,-111 83.5,-111 77.5,-105 77.5,-99 77.5,-99 77.5,-87 77.5,-87 77.5,-81 83.5,-75 89.5,-75 89.5,-75 123.5,-75 123.5,-75 129.5,-75 135.5,-81 135.5,-87 135.5,-87 135.5,-99 135.5,-99 135.5,-105 129.5,-111 123.5,-111"/>
<text text-anchor="middle" x="106.5" y="-89.3" font-family="Times,serif" font-size="14.00">comp 1</text>
</g>
<!-- 3&#45;&gt;9 -->
<g id="edge9" class="edge"><title>3&#45;&gt;9</title>
<path fill="none" stroke="black" d="M106.5,-156.25C106.5,-146.04 106.5,-132.878 106.5,-121.288"/>
<polygon fill="black" stroke="black" points="110,-121.217 106.5,-111.217 103,-121.217 110,-121.217"/>
</g>
<!-- 10 -->
<g id="node11" class="node"><title>10</title>
<path fill="#d3e4ff" stroke="black" d="M285.5,-112C285.5,-112 165.5,-112 165.5,-112 159.5,-112 153.5,-106 153.5,-100 153.5,-100 153.5,-86 153.5,-86 153.5,-80 159.5,-74 165.5,-74 165.5,-74 285.5,-74 285.5,-74 291.5,-74 297.5,-80 297.5,-86 297.5,-86 297.5,-100 297.5,-100 297.5,-106 291.5,-112 285.5,-112"/>
<text text-anchor="middle" x="225.5" y="-96.8" font-family="Times,serif" font-size="14.00">comp 0</text>
<text text-anchor="middle" x="225.5" y="-81.8" font-family="Times,serif" font-size="14.00">log gamma1: 0.048816</text>
</g>
<!-- 4&#45;&gt;10 -->
<g id="edge10" class="edge"><title>4&#45;&gt;10</title>
<path fill="none" stroke="black" d="M331.413,-155.46C311.932,-144.156 286.629,-129.473 265.64,-117.293"/>
<polygon fill="black" stroke="black" points="267.345,-114.235 256.939,-112.244 263.831,-120.29 267.345,-114.235"/>
</g>
<!-- 11 -->
<g id="node12" class="node"><title>11</title>
<path fill="#bfcfe6" stroke="black" d="M533.5,-112C533.5,-112 327.5,-112 327.5,-112 321.5,-112 315.5,-106 315.5,-100 315.5,-100 315.5,-86 315.5,-86 315.5,-80 321.5,-74 327.5,-74 327.5,-74 533.5,-74 533.5,-74 539.5,-74 545.5,-80 545.5,-86 545.5,-86 545.5,-100 545.5,-100 545.5,-106 539.5,-112 533.5,-112"/>
<text text-anchor="middle" x="430.5" y="-96.8" font-family="Times,serif" font-size="14.00">comp 1</text>
<text text-anchor="middle" x="430.5" y="-81.8" font-family="Times,serif" font-size="14.00">log gamma1: &#45;0.070508 &#160;&#160;n kernels: 10</text>
</g>
<!-- 4&#45;&gt;11 -->
<g id="edge11" class="edge"><title>4&#45;&gt;11</title>
<path fill="none" stroke="black" d="M377.93,-155.46C386.909,-144.964 398.379,-131.553 408.313,-119.939"/>
<polygon fill="black" stroke="black" points="411.055,-122.118 414.895,-112.244 405.736,-117.568 411.055,-122.118"/>
</g>
<!-- 12 -->
<g id="node13" class="node"><title>12</title>
<path fill="#d3e4ff" stroke="black" d="M609.5,-111C609.5,-111 575.5,-111 575.5,-111 569.5,-111 563.5,-105 563.5,-99 563.5,-99 563.5,-87 563.5,-87 563.5,-81 569.5,-75 575.5,-75 575.5,-75 609.5,-75 609.5,-75 615.5,-75 621.5,-81 621.5,-87 621.5,-87 621.5,-99 621.5,-99 621.5,-105 615.5,-111 609.5,-111"/>
<text text-anchor="middle" x="592.5" y="-89.3" font-family="Times,serif" font-size="14.00">comp 0</text>
</g>
<!-- 5&#45;&gt;12 -->
<g id="edge12" class="edge"><title>5&#45;&gt;12</title>
<path fill="none" stroke="black" d="M615.555,-147.908C611.831,-139.201 607.662,-129.452 603.903,-120.664"/>
<polygon fill="black" stroke="black" points="607.03,-119.075 599.88,-111.256 600.594,-121.827 607.03,-119.075"/>
</g>
<!-- 13 -->
<g id="node14" class="node"><title>13</title>
<path fill="#bfcfe6" stroke="black" d="M685.5,-111C685.5,-111 651.5,-111 651.5,-111 645.5,-111 639.5,-105 639.5,-99 639.5,-99 639.5,-87 639.5,-87 639.5,-81 645.5,-75 651.5,-75 651.5,-75 685.5,-75 685.5,-75 691.5,-75 697.5,-81 697.5,-87 697.5,-87 697.5,-99 697.5,-99 697.5,-105 691.5,-111 685.5,-111"/>
<text text-anchor="middle" x="668.5" y="-89.3" font-family="Times,serif" font-size="14.00">comp 1</text>
</g>
<!-- 5&#45;&gt;13 -->
<g id="edge13" class="edge"><title>5&#45;&gt;13</title>
<path fill="none" stroke="black" d="M640.02,-147.908C644.669,-139.108 649.881,-129.243 654.563,-120.381"/>
<polygon fill="black" stroke="black" points="657.807,-121.733 659.383,-111.256 651.617,-118.463 657.807,-121.733"/>
</g>
<!-- 14 -->
<g id="node15" class="node"><title>14</title>
<path fill="#d3e4ff" stroke="black" d="M804.5,-111C804.5,-111 770.5,-111 770.5,-111 764.5,-111 758.5,-105 758.5,-99 758.5,-99 758.5,-87 758.5,-87 758.5,-81 764.5,-75 770.5,-75 770.5,-75 804.5,-75 804.5,-75 810.5,-75 816.5,-81 816.5,-87 816.5,-87 816.5,-99 816.5,-99 816.5,-105 810.5,-111 804.5,-111"/>
<text text-anchor="middle" x="787.5" y="-89.3" font-family="Times,serif" font-size="14.00">comp 0</text>
</g>
<!-- 6&#45;&gt;14 -->
<g id="edge14" class="edge"><title>6&#45;&gt;14</title>
<path fill="none" stroke="black" d="M838.524,-155.46C829.562,-144.666 818.043,-130.79 808.218,-118.955"/>
<polygon fill="black" stroke="black" points="810.819,-116.609 801.738,-111.151 805.433,-121.081 810.819,-116.609"/>
</g>
<!-- 15 -->
<g id="node16" class="node"><title>15</title>
<path fill="#bfcfe6" stroke="black" d="M966.5,-112C966.5,-112 846.5,-112 846.5,-112 840.5,-112 834.5,-106 834.5,-100 834.5,-100 834.5,-86 834.5,-86 834.5,-80 840.5,-74 846.5,-74 846.5,-74 966.5,-74 966.5,-74 972.5,-74 978.5,-80 978.5,-86 978.5,-86 978.5,-100 978.5,-100 978.5,-106 972.5,-112 966.5,-112"/>
<text text-anchor="middle" x="906.5" y="-96.8" font-family="Times,serif" font-size="14.00">comp 1</text>
<text text-anchor="middle" x="906.5" y="-81.8" font-family="Times,serif" font-size="14.00">log gamma1: 0.478819</text>
</g>
<!-- 6&#45;&gt;15 -->
<g id="edge15" class="edge"><title>6&#45;&gt;15</title>
<path fill="none" stroke="black" d="M865.527,-155.46C872.39,-145.165 881.121,-132.068 888.759,-120.611"/>
<polygon fill="black" stroke="black" points="891.703,-122.506 894.338,-112.244 885.878,-118.623 891.703,-122.506"/>
</g>
<!-- 16 -->
<g id="node17" class="node"><title>16</title>
<path fill="#d3e4ff" stroke="black" d="M1062.5,-111C1062.5,-111 1028.5,-111 1028.5,-111 1022.5,-111 1016.5,-105 1016.5,-99 1016.5,-99 1016.5,-87 1016.5,-87 1016.5,-81 1022.5,-75 1028.5,-75 1028.5,-75 1062.5,-75 1062.5,-75 1068.5,-75 1074.5,-81 1074.5,-87 1074.5,-87 1074.5,-99 1074.5,-99 1074.5,-105 1068.5,-111 1062.5,-111"/>
<text text-anchor="middle" x="1045.5" y="-89.3" font-family="Times,serif" font-size="14.00">comp 0</text>
</g>
<!-- 7&#45;&gt;16 -->
<g id="edge16" class="edge"><title>7&#45;&gt;16</title>
<path fill="none" stroke="black" d="M1045.5,-155.46C1045.5,-145.392 1045.5,-132.644 1045.5,-121.371"/>
<polygon fill="black" stroke="black" points="1049,-121.151 1045.5,-111.151 1042,-121.151 1049,-121.151"/>
</g>
<!-- 17 -->
<g id="node18" class="node"><title>17</title>
<path fill="#bfcfe6" stroke="black" d="M1149.5,-111C1149.5,-111 1115.5,-111 1115.5,-111 1109.5,-111 1103.5,-105 1103.5,-99 1103.5,-99 1103.5,-87 1103.5,-87 1103.5,-81 1109.5,-75 1115.5,-75 1115.5,-75 1149.5,-75 1149.5,-75 1155.5,-75 1161.5,-81 1161.5,-87 1161.5,-87 1161.5,-99 1161.5,-99 1161.5,-105 1155.5,-111 1149.5,-111"/>
<text text-anchor="middle" x="1132.5" y="-89.3" font-family="Times,serif" font-size="14.00">comp 1</text>
</g>
<!-- 7&#45;&gt;17 -->
<g id="edge17" class="edge"><title>7&#45;&gt;17</title>
<path fill="none" stroke="black" d="M1065.24,-155.46C1077.4,-144.354 1093.12,-129.987 1106.31,-117.936"/>
<polygon fill="black" stroke="black" points="1108.71,-120.48 1113.73,-111.151 1103.99,-115.313 1108.71,-120.48"/>
</g>
<!-- 18 -->
<g id="node19" class="node"><title>18</title>
<path fill="#f6d3ff" stroke="black" d="M47,-38C47,-38 12,-38 12,-38 6,-38 0,-32 0,-26 0,-26 0,-12 0,-12 0,-6 6,-0 12,-0 12,-0 47,-0 47,-0 53,-0 59,-6 59,-12 59,-12 59,-26 59,-26 59,-32 53,-38 47,-38"/>
<text text-anchor="middle" x="29.5" y="-22.8" font-family="Times,serif" font-size="14.00">forward</text>
<text text-anchor="middle" x="29.5" y="-7.8" font-family="Times,serif" font-size="14.00">input</text>
</g>
<!-- 8&#45;&gt;18 -->
<g id="edge18" class="edge"><title>8&#45;&gt;18</title>
<path fill="none" stroke="black" d="M30.263,-74.937C30.1526,-66.9865 30.0182,-57.3134 29.8932,-48.3127"/>
<polygon fill="black" stroke="black" points="33.3914,-48.1496 29.7528,-38.1992 26.3921,-48.2468 33.3914,-48.1496"/>
</g>
<!-- 19 -->
<g id="node20" class="node"><title>19</title>
<path fill="#f6d3ff" stroke="black" d="M125.5,-38C125.5,-38 89.5,-38 89.5,-38 83.5,-38 77.5,-32 77.5,-26 77.5,-26 77.5,-12 77.5,-12 77.5,-6 83.5,-0 89.5,-0 89.5,-0 125.5,-0 125.5,-0 131.5,-0 137.5,-6 137.5,-12 137.5,-12 137.5,-26 137.5,-26 137.5,-32 131.5,-38 125.5,-38"/>
<text text-anchor="middle" x="107.5" y="-22.8" font-family="Times,serif" font-size="14.00">forward</text>
<text text-anchor="middle" x="107.5" y="-7.8" font-family="Times,serif" font-size="14.00">EB0/C0</text>
</g>
<!-- 9&#45;&gt;19 -->
<g id="edge19" class="edge"><title>9&#45;&gt;19</title>
<path fill="none" stroke="black" d="M106.737,-74.937C106.847,-66.9865 106.982,-57.3134 107.107,-48.3127"/>
<polygon fill="black" stroke="black" points="110.608,-48.2468 107.247,-38.1992 103.609,-48.1496 110.608,-48.2468"/>
</g>
<!-- 20 -->
<g id="node21" class="node"><title>20</title>
<path fill="#f6d3ff" stroke="black" d="M243.5,-38C243.5,-38 207.5,-38 207.5,-38 201.5,-38 195.5,-32 195.5,-26 195.5,-26 195.5,-12 195.5,-12 195.5,-6 201.5,-0 207.5,-0 207.5,-0 243.5,-0 243.5,-0 249.5,-0 255.5,-6 255.5,-12 255.5,-12 255.5,-26 255.5,-26 255.5,-32 249.5,-38 243.5,-38"/>
<text text-anchor="middle" x="225.5" y="-22.8" font-family="Times,serif" font-size="14.00">forward</text>
<text text-anchor="middle" x="225.5" y="-7.8" font-family="Times,serif" font-size="14.00">EB0/C1</text>
</g>
<!-- 10&#45;&gt;20 -->
<g id="edge20" class="edge"><title>10&#45;&gt;20</title>
<path fill="none" stroke="black" d="M225.5,-73.8314C225.5,-66.131 225.5,-56.9743 225.5,-48.4166"/>
<polygon fill="black" stroke="black" points="229,-48.4132 225.5,-38.4133 222,-48.4133 229,-48.4132"/>
</g>
<!-- 21 -->
<g id="node22" class="node"><title>21</title>
<path fill="#f6d3ff" stroke="black" d="M448.5,-38C448.5,-38 412.5,-38 412.5,-38 406.5,-38 400.5,-32 400.5,-26 400.5,-26 400.5,-12 400.5,-12 400.5,-6 406.5,-0 412.5,-0 412.5,-0 448.5,-0 448.5,-0 454.5,-0 460.5,-6 460.5,-12 460.5,-12 460.5,-26 460.5,-26 460.5,-32 454.5,-38 448.5,-38"/>
<text text-anchor="middle" x="430.5" y="-22.8" font-family="Times,serif" font-size="14.00">forward</text>
<text text-anchor="middle" x="430.5" y="-7.8" font-family="Times,serif" font-size="14.00">EB1/C0</text>
</g>
<!-- 11&#45;&gt;21 -->
<g id="edge21" class="edge"><title>11&#45;&gt;21</title>
<path fill="none" stroke="black" d="M430.5,-73.8314C430.5,-66.131 430.5,-56.9743 430.5,-48.4166"/>
<polygon fill="black" stroke="black" points="434,-48.4132 430.5,-38.4133 427,-48.4133 434,-48.4132"/>
</g>
<!-- 22 -->
<g id="node23" class="node"><title>22</title>
<path fill="#f6d3ff" stroke="black" d="M607.5,-38C607.5,-38 571.5,-38 571.5,-38 565.5,-38 559.5,-32 559.5,-26 559.5,-26 559.5,-12 559.5,-12 559.5,-6 565.5,-0 571.5,-0 571.5,-0 607.5,-0 607.5,-0 613.5,-0 619.5,-6 619.5,-12 619.5,-12 619.5,-26 619.5,-26 619.5,-32 613.5,-38 607.5,-38"/>
<text text-anchor="middle" x="589.5" y="-22.8" font-family="Times,serif" font-size="14.00">forward</text>
<text text-anchor="middle" x="589.5" y="-7.8" font-family="Times,serif" font-size="14.00">EB1/C1</text>
</g>
<!-- 12&#45;&gt;22 -->
<g id="edge22" class="edge"><title>12&#45;&gt;22</title>
<path fill="none" stroke="black" d="M591.789,-74.937C591.458,-66.9865 591.055,-57.3134 590.68,-48.3127"/>
<polygon fill="black" stroke="black" points="594.172,-48.0448 590.258,-38.1992 587.178,-48.3362 594.172,-48.0448"/>
</g>
<!-- 23 -->
<g id="node24" class="node"><title>23</title>
<path fill="#f6d3ff" stroke="black" d="M687.5,-38C687.5,-38 649.5,-38 649.5,-38 643.5,-38 637.5,-32 637.5,-26 637.5,-26 637.5,-12 637.5,-12 637.5,-6 643.5,-0 649.5,-0 649.5,-0 687.5,-0 687.5,-0 693.5,-0 699.5,-6 699.5,-12 699.5,-12 699.5,-26 699.5,-26 699.5,-32 693.5,-38 687.5,-38"/>
<text text-anchor="middle" x="668.5" y="-22.8" font-family="Times,serif" font-size="14.00">forward</text>
<text text-anchor="middle" x="668.5" y="-7.8" font-family="Times,serif" font-size="14.00">DB2/C0</text>
</g>
<!-- 13&#45;&gt;23 -->
<g id="edge23" class="edge"><title>13&#45;&gt;23</title>
<path fill="none" stroke="black" d="M668.5,-74.937C668.5,-66.9865 668.5,-57.3134 668.5,-48.3127"/>
<polygon fill="black" stroke="black" points="672,-48.1991 668.5,-38.1992 665,-48.1992 672,-48.1991"/>
</g>
<!-- 24 -->
<g id="node25" class="node"><title>24</title>
<path fill="#f6d3ff" stroke="black" d="M767.5,-38C767.5,-38 729.5,-38 729.5,-38 723.5,-38 717.5,-32 717.5,-26 717.5,-26 717.5,-12 717.5,-12 717.5,-6 723.5,-0 729.5,-0 729.5,-0 767.5,-0 767.5,-0 773.5,-0 779.5,-6 779.5,-12 779.5,-12 779.5,-26 779.5,-26 779.5,-32 773.5,-38 767.5,-38"/>
<text text-anchor="middle" x="748.5" y="-22.8" font-family="Times,serif" font-size="14.00">forward</text>
<text text-anchor="middle" x="748.5" y="-7.8" font-family="Times,serif" font-size="14.00">DB2/C1</text>
</g>
<!-- 14&#45;&gt;24 -->
<g id="edge24" class="edge"><title>14&#45;&gt;24</title>
<path fill="none" stroke="black" d="M778.258,-74.937C773.764,-66.6409 768.254,-56.469 763.202,-47.1428"/>
<polygon fill="black" stroke="black" points="766.198,-45.3251 758.358,-38.1992 760.043,-48.6591 766.198,-45.3251"/>
</g>
<!-- 25 -->
<g id="node26" class="node"><title>25</title>
<path fill="#debfe6" stroke="black" d="M845.5,-38C845.5,-38 809.5,-38 809.5,-38 803.5,-38 797.5,-32 797.5,-26 797.5,-26 797.5,-12 797.5,-12 797.5,-6 803.5,-0 809.5,-0 809.5,-0 845.5,-0 845.5,-0 851.5,-0 857.5,-6 857.5,-12 857.5,-12 857.5,-26 857.5,-26 857.5,-32 851.5,-38 845.5,-38"/>
<text text-anchor="middle" x="827.5" y="-22.8" font-family="Times,serif" font-size="14.00">merge</text>
<text text-anchor="middle" x="827.5" y="-7.8" font-family="Times,serif" font-size="14.00">EB1/C1</text>
</g>
<!-- 14&#45;&gt;25 -->
<g id="edge25" class="edge"><title>14&#45;&gt;25</title>
<path fill="none" stroke="black" d="M796.979,-74.937C801.588,-66.6409 807.239,-56.469 812.421,-47.1428"/>
<polygon fill="black" stroke="black" points="815.592,-48.6405 817.389,-38.1992 809.473,-45.241 815.592,-48.6405"/>
</g>
<!-- 26 -->
<g id="node27" class="node"><title>26</title>
<path fill="#f6d3ff" stroke="black" d="M925.5,-38C925.5,-38 887.5,-38 887.5,-38 881.5,-38 875.5,-32 875.5,-26 875.5,-26 875.5,-12 875.5,-12 875.5,-6 881.5,-0 887.5,-0 887.5,-0 925.5,-0 925.5,-0 931.5,-0 937.5,-6 937.5,-12 937.5,-12 937.5,-26 937.5,-26 937.5,-32 931.5,-38 925.5,-38"/>
<text text-anchor="middle" x="906.5" y="-22.8" font-family="Times,serif" font-size="14.00">forward</text>
<text text-anchor="middle" x="906.5" y="-7.8" font-family="Times,serif" font-size="14.00">DB1/C0</text>
</g>
<!-- 15&#45;&gt;26 -->
<g id="edge26" class="edge"><title>15&#45;&gt;26</title>
<path fill="none" stroke="black" d="M906.5,-73.8314C906.5,-66.131 906.5,-56.9743 906.5,-48.4166"/>
<polygon fill="black" stroke="black" points="910,-48.4132 906.5,-38.4133 903,-48.4133 910,-48.4132"/>
</g>
<!-- 27 -->
<g id="node28" class="node"><title>27</title>
<path fill="#f6d3ff" stroke="black" d="M1005.5,-38C1005.5,-38 967.5,-38 967.5,-38 961.5,-38 955.5,-32 955.5,-26 955.5,-26 955.5,-12 955.5,-12 955.5,-6 961.5,-0 967.5,-0 967.5,-0 1005.5,-0 1005.5,-0 1011.5,-0 1017.5,-6 1017.5,-12 1017.5,-12 1017.5,-26 1017.5,-26 1017.5,-32 1011.5,-38 1005.5,-38"/>
<text text-anchor="middle" x="986.5" y="-22.8" font-family="Times,serif" font-size="14.00">forward</text>
<text text-anchor="middle" x="986.5" y="-7.8" font-family="Times,serif" font-size="14.00">DB1/C1</text>
</g>
<!-- 16&#45;&gt;27 -->
<g id="edge27" class="edge"><title>16&#45;&gt;27</title>
<path fill="none" stroke="black" d="M1031.52,-74.937C1024.44,-66.2952 1015.69,-55.6181 1007.79,-45.9816"/>
<polygon fill="black" stroke="black" points="1010.46,-43.7156 1001.41,-38.1992 1005.04,-48.1524 1010.46,-43.7156"/>
</g>
<!-- 28 -->
<g id="node29" class="node"><title>28</title>
<path fill="#debfe6" stroke="black" d="M1083.5,-38C1083.5,-38 1047.5,-38 1047.5,-38 1041.5,-38 1035.5,-32 1035.5,-26 1035.5,-26 1035.5,-12 1035.5,-12 1035.5,-6 1041.5,-0 1047.5,-0 1047.5,-0 1083.5,-0 1083.5,-0 1089.5,-0 1095.5,-6 1095.5,-12 1095.5,-12 1095.5,-26 1095.5,-26 1095.5,-32 1089.5,-38 1083.5,-38"/>
<text text-anchor="middle" x="1065.5" y="-22.8" font-family="Times,serif" font-size="14.00">merge</text>
<text text-anchor="middle" x="1065.5" y="-7.8" font-family="Times,serif" font-size="14.00">EB0/C1</text>
</g>
<!-- 16&#45;&gt;28 -->
<g id="edge28" class="edge"><title>16&#45;&gt;28</title>
<path fill="none" stroke="black" d="M1050.24,-74.937C1052.47,-66.9001 1055.19,-57.1029 1057.72,-48.0195"/>
<polygon fill="black" stroke="black" points="1061.14,-48.7711 1060.44,-38.1992 1054.4,-46.8976 1061.14,-48.7711"/>
</g>
<!-- 29 -->
<g id="node30" class="node"><title>29</title>
<path fill="#f6d3ff" stroke="black" d="M1163.5,-38C1163.5,-38 1125.5,-38 1125.5,-38 1119.5,-38 1113.5,-32 1113.5,-26 1113.5,-26 1113.5,-12 1113.5,-12 1113.5,-6 1119.5,-0 1125.5,-0 1125.5,-0 1163.5,-0 1163.5,-0 1169.5,-0 1175.5,-6 1175.5,-12 1175.5,-12 1175.5,-26 1175.5,-26 1175.5,-32 1169.5,-38 1163.5,-38"/>
<text text-anchor="middle" x="1144.5" y="-22.8" font-family="Times,serif" font-size="14.00">forward</text>
<text text-anchor="middle" x="1144.5" y="-7.8" font-family="Times,serif" font-size="14.00">DB0/C0</text>
</g>
<!-- 17&#45;&gt;29 -->
<g id="edge29" class="edge"><title>17&#45;&gt;29</title>
<path fill="none" stroke="black" d="M1135.34,-74.937C1136.67,-66.9865 1138.28,-57.3134 1139.78,-48.3127"/>
<polygon fill="black" stroke="black" points="1143.28,-48.6385 1141.47,-38.1992 1136.37,-47.4877 1143.28,-48.6385"/>
</g>
</g>
</svg>
