<?xml version="1.0" encoding="UTF-8" standalone="no"?>
<!DOCTYPE svg PUBLIC "-//W3C//DTD SVG 1.1//EN"
 "http://www.w3.org/Graphics/SVG/1.1/DTD/svg11.dtd">
<!-- Generated by graphviz version 2.38.0 (20140413.2041)
 -->
<!-- Title: %3 Pages: 1 -->
<svg width="5695pt" height="418pt"
 viewBox="0.00 0.00 5695.00 418.00" xmlns="http://www.w3.org/2000/svg" xmlns:xlink="http://www.w3.org/1999/xlink">
<g id="graph0" class="graph" transform="scale(1 1) rotate(0) translate(4 414)">
<title>%3</title>
<polygon fill="none" stroke="none" points="-4,4 -4,-414 5691,-414 5691,4 -4,4"/>
<!-- 0 -->
<g id="node1" class="node"><title>0</title>
<path fill="#ffd3d3" stroke="black" d="M3478,-410C3478,-410 3287,-410 3287,-410 3281,-410 3275,-404 3275,-398 3275,-398 3275,-369 3275,-369 3275,-363 3281,-357 3287,-357 3287,-357 3478,-357 3478,-357 3484,-357 3490,-363 3490,-369 3490,-369 3490,-398 3490,-398 3490,-404 3484,-410 3478,-410"/>
<text text-anchor="middle" x="3382.5" y="-394.8" font-family="Times,serif" font-size="14.00">net</text>
<text text-anchor="middle" x="3382.5" y="-379.8" font-family="Times,serif" font-size="14.00">k width: 3 &#160;&#160;log gamma2: &#45;5.290608</text>
<text text-anchor="middle" x="3382.5" y="-364.8" font-family="Times,serif" font-size="14.00">n kernels: 88</text>
</g>
<!-- 1 -->
<g id="node2" class="node"><title>1</title>
<path fill="#e9ffd3" stroke="black" d="M1043.5,-313.5C1043.5,-313.5 839.5,-313.5 839.5,-313.5 833.5,-313.5 827.5,-307.5 827.5,-301.5 827.5,-301.5 827.5,-287.5 827.5,-287.5 827.5,-281.5 833.5,-275.5 839.5,-275.5 839.5,-275.5 1043.5,-275.5 1043.5,-275.5 1049.5,-275.5 1055.5,-281.5 1055.5,-287.5 1055.5,-287.5 1055.5,-301.5 1055.5,-301.5 1055.5,-307.5 1049.5,-313.5 1043.5,-313.5"/>
<text text-anchor="middle" x="941.5" y="-298.3" font-family="Times,serif" font-size="14.00">conv block 0</text>
<text text-anchor="middle" x="941.5" y="-283.3" font-family="Times,serif" font-size="14.00">log gamma1: &#45;0.916899 &#160;&#160;n kernels: &#45;7</text>
</g>
<!-- 0&#45;&gt;1 -->
<g id="edge1" class="edge"><title>0&#45;&gt;1</title>
<path fill="none" stroke="black" d="M3274.86,-378.664C2876.93,-364.481 1490.17,-315.055 1065.84,-299.931"/>
<polygon fill="black" stroke="black" points="1065.81,-296.428 1055.69,-299.57 1065.56,-303.424 1065.81,-296.428"/>
</g>
<!-- 2 -->
<g id="node3" class="node"><title>2</title>
<path fill="#e9ffd3" stroke="black" d="M2796.5,-321C2796.5,-321 2676.5,-321 2676.5,-321 2670.5,-321 2664.5,-315 2664.5,-309 2664.5,-309 2664.5,-280 2664.5,-280 2664.5,-274 2670.5,-268 2676.5,-268 2676.5,-268 2796.5,-268 2796.5,-268 2802.5,-268 2808.5,-274 2808.5,-280 2808.5,-280 2808.5,-309 2808.5,-309 2808.5,-315 2802.5,-321 2796.5,-321"/>
<text text-anchor="middle" x="2736.5" y="-305.8" font-family="Times,serif" font-size="14.00">conv block 1</text>
<text text-anchor="middle" x="2736.5" y="-290.8" font-family="Times,serif" font-size="14.00">n kernels: &#45;8 &#160;&#160;pool z: 1</text>
<text text-anchor="middle" x="2736.5" y="-275.8" font-family="Times,serif" font-size="14.00">spatial scale: 1</text>
</g>
<!-- 0&#45;&gt;2 -->
<g id="edge2" class="edge"><title>0&#45;&gt;2</title>
<path fill="none" stroke="black" d="M3274.74,-367.987C3146.5,-350.717 2935.2,-322.261 2819.17,-306.634"/>
<polygon fill="black" stroke="black" points="2819.31,-303.12 2808.93,-305.254 2818.37,-310.058 2819.31,-303.12"/>
</g>
<!-- 3 -->
<g id="node4" class="node"><title>3</title>
<path fill="#e9ffd3" stroke="black" d="M4169,-313.5C4169,-313.5 4008,-313.5 4008,-313.5 4002,-313.5 3996,-307.5 3996,-301.5 3996,-301.5 3996,-287.5 3996,-287.5 3996,-281.5 4002,-275.5 4008,-275.5 4008,-275.5 4169,-275.5 4169,-275.5 4175,-275.5 4181,-281.5 4181,-287.5 4181,-287.5 4181,-301.5 4181,-301.5 4181,-307.5 4175,-313.5 4169,-313.5"/>
<text text-anchor="middle" x="4088.5" y="-298.3" font-family="Times,serif" font-size="14.00">conv block 2</text>
<text text-anchor="middle" x="4088.5" y="-283.3" font-family="Times,serif" font-size="14.00">n kernels: 264 &#160;&#160;spatial scale: 2</text>
</g>
<!-- 0&#45;&gt;3 -->
<g id="edge3" class="edge"><title>0&#45;&gt;3</title>
<path fill="none" stroke="black" d="M3490.11,-369.239C3624.7,-352.654 3853.48,-324.461 3985.75,-308.161"/>
<polygon fill="black" stroke="black" points="3986.39,-311.609 3995.89,-306.912 3985.54,-304.662 3986.39,-311.609"/>
</g>
<!-- 4 -->
<g id="node5" class="node"><title>4</title>
<path fill="#e9ffd3" stroke="black" d="M5083,-312.5C5083,-312.5 5016,-312.5 5016,-312.5 5010,-312.5 5004,-306.5 5004,-300.5 5004,-300.5 5004,-288.5 5004,-288.5 5004,-282.5 5010,-276.5 5016,-276.5 5016,-276.5 5083,-276.5 5083,-276.5 5089,-276.5 5095,-282.5 5095,-288.5 5095,-288.5 5095,-300.5 5095,-300.5 5095,-306.5 5089,-312.5 5083,-312.5"/>
<text text-anchor="middle" x="5049.5" y="-290.8" font-family="Times,serif" font-size="14.00">path combine</text>
</g>
<!-- 0&#45;&gt;4 -->
<g id="edge4" class="edge"><title>0&#45;&gt;4</title>
<path fill="none" stroke="black" d="M3490.27,-376.875C3811.28,-360.122 4753.67,-310.939 4993.48,-298.424"/>
<polygon fill="black" stroke="black" points="4993.9,-301.907 5003.7,-297.89 4993.53,-294.916 4993.9,-301.907"/>
</g>
<!-- 5 -->
<g id="node6" class="node"><title>5</title>
<path fill="#d3ffff" stroke="black" d="M389.5,-202C389.5,-202 185.5,-202 185.5,-202 179.5,-202 173.5,-196 173.5,-190 173.5,-190 173.5,-176 173.5,-176 173.5,-170 179.5,-164 185.5,-164 185.5,-164 389.5,-164 389.5,-164 395.5,-164 401.5,-170 401.5,-176 401.5,-176 401.5,-190 401.5,-190 401.5,-196 395.5,-202 389.5,-202"/>
<text text-anchor="middle" x="287.5" y="-186.8" font-family="Times,serif" font-size="14.00">comp 0</text>
<text text-anchor="middle" x="287.5" y="-171.8" font-family="Times,serif" font-size="14.00">log gamma1: &#45;1.148556 &#160;&#160;n kernels: &#45;1</text>
</g>
<!-- 1&#45;&gt;5 -->
<g id="edge5" class="edge"><title>1&#45;&gt;5</title>
<path fill="none" stroke="black" d="M827.411,-276.704C748.213,-264.819 640.316,-248.179 545.5,-232 494.347,-223.271 437.64,-212.808 390.448,-203.882"/>
<polygon fill="black" stroke="black" points="391.004,-200.425 380.527,-202.001 389.7,-207.303 391.004,-200.425"/>
</g>
<!-- 6 -->
<g id="node7" class="node"><title>6</title>
<path fill="#bfe6e6" stroke="black" d="M634.5,-202C634.5,-202 566.5,-202 566.5,-202 560.5,-202 554.5,-196 554.5,-190 554.5,-190 554.5,-176 554.5,-176 554.5,-170 560.5,-164 566.5,-164 566.5,-164 634.5,-164 634.5,-164 640.5,-164 646.5,-170 646.5,-176 646.5,-176 646.5,-190 646.5,-190 646.5,-196 640.5,-202 634.5,-202"/>
<text text-anchor="middle" x="600.5" y="-186.8" font-family="Times,serif" font-size="14.00">comp 1</text>
<text text-anchor="middle" x="600.5" y="-171.8" font-family="Times,serif" font-size="14.00">n kernels: &#45;13</text>
</g>
<!-- 1&#45;&gt;6 -->
<g id="edge6" class="edge"><title>1&#45;&gt;6</title>
<path fill="none" stroke="black" d="M885.191,-275.418C821.896,-255.093 719.743,-222.291 656.553,-201.999"/>
<polygon fill="black" stroke="black" points="657.349,-198.579 646.758,-198.854 655.209,-205.244 657.349,-198.579"/>
</g>
<!-- 7 -->
<g id="node8" class="node"><title>7</title>
<path fill="#abcece" stroke="black" d="M869.5,-202C869.5,-202 801.5,-202 801.5,-202 795.5,-202 789.5,-196 789.5,-190 789.5,-190 789.5,-176 789.5,-176 789.5,-170 795.5,-164 801.5,-164 801.5,-164 869.5,-164 869.5,-164 875.5,-164 881.5,-170 881.5,-176 881.5,-176 881.5,-190 881.5,-190 881.5,-196 875.5,-202 869.5,-202"/>
<text text-anchor="middle" x="835.5" y="-186.8" font-family="Times,serif" font-size="14.00">comp 2</text>
<text text-anchor="middle" x="835.5" y="-171.8" font-family="Times,serif" font-size="14.00">n kernels: &#45;18</text>
</g>
<!-- 1&#45;&gt;7 -->
<g id="edge7" class="edge"><title>1&#45;&gt;7</title>
<path fill="none" stroke="black" d="M923.996,-275.418C906.581,-257.428 879.703,-229.662 860.136,-209.449"/>
<polygon fill="black" stroke="black" points="862.5,-206.859 853.03,-202.109 857.47,-211.728 862.5,-206.859"/>
</g>
<!-- 8 -->
<g id="node9" class="node"><title>8</title>
<path fill="#97b6b6" stroke="black" d="M1145,-202C1145,-202 950,-202 950,-202 944,-202 938,-196 938,-190 938,-190 938,-176 938,-176 938,-170 944,-164 950,-164 950,-164 1145,-164 1145,-164 1151,-164 1157,-170 1157,-176 1157,-176 1157,-190 1157,-190 1157,-196 1151,-202 1145,-202"/>
<text text-anchor="middle" x="1047.5" y="-186.8" font-family="Times,serif" font-size="14.00">comp 3</text>
<text text-anchor="middle" x="1047.5" y="-171.8" font-family="Times,serif" font-size="14.00">log gamma1: 1.398314 &#160;&#160;n kernels: 9</text>
</g>
<!-- 1&#45;&gt;8 -->
<g id="edge8" class="edge"><title>1&#45;&gt;8</title>
<path fill="none" stroke="black" d="M959.004,-275.418C976.419,-257.428 1003.3,-229.662 1022.86,-209.449"/>
<polygon fill="black" stroke="black" points="1025.53,-211.728 1029.97,-202.109 1020.5,-206.859 1025.53,-211.728"/>
</g>
<!-- 9 -->
<g id="node10" class="node"><title>9</title>
<path fill="#839e9e" stroke="black" d="M1406.5,-202C1406.5,-202 1286.5,-202 1286.5,-202 1280.5,-202 1274.5,-196 1274.5,-190 1274.5,-190 1274.5,-176 1274.5,-176 1274.5,-170 1280.5,-164 1286.5,-164 1286.5,-164 1406.5,-164 1406.5,-164 1412.5,-164 1418.5,-170 1418.5,-176 1418.5,-176 1418.5,-190 1418.5,-190 1418.5,-196 1412.5,-202 1406.5,-202"/>
<text text-anchor="middle" x="1346.5" y="-186.8" font-family="Times,serif" font-size="14.00">comp 4</text>
<text text-anchor="middle" x="1346.5" y="-171.8" font-family="Times,serif" font-size="14.00">log gamma1: 0.319174</text>
</g>
<!-- 1&#45;&gt;9 -->
<g id="edge9" class="edge"><title>1&#45;&gt;9</title>
<path fill="none" stroke="black" d="M1008.38,-275.418C1080.3,-255.972 1194.47,-225.105 1269.94,-204.701"/>
<polygon fill="black" stroke="black" points="1271.12,-208.006 1279.86,-202.017 1269.29,-201.249 1271.12,-208.006"/>
</g>
<!-- 10 -->
<g id="node11" class="node"><title>10</title>
<path fill="#d3ffff" stroke="black" d="M1955.5,-202C1955.5,-202 1835.5,-202 1835.5,-202 1829.5,-202 1823.5,-196 1823.5,-190 1823.5,-190 1823.5,-176 1823.5,-176 1823.5,-170 1829.5,-164 1835.5,-164 1835.5,-164 1955.5,-164 1955.5,-164 1961.5,-164 1967.5,-170 1967.5,-176 1967.5,-176 1967.5,-190 1967.5,-190 1967.5,-196 1961.5,-202 1955.5,-202"/>
<text text-anchor="middle" x="1895.5" y="-186.8" font-family="Times,serif" font-size="14.00">comp 0</text>
<text text-anchor="middle" x="1895.5" y="-171.8" font-family="Times,serif" font-size="14.00">log gamma1: 0.207698</text>
</g>
<!-- 2&#45;&gt;10 -->
<g id="edge10" class="edge"><title>2&#45;&gt;10</title>
<path fill="none" stroke="black" d="M2664.08,-289.494C2546.21,-282.294 2305.8,-264.769 2104.5,-232 2060.8,-224.886 2012.6,-214.023 1973.51,-204.43"/>
<polygon fill="black" stroke="black" points="1974.33,-201.026 1963.78,-202.021 1972.64,-207.821 1974.33,-201.026"/>
</g>
<!-- 11 -->
<g id="node12" class="node"><title>11</title>
<path fill="#bfe6e6" stroke="black" d="M2321,-202C2321,-202 2126,-202 2126,-202 2120,-202 2114,-196 2114,-190 2114,-190 2114,-176 2114,-176 2114,-170 2120,-164 2126,-164 2126,-164 2321,-164 2321,-164 2327,-164 2333,-170 2333,-176 2333,-176 2333,-190 2333,-190 2333,-196 2327,-202 2321,-202"/>
<text text-anchor="middle" x="2223.5" y="-186.8" font-family="Times,serif" font-size="14.00">comp 1</text>
<text text-anchor="middle" x="2223.5" y="-171.8" font-family="Times,serif" font-size="14.00">log gamma2: 0.474984 &#160;&#160;n kernels: 1</text>
</g>
<!-- 2&#45;&gt;11 -->
<g id="edge11" class="edge"><title>2&#45;&gt;11</title>
<path fill="none" stroke="black" d="M2664.36,-278.101C2573.69,-258.747 2417.84,-225.482 2317.81,-204.129"/>
<polygon fill="black" stroke="black" points="2318.51,-200.702 2308,-202.037 2317.05,-207.547 2318.51,-200.702"/>
</g>
<!-- 12 -->
<g id="node13" class="node"><title>12</title>
<path fill="#abcece" stroke="black" d="M2531.5,-201C2531.5,-201 2497.5,-201 2497.5,-201 2491.5,-201 2485.5,-195 2485.5,-189 2485.5,-189 2485.5,-177 2485.5,-177 2485.5,-171 2491.5,-165 2497.5,-165 2497.5,-165 2531.5,-165 2531.5,-165 2537.5,-165 2543.5,-171 2543.5,-177 2543.5,-177 2543.5,-189 2543.5,-189 2543.5,-195 2537.5,-201 2531.5,-201"/>
<text text-anchor="middle" x="2514.5" y="-179.3" font-family="Times,serif" font-size="14.00">comp 2</text>
</g>
<!-- 2&#45;&gt;12 -->
<g id="edge12" class="edge"><title>2&#45;&gt;12</title>
<path fill="none" stroke="black" d="M2684.73,-267.965C2644.39,-248.067 2589.29,-220.888 2552.83,-202.908"/>
<polygon fill="black" stroke="black" points="2554.05,-199.605 2543.53,-198.32 2550.95,-205.883 2554.05,-199.605"/>
</g>
<!-- 13 -->
<g id="node14" class="node"><title>13</title>
<path fill="#97b6b6" stroke="black" d="M2799,-202C2799,-202 2674,-202 2674,-202 2668,-202 2662,-196 2662,-190 2662,-190 2662,-176 2662,-176 2662,-170 2668,-164 2674,-164 2674,-164 2799,-164 2799,-164 2805,-164 2811,-170 2811,-176 2811,-176 2811,-190 2811,-190 2811,-196 2805,-202 2799,-202"/>
<text text-anchor="middle" x="2736.5" y="-186.8" font-family="Times,serif" font-size="14.00">comp 3</text>
<text text-anchor="middle" x="2736.5" y="-171.8" font-family="Times,serif" font-size="14.00">log gamma1: &#45;1.598259</text>
</g>
<!-- 2&#45;&gt;13 -->
<g id="edge13" class="edge"><title>2&#45;&gt;13</title>
<path fill="none" stroke="black" d="M2736.5,-267.827C2736.5,-251.18 2736.5,-229.482 2736.5,-212.332"/>
<polygon fill="black" stroke="black" points="2740,-212.327 2736.5,-202.327 2733,-212.327 2740,-212.327"/>
</g>
<!-- 14 -->
<g id="node15" class="node"><title>14</title>
<path fill="#839e9e" stroke="black" d="M2975.5,-201C2975.5,-201 2941.5,-201 2941.5,-201 2935.5,-201 2929.5,-195 2929.5,-189 2929.5,-189 2929.5,-177 2929.5,-177 2929.5,-171 2935.5,-165 2941.5,-165 2941.5,-165 2975.5,-165 2975.5,-165 2981.5,-165 2987.5,-171 2987.5,-177 2987.5,-177 2987.5,-189 2987.5,-189 2987.5,-195 2981.5,-201 2975.5,-201"/>
<text text-anchor="middle" x="2958.5" y="-179.3" font-family="Times,serif" font-size="14.00">comp 4</text>
</g>
<!-- 2&#45;&gt;14 -->
<g id="edge14" class="edge"><title>2&#45;&gt;14</title>
<path fill="none" stroke="black" d="M2788.27,-267.965C2828.61,-248.067 2883.71,-220.888 2920.17,-202.908"/>
<polygon fill="black" stroke="black" points="2922.05,-205.883 2929.47,-198.32 2918.95,-199.605 2922.05,-205.883"/>
</g>
<!-- 15 -->
<g id="node16" class="node"><title>15</title>
<path fill="#6f8585" stroke="black" d="M3296.5,-202C3296.5,-202 3168.5,-202 3168.5,-202 3162.5,-202 3156.5,-196 3156.5,-190 3156.5,-190 3156.5,-176 3156.5,-176 3156.5,-170 3162.5,-164 3168.5,-164 3168.5,-164 3296.5,-164 3296.5,-164 3302.5,-164 3308.5,-170 3308.5,-176 3308.5,-176 3308.5,-190 3308.5,-190 3308.5,-196 3302.5,-202 3296.5,-202"/>
<text text-anchor="middle" x="3232.5" y="-186.8" font-family="Times,serif" font-size="14.00">path end 1</text>
<text text-anchor="middle" x="3232.5" y="-171.8" font-family="Times,serif" font-size="14.00">k width: &#45;2 &#160;&#160;n kernels: 1</text>
</g>
<!-- 2&#45;&gt;15 -->
<g id="edge15" class="edge"><title>2&#45;&gt;15</title>
<path fill="none" stroke="black" d="M2808.62,-277.578C2898.15,-257.813 3050.68,-224.141 3146.28,-203.033"/>
<polygon fill="black" stroke="black" points="3147.21,-206.414 3156.22,-200.841 3145.7,-199.579 3147.21,-206.414"/>
</g>
<!-- 16 -->
<g id="node17" class="node"><title>16</title>
<path fill="#d3ffff" stroke="black" d="M3890,-202C3890,-202 3677,-202 3677,-202 3671,-202 3665,-196 3665,-190 3665,-190 3665,-176 3665,-176 3665,-170 3671,-164 3677,-164 3677,-164 3890,-164 3890,-164 3896,-164 3902,-170 3902,-176 3902,-176 3902,-190 3902,-190 3902,-196 3896,-202 3890,-202"/>
<text text-anchor="middle" x="3783.5" y="-186.8" font-family="Times,serif" font-size="14.00">comp 0</text>
<text text-anchor="middle" x="3783.5" y="-171.8" font-family="Times,serif" font-size="14.00">log gamma1: 0.255132 &#160;&#160;n kernels: &#45;224</text>
</g>
<!-- 3&#45;&gt;16 -->
<g id="edge16" class="edge"><title>3&#45;&gt;16</title>
<path fill="none" stroke="black" d="M4038.14,-275.418C3984.63,-256.211 3900.09,-225.859 3843.26,-205.455"/>
<polygon fill="black" stroke="black" points="3844.28,-202.102 3833.69,-202.017 3841.91,-208.691 3844.28,-202.102"/>
</g>
<!-- 17 -->
<g id="node18" class="node"><title>17</title>
<path fill="#bfe6e6" stroke="black" d="M4045.5,-201C4045.5,-201 4011.5,-201 4011.5,-201 4005.5,-201 3999.5,-195 3999.5,-189 3999.5,-189 3999.5,-177 3999.5,-177 3999.5,-171 4005.5,-165 4011.5,-165 4011.5,-165 4045.5,-165 4045.5,-165 4051.5,-165 4057.5,-171 4057.5,-177 4057.5,-177 4057.5,-189 4057.5,-189 4057.5,-195 4051.5,-201 4045.5,-201"/>
<text text-anchor="middle" x="4028.5" y="-179.3" font-family="Times,serif" font-size="14.00">comp 1</text>
</g>
<!-- 3&#45;&gt;17 -->
<g id="edge17" class="edge"><title>3&#45;&gt;17</title>
<path fill="none" stroke="black" d="M4078.59,-275.418C4068.82,-257.589 4053.79,-230.158 4042.74,-209.993"/>
<polygon fill="black" stroke="black" points="4045.7,-208.115 4037.83,-201.027 4039.57,-211.478 4045.7,-208.115"/>
</g>
<!-- 18 -->
<g id="node19" class="node"><title>18</title>
<path fill="#abcece" stroke="black" d="M4212,-202C4212,-202 4087,-202 4087,-202 4081,-202 4075,-196 4075,-190 4075,-190 4075,-176 4075,-176 4075,-170 4081,-164 4087,-164 4087,-164 4212,-164 4212,-164 4218,-164 4224,-170 4224,-176 4224,-176 4224,-190 4224,-190 4224,-196 4218,-202 4212,-202"/>
<text text-anchor="middle" x="4149.5" y="-186.8" font-family="Times,serif" font-size="14.00">comp 2</text>
<text text-anchor="middle" x="4149.5" y="-171.8" font-family="Times,serif" font-size="14.00">log gamma1: &#45;0.124740</text>
</g>
<!-- 3&#45;&gt;18 -->
<g id="edge18" class="edge"><title>3&#45;&gt;18</title>
<path fill="none" stroke="black" d="M4098.57,-275.418C4108.33,-257.904 4123.25,-231.123 4134.42,-211.068"/>
<polygon fill="black" stroke="black" points="4137.6,-212.548 4139.41,-202.109 4131.49,-209.141 4137.6,-212.548"/>
</g>
<!-- 19 -->
<g id="node20" class="node"><title>19</title>
<path fill="#97b6b6" stroke="black" d="M4517,-209.5C4517,-209.5 4254,-209.5 4254,-209.5 4248,-209.5 4242,-203.5 4242,-197.5 4242,-197.5 4242,-168.5 4242,-168.5 4242,-162.5 4248,-156.5 4254,-156.5 4254,-156.5 4517,-156.5 4517,-156.5 4523,-156.5 4529,-162.5 4529,-168.5 4529,-168.5 4529,-197.5 4529,-197.5 4529,-203.5 4523,-209.5 4517,-209.5"/>
<text text-anchor="middle" x="4385.5" y="-194.3" font-family="Times,serif" font-size="14.00">comp 3</text>
<text text-anchor="middle" x="4385.5" y="-179.3" font-family="Times,serif" font-size="14.00">log gamma1: 1.462796 &#160;&#160;log gamma2: &#45;0.979164</text>
<text text-anchor="middle" x="4385.5" y="-164.3" font-family="Times,serif" font-size="14.00">n kernels: &#45;224</text>
</g>
<!-- 3&#45;&gt;19 -->
<g id="edge19" class="edge"><title>3&#45;&gt;19</title>
<path fill="none" stroke="black" d="M4137.54,-275.418C4183.47,-258.485 4252.89,-232.891 4306.61,-213.087"/>
<polygon fill="black" stroke="black" points="4307.93,-216.329 4316.1,-209.585 4305.51,-209.761 4307.93,-216.329"/>
</g>
<!-- 20 -->
<g id="node21" class="node"><title>20</title>
<path fill="#839e9e" stroke="black" d="M4705.5,-202C4705.5,-202 4559.5,-202 4559.5,-202 4553.5,-202 4547.5,-196 4547.5,-190 4547.5,-190 4547.5,-176 4547.5,-176 4547.5,-170 4553.5,-164 4559.5,-164 4559.5,-164 4705.5,-164 4705.5,-164 4711.5,-164 4717.5,-170 4717.5,-176 4717.5,-176 4717.5,-190 4717.5,-190 4717.5,-196 4711.5,-202 4705.5,-202"/>
<text text-anchor="middle" x="4632.5" y="-186.8" font-family="Times,serif" font-size="14.00">path end 2</text>
<text text-anchor="middle" x="4632.5" y="-171.8" font-family="Times,serif" font-size="14.00">k width: &#45;2 &#160;&#160;n kernels: &#45;271</text>
</g>
<!-- 3&#45;&gt;20 -->
<g id="edge20" class="edge"><title>3&#45;&gt;20</title>
<path fill="none" stroke="black" d="M4181.16,-289.755C4273.33,-283.966 4417.87,-269.265 4537.5,-232 4557,-225.925 4577.37,-216.148 4594.23,-206.998"/>
<polygon fill="black" stroke="black" points="4596.16,-209.926 4603.2,-202.007 4592.76,-203.809 4596.16,-209.926"/>
</g>
<!-- 21 -->
<g id="node22" class="node"><title>21</title>
<path fill="#d3ffff" stroke="black" d="M5029,-232C5029,-232 4748,-232 4748,-232 4742,-232 4736,-226 4736,-220 4736,-220 4736,-146 4736,-146 4736,-140 4742,-134 4748,-134 4748,-134 5029,-134 5029,-134 5035,-134 5041,-140 5041,-146 5041,-146 5041,-220 5041,-220 5041,-226 5035,-232 5029,-232"/>
<text text-anchor="middle" x="4888.5" y="-216.8" font-family="Times,serif" font-size="14.00">forward</text>
<text text-anchor="middle" x="4888.5" y="-201.8" font-family="Times,serif" font-size="14.00">CB0/C4</text>
<text text-anchor="middle" x="4888.5" y="-186.8" font-family="Times,serif" font-size="14.00">dilation rate: 1 &#160;&#160;k width: 3</text>
<text text-anchor="middle" x="4888.5" y="-171.8" font-family="Times,serif" font-size="14.00">log gamma1: &#45;11.000000 &#160;&#160;log gamma2: &#45;11.000000</text>
<text text-anchor="middle" x="4888.5" y="-156.8" font-family="Times,serif" font-size="14.00">log lambda1: &#45;11.000000 &#160;&#160;log lambda2: &#45;11.000000</text>
<text text-anchor="middle" x="4888.5" y="-141.8" font-family="Times,serif" font-size="14.00">n kernels: 64</text>
</g>
<!-- 4&#45;&gt;21 -->
<g id="edge21" class="edge"><title>4&#45;&gt;21</title>
<path fill="none" stroke="black" d="M5024.34,-276.391C5008.95,-265.923 4988.33,-251.898 4967.81,-237.942"/>
<polygon fill="black" stroke="black" points="4969.59,-234.917 4959.35,-232.188 4965.65,-240.706 4969.59,-234.917"/>
</g>
<!-- 22 -->
<g id="node23" class="node"><title>22</title>
<path fill="#bfe6e6" stroke="black" d="M5352,-232C5352,-232 5071,-232 5071,-232 5065,-232 5059,-226 5059,-220 5059,-220 5059,-146 5059,-146 5059,-140 5065,-134 5071,-134 5071,-134 5352,-134 5352,-134 5358,-134 5364,-140 5364,-146 5364,-146 5364,-220 5364,-220 5364,-226 5358,-232 5352,-232"/>
<text text-anchor="middle" x="5211.5" y="-216.8" font-family="Times,serif" font-size="14.00">residual 1</text>
<text text-anchor="middle" x="5211.5" y="-201.8" font-family="Times,serif" font-size="14.00">CB1/PE1</text>
<text text-anchor="middle" x="5211.5" y="-186.8" font-family="Times,serif" font-size="14.00">dilation rate: 1 &#160;&#160;k width: 3</text>
<text text-anchor="middle" x="5211.5" y="-171.8" font-family="Times,serif" font-size="14.00">log gamma1: &#45;11.000000 &#160;&#160;log gamma2: &#45;11.000000</text>
<text text-anchor="middle" x="5211.5" y="-156.8" font-family="Times,serif" font-size="14.00">log lambda1: &#45;11.000000 &#160;&#160;log lambda2: &#45;11.000000</text>
<text text-anchor="middle" x="5211.5" y="-141.8" font-family="Times,serif" font-size="14.00">n kernels: 64</text>
</g>
<!-- 4&#45;&gt;22 -->
<g id="edge22" class="edge"><title>4&#45;&gt;22</title>
<path fill="none" stroke="black" d="M5074.81,-276.391C5090.3,-265.923 5111.05,-251.898 5131.69,-237.942"/>
<polygon fill="black" stroke="black" points="5133.88,-240.687 5140.21,-232.188 5129.96,-234.888 5133.88,-240.687"/>
</g>
<!-- 23 -->
<g id="node24" class="node"><title>23</title>
<path fill="#abcece" stroke="black" d="M5675,-232C5675,-232 5394,-232 5394,-232 5388,-232 5382,-226 5382,-220 5382,-220 5382,-146 5382,-146 5382,-140 5388,-134 5394,-134 5394,-134 5675,-134 5675,-134 5681,-134 5687,-140 5687,-146 5687,-146 5687,-220 5687,-220 5687,-226 5681,-232 5675,-232"/>
<text text-anchor="middle" x="5534.5" y="-216.8" font-family="Times,serif" font-size="14.00">residual 2</text>
<text text-anchor="middle" x="5534.5" y="-201.8" font-family="Times,serif" font-size="14.00">CB2/PE2</text>
<text text-anchor="middle" x="5534.5" y="-186.8" font-family="Times,serif" font-size="14.00">dilation rate: 1 &#160;&#160;k width: 3</text>
<text text-anchor="middle" x="5534.5" y="-171.8" font-family="Times,serif" font-size="14.00">log gamma1: &#45;11.000000 &#160;&#160;log gamma2: &#45;11.000000</text>
<text text-anchor="middle" x="5534.5" y="-156.8" font-family="Times,serif" font-size="14.00">log lambda1: &#45;11.000000 &#160;&#160;log lambda2: &#45;11.000000</text>
<text text-anchor="middle" x="5534.5" y="-141.8" font-family="Times,serif" font-size="14.00">n kernels: 64</text>
</g>
<!-- 4&#45;&gt;23 -->
<g id="edge23" class="edge"><title>4&#45;&gt;23</title>
<path fill="none" stroke="black" d="M5095.01,-286.309C5155.92,-276.361 5267.44,-257.014 5372.2,-232.009"/>
<polygon fill="black" stroke="black" points="5373.09,-235.395 5381.99,-229.651 5371.45,-228.59 5373.09,-235.395"/>
</g>
<!-- 24 -->
<g id="node25" class="node"><title>24</title>
<path fill="#e9d3ff" stroke="black" d="M293,-98C293,-98 12,-98 12,-98 6,-98 0,-92 0,-86 0,-86 0,-12 0,-12 0,-6 6,-0 12,-0 12,-0 293,-0 293,-0 299,-0 305,-6 305,-12 305,-12 305,-86 305,-86 305,-92 299,-98 293,-98"/>
<text text-anchor="middle" x="152.5" y="-82.8" font-family="Times,serif" font-size="14.00">forward</text>
<text text-anchor="middle" x="152.5" y="-67.8" font-family="Times,serif" font-size="14.00">input</text>
<text text-anchor="middle" x="152.5" y="-52.8" font-family="Times,serif" font-size="14.00">dilation rate: 1 &#160;&#160;k width: 3</text>
<text text-anchor="middle" x="152.5" y="-37.8" font-family="Times,serif" font-size="14.00">log gamma1: &#45;11.000000 &#160;&#160;log gamma2: &#45;11.000000</text>
<text text-anchor="middle" x="152.5" y="-22.8" font-family="Times,serif" font-size="14.00">log lambda1: &#45;11.000000 &#160;&#160;log lambda2: &#45;11.000000</text>
<text text-anchor="middle" x="152.5" y="-7.8" font-family="Times,serif" font-size="14.00">n kernels: 64</text>
</g>
<!-- 5&#45;&gt;24 -->
<g id="edge24" class="edge"><title>5&#45;&gt;24</title>
<path fill="none" stroke="black" d="M269.012,-163.923C253.506,-148.761 230.513,-126.279 209.041,-105.284"/>
<polygon fill="black" stroke="black" points="211.427,-102.722 201.83,-98.2336 206.533,-107.727 211.427,-102.722"/>
</g>
<!-- 25 -->
<g id="node26" class="node"><title>25</title>
<path fill="#e9d3ff" stroke="black" d="M616,-98C616,-98 335,-98 335,-98 329,-98 323,-92 323,-86 323,-86 323,-12 323,-12 323,-6 329,-0 335,-0 335,-0 616,-0 616,-0 622,-0 628,-6 628,-12 628,-12 628,-86 628,-86 628,-92 622,-98 616,-98"/>
<text text-anchor="middle" x="475.5" y="-82.8" font-family="Times,serif" font-size="14.00">forward</text>
<text text-anchor="middle" x="475.5" y="-67.8" font-family="Times,serif" font-size="14.00">CB0/C0</text>
<text text-anchor="middle" x="475.5" y="-52.8" font-family="Times,serif" font-size="14.00">dilation rate: 1 &#160;&#160;k width: 3</text>
<text text-anchor="middle" x="475.5" y="-37.8" font-family="Times,serif" font-size="14.00">log gamma1: &#45;11.000000 &#160;&#160;log gamma2: &#45;11.000000</text>
<text text-anchor="middle" x="475.5" y="-22.8" font-family="Times,serif" font-size="14.00">log lambda1: &#45;11.000000 &#160;&#160;log lambda2: &#45;11.000000</text>
<text text-anchor="middle" x="475.5" y="-7.8" font-family="Times,serif" font-size="14.00">n kernels: 64</text>
</g>
<!-- 6&#45;&gt;25 -->
<g id="edge25" class="edge"><title>6&#45;&gt;25</title>
<path fill="none" stroke="black" d="M583.381,-163.923C569.086,-148.827 547.919,-126.475 528.112,-105.558"/>
<polygon fill="black" stroke="black" points="530.593,-103.088 521.176,-98.2336 525.51,-107.901 530.593,-103.088"/>
</g>
<!-- 26 -->
<g id="node27" class="node"><title>26</title>
<path fill="#e9d3ff" stroke="black" d="M939,-98C939,-98 658,-98 658,-98 652,-98 646,-92 646,-86 646,-86 646,-12 646,-12 646,-6 652,-0 658,-0 658,-0 939,-0 939,-0 945,-0 951,-6 951,-12 951,-12 951,-86 951,-86 951,-92 945,-98 939,-98"/>
<text text-anchor="middle" x="798.5" y="-82.8" font-family="Times,serif" font-size="14.00">forward</text>
<text text-anchor="middle" x="798.5" y="-67.8" font-family="Times,serif" font-size="14.00">CB0/C1</text>
<text text-anchor="middle" x="798.5" y="-52.8" font-family="Times,serif" font-size="14.00">dilation rate: 1 &#160;&#160;k width: 3</text>
<text text-anchor="middle" x="798.5" y="-37.8" font-family="Times,serif" font-size="14.00">log gamma1: &#45;11.000000 &#160;&#160;log gamma2: &#45;11.000000</text>
<text text-anchor="middle" x="798.5" y="-22.8" font-family="Times,serif" font-size="14.00">log lambda1: &#45;11.000000 &#160;&#160;log lambda2: &#45;11.000000</text>
<text text-anchor="middle" x="798.5" y="-7.8" font-family="Times,serif" font-size="14.00">n kernels: 64</text>
</g>
<!-- 7&#45;&gt;26 -->
<g id="edge26" class="edge"><title>7&#45;&gt;26</title>
<path fill="none" stroke="black" d="M830.433,-163.923C826.368,-149.42 820.425,-128.221 814.766,-108.03"/>
<polygon fill="black" stroke="black" points="818.089,-106.918 812.02,-98.2336 811.349,-108.807 818.089,-106.918"/>
</g>
<!-- 27 -->
<g id="node28" class="node"><title>27</title>
<path fill="#e9d3ff" stroke="black" d="M1262,-98C1262,-98 981,-98 981,-98 975,-98 969,-92 969,-86 969,-86 969,-12 969,-12 969,-6 975,-0 981,-0 981,-0 1262,-0 1262,-0 1268,-0 1274,-6 1274,-12 1274,-12 1274,-86 1274,-86 1274,-92 1268,-98 1262,-98"/>
<text text-anchor="middle" x="1121.5" y="-82.8" font-family="Times,serif" font-size="14.00">forward</text>
<text text-anchor="middle" x="1121.5" y="-67.8" font-family="Times,serif" font-size="14.00">CB0/C2</text>
<text text-anchor="middle" x="1121.5" y="-52.8" font-family="Times,serif" font-size="14.00">dilation rate: 1 &#160;&#160;k width: 3</text>
<text text-anchor="middle" x="1121.5" y="-37.8" font-family="Times,serif" font-size="14.00">log gamma1: &#45;11.000000 &#160;&#160;log gamma2: &#45;11.000000</text>
<text text-anchor="middle" x="1121.5" y="-22.8" font-family="Times,serif" font-size="14.00">log lambda1: &#45;11.000000 &#160;&#160;log lambda2: &#45;11.000000</text>
<text text-anchor="middle" x="1121.5" y="-7.8" font-family="Times,serif" font-size="14.00">n kernels: 64</text>
</g>
<!-- 8&#45;&gt;27 -->
<g id="edge27" class="edge"><title>8&#45;&gt;27</title>
<path fill="none" stroke="black" d="M1057.63,-163.923C1065.88,-149.223 1077.97,-127.641 1089.43,-107.205"/>
<polygon fill="black" stroke="black" points="1092.62,-108.668 1094.46,-98.2336 1086.52,-105.245 1092.62,-108.668"/>
</g>
<!-- 28 -->
<g id="node29" class="node"><title>28</title>
<path fill="#e9d3ff" stroke="black" d="M1585,-98C1585,-98 1304,-98 1304,-98 1298,-98 1292,-92 1292,-86 1292,-86 1292,-12 1292,-12 1292,-6 1298,-0 1304,-0 1304,-0 1585,-0 1585,-0 1591,-0 1597,-6 1597,-12 1597,-12 1597,-86 1597,-86 1597,-92 1591,-98 1585,-98"/>
<text text-anchor="middle" x="1444.5" y="-82.8" font-family="Times,serif" font-size="14.00">forward</text>
<text text-anchor="middle" x="1444.5" y="-67.8" font-family="Times,serif" font-size="14.00">CB0/C3</text>
<text text-anchor="middle" x="1444.5" y="-52.8" font-family="Times,serif" font-size="14.00">dilation rate: 1 &#160;&#160;k width: 3</text>
<text text-anchor="middle" x="1444.5" y="-37.8" font-family="Times,serif" font-size="14.00">log gamma1: &#45;11.000000 &#160;&#160;log gamma2: &#45;11.000000</text>
<text text-anchor="middle" x="1444.5" y="-22.8" font-family="Times,serif" font-size="14.00">log lambda1: &#45;11.000000 &#160;&#160;log lambda2: &#45;11.000000</text>
<text text-anchor="middle" x="1444.5" y="-7.8" font-family="Times,serif" font-size="14.00">n kernels: 64</text>
</g>
<!-- 9&#45;&gt;28 -->
<g id="edge28" class="edge"><title>9&#45;&gt;28</title>
<path fill="none" stroke="black" d="M1359.92,-163.923C1370.98,-149.025 1387.29,-127.059 1402.64,-106.381"/>
<polygon fill="black" stroke="black" points="1405.54,-108.349 1408.69,-98.2336 1399.92,-104.176 1405.54,-108.349"/>
</g>
<!-- 29 -->
<g id="node30" class="node"><title>29</title>
<path fill="#e9d3ff" stroke="black" d="M1908,-98C1908,-98 1627,-98 1627,-98 1621,-98 1615,-92 1615,-86 1615,-86 1615,-12 1615,-12 1615,-6 1621,-0 1627,-0 1627,-0 1908,-0 1908,-0 1914,-0 1920,-6 1920,-12 1920,-12 1920,-86 1920,-86 1920,-92 1914,-98 1908,-98"/>
<text text-anchor="middle" x="1767.5" y="-82.8" font-family="Times,serif" font-size="14.00">forward</text>
<text text-anchor="middle" x="1767.5" y="-67.8" font-family="Times,serif" font-size="14.00">input</text>
<text text-anchor="middle" x="1767.5" y="-52.8" font-family="Times,serif" font-size="14.00">dilation rate: 1 &#160;&#160;k width: 3</text>
<text text-anchor="middle" x="1767.5" y="-37.8" font-family="Times,serif" font-size="14.00">log gamma1: &#45;11.000000 &#160;&#160;log gamma2: &#45;11.000000</text>
<text text-anchor="middle" x="1767.5" y="-22.8" font-family="Times,serif" font-size="14.00">log lambda1: &#45;11.000000 &#160;&#160;log lambda2: &#45;11.000000</text>
<text text-anchor="middle" x="1767.5" y="-7.8" font-family="Times,serif" font-size="14.00">n kernels: 64</text>
</g>
<!-- 10&#45;&gt;29 -->
<g id="edge29" class="edge"><title>10&#45;&gt;29</title>
<path fill="none" stroke="black" d="M1877.97,-163.923C1863.33,-148.827 1841.66,-126.475 1821.37,-105.558"/>
<polygon fill="black" stroke="black" points="1823.75,-102.976 1814.27,-98.2336 1818.72,-107.849 1823.75,-102.976"/>
</g>
<!-- 30 -->
<g id="node31" class="node"><title>30</title>
<path fill="#e9d3ff" stroke="black" d="M2231,-98C2231,-98 1950,-98 1950,-98 1944,-98 1938,-92 1938,-86 1938,-86 1938,-12 1938,-12 1938,-6 1944,-0 1950,-0 1950,-0 2231,-0 2231,-0 2237,-0 2243,-6 2243,-12 2243,-12 2243,-86 2243,-86 2243,-92 2237,-98 2231,-98"/>
<text text-anchor="middle" x="2090.5" y="-82.8" font-family="Times,serif" font-size="14.00">forward</text>
<text text-anchor="middle" x="2090.5" y="-67.8" font-family="Times,serif" font-size="14.00">CB1/C0</text>
<text text-anchor="middle" x="2090.5" y="-52.8" font-family="Times,serif" font-size="14.00">dilation rate: 1 &#160;&#160;k width: 3</text>
<text text-anchor="middle" x="2090.5" y="-37.8" font-family="Times,serif" font-size="14.00">log gamma1: &#45;11.000000 &#160;&#160;log gamma2: &#45;11.000000</text>
<text text-anchor="middle" x="2090.5" y="-22.8" font-family="Times,serif" font-size="14.00">log lambda1: &#45;11.000000 &#160;&#160;log lambda2: &#45;11.000000</text>
<text text-anchor="middle" x="2090.5" y="-7.8" font-family="Times,serif" font-size="14.00">n kernels: 64</text>
</g>
<!-- 11&#45;&gt;30 -->
<g id="edge30" class="edge"><title>11&#45;&gt;30</title>
<path fill="none" stroke="black" d="M2205.29,-163.923C2190.01,-148.761 2167.36,-126.279 2146.2,-105.284"/>
<polygon fill="black" stroke="black" points="2148.66,-102.794 2139.1,-98.2336 2143.73,-107.762 2148.66,-102.794"/>
</g>
<!-- 31 -->
<g id="node32" class="node"><title>31</title>
<path fill="#e9d3ff" stroke="black" d="M2554,-98C2554,-98 2273,-98 2273,-98 2267,-98 2261,-92 2261,-86 2261,-86 2261,-12 2261,-12 2261,-6 2267,-0 2273,-0 2273,-0 2554,-0 2554,-0 2560,-0 2566,-6 2566,-12 2566,-12 2566,-86 2566,-86 2566,-92 2560,-98 2554,-98"/>
<text text-anchor="middle" x="2413.5" y="-82.8" font-family="Times,serif" font-size="14.00">forward</text>
<text text-anchor="middle" x="2413.5" y="-67.8" font-family="Times,serif" font-size="14.00">CB1/C1</text>
<text text-anchor="middle" x="2413.5" y="-52.8" font-family="Times,serif" font-size="14.00">dilation rate: 1 &#160;&#160;k width: 3</text>
<text text-anchor="middle" x="2413.5" y="-37.8" font-family="Times,serif" font-size="14.00">log gamma1: &#45;11.000000 &#160;&#160;log gamma2: &#45;11.000000</text>
<text text-anchor="middle" x="2413.5" y="-22.8" font-family="Times,serif" font-size="14.00">log lambda1: &#45;11.000000 &#160;&#160;log lambda2: &#45;11.000000</text>
<text text-anchor="middle" x="2413.5" y="-7.8" font-family="Times,serif" font-size="14.00">n kernels: 64</text>
</g>
<!-- 12&#45;&gt;31 -->
<g id="edge31" class="edge"><title>12&#45;&gt;31</title>
<path fill="none" stroke="black" d="M2501.3,-164.743C2489.87,-149.809 2472.69,-127.353 2456.54,-106.254"/>
<polygon fill="black" stroke="black" points="2459.28,-104.068 2450.42,-98.2533 2453.72,-108.322 2459.28,-104.068"/>
</g>
<!-- 32 -->
<g id="node33" class="node"><title>32</title>
<path fill="#e9d3ff" stroke="black" d="M2877,-98C2877,-98 2596,-98 2596,-98 2590,-98 2584,-92 2584,-86 2584,-86 2584,-12 2584,-12 2584,-6 2590,-0 2596,-0 2596,-0 2877,-0 2877,-0 2883,-0 2889,-6 2889,-12 2889,-12 2889,-86 2889,-86 2889,-92 2883,-98 2877,-98"/>
<text text-anchor="middle" x="2736.5" y="-82.8" font-family="Times,serif" font-size="14.00">forward</text>
<text text-anchor="middle" x="2736.5" y="-67.8" font-family="Times,serif" font-size="14.00">CB1/C2</text>
<text text-anchor="middle" x="2736.5" y="-52.8" font-family="Times,serif" font-size="14.00">dilation rate: 1 &#160;&#160;k width: 3</text>
<text text-anchor="middle" x="2736.5" y="-37.8" font-family="Times,serif" font-size="14.00">log gamma1: &#45;11.000000 &#160;&#160;log gamma2: &#45;11.000000</text>
<text text-anchor="middle" x="2736.5" y="-22.8" font-family="Times,serif" font-size="14.00">log lambda1: &#45;11.000000 &#160;&#160;log lambda2: &#45;11.000000</text>
<text text-anchor="middle" x="2736.5" y="-7.8" font-family="Times,serif" font-size="14.00">n kernels: 64</text>
</g>
<!-- 13&#45;&gt;32 -->
<g id="edge32" class="edge"><title>13&#45;&gt;32</title>
<path fill="none" stroke="black" d="M2736.5,-163.923C2736.5,-149.486 2736.5,-128.413 2736.5,-108.306"/>
<polygon fill="black" stroke="black" points="2740,-108.234 2736.5,-98.2336 2733,-108.234 2740,-108.234"/>
</g>
<!-- 33 -->
<g id="node34" class="node"><title>33</title>
<path fill="#e9d3ff" stroke="black" d="M3200,-98C3200,-98 2919,-98 2919,-98 2913,-98 2907,-92 2907,-86 2907,-86 2907,-12 2907,-12 2907,-6 2913,-0 2919,-0 2919,-0 3200,-0 3200,-0 3206,-0 3212,-6 3212,-12 3212,-12 3212,-86 3212,-86 3212,-92 3206,-98 3200,-98"/>
<text text-anchor="middle" x="3059.5" y="-82.8" font-family="Times,serif" font-size="14.00">forward</text>
<text text-anchor="middle" x="3059.5" y="-67.8" font-family="Times,serif" font-size="14.00">CB1/C3</text>
<text text-anchor="middle" x="3059.5" y="-52.8" font-family="Times,serif" font-size="14.00">dilation rate: 1 &#160;&#160;k width: 3</text>
<text text-anchor="middle" x="3059.5" y="-37.8" font-family="Times,serif" font-size="14.00">log gamma1: &#45;11.000000 &#160;&#160;log gamma2: &#45;11.000000</text>
<text text-anchor="middle" x="3059.5" y="-22.8" font-family="Times,serif" font-size="14.00">log lambda1: &#45;11.000000 &#160;&#160;log lambda2: &#45;11.000000</text>
<text text-anchor="middle" x="3059.5" y="-7.8" font-family="Times,serif" font-size="14.00">n kernels: 64</text>
</g>
<!-- 14&#45;&gt;33 -->
<g id="edge33" class="edge"><title>14&#45;&gt;33</title>
<path fill="none" stroke="black" d="M2971.7,-164.743C2983.13,-149.809 3000.31,-127.353 3016.46,-106.254"/>
<polygon fill="black" stroke="black" points="3019.28,-108.322 3022.58,-98.2533 3013.72,-104.068 3019.28,-108.322"/>
</g>
<!-- 34 -->
<g id="node35" class="node"><title>34</title>
<path fill="#e9d3ff" stroke="black" d="M3523,-98C3523,-98 3242,-98 3242,-98 3236,-98 3230,-92 3230,-86 3230,-86 3230,-12 3230,-12 3230,-6 3236,-0 3242,-0 3242,-0 3523,-0 3523,-0 3529,-0 3535,-6 3535,-12 3535,-12 3535,-86 3535,-86 3535,-92 3529,-98 3523,-98"/>
<text text-anchor="middle" x="3382.5" y="-82.8" font-family="Times,serif" font-size="14.00">forward</text>
<text text-anchor="middle" x="3382.5" y="-67.8" font-family="Times,serif" font-size="14.00">CB1/C4</text>
<text text-anchor="middle" x="3382.5" y="-52.8" font-family="Times,serif" font-size="14.00">dilation rate: 1 &#160;&#160;k width: 3</text>
<text text-anchor="middle" x="3382.5" y="-37.8" font-family="Times,serif" font-size="14.00">log gamma1: &#45;11.000000 &#160;&#160;log gamma2: &#45;11.000000</text>
<text text-anchor="middle" x="3382.5" y="-22.8" font-family="Times,serif" font-size="14.00">log lambda1: &#45;11.000000 &#160;&#160;log lambda2: &#45;11.000000</text>
<text text-anchor="middle" x="3382.5" y="-7.8" font-family="Times,serif" font-size="14.00">n kernels: 64</text>
</g>
<!-- 15&#45;&gt;34 -->
<g id="edge34" class="edge"><title>15&#45;&gt;34</title>
<path fill="none" stroke="black" d="M3253.04,-163.923C3270.35,-148.695 3296.04,-126.084 3319.99,-105.01"/>
<polygon fill="black" stroke="black" points="3322.49,-107.467 3327.69,-98.2336 3317.87,-102.212 3322.49,-107.467"/>
</g>
<!-- 35 -->
<g id="node36" class="node"><title>35</title>
<path fill="#e9d3ff" stroke="black" d="M3846,-98C3846,-98 3565,-98 3565,-98 3559,-98 3553,-92 3553,-86 3553,-86 3553,-12 3553,-12 3553,-6 3559,-0 3565,-0 3565,-0 3846,-0 3846,-0 3852,-0 3858,-6 3858,-12 3858,-12 3858,-86 3858,-86 3858,-92 3852,-98 3846,-98"/>
<text text-anchor="middle" x="3705.5" y="-82.8" font-family="Times,serif" font-size="14.00">forward</text>
<text text-anchor="middle" x="3705.5" y="-67.8" font-family="Times,serif" font-size="14.00">input</text>
<text text-anchor="middle" x="3705.5" y="-52.8" font-family="Times,serif" font-size="14.00">dilation rate: 1 &#160;&#160;k width: 3</text>
<text text-anchor="middle" x="3705.5" y="-37.8" font-family="Times,serif" font-size="14.00">log gamma1: &#45;11.000000 &#160;&#160;log gamma2: &#45;11.000000</text>
<text text-anchor="middle" x="3705.5" y="-22.8" font-family="Times,serif" font-size="14.00">log lambda1: &#45;11.000000 &#160;&#160;log lambda2: &#45;11.000000</text>
<text text-anchor="middle" x="3705.5" y="-7.8" font-family="Times,serif" font-size="14.00">n kernels: 64</text>
</g>
<!-- 16&#45;&gt;35 -->
<g id="edge35" class="edge"><title>16&#45;&gt;35</title>
<path fill="none" stroke="black" d="M3772.82,-163.923C3764.09,-149.157 3751.26,-127.447 3739.14,-106.93"/>
<polygon fill="black" stroke="black" points="3742.1,-105.062 3734,-98.2336 3736.08,-108.623 3742.1,-105.062"/>
</g>
<!-- 36 -->
<g id="node37" class="node"><title>36</title>
<path fill="#e9d3ff" stroke="black" d="M4169,-98C4169,-98 3888,-98 3888,-98 3882,-98 3876,-92 3876,-86 3876,-86 3876,-12 3876,-12 3876,-6 3882,-0 3888,-0 3888,-0 4169,-0 4169,-0 4175,-0 4181,-6 4181,-12 4181,-12 4181,-86 4181,-86 4181,-92 4175,-98 4169,-98"/>
<text text-anchor="middle" x="4028.5" y="-82.8" font-family="Times,serif" font-size="14.00">forward</text>
<text text-anchor="middle" x="4028.5" y="-67.8" font-family="Times,serif" font-size="14.00">CB2/C0</text>
<text text-anchor="middle" x="4028.5" y="-52.8" font-family="Times,serif" font-size="14.00">dilation rate: 1 &#160;&#160;k width: 3</text>
<text text-anchor="middle" x="4028.5" y="-37.8" font-family="Times,serif" font-size="14.00">log gamma1: &#45;11.000000 &#160;&#160;log gamma2: &#45;11.000000</text>
<text text-anchor="middle" x="4028.5" y="-22.8" font-family="Times,serif" font-size="14.00">log lambda1: &#45;11.000000 &#160;&#160;log lambda2: &#45;11.000000</text>
<text text-anchor="middle" x="4028.5" y="-7.8" font-family="Times,serif" font-size="14.00">n kernels: 64</text>
</g>
<!-- 17&#45;&gt;36 -->
<g id="edge36" class="edge"><title>17&#45;&gt;36</title>
<path fill="none" stroke="black" d="M4028.5,-164.743C4028.5,-150.336 4028.5,-128.926 4028.5,-108.49"/>
<polygon fill="black" stroke="black" points="4032,-108.253 4028.5,-98.2533 4025,-108.253 4032,-108.253"/>
</g>
<!-- 37 -->
<g id="node38" class="node"><title>37</title>
<path fill="#e9d3ff" stroke="black" d="M4492,-98C4492,-98 4211,-98 4211,-98 4205,-98 4199,-92 4199,-86 4199,-86 4199,-12 4199,-12 4199,-6 4205,-0 4211,-0 4211,-0 4492,-0 4492,-0 4498,-0 4504,-6 4504,-12 4504,-12 4504,-86 4504,-86 4504,-92 4498,-98 4492,-98"/>
<text text-anchor="middle" x="4351.5" y="-82.8" font-family="Times,serif" font-size="14.00">forward</text>
<text text-anchor="middle" x="4351.5" y="-67.8" font-family="Times,serif" font-size="14.00">CB2/C1</text>
<text text-anchor="middle" x="4351.5" y="-52.8" font-family="Times,serif" font-size="14.00">dilation rate: 1 &#160;&#160;k width: 3</text>
<text text-anchor="middle" x="4351.5" y="-37.8" font-family="Times,serif" font-size="14.00">log gamma1: &#45;11.000000 &#160;&#160;log gamma2: &#45;11.000000</text>
<text text-anchor="middle" x="4351.5" y="-22.8" font-family="Times,serif" font-size="14.00">log lambda1: &#45;11.000000 &#160;&#160;log lambda2: &#45;11.000000</text>
<text text-anchor="middle" x="4351.5" y="-7.8" font-family="Times,serif" font-size="14.00">n kernels: 64</text>
</g>
<!-- 18&#45;&gt;37 -->
<g id="edge37" class="edge"><title>18&#45;&gt;37</title>
<path fill="none" stroke="black" d="M4177.16,-163.923C4200.87,-148.432 4236.27,-125.298 4268.99,-103.917"/>
<polygon fill="black" stroke="black" points="4271.23,-106.634 4277.69,-98.2336 4267.4,-100.774 4271.23,-106.634"/>
</g>
<!-- 38 -->
<g id="node39" class="node"><title>38</title>
<path fill="#e9d3ff" stroke="black" d="M4815,-98C4815,-98 4534,-98 4534,-98 4528,-98 4522,-92 4522,-86 4522,-86 4522,-12 4522,-12 4522,-6 4528,-0 4534,-0 4534,-0 4815,-0 4815,-0 4821,-0 4827,-6 4827,-12 4827,-12 4827,-86 4827,-86 4827,-92 4821,-98 4815,-98"/>
<text text-anchor="middle" x="4674.5" y="-82.8" font-family="Times,serif" font-size="14.00">forward</text>
<text text-anchor="middle" x="4674.5" y="-67.8" font-family="Times,serif" font-size="14.00">CB2/C2</text>
<text text-anchor="middle" x="4674.5" y="-52.8" font-family="Times,serif" font-size="14.00">dilation rate: 1 &#160;&#160;k width: 3</text>
<text text-anchor="middle" x="4674.5" y="-37.8" font-family="Times,serif" font-size="14.00">log gamma1: &#45;11.000000 &#160;&#160;log gamma2: &#45;11.000000</text>
<text text-anchor="middle" x="4674.5" y="-22.8" font-family="Times,serif" font-size="14.00">log lambda1: &#45;11.000000 &#160;&#160;log lambda2: &#45;11.000000</text>
<text text-anchor="middle" x="4674.5" y="-7.8" font-family="Times,serif" font-size="14.00">n kernels: 64</text>
</g>
<!-- 19&#45;&gt;38 -->
<g id="edge38" class="edge"><title>19&#45;&gt;38</title>
<path fill="none" stroke="black" d="M4441.56,-156.393C4475.21,-141.023 4519.26,-120.906 4559.98,-102.306"/>
<polygon fill="black" stroke="black" points="4561.52,-105.453 4569.16,-98.1148 4558.61,-99.0858 4561.52,-105.453"/>
</g>
<!-- 39 -->
<g id="node40" class="node"><title>39</title>
<path fill="#e9d3ff" stroke="black" d="M5138,-98C5138,-98 4857,-98 4857,-98 4851,-98 4845,-92 4845,-86 4845,-86 4845,-12 4845,-12 4845,-6 4851,-0 4857,-0 4857,-0 5138,-0 5138,-0 5144,-0 5150,-6 5150,-12 5150,-12 5150,-86 5150,-86 5150,-92 5144,-98 5138,-98"/>
<text text-anchor="middle" x="4997.5" y="-82.8" font-family="Times,serif" font-size="14.00">forward</text>
<text text-anchor="middle" x="4997.5" y="-67.8" font-family="Times,serif" font-size="14.00">CB2/C3</text>
<text text-anchor="middle" x="4997.5" y="-52.8" font-family="Times,serif" font-size="14.00">dilation rate: 1 &#160;&#160;k width: 3</text>
<text text-anchor="middle" x="4997.5" y="-37.8" font-family="Times,serif" font-size="14.00">log gamma1: &#45;11.000000 &#160;&#160;log gamma2: &#45;11.000000</text>
<text text-anchor="middle" x="4997.5" y="-22.8" font-family="Times,serif" font-size="14.00">log lambda1: &#45;11.000000 &#160;&#160;log lambda2: &#45;11.000000</text>
<text text-anchor="middle" x="4997.5" y="-7.8" font-family="Times,serif" font-size="14.00">n kernels: 64</text>
</g>
<!-- 20&#45;&gt;39 -->
<g id="edge39" class="edge"><title>20&#45;&gt;39</title>
<path fill="none" stroke="black" d="M4664.48,-163.936C4682.37,-154.277 4705.28,-142.631 4726.5,-134 4738.21,-129.238 4784.09,-114.792 4834.86,-99.1932"/>
<polygon fill="black" stroke="black" points="4836.19,-102.444 4844.72,-96.1651 4834.14,-95.7524 4836.19,-102.444"/>
</g>
</g>
</svg>
