<?xml version="1.0" encoding="UTF-8" standalone="no"?>
<!DOCTYPE svg PUBLIC "-//W3C//DTD SVG 1.1//EN"
 "http://www.w3.org/Graphics/SVG/1.1/DTD/svg11.dtd">
<!-- Generated by graphviz version 2.38.0 (20140413.2041)
 -->
<!-- Title: %3 Pages: 1 -->
<svg width="2425pt" height="387pt"
 viewBox="0.00 0.00 2425.00 387.00" xmlns="http://www.w3.org/2000/svg" xmlns:xlink="http://www.w3.org/1999/xlink">
<g id="graph0" class="graph" transform="scale(1 1) rotate(0) translate(4 383)">
<title>%3</title>
<polygon fill="none" stroke="none" points="-4,4 -4,-383 2421,-383 2421,4 -4,4"/>
<!-- 0 -->
<g id="node1" class="node"><title>0</title>
<path fill="#ffd3d3" stroke="black" d="M1333,-379C1333,-379 1263,-379 1263,-379 1257,-379 1251,-373 1251,-367 1251,-367 1251,-353 1251,-353 1251,-347 1257,-341 1263,-341 1263,-341 1333,-341 1333,-341 1339,-341 1345,-347 1345,-353 1345,-353 1345,-367 1345,-367 1345,-373 1339,-379 1333,-379"/>
<text text-anchor="middle" x="1298" y="-363.8" font-family="Times,serif" font-size="14.00">net</text>
<text text-anchor="middle" x="1298" y="-348.8" font-family="Times,serif" font-size="14.00">n kernels: 125</text>
</g>
<!-- 1 -->
<g id="node2" class="node"><title>1</title>
<path fill="#f6ffd3" stroke="black" d="M1006.5,-297.5C1006.5,-297.5 931.5,-297.5 931.5,-297.5 925.5,-297.5 919.5,-291.5 919.5,-285.5 919.5,-285.5 919.5,-271.5 919.5,-271.5 919.5,-265.5 925.5,-259.5 931.5,-259.5 931.5,-259.5 1006.5,-259.5 1006.5,-259.5 1012.5,-259.5 1018.5,-265.5 1018.5,-271.5 1018.5,-271.5 1018.5,-285.5 1018.5,-285.5 1018.5,-291.5 1012.5,-297.5 1006.5,-297.5"/>
<text text-anchor="middle" x="969" y="-282.3" font-family="Times,serif" font-size="14.00">encoder</text>
<text text-anchor="middle" x="969" y="-267.3" font-family="Times,serif" font-size="14.00">pooling type: 1</text>
</g>
<!-- 0&#45;&gt;1 -->
<g id="edge1" class="edge"><title>0&#45;&gt;1</title>
<path fill="none" stroke="black" d="M1250.86,-347.61C1192.34,-333.468 1092.46,-309.334 1028.66,-293.916"/>
<polygon fill="black" stroke="black" points="1029.28,-290.466 1018.74,-291.52 1027.64,-297.271 1029.28,-290.466"/>
</g>
<!-- 2 -->
<g id="node3" class="node"><title>2</title>
<path fill="#f6ffd3" stroke="black" d="M1758.5,-305C1758.5,-305 1495.5,-305 1495.5,-305 1489.5,-305 1483.5,-299 1483.5,-293 1483.5,-293 1483.5,-264 1483.5,-264 1483.5,-258 1489.5,-252 1495.5,-252 1495.5,-252 1758.5,-252 1758.5,-252 1764.5,-252 1770.5,-258 1770.5,-264 1770.5,-264 1770.5,-293 1770.5,-293 1770.5,-299 1764.5,-305 1758.5,-305"/>
<text text-anchor="middle" x="1627" y="-289.8" font-family="Times,serif" font-size="14.00">decoder</text>
<text text-anchor="middle" x="1627" y="-274.8" font-family="Times,serif" font-size="14.00">log gamma1: 0.402521 &#160;&#160;log gamma2: &#45;0.047982</text>
<text text-anchor="middle" x="1627" y="-259.8" font-family="Times,serif" font-size="14.00">n kernels: 3</text>
</g>
<!-- 0&#45;&gt;2 -->
<g id="edge2" class="edge"><title>0&#45;&gt;2</title>
<path fill="none" stroke="black" d="M1345.14,-347.61C1388.39,-337.159 1454.22,-321.25 1511.39,-307.436"/>
<polygon fill="black" stroke="black" points="1512.32,-310.812 1521.22,-305.061 1510.68,-304.007 1512.32,-310.812"/>
</g>
<!-- 3 -->
<g id="node4" class="node"><title>3</title>
<path fill="#d3ffe4" stroke="black" d="M507,-208.5C507,-208.5 307,-208.5 307,-208.5 301,-208.5 295,-202.5 295,-196.5 295,-196.5 295,-182.5 295,-182.5 295,-176.5 301,-170.5 307,-170.5 307,-170.5 507,-170.5 507,-170.5 513,-170.5 519,-176.5 519,-182.5 519,-182.5 519,-196.5 519,-196.5 519,-202.5 513,-208.5 507,-208.5"/>
<text text-anchor="middle" x="407" y="-193.3" font-family="Times,serif" font-size="14.00">encode block 0</text>
<text text-anchor="middle" x="407" y="-178.3" font-family="Times,serif" font-size="14.00">log gamma2: &#45;0.275726 &#160;&#160;n kernels: 6</text>
</g>
<!-- 1&#45;&gt;3 -->
<g id="edge3" class="edge"><title>1&#45;&gt;3</title>
<path fill="none" stroke="black" d="M919.126,-269.779C832.312,-256.34 651.063,-228.282 529.176,-209.413"/>
<polygon fill="black" stroke="black" points="529.458,-205.915 519.04,-207.844 528.387,-212.833 529.458,-205.915"/>
</g>
<!-- 4 -->
<g id="node5" class="node"><title>4</title>
<path fill="#bfe6cf" stroke="black" d="M1100.5,-216C1100.5,-216 837.5,-216 837.5,-216 831.5,-216 825.5,-210 825.5,-204 825.5,-204 825.5,-175 825.5,-175 825.5,-169 831.5,-163 837.5,-163 837.5,-163 1100.5,-163 1100.5,-163 1106.5,-163 1112.5,-169 1112.5,-175 1112.5,-175 1112.5,-204 1112.5,-204 1112.5,-210 1106.5,-216 1100.5,-216"/>
<text text-anchor="middle" x="969" y="-200.8" font-family="Times,serif" font-size="14.00">encode block 1</text>
<text text-anchor="middle" x="969" y="-185.8" font-family="Times,serif" font-size="14.00">log gamma1: 0.000735 &#160;&#160;log gamma2: &#45;0.108420</text>
<text text-anchor="middle" x="969" y="-170.8" font-family="Times,serif" font-size="14.00">n kernels: 1 &#160;&#160;spatial scale: 1</text>
</g>
<!-- 1&#45;&gt;4 -->
<g id="edge4" class="edge"><title>1&#45;&gt;4</title>
<path fill="none" stroke="black" d="M969,-259.474C969,-249.871 969,-237.711 969,-226.285"/>
<polygon fill="black" stroke="black" points="972.5,-226.092 969,-216.092 965.5,-226.092 972.5,-226.092"/>
</g>
<!-- 5 -->
<g id="node6" class="node"><title>5</title>
<path fill="#d3ffe4" stroke="black" d="M1727,-216C1727,-216 1527,-216 1527,-216 1521,-216 1515,-210 1515,-204 1515,-204 1515,-175 1515,-175 1515,-169 1521,-163 1527,-163 1527,-163 1727,-163 1727,-163 1733,-163 1739,-169 1739,-175 1739,-175 1739,-204 1739,-204 1739,-210 1733,-216 1727,-216"/>
<text text-anchor="middle" x="1627" y="-200.8" font-family="Times,serif" font-size="14.00">decode block 1</text>
<text text-anchor="middle" x="1627" y="-185.8" font-family="Times,serif" font-size="14.00">log gamma1: &#45;0.038259 &#160;&#160;n kernels: 9</text>
<text text-anchor="middle" x="1627" y="-170.8" font-family="Times,serif" font-size="14.00">pooling type: 1 &#160;&#160;spatial scale: 1</text>
</g>
<!-- 2&#45;&gt;5 -->
<g id="edge5" class="edge"><title>2&#45;&gt;5</title>
<path fill="none" stroke="black" d="M1627,-251.868C1627,-243.886 1627,-234.932 1627,-226.384"/>
<polygon fill="black" stroke="black" points="1630.5,-226.25 1627,-216.25 1623.5,-226.25 1630.5,-226.25"/>
</g>
<!-- 6 -->
<g id="node7" class="node"><title>6</title>
<path fill="#bfe6cf" stroke="black" d="M2195.5,-216C2195.5,-216 1936.5,-216 1936.5,-216 1930.5,-216 1924.5,-210 1924.5,-204 1924.5,-204 1924.5,-175 1924.5,-175 1924.5,-169 1930.5,-163 1936.5,-163 1936.5,-163 2195.5,-163 2195.5,-163 2201.5,-163 2207.5,-169 2207.5,-175 2207.5,-175 2207.5,-204 2207.5,-204 2207.5,-210 2201.5,-216 2195.5,-216"/>
<text text-anchor="middle" x="2066" y="-200.8" font-family="Times,serif" font-size="14.00">decode block 0</text>
<text text-anchor="middle" x="2066" y="-185.8" font-family="Times,serif" font-size="14.00">log gamma1: 0.220863 &#160;&#160;log gamma2: 0.388521</text>
<text text-anchor="middle" x="2066" y="-170.8" font-family="Times,serif" font-size="14.00">n kernels: &#45;2</text>
</g>
<!-- 2&#45;&gt;6 -->
<g id="edge6" class="edge"><title>2&#45;&gt;6</title>
<path fill="none" stroke="black" d="M1755.75,-251.985C1809.58,-241.317 1872.24,-228.899 1927.1,-218.026"/>
<polygon fill="black" stroke="black" points="1928.13,-221.392 1937.25,-216.015 1926.76,-214.525 1928.13,-221.392"/>
</g>
<!-- 7 -->
<g id="node8" class="node"><title>7</title>
<path fill="#d3e4ff" stroke="black" d="M218,-119.5C218,-119.5 12,-119.5 12,-119.5 6,-119.5 1.42109e-14,-113.5 1.42109e-14,-107.5 1.42109e-14,-107.5 1.42109e-14,-93.5 1.42109e-14,-93.5 1.42109e-14,-87.5 6,-81.5 12,-81.5 12,-81.5 218,-81.5 218,-81.5 224,-81.5 230,-87.5 230,-93.5 230,-93.5 230,-107.5 230,-107.5 230,-113.5 224,-119.5 218,-119.5"/>
<text text-anchor="middle" x="115" y="-104.3" font-family="Times,serif" font-size="14.00">comp 0</text>
<text text-anchor="middle" x="115" y="-89.3" font-family="Times,serif" font-size="14.00">log gamma1: 0.290165 &#160;&#160;n kernels: &#45;10</text>
</g>
<!-- 3&#45;&gt;7 -->
<g id="edge7" class="edge"><title>3&#45;&gt;7</title>
<path fill="none" stroke="black" d="M346.497,-170.474C299.515,-156.475 234.295,-137.043 185.051,-122.371"/>
<polygon fill="black" stroke="black" points="186.008,-119.005 175.425,-119.503 184.009,-125.713 186.008,-119.005"/>
</g>
<!-- 8 -->
<g id="node9" class="node"><title>8</title>
<path fill="#bfcfe6" stroke="black" d="M415.5,-119.5C415.5,-119.5 260.5,-119.5 260.5,-119.5 254.5,-119.5 248.5,-113.5 248.5,-107.5 248.5,-107.5 248.5,-93.5 248.5,-93.5 248.5,-87.5 254.5,-81.5 260.5,-81.5 260.5,-81.5 415.5,-81.5 415.5,-81.5 421.5,-81.5 427.5,-87.5 427.5,-93.5 427.5,-93.5 427.5,-107.5 427.5,-107.5 427.5,-113.5 421.5,-119.5 415.5,-119.5"/>
<text text-anchor="middle" x="338" y="-104.3" font-family="Times,serif" font-size="14.00">comp 1</text>
<text text-anchor="middle" x="338" y="-89.3" font-family="Times,serif" font-size="14.00">n kernels: 4 &#160;&#160;pooling type: &#45;1</text>
</g>
<!-- 3&#45;&gt;8 -->
<g id="edge8" class="edge"><title>3&#45;&gt;8</title>
<path fill="none" stroke="black" d="M392.703,-170.474C382.896,-158.109 369.727,-141.504 358.767,-127.685"/>
<polygon fill="black" stroke="black" points="361.235,-125.163 352.279,-119.503 355.75,-129.513 361.235,-125.163"/>
</g>
<!-- 9 -->
<g id="node10" class="node"><title>9</title>
<path fill="#abb9ce" stroke="black" d="M492,-118.5C492,-118.5 458,-118.5 458,-118.5 452,-118.5 446,-112.5 446,-106.5 446,-106.5 446,-94.5 446,-94.5 446,-88.5 452,-82.5 458,-82.5 458,-82.5 492,-82.5 492,-82.5 498,-82.5 504,-88.5 504,-94.5 504,-94.5 504,-106.5 504,-106.5 504,-112.5 498,-118.5 492,-118.5"/>
<text text-anchor="middle" x="475" y="-96.8" font-family="Times,serif" font-size="14.00">identity</text>
</g>
<!-- 3&#45;&gt;9 -->
<g id="edge9" class="edge"><title>3&#45;&gt;9</title>
<path fill="none" stroke="black" d="M421.09,-170.474C430.948,-157.861 444.253,-140.838 455.179,-126.859"/>
<polygon fill="black" stroke="black" points="458.222,-128.65 461.622,-118.615 452.707,-124.339 458.222,-128.65"/>
</g>
<!-- 10 -->
<g id="node11" class="node"><title>10</title>
<path fill="#d3e4ff" stroke="black" d="M797.5,-127C797.5,-127 534.5,-127 534.5,-127 528.5,-127 522.5,-121 522.5,-115 522.5,-115 522.5,-86 522.5,-86 522.5,-80 528.5,-74 534.5,-74 534.5,-74 797.5,-74 797.5,-74 803.5,-74 809.5,-80 809.5,-86 809.5,-86 809.5,-115 809.5,-115 809.5,-121 803.5,-127 797.5,-127"/>
<text text-anchor="middle" x="666" y="-111.8" font-family="Times,serif" font-size="14.00">comp 0</text>
<text text-anchor="middle" x="666" y="-96.8" font-family="Times,serif" font-size="14.00">log gamma1: &#45;0.457336 &#160;&#160;log gamma2: 0.125732</text>
<text text-anchor="middle" x="666" y="-81.8" font-family="Times,serif" font-size="14.00">n kernels: 5</text>
</g>
<!-- 4&#45;&gt;10 -->
<g id="edge10" class="edge"><title>4&#45;&gt;10</title>
<path fill="none" stroke="black" d="M880.137,-162.985C843.91,-152.583 801.883,-140.516 764.704,-129.841"/>
<polygon fill="black" stroke="black" points="765.439,-126.41 754.861,-127.015 763.507,-133.138 765.439,-126.41"/>
</g>
<!-- 11 -->
<g id="node12" class="node"><title>11</title>
<path fill="#bfcfe6" stroke="black" d="M1098.5,-119.5C1098.5,-119.5 839.5,-119.5 839.5,-119.5 833.5,-119.5 827.5,-113.5 827.5,-107.5 827.5,-107.5 827.5,-93.5 827.5,-93.5 827.5,-87.5 833.5,-81.5 839.5,-81.5 839.5,-81.5 1098.5,-81.5 1098.5,-81.5 1104.5,-81.5 1110.5,-87.5 1110.5,-93.5 1110.5,-93.5 1110.5,-107.5 1110.5,-107.5 1110.5,-113.5 1104.5,-119.5 1098.5,-119.5"/>
<text text-anchor="middle" x="969" y="-104.3" font-family="Times,serif" font-size="14.00">comp 1</text>
<text text-anchor="middle" x="969" y="-89.3" font-family="Times,serif" font-size="14.00">log gamma1: 0.394529 &#160;&#160;log gamma2: 0.177465</text>
</g>
<!-- 4&#45;&gt;11 -->
<g id="edge11" class="edge"><title>4&#45;&gt;11</title>
<path fill="none" stroke="black" d="M969,-162.868C969,-152.417 969,-140.301 969,-129.609"/>
<polygon fill="black" stroke="black" points="972.5,-129.507 969,-119.507 965.5,-129.507 972.5,-129.507"/>
</g>
<!-- 12 -->
<g id="node13" class="node"><title>12</title>
<path fill="#abb9ce" stroke="black" d="M1175,-118.5C1175,-118.5 1141,-118.5 1141,-118.5 1135,-118.5 1129,-112.5 1129,-106.5 1129,-106.5 1129,-94.5 1129,-94.5 1129,-88.5 1135,-82.5 1141,-82.5 1141,-82.5 1175,-82.5 1175,-82.5 1181,-82.5 1187,-88.5 1187,-94.5 1187,-94.5 1187,-106.5 1187,-106.5 1187,-112.5 1181,-118.5 1175,-118.5"/>
<text text-anchor="middle" x="1158" y="-96.8" font-family="Times,serif" font-size="14.00">identity</text>
</g>
<!-- 4&#45;&gt;12 -->
<g id="edge12" class="edge"><title>4&#45;&gt;12</title>
<path fill="none" stroke="black" d="M1039.33,-162.865C1064.9,-152.716 1093.71,-140.295 1119,-127 1120.77,-126.068 1122.57,-125.078 1124.36,-124.05"/>
<polygon fill="black" stroke="black" points="1126.5,-126.848 1133.25,-118.683 1122.88,-120.856 1126.5,-126.848"/>
</g>
<!-- 13 -->
<g id="node14" class="node"><title>13</title>
<path fill="#d3e4ff" stroke="black" d="M1485,-127C1485,-127 1217,-127 1217,-127 1211,-127 1205,-121 1205,-115 1205,-115 1205,-86 1205,-86 1205,-80 1211,-74 1217,-74 1217,-74 1485,-74 1485,-74 1491,-74 1497,-80 1497,-86 1497,-86 1497,-115 1497,-115 1497,-121 1491,-127 1485,-127"/>
<text text-anchor="middle" x="1351" y="-111.8" font-family="Times,serif" font-size="14.00">comp 0</text>
<text text-anchor="middle" x="1351" y="-96.8" font-family="Times,serif" font-size="14.00">log gamma1: &#45;0.189024 &#160;&#160;log gamma2: &#45;0.138503</text>
<text text-anchor="middle" x="1351" y="-81.8" font-family="Times,serif" font-size="14.00">n kernels: 5</text>
</g>
<!-- 5&#45;&gt;13 -->
<g id="edge13" class="edge"><title>5&#45;&gt;13</title>
<path fill="none" stroke="black" d="M1546.06,-162.985C1513.34,-152.672 1475.43,-140.721 1441.77,-130.114"/>
<polygon fill="black" stroke="black" points="1442.53,-126.683 1431.94,-127.015 1440.43,-133.359 1442.53,-126.683"/>
</g>
<!-- 14 -->
<g id="node15" class="node"><title>14</title>
<path fill="#bfcfe6" stroke="black" d="M1727,-119.5C1727,-119.5 1527,-119.5 1527,-119.5 1521,-119.5 1515,-113.5 1515,-107.5 1515,-107.5 1515,-93.5 1515,-93.5 1515,-87.5 1521,-81.5 1527,-81.5 1527,-81.5 1727,-81.5 1727,-81.5 1733,-81.5 1739,-87.5 1739,-93.5 1739,-93.5 1739,-107.5 1739,-107.5 1739,-113.5 1733,-119.5 1727,-119.5"/>
<text text-anchor="middle" x="1627" y="-104.3" font-family="Times,serif" font-size="14.00">comp 1</text>
<text text-anchor="middle" x="1627" y="-89.3" font-family="Times,serif" font-size="14.00">log gamma1: &#45;0.216533 &#160;&#160;n kernels: 5</text>
</g>
<!-- 5&#45;&gt;14 -->
<g id="edge14" class="edge"><title>5&#45;&gt;14</title>
<path fill="none" stroke="black" d="M1627,-162.868C1627,-152.417 1627,-140.301 1627,-129.609"/>
<polygon fill="black" stroke="black" points="1630.5,-129.507 1627,-119.507 1623.5,-129.507 1630.5,-129.507"/>
</g>
<!-- 15 -->
<g id="node16" class="node"><title>15</title>
<path fill="#abb9ce" stroke="black" d="M1803,-118.5C1803,-118.5 1769,-118.5 1769,-118.5 1763,-118.5 1757,-112.5 1757,-106.5 1757,-106.5 1757,-94.5 1757,-94.5 1757,-88.5 1763,-82.5 1769,-82.5 1769,-82.5 1803,-82.5 1803,-82.5 1809,-82.5 1815,-88.5 1815,-94.5 1815,-94.5 1815,-106.5 1815,-106.5 1815,-112.5 1809,-118.5 1803,-118.5"/>
<text text-anchor="middle" x="1786" y="-96.8" font-family="Times,serif" font-size="14.00">identity</text>
</g>
<!-- 5&#45;&gt;15 -->
<g id="edge15" class="edge"><title>5&#45;&gt;15</title>
<path fill="none" stroke="black" d="M1680.75,-162.92C1702.01,-152.358 1726.46,-139.641 1748,-127 1749.51,-126.115 1751.04,-125.195 1752.57,-124.25"/>
<polygon fill="black" stroke="black" points="1754.78,-126.994 1761.34,-118.673 1751.02,-121.088 1754.78,-126.994"/>
</g>
<!-- 16 -->
<g id="node17" class="node"><title>16</title>
<path fill="#d3e4ff" stroke="black" d="M2045,-127C2045,-127 1845,-127 1845,-127 1839,-127 1833,-121 1833,-115 1833,-115 1833,-86 1833,-86 1833,-80 1839,-74 1845,-74 1845,-74 2045,-74 2045,-74 2051,-74 2057,-80 2057,-86 2057,-86 2057,-115 2057,-115 2057,-121 2051,-127 2045,-127"/>
<text text-anchor="middle" x="1945" y="-111.8" font-family="Times,serif" font-size="14.00">comp 0</text>
<text text-anchor="middle" x="1945" y="-96.8" font-family="Times,serif" font-size="14.00">log gamma2: &#45;0.082388 &#160;&#160;n kernels: 3</text>
<text text-anchor="middle" x="1945" y="-81.8" font-family="Times,serif" font-size="14.00">pooling type: 1</text>
</g>
<!-- 6&#45;&gt;16 -->
<g id="edge16" class="edge"><title>6&#45;&gt;16</title>
<path fill="none" stroke="black" d="M2030.35,-162.868C2017.42,-153.57 2002.65,-142.954 1989.08,-133.196"/>
<polygon fill="black" stroke="black" points="1990.98,-130.246 1980.81,-127.25 1986.89,-135.929 1990.98,-130.246"/>
</g>
<!-- 17 -->
<g id="node18" class="node"><title>17</title>
<path fill="#bfcfe6" stroke="black" d="M2287,-119.5C2287,-119.5 2087,-119.5 2087,-119.5 2081,-119.5 2075,-113.5 2075,-107.5 2075,-107.5 2075,-93.5 2075,-93.5 2075,-87.5 2081,-81.5 2087,-81.5 2087,-81.5 2287,-81.5 2287,-81.5 2293,-81.5 2299,-87.5 2299,-93.5 2299,-93.5 2299,-107.5 2299,-107.5 2299,-113.5 2293,-119.5 2287,-119.5"/>
<text text-anchor="middle" x="2187" y="-104.3" font-family="Times,serif" font-size="14.00">comp 1</text>
<text text-anchor="middle" x="2187" y="-89.3" font-family="Times,serif" font-size="14.00">log gamma2: 0.111225 &#160;&#160;n kernels: &#45;1</text>
</g>
<!-- 6&#45;&gt;17 -->
<g id="edge17" class="edge"><title>6&#45;&gt;17</title>
<path fill="none" stroke="black" d="M2101.65,-162.868C2118.15,-151.002 2137.64,-136.989 2153.83,-125.352"/>
<polygon fill="black" stroke="black" points="2155.88,-128.186 2161.96,-119.507 2151.79,-122.503 2155.88,-128.186"/>
</g>
<!-- 18 -->
<g id="node19" class="node"><title>18</title>
<path fill="#abb9ce" stroke="black" d="M2363,-118.5C2363,-118.5 2329,-118.5 2329,-118.5 2323,-118.5 2317,-112.5 2317,-106.5 2317,-106.5 2317,-94.5 2317,-94.5 2317,-88.5 2323,-82.5 2329,-82.5 2329,-82.5 2363,-82.5 2363,-82.5 2369,-82.5 2375,-88.5 2375,-94.5 2375,-94.5 2375,-106.5 2375,-106.5 2375,-112.5 2369,-118.5 2363,-118.5"/>
<text text-anchor="middle" x="2346" y="-96.8" font-family="Times,serif" font-size="14.00">identity</text>
</g>
<!-- 6&#45;&gt;18 -->
<g id="edge18" class="edge"><title>6&#45;&gt;18</title>
<path fill="none" stroke="black" d="M2200.64,-162.947C2236.37,-153.85 2274.35,-142.023 2308,-127 2310.06,-126.079 2312.14,-125.048 2314.19,-123.942"/>
<polygon fill="black" stroke="black" points="2316.18,-126.832 2323.01,-118.732 2312.62,-120.805 2316.18,-126.832"/>
</g>
<!-- 19 -->
<g id="node20" class="node"><title>19</title>
<path fill="#f6d3ff" stroke="black" d="M132.5,-38C132.5,-38 97.5,-38 97.5,-38 91.5,-38 85.5,-32 85.5,-26 85.5,-26 85.5,-12 85.5,-12 85.5,-6 91.5,-0 97.5,-0 97.5,-0 132.5,-0 132.5,-0 138.5,-0 144.5,-6 144.5,-12 144.5,-12 144.5,-26 144.5,-26 144.5,-32 138.5,-38 132.5,-38"/>
<text text-anchor="middle" x="115" y="-22.8" font-family="Times,serif" font-size="14.00">forward</text>
<text text-anchor="middle" x="115" y="-7.8" font-family="Times,serif" font-size="14.00">input</text>
</g>
<!-- 7&#45;&gt;19 -->
<g id="edge19" class="edge"><title>7&#45;&gt;19</title>
<path fill="none" stroke="black" d="M115,-81.4602C115,-71.67 115,-59.3453 115,-48.3073"/>
<polygon fill="black" stroke="black" points="118.5,-48.2435 115,-38.2436 111.5,-48.2436 118.5,-48.2435"/>
</g>
<!-- 20 -->
<g id="node21" class="node"><title>20</title>
<path fill="#f6d3ff" stroke="black" d="M356,-38C356,-38 320,-38 320,-38 314,-38 308,-32 308,-26 308,-26 308,-12 308,-12 308,-6 314,-0 320,-0 320,-0 356,-0 356,-0 362,-0 368,-6 368,-12 368,-12 368,-26 368,-26 368,-32 362,-38 356,-38"/>
<text text-anchor="middle" x="338" y="-22.8" font-family="Times,serif" font-size="14.00">forward</text>
<text text-anchor="middle" x="338" y="-7.8" font-family="Times,serif" font-size="14.00">EB0/C0</text>
</g>
<!-- 8&#45;&gt;20 -->
<g id="edge20" class="edge"><title>8&#45;&gt;20</title>
<path fill="none" stroke="black" d="M338,-81.4602C338,-71.67 338,-59.3453 338,-48.3073"/>
<polygon fill="black" stroke="black" points="341.5,-48.2435 338,-38.2436 334.5,-48.2436 341.5,-48.2435"/>
</g>
<!-- 21 -->
<g id="node22" class="node"><title>21</title>
<path fill="#f6d3ff" stroke="black" d="M463,-38C463,-38 427,-38 427,-38 421,-38 415,-32 415,-26 415,-26 415,-12 415,-12 415,-6 421,-0 427,-0 427,-0 463,-0 463,-0 469,-0 475,-6 475,-12 475,-12 475,-26 475,-26 475,-32 469,-38 463,-38"/>
<text text-anchor="middle" x="445" y="-22.8" font-family="Times,serif" font-size="14.00">residual</text>
<text text-anchor="middle" x="445" y="-7.8" font-family="Times,serif" font-size="14.00">EB0/C0</text>
</g>
<!-- 9&#45;&gt;21 -->
<g id="edge21" class="edge"><title>9&#45;&gt;21</title>
<path fill="none" stroke="black" d="M468.49,-82.2497C464.678,-72.148 459.776,-59.1556 455.436,-47.6559"/>
<polygon fill="black" stroke="black" points="458.614,-46.1647 451.809,-38.0444 452.065,-48.6362 458.614,-46.1647"/>
</g>
<!-- 22 -->
<g id="node23" class="node"><title>22</title>
<path fill="#debfe6" stroke="black" d="M541,-38C541,-38 505,-38 505,-38 499,-38 493,-32 493,-26 493,-26 493,-12 493,-12 493,-6 499,-0 505,-0 505,-0 541,-0 541,-0 547,-0 553,-6 553,-12 553,-12 553,-26 553,-26 553,-32 547,-38 541,-38"/>
<text text-anchor="middle" x="523" y="-22.8" font-family="Times,serif" font-size="14.00">forward</text>
<text text-anchor="middle" x="523" y="-7.8" font-family="Times,serif" font-size="14.00">EB0/C1</text>
</g>
<!-- 9&#45;&gt;22 -->
<g id="edge22" class="edge"><title>9&#45;&gt;22</title>
<path fill="none" stroke="black" d="M485.415,-82.2497C491.699,-71.8419 499.836,-58.3655 506.931,-46.6147"/>
<polygon fill="black" stroke="black" points="509.933,-48.4142 512.105,-38.0444 503.94,-44.796 509.933,-48.4142"/>
</g>
<!-- 23 -->
<g id="node24" class="node"><title>23</title>
<path fill="#f6d3ff" stroke="black" d="M683.5,-38C683.5,-38 648.5,-38 648.5,-38 642.5,-38 636.5,-32 636.5,-26 636.5,-26 636.5,-12 636.5,-12 636.5,-6 642.5,-0 648.5,-0 648.5,-0 683.5,-0 683.5,-0 689.5,-0 695.5,-6 695.5,-12 695.5,-12 695.5,-26 695.5,-26 695.5,-32 689.5,-38 683.5,-38"/>
<text text-anchor="middle" x="666" y="-22.8" font-family="Times,serif" font-size="14.00">forward</text>
<text text-anchor="middle" x="666" y="-7.8" font-family="Times,serif" font-size="14.00">EB0/I</text>
</g>
<!-- 10&#45;&gt;23 -->
<g id="edge23" class="edge"><title>10&#45;&gt;23</title>
<path fill="none" stroke="black" d="M666,-73.9081C666,-65.7377 666,-56.6492 666,-48.2981"/>
<polygon fill="black" stroke="black" points="669.5,-48.2389 666,-38.2389 662.5,-48.2389 669.5,-48.2389"/>
</g>
<!-- 24 -->
<g id="node25" class="node"><title>24</title>
<path fill="#f6d3ff" stroke="black" d="M987,-38C987,-38 951,-38 951,-38 945,-38 939,-32 939,-26 939,-26 939,-12 939,-12 939,-6 945,-0 951,-0 951,-0 987,-0 987,-0 993,-0 999,-6 999,-12 999,-12 999,-26 999,-26 999,-32 993,-38 987,-38"/>
<text text-anchor="middle" x="969" y="-22.8" font-family="Times,serif" font-size="14.00">forward</text>
<text text-anchor="middle" x="969" y="-7.8" font-family="Times,serif" font-size="14.00">EB1/C0</text>
</g>
<!-- 11&#45;&gt;24 -->
<g id="edge24" class="edge"><title>11&#45;&gt;24</title>
<path fill="none" stroke="black" d="M969,-81.4602C969,-71.67 969,-59.3453 969,-48.3073"/>
<polygon fill="black" stroke="black" points="972.5,-48.2435 969,-38.2436 965.5,-48.2436 972.5,-48.2435"/>
</g>
<!-- 25 -->
<g id="node26" class="node"><title>25</title>
<path fill="#f6d3ff" stroke="black" d="M1118,-38C1118,-38 1082,-38 1082,-38 1076,-38 1070,-32 1070,-26 1070,-26 1070,-12 1070,-12 1070,-6 1076,-0 1082,-0 1082,-0 1118,-0 1118,-0 1124,-0 1130,-6 1130,-12 1130,-12 1130,-26 1130,-26 1130,-32 1124,-38 1118,-38"/>
<text text-anchor="middle" x="1100" y="-22.8" font-family="Times,serif" font-size="14.00">residual</text>
<text text-anchor="middle" x="1100" y="-7.8" font-family="Times,serif" font-size="14.00">EB1/C0</text>
</g>
<!-- 12&#45;&gt;25 -->
<g id="edge25" class="edge"><title>12&#45;&gt;25</title>
<path fill="none" stroke="black" d="M1145.41,-82.2497C1137.75,-71.7398 1127.8,-58.101 1119.17,-46.2695"/>
<polygon fill="black" stroke="black" points="1121.89,-44.0602 1113.16,-38.0444 1116.23,-48.1859 1121.89,-44.0602"/>
</g>
<!-- 26 -->
<g id="node27" class="node"><title>26</title>
<path fill="#debfe6" stroke="black" d="M1196,-38C1196,-38 1160,-38 1160,-38 1154,-38 1148,-32 1148,-26 1148,-26 1148,-12 1148,-12 1148,-6 1154,-0 1160,-0 1160,-0 1196,-0 1196,-0 1202,-0 1208,-6 1208,-12 1208,-12 1208,-26 1208,-26 1208,-32 1202,-38 1196,-38"/>
<text text-anchor="middle" x="1178" y="-22.8" font-family="Times,serif" font-size="14.00">forward</text>
<text text-anchor="middle" x="1178" y="-7.8" font-family="Times,serif" font-size="14.00">EB1/C1</text>
</g>
<!-- 12&#45;&gt;26 -->
<g id="edge26" class="edge"><title>12&#45;&gt;26</title>
<path fill="none" stroke="black" d="M1162.34,-82.2497C1164.86,-72.25 1168.08,-59.4178 1170.95,-48.0048"/>
<polygon fill="black" stroke="black" points="1174.41,-48.5962 1173.46,-38.0444 1167.63,-46.8883 1174.41,-48.5962"/>
</g>
<!-- 27 -->
<g id="node28" class="node"><title>27</title>
<path fill="#f6d3ff" stroke="black" d="M1330.5,-38C1330.5,-38 1295.5,-38 1295.5,-38 1289.5,-38 1283.5,-32 1283.5,-26 1283.5,-26 1283.5,-12 1283.5,-12 1283.5,-6 1289.5,-0 1295.5,-0 1295.5,-0 1330.5,-0 1330.5,-0 1336.5,-0 1342.5,-6 1342.5,-12 1342.5,-12 1342.5,-26 1342.5,-26 1342.5,-32 1336.5,-38 1330.5,-38"/>
<text text-anchor="middle" x="1313" y="-22.8" font-family="Times,serif" font-size="14.00">forward</text>
<text text-anchor="middle" x="1313" y="-7.8" font-family="Times,serif" font-size="14.00">EB1/I</text>
</g>
<!-- 13&#45;&gt;27 -->
<g id="edge27" class="edge"><title>13&#45;&gt;27</title>
<path fill="none" stroke="black" d="M1338.77,-73.9081C1334.73,-65.4653 1330.23,-56.0423 1326.13,-47.4655"/>
<polygon fill="black" stroke="black" points="1329.19,-45.7518 1321.72,-38.2389 1322.87,-48.7706 1329.19,-45.7518"/>
</g>
<!-- 28 -->
<g id="node29" class="node"><title>28</title>
<path fill="#debfe6" stroke="black" d="M1403,-38C1403,-38 1373,-38 1373,-38 1367,-38 1361,-32 1361,-26 1361,-26 1361,-12 1361,-12 1361,-6 1367,-0 1373,-0 1373,-0 1403,-0 1403,-0 1409,-0 1415,-6 1415,-12 1415,-12 1415,-26 1415,-26 1415,-32 1409,-38 1403,-38"/>
<text text-anchor="middle" x="1388" y="-22.8" font-family="Times,serif" font-size="14.00">merge</text>
<text text-anchor="middle" x="1388" y="-7.8" font-family="Times,serif" font-size="14.00">EB1/I</text>
</g>
<!-- 13&#45;&gt;28 -->
<g id="edge28" class="edge"><title>13&#45;&gt;28</title>
<path fill="none" stroke="black" d="M1362.91,-73.9081C1366.84,-65.4653 1371.23,-56.0423 1375.22,-47.4655"/>
<polygon fill="black" stroke="black" points="1378.47,-48.782 1379.51,-38.2389 1372.12,-45.8283 1378.47,-48.782"/>
</g>
<!-- 29 -->
<g id="node30" class="node"><title>29</title>
<path fill="#f6d3ff" stroke="black" d="M1646,-38C1646,-38 1608,-38 1608,-38 1602,-38 1596,-32 1596,-26 1596,-26 1596,-12 1596,-12 1596,-6 1602,-0 1608,-0 1608,-0 1646,-0 1646,-0 1652,-0 1658,-6 1658,-12 1658,-12 1658,-26 1658,-26 1658,-32 1652,-38 1646,-38"/>
<text text-anchor="middle" x="1627" y="-22.8" font-family="Times,serif" font-size="14.00">forward</text>
<text text-anchor="middle" x="1627" y="-7.8" font-family="Times,serif" font-size="14.00">DB1/C0</text>
</g>
<!-- 14&#45;&gt;29 -->
<g id="edge29" class="edge"><title>14&#45;&gt;29</title>
<path fill="none" stroke="black" d="M1627,-81.4602C1627,-71.67 1627,-59.3453 1627,-48.3073"/>
<polygon fill="black" stroke="black" points="1630.5,-48.2435 1627,-38.2436 1623.5,-48.2436 1630.5,-48.2435"/>
</g>
<!-- 30 -->
<g id="node31" class="node"><title>30</title>
<path fill="#f6d3ff" stroke="black" d="M1728,-38C1728,-38 1690,-38 1690,-38 1684,-38 1678,-32 1678,-26 1678,-26 1678,-12 1678,-12 1678,-6 1684,-0 1690,-0 1690,-0 1728,-0 1728,-0 1734,-0 1740,-6 1740,-12 1740,-12 1740,-26 1740,-26 1740,-32 1734,-38 1728,-38"/>
<text text-anchor="middle" x="1709" y="-22.8" font-family="Times,serif" font-size="14.00">residual</text>
<text text-anchor="middle" x="1709" y="-7.8" font-family="Times,serif" font-size="14.00">DB1/C0</text>
</g>
<!-- 15&#45;&gt;30 -->
<g id="edge30" class="edge"><title>15&#45;&gt;30</title>
<path fill="none" stroke="black" d="M1769.29,-82.2497C1758.82,-71.4337 1745.13,-57.3038 1733.45,-45.2405"/>
<polygon fill="black" stroke="black" points="1735.95,-42.7925 1726.48,-38.0444 1730.92,-47.6626 1735.95,-42.7925"/>
</g>
<!-- 31 -->
<g id="node32" class="node"><title>31</title>
<path fill="#debfe6" stroke="black" d="M1808,-38C1808,-38 1770,-38 1770,-38 1764,-38 1758,-32 1758,-26 1758,-26 1758,-12 1758,-12 1758,-6 1764,-0 1770,-0 1770,-0 1808,-0 1808,-0 1814,-0 1820,-6 1820,-12 1820,-12 1820,-26 1820,-26 1820,-32 1814,-38 1808,-38"/>
<text text-anchor="middle" x="1789" y="-22.8" font-family="Times,serif" font-size="14.00">forward</text>
<text text-anchor="middle" x="1789" y="-7.8" font-family="Times,serif" font-size="14.00">DB1/C1</text>
</g>
<!-- 15&#45;&gt;31 -->
<g id="edge31" class="edge"><title>15&#45;&gt;31</title>
<path fill="none" stroke="black" d="M1786.65,-82.2497C1787.02,-72.352 1787.5,-59.6794 1787.93,-48.3546"/>
<polygon fill="black" stroke="black" points="1791.44,-48.1693 1788.32,-38.0444 1784.44,-47.9053 1791.44,-48.1693"/>
</g>
<!-- 32 -->
<g id="node33" class="node"><title>32</title>
<path fill="#f6d3ff" stroke="black" d="M1924.5,-38C1924.5,-38 1889.5,-38 1889.5,-38 1883.5,-38 1877.5,-32 1877.5,-26 1877.5,-26 1877.5,-12 1877.5,-12 1877.5,-6 1883.5,-0 1889.5,-0 1889.5,-0 1924.5,-0 1924.5,-0 1930.5,-0 1936.5,-6 1936.5,-12 1936.5,-12 1936.5,-26 1936.5,-26 1936.5,-32 1930.5,-38 1924.5,-38"/>
<text text-anchor="middle" x="1907" y="-22.8" font-family="Times,serif" font-size="14.00">forward</text>
<text text-anchor="middle" x="1907" y="-7.8" font-family="Times,serif" font-size="14.00">DB1/I</text>
</g>
<!-- 16&#45;&gt;32 -->
<g id="edge32" class="edge"><title>16&#45;&gt;32</title>
<path fill="none" stroke="black" d="M1932.77,-73.9081C1928.73,-65.4653 1924.23,-56.0423 1920.13,-47.4655"/>
<polygon fill="black" stroke="black" points="1923.19,-45.7518 1915.72,-38.2389 1916.87,-48.7706 1923.19,-45.7518"/>
</g>
<!-- 33 -->
<g id="node34" class="node"><title>33</title>
<path fill="#debfe6" stroke="black" d="M1997,-38C1997,-38 1967,-38 1967,-38 1961,-38 1955,-32 1955,-26 1955,-26 1955,-12 1955,-12 1955,-6 1961,-0 1967,-0 1967,-0 1997,-0 1997,-0 2003,-0 2009,-6 2009,-12 2009,-12 2009,-26 2009,-26 2009,-32 2003,-38 1997,-38"/>
<text text-anchor="middle" x="1982" y="-22.8" font-family="Times,serif" font-size="14.00">merge</text>
<text text-anchor="middle" x="1982" y="-7.8" font-family="Times,serif" font-size="14.00">EB0/I</text>
</g>
<!-- 16&#45;&gt;33 -->
<g id="edge33" class="edge"><title>16&#45;&gt;33</title>
<path fill="none" stroke="black" d="M1956.91,-73.9081C1960.84,-65.4653 1965.23,-56.0423 1969.22,-47.4655"/>
<polygon fill="black" stroke="black" points="1972.47,-48.782 1973.51,-38.2389 1966.12,-45.8283 1972.47,-48.782"/>
</g>
<!-- 34 -->
<g id="node35" class="node"><title>34</title>
<path fill="#f6d3ff" stroke="black" d="M2206,-38C2206,-38 2168,-38 2168,-38 2162,-38 2156,-32 2156,-26 2156,-26 2156,-12 2156,-12 2156,-6 2162,-0 2168,-0 2168,-0 2206,-0 2206,-0 2212,-0 2218,-6 2218,-12 2218,-12 2218,-26 2218,-26 2218,-32 2212,-38 2206,-38"/>
<text text-anchor="middle" x="2187" y="-22.8" font-family="Times,serif" font-size="14.00">forward</text>
<text text-anchor="middle" x="2187" y="-7.8" font-family="Times,serif" font-size="14.00">DB0/C0</text>
</g>
<!-- 17&#45;&gt;34 -->
<g id="edge34" class="edge"><title>17&#45;&gt;34</title>
<path fill="none" stroke="black" d="M2187,-81.4602C2187,-71.67 2187,-59.3453 2187,-48.3073"/>
<polygon fill="black" stroke="black" points="2190.5,-48.2435 2187,-38.2436 2183.5,-48.2436 2190.5,-48.2435"/>
</g>
<!-- 35 -->
<g id="node36" class="node"><title>35</title>
<path fill="#f6d3ff" stroke="black" d="M2325,-38C2325,-38 2287,-38 2287,-38 2281,-38 2275,-32 2275,-26 2275,-26 2275,-12 2275,-12 2275,-6 2281,-0 2287,-0 2287,-0 2325,-0 2325,-0 2331,-0 2337,-6 2337,-12 2337,-12 2337,-26 2337,-26 2337,-32 2331,-38 2325,-38"/>
<text text-anchor="middle" x="2306" y="-22.8" font-family="Times,serif" font-size="14.00">residual</text>
<text text-anchor="middle" x="2306" y="-7.8" font-family="Times,serif" font-size="14.00">DB0/C0</text>
</g>
<!-- 18&#45;&gt;35 -->
<g id="edge35" class="edge"><title>18&#45;&gt;35</title>
<path fill="none" stroke="black" d="M2337.32,-82.2497C2332.19,-72.0459 2325.57,-58.8928 2319.74,-47.3078"/>
<polygon fill="black" stroke="black" points="2322.7,-45.4043 2315.08,-38.0444 2316.45,-48.5506 2322.7,-45.4043"/>
</g>
<!-- 36 -->
<g id="node37" class="node"><title>36</title>
<path fill="#debfe6" stroke="black" d="M2405,-38C2405,-38 2367,-38 2367,-38 2361,-38 2355,-32 2355,-26 2355,-26 2355,-12 2355,-12 2355,-6 2361,-0 2367,-0 2367,-0 2405,-0 2405,-0 2411,-0 2417,-6 2417,-12 2417,-12 2417,-26 2417,-26 2417,-32 2411,-38 2405,-38"/>
<text text-anchor="middle" x="2386" y="-22.8" font-family="Times,serif" font-size="14.00">forward</text>
<text text-anchor="middle" x="2386" y="-7.8" font-family="Times,serif" font-size="14.00">DB0/C1</text>
</g>
<!-- 18&#45;&gt;36 -->
<g id="edge36" class="edge"><title>18&#45;&gt;36</title>
<path fill="none" stroke="black" d="M2354.68,-82.2497C2359.81,-72.0459 2366.43,-58.8928 2372.26,-47.3078"/>
<polygon fill="black" stroke="black" points="2375.55,-48.5506 2376.92,-38.0444 2369.3,-45.4043 2375.55,-48.5506"/>
</g>
</g>
</svg>
