<?xml version="1.0" encoding="UTF-8" standalone="no"?>
<!DOCTYPE svg PUBLIC "-//W3C//DTD SVG 1.1//EN"
 "http://www.w3.org/Graphics/SVG/1.1/DTD/svg11.dtd">
<!-- Generated by graphviz version 2.38.0 (20140413.2041)
 -->
<!-- Title: %3 Pages: 1 -->
<svg width="3945pt" height="418pt"
 viewBox="0.00 0.00 3945.00 418.00" xmlns="http://www.w3.org/2000/svg" xmlns:xlink="http://www.w3.org/1999/xlink">
<g id="graph0" class="graph" transform="scale(1 1) rotate(0) translate(4 414)">
<title>%3</title>
<polygon fill="none" stroke="none" points="-4,4 -4,-414 3941,-414 3941,4 -4,4"/>
<!-- 0 -->
<g id="node1" class="node"><title>0</title>
<path fill="#ffd3d3" stroke="black" d="M2813,-410C2813,-410 2622,-410 2622,-410 2616,-410 2610,-404 2610,-398 2610,-398 2610,-369 2610,-369 2610,-363 2616,-357 2622,-357 2622,-357 2813,-357 2813,-357 2819,-357 2825,-363 2825,-369 2825,-369 2825,-398 2825,-398 2825,-404 2819,-410 2813,-410"/>
<text text-anchor="middle" x="2717.5" y="-394.8" font-family="Times,serif" font-size="14.00">net</text>
<text text-anchor="middle" x="2717.5" y="-379.8" font-family="Times,serif" font-size="14.00">k width: 3 &#160;&#160;log gamma2: &#45;3.258572</text>
<text text-anchor="middle" x="2717.5" y="-364.8" font-family="Times,serif" font-size="14.00">n kernels: 79</text>
</g>
<!-- 1 -->
<g id="node2" class="node"><title>1</title>
<path fill="#e9ffd3" stroke="black" d="M977,-312.5C977,-312.5 914,-312.5 914,-312.5 908,-312.5 902,-306.5 902,-300.5 902,-300.5 902,-288.5 902,-288.5 902,-282.5 908,-276.5 914,-276.5 914,-276.5 977,-276.5 977,-276.5 983,-276.5 989,-282.5 989,-288.5 989,-288.5 989,-300.5 989,-300.5 989,-306.5 983,-312.5 977,-312.5"/>
<text text-anchor="middle" x="945.5" y="-290.8" font-family="Times,serif" font-size="14.00">conv block 0</text>
</g>
<!-- 0&#45;&gt;1 -->
<g id="edge1" class="edge"><title>0&#45;&gt;1</title>
<path fill="none" stroke="black" d="M2609.98,-377.221C2273.27,-360.689 1246.83,-310.295 999.526,-298.153"/>
<polygon fill="black" stroke="black" points="999.516,-294.648 989.356,-297.653 999.173,-301.639 999.516,-294.648"/>
</g>
<!-- 2 -->
<g id="node3" class="node"><title>2</title>
<path fill="#e9ffd3" stroke="black" d="M2778.5,-321C2778.5,-321 2656.5,-321 2656.5,-321 2650.5,-321 2644.5,-315 2644.5,-309 2644.5,-309 2644.5,-280 2644.5,-280 2644.5,-274 2650.5,-268 2656.5,-268 2656.5,-268 2778.5,-268 2778.5,-268 2784.5,-268 2790.5,-274 2790.5,-280 2790.5,-280 2790.5,-309 2790.5,-309 2790.5,-315 2784.5,-321 2778.5,-321"/>
<text text-anchor="middle" x="2717.5" y="-305.8" font-family="Times,serif" font-size="14.00">conv block 1</text>
<text text-anchor="middle" x="2717.5" y="-290.8" font-family="Times,serif" font-size="14.00">n kernels: 79 &#160;&#160;pool z: 1</text>
<text text-anchor="middle" x="2717.5" y="-275.8" font-family="Times,serif" font-size="14.00">spatial scale: 1</text>
</g>
<!-- 0&#45;&gt;2 -->
<g id="edge2" class="edge"><title>0&#45;&gt;2</title>
<path fill="none" stroke="black" d="M2717.5,-356.868C2717.5,-348.886 2717.5,-339.932 2717.5,-331.384"/>
<polygon fill="black" stroke="black" points="2721,-331.25 2717.5,-321.25 2714,-331.25 2721,-331.25"/>
</g>
<!-- 3 -->
<g id="node4" class="node"><title>3</title>
<path fill="#e9ffd3" stroke="black" d="M3495,-312.5C3495,-312.5 3428,-312.5 3428,-312.5 3422,-312.5 3416,-306.5 3416,-300.5 3416,-300.5 3416,-288.5 3416,-288.5 3416,-282.5 3422,-276.5 3428,-276.5 3428,-276.5 3495,-276.5 3495,-276.5 3501,-276.5 3507,-282.5 3507,-288.5 3507,-288.5 3507,-300.5 3507,-300.5 3507,-306.5 3501,-312.5 3495,-312.5"/>
<text text-anchor="middle" x="3461.5" y="-290.8" font-family="Times,serif" font-size="14.00">path combine</text>
</g>
<!-- 0&#45;&gt;3 -->
<g id="edge3" class="edge"><title>0&#45;&gt;3</title>
<path fill="none" stroke="black" d="M2825.29,-369.896C2986.08,-351.093 3283,-316.373 3405.94,-301.996"/>
<polygon fill="black" stroke="black" points="3406.37,-305.471 3415.89,-300.833 3405.56,-298.518 3406.37,-305.471"/>
</g>
<!-- 4 -->
<g id="node5" class="node"><title>4</title>
<path fill="#d3ffff" stroke="black" d="M313.5,-202C313.5,-202 109.5,-202 109.5,-202 103.5,-202 97.5,-196 97.5,-190 97.5,-190 97.5,-176 97.5,-176 97.5,-170 103.5,-164 109.5,-164 109.5,-164 313.5,-164 313.5,-164 319.5,-164 325.5,-170 325.5,-176 325.5,-176 325.5,-190 325.5,-190 325.5,-196 319.5,-202 313.5,-202"/>
<text text-anchor="middle" x="211.5" y="-186.8" font-family="Times,serif" font-size="14.00">comp 0</text>
<text text-anchor="middle" x="211.5" y="-171.8" font-family="Times,serif" font-size="14.00">log gamma2: &#45;0.444678 &#160;&#160;n kernels: &#45;5</text>
</g>
<!-- 1&#45;&gt;4 -->
<g id="edge4" class="edge"><title>1&#45;&gt;4</title>
<path fill="none" stroke="black" d="M901.883,-290.828C808.18,-284.609 580.95,-266.965 393.5,-232 355.784,-224.965 314.381,-214.286 280.606,-204.786"/>
<polygon fill="black" stroke="black" points="281.414,-201.377 270.838,-202.012 279.501,-208.111 281.414,-201.377"/>
</g>
<!-- 5 -->
<g id="node6" class="node"><title>5</title>
<path fill="#bfe6e6" stroke="black" d="M682.5,-202C682.5,-202 414.5,-202 414.5,-202 408.5,-202 402.5,-196 402.5,-190 402.5,-190 402.5,-176 402.5,-176 402.5,-170 408.5,-164 414.5,-164 414.5,-164 682.5,-164 682.5,-164 688.5,-164 694.5,-170 694.5,-176 694.5,-176 694.5,-190 694.5,-190 694.5,-196 688.5,-202 682.5,-202"/>
<text text-anchor="middle" x="548.5" y="-186.8" font-family="Times,serif" font-size="14.00">comp 1</text>
<text text-anchor="middle" x="548.5" y="-171.8" font-family="Times,serif" font-size="14.00">log gamma1: &#45;1.728097 &#160;&#160;log gamma2: &#45;1.048858</text>
</g>
<!-- 1&#45;&gt;5 -->
<g id="edge5" class="edge"><title>1&#45;&gt;5</title>
<path fill="none" stroke="black" d="M901.878,-281.468C834.908,-262.997 705.897,-227.413 623.663,-204.731"/>
<polygon fill="black" stroke="black" points="624.445,-201.316 613.874,-202.031 622.583,-208.064 624.445,-201.316"/>
</g>
<!-- 6 -->
<g id="node7" class="node"><title>6</title>
<path fill="#abcece" stroke="black" d="M859,-202C859,-202 798,-202 798,-202 792,-202 786,-196 786,-190 786,-190 786,-176 786,-176 786,-170 792,-164 798,-164 798,-164 859,-164 859,-164 865,-164 871,-170 871,-176 871,-176 871,-190 871,-190 871,-196 865,-202 859,-202"/>
<text text-anchor="middle" x="828.5" y="-186.8" font-family="Times,serif" font-size="14.00">comp 2</text>
<text text-anchor="middle" x="828.5" y="-171.8" font-family="Times,serif" font-size="14.00">n kernels: &#45;7</text>
</g>
<!-- 1&#45;&gt;6 -->
<g id="edge6" class="edge"><title>1&#45;&gt;6</title>
<path fill="none" stroke="black" d="M927.219,-276.391C907.902,-258.312 877.245,-229.62 855.218,-209.006"/>
<polygon fill="black" stroke="black" points="857.513,-206.359 847.82,-202.082 852.73,-211.47 857.513,-206.359"/>
</g>
<!-- 7 -->
<g id="node8" class="node"><title>7</title>
<path fill="#97b6b6" stroke="black" d="M1191,-209.5C1191,-209.5 932,-209.5 932,-209.5 926,-209.5 920,-203.5 920,-197.5 920,-197.5 920,-168.5 920,-168.5 920,-162.5 926,-156.5 932,-156.5 932,-156.5 1191,-156.5 1191,-156.5 1197,-156.5 1203,-162.5 1203,-168.5 1203,-168.5 1203,-197.5 1203,-197.5 1203,-203.5 1197,-209.5 1191,-209.5"/>
<text text-anchor="middle" x="1061.5" y="-194.3" font-family="Times,serif" font-size="14.00">comp 3</text>
<text text-anchor="middle" x="1061.5" y="-179.3" font-family="Times,serif" font-size="14.00">log gamma1: 1.770608 &#160;&#160;log gamma2: 0.258572</text>
<text text-anchor="middle" x="1061.5" y="-164.3" font-family="Times,serif" font-size="14.00">n kernels: &#45;19</text>
</g>
<!-- 1&#45;&gt;7 -->
<g id="edge7" class="edge"><title>1&#45;&gt;7</title>
<path fill="none" stroke="black" d="M963.625,-276.391C980.537,-260.426 1006.22,-236.187 1027.03,-216.541"/>
<polygon fill="black" stroke="black" points="1029.58,-218.944 1034.45,-209.535 1024.78,-213.854 1029.58,-218.944"/>
</g>
<!-- 8 -->
<g id="node9" class="node"><title>8</title>
<path fill="#839e9e" stroke="black" d="M1533,-209.5C1533,-209.5 1274,-209.5 1274,-209.5 1268,-209.5 1262,-203.5 1262,-197.5 1262,-197.5 1262,-168.5 1262,-168.5 1262,-162.5 1268,-156.5 1274,-156.5 1274,-156.5 1533,-156.5 1533,-156.5 1539,-156.5 1545,-162.5 1545,-168.5 1545,-168.5 1545,-197.5 1545,-197.5 1545,-203.5 1539,-209.5 1533,-209.5"/>
<text text-anchor="middle" x="1403.5" y="-194.3" font-family="Times,serif" font-size="14.00">comp 4</text>
<text text-anchor="middle" x="1403.5" y="-179.3" font-family="Times,serif" font-size="14.00">log gamma1: 0.968192 &#160;&#160;log gamma2: 0.258572</text>
<text text-anchor="middle" x="1403.5" y="-164.3" font-family="Times,serif" font-size="14.00">n kernels: 19</text>
</g>
<!-- 1&#45;&gt;8 -->
<g id="edge8" class="edge"><title>1&#45;&gt;8</title>
<path fill="none" stroke="black" d="M989.331,-283.617C1042.1,-271.66 1133.39,-250.792 1211.5,-232 1237.83,-225.665 1266.15,-218.681 1292.73,-212.048"/>
<polygon fill="black" stroke="black" points="1293.59,-215.442 1302.44,-209.622 1291.89,-208.651 1293.59,-215.442"/>
</g>
<!-- 9 -->
<g id="node10" class="node"><title>9</title>
<path fill="#d3ffff" stroke="black" d="M1962,-202C1962,-202 1837,-202 1837,-202 1831,-202 1825,-196 1825,-190 1825,-190 1825,-176 1825,-176 1825,-170 1831,-164 1837,-164 1837,-164 1962,-164 1962,-164 1968,-164 1974,-170 1974,-176 1974,-176 1974,-190 1974,-190 1974,-196 1968,-202 1962,-202"/>
<text text-anchor="middle" x="1899.5" y="-186.8" font-family="Times,serif" font-size="14.00">comp 0</text>
<text text-anchor="middle" x="1899.5" y="-171.8" font-family="Times,serif" font-size="14.00">log gamma2: &#45;1.092197</text>
</g>
<!-- 2&#45;&gt;9 -->
<g id="edge9" class="edge"><title>2&#45;&gt;9</title>
<path fill="none" stroke="black" d="M2644.06,-288.736C2530.45,-280.748 2305.48,-262.465 2116.5,-232 2071.46,-224.738 2021.72,-213.944 1981.25,-204.429"/>
<polygon fill="black" stroke="black" points="1981.97,-201.004 1971.43,-202.105 1980.36,-207.815 1981.97,-201.004"/>
</g>
<!-- 10 -->
<g id="node11" class="node"><title>10</title>
<path fill="#bfe6e6" stroke="black" d="M2205.5,-202C2205.5,-202 2137.5,-202 2137.5,-202 2131.5,-202 2125.5,-196 2125.5,-190 2125.5,-190 2125.5,-176 2125.5,-176 2125.5,-170 2131.5,-164 2137.5,-164 2137.5,-164 2205.5,-164 2205.5,-164 2211.5,-164 2217.5,-170 2217.5,-176 2217.5,-176 2217.5,-190 2217.5,-190 2217.5,-196 2211.5,-202 2205.5,-202"/>
<text text-anchor="middle" x="2171.5" y="-186.8" font-family="Times,serif" font-size="14.00">comp 1</text>
<text text-anchor="middle" x="2171.5" y="-171.8" font-family="Times,serif" font-size="14.00">n kernels: &#45;30</text>
</g>
<!-- 2&#45;&gt;10 -->
<g id="edge10" class="edge"><title>2&#45;&gt;10</title>
<path fill="none" stroke="black" d="M2644.29,-286.681C2561.82,-278.035 2424.19,-260.695 2308.5,-232 2280.75,-225.117 2250.69,-214.909 2225.82,-205.674"/>
<polygon fill="black" stroke="black" points="2226.8,-202.303 2216.21,-202.058 2224.34,-208.855 2226.8,-202.303"/>
</g>
<!-- 11 -->
<g id="node12" class="node"><title>11</title>
<path fill="#abcece" stroke="black" d="M2535.5,-202C2535.5,-202 2329.5,-202 2329.5,-202 2323.5,-202 2317.5,-196 2317.5,-190 2317.5,-190 2317.5,-176 2317.5,-176 2317.5,-170 2323.5,-164 2329.5,-164 2329.5,-164 2535.5,-164 2535.5,-164 2541.5,-164 2547.5,-170 2547.5,-176 2547.5,-176 2547.5,-190 2547.5,-190 2547.5,-196 2541.5,-202 2535.5,-202"/>
<text text-anchor="middle" x="2432.5" y="-186.8" font-family="Times,serif" font-size="14.00">comp 2</text>
<text text-anchor="middle" x="2432.5" y="-171.8" font-family="Times,serif" font-size="14.00">log gamma1: 1.411843 &#160;&#160;n kernels: &#45;30</text>
</g>
<!-- 2&#45;&gt;11 -->
<g id="edge11" class="edge"><title>2&#45;&gt;11</title>
<path fill="none" stroke="black" d="M2651.04,-267.965C2601.8,-249.046 2535.42,-223.544 2488.79,-205.626"/>
<polygon fill="black" stroke="black" points="2490.03,-202.355 2479.44,-202.036 2487.52,-208.889 2490.03,-202.355"/>
</g>
<!-- 12 -->
<g id="node13" class="node"><title>12</title>
<path fill="#97b6b6" stroke="black" d="M2820.5,-202C2820.5,-202 2614.5,-202 2614.5,-202 2608.5,-202 2602.5,-196 2602.5,-190 2602.5,-190 2602.5,-176 2602.5,-176 2602.5,-170 2608.5,-164 2614.5,-164 2614.5,-164 2820.5,-164 2820.5,-164 2826.5,-164 2832.5,-170 2832.5,-176 2832.5,-176 2832.5,-190 2832.5,-190 2832.5,-196 2826.5,-202 2820.5,-202"/>
<text text-anchor="middle" x="2717.5" y="-186.8" font-family="Times,serif" font-size="14.00">comp 3</text>
<text text-anchor="middle" x="2717.5" y="-171.8" font-family="Times,serif" font-size="14.00">log gamma2: 0.258572 &#160;&#160;n kernels: &#45;30</text>
</g>
<!-- 2&#45;&gt;12 -->
<g id="edge12" class="edge"><title>2&#45;&gt;12</title>
<path fill="none" stroke="black" d="M2717.5,-267.827C2717.5,-251.18 2717.5,-229.482 2717.5,-212.332"/>
<polygon fill="black" stroke="black" points="2721,-212.327 2717.5,-202.327 2714,-212.327 2721,-212.327"/>
</g>
<!-- 13 -->
<g id="node14" class="node"><title>13</title>
<path fill="#839e9e" stroke="black" d="M2987,-202C2987,-202 2862,-202 2862,-202 2856,-202 2850,-196 2850,-190 2850,-190 2850,-176 2850,-176 2850,-170 2856,-164 2862,-164 2862,-164 2987,-164 2987,-164 2993,-164 2999,-170 2999,-176 2999,-176 2999,-190 2999,-190 2999,-196 2993,-202 2987,-202"/>
<text text-anchor="middle" x="2924.5" y="-186.8" font-family="Times,serif" font-size="14.00">comp 4</text>
<text text-anchor="middle" x="2924.5" y="-171.8" font-family="Times,serif" font-size="14.00">log gamma1: &#45;1.900955</text>
</g>
<!-- 2&#45;&gt;13 -->
<g id="edge13" class="edge"><title>2&#45;&gt;13</title>
<path fill="none" stroke="black" d="M2770.98,-267.903C2792.99,-257.131 2818.63,-244.268 2841.5,-232 2856.06,-224.19 2871.81,-215.22 2885.63,-207.164"/>
<polygon fill="black" stroke="black" points="2887.55,-210.098 2894.41,-202.024 2884.01,-204.058 2887.55,-210.098"/>
</g>
<!-- 14 -->
<g id="node15" class="node"><title>14</title>
<path fill="#6f8585" stroke="black" d="M3097.5,-202C3097.5,-202 3029.5,-202 3029.5,-202 3023.5,-202 3017.5,-196 3017.5,-190 3017.5,-190 3017.5,-176 3017.5,-176 3017.5,-170 3023.5,-164 3029.5,-164 3029.5,-164 3097.5,-164 3097.5,-164 3103.5,-164 3109.5,-170 3109.5,-176 3109.5,-176 3109.5,-190 3109.5,-190 3109.5,-196 3103.5,-202 3097.5,-202"/>
<text text-anchor="middle" x="3063.5" y="-186.8" font-family="Times,serif" font-size="14.00">comp 5</text>
<text text-anchor="middle" x="3063.5" y="-171.8" font-family="Times,serif" font-size="14.00">n kernels: &#45;30</text>
</g>
<!-- 2&#45;&gt;14 -->
<g id="edge14" class="edge"><title>2&#45;&gt;14</title>
<path fill="none" stroke="black" d="M2790.8,-288.083C2851.49,-281.275 2938.63,-266.019 3007.5,-232 3019.16,-226.24 3030.38,-217.496 3039.68,-209.041"/>
<polygon fill="black" stroke="black" points="3042.17,-211.506 3047,-202.08 3037.34,-206.433 3042.17,-211.506"/>
</g>
<!-- 15 -->
<g id="node16" class="node"><title>15</title>
<path fill="#5b6d6d" stroke="black" d="M3279,-202C3279,-202 3140,-202 3140,-202 3134,-202 3128,-196 3128,-190 3128,-190 3128,-176 3128,-176 3128,-170 3134,-164 3140,-164 3140,-164 3279,-164 3279,-164 3285,-164 3291,-170 3291,-176 3291,-176 3291,-190 3291,-190 3291,-196 3285,-202 3279,-202"/>
<text text-anchor="middle" x="3209.5" y="-186.8" font-family="Times,serif" font-size="14.00">path end 1</text>
<text text-anchor="middle" x="3209.5" y="-171.8" font-family="Times,serif" font-size="14.00">k width: &#45;2 &#160;&#160;n kernels: &#45;79</text>
</g>
<!-- 2&#45;&gt;15 -->
<g id="edge15" class="edge"><title>2&#45;&gt;15</title>
<path fill="none" stroke="black" d="M2790.54,-289.601C2872.23,-283.578 3007.64,-268.588 3118.5,-232 3136.93,-225.917 3156.11,-216.348 3172.09,-207.35"/>
<polygon fill="black" stroke="black" points="3174.18,-210.182 3181.09,-202.149 3170.68,-204.12 3174.18,-210.182"/>
</g>
<!-- 16 -->
<g id="node17" class="node"><title>16</title>
<path fill="#d3ffff" stroke="black" d="M3602,-232C3602,-232 3321,-232 3321,-232 3315,-232 3309,-226 3309,-220 3309,-220 3309,-146 3309,-146 3309,-140 3315,-134 3321,-134 3321,-134 3602,-134 3602,-134 3608,-134 3614,-140 3614,-146 3614,-146 3614,-220 3614,-220 3614,-226 3608,-232 3602,-232"/>
<text text-anchor="middle" x="3461.5" y="-216.8" font-family="Times,serif" font-size="14.00">forward</text>
<text text-anchor="middle" x="3461.5" y="-201.8" font-family="Times,serif" font-size="14.00">CB0/C4</text>
<text text-anchor="middle" x="3461.5" y="-186.8" font-family="Times,serif" font-size="14.00">dilation rate: 1 &#160;&#160;k width: 3</text>
<text text-anchor="middle" x="3461.5" y="-171.8" font-family="Times,serif" font-size="14.00">log gamma1: &#45;11.000000 &#160;&#160;log gamma2: &#45;11.000000</text>
<text text-anchor="middle" x="3461.5" y="-156.8" font-family="Times,serif" font-size="14.00">log lambda1: &#45;11.000000 &#160;&#160;log lambda2: &#45;11.000000</text>
<text text-anchor="middle" x="3461.5" y="-141.8" font-family="Times,serif" font-size="14.00">n kernels: 64</text>
</g>
<!-- 3&#45;&gt;16 -->
<g id="edge16" class="edge"><title>3&#45;&gt;16</title>
<path fill="none" stroke="black" d="M3461.5,-276.391C3461.5,-266.993 3461.5,-254.728 3461.5,-242.22"/>
<polygon fill="black" stroke="black" points="3465,-242.188 3461.5,-232.188 3458,-242.188 3465,-242.188"/>
</g>
<!-- 17 -->
<g id="node18" class="node"><title>17</title>
<path fill="#bfe6e6" stroke="black" d="M3925,-232C3925,-232 3644,-232 3644,-232 3638,-232 3632,-226 3632,-220 3632,-220 3632,-146 3632,-146 3632,-140 3638,-134 3644,-134 3644,-134 3925,-134 3925,-134 3931,-134 3937,-140 3937,-146 3937,-146 3937,-220 3937,-220 3937,-226 3931,-232 3925,-232"/>
<text text-anchor="middle" x="3784.5" y="-216.8" font-family="Times,serif" font-size="14.00">residual 1</text>
<text text-anchor="middle" x="3784.5" y="-201.8" font-family="Times,serif" font-size="14.00">CB1/PE1</text>
<text text-anchor="middle" x="3784.5" y="-186.8" font-family="Times,serif" font-size="14.00">dilation rate: 1 &#160;&#160;k width: 3</text>
<text text-anchor="middle" x="3784.5" y="-171.8" font-family="Times,serif" font-size="14.00">log gamma1: &#45;11.000000 &#160;&#160;log gamma2: &#45;11.000000</text>
<text text-anchor="middle" x="3784.5" y="-156.8" font-family="Times,serif" font-size="14.00">log lambda1: &#45;11.000000 &#160;&#160;log lambda2: &#45;11.000000</text>
<text text-anchor="middle" x="3784.5" y="-141.8" font-family="Times,serif" font-size="14.00">n kernels: 64</text>
</g>
<!-- 3&#45;&gt;17 -->
<g id="edge17" class="edge"><title>3&#45;&gt;17</title>
<path fill="none" stroke="black" d="M3507.09,-278.044C3540.21,-266.816 3587.08,-250.928 3632.88,-235.402"/>
<polygon fill="black" stroke="black" points="3634.28,-238.621 3642.63,-232.096 3632.03,-231.991 3634.28,-238.621"/>
</g>
<!-- 18 -->
<g id="node19" class="node"><title>18</title>
<path fill="#e9d3ff" stroke="black" d="M293,-98C293,-98 12,-98 12,-98 6,-98 0,-92 0,-86 0,-86 0,-12 0,-12 0,-6 6,-0 12,-0 12,-0 293,-0 293,-0 299,-0 305,-6 305,-12 305,-12 305,-86 305,-86 305,-92 299,-98 293,-98"/>
<text text-anchor="middle" x="152.5" y="-82.8" font-family="Times,serif" font-size="14.00">forward</text>
<text text-anchor="middle" x="152.5" y="-67.8" font-family="Times,serif" font-size="14.00">input</text>
<text text-anchor="middle" x="152.5" y="-52.8" font-family="Times,serif" font-size="14.00">dilation rate: 1 &#160;&#160;k width: 3</text>
<text text-anchor="middle" x="152.5" y="-37.8" font-family="Times,serif" font-size="14.00">log gamma1: &#45;11.000000 &#160;&#160;log gamma2: &#45;11.000000</text>
<text text-anchor="middle" x="152.5" y="-22.8" font-family="Times,serif" font-size="14.00">log lambda1: &#45;11.000000 &#160;&#160;log lambda2: &#45;11.000000</text>
<text text-anchor="middle" x="152.5" y="-7.8" font-family="Times,serif" font-size="14.00">n kernels: 64</text>
</g>
<!-- 4&#45;&gt;18 -->
<g id="edge18" class="edge"><title>4&#45;&gt;18</title>
<path fill="none" stroke="black" d="M203.42,-163.923C196.879,-149.289 187.29,-127.835 178.192,-107.48"/>
<polygon fill="black" stroke="black" points="181.335,-105.935 174.059,-98.2336 174.944,-108.791 181.335,-105.935"/>
</g>
<!-- 19 -->
<g id="node20" class="node"><title>19</title>
<path fill="#e9d3ff" stroke="black" d="M616,-98C616,-98 335,-98 335,-98 329,-98 323,-92 323,-86 323,-86 323,-12 323,-12 323,-6 329,-0 335,-0 335,-0 616,-0 616,-0 622,-0 628,-6 628,-12 628,-12 628,-86 628,-86 628,-92 622,-98 616,-98"/>
<text text-anchor="middle" x="475.5" y="-82.8" font-family="Times,serif" font-size="14.00">forward</text>
<text text-anchor="middle" x="475.5" y="-67.8" font-family="Times,serif" font-size="14.00">CB0/C0</text>
<text text-anchor="middle" x="475.5" y="-52.8" font-family="Times,serif" font-size="14.00">dilation rate: 1 &#160;&#160;k width: 3</text>
<text text-anchor="middle" x="475.5" y="-37.8" font-family="Times,serif" font-size="14.00">log gamma1: &#45;11.000000 &#160;&#160;log gamma2: &#45;11.000000</text>
<text text-anchor="middle" x="475.5" y="-22.8" font-family="Times,serif" font-size="14.00">log lambda1: &#45;11.000000 &#160;&#160;log lambda2: &#45;11.000000</text>
<text text-anchor="middle" x="475.5" y="-7.8" font-family="Times,serif" font-size="14.00">n kernels: 64</text>
</g>
<!-- 5&#45;&gt;19 -->
<g id="edge19" class="edge"><title>5&#45;&gt;19</title>
<path fill="none" stroke="black" d="M538.503,-163.923C530.373,-149.223 518.438,-127.641 507.136,-107.205"/>
<polygon fill="black" stroke="black" points="510.077,-105.291 502.175,-98.2336 503.951,-108.678 510.077,-105.291"/>
</g>
<!-- 20 -->
<g id="node21" class="node"><title>20</title>
<path fill="#e9d3ff" stroke="black" d="M939,-98C939,-98 658,-98 658,-98 652,-98 646,-92 646,-86 646,-86 646,-12 646,-12 646,-6 652,-0 658,-0 658,-0 939,-0 939,-0 945,-0 951,-6 951,-12 951,-12 951,-86 951,-86 951,-92 945,-98 939,-98"/>
<text text-anchor="middle" x="798.5" y="-82.8" font-family="Times,serif" font-size="14.00">forward</text>
<text text-anchor="middle" x="798.5" y="-67.8" font-family="Times,serif" font-size="14.00">CB0/C1</text>
<text text-anchor="middle" x="798.5" y="-52.8" font-family="Times,serif" font-size="14.00">dilation rate: 1 &#160;&#160;k width: 3</text>
<text text-anchor="middle" x="798.5" y="-37.8" font-family="Times,serif" font-size="14.00">log gamma1: &#45;11.000000 &#160;&#160;log gamma2: &#45;11.000000</text>
<text text-anchor="middle" x="798.5" y="-22.8" font-family="Times,serif" font-size="14.00">log lambda1: &#45;11.000000 &#160;&#160;log lambda2: &#45;11.000000</text>
<text text-anchor="middle" x="798.5" y="-7.8" font-family="Times,serif" font-size="14.00">n kernels: 64</text>
</g>
<!-- 6&#45;&gt;20 -->
<g id="edge20" class="edge"><title>6&#45;&gt;20</title>
<path fill="none" stroke="black" d="M824.392,-163.923C821.096,-149.42 816.277,-128.221 811.689,-108.03"/>
<polygon fill="black" stroke="black" points="815.091,-107.209 809.462,-98.2336 808.266,-108.761 815.091,-107.209"/>
</g>
<!-- 21 -->
<g id="node22" class="node"><title>21</title>
<path fill="#e9d3ff" stroke="black" d="M1262,-98C1262,-98 981,-98 981,-98 975,-98 969,-92 969,-86 969,-86 969,-12 969,-12 969,-6 975,-0 981,-0 981,-0 1262,-0 1262,-0 1268,-0 1274,-6 1274,-12 1274,-12 1274,-86 1274,-86 1274,-92 1268,-98 1262,-98"/>
<text text-anchor="middle" x="1121.5" y="-82.8" font-family="Times,serif" font-size="14.00">forward</text>
<text text-anchor="middle" x="1121.5" y="-67.8" font-family="Times,serif" font-size="14.00">CB0/C2</text>
<text text-anchor="middle" x="1121.5" y="-52.8" font-family="Times,serif" font-size="14.00">dilation rate: 1 &#160;&#160;k width: 3</text>
<text text-anchor="middle" x="1121.5" y="-37.8" font-family="Times,serif" font-size="14.00">log gamma1: &#45;11.000000 &#160;&#160;log gamma2: &#45;11.000000</text>
<text text-anchor="middle" x="1121.5" y="-22.8" font-family="Times,serif" font-size="14.00">log lambda1: &#45;11.000000 &#160;&#160;log lambda2: &#45;11.000000</text>
<text text-anchor="middle" x="1121.5" y="-7.8" font-family="Times,serif" font-size="14.00">n kernels: 64</text>
</g>
<!-- 7&#45;&gt;21 -->
<g id="edge21" class="edge"><title>7&#45;&gt;21</title>
<path fill="none" stroke="black" d="M1073.21,-156.236C1079.54,-142.309 1087.63,-124.516 1095.37,-107.492"/>
<polygon fill="black" stroke="black" points="1098.67,-108.694 1099.62,-98.1423 1092.29,-105.798 1098.67,-108.694"/>
</g>
<!-- 22 -->
<g id="node23" class="node"><title>22</title>
<path fill="#e9d3ff" stroke="black" d="M1585,-98C1585,-98 1304,-98 1304,-98 1298,-98 1292,-92 1292,-86 1292,-86 1292,-12 1292,-12 1292,-6 1298,-0 1304,-0 1304,-0 1585,-0 1585,-0 1591,-0 1597,-6 1597,-12 1597,-12 1597,-86 1597,-86 1597,-92 1591,-98 1585,-98"/>
<text text-anchor="middle" x="1444.5" y="-82.8" font-family="Times,serif" font-size="14.00">forward</text>
<text text-anchor="middle" x="1444.5" y="-67.8" font-family="Times,serif" font-size="14.00">CB0/C3</text>
<text text-anchor="middle" x="1444.5" y="-52.8" font-family="Times,serif" font-size="14.00">dilation rate: 1 &#160;&#160;k width: 3</text>
<text text-anchor="middle" x="1444.5" y="-37.8" font-family="Times,serif" font-size="14.00">log gamma1: &#45;11.000000 &#160;&#160;log gamma2: &#45;11.000000</text>
<text text-anchor="middle" x="1444.5" y="-22.8" font-family="Times,serif" font-size="14.00">log lambda1: &#45;11.000000 &#160;&#160;log lambda2: &#45;11.000000</text>
<text text-anchor="middle" x="1444.5" y="-7.8" font-family="Times,serif" font-size="14.00">n kernels: 64</text>
</g>
<!-- 8&#45;&gt;22 -->
<g id="edge22" class="edge"><title>8&#45;&gt;22</title>
<path fill="none" stroke="black" d="M1411.5,-156.236C1415.79,-142.438 1421.25,-124.845 1426.5,-107.965"/>
<polygon fill="black" stroke="black" points="1429.92,-108.73 1429.55,-98.1423 1423.24,-106.654 1429.92,-108.73"/>
</g>
<!-- 23 -->
<g id="node24" class="node"><title>23</title>
<path fill="#e9d3ff" stroke="black" d="M1908,-98C1908,-98 1627,-98 1627,-98 1621,-98 1615,-92 1615,-86 1615,-86 1615,-12 1615,-12 1615,-6 1621,-0 1627,-0 1627,-0 1908,-0 1908,-0 1914,-0 1920,-6 1920,-12 1920,-12 1920,-86 1920,-86 1920,-92 1914,-98 1908,-98"/>
<text text-anchor="middle" x="1767.5" y="-82.8" font-family="Times,serif" font-size="14.00">forward</text>
<text text-anchor="middle" x="1767.5" y="-67.8" font-family="Times,serif" font-size="14.00">input</text>
<text text-anchor="middle" x="1767.5" y="-52.8" font-family="Times,serif" font-size="14.00">dilation rate: 1 &#160;&#160;k width: 3</text>
<text text-anchor="middle" x="1767.5" y="-37.8" font-family="Times,serif" font-size="14.00">log gamma1: &#45;11.000000 &#160;&#160;log gamma2: &#45;11.000000</text>
<text text-anchor="middle" x="1767.5" y="-22.8" font-family="Times,serif" font-size="14.00">log lambda1: &#45;11.000000 &#160;&#160;log lambda2: &#45;11.000000</text>
<text text-anchor="middle" x="1767.5" y="-7.8" font-family="Times,serif" font-size="14.00">n kernels: 64</text>
</g>
<!-- 9&#45;&gt;23 -->
<g id="edge23" class="edge"><title>9&#45;&gt;23</title>
<path fill="none" stroke="black" d="M1881.42,-163.923C1866.33,-148.827 1843.97,-126.475 1823.06,-105.558"/>
<polygon fill="black" stroke="black" points="1825.28,-102.83 1815.73,-98.2336 1820.33,-107.78 1825.28,-102.83"/>
</g>
<!-- 24 -->
<g id="node25" class="node"><title>24</title>
<path fill="#e9d3ff" stroke="black" d="M2231,-98C2231,-98 1950,-98 1950,-98 1944,-98 1938,-92 1938,-86 1938,-86 1938,-12 1938,-12 1938,-6 1944,-0 1950,-0 1950,-0 2231,-0 2231,-0 2237,-0 2243,-6 2243,-12 2243,-12 2243,-86 2243,-86 2243,-92 2237,-98 2231,-98"/>
<text text-anchor="middle" x="2090.5" y="-82.8" font-family="Times,serif" font-size="14.00">forward</text>
<text text-anchor="middle" x="2090.5" y="-67.8" font-family="Times,serif" font-size="14.00">CB1/C0</text>
<text text-anchor="middle" x="2090.5" y="-52.8" font-family="Times,serif" font-size="14.00">dilation rate: 1 &#160;&#160;k width: 3</text>
<text text-anchor="middle" x="2090.5" y="-37.8" font-family="Times,serif" font-size="14.00">log gamma1: &#45;11.000000 &#160;&#160;log gamma2: &#45;11.000000</text>
<text text-anchor="middle" x="2090.5" y="-22.8" font-family="Times,serif" font-size="14.00">log lambda1: &#45;11.000000 &#160;&#160;log lambda2: &#45;11.000000</text>
<text text-anchor="middle" x="2090.5" y="-7.8" font-family="Times,serif" font-size="14.00">n kernels: 64</text>
</g>
<!-- 10&#45;&gt;24 -->
<g id="edge24" class="edge"><title>10&#45;&gt;24</title>
<path fill="none" stroke="black" d="M2160.41,-163.923C2151.35,-149.157 2138.02,-127.447 2125.43,-106.93"/>
<polygon fill="black" stroke="black" points="2128.31,-104.926 2120.1,-98.2336 2122.34,-108.587 2128.31,-104.926"/>
</g>
<!-- 25 -->
<g id="node26" class="node"><title>25</title>
<path fill="#e9d3ff" stroke="black" d="M2554,-98C2554,-98 2273,-98 2273,-98 2267,-98 2261,-92 2261,-86 2261,-86 2261,-12 2261,-12 2261,-6 2267,-0 2273,-0 2273,-0 2554,-0 2554,-0 2560,-0 2566,-6 2566,-12 2566,-12 2566,-86 2566,-86 2566,-92 2560,-98 2554,-98"/>
<text text-anchor="middle" x="2413.5" y="-82.8" font-family="Times,serif" font-size="14.00">forward</text>
<text text-anchor="middle" x="2413.5" y="-67.8" font-family="Times,serif" font-size="14.00">CB1/C1</text>
<text text-anchor="middle" x="2413.5" y="-52.8" font-family="Times,serif" font-size="14.00">dilation rate: 1 &#160;&#160;k width: 3</text>
<text text-anchor="middle" x="2413.5" y="-37.8" font-family="Times,serif" font-size="14.00">log gamma1: &#45;11.000000 &#160;&#160;log gamma2: &#45;11.000000</text>
<text text-anchor="middle" x="2413.5" y="-22.8" font-family="Times,serif" font-size="14.00">log lambda1: &#45;11.000000 &#160;&#160;log lambda2: &#45;11.000000</text>
<text text-anchor="middle" x="2413.5" y="-7.8" font-family="Times,serif" font-size="14.00">n kernels: 64</text>
</g>
<!-- 11&#45;&gt;25 -->
<g id="edge25" class="edge"><title>11&#45;&gt;25</title>
<path fill="none" stroke="black" d="M2429.9,-163.923C2427.82,-149.486 2424.79,-128.413 2421.89,-108.306"/>
<polygon fill="black" stroke="black" points="2425.33,-107.633 2420.44,-98.2336 2418.4,-108.63 2425.33,-107.633"/>
</g>
<!-- 26 -->
<g id="node27" class="node"><title>26</title>
<path fill="#e9d3ff" stroke="black" d="M2877,-98C2877,-98 2596,-98 2596,-98 2590,-98 2584,-92 2584,-86 2584,-86 2584,-12 2584,-12 2584,-6 2590,-0 2596,-0 2596,-0 2877,-0 2877,-0 2883,-0 2889,-6 2889,-12 2889,-12 2889,-86 2889,-86 2889,-92 2883,-98 2877,-98"/>
<text text-anchor="middle" x="2736.5" y="-82.8" font-family="Times,serif" font-size="14.00">forward</text>
<text text-anchor="middle" x="2736.5" y="-67.8" font-family="Times,serif" font-size="14.00">CB1/C2</text>
<text text-anchor="middle" x="2736.5" y="-52.8" font-family="Times,serif" font-size="14.00">dilation rate: 1 &#160;&#160;k width: 3</text>
<text text-anchor="middle" x="2736.5" y="-37.8" font-family="Times,serif" font-size="14.00">log gamma1: &#45;11.000000 &#160;&#160;log gamma2: &#45;11.000000</text>
<text text-anchor="middle" x="2736.5" y="-22.8" font-family="Times,serif" font-size="14.00">log lambda1: &#45;11.000000 &#160;&#160;log lambda2: &#45;11.000000</text>
<text text-anchor="middle" x="2736.5" y="-7.8" font-family="Times,serif" font-size="14.00">n kernels: 64</text>
</g>
<!-- 12&#45;&gt;26 -->
<g id="edge26" class="edge"><title>12&#45;&gt;26</title>
<path fill="none" stroke="black" d="M2720.1,-163.923C2722.18,-149.486 2725.21,-128.413 2728.11,-108.306"/>
<polygon fill="black" stroke="black" points="2731.6,-108.63 2729.56,-98.2336 2724.67,-107.633 2731.6,-108.63"/>
</g>
<!-- 27 -->
<g id="node28" class="node"><title>27</title>
<path fill="#e9d3ff" stroke="black" d="M3200,-98C3200,-98 2919,-98 2919,-98 2913,-98 2907,-92 2907,-86 2907,-86 2907,-12 2907,-12 2907,-6 2913,-0 2919,-0 2919,-0 3200,-0 3200,-0 3206,-0 3212,-6 3212,-12 3212,-12 3212,-86 3212,-86 3212,-92 3206,-98 3200,-98"/>
<text text-anchor="middle" x="3059.5" y="-82.8" font-family="Times,serif" font-size="14.00">forward</text>
<text text-anchor="middle" x="3059.5" y="-67.8" font-family="Times,serif" font-size="14.00">CB1/C3</text>
<text text-anchor="middle" x="3059.5" y="-52.8" font-family="Times,serif" font-size="14.00">dilation rate: 1 &#160;&#160;k width: 3</text>
<text text-anchor="middle" x="3059.5" y="-37.8" font-family="Times,serif" font-size="14.00">log gamma1: &#45;11.000000 &#160;&#160;log gamma2: &#45;11.000000</text>
<text text-anchor="middle" x="3059.5" y="-22.8" font-family="Times,serif" font-size="14.00">log lambda1: &#45;11.000000 &#160;&#160;log lambda2: &#45;11.000000</text>
<text text-anchor="middle" x="3059.5" y="-7.8" font-family="Times,serif" font-size="14.00">n kernels: 64</text>
</g>
<!-- 13&#45;&gt;27 -->
<g id="edge27" class="edge"><title>13&#45;&gt;27</title>
<path fill="none" stroke="black" d="M2942.99,-163.923C2958.49,-148.761 2981.49,-126.279 3002.96,-105.284"/>
<polygon fill="black" stroke="black" points="3005.47,-107.727 3010.17,-98.2336 3000.57,-102.722 3005.47,-107.727"/>
</g>
<!-- 28 -->
<g id="node29" class="node"><title>28</title>
<path fill="#e9d3ff" stroke="black" d="M3523,-98C3523,-98 3242,-98 3242,-98 3236,-98 3230,-92 3230,-86 3230,-86 3230,-12 3230,-12 3230,-6 3236,-0 3242,-0 3242,-0 3523,-0 3523,-0 3529,-0 3535,-6 3535,-12 3535,-12 3535,-86 3535,-86 3535,-92 3529,-98 3523,-98"/>
<text text-anchor="middle" x="3382.5" y="-82.8" font-family="Times,serif" font-size="14.00">forward</text>
<text text-anchor="middle" x="3382.5" y="-67.8" font-family="Times,serif" font-size="14.00">CB1/C4</text>
<text text-anchor="middle" x="3382.5" y="-52.8" font-family="Times,serif" font-size="14.00">dilation rate: 1 &#160;&#160;k width: 3</text>
<text text-anchor="middle" x="3382.5" y="-37.8" font-family="Times,serif" font-size="14.00">log gamma1: &#45;11.000000 &#160;&#160;log gamma2: &#45;11.000000</text>
<text text-anchor="middle" x="3382.5" y="-22.8" font-family="Times,serif" font-size="14.00">log lambda1: &#45;11.000000 &#160;&#160;log lambda2: &#45;11.000000</text>
<text text-anchor="middle" x="3382.5" y="-7.8" font-family="Times,serif" font-size="14.00">n kernels: 64</text>
</g>
<!-- 14&#45;&gt;28 -->
<g id="edge28" class="edge"><title>14&#45;&gt;28</title>
<path fill="none" stroke="black" d="M3080.4,-163.969C3090.61,-153.959 3104.36,-141.959 3118.5,-134 3129.01,-128.082 3171.82,-113.905 3220,-98.8488"/>
<polygon fill="black" stroke="black" points="3221.19,-102.143 3229.7,-95.8281 3219.11,-95.4597 3221.19,-102.143"/>
</g>
<!-- 29 -->
<g id="node30" class="node"><title>29</title>
<path fill="#e9d3ff" stroke="black" d="M3846,-98C3846,-98 3565,-98 3565,-98 3559,-98 3553,-92 3553,-86 3553,-86 3553,-12 3553,-12 3553,-6 3559,-0 3565,-0 3565,-0 3846,-0 3846,-0 3852,-0 3858,-6 3858,-12 3858,-12 3858,-86 3858,-86 3858,-92 3852,-98 3846,-98"/>
<text text-anchor="middle" x="3705.5" y="-82.8" font-family="Times,serif" font-size="14.00">forward</text>
<text text-anchor="middle" x="3705.5" y="-67.8" font-family="Times,serif" font-size="14.00">CB1/C5</text>
<text text-anchor="middle" x="3705.5" y="-52.8" font-family="Times,serif" font-size="14.00">dilation rate: 1 &#160;&#160;k width: 3</text>
<text text-anchor="middle" x="3705.5" y="-37.8" font-family="Times,serif" font-size="14.00">log gamma1: &#45;11.000000 &#160;&#160;log gamma2: &#45;11.000000</text>
<text text-anchor="middle" x="3705.5" y="-22.8" font-family="Times,serif" font-size="14.00">log lambda1: &#45;11.000000 &#160;&#160;log lambda2: &#45;11.000000</text>
<text text-anchor="middle" x="3705.5" y="-7.8" font-family="Times,serif" font-size="14.00">n kernels: 64</text>
</g>
<!-- 15&#45;&gt;29 -->
<g id="edge29" class="edge"><title>15&#45;&gt;29</title>
<path fill="none" stroke="black" d="M3237.56,-163.797C3254.77,-153.468 3277.63,-141.203 3299.5,-134 3400.56,-100.708 3434.47,-120.393 3542.6,-98.0711"/>
<polygon fill="black" stroke="black" points="3543.55,-101.447 3552.59,-95.9326 3542.08,-94.602 3543.55,-101.447"/>
</g>
</g>
</svg>
