<?xml version="1.0" encoding="UTF-8" standalone="no"?>
<!DOCTYPE svg PUBLIC "-//W3C//DTD SVG 1.1//EN"
 "http://www.w3.org/Graphics/SVG/1.1/DTD/svg11.dtd">
<!-- Generated by graphviz version 2.38.0 (20140413.2041)
 -->
<!-- Title: %3 Pages: 1 -->
<svg width="3978pt" height="418pt"
 viewBox="0.00 0.00 3978.00 418.00" xmlns="http://www.w3.org/2000/svg" xmlns:xlink="http://www.w3.org/1999/xlink">
<g id="graph0" class="graph" transform="scale(1 1) rotate(0) translate(4 414)">
<title>%3</title>
<polygon fill="none" stroke="none" points="-4,4 -4,-414 3974,-414 3974,4 -4,4"/>
<!-- 0 -->
<g id="node1" class="node"><title>0</title>
<path fill="#ffd3d3" stroke="black" d="M2914,-410C2914,-410 2723,-410 2723,-410 2717,-410 2711,-404 2711,-398 2711,-398 2711,-369 2711,-369 2711,-363 2717,-357 2723,-357 2723,-357 2914,-357 2914,-357 2920,-357 2926,-363 2926,-369 2926,-369 2926,-398 2926,-398 2926,-404 2920,-410 2914,-410"/>
<text text-anchor="middle" x="2818.5" y="-394.8" font-family="Times,serif" font-size="14.00">net</text>
<text text-anchor="middle" x="2818.5" y="-379.8" font-family="Times,serif" font-size="14.00">k width: 3 &#160;&#160;log gamma2: &#45;3.127097</text>
<text text-anchor="middle" x="2818.5" y="-364.8" font-family="Times,serif" font-size="14.00">n kernels: 110</text>
</g>
<!-- 1 -->
<g id="node2" class="node"><title>1</title>
<path fill="#e9ffd3" stroke="black" d="M1181.5,-313.5C1181.5,-313.5 1061.5,-313.5 1061.5,-313.5 1055.5,-313.5 1049.5,-307.5 1049.5,-301.5 1049.5,-301.5 1049.5,-287.5 1049.5,-287.5 1049.5,-281.5 1055.5,-275.5 1061.5,-275.5 1061.5,-275.5 1181.5,-275.5 1181.5,-275.5 1187.5,-275.5 1193.5,-281.5 1193.5,-287.5 1193.5,-287.5 1193.5,-301.5 1193.5,-301.5 1193.5,-307.5 1187.5,-313.5 1181.5,-313.5"/>
<text text-anchor="middle" x="1121.5" y="-298.3" font-family="Times,serif" font-size="14.00">conv block 0</text>
<text text-anchor="middle" x="1121.5" y="-283.3" font-family="Times,serif" font-size="14.00">log gamma2: 0.127097</text>
</g>
<!-- 0&#45;&gt;1 -->
<g id="edge1" class="edge"><title>0&#45;&gt;1</title>
<path fill="none" stroke="black" d="M2710.73,-376.975C2396.09,-360.844 1483.34,-314.05 1203.82,-299.721"/>
<polygon fill="black" stroke="black" points="1203.92,-296.221 1193.75,-299.204 1203.56,-303.212 1203.92,-296.221"/>
</g>
<!-- 2 -->
<g id="node3" class="node"><title>2</title>
<path fill="#e9ffd3" stroke="black" d="M2879.5,-321C2879.5,-321 2757.5,-321 2757.5,-321 2751.5,-321 2745.5,-315 2745.5,-309 2745.5,-309 2745.5,-280 2745.5,-280 2745.5,-274 2751.5,-268 2757.5,-268 2757.5,-268 2879.5,-268 2879.5,-268 2885.5,-268 2891.5,-274 2891.5,-280 2891.5,-280 2891.5,-309 2891.5,-309 2891.5,-315 2885.5,-321 2879.5,-321"/>
<text text-anchor="middle" x="2818.5" y="-305.8" font-family="Times,serif" font-size="14.00">conv block 1</text>
<text text-anchor="middle" x="2818.5" y="-290.8" font-family="Times,serif" font-size="14.00">n kernels: 11 &#160;&#160;pool z: 1</text>
<text text-anchor="middle" x="2818.5" y="-275.8" font-family="Times,serif" font-size="14.00">spatial scale: 1</text>
</g>
<!-- 0&#45;&gt;2 -->
<g id="edge2" class="edge"><title>0&#45;&gt;2</title>
<path fill="none" stroke="black" d="M2818.5,-356.868C2818.5,-348.886 2818.5,-339.932 2818.5,-331.384"/>
<polygon fill="black" stroke="black" points="2822,-331.25 2818.5,-321.25 2815,-331.25 2822,-331.25"/>
</g>
<!-- 3 -->
<g id="node4" class="node"><title>3</title>
<path fill="#e9ffd3" stroke="black" d="M3528,-312.5C3528,-312.5 3461,-312.5 3461,-312.5 3455,-312.5 3449,-306.5 3449,-300.5 3449,-300.5 3449,-288.5 3449,-288.5 3449,-282.5 3455,-276.5 3461,-276.5 3461,-276.5 3528,-276.5 3528,-276.5 3534,-276.5 3540,-282.5 3540,-288.5 3540,-288.5 3540,-300.5 3540,-300.5 3540,-306.5 3534,-312.5 3528,-312.5"/>
<text text-anchor="middle" x="3494.5" y="-290.8" font-family="Times,serif" font-size="14.00">path combine</text>
</g>
<!-- 0&#45;&gt;3 -->
<g id="edge3" class="edge"><title>0&#45;&gt;3</title>
<path fill="none" stroke="black" d="M2926.36,-368.618C3072.04,-349.87 3326.33,-317.144 3438.55,-302.7"/>
<polygon fill="black" stroke="black" points="3439.17,-306.15 3448.64,-301.402 3438.28,-299.207 3439.17,-306.15"/>
</g>
<!-- 4 -->
<g id="node5" class="node"><title>4</title>
<path fill="#d3ffff" stroke="black" d="M379.5,-202C379.5,-202 323.5,-202 323.5,-202 317.5,-202 311.5,-196 311.5,-190 311.5,-190 311.5,-176 311.5,-176 311.5,-170 317.5,-164 323.5,-164 323.5,-164 379.5,-164 379.5,-164 385.5,-164 391.5,-170 391.5,-176 391.5,-176 391.5,-190 391.5,-190 391.5,-196 385.5,-202 379.5,-202"/>
<text text-anchor="middle" x="351.5" y="-186.8" font-family="Times,serif" font-size="14.00">comp 0</text>
<text text-anchor="middle" x="351.5" y="-171.8" font-family="Times,serif" font-size="14.00">n kernels: 2</text>
</g>
<!-- 1&#45;&gt;4 -->
<g id="edge4" class="edge"><title>1&#45;&gt;4</title>
<path fill="none" stroke="black" d="M1049.07,-286.675C948.073,-276.769 759.324,-256.847 599.5,-232 530.58,-221.285 451.575,-205.358 401.617,-194.83"/>
<polygon fill="black" stroke="black" points="402.226,-191.381 391.718,-192.734 400.776,-198.229 402.226,-191.381"/>
</g>
<!-- 5 -->
<g id="node6" class="node"><title>5</title>
<path fill="#bfe6e6" stroke="black" d="M684,-202C684,-202 621,-202 621,-202 615,-202 609,-196 609,-190 609,-190 609,-176 609,-176 609,-170 615,-164 621,-164 621,-164 684,-164 684,-164 690,-164 696,-170 696,-176 696,-176 696,-190 696,-190 696,-196 690,-202 684,-202"/>
<text text-anchor="middle" x="652.5" y="-186.8" font-family="Times,serif" font-size="14.00">comp 1</text>
<text text-anchor="middle" x="652.5" y="-171.8" font-family="Times,serif" font-size="14.00">n kernels: 18</text>
</g>
<!-- 1&#45;&gt;5 -->
<g id="edge5" class="edge"><title>1&#45;&gt;5</title>
<path fill="none" stroke="black" d="M1049.25,-276.631C954.556,-254.523 790.636,-216.251 706.2,-196.538"/>
<polygon fill="black" stroke="black" points="706.841,-193.093 696.307,-194.228 705.249,-199.91 706.841,-193.093"/>
</g>
<!-- 6 -->
<g id="node7" class="node"><title>6</title>
<path fill="#abcece" stroke="black" d="M938.5,-201C938.5,-201 904.5,-201 904.5,-201 898.5,-201 892.5,-195 892.5,-189 892.5,-189 892.5,-177 892.5,-177 892.5,-171 898.5,-165 904.5,-165 904.5,-165 938.5,-165 938.5,-165 944.5,-165 950.5,-171 950.5,-177 950.5,-177 950.5,-189 950.5,-189 950.5,-195 944.5,-201 938.5,-201"/>
<text text-anchor="middle" x="921.5" y="-179.3" font-family="Times,serif" font-size="14.00">comp 2</text>
</g>
<!-- 1&#45;&gt;6 -->
<g id="edge6" class="edge"><title>1&#45;&gt;6</title>
<path fill="none" stroke="black" d="M1088.47,-275.418C1053.08,-256.043 996.985,-225.328 959.715,-204.922"/>
<polygon fill="black" stroke="black" points="961.121,-201.702 950.669,-199.97 957.759,-207.842 961.121,-201.702"/>
</g>
<!-- 7 -->
<g id="node8" class="node"><title>7</title>
<path fill="#97b6b6" stroke="black" d="M1138.5,-201C1138.5,-201 1104.5,-201 1104.5,-201 1098.5,-201 1092.5,-195 1092.5,-189 1092.5,-189 1092.5,-177 1092.5,-177 1092.5,-171 1098.5,-165 1104.5,-165 1104.5,-165 1138.5,-165 1138.5,-165 1144.5,-165 1150.5,-171 1150.5,-177 1150.5,-177 1150.5,-189 1150.5,-189 1150.5,-195 1144.5,-201 1138.5,-201"/>
<text text-anchor="middle" x="1121.5" y="-179.3" font-family="Times,serif" font-size="14.00">comp 3</text>
</g>
<!-- 1&#45;&gt;7 -->
<g id="edge7" class="edge"><title>1&#45;&gt;7</title>
<path fill="none" stroke="black" d="M1121.5,-275.418C1121.5,-257.912 1121.5,-231.148 1121.5,-211.095"/>
<polygon fill="black" stroke="black" points="1125,-211.027 1121.5,-201.027 1118,-211.027 1125,-211.027"/>
</g>
<!-- 8 -->
<g id="node9" class="node"><title>8</title>
<path fill="#839e9e" stroke="black" d="M1338.5,-201C1338.5,-201 1304.5,-201 1304.5,-201 1298.5,-201 1292.5,-195 1292.5,-189 1292.5,-189 1292.5,-177 1292.5,-177 1292.5,-171 1298.5,-165 1304.5,-165 1304.5,-165 1338.5,-165 1338.5,-165 1344.5,-165 1350.5,-171 1350.5,-177 1350.5,-177 1350.5,-189 1350.5,-189 1350.5,-195 1344.5,-201 1338.5,-201"/>
<text text-anchor="middle" x="1321.5" y="-179.3" font-family="Times,serif" font-size="14.00">comp 4</text>
</g>
<!-- 1&#45;&gt;8 -->
<g id="edge8" class="edge"><title>1&#45;&gt;8</title>
<path fill="none" stroke="black" d="M1154.53,-275.418C1189.92,-256.043 1246.01,-225.328 1283.29,-204.922"/>
<polygon fill="black" stroke="black" points="1285.24,-207.842 1292.33,-199.97 1281.88,-201.702 1285.24,-207.842"/>
</g>
<!-- 9 -->
<g id="node10" class="node"><title>9</title>
<path fill="#6f8585" stroke="black" d="M1775.5,-202C1775.5,-202 1507.5,-202 1507.5,-202 1501.5,-202 1495.5,-196 1495.5,-190 1495.5,-190 1495.5,-176 1495.5,-176 1495.5,-170 1501.5,-164 1507.5,-164 1507.5,-164 1775.5,-164 1775.5,-164 1781.5,-164 1787.5,-170 1787.5,-176 1787.5,-176 1787.5,-190 1787.5,-190 1787.5,-196 1781.5,-202 1775.5,-202"/>
<text text-anchor="middle" x="1641.5" y="-186.8" font-family="Times,serif" font-size="14.00">comp 5</text>
<text text-anchor="middle" x="1641.5" y="-171.8" font-family="Times,serif" font-size="14.00">log gamma1: &#45;1.466309 &#160;&#160;log gamma2: &#45;1.123148</text>
</g>
<!-- 1&#45;&gt;9 -->
<g id="edge9" class="edge"><title>1&#45;&gt;9</title>
<path fill="none" stroke="black" d="M1193.53,-278.332C1285.28,-259.012 1444.12,-225.564 1545.92,-204.126"/>
<polygon fill="black" stroke="black" points="1546.83,-207.511 1555.9,-202.026 1545.39,-200.661 1546.83,-207.511"/>
</g>
<!-- 10 -->
<g id="node11" class="node"><title>10</title>
<path fill="#d3ffff" stroke="black" d="M2222.5,-202C2222.5,-202 2166.5,-202 2166.5,-202 2160.5,-202 2154.5,-196 2154.5,-190 2154.5,-190 2154.5,-176 2154.5,-176 2154.5,-170 2160.5,-164 2166.5,-164 2166.5,-164 2222.5,-164 2222.5,-164 2228.5,-164 2234.5,-170 2234.5,-176 2234.5,-176 2234.5,-190 2234.5,-190 2234.5,-196 2228.5,-202 2222.5,-202"/>
<text text-anchor="middle" x="2194.5" y="-186.8" font-family="Times,serif" font-size="14.00">comp 0</text>
<text text-anchor="middle" x="2194.5" y="-171.8" font-family="Times,serif" font-size="14.00">n kernels: 3</text>
</g>
<!-- 2&#45;&gt;10 -->
<g id="edge10" class="edge"><title>2&#45;&gt;10</title>
<path fill="none" stroke="black" d="M2745.36,-287.856C2652.35,-279.783 2487.15,-262.442 2348.5,-232 2313.11,-224.23 2274.16,-212.055 2244.29,-201.911"/>
<polygon fill="black" stroke="black" points="2245.11,-198.495 2234.52,-198.558 2242.84,-205.115 2245.11,-198.495"/>
</g>
<!-- 11 -->
<g id="node12" class="node"><title>11</title>
<path fill="#bfe6e6" stroke="black" d="M2575.5,-202C2575.5,-202 2369.5,-202 2369.5,-202 2363.5,-202 2357.5,-196 2357.5,-190 2357.5,-190 2357.5,-176 2357.5,-176 2357.5,-170 2363.5,-164 2369.5,-164 2369.5,-164 2575.5,-164 2575.5,-164 2581.5,-164 2587.5,-170 2587.5,-176 2587.5,-176 2587.5,-190 2587.5,-190 2587.5,-196 2581.5,-202 2575.5,-202"/>
<text text-anchor="middle" x="2472.5" y="-186.8" font-family="Times,serif" font-size="14.00">comp 1</text>
<text text-anchor="middle" x="2472.5" y="-171.8" font-family="Times,serif" font-size="14.00">log gamma2: 0.127097 &#160;&#160;n kernels: &#45;20</text>
</g>
<!-- 2&#45;&gt;11 -->
<g id="edge11" class="edge"><title>2&#45;&gt;11</title>
<path fill="none" stroke="black" d="M2745.12,-270.278C2684.15,-250.98 2598.12,-223.756 2539.1,-205.078"/>
<polygon fill="black" stroke="black" points="2540.1,-201.722 2529.51,-202.041 2537.99,-208.396 2540.1,-201.722"/>
</g>
<!-- 12 -->
<g id="node13" class="node"><title>12</title>
<path fill="#abcece" stroke="black" d="M2796.5,-202C2796.5,-202 2676.5,-202 2676.5,-202 2670.5,-202 2664.5,-196 2664.5,-190 2664.5,-190 2664.5,-176 2664.5,-176 2664.5,-170 2670.5,-164 2676.5,-164 2676.5,-164 2796.5,-164 2796.5,-164 2802.5,-164 2808.5,-170 2808.5,-176 2808.5,-176 2808.5,-190 2808.5,-190 2808.5,-196 2802.5,-202 2796.5,-202"/>
<text text-anchor="middle" x="2736.5" y="-186.8" font-family="Times,serif" font-size="14.00">comp 2</text>
<text text-anchor="middle" x="2736.5" y="-171.8" font-family="Times,serif" font-size="14.00">log gamma2: 0.127097</text>
</g>
<!-- 2&#45;&gt;12 -->
<g id="edge12" class="edge"><title>2&#45;&gt;12</title>
<path fill="none" stroke="black" d="M2799.27,-267.827C2786.34,-250.552 2769.33,-227.837 2756.28,-210.41"/>
<polygon fill="black" stroke="black" points="2759.02,-208.233 2750.22,-202.327 2753.42,-212.429 2759.02,-208.233"/>
</g>
<!-- 13 -->
<g id="node14" class="node"><title>13</title>
<path fill="#97b6b6" stroke="black" d="M2964,-202C2964,-202 2839,-202 2839,-202 2833,-202 2827,-196 2827,-190 2827,-190 2827,-176 2827,-176 2827,-170 2833,-164 2839,-164 2839,-164 2964,-164 2964,-164 2970,-164 2976,-170 2976,-176 2976,-176 2976,-190 2976,-190 2976,-196 2970,-202 2964,-202"/>
<text text-anchor="middle" x="2901.5" y="-186.8" font-family="Times,serif" font-size="14.00">comp 3</text>
<text text-anchor="middle" x="2901.5" y="-171.8" font-family="Times,serif" font-size="14.00">log gamma1: &#45;1.201757</text>
</g>
<!-- 2&#45;&gt;13 -->
<g id="edge13" class="edge"><title>2&#45;&gt;13</title>
<path fill="none" stroke="black" d="M2837.96,-267.827C2851.05,-250.552 2868.27,-227.837 2881.48,-210.41"/>
<polygon fill="black" stroke="black" points="2884.36,-212.41 2887.61,-202.327 2878.78,-208.182 2884.36,-212.41"/>
</g>
<!-- 14 -->
<g id="node15" class="node"><title>14</title>
<path fill="#839e9e" stroke="black" d="M3131,-202C3131,-202 3006,-202 3006,-202 3000,-202 2994,-196 2994,-190 2994,-190 2994,-176 2994,-176 2994,-170 3000,-164 3006,-164 3006,-164 3131,-164 3131,-164 3137,-164 3143,-170 3143,-176 3143,-176 3143,-190 3143,-190 3143,-196 3137,-202 3131,-202"/>
<text text-anchor="middle" x="3068.5" y="-186.8" font-family="Times,serif" font-size="14.00">comp 4</text>
<text text-anchor="middle" x="3068.5" y="-171.8" font-family="Times,serif" font-size="14.00">log gamma1: &#45;1.421770</text>
</g>
<!-- 2&#45;&gt;14 -->
<g id="edge14" class="edge"><title>2&#45;&gt;14</title>
<path fill="none" stroke="black" d="M2891.87,-269.247C2921.13,-258.822 2954.84,-245.852 2984.5,-232 2999.98,-224.77 3016.42,-215.707 3030.61,-207.409"/>
<polygon fill="black" stroke="black" points="3032.76,-210.203 3039.58,-202.094 3029.2,-204.181 3032.76,-210.203"/>
</g>
<!-- 15 -->
<g id="node16" class="node"><title>15</title>
<path fill="#6f8585" stroke="black" d="M3312,-202C3312,-202 3173,-202 3173,-202 3167,-202 3161,-196 3161,-190 3161,-190 3161,-176 3161,-176 3161,-170 3167,-164 3173,-164 3173,-164 3312,-164 3312,-164 3318,-164 3324,-170 3324,-176 3324,-176 3324,-190 3324,-190 3324,-196 3318,-202 3312,-202"/>
<text text-anchor="middle" x="3242.5" y="-186.8" font-family="Times,serif" font-size="14.00">path end 1</text>
<text text-anchor="middle" x="3242.5" y="-171.8" font-family="Times,serif" font-size="14.00">k width: &#45;2 &#160;&#160;n kernels: &#45;11</text>
</g>
<!-- 2&#45;&gt;15 -->
<g id="edge15" class="edge"><title>2&#45;&gt;15</title>
<path fill="none" stroke="black" d="M2891.58,-286.442C2960.15,-278.326 3064.86,-262.066 3151.5,-232 3169.7,-225.686 3188.71,-216.174 3204.62,-207.279"/>
<polygon fill="black" stroke="black" points="3206.66,-210.145 3213.61,-202.142 3203.19,-204.068 3206.66,-210.145"/>
</g>
<!-- 16 -->
<g id="node17" class="node"><title>16</title>
<path fill="#d3ffff" stroke="black" d="M3635,-232C3635,-232 3354,-232 3354,-232 3348,-232 3342,-226 3342,-220 3342,-220 3342,-146 3342,-146 3342,-140 3348,-134 3354,-134 3354,-134 3635,-134 3635,-134 3641,-134 3647,-140 3647,-146 3647,-146 3647,-220 3647,-220 3647,-226 3641,-232 3635,-232"/>
<text text-anchor="middle" x="3494.5" y="-216.8" font-family="Times,serif" font-size="14.00">forward</text>
<text text-anchor="middle" x="3494.5" y="-201.8" font-family="Times,serif" font-size="14.00">CB0/C5</text>
<text text-anchor="middle" x="3494.5" y="-186.8" font-family="Times,serif" font-size="14.00">dilation rate: 1 &#160;&#160;k width: 3</text>
<text text-anchor="middle" x="3494.5" y="-171.8" font-family="Times,serif" font-size="14.00">log gamma1: &#45;11.000000 &#160;&#160;log gamma2: &#45;11.000000</text>
<text text-anchor="middle" x="3494.5" y="-156.8" font-family="Times,serif" font-size="14.00">log lambda1: &#45;11.000000 &#160;&#160;log lambda2: &#45;11.000000</text>
<text text-anchor="middle" x="3494.5" y="-141.8" font-family="Times,serif" font-size="14.00">n kernels: 64</text>
</g>
<!-- 3&#45;&gt;16 -->
<g id="edge16" class="edge"><title>3&#45;&gt;16</title>
<path fill="none" stroke="black" d="M3494.5,-276.391C3494.5,-266.993 3494.5,-254.728 3494.5,-242.22"/>
<polygon fill="black" stroke="black" points="3498,-242.188 3494.5,-232.188 3491,-242.188 3498,-242.188"/>
</g>
<!-- 17 -->
<g id="node18" class="node"><title>17</title>
<path fill="#bfe6e6" stroke="black" d="M3958,-232C3958,-232 3677,-232 3677,-232 3671,-232 3665,-226 3665,-220 3665,-220 3665,-146 3665,-146 3665,-140 3671,-134 3677,-134 3677,-134 3958,-134 3958,-134 3964,-134 3970,-140 3970,-146 3970,-146 3970,-220 3970,-220 3970,-226 3964,-232 3958,-232"/>
<text text-anchor="middle" x="3817.5" y="-216.8" font-family="Times,serif" font-size="14.00">residual 1</text>
<text text-anchor="middle" x="3817.5" y="-201.8" font-family="Times,serif" font-size="14.00">CB1/PE1</text>
<text text-anchor="middle" x="3817.5" y="-186.8" font-family="Times,serif" font-size="14.00">dilation rate: 1 &#160;&#160;k width: 3</text>
<text text-anchor="middle" x="3817.5" y="-171.8" font-family="Times,serif" font-size="14.00">log gamma1: &#45;11.000000 &#160;&#160;log gamma2: &#45;11.000000</text>
<text text-anchor="middle" x="3817.5" y="-156.8" font-family="Times,serif" font-size="14.00">log lambda1: &#45;11.000000 &#160;&#160;log lambda2: &#45;11.000000</text>
<text text-anchor="middle" x="3817.5" y="-141.8" font-family="Times,serif" font-size="14.00">n kernels: 64</text>
</g>
<!-- 3&#45;&gt;17 -->
<g id="edge17" class="edge"><title>3&#45;&gt;17</title>
<path fill="none" stroke="black" d="M3540.09,-278.044C3573.21,-266.816 3620.08,-250.928 3665.88,-235.402"/>
<polygon fill="black" stroke="black" points="3667.28,-238.621 3675.63,-232.096 3665.03,-231.991 3667.28,-238.621"/>
</g>
<!-- 18 -->
<g id="node19" class="node"><title>18</title>
<path fill="#e9d3ff" stroke="black" d="M293,-98C293,-98 12,-98 12,-98 6,-98 0,-92 0,-86 0,-86 0,-12 0,-12 0,-6 6,-0 12,-0 12,-0 293,-0 293,-0 299,-0 305,-6 305,-12 305,-12 305,-86 305,-86 305,-92 299,-98 293,-98"/>
<text text-anchor="middle" x="152.5" y="-82.8" font-family="Times,serif" font-size="14.00">forward</text>
<text text-anchor="middle" x="152.5" y="-67.8" font-family="Times,serif" font-size="14.00">input</text>
<text text-anchor="middle" x="152.5" y="-52.8" font-family="Times,serif" font-size="14.00">dilation rate: 1 &#160;&#160;k width: 3</text>
<text text-anchor="middle" x="152.5" y="-37.8" font-family="Times,serif" font-size="14.00">log gamma1: &#45;11.000000 &#160;&#160;log gamma2: &#45;11.000000</text>
<text text-anchor="middle" x="152.5" y="-22.8" font-family="Times,serif" font-size="14.00">log lambda1: &#45;11.000000 &#160;&#160;log lambda2: &#45;11.000000</text>
<text text-anchor="middle" x="152.5" y="-7.8" font-family="Times,serif" font-size="14.00">n kernels: 64</text>
</g>
<!-- 4&#45;&gt;18 -->
<g id="edge18" class="edge"><title>4&#45;&gt;18</title>
<path fill="none" stroke="black" d="M324.247,-163.923C300.893,-148.432 266.018,-125.298 233.784,-103.917"/>
<polygon fill="black" stroke="black" points="235.484,-100.845 225.216,-98.2336 231.614,-106.678 235.484,-100.845"/>
</g>
<!-- 19 -->
<g id="node20" class="node"><title>19</title>
<path fill="#e9d3ff" stroke="black" d="M616,-98C616,-98 335,-98 335,-98 329,-98 323,-92 323,-86 323,-86 323,-12 323,-12 323,-6 329,-0 335,-0 335,-0 616,-0 616,-0 622,-0 628,-6 628,-12 628,-12 628,-86 628,-86 628,-92 622,-98 616,-98"/>
<text text-anchor="middle" x="475.5" y="-82.8" font-family="Times,serif" font-size="14.00">forward</text>
<text text-anchor="middle" x="475.5" y="-67.8" font-family="Times,serif" font-size="14.00">CB0/C0</text>
<text text-anchor="middle" x="475.5" y="-52.8" font-family="Times,serif" font-size="14.00">dilation rate: 1 &#160;&#160;k width: 3</text>
<text text-anchor="middle" x="475.5" y="-37.8" font-family="Times,serif" font-size="14.00">log gamma1: &#45;11.000000 &#160;&#160;log gamma2: &#45;11.000000</text>
<text text-anchor="middle" x="475.5" y="-22.8" font-family="Times,serif" font-size="14.00">log lambda1: &#45;11.000000 &#160;&#160;log lambda2: &#45;11.000000</text>
<text text-anchor="middle" x="475.5" y="-7.8" font-family="Times,serif" font-size="14.00">n kernels: 64</text>
</g>
<!-- 5&#45;&gt;19 -->
<g id="edge19" class="edge"><title>5&#45;&gt;19</title>
<path fill="none" stroke="black" d="M628.26,-163.923C607.665,-148.563 576.996,-125.692 548.53,-104.463"/>
<polygon fill="black" stroke="black" points="550.286,-101.406 540.177,-98.2336 546.101,-107.018 550.286,-101.406"/>
</g>
<!-- 20 -->
<g id="node21" class="node"><title>20</title>
<path fill="#e9d3ff" stroke="black" d="M939,-98C939,-98 658,-98 658,-98 652,-98 646,-92 646,-86 646,-86 646,-12 646,-12 646,-6 652,-0 658,-0 658,-0 939,-0 939,-0 945,-0 951,-6 951,-12 951,-12 951,-86 951,-86 951,-92 945,-98 939,-98"/>
<text text-anchor="middle" x="798.5" y="-82.8" font-family="Times,serif" font-size="14.00">forward</text>
<text text-anchor="middle" x="798.5" y="-67.8" font-family="Times,serif" font-size="14.00">CB0/C1</text>
<text text-anchor="middle" x="798.5" y="-52.8" font-family="Times,serif" font-size="14.00">dilation rate: 1 &#160;&#160;k width: 3</text>
<text text-anchor="middle" x="798.5" y="-37.8" font-family="Times,serif" font-size="14.00">log gamma1: &#45;11.000000 &#160;&#160;log gamma2: &#45;11.000000</text>
<text text-anchor="middle" x="798.5" y="-22.8" font-family="Times,serif" font-size="14.00">log lambda1: &#45;11.000000 &#160;&#160;log lambda2: &#45;11.000000</text>
<text text-anchor="middle" x="798.5" y="-7.8" font-family="Times,serif" font-size="14.00">n kernels: 64</text>
</g>
<!-- 6&#45;&gt;20 -->
<g id="edge20" class="edge"><title>6&#45;&gt;20</title>
<path fill="none" stroke="black" d="M905.42,-164.743C891.382,-149.678 870.209,-126.956 850.4,-105.697"/>
<polygon fill="black" stroke="black" points="852.841,-103.183 843.463,-98.2533 847.72,-107.955 852.841,-103.183"/>
</g>
<!-- 21 -->
<g id="node22" class="node"><title>21</title>
<path fill="#e9d3ff" stroke="black" d="M1262,-98C1262,-98 981,-98 981,-98 975,-98 969,-92 969,-86 969,-86 969,-12 969,-12 969,-6 975,-0 981,-0 981,-0 1262,-0 1262,-0 1268,-0 1274,-6 1274,-12 1274,-12 1274,-86 1274,-86 1274,-92 1268,-98 1262,-98"/>
<text text-anchor="middle" x="1121.5" y="-82.8" font-family="Times,serif" font-size="14.00">forward</text>
<text text-anchor="middle" x="1121.5" y="-67.8" font-family="Times,serif" font-size="14.00">CB0/C2</text>
<text text-anchor="middle" x="1121.5" y="-52.8" font-family="Times,serif" font-size="14.00">dilation rate: 1 &#160;&#160;k width: 3</text>
<text text-anchor="middle" x="1121.5" y="-37.8" font-family="Times,serif" font-size="14.00">log gamma1: &#45;11.000000 &#160;&#160;log gamma2: &#45;11.000000</text>
<text text-anchor="middle" x="1121.5" y="-22.8" font-family="Times,serif" font-size="14.00">log lambda1: &#45;11.000000 &#160;&#160;log lambda2: &#45;11.000000</text>
<text text-anchor="middle" x="1121.5" y="-7.8" font-family="Times,serif" font-size="14.00">n kernels: 64</text>
</g>
<!-- 7&#45;&gt;21 -->
<g id="edge21" class="edge"><title>7&#45;&gt;21</title>
<path fill="none" stroke="black" d="M1121.5,-164.743C1121.5,-150.336 1121.5,-128.926 1121.5,-108.49"/>
<polygon fill="black" stroke="black" points="1125,-108.253 1121.5,-98.2533 1118,-108.253 1125,-108.253"/>
</g>
<!-- 22 -->
<g id="node23" class="node"><title>22</title>
<path fill="#e9d3ff" stroke="black" d="M1585,-98C1585,-98 1304,-98 1304,-98 1298,-98 1292,-92 1292,-86 1292,-86 1292,-12 1292,-12 1292,-6 1298,-0 1304,-0 1304,-0 1585,-0 1585,-0 1591,-0 1597,-6 1597,-12 1597,-12 1597,-86 1597,-86 1597,-92 1591,-98 1585,-98"/>
<text text-anchor="middle" x="1444.5" y="-82.8" font-family="Times,serif" font-size="14.00">forward</text>
<text text-anchor="middle" x="1444.5" y="-67.8" font-family="Times,serif" font-size="14.00">CB0/C3</text>
<text text-anchor="middle" x="1444.5" y="-52.8" font-family="Times,serif" font-size="14.00">dilation rate: 1 &#160;&#160;k width: 3</text>
<text text-anchor="middle" x="1444.5" y="-37.8" font-family="Times,serif" font-size="14.00">log gamma1: &#45;11.000000 &#160;&#160;log gamma2: &#45;11.000000</text>
<text text-anchor="middle" x="1444.5" y="-22.8" font-family="Times,serif" font-size="14.00">log lambda1: &#45;11.000000 &#160;&#160;log lambda2: &#45;11.000000</text>
<text text-anchor="middle" x="1444.5" y="-7.8" font-family="Times,serif" font-size="14.00">n kernels: 64</text>
</g>
<!-- 8&#45;&gt;22 -->
<g id="edge22" class="edge"><title>8&#45;&gt;22</title>
<path fill="none" stroke="black" d="M1337.58,-164.743C1351.62,-149.678 1372.79,-126.956 1392.6,-105.697"/>
<polygon fill="black" stroke="black" points="1395.28,-107.955 1399.54,-98.2533 1390.16,-103.183 1395.28,-107.955"/>
</g>
<!-- 23 -->
<g id="node24" class="node"><title>23</title>
<path fill="#e9d3ff" stroke="black" d="M1908,-98C1908,-98 1627,-98 1627,-98 1621,-98 1615,-92 1615,-86 1615,-86 1615,-12 1615,-12 1615,-6 1621,-0 1627,-0 1627,-0 1908,-0 1908,-0 1914,-0 1920,-6 1920,-12 1920,-12 1920,-86 1920,-86 1920,-92 1914,-98 1908,-98"/>
<text text-anchor="middle" x="1767.5" y="-82.8" font-family="Times,serif" font-size="14.00">forward</text>
<text text-anchor="middle" x="1767.5" y="-67.8" font-family="Times,serif" font-size="14.00">CB0/C4</text>
<text text-anchor="middle" x="1767.5" y="-52.8" font-family="Times,serif" font-size="14.00">dilation rate: 1 &#160;&#160;k width: 3</text>
<text text-anchor="middle" x="1767.5" y="-37.8" font-family="Times,serif" font-size="14.00">log gamma1: &#45;11.000000 &#160;&#160;log gamma2: &#45;11.000000</text>
<text text-anchor="middle" x="1767.5" y="-22.8" font-family="Times,serif" font-size="14.00">log lambda1: &#45;11.000000 &#160;&#160;log lambda2: &#45;11.000000</text>
<text text-anchor="middle" x="1767.5" y="-7.8" font-family="Times,serif" font-size="14.00">n kernels: 64</text>
</g>
<!-- 9&#45;&gt;23 -->
<g id="edge23" class="edge"><title>9&#45;&gt;23</title>
<path fill="none" stroke="black" d="M1658.76,-163.923C1673.16,-148.827 1694.5,-126.475 1714.47,-105.558"/>
<polygon fill="black" stroke="black" points="1717.09,-107.884 1721.46,-98.2336 1712.02,-103.051 1717.09,-107.884"/>
</g>
<!-- 24 -->
<g id="node25" class="node"><title>24</title>
<path fill="#e9d3ff" stroke="black" d="M2231,-98C2231,-98 1950,-98 1950,-98 1944,-98 1938,-92 1938,-86 1938,-86 1938,-12 1938,-12 1938,-6 1944,-0 1950,-0 1950,-0 2231,-0 2231,-0 2237,-0 2243,-6 2243,-12 2243,-12 2243,-86 2243,-86 2243,-92 2237,-98 2231,-98"/>
<text text-anchor="middle" x="2090.5" y="-82.8" font-family="Times,serif" font-size="14.00">forward</text>
<text text-anchor="middle" x="2090.5" y="-67.8" font-family="Times,serif" font-size="14.00">input</text>
<text text-anchor="middle" x="2090.5" y="-52.8" font-family="Times,serif" font-size="14.00">dilation rate: 1 &#160;&#160;k width: 3</text>
<text text-anchor="middle" x="2090.5" y="-37.8" font-family="Times,serif" font-size="14.00">log gamma1: &#45;11.000000 &#160;&#160;log gamma2: &#45;11.000000</text>
<text text-anchor="middle" x="2090.5" y="-22.8" font-family="Times,serif" font-size="14.00">log lambda1: &#45;11.000000 &#160;&#160;log lambda2: &#45;11.000000</text>
<text text-anchor="middle" x="2090.5" y="-7.8" font-family="Times,serif" font-size="14.00">n kernels: 64</text>
</g>
<!-- 10&#45;&gt;24 -->
<g id="edge24" class="edge"><title>10&#45;&gt;24</title>
<path fill="none" stroke="black" d="M2180.26,-163.923C2168.47,-148.959 2151.06,-126.865 2134.71,-106.106"/>
<polygon fill="black" stroke="black" points="2137.44,-103.922 2128.5,-98.2336 2131.94,-108.255 2137.44,-103.922"/>
</g>
<!-- 25 -->
<g id="node26" class="node"><title>25</title>
<path fill="#e9d3ff" stroke="black" d="M2554,-98C2554,-98 2273,-98 2273,-98 2267,-98 2261,-92 2261,-86 2261,-86 2261,-12 2261,-12 2261,-6 2267,-0 2273,-0 2273,-0 2554,-0 2554,-0 2560,-0 2566,-6 2566,-12 2566,-12 2566,-86 2566,-86 2566,-92 2560,-98 2554,-98"/>
<text text-anchor="middle" x="2413.5" y="-82.8" font-family="Times,serif" font-size="14.00">forward</text>
<text text-anchor="middle" x="2413.5" y="-67.8" font-family="Times,serif" font-size="14.00">CB1/C0</text>
<text text-anchor="middle" x="2413.5" y="-52.8" font-family="Times,serif" font-size="14.00">dilation rate: 1 &#160;&#160;k width: 3</text>
<text text-anchor="middle" x="2413.5" y="-37.8" font-family="Times,serif" font-size="14.00">log gamma1: &#45;11.000000 &#160;&#160;log gamma2: &#45;11.000000</text>
<text text-anchor="middle" x="2413.5" y="-22.8" font-family="Times,serif" font-size="14.00">log lambda1: &#45;11.000000 &#160;&#160;log lambda2: &#45;11.000000</text>
<text text-anchor="middle" x="2413.5" y="-7.8" font-family="Times,serif" font-size="14.00">n kernels: 64</text>
</g>
<!-- 11&#45;&gt;25 -->
<g id="edge25" class="edge"><title>11&#45;&gt;25</title>
<path fill="none" stroke="black" d="M2464.42,-163.923C2457.88,-149.289 2448.29,-127.835 2439.19,-107.48"/>
<polygon fill="black" stroke="black" points="2442.33,-105.935 2435.06,-98.2336 2435.94,-108.791 2442.33,-105.935"/>
</g>
<!-- 26 -->
<g id="node27" class="node"><title>26</title>
<path fill="#e9d3ff" stroke="black" d="M2877,-98C2877,-98 2596,-98 2596,-98 2590,-98 2584,-92 2584,-86 2584,-86 2584,-12 2584,-12 2584,-6 2590,-0 2596,-0 2596,-0 2877,-0 2877,-0 2883,-0 2889,-6 2889,-12 2889,-12 2889,-86 2889,-86 2889,-92 2883,-98 2877,-98"/>
<text text-anchor="middle" x="2736.5" y="-82.8" font-family="Times,serif" font-size="14.00">forward</text>
<text text-anchor="middle" x="2736.5" y="-67.8" font-family="Times,serif" font-size="14.00">CB1/C1</text>
<text text-anchor="middle" x="2736.5" y="-52.8" font-family="Times,serif" font-size="14.00">dilation rate: 1 &#160;&#160;k width: 3</text>
<text text-anchor="middle" x="2736.5" y="-37.8" font-family="Times,serif" font-size="14.00">log gamma1: &#45;11.000000 &#160;&#160;log gamma2: &#45;11.000000</text>
<text text-anchor="middle" x="2736.5" y="-22.8" font-family="Times,serif" font-size="14.00">log lambda1: &#45;11.000000 &#160;&#160;log lambda2: &#45;11.000000</text>
<text text-anchor="middle" x="2736.5" y="-7.8" font-family="Times,serif" font-size="14.00">n kernels: 64</text>
</g>
<!-- 12&#45;&gt;26 -->
<g id="edge26" class="edge"><title>12&#45;&gt;26</title>
<path fill="none" stroke="black" d="M2736.5,-163.923C2736.5,-149.486 2736.5,-128.413 2736.5,-108.306"/>
<polygon fill="black" stroke="black" points="2740,-108.234 2736.5,-98.2336 2733,-108.234 2740,-108.234"/>
</g>
<!-- 27 -->
<g id="node28" class="node"><title>27</title>
<path fill="#e9d3ff" stroke="black" d="M3200,-98C3200,-98 2919,-98 2919,-98 2913,-98 2907,-92 2907,-86 2907,-86 2907,-12 2907,-12 2907,-6 2913,-0 2919,-0 2919,-0 3200,-0 3200,-0 3206,-0 3212,-6 3212,-12 3212,-12 3212,-86 3212,-86 3212,-92 3206,-98 3200,-98"/>
<text text-anchor="middle" x="3059.5" y="-82.8" font-family="Times,serif" font-size="14.00">forward</text>
<text text-anchor="middle" x="3059.5" y="-67.8" font-family="Times,serif" font-size="14.00">CB1/C2</text>
<text text-anchor="middle" x="3059.5" y="-52.8" font-family="Times,serif" font-size="14.00">dilation rate: 1 &#160;&#160;k width: 3</text>
<text text-anchor="middle" x="3059.5" y="-37.8" font-family="Times,serif" font-size="14.00">log gamma1: &#45;11.000000 &#160;&#160;log gamma2: &#45;11.000000</text>
<text text-anchor="middle" x="3059.5" y="-22.8" font-family="Times,serif" font-size="14.00">log lambda1: &#45;11.000000 &#160;&#160;log lambda2: &#45;11.000000</text>
<text text-anchor="middle" x="3059.5" y="-7.8" font-family="Times,serif" font-size="14.00">n kernels: 64</text>
</g>
<!-- 13&#45;&gt;27 -->
<g id="edge27" class="edge"><title>13&#45;&gt;27</title>
<path fill="none" stroke="black" d="M2923.14,-163.923C2941.44,-148.629 2968.66,-125.888 2993.98,-104.737"/>
<polygon fill="black" stroke="black" points="2996.34,-107.331 3001.77,-98.2336 2991.85,-101.959 2996.34,-107.331"/>
</g>
<!-- 28 -->
<g id="node29" class="node"><title>28</title>
<path fill="#e9d3ff" stroke="black" d="M3523,-98C3523,-98 3242,-98 3242,-98 3236,-98 3230,-92 3230,-86 3230,-86 3230,-12 3230,-12 3230,-6 3236,-0 3242,-0 3242,-0 3523,-0 3523,-0 3529,-0 3535,-6 3535,-12 3535,-12 3535,-86 3535,-86 3535,-92 3529,-98 3523,-98"/>
<text text-anchor="middle" x="3382.5" y="-82.8" font-family="Times,serif" font-size="14.00">forward</text>
<text text-anchor="middle" x="3382.5" y="-67.8" font-family="Times,serif" font-size="14.00">CB1/C3</text>
<text text-anchor="middle" x="3382.5" y="-52.8" font-family="Times,serif" font-size="14.00">dilation rate: 1 &#160;&#160;k width: 3</text>
<text text-anchor="middle" x="3382.5" y="-37.8" font-family="Times,serif" font-size="14.00">log gamma1: &#45;11.000000 &#160;&#160;log gamma2: &#45;11.000000</text>
<text text-anchor="middle" x="3382.5" y="-22.8" font-family="Times,serif" font-size="14.00">log lambda1: &#45;11.000000 &#160;&#160;log lambda2: &#45;11.000000</text>
<text text-anchor="middle" x="3382.5" y="-7.8" font-family="Times,serif" font-size="14.00">n kernels: 64</text>
</g>
<!-- 14&#45;&gt;28 -->
<g id="edge28" class="edge"><title>14&#45;&gt;28</title>
<path fill="none" stroke="black" d="M3097.03,-163.836C3112.74,-154.262 3132.79,-142.727 3151.5,-134 3176.04,-122.551 3202.61,-111.616 3228.69,-101.645"/>
<polygon fill="black" stroke="black" points="3230.16,-104.83 3238.27,-98.0152 3227.68,-98.284 3230.16,-104.83"/>
</g>
<!-- 29 -->
<g id="node30" class="node"><title>29</title>
<path fill="#e9d3ff" stroke="black" d="M3846,-98C3846,-98 3565,-98 3565,-98 3559,-98 3553,-92 3553,-86 3553,-86 3553,-12 3553,-12 3553,-6 3559,-0 3565,-0 3565,-0 3846,-0 3846,-0 3852,-0 3858,-6 3858,-12 3858,-12 3858,-86 3858,-86 3858,-92 3852,-98 3846,-98"/>
<text text-anchor="middle" x="3705.5" y="-82.8" font-family="Times,serif" font-size="14.00">forward</text>
<text text-anchor="middle" x="3705.5" y="-67.8" font-family="Times,serif" font-size="14.00">CB1/C4</text>
<text text-anchor="middle" x="3705.5" y="-52.8" font-family="Times,serif" font-size="14.00">dilation rate: 1 &#160;&#160;k width: 3</text>
<text text-anchor="middle" x="3705.5" y="-37.8" font-family="Times,serif" font-size="14.00">log gamma1: &#45;11.000000 &#160;&#160;log gamma2: &#45;11.000000</text>
<text text-anchor="middle" x="3705.5" y="-22.8" font-family="Times,serif" font-size="14.00">log lambda1: &#45;11.000000 &#160;&#160;log lambda2: &#45;11.000000</text>
<text text-anchor="middle" x="3705.5" y="-7.8" font-family="Times,serif" font-size="14.00">n kernels: 64</text>
</g>
<!-- 15&#45;&gt;29 -->
<g id="edge29" class="edge"><title>15&#45;&gt;29</title>
<path fill="none" stroke="black" d="M3270.61,-163.975C3287.85,-153.71 3310.72,-141.448 3332.5,-134 3419.53,-104.242 3448.89,-118.519 3542.68,-98.072"/>
<polygon fill="black" stroke="black" points="3543.59,-101.455 3552.57,-95.8393 3542.05,-94.6261 3543.59,-101.455"/>
</g>
</g>
</svg>
