<?xml version="1.0" encoding="UTF-8" standalone="no"?>
<!DOCTYPE svg PUBLIC "-//W3C//DTD SVG 1.1//EN"
 "http://www.w3.org/Graphics/SVG/1.1/DTD/svg11.dtd">
<!-- Generated by graphviz version 2.38.0 (20140413.2041)
 -->
<!-- Title: %3 Pages: 1 -->
<svg width="959pt" height="358pt"
 viewBox="0.00 0.00 959.00 358.00" xmlns="http://www.w3.org/2000/svg" xmlns:xlink="http://www.w3.org/1999/xlink">
<g id="graph0" class="graph" transform="scale(1 1) rotate(0) translate(4 354)">
<title>%3</title>
<polygon fill="none" stroke="none" points="-4,4 -4,-354 955,-354 955,4 -4,4"/>
<!-- 0 -->
<g id="node1" class="node"><title>0</title>
<path fill="#ffd3d3" stroke="black" d="M571,-350C571,-350 380,-350 380,-350 374,-350 368,-344 368,-338 368,-338 368,-309 368,-309 368,-303 374,-297 380,-297 380,-297 571,-297 571,-297 577,-297 583,-303 583,-309 583,-309 583,-338 583,-338 583,-344 577,-350 571,-350"/>
<text text-anchor="middle" x="475.5" y="-334.8" font-family="Times,serif" font-size="14.00">net</text>
<text text-anchor="middle" x="475.5" y="-319.8" font-family="Times,serif" font-size="14.00">k width: 3 &#160;&#160;log gamma2: &#45;5.635440</text>
<text text-anchor="middle" x="475.5" y="-304.8" font-family="Times,serif" font-size="14.00">n kernels: 33</text>
</g>
<!-- 1 -->
<g id="node2" class="node"><title>1</title>
<path fill="#e9ffd3" stroke="black" d="M535.5,-261C535.5,-261 415.5,-261 415.5,-261 409.5,-261 403.5,-255 403.5,-249 403.5,-249 403.5,-235 403.5,-235 403.5,-229 409.5,-223 415.5,-223 415.5,-223 535.5,-223 535.5,-223 541.5,-223 547.5,-229 547.5,-235 547.5,-235 547.5,-249 547.5,-249 547.5,-255 541.5,-261 535.5,-261"/>
<text text-anchor="middle" x="475.5" y="-245.8" font-family="Times,serif" font-size="14.00">conv block 0</text>
<text text-anchor="middle" x="475.5" y="-230.8" font-family="Times,serif" font-size="14.00">log gamma2: 1.680053</text>
</g>
<!-- 0&#45;&gt;1 -->
<g id="edge1" class="edge"><title>0&#45;&gt;1</title>
<path fill="none" stroke="black" d="M475.5,-296.908C475.5,-288.738 475.5,-279.649 475.5,-271.298"/>
<polygon fill="black" stroke="black" points="479,-271.239 475.5,-261.239 472,-271.239 479,-271.239"/>
</g>
<!-- 2 -->
<g id="node3" class="node"><title>2</title>
<path fill="#d3ffff" stroke="black" d="M307,-187C307,-187 48,-187 48,-187 42,-187 36,-181 36,-175 36,-175 36,-146 36,-146 36,-140 42,-134 48,-134 48,-134 307,-134 307,-134 313,-134 319,-140 319,-146 319,-146 319,-175 319,-175 319,-181 313,-187 307,-187"/>
<text text-anchor="middle" x="177.5" y="-171.8" font-family="Times,serif" font-size="14.00">comp 0</text>
<text text-anchor="middle" x="177.5" y="-156.8" font-family="Times,serif" font-size="14.00">log gamma1: 0.263594 &#160;&#160;log gamma2: 0.955388</text>
<text text-anchor="middle" x="177.5" y="-141.8" font-family="Times,serif" font-size="14.00">n kernels: &#45;6</text>
</g>
<!-- 1&#45;&gt;2 -->
<g id="edge2" class="edge"><title>1&#45;&gt;2</title>
<path fill="none" stroke="black" d="M407.879,-222.96C370.996,-213.121 324.516,-200.721 282.982,-189.64"/>
<polygon fill="black" stroke="black" points="283.66,-186.199 273.096,-187.003 281.856,-192.962 283.66,-186.199"/>
</g>
<!-- 3 -->
<g id="node4" class="node"><title>3</title>
<path fill="#bfe6e6" stroke="black" d="M576.5,-179.5C576.5,-179.5 374.5,-179.5 374.5,-179.5 368.5,-179.5 362.5,-173.5 362.5,-167.5 362.5,-167.5 362.5,-153.5 362.5,-153.5 362.5,-147.5 368.5,-141.5 374.5,-141.5 374.5,-141.5 576.5,-141.5 576.5,-141.5 582.5,-141.5 588.5,-147.5 588.5,-153.5 588.5,-153.5 588.5,-167.5 588.5,-167.5 588.5,-173.5 582.5,-179.5 576.5,-179.5"/>
<text text-anchor="middle" x="475.5" y="-164.3" font-family="Times,serif" font-size="14.00">comp 1</text>
<text text-anchor="middle" x="475.5" y="-149.3" font-family="Times,serif" font-size="14.00">log gamma2: 0.955388 &#160;&#160;n kernels: 11</text>
</g>
<!-- 1&#45;&gt;3 -->
<g id="edge3" class="edge"><title>1&#45;&gt;3</title>
<path fill="none" stroke="black" d="M475.5,-222.96C475.5,-213.17 475.5,-200.845 475.5,-189.807"/>
<polygon fill="black" stroke="black" points="479,-189.744 475.5,-179.744 472,-189.744 479,-189.744"/>
</g>
<!-- 4 -->
<g id="node5" class="node"><title>4</title>
<path fill="#abcece" stroke="black" d="M802,-179.5C802,-179.5 677,-179.5 677,-179.5 671,-179.5 665,-173.5 665,-167.5 665,-167.5 665,-153.5 665,-153.5 665,-147.5 671,-141.5 677,-141.5 677,-141.5 802,-141.5 802,-141.5 808,-141.5 814,-147.5 814,-153.5 814,-153.5 814,-167.5 814,-167.5 814,-173.5 808,-179.5 802,-179.5"/>
<text text-anchor="middle" x="739.5" y="-164.3" font-family="Times,serif" font-size="14.00">comp 2</text>
<text text-anchor="middle" x="739.5" y="-149.3" font-family="Times,serif" font-size="14.00">log gamma1: &#45;1.326177</text>
</g>
<!-- 1&#45;&gt;4 -->
<g id="edge4" class="edge"><title>1&#45;&gt;4</title>
<path fill="none" stroke="black" d="M535.406,-222.96C575.263,-210.958 627.772,-195.145 669.547,-182.565"/>
<polygon fill="black" stroke="black" points="670.809,-185.841 679.375,-179.606 668.791,-179.138 670.809,-185.841"/>
</g>
<!-- 5 -->
<g id="node6" class="node"><title>5</title>
<path fill="#e9d3ff" stroke="black" d="M293,-98C293,-98 12,-98 12,-98 6,-98 0,-92 0,-86 0,-86 0,-12 0,-12 0,-6 6,-0 12,-0 12,-0 293,-0 293,-0 299,-0 305,-6 305,-12 305,-12 305,-86 305,-86 305,-92 299,-98 293,-98"/>
<text text-anchor="middle" x="152.5" y="-82.8" font-family="Times,serif" font-size="14.00">forward</text>
<text text-anchor="middle" x="152.5" y="-67.8" font-family="Times,serif" font-size="14.00">input</text>
<text text-anchor="middle" x="152.5" y="-52.8" font-family="Times,serif" font-size="14.00">dilation rate: 1 &#160;&#160;k width: 3</text>
<text text-anchor="middle" x="152.5" y="-37.8" font-family="Times,serif" font-size="14.00">log gamma1: &#45;11.000000 &#160;&#160;log gamma2: &#45;11.000000</text>
<text text-anchor="middle" x="152.5" y="-22.8" font-family="Times,serif" font-size="14.00">log lambda1: &#45;11.000000 &#160;&#160;log lambda2: &#45;11.000000</text>
<text text-anchor="middle" x="152.5" y="-7.8" font-family="Times,serif" font-size="14.00">n kernels: 64</text>
</g>
<!-- 2&#45;&gt;5 -->
<g id="edge5" class="edge"><title>2&#45;&gt;5</title>
<path fill="none" stroke="black" d="M171.639,-133.827C169.858,-126.028 167.824,-117.12 165.763,-108.091"/>
<polygon fill="black" stroke="black" points="169.164,-107.262 163.526,-98.2922 162.339,-108.82 169.164,-107.262"/>
</g>
<!-- 6 -->
<g id="node7" class="node"><title>6</title>
<path fill="#e9d3ff" stroke="black" d="M616,-98C616,-98 335,-98 335,-98 329,-98 323,-92 323,-86 323,-86 323,-12 323,-12 323,-6 329,-0 335,-0 335,-0 616,-0 616,-0 622,-0 628,-6 628,-12 628,-12 628,-86 628,-86 628,-92 622,-98 616,-98"/>
<text text-anchor="middle" x="475.5" y="-82.8" font-family="Times,serif" font-size="14.00">forward</text>
<text text-anchor="middle" x="475.5" y="-67.8" font-family="Times,serif" font-size="14.00">CB0/C0</text>
<text text-anchor="middle" x="475.5" y="-52.8" font-family="Times,serif" font-size="14.00">dilation rate: 1 &#160;&#160;k width: 3</text>
<text text-anchor="middle" x="475.5" y="-37.8" font-family="Times,serif" font-size="14.00">log gamma1: &#45;11.000000 &#160;&#160;log gamma2: &#45;11.000000</text>
<text text-anchor="middle" x="475.5" y="-22.8" font-family="Times,serif" font-size="14.00">log lambda1: &#45;11.000000 &#160;&#160;log lambda2: &#45;11.000000</text>
<text text-anchor="middle" x="475.5" y="-7.8" font-family="Times,serif" font-size="14.00">n kernels: 64</text>
</g>
<!-- 3&#45;&gt;6 -->
<g id="edge6" class="edge"><title>3&#45;&gt;6</title>
<path fill="none" stroke="black" d="M475.5,-141.418C475.5,-132.212 475.5,-120.445 475.5,-108.441"/>
<polygon fill="black" stroke="black" points="479,-108.352 475.5,-98.352 472,-108.352 479,-108.352"/>
</g>
<!-- 7 -->
<g id="node8" class="node"><title>7</title>
<path fill="#e9d3ff" stroke="black" d="M939,-98C939,-98 658,-98 658,-98 652,-98 646,-92 646,-86 646,-86 646,-12 646,-12 646,-6 652,-0 658,-0 658,-0 939,-0 939,-0 945,-0 951,-6 951,-12 951,-12 951,-86 951,-86 951,-92 945,-98 939,-98"/>
<text text-anchor="middle" x="798.5" y="-82.8" font-family="Times,serif" font-size="14.00">forward</text>
<text text-anchor="middle" x="798.5" y="-67.8" font-family="Times,serif" font-size="14.00">CB0/C1</text>
<text text-anchor="middle" x="798.5" y="-52.8" font-family="Times,serif" font-size="14.00">dilation rate: 1 &#160;&#160;k width: 3</text>
<text text-anchor="middle" x="798.5" y="-37.8" font-family="Times,serif" font-size="14.00">log gamma1: &#45;11.000000 &#160;&#160;log gamma2: &#45;11.000000</text>
<text text-anchor="middle" x="798.5" y="-22.8" font-family="Times,serif" font-size="14.00">log lambda1: &#45;11.000000 &#160;&#160;log lambda2: &#45;11.000000</text>
<text text-anchor="middle" x="798.5" y="-7.8" font-family="Times,serif" font-size="14.00">n kernels: 64</text>
</g>
<!-- 4&#45;&gt;7 -->
<g id="edge7" class="edge"><title>4&#45;&gt;7</title>
<path fill="none" stroke="black" d="M749.243,-141.418C754.352,-131.936 760.925,-119.737 767.594,-107.36"/>
<polygon fill="black" stroke="black" points="770.785,-108.816 772.447,-98.352 764.623,-105.495 770.785,-108.816"/>
</g>
</g>
</svg>
