<?xml version="1.0" encoding="UTF-8" standalone="no"?>
<!DOCTYPE svg PUBLIC "-//W3C//DTD SVG 1.1//EN"
 "http://www.w3.org/Graphics/SVG/1.1/DTD/svg11.dtd">
<!-- Generated by graphviz version 2.38.0 (20140413.2041)
 -->
<!-- Title: %3 Pages: 1 -->
<svg width="8135pt" height="387pt"
 viewBox="0.00 0.00 8135.00 387.00" xmlns="http://www.w3.org/2000/svg" xmlns:xlink="http://www.w3.org/1999/xlink">
<g id="graph0" class="graph" transform="scale(1 1) rotate(0) translate(4 383)">
<title>%3</title>
<polygon fill="none" stroke="none" points="-4,4 -4,-383 8131,-383 8131,4 -4,4"/>
<!-- 0 -->
<g id="node1" class="node"><title>0</title>
<path fill="#ffd3d3" stroke="black" d="M1872.5,-379C1872.5,-379 1592.5,-379 1592.5,-379 1586.5,-379 1580.5,-373 1580.5,-367 1580.5,-367 1580.5,-338 1580.5,-338 1580.5,-332 1586.5,-326 1592.5,-326 1592.5,-326 1872.5,-326 1872.5,-326 1878.5,-326 1884.5,-332 1884.5,-338 1884.5,-338 1884.5,-367 1884.5,-367 1884.5,-373 1878.5,-379 1872.5,-379"/>
<text text-anchor="middle" x="1732.5" y="-363.8" font-family="Times,serif" font-size="14.00">net</text>
<text text-anchor="middle" x="1732.5" y="-348.8" font-family="Times,serif" font-size="14.00">log lambda1: &#45;11.000000 &#160;&#160;log lambda2: &#45;11.000000</text>
<text text-anchor="middle" x="1732.5" y="-333.8" font-family="Times,serif" font-size="14.00">n kernels: 85 &#160;&#160;pooling type: 0</text>
</g>
<!-- 1 -->
<g id="node2" class="node"><title>1</title>
<path fill="#f6ffd3" stroke="black" d="M610,-290C610,-290 547,-290 547,-290 541,-290 535,-284 535,-278 535,-278 535,-264 535,-264 535,-258 541,-252 547,-252 547,-252 610,-252 610,-252 616,-252 622,-258 622,-264 622,-264 622,-278 622,-278 622,-284 616,-290 610,-290"/>
<text text-anchor="middle" x="578.5" y="-274.8" font-family="Times,serif" font-size="14.00">encoder</text>
<text text-anchor="middle" x="578.5" y="-259.8" font-family="Times,serif" font-size="14.00">n kernels: 20</text>
</g>
<!-- 0&#45;&gt;1 -->
<g id="edge1" class="edge"><title>0&#45;&gt;1</title>
<path fill="none" stroke="black" d="M1580.45,-341.025C1319.97,-323.081 800.239,-287.276 632.226,-275.701"/>
<polygon fill="black" stroke="black" points="632.358,-272.202 622.141,-275.006 631.877,-279.186 632.358,-272.202"/>
</g>
<!-- 2 -->
<g id="node3" class="node"><title>2</title>
<path fill="#f6ffd3" stroke="black" d="M2904,-289C2904,-289 2869,-289 2869,-289 2863,-289 2857,-283 2857,-277 2857,-277 2857,-265 2857,-265 2857,-259 2863,-253 2869,-253 2869,-253 2904,-253 2904,-253 2910,-253 2916,-259 2916,-265 2916,-265 2916,-277 2916,-277 2916,-283 2910,-289 2904,-289"/>
<text text-anchor="middle" x="2886.5" y="-267.3" font-family="Times,serif" font-size="14.00">decoder</text>
</g>
<!-- 0&#45;&gt;2 -->
<g id="edge2" class="edge"><title>0&#45;&gt;2</title>
<path fill="none" stroke="black" d="M1884.55,-341.025C2152.62,-322.558 2695.26,-285.174 2846.55,-274.752"/>
<polygon fill="black" stroke="black" points="2847.02,-278.228 2856.75,-274.049 2846.54,-271.245 2847.02,-278.228"/>
</g>
<!-- 3 -->
<g id="node4" class="node"><title>3</title>
<path fill="#d3ffe4" stroke="black" d="M300,-215C300,-215 225,-215 225,-215 219,-215 213,-209 213,-203 213,-203 213,-191 213,-191 213,-185 219,-179 225,-179 225,-179 300,-179 300,-179 306,-179 312,-185 312,-191 312,-191 312,-203 312,-203 312,-209 306,-215 300,-215"/>
<text text-anchor="middle" x="262.5" y="-193.3" font-family="Times,serif" font-size="14.00">encode block 0</text>
</g>
<!-- 1&#45;&gt;3 -->
<g id="edge3" class="edge"><title>1&#45;&gt;3</title>
<path fill="none" stroke="black" d="M534.893,-260.064C479.642,-247.475 384.164,-225.721 322.184,-211.599"/>
<polygon fill="black" stroke="black" points="322.685,-208.123 312.157,-209.314 321.13,-214.948 322.685,-208.123"/>
</g>
<!-- 4 -->
<g id="node5" class="node"><title>4</title>
<path fill="#bfe6cf" stroke="black" d="M656,-216C656,-216 501,-216 501,-216 495,-216 489,-210 489,-204 489,-204 489,-190 489,-190 489,-184 495,-178 501,-178 501,-178 656,-178 656,-178 662,-178 668,-184 668,-190 668,-190 668,-204 668,-204 668,-210 662,-216 656,-216"/>
<text text-anchor="middle" x="578.5" y="-200.8" font-family="Times,serif" font-size="14.00">encode block 1</text>
<text text-anchor="middle" x="578.5" y="-185.8" font-family="Times,serif" font-size="14.00">n kernels: 20 &#160;&#160;spatial scale: 1</text>
</g>
<!-- 1&#45;&gt;4 -->
<g id="edge4" class="edge"><title>1&#45;&gt;4</title>
<path fill="none" stroke="black" d="M578.5,-251.831C578.5,-244.131 578.5,-234.974 578.5,-226.417"/>
<polygon fill="black" stroke="black" points="582,-226.413 578.5,-216.413 575,-226.413 582,-226.413"/>
</g>
<!-- 5 -->
<g id="node6" class="node"><title>5</title>
<path fill="#d3ffe4" stroke="black" d="M1791,-216C1791,-216 1630,-216 1630,-216 1624,-216 1618,-210 1618,-204 1618,-204 1618,-190 1618,-190 1618,-184 1624,-178 1630,-178 1630,-178 1791,-178 1791,-178 1797,-178 1803,-184 1803,-190 1803,-190 1803,-204 1803,-204 1803,-210 1797,-216 1791,-216"/>
<text text-anchor="middle" x="1710.5" y="-200.8" font-family="Times,serif" font-size="14.00">decode block 2</text>
<text text-anchor="middle" x="1710.5" y="-185.8" font-family="Times,serif" font-size="14.00">n kernels: 255 &#160;&#160;spatial scale: 2</text>
</g>
<!-- 2&#45;&gt;5 -->
<g id="edge5" class="edge"><title>2&#45;&gt;5</title>
<path fill="none" stroke="black" d="M2856.84,-268.184C2711.05,-259.258 2067.17,-219.837 1813.61,-204.313"/>
<polygon fill="black" stroke="black" points="1813.49,-200.799 1803.3,-203.681 1813.06,-207.786 1813.49,-200.799"/>
</g>
<!-- 6 -->
<g id="node7" class="node"><title>6</title>
<path fill="#bfe6cf" stroke="black" d="M4141,-216C4141,-216 3986,-216 3986,-216 3980,-216 3974,-210 3974,-204 3974,-204 3974,-190 3974,-190 3974,-184 3980,-178 3986,-178 3986,-178 4141,-178 4141,-178 4147,-178 4153,-184 4153,-190 4153,-190 4153,-204 4153,-204 4153,-210 4147,-216 4141,-216"/>
<text text-anchor="middle" x="4063.5" y="-200.8" font-family="Times,serif" font-size="14.00">decode block 1</text>
<text text-anchor="middle" x="4063.5" y="-185.8" font-family="Times,serif" font-size="14.00">n kernels: 85 &#160;&#160;spatial scale: 1</text>
</g>
<!-- 2&#45;&gt;6 -->
<g id="edge6" class="edge"><title>2&#45;&gt;6</title>
<path fill="none" stroke="black" d="M2916.18,-268.184C3062.72,-259.22 3711.97,-219.504 3963.49,-204.118"/>
<polygon fill="black" stroke="black" points="3963.95,-207.596 3973.72,-203.492 3963.52,-200.609 3963.95,-207.596"/>
</g>
<!-- 7 -->
<g id="node8" class="node"><title>7</title>
<path fill="#abceb9" stroke="black" d="M5820,-216C5820,-216 5745,-216 5745,-216 5739,-216 5733,-210 5733,-204 5733,-204 5733,-190 5733,-190 5733,-184 5739,-178 5745,-178 5745,-178 5820,-178 5820,-178 5826,-178 5832,-184 5832,-190 5832,-190 5832,-204 5832,-204 5832,-210 5826,-216 5820,-216"/>
<text text-anchor="middle" x="5782.5" y="-200.8" font-family="Times,serif" font-size="14.00">decode block 0</text>
<text text-anchor="middle" x="5782.5" y="-185.8" font-family="Times,serif" font-size="14.00">n kernels: &#45;12</text>
</g>
<!-- 2&#45;&gt;7 -->
<g id="edge7" class="edge"><title>2&#45;&gt;7</title>
<path fill="none" stroke="black" d="M2916.11,-269.264C3193.54,-262.366 5335.94,-209.102 5722.75,-199.486"/>
<polygon fill="black" stroke="black" points="5722.97,-202.981 5732.88,-199.234 5722.8,-195.983 5722.97,-202.981"/>
</g>
<!-- 8 -->
<g id="node9" class="node"><title>8</title>
<path fill="#d3e4ff" stroke="black" d="M151.5,-141C151.5,-141 117.5,-141 117.5,-141 111.5,-141 105.5,-135 105.5,-129 105.5,-129 105.5,-117 105.5,-117 105.5,-111 111.5,-105 117.5,-105 117.5,-105 151.5,-105 151.5,-105 157.5,-105 163.5,-111 163.5,-117 163.5,-117 163.5,-129 163.5,-129 163.5,-135 157.5,-141 151.5,-141"/>
<text text-anchor="middle" x="134.5" y="-119.3" font-family="Times,serif" font-size="14.00">comp 0</text>
</g>
<!-- 3&#45;&gt;8 -->
<g id="edge8" class="edge"><title>3&#45;&gt;8</title>
<path fill="none" stroke="black" d="M232.166,-178.937C214.296,-168.885 191.531,-156.08 172.475,-145.361"/>
<polygon fill="black" stroke="black" points="174.167,-142.297 163.735,-140.445 170.735,-148.398 174.167,-142.297"/>
</g>
<!-- 9 -->
<g id="node10" class="node"><title>9</title>
<path fill="#bfcfe6" stroke="black" d="M279.5,-141C279.5,-141 245.5,-141 245.5,-141 239.5,-141 233.5,-135 233.5,-129 233.5,-129 233.5,-117 233.5,-117 233.5,-111 239.5,-105 245.5,-105 245.5,-105 279.5,-105 279.5,-105 285.5,-105 291.5,-111 291.5,-117 291.5,-117 291.5,-129 291.5,-129 291.5,-135 285.5,-141 279.5,-141"/>
<text text-anchor="middle" x="262.5" y="-119.3" font-family="Times,serif" font-size="14.00">comp 1</text>
</g>
<!-- 3&#45;&gt;9 -->
<g id="edge9" class="edge"><title>3&#45;&gt;9</title>
<path fill="none" stroke="black" d="M262.5,-178.937C262.5,-170.807 262.5,-160.876 262.5,-151.705"/>
<polygon fill="black" stroke="black" points="266,-151.441 262.5,-141.441 259,-151.441 266,-151.441"/>
</g>
<!-- 10 -->
<g id="node11" class="node"><title>10</title>
<path fill="#d3e4ff" stroke="black" d="M505.5,-141C505.5,-141 471.5,-141 471.5,-141 465.5,-141 459.5,-135 459.5,-129 459.5,-129 459.5,-117 459.5,-117 459.5,-111 465.5,-105 471.5,-105 471.5,-105 505.5,-105 505.5,-105 511.5,-105 517.5,-111 517.5,-117 517.5,-117 517.5,-129 517.5,-129 517.5,-135 511.5,-141 505.5,-141"/>
<text text-anchor="middle" x="488.5" y="-119.3" font-family="Times,serif" font-size="14.00">comp 0</text>
</g>
<!-- 4&#45;&gt;10 -->
<g id="edge10" class="edge"><title>4&#45;&gt;10</title>
<path fill="none" stroke="black" d="M555.789,-177.831C544.366,-168.692 530.378,-157.502 518.121,-147.697"/>
<polygon fill="black" stroke="black" points="519.959,-144.685 509.964,-141.171 515.587,-150.151 519.959,-144.685"/>
</g>
<!-- 11 -->
<g id="node12" class="node"><title>11</title>
<path fill="#bfcfe6" stroke="black" d="M618.5,-141C618.5,-141 584.5,-141 584.5,-141 578.5,-141 572.5,-135 572.5,-129 572.5,-129 572.5,-117 572.5,-117 572.5,-111 578.5,-105 584.5,-105 584.5,-105 618.5,-105 618.5,-105 624.5,-105 630.5,-111 630.5,-117 630.5,-117 630.5,-129 630.5,-129 630.5,-135 624.5,-141 618.5,-141"/>
<text text-anchor="middle" x="601.5" y="-119.3" font-family="Times,serif" font-size="14.00">comp 1</text>
</g>
<!-- 4&#45;&gt;11 -->
<g id="edge11" class="edge"><title>4&#45;&gt;11</title>
<path fill="none" stroke="black" d="M584.304,-177.831C586.895,-169.72 590.003,-159.992 592.859,-151.051"/>
<polygon fill="black" stroke="black" points="596.227,-152.009 595.936,-141.418 589.559,-149.878 596.227,-152.009"/>
</g>
<!-- 12 -->
<g id="node13" class="node"><title>12</title>
<path fill="#d3e4ff" stroke="black" d="M941.5,-142C941.5,-142 867.5,-142 867.5,-142 861.5,-142 855.5,-136 855.5,-130 855.5,-130 855.5,-116 855.5,-116 855.5,-110 861.5,-104 867.5,-104 867.5,-104 941.5,-104 941.5,-104 947.5,-104 953.5,-110 953.5,-116 953.5,-116 953.5,-130 953.5,-130 953.5,-136 947.5,-142 941.5,-142"/>
<text text-anchor="middle" x="904.5" y="-126.8" font-family="Times,serif" font-size="14.00">comp 0</text>
<text text-anchor="middle" x="904.5" y="-111.8" font-family="Times,serif" font-size="14.00">n kernels: &#45;212</text>
</g>
<!-- 5&#45;&gt;12 -->
<g id="edge12" class="edge"><title>5&#45;&gt;12</title>
<path fill="none" stroke="black" d="M1617.99,-189.213C1492.02,-179.764 1259.52,-161.585 1061.5,-142 1029.14,-138.799 993.09,-134.704 963.704,-131.229"/>
<polygon fill="black" stroke="black" points="963.948,-127.733 953.605,-130.028 963.121,-134.684 963.948,-127.733"/>
</g>
<!-- 13 -->
<g id="node14" class="node"><title>13</title>
<path fill="#bfcfe6" stroke="black" d="M1156.5,-142C1156.5,-142 1082.5,-142 1082.5,-142 1076.5,-142 1070.5,-136 1070.5,-130 1070.5,-130 1070.5,-116 1070.5,-116 1070.5,-110 1076.5,-104 1082.5,-104 1082.5,-104 1156.5,-104 1156.5,-104 1162.5,-104 1168.5,-110 1168.5,-116 1168.5,-116 1168.5,-130 1168.5,-130 1168.5,-136 1162.5,-142 1156.5,-142"/>
<text text-anchor="middle" x="1119.5" y="-126.8" font-family="Times,serif" font-size="14.00">comp 1</text>
<text text-anchor="middle" x="1119.5" y="-111.8" font-family="Times,serif" font-size="14.00">n kernels: &#45;212</text>
</g>
<!-- 5&#45;&gt;13 -->
<g id="edge13" class="edge"><title>5&#45;&gt;13</title>
<path fill="none" stroke="black" d="M1617.83,-184.71C1495.03,-169.75 1281.92,-143.787 1178.79,-131.223"/>
<polygon fill="black" stroke="black" points="1178.91,-127.712 1168.56,-129.977 1178.06,-134.661 1178.91,-127.712"/>
</g>
<!-- 14 -->
<g id="node15" class="node"><title>14</title>
<path fill="#abb9ce" stroke="black" d="M1365.5,-141C1365.5,-141 1331.5,-141 1331.5,-141 1325.5,-141 1319.5,-135 1319.5,-129 1319.5,-129 1319.5,-117 1319.5,-117 1319.5,-111 1325.5,-105 1331.5,-105 1331.5,-105 1365.5,-105 1365.5,-105 1371.5,-105 1377.5,-111 1377.5,-117 1377.5,-117 1377.5,-129 1377.5,-129 1377.5,-135 1371.5,-141 1365.5,-141"/>
<text text-anchor="middle" x="1348.5" y="-119.3" font-family="Times,serif" font-size="14.00">comp 2</text>
</g>
<!-- 5&#45;&gt;14 -->
<g id="edge14" class="edge"><title>5&#45;&gt;14</title>
<path fill="none" stroke="black" d="M1619.62,-177.924C1545.05,-163.093 1443.08,-142.811 1387.88,-131.833"/>
<polygon fill="black" stroke="black" points="1388.3,-128.348 1377.81,-129.83 1386.94,-135.213 1388.3,-128.348"/>
</g>
<!-- 15 -->
<g id="node16" class="node"><title>15</title>
<path fill="#97a3b6" stroke="black" d="M1727.5,-141C1727.5,-141 1693.5,-141 1693.5,-141 1687.5,-141 1681.5,-135 1681.5,-129 1681.5,-129 1681.5,-117 1681.5,-117 1681.5,-111 1687.5,-105 1693.5,-105 1693.5,-105 1727.5,-105 1727.5,-105 1733.5,-105 1739.5,-111 1739.5,-117 1739.5,-117 1739.5,-129 1739.5,-129 1739.5,-135 1733.5,-141 1727.5,-141"/>
<text text-anchor="middle" x="1710.5" y="-119.3" font-family="Times,serif" font-size="14.00">comp 3</text>
</g>
<!-- 5&#45;&gt;15 -->
<g id="edge15" class="edge"><title>5&#45;&gt;15</title>
<path fill="none" stroke="black" d="M1710.5,-177.831C1710.5,-169.894 1710.5,-160.409 1710.5,-151.628"/>
<polygon fill="black" stroke="black" points="1714,-151.418 1710.5,-141.418 1707,-151.418 1714,-151.418"/>
</g>
<!-- 16 -->
<g id="node17" class="node"><title>16</title>
<path fill="#838d9e" stroke="black" d="M2270.5,-141C2270.5,-141 2236.5,-141 2236.5,-141 2230.5,-141 2224.5,-135 2224.5,-129 2224.5,-129 2224.5,-117 2224.5,-117 2224.5,-111 2230.5,-105 2236.5,-105 2236.5,-105 2270.5,-105 2270.5,-105 2276.5,-105 2282.5,-111 2282.5,-117 2282.5,-117 2282.5,-129 2282.5,-129 2282.5,-135 2276.5,-141 2270.5,-141"/>
<text text-anchor="middle" x="2253.5" y="-119.3" font-family="Times,serif" font-size="14.00">comp 4</text>
</g>
<!-- 5&#45;&gt;16 -->
<g id="edge16" class="edge"><title>5&#45;&gt;16</title>
<path fill="none" stroke="black" d="M1803.23,-183.705C1923.76,-167.723 2128.9,-140.522 2214.34,-129.192"/>
<polygon fill="black" stroke="black" points="2214.94,-132.644 2224.39,-127.86 2214.02,-125.704 2214.94,-132.644"/>
</g>
<!-- 17 -->
<g id="node18" class="node"><title>17</title>
<path fill="#6f7885" stroke="black" d="M3104.5,-142C3104.5,-142 3030.5,-142 3030.5,-142 3024.5,-142 3018.5,-136 3018.5,-130 3018.5,-130 3018.5,-116 3018.5,-116 3018.5,-110 3024.5,-104 3030.5,-104 3030.5,-104 3104.5,-104 3104.5,-104 3110.5,-104 3116.5,-110 3116.5,-116 3116.5,-116 3116.5,-130 3116.5,-130 3116.5,-136 3110.5,-142 3104.5,-142"/>
<text text-anchor="middle" x="3067.5" y="-126.8" font-family="Times,serif" font-size="14.00">comp 5</text>
<text text-anchor="middle" x="3067.5" y="-111.8" font-family="Times,serif" font-size="14.00">n kernels: &#45;212</text>
</g>
<!-- 5&#45;&gt;17 -->
<g id="edge17" class="edge"><title>5&#45;&gt;17</title>
<path fill="none" stroke="black" d="M1803.24,-191.079C2063.3,-177.281 2794.44,-138.488 3008.14,-127.149"/>
<polygon fill="black" stroke="black" points="3008.42,-130.64 3018.22,-126.615 3008.05,-123.65 3008.42,-130.64"/>
</g>
<!-- 18 -->
<g id="node19" class="node"><title>18</title>
<path fill="#d3e4ff" stroke="black" d="M3916.5,-142C3916.5,-142 3848.5,-142 3848.5,-142 3842.5,-142 3836.5,-136 3836.5,-130 3836.5,-130 3836.5,-116 3836.5,-116 3836.5,-110 3842.5,-104 3848.5,-104 3848.5,-104 3916.5,-104 3916.5,-104 3922.5,-104 3928.5,-110 3928.5,-116 3928.5,-116 3928.5,-130 3928.5,-130 3928.5,-136 3922.5,-142 3916.5,-142"/>
<text text-anchor="middle" x="3882.5" y="-126.8" font-family="Times,serif" font-size="14.00">comp 0</text>
<text text-anchor="middle" x="3882.5" y="-111.8" font-family="Times,serif" font-size="14.00">n kernels: &#45;42</text>
</g>
<!-- 6&#45;&gt;18 -->
<g id="edge18" class="edge"><title>6&#45;&gt;18</title>
<path fill="none" stroke="black" d="M4017.83,-177.831C3993.4,-168.116 3963.15,-156.083 3937.45,-145.859"/>
<polygon fill="black" stroke="black" points="3938.43,-142.482 3927.85,-142.038 3935.84,-148.986 3938.43,-142.482"/>
</g>
<!-- 19 -->
<g id="node20" class="node"><title>19</title>
<path fill="#bfcfe6" stroke="black" d="M4097.5,-142C4097.5,-142 4029.5,-142 4029.5,-142 4023.5,-142 4017.5,-136 4017.5,-130 4017.5,-130 4017.5,-116 4017.5,-116 4017.5,-110 4023.5,-104 4029.5,-104 4029.5,-104 4097.5,-104 4097.5,-104 4103.5,-104 4109.5,-110 4109.5,-116 4109.5,-116 4109.5,-130 4109.5,-130 4109.5,-136 4103.5,-142 4097.5,-142"/>
<text text-anchor="middle" x="4063.5" y="-126.8" font-family="Times,serif" font-size="14.00">comp 1</text>
<text text-anchor="middle" x="4063.5" y="-111.8" font-family="Times,serif" font-size="14.00">n kernels: &#45;42</text>
</g>
<!-- 6&#45;&gt;19 -->
<g id="edge19" class="edge"><title>6&#45;&gt;19</title>
<path fill="none" stroke="black" d="M4063.5,-177.831C4063.5,-170.131 4063.5,-160.974 4063.5,-152.417"/>
<polygon fill="black" stroke="black" points="4067,-152.413 4063.5,-142.413 4060,-152.413 4067,-152.413"/>
</g>
<!-- 20 -->
<g id="node21" class="node"><title>20</title>
<path fill="#abb9ce" stroke="black" d="M4278.5,-142C4278.5,-142 4210.5,-142 4210.5,-142 4204.5,-142 4198.5,-136 4198.5,-130 4198.5,-130 4198.5,-116 4198.5,-116 4198.5,-110 4204.5,-104 4210.5,-104 4210.5,-104 4278.5,-104 4278.5,-104 4284.5,-104 4290.5,-110 4290.5,-116 4290.5,-116 4290.5,-130 4290.5,-130 4290.5,-136 4284.5,-142 4278.5,-142"/>
<text text-anchor="middle" x="4244.5" y="-126.8" font-family="Times,serif" font-size="14.00">comp 2</text>
<text text-anchor="middle" x="4244.5" y="-111.8" font-family="Times,serif" font-size="14.00">n kernels: &#45;42</text>
</g>
<!-- 6&#45;&gt;20 -->
<g id="edge20" class="edge"><title>6&#45;&gt;20</title>
<path fill="none" stroke="black" d="M4109.17,-177.831C4133.6,-168.116 4163.85,-156.083 4189.55,-145.859"/>
<polygon fill="black" stroke="black" points="4191.16,-148.986 4199.15,-142.038 4188.57,-142.482 4191.16,-148.986"/>
</g>
<!-- 21 -->
<g id="node22" class="node"><title>21</title>
<path fill="#97a3b6" stroke="black" d="M4730.5,-142C4730.5,-142 4662.5,-142 4662.5,-142 4656.5,-142 4650.5,-136 4650.5,-130 4650.5,-130 4650.5,-116 4650.5,-116 4650.5,-110 4656.5,-104 4662.5,-104 4662.5,-104 4730.5,-104 4730.5,-104 4736.5,-104 4742.5,-110 4742.5,-116 4742.5,-116 4742.5,-130 4742.5,-130 4742.5,-136 4736.5,-142 4730.5,-142"/>
<text text-anchor="middle" x="4696.5" y="-126.8" font-family="Times,serif" font-size="14.00">comp 3</text>
<text text-anchor="middle" x="4696.5" y="-111.8" font-family="Times,serif" font-size="14.00">n kernels: &#45;42</text>
</g>
<!-- 6&#45;&gt;21 -->
<g id="edge21" class="edge"><title>6&#45;&gt;21</title>
<path fill="none" stroke="black" d="M4153.19,-185.799C4285.68,-170.729 4529.89,-142.951 4640.02,-130.425"/>
<polygon fill="black" stroke="black" points="4640.71,-133.869 4650.25,-129.261 4639.92,-126.914 4640.71,-133.869"/>
</g>
<!-- 22 -->
<g id="node23" class="node"><title>22</title>
<path fill="#d3e4ff" stroke="black" d="M5347.5,-141C5347.5,-141 5313.5,-141 5313.5,-141 5307.5,-141 5301.5,-135 5301.5,-129 5301.5,-129 5301.5,-117 5301.5,-117 5301.5,-111 5307.5,-105 5313.5,-105 5313.5,-105 5347.5,-105 5347.5,-105 5353.5,-105 5359.5,-111 5359.5,-117 5359.5,-117 5359.5,-129 5359.5,-129 5359.5,-135 5353.5,-141 5347.5,-141"/>
<text text-anchor="middle" x="5330.5" y="-119.3" font-family="Times,serif" font-size="14.00">comp 0</text>
</g>
<!-- 7&#45;&gt;22 -->
<g id="edge22" class="edge"><title>7&#45;&gt;22</title>
<path fill="none" stroke="black" d="M5732.84,-188.089C5642.23,-173.656 5451.87,-143.334 5369.67,-130.24"/>
<polygon fill="black" stroke="black" points="5370.16,-126.774 5359.74,-128.657 5369.06,-133.687 5370.16,-126.774"/>
</g>
<!-- 23 -->
<g id="node24" class="node"><title>23</title>
<path fill="#bfcfe6" stroke="black" d="M5580.5,-141C5580.5,-141 5546.5,-141 5546.5,-141 5540.5,-141 5534.5,-135 5534.5,-129 5534.5,-129 5534.5,-117 5534.5,-117 5534.5,-111 5540.5,-105 5546.5,-105 5546.5,-105 5580.5,-105 5580.5,-105 5586.5,-105 5592.5,-111 5592.5,-117 5592.5,-117 5592.5,-129 5592.5,-129 5592.5,-135 5586.5,-141 5580.5,-141"/>
<text text-anchor="middle" x="5563.5" y="-119.3" font-family="Times,serif" font-size="14.00">comp 1</text>
</g>
<!-- 7&#45;&gt;23 -->
<g id="edge23" class="edge"><title>7&#45;&gt;23</title>
<path fill="none" stroke="black" d="M5732.81,-179.662C5693.24,-166.654 5638.64,-148.705 5602.26,-136.744"/>
<polygon fill="black" stroke="black" points="5603.11,-133.337 5592.51,-133.538 5600.92,-139.987 5603.11,-133.337"/>
</g>
<!-- 24 -->
<g id="node25" class="node"><title>24</title>
<path fill="#abb9ce" stroke="black" d="M5799.5,-141C5799.5,-141 5765.5,-141 5765.5,-141 5759.5,-141 5753.5,-135 5753.5,-129 5753.5,-129 5753.5,-117 5753.5,-117 5753.5,-111 5759.5,-105 5765.5,-105 5765.5,-105 5799.5,-105 5799.5,-105 5805.5,-105 5811.5,-111 5811.5,-117 5811.5,-117 5811.5,-129 5811.5,-129 5811.5,-135 5805.5,-141 5799.5,-141"/>
<text text-anchor="middle" x="5782.5" y="-119.3" font-family="Times,serif" font-size="14.00">comp 2</text>
</g>
<!-- 7&#45;&gt;24 -->
<g id="edge24" class="edge"><title>7&#45;&gt;24</title>
<path fill="none" stroke="black" d="M5782.5,-177.831C5782.5,-169.894 5782.5,-160.409 5782.5,-151.628"/>
<polygon fill="black" stroke="black" points="5786,-151.418 5782.5,-141.418 5779,-151.418 5786,-151.418"/>
</g>
<!-- 25 -->
<g id="node26" class="node"><title>25</title>
<path fill="#97a3b6" stroke="black" d="M6161.5,-141C6161.5,-141 6127.5,-141 6127.5,-141 6121.5,-141 6115.5,-135 6115.5,-129 6115.5,-129 6115.5,-117 6115.5,-117 6115.5,-111 6121.5,-105 6127.5,-105 6127.5,-105 6161.5,-105 6161.5,-105 6167.5,-105 6173.5,-111 6173.5,-117 6173.5,-117 6173.5,-129 6173.5,-129 6173.5,-135 6167.5,-141 6161.5,-141"/>
<text text-anchor="middle" x="6144.5" y="-119.3" font-family="Times,serif" font-size="14.00">comp 3</text>
</g>
<!-- 7&#45;&gt;25 -->
<g id="edge25" class="edge"><title>7&#45;&gt;25</title>
<path fill="none" stroke="black" d="M5832.08,-186.14C5904.86,-171.663 6039.17,-144.95 6105.43,-131.77"/>
<polygon fill="black" stroke="black" points="6106.34,-135.159 6115.46,-129.775 6104.97,-128.293 6106.34,-135.159"/>
</g>
<!-- 26 -->
<g id="node27" class="node"><title>26</title>
<path fill="#838d9e" stroke="black" d="M6795.5,-141C6795.5,-141 6761.5,-141 6761.5,-141 6755.5,-141 6749.5,-135 6749.5,-129 6749.5,-129 6749.5,-117 6749.5,-117 6749.5,-111 6755.5,-105 6761.5,-105 6761.5,-105 6795.5,-105 6795.5,-105 6801.5,-105 6807.5,-111 6807.5,-117 6807.5,-117 6807.5,-129 6807.5,-129 6807.5,-135 6801.5,-141 6795.5,-141"/>
<text text-anchor="middle" x="6778.5" y="-119.3" font-family="Times,serif" font-size="14.00">comp 4</text>
</g>
<!-- 7&#45;&gt;26 -->
<g id="edge26" class="edge"><title>7&#45;&gt;26</title>
<path fill="none" stroke="black" d="M5832.23,-192.405C6005.91,-179.85 6583.32,-138.109 6739.35,-126.83"/>
<polygon fill="black" stroke="black" points="6739.71,-130.314 6749.43,-126.102 6739.2,-123.332 6739.71,-130.314"/>
</g>
<!-- 27 -->
<g id="node28" class="node"><title>27</title>
<path fill="#6f7885" stroke="black" d="M7609.5,-141C7609.5,-141 7575.5,-141 7575.5,-141 7569.5,-141 7563.5,-135 7563.5,-129 7563.5,-129 7563.5,-117 7563.5,-117 7563.5,-111 7569.5,-105 7575.5,-105 7575.5,-105 7609.5,-105 7609.5,-105 7615.5,-105 7621.5,-111 7621.5,-117 7621.5,-117 7621.5,-129 7621.5,-129 7621.5,-135 7615.5,-141 7609.5,-141"/>
<text text-anchor="middle" x="7592.5" y="-119.3" font-family="Times,serif" font-size="14.00">comp 5</text>
</g>
<!-- 7&#45;&gt;27 -->
<g id="edge27" class="edge"><title>7&#45;&gt;27</title>
<path fill="none" stroke="black" d="M5832.32,-194.018C6095.18,-183.562 7317.6,-134.935 7553.16,-125.565"/>
<polygon fill="black" stroke="black" points="7553.46,-129.056 7563.32,-125.161 7553.19,-122.061 7553.46,-129.056"/>
</g>
<!-- 28 -->
<g id="node29" class="node"><title>28</title>
<path fill="#f6d3ff" stroke="black" d="M151,-68C151,-68 12,-68 12,-68 6,-68 0,-62 0,-56 0,-56 0,-12 0,-12 0,-6 6,-0 12,-0 12,-0 151,-0 151,-0 157,-0 163,-6 163,-12 163,-12 163,-56 163,-56 163,-62 157,-68 151,-68"/>
<text text-anchor="middle" x="81.5" y="-52.8" font-family="Times,serif" font-size="14.00">forward</text>
<text text-anchor="middle" x="81.5" y="-37.8" font-family="Times,serif" font-size="14.00">input</text>
<text text-anchor="middle" x="81.5" y="-22.8" font-family="Times,serif" font-size="14.00">dilation rate: 1 &#160;&#160;k width: 3</text>
<text text-anchor="middle" x="81.5" y="-7.8" font-family="Times,serif" font-size="14.00">n kernels: 64</text>
</g>
<!-- 8&#45;&gt;28 -->
<g id="edge28" class="edge"><title>8&#45;&gt;28</title>
<path fill="none" stroke="black" d="M124.029,-104.812C119.082,-96.6918 112.942,-86.6128 106.88,-76.6623"/>
<polygon fill="black" stroke="black" points="109.797,-74.7226 101.606,-68.0034 103.819,-78.3644 109.797,-74.7226"/>
</g>
<!-- 29 -->
<g id="node30" class="node"><title>29</title>
<path fill="#f6d3ff" stroke="black" d="M332,-68C332,-68 193,-68 193,-68 187,-68 181,-62 181,-56 181,-56 181,-12 181,-12 181,-6 187,-0 193,-0 193,-0 332,-0 332,-0 338,-0 344,-6 344,-12 344,-12 344,-56 344,-56 344,-62 338,-68 332,-68"/>
<text text-anchor="middle" x="262.5" y="-52.8" font-family="Times,serif" font-size="14.00">forward</text>
<text text-anchor="middle" x="262.5" y="-37.8" font-family="Times,serif" font-size="14.00">EB0/C0</text>
<text text-anchor="middle" x="262.5" y="-22.8" font-family="Times,serif" font-size="14.00">dilation rate: 1 &#160;&#160;k width: 3</text>
<text text-anchor="middle" x="262.5" y="-7.8" font-family="Times,serif" font-size="14.00">n kernels: 64</text>
</g>
<!-- 9&#45;&gt;29 -->
<g id="edge29" class="edge"><title>9&#45;&gt;29</title>
<path fill="none" stroke="black" d="M262.5,-104.812C262.5,-97.1019 262.5,-87.6259 262.5,-78.1706"/>
<polygon fill="black" stroke="black" points="266,-78.0034 262.5,-68.0034 259,-78.0034 266,-78.0034"/>
</g>
<!-- 30 -->
<g id="node31" class="node"><title>30</title>
<path fill="#f6d3ff" stroke="black" d="M513,-68C513,-68 374,-68 374,-68 368,-68 362,-62 362,-56 362,-56 362,-12 362,-12 362,-6 368,-0 374,-0 374,-0 513,-0 513,-0 519,-0 525,-6 525,-12 525,-12 525,-56 525,-56 525,-62 519,-68 513,-68"/>
<text text-anchor="middle" x="443.5" y="-52.8" font-family="Times,serif" font-size="14.00">forward</text>
<text text-anchor="middle" x="443.5" y="-37.8" font-family="Times,serif" font-size="14.00">EB0/C1</text>
<text text-anchor="middle" x="443.5" y="-22.8" font-family="Times,serif" font-size="14.00">dilation rate: 1 &#160;&#160;k width: 3</text>
<text text-anchor="middle" x="443.5" y="-7.8" font-family="Times,serif" font-size="14.00">n kernels: 64</text>
</g>
<!-- 10&#45;&gt;30 -->
<g id="edge30" class="edge"><title>10&#45;&gt;30</title>
<path fill="none" stroke="black" d="M479.609,-104.812C475.452,-96.7738 470.301,-86.8162 465.205,-76.9638"/>
<polygon fill="black" stroke="black" points="468.274,-75.2776 460.571,-68.0034 462.056,-78.4936 468.274,-75.2776"/>
</g>
<!-- 31 -->
<g id="node32" class="node"><title>31</title>
<path fill="#f6d3ff" stroke="black" d="M694,-68C694,-68 555,-68 555,-68 549,-68 543,-62 543,-56 543,-56 543,-12 543,-12 543,-6 549,-0 555,-0 555,-0 694,-0 694,-0 700,-0 706,-6 706,-12 706,-12 706,-56 706,-56 706,-62 700,-68 694,-68"/>
<text text-anchor="middle" x="624.5" y="-52.8" font-family="Times,serif" font-size="14.00">forward</text>
<text text-anchor="middle" x="624.5" y="-37.8" font-family="Times,serif" font-size="14.00">EB1/C0</text>
<text text-anchor="middle" x="624.5" y="-22.8" font-family="Times,serif" font-size="14.00">dilation rate: 1 &#160;&#160;k width: 3</text>
<text text-anchor="middle" x="624.5" y="-7.8" font-family="Times,serif" font-size="14.00">n kernels: 64</text>
</g>
<!-- 11&#45;&gt;31 -->
<g id="edge31" class="edge"><title>11&#45;&gt;31</title>
<path fill="none" stroke="black" d="M606.044,-104.812C608.104,-97.0199 610.641,-87.4241 613.167,-77.8689"/>
<polygon fill="black" stroke="black" points="616.603,-78.5658 615.775,-68.0034 609.835,-76.7767 616.603,-78.5658"/>
</g>
<!-- 32 -->
<g id="node33" class="node"><title>32</title>
<path fill="#f6d3ff" stroke="black" d="M875,-68C875,-68 736,-68 736,-68 730,-68 724,-62 724,-56 724,-56 724,-12 724,-12 724,-6 730,-0 736,-0 736,-0 875,-0 875,-0 881,-0 887,-6 887,-12 887,-12 887,-56 887,-56 887,-62 881,-68 875,-68"/>
<text text-anchor="middle" x="805.5" y="-52.8" font-family="Times,serif" font-size="14.00">forward</text>
<text text-anchor="middle" x="805.5" y="-37.8" font-family="Times,serif" font-size="14.00">EB1/C1</text>
<text text-anchor="middle" x="805.5" y="-22.8" font-family="Times,serif" font-size="14.00">dilation rate: 1 &#160;&#160;k width: 3</text>
<text text-anchor="middle" x="805.5" y="-7.8" font-family="Times,serif" font-size="14.00">n kernels: 64</text>
</g>
<!-- 12&#45;&gt;32 -->
<g id="edge32" class="edge"><title>12&#45;&gt;32</title>
<path fill="none" stroke="black" d="M883.987,-103.974C874.324,-95.4813 862.384,-84.9892 850.759,-74.7733"/>
<polygon fill="black" stroke="black" points="853.014,-72.0957 843.192,-68.1236 848.394,-77.3539 853.014,-72.0957"/>
</g>
<!-- 33 -->
<g id="node34" class="node"><title>33</title>
<path fill="#f6d3ff" stroke="black" d="M1056,-68C1056,-68 917,-68 917,-68 911,-68 905,-62 905,-56 905,-56 905,-12 905,-12 905,-6 911,-0 917,-0 917,-0 1056,-0 1056,-0 1062,-0 1068,-6 1068,-12 1068,-12 1068,-56 1068,-56 1068,-62 1062,-68 1056,-68"/>
<text text-anchor="middle" x="986.5" y="-52.8" font-family="Times,serif" font-size="14.00">forward</text>
<text text-anchor="middle" x="986.5" y="-37.8" font-family="Times,serif" font-size="14.00">DB2/C0</text>
<text text-anchor="middle" x="986.5" y="-22.8" font-family="Times,serif" font-size="14.00">dilation rate: 1 &#160;&#160;k width: 3</text>
<text text-anchor="middle" x="986.5" y="-7.8" font-family="Times,serif" font-size="14.00">n kernels: 64</text>
</g>
<!-- 13&#45;&gt;33 -->
<g id="edge33" class="edge"><title>13&#45;&gt;33</title>
<path fill="none" stroke="black" d="M1091.94,-103.974C1078.47,-95.1578 1061.69,-84.1869 1045.52,-73.6071"/>
<polygon fill="black" stroke="black" points="1047.42,-70.6689 1037.14,-68.1236 1043.59,-76.5269 1047.42,-70.6689"/>
</g>
<!-- 34 -->
<g id="node35" class="node"><title>34</title>
<path fill="#f6d3ff" stroke="black" d="M1237,-68C1237,-68 1098,-68 1098,-68 1092,-68 1086,-62 1086,-56 1086,-56 1086,-12 1086,-12 1086,-6 1092,-0 1098,-0 1098,-0 1237,-0 1237,-0 1243,-0 1249,-6 1249,-12 1249,-12 1249,-56 1249,-56 1249,-62 1243,-68 1237,-68"/>
<text text-anchor="middle" x="1167.5" y="-52.8" font-family="Times,serif" font-size="14.00">forward</text>
<text text-anchor="middle" x="1167.5" y="-37.8" font-family="Times,serif" font-size="14.00">DB2/C1</text>
<text text-anchor="middle" x="1167.5" y="-22.8" font-family="Times,serif" font-size="14.00">dilation rate: 1 &#160;&#160;k width: 3</text>
<text text-anchor="middle" x="1167.5" y="-7.8" font-family="Times,serif" font-size="14.00">n kernels: 64</text>
</g>
<!-- 14&#45;&gt;34 -->
<g id="edge34" class="edge"><title>14&#45;&gt;34</title>
<path fill="none" stroke="black" d="M1319.42,-108.022C1299.4,-98.3973 1271.78,-85.122 1245.57,-72.5274"/>
<polygon fill="black" stroke="black" points="1246.91,-69.2858 1236.38,-68.1081 1243.88,-75.5949 1246.91,-69.2858"/>
</g>
<!-- 35 -->
<g id="node36" class="node"><title>35</title>
<path fill="#debfe6" stroke="black" d="M1418,-68C1418,-68 1279,-68 1279,-68 1273,-68 1267,-62 1267,-56 1267,-56 1267,-12 1267,-12 1267,-6 1273,-0 1279,-0 1279,-0 1418,-0 1418,-0 1424,-0 1430,-6 1430,-12 1430,-12 1430,-56 1430,-56 1430,-62 1424,-68 1418,-68"/>
<text text-anchor="middle" x="1348.5" y="-52.8" font-family="Times,serif" font-size="14.00">merge</text>
<text text-anchor="middle" x="1348.5" y="-37.8" font-family="Times,serif" font-size="14.00">DB2/C0</text>
<text text-anchor="middle" x="1348.5" y="-22.8" font-family="Times,serif" font-size="14.00">dilation rate: 1 &#160;&#160;k width: 3</text>
<text text-anchor="middle" x="1348.5" y="-7.8" font-family="Times,serif" font-size="14.00">n kernels: 64</text>
</g>
<!-- 14&#45;&gt;35 -->
<g id="edge35" class="edge"><title>14&#45;&gt;35</title>
<path fill="none" stroke="black" d="M1348.5,-104.812C1348.5,-97.1019 1348.5,-87.6259 1348.5,-78.1706"/>
<polygon fill="black" stroke="black" points="1352,-78.0034 1348.5,-68.0034 1345,-78.0034 1352,-78.0034"/>
</g>
<!-- 36 -->
<g id="node37" class="node"><title>36</title>
<path fill="#f6d3ff" stroke="black" d="M1599,-68C1599,-68 1460,-68 1460,-68 1454,-68 1448,-62 1448,-56 1448,-56 1448,-12 1448,-12 1448,-6 1454,-0 1460,-0 1460,-0 1599,-0 1599,-0 1605,-0 1611,-6 1611,-12 1611,-12 1611,-56 1611,-56 1611,-62 1605,-68 1599,-68"/>
<text text-anchor="middle" x="1529.5" y="-52.8" font-family="Times,serif" font-size="14.00">forward</text>
<text text-anchor="middle" x="1529.5" y="-37.8" font-family="Times,serif" font-size="14.00">DB2/C2</text>
<text text-anchor="middle" x="1529.5" y="-22.8" font-family="Times,serif" font-size="14.00">dilation rate: 1 &#160;&#160;k width: 3</text>
<text text-anchor="middle" x="1529.5" y="-7.8" font-family="Times,serif" font-size="14.00">n kernels: 64</text>
</g>
<!-- 15&#45;&gt;36 -->
<g id="edge36" class="edge"><title>15&#45;&gt;36</title>
<path fill="none" stroke="black" d="M1681.42,-108.022C1661.4,-98.3973 1633.78,-85.122 1607.57,-72.5274"/>
<polygon fill="black" stroke="black" points="1608.91,-69.2858 1598.38,-68.1081 1605.88,-75.5949 1608.91,-69.2858"/>
</g>
<!-- 37 -->
<g id="node38" class="node"><title>37</title>
<path fill="#debfe6" stroke="black" d="M1780,-68C1780,-68 1641,-68 1641,-68 1635,-68 1629,-62 1629,-56 1629,-56 1629,-12 1629,-12 1629,-6 1635,-0 1641,-0 1641,-0 1780,-0 1780,-0 1786,-0 1792,-6 1792,-12 1792,-12 1792,-56 1792,-56 1792,-62 1786,-68 1780,-68"/>
<text text-anchor="middle" x="1710.5" y="-52.8" font-family="Times,serif" font-size="14.00">merge</text>
<text text-anchor="middle" x="1710.5" y="-37.8" font-family="Times,serif" font-size="14.00">DB2/C0</text>
<text text-anchor="middle" x="1710.5" y="-22.8" font-family="Times,serif" font-size="14.00">dilation rate: 1 &#160;&#160;k width: 3</text>
<text text-anchor="middle" x="1710.5" y="-7.8" font-family="Times,serif" font-size="14.00">n kernels: 64</text>
</g>
<!-- 15&#45;&gt;37 -->
<g id="edge37" class="edge"><title>15&#45;&gt;37</title>
<path fill="none" stroke="black" d="M1710.5,-104.812C1710.5,-97.1019 1710.5,-87.6259 1710.5,-78.1706"/>
<polygon fill="black" stroke="black" points="1714,-78.0034 1710.5,-68.0034 1707,-78.0034 1714,-78.0034"/>
</g>
<!-- 38 -->
<g id="node39" class="node"><title>38</title>
<path fill="#c7abce" stroke="black" d="M1961,-68C1961,-68 1822,-68 1822,-68 1816,-68 1810,-62 1810,-56 1810,-56 1810,-12 1810,-12 1810,-6 1816,-0 1822,-0 1822,-0 1961,-0 1961,-0 1967,-0 1973,-6 1973,-12 1973,-12 1973,-56 1973,-56 1973,-62 1967,-68 1961,-68"/>
<text text-anchor="middle" x="1891.5" y="-52.8" font-family="Times,serif" font-size="14.00">merge</text>
<text text-anchor="middle" x="1891.5" y="-37.8" font-family="Times,serif" font-size="14.00">DB2/C1</text>
<text text-anchor="middle" x="1891.5" y="-22.8" font-family="Times,serif" font-size="14.00">dilation rate: 1 &#160;&#160;k width: 3</text>
<text text-anchor="middle" x="1891.5" y="-7.8" font-family="Times,serif" font-size="14.00">n kernels: 64</text>
</g>
<!-- 15&#45;&gt;38 -->
<g id="edge38" class="edge"><title>15&#45;&gt;38</title>
<path fill="none" stroke="black" d="M1739.58,-108.022C1759.6,-98.3973 1787.22,-85.122 1813.43,-72.5274"/>
<polygon fill="black" stroke="black" points="1815.12,-75.5949 1822.62,-68.1081 1812.09,-69.2858 1815.12,-75.5949"/>
</g>
<!-- 39 -->
<g id="node40" class="node"><title>39</title>
<path fill="#f6d3ff" stroke="black" d="M2142,-68C2142,-68 2003,-68 2003,-68 1997,-68 1991,-62 1991,-56 1991,-56 1991,-12 1991,-12 1991,-6 1997,-0 2003,-0 2003,-0 2142,-0 2142,-0 2148,-0 2154,-6 2154,-12 2154,-12 2154,-56 2154,-56 2154,-62 2148,-68 2142,-68"/>
<text text-anchor="middle" x="2072.5" y="-52.8" font-family="Times,serif" font-size="14.00">forward</text>
<text text-anchor="middle" x="2072.5" y="-37.8" font-family="Times,serif" font-size="14.00">DB2/C3</text>
<text text-anchor="middle" x="2072.5" y="-22.8" font-family="Times,serif" font-size="14.00">dilation rate: 1 &#160;&#160;k width: 3</text>
<text text-anchor="middle" x="2072.5" y="-7.8" font-family="Times,serif" font-size="14.00">n kernels: 64</text>
</g>
<!-- 16&#45;&gt;39 -->
<g id="edge39" class="edge"><title>16&#45;&gt;39</title>
<path fill="none" stroke="black" d="M2224.42,-108.022C2204.4,-98.3973 2176.78,-85.122 2150.57,-72.5274"/>
<polygon fill="black" stroke="black" points="2151.91,-69.2858 2141.38,-68.1081 2148.88,-75.5949 2151.91,-69.2858"/>
</g>
<!-- 40 -->
<g id="node41" class="node"><title>40</title>
<path fill="#debfe6" stroke="black" d="M2323,-68C2323,-68 2184,-68 2184,-68 2178,-68 2172,-62 2172,-56 2172,-56 2172,-12 2172,-12 2172,-6 2178,-0 2184,-0 2184,-0 2323,-0 2323,-0 2329,-0 2335,-6 2335,-12 2335,-12 2335,-56 2335,-56 2335,-62 2329,-68 2323,-68"/>
<text text-anchor="middle" x="2253.5" y="-52.8" font-family="Times,serif" font-size="14.00">merge</text>
<text text-anchor="middle" x="2253.5" y="-37.8" font-family="Times,serif" font-size="14.00">DB2/C0</text>
<text text-anchor="middle" x="2253.5" y="-22.8" font-family="Times,serif" font-size="14.00">dilation rate: 1 &#160;&#160;k width: 3</text>
<text text-anchor="middle" x="2253.5" y="-7.8" font-family="Times,serif" font-size="14.00">n kernels: 64</text>
</g>
<!-- 16&#45;&gt;40 -->
<g id="edge40" class="edge"><title>16&#45;&gt;40</title>
<path fill="none" stroke="black" d="M2253.5,-104.812C2253.5,-97.1019 2253.5,-87.6259 2253.5,-78.1706"/>
<polygon fill="black" stroke="black" points="2257,-78.0034 2253.5,-68.0034 2250,-78.0034 2257,-78.0034"/>
</g>
<!-- 41 -->
<g id="node42" class="node"><title>41</title>
<path fill="#c7abce" stroke="black" d="M2504,-68C2504,-68 2365,-68 2365,-68 2359,-68 2353,-62 2353,-56 2353,-56 2353,-12 2353,-12 2353,-6 2359,-0 2365,-0 2365,-0 2504,-0 2504,-0 2510,-0 2516,-6 2516,-12 2516,-12 2516,-56 2516,-56 2516,-62 2510,-68 2504,-68"/>
<text text-anchor="middle" x="2434.5" y="-52.8" font-family="Times,serif" font-size="14.00">merge</text>
<text text-anchor="middle" x="2434.5" y="-37.8" font-family="Times,serif" font-size="14.00">DB2/C1</text>
<text text-anchor="middle" x="2434.5" y="-22.8" font-family="Times,serif" font-size="14.00">dilation rate: 1 &#160;&#160;k width: 3</text>
<text text-anchor="middle" x="2434.5" y="-7.8" font-family="Times,serif" font-size="14.00">n kernels: 64</text>
</g>
<!-- 16&#45;&gt;41 -->
<g id="edge41" class="edge"><title>16&#45;&gt;41</title>
<path fill="none" stroke="black" d="M2282.58,-108.022C2302.6,-98.3973 2330.22,-85.122 2356.43,-72.5274"/>
<polygon fill="black" stroke="black" points="2358.12,-75.5949 2365.62,-68.1081 2355.09,-69.2858 2358.12,-75.5949"/>
</g>
<!-- 42 -->
<g id="node43" class="node"><title>42</title>
<path fill="#b097b6" stroke="black" d="M2685,-68C2685,-68 2546,-68 2546,-68 2540,-68 2534,-62 2534,-56 2534,-56 2534,-12 2534,-12 2534,-6 2540,-0 2546,-0 2546,-0 2685,-0 2685,-0 2691,-0 2697,-6 2697,-12 2697,-12 2697,-56 2697,-56 2697,-62 2691,-68 2685,-68"/>
<text text-anchor="middle" x="2615.5" y="-52.8" font-family="Times,serif" font-size="14.00">merge</text>
<text text-anchor="middle" x="2615.5" y="-37.8" font-family="Times,serif" font-size="14.00">DB2/C2</text>
<text text-anchor="middle" x="2615.5" y="-22.8" font-family="Times,serif" font-size="14.00">dilation rate: 1 &#160;&#160;k width: 3</text>
<text text-anchor="middle" x="2615.5" y="-7.8" font-family="Times,serif" font-size="14.00">n kernels: 64</text>
</g>
<!-- 16&#45;&gt;42 -->
<g id="edge42" class="edge"><title>16&#45;&gt;42</title>
<path fill="none" stroke="black" d="M2282.72,-117.666C2331.05,-110.179 2430.74,-93.3907 2523.97,-68.0015"/>
<polygon fill="black" stroke="black" points="2525.13,-71.3111 2533.84,-65.2737 2523.27,-64.564 2525.13,-71.3111"/>
</g>
<!-- 43 -->
<g id="node44" class="node"><title>43</title>
<path fill="#f6d3ff" stroke="black" d="M2866,-68C2866,-68 2727,-68 2727,-68 2721,-68 2715,-62 2715,-56 2715,-56 2715,-12 2715,-12 2715,-6 2721,-0 2727,-0 2727,-0 2866,-0 2866,-0 2872,-0 2878,-6 2878,-12 2878,-12 2878,-56 2878,-56 2878,-62 2872,-68 2866,-68"/>
<text text-anchor="middle" x="2796.5" y="-52.8" font-family="Times,serif" font-size="14.00">forward</text>
<text text-anchor="middle" x="2796.5" y="-37.8" font-family="Times,serif" font-size="14.00">DB2/C4</text>
<text text-anchor="middle" x="2796.5" y="-22.8" font-family="Times,serif" font-size="14.00">dilation rate: 1 &#160;&#160;k width: 3</text>
<text text-anchor="middle" x="2796.5" y="-7.8" font-family="Times,serif" font-size="14.00">n kernels: 64</text>
</g>
<!-- 17&#45;&gt;43 -->
<g id="edge43" class="edge"><title>17&#45;&gt;43</title>
<path fill="none" stroke="black" d="M3018.46,-108.255C2984.12,-98.4266 2936.98,-84.5372 2887.86,-68.3987"/>
<polygon fill="black" stroke="black" points="2888.93,-65.0678 2878.34,-65.2508 2886.74,-71.7138 2888.93,-65.0678"/>
</g>
<!-- 44 -->
<g id="node45" class="node"><title>44</title>
<path fill="#debfe6" stroke="black" d="M3047,-68C3047,-68 2908,-68 2908,-68 2902,-68 2896,-62 2896,-56 2896,-56 2896,-12 2896,-12 2896,-6 2902,-0 2908,-0 2908,-0 3047,-0 3047,-0 3053,-0 3059,-6 3059,-12 3059,-12 3059,-56 3059,-56 3059,-62 3053,-68 3047,-68"/>
<text text-anchor="middle" x="2977.5" y="-52.8" font-family="Times,serif" font-size="14.00">merge</text>
<text text-anchor="middle" x="2977.5" y="-37.8" font-family="Times,serif" font-size="14.00">DB2/C0</text>
<text text-anchor="middle" x="2977.5" y="-22.8" font-family="Times,serif" font-size="14.00">dilation rate: 1 &#160;&#160;k width: 3</text>
<text text-anchor="middle" x="2977.5" y="-7.8" font-family="Times,serif" font-size="14.00">n kernels: 64</text>
</g>
<!-- 17&#45;&gt;44 -->
<g id="edge44" class="edge"><title>17&#45;&gt;44</title>
<path fill="none" stroke="black" d="M3048.85,-103.974C3040.23,-95.6431 3029.63,-85.3882 3019.25,-75.3573"/>
<polygon fill="black" stroke="black" points="3021.39,-72.5574 3011.77,-68.1236 3016.52,-77.5904 3021.39,-72.5574"/>
</g>
<!-- 45 -->
<g id="node46" class="node"><title>45</title>
<path fill="#c7abce" stroke="black" d="M3228,-68C3228,-68 3089,-68 3089,-68 3083,-68 3077,-62 3077,-56 3077,-56 3077,-12 3077,-12 3077,-6 3083,-0 3089,-0 3089,-0 3228,-0 3228,-0 3234,-0 3240,-6 3240,-12 3240,-12 3240,-56 3240,-56 3240,-62 3234,-68 3228,-68"/>
<text text-anchor="middle" x="3158.5" y="-52.8" font-family="Times,serif" font-size="14.00">merge</text>
<text text-anchor="middle" x="3158.5" y="-37.8" font-family="Times,serif" font-size="14.00">DB2/C1</text>
<text text-anchor="middle" x="3158.5" y="-22.8" font-family="Times,serif" font-size="14.00">dilation rate: 1 &#160;&#160;k width: 3</text>
<text text-anchor="middle" x="3158.5" y="-7.8" font-family="Times,serif" font-size="14.00">n kernels: 64</text>
</g>
<!-- 17&#45;&gt;45 -->
<g id="edge45" class="edge"><title>17&#45;&gt;45</title>
<path fill="none" stroke="black" d="M3086.36,-103.974C3095.15,-95.5622 3106,-85.1889 3116.59,-75.0653"/>
<polygon fill="black" stroke="black" points="3119.04,-77.5639 3123.85,-68.1236 3114.21,-72.5042 3119.04,-77.5639"/>
</g>
<!-- 46 -->
<g id="node47" class="node"><title>46</title>
<path fill="#b097b6" stroke="black" d="M3409,-68C3409,-68 3270,-68 3270,-68 3264,-68 3258,-62 3258,-56 3258,-56 3258,-12 3258,-12 3258,-6 3264,-0 3270,-0 3270,-0 3409,-0 3409,-0 3415,-0 3421,-6 3421,-12 3421,-12 3421,-56 3421,-56 3421,-62 3415,-68 3409,-68"/>
<text text-anchor="middle" x="3339.5" y="-52.8" font-family="Times,serif" font-size="14.00">merge</text>
<text text-anchor="middle" x="3339.5" y="-37.8" font-family="Times,serif" font-size="14.00">DB2/C2</text>
<text text-anchor="middle" x="3339.5" y="-22.8" font-family="Times,serif" font-size="14.00">dilation rate: 1 &#160;&#160;k width: 3</text>
<text text-anchor="middle" x="3339.5" y="-7.8" font-family="Times,serif" font-size="14.00">n kernels: 64</text>
</g>
<!-- 17&#45;&gt;46 -->
<g id="edge46" class="edge"><title>17&#45;&gt;46</title>
<path fill="none" stroke="black" d="M3116.52,-108.208C3150.86,-98.3581 3198,-84.4594 3248.02,-68.1007"/>
<polygon fill="black" stroke="black" points="3249.32,-71.3577 3257.73,-64.9076 3247.13,-64.7083 3249.32,-71.3577"/>
</g>
<!-- 47 -->
<g id="node48" class="node"><title>47</title>
<path fill="#98839e" stroke="black" d="M3590,-68C3590,-68 3451,-68 3451,-68 3445,-68 3439,-62 3439,-56 3439,-56 3439,-12 3439,-12 3439,-6 3445,-0 3451,-0 3451,-0 3590,-0 3590,-0 3596,-0 3602,-6 3602,-12 3602,-12 3602,-56 3602,-56 3602,-62 3596,-68 3590,-68"/>
<text text-anchor="middle" x="3520.5" y="-52.8" font-family="Times,serif" font-size="14.00">merge</text>
<text text-anchor="middle" x="3520.5" y="-37.8" font-family="Times,serif" font-size="14.00">DB2/C3</text>
<text text-anchor="middle" x="3520.5" y="-22.8" font-family="Times,serif" font-size="14.00">dilation rate: 1 &#160;&#160;k width: 3</text>
<text text-anchor="middle" x="3520.5" y="-7.8" font-family="Times,serif" font-size="14.00">n kernels: 64</text>
</g>
<!-- 17&#45;&gt;47 -->
<g id="edge47" class="edge"><title>17&#45;&gt;47</title>
<path fill="none" stroke="black" d="M3116.71,-117.804C3185.01,-111.293 3312.34,-96.6685 3429.07,-67.9243"/>
<polygon fill="black" stroke="black" points="3430.04,-71.2903 3438.89,-65.4665 3428.34,-64.4998 3430.04,-71.2903"/>
</g>
<!-- 48 -->
<g id="node49" class="node"><title>48</title>
<path fill="#f6d3ff" stroke="black" d="M3771,-68C3771,-68 3632,-68 3632,-68 3626,-68 3620,-62 3620,-56 3620,-56 3620,-12 3620,-12 3620,-6 3626,-0 3632,-0 3632,-0 3771,-0 3771,-0 3777,-0 3783,-6 3783,-12 3783,-12 3783,-56 3783,-56 3783,-62 3777,-68 3771,-68"/>
<text text-anchor="middle" x="3701.5" y="-52.8" font-family="Times,serif" font-size="14.00">forward</text>
<text text-anchor="middle" x="3701.5" y="-37.8" font-family="Times,serif" font-size="14.00">DB2/C5</text>
<text text-anchor="middle" x="3701.5" y="-22.8" font-family="Times,serif" font-size="14.00">dilation rate: 1 &#160;&#160;k width: 3</text>
<text text-anchor="middle" x="3701.5" y="-7.8" font-family="Times,serif" font-size="14.00">n kernels: 64</text>
</g>
<!-- 18&#45;&gt;48 -->
<g id="edge48" class="edge"><title>18&#45;&gt;48</title>
<path fill="none" stroke="black" d="M3845,-103.974C3826.07,-94.8748 3802.36,-83.4802 3779.7,-72.5892"/>
<polygon fill="black" stroke="black" points="3780.94,-69.3013 3770.41,-68.1236 3777.91,-75.6104 3780.94,-69.3013"/>
</g>
<!-- 49 -->
<g id="node50" class="node"><title>49</title>
<path fill="#debfe6" stroke="black" d="M3952,-68C3952,-68 3813,-68 3813,-68 3807,-68 3801,-62 3801,-56 3801,-56 3801,-12 3801,-12 3801,-6 3807,-0 3813,-0 3813,-0 3952,-0 3952,-0 3958,-0 3964,-6 3964,-12 3964,-12 3964,-56 3964,-56 3964,-62 3958,-68 3952,-68"/>
<text text-anchor="middle" x="3882.5" y="-52.8" font-family="Times,serif" font-size="14.00">merge</text>
<text text-anchor="middle" x="3882.5" y="-37.8" font-family="Times,serif" font-size="14.00">EB1/C1</text>
<text text-anchor="middle" x="3882.5" y="-22.8" font-family="Times,serif" font-size="14.00">dilation rate: 1 &#160;&#160;k width: 3</text>
<text text-anchor="middle" x="3882.5" y="-7.8" font-family="Times,serif" font-size="14.00">n kernels: 64</text>
</g>
<!-- 18&#45;&gt;49 -->
<g id="edge49" class="edge"><title>18&#45;&gt;49</title>
<path fill="none" stroke="black" d="M3882.5,-103.974C3882.5,-96.4519 3882.5,-87.3613 3882.5,-78.2833"/>
<polygon fill="black" stroke="black" points="3886,-78.1236 3882.5,-68.1236 3879,-78.1237 3886,-78.1236"/>
</g>
<!-- 50 -->
<g id="node51" class="node"><title>50</title>
<path fill="#f6d3ff" stroke="black" d="M4133,-68C4133,-68 3994,-68 3994,-68 3988,-68 3982,-62 3982,-56 3982,-56 3982,-12 3982,-12 3982,-6 3988,-0 3994,-0 3994,-0 4133,-0 4133,-0 4139,-0 4145,-6 4145,-12 4145,-12 4145,-56 4145,-56 4145,-62 4139,-68 4133,-68"/>
<text text-anchor="middle" x="4063.5" y="-52.8" font-family="Times,serif" font-size="14.00">forward</text>
<text text-anchor="middle" x="4063.5" y="-37.8" font-family="Times,serif" font-size="14.00">DB1/C0</text>
<text text-anchor="middle" x="4063.5" y="-22.8" font-family="Times,serif" font-size="14.00">dilation rate: 1 &#160;&#160;k width: 3</text>
<text text-anchor="middle" x="4063.5" y="-7.8" font-family="Times,serif" font-size="14.00">n kernels: 64</text>
</g>
<!-- 19&#45;&gt;50 -->
<g id="edge50" class="edge"><title>19&#45;&gt;50</title>
<path fill="none" stroke="black" d="M4063.5,-103.974C4063.5,-96.4519 4063.5,-87.3613 4063.5,-78.2833"/>
<polygon fill="black" stroke="black" points="4067,-78.1236 4063.5,-68.1236 4060,-78.1237 4067,-78.1236"/>
</g>
<!-- 51 -->
<g id="node52" class="node"><title>51</title>
<path fill="#f6d3ff" stroke="black" d="M4314,-68C4314,-68 4175,-68 4175,-68 4169,-68 4163,-62 4163,-56 4163,-56 4163,-12 4163,-12 4163,-6 4169,-0 4175,-0 4175,-0 4314,-0 4314,-0 4320,-0 4326,-6 4326,-12 4326,-12 4326,-56 4326,-56 4326,-62 4320,-68 4314,-68"/>
<text text-anchor="middle" x="4244.5" y="-52.8" font-family="Times,serif" font-size="14.00">forward</text>
<text text-anchor="middle" x="4244.5" y="-37.8" font-family="Times,serif" font-size="14.00">DB1/C1</text>
<text text-anchor="middle" x="4244.5" y="-22.8" font-family="Times,serif" font-size="14.00">dilation rate: 1 &#160;&#160;k width: 3</text>
<text text-anchor="middle" x="4244.5" y="-7.8" font-family="Times,serif" font-size="14.00">n kernels: 64</text>
</g>
<!-- 20&#45;&gt;51 -->
<g id="edge51" class="edge"><title>20&#45;&gt;51</title>
<path fill="none" stroke="black" d="M4244.5,-103.974C4244.5,-96.4519 4244.5,-87.3613 4244.5,-78.2833"/>
<polygon fill="black" stroke="black" points="4248,-78.1236 4244.5,-68.1236 4241,-78.1237 4248,-78.1236"/>
</g>
<!-- 52 -->
<g id="node53" class="node"><title>52</title>
<path fill="#debfe6" stroke="black" d="M4495,-68C4495,-68 4356,-68 4356,-68 4350,-68 4344,-62 4344,-56 4344,-56 4344,-12 4344,-12 4344,-6 4350,-0 4356,-0 4356,-0 4495,-0 4495,-0 4501,-0 4507,-6 4507,-12 4507,-12 4507,-56 4507,-56 4507,-62 4501,-68 4495,-68"/>
<text text-anchor="middle" x="4425.5" y="-52.8" font-family="Times,serif" font-size="14.00">merge</text>
<text text-anchor="middle" x="4425.5" y="-37.8" font-family="Times,serif" font-size="14.00">DB1/C0</text>
<text text-anchor="middle" x="4425.5" y="-22.8" font-family="Times,serif" font-size="14.00">dilation rate: 1 &#160;&#160;k width: 3</text>
<text text-anchor="middle" x="4425.5" y="-7.8" font-family="Times,serif" font-size="14.00">n kernels: 64</text>
</g>
<!-- 20&#45;&gt;52 -->
<g id="edge52" class="edge"><title>20&#45;&gt;52</title>
<path fill="none" stroke="black" d="M4282,-103.974C4300.93,-94.8748 4324.64,-83.4802 4347.3,-72.5892"/>
<polygon fill="black" stroke="black" points="4349.09,-75.6104 4356.59,-68.1236 4346.06,-69.3013 4349.09,-75.6104"/>
</g>
<!-- 53 -->
<g id="node54" class="node"><title>53</title>
<path fill="#f6d3ff" stroke="black" d="M4676,-68C4676,-68 4537,-68 4537,-68 4531,-68 4525,-62 4525,-56 4525,-56 4525,-12 4525,-12 4525,-6 4531,-0 4537,-0 4537,-0 4676,-0 4676,-0 4682,-0 4688,-6 4688,-12 4688,-12 4688,-56 4688,-56 4688,-62 4682,-68 4676,-68"/>
<text text-anchor="middle" x="4606.5" y="-52.8" font-family="Times,serif" font-size="14.00">forward</text>
<text text-anchor="middle" x="4606.5" y="-37.8" font-family="Times,serif" font-size="14.00">DB1/C2</text>
<text text-anchor="middle" x="4606.5" y="-22.8" font-family="Times,serif" font-size="14.00">dilation rate: 1 &#160;&#160;k width: 3</text>
<text text-anchor="middle" x="4606.5" y="-7.8" font-family="Times,serif" font-size="14.00">n kernels: 64</text>
</g>
<!-- 21&#45;&gt;53 -->
<g id="edge53" class="edge"><title>21&#45;&gt;53</title>
<path fill="none" stroke="black" d="M4677.85,-103.974C4669.23,-95.6431 4658.63,-85.3882 4648.25,-75.3573"/>
<polygon fill="black" stroke="black" points="4650.39,-72.5574 4640.77,-68.1236 4645.52,-77.5904 4650.39,-72.5574"/>
</g>
<!-- 54 -->
<g id="node55" class="node"><title>54</title>
<path fill="#debfe6" stroke="black" d="M4857,-68C4857,-68 4718,-68 4718,-68 4712,-68 4706,-62 4706,-56 4706,-56 4706,-12 4706,-12 4706,-6 4712,-0 4718,-0 4718,-0 4857,-0 4857,-0 4863,-0 4869,-6 4869,-12 4869,-12 4869,-56 4869,-56 4869,-62 4863,-68 4857,-68"/>
<text text-anchor="middle" x="4787.5" y="-52.8" font-family="Times,serif" font-size="14.00">merge</text>
<text text-anchor="middle" x="4787.5" y="-37.8" font-family="Times,serif" font-size="14.00">DB1/C0</text>
<text text-anchor="middle" x="4787.5" y="-22.8" font-family="Times,serif" font-size="14.00">dilation rate: 1 &#160;&#160;k width: 3</text>
<text text-anchor="middle" x="4787.5" y="-7.8" font-family="Times,serif" font-size="14.00">n kernels: 64</text>
</g>
<!-- 21&#45;&gt;54 -->
<g id="edge54" class="edge"><title>21&#45;&gt;54</title>
<path fill="none" stroke="black" d="M4715.36,-103.974C4724.15,-95.5622 4735,-85.1889 4745.59,-75.0653"/>
<polygon fill="black" stroke="black" points="4748.04,-77.5639 4752.85,-68.1236 4743.21,-72.5042 4748.04,-77.5639"/>
</g>
<!-- 55 -->
<g id="node56" class="node"><title>55</title>
<path fill="#c7abce" stroke="black" d="M5038,-68C5038,-68 4899,-68 4899,-68 4893,-68 4887,-62 4887,-56 4887,-56 4887,-12 4887,-12 4887,-6 4893,-0 4899,-0 4899,-0 5038,-0 5038,-0 5044,-0 5050,-6 5050,-12 5050,-12 5050,-56 5050,-56 5050,-62 5044,-68 5038,-68"/>
<text text-anchor="middle" x="4968.5" y="-52.8" font-family="Times,serif" font-size="14.00">merge</text>
<text text-anchor="middle" x="4968.5" y="-37.8" font-family="Times,serif" font-size="14.00">DB1/C1</text>
<text text-anchor="middle" x="4968.5" y="-22.8" font-family="Times,serif" font-size="14.00">dilation rate: 1 &#160;&#160;k width: 3</text>
<text text-anchor="middle" x="4968.5" y="-7.8" font-family="Times,serif" font-size="14.00">n kernels: 64</text>
</g>
<!-- 21&#45;&gt;55 -->
<g id="edge55" class="edge"><title>21&#45;&gt;55</title>
<path fill="none" stroke="black" d="M4742.85,-108.972C4777.41,-99.0796 4825.94,-84.8049 4877.14,-68.062"/>
<polygon fill="black" stroke="black" points="4878.32,-71.3576 4886.73,-64.9076 4876.13,-64.7083 4878.32,-71.3576"/>
</g>
<!-- 56 -->
<g id="node57" class="node"><title>56</title>
<path fill="#f6d3ff" stroke="black" d="M5219,-68C5219,-68 5080,-68 5080,-68 5074,-68 5068,-62 5068,-56 5068,-56 5068,-12 5068,-12 5068,-6 5074,-0 5080,-0 5080,-0 5219,-0 5219,-0 5225,-0 5231,-6 5231,-12 5231,-12 5231,-56 5231,-56 5231,-62 5225,-68 5219,-68"/>
<text text-anchor="middle" x="5149.5" y="-52.8" font-family="Times,serif" font-size="14.00">forward</text>
<text text-anchor="middle" x="5149.5" y="-37.8" font-family="Times,serif" font-size="14.00">DB1/C3</text>
<text text-anchor="middle" x="5149.5" y="-22.8" font-family="Times,serif" font-size="14.00">dilation rate: 1 &#160;&#160;k width: 3</text>
<text text-anchor="middle" x="5149.5" y="-7.8" font-family="Times,serif" font-size="14.00">n kernels: 64</text>
</g>
<!-- 22&#45;&gt;56 -->
<g id="edge56" class="edge"><title>22&#45;&gt;56</title>
<path fill="none" stroke="black" d="M5301.42,-108.022C5281.4,-98.3973 5253.78,-85.122 5227.57,-72.5274"/>
<polygon fill="black" stroke="black" points="5228.91,-69.2858 5218.38,-68.1081 5225.88,-75.5949 5228.91,-69.2858"/>
</g>
<!-- 57 -->
<g id="node58" class="node"><title>57</title>
<path fill="#debfe6" stroke="black" d="M5400,-68C5400,-68 5261,-68 5261,-68 5255,-68 5249,-62 5249,-56 5249,-56 5249,-12 5249,-12 5249,-6 5255,-0 5261,-0 5261,-0 5400,-0 5400,-0 5406,-0 5412,-6 5412,-12 5412,-12 5412,-56 5412,-56 5412,-62 5406,-68 5400,-68"/>
<text text-anchor="middle" x="5330.5" y="-52.8" font-family="Times,serif" font-size="14.00">merge</text>
<text text-anchor="middle" x="5330.5" y="-37.8" font-family="Times,serif" font-size="14.00">EB0/C1</text>
<text text-anchor="middle" x="5330.5" y="-22.8" font-family="Times,serif" font-size="14.00">dilation rate: 1 &#160;&#160;k width: 3</text>
<text text-anchor="middle" x="5330.5" y="-7.8" font-family="Times,serif" font-size="14.00">n kernels: 64</text>
</g>
<!-- 22&#45;&gt;57 -->
<g id="edge57" class="edge"><title>22&#45;&gt;57</title>
<path fill="none" stroke="black" d="M5330.5,-104.812C5330.5,-97.1019 5330.5,-87.6259 5330.5,-78.1706"/>
<polygon fill="black" stroke="black" points="5334,-78.0034 5330.5,-68.0034 5327,-78.0034 5334,-78.0034"/>
</g>
<!-- 58 -->
<g id="node59" class="node"><title>58</title>
<path fill="#f6d3ff" stroke="black" d="M5581,-68C5581,-68 5442,-68 5442,-68 5436,-68 5430,-62 5430,-56 5430,-56 5430,-12 5430,-12 5430,-6 5436,-0 5442,-0 5442,-0 5581,-0 5581,-0 5587,-0 5593,-6 5593,-12 5593,-12 5593,-56 5593,-56 5593,-62 5587,-68 5581,-68"/>
<text text-anchor="middle" x="5511.5" y="-52.8" font-family="Times,serif" font-size="14.00">forward</text>
<text text-anchor="middle" x="5511.5" y="-37.8" font-family="Times,serif" font-size="14.00">DB0/C0</text>
<text text-anchor="middle" x="5511.5" y="-22.8" font-family="Times,serif" font-size="14.00">dilation rate: 1 &#160;&#160;k width: 3</text>
<text text-anchor="middle" x="5511.5" y="-7.8" font-family="Times,serif" font-size="14.00">n kernels: 64</text>
</g>
<!-- 23&#45;&gt;58 -->
<g id="edge58" class="edge"><title>23&#45;&gt;58</title>
<path fill="none" stroke="black" d="M5553.23,-104.812C5548.37,-96.6918 5542.35,-86.6128 5536.4,-76.6623"/>
<polygon fill="black" stroke="black" points="5539.36,-74.7914 5531.23,-68.0034 5533.35,-78.3827 5539.36,-74.7914"/>
</g>
<!-- 59 -->
<g id="node60" class="node"><title>59</title>
<path fill="#f6d3ff" stroke="black" d="M5762,-68C5762,-68 5623,-68 5623,-68 5617,-68 5611,-62 5611,-56 5611,-56 5611,-12 5611,-12 5611,-6 5617,-0 5623,-0 5623,-0 5762,-0 5762,-0 5768,-0 5774,-6 5774,-12 5774,-12 5774,-56 5774,-56 5774,-62 5768,-68 5762,-68"/>
<text text-anchor="middle" x="5692.5" y="-52.8" font-family="Times,serif" font-size="14.00">forward</text>
<text text-anchor="middle" x="5692.5" y="-37.8" font-family="Times,serif" font-size="14.00">DB0/C1</text>
<text text-anchor="middle" x="5692.5" y="-22.8" font-family="Times,serif" font-size="14.00">dilation rate: 1 &#160;&#160;k width: 3</text>
<text text-anchor="middle" x="5692.5" y="-7.8" font-family="Times,serif" font-size="14.00">n kernels: 64</text>
</g>
<!-- 24&#45;&gt;59 -->
<g id="edge59" class="edge"><title>24&#45;&gt;59</title>
<path fill="none" stroke="black" d="M5764.72,-104.812C5755.89,-96.2817 5744.83,-85.5897 5734.04,-75.1559"/>
<polygon fill="black" stroke="black" points="5736.26,-72.4372 5726.64,-68.0034 5731.4,-77.4701 5736.26,-72.4372"/>
</g>
<!-- 60 -->
<g id="node61" class="node"><title>60</title>
<path fill="#debfe6" stroke="black" d="M5943,-68C5943,-68 5804,-68 5804,-68 5798,-68 5792,-62 5792,-56 5792,-56 5792,-12 5792,-12 5792,-6 5798,-0 5804,-0 5804,-0 5943,-0 5943,-0 5949,-0 5955,-6 5955,-12 5955,-12 5955,-56 5955,-56 5955,-62 5949,-68 5943,-68"/>
<text text-anchor="middle" x="5873.5" y="-52.8" font-family="Times,serif" font-size="14.00">merge</text>
<text text-anchor="middle" x="5873.5" y="-37.8" font-family="Times,serif" font-size="14.00">DB0/C0</text>
<text text-anchor="middle" x="5873.5" y="-22.8" font-family="Times,serif" font-size="14.00">dilation rate: 1 &#160;&#160;k width: 3</text>
<text text-anchor="middle" x="5873.5" y="-7.8" font-family="Times,serif" font-size="14.00">n kernels: 64</text>
</g>
<!-- 24&#45;&gt;60 -->
<g id="edge60" class="edge"><title>24&#45;&gt;60</title>
<path fill="none" stroke="black" d="M5800.48,-104.812C5809.4,-96.2817 5820.58,-85.5897 5831.5,-75.1559"/>
<polygon fill="black" stroke="black" points="5834.17,-77.4437 5838.98,-68.0034 5829.33,-72.384 5834.17,-77.4437"/>
</g>
<!-- 61 -->
<g id="node62" class="node"><title>61</title>
<path fill="#f6d3ff" stroke="black" d="M6124,-68C6124,-68 5985,-68 5985,-68 5979,-68 5973,-62 5973,-56 5973,-56 5973,-12 5973,-12 5973,-6 5979,-0 5985,-0 5985,-0 6124,-0 6124,-0 6130,-0 6136,-6 6136,-12 6136,-12 6136,-56 6136,-56 6136,-62 6130,-68 6124,-68"/>
<text text-anchor="middle" x="6054.5" y="-52.8" font-family="Times,serif" font-size="14.00">forward</text>
<text text-anchor="middle" x="6054.5" y="-37.8" font-family="Times,serif" font-size="14.00">DB0/C2</text>
<text text-anchor="middle" x="6054.5" y="-22.8" font-family="Times,serif" font-size="14.00">dilation rate: 1 &#160;&#160;k width: 3</text>
<text text-anchor="middle" x="6054.5" y="-7.8" font-family="Times,serif" font-size="14.00">n kernels: 64</text>
</g>
<!-- 25&#45;&gt;61 -->
<g id="edge61" class="edge"><title>25&#45;&gt;61</title>
<path fill="none" stroke="black" d="M6126.72,-104.812C6117.89,-96.2817 6106.83,-85.5897 6096.04,-75.1559"/>
<polygon fill="black" stroke="black" points="6098.26,-72.4372 6088.64,-68.0034 6093.4,-77.4701 6098.26,-72.4372"/>
</g>
<!-- 62 -->
<g id="node63" class="node"><title>62</title>
<path fill="#debfe6" stroke="black" d="M6305,-68C6305,-68 6166,-68 6166,-68 6160,-68 6154,-62 6154,-56 6154,-56 6154,-12 6154,-12 6154,-6 6160,-0 6166,-0 6166,-0 6305,-0 6305,-0 6311,-0 6317,-6 6317,-12 6317,-12 6317,-56 6317,-56 6317,-62 6311,-68 6305,-68"/>
<text text-anchor="middle" x="6235.5" y="-52.8" font-family="Times,serif" font-size="14.00">merge</text>
<text text-anchor="middle" x="6235.5" y="-37.8" font-family="Times,serif" font-size="14.00">DB0/C0</text>
<text text-anchor="middle" x="6235.5" y="-22.8" font-family="Times,serif" font-size="14.00">dilation rate: 1 &#160;&#160;k width: 3</text>
<text text-anchor="middle" x="6235.5" y="-7.8" font-family="Times,serif" font-size="14.00">n kernels: 64</text>
</g>
<!-- 25&#45;&gt;62 -->
<g id="edge62" class="edge"><title>25&#45;&gt;62</title>
<path fill="none" stroke="black" d="M6162.48,-104.812C6171.4,-96.2817 6182.58,-85.5897 6193.5,-75.1559"/>
<polygon fill="black" stroke="black" points="6196.17,-77.4437 6200.98,-68.0034 6191.33,-72.384 6196.17,-77.4437"/>
</g>
<!-- 63 -->
<g id="node64" class="node"><title>63</title>
<path fill="#c7abce" stroke="black" d="M6486,-68C6486,-68 6347,-68 6347,-68 6341,-68 6335,-62 6335,-56 6335,-56 6335,-12 6335,-12 6335,-6 6341,-0 6347,-0 6347,-0 6486,-0 6486,-0 6492,-0 6498,-6 6498,-12 6498,-12 6498,-56 6498,-56 6498,-62 6492,-68 6486,-68"/>
<text text-anchor="middle" x="6416.5" y="-52.8" font-family="Times,serif" font-size="14.00">merge</text>
<text text-anchor="middle" x="6416.5" y="-37.8" font-family="Times,serif" font-size="14.00">DB0/C1</text>
<text text-anchor="middle" x="6416.5" y="-22.8" font-family="Times,serif" font-size="14.00">dilation rate: 1 &#160;&#160;k width: 3</text>
<text text-anchor="middle" x="6416.5" y="-7.8" font-family="Times,serif" font-size="14.00">n kernels: 64</text>
</g>
<!-- 25&#45;&gt;63 -->
<g id="edge63" class="edge"><title>25&#45;&gt;63</title>
<path fill="none" stroke="black" d="M6173.68,-113.956C6207.86,-104.397 6266.41,-87.6161 6324.9,-68.4742"/>
<polygon fill="black" stroke="black" points="6326.26,-71.7106 6334.66,-65.2561 6324.07,-65.0624 6326.26,-71.7106"/>
</g>
<!-- 64 -->
<g id="node65" class="node"><title>64</title>
<path fill="#f6d3ff" stroke="black" d="M6667,-68C6667,-68 6528,-68 6528,-68 6522,-68 6516,-62 6516,-56 6516,-56 6516,-12 6516,-12 6516,-6 6522,-0 6528,-0 6528,-0 6667,-0 6667,-0 6673,-0 6679,-6 6679,-12 6679,-12 6679,-56 6679,-56 6679,-62 6673,-68 6667,-68"/>
<text text-anchor="middle" x="6597.5" y="-52.8" font-family="Times,serif" font-size="14.00">forward</text>
<text text-anchor="middle" x="6597.5" y="-37.8" font-family="Times,serif" font-size="14.00">DB0/C3</text>
<text text-anchor="middle" x="6597.5" y="-22.8" font-family="Times,serif" font-size="14.00">dilation rate: 1 &#160;&#160;k width: 3</text>
<text text-anchor="middle" x="6597.5" y="-7.8" font-family="Times,serif" font-size="14.00">n kernels: 64</text>
</g>
<!-- 26&#45;&gt;64 -->
<g id="edge64" class="edge"><title>26&#45;&gt;64</title>
<path fill="none" stroke="black" d="M6749.42,-108.022C6729.4,-98.3973 6701.78,-85.122 6675.57,-72.5274"/>
<polygon fill="black" stroke="black" points="6676.91,-69.2858 6666.38,-68.1081 6673.88,-75.5949 6676.91,-69.2858"/>
</g>
<!-- 65 -->
<g id="node66" class="node"><title>65</title>
<path fill="#debfe6" stroke="black" d="M6848,-68C6848,-68 6709,-68 6709,-68 6703,-68 6697,-62 6697,-56 6697,-56 6697,-12 6697,-12 6697,-6 6703,-0 6709,-0 6709,-0 6848,-0 6848,-0 6854,-0 6860,-6 6860,-12 6860,-12 6860,-56 6860,-56 6860,-62 6854,-68 6848,-68"/>
<text text-anchor="middle" x="6778.5" y="-52.8" font-family="Times,serif" font-size="14.00">merge</text>
<text text-anchor="middle" x="6778.5" y="-37.8" font-family="Times,serif" font-size="14.00">DB0/C0</text>
<text text-anchor="middle" x="6778.5" y="-22.8" font-family="Times,serif" font-size="14.00">dilation rate: 1 &#160;&#160;k width: 3</text>
<text text-anchor="middle" x="6778.5" y="-7.8" font-family="Times,serif" font-size="14.00">n kernels: 64</text>
</g>
<!-- 26&#45;&gt;65 -->
<g id="edge65" class="edge"><title>26&#45;&gt;65</title>
<path fill="none" stroke="black" d="M6778.5,-104.812C6778.5,-97.1019 6778.5,-87.6259 6778.5,-78.1706"/>
<polygon fill="black" stroke="black" points="6782,-78.0034 6778.5,-68.0034 6775,-78.0034 6782,-78.0034"/>
</g>
<!-- 66 -->
<g id="node67" class="node"><title>66</title>
<path fill="#c7abce" stroke="black" d="M7029,-68C7029,-68 6890,-68 6890,-68 6884,-68 6878,-62 6878,-56 6878,-56 6878,-12 6878,-12 6878,-6 6884,-0 6890,-0 6890,-0 7029,-0 7029,-0 7035,-0 7041,-6 7041,-12 7041,-12 7041,-56 7041,-56 7041,-62 7035,-68 7029,-68"/>
<text text-anchor="middle" x="6959.5" y="-52.8" font-family="Times,serif" font-size="14.00">merge</text>
<text text-anchor="middle" x="6959.5" y="-37.8" font-family="Times,serif" font-size="14.00">DB0/C1</text>
<text text-anchor="middle" x="6959.5" y="-22.8" font-family="Times,serif" font-size="14.00">dilation rate: 1 &#160;&#160;k width: 3</text>
<text text-anchor="middle" x="6959.5" y="-7.8" font-family="Times,serif" font-size="14.00">n kernels: 64</text>
</g>
<!-- 26&#45;&gt;66 -->
<g id="edge66" class="edge"><title>26&#45;&gt;66</title>
<path fill="none" stroke="black" d="M6807.58,-108.022C6827.6,-98.3973 6855.22,-85.122 6881.43,-72.5274"/>
<polygon fill="black" stroke="black" points="6883.12,-75.5949 6890.62,-68.1081 6880.09,-69.2858 6883.12,-75.5949"/>
</g>
<!-- 67 -->
<g id="node68" class="node"><title>67</title>
<path fill="#b097b6" stroke="black" d="M7210,-68C7210,-68 7071,-68 7071,-68 7065,-68 7059,-62 7059,-56 7059,-56 7059,-12 7059,-12 7059,-6 7065,-0 7071,-0 7071,-0 7210,-0 7210,-0 7216,-0 7222,-6 7222,-12 7222,-12 7222,-56 7222,-56 7222,-62 7216,-68 7210,-68"/>
<text text-anchor="middle" x="7140.5" y="-52.8" font-family="Times,serif" font-size="14.00">merge</text>
<text text-anchor="middle" x="7140.5" y="-37.8" font-family="Times,serif" font-size="14.00">DB0/C2</text>
<text text-anchor="middle" x="7140.5" y="-22.8" font-family="Times,serif" font-size="14.00">dilation rate: 1 &#160;&#160;k width: 3</text>
<text text-anchor="middle" x="7140.5" y="-7.8" font-family="Times,serif" font-size="14.00">n kernels: 64</text>
</g>
<!-- 26&#45;&gt;67 -->
<g id="edge67" class="edge"><title>26&#45;&gt;67</title>
<path fill="none" stroke="black" d="M6807.83,-117.711C6856.36,-110.289 6956.44,-93.5939 7048.97,-68.3007"/>
<polygon fill="black" stroke="black" points="7050.06,-71.6299 7058.76,-65.5831 7048.19,-64.8848 7050.06,-71.6299"/>
</g>
<!-- 68 -->
<g id="node69" class="node"><title>68</title>
<path fill="#f6d3ff" stroke="black" d="M7391,-68C7391,-68 7252,-68 7252,-68 7246,-68 7240,-62 7240,-56 7240,-56 7240,-12 7240,-12 7240,-6 7246,-0 7252,-0 7252,-0 7391,-0 7391,-0 7397,-0 7403,-6 7403,-12 7403,-12 7403,-56 7403,-56 7403,-62 7397,-68 7391,-68"/>
<text text-anchor="middle" x="7321.5" y="-52.8" font-family="Times,serif" font-size="14.00">forward</text>
<text text-anchor="middle" x="7321.5" y="-37.8" font-family="Times,serif" font-size="14.00">DB0/C4</text>
<text text-anchor="middle" x="7321.5" y="-22.8" font-family="Times,serif" font-size="14.00">dilation rate: 1 &#160;&#160;k width: 3</text>
<text text-anchor="middle" x="7321.5" y="-7.8" font-family="Times,serif" font-size="14.00">n kernels: 64</text>
</g>
<!-- 27&#45;&gt;68 -->
<g id="edge68" class="edge"><title>27&#45;&gt;68</title>
<path fill="none" stroke="black" d="M7563.35,-113.803C7529.5,-104.166 7471.81,-87.3731 7413.09,-68.1363"/>
<polygon fill="black" stroke="black" points="7413.87,-64.7085 7403.28,-64.9016 7411.68,-71.3566 7413.87,-64.7085"/>
</g>
<!-- 69 -->
<g id="node70" class="node"><title>69</title>
<path fill="#debfe6" stroke="black" d="M7572,-68C7572,-68 7433,-68 7433,-68 7427,-68 7421,-62 7421,-56 7421,-56 7421,-12 7421,-12 7421,-6 7427,-0 7433,-0 7433,-0 7572,-0 7572,-0 7578,-0 7584,-6 7584,-12 7584,-12 7584,-56 7584,-56 7584,-62 7578,-68 7572,-68"/>
<text text-anchor="middle" x="7502.5" y="-52.8" font-family="Times,serif" font-size="14.00">merge</text>
<text text-anchor="middle" x="7502.5" y="-37.8" font-family="Times,serif" font-size="14.00">DB0/C0</text>
<text text-anchor="middle" x="7502.5" y="-22.8" font-family="Times,serif" font-size="14.00">dilation rate: 1 &#160;&#160;k width: 3</text>
<text text-anchor="middle" x="7502.5" y="-7.8" font-family="Times,serif" font-size="14.00">n kernels: 64</text>
</g>
<!-- 27&#45;&gt;69 -->
<g id="edge69" class="edge"><title>27&#45;&gt;69</title>
<path fill="none" stroke="black" d="M7574.72,-104.812C7565.89,-96.2817 7554.83,-85.5897 7544.04,-75.1559"/>
<polygon fill="black" stroke="black" points="7546.26,-72.4372 7536.64,-68.0034 7541.4,-77.4701 7546.26,-72.4372"/>
</g>
<!-- 70 -->
<g id="node71" class="node"><title>70</title>
<path fill="#c7abce" stroke="black" d="M7753,-68C7753,-68 7614,-68 7614,-68 7608,-68 7602,-62 7602,-56 7602,-56 7602,-12 7602,-12 7602,-6 7608,-0 7614,-0 7614,-0 7753,-0 7753,-0 7759,-0 7765,-6 7765,-12 7765,-12 7765,-56 7765,-56 7765,-62 7759,-68 7753,-68"/>
<text text-anchor="middle" x="7683.5" y="-52.8" font-family="Times,serif" font-size="14.00">merge</text>
<text text-anchor="middle" x="7683.5" y="-37.8" font-family="Times,serif" font-size="14.00">DB0/C1</text>
<text text-anchor="middle" x="7683.5" y="-22.8" font-family="Times,serif" font-size="14.00">dilation rate: 1 &#160;&#160;k width: 3</text>
<text text-anchor="middle" x="7683.5" y="-7.8" font-family="Times,serif" font-size="14.00">n kernels: 64</text>
</g>
<!-- 27&#45;&gt;70 -->
<g id="edge70" class="edge"><title>27&#45;&gt;70</title>
<path fill="none" stroke="black" d="M7610.48,-104.812C7619.4,-96.2817 7630.58,-85.5897 7641.5,-75.1559"/>
<polygon fill="black" stroke="black" points="7644.17,-77.4437 7648.98,-68.0034 7639.33,-72.384 7644.17,-77.4437"/>
</g>
<!-- 71 -->
<g id="node72" class="node"><title>71</title>
<path fill="#b097b6" stroke="black" d="M7934,-68C7934,-68 7795,-68 7795,-68 7789,-68 7783,-62 7783,-56 7783,-56 7783,-12 7783,-12 7783,-6 7789,-0 7795,-0 7795,-0 7934,-0 7934,-0 7940,-0 7946,-6 7946,-12 7946,-12 7946,-56 7946,-56 7946,-62 7940,-68 7934,-68"/>
<text text-anchor="middle" x="7864.5" y="-52.8" font-family="Times,serif" font-size="14.00">merge</text>
<text text-anchor="middle" x="7864.5" y="-37.8" font-family="Times,serif" font-size="14.00">DB0/C2</text>
<text text-anchor="middle" x="7864.5" y="-22.8" font-family="Times,serif" font-size="14.00">dilation rate: 1 &#160;&#160;k width: 3</text>
<text text-anchor="middle" x="7864.5" y="-7.8" font-family="Times,serif" font-size="14.00">n kernels: 64</text>
</g>
<!-- 27&#45;&gt;71 -->
<g id="edge71" class="edge"><title>27&#45;&gt;71</title>
<path fill="none" stroke="black" d="M7621.68,-113.956C7655.86,-104.397 7714.41,-87.6161 7772.9,-68.4742"/>
<polygon fill="black" stroke="black" points="7774.26,-71.7106 7782.66,-65.2561 7772.07,-65.0624 7774.26,-71.7106"/>
</g>
<!-- 72 -->
<g id="node73" class="node"><title>72</title>
<path fill="#98839e" stroke="black" d="M8115,-68C8115,-68 7976,-68 7976,-68 7970,-68 7964,-62 7964,-56 7964,-56 7964,-12 7964,-12 7964,-6 7970,-0 7976,-0 7976,-0 8115,-0 8115,-0 8121,-0 8127,-6 8127,-12 8127,-12 8127,-56 8127,-56 8127,-62 8121,-68 8115,-68"/>
<text text-anchor="middle" x="8045.5" y="-52.8" font-family="Times,serif" font-size="14.00">merge</text>
<text text-anchor="middle" x="8045.5" y="-37.8" font-family="Times,serif" font-size="14.00">DB0/C3</text>
<text text-anchor="middle" x="8045.5" y="-22.8" font-family="Times,serif" font-size="14.00">dilation rate: 1 &#160;&#160;k width: 3</text>
<text text-anchor="middle" x="8045.5" y="-7.8" font-family="Times,serif" font-size="14.00">n kernels: 64</text>
</g>
<!-- 27&#45;&gt;72 -->
<g id="edge72" class="edge"><title>27&#45;&gt;72</title>
<path fill="none" stroke="black" d="M7621.6,-119.698C7682.14,-114.48 7826.01,-99.8476 7953.85,-68.2592"/>
<polygon fill="black" stroke="black" points="7954.96,-71.5885 7963.81,-65.7557 7953.25,-64.7998 7954.96,-71.5885"/>
</g>
</g>
</svg>
