<?xml version="1.0" encoding="UTF-8" standalone="no"?>
<!DOCTYPE svg PUBLIC "-//W3C//DTD SVG 1.1//EN"
 "http://www.w3.org/Graphics/SVG/1.1/DTD/svg11.dtd">
<!-- Generated by graphviz version 2.38.0 (20140413.2041)
 -->
<!-- Title: %3 Pages: 1 -->
<svg width="4122pt" height="387pt"
 viewBox="0.00 0.00 4121.50 387.00" xmlns="http://www.w3.org/2000/svg" xmlns:xlink="http://www.w3.org/1999/xlink">
<g id="graph0" class="graph" transform="scale(1 1) rotate(0) translate(4 383)">
<title>%3</title>
<polygon fill="none" stroke="none" points="-4,4 -4,-383 4117.5,-383 4117.5,4 -4,4"/>
<!-- 0 -->
<g id="node1" class="node"><title>0</title>
<path fill="#ffd3d3" stroke="black" d="M1904.5,-379C1904.5,-379 1834.5,-379 1834.5,-379 1828.5,-379 1822.5,-373 1822.5,-367 1822.5,-367 1822.5,-353 1822.5,-353 1822.5,-347 1828.5,-341 1834.5,-341 1834.5,-341 1904.5,-341 1904.5,-341 1910.5,-341 1916.5,-347 1916.5,-353 1916.5,-353 1916.5,-367 1916.5,-367 1916.5,-373 1910.5,-379 1904.5,-379"/>
<text text-anchor="middle" x="1869.5" y="-363.8" font-family="Times,serif" font-size="14.00">net</text>
<text text-anchor="middle" x="1869.5" y="-348.8" font-family="Times,serif" font-size="14.00">n kernels: 144</text>
</g>
<!-- 1 -->
<g id="node2" class="node"><title>1</title>
<path fill="#f6ffd3" stroke="black" d="M1342.5,-305C1342.5,-305 1142.5,-305 1142.5,-305 1136.5,-305 1130.5,-299 1130.5,-293 1130.5,-293 1130.5,-264 1130.5,-264 1130.5,-258 1136.5,-252 1142.5,-252 1142.5,-252 1342.5,-252 1342.5,-252 1348.5,-252 1354.5,-258 1354.5,-264 1354.5,-264 1354.5,-293 1354.5,-293 1354.5,-299 1348.5,-305 1342.5,-305"/>
<text text-anchor="middle" x="1242.5" y="-289.8" font-family="Times,serif" font-size="14.00">encoder</text>
<text text-anchor="middle" x="1242.5" y="-274.8" font-family="Times,serif" font-size="14.00">log gamma1: 0.364042 &#160;&#160;n kernels: &#45;9</text>
<text text-anchor="middle" x="1242.5" y="-259.8" font-family="Times,serif" font-size="14.00">pooling type: 1</text>
</g>
<!-- 0&#45;&gt;1 -->
<g id="edge1" class="edge"><title>0&#45;&gt;1</title>
<path fill="none" stroke="black" d="M1822.37,-353.025C1726.24,-340.835 1504.82,-312.761 1365.1,-295.045"/>
<polygon fill="black" stroke="black" points="1365.13,-291.52 1354.76,-293.735 1364.24,-298.465 1365.13,-291.52"/>
</g>
<!-- 2 -->
<g id="node3" class="node"><title>2</title>
<path fill="#f6ffd3" stroke="black" d="M2630.5,-305C2630.5,-305 2362.5,-305 2362.5,-305 2356.5,-305 2350.5,-299 2350.5,-293 2350.5,-293 2350.5,-264 2350.5,-264 2350.5,-258 2356.5,-252 2362.5,-252 2362.5,-252 2630.5,-252 2630.5,-252 2636.5,-252 2642.5,-258 2642.5,-264 2642.5,-264 2642.5,-293 2642.5,-293 2642.5,-299 2636.5,-305 2630.5,-305"/>
<text text-anchor="middle" x="2496.5" y="-289.8" font-family="Times,serif" font-size="14.00">decoder</text>
<text text-anchor="middle" x="2496.5" y="-274.8" font-family="Times,serif" font-size="14.00">log gamma1: &#45;0.202274 &#160;&#160;log gamma2: &#45;0.103953</text>
<text text-anchor="middle" x="2496.5" y="-259.8" font-family="Times,serif" font-size="14.00">n kernels: 7</text>
</g>
<!-- 0&#45;&gt;2 -->
<g id="edge2" class="edge"><title>0&#45;&gt;2</title>
<path fill="none" stroke="black" d="M1916.63,-353.025C2005.42,-341.766 2201.08,-316.957 2340.54,-299.274"/>
<polygon fill="black" stroke="black" points="2341.01,-302.744 2350.49,-298.014 2340.13,-295.799 2341.01,-302.744"/>
</g>
<!-- 3 -->
<g id="node4" class="node"><title>3</title>
<path fill="#d3ffe4" stroke="black" d="M679,-208.5C679,-208.5 416,-208.5 416,-208.5 410,-208.5 404,-202.5 404,-196.5 404,-196.5 404,-182.5 404,-182.5 404,-176.5 410,-170.5 416,-170.5 416,-170.5 679,-170.5 679,-170.5 685,-170.5 691,-176.5 691,-182.5 691,-182.5 691,-196.5 691,-196.5 691,-202.5 685,-208.5 679,-208.5"/>
<text text-anchor="middle" x="547.5" y="-193.3" font-family="Times,serif" font-size="14.00">encode block 0</text>
<text text-anchor="middle" x="547.5" y="-178.3" font-family="Times,serif" font-size="14.00">log gamma1: 0.218037 &#160;&#160;log gamma2: &#45;0.301226</text>
</g>
<!-- 1&#45;&gt;3 -->
<g id="edge3" class="edge"><title>1&#45;&gt;3</title>
<path fill="none" stroke="black" d="M1130.45,-263.474C1014.07,-248.906 831.185,-226.012 701.319,-209.755"/>
<polygon fill="black" stroke="black" points="701.637,-206.268 691.28,-208.498 700.767,-213.213 701.637,-206.268"/>
</g>
<!-- 4 -->
<g id="node5" class="node"><title>4</title>
<path fill="#bfe6cf" stroke="black" d="M1372,-216C1372,-216 1113,-216 1113,-216 1107,-216 1101,-210 1101,-204 1101,-204 1101,-175 1101,-175 1101,-169 1107,-163 1113,-163 1113,-163 1372,-163 1372,-163 1378,-163 1384,-169 1384,-175 1384,-175 1384,-204 1384,-204 1384,-210 1378,-216 1372,-216"/>
<text text-anchor="middle" x="1242.5" y="-200.8" font-family="Times,serif" font-size="14.00">encode block 1</text>
<text text-anchor="middle" x="1242.5" y="-185.8" font-family="Times,serif" font-size="14.00">log gamma1: 0.304911 &#160;&#160;log gamma2: 0.463573</text>
<text text-anchor="middle" x="1242.5" y="-170.8" font-family="Times,serif" font-size="14.00">n kernels: 135 &#160;&#160;spatial scale: 1</text>
</g>
<!-- 1&#45;&gt;4 -->
<g id="edge4" class="edge"><title>1&#45;&gt;4</title>
<path fill="none" stroke="black" d="M1242.5,-251.868C1242.5,-243.886 1242.5,-234.932 1242.5,-226.384"/>
<polygon fill="black" stroke="black" points="1246,-226.25 1242.5,-216.25 1239,-226.25 1246,-226.25"/>
</g>
<!-- 5 -->
<g id="node6" class="node"><title>5</title>
<path fill="#d3ffe4" stroke="black" d="M2284,-208.5C2284,-208.5 2123,-208.5 2123,-208.5 2117,-208.5 2111,-202.5 2111,-196.5 2111,-196.5 2111,-182.5 2111,-182.5 2111,-176.5 2117,-170.5 2123,-170.5 2123,-170.5 2284,-170.5 2284,-170.5 2290,-170.5 2296,-176.5 2296,-182.5 2296,-182.5 2296,-196.5 2296,-196.5 2296,-202.5 2290,-208.5 2284,-208.5"/>
<text text-anchor="middle" x="2203.5" y="-193.3" font-family="Times,serif" font-size="14.00">decode block 2</text>
<text text-anchor="middle" x="2203.5" y="-178.3" font-family="Times,serif" font-size="14.00">n kernels: 860 &#160;&#160;spatial scale: 2</text>
</g>
<!-- 2&#45;&gt;5 -->
<g id="edge5" class="edge"><title>2&#45;&gt;5</title>
<path fill="none" stroke="black" d="M2410.57,-251.985C2367.11,-239.081 2315.02,-223.614 2273.96,-211.421"/>
<polygon fill="black" stroke="black" points="2274.89,-208.046 2264.31,-208.555 2272.9,-214.757 2274.89,-208.046"/>
</g>
<!-- 6 -->
<g id="node7" class="node"><title>6</title>
<path fill="#bfe6cf" stroke="black" d="M2923.5,-216C2923.5,-216 2655.5,-216 2655.5,-216 2649.5,-216 2643.5,-210 2643.5,-204 2643.5,-204 2643.5,-175 2643.5,-175 2643.5,-169 2649.5,-163 2655.5,-163 2655.5,-163 2923.5,-163 2923.5,-163 2929.5,-163 2935.5,-169 2935.5,-175 2935.5,-175 2935.5,-204 2935.5,-204 2935.5,-210 2929.5,-216 2923.5,-216"/>
<text text-anchor="middle" x="2789.5" y="-200.8" font-family="Times,serif" font-size="14.00">decode block 1</text>
<text text-anchor="middle" x="2789.5" y="-185.8" font-family="Times,serif" font-size="14.00">log gamma1: &#45;0.062748 &#160;&#160;log gamma2: &#45;0.007127</text>
<text text-anchor="middle" x="2789.5" y="-170.8" font-family="Times,serif" font-size="14.00">n kernels: &#45;7 &#160;&#160;spatial scale: 1</text>
</g>
<!-- 2&#45;&gt;6 -->
<g id="edge6" class="edge"><title>2&#45;&gt;6</title>
<path fill="none" stroke="black" d="M2582.43,-251.985C2617.31,-241.627 2657.76,-229.619 2693.59,-218.977"/>
<polygon fill="black" stroke="black" points="2694.98,-222.216 2703.57,-216.015 2692.99,-215.506 2694.98,-222.216"/>
</g>
<!-- 7 -->
<g id="node8" class="node"><title>7</title>
<path fill="#abceb9" stroke="black" d="M3737,-216C3737,-216 3474,-216 3474,-216 3468,-216 3462,-210 3462,-204 3462,-204 3462,-175 3462,-175 3462,-169 3468,-163 3474,-163 3474,-163 3737,-163 3737,-163 3743,-163 3749,-169 3749,-175 3749,-175 3749,-204 3749,-204 3749,-210 3743,-216 3737,-216"/>
<text text-anchor="middle" x="3605.5" y="-200.8" font-family="Times,serif" font-size="14.00">decode block 0</text>
<text text-anchor="middle" x="3605.5" y="-185.8" font-family="Times,serif" font-size="14.00">log gamma1: &#45;0.440580 &#160;&#160;log gamma2: 0.457303</text>
<text text-anchor="middle" x="3605.5" y="-170.8" font-family="Times,serif" font-size="14.00">n kernels: 4</text>
</g>
<!-- 2&#45;&gt;7 -->
<g id="edge7" class="edge"><title>2&#45;&gt;7</title>
<path fill="none" stroke="black" d="M2642.62,-266.037C2852.5,-249.572 3237.53,-219.367 3451.63,-202.571"/>
<polygon fill="black" stroke="black" points="3452,-206.053 3461.69,-201.781 3451.45,-199.074 3452,-206.053"/>
</g>
<!-- 8 -->
<g id="node9" class="node"><title>8</title>
<path fill="#d3e4ff" stroke="black" d="M73,-119.5C73,-119.5 12,-119.5 12,-119.5 6,-119.5 0,-113.5 0,-107.5 0,-107.5 0,-93.5 0,-93.5 0,-87.5 6,-81.5 12,-81.5 12,-81.5 73,-81.5 73,-81.5 79,-81.5 85,-87.5 85,-93.5 85,-93.5 85,-107.5 85,-107.5 85,-113.5 79,-119.5 73,-119.5"/>
<text text-anchor="middle" x="42.5" y="-104.3" font-family="Times,serif" font-size="14.00">comp 0</text>
<text text-anchor="middle" x="42.5" y="-89.3" font-family="Times,serif" font-size="14.00">n kernels: &#45;6</text>
</g>
<!-- 3&#45;&gt;8 -->
<g id="edge8" class="edge"><title>3&#45;&gt;8</title>
<path fill="none" stroke="black" d="M403.803,-181.142C313.181,-173.558 194.589,-158.176 93.5,-127 90.3783,-126.037 87.214,-124.899 84.0699,-123.646"/>
<polygon fill="black" stroke="black" points="85.3279,-120.377 74.7611,-119.607 82.5415,-126.799 85.3279,-120.377"/>
</g>
<!-- 9 -->
<g id="node10" class="node"><title>9</title>
<path fill="#bfcfe6" stroke="black" d="M374,-127C374,-127 115,-127 115,-127 109,-127 103,-121 103,-115 103,-115 103,-86 103,-86 103,-80 109,-74 115,-74 115,-74 374,-74 374,-74 380,-74 386,-80 386,-86 386,-86 386,-115 386,-115 386,-121 380,-127 374,-127"/>
<text text-anchor="middle" x="244.5" y="-111.8" font-family="Times,serif" font-size="14.00">comp 1</text>
<text text-anchor="middle" x="244.5" y="-96.8" font-family="Times,serif" font-size="14.00">log gamma1: 0.358525 &#160;&#160;log gamma2: 0.285084</text>
<text text-anchor="middle" x="244.5" y="-81.8" font-family="Times,serif" font-size="14.00">n kernels: &#45;7</text>
</g>
<!-- 3&#45;&gt;9 -->
<g id="edge9" class="edge"><title>3&#45;&gt;9</title>
<path fill="none" stroke="black" d="M484.718,-170.474C443.856,-158.741 389.699,-143.191 343.152,-129.826"/>
<polygon fill="black" stroke="black" points="343.92,-126.405 333.342,-127.009 341.988,-133.133 343.92,-126.405"/>
</g>
<!-- 10 -->
<g id="node11" class="node"><title>10</title>
<path fill="#abb9ce" stroke="black" d="M679,-127C679,-127 416,-127 416,-127 410,-127 404,-121 404,-115 404,-115 404,-86 404,-86 404,-80 410,-74 416,-74 416,-74 679,-74 679,-74 685,-74 691,-80 691,-86 691,-86 691,-115 691,-115 691,-121 685,-127 679,-127"/>
<text text-anchor="middle" x="547.5" y="-111.8" font-family="Times,serif" font-size="14.00">comp 2</text>
<text text-anchor="middle" x="547.5" y="-96.8" font-family="Times,serif" font-size="14.00">log gamma1: &#45;0.046263 &#160;&#160;log gamma2: 0.140875</text>
<text text-anchor="middle" x="547.5" y="-81.8" font-family="Times,serif" font-size="14.00">n kernels: &#45;4</text>
</g>
<!-- 3&#45;&gt;10 -->
<g id="edge10" class="edge"><title>3&#45;&gt;10</title>
<path fill="none" stroke="black" d="M547.5,-170.474C547.5,-160.871 547.5,-148.711 547.5,-137.285"/>
<polygon fill="black" stroke="black" points="551,-137.092 547.5,-127.092 544,-137.092 551,-137.092"/>
</g>
<!-- 11 -->
<g id="node12" class="node"><title>11</title>
<path fill="#97a3b6" stroke="black" d="M755.5,-118.5C755.5,-118.5 721.5,-118.5 721.5,-118.5 715.5,-118.5 709.5,-112.5 709.5,-106.5 709.5,-106.5 709.5,-94.5 709.5,-94.5 709.5,-88.5 715.5,-82.5 721.5,-82.5 721.5,-82.5 755.5,-82.5 755.5,-82.5 761.5,-82.5 767.5,-88.5 767.5,-94.5 767.5,-94.5 767.5,-106.5 767.5,-106.5 767.5,-112.5 761.5,-118.5 755.5,-118.5"/>
<text text-anchor="middle" x="738.5" y="-96.8" font-family="Times,serif" font-size="14.00">identity</text>
</g>
<!-- 3&#45;&gt;11 -->
<g id="edge11" class="edge"><title>3&#45;&gt;11</title>
<path fill="none" stroke="black" d="M599.282,-170.413C629.21,-159.258 667.21,-143.883 699.5,-127 701.274,-126.072 703.07,-125.086 704.867,-124.06"/>
<polygon fill="black" stroke="black" points="707.001,-126.86 713.759,-118.701 703.387,-120.865 707.001,-126.86"/>
</g>
<!-- 12 -->
<g id="node13" class="node"><title>12</title>
<path fill="#d3e4ff" stroke="black" d="M1065.5,-127C1065.5,-127 797.5,-127 797.5,-127 791.5,-127 785.5,-121 785.5,-115 785.5,-115 785.5,-86 785.5,-86 785.5,-80 791.5,-74 797.5,-74 797.5,-74 1065.5,-74 1065.5,-74 1071.5,-74 1077.5,-80 1077.5,-86 1077.5,-86 1077.5,-115 1077.5,-115 1077.5,-121 1071.5,-127 1065.5,-127"/>
<text text-anchor="middle" x="931.5" y="-111.8" font-family="Times,serif" font-size="14.00">comp 0</text>
<text text-anchor="middle" x="931.5" y="-96.8" font-family="Times,serif" font-size="14.00">log gamma1: &#45;0.135018 &#160;&#160;log gamma2: &#45;0.270447</text>
<text text-anchor="middle" x="931.5" y="-81.8" font-family="Times,serif" font-size="14.00">n kernels: 2 &#160;&#160;pooling type: &#45;1</text>
</g>
<!-- 4&#45;&gt;12 -->
<g id="edge12" class="edge"><title>4&#45;&gt;12</title>
<path fill="none" stroke="black" d="M1151.29,-162.985C1114.11,-152.583 1070.97,-140.516 1032.81,-129.841"/>
<polygon fill="black" stroke="black" points="1033.28,-126.338 1022.71,-127.015 1031.39,-133.079 1033.28,-126.338"/>
</g>
<!-- 13 -->
<g id="node14" class="node"><title>13</title>
<path fill="#bfcfe6" stroke="black" d="M1169,-119.5C1169,-119.5 1108,-119.5 1108,-119.5 1102,-119.5 1096,-113.5 1096,-107.5 1096,-107.5 1096,-93.5 1096,-93.5 1096,-87.5 1102,-81.5 1108,-81.5 1108,-81.5 1169,-81.5 1169,-81.5 1175,-81.5 1181,-87.5 1181,-93.5 1181,-93.5 1181,-107.5 1181,-107.5 1181,-113.5 1175,-119.5 1169,-119.5"/>
<text text-anchor="middle" x="1138.5" y="-104.3" font-family="Times,serif" font-size="14.00">comp 1</text>
<text text-anchor="middle" x="1138.5" y="-89.3" font-family="Times,serif" font-size="14.00">n kernels: &#45;2</text>
</g>
<!-- 4&#45;&gt;13 -->
<g id="edge13" class="edge"><title>4&#45;&gt;13</title>
<path fill="none" stroke="black" d="M1211.86,-162.868C1197.93,-151.22 1181.54,-137.503 1167.78,-125.995"/>
<polygon fill="black" stroke="black" points="1169.94,-123.238 1160.03,-119.507 1165.45,-128.608 1169.94,-123.238"/>
</g>
<!-- 14 -->
<g id="node15" class="node"><title>14</title>
<path fill="#abb9ce" stroke="black" d="M1479.5,-127C1479.5,-127 1211.5,-127 1211.5,-127 1205.5,-127 1199.5,-121 1199.5,-115 1199.5,-115 1199.5,-86 1199.5,-86 1199.5,-80 1205.5,-74 1211.5,-74 1211.5,-74 1479.5,-74 1479.5,-74 1485.5,-74 1491.5,-80 1491.5,-86 1491.5,-86 1491.5,-115 1491.5,-115 1491.5,-121 1485.5,-127 1479.5,-127"/>
<text text-anchor="middle" x="1345.5" y="-111.8" font-family="Times,serif" font-size="14.00">comp 2</text>
<text text-anchor="middle" x="1345.5" y="-96.8" font-family="Times,serif" font-size="14.00">log gamma1: &#45;0.380614 &#160;&#160;log gamma2: &#45;0.051050</text>
<text text-anchor="middle" x="1345.5" y="-81.8" font-family="Times,serif" font-size="14.00">n kernels: 8</text>
</g>
<!-- 4&#45;&gt;14 -->
<g id="edge14" class="edge"><title>4&#45;&gt;14</title>
<path fill="none" stroke="black" d="M1272.85,-162.868C1283.65,-153.745 1295.95,-143.354 1307.32,-133.749"/>
<polygon fill="black" stroke="black" points="1309.63,-136.376 1315.01,-127.25 1305.12,-131.029 1309.63,-136.376"/>
</g>
<!-- 15 -->
<g id="node16" class="node"><title>15</title>
<path fill="#97a3b6" stroke="black" d="M1555.5,-118.5C1555.5,-118.5 1521.5,-118.5 1521.5,-118.5 1515.5,-118.5 1509.5,-112.5 1509.5,-106.5 1509.5,-106.5 1509.5,-94.5 1509.5,-94.5 1509.5,-88.5 1515.5,-82.5 1521.5,-82.5 1521.5,-82.5 1555.5,-82.5 1555.5,-82.5 1561.5,-82.5 1567.5,-88.5 1567.5,-94.5 1567.5,-94.5 1567.5,-106.5 1567.5,-106.5 1567.5,-112.5 1561.5,-118.5 1555.5,-118.5"/>
<text text-anchor="middle" x="1538.5" y="-96.8" font-family="Times,serif" font-size="14.00">identity</text>
</g>
<!-- 4&#45;&gt;15 -->
<g id="edge15" class="edge"><title>4&#45;&gt;15</title>
<path fill="none" stroke="black" d="M1384.05,-164.321C1422.72,-155.168 1464.01,-142.969 1500.5,-127 1502.63,-126.068 1504.77,-125.017 1506.89,-123.885"/>
<polygon fill="black" stroke="black" points="1509.12,-126.63 1515.95,-118.529 1505.56,-120.603 1509.12,-126.63"/>
</g>
<!-- 16 -->
<g id="node17" class="node"><title>16</title>
<path fill="#d3e4ff" stroke="black" d="M1857,-127C1857,-127 1598,-127 1598,-127 1592,-127 1586,-121 1586,-115 1586,-115 1586,-86 1586,-86 1586,-80 1592,-74 1598,-74 1598,-74 1857,-74 1857,-74 1863,-74 1869,-80 1869,-86 1869,-86 1869,-115 1869,-115 1869,-121 1863,-127 1857,-127"/>
<text text-anchor="middle" x="1727.5" y="-111.8" font-family="Times,serif" font-size="14.00">comp 0</text>
<text text-anchor="middle" x="1727.5" y="-96.8" font-family="Times,serif" font-size="14.00">log gamma1: 0.457074 &#160;&#160;log gamma2: 0.492675</text>
<text text-anchor="middle" x="1727.5" y="-81.8" font-family="Times,serif" font-size="14.00">pooling type: 1</text>
</g>
<!-- 5&#45;&gt;16 -->
<g id="edge16" class="edge"><title>5&#45;&gt;16</title>
<path fill="none" stroke="black" d="M2110.88,-171.571C2044.61,-159.46 1953.98,-142.895 1877.48,-128.912"/>
<polygon fill="black" stroke="black" points="1877.73,-125.399 1867.26,-127.044 1876.47,-132.285 1877.73,-125.399"/>
</g>
<!-- 17 -->
<g id="node18" class="node"><title>17</title>
<path fill="#bfcfe6" stroke="black" d="M2099.5,-127C2099.5,-127 1899.5,-127 1899.5,-127 1893.5,-127 1887.5,-121 1887.5,-115 1887.5,-115 1887.5,-86 1887.5,-86 1887.5,-80 1893.5,-74 1899.5,-74 1899.5,-74 2099.5,-74 2099.5,-74 2105.5,-74 2111.5,-80 2111.5,-86 2111.5,-86 2111.5,-115 2111.5,-115 2111.5,-121 2105.5,-127 2099.5,-127"/>
<text text-anchor="middle" x="1999.5" y="-111.8" font-family="Times,serif" font-size="14.00">comp 1</text>
<text text-anchor="middle" x="1999.5" y="-96.8" font-family="Times,serif" font-size="14.00">log gamma1: &#45;0.096426 &#160;&#160;n kernels: 8</text>
<text text-anchor="middle" x="1999.5" y="-81.8" font-family="Times,serif" font-size="14.00">pooling type: 1</text>
</g>
<!-- 5&#45;&gt;17 -->
<g id="edge17" class="edge"><title>5&#45;&gt;17</title>
<path fill="none" stroke="black" d="M2161.23,-170.474C2134.58,-159.107 2099.53,-144.158 2068.87,-131.083"/>
<polygon fill="black" stroke="black" points="2070.08,-127.795 2059.51,-127.092 2067.33,-134.234 2070.08,-127.795"/>
</g>
<!-- 18 -->
<g id="node19" class="node"><title>18</title>
<path fill="#abb9ce" stroke="black" d="M2266,-119.5C2266,-119.5 2141,-119.5 2141,-119.5 2135,-119.5 2129,-113.5 2129,-107.5 2129,-107.5 2129,-93.5 2129,-93.5 2129,-87.5 2135,-81.5 2141,-81.5 2141,-81.5 2266,-81.5 2266,-81.5 2272,-81.5 2278,-87.5 2278,-93.5 2278,-93.5 2278,-107.5 2278,-107.5 2278,-113.5 2272,-119.5 2266,-119.5"/>
<text text-anchor="middle" x="2203.5" y="-104.3" font-family="Times,serif" font-size="14.00">comp 2</text>
<text text-anchor="middle" x="2203.5" y="-89.3" font-family="Times,serif" font-size="14.00">log gamma1: &#45;0.014601</text>
</g>
<!-- 5&#45;&gt;18 -->
<g id="edge18" class="edge"><title>5&#45;&gt;18</title>
<path fill="none" stroke="black" d="M2203.5,-170.474C2203.5,-158.692 2203.5,-143.061 2203.5,-129.658"/>
<polygon fill="black" stroke="black" points="2207,-129.503 2203.5,-119.503 2200,-129.503 2207,-129.503"/>
</g>
<!-- 19 -->
<g id="node20" class="node"><title>19</title>
<path fill="#97a3b6" stroke="black" d="M2341.5,-118.5C2341.5,-118.5 2307.5,-118.5 2307.5,-118.5 2301.5,-118.5 2295.5,-112.5 2295.5,-106.5 2295.5,-106.5 2295.5,-94.5 2295.5,-94.5 2295.5,-88.5 2301.5,-82.5 2307.5,-82.5 2307.5,-82.5 2341.5,-82.5 2341.5,-82.5 2347.5,-82.5 2353.5,-88.5 2353.5,-94.5 2353.5,-94.5 2353.5,-106.5 2353.5,-106.5 2353.5,-112.5 2347.5,-118.5 2341.5,-118.5"/>
<text text-anchor="middle" x="2324.5" y="-96.8" font-family="Times,serif" font-size="14.00">identity</text>
</g>
<!-- 5&#45;&gt;19 -->
<g id="edge19" class="edge"><title>5&#45;&gt;19</title>
<path fill="none" stroke="black" d="M2228.57,-170.474C2247.11,-157.147 2272.49,-138.896 2292.49,-124.516"/>
<polygon fill="black" stroke="black" points="2294.62,-127.295 2300.7,-118.615 2290.53,-121.611 2294.62,-127.295"/>
</g>
<!-- 20 -->
<g id="node21" class="node"><title>20</title>
<path fill="#d3e4ff" stroke="black" d="M2647,-127C2647,-127 2384,-127 2384,-127 2378,-127 2372,-121 2372,-115 2372,-115 2372,-86 2372,-86 2372,-80 2378,-74 2384,-74 2384,-74 2647,-74 2647,-74 2653,-74 2659,-80 2659,-86 2659,-86 2659,-115 2659,-115 2659,-121 2653,-127 2647,-127"/>
<text text-anchor="middle" x="2515.5" y="-111.8" font-family="Times,serif" font-size="14.00">comp 0</text>
<text text-anchor="middle" x="2515.5" y="-96.8" font-family="Times,serif" font-size="14.00">log gamma1: 0.083066 &#160;&#160;log gamma2: &#45;0.074760</text>
<text text-anchor="middle" x="2515.5" y="-81.8" font-family="Times,serif" font-size="14.00">n kernels: 5</text>
</g>
<!-- 6&#45;&gt;20 -->
<g id="edge20" class="edge"><title>6&#45;&gt;20</title>
<path fill="none" stroke="black" d="M2709.14,-162.985C2676.66,-152.672 2639.02,-140.721 2605.62,-130.114"/>
<polygon fill="black" stroke="black" points="2606.45,-126.705 2595.86,-127.015 2604.33,-133.377 2606.45,-126.705"/>
</g>
<!-- 21 -->
<g id="node22" class="node"><title>21</title>
<path fill="#bfcfe6" stroke="black" d="M2889.5,-127C2889.5,-127 2689.5,-127 2689.5,-127 2683.5,-127 2677.5,-121 2677.5,-115 2677.5,-115 2677.5,-86 2677.5,-86 2677.5,-80 2683.5,-74 2689.5,-74 2689.5,-74 2889.5,-74 2889.5,-74 2895.5,-74 2901.5,-80 2901.5,-86 2901.5,-86 2901.5,-115 2901.5,-115 2901.5,-121 2895.5,-127 2889.5,-127"/>
<text text-anchor="middle" x="2789.5" y="-111.8" font-family="Times,serif" font-size="14.00">comp 1</text>
<text text-anchor="middle" x="2789.5" y="-96.8" font-family="Times,serif" font-size="14.00">log gamma1: 0.294528 &#160;&#160;n kernels: &#45;6</text>
<text text-anchor="middle" x="2789.5" y="-81.8" font-family="Times,serif" font-size="14.00">pooling type: &#45;1</text>
</g>
<!-- 6&#45;&gt;21 -->
<g id="edge21" class="edge"><title>6&#45;&gt;21</title>
<path fill="none" stroke="black" d="M2789.5,-162.868C2789.5,-154.886 2789.5,-145.932 2789.5,-137.384"/>
<polygon fill="black" stroke="black" points="2793,-137.25 2789.5,-127.25 2786,-137.25 2793,-137.25"/>
</g>
<!-- 22 -->
<g id="node23" class="node"><title>22</title>
<path fill="#abb9ce" stroke="black" d="M3191,-127C3191,-127 2932,-127 2932,-127 2926,-127 2920,-121 2920,-115 2920,-115 2920,-86 2920,-86 2920,-80 2926,-74 2932,-74 2932,-74 3191,-74 3191,-74 3197,-74 3203,-80 3203,-86 3203,-86 3203,-115 3203,-115 3203,-121 3197,-127 3191,-127"/>
<text text-anchor="middle" x="3061.5" y="-111.8" font-family="Times,serif" font-size="14.00">comp 2</text>
<text text-anchor="middle" x="3061.5" y="-96.8" font-family="Times,serif" font-size="14.00">log gamma1: 0.208708 &#160;&#160;log gamma2: 0.132448</text>
<text text-anchor="middle" x="3061.5" y="-81.8" font-family="Times,serif" font-size="14.00">n kernels: &#45;8</text>
</g>
<!-- 6&#45;&gt;22 -->
<g id="edge22" class="edge"><title>6&#45;&gt;22</title>
<path fill="none" stroke="black" d="M2869.27,-162.985C2901.52,-152.672 2938.88,-140.721 2972.04,-130.114"/>
<polygon fill="black" stroke="black" points="2973.27,-133.395 2981.73,-127.015 2971.14,-126.727 2973.27,-133.395"/>
</g>
<!-- 23 -->
<g id="node24" class="node"><title>23</title>
<path fill="#97a3b6" stroke="black" d="M3267.5,-118.5C3267.5,-118.5 3233.5,-118.5 3233.5,-118.5 3227.5,-118.5 3221.5,-112.5 3221.5,-106.5 3221.5,-106.5 3221.5,-94.5 3221.5,-94.5 3221.5,-88.5 3227.5,-82.5 3233.5,-82.5 3233.5,-82.5 3267.5,-82.5 3267.5,-82.5 3273.5,-82.5 3279.5,-88.5 3279.5,-94.5 3279.5,-94.5 3279.5,-106.5 3279.5,-106.5 3279.5,-112.5 3273.5,-118.5 3267.5,-118.5"/>
<text text-anchor="middle" x="3250.5" y="-96.8" font-family="Times,serif" font-size="14.00">identity</text>
</g>
<!-- 6&#45;&gt;23 -->
<g id="edge23" class="edge"><title>6&#45;&gt;23</title>
<path fill="none" stroke="black" d="M2935.98,-182.749C3019.02,-175.686 3123.56,-160.29 3211.5,-127 3214.04,-126.04 3216.58,-124.893 3219.08,-123.626"/>
<polygon fill="black" stroke="black" points="3220.92,-126.609 3227.88,-118.626 3217.46,-120.522 3220.92,-126.609"/>
</g>
<!-- 24 -->
<g id="node25" class="node"><title>24</title>
<path fill="#d3e4ff" stroke="black" d="M3429.5,-119.5C3429.5,-119.5 3309.5,-119.5 3309.5,-119.5 3303.5,-119.5 3297.5,-113.5 3297.5,-107.5 3297.5,-107.5 3297.5,-93.5 3297.5,-93.5 3297.5,-87.5 3303.5,-81.5 3309.5,-81.5 3309.5,-81.5 3429.5,-81.5 3429.5,-81.5 3435.5,-81.5 3441.5,-87.5 3441.5,-93.5 3441.5,-93.5 3441.5,-107.5 3441.5,-107.5 3441.5,-113.5 3435.5,-119.5 3429.5,-119.5"/>
<text text-anchor="middle" x="3369.5" y="-104.3" font-family="Times,serif" font-size="14.00">comp 0</text>
<text text-anchor="middle" x="3369.5" y="-89.3" font-family="Times,serif" font-size="14.00">log gamma2: 0.100518</text>
</g>
<!-- 7&#45;&gt;24 -->
<g id="edge24" class="edge"><title>7&#45;&gt;24</title>
<path fill="none" stroke="black" d="M3536.29,-162.985C3501.87,-150.299 3460.74,-135.135 3427.93,-123.041"/>
<polygon fill="black" stroke="black" points="3429.07,-119.73 3418.48,-119.555 3426.65,-126.298 3429.07,-119.73"/>
</g>
<!-- 25 -->
<g id="node26" class="node"><title>25</title>
<path fill="#bfcfe6" stroke="black" d="M3739.5,-127C3739.5,-127 3471.5,-127 3471.5,-127 3465.5,-127 3459.5,-121 3459.5,-115 3459.5,-115 3459.5,-86 3459.5,-86 3459.5,-80 3465.5,-74 3471.5,-74 3471.5,-74 3739.5,-74 3739.5,-74 3745.5,-74 3751.5,-80 3751.5,-86 3751.5,-86 3751.5,-115 3751.5,-115 3751.5,-121 3745.5,-127 3739.5,-127"/>
<text text-anchor="middle" x="3605.5" y="-111.8" font-family="Times,serif" font-size="14.00">comp 1</text>
<text text-anchor="middle" x="3605.5" y="-96.8" font-family="Times,serif" font-size="14.00">log gamma1: &#45;0.416462 &#160;&#160;log gamma2: &#45;0.393887</text>
<text text-anchor="middle" x="3605.5" y="-81.8" font-family="Times,serif" font-size="14.00">n kernels: 6</text>
</g>
<!-- 7&#45;&gt;25 -->
<g id="edge25" class="edge"><title>7&#45;&gt;25</title>
<path fill="none" stroke="black" d="M3605.5,-162.868C3605.5,-154.886 3605.5,-145.932 3605.5,-137.384"/>
<polygon fill="black" stroke="black" points="3609,-137.25 3605.5,-127.25 3602,-137.25 3609,-137.25"/>
</g>
<!-- 26 -->
<g id="node27" class="node"><title>26</title>
<path fill="#abb9ce" stroke="black" d="M3983.5,-119.5C3983.5,-119.5 3781.5,-119.5 3781.5,-119.5 3775.5,-119.5 3769.5,-113.5 3769.5,-107.5 3769.5,-107.5 3769.5,-93.5 3769.5,-93.5 3769.5,-87.5 3775.5,-81.5 3781.5,-81.5 3781.5,-81.5 3983.5,-81.5 3983.5,-81.5 3989.5,-81.5 3995.5,-87.5 3995.5,-93.5 3995.5,-93.5 3995.5,-107.5 3995.5,-107.5 3995.5,-113.5 3989.5,-119.5 3983.5,-119.5"/>
<text text-anchor="middle" x="3882.5" y="-104.3" font-family="Times,serif" font-size="14.00">comp 2</text>
<text text-anchor="middle" x="3882.5" y="-89.3" font-family="Times,serif" font-size="14.00">log gamma1: 0.030137 &#160;&#160;n kernels: 10</text>
</g>
<!-- 7&#45;&gt;26 -->
<g id="edge26" class="edge"><title>7&#45;&gt;26</title>
<path fill="none" stroke="black" d="M3686.74,-162.985C3727.65,-150.135 3776.65,-134.744 3815.4,-122.576"/>
<polygon fill="black" stroke="black" points="3816.52,-125.891 3825.01,-119.555 3814.43,-119.212 3816.52,-125.891"/>
</g>
<!-- 27 -->
<g id="node28" class="node"><title>27</title>
<path fill="#97a3b6" stroke="black" d="M4059.5,-118.5C4059.5,-118.5 4025.5,-118.5 4025.5,-118.5 4019.5,-118.5 4013.5,-112.5 4013.5,-106.5 4013.5,-106.5 4013.5,-94.5 4013.5,-94.5 4013.5,-88.5 4019.5,-82.5 4025.5,-82.5 4025.5,-82.5 4059.5,-82.5 4059.5,-82.5 4065.5,-82.5 4071.5,-88.5 4071.5,-94.5 4071.5,-94.5 4071.5,-106.5 4071.5,-106.5 4071.5,-112.5 4065.5,-118.5 4059.5,-118.5"/>
<text text-anchor="middle" x="4042.5" y="-96.8" font-family="Times,serif" font-size="14.00">identity</text>
</g>
<!-- 7&#45;&gt;27 -->
<g id="edge27" class="edge"><title>7&#45;&gt;27</title>
<path fill="none" stroke="black" d="M3749.3,-181.55C3827,-174.067 3923.37,-158.652 4004.5,-127 4006.9,-126.065 4009.29,-124.959 4011.66,-123.74"/>
<polygon fill="black" stroke="black" points="4013.61,-126.652 4020.49,-118.6 4010.09,-120.6 4013.61,-126.652"/>
</g>
<!-- 28 -->
<g id="node29" class="node"><title>28</title>
<path fill="#f6d3ff" stroke="black" d="M60,-38C60,-38 25,-38 25,-38 19,-38 13,-32 13,-26 13,-26 13,-12 13,-12 13,-6 19,-0 25,-0 25,-0 60,-0 60,-0 66,-0 72,-6 72,-12 72,-12 72,-26 72,-26 72,-32 66,-38 60,-38"/>
<text text-anchor="middle" x="42.5" y="-22.8" font-family="Times,serif" font-size="14.00">forward</text>
<text text-anchor="middle" x="42.5" y="-7.8" font-family="Times,serif" font-size="14.00">input</text>
</g>
<!-- 8&#45;&gt;28 -->
<g id="edge28" class="edge"><title>8&#45;&gt;28</title>
<path fill="none" stroke="black" d="M42.5,-81.4602C42.5,-71.67 42.5,-59.3453 42.5,-48.3073"/>
<polygon fill="black" stroke="black" points="46.0001,-48.2435 42.5,-38.2436 39.0001,-48.2436 46.0001,-48.2435"/>
</g>
<!-- 29 -->
<g id="node30" class="node"><title>29</title>
<path fill="#f6d3ff" stroke="black" d="M262.5,-38C262.5,-38 226.5,-38 226.5,-38 220.5,-38 214.5,-32 214.5,-26 214.5,-26 214.5,-12 214.5,-12 214.5,-6 220.5,-0 226.5,-0 226.5,-0 262.5,-0 262.5,-0 268.5,-0 274.5,-6 274.5,-12 274.5,-12 274.5,-26 274.5,-26 274.5,-32 268.5,-38 262.5,-38"/>
<text text-anchor="middle" x="244.5" y="-22.8" font-family="Times,serif" font-size="14.00">forward</text>
<text text-anchor="middle" x="244.5" y="-7.8" font-family="Times,serif" font-size="14.00">EB0/C0</text>
</g>
<!-- 9&#45;&gt;29 -->
<g id="edge29" class="edge"><title>9&#45;&gt;29</title>
<path fill="none" stroke="black" d="M244.5,-73.9081C244.5,-65.7377 244.5,-56.6492 244.5,-48.2981"/>
<polygon fill="black" stroke="black" points="248,-48.2389 244.5,-38.2389 241,-48.2389 248,-48.2389"/>
</g>
<!-- 30 -->
<g id="node31" class="node"><title>30</title>
<path fill="#f6d3ff" stroke="black" d="M565.5,-38C565.5,-38 529.5,-38 529.5,-38 523.5,-38 517.5,-32 517.5,-26 517.5,-26 517.5,-12 517.5,-12 517.5,-6 523.5,-0 529.5,-0 529.5,-0 565.5,-0 565.5,-0 571.5,-0 577.5,-6 577.5,-12 577.5,-12 577.5,-26 577.5,-26 577.5,-32 571.5,-38 565.5,-38"/>
<text text-anchor="middle" x="547.5" y="-22.8" font-family="Times,serif" font-size="14.00">forward</text>
<text text-anchor="middle" x="547.5" y="-7.8" font-family="Times,serif" font-size="14.00">EB0/C1</text>
</g>
<!-- 10&#45;&gt;30 -->
<g id="edge30" class="edge"><title>10&#45;&gt;30</title>
<path fill="none" stroke="black" d="M547.5,-73.9081C547.5,-65.7377 547.5,-56.6492 547.5,-48.2981"/>
<polygon fill="black" stroke="black" points="551,-48.2389 547.5,-38.2389 544,-48.2389 551,-48.2389"/>
</g>
<!-- 31 -->
<g id="node32" class="node"><title>31</title>
<path fill="#f6d3ff" stroke="black" d="M717.5,-38C717.5,-38 681.5,-38 681.5,-38 675.5,-38 669.5,-32 669.5,-26 669.5,-26 669.5,-12 669.5,-12 669.5,-6 675.5,-0 681.5,-0 681.5,-0 717.5,-0 717.5,-0 723.5,-0 729.5,-6 729.5,-12 729.5,-12 729.5,-26 729.5,-26 729.5,-32 723.5,-38 717.5,-38"/>
<text text-anchor="middle" x="699.5" y="-22.8" font-family="Times,serif" font-size="14.00">residual</text>
<text text-anchor="middle" x="699.5" y="-7.8" font-family="Times,serif" font-size="14.00">EB0/C0</text>
</g>
<!-- 11&#45;&gt;31 -->
<g id="edge31" class="edge"><title>11&#45;&gt;31</title>
<path fill="none" stroke="black" d="M730.038,-82.2497C725.032,-72.0459 718.579,-58.8928 712.896,-47.3078"/>
<polygon fill="black" stroke="black" points="715.899,-45.4808 708.352,-38.0444 709.614,-48.5639 715.899,-45.4808"/>
</g>
<!-- 32 -->
<g id="node33" class="node"><title>32</title>
<path fill="#debfe6" stroke="black" d="M795.5,-38C795.5,-38 759.5,-38 759.5,-38 753.5,-38 747.5,-32 747.5,-26 747.5,-26 747.5,-12 747.5,-12 747.5,-6 753.5,-0 759.5,-0 759.5,-0 795.5,-0 795.5,-0 801.5,-0 807.5,-6 807.5,-12 807.5,-12 807.5,-26 807.5,-26 807.5,-32 801.5,-38 795.5,-38"/>
<text text-anchor="middle" x="777.5" y="-22.8" font-family="Times,serif" font-size="14.00">forward</text>
<text text-anchor="middle" x="777.5" y="-7.8" font-family="Times,serif" font-size="14.00">EB0/C2</text>
</g>
<!-- 11&#45;&gt;32 -->
<g id="edge32" class="edge"><title>11&#45;&gt;32</title>
<path fill="none" stroke="black" d="M746.962,-82.2497C751.968,-72.0459 758.421,-58.8928 764.104,-47.3078"/>
<polygon fill="black" stroke="black" points="767.386,-48.5639 768.648,-38.0444 761.101,-45.4808 767.386,-48.5639"/>
</g>
<!-- 33 -->
<g id="node34" class="node"><title>33</title>
<path fill="#f6d3ff" stroke="black" d="M949,-38C949,-38 914,-38 914,-38 908,-38 902,-32 902,-26 902,-26 902,-12 902,-12 902,-6 908,-0 914,-0 914,-0 949,-0 949,-0 955,-0 961,-6 961,-12 961,-12 961,-26 961,-26 961,-32 955,-38 949,-38"/>
<text text-anchor="middle" x="931.5" y="-22.8" font-family="Times,serif" font-size="14.00">forward</text>
<text text-anchor="middle" x="931.5" y="-7.8" font-family="Times,serif" font-size="14.00">EB0/I</text>
</g>
<!-- 12&#45;&gt;33 -->
<g id="edge33" class="edge"><title>12&#45;&gt;33</title>
<path fill="none" stroke="black" d="M931.5,-73.9081C931.5,-65.7377 931.5,-56.6492 931.5,-48.2981"/>
<polygon fill="black" stroke="black" points="935,-48.2389 931.5,-38.2389 928,-48.2389 935,-48.2389"/>
</g>
<!-- 34 -->
<g id="node35" class="node"><title>34</title>
<path fill="#f6d3ff" stroke="black" d="M1156.5,-38C1156.5,-38 1120.5,-38 1120.5,-38 1114.5,-38 1108.5,-32 1108.5,-26 1108.5,-26 1108.5,-12 1108.5,-12 1108.5,-6 1114.5,-0 1120.5,-0 1120.5,-0 1156.5,-0 1156.5,-0 1162.5,-0 1168.5,-6 1168.5,-12 1168.5,-12 1168.5,-26 1168.5,-26 1168.5,-32 1162.5,-38 1156.5,-38"/>
<text text-anchor="middle" x="1138.5" y="-22.8" font-family="Times,serif" font-size="14.00">forward</text>
<text text-anchor="middle" x="1138.5" y="-7.8" font-family="Times,serif" font-size="14.00">EB1/C0</text>
</g>
<!-- 13&#45;&gt;34 -->
<g id="edge34" class="edge"><title>13&#45;&gt;34</title>
<path fill="none" stroke="black" d="M1138.5,-81.4602C1138.5,-71.67 1138.5,-59.3453 1138.5,-48.3073"/>
<polygon fill="black" stroke="black" points="1142,-48.2435 1138.5,-38.2436 1135,-48.2436 1142,-48.2435"/>
</g>
<!-- 35 -->
<g id="node36" class="node"><title>35</title>
<path fill="#f6d3ff" stroke="black" d="M1363.5,-38C1363.5,-38 1327.5,-38 1327.5,-38 1321.5,-38 1315.5,-32 1315.5,-26 1315.5,-26 1315.5,-12 1315.5,-12 1315.5,-6 1321.5,-0 1327.5,-0 1327.5,-0 1363.5,-0 1363.5,-0 1369.5,-0 1375.5,-6 1375.5,-12 1375.5,-12 1375.5,-26 1375.5,-26 1375.5,-32 1369.5,-38 1363.5,-38"/>
<text text-anchor="middle" x="1345.5" y="-22.8" font-family="Times,serif" font-size="14.00">forward</text>
<text text-anchor="middle" x="1345.5" y="-7.8" font-family="Times,serif" font-size="14.00">EB1/C1</text>
</g>
<!-- 14&#45;&gt;35 -->
<g id="edge35" class="edge"><title>14&#45;&gt;35</title>
<path fill="none" stroke="black" d="M1345.5,-73.9081C1345.5,-65.7377 1345.5,-56.6492 1345.5,-48.2981"/>
<polygon fill="black" stroke="black" points="1349,-48.2389 1345.5,-38.2389 1342,-48.2389 1349,-48.2389"/>
</g>
<!-- 36 -->
<g id="node37" class="node"><title>36</title>
<path fill="#f6d3ff" stroke="black" d="M1517.5,-38C1517.5,-38 1481.5,-38 1481.5,-38 1475.5,-38 1469.5,-32 1469.5,-26 1469.5,-26 1469.5,-12 1469.5,-12 1469.5,-6 1475.5,-0 1481.5,-0 1481.5,-0 1517.5,-0 1517.5,-0 1523.5,-0 1529.5,-6 1529.5,-12 1529.5,-12 1529.5,-26 1529.5,-26 1529.5,-32 1523.5,-38 1517.5,-38"/>
<text text-anchor="middle" x="1499.5" y="-22.8" font-family="Times,serif" font-size="14.00">residual</text>
<text text-anchor="middle" x="1499.5" y="-7.8" font-family="Times,serif" font-size="14.00">EB1/C0</text>
</g>
<!-- 15&#45;&gt;36 -->
<g id="edge36" class="edge"><title>15&#45;&gt;36</title>
<path fill="none" stroke="black" d="M1530.04,-82.2497C1525.03,-72.0459 1518.58,-58.8928 1512.9,-47.3078"/>
<polygon fill="black" stroke="black" points="1515.9,-45.4808 1508.35,-38.0444 1509.61,-48.5639 1515.9,-45.4808"/>
</g>
<!-- 37 -->
<g id="node38" class="node"><title>37</title>
<path fill="#debfe6" stroke="black" d="M1595.5,-38C1595.5,-38 1559.5,-38 1559.5,-38 1553.5,-38 1547.5,-32 1547.5,-26 1547.5,-26 1547.5,-12 1547.5,-12 1547.5,-6 1553.5,-0 1559.5,-0 1559.5,-0 1595.5,-0 1595.5,-0 1601.5,-0 1607.5,-6 1607.5,-12 1607.5,-12 1607.5,-26 1607.5,-26 1607.5,-32 1601.5,-38 1595.5,-38"/>
<text text-anchor="middle" x="1577.5" y="-22.8" font-family="Times,serif" font-size="14.00">forward</text>
<text text-anchor="middle" x="1577.5" y="-7.8" font-family="Times,serif" font-size="14.00">EB1/C2</text>
</g>
<!-- 15&#45;&gt;37 -->
<g id="edge37" class="edge"><title>15&#45;&gt;37</title>
<path fill="none" stroke="black" d="M1546.96,-82.2497C1551.97,-72.0459 1558.42,-58.8928 1564.1,-47.3078"/>
<polygon fill="black" stroke="black" points="1567.39,-48.5639 1568.65,-38.0444 1561.1,-45.4808 1567.39,-48.5639"/>
</g>
<!-- 38 -->
<g id="node39" class="node"><title>38</title>
<path fill="#f6d3ff" stroke="black" d="M1745,-38C1745,-38 1710,-38 1710,-38 1704,-38 1698,-32 1698,-26 1698,-26 1698,-12 1698,-12 1698,-6 1704,-0 1710,-0 1710,-0 1745,-0 1745,-0 1751,-0 1757,-6 1757,-12 1757,-12 1757,-26 1757,-26 1757,-32 1751,-38 1745,-38"/>
<text text-anchor="middle" x="1727.5" y="-22.8" font-family="Times,serif" font-size="14.00">forward</text>
<text text-anchor="middle" x="1727.5" y="-7.8" font-family="Times,serif" font-size="14.00">EB1/I</text>
</g>
<!-- 16&#45;&gt;38 -->
<g id="edge38" class="edge"><title>16&#45;&gt;38</title>
<path fill="none" stroke="black" d="M1727.5,-73.9081C1727.5,-65.7377 1727.5,-56.6492 1727.5,-48.2981"/>
<polygon fill="black" stroke="black" points="1731,-48.2389 1727.5,-38.2389 1724,-48.2389 1731,-48.2389"/>
</g>
<!-- 39 -->
<g id="node40" class="node"><title>39</title>
<path fill="#f6d3ff" stroke="black" d="M2018.5,-38C2018.5,-38 1980.5,-38 1980.5,-38 1974.5,-38 1968.5,-32 1968.5,-26 1968.5,-26 1968.5,-12 1968.5,-12 1968.5,-6 1974.5,-0 1980.5,-0 1980.5,-0 2018.5,-0 2018.5,-0 2024.5,-0 2030.5,-6 2030.5,-12 2030.5,-12 2030.5,-26 2030.5,-26 2030.5,-32 2024.5,-38 2018.5,-38"/>
<text text-anchor="middle" x="1999.5" y="-22.8" font-family="Times,serif" font-size="14.00">forward</text>
<text text-anchor="middle" x="1999.5" y="-7.8" font-family="Times,serif" font-size="14.00">DB2/C0</text>
</g>
<!-- 17&#45;&gt;39 -->
<g id="edge39" class="edge"><title>17&#45;&gt;39</title>
<path fill="none" stroke="black" d="M1999.5,-73.9081C1999.5,-65.7377 1999.5,-56.6492 1999.5,-48.2981"/>
<polygon fill="black" stroke="black" points="2003,-48.2389 1999.5,-38.2389 1996,-48.2389 2003,-48.2389"/>
</g>
<!-- 40 -->
<g id="node41" class="node"><title>40</title>
<path fill="#f6d3ff" stroke="black" d="M2222.5,-38C2222.5,-38 2184.5,-38 2184.5,-38 2178.5,-38 2172.5,-32 2172.5,-26 2172.5,-26 2172.5,-12 2172.5,-12 2172.5,-6 2178.5,-0 2184.5,-0 2184.5,-0 2222.5,-0 2222.5,-0 2228.5,-0 2234.5,-6 2234.5,-12 2234.5,-12 2234.5,-26 2234.5,-26 2234.5,-32 2228.5,-38 2222.5,-38"/>
<text text-anchor="middle" x="2203.5" y="-22.8" font-family="Times,serif" font-size="14.00">forward</text>
<text text-anchor="middle" x="2203.5" y="-7.8" font-family="Times,serif" font-size="14.00">DB2/C1</text>
</g>
<!-- 18&#45;&gt;40 -->
<g id="edge40" class="edge"><title>18&#45;&gt;40</title>
<path fill="none" stroke="black" d="M2203.5,-81.4602C2203.5,-71.67 2203.5,-59.3453 2203.5,-48.3073"/>
<polygon fill="black" stroke="black" points="2207,-48.2435 2203.5,-38.2436 2200,-48.2436 2207,-48.2435"/>
</g>
<!-- 41 -->
<g id="node42" class="node"><title>41</title>
<path fill="#f6d3ff" stroke="black" d="M2320.5,-38C2320.5,-38 2282.5,-38 2282.5,-38 2276.5,-38 2270.5,-32 2270.5,-26 2270.5,-26 2270.5,-12 2270.5,-12 2270.5,-6 2276.5,-0 2282.5,-0 2282.5,-0 2320.5,-0 2320.5,-0 2326.5,-0 2332.5,-6 2332.5,-12 2332.5,-12 2332.5,-26 2332.5,-26 2332.5,-32 2326.5,-38 2320.5,-38"/>
<text text-anchor="middle" x="2301.5" y="-22.8" font-family="Times,serif" font-size="14.00">residual</text>
<text text-anchor="middle" x="2301.5" y="-7.8" font-family="Times,serif" font-size="14.00">DB2/C0</text>
</g>
<!-- 19&#45;&gt;41 -->
<g id="edge41" class="edge"><title>19&#45;&gt;41</title>
<path fill="none" stroke="black" d="M2319.51,-82.2497C2316.59,-72.148 2312.83,-59.1556 2309.5,-47.6559"/>
<polygon fill="black" stroke="black" points="2312.86,-46.6778 2306.72,-38.0444 2306.14,-48.6232 2312.86,-46.6778"/>
</g>
<!-- 42 -->
<g id="node43" class="node"><title>42</title>
<path fill="#debfe6" stroke="black" d="M2400.5,-38C2400.5,-38 2362.5,-38 2362.5,-38 2356.5,-38 2350.5,-32 2350.5,-26 2350.5,-26 2350.5,-12 2350.5,-12 2350.5,-6 2356.5,-0 2362.5,-0 2362.5,-0 2400.5,-0 2400.5,-0 2406.5,-0 2412.5,-6 2412.5,-12 2412.5,-12 2412.5,-26 2412.5,-26 2412.5,-32 2406.5,-38 2400.5,-38"/>
<text text-anchor="middle" x="2381.5" y="-22.8" font-family="Times,serif" font-size="14.00">forward</text>
<text text-anchor="middle" x="2381.5" y="-7.8" font-family="Times,serif" font-size="14.00">DB2/C2</text>
</g>
<!-- 19&#45;&gt;42 -->
<g id="edge42" class="edge"><title>19&#45;&gt;42</title>
<path fill="none" stroke="black" d="M2336.87,-82.2497C2344.4,-71.7398 2354.18,-58.101 2362.67,-46.2695"/>
<polygon fill="black" stroke="black" points="2365.58,-48.2108 2368.56,-38.0444 2359.89,-44.132 2365.58,-48.2108"/>
</g>
<!-- 43 -->
<g id="node44" class="node"><title>43</title>
<path fill="#f6d3ff" stroke="black" d="M2514,-38C2514,-38 2479,-38 2479,-38 2473,-38 2467,-32 2467,-26 2467,-26 2467,-12 2467,-12 2467,-6 2473,-0 2479,-0 2479,-0 2514,-0 2514,-0 2520,-0 2526,-6 2526,-12 2526,-12 2526,-26 2526,-26 2526,-32 2520,-38 2514,-38"/>
<text text-anchor="middle" x="2496.5" y="-22.8" font-family="Times,serif" font-size="14.00">forward</text>
<text text-anchor="middle" x="2496.5" y="-7.8" font-family="Times,serif" font-size="14.00">DB2/I</text>
</g>
<!-- 20&#45;&gt;43 -->
<g id="edge43" class="edge"><title>20&#45;&gt;43</title>
<path fill="none" stroke="black" d="M2509.38,-73.9081C2507.41,-65.6469 2505.21,-56.4471 2503.2,-48.02"/>
<polygon fill="black" stroke="black" points="2506.59,-47.1514 2500.86,-38.2389 2499.78,-48.7786 2506.59,-47.1514"/>
</g>
<!-- 44 -->
<g id="node45" class="node"><title>44</title>
<path fill="#debfe6" stroke="black" d="M2586.5,-38C2586.5,-38 2556.5,-38 2556.5,-38 2550.5,-38 2544.5,-32 2544.5,-26 2544.5,-26 2544.5,-12 2544.5,-12 2544.5,-6 2550.5,-0 2556.5,-0 2556.5,-0 2586.5,-0 2586.5,-0 2592.5,-0 2598.5,-6 2598.5,-12 2598.5,-12 2598.5,-26 2598.5,-26 2598.5,-32 2592.5,-38 2586.5,-38"/>
<text text-anchor="middle" x="2571.5" y="-22.8" font-family="Times,serif" font-size="14.00">merge</text>
<text text-anchor="middle" x="2571.5" y="-7.8" font-family="Times,serif" font-size="14.00">EB1/I</text>
</g>
<!-- 20&#45;&gt;44 -->
<g id="edge44" class="edge"><title>20&#45;&gt;44</title>
<path fill="none" stroke="black" d="M2533.53,-73.9081C2539.67,-65.193 2546.54,-55.4333 2552.74,-46.6382"/>
<polygon fill="black" stroke="black" points="2555.76,-48.4299 2558.65,-38.2389 2550.03,-44.3987 2555.76,-48.4299"/>
</g>
<!-- 45 -->
<g id="node46" class="node"><title>45</title>
<path fill="#f6d3ff" stroke="black" d="M2808.5,-38C2808.5,-38 2770.5,-38 2770.5,-38 2764.5,-38 2758.5,-32 2758.5,-26 2758.5,-26 2758.5,-12 2758.5,-12 2758.5,-6 2764.5,-0 2770.5,-0 2770.5,-0 2808.5,-0 2808.5,-0 2814.5,-0 2820.5,-6 2820.5,-12 2820.5,-12 2820.5,-26 2820.5,-26 2820.5,-32 2814.5,-38 2808.5,-38"/>
<text text-anchor="middle" x="2789.5" y="-22.8" font-family="Times,serif" font-size="14.00">forward</text>
<text text-anchor="middle" x="2789.5" y="-7.8" font-family="Times,serif" font-size="14.00">DB1/C0</text>
</g>
<!-- 21&#45;&gt;45 -->
<g id="edge45" class="edge"><title>21&#45;&gt;45</title>
<path fill="none" stroke="black" d="M2789.5,-73.9081C2789.5,-65.7377 2789.5,-56.6492 2789.5,-48.2981"/>
<polygon fill="black" stroke="black" points="2793,-48.2389 2789.5,-38.2389 2786,-48.2389 2793,-48.2389"/>
</g>
<!-- 46 -->
<g id="node47" class="node"><title>46</title>
<path fill="#f6d3ff" stroke="black" d="M3080.5,-38C3080.5,-38 3042.5,-38 3042.5,-38 3036.5,-38 3030.5,-32 3030.5,-26 3030.5,-26 3030.5,-12 3030.5,-12 3030.5,-6 3036.5,-0 3042.5,-0 3042.5,-0 3080.5,-0 3080.5,-0 3086.5,-0 3092.5,-6 3092.5,-12 3092.5,-12 3092.5,-26 3092.5,-26 3092.5,-32 3086.5,-38 3080.5,-38"/>
<text text-anchor="middle" x="3061.5" y="-22.8" font-family="Times,serif" font-size="14.00">forward</text>
<text text-anchor="middle" x="3061.5" y="-7.8" font-family="Times,serif" font-size="14.00">DB1/C1</text>
</g>
<!-- 22&#45;&gt;46 -->
<g id="edge46" class="edge"><title>22&#45;&gt;46</title>
<path fill="none" stroke="black" d="M3061.5,-73.9081C3061.5,-65.7377 3061.5,-56.6492 3061.5,-48.2981"/>
<polygon fill="black" stroke="black" points="3065,-48.2389 3061.5,-38.2389 3058,-48.2389 3065,-48.2389"/>
</g>
<!-- 47 -->
<g id="node48" class="node"><title>47</title>
<path fill="#f6d3ff" stroke="black" d="M3199.5,-38C3199.5,-38 3161.5,-38 3161.5,-38 3155.5,-38 3149.5,-32 3149.5,-26 3149.5,-26 3149.5,-12 3149.5,-12 3149.5,-6 3155.5,-0 3161.5,-0 3161.5,-0 3199.5,-0 3199.5,-0 3205.5,-0 3211.5,-6 3211.5,-12 3211.5,-12 3211.5,-26 3211.5,-26 3211.5,-32 3205.5,-38 3199.5,-38"/>
<text text-anchor="middle" x="3180.5" y="-22.8" font-family="Times,serif" font-size="14.00">residual</text>
<text text-anchor="middle" x="3180.5" y="-7.8" font-family="Times,serif" font-size="14.00">DB1/C0</text>
</g>
<!-- 23&#45;&gt;47 -->
<g id="edge47" class="edge"><title>23&#45;&gt;47</title>
<path fill="none" stroke="black" d="M3235.31,-82.2497C3225.88,-71.5357 3213.58,-57.5701 3203.03,-45.5824"/>
<polygon fill="black" stroke="black" points="3205.62,-43.2368 3196.39,-38.0444 3200.37,-47.8627 3205.62,-43.2368"/>
</g>
<!-- 48 -->
<g id="node49" class="node"><title>48</title>
<path fill="#debfe6" stroke="black" d="M3279.5,-38C3279.5,-38 3241.5,-38 3241.5,-38 3235.5,-38 3229.5,-32 3229.5,-26 3229.5,-26 3229.5,-12 3229.5,-12 3229.5,-6 3235.5,-0 3241.5,-0 3241.5,-0 3279.5,-0 3279.5,-0 3285.5,-0 3291.5,-6 3291.5,-12 3291.5,-12 3291.5,-26 3291.5,-26 3291.5,-32 3285.5,-38 3279.5,-38"/>
<text text-anchor="middle" x="3260.5" y="-22.8" font-family="Times,serif" font-size="14.00">forward</text>
<text text-anchor="middle" x="3260.5" y="-7.8" font-family="Times,serif" font-size="14.00">DB1/C2</text>
</g>
<!-- 23&#45;&gt;48 -->
<g id="edge48" class="edge"><title>23&#45;&gt;48</title>
<path fill="none" stroke="black" d="M3252.67,-82.2497C3253.93,-72.25 3255.54,-59.4178 3256.98,-48.0048"/>
<polygon fill="black" stroke="black" points="3260.45,-48.4031 3258.23,-38.0444 3253.51,-47.5294 3260.45,-48.4031"/>
</g>
<!-- 49 -->
<g id="node50" class="node"><title>49</title>
<path fill="#f6d3ff" stroke="black" d="M3377,-38C3377,-38 3342,-38 3342,-38 3336,-38 3330,-32 3330,-26 3330,-26 3330,-12 3330,-12 3330,-6 3336,-0 3342,-0 3342,-0 3377,-0 3377,-0 3383,-0 3389,-6 3389,-12 3389,-12 3389,-26 3389,-26 3389,-32 3383,-38 3377,-38"/>
<text text-anchor="middle" x="3359.5" y="-22.8" font-family="Times,serif" font-size="14.00">forward</text>
<text text-anchor="middle" x="3359.5" y="-7.8" font-family="Times,serif" font-size="14.00">DB1/I</text>
</g>
<!-- 24&#45;&gt;49 -->
<g id="edge49" class="edge"><title>24&#45;&gt;49</title>
<path fill="none" stroke="black" d="M3367.23,-81.4602C3366,-71.67 3364.45,-59.3453 3363.06,-48.3073"/>
<polygon fill="black" stroke="black" points="3366.52,-47.7286 3361.79,-38.2436 3359.57,-48.6022 3366.52,-47.7286"/>
</g>
<!-- 50 -->
<g id="node51" class="node"><title>50</title>
<path fill="#debfe6" stroke="black" d="M3449.5,-38C3449.5,-38 3419.5,-38 3419.5,-38 3413.5,-38 3407.5,-32 3407.5,-26 3407.5,-26 3407.5,-12 3407.5,-12 3407.5,-6 3413.5,-0 3419.5,-0 3419.5,-0 3449.5,-0 3449.5,-0 3455.5,-0 3461.5,-6 3461.5,-12 3461.5,-12 3461.5,-26 3461.5,-26 3461.5,-32 3455.5,-38 3449.5,-38"/>
<text text-anchor="middle" x="3434.5" y="-22.8" font-family="Times,serif" font-size="14.00">merge</text>
<text text-anchor="middle" x="3434.5" y="-7.8" font-family="Times,serif" font-size="14.00">EB0/I</text>
</g>
<!-- 24&#45;&gt;50 -->
<g id="edge50" class="edge"><title>24&#45;&gt;50</title>
<path fill="none" stroke="black" d="M3384.25,-81.4602C3392.75,-71.0644 3403.59,-57.8108 3413.02,-46.2747"/>
<polygon fill="black" stroke="black" points="3415.96,-48.2008 3419.58,-38.2436 3410.54,-43.7699 3415.96,-48.2008"/>
</g>
<!-- 51 -->
<g id="node52" class="node"><title>51</title>
<path fill="#f6d3ff" stroke="black" d="M3624.5,-38C3624.5,-38 3586.5,-38 3586.5,-38 3580.5,-38 3574.5,-32 3574.5,-26 3574.5,-26 3574.5,-12 3574.5,-12 3574.5,-6 3580.5,-0 3586.5,-0 3586.5,-0 3624.5,-0 3624.5,-0 3630.5,-0 3636.5,-6 3636.5,-12 3636.5,-12 3636.5,-26 3636.5,-26 3636.5,-32 3630.5,-38 3624.5,-38"/>
<text text-anchor="middle" x="3605.5" y="-22.8" font-family="Times,serif" font-size="14.00">forward</text>
<text text-anchor="middle" x="3605.5" y="-7.8" font-family="Times,serif" font-size="14.00">DB0/C0</text>
</g>
<!-- 25&#45;&gt;51 -->
<g id="edge51" class="edge"><title>25&#45;&gt;51</title>
<path fill="none" stroke="black" d="M3605.5,-73.9081C3605.5,-65.7377 3605.5,-56.6492 3605.5,-48.2981"/>
<polygon fill="black" stroke="black" points="3609,-48.2389 3605.5,-38.2389 3602,-48.2389 3609,-48.2389"/>
</g>
<!-- 52 -->
<g id="node53" class="node"><title>52</title>
<path fill="#f6d3ff" stroke="black" d="M3901.5,-38C3901.5,-38 3863.5,-38 3863.5,-38 3857.5,-38 3851.5,-32 3851.5,-26 3851.5,-26 3851.5,-12 3851.5,-12 3851.5,-6 3857.5,-0 3863.5,-0 3863.5,-0 3901.5,-0 3901.5,-0 3907.5,-0 3913.5,-6 3913.5,-12 3913.5,-12 3913.5,-26 3913.5,-26 3913.5,-32 3907.5,-38 3901.5,-38"/>
<text text-anchor="middle" x="3882.5" y="-22.8" font-family="Times,serif" font-size="14.00">forward</text>
<text text-anchor="middle" x="3882.5" y="-7.8" font-family="Times,serif" font-size="14.00">DB0/C1</text>
</g>
<!-- 26&#45;&gt;52 -->
<g id="edge52" class="edge"><title>26&#45;&gt;52</title>
<path fill="none" stroke="black" d="M3882.5,-81.4602C3882.5,-71.67 3882.5,-59.3453 3882.5,-48.3073"/>
<polygon fill="black" stroke="black" points="3886,-48.2435 3882.5,-38.2436 3879,-48.2436 3886,-48.2435"/>
</g>
<!-- 53 -->
<g id="node54" class="node"><title>53</title>
<path fill="#f6d3ff" stroke="black" d="M4021.5,-38C4021.5,-38 3983.5,-38 3983.5,-38 3977.5,-38 3971.5,-32 3971.5,-26 3971.5,-26 3971.5,-12 3971.5,-12 3971.5,-6 3977.5,-0 3983.5,-0 3983.5,-0 4021.5,-0 4021.5,-0 4027.5,-0 4033.5,-6 4033.5,-12 4033.5,-12 4033.5,-26 4033.5,-26 4033.5,-32 4027.5,-38 4021.5,-38"/>
<text text-anchor="middle" x="4002.5" y="-22.8" font-family="Times,serif" font-size="14.00">residual</text>
<text text-anchor="middle" x="4002.5" y="-7.8" font-family="Times,serif" font-size="14.00">DB0/C0</text>
</g>
<!-- 27&#45;&gt;53 -->
<g id="edge53" class="edge"><title>27&#45;&gt;53</title>
<path fill="none" stroke="black" d="M4033.82,-82.2497C4028.69,-72.0459 4022.07,-58.8928 4016.24,-47.3078"/>
<polygon fill="black" stroke="black" points="4019.2,-45.4043 4011.58,-38.0444 4012.95,-48.5506 4019.2,-45.4043"/>
</g>
<!-- 54 -->
<g id="node55" class="node"><title>54</title>
<path fill="#debfe6" stroke="black" d="M4101.5,-38C4101.5,-38 4063.5,-38 4063.5,-38 4057.5,-38 4051.5,-32 4051.5,-26 4051.5,-26 4051.5,-12 4051.5,-12 4051.5,-6 4057.5,-0 4063.5,-0 4063.5,-0 4101.5,-0 4101.5,-0 4107.5,-0 4113.5,-6 4113.5,-12 4113.5,-12 4113.5,-26 4113.5,-26 4113.5,-32 4107.5,-38 4101.5,-38"/>
<text text-anchor="middle" x="4082.5" y="-22.8" font-family="Times,serif" font-size="14.00">forward</text>
<text text-anchor="middle" x="4082.5" y="-7.8" font-family="Times,serif" font-size="14.00">DB0/C2</text>
</g>
<!-- 27&#45;&gt;54 -->
<g id="edge54" class="edge"><title>27&#45;&gt;54</title>
<path fill="none" stroke="black" d="M4051.18,-82.2497C4056.31,-72.0459 4062.93,-58.8928 4068.76,-47.3078"/>
<polygon fill="black" stroke="black" points="4072.05,-48.5506 4073.42,-38.0444 4065.8,-45.4043 4072.05,-48.5506"/>
</g>
</g>
</svg>
