<?xml version="1.0" encoding="UTF-8" standalone="no"?>
<!DOCTYPE svg PUBLIC "-//W3C//DTD SVG 1.1//EN"
 "http://www.w3.org/Graphics/SVG/1.1/DTD/svg11.dtd">
<!-- Generated by graphviz version 2.38.0 (20140413.2041)
 -->
<!-- Title: %3 Pages: 1 -->
<svg width="2255pt" height="418pt"
 viewBox="0.00 0.00 2255.00 418.00" xmlns="http://www.w3.org/2000/svg" xmlns:xlink="http://www.w3.org/1999/xlink">
<g id="graph0" class="graph" transform="scale(1 1) rotate(0) translate(4 414)">
<title>%3</title>
<polygon fill="none" stroke="none" points="-4,4 -4,-414 2251,-414 2251,4 -4,4"/>
<!-- 0 -->
<g id="node1" class="node"><title>0</title>
<path fill="#ffd3d3" stroke="black" d="M1031,-410C1031,-410 840,-410 840,-410 834,-410 828,-404 828,-398 828,-398 828,-369 828,-369 828,-363 834,-357 840,-357 840,-357 1031,-357 1031,-357 1037,-357 1043,-363 1043,-369 1043,-369 1043,-398 1043,-398 1043,-404 1037,-410 1031,-410"/>
<text text-anchor="middle" x="935.5" y="-394.8" font-family="Times,serif" font-size="14.00">net</text>
<text text-anchor="middle" x="935.5" y="-379.8" font-family="Times,serif" font-size="14.00">k width: 3 &#160;&#160;log gamma2: &#45;5.468522</text>
<text text-anchor="middle" x="935.5" y="-364.8" font-family="Times,serif" font-size="14.00">n kernels: 122</text>
</g>
<!-- 1 -->
<g id="node2" class="node"><title>1</title>
<path fill="#e9ffd3" stroke="black" d="M525,-313.5C525,-313.5 400,-313.5 400,-313.5 394,-313.5 388,-307.5 388,-301.5 388,-301.5 388,-287.5 388,-287.5 388,-281.5 394,-275.5 400,-275.5 400,-275.5 525,-275.5 525,-275.5 531,-275.5 537,-281.5 537,-287.5 537,-287.5 537,-301.5 537,-301.5 537,-307.5 531,-313.5 525,-313.5"/>
<text text-anchor="middle" x="462.5" y="-298.3" font-family="Times,serif" font-size="14.00">conv block 0</text>
<text text-anchor="middle" x="462.5" y="-283.3" font-family="Times,serif" font-size="14.00">log gamma2: &#45;1.123176</text>
</g>
<!-- 0&#45;&gt;1 -->
<g id="edge1" class="edge"><title>0&#45;&gt;1</title>
<path fill="none" stroke="black" d="M827.873,-362.704C742.777,-347.052 625.635,-325.506 547.151,-311.07"/>
<polygon fill="black" stroke="black" points="547.766,-307.625 537.298,-309.258 546.5,-314.509 547.766,-307.625"/>
</g>
<!-- 2 -->
<g id="node3" class="node"><title>2</title>
<path fill="#e9ffd3" stroke="black" d="M901.5,-321C901.5,-321 695.5,-321 695.5,-321 689.5,-321 683.5,-315 683.5,-309 683.5,-309 683.5,-280 683.5,-280 683.5,-274 689.5,-268 695.5,-268 695.5,-268 901.5,-268 901.5,-268 907.5,-268 913.5,-274 913.5,-280 913.5,-280 913.5,-309 913.5,-309 913.5,-315 907.5,-321 901.5,-321"/>
<text text-anchor="middle" x="798.5" y="-305.8" font-family="Times,serif" font-size="14.00">conv block 1</text>
<text text-anchor="middle" x="798.5" y="-290.8" font-family="Times,serif" font-size="14.00">log gamma2: 1.758437 &#160;&#160;n kernels: &#45;18</text>
<text text-anchor="middle" x="798.5" y="-275.8" font-family="Times,serif" font-size="14.00">pool z: 1 &#160;&#160;spatial scale: 1</text>
</g>
<!-- 0&#45;&gt;2 -->
<g id="edge2" class="edge"><title>0&#45;&gt;2</title>
<path fill="none" stroke="black" d="M895.136,-356.868C880.219,-347.394 863.147,-336.553 847.543,-326.644"/>
<polygon fill="black" stroke="black" points="849.366,-323.656 839.048,-321.25 845.614,-329.565 849.366,-323.656"/>
</g>
<!-- 3 -->
<g id="node4" class="node"><title>3</title>
<path fill="#e9ffd3" stroke="black" d="M1152,-313.5C1152,-313.5 993,-313.5 993,-313.5 987,-313.5 981,-307.5 981,-301.5 981,-301.5 981,-287.5 981,-287.5 981,-281.5 987,-275.5 993,-275.5 993,-275.5 1152,-275.5 1152,-275.5 1158,-275.5 1164,-281.5 1164,-287.5 1164,-287.5 1164,-301.5 1164,-301.5 1164,-307.5 1158,-313.5 1152,-313.5"/>
<text text-anchor="middle" x="1072.5" y="-298.3" font-family="Times,serif" font-size="14.00">conv block 2</text>
<text text-anchor="middle" x="1072.5" y="-283.3" font-family="Times,serif" font-size="14.00">n kernels: &#45;15 &#160;&#160;spatial scale: 2</text>
</g>
<!-- 0&#45;&gt;3 -->
<g id="edge3" class="edge"><title>0&#45;&gt;3</title>
<path fill="none" stroke="black" d="M975.864,-356.868C994.806,-344.839 1017.22,-330.603 1035.69,-318.873"/>
<polygon fill="black" stroke="black" points="1037.58,-321.822 1044.14,-313.507 1033.83,-315.913 1037.58,-321.822"/>
</g>
<!-- 4 -->
<g id="node5" class="node"><title>4</title>
<path fill="#e9ffd3" stroke="black" d="M1643,-312.5C1643,-312.5 1576,-312.5 1576,-312.5 1570,-312.5 1564,-306.5 1564,-300.5 1564,-300.5 1564,-288.5 1564,-288.5 1564,-282.5 1570,-276.5 1576,-276.5 1576,-276.5 1643,-276.5 1643,-276.5 1649,-276.5 1655,-282.5 1655,-288.5 1655,-288.5 1655,-300.5 1655,-300.5 1655,-306.5 1649,-312.5 1643,-312.5"/>
<text text-anchor="middle" x="1609.5" y="-290.8" font-family="Times,serif" font-size="14.00">path combine</text>
</g>
<!-- 0&#45;&gt;4 -->
<g id="edge4" class="edge"><title>0&#45;&gt;4</title>
<path fill="none" stroke="black" d="M1043.04,-368.618C1188.29,-349.87 1441.82,-317.144 1553.72,-302.7"/>
<polygon fill="black" stroke="black" points="1554.31,-306.153 1563.78,-301.402 1553.41,-299.211 1554.31,-306.153"/>
</g>
<!-- 5 -->
<g id="node6" class="node"><title>5</title>
<path fill="#d3ffff" stroke="black" d="M398.5,-202C398.5,-202 278.5,-202 278.5,-202 272.5,-202 266.5,-196 266.5,-190 266.5,-190 266.5,-176 266.5,-176 266.5,-170 272.5,-164 278.5,-164 278.5,-164 398.5,-164 398.5,-164 404.5,-164 410.5,-170 410.5,-176 410.5,-176 410.5,-190 410.5,-190 410.5,-196 404.5,-202 398.5,-202"/>
<text text-anchor="middle" x="338.5" y="-186.8" font-family="Times,serif" font-size="14.00">comp 0</text>
<text text-anchor="middle" x="338.5" y="-171.8" font-family="Times,serif" font-size="14.00">log gamma2: 0.555219</text>
</g>
<!-- 1&#45;&gt;5 -->
<g id="edge5" class="edge"><title>1&#45;&gt;5</title>
<path fill="none" stroke="black" d="M442.024,-275.418C421.472,-257.27 389.654,-229.172 366.716,-208.917"/>
<polygon fill="black" stroke="black" points="368.819,-206.104 359.006,-202.109 364.186,-211.351 368.819,-206.104"/>
</g>
<!-- 6 -->
<g id="node7" class="node"><title>6</title>
<path fill="#d3ffff" stroke="black" d="M597,-202C597,-202 536,-202 536,-202 530,-202 524,-196 524,-190 524,-190 524,-176 524,-176 524,-170 530,-164 536,-164 536,-164 597,-164 597,-164 603,-164 609,-170 609,-176 609,-176 609,-190 609,-190 609,-196 603,-202 597,-202"/>
<text text-anchor="middle" x="566.5" y="-186.8" font-family="Times,serif" font-size="14.00">comp 0</text>
<text text-anchor="middle" x="566.5" y="-171.8" font-family="Times,serif" font-size="14.00">n kernels: &#45;6</text>
</g>
<!-- 2&#45;&gt;6 -->
<g id="edge6" class="edge"><title>2&#45;&gt;6</title>
<path fill="none" stroke="black" d="M744.399,-267.965C704.9,-249.322 651.86,-224.288 613.995,-206.417"/>
<polygon fill="black" stroke="black" points="615.25,-203.139 604.713,-202.036 612.262,-209.469 615.25,-203.139"/>
</g>
<!-- 7 -->
<g id="node8" class="node"><title>7</title>
<path fill="#bfe6e6" stroke="black" d="M865.5,-202C865.5,-202 731.5,-202 731.5,-202 725.5,-202 719.5,-196 719.5,-190 719.5,-190 719.5,-176 719.5,-176 719.5,-170 725.5,-164 731.5,-164 731.5,-164 865.5,-164 865.5,-164 871.5,-164 877.5,-170 877.5,-176 877.5,-176 877.5,-190 877.5,-190 877.5,-196 871.5,-202 865.5,-202"/>
<text text-anchor="middle" x="798.5" y="-186.8" font-family="Times,serif" font-size="14.00">path end 1</text>
<text text-anchor="middle" x="798.5" y="-171.8" font-family="Times,serif" font-size="14.00">k width: &#45;2 &#160;&#160;n kernels: 18</text>
</g>
<!-- 2&#45;&gt;7 -->
<g id="edge7" class="edge"><title>2&#45;&gt;7</title>
<path fill="none" stroke="black" d="M798.5,-267.827C798.5,-251.18 798.5,-229.482 798.5,-212.332"/>
<polygon fill="black" stroke="black" points="802,-212.327 798.5,-202.327 795,-212.327 802,-212.327"/>
</g>
<!-- 8 -->
<g id="node9" class="node"><title>8</title>
<path fill="#d3ffff" stroke="black" d="M1089.5,-201C1089.5,-201 1055.5,-201 1055.5,-201 1049.5,-201 1043.5,-195 1043.5,-189 1043.5,-189 1043.5,-177 1043.5,-177 1043.5,-171 1049.5,-165 1055.5,-165 1055.5,-165 1089.5,-165 1089.5,-165 1095.5,-165 1101.5,-171 1101.5,-177 1101.5,-177 1101.5,-189 1101.5,-189 1101.5,-195 1095.5,-201 1089.5,-201"/>
<text text-anchor="middle" x="1072.5" y="-179.3" font-family="Times,serif" font-size="14.00">comp 0</text>
</g>
<!-- 3&#45;&gt;8 -->
<g id="edge8" class="edge"><title>3&#45;&gt;8</title>
<path fill="none" stroke="black" d="M1072.5,-275.418C1072.5,-257.912 1072.5,-231.148 1072.5,-211.095"/>
<polygon fill="black" stroke="black" points="1076,-211.027 1072.5,-201.027 1069,-211.027 1076,-211.027"/>
</g>
<!-- 9 -->
<g id="node10" class="node"><title>9</title>
<path fill="#bfe6e6" stroke="black" d="M1265.5,-202C1265.5,-202 1131.5,-202 1131.5,-202 1125.5,-202 1119.5,-196 1119.5,-190 1119.5,-190 1119.5,-176 1119.5,-176 1119.5,-170 1125.5,-164 1131.5,-164 1131.5,-164 1265.5,-164 1265.5,-164 1271.5,-164 1277.5,-170 1277.5,-176 1277.5,-176 1277.5,-190 1277.5,-190 1277.5,-196 1271.5,-202 1265.5,-202"/>
<text text-anchor="middle" x="1198.5" y="-186.8" font-family="Times,serif" font-size="14.00">path end 2</text>
<text text-anchor="middle" x="1198.5" y="-171.8" font-family="Times,serif" font-size="14.00">k width: &#45;2 &#160;&#160;n kernels: 15</text>
</g>
<!-- 3&#45;&gt;9 -->
<g id="edge9" class="edge"><title>3&#45;&gt;9</title>
<path fill="none" stroke="black" d="M1093.31,-275.418C1114.19,-257.27 1146.52,-229.172 1169.83,-208.917"/>
<polygon fill="black" stroke="black" points="1172.41,-211.31 1177.66,-202.109 1167.82,-206.026 1172.41,-211.31"/>
</g>
<!-- 10 -->
<g id="node11" class="node"><title>10</title>
<path fill="#d3ffff" stroke="black" d="M1589,-232C1589,-232 1308,-232 1308,-232 1302,-232 1296,-226 1296,-220 1296,-220 1296,-146 1296,-146 1296,-140 1302,-134 1308,-134 1308,-134 1589,-134 1589,-134 1595,-134 1601,-140 1601,-146 1601,-146 1601,-220 1601,-220 1601,-226 1595,-232 1589,-232"/>
<text text-anchor="middle" x="1448.5" y="-216.8" font-family="Times,serif" font-size="14.00">forward</text>
<text text-anchor="middle" x="1448.5" y="-201.8" font-family="Times,serif" font-size="14.00">CB0/C0</text>
<text text-anchor="middle" x="1448.5" y="-186.8" font-family="Times,serif" font-size="14.00">dilation rate: 1 &#160;&#160;k width: 3</text>
<text text-anchor="middle" x="1448.5" y="-171.8" font-family="Times,serif" font-size="14.00">log gamma1: &#45;11.000000 &#160;&#160;log gamma2: &#45;11.000000</text>
<text text-anchor="middle" x="1448.5" y="-156.8" font-family="Times,serif" font-size="14.00">log lambda1: &#45;11.000000 &#160;&#160;log lambda2: &#45;11.000000</text>
<text text-anchor="middle" x="1448.5" y="-141.8" font-family="Times,serif" font-size="14.00">n kernels: 64</text>
</g>
<!-- 4&#45;&gt;10 -->
<g id="edge10" class="edge"><title>4&#45;&gt;10</title>
<path fill="none" stroke="black" d="M1584.34,-276.391C1568.95,-265.923 1548.33,-251.898 1527.81,-237.942"/>
<polygon fill="black" stroke="black" points="1529.59,-234.917 1519.35,-232.188 1525.65,-240.706 1529.59,-234.917"/>
</g>
<!-- 11 -->
<g id="node12" class="node"><title>11</title>
<path fill="#bfe6e6" stroke="black" d="M1912,-232C1912,-232 1631,-232 1631,-232 1625,-232 1619,-226 1619,-220 1619,-220 1619,-146 1619,-146 1619,-140 1625,-134 1631,-134 1631,-134 1912,-134 1912,-134 1918,-134 1924,-140 1924,-146 1924,-146 1924,-220 1924,-220 1924,-226 1918,-232 1912,-232"/>
<text text-anchor="middle" x="1771.5" y="-216.8" font-family="Times,serif" font-size="14.00">merge 1</text>
<text text-anchor="middle" x="1771.5" y="-201.8" font-family="Times,serif" font-size="14.00">CB1/PE1</text>
<text text-anchor="middle" x="1771.5" y="-186.8" font-family="Times,serif" font-size="14.00">dilation rate: 1 &#160;&#160;k width: 3</text>
<text text-anchor="middle" x="1771.5" y="-171.8" font-family="Times,serif" font-size="14.00">log gamma1: &#45;11.000000 &#160;&#160;log gamma2: &#45;11.000000</text>
<text text-anchor="middle" x="1771.5" y="-156.8" font-family="Times,serif" font-size="14.00">log lambda1: &#45;11.000000 &#160;&#160;log lambda2: &#45;11.000000</text>
<text text-anchor="middle" x="1771.5" y="-141.8" font-family="Times,serif" font-size="14.00">n kernels: 64</text>
</g>
<!-- 4&#45;&gt;11 -->
<g id="edge11" class="edge"><title>4&#45;&gt;11</title>
<path fill="none" stroke="black" d="M1634.81,-276.391C1650.3,-265.923 1671.05,-251.898 1691.69,-237.942"/>
<polygon fill="black" stroke="black" points="1693.88,-240.687 1700.21,-232.188 1689.96,-234.888 1693.88,-240.687"/>
</g>
<!-- 12 -->
<g id="node13" class="node"><title>12</title>
<path fill="#abcece" stroke="black" d="M2235,-232C2235,-232 1954,-232 1954,-232 1948,-232 1942,-226 1942,-220 1942,-220 1942,-146 1942,-146 1942,-140 1948,-134 1954,-134 1954,-134 2235,-134 2235,-134 2241,-134 2247,-140 2247,-146 2247,-146 2247,-220 2247,-220 2247,-226 2241,-232 2235,-232"/>
<text text-anchor="middle" x="2094.5" y="-216.8" font-family="Times,serif" font-size="14.00">merge 2</text>
<text text-anchor="middle" x="2094.5" y="-201.8" font-family="Times,serif" font-size="14.00">CB2/PE2</text>
<text text-anchor="middle" x="2094.5" y="-186.8" font-family="Times,serif" font-size="14.00">dilation rate: 1 &#160;&#160;k width: 3</text>
<text text-anchor="middle" x="2094.5" y="-171.8" font-family="Times,serif" font-size="14.00">log gamma1: &#45;11.000000 &#160;&#160;log gamma2: &#45;11.000000</text>
<text text-anchor="middle" x="2094.5" y="-156.8" font-family="Times,serif" font-size="14.00">log lambda1: &#45;11.000000 &#160;&#160;log lambda2: &#45;11.000000</text>
<text text-anchor="middle" x="2094.5" y="-141.8" font-family="Times,serif" font-size="14.00">n kernels: 64</text>
</g>
<!-- 4&#45;&gt;12 -->
<g id="edge12" class="edge"><title>4&#45;&gt;12</title>
<path fill="none" stroke="black" d="M1655.16,-286.346C1716.2,-276.448 1827.91,-257.177 1931.63,-232.399"/>
<polygon fill="black" stroke="black" points="1932.74,-235.732 1941.64,-229.985 1931.1,-228.927 1932.74,-235.732"/>
</g>
<!-- 13 -->
<g id="node14" class="node"><title>13</title>
<path fill="#e9d3ff" stroke="black" d="M293,-98C293,-98 12,-98 12,-98 6,-98 0,-92 0,-86 0,-86 0,-12 0,-12 0,-6 6,-0 12,-0 12,-0 293,-0 293,-0 299,-0 305,-6 305,-12 305,-12 305,-86 305,-86 305,-92 299,-98 293,-98"/>
<text text-anchor="middle" x="152.5" y="-82.8" font-family="Times,serif" font-size="14.00">forward</text>
<text text-anchor="middle" x="152.5" y="-67.8" font-family="Times,serif" font-size="14.00">input</text>
<text text-anchor="middle" x="152.5" y="-52.8" font-family="Times,serif" font-size="14.00">dilation rate: 1 &#160;&#160;k width: 3</text>
<text text-anchor="middle" x="152.5" y="-37.8" font-family="Times,serif" font-size="14.00">log gamma1: &#45;11.000000 &#160;&#160;log gamma2: &#45;11.000000</text>
<text text-anchor="middle" x="152.5" y="-22.8" font-family="Times,serif" font-size="14.00">log lambda1: &#45;11.000000 &#160;&#160;log lambda2: &#45;11.000000</text>
<text text-anchor="middle" x="152.5" y="-7.8" font-family="Times,serif" font-size="14.00">n kernels: 64</text>
</g>
<!-- 5&#45;&gt;13 -->
<g id="edge13" class="edge"><title>5&#45;&gt;13</title>
<path fill="none" stroke="black" d="M313.027,-163.923C291.292,-148.498 258.88,-125.495 228.859,-104.19"/>
<polygon fill="black" stroke="black" points="230.646,-101.167 220.466,-98.2336 226.595,-106.875 230.646,-101.167"/>
</g>
<!-- 14 -->
<g id="node15" class="node"><title>14</title>
<path fill="#e9d3ff" stroke="black" d="M616,-98C616,-98 335,-98 335,-98 329,-98 323,-92 323,-86 323,-86 323,-12 323,-12 323,-6 329,-0 335,-0 335,-0 616,-0 616,-0 622,-0 628,-6 628,-12 628,-12 628,-86 628,-86 628,-92 622,-98 616,-98"/>
<text text-anchor="middle" x="475.5" y="-82.8" font-family="Times,serif" font-size="14.00">forward</text>
<text text-anchor="middle" x="475.5" y="-67.8" font-family="Times,serif" font-size="14.00">input</text>
<text text-anchor="middle" x="475.5" y="-52.8" font-family="Times,serif" font-size="14.00">dilation rate: 1 &#160;&#160;k width: 3</text>
<text text-anchor="middle" x="475.5" y="-37.8" font-family="Times,serif" font-size="14.00">log gamma1: &#45;11.000000 &#160;&#160;log gamma2: &#45;11.000000</text>
<text text-anchor="middle" x="475.5" y="-22.8" font-family="Times,serif" font-size="14.00">log lambda1: &#45;11.000000 &#160;&#160;log lambda2: &#45;11.000000</text>
<text text-anchor="middle" x="475.5" y="-7.8" font-family="Times,serif" font-size="14.00">n kernels: 64</text>
</g>
<!-- 6&#45;&gt;14 -->
<g id="edge14" class="edge"><title>6&#45;&gt;14</title>
<path fill="none" stroke="black" d="M554.038,-163.923C543.813,-149.091 528.758,-127.253 514.558,-106.655"/>
<polygon fill="black" stroke="black" points="517.309,-104.48 508.752,-98.2336 511.546,-108.453 517.309,-104.48"/>
</g>
<!-- 15 -->
<g id="node16" class="node"><title>15</title>
<path fill="#e9d3ff" stroke="black" d="M939,-98C939,-98 658,-98 658,-98 652,-98 646,-92 646,-86 646,-86 646,-12 646,-12 646,-6 652,-0 658,-0 658,-0 939,-0 939,-0 945,-0 951,-6 951,-12 951,-12 951,-86 951,-86 951,-92 945,-98 939,-98"/>
<text text-anchor="middle" x="798.5" y="-82.8" font-family="Times,serif" font-size="14.00">forward</text>
<text text-anchor="middle" x="798.5" y="-67.8" font-family="Times,serif" font-size="14.00">CB1/C0</text>
<text text-anchor="middle" x="798.5" y="-52.8" font-family="Times,serif" font-size="14.00">dilation rate: 1 &#160;&#160;k width: 3</text>
<text text-anchor="middle" x="798.5" y="-37.8" font-family="Times,serif" font-size="14.00">log gamma1: &#45;11.000000 &#160;&#160;log gamma2: &#45;11.000000</text>
<text text-anchor="middle" x="798.5" y="-22.8" font-family="Times,serif" font-size="14.00">log lambda1: &#45;11.000000 &#160;&#160;log lambda2: &#45;11.000000</text>
<text text-anchor="middle" x="798.5" y="-7.8" font-family="Times,serif" font-size="14.00">n kernels: 64</text>
</g>
<!-- 7&#45;&gt;15 -->
<g id="edge15" class="edge"><title>7&#45;&gt;15</title>
<path fill="none" stroke="black" d="M798.5,-163.923C798.5,-149.486 798.5,-128.413 798.5,-108.306"/>
<polygon fill="black" stroke="black" points="802,-108.234 798.5,-98.2336 795,-108.234 802,-108.234"/>
</g>
<!-- 16 -->
<g id="node17" class="node"><title>16</title>
<path fill="#e9d3ff" stroke="black" d="M1262,-98C1262,-98 981,-98 981,-98 975,-98 969,-92 969,-86 969,-86 969,-12 969,-12 969,-6 975,-0 981,-0 981,-0 1262,-0 1262,-0 1268,-0 1274,-6 1274,-12 1274,-12 1274,-86 1274,-86 1274,-92 1268,-98 1262,-98"/>
<text text-anchor="middle" x="1121.5" y="-82.8" font-family="Times,serif" font-size="14.00">forward</text>
<text text-anchor="middle" x="1121.5" y="-67.8" font-family="Times,serif" font-size="14.00">input</text>
<text text-anchor="middle" x="1121.5" y="-52.8" font-family="Times,serif" font-size="14.00">dilation rate: 1 &#160;&#160;k width: 3</text>
<text text-anchor="middle" x="1121.5" y="-37.8" font-family="Times,serif" font-size="14.00">log gamma1: &#45;11.000000 &#160;&#160;log gamma2: &#45;11.000000</text>
<text text-anchor="middle" x="1121.5" y="-22.8" font-family="Times,serif" font-size="14.00">log lambda1: &#45;11.000000 &#160;&#160;log lambda2: &#45;11.000000</text>
<text text-anchor="middle" x="1121.5" y="-7.8" font-family="Times,serif" font-size="14.00">n kernels: 64</text>
</g>
<!-- 8&#45;&gt;16 -->
<g id="edge16" class="edge"><title>8&#45;&gt;16</title>
<path fill="none" stroke="black" d="M1078.91,-164.743C1084.33,-150.138 1092.42,-128.338 1100.1,-107.65"/>
<polygon fill="black" stroke="black" points="1103.39,-108.846 1103.59,-98.2533 1096.83,-106.41 1103.39,-108.846"/>
</g>
<!-- 17 -->
<g id="node18" class="node"><title>17</title>
<path fill="#e9d3ff" stroke="black" d="M1585,-98C1585,-98 1304,-98 1304,-98 1298,-98 1292,-92 1292,-86 1292,-86 1292,-12 1292,-12 1292,-6 1298,-0 1304,-0 1304,-0 1585,-0 1585,-0 1591,-0 1597,-6 1597,-12 1597,-12 1597,-86 1597,-86 1597,-92 1591,-98 1585,-98"/>
<text text-anchor="middle" x="1444.5" y="-82.8" font-family="Times,serif" font-size="14.00">forward</text>
<text text-anchor="middle" x="1444.5" y="-67.8" font-family="Times,serif" font-size="14.00">CB2/C0</text>
<text text-anchor="middle" x="1444.5" y="-52.8" font-family="Times,serif" font-size="14.00">dilation rate: 1 &#160;&#160;k width: 3</text>
<text text-anchor="middle" x="1444.5" y="-37.8" font-family="Times,serif" font-size="14.00">log gamma1: &#45;11.000000 &#160;&#160;log gamma2: &#45;11.000000</text>
<text text-anchor="middle" x="1444.5" y="-22.8" font-family="Times,serif" font-size="14.00">log lambda1: &#45;11.000000 &#160;&#160;log lambda2: &#45;11.000000</text>
<text text-anchor="middle" x="1444.5" y="-7.8" font-family="Times,serif" font-size="14.00">n kernels: 64</text>
</g>
<!-- 9&#45;&gt;17 -->
<g id="edge17" class="edge"><title>9&#45;&gt;17</title>
<path fill="none" stroke="black" d="M1231.47,-163.909C1247.97,-154.881 1268.27,-143.819 1286.5,-134 1305.36,-123.845 1325.52,-113.067 1344.91,-102.739"/>
<polygon fill="black" stroke="black" points="1346.57,-105.818 1353.76,-98.0294 1343.29,-99.6384 1346.57,-105.818"/>
</g>
</g>
</svg>
