<?xml version="1.0" encoding="UTF-8" standalone="no"?>
<!DOCTYPE svg PUBLIC "-//W3C//DTD SVG 1.1//EN"
 "http://www.w3.org/Graphics/SVG/1.1/DTD/svg11.dtd">
<!-- Generated by graphviz version 2.38.0 (20140413.2041)
 -->
<!-- Title: %3 Pages: 1 -->
<svg width="3818pt" height="357pt"
 viewBox="0.00 0.00 3817.50 357.00" xmlns="http://www.w3.org/2000/svg" xmlns:xlink="http://www.w3.org/1999/xlink">
<g id="graph0" class="graph" transform="scale(1 1) rotate(0) translate(4 353)">
<title>%3</title>
<polygon fill="none" stroke="none" points="-4,4 -4,-353 3813.5,-353 3813.5,4 -4,4"/>
<!-- 0 -->
<g id="node1" class="node"><title>0</title>
<path fill="#ffd3d3" stroke="black" d="M1916,-349C1916,-349 1759,-349 1759,-349 1753,-349 1747,-343 1747,-337 1747,-337 1747,-323 1747,-323 1747,-317 1753,-311 1759,-311 1759,-311 1916,-311 1916,-311 1922,-311 1928,-317 1928,-323 1928,-323 1928,-337 1928,-337 1928,-343 1922,-349 1916,-349"/>
<text text-anchor="middle" x="1837.5" y="-333.8" font-family="Times,serif" font-size="14.00">net</text>
<text text-anchor="middle" x="1837.5" y="-318.8" font-family="Times,serif" font-size="14.00">n kernels: 39 &#160;&#160;pooling type: 0</text>
</g>
<!-- 1 -->
<g id="node2" class="node"><title>1</title>
<path fill="#f6ffd3" stroke="black" d="M1026.5,-275C1026.5,-275 906.5,-275 906.5,-275 900.5,-275 894.5,-269 894.5,-263 894.5,-263 894.5,-249 894.5,-249 894.5,-243 900.5,-237 906.5,-237 906.5,-237 1026.5,-237 1026.5,-237 1032.5,-237 1038.5,-243 1038.5,-249 1038.5,-249 1038.5,-263 1038.5,-263 1038.5,-269 1032.5,-275 1026.5,-275"/>
<text text-anchor="middle" x="966.5" y="-259.8" font-family="Times,serif" font-size="14.00">encoder</text>
<text text-anchor="middle" x="966.5" y="-244.8" font-family="Times,serif" font-size="14.00">log gamma2: 0.456433</text>
</g>
<!-- 0&#45;&gt;1 -->
<g id="edge1" class="edge"><title>0&#45;&gt;1</title>
<path fill="none" stroke="black" d="M1746.75,-321.498C1576.58,-307.431 1211.99,-277.293 1048.63,-263.789"/>
<polygon fill="black" stroke="black" points="1048.89,-260.299 1038.63,-262.963 1048.31,-267.275 1048.89,-260.299"/>
</g>
<!-- 2 -->
<g id="node3" class="node"><title>2</title>
<path fill="#f6ffd3" stroke="black" d="M2547,-275C2547,-275 2422,-275 2422,-275 2416,-275 2410,-269 2410,-263 2410,-263 2410,-249 2410,-249 2410,-243 2416,-237 2422,-237 2422,-237 2547,-237 2547,-237 2553,-237 2559,-243 2559,-249 2559,-249 2559,-263 2559,-263 2559,-269 2553,-275 2547,-275"/>
<text text-anchor="middle" x="2484.5" y="-259.8" font-family="Times,serif" font-size="14.00">decoder</text>
<text text-anchor="middle" x="2484.5" y="-244.8" font-family="Times,serif" font-size="14.00">log gamma2: &#45;0.274724</text>
</g>
<!-- 0&#45;&gt;2 -->
<g id="edge2" class="edge"><title>0&#45;&gt;2</title>
<path fill="none" stroke="black" d="M1928.14,-318.913C2053.3,-304.985 2277.39,-280.048 2399.5,-266.46"/>
<polygon fill="black" stroke="black" points="2400,-269.926 2409.55,-265.341 2399.22,-262.969 2400,-269.926"/>
</g>
<!-- 3 -->
<g id="node4" class="node"><title>3</title>
<path fill="#d3ffe4" stroke="black" d="M300,-193.5C300,-193.5 225,-193.5 225,-193.5 219,-193.5 213,-187.5 213,-181.5 213,-181.5 213,-167.5 213,-167.5 213,-161.5 219,-155.5 225,-155.5 225,-155.5 300,-155.5 300,-155.5 306,-155.5 312,-161.5 312,-167.5 312,-167.5 312,-181.5 312,-181.5 312,-187.5 306,-193.5 300,-193.5"/>
<text text-anchor="middle" x="262.5" y="-178.3" font-family="Times,serif" font-size="14.00">encode block 0</text>
<text text-anchor="middle" x="262.5" y="-163.3" font-family="Times,serif" font-size="14.00">n kernels: 8</text>
</g>
<!-- 1&#45;&gt;3 -->
<g id="edge3" class="edge"><title>1&#45;&gt;3</title>
<path fill="none" stroke="black" d="M894.468,-246.866C755.258,-231.145 451.642,-196.859 322.532,-182.279"/>
<polygon fill="black" stroke="black" points="322.763,-178.783 312.434,-181.139 321.978,-185.739 322.763,-178.783"/>
</g>
<!-- 4 -->
<g id="node5" class="node"><title>4</title>
<path fill="#bfe6cf" stroke="black" d="M816.5,-193.5C816.5,-193.5 664.5,-193.5 664.5,-193.5 658.5,-193.5 652.5,-187.5 652.5,-181.5 652.5,-181.5 652.5,-167.5 652.5,-167.5 652.5,-161.5 658.5,-155.5 664.5,-155.5 664.5,-155.5 816.5,-155.5 816.5,-155.5 822.5,-155.5 828.5,-161.5 828.5,-167.5 828.5,-167.5 828.5,-181.5 828.5,-181.5 828.5,-187.5 822.5,-193.5 816.5,-193.5"/>
<text text-anchor="middle" x="740.5" y="-178.3" font-family="Times,serif" font-size="14.00">encode block 1</text>
<text text-anchor="middle" x="740.5" y="-163.3" font-family="Times,serif" font-size="14.00">n kernels: &#45;2 &#160;&#160;spatial scale: 1</text>
</g>
<!-- 1&#45;&gt;4 -->
<g id="edge4" class="edge"><title>1&#45;&gt;4</title>
<path fill="none" stroke="black" d="M915.217,-236.96C881.528,-225.11 837.283,-209.545 801.747,-197.045"/>
<polygon fill="black" stroke="black" points="802.565,-193.623 791.971,-193.606 800.243,-200.226 802.565,-193.623"/>
</g>
<!-- 5 -->
<g id="node6" class="node"><title>5</title>
<path fill="#abceb9" stroke="black" d="M1267.5,-193.5C1267.5,-193.5 1119.5,-193.5 1119.5,-193.5 1113.5,-193.5 1107.5,-187.5 1107.5,-181.5 1107.5,-181.5 1107.5,-167.5 1107.5,-167.5 1107.5,-161.5 1113.5,-155.5 1119.5,-155.5 1119.5,-155.5 1267.5,-155.5 1267.5,-155.5 1273.5,-155.5 1279.5,-161.5 1279.5,-167.5 1279.5,-167.5 1279.5,-181.5 1279.5,-181.5 1279.5,-187.5 1273.5,-193.5 1267.5,-193.5"/>
<text text-anchor="middle" x="1193.5" y="-178.3" font-family="Times,serif" font-size="14.00">encode block 2</text>
<text text-anchor="middle" x="1193.5" y="-163.3" font-family="Times,serif" font-size="14.00">n kernels: 9 &#160;&#160;spatial scale: 2</text>
</g>
<!-- 1&#45;&gt;5 -->
<g id="edge5" class="edge"><title>1&#45;&gt;5</title>
<path fill="none" stroke="black" d="M1018.01,-236.96C1051.85,-225.11 1096.29,-209.545 1131.98,-197.045"/>
<polygon fill="black" stroke="black" points="1133.52,-200.215 1141.8,-193.606 1131.21,-193.608 1133.52,-200.215"/>
</g>
<!-- 6 -->
<g id="node7" class="node"><title>6</title>
<path fill="#d3ffe4" stroke="black" d="M2049.5,-193.5C2049.5,-193.5 1897.5,-193.5 1897.5,-193.5 1891.5,-193.5 1885.5,-187.5 1885.5,-181.5 1885.5,-181.5 1885.5,-167.5 1885.5,-167.5 1885.5,-161.5 1891.5,-155.5 1897.5,-155.5 1897.5,-155.5 2049.5,-155.5 2049.5,-155.5 2055.5,-155.5 2061.5,-161.5 2061.5,-167.5 2061.5,-167.5 2061.5,-181.5 2061.5,-181.5 2061.5,-187.5 2055.5,-193.5 2049.5,-193.5"/>
<text text-anchor="middle" x="1973.5" y="-178.3" font-family="Times,serif" font-size="14.00">decode block 3</text>
<text text-anchor="middle" x="1973.5" y="-163.3" font-family="Times,serif" font-size="14.00">n kernels: &#45;9 &#160;&#160;spatial scale: 3</text>
</g>
<!-- 2&#45;&gt;6 -->
<g id="edge6" class="edge"><title>2&#45;&gt;6</title>
<path fill="none" stroke="black" d="M2409.92,-243.397C2320.47,-229.481 2170.26,-206.111 2071.51,-190.748"/>
<polygon fill="black" stroke="black" points="2071.94,-187.273 2061.52,-189.194 2070.86,-194.19 2071.94,-187.273"/>
</g>
<!-- 7 -->
<g id="node8" class="node"><title>7</title>
<path fill="#bfe6cf" stroke="black" d="M2616,-201C2616,-201 2353,-201 2353,-201 2347,-201 2341,-195 2341,-189 2341,-189 2341,-160 2341,-160 2341,-154 2347,-148 2353,-148 2353,-148 2616,-148 2616,-148 2622,-148 2628,-154 2628,-160 2628,-160 2628,-189 2628,-189 2628,-195 2622,-201 2616,-201"/>
<text text-anchor="middle" x="2484.5" y="-185.8" font-family="Times,serif" font-size="14.00">decode block 2</text>
<text text-anchor="middle" x="2484.5" y="-170.8" font-family="Times,serif" font-size="14.00">log gamma1: 0.420670 &#160;&#160;log gamma2: &#45;0.255118</text>
<text text-anchor="middle" x="2484.5" y="-155.8" font-family="Times,serif" font-size="14.00">n kernels: 888 &#160;&#160;spatial scale: 2</text>
</g>
<!-- 2&#45;&gt;7 -->
<g id="edge7" class="edge"><title>2&#45;&gt;7</title>
<path fill="none" stroke="black" d="M2484.5,-236.96C2484.5,-229.321 2484.5,-220.139 2484.5,-211.229"/>
<polygon fill="black" stroke="black" points="2488,-211.003 2484.5,-201.003 2481,-211.003 2488,-211.003"/>
</g>
<!-- 8 -->
<g id="node9" class="node"><title>8</title>
<path fill="#abceb9" stroke="black" d="M3103.5,-193.5C3103.5,-193.5 2955.5,-193.5 2955.5,-193.5 2949.5,-193.5 2943.5,-187.5 2943.5,-181.5 2943.5,-181.5 2943.5,-167.5 2943.5,-167.5 2943.5,-161.5 2949.5,-155.5 2955.5,-155.5 2955.5,-155.5 3103.5,-155.5 3103.5,-155.5 3109.5,-155.5 3115.5,-161.5 3115.5,-167.5 3115.5,-167.5 3115.5,-181.5 3115.5,-181.5 3115.5,-187.5 3109.5,-193.5 3103.5,-193.5"/>
<text text-anchor="middle" x="3029.5" y="-178.3" font-family="Times,serif" font-size="14.00">decode block 1</text>
<text text-anchor="middle" x="3029.5" y="-163.3" font-family="Times,serif" font-size="14.00">n kernels: 7 &#160;&#160;spatial scale: 1</text>
</g>
<!-- 2&#45;&gt;8 -->
<g id="edge8" class="edge"><title>2&#45;&gt;8</title>
<path fill="none" stroke="black" d="M2559.14,-244.113C2656.29,-229.941 2826.24,-205.15 2933.06,-189.567"/>
<polygon fill="black" stroke="black" points="2933.81,-192.996 2943.2,-188.089 2932.8,-186.069 2933.81,-192.996"/>
</g>
<!-- 9 -->
<g id="node10" class="node"><title>9</title>
<path fill="#97b6a3" stroke="black" d="M3580,-192.5C3580,-192.5 3505,-192.5 3505,-192.5 3499,-192.5 3493,-186.5 3493,-180.5 3493,-180.5 3493,-168.5 3493,-168.5 3493,-162.5 3499,-156.5 3505,-156.5 3505,-156.5 3580,-156.5 3580,-156.5 3586,-156.5 3592,-162.5 3592,-168.5 3592,-168.5 3592,-180.5 3592,-180.5 3592,-186.5 3586,-192.5 3580,-192.5"/>
<text text-anchor="middle" x="3542.5" y="-170.8" font-family="Times,serif" font-size="14.00">decode block 0</text>
</g>
<!-- 2&#45;&gt;9 -->
<g id="edge9" class="edge"><title>2&#45;&gt;9</title>
<path fill="none" stroke="black" d="M2559.32,-249.378C2759.01,-234.373 3301.68,-193.596 3482.77,-179.988"/>
<polygon fill="black" stroke="black" points="3483.19,-183.467 3492.9,-179.227 3482.67,-176.486 3483.19,-183.467"/>
</g>
<!-- 10 -->
<g id="node11" class="node"><title>10</title>
<path fill="#d3e4ff" stroke="black" d="M48.5,-111C48.5,-111 14.5,-111 14.5,-111 8.5,-111 2.5,-105 2.5,-99 2.5,-99 2.5,-87 2.5,-87 2.5,-81 8.5,-75 14.5,-75 14.5,-75 48.5,-75 48.5,-75 54.5,-75 60.5,-81 60.5,-87 60.5,-87 60.5,-99 60.5,-99 60.5,-105 54.5,-111 48.5,-111"/>
<text text-anchor="middle" x="31.5" y="-89.3" font-family="Times,serif" font-size="14.00">comp 0</text>
</g>
<!-- 3&#45;&gt;10 -->
<g id="edge10" class="edge"><title>3&#45;&gt;10</title>
<path fill="none" stroke="black" d="M212.994,-159.461C173.874,-147.933 118.122,-130.536 70.5,-112 70.4001,-111.961 70.3001,-111.922 70.2,-111.883"/>
<polygon fill="black" stroke="black" points="71.2996,-108.55 60.7216,-107.953 68.6188,-115.016 71.2996,-108.55"/>
</g>
<!-- 11 -->
<g id="node12" class="node"><title>11</title>
<path fill="#bfcfe6" stroke="black" d="M125.5,-111C125.5,-111 91.5,-111 91.5,-111 85.5,-111 79.5,-105 79.5,-99 79.5,-99 79.5,-87 79.5,-87 79.5,-81 85.5,-75 91.5,-75 91.5,-75 125.5,-75 125.5,-75 131.5,-75 137.5,-81 137.5,-87 137.5,-87 137.5,-99 137.5,-99 137.5,-105 131.5,-111 125.5,-111"/>
<text text-anchor="middle" x="108.5" y="-89.3" font-family="Times,serif" font-size="14.00">comp 1</text>
</g>
<!-- 3&#45;&gt;11 -->
<g id="edge11" class="edge"><title>3&#45;&gt;11</title>
<path fill="none" stroke="black" d="M227.555,-155.46C203.476,-143.03 171.482,-126.513 146.724,-113.733"/>
<polygon fill="black" stroke="black" points="148.113,-110.511 137.622,-109.034 144.902,-116.731 148.113,-110.511"/>
</g>
<!-- 12 -->
<g id="node13" class="node"><title>12</title>
<path fill="#abb9ce" stroke="black" d="M202.5,-111C202.5,-111 168.5,-111 168.5,-111 162.5,-111 156.5,-105 156.5,-99 156.5,-99 156.5,-87 156.5,-87 156.5,-81 162.5,-75 168.5,-75 168.5,-75 202.5,-75 202.5,-75 208.5,-75 214.5,-81 214.5,-87 214.5,-87 214.5,-99 214.5,-99 214.5,-105 208.5,-111 202.5,-111"/>
<text text-anchor="middle" x="185.5" y="-89.3" font-family="Times,serif" font-size="14.00">comp 2</text>
</g>
<!-- 3&#45;&gt;12 -->
<g id="edge12" class="edge"><title>3&#45;&gt;12</title>
<path fill="none" stroke="black" d="M245.028,-155.46C234.472,-144.562 220.874,-130.523 209.34,-118.614"/>
<polygon fill="black" stroke="black" points="211.583,-115.899 202.112,-111.151 206.555,-120.769 211.583,-115.899"/>
</g>
<!-- 13 -->
<g id="node14" class="node"><title>13</title>
<path fill="#97a3b6" stroke="black" d="M279.5,-111C279.5,-111 245.5,-111 245.5,-111 239.5,-111 233.5,-105 233.5,-99 233.5,-99 233.5,-87 233.5,-87 233.5,-81 239.5,-75 245.5,-75 245.5,-75 279.5,-75 279.5,-75 285.5,-75 291.5,-81 291.5,-87 291.5,-87 291.5,-99 291.5,-99 291.5,-105 285.5,-111 279.5,-111"/>
<text text-anchor="middle" x="262.5" y="-89.3" font-family="Times,serif" font-size="14.00">comp 3</text>
</g>
<!-- 3&#45;&gt;13 -->
<g id="edge13" class="edge"><title>3&#45;&gt;13</title>
<path fill="none" stroke="black" d="M262.5,-155.46C262.5,-145.392 262.5,-132.644 262.5,-121.371"/>
<polygon fill="black" stroke="black" points="266,-121.151 262.5,-111.151 259,-121.151 266,-121.151"/>
</g>
<!-- 14 -->
<g id="node15" class="node"><title>14</title>
<path fill="#838d9e" stroke="black" d="M355.5,-111C355.5,-111 321.5,-111 321.5,-111 315.5,-111 309.5,-105 309.5,-99 309.5,-99 309.5,-87 309.5,-87 309.5,-81 315.5,-75 321.5,-75 321.5,-75 355.5,-75 355.5,-75 361.5,-75 367.5,-81 367.5,-87 367.5,-87 367.5,-99 367.5,-99 367.5,-105 361.5,-111 355.5,-111"/>
<text text-anchor="middle" x="338.5" y="-89.3" font-family="Times,serif" font-size="14.00">comp 4</text>
</g>
<!-- 3&#45;&gt;14 -->
<g id="edge14" class="edge"><title>3&#45;&gt;14</title>
<path fill="none" stroke="black" d="M279.746,-155.46C290.164,-144.562 303.585,-130.523 314.969,-118.614"/>
<polygon fill="black" stroke="black" points="317.724,-120.798 322.104,-111.151 312.664,-115.961 317.724,-120.798"/>
</g>
<!-- 15 -->
<g id="node16" class="node"><title>15</title>
<path fill="#6f7885" stroke="black" d="M431.5,-111C431.5,-111 397.5,-111 397.5,-111 391.5,-111 385.5,-105 385.5,-99 385.5,-99 385.5,-87 385.5,-87 385.5,-81 391.5,-75 397.5,-75 397.5,-75 431.5,-75 431.5,-75 437.5,-75 443.5,-81 443.5,-87 443.5,-87 443.5,-99 443.5,-99 443.5,-105 437.5,-111 431.5,-111"/>
<text text-anchor="middle" x="414.5" y="-89.3" font-family="Times,serif" font-size="14.00">comp 5</text>
</g>
<!-- 3&#45;&gt;15 -->
<g id="edge15" class="edge"><title>3&#45;&gt;15</title>
<path fill="none" stroke="black" d="M296.991,-155.46C320.602,-143.111 351.924,-126.729 376.292,-113.984"/>
<polygon fill="black" stroke="black" points="378.021,-117.029 385.26,-109.293 374.777,-110.826 378.021,-117.029"/>
</g>
<!-- 16 -->
<g id="node17" class="node"><title>16</title>
<path fill="#d3e4ff" stroke="black" d="M529.5,-112C529.5,-112 473.5,-112 473.5,-112 467.5,-112 461.5,-106 461.5,-100 461.5,-100 461.5,-86 461.5,-86 461.5,-80 467.5,-74 473.5,-74 473.5,-74 529.5,-74 529.5,-74 535.5,-74 541.5,-80 541.5,-86 541.5,-86 541.5,-100 541.5,-100 541.5,-106 535.5,-112 529.5,-112"/>
<text text-anchor="middle" x="501.5" y="-96.8" font-family="Times,serif" font-size="14.00">comp 0</text>
<text text-anchor="middle" x="501.5" y="-81.8" font-family="Times,serif" font-size="14.00">n kernels: 7</text>
</g>
<!-- 4&#45;&gt;16 -->
<g id="edge16" class="edge"><title>4&#45;&gt;16</title>
<path fill="none" stroke="black" d="M682.516,-155.377C647.071,-144.15 600.612,-129.17 551.162,-112.173"/>
<polygon fill="black" stroke="black" points="552.161,-108.815 541.566,-108.862 549.877,-115.433 552.161,-108.815"/>
</g>
<!-- 17 -->
<g id="node18" class="node"><title>17</title>
<path fill="#bfcfe6" stroke="black" d="M605.5,-111C605.5,-111 571.5,-111 571.5,-111 565.5,-111 559.5,-105 559.5,-99 559.5,-99 559.5,-87 559.5,-87 559.5,-81 565.5,-75 571.5,-75 571.5,-75 605.5,-75 605.5,-75 611.5,-75 617.5,-81 617.5,-87 617.5,-87 617.5,-99 617.5,-99 617.5,-105 611.5,-111 605.5,-111"/>
<text text-anchor="middle" x="588.5" y="-89.3" font-family="Times,serif" font-size="14.00">comp 1</text>
</g>
<!-- 4&#45;&gt;17 -->
<g id="edge17" class="edge"><title>4&#45;&gt;17</title>
<path fill="none" stroke="black" d="M706.009,-155.46C682.398,-143.111 651.076,-126.729 626.708,-113.984"/>
<polygon fill="black" stroke="black" points="628.223,-110.826 617.74,-109.293 624.979,-117.029 628.223,-110.826"/>
</g>
<!-- 18 -->
<g id="node19" class="node"><title>18</title>
<path fill="#abb9ce" stroke="black" d="M681.5,-111C681.5,-111 647.5,-111 647.5,-111 641.5,-111 635.5,-105 635.5,-99 635.5,-99 635.5,-87 635.5,-87 635.5,-81 641.5,-75 647.5,-75 647.5,-75 681.5,-75 681.5,-75 687.5,-75 693.5,-81 693.5,-87 693.5,-87 693.5,-99 693.5,-99 693.5,-105 687.5,-111 681.5,-111"/>
<text text-anchor="middle" x="664.5" y="-89.3" font-family="Times,serif" font-size="14.00">comp 2</text>
</g>
<!-- 4&#45;&gt;18 -->
<g id="edge18" class="edge"><title>4&#45;&gt;18</title>
<path fill="none" stroke="black" d="M723.254,-155.46C712.836,-144.562 699.415,-130.523 688.031,-118.614"/>
<polygon fill="black" stroke="black" points="690.336,-115.961 680.896,-111.151 685.276,-120.798 690.336,-115.961"/>
</g>
<!-- 19 -->
<g id="node20" class="node"><title>19</title>
<path fill="#97a3b6" stroke="black" d="M757.5,-111C757.5,-111 723.5,-111 723.5,-111 717.5,-111 711.5,-105 711.5,-99 711.5,-99 711.5,-87 711.5,-87 711.5,-81 717.5,-75 723.5,-75 723.5,-75 757.5,-75 757.5,-75 763.5,-75 769.5,-81 769.5,-87 769.5,-87 769.5,-99 769.5,-99 769.5,-105 763.5,-111 757.5,-111"/>
<text text-anchor="middle" x="740.5" y="-89.3" font-family="Times,serif" font-size="14.00">comp 3</text>
</g>
<!-- 4&#45;&gt;19 -->
<g id="edge19" class="edge"><title>4&#45;&gt;19</title>
<path fill="none" stroke="black" d="M740.5,-155.46C740.5,-145.392 740.5,-132.644 740.5,-121.371"/>
<polygon fill="black" stroke="black" points="744,-121.151 740.5,-111.151 737,-121.151 744,-121.151"/>
</g>
<!-- 20 -->
<g id="node21" class="node"><title>20</title>
<path fill="#838d9e" stroke="black" d="M833.5,-111C833.5,-111 799.5,-111 799.5,-111 793.5,-111 787.5,-105 787.5,-99 787.5,-99 787.5,-87 787.5,-87 787.5,-81 793.5,-75 799.5,-75 799.5,-75 833.5,-75 833.5,-75 839.5,-75 845.5,-81 845.5,-87 845.5,-87 845.5,-99 845.5,-99 845.5,-105 839.5,-111 833.5,-111"/>
<text text-anchor="middle" x="816.5" y="-89.3" font-family="Times,serif" font-size="14.00">comp 4</text>
</g>
<!-- 4&#45;&gt;20 -->
<g id="edge20" class="edge"><title>4&#45;&gt;20</title>
<path fill="none" stroke="black" d="M757.746,-155.46C768.164,-144.562 781.585,-130.523 792.969,-118.614"/>
<polygon fill="black" stroke="black" points="795.724,-120.798 800.104,-111.151 790.664,-115.961 795.724,-120.798"/>
</g>
<!-- 21 -->
<g id="node22" class="node"><title>21</title>
<path fill="#6f7885" stroke="black" d="M937,-112C937,-112 876,-112 876,-112 870,-112 864,-106 864,-100 864,-100 864,-86 864,-86 864,-80 870,-74 876,-74 876,-74 937,-74 937,-74 943,-74 949,-80 949,-86 949,-86 949,-100 949,-100 949,-106 943,-112 937,-112"/>
<text text-anchor="middle" x="906.5" y="-96.8" font-family="Times,serif" font-size="14.00">comp 5</text>
<text text-anchor="middle" x="906.5" y="-81.8" font-family="Times,serif" font-size="14.00">n kernels: &#45;9</text>
</g>
<!-- 4&#45;&gt;21 -->
<g id="edge21" class="edge"><title>4&#45;&gt;21</title>
<path fill="none" stroke="black" d="M778.168,-155.46C802.278,-143.913 833.75,-128.841 859.493,-116.512"/>
<polygon fill="black" stroke="black" points="861.187,-119.582 868.694,-112.106 858.163,-113.269 861.187,-119.582"/>
</g>
<!-- 22 -->
<g id="node23" class="node"><title>22</title>
<path fill="#d3e4ff" stroke="black" d="M1013.5,-111C1013.5,-111 979.5,-111 979.5,-111 973.5,-111 967.5,-105 967.5,-99 967.5,-99 967.5,-87 967.5,-87 967.5,-81 973.5,-75 979.5,-75 979.5,-75 1013.5,-75 1013.5,-75 1019.5,-75 1025.5,-81 1025.5,-87 1025.5,-87 1025.5,-99 1025.5,-99 1025.5,-105 1019.5,-111 1013.5,-111"/>
<text text-anchor="middle" x="996.5" y="-89.3" font-family="Times,serif" font-size="14.00">comp 0</text>
</g>
<!-- 5&#45;&gt;22 -->
<g id="edge22" class="edge"><title>5&#45;&gt;22</title>
<path fill="none" stroke="black" d="M1144.06,-155.443C1114.7,-144.479 1076.62,-129.831 1035.29,-112.216"/>
<polygon fill="black" stroke="black" points="1036.43,-108.897 1025.86,-108.169 1033.67,-115.329 1036.43,-108.897"/>
</g>
<!-- 23 -->
<g id="node24" class="node"><title>23</title>
<path fill="#bfcfe6" stroke="black" d="M1089.5,-111C1089.5,-111 1055.5,-111 1055.5,-111 1049.5,-111 1043.5,-105 1043.5,-99 1043.5,-99 1043.5,-87 1043.5,-87 1043.5,-81 1049.5,-75 1055.5,-75 1055.5,-75 1089.5,-75 1089.5,-75 1095.5,-75 1101.5,-81 1101.5,-87 1101.5,-87 1101.5,-99 1101.5,-99 1101.5,-105 1095.5,-111 1089.5,-111"/>
<text text-anchor="middle" x="1072.5" y="-89.3" font-family="Times,serif" font-size="14.00">comp 1</text>
</g>
<!-- 5&#45;&gt;23 -->
<g id="edge23" class="edge"><title>5&#45;&gt;23</title>
<path fill="none" stroke="black" d="M1166.04,-155.46C1148.59,-143.991 1125.84,-129.044 1107.14,-116.761"/>
<polygon fill="black" stroke="black" points="1108.88,-113.717 1098.6,-111.151 1105.04,-119.567 1108.88,-113.717"/>
</g>
<!-- 24 -->
<g id="node25" class="node"><title>24</title>
<path fill="#abb9ce" stroke="black" d="M1256,-112C1256,-112 1131,-112 1131,-112 1125,-112 1119,-106 1119,-100 1119,-100 1119,-86 1119,-86 1119,-80 1125,-74 1131,-74 1131,-74 1256,-74 1256,-74 1262,-74 1268,-80 1268,-86 1268,-86 1268,-100 1268,-100 1268,-106 1262,-112 1256,-112"/>
<text text-anchor="middle" x="1193.5" y="-96.8" font-family="Times,serif" font-size="14.00">comp 2</text>
<text text-anchor="middle" x="1193.5" y="-81.8" font-family="Times,serif" font-size="14.00">log gamma2: &#45;0.435619</text>
</g>
<!-- 5&#45;&gt;24 -->
<g id="edge24" class="edge"><title>5&#45;&gt;24</title>
<path fill="none" stroke="black" d="M1193.5,-155.46C1193.5,-145.67 1193.5,-133.345 1193.5,-122.307"/>
<polygon fill="black" stroke="black" points="1197,-122.244 1193.5,-112.244 1190,-122.244 1197,-122.244"/>
</g>
<!-- 25 -->
<g id="node26" class="node"><title>25</title>
<path fill="#97a3b6" stroke="black" d="M1354.5,-112C1354.5,-112 1298.5,-112 1298.5,-112 1292.5,-112 1286.5,-106 1286.5,-100 1286.5,-100 1286.5,-86 1286.5,-86 1286.5,-80 1292.5,-74 1298.5,-74 1298.5,-74 1354.5,-74 1354.5,-74 1360.5,-74 1366.5,-80 1366.5,-86 1366.5,-86 1366.5,-100 1366.5,-100 1366.5,-106 1360.5,-112 1354.5,-112"/>
<text text-anchor="middle" x="1326.5" y="-96.8" font-family="Times,serif" font-size="14.00">comp 3</text>
<text text-anchor="middle" x="1326.5" y="-81.8" font-family="Times,serif" font-size="14.00">n kernels: 2</text>
</g>
<!-- 5&#45;&gt;25 -->
<g id="edge25" class="edge"><title>5&#45;&gt;25</title>
<path fill="none" stroke="black" d="M1223.68,-155.46C1242.51,-144.207 1266.94,-129.604 1287.26,-117.456"/>
<polygon fill="black" stroke="black" points="1289.19,-120.379 1295.98,-112.244 1285.6,-114.37 1289.19,-120.379"/>
</g>
<!-- 26 -->
<g id="node27" class="node"><title>26</title>
<path fill="#838d9e" stroke="black" d="M1430.5,-111C1430.5,-111 1396.5,-111 1396.5,-111 1390.5,-111 1384.5,-105 1384.5,-99 1384.5,-99 1384.5,-87 1384.5,-87 1384.5,-81 1390.5,-75 1396.5,-75 1396.5,-75 1430.5,-75 1430.5,-75 1436.5,-75 1442.5,-81 1442.5,-87 1442.5,-87 1442.5,-99 1442.5,-99 1442.5,-105 1436.5,-111 1430.5,-111"/>
<text text-anchor="middle" x="1413.5" y="-89.3" font-family="Times,serif" font-size="14.00">comp 4</text>
</g>
<!-- 5&#45;&gt;26 -->
<g id="edge26" class="edge"><title>5&#45;&gt;26</title>
<path fill="none" stroke="black" d="M1252.74,-155.411C1286.33,-144.711 1329.2,-130.312 1374.74,-112.113"/>
<polygon fill="black" stroke="black" points="1376.23,-115.287 1384.19,-108.297 1373.61,-108.796 1376.23,-115.287"/>
</g>
<!-- 27 -->
<g id="node28" class="node"><title>27</title>
<path fill="#6f7885" stroke="black" d="M1506.5,-111C1506.5,-111 1472.5,-111 1472.5,-111 1466.5,-111 1460.5,-105 1460.5,-99 1460.5,-99 1460.5,-87 1460.5,-87 1460.5,-81 1466.5,-75 1472.5,-75 1472.5,-75 1506.5,-75 1506.5,-75 1512.5,-75 1518.5,-81 1518.5,-87 1518.5,-87 1518.5,-99 1518.5,-99 1518.5,-105 1512.5,-111 1506.5,-111"/>
<text text-anchor="middle" x="1489.5" y="-89.3" font-family="Times,serif" font-size="14.00">comp 5</text>
</g>
<!-- 5&#45;&gt;27 -->
<g id="edge27" class="edge"><title>5&#45;&gt;27</title>
<path fill="none" stroke="black" d="M1279.62,-157.661C1327.91,-147.682 1389.14,-133.206 1450.8,-111.907"/>
<polygon fill="black" stroke="black" points="1452.02,-115.188 1460.3,-108.573 1449.7,-108.583 1452.02,-115.188"/>
</g>
<!-- 28 -->
<g id="node29" class="node"><title>28</title>
<path fill="#d3e4ff" stroke="black" d="M1673,-112C1673,-112 1548,-112 1548,-112 1542,-112 1536,-106 1536,-100 1536,-100 1536,-86 1536,-86 1536,-80 1542,-74 1548,-74 1548,-74 1673,-74 1673,-74 1679,-74 1685,-80 1685,-86 1685,-86 1685,-100 1685,-100 1685,-106 1679,-112 1673,-112"/>
<text text-anchor="middle" x="1610.5" y="-96.8" font-family="Times,serif" font-size="14.00">comp 0</text>
<text text-anchor="middle" x="1610.5" y="-81.8" font-family="Times,serif" font-size="14.00">log gamma2: &#45;0.472426</text>
</g>
<!-- 6&#45;&gt;28 -->
<g id="edge28" class="edge"><title>6&#45;&gt;28</title>
<path fill="none" stroke="black" d="M1891.13,-155.46C1832.6,-142.641 1754.23,-125.477 1695.18,-112.546"/>
<polygon fill="black" stroke="black" points="1695.65,-109.066 1685.14,-110.346 1694.16,-115.904 1695.65,-109.066"/>
</g>
<!-- 29 -->
<g id="node30" class="node"><title>29</title>
<path fill="#bfcfe6" stroke="black" d="M1748.5,-111C1748.5,-111 1714.5,-111 1714.5,-111 1708.5,-111 1702.5,-105 1702.5,-99 1702.5,-99 1702.5,-87 1702.5,-87 1702.5,-81 1708.5,-75 1714.5,-75 1714.5,-75 1748.5,-75 1748.5,-75 1754.5,-75 1760.5,-81 1760.5,-87 1760.5,-87 1760.5,-99 1760.5,-99 1760.5,-105 1754.5,-111 1748.5,-111"/>
<text text-anchor="middle" x="1731.5" y="-89.3" font-family="Times,serif" font-size="14.00">comp 1</text>
</g>
<!-- 6&#45;&gt;29 -->
<g id="edge29" class="edge"><title>6&#45;&gt;29</title>
<path fill="none" stroke="black" d="M1903.29,-155.46C1865.68,-145.095 1818.57,-130.991 1770.17,-112.426"/>
<polygon fill="black" stroke="black" points="1771.38,-109.144 1760.8,-108.781 1768.85,-115.668 1771.38,-109.144"/>
</g>
<!-- 30 -->
<g id="node31" class="node"><title>30</title>
<path fill="#abb9ce" stroke="black" d="M1915,-112C1915,-112 1790,-112 1790,-112 1784,-112 1778,-106 1778,-100 1778,-100 1778,-86 1778,-86 1778,-80 1784,-74 1790,-74 1790,-74 1915,-74 1915,-74 1921,-74 1927,-80 1927,-86 1927,-86 1927,-100 1927,-100 1927,-106 1921,-112 1915,-112"/>
<text text-anchor="middle" x="1852.5" y="-96.8" font-family="Times,serif" font-size="14.00">comp 2</text>
<text text-anchor="middle" x="1852.5" y="-81.8" font-family="Times,serif" font-size="14.00">log gamma2: &#45;0.394207</text>
</g>
<!-- 6&#45;&gt;30 -->
<g id="edge30" class="edge"><title>6&#45;&gt;30</title>
<path fill="none" stroke="black" d="M1946.04,-155.46C1929.15,-144.358 1907.29,-129.996 1888.95,-117.948"/>
<polygon fill="black" stroke="black" points="1890.55,-114.81 1880.27,-112.244 1886.7,-120.66 1890.55,-114.81"/>
</g>
<!-- 31 -->
<g id="node32" class="node"><title>31</title>
<path fill="#97a3b6" stroke="black" d="M1990.5,-111C1990.5,-111 1956.5,-111 1956.5,-111 1950.5,-111 1944.5,-105 1944.5,-99 1944.5,-99 1944.5,-87 1944.5,-87 1944.5,-81 1950.5,-75 1956.5,-75 1956.5,-75 1990.5,-75 1990.5,-75 1996.5,-75 2002.5,-81 2002.5,-87 2002.5,-87 2002.5,-99 2002.5,-99 2002.5,-105 1996.5,-111 1990.5,-111"/>
<text text-anchor="middle" x="1973.5" y="-89.3" font-family="Times,serif" font-size="14.00">comp 3</text>
</g>
<!-- 6&#45;&gt;31 -->
<g id="edge31" class="edge"><title>6&#45;&gt;31</title>
<path fill="none" stroke="black" d="M1973.5,-155.46C1973.5,-145.392 1973.5,-132.644 1973.5,-121.371"/>
<polygon fill="black" stroke="black" points="1977,-121.151 1973.5,-111.151 1970,-121.151 1977,-121.151"/>
</g>
<!-- 32 -->
<g id="node33" class="node"><title>32</title>
<path fill="#838d9e" stroke="black" d="M2066.5,-111C2066.5,-111 2032.5,-111 2032.5,-111 2026.5,-111 2020.5,-105 2020.5,-99 2020.5,-99 2020.5,-87 2020.5,-87 2020.5,-81 2026.5,-75 2032.5,-75 2032.5,-75 2066.5,-75 2066.5,-75 2072.5,-75 2078.5,-81 2078.5,-87 2078.5,-87 2078.5,-99 2078.5,-99 2078.5,-105 2072.5,-111 2066.5,-111"/>
<text text-anchor="middle" x="2049.5" y="-89.3" font-family="Times,serif" font-size="14.00">comp 4</text>
</g>
<!-- 6&#45;&gt;32 -->
<g id="edge32" class="edge"><title>6&#45;&gt;32</title>
<path fill="none" stroke="black" d="M1990.75,-155.46C2001.16,-144.562 2014.59,-130.523 2025.97,-118.614"/>
<polygon fill="black" stroke="black" points="2028.72,-120.798 2033.1,-111.151 2023.66,-115.961 2028.72,-120.798"/>
</g>
<!-- 33 -->
<g id="node34" class="node"><title>33</title>
<path fill="#6f7885" stroke="black" d="M2142.5,-111C2142.5,-111 2108.5,-111 2108.5,-111 2102.5,-111 2096.5,-105 2096.5,-99 2096.5,-99 2096.5,-87 2096.5,-87 2096.5,-81 2102.5,-75 2108.5,-75 2108.5,-75 2142.5,-75 2142.5,-75 2148.5,-75 2154.5,-81 2154.5,-87 2154.5,-87 2154.5,-99 2154.5,-99 2154.5,-105 2148.5,-111 2142.5,-111"/>
<text text-anchor="middle" x="2125.5" y="-89.3" font-family="Times,serif" font-size="14.00">comp 5</text>
</g>
<!-- 6&#45;&gt;33 -->
<g id="edge33" class="edge"><title>6&#45;&gt;33</title>
<path fill="none" stroke="black" d="M2007.99,-155.46C2031.6,-143.111 2062.92,-126.729 2087.29,-113.984"/>
<polygon fill="black" stroke="black" points="2089.02,-117.029 2096.26,-109.293 2085.78,-110.826 2089.02,-117.029"/>
</g>
<!-- 34 -->
<g id="node35" class="node"><title>34</title>
<path fill="#d3e4ff" stroke="black" d="M2286.5,-111C2286.5,-111 2252.5,-111 2252.5,-111 2246.5,-111 2240.5,-105 2240.5,-99 2240.5,-99 2240.5,-87 2240.5,-87 2240.5,-81 2246.5,-75 2252.5,-75 2252.5,-75 2286.5,-75 2286.5,-75 2292.5,-75 2298.5,-81 2298.5,-87 2298.5,-87 2298.5,-99 2298.5,-99 2298.5,-105 2292.5,-111 2286.5,-111"/>
<text text-anchor="middle" x="2269.5" y="-89.3" font-family="Times,serif" font-size="14.00">comp 0</text>
</g>
<!-- 7&#45;&gt;34 -->
<g id="edge34" class="edge"><title>7&#45;&gt;34</title>
<path fill="none" stroke="black" d="M2404.96,-147.903C2376.63,-138.299 2344.45,-126.831 2308.14,-112.09"/>
<polygon fill="black" stroke="black" points="2309.4,-108.825 2298.82,-108.271 2306.74,-115.302 2309.4,-108.825"/>
</g>
<!-- 35 -->
<g id="node36" class="node"><title>35</title>
<path fill="#bfcfe6" stroke="black" d="M2362.5,-111C2362.5,-111 2328.5,-111 2328.5,-111 2322.5,-111 2316.5,-105 2316.5,-99 2316.5,-99 2316.5,-87 2316.5,-87 2316.5,-81 2322.5,-75 2328.5,-75 2328.5,-75 2362.5,-75 2362.5,-75 2368.5,-75 2374.5,-81 2374.5,-87 2374.5,-87 2374.5,-99 2374.5,-99 2374.5,-105 2368.5,-111 2362.5,-111"/>
<text text-anchor="middle" x="2345.5" y="-89.3" font-family="Times,serif" font-size="14.00">comp 1</text>
</g>
<!-- 7&#45;&gt;35 -->
<g id="edge35" class="edge"><title>7&#45;&gt;35</title>
<path fill="none" stroke="black" d="M2439.75,-147.908C2421.64,-137.549 2400.95,-125.714 2383.58,-115.777"/>
<polygon fill="black" stroke="black" points="2385.24,-112.698 2374.82,-110.772 2381.77,-118.775 2385.24,-112.698"/>
</g>
<!-- 36 -->
<g id="node37" class="node"><title>36</title>
<path fill="#abb9ce" stroke="black" d="M2472.5,-112C2472.5,-112 2404.5,-112 2404.5,-112 2398.5,-112 2392.5,-106 2392.5,-100 2392.5,-100 2392.5,-86 2392.5,-86 2392.5,-80 2398.5,-74 2404.5,-74 2404.5,-74 2472.5,-74 2472.5,-74 2478.5,-74 2484.5,-80 2484.5,-86 2484.5,-86 2484.5,-100 2484.5,-100 2484.5,-106 2478.5,-112 2472.5,-112"/>
<text text-anchor="middle" x="2438.5" y="-96.8" font-family="Times,serif" font-size="14.00">comp 2</text>
<text text-anchor="middle" x="2438.5" y="-81.8" font-family="Times,serif" font-size="14.00">n kernels: &#45;10</text>
</g>
<!-- 7&#45;&gt;36 -->
<g id="edge36" class="edge"><title>7&#45;&gt;36</title>
<path fill="none" stroke="black" d="M2469.69,-147.908C2464.7,-139.284 2459.12,-129.637 2454.07,-120.913"/>
<polygon fill="black" stroke="black" points="2457.09,-119.142 2449.05,-112.239 2451.03,-122.647 2457.09,-119.142"/>
</g>
<!-- 37 -->
<g id="node38" class="node"><title>37</title>
<path fill="#97a3b6" stroke="black" d="M2548.5,-111C2548.5,-111 2514.5,-111 2514.5,-111 2508.5,-111 2502.5,-105 2502.5,-99 2502.5,-99 2502.5,-87 2502.5,-87 2502.5,-81 2508.5,-75 2514.5,-75 2514.5,-75 2548.5,-75 2548.5,-75 2554.5,-75 2560.5,-81 2560.5,-87 2560.5,-87 2560.5,-99 2560.5,-99 2560.5,-105 2554.5,-111 2548.5,-111"/>
<text text-anchor="middle" x="2531.5" y="-89.3" font-family="Times,serif" font-size="14.00">comp 3</text>
</g>
<!-- 7&#45;&gt;37 -->
<g id="edge37" class="edge"><title>7&#45;&gt;37</title>
<path fill="none" stroke="black" d="M2499.63,-147.908C2504.89,-139.014 2510.79,-129.033 2516.07,-120.098"/>
<polygon fill="black" stroke="black" points="2519.22,-121.646 2521.3,-111.256 2513.2,-118.083 2519.22,-121.646"/>
</g>
<!-- 38 -->
<g id="node39" class="node"><title>38</title>
<path fill="#838d9e" stroke="black" d="M2624.5,-111C2624.5,-111 2590.5,-111 2590.5,-111 2584.5,-111 2578.5,-105 2578.5,-99 2578.5,-99 2578.5,-87 2578.5,-87 2578.5,-81 2584.5,-75 2590.5,-75 2590.5,-75 2624.5,-75 2624.5,-75 2630.5,-75 2636.5,-81 2636.5,-87 2636.5,-87 2636.5,-99 2636.5,-99 2636.5,-105 2630.5,-111 2624.5,-111"/>
<text text-anchor="middle" x="2607.5" y="-89.3" font-family="Times,serif" font-size="14.00">comp 4</text>
</g>
<!-- 7&#45;&gt;38 -->
<g id="edge38" class="edge"><title>7&#45;&gt;38</title>
<path fill="none" stroke="black" d="M2524.1,-147.908C2539.71,-137.815 2557.49,-126.321 2572.62,-116.546"/>
<polygon fill="black" stroke="black" points="2574.68,-119.381 2581.18,-111.014 2570.88,-113.502 2574.68,-119.381"/>
</g>
<!-- 39 -->
<g id="node40" class="node"><title>39</title>
<path fill="#6f7885" stroke="black" d="M2791,-112C2791,-112 2666,-112 2666,-112 2660,-112 2654,-106 2654,-100 2654,-100 2654,-86 2654,-86 2654,-80 2660,-74 2666,-74 2666,-74 2791,-74 2791,-74 2797,-74 2803,-80 2803,-86 2803,-86 2803,-100 2803,-100 2803,-106 2797,-112 2791,-112"/>
<text text-anchor="middle" x="2728.5" y="-96.8" font-family="Times,serif" font-size="14.00">comp 5</text>
<text text-anchor="middle" x="2728.5" y="-81.8" font-family="Times,serif" font-size="14.00">log gamma2: &#45;0.452855</text>
</g>
<!-- 7&#45;&gt;39 -->
<g id="edge39" class="edge"><title>7&#45;&gt;39</title>
<path fill="none" stroke="black" d="M2563.05,-147.908C2595.35,-137.382 2632.34,-125.332 2663.13,-115.298"/>
<polygon fill="black" stroke="black" points="2664.48,-118.541 2672.9,-112.115 2662.31,-111.885 2664.48,-118.541"/>
</g>
<!-- 40 -->
<g id="node41" class="node"><title>40</title>
<path fill="#d3e4ff" stroke="black" d="M2894,-112C2894,-112 2833,-112 2833,-112 2827,-112 2821,-106 2821,-100 2821,-100 2821,-86 2821,-86 2821,-80 2827,-74 2833,-74 2833,-74 2894,-74 2894,-74 2900,-74 2906,-80 2906,-86 2906,-86 2906,-100 2906,-100 2906,-106 2900,-112 2894,-112"/>
<text text-anchor="middle" x="2863.5" y="-96.8" font-family="Times,serif" font-size="14.00">comp 0</text>
<text text-anchor="middle" x="2863.5" y="-81.8" font-family="Times,serif" font-size="14.00">n kernels: &#45;3</text>
</g>
<!-- 8&#45;&gt;40 -->
<g id="edge40" class="edge"><title>8&#45;&gt;40</title>
<path fill="none" stroke="black" d="M2991.83,-155.46C2967.72,-143.913 2936.25,-128.841 2910.51,-116.512"/>
<polygon fill="black" stroke="black" points="2911.84,-113.269 2901.31,-112.106 2908.81,-119.582 2911.84,-113.269"/>
</g>
<!-- 41 -->
<g id="node42" class="node"><title>41</title>
<path fill="#bfcfe6" stroke="black" d="M2970.5,-111C2970.5,-111 2936.5,-111 2936.5,-111 2930.5,-111 2924.5,-105 2924.5,-99 2924.5,-99 2924.5,-87 2924.5,-87 2924.5,-81 2930.5,-75 2936.5,-75 2936.5,-75 2970.5,-75 2970.5,-75 2976.5,-75 2982.5,-81 2982.5,-87 2982.5,-87 2982.5,-99 2982.5,-99 2982.5,-105 2976.5,-111 2970.5,-111"/>
<text text-anchor="middle" x="2953.5" y="-89.3" font-family="Times,serif" font-size="14.00">comp 1</text>
</g>
<!-- 8&#45;&gt;41 -->
<g id="edge41" class="edge"><title>8&#45;&gt;41</title>
<path fill="none" stroke="black" d="M3012.25,-155.46C3001.84,-144.562 2988.41,-130.523 2977.03,-118.614"/>
<polygon fill="black" stroke="black" points="2979.34,-115.961 2969.9,-111.151 2974.28,-120.798 2979.34,-115.961"/>
</g>
<!-- 42 -->
<g id="node43" class="node"><title>42</title>
<path fill="#abb9ce" stroke="black" d="M3046.5,-111C3046.5,-111 3012.5,-111 3012.5,-111 3006.5,-111 3000.5,-105 3000.5,-99 3000.5,-99 3000.5,-87 3000.5,-87 3000.5,-81 3006.5,-75 3012.5,-75 3012.5,-75 3046.5,-75 3046.5,-75 3052.5,-75 3058.5,-81 3058.5,-87 3058.5,-87 3058.5,-99 3058.5,-99 3058.5,-105 3052.5,-111 3046.5,-111"/>
<text text-anchor="middle" x="3029.5" y="-89.3" font-family="Times,serif" font-size="14.00">comp 2</text>
</g>
<!-- 8&#45;&gt;42 -->
<g id="edge42" class="edge"><title>8&#45;&gt;42</title>
<path fill="none" stroke="black" d="M3029.5,-155.46C3029.5,-145.392 3029.5,-132.644 3029.5,-121.371"/>
<polygon fill="black" stroke="black" points="3033,-121.151 3029.5,-111.151 3026,-121.151 3033,-121.151"/>
</g>
<!-- 43 -->
<g id="node44" class="node"><title>43</title>
<path fill="#97a3b6" stroke="black" d="M3122.5,-111C3122.5,-111 3088.5,-111 3088.5,-111 3082.5,-111 3076.5,-105 3076.5,-99 3076.5,-99 3076.5,-87 3076.5,-87 3076.5,-81 3082.5,-75 3088.5,-75 3088.5,-75 3122.5,-75 3122.5,-75 3128.5,-75 3134.5,-81 3134.5,-87 3134.5,-87 3134.5,-99 3134.5,-99 3134.5,-105 3128.5,-111 3122.5,-111"/>
<text text-anchor="middle" x="3105.5" y="-89.3" font-family="Times,serif" font-size="14.00">comp 3</text>
</g>
<!-- 8&#45;&gt;43 -->
<g id="edge43" class="edge"><title>8&#45;&gt;43</title>
<path fill="none" stroke="black" d="M3046.75,-155.46C3057.16,-144.562 3070.59,-130.523 3081.97,-118.614"/>
<polygon fill="black" stroke="black" points="3084.72,-120.798 3089.1,-111.151 3079.66,-115.961 3084.72,-120.798"/>
</g>
<!-- 44 -->
<g id="node45" class="node"><title>44</title>
<path fill="#838d9e" stroke="black" d="M3200.5,-111C3200.5,-111 3166.5,-111 3166.5,-111 3160.5,-111 3154.5,-105 3154.5,-99 3154.5,-99 3154.5,-87 3154.5,-87 3154.5,-81 3160.5,-75 3166.5,-75 3166.5,-75 3200.5,-75 3200.5,-75 3206.5,-75 3212.5,-81 3212.5,-87 3212.5,-87 3212.5,-99 3212.5,-99 3212.5,-105 3206.5,-111 3200.5,-111"/>
<text text-anchor="middle" x="3183.5" y="-89.3" font-family="Times,serif" font-size="14.00">comp 4</text>
</g>
<!-- 8&#45;&gt;44 -->
<g id="edge44" class="edge"><title>8&#45;&gt;44</title>
<path fill="none" stroke="black" d="M3064.44,-155.46C3088.52,-143.03 3120.52,-126.513 3145.28,-113.733"/>
<polygon fill="black" stroke="black" points="3147.1,-116.731 3154.38,-109.034 3143.89,-110.511 3147.1,-116.731"/>
</g>
<!-- 45 -->
<g id="node46" class="node"><title>45</title>
<path fill="#6f7885" stroke="black" d="M3276.5,-111C3276.5,-111 3242.5,-111 3242.5,-111 3236.5,-111 3230.5,-105 3230.5,-99 3230.5,-99 3230.5,-87 3230.5,-87 3230.5,-81 3236.5,-75 3242.5,-75 3242.5,-75 3276.5,-75 3276.5,-75 3282.5,-75 3288.5,-81 3288.5,-87 3288.5,-87 3288.5,-99 3288.5,-99 3288.5,-105 3282.5,-111 3276.5,-111"/>
<text text-anchor="middle" x="3259.5" y="-89.3" font-family="Times,serif" font-size="14.00">comp 5</text>
</g>
<!-- 8&#45;&gt;45 -->
<g id="edge45" class="edge"><title>8&#45;&gt;45</title>
<path fill="none" stroke="black" d="M3092.93,-155.488C3128.34,-144.9 3173.31,-130.578 3220.7,-112.096"/>
<polygon fill="black" stroke="black" points="3222.19,-115.27 3230.21,-108.344 3219.62,-108.759 3222.19,-115.27"/>
</g>
<!-- 46 -->
<g id="node47" class="node"><title>46</title>
<path fill="#d3e4ff" stroke="black" d="M3374.5,-112C3374.5,-112 3318.5,-112 3318.5,-112 3312.5,-112 3306.5,-106 3306.5,-100 3306.5,-100 3306.5,-86 3306.5,-86 3306.5,-80 3312.5,-74 3318.5,-74 3318.5,-74 3374.5,-74 3374.5,-74 3380.5,-74 3386.5,-80 3386.5,-86 3386.5,-86 3386.5,-100 3386.5,-100 3386.5,-106 3380.5,-112 3374.5,-112"/>
<text text-anchor="middle" x="3346.5" y="-96.8" font-family="Times,serif" font-size="14.00">comp 0</text>
<text text-anchor="middle" x="3346.5" y="-81.8" font-family="Times,serif" font-size="14.00">n kernels: 4</text>
</g>
<!-- 9&#45;&gt;46 -->
<g id="edge46" class="edge"><title>9&#45;&gt;46</title>
<path fill="none" stroke="black" d="M3500.45,-156.445C3469.97,-144.082 3428.64,-127.315 3396.47,-114.268"/>
<polygon fill="black" stroke="black" points="3397.38,-110.863 3386.8,-110.347 3394.75,-117.349 3397.38,-110.863"/>
</g>
<!-- 47 -->
<g id="node48" class="node"><title>47</title>
<path fill="#bfcfe6" stroke="black" d="M3536.5,-112C3536.5,-112 3416.5,-112 3416.5,-112 3410.5,-112 3404.5,-106 3404.5,-100 3404.5,-100 3404.5,-86 3404.5,-86 3404.5,-80 3410.5,-74 3416.5,-74 3416.5,-74 3536.5,-74 3536.5,-74 3542.5,-74 3548.5,-80 3548.5,-86 3548.5,-86 3548.5,-100 3548.5,-100 3548.5,-106 3542.5,-112 3536.5,-112"/>
<text text-anchor="middle" x="3476.5" y="-96.8" font-family="Times,serif" font-size="14.00">comp 1</text>
<text text-anchor="middle" x="3476.5" y="-81.8" font-family="Times,serif" font-size="14.00">log gamma1: 0.336490</text>
</g>
<!-- 9&#45;&gt;47 -->
<g id="edge47" class="edge"><title>9&#45;&gt;47</title>
<path fill="none" stroke="black" d="M3528.18,-156.25C3519.37,-145.638 3507.91,-131.836 3498.02,-119.925"/>
<polygon fill="black" stroke="black" points="3500.56,-117.503 3491.48,-112.044 3495.17,-121.974 3500.56,-117.503"/>
</g>
<!-- 48 -->
<g id="node49" class="node"><title>48</title>
<path fill="#abb9ce" stroke="black" d="M3640,-112C3640,-112 3579,-112 3579,-112 3573,-112 3567,-106 3567,-100 3567,-100 3567,-86 3567,-86 3567,-80 3573,-74 3579,-74 3579,-74 3640,-74 3640,-74 3646,-74 3652,-80 3652,-86 3652,-86 3652,-100 3652,-100 3652,-106 3646,-112 3640,-112"/>
<text text-anchor="middle" x="3609.5" y="-96.8" font-family="Times,serif" font-size="14.00">comp 2</text>
<text text-anchor="middle" x="3609.5" y="-81.8" font-family="Times,serif" font-size="14.00">n kernels: &#45;3</text>
</g>
<!-- 9&#45;&gt;48 -->
<g id="edge48" class="edge"><title>9&#45;&gt;48</title>
<path fill="none" stroke="black" d="M3557.04,-156.25C3565.98,-145.638 3577.61,-131.836 3587.65,-119.925"/>
<polygon fill="black" stroke="black" points="3590.52,-121.947 3594.29,-112.044 3585.17,-117.436 3590.52,-121.947"/>
</g>
<!-- 49 -->
<g id="node50" class="node"><title>49</title>
<path fill="#97a3b6" stroke="black" d="M3716.5,-111C3716.5,-111 3682.5,-111 3682.5,-111 3676.5,-111 3670.5,-105 3670.5,-99 3670.5,-99 3670.5,-87 3670.5,-87 3670.5,-81 3676.5,-75 3682.5,-75 3682.5,-75 3716.5,-75 3716.5,-75 3722.5,-75 3728.5,-81 3728.5,-87 3728.5,-87 3728.5,-99 3728.5,-99 3728.5,-105 3722.5,-111 3716.5,-111"/>
<text text-anchor="middle" x="3699.5" y="-89.3" font-family="Times,serif" font-size="14.00">comp 3</text>
</g>
<!-- 9&#45;&gt;49 -->
<g id="edge49" class="edge"><title>9&#45;&gt;49</title>
<path fill="none" stroke="black" d="M3576.18,-156.445C3601.14,-143.808 3635.18,-126.568 3661.18,-113.404"/>
<polygon fill="black" stroke="black" points="3663.02,-116.395 3670.36,-108.755 3659.86,-110.15 3663.02,-116.395"/>
</g>
<!-- 50 -->
<g id="node51" class="node"><title>50</title>
<path fill="#838d9e" stroke="black" d="M3793.5,-111C3793.5,-111 3759.5,-111 3759.5,-111 3753.5,-111 3747.5,-105 3747.5,-99 3747.5,-99 3747.5,-87 3747.5,-87 3747.5,-81 3753.5,-75 3759.5,-75 3759.5,-75 3793.5,-75 3793.5,-75 3799.5,-75 3805.5,-81 3805.5,-87 3805.5,-87 3805.5,-99 3805.5,-99 3805.5,-105 3799.5,-111 3793.5,-111"/>
<text text-anchor="middle" x="3776.5" y="-89.3" font-family="Times,serif" font-size="14.00">comp 4</text>
</g>
<!-- 9&#45;&gt;50 -->
<g id="edge50" class="edge"><title>9&#45;&gt;50</title>
<path fill="none" stroke="black" d="M3592.39,-159.664C3632.15,-148.185 3689,-130.755 3737.5,-112 3737.6,-111.961 3737.7,-111.923 3737.8,-111.884"/>
<polygon fill="black" stroke="black" points="3739.38,-115.019 3747.28,-107.968 3736.71,-108.549 3739.38,-115.019"/>
</g>
<!-- 51 -->
<g id="node52" class="node"><title>51</title>
<path fill="#f6d3ff" stroke="black" d="M47,-38C47,-38 12,-38 12,-38 6,-38 0,-32 0,-26 0,-26 0,-12 0,-12 0,-6 6,-0 12,-0 12,-0 47,-0 47,-0 53,-0 59,-6 59,-12 59,-12 59,-26 59,-26 59,-32 53,-38 47,-38"/>
<text text-anchor="middle" x="29.5" y="-22.8" font-family="Times,serif" font-size="14.00">forward</text>
<text text-anchor="middle" x="29.5" y="-7.8" font-family="Times,serif" font-size="14.00">input</text>
</g>
<!-- 10&#45;&gt;51 -->
<g id="edge51" class="edge"><title>10&#45;&gt;51</title>
<path fill="none" stroke="black" d="M31.026,-74.937C30.8052,-66.9865 30.5365,-57.3134 30.2865,-48.3127"/>
<polygon fill="black" stroke="black" points="33.7819,-48.0981 30.0055,-38.1992 26.7846,-48.2925 33.7819,-48.0981"/>
</g>
<!-- 52 -->
<g id="node53" class="node"><title>52</title>
<path fill="#f6d3ff" stroke="black" d="M125.5,-38C125.5,-38 89.5,-38 89.5,-38 83.5,-38 77.5,-32 77.5,-26 77.5,-26 77.5,-12 77.5,-12 77.5,-6 83.5,-0 89.5,-0 89.5,-0 125.5,-0 125.5,-0 131.5,-0 137.5,-6 137.5,-12 137.5,-12 137.5,-26 137.5,-26 137.5,-32 131.5,-38 125.5,-38"/>
<text text-anchor="middle" x="107.5" y="-22.8" font-family="Times,serif" font-size="14.00">forward</text>
<text text-anchor="middle" x="107.5" y="-7.8" font-family="Times,serif" font-size="14.00">EB0/C0</text>
</g>
<!-- 11&#45;&gt;52 -->
<g id="edge52" class="edge"><title>11&#45;&gt;52</title>
<path fill="none" stroke="black" d="M108.263,-74.937C108.153,-66.9865 108.018,-57.3134 107.893,-48.3127"/>
<polygon fill="black" stroke="black" points="111.391,-48.1496 107.753,-38.1992 104.392,-48.2468 111.391,-48.1496"/>
</g>
<!-- 53 -->
<g id="node54" class="node"><title>53</title>
<path fill="#f6d3ff" stroke="black" d="M203.5,-38C203.5,-38 167.5,-38 167.5,-38 161.5,-38 155.5,-32 155.5,-26 155.5,-26 155.5,-12 155.5,-12 155.5,-6 161.5,-0 167.5,-0 167.5,-0 203.5,-0 203.5,-0 209.5,-0 215.5,-6 215.5,-12 215.5,-12 215.5,-26 215.5,-26 215.5,-32 209.5,-38 203.5,-38"/>
<text text-anchor="middle" x="185.5" y="-22.8" font-family="Times,serif" font-size="14.00">forward</text>
<text text-anchor="middle" x="185.5" y="-7.8" font-family="Times,serif" font-size="14.00">EB0/C1</text>
</g>
<!-- 12&#45;&gt;53 -->
<g id="edge53" class="edge"><title>12&#45;&gt;53</title>
<path fill="none" stroke="black" d="M185.5,-74.937C185.5,-66.9865 185.5,-57.3134 185.5,-48.3127"/>
<polygon fill="black" stroke="black" points="189,-48.1991 185.5,-38.1992 182,-48.1992 189,-48.1991"/>
</g>
<!-- 54 -->
<g id="node55" class="node"><title>54</title>
<path fill="#f6d3ff" stroke="black" d="M281.5,-38C281.5,-38 245.5,-38 245.5,-38 239.5,-38 233.5,-32 233.5,-26 233.5,-26 233.5,-12 233.5,-12 233.5,-6 239.5,-0 245.5,-0 245.5,-0 281.5,-0 281.5,-0 287.5,-0 293.5,-6 293.5,-12 293.5,-12 293.5,-26 293.5,-26 293.5,-32 287.5,-38 281.5,-38"/>
<text text-anchor="middle" x="263.5" y="-22.8" font-family="Times,serif" font-size="14.00">forward</text>
<text text-anchor="middle" x="263.5" y="-7.8" font-family="Times,serif" font-size="14.00">EB0/C2</text>
</g>
<!-- 13&#45;&gt;54 -->
<g id="edge54" class="edge"><title>13&#45;&gt;54</title>
<path fill="none" stroke="black" d="M262.737,-74.937C262.847,-66.9865 262.982,-57.3134 263.107,-48.3127"/>
<polygon fill="black" stroke="black" points="266.608,-48.2468 263.247,-38.1992 259.609,-48.1496 266.608,-48.2468"/>
</g>
<!-- 55 -->
<g id="node56" class="node"><title>55</title>
<path fill="#f6d3ff" stroke="black" d="M359.5,-38C359.5,-38 323.5,-38 323.5,-38 317.5,-38 311.5,-32 311.5,-26 311.5,-26 311.5,-12 311.5,-12 311.5,-6 317.5,-0 323.5,-0 323.5,-0 359.5,-0 359.5,-0 365.5,-0 371.5,-6 371.5,-12 371.5,-12 371.5,-26 371.5,-26 371.5,-32 365.5,-38 359.5,-38"/>
<text text-anchor="middle" x="341.5" y="-22.8" font-family="Times,serif" font-size="14.00">forward</text>
<text text-anchor="middle" x="341.5" y="-7.8" font-family="Times,serif" font-size="14.00">EB0/C3</text>
</g>
<!-- 14&#45;&gt;55 -->
<g id="edge55" class="edge"><title>14&#45;&gt;55</title>
<path fill="none" stroke="black" d="M339.211,-74.937C339.542,-66.9865 339.945,-57.3134 340.32,-48.3127"/>
<polygon fill="black" stroke="black" points="343.822,-48.3362 340.742,-38.1992 336.828,-48.0448 343.822,-48.3362"/>
</g>
<!-- 56 -->
<g id="node57" class="node"><title>56</title>
<path fill="#f6d3ff" stroke="black" d="M437.5,-38C437.5,-38 401.5,-38 401.5,-38 395.5,-38 389.5,-32 389.5,-26 389.5,-26 389.5,-12 389.5,-12 389.5,-6 395.5,-0 401.5,-0 401.5,-0 437.5,-0 437.5,-0 443.5,-0 449.5,-6 449.5,-12 449.5,-12 449.5,-26 449.5,-26 449.5,-32 443.5,-38 437.5,-38"/>
<text text-anchor="middle" x="419.5" y="-22.8" font-family="Times,serif" font-size="14.00">forward</text>
<text text-anchor="middle" x="419.5" y="-7.8" font-family="Times,serif" font-size="14.00">EB0/C4</text>
</g>
<!-- 15&#45;&gt;56 -->
<g id="edge56" class="edge"><title>15&#45;&gt;56</title>
<path fill="none" stroke="black" d="M415.685,-74.937C416.237,-66.9865 416.909,-57.3134 417.534,-48.3127"/>
<polygon fill="black" stroke="black" points="421.035,-48.4176 418.236,-38.1992 414.052,-47.9326 421.035,-48.4176"/>
</g>
<!-- 57 -->
<g id="node58" class="node"><title>57</title>
<path fill="#f6d3ff" stroke="black" d="M519.5,-38C519.5,-38 483.5,-38 483.5,-38 477.5,-38 471.5,-32 471.5,-26 471.5,-26 471.5,-12 471.5,-12 471.5,-6 477.5,-0 483.5,-0 483.5,-0 519.5,-0 519.5,-0 525.5,-0 531.5,-6 531.5,-12 531.5,-12 531.5,-26 531.5,-26 531.5,-32 525.5,-38 519.5,-38"/>
<text text-anchor="middle" x="501.5" y="-22.8" font-family="Times,serif" font-size="14.00">forward</text>
<text text-anchor="middle" x="501.5" y="-7.8" font-family="Times,serif" font-size="14.00">EB0/C5</text>
</g>
<!-- 16&#45;&gt;57 -->
<g id="edge57" class="edge"><title>16&#45;&gt;57</title>
<path fill="none" stroke="black" d="M501.5,-73.8314C501.5,-66.131 501.5,-56.9743 501.5,-48.4166"/>
<polygon fill="black" stroke="black" points="505,-48.4132 501.5,-38.4133 498,-48.4133 505,-48.4132"/>
</g>
<!-- 58 -->
<g id="node59" class="node"><title>58</title>
<path fill="#f6d3ff" stroke="black" d="M603.5,-38C603.5,-38 567.5,-38 567.5,-38 561.5,-38 555.5,-32 555.5,-26 555.5,-26 555.5,-12 555.5,-12 555.5,-6 561.5,-0 567.5,-0 567.5,-0 603.5,-0 603.5,-0 609.5,-0 615.5,-6 615.5,-12 615.5,-12 615.5,-26 615.5,-26 615.5,-32 609.5,-38 603.5,-38"/>
<text text-anchor="middle" x="585.5" y="-22.8" font-family="Times,serif" font-size="14.00">forward</text>
<text text-anchor="middle" x="585.5" y="-7.8" font-family="Times,serif" font-size="14.00">EB1/C0</text>
</g>
<!-- 17&#45;&gt;58 -->
<g id="edge58" class="edge"><title>17&#45;&gt;58</title>
<path fill="none" stroke="black" d="M587.789,-74.937C587.458,-66.9865 587.055,-57.3134 586.68,-48.3127"/>
<polygon fill="black" stroke="black" points="590.172,-48.0448 586.258,-38.1992 583.178,-48.3362 590.172,-48.0448"/>
</g>
<!-- 59 -->
<g id="node60" class="node"><title>59</title>
<path fill="#f6d3ff" stroke="black" d="M681.5,-38C681.5,-38 645.5,-38 645.5,-38 639.5,-38 633.5,-32 633.5,-26 633.5,-26 633.5,-12 633.5,-12 633.5,-6 639.5,-0 645.5,-0 645.5,-0 681.5,-0 681.5,-0 687.5,-0 693.5,-6 693.5,-12 693.5,-12 693.5,-26 693.5,-26 693.5,-32 687.5,-38 681.5,-38"/>
<text text-anchor="middle" x="663.5" y="-22.8" font-family="Times,serif" font-size="14.00">forward</text>
<text text-anchor="middle" x="663.5" y="-7.8" font-family="Times,serif" font-size="14.00">EB1/C1</text>
</g>
<!-- 18&#45;&gt;59 -->
<g id="edge59" class="edge"><title>18&#45;&gt;59</title>
<path fill="none" stroke="black" d="M664.263,-74.937C664.153,-66.9865 664.018,-57.3134 663.893,-48.3127"/>
<polygon fill="black" stroke="black" points="667.391,-48.1496 663.753,-38.1992 660.392,-48.2468 667.391,-48.1496"/>
</g>
<!-- 60 -->
<g id="node61" class="node"><title>60</title>
<path fill="#f6d3ff" stroke="black" d="M759.5,-38C759.5,-38 723.5,-38 723.5,-38 717.5,-38 711.5,-32 711.5,-26 711.5,-26 711.5,-12 711.5,-12 711.5,-6 717.5,-0 723.5,-0 723.5,-0 759.5,-0 759.5,-0 765.5,-0 771.5,-6 771.5,-12 771.5,-12 771.5,-26 771.5,-26 771.5,-32 765.5,-38 759.5,-38"/>
<text text-anchor="middle" x="741.5" y="-22.8" font-family="Times,serif" font-size="14.00">forward</text>
<text text-anchor="middle" x="741.5" y="-7.8" font-family="Times,serif" font-size="14.00">EB1/C2</text>
</g>
<!-- 19&#45;&gt;60 -->
<g id="edge60" class="edge"><title>19&#45;&gt;60</title>
<path fill="none" stroke="black" d="M740.737,-74.937C740.847,-66.9865 740.982,-57.3134 741.107,-48.3127"/>
<polygon fill="black" stroke="black" points="744.608,-48.2468 741.247,-38.1992 737.609,-48.1496 744.608,-48.2468"/>
</g>
<!-- 61 -->
<g id="node62" class="node"><title>61</title>
<path fill="#f6d3ff" stroke="black" d="M837.5,-38C837.5,-38 801.5,-38 801.5,-38 795.5,-38 789.5,-32 789.5,-26 789.5,-26 789.5,-12 789.5,-12 789.5,-6 795.5,-0 801.5,-0 801.5,-0 837.5,-0 837.5,-0 843.5,-0 849.5,-6 849.5,-12 849.5,-12 849.5,-26 849.5,-26 849.5,-32 843.5,-38 837.5,-38"/>
<text text-anchor="middle" x="819.5" y="-22.8" font-family="Times,serif" font-size="14.00">forward</text>
<text text-anchor="middle" x="819.5" y="-7.8" font-family="Times,serif" font-size="14.00">EB1/C3</text>
</g>
<!-- 20&#45;&gt;61 -->
<g id="edge61" class="edge"><title>20&#45;&gt;61</title>
<path fill="none" stroke="black" d="M817.211,-74.937C817.542,-66.9865 817.945,-57.3134 818.32,-48.3127"/>
<polygon fill="black" stroke="black" points="821.822,-48.3362 818.742,-38.1992 814.828,-48.0448 821.822,-48.3362"/>
</g>
<!-- 62 -->
<g id="node63" class="node"><title>62</title>
<path fill="#f6d3ff" stroke="black" d="M924.5,-38C924.5,-38 888.5,-38 888.5,-38 882.5,-38 876.5,-32 876.5,-26 876.5,-26 876.5,-12 876.5,-12 876.5,-6 882.5,-0 888.5,-0 888.5,-0 924.5,-0 924.5,-0 930.5,-0 936.5,-6 936.5,-12 936.5,-12 936.5,-26 936.5,-26 936.5,-32 930.5,-38 924.5,-38"/>
<text text-anchor="middle" x="906.5" y="-22.8" font-family="Times,serif" font-size="14.00">forward</text>
<text text-anchor="middle" x="906.5" y="-7.8" font-family="Times,serif" font-size="14.00">EB1/C4</text>
</g>
<!-- 21&#45;&gt;62 -->
<g id="edge62" class="edge"><title>21&#45;&gt;62</title>
<path fill="none" stroke="black" d="M906.5,-73.8314C906.5,-66.131 906.5,-56.9743 906.5,-48.4166"/>
<polygon fill="black" stroke="black" points="910,-48.4132 906.5,-38.4133 903,-48.4133 910,-48.4132"/>
</g>
<!-- 63 -->
<g id="node64" class="node"><title>63</title>
<path fill="#f6d3ff" stroke="black" d="M1013.5,-38C1013.5,-38 977.5,-38 977.5,-38 971.5,-38 965.5,-32 965.5,-26 965.5,-26 965.5,-12 965.5,-12 965.5,-6 971.5,-0 977.5,-0 977.5,-0 1013.5,-0 1013.5,-0 1019.5,-0 1025.5,-6 1025.5,-12 1025.5,-12 1025.5,-26 1025.5,-26 1025.5,-32 1019.5,-38 1013.5,-38"/>
<text text-anchor="middle" x="995.5" y="-22.8" font-family="Times,serif" font-size="14.00">forward</text>
<text text-anchor="middle" x="995.5" y="-7.8" font-family="Times,serif" font-size="14.00">EB1/C5</text>
</g>
<!-- 22&#45;&gt;63 -->
<g id="edge63" class="edge"><title>22&#45;&gt;63</title>
<path fill="none" stroke="black" d="M996.263,-74.937C996.153,-66.9865 996.018,-57.3134 995.893,-48.3127"/>
<polygon fill="black" stroke="black" points="999.391,-48.1496 995.753,-38.1992 992.392,-48.2468 999.391,-48.1496"/>
</g>
<!-- 64 -->
<g id="node65" class="node"><title>64</title>
<path fill="#f6d3ff" stroke="black" d="M1091.5,-38C1091.5,-38 1055.5,-38 1055.5,-38 1049.5,-38 1043.5,-32 1043.5,-26 1043.5,-26 1043.5,-12 1043.5,-12 1043.5,-6 1049.5,-0 1055.5,-0 1055.5,-0 1091.5,-0 1091.5,-0 1097.5,-0 1103.5,-6 1103.5,-12 1103.5,-12 1103.5,-26 1103.5,-26 1103.5,-32 1097.5,-38 1091.5,-38"/>
<text text-anchor="middle" x="1073.5" y="-22.8" font-family="Times,serif" font-size="14.00">forward</text>
<text text-anchor="middle" x="1073.5" y="-7.8" font-family="Times,serif" font-size="14.00">EB2/C0</text>
</g>
<!-- 23&#45;&gt;64 -->
<g id="edge64" class="edge"><title>23&#45;&gt;64</title>
<path fill="none" stroke="black" d="M1072.74,-74.937C1072.85,-66.9865 1072.98,-57.3134 1073.11,-48.3127"/>
<polygon fill="black" stroke="black" points="1076.61,-48.2468 1073.25,-38.1992 1069.61,-48.1496 1076.61,-48.2468"/>
</g>
<!-- 65 -->
<g id="node66" class="node"><title>65</title>
<path fill="#f6d3ff" stroke="black" d="M1211.5,-38C1211.5,-38 1175.5,-38 1175.5,-38 1169.5,-38 1163.5,-32 1163.5,-26 1163.5,-26 1163.5,-12 1163.5,-12 1163.5,-6 1169.5,-0 1175.5,-0 1175.5,-0 1211.5,-0 1211.5,-0 1217.5,-0 1223.5,-6 1223.5,-12 1223.5,-12 1223.5,-26 1223.5,-26 1223.5,-32 1217.5,-38 1211.5,-38"/>
<text text-anchor="middle" x="1193.5" y="-22.8" font-family="Times,serif" font-size="14.00">forward</text>
<text text-anchor="middle" x="1193.5" y="-7.8" font-family="Times,serif" font-size="14.00">EB2/C1</text>
</g>
<!-- 24&#45;&gt;65 -->
<g id="edge65" class="edge"><title>24&#45;&gt;65</title>
<path fill="none" stroke="black" d="M1193.5,-73.8314C1193.5,-66.131 1193.5,-56.9743 1193.5,-48.4166"/>
<polygon fill="black" stroke="black" points="1197,-48.4132 1193.5,-38.4133 1190,-48.4133 1197,-48.4132"/>
</g>
<!-- 66 -->
<g id="node67" class="node"><title>66</title>
<path fill="#f6d3ff" stroke="black" d="M1344.5,-38C1344.5,-38 1308.5,-38 1308.5,-38 1302.5,-38 1296.5,-32 1296.5,-26 1296.5,-26 1296.5,-12 1296.5,-12 1296.5,-6 1302.5,-0 1308.5,-0 1308.5,-0 1344.5,-0 1344.5,-0 1350.5,-0 1356.5,-6 1356.5,-12 1356.5,-12 1356.5,-26 1356.5,-26 1356.5,-32 1350.5,-38 1344.5,-38"/>
<text text-anchor="middle" x="1326.5" y="-22.8" font-family="Times,serif" font-size="14.00">forward</text>
<text text-anchor="middle" x="1326.5" y="-7.8" font-family="Times,serif" font-size="14.00">EB2/C2</text>
</g>
<!-- 25&#45;&gt;66 -->
<g id="edge66" class="edge"><title>25&#45;&gt;66</title>
<path fill="none" stroke="black" d="M1326.5,-73.8314C1326.5,-66.131 1326.5,-56.9743 1326.5,-48.4166"/>
<polygon fill="black" stroke="black" points="1330,-48.4132 1326.5,-38.4133 1323,-48.4133 1330,-48.4132"/>
</g>
<!-- 67 -->
<g id="node68" class="node"><title>67</title>
<path fill="#f6d3ff" stroke="black" d="M1430.5,-38C1430.5,-38 1394.5,-38 1394.5,-38 1388.5,-38 1382.5,-32 1382.5,-26 1382.5,-26 1382.5,-12 1382.5,-12 1382.5,-6 1388.5,-0 1394.5,-0 1394.5,-0 1430.5,-0 1430.5,-0 1436.5,-0 1442.5,-6 1442.5,-12 1442.5,-12 1442.5,-26 1442.5,-26 1442.5,-32 1436.5,-38 1430.5,-38"/>
<text text-anchor="middle" x="1412.5" y="-22.8" font-family="Times,serif" font-size="14.00">forward</text>
<text text-anchor="middle" x="1412.5" y="-7.8" font-family="Times,serif" font-size="14.00">EB2/C3</text>
</g>
<!-- 26&#45;&gt;67 -->
<g id="edge67" class="edge"><title>26&#45;&gt;67</title>
<path fill="none" stroke="black" d="M1413.26,-74.937C1413.15,-66.9865 1413.02,-57.3134 1412.89,-48.3127"/>
<polygon fill="black" stroke="black" points="1416.39,-48.1496 1412.75,-38.1992 1409.39,-48.2468 1416.39,-48.1496"/>
</g>
<!-- 68 -->
<g id="node69" class="node"><title>68</title>
<path fill="#f6d3ff" stroke="black" d="M1508.5,-38C1508.5,-38 1472.5,-38 1472.5,-38 1466.5,-38 1460.5,-32 1460.5,-26 1460.5,-26 1460.5,-12 1460.5,-12 1460.5,-6 1466.5,-0 1472.5,-0 1472.5,-0 1508.5,-0 1508.5,-0 1514.5,-0 1520.5,-6 1520.5,-12 1520.5,-12 1520.5,-26 1520.5,-26 1520.5,-32 1514.5,-38 1508.5,-38"/>
<text text-anchor="middle" x="1490.5" y="-22.8" font-family="Times,serif" font-size="14.00">forward</text>
<text text-anchor="middle" x="1490.5" y="-7.8" font-family="Times,serif" font-size="14.00">EB2/C4</text>
</g>
<!-- 27&#45;&gt;68 -->
<g id="edge68" class="edge"><title>27&#45;&gt;68</title>
<path fill="none" stroke="black" d="M1489.74,-74.937C1489.85,-66.9865 1489.98,-57.3134 1490.11,-48.3127"/>
<polygon fill="black" stroke="black" points="1493.61,-48.2468 1490.25,-38.1992 1486.61,-48.1496 1493.61,-48.2468"/>
</g>
<!-- 69 -->
<g id="node70" class="node"><title>69</title>
<path fill="#f6d3ff" stroke="black" d="M1628.5,-38C1628.5,-38 1592.5,-38 1592.5,-38 1586.5,-38 1580.5,-32 1580.5,-26 1580.5,-26 1580.5,-12 1580.5,-12 1580.5,-6 1586.5,-0 1592.5,-0 1592.5,-0 1628.5,-0 1628.5,-0 1634.5,-0 1640.5,-6 1640.5,-12 1640.5,-12 1640.5,-26 1640.5,-26 1640.5,-32 1634.5,-38 1628.5,-38"/>
<text text-anchor="middle" x="1610.5" y="-22.8" font-family="Times,serif" font-size="14.00">forward</text>
<text text-anchor="middle" x="1610.5" y="-7.8" font-family="Times,serif" font-size="14.00">EB2/C5</text>
</g>
<!-- 28&#45;&gt;69 -->
<g id="edge69" class="edge"><title>28&#45;&gt;69</title>
<path fill="none" stroke="black" d="M1610.5,-73.8314C1610.5,-66.131 1610.5,-56.9743 1610.5,-48.4166"/>
<polygon fill="black" stroke="black" points="1614,-48.4132 1610.5,-38.4133 1607,-48.4133 1614,-48.4132"/>
</g>
<!-- 70 -->
<g id="node71" class="node"><title>70</title>
<path fill="#f6d3ff" stroke="black" d="M1750.5,-38C1750.5,-38 1712.5,-38 1712.5,-38 1706.5,-38 1700.5,-32 1700.5,-26 1700.5,-26 1700.5,-12 1700.5,-12 1700.5,-6 1706.5,-0 1712.5,-0 1712.5,-0 1750.5,-0 1750.5,-0 1756.5,-0 1762.5,-6 1762.5,-12 1762.5,-12 1762.5,-26 1762.5,-26 1762.5,-32 1756.5,-38 1750.5,-38"/>
<text text-anchor="middle" x="1731.5" y="-22.8" font-family="Times,serif" font-size="14.00">forward</text>
<text text-anchor="middle" x="1731.5" y="-7.8" font-family="Times,serif" font-size="14.00">DB3/C0</text>
</g>
<!-- 29&#45;&gt;70 -->
<g id="edge70" class="edge"><title>29&#45;&gt;70</title>
<path fill="none" stroke="black" d="M1731.5,-74.937C1731.5,-66.9865 1731.5,-57.3134 1731.5,-48.3127"/>
<polygon fill="black" stroke="black" points="1735,-48.1991 1731.5,-38.1992 1728,-48.1992 1735,-48.1991"/>
</g>
<!-- 71 -->
<g id="node72" class="node"><title>71</title>
<path fill="#f6d3ff" stroke="black" d="M1871.5,-38C1871.5,-38 1833.5,-38 1833.5,-38 1827.5,-38 1821.5,-32 1821.5,-26 1821.5,-26 1821.5,-12 1821.5,-12 1821.5,-6 1827.5,-0 1833.5,-0 1833.5,-0 1871.5,-0 1871.5,-0 1877.5,-0 1883.5,-6 1883.5,-12 1883.5,-12 1883.5,-26 1883.5,-26 1883.5,-32 1877.5,-38 1871.5,-38"/>
<text text-anchor="middle" x="1852.5" y="-22.8" font-family="Times,serif" font-size="14.00">forward</text>
<text text-anchor="middle" x="1852.5" y="-7.8" font-family="Times,serif" font-size="14.00">DB3/C1</text>
</g>
<!-- 30&#45;&gt;71 -->
<g id="edge71" class="edge"><title>30&#45;&gt;71</title>
<path fill="none" stroke="black" d="M1852.5,-73.8314C1852.5,-66.131 1852.5,-56.9743 1852.5,-48.4166"/>
<polygon fill="black" stroke="black" points="1856,-48.4132 1852.5,-38.4133 1849,-48.4133 1856,-48.4132"/>
</g>
<!-- 72 -->
<g id="node73" class="node"><title>72</title>
<path fill="#f6d3ff" stroke="black" d="M1984.5,-38C1984.5,-38 1946.5,-38 1946.5,-38 1940.5,-38 1934.5,-32 1934.5,-26 1934.5,-26 1934.5,-12 1934.5,-12 1934.5,-6 1940.5,-0 1946.5,-0 1946.5,-0 1984.5,-0 1984.5,-0 1990.5,-0 1996.5,-6 1996.5,-12 1996.5,-12 1996.5,-26 1996.5,-26 1996.5,-32 1990.5,-38 1984.5,-38"/>
<text text-anchor="middle" x="1965.5" y="-22.8" font-family="Times,serif" font-size="14.00">forward</text>
<text text-anchor="middle" x="1965.5" y="-7.8" font-family="Times,serif" font-size="14.00">DB3/C2</text>
</g>
<!-- 31&#45;&gt;72 -->
<g id="edge72" class="edge"><title>31&#45;&gt;72</title>
<path fill="none" stroke="black" d="M1971.6,-74.937C1970.72,-66.9865 1969.65,-57.3134 1968.65,-48.3127"/>
<polygon fill="black" stroke="black" points="1972.11,-47.7515 1967.52,-38.1992 1965.15,-48.5245 1972.11,-47.7515"/>
</g>
<!-- 73 -->
<g id="node74" class="node"><title>73</title>
<path fill="#f6d3ff" stroke="black" d="M2064.5,-38C2064.5,-38 2026.5,-38 2026.5,-38 2020.5,-38 2014.5,-32 2014.5,-26 2014.5,-26 2014.5,-12 2014.5,-12 2014.5,-6 2020.5,-0 2026.5,-0 2026.5,-0 2064.5,-0 2064.5,-0 2070.5,-0 2076.5,-6 2076.5,-12 2076.5,-12 2076.5,-26 2076.5,-26 2076.5,-32 2070.5,-38 2064.5,-38"/>
<text text-anchor="middle" x="2045.5" y="-22.8" font-family="Times,serif" font-size="14.00">forward</text>
<text text-anchor="middle" x="2045.5" y="-7.8" font-family="Times,serif" font-size="14.00">DB3/C3</text>
</g>
<!-- 32&#45;&gt;73 -->
<g id="edge73" class="edge"><title>32&#45;&gt;73</title>
<path fill="none" stroke="black" d="M2048.55,-74.937C2048.11,-66.9865 2047.57,-57.3134 2047.07,-48.3127"/>
<polygon fill="black" stroke="black" points="2050.56,-47.9896 2046.51,-38.1992 2043.57,-48.3779 2050.56,-47.9896"/>
</g>
<!-- 74 -->
<g id="node75" class="node"><title>74</title>
<path fill="#f6d3ff" stroke="black" d="M2144.5,-38C2144.5,-38 2106.5,-38 2106.5,-38 2100.5,-38 2094.5,-32 2094.5,-26 2094.5,-26 2094.5,-12 2094.5,-12 2094.5,-6 2100.5,-0 2106.5,-0 2106.5,-0 2144.5,-0 2144.5,-0 2150.5,-0 2156.5,-6 2156.5,-12 2156.5,-12 2156.5,-26 2156.5,-26 2156.5,-32 2150.5,-38 2144.5,-38"/>
<text text-anchor="middle" x="2125.5" y="-22.8" font-family="Times,serif" font-size="14.00">forward</text>
<text text-anchor="middle" x="2125.5" y="-7.8" font-family="Times,serif" font-size="14.00">DB3/C4</text>
</g>
<!-- 33&#45;&gt;74 -->
<g id="edge74" class="edge"><title>33&#45;&gt;74</title>
<path fill="none" stroke="black" d="M2125.5,-74.937C2125.5,-66.9865 2125.5,-57.3134 2125.5,-48.3127"/>
<polygon fill="black" stroke="black" points="2129,-48.1991 2125.5,-38.1992 2122,-48.1992 2129,-48.1991"/>
</g>
<!-- 75 -->
<g id="node76" class="node"><title>75</title>
<path fill="#f6d3ff" stroke="black" d="M2224.5,-38C2224.5,-38 2186.5,-38 2186.5,-38 2180.5,-38 2174.5,-32 2174.5,-26 2174.5,-26 2174.5,-12 2174.5,-12 2174.5,-6 2180.5,-0 2186.5,-0 2186.5,-0 2224.5,-0 2224.5,-0 2230.5,-0 2236.5,-6 2236.5,-12 2236.5,-12 2236.5,-26 2236.5,-26 2236.5,-32 2230.5,-38 2224.5,-38"/>
<text text-anchor="middle" x="2205.5" y="-22.8" font-family="Times,serif" font-size="14.00">forward</text>
<text text-anchor="middle" x="2205.5" y="-7.8" font-family="Times,serif" font-size="14.00">DB3/C5</text>
</g>
<!-- 34&#45;&gt;75 -->
<g id="edge75" class="edge"><title>34&#45;&gt;75</title>
<path fill="none" stroke="black" d="M2254.33,-74.937C2246.57,-66.2088 2236.97,-55.4044 2228.34,-45.6928"/>
<polygon fill="black" stroke="black" points="2230.94,-43.348 2221.68,-38.1992 2225.7,-47.9986 2230.94,-43.348"/>
</g>
<!-- 76 -->
<g id="node77" class="node"><title>76</title>
<path fill="#debfe6" stroke="black" d="M2302.5,-38C2302.5,-38 2266.5,-38 2266.5,-38 2260.5,-38 2254.5,-32 2254.5,-26 2254.5,-26 2254.5,-12 2254.5,-12 2254.5,-6 2260.5,-0 2266.5,-0 2266.5,-0 2302.5,-0 2302.5,-0 2308.5,-0 2314.5,-6 2314.5,-12 2314.5,-12 2314.5,-26 2314.5,-26 2314.5,-32 2308.5,-38 2302.5,-38"/>
<text text-anchor="middle" x="2284.5" y="-22.8" font-family="Times,serif" font-size="14.00">merge</text>
<text text-anchor="middle" x="2284.5" y="-7.8" font-family="Times,serif" font-size="14.00">EB2/C5</text>
</g>
<!-- 34&#45;&gt;76 -->
<g id="edge76" class="edge"><title>34&#45;&gt;76</title>
<path fill="none" stroke="black" d="M2273.05,-74.937C2274.73,-66.9001 2276.77,-57.1029 2278.66,-48.0195"/>
<polygon fill="black" stroke="black" points="2282.1,-48.7028 2280.71,-38.1992 2275.24,-47.2751 2282.1,-48.7028"/>
</g>
<!-- 77 -->
<g id="node78" class="node"><title>77</title>
<path fill="#f6d3ff" stroke="black" d="M2382.5,-38C2382.5,-38 2344.5,-38 2344.5,-38 2338.5,-38 2332.5,-32 2332.5,-26 2332.5,-26 2332.5,-12 2332.5,-12 2332.5,-6 2338.5,-0 2344.5,-0 2344.5,-0 2382.5,-0 2382.5,-0 2388.5,-0 2394.5,-6 2394.5,-12 2394.5,-12 2394.5,-26 2394.5,-26 2394.5,-32 2388.5,-38 2382.5,-38"/>
<text text-anchor="middle" x="2363.5" y="-22.8" font-family="Times,serif" font-size="14.00">forward</text>
<text text-anchor="middle" x="2363.5" y="-7.8" font-family="Times,serif" font-size="14.00">DB2/C0</text>
</g>
<!-- 35&#45;&gt;77 -->
<g id="edge77" class="edge"><title>35&#45;&gt;77</title>
<path fill="none" stroke="black" d="M2349.77,-74.937C2351.77,-66.9001 2354.22,-57.1029 2356.5,-48.0195"/>
<polygon fill="black" stroke="black" points="2359.92,-48.7495 2358.95,-38.1992 2353.13,-47.0517 2359.92,-48.7495"/>
</g>
<!-- 78 -->
<g id="node79" class="node"><title>78</title>
<path fill="#f6d3ff" stroke="black" d="M2462.5,-38C2462.5,-38 2424.5,-38 2424.5,-38 2418.5,-38 2412.5,-32 2412.5,-26 2412.5,-26 2412.5,-12 2412.5,-12 2412.5,-6 2418.5,-0 2424.5,-0 2424.5,-0 2462.5,-0 2462.5,-0 2468.5,-0 2474.5,-6 2474.5,-12 2474.5,-12 2474.5,-26 2474.5,-26 2474.5,-32 2468.5,-38 2462.5,-38"/>
<text text-anchor="middle" x="2443.5" y="-22.8" font-family="Times,serif" font-size="14.00">forward</text>
<text text-anchor="middle" x="2443.5" y="-7.8" font-family="Times,serif" font-size="14.00">DB2/C1</text>
</g>
<!-- 36&#45;&gt;78 -->
<g id="edge78" class="edge"><title>36&#45;&gt;78</title>
<path fill="none" stroke="black" d="M2439.76,-73.8314C2440.3,-66.131 2440.93,-56.9743 2441.53,-48.4166"/>
<polygon fill="black" stroke="black" points="2445.02,-48.6317 2442.22,-38.4133 2438.04,-48.1467 2445.02,-48.6317"/>
</g>
<!-- 79 -->
<g id="node80" class="node"><title>79</title>
<path fill="#f6d3ff" stroke="black" d="M2548.5,-38C2548.5,-38 2510.5,-38 2510.5,-38 2504.5,-38 2498.5,-32 2498.5,-26 2498.5,-26 2498.5,-12 2498.5,-12 2498.5,-6 2504.5,-0 2510.5,-0 2510.5,-0 2548.5,-0 2548.5,-0 2554.5,-0 2560.5,-6 2560.5,-12 2560.5,-12 2560.5,-26 2560.5,-26 2560.5,-32 2554.5,-38 2548.5,-38"/>
<text text-anchor="middle" x="2529.5" y="-22.8" font-family="Times,serif" font-size="14.00">forward</text>
<text text-anchor="middle" x="2529.5" y="-7.8" font-family="Times,serif" font-size="14.00">DB2/C2</text>
</g>
<!-- 37&#45;&gt;79 -->
<g id="edge79" class="edge"><title>37&#45;&gt;79</title>
<path fill="none" stroke="black" d="M2531.03,-74.937C2530.81,-66.9865 2530.54,-57.3134 2530.29,-48.3127"/>
<polygon fill="black" stroke="black" points="2533.78,-48.0981 2530.01,-38.1992 2526.78,-48.2925 2533.78,-48.0981"/>
</g>
<!-- 80 -->
<g id="node81" class="node"><title>80</title>
<path fill="#f6d3ff" stroke="black" d="M2628.5,-38C2628.5,-38 2590.5,-38 2590.5,-38 2584.5,-38 2578.5,-32 2578.5,-26 2578.5,-26 2578.5,-12 2578.5,-12 2578.5,-6 2584.5,-0 2590.5,-0 2590.5,-0 2628.5,-0 2628.5,-0 2634.5,-0 2640.5,-6 2640.5,-12 2640.5,-12 2640.5,-26 2640.5,-26 2640.5,-32 2634.5,-38 2628.5,-38"/>
<text text-anchor="middle" x="2609.5" y="-22.8" font-family="Times,serif" font-size="14.00">forward</text>
<text text-anchor="middle" x="2609.5" y="-7.8" font-family="Times,serif" font-size="14.00">DB2/C3</text>
</g>
<!-- 38&#45;&gt;80 -->
<g id="edge80" class="edge"><title>38&#45;&gt;80</title>
<path fill="none" stroke="black" d="M2607.97,-74.937C2608.19,-66.9865 2608.46,-57.3134 2608.71,-48.3127"/>
<polygon fill="black" stroke="black" points="2612.22,-48.2925 2608.99,-38.1992 2605.22,-48.0981 2612.22,-48.2925"/>
</g>
<!-- 81 -->
<g id="node82" class="node"><title>81</title>
<path fill="#f6d3ff" stroke="black" d="M2726.5,-38C2726.5,-38 2688.5,-38 2688.5,-38 2682.5,-38 2676.5,-32 2676.5,-26 2676.5,-26 2676.5,-12 2676.5,-12 2676.5,-6 2682.5,-0 2688.5,-0 2688.5,-0 2726.5,-0 2726.5,-0 2732.5,-0 2738.5,-6 2738.5,-12 2738.5,-12 2738.5,-26 2738.5,-26 2738.5,-32 2732.5,-38 2726.5,-38"/>
<text text-anchor="middle" x="2707.5" y="-22.8" font-family="Times,serif" font-size="14.00">forward</text>
<text text-anchor="middle" x="2707.5" y="-7.8" font-family="Times,serif" font-size="14.00">DB2/C4</text>
</g>
<!-- 39&#45;&gt;81 -->
<g id="edge81" class="edge"><title>39&#45;&gt;81</title>
<path fill="none" stroke="black" d="M2723.2,-73.8314C2720.93,-66.0463 2718.23,-56.7729 2715.71,-48.1347"/>
<polygon fill="black" stroke="black" points="2719.03,-47.0332 2712.87,-38.4133 2712.31,-48.9933 2719.03,-47.0332"/>
</g>
<!-- 82 -->
<g id="node83" class="node"><title>82</title>
<path fill="#f6d3ff" stroke="black" d="M2806.5,-38C2806.5,-38 2768.5,-38 2768.5,-38 2762.5,-38 2756.5,-32 2756.5,-26 2756.5,-26 2756.5,-12 2756.5,-12 2756.5,-6 2762.5,-0 2768.5,-0 2768.5,-0 2806.5,-0 2806.5,-0 2812.5,-0 2818.5,-6 2818.5,-12 2818.5,-12 2818.5,-26 2818.5,-26 2818.5,-32 2812.5,-38 2806.5,-38"/>
<text text-anchor="middle" x="2787.5" y="-22.8" font-family="Times,serif" font-size="14.00">forward</text>
<text text-anchor="middle" x="2787.5" y="-7.8" font-family="Times,serif" font-size="14.00">DB2/C5</text>
</g>
<!-- 40&#45;&gt;82 -->
<g id="edge82" class="edge"><title>40&#45;&gt;82</title>
<path fill="none" stroke="black" d="M2844.32,-73.8314C2835.14,-65.1337 2824,-54.5783 2814.02,-45.1265"/>
<polygon fill="black" stroke="black" points="2816.34,-42.4995 2806.67,-38.1628 2811.52,-47.5811 2816.34,-42.4995"/>
</g>
<!-- 83 -->
<g id="node84" class="node"><title>83</title>
<path fill="#debfe6" stroke="black" d="M2884.5,-38C2884.5,-38 2848.5,-38 2848.5,-38 2842.5,-38 2836.5,-32 2836.5,-26 2836.5,-26 2836.5,-12 2836.5,-12 2836.5,-6 2842.5,-0 2848.5,-0 2848.5,-0 2884.5,-0 2884.5,-0 2890.5,-0 2896.5,-6 2896.5,-12 2896.5,-12 2896.5,-26 2896.5,-26 2896.5,-32 2890.5,-38 2884.5,-38"/>
<text text-anchor="middle" x="2866.5" y="-22.8" font-family="Times,serif" font-size="14.00">merge</text>
<text text-anchor="middle" x="2866.5" y="-7.8" font-family="Times,serif" font-size="14.00">EB1/C5</text>
</g>
<!-- 40&#45;&gt;83 -->
<g id="edge83" class="edge"><title>40&#45;&gt;83</title>
<path fill="none" stroke="black" d="M2864.26,-73.8314C2864.58,-66.131 2864.96,-56.9743 2865.32,-48.4166"/>
<polygon fill="black" stroke="black" points="2868.81,-48.5503 2865.73,-38.4133 2861.82,-48.2589 2868.81,-48.5503"/>
</g>
<!-- 84 -->
<g id="node85" class="node"><title>84</title>
<path fill="#f6d3ff" stroke="black" d="M2964.5,-38C2964.5,-38 2926.5,-38 2926.5,-38 2920.5,-38 2914.5,-32 2914.5,-26 2914.5,-26 2914.5,-12 2914.5,-12 2914.5,-6 2920.5,-0 2926.5,-0 2926.5,-0 2964.5,-0 2964.5,-0 2970.5,-0 2976.5,-6 2976.5,-12 2976.5,-12 2976.5,-26 2976.5,-26 2976.5,-32 2970.5,-38 2964.5,-38"/>
<text text-anchor="middle" x="2945.5" y="-22.8" font-family="Times,serif" font-size="14.00">forward</text>
<text text-anchor="middle" x="2945.5" y="-7.8" font-family="Times,serif" font-size="14.00">DB1/C0</text>
</g>
<!-- 41&#45;&gt;84 -->
<g id="edge84" class="edge"><title>41&#45;&gt;84</title>
<path fill="none" stroke="black" d="M2951.6,-74.937C2950.72,-66.9865 2949.65,-57.3134 2948.65,-48.3127"/>
<polygon fill="black" stroke="black" points="2952.11,-47.7515 2947.52,-38.1992 2945.15,-48.5245 2952.11,-47.7515"/>
</g>
<!-- 85 -->
<g id="node86" class="node"><title>85</title>
<path fill="#f6d3ff" stroke="black" d="M3044.5,-38C3044.5,-38 3006.5,-38 3006.5,-38 3000.5,-38 2994.5,-32 2994.5,-26 2994.5,-26 2994.5,-12 2994.5,-12 2994.5,-6 3000.5,-0 3006.5,-0 3006.5,-0 3044.5,-0 3044.5,-0 3050.5,-0 3056.5,-6 3056.5,-12 3056.5,-12 3056.5,-26 3056.5,-26 3056.5,-32 3050.5,-38 3044.5,-38"/>
<text text-anchor="middle" x="3025.5" y="-22.8" font-family="Times,serif" font-size="14.00">forward</text>
<text text-anchor="middle" x="3025.5" y="-7.8" font-family="Times,serif" font-size="14.00">DB1/C1</text>
</g>
<!-- 42&#45;&gt;85 -->
<g id="edge85" class="edge"><title>42&#45;&gt;85</title>
<path fill="none" stroke="black" d="M3028.55,-74.937C3028.11,-66.9865 3027.57,-57.3134 3027.07,-48.3127"/>
<polygon fill="black" stroke="black" points="3030.56,-47.9896 3026.51,-38.1992 3023.57,-48.3779 3030.56,-47.9896"/>
</g>
<!-- 86 -->
<g id="node87" class="node"><title>86</title>
<path fill="#f6d3ff" stroke="black" d="M3124.5,-38C3124.5,-38 3086.5,-38 3086.5,-38 3080.5,-38 3074.5,-32 3074.5,-26 3074.5,-26 3074.5,-12 3074.5,-12 3074.5,-6 3080.5,-0 3086.5,-0 3086.5,-0 3124.5,-0 3124.5,-0 3130.5,-0 3136.5,-6 3136.5,-12 3136.5,-12 3136.5,-26 3136.5,-26 3136.5,-32 3130.5,-38 3124.5,-38"/>
<text text-anchor="middle" x="3105.5" y="-22.8" font-family="Times,serif" font-size="14.00">forward</text>
<text text-anchor="middle" x="3105.5" y="-7.8" font-family="Times,serif" font-size="14.00">DB1/C2</text>
</g>
<!-- 43&#45;&gt;86 -->
<g id="edge86" class="edge"><title>43&#45;&gt;86</title>
<path fill="none" stroke="black" d="M3105.5,-74.937C3105.5,-66.9865 3105.5,-57.3134 3105.5,-48.3127"/>
<polygon fill="black" stroke="black" points="3109,-48.1991 3105.5,-38.1992 3102,-48.1992 3109,-48.1991"/>
</g>
<!-- 87 -->
<g id="node88" class="node"><title>87</title>
<path fill="#f6d3ff" stroke="black" d="M3204.5,-38C3204.5,-38 3166.5,-38 3166.5,-38 3160.5,-38 3154.5,-32 3154.5,-26 3154.5,-26 3154.5,-12 3154.5,-12 3154.5,-6 3160.5,-0 3166.5,-0 3166.5,-0 3204.5,-0 3204.5,-0 3210.5,-0 3216.5,-6 3216.5,-12 3216.5,-12 3216.5,-26 3216.5,-26 3216.5,-32 3210.5,-38 3204.5,-38"/>
<text text-anchor="middle" x="3185.5" y="-22.8" font-family="Times,serif" font-size="14.00">forward</text>
<text text-anchor="middle" x="3185.5" y="-7.8" font-family="Times,serif" font-size="14.00">DB1/C3</text>
</g>
<!-- 44&#45;&gt;87 -->
<g id="edge87" class="edge"><title>44&#45;&gt;87</title>
<path fill="none" stroke="black" d="M3183.97,-74.937C3184.19,-66.9865 3184.46,-57.3134 3184.71,-48.3127"/>
<polygon fill="black" stroke="black" points="3188.22,-48.2925 3184.99,-38.1992 3181.22,-48.0981 3188.22,-48.2925"/>
</g>
<!-- 88 -->
<g id="node89" class="node"><title>88</title>
<path fill="#f6d3ff" stroke="black" d="M3284.5,-38C3284.5,-38 3246.5,-38 3246.5,-38 3240.5,-38 3234.5,-32 3234.5,-26 3234.5,-26 3234.5,-12 3234.5,-12 3234.5,-6 3240.5,-0 3246.5,-0 3246.5,-0 3284.5,-0 3284.5,-0 3290.5,-0 3296.5,-6 3296.5,-12 3296.5,-12 3296.5,-26 3296.5,-26 3296.5,-32 3290.5,-38 3284.5,-38"/>
<text text-anchor="middle" x="3265.5" y="-22.8" font-family="Times,serif" font-size="14.00">forward</text>
<text text-anchor="middle" x="3265.5" y="-7.8" font-family="Times,serif" font-size="14.00">DB1/C4</text>
</g>
<!-- 45&#45;&gt;88 -->
<g id="edge88" class="edge"><title>45&#45;&gt;88</title>
<path fill="none" stroke="black" d="M3260.92,-74.937C3261.58,-66.9865 3262.39,-57.3134 3263.14,-48.3127"/>
<polygon fill="black" stroke="black" points="3266.64,-48.4553 3263.98,-38.1992 3259.66,-47.8739 3266.64,-48.4553"/>
</g>
<!-- 89 -->
<g id="node90" class="node"><title>89</title>
<path fill="#f6d3ff" stroke="black" d="M3364.5,-38C3364.5,-38 3326.5,-38 3326.5,-38 3320.5,-38 3314.5,-32 3314.5,-26 3314.5,-26 3314.5,-12 3314.5,-12 3314.5,-6 3320.5,-0 3326.5,-0 3326.5,-0 3364.5,-0 3364.5,-0 3370.5,-0 3376.5,-6 3376.5,-12 3376.5,-12 3376.5,-26 3376.5,-26 3376.5,-32 3370.5,-38 3364.5,-38"/>
<text text-anchor="middle" x="3345.5" y="-22.8" font-family="Times,serif" font-size="14.00">forward</text>
<text text-anchor="middle" x="3345.5" y="-7.8" font-family="Times,serif" font-size="14.00">DB1/C5</text>
</g>
<!-- 46&#45;&gt;89 -->
<g id="edge89" class="edge"><title>46&#45;&gt;89</title>
<path fill="none" stroke="black" d="M3346.25,-73.8314C3346.14,-66.131 3346.01,-56.9743 3345.89,-48.4166"/>
<polygon fill="black" stroke="black" points="3349.39,-48.3637 3345.76,-38.4133 3342.4,-48.4609 3349.39,-48.3637"/>
</g>
<!-- 90 -->
<g id="node91" class="node"><title>90</title>
<path fill="#debfe6" stroke="black" d="M3442.5,-38C3442.5,-38 3406.5,-38 3406.5,-38 3400.5,-38 3394.5,-32 3394.5,-26 3394.5,-26 3394.5,-12 3394.5,-12 3394.5,-6 3400.5,-0 3406.5,-0 3406.5,-0 3442.5,-0 3442.5,-0 3448.5,-0 3454.5,-6 3454.5,-12 3454.5,-12 3454.5,-26 3454.5,-26 3454.5,-32 3448.5,-38 3442.5,-38"/>
<text text-anchor="middle" x="3424.5" y="-22.8" font-family="Times,serif" font-size="14.00">merge</text>
<text text-anchor="middle" x="3424.5" y="-7.8" font-family="Times,serif" font-size="14.00">EB0/C5</text>
</g>
<!-- 46&#45;&gt;90 -->
<g id="edge90" class="edge"><title>46&#45;&gt;90</title>
<path fill="none" stroke="black" d="M3366.18,-73.8314C3375.61,-65.1337 3387.04,-54.5783 3397.28,-45.1265"/>
<polygon fill="black" stroke="black" points="3399.85,-47.5175 3404.82,-38.1628 3395.1,-42.3738 3399.85,-47.5175"/>
</g>
<!-- 91 -->
<g id="node92" class="node"><title>91</title>
<path fill="#f6d3ff" stroke="black" d="M3522.5,-38C3522.5,-38 3484.5,-38 3484.5,-38 3478.5,-38 3472.5,-32 3472.5,-26 3472.5,-26 3472.5,-12 3472.5,-12 3472.5,-6 3478.5,-0 3484.5,-0 3484.5,-0 3522.5,-0 3522.5,-0 3528.5,-0 3534.5,-6 3534.5,-12 3534.5,-12 3534.5,-26 3534.5,-26 3534.5,-32 3528.5,-38 3522.5,-38"/>
<text text-anchor="middle" x="3503.5" y="-22.8" font-family="Times,serif" font-size="14.00">forward</text>
<text text-anchor="middle" x="3503.5" y="-7.8" font-family="Times,serif" font-size="14.00">DB0/C0</text>
</g>
<!-- 47&#45;&gt;91 -->
<g id="edge91" class="edge"><title>47&#45;&gt;91</title>
<path fill="none" stroke="black" d="M3483.31,-73.8314C3486.26,-65.9617 3489.79,-56.5712 3493.06,-47.8533"/>
<polygon fill="black" stroke="black" points="3496.36,-49.0055 3496.6,-38.4133 3489.81,-46.5476 3496.36,-49.0055"/>
</g>
<!-- 92 -->
<g id="node93" class="node"><title>92</title>
<path fill="#f6d3ff" stroke="black" d="M3628.5,-38C3628.5,-38 3590.5,-38 3590.5,-38 3584.5,-38 3578.5,-32 3578.5,-26 3578.5,-26 3578.5,-12 3578.5,-12 3578.5,-6 3584.5,-0 3590.5,-0 3590.5,-0 3628.5,-0 3628.5,-0 3634.5,-0 3640.5,-6 3640.5,-12 3640.5,-12 3640.5,-26 3640.5,-26 3640.5,-32 3634.5,-38 3628.5,-38"/>
<text text-anchor="middle" x="3609.5" y="-22.8" font-family="Times,serif" font-size="14.00">forward</text>
<text text-anchor="middle" x="3609.5" y="-7.8" font-family="Times,serif" font-size="14.00">DB0/C1</text>
</g>
<!-- 48&#45;&gt;92 -->
<g id="edge92" class="edge"><title>48&#45;&gt;92</title>
<path fill="none" stroke="black" d="M3609.5,-73.8314C3609.5,-66.131 3609.5,-56.9743 3609.5,-48.4166"/>
<polygon fill="black" stroke="black" points="3613,-48.4132 3609.5,-38.4133 3606,-48.4133 3613,-48.4132"/>
</g>
<!-- 93 -->
<g id="node94" class="node"><title>93</title>
<path fill="#f6d3ff" stroke="black" d="M3717.5,-38C3717.5,-38 3679.5,-38 3679.5,-38 3673.5,-38 3667.5,-32 3667.5,-26 3667.5,-26 3667.5,-12 3667.5,-12 3667.5,-6 3673.5,-0 3679.5,-0 3679.5,-0 3717.5,-0 3717.5,-0 3723.5,-0 3729.5,-6 3729.5,-12 3729.5,-12 3729.5,-26 3729.5,-26 3729.5,-32 3723.5,-38 3717.5,-38"/>
<text text-anchor="middle" x="3698.5" y="-22.8" font-family="Times,serif" font-size="14.00">forward</text>
<text text-anchor="middle" x="3698.5" y="-7.8" font-family="Times,serif" font-size="14.00">DB0/C2</text>
</g>
<!-- 49&#45;&gt;93 -->
<g id="edge93" class="edge"><title>49&#45;&gt;93</title>
<path fill="none" stroke="black" d="M3699.26,-74.937C3699.15,-66.9865 3699.02,-57.3134 3698.89,-48.3127"/>
<polygon fill="black" stroke="black" points="3702.39,-48.1496 3698.75,-38.1992 3695.39,-48.2468 3702.39,-48.1496"/>
</g>
<!-- 94 -->
<g id="node95" class="node"><title>94</title>
<path fill="#f6d3ff" stroke="black" d="M3797.5,-38C3797.5,-38 3759.5,-38 3759.5,-38 3753.5,-38 3747.5,-32 3747.5,-26 3747.5,-26 3747.5,-12 3747.5,-12 3747.5,-6 3753.5,-0 3759.5,-0 3759.5,-0 3797.5,-0 3797.5,-0 3803.5,-0 3809.5,-6 3809.5,-12 3809.5,-12 3809.5,-26 3809.5,-26 3809.5,-32 3803.5,-38 3797.5,-38"/>
<text text-anchor="middle" x="3778.5" y="-22.8" font-family="Times,serif" font-size="14.00">forward</text>
<text text-anchor="middle" x="3778.5" y="-7.8" font-family="Times,serif" font-size="14.00">DB0/C3</text>
</g>
<!-- 50&#45;&gt;94 -->
<g id="edge94" class="edge"><title>50&#45;&gt;94</title>
<path fill="none" stroke="black" d="M3776.97,-74.937C3777.19,-66.9865 3777.46,-57.3134 3777.71,-48.3127"/>
<polygon fill="black" stroke="black" points="3781.22,-48.2925 3777.99,-38.1992 3774.22,-48.0981 3781.22,-48.2925"/>
</g>
</g>
</svg>
