<?xml version="1.0" encoding="UTF-8" standalone="no"?>
<!DOCTYPE svg PUBLIC "-//W3C//DTD SVG 1.1//EN"
 "http://www.w3.org/Graphics/SVG/1.1/DTD/svg11.dtd">
<!-- Generated by graphviz version 2.38.0 (20140413.2041)
 -->
<!-- Title: %3 Pages: 1 -->
<svg width="1196pt" height="357pt"
 viewBox="0.00 0.00 1196.00 357.00" xmlns="http://www.w3.org/2000/svg" xmlns:xlink="http://www.w3.org/1999/xlink">
<g id="graph0" class="graph" transform="scale(1 1) rotate(0) translate(4 353)">
<title>%3</title>
<polygon fill="none" stroke="none" points="-4,4 -4,-353 1192,-353 1192,4 -4,4"/>
<!-- 0 -->
<g id="node1" class="node"><title>0</title>
<path fill="#ffd3d3" stroke="black" d="M638,-349C638,-349 481,-349 481,-349 475,-349 469,-343 469,-337 469,-337 469,-323 469,-323 469,-317 475,-311 481,-311 481,-311 638,-311 638,-311 644,-311 650,-317 650,-323 650,-323 650,-337 650,-337 650,-343 644,-349 638,-349"/>
<text text-anchor="middle" x="559.5" y="-333.8" font-family="Times,serif" font-size="14.00">net</text>
<text text-anchor="middle" x="559.5" y="-318.8" font-family="Times,serif" font-size="14.00">n kernels: 62 &#160;&#160;pooling type: 0</text>
</g>
<!-- 1 -->
<g id="node2" class="node"><title>1</title>
<path fill="#f6ffd3" stroke="black" d="M398,-274C398,-274 363,-274 363,-274 357,-274 351,-268 351,-262 351,-262 351,-250 351,-250 351,-244 357,-238 363,-238 363,-238 398,-238 398,-238 404,-238 410,-244 410,-250 410,-250 410,-262 410,-262 410,-268 404,-274 398,-274"/>
<text text-anchor="middle" x="380.5" y="-252.3" font-family="Times,serif" font-size="14.00">encoder</text>
</g>
<!-- 0&#45;&gt;1 -->
<g id="edge1" class="edge"><title>0&#45;&gt;1</title>
<path fill="none" stroke="black" d="M514.331,-310.831C485.147,-299.093 447.551,-283.97 419.641,-272.744"/>
<polygon fill="black" stroke="black" points="420.786,-269.432 410.203,-268.947 418.174,-275.926 420.786,-269.432"/>
</g>
<!-- 2 -->
<g id="node3" class="node"><title>2</title>
<path fill="#f6ffd3" stroke="black" d="M798.5,-275C798.5,-275 678.5,-275 678.5,-275 672.5,-275 666.5,-269 666.5,-263 666.5,-263 666.5,-249 666.5,-249 666.5,-243 672.5,-237 678.5,-237 678.5,-237 798.5,-237 798.5,-237 804.5,-237 810.5,-243 810.5,-249 810.5,-249 810.5,-263 810.5,-263 810.5,-269 804.5,-275 798.5,-275"/>
<text text-anchor="middle" x="738.5" y="-259.8" font-family="Times,serif" font-size="14.00">decoder</text>
<text text-anchor="middle" x="738.5" y="-244.8" font-family="Times,serif" font-size="14.00">log gamma1: 0.399107</text>
</g>
<!-- 0&#45;&gt;2 -->
<g id="edge2" class="edge"><title>0&#45;&gt;2</title>
<path fill="none" stroke="black" d="M604.669,-310.831C628.822,-301.116 658.738,-289.083 684.156,-278.859"/>
<polygon fill="black" stroke="black" points="685.684,-282.017 693.656,-275.038 683.072,-275.523 685.684,-282.017"/>
</g>
<!-- 3 -->
<g id="node4" class="node"><title>3</title>
<path fill="#d3ffe4" stroke="black" d="M207,-193.5C207,-193.5 12,-193.5 12,-193.5 6,-193.5 -1.42109e-14,-187.5 -1.42109e-14,-181.5 -1.42109e-14,-181.5 -1.42109e-14,-167.5 -1.42109e-14,-167.5 -1.42109e-14,-161.5 6,-155.5 12,-155.5 12,-155.5 207,-155.5 207,-155.5 213,-155.5 219,-161.5 219,-167.5 219,-167.5 219,-181.5 219,-181.5 219,-187.5 213,-193.5 207,-193.5"/>
<text text-anchor="middle" x="109.5" y="-178.3" font-family="Times,serif" font-size="14.00">encode block 0</text>
<text text-anchor="middle" x="109.5" y="-163.3" font-family="Times,serif" font-size="14.00">log gamma2: 0.234392 &#160;&#160;n kernels: 9</text>
</g>
<!-- 1&#45;&gt;3 -->
<g id="edge3" class="edge"><title>1&#45;&gt;3</title>
<path fill="none" stroke="black" d="M350.982,-246.341C310.476,-234.458 236.377,-212.72 180.902,-196.446"/>
<polygon fill="black" stroke="black" points="181.703,-193.034 171.123,-193.577 179.733,-199.751 181.703,-193.034"/>
</g>
<!-- 4 -->
<g id="node5" class="node"><title>4</title>
<path fill="#bfe6cf" stroke="black" d="M512,-201C512,-201 249,-201 249,-201 243,-201 237,-195 237,-189 237,-189 237,-160 237,-160 237,-154 243,-148 249,-148 249,-148 512,-148 512,-148 518,-148 524,-154 524,-160 524,-160 524,-189 524,-189 524,-195 518,-201 512,-201"/>
<text text-anchor="middle" x="380.5" y="-185.8" font-family="Times,serif" font-size="14.00">encode block 1</text>
<text text-anchor="middle" x="380.5" y="-170.8" font-family="Times,serif" font-size="14.00">log gamma1: 0.469610 &#160;&#160;log gamma2: &#45;0.030743</text>
<text text-anchor="middle" x="380.5" y="-155.8" font-family="Times,serif" font-size="14.00">n kernels: &#45;3 &#160;&#160;spatial scale: 1</text>
</g>
<!-- 1&#45;&gt;4 -->
<g id="edge4" class="edge"><title>1&#45;&gt;4</title>
<path fill="none" stroke="black" d="M380.5,-237.75C380.5,-229.986 380.5,-220.514 380.5,-211.325"/>
<polygon fill="black" stroke="black" points="384,-211.176 380.5,-201.176 377,-211.176 384,-211.176"/>
</g>
<!-- 5 -->
<g id="node6" class="node"><title>5</title>
<path fill="#d3ffe4" stroke="black" d="M722.5,-193.5C722.5,-193.5 554.5,-193.5 554.5,-193.5 548.5,-193.5 542.5,-187.5 542.5,-181.5 542.5,-181.5 542.5,-167.5 542.5,-167.5 542.5,-161.5 548.5,-155.5 554.5,-155.5 554.5,-155.5 722.5,-155.5 722.5,-155.5 728.5,-155.5 734.5,-161.5 734.5,-167.5 734.5,-167.5 734.5,-181.5 734.5,-181.5 734.5,-187.5 728.5,-193.5 722.5,-193.5"/>
<text text-anchor="middle" x="638.5" y="-178.3" font-family="Times,serif" font-size="14.00">decode block 2</text>
<text text-anchor="middle" x="638.5" y="-163.3" font-family="Times,serif" font-size="14.00">n kernels: 2224 &#160;&#160;spatial scale: 2</text>
</g>
<!-- 2&#45;&gt;5 -->
<g id="edge5" class="edge"><title>2&#45;&gt;5</title>
<path fill="none" stroke="black" d="M715.808,-236.96C702.097,-226.06 684.434,-212.017 669.453,-200.107"/>
<polygon fill="black" stroke="black" points="671.454,-197.227 661.448,-193.744 667.098,-202.706 671.454,-197.227"/>
</g>
<!-- 6 -->
<g id="node7" class="node"><title>6</title>
<path fill="#bfe6cf" stroke="black" d="M912.5,-193.5C912.5,-193.5 764.5,-193.5 764.5,-193.5 758.5,-193.5 752.5,-187.5 752.5,-181.5 752.5,-181.5 752.5,-167.5 752.5,-167.5 752.5,-161.5 758.5,-155.5 764.5,-155.5 764.5,-155.5 912.5,-155.5 912.5,-155.5 918.5,-155.5 924.5,-161.5 924.5,-167.5 924.5,-167.5 924.5,-181.5 924.5,-181.5 924.5,-187.5 918.5,-193.5 912.5,-193.5"/>
<text text-anchor="middle" x="838.5" y="-178.3" font-family="Times,serif" font-size="14.00">decode block 1</text>
<text text-anchor="middle" x="838.5" y="-163.3" font-family="Times,serif" font-size="14.00">n kernels: 2 &#160;&#160;spatial scale: 1</text>
</g>
<!-- 2&#45;&gt;6 -->
<g id="edge6" class="edge"><title>2&#45;&gt;6</title>
<path fill="none" stroke="black" d="M761.192,-236.96C774.903,-226.06 792.566,-212.017 807.547,-200.107"/>
<polygon fill="black" stroke="black" points="809.902,-202.706 815.552,-193.744 805.546,-197.227 809.902,-202.706"/>
</g>
<!-- 7 -->
<g id="node8" class="node"><title>7</title>
<path fill="#abceb9" stroke="black" d="M1030,-193.5C1030,-193.5 955,-193.5 955,-193.5 949,-193.5 943,-187.5 943,-181.5 943,-181.5 943,-167.5 943,-167.5 943,-161.5 949,-155.5 955,-155.5 955,-155.5 1030,-155.5 1030,-155.5 1036,-155.5 1042,-161.5 1042,-167.5 1042,-167.5 1042,-181.5 1042,-181.5 1042,-187.5 1036,-193.5 1030,-193.5"/>
<text text-anchor="middle" x="992.5" y="-178.3" font-family="Times,serif" font-size="14.00">decode block 0</text>
<text text-anchor="middle" x="992.5" y="-163.3" font-family="Times,serif" font-size="14.00">n kernels: 188</text>
</g>
<!-- 2&#45;&gt;7 -->
<g id="edge7" class="edge"><title>2&#45;&gt;7</title>
<path fill="none" stroke="black" d="M810.548,-237.582C847.659,-227.974 893.415,-215.137 933.5,-201 936.756,-199.852 940.086,-198.609 943.426,-197.31"/>
<polygon fill="black" stroke="black" points="944.835,-200.516 952.807,-193.538 942.224,-194.022 944.835,-200.516"/>
</g>
<!-- 8 -->
<g id="node9" class="node"><title>8</title>
<path fill="#d3e4ff" stroke="black" d="M88.5,-111C88.5,-111 54.5,-111 54.5,-111 48.5,-111 42.5,-105 42.5,-99 42.5,-99 42.5,-87 42.5,-87 42.5,-81 48.5,-75 54.5,-75 54.5,-75 88.5,-75 88.5,-75 94.5,-75 100.5,-81 100.5,-87 100.5,-87 100.5,-99 100.5,-99 100.5,-105 94.5,-111 88.5,-111"/>
<text text-anchor="middle" x="71.5" y="-89.3" font-family="Times,serif" font-size="14.00">comp 0</text>
</g>
<!-- 3&#45;&gt;8 -->
<g id="edge8" class="edge"><title>3&#45;&gt;8</title>
<path fill="none" stroke="black" d="M100.877,-155.46C95.916,-145.081 89.5932,-131.853 84.0852,-120.33"/>
<polygon fill="black" stroke="black" points="87.1683,-118.664 79.6979,-111.151 80.8527,-121.683 87.1683,-118.664"/>
</g>
<!-- 9 -->
<g id="node10" class="node"><title>9</title>
<path fill="#bfcfe6" stroke="black" d="M165.5,-111C165.5,-111 131.5,-111 131.5,-111 125.5,-111 119.5,-105 119.5,-99 119.5,-99 119.5,-87 119.5,-87 119.5,-81 125.5,-75 131.5,-75 131.5,-75 165.5,-75 165.5,-75 171.5,-75 177.5,-81 177.5,-87 177.5,-87 177.5,-99 177.5,-99 177.5,-105 171.5,-111 165.5,-111"/>
<text text-anchor="middle" x="148.5" y="-89.3" font-family="Times,serif" font-size="14.00">comp 1</text>
</g>
<!-- 3&#45;&gt;9 -->
<g id="edge9" class="edge"><title>3&#45;&gt;9</title>
<path fill="none" stroke="black" d="M118.35,-155.46C123.441,-145.081 129.931,-131.853 135.584,-120.33"/>
<polygon fill="black" stroke="black" points="138.824,-121.67 140.086,-111.151 132.54,-118.587 138.824,-121.67"/>
</g>
<!-- 10 -->
<g id="node11" class="node"><title>10</title>
<path fill="#d3e4ff" stroke="black" d="M358.5,-111C358.5,-111 324.5,-111 324.5,-111 318.5,-111 312.5,-105 312.5,-99 312.5,-99 312.5,-87 312.5,-87 312.5,-81 318.5,-75 324.5,-75 324.5,-75 358.5,-75 358.5,-75 364.5,-75 370.5,-81 370.5,-87 370.5,-87 370.5,-99 370.5,-99 370.5,-105 364.5,-111 358.5,-111"/>
<text text-anchor="middle" x="341.5" y="-89.3" font-family="Times,serif" font-size="14.00">comp 0</text>
</g>
<!-- 4&#45;&gt;10 -->
<g id="edge10" class="edge"><title>4&#45;&gt;10</title>
<path fill="none" stroke="black" d="M367.945,-147.908C363.628,-139.108 358.789,-129.243 354.442,-120.381"/>
<polygon fill="black" stroke="black" points="357.512,-118.693 349.965,-111.256 351.227,-121.776 357.512,-118.693"/>
</g>
<!-- 11 -->
<g id="node12" class="node"><title>11</title>
<path fill="#bfcfe6" stroke="black" d="M435.5,-111C435.5,-111 401.5,-111 401.5,-111 395.5,-111 389.5,-105 389.5,-99 389.5,-99 389.5,-87 389.5,-87 389.5,-81 395.5,-75 401.5,-75 401.5,-75 435.5,-75 435.5,-75 441.5,-75 447.5,-81 447.5,-87 447.5,-87 447.5,-99 447.5,-99 447.5,-105 441.5,-111 435.5,-111"/>
<text text-anchor="middle" x="418.5" y="-89.3" font-family="Times,serif" font-size="14.00">comp 1</text>
</g>
<!-- 4&#45;&gt;11 -->
<g id="edge11" class="edge"><title>4&#45;&gt;11</title>
<path fill="none" stroke="black" d="M392.733,-147.908C396.939,-139.108 401.654,-129.243 405.89,-120.381"/>
<polygon fill="black" stroke="black" points="409.097,-121.788 410.252,-111.256 402.781,-118.769 409.097,-121.788"/>
</g>
<!-- 12 -->
<g id="node13" class="node"><title>12</title>
<path fill="#d3e4ff" stroke="black" d="M579.5,-112C579.5,-112 523.5,-112 523.5,-112 517.5,-112 511.5,-106 511.5,-100 511.5,-100 511.5,-86 511.5,-86 511.5,-80 517.5,-74 523.5,-74 523.5,-74 579.5,-74 579.5,-74 585.5,-74 591.5,-80 591.5,-86 591.5,-86 591.5,-100 591.5,-100 591.5,-106 585.5,-112 579.5,-112"/>
<text text-anchor="middle" x="551.5" y="-96.8" font-family="Times,serif" font-size="14.00">comp 0</text>
<text text-anchor="middle" x="551.5" y="-81.8" font-family="Times,serif" font-size="14.00">n kernels: 5</text>
</g>
<!-- 5&#45;&gt;12 -->
<g id="edge12" class="edge"><title>5&#45;&gt;12</title>
<path fill="none" stroke="black" d="M618.758,-155.46C607.05,-144.762 592.03,-131.036 579.155,-119.271"/>
<polygon fill="black" stroke="black" points="581.208,-116.406 571.465,-112.244 576.486,-121.573 581.208,-116.406"/>
</g>
<!-- 13 -->
<g id="node14" class="node"><title>13</title>
<path fill="#bfcfe6" stroke="black" d="M655.5,-111C655.5,-111 621.5,-111 621.5,-111 615.5,-111 609.5,-105 609.5,-99 609.5,-99 609.5,-87 609.5,-87 609.5,-81 615.5,-75 621.5,-75 621.5,-75 655.5,-75 655.5,-75 661.5,-75 667.5,-81 667.5,-87 667.5,-87 667.5,-99 667.5,-99 667.5,-105 661.5,-111 655.5,-111"/>
<text text-anchor="middle" x="638.5" y="-89.3" font-family="Times,serif" font-size="14.00">comp 1</text>
</g>
<!-- 5&#45;&gt;13 -->
<g id="edge13" class="edge"><title>5&#45;&gt;13</title>
<path fill="none" stroke="black" d="M638.5,-155.46C638.5,-145.392 638.5,-132.644 638.5,-121.371"/>
<polygon fill="black" stroke="black" points="642,-121.151 638.5,-111.151 635,-121.151 642,-121.151"/>
</g>
<!-- 14 -->
<g id="node15" class="node"><title>14</title>
<path fill="#d3e4ff" stroke="black" d="M817,-112C817,-112 756,-112 756,-112 750,-112 744,-106 744,-100 744,-100 744,-86 744,-86 744,-80 750,-74 756,-74 756,-74 817,-74 817,-74 823,-74 829,-80 829,-86 829,-86 829,-100 829,-100 829,-106 823,-112 817,-112"/>
<text text-anchor="middle" x="786.5" y="-96.8" font-family="Times,serif" font-size="14.00">comp 0</text>
<text text-anchor="middle" x="786.5" y="-81.8" font-family="Times,serif" font-size="14.00">n kernels: &#45;1</text>
</g>
<!-- 6&#45;&gt;14 -->
<g id="edge14" class="edge"><title>6&#45;&gt;14</title>
<path fill="none" stroke="black" d="M826.7,-155.46C820.033,-145.266 811.568,-132.324 804.127,-120.949"/>
<polygon fill="black" stroke="black" points="806.836,-118.696 798.433,-112.244 800.978,-122.528 806.836,-118.696"/>
</g>
<!-- 15 -->
<g id="node16" class="node"><title>15</title>
<path fill="#bfcfe6" stroke="black" d="M893.5,-111C893.5,-111 859.5,-111 859.5,-111 853.5,-111 847.5,-105 847.5,-99 847.5,-99 847.5,-87 847.5,-87 847.5,-81 853.5,-75 859.5,-75 859.5,-75 893.5,-75 893.5,-75 899.5,-75 905.5,-81 905.5,-87 905.5,-87 905.5,-99 905.5,-99 905.5,-105 899.5,-111 893.5,-111"/>
<text text-anchor="middle" x="876.5" y="-89.3" font-family="Times,serif" font-size="14.00">comp 1</text>
</g>
<!-- 6&#45;&gt;15 -->
<g id="edge15" class="edge"><title>6&#45;&gt;15</title>
<path fill="none" stroke="black" d="M847.123,-155.46C852.084,-145.081 858.407,-131.853 863.915,-120.33"/>
<polygon fill="black" stroke="black" points="867.147,-121.683 868.302,-111.151 860.832,-118.664 867.147,-121.683"/>
</g>
<!-- 16 -->
<g id="node17" class="node"><title>16</title>
<path fill="#d3e4ff" stroke="black" d="M1009.5,-111C1009.5,-111 975.5,-111 975.5,-111 969.5,-111 963.5,-105 963.5,-99 963.5,-99 963.5,-87 963.5,-87 963.5,-81 969.5,-75 975.5,-75 975.5,-75 1009.5,-75 1009.5,-75 1015.5,-75 1021.5,-81 1021.5,-87 1021.5,-87 1021.5,-99 1021.5,-99 1021.5,-105 1015.5,-111 1009.5,-111"/>
<text text-anchor="middle" x="992.5" y="-89.3" font-family="Times,serif" font-size="14.00">comp 0</text>
</g>
<!-- 7&#45;&gt;16 -->
<g id="edge16" class="edge"><title>7&#45;&gt;16</title>
<path fill="none" stroke="black" d="M992.5,-155.46C992.5,-145.392 992.5,-132.644 992.5,-121.371"/>
<polygon fill="black" stroke="black" points="996,-121.151 992.5,-111.151 989,-121.151 996,-121.151"/>
</g>
<!-- 17 -->
<g id="node18" class="node"><title>17</title>
<path fill="#bfcfe6" stroke="black" d="M1176,-112C1176,-112 1051,-112 1051,-112 1045,-112 1039,-106 1039,-100 1039,-100 1039,-86 1039,-86 1039,-80 1045,-74 1051,-74 1051,-74 1176,-74 1176,-74 1182,-74 1188,-80 1188,-86 1188,-86 1188,-100 1188,-100 1188,-106 1182,-112 1176,-112"/>
<text text-anchor="middle" x="1113.5" y="-96.8" font-family="Times,serif" font-size="14.00">comp 1</text>
<text text-anchor="middle" x="1113.5" y="-81.8" font-family="Times,serif" font-size="14.00">log gamma2: &#45;0.285492</text>
</g>
<!-- 7&#45;&gt;17 -->
<g id="edge17" class="edge"><title>7&#45;&gt;17</title>
<path fill="none" stroke="black" d="M1019.96,-155.46C1036.85,-144.358 1058.71,-129.996 1077.05,-117.948"/>
<polygon fill="black" stroke="black" points="1079.3,-120.66 1085.73,-112.244 1075.45,-114.81 1079.3,-120.66"/>
</g>
<!-- 18 -->
<g id="node19" class="node"><title>18</title>
<path fill="#f6d3ff" stroke="black" d="M89,-38C89,-38 54,-38 54,-38 48,-38 42,-32 42,-26 42,-26 42,-12 42,-12 42,-6 48,-0 54,-0 54,-0 89,-0 89,-0 95,-0 101,-6 101,-12 101,-12 101,-26 101,-26 101,-32 95,-38 89,-38"/>
<text text-anchor="middle" x="71.5" y="-22.8" font-family="Times,serif" font-size="14.00">forward</text>
<text text-anchor="middle" x="71.5" y="-7.8" font-family="Times,serif" font-size="14.00">input</text>
</g>
<!-- 8&#45;&gt;18 -->
<g id="edge18" class="edge"><title>8&#45;&gt;18</title>
<path fill="none" stroke="black" d="M71.5,-74.937C71.5,-66.9865 71.5,-57.3134 71.5,-48.3127"/>
<polygon fill="black" stroke="black" points="75.0001,-48.1991 71.5,-38.1992 68.0001,-48.1992 75.0001,-48.1991"/>
</g>
<!-- 19 -->
<g id="node20" class="node"><title>19</title>
<path fill="#f6d3ff" stroke="black" d="M167.5,-38C167.5,-38 131.5,-38 131.5,-38 125.5,-38 119.5,-32 119.5,-26 119.5,-26 119.5,-12 119.5,-12 119.5,-6 125.5,-0 131.5,-0 131.5,-0 167.5,-0 167.5,-0 173.5,-0 179.5,-6 179.5,-12 179.5,-12 179.5,-26 179.5,-26 179.5,-32 173.5,-38 167.5,-38"/>
<text text-anchor="middle" x="149.5" y="-22.8" font-family="Times,serif" font-size="14.00">forward</text>
<text text-anchor="middle" x="149.5" y="-7.8" font-family="Times,serif" font-size="14.00">EB0/C0</text>
</g>
<!-- 9&#45;&gt;19 -->
<g id="edge19" class="edge"><title>9&#45;&gt;19</title>
<path fill="none" stroke="black" d="M148.737,-74.937C148.847,-66.9865 148.982,-57.3134 149.107,-48.3127"/>
<polygon fill="black" stroke="black" points="152.608,-48.2468 149.247,-38.1992 145.609,-48.1496 152.608,-48.2468"/>
</g>
<!-- 20 -->
<g id="node21" class="node"><title>20</title>
<path fill="#f6d3ff" stroke="black" d="M359.5,-38C359.5,-38 323.5,-38 323.5,-38 317.5,-38 311.5,-32 311.5,-26 311.5,-26 311.5,-12 311.5,-12 311.5,-6 317.5,-0 323.5,-0 323.5,-0 359.5,-0 359.5,-0 365.5,-0 371.5,-6 371.5,-12 371.5,-12 371.5,-26 371.5,-26 371.5,-32 365.5,-38 359.5,-38"/>
<text text-anchor="middle" x="341.5" y="-22.8" font-family="Times,serif" font-size="14.00">forward</text>
<text text-anchor="middle" x="341.5" y="-7.8" font-family="Times,serif" font-size="14.00">EB0/C1</text>
</g>
<!-- 10&#45;&gt;20 -->
<g id="edge20" class="edge"><title>10&#45;&gt;20</title>
<path fill="none" stroke="black" d="M341.5,-74.937C341.5,-66.9865 341.5,-57.3134 341.5,-48.3127"/>
<polygon fill="black" stroke="black" points="345,-48.1991 341.5,-38.1992 338,-48.1992 345,-48.1991"/>
</g>
<!-- 21 -->
<g id="node22" class="node"><title>21</title>
<path fill="#f6d3ff" stroke="black" d="M437.5,-38C437.5,-38 401.5,-38 401.5,-38 395.5,-38 389.5,-32 389.5,-26 389.5,-26 389.5,-12 389.5,-12 389.5,-6 395.5,-0 401.5,-0 401.5,-0 437.5,-0 437.5,-0 443.5,-0 449.5,-6 449.5,-12 449.5,-12 449.5,-26 449.5,-26 449.5,-32 443.5,-38 437.5,-38"/>
<text text-anchor="middle" x="419.5" y="-22.8" font-family="Times,serif" font-size="14.00">forward</text>
<text text-anchor="middle" x="419.5" y="-7.8" font-family="Times,serif" font-size="14.00">EB1/C0</text>
</g>
<!-- 11&#45;&gt;21 -->
<g id="edge21" class="edge"><title>11&#45;&gt;21</title>
<path fill="none" stroke="black" d="M418.737,-74.937C418.847,-66.9865 418.982,-57.3134 419.107,-48.3127"/>
<polygon fill="black" stroke="black" points="422.608,-48.2468 419.247,-38.1992 415.609,-48.1496 422.608,-48.2468"/>
</g>
<!-- 22 -->
<g id="node23" class="node"><title>22</title>
<path fill="#f6d3ff" stroke="black" d="M569.5,-38C569.5,-38 533.5,-38 533.5,-38 527.5,-38 521.5,-32 521.5,-26 521.5,-26 521.5,-12 521.5,-12 521.5,-6 527.5,-0 533.5,-0 533.5,-0 569.5,-0 569.5,-0 575.5,-0 581.5,-6 581.5,-12 581.5,-12 581.5,-26 581.5,-26 581.5,-32 575.5,-38 569.5,-38"/>
<text text-anchor="middle" x="551.5" y="-22.8" font-family="Times,serif" font-size="14.00">forward</text>
<text text-anchor="middle" x="551.5" y="-7.8" font-family="Times,serif" font-size="14.00">EB1/C1</text>
</g>
<!-- 12&#45;&gt;22 -->
<g id="edge22" class="edge"><title>12&#45;&gt;22</title>
<path fill="none" stroke="black" d="M551.5,-73.8314C551.5,-66.131 551.5,-56.9743 551.5,-48.4166"/>
<polygon fill="black" stroke="black" points="555,-48.4132 551.5,-38.4133 548,-48.4133 555,-48.4132"/>
</g>
<!-- 23 -->
<g id="node24" class="node"><title>23</title>
<path fill="#f6d3ff" stroke="black" d="M657.5,-38C657.5,-38 619.5,-38 619.5,-38 613.5,-38 607.5,-32 607.5,-26 607.5,-26 607.5,-12 607.5,-12 607.5,-6 613.5,-0 619.5,-0 619.5,-0 657.5,-0 657.5,-0 663.5,-0 669.5,-6 669.5,-12 669.5,-12 669.5,-26 669.5,-26 669.5,-32 663.5,-38 657.5,-38"/>
<text text-anchor="middle" x="638.5" y="-22.8" font-family="Times,serif" font-size="14.00">forward</text>
<text text-anchor="middle" x="638.5" y="-7.8" font-family="Times,serif" font-size="14.00">DB2/C0</text>
</g>
<!-- 13&#45;&gt;23 -->
<g id="edge23" class="edge"><title>13&#45;&gt;23</title>
<path fill="none" stroke="black" d="M638.5,-74.937C638.5,-66.9865 638.5,-57.3134 638.5,-48.3127"/>
<polygon fill="black" stroke="black" points="642,-48.1991 638.5,-38.1992 635,-48.1992 642,-48.1991"/>
</g>
<!-- 24 -->
<g id="node25" class="node"><title>24</title>
<path fill="#f6d3ff" stroke="black" d="M737.5,-38C737.5,-38 699.5,-38 699.5,-38 693.5,-38 687.5,-32 687.5,-26 687.5,-26 687.5,-12 687.5,-12 687.5,-6 693.5,-0 699.5,-0 699.5,-0 737.5,-0 737.5,-0 743.5,-0 749.5,-6 749.5,-12 749.5,-12 749.5,-26 749.5,-26 749.5,-32 743.5,-38 737.5,-38"/>
<text text-anchor="middle" x="718.5" y="-22.8" font-family="Times,serif" font-size="14.00">forward</text>
<text text-anchor="middle" x="718.5" y="-7.8" font-family="Times,serif" font-size="14.00">DB2/C1</text>
</g>
<!-- 14&#45;&gt;24 -->
<g id="edge24" class="edge"><title>14&#45;&gt;24</title>
<path fill="none" stroke="black" d="M769.341,-73.8314C761.349,-65.3694 751.696,-55.1489 742.958,-45.8971"/>
<polygon fill="black" stroke="black" points="745.301,-43.2802 735.89,-38.4133 740.212,-48.0866 745.301,-43.2802"/>
</g>
<!-- 25 -->
<g id="node26" class="node"><title>25</title>
<path fill="#debfe6" stroke="black" d="M815.5,-38C815.5,-38 779.5,-38 779.5,-38 773.5,-38 767.5,-32 767.5,-26 767.5,-26 767.5,-12 767.5,-12 767.5,-6 773.5,-0 779.5,-0 779.5,-0 815.5,-0 815.5,-0 821.5,-0 827.5,-6 827.5,-12 827.5,-12 827.5,-26 827.5,-26 827.5,-32 821.5,-38 815.5,-38"/>
<text text-anchor="middle" x="797.5" y="-22.8" font-family="Times,serif" font-size="14.00">merge</text>
<text text-anchor="middle" x="797.5" y="-7.8" font-family="Times,serif" font-size="14.00">EB1/C1</text>
</g>
<!-- 14&#45;&gt;25 -->
<g id="edge25" class="edge"><title>14&#45;&gt;25</title>
<path fill="none" stroke="black" d="M789.276,-73.8314C790.452,-66.131 791.851,-56.9743 793.159,-48.4166"/>
<polygon fill="black" stroke="black" points="796.636,-48.8272 794.687,-38.4133 789.717,-47.7699 796.636,-48.8272"/>
</g>
<!-- 26 -->
<g id="node27" class="node"><title>26</title>
<path fill="#f6d3ff" stroke="black" d="M895.5,-38C895.5,-38 857.5,-38 857.5,-38 851.5,-38 845.5,-32 845.5,-26 845.5,-26 845.5,-12 845.5,-12 845.5,-6 851.5,-0 857.5,-0 857.5,-0 895.5,-0 895.5,-0 901.5,-0 907.5,-6 907.5,-12 907.5,-12 907.5,-26 907.5,-26 907.5,-32 901.5,-38 895.5,-38"/>
<text text-anchor="middle" x="876.5" y="-22.8" font-family="Times,serif" font-size="14.00">forward</text>
<text text-anchor="middle" x="876.5" y="-7.8" font-family="Times,serif" font-size="14.00">DB1/C0</text>
</g>
<!-- 15&#45;&gt;26 -->
<g id="edge26" class="edge"><title>15&#45;&gt;26</title>
<path fill="none" stroke="black" d="M876.5,-74.937C876.5,-66.9865 876.5,-57.3134 876.5,-48.3127"/>
<polygon fill="black" stroke="black" points="880,-48.1991 876.5,-38.1992 873,-48.1992 880,-48.1991"/>
</g>
<!-- 27 -->
<g id="node28" class="node"><title>27</title>
<path fill="#f6d3ff" stroke="black" d="M975.5,-38C975.5,-38 937.5,-38 937.5,-38 931.5,-38 925.5,-32 925.5,-26 925.5,-26 925.5,-12 925.5,-12 925.5,-6 931.5,-0 937.5,-0 937.5,-0 975.5,-0 975.5,-0 981.5,-0 987.5,-6 987.5,-12 987.5,-12 987.5,-26 987.5,-26 987.5,-32 981.5,-38 975.5,-38"/>
<text text-anchor="middle" x="956.5" y="-22.8" font-family="Times,serif" font-size="14.00">forward</text>
<text text-anchor="middle" x="956.5" y="-7.8" font-family="Times,serif" font-size="14.00">DB1/C1</text>
</g>
<!-- 16&#45;&gt;27 -->
<g id="edge27" class="edge"><title>16&#45;&gt;27</title>
<path fill="none" stroke="black" d="M983.969,-74.937C979.864,-66.7273 974.84,-56.6807 970.217,-47.4345"/>
<polygon fill="black" stroke="black" points="973.202,-45.5782 965.6,-38.1992 966.941,-48.7087 973.202,-45.5782"/>
</g>
<!-- 28 -->
<g id="node29" class="node"><title>28</title>
<path fill="#debfe6" stroke="black" d="M1053.5,-38C1053.5,-38 1017.5,-38 1017.5,-38 1011.5,-38 1005.5,-32 1005.5,-26 1005.5,-26 1005.5,-12 1005.5,-12 1005.5,-6 1011.5,-0 1017.5,-0 1017.5,-0 1053.5,-0 1053.5,-0 1059.5,-0 1065.5,-6 1065.5,-12 1065.5,-12 1065.5,-26 1065.5,-26 1065.5,-32 1059.5,-38 1053.5,-38"/>
<text text-anchor="middle" x="1035.5" y="-22.8" font-family="Times,serif" font-size="14.00">merge</text>
<text text-anchor="middle" x="1035.5" y="-7.8" font-family="Times,serif" font-size="14.00">EB0/C1</text>
</g>
<!-- 16&#45;&gt;28 -->
<g id="edge28" class="edge"><title>16&#45;&gt;28</title>
<path fill="none" stroke="black" d="M1002.69,-74.937C1007.7,-66.5544 1013.85,-56.2569 1019.46,-46.8516"/>
<polygon fill="black" stroke="black" points="1022.51,-48.5792 1024.63,-38.1992 1016.5,-44.99 1022.51,-48.5792"/>
</g>
<!-- 29 -->
<g id="node30" class="node"><title>29</title>
<path fill="#f6d3ff" stroke="black" d="M1133.5,-38C1133.5,-38 1095.5,-38 1095.5,-38 1089.5,-38 1083.5,-32 1083.5,-26 1083.5,-26 1083.5,-12 1083.5,-12 1083.5,-6 1089.5,-0 1095.5,-0 1095.5,-0 1133.5,-0 1133.5,-0 1139.5,-0 1145.5,-6 1145.5,-12 1145.5,-12 1145.5,-26 1145.5,-26 1145.5,-32 1139.5,-38 1133.5,-38"/>
<text text-anchor="middle" x="1114.5" y="-22.8" font-family="Times,serif" font-size="14.00">forward</text>
<text text-anchor="middle" x="1114.5" y="-7.8" font-family="Times,serif" font-size="14.00">DB0/C0</text>
</g>
<!-- 17&#45;&gt;29 -->
<g id="edge29" class="edge"><title>17&#45;&gt;29</title>
<path fill="none" stroke="black" d="M1113.75,-73.8314C1113.86,-66.131 1113.99,-56.9743 1114.11,-48.4166"/>
<polygon fill="black" stroke="black" points="1117.6,-48.4609 1114.24,-38.4133 1110.61,-48.3637 1117.6,-48.4609"/>
</g>
</g>
</svg>
