<?xml version="1.0" encoding="UTF-8" standalone="no"?>
<!DOCTYPE svg PUBLIC "-//W3C//DTD SVG 1.1//EN"
 "http://www.w3.org/Graphics/SVG/1.1/DTD/svg11.dtd">
<!-- Generated by graphviz version 2.38.0 (20140413.2041)
 -->
<!-- Title: %3 Pages: 1 -->
<svg width="3220pt" height="447pt"
 viewBox="0.00 0.00 3220.00 447.00" xmlns="http://www.w3.org/2000/svg" xmlns:xlink="http://www.w3.org/1999/xlink">
<g id="graph0" class="graph" transform="scale(1 1) rotate(0) translate(4 443)">
<title>%3</title>
<polygon fill="none" stroke="none" points="-4,4 -4,-443 3216,-443 3216,4 -4,4"/>
<!-- 0 -->
<g id="node1" class="node"><title>0</title>
<path fill="#ffd3d3" stroke="black" d="M1347.5,-439C1347.5,-439 1067.5,-439 1067.5,-439 1061.5,-439 1055.5,-433 1055.5,-427 1055.5,-427 1055.5,-398 1055.5,-398 1055.5,-392 1061.5,-386 1067.5,-386 1067.5,-386 1347.5,-386 1347.5,-386 1353.5,-386 1359.5,-392 1359.5,-398 1359.5,-398 1359.5,-427 1359.5,-427 1359.5,-433 1353.5,-439 1347.5,-439"/>
<text text-anchor="middle" x="1207.5" y="-423.8" font-family="Times,serif" font-size="14.00">net</text>
<text text-anchor="middle" x="1207.5" y="-408.8" font-family="Times,serif" font-size="14.00">log lambda1: &#45;11.000000 &#160;&#160;log lambda2: &#45;11.000000</text>
<text text-anchor="middle" x="1207.5" y="-393.8" font-family="Times,serif" font-size="14.00">n kernels: 64 &#160;&#160;pooling type: 0</text>
</g>
<!-- 1 -->
<g id="node2" class="node"><title>1</title>
<path fill="#f6ffd3" stroke="black" d="M1100,-350C1100,-350 841,-350 841,-350 835,-350 829,-344 829,-338 829,-338 829,-324 829,-324 829,-318 835,-312 841,-312 841,-312 1100,-312 1100,-312 1106,-312 1112,-318 1112,-324 1112,-324 1112,-338 1112,-338 1112,-344 1106,-350 1100,-350"/>
<text text-anchor="middle" x="970.5" y="-334.8" font-family="Times,serif" font-size="14.00">encoder</text>
<text text-anchor="middle" x="970.5" y="-319.8" font-family="Times,serif" font-size="14.00">log gamma1: 1.118614 &#160;&#160;log gamma2: 0.982957</text>
</g>
<!-- 0&#45;&gt;1 -->
<g id="edge1" class="edge"><title>0&#45;&gt;1</title>
<path fill="none" stroke="black" d="M1131.21,-385.908C1099.83,-375.382 1063.9,-363.332 1033.99,-353.298"/>
<polygon fill="black" stroke="black" points="1035.1,-349.977 1024.5,-350.115 1032.87,-356.614 1035.1,-349.977"/>
</g>
<!-- 2 -->
<g id="node3" class="node"><title>2</title>
<path fill="#f6ffd3" stroke="black" d="M1472.5,-350C1472.5,-350 1416.5,-350 1416.5,-350 1410.5,-350 1404.5,-344 1404.5,-338 1404.5,-338 1404.5,-324 1404.5,-324 1404.5,-318 1410.5,-312 1416.5,-312 1416.5,-312 1472.5,-312 1472.5,-312 1478.5,-312 1484.5,-318 1484.5,-324 1484.5,-324 1484.5,-338 1484.5,-338 1484.5,-344 1478.5,-350 1472.5,-350"/>
<text text-anchor="middle" x="1444.5" y="-334.8" font-family="Times,serif" font-size="14.00">decoder</text>
<text text-anchor="middle" x="1444.5" y="-319.8" font-family="Times,serif" font-size="14.00">n kernels: 8</text>
</g>
<!-- 0&#45;&gt;2 -->
<g id="edge2" class="edge"><title>0&#45;&gt;2</title>
<path fill="none" stroke="black" d="M1283.79,-385.908C1320.09,-373.732 1362.47,-359.517 1394.59,-348.742"/>
<polygon fill="black" stroke="black" points="1395.84,-352.013 1404.21,-345.514 1393.62,-345.376 1395.84,-352.013"/>
</g>
<!-- 3 -->
<g id="node4" class="node"><title>3</title>
<path fill="#d3ffe4" stroke="black" d="M730,-268.5C730,-268.5 605,-268.5 605,-268.5 599,-268.5 593,-262.5 593,-256.5 593,-256.5 593,-242.5 593,-242.5 593,-236.5 599,-230.5 605,-230.5 605,-230.5 730,-230.5 730,-230.5 736,-230.5 742,-236.5 742,-242.5 742,-242.5 742,-256.5 742,-256.5 742,-262.5 736,-268.5 730,-268.5"/>
<text text-anchor="middle" x="667.5" y="-253.3" font-family="Times,serif" font-size="14.00">encode block 0</text>
<text text-anchor="middle" x="667.5" y="-238.3" font-family="Times,serif" font-size="14.00">log gamma2: &#45;0.611004</text>
</g>
<!-- 1&#45;&gt;3 -->
<g id="edge3" class="edge"><title>1&#45;&gt;3</title>
<path fill="none" stroke="black" d="M901.745,-311.96C855.435,-299.81 794.245,-283.755 746.019,-271.101"/>
<polygon fill="black" stroke="black" points="746.806,-267.69 736.245,-268.537 745.029,-274.46 746.806,-267.69"/>
</g>
<!-- 4 -->
<g id="node5" class="node"><title>4</title>
<path fill="#d3ffe4" stroke="black" d="M1576,-276C1576,-276 1313,-276 1313,-276 1307,-276 1301,-270 1301,-264 1301,-264 1301,-235 1301,-235 1301,-229 1307,-223 1313,-223 1313,-223 1576,-223 1576,-223 1582,-223 1588,-229 1588,-235 1588,-235 1588,-264 1588,-264 1588,-270 1582,-276 1576,-276"/>
<text text-anchor="middle" x="1444.5" y="-260.8" font-family="Times,serif" font-size="14.00">decode block 1</text>
<text text-anchor="middle" x="1444.5" y="-245.8" font-family="Times,serif" font-size="14.00">log gamma1: &#45;0.691344 &#160;&#160;log gamma2: 0.856710</text>
<text text-anchor="middle" x="1444.5" y="-230.8" font-family="Times,serif" font-size="14.00">n kernels: 72 &#160;&#160;spatial scale: 1</text>
</g>
<!-- 2&#45;&gt;4 -->
<g id="edge4" class="edge"><title>2&#45;&gt;4</title>
<path fill="none" stroke="black" d="M1444.5,-311.96C1444.5,-304.321 1444.5,-295.139 1444.5,-286.229"/>
<polygon fill="black" stroke="black" points="1448,-286.003 1444.5,-276.003 1441,-286.003 1448,-286.003"/>
</g>
<!-- 5 -->
<g id="node6" class="node"><title>5</title>
<path fill="#bfe6cf" stroke="black" d="M2608,-268.5C2608,-268.5 2483,-268.5 2483,-268.5 2477,-268.5 2471,-262.5 2471,-256.5 2471,-256.5 2471,-242.5 2471,-242.5 2471,-236.5 2477,-230.5 2483,-230.5 2483,-230.5 2608,-230.5 2608,-230.5 2614,-230.5 2620,-236.5 2620,-242.5 2620,-242.5 2620,-256.5 2620,-256.5 2620,-262.5 2614,-268.5 2608,-268.5"/>
<text text-anchor="middle" x="2545.5" y="-253.3" font-family="Times,serif" font-size="14.00">decode block 0</text>
<text text-anchor="middle" x="2545.5" y="-238.3" font-family="Times,serif" font-size="14.00">log gamma2: &#45;1.945406</text>
</g>
<!-- 2&#45;&gt;5 -->
<g id="edge5" class="edge"><title>2&#45;&gt;5</title>
<path fill="none" stroke="black" d="M1484.66,-327.1C1644.64,-315.549 2238.53,-272.665 2460.8,-256.616"/>
<polygon fill="black" stroke="black" points="2461.07,-260.106 2470.79,-255.895 2460.56,-253.124 2461.07,-260.106"/>
</g>
<!-- 6 -->
<g id="node7" class="node"><title>6</title>
<path fill="#d3e4ff" stroke="black" d="M293.5,-179.5C293.5,-179.5 87.5,-179.5 87.5,-179.5 81.5,-179.5 75.5,-173.5 75.5,-167.5 75.5,-167.5 75.5,-153.5 75.5,-153.5 75.5,-147.5 81.5,-141.5 87.5,-141.5 87.5,-141.5 293.5,-141.5 293.5,-141.5 299.5,-141.5 305.5,-147.5 305.5,-153.5 305.5,-153.5 305.5,-167.5 305.5,-167.5 305.5,-173.5 299.5,-179.5 293.5,-179.5"/>
<text text-anchor="middle" x="190.5" y="-164.3" font-family="Times,serif" font-size="14.00">comp 0</text>
<text text-anchor="middle" x="190.5" y="-149.3" font-family="Times,serif" font-size="14.00">log gamma1: &#45;0.217172 &#160;&#160;n kernels: 15</text>
</g>
<!-- 3&#45;&gt;6 -->
<g id="edge6" class="edge"><title>3&#45;&gt;6</title>
<path fill="none" stroke="black" d="M592.969,-234.906C514.171,-220.534 389.091,-197.721 299.282,-181.341"/>
<polygon fill="black" stroke="black" points="299.8,-177.878 289.335,-179.526 298.544,-184.764 299.8,-177.878"/>
</g>
<!-- 7 -->
<g id="node8" class="node"><title>7</title>
<path fill="#bfcfe6" stroke="black" d="M608.5,-179.5C608.5,-179.5 402.5,-179.5 402.5,-179.5 396.5,-179.5 390.5,-173.5 390.5,-167.5 390.5,-167.5 390.5,-153.5 390.5,-153.5 390.5,-147.5 396.5,-141.5 402.5,-141.5 402.5,-141.5 608.5,-141.5 608.5,-141.5 614.5,-141.5 620.5,-147.5 620.5,-153.5 620.5,-153.5 620.5,-167.5 620.5,-167.5 620.5,-173.5 614.5,-179.5 608.5,-179.5"/>
<text text-anchor="middle" x="505.5" y="-164.3" font-family="Times,serif" font-size="14.00">comp 1</text>
<text text-anchor="middle" x="505.5" y="-149.3" font-family="Times,serif" font-size="14.00">log gamma2: 1.633438 &#160;&#160;n kernels: &#45;16</text>
</g>
<!-- 3&#45;&gt;7 -->
<g id="edge7" class="edge"><title>3&#45;&gt;7</title>
<path fill="none" stroke="black" d="M633.933,-230.474C609.063,-217.117 574.98,-198.813 548.174,-184.418"/>
<polygon fill="black" stroke="black" points="549.489,-181.151 539.024,-179.503 546.177,-187.318 549.489,-181.151"/>
</g>
<!-- 8 -->
<g id="node9" class="node"><title>8</title>
<path fill="#abb9ce" stroke="black" d="M829.5,-179.5C829.5,-179.5 709.5,-179.5 709.5,-179.5 703.5,-179.5 697.5,-173.5 697.5,-167.5 697.5,-167.5 697.5,-153.5 697.5,-153.5 697.5,-147.5 703.5,-141.5 709.5,-141.5 709.5,-141.5 829.5,-141.5 829.5,-141.5 835.5,-141.5 841.5,-147.5 841.5,-153.5 841.5,-153.5 841.5,-167.5 841.5,-167.5 841.5,-173.5 835.5,-179.5 829.5,-179.5"/>
<text text-anchor="middle" x="769.5" y="-164.3" font-family="Times,serif" font-size="14.00">comp 2</text>
<text text-anchor="middle" x="769.5" y="-149.3" font-family="Times,serif" font-size="14.00">log gamma1: 0.185034</text>
</g>
<!-- 3&#45;&gt;8 -->
<g id="edge8" class="edge"><title>3&#45;&gt;8</title>
<path fill="none" stroke="black" d="M688.634,-230.474C703.678,-217.642 724.076,-200.244 740.62,-186.133"/>
<polygon fill="black" stroke="black" points="743.056,-188.656 748.393,-179.503 738.513,-183.33 743.056,-188.656"/>
</g>
<!-- 9 -->
<g id="node10" class="node"><title>9</title>
<path fill="#d3e4ff" stroke="black" d="M1248.5,-179.5C1248.5,-179.5 1042.5,-179.5 1042.5,-179.5 1036.5,-179.5 1030.5,-173.5 1030.5,-167.5 1030.5,-167.5 1030.5,-153.5 1030.5,-153.5 1030.5,-147.5 1036.5,-141.5 1042.5,-141.5 1042.5,-141.5 1248.5,-141.5 1248.5,-141.5 1254.5,-141.5 1260.5,-147.5 1260.5,-153.5 1260.5,-153.5 1260.5,-167.5 1260.5,-167.5 1260.5,-173.5 1254.5,-179.5 1248.5,-179.5"/>
<text text-anchor="middle" x="1145.5" y="-164.3" font-family="Times,serif" font-size="14.00">comp 0</text>
<text text-anchor="middle" x="1145.5" y="-149.3" font-family="Times,serif" font-size="14.00">log gamma2: 0.067976 &#160;&#160;n kernels: &#45;16</text>
</g>
<!-- 4&#45;&gt;9 -->
<g id="edge9" class="edge"><title>4&#45;&gt;9</title>
<path fill="none" stroke="black" d="M1356.81,-222.985C1312.46,-210.081 1259.31,-194.614 1217.4,-182.421"/>
<polygon fill="black" stroke="black" points="1218.13,-178.988 1207.55,-179.555 1216.17,-185.709 1218.13,-178.988"/>
</g>
<!-- 10 -->
<g id="node11" class="node"><title>10</title>
<path fill="#bfcfe6" stroke="black" d="M1574,-179.5C1574,-179.5 1315,-179.5 1315,-179.5 1309,-179.5 1303,-173.5 1303,-167.5 1303,-167.5 1303,-153.5 1303,-153.5 1303,-147.5 1309,-141.5 1315,-141.5 1315,-141.5 1574,-141.5 1574,-141.5 1580,-141.5 1586,-147.5 1586,-153.5 1586,-153.5 1586,-167.5 1586,-167.5 1586,-173.5 1580,-179.5 1574,-179.5"/>
<text text-anchor="middle" x="1444.5" y="-164.3" font-family="Times,serif" font-size="14.00">comp 1</text>
<text text-anchor="middle" x="1444.5" y="-149.3" font-family="Times,serif" font-size="14.00">log gamma1: 1.720553 &#160;&#160;log gamma2: 0.038257</text>
</g>
<!-- 4&#45;&gt;10 -->
<g id="edge10" class="edge"><title>4&#45;&gt;10</title>
<path fill="none" stroke="black" d="M1444.5,-222.868C1444.5,-212.417 1444.5,-200.301 1444.5,-189.609"/>
<polygon fill="black" stroke="black" points="1448,-189.507 1444.5,-179.507 1441,-189.507 1448,-189.507"/>
</g>
<!-- 11 -->
<g id="node12" class="node"><title>11</title>
<path fill="#abb9ce" stroke="black" d="M1889,-187C1889,-187 1626,-187 1626,-187 1620,-187 1614,-181 1614,-175 1614,-175 1614,-146 1614,-146 1614,-140 1620,-134 1626,-134 1626,-134 1889,-134 1889,-134 1895,-134 1901,-140 1901,-146 1901,-146 1901,-175 1901,-175 1901,-181 1895,-187 1889,-187"/>
<text text-anchor="middle" x="1757.5" y="-171.8" font-family="Times,serif" font-size="14.00">comp 2</text>
<text text-anchor="middle" x="1757.5" y="-156.8" font-family="Times,serif" font-size="14.00">log gamma1: 0.797247 &#160;&#160;log gamma2: &#45;0.023977</text>
<text text-anchor="middle" x="1757.5" y="-141.8" font-family="Times,serif" font-size="14.00">n kernels: &#45;16</text>
</g>
<!-- 4&#45;&gt;11 -->
<g id="edge11" class="edge"><title>4&#45;&gt;11</title>
<path fill="none" stroke="black" d="M1536.3,-222.985C1573.88,-212.539 1617.5,-200.413 1656.03,-189.705"/>
<polygon fill="black" stroke="black" points="1657.01,-193.065 1665.71,-187.015 1655.13,-186.321 1657.01,-193.065"/>
</g>
<!-- 12 -->
<g id="node13" class="node"><title>12</title>
<path fill="#d3e4ff" stroke="black" d="M2547.5,-187C2547.5,-187 2279.5,-187 2279.5,-187 2273.5,-187 2267.5,-181 2267.5,-175 2267.5,-175 2267.5,-146 2267.5,-146 2267.5,-140 2273.5,-134 2279.5,-134 2279.5,-134 2547.5,-134 2547.5,-134 2553.5,-134 2559.5,-140 2559.5,-146 2559.5,-146 2559.5,-175 2559.5,-175 2559.5,-181 2553.5,-187 2547.5,-187"/>
<text text-anchor="middle" x="2413.5" y="-171.8" font-family="Times,serif" font-size="14.00">comp 0</text>
<text text-anchor="middle" x="2413.5" y="-156.8" font-family="Times,serif" font-size="14.00">log gamma1: &#45;1.643295 &#160;&#160;log gamma2: &#45;1.007109</text>
<text text-anchor="middle" x="2413.5" y="-141.8" font-family="Times,serif" font-size="14.00">n kernels: &#45;5</text>
</g>
<!-- 5&#45;&gt;12 -->
<g id="edge12" class="edge"><title>5&#45;&gt;12</title>
<path fill="none" stroke="black" d="M2518.15,-230.474C2501.57,-219.548 2479.97,-205.312 2460.71,-192.613"/>
<polygon fill="black" stroke="black" points="2462.6,-189.673 2452.33,-187.092 2458.75,-195.518 2462.6,-189.673"/>
</g>
<!-- 13 -->
<g id="node14" class="node"><title>13</title>
<path fill="#bfcfe6" stroke="black" d="M2710,-179.5C2710,-179.5 2647,-179.5 2647,-179.5 2641,-179.5 2635,-173.5 2635,-167.5 2635,-167.5 2635,-153.5 2635,-153.5 2635,-147.5 2641,-141.5 2647,-141.5 2647,-141.5 2710,-141.5 2710,-141.5 2716,-141.5 2722,-147.5 2722,-153.5 2722,-153.5 2722,-167.5 2722,-167.5 2722,-173.5 2716,-179.5 2710,-179.5"/>
<text text-anchor="middle" x="2678.5" y="-164.3" font-family="Times,serif" font-size="14.00">comp 1</text>
<text text-anchor="middle" x="2678.5" y="-149.3" font-family="Times,serif" font-size="14.00">n kernels: 19</text>
</g>
<!-- 5&#45;&gt;13 -->
<g id="edge13" class="edge"><title>5&#45;&gt;13</title>
<path fill="none" stroke="black" d="M2573.06,-230.474C2593.21,-217.292 2620.73,-199.292 2642.6,-184.985"/>
<polygon fill="black" stroke="black" points="2644.52,-187.907 2650.98,-179.503 2640.69,-182.049 2644.52,-187.907"/>
</g>
<!-- 14 -->
<g id="node15" class="node"><title>14</title>
<path fill="#abb9ce" stroke="black" d="M2976.5,-179.5C2976.5,-179.5 2920.5,-179.5 2920.5,-179.5 2914.5,-179.5 2908.5,-173.5 2908.5,-167.5 2908.5,-167.5 2908.5,-153.5 2908.5,-153.5 2908.5,-147.5 2914.5,-141.5 2920.5,-141.5 2920.5,-141.5 2976.5,-141.5 2976.5,-141.5 2982.5,-141.5 2988.5,-147.5 2988.5,-153.5 2988.5,-153.5 2988.5,-167.5 2988.5,-167.5 2988.5,-173.5 2982.5,-179.5 2976.5,-179.5"/>
<text text-anchor="middle" x="2948.5" y="-164.3" font-family="Times,serif" font-size="14.00">comp 2</text>
<text text-anchor="middle" x="2948.5" y="-149.3" font-family="Times,serif" font-size="14.00">n kernels: 1</text>
</g>
<!-- 5&#45;&gt;14 -->
<g id="edge14" class="edge"><title>5&#45;&gt;14</title>
<path fill="none" stroke="black" d="M2620.36,-232.34C2701.5,-214.823 2828.72,-187.359 2898.52,-172.29"/>
<polygon fill="black" stroke="black" points="2899.35,-175.691 2908.39,-170.159 2897.87,-168.848 2899.35,-175.691"/>
</g>
<!-- 15 -->
<g id="node16" class="node"><title>15</title>
<path fill="#f6d3ff" stroke="black" d="M293,-98C293,-98 12,-98 12,-98 6,-98 0,-92 0,-86 0,-86 0,-12 0,-12 0,-6 6,-0 12,-0 12,-0 293,-0 293,-0 299,-0 305,-6 305,-12 305,-12 305,-86 305,-86 305,-92 299,-98 293,-98"/>
<text text-anchor="middle" x="152.5" y="-82.8" font-family="Times,serif" font-size="14.00">forward</text>
<text text-anchor="middle" x="152.5" y="-67.8" font-family="Times,serif" font-size="14.00">input</text>
<text text-anchor="middle" x="152.5" y="-52.8" font-family="Times,serif" font-size="14.00">dilation rate: 1 &#160;&#160;k width: 3</text>
<text text-anchor="middle" x="152.5" y="-37.8" font-family="Times,serif" font-size="14.00">log gamma1: &#45;11.000000 &#160;&#160;log gamma2: &#45;11.000000</text>
<text text-anchor="middle" x="152.5" y="-22.8" font-family="Times,serif" font-size="14.00">log lambda1: &#45;11.000000 &#160;&#160;log lambda2: &#45;11.000000</text>
<text text-anchor="middle" x="152.5" y="-7.8" font-family="Times,serif" font-size="14.00">n kernels: 64</text>
</g>
<!-- 6&#45;&gt;15 -->
<g id="edge15" class="edge"><title>6&#45;&gt;15</title>
<path fill="none" stroke="black" d="M184.225,-141.418C180.998,-132.12 176.865,-120.209 172.656,-108.08"/>
<polygon fill="black" stroke="black" points="175.865,-106.652 169.28,-98.352 169.252,-108.947 175.865,-106.652"/>
</g>
<!-- 16 -->
<g id="node17" class="node"><title>16</title>
<path fill="#f6d3ff" stroke="black" d="M616,-98C616,-98 335,-98 335,-98 329,-98 323,-92 323,-86 323,-86 323,-12 323,-12 323,-6 329,-0 335,-0 335,-0 616,-0 616,-0 622,-0 628,-6 628,-12 628,-12 628,-86 628,-86 628,-92 622,-98 616,-98"/>
<text text-anchor="middle" x="475.5" y="-82.8" font-family="Times,serif" font-size="14.00">forward</text>
<text text-anchor="middle" x="475.5" y="-67.8" font-family="Times,serif" font-size="14.00">EB0/C0</text>
<text text-anchor="middle" x="475.5" y="-52.8" font-family="Times,serif" font-size="14.00">dilation rate: 1 &#160;&#160;k width: 3</text>
<text text-anchor="middle" x="475.5" y="-37.8" font-family="Times,serif" font-size="14.00">log gamma1: &#45;11.000000 &#160;&#160;log gamma2: &#45;11.000000</text>
<text text-anchor="middle" x="475.5" y="-22.8" font-family="Times,serif" font-size="14.00">log lambda1: &#45;11.000000 &#160;&#160;log lambda2: &#45;11.000000</text>
<text text-anchor="middle" x="475.5" y="-7.8" font-family="Times,serif" font-size="14.00">n kernels: 64</text>
</g>
<!-- 7&#45;&gt;16 -->
<g id="edge16" class="edge"><title>7&#45;&gt;16</title>
<path fill="none" stroke="black" d="M500.546,-141.418C497.999,-132.12 494.735,-120.209 491.412,-108.08"/>
<polygon fill="black" stroke="black" points="494.765,-107.072 488.747,-98.352 488.014,-108.921 494.765,-107.072"/>
</g>
<!-- 17 -->
<g id="node18" class="node"><title>17</title>
<path fill="#f6d3ff" stroke="black" d="M939,-98C939,-98 658,-98 658,-98 652,-98 646,-92 646,-86 646,-86 646,-12 646,-12 646,-6 652,-0 658,-0 658,-0 939,-0 939,-0 945,-0 951,-6 951,-12 951,-12 951,-86 951,-86 951,-92 945,-98 939,-98"/>
<text text-anchor="middle" x="798.5" y="-82.8" font-family="Times,serif" font-size="14.00">forward</text>
<text text-anchor="middle" x="798.5" y="-67.8" font-family="Times,serif" font-size="14.00">EB0/C1</text>
<text text-anchor="middle" x="798.5" y="-52.8" font-family="Times,serif" font-size="14.00">dilation rate: 1 &#160;&#160;k width: 3</text>
<text text-anchor="middle" x="798.5" y="-37.8" font-family="Times,serif" font-size="14.00">log gamma1: &#45;11.000000 &#160;&#160;log gamma2: &#45;11.000000</text>
<text text-anchor="middle" x="798.5" y="-22.8" font-family="Times,serif" font-size="14.00">log lambda1: &#45;11.000000 &#160;&#160;log lambda2: &#45;11.000000</text>
<text text-anchor="middle" x="798.5" y="-7.8" font-family="Times,serif" font-size="14.00">n kernels: 64</text>
</g>
<!-- 8&#45;&gt;17 -->
<g id="edge17" class="edge"><title>8&#45;&gt;17</title>
<path fill="none" stroke="black" d="M774.289,-141.418C776.751,-132.12 779.906,-120.209 783.118,-108.08"/>
<polygon fill="black" stroke="black" points="786.518,-108.915 785.694,-98.352 779.751,-107.123 786.518,-108.915"/>
</g>
<!-- 18 -->
<g id="node19" class="node"><title>18</title>
<path fill="#f6d3ff" stroke="black" d="M1262,-98C1262,-98 981,-98 981,-98 975,-98 969,-92 969,-86 969,-86 969,-12 969,-12 969,-6 975,-0 981,-0 981,-0 1262,-0 1262,-0 1268,-0 1274,-6 1274,-12 1274,-12 1274,-86 1274,-86 1274,-92 1268,-98 1262,-98"/>
<text text-anchor="middle" x="1121.5" y="-82.8" font-family="Times,serif" font-size="14.00">forward</text>
<text text-anchor="middle" x="1121.5" y="-67.8" font-family="Times,serif" font-size="14.00">EB0/C2</text>
<text text-anchor="middle" x="1121.5" y="-52.8" font-family="Times,serif" font-size="14.00">dilation rate: 1 &#160;&#160;k width: 3</text>
<text text-anchor="middle" x="1121.5" y="-37.8" font-family="Times,serif" font-size="14.00">log gamma1: &#45;11.000000 &#160;&#160;log gamma2: &#45;11.000000</text>
<text text-anchor="middle" x="1121.5" y="-22.8" font-family="Times,serif" font-size="14.00">log lambda1: &#45;11.000000 &#160;&#160;log lambda2: &#45;11.000000</text>
<text text-anchor="middle" x="1121.5" y="-7.8" font-family="Times,serif" font-size="14.00">n kernels: 64</text>
</g>
<!-- 9&#45;&gt;18 -->
<g id="edge18" class="edge"><title>9&#45;&gt;18</title>
<path fill="none" stroke="black" d="M1141.54,-141.418C1139.52,-132.212 1136.94,-120.445 1134.31,-108.441"/>
<polygon fill="black" stroke="black" points="1137.66,-107.371 1132.1,-98.352 1130.82,-108.87 1137.66,-107.371"/>
</g>
<!-- 19 -->
<g id="node20" class="node"><title>19</title>
<path fill="#f6d3ff" stroke="black" d="M1585,-98C1585,-98 1304,-98 1304,-98 1298,-98 1292,-92 1292,-86 1292,-86 1292,-12 1292,-12 1292,-6 1298,-0 1304,-0 1304,-0 1585,-0 1585,-0 1591,-0 1597,-6 1597,-12 1597,-12 1597,-86 1597,-86 1597,-92 1591,-98 1585,-98"/>
<text text-anchor="middle" x="1444.5" y="-82.8" font-family="Times,serif" font-size="14.00">forward</text>
<text text-anchor="middle" x="1444.5" y="-67.8" font-family="Times,serif" font-size="14.00">DB1/C0</text>
<text text-anchor="middle" x="1444.5" y="-52.8" font-family="Times,serif" font-size="14.00">dilation rate: 1 &#160;&#160;k width: 3</text>
<text text-anchor="middle" x="1444.5" y="-37.8" font-family="Times,serif" font-size="14.00">log gamma1: &#45;11.000000 &#160;&#160;log gamma2: &#45;11.000000</text>
<text text-anchor="middle" x="1444.5" y="-22.8" font-family="Times,serif" font-size="14.00">log lambda1: &#45;11.000000 &#160;&#160;log lambda2: &#45;11.000000</text>
<text text-anchor="middle" x="1444.5" y="-7.8" font-family="Times,serif" font-size="14.00">n kernels: 64</text>
</g>
<!-- 10&#45;&gt;19 -->
<g id="edge19" class="edge"><title>10&#45;&gt;19</title>
<path fill="none" stroke="black" d="M1444.5,-141.418C1444.5,-132.212 1444.5,-120.445 1444.5,-108.441"/>
<polygon fill="black" stroke="black" points="1448,-108.352 1444.5,-98.352 1441,-108.352 1448,-108.352"/>
</g>
<!-- 20 -->
<g id="node21" class="node"><title>20</title>
<path fill="#f6d3ff" stroke="black" d="M1908,-98C1908,-98 1627,-98 1627,-98 1621,-98 1615,-92 1615,-86 1615,-86 1615,-12 1615,-12 1615,-6 1621,-0 1627,-0 1627,-0 1908,-0 1908,-0 1914,-0 1920,-6 1920,-12 1920,-12 1920,-86 1920,-86 1920,-92 1914,-98 1908,-98"/>
<text text-anchor="middle" x="1767.5" y="-82.8" font-family="Times,serif" font-size="14.00">forward</text>
<text text-anchor="middle" x="1767.5" y="-67.8" font-family="Times,serif" font-size="14.00">DB1/C1</text>
<text text-anchor="middle" x="1767.5" y="-52.8" font-family="Times,serif" font-size="14.00">dilation rate: 1 &#160;&#160;k width: 3</text>
<text text-anchor="middle" x="1767.5" y="-37.8" font-family="Times,serif" font-size="14.00">log gamma1: &#45;11.000000 &#160;&#160;log gamma2: &#45;11.000000</text>
<text text-anchor="middle" x="1767.5" y="-22.8" font-family="Times,serif" font-size="14.00">log lambda1: &#45;11.000000 &#160;&#160;log lambda2: &#45;11.000000</text>
<text text-anchor="middle" x="1767.5" y="-7.8" font-family="Times,serif" font-size="14.00">n kernels: 64</text>
</g>
<!-- 11&#45;&gt;20 -->
<g id="edge20" class="edge"><title>11&#45;&gt;20</title>
<path fill="none" stroke="black" d="M1759.84,-133.827C1760.55,-126.111 1761.35,-117.31 1762.17,-108.379"/>
<polygon fill="black" stroke="black" points="1765.67,-108.569 1763.09,-98.2922 1758.69,-107.932 1765.67,-108.569"/>
</g>
<!-- 21 -->
<g id="node22" class="node"><title>21</title>
<path fill="#f6d3ff" stroke="black" d="M2231,-98C2231,-98 1950,-98 1950,-98 1944,-98 1938,-92 1938,-86 1938,-86 1938,-12 1938,-12 1938,-6 1944,-0 1950,-0 1950,-0 2231,-0 2231,-0 2237,-0 2243,-6 2243,-12 2243,-12 2243,-86 2243,-86 2243,-92 2237,-98 2231,-98"/>
<text text-anchor="middle" x="2090.5" y="-82.8" font-family="Times,serif" font-size="14.00">forward</text>
<text text-anchor="middle" x="2090.5" y="-67.8" font-family="Times,serif" font-size="14.00">DB1/C2</text>
<text text-anchor="middle" x="2090.5" y="-52.8" font-family="Times,serif" font-size="14.00">dilation rate: 1 &#160;&#160;k width: 3</text>
<text text-anchor="middle" x="2090.5" y="-37.8" font-family="Times,serif" font-size="14.00">log gamma1: &#45;11.000000 &#160;&#160;log gamma2: &#45;11.000000</text>
<text text-anchor="middle" x="2090.5" y="-22.8" font-family="Times,serif" font-size="14.00">log lambda1: &#45;11.000000 &#160;&#160;log lambda2: &#45;11.000000</text>
<text text-anchor="middle" x="2090.5" y="-7.8" font-family="Times,serif" font-size="14.00">n kernels: 64</text>
</g>
<!-- 12&#45;&gt;21 -->
<g id="edge21" class="edge"><title>12&#45;&gt;21</title>
<path fill="none" stroke="black" d="M2338.18,-133.965C2309.42,-124.216 2275.51,-112.719 2242.15,-101.412"/>
<polygon fill="black" stroke="black" points="2242.89,-97.9671 2232.3,-98.0711 2240.65,-104.596 2242.89,-97.9671"/>
</g>
<!-- 22 -->
<g id="node23" class="node"><title>22</title>
<path fill="#debfe6" stroke="black" d="M2554,-98C2554,-98 2273,-98 2273,-98 2267,-98 2261,-92 2261,-86 2261,-86 2261,-12 2261,-12 2261,-6 2267,-0 2273,-0 2273,-0 2554,-0 2554,-0 2560,-0 2566,-6 2566,-12 2566,-12 2566,-86 2566,-86 2566,-92 2560,-98 2554,-98"/>
<text text-anchor="middle" x="2413.5" y="-82.8" font-family="Times,serif" font-size="14.00">merge</text>
<text text-anchor="middle" x="2413.5" y="-67.8" font-family="Times,serif" font-size="14.00">EB0/C2</text>
<text text-anchor="middle" x="2413.5" y="-52.8" font-family="Times,serif" font-size="14.00">dilation rate: 1 &#160;&#160;k width: 3</text>
<text text-anchor="middle" x="2413.5" y="-37.8" font-family="Times,serif" font-size="14.00">log gamma1: &#45;11.000000 &#160;&#160;log gamma2: &#45;11.000000</text>
<text text-anchor="middle" x="2413.5" y="-22.8" font-family="Times,serif" font-size="14.00">log lambda1: &#45;11.000000 &#160;&#160;log lambda2: &#45;11.000000</text>
<text text-anchor="middle" x="2413.5" y="-7.8" font-family="Times,serif" font-size="14.00">n kernels: 64</text>
</g>
<!-- 12&#45;&gt;22 -->
<g id="edge22" class="edge"><title>12&#45;&gt;22</title>
<path fill="none" stroke="black" d="M2413.5,-133.827C2413.5,-126.111 2413.5,-117.31 2413.5,-108.379"/>
<polygon fill="black" stroke="black" points="2417,-108.292 2413.5,-98.2922 2410,-108.292 2417,-108.292"/>
</g>
<!-- 23 -->
<g id="node24" class="node"><title>23</title>
<path fill="#f6d3ff" stroke="black" d="M2877,-98C2877,-98 2596,-98 2596,-98 2590,-98 2584,-92 2584,-86 2584,-86 2584,-12 2584,-12 2584,-6 2590,-0 2596,-0 2596,-0 2877,-0 2877,-0 2883,-0 2889,-6 2889,-12 2889,-12 2889,-86 2889,-86 2889,-92 2883,-98 2877,-98"/>
<text text-anchor="middle" x="2736.5" y="-82.8" font-family="Times,serif" font-size="14.00">forward</text>
<text text-anchor="middle" x="2736.5" y="-67.8" font-family="Times,serif" font-size="14.00">DB0/C0</text>
<text text-anchor="middle" x="2736.5" y="-52.8" font-family="Times,serif" font-size="14.00">dilation rate: 1 &#160;&#160;k width: 3</text>
<text text-anchor="middle" x="2736.5" y="-37.8" font-family="Times,serif" font-size="14.00">log gamma1: &#45;11.000000 &#160;&#160;log gamma2: &#45;11.000000</text>
<text text-anchor="middle" x="2736.5" y="-22.8" font-family="Times,serif" font-size="14.00">log lambda1: &#45;11.000000 &#160;&#160;log lambda2: &#45;11.000000</text>
<text text-anchor="middle" x="2736.5" y="-7.8" font-family="Times,serif" font-size="14.00">n kernels: 64</text>
</g>
<!-- 13&#45;&gt;23 -->
<g id="edge23" class="edge"><title>13&#45;&gt;23</title>
<path fill="none" stroke="black" d="M2688.08,-141.418C2693.1,-131.936 2699.56,-119.737 2706.12,-107.36"/>
<polygon fill="black" stroke="black" points="2709.3,-108.827 2710.89,-98.352 2703.12,-105.551 2709.3,-108.827"/>
</g>
<!-- 24 -->
<g id="node25" class="node"><title>24</title>
<path fill="#f6d3ff" stroke="black" d="M3200,-98C3200,-98 2919,-98 2919,-98 2913,-98 2907,-92 2907,-86 2907,-86 2907,-12 2907,-12 2907,-6 2913,-0 2919,-0 2919,-0 3200,-0 3200,-0 3206,-0 3212,-6 3212,-12 3212,-12 3212,-86 3212,-86 3212,-92 3206,-98 3200,-98"/>
<text text-anchor="middle" x="3059.5" y="-82.8" font-family="Times,serif" font-size="14.00">forward</text>
<text text-anchor="middle" x="3059.5" y="-67.8" font-family="Times,serif" font-size="14.00">DB0/C1</text>
<text text-anchor="middle" x="3059.5" y="-52.8" font-family="Times,serif" font-size="14.00">dilation rate: 1 &#160;&#160;k width: 3</text>
<text text-anchor="middle" x="3059.5" y="-37.8" font-family="Times,serif" font-size="14.00">log gamma1: &#45;11.000000 &#160;&#160;log gamma2: &#45;11.000000</text>
<text text-anchor="middle" x="3059.5" y="-22.8" font-family="Times,serif" font-size="14.00">log lambda1: &#45;11.000000 &#160;&#160;log lambda2: &#45;11.000000</text>
<text text-anchor="middle" x="3059.5" y="-7.8" font-family="Times,serif" font-size="14.00">n kernels: 64</text>
</g>
<!-- 14&#45;&gt;24 -->
<g id="edge24" class="edge"><title>14&#45;&gt;24</title>
<path fill="none" stroke="black" d="M2966.83,-141.418C2976.91,-131.475 2990.02,-118.546 3003.18,-105.556"/>
<polygon fill="black" stroke="black" points="3005.82,-107.867 3010.49,-98.352 3000.91,-102.883 3005.82,-107.867"/>
</g>
</g>
</svg>
