<?xml version="1.0" encoding="UTF-8" standalone="no"?>
<!DOCTYPE svg PUBLIC "-//W3C//DTD SVG 1.1//EN"
 "http://www.w3.org/Graphics/SVG/1.1/DTD/svg11.dtd">
<!-- Generated by graphviz version 2.38.0 (20140413.2041)
 -->
<!-- Title: %3 Pages: 1 -->
<svg width="737pt" height="298pt"
 viewBox="0.00 0.00 736.50 298.00" xmlns="http://www.w3.org/2000/svg" xmlns:xlink="http://www.w3.org/1999/xlink">
<g id="graph0" class="graph" transform="scale(1 1) rotate(0) translate(4 294)">
<title>%3</title>
<polygon fill="none" stroke="none" points="-4,4 -4,-294 732.5,-294 732.5,4 -4,4"/>
<!-- 0 -->
<g id="node1" class="node"><title>0</title>
<path fill="#ffd3d3" stroke="black" d="M367,-290C367,-290 213,-290 213,-290 207,-290 201,-284 201,-278 201,-278 201,-249 201,-249 201,-243 207,-237 213,-237 213,-237 367,-237 367,-237 373,-237 379,-243 379,-249 379,-249 379,-278 379,-278 379,-284 373,-290 367,-290"/>
<text text-anchor="middle" x="290" y="-274.8" font-family="Times,serif" font-size="14.00">net</text>
<text text-anchor="middle" x="290" y="-259.8" font-family="Times,serif" font-size="14.00">dilation rate: 1 &#160;&#160;n kernels: 64</text>
<text text-anchor="middle" x="290" y="-244.8" font-family="Times,serif" font-size="14.00">pooling type: 0</text>
</g>
<!-- 1 -->
<g id="node2" class="node"><title>1</title>
<path fill="#e9ffd3" stroke="black" d="M395.5,-201C395.5,-201 184.5,-201 184.5,-201 178.5,-201 172.5,-195 172.5,-189 172.5,-189 172.5,-160 172.5,-160 172.5,-154 178.5,-148 184.5,-148 184.5,-148 395.5,-148 395.5,-148 401.5,-148 407.5,-154 407.5,-160 407.5,-160 407.5,-189 407.5,-189 407.5,-195 401.5,-201 395.5,-201"/>
<text text-anchor="middle" x="290" y="-185.8" font-family="Times,serif" font-size="14.00">conv block 0</text>
<text text-anchor="middle" x="290" y="-170.8" font-family="Times,serif" font-size="14.00">dilation rate: 1 &#160;&#160;log gamma1: 1.897220</text>
<text text-anchor="middle" x="290" y="-155.8" font-family="Times,serif" font-size="14.00">log gamma2: 1.000000</text>
</g>
<!-- 0&#45;&gt;1 -->
<g id="edge1" class="edge"><title>0&#45;&gt;1</title>
<path fill="none" stroke="black" d="M290,-236.868C290,-228.886 290,-219.932 290,-211.384"/>
<polygon fill="black" stroke="black" points="293.5,-211.25 290,-201.25 286.5,-211.25 293.5,-211.25"/>
</g>
<!-- 2 -->
<g id="node3" class="node"><title>2</title>
<path fill="#d3ffff" stroke="black" d="M80,-112C80,-112 12,-112 12,-112 6,-112 0,-106 0,-100 0,-100 0,-86 0,-86 0,-80 6,-74 12,-74 12,-74 80,-74 80,-74 86,-74 92,-80 92,-86 92,-86 92,-100 92,-100 92,-106 86,-112 80,-112"/>
<text text-anchor="middle" x="46" y="-96.8" font-family="Times,serif" font-size="14.00">comp 0</text>
<text text-anchor="middle" x="46" y="-81.8" font-family="Times,serif" font-size="14.00">n kernels: &#45;20</text>
</g>
<!-- 1&#45;&gt;2 -->
<g id="edge2" class="edge"><title>1&#45;&gt;2</title>
<path fill="none" stroke="black" d="M211.369,-147.946C179.87,-137.702 143.021,-125.708 101.899,-112.291"/>
<polygon fill="black" stroke="black" points="102.804,-108.905 92.2116,-109.13 100.632,-115.56 102.804,-108.905"/>
</g>
<!-- 3 -->
<g id="node4" class="node"><title>3</title>
<path fill="#bfe6e6" stroke="black" d="M185.5,-112C185.5,-112 122.5,-112 122.5,-112 116.5,-112 110.5,-106 110.5,-100 110.5,-100 110.5,-86 110.5,-86 110.5,-80 116.5,-74 122.5,-74 122.5,-74 185.5,-74 185.5,-74 191.5,-74 197.5,-80 197.5,-86 197.5,-86 197.5,-100 197.5,-100 197.5,-106 191.5,-112 185.5,-112"/>
<text text-anchor="middle" x="154" y="-96.8" font-family="Times,serif" font-size="14.00">comp 1</text>
<text text-anchor="middle" x="154" y="-81.8" font-family="Times,serif" font-size="14.00">n kernels: 20</text>
</g>
<!-- 1&#45;&gt;3 -->
<g id="edge3" class="edge"><title>1&#45;&gt;3</title>
<path fill="none" stroke="black" d="M246.22,-147.908C229.448,-138.104 210.414,-126.977 194.012,-117.389"/>
<polygon fill="black" stroke="black" points="195.601,-114.264 185.201,-112.239 192.068,-120.307 195.601,-114.264"/>
</g>
<!-- 4 -->
<g id="node5" class="node"><title>4</title>
<path fill="#abcece" stroke="black" d="M352.5,-112C352.5,-112 227.5,-112 227.5,-112 221.5,-112 215.5,-106 215.5,-100 215.5,-100 215.5,-86 215.5,-86 215.5,-80 221.5,-74 227.5,-74 227.5,-74 352.5,-74 352.5,-74 358.5,-74 364.5,-80 364.5,-86 364.5,-86 364.5,-100 364.5,-100 364.5,-106 358.5,-112 352.5,-112"/>
<text text-anchor="middle" x="290" y="-96.8" font-family="Times,serif" font-size="14.00">comp 2</text>
<text text-anchor="middle" x="290" y="-81.8" font-family="Times,serif" font-size="14.00">log gamma1: &#45;0.897220</text>
</g>
<!-- 1&#45;&gt;4 -->
<g id="edge4" class="edge"><title>1&#45;&gt;4</title>
<path fill="none" stroke="black" d="M290,-147.908C290,-139.738 290,-130.649 290,-122.298"/>
<polygon fill="black" stroke="black" points="293.5,-122.239 290,-112.239 286.5,-122.239 293.5,-122.239"/>
</g>
<!-- 5 -->
<g id="node6" class="node"><title>5</title>
<path fill="#97b6b6" stroke="black" d="M600,-112C600,-112 394,-112 394,-112 388,-112 382,-106 382,-100 382,-100 382,-86 382,-86 382,-80 388,-74 394,-74 394,-74 600,-74 600,-74 606,-74 612,-80 612,-86 612,-86 612,-100 612,-100 612,-106 606,-112 600,-112"/>
<text text-anchor="middle" x="497" y="-96.8" font-family="Times,serif" font-size="14.00">comp 3</text>
<text text-anchor="middle" x="497" y="-81.8" font-family="Times,serif" font-size="14.00">log gamma1: &#45;0.897220 &#160;&#160;n kernels: 14</text>
</g>
<!-- 1&#45;&gt;5 -->
<g id="edge5" class="edge"><title>1&#45;&gt;5</title>
<path fill="none" stroke="black" d="M356.636,-147.908C383.569,-137.564 414.334,-125.749 440.184,-115.821"/>
<polygon fill="black" stroke="black" points="441.752,-118.968 449.832,-112.115 439.242,-112.433 441.752,-118.968"/>
</g>
<!-- 6 -->
<g id="node7" class="node"><title>6</title>
<path fill="#839e9e" stroke="black" d="M676,-111C676,-111 642,-111 642,-111 636,-111 630,-105 630,-99 630,-99 630,-87 630,-87 630,-81 636,-75 642,-75 642,-75 676,-75 676,-75 682,-75 688,-81 688,-87 688,-87 688,-99 688,-99 688,-105 682,-111 676,-111"/>
<text text-anchor="middle" x="659" y="-89.3" font-family="Times,serif" font-size="14.00">identity</text>
</g>
<!-- 1&#45;&gt;6 -->
<g id="edge6" class="edge"><title>1&#45;&gt;6</title>
<path fill="none" stroke="black" d="M407.87,-159.169C469.283,-149.903 545.371,-135.597 620.248,-111.828"/>
<polygon fill="black" stroke="black" points="621.409,-115.132 629.848,-108.726 619.256,-108.471 621.409,-115.132"/>
</g>
<!-- 7 -->
<g id="node8" class="node"><title>7</title>
<path fill="#e9d3ff" stroke="black" d="M63.5,-38C63.5,-38 28.5,-38 28.5,-38 22.5,-38 16.5,-32 16.5,-26 16.5,-26 16.5,-12 16.5,-12 16.5,-6 22.5,-0 28.5,-0 28.5,-0 63.5,-0 63.5,-0 69.5,-0 75.5,-6 75.5,-12 75.5,-12 75.5,-26 75.5,-26 75.5,-32 69.5,-38 63.5,-38"/>
<text text-anchor="middle" x="46" y="-22.8" font-family="Times,serif" font-size="14.00">forward</text>
<text text-anchor="middle" x="46" y="-7.8" font-family="Times,serif" font-size="14.00">input</text>
</g>
<!-- 2&#45;&gt;7 -->
<g id="edge7" class="edge"><title>2&#45;&gt;7</title>
<path fill="none" stroke="black" d="M46,-73.8314C46,-66.131 46,-56.9743 46,-48.4166"/>
<polygon fill="black" stroke="black" points="49.5001,-48.4132 46,-38.4133 42.5001,-48.4133 49.5001,-48.4132"/>
</g>
<!-- 8 -->
<g id="node9" class="node"><title>8</title>
<path fill="#e9d3ff" stroke="black" d="M172.5,-38C172.5,-38 135.5,-38 135.5,-38 129.5,-38 123.5,-32 123.5,-26 123.5,-26 123.5,-12 123.5,-12 123.5,-6 129.5,-0 135.5,-0 135.5,-0 172.5,-0 172.5,-0 178.5,-0 184.5,-6 184.5,-12 184.5,-12 184.5,-26 184.5,-26 184.5,-32 178.5,-38 172.5,-38"/>
<text text-anchor="middle" x="154" y="-22.8" font-family="Times,serif" font-size="14.00">forward</text>
<text text-anchor="middle" x="154" y="-7.8" font-family="Times,serif" font-size="14.00">CB0/C0</text>
</g>
<!-- 3&#45;&gt;8 -->
<g id="edge8" class="edge"><title>3&#45;&gt;8</title>
<path fill="none" stroke="black" d="M154,-73.8314C154,-66.131 154,-56.9743 154,-48.4166"/>
<polygon fill="black" stroke="black" points="157.5,-48.4132 154,-38.4133 150.5,-48.4133 157.5,-48.4132"/>
</g>
<!-- 9 -->
<g id="node10" class="node"><title>9</title>
<path fill="#e9d3ff" stroke="black" d="M308.5,-38C308.5,-38 271.5,-38 271.5,-38 265.5,-38 259.5,-32 259.5,-26 259.5,-26 259.5,-12 259.5,-12 259.5,-6 265.5,-0 271.5,-0 271.5,-0 308.5,-0 308.5,-0 314.5,-0 320.5,-6 320.5,-12 320.5,-12 320.5,-26 320.5,-26 320.5,-32 314.5,-38 308.5,-38"/>
<text text-anchor="middle" x="290" y="-22.8" font-family="Times,serif" font-size="14.00">forward</text>
<text text-anchor="middle" x="290" y="-7.8" font-family="Times,serif" font-size="14.00">CB0/C1</text>
</g>
<!-- 4&#45;&gt;9 -->
<g id="edge9" class="edge"><title>4&#45;&gt;9</title>
<path fill="none" stroke="black" d="M290,-73.8314C290,-66.131 290,-56.9743 290,-48.4166"/>
<polygon fill="black" stroke="black" points="293.5,-48.4132 290,-38.4133 286.5,-48.4133 293.5,-48.4132"/>
</g>
<!-- 10 -->
<g id="node11" class="node"><title>10</title>
<path fill="#e9d3ff" stroke="black" d="M515.5,-38C515.5,-38 478.5,-38 478.5,-38 472.5,-38 466.5,-32 466.5,-26 466.5,-26 466.5,-12 466.5,-12 466.5,-6 472.5,-0 478.5,-0 478.5,-0 515.5,-0 515.5,-0 521.5,-0 527.5,-6 527.5,-12 527.5,-12 527.5,-26 527.5,-26 527.5,-32 521.5,-38 515.5,-38"/>
<text text-anchor="middle" x="497" y="-22.8" font-family="Times,serif" font-size="14.00">forward</text>
<text text-anchor="middle" x="497" y="-7.8" font-family="Times,serif" font-size="14.00">CB0/C2</text>
</g>
<!-- 5&#45;&gt;10 -->
<g id="edge10" class="edge"><title>5&#45;&gt;10</title>
<path fill="none" stroke="black" d="M497,-73.8314C497,-66.131 497,-56.9743 497,-48.4166"/>
<polygon fill="black" stroke="black" points="500.5,-48.4132 497,-38.4133 493.5,-48.4133 500.5,-48.4132"/>
</g>
<!-- 11 -->
<g id="node12" class="node"><title>11</title>
<path fill="#e9d3ff" stroke="black" d="M637.5,-38C637.5,-38 600.5,-38 600.5,-38 594.5,-38 588.5,-32 588.5,-26 588.5,-26 588.5,-12 588.5,-12 588.5,-6 594.5,-0 600.5,-0 600.5,-0 637.5,-0 637.5,-0 643.5,-0 649.5,-6 649.5,-12 649.5,-12 649.5,-26 649.5,-26 649.5,-32 643.5,-38 637.5,-38"/>
<text text-anchor="middle" x="619" y="-22.8" font-family="Times,serif" font-size="14.00">residual</text>
<text text-anchor="middle" x="619" y="-7.8" font-family="Times,serif" font-size="14.00">CB0/C0</text>
</g>
<!-- 6&#45;&gt;11 -->
<g id="edge11" class="edge"><title>6&#45;&gt;11</title>
<path fill="none" stroke="black" d="M649.521,-74.937C644.912,-66.6409 639.261,-56.469 634.079,-47.1428"/>
<polygon fill="black" stroke="black" points="637.027,-45.241 629.111,-38.1992 630.908,-48.6405 637.027,-45.241"/>
</g>
<!-- 12 -->
<g id="node13" class="node"><title>12</title>
<path fill="#d3bfe6" stroke="black" d="M716.5,-38C716.5,-38 679.5,-38 679.5,-38 673.5,-38 667.5,-32 667.5,-26 667.5,-26 667.5,-12 667.5,-12 667.5,-6 673.5,-0 679.5,-0 679.5,-0 716.5,-0 716.5,-0 722.5,-0 728.5,-6 728.5,-12 728.5,-12 728.5,-26 728.5,-26 728.5,-32 722.5,-38 716.5,-38"/>
<text text-anchor="middle" x="698" y="-22.8" font-family="Times,serif" font-size="14.00">forward</text>
<text text-anchor="middle" x="698" y="-7.8" font-family="Times,serif" font-size="14.00">CB0/C3</text>
</g>
<!-- 6&#45;&gt;12 -->
<g id="edge12" class="edge"><title>6&#45;&gt;12</title>
<path fill="none" stroke="black" d="M668.242,-74.937C672.736,-66.6409 678.246,-56.469 683.298,-47.1428"/>
<polygon fill="black" stroke="black" points="686.457,-48.6591 688.142,-38.1992 680.302,-45.3251 686.457,-48.6591"/>
</g>
</g>
</svg>
