<?xml version="1.0" encoding="UTF-8" standalone="no"?>
<!DOCTYPE svg PUBLIC "-//W3C//DTD SVG 1.1//EN"
 "http://www.w3.org/Graphics/SVG/1.1/DTD/svg11.dtd">
<!-- Generated by graphviz version 2.38.0 (20140413.2041)
 -->
<!-- Title: %3 Pages: 1 -->
<svg width="2420pt" height="357pt"
 viewBox="0.00 0.00 2419.50 357.00" xmlns="http://www.w3.org/2000/svg" xmlns:xlink="http://www.w3.org/1999/xlink">
<g id="graph0" class="graph" transform="scale(1 1) rotate(0) translate(4 353)">
<title>%3</title>
<polygon fill="none" stroke="none" points="-4,4 -4,-353 2415.5,-353 2415.5,4 -4,4"/>
<!-- 0 -->
<g id="node1" class="node"><title>0</title>
<path fill="#ffd3d3" stroke="black" d="M1239,-349C1239,-349 1082,-349 1082,-349 1076,-349 1070,-343 1070,-337 1070,-337 1070,-323 1070,-323 1070,-317 1076,-311 1082,-311 1082,-311 1239,-311 1239,-311 1245,-311 1251,-317 1251,-323 1251,-323 1251,-337 1251,-337 1251,-343 1245,-349 1239,-349"/>
<text text-anchor="middle" x="1160.5" y="-333.8" font-family="Times,serif" font-size="14.00">net</text>
<text text-anchor="middle" x="1160.5" y="-318.8" font-family="Times,serif" font-size="14.00">n kernels: 92 &#160;&#160;pooling type: 0</text>
</g>
<!-- 1 -->
<g id="node2" class="node"><title>1</title>
<path fill="#f6ffd3" stroke="black" d="M656.5,-275C656.5,-275 536.5,-275 536.5,-275 530.5,-275 524.5,-269 524.5,-263 524.5,-263 524.5,-249 524.5,-249 524.5,-243 530.5,-237 536.5,-237 536.5,-237 656.5,-237 656.5,-237 662.5,-237 668.5,-243 668.5,-249 668.5,-249 668.5,-263 668.5,-263 668.5,-269 662.5,-275 656.5,-275"/>
<text text-anchor="middle" x="596.5" y="-259.8" font-family="Times,serif" font-size="14.00">encoder</text>
<text text-anchor="middle" x="596.5" y="-244.8" font-family="Times,serif" font-size="14.00">log gamma2: 0.234077</text>
</g>
<!-- 0&#45;&gt;1 -->
<g id="edge1" class="edge"><title>0&#45;&gt;1</title>
<path fill="none" stroke="black" d="M1069.88,-317.432C961.849,-303.64 782.86,-280.791 678.686,-267.492"/>
<polygon fill="black" stroke="black" points="678.896,-263.99 668.533,-266.196 678.009,-270.934 678.896,-263.99"/>
</g>
<!-- 2 -->
<g id="node3" class="node"><title>2</title>
<path fill="#f6ffd3" stroke="black" d="M1784.5,-275C1784.5,-275 1664.5,-275 1664.5,-275 1658.5,-275 1652.5,-269 1652.5,-263 1652.5,-263 1652.5,-249 1652.5,-249 1652.5,-243 1658.5,-237 1664.5,-237 1664.5,-237 1784.5,-237 1784.5,-237 1790.5,-237 1796.5,-243 1796.5,-249 1796.5,-249 1796.5,-263 1796.5,-263 1796.5,-269 1790.5,-275 1784.5,-275"/>
<text text-anchor="middle" x="1724.5" y="-259.8" font-family="Times,serif" font-size="14.00">decoder</text>
<text text-anchor="middle" x="1724.5" y="-244.8" font-family="Times,serif" font-size="14.00">log gamma1: 0.146423</text>
</g>
<!-- 0&#45;&gt;2 -->
<g id="edge2" class="edge"><title>0&#45;&gt;2</title>
<path fill="none" stroke="black" d="M1251.12,-317.432C1359.15,-303.64 1538.14,-280.791 1642.31,-267.492"/>
<polygon fill="black" stroke="black" points="1642.99,-270.934 1652.47,-266.196 1642.1,-263.99 1642.99,-270.934"/>
</g>
<!-- 3 -->
<g id="node4" class="node"><title>3</title>
<path fill="#d3ffe4" stroke="black" d="M170,-192.5C170,-192.5 95,-192.5 95,-192.5 89,-192.5 83,-186.5 83,-180.5 83,-180.5 83,-168.5 83,-168.5 83,-162.5 89,-156.5 95,-156.5 95,-156.5 170,-156.5 170,-156.5 176,-156.5 182,-162.5 182,-168.5 182,-168.5 182,-180.5 182,-180.5 182,-186.5 176,-192.5 170,-192.5"/>
<text text-anchor="middle" x="132.5" y="-170.8" font-family="Times,serif" font-size="14.00">encode block 0</text>
</g>
<!-- 1&#45;&gt;3 -->
<g id="edge3" class="edge"><title>1&#45;&gt;3</title>
<path fill="none" stroke="black" d="M524.211,-248.399C446.725,-240.49 320.42,-225.194 213.5,-201 206.481,-199.412 199.194,-197.502 191.996,-195.451"/>
<polygon fill="black" stroke="black" points="192.851,-192.055 182.27,-192.584 190.872,-198.769 192.851,-192.055"/>
</g>
<!-- 4 -->
<g id="node5" class="node"><title>4</title>
<path fill="#bfe6cf" stroke="black" d="M448,-201C448,-201 235,-201 235,-201 229,-201 223,-195 223,-189 223,-189 223,-160 223,-160 223,-154 229,-148 235,-148 235,-148 448,-148 448,-148 454,-148 460,-154 460,-160 460,-160 460,-189 460,-189 460,-195 454,-201 448,-201"/>
<text text-anchor="middle" x="341.5" y="-185.8" font-family="Times,serif" font-size="14.00">encode block 1</text>
<text text-anchor="middle" x="341.5" y="-170.8" font-family="Times,serif" font-size="14.00">log gamma1: &#45;0.262301 &#160;&#160;n kernels: 120</text>
<text text-anchor="middle" x="341.5" y="-155.8" font-family="Times,serif" font-size="14.00">spatial scale: 1</text>
</g>
<!-- 1&#45;&gt;4 -->
<g id="edge4" class="edge"><title>1&#45;&gt;4</title>
<path fill="none" stroke="black" d="M538.637,-236.96C507.475,-227.245 468.308,-215.034 433.113,-204.062"/>
<polygon fill="black" stroke="black" points="433.89,-200.638 423.302,-201.003 431.807,-207.321 433.89,-200.638"/>
</g>
<!-- 5 -->
<g id="node6" class="node"><title>5</title>
<path fill="#abceb9" stroke="black" d="M703,-201C703,-201 490,-201 490,-201 484,-201 478,-195 478,-189 478,-189 478,-160 478,-160 478,-154 484,-148 490,-148 490,-148 703,-148 703,-148 709,-148 715,-154 715,-160 715,-160 715,-189 715,-189 715,-195 709,-201 703,-201"/>
<text text-anchor="middle" x="596.5" y="-185.8" font-family="Times,serif" font-size="14.00">encode block 2</text>
<text text-anchor="middle" x="596.5" y="-170.8" font-family="Times,serif" font-size="14.00">log gamma1: &#45;0.403348 &#160;&#160;n kernels: 432</text>
<text text-anchor="middle" x="596.5" y="-155.8" font-family="Times,serif" font-size="14.00">spatial scale: 2</text>
</g>
<!-- 1&#45;&gt;5 -->
<g id="edge5" class="edge"><title>1&#45;&gt;5</title>
<path fill="none" stroke="black" d="M596.5,-236.96C596.5,-229.321 596.5,-220.139 596.5,-211.229"/>
<polygon fill="black" stroke="black" points="600,-211.003 596.5,-201.003 593,-211.003 600,-211.003"/>
</g>
<!-- 6 -->
<g id="node7" class="node"><title>6</title>
<path fill="#97b6a3" stroke="black" d="M991.5,-201C991.5,-201 771.5,-201 771.5,-201 765.5,-201 759.5,-195 759.5,-189 759.5,-189 759.5,-160 759.5,-160 759.5,-154 765.5,-148 771.5,-148 771.5,-148 991.5,-148 991.5,-148 997.5,-148 1003.5,-154 1003.5,-160 1003.5,-160 1003.5,-189 1003.5,-189 1003.5,-195 997.5,-201 991.5,-201"/>
<text text-anchor="middle" x="881.5" y="-185.8" font-family="Times,serif" font-size="14.00">encode block 3</text>
<text text-anchor="middle" x="881.5" y="-170.8" font-family="Times,serif" font-size="14.00">log gamma1: &#45;0.348921 &#160;&#160;n kernels: 1056</text>
<text text-anchor="middle" x="881.5" y="-155.8" font-family="Times,serif" font-size="14.00">spatial scale: 3</text>
</g>
<!-- 1&#45;&gt;6 -->
<g id="edge6" class="edge"><title>1&#45;&gt;6</title>
<path fill="none" stroke="black" d="M661.171,-236.96C696.371,-227.141 740.709,-214.773 780.368,-203.711"/>
<polygon fill="black" stroke="black" points="781.383,-207.061 790.075,-201.003 779.502,-200.319 781.383,-207.061"/>
</g>
<!-- 7 -->
<g id="node8" class="node"><title>7</title>
<path fill="#d3ffe4" stroke="black" d="M1456.5,-193.5C1456.5,-193.5 1288.5,-193.5 1288.5,-193.5 1282.5,-193.5 1276.5,-187.5 1276.5,-181.5 1276.5,-181.5 1276.5,-167.5 1276.5,-167.5 1276.5,-161.5 1282.5,-155.5 1288.5,-155.5 1288.5,-155.5 1456.5,-155.5 1456.5,-155.5 1462.5,-155.5 1468.5,-161.5 1468.5,-167.5 1468.5,-167.5 1468.5,-181.5 1468.5,-181.5 1468.5,-187.5 1462.5,-193.5 1456.5,-193.5"/>
<text text-anchor="middle" x="1372.5" y="-178.3" font-family="Times,serif" font-size="14.00">decode block 4</text>
<text text-anchor="middle" x="1372.5" y="-163.3" font-family="Times,serif" font-size="14.00">n kernels: 4672 &#160;&#160;spatial scale: 4</text>
</g>
<!-- 2&#45;&gt;7 -->
<g id="edge7" class="edge"><title>2&#45;&gt;7</title>
<path fill="none" stroke="black" d="M1652.26,-239.664C1602.96,-229.086 1536.2,-214.543 1477.5,-201 1470.46,-199.376 1463.17,-197.664 1455.85,-195.927"/>
<polygon fill="black" stroke="black" points="1456.42,-192.465 1445.88,-193.549 1454.8,-199.274 1456.42,-192.465"/>
</g>
<!-- 8 -->
<g id="node9" class="node"><title>8</title>
<path fill="#bfe6cf" stroke="black" d="M1718.5,-201C1718.5,-201 1498.5,-201 1498.5,-201 1492.5,-201 1486.5,-195 1486.5,-189 1486.5,-189 1486.5,-160 1486.5,-160 1486.5,-154 1492.5,-148 1498.5,-148 1498.5,-148 1718.5,-148 1718.5,-148 1724.5,-148 1730.5,-154 1730.5,-160 1730.5,-160 1730.5,-189 1730.5,-189 1730.5,-195 1724.5,-201 1718.5,-201"/>
<text text-anchor="middle" x="1608.5" y="-185.8" font-family="Times,serif" font-size="14.00">decode block 3</text>
<text text-anchor="middle" x="1608.5" y="-170.8" font-family="Times,serif" font-size="14.00">log gamma1: &#45;0.073368 &#160;&#160;n kernels: 2048</text>
<text text-anchor="middle" x="1608.5" y="-155.8" font-family="Times,serif" font-size="14.00">spatial scale: 3</text>
</g>
<!-- 2&#45;&gt;8 -->
<g id="edge8" class="edge"><title>2&#45;&gt;8</title>
<path fill="none" stroke="black" d="M1698.18,-236.96C1685.21,-228.076 1669.2,-217.103 1654.32,-206.9"/>
<polygon fill="black" stroke="black" points="1655.94,-203.769 1645.71,-201.003 1651.98,-209.543 1655.94,-203.769"/>
</g>
<!-- 9 -->
<g id="node10" class="node"><title>9</title>
<path fill="#abceb9" stroke="black" d="M1922,-193.5C1922,-193.5 1761,-193.5 1761,-193.5 1755,-193.5 1749,-187.5 1749,-181.5 1749,-181.5 1749,-167.5 1749,-167.5 1749,-161.5 1755,-155.5 1761,-155.5 1761,-155.5 1922,-155.5 1922,-155.5 1928,-155.5 1934,-161.5 1934,-167.5 1934,-167.5 1934,-181.5 1934,-181.5 1934,-187.5 1928,-193.5 1922,-193.5"/>
<text text-anchor="middle" x="1841.5" y="-178.3" font-family="Times,serif" font-size="14.00">decode block 2</text>
<text text-anchor="middle" x="1841.5" y="-163.3" font-family="Times,serif" font-size="14.00">n kernels: 800 &#160;&#160;spatial scale: 2</text>
</g>
<!-- 2&#45;&gt;9 -->
<g id="edge9" class="edge"><title>2&#45;&gt;9</title>
<path fill="none" stroke="black" d="M1751.05,-236.96C1767.39,-225.858 1788.52,-211.496 1806.26,-199.448"/>
<polygon fill="black" stroke="black" points="1808.35,-202.259 1814.65,-193.744 1804.41,-196.469 1808.35,-202.259"/>
</g>
<!-- 10 -->
<g id="node11" class="node"><title>10</title>
<path fill="#97b6a3" stroke="black" d="M2177,-201C2177,-201 1964,-201 1964,-201 1958,-201 1952,-195 1952,-189 1952,-189 1952,-160 1952,-160 1952,-154 1958,-148 1964,-148 1964,-148 2177,-148 2177,-148 2183,-148 2189,-154 2189,-160 2189,-160 2189,-189 2189,-189 2189,-195 2183,-201 2177,-201"/>
<text text-anchor="middle" x="2070.5" y="-185.8" font-family="Times,serif" font-size="14.00">decode block 1</text>
<text text-anchor="middle" x="2070.5" y="-170.8" font-family="Times,serif" font-size="14.00">log gamma2: &#45;0.291022 &#160;&#160;n kernels: 176</text>
<text text-anchor="middle" x="2070.5" y="-155.8" font-family="Times,serif" font-size="14.00">spatial scale: 1</text>
</g>
<!-- 2&#45;&gt;10 -->
<g id="edge10" class="edge"><title>2&#45;&gt;10</title>
<path fill="none" stroke="black" d="M1796.61,-238.431C1840.8,-228.278 1898.49,-215.023 1949.52,-203.297"/>
<polygon fill="black" stroke="black" points="1950.34,-206.701 1959.3,-201.051 1948.77,-199.879 1950.34,-206.701"/>
</g>
<!-- 11 -->
<g id="node12" class="node"><title>11</title>
<path fill="#839e8d" stroke="black" d="M2308,-192.5C2308,-192.5 2233,-192.5 2233,-192.5 2227,-192.5 2221,-186.5 2221,-180.5 2221,-180.5 2221,-168.5 2221,-168.5 2221,-162.5 2227,-156.5 2233,-156.5 2233,-156.5 2308,-156.5 2308,-156.5 2314,-156.5 2320,-162.5 2320,-168.5 2320,-168.5 2320,-180.5 2320,-180.5 2320,-186.5 2314,-192.5 2308,-192.5"/>
<text text-anchor="middle" x="2270.5" y="-170.8" font-family="Times,serif" font-size="14.00">decode block 0</text>
</g>
<!-- 2&#45;&gt;11 -->
<g id="edge11" class="edge"><title>2&#45;&gt;11</title>
<path fill="none" stroke="black" d="M1796.66,-251.752C1890.14,-246.412 2057.71,-232.975 2197.5,-201 2203.77,-199.566 2210.25,-197.776 2216.64,-195.813"/>
<polygon fill="black" stroke="black" points="2218.12,-199.012 2226.57,-192.612 2215.98,-192.349 2218.12,-199.012"/>
</g>
<!-- 12 -->
<g id="node13" class="node"><title>12</title>
<path fill="#d3e4ff" stroke="black" d="M48.5,-111C48.5,-111 14.5,-111 14.5,-111 8.5,-111 2.5,-105 2.5,-99 2.5,-99 2.5,-87 2.5,-87 2.5,-81 8.5,-75 14.5,-75 14.5,-75 48.5,-75 48.5,-75 54.5,-75 60.5,-81 60.5,-87 60.5,-87 60.5,-99 60.5,-99 60.5,-105 54.5,-111 48.5,-111"/>
<text text-anchor="middle" x="31.5" y="-89.3" font-family="Times,serif" font-size="14.00">comp 0</text>
</g>
<!-- 3&#45;&gt;12 -->
<g id="edge12" class="edge"><title>3&#45;&gt;12</title>
<path fill="none" stroke="black" d="M110.585,-156.25C96.1581,-144.894 77.0912,-129.886 61.2938,-117.452"/>
<polygon fill="black" stroke="black" points="63.3953,-114.652 53.3727,-111.217 59.0657,-120.152 63.3953,-114.652"/>
</g>
<!-- 13 -->
<g id="node14" class="node"><title>13</title>
<path fill="#bfcfe6" stroke="black" d="M125.5,-111C125.5,-111 91.5,-111 91.5,-111 85.5,-111 79.5,-105 79.5,-99 79.5,-99 79.5,-87 79.5,-87 79.5,-81 85.5,-75 91.5,-75 91.5,-75 125.5,-75 125.5,-75 131.5,-75 137.5,-81 137.5,-87 137.5,-87 137.5,-99 137.5,-99 137.5,-105 131.5,-111 125.5,-111"/>
<text text-anchor="middle" x="108.5" y="-89.3" font-family="Times,serif" font-size="14.00">comp 1</text>
</g>
<!-- 3&#45;&gt;13 -->
<g id="edge13" class="edge"><title>3&#45;&gt;13</title>
<path fill="none" stroke="black" d="M127.292,-156.25C124.179,-145.936 120.156,-132.609 116.631,-120.934"/>
<polygon fill="black" stroke="black" points="119.938,-119.778 113.697,-111.217 113.237,-121.801 119.938,-119.778"/>
</g>
<!-- 14 -->
<g id="node15" class="node"><title>14</title>
<path fill="#abb9ce" stroke="black" d="M201.5,-111C201.5,-111 167.5,-111 167.5,-111 161.5,-111 155.5,-105 155.5,-99 155.5,-99 155.5,-87 155.5,-87 155.5,-81 161.5,-75 167.5,-75 167.5,-75 201.5,-75 201.5,-75 207.5,-75 213.5,-81 213.5,-87 213.5,-87 213.5,-99 213.5,-99 213.5,-105 207.5,-111 201.5,-111"/>
<text text-anchor="middle" x="184.5" y="-89.3" font-family="Times,serif" font-size="14.00">comp 2</text>
</g>
<!-- 3&#45;&gt;14 -->
<g id="edge14" class="edge"><title>3&#45;&gt;14</title>
<path fill="none" stroke="black" d="M143.783,-156.25C150.734,-145.624 159.776,-131.799 167.574,-119.877"/>
<polygon fill="black" stroke="black" points="170.694,-121.501 173.239,-111.217 164.836,-117.67 170.694,-121.501"/>
</g>
<!-- 15 -->
<g id="node16" class="node"><title>15</title>
<path fill="#d3e4ff" stroke="black" d="M281.5,-111C281.5,-111 247.5,-111 247.5,-111 241.5,-111 235.5,-105 235.5,-99 235.5,-99 235.5,-87 235.5,-87 235.5,-81 241.5,-75 247.5,-75 247.5,-75 281.5,-75 281.5,-75 287.5,-75 293.5,-81 293.5,-87 293.5,-87 293.5,-99 293.5,-99 293.5,-105 287.5,-111 281.5,-111"/>
<text text-anchor="middle" x="264.5" y="-89.3" font-family="Times,serif" font-size="14.00">comp 0</text>
</g>
<!-- 4&#45;&gt;15 -->
<g id="edge15" class="edge"><title>4&#45;&gt;15</title>
<path fill="none" stroke="black" d="M316.713,-147.908C307.645,-138.546 297.41,-127.979 288.42,-118.697"/>
<polygon fill="black" stroke="black" points="290.685,-116.005 281.214,-111.256 285.657,-120.875 290.685,-116.005"/>
</g>
<!-- 16 -->
<g id="node17" class="node"><title>16</title>
<path fill="#bfcfe6" stroke="black" d="M358.5,-111C358.5,-111 324.5,-111 324.5,-111 318.5,-111 312.5,-105 312.5,-99 312.5,-99 312.5,-87 312.5,-87 312.5,-81 318.5,-75 324.5,-75 324.5,-75 358.5,-75 358.5,-75 364.5,-75 370.5,-81 370.5,-87 370.5,-87 370.5,-99 370.5,-99 370.5,-105 364.5,-111 358.5,-111"/>
<text text-anchor="middle" x="341.5" y="-89.3" font-family="Times,serif" font-size="14.00">comp 1</text>
</g>
<!-- 4&#45;&gt;16 -->
<g id="edge16" class="edge"><title>4&#45;&gt;16</title>
<path fill="none" stroke="black" d="M341.5,-147.908C341.5,-139.482 341.5,-130.08 341.5,-121.517"/>
<polygon fill="black" stroke="black" points="345,-121.256 341.5,-111.256 338,-121.256 345,-121.256"/>
</g>
<!-- 17 -->
<g id="node18" class="node"><title>17</title>
<path fill="#abb9ce" stroke="black" d="M435.5,-111C435.5,-111 401.5,-111 401.5,-111 395.5,-111 389.5,-105 389.5,-99 389.5,-99 389.5,-87 389.5,-87 389.5,-81 395.5,-75 401.5,-75 401.5,-75 435.5,-75 435.5,-75 441.5,-75 447.5,-81 447.5,-87 447.5,-87 447.5,-99 447.5,-99 447.5,-105 441.5,-111 435.5,-111"/>
<text text-anchor="middle" x="418.5" y="-89.3" font-family="Times,serif" font-size="14.00">comp 2</text>
</g>
<!-- 4&#45;&gt;17 -->
<g id="edge17" class="edge"><title>4&#45;&gt;17</title>
<path fill="none" stroke="black" d="M366.287,-147.908C375.355,-138.546 385.59,-127.979 394.58,-118.697"/>
<polygon fill="black" stroke="black" points="397.343,-120.875 401.786,-111.256 392.315,-116.005 397.343,-120.875"/>
</g>
<!-- 18 -->
<g id="node19" class="node"><title>18</title>
<path fill="#d3e4ff" stroke="black" d="M512.5,-111C512.5,-111 478.5,-111 478.5,-111 472.5,-111 466.5,-105 466.5,-99 466.5,-99 466.5,-87 466.5,-87 466.5,-81 472.5,-75 478.5,-75 478.5,-75 512.5,-75 512.5,-75 518.5,-75 524.5,-81 524.5,-87 524.5,-87 524.5,-99 524.5,-99 524.5,-105 518.5,-111 512.5,-111"/>
<text text-anchor="middle" x="495.5" y="-89.3" font-family="Times,serif" font-size="14.00">comp 0</text>
</g>
<!-- 5&#45;&gt;18 -->
<g id="edge18" class="edge"><title>5&#45;&gt;18</title>
<path fill="none" stroke="black" d="M563.987,-147.908C551.524,-138.098 537.379,-126.964 525.193,-117.372"/>
<polygon fill="black" stroke="black" points="527.137,-114.448 517.115,-111.014 522.808,-119.949 527.137,-114.448"/>
</g>
<!-- 19 -->
<g id="node20" class="node"><title>19</title>
<path fill="#bfcfe6" stroke="black" d="M610.5,-112C610.5,-112 554.5,-112 554.5,-112 548.5,-112 542.5,-106 542.5,-100 542.5,-100 542.5,-86 542.5,-86 542.5,-80 548.5,-74 554.5,-74 554.5,-74 610.5,-74 610.5,-74 616.5,-74 622.5,-80 622.5,-86 622.5,-86 622.5,-100 622.5,-100 622.5,-106 616.5,-112 610.5,-112"/>
<text text-anchor="middle" x="582.5" y="-96.8" font-family="Times,serif" font-size="14.00">comp 1</text>
<text text-anchor="middle" x="582.5" y="-81.8" font-family="Times,serif" font-size="14.00">n kernels: 2</text>
</g>
<!-- 5&#45;&gt;19 -->
<g id="edge19" class="edge"><title>5&#45;&gt;19</title>
<path fill="none" stroke="black" d="M591.993,-147.908C590.554,-139.738 588.954,-130.649 587.483,-122.298"/>
<polygon fill="black" stroke="black" points="590.893,-121.48 585.712,-112.239 583.999,-122.694 590.893,-121.48"/>
</g>
<!-- 20 -->
<g id="node21" class="node"><title>20</title>
<path fill="#abb9ce" stroke="black" d="M686.5,-111C686.5,-111 652.5,-111 652.5,-111 646.5,-111 640.5,-105 640.5,-99 640.5,-99 640.5,-87 640.5,-87 640.5,-81 646.5,-75 652.5,-75 652.5,-75 686.5,-75 686.5,-75 692.5,-75 698.5,-81 698.5,-87 698.5,-87 698.5,-99 698.5,-99 698.5,-105 692.5,-111 686.5,-111"/>
<text text-anchor="middle" x="669.5" y="-89.3" font-family="Times,serif" font-size="14.00">comp 2</text>
</g>
<!-- 5&#45;&gt;20 -->
<g id="edge20" class="edge"><title>5&#45;&gt;20</title>
<path fill="none" stroke="black" d="M619.999,-147.908C628.596,-138.546 638.299,-127.979 646.823,-118.697"/>
<polygon fill="black" stroke="black" points="649.469,-120.989 653.654,-111.256 644.313,-116.255 649.469,-120.989"/>
</g>
<!-- 21 -->
<g id="node22" class="node"><title>21</title>
<path fill="#d3e4ff" stroke="black" d="M848.5,-112C848.5,-112 728.5,-112 728.5,-112 722.5,-112 716.5,-106 716.5,-100 716.5,-100 716.5,-86 716.5,-86 716.5,-80 722.5,-74 728.5,-74 728.5,-74 848.5,-74 848.5,-74 854.5,-74 860.5,-80 860.5,-86 860.5,-86 860.5,-100 860.5,-100 860.5,-106 854.5,-112 848.5,-112"/>
<text text-anchor="middle" x="788.5" y="-96.8" font-family="Times,serif" font-size="14.00">comp 0</text>
<text text-anchor="middle" x="788.5" y="-81.8" font-family="Times,serif" font-size="14.00">log gamma2: 0.326833</text>
</g>
<!-- 6&#45;&gt;21 -->
<g id="edge21" class="edge"><title>6&#45;&gt;21</title>
<path fill="none" stroke="black" d="M851.562,-147.908C840.73,-138.648 828.518,-128.209 817.746,-119.001"/>
<polygon fill="black" stroke="black" points="819.712,-116.076 809.836,-112.239 815.163,-121.397 819.712,-116.076"/>
</g>
<!-- 22 -->
<g id="node23" class="node"><title>22</title>
<path fill="#bfcfe6" stroke="black" d="M924.5,-111C924.5,-111 890.5,-111 890.5,-111 884.5,-111 878.5,-105 878.5,-99 878.5,-99 878.5,-87 878.5,-87 878.5,-81 884.5,-75 890.5,-75 890.5,-75 924.5,-75 924.5,-75 930.5,-75 936.5,-81 936.5,-87 936.5,-87 936.5,-99 936.5,-99 936.5,-105 930.5,-111 924.5,-111"/>
<text text-anchor="middle" x="907.5" y="-89.3" font-family="Times,serif" font-size="14.00">comp 1</text>
</g>
<!-- 6&#45;&gt;22 -->
<g id="edge22" class="edge"><title>6&#45;&gt;22</title>
<path fill="none" stroke="black" d="M889.87,-147.908C892.687,-139.295 895.837,-129.662 898.687,-120.948"/>
<polygon fill="black" stroke="black" points="902.075,-121.849 901.856,-111.256 895.421,-119.673 902.075,-121.849"/>
</g>
<!-- 23 -->
<g id="node24" class="node"><title>23</title>
<path fill="#abb9ce" stroke="black" d="M1226,-112C1226,-112 967,-112 967,-112 961,-112 955,-106 955,-100 955,-100 955,-86 955,-86 955,-80 961,-74 967,-74 967,-74 1226,-74 1226,-74 1232,-74 1238,-80 1238,-86 1238,-86 1238,-100 1238,-100 1238,-106 1232,-112 1226,-112"/>
<text text-anchor="middle" x="1096.5" y="-96.8" font-family="Times,serif" font-size="14.00">comp 2</text>
<text text-anchor="middle" x="1096.5" y="-81.8" font-family="Times,serif" font-size="14.00">log gamma1: 0.444687 &#160;&#160;log gamma2: 0.005480</text>
</g>
<!-- 6&#45;&gt;23 -->
<g id="edge23" class="edge"><title>6&#45;&gt;23</title>
<path fill="none" stroke="black" d="M950.711,-147.908C978.809,-137.518 1010.92,-125.644 1037.84,-115.69"/>
<polygon fill="black" stroke="black" points="1039.34,-118.866 1047.51,-112.115 1036.92,-112.301 1039.34,-118.866"/>
</g>
<!-- 24 -->
<g id="node25" class="node"><title>24</title>
<path fill="#d3e4ff" stroke="black" d="M1388.5,-112C1388.5,-112 1268.5,-112 1268.5,-112 1262.5,-112 1256.5,-106 1256.5,-100 1256.5,-100 1256.5,-86 1256.5,-86 1256.5,-80 1262.5,-74 1268.5,-74 1268.5,-74 1388.5,-74 1388.5,-74 1394.5,-74 1400.5,-80 1400.5,-86 1400.5,-86 1400.5,-100 1400.5,-100 1400.5,-106 1394.5,-112 1388.5,-112"/>
<text text-anchor="middle" x="1328.5" y="-96.8" font-family="Times,serif" font-size="14.00">comp 0</text>
<text text-anchor="middle" x="1328.5" y="-81.8" font-family="Times,serif" font-size="14.00">log gamma1: 0.413393</text>
</g>
<!-- 7&#45;&gt;24 -->
<g id="edge24" class="edge"><title>7&#45;&gt;24</title>
<path fill="none" stroke="black" d="M1362.52,-155.46C1356.93,-145.367 1349.85,-132.58 1343.6,-121.287"/>
<polygon fill="black" stroke="black" points="1346.5,-119.298 1338.6,-112.244 1340.38,-122.688 1346.5,-119.298"/>
</g>
<!-- 25 -->
<g id="node26" class="node"><title>25</title>
<path fill="#bfcfe6" stroke="black" d="M1464.5,-111C1464.5,-111 1430.5,-111 1430.5,-111 1424.5,-111 1418.5,-105 1418.5,-99 1418.5,-99 1418.5,-87 1418.5,-87 1418.5,-81 1424.5,-75 1430.5,-75 1430.5,-75 1464.5,-75 1464.5,-75 1470.5,-75 1476.5,-81 1476.5,-87 1476.5,-87 1476.5,-99 1476.5,-99 1476.5,-105 1470.5,-111 1464.5,-111"/>
<text text-anchor="middle" x="1447.5" y="-89.3" font-family="Times,serif" font-size="14.00">comp 1</text>
</g>
<!-- 7&#45;&gt;25 -->
<g id="edge25" class="edge"><title>7&#45;&gt;25</title>
<path fill="none" stroke="black" d="M1389.52,-155.46C1399.8,-144.562 1413.04,-130.523 1424.28,-118.614"/>
<polygon fill="black" stroke="black" points="1427,-120.827 1431.32,-111.151 1421.91,-116.023 1427,-120.827"/>
</g>
<!-- 26 -->
<g id="node27" class="node"><title>26</title>
<path fill="#d3e4ff" stroke="black" d="M1563.5,-111C1563.5,-111 1529.5,-111 1529.5,-111 1523.5,-111 1517.5,-105 1517.5,-99 1517.5,-99 1517.5,-87 1517.5,-87 1517.5,-81 1523.5,-75 1529.5,-75 1529.5,-75 1563.5,-75 1563.5,-75 1569.5,-75 1575.5,-81 1575.5,-87 1575.5,-87 1575.5,-99 1575.5,-99 1575.5,-105 1569.5,-111 1563.5,-111"/>
<text text-anchor="middle" x="1546.5" y="-89.3" font-family="Times,serif" font-size="14.00">comp 0</text>
</g>
<!-- 8&#45;&gt;26 -->
<g id="edge26" class="edge"><title>8&#45;&gt;26</title>
<path fill="none" stroke="black" d="M1588.54,-147.908C1581.39,-138.733 1573.33,-128.401 1566.2,-119.255"/>
<polygon fill="black" stroke="black" points="1568.87,-116.99 1559.96,-111.256 1563.35,-121.294 1568.87,-116.99"/>
</g>
<!-- 27 -->
<g id="node28" class="node"><title>27</title>
<path fill="#bfcfe6" stroke="black" d="M1725.5,-112C1725.5,-112 1605.5,-112 1605.5,-112 1599.5,-112 1593.5,-106 1593.5,-100 1593.5,-100 1593.5,-86 1593.5,-86 1593.5,-80 1599.5,-74 1605.5,-74 1605.5,-74 1725.5,-74 1725.5,-74 1731.5,-74 1737.5,-80 1737.5,-86 1737.5,-86 1737.5,-100 1737.5,-100 1737.5,-106 1731.5,-112 1725.5,-112"/>
<text text-anchor="middle" x="1665.5" y="-96.8" font-family="Times,serif" font-size="14.00">comp 1</text>
<text text-anchor="middle" x="1665.5" y="-81.8" font-family="Times,serif" font-size="14.00">log gamma2: 0.027218</text>
</g>
<!-- 8&#45;&gt;27 -->
<g id="edge27" class="edge"><title>8&#45;&gt;27</title>
<path fill="none" stroke="black" d="M1626.85,-147.908C1633.1,-139.193 1640.09,-129.433 1646.4,-120.638"/>
<polygon fill="black" stroke="black" points="1649.44,-122.405 1652.42,-112.239 1643.75,-118.326 1649.44,-122.405"/>
</g>
<!-- 28 -->
<g id="node29" class="node"><title>28</title>
<path fill="#d3e4ff" stroke="black" d="M1801.5,-111C1801.5,-111 1767.5,-111 1767.5,-111 1761.5,-111 1755.5,-105 1755.5,-99 1755.5,-99 1755.5,-87 1755.5,-87 1755.5,-81 1761.5,-75 1767.5,-75 1767.5,-75 1801.5,-75 1801.5,-75 1807.5,-75 1813.5,-81 1813.5,-87 1813.5,-87 1813.5,-99 1813.5,-99 1813.5,-105 1807.5,-111 1801.5,-111"/>
<text text-anchor="middle" x="1784.5" y="-89.3" font-family="Times,serif" font-size="14.00">comp 0</text>
</g>
<!-- 9&#45;&gt;28 -->
<g id="edge28" class="edge"><title>9&#45;&gt;28</title>
<path fill="none" stroke="black" d="M1828.57,-155.46C1820.9,-144.77 1811.07,-131.057 1802.64,-119.297"/>
<polygon fill="black" stroke="black" points="1805.47,-117.238 1796.8,-111.151 1799.78,-121.317 1805.47,-117.238"/>
</g>
<!-- 29 -->
<g id="node30" class="node"><title>29</title>
<path fill="#bfcfe6" stroke="black" d="M1968,-112C1968,-112 1843,-112 1843,-112 1837,-112 1831,-106 1831,-100 1831,-100 1831,-86 1831,-86 1831,-80 1837,-74 1843,-74 1843,-74 1968,-74 1968,-74 1974,-74 1980,-80 1980,-86 1980,-86 1980,-100 1980,-100 1980,-106 1974,-112 1968,-112"/>
<text text-anchor="middle" x="1905.5" y="-96.8" font-family="Times,serif" font-size="14.00">comp 1</text>
<text text-anchor="middle" x="1905.5" y="-81.8" font-family="Times,serif" font-size="14.00">log gamma2: &#45;0.411089</text>
</g>
<!-- 9&#45;&gt;29 -->
<g id="edge29" class="edge"><title>9&#45;&gt;29</title>
<path fill="none" stroke="black" d="M1856.02,-155.46C1864.39,-145.064 1875.06,-131.811 1884.35,-120.275"/>
<polygon fill="black" stroke="black" points="1887.27,-122.228 1890.81,-112.244 1881.82,-117.838 1887.27,-122.228"/>
</g>
<!-- 30 -->
<g id="node31" class="node"><title>30</title>
<path fill="#d3e4ff" stroke="black" d="M2080.5,-111C2080.5,-111 2046.5,-111 2046.5,-111 2040.5,-111 2034.5,-105 2034.5,-99 2034.5,-99 2034.5,-87 2034.5,-87 2034.5,-81 2040.5,-75 2046.5,-75 2046.5,-75 2080.5,-75 2080.5,-75 2086.5,-75 2092.5,-81 2092.5,-87 2092.5,-87 2092.5,-99 2092.5,-99 2092.5,-105 2086.5,-111 2080.5,-111"/>
<text text-anchor="middle" x="2063.5" y="-89.3" font-family="Times,serif" font-size="14.00">comp 0</text>
</g>
<!-- 10&#45;&gt;30 -->
<g id="edge30" class="edge"><title>10&#45;&gt;30</title>
<path fill="none" stroke="black" d="M2068.25,-147.908C2067.5,-139.389 2066.66,-129.871 2065.9,-121.232"/>
<polygon fill="black" stroke="black" points="2069.38,-120.911 2065.02,-111.256 2062.41,-121.525 2069.38,-120.911"/>
</g>
<!-- 31 -->
<g id="node32" class="node"><title>31</title>
<path fill="#bfcfe6" stroke="black" d="M2158.5,-111C2158.5,-111 2124.5,-111 2124.5,-111 2118.5,-111 2112.5,-105 2112.5,-99 2112.5,-99 2112.5,-87 2112.5,-87 2112.5,-81 2118.5,-75 2124.5,-75 2124.5,-75 2158.5,-75 2158.5,-75 2164.5,-75 2170.5,-81 2170.5,-87 2170.5,-87 2170.5,-99 2170.5,-99 2170.5,-105 2164.5,-111 2158.5,-111"/>
<text text-anchor="middle" x="2141.5" y="-89.3" font-family="Times,serif" font-size="14.00">comp 1</text>
</g>
<!-- 10&#45;&gt;31 -->
<g id="edge31" class="edge"><title>10&#45;&gt;31</title>
<path fill="none" stroke="black" d="M2093.36,-147.908C2101.63,-138.64 2110.97,-128.19 2119.19,-118.975"/>
<polygon fill="black" stroke="black" points="2122.04,-121.046 2126.09,-111.256 2116.82,-116.384 2122.04,-121.046"/>
</g>
<!-- 32 -->
<g id="node33" class="node"><title>32</title>
<path fill="#d3e4ff" stroke="black" d="M2287.5,-111C2287.5,-111 2253.5,-111 2253.5,-111 2247.5,-111 2241.5,-105 2241.5,-99 2241.5,-99 2241.5,-87 2241.5,-87 2241.5,-81 2247.5,-75 2253.5,-75 2253.5,-75 2287.5,-75 2287.5,-75 2293.5,-75 2299.5,-81 2299.5,-87 2299.5,-87 2299.5,-99 2299.5,-99 2299.5,-105 2293.5,-111 2287.5,-111"/>
<text text-anchor="middle" x="2270.5" y="-89.3" font-family="Times,serif" font-size="14.00">comp 0</text>
</g>
<!-- 11&#45;&gt;32 -->
<g id="edge32" class="edge"><title>11&#45;&gt;32</title>
<path fill="none" stroke="black" d="M2270.5,-156.25C2270.5,-146.04 2270.5,-132.878 2270.5,-121.288"/>
<polygon fill="black" stroke="black" points="2274,-121.217 2270.5,-111.217 2267,-121.217 2274,-121.217"/>
</g>
<!-- 33 -->
<g id="node34" class="node"><title>33</title>
<path fill="#bfcfe6" stroke="black" d="M2370.5,-111C2370.5,-111 2336.5,-111 2336.5,-111 2330.5,-111 2324.5,-105 2324.5,-99 2324.5,-99 2324.5,-87 2324.5,-87 2324.5,-81 2330.5,-75 2336.5,-75 2336.5,-75 2370.5,-75 2370.5,-75 2376.5,-75 2382.5,-81 2382.5,-87 2382.5,-87 2382.5,-99 2382.5,-99 2382.5,-105 2376.5,-111 2370.5,-111"/>
<text text-anchor="middle" x="2353.5" y="-89.3" font-family="Times,serif" font-size="14.00">comp 1</text>
</g>
<!-- 11&#45;&gt;33 -->
<g id="edge33" class="edge"><title>11&#45;&gt;33</title>
<path fill="none" stroke="black" d="M2288.51,-156.25C2300.15,-145.103 2315.46,-130.436 2328.3,-118.139"/>
<polygon fill="black" stroke="black" points="2330.72,-120.661 2335.53,-111.217 2325.88,-115.606 2330.72,-120.661"/>
</g>
<!-- 34 -->
<g id="node35" class="node"><title>34</title>
<path fill="#f6d3ff" stroke="black" d="M47,-38C47,-38 12,-38 12,-38 6,-38 0,-32 0,-26 0,-26 0,-12 0,-12 0,-6 6,-0 12,-0 12,-0 47,-0 47,-0 53,-0 59,-6 59,-12 59,-12 59,-26 59,-26 59,-32 53,-38 47,-38"/>
<text text-anchor="middle" x="29.5" y="-22.8" font-family="Times,serif" font-size="14.00">forward</text>
<text text-anchor="middle" x="29.5" y="-7.8" font-family="Times,serif" font-size="14.00">input</text>
</g>
<!-- 12&#45;&gt;34 -->
<g id="edge34" class="edge"><title>12&#45;&gt;34</title>
<path fill="none" stroke="black" d="M31.026,-74.937C30.8052,-66.9865 30.5365,-57.3134 30.2865,-48.3127"/>
<polygon fill="black" stroke="black" points="33.7819,-48.0981 30.0055,-38.1992 26.7846,-48.2925 33.7819,-48.0981"/>
</g>
<!-- 35 -->
<g id="node36" class="node"><title>35</title>
<path fill="#f6d3ff" stroke="black" d="M125.5,-38C125.5,-38 89.5,-38 89.5,-38 83.5,-38 77.5,-32 77.5,-26 77.5,-26 77.5,-12 77.5,-12 77.5,-6 83.5,-0 89.5,-0 89.5,-0 125.5,-0 125.5,-0 131.5,-0 137.5,-6 137.5,-12 137.5,-12 137.5,-26 137.5,-26 137.5,-32 131.5,-38 125.5,-38"/>
<text text-anchor="middle" x="107.5" y="-22.8" font-family="Times,serif" font-size="14.00">forward</text>
<text text-anchor="middle" x="107.5" y="-7.8" font-family="Times,serif" font-size="14.00">EB0/C0</text>
</g>
<!-- 13&#45;&gt;35 -->
<g id="edge35" class="edge"><title>13&#45;&gt;35</title>
<path fill="none" stroke="black" d="M108.263,-74.937C108.153,-66.9865 108.018,-57.3134 107.893,-48.3127"/>
<polygon fill="black" stroke="black" points="111.391,-48.1496 107.753,-38.1992 104.392,-48.2468 111.391,-48.1496"/>
</g>
<!-- 36 -->
<g id="node37" class="node"><title>36</title>
<path fill="#f6d3ff" stroke="black" d="M203.5,-38C203.5,-38 167.5,-38 167.5,-38 161.5,-38 155.5,-32 155.5,-26 155.5,-26 155.5,-12 155.5,-12 155.5,-6 161.5,-0 167.5,-0 167.5,-0 203.5,-0 203.5,-0 209.5,-0 215.5,-6 215.5,-12 215.5,-12 215.5,-26 215.5,-26 215.5,-32 209.5,-38 203.5,-38"/>
<text text-anchor="middle" x="185.5" y="-22.8" font-family="Times,serif" font-size="14.00">forward</text>
<text text-anchor="middle" x="185.5" y="-7.8" font-family="Times,serif" font-size="14.00">EB0/C1</text>
</g>
<!-- 14&#45;&gt;36 -->
<g id="edge36" class="edge"><title>14&#45;&gt;36</title>
<path fill="none" stroke="black" d="M184.737,-74.937C184.847,-66.9865 184.982,-57.3134 185.107,-48.3127"/>
<polygon fill="black" stroke="black" points="188.608,-48.2468 185.247,-38.1992 181.609,-48.1496 188.608,-48.2468"/>
</g>
<!-- 37 -->
<g id="node38" class="node"><title>37</title>
<path fill="#f6d3ff" stroke="black" d="M281.5,-38C281.5,-38 245.5,-38 245.5,-38 239.5,-38 233.5,-32 233.5,-26 233.5,-26 233.5,-12 233.5,-12 233.5,-6 239.5,-0 245.5,-0 245.5,-0 281.5,-0 281.5,-0 287.5,-0 293.5,-6 293.5,-12 293.5,-12 293.5,-26 293.5,-26 293.5,-32 287.5,-38 281.5,-38"/>
<text text-anchor="middle" x="263.5" y="-22.8" font-family="Times,serif" font-size="14.00">forward</text>
<text text-anchor="middle" x="263.5" y="-7.8" font-family="Times,serif" font-size="14.00">EB0/C2</text>
</g>
<!-- 15&#45;&gt;37 -->
<g id="edge37" class="edge"><title>15&#45;&gt;37</title>
<path fill="none" stroke="black" d="M264.263,-74.937C264.153,-66.9865 264.018,-57.3134 263.893,-48.3127"/>
<polygon fill="black" stroke="black" points="267.391,-48.1496 263.753,-38.1992 260.392,-48.2468 267.391,-48.1496"/>
</g>
<!-- 38 -->
<g id="node39" class="node"><title>38</title>
<path fill="#f6d3ff" stroke="black" d="M359.5,-38C359.5,-38 323.5,-38 323.5,-38 317.5,-38 311.5,-32 311.5,-26 311.5,-26 311.5,-12 311.5,-12 311.5,-6 317.5,-0 323.5,-0 323.5,-0 359.5,-0 359.5,-0 365.5,-0 371.5,-6 371.5,-12 371.5,-12 371.5,-26 371.5,-26 371.5,-32 365.5,-38 359.5,-38"/>
<text text-anchor="middle" x="341.5" y="-22.8" font-family="Times,serif" font-size="14.00">forward</text>
<text text-anchor="middle" x="341.5" y="-7.8" font-family="Times,serif" font-size="14.00">EB1/C0</text>
</g>
<!-- 16&#45;&gt;38 -->
<g id="edge38" class="edge"><title>16&#45;&gt;38</title>
<path fill="none" stroke="black" d="M341.5,-74.937C341.5,-66.9865 341.5,-57.3134 341.5,-48.3127"/>
<polygon fill="black" stroke="black" points="345,-48.1991 341.5,-38.1992 338,-48.1992 345,-48.1991"/>
</g>
<!-- 39 -->
<g id="node40" class="node"><title>39</title>
<path fill="#f6d3ff" stroke="black" d="M437.5,-38C437.5,-38 401.5,-38 401.5,-38 395.5,-38 389.5,-32 389.5,-26 389.5,-26 389.5,-12 389.5,-12 389.5,-6 395.5,-0 401.5,-0 401.5,-0 437.5,-0 437.5,-0 443.5,-0 449.5,-6 449.5,-12 449.5,-12 449.5,-26 449.5,-26 449.5,-32 443.5,-38 437.5,-38"/>
<text text-anchor="middle" x="419.5" y="-22.8" font-family="Times,serif" font-size="14.00">forward</text>
<text text-anchor="middle" x="419.5" y="-7.8" font-family="Times,serif" font-size="14.00">EB1/C1</text>
</g>
<!-- 17&#45;&gt;39 -->
<g id="edge39" class="edge"><title>17&#45;&gt;39</title>
<path fill="none" stroke="black" d="M418.737,-74.937C418.847,-66.9865 418.982,-57.3134 419.107,-48.3127"/>
<polygon fill="black" stroke="black" points="422.608,-48.2468 419.247,-38.1992 415.609,-48.1496 422.608,-48.2468"/>
</g>
<!-- 40 -->
<g id="node41" class="node"><title>40</title>
<path fill="#f6d3ff" stroke="black" d="M515.5,-38C515.5,-38 479.5,-38 479.5,-38 473.5,-38 467.5,-32 467.5,-26 467.5,-26 467.5,-12 467.5,-12 467.5,-6 473.5,-0 479.5,-0 479.5,-0 515.5,-0 515.5,-0 521.5,-0 527.5,-6 527.5,-12 527.5,-12 527.5,-26 527.5,-26 527.5,-32 521.5,-38 515.5,-38"/>
<text text-anchor="middle" x="497.5" y="-22.8" font-family="Times,serif" font-size="14.00">forward</text>
<text text-anchor="middle" x="497.5" y="-7.8" font-family="Times,serif" font-size="14.00">EB1/C2</text>
</g>
<!-- 18&#45;&gt;40 -->
<g id="edge40" class="edge"><title>18&#45;&gt;40</title>
<path fill="none" stroke="black" d="M495.974,-74.937C496.195,-66.9865 496.464,-57.3134 496.714,-48.3127"/>
<polygon fill="black" stroke="black" points="500.215,-48.2925 496.994,-38.1992 493.218,-48.0981 500.215,-48.2925"/>
</g>
<!-- 41 -->
<g id="node42" class="node"><title>41</title>
<path fill="#f6d3ff" stroke="black" d="M600.5,-38C600.5,-38 564.5,-38 564.5,-38 558.5,-38 552.5,-32 552.5,-26 552.5,-26 552.5,-12 552.5,-12 552.5,-6 558.5,-0 564.5,-0 564.5,-0 600.5,-0 600.5,-0 606.5,-0 612.5,-6 612.5,-12 612.5,-12 612.5,-26 612.5,-26 612.5,-32 606.5,-38 600.5,-38"/>
<text text-anchor="middle" x="582.5" y="-22.8" font-family="Times,serif" font-size="14.00">forward</text>
<text text-anchor="middle" x="582.5" y="-7.8" font-family="Times,serif" font-size="14.00">EB2/C0</text>
</g>
<!-- 19&#45;&gt;41 -->
<g id="edge41" class="edge"><title>19&#45;&gt;41</title>
<path fill="none" stroke="black" d="M582.5,-73.8314C582.5,-66.131 582.5,-56.9743 582.5,-48.4166"/>
<polygon fill="black" stroke="black" points="586,-48.4132 582.5,-38.4133 579,-48.4133 586,-48.4132"/>
</g>
<!-- 42 -->
<g id="node43" class="node"><title>42</title>
<path fill="#f6d3ff" stroke="black" d="M687.5,-38C687.5,-38 651.5,-38 651.5,-38 645.5,-38 639.5,-32 639.5,-26 639.5,-26 639.5,-12 639.5,-12 639.5,-6 645.5,-0 651.5,-0 651.5,-0 687.5,-0 687.5,-0 693.5,-0 699.5,-6 699.5,-12 699.5,-12 699.5,-26 699.5,-26 699.5,-32 693.5,-38 687.5,-38"/>
<text text-anchor="middle" x="669.5" y="-22.8" font-family="Times,serif" font-size="14.00">forward</text>
<text text-anchor="middle" x="669.5" y="-7.8" font-family="Times,serif" font-size="14.00">EB2/C1</text>
</g>
<!-- 20&#45;&gt;42 -->
<g id="edge42" class="edge"><title>20&#45;&gt;42</title>
<path fill="none" stroke="black" d="M669.5,-74.937C669.5,-66.9865 669.5,-57.3134 669.5,-48.3127"/>
<polygon fill="black" stroke="black" points="673,-48.1991 669.5,-38.1992 666,-48.1992 673,-48.1991"/>
</g>
<!-- 43 -->
<g id="node44" class="node"><title>43</title>
<path fill="#f6d3ff" stroke="black" d="M806.5,-38C806.5,-38 770.5,-38 770.5,-38 764.5,-38 758.5,-32 758.5,-26 758.5,-26 758.5,-12 758.5,-12 758.5,-6 764.5,-0 770.5,-0 770.5,-0 806.5,-0 806.5,-0 812.5,-0 818.5,-6 818.5,-12 818.5,-12 818.5,-26 818.5,-26 818.5,-32 812.5,-38 806.5,-38"/>
<text text-anchor="middle" x="788.5" y="-22.8" font-family="Times,serif" font-size="14.00">forward</text>
<text text-anchor="middle" x="788.5" y="-7.8" font-family="Times,serif" font-size="14.00">EB2/C2</text>
</g>
<!-- 21&#45;&gt;43 -->
<g id="edge43" class="edge"><title>21&#45;&gt;43</title>
<path fill="none" stroke="black" d="M788.5,-73.8314C788.5,-66.131 788.5,-56.9743 788.5,-48.4166"/>
<polygon fill="black" stroke="black" points="792,-48.4132 788.5,-38.4133 785,-48.4133 792,-48.4132"/>
</g>
<!-- 44 -->
<g id="node45" class="node"><title>44</title>
<path fill="#f6d3ff" stroke="black" d="M925.5,-38C925.5,-38 889.5,-38 889.5,-38 883.5,-38 877.5,-32 877.5,-26 877.5,-26 877.5,-12 877.5,-12 877.5,-6 883.5,-0 889.5,-0 889.5,-0 925.5,-0 925.5,-0 931.5,-0 937.5,-6 937.5,-12 937.5,-12 937.5,-26 937.5,-26 937.5,-32 931.5,-38 925.5,-38"/>
<text text-anchor="middle" x="907.5" y="-22.8" font-family="Times,serif" font-size="14.00">forward</text>
<text text-anchor="middle" x="907.5" y="-7.8" font-family="Times,serif" font-size="14.00">EB3/C0</text>
</g>
<!-- 22&#45;&gt;44 -->
<g id="edge44" class="edge"><title>22&#45;&gt;44</title>
<path fill="none" stroke="black" d="M907.5,-74.937C907.5,-66.9865 907.5,-57.3134 907.5,-48.3127"/>
<polygon fill="black" stroke="black" points="911,-48.1991 907.5,-38.1992 904,-48.1992 911,-48.1991"/>
</g>
<!-- 45 -->
<g id="node46" class="node"><title>45</title>
<path fill="#f6d3ff" stroke="black" d="M1114.5,-38C1114.5,-38 1078.5,-38 1078.5,-38 1072.5,-38 1066.5,-32 1066.5,-26 1066.5,-26 1066.5,-12 1066.5,-12 1066.5,-6 1072.5,-0 1078.5,-0 1078.5,-0 1114.5,-0 1114.5,-0 1120.5,-0 1126.5,-6 1126.5,-12 1126.5,-12 1126.5,-26 1126.5,-26 1126.5,-32 1120.5,-38 1114.5,-38"/>
<text text-anchor="middle" x="1096.5" y="-22.8" font-family="Times,serif" font-size="14.00">forward</text>
<text text-anchor="middle" x="1096.5" y="-7.8" font-family="Times,serif" font-size="14.00">EB3/C1</text>
</g>
<!-- 23&#45;&gt;45 -->
<g id="edge45" class="edge"><title>23&#45;&gt;45</title>
<path fill="none" stroke="black" d="M1096.5,-73.8314C1096.5,-66.131 1096.5,-56.9743 1096.5,-48.4166"/>
<polygon fill="black" stroke="black" points="1100,-48.4132 1096.5,-38.4133 1093,-48.4133 1100,-48.4132"/>
</g>
<!-- 46 -->
<g id="node47" class="node"><title>46</title>
<path fill="#f6d3ff" stroke="black" d="M1346.5,-38C1346.5,-38 1310.5,-38 1310.5,-38 1304.5,-38 1298.5,-32 1298.5,-26 1298.5,-26 1298.5,-12 1298.5,-12 1298.5,-6 1304.5,-0 1310.5,-0 1310.5,-0 1346.5,-0 1346.5,-0 1352.5,-0 1358.5,-6 1358.5,-12 1358.5,-12 1358.5,-26 1358.5,-26 1358.5,-32 1352.5,-38 1346.5,-38"/>
<text text-anchor="middle" x="1328.5" y="-22.8" font-family="Times,serif" font-size="14.00">forward</text>
<text text-anchor="middle" x="1328.5" y="-7.8" font-family="Times,serif" font-size="14.00">EB3/C2</text>
</g>
<!-- 24&#45;&gt;46 -->
<g id="edge46" class="edge"><title>24&#45;&gt;46</title>
<path fill="none" stroke="black" d="M1328.5,-73.8314C1328.5,-66.131 1328.5,-56.9743 1328.5,-48.4166"/>
<polygon fill="black" stroke="black" points="1332,-48.4132 1328.5,-38.4133 1325,-48.4133 1332,-48.4132"/>
</g>
<!-- 47 -->
<g id="node48" class="node"><title>47</title>
<path fill="#f6d3ff" stroke="black" d="M1446.5,-38C1446.5,-38 1408.5,-38 1408.5,-38 1402.5,-38 1396.5,-32 1396.5,-26 1396.5,-26 1396.5,-12 1396.5,-12 1396.5,-6 1402.5,-0 1408.5,-0 1408.5,-0 1446.5,-0 1446.5,-0 1452.5,-0 1458.5,-6 1458.5,-12 1458.5,-12 1458.5,-26 1458.5,-26 1458.5,-32 1452.5,-38 1446.5,-38"/>
<text text-anchor="middle" x="1427.5" y="-22.8" font-family="Times,serif" font-size="14.00">forward</text>
<text text-anchor="middle" x="1427.5" y="-7.8" font-family="Times,serif" font-size="14.00">DB4/C0</text>
</g>
<!-- 25&#45;&gt;47 -->
<g id="edge47" class="edge"><title>25&#45;&gt;47</title>
<path fill="none" stroke="black" d="M1442.76,-74.937C1440.53,-66.9001 1437.81,-57.1029 1435.28,-48.0195"/>
<polygon fill="black" stroke="black" points="1438.6,-46.8976 1432.56,-38.1992 1431.86,-48.7711 1438.6,-46.8976"/>
</g>
<!-- 48 -->
<g id="node49" class="node"><title>48</title>
<path fill="#f6d3ff" stroke="black" d="M1526.5,-38C1526.5,-38 1488.5,-38 1488.5,-38 1482.5,-38 1476.5,-32 1476.5,-26 1476.5,-26 1476.5,-12 1476.5,-12 1476.5,-6 1482.5,-0 1488.5,-0 1488.5,-0 1526.5,-0 1526.5,-0 1532.5,-0 1538.5,-6 1538.5,-12 1538.5,-12 1538.5,-26 1538.5,-26 1538.5,-32 1532.5,-38 1526.5,-38"/>
<text text-anchor="middle" x="1507.5" y="-22.8" font-family="Times,serif" font-size="14.00">forward</text>
<text text-anchor="middle" x="1507.5" y="-7.8" font-family="Times,serif" font-size="14.00">DB4/C1</text>
</g>
<!-- 26&#45;&gt;48 -->
<g id="edge48" class="edge"><title>26&#45;&gt;48</title>
<path fill="none" stroke="black" d="M1537.26,-74.937C1532.76,-66.6409 1527.25,-56.469 1522.2,-47.1428"/>
<polygon fill="black" stroke="black" points="1525.2,-45.3251 1517.36,-38.1992 1519.04,-48.6591 1525.2,-45.3251"/>
</g>
<!-- 49 -->
<g id="node50" class="node"><title>49</title>
<path fill="#debfe6" stroke="black" d="M1604.5,-38C1604.5,-38 1568.5,-38 1568.5,-38 1562.5,-38 1556.5,-32 1556.5,-26 1556.5,-26 1556.5,-12 1556.5,-12 1556.5,-6 1562.5,-0 1568.5,-0 1568.5,-0 1604.5,-0 1604.5,-0 1610.5,-0 1616.5,-6 1616.5,-12 1616.5,-12 1616.5,-26 1616.5,-26 1616.5,-32 1610.5,-38 1604.5,-38"/>
<text text-anchor="middle" x="1586.5" y="-22.8" font-family="Times,serif" font-size="14.00">merge</text>
<text text-anchor="middle" x="1586.5" y="-7.8" font-family="Times,serif" font-size="14.00">EB3/C2</text>
</g>
<!-- 26&#45;&gt;49 -->
<g id="edge49" class="edge"><title>26&#45;&gt;49</title>
<path fill="none" stroke="black" d="M1555.98,-74.937C1560.59,-66.6409 1566.24,-56.469 1571.42,-47.1428"/>
<polygon fill="black" stroke="black" points="1574.59,-48.6405 1576.39,-38.1992 1568.47,-45.241 1574.59,-48.6405"/>
</g>
<!-- 50 -->
<g id="node51" class="node"><title>50</title>
<path fill="#f6d3ff" stroke="black" d="M1684.5,-38C1684.5,-38 1646.5,-38 1646.5,-38 1640.5,-38 1634.5,-32 1634.5,-26 1634.5,-26 1634.5,-12 1634.5,-12 1634.5,-6 1640.5,-0 1646.5,-0 1646.5,-0 1684.5,-0 1684.5,-0 1690.5,-0 1696.5,-6 1696.5,-12 1696.5,-12 1696.5,-26 1696.5,-26 1696.5,-32 1690.5,-38 1684.5,-38"/>
<text text-anchor="middle" x="1665.5" y="-22.8" font-family="Times,serif" font-size="14.00">forward</text>
<text text-anchor="middle" x="1665.5" y="-7.8" font-family="Times,serif" font-size="14.00">DB3/C0</text>
</g>
<!-- 27&#45;&gt;50 -->
<g id="edge50" class="edge"><title>27&#45;&gt;50</title>
<path fill="none" stroke="black" d="M1665.5,-73.8314C1665.5,-66.131 1665.5,-56.9743 1665.5,-48.4166"/>
<polygon fill="black" stroke="black" points="1669,-48.4132 1665.5,-38.4133 1662,-48.4133 1669,-48.4132"/>
</g>
<!-- 51 -->
<g id="node52" class="node"><title>51</title>
<path fill="#f6d3ff" stroke="black" d="M1764.5,-38C1764.5,-38 1726.5,-38 1726.5,-38 1720.5,-38 1714.5,-32 1714.5,-26 1714.5,-26 1714.5,-12 1714.5,-12 1714.5,-6 1720.5,-0 1726.5,-0 1726.5,-0 1764.5,-0 1764.5,-0 1770.5,-0 1776.5,-6 1776.5,-12 1776.5,-12 1776.5,-26 1776.5,-26 1776.5,-32 1770.5,-38 1764.5,-38"/>
<text text-anchor="middle" x="1745.5" y="-22.8" font-family="Times,serif" font-size="14.00">forward</text>
<text text-anchor="middle" x="1745.5" y="-7.8" font-family="Times,serif" font-size="14.00">DB3/C1</text>
</g>
<!-- 28&#45;&gt;51 -->
<g id="edge51" class="edge"><title>28&#45;&gt;51</title>
<path fill="none" stroke="black" d="M1775.26,-74.937C1770.76,-66.6409 1765.25,-56.469 1760.2,-47.1428"/>
<polygon fill="black" stroke="black" points="1763.2,-45.3251 1755.36,-38.1992 1757.04,-48.6591 1763.2,-45.3251"/>
</g>
<!-- 52 -->
<g id="node53" class="node"><title>52</title>
<path fill="#debfe6" stroke="black" d="M1842.5,-38C1842.5,-38 1806.5,-38 1806.5,-38 1800.5,-38 1794.5,-32 1794.5,-26 1794.5,-26 1794.5,-12 1794.5,-12 1794.5,-6 1800.5,-0 1806.5,-0 1806.5,-0 1842.5,-0 1842.5,-0 1848.5,-0 1854.5,-6 1854.5,-12 1854.5,-12 1854.5,-26 1854.5,-26 1854.5,-32 1848.5,-38 1842.5,-38"/>
<text text-anchor="middle" x="1824.5" y="-22.8" font-family="Times,serif" font-size="14.00">merge</text>
<text text-anchor="middle" x="1824.5" y="-7.8" font-family="Times,serif" font-size="14.00">EB2/C2</text>
</g>
<!-- 28&#45;&gt;52 -->
<g id="edge52" class="edge"><title>28&#45;&gt;52</title>
<path fill="none" stroke="black" d="M1793.98,-74.937C1798.59,-66.6409 1804.24,-56.469 1809.42,-47.1428"/>
<polygon fill="black" stroke="black" points="1812.59,-48.6405 1814.39,-38.1992 1806.47,-45.241 1812.59,-48.6405"/>
</g>
<!-- 53 -->
<g id="node54" class="node"><title>53</title>
<path fill="#f6d3ff" stroke="black" d="M1923.5,-38C1923.5,-38 1885.5,-38 1885.5,-38 1879.5,-38 1873.5,-32 1873.5,-26 1873.5,-26 1873.5,-12 1873.5,-12 1873.5,-6 1879.5,-0 1885.5,-0 1885.5,-0 1923.5,-0 1923.5,-0 1929.5,-0 1935.5,-6 1935.5,-12 1935.5,-12 1935.5,-26 1935.5,-26 1935.5,-32 1929.5,-38 1923.5,-38"/>
<text text-anchor="middle" x="1904.5" y="-22.8" font-family="Times,serif" font-size="14.00">forward</text>
<text text-anchor="middle" x="1904.5" y="-7.8" font-family="Times,serif" font-size="14.00">DB2/C0</text>
</g>
<!-- 29&#45;&gt;53 -->
<g id="edge53" class="edge"><title>29&#45;&gt;53</title>
<path fill="none" stroke="black" d="M1905.25,-73.8314C1905.14,-66.131 1905.01,-56.9743 1904.89,-48.4166"/>
<polygon fill="black" stroke="black" points="1908.39,-48.3637 1904.76,-38.4133 1901.4,-48.4609 1908.39,-48.3637"/>
</g>
<!-- 54 -->
<g id="node55" class="node"><title>54</title>
<path fill="#f6d3ff" stroke="black" d="M2003.5,-38C2003.5,-38 1965.5,-38 1965.5,-38 1959.5,-38 1953.5,-32 1953.5,-26 1953.5,-26 1953.5,-12 1953.5,-12 1953.5,-6 1959.5,-0 1965.5,-0 1965.5,-0 2003.5,-0 2003.5,-0 2009.5,-0 2015.5,-6 2015.5,-12 2015.5,-12 2015.5,-26 2015.5,-26 2015.5,-32 2009.5,-38 2003.5,-38"/>
<text text-anchor="middle" x="1984.5" y="-22.8" font-family="Times,serif" font-size="14.00">forward</text>
<text text-anchor="middle" x="1984.5" y="-7.8" font-family="Times,serif" font-size="14.00">DB2/C1</text>
</g>
<!-- 30&#45;&gt;54 -->
<g id="edge54" class="edge"><title>30&#45;&gt;54</title>
<path fill="none" stroke="black" d="M2044.78,-74.937C2035.01,-66.0359 2022.88,-54.9756 2012.06,-45.1172"/>
<polygon fill="black" stroke="black" points="2014.22,-42.3484 2004.47,-38.1992 2009.5,-47.5221 2014.22,-42.3484"/>
</g>
<!-- 55 -->
<g id="node56" class="node"><title>55</title>
<path fill="#debfe6" stroke="black" d="M2081.5,-38C2081.5,-38 2045.5,-38 2045.5,-38 2039.5,-38 2033.5,-32 2033.5,-26 2033.5,-26 2033.5,-12 2033.5,-12 2033.5,-6 2039.5,-0 2045.5,-0 2045.5,-0 2081.5,-0 2081.5,-0 2087.5,-0 2093.5,-6 2093.5,-12 2093.5,-12 2093.5,-26 2093.5,-26 2093.5,-32 2087.5,-38 2081.5,-38"/>
<text text-anchor="middle" x="2063.5" y="-22.8" font-family="Times,serif" font-size="14.00">merge</text>
<text text-anchor="middle" x="2063.5" y="-7.8" font-family="Times,serif" font-size="14.00">EB1/C2</text>
</g>
<!-- 30&#45;&gt;55 -->
<g id="edge55" class="edge"><title>30&#45;&gt;55</title>
<path fill="none" stroke="black" d="M2063.5,-74.937C2063.5,-66.9865 2063.5,-57.3134 2063.5,-48.3127"/>
<polygon fill="black" stroke="black" points="2067,-48.1991 2063.5,-38.1992 2060,-48.1992 2067,-48.1991"/>
</g>
<!-- 56 -->
<g id="node57" class="node"><title>56</title>
<path fill="#f6d3ff" stroke="black" d="M2161.5,-38C2161.5,-38 2123.5,-38 2123.5,-38 2117.5,-38 2111.5,-32 2111.5,-26 2111.5,-26 2111.5,-12 2111.5,-12 2111.5,-6 2117.5,-0 2123.5,-0 2123.5,-0 2161.5,-0 2161.5,-0 2167.5,-0 2173.5,-6 2173.5,-12 2173.5,-12 2173.5,-26 2173.5,-26 2173.5,-32 2167.5,-38 2161.5,-38"/>
<text text-anchor="middle" x="2142.5" y="-22.8" font-family="Times,serif" font-size="14.00">forward</text>
<text text-anchor="middle" x="2142.5" y="-7.8" font-family="Times,serif" font-size="14.00">DB1/C0</text>
</g>
<!-- 31&#45;&gt;56 -->
<g id="edge56" class="edge"><title>31&#45;&gt;56</title>
<path fill="none" stroke="black" d="M2141.74,-74.937C2141.85,-66.9865 2141.98,-57.3134 2142.11,-48.3127"/>
<polygon fill="black" stroke="black" points="2145.61,-48.2468 2142.25,-38.1992 2138.61,-48.1496 2145.61,-48.2468"/>
</g>
<!-- 57 -->
<g id="node58" class="node"><title>57</title>
<path fill="#f6d3ff" stroke="black" d="M2241.5,-38C2241.5,-38 2203.5,-38 2203.5,-38 2197.5,-38 2191.5,-32 2191.5,-26 2191.5,-26 2191.5,-12 2191.5,-12 2191.5,-6 2197.5,-0 2203.5,-0 2203.5,-0 2241.5,-0 2241.5,-0 2247.5,-0 2253.5,-6 2253.5,-12 2253.5,-12 2253.5,-26 2253.5,-26 2253.5,-32 2247.5,-38 2241.5,-38"/>
<text text-anchor="middle" x="2222.5" y="-22.8" font-family="Times,serif" font-size="14.00">forward</text>
<text text-anchor="middle" x="2222.5" y="-7.8" font-family="Times,serif" font-size="14.00">DB1/C1</text>
</g>
<!-- 32&#45;&gt;57 -->
<g id="edge57" class="edge"><title>32&#45;&gt;57</title>
<path fill="none" stroke="black" d="M2259.12,-74.937C2253.48,-66.468 2246.53,-56.0444 2240.21,-46.561"/>
<polygon fill="black" stroke="black" points="2243.09,-44.5782 2234.63,-38.1992 2237.27,-48.4612 2243.09,-44.5782"/>
</g>
<!-- 58 -->
<g id="node59" class="node"><title>58</title>
<path fill="#debfe6" stroke="black" d="M2319.5,-38C2319.5,-38 2283.5,-38 2283.5,-38 2277.5,-38 2271.5,-32 2271.5,-26 2271.5,-26 2271.5,-12 2271.5,-12 2271.5,-6 2277.5,-0 2283.5,-0 2283.5,-0 2319.5,-0 2319.5,-0 2325.5,-0 2331.5,-6 2331.5,-12 2331.5,-12 2331.5,-26 2331.5,-26 2331.5,-32 2325.5,-38 2319.5,-38"/>
<text text-anchor="middle" x="2301.5" y="-22.8" font-family="Times,serif" font-size="14.00">merge</text>
<text text-anchor="middle" x="2301.5" y="-7.8" font-family="Times,serif" font-size="14.00">EB0/C2</text>
</g>
<!-- 32&#45;&gt;58 -->
<g id="edge58" class="edge"><title>32&#45;&gt;58</title>
<path fill="none" stroke="black" d="M2277.85,-74.937C2281.38,-66.7273 2285.71,-56.6807 2289.69,-47.4345"/>
<polygon fill="black" stroke="black" points="2292.92,-48.7681 2293.66,-38.1992 2286.49,-45.9999 2292.92,-48.7681"/>
</g>
<!-- 59 -->
<g id="node60" class="node"><title>59</title>
<path fill="#f6d3ff" stroke="black" d="M2399.5,-38C2399.5,-38 2361.5,-38 2361.5,-38 2355.5,-38 2349.5,-32 2349.5,-26 2349.5,-26 2349.5,-12 2349.5,-12 2349.5,-6 2355.5,-0 2361.5,-0 2361.5,-0 2399.5,-0 2399.5,-0 2405.5,-0 2411.5,-6 2411.5,-12 2411.5,-12 2411.5,-26 2411.5,-26 2411.5,-32 2405.5,-38 2399.5,-38"/>
<text text-anchor="middle" x="2380.5" y="-22.8" font-family="Times,serif" font-size="14.00">forward</text>
<text text-anchor="middle" x="2380.5" y="-7.8" font-family="Times,serif" font-size="14.00">DB0/C0</text>
</g>
<!-- 33&#45;&gt;59 -->
<g id="edge59" class="edge"><title>33&#45;&gt;59</title>
<path fill="none" stroke="black" d="M2359.9,-74.937C2362.94,-66.8137 2366.67,-56.892 2370.1,-47.7267"/>
<polygon fill="black" stroke="black" points="2373.44,-48.7914 2373.68,-38.1992 2366.89,-46.3335 2373.44,-48.7914"/>
</g>
</g>
</svg>
