<?xml version="1.0" encoding="UTF-8" standalone="no"?>
<!DOCTYPE svg PUBLIC "-//W3C//DTD SVG 1.1//EN"
 "http://www.w3.org/Graphics/SVG/1.1/DTD/svg11.dtd">
<!-- Generated by graphviz version 2.38.0 (20140413.2041)
 -->
<!-- Title: %3 Pages: 1 -->
<svg width="5777pt" height="433pt"
 viewBox="0.00 0.00 5777.00 433.00" xmlns="http://www.w3.org/2000/svg" xmlns:xlink="http://www.w3.org/1999/xlink">
<g id="graph0" class="graph" transform="scale(1 1) rotate(0) translate(4 429)">
<title>%3</title>
<polygon fill="none" stroke="none" points="-4,4 -4,-429 5773,-429 5773,4 -4,4"/>
<!-- 0 -->
<g id="node1" class="node"><title>0</title>
<path fill="#ffd3d3" stroke="black" d="M2973,-425C2973,-425 2782,-425 2782,-425 2776,-425 2770,-419 2770,-413 2770,-413 2770,-384 2770,-384 2770,-378 2776,-372 2782,-372 2782,-372 2973,-372 2973,-372 2979,-372 2985,-378 2985,-384 2985,-384 2985,-413 2985,-413 2985,-419 2979,-425 2973,-425"/>
<text text-anchor="middle" x="2877.5" y="-409.8" font-family="Times,serif" font-size="14.00">net</text>
<text text-anchor="middle" x="2877.5" y="-394.8" font-family="Times,serif" font-size="14.00">k width: 3 &#160;&#160;log gamma2: &#45;8.084472</text>
<text text-anchor="middle" x="2877.5" y="-379.8" font-family="Times,serif" font-size="14.00">n kernels: 83</text>
</g>
<!-- 1 -->
<g id="node2" class="node"><title>1</title>
<path fill="#e9ffd3" stroke="black" d="M760,-321C760,-321 501,-321 501,-321 495,-321 489,-315 489,-309 489,-309 489,-295 489,-295 489,-289 495,-283 501,-283 501,-283 760,-283 760,-283 766,-283 772,-289 772,-295 772,-295 772,-309 772,-309 772,-315 766,-321 760,-321"/>
<text text-anchor="middle" x="630.5" y="-305.8" font-family="Times,serif" font-size="14.00">conv block 0</text>
<text text-anchor="middle" x="630.5" y="-290.8" font-family="Times,serif" font-size="14.00">log gamma1: 0.720472 &#160;&#160;log gamma2: 0.380437</text>
</g>
<!-- 0&#45;&gt;1 -->
<g id="edge1" class="edge"><title>0&#45;&gt;1</title>
<path fill="none" stroke="black" d="M2769.88,-392.974C2404.07,-377.589 1207.72,-327.276 782.32,-309.385"/>
<polygon fill="black" stroke="black" points="782.246,-305.879 772.108,-308.955 781.952,-312.873 782.246,-305.879"/>
</g>
<!-- 2 -->
<g id="node3" class="node"><title>2</title>
<path fill="#e9ffd3" stroke="black" d="M1897,-336C1897,-336 1638,-336 1638,-336 1632,-336 1626,-330 1626,-324 1626,-324 1626,-280 1626,-280 1626,-274 1632,-268 1638,-268 1638,-268 1897,-268 1897,-268 1903,-268 1909,-274 1909,-280 1909,-280 1909,-324 1909,-324 1909,-330 1903,-336 1897,-336"/>
<text text-anchor="middle" x="1767.5" y="-320.8" font-family="Times,serif" font-size="14.00">conv block 1</text>
<text text-anchor="middle" x="1767.5" y="-305.8" font-family="Times,serif" font-size="14.00">log gamma1: 1.377413 &#160;&#160;log gamma2: 0.117835</text>
<text text-anchor="middle" x="1767.5" y="-290.8" font-family="Times,serif" font-size="14.00">n kernels: 8 &#160;&#160;pool z: 1</text>
<text text-anchor="middle" x="1767.5" y="-275.8" font-family="Times,serif" font-size="14.00">spatial scale: 1</text>
</g>
<!-- 0&#45;&gt;2 -->
<g id="edge2" class="edge"><title>0&#45;&gt;2</title>
<path fill="none" stroke="black" d="M2769.81,-388.332C2571.18,-371.422 2146.72,-335.285 1919.11,-315.907"/>
<polygon fill="black" stroke="black" points="1919.35,-312.415 1909.09,-315.054 1918.75,-319.39 1919.35,-312.415"/>
</g>
<!-- 3 -->
<g id="node4" class="node"><title>3</title>
<path fill="#e9ffd3" stroke="black" d="M2957,-321C2957,-321 2798,-321 2798,-321 2792,-321 2786,-315 2786,-309 2786,-309 2786,-295 2786,-295 2786,-289 2792,-283 2798,-283 2798,-283 2957,-283 2957,-283 2963,-283 2969,-289 2969,-295 2969,-295 2969,-309 2969,-309 2969,-315 2963,-321 2957,-321"/>
<text text-anchor="middle" x="2877.5" y="-305.8" font-family="Times,serif" font-size="14.00">conv block 2</text>
<text text-anchor="middle" x="2877.5" y="-290.8" font-family="Times,serif" font-size="14.00">n kernels: &#45;14 &#160;&#160;spatial scale: 2</text>
</g>
<!-- 0&#45;&gt;3 -->
<g id="edge3" class="edge"><title>0&#45;&gt;3</title>
<path fill="none" stroke="black" d="M2877.5,-371.677C2877.5,-359.126 2877.5,-344.014 2877.5,-331.166"/>
<polygon fill="black" stroke="black" points="2881,-331.011 2877.5,-321.011 2874,-331.011 2881,-331.011"/>
</g>
<!-- 4 -->
<g id="node5" class="node"><title>4</title>
<path fill="#e9ffd3" stroke="black" d="M4081,-321C4081,-321 3920,-321 3920,-321 3914,-321 3908,-315 3908,-309 3908,-309 3908,-295 3908,-295 3908,-289 3914,-283 3920,-283 3920,-283 4081,-283 4081,-283 4087,-283 4093,-289 4093,-295 4093,-295 4093,-309 4093,-309 4093,-315 4087,-321 4081,-321"/>
<text text-anchor="middle" x="4000.5" y="-305.8" font-family="Times,serif" font-size="14.00">conv block 3</text>
<text text-anchor="middle" x="4000.5" y="-290.8" font-family="Times,serif" font-size="14.00">n kernels: 581 &#160;&#160;spatial scale: 3</text>
</g>
<!-- 0&#45;&gt;4 -->
<g id="edge4" class="edge"><title>0&#45;&gt;4</title>
<path fill="none" stroke="black" d="M2985.18,-388.439C3201.37,-370.247 3685.64,-329.495 3897.71,-311.649"/>
<polygon fill="black" stroke="black" points="3898.24,-315.118 3907.91,-310.791 3897.65,-308.142 3898.24,-315.118"/>
</g>
<!-- 5 -->
<g id="node6" class="node"><title>5</title>
<path fill="#e9ffd3" stroke="black" d="M5004,-320C5004,-320 4937,-320 4937,-320 4931,-320 4925,-314 4925,-308 4925,-308 4925,-296 4925,-296 4925,-290 4931,-284 4937,-284 4937,-284 5004,-284 5004,-284 5010,-284 5016,-290 5016,-296 5016,-296 5016,-308 5016,-308 5016,-314 5010,-320 5004,-320"/>
<text text-anchor="middle" x="4970.5" y="-298.3" font-family="Times,serif" font-size="14.00">path combine</text>
</g>
<!-- 0&#45;&gt;5 -->
<g id="edge5" class="edge"><title>0&#45;&gt;5</title>
<path fill="none" stroke="black" d="M2985.26,-392.635C3364.95,-375.491 4632.96,-318.24 4914.71,-305.519"/>
<polygon fill="black" stroke="black" points="4914.87,-309.015 4924.7,-305.068 4914.56,-302.022 4914.87,-309.015"/>
</g>
<!-- 6 -->
<g id="node7" class="node"><title>6</title>
<path fill="#d3ffff" stroke="black" d="M264,-202C264,-202 201,-202 201,-202 195,-202 189,-196 189,-190 189,-190 189,-176 189,-176 189,-170 195,-164 201,-164 201,-164 264,-164 264,-164 270,-164 276,-170 276,-176 276,-176 276,-190 276,-190 276,-196 270,-202 264,-202"/>
<text text-anchor="middle" x="232.5" y="-186.8" font-family="Times,serif" font-size="14.00">comp 0</text>
<text text-anchor="middle" x="232.5" y="-171.8" font-family="Times,serif" font-size="14.00">n kernels: 12</text>
</g>
<!-- 1&#45;&gt;6 -->
<g id="edge6" class="edge"><title>1&#45;&gt;6</title>
<path fill="none" stroke="black" d="M553.727,-282.984C500.537,-270.022 428.279,-251.457 365.5,-232 339.018,-223.793 310.017,-213.485 285.872,-204.527"/>
<polygon fill="black" stroke="black" points="286.781,-201.13 276.189,-200.91 284.332,-207.688 286.781,-201.13"/>
</g>
<!-- 7 -->
<g id="node8" class="node"><title>7</title>
<path fill="#bfe6e6" stroke="black" d="M588.5,-202C588.5,-202 386.5,-202 386.5,-202 380.5,-202 374.5,-196 374.5,-190 374.5,-190 374.5,-176 374.5,-176 374.5,-170 380.5,-164 386.5,-164 386.5,-164 588.5,-164 588.5,-164 594.5,-164 600.5,-170 600.5,-176 600.5,-176 600.5,-190 600.5,-190 600.5,-196 594.5,-202 588.5,-202"/>
<text text-anchor="middle" x="487.5" y="-186.8" font-family="Times,serif" font-size="14.00">comp 1</text>
<text text-anchor="middle" x="487.5" y="-171.8" font-family="Times,serif" font-size="14.00">log gamma1: 1.787999 &#160;&#160;n kernels: 14</text>
</g>
<!-- 1&#45;&gt;7 -->
<g id="edge7" class="edge"><title>1&#45;&gt;7</title>
<path fill="none" stroke="black" d="M608.47,-282.975C584.188,-263.108 544.975,-231.025 517.806,-208.796"/>
<polygon fill="black" stroke="black" points="519.747,-205.862 509.791,-202.238 515.314,-211.279 519.747,-205.862"/>
</g>
<!-- 8 -->
<g id="node9" class="node"><title>8</title>
<path fill="#abcece" stroke="black" d="M903,-202C903,-202 644,-202 644,-202 638,-202 632,-196 632,-190 632,-190 632,-176 632,-176 632,-170 638,-164 644,-164 644,-164 903,-164 903,-164 909,-164 915,-170 915,-176 915,-176 915,-190 915,-190 915,-196 909,-202 903,-202"/>
<text text-anchor="middle" x="773.5" y="-186.8" font-family="Times,serif" font-size="14.00">comp 2</text>
<text text-anchor="middle" x="773.5" y="-171.8" font-family="Times,serif" font-size="14.00">log gamma1: 1.357281 &#160;&#160;log gamma2: 0.542866</text>
</g>
<!-- 1&#45;&gt;8 -->
<g id="edge8" class="edge"><title>1&#45;&gt;8</title>
<path fill="none" stroke="black" d="M652.53,-282.975C676.812,-263.108 716.025,-231.025 743.194,-208.796"/>
<polygon fill="black" stroke="black" points="745.686,-211.279 751.209,-202.238 741.253,-205.862 745.686,-211.279"/>
</g>
<!-- 9 -->
<g id="node10" class="node"><title>9</title>
<path fill="#d3ffff" stroke="black" d="M1382.5,-209.5C1382.5,-209.5 1114.5,-209.5 1114.5,-209.5 1108.5,-209.5 1102.5,-203.5 1102.5,-197.5 1102.5,-197.5 1102.5,-168.5 1102.5,-168.5 1102.5,-162.5 1108.5,-156.5 1114.5,-156.5 1114.5,-156.5 1382.5,-156.5 1382.5,-156.5 1388.5,-156.5 1394.5,-162.5 1394.5,-168.5 1394.5,-168.5 1394.5,-197.5 1394.5,-197.5 1394.5,-203.5 1388.5,-209.5 1382.5,-209.5"/>
<text text-anchor="middle" x="1248.5" y="-194.3" font-family="Times,serif" font-size="14.00">comp 0</text>
<text text-anchor="middle" x="1248.5" y="-179.3" font-family="Times,serif" font-size="14.00">log gamma1: &#45;0.467836 &#160;&#160;log gamma2: &#45;0.289643</text>
<text text-anchor="middle" x="1248.5" y="-164.3" font-family="Times,serif" font-size="14.00">n kernels: 13</text>
</g>
<!-- 2&#45;&gt;9 -->
<g id="edge9" class="edge"><title>2&#45;&gt;9</title>
<path fill="none" stroke="black" d="M1625.68,-269.029C1546.26,-251.125 1448.18,-229.015 1371.95,-211.829"/>
<polygon fill="black" stroke="black" points="1372.34,-208.33 1361.82,-209.545 1370.8,-215.159 1372.34,-208.33"/>
</g>
<!-- 10 -->
<g id="node11" class="node"><title>10</title>
<path fill="#bfe6e6" stroke="black" d="M1585.5,-201C1585.5,-201 1551.5,-201 1551.5,-201 1545.5,-201 1539.5,-195 1539.5,-189 1539.5,-189 1539.5,-177 1539.5,-177 1539.5,-171 1545.5,-165 1551.5,-165 1551.5,-165 1585.5,-165 1585.5,-165 1591.5,-165 1597.5,-171 1597.5,-177 1597.5,-177 1597.5,-189 1597.5,-189 1597.5,-195 1591.5,-201 1585.5,-201"/>
<text text-anchor="middle" x="1568.5" y="-179.3" font-family="Times,serif" font-size="14.00">comp 1</text>
</g>
<!-- 2&#45;&gt;10 -->
<g id="edge10" class="edge"><title>2&#45;&gt;10</title>
<path fill="none" stroke="black" d="M1711.27,-267.942C1677.73,-248.223 1636.05,-223.714 1606.4,-206.28"/>
<polygon fill="black" stroke="black" points="1608,-203.161 1597.6,-201.11 1604.45,-209.196 1608,-203.161"/>
</g>
<!-- 11 -->
<g id="node12" class="node"><title>11</title>
<path fill="#abcece" stroke="black" d="M1784.5,-201C1784.5,-201 1750.5,-201 1750.5,-201 1744.5,-201 1738.5,-195 1738.5,-189 1738.5,-189 1738.5,-177 1738.5,-177 1738.5,-171 1744.5,-165 1750.5,-165 1750.5,-165 1784.5,-165 1784.5,-165 1790.5,-165 1796.5,-171 1796.5,-177 1796.5,-177 1796.5,-189 1796.5,-189 1796.5,-195 1790.5,-201 1784.5,-201"/>
<text text-anchor="middle" x="1767.5" y="-179.3" font-family="Times,serif" font-size="14.00">comp 2</text>
</g>
<!-- 2&#45;&gt;11 -->
<g id="edge11" class="edge"><title>2&#45;&gt;11</title>
<path fill="none" stroke="black" d="M1767.5,-267.785C1767.5,-249.94 1767.5,-228.208 1767.5,-211.349"/>
<polygon fill="black" stroke="black" points="1771,-211.064 1767.5,-201.064 1764,-211.064 1771,-211.064"/>
</g>
<!-- 12 -->
<g id="node13" class="node"><title>12</title>
<path fill="#97b6b6" stroke="black" d="M2057.5,-202C2057.5,-202 1925.5,-202 1925.5,-202 1919.5,-202 1913.5,-196 1913.5,-190 1913.5,-190 1913.5,-176 1913.5,-176 1913.5,-170 1919.5,-164 1925.5,-164 1925.5,-164 2057.5,-164 2057.5,-164 2063.5,-164 2069.5,-170 2069.5,-176 2069.5,-176 2069.5,-190 2069.5,-190 2069.5,-196 2063.5,-202 2057.5,-202"/>
<text text-anchor="middle" x="1991.5" y="-186.8" font-family="Times,serif" font-size="14.00">path end 1</text>
<text text-anchor="middle" x="1991.5" y="-171.8" font-family="Times,serif" font-size="14.00">k width: &#45;2 &#160;&#160;n kernels: &#45;8</text>
</g>
<!-- 2&#45;&gt;12 -->
<g id="edge12" class="edge"><title>2&#45;&gt;12</title>
<path fill="none" stroke="black" d="M1830.79,-267.942C1868.16,-248.423 1914.51,-224.212 1947.82,-206.814"/>
<polygon fill="black" stroke="black" points="1949.61,-209.83 1956.85,-202.098 1946.37,-203.625 1949.61,-209.83"/>
</g>
<!-- 13 -->
<g id="node14" class="node"><title>13</title>
<path fill="#d3ffff" stroke="black" d="M2592.5,-202C2592.5,-202 2390.5,-202 2390.5,-202 2384.5,-202 2378.5,-196 2378.5,-190 2378.5,-190 2378.5,-176 2378.5,-176 2378.5,-170 2384.5,-164 2390.5,-164 2390.5,-164 2592.5,-164 2592.5,-164 2598.5,-164 2604.5,-170 2604.5,-176 2604.5,-176 2604.5,-190 2604.5,-190 2604.5,-196 2598.5,-202 2592.5,-202"/>
<text text-anchor="middle" x="2491.5" y="-186.8" font-family="Times,serif" font-size="14.00">comp 0</text>
<text text-anchor="middle" x="2491.5" y="-171.8" font-family="Times,serif" font-size="14.00">log gamma1: 1.125184 &#160;&#160;n kernels: 12</text>
</g>
<!-- 3&#45;&gt;13 -->
<g id="edge13" class="edge"><title>3&#45;&gt;13</title>
<path fill="none" stroke="black" d="M2818.03,-282.975C2748.61,-261.933 2633.99,-227.189 2560.65,-204.961"/>
<polygon fill="black" stroke="black" points="2561.62,-201.597 2551.03,-202.045 2559.59,-208.296 2561.62,-201.597"/>
</g>
<!-- 14 -->
<g id="node15" class="node"><title>14</title>
<path fill="#bfe6e6" stroke="black" d="M2838,-202C2838,-202 2713,-202 2713,-202 2707,-202 2701,-196 2701,-190 2701,-190 2701,-176 2701,-176 2701,-170 2707,-164 2713,-164 2713,-164 2838,-164 2838,-164 2844,-164 2850,-170 2850,-176 2850,-176 2850,-190 2850,-190 2850,-196 2844,-202 2838,-202"/>
<text text-anchor="middle" x="2775.5" y="-186.8" font-family="Times,serif" font-size="14.00">comp 1</text>
<text text-anchor="middle" x="2775.5" y="-171.8" font-family="Times,serif" font-size="14.00">log gamma2: &#45;0.333217</text>
</g>
<!-- 3&#45;&gt;14 -->
<g id="edge14" class="edge"><title>3&#45;&gt;14</title>
<path fill="none" stroke="black" d="M2861.79,-282.975C2844.76,-263.451 2817.46,-232.128 2798.13,-209.954"/>
<polygon fill="black" stroke="black" points="2800.61,-207.476 2791.4,-202.238 2795.33,-212.076 2800.61,-207.476"/>
</g>
<!-- 15 -->
<g id="node16" class="node"><title>15</title>
<path fill="#abcece" stroke="black" d="M3040.5,-202C3040.5,-202 2920.5,-202 2920.5,-202 2914.5,-202 2908.5,-196 2908.5,-190 2908.5,-190 2908.5,-176 2908.5,-176 2908.5,-170 2914.5,-164 2920.5,-164 2920.5,-164 3040.5,-164 3040.5,-164 3046.5,-164 3052.5,-170 3052.5,-176 3052.5,-176 3052.5,-190 3052.5,-190 3052.5,-196 3046.5,-202 3040.5,-202"/>
<text text-anchor="middle" x="2980.5" y="-186.8" font-family="Times,serif" font-size="14.00">comp 2</text>
<text text-anchor="middle" x="2980.5" y="-171.8" font-family="Times,serif" font-size="14.00">log gamma1: 1.013975</text>
</g>
<!-- 3&#45;&gt;15 -->
<g id="edge15" class="edge"><title>3&#45;&gt;15</title>
<path fill="none" stroke="black" d="M2893.37,-282.975C2910.56,-263.451 2938.13,-232.128 2957.65,-209.954"/>
<polygon fill="black" stroke="black" points="2960.46,-212.057 2964.44,-202.238 2955.21,-207.431 2960.46,-212.057"/>
</g>
<!-- 16 -->
<g id="node17" class="node"><title>16</title>
<path fill="#97b6b6" stroke="black" d="M3333.5,-202C3333.5,-202 3199.5,-202 3199.5,-202 3193.5,-202 3187.5,-196 3187.5,-190 3187.5,-190 3187.5,-176 3187.5,-176 3187.5,-170 3193.5,-164 3199.5,-164 3199.5,-164 3333.5,-164 3333.5,-164 3339.5,-164 3345.5,-170 3345.5,-176 3345.5,-176 3345.5,-190 3345.5,-190 3345.5,-196 3339.5,-202 3333.5,-202"/>
<text text-anchor="middle" x="3266.5" y="-186.8" font-family="Times,serif" font-size="14.00">path end 2</text>
<text text-anchor="middle" x="3266.5" y="-171.8" font-family="Times,serif" font-size="14.00">k width: &#45;2 &#160;&#160;n kernels: 14</text>
</g>
<!-- 3&#45;&gt;16 -->
<g id="edge16" class="edge"><title>3&#45;&gt;16</title>
<path fill="none" stroke="black" d="M2937.43,-282.975C3007.39,-261.933 3122.91,-227.189 3196.81,-204.961"/>
<polygon fill="black" stroke="black" points="3197.94,-208.277 3206.5,-202.045 3195.92,-201.574 3197.94,-208.277"/>
</g>
<!-- 17 -->
<g id="node18" class="node"><title>17</title>
<path fill="#d3ffff" stroke="black" d="M3795,-202C3795,-202 3670,-202 3670,-202 3664,-202 3658,-196 3658,-190 3658,-190 3658,-176 3658,-176 3658,-170 3664,-164 3670,-164 3670,-164 3795,-164 3795,-164 3801,-164 3807,-170 3807,-176 3807,-176 3807,-190 3807,-190 3807,-196 3801,-202 3795,-202"/>
<text text-anchor="middle" x="3732.5" y="-186.8" font-family="Times,serif" font-size="14.00">comp 0</text>
<text text-anchor="middle" x="3732.5" y="-171.8" font-family="Times,serif" font-size="14.00">log gamma2: &#45;1.486401</text>
</g>
<!-- 4&#45;&gt;17 -->
<g id="edge17" class="edge"><title>4&#45;&gt;17</title>
<path fill="none" stroke="black" d="M3959.21,-282.975C3911.8,-262.277 3834.02,-228.32 3783.03,-206.06"/>
<polygon fill="black" stroke="black" points="3784.4,-202.839 3773.83,-202.045 3781.6,-209.254 3784.4,-202.839"/>
</g>
<!-- 18 -->
<g id="node19" class="node"><title>18</title>
<path fill="#bfe6e6" stroke="black" d="M4109.5,-202C4109.5,-202 3891.5,-202 3891.5,-202 3885.5,-202 3879.5,-196 3879.5,-190 3879.5,-190 3879.5,-176 3879.5,-176 3879.5,-170 3885.5,-164 3891.5,-164 3891.5,-164 4109.5,-164 4109.5,-164 4115.5,-164 4121.5,-170 4121.5,-176 4121.5,-176 4121.5,-190 4121.5,-190 4121.5,-196 4115.5,-202 4109.5,-202"/>
<text text-anchor="middle" x="4000.5" y="-186.8" font-family="Times,serif" font-size="14.00">comp 1</text>
<text text-anchor="middle" x="4000.5" y="-171.8" font-family="Times,serif" font-size="14.00">log gamma2: &#45;0.545955 &#160;&#160;n kernels: &#45;536</text>
</g>
<!-- 4&#45;&gt;18 -->
<g id="edge18" class="edge"><title>4&#45;&gt;18</title>
<path fill="none" stroke="black" d="M4000.5,-282.975C4000.5,-264.136 4000.5,-234.311 4000.5,-212.321"/>
<polygon fill="black" stroke="black" points="4004,-212.238 4000.5,-202.238 3997,-212.238 4004,-212.238"/>
</g>
<!-- 19 -->
<g id="node20" class="node"><title>19</title>
<path fill="#abcece" stroke="black" d="M4276,-202C4276,-202 4151,-202 4151,-202 4145,-202 4139,-196 4139,-190 4139,-190 4139,-176 4139,-176 4139,-170 4145,-164 4151,-164 4151,-164 4276,-164 4276,-164 4282,-164 4288,-170 4288,-176 4288,-176 4288,-190 4288,-190 4288,-196 4282,-202 4276,-202"/>
<text text-anchor="middle" x="4213.5" y="-186.8" font-family="Times,serif" font-size="14.00">comp 2</text>
<text text-anchor="middle" x="4213.5" y="-171.8" font-family="Times,serif" font-size="14.00">log gamma2: &#45;1.767608</text>
</g>
<!-- 4&#45;&gt;19 -->
<g id="edge19" class="edge"><title>4&#45;&gt;19</title>
<path fill="none" stroke="black" d="M4035.45,-282.891C4061.72,-269.168 4098.54,-249.714 4130.5,-232 4144.83,-224.056 4160.41,-215.124 4174.17,-207.139"/>
<polygon fill="black" stroke="black" points="4176.03,-210.105 4182.91,-202.048 4172.5,-204.056 4176.03,-210.105"/>
</g>
<!-- 20 -->
<g id="node21" class="node"><title>20</title>
<path fill="#97b6b6" stroke="black" d="M4464.5,-202C4464.5,-202 4318.5,-202 4318.5,-202 4312.5,-202 4306.5,-196 4306.5,-190 4306.5,-190 4306.5,-176 4306.5,-176 4306.5,-170 4312.5,-164 4318.5,-164 4318.5,-164 4464.5,-164 4464.5,-164 4470.5,-164 4476.5,-170 4476.5,-176 4476.5,-176 4476.5,-190 4476.5,-190 4476.5,-196 4470.5,-202 4464.5,-202"/>
<text text-anchor="middle" x="4391.5" y="-186.8" font-family="Times,serif" font-size="14.00">path end 3</text>
<text text-anchor="middle" x="4391.5" y="-171.8" font-family="Times,serif" font-size="14.00">k width: &#45;2 &#160;&#160;n kernels: &#45;581</text>
</g>
<!-- 4&#45;&gt;20 -->
<g id="edge20" class="edge"><title>4&#45;&gt;20</title>
<path fill="none" stroke="black" d="M4093.15,-285.308C4152.35,-273.848 4230.17,-256.096 4296.5,-232 4315.11,-225.239 4334.79,-215.728 4351.37,-206.954"/>
<polygon fill="black" stroke="black" points="4353.1,-210 4360.25,-202.178 4349.78,-203.837 4353.1,-210"/>
</g>
<!-- 21 -->
<g id="node22" class="node"><title>21</title>
<path fill="#d3ffff" stroke="black" d="M4788,-232C4788,-232 4507,-232 4507,-232 4501,-232 4495,-226 4495,-220 4495,-220 4495,-146 4495,-146 4495,-140 4501,-134 4507,-134 4507,-134 4788,-134 4788,-134 4794,-134 4800,-140 4800,-146 4800,-146 4800,-220 4800,-220 4800,-226 4794,-232 4788,-232"/>
<text text-anchor="middle" x="4647.5" y="-216.8" font-family="Times,serif" font-size="14.00">forward</text>
<text text-anchor="middle" x="4647.5" y="-201.8" font-family="Times,serif" font-size="14.00">CB0/C2</text>
<text text-anchor="middle" x="4647.5" y="-186.8" font-family="Times,serif" font-size="14.00">dilation rate: 1 &#160;&#160;k width: 3</text>
<text text-anchor="middle" x="4647.5" y="-171.8" font-family="Times,serif" font-size="14.00">log gamma1: &#45;11.000000 &#160;&#160;log gamma2: &#45;11.000000</text>
<text text-anchor="middle" x="4647.5" y="-156.8" font-family="Times,serif" font-size="14.00">log lambda1: &#45;11.000000 &#160;&#160;log lambda2: &#45;11.000000</text>
<text text-anchor="middle" x="4647.5" y="-141.8" font-family="Times,serif" font-size="14.00">n kernels: 64</text>
</g>
<!-- 5&#45;&gt;21 -->
<g id="edge21" class="edge"><title>5&#45;&gt;21</title>
<path fill="none" stroke="black" d="M4924.91,-284.485C4889.53,-271.67 4838.47,-253.175 4789.77,-235.536"/>
<polygon fill="black" stroke="black" points="4790.67,-232.137 4780.07,-232.022 4788.28,-238.718 4790.67,-232.137"/>
</g>
<!-- 22 -->
<g id="node23" class="node"><title>22</title>
<path fill="#bfe6e6" stroke="black" d="M5111,-232C5111,-232 4830,-232 4830,-232 4824,-232 4818,-226 4818,-220 4818,-220 4818,-146 4818,-146 4818,-140 4824,-134 4830,-134 4830,-134 5111,-134 5111,-134 5117,-134 5123,-140 5123,-146 5123,-146 5123,-220 5123,-220 5123,-226 5117,-232 5111,-232"/>
<text text-anchor="middle" x="4970.5" y="-216.8" font-family="Times,serif" font-size="14.00">residual 1</text>
<text text-anchor="middle" x="4970.5" y="-201.8" font-family="Times,serif" font-size="14.00">CB1/PE1</text>
<text text-anchor="middle" x="4970.5" y="-186.8" font-family="Times,serif" font-size="14.00">dilation rate: 1 &#160;&#160;k width: 3</text>
<text text-anchor="middle" x="4970.5" y="-171.8" font-family="Times,serif" font-size="14.00">log gamma1: &#45;11.000000 &#160;&#160;log gamma2: &#45;11.000000</text>
<text text-anchor="middle" x="4970.5" y="-156.8" font-family="Times,serif" font-size="14.00">log lambda1: &#45;11.000000 &#160;&#160;log lambda2: &#45;11.000000</text>
<text text-anchor="middle" x="4970.5" y="-141.8" font-family="Times,serif" font-size="14.00">n kernels: 64</text>
</g>
<!-- 5&#45;&gt;22 -->
<g id="edge22" class="edge"><title>5&#45;&gt;22</title>
<path fill="none" stroke="black" d="M4970.5,-283.987C4970.5,-272.809 4970.5,-257.468 4970.5,-242.158"/>
<polygon fill="black" stroke="black" points="4974,-242.146 4970.5,-232.146 4967,-242.146 4974,-242.146"/>
</g>
<!-- 23 -->
<g id="node24" class="node"><title>23</title>
<path fill="#abcece" stroke="black" d="M5434,-232C5434,-232 5153,-232 5153,-232 5147,-232 5141,-226 5141,-220 5141,-220 5141,-146 5141,-146 5141,-140 5147,-134 5153,-134 5153,-134 5434,-134 5434,-134 5440,-134 5446,-140 5446,-146 5446,-146 5446,-220 5446,-220 5446,-226 5440,-232 5434,-232"/>
<text text-anchor="middle" x="5293.5" y="-216.8" font-family="Times,serif" font-size="14.00">residual 2</text>
<text text-anchor="middle" x="5293.5" y="-201.8" font-family="Times,serif" font-size="14.00">CB2/PE2</text>
<text text-anchor="middle" x="5293.5" y="-186.8" font-family="Times,serif" font-size="14.00">dilation rate: 1 &#160;&#160;k width: 3</text>
<text text-anchor="middle" x="5293.5" y="-171.8" font-family="Times,serif" font-size="14.00">log gamma1: &#45;11.000000 &#160;&#160;log gamma2: &#45;11.000000</text>
<text text-anchor="middle" x="5293.5" y="-156.8" font-family="Times,serif" font-size="14.00">log lambda1: &#45;11.000000 &#160;&#160;log lambda2: &#45;11.000000</text>
<text text-anchor="middle" x="5293.5" y="-141.8" font-family="Times,serif" font-size="14.00">n kernels: 64</text>
</g>
<!-- 5&#45;&gt;23 -->
<g id="edge23" class="edge"><title>5&#45;&gt;23</title>
<path fill="none" stroke="black" d="M5016.09,-284.485C5051.47,-271.67 5102.53,-253.175 5151.23,-235.536"/>
<polygon fill="black" stroke="black" points="5152.72,-238.718 5160.93,-232.022 5150.33,-232.137 5152.72,-238.718"/>
</g>
<!-- 24 -->
<g id="node25" class="node"><title>24</title>
<path fill="#97b6b6" stroke="black" d="M5757,-232C5757,-232 5476,-232 5476,-232 5470,-232 5464,-226 5464,-220 5464,-220 5464,-146 5464,-146 5464,-140 5470,-134 5476,-134 5476,-134 5757,-134 5757,-134 5763,-134 5769,-140 5769,-146 5769,-146 5769,-220 5769,-220 5769,-226 5763,-232 5757,-232"/>
<text text-anchor="middle" x="5616.5" y="-216.8" font-family="Times,serif" font-size="14.00">residual 3</text>
<text text-anchor="middle" x="5616.5" y="-201.8" font-family="Times,serif" font-size="14.00">CB3/PE3</text>
<text text-anchor="middle" x="5616.5" y="-186.8" font-family="Times,serif" font-size="14.00">dilation rate: 1 &#160;&#160;k width: 3</text>
<text text-anchor="middle" x="5616.5" y="-171.8" font-family="Times,serif" font-size="14.00">log gamma1: &#45;11.000000 &#160;&#160;log gamma2: &#45;11.000000</text>
<text text-anchor="middle" x="5616.5" y="-156.8" font-family="Times,serif" font-size="14.00">log lambda1: &#45;11.000000 &#160;&#160;log lambda2: &#45;11.000000</text>
<text text-anchor="middle" x="5616.5" y="-141.8" font-family="Times,serif" font-size="14.00">n kernels: 64</text>
</g>
<!-- 5&#45;&gt;24 -->
<g id="edge24" class="edge"><title>5&#45;&gt;24</title>
<path fill="none" stroke="black" d="M5016.27,-296.733C5100.95,-288.35 5287.8,-267.574 5453.71,-232.091"/>
<polygon fill="black" stroke="black" points="5454.56,-235.487 5463.6,-229.953 5453.08,-228.645 5454.56,-235.487"/>
</g>
<!-- 25 -->
<g id="node26" class="node"><title>25</title>
<path fill="#e9d3ff" stroke="black" d="M293,-98C293,-98 12,-98 12,-98 6,-98 0,-92 0,-86 0,-86 0,-12 0,-12 0,-6 6,-0 12,-0 12,-0 293,-0 293,-0 299,-0 305,-6 305,-12 305,-12 305,-86 305,-86 305,-92 299,-98 293,-98"/>
<text text-anchor="middle" x="152.5" y="-82.8" font-family="Times,serif" font-size="14.00">forward</text>
<text text-anchor="middle" x="152.5" y="-67.8" font-family="Times,serif" font-size="14.00">input</text>
<text text-anchor="middle" x="152.5" y="-52.8" font-family="Times,serif" font-size="14.00">dilation rate: 1 &#160;&#160;k width: 3</text>
<text text-anchor="middle" x="152.5" y="-37.8" font-family="Times,serif" font-size="14.00">log gamma1: &#45;11.000000 &#160;&#160;log gamma2: &#45;11.000000</text>
<text text-anchor="middle" x="152.5" y="-22.8" font-family="Times,serif" font-size="14.00">log lambda1: &#45;11.000000 &#160;&#160;log lambda2: &#45;11.000000</text>
<text text-anchor="middle" x="152.5" y="-7.8" font-family="Times,serif" font-size="14.00">n kernels: 64</text>
</g>
<!-- 6&#45;&gt;25 -->
<g id="edge25" class="edge"><title>6&#45;&gt;25</title>
<path fill="none" stroke="black" d="M221.544,-163.923C212.595,-149.157 199.438,-127.447 187.003,-106.93"/>
<polygon fill="black" stroke="black" points="189.909,-104.972 181.732,-98.2336 183.922,-108.6 189.909,-104.972"/>
</g>
<!-- 26 -->
<g id="node27" class="node"><title>26</title>
<path fill="#e9d3ff" stroke="black" d="M616,-98C616,-98 335,-98 335,-98 329,-98 323,-92 323,-86 323,-86 323,-12 323,-12 323,-6 329,-0 335,-0 335,-0 616,-0 616,-0 622,-0 628,-6 628,-12 628,-12 628,-86 628,-86 628,-92 622,-98 616,-98"/>
<text text-anchor="middle" x="475.5" y="-82.8" font-family="Times,serif" font-size="14.00">forward</text>
<text text-anchor="middle" x="475.5" y="-67.8" font-family="Times,serif" font-size="14.00">CB0/C0</text>
<text text-anchor="middle" x="475.5" y="-52.8" font-family="Times,serif" font-size="14.00">dilation rate: 1 &#160;&#160;k width: 3</text>
<text text-anchor="middle" x="475.5" y="-37.8" font-family="Times,serif" font-size="14.00">log gamma1: &#45;11.000000 &#160;&#160;log gamma2: &#45;11.000000</text>
<text text-anchor="middle" x="475.5" y="-22.8" font-family="Times,serif" font-size="14.00">log lambda1: &#45;11.000000 &#160;&#160;log lambda2: &#45;11.000000</text>
<text text-anchor="middle" x="475.5" y="-7.8" font-family="Times,serif" font-size="14.00">n kernels: 64</text>
</g>
<!-- 7&#45;&gt;26 -->
<g id="edge26" class="edge"><title>7&#45;&gt;26</title>
<path fill="none" stroke="black" d="M485.857,-163.923C484.544,-149.486 482.628,-128.413 480.801,-108.306"/>
<polygon fill="black" stroke="black" points="484.276,-107.876 479.885,-98.2336 477.305,-108.509 484.276,-107.876"/>
</g>
<!-- 27 -->
<g id="node28" class="node"><title>27</title>
<path fill="#e9d3ff" stroke="black" d="M939,-98C939,-98 658,-98 658,-98 652,-98 646,-92 646,-86 646,-86 646,-12 646,-12 646,-6 652,-0 658,-0 658,-0 939,-0 939,-0 945,-0 951,-6 951,-12 951,-12 951,-86 951,-86 951,-92 945,-98 939,-98"/>
<text text-anchor="middle" x="798.5" y="-82.8" font-family="Times,serif" font-size="14.00">forward</text>
<text text-anchor="middle" x="798.5" y="-67.8" font-family="Times,serif" font-size="14.00">CB0/C1</text>
<text text-anchor="middle" x="798.5" y="-52.8" font-family="Times,serif" font-size="14.00">dilation rate: 1 &#160;&#160;k width: 3</text>
<text text-anchor="middle" x="798.5" y="-37.8" font-family="Times,serif" font-size="14.00">log gamma1: &#45;11.000000 &#160;&#160;log gamma2: &#45;11.000000</text>
<text text-anchor="middle" x="798.5" y="-22.8" font-family="Times,serif" font-size="14.00">log lambda1: &#45;11.000000 &#160;&#160;log lambda2: &#45;11.000000</text>
<text text-anchor="middle" x="798.5" y="-7.8" font-family="Times,serif" font-size="14.00">n kernels: 64</text>
</g>
<!-- 8&#45;&gt;27 -->
<g id="edge27" class="edge"><title>8&#45;&gt;27</title>
<path fill="none" stroke="black" d="M776.924,-163.923C779.658,-149.486 783.649,-128.413 787.457,-108.306"/>
<polygon fill="black" stroke="black" points="790.943,-108.71 789.365,-98.2336 784.065,-107.408 790.943,-108.71"/>
</g>
<!-- 28 -->
<g id="node29" class="node"><title>28</title>
<path fill="#e9d3ff" stroke="black" d="M1262,-98C1262,-98 981,-98 981,-98 975,-98 969,-92 969,-86 969,-86 969,-12 969,-12 969,-6 975,-0 981,-0 981,-0 1262,-0 1262,-0 1268,-0 1274,-6 1274,-12 1274,-12 1274,-86 1274,-86 1274,-92 1268,-98 1262,-98"/>
<text text-anchor="middle" x="1121.5" y="-82.8" font-family="Times,serif" font-size="14.00">forward</text>
<text text-anchor="middle" x="1121.5" y="-67.8" font-family="Times,serif" font-size="14.00">input</text>
<text text-anchor="middle" x="1121.5" y="-52.8" font-family="Times,serif" font-size="14.00">dilation rate: 1 &#160;&#160;k width: 3</text>
<text text-anchor="middle" x="1121.5" y="-37.8" font-family="Times,serif" font-size="14.00">log gamma1: &#45;11.000000 &#160;&#160;log gamma2: &#45;11.000000</text>
<text text-anchor="middle" x="1121.5" y="-22.8" font-family="Times,serif" font-size="14.00">log lambda1: &#45;11.000000 &#160;&#160;log lambda2: &#45;11.000000</text>
<text text-anchor="middle" x="1121.5" y="-7.8" font-family="Times,serif" font-size="14.00">n kernels: 64</text>
</g>
<!-- 9&#45;&gt;28 -->
<g id="edge28" class="edge"><title>9&#45;&gt;28</title>
<path fill="none" stroke="black" d="M1223.71,-156.236C1209.82,-141.793 1191.92,-123.193 1175,-105.604"/>
<polygon fill="black" stroke="black" points="1177.27,-102.922 1167.82,-98.1423 1172.23,-107.775 1177.27,-102.922"/>
</g>
<!-- 29 -->
<g id="node30" class="node"><title>29</title>
<path fill="#e9d3ff" stroke="black" d="M1585,-98C1585,-98 1304,-98 1304,-98 1298,-98 1292,-92 1292,-86 1292,-86 1292,-12 1292,-12 1292,-6 1298,-0 1304,-0 1304,-0 1585,-0 1585,-0 1591,-0 1597,-6 1597,-12 1597,-12 1597,-86 1597,-86 1597,-92 1591,-98 1585,-98"/>
<text text-anchor="middle" x="1444.5" y="-82.8" font-family="Times,serif" font-size="14.00">forward</text>
<text text-anchor="middle" x="1444.5" y="-67.8" font-family="Times,serif" font-size="14.00">CB1/C0</text>
<text text-anchor="middle" x="1444.5" y="-52.8" font-family="Times,serif" font-size="14.00">dilation rate: 1 &#160;&#160;k width: 3</text>
<text text-anchor="middle" x="1444.5" y="-37.8" font-family="Times,serif" font-size="14.00">log gamma1: &#45;11.000000 &#160;&#160;log gamma2: &#45;11.000000</text>
<text text-anchor="middle" x="1444.5" y="-22.8" font-family="Times,serif" font-size="14.00">log lambda1: &#45;11.000000 &#160;&#160;log lambda2: &#45;11.000000</text>
<text text-anchor="middle" x="1444.5" y="-7.8" font-family="Times,serif" font-size="14.00">n kernels: 64</text>
</g>
<!-- 10&#45;&gt;29 -->
<g id="edge29" class="edge"><title>10&#45;&gt;29</title>
<path fill="none" stroke="black" d="M1552.29,-164.743C1538.14,-149.678 1516.79,-126.956 1496.82,-105.697"/>
<polygon fill="black" stroke="black" points="1499.23,-103.145 1489.83,-98.2533 1494.12,-107.938 1499.23,-103.145"/>
</g>
<!-- 30 -->
<g id="node31" class="node"><title>30</title>
<path fill="#e9d3ff" stroke="black" d="M1908,-98C1908,-98 1627,-98 1627,-98 1621,-98 1615,-92 1615,-86 1615,-86 1615,-12 1615,-12 1615,-6 1621,-0 1627,-0 1627,-0 1908,-0 1908,-0 1914,-0 1920,-6 1920,-12 1920,-12 1920,-86 1920,-86 1920,-92 1914,-98 1908,-98"/>
<text text-anchor="middle" x="1767.5" y="-82.8" font-family="Times,serif" font-size="14.00">forward</text>
<text text-anchor="middle" x="1767.5" y="-67.8" font-family="Times,serif" font-size="14.00">CB1/C1</text>
<text text-anchor="middle" x="1767.5" y="-52.8" font-family="Times,serif" font-size="14.00">dilation rate: 1 &#160;&#160;k width: 3</text>
<text text-anchor="middle" x="1767.5" y="-37.8" font-family="Times,serif" font-size="14.00">log gamma1: &#45;11.000000 &#160;&#160;log gamma2: &#45;11.000000</text>
<text text-anchor="middle" x="1767.5" y="-22.8" font-family="Times,serif" font-size="14.00">log lambda1: &#45;11.000000 &#160;&#160;log lambda2: &#45;11.000000</text>
<text text-anchor="middle" x="1767.5" y="-7.8" font-family="Times,serif" font-size="14.00">n kernels: 64</text>
</g>
<!-- 11&#45;&gt;30 -->
<g id="edge30" class="edge"><title>11&#45;&gt;30</title>
<path fill="none" stroke="black" d="M1767.5,-164.743C1767.5,-150.336 1767.5,-128.926 1767.5,-108.49"/>
<polygon fill="black" stroke="black" points="1771,-108.253 1767.5,-98.2533 1764,-108.253 1771,-108.253"/>
</g>
<!-- 31 -->
<g id="node32" class="node"><title>31</title>
<path fill="#e9d3ff" stroke="black" d="M2231,-98C2231,-98 1950,-98 1950,-98 1944,-98 1938,-92 1938,-86 1938,-86 1938,-12 1938,-12 1938,-6 1944,-0 1950,-0 1950,-0 2231,-0 2231,-0 2237,-0 2243,-6 2243,-12 2243,-12 2243,-86 2243,-86 2243,-92 2237,-98 2231,-98"/>
<text text-anchor="middle" x="2090.5" y="-82.8" font-family="Times,serif" font-size="14.00">forward</text>
<text text-anchor="middle" x="2090.5" y="-67.8" font-family="Times,serif" font-size="14.00">CB1/C2</text>
<text text-anchor="middle" x="2090.5" y="-52.8" font-family="Times,serif" font-size="14.00">dilation rate: 1 &#160;&#160;k width: 3</text>
<text text-anchor="middle" x="2090.5" y="-37.8" font-family="Times,serif" font-size="14.00">log gamma1: &#45;11.000000 &#160;&#160;log gamma2: &#45;11.000000</text>
<text text-anchor="middle" x="2090.5" y="-22.8" font-family="Times,serif" font-size="14.00">log lambda1: &#45;11.000000 &#160;&#160;log lambda2: &#45;11.000000</text>
<text text-anchor="middle" x="2090.5" y="-7.8" font-family="Times,serif" font-size="14.00">n kernels: 64</text>
</g>
<!-- 12&#45;&gt;31 -->
<g id="edge31" class="edge"><title>12&#45;&gt;31</title>
<path fill="none" stroke="black" d="M2005.06,-163.923C2016.23,-149.025 2032.71,-127.059 2048.21,-106.381"/>
<polygon fill="black" stroke="black" points="2051.12,-108.334 2054.32,-98.2336 2045.52,-104.134 2051.12,-108.334"/>
</g>
<!-- 32 -->
<g id="node33" class="node"><title>32</title>
<path fill="#e9d3ff" stroke="black" d="M2554,-98C2554,-98 2273,-98 2273,-98 2267,-98 2261,-92 2261,-86 2261,-86 2261,-12 2261,-12 2261,-6 2267,-0 2273,-0 2273,-0 2554,-0 2554,-0 2560,-0 2566,-6 2566,-12 2566,-12 2566,-86 2566,-86 2566,-92 2560,-98 2554,-98"/>
<text text-anchor="middle" x="2413.5" y="-82.8" font-family="Times,serif" font-size="14.00">forward</text>
<text text-anchor="middle" x="2413.5" y="-67.8" font-family="Times,serif" font-size="14.00">input</text>
<text text-anchor="middle" x="2413.5" y="-52.8" font-family="Times,serif" font-size="14.00">dilation rate: 1 &#160;&#160;k width: 3</text>
<text text-anchor="middle" x="2413.5" y="-37.8" font-family="Times,serif" font-size="14.00">log gamma1: &#45;11.000000 &#160;&#160;log gamma2: &#45;11.000000</text>
<text text-anchor="middle" x="2413.5" y="-22.8" font-family="Times,serif" font-size="14.00">log lambda1: &#45;11.000000 &#160;&#160;log lambda2: &#45;11.000000</text>
<text text-anchor="middle" x="2413.5" y="-7.8" font-family="Times,serif" font-size="14.00">n kernels: 64</text>
</g>
<!-- 13&#45;&gt;32 -->
<g id="edge32" class="edge"><title>13&#45;&gt;32</title>
<path fill="none" stroke="black" d="M2480.82,-163.923C2472.09,-149.157 2459.26,-127.447 2447.14,-106.93"/>
<polygon fill="black" stroke="black" points="2450.1,-105.062 2442,-98.2336 2444.08,-108.623 2450.1,-105.062"/>
</g>
<!-- 33 -->
<g id="node34" class="node"><title>33</title>
<path fill="#e9d3ff" stroke="black" d="M2877,-98C2877,-98 2596,-98 2596,-98 2590,-98 2584,-92 2584,-86 2584,-86 2584,-12 2584,-12 2584,-6 2590,-0 2596,-0 2596,-0 2877,-0 2877,-0 2883,-0 2889,-6 2889,-12 2889,-12 2889,-86 2889,-86 2889,-92 2883,-98 2877,-98"/>
<text text-anchor="middle" x="2736.5" y="-82.8" font-family="Times,serif" font-size="14.00">forward</text>
<text text-anchor="middle" x="2736.5" y="-67.8" font-family="Times,serif" font-size="14.00">CB2/C0</text>
<text text-anchor="middle" x="2736.5" y="-52.8" font-family="Times,serif" font-size="14.00">dilation rate: 1 &#160;&#160;k width: 3</text>
<text text-anchor="middle" x="2736.5" y="-37.8" font-family="Times,serif" font-size="14.00">log gamma1: &#45;11.000000 &#160;&#160;log gamma2: &#45;11.000000</text>
<text text-anchor="middle" x="2736.5" y="-22.8" font-family="Times,serif" font-size="14.00">log lambda1: &#45;11.000000 &#160;&#160;log lambda2: &#45;11.000000</text>
<text text-anchor="middle" x="2736.5" y="-7.8" font-family="Times,serif" font-size="14.00">n kernels: 64</text>
</g>
<!-- 14&#45;&gt;33 -->
<g id="edge33" class="edge"><title>14&#45;&gt;33</title>
<path fill="none" stroke="black" d="M2770.16,-163.923C2765.87,-149.42 2759.61,-128.221 2753.65,-108.03"/>
<polygon fill="black" stroke="black" points="2756.94,-106.832 2750.75,-98.2336 2750.23,-108.816 2756.94,-106.832"/>
</g>
<!-- 34 -->
<g id="node35" class="node"><title>34</title>
<path fill="#e9d3ff" stroke="black" d="M3200,-98C3200,-98 2919,-98 2919,-98 2913,-98 2907,-92 2907,-86 2907,-86 2907,-12 2907,-12 2907,-6 2913,-0 2919,-0 2919,-0 3200,-0 3200,-0 3206,-0 3212,-6 3212,-12 3212,-12 3212,-86 3212,-86 3212,-92 3206,-98 3200,-98"/>
<text text-anchor="middle" x="3059.5" y="-82.8" font-family="Times,serif" font-size="14.00">forward</text>
<text text-anchor="middle" x="3059.5" y="-67.8" font-family="Times,serif" font-size="14.00">CB2/C1</text>
<text text-anchor="middle" x="3059.5" y="-52.8" font-family="Times,serif" font-size="14.00">dilation rate: 1 &#160;&#160;k width: 3</text>
<text text-anchor="middle" x="3059.5" y="-37.8" font-family="Times,serif" font-size="14.00">log gamma1: &#45;11.000000 &#160;&#160;log gamma2: &#45;11.000000</text>
<text text-anchor="middle" x="3059.5" y="-22.8" font-family="Times,serif" font-size="14.00">log lambda1: &#45;11.000000 &#160;&#160;log lambda2: &#45;11.000000</text>
<text text-anchor="middle" x="3059.5" y="-7.8" font-family="Times,serif" font-size="14.00">n kernels: 64</text>
</g>
<!-- 15&#45;&gt;34 -->
<g id="edge34" class="edge"><title>15&#45;&gt;34</title>
<path fill="none" stroke="black" d="M2991.32,-163.923C3000.16,-149.157 3013.15,-127.447 3025.43,-106.93"/>
<polygon fill="black" stroke="black" points="3028.5,-108.612 3030.63,-98.2336 3022.49,-105.017 3028.5,-108.612"/>
</g>
<!-- 35 -->
<g id="node36" class="node"><title>35</title>
<path fill="#e9d3ff" stroke="black" d="M3523,-98C3523,-98 3242,-98 3242,-98 3236,-98 3230,-92 3230,-86 3230,-86 3230,-12 3230,-12 3230,-6 3236,-0 3242,-0 3242,-0 3523,-0 3523,-0 3529,-0 3535,-6 3535,-12 3535,-12 3535,-86 3535,-86 3535,-92 3529,-98 3523,-98"/>
<text text-anchor="middle" x="3382.5" y="-82.8" font-family="Times,serif" font-size="14.00">forward</text>
<text text-anchor="middle" x="3382.5" y="-67.8" font-family="Times,serif" font-size="14.00">CB2/C2</text>
<text text-anchor="middle" x="3382.5" y="-52.8" font-family="Times,serif" font-size="14.00">dilation rate: 1 &#160;&#160;k width: 3</text>
<text text-anchor="middle" x="3382.5" y="-37.8" font-family="Times,serif" font-size="14.00">log gamma1: &#45;11.000000 &#160;&#160;log gamma2: &#45;11.000000</text>
<text text-anchor="middle" x="3382.5" y="-22.8" font-family="Times,serif" font-size="14.00">log lambda1: &#45;11.000000 &#160;&#160;log lambda2: &#45;11.000000</text>
<text text-anchor="middle" x="3382.5" y="-7.8" font-family="Times,serif" font-size="14.00">n kernels: 64</text>
</g>
<!-- 16&#45;&gt;35 -->
<g id="edge35" class="edge"><title>16&#45;&gt;35</title>
<path fill="none" stroke="black" d="M3282.39,-163.923C3295.59,-148.893 3315.12,-126.67 3333.44,-105.832"/>
<polygon fill="black" stroke="black" points="3336.14,-108.056 3340.11,-98.2336 3330.88,-103.435 3336.14,-108.056"/>
</g>
<!-- 36 -->
<g id="node37" class="node"><title>36</title>
<path fill="#e9d3ff" stroke="black" d="M3846,-98C3846,-98 3565,-98 3565,-98 3559,-98 3553,-92 3553,-86 3553,-86 3553,-12 3553,-12 3553,-6 3559,-0 3565,-0 3565,-0 3846,-0 3846,-0 3852,-0 3858,-6 3858,-12 3858,-12 3858,-86 3858,-86 3858,-92 3852,-98 3846,-98"/>
<text text-anchor="middle" x="3705.5" y="-82.8" font-family="Times,serif" font-size="14.00">forward</text>
<text text-anchor="middle" x="3705.5" y="-67.8" font-family="Times,serif" font-size="14.00">input</text>
<text text-anchor="middle" x="3705.5" y="-52.8" font-family="Times,serif" font-size="14.00">dilation rate: 1 &#160;&#160;k width: 3</text>
<text text-anchor="middle" x="3705.5" y="-37.8" font-family="Times,serif" font-size="14.00">log gamma1: &#45;11.000000 &#160;&#160;log gamma2: &#45;11.000000</text>
<text text-anchor="middle" x="3705.5" y="-22.8" font-family="Times,serif" font-size="14.00">log lambda1: &#45;11.000000 &#160;&#160;log lambda2: &#45;11.000000</text>
<text text-anchor="middle" x="3705.5" y="-7.8" font-family="Times,serif" font-size="14.00">n kernels: 64</text>
</g>
<!-- 17&#45;&gt;36 -->
<g id="edge36" class="edge"><title>17&#45;&gt;36</title>
<path fill="none" stroke="black" d="M3728.8,-163.923C3725.85,-149.486 3721.54,-128.413 3717.43,-108.306"/>
<polygon fill="black" stroke="black" points="3720.8,-107.329 3715.37,-98.2336 3713.94,-108.732 3720.8,-107.329"/>
</g>
<!-- 37 -->
<g id="node38" class="node"><title>37</title>
<path fill="#e9d3ff" stroke="black" d="M4169,-98C4169,-98 3888,-98 3888,-98 3882,-98 3876,-92 3876,-86 3876,-86 3876,-12 3876,-12 3876,-6 3882,-0 3888,-0 3888,-0 4169,-0 4169,-0 4175,-0 4181,-6 4181,-12 4181,-12 4181,-86 4181,-86 4181,-92 4175,-98 4169,-98"/>
<text text-anchor="middle" x="4028.5" y="-82.8" font-family="Times,serif" font-size="14.00">forward</text>
<text text-anchor="middle" x="4028.5" y="-67.8" font-family="Times,serif" font-size="14.00">CB3/C0</text>
<text text-anchor="middle" x="4028.5" y="-52.8" font-family="Times,serif" font-size="14.00">dilation rate: 1 &#160;&#160;k width: 3</text>
<text text-anchor="middle" x="4028.5" y="-37.8" font-family="Times,serif" font-size="14.00">log gamma1: &#45;11.000000 &#160;&#160;log gamma2: &#45;11.000000</text>
<text text-anchor="middle" x="4028.5" y="-22.8" font-family="Times,serif" font-size="14.00">log lambda1: &#45;11.000000 &#160;&#160;log lambda2: &#45;11.000000</text>
<text text-anchor="middle" x="4028.5" y="-7.8" font-family="Times,serif" font-size="14.00">n kernels: 64</text>
</g>
<!-- 18&#45;&gt;37 -->
<g id="edge37" class="edge"><title>18&#45;&gt;37</title>
<path fill="none" stroke="black" d="M4004.33,-163.923C4007.41,-149.42 4011.91,-128.221 4016.19,-108.03"/>
<polygon fill="black" stroke="black" points="4019.62,-108.742 4018.27,-98.2336 4012.77,-107.29 4019.62,-108.742"/>
</g>
<!-- 38 -->
<g id="node39" class="node"><title>38</title>
<path fill="#e9d3ff" stroke="black" d="M4492,-98C4492,-98 4211,-98 4211,-98 4205,-98 4199,-92 4199,-86 4199,-86 4199,-12 4199,-12 4199,-6 4205,-0 4211,-0 4211,-0 4492,-0 4492,-0 4498,-0 4504,-6 4504,-12 4504,-12 4504,-86 4504,-86 4504,-92 4498,-98 4492,-98"/>
<text text-anchor="middle" x="4351.5" y="-82.8" font-family="Times,serif" font-size="14.00">forward</text>
<text text-anchor="middle" x="4351.5" y="-67.8" font-family="Times,serif" font-size="14.00">CB3/C1</text>
<text text-anchor="middle" x="4351.5" y="-52.8" font-family="Times,serif" font-size="14.00">dilation rate: 1 &#160;&#160;k width: 3</text>
<text text-anchor="middle" x="4351.5" y="-37.8" font-family="Times,serif" font-size="14.00">log gamma1: &#45;11.000000 &#160;&#160;log gamma2: &#45;11.000000</text>
<text text-anchor="middle" x="4351.5" y="-22.8" font-family="Times,serif" font-size="14.00">log lambda1: &#45;11.000000 &#160;&#160;log lambda2: &#45;11.000000</text>
<text text-anchor="middle" x="4351.5" y="-7.8" font-family="Times,serif" font-size="14.00">n kernels: 64</text>
</g>
<!-- 19&#45;&gt;38 -->
<g id="edge38" class="edge"><title>19&#45;&gt;38</title>
<path fill="none" stroke="black" d="M4232.4,-163.923C4248.25,-148.761 4271.75,-126.279 4293.7,-105.284"/>
<polygon fill="black" stroke="black" points="4296.27,-107.675 4301.07,-98.2336 4291.43,-102.617 4296.27,-107.675"/>
</g>
<!-- 39 -->
<g id="node40" class="node"><title>39</title>
<path fill="#e9d3ff" stroke="black" d="M4815,-98C4815,-98 4534,-98 4534,-98 4528,-98 4522,-92 4522,-86 4522,-86 4522,-12 4522,-12 4522,-6 4528,-0 4534,-0 4534,-0 4815,-0 4815,-0 4821,-0 4827,-6 4827,-12 4827,-12 4827,-86 4827,-86 4827,-92 4821,-98 4815,-98"/>
<text text-anchor="middle" x="4674.5" y="-82.8" font-family="Times,serif" font-size="14.00">forward</text>
<text text-anchor="middle" x="4674.5" y="-67.8" font-family="Times,serif" font-size="14.00">CB3/C2</text>
<text text-anchor="middle" x="4674.5" y="-52.8" font-family="Times,serif" font-size="14.00">dilation rate: 1 &#160;&#160;k width: 3</text>
<text text-anchor="middle" x="4674.5" y="-37.8" font-family="Times,serif" font-size="14.00">log gamma1: &#45;11.000000 &#160;&#160;log gamma2: &#45;11.000000</text>
<text text-anchor="middle" x="4674.5" y="-22.8" font-family="Times,serif" font-size="14.00">log lambda1: &#45;11.000000 &#160;&#160;log lambda2: &#45;11.000000</text>
<text text-anchor="middle" x="4674.5" y="-7.8" font-family="Times,serif" font-size="14.00">n kernels: 64</text>
</g>
<!-- 20&#45;&gt;39 -->
<g id="edge39" class="edge"><title>20&#45;&gt;39</title>
<path fill="none" stroke="black" d="M4425.66,-163.999C4443.39,-154.793 4465.49,-143.548 4485.5,-134 4507.57,-123.468 4531.28,-112.594 4554.19,-102.305"/>
<polygon fill="black" stroke="black" points="4555.91,-105.369 4563.61,-98.0879 4553.05,-98.9804 4555.91,-105.369"/>
</g>
</g>
</svg>
