<?xml version="1.0" encoding="UTF-8" standalone="no"?>
<!DOCTYPE svg PUBLIC "-//W3C//DTD SVG 1.1//EN"
 "http://www.w3.org/Graphics/SVG/1.1/DTD/svg11.dtd">
<!-- Generated by graphviz version 2.38.0 (20140413.2041)
 -->
<!-- Title: %3 Pages: 1 -->
<svg width="2554pt" height="433pt"
 viewBox="0.00 0.00 2554.00 433.00" xmlns="http://www.w3.org/2000/svg" xmlns:xlink="http://www.w3.org/1999/xlink">
<g id="graph0" class="graph" transform="scale(1 1) rotate(0) translate(4 429)">
<title>%3</title>
<polygon fill="none" stroke="none" points="-4,4 -4,-429 2550,-429 2550,4 -4,4"/>
<!-- 0 -->
<g id="node1" class="node"><title>0</title>
<path fill="#ffd3d3" stroke="black" d="M1207,-425C1207,-425 1016,-425 1016,-425 1010,-425 1004,-419 1004,-413 1004,-413 1004,-384 1004,-384 1004,-378 1010,-372 1016,-372 1016,-372 1207,-372 1207,-372 1213,-372 1219,-378 1219,-384 1219,-384 1219,-413 1219,-413 1219,-419 1213,-425 1207,-425"/>
<text text-anchor="middle" x="1111.5" y="-409.8" font-family="Times,serif" font-size="14.00">net</text>
<text text-anchor="middle" x="1111.5" y="-394.8" font-family="Times,serif" font-size="14.00">k width: 3 &#160;&#160;log gamma2: &#45;7.393684</text>
<text text-anchor="middle" x="1111.5" y="-379.8" font-family="Times,serif" font-size="14.00">n kernels: 22</text>
</g>
<!-- 1 -->
<g id="node2" class="node"><title>1</title>
<path fill="#e9ffd3" stroke="black" d="M564,-320C564,-320 501,-320 501,-320 495,-320 489,-314 489,-308 489,-308 489,-296 489,-296 489,-290 495,-284 501,-284 501,-284 564,-284 564,-284 570,-284 576,-290 576,-296 576,-296 576,-308 576,-308 576,-314 570,-320 564,-320"/>
<text text-anchor="middle" x="532.5" y="-298.3" font-family="Times,serif" font-size="14.00">conv block 0</text>
</g>
<!-- 0&#45;&gt;1 -->
<g id="edge1" class="edge"><title>0&#45;&gt;1</title>
<path fill="none" stroke="black" d="M1003.95,-379.947C879.945,-359.707 681.034,-327.243 586.181,-311.761"/>
<polygon fill="black" stroke="black" points="586.669,-308.295 576.236,-310.138 585.542,-315.203 586.669,-308.295"/>
</g>
<!-- 2 -->
<g id="node3" class="node"><title>2</title>
<path fill="#e9ffd3" stroke="black" d="M1089,-336C1089,-336 826,-336 826,-336 820,-336 814,-330 814,-324 814,-324 814,-280 814,-280 814,-274 820,-268 826,-268 826,-268 1089,-268 1089,-268 1095,-268 1101,-274 1101,-280 1101,-280 1101,-324 1101,-324 1101,-330 1095,-336 1089,-336"/>
<text text-anchor="middle" x="957.5" y="-320.8" font-family="Times,serif" font-size="14.00">conv block 1</text>
<text text-anchor="middle" x="957.5" y="-305.8" font-family="Times,serif" font-size="14.00">log gamma1: &#45;1.781478 &#160;&#160;log gamma2: 1.942635</text>
<text text-anchor="middle" x="957.5" y="-290.8" font-family="Times,serif" font-size="14.00">n kernels: 9 &#160;&#160;pool z: 1</text>
<text text-anchor="middle" x="957.5" y="-275.8" font-family="Times,serif" font-size="14.00">spatial scale: 1</text>
</g>
<!-- 0&#45;&gt;2 -->
<g id="edge2" class="edge"><title>0&#45;&gt;2</title>
<path fill="none" stroke="black" d="M1069.83,-371.927C1054.5,-362.524 1036.8,-351.66 1020.04,-341.376"/>
<polygon fill="black" stroke="black" points="1021.73,-338.31 1011.38,-336.063 1018.07,-344.276 1021.73,-338.31"/>
</g>
<!-- 3 -->
<g id="node4" class="node"><title>3</title>
<path fill="#e9ffd3" stroke="black" d="M1453.5,-328.5C1453.5,-328.5 1251.5,-328.5 1251.5,-328.5 1245.5,-328.5 1239.5,-322.5 1239.5,-316.5 1239.5,-316.5 1239.5,-287.5 1239.5,-287.5 1239.5,-281.5 1245.5,-275.5 1251.5,-275.5 1251.5,-275.5 1453.5,-275.5 1453.5,-275.5 1459.5,-275.5 1465.5,-281.5 1465.5,-287.5 1465.5,-287.5 1465.5,-316.5 1465.5,-316.5 1465.5,-322.5 1459.5,-328.5 1453.5,-328.5"/>
<text text-anchor="middle" x="1352.5" y="-313.3" font-family="Times,serif" font-size="14.00">conv block 2</text>
<text text-anchor="middle" x="1352.5" y="-298.3" font-family="Times,serif" font-size="14.00">log gamma1: 0.515246 &#160;&#160;n kernels: 66</text>
<text text-anchor="middle" x="1352.5" y="-283.3" font-family="Times,serif" font-size="14.00">spatial scale: 2</text>
</g>
<!-- 0&#45;&gt;3 -->
<g id="edge3" class="edge"><title>0&#45;&gt;3</title>
<path fill="none" stroke="black" d="M1176.72,-371.927C1207.93,-359.688 1245.46,-344.973 1277.81,-332.287"/>
<polygon fill="black" stroke="black" points="1279.2,-335.503 1287.23,-328.594 1276.64,-328.986 1279.2,-335.503"/>
</g>
<!-- 4 -->
<g id="node5" class="node"><title>4</title>
<path fill="#e9ffd3" stroke="black" d="M1942,-320C1942,-320 1875,-320 1875,-320 1869,-320 1863,-314 1863,-308 1863,-308 1863,-296 1863,-296 1863,-290 1869,-284 1875,-284 1875,-284 1942,-284 1942,-284 1948,-284 1954,-290 1954,-296 1954,-296 1954,-308 1954,-308 1954,-314 1948,-320 1942,-320"/>
<text text-anchor="middle" x="1908.5" y="-298.3" font-family="Times,serif" font-size="14.00">path combine</text>
</g>
<!-- 0&#45;&gt;4 -->
<g id="edge4" class="edge"><title>0&#45;&gt;4</title>
<path fill="none" stroke="black" d="M1219.4,-384.706C1391.23,-364.333 1721.02,-325.229 1852.44,-309.647"/>
<polygon fill="black" stroke="black" points="1853.16,-313.087 1862.67,-308.434 1852.33,-306.135 1853.16,-313.087"/>
</g>
<!-- 5 -->
<g id="node6" class="node"><title>5</title>
<path fill="#d3ffff" stroke="black" d="M410,-209.5C410,-209.5 147,-209.5 147,-209.5 141,-209.5 135,-203.5 135,-197.5 135,-197.5 135,-168.5 135,-168.5 135,-162.5 141,-156.5 147,-156.5 147,-156.5 410,-156.5 410,-156.5 416,-156.5 422,-162.5 422,-168.5 422,-168.5 422,-197.5 422,-197.5 422,-203.5 416,-209.5 410,-209.5"/>
<text text-anchor="middle" x="278.5" y="-194.3" font-family="Times,serif" font-size="14.00">comp 0</text>
<text text-anchor="middle" x="278.5" y="-179.3" font-family="Times,serif" font-size="14.00">log gamma1: 0.191961 &#160;&#160;log gamma2: &#45;0.620066</text>
<text text-anchor="middle" x="278.5" y="-164.3" font-family="Times,serif" font-size="14.00">n kernels: &#45;5</text>
</g>
<!-- 1&#45;&gt;5 -->
<g id="edge5" class="edge"><title>1&#45;&gt;5</title>
<path fill="none" stroke="black" d="M495.566,-283.987C455.754,-265.649 391.614,-236.104 343.358,-213.875"/>
<polygon fill="black" stroke="black" points="344.784,-210.679 334.236,-209.674 341.855,-217.037 344.784,-210.679"/>
</g>
<!-- 6 -->
<g id="node7" class="node"><title>6</title>
<path fill="#d3ffff" stroke="black" d="M613.5,-201C613.5,-201 579.5,-201 579.5,-201 573.5,-201 567.5,-195 567.5,-189 567.5,-189 567.5,-177 567.5,-177 567.5,-171 573.5,-165 579.5,-165 579.5,-165 613.5,-165 613.5,-165 619.5,-165 625.5,-171 625.5,-177 625.5,-177 625.5,-189 625.5,-189 625.5,-195 619.5,-201 613.5,-201"/>
<text text-anchor="middle" x="596.5" y="-179.3" font-family="Times,serif" font-size="14.00">comp 0</text>
</g>
<!-- 2&#45;&gt;6 -->
<g id="edge6" class="edge"><title>2&#45;&gt;6</title>
<path fill="none" stroke="black" d="M855.499,-267.942C782.242,-244.199 687.559,-213.512 635.356,-196.593"/>
<polygon fill="black" stroke="black" points="636.401,-193.253 625.809,-193.499 634.243,-199.912 636.401,-193.253"/>
</g>
<!-- 7 -->
<g id="node8" class="node"><title>7</title>
<path fill="#bfe6e6" stroke="black" d="M897.5,-202C897.5,-202 777.5,-202 777.5,-202 771.5,-202 765.5,-196 765.5,-190 765.5,-190 765.5,-176 765.5,-176 765.5,-170 771.5,-164 777.5,-164 777.5,-164 897.5,-164 897.5,-164 903.5,-164 909.5,-170 909.5,-176 909.5,-176 909.5,-190 909.5,-190 909.5,-196 903.5,-202 897.5,-202"/>
<text text-anchor="middle" x="837.5" y="-186.8" font-family="Times,serif" font-size="14.00">comp 1</text>
<text text-anchor="middle" x="837.5" y="-171.8" font-family="Times,serif" font-size="14.00">log gamma1: 0.300390</text>
</g>
<!-- 2&#45;&gt;7 -->
<g id="edge7" class="edge"><title>2&#45;&gt;7</title>
<path fill="none" stroke="black" d="M923.434,-267.785C904.446,-249.272 881.167,-226.575 863.629,-209.476"/>
<polygon fill="black" stroke="black" points="865.615,-206.524 856.012,-202.049 860.728,-211.536 865.615,-206.524"/>
</g>
<!-- 8 -->
<g id="node9" class="node"><title>8</title>
<path fill="#abcece" stroke="black" d="M1148.5,-202C1148.5,-202 1016.5,-202 1016.5,-202 1010.5,-202 1004.5,-196 1004.5,-190 1004.5,-190 1004.5,-176 1004.5,-176 1004.5,-170 1010.5,-164 1016.5,-164 1016.5,-164 1148.5,-164 1148.5,-164 1154.5,-164 1160.5,-170 1160.5,-176 1160.5,-176 1160.5,-190 1160.5,-190 1160.5,-196 1154.5,-202 1148.5,-202"/>
<text text-anchor="middle" x="1082.5" y="-186.8" font-family="Times,serif" font-size="14.00">path end 1</text>
<text text-anchor="middle" x="1082.5" y="-171.8" font-family="Times,serif" font-size="14.00">k width: &#45;2 &#160;&#160;n kernels: &#45;9</text>
</g>
<!-- 2&#45;&gt;8 -->
<g id="edge8" class="edge"><title>2&#45;&gt;8</title>
<path fill="none" stroke="black" d="M992.986,-267.785C1012.94,-249.105 1037.45,-226.166 1055.77,-209.015"/>
<polygon fill="black" stroke="black" points="1058.31,-211.438 1063.22,-202.049 1053.52,-206.327 1058.31,-211.438"/>
</g>
<!-- 9 -->
<g id="node10" class="node"><title>9</title>
<path fill="#d3ffff" stroke="black" d="M1384,-202C1384,-202 1321,-202 1321,-202 1315,-202 1309,-196 1309,-190 1309,-190 1309,-176 1309,-176 1309,-170 1315,-164 1321,-164 1321,-164 1384,-164 1384,-164 1390,-164 1396,-170 1396,-176 1396,-176 1396,-190 1396,-190 1396,-196 1390,-202 1384,-202"/>
<text text-anchor="middle" x="1352.5" y="-186.8" font-family="Times,serif" font-size="14.00">comp 0</text>
<text text-anchor="middle" x="1352.5" y="-171.8" font-family="Times,serif" font-size="14.00">n kernels: 17</text>
</g>
<!-- 3&#45;&gt;9 -->
<g id="edge9" class="edge"><title>3&#45;&gt;9</title>
<path fill="none" stroke="black" d="M1352.5,-275.324C1352.5,-256.794 1352.5,-231.767 1352.5,-212.599"/>
<polygon fill="black" stroke="black" points="1356,-212.358 1352.5,-202.358 1349,-212.358 1356,-212.358"/>
</g>
<!-- 10 -->
<g id="node11" class="node"><title>10</title>
<path fill="#bfe6e6" stroke="black" d="M1565,-202C1565,-202 1426,-202 1426,-202 1420,-202 1414,-196 1414,-190 1414,-190 1414,-176 1414,-176 1414,-170 1420,-164 1426,-164 1426,-164 1565,-164 1565,-164 1571,-164 1577,-170 1577,-176 1577,-176 1577,-190 1577,-190 1577,-196 1571,-202 1565,-202"/>
<text text-anchor="middle" x="1495.5" y="-186.8" font-family="Times,serif" font-size="14.00">path end 2</text>
<text text-anchor="middle" x="1495.5" y="-171.8" font-family="Times,serif" font-size="14.00">k width: &#45;2 &#160;&#160;n kernels: &#45;66</text>
</g>
<!-- 3&#45;&gt;10 -->
<g id="edge10" class="edge"><title>3&#45;&gt;10</title>
<path fill="none" stroke="black" d="M1383.88,-275.324C1408,-255.587 1441.13,-228.481 1465.03,-208.932"/>
<polygon fill="black" stroke="black" points="1467.54,-211.399 1473.06,-202.358 1463.11,-205.981 1467.54,-211.399"/>
</g>
<!-- 11 -->
<g id="node12" class="node"><title>11</title>
<path fill="#d3ffff" stroke="black" d="M1888,-232C1888,-232 1607,-232 1607,-232 1601,-232 1595,-226 1595,-220 1595,-220 1595,-146 1595,-146 1595,-140 1601,-134 1607,-134 1607,-134 1888,-134 1888,-134 1894,-134 1900,-140 1900,-146 1900,-146 1900,-220 1900,-220 1900,-226 1894,-232 1888,-232"/>
<text text-anchor="middle" x="1747.5" y="-216.8" font-family="Times,serif" font-size="14.00">forward</text>
<text text-anchor="middle" x="1747.5" y="-201.8" font-family="Times,serif" font-size="14.00">CB0/C0</text>
<text text-anchor="middle" x="1747.5" y="-186.8" font-family="Times,serif" font-size="14.00">dilation rate: 1 &#160;&#160;k width: 3</text>
<text text-anchor="middle" x="1747.5" y="-171.8" font-family="Times,serif" font-size="14.00">log gamma1: &#45;11.000000 &#160;&#160;log gamma2: &#45;11.000000</text>
<text text-anchor="middle" x="1747.5" y="-156.8" font-family="Times,serif" font-size="14.00">log lambda1: &#45;11.000000 &#160;&#160;log lambda2: &#45;11.000000</text>
<text text-anchor="middle" x="1747.5" y="-141.8" font-family="Times,serif" font-size="14.00">n kernels: 64</text>
</g>
<!-- 4&#45;&gt;11 -->
<g id="edge11" class="edge"><title>4&#45;&gt;11</title>
<path fill="none" stroke="black" d="M1885.09,-283.987C1868.39,-271.851 1844.94,-254.808 1822.12,-238.224"/>
<polygon fill="black" stroke="black" points="1823.9,-235.193 1813.75,-232.146 1819.78,-240.856 1823.9,-235.193"/>
</g>
<!-- 12 -->
<g id="node13" class="node"><title>12</title>
<path fill="#bfe6e6" stroke="black" d="M2211,-232C2211,-232 1930,-232 1930,-232 1924,-232 1918,-226 1918,-220 1918,-220 1918,-146 1918,-146 1918,-140 1924,-134 1930,-134 1930,-134 2211,-134 2211,-134 2217,-134 2223,-140 2223,-146 2223,-146 2223,-220 2223,-220 2223,-226 2217,-232 2211,-232"/>
<text text-anchor="middle" x="2070.5" y="-216.8" font-family="Times,serif" font-size="14.00">residual 1</text>
<text text-anchor="middle" x="2070.5" y="-201.8" font-family="Times,serif" font-size="14.00">CB1/PE1</text>
<text text-anchor="middle" x="2070.5" y="-186.8" font-family="Times,serif" font-size="14.00">dilation rate: 1 &#160;&#160;k width: 3</text>
<text text-anchor="middle" x="2070.5" y="-171.8" font-family="Times,serif" font-size="14.00">log gamma1: &#45;11.000000 &#160;&#160;log gamma2: &#45;11.000000</text>
<text text-anchor="middle" x="2070.5" y="-156.8" font-family="Times,serif" font-size="14.00">log lambda1: &#45;11.000000 &#160;&#160;log lambda2: &#45;11.000000</text>
<text text-anchor="middle" x="2070.5" y="-141.8" font-family="Times,serif" font-size="14.00">n kernels: 64</text>
</g>
<!-- 4&#45;&gt;12 -->
<g id="edge12" class="edge"><title>4&#45;&gt;12</title>
<path fill="none" stroke="black" d="M1932.06,-283.987C1948.93,-271.798 1972.67,-254.658 1995.72,-238.006"/>
<polygon fill="black" stroke="black" points="1997.78,-240.838 2003.84,-232.146 1993.68,-235.163 1997.78,-240.838"/>
</g>
<!-- 13 -->
<g id="node14" class="node"><title>13</title>
<path fill="#abcece" stroke="black" d="M2534,-232C2534,-232 2253,-232 2253,-232 2247,-232 2241,-226 2241,-220 2241,-220 2241,-146 2241,-146 2241,-140 2247,-134 2253,-134 2253,-134 2534,-134 2534,-134 2540,-134 2546,-140 2546,-146 2546,-146 2546,-220 2546,-220 2546,-226 2540,-232 2534,-232"/>
<text text-anchor="middle" x="2393.5" y="-216.8" font-family="Times,serif" font-size="14.00">residual 2</text>
<text text-anchor="middle" x="2393.5" y="-201.8" font-family="Times,serif" font-size="14.00">CB2/PE2</text>
<text text-anchor="middle" x="2393.5" y="-186.8" font-family="Times,serif" font-size="14.00">dilation rate: 1 &#160;&#160;k width: 3</text>
<text text-anchor="middle" x="2393.5" y="-171.8" font-family="Times,serif" font-size="14.00">log gamma1: &#45;11.000000 &#160;&#160;log gamma2: &#45;11.000000</text>
<text text-anchor="middle" x="2393.5" y="-156.8" font-family="Times,serif" font-size="14.00">log lambda1: &#45;11.000000 &#160;&#160;log lambda2: &#45;11.000000</text>
<text text-anchor="middle" x="2393.5" y="-141.8" font-family="Times,serif" font-size="14.00">n kernels: 64</text>
</g>
<!-- 4&#45;&gt;13 -->
<g id="edge13" class="edge"><title>4&#45;&gt;13</title>
<path fill="none" stroke="black" d="M1954.11,-292.481C2015.16,-280.814 2126.97,-258.53 2230.91,-232.363"/>
<polygon fill="black" stroke="black" points="2231.78,-235.752 2240.62,-229.901 2230.06,-228.967 2231.78,-235.752"/>
</g>
<!-- 14 -->
<g id="node15" class="node"><title>14</title>
<path fill="#e9d3ff" stroke="black" d="M293,-98C293,-98 12,-98 12,-98 6,-98 0,-92 0,-86 0,-86 0,-12 0,-12 0,-6 6,-0 12,-0 12,-0 293,-0 293,-0 299,-0 305,-6 305,-12 305,-12 305,-86 305,-86 305,-92 299,-98 293,-98"/>
<text text-anchor="middle" x="152.5" y="-82.8" font-family="Times,serif" font-size="14.00">forward</text>
<text text-anchor="middle" x="152.5" y="-67.8" font-family="Times,serif" font-size="14.00">input</text>
<text text-anchor="middle" x="152.5" y="-52.8" font-family="Times,serif" font-size="14.00">dilation rate: 1 &#160;&#160;k width: 3</text>
<text text-anchor="middle" x="152.5" y="-37.8" font-family="Times,serif" font-size="14.00">log gamma1: &#45;11.000000 &#160;&#160;log gamma2: &#45;11.000000</text>
<text text-anchor="middle" x="152.5" y="-22.8" font-family="Times,serif" font-size="14.00">log lambda1: &#45;11.000000 &#160;&#160;log lambda2: &#45;11.000000</text>
<text text-anchor="middle" x="152.5" y="-7.8" font-family="Times,serif" font-size="14.00">n kernels: 64</text>
</g>
<!-- 5&#45;&gt;14 -->
<g id="edge14" class="edge"><title>5&#45;&gt;14</title>
<path fill="none" stroke="black" d="M253.907,-156.236C240.12,-141.793 222.366,-123.193 205.576,-105.604"/>
<polygon fill="black" stroke="black" points="207.891,-102.959 198.454,-98.1423 202.827,-107.793 207.891,-102.959"/>
</g>
<!-- 15 -->
<g id="node16" class="node"><title>15</title>
<path fill="#e9d3ff" stroke="black" d="M616,-98C616,-98 335,-98 335,-98 329,-98 323,-92 323,-86 323,-86 323,-12 323,-12 323,-6 329,-0 335,-0 335,-0 616,-0 616,-0 622,-0 628,-6 628,-12 628,-12 628,-86 628,-86 628,-92 622,-98 616,-98"/>
<text text-anchor="middle" x="475.5" y="-82.8" font-family="Times,serif" font-size="14.00">forward</text>
<text text-anchor="middle" x="475.5" y="-67.8" font-family="Times,serif" font-size="14.00">input</text>
<text text-anchor="middle" x="475.5" y="-52.8" font-family="Times,serif" font-size="14.00">dilation rate: 1 &#160;&#160;k width: 3</text>
<text text-anchor="middle" x="475.5" y="-37.8" font-family="Times,serif" font-size="14.00">log gamma1: &#45;11.000000 &#160;&#160;log gamma2: &#45;11.000000</text>
<text text-anchor="middle" x="475.5" y="-22.8" font-family="Times,serif" font-size="14.00">log lambda1: &#45;11.000000 &#160;&#160;log lambda2: &#45;11.000000</text>
<text text-anchor="middle" x="475.5" y="-7.8" font-family="Times,serif" font-size="14.00">n kernels: 64</text>
</g>
<!-- 6&#45;&gt;15 -->
<g id="edge15" class="edge"><title>6&#45;&gt;15</title>
<path fill="none" stroke="black" d="M580.681,-164.743C566.871,-149.678 546.043,-126.956 526.556,-105.697"/>
<polygon fill="black" stroke="black" points="529.07,-103.26 519.732,-98.2533 523.909,-107.99 529.07,-103.26"/>
</g>
<!-- 16 -->
<g id="node17" class="node"><title>16</title>
<path fill="#e9d3ff" stroke="black" d="M939,-98C939,-98 658,-98 658,-98 652,-98 646,-92 646,-86 646,-86 646,-12 646,-12 646,-6 652,-0 658,-0 658,-0 939,-0 939,-0 945,-0 951,-6 951,-12 951,-12 951,-86 951,-86 951,-92 945,-98 939,-98"/>
<text text-anchor="middle" x="798.5" y="-82.8" font-family="Times,serif" font-size="14.00">forward</text>
<text text-anchor="middle" x="798.5" y="-67.8" font-family="Times,serif" font-size="14.00">CB1/C0</text>
<text text-anchor="middle" x="798.5" y="-52.8" font-family="Times,serif" font-size="14.00">dilation rate: 1 &#160;&#160;k width: 3</text>
<text text-anchor="middle" x="798.5" y="-37.8" font-family="Times,serif" font-size="14.00">log gamma1: &#45;11.000000 &#160;&#160;log gamma2: &#45;11.000000</text>
<text text-anchor="middle" x="798.5" y="-22.8" font-family="Times,serif" font-size="14.00">log lambda1: &#45;11.000000 &#160;&#160;log lambda2: &#45;11.000000</text>
<text text-anchor="middle" x="798.5" y="-7.8" font-family="Times,serif" font-size="14.00">n kernels: 64</text>
</g>
<!-- 7&#45;&gt;16 -->
<g id="edge16" class="edge"><title>7&#45;&gt;16</title>
<path fill="none" stroke="black" d="M832.159,-163.923C827.874,-149.42 821.611,-128.221 815.645,-108.03"/>
<polygon fill="black" stroke="black" points="818.941,-106.832 812.751,-98.2336 812.228,-108.816 818.941,-106.832"/>
</g>
<!-- 17 -->
<g id="node18" class="node"><title>17</title>
<path fill="#e9d3ff" stroke="black" d="M1262,-98C1262,-98 981,-98 981,-98 975,-98 969,-92 969,-86 969,-86 969,-12 969,-12 969,-6 975,-0 981,-0 981,-0 1262,-0 1262,-0 1268,-0 1274,-6 1274,-12 1274,-12 1274,-86 1274,-86 1274,-92 1268,-98 1262,-98"/>
<text text-anchor="middle" x="1121.5" y="-82.8" font-family="Times,serif" font-size="14.00">forward</text>
<text text-anchor="middle" x="1121.5" y="-67.8" font-family="Times,serif" font-size="14.00">CB1/C1</text>
<text text-anchor="middle" x="1121.5" y="-52.8" font-family="Times,serif" font-size="14.00">dilation rate: 1 &#160;&#160;k width: 3</text>
<text text-anchor="middle" x="1121.5" y="-37.8" font-family="Times,serif" font-size="14.00">log gamma1: &#45;11.000000 &#160;&#160;log gamma2: &#45;11.000000</text>
<text text-anchor="middle" x="1121.5" y="-22.8" font-family="Times,serif" font-size="14.00">log lambda1: &#45;11.000000 &#160;&#160;log lambda2: &#45;11.000000</text>
<text text-anchor="middle" x="1121.5" y="-7.8" font-family="Times,serif" font-size="14.00">n kernels: 64</text>
</g>
<!-- 8&#45;&gt;17 -->
<g id="edge17" class="edge"><title>8&#45;&gt;17</title>
<path fill="none" stroke="black" d="M1087.84,-163.923C1092.13,-149.42 1098.39,-128.221 1104.35,-108.03"/>
<polygon fill="black" stroke="black" points="1107.77,-108.816 1107.25,-98.2336 1101.06,-106.832 1107.77,-108.816"/>
</g>
<!-- 18 -->
<g id="node19" class="node"><title>18</title>
<path fill="#e9d3ff" stroke="black" d="M1585,-98C1585,-98 1304,-98 1304,-98 1298,-98 1292,-92 1292,-86 1292,-86 1292,-12 1292,-12 1292,-6 1298,-0 1304,-0 1304,-0 1585,-0 1585,-0 1591,-0 1597,-6 1597,-12 1597,-12 1597,-86 1597,-86 1597,-92 1591,-98 1585,-98"/>
<text text-anchor="middle" x="1444.5" y="-82.8" font-family="Times,serif" font-size="14.00">forward</text>
<text text-anchor="middle" x="1444.5" y="-67.8" font-family="Times,serif" font-size="14.00">input</text>
<text text-anchor="middle" x="1444.5" y="-52.8" font-family="Times,serif" font-size="14.00">dilation rate: 1 &#160;&#160;k width: 3</text>
<text text-anchor="middle" x="1444.5" y="-37.8" font-family="Times,serif" font-size="14.00">log gamma1: &#45;11.000000 &#160;&#160;log gamma2: &#45;11.000000</text>
<text text-anchor="middle" x="1444.5" y="-22.8" font-family="Times,serif" font-size="14.00">log lambda1: &#45;11.000000 &#160;&#160;log lambda2: &#45;11.000000</text>
<text text-anchor="middle" x="1444.5" y="-7.8" font-family="Times,serif" font-size="14.00">n kernels: 64</text>
</g>
<!-- 9&#45;&gt;18 -->
<g id="edge18" class="edge"><title>9&#45;&gt;18</title>
<path fill="none" stroke="black" d="M1365.1,-163.923C1375.44,-149.091 1390.66,-127.253 1405.01,-106.655"/>
<polygon fill="black" stroke="black" points="1408.04,-108.439 1410.88,-98.2336 1402.29,-104.436 1408.04,-108.439"/>
</g>
<!-- 19 -->
<g id="node20" class="node"><title>19</title>
<path fill="#e9d3ff" stroke="black" d="M1908,-98C1908,-98 1627,-98 1627,-98 1621,-98 1615,-92 1615,-86 1615,-86 1615,-12 1615,-12 1615,-6 1621,-0 1627,-0 1627,-0 1908,-0 1908,-0 1914,-0 1920,-6 1920,-12 1920,-12 1920,-86 1920,-86 1920,-92 1914,-98 1908,-98"/>
<text text-anchor="middle" x="1767.5" y="-82.8" font-family="Times,serif" font-size="14.00">forward</text>
<text text-anchor="middle" x="1767.5" y="-67.8" font-family="Times,serif" font-size="14.00">CB2/C0</text>
<text text-anchor="middle" x="1767.5" y="-52.8" font-family="Times,serif" font-size="14.00">dilation rate: 1 &#160;&#160;k width: 3</text>
<text text-anchor="middle" x="1767.5" y="-37.8" font-family="Times,serif" font-size="14.00">log gamma1: &#45;11.000000 &#160;&#160;log gamma2: &#45;11.000000</text>
<text text-anchor="middle" x="1767.5" y="-22.8" font-family="Times,serif" font-size="14.00">log lambda1: &#45;11.000000 &#160;&#160;log lambda2: &#45;11.000000</text>
<text text-anchor="middle" x="1767.5" y="-7.8" font-family="Times,serif" font-size="14.00">n kernels: 64</text>
</g>
<!-- 10&#45;&gt;19 -->
<g id="edge19" class="edge"><title>10&#45;&gt;19</title>
<path fill="none" stroke="black" d="M1528.18,-163.988C1545.16,-154.78 1566.31,-143.535 1585.5,-134 1606.73,-123.451 1629.54,-112.569 1651.6,-102.278"/>
<polygon fill="black" stroke="black" points="1653.08,-105.452 1660.67,-98.0606 1650.12,-99.1047 1653.08,-105.452"/>
</g>
</g>
</svg>
