<?xml version="1.0" encoding="UTF-8" standalone="no"?>
<!DOCTYPE svg PUBLIC "-//W3C//DTD SVG 1.1//EN"
 "http://www.w3.org/Graphics/SVG/1.1/DTD/svg11.dtd">
<!-- Generated by graphviz version 2.38.0 (20140413.2041)
 -->
<!-- Title: %3 Pages: 1 -->
<svg width="1619pt" height="387pt"
 viewBox="0.00 0.00 1619.00 387.00" xmlns="http://www.w3.org/2000/svg" xmlns:xlink="http://www.w3.org/1999/xlink">
<g id="graph0" class="graph" transform="scale(1 1) rotate(0) translate(4 383)">
<title>%3</title>
<polygon fill="none" stroke="none" points="-4,4 -4,-383 1615,-383 1615,4 -4,4"/>
<!-- 0 -->
<g id="node1" class="node"><title>0</title>
<path fill="#ffd3d3" stroke="black" d="M900.5,-379C900.5,-379 620.5,-379 620.5,-379 614.5,-379 608.5,-373 608.5,-367 608.5,-367 608.5,-338 608.5,-338 608.5,-332 614.5,-326 620.5,-326 620.5,-326 900.5,-326 900.5,-326 906.5,-326 912.5,-332 912.5,-338 912.5,-338 912.5,-367 912.5,-367 912.5,-373 906.5,-379 900.5,-379"/>
<text text-anchor="middle" x="760.5" y="-363.8" font-family="Times,serif" font-size="14.00">net</text>
<text text-anchor="middle" x="760.5" y="-348.8" font-family="Times,serif" font-size="14.00">log lambda1: &#45;11.000000 &#160;&#160;log lambda2: &#45;11.000000</text>
<text text-anchor="middle" x="760.5" y="-333.8" font-family="Times,serif" font-size="14.00">n kernels: 106 &#160;&#160;pooling type: 0</text>
</g>
<!-- 1 -->
<g id="node2" class="node"><title>1</title>
<path fill="#f6ffd3" stroke="black" d="M660.5,-290C660.5,-290 592.5,-290 592.5,-290 586.5,-290 580.5,-284 580.5,-278 580.5,-278 580.5,-264 580.5,-264 580.5,-258 586.5,-252 592.5,-252 592.5,-252 660.5,-252 660.5,-252 666.5,-252 672.5,-258 672.5,-264 672.5,-264 672.5,-278 672.5,-278 672.5,-284 666.5,-290 660.5,-290"/>
<text text-anchor="middle" x="626.5" y="-274.8" font-family="Times,serif" font-size="14.00">encoder</text>
<text text-anchor="middle" x="626.5" y="-259.8" font-family="Times,serif" font-size="14.00">n kernels: &#45;17</text>
</g>
<!-- 0&#45;&gt;1 -->
<g id="edge1" class="edge"><title>0&#45;&gt;1</title>
<path fill="none" stroke="black" d="M717.364,-325.908C700.838,-316.104 682.084,-304.977 665.923,-295.389"/>
<polygon fill="black" stroke="black" points="667.628,-292.331 657.242,-290.239 664.057,-298.351 667.628,-292.331"/>
</g>
<!-- 2 -->
<g id="node3" class="node"><title>2</title>
<path fill="#f6ffd3" stroke="black" d="M927,-290C927,-290 864,-290 864,-290 858,-290 852,-284 852,-278 852,-278 852,-264 852,-264 852,-258 858,-252 864,-252 864,-252 927,-252 927,-252 933,-252 939,-258 939,-264 939,-264 939,-278 939,-278 939,-284 933,-290 927,-290"/>
<text text-anchor="middle" x="895.5" y="-274.8" font-family="Times,serif" font-size="14.00">decoder</text>
<text text-anchor="middle" x="895.5" y="-259.8" font-family="Times,serif" font-size="14.00">n kernels: 12</text>
</g>
<!-- 0&#45;&gt;2 -->
<g id="edge2" class="edge"><title>0&#45;&gt;2</title>
<path fill="none" stroke="black" d="M803.958,-325.908C820.607,-316.104 839.501,-304.977 855.783,-295.389"/>
<polygon fill="black" stroke="black" points="857.687,-298.329 864.528,-290.239 854.135,-292.297 857.687,-298.329"/>
</g>
<!-- 3 -->
<g id="node4" class="node"><title>3</title>
<path fill="#d3ffe4" stroke="black" d="M481,-216C481,-216 406,-216 406,-216 400,-216 394,-210 394,-204 394,-204 394,-190 394,-190 394,-184 400,-178 406,-178 406,-178 481,-178 481,-178 487,-178 493,-184 493,-190 493,-190 493,-204 493,-204 493,-210 487,-216 481,-216"/>
<text text-anchor="middle" x="443.5" y="-200.8" font-family="Times,serif" font-size="14.00">encode block 0</text>
<text text-anchor="middle" x="443.5" y="-185.8" font-family="Times,serif" font-size="14.00">n kernels: &#45;1</text>
</g>
<!-- 1&#45;&gt;3 -->
<g id="edge3" class="edge"><title>1&#45;&gt;3</title>
<path fill="none" stroke="black" d="M580.321,-251.831C555.52,-242.073 524.775,-229.977 498.716,-219.724"/>
<polygon fill="black" stroke="black" points="499.934,-216.442 489.347,-216.038 497.371,-222.956 499.934,-216.442"/>
</g>
<!-- 4 -->
<g id="node5" class="node"><title>4</title>
<path fill="#d3ffe4" stroke="black" d="M969.5,-216C969.5,-216 821.5,-216 821.5,-216 815.5,-216 809.5,-210 809.5,-204 809.5,-204 809.5,-190 809.5,-190 809.5,-184 815.5,-178 821.5,-178 821.5,-178 969.5,-178 969.5,-178 975.5,-178 981.5,-184 981.5,-190 981.5,-190 981.5,-204 981.5,-204 981.5,-210 975.5,-216 969.5,-216"/>
<text text-anchor="middle" x="895.5" y="-200.8" font-family="Times,serif" font-size="14.00">decode block 1</text>
<text text-anchor="middle" x="895.5" y="-185.8" font-family="Times,serif" font-size="14.00">n kernels: 4 &#160;&#160;spatial scale: 1</text>
</g>
<!-- 2&#45;&gt;4 -->
<g id="edge4" class="edge"><title>2&#45;&gt;4</title>
<path fill="none" stroke="black" d="M895.5,-251.831C895.5,-244.131 895.5,-234.974 895.5,-226.417"/>
<polygon fill="black" stroke="black" points="899,-226.413 895.5,-216.413 892,-226.413 899,-226.413"/>
</g>
<!-- 5 -->
<g id="node6" class="node"><title>5</title>
<path fill="#bfe6cf" stroke="black" d="M1273,-216C1273,-216 1198,-216 1198,-216 1192,-216 1186,-210 1186,-204 1186,-204 1186,-190 1186,-190 1186,-184 1192,-178 1198,-178 1198,-178 1273,-178 1273,-178 1279,-178 1285,-184 1285,-190 1285,-190 1285,-204 1285,-204 1285,-210 1279,-216 1273,-216"/>
<text text-anchor="middle" x="1235.5" y="-200.8" font-family="Times,serif" font-size="14.00">decode block 0</text>
<text text-anchor="middle" x="1235.5" y="-185.8" font-family="Times,serif" font-size="14.00">n kernels: &#45;15</text>
</g>
<!-- 2&#45;&gt;5 -->
<g id="edge5" class="edge"><title>2&#45;&gt;5</title>
<path fill="none" stroke="black" d="M939.253,-260.735C999.473,-247.982 1108.11,-224.976 1175.77,-210.649"/>
<polygon fill="black" stroke="black" points="1176.79,-214.01 1185.85,-208.514 1175.34,-207.161 1176.79,-214.01"/>
</g>
<!-- 6 -->
<g id="node7" class="node"><title>6</title>
<path fill="#d3e4ff" stroke="black" d="M186.5,-142C186.5,-142 118.5,-142 118.5,-142 112.5,-142 106.5,-136 106.5,-130 106.5,-130 106.5,-116 106.5,-116 106.5,-110 112.5,-104 118.5,-104 118.5,-104 186.5,-104 186.5,-104 192.5,-104 198.5,-110 198.5,-116 198.5,-116 198.5,-130 198.5,-130 198.5,-136 192.5,-142 186.5,-142"/>
<text text-anchor="middle" x="152.5" y="-126.8" font-family="Times,serif" font-size="14.00">comp 0</text>
<text text-anchor="middle" x="152.5" y="-111.8" font-family="Times,serif" font-size="14.00">n kernels: &#45;11</text>
</g>
<!-- 3&#45;&gt;6 -->
<g id="edge6" class="edge"><title>3&#45;&gt;6</title>
<path fill="none" stroke="black" d="M393.806,-183.705C342.413,-170.989 262.313,-151.17 208.658,-137.895"/>
<polygon fill="black" stroke="black" points="209.176,-134.417 198.628,-135.413 207.495,-141.213 209.176,-134.417"/>
</g>
<!-- 7 -->
<g id="node8" class="node"><title>7</title>
<path fill="#bfcfe6" stroke="black" d="M332.5,-141C332.5,-141 298.5,-141 298.5,-141 292.5,-141 286.5,-135 286.5,-129 286.5,-129 286.5,-117 286.5,-117 286.5,-111 292.5,-105 298.5,-105 298.5,-105 332.5,-105 332.5,-105 338.5,-105 344.5,-111 344.5,-117 344.5,-117 344.5,-129 344.5,-129 344.5,-135 338.5,-141 332.5,-141"/>
<text text-anchor="middle" x="315.5" y="-119.3" font-family="Times,serif" font-size="14.00">comp 1</text>
</g>
<!-- 3&#45;&gt;7 -->
<g id="edge7" class="edge"><title>3&#45;&gt;7</title>
<path fill="none" stroke="black" d="M411.2,-177.831C393.714,-167.995 372.004,-155.783 353.684,-145.478"/>
<polygon fill="black" stroke="black" points="355.157,-142.291 344.725,-140.439 351.725,-148.392 355.157,-142.291"/>
</g>
<!-- 8 -->
<g id="node9" class="node"><title>8</title>
<path fill="#abb9ce" stroke="black" d="M460.5,-141C460.5,-141 426.5,-141 426.5,-141 420.5,-141 414.5,-135 414.5,-129 414.5,-129 414.5,-117 414.5,-117 414.5,-111 420.5,-105 426.5,-105 426.5,-105 460.5,-105 460.5,-105 466.5,-105 472.5,-111 472.5,-117 472.5,-117 472.5,-129 472.5,-129 472.5,-135 466.5,-141 460.5,-141"/>
<text text-anchor="middle" x="443.5" y="-119.3" font-family="Times,serif" font-size="14.00">comp 2</text>
</g>
<!-- 3&#45;&gt;8 -->
<g id="edge8" class="edge"><title>3&#45;&gt;8</title>
<path fill="none" stroke="black" d="M443.5,-177.831C443.5,-169.894 443.5,-160.409 443.5,-151.628"/>
<polygon fill="black" stroke="black" points="447,-151.418 443.5,-141.418 440,-151.418 447,-151.418"/>
</g>
<!-- 9 -->
<g id="node10" class="node"><title>9</title>
<path fill="#97a3b6" stroke="black" d="M589.5,-141C589.5,-141 555.5,-141 555.5,-141 549.5,-141 543.5,-135 543.5,-129 543.5,-129 543.5,-117 543.5,-117 543.5,-111 549.5,-105 555.5,-105 555.5,-105 589.5,-105 589.5,-105 595.5,-105 601.5,-111 601.5,-117 601.5,-117 601.5,-129 601.5,-129 601.5,-135 595.5,-141 589.5,-141"/>
<text text-anchor="middle" x="572.5" y="-119.3" font-family="Times,serif" font-size="14.00">comp 3</text>
</g>
<!-- 3&#45;&gt;9 -->
<g id="edge9" class="edge"><title>3&#45;&gt;9</title>
<path fill="none" stroke="black" d="M476.052,-177.831C493.884,-167.879 516.074,-155.494 534.673,-145.113"/>
<polygon fill="black" stroke="black" points="536.453,-148.127 543.48,-140.197 533.042,-142.015 536.453,-148.127"/>
</g>
<!-- 10 -->
<g id="node11" class="node"><title>10</title>
<path fill="#d3e4ff" stroke="black" d="M861.5,-142C861.5,-142 793.5,-142 793.5,-142 787.5,-142 781.5,-136 781.5,-130 781.5,-130 781.5,-116 781.5,-116 781.5,-110 787.5,-104 793.5,-104 793.5,-104 861.5,-104 861.5,-104 867.5,-104 873.5,-110 873.5,-116 873.5,-116 873.5,-130 873.5,-130 873.5,-136 867.5,-142 861.5,-142"/>
<text text-anchor="middle" x="827.5" y="-126.8" font-family="Times,serif" font-size="14.00">comp 0</text>
<text text-anchor="middle" x="827.5" y="-111.8" font-family="Times,serif" font-size="14.00">n kernels: &#45;15</text>
</g>
<!-- 4&#45;&gt;10 -->
<g id="edge10" class="edge"><title>4&#45;&gt;10</title>
<path fill="none" stroke="black" d="M878.341,-177.831C870.349,-169.369 860.696,-159.149 851.958,-149.897"/>
<polygon fill="black" stroke="black" points="854.301,-147.28 844.89,-142.413 849.212,-152.087 854.301,-147.28"/>
</g>
<!-- 11 -->
<g id="node12" class="node"><title>11</title>
<path fill="#bfcfe6" stroke="black" d="M981.5,-141C981.5,-141 947.5,-141 947.5,-141 941.5,-141 935.5,-135 935.5,-129 935.5,-129 935.5,-117 935.5,-117 935.5,-111 941.5,-105 947.5,-105 947.5,-105 981.5,-105 981.5,-105 987.5,-105 993.5,-111 993.5,-117 993.5,-117 993.5,-129 993.5,-129 993.5,-135 987.5,-141 981.5,-141"/>
<text text-anchor="middle" x="964.5" y="-119.3" font-family="Times,serif" font-size="14.00">comp 1</text>
</g>
<!-- 4&#45;&gt;11 -->
<g id="edge11" class="edge"><title>4&#45;&gt;11</title>
<path fill="none" stroke="black" d="M912.912,-177.831C921.354,-169.022 931.623,-158.306 940.77,-148.762"/>
<polygon fill="black" stroke="black" points="943.416,-151.059 947.808,-141.418 938.362,-146.216 943.416,-151.059"/>
</g>
<!-- 12 -->
<g id="node13" class="node"><title>12</title>
<path fill="#d3e4ff" stroke="black" d="M1252.5,-141C1252.5,-141 1218.5,-141 1218.5,-141 1212.5,-141 1206.5,-135 1206.5,-129 1206.5,-129 1206.5,-117 1206.5,-117 1206.5,-111 1212.5,-105 1218.5,-105 1218.5,-105 1252.5,-105 1252.5,-105 1258.5,-105 1264.5,-111 1264.5,-117 1264.5,-117 1264.5,-129 1264.5,-129 1264.5,-135 1258.5,-141 1252.5,-141"/>
<text text-anchor="middle" x="1235.5" y="-119.3" font-family="Times,serif" font-size="14.00">comp 0</text>
</g>
<!-- 5&#45;&gt;12 -->
<g id="edge12" class="edge"><title>5&#45;&gt;12</title>
<path fill="none" stroke="black" d="M1235.5,-177.831C1235.5,-169.894 1235.5,-160.409 1235.5,-151.628"/>
<polygon fill="black" stroke="black" points="1239,-151.418 1235.5,-141.418 1232,-151.418 1239,-151.418"/>
</g>
<!-- 13 -->
<g id="node14" class="node"><title>13</title>
<path fill="#bfcfe6" stroke="black" d="M1493,-142C1493,-142 1430,-142 1430,-142 1424,-142 1418,-136 1418,-130 1418,-130 1418,-116 1418,-116 1418,-110 1424,-104 1430,-104 1430,-104 1493,-104 1493,-104 1499,-104 1505,-110 1505,-116 1505,-116 1505,-130 1505,-130 1505,-136 1499,-142 1493,-142"/>
<text text-anchor="middle" x="1461.5" y="-126.8" font-family="Times,serif" font-size="14.00">comp 1</text>
<text text-anchor="middle" x="1461.5" y="-111.8" font-family="Times,serif" font-size="14.00">n kernels: 18</text>
</g>
<!-- 5&#45;&gt;13 -->
<g id="edge13" class="edge"><title>5&#45;&gt;13</title>
<path fill="none" stroke="black" d="M1285.1,-180.199C1321.48,-168.609 1370.82,-152.89 1408.07,-141.023"/>
<polygon fill="black" stroke="black" points="1409.28,-144.31 1417.75,-137.939 1407.16,-137.64 1409.28,-144.31"/>
</g>
<!-- 14 -->
<g id="node15" class="node"><title>14</title>
<path fill="#f6d3ff" stroke="black" d="M151,-68C151,-68 12,-68 12,-68 6,-68 0,-62 0,-56 0,-56 0,-12 0,-12 0,-6 6,-0 12,-0 12,-0 151,-0 151,-0 157,-0 163,-6 163,-12 163,-12 163,-56 163,-56 163,-62 157,-68 151,-68"/>
<text text-anchor="middle" x="81.5" y="-52.8" font-family="Times,serif" font-size="14.00">forward</text>
<text text-anchor="middle" x="81.5" y="-37.8" font-family="Times,serif" font-size="14.00">input</text>
<text text-anchor="middle" x="81.5" y="-22.8" font-family="Times,serif" font-size="14.00">dilation rate: 1 &#160;&#160;k width: 3</text>
<text text-anchor="middle" x="81.5" y="-7.8" font-family="Times,serif" font-size="14.00">n kernels: 64</text>
</g>
<!-- 6&#45;&gt;14 -->
<g id="edge14" class="edge"><title>6&#45;&gt;14</title>
<path fill="none" stroke="black" d="M137.789,-103.974C131.122,-95.8049 122.946,-85.7857 114.912,-75.9419"/>
<polygon fill="black" stroke="black" points="117.566,-73.6582 108.532,-68.1236 112.143,-78.0841 117.566,-73.6582"/>
</g>
<!-- 15 -->
<g id="node16" class="node"><title>15</title>
<path fill="#f6d3ff" stroke="black" d="M332,-68C332,-68 193,-68 193,-68 187,-68 181,-62 181,-56 181,-56 181,-12 181,-12 181,-6 187,-0 193,-0 193,-0 332,-0 332,-0 338,-0 344,-6 344,-12 344,-12 344,-56 344,-56 344,-62 338,-68 332,-68"/>
<text text-anchor="middle" x="262.5" y="-52.8" font-family="Times,serif" font-size="14.00">forward</text>
<text text-anchor="middle" x="262.5" y="-37.8" font-family="Times,serif" font-size="14.00">EB0/C0</text>
<text text-anchor="middle" x="262.5" y="-22.8" font-family="Times,serif" font-size="14.00">dilation rate: 1 &#160;&#160;k width: 3</text>
<text text-anchor="middle" x="262.5" y="-7.8" font-family="Times,serif" font-size="14.00">n kernels: 64</text>
</g>
<!-- 7&#45;&gt;15 -->
<g id="edge15" class="edge"><title>7&#45;&gt;15</title>
<path fill="none" stroke="black" d="M305.029,-104.812C300.082,-96.6918 293.942,-86.6128 287.88,-76.6623"/>
<polygon fill="black" stroke="black" points="290.797,-74.7226 282.606,-68.0034 284.819,-78.3644 290.797,-74.7226"/>
</g>
<!-- 16 -->
<g id="node17" class="node"><title>16</title>
<path fill="#f6d3ff" stroke="black" d="M513,-68C513,-68 374,-68 374,-68 368,-68 362,-62 362,-56 362,-56 362,-12 362,-12 362,-6 368,-0 374,-0 374,-0 513,-0 513,-0 519,-0 525,-6 525,-12 525,-12 525,-56 525,-56 525,-62 519,-68 513,-68"/>
<text text-anchor="middle" x="443.5" y="-52.8" font-family="Times,serif" font-size="14.00">forward</text>
<text text-anchor="middle" x="443.5" y="-37.8" font-family="Times,serif" font-size="14.00">EB0/C1</text>
<text text-anchor="middle" x="443.5" y="-22.8" font-family="Times,serif" font-size="14.00">dilation rate: 1 &#160;&#160;k width: 3</text>
<text text-anchor="middle" x="443.5" y="-7.8" font-family="Times,serif" font-size="14.00">n kernels: 64</text>
</g>
<!-- 8&#45;&gt;16 -->
<g id="edge16" class="edge"><title>8&#45;&gt;16</title>
<path fill="none" stroke="black" d="M443.5,-104.812C443.5,-97.1019 443.5,-87.6259 443.5,-78.1706"/>
<polygon fill="black" stroke="black" points="447,-78.0034 443.5,-68.0034 440,-78.0034 447,-78.0034"/>
</g>
<!-- 17 -->
<g id="node18" class="node"><title>17</title>
<path fill="#f6d3ff" stroke="black" d="M694,-68C694,-68 555,-68 555,-68 549,-68 543,-62 543,-56 543,-56 543,-12 543,-12 543,-6 549,-0 555,-0 555,-0 694,-0 694,-0 700,-0 706,-6 706,-12 706,-12 706,-56 706,-56 706,-62 700,-68 694,-68"/>
<text text-anchor="middle" x="624.5" y="-52.8" font-family="Times,serif" font-size="14.00">forward</text>
<text text-anchor="middle" x="624.5" y="-37.8" font-family="Times,serif" font-size="14.00">EB0/C2</text>
<text text-anchor="middle" x="624.5" y="-22.8" font-family="Times,serif" font-size="14.00">dilation rate: 1 &#160;&#160;k width: 3</text>
<text text-anchor="middle" x="624.5" y="-7.8" font-family="Times,serif" font-size="14.00">n kernels: 64</text>
</g>
<!-- 9&#45;&gt;17 -->
<g id="edge17" class="edge"><title>9&#45;&gt;17</title>
<path fill="none" stroke="black" d="M582.774,-104.812C587.627,-96.6918 593.651,-86.6128 599.598,-76.6623"/>
<polygon fill="black" stroke="black" points="602.648,-78.3827 604.774,-68.0034 596.639,-74.7914 602.648,-78.3827"/>
</g>
<!-- 18 -->
<g id="node19" class="node"><title>18</title>
<path fill="#f6d3ff" stroke="black" d="M875,-68C875,-68 736,-68 736,-68 730,-68 724,-62 724,-56 724,-56 724,-12 724,-12 724,-6 730,-0 736,-0 736,-0 875,-0 875,-0 881,-0 887,-6 887,-12 887,-12 887,-56 887,-56 887,-62 881,-68 875,-68"/>
<text text-anchor="middle" x="805.5" y="-52.8" font-family="Times,serif" font-size="14.00">forward</text>
<text text-anchor="middle" x="805.5" y="-37.8" font-family="Times,serif" font-size="14.00">EB0/C3</text>
<text text-anchor="middle" x="805.5" y="-22.8" font-family="Times,serif" font-size="14.00">dilation rate: 1 &#160;&#160;k width: 3</text>
<text text-anchor="middle" x="805.5" y="-7.8" font-family="Times,serif" font-size="14.00">n kernels: 64</text>
</g>
<!-- 10&#45;&gt;18 -->
<g id="edge18" class="edge"><title>10&#45;&gt;18</title>
<path fill="none" stroke="black" d="M822.942,-103.974C821.019,-96.371 818.691,-87.1656 816.371,-77.9905"/>
<polygon fill="black" stroke="black" points="819.721,-76.9604 813.876,-68.1236 812.935,-78.6765 819.721,-76.9604"/>
</g>
<!-- 19 -->
<g id="node20" class="node"><title>19</title>
<path fill="#f6d3ff" stroke="black" d="M1056,-68C1056,-68 917,-68 917,-68 911,-68 905,-62 905,-56 905,-56 905,-12 905,-12 905,-6 911,-0 917,-0 917,-0 1056,-0 1056,-0 1062,-0 1068,-6 1068,-12 1068,-12 1068,-56 1068,-56 1068,-62 1062,-68 1056,-68"/>
<text text-anchor="middle" x="986.5" y="-52.8" font-family="Times,serif" font-size="14.00">forward</text>
<text text-anchor="middle" x="986.5" y="-37.8" font-family="Times,serif" font-size="14.00">DB1/C0</text>
<text text-anchor="middle" x="986.5" y="-22.8" font-family="Times,serif" font-size="14.00">dilation rate: 1 &#160;&#160;k width: 3</text>
<text text-anchor="middle" x="986.5" y="-7.8" font-family="Times,serif" font-size="14.00">n kernels: 64</text>
</g>
<!-- 11&#45;&gt;19 -->
<g id="edge19" class="edge"><title>11&#45;&gt;19</title>
<path fill="none" stroke="black" d="M968.846,-104.812C970.817,-97.0199 973.243,-87.4241 975.66,-77.8689"/>
<polygon fill="black" stroke="black" points="979.096,-78.5563 978.154,-68.0034 972.309,-76.8402 979.096,-78.5563"/>
</g>
<!-- 20 -->
<g id="node21" class="node"><title>20</title>
<path fill="#f6d3ff" stroke="black" d="M1237,-68C1237,-68 1098,-68 1098,-68 1092,-68 1086,-62 1086,-56 1086,-56 1086,-12 1086,-12 1086,-6 1092,-0 1098,-0 1098,-0 1237,-0 1237,-0 1243,-0 1249,-6 1249,-12 1249,-12 1249,-56 1249,-56 1249,-62 1243,-68 1237,-68"/>
<text text-anchor="middle" x="1167.5" y="-52.8" font-family="Times,serif" font-size="14.00">forward</text>
<text text-anchor="middle" x="1167.5" y="-37.8" font-family="Times,serif" font-size="14.00">DB1/C1</text>
<text text-anchor="middle" x="1167.5" y="-22.8" font-family="Times,serif" font-size="14.00">dilation rate: 1 &#160;&#160;k width: 3</text>
<text text-anchor="middle" x="1167.5" y="-7.8" font-family="Times,serif" font-size="14.00">n kernels: 64</text>
</g>
<!-- 12&#45;&gt;20 -->
<g id="edge20" class="edge"><title>12&#45;&gt;20</title>
<path fill="none" stroke="black" d="M1222.07,-104.812C1215.59,-96.5278 1207.52,-86.2048 1199.59,-76.0594"/>
<polygon fill="black" stroke="black" points="1202.21,-73.7269 1193.3,-68.0034 1196.7,-78.0377 1202.21,-73.7269"/>
</g>
<!-- 21 -->
<g id="node22" class="node"><title>21</title>
<path fill="#debfe6" stroke="black" d="M1418,-68C1418,-68 1279,-68 1279,-68 1273,-68 1267,-62 1267,-56 1267,-56 1267,-12 1267,-12 1267,-6 1273,-0 1279,-0 1279,-0 1418,-0 1418,-0 1424,-0 1430,-6 1430,-12 1430,-12 1430,-56 1430,-56 1430,-62 1424,-68 1418,-68"/>
<text text-anchor="middle" x="1348.5" y="-52.8" font-family="Times,serif" font-size="14.00">merge</text>
<text text-anchor="middle" x="1348.5" y="-37.8" font-family="Times,serif" font-size="14.00">EB0/C3</text>
<text text-anchor="middle" x="1348.5" y="-22.8" font-family="Times,serif" font-size="14.00">dilation rate: 1 &#160;&#160;k width: 3</text>
<text text-anchor="middle" x="1348.5" y="-7.8" font-family="Times,serif" font-size="14.00">n kernels: 64</text>
</g>
<!-- 12&#45;&gt;21 -->
<g id="edge21" class="edge"><title>12&#45;&gt;21</title>
<path fill="none" stroke="black" d="M1257.83,-104.812C1269.22,-96.0357 1283.6,-84.9711 1297.52,-74.2536"/>
<polygon fill="black" stroke="black" points="1299.85,-76.8772 1305.63,-68.0034 1295.57,-71.3306 1299.85,-76.8772"/>
</g>
<!-- 22 -->
<g id="node23" class="node"><title>22</title>
<path fill="#f6d3ff" stroke="black" d="M1599,-68C1599,-68 1460,-68 1460,-68 1454,-68 1448,-62 1448,-56 1448,-56 1448,-12 1448,-12 1448,-6 1454,-0 1460,-0 1460,-0 1599,-0 1599,-0 1605,-0 1611,-6 1611,-12 1611,-12 1611,-56 1611,-56 1611,-62 1605,-68 1599,-68"/>
<text text-anchor="middle" x="1529.5" y="-52.8" font-family="Times,serif" font-size="14.00">forward</text>
<text text-anchor="middle" x="1529.5" y="-37.8" font-family="Times,serif" font-size="14.00">DB0/C0</text>
<text text-anchor="middle" x="1529.5" y="-22.8" font-family="Times,serif" font-size="14.00">dilation rate: 1 &#160;&#160;k width: 3</text>
<text text-anchor="middle" x="1529.5" y="-7.8" font-family="Times,serif" font-size="14.00">n kernels: 64</text>
</g>
<!-- 13&#45;&gt;22 -->
<g id="edge22" class="edge"><title>13&#45;&gt;22</title>
<path fill="none" stroke="black" d="M1475.59,-103.974C1481.91,-95.8857 1489.65,-85.9839 1497.27,-76.2343"/>
<polygon fill="black" stroke="black" points="1500.21,-78.1579 1503.61,-68.1236 1494.69,-73.8471 1500.21,-78.1579"/>
</g>
</g>
</svg>
