<?xml version="1.0" encoding="UTF-8" standalone="no"?>
<!DOCTYPE svg PUBLIC "-//W3C//DTD SVG 1.1//EN"
 "http://www.w3.org/Graphics/SVG/1.1/DTD/svg11.dtd">
<!-- Generated by graphviz version 2.38.0 (20140413.2041)
 -->
<!-- Title: %3 Pages: 1 -->
<svg width="1350pt" height="433pt"
 viewBox="0.00 0.00 1350.00 433.00" xmlns="http://www.w3.org/2000/svg" xmlns:xlink="http://www.w3.org/1999/xlink">
<g id="graph0" class="graph" transform="scale(1 1) rotate(0) translate(4 429)">
<title>%3</title>
<polygon fill="none" stroke="none" points="-4,4 -4,-429 1346,-429 1346,4 -4,4"/>
<!-- 0 -->
<g id="node1" class="node"><title>0</title>
<path fill="#ffd3d3" stroke="black" d="M642,-425C642,-425 451,-425 451,-425 445,-425 439,-419 439,-413 439,-413 439,-384 439,-384 439,-378 445,-372 451,-372 451,-372 642,-372 642,-372 648,-372 654,-378 654,-384 654,-384 654,-413 654,-413 654,-419 648,-425 642,-425"/>
<text text-anchor="middle" x="546.5" y="-409.8" font-family="Times,serif" font-size="14.00">net</text>
<text text-anchor="middle" x="546.5" y="-394.8" font-family="Times,serif" font-size="14.00">k width: 3 &#160;&#160;log gamma2: &#45;8.951763</text>
<text text-anchor="middle" x="546.5" y="-379.8" font-family="Times,serif" font-size="14.00">n kernels: 99</text>
</g>
<!-- 1 -->
<g id="node2" class="node"><title>1</title>
<path fill="#e9ffd3" stroke="black" d="M334,-328.5C334,-328.5 71,-328.5 71,-328.5 65,-328.5 59,-322.5 59,-316.5 59,-316.5 59,-287.5 59,-287.5 59,-281.5 65,-275.5 71,-275.5 71,-275.5 334,-275.5 334,-275.5 340,-275.5 346,-281.5 346,-287.5 346,-287.5 346,-316.5 346,-316.5 346,-322.5 340,-328.5 334,-328.5"/>
<text text-anchor="middle" x="202.5" y="-313.3" font-family="Times,serif" font-size="14.00">conv block 0</text>
<text text-anchor="middle" x="202.5" y="-298.3" font-family="Times,serif" font-size="14.00">log gamma1: &#45;1.459811 &#160;&#160;log gamma2: 0.285570</text>
<text text-anchor="middle" x="202.5" y="-283.3" font-family="Times,serif" font-size="14.00">n kernels: &#45;9</text>
</g>
<!-- 0&#45;&gt;1 -->
<g id="edge1" class="edge"><title>0&#45;&gt;1</title>
<path fill="none" stroke="black" d="M453.409,-371.927C407.618,-359.348 352.3,-344.151 305.271,-331.232"/>
<polygon fill="black" stroke="black" points="305.937,-327.786 295.367,-328.512 304.083,-334.536 305.937,-327.786"/>
</g>
<!-- 2 -->
<g id="node3" class="node"><title>2</title>
<path fill="#e9ffd3" stroke="black" d="M676,-336C676,-336 417,-336 417,-336 411,-336 405,-330 405,-324 405,-324 405,-280 405,-280 405,-274 411,-268 417,-268 417,-268 676,-268 676,-268 682,-268 688,-274 688,-280 688,-280 688,-324 688,-324 688,-330 682,-336 676,-336"/>
<text text-anchor="middle" x="546.5" y="-320.8" font-family="Times,serif" font-size="14.00">conv block 1</text>
<text text-anchor="middle" x="546.5" y="-305.8" font-family="Times,serif" font-size="14.00">log gamma1: 0.438123 &#160;&#160;log gamma2: 0.659925</text>
<text text-anchor="middle" x="546.5" y="-290.8" font-family="Times,serif" font-size="14.00">n kernels: &#45;4 &#160;&#160;pool z: 1</text>
<text text-anchor="middle" x="546.5" y="-275.8" font-family="Times,serif" font-size="14.00">spatial scale: 1</text>
</g>
<!-- 0&#45;&gt;2 -->
<g id="edge2" class="edge"><title>0&#45;&gt;2</title>
<path fill="none" stroke="black" d="M546.5,-371.677C546.5,-363.822 546.5,-354.964 546.5,-346.285"/>
<polygon fill="black" stroke="black" points="550,-346.251 546.5,-336.251 543,-346.251 550,-346.251"/>
</g>
<!-- 3 -->
<g id="node4" class="node"><title>3</title>
<path fill="#e9ffd3" stroke="black" d="M900,-320C900,-320 833,-320 833,-320 827,-320 821,-314 821,-308 821,-308 821,-296 821,-296 821,-290 827,-284 833,-284 833,-284 900,-284 900,-284 906,-284 912,-290 912,-296 912,-296 912,-308 912,-308 912,-314 906,-320 900,-320"/>
<text text-anchor="middle" x="866.5" y="-298.3" font-family="Times,serif" font-size="14.00">path combine</text>
</g>
<!-- 0&#45;&gt;3 -->
<g id="edge3" class="edge"><title>0&#45;&gt;3</title>
<path fill="none" stroke="black" d="M633.097,-371.927C689.722,-355.205 762.008,-333.858 811.023,-319.383"/>
<polygon fill="black" stroke="black" points="812.211,-322.682 820.81,-316.493 810.228,-315.968 812.211,-322.682"/>
</g>
<!-- 4 -->
<g id="node5" class="node"><title>4</title>
<path fill="#d3ffff" stroke="black" d="M292.5,-202C292.5,-202 92.5,-202 92.5,-202 86.5,-202 80.5,-196 80.5,-190 80.5,-190 80.5,-176 80.5,-176 80.5,-170 86.5,-164 92.5,-164 92.5,-164 292.5,-164 292.5,-164 298.5,-164 304.5,-170 304.5,-176 304.5,-176 304.5,-190 304.5,-190 304.5,-196 298.5,-202 292.5,-202"/>
<text text-anchor="middle" x="192.5" y="-186.8" font-family="Times,serif" font-size="14.00">comp 0</text>
<text text-anchor="middle" x="192.5" y="-171.8" font-family="Times,serif" font-size="14.00">log gamma2: 0.986935 &#160;&#160;n kernels: &#45;9</text>
</g>
<!-- 1&#45;&gt;4 -->
<g id="edge4" class="edge"><title>1&#45;&gt;4</title>
<path fill="none" stroke="black" d="M200.305,-275.324C198.714,-256.708 196.563,-231.534 194.922,-212.332"/>
<polygon fill="black" stroke="black" points="198.408,-212.023 194.069,-202.358 191.433,-212.619 198.408,-212.023"/>
</g>
<!-- 5 -->
<g id="node6" class="node"><title>5</title>
<path fill="#d3ffff" stroke="black" d="M509.5,-202C509.5,-202 441.5,-202 441.5,-202 435.5,-202 429.5,-196 429.5,-190 429.5,-190 429.5,-176 429.5,-176 429.5,-170 435.5,-164 441.5,-164 441.5,-164 509.5,-164 509.5,-164 515.5,-164 521.5,-170 521.5,-176 521.5,-176 521.5,-190 521.5,-190 521.5,-196 515.5,-202 509.5,-202"/>
<text text-anchor="middle" x="475.5" y="-186.8" font-family="Times,serif" font-size="14.00">comp 0</text>
<text text-anchor="middle" x="475.5" y="-171.8" font-family="Times,serif" font-size="14.00">n kernels: &#45;10</text>
</g>
<!-- 2&#45;&gt;5 -->
<g id="edge5" class="edge"><title>2&#45;&gt;5</title>
<path fill="none" stroke="black" d="M526.344,-267.785C515.413,-249.772 502.079,-227.799 491.808,-210.875"/>
<polygon fill="black" stroke="black" points="494.633,-208.782 486.453,-202.049 488.648,-212.414 494.633,-208.782"/>
</g>
<!-- 6 -->
<g id="node7" class="node"><title>6</title>
<path fill="#bfe6e6" stroke="black" d="M683.5,-202C683.5,-202 551.5,-202 551.5,-202 545.5,-202 539.5,-196 539.5,-190 539.5,-190 539.5,-176 539.5,-176 539.5,-170 545.5,-164 551.5,-164 551.5,-164 683.5,-164 683.5,-164 689.5,-164 695.5,-170 695.5,-176 695.5,-176 695.5,-190 695.5,-190 695.5,-196 689.5,-202 683.5,-202"/>
<text text-anchor="middle" x="617.5" y="-186.8" font-family="Times,serif" font-size="14.00">path end 1</text>
<text text-anchor="middle" x="617.5" y="-171.8" font-family="Times,serif" font-size="14.00">k width: &#45;2 &#160;&#160;n kernels: &#45;5</text>
</g>
<!-- 2&#45;&gt;6 -->
<g id="edge6" class="edge"><title>2&#45;&gt;6</title>
<path fill="none" stroke="black" d="M566.656,-267.785C577.587,-249.772 590.921,-227.799 601.192,-210.875"/>
<polygon fill="black" stroke="black" points="604.352,-212.414 606.547,-202.049 598.367,-208.782 604.352,-212.414"/>
</g>
<!-- 7 -->
<g id="node8" class="node"><title>7</title>
<path fill="#d3ffff" stroke="black" d="M1007,-232C1007,-232 726,-232 726,-232 720,-232 714,-226 714,-220 714,-220 714,-146 714,-146 714,-140 720,-134 726,-134 726,-134 1007,-134 1007,-134 1013,-134 1019,-140 1019,-146 1019,-146 1019,-220 1019,-220 1019,-226 1013,-232 1007,-232"/>
<text text-anchor="middle" x="866.5" y="-216.8" font-family="Times,serif" font-size="14.00">forward</text>
<text text-anchor="middle" x="866.5" y="-201.8" font-family="Times,serif" font-size="14.00">CB0/C0</text>
<text text-anchor="middle" x="866.5" y="-186.8" font-family="Times,serif" font-size="14.00">dilation rate: 1 &#160;&#160;k width: 3</text>
<text text-anchor="middle" x="866.5" y="-171.8" font-family="Times,serif" font-size="14.00">log gamma1: &#45;11.000000 &#160;&#160;log gamma2: &#45;11.000000</text>
<text text-anchor="middle" x="866.5" y="-156.8" font-family="Times,serif" font-size="14.00">log lambda1: &#45;11.000000 &#160;&#160;log lambda2: &#45;11.000000</text>
<text text-anchor="middle" x="866.5" y="-141.8" font-family="Times,serif" font-size="14.00">n kernels: 64</text>
</g>
<!-- 3&#45;&gt;7 -->
<g id="edge7" class="edge"><title>3&#45;&gt;7</title>
<path fill="none" stroke="black" d="M866.5,-283.987C866.5,-272.809 866.5,-257.468 866.5,-242.158"/>
<polygon fill="black" stroke="black" points="870,-242.146 866.5,-232.146 863,-242.146 870,-242.146"/>
</g>
<!-- 8 -->
<g id="node9" class="node"><title>8</title>
<path fill="#bfe6e6" stroke="black" d="M1330,-232C1330,-232 1049,-232 1049,-232 1043,-232 1037,-226 1037,-220 1037,-220 1037,-146 1037,-146 1037,-140 1043,-134 1049,-134 1049,-134 1330,-134 1330,-134 1336,-134 1342,-140 1342,-146 1342,-146 1342,-220 1342,-220 1342,-226 1336,-232 1330,-232"/>
<text text-anchor="middle" x="1189.5" y="-216.8" font-family="Times,serif" font-size="14.00">residual 1</text>
<text text-anchor="middle" x="1189.5" y="-201.8" font-family="Times,serif" font-size="14.00">CB1/PE1</text>
<text text-anchor="middle" x="1189.5" y="-186.8" font-family="Times,serif" font-size="14.00">dilation rate: 1 &#160;&#160;k width: 3</text>
<text text-anchor="middle" x="1189.5" y="-171.8" font-family="Times,serif" font-size="14.00">log gamma1: &#45;11.000000 &#160;&#160;log gamma2: &#45;11.000000</text>
<text text-anchor="middle" x="1189.5" y="-156.8" font-family="Times,serif" font-size="14.00">log lambda1: &#45;11.000000 &#160;&#160;log lambda2: &#45;11.000000</text>
<text text-anchor="middle" x="1189.5" y="-141.8" font-family="Times,serif" font-size="14.00">n kernels: 64</text>
</g>
<!-- 3&#45;&gt;8 -->
<g id="edge8" class="edge"><title>3&#45;&gt;8</title>
<path fill="none" stroke="black" d="M912.093,-284.485C947.47,-271.67 998.53,-253.175 1047.23,-235.536"/>
<polygon fill="black" stroke="black" points="1048.72,-238.718 1056.93,-232.022 1046.33,-232.137 1048.72,-238.718"/>
</g>
<!-- 9 -->
<g id="node10" class="node"><title>9</title>
<path fill="#e9d3ff" stroke="black" d="M293,-98C293,-98 12,-98 12,-98 6,-98 0,-92 0,-86 0,-86 0,-12 0,-12 0,-6 6,-0 12,-0 12,-0 293,-0 293,-0 299,-0 305,-6 305,-12 305,-12 305,-86 305,-86 305,-92 299,-98 293,-98"/>
<text text-anchor="middle" x="152.5" y="-82.8" font-family="Times,serif" font-size="14.00">forward</text>
<text text-anchor="middle" x="152.5" y="-67.8" font-family="Times,serif" font-size="14.00">input</text>
<text text-anchor="middle" x="152.5" y="-52.8" font-family="Times,serif" font-size="14.00">dilation rate: 1 &#160;&#160;k width: 3</text>
<text text-anchor="middle" x="152.5" y="-37.8" font-family="Times,serif" font-size="14.00">log gamma1: &#45;11.000000 &#160;&#160;log gamma2: &#45;11.000000</text>
<text text-anchor="middle" x="152.5" y="-22.8" font-family="Times,serif" font-size="14.00">log lambda1: &#45;11.000000 &#160;&#160;log lambda2: &#45;11.000000</text>
<text text-anchor="middle" x="152.5" y="-7.8" font-family="Times,serif" font-size="14.00">n kernels: 64</text>
</g>
<!-- 4&#45;&gt;9 -->
<g id="edge9" class="edge"><title>4&#45;&gt;9</title>
<path fill="none" stroke="black" d="M187.022,-163.923C182.627,-149.42 176.203,-128.221 170.085,-108.03"/>
<polygon fill="black" stroke="black" points="173.366,-106.789 167.116,-98.2336 166.667,-108.819 173.366,-106.789"/>
</g>
<!-- 10 -->
<g id="node11" class="node"><title>10</title>
<path fill="#e9d3ff" stroke="black" d="M616,-98C616,-98 335,-98 335,-98 329,-98 323,-92 323,-86 323,-86 323,-12 323,-12 323,-6 329,-0 335,-0 335,-0 616,-0 616,-0 622,-0 628,-6 628,-12 628,-12 628,-86 628,-86 628,-92 622,-98 616,-98"/>
<text text-anchor="middle" x="475.5" y="-82.8" font-family="Times,serif" font-size="14.00">forward</text>
<text text-anchor="middle" x="475.5" y="-67.8" font-family="Times,serif" font-size="14.00">input</text>
<text text-anchor="middle" x="475.5" y="-52.8" font-family="Times,serif" font-size="14.00">dilation rate: 1 &#160;&#160;k width: 3</text>
<text text-anchor="middle" x="475.5" y="-37.8" font-family="Times,serif" font-size="14.00">log gamma1: &#45;11.000000 &#160;&#160;log gamma2: &#45;11.000000</text>
<text text-anchor="middle" x="475.5" y="-22.8" font-family="Times,serif" font-size="14.00">log lambda1: &#45;11.000000 &#160;&#160;log lambda2: &#45;11.000000</text>
<text text-anchor="middle" x="475.5" y="-7.8" font-family="Times,serif" font-size="14.00">n kernels: 64</text>
</g>
<!-- 5&#45;&gt;10 -->
<g id="edge10" class="edge"><title>5&#45;&gt;10</title>
<path fill="none" stroke="black" d="M475.5,-163.923C475.5,-149.486 475.5,-128.413 475.5,-108.306"/>
<polygon fill="black" stroke="black" points="479,-108.234 475.5,-98.2336 472,-108.234 479,-108.234"/>
</g>
<!-- 11 -->
<g id="node12" class="node"><title>11</title>
<path fill="#e9d3ff" stroke="black" d="M939,-98C939,-98 658,-98 658,-98 652,-98 646,-92 646,-86 646,-86 646,-12 646,-12 646,-6 652,-0 658,-0 658,-0 939,-0 939,-0 945,-0 951,-6 951,-12 951,-12 951,-86 951,-86 951,-92 945,-98 939,-98"/>
<text text-anchor="middle" x="798.5" y="-82.8" font-family="Times,serif" font-size="14.00">forward</text>
<text text-anchor="middle" x="798.5" y="-67.8" font-family="Times,serif" font-size="14.00">CB1/C0</text>
<text text-anchor="middle" x="798.5" y="-52.8" font-family="Times,serif" font-size="14.00">dilation rate: 1 &#160;&#160;k width: 3</text>
<text text-anchor="middle" x="798.5" y="-37.8" font-family="Times,serif" font-size="14.00">log gamma1: &#45;11.000000 &#160;&#160;log gamma2: &#45;11.000000</text>
<text text-anchor="middle" x="798.5" y="-22.8" font-family="Times,serif" font-size="14.00">log lambda1: &#45;11.000000 &#160;&#160;log lambda2: &#45;11.000000</text>
<text text-anchor="middle" x="798.5" y="-7.8" font-family="Times,serif" font-size="14.00">n kernels: 64</text>
</g>
<!-- 6&#45;&gt;11 -->
<g id="edge11" class="edge"><title>6&#45;&gt;11</title>
<path fill="none" stroke="black" d="M642.288,-163.923C663.439,-148.498 694.98,-125.495 724.194,-104.19"/>
<polygon fill="black" stroke="black" points="726.344,-106.954 732.361,-98.2336 722.22,-101.298 726.344,-106.954"/>
</g>
</g>
</svg>
