<?xml version="1.0" encoding="UTF-8" standalone="no"?>
<!DOCTYPE svg PUBLIC "-//W3C//DTD SVG 1.1//EN"
 "http://www.w3.org/Graphics/SVG/1.1/DTD/svg11.dtd">
<!-- Generated by graphviz version 2.38.0 (20140413.2041)
 -->
<!-- Title: %3 Pages: 1 -->
<svg width="1800pt" height="387pt"
 viewBox="0.00 0.00 1800.00 387.00" xmlns="http://www.w3.org/2000/svg" xmlns:xlink="http://www.w3.org/1999/xlink">
<g id="graph0" class="graph" transform="scale(1 1) rotate(0) translate(4 383)">
<title>%3</title>
<polygon fill="none" stroke="none" points="-4,4 -4,-383 1796,-383 1796,4 -4,4"/>
<!-- 0 -->
<g id="node1" class="node"><title>0</title>
<path fill="#ffd3d3" stroke="black" d="M647.5,-379C647.5,-379 367.5,-379 367.5,-379 361.5,-379 355.5,-373 355.5,-367 355.5,-367 355.5,-338 355.5,-338 355.5,-332 361.5,-326 367.5,-326 367.5,-326 647.5,-326 647.5,-326 653.5,-326 659.5,-332 659.5,-338 659.5,-338 659.5,-367 659.5,-367 659.5,-373 653.5,-379 647.5,-379"/>
<text text-anchor="middle" x="507.5" y="-363.8" font-family="Times,serif" font-size="14.00">net</text>
<text text-anchor="middle" x="507.5" y="-348.8" font-family="Times,serif" font-size="14.00">log lambda1: &#45;11.000000 &#160;&#160;log lambda2: &#45;11.000000</text>
<text text-anchor="middle" x="507.5" y="-333.8" font-family="Times,serif" font-size="14.00">n kernels: 37 &#160;&#160;pooling type: 0</text>
</g>
<!-- 1 -->
<g id="node2" class="node"><title>1</title>
<path fill="#f6ffd3" stroke="black" d="M423,-290C423,-290 360,-290 360,-290 354,-290 348,-284 348,-278 348,-278 348,-264 348,-264 348,-258 354,-252 360,-252 360,-252 423,-252 423,-252 429,-252 435,-258 435,-264 435,-264 435,-278 435,-278 435,-284 429,-290 423,-290"/>
<text text-anchor="middle" x="391.5" y="-274.8" font-family="Times,serif" font-size="14.00">encoder</text>
<text text-anchor="middle" x="391.5" y="-259.8" font-family="Times,serif" font-size="14.00">n kernels: 19</text>
</g>
<!-- 0&#45;&gt;1 -->
<g id="edge1" class="edge"><title>0&#45;&gt;1</title>
<path fill="none" stroke="black" d="M470.158,-325.908C456.117,-316.285 440.218,-305.389 426.407,-295.923"/>
<polygon fill="black" stroke="black" points="428.34,-293.005 418.113,-290.239 424.383,-298.779 428.34,-293.005"/>
</g>
<!-- 2 -->
<g id="node3" class="node"><title>2</title>
<path fill="#f6ffd3" stroke="black" d="M656,-290C656,-290 593,-290 593,-290 587,-290 581,-284 581,-278 581,-278 581,-264 581,-264 581,-258 587,-252 593,-252 593,-252 656,-252 656,-252 662,-252 668,-258 668,-264 668,-264 668,-278 668,-278 668,-284 662,-290 656,-290"/>
<text text-anchor="middle" x="624.5" y="-274.8" font-family="Times,serif" font-size="14.00">decoder</text>
<text text-anchor="middle" x="624.5" y="-259.8" font-family="Times,serif" font-size="14.00">n kernels: 11</text>
</g>
<!-- 0&#45;&gt;2 -->
<g id="edge2" class="edge"><title>0&#45;&gt;2</title>
<path fill="none" stroke="black" d="M545.164,-325.908C559.326,-316.285 575.362,-305.389 589.292,-295.923"/>
<polygon fill="black" stroke="black" points="591.354,-298.754 597.658,-290.239 587.419,-292.964 591.354,-298.754"/>
</g>
<!-- 3 -->
<g id="node4" class="node"><title>3</title>
<path fill="#d3ffe4" stroke="black" d="M300,-215C300,-215 225,-215 225,-215 219,-215 213,-209 213,-203 213,-203 213,-191 213,-191 213,-185 219,-179 225,-179 225,-179 300,-179 300,-179 306,-179 312,-185 312,-191 312,-191 312,-203 312,-203 312,-209 306,-215 300,-215"/>
<text text-anchor="middle" x="262.5" y="-193.3" font-family="Times,serif" font-size="14.00">encode block 0</text>
</g>
<!-- 1&#45;&gt;3 -->
<g id="edge3" class="edge"><title>1&#45;&gt;3</title>
<path fill="none" stroke="black" d="M358.948,-251.831C341.787,-242.253 320.589,-230.422 302.44,-220.292"/>
<polygon fill="black" stroke="black" points="303.703,-216.989 293.266,-215.171 300.292,-223.101 303.703,-216.989"/>
</g>
<!-- 4 -->
<g id="node5" class="node"><title>4</title>
<path fill="#d3ffe4" stroke="black" d="M698.5,-216C698.5,-216 550.5,-216 550.5,-216 544.5,-216 538.5,-210 538.5,-204 538.5,-204 538.5,-190 538.5,-190 538.5,-184 544.5,-178 550.5,-178 550.5,-178 698.5,-178 698.5,-178 704.5,-178 710.5,-184 710.5,-190 710.5,-190 710.5,-204 710.5,-204 710.5,-210 704.5,-216 698.5,-216"/>
<text text-anchor="middle" x="624.5" y="-200.8" font-family="Times,serif" font-size="14.00">decode block 1</text>
<text text-anchor="middle" x="624.5" y="-185.8" font-family="Times,serif" font-size="14.00">n kernels: 2 &#160;&#160;spatial scale: 1</text>
</g>
<!-- 2&#45;&gt;4 -->
<g id="edge4" class="edge"><title>2&#45;&gt;4</title>
<path fill="none" stroke="black" d="M624.5,-251.831C624.5,-244.131 624.5,-234.974 624.5,-226.417"/>
<polygon fill="black" stroke="black" points="628,-226.413 624.5,-216.413 621,-226.413 628,-226.413"/>
</g>
<!-- 5 -->
<g id="node6" class="node"><title>5</title>
<path fill="#bfe6cf" stroke="black" d="M1386,-216C1386,-216 1311,-216 1311,-216 1305,-216 1299,-210 1299,-204 1299,-204 1299,-190 1299,-190 1299,-184 1305,-178 1311,-178 1311,-178 1386,-178 1386,-178 1392,-178 1398,-184 1398,-190 1398,-190 1398,-204 1398,-204 1398,-210 1392,-216 1386,-216"/>
<text text-anchor="middle" x="1348.5" y="-200.8" font-family="Times,serif" font-size="14.00">decode block 0</text>
<text text-anchor="middle" x="1348.5" y="-185.8" font-family="Times,serif" font-size="14.00">n kernels: &#45;6</text>
</g>
<!-- 2&#45;&gt;5 -->
<g id="edge5" class="edge"><title>2&#45;&gt;5</title>
<path fill="none" stroke="black" d="M668.159,-265.658C792.085,-253.334 1146.23,-218.116 1288.38,-203.979"/>
<polygon fill="black" stroke="black" points="1289.04,-207.431 1298.64,-202.958 1288.35,-200.465 1289.04,-207.431"/>
</g>
<!-- 6 -->
<g id="node7" class="node"><title>6</title>
<path fill="#d3e4ff" stroke="black" d="M149.5,-142C149.5,-142 93.5,-142 93.5,-142 87.5,-142 81.5,-136 81.5,-130 81.5,-130 81.5,-116 81.5,-116 81.5,-110 87.5,-104 93.5,-104 93.5,-104 149.5,-104 149.5,-104 155.5,-104 161.5,-110 161.5,-116 161.5,-116 161.5,-130 161.5,-130 161.5,-136 155.5,-142 149.5,-142"/>
<text text-anchor="middle" x="121.5" y="-126.8" font-family="Times,serif" font-size="14.00">comp 0</text>
<text text-anchor="middle" x="121.5" y="-111.8" font-family="Times,serif" font-size="14.00">n kernels: 4</text>
</g>
<!-- 3&#45;&gt;6 -->
<g id="edge6" class="edge"><title>3&#45;&gt;6</title>
<path fill="none" stroke="black" d="M229.085,-178.937C210.3,-169.345 186.604,-157.245 166.235,-146.843"/>
<polygon fill="black" stroke="black" points="167.638,-143.63 157.14,-142.199 164.454,-149.864 167.638,-143.63"/>
</g>
<!-- 7 -->
<g id="node8" class="node"><title>7</title>
<path fill="#bfcfe6" stroke="black" d="M293,-142C293,-142 232,-142 232,-142 226,-142 220,-136 220,-130 220,-130 220,-116 220,-116 220,-110 226,-104 232,-104 232,-104 293,-104 293,-104 299,-104 305,-110 305,-116 305,-116 305,-130 305,-130 305,-136 299,-142 293,-142"/>
<text text-anchor="middle" x="262.5" y="-126.8" font-family="Times,serif" font-size="14.00">comp 1</text>
<text text-anchor="middle" x="262.5" y="-111.8" font-family="Times,serif" font-size="14.00">n kernels: &#45;2</text>
</g>
<!-- 3&#45;&gt;7 -->
<g id="edge7" class="edge"><title>3&#45;&gt;7</title>
<path fill="none" stroke="black" d="M262.5,-178.937C262.5,-170.987 262.5,-161.313 262.5,-152.313"/>
<polygon fill="black" stroke="black" points="266,-152.199 262.5,-142.199 259,-152.199 266,-152.199"/>
</g>
<!-- 8 -->
<g id="node9" class="node"><title>8</title>
<path fill="#d3e4ff" stroke="black" d="M514,-142C514,-142 451,-142 451,-142 445,-142 439,-136 439,-130 439,-130 439,-116 439,-116 439,-110 445,-104 451,-104 451,-104 514,-104 514,-104 520,-104 526,-110 526,-116 526,-116 526,-130 526,-130 526,-136 520,-142 514,-142"/>
<text text-anchor="middle" x="482.5" y="-126.8" font-family="Times,serif" font-size="14.00">comp 0</text>
<text text-anchor="middle" x="482.5" y="-111.8" font-family="Times,serif" font-size="14.00">n kernels: 18</text>
</g>
<!-- 4&#45;&gt;8 -->
<g id="edge8" class="edge"><title>4&#45;&gt;8</title>
<path fill="none" stroke="black" d="M588.667,-177.831C570.084,-168.409 547.201,-156.806 527.444,-146.788"/>
<polygon fill="black" stroke="black" points="528.823,-143.564 518.321,-142.163 525.657,-149.807 528.823,-143.564"/>
</g>
<!-- 9 -->
<g id="node10" class="node"><title>9</title>
<path fill="#bfcfe6" stroke="black" d="M655,-142C655,-142 594,-142 594,-142 588,-142 582,-136 582,-130 582,-130 582,-116 582,-116 582,-110 588,-104 594,-104 594,-104 655,-104 655,-104 661,-104 667,-110 667,-116 667,-116 667,-130 667,-130 667,-136 661,-142 655,-142"/>
<text text-anchor="middle" x="624.5" y="-126.8" font-family="Times,serif" font-size="14.00">comp 1</text>
<text text-anchor="middle" x="624.5" y="-111.8" font-family="Times,serif" font-size="14.00">n kernels: &#45;5</text>
</g>
<!-- 4&#45;&gt;9 -->
<g id="edge9" class="edge"><title>4&#45;&gt;9</title>
<path fill="none" stroke="black" d="M624.5,-177.831C624.5,-170.131 624.5,-160.974 624.5,-152.417"/>
<polygon fill="black" stroke="black" points="628,-152.413 624.5,-142.413 621,-152.413 628,-152.413"/>
</g>
<!-- 10 -->
<g id="node11" class="node"><title>10</title>
<path fill="#abb9ce" stroke="black" d="M776.5,-141C776.5,-141 742.5,-141 742.5,-141 736.5,-141 730.5,-135 730.5,-129 730.5,-129 730.5,-117 730.5,-117 730.5,-111 736.5,-105 742.5,-105 742.5,-105 776.5,-105 776.5,-105 782.5,-105 788.5,-111 788.5,-117 788.5,-117 788.5,-129 788.5,-129 788.5,-135 782.5,-141 776.5,-141"/>
<text text-anchor="middle" x="759.5" y="-119.3" font-family="Times,serif" font-size="14.00">comp 2</text>
</g>
<!-- 4&#45;&gt;10 -->
<g id="edge10" class="edge"><title>4&#45;&gt;10</title>
<path fill="none" stroke="black" d="M658.566,-177.831C677.717,-167.618 701.671,-154.842 721.437,-144.3"/>
<polygon fill="black" stroke="black" points="723.3,-147.273 730.477,-139.479 720.006,-141.097 723.3,-147.273"/>
</g>
<!-- 11 -->
<g id="node12" class="node"><title>11</title>
<path fill="#d3e4ff" stroke="black" d="M1184.5,-141C1184.5,-141 1150.5,-141 1150.5,-141 1144.5,-141 1138.5,-135 1138.5,-129 1138.5,-129 1138.5,-117 1138.5,-117 1138.5,-111 1144.5,-105 1150.5,-105 1150.5,-105 1184.5,-105 1184.5,-105 1190.5,-105 1196.5,-111 1196.5,-117 1196.5,-117 1196.5,-129 1196.5,-129 1196.5,-135 1190.5,-141 1184.5,-141"/>
<text text-anchor="middle" x="1167.5" y="-119.3" font-family="Times,serif" font-size="14.00">comp 0</text>
</g>
<!-- 5&#45;&gt;11 -->
<g id="edge11" class="edge"><title>5&#45;&gt;11</title>
<path fill="none" stroke="black" d="M1302.83,-177.831C1273.04,-165.981 1234.58,-150.682 1206.27,-139.424"/>
<polygon fill="black" stroke="black" points="1207.3,-136.067 1196.72,-135.623 1204.72,-142.571 1207.3,-136.067"/>
</g>
<!-- 12 -->
<g id="node13" class="node"><title>12</title>
<path fill="#bfcfe6" stroke="black" d="M1365.5,-141C1365.5,-141 1331.5,-141 1331.5,-141 1325.5,-141 1319.5,-135 1319.5,-129 1319.5,-129 1319.5,-117 1319.5,-117 1319.5,-111 1325.5,-105 1331.5,-105 1331.5,-105 1365.5,-105 1365.5,-105 1371.5,-105 1377.5,-111 1377.5,-117 1377.5,-117 1377.5,-129 1377.5,-129 1377.5,-135 1371.5,-141 1365.5,-141"/>
<text text-anchor="middle" x="1348.5" y="-119.3" font-family="Times,serif" font-size="14.00">comp 1</text>
</g>
<!-- 5&#45;&gt;12 -->
<g id="edge12" class="edge"><title>5&#45;&gt;12</title>
<path fill="none" stroke="black" d="M1348.5,-177.831C1348.5,-169.894 1348.5,-160.409 1348.5,-151.628"/>
<polygon fill="black" stroke="black" points="1352,-151.418 1348.5,-141.418 1345,-151.418 1352,-151.418"/>
</g>
<!-- 13 -->
<g id="node14" class="node"><title>13</title>
<path fill="#abb9ce" stroke="black" d="M1511,-142C1511,-142 1450,-142 1450,-142 1444,-142 1438,-136 1438,-130 1438,-130 1438,-116 1438,-116 1438,-110 1444,-104 1450,-104 1450,-104 1511,-104 1511,-104 1517,-104 1523,-110 1523,-116 1523,-116 1523,-130 1523,-130 1523,-136 1517,-142 1511,-142"/>
<text text-anchor="middle" x="1480.5" y="-126.8" font-family="Times,serif" font-size="14.00">comp 2</text>
<text text-anchor="middle" x="1480.5" y="-111.8" font-family="Times,serif" font-size="14.00">n kernels: &#45;4</text>
</g>
<!-- 5&#45;&gt;13 -->
<g id="edge13" class="edge"><title>5&#45;&gt;13</title>
<path fill="none" stroke="black" d="M1381.81,-177.831C1398.93,-168.494 1419.97,-157.016 1438.22,-147.061"/>
<polygon fill="black" stroke="black" points="1440.1,-150.024 1447.2,-142.163 1436.75,-143.879 1440.1,-150.024"/>
</g>
<!-- 14 -->
<g id="node15" class="node"><title>14</title>
<path fill="#97a3b6" stroke="black" d="M1698,-142C1698,-142 1637,-142 1637,-142 1631,-142 1625,-136 1625,-130 1625,-130 1625,-116 1625,-116 1625,-110 1631,-104 1637,-104 1637,-104 1698,-104 1698,-104 1704,-104 1710,-110 1710,-116 1710,-116 1710,-130 1710,-130 1710,-136 1704,-142 1698,-142"/>
<text text-anchor="middle" x="1667.5" y="-126.8" font-family="Times,serif" font-size="14.00">comp 3</text>
<text text-anchor="middle" x="1667.5" y="-111.8" font-family="Times,serif" font-size="14.00">n kernels: &#45;5</text>
</g>
<!-- 5&#45;&gt;14 -->
<g id="edge14" class="edge"><title>5&#45;&gt;14</title>
<path fill="none" stroke="black" d="M1398.34,-184.75C1457.15,-171.477 1554.5,-149.505 1614.6,-135.94"/>
<polygon fill="black" stroke="black" points="1615.66,-139.289 1624.64,-133.673 1614.12,-132.46 1615.66,-139.289"/>
</g>
<!-- 15 -->
<g id="node16" class="node"><title>15</title>
<path fill="#f6d3ff" stroke="black" d="M151,-68C151,-68 12,-68 12,-68 6,-68 0,-62 0,-56 0,-56 0,-12 0,-12 0,-6 6,-0 12,-0 12,-0 151,-0 151,-0 157,-0 163,-6 163,-12 163,-12 163,-56 163,-56 163,-62 157,-68 151,-68"/>
<text text-anchor="middle" x="81.5" y="-52.8" font-family="Times,serif" font-size="14.00">forward</text>
<text text-anchor="middle" x="81.5" y="-37.8" font-family="Times,serif" font-size="14.00">input</text>
<text text-anchor="middle" x="81.5" y="-22.8" font-family="Times,serif" font-size="14.00">dilation rate: 1 &#160;&#160;k width: 3</text>
<text text-anchor="middle" x="81.5" y="-7.8" font-family="Times,serif" font-size="14.00">n kernels: 64</text>
</g>
<!-- 6&#45;&gt;15 -->
<g id="edge15" class="edge"><title>6&#45;&gt;15</title>
<path fill="none" stroke="black" d="M113.212,-103.974C109.642,-96.2092 105.304,-86.7732 100.997,-77.4049"/>
<polygon fill="black" stroke="black" points="104.087,-75.7473 96.7293,-68.1236 97.7266,-78.6714 104.087,-75.7473"/>
</g>
<!-- 16 -->
<g id="node17" class="node"><title>16</title>
<path fill="#f6d3ff" stroke="black" d="M332,-68C332,-68 193,-68 193,-68 187,-68 181,-62 181,-56 181,-56 181,-12 181,-12 181,-6 187,-0 193,-0 193,-0 332,-0 332,-0 338,-0 344,-6 344,-12 344,-12 344,-56 344,-56 344,-62 338,-68 332,-68"/>
<text text-anchor="middle" x="262.5" y="-52.8" font-family="Times,serif" font-size="14.00">forward</text>
<text text-anchor="middle" x="262.5" y="-37.8" font-family="Times,serif" font-size="14.00">EB0/C0</text>
<text text-anchor="middle" x="262.5" y="-22.8" font-family="Times,serif" font-size="14.00">dilation rate: 1 &#160;&#160;k width: 3</text>
<text text-anchor="middle" x="262.5" y="-7.8" font-family="Times,serif" font-size="14.00">n kernels: 64</text>
</g>
<!-- 7&#45;&gt;16 -->
<g id="edge16" class="edge"><title>7&#45;&gt;16</title>
<path fill="none" stroke="black" d="M262.5,-103.974C262.5,-96.4519 262.5,-87.3613 262.5,-78.2833"/>
<polygon fill="black" stroke="black" points="266,-78.1236 262.5,-68.1236 259,-78.1237 266,-78.1236"/>
</g>
<!-- 17 -->
<g id="node18" class="node"><title>17</title>
<path fill="#f6d3ff" stroke="black" d="M513,-68C513,-68 374,-68 374,-68 368,-68 362,-62 362,-56 362,-56 362,-12 362,-12 362,-6 368,-0 374,-0 374,-0 513,-0 513,-0 519,-0 525,-6 525,-12 525,-12 525,-56 525,-56 525,-62 519,-68 513,-68"/>
<text text-anchor="middle" x="443.5" y="-52.8" font-family="Times,serif" font-size="14.00">forward</text>
<text text-anchor="middle" x="443.5" y="-37.8" font-family="Times,serif" font-size="14.00">EB0/C1</text>
<text text-anchor="middle" x="443.5" y="-22.8" font-family="Times,serif" font-size="14.00">dilation rate: 1 &#160;&#160;k width: 3</text>
<text text-anchor="middle" x="443.5" y="-7.8" font-family="Times,serif" font-size="14.00">n kernels: 64</text>
</g>
<!-- 8&#45;&gt;17 -->
<g id="edge17" class="edge"><title>8&#45;&gt;17</title>
<path fill="none" stroke="black" d="M474.419,-103.974C470.939,-96.2092 466.709,-86.7732 462.509,-77.4049"/>
<polygon fill="black" stroke="black" points="465.633,-75.817 458.349,-68.1236 459.245,-78.6805 465.633,-75.817"/>
</g>
<!-- 18 -->
<g id="node19" class="node"><title>18</title>
<path fill="#f6d3ff" stroke="black" d="M694,-68C694,-68 555,-68 555,-68 549,-68 543,-62 543,-56 543,-56 543,-12 543,-12 543,-6 549,-0 555,-0 555,-0 694,-0 694,-0 700,-0 706,-6 706,-12 706,-12 706,-56 706,-56 706,-62 700,-68 694,-68"/>
<text text-anchor="middle" x="624.5" y="-52.8" font-family="Times,serif" font-size="14.00">forward</text>
<text text-anchor="middle" x="624.5" y="-37.8" font-family="Times,serif" font-size="14.00">DB1/C0</text>
<text text-anchor="middle" x="624.5" y="-22.8" font-family="Times,serif" font-size="14.00">dilation rate: 1 &#160;&#160;k width: 3</text>
<text text-anchor="middle" x="624.5" y="-7.8" font-family="Times,serif" font-size="14.00">n kernels: 64</text>
</g>
<!-- 9&#45;&gt;18 -->
<g id="edge18" class="edge"><title>9&#45;&gt;18</title>
<path fill="none" stroke="black" d="M624.5,-103.974C624.5,-96.4519 624.5,-87.3613 624.5,-78.2833"/>
<polygon fill="black" stroke="black" points="628,-78.1236 624.5,-68.1236 621,-78.1237 628,-78.1236"/>
</g>
<!-- 19 -->
<g id="node20" class="node"><title>19</title>
<path fill="#f6d3ff" stroke="black" d="M875,-68C875,-68 736,-68 736,-68 730,-68 724,-62 724,-56 724,-56 724,-12 724,-12 724,-6 730,-0 736,-0 736,-0 875,-0 875,-0 881,-0 887,-6 887,-12 887,-12 887,-56 887,-56 887,-62 881,-68 875,-68"/>
<text text-anchor="middle" x="805.5" y="-52.8" font-family="Times,serif" font-size="14.00">forward</text>
<text text-anchor="middle" x="805.5" y="-37.8" font-family="Times,serif" font-size="14.00">DB1/C1</text>
<text text-anchor="middle" x="805.5" y="-22.8" font-family="Times,serif" font-size="14.00">dilation rate: 1 &#160;&#160;k width: 3</text>
<text text-anchor="middle" x="805.5" y="-7.8" font-family="Times,serif" font-size="14.00">n kernels: 64</text>
</g>
<!-- 10&#45;&gt;19 -->
<g id="edge19" class="edge"><title>10&#45;&gt;19</title>
<path fill="none" stroke="black" d="M768.588,-104.812C772.838,-96.7738 778.103,-86.8162 783.312,-76.9638"/>
<polygon fill="black" stroke="black" points="786.47,-78.4797 788.05,-68.0034 780.282,-75.2078 786.47,-78.4797"/>
</g>
<!-- 20 -->
<g id="node21" class="node"><title>20</title>
<path fill="#f6d3ff" stroke="black" d="M1056,-68C1056,-68 917,-68 917,-68 911,-68 905,-62 905,-56 905,-56 905,-12 905,-12 905,-6 911,-0 917,-0 917,-0 1056,-0 1056,-0 1062,-0 1068,-6 1068,-12 1068,-12 1068,-56 1068,-56 1068,-62 1062,-68 1056,-68"/>
<text text-anchor="middle" x="986.5" y="-52.8" font-family="Times,serif" font-size="14.00">forward</text>
<text text-anchor="middle" x="986.5" y="-37.8" font-family="Times,serif" font-size="14.00">DB1/C2</text>
<text text-anchor="middle" x="986.5" y="-22.8" font-family="Times,serif" font-size="14.00">dilation rate: 1 &#160;&#160;k width: 3</text>
<text text-anchor="middle" x="986.5" y="-7.8" font-family="Times,serif" font-size="14.00">n kernels: 64</text>
</g>
<!-- 11&#45;&gt;20 -->
<g id="edge20" class="edge"><title>11&#45;&gt;20</title>
<path fill="none" stroke="black" d="M1138.42,-108.022C1118.4,-98.3973 1090.78,-85.122 1064.57,-72.5274"/>
<polygon fill="black" stroke="black" points="1065.91,-69.2858 1055.38,-68.1081 1062.88,-75.5949 1065.91,-69.2858"/>
</g>
<!-- 21 -->
<g id="node22" class="node"><title>21</title>
<path fill="#debfe6" stroke="black" d="M1237,-68C1237,-68 1098,-68 1098,-68 1092,-68 1086,-62 1086,-56 1086,-56 1086,-12 1086,-12 1086,-6 1092,-0 1098,-0 1098,-0 1237,-0 1237,-0 1243,-0 1249,-6 1249,-12 1249,-12 1249,-56 1249,-56 1249,-62 1243,-68 1237,-68"/>
<text text-anchor="middle" x="1167.5" y="-52.8" font-family="Times,serif" font-size="14.00">merge</text>
<text text-anchor="middle" x="1167.5" y="-37.8" font-family="Times,serif" font-size="14.00">EB0/C1</text>
<text text-anchor="middle" x="1167.5" y="-22.8" font-family="Times,serif" font-size="14.00">dilation rate: 1 &#160;&#160;k width: 3</text>
<text text-anchor="middle" x="1167.5" y="-7.8" font-family="Times,serif" font-size="14.00">n kernels: 64</text>
</g>
<!-- 11&#45;&gt;21 -->
<g id="edge21" class="edge"><title>11&#45;&gt;21</title>
<path fill="none" stroke="black" d="M1167.5,-104.812C1167.5,-97.1019 1167.5,-87.6259 1167.5,-78.1706"/>
<polygon fill="black" stroke="black" points="1171,-78.0034 1167.5,-68.0034 1164,-78.0034 1171,-78.0034"/>
</g>
<!-- 22 -->
<g id="node23" class="node"><title>22</title>
<path fill="#f6d3ff" stroke="black" d="M1418,-68C1418,-68 1279,-68 1279,-68 1273,-68 1267,-62 1267,-56 1267,-56 1267,-12 1267,-12 1267,-6 1273,-0 1279,-0 1279,-0 1418,-0 1418,-0 1424,-0 1430,-6 1430,-12 1430,-12 1430,-56 1430,-56 1430,-62 1424,-68 1418,-68"/>
<text text-anchor="middle" x="1348.5" y="-52.8" font-family="Times,serif" font-size="14.00">forward</text>
<text text-anchor="middle" x="1348.5" y="-37.8" font-family="Times,serif" font-size="14.00">DB0/C0</text>
<text text-anchor="middle" x="1348.5" y="-22.8" font-family="Times,serif" font-size="14.00">dilation rate: 1 &#160;&#160;k width: 3</text>
<text text-anchor="middle" x="1348.5" y="-7.8" font-family="Times,serif" font-size="14.00">n kernels: 64</text>
</g>
<!-- 12&#45;&gt;22 -->
<g id="edge22" class="edge"><title>12&#45;&gt;22</title>
<path fill="none" stroke="black" d="M1348.5,-104.812C1348.5,-97.1019 1348.5,-87.6259 1348.5,-78.1706"/>
<polygon fill="black" stroke="black" points="1352,-78.0034 1348.5,-68.0034 1345,-78.0034 1352,-78.0034"/>
</g>
<!-- 23 -->
<g id="node24" class="node"><title>23</title>
<path fill="#f6d3ff" stroke="black" d="M1599,-68C1599,-68 1460,-68 1460,-68 1454,-68 1448,-62 1448,-56 1448,-56 1448,-12 1448,-12 1448,-6 1454,-0 1460,-0 1460,-0 1599,-0 1599,-0 1605,-0 1611,-6 1611,-12 1611,-12 1611,-56 1611,-56 1611,-62 1605,-68 1599,-68"/>
<text text-anchor="middle" x="1529.5" y="-52.8" font-family="Times,serif" font-size="14.00">forward</text>
<text text-anchor="middle" x="1529.5" y="-37.8" font-family="Times,serif" font-size="14.00">DB0/C1</text>
<text text-anchor="middle" x="1529.5" y="-22.8" font-family="Times,serif" font-size="14.00">dilation rate: 1 &#160;&#160;k width: 3</text>
<text text-anchor="middle" x="1529.5" y="-7.8" font-family="Times,serif" font-size="14.00">n kernels: 64</text>
</g>
<!-- 13&#45;&gt;23 -->
<g id="edge23" class="edge"><title>13&#45;&gt;23</title>
<path fill="none" stroke="black" d="M1490.65,-103.974C1495.07,-96.1284 1500.45,-86.5764 1505.78,-77.1122"/>
<polygon fill="black" stroke="black" points="1508.99,-78.5543 1510.84,-68.1236 1502.89,-75.1191 1508.99,-78.5543"/>
</g>
<!-- 24 -->
<g id="node25" class="node"><title>24</title>
<path fill="#f6d3ff" stroke="black" d="M1780,-68C1780,-68 1641,-68 1641,-68 1635,-68 1629,-62 1629,-56 1629,-56 1629,-12 1629,-12 1629,-6 1635,-0 1641,-0 1641,-0 1780,-0 1780,-0 1786,-0 1792,-6 1792,-12 1792,-12 1792,-56 1792,-56 1792,-62 1786,-68 1780,-68"/>
<text text-anchor="middle" x="1710.5" y="-52.8" font-family="Times,serif" font-size="14.00">forward</text>
<text text-anchor="middle" x="1710.5" y="-37.8" font-family="Times,serif" font-size="14.00">DB0/C2</text>
<text text-anchor="middle" x="1710.5" y="-22.8" font-family="Times,serif" font-size="14.00">dilation rate: 1 &#160;&#160;k width: 3</text>
<text text-anchor="middle" x="1710.5" y="-7.8" font-family="Times,serif" font-size="14.00">n kernels: 64</text>
</g>
<!-- 14&#45;&gt;24 -->
<g id="edge24" class="edge"><title>14&#45;&gt;24</title>
<path fill="none" stroke="black" d="M1676.41,-103.974C1680.29,-96.1284 1685.01,-86.5764 1689.69,-77.1122"/>
<polygon fill="black" stroke="black" points="1692.84,-78.6393 1694.13,-68.1236 1686.56,-75.5376 1692.84,-78.6393"/>
</g>
</g>
</svg>
