<?xml version="1.0" encoding="UTF-8" standalone="no"?>
<!DOCTYPE svg PUBLIC "-//W3C//DTD SVG 1.1//EN"
 "http://www.w3.org/Graphics/SVG/1.1/DTD/svg11.dtd">
<!-- Generated by graphviz version 2.38.0 (20140413.2041)
 -->
<!-- Title: %3 Pages: 1 -->
<svg width="4063pt" height="418pt"
 viewBox="0.00 0.00 4063.00 418.00" xmlns="http://www.w3.org/2000/svg" xmlns:xlink="http://www.w3.org/1999/xlink">
<g id="graph0" class="graph" transform="scale(1 1) rotate(0) translate(4 414)">
<title>%3</title>
<polygon fill="none" stroke="none" points="-4,4 -4,-414 4059,-414 4059,4 -4,4"/>
<!-- 0 -->
<g id="node1" class="node"><title>0</title>
<path fill="#ffd3d3" stroke="black" d="M2799,-410C2799,-410 2608,-410 2608,-410 2602,-410 2596,-404 2596,-398 2596,-398 2596,-369 2596,-369 2596,-363 2602,-357 2608,-357 2608,-357 2799,-357 2799,-357 2805,-357 2811,-363 2811,-369 2811,-369 2811,-398 2811,-398 2811,-404 2805,-410 2799,-410"/>
<text text-anchor="middle" x="2703.5" y="-394.8" font-family="Times,serif" font-size="14.00">net</text>
<text text-anchor="middle" x="2703.5" y="-379.8" font-family="Times,serif" font-size="14.00">k width: 3 &#160;&#160;log gamma2: &#45;6.270919</text>
<text text-anchor="middle" x="2703.5" y="-364.8" font-family="Times,serif" font-size="14.00">n kernels: 31</text>
</g>
<!-- 1 -->
<g id="node2" class="node"><title>1</title>
<path fill="#e9ffd3" stroke="black" d="M1041.5,-313.5C1041.5,-313.5 839.5,-313.5 839.5,-313.5 833.5,-313.5 827.5,-307.5 827.5,-301.5 827.5,-301.5 827.5,-287.5 827.5,-287.5 827.5,-281.5 833.5,-275.5 839.5,-275.5 839.5,-275.5 1041.5,-275.5 1041.5,-275.5 1047.5,-275.5 1053.5,-281.5 1053.5,-287.5 1053.5,-287.5 1053.5,-301.5 1053.5,-301.5 1053.5,-307.5 1047.5,-313.5 1041.5,-313.5"/>
<text text-anchor="middle" x="940.5" y="-298.3" font-family="Times,serif" font-size="14.00">conv block 0</text>
<text text-anchor="middle" x="940.5" y="-283.3" font-family="Times,serif" font-size="14.00">log gamma2: 1.352467 &#160;&#160;n kernels: 20</text>
</g>
<!-- 0&#45;&gt;1 -->
<g id="edge1" class="edge"><title>0&#45;&gt;1</title>
<path fill="none" stroke="black" d="M2595.87,-377.189C2285.84,-361.889 1392.03,-317.782 1063.53,-301.571"/>
<polygon fill="black" stroke="black" points="1063.66,-298.074 1053.5,-301.076 1063.32,-305.065 1063.66,-298.074"/>
</g>
<!-- 2 -->
<g id="node3" class="node"><title>2</title>
<path fill="#e9ffd3" stroke="black" d="M2764.5,-321C2764.5,-321 2642.5,-321 2642.5,-321 2636.5,-321 2630.5,-315 2630.5,-309 2630.5,-309 2630.5,-280 2630.5,-280 2630.5,-274 2636.5,-268 2642.5,-268 2642.5,-268 2764.5,-268 2764.5,-268 2770.5,-268 2776.5,-274 2776.5,-280 2776.5,-280 2776.5,-309 2776.5,-309 2776.5,-315 2770.5,-321 2764.5,-321"/>
<text text-anchor="middle" x="2703.5" y="-305.8" font-family="Times,serif" font-size="14.00">conv block 1</text>
<text text-anchor="middle" x="2703.5" y="-290.8" font-family="Times,serif" font-size="14.00">n kernels: 31 &#160;&#160;pool z: 1</text>
<text text-anchor="middle" x="2703.5" y="-275.8" font-family="Times,serif" font-size="14.00">spatial scale: 1</text>
</g>
<!-- 0&#45;&gt;2 -->
<g id="edge2" class="edge"><title>0&#45;&gt;2</title>
<path fill="none" stroke="black" d="M2703.5,-356.868C2703.5,-348.886 2703.5,-339.932 2703.5,-331.384"/>
<polygon fill="black" stroke="black" points="2707,-331.25 2703.5,-321.25 2700,-331.25 2707,-331.25"/>
</g>
<!-- 3 -->
<g id="node4" class="node"><title>3</title>
<path fill="#e9ffd3" stroke="black" d="M3613,-312.5C3613,-312.5 3546,-312.5 3546,-312.5 3540,-312.5 3534,-306.5 3534,-300.5 3534,-300.5 3534,-288.5 3534,-288.5 3534,-282.5 3540,-276.5 3546,-276.5 3546,-276.5 3613,-276.5 3613,-276.5 3619,-276.5 3625,-282.5 3625,-288.5 3625,-288.5 3625,-300.5 3625,-300.5 3625,-306.5 3619,-312.5 3613,-312.5"/>
<text text-anchor="middle" x="3579.5" y="-290.8" font-family="Times,serif" font-size="14.00">path combine</text>
</g>
<!-- 0&#45;&gt;3 -->
<g id="edge3" class="edge"><title>0&#45;&gt;3</title>
<path fill="none" stroke="black" d="M2811.35,-371.788C2999.18,-353.134 3379.97,-315.316 3523.27,-301.084"/>
<polygon fill="black" stroke="black" points="3523.97,-304.532 3533.58,-300.061 3523.28,-297.567 3523.97,-304.532"/>
</g>
<!-- 4 -->
<g id="node5" class="node"><title>4</title>
<path fill="#d3ffff" stroke="black" d="M313.5,-202C313.5,-202 193.5,-202 193.5,-202 187.5,-202 181.5,-196 181.5,-190 181.5,-190 181.5,-176 181.5,-176 181.5,-170 187.5,-164 193.5,-164 193.5,-164 313.5,-164 313.5,-164 319.5,-164 325.5,-170 325.5,-176 325.5,-176 325.5,-190 325.5,-190 325.5,-196 319.5,-202 313.5,-202"/>
<text text-anchor="middle" x="253.5" y="-186.8" font-family="Times,serif" font-size="14.00">comp 0</text>
<text text-anchor="middle" x="253.5" y="-171.8" font-family="Times,serif" font-size="14.00">log gamma2: 1.037871</text>
</g>
<!-- 1&#45;&gt;4 -->
<g id="edge4" class="edge"><title>1&#45;&gt;4</title>
<path fill="none" stroke="black" d="M827.476,-284.112C724.884,-274.548 569.725,-257.479 436.5,-232 398.916,-224.812 357.641,-214.226 323.817,-204.822"/>
<polygon fill="black" stroke="black" points="324.603,-201.408 314.03,-202.077 322.713,-208.148 324.603,-201.408"/>
</g>
<!-- 5 -->
<g id="node6" class="node"><title>5</title>
<path fill="#bfe6e6" stroke="black" d="M653,-202C653,-202 458,-202 458,-202 452,-202 446,-196 446,-190 446,-190 446,-176 446,-176 446,-170 452,-164 458,-164 458,-164 653,-164 653,-164 659,-164 665,-170 665,-176 665,-176 665,-190 665,-190 665,-196 659,-202 653,-202"/>
<text text-anchor="middle" x="555.5" y="-186.8" font-family="Times,serif" font-size="14.00">comp 1</text>
<text text-anchor="middle" x="555.5" y="-171.8" font-family="Times,serif" font-size="14.00">log gamma1: 1.171055 &#160;&#160;n kernels: 6</text>
</g>
<!-- 1&#45;&gt;5 -->
<g id="edge5" class="edge"><title>1&#45;&gt;5</title>
<path fill="none" stroke="black" d="M876.925,-275.418C808.693,-256.012 700.467,-225.231 628.722,-204.826"/>
<polygon fill="black" stroke="black" points="629.425,-201.387 618.849,-202.017 627.51,-208.12 629.425,-201.387"/>
</g>
<!-- 6 -->
<g id="node7" class="node"><title>6</title>
<path fill="#abcece" stroke="black" d="M900,-202C900,-202 775,-202 775,-202 769,-202 763,-196 763,-190 763,-190 763,-176 763,-176 763,-170 769,-164 775,-164 775,-164 900,-164 900,-164 906,-164 912,-170 912,-176 912,-176 912,-190 912,-190 912,-196 906,-202 900,-202"/>
<text text-anchor="middle" x="837.5" y="-186.8" font-family="Times,serif" font-size="14.00">comp 2</text>
<text text-anchor="middle" x="837.5" y="-171.8" font-family="Times,serif" font-size="14.00">log gamma2: &#45;1.745459</text>
</g>
<!-- 1&#45;&gt;6 -->
<g id="edge6" class="edge"><title>1&#45;&gt;6</title>
<path fill="none" stroke="black" d="M923.492,-275.418C906.569,-257.428 880.452,-229.662 861.439,-209.449"/>
<polygon fill="black" stroke="black" points="863.935,-206.994 854.534,-202.109 858.836,-211.791 863.935,-206.994"/>
</g>
<!-- 7 -->
<g id="node8" class="node"><title>7</title>
<path fill="#97b6b6" stroke="black" d="M1102.5,-202C1102.5,-202 982.5,-202 982.5,-202 976.5,-202 970.5,-196 970.5,-190 970.5,-190 970.5,-176 970.5,-176 970.5,-170 976.5,-164 982.5,-164 982.5,-164 1102.5,-164 1102.5,-164 1108.5,-164 1114.5,-170 1114.5,-176 1114.5,-176 1114.5,-190 1114.5,-190 1114.5,-196 1108.5,-202 1102.5,-202"/>
<text text-anchor="middle" x="1042.5" y="-186.8" font-family="Times,serif" font-size="14.00">comp 3</text>
<text text-anchor="middle" x="1042.5" y="-171.8" font-family="Times,serif" font-size="14.00">log gamma1: 0.756411</text>
</g>
<!-- 1&#45;&gt;7 -->
<g id="edge7" class="edge"><title>1&#45;&gt;7</title>
<path fill="none" stroke="black" d="M957.343,-275.418C974.101,-257.428 999.965,-229.662 1018.79,-209.449"/>
<polygon fill="black" stroke="black" points="1021.38,-211.811 1025.63,-202.109 1016.25,-207.04 1021.38,-211.811"/>
</g>
<!-- 8 -->
<g id="node9" class="node"><title>8</title>
<path fill="#839e9e" stroke="black" d="M1389,-202C1389,-202 1264,-202 1264,-202 1258,-202 1252,-196 1252,-190 1252,-190 1252,-176 1252,-176 1252,-170 1258,-164 1264,-164 1264,-164 1389,-164 1389,-164 1395,-164 1401,-170 1401,-176 1401,-176 1401,-190 1401,-190 1401,-196 1395,-202 1389,-202"/>
<text text-anchor="middle" x="1326.5" y="-186.8" font-family="Times,serif" font-size="14.00">comp 4</text>
<text text-anchor="middle" x="1326.5" y="-171.8" font-family="Times,serif" font-size="14.00">log gamma1: &#45;0.052430</text>
</g>
<!-- 1&#45;&gt;8 -->
<g id="edge8" class="edge"><title>1&#45;&gt;8</title>
<path fill="none" stroke="black" d="M1004.24,-275.418C1072.65,-256.012 1181.16,-225.231 1253.09,-204.826"/>
<polygon fill="black" stroke="black" points="1254.32,-208.114 1262.99,-202.017 1252.41,-201.38 1254.32,-208.114"/>
</g>
<!-- 9 -->
<g id="node10" class="node"><title>9</title>
<path fill="#d3ffff" stroke="black" d="M1955.5,-202C1955.5,-202 1749.5,-202 1749.5,-202 1743.5,-202 1737.5,-196 1737.5,-190 1737.5,-190 1737.5,-176 1737.5,-176 1737.5,-170 1743.5,-164 1749.5,-164 1749.5,-164 1955.5,-164 1955.5,-164 1961.5,-164 1967.5,-170 1967.5,-176 1967.5,-176 1967.5,-190 1967.5,-190 1967.5,-196 1961.5,-202 1955.5,-202"/>
<text text-anchor="middle" x="1852.5" y="-186.8" font-family="Times,serif" font-size="14.00">comp 0</text>
<text text-anchor="middle" x="1852.5" y="-171.8" font-family="Times,serif" font-size="14.00">log gamma1: &#45;0.268405 &#160;&#160;n kernels: 17</text>
</g>
<!-- 2&#45;&gt;9 -->
<g id="edge9" class="edge"><title>2&#45;&gt;9</title>
<path fill="none" stroke="black" d="M2630.05,-289.544C2510.5,-282.415 2266.67,-264.988 2062.5,-232 2018.59,-224.906 1970.16,-214.045 1930.89,-204.447"/>
<polygon fill="black" stroke="black" points="1931.65,-201.032 1921.11,-202.037 1929.98,-207.828 1931.65,-201.032"/>
</g>
<!-- 10 -->
<g id="node11" class="node"><title>10</title>
<path fill="#bfe6e6" stroke="black" d="M2289.5,-202C2289.5,-202 2083.5,-202 2083.5,-202 2077.5,-202 2071.5,-196 2071.5,-190 2071.5,-190 2071.5,-176 2071.5,-176 2071.5,-170 2077.5,-164 2083.5,-164 2083.5,-164 2289.5,-164 2289.5,-164 2295.5,-164 2301.5,-170 2301.5,-176 2301.5,-176 2301.5,-190 2301.5,-190 2301.5,-196 2295.5,-202 2289.5,-202"/>
<text text-anchor="middle" x="2186.5" y="-186.8" font-family="Times,serif" font-size="14.00">comp 1</text>
<text text-anchor="middle" x="2186.5" y="-171.8" font-family="Times,serif" font-size="14.00">log gamma1: &#45;1.305352 &#160;&#160;n kernels: 17</text>
</g>
<!-- 2&#45;&gt;10 -->
<g id="edge10" class="edge"><title>2&#45;&gt;10</title>
<path fill="none" stroke="black" d="M2630.48,-278.519C2570.54,-266.177 2483.48,-248.145 2407.5,-232 2365.1,-222.992 2318.17,-212.826 2278.51,-204.178"/>
<polygon fill="black" stroke="black" points="2279.1,-200.725 2268.59,-202.013 2277.61,-207.564 2279.1,-200.725"/>
</g>
<!-- 11 -->
<g id="node12" class="node"><title>11</title>
<path fill="#abcece" stroke="black" d="M2462.5,-201C2462.5,-201 2428.5,-201 2428.5,-201 2422.5,-201 2416.5,-195 2416.5,-189 2416.5,-189 2416.5,-177 2416.5,-177 2416.5,-171 2422.5,-165 2428.5,-165 2428.5,-165 2462.5,-165 2462.5,-165 2468.5,-165 2474.5,-171 2474.5,-177 2474.5,-177 2474.5,-189 2474.5,-189 2474.5,-195 2468.5,-201 2462.5,-201"/>
<text text-anchor="middle" x="2445.5" y="-179.3" font-family="Times,serif" font-size="14.00">comp 2</text>
</g>
<!-- 2&#45;&gt;11 -->
<g id="edge11" class="edge"><title>2&#45;&gt;11</title>
<path fill="none" stroke="black" d="M2636.39,-267.86C2608.99,-257.134 2577.08,-244.317 2548.5,-232 2526.86,-222.673 2502.99,-211.599 2483.68,-202.44"/>
<polygon fill="black" stroke="black" points="2485.13,-199.254 2474.6,-198.113 2482.12,-205.574 2485.13,-199.254"/>
</g>
<!-- 12 -->
<g id="node13" class="node"><title>12</title>
<path fill="#97b6b6" stroke="black" d="M2837.5,-209.5C2837.5,-209.5 2569.5,-209.5 2569.5,-209.5 2563.5,-209.5 2557.5,-203.5 2557.5,-197.5 2557.5,-197.5 2557.5,-168.5 2557.5,-168.5 2557.5,-162.5 2563.5,-156.5 2569.5,-156.5 2569.5,-156.5 2837.5,-156.5 2837.5,-156.5 2843.5,-156.5 2849.5,-162.5 2849.5,-168.5 2849.5,-168.5 2849.5,-197.5 2849.5,-197.5 2849.5,-203.5 2843.5,-209.5 2837.5,-209.5"/>
<text text-anchor="middle" x="2703.5" y="-194.3" font-family="Times,serif" font-size="14.00">comp 3</text>
<text text-anchor="middle" x="2703.5" y="-179.3" font-family="Times,serif" font-size="14.00">log gamma1: &#45;1.444232 &#160;&#160;log gamma2: &#45;0.895069</text>
<text text-anchor="middle" x="2703.5" y="-164.3" font-family="Times,serif" font-size="14.00">n kernels: &#45;1</text>
</g>
<!-- 2&#45;&gt;12 -->
<g id="edge12" class="edge"><title>2&#45;&gt;12</title>
<path fill="none" stroke="black" d="M2703.5,-267.827C2703.5,-253.549 2703.5,-235.554 2703.5,-219.901"/>
<polygon fill="black" stroke="black" points="2707,-219.512 2703.5,-209.512 2700,-219.512 2707,-219.512"/>
</g>
<!-- 13 -->
<g id="node14" class="node"><title>13</title>
<path fill="#839e9e" stroke="black" d="M3139,-202C3139,-202 2880,-202 2880,-202 2874,-202 2868,-196 2868,-190 2868,-190 2868,-176 2868,-176 2868,-170 2874,-164 2880,-164 2880,-164 3139,-164 3139,-164 3145,-164 3151,-170 3151,-176 3151,-176 3151,-190 3151,-190 3151,-196 3145,-202 3139,-202"/>
<text text-anchor="middle" x="3009.5" y="-186.8" font-family="Times,serif" font-size="14.00">comp 4</text>
<text text-anchor="middle" x="3009.5" y="-171.8" font-family="Times,serif" font-size="14.00">log gamma1: 1.318413 &#160;&#160;log gamma2: 1.408189</text>
</g>
<!-- 2&#45;&gt;13 -->
<g id="edge13" class="edge"><title>2&#45;&gt;13</title>
<path fill="none" stroke="black" d="M2774.86,-267.965C2827.84,-249.006 2899.29,-223.438 2949.38,-205.514"/>
<polygon fill="black" stroke="black" points="2950.86,-208.7 2959.1,-202.036 2948.5,-202.11 2950.86,-208.7"/>
</g>
<!-- 14 -->
<g id="node15" class="node"><title>14</title>
<path fill="#6f8585" stroke="black" d="M3215.5,-201C3215.5,-201 3181.5,-201 3181.5,-201 3175.5,-201 3169.5,-195 3169.5,-189 3169.5,-189 3169.5,-177 3169.5,-177 3169.5,-171 3175.5,-165 3181.5,-165 3181.5,-165 3215.5,-165 3215.5,-165 3221.5,-165 3227.5,-171 3227.5,-177 3227.5,-177 3227.5,-189 3227.5,-189 3227.5,-195 3221.5,-201 3215.5,-201"/>
<text text-anchor="middle" x="3198.5" y="-179.3" font-family="Times,serif" font-size="14.00">comp 5</text>
</g>
<!-- 2&#45;&gt;14 -->
<g id="edge14" class="edge"><title>2&#45;&gt;14</title>
<path fill="none" stroke="black" d="M2776.67,-290.15C2888.44,-283.954 3095.49,-267.91 3159.5,-232 3169.05,-226.641 3177.18,-217.933 3183.51,-209.394"/>
<polygon fill="black" stroke="black" points="3186.46,-211.273 3189.22,-201.043 3180.69,-207.322 3186.46,-211.273"/>
</g>
<!-- 15 -->
<g id="node16" class="node"><title>15</title>
<path fill="#5b6d6d" stroke="black" d="M3397,-202C3397,-202 3258,-202 3258,-202 3252,-202 3246,-196 3246,-190 3246,-190 3246,-176 3246,-176 3246,-170 3252,-164 3258,-164 3258,-164 3397,-164 3397,-164 3403,-164 3409,-170 3409,-176 3409,-176 3409,-190 3409,-190 3409,-196 3403,-202 3397,-202"/>
<text text-anchor="middle" x="3327.5" y="-186.8" font-family="Times,serif" font-size="14.00">path end 1</text>
<text text-anchor="middle" x="3327.5" y="-171.8" font-family="Times,serif" font-size="14.00">k width: &#45;2 &#160;&#160;n kernels: &#45;11</text>
</g>
<!-- 2&#45;&gt;15 -->
<g id="edge15" class="edge"><title>2&#45;&gt;15</title>
<path fill="none" stroke="black" d="M2776.8,-293.519C2881.2,-291.663 3077.66,-281.157 3236.5,-232 3255.19,-226.217 3274.54,-216.599 3290.56,-207.484"/>
<polygon fill="black" stroke="black" points="3292.72,-210.277 3299.59,-202.208 3289.19,-204.234 3292.72,-210.277"/>
</g>
<!-- 16 -->
<g id="node17" class="node"><title>16</title>
<path fill="#d3ffff" stroke="black" d="M3720,-232C3720,-232 3439,-232 3439,-232 3433,-232 3427,-226 3427,-220 3427,-220 3427,-146 3427,-146 3427,-140 3433,-134 3439,-134 3439,-134 3720,-134 3720,-134 3726,-134 3732,-140 3732,-146 3732,-146 3732,-220 3732,-220 3732,-226 3726,-232 3720,-232"/>
<text text-anchor="middle" x="3579.5" y="-216.8" font-family="Times,serif" font-size="14.00">forward</text>
<text text-anchor="middle" x="3579.5" y="-201.8" font-family="Times,serif" font-size="14.00">CB0/C4</text>
<text text-anchor="middle" x="3579.5" y="-186.8" font-family="Times,serif" font-size="14.00">dilation rate: 1 &#160;&#160;k width: 3</text>
<text text-anchor="middle" x="3579.5" y="-171.8" font-family="Times,serif" font-size="14.00">log gamma1: &#45;11.000000 &#160;&#160;log gamma2: &#45;11.000000</text>
<text text-anchor="middle" x="3579.5" y="-156.8" font-family="Times,serif" font-size="14.00">log lambda1: &#45;11.000000 &#160;&#160;log lambda2: &#45;11.000000</text>
<text text-anchor="middle" x="3579.5" y="-141.8" font-family="Times,serif" font-size="14.00">n kernels: 64</text>
</g>
<!-- 3&#45;&gt;16 -->
<g id="edge16" class="edge"><title>3&#45;&gt;16</title>
<path fill="none" stroke="black" d="M3579.5,-276.391C3579.5,-266.993 3579.5,-254.728 3579.5,-242.22"/>
<polygon fill="black" stroke="black" points="3583,-242.188 3579.5,-232.188 3576,-242.188 3583,-242.188"/>
</g>
<!-- 17 -->
<g id="node18" class="node"><title>17</title>
<path fill="#bfe6e6" stroke="black" d="M4043,-232C4043,-232 3762,-232 3762,-232 3756,-232 3750,-226 3750,-220 3750,-220 3750,-146 3750,-146 3750,-140 3756,-134 3762,-134 3762,-134 4043,-134 4043,-134 4049,-134 4055,-140 4055,-146 4055,-146 4055,-220 4055,-220 4055,-226 4049,-232 4043,-232"/>
<text text-anchor="middle" x="3902.5" y="-216.8" font-family="Times,serif" font-size="14.00">residual 1</text>
<text text-anchor="middle" x="3902.5" y="-201.8" font-family="Times,serif" font-size="14.00">CB1/PE1</text>
<text text-anchor="middle" x="3902.5" y="-186.8" font-family="Times,serif" font-size="14.00">dilation rate: 1 &#160;&#160;k width: 3</text>
<text text-anchor="middle" x="3902.5" y="-171.8" font-family="Times,serif" font-size="14.00">log gamma1: &#45;11.000000 &#160;&#160;log gamma2: &#45;11.000000</text>
<text text-anchor="middle" x="3902.5" y="-156.8" font-family="Times,serif" font-size="14.00">log lambda1: &#45;11.000000 &#160;&#160;log lambda2: &#45;11.000000</text>
<text text-anchor="middle" x="3902.5" y="-141.8" font-family="Times,serif" font-size="14.00">n kernels: 64</text>
</g>
<!-- 3&#45;&gt;17 -->
<g id="edge17" class="edge"><title>3&#45;&gt;17</title>
<path fill="none" stroke="black" d="M3625.09,-278.044C3658.21,-266.816 3705.08,-250.928 3750.88,-235.402"/>
<polygon fill="black" stroke="black" points="3752.28,-238.621 3760.63,-232.096 3750.03,-231.991 3752.28,-238.621"/>
</g>
<!-- 18 -->
<g id="node19" class="node"><title>18</title>
<path fill="#e9d3ff" stroke="black" d="M293,-98C293,-98 12,-98 12,-98 6,-98 0,-92 0,-86 0,-86 0,-12 0,-12 0,-6 6,-0 12,-0 12,-0 293,-0 293,-0 299,-0 305,-6 305,-12 305,-12 305,-86 305,-86 305,-92 299,-98 293,-98"/>
<text text-anchor="middle" x="152.5" y="-82.8" font-family="Times,serif" font-size="14.00">forward</text>
<text text-anchor="middle" x="152.5" y="-67.8" font-family="Times,serif" font-size="14.00">input</text>
<text text-anchor="middle" x="152.5" y="-52.8" font-family="Times,serif" font-size="14.00">dilation rate: 1 &#160;&#160;k width: 3</text>
<text text-anchor="middle" x="152.5" y="-37.8" font-family="Times,serif" font-size="14.00">log gamma1: &#45;11.000000 &#160;&#160;log gamma2: &#45;11.000000</text>
<text text-anchor="middle" x="152.5" y="-22.8" font-family="Times,serif" font-size="14.00">log lambda1: &#45;11.000000 &#160;&#160;log lambda2: &#45;11.000000</text>
<text text-anchor="middle" x="152.5" y="-7.8" font-family="Times,serif" font-size="14.00">n kernels: 64</text>
</g>
<!-- 4&#45;&gt;18 -->
<g id="edge18" class="edge"><title>4&#45;&gt;18</title>
<path fill="none" stroke="black" d="M239.668,-163.923C228.269,-149.025 211.462,-127.059 195.64,-106.381"/>
<polygon fill="black" stroke="black" points="198.262,-104.049 189.406,-98.2336 192.703,-108.302 198.262,-104.049"/>
</g>
<!-- 19 -->
<g id="node20" class="node"><title>19</title>
<path fill="#e9d3ff" stroke="black" d="M616,-98C616,-98 335,-98 335,-98 329,-98 323,-92 323,-86 323,-86 323,-12 323,-12 323,-6 329,-0 335,-0 335,-0 616,-0 616,-0 622,-0 628,-6 628,-12 628,-12 628,-86 628,-86 628,-92 622,-98 616,-98"/>
<text text-anchor="middle" x="475.5" y="-82.8" font-family="Times,serif" font-size="14.00">forward</text>
<text text-anchor="middle" x="475.5" y="-67.8" font-family="Times,serif" font-size="14.00">CB0/C0</text>
<text text-anchor="middle" x="475.5" y="-52.8" font-family="Times,serif" font-size="14.00">dilation rate: 1 &#160;&#160;k width: 3</text>
<text text-anchor="middle" x="475.5" y="-37.8" font-family="Times,serif" font-size="14.00">log gamma1: &#45;11.000000 &#160;&#160;log gamma2: &#45;11.000000</text>
<text text-anchor="middle" x="475.5" y="-22.8" font-family="Times,serif" font-size="14.00">log lambda1: &#45;11.000000 &#160;&#160;log lambda2: &#45;11.000000</text>
<text text-anchor="middle" x="475.5" y="-7.8" font-family="Times,serif" font-size="14.00">n kernels: 64</text>
</g>
<!-- 5&#45;&gt;19 -->
<g id="edge19" class="edge"><title>5&#45;&gt;19</title>
<path fill="none" stroke="black" d="M544.544,-163.923C535.595,-149.157 522.438,-127.447 510.003,-106.93"/>
<polygon fill="black" stroke="black" points="512.909,-104.972 504.732,-98.2336 506.922,-108.6 512.909,-104.972"/>
</g>
<!-- 20 -->
<g id="node21" class="node"><title>20</title>
<path fill="#e9d3ff" stroke="black" d="M939,-98C939,-98 658,-98 658,-98 652,-98 646,-92 646,-86 646,-86 646,-12 646,-12 646,-6 652,-0 658,-0 658,-0 939,-0 939,-0 945,-0 951,-6 951,-12 951,-12 951,-86 951,-86 951,-92 945,-98 939,-98"/>
<text text-anchor="middle" x="798.5" y="-82.8" font-family="Times,serif" font-size="14.00">forward</text>
<text text-anchor="middle" x="798.5" y="-67.8" font-family="Times,serif" font-size="14.00">CB0/C1</text>
<text text-anchor="middle" x="798.5" y="-52.8" font-family="Times,serif" font-size="14.00">dilation rate: 1 &#160;&#160;k width: 3</text>
<text text-anchor="middle" x="798.5" y="-37.8" font-family="Times,serif" font-size="14.00">log gamma1: &#45;11.000000 &#160;&#160;log gamma2: &#45;11.000000</text>
<text text-anchor="middle" x="798.5" y="-22.8" font-family="Times,serif" font-size="14.00">log lambda1: &#45;11.000000 &#160;&#160;log lambda2: &#45;11.000000</text>
<text text-anchor="middle" x="798.5" y="-7.8" font-family="Times,serif" font-size="14.00">n kernels: 64</text>
</g>
<!-- 6&#45;&gt;20 -->
<g id="edge20" class="edge"><title>6&#45;&gt;20</title>
<path fill="none" stroke="black" d="M832.159,-163.923C827.874,-149.42 821.611,-128.221 815.645,-108.03"/>
<polygon fill="black" stroke="black" points="818.941,-106.832 812.751,-98.2336 812.228,-108.816 818.941,-106.832"/>
</g>
<!-- 21 -->
<g id="node22" class="node"><title>21</title>
<path fill="#e9d3ff" stroke="black" d="M1262,-98C1262,-98 981,-98 981,-98 975,-98 969,-92 969,-86 969,-86 969,-12 969,-12 969,-6 975,-0 981,-0 981,-0 1262,-0 1262,-0 1268,-0 1274,-6 1274,-12 1274,-12 1274,-86 1274,-86 1274,-92 1268,-98 1262,-98"/>
<text text-anchor="middle" x="1121.5" y="-82.8" font-family="Times,serif" font-size="14.00">forward</text>
<text text-anchor="middle" x="1121.5" y="-67.8" font-family="Times,serif" font-size="14.00">CB0/C2</text>
<text text-anchor="middle" x="1121.5" y="-52.8" font-family="Times,serif" font-size="14.00">dilation rate: 1 &#160;&#160;k width: 3</text>
<text text-anchor="middle" x="1121.5" y="-37.8" font-family="Times,serif" font-size="14.00">log gamma1: &#45;11.000000 &#160;&#160;log gamma2: &#45;11.000000</text>
<text text-anchor="middle" x="1121.5" y="-22.8" font-family="Times,serif" font-size="14.00">log lambda1: &#45;11.000000 &#160;&#160;log lambda2: &#45;11.000000</text>
<text text-anchor="middle" x="1121.5" y="-7.8" font-family="Times,serif" font-size="14.00">n kernels: 64</text>
</g>
<!-- 7&#45;&gt;21 -->
<g id="edge21" class="edge"><title>7&#45;&gt;21</title>
<path fill="none" stroke="black" d="M1053.32,-163.923C1062.16,-149.157 1075.15,-127.447 1087.43,-106.93"/>
<polygon fill="black" stroke="black" points="1090.5,-108.612 1092.63,-98.2336 1084.49,-105.017 1090.5,-108.612"/>
</g>
<!-- 22 -->
<g id="node23" class="node"><title>22</title>
<path fill="#e9d3ff" stroke="black" d="M1585,-98C1585,-98 1304,-98 1304,-98 1298,-98 1292,-92 1292,-86 1292,-86 1292,-12 1292,-12 1292,-6 1298,-0 1304,-0 1304,-0 1585,-0 1585,-0 1591,-0 1597,-6 1597,-12 1597,-12 1597,-86 1597,-86 1597,-92 1591,-98 1585,-98"/>
<text text-anchor="middle" x="1444.5" y="-82.8" font-family="Times,serif" font-size="14.00">forward</text>
<text text-anchor="middle" x="1444.5" y="-67.8" font-family="Times,serif" font-size="14.00">CB0/C3</text>
<text text-anchor="middle" x="1444.5" y="-52.8" font-family="Times,serif" font-size="14.00">dilation rate: 1 &#160;&#160;k width: 3</text>
<text text-anchor="middle" x="1444.5" y="-37.8" font-family="Times,serif" font-size="14.00">log gamma1: &#45;11.000000 &#160;&#160;log gamma2: &#45;11.000000</text>
<text text-anchor="middle" x="1444.5" y="-22.8" font-family="Times,serif" font-size="14.00">log lambda1: &#45;11.000000 &#160;&#160;log lambda2: &#45;11.000000</text>
<text text-anchor="middle" x="1444.5" y="-7.8" font-family="Times,serif" font-size="14.00">n kernels: 64</text>
</g>
<!-- 8&#45;&gt;22 -->
<g id="edge22" class="edge"><title>8&#45;&gt;22</title>
<path fill="none" stroke="black" d="M1342.66,-163.923C1356.1,-148.893 1375.96,-126.67 1394.59,-105.832"/>
<polygon fill="black" stroke="black" points="1397.33,-108.022 1401.38,-98.2336 1392.11,-103.356 1397.33,-108.022"/>
</g>
<!-- 23 -->
<g id="node24" class="node"><title>23</title>
<path fill="#e9d3ff" stroke="black" d="M1908,-98C1908,-98 1627,-98 1627,-98 1621,-98 1615,-92 1615,-86 1615,-86 1615,-12 1615,-12 1615,-6 1621,-0 1627,-0 1627,-0 1908,-0 1908,-0 1914,-0 1920,-6 1920,-12 1920,-12 1920,-86 1920,-86 1920,-92 1914,-98 1908,-98"/>
<text text-anchor="middle" x="1767.5" y="-82.8" font-family="Times,serif" font-size="14.00">forward</text>
<text text-anchor="middle" x="1767.5" y="-67.8" font-family="Times,serif" font-size="14.00">input</text>
<text text-anchor="middle" x="1767.5" y="-52.8" font-family="Times,serif" font-size="14.00">dilation rate: 1 &#160;&#160;k width: 3</text>
<text text-anchor="middle" x="1767.5" y="-37.8" font-family="Times,serif" font-size="14.00">log gamma1: &#45;11.000000 &#160;&#160;log gamma2: &#45;11.000000</text>
<text text-anchor="middle" x="1767.5" y="-22.8" font-family="Times,serif" font-size="14.00">log lambda1: &#45;11.000000 &#160;&#160;log lambda2: &#45;11.000000</text>
<text text-anchor="middle" x="1767.5" y="-7.8" font-family="Times,serif" font-size="14.00">n kernels: 64</text>
</g>
<!-- 9&#45;&gt;23 -->
<g id="edge23" class="edge"><title>9&#45;&gt;23</title>
<path fill="none" stroke="black" d="M1840.86,-163.923C1831.31,-149.091 1817.25,-127.253 1803.98,-106.655"/>
<polygon fill="black" stroke="black" points="1806.92,-104.746 1798.56,-98.2336 1801.03,-108.536 1806.92,-104.746"/>
</g>
<!-- 24 -->
<g id="node25" class="node"><title>24</title>
<path fill="#e9d3ff" stroke="black" d="M2231,-98C2231,-98 1950,-98 1950,-98 1944,-98 1938,-92 1938,-86 1938,-86 1938,-12 1938,-12 1938,-6 1944,-0 1950,-0 1950,-0 2231,-0 2231,-0 2237,-0 2243,-6 2243,-12 2243,-12 2243,-86 2243,-86 2243,-92 2237,-98 2231,-98"/>
<text text-anchor="middle" x="2090.5" y="-82.8" font-family="Times,serif" font-size="14.00">forward</text>
<text text-anchor="middle" x="2090.5" y="-67.8" font-family="Times,serif" font-size="14.00">CB1/C0</text>
<text text-anchor="middle" x="2090.5" y="-52.8" font-family="Times,serif" font-size="14.00">dilation rate: 1 &#160;&#160;k width: 3</text>
<text text-anchor="middle" x="2090.5" y="-37.8" font-family="Times,serif" font-size="14.00">log gamma1: &#45;11.000000 &#160;&#160;log gamma2: &#45;11.000000</text>
<text text-anchor="middle" x="2090.5" y="-22.8" font-family="Times,serif" font-size="14.00">log lambda1: &#45;11.000000 &#160;&#160;log lambda2: &#45;11.000000</text>
<text text-anchor="middle" x="2090.5" y="-7.8" font-family="Times,serif" font-size="14.00">n kernels: 64</text>
</g>
<!-- 10&#45;&gt;24 -->
<g id="edge24" class="edge"><title>10&#45;&gt;24</title>
<path fill="none" stroke="black" d="M2173.35,-163.923C2162.52,-149.025 2146.54,-127.059 2131.5,-106.381"/>
<polygon fill="black" stroke="black" points="2134.29,-104.262 2125.58,-98.2336 2128.63,-108.38 2134.29,-104.262"/>
</g>
<!-- 25 -->
<g id="node26" class="node"><title>25</title>
<path fill="#e9d3ff" stroke="black" d="M2554,-98C2554,-98 2273,-98 2273,-98 2267,-98 2261,-92 2261,-86 2261,-86 2261,-12 2261,-12 2261,-6 2267,-0 2273,-0 2273,-0 2554,-0 2554,-0 2560,-0 2566,-6 2566,-12 2566,-12 2566,-86 2566,-86 2566,-92 2560,-98 2554,-98"/>
<text text-anchor="middle" x="2413.5" y="-82.8" font-family="Times,serif" font-size="14.00">forward</text>
<text text-anchor="middle" x="2413.5" y="-67.8" font-family="Times,serif" font-size="14.00">CB1/C1</text>
<text text-anchor="middle" x="2413.5" y="-52.8" font-family="Times,serif" font-size="14.00">dilation rate: 1 &#160;&#160;k width: 3</text>
<text text-anchor="middle" x="2413.5" y="-37.8" font-family="Times,serif" font-size="14.00">log gamma1: &#45;11.000000 &#160;&#160;log gamma2: &#45;11.000000</text>
<text text-anchor="middle" x="2413.5" y="-22.8" font-family="Times,serif" font-size="14.00">log lambda1: &#45;11.000000 &#160;&#160;log lambda2: &#45;11.000000</text>
<text text-anchor="middle" x="2413.5" y="-7.8" font-family="Times,serif" font-size="14.00">n kernels: 64</text>
</g>
<!-- 11&#45;&gt;25 -->
<g id="edge25" class="edge"><title>11&#45;&gt;25</title>
<path fill="none" stroke="black" d="M2441.32,-164.743C2437.81,-150.27 2432.59,-128.73 2427.61,-108.21"/>
<polygon fill="black" stroke="black" points="2430.96,-107.147 2425.2,-98.2533 2424.15,-108.796 2430.96,-107.147"/>
</g>
<!-- 26 -->
<g id="node27" class="node"><title>26</title>
<path fill="#e9d3ff" stroke="black" d="M2877,-98C2877,-98 2596,-98 2596,-98 2590,-98 2584,-92 2584,-86 2584,-86 2584,-12 2584,-12 2584,-6 2590,-0 2596,-0 2596,-0 2877,-0 2877,-0 2883,-0 2889,-6 2889,-12 2889,-12 2889,-86 2889,-86 2889,-92 2883,-98 2877,-98"/>
<text text-anchor="middle" x="2736.5" y="-82.8" font-family="Times,serif" font-size="14.00">forward</text>
<text text-anchor="middle" x="2736.5" y="-67.8" font-family="Times,serif" font-size="14.00">CB1/C2</text>
<text text-anchor="middle" x="2736.5" y="-52.8" font-family="Times,serif" font-size="14.00">dilation rate: 1 &#160;&#160;k width: 3</text>
<text text-anchor="middle" x="2736.5" y="-37.8" font-family="Times,serif" font-size="14.00">log gamma1: &#45;11.000000 &#160;&#160;log gamma2: &#45;11.000000</text>
<text text-anchor="middle" x="2736.5" y="-22.8" font-family="Times,serif" font-size="14.00">log lambda1: &#45;11.000000 &#160;&#160;log lambda2: &#45;11.000000</text>
<text text-anchor="middle" x="2736.5" y="-7.8" font-family="Times,serif" font-size="14.00">n kernels: 64</text>
</g>
<!-- 12&#45;&gt;26 -->
<g id="edge26" class="edge"><title>12&#45;&gt;26</title>
<path fill="none" stroke="black" d="M2709.94,-156.236C2713.39,-142.438 2717.79,-124.845 2722.01,-107.965"/>
<polygon fill="black" stroke="black" points="2725.43,-108.693 2724.46,-98.1423 2718.64,-106.995 2725.43,-108.693"/>
</g>
<!-- 27 -->
<g id="node28" class="node"><title>27</title>
<path fill="#e9d3ff" stroke="black" d="M3200,-98C3200,-98 2919,-98 2919,-98 2913,-98 2907,-92 2907,-86 2907,-86 2907,-12 2907,-12 2907,-6 2913,-0 2919,-0 2919,-0 3200,-0 3200,-0 3206,-0 3212,-6 3212,-12 3212,-12 3212,-86 3212,-86 3212,-92 3206,-98 3200,-98"/>
<text text-anchor="middle" x="3059.5" y="-82.8" font-family="Times,serif" font-size="14.00">forward</text>
<text text-anchor="middle" x="3059.5" y="-67.8" font-family="Times,serif" font-size="14.00">CB1/C3</text>
<text text-anchor="middle" x="3059.5" y="-52.8" font-family="Times,serif" font-size="14.00">dilation rate: 1 &#160;&#160;k width: 3</text>
<text text-anchor="middle" x="3059.5" y="-37.8" font-family="Times,serif" font-size="14.00">log gamma1: &#45;11.000000 &#160;&#160;log gamma2: &#45;11.000000</text>
<text text-anchor="middle" x="3059.5" y="-22.8" font-family="Times,serif" font-size="14.00">log lambda1: &#45;11.000000 &#160;&#160;log lambda2: &#45;11.000000</text>
<text text-anchor="middle" x="3059.5" y="-7.8" font-family="Times,serif" font-size="14.00">n kernels: 64</text>
</g>
<!-- 13&#45;&gt;27 -->
<g id="edge27" class="edge"><title>13&#45;&gt;27</title>
<path fill="none" stroke="black" d="M3016.35,-163.923C3021.87,-149.355 3029.94,-128.028 3037.62,-107.755"/>
<polygon fill="black" stroke="black" points="3040.96,-108.825 3041.23,-98.2336 3034.41,-106.345 3040.96,-108.825"/>
</g>
<!-- 28 -->
<g id="node29" class="node"><title>28</title>
<path fill="#e9d3ff" stroke="black" d="M3523,-98C3523,-98 3242,-98 3242,-98 3236,-98 3230,-92 3230,-86 3230,-86 3230,-12 3230,-12 3230,-6 3236,-0 3242,-0 3242,-0 3523,-0 3523,-0 3529,-0 3535,-6 3535,-12 3535,-12 3535,-86 3535,-86 3535,-92 3529,-98 3523,-98"/>
<text text-anchor="middle" x="3382.5" y="-82.8" font-family="Times,serif" font-size="14.00">forward</text>
<text text-anchor="middle" x="3382.5" y="-67.8" font-family="Times,serif" font-size="14.00">CB1/C4</text>
<text text-anchor="middle" x="3382.5" y="-52.8" font-family="Times,serif" font-size="14.00">dilation rate: 1 &#160;&#160;k width: 3</text>
<text text-anchor="middle" x="3382.5" y="-37.8" font-family="Times,serif" font-size="14.00">log gamma1: &#45;11.000000 &#160;&#160;log gamma2: &#45;11.000000</text>
<text text-anchor="middle" x="3382.5" y="-22.8" font-family="Times,serif" font-size="14.00">log lambda1: &#45;11.000000 &#160;&#160;log lambda2: &#45;11.000000</text>
<text text-anchor="middle" x="3382.5" y="-7.8" font-family="Times,serif" font-size="14.00">n kernels: 64</text>
</g>
<!-- 14&#45;&gt;28 -->
<g id="edge28" class="edge"><title>14&#45;&gt;28</title>
<path fill="none" stroke="black" d="M3209.77,-164.664C3216.7,-154.885 3226.2,-142.885 3236.5,-134 3249.18,-123.064 3263.49,-112.818 3278.07,-103.5"/>
<polygon fill="black" stroke="black" points="3280.05,-106.39 3286.68,-98.1229 3276.34,-100.454 3280.05,-106.39"/>
</g>
<!-- 29 -->
<g id="node30" class="node"><title>29</title>
<path fill="#e9d3ff" stroke="black" d="M3846,-98C3846,-98 3565,-98 3565,-98 3559,-98 3553,-92 3553,-86 3553,-86 3553,-12 3553,-12 3553,-6 3559,-0 3565,-0 3565,-0 3846,-0 3846,-0 3852,-0 3858,-6 3858,-12 3858,-12 3858,-86 3858,-86 3858,-92 3852,-98 3846,-98"/>
<text text-anchor="middle" x="3705.5" y="-82.8" font-family="Times,serif" font-size="14.00">forward</text>
<text text-anchor="middle" x="3705.5" y="-67.8" font-family="Times,serif" font-size="14.00">CB1/C5</text>
<text text-anchor="middle" x="3705.5" y="-52.8" font-family="Times,serif" font-size="14.00">dilation rate: 1 &#160;&#160;k width: 3</text>
<text text-anchor="middle" x="3705.5" y="-37.8" font-family="Times,serif" font-size="14.00">log gamma1: &#45;11.000000 &#160;&#160;log gamma2: &#45;11.000000</text>
<text text-anchor="middle" x="3705.5" y="-22.8" font-family="Times,serif" font-size="14.00">log lambda1: &#45;11.000000 &#160;&#160;log lambda2: &#45;11.000000</text>
<text text-anchor="middle" x="3705.5" y="-7.8" font-family="Times,serif" font-size="14.00">n kernels: 64</text>
</g>
<!-- 15&#45;&gt;29 -->
<g id="edge29" class="edge"><title>15&#45;&gt;29</title>
<path fill="none" stroke="black" d="M3357.55,-163.906C3374.69,-154.12 3396.81,-142.362 3417.5,-134 3468.65,-113.325 3485.78,-114.118 3542.95,-98.1022"/>
<polygon fill="black" stroke="black" points="3544.23,-101.377 3552.88,-95.2645 3542.31,-94.646 3544.23,-101.377"/>
</g>
</g>
</svg>
