<?xml version="1.0" encoding="UTF-8" standalone="no"?>
<!DOCTYPE svg PUBLIC "-//W3C//DTD SVG 1.1//EN"
 "http://www.w3.org/Graphics/SVG/1.1/DTD/svg11.dtd">
<!-- Generated by graphviz version 2.38.0 (20140413.2041)
 -->
<!-- Title: %3 Pages: 1 -->
<svg width="2577pt" height="298pt"
 viewBox="0.00 0.00 2577.00 298.00" xmlns="http://www.w3.org/2000/svg" xmlns:xlink="http://www.w3.org/1999/xlink">
<g id="graph0" class="graph" transform="scale(1 1) rotate(0) translate(4 294)">
<title>%3</title>
<polygon fill="none" stroke="none" points="-4,4 -4,-294 2573,-294 2573,4 -4,4"/>
<!-- 0 -->
<g id="node1" class="node"><title>0</title>
<path fill="#ffd3d3" stroke="black" d="M1403.5,-290C1403.5,-290 1249.5,-290 1249.5,-290 1243.5,-290 1237.5,-284 1237.5,-278 1237.5,-278 1237.5,-249 1237.5,-249 1237.5,-243 1243.5,-237 1249.5,-237 1249.5,-237 1403.5,-237 1403.5,-237 1409.5,-237 1415.5,-243 1415.5,-249 1415.5,-249 1415.5,-278 1415.5,-278 1415.5,-284 1409.5,-290 1403.5,-290"/>
<text text-anchor="middle" x="1326.5" y="-274.8" font-family="Times,serif" font-size="14.00">net</text>
<text text-anchor="middle" x="1326.5" y="-259.8" font-family="Times,serif" font-size="14.00">dilation rate: 1 &#160;&#160;n kernels: 32</text>
<text text-anchor="middle" x="1326.5" y="-244.8" font-family="Times,serif" font-size="14.00">pooling type: 0</text>
</g>
<!-- 1 -->
<g id="node2" class="node"><title>1</title>
<path fill="#e9ffd3" stroke="black" d="M503.5,-201C503.5,-201 383.5,-201 383.5,-201 377.5,-201 371.5,-195 371.5,-189 371.5,-189 371.5,-175 371.5,-175 371.5,-169 377.5,-163 383.5,-163 383.5,-163 503.5,-163 503.5,-163 509.5,-163 515.5,-169 515.5,-175 515.5,-175 515.5,-189 515.5,-189 515.5,-195 509.5,-201 503.5,-201"/>
<text text-anchor="middle" x="443.5" y="-185.8" font-family="Times,serif" font-size="14.00">conv block 0</text>
<text text-anchor="middle" x="443.5" y="-170.8" font-family="Times,serif" font-size="14.00">log gamma1: 1.000000</text>
</g>
<!-- 0&#45;&gt;1 -->
<g id="edge1" class="edge"><title>0&#45;&gt;1</title>
<path fill="none" stroke="black" d="M1237.38,-254.476C1065.82,-239.03 691.948,-205.369 525.857,-190.415"/>
<polygon fill="black" stroke="black" points="525.975,-186.911 515.701,-189.501 525.347,-193.883 525.975,-186.911"/>
</g>
<!-- 2 -->
<g id="node3" class="node"><title>2</title>
<path fill="#e9ffd3" stroke="black" d="M1424,-201C1424,-201 1229,-201 1229,-201 1223,-201 1217,-195 1217,-189 1217,-189 1217,-175 1217,-175 1217,-169 1223,-163 1229,-163 1229,-163 1424,-163 1424,-163 1430,-163 1436,-169 1436,-175 1436,-175 1436,-189 1436,-189 1436,-195 1430,-201 1424,-201"/>
<text text-anchor="middle" x="1326.5" y="-185.8" font-family="Times,serif" font-size="14.00">conv block 1</text>
<text text-anchor="middle" x="1326.5" y="-170.8" font-family="Times,serif" font-size="14.00">log gamma2: 1.158963 &#160;&#160;n kernels: 4</text>
</g>
<!-- 0&#45;&gt;2 -->
<g id="edge2" class="edge"><title>0&#45;&gt;2</title>
<path fill="none" stroke="black" d="M1326.5,-236.908C1326.5,-228.738 1326.5,-219.649 1326.5,-211.298"/>
<polygon fill="black" stroke="black" points="1330,-211.239 1326.5,-201.239 1323,-211.239 1330,-211.239"/>
</g>
<!-- 3 -->
<g id="node4" class="node"><title>3</title>
<path fill="#e9ffd3" stroke="black" d="M2086,-201C2086,-201 2023,-201 2023,-201 2017,-201 2011,-195 2011,-189 2011,-189 2011,-175 2011,-175 2011,-169 2017,-163 2023,-163 2023,-163 2086,-163 2086,-163 2092,-163 2098,-169 2098,-175 2098,-175 2098,-189 2098,-189 2098,-195 2092,-201 2086,-201"/>
<text text-anchor="middle" x="2054.5" y="-185.8" font-family="Times,serif" font-size="14.00">conv block 2</text>
<text text-anchor="middle" x="2054.5" y="-170.8" font-family="Times,serif" font-size="14.00">n kernels: &#45;8</text>
</g>
<!-- 0&#45;&gt;3 -->
<g id="edge3" class="edge"><title>0&#45;&gt;3</title>
<path fill="none" stroke="black" d="M1415.77,-252.752C1568.84,-236.035 1876.89,-202.395 2000.94,-188.849"/>
<polygon fill="black" stroke="black" points="2001.39,-192.32 2010.95,-187.755 2000.63,-185.362 2001.39,-192.32"/>
</g>
<!-- 4 -->
<g id="node5" class="node"><title>4</title>
<path fill="#d3ffff" stroke="black" d="M46.5,-118.5C46.5,-118.5 12.5,-118.5 12.5,-118.5 6.5,-118.5 0.5,-112.5 0.5,-106.5 0.5,-106.5 0.5,-94.5 0.5,-94.5 0.5,-88.5 6.5,-82.5 12.5,-82.5 12.5,-82.5 46.5,-82.5 46.5,-82.5 52.5,-82.5 58.5,-88.5 58.5,-94.5 58.5,-94.5 58.5,-106.5 58.5,-106.5 58.5,-112.5 52.5,-118.5 46.5,-118.5"/>
<text text-anchor="middle" x="29.5" y="-96.8" font-family="Times,serif" font-size="14.00">comp 0</text>
</g>
<!-- 1&#45;&gt;4 -->
<g id="edge4" class="edge"><title>1&#45;&gt;4</title>
<path fill="none" stroke="black" d="M371.198,-180.382C293.419,-177.519 167.332,-166.44 66.5,-127 64.1478,-126.08 61.7988,-124.985 59.4898,-123.774"/>
<polygon fill="black" stroke="black" points="61.246,-120.746 50.8603,-118.651 57.6728,-126.765 61.246,-120.746"/>
</g>
<!-- 5 -->
<g id="node6" class="node"><title>5</title>
<path fill="#bfe6e6" stroke="black" d="M213,-119.5C213,-119.5 88,-119.5 88,-119.5 82,-119.5 76,-113.5 76,-107.5 76,-107.5 76,-93.5 76,-93.5 76,-87.5 82,-81.5 88,-81.5 88,-81.5 213,-81.5 213,-81.5 219,-81.5 225,-87.5 225,-93.5 225,-93.5 225,-107.5 225,-107.5 225,-113.5 219,-119.5 213,-119.5"/>
<text text-anchor="middle" x="150.5" y="-104.3" font-family="Times,serif" font-size="14.00">comp 1</text>
<text text-anchor="middle" x="150.5" y="-89.3" font-family="Times,serif" font-size="14.00">log gamma2: &#45;0.020930</text>
</g>
<!-- 1&#45;&gt;5 -->
<g id="edge5" class="edge"><title>1&#45;&gt;5</title>
<path fill="none" stroke="black" d="M371.356,-163.327C330.737,-153.157 279.151,-139.875 233.5,-127 228.331,-125.542 222.994,-123.997 217.635,-122.415"/>
<polygon fill="black" stroke="black" points="218.58,-119.045 207.996,-119.542 216.58,-125.753 218.58,-119.045"/>
</g>
<!-- 6 -->
<g id="node7" class="node"><title>6</title>
<path fill="#abcece" stroke="black" d="M454.5,-119.5C454.5,-119.5 254.5,-119.5 254.5,-119.5 248.5,-119.5 242.5,-113.5 242.5,-107.5 242.5,-107.5 242.5,-93.5 242.5,-93.5 242.5,-87.5 248.5,-81.5 254.5,-81.5 254.5,-81.5 454.5,-81.5 454.5,-81.5 460.5,-81.5 466.5,-87.5 466.5,-93.5 466.5,-93.5 466.5,-107.5 466.5,-107.5 466.5,-113.5 460.5,-119.5 454.5,-119.5"/>
<text text-anchor="middle" x="354.5" y="-104.3" font-family="Times,serif" font-size="14.00">comp 2</text>
<text text-anchor="middle" x="354.5" y="-89.3" font-family="Times,serif" font-size="14.00">log gamma2: 0.832360 &#160;&#160;n kernels: &#45;4</text>
</g>
<!-- 1&#45;&gt;6 -->
<g id="edge6" class="edge"><title>1&#45;&gt;6</title>
<path fill="none" stroke="black" d="M423.305,-162.96C411.215,-152.161 395.672,-138.277 382.419,-126.439"/>
<polygon fill="black" stroke="black" points="384.713,-123.795 374.924,-119.744 380.05,-129.016 384.713,-123.795"/>
</g>
<!-- 7 -->
<g id="node8" class="node"><title>7</title>
<path fill="#97b6b6" stroke="black" d="M568.5,-119.5C568.5,-119.5 496.5,-119.5 496.5,-119.5 490.5,-119.5 484.5,-113.5 484.5,-107.5 484.5,-107.5 484.5,-93.5 484.5,-93.5 484.5,-87.5 490.5,-81.5 496.5,-81.5 496.5,-81.5 568.5,-81.5 568.5,-81.5 574.5,-81.5 580.5,-87.5 580.5,-93.5 580.5,-93.5 580.5,-107.5 580.5,-107.5 580.5,-113.5 574.5,-119.5 568.5,-119.5"/>
<text text-anchor="middle" x="532.5" y="-104.3" font-family="Times,serif" font-size="14.00">comp 3</text>
<text text-anchor="middle" x="532.5" y="-89.3" font-family="Times,serif" font-size="14.00">dilation rate: 1</text>
</g>
<!-- 1&#45;&gt;7 -->
<g id="edge7" class="edge"><title>1&#45;&gt;7</title>
<path fill="none" stroke="black" d="M463.695,-162.96C475.785,-152.161 491.328,-138.277 504.581,-126.439"/>
<polygon fill="black" stroke="black" points="506.95,-129.016 512.076,-119.744 502.287,-123.795 506.95,-129.016"/>
</g>
<!-- 8 -->
<g id="node9" class="node"><title>8</title>
<path fill="#839e9e" stroke="black" d="M644.5,-118.5C644.5,-118.5 610.5,-118.5 610.5,-118.5 604.5,-118.5 598.5,-112.5 598.5,-106.5 598.5,-106.5 598.5,-94.5 598.5,-94.5 598.5,-88.5 604.5,-82.5 610.5,-82.5 610.5,-82.5 644.5,-82.5 644.5,-82.5 650.5,-82.5 656.5,-88.5 656.5,-94.5 656.5,-94.5 656.5,-106.5 656.5,-106.5 656.5,-112.5 650.5,-118.5 644.5,-118.5"/>
<text text-anchor="middle" x="627.5" y="-96.8" font-family="Times,serif" font-size="14.00">identity</text>
</g>
<!-- 1&#45;&gt;8 -->
<g id="edge8" class="edge"><title>1&#45;&gt;8</title>
<path fill="none" stroke="black" d="M502.045,-162.898C529.275,-153.59 561.708,-141.21 589.5,-127 591.304,-126.078 593.125,-125.086 594.943,-124.048"/>
<polygon fill="black" stroke="black" points="597.19,-126.777 603.902,-118.579 593.543,-120.802 597.19,-126.777"/>
</g>
<!-- 9 -->
<g id="node10" class="node"><title>9</title>
<path fill="#d3ffff" stroke="black" d="M950,-127C950,-127 687,-127 687,-127 681,-127 675,-121 675,-115 675,-115 675,-86 675,-86 675,-80 681,-74 687,-74 687,-74 950,-74 950,-74 956,-74 962,-80 962,-86 962,-86 962,-115 962,-115 962,-121 956,-127 950,-127"/>
<text text-anchor="middle" x="818.5" y="-111.8" font-family="Times,serif" font-size="14.00">comp 0</text>
<text text-anchor="middle" x="818.5" y="-96.8" font-family="Times,serif" font-size="14.00">log gamma1: 1.000000 &#160;&#160;log gamma2: &#45;1.017387</text>
<text text-anchor="middle" x="818.5" y="-81.8" font-family="Times,serif" font-size="14.00">n kernels: 7</text>
</g>
<!-- 2&#45;&gt;9 -->
<g id="edge9" class="edge"><title>2&#45;&gt;9</title>
<path fill="none" stroke="black" d="M1216.97,-164.84C1149.14,-154.724 1059.97,-141.232 972.235,-127.269"/>
<polygon fill="black" stroke="black" points="972.526,-123.771 962.099,-125.652 971.423,-130.683 972.526,-123.771"/>
</g>
<!-- 10 -->
<g id="node11" class="node"><title>10</title>
<path fill="#bfe6e6" stroke="black" d="M1187,-119.5C1187,-119.5 992,-119.5 992,-119.5 986,-119.5 980,-113.5 980,-107.5 980,-107.5 980,-93.5 980,-93.5 980,-87.5 986,-81.5 992,-81.5 992,-81.5 1187,-81.5 1187,-81.5 1193,-81.5 1199,-87.5 1199,-93.5 1199,-93.5 1199,-107.5 1199,-107.5 1199,-113.5 1193,-119.5 1187,-119.5"/>
<text text-anchor="middle" x="1089.5" y="-104.3" font-family="Times,serif" font-size="14.00">comp 1</text>
<text text-anchor="middle" x="1089.5" y="-89.3" font-family="Times,serif" font-size="14.00">log gamma1: 1.000000 &#160;&#160;n kernels: 3</text>
</g>
<!-- 2&#45;&gt;10 -->
<g id="edge10" class="edge"><title>2&#45;&gt;10</title>
<path fill="none" stroke="black" d="M1272.72,-162.96C1237.24,-151.059 1190.6,-135.412 1153.25,-122.885"/>
<polygon fill="black" stroke="black" points="1154.07,-119.468 1143.48,-119.606 1151.84,-126.104 1154.07,-119.468"/>
</g>
<!-- 11 -->
<g id="node12" class="node"><title>11</title>
<path fill="#abcece" stroke="black" d="M1424,-119.5C1424,-119.5 1229,-119.5 1229,-119.5 1223,-119.5 1217,-113.5 1217,-107.5 1217,-107.5 1217,-93.5 1217,-93.5 1217,-87.5 1223,-81.5 1229,-81.5 1229,-81.5 1424,-81.5 1424,-81.5 1430,-81.5 1436,-87.5 1436,-93.5 1436,-93.5 1436,-107.5 1436,-107.5 1436,-113.5 1430,-119.5 1424,-119.5"/>
<text text-anchor="middle" x="1326.5" y="-104.3" font-family="Times,serif" font-size="14.00">comp 2</text>
<text text-anchor="middle" x="1326.5" y="-89.3" font-family="Times,serif" font-size="14.00">log gamma1: 1.000000 &#160;&#160;n kernels: 8</text>
</g>
<!-- 2&#45;&gt;11 -->
<g id="edge11" class="edge"><title>2&#45;&gt;11</title>
<path fill="none" stroke="black" d="M1326.5,-162.96C1326.5,-153.17 1326.5,-140.845 1326.5,-129.807"/>
<polygon fill="black" stroke="black" points="1330,-129.744 1326.5,-119.744 1323,-129.744 1330,-129.744"/>
</g>
<!-- 12 -->
<g id="node13" class="node"><title>12</title>
<path fill="#97b6b6" stroke="black" d="M1527,-119.5C1527,-119.5 1466,-119.5 1466,-119.5 1460,-119.5 1454,-113.5 1454,-107.5 1454,-107.5 1454,-93.5 1454,-93.5 1454,-87.5 1460,-81.5 1466,-81.5 1466,-81.5 1527,-81.5 1527,-81.5 1533,-81.5 1539,-87.5 1539,-93.5 1539,-93.5 1539,-107.5 1539,-107.5 1539,-113.5 1533,-119.5 1527,-119.5"/>
<text text-anchor="middle" x="1496.5" y="-104.3" font-family="Times,serif" font-size="14.00">comp 3</text>
<text text-anchor="middle" x="1496.5" y="-89.3" font-family="Times,serif" font-size="14.00">n kernels: &#45;9</text>
</g>
<!-- 2&#45;&gt;12 -->
<g id="edge12" class="edge"><title>2&#45;&gt;12</title>
<path fill="none" stroke="black" d="M1366.77,-162.895C1389.63,-152.533 1418.75,-139.205 1444.5,-127 1446.53,-126.038 1448.6,-125.049 1450.69,-124.047"/>
<polygon fill="black" stroke="black" points="1452.43,-127.095 1459.91,-119.595 1449.38,-120.792 1452.43,-127.095"/>
</g>
<!-- 13 -->
<g id="node14" class="node"><title>13</title>
<path fill="#839e9e" stroke="black" d="M1603.5,-118.5C1603.5,-118.5 1569.5,-118.5 1569.5,-118.5 1563.5,-118.5 1557.5,-112.5 1557.5,-106.5 1557.5,-106.5 1557.5,-94.5 1557.5,-94.5 1557.5,-88.5 1563.5,-82.5 1569.5,-82.5 1569.5,-82.5 1603.5,-82.5 1603.5,-82.5 1609.5,-82.5 1615.5,-88.5 1615.5,-94.5 1615.5,-94.5 1615.5,-106.5 1615.5,-106.5 1615.5,-112.5 1609.5,-118.5 1603.5,-118.5"/>
<text text-anchor="middle" x="1586.5" y="-96.8" font-family="Times,serif" font-size="14.00">identity</text>
</g>
<!-- 2&#45;&gt;13 -->
<g id="edge13" class="edge"><title>2&#45;&gt;13</title>
<path fill="none" stroke="black" d="M1431.48,-162.983C1468.99,-154.574 1510.99,-142.839 1547.5,-127 1549.61,-126.084 1551.73,-125.057 1553.84,-123.955"/>
<polygon fill="black" stroke="black" points="1555.96,-126.774 1562.88,-118.753 1552.47,-120.707 1555.96,-126.774"/>
</g>
<!-- 14 -->
<g id="node15" class="node"><title>14</title>
<path fill="#d3ffff" stroke="black" d="M1778.5,-119.5C1778.5,-119.5 1658.5,-119.5 1658.5,-119.5 1652.5,-119.5 1646.5,-113.5 1646.5,-107.5 1646.5,-107.5 1646.5,-93.5 1646.5,-93.5 1646.5,-87.5 1652.5,-81.5 1658.5,-81.5 1658.5,-81.5 1778.5,-81.5 1778.5,-81.5 1784.5,-81.5 1790.5,-87.5 1790.5,-93.5 1790.5,-93.5 1790.5,-107.5 1790.5,-107.5 1790.5,-113.5 1784.5,-119.5 1778.5,-119.5"/>
<text text-anchor="middle" x="1718.5" y="-104.3" font-family="Times,serif" font-size="14.00">comp 0</text>
<text text-anchor="middle" x="1718.5" y="-89.3" font-family="Times,serif" font-size="14.00">log gamma2: 1.945394</text>
</g>
<!-- 3&#45;&gt;14 -->
<g id="edge14" class="edge"><title>3&#45;&gt;14</title>
<path fill="none" stroke="black" d="M2010.89,-173.09C1959.87,-163.533 1873.03,-146.312 1799.5,-127 1794.15,-125.596 1788.63,-124.055 1783.11,-122.45"/>
<polygon fill="black" stroke="black" points="1783.77,-118.996 1773.19,-119.503 1781.78,-125.706 1783.77,-118.996"/>
</g>
<!-- 15 -->
<g id="node16" class="node"><title>15</title>
<path fill="#bfe6e6" stroke="black" d="M2084,-119.5C2084,-119.5 1821,-119.5 1821,-119.5 1815,-119.5 1809,-113.5 1809,-107.5 1809,-107.5 1809,-93.5 1809,-93.5 1809,-87.5 1815,-81.5 1821,-81.5 1821,-81.5 2084,-81.5 2084,-81.5 2090,-81.5 2096,-87.5 2096,-93.5 2096,-93.5 2096,-107.5 2096,-107.5 2096,-113.5 2090,-119.5 2084,-119.5"/>
<text text-anchor="middle" x="1952.5" y="-104.3" font-family="Times,serif" font-size="14.00">comp 1</text>
<text text-anchor="middle" x="1952.5" y="-89.3" font-family="Times,serif" font-size="14.00">log gamma1: 1.000000 &#160;&#160;log gamma2: &#45;0.376664</text>
</g>
<!-- 3&#45;&gt;15 -->
<g id="edge15" class="edge"><title>3&#45;&gt;15</title>
<path fill="none" stroke="black" d="M2031.35,-162.96C2017.37,-152.06 1999.35,-138.017 1984.07,-126.107"/>
<polygon fill="black" stroke="black" points="1985.95,-123.13 1975.91,-119.744 1981.64,-128.652 1985.95,-123.13"/>
</g>
<!-- 16 -->
<g id="node17" class="node"><title>16</title>
<path fill="#abcece" stroke="black" d="M2187,-119.5C2187,-119.5 2126,-119.5 2126,-119.5 2120,-119.5 2114,-113.5 2114,-107.5 2114,-107.5 2114,-93.5 2114,-93.5 2114,-87.5 2120,-81.5 2126,-81.5 2126,-81.5 2187,-81.5 2187,-81.5 2193,-81.5 2199,-87.5 2199,-93.5 2199,-93.5 2199,-107.5 2199,-107.5 2199,-113.5 2193,-119.5 2187,-119.5"/>
<text text-anchor="middle" x="2156.5" y="-104.3" font-family="Times,serif" font-size="14.00">comp 2</text>
<text text-anchor="middle" x="2156.5" y="-89.3" font-family="Times,serif" font-size="14.00">n kernels: &#45;8</text>
</g>
<!-- 3&#45;&gt;16 -->
<g id="edge16" class="edge"><title>3&#45;&gt;16</title>
<path fill="none" stroke="black" d="M2077.65,-162.96C2091.63,-152.06 2109.65,-138.017 2124.93,-126.107"/>
<polygon fill="black" stroke="black" points="2127.36,-128.652 2133.09,-119.744 2123.05,-123.13 2127.36,-128.652"/>
</g>
<!-- 17 -->
<g id="node18" class="node"><title>17</title>
<path fill="#97b6b6" stroke="black" d="M2440,-127C2440,-127 2229,-127 2229,-127 2223,-127 2217,-121 2217,-115 2217,-115 2217,-86 2217,-86 2217,-80 2223,-74 2229,-74 2229,-74 2440,-74 2440,-74 2446,-74 2452,-80 2452,-86 2452,-86 2452,-115 2452,-115 2452,-121 2446,-127 2440,-127"/>
<text text-anchor="middle" x="2334.5" y="-111.8" font-family="Times,serif" font-size="14.00">comp 3</text>
<text text-anchor="middle" x="2334.5" y="-96.8" font-family="Times,serif" font-size="14.00">dilation rate: 1 &#160;&#160;log gamma1: 1.000000</text>
<text text-anchor="middle" x="2334.5" y="-81.8" font-family="Times,serif" font-size="14.00">log gamma2: 1.864662</text>
</g>
<!-- 3&#45;&gt;17 -->
<g id="edge17" class="edge"><title>3&#45;&gt;17</title>
<path fill="none" stroke="black" d="M2098.25,-168.578C2134.65,-158.243 2187.88,-143.13 2234.6,-129.865"/>
<polygon fill="black" stroke="black" points="2235.8,-133.163 2244.46,-127.065 2233.89,-126.429 2235.8,-133.163"/>
</g>
<!-- 18 -->
<g id="node19" class="node"><title>18</title>
<path fill="#839e9e" stroke="black" d="M2516.5,-118.5C2516.5,-118.5 2482.5,-118.5 2482.5,-118.5 2476.5,-118.5 2470.5,-112.5 2470.5,-106.5 2470.5,-106.5 2470.5,-94.5 2470.5,-94.5 2470.5,-88.5 2476.5,-82.5 2482.5,-82.5 2482.5,-82.5 2516.5,-82.5 2516.5,-82.5 2522.5,-82.5 2528.5,-88.5 2528.5,-94.5 2528.5,-94.5 2528.5,-106.5 2528.5,-106.5 2528.5,-112.5 2522.5,-118.5 2516.5,-118.5"/>
<text text-anchor="middle" x="2499.5" y="-96.8" font-family="Times,serif" font-size="14.00">identity</text>
</g>
<!-- 3&#45;&gt;18 -->
<g id="edge18" class="edge"><title>3&#45;&gt;18</title>
<path fill="none" stroke="black" d="M2098.09,-181.451C2174.12,-180.89 2334.85,-173.672 2460.5,-127 2463.04,-126.055 2465.59,-124.921 2468.09,-123.662"/>
<polygon fill="black" stroke="black" points="2469.92,-126.649 2476.9,-118.679 2466.47,-120.557 2469.92,-126.649"/>
</g>
<!-- 19 -->
<g id="node20" class="node"><title>19</title>
<path fill="#e9d3ff" stroke="black" d="M47,-38C47,-38 12,-38 12,-38 6,-38 0,-32 0,-26 0,-26 0,-12 0,-12 0,-6 6,-0 12,-0 12,-0 47,-0 47,-0 53,-0 59,-6 59,-12 59,-12 59,-26 59,-26 59,-32 53,-38 47,-38"/>
<text text-anchor="middle" x="29.5" y="-22.8" font-family="Times,serif" font-size="14.00">forward</text>
<text text-anchor="middle" x="29.5" y="-7.8" font-family="Times,serif" font-size="14.00">input</text>
</g>
<!-- 4&#45;&gt;19 -->
<g id="edge19" class="edge"><title>4&#45;&gt;19</title>
<path fill="none" stroke="black" d="M29.5,-82.2497C29.5,-72.352 29.5,-59.6794 29.5,-48.3546"/>
<polygon fill="black" stroke="black" points="33.0001,-48.0444 29.5,-38.0444 26.0001,-48.0445 33.0001,-48.0444"/>
</g>
<!-- 20 -->
<g id="node21" class="node"><title>20</title>
<path fill="#e9d3ff" stroke="black" d="M169,-38C169,-38 132,-38 132,-38 126,-38 120,-32 120,-26 120,-26 120,-12 120,-12 120,-6 126,-0 132,-0 132,-0 169,-0 169,-0 175,-0 181,-6 181,-12 181,-12 181,-26 181,-26 181,-32 175,-38 169,-38"/>
<text text-anchor="middle" x="150.5" y="-22.8" font-family="Times,serif" font-size="14.00">forward</text>
<text text-anchor="middle" x="150.5" y="-7.8" font-family="Times,serif" font-size="14.00">CB0/C0</text>
</g>
<!-- 5&#45;&gt;20 -->
<g id="edge20" class="edge"><title>5&#45;&gt;20</title>
<path fill="none" stroke="black" d="M150.5,-81.4602C150.5,-71.67 150.5,-59.3453 150.5,-48.3073"/>
<polygon fill="black" stroke="black" points="154,-48.2435 150.5,-38.2436 147,-48.2436 154,-48.2435"/>
</g>
<!-- 21 -->
<g id="node22" class="node"><title>21</title>
<path fill="#e9d3ff" stroke="black" d="M373,-38C373,-38 336,-38 336,-38 330,-38 324,-32 324,-26 324,-26 324,-12 324,-12 324,-6 330,-0 336,-0 336,-0 373,-0 373,-0 379,-0 385,-6 385,-12 385,-12 385,-26 385,-26 385,-32 379,-38 373,-38"/>
<text text-anchor="middle" x="354.5" y="-22.8" font-family="Times,serif" font-size="14.00">forward</text>
<text text-anchor="middle" x="354.5" y="-7.8" font-family="Times,serif" font-size="14.00">CB0/C1</text>
</g>
<!-- 6&#45;&gt;21 -->
<g id="edge21" class="edge"><title>6&#45;&gt;21</title>
<path fill="none" stroke="black" d="M354.5,-81.4602C354.5,-71.67 354.5,-59.3453 354.5,-48.3073"/>
<polygon fill="black" stroke="black" points="358,-48.2435 354.5,-38.2436 351,-48.2436 358,-48.2435"/>
</g>
<!-- 22 -->
<g id="node23" class="node"><title>22</title>
<path fill="#e9d3ff" stroke="black" d="M551,-38C551,-38 514,-38 514,-38 508,-38 502,-32 502,-26 502,-26 502,-12 502,-12 502,-6 508,-0 514,-0 514,-0 551,-0 551,-0 557,-0 563,-6 563,-12 563,-12 563,-26 563,-26 563,-32 557,-38 551,-38"/>
<text text-anchor="middle" x="532.5" y="-22.8" font-family="Times,serif" font-size="14.00">forward</text>
<text text-anchor="middle" x="532.5" y="-7.8" font-family="Times,serif" font-size="14.00">CB0/C2</text>
</g>
<!-- 7&#45;&gt;22 -->
<g id="edge22" class="edge"><title>7&#45;&gt;22</title>
<path fill="none" stroke="black" d="M532.5,-81.4602C532.5,-71.67 532.5,-59.3453 532.5,-48.3073"/>
<polygon fill="black" stroke="black" points="536,-48.2435 532.5,-38.2436 529,-48.2436 536,-48.2435"/>
</g>
<!-- 23 -->
<g id="node24" class="node"><title>23</title>
<path fill="#e9d3ff" stroke="black" d="M638,-38C638,-38 601,-38 601,-38 595,-38 589,-32 589,-26 589,-26 589,-12 589,-12 589,-6 595,-0 601,-0 601,-0 638,-0 638,-0 644,-0 650,-6 650,-12 650,-12 650,-26 650,-26 650,-32 644,-38 638,-38"/>
<text text-anchor="middle" x="619.5" y="-22.8" font-family="Times,serif" font-size="14.00">residual</text>
<text text-anchor="middle" x="619.5" y="-7.8" font-family="Times,serif" font-size="14.00">CB0/C0</text>
</g>
<!-- 8&#45;&gt;23 -->
<g id="edge23" class="edge"><title>8&#45;&gt;23</title>
<path fill="none" stroke="black" d="M625.764,-82.2497C624.758,-72.25 623.467,-59.4178 622.318,-48.0048"/>
<polygon fill="black" stroke="black" points="625.8,-47.6437 621.316,-38.0444 618.835,-48.3447 625.8,-47.6437"/>
</g>
<!-- 24 -->
<g id="node25" class="node"><title>24</title>
<path fill="#d3bfe6" stroke="black" d="M717,-38C717,-38 680,-38 680,-38 674,-38 668,-32 668,-26 668,-26 668,-12 668,-12 668,-6 674,-0 680,-0 680,-0 717,-0 717,-0 723,-0 729,-6 729,-12 729,-12 729,-26 729,-26 729,-32 723,-38 717,-38"/>
<text text-anchor="middle" x="698.5" y="-22.8" font-family="Times,serif" font-size="14.00">forward</text>
<text text-anchor="middle" x="698.5" y="-7.8" font-family="Times,serif" font-size="14.00">CB0/C3</text>
</g>
<!-- 8&#45;&gt;24 -->
<g id="edge24" class="edge"><title>8&#45;&gt;24</title>
<path fill="none" stroke="black" d="M642.906,-82.2497C652.474,-71.5357 664.947,-57.5701 675.653,-45.5824"/>
<polygon fill="black" stroke="black" points="678.334,-47.8344 682.385,-38.0444 673.113,-43.1716 678.334,-47.8344"/>
</g>
<!-- 25 -->
<g id="node26" class="node"><title>25</title>
<path fill="#e9d3ff" stroke="black" d="M836,-38C836,-38 801,-38 801,-38 795,-38 789,-32 789,-26 789,-26 789,-12 789,-12 789,-6 795,-0 801,-0 801,-0 836,-0 836,-0 842,-0 848,-6 848,-12 848,-12 848,-26 848,-26 848,-32 842,-38 836,-38"/>
<text text-anchor="middle" x="818.5" y="-22.8" font-family="Times,serif" font-size="14.00">forward</text>
<text text-anchor="middle" x="818.5" y="-7.8" font-family="Times,serif" font-size="14.00">CB0/I</text>
</g>
<!-- 9&#45;&gt;25 -->
<g id="edge25" class="edge"><title>9&#45;&gt;25</title>
<path fill="none" stroke="black" d="M818.5,-73.9081C818.5,-65.7377 818.5,-56.6492 818.5,-48.2981"/>
<polygon fill="black" stroke="black" points="822,-48.2389 818.5,-38.2389 815,-48.2389 822,-48.2389"/>
</g>
<!-- 26 -->
<g id="node27" class="node"><title>26</title>
<path fill="#e9d3ff" stroke="black" d="M1108,-38C1108,-38 1071,-38 1071,-38 1065,-38 1059,-32 1059,-26 1059,-26 1059,-12 1059,-12 1059,-6 1065,-0 1071,-0 1071,-0 1108,-0 1108,-0 1114,-0 1120,-6 1120,-12 1120,-12 1120,-26 1120,-26 1120,-32 1114,-38 1108,-38"/>
<text text-anchor="middle" x="1089.5" y="-22.8" font-family="Times,serif" font-size="14.00">forward</text>
<text text-anchor="middle" x="1089.5" y="-7.8" font-family="Times,serif" font-size="14.00">CB1/C0</text>
</g>
<!-- 10&#45;&gt;26 -->
<g id="edge26" class="edge"><title>10&#45;&gt;26</title>
<path fill="none" stroke="black" d="M1089.5,-81.4602C1089.5,-71.67 1089.5,-59.3453 1089.5,-48.3073"/>
<polygon fill="black" stroke="black" points="1093,-48.2435 1089.5,-38.2436 1086,-48.2436 1093,-48.2435"/>
</g>
<!-- 27 -->
<g id="node28" class="node"><title>27</title>
<path fill="#e9d3ff" stroke="black" d="M1345,-38C1345,-38 1308,-38 1308,-38 1302,-38 1296,-32 1296,-26 1296,-26 1296,-12 1296,-12 1296,-6 1302,-0 1308,-0 1308,-0 1345,-0 1345,-0 1351,-0 1357,-6 1357,-12 1357,-12 1357,-26 1357,-26 1357,-32 1351,-38 1345,-38"/>
<text text-anchor="middle" x="1326.5" y="-22.8" font-family="Times,serif" font-size="14.00">forward</text>
<text text-anchor="middle" x="1326.5" y="-7.8" font-family="Times,serif" font-size="14.00">CB1/C1</text>
</g>
<!-- 11&#45;&gt;27 -->
<g id="edge27" class="edge"><title>11&#45;&gt;27</title>
<path fill="none" stroke="black" d="M1326.5,-81.4602C1326.5,-71.67 1326.5,-59.3453 1326.5,-48.3073"/>
<polygon fill="black" stroke="black" points="1330,-48.2435 1326.5,-38.2436 1323,-48.2436 1330,-48.2435"/>
</g>
<!-- 28 -->
<g id="node29" class="node"><title>28</title>
<path fill="#e9d3ff" stroke="black" d="M1508,-38C1508,-38 1471,-38 1471,-38 1465,-38 1459,-32 1459,-26 1459,-26 1459,-12 1459,-12 1459,-6 1465,-0 1471,-0 1471,-0 1508,-0 1508,-0 1514,-0 1520,-6 1520,-12 1520,-12 1520,-26 1520,-26 1520,-32 1514,-38 1508,-38"/>
<text text-anchor="middle" x="1489.5" y="-22.8" font-family="Times,serif" font-size="14.00">forward</text>
<text text-anchor="middle" x="1489.5" y="-7.8" font-family="Times,serif" font-size="14.00">CB1/C2</text>
</g>
<!-- 12&#45;&gt;28 -->
<g id="edge28" class="edge"><title>12&#45;&gt;28</title>
<path fill="none" stroke="black" d="M1494.91,-81.4602C1494.05,-71.67 1492.96,-59.3453 1491.99,-48.3073"/>
<polygon fill="black" stroke="black" points="1495.47,-47.898 1491.11,-38.2436 1488.5,-48.5121 1495.47,-47.898"/>
</g>
<!-- 29 -->
<g id="node30" class="node"><title>29</title>
<path fill="#e9d3ff" stroke="black" d="M1587,-38C1587,-38 1550,-38 1550,-38 1544,-38 1538,-32 1538,-26 1538,-26 1538,-12 1538,-12 1538,-6 1544,-0 1550,-0 1550,-0 1587,-0 1587,-0 1593,-0 1599,-6 1599,-12 1599,-12 1599,-26 1599,-26 1599,-32 1593,-38 1587,-38"/>
<text text-anchor="middle" x="1568.5" y="-22.8" font-family="Times,serif" font-size="14.00">residual</text>
<text text-anchor="middle" x="1568.5" y="-7.8" font-family="Times,serif" font-size="14.00">CB1/C0</text>
</g>
<!-- 13&#45;&gt;29 -->
<g id="edge29" class="edge"><title>13&#45;&gt;29</title>
<path fill="none" stroke="black" d="M1582.59,-82.2497C1580.33,-72.25 1577.42,-59.4178 1574.84,-48.0048"/>
<polygon fill="black" stroke="black" points="1578.21,-47.0247 1572.59,-38.0444 1571.38,-48.5705 1578.21,-47.0247"/>
</g>
<!-- 30 -->
<g id="node31" class="node"><title>30</title>
<path fill="#d3bfe6" stroke="black" d="M1666,-38C1666,-38 1629,-38 1629,-38 1623,-38 1617,-32 1617,-26 1617,-26 1617,-12 1617,-12 1617,-6 1623,-0 1629,-0 1629,-0 1666,-0 1666,-0 1672,-0 1678,-6 1678,-12 1678,-12 1678,-26 1678,-26 1678,-32 1672,-38 1666,-38"/>
<text text-anchor="middle" x="1647.5" y="-22.8" font-family="Times,serif" font-size="14.00">forward</text>
<text text-anchor="middle" x="1647.5" y="-7.8" font-family="Times,serif" font-size="14.00">CB1/C3</text>
</g>
<!-- 13&#45;&gt;30 -->
<g id="edge30" class="edge"><title>13&#45;&gt;30</title>
<path fill="none" stroke="black" d="M1599.74,-82.2497C1607.8,-71.7398 1618.27,-58.101 1627.34,-46.2695"/>
<polygon fill="black" stroke="black" points="1630.34,-48.1087 1633.65,-38.0444 1624.79,-43.8475 1630.34,-48.1087"/>
</g>
<!-- 31 -->
<g id="node32" class="node"><title>31</title>
<path fill="#e9d3ff" stroke="black" d="M1743,-38C1743,-38 1708,-38 1708,-38 1702,-38 1696,-32 1696,-26 1696,-26 1696,-12 1696,-12 1696,-6 1702,-0 1708,-0 1708,-0 1743,-0 1743,-0 1749,-0 1755,-6 1755,-12 1755,-12 1755,-26 1755,-26 1755,-32 1749,-38 1743,-38"/>
<text text-anchor="middle" x="1725.5" y="-22.8" font-family="Times,serif" font-size="14.00">forward</text>
<text text-anchor="middle" x="1725.5" y="-7.8" font-family="Times,serif" font-size="14.00">CB1/I</text>
</g>
<!-- 14&#45;&gt;31 -->
<g id="edge31" class="edge"><title>14&#45;&gt;31</title>
<path fill="none" stroke="black" d="M1720.09,-81.4602C1720.95,-71.67 1722.04,-59.3453 1723.01,-48.3073"/>
<polygon fill="black" stroke="black" points="1726.5,-48.5121 1723.89,-38.2436 1719.53,-47.898 1726.5,-48.5121"/>
</g>
<!-- 32 -->
<g id="node33" class="node"><title>32</title>
<path fill="#e9d3ff" stroke="black" d="M1971,-38C1971,-38 1934,-38 1934,-38 1928,-38 1922,-32 1922,-26 1922,-26 1922,-12 1922,-12 1922,-6 1928,-0 1934,-0 1934,-0 1971,-0 1971,-0 1977,-0 1983,-6 1983,-12 1983,-12 1983,-26 1983,-26 1983,-32 1977,-38 1971,-38"/>
<text text-anchor="middle" x="1952.5" y="-22.8" font-family="Times,serif" font-size="14.00">forward</text>
<text text-anchor="middle" x="1952.5" y="-7.8" font-family="Times,serif" font-size="14.00">CB2/C0</text>
</g>
<!-- 15&#45;&gt;32 -->
<g id="edge32" class="edge"><title>15&#45;&gt;32</title>
<path fill="none" stroke="black" d="M1952.5,-81.4602C1952.5,-71.67 1952.5,-59.3453 1952.5,-48.3073"/>
<polygon fill="black" stroke="black" points="1956,-48.2435 1952.5,-38.2436 1949,-48.2436 1956,-48.2435"/>
</g>
<!-- 33 -->
<g id="node34" class="node"><title>33</title>
<path fill="#e9d3ff" stroke="black" d="M2175,-38C2175,-38 2138,-38 2138,-38 2132,-38 2126,-32 2126,-26 2126,-26 2126,-12 2126,-12 2126,-6 2132,-0 2138,-0 2138,-0 2175,-0 2175,-0 2181,-0 2187,-6 2187,-12 2187,-12 2187,-26 2187,-26 2187,-32 2181,-38 2175,-38"/>
<text text-anchor="middle" x="2156.5" y="-22.8" font-family="Times,serif" font-size="14.00">forward</text>
<text text-anchor="middle" x="2156.5" y="-7.8" font-family="Times,serif" font-size="14.00">CB2/C1</text>
</g>
<!-- 16&#45;&gt;33 -->
<g id="edge33" class="edge"><title>16&#45;&gt;33</title>
<path fill="none" stroke="black" d="M2156.5,-81.4602C2156.5,-71.67 2156.5,-59.3453 2156.5,-48.3073"/>
<polygon fill="black" stroke="black" points="2160,-48.2435 2156.5,-38.2436 2153,-48.2436 2160,-48.2435"/>
</g>
<!-- 34 -->
<g id="node35" class="node"><title>34</title>
<path fill="#e9d3ff" stroke="black" d="M2353,-38C2353,-38 2316,-38 2316,-38 2310,-38 2304,-32 2304,-26 2304,-26 2304,-12 2304,-12 2304,-6 2310,-0 2316,-0 2316,-0 2353,-0 2353,-0 2359,-0 2365,-6 2365,-12 2365,-12 2365,-26 2365,-26 2365,-32 2359,-38 2353,-38"/>
<text text-anchor="middle" x="2334.5" y="-22.8" font-family="Times,serif" font-size="14.00">forward</text>
<text text-anchor="middle" x="2334.5" y="-7.8" font-family="Times,serif" font-size="14.00">CB2/C2</text>
</g>
<!-- 17&#45;&gt;34 -->
<g id="edge34" class="edge"><title>17&#45;&gt;34</title>
<path fill="none" stroke="black" d="M2334.5,-73.9081C2334.5,-65.7377 2334.5,-56.6492 2334.5,-48.2981"/>
<polygon fill="black" stroke="black" points="2338,-48.2389 2334.5,-38.2389 2331,-48.2389 2338,-48.2389"/>
</g>
<!-- 35 -->
<g id="node36" class="node"><title>35</title>
<path fill="#e9d3ff" stroke="black" d="M2478,-38C2478,-38 2441,-38 2441,-38 2435,-38 2429,-32 2429,-26 2429,-26 2429,-12 2429,-12 2429,-6 2435,-0 2441,-0 2441,-0 2478,-0 2478,-0 2484,-0 2490,-6 2490,-12 2490,-12 2490,-26 2490,-26 2490,-32 2484,-38 2478,-38"/>
<text text-anchor="middle" x="2459.5" y="-22.8" font-family="Times,serif" font-size="14.00">residual</text>
<text text-anchor="middle" x="2459.5" y="-7.8" font-family="Times,serif" font-size="14.00">CB2/C0</text>
</g>
<!-- 18&#45;&gt;35 -->
<g id="edge35" class="edge"><title>18&#45;&gt;35</title>
<path fill="none" stroke="black" d="M2490.82,-82.2497C2485.69,-72.0459 2479.07,-58.8928 2473.24,-47.3078"/>
<polygon fill="black" stroke="black" points="2476.2,-45.4043 2468.58,-38.0444 2469.95,-48.5506 2476.2,-45.4043"/>
</g>
<!-- 36 -->
<g id="node37" class="node"><title>36</title>
<path fill="#d3bfe6" stroke="black" d="M2557,-38C2557,-38 2520,-38 2520,-38 2514,-38 2508,-32 2508,-26 2508,-26 2508,-12 2508,-12 2508,-6 2514,-0 2520,-0 2520,-0 2557,-0 2557,-0 2563,-0 2569,-6 2569,-12 2569,-12 2569,-26 2569,-26 2569,-32 2563,-38 2557,-38"/>
<text text-anchor="middle" x="2538.5" y="-22.8" font-family="Times,serif" font-size="14.00">forward</text>
<text text-anchor="middle" x="2538.5" y="-7.8" font-family="Times,serif" font-size="14.00">CB2/C3</text>
</g>
<!-- 18&#45;&gt;36 -->
<g id="edge36" class="edge"><title>18&#45;&gt;36</title>
<path fill="none" stroke="black" d="M2507.96,-82.2497C2512.97,-72.0459 2519.42,-58.8928 2525.1,-47.3078"/>
<polygon fill="black" stroke="black" points="2528.39,-48.5639 2529.65,-38.0444 2522.1,-45.4808 2528.39,-48.5639"/>
</g>
</g>
</svg>
