<?xml version="1.0" encoding="UTF-8" standalone="no"?>
<!DOCTYPE svg PUBLIC "-//W3C//DTD SVG 1.1//EN"
 "http://www.w3.org/Graphics/SVG/1.1/DTD/svg11.dtd">
<!-- Generated by graphviz version 2.38.0 (20140413.2041)
 -->
<!-- Title: %3 Pages: 1 -->
<svg width="1708pt" height="298pt"
 viewBox="0.00 0.00 1707.50 298.00" xmlns="http://www.w3.org/2000/svg" xmlns:xlink="http://www.w3.org/1999/xlink">
<g id="graph0" class="graph" transform="scale(1 1) rotate(0) translate(4 294)">
<title>%3</title>
<polygon fill="none" stroke="none" points="-4,4 -4,-294 1703.5,-294 1703.5,4 -4,4"/>
<!-- 0 -->
<g id="node1" class="node"><title>0</title>
<path fill="#ffd3d3" stroke="black" d="M1023,-290C1023,-290 869,-290 869,-290 863,-290 857,-284 857,-278 857,-278 857,-249 857,-249 857,-243 863,-237 869,-237 869,-237 1023,-237 1023,-237 1029,-237 1035,-243 1035,-249 1035,-249 1035,-278 1035,-278 1035,-284 1029,-290 1023,-290"/>
<text text-anchor="middle" x="946" y="-274.8" font-family="Times,serif" font-size="14.00">net</text>
<text text-anchor="middle" x="946" y="-259.8" font-family="Times,serif" font-size="14.00">dilation rate: 1 &#160;&#160;n kernels: 64</text>
<text text-anchor="middle" x="946" y="-244.8" font-family="Times,serif" font-size="14.00">pooling type: 0</text>
</g>
<!-- 1 -->
<g id="node2" class="node"><title>1</title>
<path fill="#e9ffd3" stroke="black" d="M565.5,-201C565.5,-201 502.5,-201 502.5,-201 496.5,-201 490.5,-195 490.5,-189 490.5,-189 490.5,-175 490.5,-175 490.5,-169 496.5,-163 502.5,-163 502.5,-163 565.5,-163 565.5,-163 571.5,-163 577.5,-169 577.5,-175 577.5,-175 577.5,-189 577.5,-189 577.5,-195 571.5,-201 565.5,-201"/>
<text text-anchor="middle" x="534" y="-185.8" font-family="Times,serif" font-size="14.00">conv block 0</text>
<text text-anchor="middle" x="534" y="-170.8" font-family="Times,serif" font-size="14.00">n kernels: &#45;7</text>
</g>
<!-- 0&#45;&gt;1 -->
<g id="edge1" class="edge"><title>0&#45;&gt;1</title>
<path fill="none" stroke="black" d="M856.856,-245.299C774.935,-229.491 656.173,-206.575 587.856,-193.392"/>
<polygon fill="black" stroke="black" points="588.227,-189.899 577.745,-191.441 586.901,-196.772 588.227,-189.899"/>
</g>
<!-- 2 -->
<g id="node3" class="node"><title>2</title>
<path fill="#e9ffd3" stroke="black" d="M1360.5,-201C1360.5,-201 1149.5,-201 1149.5,-201 1143.5,-201 1137.5,-195 1137.5,-189 1137.5,-189 1137.5,-175 1137.5,-175 1137.5,-169 1143.5,-163 1149.5,-163 1149.5,-163 1360.5,-163 1360.5,-163 1366.5,-163 1372.5,-169 1372.5,-175 1372.5,-175 1372.5,-189 1372.5,-189 1372.5,-195 1366.5,-201 1360.5,-201"/>
<text text-anchor="middle" x="1255" y="-185.8" font-family="Times,serif" font-size="14.00">conv block 1</text>
<text text-anchor="middle" x="1255" y="-170.8" font-family="Times,serif" font-size="14.00">dilation rate: 1 &#160;&#160;log gamma1: 1.000000</text>
</g>
<!-- 0&#45;&gt;2 -->
<g id="edge2" class="edge"><title>0&#45;&gt;2</title>
<path fill="none" stroke="black" d="M1035.38,-239.505C1079.53,-228.146 1132.36,-214.552 1175.15,-203.545"/>
<polygon fill="black" stroke="black" points="1176.14,-206.903 1184.95,-201.022 1174.4,-200.124 1176.14,-206.903"/>
</g>
<!-- 3 -->
<g id="node4" class="node"><title>3</title>
<path fill="#d3ffff" stroke="black" d="M80,-119.5C80,-119.5 12,-119.5 12,-119.5 6,-119.5 0,-113.5 0,-107.5 0,-107.5 0,-93.5 0,-93.5 0,-87.5 6,-81.5 12,-81.5 12,-81.5 80,-81.5 80,-81.5 86,-81.5 92,-87.5 92,-93.5 92,-93.5 92,-107.5 92,-107.5 92,-113.5 86,-119.5 80,-119.5"/>
<text text-anchor="middle" x="46" y="-104.3" font-family="Times,serif" font-size="14.00">comp 0</text>
<text text-anchor="middle" x="46" y="-89.3" font-family="Times,serif" font-size="14.00">n kernels: &#45;11</text>
</g>
<!-- 1&#45;&gt;3 -->
<g id="edge3" class="edge"><title>1&#45;&gt;3</title>
<path fill="none" stroke="black" d="M490.402,-180.001C411.311,-177.22 239.548,-166.706 101,-127 97.4525,-125.983 93.845,-124.767 90.2605,-123.424"/>
<polygon fill="black" stroke="black" points="91.4654,-120.136 80.8828,-119.627 88.838,-126.624 91.4654,-120.136"/>
</g>
<!-- 4 -->
<g id="node5" class="node"><title>4</title>
<path fill="#bfe6e6" stroke="black" d="M328,-119.5C328,-119.5 122,-119.5 122,-119.5 116,-119.5 110,-113.5 110,-107.5 110,-107.5 110,-93.5 110,-93.5 110,-87.5 116,-81.5 122,-81.5 122,-81.5 328,-81.5 328,-81.5 334,-81.5 340,-87.5 340,-93.5 340,-93.5 340,-107.5 340,-107.5 340,-113.5 334,-119.5 328,-119.5"/>
<text text-anchor="middle" x="225" y="-104.3" font-family="Times,serif" font-size="14.00">comp 1</text>
<text text-anchor="middle" x="225" y="-89.3" font-family="Times,serif" font-size="14.00">log gamma1: 1.729985 &#160;&#160;n kernels: &#45;17</text>
</g>
<!-- 1&#45;&gt;4 -->
<g id="edge4" class="edge"><title>1&#45;&gt;4</title>
<path fill="none" stroke="black" d="M490.383,-169.778C442.319,-157.412 363.995,-137.261 304.867,-122.048"/>
<polygon fill="black" stroke="black" points="305.735,-118.658 295.179,-119.556 303.991,-125.437 305.735,-118.658"/>
</g>
<!-- 5 -->
<g id="node6" class="node"><title>5</title>
<path fill="#abcece" stroke="black" d="M490,-119.5C490,-119.5 370,-119.5 370,-119.5 364,-119.5 358,-113.5 358,-107.5 358,-107.5 358,-93.5 358,-93.5 358,-87.5 364,-81.5 370,-81.5 370,-81.5 490,-81.5 490,-81.5 496,-81.5 502,-87.5 502,-93.5 502,-93.5 502,-107.5 502,-107.5 502,-113.5 496,-119.5 490,-119.5"/>
<text text-anchor="middle" x="430" y="-104.3" font-family="Times,serif" font-size="14.00">comp 2</text>
<text text-anchor="middle" x="430" y="-89.3" font-family="Times,serif" font-size="14.00">log gamma1: 1.000000</text>
</g>
<!-- 1&#45;&gt;5 -->
<g id="edge5" class="edge"><title>1&#45;&gt;5</title>
<path fill="none" stroke="black" d="M510.401,-162.96C496.141,-152.06 477.771,-138.017 462.191,-126.107"/>
<polygon fill="black" stroke="black" points="463.936,-123.036 453.866,-119.744 459.685,-128.597 463.936,-123.036"/>
</g>
<!-- 6 -->
<g id="node7" class="node"><title>6</title>
<path fill="#97b6b6" stroke="black" d="M743.5,-127C743.5,-127 532.5,-127 532.5,-127 526.5,-127 520.5,-121 520.5,-115 520.5,-115 520.5,-86 520.5,-86 520.5,-80 526.5,-74 532.5,-74 532.5,-74 743.5,-74 743.5,-74 749.5,-74 755.5,-80 755.5,-86 755.5,-86 755.5,-115 755.5,-115 755.5,-121 749.5,-127 743.5,-127"/>
<text text-anchor="middle" x="638" y="-111.8" font-family="Times,serif" font-size="14.00">comp 3</text>
<text text-anchor="middle" x="638" y="-96.8" font-family="Times,serif" font-size="14.00">dilation rate: 1 &#160;&#160;log gamma1: 1.000000</text>
<text text-anchor="middle" x="638" y="-81.8" font-family="Times,serif" font-size="14.00">log gamma2: 1.000000</text>
</g>
<!-- 1&#45;&gt;6 -->
<g id="edge6" class="edge"><title>1&#45;&gt;6</title>
<path fill="none" stroke="black" d="M557.599,-162.96C569.113,-154.159 583.307,-143.308 596.549,-133.186"/>
<polygon fill="black" stroke="black" points="598.819,-135.857 604.638,-127.003 594.567,-130.295 598.819,-135.857"/>
</g>
<!-- 7 -->
<g id="node8" class="node"><title>7</title>
<path fill="#839e9e" stroke="black" d="M820,-118.5C820,-118.5 786,-118.5 786,-118.5 780,-118.5 774,-112.5 774,-106.5 774,-106.5 774,-94.5 774,-94.5 774,-88.5 780,-82.5 786,-82.5 786,-82.5 820,-82.5 820,-82.5 826,-82.5 832,-88.5 832,-94.5 832,-94.5 832,-106.5 832,-106.5 832,-112.5 826,-118.5 820,-118.5"/>
<text text-anchor="middle" x="803" y="-96.8" font-family="Times,serif" font-size="14.00">identity</text>
</g>
<!-- 1&#45;&gt;7 -->
<g id="edge7" class="edge"><title>1&#45;&gt;7</title>
<path fill="none" stroke="black" d="M577.808,-175.356C625.168,-168.205 702.171,-153.494 764,-127 766.342,-125.996 768.699,-124.854 771.03,-123.621"/>
<polygon fill="black" stroke="black" points="772.92,-126.571 779.817,-118.528 769.41,-120.515 772.92,-126.571"/>
</g>
<!-- 8 -->
<g id="node9" class="node"><title>8</title>
<path fill="#d3ffff" stroke="black" d="M982,-119.5C982,-119.5 862,-119.5 862,-119.5 856,-119.5 850,-113.5 850,-107.5 850,-107.5 850,-93.5 850,-93.5 850,-87.5 856,-81.5 862,-81.5 862,-81.5 982,-81.5 982,-81.5 988,-81.5 994,-87.5 994,-93.5 994,-93.5 994,-107.5 994,-107.5 994,-113.5 988,-119.5 982,-119.5"/>
<text text-anchor="middle" x="922" y="-104.3" font-family="Times,serif" font-size="14.00">comp 0</text>
<text text-anchor="middle" x="922" y="-89.3" font-family="Times,serif" font-size="14.00">log gamma2: 1.000000</text>
</g>
<!-- 2&#45;&gt;8 -->
<g id="edge8" class="edge"><title>2&#45;&gt;8</title>
<path fill="none" stroke="black" d="M1160.56,-162.952C1113.04,-153.317 1054.7,-140.644 1003,-127 997.744,-125.613 992.321,-124.096 986.889,-122.516"/>
<polygon fill="black" stroke="black" points="987.717,-119.111 977.135,-119.618 985.724,-125.821 987.717,-119.111"/>
</g>
<!-- 9 -->
<g id="node10" class="node"><title>9</title>
<path fill="#bfe6e6" stroke="black" d="M1283.5,-119.5C1283.5,-119.5 1024.5,-119.5 1024.5,-119.5 1018.5,-119.5 1012.5,-113.5 1012.5,-107.5 1012.5,-107.5 1012.5,-93.5 1012.5,-93.5 1012.5,-87.5 1018.5,-81.5 1024.5,-81.5 1024.5,-81.5 1283.5,-81.5 1283.5,-81.5 1289.5,-81.5 1295.5,-87.5 1295.5,-93.5 1295.5,-93.5 1295.5,-107.5 1295.5,-107.5 1295.5,-113.5 1289.5,-119.5 1283.5,-119.5"/>
<text text-anchor="middle" x="1154" y="-104.3" font-family="Times,serif" font-size="14.00">comp 1</text>
<text text-anchor="middle" x="1154" y="-89.3" font-family="Times,serif" font-size="14.00">log gamma1: 1.475478 &#160;&#160;log gamma2: 1.791796</text>
</g>
<!-- 2&#45;&gt;9 -->
<g id="edge9" class="edge"><title>2&#45;&gt;9</title>
<path fill="none" stroke="black" d="M1232.08,-162.96C1218.23,-152.06 1200.39,-138.017 1185.26,-126.107"/>
<polygon fill="black" stroke="black" points="1187.2,-123.178 1177.18,-119.744 1182.87,-128.679 1187.2,-123.178"/>
</g>
<!-- 10 -->
<g id="node11" class="node"><title>10</title>
<path fill="#abcece" stroke="black" d="M1388.5,-119.5C1388.5,-119.5 1325.5,-119.5 1325.5,-119.5 1319.5,-119.5 1313.5,-113.5 1313.5,-107.5 1313.5,-107.5 1313.5,-93.5 1313.5,-93.5 1313.5,-87.5 1319.5,-81.5 1325.5,-81.5 1325.5,-81.5 1388.5,-81.5 1388.5,-81.5 1394.5,-81.5 1400.5,-87.5 1400.5,-93.5 1400.5,-93.5 1400.5,-107.5 1400.5,-107.5 1400.5,-113.5 1394.5,-119.5 1388.5,-119.5"/>
<text text-anchor="middle" x="1357" y="-104.3" font-family="Times,serif" font-size="14.00">comp 2</text>
<text text-anchor="middle" x="1357" y="-89.3" font-family="Times,serif" font-size="14.00">n kernels: 12</text>
</g>
<!-- 2&#45;&gt;10 -->
<g id="edge10" class="edge"><title>2&#45;&gt;10</title>
<path fill="none" stroke="black" d="M1278.15,-162.96C1292.13,-152.06 1310.15,-138.017 1325.43,-126.107"/>
<polygon fill="black" stroke="black" points="1327.86,-128.652 1333.59,-119.744 1323.55,-123.13 1327.86,-128.652"/>
</g>
<!-- 11 -->
<g id="node12" class="node"><title>11</title>
<path fill="#97b6b6" stroke="black" d="M1551,-119.5C1551,-119.5 1431,-119.5 1431,-119.5 1425,-119.5 1419,-113.5 1419,-107.5 1419,-107.5 1419,-93.5 1419,-93.5 1419,-87.5 1425,-81.5 1431,-81.5 1431,-81.5 1551,-81.5 1551,-81.5 1557,-81.5 1563,-87.5 1563,-93.5 1563,-93.5 1563,-107.5 1563,-107.5 1563,-113.5 1557,-119.5 1551,-119.5"/>
<text text-anchor="middle" x="1491" y="-104.3" font-family="Times,serif" font-size="14.00">comp 3</text>
<text text-anchor="middle" x="1491" y="-89.3" font-family="Times,serif" font-size="14.00">log gamma2: 1.000000</text>
</g>
<!-- 2&#45;&gt;11 -->
<g id="edge11" class="edge"><title>2&#45;&gt;11</title>
<path fill="none" stroke="black" d="M1308.55,-162.96C1343.88,-151.059 1390.33,-135.412 1427.52,-122.885"/>
<polygon fill="black" stroke="black" points="1428.89,-126.115 1437.25,-119.606 1426.66,-119.481 1428.89,-126.115"/>
</g>
<!-- 12 -->
<g id="node13" class="node"><title>12</title>
<path fill="#839e9e" stroke="black" d="M1627,-118.5C1627,-118.5 1593,-118.5 1593,-118.5 1587,-118.5 1581,-112.5 1581,-106.5 1581,-106.5 1581,-94.5 1581,-94.5 1581,-88.5 1587,-82.5 1593,-82.5 1593,-82.5 1627,-82.5 1627,-82.5 1633,-82.5 1639,-88.5 1639,-94.5 1639,-94.5 1639,-106.5 1639,-106.5 1639,-112.5 1633,-118.5 1627,-118.5"/>
<text text-anchor="middle" x="1610" y="-96.8" font-family="Times,serif" font-size="14.00">identity</text>
</g>
<!-- 2&#45;&gt;12 -->
<g id="edge12" class="edge"><title>2&#45;&gt;12</title>
<path fill="none" stroke="black" d="M1372.64,-172.862C1433.79,-165.704 1508.75,-152.256 1572,-127 1574.39,-126.046 1576.78,-124.926 1579.14,-123.696"/>
<polygon fill="black" stroke="black" points="1581.1,-126.602 1587.97,-118.534 1577.57,-120.559 1581.1,-126.602"/>
</g>
<!-- 13 -->
<g id="node14" class="node"><title>13</title>
<path fill="#e9d3ff" stroke="black" d="M63.5,-38C63.5,-38 28.5,-38 28.5,-38 22.5,-38 16.5,-32 16.5,-26 16.5,-26 16.5,-12 16.5,-12 16.5,-6 22.5,-0 28.5,-0 28.5,-0 63.5,-0 63.5,-0 69.5,-0 75.5,-6 75.5,-12 75.5,-12 75.5,-26 75.5,-26 75.5,-32 69.5,-38 63.5,-38"/>
<text text-anchor="middle" x="46" y="-22.8" font-family="Times,serif" font-size="14.00">forward</text>
<text text-anchor="middle" x="46" y="-7.8" font-family="Times,serif" font-size="14.00">input</text>
</g>
<!-- 3&#45;&gt;13 -->
<g id="edge13" class="edge"><title>3&#45;&gt;13</title>
<path fill="none" stroke="black" d="M46,-81.4602C46,-71.67 46,-59.3453 46,-48.3073"/>
<polygon fill="black" stroke="black" points="49.5001,-48.2435 46,-38.2436 42.5001,-48.2436 49.5001,-48.2435"/>
</g>
<!-- 14 -->
<g id="node15" class="node"><title>14</title>
<path fill="#e9d3ff" stroke="black" d="M243.5,-38C243.5,-38 206.5,-38 206.5,-38 200.5,-38 194.5,-32 194.5,-26 194.5,-26 194.5,-12 194.5,-12 194.5,-6 200.5,-0 206.5,-0 206.5,-0 243.5,-0 243.5,-0 249.5,-0 255.5,-6 255.5,-12 255.5,-12 255.5,-26 255.5,-26 255.5,-32 249.5,-38 243.5,-38"/>
<text text-anchor="middle" x="225" y="-22.8" font-family="Times,serif" font-size="14.00">forward</text>
<text text-anchor="middle" x="225" y="-7.8" font-family="Times,serif" font-size="14.00">CB0/C0</text>
</g>
<!-- 4&#45;&gt;14 -->
<g id="edge14" class="edge"><title>4&#45;&gt;14</title>
<path fill="none" stroke="black" d="M225,-81.4602C225,-71.67 225,-59.3453 225,-48.3073"/>
<polygon fill="black" stroke="black" points="228.5,-48.2435 225,-38.2436 221.5,-48.2436 228.5,-48.2435"/>
</g>
<!-- 15 -->
<g id="node16" class="node"><title>15</title>
<path fill="#e9d3ff" stroke="black" d="M448.5,-38C448.5,-38 411.5,-38 411.5,-38 405.5,-38 399.5,-32 399.5,-26 399.5,-26 399.5,-12 399.5,-12 399.5,-6 405.5,-0 411.5,-0 411.5,-0 448.5,-0 448.5,-0 454.5,-0 460.5,-6 460.5,-12 460.5,-12 460.5,-26 460.5,-26 460.5,-32 454.5,-38 448.5,-38"/>
<text text-anchor="middle" x="430" y="-22.8" font-family="Times,serif" font-size="14.00">forward</text>
<text text-anchor="middle" x="430" y="-7.8" font-family="Times,serif" font-size="14.00">CB0/C1</text>
</g>
<!-- 5&#45;&gt;15 -->
<g id="edge15" class="edge"><title>5&#45;&gt;15</title>
<path fill="none" stroke="black" d="M430,-81.4602C430,-71.67 430,-59.3453 430,-48.3073"/>
<polygon fill="black" stroke="black" points="433.5,-48.2435 430,-38.2436 426.5,-48.2436 433.5,-48.2435"/>
</g>
<!-- 16 -->
<g id="node17" class="node"><title>16</title>
<path fill="#e9d3ff" stroke="black" d="M656.5,-38C656.5,-38 619.5,-38 619.5,-38 613.5,-38 607.5,-32 607.5,-26 607.5,-26 607.5,-12 607.5,-12 607.5,-6 613.5,-0 619.5,-0 619.5,-0 656.5,-0 656.5,-0 662.5,-0 668.5,-6 668.5,-12 668.5,-12 668.5,-26 668.5,-26 668.5,-32 662.5,-38 656.5,-38"/>
<text text-anchor="middle" x="638" y="-22.8" font-family="Times,serif" font-size="14.00">forward</text>
<text text-anchor="middle" x="638" y="-7.8" font-family="Times,serif" font-size="14.00">CB0/C2</text>
</g>
<!-- 6&#45;&gt;16 -->
<g id="edge16" class="edge"><title>6&#45;&gt;16</title>
<path fill="none" stroke="black" d="M638,-73.9081C638,-65.7377 638,-56.6492 638,-48.2981"/>
<polygon fill="black" stroke="black" points="641.5,-48.2389 638,-38.2389 634.5,-48.2389 641.5,-48.2389"/>
</g>
<!-- 17 -->
<g id="node18" class="node"><title>17</title>
<path fill="#e9d3ff" stroke="black" d="M762.5,-38C762.5,-38 725.5,-38 725.5,-38 719.5,-38 713.5,-32 713.5,-26 713.5,-26 713.5,-12 713.5,-12 713.5,-6 719.5,-0 725.5,-0 725.5,-0 762.5,-0 762.5,-0 768.5,-0 774.5,-6 774.5,-12 774.5,-12 774.5,-26 774.5,-26 774.5,-32 768.5,-38 762.5,-38"/>
<text text-anchor="middle" x="744" y="-22.8" font-family="Times,serif" font-size="14.00">residual</text>
<text text-anchor="middle" x="744" y="-7.8" font-family="Times,serif" font-size="14.00">CB0/C0</text>
</g>
<!-- 7&#45;&gt;17 -->
<g id="edge17" class="edge"><title>7&#45;&gt;17</title>
<path fill="none" stroke="black" d="M790.198,-82.2497C782.398,-71.7398 772.276,-58.101 763.496,-46.2695"/>
<polygon fill="black" stroke="black" points="766.162,-43.9888 757.391,-38.0444 760.54,-48.1605 766.162,-43.9888"/>
</g>
<!-- 18 -->
<g id="node19" class="node"><title>18</title>
<path fill="#d3bfe6" stroke="black" d="M841.5,-38C841.5,-38 804.5,-38 804.5,-38 798.5,-38 792.5,-32 792.5,-26 792.5,-26 792.5,-12 792.5,-12 792.5,-6 798.5,-0 804.5,-0 804.5,-0 841.5,-0 841.5,-0 847.5,-0 853.5,-6 853.5,-12 853.5,-12 853.5,-26 853.5,-26 853.5,-32 847.5,-38 841.5,-38"/>
<text text-anchor="middle" x="823" y="-22.8" font-family="Times,serif" font-size="14.00">forward</text>
<text text-anchor="middle" x="823" y="-7.8" font-family="Times,serif" font-size="14.00">CB0/C3</text>
</g>
<!-- 7&#45;&gt;18 -->
<g id="edge18" class="edge"><title>7&#45;&gt;18</title>
<path fill="none" stroke="black" d="M807.34,-82.2497C809.855,-72.25 813.084,-59.4178 815.955,-48.0048"/>
<polygon fill="black" stroke="black" points="819.415,-48.5962 818.461,-38.0444 812.626,-46.8883 819.415,-48.5962"/>
</g>
<!-- 19 -->
<g id="node20" class="node"><title>19</title>
<path fill="#e9d3ff" stroke="black" d="M939.5,-38C939.5,-38 904.5,-38 904.5,-38 898.5,-38 892.5,-32 892.5,-26 892.5,-26 892.5,-12 892.5,-12 892.5,-6 898.5,-0 904.5,-0 904.5,-0 939.5,-0 939.5,-0 945.5,-0 951.5,-6 951.5,-12 951.5,-12 951.5,-26 951.5,-26 951.5,-32 945.5,-38 939.5,-38"/>
<text text-anchor="middle" x="922" y="-22.8" font-family="Times,serif" font-size="14.00">forward</text>
<text text-anchor="middle" x="922" y="-7.8" font-family="Times,serif" font-size="14.00">CB0/I</text>
</g>
<!-- 8&#45;&gt;19 -->
<g id="edge19" class="edge"><title>8&#45;&gt;19</title>
<path fill="none" stroke="black" d="M922,-81.4602C922,-71.67 922,-59.3453 922,-48.3073"/>
<polygon fill="black" stroke="black" points="925.5,-48.2435 922,-38.2436 918.5,-48.2436 925.5,-48.2435"/>
</g>
<!-- 20 -->
<g id="node21" class="node"><title>20</title>
<path fill="#e9d3ff" stroke="black" d="M1172.5,-38C1172.5,-38 1135.5,-38 1135.5,-38 1129.5,-38 1123.5,-32 1123.5,-26 1123.5,-26 1123.5,-12 1123.5,-12 1123.5,-6 1129.5,-0 1135.5,-0 1135.5,-0 1172.5,-0 1172.5,-0 1178.5,-0 1184.5,-6 1184.5,-12 1184.5,-12 1184.5,-26 1184.5,-26 1184.5,-32 1178.5,-38 1172.5,-38"/>
<text text-anchor="middle" x="1154" y="-22.8" font-family="Times,serif" font-size="14.00">forward</text>
<text text-anchor="middle" x="1154" y="-7.8" font-family="Times,serif" font-size="14.00">CB1/C0</text>
</g>
<!-- 9&#45;&gt;20 -->
<g id="edge20" class="edge"><title>9&#45;&gt;20</title>
<path fill="none" stroke="black" d="M1154,-81.4602C1154,-71.67 1154,-59.3453 1154,-48.3073"/>
<polygon fill="black" stroke="black" points="1157.5,-48.2435 1154,-38.2436 1150.5,-48.2436 1157.5,-48.2435"/>
</g>
<!-- 21 -->
<g id="node22" class="node"><title>21</title>
<path fill="#e9d3ff" stroke="black" d="M1375.5,-38C1375.5,-38 1338.5,-38 1338.5,-38 1332.5,-38 1326.5,-32 1326.5,-26 1326.5,-26 1326.5,-12 1326.5,-12 1326.5,-6 1332.5,-0 1338.5,-0 1338.5,-0 1375.5,-0 1375.5,-0 1381.5,-0 1387.5,-6 1387.5,-12 1387.5,-12 1387.5,-26 1387.5,-26 1387.5,-32 1381.5,-38 1375.5,-38"/>
<text text-anchor="middle" x="1357" y="-22.8" font-family="Times,serif" font-size="14.00">forward</text>
<text text-anchor="middle" x="1357" y="-7.8" font-family="Times,serif" font-size="14.00">CB1/C1</text>
</g>
<!-- 10&#45;&gt;21 -->
<g id="edge21" class="edge"><title>10&#45;&gt;21</title>
<path fill="none" stroke="black" d="M1357,-81.4602C1357,-71.67 1357,-59.3453 1357,-48.3073"/>
<polygon fill="black" stroke="black" points="1360.5,-48.2435 1357,-38.2436 1353.5,-48.2436 1360.5,-48.2435"/>
</g>
<!-- 22 -->
<g id="node23" class="node"><title>22</title>
<path fill="#e9d3ff" stroke="black" d="M1509.5,-38C1509.5,-38 1472.5,-38 1472.5,-38 1466.5,-38 1460.5,-32 1460.5,-26 1460.5,-26 1460.5,-12 1460.5,-12 1460.5,-6 1466.5,-0 1472.5,-0 1472.5,-0 1509.5,-0 1509.5,-0 1515.5,-0 1521.5,-6 1521.5,-12 1521.5,-12 1521.5,-26 1521.5,-26 1521.5,-32 1515.5,-38 1509.5,-38"/>
<text text-anchor="middle" x="1491" y="-22.8" font-family="Times,serif" font-size="14.00">forward</text>
<text text-anchor="middle" x="1491" y="-7.8" font-family="Times,serif" font-size="14.00">CB1/C2</text>
</g>
<!-- 11&#45;&gt;22 -->
<g id="edge22" class="edge"><title>11&#45;&gt;22</title>
<path fill="none" stroke="black" d="M1491,-81.4602C1491,-71.67 1491,-59.3453 1491,-48.3073"/>
<polygon fill="black" stroke="black" points="1494.5,-48.2435 1491,-38.2436 1487.5,-48.2436 1494.5,-48.2435"/>
</g>
<!-- 23 -->
<g id="node24" class="node"><title>23</title>
<path fill="#e9d3ff" stroke="black" d="M1608.5,-38C1608.5,-38 1571.5,-38 1571.5,-38 1565.5,-38 1559.5,-32 1559.5,-26 1559.5,-26 1559.5,-12 1559.5,-12 1559.5,-6 1565.5,-0 1571.5,-0 1571.5,-0 1608.5,-0 1608.5,-0 1614.5,-0 1620.5,-6 1620.5,-12 1620.5,-12 1620.5,-26 1620.5,-26 1620.5,-32 1614.5,-38 1608.5,-38"/>
<text text-anchor="middle" x="1590" y="-22.8" font-family="Times,serif" font-size="14.00">residual</text>
<text text-anchor="middle" x="1590" y="-7.8" font-family="Times,serif" font-size="14.00">CB1/C0</text>
</g>
<!-- 12&#45;&gt;23 -->
<g id="edge23" class="edge"><title>12&#45;&gt;23</title>
<path fill="none" stroke="black" d="M1605.66,-82.2497C1603.14,-72.25 1599.92,-59.4178 1597.05,-48.0048"/>
<polygon fill="black" stroke="black" points="1600.37,-46.8883 1594.54,-38.0444 1593.59,-48.5962 1600.37,-46.8883"/>
</g>
<!-- 24 -->
<g id="node25" class="node"><title>24</title>
<path fill="#d3bfe6" stroke="black" d="M1687.5,-38C1687.5,-38 1650.5,-38 1650.5,-38 1644.5,-38 1638.5,-32 1638.5,-26 1638.5,-26 1638.5,-12 1638.5,-12 1638.5,-6 1644.5,-0 1650.5,-0 1650.5,-0 1687.5,-0 1687.5,-0 1693.5,-0 1699.5,-6 1699.5,-12 1699.5,-12 1699.5,-26 1699.5,-26 1699.5,-32 1693.5,-38 1687.5,-38"/>
<text text-anchor="middle" x="1669" y="-22.8" font-family="Times,serif" font-size="14.00">forward</text>
<text text-anchor="middle" x="1669" y="-7.8" font-family="Times,serif" font-size="14.00">CB1/C3</text>
</g>
<!-- 12&#45;&gt;24 -->
<g id="edge24" class="edge"><title>12&#45;&gt;24</title>
<path fill="none" stroke="black" d="M1622.8,-82.2497C1630.6,-71.7398 1640.72,-58.101 1649.5,-46.2695"/>
<polygon fill="black" stroke="black" points="1652.46,-48.1605 1655.61,-38.0444 1646.84,-43.9888 1652.46,-48.1605"/>
</g>
</g>
</svg>
