<?xml version="1.0" encoding="UTF-8" standalone="no"?>
<!DOCTYPE svg PUBLIC "-//W3C//DTD SVG 1.1//EN"
 "http://www.w3.org/Graphics/SVG/1.1/DTD/svg11.dtd">
<!-- Generated by graphviz version 2.38.0 (20140413.2041)
 -->
<!-- Title: %3 Pages: 1 -->
<svg width="921pt" height="298pt"
 viewBox="0.00 0.00 921.00 298.00" xmlns="http://www.w3.org/2000/svg" xmlns:xlink="http://www.w3.org/1999/xlink">
<g id="graph0" class="graph" transform="scale(1 1) rotate(0) translate(4 294)">
<title>%3</title>
<polygon fill="none" stroke="none" points="-4,4 -4,-294 917,-294 917,4 -4,4"/>
<!-- 0 -->
<g id="node1" class="node"><title>0</title>
<path fill="#ffd3d3" stroke="black" d="M516.5,-290C516.5,-290 362.5,-290 362.5,-290 356.5,-290 350.5,-284 350.5,-278 350.5,-278 350.5,-249 350.5,-249 350.5,-243 356.5,-237 362.5,-237 362.5,-237 516.5,-237 516.5,-237 522.5,-237 528.5,-243 528.5,-249 528.5,-249 528.5,-278 528.5,-278 528.5,-284 522.5,-290 516.5,-290"/>
<text text-anchor="middle" x="439.5" y="-274.8" font-family="Times,serif" font-size="14.00">net</text>
<text text-anchor="middle" x="439.5" y="-259.8" font-family="Times,serif" font-size="14.00">dilation rate: 1 &#160;&#160;n kernels: 87</text>
<text text-anchor="middle" x="439.5" y="-244.8" font-family="Times,serif" font-size="14.00">pooling type: 0</text>
</g>
<!-- 1 -->
<g id="node2" class="node"><title>1</title>
<path fill="#e9ffd3" stroke="black" d="M350,-201C350,-201 139,-201 139,-201 133,-201 127,-195 127,-189 127,-189 127,-160 127,-160 127,-154 133,-148 139,-148 139,-148 350,-148 350,-148 356,-148 362,-154 362,-160 362,-160 362,-189 362,-189 362,-195 356,-201 350,-201"/>
<text text-anchor="middle" x="244.5" y="-185.8" font-family="Times,serif" font-size="14.00">conv block 0</text>
<text text-anchor="middle" x="244.5" y="-170.8" font-family="Times,serif" font-size="14.00">dilation rate: 1 &#160;&#160;log gamma1: 1.000000</text>
<text text-anchor="middle" x="244.5" y="-155.8" font-family="Times,serif" font-size="14.00">log gamma2: 1.000000</text>
</g>
<!-- 0&#45;&gt;1 -->
<g id="edge1" class="edge"><title>0&#45;&gt;1</title>
<path fill="none" stroke="black" d="M382.311,-236.985C359.989,-227.026 334.245,-215.54 311.094,-205.211"/>
<polygon fill="black" stroke="black" points="312.246,-201.893 301.688,-201.015 309.394,-208.285 312.246,-201.893"/>
</g>
<!-- 2 -->
<g id="node3" class="node"><title>2</title>
<path fill="#e9ffd3" stroke="black" d="M741,-193.5C741,-193.5 530,-193.5 530,-193.5 524,-193.5 518,-187.5 518,-181.5 518,-181.5 518,-167.5 518,-167.5 518,-161.5 524,-155.5 530,-155.5 530,-155.5 741,-155.5 741,-155.5 747,-155.5 753,-161.5 753,-167.5 753,-167.5 753,-181.5 753,-181.5 753,-187.5 747,-193.5 741,-193.5"/>
<text text-anchor="middle" x="635.5" y="-178.3" font-family="Times,serif" font-size="14.00">conv block 1</text>
<text text-anchor="middle" x="635.5" y="-163.3" font-family="Times,serif" font-size="14.00">dilation rate: 1 &#160;&#160;log gamma2: 1.000000</text>
</g>
<!-- 0&#45;&gt;2 -->
<g id="edge2" class="edge"><title>0&#45;&gt;2</title>
<path fill="none" stroke="black" d="M496.982,-236.985C525.072,-224.516 558.553,-209.655 585.561,-197.667"/>
<polygon fill="black" stroke="black" points="587.104,-200.811 594.825,-193.555 584.265,-194.413 587.104,-200.811"/>
</g>
<!-- 3 -->
<g id="node4" class="node"><title>3</title>
<path fill="#d3ffff" stroke="black" d="M47.5,-111C47.5,-111 13.5,-111 13.5,-111 7.5,-111 1.5,-105 1.5,-99 1.5,-99 1.5,-87 1.5,-87 1.5,-81 7.5,-75 13.5,-75 13.5,-75 47.5,-75 47.5,-75 53.5,-75 59.5,-81 59.5,-87 59.5,-87 59.5,-99 59.5,-99 59.5,-105 53.5,-111 47.5,-111"/>
<text text-anchor="middle" x="30.5" y="-89.3" font-family="Times,serif" font-size="14.00">comp 0</text>
</g>
<!-- 1&#45;&gt;3 -->
<g id="edge3" class="edge"><title>1&#45;&gt;3</title>
<path fill="none" stroke="black" d="M165.417,-147.864C137.252,-138.255 105.246,-126.793 69.0996,-112.078"/>
<polygon fill="black" stroke="black" points="70.4005,-108.829 59.8206,-108.266 67.7405,-115.304 70.4005,-108.829"/>
</g>
<!-- 4 -->
<g id="node5" class="node"><title>4</title>
<path fill="#bfe6e6" stroke="black" d="M123.5,-111C123.5,-111 89.5,-111 89.5,-111 83.5,-111 77.5,-105 77.5,-99 77.5,-99 77.5,-87 77.5,-87 77.5,-81 83.5,-75 89.5,-75 89.5,-75 123.5,-75 123.5,-75 129.5,-75 135.5,-81 135.5,-87 135.5,-87 135.5,-99 135.5,-99 135.5,-105 129.5,-111 123.5,-111"/>
<text text-anchor="middle" x="106.5" y="-89.3" font-family="Times,serif" font-size="14.00">comp 1</text>
</g>
<!-- 1&#45;&gt;4 -->
<g id="edge4" class="edge"><title>1&#45;&gt;4</title>
<path fill="none" stroke="black" d="M200.076,-147.908C182.094,-137.549 161.551,-125.714 144.302,-115.777"/>
<polygon fill="black" stroke="black" points="146.026,-112.731 135.613,-110.772 142.531,-118.796 146.026,-112.731"/>
</g>
<!-- 5 -->
<g id="node6" class="node"><title>5</title>
<path fill="#abcece" stroke="black" d="M323.5,-112C323.5,-112 165.5,-112 165.5,-112 159.5,-112 153.5,-106 153.5,-100 153.5,-100 153.5,-86 153.5,-86 153.5,-80 159.5,-74 165.5,-74 165.5,-74 323.5,-74 323.5,-74 329.5,-74 335.5,-80 335.5,-86 335.5,-86 335.5,-100 335.5,-100 335.5,-106 329.5,-112 323.5,-112"/>
<text text-anchor="middle" x="244.5" y="-96.8" font-family="Times,serif" font-size="14.00">comp 2</text>
<text text-anchor="middle" x="244.5" y="-81.8" font-family="Times,serif" font-size="14.00">dilation rate: &#45;1 &#160;&#160;n kernels: 14</text>
</g>
<!-- 1&#45;&gt;5 -->
<g id="edge5" class="edge"><title>1&#45;&gt;5</title>
<path fill="none" stroke="black" d="M244.5,-147.908C244.5,-139.738 244.5,-130.649 244.5,-122.298"/>
<polygon fill="black" stroke="black" points="248,-122.239 244.5,-112.239 241,-122.239 248,-122.239"/>
</g>
<!-- 6 -->
<g id="node7" class="node"><title>6</title>
<path fill="#97b6b6" stroke="black" d="M399.5,-111C399.5,-111 365.5,-111 365.5,-111 359.5,-111 353.5,-105 353.5,-99 353.5,-99 353.5,-87 353.5,-87 353.5,-81 359.5,-75 365.5,-75 365.5,-75 399.5,-75 399.5,-75 405.5,-75 411.5,-81 411.5,-87 411.5,-87 411.5,-99 411.5,-99 411.5,-105 405.5,-111 399.5,-111"/>
<text text-anchor="middle" x="382.5" y="-89.3" font-family="Times,serif" font-size="14.00">identity</text>
</g>
<!-- 1&#45;&gt;6 -->
<g id="edge6" class="edge"><title>1&#45;&gt;6</title>
<path fill="none" stroke="black" d="M288.924,-147.908C306.906,-137.549 327.449,-125.714 344.698,-115.777"/>
<polygon fill="black" stroke="black" points="346.469,-118.796 353.387,-110.772 342.974,-112.731 346.469,-118.796"/>
</g>
<!-- 7 -->
<g id="node8" class="node"><title>7</title>
<path fill="#d3ffff" stroke="black" d="M561.5,-112C561.5,-112 441.5,-112 441.5,-112 435.5,-112 429.5,-106 429.5,-100 429.5,-100 429.5,-86 429.5,-86 429.5,-80 435.5,-74 441.5,-74 441.5,-74 561.5,-74 561.5,-74 567.5,-74 573.5,-80 573.5,-86 573.5,-86 573.5,-100 573.5,-100 573.5,-106 567.5,-112 561.5,-112"/>
<text text-anchor="middle" x="501.5" y="-96.8" font-family="Times,serif" font-size="14.00">comp 0</text>
<text text-anchor="middle" x="501.5" y="-81.8" font-family="Times,serif" font-size="14.00">log gamma1: 1.000000</text>
</g>
<!-- 2&#45;&gt;7 -->
<g id="edge7" class="edge"><title>2&#45;&gt;7</title>
<path fill="none" stroke="black" d="M605.093,-155.46C586.125,-144.207 561.512,-129.604 541.036,-117.456"/>
<polygon fill="black" stroke="black" points="542.636,-114.336 532.25,-112.244 539.065,-120.356 542.636,-114.336"/>
</g>
<!-- 8 -->
<g id="node9" class="node"><title>8</title>
<path fill="#bfe6e6" stroke="black" d="M667,-112C667,-112 604,-112 604,-112 598,-112 592,-106 592,-100 592,-100 592,-86 592,-86 592,-80 598,-74 604,-74 604,-74 667,-74 667,-74 673,-74 679,-80 679,-86 679,-86 679,-100 679,-100 679,-106 673,-112 667,-112"/>
<text text-anchor="middle" x="635.5" y="-96.8" font-family="Times,serif" font-size="14.00">comp 1</text>
<text text-anchor="middle" x="635.5" y="-81.8" font-family="Times,serif" font-size="14.00">n kernels: 12</text>
</g>
<!-- 2&#45;&gt;8 -->
<g id="edge8" class="edge"><title>2&#45;&gt;8</title>
<path fill="none" stroke="black" d="M635.5,-155.46C635.5,-145.67 635.5,-133.345 635.5,-122.307"/>
<polygon fill="black" stroke="black" points="639,-122.244 635.5,-112.244 632,-122.244 639,-122.244"/>
</g>
<!-- 9 -->
<g id="node10" class="node"><title>9</title>
<path fill="#abcece" stroke="black" d="M743.5,-111C743.5,-111 709.5,-111 709.5,-111 703.5,-111 697.5,-105 697.5,-99 697.5,-99 697.5,-87 697.5,-87 697.5,-81 703.5,-75 709.5,-75 709.5,-75 743.5,-75 743.5,-75 749.5,-75 755.5,-81 755.5,-87 755.5,-87 755.5,-99 755.5,-99 755.5,-105 749.5,-111 743.5,-111"/>
<text text-anchor="middle" x="726.5" y="-89.3" font-family="Times,serif" font-size="14.00">comp 2</text>
</g>
<!-- 2&#45;&gt;9 -->
<g id="edge9" class="edge"><title>2&#45;&gt;9</title>
<path fill="none" stroke="black" d="M656.149,-155.46C668.862,-144.354 685.307,-129.987 699.101,-117.936"/>
<polygon fill="black" stroke="black" points="701.64,-120.366 706.868,-111.151 697.034,-115.094 701.64,-120.366"/>
</g>
<!-- 10 -->
<g id="node11" class="node"><title>10</title>
<path fill="#97b6b6" stroke="black" d="M820.5,-111C820.5,-111 786.5,-111 786.5,-111 780.5,-111 774.5,-105 774.5,-99 774.5,-99 774.5,-87 774.5,-87 774.5,-81 780.5,-75 786.5,-75 786.5,-75 820.5,-75 820.5,-75 826.5,-75 832.5,-81 832.5,-87 832.5,-87 832.5,-99 832.5,-99 832.5,-105 826.5,-111 820.5,-111"/>
<text text-anchor="middle" x="803.5" y="-89.3" font-family="Times,serif" font-size="14.00">identity</text>
</g>
<!-- 2&#45;&gt;10 -->
<g id="edge10" class="edge"><title>2&#45;&gt;10</title>
<path fill="none" stroke="black" d="M673.622,-155.46C700.987,-142.51 737.724,-125.126 765.143,-112.151"/>
<polygon fill="black" stroke="black" points="766.881,-115.201 774.422,-107.76 763.886,-108.874 766.881,-115.201"/>
</g>
<!-- 11 -->
<g id="node12" class="node"><title>11</title>
<path fill="#e9d3ff" stroke="black" d="M47,-38C47,-38 12,-38 12,-38 6,-38 0,-32 0,-26 0,-26 0,-12 0,-12 0,-6 6,-0 12,-0 12,-0 47,-0 47,-0 53,-0 59,-6 59,-12 59,-12 59,-26 59,-26 59,-32 53,-38 47,-38"/>
<text text-anchor="middle" x="29.5" y="-22.8" font-family="Times,serif" font-size="14.00">forward</text>
<text text-anchor="middle" x="29.5" y="-7.8" font-family="Times,serif" font-size="14.00">input</text>
</g>
<!-- 3&#45;&gt;11 -->
<g id="edge11" class="edge"><title>3&#45;&gt;11</title>
<path fill="none" stroke="black" d="M30.263,-74.937C30.1526,-66.9865 30.0182,-57.3134 29.8932,-48.3127"/>
<polygon fill="black" stroke="black" points="33.3914,-48.1496 29.7528,-38.1992 26.3921,-48.2468 33.3914,-48.1496"/>
</g>
<!-- 12 -->
<g id="node13" class="node"><title>12</title>
<path fill="#e9d3ff" stroke="black" d="M126,-38C126,-38 89,-38 89,-38 83,-38 77,-32 77,-26 77,-26 77,-12 77,-12 77,-6 83,-0 89,-0 89,-0 126,-0 126,-0 132,-0 138,-6 138,-12 138,-12 138,-26 138,-26 138,-32 132,-38 126,-38"/>
<text text-anchor="middle" x="107.5" y="-22.8" font-family="Times,serif" font-size="14.00">forward</text>
<text text-anchor="middle" x="107.5" y="-7.8" font-family="Times,serif" font-size="14.00">CB0/C0</text>
</g>
<!-- 4&#45;&gt;12 -->
<g id="edge12" class="edge"><title>4&#45;&gt;12</title>
<path fill="none" stroke="black" d="M106.737,-74.937C106.847,-66.9865 106.982,-57.3134 107.107,-48.3127"/>
<polygon fill="black" stroke="black" points="110.608,-48.2468 107.247,-38.1992 103.609,-48.1496 110.608,-48.2468"/>
</g>
<!-- 13 -->
<g id="node14" class="node"><title>13</title>
<path fill="#e9d3ff" stroke="black" d="M263,-38C263,-38 226,-38 226,-38 220,-38 214,-32 214,-26 214,-26 214,-12 214,-12 214,-6 220,-0 226,-0 226,-0 263,-0 263,-0 269,-0 275,-6 275,-12 275,-12 275,-26 275,-26 275,-32 269,-38 263,-38"/>
<text text-anchor="middle" x="244.5" y="-22.8" font-family="Times,serif" font-size="14.00">forward</text>
<text text-anchor="middle" x="244.5" y="-7.8" font-family="Times,serif" font-size="14.00">CB0/C1</text>
</g>
<!-- 5&#45;&gt;13 -->
<g id="edge13" class="edge"><title>5&#45;&gt;13</title>
<path fill="none" stroke="black" d="M244.5,-73.8314C244.5,-66.131 244.5,-56.9743 244.5,-48.4166"/>
<polygon fill="black" stroke="black" points="248,-48.4132 244.5,-38.4133 241,-48.4133 248,-48.4132"/>
</g>
<!-- 14 -->
<g id="node15" class="node"><title>14</title>
<path fill="#e9d3ff" stroke="black" d="M352,-38C352,-38 315,-38 315,-38 309,-38 303,-32 303,-26 303,-26 303,-12 303,-12 303,-6 309,-0 315,-0 315,-0 352,-0 352,-0 358,-0 364,-6 364,-12 364,-12 364,-26 364,-26 364,-32 358,-38 352,-38"/>
<text text-anchor="middle" x="333.5" y="-22.8" font-family="Times,serif" font-size="14.00">residual</text>
<text text-anchor="middle" x="333.5" y="-7.8" font-family="Times,serif" font-size="14.00">CB0/C0</text>
</g>
<!-- 6&#45;&gt;14 -->
<g id="edge14" class="edge"><title>6&#45;&gt;14</title>
<path fill="none" stroke="black" d="M370.888,-74.937C365.124,-66.468 358.03,-56.0444 351.576,-46.561"/>
<polygon fill="black" stroke="black" points="354.405,-44.4971 345.886,-38.1992 348.618,-48.4355 354.405,-44.4971"/>
</g>
<!-- 15 -->
<g id="node16" class="node"><title>15</title>
<path fill="#d3bfe6" stroke="black" d="M431,-38C431,-38 394,-38 394,-38 388,-38 382,-32 382,-26 382,-26 382,-12 382,-12 382,-6 388,-0 394,-0 394,-0 431,-0 431,-0 437,-0 443,-6 443,-12 443,-12 443,-26 443,-26 443,-32 437,-38 431,-38"/>
<text text-anchor="middle" x="412.5" y="-22.8" font-family="Times,serif" font-size="14.00">forward</text>
<text text-anchor="middle" x="412.5" y="-7.8" font-family="Times,serif" font-size="14.00">CB0/C2</text>
</g>
<!-- 6&#45;&gt;15 -->
<g id="edge15" class="edge"><title>6&#45;&gt;15</title>
<path fill="none" stroke="black" d="M389.61,-74.937C393.03,-66.7273 397.216,-56.6807 401.069,-47.4345"/>
<polygon fill="black" stroke="black" points="404.302,-48.7761 404.917,-38.1992 397.84,-46.0838 404.302,-48.7761"/>
</g>
<!-- 16 -->
<g id="node17" class="node"><title>16</title>
<path fill="#e9d3ff" stroke="black" d="M519,-38C519,-38 484,-38 484,-38 478,-38 472,-32 472,-26 472,-26 472,-12 472,-12 472,-6 478,-0 484,-0 484,-0 519,-0 519,-0 525,-0 531,-6 531,-12 531,-12 531,-26 531,-26 531,-32 525,-38 519,-38"/>
<text text-anchor="middle" x="501.5" y="-22.8" font-family="Times,serif" font-size="14.00">forward</text>
<text text-anchor="middle" x="501.5" y="-7.8" font-family="Times,serif" font-size="14.00">CB0/I</text>
</g>
<!-- 7&#45;&gt;16 -->
<g id="edge16" class="edge"><title>7&#45;&gt;16</title>
<path fill="none" stroke="black" d="M501.5,-73.8314C501.5,-66.131 501.5,-56.9743 501.5,-48.4166"/>
<polygon fill="black" stroke="black" points="505,-48.4132 501.5,-38.4133 498,-48.4133 505,-48.4132"/>
</g>
<!-- 17 -->
<g id="node18" class="node"><title>17</title>
<path fill="#e9d3ff" stroke="black" d="M654,-38C654,-38 617,-38 617,-38 611,-38 605,-32 605,-26 605,-26 605,-12 605,-12 605,-6 611,-0 617,-0 617,-0 654,-0 654,-0 660,-0 666,-6 666,-12 666,-12 666,-26 666,-26 666,-32 660,-38 654,-38"/>
<text text-anchor="middle" x="635.5" y="-22.8" font-family="Times,serif" font-size="14.00">forward</text>
<text text-anchor="middle" x="635.5" y="-7.8" font-family="Times,serif" font-size="14.00">CB1/C0</text>
</g>
<!-- 8&#45;&gt;17 -->
<g id="edge17" class="edge"><title>8&#45;&gt;17</title>
<path fill="none" stroke="black" d="M635.5,-73.8314C635.5,-66.131 635.5,-56.9743 635.5,-48.4166"/>
<polygon fill="black" stroke="black" points="639,-48.4132 635.5,-38.4133 632,-48.4133 639,-48.4132"/>
</g>
<!-- 18 -->
<g id="node19" class="node"><title>18</title>
<path fill="#e9d3ff" stroke="black" d="M743,-38C743,-38 706,-38 706,-38 700,-38 694,-32 694,-26 694,-26 694,-12 694,-12 694,-6 700,-0 706,-0 706,-0 743,-0 743,-0 749,-0 755,-6 755,-12 755,-12 755,-26 755,-26 755,-32 749,-38 743,-38"/>
<text text-anchor="middle" x="724.5" y="-22.8" font-family="Times,serif" font-size="14.00">forward</text>
<text text-anchor="middle" x="724.5" y="-7.8" font-family="Times,serif" font-size="14.00">CB1/C1</text>
</g>
<!-- 9&#45;&gt;18 -->
<g id="edge18" class="edge"><title>9&#45;&gt;18</title>
<path fill="none" stroke="black" d="M726.026,-74.937C725.805,-66.9865 725.536,-57.3134 725.286,-48.3127"/>
<polygon fill="black" stroke="black" points="728.782,-48.0981 725.006,-38.1992 721.785,-48.2925 728.782,-48.0981"/>
</g>
<!-- 19 -->
<g id="node20" class="node"><title>19</title>
<path fill="#e9d3ff" stroke="black" d="M822,-38C822,-38 785,-38 785,-38 779,-38 773,-32 773,-26 773,-26 773,-12 773,-12 773,-6 779,-0 785,-0 785,-0 822,-0 822,-0 828,-0 834,-6 834,-12 834,-12 834,-26 834,-26 834,-32 828,-38 822,-38"/>
<text text-anchor="middle" x="803.5" y="-22.8" font-family="Times,serif" font-size="14.00">residual</text>
<text text-anchor="middle" x="803.5" y="-7.8" font-family="Times,serif" font-size="14.00">CB1/C0</text>
</g>
<!-- 10&#45;&gt;19 -->
<g id="edge19" class="edge"><title>10&#45;&gt;19</title>
<path fill="none" stroke="black" d="M803.5,-74.937C803.5,-66.9865 803.5,-57.3134 803.5,-48.3127"/>
<polygon fill="black" stroke="black" points="807,-48.1991 803.5,-38.1992 800,-48.1992 807,-48.1991"/>
</g>
<!-- 20 -->
<g id="node21" class="node"><title>20</title>
<path fill="#d3bfe6" stroke="black" d="M901,-38C901,-38 864,-38 864,-38 858,-38 852,-32 852,-26 852,-26 852,-12 852,-12 852,-6 858,-0 864,-0 864,-0 901,-0 901,-0 907,-0 913,-6 913,-12 913,-12 913,-26 913,-26 913,-32 907,-38 901,-38"/>
<text text-anchor="middle" x="882.5" y="-22.8" font-family="Times,serif" font-size="14.00">forward</text>
<text text-anchor="middle" x="882.5" y="-7.8" font-family="Times,serif" font-size="14.00">CB1/C2</text>
</g>
<!-- 10&#45;&gt;20 -->
<g id="edge20" class="edge"><title>10&#45;&gt;20</title>
<path fill="none" stroke="black" d="M822.222,-74.937C831.988,-66.0359 844.124,-54.9756 854.941,-45.1172"/>
<polygon fill="black" stroke="black" points="857.498,-47.5221 862.531,-38.1992 852.783,-42.3484 857.498,-47.5221"/>
</g>
</g>
</svg>
