<?xml version="1.0" encoding="UTF-8" standalone="no"?>
<!DOCTYPE svg PUBLIC "-//W3C//DTD SVG 1.1//EN"
 "http://www.w3.org/Graphics/SVG/1.1/DTD/svg11.dtd">
<!-- Generated by graphviz version 2.38.0 (20140413.2041)
 -->
<!-- Title: %3 Pages: 1 -->
<svg width="2394pt" height="402pt"
 viewBox="0.00 0.00 2393.50 402.00" xmlns="http://www.w3.org/2000/svg" xmlns:xlink="http://www.w3.org/1999/xlink">
<g id="graph0" class="graph" transform="scale(1 1) rotate(0) translate(4 398)">
<title>%3</title>
<polygon fill="none" stroke="none" points="-4,4 -4,-398 2389.5,-398 2389.5,4 -4,4"/>
<!-- 0 -->
<g id="node1" class="node"><title>0</title>
<path fill="#ffd3d3" stroke="black" d="M1205,-394C1205,-394 1142,-394 1142,-394 1136,-394 1130,-388 1130,-382 1130,-382 1130,-368 1130,-368 1130,-362 1136,-356 1142,-356 1142,-356 1205,-356 1205,-356 1211,-356 1217,-362 1217,-368 1217,-368 1217,-382 1217,-382 1217,-388 1211,-394 1205,-394"/>
<text text-anchor="middle" x="1173.5" y="-378.8" font-family="Times,serif" font-size="14.00">net</text>
<text text-anchor="middle" x="1173.5" y="-363.8" font-family="Times,serif" font-size="14.00">n kernels: 62</text>
</g>
<!-- 1 -->
<g id="node2" class="node"><title>1</title>
<path fill="#f6ffd3" stroke="black" d="M978,-312.5C978,-312.5 715,-312.5 715,-312.5 709,-312.5 703,-306.5 703,-300.5 703,-300.5 703,-286.5 703,-286.5 703,-280.5 709,-274.5 715,-274.5 715,-274.5 978,-274.5 978,-274.5 984,-274.5 990,-280.5 990,-286.5 990,-286.5 990,-300.5 990,-300.5 990,-306.5 984,-312.5 978,-312.5"/>
<text text-anchor="middle" x="846.5" y="-297.3" font-family="Times,serif" font-size="14.00">encoder</text>
<text text-anchor="middle" x="846.5" y="-282.3" font-family="Times,serif" font-size="14.00">log gamma1: 0.159345 &#160;&#160;log gamma2: &#45;0.194230</text>
</g>
<!-- 0&#45;&gt;1 -->
<g id="edge1" class="edge"><title>0&#45;&gt;1</title>
<path fill="none" stroke="black" d="M1129.74,-363.361C1079.02,-351.031 994.285,-330.429 930.682,-314.966"/>
<polygon fill="black" stroke="black" points="931.208,-311.492 920.664,-312.531 929.554,-318.294 931.208,-311.492"/>
</g>
<!-- 2 -->
<g id="node3" class="node"><title>2</title>
<path fill="#f6ffd3" stroke="black" d="M1631,-320C1631,-320 1372,-320 1372,-320 1366,-320 1360,-314 1360,-308 1360,-308 1360,-279 1360,-279 1360,-273 1366,-267 1372,-267 1372,-267 1631,-267 1631,-267 1637,-267 1643,-273 1643,-279 1643,-279 1643,-308 1643,-308 1643,-314 1637,-320 1631,-320"/>
<text text-anchor="middle" x="1501.5" y="-304.8" font-family="Times,serif" font-size="14.00">decoder</text>
<text text-anchor="middle" x="1501.5" y="-289.8" font-family="Times,serif" font-size="14.00">log gamma1: 0.059053 &#160;&#160;log gamma2: 0.219930</text>
<text text-anchor="middle" x="1501.5" y="-274.8" font-family="Times,serif" font-size="14.00">n kernels: &#45;10</text>
</g>
<!-- 0&#45;&gt;2 -->
<g id="edge2" class="edge"><title>0&#45;&gt;2</title>
<path fill="none" stroke="black" d="M1217.06,-363.443C1260.05,-353.022 1327.66,-336.635 1386.18,-322.451"/>
<polygon fill="black" stroke="black" points="1387.34,-325.771 1396.24,-320.014 1385.69,-318.968 1387.34,-325.771"/>
</g>
<!-- 3 -->
<g id="node4" class="node"><title>3</title>
<path fill="#d3ffe4" stroke="black" d="M465,-223.5C465,-223.5 206,-223.5 206,-223.5 200,-223.5 194,-217.5 194,-211.5 194,-211.5 194,-182.5 194,-182.5 194,-176.5 200,-170.5 206,-170.5 206,-170.5 465,-170.5 465,-170.5 471,-170.5 477,-176.5 477,-182.5 477,-182.5 477,-211.5 477,-211.5 477,-217.5 471,-223.5 465,-223.5"/>
<text text-anchor="middle" x="335.5" y="-208.3" font-family="Times,serif" font-size="14.00">encode block 0</text>
<text text-anchor="middle" x="335.5" y="-193.3" font-family="Times,serif" font-size="14.00">log gamma1: 0.219858 &#160;&#160;log gamma2: 0.396776</text>
<text text-anchor="middle" x="335.5" y="-178.3" font-family="Times,serif" font-size="14.00">pooling type: &#45;1</text>
</g>
<!-- 1&#45;&gt;3 -->
<g id="edge3" class="edge"><title>1&#45;&gt;3</title>
<path fill="none" stroke="black" d="M748.881,-274.447C673.922,-260.585 569.148,-241.209 483.839,-225.433"/>
<polygon fill="black" stroke="black" points="484.27,-221.953 473.8,-223.576 482.997,-228.836 484.27,-221.953"/>
</g>
<!-- 4 -->
<g id="node5" class="node"><title>4</title>
<path fill="#bfe6cf" stroke="black" d="M978,-231C978,-231 715,-231 715,-231 709,-231 703,-225 703,-219 703,-219 703,-175 703,-175 703,-169 709,-163 715,-163 715,-163 978,-163 978,-163 984,-163 990,-169 990,-175 990,-175 990,-219 990,-219 990,-225 984,-231 978,-231"/>
<text text-anchor="middle" x="846.5" y="-215.8" font-family="Times,serif" font-size="14.00">encode block 1</text>
<text text-anchor="middle" x="846.5" y="-200.8" font-family="Times,serif" font-size="14.00">log gamma1: 0.258042 &#160;&#160;log gamma2: &#45;0.427242</text>
<text text-anchor="middle" x="846.5" y="-185.8" font-family="Times,serif" font-size="14.00">n kernels: 64 &#160;&#160;pooling type: 1</text>
<text text-anchor="middle" x="846.5" y="-170.8" font-family="Times,serif" font-size="14.00">spatial scale: 1</text>
</g>
<!-- 1&#45;&gt;4 -->
<g id="edge4" class="edge"><title>1&#45;&gt;4</title>
<path fill="none" stroke="black" d="M846.5,-274.279C846.5,-264.821 846.5,-252.83 846.5,-241.172"/>
<polygon fill="black" stroke="black" points="850,-241.085 846.5,-231.085 843,-241.085 850,-241.085"/>
</g>
<!-- 5 -->
<g id="node6" class="node"><title>5</title>
<path fill="#d3ffe4" stroke="black" d="M1601.5,-223.5C1601.5,-223.5 1401.5,-223.5 1401.5,-223.5 1395.5,-223.5 1389.5,-217.5 1389.5,-211.5 1389.5,-211.5 1389.5,-182.5 1389.5,-182.5 1389.5,-176.5 1395.5,-170.5 1401.5,-170.5 1401.5,-170.5 1601.5,-170.5 1601.5,-170.5 1607.5,-170.5 1613.5,-176.5 1613.5,-182.5 1613.5,-182.5 1613.5,-211.5 1613.5,-211.5 1613.5,-217.5 1607.5,-223.5 1601.5,-223.5"/>
<text text-anchor="middle" x="1501.5" y="-208.3" font-family="Times,serif" font-size="14.00">decode block 1</text>
<text text-anchor="middle" x="1501.5" y="-193.3" font-family="Times,serif" font-size="14.00">log gamma2: 0.093100 &#160;&#160;n kernels: &#45;7</text>
<text text-anchor="middle" x="1501.5" y="-178.3" font-family="Times,serif" font-size="14.00">spatial scale: 1</text>
</g>
<!-- 2&#45;&gt;5 -->
<g id="edge5" class="edge"><title>2&#45;&gt;5</title>
<path fill="none" stroke="black" d="M1501.5,-266.677C1501.5,-256.573 1501.5,-244.809 1501.5,-233.903"/>
<polygon fill="black" stroke="black" points="1505,-233.791 1501.5,-223.791 1498,-233.791 1505,-233.791"/>
</g>
<!-- 6 -->
<g id="node7" class="node"><title>6</title>
<path fill="#bfe6cf" stroke="black" d="M2150,-216C2150,-216 1887,-216 1887,-216 1881,-216 1875,-210 1875,-204 1875,-204 1875,-190 1875,-190 1875,-184 1881,-178 1887,-178 1887,-178 2150,-178 2150,-178 2156,-178 2162,-184 2162,-190 2162,-190 2162,-204 2162,-204 2162,-210 2156,-216 2150,-216"/>
<text text-anchor="middle" x="2018.5" y="-200.8" font-family="Times,serif" font-size="14.00">decode block 0</text>
<text text-anchor="middle" x="2018.5" y="-185.8" font-family="Times,serif" font-size="14.00">log gamma1: 0.342154 &#160;&#160;log gamma2: &#45;0.126011</text>
</g>
<!-- 2&#45;&gt;6 -->
<g id="edge6" class="edge"><title>2&#45;&gt;6</title>
<path fill="none" stroke="black" d="M1641.07,-266.989C1725.53,-251.551 1831.65,-232.153 1909.84,-217.861"/>
<polygon fill="black" stroke="black" points="1910.51,-221.297 1919.72,-216.056 1909.25,-214.412 1910.51,-221.297"/>
</g>
<!-- 7 -->
<g id="node8" class="node"><title>7</title>
<path fill="#d3e4ff" stroke="black" d="M207,-127C207,-127 12,-127 12,-127 6,-127 -1.42109e-14,-121 -1.42109e-14,-115 -1.42109e-14,-115 -1.42109e-14,-86 -1.42109e-14,-86 -1.42109e-14,-80 6,-74 12,-74 12,-74 207,-74 207,-74 213,-74 219,-80 219,-86 219,-86 219,-115 219,-115 219,-121 213,-127 207,-127"/>
<text text-anchor="middle" x="109.5" y="-111.8" font-family="Times,serif" font-size="14.00">comp 0</text>
<text text-anchor="middle" x="109.5" y="-96.8" font-family="Times,serif" font-size="14.00">log gamma2: 0.160684 &#160;&#160;n kernels: 9</text>
<text text-anchor="middle" x="109.5" y="-81.8" font-family="Times,serif" font-size="14.00">pooling type: &#45;1</text>
</g>
<!-- 3&#45;&gt;7 -->
<g id="edge7" class="edge"><title>3&#45;&gt;7</title>
<path fill="none" stroke="black" d="M274.341,-170.427C245.323,-158.293 210.483,-143.725 180.322,-131.114"/>
<polygon fill="black" stroke="black" points="181.284,-127.722 170.708,-127.094 178.583,-134.18 181.284,-127.722"/>
</g>
<!-- 8 -->
<g id="node9" class="node"><title>8</title>
<path fill="#bfcfe6" stroke="black" d="M324,-119.5C324,-119.5 249,-119.5 249,-119.5 243,-119.5 237,-113.5 237,-107.5 237,-107.5 237,-93.5 237,-93.5 237,-87.5 243,-81.5 249,-81.5 249,-81.5 324,-81.5 324,-81.5 330,-81.5 336,-87.5 336,-93.5 336,-93.5 336,-107.5 336,-107.5 336,-113.5 330,-119.5 324,-119.5"/>
<text text-anchor="middle" x="286.5" y="-104.3" font-family="Times,serif" font-size="14.00">comp 1</text>
<text text-anchor="middle" x="286.5" y="-89.3" font-family="Times,serif" font-size="14.00">pooling type: 1</text>
</g>
<!-- 3&#45;&gt;8 -->
<g id="edge8" class="edge"><title>3&#45;&gt;8</title>
<path fill="none" stroke="black" d="M322.111,-170.177C315.407,-157.249 307.295,-141.605 300.508,-128.516"/>
<polygon fill="black" stroke="black" points="303.549,-126.778 295.839,-119.511 297.335,-130 303.549,-126.778"/>
</g>
<!-- 9 -->
<g id="node10" class="node"><title>9</title>
<path fill="#abb9ce" stroke="black" d="M400.5,-118.5C400.5,-118.5 366.5,-118.5 366.5,-118.5 360.5,-118.5 354.5,-112.5 354.5,-106.5 354.5,-106.5 354.5,-94.5 354.5,-94.5 354.5,-88.5 360.5,-82.5 366.5,-82.5 366.5,-82.5 400.5,-82.5 400.5,-82.5 406.5,-82.5 412.5,-88.5 412.5,-94.5 412.5,-94.5 412.5,-106.5 412.5,-106.5 412.5,-112.5 406.5,-118.5 400.5,-118.5"/>
<text text-anchor="middle" x="383.5" y="-96.8" font-family="Times,serif" font-size="14.00">identity</text>
</g>
<!-- 3&#45;&gt;9 -->
<g id="edge9" class="edge"><title>3&#45;&gt;9</title>
<path fill="none" stroke="black" d="M348.616,-170.177C355.317,-156.985 363.454,-140.965 370.183,-127.717"/>
<polygon fill="black" stroke="black" points="373.385,-129.141 374.794,-118.641 367.144,-125.971 373.385,-129.141"/>
</g>
<!-- 10 -->
<g id="node11" class="node"><title>10</title>
<path fill="#d3e4ff" stroke="black" d="M702,-127C702,-127 443,-127 443,-127 437,-127 431,-121 431,-115 431,-115 431,-86 431,-86 431,-80 437,-74 443,-74 443,-74 702,-74 702,-74 708,-74 714,-80 714,-86 714,-86 714,-115 714,-115 714,-121 708,-127 702,-127"/>
<text text-anchor="middle" x="572.5" y="-111.8" font-family="Times,serif" font-size="14.00">comp 0</text>
<text text-anchor="middle" x="572.5" y="-96.8" font-family="Times,serif" font-size="14.00">log gamma1: 0.116904 &#160;&#160;log gamma2: 0.225031</text>
<text text-anchor="middle" x="572.5" y="-81.8" font-family="Times,serif" font-size="14.00">n kernels: 5</text>
</g>
<!-- 4&#45;&gt;10 -->
<g id="edge10" class="edge"><title>4&#45;&gt;10</title>
<path fill="none" stroke="black" d="M750.668,-162.948C719.893,-152.335 686.063,-140.667 656.226,-130.376"/>
<polygon fill="black" stroke="black" points="657.283,-127.038 646.688,-127.087 655,-133.656 657.283,-127.038"/>
</g>
<!-- 11 -->
<g id="node12" class="node"><title>11</title>
<path fill="#bfcfe6" stroke="black" d="M948.5,-127C948.5,-127 744.5,-127 744.5,-127 738.5,-127 732.5,-121 732.5,-115 732.5,-115 732.5,-86 732.5,-86 732.5,-80 738.5,-74 744.5,-74 744.5,-74 948.5,-74 948.5,-74 954.5,-74 960.5,-80 960.5,-86 960.5,-86 960.5,-115 960.5,-115 960.5,-121 954.5,-127 948.5,-127"/>
<text text-anchor="middle" x="846.5" y="-111.8" font-family="Times,serif" font-size="14.00">comp 1</text>
<text text-anchor="middle" x="846.5" y="-96.8" font-family="Times,serif" font-size="14.00">log gamma2: &#45;0.154925 &#160;&#160;n kernels: &#45;6</text>
<text text-anchor="middle" x="846.5" y="-81.8" font-family="Times,serif" font-size="14.00">pooling type: 1</text>
</g>
<!-- 4&#45;&gt;11 -->
<g id="edge11" class="edge"><title>4&#45;&gt;11</title>
<path fill="none" stroke="black" d="M846.5,-162.948C846.5,-154.715 846.5,-145.848 846.5,-137.481"/>
<polygon fill="black" stroke="black" points="850,-137.237 846.5,-127.237 843,-137.237 850,-137.237"/>
</g>
<!-- 12 -->
<g id="node13" class="node"><title>12</title>
<path fill="#abb9ce" stroke="black" d="M1024.5,-118.5C1024.5,-118.5 990.5,-118.5 990.5,-118.5 984.5,-118.5 978.5,-112.5 978.5,-106.5 978.5,-106.5 978.5,-94.5 978.5,-94.5 978.5,-88.5 984.5,-82.5 990.5,-82.5 990.5,-82.5 1024.5,-82.5 1024.5,-82.5 1030.5,-82.5 1036.5,-88.5 1036.5,-94.5 1036.5,-94.5 1036.5,-106.5 1036.5,-106.5 1036.5,-112.5 1030.5,-118.5 1024.5,-118.5"/>
<text text-anchor="middle" x="1007.5" y="-96.8" font-family="Times,serif" font-size="14.00">identity</text>
</g>
<!-- 4&#45;&gt;12 -->
<g id="edge12" class="edge"><title>4&#45;&gt;12</title>
<path fill="none" stroke="black" d="M907.743,-162.907C927.636,-151.823 949.684,-139.18 969.5,-127 970.989,-126.085 972.503,-125.138 974.026,-124.173"/>
<polygon fill="black" stroke="black" points="976.258,-126.897 982.748,-118.522 972.452,-121.023 976.258,-126.897"/>
</g>
<!-- 13 -->
<g id="node14" class="node"><title>13</title>
<path fill="#d3e4ff" stroke="black" d="M1330,-127C1330,-127 1067,-127 1067,-127 1061,-127 1055,-121 1055,-115 1055,-115 1055,-86 1055,-86 1055,-80 1061,-74 1067,-74 1067,-74 1330,-74 1330,-74 1336,-74 1342,-80 1342,-86 1342,-86 1342,-115 1342,-115 1342,-121 1336,-127 1330,-127"/>
<text text-anchor="middle" x="1198.5" y="-111.8" font-family="Times,serif" font-size="14.00">comp 0</text>
<text text-anchor="middle" x="1198.5" y="-96.8" font-family="Times,serif" font-size="14.00">log gamma1: 0.291581 &#160;&#160;log gamma2: &#45;0.203649</text>
<text text-anchor="middle" x="1198.5" y="-81.8" font-family="Times,serif" font-size="14.00">n kernels: &#45;5</text>
</g>
<!-- 5&#45;&gt;13 -->
<g id="edge13" class="edge"><title>5&#45;&gt;13</title>
<path fill="none" stroke="black" d="M1419.5,-170.427C1379.51,-157.953 1331.26,-142.906 1290.06,-130.057"/>
<polygon fill="black" stroke="black" points="1290.89,-126.648 1280.3,-127.012 1288.8,-133.33 1290.89,-126.648"/>
</g>
<!-- 14 -->
<g id="node15" class="node"><title>14</title>
<path fill="#bfcfe6" stroke="black" d="M1631,-127C1631,-127 1372,-127 1372,-127 1366,-127 1360,-121 1360,-115 1360,-115 1360,-86 1360,-86 1360,-80 1366,-74 1372,-74 1372,-74 1631,-74 1631,-74 1637,-74 1643,-80 1643,-86 1643,-86 1643,-115 1643,-115 1643,-121 1637,-127 1631,-127"/>
<text text-anchor="middle" x="1501.5" y="-111.8" font-family="Times,serif" font-size="14.00">comp 1</text>
<text text-anchor="middle" x="1501.5" y="-96.8" font-family="Times,serif" font-size="14.00">log gamma1: 0.210081 &#160;&#160;log gamma2: 0.473815</text>
<text text-anchor="middle" x="1501.5" y="-81.8" font-family="Times,serif" font-size="14.00">n kernels: 10</text>
</g>
<!-- 5&#45;&gt;14 -->
<g id="edge14" class="edge"><title>5&#45;&gt;14</title>
<path fill="none" stroke="black" d="M1501.5,-170.177C1501.5,-160.073 1501.5,-148.309 1501.5,-137.403"/>
<polygon fill="black" stroke="black" points="1505,-137.291 1501.5,-127.291 1498,-137.291 1505,-137.291"/>
</g>
<!-- 15 -->
<g id="node16" class="node"><title>15</title>
<path fill="#abb9ce" stroke="black" d="M1707.5,-118.5C1707.5,-118.5 1673.5,-118.5 1673.5,-118.5 1667.5,-118.5 1661.5,-112.5 1661.5,-106.5 1661.5,-106.5 1661.5,-94.5 1661.5,-94.5 1661.5,-88.5 1667.5,-82.5 1673.5,-82.5 1673.5,-82.5 1707.5,-82.5 1707.5,-82.5 1713.5,-82.5 1719.5,-88.5 1719.5,-94.5 1719.5,-94.5 1719.5,-106.5 1719.5,-106.5 1719.5,-112.5 1713.5,-118.5 1707.5,-118.5"/>
<text text-anchor="middle" x="1690.5" y="-96.8" font-family="Times,serif" font-size="14.00">identity</text>
</g>
<!-- 5&#45;&gt;15 -->
<g id="edge15" class="edge"><title>5&#45;&gt;15</title>
<path fill="none" stroke="black" d="M1562.36,-170.458C1590.03,-158.225 1622.9,-142.813 1651.5,-127 1653.25,-126.031 1655.03,-125.011 1656.81,-123.959"/>
<polygon fill="black" stroke="black" points="1658.98,-126.738 1665.66,-118.52 1655.31,-120.775 1658.98,-126.738"/>
</g>
<!-- 16 -->
<g id="node17" class="node"><title>16</title>
<path fill="#d3e4ff" stroke="black" d="M2013,-127C2013,-127 1750,-127 1750,-127 1744,-127 1738,-121 1738,-115 1738,-115 1738,-86 1738,-86 1738,-80 1744,-74 1750,-74 1750,-74 2013,-74 2013,-74 2019,-74 2025,-80 2025,-86 2025,-86 2025,-115 2025,-115 2025,-121 2019,-127 2013,-127"/>
<text text-anchor="middle" x="1881.5" y="-111.8" font-family="Times,serif" font-size="14.00">comp 0</text>
<text text-anchor="middle" x="1881.5" y="-96.8" font-family="Times,serif" font-size="14.00">log gamma1: 0.494481 &#160;&#160;log gamma2: &#45;0.148945</text>
<text text-anchor="middle" x="1881.5" y="-81.8" font-family="Times,serif" font-size="14.00">n kernels: 1 &#160;&#160;pooling type: 1</text>
</g>
<!-- 6&#45;&gt;16 -->
<g id="edge16" class="edge"><title>6&#45;&gt;16</title>
<path fill="none" stroke="black" d="M1992.09,-177.779C1973.69,-165.09 1948.68,-147.84 1927.1,-132.954"/>
<polygon fill="black" stroke="black" points="1928.93,-129.964 1918.71,-127.167 1924.95,-135.726 1928.93,-129.964"/>
</g>
<!-- 17 -->
<g id="node18" class="node"><title>17</title>
<path fill="#bfcfe6" stroke="black" d="M2255.5,-119.5C2255.5,-119.5 2055.5,-119.5 2055.5,-119.5 2049.5,-119.5 2043.5,-113.5 2043.5,-107.5 2043.5,-107.5 2043.5,-93.5 2043.5,-93.5 2043.5,-87.5 2049.5,-81.5 2055.5,-81.5 2055.5,-81.5 2255.5,-81.5 2255.5,-81.5 2261.5,-81.5 2267.5,-87.5 2267.5,-93.5 2267.5,-93.5 2267.5,-107.5 2267.5,-107.5 2267.5,-113.5 2261.5,-119.5 2255.5,-119.5"/>
<text text-anchor="middle" x="2155.5" y="-104.3" font-family="Times,serif" font-size="14.00">comp 1</text>
<text text-anchor="middle" x="2155.5" y="-89.3" font-family="Times,serif" font-size="14.00">log gamma1: &#45;0.179435 &#160;&#160;n kernels: 2</text>
</g>
<!-- 6&#45;&gt;17 -->
<g id="edge17" class="edge"><title>6&#45;&gt;17</title>
<path fill="none" stroke="black" d="M2044.91,-177.779C2066.52,-162.876 2097.25,-141.681 2120.83,-125.414"/>
<polygon fill="black" stroke="black" points="2122.92,-128.224 2129.17,-119.665 2118.95,-122.462 2122.92,-128.224"/>
</g>
<!-- 18 -->
<g id="node19" class="node"><title>18</title>
<path fill="#abb9ce" stroke="black" d="M2331.5,-118.5C2331.5,-118.5 2297.5,-118.5 2297.5,-118.5 2291.5,-118.5 2285.5,-112.5 2285.5,-106.5 2285.5,-106.5 2285.5,-94.5 2285.5,-94.5 2285.5,-88.5 2291.5,-82.5 2297.5,-82.5 2297.5,-82.5 2331.5,-82.5 2331.5,-82.5 2337.5,-82.5 2343.5,-88.5 2343.5,-94.5 2343.5,-94.5 2343.5,-106.5 2343.5,-106.5 2343.5,-112.5 2337.5,-118.5 2331.5,-118.5"/>
<text text-anchor="middle" x="2314.5" y="-96.8" font-family="Times,serif" font-size="14.00">identity</text>
</g>
<!-- 6&#45;&gt;18 -->
<g id="edge18" class="edge"><title>6&#45;&gt;18</title>
<path fill="none" stroke="black" d="M2115.76,-177.953C2165.23,-166.807 2225.52,-150.145 2276.5,-127 2278.56,-126.066 2280.63,-125.025 2282.68,-123.912"/>
<polygon fill="black" stroke="black" points="2284.68,-126.796 2291.49,-118.682 2281.1,-120.777 2284.68,-126.796"/>
</g>
<!-- 19 -->
<g id="node20" class="node"><title>19</title>
<path fill="#f6d3ff" stroke="black" d="M127,-38C127,-38 92,-38 92,-38 86,-38 80,-32 80,-26 80,-26 80,-12 80,-12 80,-6 86,-0 92,-0 92,-0 127,-0 127,-0 133,-0 139,-6 139,-12 139,-12 139,-26 139,-26 139,-32 133,-38 127,-38"/>
<text text-anchor="middle" x="109.5" y="-22.8" font-family="Times,serif" font-size="14.00">forward</text>
<text text-anchor="middle" x="109.5" y="-7.8" font-family="Times,serif" font-size="14.00">input</text>
</g>
<!-- 7&#45;&gt;19 -->
<g id="edge19" class="edge"><title>7&#45;&gt;19</title>
<path fill="none" stroke="black" d="M109.5,-73.9081C109.5,-65.7377 109.5,-56.6492 109.5,-48.2981"/>
<polygon fill="black" stroke="black" points="113,-48.2389 109.5,-38.2389 106,-48.2389 113,-48.2389"/>
</g>
<!-- 20 -->
<g id="node21" class="node"><title>20</title>
<path fill="#f6d3ff" stroke="black" d="M304.5,-38C304.5,-38 268.5,-38 268.5,-38 262.5,-38 256.5,-32 256.5,-26 256.5,-26 256.5,-12 256.5,-12 256.5,-6 262.5,-0 268.5,-0 268.5,-0 304.5,-0 304.5,-0 310.5,-0 316.5,-6 316.5,-12 316.5,-12 316.5,-26 316.5,-26 316.5,-32 310.5,-38 304.5,-38"/>
<text text-anchor="middle" x="286.5" y="-22.8" font-family="Times,serif" font-size="14.00">forward</text>
<text text-anchor="middle" x="286.5" y="-7.8" font-family="Times,serif" font-size="14.00">EB0/C0</text>
</g>
<!-- 8&#45;&gt;20 -->
<g id="edge20" class="edge"><title>8&#45;&gt;20</title>
<path fill="none" stroke="black" d="M286.5,-81.4602C286.5,-71.67 286.5,-59.3453 286.5,-48.3073"/>
<polygon fill="black" stroke="black" points="290,-48.2435 286.5,-38.2436 283,-48.2436 290,-48.2435"/>
</g>
<!-- 21 -->
<g id="node22" class="node"><title>21</title>
<path fill="#f6d3ff" stroke="black" d="M391.5,-38C391.5,-38 355.5,-38 355.5,-38 349.5,-38 343.5,-32 343.5,-26 343.5,-26 343.5,-12 343.5,-12 343.5,-6 349.5,-0 355.5,-0 355.5,-0 391.5,-0 391.5,-0 397.5,-0 403.5,-6 403.5,-12 403.5,-12 403.5,-26 403.5,-26 403.5,-32 397.5,-38 391.5,-38"/>
<text text-anchor="middle" x="373.5" y="-22.8" font-family="Times,serif" font-size="14.00">residual</text>
<text text-anchor="middle" x="373.5" y="-7.8" font-family="Times,serif" font-size="14.00">EB0/C0</text>
</g>
<!-- 9&#45;&gt;21 -->
<g id="edge21" class="edge"><title>9&#45;&gt;21</title>
<path fill="none" stroke="black" d="M381.33,-82.2497C380.072,-72.25 378.458,-59.4178 377.023,-48.0048"/>
<polygon fill="black" stroke="black" points="380.49,-47.5294 375.77,-38.0444 373.545,-48.4031 380.49,-47.5294"/>
</g>
<!-- 22 -->
<g id="node23" class="node"><title>22</title>
<path fill="#debfe6" stroke="black" d="M469.5,-38C469.5,-38 433.5,-38 433.5,-38 427.5,-38 421.5,-32 421.5,-26 421.5,-26 421.5,-12 421.5,-12 421.5,-6 427.5,-0 433.5,-0 433.5,-0 469.5,-0 469.5,-0 475.5,-0 481.5,-6 481.5,-12 481.5,-12 481.5,-26 481.5,-26 481.5,-32 475.5,-38 469.5,-38"/>
<text text-anchor="middle" x="451.5" y="-22.8" font-family="Times,serif" font-size="14.00">forward</text>
<text text-anchor="middle" x="451.5" y="-7.8" font-family="Times,serif" font-size="14.00">EB0/C1</text>
</g>
<!-- 9&#45;&gt;22 -->
<g id="edge22" class="edge"><title>9&#45;&gt;22</title>
<path fill="none" stroke="black" d="M398.255,-82.2497C407.332,-71.6378 419.137,-57.8359 429.325,-45.9255"/>
<polygon fill="black" stroke="black" points="432.225,-47.9188 436.066,-38.0444 426.906,-43.3687 432.225,-47.9188"/>
</g>
<!-- 23 -->
<g id="node24" class="node"><title>23</title>
<path fill="#f6d3ff" stroke="black" d="M590,-38C590,-38 555,-38 555,-38 549,-38 543,-32 543,-26 543,-26 543,-12 543,-12 543,-6 549,-0 555,-0 555,-0 590,-0 590,-0 596,-0 602,-6 602,-12 602,-12 602,-26 602,-26 602,-32 596,-38 590,-38"/>
<text text-anchor="middle" x="572.5" y="-22.8" font-family="Times,serif" font-size="14.00">forward</text>
<text text-anchor="middle" x="572.5" y="-7.8" font-family="Times,serif" font-size="14.00">EB0/I</text>
</g>
<!-- 10&#45;&gt;23 -->
<g id="edge23" class="edge"><title>10&#45;&gt;23</title>
<path fill="none" stroke="black" d="M572.5,-73.9081C572.5,-65.7377 572.5,-56.6492 572.5,-48.2981"/>
<polygon fill="black" stroke="black" points="576,-48.2389 572.5,-38.2389 569,-48.2389 576,-48.2389"/>
</g>
<!-- 24 -->
<g id="node25" class="node"><title>24</title>
<path fill="#f6d3ff" stroke="black" d="M864.5,-38C864.5,-38 828.5,-38 828.5,-38 822.5,-38 816.5,-32 816.5,-26 816.5,-26 816.5,-12 816.5,-12 816.5,-6 822.5,-0 828.5,-0 828.5,-0 864.5,-0 864.5,-0 870.5,-0 876.5,-6 876.5,-12 876.5,-12 876.5,-26 876.5,-26 876.5,-32 870.5,-38 864.5,-38"/>
<text text-anchor="middle" x="846.5" y="-22.8" font-family="Times,serif" font-size="14.00">forward</text>
<text text-anchor="middle" x="846.5" y="-7.8" font-family="Times,serif" font-size="14.00">EB1/C0</text>
</g>
<!-- 11&#45;&gt;24 -->
<g id="edge24" class="edge"><title>11&#45;&gt;24</title>
<path fill="none" stroke="black" d="M846.5,-73.9081C846.5,-65.7377 846.5,-56.6492 846.5,-48.2981"/>
<polygon fill="black" stroke="black" points="850,-48.2389 846.5,-38.2389 843,-48.2389 850,-48.2389"/>
</g>
<!-- 25 -->
<g id="node26" class="node"><title>25</title>
<path fill="#f6d3ff" stroke="black" d="M966.5,-38C966.5,-38 930.5,-38 930.5,-38 924.5,-38 918.5,-32 918.5,-26 918.5,-26 918.5,-12 918.5,-12 918.5,-6 924.5,-0 930.5,-0 930.5,-0 966.5,-0 966.5,-0 972.5,-0 978.5,-6 978.5,-12 978.5,-12 978.5,-26 978.5,-26 978.5,-32 972.5,-38 966.5,-38"/>
<text text-anchor="middle" x="948.5" y="-22.8" font-family="Times,serif" font-size="14.00">residual</text>
<text text-anchor="middle" x="948.5" y="-7.8" font-family="Times,serif" font-size="14.00">EB1/C0</text>
</g>
<!-- 12&#45;&gt;25 -->
<g id="edge25" class="edge"><title>12&#45;&gt;25</title>
<path fill="none" stroke="black" d="M994.698,-82.2497C986.898,-71.7398 976.776,-58.101 967.996,-46.2695"/>
<polygon fill="black" stroke="black" points="970.662,-43.9888 961.891,-38.0444 965.04,-48.1605 970.662,-43.9888"/>
</g>
<!-- 26 -->
<g id="node27" class="node"><title>26</title>
<path fill="#debfe6" stroke="black" d="M1044.5,-38C1044.5,-38 1008.5,-38 1008.5,-38 1002.5,-38 996.5,-32 996.5,-26 996.5,-26 996.5,-12 996.5,-12 996.5,-6 1002.5,-0 1008.5,-0 1008.5,-0 1044.5,-0 1044.5,-0 1050.5,-0 1056.5,-6 1056.5,-12 1056.5,-12 1056.5,-26 1056.5,-26 1056.5,-32 1050.5,-38 1044.5,-38"/>
<text text-anchor="middle" x="1026.5" y="-22.8" font-family="Times,serif" font-size="14.00">forward</text>
<text text-anchor="middle" x="1026.5" y="-7.8" font-family="Times,serif" font-size="14.00">EB1/C1</text>
</g>
<!-- 12&#45;&gt;26 -->
<g id="edge26" class="edge"><title>12&#45;&gt;26</title>
<path fill="none" stroke="black" d="M1011.62,-82.2497C1014.01,-72.25 1017.08,-59.4178 1019.81,-48.0048"/>
<polygon fill="black" stroke="black" points="1023.27,-48.5841 1022.19,-38.0444 1016.46,-46.9569 1023.27,-48.5841"/>
</g>
<!-- 27 -->
<g id="node28" class="node"><title>27</title>
<path fill="#f6d3ff" stroke="black" d="M1178,-38C1178,-38 1143,-38 1143,-38 1137,-38 1131,-32 1131,-26 1131,-26 1131,-12 1131,-12 1131,-6 1137,-0 1143,-0 1143,-0 1178,-0 1178,-0 1184,-0 1190,-6 1190,-12 1190,-12 1190,-26 1190,-26 1190,-32 1184,-38 1178,-38"/>
<text text-anchor="middle" x="1160.5" y="-22.8" font-family="Times,serif" font-size="14.00">forward</text>
<text text-anchor="middle" x="1160.5" y="-7.8" font-family="Times,serif" font-size="14.00">EB1/I</text>
</g>
<!-- 13&#45;&gt;27 -->
<g id="edge27" class="edge"><title>13&#45;&gt;27</title>
<path fill="none" stroke="black" d="M1186.27,-73.9081C1182.23,-65.4653 1177.73,-56.0423 1173.63,-47.4655"/>
<polygon fill="black" stroke="black" points="1176.69,-45.7518 1169.22,-38.2389 1170.37,-48.7706 1176.69,-45.7518"/>
</g>
<!-- 28 -->
<g id="node29" class="node"><title>28</title>
<path fill="#debfe6" stroke="black" d="M1250.5,-38C1250.5,-38 1220.5,-38 1220.5,-38 1214.5,-38 1208.5,-32 1208.5,-26 1208.5,-26 1208.5,-12 1208.5,-12 1208.5,-6 1214.5,-0 1220.5,-0 1220.5,-0 1250.5,-0 1250.5,-0 1256.5,-0 1262.5,-6 1262.5,-12 1262.5,-12 1262.5,-26 1262.5,-26 1262.5,-32 1256.5,-38 1250.5,-38"/>
<text text-anchor="middle" x="1235.5" y="-22.8" font-family="Times,serif" font-size="14.00">merge</text>
<text text-anchor="middle" x="1235.5" y="-7.8" font-family="Times,serif" font-size="14.00">EB1/I</text>
</g>
<!-- 13&#45;&gt;28 -->
<g id="edge28" class="edge"><title>13&#45;&gt;28</title>
<path fill="none" stroke="black" d="M1210.41,-73.9081C1214.34,-65.4653 1218.73,-56.0423 1222.72,-47.4655"/>
<polygon fill="black" stroke="black" points="1225.97,-48.782 1227.01,-38.2389 1219.62,-45.8283 1225.97,-48.782"/>
</g>
<!-- 29 -->
<g id="node30" class="node"><title>29</title>
<path fill="#f6d3ff" stroke="black" d="M1520.5,-38C1520.5,-38 1482.5,-38 1482.5,-38 1476.5,-38 1470.5,-32 1470.5,-26 1470.5,-26 1470.5,-12 1470.5,-12 1470.5,-6 1476.5,-0 1482.5,-0 1482.5,-0 1520.5,-0 1520.5,-0 1526.5,-0 1532.5,-6 1532.5,-12 1532.5,-12 1532.5,-26 1532.5,-26 1532.5,-32 1526.5,-38 1520.5,-38"/>
<text text-anchor="middle" x="1501.5" y="-22.8" font-family="Times,serif" font-size="14.00">forward</text>
<text text-anchor="middle" x="1501.5" y="-7.8" font-family="Times,serif" font-size="14.00">DB1/C0</text>
</g>
<!-- 14&#45;&gt;29 -->
<g id="edge29" class="edge"><title>14&#45;&gt;29</title>
<path fill="none" stroke="black" d="M1501.5,-73.9081C1501.5,-65.7377 1501.5,-56.6492 1501.5,-48.2981"/>
<polygon fill="black" stroke="black" points="1505,-48.2389 1501.5,-38.2389 1498,-48.2389 1505,-48.2389"/>
</g>
<!-- 30 -->
<g id="node31" class="node"><title>30</title>
<path fill="#f6d3ff" stroke="black" d="M1647.5,-38C1647.5,-38 1609.5,-38 1609.5,-38 1603.5,-38 1597.5,-32 1597.5,-26 1597.5,-26 1597.5,-12 1597.5,-12 1597.5,-6 1603.5,-0 1609.5,-0 1609.5,-0 1647.5,-0 1647.5,-0 1653.5,-0 1659.5,-6 1659.5,-12 1659.5,-12 1659.5,-26 1659.5,-26 1659.5,-32 1653.5,-38 1647.5,-38"/>
<text text-anchor="middle" x="1628.5" y="-22.8" font-family="Times,serif" font-size="14.00">residual</text>
<text text-anchor="middle" x="1628.5" y="-7.8" font-family="Times,serif" font-size="14.00">DB1/C0</text>
</g>
<!-- 15&#45;&gt;30 -->
<g id="edge30" class="edge"><title>15&#45;&gt;30</title>
<path fill="none" stroke="black" d="M1677.05,-82.2497C1668.85,-71.7398 1658.21,-58.101 1648.99,-46.2695"/>
<polygon fill="black" stroke="black" points="1651.48,-43.7776 1642.57,-38.0444 1645.96,-48.0824 1651.48,-43.7776"/>
</g>
<!-- 31 -->
<g id="node32" class="node"><title>31</title>
<path fill="#debfe6" stroke="black" d="M1727.5,-38C1727.5,-38 1689.5,-38 1689.5,-38 1683.5,-38 1677.5,-32 1677.5,-26 1677.5,-26 1677.5,-12 1677.5,-12 1677.5,-6 1683.5,-0 1689.5,-0 1689.5,-0 1727.5,-0 1727.5,-0 1733.5,-0 1739.5,-6 1739.5,-12 1739.5,-12 1739.5,-26 1739.5,-26 1739.5,-32 1733.5,-38 1727.5,-38"/>
<text text-anchor="middle" x="1708.5" y="-22.8" font-family="Times,serif" font-size="14.00">forward</text>
<text text-anchor="middle" x="1708.5" y="-7.8" font-family="Times,serif" font-size="14.00">DB1/C1</text>
</g>
<!-- 15&#45;&gt;31 -->
<g id="edge31" class="edge"><title>15&#45;&gt;31</title>
<path fill="none" stroke="black" d="M1694.41,-82.2497C1696.67,-72.25 1699.58,-59.4178 1702.16,-48.0048"/>
<polygon fill="black" stroke="black" points="1705.62,-48.5705 1704.41,-38.0444 1698.79,-47.0247 1705.62,-48.5705"/>
</g>
<!-- 32 -->
<g id="node33" class="node"><title>32</title>
<path fill="#f6d3ff" stroke="black" d="M1861,-38C1861,-38 1826,-38 1826,-38 1820,-38 1814,-32 1814,-26 1814,-26 1814,-12 1814,-12 1814,-6 1820,-0 1826,-0 1826,-0 1861,-0 1861,-0 1867,-0 1873,-6 1873,-12 1873,-12 1873,-26 1873,-26 1873,-32 1867,-38 1861,-38"/>
<text text-anchor="middle" x="1843.5" y="-22.8" font-family="Times,serif" font-size="14.00">forward</text>
<text text-anchor="middle" x="1843.5" y="-7.8" font-family="Times,serif" font-size="14.00">DB1/I</text>
</g>
<!-- 16&#45;&gt;32 -->
<g id="edge32" class="edge"><title>16&#45;&gt;32</title>
<path fill="none" stroke="black" d="M1869.27,-73.9081C1865.23,-65.4653 1860.73,-56.0423 1856.63,-47.4655"/>
<polygon fill="black" stroke="black" points="1859.69,-45.7518 1852.22,-38.2389 1853.37,-48.7706 1859.69,-45.7518"/>
</g>
<!-- 33 -->
<g id="node34" class="node"><title>33</title>
<path fill="#debfe6" stroke="black" d="M1933.5,-38C1933.5,-38 1903.5,-38 1903.5,-38 1897.5,-38 1891.5,-32 1891.5,-26 1891.5,-26 1891.5,-12 1891.5,-12 1891.5,-6 1897.5,-0 1903.5,-0 1903.5,-0 1933.5,-0 1933.5,-0 1939.5,-0 1945.5,-6 1945.5,-12 1945.5,-12 1945.5,-26 1945.5,-26 1945.5,-32 1939.5,-38 1933.5,-38"/>
<text text-anchor="middle" x="1918.5" y="-22.8" font-family="Times,serif" font-size="14.00">merge</text>
<text text-anchor="middle" x="1918.5" y="-7.8" font-family="Times,serif" font-size="14.00">EB0/I</text>
</g>
<!-- 16&#45;&gt;33 -->
<g id="edge33" class="edge"><title>16&#45;&gt;33</title>
<path fill="none" stroke="black" d="M1893.41,-73.9081C1897.34,-65.4653 1901.73,-56.0423 1905.72,-47.4655"/>
<polygon fill="black" stroke="black" points="1908.97,-48.782 1910.01,-38.2389 1902.62,-45.8283 1908.97,-48.782"/>
</g>
<!-- 34 -->
<g id="node35" class="node"><title>34</title>
<path fill="#f6d3ff" stroke="black" d="M2174.5,-38C2174.5,-38 2136.5,-38 2136.5,-38 2130.5,-38 2124.5,-32 2124.5,-26 2124.5,-26 2124.5,-12 2124.5,-12 2124.5,-6 2130.5,-0 2136.5,-0 2136.5,-0 2174.5,-0 2174.5,-0 2180.5,-0 2186.5,-6 2186.5,-12 2186.5,-12 2186.5,-26 2186.5,-26 2186.5,-32 2180.5,-38 2174.5,-38"/>
<text text-anchor="middle" x="2155.5" y="-22.8" font-family="Times,serif" font-size="14.00">forward</text>
<text text-anchor="middle" x="2155.5" y="-7.8" font-family="Times,serif" font-size="14.00">DB0/C0</text>
</g>
<!-- 17&#45;&gt;34 -->
<g id="edge34" class="edge"><title>17&#45;&gt;34</title>
<path fill="none" stroke="black" d="M2155.5,-81.4602C2155.5,-71.67 2155.5,-59.3453 2155.5,-48.3073"/>
<polygon fill="black" stroke="black" points="2159,-48.2435 2155.5,-38.2436 2152,-48.2436 2159,-48.2435"/>
</g>
<!-- 35 -->
<g id="node36" class="node"><title>35</title>
<path fill="#f6d3ff" stroke="black" d="M2293.5,-38C2293.5,-38 2255.5,-38 2255.5,-38 2249.5,-38 2243.5,-32 2243.5,-26 2243.5,-26 2243.5,-12 2243.5,-12 2243.5,-6 2249.5,-0 2255.5,-0 2255.5,-0 2293.5,-0 2293.5,-0 2299.5,-0 2305.5,-6 2305.5,-12 2305.5,-12 2305.5,-26 2305.5,-26 2305.5,-32 2299.5,-38 2293.5,-38"/>
<text text-anchor="middle" x="2274.5" y="-22.8" font-family="Times,serif" font-size="14.00">residual</text>
<text text-anchor="middle" x="2274.5" y="-7.8" font-family="Times,serif" font-size="14.00">DB0/C0</text>
</g>
<!-- 18&#45;&gt;35 -->
<g id="edge35" class="edge"><title>18&#45;&gt;35</title>
<path fill="none" stroke="black" d="M2305.82,-82.2497C2300.69,-72.0459 2294.07,-58.8928 2288.24,-47.3078"/>
<polygon fill="black" stroke="black" points="2291.2,-45.4043 2283.58,-38.0444 2284.95,-48.5506 2291.2,-45.4043"/>
</g>
<!-- 36 -->
<g id="node37" class="node"><title>36</title>
<path fill="#debfe6" stroke="black" d="M2373.5,-38C2373.5,-38 2335.5,-38 2335.5,-38 2329.5,-38 2323.5,-32 2323.5,-26 2323.5,-26 2323.5,-12 2323.5,-12 2323.5,-6 2329.5,-0 2335.5,-0 2335.5,-0 2373.5,-0 2373.5,-0 2379.5,-0 2385.5,-6 2385.5,-12 2385.5,-12 2385.5,-26 2385.5,-26 2385.5,-32 2379.5,-38 2373.5,-38"/>
<text text-anchor="middle" x="2354.5" y="-22.8" font-family="Times,serif" font-size="14.00">forward</text>
<text text-anchor="middle" x="2354.5" y="-7.8" font-family="Times,serif" font-size="14.00">DB0/C1</text>
</g>
<!-- 18&#45;&gt;36 -->
<g id="edge36" class="edge"><title>18&#45;&gt;36</title>
<path fill="none" stroke="black" d="M2323.18,-82.2497C2328.31,-72.0459 2334.93,-58.8928 2340.76,-47.3078"/>
<polygon fill="black" stroke="black" points="2344.05,-48.5506 2345.42,-38.0444 2337.8,-45.4043 2344.05,-48.5506"/>
</g>
</g>
</svg>
