<?xml version="1.0" encoding="UTF-8" standalone="no"?>
<!DOCTYPE svg PUBLIC "-//W3C//DTD SVG 1.1//EN"
 "http://www.w3.org/Graphics/SVG/1.1/DTD/svg11.dtd">
<!-- Generated by graphviz version 2.38.0 (20140413.2041)
 -->
<!-- Title: %3 Pages: 1 -->
<svg width="636pt" height="358pt"
 viewBox="0.00 0.00 636.00 358.00" xmlns="http://www.w3.org/2000/svg" xmlns:xlink="http://www.w3.org/1999/xlink">
<g id="graph0" class="graph" transform="scale(1 1) rotate(0) translate(4 354)">
<title>%3</title>
<polygon fill="none" stroke="none" points="-4,4 -4,-354 632,-354 632,4 -4,4"/>
<!-- 0 -->
<g id="node1" class="node"><title>0</title>
<path fill="#ffd3d3" stroke="black" d="M409,-350C409,-350 218,-350 218,-350 212,-350 206,-344 206,-338 206,-338 206,-309 206,-309 206,-303 212,-297 218,-297 218,-297 409,-297 409,-297 415,-297 421,-303 421,-309 421,-309 421,-338 421,-338 421,-344 415,-350 409,-350"/>
<text text-anchor="middle" x="313.5" y="-334.8" font-family="Times,serif" font-size="14.00">net</text>
<text text-anchor="middle" x="313.5" y="-319.8" font-family="Times,serif" font-size="14.00">k width: 3 &#160;&#160;log gamma2: &#45;4.564830</text>
<text text-anchor="middle" x="313.5" y="-304.8" font-family="Times,serif" font-size="14.00">n kernels: 60</text>
</g>
<!-- 1 -->
<g id="node2" class="node"><title>1</title>
<path fill="#e9ffd3" stroke="black" d="M447.5,-261C447.5,-261 179.5,-261 179.5,-261 173.5,-261 167.5,-255 167.5,-249 167.5,-249 167.5,-235 167.5,-235 167.5,-229 173.5,-223 179.5,-223 179.5,-223 447.5,-223 447.5,-223 453.5,-223 459.5,-229 459.5,-235 459.5,-235 459.5,-249 459.5,-249 459.5,-255 453.5,-261 447.5,-261"/>
<text text-anchor="middle" x="313.5" y="-245.8" font-family="Times,serif" font-size="14.00">conv block 0</text>
<text text-anchor="middle" x="313.5" y="-230.8" font-family="Times,serif" font-size="14.00">log gamma1: &#45;1.461506 &#160;&#160;log gamma2: &#45;0.253839</text>
</g>
<!-- 0&#45;&gt;1 -->
<g id="edge1" class="edge"><title>0&#45;&gt;1</title>
<path fill="none" stroke="black" d="M313.5,-296.908C313.5,-288.738 313.5,-279.649 313.5,-271.298"/>
<polygon fill="black" stroke="black" points="317,-271.239 313.5,-261.239 310,-271.239 317,-271.239"/>
</g>
<!-- 2 -->
<g id="node3" class="node"><title>2</title>
<path fill="#d3ffff" stroke="black" d="M317,-187C317,-187 54,-187 54,-187 48,-187 42,-181 42,-175 42,-175 42,-146 42,-146 42,-140 48,-134 54,-134 54,-134 317,-134 317,-134 323,-134 329,-140 329,-146 329,-146 329,-175 329,-175 329,-181 323,-187 317,-187"/>
<text text-anchor="middle" x="185.5" y="-171.8" font-family="Times,serif" font-size="14.00">comp 0</text>
<text text-anchor="middle" x="185.5" y="-156.8" font-family="Times,serif" font-size="14.00">log gamma1: 0.788548 &#160;&#160;log gamma2: &#45;0.420950</text>
<text text-anchor="middle" x="185.5" y="-141.8" font-family="Times,serif" font-size="14.00">n kernels: 12</text>
</g>
<!-- 1&#45;&gt;2 -->
<g id="edge2" class="edge"><title>1&#45;&gt;2</title>
<path fill="none" stroke="black" d="M284.455,-222.96C269.883,-213.909 251.823,-202.693 235.136,-192.329"/>
<polygon fill="black" stroke="black" points="236.903,-189.306 226.561,-187.003 233.209,-195.252 236.903,-189.306"/>
</g>
<!-- 3 -->
<g id="node4" class="node"><title>3</title>
<path fill="#bfe6e6" stroke="black" d="M459.5,-178.5C459.5,-178.5 425.5,-178.5 425.5,-178.5 419.5,-178.5 413.5,-172.5 413.5,-166.5 413.5,-166.5 413.5,-154.5 413.5,-154.5 413.5,-148.5 419.5,-142.5 425.5,-142.5 425.5,-142.5 459.5,-142.5 459.5,-142.5 465.5,-142.5 471.5,-148.5 471.5,-154.5 471.5,-154.5 471.5,-166.5 471.5,-166.5 471.5,-172.5 465.5,-178.5 459.5,-178.5"/>
<text text-anchor="middle" x="442.5" y="-156.8" font-family="Times,serif" font-size="14.00">comp 1</text>
</g>
<!-- 1&#45;&gt;3 -->
<g id="edge3" class="edge"><title>1&#45;&gt;3</title>
<path fill="none" stroke="black" d="M342.772,-222.96C361.551,-211.387 386.076,-196.273 406.106,-183.929"/>
<polygon fill="black" stroke="black" points="407.993,-186.877 414.67,-178.651 404.321,-180.918 407.993,-186.877"/>
</g>
<!-- 4 -->
<g id="node5" class="node"><title>4</title>
<path fill="#e9d3ff" stroke="black" d="M293,-98C293,-98 12,-98 12,-98 6,-98 0,-92 0,-86 0,-86 0,-12 0,-12 0,-6 6,-0 12,-0 12,-0 293,-0 293,-0 299,-0 305,-6 305,-12 305,-12 305,-86 305,-86 305,-92 299,-98 293,-98"/>
<text text-anchor="middle" x="152.5" y="-82.8" font-family="Times,serif" font-size="14.00">forward</text>
<text text-anchor="middle" x="152.5" y="-67.8" font-family="Times,serif" font-size="14.00">input</text>
<text text-anchor="middle" x="152.5" y="-52.8" font-family="Times,serif" font-size="14.00">dilation rate: 1 &#160;&#160;k width: 3</text>
<text text-anchor="middle" x="152.5" y="-37.8" font-family="Times,serif" font-size="14.00">log gamma1: &#45;11.000000 &#160;&#160;log gamma2: &#45;11.000000</text>
<text text-anchor="middle" x="152.5" y="-22.8" font-family="Times,serif" font-size="14.00">log lambda1: &#45;11.000000 &#160;&#160;log lambda2: &#45;11.000000</text>
<text text-anchor="middle" x="152.5" y="-7.8" font-family="Times,serif" font-size="14.00">n kernels: 64</text>
</g>
<!-- 2&#45;&gt;4 -->
<g id="edge4" class="edge"><title>2&#45;&gt;4</title>
<path fill="none" stroke="black" d="M177.763,-133.827C175.413,-126.028 172.728,-117.12 170.007,-108.091"/>
<polygon fill="black" stroke="black" points="173.291,-106.857 167.054,-98.2922 166.588,-108.877 173.291,-106.857"/>
</g>
<!-- 5 -->
<g id="node6" class="node"><title>5</title>
<path fill="#e9d3ff" stroke="black" d="M616,-98C616,-98 335,-98 335,-98 329,-98 323,-92 323,-86 323,-86 323,-12 323,-12 323,-6 329,-0 335,-0 335,-0 616,-0 616,-0 622,-0 628,-6 628,-12 628,-12 628,-86 628,-86 628,-92 622,-98 616,-98"/>
<text text-anchor="middle" x="475.5" y="-82.8" font-family="Times,serif" font-size="14.00">forward</text>
<text text-anchor="middle" x="475.5" y="-67.8" font-family="Times,serif" font-size="14.00">CB0/C0</text>
<text text-anchor="middle" x="475.5" y="-52.8" font-family="Times,serif" font-size="14.00">dilation rate: 1 &#160;&#160;k width: 3</text>
<text text-anchor="middle" x="475.5" y="-37.8" font-family="Times,serif" font-size="14.00">log gamma1: &#45;11.000000 &#160;&#160;log gamma2: &#45;11.000000</text>
<text text-anchor="middle" x="475.5" y="-22.8" font-family="Times,serif" font-size="14.00">log lambda1: &#45;11.000000 &#160;&#160;log lambda2: &#45;11.000000</text>
<text text-anchor="middle" x="475.5" y="-7.8" font-family="Times,serif" font-size="14.00">n kernels: 64</text>
</g>
<!-- 3&#45;&gt;5 -->
<g id="edge5" class="edge"><title>3&#45;&gt;5</title>
<path fill="none" stroke="black" d="M447.656,-142.391C450.516,-132.9 454.258,-120.485 458.066,-107.849"/>
<polygon fill="black" stroke="black" points="461.443,-108.772 460.978,-98.1876 454.741,-106.752 461.443,-108.772"/>
</g>
</g>
</svg>
