<?xml version="1.0" encoding="UTF-8" standalone="no"?>
<!DOCTYPE svg PUBLIC "-//W3C//DTD SVG 1.1//EN"
 "http://www.w3.org/Graphics/SVG/1.1/DTD/svg11.dtd">
<!-- Generated by graphviz version 2.38.0 (20140413.2041)
 -->
<!-- Title: %3 Pages: 1 -->
<svg width="4696pt" height="385pt"
 viewBox="0.00 0.00 4696.00 385.00" xmlns="http://www.w3.org/2000/svg" xmlns:xlink="http://www.w3.org/1999/xlink">
<g id="graph0" class="graph" transform="scale(1 1) rotate(0) translate(4 381)">
<title>%3</title>
<polygon fill="none" stroke="none" points="-4,4 -4,-381 4692,-381 4692,4 -4,4"/>
<!-- 0 -->
<g id="node1" class="node"><title>0</title>
<path fill="#ffd3d3" stroke="black" d="M1851.5,-377C1851.5,-377 1571.5,-377 1571.5,-377 1565.5,-377 1559.5,-371 1559.5,-365 1559.5,-365 1559.5,-336 1559.5,-336 1559.5,-330 1565.5,-324 1571.5,-324 1571.5,-324 1851.5,-324 1851.5,-324 1857.5,-324 1863.5,-330 1863.5,-336 1863.5,-336 1863.5,-365 1863.5,-365 1863.5,-371 1857.5,-377 1851.5,-377"/>
<text text-anchor="middle" x="1711.5" y="-361.8" font-family="Times,serif" font-size="14.00">net</text>
<text text-anchor="middle" x="1711.5" y="-346.8" font-family="Times,serif" font-size="14.00">log lambda1: &#45;11.000000 &#160;&#160;log lambda2: &#45;11.000000</text>
<text text-anchor="middle" x="1711.5" y="-331.8" font-family="Times,serif" font-size="14.00">n kernels: 64 &#160;&#160;pooling type: 0</text>
</g>
<!-- 1 -->
<g id="node2" class="node"><title>1</title>
<path fill="#f6ffd3" stroke="black" d="M788,-288C788,-288 753,-288 753,-288 747,-288 741,-282 741,-276 741,-276 741,-264 741,-264 741,-258 747,-252 753,-252 753,-252 788,-252 788,-252 794,-252 800,-258 800,-264 800,-264 800,-276 800,-276 800,-282 794,-288 788,-288"/>
<text text-anchor="middle" x="770.5" y="-266.3" font-family="Times,serif" font-size="14.00">encoder</text>
</g>
<!-- 0&#45;&gt;1 -->
<g id="edge1" class="edge"><title>0&#45;&gt;1</title>
<path fill="none" stroke="black" d="M1559.27,-336.8C1337.16,-318.272 936.916,-284.883 810.139,-274.307"/>
<polygon fill="black" stroke="black" points="810.361,-270.813 800.105,-273.47 809.779,-277.789 810.361,-270.813"/>
</g>
<!-- 2 -->
<g id="node3" class="node"><title>2</title>
<path fill="#f6ffd3" stroke="black" d="M2525,-288C2525,-288 2490,-288 2490,-288 2484,-288 2478,-282 2478,-276 2478,-276 2478,-264 2478,-264 2478,-258 2484,-252 2490,-252 2490,-252 2525,-252 2525,-252 2531,-252 2537,-258 2537,-264 2537,-264 2537,-276 2537,-276 2537,-282 2531,-288 2525,-288"/>
<text text-anchor="middle" x="2507.5" y="-266.3" font-family="Times,serif" font-size="14.00">decoder</text>
</g>
<!-- 0&#45;&gt;2 -->
<g id="edge2" class="edge"><title>0&#45;&gt;2</title>
<path fill="none" stroke="black" d="M1863.56,-334.504C2051.13,-316.006 2358.55,-285.689 2467.6,-274.934"/>
<polygon fill="black" stroke="black" points="2468.22,-278.391 2477.83,-273.926 2467.53,-271.425 2468.22,-278.391"/>
</g>
<!-- 3 -->
<g id="node4" class="node"><title>3</title>
<path fill="#d3ffe4" stroke="black" d="M300,-215C300,-215 225,-215 225,-215 219,-215 213,-209 213,-203 213,-203 213,-191 213,-191 213,-185 219,-179 225,-179 225,-179 300,-179 300,-179 306,-179 312,-185 312,-191 312,-191 312,-203 312,-203 312,-209 306,-215 300,-215"/>
<text text-anchor="middle" x="262.5" y="-193.3" font-family="Times,serif" font-size="14.00">encode block 0</text>
</g>
<!-- 1&#45;&gt;3 -->
<g id="edge3" class="edge"><title>1&#45;&gt;3</title>
<path fill="none" stroke="black" d="M740.992,-264.876C659.757,-253.522 431.629,-221.638 322.338,-206.363"/>
<polygon fill="black" stroke="black" points="322.53,-202.856 312.141,-204.938 321.561,-209.789 322.53,-202.856"/>
</g>
<!-- 4 -->
<g id="node5" class="node"><title>4</title>
<path fill="#bfe6cf" stroke="black" d="M702,-216C702,-216 547,-216 547,-216 541,-216 535,-210 535,-204 535,-204 535,-190 535,-190 535,-184 541,-178 547,-178 547,-178 702,-178 702,-178 708,-178 714,-184 714,-190 714,-190 714,-204 714,-204 714,-210 708,-216 702,-216"/>
<text text-anchor="middle" x="624.5" y="-200.8" font-family="Times,serif" font-size="14.00">encode block 1</text>
<text text-anchor="middle" x="624.5" y="-185.8" font-family="Times,serif" font-size="14.00">n kernels: 64 &#160;&#160;spatial scale: 1</text>
</g>
<!-- 1&#45;&gt;4 -->
<g id="edge4" class="edge"><title>1&#45;&gt;4</title>
<path fill="none" stroke="black" d="M740.955,-254.632C720.815,-244.838 693.739,-231.671 670.762,-220.497"/>
<polygon fill="black" stroke="black" points="672.051,-217.232 661.528,-216.007 668.99,-223.528 672.051,-217.232"/>
</g>
<!-- 5 -->
<g id="node6" class="node"><title>5</title>
<path fill="#abceb9" stroke="black" d="M977,-216C977,-216 816,-216 816,-216 810,-216 804,-210 804,-204 804,-204 804,-190 804,-190 804,-184 810,-178 816,-178 816,-178 977,-178 977,-178 983,-178 989,-184 989,-190 989,-190 989,-204 989,-204 989,-210 983,-216 977,-216"/>
<text text-anchor="middle" x="896.5" y="-200.8" font-family="Times,serif" font-size="14.00">encode block 2</text>
<text text-anchor="middle" x="896.5" y="-185.8" font-family="Times,serif" font-size="14.00">n kernels: 192 &#160;&#160;spatial scale: 2</text>
</g>
<!-- 1&#45;&gt;5 -->
<g id="edge5" class="edge"><title>1&#45;&gt;5</title>
<path fill="none" stroke="black" d="M800.041,-252.354C816.518,-243.069 837.295,-231.361 855.343,-221.192"/>
<polygon fill="black" stroke="black" points="857.501,-223.993 864.495,-216.035 854.065,-217.895 857.501,-223.993"/>
</g>
<!-- 6 -->
<g id="node7" class="node"><title>6</title>
<path fill="#d3ffe4" stroke="black" d="M1882,-216C1882,-216 1721,-216 1721,-216 1715,-216 1709,-210 1709,-204 1709,-204 1709,-190 1709,-190 1709,-184 1715,-178 1721,-178 1721,-178 1882,-178 1882,-178 1888,-178 1894,-184 1894,-190 1894,-190 1894,-204 1894,-204 1894,-210 1888,-216 1882,-216"/>
<text text-anchor="middle" x="1801.5" y="-200.8" font-family="Times,serif" font-size="14.00">decode block 3</text>
<text text-anchor="middle" x="1801.5" y="-185.8" font-family="Times,serif" font-size="14.00">n kernels: 448 &#160;&#160;spatial scale: 3</text>
</g>
<!-- 2&#45;&gt;6 -->
<g id="edge6" class="edge"><title>2&#45;&gt;6</title>
<path fill="none" stroke="black" d="M2477.61,-265.995C2380.12,-256.19 2068.19,-224.82 1904.31,-208.339"/>
<polygon fill="black" stroke="black" points="1904.51,-204.842 1894.21,-207.324 1903.81,-211.807 1904.51,-204.842"/>
</g>
<!-- 7 -->
<g id="node8" class="node"><title>7</title>
<path fill="#bfe6cf" stroke="black" d="M2588,-216C2588,-216 2427,-216 2427,-216 2421,-216 2415,-210 2415,-204 2415,-204 2415,-190 2415,-190 2415,-184 2421,-178 2427,-178 2427,-178 2588,-178 2588,-178 2594,-178 2600,-184 2600,-190 2600,-190 2600,-204 2600,-204 2600,-210 2594,-216 2588,-216"/>
<text text-anchor="middle" x="2507.5" y="-200.8" font-family="Times,serif" font-size="14.00">decode block 2</text>
<text text-anchor="middle" x="2507.5" y="-185.8" font-family="Times,serif" font-size="14.00">n kernels: 192 &#160;&#160;spatial scale: 2</text>
</g>
<!-- 2&#45;&gt;7 -->
<g id="edge7" class="edge"><title>2&#45;&gt;7</title>
<path fill="none" stroke="black" d="M2507.5,-251.813C2507.5,-244.11 2507.5,-234.823 2507.5,-226.149"/>
<polygon fill="black" stroke="black" points="2511,-226.02 2507.5,-216.02 2504,-226.02 2511,-226.02"/>
</g>
<!-- 8 -->
<g id="node9" class="node"><title>8</title>
<path fill="#abceb9" stroke="black" d="M3236,-216C3236,-216 3081,-216 3081,-216 3075,-216 3069,-210 3069,-204 3069,-204 3069,-190 3069,-190 3069,-184 3075,-178 3081,-178 3081,-178 3236,-178 3236,-178 3242,-178 3248,-184 3248,-190 3248,-190 3248,-204 3248,-204 3248,-210 3242,-216 3236,-216"/>
<text text-anchor="middle" x="3158.5" y="-200.8" font-family="Times,serif" font-size="14.00">decode block 1</text>
<text text-anchor="middle" x="3158.5" y="-185.8" font-family="Times,serif" font-size="14.00">n kernels: 64 &#160;&#160;spatial scale: 1</text>
</g>
<!-- 2&#45;&gt;8 -->
<g id="edge8" class="edge"><title>2&#45;&gt;8</title>
<path fill="none" stroke="black" d="M2537.16,-265.765C2628.35,-255.82 2907.47,-225.378 3058.67,-208.888"/>
<polygon fill="black" stroke="black" points="3059.32,-212.338 3068.88,-207.774 3058.56,-205.379 3059.32,-212.338"/>
</g>
<!-- 9 -->
<g id="node10" class="node"><title>9</title>
<path fill="#97b6a3" stroke="black" d="M4338,-215C4338,-215 4263,-215 4263,-215 4257,-215 4251,-209 4251,-203 4251,-203 4251,-191 4251,-191 4251,-185 4257,-179 4263,-179 4263,-179 4338,-179 4338,-179 4344,-179 4350,-185 4350,-191 4350,-191 4350,-203 4350,-203 4350,-209 4344,-215 4338,-215"/>
<text text-anchor="middle" x="4300.5" y="-193.3" font-family="Times,serif" font-size="14.00">decode block 0</text>
</g>
<!-- 2&#45;&gt;9 -->
<g id="edge9" class="edge"><title>2&#45;&gt;9</title>
<path fill="none" stroke="black" d="M2537.12,-267.827C2742.55,-259.692 3955.22,-211.673 4240.45,-200.378"/>
<polygon fill="black" stroke="black" points="4240.74,-203.869 4250.6,-199.976 4240.46,-196.875 4240.74,-203.869"/>
</g>
<!-- 10 -->
<g id="node11" class="node"><title>10</title>
<path fill="#d3e4ff" stroke="black" d="M121.5,-141C121.5,-141 87.5,-141 87.5,-141 81.5,-141 75.5,-135 75.5,-129 75.5,-129 75.5,-117 75.5,-117 75.5,-111 81.5,-105 87.5,-105 87.5,-105 121.5,-105 121.5,-105 127.5,-105 133.5,-111 133.5,-117 133.5,-117 133.5,-129 133.5,-129 133.5,-135 127.5,-141 121.5,-141"/>
<text text-anchor="middle" x="104.5" y="-119.3" font-family="Times,serif" font-size="14.00">comp 0</text>
</g>
<!-- 3&#45;&gt;10 -->
<g id="edge10" class="edge"><title>3&#45;&gt;10</title>
<path fill="none" stroke="black" d="M225.056,-178.937C200.214,-167.617 167.709,-152.804 142.711,-141.413"/>
<polygon fill="black" stroke="black" points="144.081,-138.191 133.53,-137.229 141.178,-144.561 144.081,-138.191"/>
</g>
<!-- 11 -->
<g id="node12" class="node"><title>11</title>
<path fill="#bfcfe6" stroke="black" d="M338,-142C338,-142 187,-142 187,-142 181,-142 175,-136 175,-130 175,-130 175,-116 175,-116 175,-110 181,-104 187,-104 187,-104 338,-104 338,-104 344,-104 350,-110 350,-116 350,-116 350,-130 350,-130 350,-136 344,-142 338,-142"/>
<text text-anchor="middle" x="262.5" y="-126.8" font-family="Times,serif" font-size="14.00">comp 1</text>
<text text-anchor="middle" x="262.5" y="-111.8" font-family="Times,serif" font-size="14.00">batch norm: 1 &#160;&#160;n kernels: 19</text>
</g>
<!-- 3&#45;&gt;11 -->
<g id="edge11" class="edge"><title>3&#45;&gt;11</title>
<path fill="none" stroke="black" d="M262.5,-178.937C262.5,-170.987 262.5,-161.313 262.5,-152.313"/>
<polygon fill="black" stroke="black" points="266,-152.199 262.5,-142.199 259,-152.199 266,-152.199"/>
</g>
<!-- 12 -->
<g id="node13" class="node"><title>12</title>
<path fill="#d3e4ff" stroke="black" d="M504.5,-141C504.5,-141 470.5,-141 470.5,-141 464.5,-141 458.5,-135 458.5,-129 458.5,-129 458.5,-117 458.5,-117 458.5,-111 464.5,-105 470.5,-105 470.5,-105 504.5,-105 504.5,-105 510.5,-105 516.5,-111 516.5,-117 516.5,-117 516.5,-129 516.5,-129 516.5,-135 510.5,-141 504.5,-141"/>
<text text-anchor="middle" x="487.5" y="-119.3" font-family="Times,serif" font-size="14.00">comp 0</text>
</g>
<!-- 4&#45;&gt;12 -->
<g id="edge12" class="edge"><title>4&#45;&gt;12</title>
<path fill="none" stroke="black" d="M589.929,-177.831C570.269,-167.499 545.621,-154.546 525.431,-143.935"/>
<polygon fill="black" stroke="black" points="526.982,-140.796 516.502,-139.242 523.726,-146.992 526.982,-140.796"/>
</g>
<!-- 13 -->
<g id="node14" class="node"><title>13</title>
<path fill="#bfcfe6" stroke="black" d="M659,-142C659,-142 590,-142 590,-142 584,-142 578,-136 578,-130 578,-130 578,-116 578,-116 578,-110 584,-104 590,-104 590,-104 659,-104 659,-104 665,-104 671,-110 671,-116 671,-116 671,-130 671,-130 671,-136 665,-142 659,-142"/>
<text text-anchor="middle" x="624.5" y="-126.8" font-family="Times,serif" font-size="14.00">comp 1</text>
<text text-anchor="middle" x="624.5" y="-111.8" font-family="Times,serif" font-size="14.00">batch norm: 1</text>
</g>
<!-- 4&#45;&gt;13 -->
<g id="edge13" class="edge"><title>4&#45;&gt;13</title>
<path fill="none" stroke="black" d="M624.5,-177.831C624.5,-170.131 624.5,-160.974 624.5,-152.417"/>
<polygon fill="black" stroke="black" points="628,-152.413 624.5,-142.413 621,-152.413 628,-152.413"/>
</g>
<!-- 14 -->
<g id="node15" class="node"><title>14</title>
<path fill="#d3e4ff" stroke="black" d="M884.5,-142C884.5,-142 810.5,-142 810.5,-142 804.5,-142 798.5,-136 798.5,-130 798.5,-130 798.5,-116 798.5,-116 798.5,-110 804.5,-104 810.5,-104 810.5,-104 884.5,-104 884.5,-104 890.5,-104 896.5,-110 896.5,-116 896.5,-116 896.5,-130 896.5,-130 896.5,-136 890.5,-142 884.5,-142"/>
<text text-anchor="middle" x="847.5" y="-126.8" font-family="Times,serif" font-size="14.00">comp 0</text>
<text text-anchor="middle" x="847.5" y="-111.8" font-family="Times,serif" font-size="14.00">n kernels: &#45;128</text>
</g>
<!-- 5&#45;&gt;14 -->
<g id="edge14" class="edge"><title>5&#45;&gt;14</title>
<path fill="none" stroke="black" d="M884.135,-177.831C878.549,-169.623 871.837,-159.761 865.693,-150.732"/>
<polygon fill="black" stroke="black" points="868.551,-148.711 860.031,-142.413 862.764,-152.65 868.551,-148.711"/>
</g>
<!-- 15 -->
<g id="node16" class="node"><title>15</title>
<path fill="#bfcfe6" stroke="black" d="M982.5,-141C982.5,-141 948.5,-141 948.5,-141 942.5,-141 936.5,-135 936.5,-129 936.5,-129 936.5,-117 936.5,-117 936.5,-111 942.5,-105 948.5,-105 948.5,-105 982.5,-105 982.5,-105 988.5,-105 994.5,-111 994.5,-117 994.5,-117 994.5,-129 994.5,-129 994.5,-135 988.5,-141 982.5,-141"/>
<text text-anchor="middle" x="965.5" y="-119.3" font-family="Times,serif" font-size="14.00">comp 1</text>
</g>
<!-- 5&#45;&gt;15 -->
<g id="edge15" class="edge"><title>5&#45;&gt;15</title>
<path fill="none" stroke="black" d="M913.912,-177.831C922.354,-169.022 932.623,-158.306 941.77,-148.762"/>
<polygon fill="black" stroke="black" points="944.416,-151.059 948.808,-141.418 939.362,-146.216 944.416,-151.059"/>
</g>
<!-- 16 -->
<g id="node17" class="node"><title>16</title>
<path fill="#abb9ce" stroke="black" d="M1202,-142C1202,-142 1133,-142 1133,-142 1127,-142 1121,-136 1121,-130 1121,-130 1121,-116 1121,-116 1121,-110 1127,-104 1133,-104 1133,-104 1202,-104 1202,-104 1208,-104 1214,-110 1214,-116 1214,-116 1214,-130 1214,-130 1214,-136 1208,-142 1202,-142"/>
<text text-anchor="middle" x="1167.5" y="-126.8" font-family="Times,serif" font-size="14.00">comp 2</text>
<text text-anchor="middle" x="1167.5" y="-111.8" font-family="Times,serif" font-size="14.00">batch norm: 1</text>
</g>
<!-- 5&#45;&gt;16 -->
<g id="edge16" class="edge"><title>5&#45;&gt;16</title>
<path fill="none" stroke="black" d="M964.535,-177.924C1009.68,-165.931 1068.23,-150.374 1110.84,-139.054"/>
<polygon fill="black" stroke="black" points="1112,-142.368 1120.76,-136.417 1110.2,-135.602 1112,-142.368"/>
</g>
<!-- 17 -->
<g id="node18" class="node"><title>17</title>
<path fill="#d3e4ff" stroke="black" d="M1629.5,-142C1629.5,-142 1555.5,-142 1555.5,-142 1549.5,-142 1543.5,-136 1543.5,-130 1543.5,-130 1543.5,-116 1543.5,-116 1543.5,-110 1549.5,-104 1555.5,-104 1555.5,-104 1629.5,-104 1629.5,-104 1635.5,-104 1641.5,-110 1641.5,-116 1641.5,-116 1641.5,-130 1641.5,-130 1641.5,-136 1635.5,-142 1629.5,-142"/>
<text text-anchor="middle" x="1592.5" y="-126.8" font-family="Times,serif" font-size="14.00">comp 0</text>
<text text-anchor="middle" x="1592.5" y="-111.8" font-family="Times,serif" font-size="14.00">n kernels: &#45;384</text>
</g>
<!-- 6&#45;&gt;17 -->
<g id="edge17" class="edge"><title>6&#45;&gt;17</title>
<path fill="none" stroke="black" d="M1749.03,-177.924C1719.35,-167.7 1682.16,-154.887 1651.47,-144.316"/>
<polygon fill="black" stroke="black" points="1652.35,-140.917 1641.76,-140.969 1650.07,-147.535 1652.35,-140.917"/>
</g>
<!-- 18 -->
<g id="node19" class="node"><title>18</title>
<path fill="#bfcfe6" stroke="black" d="M1747.5,-141C1747.5,-141 1713.5,-141 1713.5,-141 1707.5,-141 1701.5,-135 1701.5,-129 1701.5,-129 1701.5,-117 1701.5,-117 1701.5,-111 1707.5,-105 1713.5,-105 1713.5,-105 1747.5,-105 1747.5,-105 1753.5,-105 1759.5,-111 1759.5,-117 1759.5,-117 1759.5,-129 1759.5,-129 1759.5,-135 1753.5,-141 1747.5,-141"/>
<text text-anchor="middle" x="1730.5" y="-119.3" font-family="Times,serif" font-size="14.00">comp 1</text>
</g>
<!-- 6&#45;&gt;18 -->
<g id="edge18" class="edge"><title>6&#45;&gt;18</title>
<path fill="none" stroke="black" d="M1783.58,-177.831C1774.9,-169.022 1764.33,-158.306 1754.92,-148.762"/>
<polygon fill="black" stroke="black" points="1757.19,-146.081 1747.68,-141.418 1752.21,-150.996 1757.19,-146.081"/>
</g>
<!-- 19 -->
<g id="node20" class="node"><title>19</title>
<path fill="#abb9ce" stroke="black" d="M1972.5,-142C1972.5,-142 1810.5,-142 1810.5,-142 1804.5,-142 1798.5,-136 1798.5,-130 1798.5,-130 1798.5,-116 1798.5,-116 1798.5,-110 1804.5,-104 1810.5,-104 1810.5,-104 1972.5,-104 1972.5,-104 1978.5,-104 1984.5,-110 1984.5,-116 1984.5,-116 1984.5,-130 1984.5,-130 1984.5,-136 1978.5,-142 1972.5,-142"/>
<text text-anchor="middle" x="1891.5" y="-126.8" font-family="Times,serif" font-size="14.00">comp 2</text>
<text text-anchor="middle" x="1891.5" y="-111.8" font-family="Times,serif" font-size="14.00">batch norm: 1 &#160;&#160;n kernels: &#45;384</text>
</g>
<!-- 6&#45;&gt;19 -->
<g id="edge19" class="edge"><title>6&#45;&gt;19</title>
<path fill="none" stroke="black" d="M1824.21,-177.831C1835.3,-168.963 1848.8,-158.164 1860.79,-148.572"/>
<polygon fill="black" stroke="black" points="1863.17,-151.143 1868.8,-142.163 1858.8,-145.677 1863.17,-151.143"/>
</g>
<!-- 20 -->
<g id="node21" class="node"><title>20</title>
<path fill="#d3e4ff" stroke="black" d="M2471.5,-142C2471.5,-142 2397.5,-142 2397.5,-142 2391.5,-142 2385.5,-136 2385.5,-130 2385.5,-130 2385.5,-116 2385.5,-116 2385.5,-110 2391.5,-104 2397.5,-104 2397.5,-104 2471.5,-104 2471.5,-104 2477.5,-104 2483.5,-110 2483.5,-116 2483.5,-116 2483.5,-130 2483.5,-130 2483.5,-136 2477.5,-142 2471.5,-142"/>
<text text-anchor="middle" x="2434.5" y="-126.8" font-family="Times,serif" font-size="14.00">comp 0</text>
<text text-anchor="middle" x="2434.5" y="-111.8" font-family="Times,serif" font-size="14.00">n kernels: &#45;128</text>
</g>
<!-- 7&#45;&gt;20 -->
<g id="edge20" class="edge"><title>7&#45;&gt;20</title>
<path fill="none" stroke="black" d="M2489.08,-177.831C2480.35,-169.219 2469.77,-158.785 2460.26,-149.405"/>
<polygon fill="black" stroke="black" points="2462.49,-146.693 2452.92,-142.163 2457.58,-151.677 2462.49,-146.693"/>
</g>
<!-- 21 -->
<g id="node22" class="node"><title>21</title>
<path fill="#bfcfe6" stroke="black" d="M2616,-142C2616,-142 2547,-142 2547,-142 2541,-142 2535,-136 2535,-130 2535,-130 2535,-116 2535,-116 2535,-110 2541,-104 2547,-104 2547,-104 2616,-104 2616,-104 2622,-104 2628,-110 2628,-116 2628,-116 2628,-130 2628,-130 2628,-136 2622,-142 2616,-142"/>
<text text-anchor="middle" x="2581.5" y="-126.8" font-family="Times,serif" font-size="14.00">comp 1</text>
<text text-anchor="middle" x="2581.5" y="-111.8" font-family="Times,serif" font-size="14.00">batch norm: 1</text>
</g>
<!-- 7&#45;&gt;21 -->
<g id="edge21" class="edge"><title>7&#45;&gt;21</title>
<path fill="none" stroke="black" d="M2526.17,-177.831C2535.02,-169.219 2545.75,-158.785 2555.39,-149.405"/>
<polygon fill="black" stroke="black" points="2558.11,-151.645 2562.83,-142.163 2553.22,-146.628 2558.11,-151.645"/>
</g>
<!-- 22 -->
<g id="node23" class="node"><title>22</title>
<path fill="#d3e4ff" stroke="black" d="M3008,-142C3008,-142 2947,-142 2947,-142 2941,-142 2935,-136 2935,-130 2935,-130 2935,-116 2935,-116 2935,-110 2941,-104 2947,-104 2947,-104 3008,-104 3008,-104 3014,-104 3020,-110 3020,-116 3020,-116 3020,-130 3020,-130 3020,-136 3014,-142 3008,-142"/>
<text text-anchor="middle" x="2977.5" y="-126.8" font-family="Times,serif" font-size="14.00">comp 0</text>
<text text-anchor="middle" x="2977.5" y="-111.8" font-family="Times,serif" font-size="14.00">n kernels: &#45;8</text>
</g>
<!-- 8&#45;&gt;22 -->
<g id="edge22" class="edge"><title>8&#45;&gt;22</title>
<path fill="none" stroke="black" d="M3112.83,-177.831C3087.46,-167.739 3055.8,-155.146 3029.48,-144.678"/>
<polygon fill="black" stroke="black" points="3030.64,-141.37 3020.05,-140.926 3028.05,-147.875 3030.64,-141.37"/>
</g>
<!-- 23 -->
<g id="node24" class="node"><title>23</title>
<path fill="#bfcfe6" stroke="black" d="M3175.5,-141C3175.5,-141 3141.5,-141 3141.5,-141 3135.5,-141 3129.5,-135 3129.5,-129 3129.5,-129 3129.5,-117 3129.5,-117 3129.5,-111 3135.5,-105 3141.5,-105 3141.5,-105 3175.5,-105 3175.5,-105 3181.5,-105 3187.5,-111 3187.5,-117 3187.5,-117 3187.5,-129 3187.5,-129 3187.5,-135 3181.5,-141 3175.5,-141"/>
<text text-anchor="middle" x="3158.5" y="-119.3" font-family="Times,serif" font-size="14.00">comp 1</text>
</g>
<!-- 8&#45;&gt;23 -->
<g id="edge23" class="edge"><title>8&#45;&gt;23</title>
<path fill="none" stroke="black" d="M3158.5,-177.831C3158.5,-169.894 3158.5,-160.409 3158.5,-151.628"/>
<polygon fill="black" stroke="black" points="3162,-151.418 3158.5,-141.418 3155,-151.418 3162,-151.418"/>
</g>
<!-- 24 -->
<g id="node25" class="node"><title>24</title>
<path fill="#abb9ce" stroke="black" d="M3356.5,-141C3356.5,-141 3322.5,-141 3322.5,-141 3316.5,-141 3310.5,-135 3310.5,-129 3310.5,-129 3310.5,-117 3310.5,-117 3310.5,-111 3316.5,-105 3322.5,-105 3322.5,-105 3356.5,-105 3356.5,-105 3362.5,-105 3368.5,-111 3368.5,-117 3368.5,-117 3368.5,-129 3368.5,-129 3368.5,-135 3362.5,-141 3356.5,-141"/>
<text text-anchor="middle" x="3339.5" y="-119.3" font-family="Times,serif" font-size="14.00">comp 2</text>
</g>
<!-- 8&#45;&gt;24 -->
<g id="edge24" class="edge"><title>8&#45;&gt;24</title>
<path fill="none" stroke="black" d="M3204.17,-177.831C3233.96,-165.981 3272.42,-150.682 3300.73,-139.424"/>
<polygon fill="black" stroke="black" points="3302.28,-142.571 3310.28,-135.623 3299.7,-136.067 3302.28,-142.571"/>
</g>
<!-- 25 -->
<g id="node26" class="node"><title>25</title>
<path fill="#97a3b6" stroke="black" d="M3869,-142C3869,-142 3714,-142 3714,-142 3708,-142 3702,-136 3702,-130 3702,-130 3702,-116 3702,-116 3702,-110 3708,-104 3714,-104 3714,-104 3869,-104 3869,-104 3875,-104 3881,-110 3881,-116 3881,-116 3881,-130 3881,-130 3881,-136 3875,-142 3869,-142"/>
<text text-anchor="middle" x="3791.5" y="-126.8" font-family="Times,serif" font-size="14.00">comp 3</text>
<text text-anchor="middle" x="3791.5" y="-111.8" font-family="Times,serif" font-size="14.00">batch norm: 1 &#160;&#160;n kernels: &#45;14</text>
</g>
<!-- 8&#45;&gt;25 -->
<g id="edge25" class="edge"><title>8&#45;&gt;25</title>
<path fill="none" stroke="black" d="M3248.19,-185.799C3365.37,-172.47 3569.95,-149.2 3691.86,-135.334"/>
<polygon fill="black" stroke="black" points="3692.4,-138.795 3701.94,-134.187 3691.61,-131.839 3692.4,-138.795"/>
</g>
<!-- 26 -->
<g id="node27" class="node"><title>26</title>
<path fill="#d3e4ff" stroke="black" d="M4317.5,-141C4317.5,-141 4283.5,-141 4283.5,-141 4277.5,-141 4271.5,-135 4271.5,-129 4271.5,-129 4271.5,-117 4271.5,-117 4271.5,-111 4277.5,-105 4283.5,-105 4283.5,-105 4317.5,-105 4317.5,-105 4323.5,-105 4329.5,-111 4329.5,-117 4329.5,-117 4329.5,-129 4329.5,-129 4329.5,-135 4323.5,-141 4317.5,-141"/>
<text text-anchor="middle" x="4300.5" y="-119.3" font-family="Times,serif" font-size="14.00">comp 0</text>
</g>
<!-- 9&#45;&gt;26 -->
<g id="edge26" class="edge"><title>9&#45;&gt;26</title>
<path fill="none" stroke="black" d="M4300.5,-178.937C4300.5,-170.807 4300.5,-160.876 4300.5,-151.705"/>
<polygon fill="black" stroke="black" points="4304,-151.441 4300.5,-141.441 4297,-151.441 4304,-151.441"/>
</g>
<!-- 27 -->
<g id="node28" class="node"><title>27</title>
<path fill="#bfcfe6" stroke="black" d="M4627,-142C4627,-142 4472,-142 4472,-142 4466,-142 4460,-136 4460,-130 4460,-130 4460,-116 4460,-116 4460,-110 4466,-104 4472,-104 4472,-104 4627,-104 4627,-104 4633,-104 4639,-110 4639,-116 4639,-116 4639,-130 4639,-130 4639,-136 4633,-142 4627,-142"/>
<text text-anchor="middle" x="4549.5" y="-126.8" font-family="Times,serif" font-size="14.00">comp 1</text>
<text text-anchor="middle" x="4549.5" y="-111.8" font-family="Times,serif" font-size="14.00">batch norm: 1 &#160;&#160;n kernels: &#45;14</text>
</g>
<!-- 9&#45;&gt;27 -->
<g id="edge27" class="edge"><title>9&#45;&gt;27</title>
<path fill="none" stroke="black" d="M4350.29,-181.603C4386.69,-171.079 4436.6,-156.647 4477.35,-144.861"/>
<polygon fill="black" stroke="black" points="4478.34,-148.221 4486.97,-142.081 4476.39,-141.497 4478.34,-148.221"/>
</g>
<!-- 28 -->
<g id="node29" class="node"><title>28</title>
<path fill="#f6d3ff" stroke="black" d="M151,-68C151,-68 12,-68 12,-68 6,-68 0,-62 0,-56 0,-56 0,-12 0,-12 0,-6 6,-0 12,-0 12,-0 151,-0 151,-0 157,-0 163,-6 163,-12 163,-12 163,-56 163,-56 163,-62 157,-68 151,-68"/>
<text text-anchor="middle" x="81.5" y="-52.8" font-family="Times,serif" font-size="14.00">forward</text>
<text text-anchor="middle" x="81.5" y="-37.8" font-family="Times,serif" font-size="14.00">input</text>
<text text-anchor="middle" x="81.5" y="-22.8" font-family="Times,serif" font-size="14.00">dilation rate: 1 &#160;&#160;k width: 3</text>
<text text-anchor="middle" x="81.5" y="-7.8" font-family="Times,serif" font-size="14.00">n kernels: 64</text>
</g>
<!-- 10&#45;&gt;28 -->
<g id="edge28" class="edge"><title>10&#45;&gt;28</title>
<path fill="none" stroke="black" d="M99.9559,-104.812C97.8961,-97.0199 95.3592,-87.4241 92.8332,-77.8689"/>
<polygon fill="black" stroke="black" points="96.1647,-76.7767 90.225,-68.0034 89.3972,-78.5658 96.1647,-76.7767"/>
</g>
<!-- 29 -->
<g id="node30" class="node"><title>29</title>
<path fill="#f6d3ff" stroke="black" d="M332,-68C332,-68 193,-68 193,-68 187,-68 181,-62 181,-56 181,-56 181,-12 181,-12 181,-6 187,-0 193,-0 193,-0 332,-0 332,-0 338,-0 344,-6 344,-12 344,-12 344,-56 344,-56 344,-62 338,-68 332,-68"/>
<text text-anchor="middle" x="262.5" y="-52.8" font-family="Times,serif" font-size="14.00">forward</text>
<text text-anchor="middle" x="262.5" y="-37.8" font-family="Times,serif" font-size="14.00">EB0/C0</text>
<text text-anchor="middle" x="262.5" y="-22.8" font-family="Times,serif" font-size="14.00">dilation rate: 1 &#160;&#160;k width: 3</text>
<text text-anchor="middle" x="262.5" y="-7.8" font-family="Times,serif" font-size="14.00">n kernels: 64</text>
</g>
<!-- 11&#45;&gt;29 -->
<g id="edge29" class="edge"><title>11&#45;&gt;29</title>
<path fill="none" stroke="black" d="M262.5,-103.974C262.5,-96.4519 262.5,-87.3613 262.5,-78.2833"/>
<polygon fill="black" stroke="black" points="266,-78.1236 262.5,-68.1236 259,-78.1237 266,-78.1236"/>
</g>
<!-- 30 -->
<g id="node31" class="node"><title>30</title>
<path fill="#f6d3ff" stroke="black" d="M513,-68C513,-68 374,-68 374,-68 368,-68 362,-62 362,-56 362,-56 362,-12 362,-12 362,-6 368,-0 374,-0 374,-0 513,-0 513,-0 519,-0 525,-6 525,-12 525,-12 525,-56 525,-56 525,-62 519,-68 513,-68"/>
<text text-anchor="middle" x="443.5" y="-52.8" font-family="Times,serif" font-size="14.00">forward</text>
<text text-anchor="middle" x="443.5" y="-37.8" font-family="Times,serif" font-size="14.00">EB0/C1</text>
<text text-anchor="middle" x="443.5" y="-22.8" font-family="Times,serif" font-size="14.00">dilation rate: 1 &#160;&#160;k width: 3</text>
<text text-anchor="middle" x="443.5" y="-7.8" font-family="Times,serif" font-size="14.00">n kernels: 64</text>
</g>
<!-- 12&#45;&gt;30 -->
<g id="edge30" class="edge"><title>12&#45;&gt;30</title>
<path fill="none" stroke="black" d="M478.807,-104.812C474.742,-96.7738 469.706,-86.8162 464.723,-76.9638"/>
<polygon fill="black" stroke="black" points="467.828,-75.3475 460.191,-68.0034 461.581,-78.5067 467.828,-75.3475"/>
</g>
<!-- 31 -->
<g id="node32" class="node"><title>31</title>
<path fill="#f6d3ff" stroke="black" d="M694,-68C694,-68 555,-68 555,-68 549,-68 543,-62 543,-56 543,-56 543,-12 543,-12 543,-6 549,-0 555,-0 555,-0 694,-0 694,-0 700,-0 706,-6 706,-12 706,-12 706,-56 706,-56 706,-62 700,-68 694,-68"/>
<text text-anchor="middle" x="624.5" y="-52.8" font-family="Times,serif" font-size="14.00">forward</text>
<text text-anchor="middle" x="624.5" y="-37.8" font-family="Times,serif" font-size="14.00">EB1/C0</text>
<text text-anchor="middle" x="624.5" y="-22.8" font-family="Times,serif" font-size="14.00">dilation rate: 1 &#160;&#160;k width: 3</text>
<text text-anchor="middle" x="624.5" y="-7.8" font-family="Times,serif" font-size="14.00">n kernels: 64</text>
</g>
<!-- 13&#45;&gt;31 -->
<g id="edge31" class="edge"><title>13&#45;&gt;31</title>
<path fill="none" stroke="black" d="M624.5,-103.974C624.5,-96.4519 624.5,-87.3613 624.5,-78.2833"/>
<polygon fill="black" stroke="black" points="628,-78.1236 624.5,-68.1236 621,-78.1237 628,-78.1236"/>
</g>
<!-- 32 -->
<g id="node33" class="node"><title>32</title>
<path fill="#f6d3ff" stroke="black" d="M875,-68C875,-68 736,-68 736,-68 730,-68 724,-62 724,-56 724,-56 724,-12 724,-12 724,-6 730,-0 736,-0 736,-0 875,-0 875,-0 881,-0 887,-6 887,-12 887,-12 887,-56 887,-56 887,-62 881,-68 875,-68"/>
<text text-anchor="middle" x="805.5" y="-52.8" font-family="Times,serif" font-size="14.00">forward</text>
<text text-anchor="middle" x="805.5" y="-37.8" font-family="Times,serif" font-size="14.00">EB1/C1</text>
<text text-anchor="middle" x="805.5" y="-22.8" font-family="Times,serif" font-size="14.00">dilation rate: 1 &#160;&#160;k width: 3</text>
<text text-anchor="middle" x="805.5" y="-7.8" font-family="Times,serif" font-size="14.00">n kernels: 64</text>
</g>
<!-- 14&#45;&gt;32 -->
<g id="edge32" class="edge"><title>14&#45;&gt;32</title>
<path fill="none" stroke="black" d="M838.798,-103.974C835.049,-96.2092 830.494,-86.7732 825.971,-77.4049"/>
<polygon fill="black" stroke="black" points="828.99,-75.6075 821.491,-68.1236 822.686,-78.6508 828.99,-75.6075"/>
</g>
<!-- 33 -->
<g id="node34" class="node"><title>33</title>
<path fill="#f6d3ff" stroke="black" d="M1056,-68C1056,-68 917,-68 917,-68 911,-68 905,-62 905,-56 905,-56 905,-12 905,-12 905,-6 911,-0 917,-0 917,-0 1056,-0 1056,-0 1062,-0 1068,-6 1068,-12 1068,-12 1068,-56 1068,-56 1068,-62 1062,-68 1056,-68"/>
<text text-anchor="middle" x="986.5" y="-52.8" font-family="Times,serif" font-size="14.00">forward</text>
<text text-anchor="middle" x="986.5" y="-37.8" font-family="Times,serif" font-size="14.00">EB2/C0</text>
<text text-anchor="middle" x="986.5" y="-22.8" font-family="Times,serif" font-size="14.00">dilation rate: 1 &#160;&#160;k width: 3</text>
<text text-anchor="middle" x="986.5" y="-7.8" font-family="Times,serif" font-size="14.00">n kernels: 64</text>
</g>
<!-- 15&#45;&gt;33 -->
<g id="edge33" class="edge"><title>15&#45;&gt;33</title>
<path fill="none" stroke="black" d="M969.649,-104.812C971.53,-97.0199 973.846,-87.4241 976.152,-77.8689"/>
<polygon fill="black" stroke="black" points="979.589,-78.5455 978.534,-68.0034 972.785,-76.9029 979.589,-78.5455"/>
</g>
<!-- 34 -->
<g id="node35" class="node"><title>34</title>
<path fill="#f6d3ff" stroke="black" d="M1237,-68C1237,-68 1098,-68 1098,-68 1092,-68 1086,-62 1086,-56 1086,-56 1086,-12 1086,-12 1086,-6 1092,-0 1098,-0 1098,-0 1237,-0 1237,-0 1243,-0 1249,-6 1249,-12 1249,-12 1249,-56 1249,-56 1249,-62 1243,-68 1237,-68"/>
<text text-anchor="middle" x="1167.5" y="-52.8" font-family="Times,serif" font-size="14.00">forward</text>
<text text-anchor="middle" x="1167.5" y="-37.8" font-family="Times,serif" font-size="14.00">EB2/C1</text>
<text text-anchor="middle" x="1167.5" y="-22.8" font-family="Times,serif" font-size="14.00">dilation rate: 1 &#160;&#160;k width: 3</text>
<text text-anchor="middle" x="1167.5" y="-7.8" font-family="Times,serif" font-size="14.00">n kernels: 64</text>
</g>
<!-- 16&#45;&gt;34 -->
<g id="edge34" class="edge"><title>16&#45;&gt;34</title>
<path fill="none" stroke="black" d="M1167.5,-103.974C1167.5,-96.4519 1167.5,-87.3613 1167.5,-78.2833"/>
<polygon fill="black" stroke="black" points="1171,-78.1236 1167.5,-68.1236 1164,-78.1237 1171,-78.1236"/>
</g>
<!-- 35 -->
<g id="node36" class="node"><title>35</title>
<path fill="#debfe6" stroke="black" d="M1418,-68C1418,-68 1279,-68 1279,-68 1273,-68 1267,-62 1267,-56 1267,-56 1267,-12 1267,-12 1267,-6 1273,-0 1279,-0 1279,-0 1418,-0 1418,-0 1424,-0 1430,-6 1430,-12 1430,-12 1430,-56 1430,-56 1430,-62 1424,-68 1418,-68"/>
<text text-anchor="middle" x="1348.5" y="-52.8" font-family="Times,serif" font-size="14.00">merge</text>
<text text-anchor="middle" x="1348.5" y="-37.8" font-family="Times,serif" font-size="14.00">EB2/C0</text>
<text text-anchor="middle" x="1348.5" y="-22.8" font-family="Times,serif" font-size="14.00">dilation rate: 1 &#160;&#160;k width: 3</text>
<text text-anchor="middle" x="1348.5" y="-7.8" font-family="Times,serif" font-size="14.00">n kernels: 64</text>
</g>
<!-- 16&#45;&gt;35 -->
<g id="edge35" class="edge"><title>16&#45;&gt;35</title>
<path fill="none" stroke="black" d="M1205,-103.974C1223.93,-94.8748 1247.64,-83.4802 1270.3,-72.5892"/>
<polygon fill="black" stroke="black" points="1272.09,-75.6104 1279.59,-68.1236 1269.06,-69.3013 1272.09,-75.6104"/>
</g>
<!-- 36 -->
<g id="node37" class="node"><title>36</title>
<path fill="#f6d3ff" stroke="black" d="M1599,-68C1599,-68 1460,-68 1460,-68 1454,-68 1448,-62 1448,-56 1448,-56 1448,-12 1448,-12 1448,-6 1454,-0 1460,-0 1460,-0 1599,-0 1599,-0 1605,-0 1611,-6 1611,-12 1611,-12 1611,-56 1611,-56 1611,-62 1605,-68 1599,-68"/>
<text text-anchor="middle" x="1529.5" y="-52.8" font-family="Times,serif" font-size="14.00">forward</text>
<text text-anchor="middle" x="1529.5" y="-37.8" font-family="Times,serif" font-size="14.00">EB2/C2</text>
<text text-anchor="middle" x="1529.5" y="-22.8" font-family="Times,serif" font-size="14.00">dilation rate: 1 &#160;&#160;k width: 3</text>
<text text-anchor="middle" x="1529.5" y="-7.8" font-family="Times,serif" font-size="14.00">n kernels: 64</text>
</g>
<!-- 17&#45;&gt;36 -->
<g id="edge36" class="edge"><title>17&#45;&gt;36</title>
<path fill="none" stroke="black" d="M1579.45,-103.974C1573.59,-95.8857 1566.42,-85.9839 1559.36,-76.2343"/>
<polygon fill="black" stroke="black" points="1562.19,-74.1703 1553.49,-68.1236 1556.52,-78.2759 1562.19,-74.1703"/>
</g>
<!-- 37 -->
<g id="node38" class="node"><title>37</title>
<path fill="#f6d3ff" stroke="black" d="M1780,-68C1780,-68 1641,-68 1641,-68 1635,-68 1629,-62 1629,-56 1629,-56 1629,-12 1629,-12 1629,-6 1635,-0 1641,-0 1641,-0 1780,-0 1780,-0 1786,-0 1792,-6 1792,-12 1792,-12 1792,-56 1792,-56 1792,-62 1786,-68 1780,-68"/>
<text text-anchor="middle" x="1710.5" y="-52.8" font-family="Times,serif" font-size="14.00">forward</text>
<text text-anchor="middle" x="1710.5" y="-37.8" font-family="Times,serif" font-size="14.00">DB3/C0</text>
<text text-anchor="middle" x="1710.5" y="-22.8" font-family="Times,serif" font-size="14.00">dilation rate: 1 &#160;&#160;k width: 3</text>
<text text-anchor="middle" x="1710.5" y="-7.8" font-family="Times,serif" font-size="14.00">n kernels: 64</text>
</g>
<!-- 18&#45;&gt;37 -->
<g id="edge37" class="edge"><title>18&#45;&gt;37</title>
<path fill="none" stroke="black" d="M1726.55,-104.812C1724.76,-97.0199 1722.55,-87.4241 1720.35,-77.8689"/>
<polygon fill="black" stroke="black" points="1723.74,-76.965 1718.09,-68.0034 1716.92,-78.5334 1723.74,-76.965"/>
</g>
<!-- 38 -->
<g id="node39" class="node"><title>38</title>
<path fill="#f6d3ff" stroke="black" d="M1961,-68C1961,-68 1822,-68 1822,-68 1816,-68 1810,-62 1810,-56 1810,-56 1810,-12 1810,-12 1810,-6 1816,-0 1822,-0 1822,-0 1961,-0 1961,-0 1967,-0 1973,-6 1973,-12 1973,-12 1973,-56 1973,-56 1973,-62 1967,-68 1961,-68"/>
<text text-anchor="middle" x="1891.5" y="-52.8" font-family="Times,serif" font-size="14.00">forward</text>
<text text-anchor="middle" x="1891.5" y="-37.8" font-family="Times,serif" font-size="14.00">DB3/C1</text>
<text text-anchor="middle" x="1891.5" y="-22.8" font-family="Times,serif" font-size="14.00">dilation rate: 1 &#160;&#160;k width: 3</text>
<text text-anchor="middle" x="1891.5" y="-7.8" font-family="Times,serif" font-size="14.00">n kernels: 64</text>
</g>
<!-- 19&#45;&gt;38 -->
<g id="edge38" class="edge"><title>19&#45;&gt;38</title>
<path fill="none" stroke="black" d="M1891.5,-103.974C1891.5,-96.4519 1891.5,-87.3613 1891.5,-78.2833"/>
<polygon fill="black" stroke="black" points="1895,-78.1236 1891.5,-68.1236 1888,-78.1237 1895,-78.1236"/>
</g>
<!-- 39 -->
<g id="node40" class="node"><title>39</title>
<path fill="#debfe6" stroke="black" d="M2142,-68C2142,-68 2003,-68 2003,-68 1997,-68 1991,-62 1991,-56 1991,-56 1991,-12 1991,-12 1991,-6 1997,-0 2003,-0 2003,-0 2142,-0 2142,-0 2148,-0 2154,-6 2154,-12 2154,-12 2154,-56 2154,-56 2154,-62 2148,-68 2142,-68"/>
<text text-anchor="middle" x="2072.5" y="-52.8" font-family="Times,serif" font-size="14.00">merge</text>
<text text-anchor="middle" x="2072.5" y="-37.8" font-family="Times,serif" font-size="14.00">DB3/C0</text>
<text text-anchor="middle" x="2072.5" y="-22.8" font-family="Times,serif" font-size="14.00">dilation rate: 1 &#160;&#160;k width: 3</text>
<text text-anchor="middle" x="2072.5" y="-7.8" font-family="Times,serif" font-size="14.00">n kernels: 64</text>
</g>
<!-- 19&#45;&gt;39 -->
<g id="edge39" class="edge"><title>19&#45;&gt;39</title>
<path fill="none" stroke="black" d="M1929,-103.974C1947.93,-94.8748 1971.64,-83.4802 1994.3,-72.5892"/>
<polygon fill="black" stroke="black" points="1996.09,-75.6104 2003.59,-68.1236 1993.06,-69.3013 1996.09,-75.6104"/>
</g>
<!-- 40 -->
<g id="node41" class="node"><title>40</title>
<path fill="#f6d3ff" stroke="black" d="M2323,-68C2323,-68 2184,-68 2184,-68 2178,-68 2172,-62 2172,-56 2172,-56 2172,-12 2172,-12 2172,-6 2178,-0 2184,-0 2184,-0 2323,-0 2323,-0 2329,-0 2335,-6 2335,-12 2335,-12 2335,-56 2335,-56 2335,-62 2329,-68 2323,-68"/>
<text text-anchor="middle" x="2253.5" y="-52.8" font-family="Times,serif" font-size="14.00">forward</text>
<text text-anchor="middle" x="2253.5" y="-37.8" font-family="Times,serif" font-size="14.00">DB3/C2</text>
<text text-anchor="middle" x="2253.5" y="-22.8" font-family="Times,serif" font-size="14.00">dilation rate: 1 &#160;&#160;k width: 3</text>
<text text-anchor="middle" x="2253.5" y="-7.8" font-family="Times,serif" font-size="14.00">n kernels: 64</text>
</g>
<!-- 20&#45;&gt;40 -->
<g id="edge40" class="edge"><title>20&#45;&gt;40</title>
<path fill="none" stroke="black" d="M2397,-103.974C2378.07,-94.8748 2354.36,-83.4802 2331.7,-72.5892"/>
<polygon fill="black" stroke="black" points="2332.94,-69.3013 2322.41,-68.1236 2329.91,-75.6104 2332.94,-69.3013"/>
</g>
<!-- 41 -->
<g id="node42" class="node"><title>41</title>
<path fill="#debfe6" stroke="black" d="M2504,-68C2504,-68 2365,-68 2365,-68 2359,-68 2353,-62 2353,-56 2353,-56 2353,-12 2353,-12 2353,-6 2359,-0 2365,-0 2365,-0 2504,-0 2504,-0 2510,-0 2516,-6 2516,-12 2516,-12 2516,-56 2516,-56 2516,-62 2510,-68 2504,-68"/>
<text text-anchor="middle" x="2434.5" y="-52.8" font-family="Times,serif" font-size="14.00">merge</text>
<text text-anchor="middle" x="2434.5" y="-37.8" font-family="Times,serif" font-size="14.00">EB2/C2</text>
<text text-anchor="middle" x="2434.5" y="-22.8" font-family="Times,serif" font-size="14.00">dilation rate: 1 &#160;&#160;k width: 3</text>
<text text-anchor="middle" x="2434.5" y="-7.8" font-family="Times,serif" font-size="14.00">n kernels: 64</text>
</g>
<!-- 20&#45;&gt;41 -->
<g id="edge41" class="edge"><title>20&#45;&gt;41</title>
<path fill="none" stroke="black" d="M2434.5,-103.974C2434.5,-96.4519 2434.5,-87.3613 2434.5,-78.2833"/>
<polygon fill="black" stroke="black" points="2438,-78.1236 2434.5,-68.1236 2431,-78.1237 2438,-78.1236"/>
</g>
<!-- 42 -->
<g id="node43" class="node"><title>42</title>
<path fill="#f6d3ff" stroke="black" d="M2685,-68C2685,-68 2546,-68 2546,-68 2540,-68 2534,-62 2534,-56 2534,-56 2534,-12 2534,-12 2534,-6 2540,-0 2546,-0 2546,-0 2685,-0 2685,-0 2691,-0 2697,-6 2697,-12 2697,-12 2697,-56 2697,-56 2697,-62 2691,-68 2685,-68"/>
<text text-anchor="middle" x="2615.5" y="-52.8" font-family="Times,serif" font-size="14.00">forward</text>
<text text-anchor="middle" x="2615.5" y="-37.8" font-family="Times,serif" font-size="14.00">DB2/C0</text>
<text text-anchor="middle" x="2615.5" y="-22.8" font-family="Times,serif" font-size="14.00">dilation rate: 1 &#160;&#160;k width: 3</text>
<text text-anchor="middle" x="2615.5" y="-7.8" font-family="Times,serif" font-size="14.00">n kernels: 64</text>
</g>
<!-- 21&#45;&gt;42 -->
<g id="edge42" class="edge"><title>21&#45;&gt;42</title>
<path fill="none" stroke="black" d="M2588.54,-103.974C2591.55,-96.2901 2595.19,-86.9696 2598.81,-77.6977"/>
<polygon fill="black" stroke="black" points="2602.18,-78.7117 2602.56,-68.1236 2595.66,-76.1636 2602.18,-78.7117"/>
</g>
<!-- 43 -->
<g id="node44" class="node"><title>43</title>
<path fill="#f6d3ff" stroke="black" d="M2866,-68C2866,-68 2727,-68 2727,-68 2721,-68 2715,-62 2715,-56 2715,-56 2715,-12 2715,-12 2715,-6 2721,-0 2727,-0 2727,-0 2866,-0 2866,-0 2872,-0 2878,-6 2878,-12 2878,-12 2878,-56 2878,-56 2878,-62 2872,-68 2866,-68"/>
<text text-anchor="middle" x="2796.5" y="-52.8" font-family="Times,serif" font-size="14.00">forward</text>
<text text-anchor="middle" x="2796.5" y="-37.8" font-family="Times,serif" font-size="14.00">DB2/C1</text>
<text text-anchor="middle" x="2796.5" y="-22.8" font-family="Times,serif" font-size="14.00">dilation rate: 1 &#160;&#160;k width: 3</text>
<text text-anchor="middle" x="2796.5" y="-7.8" font-family="Times,serif" font-size="14.00">n kernels: 64</text>
</g>
<!-- 22&#45;&gt;43 -->
<g id="edge43" class="edge"><title>22&#45;&gt;43</title>
<path fill="none" stroke="black" d="M2940,-103.974C2921.07,-94.8748 2897.36,-83.4802 2874.7,-72.5892"/>
<polygon fill="black" stroke="black" points="2875.94,-69.3013 2865.41,-68.1236 2872.91,-75.6104 2875.94,-69.3013"/>
</g>
<!-- 44 -->
<g id="node45" class="node"><title>44</title>
<path fill="#debfe6" stroke="black" d="M3047,-68C3047,-68 2908,-68 2908,-68 2902,-68 2896,-62 2896,-56 2896,-56 2896,-12 2896,-12 2896,-6 2902,-0 2908,-0 2908,-0 3047,-0 3047,-0 3053,-0 3059,-6 3059,-12 3059,-12 3059,-56 3059,-56 3059,-62 3053,-68 3047,-68"/>
<text text-anchor="middle" x="2977.5" y="-52.8" font-family="Times,serif" font-size="14.00">merge</text>
<text text-anchor="middle" x="2977.5" y="-37.8" font-family="Times,serif" font-size="14.00">EB1/C1</text>
<text text-anchor="middle" x="2977.5" y="-22.8" font-family="Times,serif" font-size="14.00">dilation rate: 1 &#160;&#160;k width: 3</text>
<text text-anchor="middle" x="2977.5" y="-7.8" font-family="Times,serif" font-size="14.00">n kernels: 64</text>
</g>
<!-- 22&#45;&gt;44 -->
<g id="edge44" class="edge"><title>22&#45;&gt;44</title>
<path fill="none" stroke="black" d="M2977.5,-103.974C2977.5,-96.4519 2977.5,-87.3613 2977.5,-78.2833"/>
<polygon fill="black" stroke="black" points="2981,-78.1236 2977.5,-68.1236 2974,-78.1237 2981,-78.1236"/>
</g>
<!-- 45 -->
<g id="node46" class="node"><title>45</title>
<path fill="#f6d3ff" stroke="black" d="M3228,-68C3228,-68 3089,-68 3089,-68 3083,-68 3077,-62 3077,-56 3077,-56 3077,-12 3077,-12 3077,-6 3083,-0 3089,-0 3089,-0 3228,-0 3228,-0 3234,-0 3240,-6 3240,-12 3240,-12 3240,-56 3240,-56 3240,-62 3234,-68 3228,-68"/>
<text text-anchor="middle" x="3158.5" y="-52.8" font-family="Times,serif" font-size="14.00">forward</text>
<text text-anchor="middle" x="3158.5" y="-37.8" font-family="Times,serif" font-size="14.00">DB1/C0</text>
<text text-anchor="middle" x="3158.5" y="-22.8" font-family="Times,serif" font-size="14.00">dilation rate: 1 &#160;&#160;k width: 3</text>
<text text-anchor="middle" x="3158.5" y="-7.8" font-family="Times,serif" font-size="14.00">n kernels: 64</text>
</g>
<!-- 23&#45;&gt;45 -->
<g id="edge45" class="edge"><title>23&#45;&gt;45</title>
<path fill="none" stroke="black" d="M3158.5,-104.812C3158.5,-97.1019 3158.5,-87.6259 3158.5,-78.1706"/>
<polygon fill="black" stroke="black" points="3162,-78.0034 3158.5,-68.0034 3155,-78.0034 3162,-78.0034"/>
</g>
<!-- 46 -->
<g id="node47" class="node"><title>46</title>
<path fill="#f6d3ff" stroke="black" d="M3409,-68C3409,-68 3270,-68 3270,-68 3264,-68 3258,-62 3258,-56 3258,-56 3258,-12 3258,-12 3258,-6 3264,-0 3270,-0 3270,-0 3409,-0 3409,-0 3415,-0 3421,-6 3421,-12 3421,-12 3421,-56 3421,-56 3421,-62 3415,-68 3409,-68"/>
<text text-anchor="middle" x="3339.5" y="-52.8" font-family="Times,serif" font-size="14.00">forward</text>
<text text-anchor="middle" x="3339.5" y="-37.8" font-family="Times,serif" font-size="14.00">DB1/C1</text>
<text text-anchor="middle" x="3339.5" y="-22.8" font-family="Times,serif" font-size="14.00">dilation rate: 1 &#160;&#160;k width: 3</text>
<text text-anchor="middle" x="3339.5" y="-7.8" font-family="Times,serif" font-size="14.00">n kernels: 64</text>
</g>
<!-- 24&#45;&gt;46 -->
<g id="edge46" class="edge"><title>24&#45;&gt;46</title>
<path fill="none" stroke="black" d="M3339.5,-104.812C3339.5,-97.1019 3339.5,-87.6259 3339.5,-78.1706"/>
<polygon fill="black" stroke="black" points="3343,-78.0034 3339.5,-68.0034 3336,-78.0034 3343,-78.0034"/>
</g>
<!-- 47 -->
<g id="node48" class="node"><title>47</title>
<path fill="#debfe6" stroke="black" d="M3590,-68C3590,-68 3451,-68 3451,-68 3445,-68 3439,-62 3439,-56 3439,-56 3439,-12 3439,-12 3439,-6 3445,-0 3451,-0 3451,-0 3590,-0 3590,-0 3596,-0 3602,-6 3602,-12 3602,-12 3602,-56 3602,-56 3602,-62 3596,-68 3590,-68"/>
<text text-anchor="middle" x="3520.5" y="-52.8" font-family="Times,serif" font-size="14.00">merge</text>
<text text-anchor="middle" x="3520.5" y="-37.8" font-family="Times,serif" font-size="14.00">DB1/C0</text>
<text text-anchor="middle" x="3520.5" y="-22.8" font-family="Times,serif" font-size="14.00">dilation rate: 1 &#160;&#160;k width: 3</text>
<text text-anchor="middle" x="3520.5" y="-7.8" font-family="Times,serif" font-size="14.00">n kernels: 64</text>
</g>
<!-- 24&#45;&gt;47 -->
<g id="edge47" class="edge"><title>24&#45;&gt;47</title>
<path fill="none" stroke="black" d="M3368.58,-108.022C3388.6,-98.3973 3416.22,-85.122 3442.43,-72.5274"/>
<polygon fill="black" stroke="black" points="3444.12,-75.5949 3451.62,-68.1081 3441.09,-69.2858 3444.12,-75.5949"/>
</g>
<!-- 48 -->
<g id="node49" class="node"><title>48</title>
<path fill="#f6d3ff" stroke="black" d="M3771,-68C3771,-68 3632,-68 3632,-68 3626,-68 3620,-62 3620,-56 3620,-56 3620,-12 3620,-12 3620,-6 3626,-0 3632,-0 3632,-0 3771,-0 3771,-0 3777,-0 3783,-6 3783,-12 3783,-12 3783,-56 3783,-56 3783,-62 3777,-68 3771,-68"/>
<text text-anchor="middle" x="3701.5" y="-52.8" font-family="Times,serif" font-size="14.00">forward</text>
<text text-anchor="middle" x="3701.5" y="-37.8" font-family="Times,serif" font-size="14.00">DB1/C2</text>
<text text-anchor="middle" x="3701.5" y="-22.8" font-family="Times,serif" font-size="14.00">dilation rate: 1 &#160;&#160;k width: 3</text>
<text text-anchor="middle" x="3701.5" y="-7.8" font-family="Times,serif" font-size="14.00">n kernels: 64</text>
</g>
<!-- 25&#45;&gt;48 -->
<g id="edge48" class="edge"><title>25&#45;&gt;48</title>
<path fill="none" stroke="black" d="M3772.85,-103.974C3764.23,-95.6431 3753.63,-85.3882 3743.25,-75.3573"/>
<polygon fill="black" stroke="black" points="3745.39,-72.5574 3735.77,-68.1236 3740.52,-77.5904 3745.39,-72.5574"/>
</g>
<!-- 49 -->
<g id="node50" class="node"><title>49</title>
<path fill="#debfe6" stroke="black" d="M3952,-68C3952,-68 3813,-68 3813,-68 3807,-68 3801,-62 3801,-56 3801,-56 3801,-12 3801,-12 3801,-6 3807,-0 3813,-0 3813,-0 3952,-0 3952,-0 3958,-0 3964,-6 3964,-12 3964,-12 3964,-56 3964,-56 3964,-62 3958,-68 3952,-68"/>
<text text-anchor="middle" x="3882.5" y="-52.8" font-family="Times,serif" font-size="14.00">merge</text>
<text text-anchor="middle" x="3882.5" y="-37.8" font-family="Times,serif" font-size="14.00">DB1/C0</text>
<text text-anchor="middle" x="3882.5" y="-22.8" font-family="Times,serif" font-size="14.00">dilation rate: 1 &#160;&#160;k width: 3</text>
<text text-anchor="middle" x="3882.5" y="-7.8" font-family="Times,serif" font-size="14.00">n kernels: 64</text>
</g>
<!-- 25&#45;&gt;49 -->
<g id="edge49" class="edge"><title>25&#45;&gt;49</title>
<path fill="none" stroke="black" d="M3810.36,-103.974C3819.15,-95.5622 3830,-85.1889 3840.59,-75.0653"/>
<polygon fill="black" stroke="black" points="3843.04,-77.5639 3847.85,-68.1236 3838.21,-72.5042 3843.04,-77.5639"/>
</g>
<!-- 50 -->
<g id="node51" class="node"><title>50</title>
<path fill="#c7abce" stroke="black" d="M4133,-68C4133,-68 3994,-68 3994,-68 3988,-68 3982,-62 3982,-56 3982,-56 3982,-12 3982,-12 3982,-6 3988,-0 3994,-0 3994,-0 4133,-0 4133,-0 4139,-0 4145,-6 4145,-12 4145,-12 4145,-56 4145,-56 4145,-62 4139,-68 4133,-68"/>
<text text-anchor="middle" x="4063.5" y="-52.8" font-family="Times,serif" font-size="14.00">merge</text>
<text text-anchor="middle" x="4063.5" y="-37.8" font-family="Times,serif" font-size="14.00">DB1/C1</text>
<text text-anchor="middle" x="4063.5" y="-22.8" font-family="Times,serif" font-size="14.00">dilation rate: 1 &#160;&#160;k width: 3</text>
<text text-anchor="middle" x="4063.5" y="-7.8" font-family="Times,serif" font-size="14.00">n kernels: 64</text>
</g>
<!-- 25&#45;&gt;50 -->
<g id="edge50" class="edge"><title>25&#45;&gt;50</title>
<path fill="none" stroke="black" d="M3855.44,-103.904C3887.84,-94.5064 3927.96,-82.5217 3971.97,-68.1174"/>
<polygon fill="black" stroke="black" points="3973.32,-71.359 3981.73,-64.9076 3971.13,-64.71 3973.32,-71.359"/>
</g>
<!-- 51 -->
<g id="node52" class="node"><title>51</title>
<path fill="#f6d3ff" stroke="black" d="M4314,-68C4314,-68 4175,-68 4175,-68 4169,-68 4163,-62 4163,-56 4163,-56 4163,-12 4163,-12 4163,-6 4169,-0 4175,-0 4175,-0 4314,-0 4314,-0 4320,-0 4326,-6 4326,-12 4326,-12 4326,-56 4326,-56 4326,-62 4320,-68 4314,-68"/>
<text text-anchor="middle" x="4244.5" y="-52.8" font-family="Times,serif" font-size="14.00">forward</text>
<text text-anchor="middle" x="4244.5" y="-37.8" font-family="Times,serif" font-size="14.00">DB1/C3</text>
<text text-anchor="middle" x="4244.5" y="-22.8" font-family="Times,serif" font-size="14.00">dilation rate: 1 &#160;&#160;k width: 3</text>
<text text-anchor="middle" x="4244.5" y="-7.8" font-family="Times,serif" font-size="14.00">n kernels: 64</text>
</g>
<!-- 26&#45;&gt;51 -->
<g id="edge51" class="edge"><title>26&#45;&gt;51</title>
<path fill="none" stroke="black" d="M4289.44,-104.812C4284.21,-96.6918 4277.72,-86.6128 4271.32,-76.6623"/>
<polygon fill="black" stroke="black" points="4274.1,-74.5177 4265.74,-68.0034 4268.21,-78.3064 4274.1,-74.5177"/>
</g>
<!-- 52 -->
<g id="node53" class="node"><title>52</title>
<path fill="#debfe6" stroke="black" d="M4495,-68C4495,-68 4356,-68 4356,-68 4350,-68 4344,-62 4344,-56 4344,-56 4344,-12 4344,-12 4344,-6 4350,-0 4356,-0 4356,-0 4495,-0 4495,-0 4501,-0 4507,-6 4507,-12 4507,-12 4507,-56 4507,-56 4507,-62 4501,-68 4495,-68"/>
<text text-anchor="middle" x="4425.5" y="-52.8" font-family="Times,serif" font-size="14.00">merge</text>
<text text-anchor="middle" x="4425.5" y="-37.8" font-family="Times,serif" font-size="14.00">EB0/C1</text>
<text text-anchor="middle" x="4425.5" y="-22.8" font-family="Times,serif" font-size="14.00">dilation rate: 1 &#160;&#160;k width: 3</text>
<text text-anchor="middle" x="4425.5" y="-7.8" font-family="Times,serif" font-size="14.00">n kernels: 64</text>
</g>
<!-- 26&#45;&gt;52 -->
<g id="edge52" class="edge"><title>26&#45;&gt;52</title>
<path fill="none" stroke="black" d="M4325.2,-104.812C4337.92,-95.9536 4354,-84.7641 4369.53,-73.9532"/>
<polygon fill="black" stroke="black" points="4371.87,-76.5887 4378.08,-68.0034 4367.87,-70.8433 4371.87,-76.5887"/>
</g>
<!-- 53 -->
<g id="node54" class="node"><title>53</title>
<path fill="#f6d3ff" stroke="black" d="M4676,-68C4676,-68 4537,-68 4537,-68 4531,-68 4525,-62 4525,-56 4525,-56 4525,-12 4525,-12 4525,-6 4531,-0 4537,-0 4537,-0 4676,-0 4676,-0 4682,-0 4688,-6 4688,-12 4688,-12 4688,-56 4688,-56 4688,-62 4682,-68 4676,-68"/>
<text text-anchor="middle" x="4606.5" y="-52.8" font-family="Times,serif" font-size="14.00">forward</text>
<text text-anchor="middle" x="4606.5" y="-37.8" font-family="Times,serif" font-size="14.00">DB0/C0</text>
<text text-anchor="middle" x="4606.5" y="-22.8" font-family="Times,serif" font-size="14.00">dilation rate: 1 &#160;&#160;k width: 3</text>
<text text-anchor="middle" x="4606.5" y="-7.8" font-family="Times,serif" font-size="14.00">n kernels: 64</text>
</g>
<!-- 27&#45;&gt;53 -->
<g id="edge53" class="edge"><title>27&#45;&gt;53</title>
<path fill="none" stroke="black" d="M4561.31,-103.974C4566.56,-95.9666 4572.97,-86.1818 4579.29,-76.5269"/>
<polygon fill="black" stroke="black" points="4582.25,-78.4064 4584.8,-68.1236 4576.39,-74.5702 4582.25,-78.4064"/>
</g>
</g>
</svg>
