<?xml version="1.0" encoding="UTF-8" standalone="no"?>
<!DOCTYPE svg PUBLIC "-//W3C//DTD SVG 1.1//EN"
 "http://www.w3.org/Graphics/SVG/1.1/DTD/svg11.dtd">
<!-- Generated by graphviz version 2.38.0 (20140413.2041)
 -->
<!-- Title: %3 Pages: 1 -->
<svg width="1156pt" height="313pt"
 viewBox="0.00 0.00 1156.00 313.00" xmlns="http://www.w3.org/2000/svg" xmlns:xlink="http://www.w3.org/1999/xlink">
<g id="graph0" class="graph" transform="scale(1 1) rotate(0) translate(4 309)">
<title>%3</title>
<polygon fill="none" stroke="none" points="-4,4 -4,-309 1152,-309 1152,4 -4,4"/>
<!-- 0 -->
<g id="node1" class="node"><title>0</title>
<path fill="#ffd3d3" stroke="black" d="M561.5,-305C561.5,-305 407.5,-305 407.5,-305 401.5,-305 395.5,-299 395.5,-293 395.5,-293 395.5,-264 395.5,-264 395.5,-258 401.5,-252 407.5,-252 407.5,-252 561.5,-252 561.5,-252 567.5,-252 573.5,-258 573.5,-264 573.5,-264 573.5,-293 573.5,-293 573.5,-299 567.5,-305 561.5,-305"/>
<text text-anchor="middle" x="484.5" y="-289.8" font-family="Times,serif" font-size="14.00">net</text>
<text text-anchor="middle" x="484.5" y="-274.8" font-family="Times,serif" font-size="14.00">dilation rate: 1 &#160;&#160;n kernels: 64</text>
<text text-anchor="middle" x="484.5" y="-259.8" font-family="Times,serif" font-size="14.00">pooling type: 0</text>
</g>
<!-- 1 -->
<g id="node2" class="node"><title>1</title>
<path fill="#e9ffd3" stroke="black" d="M338,-208.5C338,-208.5 127,-208.5 127,-208.5 121,-208.5 115,-202.5 115,-196.5 115,-196.5 115,-182.5 115,-182.5 115,-176.5 121,-170.5 127,-170.5 127,-170.5 338,-170.5 338,-170.5 344,-170.5 350,-176.5 350,-182.5 350,-182.5 350,-196.5 350,-196.5 350,-202.5 344,-208.5 338,-208.5"/>
<text text-anchor="middle" x="232.5" y="-193.3" font-family="Times,serif" font-size="14.00">conv block 0</text>
<text text-anchor="middle" x="232.5" y="-178.3" font-family="Times,serif" font-size="14.00">dilation rate: 1 &#160;&#160;log gamma2: 1.000000</text>
</g>
<!-- 0&#45;&gt;1 -->
<g id="edge1" class="edge"><title>0&#45;&gt;1</title>
<path fill="none" stroke="black" d="M410.594,-251.985C373.69,-239.244 329.549,-224.005 294.445,-211.886"/>
<polygon fill="black" stroke="black" points="295.392,-208.51 284.797,-208.555 293.107,-215.127 295.392,-208.51"/>
</g>
<!-- 2 -->
<g id="node3" class="node"><title>2</title>
<path fill="#e9ffd3" stroke="black" d="M843,-216C843,-216 632,-216 632,-216 626,-216 620,-210 620,-204 620,-204 620,-175 620,-175 620,-169 626,-163 632,-163 632,-163 843,-163 843,-163 849,-163 855,-169 855,-175 855,-175 855,-204 855,-204 855,-210 849,-216 843,-216"/>
<text text-anchor="middle" x="737.5" y="-200.8" font-family="Times,serif" font-size="14.00">conv block 1</text>
<text text-anchor="middle" x="737.5" y="-185.8" font-family="Times,serif" font-size="14.00">dilation rate: 1 &#160;&#160;log gamma2: 1.000000</text>
<text text-anchor="middle" x="737.5" y="-170.8" font-family="Times,serif" font-size="14.00">n kernels: &#45;20</text>
</g>
<!-- 0&#45;&gt;2 -->
<g id="edge2" class="edge"><title>0&#45;&gt;2</title>
<path fill="none" stroke="black" d="M558.699,-251.985C588.433,-241.76 622.847,-229.926 653.495,-219.387"/>
<polygon fill="black" stroke="black" points="654.984,-222.576 663.302,-216.015 652.708,-215.957 654.984,-222.576"/>
</g>
<!-- 3 -->
<g id="node4" class="node"><title>3</title>
<path fill="#d3ffff" stroke="black" d="M75,-119.5C75,-119.5 12,-119.5 12,-119.5 6,-119.5 0,-113.5 0,-107.5 0,-107.5 0,-93.5 0,-93.5 0,-87.5 6,-81.5 12,-81.5 12,-81.5 75,-81.5 75,-81.5 81,-81.5 87,-87.5 87,-93.5 87,-93.5 87,-107.5 87,-107.5 87,-113.5 81,-119.5 75,-119.5"/>
<text text-anchor="middle" x="43.5" y="-104.3" font-family="Times,serif" font-size="14.00">comp 0</text>
<text text-anchor="middle" x="43.5" y="-89.3" font-family="Times,serif" font-size="14.00">n kernels: 12</text>
</g>
<!-- 1&#45;&gt;3 -->
<g id="edge3" class="edge"><title>1&#45;&gt;3</title>
<path fill="none" stroke="black" d="M191.919,-170.452C164.823,-158.327 128.436,-141.901 96.5,-127 94.4325,-126.035 92.3221,-125.045 90.1921,-124.04"/>
<polygon fill="black" stroke="black" points="91.3347,-120.708 80.7998,-119.583 88.3336,-127.032 91.3347,-120.708"/>
</g>
<!-- 4 -->
<g id="node5" class="node"><title>4</title>
<path fill="#bfe6e6" stroke="black" d="M173.5,-119.5C173.5,-119.5 117.5,-119.5 117.5,-119.5 111.5,-119.5 105.5,-113.5 105.5,-107.5 105.5,-107.5 105.5,-93.5 105.5,-93.5 105.5,-87.5 111.5,-81.5 117.5,-81.5 117.5,-81.5 173.5,-81.5 173.5,-81.5 179.5,-81.5 185.5,-87.5 185.5,-93.5 185.5,-93.5 185.5,-107.5 185.5,-107.5 185.5,-113.5 179.5,-119.5 173.5,-119.5"/>
<text text-anchor="middle" x="145.5" y="-104.3" font-family="Times,serif" font-size="14.00">comp 1</text>
<text text-anchor="middle" x="145.5" y="-89.3" font-family="Times,serif" font-size="14.00">n kernels: 6</text>
</g>
<!-- 1&#45;&gt;4 -->
<g id="edge4" class="edge"><title>1&#45;&gt;4</title>
<path fill="none" stroke="black" d="M214.474,-170.474C201.875,-157.875 184.875,-140.875 170.906,-126.906"/>
<polygon fill="black" stroke="black" points="173.049,-124.1 163.503,-119.503 168.1,-129.049 173.049,-124.1"/>
</g>
<!-- 5 -->
<g id="node6" class="node"><title>5</title>
<path fill="#abcece" stroke="black" d="M249.5,-118.5C249.5,-118.5 215.5,-118.5 215.5,-118.5 209.5,-118.5 203.5,-112.5 203.5,-106.5 203.5,-106.5 203.5,-94.5 203.5,-94.5 203.5,-88.5 209.5,-82.5 215.5,-82.5 215.5,-82.5 249.5,-82.5 249.5,-82.5 255.5,-82.5 261.5,-88.5 261.5,-94.5 261.5,-94.5 261.5,-106.5 261.5,-106.5 261.5,-112.5 255.5,-118.5 249.5,-118.5"/>
<text text-anchor="middle" x="232.5" y="-96.8" font-family="Times,serif" font-size="14.00">comp 2</text>
</g>
<!-- 1&#45;&gt;5 -->
<g id="edge5" class="edge"><title>1&#45;&gt;5</title>
<path fill="none" stroke="black" d="M232.5,-170.474C232.5,-158.456 232.5,-142.434 232.5,-128.857"/>
<polygon fill="black" stroke="black" points="236,-128.615 232.5,-118.615 229,-128.615 236,-128.615"/>
</g>
<!-- 6 -->
<g id="node7" class="node"><title>6</title>
<path fill="#97b6b6" stroke="black" d="M325.5,-118.5C325.5,-118.5 291.5,-118.5 291.5,-118.5 285.5,-118.5 279.5,-112.5 279.5,-106.5 279.5,-106.5 279.5,-94.5 279.5,-94.5 279.5,-88.5 285.5,-82.5 291.5,-82.5 291.5,-82.5 325.5,-82.5 325.5,-82.5 331.5,-82.5 337.5,-88.5 337.5,-94.5 337.5,-94.5 337.5,-106.5 337.5,-106.5 337.5,-112.5 331.5,-118.5 325.5,-118.5"/>
<text text-anchor="middle" x="308.5" y="-96.8" font-family="Times,serif" font-size="14.00">identity</text>
</g>
<!-- 1&#45;&gt;6 -->
<g id="edge6" class="edge"><title>1&#45;&gt;6</title>
<path fill="none" stroke="black" d="M248.247,-170.474C259.369,-157.742 274.417,-140.516 286.692,-126.464"/>
<polygon fill="black" stroke="black" points="289.606,-128.449 293.549,-118.615 284.334,-123.844 289.606,-128.449"/>
</g>
<!-- 7 -->
<g id="node8" class="node"><title>7</title>
<path fill="#d3ffff" stroke="black" d="M504.5,-119.5C504.5,-119.5 384.5,-119.5 384.5,-119.5 378.5,-119.5 372.5,-113.5 372.5,-107.5 372.5,-107.5 372.5,-93.5 372.5,-93.5 372.5,-87.5 378.5,-81.5 384.5,-81.5 384.5,-81.5 504.5,-81.5 504.5,-81.5 510.5,-81.5 516.5,-87.5 516.5,-93.5 516.5,-93.5 516.5,-107.5 516.5,-107.5 516.5,-113.5 510.5,-119.5 504.5,-119.5"/>
<text text-anchor="middle" x="444.5" y="-104.3" font-family="Times,serif" font-size="14.00">comp 0</text>
<text text-anchor="middle" x="444.5" y="-89.3" font-family="Times,serif" font-size="14.00">log gamma1: 1.000000</text>
</g>
<!-- 2&#45;&gt;7 -->
<g id="edge7" class="edge"><title>2&#45;&gt;7</title>
<path fill="none" stroke="black" d="M647.883,-162.989C610.056,-152.095 565.575,-139.119 525.5,-127 520.892,-125.606 516.141,-124.153 511.359,-122.679"/>
<polygon fill="black" stroke="black" points="512.124,-119.252 501.536,-119.634 510.051,-125.938 512.124,-119.252"/>
</g>
<!-- 8 -->
<g id="node9" class="node"><title>8</title>
<path fill="#bfe6e6" stroke="black" d="M762,-127C762,-127 547,-127 547,-127 541,-127 535,-121 535,-115 535,-115 535,-86 535,-86 535,-80 541,-74 547,-74 547,-74 762,-74 762,-74 768,-74 774,-80 774,-86 774,-86 774,-115 774,-115 774,-121 768,-127 762,-127"/>
<text text-anchor="middle" x="654.5" y="-111.8" font-family="Times,serif" font-size="14.00">comp 1</text>
<text text-anchor="middle" x="654.5" y="-96.8" font-family="Times,serif" font-size="14.00">dilation rate: &#45;1 &#160;&#160;log gamma2: 1.430226</text>
<text text-anchor="middle" x="654.5" y="-81.8" font-family="Times,serif" font-size="14.00">n kernels: &#45;6</text>
</g>
<!-- 2&#45;&gt;8 -->
<g id="edge8" class="edge"><title>2&#45;&gt;8</title>
<path fill="none" stroke="black" d="M713.046,-162.868C704.594,-154.008 695.001,-143.953 686.061,-134.582"/>
<polygon fill="black" stroke="black" points="688.501,-132.069 679.066,-127.25 683.436,-136.901 688.501,-132.069"/>
</g>
<!-- 9 -->
<g id="node10" class="node"><title>9</title>
<path fill="#abcece" stroke="black" d="M837.5,-118.5C837.5,-118.5 803.5,-118.5 803.5,-118.5 797.5,-118.5 791.5,-112.5 791.5,-106.5 791.5,-106.5 791.5,-94.5 791.5,-94.5 791.5,-88.5 797.5,-82.5 803.5,-82.5 803.5,-82.5 837.5,-82.5 837.5,-82.5 843.5,-82.5 849.5,-88.5 849.5,-94.5 849.5,-94.5 849.5,-106.5 849.5,-106.5 849.5,-112.5 843.5,-118.5 837.5,-118.5"/>
<text text-anchor="middle" x="820.5" y="-96.8" font-family="Times,serif" font-size="14.00">comp 2</text>
</g>
<!-- 2&#45;&gt;9 -->
<g id="edge9" class="edge"><title>2&#45;&gt;9</title>
<path fill="none" stroke="black" d="M761.954,-162.868C772.988,-151.302 785.968,-137.696 796.899,-126.239"/>
<polygon fill="black" stroke="black" points="799.719,-128.353 804.089,-118.701 794.654,-123.521 799.719,-128.353"/>
</g>
<!-- 10 -->
<g id="node11" class="node"><title>10</title>
<path fill="#97b6b6" stroke="black" d="M999.5,-119.5C999.5,-119.5 879.5,-119.5 879.5,-119.5 873.5,-119.5 867.5,-113.5 867.5,-107.5 867.5,-107.5 867.5,-93.5 867.5,-93.5 867.5,-87.5 873.5,-81.5 879.5,-81.5 879.5,-81.5 999.5,-81.5 999.5,-81.5 1005.5,-81.5 1011.5,-87.5 1011.5,-93.5 1011.5,-93.5 1011.5,-107.5 1011.5,-107.5 1011.5,-113.5 1005.5,-119.5 999.5,-119.5"/>
<text text-anchor="middle" x="939.5" y="-104.3" font-family="Times,serif" font-size="14.00">comp 3</text>
<text text-anchor="middle" x="939.5" y="-89.3" font-family="Times,serif" font-size="14.00">log gamma1: 1.213534</text>
</g>
<!-- 2&#45;&gt;10 -->
<g id="edge10" class="edge"><title>2&#45;&gt;10</title>
<path fill="none" stroke="black" d="M796.742,-162.985C825.692,-150.516 860.197,-135.655 888.032,-123.667"/>
<polygon fill="black" stroke="black" points="889.779,-126.725 897.579,-119.555 887.01,-120.296 889.779,-126.725"/>
</g>
<!-- 11 -->
<g id="node12" class="node"><title>11</title>
<path fill="#839e9e" stroke="black" d="M1075.5,-118.5C1075.5,-118.5 1041.5,-118.5 1041.5,-118.5 1035.5,-118.5 1029.5,-112.5 1029.5,-106.5 1029.5,-106.5 1029.5,-94.5 1029.5,-94.5 1029.5,-88.5 1035.5,-82.5 1041.5,-82.5 1041.5,-82.5 1075.5,-82.5 1075.5,-82.5 1081.5,-82.5 1087.5,-88.5 1087.5,-94.5 1087.5,-94.5 1087.5,-106.5 1087.5,-106.5 1087.5,-112.5 1081.5,-118.5 1075.5,-118.5"/>
<text text-anchor="middle" x="1058.5" y="-96.8" font-family="Times,serif" font-size="14.00">identity</text>
</g>
<!-- 2&#45;&gt;11 -->
<g id="edge11" class="edge"><title>2&#45;&gt;11</title>
<path fill="none" stroke="black" d="M855.172,-173.141C907.231,-163.782 968.341,-149.207 1020.5,-127 1022.64,-126.09 1024.78,-125.054 1026.91,-123.935"/>
<polygon fill="black" stroke="black" points="1029.13,-126.689 1035.98,-118.61 1025.59,-120.651 1029.13,-126.689"/>
</g>
<!-- 12 -->
<g id="node13" class="node"><title>12</title>
<path fill="#e9d3ff" stroke="black" d="M61,-38C61,-38 26,-38 26,-38 20,-38 14,-32 14,-26 14,-26 14,-12 14,-12 14,-6 20,-0 26,-0 26,-0 61,-0 61,-0 67,-0 73,-6 73,-12 73,-12 73,-26 73,-26 73,-32 67,-38 61,-38"/>
<text text-anchor="middle" x="43.5" y="-22.8" font-family="Times,serif" font-size="14.00">forward</text>
<text text-anchor="middle" x="43.5" y="-7.8" font-family="Times,serif" font-size="14.00">input</text>
</g>
<!-- 3&#45;&gt;12 -->
<g id="edge12" class="edge"><title>3&#45;&gt;12</title>
<path fill="none" stroke="black" d="M43.5,-81.4602C43.5,-71.67 43.5,-59.3453 43.5,-48.3073"/>
<polygon fill="black" stroke="black" points="47.0001,-48.2435 43.5,-38.2436 40.0001,-48.2436 47.0001,-48.2435"/>
</g>
<!-- 13 -->
<g id="node14" class="node"><title>13</title>
<path fill="#e9d3ff" stroke="black" d="M164,-38C164,-38 127,-38 127,-38 121,-38 115,-32 115,-26 115,-26 115,-12 115,-12 115,-6 121,-0 127,-0 127,-0 164,-0 164,-0 170,-0 176,-6 176,-12 176,-12 176,-26 176,-26 176,-32 170,-38 164,-38"/>
<text text-anchor="middle" x="145.5" y="-22.8" font-family="Times,serif" font-size="14.00">forward</text>
<text text-anchor="middle" x="145.5" y="-7.8" font-family="Times,serif" font-size="14.00">CB0/C0</text>
</g>
<!-- 4&#45;&gt;13 -->
<g id="edge13" class="edge"><title>4&#45;&gt;13</title>
<path fill="none" stroke="black" d="M145.5,-81.4602C145.5,-71.67 145.5,-59.3453 145.5,-48.3073"/>
<polygon fill="black" stroke="black" points="149,-48.2435 145.5,-38.2436 142,-48.2436 149,-48.2435"/>
</g>
<!-- 14 -->
<g id="node15" class="node"><title>14</title>
<path fill="#e9d3ff" stroke="black" d="M245,-38C245,-38 208,-38 208,-38 202,-38 196,-32 196,-26 196,-26 196,-12 196,-12 196,-6 202,-0 208,-0 208,-0 245,-0 245,-0 251,-0 257,-6 257,-12 257,-12 257,-26 257,-26 257,-32 251,-38 245,-38"/>
<text text-anchor="middle" x="226.5" y="-22.8" font-family="Times,serif" font-size="14.00">forward</text>
<text text-anchor="middle" x="226.5" y="-7.8" font-family="Times,serif" font-size="14.00">CB0/C1</text>
</g>
<!-- 5&#45;&gt;14 -->
<g id="edge14" class="edge"><title>5&#45;&gt;14</title>
<path fill="none" stroke="black" d="M231.198,-82.2497C230.451,-72.352 229.495,-59.6794 228.64,-48.3546"/>
<polygon fill="black" stroke="black" points="232.105,-47.7526 227.862,-38.0444 225.124,-48.2795 232.105,-47.7526"/>
</g>
<!-- 15 -->
<g id="node16" class="node"><title>15</title>
<path fill="#e9d3ff" stroke="black" d="M324,-38C324,-38 287,-38 287,-38 281,-38 275,-32 275,-26 275,-26 275,-12 275,-12 275,-6 281,-0 287,-0 287,-0 324,-0 324,-0 330,-0 336,-6 336,-12 336,-12 336,-26 336,-26 336,-32 330,-38 324,-38"/>
<text text-anchor="middle" x="305.5" y="-22.8" font-family="Times,serif" font-size="14.00">residual</text>
<text text-anchor="middle" x="305.5" y="-7.8" font-family="Times,serif" font-size="14.00">CB0/C0</text>
</g>
<!-- 6&#45;&gt;15 -->
<g id="edge15" class="edge"><title>6&#45;&gt;15</title>
<path fill="none" stroke="black" d="M307.849,-82.2497C307.476,-72.352 306.997,-59.6794 306.57,-48.3546"/>
<polygon fill="black" stroke="black" points="310.056,-47.9053 306.181,-38.0444 303.061,-48.1693 310.056,-47.9053"/>
</g>
<!-- 16 -->
<g id="node17" class="node"><title>16</title>
<path fill="#d3bfe6" stroke="black" d="M403,-38C403,-38 366,-38 366,-38 360,-38 354,-32 354,-26 354,-26 354,-12 354,-12 354,-6 360,-0 366,-0 366,-0 403,-0 403,-0 409,-0 415,-6 415,-12 415,-12 415,-26 415,-26 415,-32 409,-38 403,-38"/>
<text text-anchor="middle" x="384.5" y="-22.8" font-family="Times,serif" font-size="14.00">forward</text>
<text text-anchor="middle" x="384.5" y="-7.8" font-family="Times,serif" font-size="14.00">CB0/C2</text>
</g>
<!-- 6&#45;&gt;16 -->
<g id="edge16" class="edge"><title>6&#45;&gt;16</title>
<path fill="none" stroke="black" d="M324.991,-82.2497C335.233,-71.5357 348.584,-57.5701 360.044,-45.5824"/>
<polygon fill="black" stroke="black" points="362.87,-47.6914 367.25,-38.0444 357.81,-42.8543 362.87,-47.6914"/>
</g>
<!-- 17 -->
<g id="node18" class="node"><title>17</title>
<path fill="#e9d3ff" stroke="black" d="M480,-38C480,-38 445,-38 445,-38 439,-38 433,-32 433,-26 433,-26 433,-12 433,-12 433,-6 439,-0 445,-0 445,-0 480,-0 480,-0 486,-0 492,-6 492,-12 492,-12 492,-26 492,-26 492,-32 486,-38 480,-38"/>
<text text-anchor="middle" x="462.5" y="-22.8" font-family="Times,serif" font-size="14.00">forward</text>
<text text-anchor="middle" x="462.5" y="-7.8" font-family="Times,serif" font-size="14.00">CB0/I</text>
</g>
<!-- 7&#45;&gt;17 -->
<g id="edge17" class="edge"><title>7&#45;&gt;17</title>
<path fill="none" stroke="black" d="M448.584,-81.4602C450.801,-71.67 453.592,-59.3453 456.091,-48.3073"/>
<polygon fill="black" stroke="black" points="459.575,-48.7696 458.369,-38.2436 452.747,-47.2238 459.575,-48.7696"/>
</g>
<!-- 18 -->
<g id="node19" class="node"><title>18</title>
<path fill="#e9d3ff" stroke="black" d="M673,-38C673,-38 636,-38 636,-38 630,-38 624,-32 624,-26 624,-26 624,-12 624,-12 624,-6 630,-0 636,-0 636,-0 673,-0 673,-0 679,-0 685,-6 685,-12 685,-12 685,-26 685,-26 685,-32 679,-38 673,-38"/>
<text text-anchor="middle" x="654.5" y="-22.8" font-family="Times,serif" font-size="14.00">forward</text>
<text text-anchor="middle" x="654.5" y="-7.8" font-family="Times,serif" font-size="14.00">CB1/C0</text>
</g>
<!-- 8&#45;&gt;18 -->
<g id="edge18" class="edge"><title>8&#45;&gt;18</title>
<path fill="none" stroke="black" d="M654.5,-73.9081C654.5,-65.7377 654.5,-56.6492 654.5,-48.2981"/>
<polygon fill="black" stroke="black" points="658,-48.2389 654.5,-38.2389 651,-48.2389 658,-48.2389"/>
</g>
<!-- 19 -->
<g id="node20" class="node"><title>19</title>
<path fill="#e9d3ff" stroke="black" d="M839,-38C839,-38 802,-38 802,-38 796,-38 790,-32 790,-26 790,-26 790,-12 790,-12 790,-6 796,-0 802,-0 802,-0 839,-0 839,-0 845,-0 851,-6 851,-12 851,-12 851,-26 851,-26 851,-32 845,-38 839,-38"/>
<text text-anchor="middle" x="820.5" y="-22.8" font-family="Times,serif" font-size="14.00">forward</text>
<text text-anchor="middle" x="820.5" y="-7.8" font-family="Times,serif" font-size="14.00">CB1/C1</text>
</g>
<!-- 9&#45;&gt;19 -->
<g id="edge19" class="edge"><title>9&#45;&gt;19</title>
<path fill="none" stroke="black" d="M820.5,-82.2497C820.5,-72.352 820.5,-59.6794 820.5,-48.3546"/>
<polygon fill="black" stroke="black" points="824,-48.0444 820.5,-38.0444 817,-48.0445 824,-48.0444"/>
</g>
<!-- 20 -->
<g id="node21" class="node"><title>20</title>
<path fill="#e9d3ff" stroke="black" d="M958,-38C958,-38 921,-38 921,-38 915,-38 909,-32 909,-26 909,-26 909,-12 909,-12 909,-6 915,-0 921,-0 921,-0 958,-0 958,-0 964,-0 970,-6 970,-12 970,-12 970,-26 970,-26 970,-32 964,-38 958,-38"/>
<text text-anchor="middle" x="939.5" y="-22.8" font-family="Times,serif" font-size="14.00">forward</text>
<text text-anchor="middle" x="939.5" y="-7.8" font-family="Times,serif" font-size="14.00">CB1/C2</text>
</g>
<!-- 10&#45;&gt;20 -->
<g id="edge20" class="edge"><title>10&#45;&gt;20</title>
<path fill="none" stroke="black" d="M939.5,-81.4602C939.5,-71.67 939.5,-59.3453 939.5,-48.3073"/>
<polygon fill="black" stroke="black" points="943,-48.2435 939.5,-38.2436 936,-48.2436 943,-48.2435"/>
</g>
<!-- 21 -->
<g id="node22" class="node"><title>21</title>
<path fill="#e9d3ff" stroke="black" d="M1057,-38C1057,-38 1020,-38 1020,-38 1014,-38 1008,-32 1008,-26 1008,-26 1008,-12 1008,-12 1008,-6 1014,-0 1020,-0 1020,-0 1057,-0 1057,-0 1063,-0 1069,-6 1069,-12 1069,-12 1069,-26 1069,-26 1069,-32 1063,-38 1057,-38"/>
<text text-anchor="middle" x="1038.5" y="-22.8" font-family="Times,serif" font-size="14.00">residual</text>
<text text-anchor="middle" x="1038.5" y="-7.8" font-family="Times,serif" font-size="14.00">CB1/C0</text>
</g>
<!-- 11&#45;&gt;21 -->
<g id="edge21" class="edge"><title>11&#45;&gt;21</title>
<path fill="none" stroke="black" d="M1054.16,-82.2497C1051.64,-72.25 1048.42,-59.4178 1045.55,-48.0048"/>
<polygon fill="black" stroke="black" points="1048.87,-46.8883 1043.04,-38.0444 1042.09,-48.5962 1048.87,-46.8883"/>
</g>
<!-- 22 -->
<g id="node23" class="node"><title>22</title>
<path fill="#d3bfe6" stroke="black" d="M1136,-38C1136,-38 1099,-38 1099,-38 1093,-38 1087,-32 1087,-26 1087,-26 1087,-12 1087,-12 1087,-6 1093,-0 1099,-0 1099,-0 1136,-0 1136,-0 1142,-0 1148,-6 1148,-12 1148,-12 1148,-26 1148,-26 1148,-32 1142,-38 1136,-38"/>
<text text-anchor="middle" x="1117.5" y="-22.8" font-family="Times,serif" font-size="14.00">forward</text>
<text text-anchor="middle" x="1117.5" y="-7.8" font-family="Times,serif" font-size="14.00">CB1/C3</text>
</g>
<!-- 11&#45;&gt;22 -->
<g id="edge22" class="edge"><title>11&#45;&gt;22</title>
<path fill="none" stroke="black" d="M1071.3,-82.2497C1079.1,-71.7398 1089.22,-58.101 1098,-46.2695"/>
<polygon fill="black" stroke="black" points="1100.96,-48.1605 1104.11,-38.0444 1095.34,-43.9888 1100.96,-48.1605"/>
</g>
</g>
</svg>
