<?xml version="1.0" encoding="UTF-8" standalone="no"?>
<!DOCTYPE svg PUBLIC "-//W3C//DTD SVG 1.1//EN"
 "http://www.w3.org/Graphics/SVG/1.1/DTD/svg11.dtd">
<!-- Generated by graphviz version 2.38.0 (20140413.2041)
 -->
<!-- Title: %3 Pages: 1 -->
<svg width="2452pt" height="387pt"
 viewBox="0.00 0.00 2452.00 387.00" xmlns="http://www.w3.org/2000/svg" xmlns:xlink="http://www.w3.org/1999/xlink">
<g id="graph0" class="graph" transform="scale(1 1) rotate(0) translate(4 383)">
<title>%3</title>
<polygon fill="none" stroke="none" points="-4,4 -4,-383 2448,-383 2448,4 -4,4"/>
<!-- 0 -->
<g id="node1" class="node"><title>0</title>
<path fill="#ffd3d3" stroke="black" d="M1374,-379C1374,-379 1304,-379 1304,-379 1298,-379 1292,-373 1292,-367 1292,-367 1292,-353 1292,-353 1292,-347 1298,-341 1304,-341 1304,-341 1374,-341 1374,-341 1380,-341 1386,-347 1386,-353 1386,-353 1386,-367 1386,-367 1386,-373 1380,-379 1374,-379"/>
<text text-anchor="middle" x="1339" y="-363.8" font-family="Times,serif" font-size="14.00">net</text>
<text text-anchor="middle" x="1339" y="-348.8" font-family="Times,serif" font-size="14.00">n kernels: 178</text>
</g>
<!-- 1 -->
<g id="node2" class="node"><title>1</title>
<path fill="#f6ffd3" stroke="black" d="M1148,-297.5C1148,-297.5 948,-297.5 948,-297.5 942,-297.5 936,-291.5 936,-285.5 936,-285.5 936,-271.5 936,-271.5 936,-265.5 942,-259.5 948,-259.5 948,-259.5 1148,-259.5 1148,-259.5 1154,-259.5 1160,-265.5 1160,-271.5 1160,-271.5 1160,-285.5 1160,-285.5 1160,-291.5 1154,-297.5 1148,-297.5"/>
<text text-anchor="middle" x="1048" y="-282.3" font-family="Times,serif" font-size="14.00">encoder</text>
<text text-anchor="middle" x="1048" y="-267.3" font-family="Times,serif" font-size="14.00">log gamma2: 0.157189 &#160;&#160;n kernels: &#45;9</text>
</g>
<!-- 0&#45;&gt;1 -->
<g id="edge1" class="edge"><title>0&#45;&gt;1</title>
<path fill="none" stroke="black" d="M1291.92,-346.139C1246.49,-333.727 1176.96,-314.732 1123.74,-300.193"/>
<polygon fill="black" stroke="black" points="1124.58,-296.792 1114.01,-297.533 1122.73,-303.545 1124.58,-296.792"/>
</g>
<!-- 2 -->
<g id="node3" class="node"><title>2</title>
<path fill="#f6ffd3" stroke="black" d="M1759.5,-305C1759.5,-305 1500.5,-305 1500.5,-305 1494.5,-305 1488.5,-299 1488.5,-293 1488.5,-293 1488.5,-264 1488.5,-264 1488.5,-258 1494.5,-252 1500.5,-252 1500.5,-252 1759.5,-252 1759.5,-252 1765.5,-252 1771.5,-258 1771.5,-264 1771.5,-264 1771.5,-293 1771.5,-293 1771.5,-299 1765.5,-305 1759.5,-305"/>
<text text-anchor="middle" x="1630" y="-289.8" font-family="Times,serif" font-size="14.00">decoder</text>
<text text-anchor="middle" x="1630" y="-274.8" font-family="Times,serif" font-size="14.00">log gamma1: 0.470888 &#160;&#160;log gamma2: 0.038934</text>
<text text-anchor="middle" x="1630" y="-259.8" font-family="Times,serif" font-size="14.00">n kernels: 3 &#160;&#160;pooling type: &#45;1</text>
</g>
<!-- 0&#45;&gt;2 -->
<g id="edge2" class="edge"><title>0&#45;&gt;2</title>
<path fill="none" stroke="black" d="M1386.08,-346.139C1424,-335.778 1478.72,-320.83 1526.72,-307.715"/>
<polygon fill="black" stroke="black" points="1527.82,-311.045 1536.54,-305.033 1525.97,-304.292 1527.82,-311.045"/>
</g>
<!-- 3 -->
<g id="node4" class="node"><title>3</title>
<path fill="#d3ffe4" stroke="black" d="M579.5,-208.5C579.5,-208.5 424.5,-208.5 424.5,-208.5 418.5,-208.5 412.5,-202.5 412.5,-196.5 412.5,-196.5 412.5,-182.5 412.5,-182.5 412.5,-176.5 418.5,-170.5 424.5,-170.5 424.5,-170.5 579.5,-170.5 579.5,-170.5 585.5,-170.5 591.5,-176.5 591.5,-182.5 591.5,-182.5 591.5,-196.5 591.5,-196.5 591.5,-202.5 585.5,-208.5 579.5,-208.5"/>
<text text-anchor="middle" x="502" y="-193.3" font-family="Times,serif" font-size="14.00">encode block 0</text>
<text text-anchor="middle" x="502" y="-178.3" font-family="Times,serif" font-size="14.00">n kernels: &#45;7 &#160;&#160;pooling type: 1</text>
</g>
<!-- 1&#45;&gt;3 -->
<g id="edge3" class="edge"><title>1&#45;&gt;3</title>
<path fill="none" stroke="black" d="M935.861,-259.632C837.698,-243.99 696.403,-221.476 602.018,-206.437"/>
<polygon fill="black" stroke="black" points="602.318,-202.941 591.892,-204.823 601.217,-209.853 602.318,-202.941"/>
</g>
<!-- 4 -->
<g id="node5" class="node"><title>4</title>
<path fill="#bfe6cf" stroke="black" d="M1149,-216C1149,-216 947,-216 947,-216 941,-216 935,-210 935,-204 935,-204 935,-175 935,-175 935,-169 941,-163 947,-163 947,-163 1149,-163 1149,-163 1155,-163 1161,-169 1161,-175 1161,-175 1161,-204 1161,-204 1161,-210 1155,-216 1149,-216"/>
<text text-anchor="middle" x="1048" y="-200.8" font-family="Times,serif" font-size="14.00">encode block 1</text>
<text text-anchor="middle" x="1048" y="-185.8" font-family="Times,serif" font-size="14.00">log gamma2: 0.252965 &#160;&#160;n kernels: 64</text>
<text text-anchor="middle" x="1048" y="-170.8" font-family="Times,serif" font-size="14.00">spatial scale: 1</text>
</g>
<!-- 1&#45;&gt;4 -->
<g id="edge4" class="edge"><title>1&#45;&gt;4</title>
<path fill="none" stroke="black" d="M1048,-259.474C1048,-249.871 1048,-237.711 1048,-226.285"/>
<polygon fill="black" stroke="black" points="1051.5,-226.092 1048,-216.092 1044.5,-226.092 1051.5,-226.092"/>
</g>
<!-- 5 -->
<g id="node6" class="node"><title>5</title>
<path fill="#d3ffe4" stroke="black" d="M1730,-216C1730,-216 1530,-216 1530,-216 1524,-216 1518,-210 1518,-204 1518,-204 1518,-175 1518,-175 1518,-169 1524,-163 1530,-163 1530,-163 1730,-163 1730,-163 1736,-163 1742,-169 1742,-175 1742,-175 1742,-204 1742,-204 1742,-210 1736,-216 1730,-216"/>
<text text-anchor="middle" x="1630" y="-200.8" font-family="Times,serif" font-size="14.00">decode block 1</text>
<text text-anchor="middle" x="1630" y="-185.8" font-family="Times,serif" font-size="14.00">log gamma2: 0.284903 &#160;&#160;n kernels: &#45;7</text>
<text text-anchor="middle" x="1630" y="-170.8" font-family="Times,serif" font-size="14.00">pooling type: &#45;1 &#160;&#160;spatial scale: 1</text>
</g>
<!-- 2&#45;&gt;5 -->
<g id="edge5" class="edge"><title>2&#45;&gt;5</title>
<path fill="none" stroke="black" d="M1630,-251.868C1630,-243.886 1630,-234.932 1630,-226.384"/>
<polygon fill="black" stroke="black" points="1633.5,-226.25 1630,-216.25 1626.5,-226.25 1633.5,-226.25"/>
</g>
<!-- 6 -->
<g id="node7" class="node"><title>6</title>
<path fill="#bfe6cf" stroke="black" d="M2178,-216C2178,-216 1976,-216 1976,-216 1970,-216 1964,-210 1964,-204 1964,-204 1964,-175 1964,-175 1964,-169 1970,-163 1976,-163 1976,-163 2178,-163 2178,-163 2184,-163 2190,-169 2190,-175 2190,-175 2190,-204 2190,-204 2190,-210 2184,-216 2178,-216"/>
<text text-anchor="middle" x="2077" y="-200.8" font-family="Times,serif" font-size="14.00">decode block 0</text>
<text text-anchor="middle" x="2077" y="-185.8" font-family="Times,serif" font-size="14.00">log gamma2: 0.171522 &#160;&#160;n kernels: 10</text>
<text text-anchor="middle" x="2077" y="-170.8" font-family="Times,serif" font-size="14.00">pooling type: 1</text>
</g>
<!-- 2&#45;&gt;6 -->
<g id="edge6" class="edge"><title>2&#45;&gt;6</title>
<path fill="none" stroke="black" d="M1761.09,-251.985C1821.98,-240.135 1893.97,-226.124 1953.84,-214.472"/>
<polygon fill="black" stroke="black" points="1954.57,-217.894 1963.72,-212.548 1953.23,-211.023 1954.57,-217.894"/>
</g>
<!-- 7 -->
<g id="node8" class="node"><title>7</title>
<path fill="#d3e4ff" stroke="black" d="M280,-119.5C280,-119.5 12,-119.5 12,-119.5 6,-119.5 0,-113.5 0,-107.5 0,-107.5 0,-93.5 0,-93.5 0,-87.5 6,-81.5 12,-81.5 12,-81.5 280,-81.5 280,-81.5 286,-81.5 292,-87.5 292,-93.5 292,-93.5 292,-107.5 292,-107.5 292,-113.5 286,-119.5 280,-119.5"/>
<text text-anchor="middle" x="146" y="-104.3" font-family="Times,serif" font-size="14.00">comp 0</text>
<text text-anchor="middle" x="146" y="-89.3" font-family="Times,serif" font-size="14.00">log gamma1: &#45;0.024057 &#160;&#160;log gamma2: &#45;0.137757</text>
</g>
<!-- 3&#45;&gt;7 -->
<g id="edge7" class="edge"><title>3&#45;&gt;7</title>
<path fill="none" stroke="black" d="M428.237,-170.474C370.36,-156.33 289.783,-136.638 229.535,-121.914"/>
<polygon fill="black" stroke="black" points="230.214,-118.477 219.669,-119.503 228.552,-125.277 230.214,-118.477"/>
</g>
<!-- 8 -->
<g id="node9" class="node"><title>8</title>
<path fill="#bfcfe6" stroke="black" d="M522,-119.5C522,-119.5 322,-119.5 322,-119.5 316,-119.5 310,-113.5 310,-107.5 310,-107.5 310,-93.5 310,-93.5 310,-87.5 316,-81.5 322,-81.5 322,-81.5 522,-81.5 522,-81.5 528,-81.5 534,-87.5 534,-93.5 534,-93.5 534,-107.5 534,-107.5 534,-113.5 528,-119.5 522,-119.5"/>
<text text-anchor="middle" x="422" y="-104.3" font-family="Times,serif" font-size="14.00">comp 1</text>
<text text-anchor="middle" x="422" y="-89.3" font-family="Times,serif" font-size="14.00">log gamma2: &#45;0.015445 &#160;&#160;n kernels: 3</text>
</g>
<!-- 3&#45;&gt;8 -->
<g id="edge8" class="edge"><title>3&#45;&gt;8</title>
<path fill="none" stroke="black" d="M485.424,-170.474C473.839,-157.875 458.207,-140.875 445.361,-126.906"/>
<polygon fill="black" stroke="black" points="447.9,-124.495 438.555,-119.503 442.747,-129.233 447.9,-124.495"/>
</g>
<!-- 9 -->
<g id="node10" class="node"><title>9</title>
<path fill="#abb9ce" stroke="black" d="M598,-118.5C598,-118.5 564,-118.5 564,-118.5 558,-118.5 552,-112.5 552,-106.5 552,-106.5 552,-94.5 552,-94.5 552,-88.5 558,-82.5 564,-82.5 564,-82.5 598,-82.5 598,-82.5 604,-82.5 610,-88.5 610,-94.5 610,-94.5 610,-106.5 610,-106.5 610,-112.5 604,-118.5 598,-118.5"/>
<text text-anchor="middle" x="581" y="-96.8" font-family="Times,serif" font-size="14.00">identity</text>
</g>
<!-- 3&#45;&gt;9 -->
<g id="edge9" class="edge"><title>3&#45;&gt;9</title>
<path fill="none" stroke="black" d="M518.369,-170.474C530.038,-157.623 545.864,-140.194 558.688,-126.071"/>
<polygon fill="black" stroke="black" points="561.327,-128.372 565.458,-118.615 556.145,-123.666 561.327,-128.372"/>
</g>
<!-- 10 -->
<g id="node11" class="node"><title>10</title>
<path fill="#d3e4ff" stroke="black" d="M903.5,-127C903.5,-127 640.5,-127 640.5,-127 634.5,-127 628.5,-121 628.5,-115 628.5,-115 628.5,-86 628.5,-86 628.5,-80 634.5,-74 640.5,-74 640.5,-74 903.5,-74 903.5,-74 909.5,-74 915.5,-80 915.5,-86 915.5,-86 915.5,-115 915.5,-115 915.5,-121 909.5,-127 903.5,-127"/>
<text text-anchor="middle" x="772" y="-111.8" font-family="Times,serif" font-size="14.00">comp 0</text>
<text text-anchor="middle" x="772" y="-96.8" font-family="Times,serif" font-size="14.00">log gamma1: &#45;0.033651 &#160;&#160;log gamma2: 0.282090</text>
<text text-anchor="middle" x="772" y="-81.8" font-family="Times,serif" font-size="14.00">n kernels: 6</text>
</g>
<!-- 4&#45;&gt;10 -->
<g id="edge10" class="edge"><title>4&#45;&gt;10</title>
<path fill="none" stroke="black" d="M967.056,-162.985C934.338,-152.672 896.426,-140.721 862.775,-130.114"/>
<polygon fill="black" stroke="black" points="863.532,-126.683 852.943,-127.015 861.428,-133.359 863.532,-126.683"/>
</g>
<!-- 11 -->
<g id="node12" class="node"><title>11</title>
<path fill="#bfcfe6" stroke="black" d="M1150,-119.5C1150,-119.5 946,-119.5 946,-119.5 940,-119.5 934,-113.5 934,-107.5 934,-107.5 934,-93.5 934,-93.5 934,-87.5 940,-81.5 946,-81.5 946,-81.5 1150,-81.5 1150,-81.5 1156,-81.5 1162,-87.5 1162,-93.5 1162,-93.5 1162,-107.5 1162,-107.5 1162,-113.5 1156,-119.5 1150,-119.5"/>
<text text-anchor="middle" x="1048" y="-104.3" font-family="Times,serif" font-size="14.00">comp 1</text>
<text text-anchor="middle" x="1048" y="-89.3" font-family="Times,serif" font-size="14.00">log gamma2: &#45;0.324908 &#160;&#160;n kernels: &#45;2</text>
</g>
<!-- 4&#45;&gt;11 -->
<g id="edge11" class="edge"><title>4&#45;&gt;11</title>
<path fill="none" stroke="black" d="M1048,-162.868C1048,-152.417 1048,-140.301 1048,-129.609"/>
<polygon fill="black" stroke="black" points="1051.5,-129.507 1048,-119.507 1044.5,-129.507 1051.5,-129.507"/>
</g>
<!-- 12 -->
<g id="node13" class="node"><title>12</title>
<path fill="#abb9ce" stroke="black" d="M1226,-118.5C1226,-118.5 1192,-118.5 1192,-118.5 1186,-118.5 1180,-112.5 1180,-106.5 1180,-106.5 1180,-94.5 1180,-94.5 1180,-88.5 1186,-82.5 1192,-82.5 1192,-82.5 1226,-82.5 1226,-82.5 1232,-82.5 1238,-88.5 1238,-94.5 1238,-94.5 1238,-106.5 1238,-106.5 1238,-112.5 1232,-118.5 1226,-118.5"/>
<text text-anchor="middle" x="1209" y="-96.8" font-family="Times,serif" font-size="14.00">identity</text>
</g>
<!-- 4&#45;&gt;12 -->
<g id="edge12" class="edge"><title>4&#45;&gt;12</title>
<path fill="none" stroke="black" d="M1102.98,-162.868C1124.52,-152.348 1149.23,-139.675 1171,-127 1172.51,-126.12 1174.04,-125.204 1175.58,-124.263"/>
<polygon fill="black" stroke="black" points="1177.78,-127.01 1184.35,-118.698 1174.03,-121.099 1177.78,-127.01"/>
</g>
<!-- 13 -->
<g id="node14" class="node"><title>13</title>
<path fill="#d3e4ff" stroke="black" d="M1527.5,-127C1527.5,-127 1268.5,-127 1268.5,-127 1262.5,-127 1256.5,-121 1256.5,-115 1256.5,-115 1256.5,-86 1256.5,-86 1256.5,-80 1262.5,-74 1268.5,-74 1268.5,-74 1527.5,-74 1527.5,-74 1533.5,-74 1539.5,-80 1539.5,-86 1539.5,-86 1539.5,-115 1539.5,-115 1539.5,-121 1533.5,-127 1527.5,-127"/>
<text text-anchor="middle" x="1398" y="-111.8" font-family="Times,serif" font-size="14.00">comp 0</text>
<text text-anchor="middle" x="1398" y="-96.8" font-family="Times,serif" font-size="14.00">log gamma1: 0.169079 &#160;&#160;log gamma2: 0.037901</text>
<text text-anchor="middle" x="1398" y="-81.8" font-family="Times,serif" font-size="14.00">n kernels: &#45;7 &#160;&#160;pooling type: &#45;1</text>
</g>
<!-- 5&#45;&gt;13 -->
<g id="edge13" class="edge"><title>5&#45;&gt;13</title>
<path fill="none" stroke="black" d="M1561.96,-162.985C1534.93,-152.849 1503.68,-141.131 1475.76,-130.661"/>
<polygon fill="black" stroke="black" points="1476.63,-127.249 1466.04,-127.015 1474.17,-133.803 1476.63,-127.249"/>
</g>
<!-- 14 -->
<g id="node15" class="node"><title>14</title>
<path fill="#bfcfe6" stroke="black" d="M1690,-119.5C1690,-119.5 1570,-119.5 1570,-119.5 1564,-119.5 1558,-113.5 1558,-107.5 1558,-107.5 1558,-93.5 1558,-93.5 1558,-87.5 1564,-81.5 1570,-81.5 1570,-81.5 1690,-81.5 1690,-81.5 1696,-81.5 1702,-87.5 1702,-93.5 1702,-93.5 1702,-107.5 1702,-107.5 1702,-113.5 1696,-119.5 1690,-119.5"/>
<text text-anchor="middle" x="1630" y="-104.3" font-family="Times,serif" font-size="14.00">comp 1</text>
<text text-anchor="middle" x="1630" y="-89.3" font-family="Times,serif" font-size="14.00">log gamma1: 0.433040</text>
</g>
<!-- 5&#45;&gt;14 -->
<g id="edge14" class="edge"><title>5&#45;&gt;14</title>
<path fill="none" stroke="black" d="M1630,-162.868C1630,-152.417 1630,-140.301 1630,-129.609"/>
<polygon fill="black" stroke="black" points="1633.5,-129.507 1630,-119.507 1626.5,-129.507 1633.5,-129.507"/>
</g>
<!-- 15 -->
<g id="node16" class="node"><title>15</title>
<path fill="#abb9ce" stroke="black" d="M1766,-118.5C1766,-118.5 1732,-118.5 1732,-118.5 1726,-118.5 1720,-112.5 1720,-106.5 1720,-106.5 1720,-94.5 1720,-94.5 1720,-88.5 1726,-82.5 1732,-82.5 1732,-82.5 1766,-82.5 1766,-82.5 1772,-82.5 1778,-88.5 1778,-94.5 1778,-94.5 1778,-106.5 1778,-106.5 1778,-112.5 1772,-118.5 1766,-118.5"/>
<text text-anchor="middle" x="1749" y="-96.8" font-family="Times,serif" font-size="14.00">identity</text>
</g>
<!-- 5&#45;&gt;15 -->
<g id="edge15" class="edge"><title>5&#45;&gt;15</title>
<path fill="none" stroke="black" d="M1665.06,-162.868C1681.49,-150.857 1700.93,-136.647 1716.96,-124.927"/>
<polygon fill="black" stroke="black" points="1719.46,-127.429 1725.47,-118.701 1715.33,-121.778 1719.46,-127.429"/>
</g>
<!-- 16 -->
<g id="node17" class="node"><title>16</title>
<path fill="#d3e4ff" stroke="black" d="M2071.5,-127C2071.5,-127 1808.5,-127 1808.5,-127 1802.5,-127 1796.5,-121 1796.5,-115 1796.5,-115 1796.5,-86 1796.5,-86 1796.5,-80 1802.5,-74 1808.5,-74 1808.5,-74 2071.5,-74 2071.5,-74 2077.5,-74 2083.5,-80 2083.5,-86 2083.5,-86 2083.5,-115 2083.5,-115 2083.5,-121 2077.5,-127 2071.5,-127"/>
<text text-anchor="middle" x="1940" y="-111.8" font-family="Times,serif" font-size="14.00">comp 0</text>
<text text-anchor="middle" x="1940" y="-96.8" font-family="Times,serif" font-size="14.00">log gamma1: 0.184011 &#160;&#160;log gamma2: &#45;0.006080</text>
<text text-anchor="middle" x="1940" y="-81.8" font-family="Times,serif" font-size="14.00">n kernels: &#45;10</text>
</g>
<!-- 6&#45;&gt;16 -->
<g id="edge16" class="edge"><title>6&#45;&gt;16</title>
<path fill="none" stroke="black" d="M2036.64,-162.868C2021.72,-153.394 2004.65,-142.553 1989.04,-132.644"/>
<polygon fill="black" stroke="black" points="1990.87,-129.656 1980.55,-127.25 1987.11,-135.565 1990.87,-129.656"/>
</g>
<!-- 17 -->
<g id="node18" class="node"><title>17</title>
<path fill="#bfcfe6" stroke="black" d="M2314,-127C2314,-127 2114,-127 2114,-127 2108,-127 2102,-121 2102,-115 2102,-115 2102,-86 2102,-86 2102,-80 2108,-74 2114,-74 2114,-74 2314,-74 2314,-74 2320,-74 2326,-80 2326,-86 2326,-86 2326,-115 2326,-115 2326,-121 2320,-127 2314,-127"/>
<text text-anchor="middle" x="2214" y="-111.8" font-family="Times,serif" font-size="14.00">comp 1</text>
<text text-anchor="middle" x="2214" y="-96.8" font-family="Times,serif" font-size="14.00">log gamma1: &#45;0.251914 &#160;&#160;n kernels: 5</text>
<text text-anchor="middle" x="2214" y="-81.8" font-family="Times,serif" font-size="14.00">pooling type: 1</text>
</g>
<!-- 6&#45;&gt;17 -->
<g id="edge17" class="edge"><title>6&#45;&gt;17</title>
<path fill="none" stroke="black" d="M2117.36,-162.868C2132.28,-153.394 2149.35,-142.553 2164.96,-132.644"/>
<polygon fill="black" stroke="black" points="2166.89,-135.565 2173.45,-127.25 2163.13,-129.656 2166.89,-135.565"/>
</g>
<!-- 18 -->
<g id="node19" class="node"><title>18</title>
<path fill="#abb9ce" stroke="black" d="M2390,-118.5C2390,-118.5 2356,-118.5 2356,-118.5 2350,-118.5 2344,-112.5 2344,-106.5 2344,-106.5 2344,-94.5 2344,-94.5 2344,-88.5 2350,-82.5 2356,-82.5 2356,-82.5 2390,-82.5 2390,-82.5 2396,-82.5 2402,-88.5 2402,-94.5 2402,-94.5 2402,-106.5 2402,-106.5 2402,-112.5 2396,-118.5 2390,-118.5"/>
<text text-anchor="middle" x="2373" y="-96.8" font-family="Times,serif" font-size="14.00">identity</text>
</g>
<!-- 6&#45;&gt;18 -->
<g id="edge18" class="edge"><title>6&#45;&gt;18</title>
<path fill="none" stroke="black" d="M2190.31,-170.593C2236.4,-160.999 2289.44,-146.938 2335,-127 2337.13,-126.068 2339.27,-125.017 2341.39,-123.885"/>
<polygon fill="black" stroke="black" points="2343.62,-126.63 2350.45,-118.529 2340.06,-120.603 2343.62,-126.63"/>
</g>
<!-- 19 -->
<g id="node20" class="node"><title>19</title>
<path fill="#f6d3ff" stroke="black" d="M163.5,-38C163.5,-38 128.5,-38 128.5,-38 122.5,-38 116.5,-32 116.5,-26 116.5,-26 116.5,-12 116.5,-12 116.5,-6 122.5,-0 128.5,-0 128.5,-0 163.5,-0 163.5,-0 169.5,-0 175.5,-6 175.5,-12 175.5,-12 175.5,-26 175.5,-26 175.5,-32 169.5,-38 163.5,-38"/>
<text text-anchor="middle" x="146" y="-22.8" font-family="Times,serif" font-size="14.00">forward</text>
<text text-anchor="middle" x="146" y="-7.8" font-family="Times,serif" font-size="14.00">input</text>
</g>
<!-- 7&#45;&gt;19 -->
<g id="edge19" class="edge"><title>7&#45;&gt;19</title>
<path fill="none" stroke="black" d="M146,-81.4602C146,-71.67 146,-59.3453 146,-48.3073"/>
<polygon fill="black" stroke="black" points="149.5,-48.2435 146,-38.2436 142.5,-48.2436 149.5,-48.2435"/>
</g>
<!-- 20 -->
<g id="node21" class="node"><title>20</title>
<path fill="#f6d3ff" stroke="black" d="M440,-38C440,-38 404,-38 404,-38 398,-38 392,-32 392,-26 392,-26 392,-12 392,-12 392,-6 398,-0 404,-0 404,-0 440,-0 440,-0 446,-0 452,-6 452,-12 452,-12 452,-26 452,-26 452,-32 446,-38 440,-38"/>
<text text-anchor="middle" x="422" y="-22.8" font-family="Times,serif" font-size="14.00">forward</text>
<text text-anchor="middle" x="422" y="-7.8" font-family="Times,serif" font-size="14.00">EB0/C0</text>
</g>
<!-- 8&#45;&gt;20 -->
<g id="edge20" class="edge"><title>8&#45;&gt;20</title>
<path fill="none" stroke="black" d="M422,-81.4602C422,-71.67 422,-59.3453 422,-48.3073"/>
<polygon fill="black" stroke="black" points="425.5,-48.2435 422,-38.2436 418.5,-48.2436 425.5,-48.2435"/>
</g>
<!-- 21 -->
<g id="node22" class="node"><title>21</title>
<path fill="#f6d3ff" stroke="black" d="M560,-38C560,-38 524,-38 524,-38 518,-38 512,-32 512,-26 512,-26 512,-12 512,-12 512,-6 518,-0 524,-0 524,-0 560,-0 560,-0 566,-0 572,-6 572,-12 572,-12 572,-26 572,-26 572,-32 566,-38 560,-38"/>
<text text-anchor="middle" x="542" y="-22.8" font-family="Times,serif" font-size="14.00">residual</text>
<text text-anchor="middle" x="542" y="-7.8" font-family="Times,serif" font-size="14.00">EB0/C0</text>
</g>
<!-- 9&#45;&gt;21 -->
<g id="edge21" class="edge"><title>9&#45;&gt;21</title>
<path fill="none" stroke="black" d="M572.538,-82.2497C567.532,-72.0459 561.079,-58.8928 555.396,-47.3078"/>
<polygon fill="black" stroke="black" points="558.399,-45.4808 550.852,-38.0444 552.114,-48.5639 558.399,-45.4808"/>
</g>
<!-- 22 -->
<g id="node23" class="node"><title>22</title>
<path fill="#debfe6" stroke="black" d="M638,-38C638,-38 602,-38 602,-38 596,-38 590,-32 590,-26 590,-26 590,-12 590,-12 590,-6 596,-0 602,-0 602,-0 638,-0 638,-0 644,-0 650,-6 650,-12 650,-12 650,-26 650,-26 650,-32 644,-38 638,-38"/>
<text text-anchor="middle" x="620" y="-22.8" font-family="Times,serif" font-size="14.00">forward</text>
<text text-anchor="middle" x="620" y="-7.8" font-family="Times,serif" font-size="14.00">EB0/C1</text>
</g>
<!-- 9&#45;&gt;22 -->
<g id="edge22" class="edge"><title>9&#45;&gt;22</title>
<path fill="none" stroke="black" d="M589.462,-82.2497C594.468,-72.0459 600.921,-58.8928 606.604,-47.3078"/>
<polygon fill="black" stroke="black" points="609.886,-48.5639 611.148,-38.0444 603.601,-45.4808 609.886,-48.5639"/>
</g>
<!-- 23 -->
<g id="node24" class="node"><title>23</title>
<path fill="#f6d3ff" stroke="black" d="M789.5,-38C789.5,-38 754.5,-38 754.5,-38 748.5,-38 742.5,-32 742.5,-26 742.5,-26 742.5,-12 742.5,-12 742.5,-6 748.5,-0 754.5,-0 754.5,-0 789.5,-0 789.5,-0 795.5,-0 801.5,-6 801.5,-12 801.5,-12 801.5,-26 801.5,-26 801.5,-32 795.5,-38 789.5,-38"/>
<text text-anchor="middle" x="772" y="-22.8" font-family="Times,serif" font-size="14.00">forward</text>
<text text-anchor="middle" x="772" y="-7.8" font-family="Times,serif" font-size="14.00">EB0/I</text>
</g>
<!-- 10&#45;&gt;23 -->
<g id="edge23" class="edge"><title>10&#45;&gt;23</title>
<path fill="none" stroke="black" d="M772,-73.9081C772,-65.7377 772,-56.6492 772,-48.2981"/>
<polygon fill="black" stroke="black" points="775.5,-48.2389 772,-38.2389 768.5,-48.2389 775.5,-48.2389"/>
</g>
<!-- 24 -->
<g id="node25" class="node"><title>24</title>
<path fill="#f6d3ff" stroke="black" d="M1066,-38C1066,-38 1030,-38 1030,-38 1024,-38 1018,-32 1018,-26 1018,-26 1018,-12 1018,-12 1018,-6 1024,-0 1030,-0 1030,-0 1066,-0 1066,-0 1072,-0 1078,-6 1078,-12 1078,-12 1078,-26 1078,-26 1078,-32 1072,-38 1066,-38"/>
<text text-anchor="middle" x="1048" y="-22.8" font-family="Times,serif" font-size="14.00">forward</text>
<text text-anchor="middle" x="1048" y="-7.8" font-family="Times,serif" font-size="14.00">EB1/C0</text>
</g>
<!-- 11&#45;&gt;24 -->
<g id="edge24" class="edge"><title>11&#45;&gt;24</title>
<path fill="none" stroke="black" d="M1048,-81.4602C1048,-71.67 1048,-59.3453 1048,-48.3073"/>
<polygon fill="black" stroke="black" points="1051.5,-48.2435 1048,-38.2436 1044.5,-48.2436 1051.5,-48.2435"/>
</g>
<!-- 25 -->
<g id="node26" class="node"><title>25</title>
<path fill="#f6d3ff" stroke="black" d="M1167,-38C1167,-38 1131,-38 1131,-38 1125,-38 1119,-32 1119,-26 1119,-26 1119,-12 1119,-12 1119,-6 1125,-0 1131,-0 1131,-0 1167,-0 1167,-0 1173,-0 1179,-6 1179,-12 1179,-12 1179,-26 1179,-26 1179,-32 1173,-38 1167,-38"/>
<text text-anchor="middle" x="1149" y="-22.8" font-family="Times,serif" font-size="14.00">residual</text>
<text text-anchor="middle" x="1149" y="-7.8" font-family="Times,serif" font-size="14.00">EB1/C0</text>
</g>
<!-- 12&#45;&gt;25 -->
<g id="edge25" class="edge"><title>12&#45;&gt;25</title>
<path fill="none" stroke="black" d="M1195.98,-82.2497C1188.05,-71.7398 1177.76,-58.101 1168.83,-46.2695"/>
<polygon fill="black" stroke="black" points="1171.44,-43.9179 1162.62,-38.0444 1165.85,-48.1348 1171.44,-43.9179"/>
</g>
<!-- 26 -->
<g id="node27" class="node"><title>26</title>
<path fill="#debfe6" stroke="black" d="M1245,-38C1245,-38 1209,-38 1209,-38 1203,-38 1197,-32 1197,-26 1197,-26 1197,-12 1197,-12 1197,-6 1203,-0 1209,-0 1209,-0 1245,-0 1245,-0 1251,-0 1257,-6 1257,-12 1257,-12 1257,-26 1257,-26 1257,-32 1251,-38 1245,-38"/>
<text text-anchor="middle" x="1227" y="-22.8" font-family="Times,serif" font-size="14.00">forward</text>
<text text-anchor="middle" x="1227" y="-7.8" font-family="Times,serif" font-size="14.00">EB1/C1</text>
</g>
<!-- 12&#45;&gt;26 -->
<g id="edge26" class="edge"><title>12&#45;&gt;26</title>
<path fill="none" stroke="black" d="M1212.91,-82.2497C1215.17,-72.25 1218.08,-59.4178 1220.66,-48.0048"/>
<polygon fill="black" stroke="black" points="1224.12,-48.5705 1222.91,-38.0444 1217.29,-47.0247 1224.12,-48.5705"/>
</g>
<!-- 27 -->
<g id="node28" class="node"><title>27</title>
<path fill="#f6d3ff" stroke="black" d="M1377.5,-38C1377.5,-38 1342.5,-38 1342.5,-38 1336.5,-38 1330.5,-32 1330.5,-26 1330.5,-26 1330.5,-12 1330.5,-12 1330.5,-6 1336.5,-0 1342.5,-0 1342.5,-0 1377.5,-0 1377.5,-0 1383.5,-0 1389.5,-6 1389.5,-12 1389.5,-12 1389.5,-26 1389.5,-26 1389.5,-32 1383.5,-38 1377.5,-38"/>
<text text-anchor="middle" x="1360" y="-22.8" font-family="Times,serif" font-size="14.00">forward</text>
<text text-anchor="middle" x="1360" y="-7.8" font-family="Times,serif" font-size="14.00">EB1/I</text>
</g>
<!-- 13&#45;&gt;27 -->
<g id="edge27" class="edge"><title>13&#45;&gt;27</title>
<path fill="none" stroke="black" d="M1385.77,-73.9081C1381.73,-65.4653 1377.23,-56.0423 1373.13,-47.4655"/>
<polygon fill="black" stroke="black" points="1376.19,-45.7518 1368.72,-38.2389 1369.87,-48.7706 1376.19,-45.7518"/>
</g>
<!-- 28 -->
<g id="node29" class="node"><title>28</title>
<path fill="#debfe6" stroke="black" d="M1450,-38C1450,-38 1420,-38 1420,-38 1414,-38 1408,-32 1408,-26 1408,-26 1408,-12 1408,-12 1408,-6 1414,-0 1420,-0 1420,-0 1450,-0 1450,-0 1456,-0 1462,-6 1462,-12 1462,-12 1462,-26 1462,-26 1462,-32 1456,-38 1450,-38"/>
<text text-anchor="middle" x="1435" y="-22.8" font-family="Times,serif" font-size="14.00">merge</text>
<text text-anchor="middle" x="1435" y="-7.8" font-family="Times,serif" font-size="14.00">EB1/I</text>
</g>
<!-- 13&#45;&gt;28 -->
<g id="edge28" class="edge"><title>13&#45;&gt;28</title>
<path fill="none" stroke="black" d="M1409.91,-73.9081C1413.84,-65.4653 1418.23,-56.0423 1422.22,-47.4655"/>
<polygon fill="black" stroke="black" points="1425.47,-48.782 1426.51,-38.2389 1419.12,-45.8283 1425.47,-48.782"/>
</g>
<!-- 29 -->
<g id="node30" class="node"><title>29</title>
<path fill="#f6d3ff" stroke="black" d="M1649,-38C1649,-38 1611,-38 1611,-38 1605,-38 1599,-32 1599,-26 1599,-26 1599,-12 1599,-12 1599,-6 1605,-0 1611,-0 1611,-0 1649,-0 1649,-0 1655,-0 1661,-6 1661,-12 1661,-12 1661,-26 1661,-26 1661,-32 1655,-38 1649,-38"/>
<text text-anchor="middle" x="1630" y="-22.8" font-family="Times,serif" font-size="14.00">forward</text>
<text text-anchor="middle" x="1630" y="-7.8" font-family="Times,serif" font-size="14.00">DB1/C0</text>
</g>
<!-- 14&#45;&gt;29 -->
<g id="edge29" class="edge"><title>14&#45;&gt;29</title>
<path fill="none" stroke="black" d="M1630,-81.4602C1630,-71.67 1630,-59.3453 1630,-48.3073"/>
<polygon fill="black" stroke="black" points="1633.5,-48.2435 1630,-38.2436 1626.5,-48.2436 1633.5,-48.2435"/>
</g>
<!-- 30 -->
<g id="node31" class="node"><title>30</title>
<path fill="#f6d3ff" stroke="black" d="M1747,-38C1747,-38 1709,-38 1709,-38 1703,-38 1697,-32 1697,-26 1697,-26 1697,-12 1697,-12 1697,-6 1703,-0 1709,-0 1709,-0 1747,-0 1747,-0 1753,-0 1759,-6 1759,-12 1759,-12 1759,-26 1759,-26 1759,-32 1753,-38 1747,-38"/>
<text text-anchor="middle" x="1728" y="-22.8" font-family="Times,serif" font-size="14.00">residual</text>
<text text-anchor="middle" x="1728" y="-7.8" font-family="Times,serif" font-size="14.00">DB1/C0</text>
</g>
<!-- 15&#45;&gt;30 -->
<g id="edge30" class="edge"><title>15&#45;&gt;30</title>
<path fill="none" stroke="black" d="M1744.44,-82.2497C1741.8,-72.25 1738.41,-59.4178 1735.4,-48.0048"/>
<polygon fill="black" stroke="black" points="1738.7,-46.8189 1732.77,-38.0444 1731.94,-48.6067 1738.7,-46.8189"/>
</g>
<!-- 31 -->
<g id="node32" class="node"><title>31</title>
<path fill="#debfe6" stroke="black" d="M1827,-38C1827,-38 1789,-38 1789,-38 1783,-38 1777,-32 1777,-26 1777,-26 1777,-12 1777,-12 1777,-6 1783,-0 1789,-0 1789,-0 1827,-0 1827,-0 1833,-0 1839,-6 1839,-12 1839,-12 1839,-26 1839,-26 1839,-32 1833,-38 1827,-38"/>
<text text-anchor="middle" x="1808" y="-22.8" font-family="Times,serif" font-size="14.00">forward</text>
<text text-anchor="middle" x="1808" y="-7.8" font-family="Times,serif" font-size="14.00">DB1/C1</text>
</g>
<!-- 15&#45;&gt;31 -->
<g id="edge31" class="edge"><title>15&#45;&gt;31</title>
<path fill="none" stroke="black" d="M1761.8,-82.2497C1769.6,-71.7398 1779.72,-58.101 1788.5,-46.2695"/>
<polygon fill="black" stroke="black" points="1791.46,-48.1605 1794.61,-38.0444 1785.84,-43.9888 1791.46,-48.1605"/>
</g>
<!-- 32 -->
<g id="node33" class="node"><title>32</title>
<path fill="#f6d3ff" stroke="black" d="M1939.5,-38C1939.5,-38 1904.5,-38 1904.5,-38 1898.5,-38 1892.5,-32 1892.5,-26 1892.5,-26 1892.5,-12 1892.5,-12 1892.5,-6 1898.5,-0 1904.5,-0 1904.5,-0 1939.5,-0 1939.5,-0 1945.5,-0 1951.5,-6 1951.5,-12 1951.5,-12 1951.5,-26 1951.5,-26 1951.5,-32 1945.5,-38 1939.5,-38"/>
<text text-anchor="middle" x="1922" y="-22.8" font-family="Times,serif" font-size="14.00">forward</text>
<text text-anchor="middle" x="1922" y="-7.8" font-family="Times,serif" font-size="14.00">DB1/I</text>
</g>
<!-- 16&#45;&gt;32 -->
<g id="edge32" class="edge"><title>16&#45;&gt;32</title>
<path fill="none" stroke="black" d="M1934.21,-73.9081C1932.34,-65.6469 1930.25,-56.4471 1928.34,-48.02"/>
<polygon fill="black" stroke="black" points="1931.75,-47.2191 1926.13,-38.2389 1924.92,-48.765 1931.75,-47.2191"/>
</g>
<!-- 33 -->
<g id="node34" class="node"><title>33</title>
<path fill="#debfe6" stroke="black" d="M2012,-38C2012,-38 1982,-38 1982,-38 1976,-38 1970,-32 1970,-26 1970,-26 1970,-12 1970,-12 1970,-6 1976,-0 1982,-0 1982,-0 2012,-0 2012,-0 2018,-0 2024,-6 2024,-12 2024,-12 2024,-26 2024,-26 2024,-32 2018,-38 2012,-38"/>
<text text-anchor="middle" x="1997" y="-22.8" font-family="Times,serif" font-size="14.00">merge</text>
<text text-anchor="middle" x="1997" y="-7.8" font-family="Times,serif" font-size="14.00">EB0/I</text>
</g>
<!-- 16&#45;&gt;33 -->
<g id="edge33" class="edge"><title>16&#45;&gt;33</title>
<path fill="none" stroke="black" d="M1958.35,-73.9081C1964.6,-65.193 1971.59,-55.4333 1977.9,-46.6382"/>
<polygon fill="black" stroke="black" points="1980.94,-48.4053 1983.92,-38.2389 1975.25,-44.3265 1980.94,-48.4053"/>
</g>
<!-- 34 -->
<g id="node35" class="node"><title>34</title>
<path fill="#f6d3ff" stroke="black" d="M2233,-38C2233,-38 2195,-38 2195,-38 2189,-38 2183,-32 2183,-26 2183,-26 2183,-12 2183,-12 2183,-6 2189,-0 2195,-0 2195,-0 2233,-0 2233,-0 2239,-0 2245,-6 2245,-12 2245,-12 2245,-26 2245,-26 2245,-32 2239,-38 2233,-38"/>
<text text-anchor="middle" x="2214" y="-22.8" font-family="Times,serif" font-size="14.00">forward</text>
<text text-anchor="middle" x="2214" y="-7.8" font-family="Times,serif" font-size="14.00">DB0/C0</text>
</g>
<!-- 17&#45;&gt;34 -->
<g id="edge34" class="edge"><title>17&#45;&gt;34</title>
<path fill="none" stroke="black" d="M2214,-73.9081C2214,-65.7377 2214,-56.6492 2214,-48.2981"/>
<polygon fill="black" stroke="black" points="2217.5,-48.2389 2214,-38.2389 2210.5,-48.2389 2217.5,-48.2389"/>
</g>
<!-- 35 -->
<g id="node36" class="node"><title>35</title>
<path fill="#f6d3ff" stroke="black" d="M2352,-38C2352,-38 2314,-38 2314,-38 2308,-38 2302,-32 2302,-26 2302,-26 2302,-12 2302,-12 2302,-6 2308,-0 2314,-0 2314,-0 2352,-0 2352,-0 2358,-0 2364,-6 2364,-12 2364,-12 2364,-26 2364,-26 2364,-32 2358,-38 2352,-38"/>
<text text-anchor="middle" x="2333" y="-22.8" font-family="Times,serif" font-size="14.00">residual</text>
<text text-anchor="middle" x="2333" y="-7.8" font-family="Times,serif" font-size="14.00">DB0/C0</text>
</g>
<!-- 18&#45;&gt;35 -->
<g id="edge35" class="edge"><title>18&#45;&gt;35</title>
<path fill="none" stroke="black" d="M2364.32,-82.2497C2359.19,-72.0459 2352.57,-58.8928 2346.74,-47.3078"/>
<polygon fill="black" stroke="black" points="2349.7,-45.4043 2342.08,-38.0444 2343.45,-48.5506 2349.7,-45.4043"/>
</g>
<!-- 36 -->
<g id="node37" class="node"><title>36</title>
<path fill="#debfe6" stroke="black" d="M2432,-38C2432,-38 2394,-38 2394,-38 2388,-38 2382,-32 2382,-26 2382,-26 2382,-12 2382,-12 2382,-6 2388,-0 2394,-0 2394,-0 2432,-0 2432,-0 2438,-0 2444,-6 2444,-12 2444,-12 2444,-26 2444,-26 2444,-32 2438,-38 2432,-38"/>
<text text-anchor="middle" x="2413" y="-22.8" font-family="Times,serif" font-size="14.00">forward</text>
<text text-anchor="middle" x="2413" y="-7.8" font-family="Times,serif" font-size="14.00">DB0/C1</text>
</g>
<!-- 18&#45;&gt;36 -->
<g id="edge36" class="edge"><title>18&#45;&gt;36</title>
<path fill="none" stroke="black" d="M2381.68,-82.2497C2386.81,-72.0459 2393.43,-58.8928 2399.26,-47.3078"/>
<polygon fill="black" stroke="black" points="2402.55,-48.5506 2403.92,-38.0444 2396.3,-45.4043 2402.55,-48.5506"/>
</g>
</g>
</svg>
