<?xml version="1.0" encoding="UTF-8" standalone="no"?>
<!DOCTYPE svg PUBLIC "-//W3C//DTD SVG 1.1//EN"
 "http://www.w3.org/Graphics/SVG/1.1/DTD/svg11.dtd">
<!-- Generated by graphviz version 2.38.0 (20140413.2041)
 -->
<!-- Title: %3 Pages: 1 -->
<svg width="4835pt" height="432pt"
 viewBox="0.00 0.00 4835.00 432.00" xmlns="http://www.w3.org/2000/svg" xmlns:xlink="http://www.w3.org/1999/xlink">
<g id="graph0" class="graph" transform="scale(1 1) rotate(0) translate(4 428)">
<title>%3</title>
<polygon fill="none" stroke="none" points="-4,4 -4,-428 4831,-428 4831,4 -4,4"/>
<!-- 0 -->
<g id="node1" class="node"><title>0</title>
<path fill="#ffd3d3" stroke="black" d="M2306.5,-424C2306.5,-424 2026.5,-424 2026.5,-424 2020.5,-424 2014.5,-418 2014.5,-412 2014.5,-412 2014.5,-383 2014.5,-383 2014.5,-377 2020.5,-371 2026.5,-371 2026.5,-371 2306.5,-371 2306.5,-371 2312.5,-371 2318.5,-377 2318.5,-383 2318.5,-383 2318.5,-412 2318.5,-412 2318.5,-418 2312.5,-424 2306.5,-424"/>
<text text-anchor="middle" x="2166.5" y="-408.8" font-family="Times,serif" font-size="14.00">net</text>
<text text-anchor="middle" x="2166.5" y="-393.8" font-family="Times,serif" font-size="14.00">log lambda1: &#45;11.000000 &#160;&#160;log lambda2: &#45;11.000000</text>
<text text-anchor="middle" x="2166.5" y="-378.8" font-family="Times,serif" font-size="14.00">n kernels: 71 &#160;&#160;pooling type: 0</text>
</g>
<!-- 1 -->
<g id="node2" class="node"><title>1</title>
<path fill="#f6ffd3" stroke="black" d="M1669,-335C1669,-335 1544,-335 1544,-335 1538,-335 1532,-329 1532,-323 1532,-323 1532,-309 1532,-309 1532,-303 1538,-297 1544,-297 1544,-297 1669,-297 1669,-297 1675,-297 1681,-303 1681,-309 1681,-309 1681,-323 1681,-323 1681,-329 1675,-335 1669,-335"/>
<text text-anchor="middle" x="1606.5" y="-319.8" font-family="Times,serif" font-size="14.00">encoder</text>
<text text-anchor="middle" x="1606.5" y="-304.8" font-family="Times,serif" font-size="14.00">log gamma1: &#45;0.729278</text>
</g>
<!-- 0&#45;&gt;1 -->
<g id="edge1" class="edge"><title>0&#45;&gt;1</title>
<path fill="none" stroke="black" d="M2014.22,-374.881C1910.32,-360.131 1776.56,-341.142 1691.14,-329.016"/>
<polygon fill="black" stroke="black" points="1691.62,-325.549 1681.23,-327.609 1690.64,-332.48 1691.62,-325.549"/>
</g>
<!-- 2 -->
<g id="node3" class="node"><title>2</title>
<path fill="#f6ffd3" stroke="black" d="M2925,-334C2925,-334 2890,-334 2890,-334 2884,-334 2878,-328 2878,-322 2878,-322 2878,-310 2878,-310 2878,-304 2884,-298 2890,-298 2890,-298 2925,-298 2925,-298 2931,-298 2937,-304 2937,-310 2937,-310 2937,-322 2937,-322 2937,-328 2931,-334 2925,-334"/>
<text text-anchor="middle" x="2907.5" y="-312.3" font-family="Times,serif" font-size="14.00">decoder</text>
</g>
<!-- 0&#45;&gt;2 -->
<g id="edge2" class="edge"><title>0&#45;&gt;2</title>
<path fill="none" stroke="black" d="M2318.69,-380.172C2492.54,-361.52 2766.09,-332.172 2867.73,-321.267"/>
<polygon fill="black" stroke="black" points="2868.3,-324.726 2877.87,-320.179 2867.55,-317.766 2868.3,-324.726"/>
</g>
<!-- 3 -->
<g id="node4" class="node"><title>3</title>
<path fill="#d3ffe4" stroke="black" d="M928,-261C928,-261 669,-261 669,-261 663,-261 657,-255 657,-249 657,-249 657,-220 657,-220 657,-214 663,-208 669,-208 669,-208 928,-208 928,-208 934,-208 940,-214 940,-220 940,-220 940,-249 940,-249 940,-255 934,-261 928,-261"/>
<text text-anchor="middle" x="798.5" y="-245.8" font-family="Times,serif" font-size="14.00">encode block 0</text>
<text text-anchor="middle" x="798.5" y="-230.8" font-family="Times,serif" font-size="14.00">log gamma1: 0.255940 &#160;&#160;log gamma2: 0.884948</text>
<text text-anchor="middle" x="798.5" y="-215.8" font-family="Times,serif" font-size="14.00">n kernels: &#45;6</text>
</g>
<!-- 1&#45;&gt;3 -->
<g id="edge3" class="edge"><title>1&#45;&gt;3</title>
<path fill="none" stroke="black" d="M1531.93,-307.663C1400.1,-294.692 1123.45,-267.472 950.142,-250.42"/>
<polygon fill="black" stroke="black" points="950.462,-246.935 940.167,-249.439 949.777,-253.901 950.462,-246.935"/>
</g>
<!-- 4 -->
<g id="node5" class="node"><title>4</title>
<path fill="#bfe6cf" stroke="black" d="M1709.5,-261C1709.5,-261 1503.5,-261 1503.5,-261 1497.5,-261 1491.5,-255 1491.5,-249 1491.5,-249 1491.5,-220 1491.5,-220 1491.5,-214 1497.5,-208 1503.5,-208 1503.5,-208 1709.5,-208 1709.5,-208 1715.5,-208 1721.5,-214 1721.5,-220 1721.5,-220 1721.5,-249 1721.5,-249 1721.5,-255 1715.5,-261 1709.5,-261"/>
<text text-anchor="middle" x="1606.5" y="-245.8" font-family="Times,serif" font-size="14.00">encode block 1</text>
<text text-anchor="middle" x="1606.5" y="-230.8" font-family="Times,serif" font-size="14.00">log gamma1: &#45;0.005562 &#160;&#160;n kernels: 71</text>
<text text-anchor="middle" x="1606.5" y="-215.8" font-family="Times,serif" font-size="14.00">spatial scale: 1</text>
</g>
<!-- 1&#45;&gt;4 -->
<g id="edge4" class="edge"><title>1&#45;&gt;4</title>
<path fill="none" stroke="black" d="M1606.5,-296.96C1606.5,-289.321 1606.5,-280.139 1606.5,-271.229"/>
<polygon fill="black" stroke="black" points="1610,-271.003 1606.5,-261.003 1603,-271.003 1610,-271.003"/>
</g>
<!-- 5 -->
<g id="node6" class="node"><title>5</title>
<path fill="#d3ffe4" stroke="black" d="M2705.5,-261C2705.5,-261 2501.5,-261 2501.5,-261 2495.5,-261 2489.5,-255 2489.5,-249 2489.5,-249 2489.5,-220 2489.5,-220 2489.5,-214 2495.5,-208 2501.5,-208 2501.5,-208 2705.5,-208 2705.5,-208 2711.5,-208 2717.5,-214 2717.5,-220 2717.5,-220 2717.5,-249 2717.5,-249 2717.5,-255 2711.5,-261 2705.5,-261"/>
<text text-anchor="middle" x="2603.5" y="-245.8" font-family="Times,serif" font-size="14.00">decode block 2</text>
<text text-anchor="middle" x="2603.5" y="-230.8" font-family="Times,serif" font-size="14.00">log gamma2: &#45;0.139886 &#160;&#160;n kernels: &#45;1</text>
<text text-anchor="middle" x="2603.5" y="-215.8" font-family="Times,serif" font-size="14.00">spatial scale: 2</text>
</g>
<!-- 2&#45;&gt;5 -->
<g id="edge5" class="edge"><title>2&#45;&gt;5</title>
<path fill="none" stroke="black" d="M2877.8,-307.232C2839.3,-297.166 2770.09,-279.065 2710.82,-263.565"/>
<polygon fill="black" stroke="black" points="2711.58,-260.147 2701.02,-261.003 2709.81,-266.919 2711.58,-260.147"/>
</g>
<!-- 6 -->
<g id="node7" class="node"><title>6</title>
<path fill="#bfe6cf" stroke="black" d="M3162.5,-261C3162.5,-261 2956.5,-261 2956.5,-261 2950.5,-261 2944.5,-255 2944.5,-249 2944.5,-249 2944.5,-220 2944.5,-220 2944.5,-214 2950.5,-208 2956.5,-208 2956.5,-208 3162.5,-208 3162.5,-208 3168.5,-208 3174.5,-214 3174.5,-220 3174.5,-220 3174.5,-249 3174.5,-249 3174.5,-255 3168.5,-261 3162.5,-261"/>
<text text-anchor="middle" x="3059.5" y="-245.8" font-family="Times,serif" font-size="14.00">decode block 1</text>
<text text-anchor="middle" x="3059.5" y="-230.8" font-family="Times,serif" font-size="14.00">log gamma1: 1.708758 &#160;&#160;n kernels: &#45;11</text>
<text text-anchor="middle" x="3059.5" y="-215.8" font-family="Times,serif" font-size="14.00">spatial scale: 1</text>
</g>
<!-- 2&#45;&gt;6 -->
<g id="edge6" class="edge"><title>2&#45;&gt;6</title>
<path fill="none" stroke="black" d="M2937.17,-299.483C2955.47,-289.911 2979.56,-277.309 3001.53,-265.821"/>
<polygon fill="black" stroke="black" points="3003.22,-268.883 3010.46,-261.147 2999.98,-262.68 3003.22,-268.883"/>
</g>
<!-- 7 -->
<g id="node8" class="node"><title>7</title>
<path fill="#abceb9" stroke="black" d="M4209.5,-253.5C4209.5,-253.5 4089.5,-253.5 4089.5,-253.5 4083.5,-253.5 4077.5,-247.5 4077.5,-241.5 4077.5,-241.5 4077.5,-227.5 4077.5,-227.5 4077.5,-221.5 4083.5,-215.5 4089.5,-215.5 4089.5,-215.5 4209.5,-215.5 4209.5,-215.5 4215.5,-215.5 4221.5,-221.5 4221.5,-227.5 4221.5,-227.5 4221.5,-241.5 4221.5,-241.5 4221.5,-247.5 4215.5,-253.5 4209.5,-253.5"/>
<text text-anchor="middle" x="4149.5" y="-238.3" font-family="Times,serif" font-size="14.00">decode block 0</text>
<text text-anchor="middle" x="4149.5" y="-223.3" font-family="Times,serif" font-size="14.00">log gamma1: 0.606298</text>
</g>
<!-- 2&#45;&gt;7 -->
<g id="edge7" class="edge"><title>2&#45;&gt;7</title>
<path fill="none" stroke="black" d="M2937.28,-313.094C3093.47,-303.096 3820.25,-256.575 4067.16,-240.77"/>
<polygon fill="black" stroke="black" points="4067.39,-244.263 4077.15,-240.131 4066.95,-237.277 4067.39,-244.263"/>
</g>
<!-- 8 -->
<g id="node9" class="node"><title>8</title>
<path fill="#d3e4ff" stroke="black" d="M356.5,-172C356.5,-172 154.5,-172 154.5,-172 148.5,-172 142.5,-166 142.5,-160 142.5,-160 142.5,-146 142.5,-146 142.5,-140 148.5,-134 154.5,-134 154.5,-134 356.5,-134 356.5,-134 362.5,-134 368.5,-140 368.5,-146 368.5,-146 368.5,-160 368.5,-160 368.5,-166 362.5,-172 356.5,-172"/>
<text text-anchor="middle" x="255.5" y="-156.8" font-family="Times,serif" font-size="14.00">comp 0</text>
<text text-anchor="middle" x="255.5" y="-141.8" font-family="Times,serif" font-size="14.00">log gamma1: 1.782941 &#160;&#160;n kernels: 17</text>
</g>
<!-- 3&#45;&gt;8 -->
<g id="edge8" class="edge"><title>3&#45;&gt;8</title>
<path fill="none" stroke="black" d="M656.897,-212.768C570.536,-200.124 461.235,-184.121 378.504,-172.009"/>
<polygon fill="black" stroke="black" points="378.951,-168.537 368.55,-170.551 377.937,-175.463 378.951,-168.537"/>
</g>
<!-- 9 -->
<g id="node10" class="node"><title>9</title>
<path fill="#bfcfe6" stroke="black" d="M568.5,-172C568.5,-172 500.5,-172 500.5,-172 494.5,-172 488.5,-166 488.5,-160 488.5,-160 488.5,-146 488.5,-146 488.5,-140 494.5,-134 500.5,-134 500.5,-134 568.5,-134 568.5,-134 574.5,-134 580.5,-140 580.5,-146 580.5,-146 580.5,-160 580.5,-160 580.5,-166 574.5,-172 568.5,-172"/>
<text text-anchor="middle" x="534.5" y="-156.8" font-family="Times,serif" font-size="14.00">comp 1</text>
<text text-anchor="middle" x="534.5" y="-141.8" font-family="Times,serif" font-size="14.00">n kernels: &#45;19</text>
</g>
<!-- 3&#45;&gt;9 -->
<g id="edge9" class="edge"><title>3&#45;&gt;9</title>
<path fill="none" stroke="black" d="M713.516,-207.908C673.284,-195.793 626.349,-181.659 590.634,-170.904"/>
<polygon fill="black" stroke="black" points="591.457,-167.497 580.872,-167.964 589.439,-174.199 591.457,-167.497"/>
</g>
<!-- 10 -->
<g id="node11" class="node"><title>10</title>
<path fill="#abb9ce" stroke="black" d="M928,-172C928,-172 669,-172 669,-172 663,-172 657,-166 657,-160 657,-160 657,-146 657,-146 657,-140 663,-134 669,-134 669,-134 928,-134 928,-134 934,-134 940,-140 940,-146 940,-146 940,-160 940,-160 940,-166 934,-172 928,-172"/>
<text text-anchor="middle" x="798.5" y="-156.8" font-family="Times,serif" font-size="14.00">comp 2</text>
<text text-anchor="middle" x="798.5" y="-141.8" font-family="Times,serif" font-size="14.00">log gamma1: 0.778836 &#160;&#160;log gamma2: 0.776944</text>
</g>
<!-- 3&#45;&gt;10 -->
<g id="edge10" class="edge"><title>3&#45;&gt;10</title>
<path fill="none" stroke="black" d="M798.5,-207.908C798.5,-199.738 798.5,-190.649 798.5,-182.298"/>
<polygon fill="black" stroke="black" points="802,-182.239 798.5,-172.239 795,-182.239 802,-182.239"/>
</g>
<!-- 11 -->
<g id="node12" class="node"><title>11</title>
<path fill="#97a3b6" stroke="black" d="M1071.5,-171C1071.5,-171 1037.5,-171 1037.5,-171 1031.5,-171 1025.5,-165 1025.5,-159 1025.5,-159 1025.5,-147 1025.5,-147 1025.5,-141 1031.5,-135 1037.5,-135 1037.5,-135 1071.5,-135 1071.5,-135 1077.5,-135 1083.5,-141 1083.5,-147 1083.5,-147 1083.5,-159 1083.5,-159 1083.5,-165 1077.5,-171 1071.5,-171"/>
<text text-anchor="middle" x="1054.5" y="-149.3" font-family="Times,serif" font-size="14.00">comp 3</text>
</g>
<!-- 3&#45;&gt;11 -->
<g id="edge11" class="edge"><title>3&#45;&gt;11</title>
<path fill="none" stroke="black" d="M880.909,-207.908C926.008,-193.903 979.792,-177.2 1015.42,-166.138"/>
<polygon fill="black" stroke="black" points="1016.9,-169.343 1025.41,-163.034 1014.82,-162.658 1016.9,-169.343"/>
</g>
<!-- 12 -->
<g id="node13" class="node"><title>12</title>
<path fill="#d3e4ff" stroke="black" d="M1534.5,-172C1534.5,-172 1414.5,-172 1414.5,-172 1408.5,-172 1402.5,-166 1402.5,-160 1402.5,-160 1402.5,-146 1402.5,-146 1402.5,-140 1408.5,-134 1414.5,-134 1414.5,-134 1534.5,-134 1534.5,-134 1540.5,-134 1546.5,-140 1546.5,-146 1546.5,-146 1546.5,-160 1546.5,-160 1546.5,-166 1540.5,-172 1534.5,-172"/>
<text text-anchor="middle" x="1474.5" y="-156.8" font-family="Times,serif" font-size="14.00">comp 0</text>
<text text-anchor="middle" x="1474.5" y="-141.8" font-family="Times,serif" font-size="14.00">log gamma1: 1.663867</text>
</g>
<!-- 4&#45;&gt;12 -->
<g id="edge12" class="edge"><title>4&#45;&gt;12</title>
<path fill="none" stroke="black" d="M1564.01,-207.908C1547.88,-198.194 1529.6,-187.183 1513.78,-177.656"/>
<polygon fill="black" stroke="black" points="1515.16,-174.4 1504.78,-172.239 1511.54,-180.396 1515.16,-174.4"/>
</g>
<!-- 13 -->
<g id="node14" class="node"><title>13</title>
<path fill="#bfcfe6" stroke="black" d="M1841.5,-172C1841.5,-172 1635.5,-172 1635.5,-172 1629.5,-172 1623.5,-166 1623.5,-160 1623.5,-160 1623.5,-146 1623.5,-146 1623.5,-140 1629.5,-134 1635.5,-134 1635.5,-134 1841.5,-134 1841.5,-134 1847.5,-134 1853.5,-140 1853.5,-146 1853.5,-146 1853.5,-160 1853.5,-160 1853.5,-166 1847.5,-172 1841.5,-172"/>
<text text-anchor="middle" x="1738.5" y="-156.8" font-family="Times,serif" font-size="14.00">comp 1</text>
<text text-anchor="middle" x="1738.5" y="-141.8" font-family="Times,serif" font-size="14.00">log gamma1: 1.509370 &#160;&#160;n kernels: &#45;14</text>
</g>
<!-- 4&#45;&gt;13 -->
<g id="edge13" class="edge"><title>4&#45;&gt;13</title>
<path fill="none" stroke="black" d="M1648.99,-207.908C1665.12,-198.194 1683.4,-187.183 1699.22,-177.656"/>
<polygon fill="black" stroke="black" points="1701.46,-180.396 1708.22,-172.239 1697.84,-174.4 1701.46,-180.396"/>
</g>
<!-- 14 -->
<g id="node15" class="node"><title>14</title>
<path fill="#d3e4ff" stroke="black" d="M2302.5,-172C2302.5,-172 2182.5,-172 2182.5,-172 2176.5,-172 2170.5,-166 2170.5,-160 2170.5,-160 2170.5,-146 2170.5,-146 2170.5,-140 2176.5,-134 2182.5,-134 2182.5,-134 2302.5,-134 2302.5,-134 2308.5,-134 2314.5,-140 2314.5,-146 2314.5,-146 2314.5,-160 2314.5,-160 2314.5,-166 2308.5,-172 2302.5,-172"/>
<text text-anchor="middle" x="2242.5" y="-156.8" font-family="Times,serif" font-size="14.00">comp 0</text>
<text text-anchor="middle" x="2242.5" y="-141.8" font-family="Times,serif" font-size="14.00">log gamma2: 1.438054</text>
</g>
<!-- 5&#45;&gt;14 -->
<g id="edge14" class="edge"><title>5&#45;&gt;14</title>
<path fill="none" stroke="black" d="M2489.28,-208.346C2435.75,-196.557 2373.18,-182.779 2324.45,-172.046"/>
<polygon fill="black" stroke="black" points="2325.1,-168.606 2314.58,-169.873 2323.59,-175.442 2325.1,-168.606"/>
</g>
<!-- 15 -->
<g id="node16" class="node"><title>15</title>
<path fill="#d3e4ff" stroke="black" d="M2753.5,-171C2753.5,-171 2719.5,-171 2719.5,-171 2713.5,-171 2707.5,-165 2707.5,-159 2707.5,-159 2707.5,-147 2707.5,-147 2707.5,-141 2713.5,-135 2719.5,-135 2719.5,-135 2753.5,-135 2753.5,-135 2759.5,-135 2765.5,-141 2765.5,-147 2765.5,-147 2765.5,-159 2765.5,-159 2765.5,-165 2759.5,-171 2753.5,-171"/>
<text text-anchor="middle" x="2736.5" y="-149.3" font-family="Times,serif" font-size="14.00">comp 0</text>
</g>
<!-- 6&#45;&gt;15 -->
<g id="edge15" class="edge"><title>6&#45;&gt;15</title>
<path fill="none" stroke="black" d="M2955.52,-207.908C2894.1,-192.79 2819.91,-174.529 2775.55,-163.612"/>
<polygon fill="black" stroke="black" points="2776.3,-160.191 2765.75,-161.199 2774.62,-166.988 2776.3,-160.191"/>
</g>
<!-- 16 -->
<g id="node17" class="node"><title>16</title>
<path fill="#bfcfe6" stroke="black" d="M3076.5,-171C3076.5,-171 3042.5,-171 3042.5,-171 3036.5,-171 3030.5,-165 3030.5,-159 3030.5,-159 3030.5,-147 3030.5,-147 3030.5,-141 3036.5,-135 3042.5,-135 3042.5,-135 3076.5,-135 3076.5,-135 3082.5,-135 3088.5,-141 3088.5,-147 3088.5,-147 3088.5,-159 3088.5,-159 3088.5,-165 3082.5,-171 3076.5,-171"/>
<text text-anchor="middle" x="3059.5" y="-149.3" font-family="Times,serif" font-size="14.00">comp 1</text>
</g>
<!-- 6&#45;&gt;16 -->
<g id="edge16" class="edge"><title>6&#45;&gt;16</title>
<path fill="none" stroke="black" d="M3059.5,-207.908C3059.5,-199.482 3059.5,-190.08 3059.5,-181.517"/>
<polygon fill="black" stroke="black" points="3063,-181.256 3059.5,-171.256 3056,-181.256 3063,-181.256"/>
</g>
<!-- 17 -->
<g id="node18" class="node"><title>17</title>
<path fill="#abb9ce" stroke="black" d="M3444,-172C3444,-172 3181,-172 3181,-172 3175,-172 3169,-166 3169,-160 3169,-160 3169,-146 3169,-146 3169,-140 3175,-134 3181,-134 3181,-134 3444,-134 3444,-134 3450,-134 3456,-140 3456,-146 3456,-146 3456,-160 3456,-160 3456,-166 3450,-172 3444,-172"/>
<text text-anchor="middle" x="3312.5" y="-156.8" font-family="Times,serif" font-size="14.00">comp 2</text>
<text text-anchor="middle" x="3312.5" y="-141.8" font-family="Times,serif" font-size="14.00">log gamma1: 1.542713 &#160;&#160;log gamma2: &#45;1.638005</text>
</g>
<!-- 6&#45;&gt;17 -->
<g id="edge17" class="edge"><title>6&#45;&gt;17</title>
<path fill="none" stroke="black" d="M3140.94,-207.908C3174.59,-197.336 3213.12,-185.227 3245.14,-175.167"/>
<polygon fill="black" stroke="black" points="3246.36,-178.452 3254.85,-172.115 3244.26,-171.774 3246.36,-178.452"/>
</g>
<!-- 18 -->
<g id="node19" class="node"><title>18</title>
<path fill="#97a3b6" stroke="black" d="M3674,-172C3674,-172 3611,-172 3611,-172 3605,-172 3599,-166 3599,-160 3599,-160 3599,-146 3599,-146 3599,-140 3605,-134 3611,-134 3611,-134 3674,-134 3674,-134 3680,-134 3686,-140 3686,-146 3686,-146 3686,-160 3686,-160 3686,-166 3680,-172 3674,-172"/>
<text text-anchor="middle" x="3642.5" y="-156.8" font-family="Times,serif" font-size="14.00">comp 3</text>
<text text-anchor="middle" x="3642.5" y="-141.8" font-family="Times,serif" font-size="14.00">n kernels: 10</text>
</g>
<!-- 6&#45;&gt;18 -->
<g id="edge18" class="edge"><title>6&#45;&gt;18</title>
<path fill="none" stroke="black" d="M3174.68,-217.793C3300.06,-200.696 3495.16,-174.092 3588.8,-161.323"/>
<polygon fill="black" stroke="black" points="3589.45,-164.766 3598.89,-159.947 3588.51,-157.83 3589.45,-164.766"/>
</g>
<!-- 19 -->
<g id="node20" class="node"><title>19</title>
<path fill="#d3e4ff" stroke="black" d="M4166.5,-171C4166.5,-171 4132.5,-171 4132.5,-171 4126.5,-171 4120.5,-165 4120.5,-159 4120.5,-159 4120.5,-147 4120.5,-147 4120.5,-141 4126.5,-135 4132.5,-135 4132.5,-135 4166.5,-135 4166.5,-135 4172.5,-135 4178.5,-141 4178.5,-147 4178.5,-147 4178.5,-159 4178.5,-159 4178.5,-165 4172.5,-171 4166.5,-171"/>
<text text-anchor="middle" x="4149.5" y="-149.3" font-family="Times,serif" font-size="14.00">comp 0</text>
</g>
<!-- 7&#45;&gt;19 -->
<g id="edge19" class="edge"><title>7&#45;&gt;19</title>
<path fill="none" stroke="black" d="M4149.5,-215.46C4149.5,-205.392 4149.5,-192.644 4149.5,-181.371"/>
<polygon fill="black" stroke="black" points="4153,-181.151 4149.5,-171.151 4146,-181.151 4153,-181.151"/>
</g>
<!-- 20 -->
<g id="node21" class="node"><title>20</title>
<path fill="#bfcfe6" stroke="black" d="M4654.5,-172C4654.5,-172 4450.5,-172 4450.5,-172 4444.5,-172 4438.5,-166 4438.5,-160 4438.5,-160 4438.5,-146 4438.5,-146 4438.5,-140 4444.5,-134 4450.5,-134 4450.5,-134 4654.5,-134 4654.5,-134 4660.5,-134 4666.5,-140 4666.5,-146 4666.5,-146 4666.5,-160 4666.5,-160 4666.5,-166 4660.5,-172 4654.5,-172"/>
<text text-anchor="middle" x="4552.5" y="-156.8" font-family="Times,serif" font-size="14.00">comp 1</text>
<text text-anchor="middle" x="4552.5" y="-141.8" font-family="Times,serif" font-size="14.00">log gamma2: &#45;0.273376 &#160;&#160;n kernels: &#45;1</text>
</g>
<!-- 7&#45;&gt;20 -->
<g id="edge20" class="edge"><title>7&#45;&gt;20</title>
<path fill="none" stroke="black" d="M4221.55,-219.287C4285.44,-206.682 4379.46,-188.136 4450.97,-174.029"/>
<polygon fill="black" stroke="black" points="4451.77,-177.438 4460.91,-172.069 4450.42,-170.571 4451.77,-177.438"/>
</g>
<!-- 21 -->
<g id="node22" class="node"><title>21</title>
<path fill="#f6d3ff" stroke="black" d="M293,-98C293,-98 12,-98 12,-98 6,-98 0,-92 0,-86 0,-86 0,-12 0,-12 0,-6 6,-0 12,-0 12,-0 293,-0 293,-0 299,-0 305,-6 305,-12 305,-12 305,-86 305,-86 305,-92 299,-98 293,-98"/>
<text text-anchor="middle" x="152.5" y="-82.8" font-family="Times,serif" font-size="14.00">forward</text>
<text text-anchor="middle" x="152.5" y="-67.8" font-family="Times,serif" font-size="14.00">input</text>
<text text-anchor="middle" x="152.5" y="-52.8" font-family="Times,serif" font-size="14.00">dilation rate: 1 &#160;&#160;k width: 3</text>
<text text-anchor="middle" x="152.5" y="-37.8" font-family="Times,serif" font-size="14.00">log gamma1: &#45;11.000000 &#160;&#160;log gamma2: &#45;11.000000</text>
<text text-anchor="middle" x="152.5" y="-22.8" font-family="Times,serif" font-size="14.00">log lambda1: &#45;11.000000 &#160;&#160;log lambda2: &#45;11.000000</text>
<text text-anchor="middle" x="152.5" y="-7.8" font-family="Times,serif" font-size="14.00">n kernels: 64</text>
</g>
<!-- 8&#45;&gt;21 -->
<g id="edge21" class="edge"><title>8&#45;&gt;21</title>
<path fill="none" stroke="black" d="M237.086,-133.764C228.905,-125.663 218.793,-115.649 208.44,-105.397"/>
<polygon fill="black" stroke="black" points="210.823,-102.831 201.255,-98.2813 205.897,-107.805 210.823,-102.831"/>
</g>
<!-- 22 -->
<g id="node23" class="node"><title>22</title>
<path fill="#f6d3ff" stroke="black" d="M616,-98C616,-98 335,-98 335,-98 329,-98 323,-92 323,-86 323,-86 323,-12 323,-12 323,-6 329,-0 335,-0 335,-0 616,-0 616,-0 622,-0 628,-6 628,-12 628,-12 628,-86 628,-86 628,-92 622,-98 616,-98"/>
<text text-anchor="middle" x="475.5" y="-82.8" font-family="Times,serif" font-size="14.00">forward</text>
<text text-anchor="middle" x="475.5" y="-67.8" font-family="Times,serif" font-size="14.00">EB0/C0</text>
<text text-anchor="middle" x="475.5" y="-52.8" font-family="Times,serif" font-size="14.00">dilation rate: 1 &#160;&#160;k width: 3</text>
<text text-anchor="middle" x="475.5" y="-37.8" font-family="Times,serif" font-size="14.00">log gamma1: &#45;11.000000 &#160;&#160;log gamma2: &#45;11.000000</text>
<text text-anchor="middle" x="475.5" y="-22.8" font-family="Times,serif" font-size="14.00">log lambda1: &#45;11.000000 &#160;&#160;log lambda2: &#45;11.000000</text>
<text text-anchor="middle" x="475.5" y="-7.8" font-family="Times,serif" font-size="14.00">n kernels: 64</text>
</g>
<!-- 9&#45;&gt;22 -->
<g id="edge22" class="edge"><title>9&#45;&gt;22</title>
<path fill="none" stroke="black" d="M523.952,-133.764C519.536,-126.131 514.138,-116.799 508.568,-107.169"/>
<polygon fill="black" stroke="black" points="511.464,-105.185 503.427,-98.2813 505.405,-108.69 511.464,-105.185"/>
</g>
<!-- 23 -->
<g id="node24" class="node"><title>23</title>
<path fill="#f6d3ff" stroke="black" d="M939,-98C939,-98 658,-98 658,-98 652,-98 646,-92 646,-86 646,-86 646,-12 646,-12 646,-6 652,-0 658,-0 658,-0 939,-0 939,-0 945,-0 951,-6 951,-12 951,-12 951,-86 951,-86 951,-92 945,-98 939,-98"/>
<text text-anchor="middle" x="798.5" y="-82.8" font-family="Times,serif" font-size="14.00">forward</text>
<text text-anchor="middle" x="798.5" y="-67.8" font-family="Times,serif" font-size="14.00">EB0/C1</text>
<text text-anchor="middle" x="798.5" y="-52.8" font-family="Times,serif" font-size="14.00">dilation rate: 1 &#160;&#160;k width: 3</text>
<text text-anchor="middle" x="798.5" y="-37.8" font-family="Times,serif" font-size="14.00">log gamma1: &#45;11.000000 &#160;&#160;log gamma2: &#45;11.000000</text>
<text text-anchor="middle" x="798.5" y="-22.8" font-family="Times,serif" font-size="14.00">log lambda1: &#45;11.000000 &#160;&#160;log lambda2: &#45;11.000000</text>
<text text-anchor="middle" x="798.5" y="-7.8" font-family="Times,serif" font-size="14.00">n kernels: 64</text>
</g>
<!-- 10&#45;&gt;23 -->
<g id="edge23" class="edge"><title>10&#45;&gt;23</title>
<path fill="none" stroke="black" d="M798.5,-133.764C798.5,-126.442 798.5,-117.558 798.5,-108.346"/>
<polygon fill="black" stroke="black" points="802,-108.281 798.5,-98.2813 795,-108.281 802,-108.281"/>
</g>
<!-- 24 -->
<g id="node25" class="node"><title>24</title>
<path fill="#f6d3ff" stroke="black" d="M1262,-98C1262,-98 981,-98 981,-98 975,-98 969,-92 969,-86 969,-86 969,-12 969,-12 969,-6 975,-0 981,-0 981,-0 1262,-0 1262,-0 1268,-0 1274,-6 1274,-12 1274,-12 1274,-86 1274,-86 1274,-92 1268,-98 1262,-98"/>
<text text-anchor="middle" x="1121.5" y="-82.8" font-family="Times,serif" font-size="14.00">forward</text>
<text text-anchor="middle" x="1121.5" y="-67.8" font-family="Times,serif" font-size="14.00">EB0/C2</text>
<text text-anchor="middle" x="1121.5" y="-52.8" font-family="Times,serif" font-size="14.00">dilation rate: 1 &#160;&#160;k width: 3</text>
<text text-anchor="middle" x="1121.5" y="-37.8" font-family="Times,serif" font-size="14.00">log gamma1: &#45;11.000000 &#160;&#160;log gamma2: &#45;11.000000</text>
<text text-anchor="middle" x="1121.5" y="-22.8" font-family="Times,serif" font-size="14.00">log lambda1: &#45;11.000000 &#160;&#160;log lambda2: &#45;11.000000</text>
<text text-anchor="middle" x="1121.5" y="-7.8" font-family="Times,serif" font-size="14.00">n kernels: 64</text>
</g>
<!-- 11&#45;&gt;24 -->
<g id="edge24" class="edge"><title>11&#45;&gt;24</title>
<path fill="none" stroke="black" d="M1065.87,-134.697C1071.06,-126.793 1077.53,-116.934 1084.21,-106.766"/>
<polygon fill="black" stroke="black" points="1087.28,-108.468 1089.85,-98.1881 1081.43,-104.625 1087.28,-108.468"/>
</g>
<!-- 25 -->
<g id="node26" class="node"><title>25</title>
<path fill="#f6d3ff" stroke="black" d="M1585,-98C1585,-98 1304,-98 1304,-98 1298,-98 1292,-92 1292,-86 1292,-86 1292,-12 1292,-12 1292,-6 1298,-0 1304,-0 1304,-0 1585,-0 1585,-0 1591,-0 1597,-6 1597,-12 1597,-12 1597,-86 1597,-86 1597,-92 1591,-98 1585,-98"/>
<text text-anchor="middle" x="1444.5" y="-82.8" font-family="Times,serif" font-size="14.00">forward</text>
<text text-anchor="middle" x="1444.5" y="-67.8" font-family="Times,serif" font-size="14.00">EB0/C3</text>
<text text-anchor="middle" x="1444.5" y="-52.8" font-family="Times,serif" font-size="14.00">dilation rate: 1 &#160;&#160;k width: 3</text>
<text text-anchor="middle" x="1444.5" y="-37.8" font-family="Times,serif" font-size="14.00">log gamma1: &#45;11.000000 &#160;&#160;log gamma2: &#45;11.000000</text>
<text text-anchor="middle" x="1444.5" y="-22.8" font-family="Times,serif" font-size="14.00">log lambda1: &#45;11.000000 &#160;&#160;log lambda2: &#45;11.000000</text>
<text text-anchor="middle" x="1444.5" y="-7.8" font-family="Times,serif" font-size="14.00">n kernels: 64</text>
</g>
<!-- 12&#45;&gt;25 -->
<g id="edge25" class="edge"><title>12&#45;&gt;25</title>
<path fill="none" stroke="black" d="M1469.14,-133.764C1466.96,-126.364 1464.31,-117.368 1461.57,-108.052"/>
<polygon fill="black" stroke="black" points="1464.88,-106.887 1458.7,-98.2813 1458.16,-108.863 1464.88,-106.887"/>
</g>
<!-- 26 -->
<g id="node27" class="node"><title>26</title>
<path fill="#f6d3ff" stroke="black" d="M1908,-98C1908,-98 1627,-98 1627,-98 1621,-98 1615,-92 1615,-86 1615,-86 1615,-12 1615,-12 1615,-6 1621,-0 1627,-0 1627,-0 1908,-0 1908,-0 1914,-0 1920,-6 1920,-12 1920,-12 1920,-86 1920,-86 1920,-92 1914,-98 1908,-98"/>
<text text-anchor="middle" x="1767.5" y="-82.8" font-family="Times,serif" font-size="14.00">forward</text>
<text text-anchor="middle" x="1767.5" y="-67.8" font-family="Times,serif" font-size="14.00">EB1/C0</text>
<text text-anchor="middle" x="1767.5" y="-52.8" font-family="Times,serif" font-size="14.00">dilation rate: 1 &#160;&#160;k width: 3</text>
<text text-anchor="middle" x="1767.5" y="-37.8" font-family="Times,serif" font-size="14.00">log gamma1: &#45;11.000000 &#160;&#160;log gamma2: &#45;11.000000</text>
<text text-anchor="middle" x="1767.5" y="-22.8" font-family="Times,serif" font-size="14.00">log lambda1: &#45;11.000000 &#160;&#160;log lambda2: &#45;11.000000</text>
<text text-anchor="middle" x="1767.5" y="-7.8" font-family="Times,serif" font-size="14.00">n kernels: 64</text>
</g>
<!-- 13&#45;&gt;26 -->
<g id="edge26" class="edge"><title>13&#45;&gt;26</title>
<path fill="none" stroke="black" d="M1743.68,-133.764C1745.79,-126.364 1748.35,-117.368 1750.99,-108.052"/>
<polygon fill="black" stroke="black" points="1754.4,-108.857 1753.77,-98.2813 1747.67,-106.943 1754.4,-108.857"/>
</g>
<!-- 27 -->
<g id="node28" class="node"><title>27</title>
<path fill="#f6d3ff" stroke="black" d="M2231,-98C2231,-98 1950,-98 1950,-98 1944,-98 1938,-92 1938,-86 1938,-86 1938,-12 1938,-12 1938,-6 1944,-0 1950,-0 1950,-0 2231,-0 2231,-0 2237,-0 2243,-6 2243,-12 2243,-12 2243,-86 2243,-86 2243,-92 2237,-98 2231,-98"/>
<text text-anchor="middle" x="2090.5" y="-82.8" font-family="Times,serif" font-size="14.00">forward</text>
<text text-anchor="middle" x="2090.5" y="-67.8" font-family="Times,serif" font-size="14.00">EB1/C1</text>
<text text-anchor="middle" x="2090.5" y="-52.8" font-family="Times,serif" font-size="14.00">dilation rate: 1 &#160;&#160;k width: 3</text>
<text text-anchor="middle" x="2090.5" y="-37.8" font-family="Times,serif" font-size="14.00">log gamma1: &#45;11.000000 &#160;&#160;log gamma2: &#45;11.000000</text>
<text text-anchor="middle" x="2090.5" y="-22.8" font-family="Times,serif" font-size="14.00">log lambda1: &#45;11.000000 &#160;&#160;log lambda2: &#45;11.000000</text>
<text text-anchor="middle" x="2090.5" y="-7.8" font-family="Times,serif" font-size="14.00">n kernels: 64</text>
</g>
<!-- 14&#45;&gt;27 -->
<g id="edge27" class="edge"><title>14&#45;&gt;27</title>
<path fill="none" stroke="black" d="M2215.68,-133.999C2202.9,-125.428 2186.88,-114.677 2170.61,-103.756"/>
<polygon fill="black" stroke="black" points="2172.34,-100.707 2162.09,-98.0412 2168.44,-106.52 2172.34,-100.707"/>
</g>
<!-- 28 -->
<g id="node29" class="node"><title>28</title>
<path fill="#f6d3ff" stroke="black" d="M2554,-98C2554,-98 2273,-98 2273,-98 2267,-98 2261,-92 2261,-86 2261,-86 2261,-12 2261,-12 2261,-6 2267,-0 2273,-0 2273,-0 2554,-0 2554,-0 2560,-0 2566,-6 2566,-12 2566,-12 2566,-86 2566,-86 2566,-92 2560,-98 2554,-98"/>
<text text-anchor="middle" x="2413.5" y="-82.8" font-family="Times,serif" font-size="14.00">forward</text>
<text text-anchor="middle" x="2413.5" y="-67.8" font-family="Times,serif" font-size="14.00">DB2/C0</text>
<text text-anchor="middle" x="2413.5" y="-52.8" font-family="Times,serif" font-size="14.00">dilation rate: 1 &#160;&#160;k width: 3</text>
<text text-anchor="middle" x="2413.5" y="-37.8" font-family="Times,serif" font-size="14.00">log gamma1: &#45;11.000000 &#160;&#160;log gamma2: &#45;11.000000</text>
<text text-anchor="middle" x="2413.5" y="-22.8" font-family="Times,serif" font-size="14.00">log lambda1: &#45;11.000000 &#160;&#160;log lambda2: &#45;11.000000</text>
<text text-anchor="middle" x="2413.5" y="-7.8" font-family="Times,serif" font-size="14.00">n kernels: 64</text>
</g>
<!-- 15&#45;&gt;28 -->
<g id="edge28" class="edge"><title>15&#45;&gt;28</title>
<path fill="none" stroke="black" d="M2707.27,-142.768C2676.63,-133.094 2625.99,-117.101 2575.3,-101.096"/>
<polygon fill="black" stroke="black" points="2576.1,-97.6766 2565.51,-98.0027 2573.99,-104.352 2576.1,-97.6766"/>
</g>
<!-- 29 -->
<g id="node30" class="node"><title>29</title>
<path fill="#debfe6" stroke="black" d="M2877,-98C2877,-98 2596,-98 2596,-98 2590,-98 2584,-92 2584,-86 2584,-86 2584,-12 2584,-12 2584,-6 2590,-0 2596,-0 2596,-0 2877,-0 2877,-0 2883,-0 2889,-6 2889,-12 2889,-12 2889,-86 2889,-86 2889,-92 2883,-98 2877,-98"/>
<text text-anchor="middle" x="2736.5" y="-82.8" font-family="Times,serif" font-size="14.00">merge</text>
<text text-anchor="middle" x="2736.5" y="-67.8" font-family="Times,serif" font-size="14.00">EB1/C1</text>
<text text-anchor="middle" x="2736.5" y="-52.8" font-family="Times,serif" font-size="14.00">dilation rate: 1 &#160;&#160;k width: 3</text>
<text text-anchor="middle" x="2736.5" y="-37.8" font-family="Times,serif" font-size="14.00">log gamma1: &#45;11.000000 &#160;&#160;log gamma2: &#45;11.000000</text>
<text text-anchor="middle" x="2736.5" y="-22.8" font-family="Times,serif" font-size="14.00">log lambda1: &#45;11.000000 &#160;&#160;log lambda2: &#45;11.000000</text>
<text text-anchor="middle" x="2736.5" y="-7.8" font-family="Times,serif" font-size="14.00">n kernels: 64</text>
</g>
<!-- 15&#45;&gt;29 -->
<g id="edge29" class="edge"><title>15&#45;&gt;29</title>
<path fill="none" stroke="black" d="M2736.5,-134.697C2736.5,-127.188 2736.5,-117.915 2736.5,-108.289"/>
<polygon fill="black" stroke="black" points="2740,-108.188 2736.5,-98.1881 2733,-108.188 2740,-108.188"/>
</g>
<!-- 30 -->
<g id="node31" class="node"><title>30</title>
<path fill="#f6d3ff" stroke="black" d="M3200,-98C3200,-98 2919,-98 2919,-98 2913,-98 2907,-92 2907,-86 2907,-86 2907,-12 2907,-12 2907,-6 2913,-0 2919,-0 2919,-0 3200,-0 3200,-0 3206,-0 3212,-6 3212,-12 3212,-12 3212,-86 3212,-86 3212,-92 3206,-98 3200,-98"/>
<text text-anchor="middle" x="3059.5" y="-82.8" font-family="Times,serif" font-size="14.00">forward</text>
<text text-anchor="middle" x="3059.5" y="-67.8" font-family="Times,serif" font-size="14.00">DB1/C0</text>
<text text-anchor="middle" x="3059.5" y="-52.8" font-family="Times,serif" font-size="14.00">dilation rate: 1 &#160;&#160;k width: 3</text>
<text text-anchor="middle" x="3059.5" y="-37.8" font-family="Times,serif" font-size="14.00">log gamma1: &#45;11.000000 &#160;&#160;log gamma2: &#45;11.000000</text>
<text text-anchor="middle" x="3059.5" y="-22.8" font-family="Times,serif" font-size="14.00">log lambda1: &#45;11.000000 &#160;&#160;log lambda2: &#45;11.000000</text>
<text text-anchor="middle" x="3059.5" y="-7.8" font-family="Times,serif" font-size="14.00">n kernels: 64</text>
</g>
<!-- 16&#45;&gt;30 -->
<g id="edge30" class="edge"><title>16&#45;&gt;30</title>
<path fill="none" stroke="black" d="M3059.5,-134.697C3059.5,-127.188 3059.5,-117.915 3059.5,-108.289"/>
<polygon fill="black" stroke="black" points="3063,-108.188 3059.5,-98.1881 3056,-108.188 3063,-108.188"/>
</g>
<!-- 31 -->
<g id="node32" class="node"><title>31</title>
<path fill="#f6d3ff" stroke="black" d="M3523,-98C3523,-98 3242,-98 3242,-98 3236,-98 3230,-92 3230,-86 3230,-86 3230,-12 3230,-12 3230,-6 3236,-0 3242,-0 3242,-0 3523,-0 3523,-0 3529,-0 3535,-6 3535,-12 3535,-12 3535,-86 3535,-86 3535,-92 3529,-98 3523,-98"/>
<text text-anchor="middle" x="3382.5" y="-82.8" font-family="Times,serif" font-size="14.00">forward</text>
<text text-anchor="middle" x="3382.5" y="-67.8" font-family="Times,serif" font-size="14.00">DB1/C1</text>
<text text-anchor="middle" x="3382.5" y="-52.8" font-family="Times,serif" font-size="14.00">dilation rate: 1 &#160;&#160;k width: 3</text>
<text text-anchor="middle" x="3382.5" y="-37.8" font-family="Times,serif" font-size="14.00">log gamma1: &#45;11.000000 &#160;&#160;log gamma2: &#45;11.000000</text>
<text text-anchor="middle" x="3382.5" y="-22.8" font-family="Times,serif" font-size="14.00">log lambda1: &#45;11.000000 &#160;&#160;log lambda2: &#45;11.000000</text>
<text text-anchor="middle" x="3382.5" y="-7.8" font-family="Times,serif" font-size="14.00">n kernels: 64</text>
</g>
<!-- 17&#45;&gt;31 -->
<g id="edge31" class="edge"><title>17&#45;&gt;31</title>
<path fill="none" stroke="black" d="M3325.01,-133.764C3330.36,-125.975 3336.92,-116.417 3343.67,-106.579"/>
<polygon fill="black" stroke="black" points="3346.59,-108.507 3349.37,-98.2813 3340.82,-104.546 3346.59,-108.507"/>
</g>
<!-- 32 -->
<g id="node33" class="node"><title>32</title>
<path fill="#f6d3ff" stroke="black" d="M3846,-98C3846,-98 3565,-98 3565,-98 3559,-98 3553,-92 3553,-86 3553,-86 3553,-12 3553,-12 3553,-6 3559,-0 3565,-0 3565,-0 3846,-0 3846,-0 3852,-0 3858,-6 3858,-12 3858,-12 3858,-86 3858,-86 3858,-92 3852,-98 3846,-98"/>
<text text-anchor="middle" x="3705.5" y="-82.8" font-family="Times,serif" font-size="14.00">forward</text>
<text text-anchor="middle" x="3705.5" y="-67.8" font-family="Times,serif" font-size="14.00">DB1/C2</text>
<text text-anchor="middle" x="3705.5" y="-52.8" font-family="Times,serif" font-size="14.00">dilation rate: 1 &#160;&#160;k width: 3</text>
<text text-anchor="middle" x="3705.5" y="-37.8" font-family="Times,serif" font-size="14.00">log gamma1: &#45;11.000000 &#160;&#160;log gamma2: &#45;11.000000</text>
<text text-anchor="middle" x="3705.5" y="-22.8" font-family="Times,serif" font-size="14.00">log lambda1: &#45;11.000000 &#160;&#160;log lambda2: &#45;11.000000</text>
<text text-anchor="middle" x="3705.5" y="-7.8" font-family="Times,serif" font-size="14.00">n kernels: 64</text>
</g>
<!-- 18&#45;&gt;32 -->
<g id="edge32" class="edge"><title>18&#45;&gt;32</title>
<path fill="none" stroke="black" d="M3653.76,-133.764C3658.53,-126.053 3664.36,-116.608 3670.37,-106.874"/>
<polygon fill="black" stroke="black" points="3673.4,-108.629 3675.68,-98.2813 3667.45,-104.95 3673.4,-108.629"/>
</g>
<!-- 33 -->
<g id="node34" class="node"><title>33</title>
<path fill="#f6d3ff" stroke="black" d="M4169,-98C4169,-98 3888,-98 3888,-98 3882,-98 3876,-92 3876,-86 3876,-86 3876,-12 3876,-12 3876,-6 3882,-0 3888,-0 3888,-0 4169,-0 4169,-0 4175,-0 4181,-6 4181,-12 4181,-12 4181,-86 4181,-86 4181,-92 4175,-98 4169,-98"/>
<text text-anchor="middle" x="4028.5" y="-82.8" font-family="Times,serif" font-size="14.00">forward</text>
<text text-anchor="middle" x="4028.5" y="-67.8" font-family="Times,serif" font-size="14.00">DB1/C3</text>
<text text-anchor="middle" x="4028.5" y="-52.8" font-family="Times,serif" font-size="14.00">dilation rate: 1 &#160;&#160;k width: 3</text>
<text text-anchor="middle" x="4028.5" y="-37.8" font-family="Times,serif" font-size="14.00">log gamma1: &#45;11.000000 &#160;&#160;log gamma2: &#45;11.000000</text>
<text text-anchor="middle" x="4028.5" y="-22.8" font-family="Times,serif" font-size="14.00">log lambda1: &#45;11.000000 &#160;&#160;log lambda2: &#45;11.000000</text>
<text text-anchor="middle" x="4028.5" y="-7.8" font-family="Times,serif" font-size="14.00">n kernels: 64</text>
</g>
<!-- 19&#45;&gt;33 -->
<g id="edge33" class="edge"><title>19&#45;&gt;33</title>
<path fill="none" stroke="black" d="M4129.25,-134.927C4119.18,-126.441 4106.39,-115.662 4093.33,-104.654"/>
<polygon fill="black" stroke="black" points="4095.53,-101.931 4085.63,-98.1619 4091.02,-107.283 4095.53,-101.931"/>
</g>
<!-- 34 -->
<g id="node35" class="node"><title>34</title>
<path fill="#debfe6" stroke="black" d="M4492,-98C4492,-98 4211,-98 4211,-98 4205,-98 4199,-92 4199,-86 4199,-86 4199,-12 4199,-12 4199,-6 4205,-0 4211,-0 4211,-0 4492,-0 4492,-0 4498,-0 4504,-6 4504,-12 4504,-12 4504,-86 4504,-86 4504,-92 4498,-98 4492,-98"/>
<text text-anchor="middle" x="4351.5" y="-82.8" font-family="Times,serif" font-size="14.00">merge</text>
<text text-anchor="middle" x="4351.5" y="-67.8" font-family="Times,serif" font-size="14.00">EB0/C3</text>
<text text-anchor="middle" x="4351.5" y="-52.8" font-family="Times,serif" font-size="14.00">dilation rate: 1 &#160;&#160;k width: 3</text>
<text text-anchor="middle" x="4351.5" y="-37.8" font-family="Times,serif" font-size="14.00">log gamma1: &#45;11.000000 &#160;&#160;log gamma2: &#45;11.000000</text>
<text text-anchor="middle" x="4351.5" y="-22.8" font-family="Times,serif" font-size="14.00">log lambda1: &#45;11.000000 &#160;&#160;log lambda2: &#45;11.000000</text>
<text text-anchor="middle" x="4351.5" y="-7.8" font-family="Times,serif" font-size="14.00">n kernels: 64</text>
</g>
<!-- 19&#45;&gt;34 -->
<g id="edge34" class="edge"><title>19&#45;&gt;34</title>
<path fill="none" stroke="black" d="M4178.87,-137.168C4197.19,-127.917 4221.99,-115.394 4247.08,-102.729"/>
<polygon fill="black" stroke="black" points="4248.97,-105.694 4256.32,-98.0622 4245.81,-99.4454 4248.97,-105.694"/>
</g>
<!-- 35 -->
<g id="node36" class="node"><title>35</title>
<path fill="#f6d3ff" stroke="black" d="M4815,-98C4815,-98 4534,-98 4534,-98 4528,-98 4522,-92 4522,-86 4522,-86 4522,-12 4522,-12 4522,-6 4528,-0 4534,-0 4534,-0 4815,-0 4815,-0 4821,-0 4827,-6 4827,-12 4827,-12 4827,-86 4827,-86 4827,-92 4821,-98 4815,-98"/>
<text text-anchor="middle" x="4674.5" y="-82.8" font-family="Times,serif" font-size="14.00">forward</text>
<text text-anchor="middle" x="4674.5" y="-67.8" font-family="Times,serif" font-size="14.00">DB0/C0</text>
<text text-anchor="middle" x="4674.5" y="-52.8" font-family="Times,serif" font-size="14.00">dilation rate: 1 &#160;&#160;k width: 3</text>
<text text-anchor="middle" x="4674.5" y="-37.8" font-family="Times,serif" font-size="14.00">log gamma1: &#45;11.000000 &#160;&#160;log gamma2: &#45;11.000000</text>
<text text-anchor="middle" x="4674.5" y="-22.8" font-family="Times,serif" font-size="14.00">log lambda1: &#45;11.000000 &#160;&#160;log lambda2: &#45;11.000000</text>
<text text-anchor="middle" x="4674.5" y="-7.8" font-family="Times,serif" font-size="14.00">n kernels: 64</text>
</g>
<!-- 20&#45;&gt;35 -->
<g id="edge35" class="edge"><title>20&#45;&gt;35</title>
<path fill="none" stroke="black" d="M4574.03,-133.999C4584,-125.664 4596.44,-115.267 4609.13,-104.658"/>
<polygon fill="black" stroke="black" points="4611.61,-107.141 4617.04,-98.0412 4607.12,-101.77 4611.61,-107.141"/>
</g>
</g>
</svg>
