<?xml version="1.0" encoding="UTF-8" standalone="no"?>
<!DOCTYPE svg PUBLIC "-//W3C//DTD SVG 1.1//EN"
 "http://www.w3.org/Graphics/SVG/1.1/DTD/svg11.dtd">
<!-- Generated by graphviz version 2.38.0 (20140413.2041)
 -->
<!-- Title: %3 Pages: 1 -->
<svg width="4375pt" height="357pt"
 viewBox="0.00 0.00 4374.50 357.00" xmlns="http://www.w3.org/2000/svg" xmlns:xlink="http://www.w3.org/1999/xlink">
<g id="graph0" class="graph" transform="scale(1 1) rotate(0) translate(4 353)">
<title>%3</title>
<polygon fill="none" stroke="none" points="-4,4 -4,-353 4370.5,-353 4370.5,4 -4,4"/>
<!-- 0 -->
<g id="node1" class="node"><title>0</title>
<path fill="#ffd3d3" stroke="black" d="M2221.5,-349C2221.5,-349 2057.5,-349 2057.5,-349 2051.5,-349 2045.5,-343 2045.5,-337 2045.5,-337 2045.5,-323 2045.5,-323 2045.5,-317 2051.5,-311 2057.5,-311 2057.5,-311 2221.5,-311 2221.5,-311 2227.5,-311 2233.5,-317 2233.5,-323 2233.5,-323 2233.5,-337 2233.5,-337 2233.5,-343 2227.5,-349 2221.5,-349"/>
<text text-anchor="middle" x="2139.5" y="-333.8" font-family="Times,serif" font-size="14.00">net</text>
<text text-anchor="middle" x="2139.5" y="-318.8" font-family="Times,serif" font-size="14.00">n kernels: 128 &#160;&#160;pooling type: 0</text>
</g>
<!-- 1 -->
<g id="node2" class="node"><title>1</title>
<path fill="#f6ffd3" stroke="black" d="M1368,-275C1368,-275 1243,-275 1243,-275 1237,-275 1231,-269 1231,-263 1231,-263 1231,-249 1231,-249 1231,-243 1237,-237 1243,-237 1243,-237 1368,-237 1368,-237 1374,-237 1380,-243 1380,-249 1380,-249 1380,-263 1380,-263 1380,-269 1374,-275 1368,-275"/>
<text text-anchor="middle" x="1305.5" y="-259.8" font-family="Times,serif" font-size="14.00">encoder</text>
<text text-anchor="middle" x="1305.5" y="-244.8" font-family="Times,serif" font-size="14.00">log gamma2: &#45;0.588752</text>
</g>
<!-- 0&#45;&gt;1 -->
<g id="edge1" class="edge"><title>0&#45;&gt;1</title>
<path fill="none" stroke="black" d="M2045.45,-320.881C1881.84,-306.756 1547.32,-277.876 1390.36,-264.326"/>
<polygon fill="black" stroke="black" points="1390.55,-260.829 1380.28,-263.456 1389.95,-267.803 1390.55,-260.829"/>
</g>
<!-- 2 -->
<g id="node3" class="node"><title>2</title>
<path fill="#f6ffd3" stroke="black" d="M3081,-275C3081,-275 2866,-275 2866,-275 2860,-275 2854,-269 2854,-263 2854,-263 2854,-249 2854,-249 2854,-243 2860,-237 2866,-237 2866,-237 3081,-237 3081,-237 3087,-237 3093,-243 3093,-249 3093,-249 3093,-263 3093,-263 3093,-269 3087,-275 3081,-275"/>
<text text-anchor="middle" x="2973.5" y="-259.8" font-family="Times,serif" font-size="14.00">decoder</text>
<text text-anchor="middle" x="2973.5" y="-244.8" font-family="Times,serif" font-size="14.00">dilation rate: 1 &#160;&#160;log gamma2: &#45;1.269189</text>
</g>
<!-- 0&#45;&gt;2 -->
<g id="edge2" class="edge"><title>0&#45;&gt;2</title>
<path fill="none" stroke="black" d="M2233.55,-320.881C2382.9,-307.987 2674.66,-282.799 2843.77,-268.199"/>
<polygon fill="black" stroke="black" points="2844.32,-271.665 2853.98,-267.318 2843.72,-264.691 2844.32,-271.665"/>
</g>
<!-- 3 -->
<g id="node4" class="node"><title>3</title>
<path fill="#d3ffe4" stroke="black" d="M246,-193.5C246,-193.5 121,-193.5 121,-193.5 115,-193.5 109,-187.5 109,-181.5 109,-181.5 109,-167.5 109,-167.5 109,-161.5 115,-155.5 121,-155.5 121,-155.5 246,-155.5 246,-155.5 252,-155.5 258,-161.5 258,-167.5 258,-167.5 258,-181.5 258,-181.5 258,-187.5 252,-193.5 246,-193.5"/>
<text text-anchor="middle" x="183.5" y="-178.3" font-family="Times,serif" font-size="14.00">encode block 0</text>
<text text-anchor="middle" x="183.5" y="-163.3" font-family="Times,serif" font-size="14.00">log gamma2: &#45;0.669447</text>
</g>
<!-- 1&#45;&gt;3 -->
<g id="edge3" class="edge"><title>1&#45;&gt;3</title>
<path fill="none" stroke="black" d="M1230.58,-249.691C1029.74,-235.461 480.255,-196.527 268.381,-181.514"/>
<polygon fill="black" stroke="black" points="268.468,-178.012 258.246,-180.796 267.974,-184.994 268.468,-178.012"/>
</g>
<!-- 4 -->
<g id="node5" class="node"><title>4</title>
<path fill="#bfe6cf" stroke="black" d="M881,-201C881,-201 668,-201 668,-201 662,-201 656,-195 656,-189 656,-189 656,-160 656,-160 656,-154 662,-148 668,-148 668,-148 881,-148 881,-148 887,-148 893,-154 893,-160 893,-160 893,-189 893,-189 893,-195 887,-201 881,-201"/>
<text text-anchor="middle" x="774.5" y="-185.8" font-family="Times,serif" font-size="14.00">encode block 1</text>
<text text-anchor="middle" x="774.5" y="-170.8" font-family="Times,serif" font-size="14.00">log gamma1: &#45;1.544759 &#160;&#160;n kernels: 128</text>
<text text-anchor="middle" x="774.5" y="-155.8" font-family="Times,serif" font-size="14.00">spatial scale: 1</text>
</g>
<!-- 1&#45;&gt;4 -->
<g id="edge4" class="edge"><title>1&#45;&gt;4</title>
<path fill="none" stroke="black" d="M1230.83,-243.82C1145.96,-231.114 1005.93,-210.148 903.329,-194.788"/>
<polygon fill="black" stroke="black" points="903.616,-191.292 893.208,-193.273 902.579,-198.215 903.616,-191.292"/>
</g>
<!-- 5 -->
<g id="node6" class="node"><title>5</title>
<path fill="#abceb9" stroke="black" d="M1411,-201C1411,-201 1200,-201 1200,-201 1194,-201 1188,-195 1188,-189 1188,-189 1188,-160 1188,-160 1188,-154 1194,-148 1200,-148 1200,-148 1411,-148 1411,-148 1417,-148 1423,-154 1423,-160 1423,-160 1423,-189 1423,-189 1423,-195 1417,-201 1411,-201"/>
<text text-anchor="middle" x="1305.5" y="-185.8" font-family="Times,serif" font-size="14.00">encode block 2</text>
<text text-anchor="middle" x="1305.5" y="-170.8" font-family="Times,serif" font-size="14.00">log gamma1: &#45;0.178209 &#160;&#160;n kernels: &#45;16</text>
<text text-anchor="middle" x="1305.5" y="-155.8" font-family="Times,serif" font-size="14.00">spatial scale: 2</text>
</g>
<!-- 1&#45;&gt;5 -->
<g id="edge5" class="edge"><title>1&#45;&gt;5</title>
<path fill="none" stroke="black" d="M1305.5,-236.96C1305.5,-229.321 1305.5,-220.139 1305.5,-211.229"/>
<polygon fill="black" stroke="black" points="1309,-211.003 1305.5,-201.003 1302,-211.003 1309,-211.003"/>
</g>
<!-- 6 -->
<g id="node7" class="node"><title>6</title>
<path fill="#97b6a3" stroke="black" d="M1760,-193.5C1760,-193.5 1599,-193.5 1599,-193.5 1593,-193.5 1587,-187.5 1587,-181.5 1587,-181.5 1587,-167.5 1587,-167.5 1587,-161.5 1593,-155.5 1599,-155.5 1599,-155.5 1760,-155.5 1760,-155.5 1766,-155.5 1772,-161.5 1772,-167.5 1772,-167.5 1772,-181.5 1772,-181.5 1772,-187.5 1766,-193.5 1760,-193.5"/>
<text text-anchor="middle" x="1679.5" y="-178.3" font-family="Times,serif" font-size="14.00">encode block 3</text>
<text text-anchor="middle" x="1679.5" y="-163.3" font-family="Times,serif" font-size="14.00">n kernels: 896 &#160;&#160;spatial scale: 3</text>
</g>
<!-- 1&#45;&gt;6 -->
<g id="edge6" class="edge"><title>1&#45;&gt;6</title>
<path fill="none" stroke="black" d="M1380.29,-239.103C1439.07,-226.608 1521.32,-209.123 1584.72,-195.648"/>
<polygon fill="black" stroke="black" points="1585.67,-199.024 1594.72,-193.521 1584.21,-192.177 1585.67,-199.024"/>
</g>
<!-- 7 -->
<g id="node8" class="node"><title>7</title>
<path fill="#d3ffe4" stroke="black" d="M2373.5,-193.5C2373.5,-193.5 2205.5,-193.5 2205.5,-193.5 2199.5,-193.5 2193.5,-187.5 2193.5,-181.5 2193.5,-181.5 2193.5,-167.5 2193.5,-167.5 2193.5,-161.5 2199.5,-155.5 2205.5,-155.5 2205.5,-155.5 2373.5,-155.5 2373.5,-155.5 2379.5,-155.5 2385.5,-161.5 2385.5,-167.5 2385.5,-167.5 2385.5,-181.5 2385.5,-181.5 2385.5,-187.5 2379.5,-193.5 2373.5,-193.5"/>
<text text-anchor="middle" x="2289.5" y="-178.3" font-family="Times,serif" font-size="14.00">decode block 4</text>
<text text-anchor="middle" x="2289.5" y="-163.3" font-family="Times,serif" font-size="14.00">n kernels: 1920 &#160;&#160;spatial scale: 4</text>
</g>
<!-- 2&#45;&gt;7 -->
<g id="edge7" class="edge"><title>2&#45;&gt;7</title>
<path fill="none" stroke="black" d="M2853.97,-241.107C2724.53,-226.063 2519.99,-202.29 2395.92,-187.869"/>
<polygon fill="black" stroke="black" points="2395.99,-184.353 2385.65,-186.675 2395.18,-191.307 2395.99,-184.353"/>
</g>
<!-- 8 -->
<g id="node9" class="node"><title>8</title>
<path fill="#bfe6cf" stroke="black" d="M2850,-193.5C2850,-193.5 2689,-193.5 2689,-193.5 2683,-193.5 2677,-187.5 2677,-181.5 2677,-181.5 2677,-167.5 2677,-167.5 2677,-161.5 2683,-155.5 2689,-155.5 2689,-155.5 2850,-155.5 2850,-155.5 2856,-155.5 2862,-161.5 2862,-167.5 2862,-167.5 2862,-181.5 2862,-181.5 2862,-187.5 2856,-193.5 2850,-193.5"/>
<text text-anchor="middle" x="2769.5" y="-178.3" font-family="Times,serif" font-size="14.00">decode block 3</text>
<text text-anchor="middle" x="2769.5" y="-163.3" font-family="Times,serif" font-size="14.00">n kernels: 896 &#160;&#160;spatial scale: 3</text>
</g>
<!-- 2&#45;&gt;8 -->
<g id="edge8" class="edge"><title>2&#45;&gt;8</title>
<path fill="none" stroke="black" d="M2927.21,-236.96C2897.06,-225.211 2857.54,-209.811 2825.61,-197.366"/>
<polygon fill="black" stroke="black" points="2826.55,-193.976 2815.96,-193.606 2824.01,-200.498 2826.55,-193.976"/>
</g>
<!-- 9 -->
<g id="node10" class="node"><title>9</title>
<path fill="#abceb9" stroke="black" d="M3215,-193.5C3215,-193.5 3140,-193.5 3140,-193.5 3134,-193.5 3128,-187.5 3128,-181.5 3128,-181.5 3128,-167.5 3128,-167.5 3128,-161.5 3134,-155.5 3140,-155.5 3140,-155.5 3215,-155.5 3215,-155.5 3221,-155.5 3227,-161.5 3227,-167.5 3227,-167.5 3227,-181.5 3227,-181.5 3227,-187.5 3221,-193.5 3215,-193.5"/>
<text text-anchor="middle" x="3177.5" y="-178.3" font-family="Times,serif" font-size="14.00">decode block 2</text>
<text text-anchor="middle" x="3177.5" y="-163.3" font-family="Times,serif" font-size="14.00">spatial scale: 2</text>
</g>
<!-- 2&#45;&gt;9 -->
<g id="edge9" class="edge"><title>2&#45;&gt;9</title>
<path fill="none" stroke="black" d="M3019.79,-236.96C3049.94,-225.211 3089.46,-209.811 3121.39,-197.366"/>
<polygon fill="black" stroke="black" points="3122.99,-200.498 3131.04,-193.606 3120.45,-193.976 3122.99,-200.498"/>
</g>
<!-- 10 -->
<g id="node11" class="node"><title>10</title>
<path fill="#97b6a3" stroke="black" d="M3652,-193.5C3652,-193.5 3491,-193.5 3491,-193.5 3485,-193.5 3479,-187.5 3479,-181.5 3479,-181.5 3479,-167.5 3479,-167.5 3479,-161.5 3485,-155.5 3491,-155.5 3491,-155.5 3652,-155.5 3652,-155.5 3658,-155.5 3664,-161.5 3664,-167.5 3664,-167.5 3664,-181.5 3664,-181.5 3664,-187.5 3658,-193.5 3652,-193.5"/>
<text text-anchor="middle" x="3571.5" y="-178.3" font-family="Times,serif" font-size="14.00">decode block 1</text>
<text text-anchor="middle" x="3571.5" y="-163.3" font-family="Times,serif" font-size="14.00">n kernels: 128 &#160;&#160;spatial scale: 1</text>
</g>
<!-- 2&#45;&gt;10 -->
<g id="edge10" class="edge"><title>2&#45;&gt;10</title>
<path fill="none" stroke="black" d="M3093.08,-239.103C3203.03,-224.485 3364.35,-203.039 3468.66,-189.171"/>
<polygon fill="black" stroke="black" points="3469.13,-192.641 3478.58,-187.853 3468.2,-185.702 3469.13,-192.641"/>
</g>
<!-- 11 -->
<g id="node12" class="node"><title>11</title>
<path fill="#839e8d" stroke="black" d="M4131,-192.5C4131,-192.5 4056,-192.5 4056,-192.5 4050,-192.5 4044,-186.5 4044,-180.5 4044,-180.5 4044,-168.5 4044,-168.5 4044,-162.5 4050,-156.5 4056,-156.5 4056,-156.5 4131,-156.5 4131,-156.5 4137,-156.5 4143,-162.5 4143,-168.5 4143,-168.5 4143,-180.5 4143,-180.5 4143,-186.5 4137,-192.5 4131,-192.5"/>
<text text-anchor="middle" x="4093.5" y="-170.8" font-family="Times,serif" font-size="14.00">decode block 0</text>
</g>
<!-- 2&#45;&gt;11 -->
<g id="edge11" class="edge"><title>2&#45;&gt;11</title>
<path fill="none" stroke="black" d="M3093.09,-246.511C3331.15,-229.613 3856.61,-192.315 4033.81,-179.737"/>
<polygon fill="black" stroke="black" points="4034.25,-183.214 4043.98,-179.015 4033.76,-176.232 4034.25,-183.214"/>
</g>
<!-- 12 -->
<g id="node13" class="node"><title>12</title>
<path fill="#d3e4ff" stroke="black" d="M47.5,-111C47.5,-111 13.5,-111 13.5,-111 7.5,-111 1.5,-105 1.5,-99 1.5,-99 1.5,-87 1.5,-87 1.5,-81 7.5,-75 13.5,-75 13.5,-75 47.5,-75 47.5,-75 53.5,-75 59.5,-81 59.5,-87 59.5,-87 59.5,-99 59.5,-99 59.5,-105 53.5,-111 47.5,-111"/>
<text text-anchor="middle" x="30.5" y="-89.3" font-family="Times,serif" font-size="14.00">comp 0</text>
</g>
<!-- 3&#45;&gt;12 -->
<g id="edge12" class="edge"><title>3&#45;&gt;12</title>
<path fill="none" stroke="black" d="M148.782,-155.46C125.015,-143.111 93.4879,-126.729 68.9593,-113.984"/>
<polygon fill="black" stroke="black" points="70.4194,-110.798 59.932,-109.293 67.1918,-117.01 70.4194,-110.798"/>
</g>
<!-- 13 -->
<g id="node14" class="node"><title>13</title>
<path fill="#bfcfe6" stroke="black" d="M124.5,-111C124.5,-111 90.5,-111 90.5,-111 84.5,-111 78.5,-105 78.5,-99 78.5,-99 78.5,-87 78.5,-87 78.5,-81 84.5,-75 90.5,-75 90.5,-75 124.5,-75 124.5,-75 130.5,-75 136.5,-81 136.5,-87 136.5,-87 136.5,-99 136.5,-99 136.5,-105 130.5,-111 124.5,-111"/>
<text text-anchor="middle" x="107.5" y="-89.3" font-family="Times,serif" font-size="14.00">comp 1</text>
</g>
<!-- 3&#45;&gt;13 -->
<g id="edge13" class="edge"><title>3&#45;&gt;13</title>
<path fill="none" stroke="black" d="M166.254,-155.46C155.836,-144.562 142.415,-130.523 131.031,-118.614"/>
<polygon fill="black" stroke="black" points="133.336,-115.961 123.896,-111.151 128.276,-120.798 133.336,-115.961"/>
</g>
<!-- 14 -->
<g id="node15" class="node"><title>14</title>
<path fill="#abb9ce" stroke="black" d="M200.5,-111C200.5,-111 166.5,-111 166.5,-111 160.5,-111 154.5,-105 154.5,-99 154.5,-99 154.5,-87 154.5,-87 154.5,-81 160.5,-75 166.5,-75 166.5,-75 200.5,-75 200.5,-75 206.5,-75 212.5,-81 212.5,-87 212.5,-87 212.5,-99 212.5,-99 212.5,-105 206.5,-111 200.5,-111"/>
<text text-anchor="middle" x="183.5" y="-89.3" font-family="Times,serif" font-size="14.00">comp 2</text>
</g>
<!-- 3&#45;&gt;14 -->
<g id="edge14" class="edge"><title>3&#45;&gt;14</title>
<path fill="none" stroke="black" d="M183.5,-155.46C183.5,-145.392 183.5,-132.644 183.5,-121.371"/>
<polygon fill="black" stroke="black" points="187,-121.151 183.5,-111.151 180,-121.151 187,-121.151"/>
</g>
<!-- 15 -->
<g id="node16" class="node"><title>15</title>
<path fill="#97a3b6" stroke="black" d="M362.5,-112C362.5,-112 242.5,-112 242.5,-112 236.5,-112 230.5,-106 230.5,-100 230.5,-100 230.5,-86 230.5,-86 230.5,-80 236.5,-74 242.5,-74 242.5,-74 362.5,-74 362.5,-74 368.5,-74 374.5,-80 374.5,-86 374.5,-86 374.5,-100 374.5,-100 374.5,-106 368.5,-112 362.5,-112"/>
<text text-anchor="middle" x="302.5" y="-96.8" font-family="Times,serif" font-size="14.00">comp 3</text>
<text text-anchor="middle" x="302.5" y="-81.8" font-family="Times,serif" font-size="14.00">log gamma2: 0.002424</text>
</g>
<!-- 3&#45;&gt;15 -->
<g id="edge15" class="edge"><title>3&#45;&gt;15</title>
<path fill="none" stroke="black" d="M210.503,-155.46C227.121,-144.358 248.619,-129.996 266.653,-117.948"/>
<polygon fill="black" stroke="black" points="268.821,-120.709 275.192,-112.244 264.933,-114.888 268.821,-120.709"/>
</g>
<!-- 16 -->
<g id="node17" class="node"><title>16</title>
<path fill="#d3e4ff" stroke="black" d="M438.5,-111C438.5,-111 404.5,-111 404.5,-111 398.5,-111 392.5,-105 392.5,-99 392.5,-99 392.5,-87 392.5,-87 392.5,-81 398.5,-75 404.5,-75 404.5,-75 438.5,-75 438.5,-75 444.5,-75 450.5,-81 450.5,-87 450.5,-87 450.5,-99 450.5,-99 450.5,-105 444.5,-111 438.5,-111"/>
<text text-anchor="middle" x="421.5" y="-89.3" font-family="Times,serif" font-size="14.00">comp 0</text>
</g>
<!-- 4&#45;&gt;16 -->
<g id="edge16" class="edge"><title>4&#45;&gt;16</title>
<path fill="none" stroke="black" d="M655.661,-157.488C598.584,-148.079 529.421,-134.157 460.398,-111.895"/>
<polygon fill="black" stroke="black" points="461.254,-108.492 450.661,-108.698 459.07,-115.143 461.254,-108.492"/>
</g>
<!-- 17 -->
<g id="node18" class="node"><title>17</title>
<path fill="#bfcfe6" stroke="black" d="M600.5,-112C600.5,-112 480.5,-112 480.5,-112 474.5,-112 468.5,-106 468.5,-100 468.5,-100 468.5,-86 468.5,-86 468.5,-80 474.5,-74 480.5,-74 480.5,-74 600.5,-74 600.5,-74 606.5,-74 612.5,-80 612.5,-86 612.5,-86 612.5,-100 612.5,-100 612.5,-106 606.5,-112 600.5,-112"/>
<text text-anchor="middle" x="540.5" y="-96.8" font-family="Times,serif" font-size="14.00">comp 1</text>
<text text-anchor="middle" x="540.5" y="-81.8" font-family="Times,serif" font-size="14.00">log gamma2: 0.425466</text>
</g>
<!-- 4&#45;&gt;17 -->
<g id="edge17" class="edge"><title>4&#45;&gt;17</title>
<path fill="none" stroke="black" d="M699.173,-147.908C668.324,-137.427 633.028,-125.436 603.571,-115.428"/>
<polygon fill="black" stroke="black" points="604.414,-112.018 593.82,-112.115 602.163,-118.646 604.414,-112.018"/>
</g>
<!-- 18 -->
<g id="node19" class="node"><title>18</title>
<path fill="#abb9ce" stroke="black" d="M906,-112C906,-112 643,-112 643,-112 637,-112 631,-106 631,-100 631,-100 631,-86 631,-86 631,-80 637,-74 643,-74 643,-74 906,-74 906,-74 912,-74 918,-80 918,-86 918,-86 918,-100 918,-100 918,-106 912,-112 906,-112"/>
<text text-anchor="middle" x="774.5" y="-96.8" font-family="Times,serif" font-size="14.00">comp 2</text>
<text text-anchor="middle" x="774.5" y="-81.8" font-family="Times,serif" font-size="14.00">log gamma1: &#45;0.155034 &#160;&#160;log gamma2: 0.880382</text>
</g>
<!-- 4&#45;&gt;18 -->
<g id="edge18" class="edge"><title>4&#45;&gt;18</title>
<path fill="none" stroke="black" d="M774.5,-147.908C774.5,-139.738 774.5,-130.649 774.5,-122.298"/>
<polygon fill="black" stroke="black" points="778,-122.239 774.5,-112.239 771,-122.239 778,-122.239"/>
</g>
<!-- 19 -->
<g id="node20" class="node"><title>19</title>
<path fill="#97a3b6" stroke="black" d="M1073,-112C1073,-112 948,-112 948,-112 942,-112 936,-106 936,-100 936,-100 936,-86 936,-86 936,-80 942,-74 948,-74 948,-74 1073,-74 1073,-74 1079,-74 1085,-80 1085,-86 1085,-86 1085,-100 1085,-100 1085,-106 1079,-112 1073,-112"/>
<text text-anchor="middle" x="1010.5" y="-96.8" font-family="Times,serif" font-size="14.00">comp 3</text>
<text text-anchor="middle" x="1010.5" y="-81.8" font-family="Times,serif" font-size="14.00">log gamma2: &#45;1.790197</text>
</g>
<!-- 4&#45;&gt;19 -->
<g id="edge19" class="edge"><title>4&#45;&gt;19</title>
<path fill="none" stroke="black" d="M850.471,-147.908C881.584,-137.427 917.181,-125.436 946.89,-115.428"/>
<polygon fill="black" stroke="black" points="948.365,-118.624 956.724,-112.115 946.13,-111.991 948.365,-118.624"/>
</g>
<!-- 20 -->
<g id="node21" class="node"><title>20</title>
<path fill="#d3e4ff" stroke="black" d="M1187.5,-112C1187.5,-112 1115.5,-112 1115.5,-112 1109.5,-112 1103.5,-106 1103.5,-100 1103.5,-100 1103.5,-86 1103.5,-86 1103.5,-80 1109.5,-74 1115.5,-74 1115.5,-74 1187.5,-74 1187.5,-74 1193.5,-74 1199.5,-80 1199.5,-86 1199.5,-86 1199.5,-100 1199.5,-100 1199.5,-106 1193.5,-112 1187.5,-112"/>
<text text-anchor="middle" x="1151.5" y="-96.8" font-family="Times,serif" font-size="14.00">comp 0</text>
<text text-anchor="middle" x="1151.5" y="-81.8" font-family="Times,serif" font-size="14.00">dilation rate: 1</text>
</g>
<!-- 5&#45;&gt;20 -->
<g id="edge20" class="edge"><title>5&#45;&gt;20</title>
<path fill="none" stroke="black" d="M1255.93,-147.908C1236.58,-137.922 1214.58,-126.565 1195.78,-116.858"/>
<polygon fill="black" stroke="black" points="1197.32,-113.716 1186.83,-112.239 1194.11,-119.936 1197.32,-113.716"/>
</g>
<!-- 21 -->
<g id="node22" class="node"><title>21</title>
<path fill="#bfcfe6" stroke="black" d="M1291,-112C1291,-112 1230,-112 1230,-112 1224,-112 1218,-106 1218,-100 1218,-100 1218,-86 1218,-86 1218,-80 1224,-74 1230,-74 1230,-74 1291,-74 1291,-74 1297,-74 1303,-80 1303,-86 1303,-86 1303,-100 1303,-100 1303,-106 1297,-112 1291,-112"/>
<text text-anchor="middle" x="1260.5" y="-96.8" font-family="Times,serif" font-size="14.00">comp 1</text>
<text text-anchor="middle" x="1260.5" y="-81.8" font-family="Times,serif" font-size="14.00">n kernels: &#45;1</text>
</g>
<!-- 5&#45;&gt;21 -->
<g id="edge21" class="edge"><title>5&#45;&gt;21</title>
<path fill="none" stroke="black" d="M1291.01,-147.908C1286.18,-139.375 1280.79,-129.84 1275.89,-121.189"/>
<polygon fill="black" stroke="black" points="1278.8,-119.217 1270.82,-112.239 1272.7,-122.666 1278.8,-119.217"/>
</g>
<!-- 22 -->
<g id="node23" class="node"><title>22</title>
<path fill="#abb9ce" stroke="black" d="M1367.5,-111C1367.5,-111 1333.5,-111 1333.5,-111 1327.5,-111 1321.5,-105 1321.5,-99 1321.5,-99 1321.5,-87 1321.5,-87 1321.5,-81 1327.5,-75 1333.5,-75 1333.5,-75 1367.5,-75 1367.5,-75 1373.5,-75 1379.5,-81 1379.5,-87 1379.5,-87 1379.5,-99 1379.5,-99 1379.5,-105 1373.5,-111 1367.5,-111"/>
<text text-anchor="middle" x="1350.5" y="-89.3" font-family="Times,serif" font-size="14.00">comp 2</text>
</g>
<!-- 5&#45;&gt;22 -->
<g id="edge22" class="edge"><title>5&#45;&gt;22</title>
<path fill="none" stroke="black" d="M1319.99,-147.908C1325.02,-139.014 1330.67,-129.033 1335.73,-120.098"/>
<polygon fill="black" stroke="black" points="1338.85,-121.683 1340.73,-111.256 1332.76,-118.235 1338.85,-121.683"/>
</g>
<!-- 23 -->
<g id="node24" class="node"><title>23</title>
<path fill="#97a3b6" stroke="black" d="M1443.5,-111C1443.5,-111 1409.5,-111 1409.5,-111 1403.5,-111 1397.5,-105 1397.5,-99 1397.5,-99 1397.5,-87 1397.5,-87 1397.5,-81 1403.5,-75 1409.5,-75 1409.5,-75 1443.5,-75 1443.5,-75 1449.5,-75 1455.5,-81 1455.5,-87 1455.5,-87 1455.5,-99 1455.5,-99 1455.5,-105 1449.5,-111 1443.5,-111"/>
<text text-anchor="middle" x="1426.5" y="-89.3" font-family="Times,serif" font-size="14.00">comp 3</text>
</g>
<!-- 5&#45;&gt;23 -->
<g id="edge23" class="edge"><title>5&#45;&gt;23</title>
<path fill="none" stroke="black" d="M1344.45,-147.908C1359.81,-137.815 1377.31,-126.321 1392.18,-116.546"/>
<polygon fill="black" stroke="black" points="1394.17,-119.43 1400.61,-111.014 1390.33,-113.58 1394.17,-119.43"/>
</g>
<!-- 24 -->
<g id="node25" class="node"><title>24</title>
<path fill="#d3e4ff" stroke="black" d="M1605.5,-112C1605.5,-112 1485.5,-112 1485.5,-112 1479.5,-112 1473.5,-106 1473.5,-100 1473.5,-100 1473.5,-86 1473.5,-86 1473.5,-80 1479.5,-74 1485.5,-74 1485.5,-74 1605.5,-74 1605.5,-74 1611.5,-74 1617.5,-80 1617.5,-86 1617.5,-86 1617.5,-100 1617.5,-100 1617.5,-106 1611.5,-112 1605.5,-112"/>
<text text-anchor="middle" x="1545.5" y="-96.8" font-family="Times,serif" font-size="14.00">comp 0</text>
<text text-anchor="middle" x="1545.5" y="-81.8" font-family="Times,serif" font-size="14.00">log gamma2: 1.802836</text>
</g>
<!-- 6&#45;&gt;24 -->
<g id="edge24" class="edge"><title>6&#45;&gt;24</title>
<path fill="none" stroke="black" d="M1649.09,-155.46C1630.12,-144.207 1605.51,-129.604 1585.04,-117.456"/>
<polygon fill="black" stroke="black" points="1586.64,-114.336 1576.25,-112.244 1583.06,-120.356 1586.64,-114.336"/>
</g>
<!-- 25 -->
<g id="node26" class="node"><title>25</title>
<path fill="#bfcfe6" stroke="black" d="M1911,-112C1911,-112 1648,-112 1648,-112 1642,-112 1636,-106 1636,-100 1636,-100 1636,-86 1636,-86 1636,-80 1642,-74 1648,-74 1648,-74 1911,-74 1911,-74 1917,-74 1923,-80 1923,-86 1923,-86 1923,-100 1923,-100 1923,-106 1917,-112 1911,-112"/>
<text text-anchor="middle" x="1779.5" y="-96.8" font-family="Times,serif" font-size="14.00">comp 1</text>
<text text-anchor="middle" x="1779.5" y="-81.8" font-family="Times,serif" font-size="14.00">log gamma1: 0.762012 &#160;&#160;log gamma2: &#45;0.453560</text>
</g>
<!-- 6&#45;&gt;25 -->
<g id="edge25" class="edge"><title>6&#45;&gt;25</title>
<path fill="none" stroke="black" d="M1702.19,-155.46C1715.9,-144.56 1733.57,-130.517 1748.55,-118.607"/>
<polygon fill="black" stroke="black" points="1750.9,-121.206 1756.55,-112.244 1746.55,-115.727 1750.9,-121.206"/>
</g>
<!-- 26 -->
<g id="node27" class="node"><title>26</title>
<path fill="#abb9ce" stroke="black" d="M1987.5,-111C1987.5,-111 1953.5,-111 1953.5,-111 1947.5,-111 1941.5,-105 1941.5,-99 1941.5,-99 1941.5,-87 1941.5,-87 1941.5,-81 1947.5,-75 1953.5,-75 1953.5,-75 1987.5,-75 1987.5,-75 1993.5,-75 1999.5,-81 1999.5,-87 1999.5,-87 1999.5,-99 1999.5,-99 1999.5,-105 1993.5,-111 1987.5,-111"/>
<text text-anchor="middle" x="1970.5" y="-89.3" font-family="Times,serif" font-size="14.00">comp 2</text>
</g>
<!-- 6&#45;&gt;26 -->
<g id="edge26" class="edge"><title>6&#45;&gt;26</title>
<path fill="none" stroke="black" d="M1771.72,-155.474C1819.97,-144.925 1879.63,-130.109 1931.5,-112 1931.6,-111.965 1931.7,-111.929 1931.8,-111.893"/>
<polygon fill="black" stroke="black" points="1933.31,-115.064 1941.36,-108.183 1930.77,-108.539 1933.31,-115.064"/>
</g>
<!-- 27 -->
<g id="node28" class="node"><title>27</title>
<path fill="#d3e4ff" stroke="black" d="M2064.5,-111C2064.5,-111 2030.5,-111 2030.5,-111 2024.5,-111 2018.5,-105 2018.5,-99 2018.5,-99 2018.5,-87 2018.5,-87 2018.5,-81 2024.5,-75 2030.5,-75 2030.5,-75 2064.5,-75 2064.5,-75 2070.5,-75 2076.5,-81 2076.5,-87 2076.5,-87 2076.5,-99 2076.5,-99 2076.5,-105 2070.5,-111 2064.5,-111"/>
<text text-anchor="middle" x="2047.5" y="-89.3" font-family="Times,serif" font-size="14.00">comp 0</text>
</g>
<!-- 7&#45;&gt;27 -->
<g id="edge27" class="edge"><title>7&#45;&gt;27</title>
<path fill="none" stroke="black" d="M2219.29,-155.46C2181.68,-145.095 2134.57,-130.991 2086.17,-112.426"/>
<polygon fill="black" stroke="black" points="2087.38,-109.144 2076.8,-108.781 2084.85,-115.668 2087.38,-109.144"/>
</g>
<!-- 28 -->
<g id="node29" class="node"><title>28</title>
<path fill="#bfcfe6" stroke="black" d="M2231,-112C2231,-112 2106,-112 2106,-112 2100,-112 2094,-106 2094,-100 2094,-100 2094,-86 2094,-86 2094,-80 2100,-74 2106,-74 2106,-74 2231,-74 2231,-74 2237,-74 2243,-80 2243,-86 2243,-86 2243,-100 2243,-100 2243,-106 2237,-112 2231,-112"/>
<text text-anchor="middle" x="2168.5" y="-96.8" font-family="Times,serif" font-size="14.00">comp 1</text>
<text text-anchor="middle" x="2168.5" y="-81.8" font-family="Times,serif" font-size="14.00">log gamma1: &#45;1.014882</text>
</g>
<!-- 7&#45;&gt;28 -->
<g id="edge28" class="edge"><title>7&#45;&gt;28</title>
<path fill="none" stroke="black" d="M2262.04,-155.46C2245.15,-144.358 2223.29,-129.996 2204.95,-117.948"/>
<polygon fill="black" stroke="black" points="2206.55,-114.81 2196.27,-112.244 2202.7,-120.66 2206.55,-114.81"/>
</g>
<!-- 29 -->
<g id="node30" class="node"><title>29</title>
<path fill="#abb9ce" stroke="black" d="M2306.5,-111C2306.5,-111 2272.5,-111 2272.5,-111 2266.5,-111 2260.5,-105 2260.5,-99 2260.5,-99 2260.5,-87 2260.5,-87 2260.5,-81 2266.5,-75 2272.5,-75 2272.5,-75 2306.5,-75 2306.5,-75 2312.5,-75 2318.5,-81 2318.5,-87 2318.5,-87 2318.5,-99 2318.5,-99 2318.5,-105 2312.5,-111 2306.5,-111"/>
<text text-anchor="middle" x="2289.5" y="-89.3" font-family="Times,serif" font-size="14.00">comp 2</text>
</g>
<!-- 7&#45;&gt;29 -->
<g id="edge29" class="edge"><title>7&#45;&gt;29</title>
<path fill="none" stroke="black" d="M2289.5,-155.46C2289.5,-145.392 2289.5,-132.644 2289.5,-121.371"/>
<polygon fill="black" stroke="black" points="2293,-121.151 2289.5,-111.151 2286,-121.151 2293,-121.151"/>
</g>
<!-- 30 -->
<g id="node31" class="node"><title>30</title>
<path fill="#97a3b6" stroke="black" d="M2382.5,-111C2382.5,-111 2348.5,-111 2348.5,-111 2342.5,-111 2336.5,-105 2336.5,-99 2336.5,-99 2336.5,-87 2336.5,-87 2336.5,-81 2342.5,-75 2348.5,-75 2348.5,-75 2382.5,-75 2382.5,-75 2388.5,-75 2394.5,-81 2394.5,-87 2394.5,-87 2394.5,-99 2394.5,-99 2394.5,-105 2388.5,-111 2382.5,-111"/>
<text text-anchor="middle" x="2365.5" y="-89.3" font-family="Times,serif" font-size="14.00">comp 3</text>
</g>
<!-- 7&#45;&gt;30 -->
<g id="edge30" class="edge"><title>7&#45;&gt;30</title>
<path fill="none" stroke="black" d="M2306.75,-155.46C2317.16,-144.562 2330.59,-130.523 2341.97,-118.614"/>
<polygon fill="black" stroke="black" points="2344.72,-120.798 2349.1,-111.151 2339.66,-115.961 2344.72,-120.798"/>
</g>
<!-- 31 -->
<g id="node32" class="node"><title>31</title>
<path fill="#d3e4ff" stroke="black" d="M2544.5,-112C2544.5,-112 2424.5,-112 2424.5,-112 2418.5,-112 2412.5,-106 2412.5,-100 2412.5,-100 2412.5,-86 2412.5,-86 2412.5,-80 2418.5,-74 2424.5,-74 2424.5,-74 2544.5,-74 2544.5,-74 2550.5,-74 2556.5,-80 2556.5,-86 2556.5,-86 2556.5,-100 2556.5,-100 2556.5,-106 2550.5,-112 2544.5,-112"/>
<text text-anchor="middle" x="2484.5" y="-96.8" font-family="Times,serif" font-size="14.00">comp 0</text>
<text text-anchor="middle" x="2484.5" y="-81.8" font-family="Times,serif" font-size="14.00">log gamma1: 0.789981</text>
</g>
<!-- 8&#45;&gt;31 -->
<g id="edge31" class="edge"><title>8&#45;&gt;31</title>
<path fill="none" stroke="black" d="M2704.83,-155.46C2661.53,-143.382 2604.4,-127.445 2559.16,-114.827"/>
<polygon fill="black" stroke="black" points="2559.98,-111.421 2549.41,-112.106 2558.1,-118.164 2559.98,-111.421"/>
</g>
<!-- 32 -->
<g id="node33" class="node"><title>32</title>
<path fill="#bfcfe6" stroke="black" d="M2620.5,-111C2620.5,-111 2586.5,-111 2586.5,-111 2580.5,-111 2574.5,-105 2574.5,-99 2574.5,-99 2574.5,-87 2574.5,-87 2574.5,-81 2580.5,-75 2586.5,-75 2586.5,-75 2620.5,-75 2620.5,-75 2626.5,-75 2632.5,-81 2632.5,-87 2632.5,-87 2632.5,-99 2632.5,-99 2632.5,-105 2626.5,-111 2620.5,-111"/>
<text text-anchor="middle" x="2603.5" y="-89.3" font-family="Times,serif" font-size="14.00">comp 1</text>
</g>
<!-- 8&#45;&gt;32 -->
<g id="edge32" class="edge"><title>8&#45;&gt;32</title>
<path fill="none" stroke="black" d="M2731.83,-155.46C2704.96,-142.592 2668.95,-125.346 2641.92,-112.398"/>
<polygon fill="black" stroke="black" points="2643.29,-109.174 2632.76,-108.011 2640.26,-115.488 2643.29,-109.174"/>
</g>
<!-- 33 -->
<g id="node34" class="node"><title>33</title>
<path fill="#abb9ce" stroke="black" d="M2876,-112C2876,-112 2663,-112 2663,-112 2657,-112 2651,-106 2651,-100 2651,-100 2651,-86 2651,-86 2651,-80 2657,-74 2663,-74 2663,-74 2876,-74 2876,-74 2882,-74 2888,-80 2888,-86 2888,-86 2888,-100 2888,-100 2888,-106 2882,-112 2876,-112"/>
<text text-anchor="middle" x="2769.5" y="-96.8" font-family="Times,serif" font-size="14.00">comp 2</text>
<text text-anchor="middle" x="2769.5" y="-81.8" font-family="Times,serif" font-size="14.00">log gamma1: 1.047231 &#160;&#160;n kernels: &#45;896</text>
</g>
<!-- 8&#45;&gt;33 -->
<g id="edge33" class="edge"><title>8&#45;&gt;33</title>
<path fill="none" stroke="black" d="M2769.5,-155.46C2769.5,-145.67 2769.5,-133.345 2769.5,-122.307"/>
<polygon fill="black" stroke="black" points="2773,-122.244 2769.5,-112.244 2766,-122.244 2773,-122.244"/>
</g>
<!-- 34 -->
<g id="node35" class="node"><title>34</title>
<path fill="#97a3b6" stroke="black" d="M2952.5,-111C2952.5,-111 2918.5,-111 2918.5,-111 2912.5,-111 2906.5,-105 2906.5,-99 2906.5,-99 2906.5,-87 2906.5,-87 2906.5,-81 2912.5,-75 2918.5,-75 2918.5,-75 2952.5,-75 2952.5,-75 2958.5,-75 2964.5,-81 2964.5,-87 2964.5,-87 2964.5,-99 2964.5,-99 2964.5,-105 2958.5,-111 2952.5,-111"/>
<text text-anchor="middle" x="2935.5" y="-89.3" font-family="Times,serif" font-size="14.00">comp 3</text>
</g>
<!-- 8&#45;&gt;34 -->
<g id="edge34" class="edge"><title>8&#45;&gt;34</title>
<path fill="none" stroke="black" d="M2807.17,-155.46C2834.04,-142.592 2870.05,-125.346 2897.08,-112.398"/>
<polygon fill="black" stroke="black" points="2898.74,-115.488 2906.24,-108.011 2895.71,-109.174 2898.74,-115.488"/>
</g>
<!-- 35 -->
<g id="node36" class="node"><title>35</title>
<path fill="#d3e4ff" stroke="black" d="M3119,-112C3119,-112 2994,-112 2994,-112 2988,-112 2982,-106 2982,-100 2982,-100 2982,-86 2982,-86 2982,-80 2988,-74 2994,-74 2994,-74 3119,-74 3119,-74 3125,-74 3131,-80 3131,-86 3131,-86 3131,-100 3131,-100 3131,-106 3125,-112 3119,-112"/>
<text text-anchor="middle" x="3056.5" y="-96.8" font-family="Times,serif" font-size="14.00">comp 0</text>
<text text-anchor="middle" x="3056.5" y="-81.8" font-family="Times,serif" font-size="14.00">log gamma1: &#45;0.287457</text>
</g>
<!-- 9&#45;&gt;35 -->
<g id="edge35" class="edge"><title>9&#45;&gt;35</title>
<path fill="none" stroke="black" d="M3150.04,-155.46C3133.15,-144.358 3111.29,-129.996 3092.95,-117.948"/>
<polygon fill="black" stroke="black" points="3094.55,-114.81 3084.27,-112.244 3090.7,-120.66 3094.55,-114.81"/>
</g>
<!-- 36 -->
<g id="node37" class="node"><title>36</title>
<path fill="#bfcfe6" stroke="black" d="M3194.5,-111C3194.5,-111 3160.5,-111 3160.5,-111 3154.5,-111 3148.5,-105 3148.5,-99 3148.5,-99 3148.5,-87 3148.5,-87 3148.5,-81 3154.5,-75 3160.5,-75 3160.5,-75 3194.5,-75 3194.5,-75 3200.5,-75 3206.5,-81 3206.5,-87 3206.5,-87 3206.5,-99 3206.5,-99 3206.5,-105 3200.5,-111 3194.5,-111"/>
<text text-anchor="middle" x="3177.5" y="-89.3" font-family="Times,serif" font-size="14.00">comp 1</text>
</g>
<!-- 9&#45;&gt;36 -->
<g id="edge36" class="edge"><title>9&#45;&gt;36</title>
<path fill="none" stroke="black" d="M3177.5,-155.46C3177.5,-145.392 3177.5,-132.644 3177.5,-121.371"/>
<polygon fill="black" stroke="black" points="3181,-121.151 3177.5,-111.151 3174,-121.151 3181,-121.151"/>
</g>
<!-- 37 -->
<g id="node38" class="node"><title>37</title>
<path fill="#abb9ce" stroke="black" d="M3361,-112C3361,-112 3236,-112 3236,-112 3230,-112 3224,-106 3224,-100 3224,-100 3224,-86 3224,-86 3224,-80 3230,-74 3236,-74 3236,-74 3361,-74 3361,-74 3367,-74 3373,-80 3373,-86 3373,-86 3373,-100 3373,-100 3373,-106 3367,-112 3361,-112"/>
<text text-anchor="middle" x="3298.5" y="-96.8" font-family="Times,serif" font-size="14.00">comp 2</text>
<text text-anchor="middle" x="3298.5" y="-81.8" font-family="Times,serif" font-size="14.00">log gamma2: &#45;0.353336</text>
</g>
<!-- 9&#45;&gt;37 -->
<g id="edge37" class="edge"><title>9&#45;&gt;37</title>
<path fill="none" stroke="black" d="M3204.96,-155.46C3221.85,-144.358 3243.71,-129.996 3262.05,-117.948"/>
<polygon fill="black" stroke="black" points="3264.3,-120.66 3270.73,-112.244 3260.45,-114.81 3264.3,-120.66"/>
</g>
<!-- 38 -->
<g id="node39" class="node"><title>38</title>
<path fill="#97a3b6" stroke="black" d="M3436.5,-111C3436.5,-111 3402.5,-111 3402.5,-111 3396.5,-111 3390.5,-105 3390.5,-99 3390.5,-99 3390.5,-87 3390.5,-87 3390.5,-81 3396.5,-75 3402.5,-75 3402.5,-75 3436.5,-75 3436.5,-75 3442.5,-75 3448.5,-81 3448.5,-87 3448.5,-87 3448.5,-99 3448.5,-99 3448.5,-105 3442.5,-111 3436.5,-111"/>
<text text-anchor="middle" x="3419.5" y="-89.3" font-family="Times,serif" font-size="14.00">comp 3</text>
</g>
<!-- 9&#45;&gt;38 -->
<g id="edge38" class="edge"><title>9&#45;&gt;38</title>
<path fill="none" stroke="black" d="M3227.25,-160.743C3266.79,-150.102 3323.52,-133.716 3380.68,-112.061"/>
<polygon fill="black" stroke="black" points="3382.15,-115.247 3390.23,-108.396 3379.64,-108.712 3382.15,-115.247"/>
</g>
<!-- 39 -->
<g id="node40" class="node"><title>39</title>
<path fill="#d3e4ff" stroke="black" d="M3512.5,-111C3512.5,-111 3478.5,-111 3478.5,-111 3472.5,-111 3466.5,-105 3466.5,-99 3466.5,-99 3466.5,-87 3466.5,-87 3466.5,-81 3472.5,-75 3478.5,-75 3478.5,-75 3512.5,-75 3512.5,-75 3518.5,-75 3524.5,-81 3524.5,-87 3524.5,-87 3524.5,-99 3524.5,-99 3524.5,-105 3518.5,-111 3512.5,-111"/>
<text text-anchor="middle" x="3495.5" y="-89.3" font-family="Times,serif" font-size="14.00">comp 0</text>
</g>
<!-- 10&#45;&gt;39 -->
<g id="edge39" class="edge"><title>10&#45;&gt;39</title>
<path fill="none" stroke="black" d="M3554.25,-155.46C3543.84,-144.562 3530.41,-130.523 3519.03,-118.614"/>
<polygon fill="black" stroke="black" points="3521.34,-115.961 3511.9,-111.151 3516.28,-120.798 3521.34,-115.961"/>
</g>
<!-- 40 -->
<g id="node41" class="node"><title>40</title>
<path fill="#bfcfe6" stroke="black" d="M3588.5,-111C3588.5,-111 3554.5,-111 3554.5,-111 3548.5,-111 3542.5,-105 3542.5,-99 3542.5,-99 3542.5,-87 3542.5,-87 3542.5,-81 3548.5,-75 3554.5,-75 3554.5,-75 3588.5,-75 3588.5,-75 3594.5,-75 3600.5,-81 3600.5,-87 3600.5,-87 3600.5,-99 3600.5,-99 3600.5,-105 3594.5,-111 3588.5,-111"/>
<text text-anchor="middle" x="3571.5" y="-89.3" font-family="Times,serif" font-size="14.00">comp 1</text>
</g>
<!-- 10&#45;&gt;40 -->
<g id="edge40" class="edge"><title>10&#45;&gt;40</title>
<path fill="none" stroke="black" d="M3571.5,-155.46C3571.5,-145.392 3571.5,-132.644 3571.5,-121.371"/>
<polygon fill="black" stroke="black" points="3575,-121.151 3571.5,-111.151 3568,-121.151 3575,-121.151"/>
</g>
<!-- 41 -->
<g id="node42" class="node"><title>41</title>
<path fill="#abb9ce" stroke="black" d="M3850.5,-112C3850.5,-112 3630.5,-112 3630.5,-112 3624.5,-112 3618.5,-106 3618.5,-100 3618.5,-100 3618.5,-86 3618.5,-86 3618.5,-80 3624.5,-74 3630.5,-74 3630.5,-74 3850.5,-74 3850.5,-74 3856.5,-74 3862.5,-80 3862.5,-86 3862.5,-86 3862.5,-100 3862.5,-100 3862.5,-106 3856.5,-112 3850.5,-112"/>
<text text-anchor="middle" x="3740.5" y="-96.8" font-family="Times,serif" font-size="14.00">comp 2</text>
<text text-anchor="middle" x="3740.5" y="-81.8" font-family="Times,serif" font-size="14.00">dilation rate: &#45;1 &#160;&#160;log gamma2: &#45;0.628909</text>
</g>
<!-- 10&#45;&gt;41 -->
<g id="edge41" class="edge"><title>10&#45;&gt;41</title>
<path fill="none" stroke="black" d="M3609.85,-155.46C3634.39,-143.913 3666.44,-128.841 3692.64,-116.512"/>
<polygon fill="black" stroke="black" points="3694.45,-119.53 3702.01,-112.106 3691.47,-113.195 3694.45,-119.53"/>
</g>
<!-- 42 -->
<g id="node43" class="node"><title>42</title>
<path fill="#97a3b6" stroke="black" d="M3926.5,-111C3926.5,-111 3892.5,-111 3892.5,-111 3886.5,-111 3880.5,-105 3880.5,-99 3880.5,-99 3880.5,-87 3880.5,-87 3880.5,-81 3886.5,-75 3892.5,-75 3892.5,-75 3926.5,-75 3926.5,-75 3932.5,-75 3938.5,-81 3938.5,-87 3938.5,-87 3938.5,-99 3938.5,-99 3938.5,-105 3932.5,-111 3926.5,-111"/>
<text text-anchor="middle" x="3909.5" y="-89.3" font-family="Times,serif" font-size="14.00">comp 3</text>
</g>
<!-- 10&#45;&gt;42 -->
<g id="edge42" class="edge"><title>10&#45;&gt;42</title>
<path fill="none" stroke="black" d="M3664.25,-160.396C3721.73,-150.902 3796.89,-135.999 3870.43,-111.963"/>
<polygon fill="black" stroke="black" points="3871.95,-115.148 3880.33,-108.67 3869.74,-108.507 3871.95,-115.148"/>
</g>
<!-- 43 -->
<g id="node44" class="node"><title>43</title>
<path fill="#d3e4ff" stroke="black" d="M4034.5,-111C4034.5,-111 4000.5,-111 4000.5,-111 3994.5,-111 3988.5,-105 3988.5,-99 3988.5,-99 3988.5,-87 3988.5,-87 3988.5,-81 3994.5,-75 4000.5,-75 4000.5,-75 4034.5,-75 4034.5,-75 4040.5,-75 4046.5,-81 4046.5,-87 4046.5,-87 4046.5,-99 4046.5,-99 4046.5,-105 4040.5,-111 4034.5,-111"/>
<text text-anchor="middle" x="4017.5" y="-89.3" font-family="Times,serif" font-size="14.00">comp 0</text>
</g>
<!-- 11&#45;&gt;43 -->
<g id="edge43" class="edge"><title>11&#45;&gt;43</title>
<path fill="none" stroke="black" d="M4077.01,-156.25C4066.45,-145.207 4052.59,-130.71 4040.91,-118.484"/>
<polygon fill="black" stroke="black" points="4043.4,-116.027 4033.96,-111.217 4038.34,-120.864 4043.4,-116.027"/>
</g>
<!-- 44 -->
<g id="node45" class="node"><title>44</title>
<path fill="#bfcfe6" stroke="black" d="M4110.5,-111C4110.5,-111 4076.5,-111 4076.5,-111 4070.5,-111 4064.5,-105 4064.5,-99 4064.5,-99 4064.5,-87 4064.5,-87 4064.5,-81 4070.5,-75 4076.5,-75 4076.5,-75 4110.5,-75 4110.5,-75 4116.5,-75 4122.5,-81 4122.5,-87 4122.5,-87 4122.5,-99 4122.5,-99 4122.5,-105 4116.5,-111 4110.5,-111"/>
<text text-anchor="middle" x="4093.5" y="-89.3" font-family="Times,serif" font-size="14.00">comp 1</text>
</g>
<!-- 11&#45;&gt;44 -->
<g id="edge44" class="edge"><title>11&#45;&gt;44</title>
<path fill="none" stroke="black" d="M4093.5,-156.25C4093.5,-146.04 4093.5,-132.878 4093.5,-121.288"/>
<polygon fill="black" stroke="black" points="4097,-121.217 4093.5,-111.217 4090,-121.217 4097,-121.217"/>
</g>
<!-- 45 -->
<g id="node46" class="node"><title>45</title>
<path fill="#abb9ce" stroke="black" d="M4277,-112C4277,-112 4152,-112 4152,-112 4146,-112 4140,-106 4140,-100 4140,-100 4140,-86 4140,-86 4140,-80 4146,-74 4152,-74 4152,-74 4277,-74 4277,-74 4283,-74 4289,-80 4289,-86 4289,-86 4289,-100 4289,-100 4289,-106 4283,-112 4277,-112"/>
<text text-anchor="middle" x="4214.5" y="-96.8" font-family="Times,serif" font-size="14.00">comp 2</text>
<text text-anchor="middle" x="4214.5" y="-81.8" font-family="Times,serif" font-size="14.00">log gamma2: &#45;0.468750</text>
</g>
<!-- 11&#45;&gt;45 -->
<g id="edge45" class="edge"><title>11&#45;&gt;45</title>
<path fill="none" stroke="black" d="M4119.46,-156.445C4136.68,-145.13 4159.52,-130.124 4178.49,-117.659"/>
<polygon fill="black" stroke="black" points="4180.47,-120.549 4186.9,-112.132 4176.62,-114.698 4180.47,-120.549"/>
</g>
<!-- 46 -->
<g id="node47" class="node"><title>46</title>
<path fill="#97a3b6" stroke="black" d="M4352.5,-111C4352.5,-111 4318.5,-111 4318.5,-111 4312.5,-111 4306.5,-105 4306.5,-99 4306.5,-99 4306.5,-87 4306.5,-87 4306.5,-81 4312.5,-75 4318.5,-75 4318.5,-75 4352.5,-75 4352.5,-75 4358.5,-75 4364.5,-81 4364.5,-87 4364.5,-87 4364.5,-99 4364.5,-99 4364.5,-105 4358.5,-111 4352.5,-111"/>
<text text-anchor="middle" x="4335.5" y="-89.3" font-family="Times,serif" font-size="14.00">comp 3</text>
</g>
<!-- 11&#45;&gt;46 -->
<g id="edge46" class="edge"><title>11&#45;&gt;46</title>
<path fill="none" stroke="black" d="M4143.25,-160.743C4182.79,-150.102 4239.52,-133.716 4296.68,-112.061"/>
<polygon fill="black" stroke="black" points="4298.15,-115.247 4306.23,-108.396 4295.64,-108.712 4298.15,-115.247"/>
</g>
<!-- 47 -->
<g id="node48" class="node"><title>47</title>
<path fill="#f6d3ff" stroke="black" d="M47,-38C47,-38 12,-38 12,-38 6,-38 0,-32 0,-26 0,-26 0,-12 0,-12 0,-6 6,-0 12,-0 12,-0 47,-0 47,-0 53,-0 59,-6 59,-12 59,-12 59,-26 59,-26 59,-32 53,-38 47,-38"/>
<text text-anchor="middle" x="29.5" y="-22.8" font-family="Times,serif" font-size="14.00">forward</text>
<text text-anchor="middle" x="29.5" y="-7.8" font-family="Times,serif" font-size="14.00">input</text>
</g>
<!-- 12&#45;&gt;47 -->
<g id="edge47" class="edge"><title>12&#45;&gt;47</title>
<path fill="none" stroke="black" d="M30.263,-74.937C30.1526,-66.9865 30.0182,-57.3134 29.8932,-48.3127"/>
<polygon fill="black" stroke="black" points="33.3914,-48.1496 29.7528,-38.1992 26.3921,-48.2468 33.3914,-48.1496"/>
</g>
<!-- 48 -->
<g id="node49" class="node"><title>48</title>
<path fill="#f6d3ff" stroke="black" d="M125.5,-38C125.5,-38 89.5,-38 89.5,-38 83.5,-38 77.5,-32 77.5,-26 77.5,-26 77.5,-12 77.5,-12 77.5,-6 83.5,-0 89.5,-0 89.5,-0 125.5,-0 125.5,-0 131.5,-0 137.5,-6 137.5,-12 137.5,-12 137.5,-26 137.5,-26 137.5,-32 131.5,-38 125.5,-38"/>
<text text-anchor="middle" x="107.5" y="-22.8" font-family="Times,serif" font-size="14.00">forward</text>
<text text-anchor="middle" x="107.5" y="-7.8" font-family="Times,serif" font-size="14.00">EB0/C0</text>
</g>
<!-- 13&#45;&gt;48 -->
<g id="edge48" class="edge"><title>13&#45;&gt;48</title>
<path fill="none" stroke="black" d="M107.5,-74.937C107.5,-66.9865 107.5,-57.3134 107.5,-48.3127"/>
<polygon fill="black" stroke="black" points="111,-48.1991 107.5,-38.1992 104,-48.1992 111,-48.1991"/>
</g>
<!-- 49 -->
<g id="node50" class="node"><title>49</title>
<path fill="#f6d3ff" stroke="black" d="M203.5,-38C203.5,-38 167.5,-38 167.5,-38 161.5,-38 155.5,-32 155.5,-26 155.5,-26 155.5,-12 155.5,-12 155.5,-6 161.5,-0 167.5,-0 167.5,-0 203.5,-0 203.5,-0 209.5,-0 215.5,-6 215.5,-12 215.5,-12 215.5,-26 215.5,-26 215.5,-32 209.5,-38 203.5,-38"/>
<text text-anchor="middle" x="185.5" y="-22.8" font-family="Times,serif" font-size="14.00">forward</text>
<text text-anchor="middle" x="185.5" y="-7.8" font-family="Times,serif" font-size="14.00">EB0/C1</text>
</g>
<!-- 14&#45;&gt;49 -->
<g id="edge49" class="edge"><title>14&#45;&gt;49</title>
<path fill="none" stroke="black" d="M183.974,-74.937C184.195,-66.9865 184.464,-57.3134 184.714,-48.3127"/>
<polygon fill="black" stroke="black" points="188.215,-48.2925 184.994,-38.1992 181.218,-48.0981 188.215,-48.2925"/>
</g>
<!-- 50 -->
<g id="node51" class="node"><title>50</title>
<path fill="#f6d3ff" stroke="black" d="M320.5,-38C320.5,-38 284.5,-38 284.5,-38 278.5,-38 272.5,-32 272.5,-26 272.5,-26 272.5,-12 272.5,-12 272.5,-6 278.5,-0 284.5,-0 284.5,-0 320.5,-0 320.5,-0 326.5,-0 332.5,-6 332.5,-12 332.5,-12 332.5,-26 332.5,-26 332.5,-32 326.5,-38 320.5,-38"/>
<text text-anchor="middle" x="302.5" y="-22.8" font-family="Times,serif" font-size="14.00">forward</text>
<text text-anchor="middle" x="302.5" y="-7.8" font-family="Times,serif" font-size="14.00">EB0/C2</text>
</g>
<!-- 15&#45;&gt;50 -->
<g id="edge50" class="edge"><title>15&#45;&gt;50</title>
<path fill="none" stroke="black" d="M302.5,-73.8314C302.5,-66.131 302.5,-56.9743 302.5,-48.4166"/>
<polygon fill="black" stroke="black" points="306,-48.4132 302.5,-38.4133 299,-48.4133 306,-48.4132"/>
</g>
<!-- 51 -->
<g id="node52" class="node"><title>51</title>
<path fill="#f6d3ff" stroke="black" d="M439.5,-38C439.5,-38 403.5,-38 403.5,-38 397.5,-38 391.5,-32 391.5,-26 391.5,-26 391.5,-12 391.5,-12 391.5,-6 397.5,-0 403.5,-0 403.5,-0 439.5,-0 439.5,-0 445.5,-0 451.5,-6 451.5,-12 451.5,-12 451.5,-26 451.5,-26 451.5,-32 445.5,-38 439.5,-38"/>
<text text-anchor="middle" x="421.5" y="-22.8" font-family="Times,serif" font-size="14.00">forward</text>
<text text-anchor="middle" x="421.5" y="-7.8" font-family="Times,serif" font-size="14.00">EB0/C3</text>
</g>
<!-- 16&#45;&gt;51 -->
<g id="edge51" class="edge"><title>16&#45;&gt;51</title>
<path fill="none" stroke="black" d="M421.5,-74.937C421.5,-66.9865 421.5,-57.3134 421.5,-48.3127"/>
<polygon fill="black" stroke="black" points="425,-48.1991 421.5,-38.1992 418,-48.1992 425,-48.1991"/>
</g>
<!-- 52 -->
<g id="node53" class="node"><title>52</title>
<path fill="#f6d3ff" stroke="black" d="M558.5,-38C558.5,-38 522.5,-38 522.5,-38 516.5,-38 510.5,-32 510.5,-26 510.5,-26 510.5,-12 510.5,-12 510.5,-6 516.5,-0 522.5,-0 522.5,-0 558.5,-0 558.5,-0 564.5,-0 570.5,-6 570.5,-12 570.5,-12 570.5,-26 570.5,-26 570.5,-32 564.5,-38 558.5,-38"/>
<text text-anchor="middle" x="540.5" y="-22.8" font-family="Times,serif" font-size="14.00">forward</text>
<text text-anchor="middle" x="540.5" y="-7.8" font-family="Times,serif" font-size="14.00">EB1/C0</text>
</g>
<!-- 17&#45;&gt;52 -->
<g id="edge52" class="edge"><title>17&#45;&gt;52</title>
<path fill="none" stroke="black" d="M540.5,-73.8314C540.5,-66.131 540.5,-56.9743 540.5,-48.4166"/>
<polygon fill="black" stroke="black" points="544,-48.4132 540.5,-38.4133 537,-48.4133 544,-48.4132"/>
</g>
<!-- 53 -->
<g id="node54" class="node"><title>53</title>
<path fill="#f6d3ff" stroke="black" d="M792.5,-38C792.5,-38 756.5,-38 756.5,-38 750.5,-38 744.5,-32 744.5,-26 744.5,-26 744.5,-12 744.5,-12 744.5,-6 750.5,-0 756.5,-0 756.5,-0 792.5,-0 792.5,-0 798.5,-0 804.5,-6 804.5,-12 804.5,-12 804.5,-26 804.5,-26 804.5,-32 798.5,-38 792.5,-38"/>
<text text-anchor="middle" x="774.5" y="-22.8" font-family="Times,serif" font-size="14.00">forward</text>
<text text-anchor="middle" x="774.5" y="-7.8" font-family="Times,serif" font-size="14.00">EB1/C1</text>
</g>
<!-- 18&#45;&gt;53 -->
<g id="edge53" class="edge"><title>18&#45;&gt;53</title>
<path fill="none" stroke="black" d="M774.5,-73.8314C774.5,-66.131 774.5,-56.9743 774.5,-48.4166"/>
<polygon fill="black" stroke="black" points="778,-48.4132 774.5,-38.4133 771,-48.4133 778,-48.4132"/>
</g>
<!-- 54 -->
<g id="node55" class="node"><title>54</title>
<path fill="#f6d3ff" stroke="black" d="M1028.5,-38C1028.5,-38 992.5,-38 992.5,-38 986.5,-38 980.5,-32 980.5,-26 980.5,-26 980.5,-12 980.5,-12 980.5,-6 986.5,-0 992.5,-0 992.5,-0 1028.5,-0 1028.5,-0 1034.5,-0 1040.5,-6 1040.5,-12 1040.5,-12 1040.5,-26 1040.5,-26 1040.5,-32 1034.5,-38 1028.5,-38"/>
<text text-anchor="middle" x="1010.5" y="-22.8" font-family="Times,serif" font-size="14.00">forward</text>
<text text-anchor="middle" x="1010.5" y="-7.8" font-family="Times,serif" font-size="14.00">EB1/C2</text>
</g>
<!-- 19&#45;&gt;54 -->
<g id="edge54" class="edge"><title>19&#45;&gt;54</title>
<path fill="none" stroke="black" d="M1010.5,-73.8314C1010.5,-66.131 1010.5,-56.9743 1010.5,-48.4166"/>
<polygon fill="black" stroke="black" points="1014,-48.4132 1010.5,-38.4133 1007,-48.4133 1014,-48.4132"/>
</g>
<!-- 55 -->
<g id="node56" class="node"><title>55</title>
<path fill="#f6d3ff" stroke="black" d="M1169.5,-38C1169.5,-38 1133.5,-38 1133.5,-38 1127.5,-38 1121.5,-32 1121.5,-26 1121.5,-26 1121.5,-12 1121.5,-12 1121.5,-6 1127.5,-0 1133.5,-0 1133.5,-0 1169.5,-0 1169.5,-0 1175.5,-0 1181.5,-6 1181.5,-12 1181.5,-12 1181.5,-26 1181.5,-26 1181.5,-32 1175.5,-38 1169.5,-38"/>
<text text-anchor="middle" x="1151.5" y="-22.8" font-family="Times,serif" font-size="14.00">forward</text>
<text text-anchor="middle" x="1151.5" y="-7.8" font-family="Times,serif" font-size="14.00">EB1/C3</text>
</g>
<!-- 20&#45;&gt;55 -->
<g id="edge55" class="edge"><title>20&#45;&gt;55</title>
<path fill="none" stroke="black" d="M1151.5,-73.8314C1151.5,-66.131 1151.5,-56.9743 1151.5,-48.4166"/>
<polygon fill="black" stroke="black" points="1155,-48.4132 1151.5,-38.4133 1148,-48.4133 1155,-48.4132"/>
</g>
<!-- 56 -->
<g id="node57" class="node"><title>56</title>
<path fill="#f6d3ff" stroke="black" d="M1278.5,-38C1278.5,-38 1242.5,-38 1242.5,-38 1236.5,-38 1230.5,-32 1230.5,-26 1230.5,-26 1230.5,-12 1230.5,-12 1230.5,-6 1236.5,-0 1242.5,-0 1242.5,-0 1278.5,-0 1278.5,-0 1284.5,-0 1290.5,-6 1290.5,-12 1290.5,-12 1290.5,-26 1290.5,-26 1290.5,-32 1284.5,-38 1278.5,-38"/>
<text text-anchor="middle" x="1260.5" y="-22.8" font-family="Times,serif" font-size="14.00">forward</text>
<text text-anchor="middle" x="1260.5" y="-7.8" font-family="Times,serif" font-size="14.00">EB2/C0</text>
</g>
<!-- 21&#45;&gt;56 -->
<g id="edge56" class="edge"><title>21&#45;&gt;56</title>
<path fill="none" stroke="black" d="M1260.5,-73.8314C1260.5,-66.131 1260.5,-56.9743 1260.5,-48.4166"/>
<polygon fill="black" stroke="black" points="1264,-48.4132 1260.5,-38.4133 1257,-48.4133 1264,-48.4132"/>
</g>
<!-- 57 -->
<g id="node58" class="node"><title>57</title>
<path fill="#f6d3ff" stroke="black" d="M1367.5,-38C1367.5,-38 1331.5,-38 1331.5,-38 1325.5,-38 1319.5,-32 1319.5,-26 1319.5,-26 1319.5,-12 1319.5,-12 1319.5,-6 1325.5,-0 1331.5,-0 1331.5,-0 1367.5,-0 1367.5,-0 1373.5,-0 1379.5,-6 1379.5,-12 1379.5,-12 1379.5,-26 1379.5,-26 1379.5,-32 1373.5,-38 1367.5,-38"/>
<text text-anchor="middle" x="1349.5" y="-22.8" font-family="Times,serif" font-size="14.00">forward</text>
<text text-anchor="middle" x="1349.5" y="-7.8" font-family="Times,serif" font-size="14.00">EB2/C1</text>
</g>
<!-- 22&#45;&gt;57 -->
<g id="edge57" class="edge"><title>22&#45;&gt;57</title>
<path fill="none" stroke="black" d="M1350.26,-74.937C1350.15,-66.9865 1350.02,-57.3134 1349.89,-48.3127"/>
<polygon fill="black" stroke="black" points="1353.39,-48.1496 1349.75,-38.1992 1346.39,-48.2468 1353.39,-48.1496"/>
</g>
<!-- 58 -->
<g id="node59" class="node"><title>58</title>
<path fill="#f6d3ff" stroke="black" d="M1445.5,-38C1445.5,-38 1409.5,-38 1409.5,-38 1403.5,-38 1397.5,-32 1397.5,-26 1397.5,-26 1397.5,-12 1397.5,-12 1397.5,-6 1403.5,-0 1409.5,-0 1409.5,-0 1445.5,-0 1445.5,-0 1451.5,-0 1457.5,-6 1457.5,-12 1457.5,-12 1457.5,-26 1457.5,-26 1457.5,-32 1451.5,-38 1445.5,-38"/>
<text text-anchor="middle" x="1427.5" y="-22.8" font-family="Times,serif" font-size="14.00">forward</text>
<text text-anchor="middle" x="1427.5" y="-7.8" font-family="Times,serif" font-size="14.00">EB2/C2</text>
</g>
<!-- 23&#45;&gt;58 -->
<g id="edge58" class="edge"><title>23&#45;&gt;58</title>
<path fill="none" stroke="black" d="M1426.74,-74.937C1426.85,-66.9865 1426.98,-57.3134 1427.11,-48.3127"/>
<polygon fill="black" stroke="black" points="1430.61,-48.2468 1427.25,-38.1992 1423.61,-48.1496 1430.61,-48.2468"/>
</g>
<!-- 59 -->
<g id="node60" class="node"><title>59</title>
<path fill="#f6d3ff" stroke="black" d="M1563.5,-38C1563.5,-38 1527.5,-38 1527.5,-38 1521.5,-38 1515.5,-32 1515.5,-26 1515.5,-26 1515.5,-12 1515.5,-12 1515.5,-6 1521.5,-0 1527.5,-0 1527.5,-0 1563.5,-0 1563.5,-0 1569.5,-0 1575.5,-6 1575.5,-12 1575.5,-12 1575.5,-26 1575.5,-26 1575.5,-32 1569.5,-38 1563.5,-38"/>
<text text-anchor="middle" x="1545.5" y="-22.8" font-family="Times,serif" font-size="14.00">forward</text>
<text text-anchor="middle" x="1545.5" y="-7.8" font-family="Times,serif" font-size="14.00">EB2/C3</text>
</g>
<!-- 24&#45;&gt;59 -->
<g id="edge59" class="edge"><title>24&#45;&gt;59</title>
<path fill="none" stroke="black" d="M1545.5,-73.8314C1545.5,-66.131 1545.5,-56.9743 1545.5,-48.4166"/>
<polygon fill="black" stroke="black" points="1549,-48.4132 1545.5,-38.4133 1542,-48.4133 1549,-48.4132"/>
</g>
<!-- 60 -->
<g id="node61" class="node"><title>60</title>
<path fill="#f6d3ff" stroke="black" d="M1797.5,-38C1797.5,-38 1761.5,-38 1761.5,-38 1755.5,-38 1749.5,-32 1749.5,-26 1749.5,-26 1749.5,-12 1749.5,-12 1749.5,-6 1755.5,-0 1761.5,-0 1761.5,-0 1797.5,-0 1797.5,-0 1803.5,-0 1809.5,-6 1809.5,-12 1809.5,-12 1809.5,-26 1809.5,-26 1809.5,-32 1803.5,-38 1797.5,-38"/>
<text text-anchor="middle" x="1779.5" y="-22.8" font-family="Times,serif" font-size="14.00">forward</text>
<text text-anchor="middle" x="1779.5" y="-7.8" font-family="Times,serif" font-size="14.00">EB3/C0</text>
</g>
<!-- 25&#45;&gt;60 -->
<g id="edge60" class="edge"><title>25&#45;&gt;60</title>
<path fill="none" stroke="black" d="M1779.5,-73.8314C1779.5,-66.131 1779.5,-56.9743 1779.5,-48.4166"/>
<polygon fill="black" stroke="black" points="1783,-48.4132 1779.5,-38.4133 1776,-48.4133 1783,-48.4132"/>
</g>
<!-- 61 -->
<g id="node62" class="node"><title>61</title>
<path fill="#f6d3ff" stroke="black" d="M1987.5,-38C1987.5,-38 1951.5,-38 1951.5,-38 1945.5,-38 1939.5,-32 1939.5,-26 1939.5,-26 1939.5,-12 1939.5,-12 1939.5,-6 1945.5,-0 1951.5,-0 1951.5,-0 1987.5,-0 1987.5,-0 1993.5,-0 1999.5,-6 1999.5,-12 1999.5,-12 1999.5,-26 1999.5,-26 1999.5,-32 1993.5,-38 1987.5,-38"/>
<text text-anchor="middle" x="1969.5" y="-22.8" font-family="Times,serif" font-size="14.00">forward</text>
<text text-anchor="middle" x="1969.5" y="-7.8" font-family="Times,serif" font-size="14.00">EB3/C1</text>
</g>
<!-- 26&#45;&gt;61 -->
<g id="edge61" class="edge"><title>26&#45;&gt;61</title>
<path fill="none" stroke="black" d="M1970.26,-74.937C1970.15,-66.9865 1970.02,-57.3134 1969.89,-48.3127"/>
<polygon fill="black" stroke="black" points="1973.39,-48.1496 1969.75,-38.1992 1966.39,-48.2468 1973.39,-48.1496"/>
</g>
<!-- 62 -->
<g id="node63" class="node"><title>62</title>
<path fill="#f6d3ff" stroke="black" d="M2065.5,-38C2065.5,-38 2029.5,-38 2029.5,-38 2023.5,-38 2017.5,-32 2017.5,-26 2017.5,-26 2017.5,-12 2017.5,-12 2017.5,-6 2023.5,-0 2029.5,-0 2029.5,-0 2065.5,-0 2065.5,-0 2071.5,-0 2077.5,-6 2077.5,-12 2077.5,-12 2077.5,-26 2077.5,-26 2077.5,-32 2071.5,-38 2065.5,-38"/>
<text text-anchor="middle" x="2047.5" y="-22.8" font-family="Times,serif" font-size="14.00">forward</text>
<text text-anchor="middle" x="2047.5" y="-7.8" font-family="Times,serif" font-size="14.00">EB3/C2</text>
</g>
<!-- 27&#45;&gt;62 -->
<g id="edge62" class="edge"><title>27&#45;&gt;62</title>
<path fill="none" stroke="black" d="M2047.5,-74.937C2047.5,-66.9865 2047.5,-57.3134 2047.5,-48.3127"/>
<polygon fill="black" stroke="black" points="2051,-48.1991 2047.5,-38.1992 2044,-48.1992 2051,-48.1991"/>
</g>
<!-- 63 -->
<g id="node64" class="node"><title>63</title>
<path fill="#f6d3ff" stroke="black" d="M2187.5,-38C2187.5,-38 2149.5,-38 2149.5,-38 2143.5,-38 2137.5,-32 2137.5,-26 2137.5,-26 2137.5,-12 2137.5,-12 2137.5,-6 2143.5,-0 2149.5,-0 2149.5,-0 2187.5,-0 2187.5,-0 2193.5,-0 2199.5,-6 2199.5,-12 2199.5,-12 2199.5,-26 2199.5,-26 2199.5,-32 2193.5,-38 2187.5,-38"/>
<text text-anchor="middle" x="2168.5" y="-22.8" font-family="Times,serif" font-size="14.00">forward</text>
<text text-anchor="middle" x="2168.5" y="-7.8" font-family="Times,serif" font-size="14.00">DB4/C0</text>
</g>
<!-- 28&#45;&gt;63 -->
<g id="edge63" class="edge"><title>28&#45;&gt;63</title>
<path fill="none" stroke="black" d="M2168.5,-73.8314C2168.5,-66.131 2168.5,-56.9743 2168.5,-48.4166"/>
<polygon fill="black" stroke="black" points="2172,-48.4132 2168.5,-38.4133 2165,-48.4133 2172,-48.4132"/>
</g>
<!-- 64 -->
<g id="node65" class="node"><title>64</title>
<path fill="#f6d3ff" stroke="black" d="M2304.5,-38C2304.5,-38 2266.5,-38 2266.5,-38 2260.5,-38 2254.5,-32 2254.5,-26 2254.5,-26 2254.5,-12 2254.5,-12 2254.5,-6 2260.5,-0 2266.5,-0 2266.5,-0 2304.5,-0 2304.5,-0 2310.5,-0 2316.5,-6 2316.5,-12 2316.5,-12 2316.5,-26 2316.5,-26 2316.5,-32 2310.5,-38 2304.5,-38"/>
<text text-anchor="middle" x="2285.5" y="-22.8" font-family="Times,serif" font-size="14.00">forward</text>
<text text-anchor="middle" x="2285.5" y="-7.8" font-family="Times,serif" font-size="14.00">DB4/C1</text>
</g>
<!-- 29&#45;&gt;64 -->
<g id="edge64" class="edge"><title>29&#45;&gt;64</title>
<path fill="none" stroke="black" d="M2288.55,-74.937C2288.11,-66.9865 2287.57,-57.3134 2287.07,-48.3127"/>
<polygon fill="black" stroke="black" points="2290.56,-47.9896 2286.51,-38.1992 2283.57,-48.3779 2290.56,-47.9896"/>
</g>
<!-- 65 -->
<g id="node66" class="node"><title>65</title>
<path fill="#f6d3ff" stroke="black" d="M2384.5,-38C2384.5,-38 2346.5,-38 2346.5,-38 2340.5,-38 2334.5,-32 2334.5,-26 2334.5,-26 2334.5,-12 2334.5,-12 2334.5,-6 2340.5,-0 2346.5,-0 2346.5,-0 2384.5,-0 2384.5,-0 2390.5,-0 2396.5,-6 2396.5,-12 2396.5,-12 2396.5,-26 2396.5,-26 2396.5,-32 2390.5,-38 2384.5,-38"/>
<text text-anchor="middle" x="2365.5" y="-22.8" font-family="Times,serif" font-size="14.00">forward</text>
<text text-anchor="middle" x="2365.5" y="-7.8" font-family="Times,serif" font-size="14.00">DB4/C2</text>
</g>
<!-- 30&#45;&gt;65 -->
<g id="edge65" class="edge"><title>30&#45;&gt;65</title>
<path fill="none" stroke="black" d="M2365.5,-74.937C2365.5,-66.9865 2365.5,-57.3134 2365.5,-48.3127"/>
<polygon fill="black" stroke="black" points="2369,-48.1991 2365.5,-38.1992 2362,-48.1992 2369,-48.1991"/>
</g>
<!-- 66 -->
<g id="node67" class="node"><title>66</title>
<path fill="#f6d3ff" stroke="black" d="M2464.5,-38C2464.5,-38 2426.5,-38 2426.5,-38 2420.5,-38 2414.5,-32 2414.5,-26 2414.5,-26 2414.5,-12 2414.5,-12 2414.5,-6 2420.5,-0 2426.5,-0 2426.5,-0 2464.5,-0 2464.5,-0 2470.5,-0 2476.5,-6 2476.5,-12 2476.5,-12 2476.5,-26 2476.5,-26 2476.5,-32 2470.5,-38 2464.5,-38"/>
<text text-anchor="middle" x="2445.5" y="-22.8" font-family="Times,serif" font-size="14.00">forward</text>
<text text-anchor="middle" x="2445.5" y="-7.8" font-family="Times,serif" font-size="14.00">DB4/C3</text>
</g>
<!-- 31&#45;&gt;66 -->
<g id="edge66" class="edge"><title>31&#45;&gt;66</title>
<path fill="none" stroke="black" d="M2474.66,-73.8314C2470.3,-65.7925 2465.09,-56.1666 2460.28,-47.2918"/>
<polygon fill="black" stroke="black" points="2463.31,-45.5392 2455.47,-38.4133 2457.16,-48.8732 2463.31,-45.5392"/>
</g>
<!-- 67 -->
<g id="node68" class="node"><title>67</title>
<path fill="#debfe6" stroke="black" d="M2542.5,-38C2542.5,-38 2506.5,-38 2506.5,-38 2500.5,-38 2494.5,-32 2494.5,-26 2494.5,-26 2494.5,-12 2494.5,-12 2494.5,-6 2500.5,-0 2506.5,-0 2506.5,-0 2542.5,-0 2542.5,-0 2548.5,-0 2554.5,-6 2554.5,-12 2554.5,-12 2554.5,-26 2554.5,-26 2554.5,-32 2548.5,-38 2542.5,-38"/>
<text text-anchor="middle" x="2524.5" y="-22.8" font-family="Times,serif" font-size="14.00">merge</text>
<text text-anchor="middle" x="2524.5" y="-7.8" font-family="Times,serif" font-size="14.00">EB3/C2</text>
</g>
<!-- 31&#45;&gt;67 -->
<g id="edge67" class="edge"><title>31&#45;&gt;67</title>
<path fill="none" stroke="black" d="M2494.59,-73.8314C2499.06,-65.7925 2504.41,-56.1666 2509.34,-47.2918"/>
<polygon fill="black" stroke="black" points="2512.47,-48.8546 2514.27,-38.4133 2506.35,-45.4551 2512.47,-48.8546"/>
</g>
<!-- 68 -->
<g id="node69" class="node"><title>68</title>
<path fill="#f6d3ff" stroke="black" d="M2622.5,-38C2622.5,-38 2584.5,-38 2584.5,-38 2578.5,-38 2572.5,-32 2572.5,-26 2572.5,-26 2572.5,-12 2572.5,-12 2572.5,-6 2578.5,-0 2584.5,-0 2584.5,-0 2622.5,-0 2622.5,-0 2628.5,-0 2634.5,-6 2634.5,-12 2634.5,-12 2634.5,-26 2634.5,-26 2634.5,-32 2628.5,-38 2622.5,-38"/>
<text text-anchor="middle" x="2603.5" y="-22.8" font-family="Times,serif" font-size="14.00">forward</text>
<text text-anchor="middle" x="2603.5" y="-7.8" font-family="Times,serif" font-size="14.00">DB3/C0</text>
</g>
<!-- 32&#45;&gt;68 -->
<g id="edge68" class="edge"><title>32&#45;&gt;68</title>
<path fill="none" stroke="black" d="M2603.5,-74.937C2603.5,-66.9865 2603.5,-57.3134 2603.5,-48.3127"/>
<polygon fill="black" stroke="black" points="2607,-48.1991 2603.5,-38.1992 2600,-48.1992 2607,-48.1991"/>
</g>
<!-- 69 -->
<g id="node70" class="node"><title>69</title>
<path fill="#f6d3ff" stroke="black" d="M2788.5,-38C2788.5,-38 2750.5,-38 2750.5,-38 2744.5,-38 2738.5,-32 2738.5,-26 2738.5,-26 2738.5,-12 2738.5,-12 2738.5,-6 2744.5,-0 2750.5,-0 2750.5,-0 2788.5,-0 2788.5,-0 2794.5,-0 2800.5,-6 2800.5,-12 2800.5,-12 2800.5,-26 2800.5,-26 2800.5,-32 2794.5,-38 2788.5,-38"/>
<text text-anchor="middle" x="2769.5" y="-22.8" font-family="Times,serif" font-size="14.00">forward</text>
<text text-anchor="middle" x="2769.5" y="-7.8" font-family="Times,serif" font-size="14.00">DB3/C1</text>
</g>
<!-- 33&#45;&gt;69 -->
<g id="edge69" class="edge"><title>33&#45;&gt;69</title>
<path fill="none" stroke="black" d="M2769.5,-73.8314C2769.5,-66.131 2769.5,-56.9743 2769.5,-48.4166"/>
<polygon fill="black" stroke="black" points="2773,-48.4132 2769.5,-38.4133 2766,-48.4133 2773,-48.4132"/>
</g>
<!-- 70 -->
<g id="node71" class="node"><title>70</title>
<path fill="#f6d3ff" stroke="black" d="M2954.5,-38C2954.5,-38 2916.5,-38 2916.5,-38 2910.5,-38 2904.5,-32 2904.5,-26 2904.5,-26 2904.5,-12 2904.5,-12 2904.5,-6 2910.5,-0 2916.5,-0 2916.5,-0 2954.5,-0 2954.5,-0 2960.5,-0 2966.5,-6 2966.5,-12 2966.5,-12 2966.5,-26 2966.5,-26 2966.5,-32 2960.5,-38 2954.5,-38"/>
<text text-anchor="middle" x="2935.5" y="-22.8" font-family="Times,serif" font-size="14.00">forward</text>
<text text-anchor="middle" x="2935.5" y="-7.8" font-family="Times,serif" font-size="14.00">DB3/C2</text>
</g>
<!-- 34&#45;&gt;70 -->
<g id="edge70" class="edge"><title>34&#45;&gt;70</title>
<path fill="none" stroke="black" d="M2935.5,-74.937C2935.5,-66.9865 2935.5,-57.3134 2935.5,-48.3127"/>
<polygon fill="black" stroke="black" points="2939,-48.1991 2935.5,-38.1992 2932,-48.1992 2939,-48.1991"/>
</g>
<!-- 71 -->
<g id="node72" class="node"><title>71</title>
<path fill="#f6d3ff" stroke="black" d="M3036.5,-38C3036.5,-38 2998.5,-38 2998.5,-38 2992.5,-38 2986.5,-32 2986.5,-26 2986.5,-26 2986.5,-12 2986.5,-12 2986.5,-6 2992.5,-0 2998.5,-0 2998.5,-0 3036.5,-0 3036.5,-0 3042.5,-0 3048.5,-6 3048.5,-12 3048.5,-12 3048.5,-26 3048.5,-26 3048.5,-32 3042.5,-38 3036.5,-38"/>
<text text-anchor="middle" x="3017.5" y="-22.8" font-family="Times,serif" font-size="14.00">forward</text>
<text text-anchor="middle" x="3017.5" y="-7.8" font-family="Times,serif" font-size="14.00">DB3/C3</text>
</g>
<!-- 35&#45;&gt;71 -->
<g id="edge71" class="edge"><title>35&#45;&gt;71</title>
<path fill="none" stroke="black" d="M3046.66,-73.8314C3042.3,-65.7925 3037.09,-56.1666 3032.28,-47.2918"/>
<polygon fill="black" stroke="black" points="3035.31,-45.5392 3027.47,-38.4133 3029.16,-48.8732 3035.31,-45.5392"/>
</g>
<!-- 72 -->
<g id="node73" class="node"><title>72</title>
<path fill="#debfe6" stroke="black" d="M3114.5,-38C3114.5,-38 3078.5,-38 3078.5,-38 3072.5,-38 3066.5,-32 3066.5,-26 3066.5,-26 3066.5,-12 3066.5,-12 3066.5,-6 3072.5,-0 3078.5,-0 3078.5,-0 3114.5,-0 3114.5,-0 3120.5,-0 3126.5,-6 3126.5,-12 3126.5,-12 3126.5,-26 3126.5,-26 3126.5,-32 3120.5,-38 3114.5,-38"/>
<text text-anchor="middle" x="3096.5" y="-22.8" font-family="Times,serif" font-size="14.00">merge</text>
<text text-anchor="middle" x="3096.5" y="-7.8" font-family="Times,serif" font-size="14.00">EB2/C3</text>
</g>
<!-- 35&#45;&gt;72 -->
<g id="edge72" class="edge"><title>35&#45;&gt;72</title>
<path fill="none" stroke="black" d="M3066.59,-73.8314C3071.06,-65.7925 3076.41,-56.1666 3081.34,-47.2918"/>
<polygon fill="black" stroke="black" points="3084.47,-48.8546 3086.27,-38.4133 3078.35,-45.4551 3084.47,-48.8546"/>
</g>
<!-- 73 -->
<g id="node74" class="node"><title>73</title>
<path fill="#f6d3ff" stroke="black" d="M3196.5,-38C3196.5,-38 3158.5,-38 3158.5,-38 3152.5,-38 3146.5,-32 3146.5,-26 3146.5,-26 3146.5,-12 3146.5,-12 3146.5,-6 3152.5,-0 3158.5,-0 3158.5,-0 3196.5,-0 3196.5,-0 3202.5,-0 3208.5,-6 3208.5,-12 3208.5,-12 3208.5,-26 3208.5,-26 3208.5,-32 3202.5,-38 3196.5,-38"/>
<text text-anchor="middle" x="3177.5" y="-22.8" font-family="Times,serif" font-size="14.00">forward</text>
<text text-anchor="middle" x="3177.5" y="-7.8" font-family="Times,serif" font-size="14.00">DB2/C0</text>
</g>
<!-- 36&#45;&gt;73 -->
<g id="edge73" class="edge"><title>36&#45;&gt;73</title>
<path fill="none" stroke="black" d="M3177.5,-74.937C3177.5,-66.9865 3177.5,-57.3134 3177.5,-48.3127"/>
<polygon fill="black" stroke="black" points="3181,-48.1991 3177.5,-38.1992 3174,-48.1992 3181,-48.1991"/>
</g>
<!-- 74 -->
<g id="node75" class="node"><title>74</title>
<path fill="#f6d3ff" stroke="black" d="M3317.5,-38C3317.5,-38 3279.5,-38 3279.5,-38 3273.5,-38 3267.5,-32 3267.5,-26 3267.5,-26 3267.5,-12 3267.5,-12 3267.5,-6 3273.5,-0 3279.5,-0 3279.5,-0 3317.5,-0 3317.5,-0 3323.5,-0 3329.5,-6 3329.5,-12 3329.5,-12 3329.5,-26 3329.5,-26 3329.5,-32 3323.5,-38 3317.5,-38"/>
<text text-anchor="middle" x="3298.5" y="-22.8" font-family="Times,serif" font-size="14.00">forward</text>
<text text-anchor="middle" x="3298.5" y="-7.8" font-family="Times,serif" font-size="14.00">DB2/C1</text>
</g>
<!-- 37&#45;&gt;74 -->
<g id="edge74" class="edge"><title>37&#45;&gt;74</title>
<path fill="none" stroke="black" d="M3298.5,-73.8314C3298.5,-66.131 3298.5,-56.9743 3298.5,-48.4166"/>
<polygon fill="black" stroke="black" points="3302,-48.4132 3298.5,-38.4133 3295,-48.4133 3302,-48.4132"/>
</g>
<!-- 75 -->
<g id="node76" class="node"><title>75</title>
<path fill="#f6d3ff" stroke="black" d="M3415.5,-38C3415.5,-38 3377.5,-38 3377.5,-38 3371.5,-38 3365.5,-32 3365.5,-26 3365.5,-26 3365.5,-12 3365.5,-12 3365.5,-6 3371.5,-0 3377.5,-0 3377.5,-0 3415.5,-0 3415.5,-0 3421.5,-0 3427.5,-6 3427.5,-12 3427.5,-12 3427.5,-26 3427.5,-26 3427.5,-32 3421.5,-38 3415.5,-38"/>
<text text-anchor="middle" x="3396.5" y="-22.8" font-family="Times,serif" font-size="14.00">forward</text>
<text text-anchor="middle" x="3396.5" y="-7.8" font-family="Times,serif" font-size="14.00">DB2/C2</text>
</g>
<!-- 38&#45;&gt;75 -->
<g id="edge75" class="edge"><title>38&#45;&gt;75</title>
<path fill="none" stroke="black" d="M3414.05,-74.937C3411.45,-66.8137 3408.28,-56.892 3405.36,-47.7267"/>
<polygon fill="black" stroke="black" points="3408.69,-46.6599 3402.31,-38.1992 3402.02,-48.79 3408.69,-46.6599"/>
</g>
<!-- 76 -->
<g id="node77" class="node"><title>76</title>
<path fill="#f6d3ff" stroke="black" d="M3495.5,-38C3495.5,-38 3457.5,-38 3457.5,-38 3451.5,-38 3445.5,-32 3445.5,-26 3445.5,-26 3445.5,-12 3445.5,-12 3445.5,-6 3451.5,-0 3457.5,-0 3457.5,-0 3495.5,-0 3495.5,-0 3501.5,-0 3507.5,-6 3507.5,-12 3507.5,-12 3507.5,-26 3507.5,-26 3507.5,-32 3501.5,-38 3495.5,-38"/>
<text text-anchor="middle" x="3476.5" y="-22.8" font-family="Times,serif" font-size="14.00">forward</text>
<text text-anchor="middle" x="3476.5" y="-7.8" font-family="Times,serif" font-size="14.00">DB2/C3</text>
</g>
<!-- 39&#45;&gt;76 -->
<g id="edge76" class="edge"><title>39&#45;&gt;76</title>
<path fill="none" stroke="black" d="M3491,-74.937C3488.88,-66.9001 3486.29,-57.1029 3483.89,-48.0195"/>
<polygon fill="black" stroke="black" points="3487.24,-46.9751 3481.3,-38.1992 3480.47,-48.7612 3487.24,-46.9751"/>
</g>
<!-- 77 -->
<g id="node78" class="node"><title>77</title>
<path fill="#debfe6" stroke="black" d="M3573.5,-38C3573.5,-38 3537.5,-38 3537.5,-38 3531.5,-38 3525.5,-32 3525.5,-26 3525.5,-26 3525.5,-12 3525.5,-12 3525.5,-6 3531.5,-0 3537.5,-0 3537.5,-0 3573.5,-0 3573.5,-0 3579.5,-0 3585.5,-6 3585.5,-12 3585.5,-12 3585.5,-26 3585.5,-26 3585.5,-32 3579.5,-38 3573.5,-38"/>
<text text-anchor="middle" x="3555.5" y="-22.8" font-family="Times,serif" font-size="14.00">merge</text>
<text text-anchor="middle" x="3555.5" y="-7.8" font-family="Times,serif" font-size="14.00">EB1/C3</text>
</g>
<!-- 39&#45;&gt;77 -->
<g id="edge77" class="edge"><title>39&#45;&gt;77</title>
<path fill="none" stroke="black" d="M3509.72,-74.937C3516.92,-66.2952 3525.82,-55.6181 3533.85,-45.9816"/>
<polygon fill="black" stroke="black" points="3536.62,-48.1221 3540.33,-38.1992 3531.24,-43.6407 3536.62,-48.1221"/>
</g>
<!-- 78 -->
<g id="node79" class="node"><title>78</title>
<path fill="#f6d3ff" stroke="black" d="M3653.5,-38C3653.5,-38 3615.5,-38 3615.5,-38 3609.5,-38 3603.5,-32 3603.5,-26 3603.5,-26 3603.5,-12 3603.5,-12 3603.5,-6 3609.5,-0 3615.5,-0 3615.5,-0 3653.5,-0 3653.5,-0 3659.5,-0 3665.5,-6 3665.5,-12 3665.5,-12 3665.5,-26 3665.5,-26 3665.5,-32 3659.5,-38 3653.5,-38"/>
<text text-anchor="middle" x="3634.5" y="-22.8" font-family="Times,serif" font-size="14.00">forward</text>
<text text-anchor="middle" x="3634.5" y="-7.8" font-family="Times,serif" font-size="14.00">DB1/C0</text>
</g>
<!-- 40&#45;&gt;78 -->
<g id="edge78" class="edge"><title>40&#45;&gt;78</title>
<path fill="none" stroke="black" d="M3586.43,-74.937C3593.99,-66.2952 3603.33,-55.6181 3611.77,-45.9816"/>
<polygon fill="black" stroke="black" points="3614.62,-48.0297 3618.58,-38.1992 3609.36,-43.4202 3614.62,-48.0297"/>
</g>
<!-- 79 -->
<g id="node80" class="node"><title>79</title>
<path fill="#f6d3ff" stroke="black" d="M3759.5,-38C3759.5,-38 3721.5,-38 3721.5,-38 3715.5,-38 3709.5,-32 3709.5,-26 3709.5,-26 3709.5,-12 3709.5,-12 3709.5,-6 3715.5,-0 3721.5,-0 3721.5,-0 3759.5,-0 3759.5,-0 3765.5,-0 3771.5,-6 3771.5,-12 3771.5,-12 3771.5,-26 3771.5,-26 3771.5,-32 3765.5,-38 3759.5,-38"/>
<text text-anchor="middle" x="3740.5" y="-22.8" font-family="Times,serif" font-size="14.00">forward</text>
<text text-anchor="middle" x="3740.5" y="-7.8" font-family="Times,serif" font-size="14.00">DB1/C1</text>
</g>
<!-- 41&#45;&gt;79 -->
<g id="edge79" class="edge"><title>41&#45;&gt;79</title>
<path fill="none" stroke="black" d="M3740.5,-73.8314C3740.5,-66.131 3740.5,-56.9743 3740.5,-48.4166"/>
<polygon fill="black" stroke="black" points="3744,-48.4132 3740.5,-38.4133 3737,-48.4133 3744,-48.4132"/>
</g>
<!-- 80 -->
<g id="node81" class="node"><title>80</title>
<path fill="#f6d3ff" stroke="black" d="M3896.5,-38C3896.5,-38 3858.5,-38 3858.5,-38 3852.5,-38 3846.5,-32 3846.5,-26 3846.5,-26 3846.5,-12 3846.5,-12 3846.5,-6 3852.5,-0 3858.5,-0 3858.5,-0 3896.5,-0 3896.5,-0 3902.5,-0 3908.5,-6 3908.5,-12 3908.5,-12 3908.5,-26 3908.5,-26 3908.5,-32 3902.5,-38 3896.5,-38"/>
<text text-anchor="middle" x="3877.5" y="-22.8" font-family="Times,serif" font-size="14.00">forward</text>
<text text-anchor="middle" x="3877.5" y="-7.8" font-family="Times,serif" font-size="14.00">DB1/C2</text>
</g>
<!-- 42&#45;&gt;80 -->
<g id="edge80" class="edge"><title>42&#45;&gt;80</title>
<path fill="none" stroke="black" d="M3901.92,-74.937C3898.27,-66.7273 3893.8,-56.6807 3889.69,-47.4345"/>
<polygon fill="black" stroke="black" points="3892.85,-45.9158 3885.59,-38.1992 3886.45,-48.7588 3892.85,-45.9158"/>
</g>
<!-- 81 -->
<g id="node82" class="node"><title>81</title>
<path fill="#f6d3ff" stroke="black" d="M3976.5,-38C3976.5,-38 3938.5,-38 3938.5,-38 3932.5,-38 3926.5,-32 3926.5,-26 3926.5,-26 3926.5,-12 3926.5,-12 3926.5,-6 3932.5,-0 3938.5,-0 3938.5,-0 3976.5,-0 3976.5,-0 3982.5,-0 3988.5,-6 3988.5,-12 3988.5,-12 3988.5,-26 3988.5,-26 3988.5,-32 3982.5,-38 3976.5,-38"/>
<text text-anchor="middle" x="3957.5" y="-22.8" font-family="Times,serif" font-size="14.00">forward</text>
<text text-anchor="middle" x="3957.5" y="-7.8" font-family="Times,serif" font-size="14.00">DB1/C3</text>
</g>
<!-- 43&#45;&gt;81 -->
<g id="edge81" class="edge"><title>43&#45;&gt;81</title>
<path fill="none" stroke="black" d="M4003.28,-74.937C3996.08,-66.2952 3987.18,-55.6181 3979.15,-45.9816"/>
<polygon fill="black" stroke="black" points="3981.76,-43.6407 3972.67,-38.1992 3976.38,-48.1221 3981.76,-43.6407"/>
</g>
<!-- 82 -->
<g id="node83" class="node"><title>82</title>
<path fill="#debfe6" stroke="black" d="M4054.5,-38C4054.5,-38 4018.5,-38 4018.5,-38 4012.5,-38 4006.5,-32 4006.5,-26 4006.5,-26 4006.5,-12 4006.5,-12 4006.5,-6 4012.5,-0 4018.5,-0 4018.5,-0 4054.5,-0 4054.5,-0 4060.5,-0 4066.5,-6 4066.5,-12 4066.5,-12 4066.5,-26 4066.5,-26 4066.5,-32 4060.5,-38 4054.5,-38"/>
<text text-anchor="middle" x="4036.5" y="-22.8" font-family="Times,serif" font-size="14.00">merge</text>
<text text-anchor="middle" x="4036.5" y="-7.8" font-family="Times,serif" font-size="14.00">EB0/C3</text>
</g>
<!-- 43&#45;&gt;82 -->
<g id="edge82" class="edge"><title>43&#45;&gt;82</title>
<path fill="none" stroke="black" d="M4022,-74.937C4024.12,-66.9001 4026.71,-57.1029 4029.11,-48.0195"/>
<polygon fill="black" stroke="black" points="4032.53,-48.7612 4031.7,-38.1992 4025.76,-46.9751 4032.53,-48.7612"/>
</g>
<!-- 83 -->
<g id="node84" class="node"><title>83</title>
<path fill="#f6d3ff" stroke="black" d="M4134.5,-38C4134.5,-38 4096.5,-38 4096.5,-38 4090.5,-38 4084.5,-32 4084.5,-26 4084.5,-26 4084.5,-12 4084.5,-12 4084.5,-6 4090.5,-0 4096.5,-0 4096.5,-0 4134.5,-0 4134.5,-0 4140.5,-0 4146.5,-6 4146.5,-12 4146.5,-12 4146.5,-26 4146.5,-26 4146.5,-32 4140.5,-38 4134.5,-38"/>
<text text-anchor="middle" x="4115.5" y="-22.8" font-family="Times,serif" font-size="14.00">forward</text>
<text text-anchor="middle" x="4115.5" y="-7.8" font-family="Times,serif" font-size="14.00">DB0/C0</text>
</g>
<!-- 44&#45;&gt;83 -->
<g id="edge83" class="edge"><title>44&#45;&gt;83</title>
<path fill="none" stroke="black" d="M4098.71,-74.937C4101.17,-66.9001 4104.16,-57.1029 4106.94,-48.0195"/>
<polygon fill="black" stroke="black" points="4110.36,-48.7855 4109.94,-38.1992 4103.67,-46.7399 4110.36,-48.7855"/>
</g>
<!-- 84 -->
<g id="node85" class="node"><title>84</title>
<path fill="#f6d3ff" stroke="black" d="M4233.5,-38C4233.5,-38 4195.5,-38 4195.5,-38 4189.5,-38 4183.5,-32 4183.5,-26 4183.5,-26 4183.5,-12 4183.5,-12 4183.5,-6 4189.5,-0 4195.5,-0 4195.5,-0 4233.5,-0 4233.5,-0 4239.5,-0 4245.5,-6 4245.5,-12 4245.5,-12 4245.5,-26 4245.5,-26 4245.5,-32 4239.5,-38 4233.5,-38"/>
<text text-anchor="middle" x="4214.5" y="-22.8" font-family="Times,serif" font-size="14.00">forward</text>
<text text-anchor="middle" x="4214.5" y="-7.8" font-family="Times,serif" font-size="14.00">DB0/C1</text>
</g>
<!-- 45&#45;&gt;84 -->
<g id="edge84" class="edge"><title>45&#45;&gt;84</title>
<path fill="none" stroke="black" d="M4214.5,-73.8314C4214.5,-66.131 4214.5,-56.9743 4214.5,-48.4166"/>
<polygon fill="black" stroke="black" points="4218,-48.4132 4214.5,-38.4133 4211,-48.4133 4218,-48.4132"/>
</g>
<!-- 85 -->
<g id="node86" class="node"><title>85</title>
<path fill="#f6d3ff" stroke="black" d="M4354.5,-38C4354.5,-38 4316.5,-38 4316.5,-38 4310.5,-38 4304.5,-32 4304.5,-26 4304.5,-26 4304.5,-12 4304.5,-12 4304.5,-6 4310.5,-0 4316.5,-0 4316.5,-0 4354.5,-0 4354.5,-0 4360.5,-0 4366.5,-6 4366.5,-12 4366.5,-12 4366.5,-26 4366.5,-26 4366.5,-32 4360.5,-38 4354.5,-38"/>
<text text-anchor="middle" x="4335.5" y="-22.8" font-family="Times,serif" font-size="14.00">forward</text>
<text text-anchor="middle" x="4335.5" y="-7.8" font-family="Times,serif" font-size="14.00">DB0/C2</text>
</g>
<!-- 46&#45;&gt;85 -->
<g id="edge85" class="edge"><title>46&#45;&gt;85</title>
<path fill="none" stroke="black" d="M4335.5,-74.937C4335.5,-66.9865 4335.5,-57.3134 4335.5,-48.3127"/>
<polygon fill="black" stroke="black" points="4339,-48.1991 4335.5,-38.1992 4332,-48.1992 4339,-48.1991"/>
</g>
</g>
</svg>
