<?xml version="1.0" encoding="UTF-8" standalone="no"?>
<!DOCTYPE svg PUBLIC "-//W3C//DTD SVG 1.1//EN"
 "http://www.w3.org/Graphics/SVG/1.1/DTD/svg11.dtd">
<!-- Generated by graphviz version 2.38.0 (20140413.2041)
 -->
<!-- Title: %3 Pages: 1 -->
<svg width="3357pt" height="433pt"
 viewBox="0.00 0.00 3357.00 433.00" xmlns="http://www.w3.org/2000/svg" xmlns:xlink="http://www.w3.org/1999/xlink">
<g id="graph0" class="graph" transform="scale(1 1) rotate(0) translate(4 429)">
<title>%3</title>
<polygon fill="none" stroke="none" points="-4,4 -4,-429 3353,-429 3353,4 -4,4"/>
<!-- 0 -->
<g id="node1" class="node"><title>0</title>
<path fill="#ffd3d3" stroke="black" d="M1309,-425C1309,-425 1118,-425 1118,-425 1112,-425 1106,-419 1106,-413 1106,-413 1106,-384 1106,-384 1106,-378 1112,-372 1118,-372 1118,-372 1309,-372 1309,-372 1315,-372 1321,-378 1321,-384 1321,-384 1321,-413 1321,-413 1321,-419 1315,-425 1309,-425"/>
<text text-anchor="middle" x="1213.5" y="-409.8" font-family="Times,serif" font-size="14.00">net</text>
<text text-anchor="middle" x="1213.5" y="-394.8" font-family="Times,serif" font-size="14.00">k width: 3 &#160;&#160;log gamma2: &#45;7.299129</text>
<text text-anchor="middle" x="1213.5" y="-379.8" font-family="Times,serif" font-size="14.00">n kernels: 18</text>
</g>
<!-- 1 -->
<g id="node2" class="node"><title>1</title>
<path fill="#e9ffd3" stroke="black" d="M438,-321C438,-321 243,-321 243,-321 237,-321 231,-315 231,-309 231,-309 231,-295 231,-295 231,-289 237,-283 243,-283 243,-283 438,-283 438,-283 444,-283 450,-289 450,-295 450,-295 450,-309 450,-309 450,-315 444,-321 438,-321"/>
<text text-anchor="middle" x="340.5" y="-305.8" font-family="Times,serif" font-size="14.00">conv block 0</text>
<text text-anchor="middle" x="340.5" y="-290.8" font-family="Times,serif" font-size="14.00">log gamma2: 0.934234 &#160;&#160;n kernels: 8</text>
</g>
<!-- 0&#45;&gt;1 -->
<g id="edge1" class="edge"><title>0&#45;&gt;1</title>
<path fill="none" stroke="black" d="M1105.58,-385.818C941.648,-368.073 630.962,-334.442 460.267,-315.964"/>
<polygon fill="black" stroke="black" points="460.553,-312.475 450.235,-314.878 459.8,-319.434 460.553,-312.475"/>
</g>
<!-- 2 -->
<g id="node3" class="node"><title>2</title>
<path fill="#e9ffd3" stroke="black" d="M930,-336C930,-336 667,-336 667,-336 661,-336 655,-330 655,-324 655,-324 655,-280 655,-280 655,-274 661,-268 667,-268 667,-268 930,-268 930,-268 936,-268 942,-274 942,-280 942,-280 942,-324 942,-324 942,-330 936,-336 930,-336"/>
<text text-anchor="middle" x="798.5" y="-320.8" font-family="Times,serif" font-size="14.00">conv block 1</text>
<text text-anchor="middle" x="798.5" y="-305.8" font-family="Times,serif" font-size="14.00">log gamma1: 0.443587 &#160;&#160;log gamma2: &#45;0.117769</text>
<text text-anchor="middle" x="798.5" y="-290.8" font-family="Times,serif" font-size="14.00">n kernels: &#45;2 &#160;&#160;pool z: 1</text>
<text text-anchor="middle" x="798.5" y="-275.8" font-family="Times,serif" font-size="14.00">spatial scale: 1</text>
</g>
<!-- 0&#45;&gt;2 -->
<g id="edge2" class="edge"><title>0&#45;&gt;2</title>
<path fill="none" stroke="black" d="M1105.82,-372.979C1058.89,-362.293 1003.02,-349.571 951.865,-337.923"/>
<polygon fill="black" stroke="black" points="952.564,-334.493 942.037,-335.685 951.01,-341.318 952.564,-334.493"/>
</g>
<!-- 3 -->
<g id="node4" class="node"><title>3</title>
<path fill="#e9ffd3" stroke="black" d="M1345,-328.5C1345,-328.5 1082,-328.5 1082,-328.5 1076,-328.5 1070,-322.5 1070,-316.5 1070,-316.5 1070,-287.5 1070,-287.5 1070,-281.5 1076,-275.5 1082,-275.5 1082,-275.5 1345,-275.5 1345,-275.5 1351,-275.5 1357,-281.5 1357,-287.5 1357,-287.5 1357,-316.5 1357,-316.5 1357,-322.5 1351,-328.5 1345,-328.5"/>
<text text-anchor="middle" x="1213.5" y="-313.3" font-family="Times,serif" font-size="14.00">conv block 2</text>
<text text-anchor="middle" x="1213.5" y="-298.3" font-family="Times,serif" font-size="14.00">log gamma1: &#45;0.734012 &#160;&#160;log gamma2: 1.159136</text>
<text text-anchor="middle" x="1213.5" y="-283.3" font-family="Times,serif" font-size="14.00">n kernels: 54 &#160;&#160;spatial scale: 2</text>
</g>
<!-- 0&#45;&gt;3 -->
<g id="edge3" class="edge"><title>0&#45;&gt;3</title>
<path fill="none" stroke="black" d="M1213.5,-371.677C1213.5,-361.573 1213.5,-349.809 1213.5,-338.903"/>
<polygon fill="black" stroke="black" points="1217,-338.791 1213.5,-328.791 1210,-338.791 1217,-338.791"/>
</g>
<!-- 4 -->
<g id="node5" class="node"><title>4</title>
<path fill="#e9ffd3" stroke="black" d="M1858,-328.5C1858,-328.5 1595,-328.5 1595,-328.5 1589,-328.5 1583,-322.5 1583,-316.5 1583,-316.5 1583,-287.5 1583,-287.5 1583,-281.5 1589,-275.5 1595,-275.5 1595,-275.5 1858,-275.5 1858,-275.5 1864,-275.5 1870,-281.5 1870,-287.5 1870,-287.5 1870,-316.5 1870,-316.5 1870,-322.5 1864,-328.5 1858,-328.5"/>
<text text-anchor="middle" x="1726.5" y="-313.3" font-family="Times,serif" font-size="14.00">conv block 3</text>
<text text-anchor="middle" x="1726.5" y="-298.3" font-family="Times,serif" font-size="14.00">log gamma1: &#45;0.521708 &#160;&#160;log gamma2: 0.597709</text>
<text text-anchor="middle" x="1726.5" y="-283.3" font-family="Times,serif" font-size="14.00">n kernels: 126 &#160;&#160;spatial scale: 3</text>
</g>
<!-- 0&#45;&gt;4 -->
<g id="edge4" class="edge"><title>0&#45;&gt;4</title>
<path fill="none" stroke="black" d="M1321.04,-377.69C1395.58,-363.96 1495.79,-345.499 1577.94,-330.366"/>
<polygon fill="black" stroke="black" points="1578.66,-333.792 1587.86,-328.538 1577.4,-326.908 1578.66,-333.792"/>
</g>
<!-- 5 -->
<g id="node6" class="node"><title>5</title>
<path fill="#e9ffd3" stroke="black" d="M2584,-320C2584,-320 2517,-320 2517,-320 2511,-320 2505,-314 2505,-308 2505,-308 2505,-296 2505,-296 2505,-290 2511,-284 2517,-284 2517,-284 2584,-284 2584,-284 2590,-284 2596,-290 2596,-296 2596,-296 2596,-308 2596,-308 2596,-314 2590,-320 2584,-320"/>
<text text-anchor="middle" x="2550.5" y="-298.3" font-family="Times,serif" font-size="14.00">path combine</text>
</g>
<!-- 0&#45;&gt;5 -->
<g id="edge5" class="edge"><title>0&#45;&gt;5</title>
<path fill="none" stroke="black" d="M1321.22,-389.887C1591.62,-370.774 2291.93,-321.276 2494.72,-306.943"/>
<polygon fill="black" stroke="black" points="2495.11,-310.424 2504.84,-306.227 2494.62,-303.441 2495.11,-310.424"/>
</g>
<!-- 6 -->
<g id="node7" class="node"><title>6</title>
<path fill="#d3ffff" stroke="black" d="M280,-202C280,-202 155,-202 155,-202 149,-202 143,-196 143,-190 143,-190 143,-176 143,-176 143,-170 149,-164 155,-164 155,-164 280,-164 280,-164 286,-164 292,-170 292,-176 292,-176 292,-190 292,-190 292,-196 286,-202 280,-202"/>
<text text-anchor="middle" x="217.5" y="-186.8" font-family="Times,serif" font-size="14.00">comp 0</text>
<text text-anchor="middle" x="217.5" y="-171.8" font-family="Times,serif" font-size="14.00">log gamma2: &#45;0.112508</text>
</g>
<!-- 1&#45;&gt;6 -->
<g id="edge6" class="edge"><title>1&#45;&gt;6</title>
<path fill="none" stroke="black" d="M321.551,-282.975C300.845,-263.279 267.517,-231.577 244.174,-209.373"/>
<polygon fill="black" stroke="black" points="246.331,-206.594 236.673,-202.238 241.507,-211.666 246.331,-206.594"/>
</g>
<!-- 7 -->
<g id="node8" class="node"><title>7</title>
<path fill="#d3ffff" stroke="black" d="M647,-209.5C647,-209.5 388,-209.5 388,-209.5 382,-209.5 376,-203.5 376,-197.5 376,-197.5 376,-168.5 376,-168.5 376,-162.5 382,-156.5 388,-156.5 388,-156.5 647,-156.5 647,-156.5 653,-156.5 659,-162.5 659,-168.5 659,-168.5 659,-197.5 659,-197.5 659,-203.5 653,-209.5 647,-209.5"/>
<text text-anchor="middle" x="517.5" y="-194.3" font-family="Times,serif" font-size="14.00">comp 0</text>
<text text-anchor="middle" x="517.5" y="-179.3" font-family="Times,serif" font-size="14.00">log gamma1: 0.132916 &#160;&#160;log gamma2: 0.858073</text>
<text text-anchor="middle" x="517.5" y="-164.3" font-family="Times,serif" font-size="14.00">n kernels: 12</text>
</g>
<!-- 2&#45;&gt;7 -->
<g id="edge7" class="edge"><title>2&#45;&gt;7</title>
<path fill="none" stroke="black" d="M719.103,-267.942C677.935,-250.8 628.074,-230.04 588.239,-213.454"/>
<polygon fill="black" stroke="black" points="589.439,-210.162 578.861,-209.549 586.748,-216.624 589.439,-210.162"/>
</g>
<!-- 8 -->
<g id="node9" class="node"><title>8</title>
<path fill="#bfe6e6" stroke="black" d="M865.5,-202C865.5,-202 731.5,-202 731.5,-202 725.5,-202 719.5,-196 719.5,-190 719.5,-190 719.5,-176 719.5,-176 719.5,-170 725.5,-164 731.5,-164 731.5,-164 865.5,-164 865.5,-164 871.5,-164 877.5,-170 877.5,-176 877.5,-176 877.5,-190 877.5,-190 877.5,-196 871.5,-202 865.5,-202"/>
<text text-anchor="middle" x="798.5" y="-186.8" font-family="Times,serif" font-size="14.00">path end 1</text>
<text text-anchor="middle" x="798.5" y="-171.8" font-family="Times,serif" font-size="14.00">k width: &#45;2 &#160;&#160;n kernels: 10</text>
</g>
<!-- 2&#45;&gt;8 -->
<g id="edge8" class="edge"><title>2&#45;&gt;8</title>
<path fill="none" stroke="black" d="M798.5,-267.785C798.5,-250.273 798.5,-229.017 798.5,-212.296"/>
<polygon fill="black" stroke="black" points="802,-212.049 798.5,-202.049 795,-212.049 802,-212.049"/>
</g>
<!-- 9 -->
<g id="node10" class="node"><title>9</title>
<path fill="#d3ffff" stroke="black" d="M1219.5,-202C1219.5,-202 1099.5,-202 1099.5,-202 1093.5,-202 1087.5,-196 1087.5,-190 1087.5,-190 1087.5,-176 1087.5,-176 1087.5,-170 1093.5,-164 1099.5,-164 1099.5,-164 1219.5,-164 1219.5,-164 1225.5,-164 1231.5,-170 1231.5,-176 1231.5,-176 1231.5,-190 1231.5,-190 1231.5,-196 1225.5,-202 1219.5,-202"/>
<text text-anchor="middle" x="1159.5" y="-186.8" font-family="Times,serif" font-size="14.00">comp 0</text>
<text text-anchor="middle" x="1159.5" y="-171.8" font-family="Times,serif" font-size="14.00">log gamma1: 0.160072</text>
</g>
<!-- 3&#45;&gt;9 -->
<g id="edge9" class="edge"><title>3&#45;&gt;9</title>
<path fill="none" stroke="black" d="M1201.65,-275.324C1192.94,-256.449 1181.12,-230.834 1172.21,-211.535"/>
<polygon fill="black" stroke="black" points="1175.34,-209.971 1167.97,-202.358 1168.99,-212.904 1175.34,-209.971"/>
</g>
<!-- 10 -->
<g id="node11" class="node"><title>10</title>
<path fill="#bfe6e6" stroke="black" d="M1476,-202C1476,-202 1337,-202 1337,-202 1331,-202 1325,-196 1325,-190 1325,-190 1325,-176 1325,-176 1325,-170 1331,-164 1337,-164 1337,-164 1476,-164 1476,-164 1482,-164 1488,-170 1488,-176 1488,-176 1488,-190 1488,-190 1488,-196 1482,-202 1476,-202"/>
<text text-anchor="middle" x="1406.5" y="-186.8" font-family="Times,serif" font-size="14.00">path end 2</text>
<text text-anchor="middle" x="1406.5" y="-171.8" font-family="Times,serif" font-size="14.00">k width: &#45;2 &#160;&#160;n kernels: &#45;46</text>
</g>
<!-- 3&#45;&gt;10 -->
<g id="edge10" class="edge"><title>3&#45;&gt;10</title>
<path fill="none" stroke="black" d="M1255.85,-275.324C1289.22,-255.095 1335.36,-227.123 1367.76,-207.484"/>
<polygon fill="black" stroke="black" points="1369.78,-210.355 1376.51,-202.178 1366.15,-204.369 1369.78,-210.355"/>
</g>
<!-- 11 -->
<g id="node12" class="node"><title>11</title>
<path fill="#d3ffff" stroke="black" d="M1856,-202C1856,-202 1597,-202 1597,-202 1591,-202 1585,-196 1585,-190 1585,-190 1585,-176 1585,-176 1585,-170 1591,-164 1597,-164 1597,-164 1856,-164 1856,-164 1862,-164 1868,-170 1868,-176 1868,-176 1868,-190 1868,-190 1868,-196 1862,-202 1856,-202"/>
<text text-anchor="middle" x="1726.5" y="-186.8" font-family="Times,serif" font-size="14.00">comp 0</text>
<text text-anchor="middle" x="1726.5" y="-171.8" font-family="Times,serif" font-size="14.00">log gamma1: 0.651645 &#160;&#160;log gamma2: 1.477106</text>
</g>
<!-- 4&#45;&gt;11 -->
<g id="edge11" class="edge"><title>4&#45;&gt;11</title>
<path fill="none" stroke="black" d="M1726.5,-275.324C1726.5,-256.794 1726.5,-231.767 1726.5,-212.599"/>
<polygon fill="black" stroke="black" points="1730,-212.358 1726.5,-202.358 1723,-212.358 1730,-212.358"/>
</g>
<!-- 12 -->
<g id="node13" class="node"><title>12</title>
<path fill="#bfe6e6" stroke="black" d="M2044.5,-202C2044.5,-202 1898.5,-202 1898.5,-202 1892.5,-202 1886.5,-196 1886.5,-190 1886.5,-190 1886.5,-176 1886.5,-176 1886.5,-170 1892.5,-164 1898.5,-164 1898.5,-164 2044.5,-164 2044.5,-164 2050.5,-164 2056.5,-170 2056.5,-176 2056.5,-176 2056.5,-190 2056.5,-190 2056.5,-196 2050.5,-202 2044.5,-202"/>
<text text-anchor="middle" x="1971.5" y="-186.8" font-family="Times,serif" font-size="14.00">path end 3</text>
<text text-anchor="middle" x="1971.5" y="-171.8" font-family="Times,serif" font-size="14.00">k width: &#45;2 &#160;&#160;n kernels: &#45;118</text>
</g>
<!-- 4&#45;&gt;12 -->
<g id="edge12" class="edge"><title>4&#45;&gt;12</title>
<path fill="none" stroke="black" d="M1783.36,-275.44C1811.5,-262.639 1845.91,-246.759 1876.5,-232 1893.2,-223.946 1911.39,-214.833 1927.35,-206.729"/>
<polygon fill="black" stroke="black" points="1929.14,-209.746 1936.46,-202.089 1925.96,-203.509 1929.14,-209.746"/>
</g>
<!-- 13 -->
<g id="node14" class="node"><title>13</title>
<path fill="#d3ffff" stroke="black" d="M2368,-232C2368,-232 2087,-232 2087,-232 2081,-232 2075,-226 2075,-220 2075,-220 2075,-146 2075,-146 2075,-140 2081,-134 2087,-134 2087,-134 2368,-134 2368,-134 2374,-134 2380,-140 2380,-146 2380,-146 2380,-220 2380,-220 2380,-226 2374,-232 2368,-232"/>
<text text-anchor="middle" x="2227.5" y="-216.8" font-family="Times,serif" font-size="14.00">forward</text>
<text text-anchor="middle" x="2227.5" y="-201.8" font-family="Times,serif" font-size="14.00">CB0/C0</text>
<text text-anchor="middle" x="2227.5" y="-186.8" font-family="Times,serif" font-size="14.00">dilation rate: 1 &#160;&#160;k width: 3</text>
<text text-anchor="middle" x="2227.5" y="-171.8" font-family="Times,serif" font-size="14.00">log gamma1: &#45;11.000000 &#160;&#160;log gamma2: &#45;11.000000</text>
<text text-anchor="middle" x="2227.5" y="-156.8" font-family="Times,serif" font-size="14.00">log lambda1: &#45;11.000000 &#160;&#160;log lambda2: &#45;11.000000</text>
<text text-anchor="middle" x="2227.5" y="-141.8" font-family="Times,serif" font-size="14.00">n kernels: 64</text>
</g>
<!-- 5&#45;&gt;13 -->
<g id="edge13" class="edge"><title>5&#45;&gt;13</title>
<path fill="none" stroke="black" d="M2504.91,-284.485C2469.53,-271.67 2418.47,-253.175 2369.77,-235.536"/>
<polygon fill="black" stroke="black" points="2370.67,-232.137 2360.07,-232.022 2368.28,-238.718 2370.67,-232.137"/>
</g>
<!-- 14 -->
<g id="node15" class="node"><title>14</title>
<path fill="#bfe6e6" stroke="black" d="M2691,-232C2691,-232 2410,-232 2410,-232 2404,-232 2398,-226 2398,-220 2398,-220 2398,-146 2398,-146 2398,-140 2404,-134 2410,-134 2410,-134 2691,-134 2691,-134 2697,-134 2703,-140 2703,-146 2703,-146 2703,-220 2703,-220 2703,-226 2697,-232 2691,-232"/>
<text text-anchor="middle" x="2550.5" y="-216.8" font-family="Times,serif" font-size="14.00">merge 1</text>
<text text-anchor="middle" x="2550.5" y="-201.8" font-family="Times,serif" font-size="14.00">CB1/PE1</text>
<text text-anchor="middle" x="2550.5" y="-186.8" font-family="Times,serif" font-size="14.00">dilation rate: 1 &#160;&#160;k width: 3</text>
<text text-anchor="middle" x="2550.5" y="-171.8" font-family="Times,serif" font-size="14.00">log gamma1: &#45;11.000000 &#160;&#160;log gamma2: &#45;11.000000</text>
<text text-anchor="middle" x="2550.5" y="-156.8" font-family="Times,serif" font-size="14.00">log lambda1: &#45;11.000000 &#160;&#160;log lambda2: &#45;11.000000</text>
<text text-anchor="middle" x="2550.5" y="-141.8" font-family="Times,serif" font-size="14.00">n kernels: 64</text>
</g>
<!-- 5&#45;&gt;14 -->
<g id="edge14" class="edge"><title>5&#45;&gt;14</title>
<path fill="none" stroke="black" d="M2550.5,-283.987C2550.5,-272.809 2550.5,-257.468 2550.5,-242.158"/>
<polygon fill="black" stroke="black" points="2554,-242.146 2550.5,-232.146 2547,-242.146 2554,-242.146"/>
</g>
<!-- 15 -->
<g id="node16" class="node"><title>15</title>
<path fill="#abcece" stroke="black" d="M3014,-232C3014,-232 2733,-232 2733,-232 2727,-232 2721,-226 2721,-220 2721,-220 2721,-146 2721,-146 2721,-140 2727,-134 2733,-134 2733,-134 3014,-134 3014,-134 3020,-134 3026,-140 3026,-146 3026,-146 3026,-220 3026,-220 3026,-226 3020,-232 3014,-232"/>
<text text-anchor="middle" x="2873.5" y="-216.8" font-family="Times,serif" font-size="14.00">merge 2</text>
<text text-anchor="middle" x="2873.5" y="-201.8" font-family="Times,serif" font-size="14.00">CB2/PE2</text>
<text text-anchor="middle" x="2873.5" y="-186.8" font-family="Times,serif" font-size="14.00">dilation rate: 1 &#160;&#160;k width: 3</text>
<text text-anchor="middle" x="2873.5" y="-171.8" font-family="Times,serif" font-size="14.00">log gamma1: &#45;11.000000 &#160;&#160;log gamma2: &#45;11.000000</text>
<text text-anchor="middle" x="2873.5" y="-156.8" font-family="Times,serif" font-size="14.00">log lambda1: &#45;11.000000 &#160;&#160;log lambda2: &#45;11.000000</text>
<text text-anchor="middle" x="2873.5" y="-141.8" font-family="Times,serif" font-size="14.00">n kernels: 64</text>
</g>
<!-- 5&#45;&gt;15 -->
<g id="edge15" class="edge"><title>5&#45;&gt;15</title>
<path fill="none" stroke="black" d="M2596.09,-284.485C2631.47,-271.67 2682.53,-253.175 2731.23,-235.536"/>
<polygon fill="black" stroke="black" points="2732.72,-238.718 2740.93,-232.022 2730.33,-232.137 2732.72,-238.718"/>
</g>
<!-- 16 -->
<g id="node17" class="node"><title>16</title>
<path fill="#97b6b6" stroke="black" d="M3337,-232C3337,-232 3056,-232 3056,-232 3050,-232 3044,-226 3044,-220 3044,-220 3044,-146 3044,-146 3044,-140 3050,-134 3056,-134 3056,-134 3337,-134 3337,-134 3343,-134 3349,-140 3349,-146 3349,-146 3349,-220 3349,-220 3349,-226 3343,-232 3337,-232"/>
<text text-anchor="middle" x="3196.5" y="-216.8" font-family="Times,serif" font-size="14.00">merge 3</text>
<text text-anchor="middle" x="3196.5" y="-201.8" font-family="Times,serif" font-size="14.00">CB3/PE3</text>
<text text-anchor="middle" x="3196.5" y="-186.8" font-family="Times,serif" font-size="14.00">dilation rate: 1 &#160;&#160;k width: 3</text>
<text text-anchor="middle" x="3196.5" y="-171.8" font-family="Times,serif" font-size="14.00">log gamma1: &#45;11.000000 &#160;&#160;log gamma2: &#45;11.000000</text>
<text text-anchor="middle" x="3196.5" y="-156.8" font-family="Times,serif" font-size="14.00">log lambda1: &#45;11.000000 &#160;&#160;log lambda2: &#45;11.000000</text>
<text text-anchor="middle" x="3196.5" y="-141.8" font-family="Times,serif" font-size="14.00">n kernels: 64</text>
</g>
<!-- 5&#45;&gt;16 -->
<g id="edge16" class="edge"><title>5&#45;&gt;16</title>
<path fill="none" stroke="black" d="M2596.03,-296.8C2680.74,-288.495 2868.26,-267.798 3033.81,-232.298"/>
<polygon fill="black" stroke="black" points="3034.65,-235.698 3043.68,-230.158 3033.16,-228.857 3034.65,-235.698"/>
</g>
<!-- 17 -->
<g id="node18" class="node"><title>17</title>
<path fill="#e9d3ff" stroke="black" d="M293,-98C293,-98 12,-98 12,-98 6,-98 0,-92 0,-86 0,-86 0,-12 0,-12 0,-6 6,-0 12,-0 12,-0 293,-0 293,-0 299,-0 305,-6 305,-12 305,-12 305,-86 305,-86 305,-92 299,-98 293,-98"/>
<text text-anchor="middle" x="152.5" y="-82.8" font-family="Times,serif" font-size="14.00">forward</text>
<text text-anchor="middle" x="152.5" y="-67.8" font-family="Times,serif" font-size="14.00">input</text>
<text text-anchor="middle" x="152.5" y="-52.8" font-family="Times,serif" font-size="14.00">dilation rate: 1 &#160;&#160;k width: 3</text>
<text text-anchor="middle" x="152.5" y="-37.8" font-family="Times,serif" font-size="14.00">log gamma1: &#45;11.000000 &#160;&#160;log gamma2: &#45;11.000000</text>
<text text-anchor="middle" x="152.5" y="-22.8" font-family="Times,serif" font-size="14.00">log lambda1: &#45;11.000000 &#160;&#160;log lambda2: &#45;11.000000</text>
<text text-anchor="middle" x="152.5" y="-7.8" font-family="Times,serif" font-size="14.00">n kernels: 64</text>
</g>
<!-- 6&#45;&gt;17 -->
<g id="edge17" class="edge"><title>6&#45;&gt;17</title>
<path fill="none" stroke="black" d="M208.598,-163.923C201.36,-149.223 190.732,-127.641 180.669,-107.205"/>
<polygon fill="black" stroke="black" points="183.809,-105.659 176.251,-98.2336 177.529,-108.751 183.809,-105.659"/>
</g>
<!-- 18 -->
<g id="node19" class="node"><title>18</title>
<path fill="#e9d3ff" stroke="black" d="M616,-98C616,-98 335,-98 335,-98 329,-98 323,-92 323,-86 323,-86 323,-12 323,-12 323,-6 329,-0 335,-0 335,-0 616,-0 616,-0 622,-0 628,-6 628,-12 628,-12 628,-86 628,-86 628,-92 622,-98 616,-98"/>
<text text-anchor="middle" x="475.5" y="-82.8" font-family="Times,serif" font-size="14.00">forward</text>
<text text-anchor="middle" x="475.5" y="-67.8" font-family="Times,serif" font-size="14.00">input</text>
<text text-anchor="middle" x="475.5" y="-52.8" font-family="Times,serif" font-size="14.00">dilation rate: 1 &#160;&#160;k width: 3</text>
<text text-anchor="middle" x="475.5" y="-37.8" font-family="Times,serif" font-size="14.00">log gamma1: &#45;11.000000 &#160;&#160;log gamma2: &#45;11.000000</text>
<text text-anchor="middle" x="475.5" y="-22.8" font-family="Times,serif" font-size="14.00">log lambda1: &#45;11.000000 &#160;&#160;log lambda2: &#45;11.000000</text>
<text text-anchor="middle" x="475.5" y="-7.8" font-family="Times,serif" font-size="14.00">n kernels: 64</text>
</g>
<!-- 7&#45;&gt;18 -->
<g id="edge18" class="edge"><title>7&#45;&gt;18</title>
<path fill="none" stroke="black" d="M509.302,-156.236C504.912,-142.438 499.314,-124.845 493.943,-107.965"/>
<polygon fill="black" stroke="black" points="497.185,-106.61 490.818,-98.1423 490.515,-108.733 497.185,-106.61"/>
</g>
<!-- 19 -->
<g id="node20" class="node"><title>19</title>
<path fill="#e9d3ff" stroke="black" d="M939,-98C939,-98 658,-98 658,-98 652,-98 646,-92 646,-86 646,-86 646,-12 646,-12 646,-6 652,-0 658,-0 658,-0 939,-0 939,-0 945,-0 951,-6 951,-12 951,-12 951,-86 951,-86 951,-92 945,-98 939,-98"/>
<text text-anchor="middle" x="798.5" y="-82.8" font-family="Times,serif" font-size="14.00">forward</text>
<text text-anchor="middle" x="798.5" y="-67.8" font-family="Times,serif" font-size="14.00">CB1/C0</text>
<text text-anchor="middle" x="798.5" y="-52.8" font-family="Times,serif" font-size="14.00">dilation rate: 1 &#160;&#160;k width: 3</text>
<text text-anchor="middle" x="798.5" y="-37.8" font-family="Times,serif" font-size="14.00">log gamma1: &#45;11.000000 &#160;&#160;log gamma2: &#45;11.000000</text>
<text text-anchor="middle" x="798.5" y="-22.8" font-family="Times,serif" font-size="14.00">log lambda1: &#45;11.000000 &#160;&#160;log lambda2: &#45;11.000000</text>
<text text-anchor="middle" x="798.5" y="-7.8" font-family="Times,serif" font-size="14.00">n kernels: 64</text>
</g>
<!-- 8&#45;&gt;19 -->
<g id="edge19" class="edge"><title>8&#45;&gt;19</title>
<path fill="none" stroke="black" d="M798.5,-163.923C798.5,-149.486 798.5,-128.413 798.5,-108.306"/>
<polygon fill="black" stroke="black" points="802,-108.234 798.5,-98.2336 795,-108.234 802,-108.234"/>
</g>
<!-- 20 -->
<g id="node21" class="node"><title>20</title>
<path fill="#e9d3ff" stroke="black" d="M1262,-98C1262,-98 981,-98 981,-98 975,-98 969,-92 969,-86 969,-86 969,-12 969,-12 969,-6 975,-0 981,-0 981,-0 1262,-0 1262,-0 1268,-0 1274,-6 1274,-12 1274,-12 1274,-86 1274,-86 1274,-92 1268,-98 1262,-98"/>
<text text-anchor="middle" x="1121.5" y="-82.8" font-family="Times,serif" font-size="14.00">forward</text>
<text text-anchor="middle" x="1121.5" y="-67.8" font-family="Times,serif" font-size="14.00">input</text>
<text text-anchor="middle" x="1121.5" y="-52.8" font-family="Times,serif" font-size="14.00">dilation rate: 1 &#160;&#160;k width: 3</text>
<text text-anchor="middle" x="1121.5" y="-37.8" font-family="Times,serif" font-size="14.00">log gamma1: &#45;11.000000 &#160;&#160;log gamma2: &#45;11.000000</text>
<text text-anchor="middle" x="1121.5" y="-22.8" font-family="Times,serif" font-size="14.00">log lambda1: &#45;11.000000 &#160;&#160;log lambda2: &#45;11.000000</text>
<text text-anchor="middle" x="1121.5" y="-7.8" font-family="Times,serif" font-size="14.00">n kernels: 64</text>
</g>
<!-- 9&#45;&gt;20 -->
<g id="edge20" class="edge"><title>9&#45;&gt;20</title>
<path fill="none" stroke="black" d="M1154.3,-163.923C1150.12,-149.42 1144.02,-128.221 1138.21,-108.03"/>
<polygon fill="black" stroke="black" points="1141.52,-106.875 1135.39,-98.2336 1134.79,-108.812 1141.52,-106.875"/>
</g>
<!-- 21 -->
<g id="node22" class="node"><title>21</title>
<path fill="#e9d3ff" stroke="black" d="M1585,-98C1585,-98 1304,-98 1304,-98 1298,-98 1292,-92 1292,-86 1292,-86 1292,-12 1292,-12 1292,-6 1298,-0 1304,-0 1304,-0 1585,-0 1585,-0 1591,-0 1597,-6 1597,-12 1597,-12 1597,-86 1597,-86 1597,-92 1591,-98 1585,-98"/>
<text text-anchor="middle" x="1444.5" y="-82.8" font-family="Times,serif" font-size="14.00">forward</text>
<text text-anchor="middle" x="1444.5" y="-67.8" font-family="Times,serif" font-size="14.00">CB2/C0</text>
<text text-anchor="middle" x="1444.5" y="-52.8" font-family="Times,serif" font-size="14.00">dilation rate: 1 &#160;&#160;k width: 3</text>
<text text-anchor="middle" x="1444.5" y="-37.8" font-family="Times,serif" font-size="14.00">log gamma1: &#45;11.000000 &#160;&#160;log gamma2: &#45;11.000000</text>
<text text-anchor="middle" x="1444.5" y="-22.8" font-family="Times,serif" font-size="14.00">log lambda1: &#45;11.000000 &#160;&#160;log lambda2: &#45;11.000000</text>
<text text-anchor="middle" x="1444.5" y="-7.8" font-family="Times,serif" font-size="14.00">n kernels: 64</text>
</g>
<!-- 10&#45;&gt;21 -->
<g id="edge21" class="edge"><title>10&#45;&gt;21</title>
<path fill="none" stroke="black" d="M1411.7,-163.923C1415.88,-149.42 1421.98,-128.221 1427.79,-108.03"/>
<polygon fill="black" stroke="black" points="1431.21,-108.812 1430.61,-98.2336 1424.48,-106.875 1431.21,-108.812"/>
</g>
<!-- 22 -->
<g id="node23" class="node"><title>22</title>
<path fill="#e9d3ff" stroke="black" d="M1908,-98C1908,-98 1627,-98 1627,-98 1621,-98 1615,-92 1615,-86 1615,-86 1615,-12 1615,-12 1615,-6 1621,-0 1627,-0 1627,-0 1908,-0 1908,-0 1914,-0 1920,-6 1920,-12 1920,-12 1920,-86 1920,-86 1920,-92 1914,-98 1908,-98"/>
<text text-anchor="middle" x="1767.5" y="-82.8" font-family="Times,serif" font-size="14.00">forward</text>
<text text-anchor="middle" x="1767.5" y="-67.8" font-family="Times,serif" font-size="14.00">input</text>
<text text-anchor="middle" x="1767.5" y="-52.8" font-family="Times,serif" font-size="14.00">dilation rate: 1 &#160;&#160;k width: 3</text>
<text text-anchor="middle" x="1767.5" y="-37.8" font-family="Times,serif" font-size="14.00">log gamma1: &#45;11.000000 &#160;&#160;log gamma2: &#45;11.000000</text>
<text text-anchor="middle" x="1767.5" y="-22.8" font-family="Times,serif" font-size="14.00">log lambda1: &#45;11.000000 &#160;&#160;log lambda2: &#45;11.000000</text>
<text text-anchor="middle" x="1767.5" y="-7.8" font-family="Times,serif" font-size="14.00">n kernels: 64</text>
</g>
<!-- 11&#45;&gt;22 -->
<g id="edge22" class="edge"><title>11&#45;&gt;22</title>
<path fill="none" stroke="black" d="M1732.11,-163.923C1736.62,-149.42 1743.2,-128.221 1749.48,-108.03"/>
<polygon fill="black" stroke="black" points="1752.89,-108.822 1752.52,-98.2336 1746.21,-106.745 1752.89,-108.822"/>
</g>
<!-- 23 -->
<g id="node24" class="node"><title>23</title>
<path fill="#e9d3ff" stroke="black" d="M2231,-98C2231,-98 1950,-98 1950,-98 1944,-98 1938,-92 1938,-86 1938,-86 1938,-12 1938,-12 1938,-6 1944,-0 1950,-0 1950,-0 2231,-0 2231,-0 2237,-0 2243,-6 2243,-12 2243,-12 2243,-86 2243,-86 2243,-92 2237,-98 2231,-98"/>
<text text-anchor="middle" x="2090.5" y="-82.8" font-family="Times,serif" font-size="14.00">forward</text>
<text text-anchor="middle" x="2090.5" y="-67.8" font-family="Times,serif" font-size="14.00">CB3/C0</text>
<text text-anchor="middle" x="2090.5" y="-52.8" font-family="Times,serif" font-size="14.00">dilation rate: 1 &#160;&#160;k width: 3</text>
<text text-anchor="middle" x="2090.5" y="-37.8" font-family="Times,serif" font-size="14.00">log gamma1: &#45;11.000000 &#160;&#160;log gamma2: &#45;11.000000</text>
<text text-anchor="middle" x="2090.5" y="-22.8" font-family="Times,serif" font-size="14.00">log lambda1: &#45;11.000000 &#160;&#160;log lambda2: &#45;11.000000</text>
<text text-anchor="middle" x="2090.5" y="-7.8" font-family="Times,serif" font-size="14.00">n kernels: 64</text>
</g>
<!-- 12&#45;&gt;23 -->
<g id="edge23" class="edge"><title>12&#45;&gt;23</title>
<path fill="none" stroke="black" d="M1987.8,-163.923C2001.35,-148.893 2021.38,-126.67 2040.17,-105.832"/>
<polygon fill="black" stroke="black" points="2042.92,-108.005 2047.02,-98.2336 2037.72,-103.317 2042.92,-108.005"/>
</g>
</g>
</svg>
