<?xml version="1.0" encoding="UTF-8" standalone="no"?>
<!DOCTYPE svg PUBLIC "-//W3C//DTD SVG 1.1//EN"
 "http://www.w3.org/Graphics/SVG/1.1/DTD/svg11.dtd">
<!-- Generated by graphviz version 2.38.0 (20140413.2041)
 -->
<!-- Title: %3 Pages: 1 -->
<svg width="1299pt" height="298pt"
 viewBox="0.00 0.00 1298.50 298.00" xmlns="http://www.w3.org/2000/svg" xmlns:xlink="http://www.w3.org/1999/xlink">
<g id="graph0" class="graph" transform="scale(1 1) rotate(0) translate(4 294)">
<title>%3</title>
<polygon fill="none" stroke="none" points="-4,4 -4,-294 1294.5,-294 1294.5,4 -4,4"/>
<!-- 0 -->
<g id="node1" class="node"><title>0</title>
<path fill="#ffd3d3" stroke="black" d="M601,-290C601,-290 410,-290 410,-290 404,-290 398,-284 398,-278 398,-278 398,-249 398,-249 398,-243 404,-237 410,-237 410,-237 601,-237 601,-237 607,-237 613,-243 613,-249 613,-249 613,-278 613,-278 613,-284 607,-290 601,-290"/>
<text text-anchor="middle" x="505.5" y="-274.8" font-family="Times,serif" font-size="14.00">net_3d</text>
<text text-anchor="middle" x="505.5" y="-259.8" font-family="Times,serif" font-size="14.00">k width: 3 &#160;&#160;log gamma2: &#45;5.000000</text>
<text text-anchor="middle" x="505.5" y="-244.8" font-family="Times,serif" font-size="14.00">n kernels: 24</text>
</g>
<!-- 1 -->
<g id="node2" class="node"><title>1</title>
<path fill="#e9ffd3" stroke="black" d="M139,-192.5C139,-192.5 76,-192.5 76,-192.5 70,-192.5 64,-186.5 64,-180.5 64,-180.5 64,-168.5 64,-168.5 64,-162.5 70,-156.5 76,-156.5 76,-156.5 139,-156.5 139,-156.5 145,-156.5 151,-162.5 151,-168.5 151,-168.5 151,-180.5 151,-180.5 151,-186.5 145,-192.5 139,-192.5"/>
<text text-anchor="middle" x="107.5" y="-170.8" font-family="Times,serif" font-size="14.00">conv block 0</text>
</g>
<!-- 0&#45;&gt;1 -->
<g id="edge1" class="edge"><title>0&#45;&gt;1</title>
<path fill="none" stroke="black" d="M397.795,-238.957C321.192,-222.212 221.545,-200.429 161.162,-187.23"/>
<polygon fill="black" stroke="black" points="161.605,-183.744 151.088,-185.028 160.11,-190.583 161.605,-183.744"/>
</g>
<!-- 2 -->
<g id="node3" class="node"><title>2</title>
<path fill="#e9ffd3" stroke="black" d="M399.5,-201C399.5,-201 277.5,-201 277.5,-201 271.5,-201 265.5,-195 265.5,-189 265.5,-189 265.5,-160 265.5,-160 265.5,-154 271.5,-148 277.5,-148 277.5,-148 399.5,-148 399.5,-148 405.5,-148 411.5,-154 411.5,-160 411.5,-160 411.5,-189 411.5,-189 411.5,-195 405.5,-201 399.5,-201"/>
<text text-anchor="middle" x="338.5" y="-185.8" font-family="Times,serif" font-size="14.00">conv block 1</text>
<text text-anchor="middle" x="338.5" y="-170.8" font-family="Times,serif" font-size="14.00">n kernels: 24 &#160;&#160;pool z: 1</text>
<text text-anchor="middle" x="338.5" y="-155.8" font-family="Times,serif" font-size="14.00">spatial scale: 1</text>
</g>
<!-- 0&#45;&gt;2 -->
<g id="edge2" class="edge"><title>0&#45;&gt;2</title>
<path fill="none" stroke="black" d="M456.298,-236.868C437.61,-227.132 416.147,-215.951 396.705,-205.822"/>
<polygon fill="black" stroke="black" points="398.125,-202.616 387.639,-201.099 394.891,-208.824 398.125,-202.616"/>
</g>
<!-- 3 -->
<g id="node4" class="node"><title>3</title>
<path fill="#e9ffd3" stroke="black" d="M788,-193.5C788,-193.5 633,-193.5 633,-193.5 627,-193.5 621,-187.5 621,-181.5 621,-181.5 621,-167.5 621,-167.5 621,-161.5 627,-155.5 633,-155.5 633,-155.5 788,-155.5 788,-155.5 794,-155.5 800,-161.5 800,-167.5 800,-167.5 800,-181.5 800,-181.5 800,-187.5 794,-193.5 788,-193.5"/>
<text text-anchor="middle" x="710.5" y="-178.3" font-family="Times,serif" font-size="14.00">conv block 2</text>
<text text-anchor="middle" x="710.5" y="-163.3" font-family="Times,serif" font-size="14.00">n kernels: 72 &#160;&#160;spatial scale: 2</text>
</g>
<!-- 0&#45;&gt;3 -->
<g id="edge3" class="edge"><title>0&#45;&gt;3</title>
<path fill="none" stroke="black" d="M565.622,-236.985C595.13,-224.462 630.325,-209.525 658.637,-197.51"/>
<polygon fill="black" stroke="black" points="660.119,-200.684 667.957,-193.555 657.384,-194.24 660.119,-200.684"/>
</g>
<!-- 4 -->
<g id="node5" class="node"><title>4</title>
<path fill="#e9ffd3" stroke="black" d="M1152.5,-192.5C1152.5,-192.5 1098.5,-192.5 1098.5,-192.5 1092.5,-192.5 1086.5,-186.5 1086.5,-180.5 1086.5,-180.5 1086.5,-168.5 1086.5,-168.5 1086.5,-162.5 1092.5,-156.5 1098.5,-156.5 1098.5,-156.5 1152.5,-156.5 1152.5,-156.5 1158.5,-156.5 1164.5,-162.5 1164.5,-168.5 1164.5,-168.5 1164.5,-180.5 1164.5,-180.5 1164.5,-186.5 1158.5,-192.5 1152.5,-192.5"/>
<text text-anchor="middle" x="1125.5" y="-170.8" font-family="Times,serif" font-size="14.00">path merge</text>
</g>
<!-- 0&#45;&gt;4 -->
<g id="edge4" class="edge"><title>0&#45;&gt;4</title>
<path fill="none" stroke="black" d="M613.142,-247.395C748.949,-228.339 976.776,-196.369 1076.39,-182.392"/>
<polygon fill="black" stroke="black" points="1077.05,-185.833 1086.47,-180.977 1076.08,-178.901 1077.05,-185.833"/>
</g>
<!-- 5 -->
<g id="node6" class="node"><title>5</title>
<path fill="#d3ffff" stroke="black" d="M47.5,-111C47.5,-111 13.5,-111 13.5,-111 7.5,-111 1.5,-105 1.5,-99 1.5,-99 1.5,-87 1.5,-87 1.5,-81 7.5,-75 13.5,-75 13.5,-75 47.5,-75 47.5,-75 53.5,-75 59.5,-81 59.5,-87 59.5,-87 59.5,-99 59.5,-99 59.5,-105 53.5,-111 47.5,-111"/>
<text text-anchor="middle" x="30.5" y="-89.3" font-family="Times,serif" font-size="14.00">comp 0</text>
</g>
<!-- 1&#45;&gt;5 -->
<g id="edge5" class="edge"><title>1&#45;&gt;5</title>
<path fill="none" stroke="black" d="M90.7921,-156.25C80.0965,-145.207 66.0551,-130.71 54.2141,-118.484"/>
<polygon fill="black" stroke="black" points="56.6466,-115.965 47.1752,-111.217 51.6184,-120.835 56.6466,-115.965"/>
</g>
<!-- 6 -->
<g id="node7" class="node"><title>6</title>
<path fill="#bfe6e6" stroke="black" d="M124.5,-111C124.5,-111 90.5,-111 90.5,-111 84.5,-111 78.5,-105 78.5,-99 78.5,-99 78.5,-87 78.5,-87 78.5,-81 84.5,-75 90.5,-75 90.5,-75 124.5,-75 124.5,-75 130.5,-75 136.5,-81 136.5,-87 136.5,-87 136.5,-99 136.5,-99 136.5,-105 130.5,-111 124.5,-111"/>
<text text-anchor="middle" x="107.5" y="-89.3" font-family="Times,serif" font-size="14.00">comp 1</text>
</g>
<!-- 1&#45;&gt;6 -->
<g id="edge6" class="edge"><title>1&#45;&gt;6</title>
<path fill="none" stroke="black" d="M107.5,-156.25C107.5,-146.04 107.5,-132.878 107.5,-121.288"/>
<polygon fill="black" stroke="black" points="111,-121.217 107.5,-111.217 104,-121.217 111,-121.217"/>
</g>
<!-- 7 -->
<g id="node8" class="node"><title>7</title>
<path fill="#d3ffff" stroke="black" d="M202.5,-111C202.5,-111 168.5,-111 168.5,-111 162.5,-111 156.5,-105 156.5,-99 156.5,-99 156.5,-87 156.5,-87 156.5,-81 162.5,-75 168.5,-75 168.5,-75 202.5,-75 202.5,-75 208.5,-75 214.5,-81 214.5,-87 214.5,-87 214.5,-99 214.5,-99 214.5,-105 208.5,-111 202.5,-111"/>
<text text-anchor="middle" x="185.5" y="-89.3" font-family="Times,serif" font-size="14.00">comp 0</text>
</g>
<!-- 2&#45;&gt;7 -->
<g id="edge7" class="edge"><title>2&#45;&gt;7</title>
<path fill="none" stroke="black" d="M289.248,-147.908C267.981,-136.858 243.483,-124.128 223.634,-113.815"/>
<polygon fill="black" stroke="black" points="225.072,-110.618 214.585,-109.113 221.845,-116.829 225.072,-110.618"/>
</g>
<!-- 8 -->
<g id="node9" class="node"><title>8</title>
<path fill="#bfe6e6" stroke="black" d="M279.5,-111C279.5,-111 245.5,-111 245.5,-111 239.5,-111 233.5,-105 233.5,-99 233.5,-99 233.5,-87 233.5,-87 233.5,-81 239.5,-75 245.5,-75 245.5,-75 279.5,-75 279.5,-75 285.5,-75 291.5,-81 291.5,-87 291.5,-87 291.5,-99 291.5,-99 291.5,-105 285.5,-111 279.5,-111"/>
<text text-anchor="middle" x="262.5" y="-89.3" font-family="Times,serif" font-size="14.00">comp 1</text>
</g>
<!-- 2&#45;&gt;8 -->
<g id="edge8" class="edge"><title>2&#45;&gt;8</title>
<path fill="none" stroke="black" d="M314.035,-147.908C305.085,-138.546 294.983,-127.979 286.109,-118.697"/>
<polygon fill="black" stroke="black" points="288.437,-116.066 278.997,-111.256 283.377,-120.903 288.437,-116.066"/>
</g>
<!-- 9 -->
<g id="node10" class="node"><title>9</title>
<path fill="#abcece" stroke="black" d="M355.5,-111C355.5,-111 321.5,-111 321.5,-111 315.5,-111 309.5,-105 309.5,-99 309.5,-99 309.5,-87 309.5,-87 309.5,-81 315.5,-75 321.5,-75 321.5,-75 355.5,-75 355.5,-75 361.5,-75 367.5,-81 367.5,-87 367.5,-87 367.5,-99 367.5,-99 367.5,-105 361.5,-111 355.5,-111"/>
<text text-anchor="middle" x="338.5" y="-89.3" font-family="Times,serif" font-size="14.00">comp 2</text>
</g>
<!-- 2&#45;&gt;9 -->
<g id="edge9" class="edge"><title>2&#45;&gt;9</title>
<path fill="none" stroke="black" d="M338.5,-147.908C338.5,-139.482 338.5,-130.08 338.5,-121.517"/>
<polygon fill="black" stroke="black" points="342,-121.256 338.5,-111.256 335,-121.256 342,-121.256"/>
</g>
<!-- 10 -->
<g id="node11" class="node"><title>10</title>
<path fill="#97b6b6" stroke="black" d="M537,-112C537,-112 398,-112 398,-112 392,-112 386,-106 386,-100 386,-100 386,-86 386,-86 386,-80 392,-74 398,-74 398,-74 537,-74 537,-74 543,-74 549,-80 549,-86 549,-86 549,-100 549,-100 549,-106 543,-112 537,-112"/>
<text text-anchor="middle" x="467.5" y="-96.8" font-family="Times,serif" font-size="14.00">path end 1</text>
<text text-anchor="middle" x="467.5" y="-81.8" font-family="Times,serif" font-size="14.00">k width: &#45;2 &#160;&#160;n kernels: &#45;24</text>
</g>
<!-- 2&#45;&gt;10 -->
<g id="edge10" class="edge"><title>2&#45;&gt;10</title>
<path fill="none" stroke="black" d="M380.026,-147.908C395.788,-138.194 413.656,-127.183 429.115,-117.656"/>
<polygon fill="black" stroke="black" points="431.228,-120.465 437.905,-112.239 427.555,-114.506 431.228,-120.465"/>
</g>
<!-- 11 -->
<g id="node12" class="node"><title>11</title>
<path fill="#d3ffff" stroke="black" d="M613.5,-111C613.5,-111 579.5,-111 579.5,-111 573.5,-111 567.5,-105 567.5,-99 567.5,-99 567.5,-87 567.5,-87 567.5,-81 573.5,-75 579.5,-75 579.5,-75 613.5,-75 613.5,-75 619.5,-75 625.5,-81 625.5,-87 625.5,-87 625.5,-99 625.5,-99 625.5,-105 619.5,-111 613.5,-111"/>
<text text-anchor="middle" x="596.5" y="-89.3" font-family="Times,serif" font-size="14.00">comp 0</text>
</g>
<!-- 3&#45;&gt;11 -->
<g id="edge11" class="edge"><title>3&#45;&gt;11</title>
<path fill="none" stroke="black" d="M684.632,-155.46C668.26,-144.043 646.945,-129.179 629.378,-116.928"/>
<polygon fill="black" stroke="black" points="631.298,-114 621.094,-111.151 627.294,-119.742 631.298,-114"/>
</g>
<!-- 12 -->
<g id="node13" class="node"><title>12</title>
<path fill="#bfe6e6" stroke="black" d="M689.5,-111C689.5,-111 655.5,-111 655.5,-111 649.5,-111 643.5,-105 643.5,-99 643.5,-99 643.5,-87 643.5,-87 643.5,-81 649.5,-75 655.5,-75 655.5,-75 689.5,-75 689.5,-75 695.5,-75 701.5,-81 701.5,-87 701.5,-87 701.5,-99 701.5,-99 701.5,-105 695.5,-111 689.5,-111"/>
<text text-anchor="middle" x="672.5" y="-89.3" font-family="Times,serif" font-size="14.00">comp 1</text>
</g>
<!-- 3&#45;&gt;12 -->
<g id="edge12" class="edge"><title>3&#45;&gt;12</title>
<path fill="none" stroke="black" d="M701.877,-155.46C696.916,-145.081 690.593,-131.853 685.085,-120.33"/>
<polygon fill="black" stroke="black" points="688.168,-118.664 680.698,-111.151 681.853,-121.683 688.168,-118.664"/>
</g>
<!-- 13 -->
<g id="node14" class="node"><title>13</title>
<path fill="#abcece" stroke="black" d="M765.5,-111C765.5,-111 731.5,-111 731.5,-111 725.5,-111 719.5,-105 719.5,-99 719.5,-99 719.5,-87 719.5,-87 719.5,-81 725.5,-75 731.5,-75 731.5,-75 765.5,-75 765.5,-75 771.5,-75 777.5,-81 777.5,-87 777.5,-87 777.5,-99 777.5,-99 777.5,-105 771.5,-111 765.5,-111"/>
<text text-anchor="middle" x="748.5" y="-89.3" font-family="Times,serif" font-size="14.00">comp 2</text>
</g>
<!-- 3&#45;&gt;13 -->
<g id="edge13" class="edge"><title>3&#45;&gt;13</title>
<path fill="none" stroke="black" d="M719.123,-155.46C724.084,-145.081 730.407,-131.853 735.915,-120.33"/>
<polygon fill="black" stroke="black" points="739.147,-121.683 740.302,-111.151 732.832,-118.664 739.147,-121.683"/>
</g>
<!-- 14 -->
<g id="node15" class="node"><title>14</title>
<path fill="#97b6b6" stroke="black" d="M841.5,-111C841.5,-111 807.5,-111 807.5,-111 801.5,-111 795.5,-105 795.5,-99 795.5,-99 795.5,-87 795.5,-87 795.5,-81 801.5,-75 807.5,-75 807.5,-75 841.5,-75 841.5,-75 847.5,-75 853.5,-81 853.5,-87 853.5,-87 853.5,-99 853.5,-99 853.5,-105 847.5,-111 841.5,-111"/>
<text text-anchor="middle" x="824.5" y="-89.3" font-family="Times,serif" font-size="14.00">comp 3</text>
</g>
<!-- 3&#45;&gt;14 -->
<g id="edge14" class="edge"><title>3&#45;&gt;14</title>
<path fill="none" stroke="black" d="M736.368,-155.46C752.74,-144.043 774.055,-129.179 791.622,-116.928"/>
<polygon fill="black" stroke="black" points="793.706,-119.742 799.906,-111.151 789.702,-114 793.706,-119.742"/>
</g>
<!-- 15 -->
<g id="node16" class="node"><title>15</title>
<path fill="#839e9e" stroke="black" d="M1023,-112C1023,-112 884,-112 884,-112 878,-112 872,-106 872,-100 872,-100 872,-86 872,-86 872,-80 878,-74 884,-74 884,-74 1023,-74 1023,-74 1029,-74 1035,-80 1035,-86 1035,-86 1035,-100 1035,-100 1035,-106 1029,-112 1023,-112"/>
<text text-anchor="middle" x="953.5" y="-96.8" font-family="Times,serif" font-size="14.00">path end 2</text>
<text text-anchor="middle" x="953.5" y="-81.8" font-family="Times,serif" font-size="14.00">k width: &#45;2 &#160;&#160;n kernels: &#45;72</text>
</g>
<!-- 3&#45;&gt;15 -->
<g id="edge15" class="edge"><title>3&#45;&gt;15</title>
<path fill="none" stroke="black" d="M765.64,-155.46C802.173,-143.508 850.251,-127.779 888.624,-115.225"/>
<polygon fill="black" stroke="black" points="889.742,-118.542 898.158,-112.106 887.565,-111.889 889.742,-118.542"/>
</g>
<!-- 16 -->
<g id="node17" class="node"><title>16</title>
<path fill="#d3ffff" stroke="black" d="M1102,-112C1102,-112 1065,-112 1065,-112 1059,-112 1053,-106 1053,-100 1053,-100 1053,-86 1053,-86 1053,-80 1059,-74 1065,-74 1065,-74 1102,-74 1102,-74 1108,-74 1114,-80 1114,-86 1114,-86 1114,-100 1114,-100 1114,-106 1108,-112 1102,-112"/>
<text text-anchor="middle" x="1083.5" y="-96.8" font-family="Times,serif" font-size="14.00">forward</text>
<text text-anchor="middle" x="1083.5" y="-81.8" font-family="Times,serif" font-size="14.00">CB0/C1</text>
</g>
<!-- 4&#45;&gt;16 -->
<g id="edge16" class="edge"><title>4&#45;&gt;16</title>
<path fill="none" stroke="black" d="M1116.39,-156.25C1110.94,-145.944 1103.91,-132.629 1097.74,-120.961"/>
<polygon fill="black" stroke="black" points="1100.8,-119.251 1093.03,-112.044 1094.61,-122.521 1100.8,-119.251"/>
</g>
<!-- 17 -->
<g id="node18" class="node"><title>17</title>
<path fill="#bfe6e6" stroke="black" d="M1190.5,-112C1190.5,-112 1144.5,-112 1144.5,-112 1138.5,-112 1132.5,-106 1132.5,-100 1132.5,-100 1132.5,-86 1132.5,-86 1132.5,-80 1138.5,-74 1144.5,-74 1144.5,-74 1190.5,-74 1190.5,-74 1196.5,-74 1202.5,-80 1202.5,-86 1202.5,-86 1202.5,-100 1202.5,-100 1202.5,-106 1196.5,-112 1190.5,-112"/>
<text text-anchor="middle" x="1167.5" y="-96.8" font-family="Times,serif" font-size="14.00">residual 1</text>
<text text-anchor="middle" x="1167.5" y="-81.8" font-family="Times,serif" font-size="14.00">CB1/PE1</text>
</g>
<!-- 4&#45;&gt;17 -->
<g id="edge17" class="edge"><title>4&#45;&gt;17</title>
<path fill="none" stroke="black" d="M1134.61,-156.25C1140.06,-145.944 1147.09,-132.629 1153.26,-120.961"/>
<polygon fill="black" stroke="black" points="1156.39,-122.521 1157.97,-112.044 1150.2,-119.251 1156.39,-122.521"/>
</g>
<!-- 18 -->
<g id="node19" class="node"><title>18</title>
<path fill="#abcece" stroke="black" d="M1278.5,-112C1278.5,-112 1232.5,-112 1232.5,-112 1226.5,-112 1220.5,-106 1220.5,-100 1220.5,-100 1220.5,-86 1220.5,-86 1220.5,-80 1226.5,-74 1232.5,-74 1232.5,-74 1278.5,-74 1278.5,-74 1284.5,-74 1290.5,-80 1290.5,-86 1290.5,-86 1290.5,-100 1290.5,-100 1290.5,-106 1284.5,-112 1278.5,-112"/>
<text text-anchor="middle" x="1255.5" y="-96.8" font-family="Times,serif" font-size="14.00">residual 2</text>
<text text-anchor="middle" x="1255.5" y="-81.8" font-family="Times,serif" font-size="14.00">CB2/PE2</text>
</g>
<!-- 4&#45;&gt;18 -->
<g id="edge18" class="edge"><title>4&#45;&gt;18</title>
<path fill="none" stroke="black" d="M1153.39,-156.445C1171.98,-145.079 1196.65,-129.989 1217.09,-117.49"/>
<polygon fill="black" stroke="black" points="1219.14,-120.335 1225.85,-112.132 1215.49,-114.364 1219.14,-120.335"/>
</g>
<!-- 19 -->
<g id="node20" class="node"><title>19</title>
<path fill="#e9d3ff" stroke="black" d="M47,-38C47,-38 12,-38 12,-38 6,-38 0,-32 0,-26 0,-26 0,-12 0,-12 0,-6 6,-0 12,-0 12,-0 47,-0 47,-0 53,-0 59,-6 59,-12 59,-12 59,-26 59,-26 59,-32 53,-38 47,-38"/>
<text text-anchor="middle" x="29.5" y="-22.8" font-family="Times,serif" font-size="14.00">forward</text>
<text text-anchor="middle" x="29.5" y="-7.8" font-family="Times,serif" font-size="14.00">input</text>
</g>
<!-- 5&#45;&gt;19 -->
<g id="edge19" class="edge"><title>5&#45;&gt;19</title>
<path fill="none" stroke="black" d="M30.263,-74.937C30.1526,-66.9865 30.0182,-57.3134 29.8932,-48.3127"/>
<polygon fill="black" stroke="black" points="33.3914,-48.1496 29.7528,-38.1992 26.3921,-48.2468 33.3914,-48.1496"/>
</g>
<!-- 20 -->
<g id="node21" class="node"><title>20</title>
<path fill="#e9d3ff" stroke="black" d="M126,-38C126,-38 89,-38 89,-38 83,-38 77,-32 77,-26 77,-26 77,-12 77,-12 77,-6 83,-0 89,-0 89,-0 126,-0 126,-0 132,-0 138,-6 138,-12 138,-12 138,-26 138,-26 138,-32 132,-38 126,-38"/>
<text text-anchor="middle" x="107.5" y="-22.8" font-family="Times,serif" font-size="14.00">forward</text>
<text text-anchor="middle" x="107.5" y="-7.8" font-family="Times,serif" font-size="14.00">CB0/C0</text>
</g>
<!-- 6&#45;&gt;20 -->
<g id="edge20" class="edge"><title>6&#45;&gt;20</title>
<path fill="none" stroke="black" d="M107.5,-74.937C107.5,-66.9865 107.5,-57.3134 107.5,-48.3127"/>
<polygon fill="black" stroke="black" points="111,-48.1991 107.5,-38.1992 104,-48.1992 111,-48.1991"/>
</g>
<!-- 21 -->
<g id="node22" class="node"><title>21</title>
<path fill="#e9d3ff" stroke="black" d="M203,-38C203,-38 168,-38 168,-38 162,-38 156,-32 156,-26 156,-26 156,-12 156,-12 156,-6 162,-0 168,-0 168,-0 203,-0 203,-0 209,-0 215,-6 215,-12 215,-12 215,-26 215,-26 215,-32 209,-38 203,-38"/>
<text text-anchor="middle" x="185.5" y="-22.8" font-family="Times,serif" font-size="14.00">forward</text>
<text text-anchor="middle" x="185.5" y="-7.8" font-family="Times,serif" font-size="14.00">input</text>
</g>
<!-- 7&#45;&gt;21 -->
<g id="edge21" class="edge"><title>7&#45;&gt;21</title>
<path fill="none" stroke="black" d="M185.5,-74.937C185.5,-66.9865 185.5,-57.3134 185.5,-48.3127"/>
<polygon fill="black" stroke="black" points="189,-48.1991 185.5,-38.1992 182,-48.1992 189,-48.1991"/>
</g>
<!-- 22 -->
<g id="node23" class="node"><title>22</title>
<path fill="#e9d3ff" stroke="black" d="M282,-38C282,-38 245,-38 245,-38 239,-38 233,-32 233,-26 233,-26 233,-12 233,-12 233,-6 239,-0 245,-0 245,-0 282,-0 282,-0 288,-0 294,-6 294,-12 294,-12 294,-26 294,-26 294,-32 288,-38 282,-38"/>
<text text-anchor="middle" x="263.5" y="-22.8" font-family="Times,serif" font-size="14.00">forward</text>
<text text-anchor="middle" x="263.5" y="-7.8" font-family="Times,serif" font-size="14.00">CB1/C0</text>
</g>
<!-- 8&#45;&gt;22 -->
<g id="edge22" class="edge"><title>8&#45;&gt;22</title>
<path fill="none" stroke="black" d="M262.737,-74.937C262.847,-66.9865 262.982,-57.3134 263.107,-48.3127"/>
<polygon fill="black" stroke="black" points="266.608,-48.2468 263.247,-38.1992 259.609,-48.1496 266.608,-48.2468"/>
</g>
<!-- 23 -->
<g id="node24" class="node"><title>23</title>
<path fill="#e9d3ff" stroke="black" d="M361,-38C361,-38 324,-38 324,-38 318,-38 312,-32 312,-26 312,-26 312,-12 312,-12 312,-6 318,-0 324,-0 324,-0 361,-0 361,-0 367,-0 373,-6 373,-12 373,-12 373,-26 373,-26 373,-32 367,-38 361,-38"/>
<text text-anchor="middle" x="342.5" y="-22.8" font-family="Times,serif" font-size="14.00">forward</text>
<text text-anchor="middle" x="342.5" y="-7.8" font-family="Times,serif" font-size="14.00">CB1/C1</text>
</g>
<!-- 9&#45;&gt;23 -->
<g id="edge23" class="edge"><title>9&#45;&gt;23</title>
<path fill="none" stroke="black" d="M339.448,-74.937C339.89,-66.9865 340.427,-57.3134 340.927,-48.3127"/>
<polygon fill="black" stroke="black" points="344.429,-48.3779 341.489,-38.1992 337.44,-47.9896 344.429,-48.3779"/>
</g>
<!-- 24 -->
<g id="node25" class="node"><title>24</title>
<path fill="#e9d3ff" stroke="black" d="M486,-38C486,-38 449,-38 449,-38 443,-38 437,-32 437,-26 437,-26 437,-12 437,-12 437,-6 443,-0 449,-0 449,-0 486,-0 486,-0 492,-0 498,-6 498,-12 498,-12 498,-26 498,-26 498,-32 492,-38 486,-38"/>
<text text-anchor="middle" x="467.5" y="-22.8" font-family="Times,serif" font-size="14.00">forward</text>
<text text-anchor="middle" x="467.5" y="-7.8" font-family="Times,serif" font-size="14.00">CB1/C2</text>
</g>
<!-- 10&#45;&gt;24 -->
<g id="edge24" class="edge"><title>10&#45;&gt;24</title>
<path fill="none" stroke="black" d="M467.5,-73.8314C467.5,-66.131 467.5,-56.9743 467.5,-48.4166"/>
<polygon fill="black" stroke="black" points="471,-48.4132 467.5,-38.4133 464,-48.4133 471,-48.4132"/>
</g>
<!-- 25 -->
<g id="node26" class="node"><title>25</title>
<path fill="#e9d3ff" stroke="black" d="M610,-38C610,-38 575,-38 575,-38 569,-38 563,-32 563,-26 563,-26 563,-12 563,-12 563,-6 569,-0 575,-0 575,-0 610,-0 610,-0 616,-0 622,-6 622,-12 622,-12 622,-26 622,-26 622,-32 616,-38 610,-38"/>
<text text-anchor="middle" x="592.5" y="-22.8" font-family="Times,serif" font-size="14.00">forward</text>
<text text-anchor="middle" x="592.5" y="-7.8" font-family="Times,serif" font-size="14.00">input</text>
</g>
<!-- 11&#45;&gt;25 -->
<g id="edge25" class="edge"><title>11&#45;&gt;25</title>
<path fill="none" stroke="black" d="M595.552,-74.937C595.11,-66.9865 594.573,-57.3134 594.073,-48.3127"/>
<polygon fill="black" stroke="black" points="597.56,-47.9896 593.511,-38.1992 590.571,-48.3779 597.56,-47.9896"/>
</g>
<!-- 26 -->
<g id="node27" class="node"><title>26</title>
<path fill="#e9d3ff" stroke="black" d="M689,-38C689,-38 652,-38 652,-38 646,-38 640,-32 640,-26 640,-26 640,-12 640,-12 640,-6 646,-0 652,-0 652,-0 689,-0 689,-0 695,-0 701,-6 701,-12 701,-12 701,-26 701,-26 701,-32 695,-38 689,-38"/>
<text text-anchor="middle" x="670.5" y="-22.8" font-family="Times,serif" font-size="14.00">forward</text>
<text text-anchor="middle" x="670.5" y="-7.8" font-family="Times,serif" font-size="14.00">CB2/C0</text>
</g>
<!-- 12&#45;&gt;26 -->
<g id="edge26" class="edge"><title>12&#45;&gt;26</title>
<path fill="none" stroke="black" d="M672.026,-74.937C671.805,-66.9865 671.536,-57.3134 671.286,-48.3127"/>
<polygon fill="black" stroke="black" points="674.782,-48.0981 671.006,-38.1992 667.785,-48.2925 674.782,-48.0981"/>
</g>
<!-- 27 -->
<g id="node28" class="node"><title>27</title>
<path fill="#e9d3ff" stroke="black" d="M768,-38C768,-38 731,-38 731,-38 725,-38 719,-32 719,-26 719,-26 719,-12 719,-12 719,-6 725,-0 731,-0 731,-0 768,-0 768,-0 774,-0 780,-6 780,-12 780,-12 780,-26 780,-26 780,-32 774,-38 768,-38"/>
<text text-anchor="middle" x="749.5" y="-22.8" font-family="Times,serif" font-size="14.00">forward</text>
<text text-anchor="middle" x="749.5" y="-7.8" font-family="Times,serif" font-size="14.00">CB2/C1</text>
</g>
<!-- 13&#45;&gt;27 -->
<g id="edge27" class="edge"><title>13&#45;&gt;27</title>
<path fill="none" stroke="black" d="M748.737,-74.937C748.847,-66.9865 748.982,-57.3134 749.107,-48.3127"/>
<polygon fill="black" stroke="black" points="752.608,-48.2468 749.247,-38.1992 745.609,-48.1496 752.608,-48.2468"/>
</g>
<!-- 28 -->
<g id="node29" class="node"><title>28</title>
<path fill="#e9d3ff" stroke="black" d="M847,-38C847,-38 810,-38 810,-38 804,-38 798,-32 798,-26 798,-26 798,-12 798,-12 798,-6 804,-0 810,-0 810,-0 847,-0 847,-0 853,-0 859,-6 859,-12 859,-12 859,-26 859,-26 859,-32 853,-38 847,-38"/>
<text text-anchor="middle" x="828.5" y="-22.8" font-family="Times,serif" font-size="14.00">forward</text>
<text text-anchor="middle" x="828.5" y="-7.8" font-family="Times,serif" font-size="14.00">CB2/C2</text>
</g>
<!-- 14&#45;&gt;28 -->
<g id="edge28" class="edge"><title>14&#45;&gt;28</title>
<path fill="none" stroke="black" d="M825.448,-74.937C825.89,-66.9865 826.427,-57.3134 826.927,-48.3127"/>
<polygon fill="black" stroke="black" points="830.429,-48.3779 827.489,-38.1992 823.44,-47.9896 830.429,-48.3779"/>
</g>
<!-- 29 -->
<g id="node30" class="node"><title>29</title>
<path fill="#e9d3ff" stroke="black" d="M972,-38C972,-38 935,-38 935,-38 929,-38 923,-32 923,-26 923,-26 923,-12 923,-12 923,-6 929,-0 935,-0 935,-0 972,-0 972,-0 978,-0 984,-6 984,-12 984,-12 984,-26 984,-26 984,-32 978,-38 972,-38"/>
<text text-anchor="middle" x="953.5" y="-22.8" font-family="Times,serif" font-size="14.00">forward</text>
<text text-anchor="middle" x="953.5" y="-7.8" font-family="Times,serif" font-size="14.00">CB2/C3</text>
</g>
<!-- 15&#45;&gt;29 -->
<g id="edge29" class="edge"><title>15&#45;&gt;29</title>
<path fill="none" stroke="black" d="M953.5,-73.8314C953.5,-66.131 953.5,-56.9743 953.5,-48.4166"/>
<polygon fill="black" stroke="black" points="957,-48.4132 953.5,-38.4133 950,-48.4133 957,-48.4132"/>
</g>
</g>
</svg>
