<?xml version="1.0" encoding="UTF-8" standalone="no"?>
<!DOCTYPE svg PUBLIC "-//W3C//DTD SVG 1.1//EN"
 "http://www.w3.org/Graphics/SVG/1.1/DTD/svg11.dtd">
<!-- Generated by graphviz version 2.38.0 (20140413.2041)
 -->
<!-- Title: %3 Pages: 1 -->
<svg width="2187pt" height="298pt"
 viewBox="0.00 0.00 2187.00 298.00" xmlns="http://www.w3.org/2000/svg" xmlns:xlink="http://www.w3.org/1999/xlink">
<g id="graph0" class="graph" transform="scale(1 1) rotate(0) translate(4 294)">
<title>%3</title>
<polygon fill="none" stroke="none" points="-4,4 -4,-294 2183,-294 2183,4 -4,4"/>
<!-- 0 -->
<g id="node1" class="node"><title>0</title>
<path fill="#ffd3d3" stroke="black" d="M1218.5,-290C1218.5,-290 1064.5,-290 1064.5,-290 1058.5,-290 1052.5,-284 1052.5,-278 1052.5,-278 1052.5,-249 1052.5,-249 1052.5,-243 1058.5,-237 1064.5,-237 1064.5,-237 1218.5,-237 1218.5,-237 1224.5,-237 1230.5,-243 1230.5,-249 1230.5,-249 1230.5,-278 1230.5,-278 1230.5,-284 1224.5,-290 1218.5,-290"/>
<text text-anchor="middle" x="1141.5" y="-274.8" font-family="Times,serif" font-size="14.00">net</text>
<text text-anchor="middle" x="1141.5" y="-259.8" font-family="Times,serif" font-size="14.00">dilation rate: 2 &#160;&#160;n kernels: 64</text>
<text text-anchor="middle" x="1141.5" y="-244.8" font-family="Times,serif" font-size="14.00">pooling type: 0</text>
</g>
<!-- 1 -->
<g id="node2" class="node"><title>1</title>
<path fill="#e9ffd3" stroke="black" d="M931,-201C931,-201 668,-201 668,-201 662,-201 656,-195 656,-189 656,-189 656,-175 656,-175 656,-169 662,-163 668,-163 668,-163 931,-163 931,-163 937,-163 943,-169 943,-175 943,-175 943,-189 943,-189 943,-195 937,-201 931,-201"/>
<text text-anchor="middle" x="799.5" y="-185.8" font-family="Times,serif" font-size="14.00">conv block 0</text>
<text text-anchor="middle" x="799.5" y="-170.8" font-family="Times,serif" font-size="14.00">log gamma1: 1.000000 &#160;&#160;log gamma2: &#45;0.598720</text>
</g>
<!-- 0&#45;&gt;1 -->
<g id="edge1" class="edge"><title>0&#45;&gt;1</title>
<path fill="none" stroke="black" d="M1052.09,-241.716C1001.16,-229.877 937.614,-215.105 887.002,-203.34"/>
<polygon fill="black" stroke="black" points="887.592,-199.884 877.06,-201.029 886.007,-206.703 887.592,-199.884"/>
</g>
<!-- 2 -->
<g id="node3" class="node"><title>2</title>
<path fill="#e9ffd3" stroke="black" d="M1476.5,-201C1476.5,-201 1322.5,-201 1322.5,-201 1316.5,-201 1310.5,-195 1310.5,-189 1310.5,-189 1310.5,-175 1310.5,-175 1310.5,-169 1316.5,-163 1322.5,-163 1322.5,-163 1476.5,-163 1476.5,-163 1482.5,-163 1488.5,-169 1488.5,-175 1488.5,-175 1488.5,-189 1488.5,-189 1488.5,-195 1482.5,-201 1476.5,-201"/>
<text text-anchor="middle" x="1399.5" y="-185.8" font-family="Times,serif" font-size="14.00">conv block 1</text>
<text text-anchor="middle" x="1399.5" y="-170.8" font-family="Times,serif" font-size="14.00">dilation rate: 2 &#160;&#160;n kernels: 15</text>
</g>
<!-- 0&#45;&gt;2 -->
<g id="edge2" class="edge"><title>0&#45;&gt;2</title>
<path fill="none" stroke="black" d="M1224.55,-236.908C1258.86,-226.336 1298.16,-214.227 1330.81,-204.167"/>
<polygon fill="black" stroke="black" points="1332.19,-207.405 1340.71,-201.115 1330.12,-200.715 1332.19,-207.405"/>
</g>
<!-- 3 -->
<g id="node4" class="node"><title>3</title>
<path fill="#d3ffff" stroke="black" d="M271,-127C271,-127 12,-127 12,-127 6,-127 0,-121 0,-115 0,-115 0,-86 0,-86 0,-80 6,-74 12,-74 12,-74 271,-74 271,-74 277,-74 283,-80 283,-86 283,-86 283,-115 283,-115 283,-121 277,-127 271,-127"/>
<text text-anchor="middle" x="141.5" y="-111.8" font-family="Times,serif" font-size="14.00">comp 0</text>
<text text-anchor="middle" x="141.5" y="-96.8" font-family="Times,serif" font-size="14.00">log gamma1: 1.256654 &#160;&#160;log gamma2: 0.178457</text>
<text text-anchor="middle" x="141.5" y="-81.8" font-family="Times,serif" font-size="14.00">n kernels: &#45;8</text>
</g>
<!-- 1&#45;&gt;3 -->
<g id="edge3" class="edge"><title>1&#45;&gt;3</title>
<path fill="none" stroke="black" d="M655.785,-168.138C556.484,-158.677 421.139,-144.649 293.169,-127.199"/>
<polygon fill="black" stroke="black" points="293.566,-123.721 283.183,-125.829 292.614,-130.656 293.566,-123.721"/>
</g>
<!-- 4 -->
<g id="node5" class="node"><title>4</title>
<path fill="#bfe6e6" stroke="black" d="M572,-119.5C572,-119.5 313,-119.5 313,-119.5 307,-119.5 301,-113.5 301,-107.5 301,-107.5 301,-93.5 301,-93.5 301,-87.5 307,-81.5 313,-81.5 313,-81.5 572,-81.5 572,-81.5 578,-81.5 584,-87.5 584,-93.5 584,-93.5 584,-107.5 584,-107.5 584,-113.5 578,-119.5 572,-119.5"/>
<text text-anchor="middle" x="442.5" y="-104.3" font-family="Times,serif" font-size="14.00">comp 1</text>
<text text-anchor="middle" x="442.5" y="-89.3" font-family="Times,serif" font-size="14.00">log gamma1: 1.878346 &#160;&#160;log gamma2: 0.827777</text>
</g>
<!-- 1&#45;&gt;4 -->
<g id="edge4" class="edge"><title>1&#45;&gt;4</title>
<path fill="none" stroke="black" d="M718.491,-162.96C663.472,-150.708 590.628,-134.486 533.592,-121.785"/>
<polygon fill="black" stroke="black" points="534.018,-118.294 523.497,-119.537 532.497,-125.127 534.018,-118.294"/>
</g>
<!-- 5 -->
<g id="node6" class="node"><title>5</title>
<path fill="#abcece" stroke="black" d="M814.5,-119.5C814.5,-119.5 614.5,-119.5 614.5,-119.5 608.5,-119.5 602.5,-113.5 602.5,-107.5 602.5,-107.5 602.5,-93.5 602.5,-93.5 602.5,-87.5 608.5,-81.5 614.5,-81.5 614.5,-81.5 814.5,-81.5 814.5,-81.5 820.5,-81.5 826.5,-87.5 826.5,-93.5 826.5,-93.5 826.5,-107.5 826.5,-107.5 826.5,-113.5 820.5,-119.5 814.5,-119.5"/>
<text text-anchor="middle" x="714.5" y="-104.3" font-family="Times,serif" font-size="14.00">comp 2</text>
<text text-anchor="middle" x="714.5" y="-89.3" font-family="Times,serif" font-size="14.00">log gamma1: 0.767449 &#160;&#160;n kernels: &#45;4</text>
</g>
<!-- 1&#45;&gt;5 -->
<g id="edge5" class="edge"><title>1&#45;&gt;5</title>
<path fill="none" stroke="black" d="M780.212,-162.96C768.773,-152.262 754.099,-138.536 741.52,-126.771"/>
<polygon fill="black" stroke="black" points="743.7,-124.018 734.006,-119.744 738.918,-129.131 743.7,-124.018"/>
</g>
<!-- 6 -->
<g id="node7" class="node"><title>6</title>
<path fill="#97b6b6" stroke="black" d="M912.5,-119.5C912.5,-119.5 856.5,-119.5 856.5,-119.5 850.5,-119.5 844.5,-113.5 844.5,-107.5 844.5,-107.5 844.5,-93.5 844.5,-93.5 844.5,-87.5 850.5,-81.5 856.5,-81.5 856.5,-81.5 912.5,-81.5 912.5,-81.5 918.5,-81.5 924.5,-87.5 924.5,-93.5 924.5,-93.5 924.5,-107.5 924.5,-107.5 924.5,-113.5 918.5,-119.5 912.5,-119.5"/>
<text text-anchor="middle" x="884.5" y="-104.3" font-family="Times,serif" font-size="14.00">comp 3</text>
<text text-anchor="middle" x="884.5" y="-89.3" font-family="Times,serif" font-size="14.00">n kernels: 8</text>
</g>
<!-- 1&#45;&gt;6 -->
<g id="edge6" class="edge"><title>1&#45;&gt;6</title>
<path fill="none" stroke="black" d="M818.788,-162.96C830.227,-152.262 844.901,-138.536 857.48,-126.771"/>
<polygon fill="black" stroke="black" points="860.082,-129.131 864.994,-119.744 855.3,-124.018 860.082,-129.131"/>
</g>
<!-- 7 -->
<g id="node8" class="node"><title>7</title>
<path fill="#839e9e" stroke="black" d="M988.5,-118.5C988.5,-118.5 954.5,-118.5 954.5,-118.5 948.5,-118.5 942.5,-112.5 942.5,-106.5 942.5,-106.5 942.5,-94.5 942.5,-94.5 942.5,-88.5 948.5,-82.5 954.5,-82.5 954.5,-82.5 988.5,-82.5 988.5,-82.5 994.5,-82.5 1000.5,-88.5 1000.5,-94.5 1000.5,-94.5 1000.5,-106.5 1000.5,-106.5 1000.5,-112.5 994.5,-118.5 988.5,-118.5"/>
<text text-anchor="middle" x="971.5" y="-96.8" font-family="Times,serif" font-size="14.00">identity</text>
</g>
<!-- 1&#45;&gt;7 -->
<g id="edge7" class="edge"><title>1&#45;&gt;7</title>
<path fill="none" stroke="black" d="M851.535,-162.918C876.832,-153.407 907.345,-140.852 933.5,-127 935.238,-126.08 936.995,-125.099 938.751,-124.078"/>
<polygon fill="black" stroke="black" points="940.752,-126.956 947.433,-118.734 937.082,-120.995 940.752,-126.956"/>
</g>
<!-- 8 -->
<g id="node9" class="node"><title>8</title>
<path fill="#d3ffff" stroke="black" d="M1123,-119.5C1123,-119.5 1060,-119.5 1060,-119.5 1054,-119.5 1048,-113.5 1048,-107.5 1048,-107.5 1048,-93.5 1048,-93.5 1048,-87.5 1054,-81.5 1060,-81.5 1060,-81.5 1123,-81.5 1123,-81.5 1129,-81.5 1135,-87.5 1135,-93.5 1135,-93.5 1135,-107.5 1135,-107.5 1135,-113.5 1129,-119.5 1123,-119.5"/>
<text text-anchor="middle" x="1091.5" y="-104.3" font-family="Times,serif" font-size="14.00">comp 0</text>
<text text-anchor="middle" x="1091.5" y="-89.3" font-family="Times,serif" font-size="14.00">n kernels: 20</text>
</g>
<!-- 2&#45;&gt;8 -->
<g id="edge8" class="edge"><title>2&#45;&gt;8</title>
<path fill="none" stroke="black" d="M1310.36,-167.794C1260.47,-159.022 1197.61,-145.649 1143.5,-127 1140.6,-126 1137.65,-124.876 1134.71,-123.672"/>
<polygon fill="black" stroke="black" points="1135.96,-120.398 1125.39,-119.608 1133.16,-126.814 1135.96,-120.398"/>
</g>
<!-- 9 -->
<g id="node10" class="node"><title>9</title>
<path fill="#bfe6e6" stroke="black" d="M1226,-119.5C1226,-119.5 1165,-119.5 1165,-119.5 1159,-119.5 1153,-113.5 1153,-107.5 1153,-107.5 1153,-93.5 1153,-93.5 1153,-87.5 1159,-81.5 1165,-81.5 1165,-81.5 1226,-81.5 1226,-81.5 1232,-81.5 1238,-87.5 1238,-93.5 1238,-93.5 1238,-107.5 1238,-107.5 1238,-113.5 1232,-119.5 1226,-119.5"/>
<text text-anchor="middle" x="1195.5" y="-104.3" font-family="Times,serif" font-size="14.00">comp 1</text>
<text text-anchor="middle" x="1195.5" y="-89.3" font-family="Times,serif" font-size="14.00">n kernels: &#45;9</text>
</g>
<!-- 2&#45;&gt;9 -->
<g id="edge9" class="edge"><title>2&#45;&gt;9</title>
<path fill="none" stroke="black" d="M1342.91,-162.899C1313.77,-153.111 1277.87,-140.319 1246.5,-127 1244.15,-126.001 1241.75,-124.945 1239.34,-123.853"/>
<polygon fill="black" stroke="black" points="1240.61,-120.581 1230.07,-119.506 1237.64,-126.92 1240.61,-120.581"/>
</g>
<!-- 10 -->
<g id="node11" class="node"><title>10</title>
<path fill="#abcece" stroke="black" d="M1531,-127C1531,-127 1268,-127 1268,-127 1262,-127 1256,-121 1256,-115 1256,-115 1256,-86 1256,-86 1256,-80 1262,-74 1268,-74 1268,-74 1531,-74 1531,-74 1537,-74 1543,-80 1543,-86 1543,-86 1543,-115 1543,-115 1543,-121 1537,-127 1531,-127"/>
<text text-anchor="middle" x="1399.5" y="-111.8" font-family="Times,serif" font-size="14.00">comp 2</text>
<text text-anchor="middle" x="1399.5" y="-96.8" font-family="Times,serif" font-size="14.00">log gamma1: 1.000000 &#160;&#160;log gamma2: &#45;0.643779</text>
<text text-anchor="middle" x="1399.5" y="-81.8" font-family="Times,serif" font-size="14.00">n kernels: &#45;1</text>
</g>
<!-- 2&#45;&gt;10 -->
<g id="edge10" class="edge"><title>2&#45;&gt;10</title>
<path fill="none" stroke="black" d="M1399.5,-162.96C1399.5,-155.321 1399.5,-146.139 1399.5,-137.229"/>
<polygon fill="black" stroke="black" points="1403,-137.003 1399.5,-127.003 1396,-137.003 1403,-137.003"/>
</g>
<!-- 11 -->
<g id="node12" class="node"><title>11</title>
<path fill="#97b6b6" stroke="black" d="M1793.5,-119.5C1793.5,-119.5 1573.5,-119.5 1573.5,-119.5 1567.5,-119.5 1561.5,-113.5 1561.5,-107.5 1561.5,-107.5 1561.5,-93.5 1561.5,-93.5 1561.5,-87.5 1567.5,-81.5 1573.5,-81.5 1573.5,-81.5 1793.5,-81.5 1793.5,-81.5 1799.5,-81.5 1805.5,-87.5 1805.5,-93.5 1805.5,-93.5 1805.5,-107.5 1805.5,-107.5 1805.5,-113.5 1799.5,-119.5 1793.5,-119.5"/>
<text text-anchor="middle" x="1683.5" y="-104.3" font-family="Times,serif" font-size="14.00">comp 3</text>
<text text-anchor="middle" x="1683.5" y="-89.3" font-family="Times,serif" font-size="14.00">dilation rate: &#45;2 &#160;&#160;log gamma2: &#45;0.813903</text>
</g>
<!-- 2&#45;&gt;11 -->
<g id="edge11" class="edge"><title>2&#45;&gt;11</title>
<path fill="none" stroke="black" d="M1463.94,-162.96C1507.09,-150.882 1564.02,-134.945 1609.1,-122.327"/>
<polygon fill="black" stroke="black" points="1610.13,-125.672 1618.82,-119.606 1608.25,-118.931 1610.13,-125.672"/>
</g>
<!-- 12 -->
<g id="node13" class="node"><title>12</title>
<path fill="#839e9e" stroke="black" d="M2051,-119.5C2051,-119.5 1836,-119.5 1836,-119.5 1830,-119.5 1824,-113.5 1824,-107.5 1824,-107.5 1824,-93.5 1824,-93.5 1824,-87.5 1830,-81.5 1836,-81.5 1836,-81.5 2051,-81.5 2051,-81.5 2057,-81.5 2063,-87.5 2063,-93.5 2063,-93.5 2063,-107.5 2063,-107.5 2063,-113.5 2057,-119.5 2051,-119.5"/>
<text text-anchor="middle" x="1943.5" y="-104.3" font-family="Times,serif" font-size="14.00">comp 4</text>
<text text-anchor="middle" x="1943.5" y="-89.3" font-family="Times,serif" font-size="14.00">dilation rate: &#45;2 &#160;&#160;log gamma1: 1.000000</text>
</g>
<!-- 2&#45;&gt;12 -->
<g id="edge12" class="edge"><title>2&#45;&gt;12</title>
<path fill="none" stroke="black" d="M1488.8,-171.101C1573.01,-161.359 1702.65,-145.312 1814.5,-127 1824.85,-125.306 1835.64,-123.398 1846.38,-121.409"/>
<polygon fill="black" stroke="black" points="1847.03,-124.848 1856.21,-119.563 1845.73,-117.968 1847.03,-124.848"/>
</g>
<!-- 13 -->
<g id="node14" class="node"><title>13</title>
<path fill="#6f8585" stroke="black" d="M2126.5,-118.5C2126.5,-118.5 2092.5,-118.5 2092.5,-118.5 2086.5,-118.5 2080.5,-112.5 2080.5,-106.5 2080.5,-106.5 2080.5,-94.5 2080.5,-94.5 2080.5,-88.5 2086.5,-82.5 2092.5,-82.5 2092.5,-82.5 2126.5,-82.5 2126.5,-82.5 2132.5,-82.5 2138.5,-88.5 2138.5,-94.5 2138.5,-94.5 2138.5,-106.5 2138.5,-106.5 2138.5,-112.5 2132.5,-118.5 2126.5,-118.5"/>
<text text-anchor="middle" x="2109.5" y="-96.8" font-family="Times,serif" font-size="14.00">identity</text>
</g>
<!-- 2&#45;&gt;13 -->
<g id="edge13" class="edge"><title>2&#45;&gt;13</title>
<path fill="none" stroke="black" d="M1488.6,-179.407C1645.94,-175.675 1966.31,-163.692 2071.5,-127 2074.08,-126.099 2076.66,-124.979 2079.18,-123.715"/>
<polygon fill="black" stroke="black" points="2081.09,-126.658 2088.01,-118.643 2077.6,-120.588 2081.09,-126.658"/>
</g>
<!-- 14 -->
<g id="node15" class="node"><title>14</title>
<path fill="#e9d3ff" stroke="black" d="M159,-38C159,-38 124,-38 124,-38 118,-38 112,-32 112,-26 112,-26 112,-12 112,-12 112,-6 118,-0 124,-0 124,-0 159,-0 159,-0 165,-0 171,-6 171,-12 171,-12 171,-26 171,-26 171,-32 165,-38 159,-38"/>
<text text-anchor="middle" x="141.5" y="-22.8" font-family="Times,serif" font-size="14.00">forward</text>
<text text-anchor="middle" x="141.5" y="-7.8" font-family="Times,serif" font-size="14.00">input</text>
</g>
<!-- 3&#45;&gt;14 -->
<g id="edge14" class="edge"><title>3&#45;&gt;14</title>
<path fill="none" stroke="black" d="M141.5,-73.9081C141.5,-65.7377 141.5,-56.6492 141.5,-48.2981"/>
<polygon fill="black" stroke="black" points="145,-48.2389 141.5,-38.2389 138,-48.2389 145,-48.2389"/>
</g>
<!-- 15 -->
<g id="node16" class="node"><title>15</title>
<path fill="#e9d3ff" stroke="black" d="M461,-38C461,-38 424,-38 424,-38 418,-38 412,-32 412,-26 412,-26 412,-12 412,-12 412,-6 418,-0 424,-0 424,-0 461,-0 461,-0 467,-0 473,-6 473,-12 473,-12 473,-26 473,-26 473,-32 467,-38 461,-38"/>
<text text-anchor="middle" x="442.5" y="-22.8" font-family="Times,serif" font-size="14.00">forward</text>
<text text-anchor="middle" x="442.5" y="-7.8" font-family="Times,serif" font-size="14.00">CB0/C0</text>
</g>
<!-- 4&#45;&gt;15 -->
<g id="edge15" class="edge"><title>4&#45;&gt;15</title>
<path fill="none" stroke="black" d="M442.5,-81.4602C442.5,-71.67 442.5,-59.3453 442.5,-48.3073"/>
<polygon fill="black" stroke="black" points="446,-48.2435 442.5,-38.2436 439,-48.2436 446,-48.2435"/>
</g>
<!-- 16 -->
<g id="node17" class="node"><title>16</title>
<path fill="#e9d3ff" stroke="black" d="M733,-38C733,-38 696,-38 696,-38 690,-38 684,-32 684,-26 684,-26 684,-12 684,-12 684,-6 690,-0 696,-0 696,-0 733,-0 733,-0 739,-0 745,-6 745,-12 745,-12 745,-26 745,-26 745,-32 739,-38 733,-38"/>
<text text-anchor="middle" x="714.5" y="-22.8" font-family="Times,serif" font-size="14.00">forward</text>
<text text-anchor="middle" x="714.5" y="-7.8" font-family="Times,serif" font-size="14.00">CB0/C1</text>
</g>
<!-- 5&#45;&gt;16 -->
<g id="edge16" class="edge"><title>5&#45;&gt;16</title>
<path fill="none" stroke="black" d="M714.5,-81.4602C714.5,-71.67 714.5,-59.3453 714.5,-48.3073"/>
<polygon fill="black" stroke="black" points="718,-48.2435 714.5,-38.2436 711,-48.2436 718,-48.2435"/>
</g>
<!-- 17 -->
<g id="node18" class="node"><title>17</title>
<path fill="#e9d3ff" stroke="black" d="M887,-38C887,-38 850,-38 850,-38 844,-38 838,-32 838,-26 838,-26 838,-12 838,-12 838,-6 844,-0 850,-0 850,-0 887,-0 887,-0 893,-0 899,-6 899,-12 899,-12 899,-26 899,-26 899,-32 893,-38 887,-38"/>
<text text-anchor="middle" x="868.5" y="-22.8" font-family="Times,serif" font-size="14.00">forward</text>
<text text-anchor="middle" x="868.5" y="-7.8" font-family="Times,serif" font-size="14.00">CB0/C2</text>
</g>
<!-- 6&#45;&gt;17 -->
<g id="edge17" class="edge"><title>6&#45;&gt;17</title>
<path fill="none" stroke="black" d="M880.869,-81.4602C878.899,-71.67 876.419,-59.3453 874.197,-48.3073"/>
<polygon fill="black" stroke="black" points="877.576,-47.3564 872.172,-38.2436 870.714,-48.7376 877.576,-47.3564"/>
</g>
<!-- 18 -->
<g id="node19" class="node"><title>18</title>
<path fill="#e9d3ff" stroke="black" d="M966,-38C966,-38 929,-38 929,-38 923,-38 917,-32 917,-26 917,-26 917,-12 917,-12 917,-6 923,-0 929,-0 929,-0 966,-0 966,-0 972,-0 978,-6 978,-12 978,-12 978,-26 978,-26 978,-32 972,-38 966,-38"/>
<text text-anchor="middle" x="947.5" y="-22.8" font-family="Times,serif" font-size="14.00">residual</text>
<text text-anchor="middle" x="947.5" y="-7.8" font-family="Times,serif" font-size="14.00">CB0/C0</text>
</g>
<!-- 7&#45;&gt;18 -->
<g id="edge18" class="edge"><title>7&#45;&gt;18</title>
<path fill="none" stroke="black" d="M966.292,-82.2497C963.243,-72.148 959.321,-59.1556 955.849,-47.6559"/>
<polygon fill="black" stroke="black" points="959.188,-46.6062 952.947,-38.0444 952.487,-48.6293 959.188,-46.6062"/>
</g>
<!-- 19 -->
<g id="node20" class="node"><title>19</title>
<path fill="#d3bfe6" stroke="black" d="M1045,-38C1045,-38 1008,-38 1008,-38 1002,-38 996,-32 996,-26 996,-26 996,-12 996,-12 996,-6 1002,-0 1008,-0 1008,-0 1045,-0 1045,-0 1051,-0 1057,-6 1057,-12 1057,-12 1057,-26 1057,-26 1057,-32 1051,-38 1045,-38"/>
<text text-anchor="middle" x="1026.5" y="-22.8" font-family="Times,serif" font-size="14.00">forward</text>
<text text-anchor="middle" x="1026.5" y="-7.8" font-family="Times,serif" font-size="14.00">CB0/C3</text>
</g>
<!-- 7&#45;&gt;19 -->
<g id="edge19" class="edge"><title>7&#45;&gt;19</title>
<path fill="none" stroke="black" d="M983.434,-82.2497C990.705,-71.7398 1000.14,-58.101 1008.33,-46.2695"/>
<polygon fill="black" stroke="black" points="1011.21,-48.2595 1014.02,-38.0444 1005.45,-44.2769 1011.21,-48.2595"/>
</g>
<!-- 20 -->
<g id="node21" class="node"><title>20</title>
<path fill="#e9d3ff" stroke="black" d="M1122,-38C1122,-38 1087,-38 1087,-38 1081,-38 1075,-32 1075,-26 1075,-26 1075,-12 1075,-12 1075,-6 1081,-0 1087,-0 1087,-0 1122,-0 1122,-0 1128,-0 1134,-6 1134,-12 1134,-12 1134,-26 1134,-26 1134,-32 1128,-38 1122,-38"/>
<text text-anchor="middle" x="1104.5" y="-22.8" font-family="Times,serif" font-size="14.00">forward</text>
<text text-anchor="middle" x="1104.5" y="-7.8" font-family="Times,serif" font-size="14.00">CB0/I</text>
</g>
<!-- 8&#45;&gt;20 -->
<g id="edge20" class="edge"><title>8&#45;&gt;20</title>
<path fill="none" stroke="black" d="M1094.45,-81.4602C1096.05,-71.67 1098.07,-59.3453 1099.87,-48.3073"/>
<polygon fill="black" stroke="black" points="1103.36,-48.6774 1101.52,-38.2436 1096.45,-47.5477 1103.36,-48.6774"/>
</g>
<!-- 21 -->
<g id="node22" class="node"><title>21</title>
<path fill="#e9d3ff" stroke="black" d="M1214,-38C1214,-38 1177,-38 1177,-38 1171,-38 1165,-32 1165,-26 1165,-26 1165,-12 1165,-12 1165,-6 1171,-0 1177,-0 1177,-0 1214,-0 1214,-0 1220,-0 1226,-6 1226,-12 1226,-12 1226,-26 1226,-26 1226,-32 1220,-38 1214,-38"/>
<text text-anchor="middle" x="1195.5" y="-22.8" font-family="Times,serif" font-size="14.00">forward</text>
<text text-anchor="middle" x="1195.5" y="-7.8" font-family="Times,serif" font-size="14.00">CB1/C0</text>
</g>
<!-- 9&#45;&gt;21 -->
<g id="edge21" class="edge"><title>9&#45;&gt;21</title>
<path fill="none" stroke="black" d="M1195.5,-81.4602C1195.5,-71.67 1195.5,-59.3453 1195.5,-48.3073"/>
<polygon fill="black" stroke="black" points="1199,-48.2435 1195.5,-38.2436 1192,-48.2436 1199,-48.2435"/>
</g>
<!-- 22 -->
<g id="node23" class="node"><title>22</title>
<path fill="#e9d3ff" stroke="black" d="M1418,-38C1418,-38 1381,-38 1381,-38 1375,-38 1369,-32 1369,-26 1369,-26 1369,-12 1369,-12 1369,-6 1375,-0 1381,-0 1381,-0 1418,-0 1418,-0 1424,-0 1430,-6 1430,-12 1430,-12 1430,-26 1430,-26 1430,-32 1424,-38 1418,-38"/>
<text text-anchor="middle" x="1399.5" y="-22.8" font-family="Times,serif" font-size="14.00">forward</text>
<text text-anchor="middle" x="1399.5" y="-7.8" font-family="Times,serif" font-size="14.00">CB1/C1</text>
</g>
<!-- 10&#45;&gt;22 -->
<g id="edge22" class="edge"><title>10&#45;&gt;22</title>
<path fill="none" stroke="black" d="M1399.5,-73.9081C1399.5,-65.7377 1399.5,-56.6492 1399.5,-48.2981"/>
<polygon fill="black" stroke="black" points="1403,-48.2389 1399.5,-38.2389 1396,-48.2389 1403,-48.2389"/>
</g>
<!-- 23 -->
<g id="node24" class="node"><title>23</title>
<path fill="#e9d3ff" stroke="black" d="M1702,-38C1702,-38 1665,-38 1665,-38 1659,-38 1653,-32 1653,-26 1653,-26 1653,-12 1653,-12 1653,-6 1659,-0 1665,-0 1665,-0 1702,-0 1702,-0 1708,-0 1714,-6 1714,-12 1714,-12 1714,-26 1714,-26 1714,-32 1708,-38 1702,-38"/>
<text text-anchor="middle" x="1683.5" y="-22.8" font-family="Times,serif" font-size="14.00">forward</text>
<text text-anchor="middle" x="1683.5" y="-7.8" font-family="Times,serif" font-size="14.00">CB1/C2</text>
</g>
<!-- 11&#45;&gt;23 -->
<g id="edge23" class="edge"><title>11&#45;&gt;23</title>
<path fill="none" stroke="black" d="M1683.5,-81.4602C1683.5,-71.67 1683.5,-59.3453 1683.5,-48.3073"/>
<polygon fill="black" stroke="black" points="1687,-48.2435 1683.5,-38.2436 1680,-48.2436 1687,-48.2435"/>
</g>
<!-- 24 -->
<g id="node25" class="node"><title>24</title>
<path fill="#e9d3ff" stroke="black" d="M1962,-38C1962,-38 1925,-38 1925,-38 1919,-38 1913,-32 1913,-26 1913,-26 1913,-12 1913,-12 1913,-6 1919,-0 1925,-0 1925,-0 1962,-0 1962,-0 1968,-0 1974,-6 1974,-12 1974,-12 1974,-26 1974,-26 1974,-32 1968,-38 1962,-38"/>
<text text-anchor="middle" x="1943.5" y="-22.8" font-family="Times,serif" font-size="14.00">forward</text>
<text text-anchor="middle" x="1943.5" y="-7.8" font-family="Times,serif" font-size="14.00">CB1/C3</text>
</g>
<!-- 12&#45;&gt;24 -->
<g id="edge24" class="edge"><title>12&#45;&gt;24</title>
<path fill="none" stroke="black" d="M1943.5,-81.4602C1943.5,-71.67 1943.5,-59.3453 1943.5,-48.3073"/>
<polygon fill="black" stroke="black" points="1947,-48.2435 1943.5,-38.2436 1940,-48.2436 1947,-48.2435"/>
</g>
<!-- 25 -->
<g id="node26" class="node"><title>25</title>
<path fill="#e9d3ff" stroke="black" d="M2088,-38C2088,-38 2051,-38 2051,-38 2045,-38 2039,-32 2039,-26 2039,-26 2039,-12 2039,-12 2039,-6 2045,-0 2051,-0 2051,-0 2088,-0 2088,-0 2094,-0 2100,-6 2100,-12 2100,-12 2100,-26 2100,-26 2100,-32 2094,-38 2088,-38"/>
<text text-anchor="middle" x="2069.5" y="-22.8" font-family="Times,serif" font-size="14.00">residual</text>
<text text-anchor="middle" x="2069.5" y="-7.8" font-family="Times,serif" font-size="14.00">CB1/C0</text>
</g>
<!-- 13&#45;&gt;25 -->
<g id="edge25" class="edge"><title>13&#45;&gt;25</title>
<path fill="none" stroke="black" d="M2100.82,-82.2497C2095.69,-72.0459 2089.07,-58.8928 2083.24,-47.3078"/>
<polygon fill="black" stroke="black" points="2086.2,-45.4043 2078.58,-38.0444 2079.95,-48.5506 2086.2,-45.4043"/>
</g>
<!-- 26 -->
<g id="node27" class="node"><title>26</title>
<path fill="#d3bfe6" stroke="black" d="M2167,-38C2167,-38 2130,-38 2130,-38 2124,-38 2118,-32 2118,-26 2118,-26 2118,-12 2118,-12 2118,-6 2124,-0 2130,-0 2130,-0 2167,-0 2167,-0 2173,-0 2179,-6 2179,-12 2179,-12 2179,-26 2179,-26 2179,-32 2173,-38 2167,-38"/>
<text text-anchor="middle" x="2148.5" y="-22.8" font-family="Times,serif" font-size="14.00">forward</text>
<text text-anchor="middle" x="2148.5" y="-7.8" font-family="Times,serif" font-size="14.00">CB1/C4</text>
</g>
<!-- 13&#45;&gt;26 -->
<g id="edge26" class="edge"><title>13&#45;&gt;26</title>
<path fill="none" stroke="black" d="M2117.96,-82.2497C2122.97,-72.0459 2129.42,-58.8928 2135.1,-47.3078"/>
<polygon fill="black" stroke="black" points="2138.39,-48.5639 2139.65,-38.0444 2132.1,-45.4808 2138.39,-48.5639"/>
</g>
</g>
</svg>
