<?xml version="1.0" encoding="UTF-8" standalone="no"?>
<!DOCTYPE svg PUBLIC "-//W3C//DTD SVG 1.1//EN"
 "http://www.w3.org/Graphics/SVG/1.1/DTD/svg11.dtd">
<!-- Generated by graphviz version 2.38.0 (20140413.2041)
 -->
<!-- Title: %3 Pages: 1 -->
<svg width="2960pt" height="387pt"
 viewBox="0.00 0.00 2960.00 387.00" xmlns="http://www.w3.org/2000/svg" xmlns:xlink="http://www.w3.org/1999/xlink">
<g id="graph0" class="graph" transform="scale(1 1) rotate(0) translate(4 383)">
<title>%3</title>
<polygon fill="none" stroke="none" points="-4,4 -4,-383 2956,-383 2956,4 -4,4"/>
<!-- 0 -->
<g id="node1" class="node"><title>0</title>
<path fill="#ffd3d3" stroke="black" d="M1400,-379C1400,-379 1330,-379 1330,-379 1324,-379 1318,-373 1318,-367 1318,-367 1318,-353 1318,-353 1318,-347 1324,-341 1330,-341 1330,-341 1400,-341 1400,-341 1406,-341 1412,-347 1412,-353 1412,-353 1412,-367 1412,-367 1412,-373 1406,-379 1400,-379"/>
<text text-anchor="middle" x="1365" y="-363.8" font-family="Times,serif" font-size="14.00">net</text>
<text text-anchor="middle" x="1365" y="-348.8" font-family="Times,serif" font-size="14.00">n kernels: 184</text>
</g>
<!-- 1 -->
<g id="node2" class="node"><title>1</title>
<path fill="#f6ffd3" stroke="black" d="M1066.5,-297.5C1066.5,-297.5 807.5,-297.5 807.5,-297.5 801.5,-297.5 795.5,-291.5 795.5,-285.5 795.5,-285.5 795.5,-271.5 795.5,-271.5 795.5,-265.5 801.5,-259.5 807.5,-259.5 807.5,-259.5 1066.5,-259.5 1066.5,-259.5 1072.5,-259.5 1078.5,-265.5 1078.5,-271.5 1078.5,-271.5 1078.5,-285.5 1078.5,-285.5 1078.5,-291.5 1072.5,-297.5 1066.5,-297.5"/>
<text text-anchor="middle" x="937" y="-282.3" font-family="Times,serif" font-size="14.00">encoder</text>
<text text-anchor="middle" x="937" y="-267.3" font-family="Times,serif" font-size="14.00">log gamma1: 0.236836 &#160;&#160;log gamma2: 0.470071</text>
</g>
<!-- 0&#45;&gt;1 -->
<g id="edge1" class="edge"><title>0&#45;&gt;1</title>
<path fill="none" stroke="black" d="M1317.97,-350.265C1252.53,-338.108 1132.12,-315.743 1044.14,-299.401"/>
<polygon fill="black" stroke="black" points="1044.59,-295.924 1034.11,-297.539 1043.31,-302.806 1044.59,-295.924"/>
</g>
<!-- 2 -->
<g id="node3" class="node"><title>2</title>
<path fill="#f6ffd3" stroke="black" d="M1925.5,-305C1925.5,-305 1662.5,-305 1662.5,-305 1656.5,-305 1650.5,-299 1650.5,-293 1650.5,-293 1650.5,-264 1650.5,-264 1650.5,-258 1656.5,-252 1662.5,-252 1662.5,-252 1925.5,-252 1925.5,-252 1931.5,-252 1937.5,-258 1937.5,-264 1937.5,-264 1937.5,-293 1937.5,-293 1937.5,-299 1931.5,-305 1925.5,-305"/>
<text text-anchor="middle" x="1794" y="-289.8" font-family="Times,serif" font-size="14.00">decoder</text>
<text text-anchor="middle" x="1794" y="-274.8" font-family="Times,serif" font-size="14.00">log gamma1: &#45;0.388339 &#160;&#160;log gamma2: 0.212726</text>
<text text-anchor="middle" x="1794" y="-259.8" font-family="Times,serif" font-size="14.00">pooling type: 1</text>
</g>
<!-- 0&#45;&gt;2 -->
<g id="edge2" class="edge"><title>0&#45;&gt;2</title>
<path fill="none" stroke="black" d="M1412.14,-350.265C1468.19,-339.877 1564.47,-322.036 1646.32,-306.867"/>
<polygon fill="black" stroke="black" points="1647.03,-310.295 1656.23,-305.031 1645.76,-303.412 1647.03,-310.295"/>
</g>
<!-- 3 -->
<g id="node4" class="node"><title>3</title>
<path fill="#d3ffe4" stroke="black" d="M419.5,-208.5C419.5,-208.5 344.5,-208.5 344.5,-208.5 338.5,-208.5 332.5,-202.5 332.5,-196.5 332.5,-196.5 332.5,-182.5 332.5,-182.5 332.5,-176.5 338.5,-170.5 344.5,-170.5 344.5,-170.5 419.5,-170.5 419.5,-170.5 425.5,-170.5 431.5,-176.5 431.5,-182.5 431.5,-182.5 431.5,-196.5 431.5,-196.5 431.5,-202.5 425.5,-208.5 419.5,-208.5"/>
<text text-anchor="middle" x="382" y="-193.3" font-family="Times,serif" font-size="14.00">encode block 0</text>
<text text-anchor="middle" x="382" y="-178.3" font-family="Times,serif" font-size="14.00">n kernels: &#45;5</text>
</g>
<!-- 1&#45;&gt;3 -->
<g id="edge3" class="edge"><title>1&#45;&gt;3</title>
<path fill="none" stroke="black" d="M822.004,-259.474C706.287,-241.334 532.363,-214.07 441.732,-199.863"/>
<polygon fill="black" stroke="black" points="442.053,-196.371 431.632,-198.28 440.969,-203.287 442.053,-196.371"/>
</g>
<!-- 4 -->
<g id="node5" class="node"><title>4</title>
<path fill="#bfe6cf" stroke="black" d="M1037,-216C1037,-216 837,-216 837,-216 831,-216 825,-210 825,-204 825,-204 825,-175 825,-175 825,-169 831,-163 837,-163 837,-163 1037,-163 1037,-163 1043,-163 1049,-169 1049,-175 1049,-175 1049,-204 1049,-204 1049,-210 1043,-216 1037,-216"/>
<text text-anchor="middle" x="937" y="-200.8" font-family="Times,serif" font-size="14.00">encode block 1</text>
<text text-anchor="middle" x="937" y="-185.8" font-family="Times,serif" font-size="14.00">log gamma1: &#45;0.494000 &#160;&#160;n kernels: 4</text>
<text text-anchor="middle" x="937" y="-170.8" font-family="Times,serif" font-size="14.00">spatial scale: 1</text>
</g>
<!-- 1&#45;&gt;4 -->
<g id="edge4" class="edge"><title>1&#45;&gt;4</title>
<path fill="none" stroke="black" d="M937,-259.474C937,-249.871 937,-237.711 937,-226.285"/>
<polygon fill="black" stroke="black" points="940.5,-226.092 937,-216.092 933.5,-226.092 940.5,-226.092"/>
</g>
<!-- 5 -->
<g id="node6" class="node"><title>5</title>
<path fill="#d3ffe4" stroke="black" d="M1712.5,-216C1712.5,-216 1499.5,-216 1499.5,-216 1493.5,-216 1487.5,-210 1487.5,-204 1487.5,-204 1487.5,-175 1487.5,-175 1487.5,-169 1493.5,-163 1499.5,-163 1499.5,-163 1712.5,-163 1712.5,-163 1718.5,-163 1724.5,-169 1724.5,-175 1724.5,-175 1724.5,-204 1724.5,-204 1724.5,-210 1718.5,-216 1712.5,-216"/>
<text text-anchor="middle" x="1606" y="-200.8" font-family="Times,serif" font-size="14.00">decode block 2</text>
<text text-anchor="middle" x="1606" y="-185.8" font-family="Times,serif" font-size="14.00">log gamma1: &#45;0.063759 &#160;&#160;n kernels: 192</text>
<text text-anchor="middle" x="1606" y="-170.8" font-family="Times,serif" font-size="14.00">pooling type: &#45;1 &#160;&#160;spatial scale: 2</text>
</g>
<!-- 2&#45;&gt;5 -->
<g id="edge5" class="edge"><title>2&#45;&gt;5</title>
<path fill="none" stroke="black" d="M1738.86,-251.985C1717.44,-242.07 1692.74,-230.642 1670.5,-220.349"/>
<polygon fill="black" stroke="black" points="1671.68,-217.038 1661.13,-216.015 1668.74,-223.391 1671.68,-217.038"/>
</g>
<!-- 6 -->
<g id="node7" class="node"><title>6</title>
<path fill="#bfe6cf" stroke="black" d="M2086,-216C2086,-216 1880,-216 1880,-216 1874,-216 1868,-210 1868,-204 1868,-204 1868,-175 1868,-175 1868,-169 1874,-163 1880,-163 1880,-163 2086,-163 2086,-163 2092,-163 2098,-169 2098,-175 2098,-175 2098,-204 2098,-204 2098,-210 2092,-216 2086,-216"/>
<text text-anchor="middle" x="1983" y="-200.8" font-family="Times,serif" font-size="14.00">decode block 1</text>
<text text-anchor="middle" x="1983" y="-185.8" font-family="Times,serif" font-size="14.00">log gamma2: &#45;0.141562 &#160;&#160;n kernels: 64</text>
<text text-anchor="middle" x="1983" y="-170.8" font-family="Times,serif" font-size="14.00">spatial scale: 1</text>
</g>
<!-- 2&#45;&gt;6 -->
<g id="edge6" class="edge"><title>2&#45;&gt;6</title>
<path fill="none" stroke="black" d="M1849.43,-251.985C1871.06,-242.026 1896.02,-230.54 1918.46,-220.211"/>
<polygon fill="black" stroke="black" points="1919.95,-223.375 1927.57,-216.015 1917.02,-217.017 1919.95,-223.375"/>
</g>
<!-- 7 -->
<g id="node8" class="node"><title>7</title>
<path fill="#abceb9" stroke="black" d="M2683,-208.5C2683,-208.5 2563,-208.5 2563,-208.5 2557,-208.5 2551,-202.5 2551,-196.5 2551,-196.5 2551,-182.5 2551,-182.5 2551,-176.5 2557,-170.5 2563,-170.5 2563,-170.5 2683,-170.5 2683,-170.5 2689,-170.5 2695,-176.5 2695,-182.5 2695,-182.5 2695,-196.5 2695,-196.5 2695,-202.5 2689,-208.5 2683,-208.5"/>
<text text-anchor="middle" x="2623" y="-193.3" font-family="Times,serif" font-size="14.00">decode block 0</text>
<text text-anchor="middle" x="2623" y="-178.3" font-family="Times,serif" font-size="14.00">log gamma2: 0.238253</text>
</g>
<!-- 2&#45;&gt;7 -->
<g id="edge7" class="edge"><title>2&#45;&gt;7</title>
<path fill="none" stroke="black" d="M1937.93,-262.395C2112.3,-244.095 2400.14,-213.888 2540.67,-199.14"/>
<polygon fill="black" stroke="black" points="2541.36,-202.587 2550.94,-198.062 2540.63,-195.625 2541.36,-202.587"/>
</g>
<!-- 8 -->
<g id="node9" class="node"><title>8</title>
<path fill="#d3e4ff" stroke="black" d="M216,-119.5C216,-119.5 12,-119.5 12,-119.5 6,-119.5 0,-113.5 0,-107.5 0,-107.5 0,-93.5 0,-93.5 0,-87.5 6,-81.5 12,-81.5 12,-81.5 216,-81.5 216,-81.5 222,-81.5 228,-87.5 228,-93.5 228,-93.5 228,-107.5 228,-107.5 228,-113.5 222,-119.5 216,-119.5"/>
<text text-anchor="middle" x="114" y="-104.3" font-family="Times,serif" font-size="14.00">comp 0</text>
<text text-anchor="middle" x="114" y="-89.3" font-family="Times,serif" font-size="14.00">log gamma1: &#45;0.480657 &#160;&#160;n kernels: &#45;4</text>
</g>
<!-- 3&#45;&gt;8 -->
<g id="edge8" class="edge"><title>3&#45;&gt;8</title>
<path fill="none" stroke="black" d="M332.219,-172.34C289.026,-158.318 226.199,-137.923 179.039,-122.613"/>
<polygon fill="black" stroke="black" points="180.118,-119.284 169.526,-119.525 177.957,-125.942 180.118,-119.284"/>
</g>
<!-- 9 -->
<g id="node10" class="node"><title>9</title>
<path fill="#bfcfe6" stroke="black" d="M383.5,-119.5C383.5,-119.5 258.5,-119.5 258.5,-119.5 252.5,-119.5 246.5,-113.5 246.5,-107.5 246.5,-107.5 246.5,-93.5 246.5,-93.5 246.5,-87.5 252.5,-81.5 258.5,-81.5 258.5,-81.5 383.5,-81.5 383.5,-81.5 389.5,-81.5 395.5,-87.5 395.5,-93.5 395.5,-93.5 395.5,-107.5 395.5,-107.5 395.5,-113.5 389.5,-119.5 383.5,-119.5"/>
<text text-anchor="middle" x="321" y="-104.3" font-family="Times,serif" font-size="14.00">comp 1</text>
<text text-anchor="middle" x="321" y="-89.3" font-family="Times,serif" font-size="14.00">log gamma2: &#45;0.475783</text>
</g>
<!-- 3&#45;&gt;9 -->
<g id="edge9" class="edge"><title>3&#45;&gt;9</title>
<path fill="none" stroke="black" d="M369.361,-170.474C360.773,-158.225 349.268,-141.817 339.634,-128.077"/>
<polygon fill="black" stroke="black" points="342.23,-125.682 333.623,-119.503 336.498,-129.701 342.23,-125.682"/>
</g>
<!-- 10 -->
<g id="node11" class="node"><title>10</title>
<path fill="#abb9ce" stroke="black" d="M459,-118.5C459,-118.5 425,-118.5 425,-118.5 419,-118.5 413,-112.5 413,-106.5 413,-106.5 413,-94.5 413,-94.5 413,-88.5 419,-82.5 425,-82.5 425,-82.5 459,-82.5 459,-82.5 465,-82.5 471,-88.5 471,-94.5 471,-94.5 471,-106.5 471,-106.5 471,-112.5 465,-118.5 459,-118.5"/>
<text text-anchor="middle" x="442" y="-96.8" font-family="Times,serif" font-size="14.00">identity</text>
</g>
<!-- 3&#45;&gt;10 -->
<g id="edge10" class="edge"><title>3&#45;&gt;10</title>
<path fill="none" stroke="black" d="M394.432,-170.474C403.13,-157.861 414.871,-140.838 424.511,-126.859"/>
<polygon fill="black" stroke="black" points="427.4,-128.835 430.196,-118.615 421.638,-124.86 427.4,-128.835"/>
</g>
<!-- 11 -->
<g id="node12" class="node"><title>11</title>
<path fill="#d3e4ff" stroke="black" d="M760.5,-127C760.5,-127 501.5,-127 501.5,-127 495.5,-127 489.5,-121 489.5,-115 489.5,-115 489.5,-86 489.5,-86 489.5,-80 495.5,-74 501.5,-74 501.5,-74 760.5,-74 760.5,-74 766.5,-74 772.5,-80 772.5,-86 772.5,-86 772.5,-115 772.5,-115 772.5,-121 766.5,-127 760.5,-127"/>
<text text-anchor="middle" x="631" y="-111.8" font-family="Times,serif" font-size="14.00">comp 0</text>
<text text-anchor="middle" x="631" y="-96.8" font-family="Times,serif" font-size="14.00">log gamma1: 0.068290 &#160;&#160;log gamma2: 0.075559</text>
<text text-anchor="middle" x="631" y="-81.8" font-family="Times,serif" font-size="14.00">n kernels: 7 &#160;&#160;pooling type: 1</text>
</g>
<!-- 4&#45;&gt;11 -->
<g id="edge11" class="edge"><title>4&#45;&gt;11</title>
<path fill="none" stroke="black" d="M847.257,-162.985C810.672,-152.583 768.228,-140.516 730.682,-129.841"/>
<polygon fill="black" stroke="black" points="731.317,-126.383 720.741,-127.015 729.403,-133.116 731.317,-126.383"/>
</g>
<!-- 12 -->
<g id="node13" class="node"><title>12</title>
<path fill="#bfcfe6" stroke="black" d="M1071,-119.5C1071,-119.5 803,-119.5 803,-119.5 797,-119.5 791,-113.5 791,-107.5 791,-107.5 791,-93.5 791,-93.5 791,-87.5 797,-81.5 803,-81.5 803,-81.5 1071,-81.5 1071,-81.5 1077,-81.5 1083,-87.5 1083,-93.5 1083,-93.5 1083,-107.5 1083,-107.5 1083,-113.5 1077,-119.5 1071,-119.5"/>
<text text-anchor="middle" x="937" y="-104.3" font-family="Times,serif" font-size="14.00">comp 1</text>
<text text-anchor="middle" x="937" y="-89.3" font-family="Times,serif" font-size="14.00">log gamma1: &#45;0.148624 &#160;&#160;log gamma2: &#45;0.356421</text>
</g>
<!-- 4&#45;&gt;12 -->
<g id="edge12" class="edge"><title>4&#45;&gt;12</title>
<path fill="none" stroke="black" d="M937,-162.868C937,-152.417 937,-140.301 937,-129.609"/>
<polygon fill="black" stroke="black" points="940.5,-129.507 937,-119.507 933.5,-129.507 940.5,-129.507"/>
</g>
<!-- 13 -->
<g id="node14" class="node"><title>13</title>
<path fill="#abb9ce" stroke="black" d="M1147,-118.5C1147,-118.5 1113,-118.5 1113,-118.5 1107,-118.5 1101,-112.5 1101,-106.5 1101,-106.5 1101,-94.5 1101,-94.5 1101,-88.5 1107,-82.5 1113,-82.5 1113,-82.5 1147,-82.5 1147,-82.5 1153,-82.5 1159,-88.5 1159,-94.5 1159,-94.5 1159,-106.5 1159,-106.5 1159,-112.5 1153,-118.5 1147,-118.5"/>
<text text-anchor="middle" x="1130" y="-96.8" font-family="Times,serif" font-size="14.00">identity</text>
</g>
<!-- 4&#45;&gt;13 -->
<g id="edge13" class="edge"><title>4&#45;&gt;13</title>
<path fill="none" stroke="black" d="M1010.59,-162.989C1036.83,-152.937 1066.25,-140.548 1092,-127 1093.74,-126.084 1095.5,-125.107 1097.26,-124.09"/>
<polygon fill="black" stroke="black" points="1099.25,-126.97 1105.94,-118.754 1095.59,-121.005 1099.25,-126.97"/>
</g>
<!-- 14 -->
<g id="node15" class="node"><title>14</title>
<path fill="#d3e4ff" stroke="black" d="M1384.5,-119.5C1384.5,-119.5 1189.5,-119.5 1189.5,-119.5 1183.5,-119.5 1177.5,-113.5 1177.5,-107.5 1177.5,-107.5 1177.5,-93.5 1177.5,-93.5 1177.5,-87.5 1183.5,-81.5 1189.5,-81.5 1189.5,-81.5 1384.5,-81.5 1384.5,-81.5 1390.5,-81.5 1396.5,-87.5 1396.5,-93.5 1396.5,-93.5 1396.5,-107.5 1396.5,-107.5 1396.5,-113.5 1390.5,-119.5 1384.5,-119.5"/>
<text text-anchor="middle" x="1287" y="-104.3" font-family="Times,serif" font-size="14.00">comp 0</text>
<text text-anchor="middle" x="1287" y="-89.3" font-family="Times,serif" font-size="14.00">log gamma1: 0.197402 &#160;&#160;n kernels: 7</text>
</g>
<!-- 5&#45;&gt;14 -->
<g id="edge14" class="edge"><title>5&#45;&gt;14</title>
<path fill="none" stroke="black" d="M1512.44,-162.985C1464.83,-149.999 1407.7,-134.418 1362.86,-122.19"/>
<polygon fill="black" stroke="black" points="1363.77,-118.809 1353.2,-119.555 1361.93,-125.563 1363.77,-118.809"/>
</g>
<!-- 15 -->
<g id="node16" class="node"><title>15</title>
<path fill="#bfcfe6" stroke="black" d="M1627,-119.5C1627,-119.5 1427,-119.5 1427,-119.5 1421,-119.5 1415,-113.5 1415,-107.5 1415,-107.5 1415,-93.5 1415,-93.5 1415,-87.5 1421,-81.5 1427,-81.5 1427,-81.5 1627,-81.5 1627,-81.5 1633,-81.5 1639,-87.5 1639,-93.5 1639,-93.5 1639,-107.5 1639,-107.5 1639,-113.5 1633,-119.5 1627,-119.5"/>
<text text-anchor="middle" x="1527" y="-104.3" font-family="Times,serif" font-size="14.00">comp 1</text>
<text text-anchor="middle" x="1527" y="-89.3" font-family="Times,serif" font-size="14.00">log gamma1: 0.056938 &#160;&#160;n kernels: &#45;9</text>
</g>
<!-- 5&#45;&gt;15 -->
<g id="edge15" class="edge"><title>5&#45;&gt;15</title>
<path fill="none" stroke="black" d="M1582.72,-162.868C1572.44,-151.546 1560.39,-138.27 1550.13,-126.968"/>
<polygon fill="black" stroke="black" points="1552.66,-124.557 1543.35,-119.507 1547.48,-129.263 1552.66,-124.557"/>
</g>
<!-- 16 -->
<g id="node17" class="node"><title>16</title>
<path fill="#abb9ce" stroke="black" d="M1703,-118.5C1703,-118.5 1669,-118.5 1669,-118.5 1663,-118.5 1657,-112.5 1657,-106.5 1657,-106.5 1657,-94.5 1657,-94.5 1657,-88.5 1663,-82.5 1669,-82.5 1669,-82.5 1703,-82.5 1703,-82.5 1709,-82.5 1715,-88.5 1715,-94.5 1715,-94.5 1715,-106.5 1715,-106.5 1715,-112.5 1709,-118.5 1703,-118.5"/>
<text text-anchor="middle" x="1686" y="-96.8" font-family="Times,serif" font-size="14.00">identity</text>
</g>
<!-- 5&#45;&gt;16 -->
<g id="edge16" class="edge"><title>5&#45;&gt;16</title>
<path fill="none" stroke="black" d="M1629.57,-162.868C1640.21,-151.302 1652.72,-137.696 1663.25,-126.239"/>
<polygon fill="black" stroke="black" points="1665.99,-128.431 1670.18,-118.701 1660.84,-123.693 1665.99,-128.431"/>
</g>
<!-- 17 -->
<g id="node18" class="node"><title>17</title>
<path fill="#d3e4ff" stroke="black" d="M1945,-119.5C1945,-119.5 1745,-119.5 1745,-119.5 1739,-119.5 1733,-113.5 1733,-107.5 1733,-107.5 1733,-93.5 1733,-93.5 1733,-87.5 1739,-81.5 1745,-81.5 1745,-81.5 1945,-81.5 1945,-81.5 1951,-81.5 1957,-87.5 1957,-93.5 1957,-93.5 1957,-107.5 1957,-107.5 1957,-113.5 1951,-119.5 1945,-119.5"/>
<text text-anchor="middle" x="1845" y="-104.3" font-family="Times,serif" font-size="14.00">comp 0</text>
<text text-anchor="middle" x="1845" y="-89.3" font-family="Times,serif" font-size="14.00">log gamma2: 0.430766 &#160;&#160;n kernels: &#45;6</text>
</g>
<!-- 6&#45;&gt;17 -->
<g id="edge17" class="edge"><title>6&#45;&gt;17</title>
<path fill="none" stroke="black" d="M1942.34,-162.868C1923.26,-150.839 1900.68,-136.603 1882.07,-124.873"/>
<polygon fill="black" stroke="black" points="1883.89,-121.879 1873.56,-119.507 1880.15,-127.8 1883.89,-121.879"/>
</g>
<!-- 18 -->
<g id="node19" class="node"><title>18</title>
<path fill="#bfcfe6" stroke="black" d="M2255,-127C2255,-127 1987,-127 1987,-127 1981,-127 1975,-121 1975,-115 1975,-115 1975,-86 1975,-86 1975,-80 1981,-74 1987,-74 1987,-74 2255,-74 2255,-74 2261,-74 2267,-80 2267,-86 2267,-86 2267,-115 2267,-115 2267,-121 2261,-127 2255,-127"/>
<text text-anchor="middle" x="2121" y="-111.8" font-family="Times,serif" font-size="14.00">comp 1</text>
<text text-anchor="middle" x="2121" y="-96.8" font-family="Times,serif" font-size="14.00">log gamma1: &#45;0.198077 &#160;&#160;log gamma2: &#45;0.242920</text>
<text text-anchor="middle" x="2121" y="-81.8" font-family="Times,serif" font-size="14.00">n kernels: 4 &#160;&#160;pooling type: &#45;1</text>
</g>
<!-- 6&#45;&gt;18 -->
<g id="edge18" class="edge"><title>6&#45;&gt;18</title>
<path fill="none" stroke="black" d="M2023.66,-162.868C2038.68,-153.394 2055.88,-142.553 2071.6,-132.644"/>
<polygon fill="black" stroke="black" points="2073.56,-135.544 2080.16,-127.25 2069.83,-129.622 2073.56,-135.544"/>
</g>
<!-- 19 -->
<g id="node20" class="node"><title>19</title>
<path fill="#abb9ce" stroke="black" d="M2331,-118.5C2331,-118.5 2297,-118.5 2297,-118.5 2291,-118.5 2285,-112.5 2285,-106.5 2285,-106.5 2285,-94.5 2285,-94.5 2285,-88.5 2291,-82.5 2297,-82.5 2297,-82.5 2331,-82.5 2331,-82.5 2337,-82.5 2343,-88.5 2343,-94.5 2343,-94.5 2343,-106.5 2343,-106.5 2343,-112.5 2337,-118.5 2331,-118.5"/>
<text text-anchor="middle" x="2314" y="-96.8" font-family="Times,serif" font-size="14.00">identity</text>
</g>
<!-- 6&#45;&gt;19 -->
<g id="edge19" class="edge"><title>6&#45;&gt;19</title>
<path fill="none" stroke="black" d="M2098.07,-174.807C2153.38,-165.627 2219.72,-150.724 2276,-127 2278.14,-126.097 2280.29,-125.068 2282.41,-123.953"/>
<polygon fill="black" stroke="black" points="2284.63,-126.71 2291.5,-118.639 2281.1,-120.669 2284.63,-126.71"/>
</g>
<!-- 20 -->
<g id="node21" class="node"><title>20</title>
<path fill="#d3e4ff" stroke="black" d="M2636.5,-119.5C2636.5,-119.5 2373.5,-119.5 2373.5,-119.5 2367.5,-119.5 2361.5,-113.5 2361.5,-107.5 2361.5,-107.5 2361.5,-93.5 2361.5,-93.5 2361.5,-87.5 2367.5,-81.5 2373.5,-81.5 2373.5,-81.5 2636.5,-81.5 2636.5,-81.5 2642.5,-81.5 2648.5,-87.5 2648.5,-93.5 2648.5,-93.5 2648.5,-107.5 2648.5,-107.5 2648.5,-113.5 2642.5,-119.5 2636.5,-119.5"/>
<text text-anchor="middle" x="2505" y="-104.3" font-family="Times,serif" font-size="14.00">comp 0</text>
<text text-anchor="middle" x="2505" y="-89.3" font-family="Times,serif" font-size="14.00">log gamma1: &#45;0.454130 &#160;&#160;log gamma2: 0.236309</text>
</g>
<!-- 7&#45;&gt;20 -->
<g id="edge20" class="edge"><title>7&#45;&gt;20</title>
<path fill="none" stroke="black" d="M2598.55,-170.474C2580.91,-157.467 2556.91,-139.769 2537.63,-125.557"/>
<polygon fill="black" stroke="black" points="2539.54,-122.621 2529.42,-119.503 2535.39,-128.255 2539.54,-122.621"/>
</g>
<!-- 21 -->
<g id="node22" class="node"><title>21</title>
<path fill="#bfcfe6" stroke="black" d="M2803.5,-119.5C2803.5,-119.5 2678.5,-119.5 2678.5,-119.5 2672.5,-119.5 2666.5,-113.5 2666.5,-107.5 2666.5,-107.5 2666.5,-93.5 2666.5,-93.5 2666.5,-87.5 2672.5,-81.5 2678.5,-81.5 2678.5,-81.5 2803.5,-81.5 2803.5,-81.5 2809.5,-81.5 2815.5,-87.5 2815.5,-93.5 2815.5,-93.5 2815.5,-107.5 2815.5,-107.5 2815.5,-113.5 2809.5,-119.5 2803.5,-119.5"/>
<text text-anchor="middle" x="2741" y="-104.3" font-family="Times,serif" font-size="14.00">comp 1</text>
<text text-anchor="middle" x="2741" y="-89.3" font-family="Times,serif" font-size="14.00">log gamma2: &#45;0.445885</text>
</g>
<!-- 7&#45;&gt;21 -->
<g id="edge21" class="edge"><title>7&#45;&gt;21</title>
<path fill="none" stroke="black" d="M2647.45,-170.474C2665.09,-157.467 2689.09,-139.769 2708.37,-125.557"/>
<polygon fill="black" stroke="black" points="2710.61,-128.255 2716.58,-119.503 2706.46,-122.621 2710.61,-128.255"/>
</g>
<!-- 22 -->
<g id="node23" class="node"><title>22</title>
<path fill="#abb9ce" stroke="black" d="M2879,-118.5C2879,-118.5 2845,-118.5 2845,-118.5 2839,-118.5 2833,-112.5 2833,-106.5 2833,-106.5 2833,-94.5 2833,-94.5 2833,-88.5 2839,-82.5 2845,-82.5 2845,-82.5 2879,-82.5 2879,-82.5 2885,-82.5 2891,-88.5 2891,-94.5 2891,-94.5 2891,-106.5 2891,-106.5 2891,-112.5 2885,-118.5 2879,-118.5"/>
<text text-anchor="middle" x="2862" y="-96.8" font-family="Times,serif" font-size="14.00">identity</text>
</g>
<!-- 7&#45;&gt;22 -->
<g id="edge22" class="edge"><title>7&#45;&gt;22</title>
<path fill="none" stroke="black" d="M2695.14,-171.937C2734.31,-161.595 2782.97,-146.515 2824,-127 2826.04,-126.03 2828.1,-124.96 2830.14,-123.825"/>
<polygon fill="black" stroke="black" points="2832.16,-126.694 2838.92,-118.54 2828.55,-120.697 2832.16,-126.694"/>
</g>
<!-- 23 -->
<g id="node24" class="node"><title>23</title>
<path fill="#f6d3ff" stroke="black" d="M131.5,-38C131.5,-38 96.5,-38 96.5,-38 90.5,-38 84.5,-32 84.5,-26 84.5,-26 84.5,-12 84.5,-12 84.5,-6 90.5,-0 96.5,-0 96.5,-0 131.5,-0 131.5,-0 137.5,-0 143.5,-6 143.5,-12 143.5,-12 143.5,-26 143.5,-26 143.5,-32 137.5,-38 131.5,-38"/>
<text text-anchor="middle" x="114" y="-22.8" font-family="Times,serif" font-size="14.00">forward</text>
<text text-anchor="middle" x="114" y="-7.8" font-family="Times,serif" font-size="14.00">input</text>
</g>
<!-- 8&#45;&gt;23 -->
<g id="edge23" class="edge"><title>8&#45;&gt;23</title>
<path fill="none" stroke="black" d="M114,-81.4602C114,-71.67 114,-59.3453 114,-48.3073"/>
<polygon fill="black" stroke="black" points="117.5,-48.2435 114,-38.2436 110.5,-48.2436 117.5,-48.2435"/>
</g>
<!-- 24 -->
<g id="node25" class="node"><title>24</title>
<path fill="#f6d3ff" stroke="black" d="M339,-38C339,-38 303,-38 303,-38 297,-38 291,-32 291,-26 291,-26 291,-12 291,-12 291,-6 297,-0 303,-0 303,-0 339,-0 339,-0 345,-0 351,-6 351,-12 351,-12 351,-26 351,-26 351,-32 345,-38 339,-38"/>
<text text-anchor="middle" x="321" y="-22.8" font-family="Times,serif" font-size="14.00">forward</text>
<text text-anchor="middle" x="321" y="-7.8" font-family="Times,serif" font-size="14.00">EB0/C0</text>
</g>
<!-- 9&#45;&gt;24 -->
<g id="edge24" class="edge"><title>9&#45;&gt;24</title>
<path fill="none" stroke="black" d="M321,-81.4602C321,-71.67 321,-59.3453 321,-48.3073"/>
<polygon fill="black" stroke="black" points="324.5,-48.2435 321,-38.2436 317.5,-48.2436 324.5,-48.2435"/>
</g>
<!-- 25 -->
<g id="node26" class="node"><title>25</title>
<path fill="#f6d3ff" stroke="black" d="M438,-38C438,-38 402,-38 402,-38 396,-38 390,-32 390,-26 390,-26 390,-12 390,-12 390,-6 396,-0 402,-0 402,-0 438,-0 438,-0 444,-0 450,-6 450,-12 450,-12 450,-26 450,-26 450,-32 444,-38 438,-38"/>
<text text-anchor="middle" x="420" y="-22.8" font-family="Times,serif" font-size="14.00">residual</text>
<text text-anchor="middle" x="420" y="-7.8" font-family="Times,serif" font-size="14.00">EB0/C0</text>
</g>
<!-- 10&#45;&gt;25 -->
<g id="edge25" class="edge"><title>10&#45;&gt;25</title>
<path fill="none" stroke="black" d="M437.226,-82.2497C434.459,-72.25 430.908,-59.4178 427.75,-48.0048"/>
<polygon fill="black" stroke="black" points="431.034,-46.7487 424.993,-38.0444 424.287,-48.6157 431.034,-46.7487"/>
</g>
<!-- 26 -->
<g id="node27" class="node"><title>26</title>
<path fill="#debfe6" stroke="black" d="M516,-38C516,-38 480,-38 480,-38 474,-38 468,-32 468,-26 468,-26 468,-12 468,-12 468,-6 474,-0 480,-0 480,-0 516,-0 516,-0 522,-0 528,-6 528,-12 528,-12 528,-26 528,-26 528,-32 522,-38 516,-38"/>
<text text-anchor="middle" x="498" y="-22.8" font-family="Times,serif" font-size="14.00">forward</text>
<text text-anchor="middle" x="498" y="-7.8" font-family="Times,serif" font-size="14.00">EB0/C1</text>
</g>
<!-- 10&#45;&gt;26 -->
<g id="edge26" class="edge"><title>10&#45;&gt;26</title>
<path fill="none" stroke="black" d="M454.151,-82.2497C461.554,-71.7398 471.162,-58.101 479.496,-46.2695"/>
<polygon fill="black" stroke="black" points="482.392,-48.2354 485.289,-38.0444 476.669,-44.2043 482.392,-48.2354"/>
</g>
<!-- 27 -->
<g id="node28" class="node"><title>27</title>
<path fill="#f6d3ff" stroke="black" d="M648.5,-38C648.5,-38 613.5,-38 613.5,-38 607.5,-38 601.5,-32 601.5,-26 601.5,-26 601.5,-12 601.5,-12 601.5,-6 607.5,-0 613.5,-0 613.5,-0 648.5,-0 648.5,-0 654.5,-0 660.5,-6 660.5,-12 660.5,-12 660.5,-26 660.5,-26 660.5,-32 654.5,-38 648.5,-38"/>
<text text-anchor="middle" x="631" y="-22.8" font-family="Times,serif" font-size="14.00">forward</text>
<text text-anchor="middle" x="631" y="-7.8" font-family="Times,serif" font-size="14.00">EB0/I</text>
</g>
<!-- 11&#45;&gt;27 -->
<g id="edge27" class="edge"><title>11&#45;&gt;27</title>
<path fill="none" stroke="black" d="M631,-73.9081C631,-65.7377 631,-56.6492 631,-48.2981"/>
<polygon fill="black" stroke="black" points="634.5,-48.2389 631,-38.2389 627.5,-48.2389 634.5,-48.2389"/>
</g>
<!-- 28 -->
<g id="node29" class="node"><title>28</title>
<path fill="#f6d3ff" stroke="black" d="M955,-38C955,-38 919,-38 919,-38 913,-38 907,-32 907,-26 907,-26 907,-12 907,-12 907,-6 913,-0 919,-0 919,-0 955,-0 955,-0 961,-0 967,-6 967,-12 967,-12 967,-26 967,-26 967,-32 961,-38 955,-38"/>
<text text-anchor="middle" x="937" y="-22.8" font-family="Times,serif" font-size="14.00">forward</text>
<text text-anchor="middle" x="937" y="-7.8" font-family="Times,serif" font-size="14.00">EB1/C0</text>
</g>
<!-- 12&#45;&gt;28 -->
<g id="edge28" class="edge"><title>12&#45;&gt;28</title>
<path fill="none" stroke="black" d="M937,-81.4602C937,-71.67 937,-59.3453 937,-48.3073"/>
<polygon fill="black" stroke="black" points="940.5,-48.2435 937,-38.2436 933.5,-48.2436 940.5,-48.2435"/>
</g>
<!-- 29 -->
<g id="node30" class="node"><title>29</title>
<path fill="#f6d3ff" stroke="black" d="M1109,-38C1109,-38 1073,-38 1073,-38 1067,-38 1061,-32 1061,-26 1061,-26 1061,-12 1061,-12 1061,-6 1067,-0 1073,-0 1073,-0 1109,-0 1109,-0 1115,-0 1121,-6 1121,-12 1121,-12 1121,-26 1121,-26 1121,-32 1115,-38 1109,-38"/>
<text text-anchor="middle" x="1091" y="-22.8" font-family="Times,serif" font-size="14.00">residual</text>
<text text-anchor="middle" x="1091" y="-7.8" font-family="Times,serif" font-size="14.00">EB1/C0</text>
</g>
<!-- 13&#45;&gt;29 -->
<g id="edge29" class="edge"><title>13&#45;&gt;29</title>
<path fill="none" stroke="black" d="M1121.54,-82.2497C1116.53,-72.0459 1110.08,-58.8928 1104.4,-47.3078"/>
<polygon fill="black" stroke="black" points="1107.4,-45.4808 1099.85,-38.0444 1101.11,-48.5639 1107.4,-45.4808"/>
</g>
<!-- 30 -->
<g id="node31" class="node"><title>30</title>
<path fill="#debfe6" stroke="black" d="M1187,-38C1187,-38 1151,-38 1151,-38 1145,-38 1139,-32 1139,-26 1139,-26 1139,-12 1139,-12 1139,-6 1145,-0 1151,-0 1151,-0 1187,-0 1187,-0 1193,-0 1199,-6 1199,-12 1199,-12 1199,-26 1199,-26 1199,-32 1193,-38 1187,-38"/>
<text text-anchor="middle" x="1169" y="-22.8" font-family="Times,serif" font-size="14.00">forward</text>
<text text-anchor="middle" x="1169" y="-7.8" font-family="Times,serif" font-size="14.00">EB1/C1</text>
</g>
<!-- 13&#45;&gt;30 -->
<g id="edge30" class="edge"><title>13&#45;&gt;30</title>
<path fill="none" stroke="black" d="M1138.46,-82.2497C1143.47,-72.0459 1149.92,-58.8928 1155.6,-47.3078"/>
<polygon fill="black" stroke="black" points="1158.89,-48.5639 1160.15,-38.0444 1152.6,-45.4808 1158.89,-48.5639"/>
</g>
<!-- 31 -->
<g id="node32" class="node"><title>31</title>
<path fill="#f6d3ff" stroke="black" d="M1304.5,-38C1304.5,-38 1269.5,-38 1269.5,-38 1263.5,-38 1257.5,-32 1257.5,-26 1257.5,-26 1257.5,-12 1257.5,-12 1257.5,-6 1263.5,-0 1269.5,-0 1269.5,-0 1304.5,-0 1304.5,-0 1310.5,-0 1316.5,-6 1316.5,-12 1316.5,-12 1316.5,-26 1316.5,-26 1316.5,-32 1310.5,-38 1304.5,-38"/>
<text text-anchor="middle" x="1287" y="-22.8" font-family="Times,serif" font-size="14.00">forward</text>
<text text-anchor="middle" x="1287" y="-7.8" font-family="Times,serif" font-size="14.00">EB1/I</text>
</g>
<!-- 14&#45;&gt;31 -->
<g id="edge31" class="edge"><title>14&#45;&gt;31</title>
<path fill="none" stroke="black" d="M1287,-81.4602C1287,-71.67 1287,-59.3453 1287,-48.3073"/>
<polygon fill="black" stroke="black" points="1290.5,-48.2435 1287,-38.2436 1283.5,-48.2436 1290.5,-48.2435"/>
</g>
<!-- 32 -->
<g id="node33" class="node"><title>32</title>
<path fill="#f6d3ff" stroke="black" d="M1546,-38C1546,-38 1508,-38 1508,-38 1502,-38 1496,-32 1496,-26 1496,-26 1496,-12 1496,-12 1496,-6 1502,-0 1508,-0 1508,-0 1546,-0 1546,-0 1552,-0 1558,-6 1558,-12 1558,-12 1558,-26 1558,-26 1558,-32 1552,-38 1546,-38"/>
<text text-anchor="middle" x="1527" y="-22.8" font-family="Times,serif" font-size="14.00">forward</text>
<text text-anchor="middle" x="1527" y="-7.8" font-family="Times,serif" font-size="14.00">DB2/C0</text>
</g>
<!-- 15&#45;&gt;32 -->
<g id="edge32" class="edge"><title>15&#45;&gt;32</title>
<path fill="none" stroke="black" d="M1527,-81.4602C1527,-71.67 1527,-59.3453 1527,-48.3073"/>
<polygon fill="black" stroke="black" points="1530.5,-48.2435 1527,-38.2436 1523.5,-48.2436 1530.5,-48.2435"/>
</g>
<!-- 33 -->
<g id="node34" class="node"><title>33</title>
<path fill="#f6d3ff" stroke="black" d="M1628,-38C1628,-38 1590,-38 1590,-38 1584,-38 1578,-32 1578,-26 1578,-26 1578,-12 1578,-12 1578,-6 1584,-0 1590,-0 1590,-0 1628,-0 1628,-0 1634,-0 1640,-6 1640,-12 1640,-12 1640,-26 1640,-26 1640,-32 1634,-38 1628,-38"/>
<text text-anchor="middle" x="1609" y="-22.8" font-family="Times,serif" font-size="14.00">residual</text>
<text text-anchor="middle" x="1609" y="-7.8" font-family="Times,serif" font-size="14.00">DB2/C0</text>
</g>
<!-- 16&#45;&gt;33 -->
<g id="edge33" class="edge"><title>16&#45;&gt;33</title>
<path fill="none" stroke="black" d="M1669.29,-82.2497C1658.82,-71.4337 1645.13,-57.3038 1633.45,-45.2405"/>
<polygon fill="black" stroke="black" points="1635.95,-42.7925 1626.48,-38.0444 1630.92,-47.6626 1635.95,-42.7925"/>
</g>
<!-- 34 -->
<g id="node35" class="node"><title>34</title>
<path fill="#debfe6" stroke="black" d="M1708,-38C1708,-38 1670,-38 1670,-38 1664,-38 1658,-32 1658,-26 1658,-26 1658,-12 1658,-12 1658,-6 1664,-0 1670,-0 1670,-0 1708,-0 1708,-0 1714,-0 1720,-6 1720,-12 1720,-12 1720,-26 1720,-26 1720,-32 1714,-38 1708,-38"/>
<text text-anchor="middle" x="1689" y="-22.8" font-family="Times,serif" font-size="14.00">forward</text>
<text text-anchor="middle" x="1689" y="-7.8" font-family="Times,serif" font-size="14.00">DB2/C1</text>
</g>
<!-- 16&#45;&gt;34 -->
<g id="edge34" class="edge"><title>16&#45;&gt;34</title>
<path fill="none" stroke="black" d="M1686.65,-82.2497C1687.02,-72.352 1687.5,-59.6794 1687.93,-48.3546"/>
<polygon fill="black" stroke="black" points="1691.44,-48.1693 1688.32,-38.0444 1684.44,-47.9053 1691.44,-48.1693"/>
</g>
<!-- 35 -->
<g id="node36" class="node"><title>35</title>
<path fill="#f6d3ff" stroke="black" d="M1824.5,-38C1824.5,-38 1789.5,-38 1789.5,-38 1783.5,-38 1777.5,-32 1777.5,-26 1777.5,-26 1777.5,-12 1777.5,-12 1777.5,-6 1783.5,-0 1789.5,-0 1789.5,-0 1824.5,-0 1824.5,-0 1830.5,-0 1836.5,-6 1836.5,-12 1836.5,-12 1836.5,-26 1836.5,-26 1836.5,-32 1830.5,-38 1824.5,-38"/>
<text text-anchor="middle" x="1807" y="-22.8" font-family="Times,serif" font-size="14.00">forward</text>
<text text-anchor="middle" x="1807" y="-7.8" font-family="Times,serif" font-size="14.00">DB2/I</text>
</g>
<!-- 17&#45;&gt;35 -->
<g id="edge35" class="edge"><title>17&#45;&gt;35</title>
<path fill="none" stroke="black" d="M1836.38,-81.4602C1831.55,-71.3672 1825.44,-58.5805 1820.04,-47.287"/>
<polygon fill="black" stroke="black" points="1823.19,-45.7565 1815.72,-38.2436 1816.87,-48.7753 1823.19,-45.7565"/>
</g>
<!-- 36 -->
<g id="node37" class="node"><title>36</title>
<path fill="#debfe6" stroke="black" d="M1897,-38C1897,-38 1867,-38 1867,-38 1861,-38 1855,-32 1855,-26 1855,-26 1855,-12 1855,-12 1855,-6 1861,-0 1867,-0 1867,-0 1897,-0 1897,-0 1903,-0 1909,-6 1909,-12 1909,-12 1909,-26 1909,-26 1909,-32 1903,-38 1897,-38"/>
<text text-anchor="middle" x="1882" y="-22.8" font-family="Times,serif" font-size="14.00">merge</text>
<text text-anchor="middle" x="1882" y="-7.8" font-family="Times,serif" font-size="14.00">EB1/I</text>
</g>
<!-- 17&#45;&gt;36 -->
<g id="edge36" class="edge"><title>17&#45;&gt;36</title>
<path fill="none" stroke="black" d="M1853.4,-81.4602C1858.05,-71.4682 1863.93,-58.8359 1869.14,-47.6262"/>
<polygon fill="black" stroke="black" points="1872.46,-48.7866 1873.51,-38.2436 1866.12,-45.8329 1872.46,-48.7866"/>
</g>
<!-- 37 -->
<g id="node38" class="node"><title>37</title>
<path fill="#f6d3ff" stroke="black" d="M2140,-38C2140,-38 2102,-38 2102,-38 2096,-38 2090,-32 2090,-26 2090,-26 2090,-12 2090,-12 2090,-6 2096,-0 2102,-0 2102,-0 2140,-0 2140,-0 2146,-0 2152,-6 2152,-12 2152,-12 2152,-26 2152,-26 2152,-32 2146,-38 2140,-38"/>
<text text-anchor="middle" x="2121" y="-22.8" font-family="Times,serif" font-size="14.00">forward</text>
<text text-anchor="middle" x="2121" y="-7.8" font-family="Times,serif" font-size="14.00">DB1/C0</text>
</g>
<!-- 18&#45;&gt;37 -->
<g id="edge37" class="edge"><title>18&#45;&gt;37</title>
<path fill="none" stroke="black" d="M2121,-73.9081C2121,-65.7377 2121,-56.6492 2121,-48.2981"/>
<polygon fill="black" stroke="black" points="2124.5,-48.2389 2121,-38.2389 2117.5,-48.2389 2124.5,-48.2389"/>
</g>
<!-- 38 -->
<g id="node39" class="node"><title>38</title>
<path fill="#f6d3ff" stroke="black" d="M2271,-38C2271,-38 2233,-38 2233,-38 2227,-38 2221,-32 2221,-26 2221,-26 2221,-12 2221,-12 2221,-6 2227,-0 2233,-0 2233,-0 2271,-0 2271,-0 2277,-0 2283,-6 2283,-12 2283,-12 2283,-26 2283,-26 2283,-32 2277,-38 2271,-38"/>
<text text-anchor="middle" x="2252" y="-22.8" font-family="Times,serif" font-size="14.00">residual</text>
<text text-anchor="middle" x="2252" y="-7.8" font-family="Times,serif" font-size="14.00">DB1/C0</text>
</g>
<!-- 19&#45;&gt;38 -->
<g id="edge38" class="edge"><title>19&#45;&gt;38</title>
<path fill="none" stroke="black" d="M2300.55,-82.2497C2292.35,-71.7398 2281.71,-58.101 2272.49,-46.2695"/>
<polygon fill="black" stroke="black" points="2274.98,-43.7776 2266.07,-38.0444 2269.46,-48.0824 2274.98,-43.7776"/>
</g>
<!-- 39 -->
<g id="node40" class="node"><title>39</title>
<path fill="#debfe6" stroke="black" d="M2351,-38C2351,-38 2313,-38 2313,-38 2307,-38 2301,-32 2301,-26 2301,-26 2301,-12 2301,-12 2301,-6 2307,-0 2313,-0 2313,-0 2351,-0 2351,-0 2357,-0 2363,-6 2363,-12 2363,-12 2363,-26 2363,-26 2363,-32 2357,-38 2351,-38"/>
<text text-anchor="middle" x="2332" y="-22.8" font-family="Times,serif" font-size="14.00">forward</text>
<text text-anchor="middle" x="2332" y="-7.8" font-family="Times,serif" font-size="14.00">DB1/C1</text>
</g>
<!-- 19&#45;&gt;39 -->
<g id="edge39" class="edge"><title>19&#45;&gt;39</title>
<path fill="none" stroke="black" d="M2317.91,-82.2497C2320.17,-72.25 2323.08,-59.4178 2325.66,-48.0048"/>
<polygon fill="black" stroke="black" points="2329.12,-48.5705 2327.91,-38.0444 2322.29,-47.0247 2329.12,-48.5705"/>
</g>
<!-- 40 -->
<g id="node41" class="node"><title>40</title>
<path fill="#f6d3ff" stroke="black" d="M2484.5,-38C2484.5,-38 2449.5,-38 2449.5,-38 2443.5,-38 2437.5,-32 2437.5,-26 2437.5,-26 2437.5,-12 2437.5,-12 2437.5,-6 2443.5,-0 2449.5,-0 2449.5,-0 2484.5,-0 2484.5,-0 2490.5,-0 2496.5,-6 2496.5,-12 2496.5,-12 2496.5,-26 2496.5,-26 2496.5,-32 2490.5,-38 2484.5,-38"/>
<text text-anchor="middle" x="2467" y="-22.8" font-family="Times,serif" font-size="14.00">forward</text>
<text text-anchor="middle" x="2467" y="-7.8" font-family="Times,serif" font-size="14.00">DB1/I</text>
</g>
<!-- 20&#45;&gt;40 -->
<g id="edge40" class="edge"><title>20&#45;&gt;40</title>
<path fill="none" stroke="black" d="M2496.38,-81.4602C2491.55,-71.3672 2485.44,-58.5805 2480.04,-47.287"/>
<polygon fill="black" stroke="black" points="2483.19,-45.7565 2475.72,-38.2436 2476.87,-48.7753 2483.19,-45.7565"/>
</g>
<!-- 41 -->
<g id="node42" class="node"><title>41</title>
<path fill="#debfe6" stroke="black" d="M2557,-38C2557,-38 2527,-38 2527,-38 2521,-38 2515,-32 2515,-26 2515,-26 2515,-12 2515,-12 2515,-6 2521,-0 2527,-0 2527,-0 2557,-0 2557,-0 2563,-0 2569,-6 2569,-12 2569,-12 2569,-26 2569,-26 2569,-32 2563,-38 2557,-38"/>
<text text-anchor="middle" x="2542" y="-22.8" font-family="Times,serif" font-size="14.00">merge</text>
<text text-anchor="middle" x="2542" y="-7.8" font-family="Times,serif" font-size="14.00">EB0/I</text>
</g>
<!-- 20&#45;&gt;41 -->
<g id="edge41" class="edge"><title>20&#45;&gt;41</title>
<path fill="none" stroke="black" d="M2513.4,-81.4602C2518.05,-71.4682 2523.93,-58.8359 2529.14,-47.6262"/>
<polygon fill="black" stroke="black" points="2532.46,-48.7866 2533.51,-38.2436 2526.12,-45.8329 2532.46,-48.7866"/>
</g>
<!-- 42 -->
<g id="node43" class="node"><title>42</title>
<path fill="#f6d3ff" stroke="black" d="M2760,-38C2760,-38 2722,-38 2722,-38 2716,-38 2710,-32 2710,-26 2710,-26 2710,-12 2710,-12 2710,-6 2716,-0 2722,-0 2722,-0 2760,-0 2760,-0 2766,-0 2772,-6 2772,-12 2772,-12 2772,-26 2772,-26 2772,-32 2766,-38 2760,-38"/>
<text text-anchor="middle" x="2741" y="-22.8" font-family="Times,serif" font-size="14.00">forward</text>
<text text-anchor="middle" x="2741" y="-7.8" font-family="Times,serif" font-size="14.00">DB0/C0</text>
</g>
<!-- 21&#45;&gt;42 -->
<g id="edge42" class="edge"><title>21&#45;&gt;42</title>
<path fill="none" stroke="black" d="M2741,-81.4602C2741,-71.67 2741,-59.3453 2741,-48.3073"/>
<polygon fill="black" stroke="black" points="2744.5,-48.2435 2741,-38.2436 2737.5,-48.2436 2744.5,-48.2435"/>
</g>
<!-- 43 -->
<g id="node44" class="node"><title>43</title>
<path fill="#f6d3ff" stroke="black" d="M2860,-38C2860,-38 2822,-38 2822,-38 2816,-38 2810,-32 2810,-26 2810,-26 2810,-12 2810,-12 2810,-6 2816,-0 2822,-0 2822,-0 2860,-0 2860,-0 2866,-0 2872,-6 2872,-12 2872,-12 2872,-26 2872,-26 2872,-32 2866,-38 2860,-38"/>
<text text-anchor="middle" x="2841" y="-22.8" font-family="Times,serif" font-size="14.00">residual</text>
<text text-anchor="middle" x="2841" y="-7.8" font-family="Times,serif" font-size="14.00">DB0/C0</text>
</g>
<!-- 22&#45;&gt;43 -->
<g id="edge43" class="edge"><title>22&#45;&gt;43</title>
<path fill="none" stroke="black" d="M2857.44,-82.2497C2854.8,-72.25 2851.41,-59.4178 2848.4,-48.0048"/>
<polygon fill="black" stroke="black" points="2851.7,-46.8189 2845.77,-38.0444 2844.94,-48.6067 2851.7,-46.8189"/>
</g>
<!-- 44 -->
<g id="node45" class="node"><title>44</title>
<path fill="#debfe6" stroke="black" d="M2940,-38C2940,-38 2902,-38 2902,-38 2896,-38 2890,-32 2890,-26 2890,-26 2890,-12 2890,-12 2890,-6 2896,-0 2902,-0 2902,-0 2940,-0 2940,-0 2946,-0 2952,-6 2952,-12 2952,-12 2952,-26 2952,-26 2952,-32 2946,-38 2940,-38"/>
<text text-anchor="middle" x="2921" y="-22.8" font-family="Times,serif" font-size="14.00">forward</text>
<text text-anchor="middle" x="2921" y="-7.8" font-family="Times,serif" font-size="14.00">DB0/C1</text>
</g>
<!-- 22&#45;&gt;44 -->
<g id="edge44" class="edge"><title>22&#45;&gt;44</title>
<path fill="none" stroke="black" d="M2874.8,-82.2497C2882.6,-71.7398 2892.72,-58.101 2901.5,-46.2695"/>
<polygon fill="black" stroke="black" points="2904.46,-48.1605 2907.61,-38.0444 2898.84,-43.9888 2904.46,-48.1605"/>
</g>
</g>
</svg>
