<?xml version="1.0" encoding="UTF-8" standalone="no"?>
<!DOCTYPE svg PUBLIC "-//W3C//DTD SVG 1.1//EN"
 "http://www.w3.org/Graphics/SVG/1.1/DTD/svg11.dtd">
<!-- Generated by graphviz version 2.38.0 (20140413.2041)
 -->
<!-- Title: %3 Pages: 1 -->
<svg width="5826pt" height="418pt"
 viewBox="0.00 0.00 5826.00 418.00" xmlns="http://www.w3.org/2000/svg" xmlns:xlink="http://www.w3.org/1999/xlink">
<g id="graph0" class="graph" transform="scale(1 1) rotate(0) translate(4 414)">
<title>%3</title>
<polygon fill="none" stroke="none" points="-4,4 -4,-414 5822,-414 5822,4 -4,4"/>
<!-- 0 -->
<g id="node1" class="node"><title>0</title>
<path fill="#ffd3d3" stroke="black" d="M3801,-410C3801,-410 3610,-410 3610,-410 3604,-410 3598,-404 3598,-398 3598,-398 3598,-369 3598,-369 3598,-363 3604,-357 3610,-357 3610,-357 3801,-357 3801,-357 3807,-357 3813,-363 3813,-369 3813,-369 3813,-398 3813,-398 3813,-404 3807,-410 3801,-410"/>
<text text-anchor="middle" x="3705.5" y="-394.8" font-family="Times,serif" font-size="14.00">net</text>
<text text-anchor="middle" x="3705.5" y="-379.8" font-family="Times,serif" font-size="14.00">k width: 3 &#160;&#160;log gamma2: &#45;5.339431</text>
<text text-anchor="middle" x="3705.5" y="-364.8" font-family="Times,serif" font-size="14.00">n kernels: 28</text>
</g>
<!-- 1 -->
<g id="node2" class="node"><title>1</title>
<path fill="#e9ffd3" stroke="black" d="M1181.5,-313.5C1181.5,-313.5 1061.5,-313.5 1061.5,-313.5 1055.5,-313.5 1049.5,-307.5 1049.5,-301.5 1049.5,-301.5 1049.5,-287.5 1049.5,-287.5 1049.5,-281.5 1055.5,-275.5 1061.5,-275.5 1061.5,-275.5 1181.5,-275.5 1181.5,-275.5 1187.5,-275.5 1193.5,-281.5 1193.5,-287.5 1193.5,-287.5 1193.5,-301.5 1193.5,-301.5 1193.5,-307.5 1187.5,-313.5 1181.5,-313.5"/>
<text text-anchor="middle" x="1121.5" y="-298.3" font-family="Times,serif" font-size="14.00">conv block 0</text>
<text text-anchor="middle" x="1121.5" y="-283.3" font-family="Times,serif" font-size="14.00">log gamma2: 0.350132</text>
</g>
<!-- 0&#45;&gt;1 -->
<g id="edge1" class="edge"><title>0&#45;&gt;1</title>
<path fill="none" stroke="black" d="M3597.76,-378.872C3168.27,-364.412 1583.27,-311.047 1203.61,-298.265"/>
<polygon fill="black" stroke="black" points="1203.64,-294.764 1193.53,-297.925 1203.41,-301.76 1203.64,-294.764"/>
</g>
<!-- 2 -->
<g id="node3" class="node"><title>2</title>
<path fill="#e9ffd3" stroke="black" d="M3120.5,-321C3120.5,-321 2998.5,-321 2998.5,-321 2992.5,-321 2986.5,-315 2986.5,-309 2986.5,-309 2986.5,-280 2986.5,-280 2986.5,-274 2992.5,-268 2998.5,-268 2998.5,-268 3120.5,-268 3120.5,-268 3126.5,-268 3132.5,-274 3132.5,-280 3132.5,-280 3132.5,-309 3132.5,-309 3132.5,-315 3126.5,-321 3120.5,-321"/>
<text text-anchor="middle" x="3059.5" y="-305.8" font-family="Times,serif" font-size="14.00">conv block 1</text>
<text text-anchor="middle" x="3059.5" y="-290.8" font-family="Times,serif" font-size="14.00">n kernels: 11 &#160;&#160;pool z: 1</text>
<text text-anchor="middle" x="3059.5" y="-275.8" font-family="Times,serif" font-size="14.00">spatial scale: 1</text>
</g>
<!-- 0&#45;&gt;2 -->
<g id="edge2" class="edge"><title>0&#45;&gt;2</title>
<path fill="none" stroke="black" d="M3597.74,-367.987C3469.72,-350.747 3258.93,-322.358 3142.77,-306.714"/>
<polygon fill="black" stroke="black" points="3143.23,-303.245 3132.86,-305.379 3142.3,-310.183 3143.23,-303.245"/>
</g>
<!-- 3 -->
<g id="node4" class="node"><title>3</title>
<path fill="#e9ffd3" stroke="black" d="M4539.5,-321C4539.5,-321 4337.5,-321 4337.5,-321 4331.5,-321 4325.5,-315 4325.5,-309 4325.5,-309 4325.5,-280 4325.5,-280 4325.5,-274 4331.5,-268 4337.5,-268 4337.5,-268 4539.5,-268 4539.5,-268 4545.5,-268 4551.5,-274 4551.5,-280 4551.5,-280 4551.5,-309 4551.5,-309 4551.5,-315 4545.5,-321 4539.5,-321"/>
<text text-anchor="middle" x="4438.5" y="-305.8" font-family="Times,serif" font-size="14.00">conv block 2</text>
<text text-anchor="middle" x="4438.5" y="-290.8" font-family="Times,serif" font-size="14.00">log gamma2: 0.664392 &#160;&#160;n kernels: 84</text>
<text text-anchor="middle" x="4438.5" y="-275.8" font-family="Times,serif" font-size="14.00">spatial scale: 2</text>
</g>
<!-- 0&#45;&gt;3 -->
<g id="edge3" class="edge"><title>0&#45;&gt;3</title>
<path fill="none" stroke="black" d="M3813.26,-369.71C3947.04,-353.831 4174.7,-326.81 4315.28,-310.125"/>
<polygon fill="black" stroke="black" points="4315.73,-313.596 4325.25,-308.942 4314.9,-306.645 4315.73,-313.596"/>
</g>
<!-- 4 -->
<g id="node5" class="node"><title>4</title>
<path fill="#e9ffd3" stroke="black" d="M5214,-312.5C5214,-312.5 5147,-312.5 5147,-312.5 5141,-312.5 5135,-306.5 5135,-300.5 5135,-300.5 5135,-288.5 5135,-288.5 5135,-282.5 5141,-276.5 5147,-276.5 5147,-276.5 5214,-276.5 5214,-276.5 5220,-276.5 5226,-282.5 5226,-288.5 5226,-288.5 5226,-300.5 5226,-300.5 5226,-306.5 5220,-312.5 5214,-312.5"/>
<text text-anchor="middle" x="5180.5" y="-290.8" font-family="Times,serif" font-size="14.00">path combine</text>
</g>
<!-- 0&#45;&gt;4 -->
<g id="edge4" class="edge"><title>0&#45;&gt;4</title>
<path fill="none" stroke="black" d="M3813.06,-376.156C4105.05,-358.934 4905.22,-311.737 5124.37,-298.811"/>
<polygon fill="black" stroke="black" points="5124.88,-302.287 5134.66,-298.204 5124.47,-295.299 5124.88,-302.287"/>
</g>
<!-- 5 -->
<g id="node6" class="node"><title>5</title>
<path fill="#d3ffff" stroke="black" d="M388.5,-202C388.5,-202 186.5,-202 186.5,-202 180.5,-202 174.5,-196 174.5,-190 174.5,-190 174.5,-176 174.5,-176 174.5,-170 180.5,-164 186.5,-164 186.5,-164 388.5,-164 388.5,-164 394.5,-164 400.5,-170 400.5,-176 400.5,-176 400.5,-190 400.5,-190 400.5,-196 394.5,-202 388.5,-202"/>
<text text-anchor="middle" x="287.5" y="-186.8" font-family="Times,serif" font-size="14.00">comp 0</text>
<text text-anchor="middle" x="287.5" y="-171.8" font-family="Times,serif" font-size="14.00">log gamma1: 0.281835 &#160;&#160;n kernels: 16</text>
</g>
<!-- 1&#45;&gt;5 -->
<g id="edge5" class="edge"><title>1&#45;&gt;5</title>
<path fill="none" stroke="black" d="M1049.31,-287.638C939.832,-278.334 725.415,-258.495 544.5,-232 491.461,-224.233 432.663,-213.416 384.708,-204.017"/>
<polygon fill="black" stroke="black" points="385.133,-200.534 374.645,-202.035 383.78,-207.402 385.133,-200.534"/>
</g>
<!-- 6 -->
<g id="node7" class="node"><title>6</title>
<path fill="#bfe6e6" stroke="black" d="M599.5,-201C599.5,-201 565.5,-201 565.5,-201 559.5,-201 553.5,-195 553.5,-189 553.5,-189 553.5,-177 553.5,-177 553.5,-171 559.5,-165 565.5,-165 565.5,-165 599.5,-165 599.5,-165 605.5,-165 611.5,-171 611.5,-177 611.5,-177 611.5,-189 611.5,-189 611.5,-195 605.5,-201 599.5,-201"/>
<text text-anchor="middle" x="582.5" y="-179.3" font-family="Times,serif" font-size="14.00">comp 1</text>
</g>
<!-- 1&#45;&gt;6 -->
<g id="edge6" class="edge"><title>1&#45;&gt;6</title>
<path fill="none" stroke="black" d="M1049.46,-285.787C970.119,-276.47 839.11,-258.65 728.5,-232 691.445,-223.072 650.283,-209.162 621.136,-198.609"/>
<polygon fill="black" stroke="black" points="622.329,-195.319 611.735,-195.172 619.924,-201.893 622.329,-195.319"/>
</g>
<!-- 7 -->
<g id="node8" class="node"><title>7</title>
<path fill="#abcece" stroke="black" d="M961,-202C961,-202 750,-202 750,-202 744,-202 738,-196 738,-190 738,-190 738,-176 738,-176 738,-170 744,-164 750,-164 750,-164 961,-164 961,-164 967,-164 973,-170 973,-176 973,-176 973,-190 973,-190 973,-196 967,-202 961,-202"/>
<text text-anchor="middle" x="855.5" y="-186.8" font-family="Times,serif" font-size="14.00">comp 2</text>
<text text-anchor="middle" x="855.5" y="-171.8" font-family="Times,serif" font-size="14.00">log gamma2: &#45;1.380769 &#160;&#160;n kernels: &#45;12</text>
</g>
<!-- 1&#45;&gt;7 -->
<g id="edge7" class="edge"><title>1&#45;&gt;7</title>
<path fill="none" stroke="black" d="M1077.58,-275.418C1031.27,-256.358 958.317,-226.325 908.765,-205.927"/>
<polygon fill="black" stroke="black" points="910.069,-202.679 899.49,-202.109 907.405,-209.152 910.069,-202.679"/>
</g>
<!-- 8 -->
<g id="node9" class="node"><title>8</title>
<path fill="#97b6b6" stroke="black" d="M1181.5,-202C1181.5,-202 1061.5,-202 1061.5,-202 1055.5,-202 1049.5,-196 1049.5,-190 1049.5,-190 1049.5,-176 1049.5,-176 1049.5,-170 1055.5,-164 1061.5,-164 1061.5,-164 1181.5,-164 1181.5,-164 1187.5,-164 1193.5,-170 1193.5,-176 1193.5,-176 1193.5,-190 1193.5,-190 1193.5,-196 1187.5,-202 1181.5,-202"/>
<text text-anchor="middle" x="1121.5" y="-186.8" font-family="Times,serif" font-size="14.00">comp 3</text>
<text text-anchor="middle" x="1121.5" y="-171.8" font-family="Times,serif" font-size="14.00">log gamma1: 1.207424</text>
</g>
<!-- 1&#45;&gt;8 -->
<g id="edge8" class="edge"><title>1&#45;&gt;8</title>
<path fill="none" stroke="black" d="M1121.5,-275.418C1121.5,-258.221 1121.5,-232.089 1121.5,-212.163"/>
<polygon fill="black" stroke="black" points="1125,-212.109 1121.5,-202.109 1118,-212.109 1125,-212.109"/>
</g>
<!-- 9 -->
<g id="node10" class="node"><title>9</title>
<path fill="#839e9e" stroke="black" d="M1375.5,-202C1375.5,-202 1319.5,-202 1319.5,-202 1313.5,-202 1307.5,-196 1307.5,-190 1307.5,-190 1307.5,-176 1307.5,-176 1307.5,-170 1313.5,-164 1319.5,-164 1319.5,-164 1375.5,-164 1375.5,-164 1381.5,-164 1387.5,-170 1387.5,-176 1387.5,-176 1387.5,-190 1387.5,-190 1387.5,-196 1381.5,-202 1375.5,-202"/>
<text text-anchor="middle" x="1347.5" y="-186.8" font-family="Times,serif" font-size="14.00">comp 4</text>
<text text-anchor="middle" x="1347.5" y="-171.8" font-family="Times,serif" font-size="14.00">n kernels: 9</text>
</g>
<!-- 1&#45;&gt;9 -->
<g id="edge9" class="edge"><title>1&#45;&gt;9</title>
<path fill="none" stroke="black" d="M1158.82,-275.418C1197.75,-256.556 1258.86,-226.948 1300.93,-206.566"/>
<polygon fill="black" stroke="black" points="1302.65,-209.619 1310.13,-202.109 1299.6,-203.319 1302.65,-209.619"/>
</g>
<!-- 10 -->
<g id="node11" class="node"><title>10</title>
<path fill="#6f8585" stroke="black" d="M1742.5,-202C1742.5,-202 1542.5,-202 1542.5,-202 1536.5,-202 1530.5,-196 1530.5,-190 1530.5,-190 1530.5,-176 1530.5,-176 1530.5,-170 1536.5,-164 1542.5,-164 1542.5,-164 1742.5,-164 1742.5,-164 1748.5,-164 1754.5,-170 1754.5,-176 1754.5,-176 1754.5,-190 1754.5,-190 1754.5,-196 1748.5,-202 1742.5,-202"/>
<text text-anchor="middle" x="1642.5" y="-186.8" font-family="Times,serif" font-size="14.00">comp 5</text>
<text text-anchor="middle" x="1642.5" y="-171.8" font-family="Times,serif" font-size="14.00">log gamma2: &#45;0.151879 &#160;&#160;n kernels: 3</text>
</g>
<!-- 1&#45;&gt;10 -->
<g id="edge10" class="edge"><title>1&#45;&gt;10</title>
<path fill="none" stroke="black" d="M1193.67,-278.332C1285.6,-259.012 1444.74,-225.564 1546.74,-204.126"/>
<polygon fill="black" stroke="black" points="1547.67,-207.508 1556.73,-202.026 1546.23,-200.657 1547.67,-207.508"/>
</g>
<!-- 11 -->
<g id="node12" class="node"><title>11</title>
<path fill="#d3ffff" stroke="black" d="M2332,-202C2332,-202 2207,-202 2207,-202 2201,-202 2195,-196 2195,-190 2195,-190 2195,-176 2195,-176 2195,-170 2201,-164 2207,-164 2207,-164 2332,-164 2332,-164 2338,-164 2344,-170 2344,-176 2344,-176 2344,-190 2344,-190 2344,-196 2338,-202 2332,-202"/>
<text text-anchor="middle" x="2269.5" y="-186.8" font-family="Times,serif" font-size="14.00">comp 0</text>
<text text-anchor="middle" x="2269.5" y="-171.8" font-family="Times,serif" font-size="14.00">log gamma2: &#45;1.804129</text>
</g>
<!-- 2&#45;&gt;11 -->
<g id="edge11" class="edge"><title>2&#45;&gt;11</title>
<path fill="none" stroke="black" d="M2986.42,-286.472C2884.49,-276.33 2693.98,-256.132 2532.5,-232 2472.68,-223.06 2405.61,-210.784 2354.18,-200.885"/>
<polygon fill="black" stroke="black" points="2354.59,-197.4 2344.11,-198.939 2353.26,-204.272 2354.59,-197.4"/>
</g>
<!-- 12 -->
<g id="node13" class="node"><title>12</title>
<path fill="#bfe6e6" stroke="black" d="M2621.5,-202C2621.5,-202 2553.5,-202 2553.5,-202 2547.5,-202 2541.5,-196 2541.5,-190 2541.5,-190 2541.5,-176 2541.5,-176 2541.5,-170 2547.5,-164 2553.5,-164 2553.5,-164 2621.5,-164 2621.5,-164 2627.5,-164 2633.5,-170 2633.5,-176 2633.5,-176 2633.5,-190 2633.5,-190 2633.5,-196 2627.5,-202 2621.5,-202"/>
<text text-anchor="middle" x="2587.5" y="-186.8" font-family="Times,serif" font-size="14.00">comp 1</text>
<text text-anchor="middle" x="2587.5" y="-171.8" font-family="Times,serif" font-size="14.00">n kernels: &#45;18</text>
</g>
<!-- 2&#45;&gt;12 -->
<g id="edge12" class="edge"><title>2&#45;&gt;12</title>
<path fill="none" stroke="black" d="M2986.27,-276.511C2891.62,-254.553 2728.87,-216.796 2643.5,-196.991"/>
<polygon fill="black" stroke="black" points="2644.26,-193.575 2633.73,-194.725 2642.68,-200.394 2644.26,-193.575"/>
</g>
<!-- 13 -->
<g id="node14" class="node"><title>13</title>
<path fill="#abcece" stroke="black" d="M2871.5,-201C2871.5,-201 2837.5,-201 2837.5,-201 2831.5,-201 2825.5,-195 2825.5,-189 2825.5,-189 2825.5,-177 2825.5,-177 2825.5,-171 2831.5,-165 2837.5,-165 2837.5,-165 2871.5,-165 2871.5,-165 2877.5,-165 2883.5,-171 2883.5,-177 2883.5,-177 2883.5,-189 2883.5,-189 2883.5,-195 2877.5,-201 2871.5,-201"/>
<text text-anchor="middle" x="2854.5" y="-179.3" font-family="Times,serif" font-size="14.00">comp 2</text>
</g>
<!-- 2&#45;&gt;13 -->
<g id="edge13" class="edge"><title>2&#45;&gt;13</title>
<path fill="none" stroke="black" d="M3011.7,-267.965C2975.47,-248.614 2926.35,-222.376 2892.71,-204.411"/>
<polygon fill="black" stroke="black" points="2894.13,-201.2 2883.66,-199.576 2890.83,-207.375 2894.13,-201.2"/>
</g>
<!-- 14 -->
<g id="node15" class="node"><title>14</title>
<path fill="#97b6b6" stroke="black" d="M3087.5,-202C3087.5,-202 3031.5,-202 3031.5,-202 3025.5,-202 3019.5,-196 3019.5,-190 3019.5,-190 3019.5,-176 3019.5,-176 3019.5,-170 3025.5,-164 3031.5,-164 3031.5,-164 3087.5,-164 3087.5,-164 3093.5,-164 3099.5,-170 3099.5,-176 3099.5,-176 3099.5,-190 3099.5,-190 3099.5,-196 3093.5,-202 3087.5,-202"/>
<text text-anchor="middle" x="3059.5" y="-186.8" font-family="Times,serif" font-size="14.00">comp 3</text>
<text text-anchor="middle" x="3059.5" y="-171.8" font-family="Times,serif" font-size="14.00">n kernels: 9</text>
</g>
<!-- 2&#45;&gt;14 -->
<g id="edge14" class="edge"><title>2&#45;&gt;14</title>
<path fill="none" stroke="black" d="M3059.5,-267.827C3059.5,-251.18 3059.5,-229.482 3059.5,-212.332"/>
<polygon fill="black" stroke="black" points="3063,-212.327 3059.5,-202.327 3056,-212.327 3063,-212.327"/>
</g>
<!-- 15 -->
<g id="node16" class="node"><title>15</title>
<path fill="#839e9e" stroke="black" d="M3346.5,-202C3346.5,-202 3226.5,-202 3226.5,-202 3220.5,-202 3214.5,-196 3214.5,-190 3214.5,-190 3214.5,-176 3214.5,-176 3214.5,-170 3220.5,-164 3226.5,-164 3226.5,-164 3346.5,-164 3346.5,-164 3352.5,-164 3358.5,-170 3358.5,-176 3358.5,-176 3358.5,-190 3358.5,-190 3358.5,-196 3352.5,-202 3346.5,-202"/>
<text text-anchor="middle" x="3286.5" y="-186.8" font-family="Times,serif" font-size="14.00">comp 4</text>
<text text-anchor="middle" x="3286.5" y="-171.8" font-family="Times,serif" font-size="14.00">log gamma2: 1.932511</text>
</g>
<!-- 2&#45;&gt;15 -->
<g id="edge15" class="edge"><title>2&#45;&gt;15</title>
<path fill="none" stroke="black" d="M3112.43,-267.965C3151.08,-249.322 3202.98,-224.288 3240.03,-206.417"/>
<polygon fill="black" stroke="black" points="3241.62,-209.533 3249.11,-202.036 3238.58,-203.228 3241.62,-209.533"/>
</g>
<!-- 16 -->
<g id="node17" class="node"><title>16</title>
<path fill="#6f8585" stroke="black" d="M3652,-202C3652,-202 3513,-202 3513,-202 3507,-202 3501,-196 3501,-190 3501,-190 3501,-176 3501,-176 3501,-170 3507,-164 3513,-164 3513,-164 3652,-164 3652,-164 3658,-164 3664,-170 3664,-176 3664,-176 3664,-190 3664,-190 3664,-196 3658,-202 3652,-202"/>
<text text-anchor="middle" x="3582.5" y="-186.8" font-family="Times,serif" font-size="14.00">path end 1</text>
<text text-anchor="middle" x="3582.5" y="-171.8" font-family="Times,serif" font-size="14.00">k width: &#45;2 &#160;&#160;n kernels: &#45;11</text>
</g>
<!-- 2&#45;&gt;16 -->
<g id="edge16" class="edge"><title>2&#45;&gt;16</title>
<path fill="none" stroke="black" d="M3132.72,-279.363C3195.18,-267.187 3287.34,-248.948 3367.5,-232 3408.98,-223.23 3454.84,-213.056 3493.52,-204.338"/>
<polygon fill="black" stroke="black" points="3494.73,-207.654 3503.71,-202.037 3493.19,-200.826 3494.73,-207.654"/>
</g>
<!-- 17 -->
<g id="node18" class="node"><title>17</title>
<path fill="#d3ffff" stroke="black" d="M4168.5,-202C4168.5,-202 3968.5,-202 3968.5,-202 3962.5,-202 3956.5,-196 3956.5,-190 3956.5,-190 3956.5,-176 3956.5,-176 3956.5,-170 3962.5,-164 3968.5,-164 3968.5,-164 4168.5,-164 4168.5,-164 4174.5,-164 4180.5,-170 4180.5,-176 4180.5,-176 4180.5,-190 4180.5,-190 4180.5,-196 4174.5,-202 4168.5,-202"/>
<text text-anchor="middle" x="4068.5" y="-186.8" font-family="Times,serif" font-size="14.00">comp 0</text>
<text text-anchor="middle" x="4068.5" y="-171.8" font-family="Times,serif" font-size="14.00">log gamma1: 0.264134 &#160;&#160;n kernels: &#45;4</text>
</g>
<!-- 3&#45;&gt;17 -->
<g id="edge17" class="edge"><title>3&#45;&gt;17</title>
<path fill="none" stroke="black" d="M4351.97,-267.928C4314.61,-256.882 4270.4,-243.81 4230.5,-232 4200.56,-223.138 4167.51,-213.346 4139.11,-204.931"/>
<polygon fill="black" stroke="black" points="4139.85,-201.501 4129.27,-202.015 4137.86,-208.212 4139.85,-201.501"/>
</g>
<!-- 18 -->
<g id="node19" class="node"><title>18</title>
<path fill="#bfe6e6" stroke="black" d="M4451.5,-202C4451.5,-202 4251.5,-202 4251.5,-202 4245.5,-202 4239.5,-196 4239.5,-190 4239.5,-190 4239.5,-176 4239.5,-176 4239.5,-170 4245.5,-164 4251.5,-164 4251.5,-164 4451.5,-164 4451.5,-164 4457.5,-164 4463.5,-170 4463.5,-176 4463.5,-176 4463.5,-190 4463.5,-190 4463.5,-196 4457.5,-202 4451.5,-202"/>
<text text-anchor="middle" x="4351.5" y="-186.8" font-family="Times,serif" font-size="14.00">comp 1</text>
<text text-anchor="middle" x="4351.5" y="-171.8" font-family="Times,serif" font-size="14.00">log gamma1: &#45;0.643665 &#160;&#160;n kernels: 1</text>
</g>
<!-- 3&#45;&gt;18 -->
<g id="edge18" class="edge"><title>3&#45;&gt;18</title>
<path fill="none" stroke="black" d="M4418.1,-267.827C4404.38,-250.552 4386.33,-227.837 4372.48,-210.41"/>
<polygon fill="black" stroke="black" points="4375.02,-207.979 4366.06,-202.327 4369.54,-212.334 4375.02,-207.979"/>
</g>
<!-- 19 -->
<g id="node20" class="node"><title>19</title>
<path fill="#abcece" stroke="black" d="M4557,-202C4557,-202 4494,-202 4494,-202 4488,-202 4482,-196 4482,-190 4482,-190 4482,-176 4482,-176 4482,-170 4488,-164 4494,-164 4494,-164 4557,-164 4557,-164 4563,-164 4569,-170 4569,-176 4569,-176 4569,-190 4569,-190 4569,-196 4563,-202 4557,-202"/>
<text text-anchor="middle" x="4525.5" y="-186.8" font-family="Times,serif" font-size="14.00">comp 2</text>
<text text-anchor="middle" x="4525.5" y="-171.8" font-family="Times,serif" font-size="14.00">n kernels: 16</text>
</g>
<!-- 3&#45;&gt;19 -->
<g id="edge19" class="edge"><title>3&#45;&gt;19</title>
<path fill="none" stroke="black" d="M4458.9,-267.827C4472.62,-250.552 4490.67,-227.837 4504.52,-210.41"/>
<polygon fill="black" stroke="black" points="4507.46,-212.334 4510.94,-202.327 4501.98,-207.979 4507.46,-212.334"/>
</g>
<!-- 20 -->
<g id="node21" class="node"><title>20</title>
<path fill="#97b6b6" stroke="black" d="M4655.5,-202C4655.5,-202 4599.5,-202 4599.5,-202 4593.5,-202 4587.5,-196 4587.5,-190 4587.5,-190 4587.5,-176 4587.5,-176 4587.5,-170 4593.5,-164 4599.5,-164 4599.5,-164 4655.5,-164 4655.5,-164 4661.5,-164 4667.5,-170 4667.5,-176 4667.5,-176 4667.5,-190 4667.5,-190 4667.5,-196 4661.5,-202 4655.5,-202"/>
<text text-anchor="middle" x="4627.5" y="-186.8" font-family="Times,serif" font-size="14.00">comp 3</text>
<text text-anchor="middle" x="4627.5" y="-171.8" font-family="Times,serif" font-size="14.00">n kernels: 6</text>
</g>
<!-- 3&#45;&gt;20 -->
<g id="edge20" class="edge"><title>3&#45;&gt;20</title>
<path fill="none" stroke="black" d="M4508.86,-267.995C4531.65,-258.287 4556.46,-246.111 4577.5,-232 4586.94,-225.666 4596.23,-217.468 4604.19,-209.644"/>
<polygon fill="black" stroke="black" points="4607.15,-211.619 4611.66,-202.029 4602.15,-206.717 4607.15,-211.619"/>
</g>
<!-- 21 -->
<g id="node22" class="node"><title>21</title>
<path fill="#839e9e" stroke="black" d="M4837,-202C4837,-202 4698,-202 4698,-202 4692,-202 4686,-196 4686,-190 4686,-190 4686,-176 4686,-176 4686,-170 4692,-164 4698,-164 4698,-164 4837,-164 4837,-164 4843,-164 4849,-170 4849,-176 4849,-176 4849,-190 4849,-190 4849,-196 4843,-202 4837,-202"/>
<text text-anchor="middle" x="4767.5" y="-186.8" font-family="Times,serif" font-size="14.00">path end 2</text>
<text text-anchor="middle" x="4767.5" y="-171.8" font-family="Times,serif" font-size="14.00">k width: &#45;2 &#160;&#160;n kernels: &#45;84</text>
</g>
<!-- 3&#45;&gt;21 -->
<g id="edge21" class="edge"><title>3&#45;&gt;21</title>
<path fill="none" stroke="black" d="M4551.58,-269.974C4591.68,-260.15 4636.7,-247.398 4676.5,-232 4694.19,-225.158 4712.85,-215.736 4728.65,-207.05"/>
<polygon fill="black" stroke="black" points="4730.57,-209.986 4737.58,-202.047 4727.15,-203.878 4730.57,-209.986"/>
</g>
<!-- 22 -->
<g id="node23" class="node"><title>22</title>
<path fill="#d3ffff" stroke="black" d="M5160,-232C5160,-232 4879,-232 4879,-232 4873,-232 4867,-226 4867,-220 4867,-220 4867,-146 4867,-146 4867,-140 4873,-134 4879,-134 4879,-134 5160,-134 5160,-134 5166,-134 5172,-140 5172,-146 5172,-146 5172,-220 5172,-220 5172,-226 5166,-232 5160,-232"/>
<text text-anchor="middle" x="5019.5" y="-216.8" font-family="Times,serif" font-size="14.00">forward</text>
<text text-anchor="middle" x="5019.5" y="-201.8" font-family="Times,serif" font-size="14.00">CB0/C5</text>
<text text-anchor="middle" x="5019.5" y="-186.8" font-family="Times,serif" font-size="14.00">dilation rate: 1 &#160;&#160;k width: 3</text>
<text text-anchor="middle" x="5019.5" y="-171.8" font-family="Times,serif" font-size="14.00">log gamma1: &#45;11.000000 &#160;&#160;log gamma2: &#45;11.000000</text>
<text text-anchor="middle" x="5019.5" y="-156.8" font-family="Times,serif" font-size="14.00">log lambda1: &#45;11.000000 &#160;&#160;log lambda2: &#45;11.000000</text>
<text text-anchor="middle" x="5019.5" y="-141.8" font-family="Times,serif" font-size="14.00">n kernels: 64</text>
</g>
<!-- 4&#45;&gt;22 -->
<g id="edge22" class="edge"><title>4&#45;&gt;22</title>
<path fill="none" stroke="black" d="M5155.34,-276.391C5139.95,-265.923 5119.33,-251.898 5098.81,-237.942"/>
<polygon fill="black" stroke="black" points="5100.59,-234.917 5090.35,-232.188 5096.65,-240.706 5100.59,-234.917"/>
</g>
<!-- 23 -->
<g id="node24" class="node"><title>23</title>
<path fill="#bfe6e6" stroke="black" d="M5483,-232C5483,-232 5202,-232 5202,-232 5196,-232 5190,-226 5190,-220 5190,-220 5190,-146 5190,-146 5190,-140 5196,-134 5202,-134 5202,-134 5483,-134 5483,-134 5489,-134 5495,-140 5495,-146 5495,-146 5495,-220 5495,-220 5495,-226 5489,-232 5483,-232"/>
<text text-anchor="middle" x="5342.5" y="-216.8" font-family="Times,serif" font-size="14.00">merge 1</text>
<text text-anchor="middle" x="5342.5" y="-201.8" font-family="Times,serif" font-size="14.00">CB1/PE1</text>
<text text-anchor="middle" x="5342.5" y="-186.8" font-family="Times,serif" font-size="14.00">dilation rate: 1 &#160;&#160;k width: 3</text>
<text text-anchor="middle" x="5342.5" y="-171.8" font-family="Times,serif" font-size="14.00">log gamma1: &#45;11.000000 &#160;&#160;log gamma2: &#45;11.000000</text>
<text text-anchor="middle" x="5342.5" y="-156.8" font-family="Times,serif" font-size="14.00">log lambda1: &#45;11.000000 &#160;&#160;log lambda2: &#45;11.000000</text>
<text text-anchor="middle" x="5342.5" y="-141.8" font-family="Times,serif" font-size="14.00">n kernels: 64</text>
</g>
<!-- 4&#45;&gt;23 -->
<g id="edge23" class="edge"><title>4&#45;&gt;23</title>
<path fill="none" stroke="black" d="M5205.81,-276.391C5221.3,-265.923 5242.05,-251.898 5262.69,-237.942"/>
<polygon fill="black" stroke="black" points="5264.88,-240.687 5271.21,-232.188 5260.96,-234.888 5264.88,-240.687"/>
</g>
<!-- 24 -->
<g id="node25" class="node"><title>24</title>
<path fill="#abcece" stroke="black" d="M5806,-232C5806,-232 5525,-232 5525,-232 5519,-232 5513,-226 5513,-220 5513,-220 5513,-146 5513,-146 5513,-140 5519,-134 5525,-134 5525,-134 5806,-134 5806,-134 5812,-134 5818,-140 5818,-146 5818,-146 5818,-220 5818,-220 5818,-226 5812,-232 5806,-232"/>
<text text-anchor="middle" x="5665.5" y="-216.8" font-family="Times,serif" font-size="14.00">merge 2</text>
<text text-anchor="middle" x="5665.5" y="-201.8" font-family="Times,serif" font-size="14.00">CB2/PE2</text>
<text text-anchor="middle" x="5665.5" y="-186.8" font-family="Times,serif" font-size="14.00">dilation rate: 1 &#160;&#160;k width: 3</text>
<text text-anchor="middle" x="5665.5" y="-171.8" font-family="Times,serif" font-size="14.00">log gamma1: &#45;11.000000 &#160;&#160;log gamma2: &#45;11.000000</text>
<text text-anchor="middle" x="5665.5" y="-156.8" font-family="Times,serif" font-size="14.00">log lambda1: &#45;11.000000 &#160;&#160;log lambda2: &#45;11.000000</text>
<text text-anchor="middle" x="5665.5" y="-141.8" font-family="Times,serif" font-size="14.00">n kernels: 64</text>
</g>
<!-- 4&#45;&gt;24 -->
<g id="edge24" class="edge"><title>4&#45;&gt;24</title>
<path fill="none" stroke="black" d="M5226.01,-286.309C5286.92,-276.361 5398.44,-257.014 5503.2,-232.009"/>
<polygon fill="black" stroke="black" points="5504.09,-235.395 5512.99,-229.651 5502.45,-228.59 5504.09,-235.395"/>
</g>
<!-- 25 -->
<g id="node26" class="node"><title>25</title>
<path fill="#e9d3ff" stroke="black" d="M293,-98C293,-98 12,-98 12,-98 6,-98 0,-92 0,-86 0,-86 0,-12 0,-12 0,-6 6,-0 12,-0 12,-0 293,-0 293,-0 299,-0 305,-6 305,-12 305,-12 305,-86 305,-86 305,-92 299,-98 293,-98"/>
<text text-anchor="middle" x="152.5" y="-82.8" font-family="Times,serif" font-size="14.00">forward</text>
<text text-anchor="middle" x="152.5" y="-67.8" font-family="Times,serif" font-size="14.00">input</text>
<text text-anchor="middle" x="152.5" y="-52.8" font-family="Times,serif" font-size="14.00">dilation rate: 1 &#160;&#160;k width: 3</text>
<text text-anchor="middle" x="152.5" y="-37.8" font-family="Times,serif" font-size="14.00">log gamma1: &#45;11.000000 &#160;&#160;log gamma2: &#45;11.000000</text>
<text text-anchor="middle" x="152.5" y="-22.8" font-family="Times,serif" font-size="14.00">log lambda1: &#45;11.000000 &#160;&#160;log lambda2: &#45;11.000000</text>
<text text-anchor="middle" x="152.5" y="-7.8" font-family="Times,serif" font-size="14.00">n kernels: 64</text>
</g>
<!-- 5&#45;&gt;25 -->
<g id="edge25" class="edge"><title>5&#45;&gt;25</title>
<path fill="none" stroke="black" d="M269.012,-163.923C253.506,-148.761 230.513,-126.279 209.041,-105.284"/>
<polygon fill="black" stroke="black" points="211.427,-102.722 201.83,-98.2336 206.533,-107.727 211.427,-102.722"/>
</g>
<!-- 26 -->
<g id="node27" class="node"><title>26</title>
<path fill="#e9d3ff" stroke="black" d="M616,-98C616,-98 335,-98 335,-98 329,-98 323,-92 323,-86 323,-86 323,-12 323,-12 323,-6 329,-0 335,-0 335,-0 616,-0 616,-0 622,-0 628,-6 628,-12 628,-12 628,-86 628,-86 628,-92 622,-98 616,-98"/>
<text text-anchor="middle" x="475.5" y="-82.8" font-family="Times,serif" font-size="14.00">forward</text>
<text text-anchor="middle" x="475.5" y="-67.8" font-family="Times,serif" font-size="14.00">CB0/C0</text>
<text text-anchor="middle" x="475.5" y="-52.8" font-family="Times,serif" font-size="14.00">dilation rate: 1 &#160;&#160;k width: 3</text>
<text text-anchor="middle" x="475.5" y="-37.8" font-family="Times,serif" font-size="14.00">log gamma1: &#45;11.000000 &#160;&#160;log gamma2: &#45;11.000000</text>
<text text-anchor="middle" x="475.5" y="-22.8" font-family="Times,serif" font-size="14.00">log lambda1: &#45;11.000000 &#160;&#160;log lambda2: &#45;11.000000</text>
<text text-anchor="middle" x="475.5" y="-7.8" font-family="Times,serif" font-size="14.00">n kernels: 64</text>
</g>
<!-- 6&#45;&gt;26 -->
<g id="edge26" class="edge"><title>6&#45;&gt;26</title>
<path fill="none" stroke="black" d="M568.512,-164.743C556.406,-149.809 538.202,-127.353 521.1,-106.254"/>
<polygon fill="black" stroke="black" points="523.63,-103.818 514.614,-98.2533 518.193,-108.226 523.63,-103.818"/>
</g>
<!-- 27 -->
<g id="node28" class="node"><title>27</title>
<path fill="#e9d3ff" stroke="black" d="M939,-98C939,-98 658,-98 658,-98 652,-98 646,-92 646,-86 646,-86 646,-12 646,-12 646,-6 652,-0 658,-0 658,-0 939,-0 939,-0 945,-0 951,-6 951,-12 951,-12 951,-86 951,-86 951,-92 945,-98 939,-98"/>
<text text-anchor="middle" x="798.5" y="-82.8" font-family="Times,serif" font-size="14.00">forward</text>
<text text-anchor="middle" x="798.5" y="-67.8" font-family="Times,serif" font-size="14.00">CB0/C1</text>
<text text-anchor="middle" x="798.5" y="-52.8" font-family="Times,serif" font-size="14.00">dilation rate: 1 &#160;&#160;k width: 3</text>
<text text-anchor="middle" x="798.5" y="-37.8" font-family="Times,serif" font-size="14.00">log gamma1: &#45;11.000000 &#160;&#160;log gamma2: &#45;11.000000</text>
<text text-anchor="middle" x="798.5" y="-22.8" font-family="Times,serif" font-size="14.00">log lambda1: &#45;11.000000 &#160;&#160;log lambda2: &#45;11.000000</text>
<text text-anchor="middle" x="798.5" y="-7.8" font-family="Times,serif" font-size="14.00">n kernels: 64</text>
</g>
<!-- 7&#45;&gt;27 -->
<g id="edge27" class="edge"><title>7&#45;&gt;27</title>
<path fill="none" stroke="black" d="M847.694,-163.923C841.375,-149.289 832.11,-127.835 823.321,-107.48"/>
<polygon fill="black" stroke="black" points="826.506,-106.027 819.328,-98.2336 820.079,-108.802 826.506,-106.027"/>
</g>
<!-- 28 -->
<g id="node29" class="node"><title>28</title>
<path fill="#e9d3ff" stroke="black" d="M1262,-98C1262,-98 981,-98 981,-98 975,-98 969,-92 969,-86 969,-86 969,-12 969,-12 969,-6 975,-0 981,-0 981,-0 1262,-0 1262,-0 1268,-0 1274,-6 1274,-12 1274,-12 1274,-86 1274,-86 1274,-92 1268,-98 1262,-98"/>
<text text-anchor="middle" x="1121.5" y="-82.8" font-family="Times,serif" font-size="14.00">forward</text>
<text text-anchor="middle" x="1121.5" y="-67.8" font-family="Times,serif" font-size="14.00">CB0/C2</text>
<text text-anchor="middle" x="1121.5" y="-52.8" font-family="Times,serif" font-size="14.00">dilation rate: 1 &#160;&#160;k width: 3</text>
<text text-anchor="middle" x="1121.5" y="-37.8" font-family="Times,serif" font-size="14.00">log gamma1: &#45;11.000000 &#160;&#160;log gamma2: &#45;11.000000</text>
<text text-anchor="middle" x="1121.5" y="-22.8" font-family="Times,serif" font-size="14.00">log lambda1: &#45;11.000000 &#160;&#160;log lambda2: &#45;11.000000</text>
<text text-anchor="middle" x="1121.5" y="-7.8" font-family="Times,serif" font-size="14.00">n kernels: 64</text>
</g>
<!-- 8&#45;&gt;28 -->
<g id="edge28" class="edge"><title>8&#45;&gt;28</title>
<path fill="none" stroke="black" d="M1121.5,-163.923C1121.5,-149.486 1121.5,-128.413 1121.5,-108.306"/>
<polygon fill="black" stroke="black" points="1125,-108.234 1121.5,-98.2336 1118,-108.234 1125,-108.234"/>
</g>
<!-- 29 -->
<g id="node30" class="node"><title>29</title>
<path fill="#e9d3ff" stroke="black" d="M1585,-98C1585,-98 1304,-98 1304,-98 1298,-98 1292,-92 1292,-86 1292,-86 1292,-12 1292,-12 1292,-6 1298,-0 1304,-0 1304,-0 1585,-0 1585,-0 1591,-0 1597,-6 1597,-12 1597,-12 1597,-86 1597,-86 1597,-92 1591,-98 1585,-98"/>
<text text-anchor="middle" x="1444.5" y="-82.8" font-family="Times,serif" font-size="14.00">forward</text>
<text text-anchor="middle" x="1444.5" y="-67.8" font-family="Times,serif" font-size="14.00">CB0/C3</text>
<text text-anchor="middle" x="1444.5" y="-52.8" font-family="Times,serif" font-size="14.00">dilation rate: 1 &#160;&#160;k width: 3</text>
<text text-anchor="middle" x="1444.5" y="-37.8" font-family="Times,serif" font-size="14.00">log gamma1: &#45;11.000000 &#160;&#160;log gamma2: &#45;11.000000</text>
<text text-anchor="middle" x="1444.5" y="-22.8" font-family="Times,serif" font-size="14.00">log lambda1: &#45;11.000000 &#160;&#160;log lambda2: &#45;11.000000</text>
<text text-anchor="middle" x="1444.5" y="-7.8" font-family="Times,serif" font-size="14.00">n kernels: 64</text>
</g>
<!-- 9&#45;&gt;29 -->
<g id="edge29" class="edge"><title>9&#45;&gt;29</title>
<path fill="none" stroke="black" d="M1360.78,-163.923C1371.73,-149.025 1387.87,-127.059 1403.07,-106.381"/>
<polygon fill="black" stroke="black" points="1405.95,-108.364 1409.06,-98.2336 1400.31,-104.219 1405.95,-108.364"/>
</g>
<!-- 30 -->
<g id="node31" class="node"><title>30</title>
<path fill="#e9d3ff" stroke="black" d="M1908,-98C1908,-98 1627,-98 1627,-98 1621,-98 1615,-92 1615,-86 1615,-86 1615,-12 1615,-12 1615,-6 1621,-0 1627,-0 1627,-0 1908,-0 1908,-0 1914,-0 1920,-6 1920,-12 1920,-12 1920,-86 1920,-86 1920,-92 1914,-98 1908,-98"/>
<text text-anchor="middle" x="1767.5" y="-82.8" font-family="Times,serif" font-size="14.00">forward</text>
<text text-anchor="middle" x="1767.5" y="-67.8" font-family="Times,serif" font-size="14.00">CB0/C4</text>
<text text-anchor="middle" x="1767.5" y="-52.8" font-family="Times,serif" font-size="14.00">dilation rate: 1 &#160;&#160;k width: 3</text>
<text text-anchor="middle" x="1767.5" y="-37.8" font-family="Times,serif" font-size="14.00">log gamma1: &#45;11.000000 &#160;&#160;log gamma2: &#45;11.000000</text>
<text text-anchor="middle" x="1767.5" y="-22.8" font-family="Times,serif" font-size="14.00">log lambda1: &#45;11.000000 &#160;&#160;log lambda2: &#45;11.000000</text>
<text text-anchor="middle" x="1767.5" y="-7.8" font-family="Times,serif" font-size="14.00">n kernels: 64</text>
</g>
<!-- 10&#45;&gt;30 -->
<g id="edge30" class="edge"><title>10&#45;&gt;30</title>
<path fill="none" stroke="black" d="M1659.62,-163.923C1673.91,-148.827 1695.08,-126.475 1714.89,-105.558"/>
<polygon fill="black" stroke="black" points="1717.49,-107.901 1721.82,-98.2336 1712.41,-103.088 1717.49,-107.901"/>
</g>
<!-- 31 -->
<g id="node32" class="node"><title>31</title>
<path fill="#e9d3ff" stroke="black" d="M2231,-98C2231,-98 1950,-98 1950,-98 1944,-98 1938,-92 1938,-86 1938,-86 1938,-12 1938,-12 1938,-6 1944,-0 1950,-0 1950,-0 2231,-0 2231,-0 2237,-0 2243,-6 2243,-12 2243,-12 2243,-86 2243,-86 2243,-92 2237,-98 2231,-98"/>
<text text-anchor="middle" x="2090.5" y="-82.8" font-family="Times,serif" font-size="14.00">forward</text>
<text text-anchor="middle" x="2090.5" y="-67.8" font-family="Times,serif" font-size="14.00">input</text>
<text text-anchor="middle" x="2090.5" y="-52.8" font-family="Times,serif" font-size="14.00">dilation rate: 1 &#160;&#160;k width: 3</text>
<text text-anchor="middle" x="2090.5" y="-37.8" font-family="Times,serif" font-size="14.00">log gamma1: &#45;11.000000 &#160;&#160;log gamma2: &#45;11.000000</text>
<text text-anchor="middle" x="2090.5" y="-22.8" font-family="Times,serif" font-size="14.00">log lambda1: &#45;11.000000 &#160;&#160;log lambda2: &#45;11.000000</text>
<text text-anchor="middle" x="2090.5" y="-7.8" font-family="Times,serif" font-size="14.00">n kernels: 64</text>
</g>
<!-- 11&#45;&gt;31 -->
<g id="edge31" class="edge"><title>11&#45;&gt;31</title>
<path fill="none" stroke="black" d="M2244.99,-163.923C2224.07,-148.498 2192.88,-125.495 2163.98,-104.19"/>
<polygon fill="black" stroke="black" points="2166.03,-101.352 2155.91,-98.2336 2161.88,-106.986 2166.03,-101.352"/>
</g>
<!-- 32 -->
<g id="node33" class="node"><title>32</title>
<path fill="#e9d3ff" stroke="black" d="M2554,-98C2554,-98 2273,-98 2273,-98 2267,-98 2261,-92 2261,-86 2261,-86 2261,-12 2261,-12 2261,-6 2267,-0 2273,-0 2273,-0 2554,-0 2554,-0 2560,-0 2566,-6 2566,-12 2566,-12 2566,-86 2566,-86 2566,-92 2560,-98 2554,-98"/>
<text text-anchor="middle" x="2413.5" y="-82.8" font-family="Times,serif" font-size="14.00">forward</text>
<text text-anchor="middle" x="2413.5" y="-67.8" font-family="Times,serif" font-size="14.00">CB1/C0</text>
<text text-anchor="middle" x="2413.5" y="-52.8" font-family="Times,serif" font-size="14.00">dilation rate: 1 &#160;&#160;k width: 3</text>
<text text-anchor="middle" x="2413.5" y="-37.8" font-family="Times,serif" font-size="14.00">log gamma1: &#45;11.000000 &#160;&#160;log gamma2: &#45;11.000000</text>
<text text-anchor="middle" x="2413.5" y="-22.8" font-family="Times,serif" font-size="14.00">log lambda1: &#45;11.000000 &#160;&#160;log lambda2: &#45;11.000000</text>
<text text-anchor="middle" x="2413.5" y="-7.8" font-family="Times,serif" font-size="14.00">n kernels: 64</text>
</g>
<!-- 12&#45;&gt;32 -->
<g id="edge32" class="edge"><title>12&#45;&gt;32</title>
<path fill="none" stroke="black" d="M2563.67,-163.923C2543.42,-148.563 2513.28,-125.692 2485.29,-104.463"/>
<polygon fill="black" stroke="black" points="2487.16,-101.489 2477.08,-98.2336 2482.93,-107.066 2487.16,-101.489"/>
</g>
<!-- 33 -->
<g id="node34" class="node"><title>33</title>
<path fill="#e9d3ff" stroke="black" d="M2877,-98C2877,-98 2596,-98 2596,-98 2590,-98 2584,-92 2584,-86 2584,-86 2584,-12 2584,-12 2584,-6 2590,-0 2596,-0 2596,-0 2877,-0 2877,-0 2883,-0 2889,-6 2889,-12 2889,-12 2889,-86 2889,-86 2889,-92 2883,-98 2877,-98"/>
<text text-anchor="middle" x="2736.5" y="-82.8" font-family="Times,serif" font-size="14.00">forward</text>
<text text-anchor="middle" x="2736.5" y="-67.8" font-family="Times,serif" font-size="14.00">CB1/C1</text>
<text text-anchor="middle" x="2736.5" y="-52.8" font-family="Times,serif" font-size="14.00">dilation rate: 1 &#160;&#160;k width: 3</text>
<text text-anchor="middle" x="2736.5" y="-37.8" font-family="Times,serif" font-size="14.00">log gamma1: &#45;11.000000 &#160;&#160;log gamma2: &#45;11.000000</text>
<text text-anchor="middle" x="2736.5" y="-22.8" font-family="Times,serif" font-size="14.00">log lambda1: &#45;11.000000 &#160;&#160;log lambda2: &#45;11.000000</text>
<text text-anchor="middle" x="2736.5" y="-7.8" font-family="Times,serif" font-size="14.00">n kernels: 64</text>
</g>
<!-- 13&#45;&gt;33 -->
<g id="edge33" class="edge"><title>13&#45;&gt;33</title>
<path fill="none" stroke="black" d="M2839.07,-164.743C2825.66,-149.744 2805.47,-127.155 2786.54,-105.976"/>
<polygon fill="black" stroke="black" points="2788.91,-103.376 2779.64,-98.2533 2783.69,-108.041 2788.91,-103.376"/>
</g>
<!-- 34 -->
<g id="node35" class="node"><title>34</title>
<path fill="#e9d3ff" stroke="black" d="M3200,-98C3200,-98 2919,-98 2919,-98 2913,-98 2907,-92 2907,-86 2907,-86 2907,-12 2907,-12 2907,-6 2913,-0 2919,-0 2919,-0 3200,-0 3200,-0 3206,-0 3212,-6 3212,-12 3212,-12 3212,-86 3212,-86 3212,-92 3206,-98 3200,-98"/>
<text text-anchor="middle" x="3059.5" y="-82.8" font-family="Times,serif" font-size="14.00">forward</text>
<text text-anchor="middle" x="3059.5" y="-67.8" font-family="Times,serif" font-size="14.00">CB1/C2</text>
<text text-anchor="middle" x="3059.5" y="-52.8" font-family="Times,serif" font-size="14.00">dilation rate: 1 &#160;&#160;k width: 3</text>
<text text-anchor="middle" x="3059.5" y="-37.8" font-family="Times,serif" font-size="14.00">log gamma1: &#45;11.000000 &#160;&#160;log gamma2: &#45;11.000000</text>
<text text-anchor="middle" x="3059.5" y="-22.8" font-family="Times,serif" font-size="14.00">log lambda1: &#45;11.000000 &#160;&#160;log lambda2: &#45;11.000000</text>
<text text-anchor="middle" x="3059.5" y="-7.8" font-family="Times,serif" font-size="14.00">n kernels: 64</text>
</g>
<!-- 14&#45;&gt;34 -->
<g id="edge34" class="edge"><title>14&#45;&gt;34</title>
<path fill="none" stroke="black" d="M3059.5,-163.923C3059.5,-149.486 3059.5,-128.413 3059.5,-108.306"/>
<polygon fill="black" stroke="black" points="3063,-108.234 3059.5,-98.2336 3056,-108.234 3063,-108.234"/>
</g>
<!-- 35 -->
<g id="node36" class="node"><title>35</title>
<path fill="#e9d3ff" stroke="black" d="M3523,-98C3523,-98 3242,-98 3242,-98 3236,-98 3230,-92 3230,-86 3230,-86 3230,-12 3230,-12 3230,-6 3236,-0 3242,-0 3242,-0 3523,-0 3523,-0 3529,-0 3535,-6 3535,-12 3535,-12 3535,-86 3535,-86 3535,-92 3529,-98 3523,-98"/>
<text text-anchor="middle" x="3382.5" y="-82.8" font-family="Times,serif" font-size="14.00">forward</text>
<text text-anchor="middle" x="3382.5" y="-67.8" font-family="Times,serif" font-size="14.00">CB1/C3</text>
<text text-anchor="middle" x="3382.5" y="-52.8" font-family="Times,serif" font-size="14.00">dilation rate: 1 &#160;&#160;k width: 3</text>
<text text-anchor="middle" x="3382.5" y="-37.8" font-family="Times,serif" font-size="14.00">log gamma1: &#45;11.000000 &#160;&#160;log gamma2: &#45;11.000000</text>
<text text-anchor="middle" x="3382.5" y="-22.8" font-family="Times,serif" font-size="14.00">log lambda1: &#45;11.000000 &#160;&#160;log lambda2: &#45;11.000000</text>
<text text-anchor="middle" x="3382.5" y="-7.8" font-family="Times,serif" font-size="14.00">n kernels: 64</text>
</g>
<!-- 15&#45;&gt;35 -->
<g id="edge35" class="edge"><title>15&#45;&gt;35</title>
<path fill="none" stroke="black" d="M3299.65,-163.923C3310.48,-149.025 3326.46,-127.059 3341.5,-106.381"/>
<polygon fill="black" stroke="black" points="3344.37,-108.38 3347.42,-98.2336 3338.71,-104.262 3344.37,-108.38"/>
</g>
<!-- 36 -->
<g id="node37" class="node"><title>36</title>
<path fill="#e9d3ff" stroke="black" d="M3846,-98C3846,-98 3565,-98 3565,-98 3559,-98 3553,-92 3553,-86 3553,-86 3553,-12 3553,-12 3553,-6 3559,-0 3565,-0 3565,-0 3846,-0 3846,-0 3852,-0 3858,-6 3858,-12 3858,-12 3858,-86 3858,-86 3858,-92 3852,-98 3846,-98"/>
<text text-anchor="middle" x="3705.5" y="-82.8" font-family="Times,serif" font-size="14.00">forward</text>
<text text-anchor="middle" x="3705.5" y="-67.8" font-family="Times,serif" font-size="14.00">CB1/C4</text>
<text text-anchor="middle" x="3705.5" y="-52.8" font-family="Times,serif" font-size="14.00">dilation rate: 1 &#160;&#160;k width: 3</text>
<text text-anchor="middle" x="3705.5" y="-37.8" font-family="Times,serif" font-size="14.00">log gamma1: &#45;11.000000 &#160;&#160;log gamma2: &#45;11.000000</text>
<text text-anchor="middle" x="3705.5" y="-22.8" font-family="Times,serif" font-size="14.00">log lambda1: &#45;11.000000 &#160;&#160;log lambda2: &#45;11.000000</text>
<text text-anchor="middle" x="3705.5" y="-7.8" font-family="Times,serif" font-size="14.00">n kernels: 64</text>
</g>
<!-- 16&#45;&gt;36 -->
<g id="edge36" class="edge"><title>16&#45;&gt;36</title>
<path fill="none" stroke="black" d="M3599.34,-163.923C3613.41,-148.827 3634.24,-126.475 3653.73,-105.558"/>
<polygon fill="black" stroke="black" points="3656.3,-107.936 3660.56,-98.2336 3651.18,-103.164 3656.3,-107.936"/>
</g>
<!-- 37 -->
<g id="node38" class="node"><title>37</title>
<path fill="#e9d3ff" stroke="black" d="M4169,-98C4169,-98 3888,-98 3888,-98 3882,-98 3876,-92 3876,-86 3876,-86 3876,-12 3876,-12 3876,-6 3882,-0 3888,-0 3888,-0 4169,-0 4169,-0 4175,-0 4181,-6 4181,-12 4181,-12 4181,-86 4181,-86 4181,-92 4175,-98 4169,-98"/>
<text text-anchor="middle" x="4028.5" y="-82.8" font-family="Times,serif" font-size="14.00">forward</text>
<text text-anchor="middle" x="4028.5" y="-67.8" font-family="Times,serif" font-size="14.00">input</text>
<text text-anchor="middle" x="4028.5" y="-52.8" font-family="Times,serif" font-size="14.00">dilation rate: 1 &#160;&#160;k width: 3</text>
<text text-anchor="middle" x="4028.5" y="-37.8" font-family="Times,serif" font-size="14.00">log gamma1: &#45;11.000000 &#160;&#160;log gamma2: &#45;11.000000</text>
<text text-anchor="middle" x="4028.5" y="-22.8" font-family="Times,serif" font-size="14.00">log lambda1: &#45;11.000000 &#160;&#160;log lambda2: &#45;11.000000</text>
<text text-anchor="middle" x="4028.5" y="-7.8" font-family="Times,serif" font-size="14.00">n kernels: 64</text>
</g>
<!-- 17&#45;&gt;37 -->
<g id="edge37" class="edge"><title>17&#45;&gt;37</title>
<path fill="none" stroke="black" d="M4063.02,-163.923C4058.63,-149.42 4052.2,-128.221 4046.08,-108.03"/>
<polygon fill="black" stroke="black" points="4049.37,-106.789 4043.12,-98.2336 4042.67,-108.819 4049.37,-106.789"/>
</g>
<!-- 38 -->
<g id="node39" class="node"><title>38</title>
<path fill="#e9d3ff" stroke="black" d="M4492,-98C4492,-98 4211,-98 4211,-98 4205,-98 4199,-92 4199,-86 4199,-86 4199,-12 4199,-12 4199,-6 4205,-0 4211,-0 4211,-0 4492,-0 4492,-0 4498,-0 4504,-6 4504,-12 4504,-12 4504,-86 4504,-86 4504,-92 4498,-98 4492,-98"/>
<text text-anchor="middle" x="4351.5" y="-82.8" font-family="Times,serif" font-size="14.00">forward</text>
<text text-anchor="middle" x="4351.5" y="-67.8" font-family="Times,serif" font-size="14.00">CB2/C0</text>
<text text-anchor="middle" x="4351.5" y="-52.8" font-family="Times,serif" font-size="14.00">dilation rate: 1 &#160;&#160;k width: 3</text>
<text text-anchor="middle" x="4351.5" y="-37.8" font-family="Times,serif" font-size="14.00">log gamma1: &#45;11.000000 &#160;&#160;log gamma2: &#45;11.000000</text>
<text text-anchor="middle" x="4351.5" y="-22.8" font-family="Times,serif" font-size="14.00">log lambda1: &#45;11.000000 &#160;&#160;log lambda2: &#45;11.000000</text>
<text text-anchor="middle" x="4351.5" y="-7.8" font-family="Times,serif" font-size="14.00">n kernels: 64</text>
</g>
<!-- 18&#45;&gt;38 -->
<g id="edge38" class="edge"><title>18&#45;&gt;38</title>
<path fill="none" stroke="black" d="M4351.5,-163.923C4351.5,-149.486 4351.5,-128.413 4351.5,-108.306"/>
<polygon fill="black" stroke="black" points="4355,-108.234 4351.5,-98.2336 4348,-108.234 4355,-108.234"/>
</g>
<!-- 39 -->
<g id="node40" class="node"><title>39</title>
<path fill="#e9d3ff" stroke="black" d="M4815,-98C4815,-98 4534,-98 4534,-98 4528,-98 4522,-92 4522,-86 4522,-86 4522,-12 4522,-12 4522,-6 4528,-0 4534,-0 4534,-0 4815,-0 4815,-0 4821,-0 4827,-6 4827,-12 4827,-12 4827,-86 4827,-86 4827,-92 4821,-98 4815,-98"/>
<text text-anchor="middle" x="4674.5" y="-82.8" font-family="Times,serif" font-size="14.00">forward</text>
<text text-anchor="middle" x="4674.5" y="-67.8" font-family="Times,serif" font-size="14.00">CB2/C1</text>
<text text-anchor="middle" x="4674.5" y="-52.8" font-family="Times,serif" font-size="14.00">dilation rate: 1 &#160;&#160;k width: 3</text>
<text text-anchor="middle" x="4674.5" y="-37.8" font-family="Times,serif" font-size="14.00">log gamma1: &#45;11.000000 &#160;&#160;log gamma2: &#45;11.000000</text>
<text text-anchor="middle" x="4674.5" y="-22.8" font-family="Times,serif" font-size="14.00">log lambda1: &#45;11.000000 &#160;&#160;log lambda2: &#45;11.000000</text>
<text text-anchor="middle" x="4674.5" y="-7.8" font-family="Times,serif" font-size="14.00">n kernels: 64</text>
</g>
<!-- 19&#45;&gt;39 -->
<g id="edge39" class="edge"><title>19&#45;&gt;39</title>
<path fill="none" stroke="black" d="M4545.31,-163.912C4555.24,-154.885 4567.47,-143.823 4578.5,-134 4589.18,-124.488 4600.59,-114.429 4611.67,-104.703"/>
<polygon fill="black" stroke="black" points="4614.06,-107.259 4619.28,-98.0346 4609.45,-101.995 4614.06,-107.259"/>
</g>
<!-- 40 -->
<g id="node41" class="node"><title>40</title>
<path fill="#e9d3ff" stroke="black" d="M5138,-98C5138,-98 4857,-98 4857,-98 4851,-98 4845,-92 4845,-86 4845,-86 4845,-12 4845,-12 4845,-6 4851,-0 4857,-0 4857,-0 5138,-0 5138,-0 5144,-0 5150,-6 5150,-12 5150,-12 5150,-86 5150,-86 5150,-92 5144,-98 5138,-98"/>
<text text-anchor="middle" x="4997.5" y="-82.8" font-family="Times,serif" font-size="14.00">forward</text>
<text text-anchor="middle" x="4997.5" y="-67.8" font-family="Times,serif" font-size="14.00">CB2/C2</text>
<text text-anchor="middle" x="4997.5" y="-52.8" font-family="Times,serif" font-size="14.00">dilation rate: 1 &#160;&#160;k width: 3</text>
<text text-anchor="middle" x="4997.5" y="-37.8" font-family="Times,serif" font-size="14.00">log gamma1: &#45;11.000000 &#160;&#160;log gamma2: &#45;11.000000</text>
<text text-anchor="middle" x="4997.5" y="-22.8" font-family="Times,serif" font-size="14.00">log lambda1: &#45;11.000000 &#160;&#160;log lambda2: &#45;11.000000</text>
<text text-anchor="middle" x="4997.5" y="-7.8" font-family="Times,serif" font-size="14.00">n kernels: 64</text>
</g>
<!-- 20&#45;&gt;40 -->
<g id="edge40" class="edge"><title>20&#45;&gt;40</title>
<path fill="none" stroke="black" d="M4641.55,-163.945C4650.48,-153.669 4662.91,-141.407 4676.5,-134 4737.39,-100.824 4763.15,-114.939 4834.99,-97.9813"/>
<polygon fill="black" stroke="black" points="4836.09,-101.314 4844.95,-95.5022 4834.4,-94.5208 4836.09,-101.314"/>
</g>
<!-- 41 -->
<g id="node42" class="node"><title>41</title>
<path fill="#e9d3ff" stroke="black" d="M5461,-98C5461,-98 5180,-98 5180,-98 5174,-98 5168,-92 5168,-86 5168,-86 5168,-12 5168,-12 5168,-6 5174,-0 5180,-0 5180,-0 5461,-0 5461,-0 5467,-0 5473,-6 5473,-12 5473,-12 5473,-86 5473,-86 5473,-92 5467,-98 5461,-98"/>
<text text-anchor="middle" x="5320.5" y="-82.8" font-family="Times,serif" font-size="14.00">forward</text>
<text text-anchor="middle" x="5320.5" y="-67.8" font-family="Times,serif" font-size="14.00">CB2/C3</text>
<text text-anchor="middle" x="5320.5" y="-52.8" font-family="Times,serif" font-size="14.00">dilation rate: 1 &#160;&#160;k width: 3</text>
<text text-anchor="middle" x="5320.5" y="-37.8" font-family="Times,serif" font-size="14.00">log gamma1: &#45;11.000000 &#160;&#160;log gamma2: &#45;11.000000</text>
<text text-anchor="middle" x="5320.5" y="-22.8" font-family="Times,serif" font-size="14.00">log lambda1: &#45;11.000000 &#160;&#160;log lambda2: &#45;11.000000</text>
<text text-anchor="middle" x="5320.5" y="-7.8" font-family="Times,serif" font-size="14.00">n kernels: 64</text>
</g>
<!-- 21&#45;&gt;41 -->
<g id="edge41" class="edge"><title>21&#45;&gt;41</title>
<path fill="none" stroke="black" d="M4795.09,-163.818C4812.32,-153.361 4835.37,-140.955 4857.5,-134 4982.9,-94.592 5024.52,-123.734 5157.46,-98.0776"/>
<polygon fill="black" stroke="black" points="5158.5,-101.44 5167.62,-96.0466 5157.13,-94.5758 5158.5,-101.44"/>
</g>
</g>
</svg>
