<?xml version="1.0" encoding="UTF-8" standalone="no"?>
<!DOCTYPE svg PUBLIC "-//W3C//DTD SVG 1.1//EN"
 "http://www.w3.org/Graphics/SVG/1.1/DTD/svg11.dtd">
<!-- Generated by graphviz version 2.38.0 (20140413.2041)
 -->
<!-- Title: %3 Pages: 1 -->
<svg width="2658pt" height="402pt"
 viewBox="0.00 0.00 2657.50 402.00" xmlns="http://www.w3.org/2000/svg" xmlns:xlink="http://www.w3.org/1999/xlink">
<g id="graph0" class="graph" transform="scale(1 1) rotate(0) translate(4 398)">
<title>%3</title>
<polygon fill="none" stroke="none" points="-4,4 -4,-398 2653.5,-398 2653.5,4 -4,4"/>
<!-- 0 -->
<g id="node1" class="node"><title>0</title>
<path fill="#ffd3d3" stroke="black" d="M1092,-394C1092,-394 1029,-394 1029,-394 1023,-394 1017,-388 1017,-382 1017,-382 1017,-368 1017,-368 1017,-362 1023,-356 1029,-356 1029,-356 1092,-356 1092,-356 1098,-356 1104,-362 1104,-368 1104,-368 1104,-382 1104,-382 1104,-388 1098,-394 1092,-394"/>
<text text-anchor="middle" x="1060.5" y="-378.8" font-family="Times,serif" font-size="14.00">net</text>
<text text-anchor="middle" x="1060.5" y="-363.8" font-family="Times,serif" font-size="14.00">n kernels: 64</text>
</g>
<!-- 1 -->
<g id="node2" class="node"><title>1</title>
<path fill="#f6ffd3" stroke="black" d="M949,-320C949,-320 690,-320 690,-320 684,-320 678,-314 678,-308 678,-308 678,-279 678,-279 678,-273 684,-267 690,-267 690,-267 949,-267 949,-267 955,-267 961,-273 961,-279 961,-279 961,-308 961,-308 961,-314 955,-320 949,-320"/>
<text text-anchor="middle" x="819.5" y="-304.8" font-family="Times,serif" font-size="14.00">encoder</text>
<text text-anchor="middle" x="819.5" y="-289.8" font-family="Times,serif" font-size="14.00">log gamma1: 0.104132 &#160;&#160;log gamma2: 0.311948</text>
<text text-anchor="middle" x="819.5" y="-274.8" font-family="Times,serif" font-size="14.00">n kernels: &#45;2 &#160;&#160;pooling type: 1</text>
</g>
<!-- 0&#45;&gt;1 -->
<g id="edge1" class="edge"><title>0&#45;&gt;1</title>
<path fill="none" stroke="black" d="M1016.86,-359.603C986.226,-349.499 944.223,-335.643 906.838,-323.311"/>
<polygon fill="black" stroke="black" points="907.531,-319.854 896.938,-320.045 905.338,-326.501 907.531,-319.854"/>
</g>
<!-- 2 -->
<g id="node3" class="node"><title>2</title>
<path fill="#f6ffd3" stroke="black" d="M1434,-320C1434,-320 1171,-320 1171,-320 1165,-320 1159,-314 1159,-308 1159,-308 1159,-279 1159,-279 1159,-273 1165,-267 1171,-267 1171,-267 1434,-267 1434,-267 1440,-267 1446,-273 1446,-279 1446,-279 1446,-308 1446,-308 1446,-314 1440,-320 1434,-320"/>
<text text-anchor="middle" x="1302.5" y="-304.8" font-family="Times,serif" font-size="14.00">decoder</text>
<text text-anchor="middle" x="1302.5" y="-289.8" font-family="Times,serif" font-size="14.00">log gamma1: 0.445004 &#160;&#160;log gamma2: &#45;0.058651</text>
<text text-anchor="middle" x="1302.5" y="-274.8" font-family="Times,serif" font-size="14.00">n kernels: &#45;8 &#160;&#160;pooling type: 1</text>
</g>
<!-- 0&#45;&gt;2 -->
<g id="edge2" class="edge"><title>0&#45;&gt;2</title>
<path fill="none" stroke="black" d="M1104.04,-359.695C1134.77,-349.6 1177,-335.728 1214.61,-323.374"/>
<polygon fill="black" stroke="black" points="1216.16,-326.548 1224.57,-320.102 1213.97,-319.898 1216.16,-326.548"/>
</g>
<!-- 3 -->
<g id="node4" class="node"><title>3</title>
<path fill="#d3ffe4" stroke="black" d="M677,-216C677,-216 602,-216 602,-216 596,-216 590,-210 590,-204 590,-204 590,-190 590,-190 590,-184 596,-178 602,-178 602,-178 677,-178 677,-178 683,-178 689,-184 689,-190 689,-190 689,-204 689,-204 689,-210 683,-216 677,-216"/>
<text text-anchor="middle" x="639.5" y="-200.8" font-family="Times,serif" font-size="14.00">encode block 0</text>
<text text-anchor="middle" x="639.5" y="-185.8" font-family="Times,serif" font-size="14.00">n kernels: 3</text>
</g>
<!-- 1&#45;&gt;3 -->
<g id="edge3" class="edge"><title>1&#45;&gt;3</title>
<path fill="none" stroke="black" d="M770.789,-266.927C743.408,-252.551 709.516,-234.758 683.026,-220.851"/>
<polygon fill="black" stroke="black" points="684.469,-217.656 673.988,-216.106 681.215,-223.853 684.469,-217.656"/>
</g>
<!-- 4 -->
<g id="node5" class="node"><title>4</title>
<path fill="#d3ffe4" stroke="black" d="M1436.5,-231C1436.5,-231 1168.5,-231 1168.5,-231 1162.5,-231 1156.5,-225 1156.5,-219 1156.5,-219 1156.5,-175 1156.5,-175 1156.5,-169 1162.5,-163 1168.5,-163 1168.5,-163 1436.5,-163 1436.5,-163 1442.5,-163 1448.5,-169 1448.5,-175 1448.5,-175 1448.5,-219 1448.5,-219 1448.5,-225 1442.5,-231 1436.5,-231"/>
<text text-anchor="middle" x="1302.5" y="-215.8" font-family="Times,serif" font-size="14.00">decode block 1</text>
<text text-anchor="middle" x="1302.5" y="-200.8" font-family="Times,serif" font-size="14.00">log gamma1: &#45;0.319279 &#160;&#160;log gamma2: &#45;0.258961</text>
<text text-anchor="middle" x="1302.5" y="-185.8" font-family="Times,serif" font-size="14.00">n kernels: 56 &#160;&#160;pooling type: &#45;1</text>
<text text-anchor="middle" x="1302.5" y="-170.8" font-family="Times,serif" font-size="14.00">spatial scale: 1</text>
</g>
<!-- 2&#45;&gt;4 -->
<g id="edge4" class="edge"><title>2&#45;&gt;4</title>
<path fill="none" stroke="black" d="M1302.5,-266.677C1302.5,-258.822 1302.5,-249.964 1302.5,-241.285"/>
<polygon fill="black" stroke="black" points="1306,-241.251 1302.5,-231.251 1299,-241.251 1306,-241.251"/>
</g>
<!-- 5 -->
<g id="node6" class="node"><title>5</title>
<path fill="#bfe6cf" stroke="black" d="M2220.5,-223.5C2220.5,-223.5 1952.5,-223.5 1952.5,-223.5 1946.5,-223.5 1940.5,-217.5 1940.5,-211.5 1940.5,-211.5 1940.5,-182.5 1940.5,-182.5 1940.5,-176.5 1946.5,-170.5 1952.5,-170.5 1952.5,-170.5 2220.5,-170.5 2220.5,-170.5 2226.5,-170.5 2232.5,-176.5 2232.5,-182.5 2232.5,-182.5 2232.5,-211.5 2232.5,-211.5 2232.5,-217.5 2226.5,-223.5 2220.5,-223.5"/>
<text text-anchor="middle" x="2086.5" y="-208.3" font-family="Times,serif" font-size="14.00">decode block 0</text>
<text text-anchor="middle" x="2086.5" y="-193.3" font-family="Times,serif" font-size="14.00">log gamma1: &#45;0.032250 &#160;&#160;log gamma2: &#45;0.416831</text>
<text text-anchor="middle" x="2086.5" y="-178.3" font-family="Times,serif" font-size="14.00">n kernels: 8</text>
</g>
<!-- 2&#45;&gt;5 -->
<g id="edge5" class="edge"><title>2&#45;&gt;5</title>
<path fill="none" stroke="black" d="M1446.3,-275.167C1583.36,-258.646 1789.2,-233.835 1930.25,-216.834"/>
<polygon fill="black" stroke="black" points="1930.78,-220.295 1940.29,-215.623 1929.95,-213.345 1930.78,-220.295"/>
</g>
<!-- 6 -->
<g id="node7" class="node"><title>6</title>
<path fill="#d3e4ff" stroke="black" d="M275,-127C275,-127 12,-127 12,-127 6,-127 0,-121 0,-115 0,-115 0,-86 0,-86 0,-80 6,-74 12,-74 12,-74 275,-74 275,-74 281,-74 287,-80 287,-86 287,-86 287,-115 287,-115 287,-121 281,-127 275,-127"/>
<text text-anchor="middle" x="143.5" y="-111.8" font-family="Times,serif" font-size="14.00">comp 0</text>
<text text-anchor="middle" x="143.5" y="-96.8" font-family="Times,serif" font-size="14.00">log gamma1: &#45;0.002206 &#160;&#160;log gamma2: 0.418383</text>
<text text-anchor="middle" x="143.5" y="-81.8" font-family="Times,serif" font-size="14.00">n kernels: 1 &#160;&#160;pooling type: &#45;1</text>
</g>
<!-- 3&#45;&gt;6 -->
<g id="edge6" class="edge"><title>3&#45;&gt;6</title>
<path fill="none" stroke="black" d="M589.671,-186.506C519.655,-173.167 389.334,-148.337 287.543,-128.944"/>
<polygon fill="black" stroke="black" points="287.951,-125.459 277.473,-127.025 286.641,-132.335 287.951,-125.459"/>
</g>
<!-- 7 -->
<g id="node8" class="node"><title>7</title>
<path fill="#bfcfe6" stroke="black" d="M580,-127C580,-127 317,-127 317,-127 311,-127 305,-121 305,-115 305,-115 305,-86 305,-86 305,-80 311,-74 317,-74 317,-74 580,-74 580,-74 586,-74 592,-80 592,-86 592,-86 592,-115 592,-115 592,-121 586,-127 580,-127"/>
<text text-anchor="middle" x="448.5" y="-111.8" font-family="Times,serif" font-size="14.00">comp 1</text>
<text text-anchor="middle" x="448.5" y="-96.8" font-family="Times,serif" font-size="14.00">log gamma1: &#45;0.168825 &#160;&#160;log gamma2: 0.345444</text>
<text text-anchor="middle" x="448.5" y="-81.8" font-family="Times,serif" font-size="14.00">n kernels: &#45;2 &#160;&#160;pooling type: 1</text>
</g>
<!-- 3&#45;&gt;7 -->
<g id="edge7" class="edge"><title>3&#45;&gt;7</title>
<path fill="none" stroke="black" d="M602.673,-177.779C576.345,-164.753 540.303,-146.921 509.687,-131.773"/>
<polygon fill="black" stroke="black" points="510.891,-128.464 500.376,-127.167 507.787,-134.738 510.891,-128.464"/>
</g>
<!-- 8 -->
<g id="node9" class="node"><title>8</title>
<path fill="#abb9ce" stroke="black" d="M656.5,-118.5C656.5,-118.5 622.5,-118.5 622.5,-118.5 616.5,-118.5 610.5,-112.5 610.5,-106.5 610.5,-106.5 610.5,-94.5 610.5,-94.5 610.5,-88.5 616.5,-82.5 622.5,-82.5 622.5,-82.5 656.5,-82.5 656.5,-82.5 662.5,-82.5 668.5,-88.5 668.5,-94.5 668.5,-94.5 668.5,-106.5 668.5,-106.5 668.5,-112.5 662.5,-118.5 656.5,-118.5"/>
<text text-anchor="middle" x="639.5" y="-96.8" font-family="Times,serif" font-size="14.00">comp 2</text>
</g>
<!-- 3&#45;&gt;8 -->
<g id="edge8" class="edge"><title>3&#45;&gt;8</title>
<path fill="none" stroke="black" d="M639.5,-177.779C639.5,-163.922 639.5,-144.625 639.5,-128.908"/>
<polygon fill="black" stroke="black" points="643,-128.709 639.5,-118.709 636,-128.709 643,-128.709"/>
</g>
<!-- 9 -->
<g id="node10" class="node"><title>9</title>
<path fill="#97a3b6" stroke="black" d="M732.5,-118.5C732.5,-118.5 698.5,-118.5 698.5,-118.5 692.5,-118.5 686.5,-112.5 686.5,-106.5 686.5,-106.5 686.5,-94.5 686.5,-94.5 686.5,-88.5 692.5,-82.5 698.5,-82.5 698.5,-82.5 732.5,-82.5 732.5,-82.5 738.5,-82.5 744.5,-88.5 744.5,-94.5 744.5,-94.5 744.5,-106.5 744.5,-106.5 744.5,-112.5 738.5,-118.5 732.5,-118.5"/>
<text text-anchor="middle" x="715.5" y="-96.8" font-family="Times,serif" font-size="14.00">identity</text>
</g>
<!-- 3&#45;&gt;9 -->
<g id="edge9" class="edge"><title>3&#45;&gt;9</title>
<path fill="none" stroke="black" d="M654.154,-177.779C665.834,-163.256 682.32,-142.757 695.26,-126.667"/>
<polygon fill="black" stroke="black" points="698.12,-128.695 701.66,-118.709 692.665,-124.308 698.12,-128.695"/>
</g>
<!-- 10 -->
<g id="node11" class="node"><title>10</title>
<path fill="#d3e4ff" stroke="black" d="M1038,-127C1038,-127 775,-127 775,-127 769,-127 763,-121 763,-115 763,-115 763,-86 763,-86 763,-80 769,-74 775,-74 775,-74 1038,-74 1038,-74 1044,-74 1050,-80 1050,-86 1050,-86 1050,-115 1050,-115 1050,-121 1044,-127 1038,-127"/>
<text text-anchor="middle" x="906.5" y="-111.8" font-family="Times,serif" font-size="14.00">comp 0</text>
<text text-anchor="middle" x="906.5" y="-96.8" font-family="Times,serif" font-size="14.00">log gamma1: 0.450355 &#160;&#160;log gamma2: &#45;0.478381</text>
<text text-anchor="middle" x="906.5" y="-81.8" font-family="Times,serif" font-size="14.00">n kernels: &#45;9</text>
</g>
<!-- 4&#45;&gt;10 -->
<g id="edge10" class="edge"><title>4&#45;&gt;10</title>
<path fill="none" stroke="black" d="M1164,-162.948C1118.07,-151.988 1067.43,-139.904 1023.3,-129.373"/>
<polygon fill="black" stroke="black" points="1023.95,-125.929 1013.41,-127.012 1022.32,-132.737 1023.95,-125.929"/>
</g>
<!-- 11 -->
<g id="node12" class="node"><title>11</title>
<path fill="#bfcfe6" stroke="black" d="M1280.5,-119.5C1280.5,-119.5 1080.5,-119.5 1080.5,-119.5 1074.5,-119.5 1068.5,-113.5 1068.5,-107.5 1068.5,-107.5 1068.5,-93.5 1068.5,-93.5 1068.5,-87.5 1074.5,-81.5 1080.5,-81.5 1080.5,-81.5 1280.5,-81.5 1280.5,-81.5 1286.5,-81.5 1292.5,-87.5 1292.5,-93.5 1292.5,-93.5 1292.5,-107.5 1292.5,-107.5 1292.5,-113.5 1286.5,-119.5 1280.5,-119.5"/>
<text text-anchor="middle" x="1180.5" y="-104.3" font-family="Times,serif" font-size="14.00">comp 1</text>
<text text-anchor="middle" x="1180.5" y="-89.3" font-family="Times,serif" font-size="14.00">log gamma1: 0.331135 &#160;&#160;n kernels: &#45;2</text>
</g>
<!-- 4&#45;&gt;11 -->
<g id="edge11" class="edge"><title>4&#45;&gt;11</title>
<path fill="none" stroke="black" d="M1259.83,-162.948C1244.09,-150.758 1226.56,-137.176 1211.99,-125.889"/>
<polygon fill="black" stroke="black" points="1213.83,-122.892 1203.78,-119.535 1209.55,-128.426 1213.83,-122.892"/>
</g>
<!-- 12 -->
<g id="node13" class="node"><title>12</title>
<path fill="#abb9ce" stroke="black" d="M1526.5,-127C1526.5,-127 1322.5,-127 1322.5,-127 1316.5,-127 1310.5,-121 1310.5,-115 1310.5,-115 1310.5,-86 1310.5,-86 1310.5,-80 1316.5,-74 1322.5,-74 1322.5,-74 1526.5,-74 1526.5,-74 1532.5,-74 1538.5,-80 1538.5,-86 1538.5,-86 1538.5,-115 1538.5,-115 1538.5,-121 1532.5,-127 1526.5,-127"/>
<text text-anchor="middle" x="1424.5" y="-111.8" font-family="Times,serif" font-size="14.00">comp 2</text>
<text text-anchor="middle" x="1424.5" y="-96.8" font-family="Times,serif" font-size="14.00">log gamma2: &#45;0.346972 &#160;&#160;n kernels: &#45;7</text>
<text text-anchor="middle" x="1424.5" y="-81.8" font-family="Times,serif" font-size="14.00">pooling type: 1</text>
</g>
<!-- 4&#45;&gt;12 -->
<g id="edge12" class="edge"><title>4&#45;&gt;12</title>
<path fill="none" stroke="black" d="M1345.17,-162.948C1357.45,-153.435 1370.83,-143.074 1383.04,-133.618"/>
<polygon fill="black" stroke="black" points="1385.51,-136.127 1391.27,-127.237 1381.22,-130.593 1385.51,-136.127"/>
</g>
<!-- 13 -->
<g id="node14" class="node"><title>13</title>
<path fill="#97a3b6" stroke="black" d="M1602.5,-118.5C1602.5,-118.5 1568.5,-118.5 1568.5,-118.5 1562.5,-118.5 1556.5,-112.5 1556.5,-106.5 1556.5,-106.5 1556.5,-94.5 1556.5,-94.5 1556.5,-88.5 1562.5,-82.5 1568.5,-82.5 1568.5,-82.5 1602.5,-82.5 1602.5,-82.5 1608.5,-82.5 1614.5,-88.5 1614.5,-94.5 1614.5,-94.5 1614.5,-106.5 1614.5,-106.5 1614.5,-112.5 1608.5,-118.5 1602.5,-118.5"/>
<text text-anchor="middle" x="1585.5" y="-96.8" font-family="Times,serif" font-size="14.00">identity</text>
</g>
<!-- 4&#45;&gt;13 -->
<g id="edge13" class="edge"><title>4&#45;&gt;13</title>
<path fill="none" stroke="black" d="M1448.71,-162.997C1481.92,-153.276 1516.51,-141.317 1547.5,-127 1549.55,-126.052 1551.62,-125.001 1553.66,-123.88"/>
<polygon fill="black" stroke="black" points="1555.67,-126.758 1562.47,-118.629 1552.08,-120.747 1555.67,-126.758"/>
</g>
<!-- 14 -->
<g id="node15" class="node"><title>14</title>
<path fill="#d3e4ff" stroke="black" d="M1912.5,-127C1912.5,-127 1644.5,-127 1644.5,-127 1638.5,-127 1632.5,-121 1632.5,-115 1632.5,-115 1632.5,-86 1632.5,-86 1632.5,-80 1638.5,-74 1644.5,-74 1644.5,-74 1912.5,-74 1912.5,-74 1918.5,-74 1924.5,-80 1924.5,-86 1924.5,-86 1924.5,-115 1924.5,-115 1924.5,-121 1918.5,-127 1912.5,-127"/>
<text text-anchor="middle" x="1778.5" y="-111.8" font-family="Times,serif" font-size="14.00">comp 0</text>
<text text-anchor="middle" x="1778.5" y="-96.8" font-family="Times,serif" font-size="14.00">log gamma1: &#45;0.363074 &#160;&#160;log gamma2: &#45;0.427717</text>
<text text-anchor="middle" x="1778.5" y="-81.8" font-family="Times,serif" font-size="14.00">pooling type: 1</text>
</g>
<!-- 5&#45;&gt;14 -->
<g id="edge14" class="edge"><title>5&#45;&gt;14</title>
<path fill="none" stroke="black" d="M2003.15,-170.427C1962.41,-157.927 1913.24,-142.842 1871.31,-129.976"/>
<polygon fill="black" stroke="black" points="1872.24,-126.599 1861.65,-127.012 1870.18,-133.291 1872.24,-126.599"/>
</g>
<!-- 15 -->
<g id="node16" class="node"><title>15</title>
<path fill="#bfcfe6" stroke="black" d="M2218,-127C2218,-127 1955,-127 1955,-127 1949,-127 1943,-121 1943,-115 1943,-115 1943,-86 1943,-86 1943,-80 1949,-74 1955,-74 1955,-74 2218,-74 2218,-74 2224,-74 2230,-80 2230,-86 2230,-86 2230,-115 2230,-115 2230,-121 2224,-127 2218,-127"/>
<text text-anchor="middle" x="2086.5" y="-111.8" font-family="Times,serif" font-size="14.00">comp 1</text>
<text text-anchor="middle" x="2086.5" y="-96.8" font-family="Times,serif" font-size="14.00">log gamma1: 0.326023 &#160;&#160;log gamma2: &#45;0.441120</text>
<text text-anchor="middle" x="2086.5" y="-81.8" font-family="Times,serif" font-size="14.00">n kernels: &#45;10</text>
</g>
<!-- 5&#45;&gt;15 -->
<g id="edge15" class="edge"><title>5&#45;&gt;15</title>
<path fill="none" stroke="black" d="M2086.5,-170.177C2086.5,-160.073 2086.5,-148.309 2086.5,-137.403"/>
<polygon fill="black" stroke="black" points="2090,-137.291 2086.5,-127.291 2083,-137.291 2090,-137.291"/>
</g>
<!-- 16 -->
<g id="node17" class="node"><title>16</title>
<path fill="#abb9ce" stroke="black" d="M2519,-127C2519,-127 2260,-127 2260,-127 2254,-127 2248,-121 2248,-115 2248,-115 2248,-86 2248,-86 2248,-80 2254,-74 2260,-74 2260,-74 2519,-74 2519,-74 2525,-74 2531,-80 2531,-86 2531,-86 2531,-115 2531,-115 2531,-121 2525,-127 2519,-127"/>
<text text-anchor="middle" x="2389.5" y="-111.8" font-family="Times,serif" font-size="14.00">comp 2</text>
<text text-anchor="middle" x="2389.5" y="-96.8" font-family="Times,serif" font-size="14.00">log gamma1: 0.442586 &#160;&#160;log gamma2: 0.262994</text>
<text text-anchor="middle" x="2389.5" y="-81.8" font-family="Times,serif" font-size="14.00">n kernels: 2 &#160;&#160;pooling type: &#45;1</text>
</g>
<!-- 5&#45;&gt;16 -->
<g id="edge16" class="edge"><title>5&#45;&gt;16</title>
<path fill="none" stroke="black" d="M2168.5,-170.427C2208.49,-157.953 2256.74,-142.906 2297.94,-130.057"/>
<polygon fill="black" stroke="black" points="2299.2,-133.33 2307.7,-127.012 2297.11,-126.648 2299.2,-133.33"/>
</g>
<!-- 17 -->
<g id="node18" class="node"><title>17</title>
<path fill="#97a3b6" stroke="black" d="M2595.5,-118.5C2595.5,-118.5 2561.5,-118.5 2561.5,-118.5 2555.5,-118.5 2549.5,-112.5 2549.5,-106.5 2549.5,-106.5 2549.5,-94.5 2549.5,-94.5 2549.5,-88.5 2555.5,-82.5 2561.5,-82.5 2561.5,-82.5 2595.5,-82.5 2595.5,-82.5 2601.5,-82.5 2607.5,-88.5 2607.5,-94.5 2607.5,-94.5 2607.5,-106.5 2607.5,-106.5 2607.5,-112.5 2601.5,-118.5 2595.5,-118.5"/>
<text text-anchor="middle" x="2578.5" y="-96.8" font-family="Times,serif" font-size="14.00">identity</text>
</g>
<!-- 5&#45;&gt;17 -->
<g id="edge17" class="edge"><title>5&#45;&gt;17</title>
<path fill="none" stroke="black" d="M2232.57,-189.574C2323.37,-181.765 2441.13,-164.601 2539.5,-127 2542.03,-126.031 2544.57,-124.879 2547.07,-123.608"/>
<polygon fill="black" stroke="black" points="2548.91,-126.588 2555.87,-118.599 2545.45,-120.505 2548.91,-126.588"/>
</g>
<!-- 18 -->
<g id="node19" class="node"><title>18</title>
<path fill="#f6d3ff" stroke="black" d="M161,-38C161,-38 126,-38 126,-38 120,-38 114,-32 114,-26 114,-26 114,-12 114,-12 114,-6 120,-0 126,-0 126,-0 161,-0 161,-0 167,-0 173,-6 173,-12 173,-12 173,-26 173,-26 173,-32 167,-38 161,-38"/>
<text text-anchor="middle" x="143.5" y="-22.8" font-family="Times,serif" font-size="14.00">forward</text>
<text text-anchor="middle" x="143.5" y="-7.8" font-family="Times,serif" font-size="14.00">input</text>
</g>
<!-- 6&#45;&gt;18 -->
<g id="edge18" class="edge"><title>6&#45;&gt;18</title>
<path fill="none" stroke="black" d="M143.5,-73.9081C143.5,-65.7377 143.5,-56.6492 143.5,-48.2981"/>
<polygon fill="black" stroke="black" points="147,-48.2389 143.5,-38.2389 140,-48.2389 147,-48.2389"/>
</g>
<!-- 19 -->
<g id="node20" class="node"><title>19</title>
<path fill="#f6d3ff" stroke="black" d="M466.5,-38C466.5,-38 430.5,-38 430.5,-38 424.5,-38 418.5,-32 418.5,-26 418.5,-26 418.5,-12 418.5,-12 418.5,-6 424.5,-0 430.5,-0 430.5,-0 466.5,-0 466.5,-0 472.5,-0 478.5,-6 478.5,-12 478.5,-12 478.5,-26 478.5,-26 478.5,-32 472.5,-38 466.5,-38"/>
<text text-anchor="middle" x="448.5" y="-22.8" font-family="Times,serif" font-size="14.00">forward</text>
<text text-anchor="middle" x="448.5" y="-7.8" font-family="Times,serif" font-size="14.00">EB0/C0</text>
</g>
<!-- 7&#45;&gt;19 -->
<g id="edge19" class="edge"><title>7&#45;&gt;19</title>
<path fill="none" stroke="black" d="M448.5,-73.9081C448.5,-65.7377 448.5,-56.6492 448.5,-48.2981"/>
<polygon fill="black" stroke="black" points="452,-48.2389 448.5,-38.2389 445,-48.2389 452,-48.2389"/>
</g>
<!-- 20 -->
<g id="node21" class="node"><title>20</title>
<path fill="#f6d3ff" stroke="black" d="M655.5,-38C655.5,-38 619.5,-38 619.5,-38 613.5,-38 607.5,-32 607.5,-26 607.5,-26 607.5,-12 607.5,-12 607.5,-6 613.5,-0 619.5,-0 619.5,-0 655.5,-0 655.5,-0 661.5,-0 667.5,-6 667.5,-12 667.5,-12 667.5,-26 667.5,-26 667.5,-32 661.5,-38 655.5,-38"/>
<text text-anchor="middle" x="637.5" y="-22.8" font-family="Times,serif" font-size="14.00">forward</text>
<text text-anchor="middle" x="637.5" y="-7.8" font-family="Times,serif" font-size="14.00">EB0/C1</text>
</g>
<!-- 8&#45;&gt;20 -->
<g id="edge20" class="edge"><title>8&#45;&gt;20</title>
<path fill="none" stroke="black" d="M639.066,-82.2497C638.817,-72.352 638.498,-59.6794 638.213,-48.3546"/>
<polygon fill="black" stroke="black" points="641.704,-47.9532 637.954,-38.0444 634.707,-48.1293 641.704,-47.9532"/>
</g>
<!-- 21 -->
<g id="node22" class="node"><title>21</title>
<path fill="#f6d3ff" stroke="black" d="M733.5,-38C733.5,-38 697.5,-38 697.5,-38 691.5,-38 685.5,-32 685.5,-26 685.5,-26 685.5,-12 685.5,-12 685.5,-6 691.5,-0 697.5,-0 697.5,-0 733.5,-0 733.5,-0 739.5,-0 745.5,-6 745.5,-12 745.5,-12 745.5,-26 745.5,-26 745.5,-32 739.5,-38 733.5,-38"/>
<text text-anchor="middle" x="715.5" y="-22.8" font-family="Times,serif" font-size="14.00">residual</text>
<text text-anchor="middle" x="715.5" y="-7.8" font-family="Times,serif" font-size="14.00">EB0/C0</text>
</g>
<!-- 9&#45;&gt;21 -->
<g id="edge21" class="edge"><title>9&#45;&gt;21</title>
<path fill="none" stroke="black" d="M715.5,-82.2497C715.5,-72.352 715.5,-59.6794 715.5,-48.3546"/>
<polygon fill="black" stroke="black" points="719,-48.0444 715.5,-38.0444 712,-48.0445 719,-48.0444"/>
</g>
<!-- 22 -->
<g id="node23" class="node"><title>22</title>
<path fill="#debfe6" stroke="black" d="M811.5,-38C811.5,-38 775.5,-38 775.5,-38 769.5,-38 763.5,-32 763.5,-26 763.5,-26 763.5,-12 763.5,-12 763.5,-6 769.5,-0 775.5,-0 775.5,-0 811.5,-0 811.5,-0 817.5,-0 823.5,-6 823.5,-12 823.5,-12 823.5,-26 823.5,-26 823.5,-32 817.5,-38 811.5,-38"/>
<text text-anchor="middle" x="793.5" y="-22.8" font-family="Times,serif" font-size="14.00">forward</text>
<text text-anchor="middle" x="793.5" y="-7.8" font-family="Times,serif" font-size="14.00">EB0/C2</text>
</g>
<!-- 9&#45;&gt;22 -->
<g id="edge22" class="edge"><title>9&#45;&gt;22</title>
<path fill="none" stroke="black" d="M732.425,-82.2497C743.037,-71.4337 756.9,-57.3038 768.736,-45.2405"/>
<polygon fill="black" stroke="black" points="771.291,-47.6338 775.796,-38.0444 766.294,-42.7314 771.291,-47.6338"/>
</g>
<!-- 23 -->
<g id="node24" class="node"><title>23</title>
<path fill="#f6d3ff" stroke="black" d="M924,-38C924,-38 889,-38 889,-38 883,-38 877,-32 877,-26 877,-26 877,-12 877,-12 877,-6 883,-0 889,-0 889,-0 924,-0 924,-0 930,-0 936,-6 936,-12 936,-12 936,-26 936,-26 936,-32 930,-38 924,-38"/>
<text text-anchor="middle" x="906.5" y="-22.8" font-family="Times,serif" font-size="14.00">forward</text>
<text text-anchor="middle" x="906.5" y="-7.8" font-family="Times,serif" font-size="14.00">EB0/I</text>
</g>
<!-- 10&#45;&gt;23 -->
<g id="edge23" class="edge"><title>10&#45;&gt;23</title>
<path fill="none" stroke="black" d="M906.5,-73.9081C906.5,-65.7377 906.5,-56.6492 906.5,-48.2981"/>
<polygon fill="black" stroke="black" points="910,-48.2389 906.5,-38.2389 903,-48.2389 910,-48.2389"/>
</g>
<!-- 24 -->
<g id="node25" class="node"><title>24</title>
<path fill="#f6d3ff" stroke="black" d="M1199.5,-38C1199.5,-38 1161.5,-38 1161.5,-38 1155.5,-38 1149.5,-32 1149.5,-26 1149.5,-26 1149.5,-12 1149.5,-12 1149.5,-6 1155.5,-0 1161.5,-0 1161.5,-0 1199.5,-0 1199.5,-0 1205.5,-0 1211.5,-6 1211.5,-12 1211.5,-12 1211.5,-26 1211.5,-26 1211.5,-32 1205.5,-38 1199.5,-38"/>
<text text-anchor="middle" x="1180.5" y="-22.8" font-family="Times,serif" font-size="14.00">forward</text>
<text text-anchor="middle" x="1180.5" y="-7.8" font-family="Times,serif" font-size="14.00">DB1/C0</text>
</g>
<!-- 11&#45;&gt;24 -->
<g id="edge24" class="edge"><title>11&#45;&gt;24</title>
<path fill="none" stroke="black" d="M1180.5,-81.4602C1180.5,-71.67 1180.5,-59.3453 1180.5,-48.3073"/>
<polygon fill="black" stroke="black" points="1184,-48.2435 1180.5,-38.2436 1177,-48.2436 1184,-48.2435"/>
</g>
<!-- 25 -->
<g id="node26" class="node"><title>25</title>
<path fill="#f6d3ff" stroke="black" d="M1443.5,-38C1443.5,-38 1405.5,-38 1405.5,-38 1399.5,-38 1393.5,-32 1393.5,-26 1393.5,-26 1393.5,-12 1393.5,-12 1393.5,-6 1399.5,-0 1405.5,-0 1405.5,-0 1443.5,-0 1443.5,-0 1449.5,-0 1455.5,-6 1455.5,-12 1455.5,-12 1455.5,-26 1455.5,-26 1455.5,-32 1449.5,-38 1443.5,-38"/>
<text text-anchor="middle" x="1424.5" y="-22.8" font-family="Times,serif" font-size="14.00">forward</text>
<text text-anchor="middle" x="1424.5" y="-7.8" font-family="Times,serif" font-size="14.00">DB1/C1</text>
</g>
<!-- 12&#45;&gt;25 -->
<g id="edge25" class="edge"><title>12&#45;&gt;25</title>
<path fill="none" stroke="black" d="M1424.5,-73.9081C1424.5,-65.7377 1424.5,-56.6492 1424.5,-48.2981"/>
<polygon fill="black" stroke="black" points="1428,-48.2389 1424.5,-38.2389 1421,-48.2389 1428,-48.2389"/>
</g>
<!-- 26 -->
<g id="node27" class="node"><title>26</title>
<path fill="#f6d3ff" stroke="black" d="M1543.5,-38C1543.5,-38 1505.5,-38 1505.5,-38 1499.5,-38 1493.5,-32 1493.5,-26 1493.5,-26 1493.5,-12 1493.5,-12 1493.5,-6 1499.5,-0 1505.5,-0 1505.5,-0 1543.5,-0 1543.5,-0 1549.5,-0 1555.5,-6 1555.5,-12 1555.5,-12 1555.5,-26 1555.5,-26 1555.5,-32 1549.5,-38 1543.5,-38"/>
<text text-anchor="middle" x="1524.5" y="-22.8" font-family="Times,serif" font-size="14.00">residual</text>
<text text-anchor="middle" x="1524.5" y="-7.8" font-family="Times,serif" font-size="14.00">DB1/C0</text>
</g>
<!-- 13&#45;&gt;26 -->
<g id="edge26" class="edge"><title>13&#45;&gt;26</title>
<path fill="none" stroke="black" d="M1572.26,-82.2497C1564.2,-71.7398 1553.73,-58.101 1544.66,-46.2695"/>
<polygon fill="black" stroke="black" points="1547.21,-43.8475 1538.35,-38.0444 1541.66,-48.1087 1547.21,-43.8475"/>
</g>
<!-- 27 -->
<g id="node28" class="node"><title>27</title>
<path fill="#debfe6" stroke="black" d="M1623.5,-38C1623.5,-38 1585.5,-38 1585.5,-38 1579.5,-38 1573.5,-32 1573.5,-26 1573.5,-26 1573.5,-12 1573.5,-12 1573.5,-6 1579.5,-0 1585.5,-0 1585.5,-0 1623.5,-0 1623.5,-0 1629.5,-0 1635.5,-6 1635.5,-12 1635.5,-12 1635.5,-26 1635.5,-26 1635.5,-32 1629.5,-38 1623.5,-38"/>
<text text-anchor="middle" x="1604.5" y="-22.8" font-family="Times,serif" font-size="14.00">forward</text>
<text text-anchor="middle" x="1604.5" y="-7.8" font-family="Times,serif" font-size="14.00">DB1/C2</text>
</g>
<!-- 13&#45;&gt;27 -->
<g id="edge27" class="edge"><title>13&#45;&gt;27</title>
<path fill="none" stroke="black" d="M1589.62,-82.2497C1592.01,-72.25 1595.08,-59.4178 1597.81,-48.0048"/>
<polygon fill="black" stroke="black" points="1601.27,-48.5841 1600.19,-38.0444 1594.46,-46.9569 1601.27,-48.5841"/>
</g>
<!-- 28 -->
<g id="node29" class="node"><title>28</title>
<path fill="#f6d3ff" stroke="black" d="M1758,-38C1758,-38 1723,-38 1723,-38 1717,-38 1711,-32 1711,-26 1711,-26 1711,-12 1711,-12 1711,-6 1717,-0 1723,-0 1723,-0 1758,-0 1758,-0 1764,-0 1770,-6 1770,-12 1770,-12 1770,-26 1770,-26 1770,-32 1764,-38 1758,-38"/>
<text text-anchor="middle" x="1740.5" y="-22.8" font-family="Times,serif" font-size="14.00">forward</text>
<text text-anchor="middle" x="1740.5" y="-7.8" font-family="Times,serif" font-size="14.00">DB1/I</text>
</g>
<!-- 14&#45;&gt;28 -->
<g id="edge28" class="edge"><title>14&#45;&gt;28</title>
<path fill="none" stroke="black" d="M1766.27,-73.9081C1762.23,-65.4653 1757.73,-56.0423 1753.63,-47.4655"/>
<polygon fill="black" stroke="black" points="1756.69,-45.7518 1749.22,-38.2389 1750.37,-48.7706 1756.69,-45.7518"/>
</g>
<!-- 29 -->
<g id="node30" class="node"><title>29</title>
<path fill="#debfe6" stroke="black" d="M1830.5,-38C1830.5,-38 1800.5,-38 1800.5,-38 1794.5,-38 1788.5,-32 1788.5,-26 1788.5,-26 1788.5,-12 1788.5,-12 1788.5,-6 1794.5,-0 1800.5,-0 1800.5,-0 1830.5,-0 1830.5,-0 1836.5,-0 1842.5,-6 1842.5,-12 1842.5,-12 1842.5,-26 1842.5,-26 1842.5,-32 1836.5,-38 1830.5,-38"/>
<text text-anchor="middle" x="1815.5" y="-22.8" font-family="Times,serif" font-size="14.00">merge</text>
<text text-anchor="middle" x="1815.5" y="-7.8" font-family="Times,serif" font-size="14.00">EB0/I</text>
</g>
<!-- 14&#45;&gt;29 -->
<g id="edge29" class="edge"><title>14&#45;&gt;29</title>
<path fill="none" stroke="black" d="M1790.41,-73.9081C1794.34,-65.4653 1798.73,-56.0423 1802.72,-47.4655"/>
<polygon fill="black" stroke="black" points="1805.97,-48.782 1807.01,-38.2389 1799.62,-45.8283 1805.97,-48.782"/>
</g>
<!-- 30 -->
<g id="node31" class="node"><title>30</title>
<path fill="#f6d3ff" stroke="black" d="M2105.5,-38C2105.5,-38 2067.5,-38 2067.5,-38 2061.5,-38 2055.5,-32 2055.5,-26 2055.5,-26 2055.5,-12 2055.5,-12 2055.5,-6 2061.5,-0 2067.5,-0 2067.5,-0 2105.5,-0 2105.5,-0 2111.5,-0 2117.5,-6 2117.5,-12 2117.5,-12 2117.5,-26 2117.5,-26 2117.5,-32 2111.5,-38 2105.5,-38"/>
<text text-anchor="middle" x="2086.5" y="-22.8" font-family="Times,serif" font-size="14.00">forward</text>
<text text-anchor="middle" x="2086.5" y="-7.8" font-family="Times,serif" font-size="14.00">DB0/C0</text>
</g>
<!-- 15&#45;&gt;30 -->
<g id="edge30" class="edge"><title>15&#45;&gt;30</title>
<path fill="none" stroke="black" d="M2086.5,-73.9081C2086.5,-65.7377 2086.5,-56.6492 2086.5,-48.2981"/>
<polygon fill="black" stroke="black" points="2090,-48.2389 2086.5,-38.2389 2083,-48.2389 2090,-48.2389"/>
</g>
<!-- 31 -->
<g id="node32" class="node"><title>31</title>
<path fill="#f6d3ff" stroke="black" d="M2408.5,-38C2408.5,-38 2370.5,-38 2370.5,-38 2364.5,-38 2358.5,-32 2358.5,-26 2358.5,-26 2358.5,-12 2358.5,-12 2358.5,-6 2364.5,-0 2370.5,-0 2370.5,-0 2408.5,-0 2408.5,-0 2414.5,-0 2420.5,-6 2420.5,-12 2420.5,-12 2420.5,-26 2420.5,-26 2420.5,-32 2414.5,-38 2408.5,-38"/>
<text text-anchor="middle" x="2389.5" y="-22.8" font-family="Times,serif" font-size="14.00">forward</text>
<text text-anchor="middle" x="2389.5" y="-7.8" font-family="Times,serif" font-size="14.00">DB0/C1</text>
</g>
<!-- 16&#45;&gt;31 -->
<g id="edge31" class="edge"><title>16&#45;&gt;31</title>
<path fill="none" stroke="black" d="M2389.5,-73.9081C2389.5,-65.7377 2389.5,-56.6492 2389.5,-48.2981"/>
<polygon fill="black" stroke="black" points="2393,-48.2389 2389.5,-38.2389 2386,-48.2389 2393,-48.2389"/>
</g>
<!-- 32 -->
<g id="node33" class="node"><title>32</title>
<path fill="#f6d3ff" stroke="black" d="M2557.5,-38C2557.5,-38 2519.5,-38 2519.5,-38 2513.5,-38 2507.5,-32 2507.5,-26 2507.5,-26 2507.5,-12 2507.5,-12 2507.5,-6 2513.5,-0 2519.5,-0 2519.5,-0 2557.5,-0 2557.5,-0 2563.5,-0 2569.5,-6 2569.5,-12 2569.5,-12 2569.5,-26 2569.5,-26 2569.5,-32 2563.5,-38 2557.5,-38"/>
<text text-anchor="middle" x="2538.5" y="-22.8" font-family="Times,serif" font-size="14.00">residual</text>
<text text-anchor="middle" x="2538.5" y="-7.8" font-family="Times,serif" font-size="14.00">DB0/C0</text>
</g>
<!-- 17&#45;&gt;32 -->
<g id="edge32" class="edge"><title>17&#45;&gt;32</title>
<path fill="none" stroke="black" d="M2569.82,-82.2497C2564.69,-72.0459 2558.07,-58.8928 2552.24,-47.3078"/>
<polygon fill="black" stroke="black" points="2555.2,-45.4043 2547.58,-38.0444 2548.95,-48.5506 2555.2,-45.4043"/>
</g>
<!-- 33 -->
<g id="node34" class="node"><title>33</title>
<path fill="#debfe6" stroke="black" d="M2637.5,-38C2637.5,-38 2599.5,-38 2599.5,-38 2593.5,-38 2587.5,-32 2587.5,-26 2587.5,-26 2587.5,-12 2587.5,-12 2587.5,-6 2593.5,-0 2599.5,-0 2599.5,-0 2637.5,-0 2637.5,-0 2643.5,-0 2649.5,-6 2649.5,-12 2649.5,-12 2649.5,-26 2649.5,-26 2649.5,-32 2643.5,-38 2637.5,-38"/>
<text text-anchor="middle" x="2618.5" y="-22.8" font-family="Times,serif" font-size="14.00">forward</text>
<text text-anchor="middle" x="2618.5" y="-7.8" font-family="Times,serif" font-size="14.00">DB0/C2</text>
</g>
<!-- 17&#45;&gt;33 -->
<g id="edge33" class="edge"><title>17&#45;&gt;33</title>
<path fill="none" stroke="black" d="M2587.18,-82.2497C2592.31,-72.0459 2598.93,-58.8928 2604.76,-47.3078"/>
<polygon fill="black" stroke="black" points="2608.05,-48.5506 2609.42,-38.0444 2601.8,-45.4043 2608.05,-48.5506"/>
</g>
</g>
</svg>
