<?xml version="1.0" encoding="UTF-8" standalone="no"?>
<!DOCTYPE svg PUBLIC "-//W3C//DTD SVG 1.1//EN"
 "http://www.w3.org/Graphics/SVG/1.1/DTD/svg11.dtd">
<!-- Generated by graphviz version 2.38.0 (20140413.2041)
 -->
<!-- Title: %3 Pages: 1 -->
<svg width="4189pt" height="432pt"
 viewBox="0.00 0.00 4189.00 432.00" xmlns="http://www.w3.org/2000/svg" xmlns:xlink="http://www.w3.org/1999/xlink">
<g id="graph0" class="graph" transform="scale(1 1) rotate(0) translate(4 428)">
<title>%3</title>
<polygon fill="none" stroke="none" points="-4,4 -4,-428 4185,-428 4185,4 -4,4"/>
<!-- 0 -->
<g id="node1" class="node"><title>0</title>
<path fill="#ffd3d3" stroke="black" d="M1596.5,-424C1596.5,-424 1316.5,-424 1316.5,-424 1310.5,-424 1304.5,-418 1304.5,-412 1304.5,-412 1304.5,-383 1304.5,-383 1304.5,-377 1310.5,-371 1316.5,-371 1316.5,-371 1596.5,-371 1596.5,-371 1602.5,-371 1608.5,-377 1608.5,-383 1608.5,-383 1608.5,-412 1608.5,-412 1608.5,-418 1602.5,-424 1596.5,-424"/>
<text text-anchor="middle" x="1456.5" y="-408.8" font-family="Times,serif" font-size="14.00">net</text>
<text text-anchor="middle" x="1456.5" y="-393.8" font-family="Times,serif" font-size="14.00">log lambda1: &#45;11.000000 &#160;&#160;log lambda2: &#45;11.000000</text>
<text text-anchor="middle" x="1456.5" y="-378.8" font-family="Times,serif" font-size="14.00">n kernels: 125 &#160;&#160;pooling type: 0</text>
</g>
<!-- 1 -->
<g id="node2" class="node"><title>1</title>
<path fill="#f6ffd3" stroke="black" d="M644,-335C644,-335 583,-335 583,-335 577,-335 571,-329 571,-323 571,-323 571,-309 571,-309 571,-303 577,-297 583,-297 583,-297 644,-297 644,-297 650,-297 656,-303 656,-309 656,-309 656,-323 656,-323 656,-329 650,-335 644,-335"/>
<text text-anchor="middle" x="613.5" y="-319.8" font-family="Times,serif" font-size="14.00">encoder</text>
<text text-anchor="middle" x="613.5" y="-304.8" font-family="Times,serif" font-size="14.00">n kernels: &#45;6</text>
</g>
<!-- 0&#45;&gt;1 -->
<g id="edge1" class="edge"><title>0&#45;&gt;1</title>
<path fill="none" stroke="black" d="M1304.33,-382.149C1112.2,-364.031 791.616,-333.797 666.134,-321.964"/>
<polygon fill="black" stroke="black" points="666.306,-318.464 656.021,-321.01 665.648,-325.434 666.306,-318.464"/>
</g>
<!-- 2 -->
<g id="node3" class="node"><title>2</title>
<path fill="#f6ffd3" stroke="black" d="M2326,-335C2326,-335 2063,-335 2063,-335 2057,-335 2051,-329 2051,-323 2051,-323 2051,-309 2051,-309 2051,-303 2057,-297 2063,-297 2063,-297 2326,-297 2326,-297 2332,-297 2338,-303 2338,-309 2338,-309 2338,-323 2338,-323 2338,-329 2332,-335 2326,-335"/>
<text text-anchor="middle" x="2194.5" y="-319.8" font-family="Times,serif" font-size="14.00">decoder</text>
<text text-anchor="middle" x="2194.5" y="-304.8" font-family="Times,serif" font-size="14.00">log gamma1: &#45;1.411802 &#160;&#160;log gamma2: 1.002226</text>
</g>
<!-- 0&#45;&gt;2 -->
<g id="edge2" class="edge"><title>0&#45;&gt;2</title>
<path fill="none" stroke="black" d="M1608.52,-380.124C1734.85,-366.515 1913.8,-347.238 2040.64,-333.574"/>
<polygon fill="black" stroke="black" points="2041.26,-337.028 2050.83,-332.477 2040.51,-330.068 2041.26,-337.028"/>
</g>
<!-- 3 -->
<g id="node4" class="node"><title>3</title>
<path fill="#d3ffe4" stroke="black" d="M277.5,-253.5C277.5,-253.5 157.5,-253.5 157.5,-253.5 151.5,-253.5 145.5,-247.5 145.5,-241.5 145.5,-241.5 145.5,-227.5 145.5,-227.5 145.5,-221.5 151.5,-215.5 157.5,-215.5 157.5,-215.5 277.5,-215.5 277.5,-215.5 283.5,-215.5 289.5,-221.5 289.5,-227.5 289.5,-227.5 289.5,-241.5 289.5,-241.5 289.5,-247.5 283.5,-253.5 277.5,-253.5"/>
<text text-anchor="middle" x="217.5" y="-238.3" font-family="Times,serif" font-size="14.00">encode block 0</text>
<text text-anchor="middle" x="217.5" y="-223.3" font-family="Times,serif" font-size="14.00">log gamma2: 1.553096</text>
</g>
<!-- 1&#45;&gt;3 -->
<g id="edge3" class="edge"><title>1&#45;&gt;3</title>
<path fill="none" stroke="black" d="M570.745,-306.417C506.076,-293.434 382.195,-268.564 299.688,-252"/>
<polygon fill="black" stroke="black" points="300.331,-248.559 289.838,-250.022 298.953,-255.422 300.331,-248.559"/>
</g>
<!-- 4 -->
<g id="node5" class="node"><title>4</title>
<path fill="#bfe6cf" stroke="black" d="M575.5,-253.5C575.5,-253.5 423.5,-253.5 423.5,-253.5 417.5,-253.5 411.5,-247.5 411.5,-241.5 411.5,-241.5 411.5,-227.5 411.5,-227.5 411.5,-221.5 417.5,-215.5 423.5,-215.5 423.5,-215.5 575.5,-215.5 575.5,-215.5 581.5,-215.5 587.5,-221.5 587.5,-227.5 587.5,-227.5 587.5,-241.5 587.5,-241.5 587.5,-247.5 581.5,-253.5 575.5,-253.5"/>
<text text-anchor="middle" x="499.5" y="-238.3" font-family="Times,serif" font-size="14.00">encode block 1</text>
<text text-anchor="middle" x="499.5" y="-223.3" font-family="Times,serif" font-size="14.00">n kernels: &#45;6 &#160;&#160;spatial scale: 1</text>
</g>
<!-- 1&#45;&gt;4 -->
<g id="edge4" class="edge"><title>1&#45;&gt;4</title>
<path fill="none" stroke="black" d="M587.632,-296.96C571.856,-285.959 551.491,-271.757 534.312,-259.777"/>
<polygon fill="black" stroke="black" points="535.865,-256.593 525.661,-253.744 531.861,-262.335 535.865,-256.593"/>
</g>
<!-- 5 -->
<g id="node6" class="node"><title>5</title>
<path fill="#abceb9" stroke="black" d="M809,-253.5C809,-253.5 648,-253.5 648,-253.5 642,-253.5 636,-247.5 636,-241.5 636,-241.5 636,-227.5 636,-227.5 636,-221.5 642,-215.5 648,-215.5 648,-215.5 809,-215.5 809,-215.5 815,-215.5 821,-221.5 821,-227.5 821,-227.5 821,-241.5 821,-241.5 821,-247.5 815,-253.5 809,-253.5"/>
<text text-anchor="middle" x="728.5" y="-238.3" font-family="Times,serif" font-size="14.00">encode block 2</text>
<text text-anchor="middle" x="728.5" y="-223.3" font-family="Times,serif" font-size="14.00">n kernels: 357 &#160;&#160;spatial scale: 2</text>
</g>
<!-- 1&#45;&gt;5 -->
<g id="edge5" class="edge"><title>1&#45;&gt;5</title>
<path fill="none" stroke="black" d="M639.595,-296.96C655.655,-285.858 676.43,-271.496 693.858,-259.448"/>
<polygon fill="black" stroke="black" points="695.874,-262.309 702.11,-253.744 691.894,-256.551 695.874,-262.309"/>
</g>
<!-- 6 -->
<g id="node7" class="node"><title>6</title>
<path fill="#d3ffe4" stroke="black" d="M1542,-261C1542,-261 1347,-261 1347,-261 1341,-261 1335,-255 1335,-249 1335,-249 1335,-220 1335,-220 1335,-214 1341,-208 1347,-208 1347,-208 1542,-208 1542,-208 1548,-208 1554,-214 1554,-220 1554,-220 1554,-249 1554,-249 1554,-255 1548,-261 1542,-261"/>
<text text-anchor="middle" x="1444.5" y="-245.8" font-family="Times,serif" font-size="14.00">decode block 3</text>
<text text-anchor="middle" x="1444.5" y="-230.8" font-family="Times,serif" font-size="14.00">log gamma1: 1.380617 &#160;&#160;n kernels: 3</text>
<text text-anchor="middle" x="1444.5" y="-215.8" font-family="Times,serif" font-size="14.00">spatial scale: 3</text>
</g>
<!-- 2&#45;&gt;6 -->
<g id="edge6" class="edge"><title>2&#45;&gt;6</title>
<path fill="none" stroke="black" d="M2050.78,-299.766C1909.63,-284.804 1696.75,-262.239 1564.43,-248.212"/>
<polygon fill="black" stroke="black" points="1564.57,-244.707 1554.25,-247.134 1563.83,-251.668 1564.57,-244.707"/>
</g>
<!-- 7 -->
<g id="node8" class="node"><title>7</title>
<path fill="#bfe6cf" stroke="black" d="M2275,-253.5C2275,-253.5 2114,-253.5 2114,-253.5 2108,-253.5 2102,-247.5 2102,-241.5 2102,-241.5 2102,-227.5 2102,-227.5 2102,-221.5 2108,-215.5 2114,-215.5 2114,-215.5 2275,-215.5 2275,-215.5 2281,-215.5 2287,-221.5 2287,-227.5 2287,-227.5 2287,-241.5 2287,-241.5 2287,-247.5 2281,-253.5 2275,-253.5"/>
<text text-anchor="middle" x="2194.5" y="-238.3" font-family="Times,serif" font-size="14.00">decode block 2</text>
<text text-anchor="middle" x="2194.5" y="-223.3" font-family="Times,serif" font-size="14.00">n kernels: 375 &#160;&#160;spatial scale: 2</text>
</g>
<!-- 2&#45;&gt;7 -->
<g id="edge7" class="edge"><title>2&#45;&gt;7</title>
<path fill="none" stroke="black" d="M2194.5,-296.96C2194.5,-287.17 2194.5,-274.845 2194.5,-263.807"/>
<polygon fill="black" stroke="black" points="2198,-263.744 2194.5,-253.744 2191,-263.744 2198,-263.744"/>
</g>
<!-- 8 -->
<g id="node9" class="node"><title>8</title>
<path fill="#abceb9" stroke="black" d="M2635,-261C2635,-261 2422,-261 2422,-261 2416,-261 2410,-255 2410,-249 2410,-249 2410,-220 2410,-220 2410,-214 2416,-208 2422,-208 2422,-208 2635,-208 2635,-208 2641,-208 2647,-214 2647,-220 2647,-220 2647,-249 2647,-249 2647,-255 2641,-261 2635,-261"/>
<text text-anchor="middle" x="2528.5" y="-245.8" font-family="Times,serif" font-size="14.00">decode block 1</text>
<text text-anchor="middle" x="2528.5" y="-230.8" font-family="Times,serif" font-size="14.00">log gamma1: &#45;0.448859 &#160;&#160;n kernels: 125</text>
<text text-anchor="middle" x="2528.5" y="-215.8" font-family="Times,serif" font-size="14.00">spatial scale: 1</text>
</g>
<!-- 2&#45;&gt;8 -->
<g id="edge8" class="edge"><title>2&#45;&gt;8</title>
<path fill="none" stroke="black" d="M2270.29,-296.96C2311.98,-287.038 2364.6,-274.511 2411.45,-263.36"/>
<polygon fill="black" stroke="black" points="2412.44,-266.723 2421.36,-261.003 2410.82,-259.914 2412.44,-266.723"/>
</g>
<!-- 9 -->
<g id="node10" class="node"><title>9</title>
<path fill="#97b6a3" stroke="black" d="M3557,-252.5C3557,-252.5 3482,-252.5 3482,-252.5 3476,-252.5 3470,-246.5 3470,-240.5 3470,-240.5 3470,-228.5 3470,-228.5 3470,-222.5 3476,-216.5 3482,-216.5 3482,-216.5 3557,-216.5 3557,-216.5 3563,-216.5 3569,-222.5 3569,-228.5 3569,-228.5 3569,-240.5 3569,-240.5 3569,-246.5 3563,-252.5 3557,-252.5"/>
<text text-anchor="middle" x="3519.5" y="-230.8" font-family="Times,serif" font-size="14.00">decode block 0</text>
</g>
<!-- 2&#45;&gt;9 -->
<g id="edge9" class="edge"><title>2&#45;&gt;9</title>
<path fill="none" stroke="black" d="M2338.19,-306.379C2625.81,-289.121 3261.67,-250.97 3459.53,-239.098"/>
<polygon fill="black" stroke="black" points="3459.96,-242.579 3469.73,-238.486 3459.54,-235.592 3459.96,-242.579"/>
</g>
<!-- 10 -->
<g id="node11" class="node"><title>10</title>
<path fill="#d3e4ff" stroke="black" d="M205.5,-171C205.5,-171 171.5,-171 171.5,-171 165.5,-171 159.5,-165 159.5,-159 159.5,-159 159.5,-147 159.5,-147 159.5,-141 165.5,-135 171.5,-135 171.5,-135 205.5,-135 205.5,-135 211.5,-135 217.5,-141 217.5,-147 217.5,-147 217.5,-159 217.5,-159 217.5,-165 211.5,-171 205.5,-171"/>
<text text-anchor="middle" x="188.5" y="-149.3" font-family="Times,serif" font-size="14.00">comp 0</text>
</g>
<!-- 3&#45;&gt;10 -->
<g id="edge10" class="edge"><title>3&#45;&gt;10</title>
<path fill="none" stroke="black" d="M210.919,-215.46C207.171,-205.185 202.404,-192.117 198.231,-180.676"/>
<polygon fill="black" stroke="black" points="201.471,-179.346 194.756,-171.151 194.895,-181.745 201.471,-179.346"/>
</g>
<!-- 11 -->
<g id="node12" class="node"><title>11</title>
<path fill="#d3e4ff" stroke="black" d="M508.5,-171C508.5,-171 474.5,-171 474.5,-171 468.5,-171 462.5,-165 462.5,-159 462.5,-159 462.5,-147 462.5,-147 462.5,-141 468.5,-135 474.5,-135 474.5,-135 508.5,-135 508.5,-135 514.5,-135 520.5,-141 520.5,-147 520.5,-147 520.5,-159 520.5,-159 520.5,-165 514.5,-171 508.5,-171"/>
<text text-anchor="middle" x="491.5" y="-149.3" font-family="Times,serif" font-size="14.00">comp 0</text>
</g>
<!-- 4&#45;&gt;11 -->
<g id="edge11" class="edge"><title>4&#45;&gt;11</title>
<path fill="none" stroke="black" d="M497.685,-215.46C496.672,-205.392 495.389,-192.644 494.254,-181.371"/>
<polygon fill="black" stroke="black" points="497.71,-180.75 493.226,-171.151 490.745,-181.451 497.71,-180.75"/>
</g>
<!-- 12 -->
<g id="node13" class="node"><title>12</title>
<path fill="#d3e4ff" stroke="black" d="M753.5,-171C753.5,-171 719.5,-171 719.5,-171 713.5,-171 707.5,-165 707.5,-159 707.5,-159 707.5,-147 707.5,-147 707.5,-141 713.5,-135 719.5,-135 719.5,-135 753.5,-135 753.5,-135 759.5,-135 765.5,-141 765.5,-147 765.5,-147 765.5,-159 765.5,-159 765.5,-165 759.5,-171 753.5,-171"/>
<text text-anchor="middle" x="736.5" y="-149.3" font-family="Times,serif" font-size="14.00">comp 0</text>
</g>
<!-- 5&#45;&gt;12 -->
<g id="edge12" class="edge"><title>5&#45;&gt;12</title>
<path fill="none" stroke="black" d="M730.315,-215.46C731.328,-205.392 732.611,-192.644 733.746,-181.371"/>
<polygon fill="black" stroke="black" points="737.255,-181.451 734.774,-171.151 730.29,-180.75 737.255,-181.451"/>
</g>
<!-- 13 -->
<g id="node14" class="node"><title>13</title>
<path fill="#d3e4ff" stroke="black" d="M1270.5,-172C1270.5,-172 1202.5,-172 1202.5,-172 1196.5,-172 1190.5,-166 1190.5,-160 1190.5,-160 1190.5,-146 1190.5,-146 1190.5,-140 1196.5,-134 1202.5,-134 1202.5,-134 1270.5,-134 1270.5,-134 1276.5,-134 1282.5,-140 1282.5,-146 1282.5,-146 1282.5,-160 1282.5,-160 1282.5,-166 1276.5,-172 1270.5,-172"/>
<text text-anchor="middle" x="1236.5" y="-156.8" font-family="Times,serif" font-size="14.00">comp 0</text>
<text text-anchor="middle" x="1236.5" y="-141.8" font-family="Times,serif" font-size="14.00">n kernels: &#45;11</text>
</g>
<!-- 6&#45;&gt;13 -->
<g id="edge13" class="edge"><title>6&#45;&gt;13</title>
<path fill="none" stroke="black" d="M1377.54,-207.908C1349.94,-197.357 1318.32,-185.274 1292.04,-175.226"/>
<polygon fill="black" stroke="black" points="1293.2,-171.924 1282.61,-171.623 1290.7,-178.462 1293.2,-171.924"/>
</g>
<!-- 14 -->
<g id="node15" class="node"><title>14</title>
<path fill="#bfcfe6" stroke="black" d="M1461.5,-171C1461.5,-171 1427.5,-171 1427.5,-171 1421.5,-171 1415.5,-165 1415.5,-159 1415.5,-159 1415.5,-147 1415.5,-147 1415.5,-141 1421.5,-135 1427.5,-135 1427.5,-135 1461.5,-135 1461.5,-135 1467.5,-135 1473.5,-141 1473.5,-147 1473.5,-147 1473.5,-159 1473.5,-159 1473.5,-165 1467.5,-171 1461.5,-171"/>
<text text-anchor="middle" x="1444.5" y="-149.3" font-family="Times,serif" font-size="14.00">comp 1</text>
</g>
<!-- 6&#45;&gt;14 -->
<g id="edge14" class="edge"><title>6&#45;&gt;14</title>
<path fill="none" stroke="black" d="M1444.5,-207.908C1444.5,-199.482 1444.5,-190.08 1444.5,-181.517"/>
<polygon fill="black" stroke="black" points="1448,-181.256 1444.5,-171.256 1441,-181.256 1448,-181.256"/>
</g>
<!-- 15 -->
<g id="node16" class="node"><title>15</title>
<path fill="#d3e4ff" stroke="black" d="M2127.5,-172C2127.5,-172 2053.5,-172 2053.5,-172 2047.5,-172 2041.5,-166 2041.5,-160 2041.5,-160 2041.5,-146 2041.5,-146 2041.5,-140 2047.5,-134 2053.5,-134 2053.5,-134 2127.5,-134 2127.5,-134 2133.5,-134 2139.5,-140 2139.5,-146 2139.5,-146 2139.5,-160 2139.5,-160 2139.5,-166 2133.5,-172 2127.5,-172"/>
<text text-anchor="middle" x="2090.5" y="-156.8" font-family="Times,serif" font-size="14.00">comp 0</text>
<text text-anchor="middle" x="2090.5" y="-141.8" font-family="Times,serif" font-size="14.00">n kernels: &#45;372</text>
</g>
<!-- 7&#45;&gt;15 -->
<g id="edge15" class="edge"><title>7&#45;&gt;15</title>
<path fill="none" stroke="black" d="M2170.9,-215.46C2156.64,-204.56 2138.27,-190.517 2122.69,-178.607"/>
<polygon fill="black" stroke="black" points="2124.44,-175.536 2114.37,-172.244 2120.18,-181.097 2124.44,-175.536"/>
</g>
<!-- 16 -->
<g id="node17" class="node"><title>16</title>
<path fill="#bfcfe6" stroke="black" d="M2316.5,-171C2316.5,-171 2282.5,-171 2282.5,-171 2276.5,-171 2270.5,-165 2270.5,-159 2270.5,-159 2270.5,-147 2270.5,-147 2270.5,-141 2276.5,-135 2282.5,-135 2282.5,-135 2316.5,-135 2316.5,-135 2322.5,-135 2328.5,-141 2328.5,-147 2328.5,-147 2328.5,-159 2328.5,-159 2328.5,-165 2322.5,-171 2316.5,-171"/>
<text text-anchor="middle" x="2299.5" y="-149.3" font-family="Times,serif" font-size="14.00">comp 1</text>
</g>
<!-- 7&#45;&gt;16 -->
<g id="edge16" class="edge"><title>7&#45;&gt;16</title>
<path fill="none" stroke="black" d="M2218.33,-215.46C2233.27,-204.147 2252.68,-189.449 2268.78,-177.263"/>
<polygon fill="black" stroke="black" points="2270.99,-179.978 2276.85,-171.151 2266.76,-174.397 2270.99,-179.978"/>
</g>
<!-- 17 -->
<g id="node18" class="node"><title>17</title>
<path fill="#d3e4ff" stroke="black" d="M2753.5,-171C2753.5,-171 2719.5,-171 2719.5,-171 2713.5,-171 2707.5,-165 2707.5,-159 2707.5,-159 2707.5,-147 2707.5,-147 2707.5,-141 2713.5,-135 2719.5,-135 2719.5,-135 2753.5,-135 2753.5,-135 2759.5,-135 2765.5,-141 2765.5,-147 2765.5,-147 2765.5,-159 2765.5,-159 2765.5,-165 2759.5,-171 2753.5,-171"/>
<text text-anchor="middle" x="2736.5" y="-149.3" font-family="Times,serif" font-size="14.00">comp 0</text>
</g>
<!-- 8&#45;&gt;17 -->
<g id="edge17" class="edge"><title>8&#45;&gt;17</title>
<path fill="none" stroke="black" d="M2595.46,-207.908C2629.24,-194.996 2669.02,-179.791 2697.71,-168.827"/>
<polygon fill="black" stroke="black" points="2699.27,-171.976 2707.36,-165.137 2696.77,-165.437 2699.27,-171.976"/>
</g>
<!-- 18 -->
<g id="node19" class="node"><title>18</title>
<path fill="#d3e4ff" stroke="black" d="M3547.5,-172C3547.5,-172 3491.5,-172 3491.5,-172 3485.5,-172 3479.5,-166 3479.5,-160 3479.5,-160 3479.5,-146 3479.5,-146 3479.5,-140 3485.5,-134 3491.5,-134 3491.5,-134 3547.5,-134 3547.5,-134 3553.5,-134 3559.5,-140 3559.5,-146 3559.5,-146 3559.5,-160 3559.5,-160 3559.5,-166 3553.5,-172 3547.5,-172"/>
<text text-anchor="middle" x="3519.5" y="-156.8" font-family="Times,serif" font-size="14.00">comp 0</text>
<text text-anchor="middle" x="3519.5" y="-141.8" font-family="Times,serif" font-size="14.00">n kernels: 3</text>
</g>
<!-- 9&#45;&gt;18 -->
<g id="edge18" class="edge"><title>9&#45;&gt;18</title>
<path fill="none" stroke="black" d="M3519.5,-216.25C3519.5,-206.352 3519.5,-193.679 3519.5,-182.355"/>
<polygon fill="black" stroke="black" points="3523,-182.044 3519.5,-172.044 3516,-182.044 3523,-182.044"/>
</g>
<!-- 19 -->
<g id="node20" class="node"><title>19</title>
<path fill="#bfcfe6" stroke="black" d="M3919.5,-172C3919.5,-172 3863.5,-172 3863.5,-172 3857.5,-172 3851.5,-166 3851.5,-160 3851.5,-160 3851.5,-146 3851.5,-146 3851.5,-140 3857.5,-134 3863.5,-134 3863.5,-134 3919.5,-134 3919.5,-134 3925.5,-134 3931.5,-140 3931.5,-146 3931.5,-146 3931.5,-160 3931.5,-160 3931.5,-166 3925.5,-172 3919.5,-172"/>
<text text-anchor="middle" x="3891.5" y="-156.8" font-family="Times,serif" font-size="14.00">comp 1</text>
<text text-anchor="middle" x="3891.5" y="-141.8" font-family="Times,serif" font-size="14.00">n kernels: 3</text>
</g>
<!-- 9&#45;&gt;19 -->
<g id="edge19" class="edge"><title>9&#45;&gt;19</title>
<path fill="none" stroke="black" d="M3569.28,-222.861C3640.33,-207.678 3770.07,-179.951 3841.33,-164.722"/>
<polygon fill="black" stroke="black" points="3842.36,-168.082 3851.4,-162.569 3840.89,-161.236 3842.36,-168.082"/>
</g>
<!-- 20 -->
<g id="node21" class="node"><title>20</title>
<path fill="#f6d3ff" stroke="black" d="M293,-98C293,-98 12,-98 12,-98 6,-98 0,-92 0,-86 0,-86 0,-12 0,-12 0,-6 6,-0 12,-0 12,-0 293,-0 293,-0 299,-0 305,-6 305,-12 305,-12 305,-86 305,-86 305,-92 299,-98 293,-98"/>
<text text-anchor="middle" x="152.5" y="-82.8" font-family="Times,serif" font-size="14.00">forward</text>
<text text-anchor="middle" x="152.5" y="-67.8" font-family="Times,serif" font-size="14.00">input</text>
<text text-anchor="middle" x="152.5" y="-52.8" font-family="Times,serif" font-size="14.00">dilation rate: 1 &#160;&#160;k width: 3</text>
<text text-anchor="middle" x="152.5" y="-37.8" font-family="Times,serif" font-size="14.00">log gamma1: &#45;11.000000 &#160;&#160;log gamma2: &#45;11.000000</text>
<text text-anchor="middle" x="152.5" y="-22.8" font-family="Times,serif" font-size="14.00">log lambda1: &#45;11.000000 &#160;&#160;log lambda2: &#45;11.000000</text>
<text text-anchor="middle" x="152.5" y="-7.8" font-family="Times,serif" font-size="14.00">n kernels: 64</text>
</g>
<!-- 10&#45;&gt;20 -->
<g id="edge20" class="edge"><title>10&#45;&gt;20</title>
<path fill="none" stroke="black" d="M182.393,-134.697C179.687,-127.03 176.332,-117.524 172.858,-107.68"/>
<polygon fill="black" stroke="black" points="176.136,-106.453 169.508,-98.1881 169.535,-108.783 176.136,-106.453"/>
</g>
<!-- 21 -->
<g id="node22" class="node"><title>21</title>
<path fill="#f6d3ff" stroke="black" d="M616,-98C616,-98 335,-98 335,-98 329,-98 323,-92 323,-86 323,-86 323,-12 323,-12 323,-6 329,-0 335,-0 335,-0 616,-0 616,-0 622,-0 628,-6 628,-12 628,-12 628,-86 628,-86 628,-92 622,-98 616,-98"/>
<text text-anchor="middle" x="475.5" y="-82.8" font-family="Times,serif" font-size="14.00">forward</text>
<text text-anchor="middle" x="475.5" y="-67.8" font-family="Times,serif" font-size="14.00">EB0/C0</text>
<text text-anchor="middle" x="475.5" y="-52.8" font-family="Times,serif" font-size="14.00">dilation rate: 1 &#160;&#160;k width: 3</text>
<text text-anchor="middle" x="475.5" y="-37.8" font-family="Times,serif" font-size="14.00">log gamma1: &#45;11.000000 &#160;&#160;log gamma2: &#45;11.000000</text>
<text text-anchor="middle" x="475.5" y="-22.8" font-family="Times,serif" font-size="14.00">log lambda1: &#45;11.000000 &#160;&#160;log lambda2: &#45;11.000000</text>
<text text-anchor="middle" x="475.5" y="-7.8" font-family="Times,serif" font-size="14.00">n kernels: 64</text>
</g>
<!-- 11&#45;&gt;21 -->
<g id="edge21" class="edge"><title>11&#45;&gt;21</title>
<path fill="none" stroke="black" d="M488.786,-134.697C487.608,-127.188 486.153,-117.915 484.643,-108.289"/>
<polygon fill="black" stroke="black" points="488.066,-107.525 483.059,-98.1881 481.151,-108.61 488.066,-107.525"/>
</g>
<!-- 22 -->
<g id="node23" class="node"><title>22</title>
<path fill="#f6d3ff" stroke="black" d="M939,-98C939,-98 658,-98 658,-98 652,-98 646,-92 646,-86 646,-86 646,-12 646,-12 646,-6 652,-0 658,-0 658,-0 939,-0 939,-0 945,-0 951,-6 951,-12 951,-12 951,-86 951,-86 951,-92 945,-98 939,-98"/>
<text text-anchor="middle" x="798.5" y="-82.8" font-family="Times,serif" font-size="14.00">forward</text>
<text text-anchor="middle" x="798.5" y="-67.8" font-family="Times,serif" font-size="14.00">EB1/C0</text>
<text text-anchor="middle" x="798.5" y="-52.8" font-family="Times,serif" font-size="14.00">dilation rate: 1 &#160;&#160;k width: 3</text>
<text text-anchor="middle" x="798.5" y="-37.8" font-family="Times,serif" font-size="14.00">log gamma1: &#45;11.000000 &#160;&#160;log gamma2: &#45;11.000000</text>
<text text-anchor="middle" x="798.5" y="-22.8" font-family="Times,serif" font-size="14.00">log lambda1: &#45;11.000000 &#160;&#160;log lambda2: &#45;11.000000</text>
<text text-anchor="middle" x="798.5" y="-7.8" font-family="Times,serif" font-size="14.00">n kernels: 64</text>
</g>
<!-- 12&#45;&gt;22 -->
<g id="edge22" class="edge"><title>12&#45;&gt;22</title>
<path fill="none" stroke="black" d="M747.017,-134.697C751.822,-126.793 757.814,-116.934 763.995,-106.766"/>
<polygon fill="black" stroke="black" points="767.006,-108.551 769.209,-98.1881 761.024,-104.915 767.006,-108.551"/>
</g>
<!-- 23 -->
<g id="node24" class="node"><title>23</title>
<path fill="#f6d3ff" stroke="black" d="M1262,-98C1262,-98 981,-98 981,-98 975,-98 969,-92 969,-86 969,-86 969,-12 969,-12 969,-6 975,-0 981,-0 981,-0 1262,-0 1262,-0 1268,-0 1274,-6 1274,-12 1274,-12 1274,-86 1274,-86 1274,-92 1268,-98 1262,-98"/>
<text text-anchor="middle" x="1121.5" y="-82.8" font-family="Times,serif" font-size="14.00">forward</text>
<text text-anchor="middle" x="1121.5" y="-67.8" font-family="Times,serif" font-size="14.00">EB2/C0</text>
<text text-anchor="middle" x="1121.5" y="-52.8" font-family="Times,serif" font-size="14.00">dilation rate: 1 &#160;&#160;k width: 3</text>
<text text-anchor="middle" x="1121.5" y="-37.8" font-family="Times,serif" font-size="14.00">log gamma1: &#45;11.000000 &#160;&#160;log gamma2: &#45;11.000000</text>
<text text-anchor="middle" x="1121.5" y="-22.8" font-family="Times,serif" font-size="14.00">log lambda1: &#45;11.000000 &#160;&#160;log lambda2: &#45;11.000000</text>
<text text-anchor="middle" x="1121.5" y="-7.8" font-family="Times,serif" font-size="14.00">n kernels: 64</text>
</g>
<!-- 13&#45;&gt;23 -->
<g id="edge23" class="edge"><title>13&#45;&gt;23</title>
<path fill="none" stroke="black" d="M1216.21,-133.999C1206.9,-125.742 1195.31,-115.463 1183.46,-104.958"/>
<polygon fill="black" stroke="black" points="1185.47,-102.058 1175.66,-98.0412 1180.82,-107.295 1185.47,-102.058"/>
</g>
<!-- 24 -->
<g id="node25" class="node"><title>24</title>
<path fill="#f6d3ff" stroke="black" d="M1585,-98C1585,-98 1304,-98 1304,-98 1298,-98 1292,-92 1292,-86 1292,-86 1292,-12 1292,-12 1292,-6 1298,-0 1304,-0 1304,-0 1585,-0 1585,-0 1591,-0 1597,-6 1597,-12 1597,-12 1597,-86 1597,-86 1597,-92 1591,-98 1585,-98"/>
<text text-anchor="middle" x="1444.5" y="-82.8" font-family="Times,serif" font-size="14.00">forward</text>
<text text-anchor="middle" x="1444.5" y="-67.8" font-family="Times,serif" font-size="14.00">DB3/C0</text>
<text text-anchor="middle" x="1444.5" y="-52.8" font-family="Times,serif" font-size="14.00">dilation rate: 1 &#160;&#160;k width: 3</text>
<text text-anchor="middle" x="1444.5" y="-37.8" font-family="Times,serif" font-size="14.00">log gamma1: &#45;11.000000 &#160;&#160;log gamma2: &#45;11.000000</text>
<text text-anchor="middle" x="1444.5" y="-22.8" font-family="Times,serif" font-size="14.00">log lambda1: &#45;11.000000 &#160;&#160;log lambda2: &#45;11.000000</text>
<text text-anchor="middle" x="1444.5" y="-7.8" font-family="Times,serif" font-size="14.00">n kernels: 64</text>
</g>
<!-- 14&#45;&gt;24 -->
<g id="edge24" class="edge"><title>14&#45;&gt;24</title>
<path fill="none" stroke="black" d="M1444.5,-134.697C1444.5,-127.188 1444.5,-117.915 1444.5,-108.289"/>
<polygon fill="black" stroke="black" points="1448,-108.188 1444.5,-98.1881 1441,-108.188 1448,-108.188"/>
</g>
<!-- 25 -->
<g id="node26" class="node"><title>25</title>
<path fill="#f6d3ff" stroke="black" d="M1908,-98C1908,-98 1627,-98 1627,-98 1621,-98 1615,-92 1615,-86 1615,-86 1615,-12 1615,-12 1615,-6 1621,-0 1627,-0 1627,-0 1908,-0 1908,-0 1914,-0 1920,-6 1920,-12 1920,-12 1920,-86 1920,-86 1920,-92 1914,-98 1908,-98"/>
<text text-anchor="middle" x="1767.5" y="-82.8" font-family="Times,serif" font-size="14.00">forward</text>
<text text-anchor="middle" x="1767.5" y="-67.8" font-family="Times,serif" font-size="14.00">DB3/C1</text>
<text text-anchor="middle" x="1767.5" y="-52.8" font-family="Times,serif" font-size="14.00">dilation rate: 1 &#160;&#160;k width: 3</text>
<text text-anchor="middle" x="1767.5" y="-37.8" font-family="Times,serif" font-size="14.00">log gamma1: &#45;11.000000 &#160;&#160;log gamma2: &#45;11.000000</text>
<text text-anchor="middle" x="1767.5" y="-22.8" font-family="Times,serif" font-size="14.00">log lambda1: &#45;11.000000 &#160;&#160;log lambda2: &#45;11.000000</text>
<text text-anchor="middle" x="1767.5" y="-7.8" font-family="Times,serif" font-size="14.00">n kernels: 64</text>
</g>
<!-- 15&#45;&gt;25 -->
<g id="edge25" class="edge"><title>15&#45;&gt;25</title>
<path fill="none" stroke="black" d="M2041.44,-136.508C2011.07,-126.917 1970.17,-114 1929.24,-101.077"/>
<polygon fill="black" stroke="black" points="1930.27,-97.732 1919.68,-98.0581 1928.17,-104.407 1930.27,-97.732"/>
</g>
<!-- 26 -->
<g id="node27" class="node"><title>26</title>
<path fill="#debfe6" stroke="black" d="M2231,-98C2231,-98 1950,-98 1950,-98 1944,-98 1938,-92 1938,-86 1938,-86 1938,-12 1938,-12 1938,-6 1944,-0 1950,-0 1950,-0 2231,-0 2231,-0 2237,-0 2243,-6 2243,-12 2243,-12 2243,-86 2243,-86 2243,-92 2237,-98 2231,-98"/>
<text text-anchor="middle" x="2090.5" y="-82.8" font-family="Times,serif" font-size="14.00">merge</text>
<text text-anchor="middle" x="2090.5" y="-67.8" font-family="Times,serif" font-size="14.00">EB2/C0</text>
<text text-anchor="middle" x="2090.5" y="-52.8" font-family="Times,serif" font-size="14.00">dilation rate: 1 &#160;&#160;k width: 3</text>
<text text-anchor="middle" x="2090.5" y="-37.8" font-family="Times,serif" font-size="14.00">log gamma1: &#45;11.000000 &#160;&#160;log gamma2: &#45;11.000000</text>
<text text-anchor="middle" x="2090.5" y="-22.8" font-family="Times,serif" font-size="14.00">log lambda1: &#45;11.000000 &#160;&#160;log lambda2: &#45;11.000000</text>
<text text-anchor="middle" x="2090.5" y="-7.8" font-family="Times,serif" font-size="14.00">n kernels: 64</text>
</g>
<!-- 15&#45;&gt;26 -->
<g id="edge26" class="edge"><title>15&#45;&gt;26</title>
<path fill="none" stroke="black" d="M2090.5,-133.764C2090.5,-126.442 2090.5,-117.558 2090.5,-108.346"/>
<polygon fill="black" stroke="black" points="2094,-108.281 2090.5,-98.2813 2087,-108.281 2094,-108.281"/>
</g>
<!-- 27 -->
<g id="node28" class="node"><title>27</title>
<path fill="#f6d3ff" stroke="black" d="M2554,-98C2554,-98 2273,-98 2273,-98 2267,-98 2261,-92 2261,-86 2261,-86 2261,-12 2261,-12 2261,-6 2267,-0 2273,-0 2273,-0 2554,-0 2554,-0 2560,-0 2566,-6 2566,-12 2566,-12 2566,-86 2566,-86 2566,-92 2560,-98 2554,-98"/>
<text text-anchor="middle" x="2413.5" y="-82.8" font-family="Times,serif" font-size="14.00">forward</text>
<text text-anchor="middle" x="2413.5" y="-67.8" font-family="Times,serif" font-size="14.00">DB2/C0</text>
<text text-anchor="middle" x="2413.5" y="-52.8" font-family="Times,serif" font-size="14.00">dilation rate: 1 &#160;&#160;k width: 3</text>
<text text-anchor="middle" x="2413.5" y="-37.8" font-family="Times,serif" font-size="14.00">log gamma1: &#45;11.000000 &#160;&#160;log gamma2: &#45;11.000000</text>
<text text-anchor="middle" x="2413.5" y="-22.8" font-family="Times,serif" font-size="14.00">log lambda1: &#45;11.000000 &#160;&#160;log lambda2: &#45;11.000000</text>
<text text-anchor="middle" x="2413.5" y="-7.8" font-family="Times,serif" font-size="14.00">n kernels: 64</text>
</g>
<!-- 16&#45;&gt;27 -->
<g id="edge27" class="edge"><title>16&#45;&gt;27</title>
<path fill="none" stroke="black" d="M2318.58,-134.927C2327.92,-126.568 2339.76,-115.982 2351.87,-105.145"/>
<polygon fill="black" stroke="black" points="2354.31,-107.659 2359.43,-98.3828 2349.64,-102.442 2354.31,-107.659"/>
</g>
<!-- 28 -->
<g id="node29" class="node"><title>28</title>
<path fill="#f6d3ff" stroke="black" d="M2877,-98C2877,-98 2596,-98 2596,-98 2590,-98 2584,-92 2584,-86 2584,-86 2584,-12 2584,-12 2584,-6 2590,-0 2596,-0 2596,-0 2877,-0 2877,-0 2883,-0 2889,-6 2889,-12 2889,-12 2889,-86 2889,-86 2889,-92 2883,-98 2877,-98"/>
<text text-anchor="middle" x="2736.5" y="-82.8" font-family="Times,serif" font-size="14.00">forward</text>
<text text-anchor="middle" x="2736.5" y="-67.8" font-family="Times,serif" font-size="14.00">DB2/C1</text>
<text text-anchor="middle" x="2736.5" y="-52.8" font-family="Times,serif" font-size="14.00">dilation rate: 1 &#160;&#160;k width: 3</text>
<text text-anchor="middle" x="2736.5" y="-37.8" font-family="Times,serif" font-size="14.00">log gamma1: &#45;11.000000 &#160;&#160;log gamma2: &#45;11.000000</text>
<text text-anchor="middle" x="2736.5" y="-22.8" font-family="Times,serif" font-size="14.00">log lambda1: &#45;11.000000 &#160;&#160;log lambda2: &#45;11.000000</text>
<text text-anchor="middle" x="2736.5" y="-7.8" font-family="Times,serif" font-size="14.00">n kernels: 64</text>
</g>
<!-- 17&#45;&gt;28 -->
<g id="edge28" class="edge"><title>17&#45;&gt;28</title>
<path fill="none" stroke="black" d="M2736.5,-134.697C2736.5,-127.188 2736.5,-117.915 2736.5,-108.289"/>
<polygon fill="black" stroke="black" points="2740,-108.188 2736.5,-98.1881 2733,-108.188 2740,-108.188"/>
</g>
<!-- 29 -->
<g id="node30" class="node"><title>29</title>
<path fill="#debfe6" stroke="black" d="M3200,-98C3200,-98 2919,-98 2919,-98 2913,-98 2907,-92 2907,-86 2907,-86 2907,-12 2907,-12 2907,-6 2913,-0 2919,-0 2919,-0 3200,-0 3200,-0 3206,-0 3212,-6 3212,-12 3212,-12 3212,-86 3212,-86 3212,-92 3206,-98 3200,-98"/>
<text text-anchor="middle" x="3059.5" y="-82.8" font-family="Times,serif" font-size="14.00">merge</text>
<text text-anchor="middle" x="3059.5" y="-67.8" font-family="Times,serif" font-size="14.00">EB1/C0</text>
<text text-anchor="middle" x="3059.5" y="-52.8" font-family="Times,serif" font-size="14.00">dilation rate: 1 &#160;&#160;k width: 3</text>
<text text-anchor="middle" x="3059.5" y="-37.8" font-family="Times,serif" font-size="14.00">log gamma1: &#45;11.000000 &#160;&#160;log gamma2: &#45;11.000000</text>
<text text-anchor="middle" x="3059.5" y="-22.8" font-family="Times,serif" font-size="14.00">log lambda1: &#45;11.000000 &#160;&#160;log lambda2: &#45;11.000000</text>
<text text-anchor="middle" x="3059.5" y="-7.8" font-family="Times,serif" font-size="14.00">n kernels: 64</text>
</g>
<!-- 17&#45;&gt;29 -->
<g id="edge29" class="edge"><title>17&#45;&gt;29</title>
<path fill="none" stroke="black" d="M2765.73,-142.768C2796.37,-133.094 2847.01,-117.101 2897.7,-101.096"/>
<polygon fill="black" stroke="black" points="2899.01,-104.352 2907.49,-98.0027 2896.9,-97.6766 2899.01,-104.352"/>
</g>
<!-- 30 -->
<g id="node31" class="node"><title>30</title>
<path fill="#f6d3ff" stroke="black" d="M3523,-98C3523,-98 3242,-98 3242,-98 3236,-98 3230,-92 3230,-86 3230,-86 3230,-12 3230,-12 3230,-6 3236,-0 3242,-0 3242,-0 3523,-0 3523,-0 3529,-0 3535,-6 3535,-12 3535,-12 3535,-86 3535,-86 3535,-92 3529,-98 3523,-98"/>
<text text-anchor="middle" x="3382.5" y="-82.8" font-family="Times,serif" font-size="14.00">forward</text>
<text text-anchor="middle" x="3382.5" y="-67.8" font-family="Times,serif" font-size="14.00">DB1/C0</text>
<text text-anchor="middle" x="3382.5" y="-52.8" font-family="Times,serif" font-size="14.00">dilation rate: 1 &#160;&#160;k width: 3</text>
<text text-anchor="middle" x="3382.5" y="-37.8" font-family="Times,serif" font-size="14.00">log gamma1: &#45;11.000000 &#160;&#160;log gamma2: &#45;11.000000</text>
<text text-anchor="middle" x="3382.5" y="-22.8" font-family="Times,serif" font-size="14.00">log lambda1: &#45;11.000000 &#160;&#160;log lambda2: &#45;11.000000</text>
<text text-anchor="middle" x="3382.5" y="-7.8" font-family="Times,serif" font-size="14.00">n kernels: 64</text>
</g>
<!-- 18&#45;&gt;30 -->
<g id="edge30" class="edge"><title>18&#45;&gt;30</title>
<path fill="none" stroke="black" d="M3495.32,-133.999C3483.92,-125.506 3469.63,-114.874 3455.11,-104.057"/>
<polygon fill="black" stroke="black" points="3457.14,-101.206 3447.03,-98.0412 3452.96,-106.82 3457.14,-101.206"/>
</g>
<!-- 31 -->
<g id="node32" class="node"><title>31</title>
<path fill="#debfe6" stroke="black" d="M3846,-98C3846,-98 3565,-98 3565,-98 3559,-98 3553,-92 3553,-86 3553,-86 3553,-12 3553,-12 3553,-6 3559,-0 3565,-0 3565,-0 3846,-0 3846,-0 3852,-0 3858,-6 3858,-12 3858,-12 3858,-86 3858,-86 3858,-92 3852,-98 3846,-98"/>
<text text-anchor="middle" x="3705.5" y="-82.8" font-family="Times,serif" font-size="14.00">merge</text>
<text text-anchor="middle" x="3705.5" y="-67.8" font-family="Times,serif" font-size="14.00">EB0/C0</text>
<text text-anchor="middle" x="3705.5" y="-52.8" font-family="Times,serif" font-size="14.00">dilation rate: 1 &#160;&#160;k width: 3</text>
<text text-anchor="middle" x="3705.5" y="-37.8" font-family="Times,serif" font-size="14.00">log gamma1: &#45;11.000000 &#160;&#160;log gamma2: &#45;11.000000</text>
<text text-anchor="middle" x="3705.5" y="-22.8" font-family="Times,serif" font-size="14.00">log lambda1: &#45;11.000000 &#160;&#160;log lambda2: &#45;11.000000</text>
<text text-anchor="middle" x="3705.5" y="-7.8" font-family="Times,serif" font-size="14.00">n kernels: 64</text>
</g>
<!-- 18&#45;&gt;31 -->
<g id="edge31" class="edge"><title>18&#45;&gt;31</title>
<path fill="none" stroke="black" d="M3552.32,-133.999C3568.39,-125.192 3588.64,-114.083 3609.12,-102.854"/>
<polygon fill="black" stroke="black" points="3610.81,-105.918 3617.9,-98.0412 3607.44,-99.7807 3610.81,-105.918"/>
</g>
<!-- 32 -->
<g id="node33" class="node"><title>32</title>
<path fill="#f6d3ff" stroke="black" d="M4169,-98C4169,-98 3888,-98 3888,-98 3882,-98 3876,-92 3876,-86 3876,-86 3876,-12 3876,-12 3876,-6 3882,-0 3888,-0 3888,-0 4169,-0 4169,-0 4175,-0 4181,-6 4181,-12 4181,-12 4181,-86 4181,-86 4181,-92 4175,-98 4169,-98"/>
<text text-anchor="middle" x="4028.5" y="-82.8" font-family="Times,serif" font-size="14.00">forward</text>
<text text-anchor="middle" x="4028.5" y="-67.8" font-family="Times,serif" font-size="14.00">DB0/C0</text>
<text text-anchor="middle" x="4028.5" y="-52.8" font-family="Times,serif" font-size="14.00">dilation rate: 1 &#160;&#160;k width: 3</text>
<text text-anchor="middle" x="4028.5" y="-37.8" font-family="Times,serif" font-size="14.00">log gamma1: &#45;11.000000 &#160;&#160;log gamma2: &#45;11.000000</text>
<text text-anchor="middle" x="4028.5" y="-22.8" font-family="Times,serif" font-size="14.00">log lambda1: &#45;11.000000 &#160;&#160;log lambda2: &#45;11.000000</text>
<text text-anchor="middle" x="4028.5" y="-7.8" font-family="Times,serif" font-size="14.00">n kernels: 64</text>
</g>
<!-- 19&#45;&gt;32 -->
<g id="edge32" class="edge"><title>19&#45;&gt;32</title>
<path fill="none" stroke="black" d="M3915.68,-133.999C3927.08,-125.506 3941.37,-114.874 3955.89,-104.057"/>
<polygon fill="black" stroke="black" points="3958.04,-106.82 3963.97,-98.0412 3953.86,-101.206 3958.04,-106.82"/>
</g>
</g>
</svg>
