<?xml version="1.0" encoding="UTF-8" standalone="no"?>
<!DOCTYPE svg PUBLIC "-//W3C//DTD SVG 1.1//EN"
 "http://www.w3.org/Graphics/SVG/1.1/DTD/svg11.dtd">
<!-- Generated by graphviz version 2.38.0 (20140413.2041)
 -->
<!-- Title: %3 Pages: 1 -->
<svg width="5158pt" height="447pt"
 viewBox="0.00 0.00 5158.00 447.00" xmlns="http://www.w3.org/2000/svg" xmlns:xlink="http://www.w3.org/1999/xlink">
<g id="graph0" class="graph" transform="scale(1 1) rotate(0) translate(4 443)">
<title>%3</title>
<polygon fill="none" stroke="none" points="-4,4 -4,-443 5154,-443 5154,4 -4,4"/>
<!-- 0 -->
<g id="node1" class="node"><title>0</title>
<path fill="#ffd3d3" stroke="black" d="M2044.5,-439C2044.5,-439 1764.5,-439 1764.5,-439 1758.5,-439 1752.5,-433 1752.5,-427 1752.5,-427 1752.5,-398 1752.5,-398 1752.5,-392 1758.5,-386 1764.5,-386 1764.5,-386 2044.5,-386 2044.5,-386 2050.5,-386 2056.5,-392 2056.5,-398 2056.5,-398 2056.5,-427 2056.5,-427 2056.5,-433 2050.5,-439 2044.5,-439"/>
<text text-anchor="middle" x="1904.5" y="-423.8" font-family="Times,serif" font-size="14.00">net</text>
<text text-anchor="middle" x="1904.5" y="-408.8" font-family="Times,serif" font-size="14.00">log lambda1: &#45;11.000000 &#160;&#160;log lambda2: &#45;11.000000</text>
<text text-anchor="middle" x="1904.5" y="-393.8" font-family="Times,serif" font-size="14.00">n kernels: 77 &#160;&#160;pooling type: 0</text>
</g>
<!-- 1 -->
<g id="node2" class="node"><title>1</title>
<path fill="#f6ffd3" stroke="black" d="M896,-350C896,-350 701,-350 701,-350 695,-350 689,-344 689,-338 689,-338 689,-324 689,-324 689,-318 695,-312 701,-312 701,-312 896,-312 896,-312 902,-312 908,-318 908,-324 908,-324 908,-338 908,-338 908,-344 902,-350 896,-350"/>
<text text-anchor="middle" x="798.5" y="-334.8" font-family="Times,serif" font-size="14.00">encoder</text>
<text text-anchor="middle" x="798.5" y="-319.8" font-family="Times,serif" font-size="14.00">log gamma1: 0.473248 &#160;&#160;n kernels: 4</text>
</g>
<!-- 0&#45;&gt;1 -->
<g id="edge1" class="edge"><title>0&#45;&gt;1</title>
<path fill="none" stroke="black" d="M1752.46,-400.571C1530.03,-384.583 1120.45,-355.142 918.094,-340.597"/>
<polygon fill="black" stroke="black" points="918.25,-337.099 908.025,-339.873 917.748,-344.081 918.25,-337.099"/>
</g>
<!-- 2 -->
<g id="node3" class="node"><title>2</title>
<path fill="#f6ffd3" stroke="black" d="M3189,-350C3189,-350 2930,-350 2930,-350 2924,-350 2918,-344 2918,-338 2918,-338 2918,-324 2918,-324 2918,-318 2924,-312 2930,-312 2930,-312 3189,-312 3189,-312 3195,-312 3201,-318 3201,-324 3201,-324 3201,-338 3201,-338 3201,-344 3195,-350 3189,-350"/>
<text text-anchor="middle" x="3059.5" y="-334.8" font-family="Times,serif" font-size="14.00">decoder</text>
<text text-anchor="middle" x="3059.5" y="-319.8" font-family="Times,serif" font-size="14.00">log gamma1: 1.468340 &#160;&#160;log gamma2: 0.574629</text>
</g>
<!-- 0&#45;&gt;2 -->
<g id="edge2" class="edge"><title>0&#45;&gt;2</title>
<path fill="none" stroke="black" d="M2056.68,-401.025C2278.09,-385.785 2686.66,-357.663 2907.8,-342.442"/>
<polygon fill="black" stroke="black" points="2908.12,-345.928 2917.86,-341.749 2907.64,-338.944 2908.12,-345.928"/>
</g>
<!-- 3 -->
<g id="node4" class="node"><title>3</title>
<path fill="#d3ffe4" stroke="black" d="M276,-268.5C276,-268.5 81,-268.5 81,-268.5 75,-268.5 69,-262.5 69,-256.5 69,-256.5 69,-242.5 69,-242.5 69,-236.5 75,-230.5 81,-230.5 81,-230.5 276,-230.5 276,-230.5 282,-230.5 288,-236.5 288,-242.5 288,-242.5 288,-256.5 288,-256.5 288,-262.5 282,-268.5 276,-268.5"/>
<text text-anchor="middle" x="178.5" y="-253.3" font-family="Times,serif" font-size="14.00">encode block 0</text>
<text text-anchor="middle" x="178.5" y="-238.3" font-family="Times,serif" font-size="14.00">log gamma1: 1.631980 &#160;&#160;n kernels: 8</text>
</g>
<!-- 1&#45;&gt;3 -->
<g id="edge3" class="edge"><title>1&#45;&gt;3</title>
<path fill="none" stroke="black" d="M688.773,-317.877C597.163,-307.519 463.187,-291.822 346.5,-276 330.885,-273.883 314.473,-271.539 298.275,-269.155"/>
<polygon fill="black" stroke="black" points="298.632,-265.67 288.227,-267.668 297.606,-272.594 298.632,-265.67"/>
</g>
<!-- 4 -->
<g id="node5" class="node"><title>4</title>
<path fill="#bfe6cf" stroke="black" d="M631,-276C631,-276 368,-276 368,-276 362,-276 356,-270 356,-264 356,-264 356,-235 356,-235 356,-229 362,-223 368,-223 368,-223 631,-223 631,-223 637,-223 643,-229 643,-235 643,-235 643,-264 643,-264 643,-270 637,-276 631,-276"/>
<text text-anchor="middle" x="499.5" y="-260.8" font-family="Times,serif" font-size="14.00">encode block 1</text>
<text text-anchor="middle" x="499.5" y="-245.8" font-family="Times,serif" font-size="14.00">log gamma1: &#45;0.565766 &#160;&#160;log gamma2: 1.676248</text>
<text text-anchor="middle" x="499.5" y="-230.8" font-family="Times,serif" font-size="14.00">n kernels: 81 &#160;&#160;spatial scale: 1</text>
</g>
<!-- 1&#45;&gt;4 -->
<g id="edge4" class="edge"><title>1&#45;&gt;4</title>
<path fill="none" stroke="black" d="M730.652,-311.96C693.645,-302.121 647.01,-289.721 605.336,-278.64"/>
<polygon fill="black" stroke="black" points="605.98,-275.19 595.416,-276.003 604.181,-281.955 605.98,-275.19"/>
</g>
<!-- 5 -->
<g id="node6" class="node"><title>5</title>
<path fill="#abceb9" stroke="black" d="M899.5,-276C899.5,-276 697.5,-276 697.5,-276 691.5,-276 685.5,-270 685.5,-264 685.5,-264 685.5,-235 685.5,-235 685.5,-229 691.5,-223 697.5,-223 697.5,-223 899.5,-223 899.5,-223 905.5,-223 911.5,-229 911.5,-235 911.5,-235 911.5,-264 911.5,-264 911.5,-270 905.5,-276 899.5,-276"/>
<text text-anchor="middle" x="798.5" y="-260.8" font-family="Times,serif" font-size="14.00">encode block 2</text>
<text text-anchor="middle" x="798.5" y="-245.8" font-family="Times,serif" font-size="14.00">log gamma1: 1.687161 &#160;&#160;n kernels: 12</text>
<text text-anchor="middle" x="798.5" y="-230.8" font-family="Times,serif" font-size="14.00">spatial scale: 2</text>
</g>
<!-- 1&#45;&gt;5 -->
<g id="edge5" class="edge"><title>1&#45;&gt;5</title>
<path fill="none" stroke="black" d="M798.5,-311.96C798.5,-304.321 798.5,-295.139 798.5,-286.229"/>
<polygon fill="black" stroke="black" points="802,-286.003 798.5,-276.003 795,-286.003 802,-286.003"/>
</g>
<!-- 6 -->
<g id="node7" class="node"><title>6</title>
<path fill="#97b6a3" stroke="black" d="M1174,-276C1174,-276 961,-276 961,-276 955,-276 949,-270 949,-264 949,-264 949,-235 949,-235 949,-229 955,-223 961,-223 961,-223 1174,-223 1174,-223 1180,-223 1186,-229 1186,-235 1186,-235 1186,-264 1186,-264 1186,-270 1180,-276 1174,-276"/>
<text text-anchor="middle" x="1067.5" y="-260.8" font-family="Times,serif" font-size="14.00">encode block 3</text>
<text text-anchor="middle" x="1067.5" y="-245.8" font-family="Times,serif" font-size="14.00">log gamma1: &#45;0.926060 &#160;&#160;n kernels: 567</text>
<text text-anchor="middle" x="1067.5" y="-230.8" font-family="Times,serif" font-size="14.00">spatial scale: 3</text>
</g>
<!-- 1&#45;&gt;6 -->
<g id="edge6" class="edge"><title>1&#45;&gt;6</title>
<path fill="none" stroke="black" d="M859.54,-311.96C892.553,-302.204 934.083,-289.93 971.333,-278.921"/>
<polygon fill="black" stroke="black" points="972.609,-282.194 981.207,-276.003 970.625,-275.481 972.609,-282.194"/>
</g>
<!-- 7 -->
<g id="node8" class="node"><title>7</title>
<path fill="#d3ffe4" stroke="black" d="M1843.5,-268.5C1843.5,-268.5 1691.5,-268.5 1691.5,-268.5 1685.5,-268.5 1679.5,-262.5 1679.5,-256.5 1679.5,-256.5 1679.5,-242.5 1679.5,-242.5 1679.5,-236.5 1685.5,-230.5 1691.5,-230.5 1691.5,-230.5 1843.5,-230.5 1843.5,-230.5 1849.5,-230.5 1855.5,-236.5 1855.5,-242.5 1855.5,-242.5 1855.5,-256.5 1855.5,-256.5 1855.5,-262.5 1849.5,-268.5 1843.5,-268.5"/>
<text text-anchor="middle" x="1767.5" y="-253.3" font-family="Times,serif" font-size="14.00">decode block 4</text>
<text text-anchor="middle" x="1767.5" y="-238.3" font-family="Times,serif" font-size="14.00">n kernels: &#45;5 &#160;&#160;spatial scale: 4</text>
</g>
<!-- 2&#45;&gt;7 -->
<g id="edge7" class="edge"><title>2&#45;&gt;7</title>
<path fill="none" stroke="black" d="M2917.85,-321.284C2653.95,-305.045 2093.27,-270.546 1866.13,-256.569"/>
<polygon fill="black" stroke="black" points="1866.1,-253.06 1855.9,-255.94 1865.67,-260.047 1866.1,-253.06"/>
</g>
<!-- 8 -->
<g id="node9" class="node"><title>8</title>
<path fill="#bfe6cf" stroke="black" d="M2986.5,-276C2986.5,-276 2782.5,-276 2782.5,-276 2776.5,-276 2770.5,-270 2770.5,-264 2770.5,-264 2770.5,-235 2770.5,-235 2770.5,-229 2776.5,-223 2782.5,-223 2782.5,-223 2986.5,-223 2986.5,-223 2992.5,-223 2998.5,-229 2998.5,-235 2998.5,-235 2998.5,-264 2998.5,-264 2998.5,-270 2992.5,-276 2986.5,-276"/>
<text text-anchor="middle" x="2884.5" y="-260.8" font-family="Times,serif" font-size="14.00">decode block 3</text>
<text text-anchor="middle" x="2884.5" y="-245.8" font-family="Times,serif" font-size="14.00">log gamma2: &#45;1.187273 &#160;&#160;n kernels: &#45;4</text>
<text text-anchor="middle" x="2884.5" y="-230.8" font-family="Times,serif" font-size="14.00">spatial scale: 3</text>
</g>
<!-- 2&#45;&gt;8 -->
<g id="edge8" class="edge"><title>2&#45;&gt;8</title>
<path fill="none" stroke="black" d="M3019.79,-311.96C2999.14,-302.577 2973.36,-290.866 2949.86,-280.191"/>
<polygon fill="black" stroke="black" points="2951.19,-276.952 2940.64,-276.003 2948.3,-283.326 2951.19,-276.952"/>
</g>
<!-- 9 -->
<g id="node10" class="node"><title>9</title>
<path fill="#abceb9" stroke="black" d="M3292,-276C3292,-276 3079,-276 3079,-276 3073,-276 3067,-270 3067,-264 3067,-264 3067,-235 3067,-235 3067,-229 3073,-223 3079,-223 3079,-223 3292,-223 3292,-223 3298,-223 3304,-229 3304,-235 3304,-235 3304,-264 3304,-264 3304,-270 3298,-276 3292,-276"/>
<text text-anchor="middle" x="3185.5" y="-260.8" font-family="Times,serif" font-size="14.00">decode block 2</text>
<text text-anchor="middle" x="3185.5" y="-245.8" font-family="Times,serif" font-size="14.00">log gamma1: &#45;1.482758 &#160;&#160;n kernels: 231</text>
<text text-anchor="middle" x="3185.5" y="-230.8" font-family="Times,serif" font-size="14.00">spatial scale: 2</text>
</g>
<!-- 2&#45;&gt;9 -->
<g id="edge9" class="edge"><title>2&#45;&gt;9</title>
<path fill="none" stroke="black" d="M3088.09,-311.96C3102.3,-302.992 3119.89,-291.898 3136.19,-281.614"/>
<polygon fill="black" stroke="black" points="3138.49,-284.299 3145.08,-276.003 3134.76,-278.379 3138.49,-284.299"/>
</g>
<!-- 10 -->
<g id="node11" class="node"><title>10</title>
<path fill="#97b6a3" stroke="black" d="M3831.5,-276C3831.5,-276 3631.5,-276 3631.5,-276 3625.5,-276 3619.5,-270 3619.5,-264 3619.5,-264 3619.5,-235 3619.5,-235 3619.5,-229 3625.5,-223 3631.5,-223 3631.5,-223 3831.5,-223 3831.5,-223 3837.5,-223 3843.5,-229 3843.5,-235 3843.5,-235 3843.5,-264 3843.5,-264 3843.5,-270 3837.5,-276 3831.5,-276"/>
<text text-anchor="middle" x="3731.5" y="-260.8" font-family="Times,serif" font-size="14.00">decode block 1</text>
<text text-anchor="middle" x="3731.5" y="-245.8" font-family="Times,serif" font-size="14.00">log gamma1: &#45;0.408451 &#160;&#160;n kernels: 5</text>
<text text-anchor="middle" x="3731.5" y="-230.8" font-family="Times,serif" font-size="14.00">spatial scale: 1</text>
</g>
<!-- 2&#45;&gt;10 -->
<g id="edge10" class="edge"><title>2&#45;&gt;10</title>
<path fill="none" stroke="black" d="M3201.19,-313.237C3322.11,-298.932 3494.19,-278.574 3609.19,-264.97"/>
<polygon fill="black" stroke="black" points="3609.92,-268.408 3619.44,-263.757 3609.1,-261.456 3609.92,-268.408"/>
</g>
<!-- 11 -->
<g id="node12" class="node"><title>11</title>
<path fill="#839e8d" stroke="black" d="M4425.5,-268.5C4425.5,-268.5 4223.5,-268.5 4223.5,-268.5 4217.5,-268.5 4211.5,-262.5 4211.5,-256.5 4211.5,-256.5 4211.5,-242.5 4211.5,-242.5 4211.5,-236.5 4217.5,-230.5 4223.5,-230.5 4223.5,-230.5 4425.5,-230.5 4425.5,-230.5 4431.5,-230.5 4437.5,-236.5 4437.5,-242.5 4437.5,-242.5 4437.5,-256.5 4437.5,-256.5 4437.5,-262.5 4431.5,-268.5 4425.5,-268.5"/>
<text text-anchor="middle" x="4324.5" y="-253.3" font-family="Times,serif" font-size="14.00">decode block 0</text>
<text text-anchor="middle" x="4324.5" y="-238.3" font-family="Times,serif" font-size="14.00">log gamma2: 1.028012 &#160;&#160;n kernels: 10</text>
</g>
<!-- 2&#45;&gt;11 -->
<g id="edge11" class="edge"><title>2&#45;&gt;11</title>
<path fill="none" stroke="black" d="M3201.23,-321.093C3451,-305.396 3965.38,-273.069 4201.32,-258.241"/>
<polygon fill="black" stroke="black" points="4201.55,-261.734 4211.31,-257.613 4201.11,-254.747 4201.55,-261.734"/>
</g>
<!-- 12 -->
<g id="node13" class="node"><title>12</title>
<path fill="#d3e4ff" stroke="black" d="M268.5,-179.5C268.5,-179.5 62.5,-179.5 62.5,-179.5 56.5,-179.5 50.5,-173.5 50.5,-167.5 50.5,-167.5 50.5,-153.5 50.5,-153.5 50.5,-147.5 56.5,-141.5 62.5,-141.5 62.5,-141.5 268.5,-141.5 268.5,-141.5 274.5,-141.5 280.5,-147.5 280.5,-153.5 280.5,-153.5 280.5,-167.5 280.5,-167.5 280.5,-173.5 274.5,-179.5 268.5,-179.5"/>
<text text-anchor="middle" x="165.5" y="-164.3" font-family="Times,serif" font-size="14.00">comp 0</text>
<text text-anchor="middle" x="165.5" y="-149.3" font-family="Times,serif" font-size="14.00">log gamma1: 0.379438 &#160;&#160;n kernels: &#45;18</text>
</g>
<!-- 3&#45;&gt;12 -->
<g id="edge12" class="edge"><title>3&#45;&gt;12</title>
<path fill="none" stroke="black" d="M175.806,-230.474C174.046,-218.692 171.71,-203.061 169.708,-189.658"/>
<polygon fill="black" stroke="black" points="173.13,-188.876 168.19,-179.503 166.207,-189.911 173.13,-188.876"/>
</g>
<!-- 13 -->
<g id="node14" class="node"><title>13</title>
<path fill="#d3e4ff" stroke="black" d="M550,-179.5C550,-179.5 425,-179.5 425,-179.5 419,-179.5 413,-173.5 413,-167.5 413,-167.5 413,-153.5 413,-153.5 413,-147.5 419,-141.5 425,-141.5 425,-141.5 550,-141.5 550,-141.5 556,-141.5 562,-147.5 562,-153.5 562,-153.5 562,-167.5 562,-167.5 562,-173.5 556,-179.5 550,-179.5"/>
<text text-anchor="middle" x="487.5" y="-164.3" font-family="Times,serif" font-size="14.00">comp 0</text>
<text text-anchor="middle" x="487.5" y="-149.3" font-family="Times,serif" font-size="14.00">log gamma1: &#45;0.695798</text>
</g>
<!-- 4&#45;&gt;13 -->
<g id="edge13" class="edge"><title>4&#45;&gt;13</title>
<path fill="none" stroke="black" d="M495.965,-222.868C494.523,-212.417 492.852,-200.301 491.377,-189.609"/>
<polygon fill="black" stroke="black" points="494.817,-188.935 489.984,-179.507 487.883,-189.891 494.817,-188.935"/>
</g>
<!-- 14 -->
<g id="node15" class="node"><title>14</title>
<path fill="#d3e4ff" stroke="black" d="M898.5,-179.5C898.5,-179.5 698.5,-179.5 698.5,-179.5 692.5,-179.5 686.5,-173.5 686.5,-167.5 686.5,-167.5 686.5,-153.5 686.5,-153.5 686.5,-147.5 692.5,-141.5 698.5,-141.5 698.5,-141.5 898.5,-141.5 898.5,-141.5 904.5,-141.5 910.5,-147.5 910.5,-153.5 910.5,-153.5 910.5,-167.5 910.5,-167.5 910.5,-173.5 904.5,-179.5 898.5,-179.5"/>
<text text-anchor="middle" x="798.5" y="-164.3" font-family="Times,serif" font-size="14.00">comp 0</text>
<text text-anchor="middle" x="798.5" y="-149.3" font-family="Times,serif" font-size="14.00">log gamma2: &#45;0.604589 &#160;&#160;n kernels: 3</text>
</g>
<!-- 5&#45;&gt;14 -->
<g id="edge14" class="edge"><title>5&#45;&gt;14</title>
<path fill="none" stroke="black" d="M798.5,-222.868C798.5,-212.417 798.5,-200.301 798.5,-189.609"/>
<polygon fill="black" stroke="black" points="802,-189.507 798.5,-179.507 795,-189.507 802,-189.507"/>
</g>
<!-- 15 -->
<g id="node16" class="node"><title>15</title>
<path fill="#d3e4ff" stroke="black" d="M1102.5,-178.5C1102.5,-178.5 1068.5,-178.5 1068.5,-178.5 1062.5,-178.5 1056.5,-172.5 1056.5,-166.5 1056.5,-166.5 1056.5,-154.5 1056.5,-154.5 1056.5,-148.5 1062.5,-142.5 1068.5,-142.5 1068.5,-142.5 1102.5,-142.5 1102.5,-142.5 1108.5,-142.5 1114.5,-148.5 1114.5,-154.5 1114.5,-154.5 1114.5,-166.5 1114.5,-166.5 1114.5,-172.5 1108.5,-178.5 1102.5,-178.5"/>
<text text-anchor="middle" x="1085.5" y="-156.8" font-family="Times,serif" font-size="14.00">comp 0</text>
</g>
<!-- 6&#45;&gt;15 -->
<g id="edge15" class="edge"><title>6&#45;&gt;15</title>
<path fill="none" stroke="black" d="M1072.8,-222.868C1075.04,-212.08 1077.63,-199.519 1079.9,-188.58"/>
<polygon fill="black" stroke="black" points="1083.34,-189.203 1081.94,-178.701 1076.49,-187.785 1083.34,-189.203"/>
</g>
<!-- 16 -->
<g id="node17" class="node"><title>16</title>
<path fill="#d3e4ff" stroke="black" d="M1569,-179.5C1569,-179.5 1506,-179.5 1506,-179.5 1500,-179.5 1494,-173.5 1494,-167.5 1494,-167.5 1494,-153.5 1494,-153.5 1494,-147.5 1500,-141.5 1506,-141.5 1506,-141.5 1569,-141.5 1569,-141.5 1575,-141.5 1581,-147.5 1581,-153.5 1581,-153.5 1581,-167.5 1581,-167.5 1581,-173.5 1575,-179.5 1569,-179.5"/>
<text text-anchor="middle" x="1537.5" y="-164.3" font-family="Times,serif" font-size="14.00">comp 0</text>
<text text-anchor="middle" x="1537.5" y="-149.3" font-family="Times,serif" font-size="14.00">n kernels: 13</text>
</g>
<!-- 7&#45;&gt;16 -->
<g id="edge16" class="edge"><title>7&#45;&gt;16</title>
<path fill="none" stroke="black" d="M1719.84,-230.474C1682.24,-216.25 1629.81,-196.416 1590.81,-181.666"/>
<polygon fill="black" stroke="black" points="1591.8,-178.296 1581.21,-178.032 1589.32,-184.844 1591.8,-178.296"/>
</g>
<!-- 17 -->
<g id="node18" class="node"><title>17</title>
<path fill="#bfcfe6" stroke="black" d="M1830,-179.5C1830,-179.5 1705,-179.5 1705,-179.5 1699,-179.5 1693,-173.5 1693,-167.5 1693,-167.5 1693,-153.5 1693,-153.5 1693,-147.5 1699,-141.5 1705,-141.5 1705,-141.5 1830,-141.5 1830,-141.5 1836,-141.5 1842,-147.5 1842,-153.5 1842,-153.5 1842,-167.5 1842,-167.5 1842,-173.5 1836,-179.5 1830,-179.5"/>
<text text-anchor="middle" x="1767.5" y="-164.3" font-family="Times,serif" font-size="14.00">comp 1</text>
<text text-anchor="middle" x="1767.5" y="-149.3" font-family="Times,serif" font-size="14.00">log gamma1: &#45;1.602963</text>
</g>
<!-- 7&#45;&gt;17 -->
<g id="edge17" class="edge"><title>7&#45;&gt;17</title>
<path fill="none" stroke="black" d="M1767.5,-230.474C1767.5,-218.692 1767.5,-203.061 1767.5,-189.658"/>
<polygon fill="black" stroke="black" points="1771,-189.503 1767.5,-179.503 1764,-189.503 1771,-189.503"/>
</g>
<!-- 18 -->
<g id="node19" class="node"><title>18</title>
<path fill="#d3e4ff" stroke="black" d="M2473.5,-179.5C2473.5,-179.5 2353.5,-179.5 2353.5,-179.5 2347.5,-179.5 2341.5,-173.5 2341.5,-167.5 2341.5,-167.5 2341.5,-153.5 2341.5,-153.5 2341.5,-147.5 2347.5,-141.5 2353.5,-141.5 2353.5,-141.5 2473.5,-141.5 2473.5,-141.5 2479.5,-141.5 2485.5,-147.5 2485.5,-153.5 2485.5,-153.5 2485.5,-167.5 2485.5,-167.5 2485.5,-173.5 2479.5,-179.5 2473.5,-179.5"/>
<text text-anchor="middle" x="2413.5" y="-164.3" font-family="Times,serif" font-size="14.00">comp 0</text>
<text text-anchor="middle" x="2413.5" y="-149.3" font-family="Times,serif" font-size="14.00">log gamma2: 0.636389</text>
</g>
<!-- 8&#45;&gt;18 -->
<g id="edge18" class="edge"><title>8&#45;&gt;18</title>
<path fill="none" stroke="black" d="M2770.48,-227.44C2685.67,-211.774 2571.92,-190.762 2495.83,-176.708"/>
<polygon fill="black" stroke="black" points="2496.29,-173.233 2485.82,-174.858 2495.01,-180.116 2496.29,-173.233"/>
</g>
<!-- 19 -->
<g id="node20" class="node"><title>19</title>
<path fill="#bfcfe6" stroke="black" d="M2813.5,-179.5C2813.5,-179.5 2757.5,-179.5 2757.5,-179.5 2751.5,-179.5 2745.5,-173.5 2745.5,-167.5 2745.5,-167.5 2745.5,-153.5 2745.5,-153.5 2745.5,-147.5 2751.5,-141.5 2757.5,-141.5 2757.5,-141.5 2813.5,-141.5 2813.5,-141.5 2819.5,-141.5 2825.5,-147.5 2825.5,-153.5 2825.5,-153.5 2825.5,-167.5 2825.5,-167.5 2825.5,-173.5 2819.5,-179.5 2813.5,-179.5"/>
<text text-anchor="middle" x="2785.5" y="-164.3" font-family="Times,serif" font-size="14.00">comp 1</text>
<text text-anchor="middle" x="2785.5" y="-149.3" font-family="Times,serif" font-size="14.00">n kernels: 7</text>
</g>
<!-- 8&#45;&gt;19 -->
<g id="edge19" class="edge"><title>8&#45;&gt;19</title>
<path fill="none" stroke="black" d="M2855.33,-222.868C2842.2,-211.328 2826.76,-197.759 2813.74,-186.318"/>
<polygon fill="black" stroke="black" points="2815.81,-183.479 2805.99,-179.507 2811.19,-188.737 2815.81,-183.479"/>
</g>
<!-- 20 -->
<g id="node21" class="node"><title>20</title>
<path fill="#abb9ce" stroke="black" d="M3007.5,-178.5C3007.5,-178.5 2973.5,-178.5 2973.5,-178.5 2967.5,-178.5 2961.5,-172.5 2961.5,-166.5 2961.5,-166.5 2961.5,-154.5 2961.5,-154.5 2961.5,-148.5 2967.5,-142.5 2973.5,-142.5 2973.5,-142.5 3007.5,-142.5 3007.5,-142.5 3013.5,-142.5 3019.5,-148.5 3019.5,-154.5 3019.5,-154.5 3019.5,-166.5 3019.5,-166.5 3019.5,-172.5 3013.5,-178.5 3007.5,-178.5"/>
<text text-anchor="middle" x="2990.5" y="-156.8" font-family="Times,serif" font-size="14.00">comp 2</text>
</g>
<!-- 8&#45;&gt;20 -->
<g id="edge20" class="edge"><title>8&#45;&gt;20</title>
<path fill="none" stroke="black" d="M2915.73,-222.868C2930.23,-210.968 2947.36,-196.91 2961.56,-185.253"/>
<polygon fill="black" stroke="black" points="2964.03,-187.751 2969.54,-178.701 2959.59,-182.34 2964.03,-187.751"/>
</g>
<!-- 21 -->
<g id="node22" class="node"><title>21</title>
<path fill="#d3e4ff" stroke="black" d="M3399.5,-178.5C3399.5,-178.5 3365.5,-178.5 3365.5,-178.5 3359.5,-178.5 3353.5,-172.5 3353.5,-166.5 3353.5,-166.5 3353.5,-154.5 3353.5,-154.5 3353.5,-148.5 3359.5,-142.5 3365.5,-142.5 3365.5,-142.5 3399.5,-142.5 3399.5,-142.5 3405.5,-142.5 3411.5,-148.5 3411.5,-154.5 3411.5,-154.5 3411.5,-166.5 3411.5,-166.5 3411.5,-172.5 3405.5,-178.5 3399.5,-178.5"/>
<text text-anchor="middle" x="3382.5" y="-156.8" font-family="Times,serif" font-size="14.00">comp 0</text>
</g>
<!-- 9&#45;&gt;21 -->
<g id="edge21" class="edge"><title>9&#45;&gt;21</title>
<path fill="none" stroke="black" d="M3243.28,-222.985C3275.71,-208.66 3315.3,-191.177 3343.96,-178.521"/>
<polygon fill="black" stroke="black" points="3345.5,-181.667 3353.23,-174.425 3342.67,-175.264 3345.5,-181.667"/>
</g>
<!-- 22 -->
<g id="node23" class="node"><title>22</title>
<path fill="#d3e4ff" stroke="black" d="M4126,-179.5C4126,-179.5 3931,-179.5 3931,-179.5 3925,-179.5 3919,-173.5 3919,-167.5 3919,-167.5 3919,-153.5 3919,-153.5 3919,-147.5 3925,-141.5 3931,-141.5 3931,-141.5 4126,-141.5 4126,-141.5 4132,-141.5 4138,-147.5 4138,-153.5 4138,-153.5 4138,-167.5 4138,-167.5 4138,-173.5 4132,-179.5 4126,-179.5"/>
<text text-anchor="middle" x="4028.5" y="-164.3" font-family="Times,serif" font-size="14.00">comp 0</text>
<text text-anchor="middle" x="4028.5" y="-149.3" font-family="Times,serif" font-size="14.00">log gamma2: 1.977502 &#160;&#160;n kernels: 9</text>
</g>
<!-- 10&#45;&gt;22 -->
<g id="edge22" class="edge"><title>10&#45;&gt;22</title>
<path fill="none" stroke="black" d="M3818.6,-222.985C3862.66,-210.081 3915.46,-194.614 3957.08,-182.421"/>
<polygon fill="black" stroke="black" points="3958.25,-185.725 3966.86,-179.555 3956.28,-179.007 3958.25,-185.725"/>
</g>
<!-- 23 -->
<g id="node24" class="node"><title>23</title>
<path fill="#d3e4ff" stroke="black" d="M4804,-187C4804,-187 4545,-187 4545,-187 4539,-187 4533,-181 4533,-175 4533,-175 4533,-146 4533,-146 4533,-140 4539,-134 4545,-134 4545,-134 4804,-134 4804,-134 4810,-134 4816,-140 4816,-146 4816,-146 4816,-175 4816,-175 4816,-181 4810,-187 4804,-187"/>
<text text-anchor="middle" x="4674.5" y="-171.8" font-family="Times,serif" font-size="14.00">comp 0</text>
<text text-anchor="middle" x="4674.5" y="-156.8" font-family="Times,serif" font-size="14.00">log gamma1: 1.028493 &#160;&#160;log gamma2: 1.325006</text>
<text text-anchor="middle" x="4674.5" y="-141.8" font-family="Times,serif" font-size="14.00">n kernels: &#45;8</text>
</g>
<!-- 11&#45;&gt;23 -->
<g id="edge23" class="edge"><title>11&#45;&gt;23</title>
<path fill="none" stroke="black" d="M4397.02,-230.474C4444.62,-218.643 4507.83,-202.93 4561.89,-189.491"/>
<polygon fill="black" stroke="black" points="4563.02,-192.818 4571.88,-187.009 4561.33,-186.025 4563.02,-192.818"/>
</g>
<!-- 24 -->
<g id="node25" class="node"><title>24</title>
<path fill="#f6d3ff" stroke="black" d="M293,-98C293,-98 12,-98 12,-98 6,-98 0,-92 0,-86 0,-86 0,-12 0,-12 0,-6 6,-0 12,-0 12,-0 293,-0 293,-0 299,-0 305,-6 305,-12 305,-12 305,-86 305,-86 305,-92 299,-98 293,-98"/>
<text text-anchor="middle" x="152.5" y="-82.8" font-family="Times,serif" font-size="14.00">forward</text>
<text text-anchor="middle" x="152.5" y="-67.8" font-family="Times,serif" font-size="14.00">input</text>
<text text-anchor="middle" x="152.5" y="-52.8" font-family="Times,serif" font-size="14.00">dilation rate: 1 &#160;&#160;k width: 3</text>
<text text-anchor="middle" x="152.5" y="-37.8" font-family="Times,serif" font-size="14.00">log gamma1: &#45;11.000000 &#160;&#160;log gamma2: &#45;11.000000</text>
<text text-anchor="middle" x="152.5" y="-22.8" font-family="Times,serif" font-size="14.00">log lambda1: &#45;11.000000 &#160;&#160;log lambda2: &#45;11.000000</text>
<text text-anchor="middle" x="152.5" y="-7.8" font-family="Times,serif" font-size="14.00">n kernels: 64</text>
</g>
<!-- 12&#45;&gt;24 -->
<g id="edge24" class="edge"><title>12&#45;&gt;24</title>
<path fill="none" stroke="black" d="M163.353,-141.418C162.26,-132.212 160.863,-120.445 159.438,-108.441"/>
<polygon fill="black" stroke="black" points="162.895,-107.87 158.24,-98.352 155.944,-108.695 162.895,-107.87"/>
</g>
<!-- 25 -->
<g id="node26" class="node"><title>25</title>
<path fill="#f6d3ff" stroke="black" d="M616,-98C616,-98 335,-98 335,-98 329,-98 323,-92 323,-86 323,-86 323,-12 323,-12 323,-6 329,-0 335,-0 335,-0 616,-0 616,-0 622,-0 628,-6 628,-12 628,-12 628,-86 628,-86 628,-92 622,-98 616,-98"/>
<text text-anchor="middle" x="475.5" y="-82.8" font-family="Times,serif" font-size="14.00">forward</text>
<text text-anchor="middle" x="475.5" y="-67.8" font-family="Times,serif" font-size="14.00">EB0/C0</text>
<text text-anchor="middle" x="475.5" y="-52.8" font-family="Times,serif" font-size="14.00">dilation rate: 1 &#160;&#160;k width: 3</text>
<text text-anchor="middle" x="475.5" y="-37.8" font-family="Times,serif" font-size="14.00">log gamma1: &#45;11.000000 &#160;&#160;log gamma2: &#45;11.000000</text>
<text text-anchor="middle" x="475.5" y="-22.8" font-family="Times,serif" font-size="14.00">log lambda1: &#45;11.000000 &#160;&#160;log lambda2: &#45;11.000000</text>
<text text-anchor="middle" x="475.5" y="-7.8" font-family="Times,serif" font-size="14.00">n kernels: 64</text>
</g>
<!-- 13&#45;&gt;25 -->
<g id="edge25" class="edge"><title>13&#45;&gt;25</title>
<path fill="none" stroke="black" d="M485.518,-141.418C484.51,-132.212 483.22,-120.445 481.904,-108.441"/>
<polygon fill="black" stroke="black" points="485.367,-107.911 480.799,-98.352 478.409,-108.674 485.367,-107.911"/>
</g>
<!-- 26 -->
<g id="node27" class="node"><title>26</title>
<path fill="#f6d3ff" stroke="black" d="M939,-98C939,-98 658,-98 658,-98 652,-98 646,-92 646,-86 646,-86 646,-12 646,-12 646,-6 652,-0 658,-0 658,-0 939,-0 939,-0 945,-0 951,-6 951,-12 951,-12 951,-86 951,-86 951,-92 945,-98 939,-98"/>
<text text-anchor="middle" x="798.5" y="-82.8" font-family="Times,serif" font-size="14.00">forward</text>
<text text-anchor="middle" x="798.5" y="-67.8" font-family="Times,serif" font-size="14.00">EB1/C0</text>
<text text-anchor="middle" x="798.5" y="-52.8" font-family="Times,serif" font-size="14.00">dilation rate: 1 &#160;&#160;k width: 3</text>
<text text-anchor="middle" x="798.5" y="-37.8" font-family="Times,serif" font-size="14.00">log gamma1: &#45;11.000000 &#160;&#160;log gamma2: &#45;11.000000</text>
<text text-anchor="middle" x="798.5" y="-22.8" font-family="Times,serif" font-size="14.00">log lambda1: &#45;11.000000 &#160;&#160;log lambda2: &#45;11.000000</text>
<text text-anchor="middle" x="798.5" y="-7.8" font-family="Times,serif" font-size="14.00">n kernels: 64</text>
</g>
<!-- 14&#45;&gt;26 -->
<g id="edge26" class="edge"><title>14&#45;&gt;26</title>
<path fill="none" stroke="black" d="M798.5,-141.418C798.5,-132.212 798.5,-120.445 798.5,-108.441"/>
<polygon fill="black" stroke="black" points="802,-108.352 798.5,-98.352 795,-108.352 802,-108.352"/>
</g>
<!-- 27 -->
<g id="node28" class="node"><title>27</title>
<path fill="#f6d3ff" stroke="black" d="M1262,-98C1262,-98 981,-98 981,-98 975,-98 969,-92 969,-86 969,-86 969,-12 969,-12 969,-6 975,-0 981,-0 981,-0 1262,-0 1262,-0 1268,-0 1274,-6 1274,-12 1274,-12 1274,-86 1274,-86 1274,-92 1268,-98 1262,-98"/>
<text text-anchor="middle" x="1121.5" y="-82.8" font-family="Times,serif" font-size="14.00">forward</text>
<text text-anchor="middle" x="1121.5" y="-67.8" font-family="Times,serif" font-size="14.00">EB2/C0</text>
<text text-anchor="middle" x="1121.5" y="-52.8" font-family="Times,serif" font-size="14.00">dilation rate: 1 &#160;&#160;k width: 3</text>
<text text-anchor="middle" x="1121.5" y="-37.8" font-family="Times,serif" font-size="14.00">log gamma1: &#45;11.000000 &#160;&#160;log gamma2: &#45;11.000000</text>
<text text-anchor="middle" x="1121.5" y="-22.8" font-family="Times,serif" font-size="14.00">log lambda1: &#45;11.000000 &#160;&#160;log lambda2: &#45;11.000000</text>
<text text-anchor="middle" x="1121.5" y="-7.8" font-family="Times,serif" font-size="14.00">n kernels: 64</text>
</g>
<!-- 15&#45;&gt;27 -->
<g id="edge27" class="edge"><title>15&#45;&gt;27</title>
<path fill="none" stroke="black" d="M1091.12,-142.391C1094.25,-132.9 1098.33,-120.485 1102.48,-107.849"/>
<polygon fill="black" stroke="black" points="1105.86,-108.781 1105.66,-98.1876 1099.21,-106.594 1105.86,-108.781"/>
</g>
<!-- 28 -->
<g id="node29" class="node"><title>28</title>
<path fill="#f6d3ff" stroke="black" d="M1585,-98C1585,-98 1304,-98 1304,-98 1298,-98 1292,-92 1292,-86 1292,-86 1292,-12 1292,-12 1292,-6 1298,-0 1304,-0 1304,-0 1585,-0 1585,-0 1591,-0 1597,-6 1597,-12 1597,-12 1597,-86 1597,-86 1597,-92 1591,-98 1585,-98"/>
<text text-anchor="middle" x="1444.5" y="-82.8" font-family="Times,serif" font-size="14.00">forward</text>
<text text-anchor="middle" x="1444.5" y="-67.8" font-family="Times,serif" font-size="14.00">EB3/C0</text>
<text text-anchor="middle" x="1444.5" y="-52.8" font-family="Times,serif" font-size="14.00">dilation rate: 1 &#160;&#160;k width: 3</text>
<text text-anchor="middle" x="1444.5" y="-37.8" font-family="Times,serif" font-size="14.00">log gamma1: &#45;11.000000 &#160;&#160;log gamma2: &#45;11.000000</text>
<text text-anchor="middle" x="1444.5" y="-22.8" font-family="Times,serif" font-size="14.00">log lambda1: &#45;11.000000 &#160;&#160;log lambda2: &#45;11.000000</text>
<text text-anchor="middle" x="1444.5" y="-7.8" font-family="Times,serif" font-size="14.00">n kernels: 64</text>
</g>
<!-- 16&#45;&gt;28 -->
<g id="edge28" class="edge"><title>16&#45;&gt;28</title>
<path fill="none" stroke="black" d="M1522.14,-141.418C1513.85,-131.659 1503.12,-119.024 1492.3,-106.278"/>
<polygon fill="black" stroke="black" points="1494.71,-103.708 1485.57,-98.352 1489.37,-108.24 1494.71,-103.708"/>
</g>
<!-- 29 -->
<g id="node30" class="node"><title>29</title>
<path fill="#f6d3ff" stroke="black" d="M1908,-98C1908,-98 1627,-98 1627,-98 1621,-98 1615,-92 1615,-86 1615,-86 1615,-12 1615,-12 1615,-6 1621,-0 1627,-0 1627,-0 1908,-0 1908,-0 1914,-0 1920,-6 1920,-12 1920,-12 1920,-86 1920,-86 1920,-92 1914,-98 1908,-98"/>
<text text-anchor="middle" x="1767.5" y="-82.8" font-family="Times,serif" font-size="14.00">forward</text>
<text text-anchor="middle" x="1767.5" y="-67.8" font-family="Times,serif" font-size="14.00">DB4/C0</text>
<text text-anchor="middle" x="1767.5" y="-52.8" font-family="Times,serif" font-size="14.00">dilation rate: 1 &#160;&#160;k width: 3</text>
<text text-anchor="middle" x="1767.5" y="-37.8" font-family="Times,serif" font-size="14.00">log gamma1: &#45;11.000000 &#160;&#160;log gamma2: &#45;11.000000</text>
<text text-anchor="middle" x="1767.5" y="-22.8" font-family="Times,serif" font-size="14.00">log lambda1: &#45;11.000000 &#160;&#160;log lambda2: &#45;11.000000</text>
<text text-anchor="middle" x="1767.5" y="-7.8" font-family="Times,serif" font-size="14.00">n kernels: 64</text>
</g>
<!-- 17&#45;&gt;29 -->
<g id="edge29" class="edge"><title>17&#45;&gt;29</title>
<path fill="none" stroke="black" d="M1767.5,-141.418C1767.5,-132.212 1767.5,-120.445 1767.5,-108.441"/>
<polygon fill="black" stroke="black" points="1771,-108.352 1767.5,-98.352 1764,-108.352 1771,-108.352"/>
</g>
<!-- 30 -->
<g id="node31" class="node"><title>30</title>
<path fill="#f6d3ff" stroke="black" d="M2231,-98C2231,-98 1950,-98 1950,-98 1944,-98 1938,-92 1938,-86 1938,-86 1938,-12 1938,-12 1938,-6 1944,-0 1950,-0 1950,-0 2231,-0 2231,-0 2237,-0 2243,-6 2243,-12 2243,-12 2243,-86 2243,-86 2243,-92 2237,-98 2231,-98"/>
<text text-anchor="middle" x="2090.5" y="-82.8" font-family="Times,serif" font-size="14.00">forward</text>
<text text-anchor="middle" x="2090.5" y="-67.8" font-family="Times,serif" font-size="14.00">DB4/C1</text>
<text text-anchor="middle" x="2090.5" y="-52.8" font-family="Times,serif" font-size="14.00">dilation rate: 1 &#160;&#160;k width: 3</text>
<text text-anchor="middle" x="2090.5" y="-37.8" font-family="Times,serif" font-size="14.00">log gamma1: &#45;11.000000 &#160;&#160;log gamma2: &#45;11.000000</text>
<text text-anchor="middle" x="2090.5" y="-22.8" font-family="Times,serif" font-size="14.00">log lambda1: &#45;11.000000 &#160;&#160;log lambda2: &#45;11.000000</text>
<text text-anchor="middle" x="2090.5" y="-7.8" font-family="Times,serif" font-size="14.00">n kernels: 64</text>
</g>
<!-- 18&#45;&gt;30 -->
<g id="edge30" class="edge"><title>18&#45;&gt;30</title>
<path fill="none" stroke="black" d="M2360.16,-141.418C2327.68,-130.406 2284.39,-115.731 2242.02,-101.367"/>
<polygon fill="black" stroke="black" points="2243.02,-98.0114 2232.43,-98.1154 2240.78,-104.641 2243.02,-98.0114"/>
</g>
<!-- 31 -->
<g id="node32" class="node"><title>31</title>
<path fill="#debfe6" stroke="black" d="M2554,-98C2554,-98 2273,-98 2273,-98 2267,-98 2261,-92 2261,-86 2261,-86 2261,-12 2261,-12 2261,-6 2267,-0 2273,-0 2273,-0 2554,-0 2554,-0 2560,-0 2566,-6 2566,-12 2566,-12 2566,-86 2566,-86 2566,-92 2560,-98 2554,-98"/>
<text text-anchor="middle" x="2413.5" y="-82.8" font-family="Times,serif" font-size="14.00">merge</text>
<text text-anchor="middle" x="2413.5" y="-67.8" font-family="Times,serif" font-size="14.00">EB3/C0</text>
<text text-anchor="middle" x="2413.5" y="-52.8" font-family="Times,serif" font-size="14.00">dilation rate: 1 &#160;&#160;k width: 3</text>
<text text-anchor="middle" x="2413.5" y="-37.8" font-family="Times,serif" font-size="14.00">log gamma1: &#45;11.000000 &#160;&#160;log gamma2: &#45;11.000000</text>
<text text-anchor="middle" x="2413.5" y="-22.8" font-family="Times,serif" font-size="14.00">log lambda1: &#45;11.000000 &#160;&#160;log lambda2: &#45;11.000000</text>
<text text-anchor="middle" x="2413.5" y="-7.8" font-family="Times,serif" font-size="14.00">n kernels: 64</text>
</g>
<!-- 18&#45;&gt;31 -->
<g id="edge31" class="edge"><title>18&#45;&gt;31</title>
<path fill="none" stroke="black" d="M2413.5,-141.418C2413.5,-132.212 2413.5,-120.445 2413.5,-108.441"/>
<polygon fill="black" stroke="black" points="2417,-108.352 2413.5,-98.352 2410,-108.352 2417,-108.352"/>
</g>
<!-- 32 -->
<g id="node33" class="node"><title>32</title>
<path fill="#f6d3ff" stroke="black" d="M2877,-98C2877,-98 2596,-98 2596,-98 2590,-98 2584,-92 2584,-86 2584,-86 2584,-12 2584,-12 2584,-6 2590,-0 2596,-0 2596,-0 2877,-0 2877,-0 2883,-0 2889,-6 2889,-12 2889,-12 2889,-86 2889,-86 2889,-92 2883,-98 2877,-98"/>
<text text-anchor="middle" x="2736.5" y="-82.8" font-family="Times,serif" font-size="14.00">forward</text>
<text text-anchor="middle" x="2736.5" y="-67.8" font-family="Times,serif" font-size="14.00">DB3/C0</text>
<text text-anchor="middle" x="2736.5" y="-52.8" font-family="Times,serif" font-size="14.00">dilation rate: 1 &#160;&#160;k width: 3</text>
<text text-anchor="middle" x="2736.5" y="-37.8" font-family="Times,serif" font-size="14.00">log gamma1: &#45;11.000000 &#160;&#160;log gamma2: &#45;11.000000</text>
<text text-anchor="middle" x="2736.5" y="-22.8" font-family="Times,serif" font-size="14.00">log lambda1: &#45;11.000000 &#160;&#160;log lambda2: &#45;11.000000</text>
<text text-anchor="middle" x="2736.5" y="-7.8" font-family="Times,serif" font-size="14.00">n kernels: 64</text>
</g>
<!-- 19&#45;&gt;32 -->
<g id="edge32" class="edge"><title>19&#45;&gt;32</title>
<path fill="none" stroke="black" d="M2777.41,-141.418C2773.21,-132.028 2767.81,-119.973 2762.33,-107.72"/>
<polygon fill="black" stroke="black" points="2765.42,-106.05 2758.14,-98.352 2759.03,-108.909 2765.42,-106.05"/>
</g>
<!-- 33 -->
<g id="node34" class="node"><title>33</title>
<path fill="#f6d3ff" stroke="black" d="M3200,-98C3200,-98 2919,-98 2919,-98 2913,-98 2907,-92 2907,-86 2907,-86 2907,-12 2907,-12 2907,-6 2913,-0 2919,-0 2919,-0 3200,-0 3200,-0 3206,-0 3212,-6 3212,-12 3212,-12 3212,-86 3212,-86 3212,-92 3206,-98 3200,-98"/>
<text text-anchor="middle" x="3059.5" y="-82.8" font-family="Times,serif" font-size="14.00">forward</text>
<text text-anchor="middle" x="3059.5" y="-67.8" font-family="Times,serif" font-size="14.00">DB3/C1</text>
<text text-anchor="middle" x="3059.5" y="-52.8" font-family="Times,serif" font-size="14.00">dilation rate: 1 &#160;&#160;k width: 3</text>
<text text-anchor="middle" x="3059.5" y="-37.8" font-family="Times,serif" font-size="14.00">log gamma1: &#45;11.000000 &#160;&#160;log gamma2: &#45;11.000000</text>
<text text-anchor="middle" x="3059.5" y="-22.8" font-family="Times,serif" font-size="14.00">log lambda1: &#45;11.000000 &#160;&#160;log lambda2: &#45;11.000000</text>
<text text-anchor="middle" x="3059.5" y="-7.8" font-family="Times,serif" font-size="14.00">n kernels: 64</text>
</g>
<!-- 20&#45;&gt;33 -->
<g id="edge33" class="edge"><title>20&#45;&gt;33</title>
<path fill="none" stroke="black" d="M3001.28,-142.391C3007.44,-132.621 3015.55,-119.752 3023.75,-106.733"/>
<polygon fill="black" stroke="black" points="3026.77,-108.514 3029.14,-98.1876 3020.84,-104.782 3026.77,-108.514"/>
</g>
<!-- 34 -->
<g id="node35" class="node"><title>34</title>
<path fill="#f6d3ff" stroke="black" d="M3523,-98C3523,-98 3242,-98 3242,-98 3236,-98 3230,-92 3230,-86 3230,-86 3230,-12 3230,-12 3230,-6 3236,-0 3242,-0 3242,-0 3523,-0 3523,-0 3529,-0 3535,-6 3535,-12 3535,-12 3535,-86 3535,-86 3535,-92 3529,-98 3523,-98"/>
<text text-anchor="middle" x="3382.5" y="-82.8" font-family="Times,serif" font-size="14.00">forward</text>
<text text-anchor="middle" x="3382.5" y="-67.8" font-family="Times,serif" font-size="14.00">DB3/C2</text>
<text text-anchor="middle" x="3382.5" y="-52.8" font-family="Times,serif" font-size="14.00">dilation rate: 1 &#160;&#160;k width: 3</text>
<text text-anchor="middle" x="3382.5" y="-37.8" font-family="Times,serif" font-size="14.00">log gamma1: &#45;11.000000 &#160;&#160;log gamma2: &#45;11.000000</text>
<text text-anchor="middle" x="3382.5" y="-22.8" font-family="Times,serif" font-size="14.00">log lambda1: &#45;11.000000 &#160;&#160;log lambda2: &#45;11.000000</text>
<text text-anchor="middle" x="3382.5" y="-7.8" font-family="Times,serif" font-size="14.00">n kernels: 64</text>
</g>
<!-- 21&#45;&gt;34 -->
<g id="edge34" class="edge"><title>21&#45;&gt;34</title>
<path fill="none" stroke="black" d="M3382.5,-142.391C3382.5,-132.993 3382.5,-120.728 3382.5,-108.22"/>
<polygon fill="black" stroke="black" points="3386,-108.188 3382.5,-98.1876 3379,-108.188 3386,-108.188"/>
</g>
<!-- 35 -->
<g id="node36" class="node"><title>35</title>
<path fill="#debfe6" stroke="black" d="M3846,-98C3846,-98 3565,-98 3565,-98 3559,-98 3553,-92 3553,-86 3553,-86 3553,-12 3553,-12 3553,-6 3559,-0 3565,-0 3565,-0 3846,-0 3846,-0 3852,-0 3858,-6 3858,-12 3858,-12 3858,-86 3858,-86 3858,-92 3852,-98 3846,-98"/>
<text text-anchor="middle" x="3705.5" y="-82.8" font-family="Times,serif" font-size="14.00">merge</text>
<text text-anchor="middle" x="3705.5" y="-67.8" font-family="Times,serif" font-size="14.00">EB2/C0</text>
<text text-anchor="middle" x="3705.5" y="-52.8" font-family="Times,serif" font-size="14.00">dilation rate: 1 &#160;&#160;k width: 3</text>
<text text-anchor="middle" x="3705.5" y="-37.8" font-family="Times,serif" font-size="14.00">log gamma1: &#45;11.000000 &#160;&#160;log gamma2: &#45;11.000000</text>
<text text-anchor="middle" x="3705.5" y="-22.8" font-family="Times,serif" font-size="14.00">log lambda1: &#45;11.000000 &#160;&#160;log lambda2: &#45;11.000000</text>
<text text-anchor="middle" x="3705.5" y="-7.8" font-family="Times,serif" font-size="14.00">n kernels: 64</text>
</g>
<!-- 21&#45;&gt;35 -->
<g id="edge35" class="edge"><title>21&#45;&gt;35</title>
<path fill="none" stroke="black" d="M3411.73,-149.589C3444.48,-138.49 3500.07,-119.643 3554.14,-101.313"/>
<polygon fill="black" stroke="black" points="3555.51,-104.544 3563.86,-98.0186 3553.26,-97.9146 3555.51,-104.544"/>
</g>
<!-- 36 -->
<g id="node37" class="node"><title>36</title>
<path fill="#f6d3ff" stroke="black" d="M4169,-98C4169,-98 3888,-98 3888,-98 3882,-98 3876,-92 3876,-86 3876,-86 3876,-12 3876,-12 3876,-6 3882,-0 3888,-0 3888,-0 4169,-0 4169,-0 4175,-0 4181,-6 4181,-12 4181,-12 4181,-86 4181,-86 4181,-92 4175,-98 4169,-98"/>
<text text-anchor="middle" x="4028.5" y="-82.8" font-family="Times,serif" font-size="14.00">forward</text>
<text text-anchor="middle" x="4028.5" y="-67.8" font-family="Times,serif" font-size="14.00">DB2/C0</text>
<text text-anchor="middle" x="4028.5" y="-52.8" font-family="Times,serif" font-size="14.00">dilation rate: 1 &#160;&#160;k width: 3</text>
<text text-anchor="middle" x="4028.5" y="-37.8" font-family="Times,serif" font-size="14.00">log gamma1: &#45;11.000000 &#160;&#160;log gamma2: &#45;11.000000</text>
<text text-anchor="middle" x="4028.5" y="-22.8" font-family="Times,serif" font-size="14.00">log lambda1: &#45;11.000000 &#160;&#160;log lambda2: &#45;11.000000</text>
<text text-anchor="middle" x="4028.5" y="-7.8" font-family="Times,serif" font-size="14.00">n kernels: 64</text>
</g>
<!-- 22&#45;&gt;36 -->
<g id="edge36" class="edge"><title>22&#45;&gt;36</title>
<path fill="none" stroke="black" d="M4028.5,-141.418C4028.5,-132.212 4028.5,-120.445 4028.5,-108.441"/>
<polygon fill="black" stroke="black" points="4032,-108.352 4028.5,-98.352 4025,-108.352 4032,-108.352"/>
</g>
<!-- 37 -->
<g id="node38" class="node"><title>37</title>
<path fill="#debfe6" stroke="black" d="M4492,-98C4492,-98 4211,-98 4211,-98 4205,-98 4199,-92 4199,-86 4199,-86 4199,-12 4199,-12 4199,-6 4205,-0 4211,-0 4211,-0 4492,-0 4492,-0 4498,-0 4504,-6 4504,-12 4504,-12 4504,-86 4504,-86 4504,-92 4498,-98 4492,-98"/>
<text text-anchor="middle" x="4351.5" y="-82.8" font-family="Times,serif" font-size="14.00">merge</text>
<text text-anchor="middle" x="4351.5" y="-67.8" font-family="Times,serif" font-size="14.00">EB1/C0</text>
<text text-anchor="middle" x="4351.5" y="-52.8" font-family="Times,serif" font-size="14.00">dilation rate: 1 &#160;&#160;k width: 3</text>
<text text-anchor="middle" x="4351.5" y="-37.8" font-family="Times,serif" font-size="14.00">log gamma1: &#45;11.000000 &#160;&#160;log gamma2: &#45;11.000000</text>
<text text-anchor="middle" x="4351.5" y="-22.8" font-family="Times,serif" font-size="14.00">log lambda1: &#45;11.000000 &#160;&#160;log lambda2: &#45;11.000000</text>
<text text-anchor="middle" x="4351.5" y="-7.8" font-family="Times,serif" font-size="14.00">n kernels: 64</text>
</g>
<!-- 22&#45;&gt;37 -->
<g id="edge37" class="edge"><title>22&#45;&gt;37</title>
<path fill="none" stroke="black" d="M4081.84,-141.418C4114.32,-130.406 4157.61,-115.731 4199.98,-101.367"/>
<polygon fill="black" stroke="black" points="4201.22,-104.641 4209.57,-98.1154 4198.98,-98.0114 4201.22,-104.641"/>
</g>
<!-- 38 -->
<g id="node39" class="node"><title>38</title>
<path fill="#f6d3ff" stroke="black" d="M4815,-98C4815,-98 4534,-98 4534,-98 4528,-98 4522,-92 4522,-86 4522,-86 4522,-12 4522,-12 4522,-6 4528,-0 4534,-0 4534,-0 4815,-0 4815,-0 4821,-0 4827,-6 4827,-12 4827,-12 4827,-86 4827,-86 4827,-92 4821,-98 4815,-98"/>
<text text-anchor="middle" x="4674.5" y="-82.8" font-family="Times,serif" font-size="14.00">forward</text>
<text text-anchor="middle" x="4674.5" y="-67.8" font-family="Times,serif" font-size="14.00">DB1/C0</text>
<text text-anchor="middle" x="4674.5" y="-52.8" font-family="Times,serif" font-size="14.00">dilation rate: 1 &#160;&#160;k width: 3</text>
<text text-anchor="middle" x="4674.5" y="-37.8" font-family="Times,serif" font-size="14.00">log gamma1: &#45;11.000000 &#160;&#160;log gamma2: &#45;11.000000</text>
<text text-anchor="middle" x="4674.5" y="-22.8" font-family="Times,serif" font-size="14.00">log lambda1: &#45;11.000000 &#160;&#160;log lambda2: &#45;11.000000</text>
<text text-anchor="middle" x="4674.5" y="-7.8" font-family="Times,serif" font-size="14.00">n kernels: 64</text>
</g>
<!-- 23&#45;&gt;38 -->
<g id="edge38" class="edge"><title>23&#45;&gt;38</title>
<path fill="none" stroke="black" d="M4674.5,-133.827C4674.5,-126.111 4674.5,-117.31 4674.5,-108.379"/>
<polygon fill="black" stroke="black" points="4678,-108.292 4674.5,-98.2922 4671,-108.292 4678,-108.292"/>
</g>
<!-- 39 -->
<g id="node40" class="node"><title>39</title>
<path fill="#debfe6" stroke="black" d="M5138,-98C5138,-98 4857,-98 4857,-98 4851,-98 4845,-92 4845,-86 4845,-86 4845,-12 4845,-12 4845,-6 4851,-0 4857,-0 4857,-0 5138,-0 5138,-0 5144,-0 5150,-6 5150,-12 5150,-12 5150,-86 5150,-86 5150,-92 5144,-98 5138,-98"/>
<text text-anchor="middle" x="4997.5" y="-82.8" font-family="Times,serif" font-size="14.00">merge</text>
<text text-anchor="middle" x="4997.5" y="-67.8" font-family="Times,serif" font-size="14.00">EB0/C0</text>
<text text-anchor="middle" x="4997.5" y="-52.8" font-family="Times,serif" font-size="14.00">dilation rate: 1 &#160;&#160;k width: 3</text>
<text text-anchor="middle" x="4997.5" y="-37.8" font-family="Times,serif" font-size="14.00">log gamma1: &#45;11.000000 &#160;&#160;log gamma2: &#45;11.000000</text>
<text text-anchor="middle" x="4997.5" y="-22.8" font-family="Times,serif" font-size="14.00">log lambda1: &#45;11.000000 &#160;&#160;log lambda2: &#45;11.000000</text>
<text text-anchor="middle" x="4997.5" y="-7.8" font-family="Times,serif" font-size="14.00">n kernels: 64</text>
</g>
<!-- 23&#45;&gt;39 -->
<g id="edge39" class="edge"><title>23&#45;&gt;39</title>
<path fill="none" stroke="black" d="M4749.82,-133.965C4778.58,-124.216 4812.49,-112.719 4845.85,-101.412"/>
<polygon fill="black" stroke="black" points="4847.35,-104.596 4855.7,-98.0711 4845.11,-97.9671 4847.35,-104.596"/>
</g>
</g>
</svg>
