<?xml version="1.0" encoding="UTF-8" standalone="no"?>
<!DOCTYPE svg PUBLIC "-//W3C//DTD SVG 1.1//EN"
 "http://www.w3.org/Graphics/SVG/1.1/DTD/svg11.dtd">
<!-- Generated by graphviz version 2.38.0 (20140413.2041)
 -->
<!-- Title: %3 Pages: 1 -->
<svg width="3214pt" height="418pt"
 viewBox="0.00 0.00 3214.00 418.00" xmlns="http://www.w3.org/2000/svg" xmlns:xlink="http://www.w3.org/1999/xlink">
<g id="graph0" class="graph" transform="scale(1 1) rotate(0) translate(4 414)">
<title>%3</title>
<polygon fill="none" stroke="none" points="-4,4 -4,-414 3210,-414 3210,4 -4,4"/>
<!-- 0 -->
<g id="node1" class="node"><title>0</title>
<path fill="#ffd3d3" stroke="black" d="M1271,-410C1271,-410 1080,-410 1080,-410 1074,-410 1068,-404 1068,-398 1068,-398 1068,-369 1068,-369 1068,-363 1074,-357 1080,-357 1080,-357 1271,-357 1271,-357 1277,-357 1283,-363 1283,-369 1283,-369 1283,-398 1283,-398 1283,-404 1277,-410 1271,-410"/>
<text text-anchor="middle" x="1175.5" y="-394.8" font-family="Times,serif" font-size="14.00">net</text>
<text text-anchor="middle" x="1175.5" y="-379.8" font-family="Times,serif" font-size="14.00">k width: 3 &#160;&#160;log gamma2: &#45;3.766597</text>
<text text-anchor="middle" x="1175.5" y="-364.8" font-family="Times,serif" font-size="14.00">n kernels: 92</text>
</g>
<!-- 1 -->
<g id="node2" class="node"><title>1</title>
<path fill="#e9ffd3" stroke="black" d="M439,-312.5C439,-312.5 376,-312.5 376,-312.5 370,-312.5 364,-306.5 364,-300.5 364,-300.5 364,-288.5 364,-288.5 364,-282.5 370,-276.5 376,-276.5 376,-276.5 439,-276.5 439,-276.5 445,-276.5 451,-282.5 451,-288.5 451,-288.5 451,-300.5 451,-300.5 451,-306.5 445,-312.5 439,-312.5"/>
<text text-anchor="middle" x="407.5" y="-290.8" font-family="Times,serif" font-size="14.00">conv block 0</text>
</g>
<!-- 0&#45;&gt;1 -->
<g id="edge1" class="edge"><title>0&#45;&gt;1</title>
<path fill="none" stroke="black" d="M1067.9,-370.311C901.268,-351.435 586.905,-315.823 461.318,-301.597"/>
<polygon fill="black" stroke="black" points="461.512,-298.096 451.182,-300.448 460.724,-305.052 461.512,-298.096"/>
</g>
<!-- 2 -->
<g id="node3" class="node"><title>2</title>
<path fill="#e9ffd3" stroke="black" d="M862,-321C862,-321 735,-321 735,-321 729,-321 723,-315 723,-309 723,-309 723,-280 723,-280 723,-274 729,-268 735,-268 735,-268 862,-268 862,-268 868,-268 874,-274 874,-280 874,-280 874,-309 874,-309 874,-315 868,-321 862,-321"/>
<text text-anchor="middle" x="798.5" y="-305.8" font-family="Times,serif" font-size="14.00">conv block 1</text>
<text text-anchor="middle" x="798.5" y="-290.8" font-family="Times,serif" font-size="14.00">n kernels: &#45;19 &#160;&#160;pool z: 1</text>
<text text-anchor="middle" x="798.5" y="-275.8" font-family="Times,serif" font-size="14.00">spatial scale: 1</text>
</g>
<!-- 0&#45;&gt;2 -->
<g id="edge2" class="edge"><title>0&#45;&gt;2</title>
<path fill="none" stroke="black" d="M1067.97,-357.686C1009.68,-344.234 938.637,-327.839 884.132,-315.261"/>
<polygon fill="black" stroke="black" points="884.685,-311.797 874.155,-312.959 883.111,-318.618 884.685,-311.797"/>
</g>
<!-- 3 -->
<g id="node4" class="node"><title>3</title>
<path fill="#e9ffd3" stroke="black" d="M1307,-321C1307,-321 1044,-321 1044,-321 1038,-321 1032,-315 1032,-309 1032,-309 1032,-280 1032,-280 1032,-274 1038,-268 1044,-268 1044,-268 1307,-268 1307,-268 1313,-268 1319,-274 1319,-280 1319,-280 1319,-309 1319,-309 1319,-315 1313,-321 1307,-321"/>
<text text-anchor="middle" x="1175.5" y="-305.8" font-family="Times,serif" font-size="14.00">conv block 2</text>
<text text-anchor="middle" x="1175.5" y="-290.8" font-family="Times,serif" font-size="14.00">log gamma1: 0.456716 &#160;&#160;log gamma2: &#45;0.026643</text>
<text text-anchor="middle" x="1175.5" y="-275.8" font-family="Times,serif" font-size="14.00">n kernels: &#45;3 &#160;&#160;spatial scale: 2</text>
</g>
<!-- 0&#45;&gt;3 -->
<g id="edge3" class="edge"><title>0&#45;&gt;3</title>
<path fill="none" stroke="black" d="M1175.5,-356.868C1175.5,-348.886 1175.5,-339.932 1175.5,-331.384"/>
<polygon fill="black" stroke="black" points="1179,-331.25 1175.5,-321.25 1172,-331.25 1179,-331.25"/>
</g>
<!-- 4 -->
<g id="node5" class="node"><title>4</title>
<path fill="#e9ffd3" stroke="black" d="M1783,-321C1783,-321 1570,-321 1570,-321 1564,-321 1558,-315 1558,-309 1558,-309 1558,-280 1558,-280 1558,-274 1564,-268 1570,-268 1570,-268 1783,-268 1783,-268 1789,-268 1795,-274 1795,-280 1795,-280 1795,-309 1795,-309 1795,-315 1789,-321 1783,-321"/>
<text text-anchor="middle" x="1676.5" y="-305.8" font-family="Times,serif" font-size="14.00">conv block 3</text>
<text text-anchor="middle" x="1676.5" y="-290.8" font-family="Times,serif" font-size="14.00">log gamma2: &#45;0.613874 &#160;&#160;n kernels: 644</text>
<text text-anchor="middle" x="1676.5" y="-275.8" font-family="Times,serif" font-size="14.00">spatial scale: 3</text>
</g>
<!-- 0&#45;&gt;4 -->
<g id="edge4" class="edge"><title>0&#45;&gt;4</title>
<path fill="none" stroke="black" d="M1283.28,-363.783C1360.94,-350.298 1466.06,-332.044 1548.07,-317.803"/>
<polygon fill="black" stroke="black" points="1548.7,-321.246 1557.95,-316.086 1547.5,-314.349 1548.7,-321.246"/>
</g>
<!-- 5 -->
<g id="node6" class="node"><title>5</title>
<path fill="#e9ffd3" stroke="black" d="M2441,-312.5C2441,-312.5 2374,-312.5 2374,-312.5 2368,-312.5 2362,-306.5 2362,-300.5 2362,-300.5 2362,-288.5 2362,-288.5 2362,-282.5 2368,-276.5 2374,-276.5 2374,-276.5 2441,-276.5 2441,-276.5 2447,-276.5 2453,-282.5 2453,-288.5 2453,-288.5 2453,-300.5 2453,-300.5 2453,-306.5 2447,-312.5 2441,-312.5"/>
<text text-anchor="middle" x="2407.5" y="-290.8" font-family="Times,serif" font-size="14.00">path combine</text>
</g>
<!-- 0&#45;&gt;5 -->
<g id="edge5" class="edge"><title>0&#45;&gt;5</title>
<path fill="none" stroke="black" d="M1283.21,-374.894C1536.24,-357.026 2161.48,-312.873 2351.7,-299.44"/>
<polygon fill="black" stroke="black" points="2352.03,-302.926 2361.76,-298.73 2351.53,-295.944 2352.03,-302.926"/>
</g>
<!-- 6 -->
<g id="node7" class="node"><title>6</title>
<path fill="#d3ffff" stroke="black" d="M277.5,-202C277.5,-202 157.5,-202 157.5,-202 151.5,-202 145.5,-196 145.5,-190 145.5,-190 145.5,-176 145.5,-176 145.5,-170 151.5,-164 157.5,-164 157.5,-164 277.5,-164 277.5,-164 283.5,-164 289.5,-170 289.5,-176 289.5,-176 289.5,-190 289.5,-190 289.5,-196 283.5,-202 277.5,-202"/>
<text text-anchor="middle" x="217.5" y="-186.8" font-family="Times,serif" font-size="14.00">comp 0</text>
<text text-anchor="middle" x="217.5" y="-171.8" font-family="Times,serif" font-size="14.00">log gamma2: 0.330826</text>
</g>
<!-- 1&#45;&gt;6 -->
<g id="edge6" class="edge"><title>1&#45;&gt;6</title>
<path fill="none" stroke="black" d="M377.812,-276.391C345.484,-257.759 293.597,-227.856 257.649,-207.138"/>
<polygon fill="black" stroke="black" points="259.286,-204.043 248.875,-202.082 255.791,-210.107 259.286,-204.043"/>
</g>
<!-- 7 -->
<g id="node8" class="node"><title>7</title>
<path fill="#d3ffff" stroke="black" d="M648,-202C648,-202 385,-202 385,-202 379,-202 373,-196 373,-190 373,-190 373,-176 373,-176 373,-170 379,-164 385,-164 385,-164 648,-164 648,-164 654,-164 660,-170 660,-176 660,-176 660,-190 660,-190 660,-196 654,-202 648,-202"/>
<text text-anchor="middle" x="516.5" y="-186.8" font-family="Times,serif" font-size="14.00">comp 0</text>
<text text-anchor="middle" x="516.5" y="-171.8" font-family="Times,serif" font-size="14.00">log gamma1: 0.023584 &#160;&#160;log gamma2: &#45;0.705488</text>
</g>
<!-- 2&#45;&gt;7 -->
<g id="edge7" class="edge"><title>2&#45;&gt;7</title>
<path fill="none" stroke="black" d="M732.739,-267.965C684.117,-249.085 618.614,-223.651 572.485,-205.739"/>
<polygon fill="black" stroke="black" points="573.537,-202.393 562.948,-202.036 571.003,-208.918 573.537,-202.393"/>
</g>
<!-- 8 -->
<g id="node9" class="node"><title>8</title>
<path fill="#bfe6e6" stroke="black" d="M865.5,-202C865.5,-202 731.5,-202 731.5,-202 725.5,-202 719.5,-196 719.5,-190 719.5,-190 719.5,-176 719.5,-176 719.5,-170 725.5,-164 731.5,-164 731.5,-164 865.5,-164 865.5,-164 871.5,-164 877.5,-170 877.5,-176 877.5,-176 877.5,-190 877.5,-190 877.5,-196 871.5,-202 865.5,-202"/>
<text text-anchor="middle" x="798.5" y="-186.8" font-family="Times,serif" font-size="14.00">path end 1</text>
<text text-anchor="middle" x="798.5" y="-171.8" font-family="Times,serif" font-size="14.00">k width: &#45;2 &#160;&#160;n kernels: 19</text>
</g>
<!-- 2&#45;&gt;8 -->
<g id="edge8" class="edge"><title>2&#45;&gt;8</title>
<path fill="none" stroke="black" d="M798.5,-267.827C798.5,-251.18 798.5,-229.482 798.5,-212.332"/>
<polygon fill="black" stroke="black" points="802,-212.327 798.5,-202.327 795,-212.327 802,-212.327"/>
</g>
<!-- 9 -->
<g id="node10" class="node"><title>9</title>
<path fill="#d3ffff" stroke="black" d="M1222,-202C1222,-202 1097,-202 1097,-202 1091,-202 1085,-196 1085,-190 1085,-190 1085,-176 1085,-176 1085,-170 1091,-164 1097,-164 1097,-164 1222,-164 1222,-164 1228,-164 1234,-170 1234,-176 1234,-176 1234,-190 1234,-190 1234,-196 1228,-202 1222,-202"/>
<text text-anchor="middle" x="1159.5" y="-186.8" font-family="Times,serif" font-size="14.00">comp 0</text>
<text text-anchor="middle" x="1159.5" y="-171.8" font-family="Times,serif" font-size="14.00">log gamma1: &#45;1.260509</text>
</g>
<!-- 3&#45;&gt;9 -->
<g id="edge9" class="edge"><title>3&#45;&gt;9</title>
<path fill="none" stroke="black" d="M1171.75,-267.827C1169.32,-251.18 1166.15,-229.482 1163.64,-212.332"/>
<polygon fill="black" stroke="black" points="1167.09,-211.716 1162.18,-202.327 1160.16,-212.728 1167.09,-211.716"/>
</g>
<!-- 10 -->
<g id="node11" class="node"><title>10</title>
<path fill="#bfe6e6" stroke="black" d="M1469.5,-202C1469.5,-202 1341.5,-202 1341.5,-202 1335.5,-202 1329.5,-196 1329.5,-190 1329.5,-190 1329.5,-176 1329.5,-176 1329.5,-170 1335.5,-164 1341.5,-164 1341.5,-164 1469.5,-164 1469.5,-164 1475.5,-164 1481.5,-170 1481.5,-176 1481.5,-176 1481.5,-190 1481.5,-190 1481.5,-196 1475.5,-202 1469.5,-202"/>
<text text-anchor="middle" x="1405.5" y="-186.8" font-family="Times,serif" font-size="14.00">path end 2</text>
<text text-anchor="middle" x="1405.5" y="-171.8" font-family="Times,serif" font-size="14.00">k width: &#45;2 &#160;&#160;n kernels: 3</text>
</g>
<!-- 3&#45;&gt;10 -->
<g id="edge10" class="edge"><title>3&#45;&gt;10</title>
<path fill="none" stroke="black" d="M1229.13,-267.965C1268.29,-249.322 1320.88,-224.288 1358.41,-206.417"/>
<polygon fill="black" stroke="black" points="1360.09,-209.494 1367.62,-202.036 1357.08,-203.174 1360.09,-209.494"/>
</g>
<!-- 11 -->
<g id="node12" class="node"><title>11</title>
<path fill="#d3ffff" stroke="black" d="M1713.5,-202C1713.5,-202 1639.5,-202 1639.5,-202 1633.5,-202 1627.5,-196 1627.5,-190 1627.5,-190 1627.5,-176 1627.5,-176 1627.5,-170 1633.5,-164 1639.5,-164 1639.5,-164 1713.5,-164 1713.5,-164 1719.5,-164 1725.5,-170 1725.5,-176 1725.5,-176 1725.5,-190 1725.5,-190 1725.5,-196 1719.5,-202 1713.5,-202"/>
<text text-anchor="middle" x="1676.5" y="-186.8" font-family="Times,serif" font-size="14.00">comp 0</text>
<text text-anchor="middle" x="1676.5" y="-171.8" font-family="Times,serif" font-size="14.00">n kernels: &#45;608</text>
</g>
<!-- 4&#45;&gt;11 -->
<g id="edge11" class="edge"><title>4&#45;&gt;11</title>
<path fill="none" stroke="black" d="M1676.5,-267.827C1676.5,-251.18 1676.5,-229.482 1676.5,-212.332"/>
<polygon fill="black" stroke="black" points="1680,-212.327 1676.5,-202.327 1673,-212.327 1680,-212.327"/>
</g>
<!-- 12 -->
<g id="node13" class="node"><title>12</title>
<path fill="#bfe6e6" stroke="black" d="M1901.5,-202C1901.5,-202 1755.5,-202 1755.5,-202 1749.5,-202 1743.5,-196 1743.5,-190 1743.5,-190 1743.5,-176 1743.5,-176 1743.5,-170 1749.5,-164 1755.5,-164 1755.5,-164 1901.5,-164 1901.5,-164 1907.5,-164 1913.5,-170 1913.5,-176 1913.5,-176 1913.5,-190 1913.5,-190 1913.5,-196 1907.5,-202 1901.5,-202"/>
<text text-anchor="middle" x="1828.5" y="-186.8" font-family="Times,serif" font-size="14.00">path end 3</text>
<text text-anchor="middle" x="1828.5" y="-171.8" font-family="Times,serif" font-size="14.00">k width: &#45;2 &#160;&#160;n kernels: &#45;644</text>
</g>
<!-- 4&#45;&gt;12 -->
<g id="edge12" class="edge"><title>4&#45;&gt;12</title>
<path fill="none" stroke="black" d="M1712.14,-267.827C1737.1,-249.846 1770.24,-225.969 1794.77,-208.299"/>
<polygon fill="black" stroke="black" points="1796.99,-211.012 1803.06,-202.327 1792.9,-205.332 1796.99,-211.012"/>
</g>
<!-- 13 -->
<g id="node14" class="node"><title>13</title>
<path fill="#d3ffff" stroke="black" d="M2225,-232C2225,-232 1944,-232 1944,-232 1938,-232 1932,-226 1932,-220 1932,-220 1932,-146 1932,-146 1932,-140 1938,-134 1944,-134 1944,-134 2225,-134 2225,-134 2231,-134 2237,-140 2237,-146 2237,-146 2237,-220 2237,-220 2237,-226 2231,-232 2225,-232"/>
<text text-anchor="middle" x="2084.5" y="-216.8" font-family="Times,serif" font-size="14.00">forward</text>
<text text-anchor="middle" x="2084.5" y="-201.8" font-family="Times,serif" font-size="14.00">CB0/C0</text>
<text text-anchor="middle" x="2084.5" y="-186.8" font-family="Times,serif" font-size="14.00">dilation rate: 1 &#160;&#160;k width: 3</text>
<text text-anchor="middle" x="2084.5" y="-171.8" font-family="Times,serif" font-size="14.00">log gamma1: &#45;11.000000 &#160;&#160;log gamma2: &#45;11.000000</text>
<text text-anchor="middle" x="2084.5" y="-156.8" font-family="Times,serif" font-size="14.00">log lambda1: &#45;11.000000 &#160;&#160;log lambda2: &#45;11.000000</text>
<text text-anchor="middle" x="2084.5" y="-141.8" font-family="Times,serif" font-size="14.00">n kernels: 64</text>
</g>
<!-- 5&#45;&gt;13 -->
<g id="edge13" class="edge"><title>5&#45;&gt;13</title>
<path fill="none" stroke="black" d="M2361.91,-278.044C2328.79,-266.816 2281.92,-250.928 2236.12,-235.402"/>
<polygon fill="black" stroke="black" points="2236.97,-231.991 2226.37,-232.096 2234.72,-238.621 2236.97,-231.991"/>
</g>
<!-- 14 -->
<g id="node15" class="node"><title>14</title>
<path fill="#bfe6e6" stroke="black" d="M2548,-232C2548,-232 2267,-232 2267,-232 2261,-232 2255,-226 2255,-220 2255,-220 2255,-146 2255,-146 2255,-140 2261,-134 2267,-134 2267,-134 2548,-134 2548,-134 2554,-134 2560,-140 2560,-146 2560,-146 2560,-220 2560,-220 2560,-226 2554,-232 2548,-232"/>
<text text-anchor="middle" x="2407.5" y="-216.8" font-family="Times,serif" font-size="14.00">merge 1</text>
<text text-anchor="middle" x="2407.5" y="-201.8" font-family="Times,serif" font-size="14.00">CB1/PE1</text>
<text text-anchor="middle" x="2407.5" y="-186.8" font-family="Times,serif" font-size="14.00">dilation rate: 1 &#160;&#160;k width: 3</text>
<text text-anchor="middle" x="2407.5" y="-171.8" font-family="Times,serif" font-size="14.00">log gamma1: &#45;11.000000 &#160;&#160;log gamma2: &#45;11.000000</text>
<text text-anchor="middle" x="2407.5" y="-156.8" font-family="Times,serif" font-size="14.00">log lambda1: &#45;11.000000 &#160;&#160;log lambda2: &#45;11.000000</text>
<text text-anchor="middle" x="2407.5" y="-141.8" font-family="Times,serif" font-size="14.00">n kernels: 64</text>
</g>
<!-- 5&#45;&gt;14 -->
<g id="edge14" class="edge"><title>5&#45;&gt;14</title>
<path fill="none" stroke="black" d="M2407.5,-276.391C2407.5,-266.993 2407.5,-254.728 2407.5,-242.22"/>
<polygon fill="black" stroke="black" points="2411,-242.188 2407.5,-232.188 2404,-242.188 2411,-242.188"/>
</g>
<!-- 15 -->
<g id="node16" class="node"><title>15</title>
<path fill="#abcece" stroke="black" d="M2871,-232C2871,-232 2590,-232 2590,-232 2584,-232 2578,-226 2578,-220 2578,-220 2578,-146 2578,-146 2578,-140 2584,-134 2590,-134 2590,-134 2871,-134 2871,-134 2877,-134 2883,-140 2883,-146 2883,-146 2883,-220 2883,-220 2883,-226 2877,-232 2871,-232"/>
<text text-anchor="middle" x="2730.5" y="-216.8" font-family="Times,serif" font-size="14.00">merge 2</text>
<text text-anchor="middle" x="2730.5" y="-201.8" font-family="Times,serif" font-size="14.00">CB2/PE2</text>
<text text-anchor="middle" x="2730.5" y="-186.8" font-family="Times,serif" font-size="14.00">dilation rate: 1 &#160;&#160;k width: 3</text>
<text text-anchor="middle" x="2730.5" y="-171.8" font-family="Times,serif" font-size="14.00">log gamma1: &#45;11.000000 &#160;&#160;log gamma2: &#45;11.000000</text>
<text text-anchor="middle" x="2730.5" y="-156.8" font-family="Times,serif" font-size="14.00">log lambda1: &#45;11.000000 &#160;&#160;log lambda2: &#45;11.000000</text>
<text text-anchor="middle" x="2730.5" y="-141.8" font-family="Times,serif" font-size="14.00">n kernels: 64</text>
</g>
<!-- 5&#45;&gt;15 -->
<g id="edge15" class="edge"><title>5&#45;&gt;15</title>
<path fill="none" stroke="black" d="M2453.09,-278.044C2486.21,-266.816 2533.08,-250.928 2578.88,-235.402"/>
<polygon fill="black" stroke="black" points="2580.28,-238.621 2588.63,-232.096 2578.03,-231.991 2580.28,-238.621"/>
</g>
<!-- 16 -->
<g id="node17" class="node"><title>16</title>
<path fill="#97b6b6" stroke="black" d="M3194,-232C3194,-232 2913,-232 2913,-232 2907,-232 2901,-226 2901,-220 2901,-220 2901,-146 2901,-146 2901,-140 2907,-134 2913,-134 2913,-134 3194,-134 3194,-134 3200,-134 3206,-140 3206,-146 3206,-146 3206,-220 3206,-220 3206,-226 3200,-232 3194,-232"/>
<text text-anchor="middle" x="3053.5" y="-216.8" font-family="Times,serif" font-size="14.00">merge 3</text>
<text text-anchor="middle" x="3053.5" y="-201.8" font-family="Times,serif" font-size="14.00">CB3/PE3</text>
<text text-anchor="middle" x="3053.5" y="-186.8" font-family="Times,serif" font-size="14.00">dilation rate: 1 &#160;&#160;k width: 3</text>
<text text-anchor="middle" x="3053.5" y="-171.8" font-family="Times,serif" font-size="14.00">log gamma1: &#45;11.000000 &#160;&#160;log gamma2: &#45;11.000000</text>
<text text-anchor="middle" x="3053.5" y="-156.8" font-family="Times,serif" font-size="14.00">log lambda1: &#45;11.000000 &#160;&#160;log lambda2: &#45;11.000000</text>
<text text-anchor="middle" x="3053.5" y="-141.8" font-family="Times,serif" font-size="14.00">n kernels: 64</text>
</g>
<!-- 5&#45;&gt;16 -->
<g id="edge16" class="edge"><title>5&#45;&gt;16</title>
<path fill="none" stroke="black" d="M2453.05,-290.225C2537.77,-283.593 2725.33,-266.376 2890.83,-232.274"/>
<polygon fill="black" stroke="black" points="2891.62,-235.685 2900.69,-230.216 2890.19,-228.832 2891.62,-235.685"/>
</g>
<!-- 17 -->
<g id="node18" class="node"><title>17</title>
<path fill="#e9d3ff" stroke="black" d="M293,-98C293,-98 12,-98 12,-98 6,-98 0,-92 0,-86 0,-86 0,-12 0,-12 0,-6 6,-0 12,-0 12,-0 293,-0 293,-0 299,-0 305,-6 305,-12 305,-12 305,-86 305,-86 305,-92 299,-98 293,-98"/>
<text text-anchor="middle" x="152.5" y="-82.8" font-family="Times,serif" font-size="14.00">forward</text>
<text text-anchor="middle" x="152.5" y="-67.8" font-family="Times,serif" font-size="14.00">input</text>
<text text-anchor="middle" x="152.5" y="-52.8" font-family="Times,serif" font-size="14.00">dilation rate: 1 &#160;&#160;k width: 3</text>
<text text-anchor="middle" x="152.5" y="-37.8" font-family="Times,serif" font-size="14.00">log gamma1: &#45;11.000000 &#160;&#160;log gamma2: &#45;11.000000</text>
<text text-anchor="middle" x="152.5" y="-22.8" font-family="Times,serif" font-size="14.00">log lambda1: &#45;11.000000 &#160;&#160;log lambda2: &#45;11.000000</text>
<text text-anchor="middle" x="152.5" y="-7.8" font-family="Times,serif" font-size="14.00">n kernels: 64</text>
</g>
<!-- 6&#45;&gt;17 -->
<g id="edge17" class="edge"><title>6&#45;&gt;17</title>
<path fill="none" stroke="black" d="M208.598,-163.923C201.36,-149.223 190.732,-127.641 180.669,-107.205"/>
<polygon fill="black" stroke="black" points="183.809,-105.659 176.251,-98.2336 177.529,-108.751 183.809,-105.659"/>
</g>
<!-- 18 -->
<g id="node19" class="node"><title>18</title>
<path fill="#e9d3ff" stroke="black" d="M616,-98C616,-98 335,-98 335,-98 329,-98 323,-92 323,-86 323,-86 323,-12 323,-12 323,-6 329,-0 335,-0 335,-0 616,-0 616,-0 622,-0 628,-6 628,-12 628,-12 628,-86 628,-86 628,-92 622,-98 616,-98"/>
<text text-anchor="middle" x="475.5" y="-82.8" font-family="Times,serif" font-size="14.00">forward</text>
<text text-anchor="middle" x="475.5" y="-67.8" font-family="Times,serif" font-size="14.00">input</text>
<text text-anchor="middle" x="475.5" y="-52.8" font-family="Times,serif" font-size="14.00">dilation rate: 1 &#160;&#160;k width: 3</text>
<text text-anchor="middle" x="475.5" y="-37.8" font-family="Times,serif" font-size="14.00">log gamma1: &#45;11.000000 &#160;&#160;log gamma2: &#45;11.000000</text>
<text text-anchor="middle" x="475.5" y="-22.8" font-family="Times,serif" font-size="14.00">log lambda1: &#45;11.000000 &#160;&#160;log lambda2: &#45;11.000000</text>
<text text-anchor="middle" x="475.5" y="-7.8" font-family="Times,serif" font-size="14.00">n kernels: 64</text>
</g>
<!-- 7&#45;&gt;18 -->
<g id="edge18" class="edge"><title>7&#45;&gt;18</title>
<path fill="none" stroke="black" d="M510.885,-163.923C506.381,-149.42 499.796,-128.221 493.525,-108.03"/>
<polygon fill="black" stroke="black" points="496.79,-106.745 490.482,-98.2336 490.106,-108.822 496.79,-106.745"/>
</g>
<!-- 19 -->
<g id="node20" class="node"><title>19</title>
<path fill="#e9d3ff" stroke="black" d="M939,-98C939,-98 658,-98 658,-98 652,-98 646,-92 646,-86 646,-86 646,-12 646,-12 646,-6 652,-0 658,-0 658,-0 939,-0 939,-0 945,-0 951,-6 951,-12 951,-12 951,-86 951,-86 951,-92 945,-98 939,-98"/>
<text text-anchor="middle" x="798.5" y="-82.8" font-family="Times,serif" font-size="14.00">forward</text>
<text text-anchor="middle" x="798.5" y="-67.8" font-family="Times,serif" font-size="14.00">CB1/C0</text>
<text text-anchor="middle" x="798.5" y="-52.8" font-family="Times,serif" font-size="14.00">dilation rate: 1 &#160;&#160;k width: 3</text>
<text text-anchor="middle" x="798.5" y="-37.8" font-family="Times,serif" font-size="14.00">log gamma1: &#45;11.000000 &#160;&#160;log gamma2: &#45;11.000000</text>
<text text-anchor="middle" x="798.5" y="-22.8" font-family="Times,serif" font-size="14.00">log lambda1: &#45;11.000000 &#160;&#160;log lambda2: &#45;11.000000</text>
<text text-anchor="middle" x="798.5" y="-7.8" font-family="Times,serif" font-size="14.00">n kernels: 64</text>
</g>
<!-- 8&#45;&gt;19 -->
<g id="edge19" class="edge"><title>8&#45;&gt;19</title>
<path fill="none" stroke="black" d="M798.5,-163.923C798.5,-149.486 798.5,-128.413 798.5,-108.306"/>
<polygon fill="black" stroke="black" points="802,-108.234 798.5,-98.2336 795,-108.234 802,-108.234"/>
</g>
<!-- 20 -->
<g id="node21" class="node"><title>20</title>
<path fill="#e9d3ff" stroke="black" d="M1262,-98C1262,-98 981,-98 981,-98 975,-98 969,-92 969,-86 969,-86 969,-12 969,-12 969,-6 975,-0 981,-0 981,-0 1262,-0 1262,-0 1268,-0 1274,-6 1274,-12 1274,-12 1274,-86 1274,-86 1274,-92 1268,-98 1262,-98"/>
<text text-anchor="middle" x="1121.5" y="-82.8" font-family="Times,serif" font-size="14.00">forward</text>
<text text-anchor="middle" x="1121.5" y="-67.8" font-family="Times,serif" font-size="14.00">input</text>
<text text-anchor="middle" x="1121.5" y="-52.8" font-family="Times,serif" font-size="14.00">dilation rate: 1 &#160;&#160;k width: 3</text>
<text text-anchor="middle" x="1121.5" y="-37.8" font-family="Times,serif" font-size="14.00">log gamma1: &#45;11.000000 &#160;&#160;log gamma2: &#45;11.000000</text>
<text text-anchor="middle" x="1121.5" y="-22.8" font-family="Times,serif" font-size="14.00">log lambda1: &#45;11.000000 &#160;&#160;log lambda2: &#45;11.000000</text>
<text text-anchor="middle" x="1121.5" y="-7.8" font-family="Times,serif" font-size="14.00">n kernels: 64</text>
</g>
<!-- 9&#45;&gt;20 -->
<g id="edge20" class="edge"><title>9&#45;&gt;20</title>
<path fill="none" stroke="black" d="M1154.3,-163.923C1150.12,-149.42 1144.02,-128.221 1138.21,-108.03"/>
<polygon fill="black" stroke="black" points="1141.52,-106.875 1135.39,-98.2336 1134.79,-108.812 1141.52,-106.875"/>
</g>
<!-- 21 -->
<g id="node22" class="node"><title>21</title>
<path fill="#e9d3ff" stroke="black" d="M1585,-98C1585,-98 1304,-98 1304,-98 1298,-98 1292,-92 1292,-86 1292,-86 1292,-12 1292,-12 1292,-6 1298,-0 1304,-0 1304,-0 1585,-0 1585,-0 1591,-0 1597,-6 1597,-12 1597,-12 1597,-86 1597,-86 1597,-92 1591,-98 1585,-98"/>
<text text-anchor="middle" x="1444.5" y="-82.8" font-family="Times,serif" font-size="14.00">forward</text>
<text text-anchor="middle" x="1444.5" y="-67.8" font-family="Times,serif" font-size="14.00">CB2/C0</text>
<text text-anchor="middle" x="1444.5" y="-52.8" font-family="Times,serif" font-size="14.00">dilation rate: 1 &#160;&#160;k width: 3</text>
<text text-anchor="middle" x="1444.5" y="-37.8" font-family="Times,serif" font-size="14.00">log gamma1: &#45;11.000000 &#160;&#160;log gamma2: &#45;11.000000</text>
<text text-anchor="middle" x="1444.5" y="-22.8" font-family="Times,serif" font-size="14.00">log lambda1: &#45;11.000000 &#160;&#160;log lambda2: &#45;11.000000</text>
<text text-anchor="middle" x="1444.5" y="-7.8" font-family="Times,serif" font-size="14.00">n kernels: 64</text>
</g>
<!-- 10&#45;&gt;21 -->
<g id="edge21" class="edge"><title>10&#45;&gt;21</title>
<path fill="none" stroke="black" d="M1410.84,-163.923C1415.13,-149.42 1421.39,-128.221 1427.35,-108.03"/>
<polygon fill="black" stroke="black" points="1430.77,-108.816 1430.25,-98.2336 1424.06,-106.832 1430.77,-108.816"/>
</g>
<!-- 22 -->
<g id="node23" class="node"><title>22</title>
<path fill="#e9d3ff" stroke="black" d="M1908,-98C1908,-98 1627,-98 1627,-98 1621,-98 1615,-92 1615,-86 1615,-86 1615,-12 1615,-12 1615,-6 1621,-0 1627,-0 1627,-0 1908,-0 1908,-0 1914,-0 1920,-6 1920,-12 1920,-12 1920,-86 1920,-86 1920,-92 1914,-98 1908,-98"/>
<text text-anchor="middle" x="1767.5" y="-82.8" font-family="Times,serif" font-size="14.00">forward</text>
<text text-anchor="middle" x="1767.5" y="-67.8" font-family="Times,serif" font-size="14.00">input</text>
<text text-anchor="middle" x="1767.5" y="-52.8" font-family="Times,serif" font-size="14.00">dilation rate: 1 &#160;&#160;k width: 3</text>
<text text-anchor="middle" x="1767.5" y="-37.8" font-family="Times,serif" font-size="14.00">log gamma1: &#45;11.000000 &#160;&#160;log gamma2: &#45;11.000000</text>
<text text-anchor="middle" x="1767.5" y="-22.8" font-family="Times,serif" font-size="14.00">log lambda1: &#45;11.000000 &#160;&#160;log lambda2: &#45;11.000000</text>
<text text-anchor="middle" x="1767.5" y="-7.8" font-family="Times,serif" font-size="14.00">n kernels: 64</text>
</g>
<!-- 11&#45;&gt;22 -->
<g id="edge22" class="edge"><title>11&#45;&gt;22</title>
<path fill="none" stroke="black" d="M1688.96,-163.923C1699.19,-149.091 1714.24,-127.253 1728.44,-106.655"/>
<polygon fill="black" stroke="black" points="1731.45,-108.453 1734.25,-98.2336 1725.69,-104.48 1731.45,-108.453"/>
</g>
<!-- 23 -->
<g id="node24" class="node"><title>23</title>
<path fill="#e9d3ff" stroke="black" d="M2231,-98C2231,-98 1950,-98 1950,-98 1944,-98 1938,-92 1938,-86 1938,-86 1938,-12 1938,-12 1938,-6 1944,-0 1950,-0 1950,-0 2231,-0 2231,-0 2237,-0 2243,-6 2243,-12 2243,-12 2243,-86 2243,-86 2243,-92 2237,-98 2231,-98"/>
<text text-anchor="middle" x="2090.5" y="-82.8" font-family="Times,serif" font-size="14.00">forward</text>
<text text-anchor="middle" x="2090.5" y="-67.8" font-family="Times,serif" font-size="14.00">CB3/C0</text>
<text text-anchor="middle" x="2090.5" y="-52.8" font-family="Times,serif" font-size="14.00">dilation rate: 1 &#160;&#160;k width: 3</text>
<text text-anchor="middle" x="2090.5" y="-37.8" font-family="Times,serif" font-size="14.00">log gamma1: &#45;11.000000 &#160;&#160;log gamma2: &#45;11.000000</text>
<text text-anchor="middle" x="2090.5" y="-22.8" font-family="Times,serif" font-size="14.00">log lambda1: &#45;11.000000 &#160;&#160;log lambda2: &#45;11.000000</text>
<text text-anchor="middle" x="2090.5" y="-7.8" font-family="Times,serif" font-size="14.00">n kernels: 64</text>
</g>
<!-- 12&#45;&gt;23 -->
<g id="edge23" class="edge"><title>12&#45;&gt;23</title>
<path fill="none" stroke="black" d="M1863.73,-163.922C1881.36,-154.898 1903.04,-143.834 1922.5,-134 1942.66,-123.815 1964.2,-112.994 1984.91,-102.625"/>
<polygon fill="black" stroke="black" points="1986.66,-105.661 1994.04,-98.0556 1983.53,-99.4013 1986.66,-105.661"/>
</g>
</g>
</svg>
