<?xml version="1.0" encoding="UTF-8" standalone="no"?>
<!DOCTYPE svg PUBLIC "-//W3C//DTD SVG 1.1//EN"
 "http://www.w3.org/Graphics/SVG/1.1/DTD/svg11.dtd">
<!-- Generated by graphviz version 2.38.0 (20140413.2041)
 -->
<!-- Title: %3 Pages: 1 -->
<svg width="3660pt" height="418pt"
 viewBox="0.00 0.00 3660.00 418.00" xmlns="http://www.w3.org/2000/svg" xmlns:xlink="http://www.w3.org/1999/xlink">
<g id="graph0" class="graph" transform="scale(1 1) rotate(0) translate(4 414)">
<title>%3</title>
<polygon fill="none" stroke="none" points="-4,4 -4,-414 3656,-414 3656,4 -4,4"/>
<!-- 0 -->
<g id="node1" class="node"><title>0</title>
<path fill="#ffd3d3" stroke="black" d="M1853,-410C1853,-410 1662,-410 1662,-410 1656,-410 1650,-404 1650,-398 1650,-398 1650,-369 1650,-369 1650,-363 1656,-357 1662,-357 1662,-357 1853,-357 1853,-357 1859,-357 1865,-363 1865,-369 1865,-369 1865,-398 1865,-398 1865,-404 1859,-410 1853,-410"/>
<text text-anchor="middle" x="1757.5" y="-394.8" font-family="Times,serif" font-size="14.00">net</text>
<text text-anchor="middle" x="1757.5" y="-379.8" font-family="Times,serif" font-size="14.00">k width: 3 &#160;&#160;log gamma2: &#45;6.945768</text>
<text text-anchor="middle" x="1757.5" y="-364.8" font-family="Times,serif" font-size="14.00">n kernels: 101</text>
</g>
<!-- 1 -->
<g id="node2" class="node"><title>1</title>
<path fill="#e9ffd3" stroke="black" d="M507,-312.5C507,-312.5 444,-312.5 444,-312.5 438,-312.5 432,-306.5 432,-300.5 432,-300.5 432,-288.5 432,-288.5 432,-282.5 438,-276.5 444,-276.5 444,-276.5 507,-276.5 507,-276.5 513,-276.5 519,-282.5 519,-288.5 519,-288.5 519,-300.5 519,-300.5 519,-306.5 513,-312.5 507,-312.5"/>
<text text-anchor="middle" x="475.5" y="-290.8" font-family="Times,serif" font-size="14.00">conv block 0</text>
</g>
<!-- 0&#45;&gt;1 -->
<g id="edge1" class="edge"><title>0&#45;&gt;1</title>
<path fill="none" stroke="black" d="M1649.85,-375.195C1387.67,-357.402 723.313,-312.317 529.408,-299.158"/>
<polygon fill="black" stroke="black" points="529.402,-295.65 519.188,-298.465 528.928,-302.634 529.402,-295.65"/>
</g>
<!-- 2 -->
<g id="node3" class="node"><title>2</title>
<path fill="#e9ffd3" stroke="black" d="M1378,-321C1378,-321 1169,-321 1169,-321 1163,-321 1157,-315 1157,-309 1157,-309 1157,-280 1157,-280 1157,-274 1163,-268 1169,-268 1169,-268 1378,-268 1378,-268 1384,-268 1390,-274 1390,-280 1390,-280 1390,-309 1390,-309 1390,-315 1384,-321 1378,-321"/>
<text text-anchor="middle" x="1273.5" y="-305.8" font-family="Times,serif" font-size="14.00">conv block 1</text>
<text text-anchor="middle" x="1273.5" y="-290.8" font-family="Times,serif" font-size="14.00">log gamma1: 0.647259 &#160;&#160;n kernels: 101</text>
<text text-anchor="middle" x="1273.5" y="-275.8" font-family="Times,serif" font-size="14.00">pool z: 1 &#160;&#160;spatial scale: 1</text>
</g>
<!-- 0&#45;&gt;2 -->
<g id="edge2" class="edge"><title>0&#45;&gt;2</title>
<path fill="none" stroke="black" d="M1649.78,-363.138C1576.07,-349.888 1478.04,-332.267 1400.52,-318.332"/>
<polygon fill="black" stroke="black" points="1400.67,-314.803 1390.21,-316.478 1399.43,-321.692 1400.67,-314.803"/>
</g>
<!-- 3 -->
<g id="node4" class="node"><title>3</title>
<path fill="#e9ffd3" stroke="black" d="M2289,-321C2289,-321 2080,-321 2080,-321 2074,-321 2068,-315 2068,-309 2068,-309 2068,-280 2068,-280 2068,-274 2074,-268 2080,-268 2080,-268 2289,-268 2289,-268 2295,-268 2301,-274 2301,-280 2301,-280 2301,-309 2301,-309 2301,-315 2295,-321 2289,-321"/>
<text text-anchor="middle" x="2184.5" y="-305.8" font-family="Times,serif" font-size="14.00">conv block 2</text>
<text text-anchor="middle" x="2184.5" y="-290.8" font-family="Times,serif" font-size="14.00">log gamma2: 0.229759 &#160;&#160;n kernels: 303</text>
<text text-anchor="middle" x="2184.5" y="-275.8" font-family="Times,serif" font-size="14.00">spatial scale: 2</text>
</g>
<!-- 0&#45;&gt;3 -->
<g id="edge3" class="edge"><title>0&#45;&gt;3</title>
<path fill="none" stroke="black" d="M1865.25,-360.546C1923.76,-348.625 1996.44,-333.816 2057.67,-321.341"/>
<polygon fill="black" stroke="black" points="2058.69,-324.706 2067.79,-319.28 2057.29,-317.847 2058.69,-324.706"/>
</g>
<!-- 4 -->
<g id="node5" class="node"><title>4</title>
<path fill="#e9ffd3" stroke="black" d="M3048,-312.5C3048,-312.5 2981,-312.5 2981,-312.5 2975,-312.5 2969,-306.5 2969,-300.5 2969,-300.5 2969,-288.5 2969,-288.5 2969,-282.5 2975,-276.5 2981,-276.5 2981,-276.5 3048,-276.5 3048,-276.5 3054,-276.5 3060,-282.5 3060,-288.5 3060,-288.5 3060,-300.5 3060,-300.5 3060,-306.5 3054,-312.5 3048,-312.5"/>
<text text-anchor="middle" x="3014.5" y="-290.8" font-family="Times,serif" font-size="14.00">path combine</text>
</g>
<!-- 0&#45;&gt;4 -->
<g id="edge4" class="edge"><title>0&#45;&gt;4</title>
<path fill="none" stroke="black" d="M1865.21,-375.045C2122.41,-357.244 2765.29,-312.748 2958.63,-299.367"/>
<polygon fill="black" stroke="black" points="2959.11,-302.842 2968.84,-298.66 2958.63,-295.859 2959.11,-302.842"/>
</g>
<!-- 5 -->
<g id="node6" class="node"><title>5</title>
<path fill="#d3ffff" stroke="black" d="M314.5,-202C314.5,-202 194.5,-202 194.5,-202 188.5,-202 182.5,-196 182.5,-190 182.5,-190 182.5,-176 182.5,-176 182.5,-170 188.5,-164 194.5,-164 194.5,-164 314.5,-164 314.5,-164 320.5,-164 326.5,-170 326.5,-176 326.5,-176 326.5,-190 326.5,-190 326.5,-196 320.5,-202 314.5,-202"/>
<text text-anchor="middle" x="254.5" y="-186.8" font-family="Times,serif" font-size="14.00">comp 0</text>
<text text-anchor="middle" x="254.5" y="-171.8" font-family="Times,serif" font-size="14.00">log gamma2: 1.070079</text>
</g>
<!-- 1&#45;&gt;5 -->
<g id="edge5" class="edge"><title>1&#45;&gt;5</title>
<path fill="none" stroke="black" d="M440.969,-276.391C403.047,-257.601 341.988,-227.348 300.141,-206.614"/>
<polygon fill="black" stroke="black" points="301.508,-203.385 290.994,-202.082 298.4,-209.658 301.508,-203.385"/>
</g>
<!-- 6 -->
<g id="node7" class="node"><title>6</title>
<path fill="#bfe6e6" stroke="black" d="M492.5,-201C492.5,-201 458.5,-201 458.5,-201 452.5,-201 446.5,-195 446.5,-189 446.5,-189 446.5,-177 446.5,-177 446.5,-171 452.5,-165 458.5,-165 458.5,-165 492.5,-165 492.5,-165 498.5,-165 504.5,-171 504.5,-177 504.5,-177 504.5,-189 504.5,-189 504.5,-195 498.5,-201 492.5,-201"/>
<text text-anchor="middle" x="475.5" y="-179.3" font-family="Times,serif" font-size="14.00">comp 1</text>
</g>
<!-- 1&#45;&gt;6 -->
<g id="edge6" class="edge"><title>1&#45;&gt;6</title>
<path fill="none" stroke="black" d="M475.5,-276.391C475.5,-259.055 475.5,-231.962 475.5,-211.588"/>
<polygon fill="black" stroke="black" points="479,-211.351 475.5,-201.351 472,-211.351 479,-211.351"/>
</g>
<!-- 7 -->
<g id="node8" class="node"><title>7</title>
<path fill="#d3ffff" stroke="black" d="M890.5,-201C890.5,-201 856.5,-201 856.5,-201 850.5,-201 844.5,-195 844.5,-189 844.5,-189 844.5,-177 844.5,-177 844.5,-171 850.5,-165 856.5,-165 856.5,-165 890.5,-165 890.5,-165 896.5,-165 902.5,-171 902.5,-177 902.5,-177 902.5,-189 902.5,-189 902.5,-195 896.5,-201 890.5,-201"/>
<text text-anchor="middle" x="873.5" y="-179.3" font-family="Times,serif" font-size="14.00">comp 0</text>
</g>
<!-- 2&#45;&gt;7 -->
<g id="edge7" class="edge"><title>2&#45;&gt;7</title>
<path fill="none" stroke="black" d="M1156.72,-273.51C1104.38,-263.246 1042.24,-249.243 987.5,-232 961.807,-223.907 933.923,-212.22 912.163,-202.405"/>
<polygon fill="black" stroke="black" points="913.482,-199.16 902.932,-198.188 910.573,-205.527 913.482,-199.16"/>
</g>
<!-- 8 -->
<g id="node9" class="node"><title>8</title>
<path fill="#bfe6e6" stroke="black" d="M1272,-202C1272,-202 1009,-202 1009,-202 1003,-202 997,-196 997,-190 997,-190 997,-176 997,-176 997,-170 1003,-164 1009,-164 1009,-164 1272,-164 1272,-164 1278,-164 1284,-170 1284,-176 1284,-176 1284,-190 1284,-190 1284,-196 1278,-202 1272,-202"/>
<text text-anchor="middle" x="1140.5" y="-186.8" font-family="Times,serif" font-size="14.00">comp 1</text>
<text text-anchor="middle" x="1140.5" y="-171.8" font-family="Times,serif" font-size="14.00">log gamma1: &#45;1.339937 &#160;&#160;log gamma2: 1.682677</text>
</g>
<!-- 2&#45;&gt;8 -->
<g id="edge8" class="edge"><title>2&#45;&gt;8</title>
<path fill="none" stroke="black" d="M1242.32,-267.827C1220.67,-250.003 1191.98,-226.386 1170.58,-208.763"/>
<polygon fill="black" stroke="black" points="1172.7,-205.981 1162.76,-202.327 1168.26,-211.385 1172.7,-205.981"/>
</g>
<!-- 9 -->
<g id="node10" class="node"><title>9</title>
<path fill="#abcece" stroke="black" d="M1479.5,-202C1479.5,-202 1333.5,-202 1333.5,-202 1327.5,-202 1321.5,-196 1321.5,-190 1321.5,-190 1321.5,-176 1321.5,-176 1321.5,-170 1327.5,-164 1333.5,-164 1333.5,-164 1479.5,-164 1479.5,-164 1485.5,-164 1491.5,-170 1491.5,-176 1491.5,-176 1491.5,-190 1491.5,-190 1491.5,-196 1485.5,-202 1479.5,-202"/>
<text text-anchor="middle" x="1406.5" y="-186.8" font-family="Times,serif" font-size="14.00">path end 1</text>
<text text-anchor="middle" x="1406.5" y="-171.8" font-family="Times,serif" font-size="14.00">k width: &#45;2 &#160;&#160;n kernels: &#45;101</text>
</g>
<!-- 2&#45;&gt;9 -->
<g id="edge9" class="edge"><title>2&#45;&gt;9</title>
<path fill="none" stroke="black" d="M1304.68,-267.827C1326.33,-250.003 1355.02,-226.386 1376.42,-208.763"/>
<polygon fill="black" stroke="black" points="1378.74,-211.385 1384.24,-202.327 1374.3,-205.981 1378.74,-211.385"/>
</g>
<!-- 10 -->
<g id="node11" class="node"><title>10</title>
<path fill="#d3ffff" stroke="black" d="M1871.5,-202C1871.5,-202 1797.5,-202 1797.5,-202 1791.5,-202 1785.5,-196 1785.5,-190 1785.5,-190 1785.5,-176 1785.5,-176 1785.5,-170 1791.5,-164 1797.5,-164 1797.5,-164 1871.5,-164 1871.5,-164 1877.5,-164 1883.5,-170 1883.5,-176 1883.5,-176 1883.5,-190 1883.5,-190 1883.5,-196 1877.5,-202 1871.5,-202"/>
<text text-anchor="middle" x="1834.5" y="-186.8" font-family="Times,serif" font-size="14.00">comp 0</text>
<text text-anchor="middle" x="1834.5" y="-171.8" font-family="Times,serif" font-size="14.00">n kernels: &#45;276</text>
</g>
<!-- 3&#45;&gt;10 -->
<g id="edge10" class="edge"><title>3&#45;&gt;10</title>
<path fill="none" stroke="black" d="M2083.53,-267.986C2044.81,-257.626 2000.36,-245.033 1960.5,-232 1936.56,-224.175 1910.49,-214.45 1888.31,-205.804"/>
<polygon fill="black" stroke="black" points="1889.32,-202.442 1878.74,-202.046 1886.77,-208.958 1889.32,-202.442"/>
</g>
<!-- 11 -->
<g id="node12" class="node"><title>11</title>
<path fill="#bfe6e6" stroke="black" d="M2199.5,-202C2199.5,-202 1981.5,-202 1981.5,-202 1975.5,-202 1969.5,-196 1969.5,-190 1969.5,-190 1969.5,-176 1969.5,-176 1969.5,-170 1975.5,-164 1981.5,-164 1981.5,-164 2199.5,-164 2199.5,-164 2205.5,-164 2211.5,-170 2211.5,-176 2211.5,-176 2211.5,-190 2211.5,-190 2211.5,-196 2205.5,-202 2199.5,-202"/>
<text text-anchor="middle" x="2090.5" y="-186.8" font-family="Times,serif" font-size="14.00">comp 1</text>
<text text-anchor="middle" x="2090.5" y="-171.8" font-family="Times,serif" font-size="14.00">log gamma2: &#45;0.019985 &#160;&#160;n kernels: &#45;276</text>
</g>
<!-- 3&#45;&gt;11 -->
<g id="edge11" class="edge"><title>3&#45;&gt;11</title>
<path fill="none" stroke="black" d="M2162.46,-267.827C2147.5,-250.395 2127.78,-227.423 2112.76,-209.936"/>
<polygon fill="black" stroke="black" points="2115.4,-207.635 2106.23,-202.327 2110.09,-212.194 2115.4,-207.635"/>
</g>
<!-- 12 -->
<g id="node13" class="node"><title>12</title>
<path fill="#abcece" stroke="black" d="M2315.5,-202C2315.5,-202 2241.5,-202 2241.5,-202 2235.5,-202 2229.5,-196 2229.5,-190 2229.5,-190 2229.5,-176 2229.5,-176 2229.5,-170 2235.5,-164 2241.5,-164 2241.5,-164 2315.5,-164 2315.5,-164 2321.5,-164 2327.5,-170 2327.5,-176 2327.5,-176 2327.5,-190 2327.5,-190 2327.5,-196 2321.5,-202 2315.5,-202"/>
<text text-anchor="middle" x="2278.5" y="-186.8" font-family="Times,serif" font-size="14.00">comp 2</text>
<text text-anchor="middle" x="2278.5" y="-171.8" font-family="Times,serif" font-size="14.00">n kernels: &#45;276</text>
</g>
<!-- 3&#45;&gt;12 -->
<g id="edge12" class="edge"><title>3&#45;&gt;12</title>
<path fill="none" stroke="black" d="M2206.54,-267.827C2221.5,-250.395 2241.22,-227.423 2256.24,-209.936"/>
<polygon fill="black" stroke="black" points="2258.91,-212.194 2262.77,-202.327 2253.6,-207.635 2258.91,-212.194"/>
</g>
<!-- 13 -->
<g id="node14" class="node"><title>13</title>
<path fill="#97b6b6" stroke="black" d="M2482,-202C2482,-202 2357,-202 2357,-202 2351,-202 2345,-196 2345,-190 2345,-190 2345,-176 2345,-176 2345,-170 2351,-164 2357,-164 2357,-164 2482,-164 2482,-164 2488,-164 2494,-170 2494,-176 2494,-176 2494,-190 2494,-190 2494,-196 2488,-202 2482,-202"/>
<text text-anchor="middle" x="2419.5" y="-186.8" font-family="Times,serif" font-size="14.00">comp 3</text>
<text text-anchor="middle" x="2419.5" y="-171.8" font-family="Times,serif" font-size="14.00">log gamma1: &#45;0.780919</text>
</g>
<!-- 3&#45;&gt;13 -->
<g id="edge13" class="edge"><title>3&#45;&gt;13</title>
<path fill="none" stroke="black" d="M2253.49,-267.946C2279.82,-257.581 2309.9,-244.995 2336.5,-232 2351.59,-224.628 2367.68,-215.611 2381.64,-207.39"/>
<polygon fill="black" stroke="black" points="2383.67,-210.254 2390.47,-202.129 2380.08,-204.241 2383.67,-210.254"/>
</g>
<!-- 14 -->
<g id="node15" class="node"><title>14</title>
<path fill="#839e9e" stroke="black" d="M2670.5,-202C2670.5,-202 2524.5,-202 2524.5,-202 2518.5,-202 2512.5,-196 2512.5,-190 2512.5,-190 2512.5,-176 2512.5,-176 2512.5,-170 2518.5,-164 2524.5,-164 2524.5,-164 2670.5,-164 2670.5,-164 2676.5,-164 2682.5,-170 2682.5,-176 2682.5,-176 2682.5,-190 2682.5,-190 2682.5,-196 2676.5,-202 2670.5,-202"/>
<text text-anchor="middle" x="2597.5" y="-186.8" font-family="Times,serif" font-size="14.00">path end 2</text>
<text text-anchor="middle" x="2597.5" y="-171.8" font-family="Times,serif" font-size="14.00">k width: &#45;2 &#160;&#160;n kernels: &#45;303</text>
</g>
<!-- 3&#45;&gt;14 -->
<g id="edge14" class="edge"><title>3&#45;&gt;14</title>
<path fill="none" stroke="black" d="M2301.32,-278.832C2362.32,-269.202 2437.59,-254.194 2502.5,-232 2521.53,-225.493 2541.55,-215.842 2558.28,-206.897"/>
<polygon fill="black" stroke="black" points="2560.11,-209.888 2567.21,-202.025 2556.76,-203.743 2560.11,-209.888"/>
</g>
<!-- 15 -->
<g id="node16" class="node"><title>15</title>
<path fill="#d3ffff" stroke="black" d="M2994,-232C2994,-232 2713,-232 2713,-232 2707,-232 2701,-226 2701,-220 2701,-220 2701,-146 2701,-146 2701,-140 2707,-134 2713,-134 2713,-134 2994,-134 2994,-134 3000,-134 3006,-140 3006,-146 3006,-146 3006,-220 3006,-220 3006,-226 3000,-232 2994,-232"/>
<text text-anchor="middle" x="2853.5" y="-216.8" font-family="Times,serif" font-size="14.00">forward</text>
<text text-anchor="middle" x="2853.5" y="-201.8" font-family="Times,serif" font-size="14.00">CB0/C1</text>
<text text-anchor="middle" x="2853.5" y="-186.8" font-family="Times,serif" font-size="14.00">dilation rate: 1 &#160;&#160;k width: 3</text>
<text text-anchor="middle" x="2853.5" y="-171.8" font-family="Times,serif" font-size="14.00">log gamma1: &#45;11.000000 &#160;&#160;log gamma2: &#45;11.000000</text>
<text text-anchor="middle" x="2853.5" y="-156.8" font-family="Times,serif" font-size="14.00">log lambda1: &#45;11.000000 &#160;&#160;log lambda2: &#45;11.000000</text>
<text text-anchor="middle" x="2853.5" y="-141.8" font-family="Times,serif" font-size="14.00">n kernels: 64</text>
</g>
<!-- 4&#45;&gt;15 -->
<g id="edge15" class="edge"><title>4&#45;&gt;15</title>
<path fill="none" stroke="black" d="M2989.34,-276.391C2973.95,-265.923 2953.33,-251.898 2932.81,-237.942"/>
<polygon fill="black" stroke="black" points="2934.59,-234.917 2924.35,-232.188 2930.65,-240.706 2934.59,-234.917"/>
</g>
<!-- 16 -->
<g id="node17" class="node"><title>16</title>
<path fill="#bfe6e6" stroke="black" d="M3317,-232C3317,-232 3036,-232 3036,-232 3030,-232 3024,-226 3024,-220 3024,-220 3024,-146 3024,-146 3024,-140 3030,-134 3036,-134 3036,-134 3317,-134 3317,-134 3323,-134 3329,-140 3329,-146 3329,-146 3329,-220 3329,-220 3329,-226 3323,-232 3317,-232"/>
<text text-anchor="middle" x="3176.5" y="-216.8" font-family="Times,serif" font-size="14.00">residual 1</text>
<text text-anchor="middle" x="3176.5" y="-201.8" font-family="Times,serif" font-size="14.00">CB1/PE1</text>
<text text-anchor="middle" x="3176.5" y="-186.8" font-family="Times,serif" font-size="14.00">dilation rate: 1 &#160;&#160;k width: 3</text>
<text text-anchor="middle" x="3176.5" y="-171.8" font-family="Times,serif" font-size="14.00">log gamma1: &#45;11.000000 &#160;&#160;log gamma2: &#45;11.000000</text>
<text text-anchor="middle" x="3176.5" y="-156.8" font-family="Times,serif" font-size="14.00">log lambda1: &#45;11.000000 &#160;&#160;log lambda2: &#45;11.000000</text>
<text text-anchor="middle" x="3176.5" y="-141.8" font-family="Times,serif" font-size="14.00">n kernels: 64</text>
</g>
<!-- 4&#45;&gt;16 -->
<g id="edge16" class="edge"><title>4&#45;&gt;16</title>
<path fill="none" stroke="black" d="M3039.81,-276.391C3055.3,-265.923 3076.05,-251.898 3096.69,-237.942"/>
<polygon fill="black" stroke="black" points="3098.88,-240.687 3105.21,-232.188 3094.96,-234.888 3098.88,-240.687"/>
</g>
<!-- 17 -->
<g id="node18" class="node"><title>17</title>
<path fill="#abcece" stroke="black" d="M3640,-232C3640,-232 3359,-232 3359,-232 3353,-232 3347,-226 3347,-220 3347,-220 3347,-146 3347,-146 3347,-140 3353,-134 3359,-134 3359,-134 3640,-134 3640,-134 3646,-134 3652,-140 3652,-146 3652,-146 3652,-220 3652,-220 3652,-226 3646,-232 3640,-232"/>
<text text-anchor="middle" x="3499.5" y="-216.8" font-family="Times,serif" font-size="14.00">residual 2</text>
<text text-anchor="middle" x="3499.5" y="-201.8" font-family="Times,serif" font-size="14.00">CB2/PE2</text>
<text text-anchor="middle" x="3499.5" y="-186.8" font-family="Times,serif" font-size="14.00">dilation rate: 1 &#160;&#160;k width: 3</text>
<text text-anchor="middle" x="3499.5" y="-171.8" font-family="Times,serif" font-size="14.00">log gamma1: &#45;11.000000 &#160;&#160;log gamma2: &#45;11.000000</text>
<text text-anchor="middle" x="3499.5" y="-156.8" font-family="Times,serif" font-size="14.00">log lambda1: &#45;11.000000 &#160;&#160;log lambda2: &#45;11.000000</text>
<text text-anchor="middle" x="3499.5" y="-141.8" font-family="Times,serif" font-size="14.00">n kernels: 64</text>
</g>
<!-- 4&#45;&gt;17 -->
<g id="edge17" class="edge"><title>4&#45;&gt;17</title>
<path fill="none" stroke="black" d="M3060.01,-286.309C3120.92,-276.361 3232.44,-257.014 3337.2,-232.009"/>
<polygon fill="black" stroke="black" points="3338.09,-235.395 3346.99,-229.651 3336.45,-228.59 3338.09,-235.395"/>
</g>
<!-- 18 -->
<g id="node19" class="node"><title>18</title>
<path fill="#e9d3ff" stroke="black" d="M293,-98C293,-98 12,-98 12,-98 6,-98 0,-92 0,-86 0,-86 0,-12 0,-12 0,-6 6,-0 12,-0 12,-0 293,-0 293,-0 299,-0 305,-6 305,-12 305,-12 305,-86 305,-86 305,-92 299,-98 293,-98"/>
<text text-anchor="middle" x="152.5" y="-82.8" font-family="Times,serif" font-size="14.00">forward</text>
<text text-anchor="middle" x="152.5" y="-67.8" font-family="Times,serif" font-size="14.00">input</text>
<text text-anchor="middle" x="152.5" y="-52.8" font-family="Times,serif" font-size="14.00">dilation rate: 1 &#160;&#160;k width: 3</text>
<text text-anchor="middle" x="152.5" y="-37.8" font-family="Times,serif" font-size="14.00">log gamma1: &#45;11.000000 &#160;&#160;log gamma2: &#45;11.000000</text>
<text text-anchor="middle" x="152.5" y="-22.8" font-family="Times,serif" font-size="14.00">log lambda1: &#45;11.000000 &#160;&#160;log lambda2: &#45;11.000000</text>
<text text-anchor="middle" x="152.5" y="-7.8" font-family="Times,serif" font-size="14.00">n kernels: 64</text>
</g>
<!-- 5&#45;&gt;18 -->
<g id="edge18" class="edge"><title>5&#45;&gt;18</title>
<path fill="none" stroke="black" d="M240.531,-163.923C229.019,-149.025 212.046,-127.059 196.067,-106.381"/>
<polygon fill="black" stroke="black" points="198.655,-104.006 189.771,-98.2336 193.116,-108.287 198.655,-104.006"/>
</g>
<!-- 19 -->
<g id="node20" class="node"><title>19</title>
<path fill="#e9d3ff" stroke="black" d="M616,-98C616,-98 335,-98 335,-98 329,-98 323,-92 323,-86 323,-86 323,-12 323,-12 323,-6 329,-0 335,-0 335,-0 616,-0 616,-0 622,-0 628,-6 628,-12 628,-12 628,-86 628,-86 628,-92 622,-98 616,-98"/>
<text text-anchor="middle" x="475.5" y="-82.8" font-family="Times,serif" font-size="14.00">forward</text>
<text text-anchor="middle" x="475.5" y="-67.8" font-family="Times,serif" font-size="14.00">CB0/C0</text>
<text text-anchor="middle" x="475.5" y="-52.8" font-family="Times,serif" font-size="14.00">dilation rate: 1 &#160;&#160;k width: 3</text>
<text text-anchor="middle" x="475.5" y="-37.8" font-family="Times,serif" font-size="14.00">log gamma1: &#45;11.000000 &#160;&#160;log gamma2: &#45;11.000000</text>
<text text-anchor="middle" x="475.5" y="-22.8" font-family="Times,serif" font-size="14.00">log lambda1: &#45;11.000000 &#160;&#160;log lambda2: &#45;11.000000</text>
<text text-anchor="middle" x="475.5" y="-7.8" font-family="Times,serif" font-size="14.00">n kernels: 64</text>
</g>
<!-- 6&#45;&gt;19 -->
<g id="edge19" class="edge"><title>6&#45;&gt;19</title>
<path fill="none" stroke="black" d="M475.5,-164.743C475.5,-150.336 475.5,-128.926 475.5,-108.49"/>
<polygon fill="black" stroke="black" points="479,-108.253 475.5,-98.2533 472,-108.253 479,-108.253"/>
</g>
<!-- 20 -->
<g id="node21" class="node"><title>20</title>
<path fill="#e9d3ff" stroke="black" d="M939,-98C939,-98 658,-98 658,-98 652,-98 646,-92 646,-86 646,-86 646,-12 646,-12 646,-6 652,-0 658,-0 658,-0 939,-0 939,-0 945,-0 951,-6 951,-12 951,-12 951,-86 951,-86 951,-92 945,-98 939,-98"/>
<text text-anchor="middle" x="798.5" y="-82.8" font-family="Times,serif" font-size="14.00">forward</text>
<text text-anchor="middle" x="798.5" y="-67.8" font-family="Times,serif" font-size="14.00">input</text>
<text text-anchor="middle" x="798.5" y="-52.8" font-family="Times,serif" font-size="14.00">dilation rate: 1 &#160;&#160;k width: 3</text>
<text text-anchor="middle" x="798.5" y="-37.8" font-family="Times,serif" font-size="14.00">log gamma1: &#45;11.000000 &#160;&#160;log gamma2: &#45;11.000000</text>
<text text-anchor="middle" x="798.5" y="-22.8" font-family="Times,serif" font-size="14.00">log lambda1: &#45;11.000000 &#160;&#160;log lambda2: &#45;11.000000</text>
<text text-anchor="middle" x="798.5" y="-7.8" font-family="Times,serif" font-size="14.00">n kernels: 64</text>
</g>
<!-- 7&#45;&gt;20 -->
<g id="edge20" class="edge"><title>7&#45;&gt;20</title>
<path fill="none" stroke="black" d="M863.695,-164.743C855.322,-150.007 842.787,-127.945 830.938,-107.092"/>
<polygon fill="black" stroke="black" points="833.9,-105.219 825.917,-98.2533 827.814,-108.677 833.9,-105.219"/>
</g>
<!-- 21 -->
<g id="node22" class="node"><title>21</title>
<path fill="#e9d3ff" stroke="black" d="M1262,-98C1262,-98 981,-98 981,-98 975,-98 969,-92 969,-86 969,-86 969,-12 969,-12 969,-6 975,-0 981,-0 981,-0 1262,-0 1262,-0 1268,-0 1274,-6 1274,-12 1274,-12 1274,-86 1274,-86 1274,-92 1268,-98 1262,-98"/>
<text text-anchor="middle" x="1121.5" y="-82.8" font-family="Times,serif" font-size="14.00">forward</text>
<text text-anchor="middle" x="1121.5" y="-67.8" font-family="Times,serif" font-size="14.00">CB1/C0</text>
<text text-anchor="middle" x="1121.5" y="-52.8" font-family="Times,serif" font-size="14.00">dilation rate: 1 &#160;&#160;k width: 3</text>
<text text-anchor="middle" x="1121.5" y="-37.8" font-family="Times,serif" font-size="14.00">log gamma1: &#45;11.000000 &#160;&#160;log gamma2: &#45;11.000000</text>
<text text-anchor="middle" x="1121.5" y="-22.8" font-family="Times,serif" font-size="14.00">log lambda1: &#45;11.000000 &#160;&#160;log lambda2: &#45;11.000000</text>
<text text-anchor="middle" x="1121.5" y="-7.8" font-family="Times,serif" font-size="14.00">n kernels: 64</text>
</g>
<!-- 8&#45;&gt;21 -->
<g id="edge21" class="edge"><title>8&#45;&gt;21</title>
<path fill="none" stroke="black" d="M1137.9,-163.923C1135.82,-149.486 1132.79,-128.413 1129.89,-108.306"/>
<polygon fill="black" stroke="black" points="1133.33,-107.633 1128.44,-98.2336 1126.4,-108.63 1133.33,-107.633"/>
</g>
<!-- 22 -->
<g id="node23" class="node"><title>22</title>
<path fill="#e9d3ff" stroke="black" d="M1585,-98C1585,-98 1304,-98 1304,-98 1298,-98 1292,-92 1292,-86 1292,-86 1292,-12 1292,-12 1292,-6 1298,-0 1304,-0 1304,-0 1585,-0 1585,-0 1591,-0 1597,-6 1597,-12 1597,-12 1597,-86 1597,-86 1597,-92 1591,-98 1585,-98"/>
<text text-anchor="middle" x="1444.5" y="-82.8" font-family="Times,serif" font-size="14.00">forward</text>
<text text-anchor="middle" x="1444.5" y="-67.8" font-family="Times,serif" font-size="14.00">CB1/C1</text>
<text text-anchor="middle" x="1444.5" y="-52.8" font-family="Times,serif" font-size="14.00">dilation rate: 1 &#160;&#160;k width: 3</text>
<text text-anchor="middle" x="1444.5" y="-37.8" font-family="Times,serif" font-size="14.00">log gamma1: &#45;11.000000 &#160;&#160;log gamma2: &#45;11.000000</text>
<text text-anchor="middle" x="1444.5" y="-22.8" font-family="Times,serif" font-size="14.00">log lambda1: &#45;11.000000 &#160;&#160;log lambda2: &#45;11.000000</text>
<text text-anchor="middle" x="1444.5" y="-7.8" font-family="Times,serif" font-size="14.00">n kernels: 64</text>
</g>
<!-- 9&#45;&gt;22 -->
<g id="edge22" class="edge"><title>9&#45;&gt;22</title>
<path fill="none" stroke="black" d="M1411.7,-163.923C1415.88,-149.42 1421.98,-128.221 1427.79,-108.03"/>
<polygon fill="black" stroke="black" points="1431.21,-108.812 1430.61,-98.2336 1424.48,-106.875 1431.21,-108.812"/>
</g>
<!-- 23 -->
<g id="node24" class="node"><title>23</title>
<path fill="#e9d3ff" stroke="black" d="M1908,-98C1908,-98 1627,-98 1627,-98 1621,-98 1615,-92 1615,-86 1615,-86 1615,-12 1615,-12 1615,-6 1621,-0 1627,-0 1627,-0 1908,-0 1908,-0 1914,-0 1920,-6 1920,-12 1920,-12 1920,-86 1920,-86 1920,-92 1914,-98 1908,-98"/>
<text text-anchor="middle" x="1767.5" y="-82.8" font-family="Times,serif" font-size="14.00">forward</text>
<text text-anchor="middle" x="1767.5" y="-67.8" font-family="Times,serif" font-size="14.00">input</text>
<text text-anchor="middle" x="1767.5" y="-52.8" font-family="Times,serif" font-size="14.00">dilation rate: 1 &#160;&#160;k width: 3</text>
<text text-anchor="middle" x="1767.5" y="-37.8" font-family="Times,serif" font-size="14.00">log gamma1: &#45;11.000000 &#160;&#160;log gamma2: &#45;11.000000</text>
<text text-anchor="middle" x="1767.5" y="-22.8" font-family="Times,serif" font-size="14.00">log lambda1: &#45;11.000000 &#160;&#160;log lambda2: &#45;11.000000</text>
<text text-anchor="middle" x="1767.5" y="-7.8" font-family="Times,serif" font-size="14.00">n kernels: 64</text>
</g>
<!-- 10&#45;&gt;23 -->
<g id="edge23" class="edge"><title>10&#45;&gt;23</title>
<path fill="none" stroke="black" d="M1825.32,-163.923C1817.86,-149.223 1806.91,-127.641 1796.54,-107.205"/>
<polygon fill="black" stroke="black" points="1799.63,-105.567 1791.98,-98.2336 1793.39,-108.735 1799.63,-105.567"/>
</g>
<!-- 24 -->
<g id="node25" class="node"><title>24</title>
<path fill="#e9d3ff" stroke="black" d="M2231,-98C2231,-98 1950,-98 1950,-98 1944,-98 1938,-92 1938,-86 1938,-86 1938,-12 1938,-12 1938,-6 1944,-0 1950,-0 1950,-0 2231,-0 2231,-0 2237,-0 2243,-6 2243,-12 2243,-12 2243,-86 2243,-86 2243,-92 2237,-98 2231,-98"/>
<text text-anchor="middle" x="2090.5" y="-82.8" font-family="Times,serif" font-size="14.00">forward</text>
<text text-anchor="middle" x="2090.5" y="-67.8" font-family="Times,serif" font-size="14.00">CB2/C0</text>
<text text-anchor="middle" x="2090.5" y="-52.8" font-family="Times,serif" font-size="14.00">dilation rate: 1 &#160;&#160;k width: 3</text>
<text text-anchor="middle" x="2090.5" y="-37.8" font-family="Times,serif" font-size="14.00">log gamma1: &#45;11.000000 &#160;&#160;log gamma2: &#45;11.000000</text>
<text text-anchor="middle" x="2090.5" y="-22.8" font-family="Times,serif" font-size="14.00">log lambda1: &#45;11.000000 &#160;&#160;log lambda2: &#45;11.000000</text>
<text text-anchor="middle" x="2090.5" y="-7.8" font-family="Times,serif" font-size="14.00">n kernels: 64</text>
</g>
<!-- 11&#45;&gt;24 -->
<g id="edge24" class="edge"><title>11&#45;&gt;24</title>
<path fill="none" stroke="black" d="M2090.5,-163.923C2090.5,-149.486 2090.5,-128.413 2090.5,-108.306"/>
<polygon fill="black" stroke="black" points="2094,-108.234 2090.5,-98.2336 2087,-108.234 2094,-108.234"/>
</g>
<!-- 25 -->
<g id="node26" class="node"><title>25</title>
<path fill="#e9d3ff" stroke="black" d="M2554,-98C2554,-98 2273,-98 2273,-98 2267,-98 2261,-92 2261,-86 2261,-86 2261,-12 2261,-12 2261,-6 2267,-0 2273,-0 2273,-0 2554,-0 2554,-0 2560,-0 2566,-6 2566,-12 2566,-12 2566,-86 2566,-86 2566,-92 2560,-98 2554,-98"/>
<text text-anchor="middle" x="2413.5" y="-82.8" font-family="Times,serif" font-size="14.00">forward</text>
<text text-anchor="middle" x="2413.5" y="-67.8" font-family="Times,serif" font-size="14.00">CB2/C1</text>
<text text-anchor="middle" x="2413.5" y="-52.8" font-family="Times,serif" font-size="14.00">dilation rate: 1 &#160;&#160;k width: 3</text>
<text text-anchor="middle" x="2413.5" y="-37.8" font-family="Times,serif" font-size="14.00">log gamma1: &#45;11.000000 &#160;&#160;log gamma2: &#45;11.000000</text>
<text text-anchor="middle" x="2413.5" y="-22.8" font-family="Times,serif" font-size="14.00">log lambda1: &#45;11.000000 &#160;&#160;log lambda2: &#45;11.000000</text>
<text text-anchor="middle" x="2413.5" y="-7.8" font-family="Times,serif" font-size="14.00">n kernels: 64</text>
</g>
<!-- 12&#45;&gt;25 -->
<g id="edge25" class="edge"><title>12&#45;&gt;25</title>
<path fill="none" stroke="black" d="M2296.99,-163.923C2312.49,-148.761 2335.49,-126.279 2356.96,-105.284"/>
<polygon fill="black" stroke="black" points="2359.47,-107.727 2364.17,-98.2336 2354.57,-102.722 2359.47,-107.727"/>
</g>
<!-- 26 -->
<g id="node27" class="node"><title>26</title>
<path fill="#e9d3ff" stroke="black" d="M2877,-98C2877,-98 2596,-98 2596,-98 2590,-98 2584,-92 2584,-86 2584,-86 2584,-12 2584,-12 2584,-6 2590,-0 2596,-0 2596,-0 2877,-0 2877,-0 2883,-0 2889,-6 2889,-12 2889,-12 2889,-86 2889,-86 2889,-92 2883,-98 2877,-98"/>
<text text-anchor="middle" x="2736.5" y="-82.8" font-family="Times,serif" font-size="14.00">forward</text>
<text text-anchor="middle" x="2736.5" y="-67.8" font-family="Times,serif" font-size="14.00">CB2/C2</text>
<text text-anchor="middle" x="2736.5" y="-52.8" font-family="Times,serif" font-size="14.00">dilation rate: 1 &#160;&#160;k width: 3</text>
<text text-anchor="middle" x="2736.5" y="-37.8" font-family="Times,serif" font-size="14.00">log gamma1: &#45;11.000000 &#160;&#160;log gamma2: &#45;11.000000</text>
<text text-anchor="middle" x="2736.5" y="-22.8" font-family="Times,serif" font-size="14.00">log lambda1: &#45;11.000000 &#160;&#160;log lambda2: &#45;11.000000</text>
<text text-anchor="middle" x="2736.5" y="-7.8" font-family="Times,serif" font-size="14.00">n kernels: 64</text>
</g>
<!-- 13&#45;&gt;26 -->
<g id="edge26" class="edge"><title>13&#45;&gt;26</title>
<path fill="none" stroke="black" d="M2448.39,-163.839C2464.29,-154.266 2484.59,-142.731 2503.5,-134 2528.27,-122.561 2555.08,-111.632 2581.39,-101.662"/>
<polygon fill="black" stroke="black" points="2582.93,-104.825 2591.06,-98.0338 2580.47,-98.2714 2582.93,-104.825"/>
</g>
<!-- 27 -->
<g id="node28" class="node"><title>27</title>
<path fill="#e9d3ff" stroke="black" d="M3200,-98C3200,-98 2919,-98 2919,-98 2913,-98 2907,-92 2907,-86 2907,-86 2907,-12 2907,-12 2907,-6 2913,-0 2919,-0 2919,-0 3200,-0 3200,-0 3206,-0 3212,-6 3212,-12 3212,-12 3212,-86 3212,-86 3212,-92 3206,-98 3200,-98"/>
<text text-anchor="middle" x="3059.5" y="-82.8" font-family="Times,serif" font-size="14.00">forward</text>
<text text-anchor="middle" x="3059.5" y="-67.8" font-family="Times,serif" font-size="14.00">CB2/C3</text>
<text text-anchor="middle" x="3059.5" y="-52.8" font-family="Times,serif" font-size="14.00">dilation rate: 1 &#160;&#160;k width: 3</text>
<text text-anchor="middle" x="3059.5" y="-37.8" font-family="Times,serif" font-size="14.00">log gamma1: &#45;11.000000 &#160;&#160;log gamma2: &#45;11.000000</text>
<text text-anchor="middle" x="3059.5" y="-22.8" font-family="Times,serif" font-size="14.00">log lambda1: &#45;11.000000 &#160;&#160;log lambda2: &#45;11.000000</text>
<text text-anchor="middle" x="3059.5" y="-7.8" font-family="Times,serif" font-size="14.00">n kernels: 64</text>
</g>
<!-- 14&#45;&gt;27 -->
<g id="edge27" class="edge"><title>14&#45;&gt;27</title>
<path fill="none" stroke="black" d="M2627.4,-163.814C2645.39,-153.623 2669.08,-141.493 2691.5,-134 2776.64,-105.544 2805.07,-118.284 2896.61,-98.0933"/>
<polygon fill="black" stroke="black" points="2897.6,-101.458 2906.57,-95.8227 2896.04,-94.6329 2897.6,-101.458"/>
</g>
</g>
</svg>
