<?xml version="1.0" encoding="UTF-8" standalone="no"?>
<!DOCTYPE svg PUBLIC "-//W3C//DTD SVG 1.1//EN"
 "http://www.w3.org/Graphics/SVG/1.1/DTD/svg11.dtd">
<!-- Generated by graphviz version 2.38.0 (20140413.2041)
 -->
<!-- Title: %3 Pages: 1 -->
<svg width="1282pt" height="343pt"
 viewBox="0.00 0.00 1282.00 343.00" xmlns="http://www.w3.org/2000/svg" xmlns:xlink="http://www.w3.org/1999/xlink">
<g id="graph0" class="graph" transform="scale(1 1) rotate(0) translate(4 339)">
<title>%3</title>
<polygon fill="none" stroke="none" points="-4,4 -4,-339 1278,-339 1278,4 -4,4"/>
<!-- 0 -->
<g id="node1" class="node"><title>0</title>
<path fill="#ffd3d3" stroke="black" d="M732,-335C732,-335 541,-335 541,-335 535,-335 529,-329 529,-323 529,-323 529,-294 529,-294 529,-288 535,-282 541,-282 541,-282 732,-282 732,-282 738,-282 744,-288 744,-294 744,-294 744,-323 744,-323 744,-329 738,-335 732,-335"/>
<text text-anchor="middle" x="636.5" y="-319.8" font-family="Times,serif" font-size="14.00">net</text>
<text text-anchor="middle" x="636.5" y="-304.8" font-family="Times,serif" font-size="14.00">k width: 3 &#160;&#160;log gamma2: &#45;7.584701</text>
<text text-anchor="middle" x="636.5" y="-289.8" font-family="Times,serif" font-size="14.00">n kernels: 123</text>
</g>
<!-- 1 -->
<g id="node2" class="node"><title>1</title>
<path fill="#e9ffd3" stroke="black" d="M734,-246C734,-246 539,-246 539,-246 533,-246 527,-240 527,-234 527,-234 527,-220 527,-220 527,-214 533,-208 539,-208 539,-208 734,-208 734,-208 740,-208 746,-214 746,-220 746,-220 746,-234 746,-234 746,-240 740,-246 734,-246"/>
<text text-anchor="middle" x="636.5" y="-230.8" font-family="Times,serif" font-size="14.00">conv block 0</text>
<text text-anchor="middle" x="636.5" y="-215.8" font-family="Times,serif" font-size="14.00">log gamma1: 1.181828 &#160;&#160;n kernels: 3</text>
</g>
<!-- 0&#45;&gt;1 -->
<g id="edge1" class="edge"><title>0&#45;&gt;1</title>
<path fill="none" stroke="black" d="M636.5,-281.908C636.5,-273.738 636.5,-264.649 636.5,-256.298"/>
<polygon fill="black" stroke="black" points="640,-256.239 636.5,-246.239 633,-256.239 640,-256.239"/>
</g>
<!-- 2 -->
<g id="node3" class="node"><title>2</title>
<path fill="#d3ffff" stroke="black" d="M270.5,-171C270.5,-171 236.5,-171 236.5,-171 230.5,-171 224.5,-165 224.5,-159 224.5,-159 224.5,-147 224.5,-147 224.5,-141 230.5,-135 236.5,-135 236.5,-135 270.5,-135 270.5,-135 276.5,-135 282.5,-141 282.5,-147 282.5,-147 282.5,-159 282.5,-159 282.5,-165 276.5,-171 270.5,-171"/>
<text text-anchor="middle" x="253.5" y="-149.3" font-family="Times,serif" font-size="14.00">comp 0</text>
</g>
<!-- 1&#45;&gt;2 -->
<g id="edge2" class="edge"><title>1&#45;&gt;2</title>
<path fill="none" stroke="black" d="M540.347,-207.924C460.453,-192.905 350.831,-172.297 292.972,-161.42"/>
<polygon fill="black" stroke="black" points="293.264,-157.914 282.79,-159.506 291.971,-164.793 293.264,-157.914"/>
</g>
<!-- 3 -->
<g id="node4" class="node"><title>3</title>
<path fill="#bfe6e6" stroke="black" d="M560,-172C560,-172 435,-172 435,-172 429,-172 423,-166 423,-160 423,-160 423,-146 423,-146 423,-140 429,-134 435,-134 435,-134 560,-134 560,-134 566,-134 572,-140 572,-146 572,-146 572,-160 572,-160 572,-166 566,-172 560,-172"/>
<text text-anchor="middle" x="497.5" y="-156.8" font-family="Times,serif" font-size="14.00">comp 1</text>
<text text-anchor="middle" x="497.5" y="-141.8" font-family="Times,serif" font-size="14.00">log gamma2: &#45;1.590615</text>
</g>
<!-- 1&#45;&gt;3 -->
<g id="edge3" class="edge"><title>1&#45;&gt;3</title>
<path fill="none" stroke="black" d="M601.424,-207.831C583.234,-198.409 560.834,-186.806 541.494,-176.788"/>
<polygon fill="black" stroke="black" points="543.054,-173.655 532.564,-172.163 539.834,-179.87 543.054,-173.655"/>
</g>
<!-- 4 -->
<g id="node5" class="node"><title>4</title>
<path fill="#abcece" stroke="black" d="M905,-172C905,-172 646,-172 646,-172 640,-172 634,-166 634,-160 634,-160 634,-146 634,-146 634,-140 640,-134 646,-134 646,-134 905,-134 905,-134 911,-134 917,-140 917,-146 917,-146 917,-160 917,-160 917,-166 911,-172 905,-172"/>
<text text-anchor="middle" x="775.5" y="-156.8" font-family="Times,serif" font-size="14.00">comp 2</text>
<text text-anchor="middle" x="775.5" y="-141.8" font-family="Times,serif" font-size="14.00">log gamma1: 0.490497 &#160;&#160;log gamma2: 0.925037</text>
</g>
<!-- 1&#45;&gt;4 -->
<g id="edge4" class="edge"><title>1&#45;&gt;4</title>
<path fill="none" stroke="black" d="M671.576,-207.831C689.766,-198.409 712.166,-186.806 731.506,-176.788"/>
<polygon fill="black" stroke="black" points="733.166,-179.87 740.436,-172.163 729.946,-173.655 733.166,-179.87"/>
</g>
<!-- 5 -->
<g id="node6" class="node"><title>5</title>
<path fill="#97b6b6" stroke="black" d="M1161,-172C1161,-172 1036,-172 1036,-172 1030,-172 1024,-166 1024,-160 1024,-160 1024,-146 1024,-146 1024,-140 1030,-134 1036,-134 1036,-134 1161,-134 1161,-134 1167,-134 1173,-140 1173,-146 1173,-146 1173,-160 1173,-160 1173,-166 1167,-172 1161,-172"/>
<text text-anchor="middle" x="1098.5" y="-156.8" font-family="Times,serif" font-size="14.00">comp 3</text>
<text text-anchor="middle" x="1098.5" y="-141.8" font-family="Times,serif" font-size="14.00">log gamma1: &#45;0.572853</text>
</g>
<!-- 1&#45;&gt;5 -->
<g id="edge5" class="edge"><title>1&#45;&gt;5</title>
<path fill="none" stroke="black" d="M746.28,-208.891C828.263,-196.115 938.669,-178.909 1013.87,-167.188"/>
<polygon fill="black" stroke="black" points="1014.44,-170.642 1023.79,-165.644 1013.37,-163.725 1014.44,-170.642"/>
</g>
<!-- 6 -->
<g id="node7" class="node"><title>6</title>
<path fill="#e9d3ff" stroke="black" d="M293,-98C293,-98 12,-98 12,-98 6,-98 0,-92 0,-86 0,-86 0,-12 0,-12 0,-6 6,-0 12,-0 12,-0 293,-0 293,-0 299,-0 305,-6 305,-12 305,-12 305,-86 305,-86 305,-92 299,-98 293,-98"/>
<text text-anchor="middle" x="152.5" y="-82.8" font-family="Times,serif" font-size="14.00">forward</text>
<text text-anchor="middle" x="152.5" y="-67.8" font-family="Times,serif" font-size="14.00">input</text>
<text text-anchor="middle" x="152.5" y="-52.8" font-family="Times,serif" font-size="14.00">dilation rate: 1 &#160;&#160;k width: 3</text>
<text text-anchor="middle" x="152.5" y="-37.8" font-family="Times,serif" font-size="14.00">log gamma1: &#45;11.000000 &#160;&#160;log gamma2: &#45;11.000000</text>
<text text-anchor="middle" x="152.5" y="-22.8" font-family="Times,serif" font-size="14.00">log lambda1: &#45;11.000000 &#160;&#160;log lambda2: &#45;11.000000</text>
<text text-anchor="middle" x="152.5" y="-7.8" font-family="Times,serif" font-size="14.00">n kernels: 64</text>
</g>
<!-- 2&#45;&gt;6 -->
<g id="edge6" class="edge"><title>2&#45;&gt;6</title>
<path fill="none" stroke="black" d="M236.367,-134.697C228.227,-126.477 217.994,-116.143 207.5,-105.545"/>
<polygon fill="black" stroke="black" points="209.739,-102.831 200.216,-98.1881 204.765,-107.757 209.739,-102.831"/>
</g>
<!-- 7 -->
<g id="node8" class="node"><title>7</title>
<path fill="#e9d3ff" stroke="black" d="M616,-98C616,-98 335,-98 335,-98 329,-98 323,-92 323,-86 323,-86 323,-12 323,-12 323,-6 329,-0 335,-0 335,-0 616,-0 616,-0 622,-0 628,-6 628,-12 628,-12 628,-86 628,-86 628,-92 622,-98 616,-98"/>
<text text-anchor="middle" x="475.5" y="-82.8" font-family="Times,serif" font-size="14.00">forward</text>
<text text-anchor="middle" x="475.5" y="-67.8" font-family="Times,serif" font-size="14.00">CB0/C0</text>
<text text-anchor="middle" x="475.5" y="-52.8" font-family="Times,serif" font-size="14.00">dilation rate: 1 &#160;&#160;k width: 3</text>
<text text-anchor="middle" x="475.5" y="-37.8" font-family="Times,serif" font-size="14.00">log gamma1: &#45;11.000000 &#160;&#160;log gamma2: &#45;11.000000</text>
<text text-anchor="middle" x="475.5" y="-22.8" font-family="Times,serif" font-size="14.00">log lambda1: &#45;11.000000 &#160;&#160;log lambda2: &#45;11.000000</text>
<text text-anchor="middle" x="475.5" y="-7.8" font-family="Times,serif" font-size="14.00">n kernels: 64</text>
</g>
<!-- 3&#45;&gt;7 -->
<g id="edge7" class="edge"><title>3&#45;&gt;7</title>
<path fill="none" stroke="black" d="M493.567,-133.764C491.988,-126.442 490.071,-117.558 488.084,-108.346"/>
<polygon fill="black" stroke="black" points="491.443,-107.319 485.914,-98.2813 484.601,-108.795 491.443,-107.319"/>
</g>
<!-- 8 -->
<g id="node9" class="node"><title>8</title>
<path fill="#e9d3ff" stroke="black" d="M939,-98C939,-98 658,-98 658,-98 652,-98 646,-92 646,-86 646,-86 646,-12 646,-12 646,-6 652,-0 658,-0 658,-0 939,-0 939,-0 945,-0 951,-6 951,-12 951,-12 951,-86 951,-86 951,-92 945,-98 939,-98"/>
<text text-anchor="middle" x="798.5" y="-82.8" font-family="Times,serif" font-size="14.00">forward</text>
<text text-anchor="middle" x="798.5" y="-67.8" font-family="Times,serif" font-size="14.00">CB0/C1</text>
<text text-anchor="middle" x="798.5" y="-52.8" font-family="Times,serif" font-size="14.00">dilation rate: 1 &#160;&#160;k width: 3</text>
<text text-anchor="middle" x="798.5" y="-37.8" font-family="Times,serif" font-size="14.00">log gamma1: &#45;11.000000 &#160;&#160;log gamma2: &#45;11.000000</text>
<text text-anchor="middle" x="798.5" y="-22.8" font-family="Times,serif" font-size="14.00">log lambda1: &#45;11.000000 &#160;&#160;log lambda2: &#45;11.000000</text>
<text text-anchor="middle" x="798.5" y="-7.8" font-family="Times,serif" font-size="14.00">n kernels: 64</text>
</g>
<!-- 4&#45;&gt;8 -->
<g id="edge8" class="edge"><title>4&#45;&gt;8</title>
<path fill="none" stroke="black" d="M779.612,-133.764C781.281,-126.364 783.309,-117.368 785.41,-108.052"/>
<polygon fill="black" stroke="black" points="788.828,-108.806 787.613,-98.2813 781.999,-107.267 788.828,-108.806"/>
</g>
<!-- 9 -->
<g id="node10" class="node"><title>9</title>
<path fill="#e9d3ff" stroke="black" d="M1262,-98C1262,-98 981,-98 981,-98 975,-98 969,-92 969,-86 969,-86 969,-12 969,-12 969,-6 975,-0 981,-0 981,-0 1262,-0 1262,-0 1268,-0 1274,-6 1274,-12 1274,-12 1274,-86 1274,-86 1274,-92 1268,-98 1262,-98"/>
<text text-anchor="middle" x="1121.5" y="-82.8" font-family="Times,serif" font-size="14.00">forward</text>
<text text-anchor="middle" x="1121.5" y="-67.8" font-family="Times,serif" font-size="14.00">CB0/C2</text>
<text text-anchor="middle" x="1121.5" y="-52.8" font-family="Times,serif" font-size="14.00">dilation rate: 1 &#160;&#160;k width: 3</text>
<text text-anchor="middle" x="1121.5" y="-37.8" font-family="Times,serif" font-size="14.00">log gamma1: &#45;11.000000 &#160;&#160;log gamma2: &#45;11.000000</text>
<text text-anchor="middle" x="1121.5" y="-22.8" font-family="Times,serif" font-size="14.00">log lambda1: &#45;11.000000 &#160;&#160;log lambda2: &#45;11.000000</text>
<text text-anchor="middle" x="1121.5" y="-7.8" font-family="Times,serif" font-size="14.00">n kernels: 64</text>
</g>
<!-- 5&#45;&gt;9 -->
<g id="edge9" class="edge"><title>5&#45;&gt;9</title>
<path fill="none" stroke="black" d="M1102.61,-133.764C1104.28,-126.364 1106.31,-117.368 1108.41,-108.052"/>
<polygon fill="black" stroke="black" points="1111.83,-108.806 1110.61,-98.2813 1105,-107.267 1111.83,-108.806"/>
</g>
</g>
</svg>
