<?xml version="1.0" encoding="UTF-8" standalone="no"?>
<!DOCTYPE svg PUBLIC "-//W3C//DTD SVG 1.1//EN"
 "http://www.w3.org/Graphics/SVG/1.1/DTD/svg11.dtd">
<!-- Generated by graphviz version 2.38.0 (20140413.2041)
 -->
<!-- Title: %3 Pages: 1 -->
<svg width="11941pt" height="447pt"
 viewBox="0.00 0.00 11941.00 447.00" xmlns="http://www.w3.org/2000/svg" xmlns:xlink="http://www.w3.org/1999/xlink">
<g id="graph0" class="graph" transform="scale(1 1) rotate(0) translate(4 443)">
<title>%3</title>
<polygon fill="none" stroke="none" points="-4,4 -4,-443 11937,-443 11937,4 -4,4"/>
<!-- 0 -->
<g id="node1" class="node"><title>0</title>
<path fill="#ffd3d3" stroke="black" d="M5571.5,-439C5571.5,-439 5291.5,-439 5291.5,-439 5285.5,-439 5279.5,-433 5279.5,-427 5279.5,-427 5279.5,-398 5279.5,-398 5279.5,-392 5285.5,-386 5291.5,-386 5291.5,-386 5571.5,-386 5571.5,-386 5577.5,-386 5583.5,-392 5583.5,-398 5583.5,-398 5583.5,-427 5583.5,-427 5583.5,-433 5577.5,-439 5571.5,-439"/>
<text text-anchor="middle" x="5431.5" y="-423.8" font-family="Times,serif" font-size="14.00">net</text>
<text text-anchor="middle" x="5431.5" y="-408.8" font-family="Times,serif" font-size="14.00">log lambda1: &#45;11.000000 &#160;&#160;log lambda2: &#45;11.000000</text>
<text text-anchor="middle" x="5431.5" y="-393.8" font-family="Times,serif" font-size="14.00">n kernels: 83 &#160;&#160;pooling type: 0</text>
</g>
<!-- 1 -->
<g id="node2" class="node"><title>1</title>
<path fill="#f6ffd3" stroke="black" d="M3147,-350C3147,-350 3084,-350 3084,-350 3078,-350 3072,-344 3072,-338 3072,-338 3072,-324 3072,-324 3072,-318 3078,-312 3084,-312 3084,-312 3147,-312 3147,-312 3153,-312 3159,-318 3159,-324 3159,-324 3159,-338 3159,-338 3159,-344 3153,-350 3147,-350"/>
<text text-anchor="middle" x="3115.5" y="-334.8" font-family="Times,serif" font-size="14.00">encoder</text>
<text text-anchor="middle" x="3115.5" y="-319.8" font-family="Times,serif" font-size="14.00">n kernels: 11</text>
</g>
<!-- 0&#45;&gt;1 -->
<g id="edge1" class="edge"><title>0&#45;&gt;1</title>
<path fill="none" stroke="black" d="M5279.09,-406.268C4818.89,-390.471 3457.33,-343.734 3169.37,-333.849"/>
<polygon fill="black" stroke="black" points="3169.31,-330.345 3159.19,-333.5 3169.07,-337.341 3169.31,-330.345"/>
</g>
<!-- 2 -->
<g id="node3" class="node"><title>2</title>
<path fill="#f6ffd3" stroke="black" d="M7292.5,-350C7292.5,-350 7224.5,-350 7224.5,-350 7218.5,-350 7212.5,-344 7212.5,-338 7212.5,-338 7212.5,-324 7212.5,-324 7212.5,-318 7218.5,-312 7224.5,-312 7224.5,-312 7292.5,-312 7292.5,-312 7298.5,-312 7304.5,-318 7304.5,-324 7304.5,-324 7304.5,-338 7304.5,-338 7304.5,-344 7298.5,-350 7292.5,-350"/>
<text text-anchor="middle" x="7258.5" y="-334.8" font-family="Times,serif" font-size="14.00">decoder</text>
<text text-anchor="middle" x="7258.5" y="-319.8" font-family="Times,serif" font-size="14.00">n kernels: &#45;13</text>
</g>
<!-- 0&#45;&gt;2 -->
<g id="edge2" class="edge"><title>0&#45;&gt;2</title>
<path fill="none" stroke="black" d="M5583.74,-404.876C5966.44,-388.223 6955.68,-345.177 7202.21,-334.449"/>
<polygon fill="black" stroke="black" points="7202.53,-337.939 7212.37,-334.007 7202.23,-330.945 7202.53,-337.939"/>
</g>
<!-- 3 -->
<g id="node4" class="node"><title>3</title>
<path fill="#d3ffe4" stroke="black" d="M998,-267.5C998,-267.5 923,-267.5 923,-267.5 917,-267.5 911,-261.5 911,-255.5 911,-255.5 911,-243.5 911,-243.5 911,-237.5 917,-231.5 923,-231.5 923,-231.5 998,-231.5 998,-231.5 1004,-231.5 1010,-237.5 1010,-243.5 1010,-243.5 1010,-255.5 1010,-255.5 1010,-261.5 1004,-267.5 998,-267.5"/>
<text text-anchor="middle" x="960.5" y="-245.8" font-family="Times,serif" font-size="14.00">encode block 0</text>
</g>
<!-- 1&#45;&gt;3 -->
<g id="edge3" class="edge"><title>1&#45;&gt;3</title>
<path fill="none" stroke="black" d="M3071.97,-328.394C2799.99,-318.36 1335.64,-264.339 1020.34,-252.708"/>
<polygon fill="black" stroke="black" points="1020.17,-249.199 1010.04,-252.328 1019.91,-256.194 1020.17,-249.199"/>
</g>
<!-- 4 -->
<g id="node5" class="node"><title>4</title>
<path fill="#bfe6cf" stroke="black" d="M2649.5,-268.5C2649.5,-268.5 2501.5,-268.5 2501.5,-268.5 2495.5,-268.5 2489.5,-262.5 2489.5,-256.5 2489.5,-256.5 2489.5,-242.5 2489.5,-242.5 2489.5,-236.5 2495.5,-230.5 2501.5,-230.5 2501.5,-230.5 2649.5,-230.5 2649.5,-230.5 2655.5,-230.5 2661.5,-236.5 2661.5,-242.5 2661.5,-242.5 2661.5,-256.5 2661.5,-256.5 2661.5,-262.5 2655.5,-268.5 2649.5,-268.5"/>
<text text-anchor="middle" x="2575.5" y="-253.3" font-family="Times,serif" font-size="14.00">encode block 1</text>
<text text-anchor="middle" x="2575.5" y="-238.3" font-family="Times,serif" font-size="14.00">n kernels: 5 &#160;&#160;spatial scale: 1</text>
</g>
<!-- 1&#45;&gt;4 -->
<g id="edge4" class="edge"><title>1&#45;&gt;4</title>
<path fill="none" stroke="black" d="M3071.77,-323.562C2985.16,-310.81 2789.99,-282.078 2671.86,-264.686"/>
<polygon fill="black" stroke="black" points="2672.13,-261.189 2661.73,-263.195 2671.11,-268.114 2672.13,-261.189"/>
</g>
<!-- 5 -->
<g id="node6" class="node"><title>5</title>
<path fill="#abceb9" stroke="black" d="M3810,-276C3810,-276 3601,-276 3601,-276 3595,-276 3589,-270 3589,-264 3589,-264 3589,-235 3589,-235 3589,-229 3595,-223 3601,-223 3601,-223 3810,-223 3810,-223 3816,-223 3822,-229 3822,-235 3822,-235 3822,-264 3822,-264 3822,-270 3816,-276 3810,-276"/>
<text text-anchor="middle" x="3705.5" y="-260.8" font-family="Times,serif" font-size="14.00">encode block 2</text>
<text text-anchor="middle" x="3705.5" y="-245.8" font-family="Times,serif" font-size="14.00">log gamma2: 1.000000 &#160;&#160;n kernels: 282</text>
<text text-anchor="middle" x="3705.5" y="-230.8" font-family="Times,serif" font-size="14.00">spatial scale: 2</text>
</g>
<!-- 1&#45;&gt;5 -->
<g id="edge5" class="edge"><title>1&#45;&gt;5</title>
<path fill="none" stroke="black" d="M3159.36,-324.09C3247.01,-312.279 3446.7,-285.372 3578.78,-267.576"/>
<polygon fill="black" stroke="black" points="3579.51,-271.008 3588.96,-266.204 3578.58,-264.071 3579.51,-271.008"/>
</g>
<!-- 6 -->
<g id="node7" class="node"><title>6</title>
<path fill="#d3ffe4" stroke="black" d="M5586,-276C5586,-276 5377,-276 5377,-276 5371,-276 5365,-270 5365,-264 5365,-264 5365,-235 5365,-235 5365,-229 5371,-223 5377,-223 5377,-223 5586,-223 5586,-223 5592,-223 5598,-229 5598,-235 5598,-235 5598,-264 5598,-264 5598,-270 5592,-276 5586,-276"/>
<text text-anchor="middle" x="5481.5" y="-260.8" font-family="Times,serif" font-size="14.00">decode block 3</text>
<text text-anchor="middle" x="5481.5" y="-245.8" font-family="Times,serif" font-size="14.00">log gamma2: 1.000000 &#160;&#160;n kernels: 490</text>
<text text-anchor="middle" x="5481.5" y="-230.8" font-family="Times,serif" font-size="14.00">spatial scale: 3</text>
</g>
<!-- 2&#45;&gt;6 -->
<g id="edge6" class="edge"><title>2&#45;&gt;6</title>
<path fill="none" stroke="black" d="M7212.34,-327.935C6983.55,-317.699 5967.89,-272.26 5608.25,-256.17"/>
<polygon fill="black" stroke="black" points="5608.2,-252.665 5598.06,-255.715 5607.89,-259.658 5608.2,-252.665"/>
</g>
<!-- 7 -->
<g id="node8" class="node"><title>7</title>
<path fill="#bfe6cf" stroke="black" d="M7363,-276C7363,-276 7154,-276 7154,-276 7148,-276 7142,-270 7142,-264 7142,-264 7142,-235 7142,-235 7142,-229 7148,-223 7154,-223 7154,-223 7363,-223 7363,-223 7369,-223 7375,-229 7375,-235 7375,-235 7375,-264 7375,-264 7375,-270 7369,-276 7363,-276"/>
<text text-anchor="middle" x="7258.5" y="-260.8" font-family="Times,serif" font-size="14.00">decode block 2</text>
<text text-anchor="middle" x="7258.5" y="-245.8" font-family="Times,serif" font-size="14.00">log gamma1: 1.173759 &#160;&#160;n kernels: 210</text>
<text text-anchor="middle" x="7258.5" y="-230.8" font-family="Times,serif" font-size="14.00">spatial scale: 2</text>
</g>
<!-- 2&#45;&gt;7 -->
<g id="edge7" class="edge"><title>2&#45;&gt;7</title>
<path fill="none" stroke="black" d="M7258.5,-311.96C7258.5,-304.321 7258.5,-295.139 7258.5,-286.229"/>
<polygon fill="black" stroke="black" points="7262,-286.003 7258.5,-276.003 7255,-286.003 7262,-286.003"/>
</g>
<!-- 8 -->
<g id="node9" class="node"><title>8</title>
<path fill="#abceb9" stroke="black" d="M9092.5,-276C9092.5,-276 8890.5,-276 8890.5,-276 8884.5,-276 8878.5,-270 8878.5,-264 8878.5,-264 8878.5,-235 8878.5,-235 8878.5,-229 8884.5,-223 8890.5,-223 8890.5,-223 9092.5,-223 9092.5,-223 9098.5,-223 9104.5,-229 9104.5,-235 9104.5,-235 9104.5,-264 9104.5,-264 9104.5,-270 9098.5,-276 9092.5,-276"/>
<text text-anchor="middle" x="8991.5" y="-260.8" font-family="Times,serif" font-size="14.00">decode block 1</text>
<text text-anchor="middle" x="8991.5" y="-245.8" font-family="Times,serif" font-size="14.00">log gamma1: 1.508626 &#160;&#160;n kernels: 70</text>
<text text-anchor="middle" x="8991.5" y="-230.8" font-family="Times,serif" font-size="14.00">spatial scale: 1</text>
</g>
<!-- 2&#45;&gt;8 -->
<g id="edge8" class="edge"><title>2&#45;&gt;8</title>
<path fill="none" stroke="black" d="M7304.85,-327.874C7530.65,-317.515 8518.65,-272.192 8868.32,-256.151"/>
<polygon fill="black" stroke="black" points="8868.65,-259.64 8878.48,-255.685 8868.33,-252.647 8868.65,-259.64"/>
</g>
<!-- 9 -->
<g id="node10" class="node"><title>9</title>
<path fill="#97b6a3" stroke="black" d="M11013,-268.5C11013,-268.5 10888,-268.5 10888,-268.5 10882,-268.5 10876,-262.5 10876,-256.5 10876,-256.5 10876,-242.5 10876,-242.5 10876,-236.5 10882,-230.5 10888,-230.5 10888,-230.5 11013,-230.5 11013,-230.5 11019,-230.5 11025,-236.5 11025,-242.5 11025,-242.5 11025,-256.5 11025,-256.5 11025,-262.5 11019,-268.5 11013,-268.5"/>
<text text-anchor="middle" x="10950.5" y="-253.3" font-family="Times,serif" font-size="14.00">decode block 0</text>
<text text-anchor="middle" x="10950.5" y="-238.3" font-family="Times,serif" font-size="14.00">log gamma1: &#45;1.911575</text>
</g>
<!-- 2&#45;&gt;9 -->
<g id="edge9" class="edge"><title>2&#45;&gt;9</title>
<path fill="none" stroke="black" d="M7304.51,-329.009C7688.09,-320.75 10353.1,-263.364 10865.4,-252.332"/>
<polygon fill="black" stroke="black" points="10865.8,-255.825 10875.7,-252.111 10865.6,-248.827 10865.8,-255.825"/>
</g>
<!-- 10 -->
<g id="node11" class="node"><title>10</title>
<path fill="#d3e4ff" stroke="black" d="M324.5,-178.5C324.5,-178.5 290.5,-178.5 290.5,-178.5 284.5,-178.5 278.5,-172.5 278.5,-166.5 278.5,-166.5 278.5,-154.5 278.5,-154.5 278.5,-148.5 284.5,-142.5 290.5,-142.5 290.5,-142.5 324.5,-142.5 324.5,-142.5 330.5,-142.5 336.5,-148.5 336.5,-154.5 336.5,-154.5 336.5,-166.5 336.5,-166.5 336.5,-172.5 330.5,-178.5 324.5,-178.5"/>
<text text-anchor="middle" x="307.5" y="-156.8" font-family="Times,serif" font-size="14.00">comp 0</text>
</g>
<!-- 3&#45;&gt;10 -->
<g id="edge10" class="edge"><title>3&#45;&gt;10</title>
<path fill="none" stroke="black" d="M910.883,-241.889C785.766,-225.22 459.351,-181.731 346.532,-166.7"/>
<polygon fill="black" stroke="black" points="346.978,-163.229 336.603,-165.377 346.053,-170.168 346.978,-163.229"/>
</g>
<!-- 11 -->
<g id="node12" class="node"><title>11</title>
<path fill="#bfcfe6" stroke="black" d="M616.5,-178.5C616.5,-178.5 582.5,-178.5 582.5,-178.5 576.5,-178.5 570.5,-172.5 570.5,-166.5 570.5,-166.5 570.5,-154.5 570.5,-154.5 570.5,-148.5 576.5,-142.5 582.5,-142.5 582.5,-142.5 616.5,-142.5 616.5,-142.5 622.5,-142.5 628.5,-148.5 628.5,-154.5 628.5,-154.5 628.5,-166.5 628.5,-166.5 628.5,-172.5 622.5,-178.5 616.5,-178.5"/>
<text text-anchor="middle" x="599.5" y="-156.8" font-family="Times,serif" font-size="14.00">comp 1</text>
</g>
<!-- 3&#45;&gt;11 -->
<g id="edge11" class="edge"><title>3&#45;&gt;11</title>
<path fill="none" stroke="black" d="M910.684,-236.494C838.162,-219.017 704.977,-186.92 638.868,-170.988"/>
<polygon fill="black" stroke="black" points="639.396,-167.515 628.854,-168.574 637.755,-174.32 639.396,-167.515"/>
</g>
<!-- 12 -->
<g id="node13" class="node"><title>12</title>
<path fill="#abb9ce" stroke="black" d="M877.5,-178.5C877.5,-178.5 843.5,-178.5 843.5,-178.5 837.5,-178.5 831.5,-172.5 831.5,-166.5 831.5,-166.5 831.5,-154.5 831.5,-154.5 831.5,-148.5 837.5,-142.5 843.5,-142.5 843.5,-142.5 877.5,-142.5 877.5,-142.5 883.5,-142.5 889.5,-148.5 889.5,-154.5 889.5,-154.5 889.5,-166.5 889.5,-166.5 889.5,-172.5 883.5,-178.5 877.5,-178.5"/>
<text text-anchor="middle" x="860.5" y="-156.8" font-family="Times,serif" font-size="14.00">comp 2</text>
</g>
<!-- 3&#45;&gt;12 -->
<g id="edge12" class="edge"><title>3&#45;&gt;12</title>
<path fill="none" stroke="black" d="M940.743,-231.312C925.677,-218.204 904.743,-199.991 888.034,-185.455"/>
<polygon fill="black" stroke="black" points="890.057,-182.576 880.216,-178.653 885.463,-187.857 890.057,-182.576"/>
</g>
<!-- 13 -->
<g id="node14" class="node"><title>13</title>
<path fill="#97a3b6" stroke="black" d="M1076.5,-178.5C1076.5,-178.5 1042.5,-178.5 1042.5,-178.5 1036.5,-178.5 1030.5,-172.5 1030.5,-166.5 1030.5,-166.5 1030.5,-154.5 1030.5,-154.5 1030.5,-148.5 1036.5,-142.5 1042.5,-142.5 1042.5,-142.5 1076.5,-142.5 1076.5,-142.5 1082.5,-142.5 1088.5,-148.5 1088.5,-154.5 1088.5,-154.5 1088.5,-166.5 1088.5,-166.5 1088.5,-172.5 1082.5,-178.5 1076.5,-178.5"/>
<text text-anchor="middle" x="1059.5" y="-156.8" font-family="Times,serif" font-size="14.00">comp 3</text>
</g>
<!-- 3&#45;&gt;13 -->
<g id="edge13" class="edge"><title>3&#45;&gt;13</title>
<path fill="none" stroke="black" d="M980.059,-231.312C994.975,-218.204 1015.7,-199.991 1032.24,-185.455"/>
<polygon fill="black" stroke="black" points="1034.78,-187.883 1039.98,-178.653 1030.16,-182.625 1034.78,-187.883"/>
</g>
<!-- 14 -->
<g id="node15" class="node"><title>14</title>
<path fill="#838d9e" stroke="black" d="M1275.5,-178.5C1275.5,-178.5 1241.5,-178.5 1241.5,-178.5 1235.5,-178.5 1229.5,-172.5 1229.5,-166.5 1229.5,-166.5 1229.5,-154.5 1229.5,-154.5 1229.5,-148.5 1235.5,-142.5 1241.5,-142.5 1241.5,-142.5 1275.5,-142.5 1275.5,-142.5 1281.5,-142.5 1287.5,-148.5 1287.5,-154.5 1287.5,-154.5 1287.5,-166.5 1287.5,-166.5 1287.5,-172.5 1281.5,-178.5 1275.5,-178.5"/>
<text text-anchor="middle" x="1258.5" y="-156.8" font-family="Times,serif" font-size="14.00">comp 4</text>
</g>
<!-- 3&#45;&gt;14 -->
<g id="edge14" class="edge"><title>3&#45;&gt;14</title>
<path fill="none" stroke="black" d="M1010.04,-234.036C1068.82,-216.878 1165.58,-188.627 1219.37,-172.925"/>
<polygon fill="black" stroke="black" points="1220.59,-176.214 1229.21,-170.052 1218.63,-169.494 1220.59,-176.214"/>
</g>
<!-- 15 -->
<g id="node16" class="node"><title>15</title>
<path fill="#d3e4ff" stroke="black" d="M1994.5,-178.5C1994.5,-178.5 1960.5,-178.5 1960.5,-178.5 1954.5,-178.5 1948.5,-172.5 1948.5,-166.5 1948.5,-166.5 1948.5,-154.5 1948.5,-154.5 1948.5,-148.5 1954.5,-142.5 1960.5,-142.5 1960.5,-142.5 1994.5,-142.5 1994.5,-142.5 2000.5,-142.5 2006.5,-148.5 2006.5,-154.5 2006.5,-154.5 2006.5,-166.5 2006.5,-166.5 2006.5,-172.5 2000.5,-178.5 1994.5,-178.5"/>
<text text-anchor="middle" x="1977.5" y="-156.8" font-family="Times,serif" font-size="14.00">comp 0</text>
</g>
<!-- 4&#45;&gt;15 -->
<g id="edge15" class="edge"><title>4&#45;&gt;15</title>
<path fill="none" stroke="black" d="M2489.18,-235.942C2357.62,-216.802 2112.16,-181.09 2016.8,-167.217"/>
<polygon fill="black" stroke="black" points="2017.12,-163.727 2006.72,-165.751 2016.11,-170.654 2017.12,-163.727"/>
</g>
<!-- 16 -->
<g id="node17" class="node"><title>16</title>
<path fill="#bfcfe6" stroke="black" d="M2281.5,-178.5C2281.5,-178.5 2247.5,-178.5 2247.5,-178.5 2241.5,-178.5 2235.5,-172.5 2235.5,-166.5 2235.5,-166.5 2235.5,-154.5 2235.5,-154.5 2235.5,-148.5 2241.5,-142.5 2247.5,-142.5 2247.5,-142.5 2281.5,-142.5 2281.5,-142.5 2287.5,-142.5 2293.5,-148.5 2293.5,-154.5 2293.5,-154.5 2293.5,-166.5 2293.5,-166.5 2293.5,-172.5 2287.5,-178.5 2281.5,-178.5"/>
<text text-anchor="middle" x="2264.5" y="-156.8" font-family="Times,serif" font-size="14.00">comp 1</text>
</g>
<!-- 4&#45;&gt;16 -->
<g id="edge16" class="edge"><title>4&#45;&gt;16</title>
<path fill="none" stroke="black" d="M2511.06,-230.474C2448.51,-212.976 2355.61,-186.988 2303.53,-172.419"/>
<polygon fill="black" stroke="black" points="2304.25,-168.987 2293.68,-169.663 2302.37,-175.728 2304.25,-168.987"/>
</g>
<!-- 17 -->
<g id="node18" class="node"><title>17</title>
<path fill="#abb9ce" stroke="black" d="M2481.5,-178.5C2481.5,-178.5 2447.5,-178.5 2447.5,-178.5 2441.5,-178.5 2435.5,-172.5 2435.5,-166.5 2435.5,-166.5 2435.5,-154.5 2435.5,-154.5 2435.5,-148.5 2441.5,-142.5 2447.5,-142.5 2447.5,-142.5 2481.5,-142.5 2481.5,-142.5 2487.5,-142.5 2493.5,-148.5 2493.5,-154.5 2493.5,-154.5 2493.5,-166.5 2493.5,-166.5 2493.5,-172.5 2487.5,-178.5 2481.5,-178.5"/>
<text text-anchor="middle" x="2464.5" y="-156.8" font-family="Times,serif" font-size="14.00">comp 2</text>
</g>
<!-- 4&#45;&gt;17 -->
<g id="edge17" class="edge"><title>4&#45;&gt;17</title>
<path fill="none" stroke="black" d="M2552.5,-230.474C2535.65,-217.266 2512.63,-199.222 2494.36,-184.902"/>
<polygon fill="black" stroke="black" points="2496.37,-182.03 2486.34,-178.615 2492.05,-187.539 2496.37,-182.03"/>
</g>
<!-- 18 -->
<g id="node19" class="node"><title>18</title>
<path fill="#97a3b6" stroke="black" d="M2749,-179.5C2749,-179.5 2624,-179.5 2624,-179.5 2618,-179.5 2612,-173.5 2612,-167.5 2612,-167.5 2612,-153.5 2612,-153.5 2612,-147.5 2618,-141.5 2624,-141.5 2624,-141.5 2749,-141.5 2749,-141.5 2755,-141.5 2761,-147.5 2761,-153.5 2761,-153.5 2761,-167.5 2761,-167.5 2761,-173.5 2755,-179.5 2749,-179.5"/>
<text text-anchor="middle" x="2686.5" y="-164.3" font-family="Times,serif" font-size="14.00">comp 3</text>
<text text-anchor="middle" x="2686.5" y="-149.3" font-family="Times,serif" font-size="14.00">log gamma1: &#45;0.332634</text>
</g>
<!-- 4&#45;&gt;18 -->
<g id="edge18" class="edge"><title>4&#45;&gt;18</title>
<path fill="none" stroke="black" d="M2598.5,-230.474C2615.02,-217.525 2637.47,-199.928 2655.56,-185.749"/>
<polygon fill="black" stroke="black" points="2657.82,-188.427 2663.53,-179.503 2653.5,-182.918 2657.82,-188.427"/>
</g>
<!-- 19 -->
<g id="node20" class="node"><title>19</title>
<path fill="#838d9e" stroke="black" d="M2925.5,-178.5C2925.5,-178.5 2891.5,-178.5 2891.5,-178.5 2885.5,-178.5 2879.5,-172.5 2879.5,-166.5 2879.5,-166.5 2879.5,-154.5 2879.5,-154.5 2879.5,-148.5 2885.5,-142.5 2891.5,-142.5 2891.5,-142.5 2925.5,-142.5 2925.5,-142.5 2931.5,-142.5 2937.5,-148.5 2937.5,-154.5 2937.5,-154.5 2937.5,-166.5 2937.5,-166.5 2937.5,-172.5 2931.5,-178.5 2925.5,-178.5"/>
<text text-anchor="middle" x="2908.5" y="-156.8" font-family="Times,serif" font-size="14.00">comp 4</text>
</g>
<!-- 4&#45;&gt;19 -->
<g id="edge19" class="edge"><title>4&#45;&gt;19</title>
<path fill="none" stroke="black" d="M2644.5,-230.474C2712.65,-212.669 2814.45,-186.073 2869.6,-171.662"/>
<polygon fill="black" stroke="black" points="2870.55,-175.032 2879.34,-169.118 2868.78,-168.26 2870.55,-175.032"/>
</g>
<!-- 20 -->
<g id="node21" class="node"><title>20</title>
<path fill="#d3e4ff" stroke="black" d="M3523.5,-178.5C3523.5,-178.5 3489.5,-178.5 3489.5,-178.5 3483.5,-178.5 3477.5,-172.5 3477.5,-166.5 3477.5,-166.5 3477.5,-154.5 3477.5,-154.5 3477.5,-148.5 3483.5,-142.5 3489.5,-142.5 3489.5,-142.5 3523.5,-142.5 3523.5,-142.5 3529.5,-142.5 3535.5,-148.5 3535.5,-154.5 3535.5,-154.5 3535.5,-166.5 3535.5,-166.5 3535.5,-172.5 3529.5,-178.5 3523.5,-178.5"/>
<text text-anchor="middle" x="3506.5" y="-156.8" font-family="Times,serif" font-size="14.00">comp 0</text>
</g>
<!-- 5&#45;&gt;20 -->
<g id="edge20" class="edge"><title>5&#45;&gt;20</title>
<path fill="none" stroke="black" d="M3647.14,-222.985C3614.17,-208.57 3573.88,-190.957 3544.89,-178.283"/>
<polygon fill="black" stroke="black" points="3546.08,-174.984 3535.52,-174.185 3543.28,-181.398 3546.08,-174.984"/>
</g>
<!-- 21 -->
<g id="node22" class="node"><title>21</title>
<path fill="#bfcfe6" stroke="black" d="M3722.5,-178.5C3722.5,-178.5 3688.5,-178.5 3688.5,-178.5 3682.5,-178.5 3676.5,-172.5 3676.5,-166.5 3676.5,-166.5 3676.5,-154.5 3676.5,-154.5 3676.5,-148.5 3682.5,-142.5 3688.5,-142.5 3688.5,-142.5 3722.5,-142.5 3722.5,-142.5 3728.5,-142.5 3734.5,-148.5 3734.5,-154.5 3734.5,-154.5 3734.5,-166.5 3734.5,-166.5 3734.5,-172.5 3728.5,-178.5 3722.5,-178.5"/>
<text text-anchor="middle" x="3705.5" y="-156.8" font-family="Times,serif" font-size="14.00">comp 1</text>
</g>
<!-- 5&#45;&gt;21 -->
<g id="edge21" class="edge"><title>5&#45;&gt;21</title>
<path fill="none" stroke="black" d="M3705.5,-222.868C3705.5,-212.192 3705.5,-199.777 3705.5,-188.919"/>
<polygon fill="black" stroke="black" points="3709,-188.701 3705.5,-178.701 3702,-188.701 3709,-188.701"/>
</g>
<!-- 22 -->
<g id="node23" class="node"><title>22</title>
<path fill="#abb9ce" stroke="black" d="M3921.5,-178.5C3921.5,-178.5 3887.5,-178.5 3887.5,-178.5 3881.5,-178.5 3875.5,-172.5 3875.5,-166.5 3875.5,-166.5 3875.5,-154.5 3875.5,-154.5 3875.5,-148.5 3881.5,-142.5 3887.5,-142.5 3887.5,-142.5 3921.5,-142.5 3921.5,-142.5 3927.5,-142.5 3933.5,-148.5 3933.5,-154.5 3933.5,-154.5 3933.5,-166.5 3933.5,-166.5 3933.5,-172.5 3927.5,-178.5 3921.5,-178.5"/>
<text text-anchor="middle" x="3904.5" y="-156.8" font-family="Times,serif" font-size="14.00">comp 2</text>
</g>
<!-- 5&#45;&gt;22 -->
<g id="edge22" class="edge"><title>5&#45;&gt;22</title>
<path fill="none" stroke="black" d="M3763.86,-222.985C3796.83,-208.57 3837.12,-190.957 3866.11,-178.283"/>
<polygon fill="black" stroke="black" points="3867.72,-181.398 3875.48,-174.185 3864.92,-174.984 3867.72,-181.398"/>
</g>
<!-- 23 -->
<g id="node24" class="node"><title>23</title>
<path fill="#97a3b6" stroke="black" d="M4244.5,-178.5C4244.5,-178.5 4210.5,-178.5 4210.5,-178.5 4204.5,-178.5 4198.5,-172.5 4198.5,-166.5 4198.5,-166.5 4198.5,-154.5 4198.5,-154.5 4198.5,-148.5 4204.5,-142.5 4210.5,-142.5 4210.5,-142.5 4244.5,-142.5 4244.5,-142.5 4250.5,-142.5 4256.5,-148.5 4256.5,-154.5 4256.5,-154.5 4256.5,-166.5 4256.5,-166.5 4256.5,-172.5 4250.5,-178.5 4244.5,-178.5"/>
<text text-anchor="middle" x="4227.5" y="-156.8" font-family="Times,serif" font-size="14.00">comp 3</text>
</g>
<!-- 5&#45;&gt;23 -->
<g id="edge23" class="edge"><title>5&#45;&gt;23</title>
<path fill="none" stroke="black" d="M3822.32,-229.03C3938.86,-209.607 4111.28,-180.87 4188.09,-168.068"/>
<polygon fill="black" stroke="black" points="4188.99,-171.466 4198.28,-166.37 4187.84,-164.562 4188.99,-171.466"/>
</g>
<!-- 24 -->
<g id="node25" class="node"><title>24</title>
<path fill="#d3e4ff" stroke="black" d="M4846.5,-178.5C4846.5,-178.5 4812.5,-178.5 4812.5,-178.5 4806.5,-178.5 4800.5,-172.5 4800.5,-166.5 4800.5,-166.5 4800.5,-154.5 4800.5,-154.5 4800.5,-148.5 4806.5,-142.5 4812.5,-142.5 4812.5,-142.5 4846.5,-142.5 4846.5,-142.5 4852.5,-142.5 4858.5,-148.5 4858.5,-154.5 4858.5,-154.5 4858.5,-166.5 4858.5,-166.5 4858.5,-172.5 4852.5,-178.5 4846.5,-178.5"/>
<text text-anchor="middle" x="4829.5" y="-156.8" font-family="Times,serif" font-size="14.00">comp 0</text>
</g>
<!-- 6&#45;&gt;24 -->
<g id="edge24" class="edge"><title>6&#45;&gt;24</title>
<path fill="none" stroke="black" d="M5364.94,-232.946C5215.77,-213.042 4965.16,-179.602 4868.84,-166.75"/>
<polygon fill="black" stroke="black" points="4869.05,-163.247 4858.68,-165.393 4868.13,-170.185 4869.05,-163.247"/>
</g>
<!-- 25 -->
<g id="node26" class="node"><title>25</title>
<path fill="#bfcfe6" stroke="black" d="M5138.5,-178.5C5138.5,-178.5 5104.5,-178.5 5104.5,-178.5 5098.5,-178.5 5092.5,-172.5 5092.5,-166.5 5092.5,-166.5 5092.5,-154.5 5092.5,-154.5 5092.5,-148.5 5098.5,-142.5 5104.5,-142.5 5104.5,-142.5 5138.5,-142.5 5138.5,-142.5 5144.5,-142.5 5150.5,-148.5 5150.5,-154.5 5150.5,-154.5 5150.5,-166.5 5150.5,-166.5 5150.5,-172.5 5144.5,-178.5 5138.5,-178.5"/>
<text text-anchor="middle" x="5121.5" y="-156.8" font-family="Times,serif" font-size="14.00">comp 1</text>
</g>
<!-- 6&#45;&gt;25 -->
<g id="edge25" class="edge"><title>6&#45;&gt;25</title>
<path fill="none" stroke="black" d="M5375.92,-222.985C5303.72,-205.535 5212.12,-183.4 5160.85,-171.011"/>
<polygon fill="black" stroke="black" points="5161.4,-167.541 5150.85,-168.594 5159.75,-174.345 5161.4,-167.541"/>
</g>
<!-- 26 -->
<g id="node27" class="node"><title>26</title>
<path fill="#abb9ce" stroke="black" d="M5399.5,-178.5C5399.5,-178.5 5365.5,-178.5 5365.5,-178.5 5359.5,-178.5 5353.5,-172.5 5353.5,-166.5 5353.5,-166.5 5353.5,-154.5 5353.5,-154.5 5353.5,-148.5 5359.5,-142.5 5365.5,-142.5 5365.5,-142.5 5399.5,-142.5 5399.5,-142.5 5405.5,-142.5 5411.5,-148.5 5411.5,-154.5 5411.5,-154.5 5411.5,-166.5 5411.5,-166.5 5411.5,-172.5 5405.5,-178.5 5399.5,-178.5"/>
<text text-anchor="middle" x="5382.5" y="-156.8" font-family="Times,serif" font-size="14.00">comp 2</text>
</g>
<!-- 6&#45;&gt;26 -->
<g id="edge26" class="edge"><title>6&#45;&gt;26</title>
<path fill="none" stroke="black" d="M5452.33,-222.868C5438.92,-211.079 5423.09,-197.172 5409.9,-185.58"/>
<polygon fill="black" stroke="black" points="5411.9,-182.673 5402.07,-178.701 5407.28,-187.932 5411.9,-182.673"/>
</g>
<!-- 27 -->
<g id="node28" class="node"><title>27</title>
<path fill="#97a3b6" stroke="black" d="M5598.5,-178.5C5598.5,-178.5 5564.5,-178.5 5564.5,-178.5 5558.5,-178.5 5552.5,-172.5 5552.5,-166.5 5552.5,-166.5 5552.5,-154.5 5552.5,-154.5 5552.5,-148.5 5558.5,-142.5 5564.5,-142.5 5564.5,-142.5 5598.5,-142.5 5598.5,-142.5 5604.5,-142.5 5610.5,-148.5 5610.5,-154.5 5610.5,-154.5 5610.5,-166.5 5610.5,-166.5 5610.5,-172.5 5604.5,-178.5 5598.5,-178.5"/>
<text text-anchor="middle" x="5581.5" y="-156.8" font-family="Times,serif" font-size="14.00">comp 3</text>
</g>
<!-- 6&#45;&gt;27 -->
<g id="edge27" class="edge"><title>6&#45;&gt;27</title>
<path fill="none" stroke="black" d="M5510.96,-222.868C5524.51,-211.079 5540.5,-197.172 5553.82,-185.58"/>
<polygon fill="black" stroke="black" points="5556.48,-187.906 5561.73,-178.701 5551.89,-182.625 5556.48,-187.906"/>
</g>
<!-- 28 -->
<g id="node29" class="node"><title>28</title>
<path fill="#838d9e" stroke="black" d="M5797.5,-178.5C5797.5,-178.5 5763.5,-178.5 5763.5,-178.5 5757.5,-178.5 5751.5,-172.5 5751.5,-166.5 5751.5,-166.5 5751.5,-154.5 5751.5,-154.5 5751.5,-148.5 5757.5,-142.5 5763.5,-142.5 5763.5,-142.5 5797.5,-142.5 5797.5,-142.5 5803.5,-142.5 5809.5,-148.5 5809.5,-154.5 5809.5,-154.5 5809.5,-166.5 5809.5,-166.5 5809.5,-172.5 5803.5,-178.5 5797.5,-178.5"/>
<text text-anchor="middle" x="5780.5" y="-156.8" font-family="Times,serif" font-size="14.00">comp 4</text>
</g>
<!-- 6&#45;&gt;28 -->
<g id="edge28" class="edge"><title>6&#45;&gt;28</title>
<path fill="none" stroke="black" d="M5569.19,-222.985C5626.42,-206.332 5698.32,-185.412 5741.78,-172.768"/>
<polygon fill="black" stroke="black" points="5742.77,-176.124 5751.39,-169.97 5740.81,-169.403 5742.77,-176.124"/>
</g>
<!-- 29 -->
<g id="node30" class="node"><title>29</title>
<path fill="#d3e4ff" stroke="black" d="M6629.5,-178.5C6629.5,-178.5 6595.5,-178.5 6595.5,-178.5 6589.5,-178.5 6583.5,-172.5 6583.5,-166.5 6583.5,-166.5 6583.5,-154.5 6583.5,-154.5 6583.5,-148.5 6589.5,-142.5 6595.5,-142.5 6595.5,-142.5 6629.5,-142.5 6629.5,-142.5 6635.5,-142.5 6641.5,-148.5 6641.5,-154.5 6641.5,-154.5 6641.5,-166.5 6641.5,-166.5 6641.5,-172.5 6635.5,-178.5 6629.5,-178.5"/>
<text text-anchor="middle" x="6612.5" y="-156.8" font-family="Times,serif" font-size="14.00">comp 0</text>
</g>
<!-- 7&#45;&gt;29 -->
<g id="edge29" class="edge"><title>7&#45;&gt;29</title>
<path fill="none" stroke="black" d="M7141.89,-232.795C6994.06,-212.887 6747,-179.614 6651.67,-166.776"/>
<polygon fill="black" stroke="black" points="6651.98,-163.286 6641.61,-165.42 6651.05,-170.223 6651.98,-163.286"/>
</g>
<!-- 30 -->
<g id="node31" class="node"><title>30</title>
<path fill="#bfcfe6" stroke="black" d="M7019.5,-178.5C7019.5,-178.5 6985.5,-178.5 6985.5,-178.5 6979.5,-178.5 6973.5,-172.5 6973.5,-166.5 6973.5,-166.5 6973.5,-154.5 6973.5,-154.5 6973.5,-148.5 6979.5,-142.5 6985.5,-142.5 6985.5,-142.5 7019.5,-142.5 7019.5,-142.5 7025.5,-142.5 7031.5,-148.5 7031.5,-154.5 7031.5,-154.5 7031.5,-166.5 7031.5,-166.5 7031.5,-172.5 7025.5,-178.5 7019.5,-178.5"/>
<text text-anchor="middle" x="7002.5" y="-156.8" font-family="Times,serif" font-size="14.00">comp 1</text>
</g>
<!-- 7&#45;&gt;30 -->
<g id="edge30" class="edge"><title>7&#45;&gt;30</title>
<path fill="none" stroke="black" d="M7183.42,-222.985C7136.83,-207.152 7078.89,-187.461 7041.32,-174.693"/>
<polygon fill="black" stroke="black" points="7042.36,-171.348 7031.76,-171.444 7040.1,-177.976 7042.36,-171.348"/>
</g>
<!-- 31 -->
<g id="node32" class="node"><title>31</title>
<path fill="#abb9ce" stroke="black" d="M7388,-187C7388,-187 7129,-187 7129,-187 7123,-187 7117,-181 7117,-175 7117,-175 7117,-146 7117,-146 7117,-140 7123,-134 7129,-134 7129,-134 7388,-134 7388,-134 7394,-134 7400,-140 7400,-146 7400,-146 7400,-175 7400,-175 7400,-181 7394,-187 7388,-187"/>
<text text-anchor="middle" x="7258.5" y="-171.8" font-family="Times,serif" font-size="14.00">comp 2</text>
<text text-anchor="middle" x="7258.5" y="-156.8" font-family="Times,serif" font-size="14.00">log gamma1: 1.668584 &#160;&#160;log gamma2: 1.000000</text>
<text text-anchor="middle" x="7258.5" y="-141.8" font-family="Times,serif" font-size="14.00">n kernels: &#45;152</text>
</g>
<!-- 7&#45;&gt;31 -->
<g id="edge31" class="edge"><title>7&#45;&gt;31</title>
<path fill="none" stroke="black" d="M7258.5,-222.868C7258.5,-214.886 7258.5,-205.932 7258.5,-197.384"/>
<polygon fill="black" stroke="black" points="7262,-197.25 7258.5,-187.25 7255,-197.25 7262,-197.25"/>
</g>
<!-- 32 -->
<g id="node33" class="node"><title>32</title>
<path fill="#97a3b6" stroke="black" d="M7561.5,-179.5C7561.5,-179.5 7487.5,-179.5 7487.5,-179.5 7481.5,-179.5 7475.5,-173.5 7475.5,-167.5 7475.5,-167.5 7475.5,-153.5 7475.5,-153.5 7475.5,-147.5 7481.5,-141.5 7487.5,-141.5 7487.5,-141.5 7561.5,-141.5 7561.5,-141.5 7567.5,-141.5 7573.5,-147.5 7573.5,-153.5 7573.5,-153.5 7573.5,-167.5 7573.5,-167.5 7573.5,-173.5 7567.5,-179.5 7561.5,-179.5"/>
<text text-anchor="middle" x="7524.5" y="-164.3" font-family="Times,serif" font-size="14.00">comp 3</text>
<text text-anchor="middle" x="7524.5" y="-149.3" font-family="Times,serif" font-size="14.00">n kernels: &#45;152</text>
</g>
<!-- 7&#45;&gt;32 -->
<g id="edge32" class="edge"><title>7&#45;&gt;32</title>
<path fill="none" stroke="black" d="M7336.51,-222.985C7377.74,-209.499 7427.53,-193.215 7465.51,-180.793"/>
<polygon fill="black" stroke="black" points="7466.98,-183.996 7475.39,-177.561 7464.8,-177.343 7466.98,-183.996"/>
</g>
<!-- 33 -->
<g id="node34" class="node"><title>33</title>
<path fill="#838d9e" stroke="black" d="M7807.5,-178.5C7807.5,-178.5 7773.5,-178.5 7773.5,-178.5 7767.5,-178.5 7761.5,-172.5 7761.5,-166.5 7761.5,-166.5 7761.5,-154.5 7761.5,-154.5 7761.5,-148.5 7767.5,-142.5 7773.5,-142.5 7773.5,-142.5 7807.5,-142.5 7807.5,-142.5 7813.5,-142.5 7819.5,-148.5 7819.5,-154.5 7819.5,-154.5 7819.5,-166.5 7819.5,-166.5 7819.5,-172.5 7813.5,-178.5 7807.5,-178.5"/>
<text text-anchor="middle" x="7790.5" y="-156.8" font-family="Times,serif" font-size="14.00">comp 4</text>
</g>
<!-- 7&#45;&gt;33 -->
<g id="edge33" class="edge"><title>7&#45;&gt;33</title>
<path fill="none" stroke="black" d="M7375.25,-229.407C7494.53,-209.9 7673.02,-180.711 7751.32,-167.908"/>
<polygon fill="black" stroke="black" points="7751.94,-171.353 7761.24,-166.285 7750.81,-164.444 7751.94,-171.353"/>
</g>
<!-- 34 -->
<g id="node35" class="node"><title>34</title>
<path fill="#d3e4ff" stroke="black" d="M8567.5,-178.5C8567.5,-178.5 8533.5,-178.5 8533.5,-178.5 8527.5,-178.5 8521.5,-172.5 8521.5,-166.5 8521.5,-166.5 8521.5,-154.5 8521.5,-154.5 8521.5,-148.5 8527.5,-142.5 8533.5,-142.5 8533.5,-142.5 8567.5,-142.5 8567.5,-142.5 8573.5,-142.5 8579.5,-148.5 8579.5,-154.5 8579.5,-154.5 8579.5,-166.5 8579.5,-166.5 8579.5,-172.5 8573.5,-178.5 8567.5,-178.5"/>
<text text-anchor="middle" x="8550.5" y="-156.8" font-family="Times,serif" font-size="14.00">comp 0</text>
</g>
<!-- 8&#45;&gt;34 -->
<g id="edge34" class="edge"><title>8&#45;&gt;34</title>
<path fill="none" stroke="black" d="M8878.22,-226.152C8783.45,-207.457 8653.77,-181.873 8589.66,-169.226"/>
<polygon fill="black" stroke="black" points="8590.07,-165.739 8579.58,-167.237 8588.72,-172.607 8590.07,-165.739"/>
</g>
<!-- 35 -->
<g id="node36" class="node"><title>35</title>
<path fill="#bfcfe6" stroke="black" d="M8930.5,-178.5C8930.5,-178.5 8896.5,-178.5 8896.5,-178.5 8890.5,-178.5 8884.5,-172.5 8884.5,-166.5 8884.5,-166.5 8884.5,-154.5 8884.5,-154.5 8884.5,-148.5 8890.5,-142.5 8896.5,-142.5 8896.5,-142.5 8930.5,-142.5 8930.5,-142.5 8936.5,-142.5 8942.5,-148.5 8942.5,-154.5 8942.5,-154.5 8942.5,-166.5 8942.5,-166.5 8942.5,-172.5 8936.5,-178.5 8930.5,-178.5"/>
<text text-anchor="middle" x="8913.5" y="-156.8" font-family="Times,serif" font-size="14.00">comp 1</text>
</g>
<!-- 8&#45;&gt;35 -->
<g id="edge35" class="edge"><title>8&#45;&gt;35</title>
<path fill="none" stroke="black" d="M8968.52,-222.868C8958.15,-211.302 8945.95,-197.696 8935.68,-186.239"/>
<polygon fill="black" stroke="black" points="8938.2,-183.811 8928.92,-178.701 8932.99,-188.484 8938.2,-183.811"/>
</g>
<!-- 36 -->
<g id="node37" class="node"><title>36</title>
<path fill="#abb9ce" stroke="black" d="M9086.5,-178.5C9086.5,-178.5 9052.5,-178.5 9052.5,-178.5 9046.5,-178.5 9040.5,-172.5 9040.5,-166.5 9040.5,-166.5 9040.5,-154.5 9040.5,-154.5 9040.5,-148.5 9046.5,-142.5 9052.5,-142.5 9052.5,-142.5 9086.5,-142.5 9086.5,-142.5 9092.5,-142.5 9098.5,-148.5 9098.5,-154.5 9098.5,-154.5 9098.5,-166.5 9098.5,-166.5 9098.5,-172.5 9092.5,-178.5 9086.5,-178.5"/>
<text text-anchor="middle" x="9069.5" y="-156.8" font-family="Times,serif" font-size="14.00">comp 2</text>
</g>
<!-- 8&#45;&gt;36 -->
<g id="edge36" class="edge"><title>8&#45;&gt;36</title>
<path fill="none" stroke="black" d="M9014.48,-222.868C9024.85,-211.302 9037.05,-197.696 9047.32,-186.239"/>
<polygon fill="black" stroke="black" points="9050.01,-188.484 9054.08,-178.701 9044.8,-183.811 9050.01,-188.484"/>
</g>
<!-- 37 -->
<g id="node38" class="node"><title>37</title>
<path fill="#97a3b6" stroke="black" d="M9407.5,-179.5C9407.5,-179.5 9287.5,-179.5 9287.5,-179.5 9281.5,-179.5 9275.5,-173.5 9275.5,-167.5 9275.5,-167.5 9275.5,-153.5 9275.5,-153.5 9275.5,-147.5 9281.5,-141.5 9287.5,-141.5 9287.5,-141.5 9407.5,-141.5 9407.5,-141.5 9413.5,-141.5 9419.5,-147.5 9419.5,-153.5 9419.5,-153.5 9419.5,-167.5 9419.5,-167.5 9419.5,-173.5 9413.5,-179.5 9407.5,-179.5"/>
<text text-anchor="middle" x="9347.5" y="-164.3" font-family="Times,serif" font-size="14.00">comp 3</text>
<text text-anchor="middle" x="9347.5" y="-149.3" font-family="Times,serif" font-size="14.00">log gamma2: 1.124299</text>
</g>
<!-- 8&#45;&gt;37 -->
<g id="edge37" class="edge"><title>8&#45;&gt;37</title>
<path fill="none" stroke="black" d="M9095.91,-222.985C9149.95,-209.776 9214.99,-193.883 9265.4,-181.564"/>
<polygon fill="black" stroke="black" points="9266.39,-184.924 9275.28,-179.15 9264.73,-178.124 9266.39,-184.924"/>
</g>
<!-- 38 -->
<g id="node39" class="node"><title>38</title>
<path fill="#838d9e" stroke="black" d="M9836.5,-179.5C9836.5,-179.5 9768.5,-179.5 9768.5,-179.5 9762.5,-179.5 9756.5,-173.5 9756.5,-167.5 9756.5,-167.5 9756.5,-153.5 9756.5,-153.5 9756.5,-147.5 9762.5,-141.5 9768.5,-141.5 9768.5,-141.5 9836.5,-141.5 9836.5,-141.5 9842.5,-141.5 9848.5,-147.5 9848.5,-153.5 9848.5,-153.5 9848.5,-167.5 9848.5,-167.5 9848.5,-173.5 9842.5,-179.5 9836.5,-179.5"/>
<text text-anchor="middle" x="9802.5" y="-164.3" font-family="Times,serif" font-size="14.00">comp 4</text>
<text text-anchor="middle" x="9802.5" y="-149.3" font-family="Times,serif" font-size="14.00">n kernels: &#45;12</text>
</g>
<!-- 8&#45;&gt;38 -->
<g id="edge38" class="edge"><title>8&#45;&gt;38</title>
<path fill="none" stroke="black" d="M9104.69,-236.357C9280.69,-217.477 9613.5,-181.775 9746,-167.561"/>
<polygon fill="black" stroke="black" points="9746.75,-171.001 9756.32,-166.454 9746,-164.041 9746.75,-171.001"/>
</g>
<!-- 39 -->
<g id="node40" class="node"><title>39</title>
<path fill="#d3e4ff" stroke="black" d="M10505.5,-178.5C10505.5,-178.5 10471.5,-178.5 10471.5,-178.5 10465.5,-178.5 10459.5,-172.5 10459.5,-166.5 10459.5,-166.5 10459.5,-154.5 10459.5,-154.5 10459.5,-148.5 10465.5,-142.5 10471.5,-142.5 10471.5,-142.5 10505.5,-142.5 10505.5,-142.5 10511.5,-142.5 10517.5,-148.5 10517.5,-154.5 10517.5,-154.5 10517.5,-166.5 10517.5,-166.5 10517.5,-172.5 10511.5,-178.5 10505.5,-178.5"/>
<text text-anchor="middle" x="10488.5" y="-156.8" font-family="Times,serif" font-size="14.00">comp 0</text>
</g>
<!-- 9&#45;&gt;39 -->
<g id="edge39" class="edge"><title>9&#45;&gt;39</title>
<path fill="none" stroke="black" d="M10875.8,-234.425C10776.5,-215.731 10604.7,-183.388 10527.8,-168.897"/>
<polygon fill="black" stroke="black" points="10528,-165.385 10517.6,-166.974 10526.7,-172.264 10528,-165.385"/>
</g>
<!-- 40 -->
<g id="node41" class="node"><title>40</title>
<path fill="#bfcfe6" stroke="black" d="M10868.5,-178.5C10868.5,-178.5 10834.5,-178.5 10834.5,-178.5 10828.5,-178.5 10822.5,-172.5 10822.5,-166.5 10822.5,-166.5 10822.5,-154.5 10822.5,-154.5 10822.5,-148.5 10828.5,-142.5 10834.5,-142.5 10834.5,-142.5 10868.5,-142.5 10868.5,-142.5 10874.5,-142.5 10880.5,-148.5 10880.5,-154.5 10880.5,-154.5 10880.5,-166.5 10880.5,-166.5 10880.5,-172.5 10874.5,-178.5 10868.5,-178.5"/>
<text text-anchor="middle" x="10851.5" y="-156.8" font-family="Times,serif" font-size="14.00">comp 1</text>
</g>
<!-- 9&#45;&gt;40 -->
<g id="edge40" class="edge"><title>9&#45;&gt;40</title>
<path fill="none" stroke="black" d="M10930,-230.474C10915.1,-217.385 10894.8,-199.547 10878.6,-185.29"/>
<polygon fill="black" stroke="black" points="10880.8,-182.587 10871,-178.615 10876.2,-187.846 10880.8,-182.587"/>
</g>
<!-- 41 -->
<g id="node42" class="node"><title>41</title>
<path fill="#abb9ce" stroke="black" d="M11110.5,-179.5C11110.5,-179.5 10990.5,-179.5 10990.5,-179.5 10984.5,-179.5 10978.5,-173.5 10978.5,-167.5 10978.5,-167.5 10978.5,-153.5 10978.5,-153.5 10978.5,-147.5 10984.5,-141.5 10990.5,-141.5 10990.5,-141.5 11110.5,-141.5 11110.5,-141.5 11116.5,-141.5 11122.5,-147.5 11122.5,-153.5 11122.5,-153.5 11122.5,-167.5 11122.5,-167.5 11122.5,-173.5 11116.5,-179.5 11110.5,-179.5"/>
<text text-anchor="middle" x="11050.5" y="-164.3" font-family="Times,serif" font-size="14.00">comp 2</text>
<text text-anchor="middle" x="11050.5" y="-149.3" font-family="Times,serif" font-size="14.00">log gamma1: 1.134171</text>
</g>
<!-- 9&#45;&gt;41 -->
<g id="edge41" class="edge"><title>9&#45;&gt;41</title>
<path fill="none" stroke="black" d="M10971.2,-230.474C10986,-217.642 11006,-200.244 11022.2,-186.133"/>
<polygon fill="black" stroke="black" points="11024.6,-188.708 11029.8,-179.503 11020,-183.426 11024.6,-188.708"/>
</g>
<!-- 42 -->
<g id="node43" class="node"><title>42</title>
<path fill="#97a3b6" stroke="black" d="M11347.5,-178.5C11347.5,-178.5 11313.5,-178.5 11313.5,-178.5 11307.5,-178.5 11301.5,-172.5 11301.5,-166.5 11301.5,-166.5 11301.5,-154.5 11301.5,-154.5 11301.5,-148.5 11307.5,-142.5 11313.5,-142.5 11313.5,-142.5 11347.5,-142.5 11347.5,-142.5 11353.5,-142.5 11359.5,-148.5 11359.5,-154.5 11359.5,-154.5 11359.5,-166.5 11359.5,-166.5 11359.5,-172.5 11353.5,-178.5 11347.5,-178.5"/>
<text text-anchor="middle" x="11330.5" y="-156.8" font-family="Times,serif" font-size="14.00">comp 3</text>
</g>
<!-- 9&#45;&gt;42 -->
<g id="edge42" class="edge"><title>9&#45;&gt;42</title>
<path fill="none" stroke="black" d="M11025.1,-231.415C11105,-213.134 11228.6,-184.834 11291.2,-170.491"/>
<polygon fill="black" stroke="black" points="11292.1,-173.873 11301.1,-168.23 11290.6,-167.05 11292.1,-173.873"/>
</g>
<!-- 43 -->
<g id="node44" class="node"><title>43</title>
<path fill="#838d9e" stroke="black" d="M11767.5,-179.5C11767.5,-179.5 11711.5,-179.5 11711.5,-179.5 11705.5,-179.5 11699.5,-173.5 11699.5,-167.5 11699.5,-167.5 11699.5,-153.5 11699.5,-153.5 11699.5,-147.5 11705.5,-141.5 11711.5,-141.5 11711.5,-141.5 11767.5,-141.5 11767.5,-141.5 11773.5,-141.5 11779.5,-147.5 11779.5,-153.5 11779.5,-153.5 11779.5,-167.5 11779.5,-167.5 11779.5,-173.5 11773.5,-179.5 11767.5,-179.5"/>
<text text-anchor="middle" x="11739.5" y="-164.3" font-family="Times,serif" font-size="14.00">comp 4</text>
<text text-anchor="middle" x="11739.5" y="-149.3" font-family="Times,serif" font-size="14.00">n kernels: 8</text>
</g>
<!-- 9&#45;&gt;43 -->
<g id="edge43" class="edge"><title>9&#45;&gt;43</title>
<path fill="none" stroke="black" d="M11025.1,-240.276C11184.4,-222.711 11554.3,-181.92 11689.2,-167.051"/>
<polygon fill="black" stroke="black" points="11689.7,-170.517 11699.2,-165.942 11688.9,-163.56 11689.7,-170.517"/>
</g>
<!-- 44 -->
<g id="node45" class="node"><title>44</title>
<path fill="#f6d3ff" stroke="black" d="M293,-98C293,-98 12,-98 12,-98 6,-98 0,-92 0,-86 0,-86 0,-12 0,-12 0,-6 6,-0 12,-0 12,-0 293,-0 293,-0 299,-0 305,-6 305,-12 305,-12 305,-86 305,-86 305,-92 299,-98 293,-98"/>
<text text-anchor="middle" x="152.5" y="-82.8" font-family="Times,serif" font-size="14.00">forward</text>
<text text-anchor="middle" x="152.5" y="-67.8" font-family="Times,serif" font-size="14.00">input</text>
<text text-anchor="middle" x="152.5" y="-52.8" font-family="Times,serif" font-size="14.00">dilation rate: 1 &#160;&#160;k width: 3</text>
<text text-anchor="middle" x="152.5" y="-37.8" font-family="Times,serif" font-size="14.00">log gamma1: &#45;11.000000 &#160;&#160;log gamma2: &#45;11.000000</text>
<text text-anchor="middle" x="152.5" y="-22.8" font-family="Times,serif" font-size="14.00">log lambda1: &#45;11.000000 &#160;&#160;log lambda2: &#45;11.000000</text>
<text text-anchor="middle" x="152.5" y="-7.8" font-family="Times,serif" font-size="14.00">n kernels: 64</text>
</g>
<!-- 10&#45;&gt;44 -->
<g id="edge44" class="edge"><title>10&#45;&gt;44</title>
<path fill="none" stroke="black" d="M283.281,-142.391C268.53,-131.97 248.787,-118.022 229.12,-104.128"/>
<polygon fill="black" stroke="black" points="230.898,-101.099 220.711,-98.1876 226.859,-106.816 230.898,-101.099"/>
</g>
<!-- 45 -->
<g id="node46" class="node"><title>45</title>
<path fill="#f6d3ff" stroke="black" d="M616,-98C616,-98 335,-98 335,-98 329,-98 323,-92 323,-86 323,-86 323,-12 323,-12 323,-6 329,-0 335,-0 335,-0 616,-0 616,-0 622,-0 628,-6 628,-12 628,-12 628,-86 628,-86 628,-92 622,-98 616,-98"/>
<text text-anchor="middle" x="475.5" y="-82.8" font-family="Times,serif" font-size="14.00">forward</text>
<text text-anchor="middle" x="475.5" y="-67.8" font-family="Times,serif" font-size="14.00">EB0/C0</text>
<text text-anchor="middle" x="475.5" y="-52.8" font-family="Times,serif" font-size="14.00">dilation rate: 1 &#160;&#160;k width: 3</text>
<text text-anchor="middle" x="475.5" y="-37.8" font-family="Times,serif" font-size="14.00">log gamma1: &#45;11.000000 &#160;&#160;log gamma2: &#45;11.000000</text>
<text text-anchor="middle" x="475.5" y="-22.8" font-family="Times,serif" font-size="14.00">log lambda1: &#45;11.000000 &#160;&#160;log lambda2: &#45;11.000000</text>
<text text-anchor="middle" x="475.5" y="-7.8" font-family="Times,serif" font-size="14.00">n kernels: 64</text>
</g>
<!-- 11&#45;&gt;45 -->
<g id="edge45" class="edge"><title>11&#45;&gt;45</title>
<path fill="none" stroke="black" d="M580.125,-142.391C568.535,-132.156 553.093,-118.519 537.639,-104.873"/>
<polygon fill="black" stroke="black" points="539.881,-102.183 530.069,-98.1876 535.248,-107.43 539.881,-102.183"/>
</g>
<!-- 46 -->
<g id="node47" class="node"><title>46</title>
<path fill="#f6d3ff" stroke="black" d="M939,-98C939,-98 658,-98 658,-98 652,-98 646,-92 646,-86 646,-86 646,-12 646,-12 646,-6 652,-0 658,-0 658,-0 939,-0 939,-0 945,-0 951,-6 951,-12 951,-12 951,-86 951,-86 951,-92 945,-98 939,-98"/>
<text text-anchor="middle" x="798.5" y="-82.8" font-family="Times,serif" font-size="14.00">forward</text>
<text text-anchor="middle" x="798.5" y="-67.8" font-family="Times,serif" font-size="14.00">EB0/C1</text>
<text text-anchor="middle" x="798.5" y="-52.8" font-family="Times,serif" font-size="14.00">dilation rate: 1 &#160;&#160;k width: 3</text>
<text text-anchor="middle" x="798.5" y="-37.8" font-family="Times,serif" font-size="14.00">log gamma1: &#45;11.000000 &#160;&#160;log gamma2: &#45;11.000000</text>
<text text-anchor="middle" x="798.5" y="-22.8" font-family="Times,serif" font-size="14.00">log lambda1: &#45;11.000000 &#160;&#160;log lambda2: &#45;11.000000</text>
<text text-anchor="middle" x="798.5" y="-7.8" font-family="Times,serif" font-size="14.00">n kernels: 64</text>
</g>
<!-- 12&#45;&gt;46 -->
<g id="edge46" class="edge"><title>12&#45;&gt;46</title>
<path fill="none" stroke="black" d="M850.812,-142.391C845.333,-132.714 838.133,-119.997 830.834,-107.105"/>
<polygon fill="black" stroke="black" points="833.757,-105.165 825.784,-98.1876 827.666,-108.614 833.757,-105.165"/>
</g>
<!-- 47 -->
<g id="node48" class="node"><title>47</title>
<path fill="#f6d3ff" stroke="black" d="M1262,-98C1262,-98 981,-98 981,-98 975,-98 969,-92 969,-86 969,-86 969,-12 969,-12 969,-6 975,-0 981,-0 981,-0 1262,-0 1262,-0 1268,-0 1274,-6 1274,-12 1274,-12 1274,-86 1274,-86 1274,-92 1268,-98 1262,-98"/>
<text text-anchor="middle" x="1121.5" y="-82.8" font-family="Times,serif" font-size="14.00">forward</text>
<text text-anchor="middle" x="1121.5" y="-67.8" font-family="Times,serif" font-size="14.00">EB0/C2</text>
<text text-anchor="middle" x="1121.5" y="-52.8" font-family="Times,serif" font-size="14.00">dilation rate: 1 &#160;&#160;k width: 3</text>
<text text-anchor="middle" x="1121.5" y="-37.8" font-family="Times,serif" font-size="14.00">log gamma1: &#45;11.000000 &#160;&#160;log gamma2: &#45;11.000000</text>
<text text-anchor="middle" x="1121.5" y="-22.8" font-family="Times,serif" font-size="14.00">log lambda1: &#45;11.000000 &#160;&#160;log lambda2: &#45;11.000000</text>
<text text-anchor="middle" x="1121.5" y="-7.8" font-family="Times,serif" font-size="14.00">n kernels: 64</text>
</g>
<!-- 13&#45;&gt;47 -->
<g id="edge47" class="edge"><title>13&#45;&gt;47</title>
<path fill="none" stroke="black" d="M1069.19,-142.391C1074.67,-132.714 1081.87,-119.997 1089.17,-107.105"/>
<polygon fill="black" stroke="black" points="1092.33,-108.614 1094.22,-98.1876 1086.24,-105.165 1092.33,-108.614"/>
</g>
<!-- 48 -->
<g id="node49" class="node"><title>48</title>
<path fill="#f6d3ff" stroke="black" d="M1585,-98C1585,-98 1304,-98 1304,-98 1298,-98 1292,-92 1292,-86 1292,-86 1292,-12 1292,-12 1292,-6 1298,-0 1304,-0 1304,-0 1585,-0 1585,-0 1591,-0 1597,-6 1597,-12 1597,-12 1597,-86 1597,-86 1597,-92 1591,-98 1585,-98"/>
<text text-anchor="middle" x="1444.5" y="-82.8" font-family="Times,serif" font-size="14.00">forward</text>
<text text-anchor="middle" x="1444.5" y="-67.8" font-family="Times,serif" font-size="14.00">EB0/C3</text>
<text text-anchor="middle" x="1444.5" y="-52.8" font-family="Times,serif" font-size="14.00">dilation rate: 1 &#160;&#160;k width: 3</text>
<text text-anchor="middle" x="1444.5" y="-37.8" font-family="Times,serif" font-size="14.00">log gamma1: &#45;11.000000 &#160;&#160;log gamma2: &#45;11.000000</text>
<text text-anchor="middle" x="1444.5" y="-22.8" font-family="Times,serif" font-size="14.00">log lambda1: &#45;11.000000 &#160;&#160;log lambda2: &#45;11.000000</text>
<text text-anchor="middle" x="1444.5" y="-7.8" font-family="Times,serif" font-size="14.00">n kernels: 64</text>
</g>
<!-- 14&#45;&gt;48 -->
<g id="edge48" class="edge"><title>14&#45;&gt;48</title>
<path fill="none" stroke="black" d="M1287.56,-142.391C1305.58,-131.784 1329.8,-117.523 1353.82,-103.384"/>
<polygon fill="black" stroke="black" points="1355.81,-106.277 1362.65,-98.1876 1352.25,-100.245 1355.81,-106.277"/>
</g>
<!-- 49 -->
<g id="node50" class="node"><title>49</title>
<path fill="#f6d3ff" stroke="black" d="M1908,-98C1908,-98 1627,-98 1627,-98 1621,-98 1615,-92 1615,-86 1615,-86 1615,-12 1615,-12 1615,-6 1621,-0 1627,-0 1627,-0 1908,-0 1908,-0 1914,-0 1920,-6 1920,-12 1920,-12 1920,-86 1920,-86 1920,-92 1914,-98 1908,-98"/>
<text text-anchor="middle" x="1767.5" y="-82.8" font-family="Times,serif" font-size="14.00">forward</text>
<text text-anchor="middle" x="1767.5" y="-67.8" font-family="Times,serif" font-size="14.00">EB0/C4</text>
<text text-anchor="middle" x="1767.5" y="-52.8" font-family="Times,serif" font-size="14.00">dilation rate: 1 &#160;&#160;k width: 3</text>
<text text-anchor="middle" x="1767.5" y="-37.8" font-family="Times,serif" font-size="14.00">log gamma1: &#45;11.000000 &#160;&#160;log gamma2: &#45;11.000000</text>
<text text-anchor="middle" x="1767.5" y="-22.8" font-family="Times,serif" font-size="14.00">log lambda1: &#45;11.000000 &#160;&#160;log lambda2: &#45;11.000000</text>
<text text-anchor="middle" x="1767.5" y="-7.8" font-family="Times,serif" font-size="14.00">n kernels: 64</text>
</g>
<!-- 15&#45;&gt;49 -->
<g id="edge49" class="edge"><title>15&#45;&gt;49</title>
<path fill="none" stroke="black" d="M1948.3,-144.274C1927.36,-133.357 1897.82,-117.95 1868.66,-102.749"/>
<polygon fill="black" stroke="black" points="1870.12,-99.5633 1859.64,-98.0432 1866.89,-105.77 1870.12,-99.5633"/>
</g>
<!-- 50 -->
<g id="node51" class="node"><title>50</title>
<path fill="#f6d3ff" stroke="black" d="M2231,-98C2231,-98 1950,-98 1950,-98 1944,-98 1938,-92 1938,-86 1938,-86 1938,-12 1938,-12 1938,-6 1944,-0 1950,-0 1950,-0 2231,-0 2231,-0 2237,-0 2243,-6 2243,-12 2243,-12 2243,-86 2243,-86 2243,-92 2237,-98 2231,-98"/>
<text text-anchor="middle" x="2090.5" y="-82.8" font-family="Times,serif" font-size="14.00">forward</text>
<text text-anchor="middle" x="2090.5" y="-67.8" font-family="Times,serif" font-size="14.00">EB1/C0</text>
<text text-anchor="middle" x="2090.5" y="-52.8" font-family="Times,serif" font-size="14.00">dilation rate: 1 &#160;&#160;k width: 3</text>
<text text-anchor="middle" x="2090.5" y="-37.8" font-family="Times,serif" font-size="14.00">log gamma1: &#45;11.000000 &#160;&#160;log gamma2: &#45;11.000000</text>
<text text-anchor="middle" x="2090.5" y="-22.8" font-family="Times,serif" font-size="14.00">log lambda1: &#45;11.000000 &#160;&#160;log lambda2: &#45;11.000000</text>
<text text-anchor="middle" x="2090.5" y="-7.8" font-family="Times,serif" font-size="14.00">n kernels: 64</text>
</g>
<!-- 16&#45;&gt;50 -->
<g id="edge50" class="edge"><title>16&#45;&gt;50</title>
<path fill="none" stroke="black" d="M2237.31,-142.391C2220.53,-131.83 2198,-117.648 2175.63,-103.57"/>
<polygon fill="black" stroke="black" points="2177.4,-100.552 2167.07,-98.1876 2173.67,-106.476 2177.4,-100.552"/>
</g>
<!-- 51 -->
<g id="node52" class="node"><title>51</title>
<path fill="#f6d3ff" stroke="black" d="M2554,-98C2554,-98 2273,-98 2273,-98 2267,-98 2261,-92 2261,-86 2261,-86 2261,-12 2261,-12 2261,-6 2267,-0 2273,-0 2273,-0 2554,-0 2554,-0 2560,-0 2566,-6 2566,-12 2566,-12 2566,-86 2566,-86 2566,-92 2560,-98 2554,-98"/>
<text text-anchor="middle" x="2413.5" y="-82.8" font-family="Times,serif" font-size="14.00">forward</text>
<text text-anchor="middle" x="2413.5" y="-67.8" font-family="Times,serif" font-size="14.00">EB1/C1</text>
<text text-anchor="middle" x="2413.5" y="-52.8" font-family="Times,serif" font-size="14.00">dilation rate: 1 &#160;&#160;k width: 3</text>
<text text-anchor="middle" x="2413.5" y="-37.8" font-family="Times,serif" font-size="14.00">log gamma1: &#45;11.000000 &#160;&#160;log gamma2: &#45;11.000000</text>
<text text-anchor="middle" x="2413.5" y="-22.8" font-family="Times,serif" font-size="14.00">log lambda1: &#45;11.000000 &#160;&#160;log lambda2: &#45;11.000000</text>
<text text-anchor="middle" x="2413.5" y="-7.8" font-family="Times,serif" font-size="14.00">n kernels: 64</text>
</g>
<!-- 17&#45;&gt;51 -->
<g id="edge51" class="edge"><title>17&#45;&gt;51</title>
<path fill="none" stroke="black" d="M2456.53,-142.391C2452.07,-132.807 2446.22,-120.241 2440.27,-107.477"/>
<polygon fill="black" stroke="black" points="2443.34,-105.775 2435.94,-98.1876 2436.99,-108.73 2443.34,-105.775"/>
</g>
<!-- 52 -->
<g id="node53" class="node"><title>52</title>
<path fill="#f6d3ff" stroke="black" d="M2877,-98C2877,-98 2596,-98 2596,-98 2590,-98 2584,-92 2584,-86 2584,-86 2584,-12 2584,-12 2584,-6 2590,-0 2596,-0 2596,-0 2877,-0 2877,-0 2883,-0 2889,-6 2889,-12 2889,-12 2889,-86 2889,-86 2889,-92 2883,-98 2877,-98"/>
<text text-anchor="middle" x="2736.5" y="-82.8" font-family="Times,serif" font-size="14.00">forward</text>
<text text-anchor="middle" x="2736.5" y="-67.8" font-family="Times,serif" font-size="14.00">EB1/C2</text>
<text text-anchor="middle" x="2736.5" y="-52.8" font-family="Times,serif" font-size="14.00">dilation rate: 1 &#160;&#160;k width: 3</text>
<text text-anchor="middle" x="2736.5" y="-37.8" font-family="Times,serif" font-size="14.00">log gamma1: &#45;11.000000 &#160;&#160;log gamma2: &#45;11.000000</text>
<text text-anchor="middle" x="2736.5" y="-22.8" font-family="Times,serif" font-size="14.00">log lambda1: &#45;11.000000 &#160;&#160;log lambda2: &#45;11.000000</text>
<text text-anchor="middle" x="2736.5" y="-7.8" font-family="Times,serif" font-size="14.00">n kernels: 64</text>
</g>
<!-- 18&#45;&gt;52 -->
<g id="edge52" class="edge"><title>18&#45;&gt;52</title>
<path fill="none" stroke="black" d="M2694.76,-141.418C2699.04,-132.028 2704.55,-119.973 2710.14,-107.72"/>
<polygon fill="black" stroke="black" points="2713.45,-108.902 2714.42,-98.352 2707.08,-105.995 2713.45,-108.902"/>
</g>
<!-- 53 -->
<g id="node54" class="node"><title>53</title>
<path fill="#f6d3ff" stroke="black" d="M3200,-98C3200,-98 2919,-98 2919,-98 2913,-98 2907,-92 2907,-86 2907,-86 2907,-12 2907,-12 2907,-6 2913,-0 2919,-0 2919,-0 3200,-0 3200,-0 3206,-0 3212,-6 3212,-12 3212,-12 3212,-86 3212,-86 3212,-92 3206,-98 3200,-98"/>
<text text-anchor="middle" x="3059.5" y="-82.8" font-family="Times,serif" font-size="14.00">forward</text>
<text text-anchor="middle" x="3059.5" y="-67.8" font-family="Times,serif" font-size="14.00">EB1/C3</text>
<text text-anchor="middle" x="3059.5" y="-52.8" font-family="Times,serif" font-size="14.00">dilation rate: 1 &#160;&#160;k width: 3</text>
<text text-anchor="middle" x="3059.5" y="-37.8" font-family="Times,serif" font-size="14.00">log gamma1: &#45;11.000000 &#160;&#160;log gamma2: &#45;11.000000</text>
<text text-anchor="middle" x="3059.5" y="-22.8" font-family="Times,serif" font-size="14.00">log lambda1: &#45;11.000000 &#160;&#160;log lambda2: &#45;11.000000</text>
<text text-anchor="middle" x="3059.5" y="-7.8" font-family="Times,serif" font-size="14.00">n kernels: 64</text>
</g>
<!-- 19&#45;&gt;53 -->
<g id="edge53" class="edge"><title>19&#45;&gt;53</title>
<path fill="none" stroke="black" d="M2932.09,-142.391C2946.46,-131.97 2965.7,-118.022 2984.86,-104.128"/>
<polygon fill="black" stroke="black" points="2987.01,-106.892 2993.05,-98.1876 2982.9,-101.225 2987.01,-106.892"/>
</g>
<!-- 54 -->
<g id="node55" class="node"><title>54</title>
<path fill="#f6d3ff" stroke="black" d="M3523,-98C3523,-98 3242,-98 3242,-98 3236,-98 3230,-92 3230,-86 3230,-86 3230,-12 3230,-12 3230,-6 3236,-0 3242,-0 3242,-0 3523,-0 3523,-0 3529,-0 3535,-6 3535,-12 3535,-12 3535,-86 3535,-86 3535,-92 3529,-98 3523,-98"/>
<text text-anchor="middle" x="3382.5" y="-82.8" font-family="Times,serif" font-size="14.00">forward</text>
<text text-anchor="middle" x="3382.5" y="-67.8" font-family="Times,serif" font-size="14.00">EB1/C4</text>
<text text-anchor="middle" x="3382.5" y="-52.8" font-family="Times,serif" font-size="14.00">dilation rate: 1 &#160;&#160;k width: 3</text>
<text text-anchor="middle" x="3382.5" y="-37.8" font-family="Times,serif" font-size="14.00">log gamma1: &#45;11.000000 &#160;&#160;log gamma2: &#45;11.000000</text>
<text text-anchor="middle" x="3382.5" y="-22.8" font-family="Times,serif" font-size="14.00">log lambda1: &#45;11.000000 &#160;&#160;log lambda2: &#45;11.000000</text>
<text text-anchor="middle" x="3382.5" y="-7.8" font-family="Times,serif" font-size="14.00">n kernels: 64</text>
</g>
<!-- 20&#45;&gt;54 -->
<g id="edge54" class="edge"><title>20&#45;&gt;54</title>
<path fill="none" stroke="black" d="M3487.12,-142.391C3475.53,-132.156 3460.09,-118.519 3444.64,-104.873"/>
<polygon fill="black" stroke="black" points="3446.88,-102.183 3437.07,-98.1876 3442.25,-107.43 3446.88,-102.183"/>
</g>
<!-- 55 -->
<g id="node56" class="node"><title>55</title>
<path fill="#f6d3ff" stroke="black" d="M3846,-98C3846,-98 3565,-98 3565,-98 3559,-98 3553,-92 3553,-86 3553,-86 3553,-12 3553,-12 3553,-6 3559,-0 3565,-0 3565,-0 3846,-0 3846,-0 3852,-0 3858,-6 3858,-12 3858,-12 3858,-86 3858,-86 3858,-92 3852,-98 3846,-98"/>
<text text-anchor="middle" x="3705.5" y="-82.8" font-family="Times,serif" font-size="14.00">forward</text>
<text text-anchor="middle" x="3705.5" y="-67.8" font-family="Times,serif" font-size="14.00">EB2/C0</text>
<text text-anchor="middle" x="3705.5" y="-52.8" font-family="Times,serif" font-size="14.00">dilation rate: 1 &#160;&#160;k width: 3</text>
<text text-anchor="middle" x="3705.5" y="-37.8" font-family="Times,serif" font-size="14.00">log gamma1: &#45;11.000000 &#160;&#160;log gamma2: &#45;11.000000</text>
<text text-anchor="middle" x="3705.5" y="-22.8" font-family="Times,serif" font-size="14.00">log lambda1: &#45;11.000000 &#160;&#160;log lambda2: &#45;11.000000</text>
<text text-anchor="middle" x="3705.5" y="-7.8" font-family="Times,serif" font-size="14.00">n kernels: 64</text>
</g>
<!-- 21&#45;&gt;55 -->
<g id="edge55" class="edge"><title>21&#45;&gt;55</title>
<path fill="none" stroke="black" d="M3705.5,-142.391C3705.5,-132.993 3705.5,-120.728 3705.5,-108.22"/>
<polygon fill="black" stroke="black" points="3709,-108.188 3705.5,-98.1876 3702,-108.188 3709,-108.188"/>
</g>
<!-- 56 -->
<g id="node57" class="node"><title>56</title>
<path fill="#f6d3ff" stroke="black" d="M4169,-98C4169,-98 3888,-98 3888,-98 3882,-98 3876,-92 3876,-86 3876,-86 3876,-12 3876,-12 3876,-6 3882,-0 3888,-0 3888,-0 4169,-0 4169,-0 4175,-0 4181,-6 4181,-12 4181,-12 4181,-86 4181,-86 4181,-92 4175,-98 4169,-98"/>
<text text-anchor="middle" x="4028.5" y="-82.8" font-family="Times,serif" font-size="14.00">forward</text>
<text text-anchor="middle" x="4028.5" y="-67.8" font-family="Times,serif" font-size="14.00">EB2/C1</text>
<text text-anchor="middle" x="4028.5" y="-52.8" font-family="Times,serif" font-size="14.00">dilation rate: 1 &#160;&#160;k width: 3</text>
<text text-anchor="middle" x="4028.5" y="-37.8" font-family="Times,serif" font-size="14.00">log gamma1: &#45;11.000000 &#160;&#160;log gamma2: &#45;11.000000</text>
<text text-anchor="middle" x="4028.5" y="-22.8" font-family="Times,serif" font-size="14.00">log lambda1: &#45;11.000000 &#160;&#160;log lambda2: &#45;11.000000</text>
<text text-anchor="middle" x="4028.5" y="-7.8" font-family="Times,serif" font-size="14.00">n kernels: 64</text>
</g>
<!-- 22&#45;&gt;56 -->
<g id="edge56" class="edge"><title>22&#45;&gt;56</title>
<path fill="none" stroke="black" d="M3923.88,-142.391C3935.47,-132.156 3950.91,-118.519 3966.36,-104.873"/>
<polygon fill="black" stroke="black" points="3968.75,-107.43 3973.93,-98.1876 3964.12,-102.183 3968.75,-107.43"/>
</g>
<!-- 57 -->
<g id="node58" class="node"><title>57</title>
<path fill="#f6d3ff" stroke="black" d="M4492,-98C4492,-98 4211,-98 4211,-98 4205,-98 4199,-92 4199,-86 4199,-86 4199,-12 4199,-12 4199,-6 4205,-0 4211,-0 4211,-0 4492,-0 4492,-0 4498,-0 4504,-6 4504,-12 4504,-12 4504,-86 4504,-86 4504,-92 4498,-98 4492,-98"/>
<text text-anchor="middle" x="4351.5" y="-82.8" font-family="Times,serif" font-size="14.00">forward</text>
<text text-anchor="middle" x="4351.5" y="-67.8" font-family="Times,serif" font-size="14.00">EB2/C2</text>
<text text-anchor="middle" x="4351.5" y="-52.8" font-family="Times,serif" font-size="14.00">dilation rate: 1 &#160;&#160;k width: 3</text>
<text text-anchor="middle" x="4351.5" y="-37.8" font-family="Times,serif" font-size="14.00">log gamma1: &#45;11.000000 &#160;&#160;log gamma2: &#45;11.000000</text>
<text text-anchor="middle" x="4351.5" y="-22.8" font-family="Times,serif" font-size="14.00">log lambda1: &#45;11.000000 &#160;&#160;log lambda2: &#45;11.000000</text>
<text text-anchor="middle" x="4351.5" y="-7.8" font-family="Times,serif" font-size="14.00">n kernels: 64</text>
</g>
<!-- 23&#45;&gt;57 -->
<g id="edge57" class="edge"><title>23&#45;&gt;57</title>
<path fill="none" stroke="black" d="M4246.88,-142.391C4258.47,-132.156 4273.91,-118.519 4289.36,-104.873"/>
<polygon fill="black" stroke="black" points="4291.75,-107.43 4296.93,-98.1876 4287.12,-102.183 4291.75,-107.43"/>
</g>
<!-- 58 -->
<g id="node59" class="node"><title>58</title>
<path fill="#f6d3ff" stroke="black" d="M4815,-98C4815,-98 4534,-98 4534,-98 4528,-98 4522,-92 4522,-86 4522,-86 4522,-12 4522,-12 4522,-6 4528,-0 4534,-0 4534,-0 4815,-0 4815,-0 4821,-0 4827,-6 4827,-12 4827,-12 4827,-86 4827,-86 4827,-92 4821,-98 4815,-98"/>
<text text-anchor="middle" x="4674.5" y="-82.8" font-family="Times,serif" font-size="14.00">forward</text>
<text text-anchor="middle" x="4674.5" y="-67.8" font-family="Times,serif" font-size="14.00">EB2/C3</text>
<text text-anchor="middle" x="4674.5" y="-52.8" font-family="Times,serif" font-size="14.00">dilation rate: 1 &#160;&#160;k width: 3</text>
<text text-anchor="middle" x="4674.5" y="-37.8" font-family="Times,serif" font-size="14.00">log gamma1: &#45;11.000000 &#160;&#160;log gamma2: &#45;11.000000</text>
<text text-anchor="middle" x="4674.5" y="-22.8" font-family="Times,serif" font-size="14.00">log lambda1: &#45;11.000000 &#160;&#160;log lambda2: &#45;11.000000</text>
<text text-anchor="middle" x="4674.5" y="-7.8" font-family="Times,serif" font-size="14.00">n kernels: 64</text>
</g>
<!-- 24&#45;&gt;58 -->
<g id="edge58" class="edge"><title>24&#45;&gt;58</title>
<path fill="none" stroke="black" d="M4805.28,-142.391C4790.53,-131.97 4770.79,-118.022 4751.12,-104.128"/>
<polygon fill="black" stroke="black" points="4752.9,-101.099 4742.71,-98.1876 4748.86,-106.816 4752.9,-101.099"/>
</g>
<!-- 59 -->
<g id="node60" class="node"><title>59</title>
<path fill="#f6d3ff" stroke="black" d="M5138,-98C5138,-98 4857,-98 4857,-98 4851,-98 4845,-92 4845,-86 4845,-86 4845,-12 4845,-12 4845,-6 4851,-0 4857,-0 4857,-0 5138,-0 5138,-0 5144,-0 5150,-6 5150,-12 5150,-12 5150,-86 5150,-86 5150,-92 5144,-98 5138,-98"/>
<text text-anchor="middle" x="4997.5" y="-82.8" font-family="Times,serif" font-size="14.00">forward</text>
<text text-anchor="middle" x="4997.5" y="-67.8" font-family="Times,serif" font-size="14.00">DB3/C0</text>
<text text-anchor="middle" x="4997.5" y="-52.8" font-family="Times,serif" font-size="14.00">dilation rate: 1 &#160;&#160;k width: 3</text>
<text text-anchor="middle" x="4997.5" y="-37.8" font-family="Times,serif" font-size="14.00">log gamma1: &#45;11.000000 &#160;&#160;log gamma2: &#45;11.000000</text>
<text text-anchor="middle" x="4997.5" y="-22.8" font-family="Times,serif" font-size="14.00">log lambda1: &#45;11.000000 &#160;&#160;log lambda2: &#45;11.000000</text>
<text text-anchor="middle" x="4997.5" y="-7.8" font-family="Times,serif" font-size="14.00">n kernels: 64</text>
</g>
<!-- 25&#45;&gt;59 -->
<g id="edge59" class="edge"><title>25&#45;&gt;59</title>
<path fill="none" stroke="black" d="M5102.12,-142.391C5090.53,-132.156 5075.09,-118.519 5059.64,-104.873"/>
<polygon fill="black" stroke="black" points="5061.88,-102.183 5052.07,-98.1876 5057.25,-107.43 5061.88,-102.183"/>
</g>
<!-- 60 -->
<g id="node61" class="node"><title>60</title>
<path fill="#f6d3ff" stroke="black" d="M5461,-98C5461,-98 5180,-98 5180,-98 5174,-98 5168,-92 5168,-86 5168,-86 5168,-12 5168,-12 5168,-6 5174,-0 5180,-0 5180,-0 5461,-0 5461,-0 5467,-0 5473,-6 5473,-12 5473,-12 5473,-86 5473,-86 5473,-92 5467,-98 5461,-98"/>
<text text-anchor="middle" x="5320.5" y="-82.8" font-family="Times,serif" font-size="14.00">forward</text>
<text text-anchor="middle" x="5320.5" y="-67.8" font-family="Times,serif" font-size="14.00">DB3/C1</text>
<text text-anchor="middle" x="5320.5" y="-52.8" font-family="Times,serif" font-size="14.00">dilation rate: 1 &#160;&#160;k width: 3</text>
<text text-anchor="middle" x="5320.5" y="-37.8" font-family="Times,serif" font-size="14.00">log gamma1: &#45;11.000000 &#160;&#160;log gamma2: &#45;11.000000</text>
<text text-anchor="middle" x="5320.5" y="-22.8" font-family="Times,serif" font-size="14.00">log lambda1: &#45;11.000000 &#160;&#160;log lambda2: &#45;11.000000</text>
<text text-anchor="middle" x="5320.5" y="-7.8" font-family="Times,serif" font-size="14.00">n kernels: 64</text>
</g>
<!-- 26&#45;&gt;60 -->
<g id="edge60" class="edge"><title>26&#45;&gt;60</title>
<path fill="none" stroke="black" d="M5372.81,-142.391C5367.33,-132.714 5360.13,-119.997 5352.83,-107.105"/>
<polygon fill="black" stroke="black" points="5355.76,-105.165 5347.78,-98.1876 5349.67,-108.614 5355.76,-105.165"/>
</g>
<!-- 61 -->
<g id="node62" class="node"><title>61</title>
<path fill="#f6d3ff" stroke="black" d="M5784,-98C5784,-98 5503,-98 5503,-98 5497,-98 5491,-92 5491,-86 5491,-86 5491,-12 5491,-12 5491,-6 5497,-0 5503,-0 5503,-0 5784,-0 5784,-0 5790,-0 5796,-6 5796,-12 5796,-12 5796,-86 5796,-86 5796,-92 5790,-98 5784,-98"/>
<text text-anchor="middle" x="5643.5" y="-82.8" font-family="Times,serif" font-size="14.00">forward</text>
<text text-anchor="middle" x="5643.5" y="-67.8" font-family="Times,serif" font-size="14.00">DB3/C2</text>
<text text-anchor="middle" x="5643.5" y="-52.8" font-family="Times,serif" font-size="14.00">dilation rate: 1 &#160;&#160;k width: 3</text>
<text text-anchor="middle" x="5643.5" y="-37.8" font-family="Times,serif" font-size="14.00">log gamma1: &#45;11.000000 &#160;&#160;log gamma2: &#45;11.000000</text>
<text text-anchor="middle" x="5643.5" y="-22.8" font-family="Times,serif" font-size="14.00">log lambda1: &#45;11.000000 &#160;&#160;log lambda2: &#45;11.000000</text>
<text text-anchor="middle" x="5643.5" y="-7.8" font-family="Times,serif" font-size="14.00">n kernels: 64</text>
</g>
<!-- 27&#45;&gt;61 -->
<g id="edge61" class="edge"><title>27&#45;&gt;61</title>
<path fill="none" stroke="black" d="M5591.19,-142.391C5596.67,-132.714 5603.87,-119.997 5611.17,-107.105"/>
<polygon fill="black" stroke="black" points="5614.33,-108.614 5616.22,-98.1876 5608.24,-105.165 5614.33,-108.614"/>
</g>
<!-- 62 -->
<g id="node63" class="node"><title>62</title>
<path fill="#f6d3ff" stroke="black" d="M6107,-98C6107,-98 5826,-98 5826,-98 5820,-98 5814,-92 5814,-86 5814,-86 5814,-12 5814,-12 5814,-6 5820,-0 5826,-0 5826,-0 6107,-0 6107,-0 6113,-0 6119,-6 6119,-12 6119,-12 6119,-86 6119,-86 6119,-92 6113,-98 6107,-98"/>
<text text-anchor="middle" x="5966.5" y="-82.8" font-family="Times,serif" font-size="14.00">forward</text>
<text text-anchor="middle" x="5966.5" y="-67.8" font-family="Times,serif" font-size="14.00">DB3/C3</text>
<text text-anchor="middle" x="5966.5" y="-52.8" font-family="Times,serif" font-size="14.00">dilation rate: 1 &#160;&#160;k width: 3</text>
<text text-anchor="middle" x="5966.5" y="-37.8" font-family="Times,serif" font-size="14.00">log gamma1: &#45;11.000000 &#160;&#160;log gamma2: &#45;11.000000</text>
<text text-anchor="middle" x="5966.5" y="-22.8" font-family="Times,serif" font-size="14.00">log lambda1: &#45;11.000000 &#160;&#160;log lambda2: &#45;11.000000</text>
<text text-anchor="middle" x="5966.5" y="-7.8" font-family="Times,serif" font-size="14.00">n kernels: 64</text>
</g>
<!-- 28&#45;&gt;62 -->
<g id="edge62" class="edge"><title>28&#45;&gt;62</title>
<path fill="none" stroke="black" d="M5809.56,-142.391C5827.58,-131.784 5851.8,-117.523 5875.82,-103.384"/>
<polygon fill="black" stroke="black" points="5877.81,-106.277 5884.65,-98.1876 5874.25,-100.245 5877.81,-106.277"/>
</g>
<!-- 63 -->
<g id="node64" class="node"><title>63</title>
<path fill="#f6d3ff" stroke="black" d="M6430,-98C6430,-98 6149,-98 6149,-98 6143,-98 6137,-92 6137,-86 6137,-86 6137,-12 6137,-12 6137,-6 6143,-0 6149,-0 6149,-0 6430,-0 6430,-0 6436,-0 6442,-6 6442,-12 6442,-12 6442,-86 6442,-86 6442,-92 6436,-98 6430,-98"/>
<text text-anchor="middle" x="6289.5" y="-82.8" font-family="Times,serif" font-size="14.00">forward</text>
<text text-anchor="middle" x="6289.5" y="-67.8" font-family="Times,serif" font-size="14.00">DB3/C4</text>
<text text-anchor="middle" x="6289.5" y="-52.8" font-family="Times,serif" font-size="14.00">dilation rate: 1 &#160;&#160;k width: 3</text>
<text text-anchor="middle" x="6289.5" y="-37.8" font-family="Times,serif" font-size="14.00">log gamma1: &#45;11.000000 &#160;&#160;log gamma2: &#45;11.000000</text>
<text text-anchor="middle" x="6289.5" y="-22.8" font-family="Times,serif" font-size="14.00">log lambda1: &#45;11.000000 &#160;&#160;log lambda2: &#45;11.000000</text>
<text text-anchor="middle" x="6289.5" y="-7.8" font-family="Times,serif" font-size="14.00">n kernels: 64</text>
</g>
<!-- 29&#45;&gt;63 -->
<g id="edge63" class="edge"><title>29&#45;&gt;63</title>
<path fill="none" stroke="black" d="M6583.27,-149.589C6550.52,-138.49 6494.93,-119.643 6440.86,-101.313"/>
<polygon fill="black" stroke="black" points="6441.74,-97.9146 6431.14,-98.0186 6439.49,-104.544 6441.74,-97.9146"/>
</g>
<!-- 64 -->
<g id="node65" class="node"><title>64</title>
<path fill="#debfe6" stroke="black" d="M6753,-98C6753,-98 6472,-98 6472,-98 6466,-98 6460,-92 6460,-86 6460,-86 6460,-12 6460,-12 6460,-6 6466,-0 6472,-0 6472,-0 6753,-0 6753,-0 6759,-0 6765,-6 6765,-12 6765,-12 6765,-86 6765,-86 6765,-92 6759,-98 6753,-98"/>
<text text-anchor="middle" x="6612.5" y="-82.8" font-family="Times,serif" font-size="14.00">merge</text>
<text text-anchor="middle" x="6612.5" y="-67.8" font-family="Times,serif" font-size="14.00">EB2/C3</text>
<text text-anchor="middle" x="6612.5" y="-52.8" font-family="Times,serif" font-size="14.00">dilation rate: 1 &#160;&#160;k width: 3</text>
<text text-anchor="middle" x="6612.5" y="-37.8" font-family="Times,serif" font-size="14.00">log gamma1: &#45;11.000000 &#160;&#160;log gamma2: &#45;11.000000</text>
<text text-anchor="middle" x="6612.5" y="-22.8" font-family="Times,serif" font-size="14.00">log lambda1: &#45;11.000000 &#160;&#160;log lambda2: &#45;11.000000</text>
<text text-anchor="middle" x="6612.5" y="-7.8" font-family="Times,serif" font-size="14.00">n kernels: 64</text>
</g>
<!-- 29&#45;&gt;64 -->
<g id="edge64" class="edge"><title>29&#45;&gt;64</title>
<path fill="none" stroke="black" d="M6612.5,-142.391C6612.5,-132.993 6612.5,-120.728 6612.5,-108.22"/>
<polygon fill="black" stroke="black" points="6616,-108.188 6612.5,-98.1876 6609,-108.188 6616,-108.188"/>
</g>
<!-- 65 -->
<g id="node66" class="node"><title>65</title>
<path fill="#f6d3ff" stroke="black" d="M7076,-98C7076,-98 6795,-98 6795,-98 6789,-98 6783,-92 6783,-86 6783,-86 6783,-12 6783,-12 6783,-6 6789,-0 6795,-0 6795,-0 7076,-0 7076,-0 7082,-0 7088,-6 7088,-12 7088,-12 7088,-86 7088,-86 7088,-92 7082,-98 7076,-98"/>
<text text-anchor="middle" x="6935.5" y="-82.8" font-family="Times,serif" font-size="14.00">forward</text>
<text text-anchor="middle" x="6935.5" y="-67.8" font-family="Times,serif" font-size="14.00">DB2/C0</text>
<text text-anchor="middle" x="6935.5" y="-52.8" font-family="Times,serif" font-size="14.00">dilation rate: 1 &#160;&#160;k width: 3</text>
<text text-anchor="middle" x="6935.5" y="-37.8" font-family="Times,serif" font-size="14.00">log gamma1: &#45;11.000000 &#160;&#160;log gamma2: &#45;11.000000</text>
<text text-anchor="middle" x="6935.5" y="-22.8" font-family="Times,serif" font-size="14.00">log lambda1: &#45;11.000000 &#160;&#160;log lambda2: &#45;11.000000</text>
<text text-anchor="middle" x="6935.5" y="-7.8" font-family="Times,serif" font-size="14.00">n kernels: 64</text>
</g>
<!-- 30&#45;&gt;65 -->
<g id="edge65" class="edge"><title>30&#45;&gt;65</title>
<path fill="none" stroke="black" d="M6992.03,-142.391C6986.05,-132.621 6978.18,-119.752 6970.21,-106.733"/>
<polygon fill="black" stroke="black" points="6973.19,-104.891 6964.98,-98.1876 6967.22,-108.544 6973.19,-104.891"/>
</g>
<!-- 66 -->
<g id="node67" class="node"><title>66</title>
<path fill="#f6d3ff" stroke="black" d="M7399,-98C7399,-98 7118,-98 7118,-98 7112,-98 7106,-92 7106,-86 7106,-86 7106,-12 7106,-12 7106,-6 7112,-0 7118,-0 7118,-0 7399,-0 7399,-0 7405,-0 7411,-6 7411,-12 7411,-12 7411,-86 7411,-86 7411,-92 7405,-98 7399,-98"/>
<text text-anchor="middle" x="7258.5" y="-82.8" font-family="Times,serif" font-size="14.00">forward</text>
<text text-anchor="middle" x="7258.5" y="-67.8" font-family="Times,serif" font-size="14.00">DB2/C1</text>
<text text-anchor="middle" x="7258.5" y="-52.8" font-family="Times,serif" font-size="14.00">dilation rate: 1 &#160;&#160;k width: 3</text>
<text text-anchor="middle" x="7258.5" y="-37.8" font-family="Times,serif" font-size="14.00">log gamma1: &#45;11.000000 &#160;&#160;log gamma2: &#45;11.000000</text>
<text text-anchor="middle" x="7258.5" y="-22.8" font-family="Times,serif" font-size="14.00">log lambda1: &#45;11.000000 &#160;&#160;log lambda2: &#45;11.000000</text>
<text text-anchor="middle" x="7258.5" y="-7.8" font-family="Times,serif" font-size="14.00">n kernels: 64</text>
</g>
<!-- 31&#45;&gt;66 -->
<g id="edge66" class="edge"><title>31&#45;&gt;66</title>
<path fill="none" stroke="black" d="M7258.5,-133.827C7258.5,-126.111 7258.5,-117.31 7258.5,-108.379"/>
<polygon fill="black" stroke="black" points="7262,-108.292 7258.5,-98.2922 7255,-108.292 7262,-108.292"/>
</g>
<!-- 67 -->
<g id="node68" class="node"><title>67</title>
<path fill="#f6d3ff" stroke="black" d="M7722,-98C7722,-98 7441,-98 7441,-98 7435,-98 7429,-92 7429,-86 7429,-86 7429,-12 7429,-12 7429,-6 7435,-0 7441,-0 7441,-0 7722,-0 7722,-0 7728,-0 7734,-6 7734,-12 7734,-12 7734,-86 7734,-86 7734,-92 7728,-98 7722,-98"/>
<text text-anchor="middle" x="7581.5" y="-82.8" font-family="Times,serif" font-size="14.00">forward</text>
<text text-anchor="middle" x="7581.5" y="-67.8" font-family="Times,serif" font-size="14.00">DB2/C2</text>
<text text-anchor="middle" x="7581.5" y="-52.8" font-family="Times,serif" font-size="14.00">dilation rate: 1 &#160;&#160;k width: 3</text>
<text text-anchor="middle" x="7581.5" y="-37.8" font-family="Times,serif" font-size="14.00">log gamma1: &#45;11.000000 &#160;&#160;log gamma2: &#45;11.000000</text>
<text text-anchor="middle" x="7581.5" y="-22.8" font-family="Times,serif" font-size="14.00">log lambda1: &#45;11.000000 &#160;&#160;log lambda2: &#45;11.000000</text>
<text text-anchor="middle" x="7581.5" y="-7.8" font-family="Times,serif" font-size="14.00">n kernels: 64</text>
</g>
<!-- 32&#45;&gt;67 -->
<g id="edge67" class="edge"><title>32&#45;&gt;67</title>
<path fill="none" stroke="black" d="M7533.91,-141.418C7538.85,-131.936 7545.2,-119.737 7551.64,-107.36"/>
<polygon fill="black" stroke="black" points="7554.82,-108.838 7556.33,-98.352 7548.61,-105.606 7554.82,-108.838"/>
</g>
<!-- 68 -->
<g id="node69" class="node"><title>68</title>
<path fill="#f6d3ff" stroke="black" d="M8045,-98C8045,-98 7764,-98 7764,-98 7758,-98 7752,-92 7752,-86 7752,-86 7752,-12 7752,-12 7752,-6 7758,-0 7764,-0 7764,-0 8045,-0 8045,-0 8051,-0 8057,-6 8057,-12 8057,-12 8057,-86 8057,-86 8057,-92 8051,-98 8045,-98"/>
<text text-anchor="middle" x="7904.5" y="-82.8" font-family="Times,serif" font-size="14.00">forward</text>
<text text-anchor="middle" x="7904.5" y="-67.8" font-family="Times,serif" font-size="14.00">DB2/C3</text>
<text text-anchor="middle" x="7904.5" y="-52.8" font-family="Times,serif" font-size="14.00">dilation rate: 1 &#160;&#160;k width: 3</text>
<text text-anchor="middle" x="7904.5" y="-37.8" font-family="Times,serif" font-size="14.00">log gamma1: &#45;11.000000 &#160;&#160;log gamma2: &#45;11.000000</text>
<text text-anchor="middle" x="7904.5" y="-22.8" font-family="Times,serif" font-size="14.00">log lambda1: &#45;11.000000 &#160;&#160;log lambda2: &#45;11.000000</text>
<text text-anchor="middle" x="7904.5" y="-7.8" font-family="Times,serif" font-size="14.00">n kernels: 64</text>
</g>
<!-- 33&#45;&gt;68 -->
<g id="edge68" class="edge"><title>33&#45;&gt;68</title>
<path fill="none" stroke="black" d="M7808.31,-142.391C7818.87,-132.249 7832.91,-118.767 7846.98,-105.245"/>
<polygon fill="black" stroke="black" points="7849.54,-107.639 7854.33,-98.1876 7844.7,-102.591 7849.54,-107.639"/>
</g>
<!-- 69 -->
<g id="node70" class="node"><title>69</title>
<path fill="#f6d3ff" stroke="black" d="M8368,-98C8368,-98 8087,-98 8087,-98 8081,-98 8075,-92 8075,-86 8075,-86 8075,-12 8075,-12 8075,-6 8081,-0 8087,-0 8087,-0 8368,-0 8368,-0 8374,-0 8380,-6 8380,-12 8380,-12 8380,-86 8380,-86 8380,-92 8374,-98 8368,-98"/>
<text text-anchor="middle" x="8227.5" y="-82.8" font-family="Times,serif" font-size="14.00">forward</text>
<text text-anchor="middle" x="8227.5" y="-67.8" font-family="Times,serif" font-size="14.00">DB2/C4</text>
<text text-anchor="middle" x="8227.5" y="-52.8" font-family="Times,serif" font-size="14.00">dilation rate: 1 &#160;&#160;k width: 3</text>
<text text-anchor="middle" x="8227.5" y="-37.8" font-family="Times,serif" font-size="14.00">log gamma1: &#45;11.000000 &#160;&#160;log gamma2: &#45;11.000000</text>
<text text-anchor="middle" x="8227.5" y="-22.8" font-family="Times,serif" font-size="14.00">log lambda1: &#45;11.000000 &#160;&#160;log lambda2: &#45;11.000000</text>
<text text-anchor="middle" x="8227.5" y="-7.8" font-family="Times,serif" font-size="14.00">n kernels: 64</text>
</g>
<!-- 34&#45;&gt;69 -->
<g id="edge69" class="edge"><title>34&#45;&gt;69</title>
<path fill="none" stroke="black" d="M8521.27,-149.589C8488.52,-138.49 8432.93,-119.643 8378.86,-101.313"/>
<polygon fill="black" stroke="black" points="8379.74,-97.9146 8369.14,-98.0186 8377.49,-104.544 8379.74,-97.9146"/>
</g>
<!-- 70 -->
<g id="node71" class="node"><title>70</title>
<path fill="#debfe6" stroke="black" d="M8691,-98C8691,-98 8410,-98 8410,-98 8404,-98 8398,-92 8398,-86 8398,-86 8398,-12 8398,-12 8398,-6 8404,-0 8410,-0 8410,-0 8691,-0 8691,-0 8697,-0 8703,-6 8703,-12 8703,-12 8703,-86 8703,-86 8703,-92 8697,-98 8691,-98"/>
<text text-anchor="middle" x="8550.5" y="-82.8" font-family="Times,serif" font-size="14.00">merge</text>
<text text-anchor="middle" x="8550.5" y="-67.8" font-family="Times,serif" font-size="14.00">EB1/C4</text>
<text text-anchor="middle" x="8550.5" y="-52.8" font-family="Times,serif" font-size="14.00">dilation rate: 1 &#160;&#160;k width: 3</text>
<text text-anchor="middle" x="8550.5" y="-37.8" font-family="Times,serif" font-size="14.00">log gamma1: &#45;11.000000 &#160;&#160;log gamma2: &#45;11.000000</text>
<text text-anchor="middle" x="8550.5" y="-22.8" font-family="Times,serif" font-size="14.00">log lambda1: &#45;11.000000 &#160;&#160;log lambda2: &#45;11.000000</text>
<text text-anchor="middle" x="8550.5" y="-7.8" font-family="Times,serif" font-size="14.00">n kernels: 64</text>
</g>
<!-- 34&#45;&gt;70 -->
<g id="edge70" class="edge"><title>34&#45;&gt;70</title>
<path fill="none" stroke="black" d="M8550.5,-142.391C8550.5,-132.993 8550.5,-120.728 8550.5,-108.22"/>
<polygon fill="black" stroke="black" points="8554,-108.188 8550.5,-98.1876 8547,-108.188 8554,-108.188"/>
</g>
<!-- 71 -->
<g id="node72" class="node"><title>71</title>
<path fill="#f6d3ff" stroke="black" d="M9014,-98C9014,-98 8733,-98 8733,-98 8727,-98 8721,-92 8721,-86 8721,-86 8721,-12 8721,-12 8721,-6 8727,-0 8733,-0 8733,-0 9014,-0 9014,-0 9020,-0 9026,-6 9026,-12 9026,-12 9026,-86 9026,-86 9026,-92 9020,-98 9014,-98"/>
<text text-anchor="middle" x="8873.5" y="-82.8" font-family="Times,serif" font-size="14.00">forward</text>
<text text-anchor="middle" x="8873.5" y="-67.8" font-family="Times,serif" font-size="14.00">DB1/C0</text>
<text text-anchor="middle" x="8873.5" y="-52.8" font-family="Times,serif" font-size="14.00">dilation rate: 1 &#160;&#160;k width: 3</text>
<text text-anchor="middle" x="8873.5" y="-37.8" font-family="Times,serif" font-size="14.00">log gamma1: &#45;11.000000 &#160;&#160;log gamma2: &#45;11.000000</text>
<text text-anchor="middle" x="8873.5" y="-22.8" font-family="Times,serif" font-size="14.00">log lambda1: &#45;11.000000 &#160;&#160;log lambda2: &#45;11.000000</text>
<text text-anchor="middle" x="8873.5" y="-7.8" font-family="Times,serif" font-size="14.00">n kernels: 64</text>
</g>
<!-- 35&#45;&gt;71 -->
<g id="edge71" class="edge"><title>35&#45;&gt;71</title>
<path fill="none" stroke="black" d="M8907.25,-142.391C8903.78,-132.9 8899.25,-120.485 8894.63,-107.849"/>
<polygon fill="black" stroke="black" points="8897.82,-106.38 8891.1,-98.1876 8891.25,-108.782 8897.82,-106.38"/>
</g>
<!-- 72 -->
<g id="node73" class="node"><title>72</title>
<path fill="#f6d3ff" stroke="black" d="M9337,-98C9337,-98 9056,-98 9056,-98 9050,-98 9044,-92 9044,-86 9044,-86 9044,-12 9044,-12 9044,-6 9050,-0 9056,-0 9056,-0 9337,-0 9337,-0 9343,-0 9349,-6 9349,-12 9349,-12 9349,-86 9349,-86 9349,-92 9343,-98 9337,-98"/>
<text text-anchor="middle" x="9196.5" y="-82.8" font-family="Times,serif" font-size="14.00">forward</text>
<text text-anchor="middle" x="9196.5" y="-67.8" font-family="Times,serif" font-size="14.00">DB1/C1</text>
<text text-anchor="middle" x="9196.5" y="-52.8" font-family="Times,serif" font-size="14.00">dilation rate: 1 &#160;&#160;k width: 3</text>
<text text-anchor="middle" x="9196.5" y="-37.8" font-family="Times,serif" font-size="14.00">log gamma1: &#45;11.000000 &#160;&#160;log gamma2: &#45;11.000000</text>
<text text-anchor="middle" x="9196.5" y="-22.8" font-family="Times,serif" font-size="14.00">log lambda1: &#45;11.000000 &#160;&#160;log lambda2: &#45;11.000000</text>
<text text-anchor="middle" x="9196.5" y="-7.8" font-family="Times,serif" font-size="14.00">n kernels: 64</text>
</g>
<!-- 36&#45;&gt;72 -->
<g id="edge72" class="edge"><title>36&#45;&gt;72</title>
<path fill="none" stroke="black" d="M9089.34,-142.391C9101.21,-132.156 9117.03,-118.519 9132.86,-104.873"/>
<polygon fill="black" stroke="black" points="9135.32,-107.368 9140.61,-98.1876 9130.75,-102.067 9135.32,-107.368"/>
</g>
<!-- 73 -->
<g id="node74" class="node"><title>73</title>
<path fill="#f6d3ff" stroke="black" d="M9660,-98C9660,-98 9379,-98 9379,-98 9373,-98 9367,-92 9367,-86 9367,-86 9367,-12 9367,-12 9367,-6 9373,-0 9379,-0 9379,-0 9660,-0 9660,-0 9666,-0 9672,-6 9672,-12 9672,-12 9672,-86 9672,-86 9672,-92 9666,-98 9660,-98"/>
<text text-anchor="middle" x="9519.5" y="-82.8" font-family="Times,serif" font-size="14.00">forward</text>
<text text-anchor="middle" x="9519.5" y="-67.8" font-family="Times,serif" font-size="14.00">DB1/C2</text>
<text text-anchor="middle" x="9519.5" y="-52.8" font-family="Times,serif" font-size="14.00">dilation rate: 1 &#160;&#160;k width: 3</text>
<text text-anchor="middle" x="9519.5" y="-37.8" font-family="Times,serif" font-size="14.00">log gamma1: &#45;11.000000 &#160;&#160;log gamma2: &#45;11.000000</text>
<text text-anchor="middle" x="9519.5" y="-22.8" font-family="Times,serif" font-size="14.00">log lambda1: &#45;11.000000 &#160;&#160;log lambda2: &#45;11.000000</text>
<text text-anchor="middle" x="9519.5" y="-7.8" font-family="Times,serif" font-size="14.00">n kernels: 64</text>
</g>
<!-- 37&#45;&gt;73 -->
<g id="edge73" class="edge"><title>37&#45;&gt;73</title>
<path fill="none" stroke="black" d="M9375.9,-141.418C9392.33,-130.961 9413.94,-117.201 9435.4,-103.542"/>
<polygon fill="black" stroke="black" points="9437.37,-106.438 9443.92,-98.1154 9433.61,-100.533 9437.37,-106.438"/>
</g>
<!-- 74 -->
<g id="node75" class="node"><title>74</title>
<path fill="#f6d3ff" stroke="black" d="M9983,-98C9983,-98 9702,-98 9702,-98 9696,-98 9690,-92 9690,-86 9690,-86 9690,-12 9690,-12 9690,-6 9696,-0 9702,-0 9702,-0 9983,-0 9983,-0 9989,-0 9995,-6 9995,-12 9995,-12 9995,-86 9995,-86 9995,-92 9989,-98 9983,-98"/>
<text text-anchor="middle" x="9842.5" y="-82.8" font-family="Times,serif" font-size="14.00">forward</text>
<text text-anchor="middle" x="9842.5" y="-67.8" font-family="Times,serif" font-size="14.00">DB1/C3</text>
<text text-anchor="middle" x="9842.5" y="-52.8" font-family="Times,serif" font-size="14.00">dilation rate: 1 &#160;&#160;k width: 3</text>
<text text-anchor="middle" x="9842.5" y="-37.8" font-family="Times,serif" font-size="14.00">log gamma1: &#45;11.000000 &#160;&#160;log gamma2: &#45;11.000000</text>
<text text-anchor="middle" x="9842.5" y="-22.8" font-family="Times,serif" font-size="14.00">log lambda1: &#45;11.000000 &#160;&#160;log lambda2: &#45;11.000000</text>
<text text-anchor="middle" x="9842.5" y="-7.8" font-family="Times,serif" font-size="14.00">n kernels: 64</text>
</g>
<!-- 38&#45;&gt;74 -->
<g id="edge74" class="edge"><title>38&#45;&gt;74</title>
<path fill="none" stroke="black" d="M9809.11,-141.418C9812.5,-132.12 9816.85,-120.209 9821.28,-108.08"/>
<polygon fill="black" stroke="black" points="9824.69,-108.946 9824.84,-98.352 9818.12,-106.544 9824.69,-108.946"/>
</g>
<!-- 75 -->
<g id="node76" class="node"><title>75</title>
<path fill="#f6d3ff" stroke="black" d="M10306,-98C10306,-98 10025,-98 10025,-98 10019,-98 10013,-92 10013,-86 10013,-86 10013,-12 10013,-12 10013,-6 10019,-0 10025,-0 10025,-0 10306,-0 10306,-0 10312,-0 10318,-6 10318,-12 10318,-12 10318,-86 10318,-86 10318,-92 10312,-98 10306,-98"/>
<text text-anchor="middle" x="10165.5" y="-82.8" font-family="Times,serif" font-size="14.00">forward</text>
<text text-anchor="middle" x="10165.5" y="-67.8" font-family="Times,serif" font-size="14.00">DB1/C4</text>
<text text-anchor="middle" x="10165.5" y="-52.8" font-family="Times,serif" font-size="14.00">dilation rate: 1 &#160;&#160;k width: 3</text>
<text text-anchor="middle" x="10165.5" y="-37.8" font-family="Times,serif" font-size="14.00">log gamma1: &#45;11.000000 &#160;&#160;log gamma2: &#45;11.000000</text>
<text text-anchor="middle" x="10165.5" y="-22.8" font-family="Times,serif" font-size="14.00">log lambda1: &#45;11.000000 &#160;&#160;log lambda2: &#45;11.000000</text>
<text text-anchor="middle" x="10165.5" y="-7.8" font-family="Times,serif" font-size="14.00">n kernels: 64</text>
</g>
<!-- 39&#45;&gt;75 -->
<g id="edge75" class="edge"><title>39&#45;&gt;75</title>
<path fill="none" stroke="black" d="M10459.3,-149.589C10426.5,-138.49 10370.9,-119.643 10316.9,-101.313"/>
<polygon fill="black" stroke="black" points="10317.7,-97.9146 10307.1,-98.0186 10315.5,-104.544 10317.7,-97.9146"/>
</g>
<!-- 76 -->
<g id="node77" class="node"><title>76</title>
<path fill="#debfe6" stroke="black" d="M10629,-98C10629,-98 10348,-98 10348,-98 10342,-98 10336,-92 10336,-86 10336,-86 10336,-12 10336,-12 10336,-6 10342,-0 10348,-0 10348,-0 10629,-0 10629,-0 10635,-0 10641,-6 10641,-12 10641,-12 10641,-86 10641,-86 10641,-92 10635,-98 10629,-98"/>
<text text-anchor="middle" x="10488.5" y="-82.8" font-family="Times,serif" font-size="14.00">merge</text>
<text text-anchor="middle" x="10488.5" y="-67.8" font-family="Times,serif" font-size="14.00">EB0/C4</text>
<text text-anchor="middle" x="10488.5" y="-52.8" font-family="Times,serif" font-size="14.00">dilation rate: 1 &#160;&#160;k width: 3</text>
<text text-anchor="middle" x="10488.5" y="-37.8" font-family="Times,serif" font-size="14.00">log gamma1: &#45;11.000000 &#160;&#160;log gamma2: &#45;11.000000</text>
<text text-anchor="middle" x="10488.5" y="-22.8" font-family="Times,serif" font-size="14.00">log lambda1: &#45;11.000000 &#160;&#160;log lambda2: &#45;11.000000</text>
<text text-anchor="middle" x="10488.5" y="-7.8" font-family="Times,serif" font-size="14.00">n kernels: 64</text>
</g>
<!-- 39&#45;&gt;76 -->
<g id="edge76" class="edge"><title>39&#45;&gt;76</title>
<path fill="none" stroke="black" d="M10488.5,-142.391C10488.5,-132.993 10488.5,-120.728 10488.5,-108.22"/>
<polygon fill="black" stroke="black" points="10492,-108.188 10488.5,-98.1876 10485,-108.188 10492,-108.188"/>
</g>
<!-- 77 -->
<g id="node78" class="node"><title>77</title>
<path fill="#f6d3ff" stroke="black" d="M10952,-98C10952,-98 10671,-98 10671,-98 10665,-98 10659,-92 10659,-86 10659,-86 10659,-12 10659,-12 10659,-6 10665,-0 10671,-0 10671,-0 10952,-0 10952,-0 10958,-0 10964,-6 10964,-12 10964,-12 10964,-86 10964,-86 10964,-92 10958,-98 10952,-98"/>
<text text-anchor="middle" x="10811.5" y="-82.8" font-family="Times,serif" font-size="14.00">forward</text>
<text text-anchor="middle" x="10811.5" y="-67.8" font-family="Times,serif" font-size="14.00">DB0/C0</text>
<text text-anchor="middle" x="10811.5" y="-52.8" font-family="Times,serif" font-size="14.00">dilation rate: 1 &#160;&#160;k width: 3</text>
<text text-anchor="middle" x="10811.5" y="-37.8" font-family="Times,serif" font-size="14.00">log gamma1: &#45;11.000000 &#160;&#160;log gamma2: &#45;11.000000</text>
<text text-anchor="middle" x="10811.5" y="-22.8" font-family="Times,serif" font-size="14.00">log lambda1: &#45;11.000000 &#160;&#160;log lambda2: &#45;11.000000</text>
<text text-anchor="middle" x="10811.5" y="-7.8" font-family="Times,serif" font-size="14.00">n kernels: 64</text>
</g>
<!-- 40&#45;&gt;77 -->
<g id="edge77" class="edge"><title>40&#45;&gt;77</title>
<path fill="none" stroke="black" d="M10845.2,-142.391C10841.8,-132.9 10837.2,-120.485 10832.6,-107.849"/>
<polygon fill="black" stroke="black" points="10835.8,-106.38 10829.1,-98.1876 10829.2,-108.782 10835.8,-106.38"/>
</g>
<!-- 78 -->
<g id="node79" class="node"><title>78</title>
<path fill="#f6d3ff" stroke="black" d="M11275,-98C11275,-98 10994,-98 10994,-98 10988,-98 10982,-92 10982,-86 10982,-86 10982,-12 10982,-12 10982,-6 10988,-0 10994,-0 10994,-0 11275,-0 11275,-0 11281,-0 11287,-6 11287,-12 11287,-12 11287,-86 11287,-86 11287,-92 11281,-98 11275,-98"/>
<text text-anchor="middle" x="11134.5" y="-82.8" font-family="Times,serif" font-size="14.00">forward</text>
<text text-anchor="middle" x="11134.5" y="-67.8" font-family="Times,serif" font-size="14.00">DB0/C1</text>
<text text-anchor="middle" x="11134.5" y="-52.8" font-family="Times,serif" font-size="14.00">dilation rate: 1 &#160;&#160;k width: 3</text>
<text text-anchor="middle" x="11134.5" y="-37.8" font-family="Times,serif" font-size="14.00">log gamma1: &#45;11.000000 &#160;&#160;log gamma2: &#45;11.000000</text>
<text text-anchor="middle" x="11134.5" y="-22.8" font-family="Times,serif" font-size="14.00">log lambda1: &#45;11.000000 &#160;&#160;log lambda2: &#45;11.000000</text>
<text text-anchor="middle" x="11134.5" y="-7.8" font-family="Times,serif" font-size="14.00">n kernels: 64</text>
</g>
<!-- 41&#45;&gt;78 -->
<g id="edge78" class="edge"><title>41&#45;&gt;78</title>
<path fill="none" stroke="black" d="M11064.4,-141.418C11071.8,-131.751 11081.4,-119.262 11091.1,-106.638"/>
<polygon fill="black" stroke="black" points="11094.1,-108.417 11097.4,-98.352 11088.5,-104.156 11094.1,-108.417"/>
</g>
<!-- 79 -->
<g id="node80" class="node"><title>79</title>
<path fill="#f6d3ff" stroke="black" d="M11598,-98C11598,-98 11317,-98 11317,-98 11311,-98 11305,-92 11305,-86 11305,-86 11305,-12 11305,-12 11305,-6 11311,-0 11317,-0 11317,-0 11598,-0 11598,-0 11604,-0 11610,-6 11610,-12 11610,-12 11610,-86 11610,-86 11610,-92 11604,-98 11598,-98"/>
<text text-anchor="middle" x="11457.5" y="-82.8" font-family="Times,serif" font-size="14.00">forward</text>
<text text-anchor="middle" x="11457.5" y="-67.8" font-family="Times,serif" font-size="14.00">DB0/C2</text>
<text text-anchor="middle" x="11457.5" y="-52.8" font-family="Times,serif" font-size="14.00">dilation rate: 1 &#160;&#160;k width: 3</text>
<text text-anchor="middle" x="11457.5" y="-37.8" font-family="Times,serif" font-size="14.00">log gamma1: &#45;11.000000 &#160;&#160;log gamma2: &#45;11.000000</text>
<text text-anchor="middle" x="11457.5" y="-22.8" font-family="Times,serif" font-size="14.00">log lambda1: &#45;11.000000 &#160;&#160;log lambda2: &#45;11.000000</text>
<text text-anchor="middle" x="11457.5" y="-7.8" font-family="Times,serif" font-size="14.00">n kernels: 64</text>
</g>
<!-- 42&#45;&gt;79 -->
<g id="edge79" class="edge"><title>42&#45;&gt;79</title>
<path fill="none" stroke="black" d="M11350.3,-142.391C11362.2,-132.156 11378,-118.519 11393.9,-104.873"/>
<polygon fill="black" stroke="black" points="11396.3,-107.368 11401.6,-98.1876 11391.8,-102.067 11396.3,-107.368"/>
</g>
<!-- 80 -->
<g id="node81" class="node"><title>80</title>
<path fill="#f6d3ff" stroke="black" d="M11921,-98C11921,-98 11640,-98 11640,-98 11634,-98 11628,-92 11628,-86 11628,-86 11628,-12 11628,-12 11628,-6 11634,-0 11640,-0 11640,-0 11921,-0 11921,-0 11927,-0 11933,-6 11933,-12 11933,-12 11933,-86 11933,-86 11933,-92 11927,-98 11921,-98"/>
<text text-anchor="middle" x="11780.5" y="-82.8" font-family="Times,serif" font-size="14.00">forward</text>
<text text-anchor="middle" x="11780.5" y="-67.8" font-family="Times,serif" font-size="14.00">DB0/C3</text>
<text text-anchor="middle" x="11780.5" y="-52.8" font-family="Times,serif" font-size="14.00">dilation rate: 1 &#160;&#160;k width: 3</text>
<text text-anchor="middle" x="11780.5" y="-37.8" font-family="Times,serif" font-size="14.00">log gamma1: &#45;11.000000 &#160;&#160;log gamma2: &#45;11.000000</text>
<text text-anchor="middle" x="11780.5" y="-22.8" font-family="Times,serif" font-size="14.00">log lambda1: &#45;11.000000 &#160;&#160;log lambda2: &#45;11.000000</text>
<text text-anchor="middle" x="11780.5" y="-7.8" font-family="Times,serif" font-size="14.00">n kernels: 64</text>
</g>
<!-- 43&#45;&gt;80 -->
<g id="edge80" class="edge"><title>43&#45;&gt;80</title>
<path fill="none" stroke="black" d="M11746.3,-141.418C11749.8,-132.028 11754.3,-119.973 11758.9,-107.72"/>
<polygon fill="black" stroke="black" points="11762.2,-108.944 11762.4,-98.352 11755.6,-106.49 11762.2,-108.944"/>
</g>
</g>
</svg>
