<?xml version="1.0" encoding="UTF-8" standalone="no"?>
<!DOCTYPE svg PUBLIC "-//W3C//DTD SVG 1.1//EN"
 "http://www.w3.org/Graphics/SVG/1.1/DTD/svg11.dtd">
<!-- Generated by graphviz version 2.38.0 (20140413.2041)
 -->
<!-- Title: %3 Pages: 1 -->
<svg width="2162pt" height="387pt"
 viewBox="0.00 0.00 2162.00 387.00" xmlns="http://www.w3.org/2000/svg" xmlns:xlink="http://www.w3.org/1999/xlink">
<g id="graph0" class="graph" transform="scale(1 1) rotate(0) translate(4 383)">
<title>%3</title>
<polygon fill="none" stroke="none" points="-4,4 -4,-383 2158,-383 2158,4 -4,4"/>
<!-- 0 -->
<g id="node1" class="node"><title>0</title>
<path fill="#ffd3d3" stroke="black" d="M945.5,-379C945.5,-379 665.5,-379 665.5,-379 659.5,-379 653.5,-373 653.5,-367 653.5,-367 653.5,-338 653.5,-338 653.5,-332 659.5,-326 665.5,-326 665.5,-326 945.5,-326 945.5,-326 951.5,-326 957.5,-332 957.5,-338 957.5,-338 957.5,-367 957.5,-367 957.5,-373 951.5,-379 945.5,-379"/>
<text text-anchor="middle" x="805.5" y="-363.8" font-family="Times,serif" font-size="14.00">net</text>
<text text-anchor="middle" x="805.5" y="-348.8" font-family="Times,serif" font-size="14.00">log lambda1: &#45;11.000000 &#160;&#160;log lambda2: &#45;11.000000</text>
<text text-anchor="middle" x="805.5" y="-333.8" font-family="Times,serif" font-size="14.00">n kernels: 88 &#160;&#160;pooling type: 0</text>
</g>
<!-- 1 -->
<g id="node2" class="node"><title>1</title>
<path fill="#f6ffd3" stroke="black" d="M566,-290C566,-290 503,-290 503,-290 497,-290 491,-284 491,-278 491,-278 491,-264 491,-264 491,-258 497,-252 503,-252 503,-252 566,-252 566,-252 572,-252 578,-258 578,-264 578,-264 578,-278 578,-278 578,-284 572,-290 566,-290"/>
<text text-anchor="middle" x="534.5" y="-274.8" font-family="Times,serif" font-size="14.00">encoder</text>
<text text-anchor="middle" x="534.5" y="-259.8" font-family="Times,serif" font-size="14.00">n kernels: 10</text>
</g>
<!-- 0&#45;&gt;1 -->
<g id="edge1" class="edge"><title>0&#45;&gt;1</title>
<path fill="none" stroke="black" d="M718.262,-325.908C675.367,-313.324 625.049,-298.563 587.922,-287.672"/>
<polygon fill="black" stroke="black" points="588.881,-284.306 578.3,-284.849 586.91,-291.022 588.881,-284.306"/>
</g>
<!-- 2 -->
<g id="node3" class="node"><title>2</title>
<path fill="#f6ffd3" stroke="black" d="M1185,-289C1185,-289 1150,-289 1150,-289 1144,-289 1138,-283 1138,-277 1138,-277 1138,-265 1138,-265 1138,-259 1144,-253 1150,-253 1150,-253 1185,-253 1185,-253 1191,-253 1197,-259 1197,-265 1197,-265 1197,-277 1197,-277 1197,-283 1191,-289 1185,-289"/>
<text text-anchor="middle" x="1167.5" y="-267.3" font-family="Times,serif" font-size="14.00">decoder</text>
</g>
<!-- 0&#45;&gt;2 -->
<g id="edge2" class="edge"><title>0&#45;&gt;2</title>
<path fill="none" stroke="black" d="M922.032,-325.908C992.849,-310.356 1078.81,-291.477 1127.94,-280.689"/>
<polygon fill="black" stroke="black" points="1128.82,-284.077 1137.84,-278.514 1127.32,-277.24 1128.82,-284.077"/>
</g>
<!-- 3 -->
<g id="node4" class="node"><title>3</title>
<path fill="#d3ffe4" stroke="black" d="M300,-215C300,-215 225,-215 225,-215 219,-215 213,-209 213,-203 213,-203 213,-191 213,-191 213,-185 219,-179 225,-179 225,-179 300,-179 300,-179 306,-179 312,-185 312,-191 312,-191 312,-203 312,-203 312,-209 306,-215 300,-215"/>
<text text-anchor="middle" x="262.5" y="-193.3" font-family="Times,serif" font-size="14.00">encode block 0</text>
</g>
<!-- 1&#45;&gt;3 -->
<g id="edge3" class="edge"><title>1&#45;&gt;3</title>
<path fill="none" stroke="black" d="M490.798,-258.432C445.043,-246.32 372.896,-227.223 321.973,-213.743"/>
<polygon fill="black" stroke="black" points="322.648,-210.301 312.085,-211.125 320.856,-217.068 322.648,-210.301"/>
</g>
<!-- 4 -->
<g id="node5" class="node"><title>4</title>
<path fill="#bfe6cf" stroke="black" d="M612,-216C612,-216 457,-216 457,-216 451,-216 445,-210 445,-204 445,-204 445,-190 445,-190 445,-184 451,-178 457,-178 457,-178 612,-178 612,-178 618,-178 624,-184 624,-190 624,-190 624,-204 624,-204 624,-210 618,-216 612,-216"/>
<text text-anchor="middle" x="534.5" y="-200.8" font-family="Times,serif" font-size="14.00">encode block 1</text>
<text text-anchor="middle" x="534.5" y="-185.8" font-family="Times,serif" font-size="14.00">n kernels: 98 &#160;&#160;spatial scale: 1</text>
</g>
<!-- 1&#45;&gt;4 -->
<g id="edge4" class="edge"><title>1&#45;&gt;4</title>
<path fill="none" stroke="black" d="M534.5,-251.831C534.5,-244.131 534.5,-234.974 534.5,-226.417"/>
<polygon fill="black" stroke="black" points="538,-226.413 534.5,-216.413 531,-226.413 538,-226.413"/>
</g>
<!-- 5 -->
<g id="node6" class="node"><title>5</title>
<path fill="#d3ffe4" stroke="black" d="M1067,-216C1067,-216 906,-216 906,-216 900,-216 894,-210 894,-204 894,-204 894,-190 894,-190 894,-184 900,-178 906,-178 906,-178 1067,-178 1067,-178 1073,-178 1079,-184 1079,-190 1079,-190 1079,-204 1079,-204 1079,-210 1073,-216 1067,-216"/>
<text text-anchor="middle" x="986.5" y="-200.8" font-family="Times,serif" font-size="14.00">decode block 2</text>
<text text-anchor="middle" x="986.5" y="-185.8" font-family="Times,serif" font-size="14.00">n kernels: 264 &#160;&#160;spatial scale: 2</text>
</g>
<!-- 2&#45;&gt;5 -->
<g id="edge5" class="edge"><title>2&#45;&gt;5</title>
<path fill="none" stroke="black" d="M1137.61,-258.111C1111.59,-247.758 1073.19,-232.483 1041.61,-219.922"/>
<polygon fill="black" stroke="black" points="1042.64,-216.563 1032.05,-216.119 1040.05,-223.068 1042.64,-216.563"/>
</g>
<!-- 6 -->
<g id="node7" class="node"><title>6</title>
<path fill="#bfe6cf" stroke="black" d="M1345,-216C1345,-216 1190,-216 1190,-216 1184,-216 1178,-210 1178,-204 1178,-204 1178,-190 1178,-190 1178,-184 1184,-178 1190,-178 1190,-178 1345,-178 1345,-178 1351,-178 1357,-184 1357,-190 1357,-190 1357,-204 1357,-204 1357,-210 1351,-216 1345,-216"/>
<text text-anchor="middle" x="1267.5" y="-200.8" font-family="Times,serif" font-size="14.00">decode block 1</text>
<text text-anchor="middle" x="1267.5" y="-185.8" font-family="Times,serif" font-size="14.00">n kernels: 14 &#160;&#160;spatial scale: 1</text>
</g>
<!-- 2&#45;&gt;6 -->
<g id="edge6" class="edge"><title>2&#45;&gt;6</title>
<path fill="none" stroke="black" d="M1191.2,-252.937C1203.92,-243.777 1219.82,-232.33 1233.81,-222.259"/>
<polygon fill="black" stroke="black" points="1236.15,-224.883 1242.22,-216.199 1232.06,-219.202 1236.15,-224.883"/>
</g>
<!-- 7 -->
<g id="node8" class="node"><title>7</title>
<path fill="#abceb9" stroke="black" d="M1811,-216C1811,-216 1736,-216 1736,-216 1730,-216 1724,-210 1724,-204 1724,-204 1724,-190 1724,-190 1724,-184 1730,-178 1736,-178 1736,-178 1811,-178 1811,-178 1817,-178 1823,-184 1823,-190 1823,-190 1823,-204 1823,-204 1823,-210 1817,-216 1811,-216"/>
<text text-anchor="middle" x="1773.5" y="-200.8" font-family="Times,serif" font-size="14.00">decode block 0</text>
<text text-anchor="middle" x="1773.5" y="-185.8" font-family="Times,serif" font-size="14.00">n kernels: 3</text>
</g>
<!-- 2&#45;&gt;7 -->
<g id="edge7" class="edge"><title>2&#45;&gt;7</title>
<path fill="none" stroke="black" d="M1197.14,-266.479C1291.54,-255.263 1586.4,-220.229 1713.84,-205.088"/>
<polygon fill="black" stroke="black" points="1714.3,-208.558 1723.82,-203.903 1713.48,-201.607 1714.3,-208.558"/>
</g>
<!-- 8 -->
<g id="node9" class="node"><title>8</title>
<path fill="#d3e4ff" stroke="black" d="M121.5,-141C121.5,-141 87.5,-141 87.5,-141 81.5,-141 75.5,-135 75.5,-129 75.5,-129 75.5,-117 75.5,-117 75.5,-111 81.5,-105 87.5,-105 87.5,-105 121.5,-105 121.5,-105 127.5,-105 133.5,-111 133.5,-117 133.5,-117 133.5,-129 133.5,-129 133.5,-135 127.5,-141 121.5,-141"/>
<text text-anchor="middle" x="104.5" y="-119.3" font-family="Times,serif" font-size="14.00">comp 0</text>
</g>
<!-- 3&#45;&gt;8 -->
<g id="edge8" class="edge"><title>3&#45;&gt;8</title>
<path fill="none" stroke="black" d="M225.056,-178.937C200.214,-167.617 167.709,-152.804 142.711,-141.413"/>
<polygon fill="black" stroke="black" points="144.081,-138.191 133.53,-137.229 141.178,-144.561 144.081,-138.191"/>
</g>
<!-- 9 -->
<g id="node10" class="node"><title>9</title>
<path fill="#bfcfe6" stroke="black" d="M338,-142C338,-142 187,-142 187,-142 181,-142 175,-136 175,-130 175,-130 175,-116 175,-116 175,-110 181,-104 187,-104 187,-104 338,-104 338,-104 344,-104 350,-110 350,-116 350,-116 350,-130 350,-130 350,-136 344,-142 338,-142"/>
<text text-anchor="middle" x="262.5" y="-126.8" font-family="Times,serif" font-size="14.00">comp 1</text>
<text text-anchor="middle" x="262.5" y="-111.8" font-family="Times,serif" font-size="14.00">batch norm: 1 &#160;&#160;n kernels: 12</text>
</g>
<!-- 3&#45;&gt;9 -->
<g id="edge9" class="edge"><title>3&#45;&gt;9</title>
<path fill="none" stroke="black" d="M262.5,-178.937C262.5,-170.987 262.5,-161.313 262.5,-152.313"/>
<polygon fill="black" stroke="black" points="266,-152.199 262.5,-142.199 259,-152.199 266,-152.199"/>
</g>
<!-- 10 -->
<g id="node11" class="node"><title>10</title>
<path fill="#d3e4ff" stroke="black" d="M471.5,-141C471.5,-141 437.5,-141 437.5,-141 431.5,-141 425.5,-135 425.5,-129 425.5,-129 425.5,-117 425.5,-117 425.5,-111 431.5,-105 437.5,-105 437.5,-105 471.5,-105 471.5,-105 477.5,-105 483.5,-111 483.5,-117 483.5,-117 483.5,-129 483.5,-129 483.5,-135 477.5,-141 471.5,-141"/>
<text text-anchor="middle" x="454.5" y="-119.3" font-family="Times,serif" font-size="14.00">comp 0</text>
</g>
<!-- 4&#45;&gt;10 -->
<g id="edge10" class="edge"><title>4&#45;&gt;10</title>
<path fill="none" stroke="black" d="M514.313,-177.831C504.256,-168.78 491.964,-157.717 481.144,-147.98"/>
<polygon fill="black" stroke="black" points="483.354,-145.26 473.579,-141.171 478.671,-150.463 483.354,-145.26"/>
</g>
<!-- 11 -->
<g id="node12" class="node"><title>11</title>
<path fill="#bfcfe6" stroke="black" d="M691,-142C691,-142 536,-142 536,-142 530,-142 524,-136 524,-130 524,-130 524,-116 524,-116 524,-110 530,-104 536,-104 536,-104 691,-104 691,-104 697,-104 703,-110 703,-116 703,-116 703,-130 703,-130 703,-136 697,-142 691,-142"/>
<text text-anchor="middle" x="613.5" y="-126.8" font-family="Times,serif" font-size="14.00">comp 1</text>
<text text-anchor="middle" x="613.5" y="-111.8" font-family="Times,serif" font-size="14.00">batch norm: 1 &#160;&#160;n kernels: &#45;68</text>
</g>
<!-- 4&#45;&gt;11 -->
<g id="edge11" class="edge"><title>4&#45;&gt;11</title>
<path fill="none" stroke="black" d="M554.435,-177.831C563.978,-169.134 575.56,-158.578 585.931,-149.127"/>
<polygon fill="black" stroke="black" points="588.538,-151.486 593.571,-142.163 583.823,-146.312 588.538,-151.486"/>
</g>
<!-- 12 -->
<g id="node13" class="node"><title>12</title>
<path fill="#d3e4ff" stroke="black" d="M853.5,-142C853.5,-142 779.5,-142 779.5,-142 773.5,-142 767.5,-136 767.5,-130 767.5,-130 767.5,-116 767.5,-116 767.5,-110 773.5,-104 779.5,-104 779.5,-104 853.5,-104 853.5,-104 859.5,-104 865.5,-110 865.5,-116 865.5,-116 865.5,-130 865.5,-130 865.5,-136 859.5,-142 853.5,-142"/>
<text text-anchor="middle" x="816.5" y="-126.8" font-family="Times,serif" font-size="14.00">comp 0</text>
<text text-anchor="middle" x="816.5" y="-111.8" font-family="Times,serif" font-size="14.00">n kernels: &#45;224</text>
</g>
<!-- 5&#45;&gt;12 -->
<g id="edge12" class="edge"><title>5&#45;&gt;12</title>
<path fill="none" stroke="black" d="M943.602,-177.831C920.764,-168.159 892.502,-156.189 868.431,-145.994"/>
<polygon fill="black" stroke="black" points="869.663,-142.715 859.09,-142.038 866.933,-149.161 869.663,-142.715"/>
</g>
<!-- 13 -->
<g id="node14" class="node"><title>13</title>
<path fill="#bfcfe6" stroke="black" d="M1067.5,-142C1067.5,-142 905.5,-142 905.5,-142 899.5,-142 893.5,-136 893.5,-130 893.5,-130 893.5,-116 893.5,-116 893.5,-110 899.5,-104 905.5,-104 905.5,-104 1067.5,-104 1067.5,-104 1073.5,-104 1079.5,-110 1079.5,-116 1079.5,-116 1079.5,-130 1079.5,-130 1079.5,-136 1073.5,-142 1067.5,-142"/>
<text text-anchor="middle" x="986.5" y="-126.8" font-family="Times,serif" font-size="14.00">comp 1</text>
<text text-anchor="middle" x="986.5" y="-111.8" font-family="Times,serif" font-size="14.00">batch norm: 1 &#160;&#160;n kernels: &#45;224</text>
</g>
<!-- 5&#45;&gt;13 -->
<g id="edge13" class="edge"><title>5&#45;&gt;13</title>
<path fill="none" stroke="black" d="M986.5,-177.831C986.5,-170.131 986.5,-160.974 986.5,-152.417"/>
<polygon fill="black" stroke="black" points="990,-152.413 986.5,-142.413 983,-152.413 990,-152.413"/>
</g>
<!-- 14 -->
<g id="node15" class="node"><title>14</title>
<path fill="#d3e4ff" stroke="black" d="M1299,-142C1299,-142 1236,-142 1236,-142 1230,-142 1224,-136 1224,-130 1224,-130 1224,-116 1224,-116 1224,-110 1230,-104 1236,-104 1236,-104 1299,-104 1299,-104 1305,-104 1311,-110 1311,-116 1311,-116 1311,-130 1311,-130 1311,-136 1305,-142 1299,-142"/>
<text text-anchor="middle" x="1267.5" y="-126.8" font-family="Times,serif" font-size="14.00">comp 0</text>
<text text-anchor="middle" x="1267.5" y="-111.8" font-family="Times,serif" font-size="14.00">n kernels: 16</text>
</g>
<!-- 6&#45;&gt;14 -->
<g id="edge14" class="edge"><title>6&#45;&gt;14</title>
<path fill="none" stroke="black" d="M1267.5,-177.831C1267.5,-170.131 1267.5,-160.974 1267.5,-152.417"/>
<polygon fill="black" stroke="black" points="1271,-152.413 1267.5,-142.413 1264,-152.413 1271,-152.413"/>
</g>
<!-- 15 -->
<g id="node16" class="node"><title>15</title>
<path fill="#bfcfe6" stroke="black" d="M1508,-142C1508,-142 1357,-142 1357,-142 1351,-142 1345,-136 1345,-130 1345,-130 1345,-116 1345,-116 1345,-110 1351,-104 1357,-104 1357,-104 1508,-104 1508,-104 1514,-104 1520,-110 1520,-116 1520,-116 1520,-130 1520,-130 1520,-136 1514,-142 1508,-142"/>
<text text-anchor="middle" x="1432.5" y="-126.8" font-family="Times,serif" font-size="14.00">comp 1</text>
<text text-anchor="middle" x="1432.5" y="-111.8" font-family="Times,serif" font-size="14.00">batch norm: 1 &#160;&#160;n kernels: 14</text>
</g>
<!-- 6&#45;&gt;15 -->
<g id="edge15" class="edge"><title>6&#45;&gt;15</title>
<path fill="none" stroke="black" d="M1309.14,-177.831C1331.2,-168.202 1358.49,-156.295 1381.79,-146.13"/>
<polygon fill="black" stroke="black" points="1383.4,-149.245 1391.16,-142.038 1380.6,-142.83 1383.4,-149.245"/>
</g>
<!-- 16 -->
<g id="node17" class="node"><title>16</title>
<path fill="#d3e4ff" stroke="black" d="M1805,-142C1805,-142 1742,-142 1742,-142 1736,-142 1730,-136 1730,-130 1730,-130 1730,-116 1730,-116 1730,-110 1736,-104 1742,-104 1742,-104 1805,-104 1805,-104 1811,-104 1817,-110 1817,-116 1817,-116 1817,-130 1817,-130 1817,-136 1811,-142 1805,-142"/>
<text text-anchor="middle" x="1773.5" y="-126.8" font-family="Times,serif" font-size="14.00">comp 0</text>
<text text-anchor="middle" x="1773.5" y="-111.8" font-family="Times,serif" font-size="14.00">n kernels: 15</text>
</g>
<!-- 7&#45;&gt;16 -->
<g id="edge16" class="edge"><title>7&#45;&gt;16</title>
<path fill="none" stroke="black" d="M1773.5,-177.831C1773.5,-170.131 1773.5,-160.974 1773.5,-152.417"/>
<polygon fill="black" stroke="black" points="1777,-152.413 1773.5,-142.413 1770,-152.413 1777,-152.413"/>
</g>
<!-- 17 -->
<g id="node18" class="node"><title>17</title>
<path fill="#bfcfe6" stroke="black" d="M2043,-142C2043,-142 1974,-142 1974,-142 1968,-142 1962,-136 1962,-130 1962,-130 1962,-116 1962,-116 1962,-110 1968,-104 1974,-104 1974,-104 2043,-104 2043,-104 2049,-104 2055,-110 2055,-116 2055,-116 2055,-130 2055,-130 2055,-136 2049,-142 2043,-142"/>
<text text-anchor="middle" x="2008.5" y="-126.8" font-family="Times,serif" font-size="14.00">comp 1</text>
<text text-anchor="middle" x="2008.5" y="-111.8" font-family="Times,serif" font-size="14.00">batch norm: 1</text>
</g>
<!-- 7&#45;&gt;17 -->
<g id="edge17" class="edge"><title>7&#45;&gt;17</title>
<path fill="none" stroke="black" d="M1823.05,-180.819C1860.79,-169.256 1912.78,-153.328 1952.11,-141.278"/>
<polygon fill="black" stroke="black" points="1953.28,-144.579 1961.82,-138.303 1951.23,-137.886 1953.28,-144.579"/>
</g>
<!-- 18 -->
<g id="node19" class="node"><title>18</title>
<path fill="#f6d3ff" stroke="black" d="M151,-68C151,-68 12,-68 12,-68 6,-68 0,-62 0,-56 0,-56 0,-12 0,-12 0,-6 6,-0 12,-0 12,-0 151,-0 151,-0 157,-0 163,-6 163,-12 163,-12 163,-56 163,-56 163,-62 157,-68 151,-68"/>
<text text-anchor="middle" x="81.5" y="-52.8" font-family="Times,serif" font-size="14.00">forward</text>
<text text-anchor="middle" x="81.5" y="-37.8" font-family="Times,serif" font-size="14.00">input</text>
<text text-anchor="middle" x="81.5" y="-22.8" font-family="Times,serif" font-size="14.00">dilation rate: 1 &#160;&#160;k width: 3</text>
<text text-anchor="middle" x="81.5" y="-7.8" font-family="Times,serif" font-size="14.00">n kernels: 64</text>
</g>
<!-- 8&#45;&gt;18 -->
<g id="edge18" class="edge"><title>8&#45;&gt;18</title>
<path fill="none" stroke="black" d="M99.9559,-104.812C97.8961,-97.0199 95.3592,-87.4241 92.8332,-77.8689"/>
<polygon fill="black" stroke="black" points="96.1647,-76.7767 90.225,-68.0034 89.3972,-78.5658 96.1647,-76.7767"/>
</g>
<!-- 19 -->
<g id="node20" class="node"><title>19</title>
<path fill="#f6d3ff" stroke="black" d="M332,-68C332,-68 193,-68 193,-68 187,-68 181,-62 181,-56 181,-56 181,-12 181,-12 181,-6 187,-0 193,-0 193,-0 332,-0 332,-0 338,-0 344,-6 344,-12 344,-12 344,-56 344,-56 344,-62 338,-68 332,-68"/>
<text text-anchor="middle" x="262.5" y="-52.8" font-family="Times,serif" font-size="14.00">forward</text>
<text text-anchor="middle" x="262.5" y="-37.8" font-family="Times,serif" font-size="14.00">EB0/C0</text>
<text text-anchor="middle" x="262.5" y="-22.8" font-family="Times,serif" font-size="14.00">dilation rate: 1 &#160;&#160;k width: 3</text>
<text text-anchor="middle" x="262.5" y="-7.8" font-family="Times,serif" font-size="14.00">n kernels: 64</text>
</g>
<!-- 9&#45;&gt;19 -->
<g id="edge19" class="edge"><title>9&#45;&gt;19</title>
<path fill="none" stroke="black" d="M262.5,-103.974C262.5,-96.4519 262.5,-87.3613 262.5,-78.2833"/>
<polygon fill="black" stroke="black" points="266,-78.1236 262.5,-68.1236 259,-78.1237 266,-78.1236"/>
</g>
<!-- 20 -->
<g id="node21" class="node"><title>20</title>
<path fill="#f6d3ff" stroke="black" d="M513,-68C513,-68 374,-68 374,-68 368,-68 362,-62 362,-56 362,-56 362,-12 362,-12 362,-6 368,-0 374,-0 374,-0 513,-0 513,-0 519,-0 525,-6 525,-12 525,-12 525,-56 525,-56 525,-62 519,-68 513,-68"/>
<text text-anchor="middle" x="443.5" y="-52.8" font-family="Times,serif" font-size="14.00">forward</text>
<text text-anchor="middle" x="443.5" y="-37.8" font-family="Times,serif" font-size="14.00">EB0/C1</text>
<text text-anchor="middle" x="443.5" y="-22.8" font-family="Times,serif" font-size="14.00">dilation rate: 1 &#160;&#160;k width: 3</text>
<text text-anchor="middle" x="443.5" y="-7.8" font-family="Times,serif" font-size="14.00">n kernels: 64</text>
</g>
<!-- 10&#45;&gt;20 -->
<g id="edge20" class="edge"><title>10&#45;&gt;20</title>
<path fill="none" stroke="black" d="M452.327,-104.812C451.352,-97.1019 450.154,-87.6259 448.958,-78.1706"/>
<polygon fill="black" stroke="black" points="452.4,-77.4853 447.673,-68.0034 445.455,-78.3635 452.4,-77.4853"/>
</g>
<!-- 21 -->
<g id="node22" class="node"><title>21</title>
<path fill="#f6d3ff" stroke="black" d="M694,-68C694,-68 555,-68 555,-68 549,-68 543,-62 543,-56 543,-56 543,-12 543,-12 543,-6 549,-0 555,-0 555,-0 694,-0 694,-0 700,-0 706,-6 706,-12 706,-12 706,-56 706,-56 706,-62 700,-68 694,-68"/>
<text text-anchor="middle" x="624.5" y="-52.8" font-family="Times,serif" font-size="14.00">forward</text>
<text text-anchor="middle" x="624.5" y="-37.8" font-family="Times,serif" font-size="14.00">EB1/C0</text>
<text text-anchor="middle" x="624.5" y="-22.8" font-family="Times,serif" font-size="14.00">dilation rate: 1 &#160;&#160;k width: 3</text>
<text text-anchor="middle" x="624.5" y="-7.8" font-family="Times,serif" font-size="14.00">n kernels: 64</text>
</g>
<!-- 11&#45;&gt;21 -->
<g id="edge21" class="edge"><title>11&#45;&gt;21</title>
<path fill="none" stroke="black" d="M615.779,-103.974C616.73,-96.4519 617.88,-87.3613 619.027,-78.2833"/>
<polygon fill="black" stroke="black" points="622.53,-78.4837 620.312,-68.1236 615.585,-77.6056 622.53,-78.4837"/>
</g>
<!-- 22 -->
<g id="node23" class="node"><title>22</title>
<path fill="#f6d3ff" stroke="black" d="M875,-68C875,-68 736,-68 736,-68 730,-68 724,-62 724,-56 724,-56 724,-12 724,-12 724,-6 730,-0 736,-0 736,-0 875,-0 875,-0 881,-0 887,-6 887,-12 887,-12 887,-56 887,-56 887,-62 881,-68 875,-68"/>
<text text-anchor="middle" x="805.5" y="-52.8" font-family="Times,serif" font-size="14.00">forward</text>
<text text-anchor="middle" x="805.5" y="-37.8" font-family="Times,serif" font-size="14.00">EB1/C1</text>
<text text-anchor="middle" x="805.5" y="-22.8" font-family="Times,serif" font-size="14.00">dilation rate: 1 &#160;&#160;k width: 3</text>
<text text-anchor="middle" x="805.5" y="-7.8" font-family="Times,serif" font-size="14.00">n kernels: 64</text>
</g>
<!-- 12&#45;&gt;22 -->
<g id="edge22" class="edge"><title>12&#45;&gt;22</title>
<path fill="none" stroke="black" d="M814.221,-103.974C813.27,-96.4519 812.12,-87.3613 810.973,-78.2833"/>
<polygon fill="black" stroke="black" points="814.415,-77.6056 809.688,-68.1236 807.47,-78.4837 814.415,-77.6056"/>
</g>
<!-- 23 -->
<g id="node24" class="node"><title>23</title>
<path fill="#f6d3ff" stroke="black" d="M1056,-68C1056,-68 917,-68 917,-68 911,-68 905,-62 905,-56 905,-56 905,-12 905,-12 905,-6 911,-0 917,-0 917,-0 1056,-0 1056,-0 1062,-0 1068,-6 1068,-12 1068,-12 1068,-56 1068,-56 1068,-62 1062,-68 1056,-68"/>
<text text-anchor="middle" x="986.5" y="-52.8" font-family="Times,serif" font-size="14.00">forward</text>
<text text-anchor="middle" x="986.5" y="-37.8" font-family="Times,serif" font-size="14.00">DB2/C0</text>
<text text-anchor="middle" x="986.5" y="-22.8" font-family="Times,serif" font-size="14.00">dilation rate: 1 &#160;&#160;k width: 3</text>
<text text-anchor="middle" x="986.5" y="-7.8" font-family="Times,serif" font-size="14.00">n kernels: 64</text>
</g>
<!-- 13&#45;&gt;23 -->
<g id="edge23" class="edge"><title>13&#45;&gt;23</title>
<path fill="none" stroke="black" d="M986.5,-103.974C986.5,-96.4519 986.5,-87.3613 986.5,-78.2833"/>
<polygon fill="black" stroke="black" points="990,-78.1236 986.5,-68.1236 983,-78.1237 990,-78.1236"/>
</g>
<!-- 24 -->
<g id="node25" class="node"><title>24</title>
<path fill="#f6d3ff" stroke="black" d="M1237,-68C1237,-68 1098,-68 1098,-68 1092,-68 1086,-62 1086,-56 1086,-56 1086,-12 1086,-12 1086,-6 1092,-0 1098,-0 1098,-0 1237,-0 1237,-0 1243,-0 1249,-6 1249,-12 1249,-12 1249,-56 1249,-56 1249,-62 1243,-68 1237,-68"/>
<text text-anchor="middle" x="1167.5" y="-52.8" font-family="Times,serif" font-size="14.00">forward</text>
<text text-anchor="middle" x="1167.5" y="-37.8" font-family="Times,serif" font-size="14.00">DB2/C1</text>
<text text-anchor="middle" x="1167.5" y="-22.8" font-family="Times,serif" font-size="14.00">dilation rate: 1 &#160;&#160;k width: 3</text>
<text text-anchor="middle" x="1167.5" y="-7.8" font-family="Times,serif" font-size="14.00">n kernels: 64</text>
</g>
<!-- 14&#45;&gt;24 -->
<g id="edge24" class="edge"><title>14&#45;&gt;24</title>
<path fill="none" stroke="black" d="M1246.78,-103.974C1237.02,-95.4813 1224.96,-84.9892 1213.22,-74.7733"/>
<polygon fill="black" stroke="black" points="1215.41,-72.0468 1205.57,-68.1236 1210.82,-77.3279 1215.41,-72.0468"/>
</g>
<!-- 25 -->
<g id="node26" class="node"><title>25</title>
<path fill="#debfe6" stroke="black" d="M1418,-68C1418,-68 1279,-68 1279,-68 1273,-68 1267,-62 1267,-56 1267,-56 1267,-12 1267,-12 1267,-6 1273,-0 1279,-0 1279,-0 1418,-0 1418,-0 1424,-0 1430,-6 1430,-12 1430,-12 1430,-56 1430,-56 1430,-62 1424,-68 1418,-68"/>
<text text-anchor="middle" x="1348.5" y="-52.8" font-family="Times,serif" font-size="14.00">merge</text>
<text text-anchor="middle" x="1348.5" y="-37.8" font-family="Times,serif" font-size="14.00">EB1/C1</text>
<text text-anchor="middle" x="1348.5" y="-22.8" font-family="Times,serif" font-size="14.00">dilation rate: 1 &#160;&#160;k width: 3</text>
<text text-anchor="middle" x="1348.5" y="-7.8" font-family="Times,serif" font-size="14.00">n kernels: 64</text>
</g>
<!-- 14&#45;&gt;25 -->
<g id="edge25" class="edge"><title>14&#45;&gt;25</title>
<path fill="none" stroke="black" d="M1284.28,-103.974C1291.96,-95.724 1301.4,-85.5872 1310.65,-75.6496"/>
<polygon fill="black" stroke="black" points="1313.41,-77.8276 1317.66,-68.1236 1308.28,-73.0576 1313.41,-77.8276"/>
</g>
<!-- 26 -->
<g id="node27" class="node"><title>26</title>
<path fill="#f6d3ff" stroke="black" d="M1599,-68C1599,-68 1460,-68 1460,-68 1454,-68 1448,-62 1448,-56 1448,-56 1448,-12 1448,-12 1448,-6 1454,-0 1460,-0 1460,-0 1599,-0 1599,-0 1605,-0 1611,-6 1611,-12 1611,-12 1611,-56 1611,-56 1611,-62 1605,-68 1599,-68"/>
<text text-anchor="middle" x="1529.5" y="-52.8" font-family="Times,serif" font-size="14.00">forward</text>
<text text-anchor="middle" x="1529.5" y="-37.8" font-family="Times,serif" font-size="14.00">DB1/C0</text>
<text text-anchor="middle" x="1529.5" y="-22.8" font-family="Times,serif" font-size="14.00">dilation rate: 1 &#160;&#160;k width: 3</text>
<text text-anchor="middle" x="1529.5" y="-7.8" font-family="Times,serif" font-size="14.00">n kernels: 64</text>
</g>
<!-- 15&#45;&gt;26 -->
<g id="edge26" class="edge"><title>15&#45;&gt;26</title>
<path fill="none" stroke="black" d="M1452.6,-103.974C1461.98,-95.5622 1473.54,-85.1889 1484.83,-75.0653"/>
<polygon fill="black" stroke="black" points="1487.46,-77.4061 1492.57,-68.1236 1482.79,-72.195 1487.46,-77.4061"/>
</g>
<!-- 27 -->
<g id="node28" class="node"><title>27</title>
<path fill="#f6d3ff" stroke="black" d="M1780,-68C1780,-68 1641,-68 1641,-68 1635,-68 1629,-62 1629,-56 1629,-56 1629,-12 1629,-12 1629,-6 1635,-0 1641,-0 1641,-0 1780,-0 1780,-0 1786,-0 1792,-6 1792,-12 1792,-12 1792,-56 1792,-56 1792,-62 1786,-68 1780,-68"/>
<text text-anchor="middle" x="1710.5" y="-52.8" font-family="Times,serif" font-size="14.00">forward</text>
<text text-anchor="middle" x="1710.5" y="-37.8" font-family="Times,serif" font-size="14.00">DB1/C1</text>
<text text-anchor="middle" x="1710.5" y="-22.8" font-family="Times,serif" font-size="14.00">dilation rate: 1 &#160;&#160;k width: 3</text>
<text text-anchor="middle" x="1710.5" y="-7.8" font-family="Times,serif" font-size="14.00">n kernels: 64</text>
</g>
<!-- 16&#45;&gt;27 -->
<g id="edge27" class="edge"><title>16&#45;&gt;27</title>
<path fill="none" stroke="black" d="M1760.45,-103.974C1754.59,-95.8857 1747.42,-85.9839 1740.36,-76.2343"/>
<polygon fill="black" stroke="black" points="1743.19,-74.1703 1734.49,-68.1236 1737.52,-78.2759 1743.19,-74.1703"/>
</g>
<!-- 28 -->
<g id="node29" class="node"><title>28</title>
<path fill="#debfe6" stroke="black" d="M1961,-68C1961,-68 1822,-68 1822,-68 1816,-68 1810,-62 1810,-56 1810,-56 1810,-12 1810,-12 1810,-6 1816,-0 1822,-0 1822,-0 1961,-0 1961,-0 1967,-0 1973,-6 1973,-12 1973,-12 1973,-56 1973,-56 1973,-62 1967,-68 1961,-68"/>
<text text-anchor="middle" x="1891.5" y="-52.8" font-family="Times,serif" font-size="14.00">merge</text>
<text text-anchor="middle" x="1891.5" y="-37.8" font-family="Times,serif" font-size="14.00">EB0/C1</text>
<text text-anchor="middle" x="1891.5" y="-22.8" font-family="Times,serif" font-size="14.00">dilation rate: 1 &#160;&#160;k width: 3</text>
<text text-anchor="middle" x="1891.5" y="-7.8" font-family="Times,serif" font-size="14.00">n kernels: 64</text>
</g>
<!-- 16&#45;&gt;28 -->
<g id="edge28" class="edge"><title>16&#45;&gt;28</title>
<path fill="none" stroke="black" d="M1797.95,-103.974C1809.69,-95.3196 1824.24,-84.5888 1838.35,-74.1898"/>
<polygon fill="black" stroke="black" points="1840.6,-76.8751 1846.57,-68.1236 1836.45,-71.2409 1840.6,-76.8751"/>
</g>
<!-- 29 -->
<g id="node30" class="node"><title>29</title>
<path fill="#f6d3ff" stroke="black" d="M2142,-68C2142,-68 2003,-68 2003,-68 1997,-68 1991,-62 1991,-56 1991,-56 1991,-12 1991,-12 1991,-6 1997,-0 2003,-0 2003,-0 2142,-0 2142,-0 2148,-0 2154,-6 2154,-12 2154,-12 2154,-56 2154,-56 2154,-62 2148,-68 2142,-68"/>
<text text-anchor="middle" x="2072.5" y="-52.8" font-family="Times,serif" font-size="14.00">forward</text>
<text text-anchor="middle" x="2072.5" y="-37.8" font-family="Times,serif" font-size="14.00">DB0/C0</text>
<text text-anchor="middle" x="2072.5" y="-22.8" font-family="Times,serif" font-size="14.00">dilation rate: 1 &#160;&#160;k width: 3</text>
<text text-anchor="middle" x="2072.5" y="-7.8" font-family="Times,serif" font-size="14.00">n kernels: 64</text>
</g>
<!-- 17&#45;&gt;29 -->
<g id="edge29" class="edge"><title>17&#45;&gt;29</title>
<path fill="none" stroke="black" d="M2021.76,-103.974C2027.71,-95.8857 2034.99,-85.9839 2042.17,-76.2343"/>
<polygon fill="black" stroke="black" points="2045.03,-78.2529 2048.13,-68.1236 2039.39,-74.1049 2045.03,-78.2529"/>
</g>
</g>
</svg>
