<?xml version="1.0" encoding="UTF-8" standalone="no"?>
<!DOCTYPE svg PUBLIC "-//W3C//DTD SVG 1.1//EN"
 "http://www.w3.org/Graphics/SVG/1.1/DTD/svg11.dtd">
<!-- Generated by graphviz version 2.38.0 (20140413.2041)
 -->
<!-- Title: %3 Pages: 1 -->
<svg width="3183pt" height="387pt"
 viewBox="0.00 0.00 3182.50 387.00" xmlns="http://www.w3.org/2000/svg" xmlns:xlink="http://www.w3.org/1999/xlink">
<g id="graph0" class="graph" transform="scale(1 1) rotate(0) translate(4 383)">
<title>%3</title>
<polygon fill="none" stroke="none" points="-4,4 -4,-383 3178.5,-383 3178.5,4 -4,4"/>
<!-- 0 -->
<g id="node1" class="node"><title>0</title>
<path fill="#ffd3d3" stroke="black" d="M1528,-379C1528,-379 1465,-379 1465,-379 1459,-379 1453,-373 1453,-367 1453,-367 1453,-353 1453,-353 1453,-347 1459,-341 1465,-341 1465,-341 1528,-341 1528,-341 1534,-341 1540,-347 1540,-353 1540,-353 1540,-367 1540,-367 1540,-373 1534,-379 1528,-379"/>
<text text-anchor="middle" x="1496.5" y="-363.8" font-family="Times,serif" font-size="14.00">net</text>
<text text-anchor="middle" x="1496.5" y="-348.8" font-family="Times,serif" font-size="14.00">n kernels: 65</text>
</g>
<!-- 1 -->
<g id="node2" class="node"><title>1</title>
<path fill="#f6ffd3" stroke="black" d="M1139,-297.5C1139,-297.5 880,-297.5 880,-297.5 874,-297.5 868,-291.5 868,-285.5 868,-285.5 868,-271.5 868,-271.5 868,-265.5 874,-259.5 880,-259.5 880,-259.5 1139,-259.5 1139,-259.5 1145,-259.5 1151,-265.5 1151,-271.5 1151,-271.5 1151,-285.5 1151,-285.5 1151,-291.5 1145,-297.5 1139,-297.5"/>
<text text-anchor="middle" x="1009.5" y="-282.3" font-family="Times,serif" font-size="14.00">encoder</text>
<text text-anchor="middle" x="1009.5" y="-267.3" font-family="Times,serif" font-size="14.00">log gamma1: 0.221755 &#160;&#160;log gamma2: 0.417774</text>
</g>
<!-- 0&#45;&gt;1 -->
<g id="edge1" class="edge"><title>0&#45;&gt;1</title>
<path fill="none" stroke="black" d="M1452.85,-351.875C1380.93,-340.134 1235.05,-316.32 1130.25,-299.212"/>
<polygon fill="black" stroke="black" points="1130.68,-295.735 1120.24,-297.578 1129.55,-302.644 1130.68,-295.735"/>
</g>
<!-- 2 -->
<g id="node3" class="node"><title>2</title>
<path fill="#f6ffd3" stroke="black" d="M2117.5,-305C2117.5,-305 1849.5,-305 1849.5,-305 1843.5,-305 1837.5,-299 1837.5,-293 1837.5,-293 1837.5,-264 1837.5,-264 1837.5,-258 1843.5,-252 1849.5,-252 1849.5,-252 2117.5,-252 2117.5,-252 2123.5,-252 2129.5,-258 2129.5,-264 2129.5,-264 2129.5,-293 2129.5,-293 2129.5,-299 2123.5,-305 2117.5,-305"/>
<text text-anchor="middle" x="1983.5" y="-289.8" font-family="Times,serif" font-size="14.00">decoder</text>
<text text-anchor="middle" x="1983.5" y="-274.8" font-family="Times,serif" font-size="14.00">log gamma1: &#45;0.216423 &#160;&#160;log gamma2: &#45;0.443556</text>
<text text-anchor="middle" x="1983.5" y="-259.8" font-family="Times,serif" font-size="14.00">n kernels: 3 &#160;&#160;pooling type: &#45;1</text>
</g>
<!-- 0&#45;&gt;2 -->
<g id="edge2" class="edge"><title>0&#45;&gt;2</title>
<path fill="none" stroke="black" d="M1540.15,-351.875C1604.31,-341.4 1727.35,-321.315 1827.56,-304.956"/>
<polygon fill="black" stroke="black" points="1828.19,-308.4 1837.49,-303.335 1827.06,-301.492 1828.19,-308.4"/>
</g>
<!-- 3 -->
<g id="node4" class="node"><title>3</title>
<path fill="#d3ffe4" stroke="black" d="M593.5,-216C593.5,-216 393.5,-216 393.5,-216 387.5,-216 381.5,-210 381.5,-204 381.5,-204 381.5,-175 381.5,-175 381.5,-169 387.5,-163 393.5,-163 393.5,-163 593.5,-163 593.5,-163 599.5,-163 605.5,-169 605.5,-175 605.5,-175 605.5,-204 605.5,-204 605.5,-210 599.5,-216 593.5,-216"/>
<text text-anchor="middle" x="493.5" y="-200.8" font-family="Times,serif" font-size="14.00">encode block 0</text>
<text text-anchor="middle" x="493.5" y="-185.8" font-family="Times,serif" font-size="14.00">log gamma1: &#45;0.386016 &#160;&#160;n kernels: 1</text>
<text text-anchor="middle" x="493.5" y="-170.8" font-family="Times,serif" font-size="14.00">pooling type: 1</text>
</g>
<!-- 1&#45;&gt;3 -->
<g id="edge3" class="edge"><title>1&#45;&gt;3</title>
<path fill="none" stroke="black" d="M902.584,-259.474C819.018,-245.384 702.8,-225.789 615.584,-211.084"/>
<polygon fill="black" stroke="black" points="616.076,-207.618 605.633,-209.406 614.912,-214.52 616.076,-207.618"/>
</g>
<!-- 4 -->
<g id="node5" class="node"><title>4</title>
<path fill="#bfe6cf" stroke="black" d="M1112.5,-216C1112.5,-216 906.5,-216 906.5,-216 900.5,-216 894.5,-210 894.5,-204 894.5,-204 894.5,-175 894.5,-175 894.5,-169 900.5,-163 906.5,-163 906.5,-163 1112.5,-163 1112.5,-163 1118.5,-163 1124.5,-169 1124.5,-175 1124.5,-175 1124.5,-204 1124.5,-204 1124.5,-210 1118.5,-216 1112.5,-216"/>
<text text-anchor="middle" x="1009.5" y="-200.8" font-family="Times,serif" font-size="14.00">encode block 1</text>
<text text-anchor="middle" x="1009.5" y="-185.8" font-family="Times,serif" font-size="14.00">log gamma1: 0.097582 &#160;&#160;n kernels: &#45;10</text>
<text text-anchor="middle" x="1009.5" y="-170.8" font-family="Times,serif" font-size="14.00">spatial scale: 1</text>
</g>
<!-- 1&#45;&gt;4 -->
<g id="edge4" class="edge"><title>1&#45;&gt;4</title>
<path fill="none" stroke="black" d="M1009.5,-259.474C1009.5,-249.871 1009.5,-237.711 1009.5,-226.285"/>
<polygon fill="black" stroke="black" points="1013,-226.092 1009.5,-216.092 1006,-226.092 1013,-226.092"/>
</g>
<!-- 5 -->
<g id="node6" class="node"><title>5</title>
<path fill="#d3ffe4" stroke="black" d="M1887.5,-216C1887.5,-216 1687.5,-216 1687.5,-216 1681.5,-216 1675.5,-210 1675.5,-204 1675.5,-204 1675.5,-175 1675.5,-175 1675.5,-169 1681.5,-163 1687.5,-163 1687.5,-163 1887.5,-163 1887.5,-163 1893.5,-163 1899.5,-169 1899.5,-175 1899.5,-175 1899.5,-204 1899.5,-204 1899.5,-210 1893.5,-216 1887.5,-216"/>
<text text-anchor="middle" x="1787.5" y="-200.8" font-family="Times,serif" font-size="14.00">decode block 2</text>
<text text-anchor="middle" x="1787.5" y="-185.8" font-family="Times,serif" font-size="14.00">log gamma1: &#45;0.115886 &#160;&#160;n kernels: 5</text>
<text text-anchor="middle" x="1787.5" y="-170.8" font-family="Times,serif" font-size="14.00">pooling type: 1 &#160;&#160;spatial scale: 2</text>
</g>
<!-- 2&#45;&gt;5 -->
<g id="edge5" class="edge"><title>2&#45;&gt;5</title>
<path fill="none" stroke="black" d="M1926.02,-251.985C1903.48,-241.981 1877.47,-230.438 1854.12,-220.073"/>
<polygon fill="black" stroke="black" points="1855.54,-216.873 1844.98,-216.015 1852.7,-223.271 1855.54,-216.873"/>
</g>
<!-- 6 -->
<g id="node7" class="node"><title>6</title>
<path fill="#bfe6cf" stroke="black" d="M2311,-216C2311,-216 2048,-216 2048,-216 2042,-216 2036,-210 2036,-204 2036,-204 2036,-175 2036,-175 2036,-169 2042,-163 2048,-163 2048,-163 2311,-163 2311,-163 2317,-163 2323,-169 2323,-175 2323,-175 2323,-204 2323,-204 2323,-210 2317,-216 2311,-216"/>
<text text-anchor="middle" x="2179.5" y="-200.8" font-family="Times,serif" font-size="14.00">decode block 1</text>
<text text-anchor="middle" x="2179.5" y="-185.8" font-family="Times,serif" font-size="14.00">log gamma1: &#45;0.127480 &#160;&#160;log gamma2: 0.048816</text>
<text text-anchor="middle" x="2179.5" y="-170.8" font-family="Times,serif" font-size="14.00">n kernels: 2 &#160;&#160;spatial scale: 1</text>
</g>
<!-- 2&#45;&gt;6 -->
<g id="edge6" class="edge"><title>2&#45;&gt;6</title>
<path fill="none" stroke="black" d="M2040.98,-251.985C2063.52,-241.981 2089.53,-230.438 2112.88,-220.073"/>
<polygon fill="black" stroke="black" points="2114.3,-223.271 2122.02,-216.015 2111.46,-216.873 2114.3,-223.271"/>
</g>
<!-- 7 -->
<g id="node8" class="node"><title>7</title>
<path fill="#abceb9" stroke="black" d="M2937,-216C2937,-216 2674,-216 2674,-216 2668,-216 2662,-210 2662,-204 2662,-204 2662,-175 2662,-175 2662,-169 2668,-163 2674,-163 2674,-163 2937,-163 2937,-163 2943,-163 2949,-169 2949,-175 2949,-175 2949,-204 2949,-204 2949,-210 2943,-216 2937,-216"/>
<text text-anchor="middle" x="2805.5" y="-200.8" font-family="Times,serif" font-size="14.00">decode block 0</text>
<text text-anchor="middle" x="2805.5" y="-185.8" font-family="Times,serif" font-size="14.00">log gamma1: &#45;0.153653 &#160;&#160;log gamma2: 0.379915</text>
<text text-anchor="middle" x="2805.5" y="-170.8" font-family="Times,serif" font-size="14.00">n kernels: 8</text>
</g>
<!-- 2&#45;&gt;7 -->
<g id="edge7" class="edge"><title>2&#45;&gt;7</title>
<path fill="none" stroke="black" d="M2129.51,-262.046C2276.42,-246.498 2502.07,-222.615 2651.69,-206.779"/>
<polygon fill="black" stroke="black" points="2652.31,-210.234 2661.88,-205.7 2651.57,-203.272 2652.31,-210.234"/>
</g>
<!-- 8 -->
<g id="node9" class="node"><title>8</title>
<path fill="#d3e4ff" stroke="black" d="M271,-119.5C271,-119.5 12,-119.5 12,-119.5 6,-119.5 0,-113.5 0,-107.5 0,-107.5 0,-93.5 0,-93.5 0,-87.5 6,-81.5 12,-81.5 12,-81.5 271,-81.5 271,-81.5 277,-81.5 283,-87.5 283,-93.5 283,-93.5 283,-107.5 283,-107.5 283,-113.5 277,-119.5 271,-119.5"/>
<text text-anchor="middle" x="141.5" y="-104.3" font-family="Times,serif" font-size="14.00">comp 0</text>
<text text-anchor="middle" x="141.5" y="-89.3" font-family="Times,serif" font-size="14.00">log gamma1: 0.104726 &#160;&#160;log gamma2: 0.006408</text>
</g>
<!-- 3&#45;&gt;8 -->
<g id="edge8" class="edge"><title>3&#45;&gt;8</title>
<path fill="none" stroke="black" d="M390.267,-162.985C337.396,-149.917 273.892,-134.222 224.28,-121.96"/>
<polygon fill="black" stroke="black" points="225.098,-118.557 214.55,-119.555 223.418,-125.352 225.098,-118.557"/>
</g>
<!-- 9 -->
<g id="node10" class="node"><title>9</title>
<path fill="#bfcfe6" stroke="black" d="M513.5,-127C513.5,-127 313.5,-127 313.5,-127 307.5,-127 301.5,-121 301.5,-115 301.5,-115 301.5,-86 301.5,-86 301.5,-80 307.5,-74 313.5,-74 313.5,-74 513.5,-74 513.5,-74 519.5,-74 525.5,-80 525.5,-86 525.5,-86 525.5,-115 525.5,-115 525.5,-121 519.5,-127 513.5,-127"/>
<text text-anchor="middle" x="413.5" y="-111.8" font-family="Times,serif" font-size="14.00">comp 1</text>
<text text-anchor="middle" x="413.5" y="-96.8" font-family="Times,serif" font-size="14.00">log gamma1: 0.366492 &#160;&#160;n kernels: &#45;7</text>
<text text-anchor="middle" x="413.5" y="-81.8" font-family="Times,serif" font-size="14.00">pooling type: 1</text>
</g>
<!-- 3&#45;&gt;9 -->
<g id="edge9" class="edge"><title>3&#45;&gt;9</title>
<path fill="none" stroke="black" d="M469.93,-162.868C461.864,-154.096 452.72,-144.152 444.176,-134.86"/>
<polygon fill="black" stroke="black" points="446.523,-132.242 437.178,-127.25 441.37,-136.98 446.523,-132.242"/>
</g>
<!-- 10 -->
<g id="node11" class="node"><title>10</title>
<path fill="#abb9ce" stroke="black" d="M589.5,-118.5C589.5,-118.5 555.5,-118.5 555.5,-118.5 549.5,-118.5 543.5,-112.5 543.5,-106.5 543.5,-106.5 543.5,-94.5 543.5,-94.5 543.5,-88.5 549.5,-82.5 555.5,-82.5 555.5,-82.5 589.5,-82.5 589.5,-82.5 595.5,-82.5 601.5,-88.5 601.5,-94.5 601.5,-94.5 601.5,-106.5 601.5,-106.5 601.5,-112.5 595.5,-118.5 589.5,-118.5"/>
<text text-anchor="middle" x="572.5" y="-96.8" font-family="Times,serif" font-size="14.00">identity</text>
</g>
<!-- 3&#45;&gt;10 -->
<g id="edge10" class="edge"><title>3&#45;&gt;10</title>
<path fill="none" stroke="black" d="M516.775,-162.868C527.278,-151.302 539.632,-137.696 550.036,-126.239"/>
<polygon fill="black" stroke="black" points="552.749,-128.458 556.88,-118.701 547.567,-123.752 552.749,-128.458"/>
</g>
<!-- 11 -->
<g id="node12" class="node"><title>11</title>
<path fill="#d3e4ff" stroke="black" d="M835.5,-119.5C835.5,-119.5 631.5,-119.5 631.5,-119.5 625.5,-119.5 619.5,-113.5 619.5,-107.5 619.5,-107.5 619.5,-93.5 619.5,-93.5 619.5,-87.5 625.5,-81.5 631.5,-81.5 631.5,-81.5 835.5,-81.5 835.5,-81.5 841.5,-81.5 847.5,-87.5 847.5,-93.5 847.5,-93.5 847.5,-107.5 847.5,-107.5 847.5,-113.5 841.5,-119.5 835.5,-119.5"/>
<text text-anchor="middle" x="733.5" y="-104.3" font-family="Times,serif" font-size="14.00">comp 0</text>
<text text-anchor="middle" x="733.5" y="-89.3" font-family="Times,serif" font-size="14.00">log gamma1: &#45;0.035469 &#160;&#160;n kernels: &#45;9</text>
</g>
<!-- 4&#45;&gt;11 -->
<g id="edge11" class="edge"><title>4&#45;&gt;11</title>
<path fill="none" stroke="black" d="M928.556,-162.985C887.791,-150.135 838.965,-134.744 800.361,-122.576"/>
<polygon fill="black" stroke="black" points="801.367,-119.223 790.778,-119.555 799.263,-125.899 801.367,-119.223"/>
</g>
<!-- 12 -->
<g id="node13" class="node"><title>12</title>
<path fill="#bfcfe6" stroke="black" d="M1141,-127C1141,-127 878,-127 878,-127 872,-127 866,-121 866,-115 866,-115 866,-86 866,-86 866,-80 872,-74 878,-74 878,-74 1141,-74 1141,-74 1147,-74 1153,-80 1153,-86 1153,-86 1153,-115 1153,-115 1153,-121 1147,-127 1141,-127"/>
<text text-anchor="middle" x="1009.5" y="-111.8" font-family="Times,serif" font-size="14.00">comp 1</text>
<text text-anchor="middle" x="1009.5" y="-96.8" font-family="Times,serif" font-size="14.00">log gamma1: 0.173467 &#160;&#160;log gamma2: &#45;0.449522</text>
<text text-anchor="middle" x="1009.5" y="-81.8" font-family="Times,serif" font-size="14.00">n kernels: 3</text>
</g>
<!-- 4&#45;&gt;12 -->
<g id="edge12" class="edge"><title>4&#45;&gt;12</title>
<path fill="none" stroke="black" d="M1009.5,-162.868C1009.5,-154.886 1009.5,-145.932 1009.5,-137.384"/>
<polygon fill="black" stroke="black" points="1013,-137.25 1009.5,-127.25 1006,-137.25 1013,-137.25"/>
</g>
<!-- 13 -->
<g id="node14" class="node"><title>13</title>
<path fill="#abb9ce" stroke="black" d="M1217.5,-118.5C1217.5,-118.5 1183.5,-118.5 1183.5,-118.5 1177.5,-118.5 1171.5,-112.5 1171.5,-106.5 1171.5,-106.5 1171.5,-94.5 1171.5,-94.5 1171.5,-88.5 1177.5,-82.5 1183.5,-82.5 1183.5,-82.5 1217.5,-82.5 1217.5,-82.5 1223.5,-82.5 1229.5,-88.5 1229.5,-94.5 1229.5,-94.5 1229.5,-106.5 1229.5,-106.5 1229.5,-112.5 1223.5,-118.5 1217.5,-118.5"/>
<text text-anchor="middle" x="1200.5" y="-96.8" font-family="Times,serif" font-size="14.00">identity</text>
</g>
<!-- 4&#45;&gt;13 -->
<g id="edge13" class="edge"><title>4&#45;&gt;13</title>
<path fill="none" stroke="black" d="M1080.79,-162.966C1106.7,-152.828 1135.89,-140.388 1161.5,-127 1163.27,-126.072 1165.07,-125.086 1166.87,-124.06"/>
<polygon fill="black" stroke="black" points="1169,-126.86 1175.76,-118.701 1165.39,-120.865 1169,-126.86"/>
</g>
<!-- 14 -->
<g id="node15" class="node"><title>14</title>
<path fill="#d3e4ff" stroke="black" d="M1519,-127C1519,-127 1260,-127 1260,-127 1254,-127 1248,-121 1248,-115 1248,-115 1248,-86 1248,-86 1248,-80 1254,-74 1260,-74 1260,-74 1519,-74 1519,-74 1525,-74 1531,-80 1531,-86 1531,-86 1531,-115 1531,-115 1531,-121 1525,-127 1519,-127"/>
<text text-anchor="middle" x="1389.5" y="-111.8" font-family="Times,serif" font-size="14.00">comp 0</text>
<text text-anchor="middle" x="1389.5" y="-96.8" font-family="Times,serif" font-size="14.00">log gamma1: 0.244603 &#160;&#160;log gamma2: 0.098256</text>
<text text-anchor="middle" x="1389.5" y="-81.8" font-family="Times,serif" font-size="14.00">n kernels: &#45;10 &#160;&#160;pooling type: 1</text>
</g>
<!-- 5&#45;&gt;14 -->
<g id="edge14" class="edge"><title>5&#45;&gt;14</title>
<path fill="none" stroke="black" d="M1675.31,-163.976C1625.74,-153.141 1567.24,-140.353 1516.12,-129.178"/>
<polygon fill="black" stroke="black" points="1516.85,-125.754 1506.33,-127.038 1515.35,-132.593 1516.85,-125.754"/>
</g>
<!-- 15 -->
<g id="node16" class="node"><title>15</title>
<path fill="#bfcfe6" stroke="black" d="M1824,-119.5C1824,-119.5 1561,-119.5 1561,-119.5 1555,-119.5 1549,-113.5 1549,-107.5 1549,-107.5 1549,-93.5 1549,-93.5 1549,-87.5 1555,-81.5 1561,-81.5 1561,-81.5 1824,-81.5 1824,-81.5 1830,-81.5 1836,-87.5 1836,-93.5 1836,-93.5 1836,-107.5 1836,-107.5 1836,-113.5 1830,-119.5 1824,-119.5"/>
<text text-anchor="middle" x="1692.5" y="-104.3" font-family="Times,serif" font-size="14.00">comp 1</text>
<text text-anchor="middle" x="1692.5" y="-89.3" font-family="Times,serif" font-size="14.00">log gamma1: 0.404665 &#160;&#160;log gamma2: &#45;0.154698</text>
</g>
<!-- 5&#45;&gt;15 -->
<g id="edge15" class="edge"><title>5&#45;&gt;15</title>
<path fill="none" stroke="black" d="M1759.51,-162.868C1746.91,-151.328 1732.09,-137.759 1719.6,-126.318"/>
<polygon fill="black" stroke="black" points="1721.9,-123.679 1712.16,-119.507 1717.17,-128.842 1721.9,-123.679"/>
</g>
<!-- 16 -->
<g id="node17" class="node"><title>16</title>
<path fill="#abb9ce" stroke="black" d="M1900.5,-118.5C1900.5,-118.5 1866.5,-118.5 1866.5,-118.5 1860.5,-118.5 1854.5,-112.5 1854.5,-106.5 1854.5,-106.5 1854.5,-94.5 1854.5,-94.5 1854.5,-88.5 1860.5,-82.5 1866.5,-82.5 1866.5,-82.5 1900.5,-82.5 1900.5,-82.5 1906.5,-82.5 1912.5,-88.5 1912.5,-94.5 1912.5,-94.5 1912.5,-106.5 1912.5,-106.5 1912.5,-112.5 1906.5,-118.5 1900.5,-118.5"/>
<text text-anchor="middle" x="1883.5" y="-96.8" font-family="Times,serif" font-size="14.00">identity</text>
</g>
<!-- 5&#45;&gt;16 -->
<g id="edge16" class="edge"><title>5&#45;&gt;16</title>
<path fill="none" stroke="black" d="M1815.78,-162.868C1828.79,-151.079 1844.14,-137.172 1856.93,-125.58"/>
<polygon fill="black" stroke="black" points="1859.46,-128.01 1864.52,-118.701 1854.76,-122.823 1859.46,-128.01"/>
</g>
<!-- 17 -->
<g id="node18" class="node"><title>17</title>
<path fill="#d3e4ff" stroke="black" d="M2142.5,-127C2142.5,-127 1942.5,-127 1942.5,-127 1936.5,-127 1930.5,-121 1930.5,-115 1930.5,-115 1930.5,-86 1930.5,-86 1930.5,-80 1936.5,-74 1942.5,-74 1942.5,-74 2142.5,-74 2142.5,-74 2148.5,-74 2154.5,-80 2154.5,-86 2154.5,-86 2154.5,-115 2154.5,-115 2154.5,-121 2148.5,-127 2142.5,-127"/>
<text text-anchor="middle" x="2042.5" y="-111.8" font-family="Times,serif" font-size="14.00">comp 0</text>
<text text-anchor="middle" x="2042.5" y="-96.8" font-family="Times,serif" font-size="14.00">log gamma2: 0.377335 &#160;&#160;n kernels: &#45;5</text>
<text text-anchor="middle" x="2042.5" y="-81.8" font-family="Times,serif" font-size="14.00">pooling type: &#45;1</text>
</g>
<!-- 6&#45;&gt;17 -->
<g id="edge17" class="edge"><title>6&#45;&gt;17</title>
<path fill="none" stroke="black" d="M2139.14,-162.868C2124.22,-153.394 2107.15,-142.553 2091.54,-132.644"/>
<polygon fill="black" stroke="black" points="2093.37,-129.656 2083.05,-127.25 2089.61,-135.565 2093.37,-129.656"/>
</g>
<!-- 18 -->
<g id="node19" class="node"><title>18</title>
<path fill="#bfcfe6" stroke="black" d="M2448,-127C2448,-127 2185,-127 2185,-127 2179,-127 2173,-121 2173,-115 2173,-115 2173,-86 2173,-86 2173,-80 2179,-74 2185,-74 2185,-74 2448,-74 2448,-74 2454,-74 2460,-80 2460,-86 2460,-86 2460,-115 2460,-115 2460,-121 2454,-127 2448,-127"/>
<text text-anchor="middle" x="2316.5" y="-111.8" font-family="Times,serif" font-size="14.00">comp 1</text>
<text text-anchor="middle" x="2316.5" y="-96.8" font-family="Times,serif" font-size="14.00">log gamma1: &#45;0.333798 &#160;&#160;log gamma2: 0.319036</text>
<text text-anchor="middle" x="2316.5" y="-81.8" font-family="Times,serif" font-size="14.00">n kernels: &#45;3 &#160;&#160;pooling type: 1</text>
</g>
<!-- 6&#45;&gt;18 -->
<g id="edge18" class="edge"><title>6&#45;&gt;18</title>
<path fill="none" stroke="black" d="M2219.86,-162.868C2234.78,-153.394 2251.85,-142.553 2267.46,-132.644"/>
<polygon fill="black" stroke="black" points="2269.39,-135.565 2275.95,-127.25 2265.63,-129.656 2269.39,-135.565"/>
</g>
<!-- 19 -->
<g id="node20" class="node"><title>19</title>
<path fill="#abb9ce" stroke="black" d="M2524.5,-118.5C2524.5,-118.5 2490.5,-118.5 2490.5,-118.5 2484.5,-118.5 2478.5,-112.5 2478.5,-106.5 2478.5,-106.5 2478.5,-94.5 2478.5,-94.5 2478.5,-88.5 2484.5,-82.5 2490.5,-82.5 2490.5,-82.5 2524.5,-82.5 2524.5,-82.5 2530.5,-82.5 2536.5,-88.5 2536.5,-94.5 2536.5,-94.5 2536.5,-106.5 2536.5,-106.5 2536.5,-112.5 2530.5,-118.5 2524.5,-118.5"/>
<text text-anchor="middle" x="2507.5" y="-96.8" font-family="Times,serif" font-size="14.00">identity</text>
</g>
<!-- 6&#45;&gt;19 -->
<g id="edge19" class="edge"><title>6&#45;&gt;19</title>
<path fill="none" stroke="black" d="M2323.04,-168.778C2370.49,-159.44 2422.8,-146.02 2468.5,-127 2470.85,-126.021 2473.22,-124.897 2475.55,-123.678"/>
<polygon fill="black" stroke="black" points="2477.43,-126.636 2484.35,-118.615 2473.94,-120.568 2477.43,-126.636"/>
</g>
<!-- 20 -->
<g id="node21" class="node"><title>20</title>
<path fill="#d3e4ff" stroke="black" d="M2784.5,-119.5C2784.5,-119.5 2566.5,-119.5 2566.5,-119.5 2560.5,-119.5 2554.5,-113.5 2554.5,-107.5 2554.5,-107.5 2554.5,-93.5 2554.5,-93.5 2554.5,-87.5 2560.5,-81.5 2566.5,-81.5 2566.5,-81.5 2784.5,-81.5 2784.5,-81.5 2790.5,-81.5 2796.5,-87.5 2796.5,-93.5 2796.5,-93.5 2796.5,-107.5 2796.5,-107.5 2796.5,-113.5 2790.5,-119.5 2784.5,-119.5"/>
<text text-anchor="middle" x="2675.5" y="-104.3" font-family="Times,serif" font-size="14.00">comp 0</text>
<text text-anchor="middle" x="2675.5" y="-89.3" font-family="Times,serif" font-size="14.00">log gamma1: 0.171933 &#160;&#160;pooling type: &#45;1</text>
</g>
<!-- 7&#45;&gt;20 -->
<g id="edge20" class="edge"><title>7&#45;&gt;20</title>
<path fill="none" stroke="black" d="M2767.2,-162.868C2749.47,-151.002 2728.53,-136.989 2711.14,-125.352"/>
<polygon fill="black" stroke="black" points="2712.66,-122.16 2702.41,-119.507 2708.77,-127.977 2712.66,-122.16"/>
</g>
<!-- 21 -->
<g id="node22" class="node"><title>21</title>
<path fill="#bfcfe6" stroke="black" d="M3044.5,-119.5C3044.5,-119.5 2826.5,-119.5 2826.5,-119.5 2820.5,-119.5 2814.5,-113.5 2814.5,-107.5 2814.5,-107.5 2814.5,-93.5 2814.5,-93.5 2814.5,-87.5 2820.5,-81.5 2826.5,-81.5 2826.5,-81.5 3044.5,-81.5 3044.5,-81.5 3050.5,-81.5 3056.5,-87.5 3056.5,-93.5 3056.5,-93.5 3056.5,-107.5 3056.5,-107.5 3056.5,-113.5 3050.5,-119.5 3044.5,-119.5"/>
<text text-anchor="middle" x="2935.5" y="-104.3" font-family="Times,serif" font-size="14.00">comp 1</text>
<text text-anchor="middle" x="2935.5" y="-89.3" font-family="Times,serif" font-size="14.00">log gamma2: 0.282715 &#160;&#160;pooling type: &#45;1</text>
</g>
<!-- 7&#45;&gt;21 -->
<g id="edge21" class="edge"><title>7&#45;&gt;21</title>
<path fill="none" stroke="black" d="M2843.8,-162.868C2861.53,-151.002 2882.47,-136.989 2899.86,-125.352"/>
<polygon fill="black" stroke="black" points="2902.23,-127.977 2908.59,-119.507 2898.34,-122.16 2902.23,-127.977"/>
</g>
<!-- 22 -->
<g id="node23" class="node"><title>22</title>
<path fill="#abb9ce" stroke="black" d="M3120.5,-118.5C3120.5,-118.5 3086.5,-118.5 3086.5,-118.5 3080.5,-118.5 3074.5,-112.5 3074.5,-106.5 3074.5,-106.5 3074.5,-94.5 3074.5,-94.5 3074.5,-88.5 3080.5,-82.5 3086.5,-82.5 3086.5,-82.5 3120.5,-82.5 3120.5,-82.5 3126.5,-82.5 3132.5,-88.5 3132.5,-94.5 3132.5,-94.5 3132.5,-106.5 3132.5,-106.5 3132.5,-112.5 3126.5,-118.5 3120.5,-118.5"/>
<text text-anchor="middle" x="3103.5" y="-96.8" font-family="Times,serif" font-size="14.00">identity</text>
</g>
<!-- 7&#45;&gt;22 -->
<g id="edge22" class="edge"><title>7&#45;&gt;22</title>
<path fill="none" stroke="black" d="M2949.16,-164.194C2987.84,-155.068 3029.05,-142.915 3065.5,-127 3067.63,-126.07 3069.77,-125.02 3071.89,-123.889"/>
<polygon fill="black" stroke="black" points="3074.12,-126.635 3080.95,-118.536 3070.56,-120.607 3074.12,-126.635"/>
</g>
<!-- 23 -->
<g id="node24" class="node"><title>23</title>
<path fill="#f6d3ff" stroke="black" d="M159,-38C159,-38 124,-38 124,-38 118,-38 112,-32 112,-26 112,-26 112,-12 112,-12 112,-6 118,-0 124,-0 124,-0 159,-0 159,-0 165,-0 171,-6 171,-12 171,-12 171,-26 171,-26 171,-32 165,-38 159,-38"/>
<text text-anchor="middle" x="141.5" y="-22.8" font-family="Times,serif" font-size="14.00">forward</text>
<text text-anchor="middle" x="141.5" y="-7.8" font-family="Times,serif" font-size="14.00">input</text>
</g>
<!-- 8&#45;&gt;23 -->
<g id="edge23" class="edge"><title>8&#45;&gt;23</title>
<path fill="none" stroke="black" d="M141.5,-81.4602C141.5,-71.67 141.5,-59.3453 141.5,-48.3073"/>
<polygon fill="black" stroke="black" points="145,-48.2435 141.5,-38.2436 138,-48.2436 145,-48.2435"/>
</g>
<!-- 24 -->
<g id="node25" class="node"><title>24</title>
<path fill="#f6d3ff" stroke="black" d="M431.5,-38C431.5,-38 395.5,-38 395.5,-38 389.5,-38 383.5,-32 383.5,-26 383.5,-26 383.5,-12 383.5,-12 383.5,-6 389.5,-0 395.5,-0 395.5,-0 431.5,-0 431.5,-0 437.5,-0 443.5,-6 443.5,-12 443.5,-12 443.5,-26 443.5,-26 443.5,-32 437.5,-38 431.5,-38"/>
<text text-anchor="middle" x="413.5" y="-22.8" font-family="Times,serif" font-size="14.00">forward</text>
<text text-anchor="middle" x="413.5" y="-7.8" font-family="Times,serif" font-size="14.00">EB0/C0</text>
</g>
<!-- 9&#45;&gt;24 -->
<g id="edge24" class="edge"><title>9&#45;&gt;24</title>
<path fill="none" stroke="black" d="M413.5,-73.9081C413.5,-65.7377 413.5,-56.6492 413.5,-48.2981"/>
<polygon fill="black" stroke="black" points="417,-48.2389 413.5,-38.2389 410,-48.2389 417,-48.2389"/>
</g>
<!-- 25 -->
<g id="node26" class="node"><title>25</title>
<path fill="#f6d3ff" stroke="black" d="M551.5,-38C551.5,-38 515.5,-38 515.5,-38 509.5,-38 503.5,-32 503.5,-26 503.5,-26 503.5,-12 503.5,-12 503.5,-6 509.5,-0 515.5,-0 515.5,-0 551.5,-0 551.5,-0 557.5,-0 563.5,-6 563.5,-12 563.5,-12 563.5,-26 563.5,-26 563.5,-32 557.5,-38 551.5,-38"/>
<text text-anchor="middle" x="533.5" y="-22.8" font-family="Times,serif" font-size="14.00">residual</text>
<text text-anchor="middle" x="533.5" y="-7.8" font-family="Times,serif" font-size="14.00">EB0/C0</text>
</g>
<!-- 10&#45;&gt;25 -->
<g id="edge25" class="edge"><title>10&#45;&gt;25</title>
<path fill="none" stroke="black" d="M564.038,-82.2497C559.032,-72.0459 552.579,-58.8928 546.896,-47.3078"/>
<polygon fill="black" stroke="black" points="549.899,-45.4808 542.352,-38.0444 543.614,-48.5639 549.899,-45.4808"/>
</g>
<!-- 26 -->
<g id="node27" class="node"><title>26</title>
<path fill="#debfe6" stroke="black" d="M629.5,-38C629.5,-38 593.5,-38 593.5,-38 587.5,-38 581.5,-32 581.5,-26 581.5,-26 581.5,-12 581.5,-12 581.5,-6 587.5,-0 593.5,-0 593.5,-0 629.5,-0 629.5,-0 635.5,-0 641.5,-6 641.5,-12 641.5,-12 641.5,-26 641.5,-26 641.5,-32 635.5,-38 629.5,-38"/>
<text text-anchor="middle" x="611.5" y="-22.8" font-family="Times,serif" font-size="14.00">forward</text>
<text text-anchor="middle" x="611.5" y="-7.8" font-family="Times,serif" font-size="14.00">EB0/C1</text>
</g>
<!-- 10&#45;&gt;26 -->
<g id="edge26" class="edge"><title>10&#45;&gt;26</title>
<path fill="none" stroke="black" d="M580.962,-82.2497C585.968,-72.0459 592.421,-58.8928 598.104,-47.3078"/>
<polygon fill="black" stroke="black" points="601.386,-48.5639 602.648,-38.0444 595.101,-45.4808 601.386,-48.5639"/>
</g>
<!-- 27 -->
<g id="node28" class="node"><title>27</title>
<path fill="#f6d3ff" stroke="black" d="M751,-38C751,-38 716,-38 716,-38 710,-38 704,-32 704,-26 704,-26 704,-12 704,-12 704,-6 710,-0 716,-0 716,-0 751,-0 751,-0 757,-0 763,-6 763,-12 763,-12 763,-26 763,-26 763,-32 757,-38 751,-38"/>
<text text-anchor="middle" x="733.5" y="-22.8" font-family="Times,serif" font-size="14.00">forward</text>
<text text-anchor="middle" x="733.5" y="-7.8" font-family="Times,serif" font-size="14.00">EB0/I</text>
</g>
<!-- 11&#45;&gt;27 -->
<g id="edge27" class="edge"><title>11&#45;&gt;27</title>
<path fill="none" stroke="black" d="M733.5,-81.4602C733.5,-71.67 733.5,-59.3453 733.5,-48.3073"/>
<polygon fill="black" stroke="black" points="737,-48.2435 733.5,-38.2436 730,-48.2436 737,-48.2435"/>
</g>
<!-- 28 -->
<g id="node29" class="node"><title>28</title>
<path fill="#f6d3ff" stroke="black" d="M1027.5,-38C1027.5,-38 991.5,-38 991.5,-38 985.5,-38 979.5,-32 979.5,-26 979.5,-26 979.5,-12 979.5,-12 979.5,-6 985.5,-0 991.5,-0 991.5,-0 1027.5,-0 1027.5,-0 1033.5,-0 1039.5,-6 1039.5,-12 1039.5,-12 1039.5,-26 1039.5,-26 1039.5,-32 1033.5,-38 1027.5,-38"/>
<text text-anchor="middle" x="1009.5" y="-22.8" font-family="Times,serif" font-size="14.00">forward</text>
<text text-anchor="middle" x="1009.5" y="-7.8" font-family="Times,serif" font-size="14.00">EB1/C0</text>
</g>
<!-- 12&#45;&gt;28 -->
<g id="edge28" class="edge"><title>12&#45;&gt;28</title>
<path fill="none" stroke="black" d="M1009.5,-73.9081C1009.5,-65.7377 1009.5,-56.6492 1009.5,-48.2981"/>
<polygon fill="black" stroke="black" points="1013,-48.2389 1009.5,-38.2389 1006,-48.2389 1013,-48.2389"/>
</g>
<!-- 29 -->
<g id="node30" class="node"><title>29</title>
<path fill="#f6d3ff" stroke="black" d="M1179.5,-38C1179.5,-38 1143.5,-38 1143.5,-38 1137.5,-38 1131.5,-32 1131.5,-26 1131.5,-26 1131.5,-12 1131.5,-12 1131.5,-6 1137.5,-0 1143.5,-0 1143.5,-0 1179.5,-0 1179.5,-0 1185.5,-0 1191.5,-6 1191.5,-12 1191.5,-12 1191.5,-26 1191.5,-26 1191.5,-32 1185.5,-38 1179.5,-38"/>
<text text-anchor="middle" x="1161.5" y="-22.8" font-family="Times,serif" font-size="14.00">residual</text>
<text text-anchor="middle" x="1161.5" y="-7.8" font-family="Times,serif" font-size="14.00">EB1/C0</text>
</g>
<!-- 13&#45;&gt;29 -->
<g id="edge29" class="edge"><title>13&#45;&gt;29</title>
<path fill="none" stroke="black" d="M1192.04,-82.2497C1187.03,-72.0459 1180.58,-58.8928 1174.9,-47.3078"/>
<polygon fill="black" stroke="black" points="1177.9,-45.4808 1170.35,-38.0444 1171.61,-48.5639 1177.9,-45.4808"/>
</g>
<!-- 30 -->
<g id="node31" class="node"><title>30</title>
<path fill="#debfe6" stroke="black" d="M1257.5,-38C1257.5,-38 1221.5,-38 1221.5,-38 1215.5,-38 1209.5,-32 1209.5,-26 1209.5,-26 1209.5,-12 1209.5,-12 1209.5,-6 1215.5,-0 1221.5,-0 1221.5,-0 1257.5,-0 1257.5,-0 1263.5,-0 1269.5,-6 1269.5,-12 1269.5,-12 1269.5,-26 1269.5,-26 1269.5,-32 1263.5,-38 1257.5,-38"/>
<text text-anchor="middle" x="1239.5" y="-22.8" font-family="Times,serif" font-size="14.00">forward</text>
<text text-anchor="middle" x="1239.5" y="-7.8" font-family="Times,serif" font-size="14.00">EB1/C1</text>
</g>
<!-- 13&#45;&gt;30 -->
<g id="edge30" class="edge"><title>13&#45;&gt;30</title>
<path fill="none" stroke="black" d="M1208.96,-82.2497C1213.97,-72.0459 1220.42,-58.8928 1226.1,-47.3078"/>
<polygon fill="black" stroke="black" points="1229.39,-48.5639 1230.65,-38.0444 1223.1,-45.4808 1229.39,-48.5639"/>
</g>
<!-- 31 -->
<g id="node32" class="node"><title>31</title>
<path fill="#f6d3ff" stroke="black" d="M1407,-38C1407,-38 1372,-38 1372,-38 1366,-38 1360,-32 1360,-26 1360,-26 1360,-12 1360,-12 1360,-6 1366,-0 1372,-0 1372,-0 1407,-0 1407,-0 1413,-0 1419,-6 1419,-12 1419,-12 1419,-26 1419,-26 1419,-32 1413,-38 1407,-38"/>
<text text-anchor="middle" x="1389.5" y="-22.8" font-family="Times,serif" font-size="14.00">forward</text>
<text text-anchor="middle" x="1389.5" y="-7.8" font-family="Times,serif" font-size="14.00">EB1/I</text>
</g>
<!-- 14&#45;&gt;31 -->
<g id="edge31" class="edge"><title>14&#45;&gt;31</title>
<path fill="none" stroke="black" d="M1389.5,-73.9081C1389.5,-65.7377 1389.5,-56.6492 1389.5,-48.2981"/>
<polygon fill="black" stroke="black" points="1393,-48.2389 1389.5,-38.2389 1386,-48.2389 1393,-48.2389"/>
</g>
<!-- 32 -->
<g id="node33" class="node"><title>32</title>
<path fill="#f6d3ff" stroke="black" d="M1711.5,-38C1711.5,-38 1673.5,-38 1673.5,-38 1667.5,-38 1661.5,-32 1661.5,-26 1661.5,-26 1661.5,-12 1661.5,-12 1661.5,-6 1667.5,-0 1673.5,-0 1673.5,-0 1711.5,-0 1711.5,-0 1717.5,-0 1723.5,-6 1723.5,-12 1723.5,-12 1723.5,-26 1723.5,-26 1723.5,-32 1717.5,-38 1711.5,-38"/>
<text text-anchor="middle" x="1692.5" y="-22.8" font-family="Times,serif" font-size="14.00">forward</text>
<text text-anchor="middle" x="1692.5" y="-7.8" font-family="Times,serif" font-size="14.00">DB2/C0</text>
</g>
<!-- 15&#45;&gt;32 -->
<g id="edge32" class="edge"><title>15&#45;&gt;32</title>
<path fill="none" stroke="black" d="M1692.5,-81.4602C1692.5,-71.67 1692.5,-59.3453 1692.5,-48.3073"/>
<polygon fill="black" stroke="black" points="1696,-48.2435 1692.5,-38.2436 1689,-48.2436 1696,-48.2435"/>
</g>
<!-- 33 -->
<g id="node34" class="node"><title>33</title>
<path fill="#f6d3ff" stroke="black" d="M1824.5,-38C1824.5,-38 1786.5,-38 1786.5,-38 1780.5,-38 1774.5,-32 1774.5,-26 1774.5,-26 1774.5,-12 1774.5,-12 1774.5,-6 1780.5,-0 1786.5,-0 1786.5,-0 1824.5,-0 1824.5,-0 1830.5,-0 1836.5,-6 1836.5,-12 1836.5,-12 1836.5,-26 1836.5,-26 1836.5,-32 1830.5,-38 1824.5,-38"/>
<text text-anchor="middle" x="1805.5" y="-22.8" font-family="Times,serif" font-size="14.00">residual</text>
<text text-anchor="middle" x="1805.5" y="-7.8" font-family="Times,serif" font-size="14.00">DB2/C0</text>
</g>
<!-- 16&#45;&gt;33 -->
<g id="edge33" class="edge"><title>16&#45;&gt;33</title>
<path fill="none" stroke="black" d="M1866.58,-82.2497C1855.96,-71.4337 1842.1,-57.3038 1830.26,-45.2405"/>
<polygon fill="black" stroke="black" points="1832.71,-42.7314 1823.2,-38.0444 1827.71,-47.6338 1832.71,-42.7314"/>
</g>
<!-- 34 -->
<g id="node35" class="node"><title>34</title>
<path fill="#debfe6" stroke="black" d="M1904.5,-38C1904.5,-38 1866.5,-38 1866.5,-38 1860.5,-38 1854.5,-32 1854.5,-26 1854.5,-26 1854.5,-12 1854.5,-12 1854.5,-6 1860.5,-0 1866.5,-0 1866.5,-0 1904.5,-0 1904.5,-0 1910.5,-0 1916.5,-6 1916.5,-12 1916.5,-12 1916.5,-26 1916.5,-26 1916.5,-32 1910.5,-38 1904.5,-38"/>
<text text-anchor="middle" x="1885.5" y="-22.8" font-family="Times,serif" font-size="14.00">forward</text>
<text text-anchor="middle" x="1885.5" y="-7.8" font-family="Times,serif" font-size="14.00">DB2/C1</text>
</g>
<!-- 16&#45;&gt;34 -->
<g id="edge34" class="edge"><title>16&#45;&gt;34</title>
<path fill="none" stroke="black" d="M1883.93,-82.2497C1884.18,-72.352 1884.5,-59.6794 1884.79,-48.3546"/>
<polygon fill="black" stroke="black" points="1888.29,-48.1293 1885.05,-38.0444 1881.3,-47.9532 1888.29,-48.1293"/>
</g>
<!-- 35 -->
<g id="node36" class="node"><title>35</title>
<path fill="#f6d3ff" stroke="black" d="M2022,-38C2022,-38 1987,-38 1987,-38 1981,-38 1975,-32 1975,-26 1975,-26 1975,-12 1975,-12 1975,-6 1981,-0 1987,-0 1987,-0 2022,-0 2022,-0 2028,-0 2034,-6 2034,-12 2034,-12 2034,-26 2034,-26 2034,-32 2028,-38 2022,-38"/>
<text text-anchor="middle" x="2004.5" y="-22.8" font-family="Times,serif" font-size="14.00">forward</text>
<text text-anchor="middle" x="2004.5" y="-7.8" font-family="Times,serif" font-size="14.00">DB2/I</text>
</g>
<!-- 17&#45;&gt;35 -->
<g id="edge35" class="edge"><title>17&#45;&gt;35</title>
<path fill="none" stroke="black" d="M2030.27,-73.9081C2026.23,-65.4653 2021.73,-56.0423 2017.63,-47.4655"/>
<polygon fill="black" stroke="black" points="2020.69,-45.7518 2013.22,-38.2389 2014.37,-48.7706 2020.69,-45.7518"/>
</g>
<!-- 36 -->
<g id="node37" class="node"><title>36</title>
<path fill="#debfe6" stroke="black" d="M2094.5,-38C2094.5,-38 2064.5,-38 2064.5,-38 2058.5,-38 2052.5,-32 2052.5,-26 2052.5,-26 2052.5,-12 2052.5,-12 2052.5,-6 2058.5,-0 2064.5,-0 2064.5,-0 2094.5,-0 2094.5,-0 2100.5,-0 2106.5,-6 2106.5,-12 2106.5,-12 2106.5,-26 2106.5,-26 2106.5,-32 2100.5,-38 2094.5,-38"/>
<text text-anchor="middle" x="2079.5" y="-22.8" font-family="Times,serif" font-size="14.00">merge</text>
<text text-anchor="middle" x="2079.5" y="-7.8" font-family="Times,serif" font-size="14.00">EB1/I</text>
</g>
<!-- 17&#45;&gt;36 -->
<g id="edge36" class="edge"><title>17&#45;&gt;36</title>
<path fill="none" stroke="black" d="M2054.41,-73.9081C2058.34,-65.4653 2062.73,-56.0423 2066.72,-47.4655"/>
<polygon fill="black" stroke="black" points="2069.97,-48.782 2071.01,-38.2389 2063.62,-45.8283 2069.97,-48.782"/>
</g>
<!-- 37 -->
<g id="node38" class="node"><title>37</title>
<path fill="#f6d3ff" stroke="black" d="M2335.5,-38C2335.5,-38 2297.5,-38 2297.5,-38 2291.5,-38 2285.5,-32 2285.5,-26 2285.5,-26 2285.5,-12 2285.5,-12 2285.5,-6 2291.5,-0 2297.5,-0 2297.5,-0 2335.5,-0 2335.5,-0 2341.5,-0 2347.5,-6 2347.5,-12 2347.5,-12 2347.5,-26 2347.5,-26 2347.5,-32 2341.5,-38 2335.5,-38"/>
<text text-anchor="middle" x="2316.5" y="-22.8" font-family="Times,serif" font-size="14.00">forward</text>
<text text-anchor="middle" x="2316.5" y="-7.8" font-family="Times,serif" font-size="14.00">DB1/C0</text>
</g>
<!-- 18&#45;&gt;37 -->
<g id="edge37" class="edge"><title>18&#45;&gt;37</title>
<path fill="none" stroke="black" d="M2316.5,-73.9081C2316.5,-65.7377 2316.5,-56.6492 2316.5,-48.2981"/>
<polygon fill="black" stroke="black" points="2320,-48.2389 2316.5,-38.2389 2313,-48.2389 2320,-48.2389"/>
</g>
<!-- 38 -->
<g id="node39" class="node"><title>38</title>
<path fill="#f6d3ff" stroke="black" d="M2453.5,-38C2453.5,-38 2415.5,-38 2415.5,-38 2409.5,-38 2403.5,-32 2403.5,-26 2403.5,-26 2403.5,-12 2403.5,-12 2403.5,-6 2409.5,-0 2415.5,-0 2415.5,-0 2453.5,-0 2453.5,-0 2459.5,-0 2465.5,-6 2465.5,-12 2465.5,-12 2465.5,-26 2465.5,-26 2465.5,-32 2459.5,-38 2453.5,-38"/>
<text text-anchor="middle" x="2434.5" y="-22.8" font-family="Times,serif" font-size="14.00">residual</text>
<text text-anchor="middle" x="2434.5" y="-7.8" font-family="Times,serif" font-size="14.00">DB1/C0</text>
</g>
<!-- 19&#45;&gt;38 -->
<g id="edge38" class="edge"><title>19&#45;&gt;38</title>
<path fill="none" stroke="black" d="M2491.66,-82.2497C2481.82,-71.5357 2469,-57.5701 2457.99,-45.5824"/>
<polygon fill="black" stroke="black" points="2460.41,-43.043 2451.07,-38.0444 2455.25,-47.7775 2460.41,-43.043"/>
</g>
<!-- 39 -->
<g id="node40" class="node"><title>39</title>
<path fill="#debfe6" stroke="black" d="M2533.5,-38C2533.5,-38 2495.5,-38 2495.5,-38 2489.5,-38 2483.5,-32 2483.5,-26 2483.5,-26 2483.5,-12 2483.5,-12 2483.5,-6 2489.5,-0 2495.5,-0 2495.5,-0 2533.5,-0 2533.5,-0 2539.5,-0 2545.5,-6 2545.5,-12 2545.5,-12 2545.5,-26 2545.5,-26 2545.5,-32 2539.5,-38 2533.5,-38"/>
<text text-anchor="middle" x="2514.5" y="-22.8" font-family="Times,serif" font-size="14.00">forward</text>
<text text-anchor="middle" x="2514.5" y="-7.8" font-family="Times,serif" font-size="14.00">DB1/C1</text>
</g>
<!-- 19&#45;&gt;39 -->
<g id="edge39" class="edge"><title>19&#45;&gt;39</title>
<path fill="none" stroke="black" d="M2509.02,-82.2497C2509.89,-72.352 2511.01,-59.6794 2512,-48.3546"/>
<polygon fill="black" stroke="black" points="2515.52,-48.3129 2512.91,-38.0444 2508.55,-47.6989 2515.52,-48.3129"/>
</g>
<!-- 40 -->
<g id="node41" class="node"><title>40</title>
<path fill="#f6d3ff" stroke="black" d="M2655,-38C2655,-38 2620,-38 2620,-38 2614,-38 2608,-32 2608,-26 2608,-26 2608,-12 2608,-12 2608,-6 2614,-0 2620,-0 2620,-0 2655,-0 2655,-0 2661,-0 2667,-6 2667,-12 2667,-12 2667,-26 2667,-26 2667,-32 2661,-38 2655,-38"/>
<text text-anchor="middle" x="2637.5" y="-22.8" font-family="Times,serif" font-size="14.00">forward</text>
<text text-anchor="middle" x="2637.5" y="-7.8" font-family="Times,serif" font-size="14.00">DB1/I</text>
</g>
<!-- 20&#45;&gt;40 -->
<g id="edge40" class="edge"><title>20&#45;&gt;40</title>
<path fill="none" stroke="black" d="M2666.88,-81.4602C2662.05,-71.3672 2655.94,-58.5805 2650.54,-47.287"/>
<polygon fill="black" stroke="black" points="2653.69,-45.7565 2646.22,-38.2436 2647.37,-48.7753 2653.69,-45.7565"/>
</g>
<!-- 41 -->
<g id="node42" class="node"><title>41</title>
<path fill="#debfe6" stroke="black" d="M2727.5,-38C2727.5,-38 2697.5,-38 2697.5,-38 2691.5,-38 2685.5,-32 2685.5,-26 2685.5,-26 2685.5,-12 2685.5,-12 2685.5,-6 2691.5,-0 2697.5,-0 2697.5,-0 2727.5,-0 2727.5,-0 2733.5,-0 2739.5,-6 2739.5,-12 2739.5,-12 2739.5,-26 2739.5,-26 2739.5,-32 2733.5,-38 2727.5,-38"/>
<text text-anchor="middle" x="2712.5" y="-22.8" font-family="Times,serif" font-size="14.00">merge</text>
<text text-anchor="middle" x="2712.5" y="-7.8" font-family="Times,serif" font-size="14.00">EB0/I</text>
</g>
<!-- 20&#45;&gt;41 -->
<g id="edge41" class="edge"><title>20&#45;&gt;41</title>
<path fill="none" stroke="black" d="M2683.9,-81.4602C2688.55,-71.4682 2694.43,-58.8359 2699.64,-47.6262"/>
<polygon fill="black" stroke="black" points="2702.96,-48.7866 2704.01,-38.2436 2696.62,-45.8329 2702.96,-48.7866"/>
</g>
<!-- 42 -->
<g id="node43" class="node"><title>42</title>
<path fill="#f6d3ff" stroke="black" d="M2954.5,-38C2954.5,-38 2916.5,-38 2916.5,-38 2910.5,-38 2904.5,-32 2904.5,-26 2904.5,-26 2904.5,-12 2904.5,-12 2904.5,-6 2910.5,-0 2916.5,-0 2916.5,-0 2954.5,-0 2954.5,-0 2960.5,-0 2966.5,-6 2966.5,-12 2966.5,-12 2966.5,-26 2966.5,-26 2966.5,-32 2960.5,-38 2954.5,-38"/>
<text text-anchor="middle" x="2935.5" y="-22.8" font-family="Times,serif" font-size="14.00">forward</text>
<text text-anchor="middle" x="2935.5" y="-7.8" font-family="Times,serif" font-size="14.00">DB0/C0</text>
</g>
<!-- 21&#45;&gt;42 -->
<g id="edge42" class="edge"><title>21&#45;&gt;42</title>
<path fill="none" stroke="black" d="M2935.5,-81.4602C2935.5,-71.67 2935.5,-59.3453 2935.5,-48.3073"/>
<polygon fill="black" stroke="black" points="2939,-48.2435 2935.5,-38.2436 2932,-48.2436 2939,-48.2435"/>
</g>
<!-- 43 -->
<g id="node44" class="node"><title>43</title>
<path fill="#f6d3ff" stroke="black" d="M3082.5,-38C3082.5,-38 3044.5,-38 3044.5,-38 3038.5,-38 3032.5,-32 3032.5,-26 3032.5,-26 3032.5,-12 3032.5,-12 3032.5,-6 3038.5,-0 3044.5,-0 3044.5,-0 3082.5,-0 3082.5,-0 3088.5,-0 3094.5,-6 3094.5,-12 3094.5,-12 3094.5,-26 3094.5,-26 3094.5,-32 3088.5,-38 3082.5,-38"/>
<text text-anchor="middle" x="3063.5" y="-22.8" font-family="Times,serif" font-size="14.00">residual</text>
<text text-anchor="middle" x="3063.5" y="-7.8" font-family="Times,serif" font-size="14.00">DB0/C0</text>
</g>
<!-- 22&#45;&gt;43 -->
<g id="edge43" class="edge"><title>22&#45;&gt;43</title>
<path fill="none" stroke="black" d="M3094.82,-82.2497C3089.69,-72.0459 3083.07,-58.8928 3077.24,-47.3078"/>
<polygon fill="black" stroke="black" points="3080.2,-45.4043 3072.58,-38.0444 3073.95,-48.5506 3080.2,-45.4043"/>
</g>
<!-- 44 -->
<g id="node45" class="node"><title>44</title>
<path fill="#debfe6" stroke="black" d="M3162.5,-38C3162.5,-38 3124.5,-38 3124.5,-38 3118.5,-38 3112.5,-32 3112.5,-26 3112.5,-26 3112.5,-12 3112.5,-12 3112.5,-6 3118.5,-0 3124.5,-0 3124.5,-0 3162.5,-0 3162.5,-0 3168.5,-0 3174.5,-6 3174.5,-12 3174.5,-12 3174.5,-26 3174.5,-26 3174.5,-32 3168.5,-38 3162.5,-38"/>
<text text-anchor="middle" x="3143.5" y="-22.8" font-family="Times,serif" font-size="14.00">forward</text>
<text text-anchor="middle" x="3143.5" y="-7.8" font-family="Times,serif" font-size="14.00">DB0/C1</text>
</g>
<!-- 22&#45;&gt;44 -->
<g id="edge44" class="edge"><title>22&#45;&gt;44</title>
<path fill="none" stroke="black" d="M3112.18,-82.2497C3117.31,-72.0459 3123.93,-58.8928 3129.76,-47.3078"/>
<polygon fill="black" stroke="black" points="3133.05,-48.5506 3134.42,-38.0444 3126.8,-45.4043 3133.05,-48.5506"/>
</g>
</g>
</svg>
