<?xml version="1.0" encoding="UTF-8" standalone="no"?>
<!DOCTYPE svg PUBLIC "-//W3C//DTD SVG 1.1//EN"
 "http://www.w3.org/Graphics/SVG/1.1/DTD/svg11.dtd">
<!-- Generated by graphviz version 2.38.0 (20140413.2041)
 -->
<!-- Title: %3 Pages: 1 -->
<svg width="2178pt" height="402pt"
 viewBox="0.00 0.00 2178.00 402.00" xmlns="http://www.w3.org/2000/svg" xmlns:xlink="http://www.w3.org/1999/xlink">
<g id="graph0" class="graph" transform="scale(1 1) rotate(0) translate(4 398)">
<title>%3</title>
<polygon fill="none" stroke="none" points="-4,4 -4,-398 2174,-398 2174,4 -4,4"/>
<!-- 0 -->
<g id="node1" class="node"><title>0</title>
<path fill="#ffd3d3" stroke="black" d="M1155.5,-394C1155.5,-394 1085.5,-394 1085.5,-394 1079.5,-394 1073.5,-388 1073.5,-382 1073.5,-382 1073.5,-368 1073.5,-368 1073.5,-362 1079.5,-356 1085.5,-356 1085.5,-356 1155.5,-356 1155.5,-356 1161.5,-356 1167.5,-362 1167.5,-368 1167.5,-368 1167.5,-382 1167.5,-382 1167.5,-388 1161.5,-394 1155.5,-394"/>
<text text-anchor="middle" x="1120.5" y="-378.8" font-family="Times,serif" font-size="14.00">net</text>
<text text-anchor="middle" x="1120.5" y="-363.8" font-family="Times,serif" font-size="14.00">n kernels: 120</text>
</g>
<!-- 1 -->
<g id="node2" class="node"><title>1</title>
<path fill="#f6ffd3" stroke="black" d="M924,-312.5C924,-312.5 799,-312.5 799,-312.5 793,-312.5 787,-306.5 787,-300.5 787,-300.5 787,-286.5 787,-286.5 787,-280.5 793,-274.5 799,-274.5 799,-274.5 924,-274.5 924,-274.5 930,-274.5 936,-280.5 936,-286.5 936,-286.5 936,-300.5 936,-300.5 936,-306.5 930,-312.5 924,-312.5"/>
<text text-anchor="middle" x="861.5" y="-297.3" font-family="Times,serif" font-size="14.00">encoder</text>
<text text-anchor="middle" x="861.5" y="-282.3" font-family="Times,serif" font-size="14.00">log gamma2: &#45;0.332757</text>
</g>
<!-- 0&#45;&gt;1 -->
<g id="edge1" class="edge"><title>0&#45;&gt;1</title>
<path fill="none" stroke="black" d="M1073.3,-359.511C1033.2,-347.202 975.12,-329.376 929.92,-315.502"/>
<polygon fill="black" stroke="black" points="930.778,-312.104 920.191,-312.515 928.724,-318.796 930.778,-312.104"/>
</g>
<!-- 2 -->
<g id="node3" class="node"><title>2</title>
<path fill="#f6ffd3" stroke="black" d="M1511,-320C1511,-320 1248,-320 1248,-320 1242,-320 1236,-314 1236,-308 1236,-308 1236,-279 1236,-279 1236,-273 1242,-267 1248,-267 1248,-267 1511,-267 1511,-267 1517,-267 1523,-273 1523,-279 1523,-279 1523,-308 1523,-308 1523,-314 1517,-320 1511,-320"/>
<text text-anchor="middle" x="1379.5" y="-304.8" font-family="Times,serif" font-size="14.00">decoder</text>
<text text-anchor="middle" x="1379.5" y="-289.8" font-family="Times,serif" font-size="14.00">log gamma1: 0.463000 &#160;&#160;log gamma2: &#45;0.271983</text>
<text text-anchor="middle" x="1379.5" y="-274.8" font-family="Times,serif" font-size="14.00">n kernels: &#45;10 &#160;&#160;pooling type: 1</text>
</g>
<!-- 0&#45;&gt;2 -->
<g id="edge2" class="edge"><title>0&#45;&gt;2</title>
<path fill="none" stroke="black" d="M1167.7,-359.511C1200.87,-349.332 1246.32,-335.379 1286.62,-323.009"/>
<polygon fill="black" stroke="black" points="1287.67,-326.348 1296.2,-320.068 1285.62,-319.656 1287.67,-326.348"/>
</g>
<!-- 3 -->
<g id="node4" class="node"><title>3</title>
<path fill="#d3ffe4" stroke="black" d="M580,-223.5C580,-223.5 317,-223.5 317,-223.5 311,-223.5 305,-217.5 305,-211.5 305,-211.5 305,-182.5 305,-182.5 305,-176.5 311,-170.5 317,-170.5 317,-170.5 580,-170.5 580,-170.5 586,-170.5 592,-176.5 592,-182.5 592,-182.5 592,-211.5 592,-211.5 592,-217.5 586,-223.5 580,-223.5"/>
<text text-anchor="middle" x="448.5" y="-208.3" font-family="Times,serif" font-size="14.00">encode block 0</text>
<text text-anchor="middle" x="448.5" y="-193.3" font-family="Times,serif" font-size="14.00">log gamma1: 0.142725 &#160;&#160;log gamma2: &#45;0.096758</text>
<text text-anchor="middle" x="448.5" y="-178.3" font-family="Times,serif" font-size="14.00">n kernels: &#45;6 &#160;&#160;pooling type: &#45;1</text>
</g>
<!-- 1&#45;&gt;3 -->
<g id="edge3" class="edge"><title>1&#45;&gt;3</title>
<path fill="none" stroke="black" d="M786.709,-275.387C726.322,-261.569 640.146,-241.851 569.896,-225.777"/>
<polygon fill="black" stroke="black" points="570.622,-222.353 560.094,-223.534 569.061,-229.177 570.622,-222.353"/>
</g>
<!-- 4 -->
<g id="node5" class="node"><title>4</title>
<path fill="#bfe6cf" stroke="black" d="M964.5,-223.5C964.5,-223.5 758.5,-223.5 758.5,-223.5 752.5,-223.5 746.5,-217.5 746.5,-211.5 746.5,-211.5 746.5,-182.5 746.5,-182.5 746.5,-176.5 752.5,-170.5 758.5,-170.5 758.5,-170.5 964.5,-170.5 964.5,-170.5 970.5,-170.5 976.5,-176.5 976.5,-182.5 976.5,-182.5 976.5,-211.5 976.5,-211.5 976.5,-217.5 970.5,-223.5 964.5,-223.5"/>
<text text-anchor="middle" x="861.5" y="-208.3" font-family="Times,serif" font-size="14.00">encode block 1</text>
<text text-anchor="middle" x="861.5" y="-193.3" font-family="Times,serif" font-size="14.00">log gamma1: &#45;0.016471 &#160;&#160;n kernels: 64</text>
<text text-anchor="middle" x="861.5" y="-178.3" font-family="Times,serif" font-size="14.00">pooling type: &#45;1 &#160;&#160;spatial scale: 1</text>
</g>
<!-- 1&#45;&gt;4 -->
<g id="edge4" class="edge"><title>1&#45;&gt;4</title>
<path fill="none" stroke="black" d="M861.5,-274.279C861.5,-262.825 861.5,-247.655 861.5,-233.862"/>
<polygon fill="black" stroke="black" points="865,-233.667 861.5,-223.667 858,-233.667 865,-233.667"/>
</g>
<!-- 5 -->
<g id="node6" class="node"><title>5</title>
<path fill="#d3ffe4" stroke="black" d="M1509,-231C1509,-231 1250,-231 1250,-231 1244,-231 1238,-225 1238,-219 1238,-219 1238,-175 1238,-175 1238,-169 1244,-163 1250,-163 1250,-163 1509,-163 1509,-163 1515,-163 1521,-169 1521,-175 1521,-175 1521,-219 1521,-219 1521,-225 1515,-231 1509,-231"/>
<text text-anchor="middle" x="1379.5" y="-215.8" font-family="Times,serif" font-size="14.00">decode block 1</text>
<text text-anchor="middle" x="1379.5" y="-200.8" font-family="Times,serif" font-size="14.00">log gamma1: 0.184046 &#160;&#160;log gamma2: 0.271036</text>
<text text-anchor="middle" x="1379.5" y="-185.8" font-family="Times,serif" font-size="14.00">n kernels: 8 &#160;&#160;pooling type: &#45;1</text>
<text text-anchor="middle" x="1379.5" y="-170.8" font-family="Times,serif" font-size="14.00">spatial scale: 1</text>
</g>
<!-- 2&#45;&gt;5 -->
<g id="edge5" class="edge"><title>2&#45;&gt;5</title>
<path fill="none" stroke="black" d="M1379.5,-266.677C1379.5,-258.822 1379.5,-249.964 1379.5,-241.285"/>
<polygon fill="black" stroke="black" points="1383,-241.251 1379.5,-231.251 1376,-241.251 1383,-241.251"/>
</g>
<!-- 6 -->
<g id="node7" class="node"><title>6</title>
<path fill="#bfe6cf" stroke="black" d="M1825,-223.5C1825,-223.5 1630,-223.5 1630,-223.5 1624,-223.5 1618,-217.5 1618,-211.5 1618,-211.5 1618,-182.5 1618,-182.5 1618,-176.5 1624,-170.5 1630,-170.5 1630,-170.5 1825,-170.5 1825,-170.5 1831,-170.5 1837,-176.5 1837,-182.5 1837,-182.5 1837,-211.5 1837,-211.5 1837,-217.5 1831,-223.5 1825,-223.5"/>
<text text-anchor="middle" x="1727.5" y="-208.3" font-family="Times,serif" font-size="14.00">decode block 0</text>
<text text-anchor="middle" x="1727.5" y="-193.3" font-family="Times,serif" font-size="14.00">log gamma1: 0.038897 &#160;&#160;n kernels: 6</text>
<text text-anchor="middle" x="1727.5" y="-178.3" font-family="Times,serif" font-size="14.00">pooling type: 1</text>
</g>
<!-- 2&#45;&gt;6 -->
<g id="edge6" class="edge"><title>2&#45;&gt;6</title>
<path fill="none" stroke="black" d="M1473.67,-266.927C1520.09,-254.321 1576.19,-239.088 1623.83,-226.151"/>
<polygon fill="black" stroke="black" points="1624.82,-229.51 1633.55,-223.512 1622.99,-222.755 1624.82,-229.51"/>
</g>
<!-- 7 -->
<g id="node8" class="node"><title>7</title>
<path fill="#d3e4ff" stroke="black" d="M275,-127C275,-127 12,-127 12,-127 6,-127 0,-121 0,-115 0,-115 0,-86 0,-86 0,-80 6,-74 12,-74 12,-74 275,-74 275,-74 281,-74 287,-80 287,-86 287,-86 287,-115 287,-115 287,-121 281,-127 275,-127"/>
<text text-anchor="middle" x="143.5" y="-111.8" font-family="Times,serif" font-size="14.00">comp 0</text>
<text text-anchor="middle" x="143.5" y="-96.8" font-family="Times,serif" font-size="14.00">log gamma1: &#45;0.393177 &#160;&#160;log gamma2: 0.417941</text>
<text text-anchor="middle" x="143.5" y="-81.8" font-family="Times,serif" font-size="14.00">n kernels: 2</text>
</g>
<!-- 3&#45;&gt;7 -->
<g id="edge7" class="edge"><title>3&#45;&gt;7</title>
<path fill="none" stroke="black" d="M365.963,-170.427C325.618,-157.927 276.932,-142.842 235.405,-129.976"/>
<polygon fill="black" stroke="black" points="236.427,-126.628 225.839,-127.012 234.355,-133.314 236.427,-126.628"/>
</g>
<!-- 8 -->
<g id="node9" class="node"><title>8</title>
<path fill="#bfcfe6" stroke="black" d="M580,-119.5C580,-119.5 317,-119.5 317,-119.5 311,-119.5 305,-113.5 305,-107.5 305,-107.5 305,-93.5 305,-93.5 305,-87.5 311,-81.5 317,-81.5 317,-81.5 580,-81.5 580,-81.5 586,-81.5 592,-87.5 592,-93.5 592,-93.5 592,-107.5 592,-107.5 592,-113.5 586,-119.5 580,-119.5"/>
<text text-anchor="middle" x="448.5" y="-104.3" font-family="Times,serif" font-size="14.00">comp 1</text>
<text text-anchor="middle" x="448.5" y="-89.3" font-family="Times,serif" font-size="14.00">log gamma1: &#45;0.196346 &#160;&#160;log gamma2: 0.069105</text>
</g>
<!-- 3&#45;&gt;8 -->
<g id="edge8" class="edge"><title>3&#45;&gt;8</title>
<path fill="none" stroke="black" d="M448.5,-170.177C448.5,-157.626 448.5,-142.514 448.5,-129.666"/>
<polygon fill="black" stroke="black" points="452,-129.511 448.5,-119.511 445,-129.511 452,-129.511"/>
</g>
<!-- 9 -->
<g id="node10" class="node"><title>9</title>
<path fill="#d3e4ff" stroke="black" d="M822.5,-119.5C822.5,-119.5 622.5,-119.5 622.5,-119.5 616.5,-119.5 610.5,-113.5 610.5,-107.5 610.5,-107.5 610.5,-93.5 610.5,-93.5 610.5,-87.5 616.5,-81.5 622.5,-81.5 622.5,-81.5 822.5,-81.5 822.5,-81.5 828.5,-81.5 834.5,-87.5 834.5,-93.5 834.5,-93.5 834.5,-107.5 834.5,-107.5 834.5,-113.5 828.5,-119.5 822.5,-119.5"/>
<text text-anchor="middle" x="722.5" y="-104.3" font-family="Times,serif" font-size="14.00">comp 0</text>
<text text-anchor="middle" x="722.5" y="-89.3" font-family="Times,serif" font-size="14.00">log gamma1: 0.187917 &#160;&#160;n kernels: &#45;1</text>
</g>
<!-- 4&#45;&gt;9 -->
<g id="edge9" class="edge"><title>4&#45;&gt;9</title>
<path fill="none" stroke="black" d="M823.885,-170.427C803.201,-156.365 777.708,-139.034 757.46,-125.268"/>
<polygon fill="black" stroke="black" points="759.37,-122.334 749.132,-119.606 755.434,-128.123 759.37,-122.334"/>
</g>
<!-- 10 -->
<g id="node11" class="node"><title>10</title>
<path fill="#bfcfe6" stroke="black" d="M1128,-127C1128,-127 865,-127 865,-127 859,-127 853,-121 853,-115 853,-115 853,-86 853,-86 853,-80 859,-74 865,-74 865,-74 1128,-74 1128,-74 1134,-74 1140,-80 1140,-86 1140,-86 1140,-115 1140,-115 1140,-121 1134,-127 1128,-127"/>
<text text-anchor="middle" x="996.5" y="-111.8" font-family="Times,serif" font-size="14.00">comp 1</text>
<text text-anchor="middle" x="996.5" y="-96.8" font-family="Times,serif" font-size="14.00">log gamma1: 0.275840 &#160;&#160;log gamma2: &#45;0.285519</text>
<text text-anchor="middle" x="996.5" y="-81.8" font-family="Times,serif" font-size="14.00">n kernels: 1</text>
</g>
<!-- 4&#45;&gt;10 -->
<g id="edge10" class="edge"><title>4&#45;&gt;10</title>
<path fill="none" stroke="black" d="M898.033,-170.427C914.541,-158.871 934.204,-145.107 951.603,-132.928"/>
<polygon fill="black" stroke="black" points="953.753,-135.695 959.938,-127.094 949.738,-129.961 953.753,-135.695"/>
</g>
<!-- 11 -->
<g id="node12" class="node"><title>11</title>
<path fill="#d3e4ff" stroke="black" d="M1433,-119.5C1433,-119.5 1170,-119.5 1170,-119.5 1164,-119.5 1158,-113.5 1158,-107.5 1158,-107.5 1158,-93.5 1158,-93.5 1158,-87.5 1164,-81.5 1170,-81.5 1170,-81.5 1433,-81.5 1433,-81.5 1439,-81.5 1445,-87.5 1445,-93.5 1445,-93.5 1445,-107.5 1445,-107.5 1445,-113.5 1439,-119.5 1433,-119.5"/>
<text text-anchor="middle" x="1301.5" y="-104.3" font-family="Times,serif" font-size="14.00">comp 0</text>
<text text-anchor="middle" x="1301.5" y="-89.3" font-family="Times,serif" font-size="14.00">log gamma1: 0.150734 &#160;&#160;log gamma2: &#45;0.175914</text>
</g>
<!-- 5&#45;&gt;11 -->
<g id="edge11" class="edge"><title>5&#45;&gt;11</title>
<path fill="none" stroke="black" d="M1352.22,-162.948C1342.63,-151.327 1331.99,-138.443 1322.95,-127.486"/>
<polygon fill="black" stroke="black" points="1325.45,-125.02 1316.39,-119.535 1320.05,-129.476 1325.45,-125.02"/>
</g>
<!-- 12 -->
<g id="node13" class="node"><title>12</title>
<path fill="#bfcfe6" stroke="black" d="M1555.5,-119.5C1555.5,-119.5 1475.5,-119.5 1475.5,-119.5 1469.5,-119.5 1463.5,-113.5 1463.5,-107.5 1463.5,-107.5 1463.5,-93.5 1463.5,-93.5 1463.5,-87.5 1469.5,-81.5 1475.5,-81.5 1475.5,-81.5 1555.5,-81.5 1555.5,-81.5 1561.5,-81.5 1567.5,-87.5 1567.5,-93.5 1567.5,-93.5 1567.5,-107.5 1567.5,-107.5 1567.5,-113.5 1561.5,-119.5 1555.5,-119.5"/>
<text text-anchor="middle" x="1515.5" y="-104.3" font-family="Times,serif" font-size="14.00">comp 1</text>
<text text-anchor="middle" x="1515.5" y="-89.3" font-family="Times,serif" font-size="14.00">pooling type: &#45;1</text>
</g>
<!-- 5&#45;&gt;12 -->
<g id="edge12" class="edge"><title>5&#45;&gt;12</title>
<path fill="none" stroke="black" d="M1427.07,-162.948C1444.94,-150.53 1464.89,-136.668 1481.31,-125.258"/>
<polygon fill="black" stroke="black" points="1483.33,-128.116 1489.54,-119.535 1479.33,-122.368 1483.33,-128.116"/>
</g>
<!-- 13 -->
<g id="node14" class="node"><title>13</title>
<path fill="#d3e4ff" stroke="black" d="M1857,-127C1857,-127 1598,-127 1598,-127 1592,-127 1586,-121 1586,-115 1586,-115 1586,-86 1586,-86 1586,-80 1592,-74 1598,-74 1598,-74 1857,-74 1857,-74 1863,-74 1869,-80 1869,-86 1869,-86 1869,-115 1869,-115 1869,-121 1863,-127 1857,-127"/>
<text text-anchor="middle" x="1727.5" y="-111.8" font-family="Times,serif" font-size="14.00">comp 0</text>
<text text-anchor="middle" x="1727.5" y="-96.8" font-family="Times,serif" font-size="14.00">log gamma1: 0.159513 &#160;&#160;log gamma2: 0.303653</text>
<text text-anchor="middle" x="1727.5" y="-81.8" font-family="Times,serif" font-size="14.00">n kernels: &#45;2</text>
</g>
<!-- 6&#45;&gt;13 -->
<g id="edge13" class="edge"><title>6&#45;&gt;13</title>
<path fill="none" stroke="black" d="M1727.5,-170.177C1727.5,-160.073 1727.5,-148.309 1727.5,-137.403"/>
<polygon fill="black" stroke="black" points="1731,-137.291 1727.5,-127.291 1724,-137.291 1731,-137.291"/>
</g>
<!-- 14 -->
<g id="node15" class="node"><title>14</title>
<path fill="#bfcfe6" stroke="black" d="M2158,-127C2158,-127 1899,-127 1899,-127 1893,-127 1887,-121 1887,-115 1887,-115 1887,-86 1887,-86 1887,-80 1893,-74 1899,-74 1899,-74 2158,-74 2158,-74 2164,-74 2170,-80 2170,-86 2170,-86 2170,-115 2170,-115 2170,-121 2164,-127 2158,-127"/>
<text text-anchor="middle" x="2028.5" y="-111.8" font-family="Times,serif" font-size="14.00">comp 1</text>
<text text-anchor="middle" x="2028.5" y="-96.8" font-family="Times,serif" font-size="14.00">log gamma1: 0.039798 &#160;&#160;log gamma2: 0.451025</text>
<text text-anchor="middle" x="2028.5" y="-81.8" font-family="Times,serif" font-size="14.00">n kernels: &#45;6 &#160;&#160;pooling type: 1</text>
</g>
<!-- 6&#45;&gt;14 -->
<g id="edge14" class="edge"><title>6&#45;&gt;14</title>
<path fill="none" stroke="black" d="M1808.95,-170.427C1848.69,-157.953 1896.62,-142.906 1937.54,-130.057"/>
<polygon fill="black" stroke="black" points="1938.75,-133.346 1947.24,-127.012 1936.65,-126.668 1938.75,-133.346"/>
</g>
<!-- 15 -->
<g id="node16" class="node"><title>15</title>
<path fill="#f6d3ff" stroke="black" d="M161,-38C161,-38 126,-38 126,-38 120,-38 114,-32 114,-26 114,-26 114,-12 114,-12 114,-6 120,-0 126,-0 126,-0 161,-0 161,-0 167,-0 173,-6 173,-12 173,-12 173,-26 173,-26 173,-32 167,-38 161,-38"/>
<text text-anchor="middle" x="143.5" y="-22.8" font-family="Times,serif" font-size="14.00">forward</text>
<text text-anchor="middle" x="143.5" y="-7.8" font-family="Times,serif" font-size="14.00">input</text>
</g>
<!-- 7&#45;&gt;15 -->
<g id="edge15" class="edge"><title>7&#45;&gt;15</title>
<path fill="none" stroke="black" d="M143.5,-73.9081C143.5,-65.7377 143.5,-56.6492 143.5,-48.2981"/>
<polygon fill="black" stroke="black" points="147,-48.2389 143.5,-38.2389 140,-48.2389 147,-48.2389"/>
</g>
<!-- 16 -->
<g id="node17" class="node"><title>16</title>
<path fill="#f6d3ff" stroke="black" d="M466.5,-38C466.5,-38 430.5,-38 430.5,-38 424.5,-38 418.5,-32 418.5,-26 418.5,-26 418.5,-12 418.5,-12 418.5,-6 424.5,-0 430.5,-0 430.5,-0 466.5,-0 466.5,-0 472.5,-0 478.5,-6 478.5,-12 478.5,-12 478.5,-26 478.5,-26 478.5,-32 472.5,-38 466.5,-38"/>
<text text-anchor="middle" x="448.5" y="-22.8" font-family="Times,serif" font-size="14.00">forward</text>
<text text-anchor="middle" x="448.5" y="-7.8" font-family="Times,serif" font-size="14.00">EB0/C0</text>
</g>
<!-- 8&#45;&gt;16 -->
<g id="edge16" class="edge"><title>8&#45;&gt;16</title>
<path fill="none" stroke="black" d="M448.5,-81.4602C448.5,-71.67 448.5,-59.3453 448.5,-48.3073"/>
<polygon fill="black" stroke="black" points="452,-48.2435 448.5,-38.2436 445,-48.2436 452,-48.2435"/>
</g>
<!-- 17 -->
<g id="node18" class="node"><title>17</title>
<path fill="#f6d3ff" stroke="black" d="M740.5,-38C740.5,-38 704.5,-38 704.5,-38 698.5,-38 692.5,-32 692.5,-26 692.5,-26 692.5,-12 692.5,-12 692.5,-6 698.5,-0 704.5,-0 704.5,-0 740.5,-0 740.5,-0 746.5,-0 752.5,-6 752.5,-12 752.5,-12 752.5,-26 752.5,-26 752.5,-32 746.5,-38 740.5,-38"/>
<text text-anchor="middle" x="722.5" y="-22.8" font-family="Times,serif" font-size="14.00">forward</text>
<text text-anchor="middle" x="722.5" y="-7.8" font-family="Times,serif" font-size="14.00">EB0/C1</text>
</g>
<!-- 9&#45;&gt;17 -->
<g id="edge17" class="edge"><title>9&#45;&gt;17</title>
<path fill="none" stroke="black" d="M722.5,-81.4602C722.5,-71.67 722.5,-59.3453 722.5,-48.3073"/>
<polygon fill="black" stroke="black" points="726,-48.2435 722.5,-38.2436 719,-48.2436 726,-48.2435"/>
</g>
<!-- 18 -->
<g id="node19" class="node"><title>18</title>
<path fill="#f6d3ff" stroke="black" d="M1014.5,-38C1014.5,-38 978.5,-38 978.5,-38 972.5,-38 966.5,-32 966.5,-26 966.5,-26 966.5,-12 966.5,-12 966.5,-6 972.5,-0 978.5,-0 978.5,-0 1014.5,-0 1014.5,-0 1020.5,-0 1026.5,-6 1026.5,-12 1026.5,-12 1026.5,-26 1026.5,-26 1026.5,-32 1020.5,-38 1014.5,-38"/>
<text text-anchor="middle" x="996.5" y="-22.8" font-family="Times,serif" font-size="14.00">forward</text>
<text text-anchor="middle" x="996.5" y="-7.8" font-family="Times,serif" font-size="14.00">EB1/C0</text>
</g>
<!-- 10&#45;&gt;18 -->
<g id="edge18" class="edge"><title>10&#45;&gt;18</title>
<path fill="none" stroke="black" d="M996.5,-73.9081C996.5,-65.7377 996.5,-56.6492 996.5,-48.2981"/>
<polygon fill="black" stroke="black" points="1000,-48.2389 996.5,-38.2389 993,-48.2389 1000,-48.2389"/>
</g>
<!-- 19 -->
<g id="node20" class="node"><title>19</title>
<path fill="#f6d3ff" stroke="black" d="M1280.5,-38C1280.5,-38 1244.5,-38 1244.5,-38 1238.5,-38 1232.5,-32 1232.5,-26 1232.5,-26 1232.5,-12 1232.5,-12 1232.5,-6 1238.5,-0 1244.5,-0 1244.5,-0 1280.5,-0 1280.5,-0 1286.5,-0 1292.5,-6 1292.5,-12 1292.5,-12 1292.5,-26 1292.5,-26 1292.5,-32 1286.5,-38 1280.5,-38"/>
<text text-anchor="middle" x="1262.5" y="-22.8" font-family="Times,serif" font-size="14.00">forward</text>
<text text-anchor="middle" x="1262.5" y="-7.8" font-family="Times,serif" font-size="14.00">EB1/C1</text>
</g>
<!-- 11&#45;&gt;19 -->
<g id="edge19" class="edge"><title>11&#45;&gt;19</title>
<path fill="none" stroke="black" d="M1292.65,-81.4602C1287.7,-71.3672 1281.43,-58.5805 1275.89,-47.287"/>
<polygon fill="black" stroke="black" points="1279,-45.68 1271.45,-38.2436 1272.71,-48.763 1279,-45.68"/>
</g>
<!-- 20 -->
<g id="node21" class="node"><title>20</title>
<path fill="#debfe6" stroke="black" d="M1358.5,-38C1358.5,-38 1322.5,-38 1322.5,-38 1316.5,-38 1310.5,-32 1310.5,-26 1310.5,-26 1310.5,-12 1310.5,-12 1310.5,-6 1316.5,-0 1322.5,-0 1322.5,-0 1358.5,-0 1358.5,-0 1364.5,-0 1370.5,-6 1370.5,-12 1370.5,-12 1370.5,-26 1370.5,-26 1370.5,-32 1364.5,-38 1358.5,-38"/>
<text text-anchor="middle" x="1340.5" y="-22.8" font-family="Times,serif" font-size="14.00">merge</text>
<text text-anchor="middle" x="1340.5" y="-7.8" font-family="Times,serif" font-size="14.00">EB1/C1</text>
</g>
<!-- 11&#45;&gt;20 -->
<g id="edge20" class="edge"><title>11&#45;&gt;20</title>
<path fill="none" stroke="black" d="M1310.35,-81.4602C1315.3,-71.3672 1321.57,-58.5805 1327.11,-47.287"/>
<polygon fill="black" stroke="black" points="1330.29,-48.763 1331.55,-38.2436 1324,-45.68 1330.29,-48.763"/>
</g>
<!-- 21 -->
<g id="node22" class="node"><title>21</title>
<path fill="#f6d3ff" stroke="black" d="M1534.5,-38C1534.5,-38 1496.5,-38 1496.5,-38 1490.5,-38 1484.5,-32 1484.5,-26 1484.5,-26 1484.5,-12 1484.5,-12 1484.5,-6 1490.5,-0 1496.5,-0 1496.5,-0 1534.5,-0 1534.5,-0 1540.5,-0 1546.5,-6 1546.5,-12 1546.5,-12 1546.5,-26 1546.5,-26 1546.5,-32 1540.5,-38 1534.5,-38"/>
<text text-anchor="middle" x="1515.5" y="-22.8" font-family="Times,serif" font-size="14.00">forward</text>
<text text-anchor="middle" x="1515.5" y="-7.8" font-family="Times,serif" font-size="14.00">DB1/C0</text>
</g>
<!-- 12&#45;&gt;21 -->
<g id="edge21" class="edge"><title>12&#45;&gt;21</title>
<path fill="none" stroke="black" d="M1515.5,-81.4602C1515.5,-71.67 1515.5,-59.3453 1515.5,-48.3073"/>
<polygon fill="black" stroke="black" points="1519,-48.2435 1515.5,-38.2436 1512,-48.2436 1519,-48.2435"/>
</g>
<!-- 22 -->
<g id="node23" class="node"><title>22</title>
<path fill="#f6d3ff" stroke="black" d="M1706.5,-38C1706.5,-38 1668.5,-38 1668.5,-38 1662.5,-38 1656.5,-32 1656.5,-26 1656.5,-26 1656.5,-12 1656.5,-12 1656.5,-6 1662.5,-0 1668.5,-0 1668.5,-0 1706.5,-0 1706.5,-0 1712.5,-0 1718.5,-6 1718.5,-12 1718.5,-12 1718.5,-26 1718.5,-26 1718.5,-32 1712.5,-38 1706.5,-38"/>
<text text-anchor="middle" x="1687.5" y="-22.8" font-family="Times,serif" font-size="14.00">forward</text>
<text text-anchor="middle" x="1687.5" y="-7.8" font-family="Times,serif" font-size="14.00">DB1/C1</text>
</g>
<!-- 13&#45;&gt;22 -->
<g id="edge22" class="edge"><title>13&#45;&gt;22</title>
<path fill="none" stroke="black" d="M1714.62,-73.9081C1710.33,-65.3745 1705.53,-55.8395 1701.18,-47.1891"/>
<polygon fill="black" stroke="black" points="1704.3,-45.5988 1696.68,-38.2389 1698.04,-48.7451 1704.3,-45.5988"/>
</g>
<!-- 23 -->
<g id="node24" class="node"><title>23</title>
<path fill="#debfe6" stroke="black" d="M1784.5,-38C1784.5,-38 1748.5,-38 1748.5,-38 1742.5,-38 1736.5,-32 1736.5,-26 1736.5,-26 1736.5,-12 1736.5,-12 1736.5,-6 1742.5,-0 1748.5,-0 1748.5,-0 1784.5,-0 1784.5,-0 1790.5,-0 1796.5,-6 1796.5,-12 1796.5,-12 1796.5,-26 1796.5,-26 1796.5,-32 1790.5,-38 1784.5,-38"/>
<text text-anchor="middle" x="1766.5" y="-22.8" font-family="Times,serif" font-size="14.00">merge</text>
<text text-anchor="middle" x="1766.5" y="-7.8" font-family="Times,serif" font-size="14.00">EB0/C1</text>
</g>
<!-- 13&#45;&gt;23 -->
<g id="edge23" class="edge"><title>13&#45;&gt;23</title>
<path fill="none" stroke="black" d="M1740.05,-73.9081C1744.2,-65.4653 1748.82,-56.0423 1753.03,-47.4655"/>
<polygon fill="black" stroke="black" points="1756.29,-48.7583 1757.55,-38.2389 1750.01,-45.6753 1756.29,-48.7583"/>
</g>
<!-- 24 -->
<g id="node25" class="node"><title>24</title>
<path fill="#f6d3ff" stroke="black" d="M2047.5,-38C2047.5,-38 2009.5,-38 2009.5,-38 2003.5,-38 1997.5,-32 1997.5,-26 1997.5,-26 1997.5,-12 1997.5,-12 1997.5,-6 2003.5,-0 2009.5,-0 2009.5,-0 2047.5,-0 2047.5,-0 2053.5,-0 2059.5,-6 2059.5,-12 2059.5,-12 2059.5,-26 2059.5,-26 2059.5,-32 2053.5,-38 2047.5,-38"/>
<text text-anchor="middle" x="2028.5" y="-22.8" font-family="Times,serif" font-size="14.00">forward</text>
<text text-anchor="middle" x="2028.5" y="-7.8" font-family="Times,serif" font-size="14.00">DB0/C0</text>
</g>
<!-- 14&#45;&gt;24 -->
<g id="edge24" class="edge"><title>14&#45;&gt;24</title>
<path fill="none" stroke="black" d="M2028.5,-73.9081C2028.5,-65.7377 2028.5,-56.6492 2028.5,-48.2981"/>
<polygon fill="black" stroke="black" points="2032,-48.2389 2028.5,-38.2389 2025,-48.2389 2032,-48.2389"/>
</g>
</g>
</svg>
