<?xml version="1.0" encoding="UTF-8" standalone="no"?>
<!DOCTYPE svg PUBLIC "-//W3C//DTD SVG 1.1//EN"
 "http://www.w3.org/Graphics/SVG/1.1/DTD/svg11.dtd">
<!-- Generated by graphviz version 2.38.0 (20140413.2041)
 -->
<!-- Title: %3 Pages: 1 -->
<svg width="2422pt" height="387pt"
 viewBox="0.00 0.00 2422.00 387.00" xmlns="http://www.w3.org/2000/svg" xmlns:xlink="http://www.w3.org/1999/xlink">
<g id="graph0" class="graph" transform="scale(1 1) rotate(0) translate(4 383)">
<title>%3</title>
<polygon fill="none" stroke="none" points="-4,4 -4,-383 2418,-383 2418,4 -4,4"/>
<!-- 0 -->
<g id="node1" class="node"><title>0</title>
<path fill="#ffd3d3" stroke="black" d="M1446.5,-379C1446.5,-379 1383.5,-379 1383.5,-379 1377.5,-379 1371.5,-373 1371.5,-367 1371.5,-367 1371.5,-353 1371.5,-353 1371.5,-347 1377.5,-341 1383.5,-341 1383.5,-341 1446.5,-341 1446.5,-341 1452.5,-341 1458.5,-347 1458.5,-353 1458.5,-353 1458.5,-367 1458.5,-367 1458.5,-373 1452.5,-379 1446.5,-379"/>
<text text-anchor="middle" x="1415" y="-363.8" font-family="Times,serif" font-size="14.00">net</text>
<text text-anchor="middle" x="1415" y="-348.8" font-family="Times,serif" font-size="14.00">n kernels: 44</text>
</g>
<!-- 1 -->
<g id="node2" class="node"><title>1</title>
<path fill="#f6ffd3" stroke="black" d="M1217.5,-305C1217.5,-305 954.5,-305 954.5,-305 948.5,-305 942.5,-299 942.5,-293 942.5,-293 942.5,-264 942.5,-264 942.5,-258 948.5,-252 954.5,-252 954.5,-252 1217.5,-252 1217.5,-252 1223.5,-252 1229.5,-258 1229.5,-264 1229.5,-264 1229.5,-293 1229.5,-293 1229.5,-299 1223.5,-305 1217.5,-305"/>
<text text-anchor="middle" x="1086" y="-289.8" font-family="Times,serif" font-size="14.00">encoder</text>
<text text-anchor="middle" x="1086" y="-274.8" font-family="Times,serif" font-size="14.00">log gamma1: 0.278772 &#160;&#160;log gamma2: &#45;0.006915</text>
<text text-anchor="middle" x="1086" y="-259.8" font-family="Times,serif" font-size="14.00">n kernels: &#45;4 &#160;&#160;pooling type: 1</text>
</g>
<!-- 0&#45;&gt;1 -->
<g id="edge1" class="edge"><title>0&#45;&gt;1</title>
<path fill="none" stroke="black" d="M1371.31,-348.443C1328.1,-338 1260.09,-321.567 1201.31,-307.364"/>
<polygon fill="black" stroke="black" points="1202.13,-303.96 1191.58,-305.014 1200.48,-310.765 1202.13,-303.96"/>
</g>
<!-- 2 -->
<g id="node3" class="node"><title>2</title>
<path fill="#f6ffd3" stroke="black" d="M1841.5,-305C1841.5,-305 1646.5,-305 1646.5,-305 1640.5,-305 1634.5,-299 1634.5,-293 1634.5,-293 1634.5,-264 1634.5,-264 1634.5,-258 1640.5,-252 1646.5,-252 1646.5,-252 1841.5,-252 1841.5,-252 1847.5,-252 1853.5,-258 1853.5,-264 1853.5,-264 1853.5,-293 1853.5,-293 1853.5,-299 1847.5,-305 1841.5,-305"/>
<text text-anchor="middle" x="1744" y="-289.8" font-family="Times,serif" font-size="14.00">decoder</text>
<text text-anchor="middle" x="1744" y="-274.8" font-family="Times,serif" font-size="14.00">log gamma1: 0.034736 &#160;&#160;n kernels: 6</text>
<text text-anchor="middle" x="1744" y="-259.8" font-family="Times,serif" font-size="14.00">pooling type: 1</text>
</g>
<!-- 0&#45;&gt;2 -->
<g id="edge2" class="edge"><title>0&#45;&gt;2</title>
<path fill="none" stroke="black" d="M1458.69,-348.443C1501.9,-338 1569.91,-321.567 1628.69,-307.364"/>
<polygon fill="black" stroke="black" points="1629.52,-310.765 1638.42,-305.014 1627.87,-303.96 1629.52,-310.765"/>
</g>
<!-- 3 -->
<g id="node4" class="node"><title>3</title>
<path fill="#d3ffe4" stroke="black" d="M651,-208.5C651,-208.5 449,-208.5 449,-208.5 443,-208.5 437,-202.5 437,-196.5 437,-196.5 437,-182.5 437,-182.5 437,-176.5 443,-170.5 449,-170.5 449,-170.5 651,-170.5 651,-170.5 657,-170.5 663,-176.5 663,-182.5 663,-182.5 663,-196.5 663,-196.5 663,-202.5 657,-208.5 651,-208.5"/>
<text text-anchor="middle" x="550" y="-193.3" font-family="Times,serif" font-size="14.00">encode block 0</text>
<text text-anchor="middle" x="550" y="-178.3" font-family="Times,serif" font-size="14.00">log gamma1: 0.257216 &#160;&#160;n kernels: 10</text>
</g>
<!-- 1&#45;&gt;3 -->
<g id="edge3" class="edge"><title>1&#45;&gt;3</title>
<path fill="none" stroke="black" d="M942.362,-254.186C857.758,-240.453 751.908,-223.272 671.478,-210.217"/>
<polygon fill="black" stroke="black" points="671.733,-206.713 661.301,-208.566 670.611,-213.623 671.733,-206.713"/>
</g>
<!-- 4 -->
<g id="node5" class="node"><title>4</title>
<path fill="#bfe6cf" stroke="black" d="M1217.5,-216C1217.5,-216 954.5,-216 954.5,-216 948.5,-216 942.5,-210 942.5,-204 942.5,-204 942.5,-175 942.5,-175 942.5,-169 948.5,-163 954.5,-163 954.5,-163 1217.5,-163 1217.5,-163 1223.5,-163 1229.5,-169 1229.5,-175 1229.5,-175 1229.5,-204 1229.5,-204 1229.5,-210 1223.5,-216 1217.5,-216"/>
<text text-anchor="middle" x="1086" y="-200.8" font-family="Times,serif" font-size="14.00">encode block 1</text>
<text text-anchor="middle" x="1086" y="-185.8" font-family="Times,serif" font-size="14.00">log gamma1: 0.075617 &#160;&#160;log gamma2: &#45;0.091513</text>
<text text-anchor="middle" x="1086" y="-170.8" font-family="Times,serif" font-size="14.00">n kernels: 64 &#160;&#160;spatial scale: 1</text>
</g>
<!-- 1&#45;&gt;4 -->
<g id="edge4" class="edge"><title>1&#45;&gt;4</title>
<path fill="none" stroke="black" d="M1086,-251.868C1086,-243.886 1086,-234.932 1086,-226.384"/>
<polygon fill="black" stroke="black" points="1089.5,-226.25 1086,-216.25 1082.5,-226.25 1089.5,-226.25"/>
</g>
<!-- 5 -->
<g id="node6" class="node"><title>5</title>
<path fill="#d3ffe4" stroke="black" d="M1873.5,-216C1873.5,-216 1614.5,-216 1614.5,-216 1608.5,-216 1602.5,-210 1602.5,-204 1602.5,-204 1602.5,-175 1602.5,-175 1602.5,-169 1608.5,-163 1614.5,-163 1614.5,-163 1873.5,-163 1873.5,-163 1879.5,-163 1885.5,-169 1885.5,-175 1885.5,-175 1885.5,-204 1885.5,-204 1885.5,-210 1879.5,-216 1873.5,-216"/>
<text text-anchor="middle" x="1744" y="-200.8" font-family="Times,serif" font-size="14.00">decode block 1</text>
<text text-anchor="middle" x="1744" y="-185.8" font-family="Times,serif" font-size="14.00">log gamma1: 0.261374 &#160;&#160;log gamma2: 0.392836</text>
<text text-anchor="middle" x="1744" y="-170.8" font-family="Times,serif" font-size="14.00">n kernels: 10 &#160;&#160;spatial scale: 1</text>
</g>
<!-- 2&#45;&gt;5 -->
<g id="edge5" class="edge"><title>2&#45;&gt;5</title>
<path fill="none" stroke="black" d="M1744,-251.868C1744,-243.886 1744,-234.932 1744,-226.384"/>
<polygon fill="black" stroke="black" points="1747.5,-226.25 1744,-216.25 1740.5,-226.25 1747.5,-226.25"/>
</g>
<!-- 6 -->
<g id="node7" class="node"><title>6</title>
<path fill="#bfe6cf" stroke="black" d="M2195.5,-216C2195.5,-216 2000.5,-216 2000.5,-216 1994.5,-216 1988.5,-210 1988.5,-204 1988.5,-204 1988.5,-175 1988.5,-175 1988.5,-169 1994.5,-163 2000.5,-163 2000.5,-163 2195.5,-163 2195.5,-163 2201.5,-163 2207.5,-169 2207.5,-175 2207.5,-175 2207.5,-204 2207.5,-204 2207.5,-210 2201.5,-216 2195.5,-216"/>
<text text-anchor="middle" x="2098" y="-200.8" font-family="Times,serif" font-size="14.00">decode block 0</text>
<text text-anchor="middle" x="2098" y="-185.8" font-family="Times,serif" font-size="14.00">log gamma2: 0.488168 &#160;&#160;n kernels: 7</text>
<text text-anchor="middle" x="2098" y="-170.8" font-family="Times,serif" font-size="14.00">pooling type: 1</text>
</g>
<!-- 2&#45;&gt;6 -->
<g id="edge6" class="edge"><title>2&#45;&gt;6</title>
<path fill="none" stroke="black" d="M1847.82,-251.985C1890.69,-241.45 1940.5,-229.208 1984.34,-218.433"/>
<polygon fill="black" stroke="black" points="1985.31,-221.8 1994.18,-216.015 1983.64,-215.002 1985.31,-221.8"/>
</g>
<!-- 7 -->
<g id="node8" class="node"><title>7</title>
<path fill="#d3e4ff" stroke="black" d="M280,-127C280,-127 12,-127 12,-127 6,-127 0,-121 0,-115 0,-115 0,-86 0,-86 0,-80 6,-74 12,-74 12,-74 280,-74 280,-74 286,-74 292,-80 292,-86 292,-86 292,-115 292,-115 292,-121 286,-127 280,-127"/>
<text text-anchor="middle" x="146" y="-111.8" font-family="Times,serif" font-size="14.00">comp 0</text>
<text text-anchor="middle" x="146" y="-96.8" font-family="Times,serif" font-size="14.00">log gamma1: &#45;0.209025 &#160;&#160;log gamma2: &#45;0.408175</text>
<text text-anchor="middle" x="146" y="-81.8" font-family="Times,serif" font-size="14.00">pooling type: &#45;1</text>
</g>
<!-- 3&#45;&gt;7 -->
<g id="edge7" class="edge"><title>3&#45;&gt;7</title>
<path fill="none" stroke="black" d="M466.291,-170.474C410.896,-158.545 337.177,-142.669 274.428,-129.157"/>
<polygon fill="black" stroke="black" points="274.969,-125.693 264.456,-127.009 273.495,-132.536 274.969,-125.693"/>
</g>
<!-- 8 -->
<g id="node9" class="node"><title>8</title>
<path fill="#bfcfe6" stroke="black" d="M585.5,-119.5C585.5,-119.5 322.5,-119.5 322.5,-119.5 316.5,-119.5 310.5,-113.5 310.5,-107.5 310.5,-107.5 310.5,-93.5 310.5,-93.5 310.5,-87.5 316.5,-81.5 322.5,-81.5 322.5,-81.5 585.5,-81.5 585.5,-81.5 591.5,-81.5 597.5,-87.5 597.5,-93.5 597.5,-93.5 597.5,-107.5 597.5,-107.5 597.5,-113.5 591.5,-119.5 585.5,-119.5"/>
<text text-anchor="middle" x="454" y="-104.3" font-family="Times,serif" font-size="14.00">comp 1</text>
<text text-anchor="middle" x="454" y="-89.3" font-family="Times,serif" font-size="14.00">log gamma1: 0.237806 &#160;&#160;log gamma2: &#45;0.412494</text>
</g>
<!-- 3&#45;&gt;8 -->
<g id="edge8" class="edge"><title>3&#45;&gt;8</title>
<path fill="none" stroke="black" d="M530.109,-170.474C516.078,-157.759 497.101,-140.56 481.606,-126.518"/>
<polygon fill="black" stroke="black" points="483.626,-123.625 473.866,-119.503 478.925,-128.812 483.626,-123.625"/>
</g>
<!-- 9 -->
<g id="node10" class="node"><title>9</title>
<path fill="#abb9ce" stroke="black" d="M662,-118.5C662,-118.5 628,-118.5 628,-118.5 622,-118.5 616,-112.5 616,-106.5 616,-106.5 616,-94.5 616,-94.5 616,-88.5 622,-82.5 628,-82.5 628,-82.5 662,-82.5 662,-82.5 668,-82.5 674,-88.5 674,-94.5 674,-94.5 674,-106.5 674,-106.5 674,-112.5 668,-118.5 662,-118.5"/>
<text text-anchor="middle" x="645" y="-96.8" font-family="Times,serif" font-size="14.00">identity</text>
</g>
<!-- 3&#45;&gt;9 -->
<g id="edge9" class="edge"><title>3&#45;&gt;9</title>
<path fill="none" stroke="black" d="M569.684,-170.474C583.846,-157.504 603.101,-139.871 618.597,-125.68"/>
<polygon fill="black" stroke="black" points="621.3,-127.95 626.311,-118.615 616.572,-122.788 621.3,-127.95"/>
</g>
<!-- 10 -->
<g id="node11" class="node"><title>10</title>
<path fill="#d3e4ff" stroke="black" d="M910,-127C910,-127 704,-127 704,-127 698,-127 692,-121 692,-115 692,-115 692,-86 692,-86 692,-80 698,-74 704,-74 704,-74 910,-74 910,-74 916,-74 922,-80 922,-86 922,-86 922,-115 922,-115 922,-121 916,-127 910,-127"/>
<text text-anchor="middle" x="807" y="-111.8" font-family="Times,serif" font-size="14.00">comp 0</text>
<text text-anchor="middle" x="807" y="-96.8" font-family="Times,serif" font-size="14.00">log gamma2: &#45;0.456631 &#160;&#160;n kernels: 10</text>
<text text-anchor="middle" x="807" y="-81.8" font-family="Times,serif" font-size="14.00">pooling type: 1</text>
</g>
<!-- 4&#45;&gt;10 -->
<g id="edge10" class="edge"><title>4&#45;&gt;10</title>
<path fill="none" stroke="black" d="M1004.18,-162.985C971.102,-152.672 932.778,-140.721 898.761,-130.114"/>
<polygon fill="black" stroke="black" points="899.411,-126.65 888.823,-127.015 897.327,-133.333 899.411,-126.65"/>
</g>
<!-- 11 -->
<g id="node12" class="node"><title>11</title>
<path fill="#bfcfe6" stroke="black" d="M1220,-127C1220,-127 952,-127 952,-127 946,-127 940,-121 940,-115 940,-115 940,-86 940,-86 940,-80 946,-74 952,-74 952,-74 1220,-74 1220,-74 1226,-74 1232,-80 1232,-86 1232,-86 1232,-115 1232,-115 1232,-121 1226,-127 1220,-127"/>
<text text-anchor="middle" x="1086" y="-111.8" font-family="Times,serif" font-size="14.00">comp 1</text>
<text text-anchor="middle" x="1086" y="-96.8" font-family="Times,serif" font-size="14.00">log gamma1: &#45;0.133114 &#160;&#160;log gamma2: &#45;0.052041</text>
<text text-anchor="middle" x="1086" y="-81.8" font-family="Times,serif" font-size="14.00">n kernels: 2</text>
</g>
<!-- 4&#45;&gt;11 -->
<g id="edge11" class="edge"><title>4&#45;&gt;11</title>
<path fill="none" stroke="black" d="M1086,-162.868C1086,-154.886 1086,-145.932 1086,-137.384"/>
<polygon fill="black" stroke="black" points="1089.5,-137.25 1086,-127.25 1082.5,-137.25 1089.5,-137.25"/>
</g>
<!-- 12 -->
<g id="node13" class="node"><title>12</title>
<path fill="#abb9ce" stroke="black" d="M1296,-118.5C1296,-118.5 1262,-118.5 1262,-118.5 1256,-118.5 1250,-112.5 1250,-106.5 1250,-106.5 1250,-94.5 1250,-94.5 1250,-88.5 1256,-82.5 1262,-82.5 1262,-82.5 1296,-82.5 1296,-82.5 1302,-82.5 1308,-88.5 1308,-94.5 1308,-94.5 1308,-106.5 1308,-106.5 1308,-112.5 1302,-118.5 1296,-118.5"/>
<text text-anchor="middle" x="1279" y="-96.8" font-family="Times,serif" font-size="14.00">identity</text>
</g>
<!-- 4&#45;&gt;12 -->
<g id="edge12" class="edge"><title>4&#45;&gt;12</title>
<path fill="none" stroke="black" d="M1159.59,-162.989C1185.83,-152.937 1215.25,-140.548 1241,-127 1242.74,-126.084 1244.5,-125.107 1246.26,-124.09"/>
<polygon fill="black" stroke="black" points="1248.25,-126.97 1254.94,-118.754 1244.59,-121.005 1248.25,-126.97"/>
</g>
<!-- 13 -->
<g id="node14" class="node"><title>13</title>
<path fill="#d3e4ff" stroke="black" d="M1601.5,-119.5C1601.5,-119.5 1338.5,-119.5 1338.5,-119.5 1332.5,-119.5 1326.5,-113.5 1326.5,-107.5 1326.5,-107.5 1326.5,-93.5 1326.5,-93.5 1326.5,-87.5 1332.5,-81.5 1338.5,-81.5 1338.5,-81.5 1601.5,-81.5 1601.5,-81.5 1607.5,-81.5 1613.5,-87.5 1613.5,-93.5 1613.5,-93.5 1613.5,-107.5 1613.5,-107.5 1613.5,-113.5 1607.5,-119.5 1601.5,-119.5"/>
<text text-anchor="middle" x="1470" y="-104.3" font-family="Times,serif" font-size="14.00">comp 0</text>
<text text-anchor="middle" x="1470" y="-89.3" font-family="Times,serif" font-size="14.00">log gamma1: &#45;0.180162 &#160;&#160;log gamma2: 0.093375</text>
</g>
<!-- 5&#45;&gt;13 -->
<g id="edge13" class="edge"><title>5&#45;&gt;13</title>
<path fill="none" stroke="black" d="M1663.64,-162.985C1623.34,-150.19 1575.11,-134.875 1536.86,-122.731"/>
<polygon fill="black" stroke="black" points="1537.45,-119.245 1526.86,-119.555 1535.33,-125.917 1537.45,-119.245"/>
</g>
<!-- 14 -->
<g id="node15" class="node"><title>14</title>
<path fill="#bfcfe6" stroke="black" d="M1844,-119.5C1844,-119.5 1644,-119.5 1644,-119.5 1638,-119.5 1632,-113.5 1632,-107.5 1632,-107.5 1632,-93.5 1632,-93.5 1632,-87.5 1638,-81.5 1644,-81.5 1644,-81.5 1844,-81.5 1844,-81.5 1850,-81.5 1856,-87.5 1856,-93.5 1856,-93.5 1856,-107.5 1856,-107.5 1856,-113.5 1850,-119.5 1844,-119.5"/>
<text text-anchor="middle" x="1744" y="-104.3" font-family="Times,serif" font-size="14.00">comp 1</text>
<text text-anchor="middle" x="1744" y="-89.3" font-family="Times,serif" font-size="14.00">log gamma1: 0.498369 &#160;&#160;n kernels: &#45;6</text>
</g>
<!-- 5&#45;&gt;14 -->
<g id="edge14" class="edge"><title>5&#45;&gt;14</title>
<path fill="none" stroke="black" d="M1744,-162.868C1744,-152.417 1744,-140.301 1744,-129.609"/>
<polygon fill="black" stroke="black" points="1747.5,-129.507 1744,-119.507 1740.5,-129.507 1747.5,-129.507"/>
</g>
<!-- 15 -->
<g id="node16" class="node"><title>15</title>
<path fill="#abb9ce" stroke="black" d="M1920,-118.5C1920,-118.5 1886,-118.5 1886,-118.5 1880,-118.5 1874,-112.5 1874,-106.5 1874,-106.5 1874,-94.5 1874,-94.5 1874,-88.5 1880,-82.5 1886,-82.5 1886,-82.5 1920,-82.5 1920,-82.5 1926,-82.5 1932,-88.5 1932,-94.5 1932,-94.5 1932,-106.5 1932,-106.5 1932,-112.5 1926,-118.5 1920,-118.5"/>
<text text-anchor="middle" x="1903" y="-96.8" font-family="Times,serif" font-size="14.00">identity</text>
</g>
<!-- 5&#45;&gt;15 -->
<g id="edge15" class="edge"><title>5&#45;&gt;15</title>
<path fill="none" stroke="black" d="M1797.75,-162.92C1819.01,-152.358 1843.46,-139.641 1865,-127 1866.51,-126.115 1868.04,-125.195 1869.57,-124.25"/>
<polygon fill="black" stroke="black" points="1871.78,-126.994 1878.34,-118.673 1868.02,-121.088 1871.78,-126.994"/>
</g>
<!-- 16 -->
<g id="node17" class="node"><title>16</title>
<path fill="#d3e4ff" stroke="black" d="M2042,-119.5C2042,-119.5 1962,-119.5 1962,-119.5 1956,-119.5 1950,-113.5 1950,-107.5 1950,-107.5 1950,-93.5 1950,-93.5 1950,-87.5 1956,-81.5 1962,-81.5 1962,-81.5 2042,-81.5 2042,-81.5 2048,-81.5 2054,-87.5 2054,-93.5 2054,-93.5 2054,-107.5 2054,-107.5 2054,-113.5 2048,-119.5 2042,-119.5"/>
<text text-anchor="middle" x="2002" y="-104.3" font-family="Times,serif" font-size="14.00">comp 0</text>
<text text-anchor="middle" x="2002" y="-89.3" font-family="Times,serif" font-size="14.00">pooling type: &#45;1</text>
</g>
<!-- 6&#45;&gt;16 -->
<g id="edge16" class="edge"><title>6&#45;&gt;16</title>
<path fill="none" stroke="black" d="M2069.72,-162.868C2056.98,-151.328 2042.01,-137.759 2029.39,-126.318"/>
<polygon fill="black" stroke="black" points="2031.63,-123.628 2021.87,-119.507 2026.93,-128.815 2031.63,-123.628"/>
</g>
<!-- 17 -->
<g id="node18" class="node"><title>17</title>
<path fill="#bfcfe6" stroke="black" d="M2284,-127C2284,-127 2084,-127 2084,-127 2078,-127 2072,-121 2072,-115 2072,-115 2072,-86 2072,-86 2072,-80 2078,-74 2084,-74 2084,-74 2284,-74 2284,-74 2290,-74 2296,-80 2296,-86 2296,-86 2296,-115 2296,-115 2296,-121 2290,-127 2284,-127"/>
<text text-anchor="middle" x="2184" y="-111.8" font-family="Times,serif" font-size="14.00">comp 1</text>
<text text-anchor="middle" x="2184" y="-96.8" font-family="Times,serif" font-size="14.00">log gamma2: 0.421985 &#160;&#160;n kernels: &#45;5</text>
<text text-anchor="middle" x="2184" y="-81.8" font-family="Times,serif" font-size="14.00">pooling type: &#45;1</text>
</g>
<!-- 6&#45;&gt;17 -->
<g id="edge17" class="edge"><title>6&#45;&gt;17</title>
<path fill="none" stroke="black" d="M2123.34,-162.868C2132.1,-154.008 2142.04,-143.953 2151.3,-134.582"/>
<polygon fill="black" stroke="black" points="2154.01,-136.822 2158.55,-127.25 2149.03,-131.901 2154.01,-136.822"/>
</g>
<!-- 18 -->
<g id="node19" class="node"><title>18</title>
<path fill="#abb9ce" stroke="black" d="M2360,-118.5C2360,-118.5 2326,-118.5 2326,-118.5 2320,-118.5 2314,-112.5 2314,-106.5 2314,-106.5 2314,-94.5 2314,-94.5 2314,-88.5 2320,-82.5 2326,-82.5 2326,-82.5 2360,-82.5 2360,-82.5 2366,-82.5 2372,-88.5 2372,-94.5 2372,-94.5 2372,-106.5 2372,-106.5 2372,-112.5 2366,-118.5 2360,-118.5"/>
<text text-anchor="middle" x="2343" y="-96.8" font-family="Times,serif" font-size="14.00">identity</text>
</g>
<!-- 6&#45;&gt;18 -->
<g id="edge18" class="edge"><title>6&#45;&gt;18</title>
<path fill="none" stroke="black" d="M2206.39,-162.972C2238.86,-153.565 2274.05,-141.569 2305,-127 2307.04,-126.038 2309.1,-124.975 2311.15,-123.845"/>
<polygon fill="black" stroke="black" points="2313.16,-126.718 2319.94,-118.572 2309.56,-120.715 2313.16,-126.718"/>
</g>
<!-- 19 -->
<g id="node20" class="node"><title>19</title>
<path fill="#f6d3ff" stroke="black" d="M163.5,-38C163.5,-38 128.5,-38 128.5,-38 122.5,-38 116.5,-32 116.5,-26 116.5,-26 116.5,-12 116.5,-12 116.5,-6 122.5,-0 128.5,-0 128.5,-0 163.5,-0 163.5,-0 169.5,-0 175.5,-6 175.5,-12 175.5,-12 175.5,-26 175.5,-26 175.5,-32 169.5,-38 163.5,-38"/>
<text text-anchor="middle" x="146" y="-22.8" font-family="Times,serif" font-size="14.00">forward</text>
<text text-anchor="middle" x="146" y="-7.8" font-family="Times,serif" font-size="14.00">input</text>
</g>
<!-- 7&#45;&gt;19 -->
<g id="edge19" class="edge"><title>7&#45;&gt;19</title>
<path fill="none" stroke="black" d="M146,-73.9081C146,-65.7377 146,-56.6492 146,-48.2981"/>
<polygon fill="black" stroke="black" points="149.5,-48.2389 146,-38.2389 142.5,-48.2389 149.5,-48.2389"/>
</g>
<!-- 20 -->
<g id="node21" class="node"><title>20</title>
<path fill="#f6d3ff" stroke="black" d="M472,-38C472,-38 436,-38 436,-38 430,-38 424,-32 424,-26 424,-26 424,-12 424,-12 424,-6 430,-0 436,-0 436,-0 472,-0 472,-0 478,-0 484,-6 484,-12 484,-12 484,-26 484,-26 484,-32 478,-38 472,-38"/>
<text text-anchor="middle" x="454" y="-22.8" font-family="Times,serif" font-size="14.00">forward</text>
<text text-anchor="middle" x="454" y="-7.8" font-family="Times,serif" font-size="14.00">EB0/C0</text>
</g>
<!-- 8&#45;&gt;20 -->
<g id="edge20" class="edge"><title>8&#45;&gt;20</title>
<path fill="none" stroke="black" d="M454,-81.4602C454,-71.67 454,-59.3453 454,-48.3073"/>
<polygon fill="black" stroke="black" points="457.5,-48.2435 454,-38.2436 450.5,-48.2436 457.5,-48.2435"/>
</g>
<!-- 21 -->
<g id="node22" class="node"><title>21</title>
<path fill="#f6d3ff" stroke="black" d="M624,-38C624,-38 588,-38 588,-38 582,-38 576,-32 576,-26 576,-26 576,-12 576,-12 576,-6 582,-0 588,-0 588,-0 624,-0 624,-0 630,-0 636,-6 636,-12 636,-12 636,-26 636,-26 636,-32 630,-38 624,-38"/>
<text text-anchor="middle" x="606" y="-22.8" font-family="Times,serif" font-size="14.00">residual</text>
<text text-anchor="middle" x="606" y="-7.8" font-family="Times,serif" font-size="14.00">EB0/C0</text>
</g>
<!-- 9&#45;&gt;21 -->
<g id="edge21" class="edge"><title>9&#45;&gt;21</title>
<path fill="none" stroke="black" d="M636.538,-82.2497C631.532,-72.0459 625.079,-58.8928 619.396,-47.3078"/>
<polygon fill="black" stroke="black" points="622.399,-45.4808 614.852,-38.0444 616.114,-48.5639 622.399,-45.4808"/>
</g>
<!-- 22 -->
<g id="node23" class="node"><title>22</title>
<path fill="#debfe6" stroke="black" d="M702,-38C702,-38 666,-38 666,-38 660,-38 654,-32 654,-26 654,-26 654,-12 654,-12 654,-6 660,-0 666,-0 666,-0 702,-0 702,-0 708,-0 714,-6 714,-12 714,-12 714,-26 714,-26 714,-32 708,-38 702,-38"/>
<text text-anchor="middle" x="684" y="-22.8" font-family="Times,serif" font-size="14.00">forward</text>
<text text-anchor="middle" x="684" y="-7.8" font-family="Times,serif" font-size="14.00">EB0/C1</text>
</g>
<!-- 9&#45;&gt;22 -->
<g id="edge22" class="edge"><title>9&#45;&gt;22</title>
<path fill="none" stroke="black" d="M653.462,-82.2497C658.468,-72.0459 664.921,-58.8928 670.604,-47.3078"/>
<polygon fill="black" stroke="black" points="673.886,-48.5639 675.148,-38.0444 667.601,-45.4808 673.886,-48.5639"/>
</g>
<!-- 23 -->
<g id="node24" class="node"><title>23</title>
<path fill="#f6d3ff" stroke="black" d="M824.5,-38C824.5,-38 789.5,-38 789.5,-38 783.5,-38 777.5,-32 777.5,-26 777.5,-26 777.5,-12 777.5,-12 777.5,-6 783.5,-0 789.5,-0 789.5,-0 824.5,-0 824.5,-0 830.5,-0 836.5,-6 836.5,-12 836.5,-12 836.5,-26 836.5,-26 836.5,-32 830.5,-38 824.5,-38"/>
<text text-anchor="middle" x="807" y="-22.8" font-family="Times,serif" font-size="14.00">forward</text>
<text text-anchor="middle" x="807" y="-7.8" font-family="Times,serif" font-size="14.00">EB0/I</text>
</g>
<!-- 10&#45;&gt;23 -->
<g id="edge23" class="edge"><title>10&#45;&gt;23</title>
<path fill="none" stroke="black" d="M807,-73.9081C807,-65.7377 807,-56.6492 807,-48.2981"/>
<polygon fill="black" stroke="black" points="810.5,-48.2389 807,-38.2389 803.5,-48.2389 810.5,-48.2389"/>
</g>
<!-- 24 -->
<g id="node25" class="node"><title>24</title>
<path fill="#f6d3ff" stroke="black" d="M1104,-38C1104,-38 1068,-38 1068,-38 1062,-38 1056,-32 1056,-26 1056,-26 1056,-12 1056,-12 1056,-6 1062,-0 1068,-0 1068,-0 1104,-0 1104,-0 1110,-0 1116,-6 1116,-12 1116,-12 1116,-26 1116,-26 1116,-32 1110,-38 1104,-38"/>
<text text-anchor="middle" x="1086" y="-22.8" font-family="Times,serif" font-size="14.00">forward</text>
<text text-anchor="middle" x="1086" y="-7.8" font-family="Times,serif" font-size="14.00">EB1/C0</text>
</g>
<!-- 11&#45;&gt;24 -->
<g id="edge24" class="edge"><title>11&#45;&gt;24</title>
<path fill="none" stroke="black" d="M1086,-73.9081C1086,-65.7377 1086,-56.6492 1086,-48.2981"/>
<polygon fill="black" stroke="black" points="1089.5,-48.2389 1086,-38.2389 1082.5,-48.2389 1089.5,-48.2389"/>
</g>
<!-- 25 -->
<g id="node26" class="node"><title>25</title>
<path fill="#f6d3ff" stroke="black" d="M1238,-38C1238,-38 1202,-38 1202,-38 1196,-38 1190,-32 1190,-26 1190,-26 1190,-12 1190,-12 1190,-6 1196,-0 1202,-0 1202,-0 1238,-0 1238,-0 1244,-0 1250,-6 1250,-12 1250,-12 1250,-26 1250,-26 1250,-32 1244,-38 1238,-38"/>
<text text-anchor="middle" x="1220" y="-22.8" font-family="Times,serif" font-size="14.00">residual</text>
<text text-anchor="middle" x="1220" y="-7.8" font-family="Times,serif" font-size="14.00">EB1/C0</text>
</g>
<!-- 12&#45;&gt;25 -->
<g id="edge25" class="edge"><title>12&#45;&gt;25</title>
<path fill="none" stroke="black" d="M1266.2,-82.2497C1258.4,-71.7398 1248.28,-58.101 1239.5,-46.2695"/>
<polygon fill="black" stroke="black" points="1242.16,-43.9888 1233.39,-38.0444 1236.54,-48.1605 1242.16,-43.9888"/>
</g>
<!-- 26 -->
<g id="node27" class="node"><title>26</title>
<path fill="#debfe6" stroke="black" d="M1316,-38C1316,-38 1280,-38 1280,-38 1274,-38 1268,-32 1268,-26 1268,-26 1268,-12 1268,-12 1268,-6 1274,-0 1280,-0 1280,-0 1316,-0 1316,-0 1322,-0 1328,-6 1328,-12 1328,-12 1328,-26 1328,-26 1328,-32 1322,-38 1316,-38"/>
<text text-anchor="middle" x="1298" y="-22.8" font-family="Times,serif" font-size="14.00">forward</text>
<text text-anchor="middle" x="1298" y="-7.8" font-family="Times,serif" font-size="14.00">EB1/C1</text>
</g>
<!-- 12&#45;&gt;26 -->
<g id="edge26" class="edge"><title>12&#45;&gt;26</title>
<path fill="none" stroke="black" d="M1283.12,-82.2497C1285.51,-72.25 1288.58,-59.4178 1291.31,-48.0048"/>
<polygon fill="black" stroke="black" points="1294.77,-48.5841 1293.69,-38.0444 1287.96,-46.9569 1294.77,-48.5841"/>
</g>
<!-- 27 -->
<g id="node28" class="node"><title>27</title>
<path fill="#f6d3ff" stroke="black" d="M1449.5,-38C1449.5,-38 1414.5,-38 1414.5,-38 1408.5,-38 1402.5,-32 1402.5,-26 1402.5,-26 1402.5,-12 1402.5,-12 1402.5,-6 1408.5,-0 1414.5,-0 1414.5,-0 1449.5,-0 1449.5,-0 1455.5,-0 1461.5,-6 1461.5,-12 1461.5,-12 1461.5,-26 1461.5,-26 1461.5,-32 1455.5,-38 1449.5,-38"/>
<text text-anchor="middle" x="1432" y="-22.8" font-family="Times,serif" font-size="14.00">forward</text>
<text text-anchor="middle" x="1432" y="-7.8" font-family="Times,serif" font-size="14.00">EB1/I</text>
</g>
<!-- 13&#45;&gt;27 -->
<g id="edge27" class="edge"><title>13&#45;&gt;27</title>
<path fill="none" stroke="black" d="M1461.38,-81.4602C1456.55,-71.3672 1450.44,-58.5805 1445.04,-47.287"/>
<polygon fill="black" stroke="black" points="1448.19,-45.7565 1440.72,-38.2436 1441.87,-48.7753 1448.19,-45.7565"/>
</g>
<!-- 28 -->
<g id="node29" class="node"><title>28</title>
<path fill="#debfe6" stroke="black" d="M1522,-38C1522,-38 1492,-38 1492,-38 1486,-38 1480,-32 1480,-26 1480,-26 1480,-12 1480,-12 1480,-6 1486,-0 1492,-0 1492,-0 1522,-0 1522,-0 1528,-0 1534,-6 1534,-12 1534,-12 1534,-26 1534,-26 1534,-32 1528,-38 1522,-38"/>
<text text-anchor="middle" x="1507" y="-22.8" font-family="Times,serif" font-size="14.00">merge</text>
<text text-anchor="middle" x="1507" y="-7.8" font-family="Times,serif" font-size="14.00">EB1/I</text>
</g>
<!-- 13&#45;&gt;28 -->
<g id="edge28" class="edge"><title>13&#45;&gt;28</title>
<path fill="none" stroke="black" d="M1478.4,-81.4602C1483.05,-71.4682 1488.93,-58.8359 1494.14,-47.6262"/>
<polygon fill="black" stroke="black" points="1497.46,-48.7866 1498.51,-38.2436 1491.12,-45.8329 1497.46,-48.7866"/>
</g>
<!-- 29 -->
<g id="node30" class="node"><title>29</title>
<path fill="#f6d3ff" stroke="black" d="M1763,-38C1763,-38 1725,-38 1725,-38 1719,-38 1713,-32 1713,-26 1713,-26 1713,-12 1713,-12 1713,-6 1719,-0 1725,-0 1725,-0 1763,-0 1763,-0 1769,-0 1775,-6 1775,-12 1775,-12 1775,-26 1775,-26 1775,-32 1769,-38 1763,-38"/>
<text text-anchor="middle" x="1744" y="-22.8" font-family="Times,serif" font-size="14.00">forward</text>
<text text-anchor="middle" x="1744" y="-7.8" font-family="Times,serif" font-size="14.00">DB1/C0</text>
</g>
<!-- 14&#45;&gt;29 -->
<g id="edge29" class="edge"><title>14&#45;&gt;29</title>
<path fill="none" stroke="black" d="M1744,-81.4602C1744,-71.67 1744,-59.3453 1744,-48.3073"/>
<polygon fill="black" stroke="black" points="1747.5,-48.2435 1744,-38.2436 1740.5,-48.2436 1747.5,-48.2435"/>
</g>
<!-- 30 -->
<g id="node31" class="node"><title>30</title>
<path fill="#f6d3ff" stroke="black" d="M1848,-38C1848,-38 1810,-38 1810,-38 1804,-38 1798,-32 1798,-26 1798,-26 1798,-12 1798,-12 1798,-6 1804,-0 1810,-0 1810,-0 1848,-0 1848,-0 1854,-0 1860,-6 1860,-12 1860,-12 1860,-26 1860,-26 1860,-32 1854,-38 1848,-38"/>
<text text-anchor="middle" x="1829" y="-22.8" font-family="Times,serif" font-size="14.00">residual</text>
<text text-anchor="middle" x="1829" y="-7.8" font-family="Times,serif" font-size="14.00">DB1/C0</text>
</g>
<!-- 15&#45;&gt;30 -->
<g id="edge30" class="edge"><title>15&#45;&gt;30</title>
<path fill="none" stroke="black" d="M1886.94,-82.2497C1876.97,-71.5357 1863.97,-57.5701 1852.81,-45.5824"/>
<polygon fill="black" stroke="black" points="1855.17,-42.9795 1845.8,-38.0444 1850.05,-47.7489 1855.17,-42.9795"/>
</g>
<!-- 31 -->
<g id="node32" class="node"><title>31</title>
<path fill="#debfe6" stroke="black" d="M1928,-38C1928,-38 1890,-38 1890,-38 1884,-38 1878,-32 1878,-26 1878,-26 1878,-12 1878,-12 1878,-6 1884,-0 1890,-0 1890,-0 1928,-0 1928,-0 1934,-0 1940,-6 1940,-12 1940,-12 1940,-26 1940,-26 1940,-32 1934,-38 1928,-38"/>
<text text-anchor="middle" x="1909" y="-22.8" font-family="Times,serif" font-size="14.00">forward</text>
<text text-anchor="middle" x="1909" y="-7.8" font-family="Times,serif" font-size="14.00">DB1/C1</text>
</g>
<!-- 15&#45;&gt;31 -->
<g id="edge31" class="edge"><title>15&#45;&gt;31</title>
<path fill="none" stroke="black" d="M1904.3,-82.2497C1905.05,-72.352 1906.01,-59.6794 1906.86,-48.3546"/>
<polygon fill="black" stroke="black" points="1910.38,-48.2795 1907.64,-38.0444 1903.4,-47.7526 1910.38,-48.2795"/>
</g>
<!-- 32 -->
<g id="node33" class="node"><title>32</title>
<path fill="#f6d3ff" stroke="black" d="M2014.5,-38C2014.5,-38 1979.5,-38 1979.5,-38 1973.5,-38 1967.5,-32 1967.5,-26 1967.5,-26 1967.5,-12 1967.5,-12 1967.5,-6 1973.5,-0 1979.5,-0 1979.5,-0 2014.5,-0 2014.5,-0 2020.5,-0 2026.5,-6 2026.5,-12 2026.5,-12 2026.5,-26 2026.5,-26 2026.5,-32 2020.5,-38 2014.5,-38"/>
<text text-anchor="middle" x="1997" y="-22.8" font-family="Times,serif" font-size="14.00">forward</text>
<text text-anchor="middle" x="1997" y="-7.8" font-family="Times,serif" font-size="14.00">DB1/I</text>
</g>
<!-- 16&#45;&gt;32 -->
<g id="edge32" class="edge"><title>16&#45;&gt;32</title>
<path fill="none" stroke="black" d="M2000.87,-81.4602C2000.25,-71.67 1999.47,-59.3453 1998.78,-48.3073"/>
<polygon fill="black" stroke="black" points="2002.27,-48.0041 1998.15,-38.2436 1995.28,-48.4436 2002.27,-48.0041"/>
</g>
<!-- 33 -->
<g id="node34" class="node"><title>33</title>
<path fill="#debfe6" stroke="black" d="M2087,-38C2087,-38 2057,-38 2057,-38 2051,-38 2045,-32 2045,-26 2045,-26 2045,-12 2045,-12 2045,-6 2051,-0 2057,-0 2057,-0 2087,-0 2087,-0 2093,-0 2099,-6 2099,-12 2099,-12 2099,-26 2099,-26 2099,-32 2093,-38 2087,-38"/>
<text text-anchor="middle" x="2072" y="-22.8" font-family="Times,serif" font-size="14.00">merge</text>
<text text-anchor="middle" x="2072" y="-7.8" font-family="Times,serif" font-size="14.00">EB0/I</text>
</g>
<!-- 16&#45;&gt;33 -->
<g id="edge33" class="edge"><title>16&#45;&gt;33</title>
<path fill="none" stroke="black" d="M2017.88,-81.4602C2027.13,-70.9635 2038.93,-57.5532 2049.16,-45.9392"/>
<polygon fill="black" stroke="black" points="2051.95,-48.0618 2055.94,-38.2436 2046.7,-43.4359 2051.95,-48.0618"/>
</g>
<!-- 34 -->
<g id="node35" class="node"><title>34</title>
<path fill="#f6d3ff" stroke="black" d="M2203,-38C2203,-38 2165,-38 2165,-38 2159,-38 2153,-32 2153,-26 2153,-26 2153,-12 2153,-12 2153,-6 2159,-0 2165,-0 2165,-0 2203,-0 2203,-0 2209,-0 2215,-6 2215,-12 2215,-12 2215,-26 2215,-26 2215,-32 2209,-38 2203,-38"/>
<text text-anchor="middle" x="2184" y="-22.8" font-family="Times,serif" font-size="14.00">forward</text>
<text text-anchor="middle" x="2184" y="-7.8" font-family="Times,serif" font-size="14.00">DB0/C0</text>
</g>
<!-- 17&#45;&gt;34 -->
<g id="edge34" class="edge"><title>17&#45;&gt;34</title>
<path fill="none" stroke="black" d="M2184,-73.9081C2184,-65.7377 2184,-56.6492 2184,-48.2981"/>
<polygon fill="black" stroke="black" points="2187.5,-48.2389 2184,-38.2389 2180.5,-48.2389 2187.5,-48.2389"/>
</g>
<!-- 35 -->
<g id="node36" class="node"><title>35</title>
<path fill="#f6d3ff" stroke="black" d="M2322,-38C2322,-38 2284,-38 2284,-38 2278,-38 2272,-32 2272,-26 2272,-26 2272,-12 2272,-12 2272,-6 2278,-0 2284,-0 2284,-0 2322,-0 2322,-0 2328,-0 2334,-6 2334,-12 2334,-12 2334,-26 2334,-26 2334,-32 2328,-38 2322,-38"/>
<text text-anchor="middle" x="2303" y="-22.8" font-family="Times,serif" font-size="14.00">residual</text>
<text text-anchor="middle" x="2303" y="-7.8" font-family="Times,serif" font-size="14.00">DB0/C0</text>
</g>
<!-- 18&#45;&gt;35 -->
<g id="edge35" class="edge"><title>18&#45;&gt;35</title>
<path fill="none" stroke="black" d="M2334.32,-82.2497C2329.19,-72.0459 2322.57,-58.8928 2316.74,-47.3078"/>
<polygon fill="black" stroke="black" points="2319.7,-45.4043 2312.08,-38.0444 2313.45,-48.5506 2319.7,-45.4043"/>
</g>
<!-- 36 -->
<g id="node37" class="node"><title>36</title>
<path fill="#debfe6" stroke="black" d="M2402,-38C2402,-38 2364,-38 2364,-38 2358,-38 2352,-32 2352,-26 2352,-26 2352,-12 2352,-12 2352,-6 2358,-0 2364,-0 2364,-0 2402,-0 2402,-0 2408,-0 2414,-6 2414,-12 2414,-12 2414,-26 2414,-26 2414,-32 2408,-38 2402,-38"/>
<text text-anchor="middle" x="2383" y="-22.8" font-family="Times,serif" font-size="14.00">forward</text>
<text text-anchor="middle" x="2383" y="-7.8" font-family="Times,serif" font-size="14.00">DB0/C1</text>
</g>
<!-- 18&#45;&gt;36 -->
<g id="edge36" class="edge"><title>18&#45;&gt;36</title>
<path fill="none" stroke="black" d="M2351.68,-82.2497C2356.81,-72.0459 2363.43,-58.8928 2369.26,-47.3078"/>
<polygon fill="black" stroke="black" points="2372.55,-48.5506 2373.92,-38.0444 2366.3,-45.4043 2372.55,-48.5506"/>
</g>
</g>
</svg>
