<?xml version="1.0" encoding="UTF-8" standalone="no"?>
<!DOCTYPE svg PUBLIC "-//W3C//DTD SVG 1.1//EN"
 "http://www.w3.org/Graphics/SVG/1.1/DTD/svg11.dtd">
<!-- Generated by graphviz version 2.38.0 (20140413.2041)
 -->
<!-- Title: %3 Pages: 1 -->
<svg width="2574pt" height="447pt"
 viewBox="0.00 0.00 2574.00 447.00" xmlns="http://www.w3.org/2000/svg" xmlns:xlink="http://www.w3.org/1999/xlink">
<g id="graph0" class="graph" transform="scale(1 1) rotate(0) translate(4 443)">
<title>%3</title>
<polygon fill="none" stroke="none" points="-4,4 -4,-443 2570,-443 2570,4 -4,4"/>
<!-- 0 -->
<g id="node1" class="node"><title>0</title>
<path fill="#ffd3d3" stroke="black" d="M1187.5,-439C1187.5,-439 907.5,-439 907.5,-439 901.5,-439 895.5,-433 895.5,-427 895.5,-427 895.5,-398 895.5,-398 895.5,-392 901.5,-386 907.5,-386 907.5,-386 1187.5,-386 1187.5,-386 1193.5,-386 1199.5,-392 1199.5,-398 1199.5,-398 1199.5,-427 1199.5,-427 1199.5,-433 1193.5,-439 1187.5,-439"/>
<text text-anchor="middle" x="1047.5" y="-423.8" font-family="Times,serif" font-size="14.00">net</text>
<text text-anchor="middle" x="1047.5" y="-408.8" font-family="Times,serif" font-size="14.00">log lambda1: &#45;11.000000 &#160;&#160;log lambda2: &#45;11.000000</text>
<text text-anchor="middle" x="1047.5" y="-393.8" font-family="Times,serif" font-size="14.00">n kernels: 66 &#160;&#160;pooling type: 0</text>
</g>
<!-- 1 -->
<g id="node2" class="node"><title>1</title>
<path fill="#f6ffd3" stroke="black" d="M861,-350C861,-350 736,-350 736,-350 730,-350 724,-344 724,-338 724,-338 724,-324 724,-324 724,-318 730,-312 736,-312 736,-312 861,-312 861,-312 867,-312 873,-318 873,-324 873,-324 873,-338 873,-338 873,-344 867,-350 861,-350"/>
<text text-anchor="middle" x="798.5" y="-334.8" font-family="Times,serif" font-size="14.00">encoder</text>
<text text-anchor="middle" x="798.5" y="-319.8" font-family="Times,serif" font-size="14.00">log gamma2: &#45;0.790486</text>
</g>
<!-- 0&#45;&gt;1 -->
<g id="edge1" class="edge"><title>0&#45;&gt;1</title>
<path fill="none" stroke="black" d="M967.344,-385.908C934.232,-375.336 896.306,-363.227 864.798,-353.167"/>
<polygon fill="black" stroke="black" points="865.829,-349.823 855.238,-350.115 863.7,-356.491 865.829,-349.823"/>
</g>
<!-- 2 -->
<g id="node3" class="node"><title>2</title>
<path fill="#f6ffd3" stroke="black" d="M1340.5,-350C1340.5,-350 1284.5,-350 1284.5,-350 1278.5,-350 1272.5,-344 1272.5,-338 1272.5,-338 1272.5,-324 1272.5,-324 1272.5,-318 1278.5,-312 1284.5,-312 1284.5,-312 1340.5,-312 1340.5,-312 1346.5,-312 1352.5,-318 1352.5,-324 1352.5,-324 1352.5,-338 1352.5,-338 1352.5,-344 1346.5,-350 1340.5,-350"/>
<text text-anchor="middle" x="1312.5" y="-334.8" font-family="Times,serif" font-size="14.00">decoder</text>
<text text-anchor="middle" x="1312.5" y="-319.8" font-family="Times,serif" font-size="14.00">n kernels: 6</text>
</g>
<!-- 0&#45;&gt;2 -->
<g id="edge2" class="edge"><title>0&#45;&gt;2</title>
<path fill="none" stroke="black" d="M1132.81,-385.908C1175.54,-373.088 1225.81,-358.007 1262.3,-347.061"/>
<polygon fill="black" stroke="black" points="1263.63,-350.314 1272.2,-344.089 1261.62,-343.61 1263.63,-350.314"/>
</g>
<!-- 3 -->
<g id="node4" class="node"><title>3</title>
<path fill="#d3ffe4" stroke="black" d="M535.5,-268.5C535.5,-268.5 415.5,-268.5 415.5,-268.5 409.5,-268.5 403.5,-262.5 403.5,-256.5 403.5,-256.5 403.5,-242.5 403.5,-242.5 403.5,-236.5 409.5,-230.5 415.5,-230.5 415.5,-230.5 535.5,-230.5 535.5,-230.5 541.5,-230.5 547.5,-236.5 547.5,-242.5 547.5,-242.5 547.5,-256.5 547.5,-256.5 547.5,-262.5 541.5,-268.5 535.5,-268.5"/>
<text text-anchor="middle" x="475.5" y="-253.3" font-family="Times,serif" font-size="14.00">encode block 0</text>
<text text-anchor="middle" x="475.5" y="-238.3" font-family="Times,serif" font-size="14.00">log gamma2: 1.453085</text>
</g>
<!-- 1&#45;&gt;3 -->
<g id="edge3" class="edge"><title>1&#45;&gt;3</title>
<path fill="none" stroke="black" d="M725.206,-311.96C675.284,-299.673 609.14,-283.393 557.47,-270.675"/>
<polygon fill="black" stroke="black" points="558.215,-267.254 547.669,-268.263 556.542,-274.051 558.215,-267.254"/>
</g>
<!-- 4 -->
<g id="node5" class="node"><title>4</title>
<path fill="#bfe6cf" stroke="black" d="M930,-276C930,-276 667,-276 667,-276 661,-276 655,-270 655,-264 655,-264 655,-235 655,-235 655,-229 661,-223 667,-223 667,-223 930,-223 930,-223 936,-223 942,-229 942,-235 942,-235 942,-264 942,-264 942,-270 936,-276 930,-276"/>
<text text-anchor="middle" x="798.5" y="-260.8" font-family="Times,serif" font-size="14.00">encode block 1</text>
<text text-anchor="middle" x="798.5" y="-245.8" font-family="Times,serif" font-size="14.00">log gamma1: &#45;0.636630 &#160;&#160;log gamma2: 1.536960</text>
<text text-anchor="middle" x="798.5" y="-230.8" font-family="Times,serif" font-size="14.00">spatial scale: 1</text>
</g>
<!-- 1&#45;&gt;4 -->
<g id="edge4" class="edge"><title>1&#45;&gt;4</title>
<path fill="none" stroke="black" d="M798.5,-311.96C798.5,-304.321 798.5,-295.139 798.5,-286.229"/>
<polygon fill="black" stroke="black" points="802,-286.003 798.5,-276.003 795,-286.003 802,-286.003"/>
</g>
<!-- 5 -->
<g id="node6" class="node"><title>5</title>
<path fill="#d3ffe4" stroke="black" d="M1278,-268.5C1278,-268.5 1117,-268.5 1117,-268.5 1111,-268.5 1105,-262.5 1105,-256.5 1105,-256.5 1105,-242.5 1105,-242.5 1105,-236.5 1111,-230.5 1117,-230.5 1117,-230.5 1278,-230.5 1278,-230.5 1284,-230.5 1290,-236.5 1290,-242.5 1290,-242.5 1290,-256.5 1290,-256.5 1290,-262.5 1284,-268.5 1278,-268.5"/>
<text text-anchor="middle" x="1197.5" y="-253.3" font-family="Times,serif" font-size="14.00">decode block 2</text>
<text text-anchor="middle" x="1197.5" y="-238.3" font-family="Times,serif" font-size="14.00">n kernels: 216 &#160;&#160;spatial scale: 2</text>
</g>
<!-- 2&#45;&gt;5 -->
<g id="edge5" class="edge"><title>2&#45;&gt;5</title>
<path fill="none" stroke="black" d="M1286.4,-311.96C1270.34,-300.858 1249.57,-286.496 1232.14,-274.448"/>
<polygon fill="black" stroke="black" points="1234.11,-271.551 1223.89,-268.744 1230.13,-277.309 1234.11,-271.551"/>
</g>
<!-- 6 -->
<g id="node7" class="node"><title>6</title>
<path fill="#bfe6cf" stroke="black" d="M1506,-268.5C1506,-268.5 1351,-268.5 1351,-268.5 1345,-268.5 1339,-262.5 1339,-256.5 1339,-256.5 1339,-242.5 1339,-242.5 1339,-236.5 1345,-230.5 1351,-230.5 1351,-230.5 1506,-230.5 1506,-230.5 1512,-230.5 1518,-236.5 1518,-242.5 1518,-242.5 1518,-256.5 1518,-256.5 1518,-262.5 1512,-268.5 1506,-268.5"/>
<text text-anchor="middle" x="1428.5" y="-253.3" font-family="Times,serif" font-size="14.00">decode block 1</text>
<text text-anchor="middle" x="1428.5" y="-238.3" font-family="Times,serif" font-size="14.00">n kernels: 72 &#160;&#160;spatial scale: 1</text>
</g>
<!-- 2&#45;&gt;6 -->
<g id="edge6" class="edge"><title>2&#45;&gt;6</title>
<path fill="none" stroke="black" d="M1338.82,-311.96C1355.02,-300.858 1375.98,-286.496 1393.56,-274.448"/>
<polygon fill="black" stroke="black" points="1395.61,-277.284 1401.88,-268.744 1391.65,-271.51 1395.61,-277.284"/>
</g>
<!-- 7 -->
<g id="node8" class="node"><title>7</title>
<path fill="#abceb9" stroke="black" d="M1883,-268.5C1883,-268.5 1808,-268.5 1808,-268.5 1802,-268.5 1796,-262.5 1796,-256.5 1796,-256.5 1796,-242.5 1796,-242.5 1796,-236.5 1802,-230.5 1808,-230.5 1808,-230.5 1883,-230.5 1883,-230.5 1889,-230.5 1895,-236.5 1895,-242.5 1895,-242.5 1895,-256.5 1895,-256.5 1895,-262.5 1889,-268.5 1883,-268.5"/>
<text text-anchor="middle" x="1845.5" y="-253.3" font-family="Times,serif" font-size="14.00">decode block 0</text>
<text text-anchor="middle" x="1845.5" y="-238.3" font-family="Times,serif" font-size="14.00">n kernels: 14</text>
</g>
<!-- 2&#45;&gt;7 -->
<g id="edge7" class="edge"><title>2&#45;&gt;7</title>
<path fill="none" stroke="black" d="M1352.56,-324.025C1445.53,-310.158 1676.34,-275.732 1785.92,-259.387"/>
<polygon fill="black" stroke="black" points="1786.45,-262.847 1795.82,-257.91 1785.41,-255.924 1786.45,-262.847"/>
</g>
<!-- 8 -->
<g id="node9" class="node"><title>8</title>
<path fill="#d3e4ff" stroke="black" d="M329,-179.5C329,-179.5 66,-179.5 66,-179.5 60,-179.5 54,-173.5 54,-167.5 54,-167.5 54,-153.5 54,-153.5 54,-147.5 60,-141.5 66,-141.5 66,-141.5 329,-141.5 329,-141.5 335,-141.5 341,-147.5 341,-153.5 341,-153.5 341,-167.5 341,-167.5 341,-173.5 335,-179.5 329,-179.5"/>
<text text-anchor="middle" x="197.5" y="-164.3" font-family="Times,serif" font-size="14.00">comp 0</text>
<text text-anchor="middle" x="197.5" y="-149.3" font-family="Times,serif" font-size="14.00">log gamma1: 0.496586 &#160;&#160;log gamma2: &#45;1.809297</text>
</g>
<!-- 3&#45;&gt;8 -->
<g id="edge8" class="edge"><title>3&#45;&gt;8</title>
<path fill="none" stroke="black" d="M417.898,-230.474C373.355,-216.534 311.593,-197.205 264.779,-182.555"/>
<polygon fill="black" stroke="black" points="265.617,-179.15 255.028,-179.503 263.526,-185.83 265.617,-179.15"/>
</g>
<!-- 9 -->
<g id="node10" class="node"><title>9</title>
<path fill="#bfcfe6" stroke="black" d="M535.5,-179.5C535.5,-179.5 415.5,-179.5 415.5,-179.5 409.5,-179.5 403.5,-173.5 403.5,-167.5 403.5,-167.5 403.5,-153.5 403.5,-153.5 403.5,-147.5 409.5,-141.5 415.5,-141.5 415.5,-141.5 535.5,-141.5 535.5,-141.5 541.5,-141.5 547.5,-147.5 547.5,-153.5 547.5,-153.5 547.5,-167.5 547.5,-167.5 547.5,-173.5 541.5,-179.5 535.5,-179.5"/>
<text text-anchor="middle" x="475.5" y="-164.3" font-family="Times,serif" font-size="14.00">comp 1</text>
<text text-anchor="middle" x="475.5" y="-149.3" font-family="Times,serif" font-size="14.00">log gamma2: 0.990593</text>
</g>
<!-- 3&#45;&gt;9 -->
<g id="edge9" class="edge"><title>3&#45;&gt;9</title>
<path fill="none" stroke="black" d="M475.5,-230.474C475.5,-218.692 475.5,-203.061 475.5,-189.658"/>
<polygon fill="black" stroke="black" points="479,-189.503 475.5,-179.503 472,-189.503 479,-189.503"/>
</g>
<!-- 10 -->
<g id="node11" class="node"><title>10</title>
<path fill="#d3e4ff" stroke="black" d="M815.5,-178.5C815.5,-178.5 781.5,-178.5 781.5,-178.5 775.5,-178.5 769.5,-172.5 769.5,-166.5 769.5,-166.5 769.5,-154.5 769.5,-154.5 769.5,-148.5 775.5,-142.5 781.5,-142.5 781.5,-142.5 815.5,-142.5 815.5,-142.5 821.5,-142.5 827.5,-148.5 827.5,-154.5 827.5,-154.5 827.5,-166.5 827.5,-166.5 827.5,-172.5 821.5,-178.5 815.5,-178.5"/>
<text text-anchor="middle" x="798.5" y="-156.8" font-family="Times,serif" font-size="14.00">comp 0</text>
</g>
<!-- 4&#45;&gt;10 -->
<g id="edge10" class="edge"><title>4&#45;&gt;10</title>
<path fill="none" stroke="black" d="M798.5,-222.868C798.5,-212.192 798.5,-199.777 798.5,-188.919"/>
<polygon fill="black" stroke="black" points="802,-188.701 798.5,-178.701 795,-188.701 802,-188.701"/>
</g>
<!-- 11 -->
<g id="node12" class="node"><title>11</title>
<path fill="#d3e4ff" stroke="black" d="M1196.5,-179.5C1196.5,-179.5 1076.5,-179.5 1076.5,-179.5 1070.5,-179.5 1064.5,-173.5 1064.5,-167.5 1064.5,-167.5 1064.5,-153.5 1064.5,-153.5 1064.5,-147.5 1070.5,-141.5 1076.5,-141.5 1076.5,-141.5 1196.5,-141.5 1196.5,-141.5 1202.5,-141.5 1208.5,-147.5 1208.5,-153.5 1208.5,-153.5 1208.5,-167.5 1208.5,-167.5 1208.5,-173.5 1202.5,-179.5 1196.5,-179.5"/>
<text text-anchor="middle" x="1136.5" y="-164.3" font-family="Times,serif" font-size="14.00">comp 0</text>
<text text-anchor="middle" x="1136.5" y="-149.3" font-family="Times,serif" font-size="14.00">log gamma2: 1.653192</text>
</g>
<!-- 5&#45;&gt;11 -->
<g id="edge11" class="edge"><title>5&#45;&gt;11</title>
<path fill="none" stroke="black" d="M1184.86,-230.474C1176.27,-218.225 1164.77,-201.817 1155.13,-188.077"/>
<polygon fill="black" stroke="black" points="1157.73,-185.682 1149.12,-179.503 1152,-189.701 1157.73,-185.682"/>
</g>
<!-- 12 -->
<g id="node13" class="node"><title>12</title>
<path fill="#d3e4ff" stroke="black" d="M1578.5,-187C1578.5,-187 1310.5,-187 1310.5,-187 1304.5,-187 1298.5,-181 1298.5,-175 1298.5,-175 1298.5,-146 1298.5,-146 1298.5,-140 1304.5,-134 1310.5,-134 1310.5,-134 1578.5,-134 1578.5,-134 1584.5,-134 1590.5,-140 1590.5,-146 1590.5,-146 1590.5,-175 1590.5,-175 1590.5,-181 1584.5,-187 1578.5,-187"/>
<text text-anchor="middle" x="1444.5" y="-171.8" font-family="Times,serif" font-size="14.00">comp 0</text>
<text text-anchor="middle" x="1444.5" y="-156.8" font-family="Times,serif" font-size="14.00">log gamma1: &#45;0.809904 &#160;&#160;log gamma2: &#45;0.327690</text>
<text text-anchor="middle" x="1444.5" y="-141.8" font-family="Times,serif" font-size="14.00">n kernels: &#45;16</text>
</g>
<!-- 6&#45;&gt;12 -->
<g id="edge12" class="edge"><title>6&#45;&gt;12</title>
<path fill="none" stroke="black" d="M1431.82,-230.474C1433.6,-220.773 1435.86,-208.463 1437.98,-196.935"/>
<polygon fill="black" stroke="black" points="1441.43,-197.56 1439.79,-187.092 1434.54,-196.294 1441.43,-197.56"/>
</g>
<!-- 13 -->
<g id="node14" class="node"><title>13</title>
<path fill="#d3e4ff" stroke="black" d="M2224.5,-179.5C2224.5,-179.5 1956.5,-179.5 1956.5,-179.5 1950.5,-179.5 1944.5,-173.5 1944.5,-167.5 1944.5,-167.5 1944.5,-153.5 1944.5,-153.5 1944.5,-147.5 1950.5,-141.5 1956.5,-141.5 1956.5,-141.5 2224.5,-141.5 2224.5,-141.5 2230.5,-141.5 2236.5,-147.5 2236.5,-153.5 2236.5,-153.5 2236.5,-167.5 2236.5,-167.5 2236.5,-173.5 2230.5,-179.5 2224.5,-179.5"/>
<text text-anchor="middle" x="2090.5" y="-164.3" font-family="Times,serif" font-size="14.00">comp 0</text>
<text text-anchor="middle" x="2090.5" y="-149.3" font-family="Times,serif" font-size="14.00">log gamma1: &#45;0.809904 &#160;&#160;log gamma2: &#45;1.262453</text>
</g>
<!-- 7&#45;&gt;13 -->
<g id="edge13" class="edge"><title>7&#45;&gt;13</title>
<path fill="none" stroke="black" d="M1895.08,-230.894C1934.12,-217.029 1988.71,-197.646 2030.27,-182.888"/>
<polygon fill="black" stroke="black" points="2031.48,-186.173 2039.73,-179.528 2029.14,-179.576 2031.48,-186.173"/>
</g>
<!-- 14 -->
<g id="node15" class="node"><title>14</title>
<path fill="#f6d3ff" stroke="black" d="M293,-98C293,-98 12,-98 12,-98 6,-98 0,-92 0,-86 0,-86 0,-12 0,-12 0,-6 6,-0 12,-0 12,-0 293,-0 293,-0 299,-0 305,-6 305,-12 305,-12 305,-86 305,-86 305,-92 299,-98 293,-98"/>
<text text-anchor="middle" x="152.5" y="-82.8" font-family="Times,serif" font-size="14.00">forward</text>
<text text-anchor="middle" x="152.5" y="-67.8" font-family="Times,serif" font-size="14.00">input</text>
<text text-anchor="middle" x="152.5" y="-52.8" font-family="Times,serif" font-size="14.00">dilation rate: 1 &#160;&#160;k width: 3</text>
<text text-anchor="middle" x="152.5" y="-37.8" font-family="Times,serif" font-size="14.00">log gamma1: &#45;11.000000 &#160;&#160;log gamma2: &#45;11.000000</text>
<text text-anchor="middle" x="152.5" y="-22.8" font-family="Times,serif" font-size="14.00">log lambda1: &#45;11.000000 &#160;&#160;log lambda2: &#45;11.000000</text>
<text text-anchor="middle" x="152.5" y="-7.8" font-family="Times,serif" font-size="14.00">n kernels: 64</text>
</g>
<!-- 8&#45;&gt;14 -->
<g id="edge14" class="edge"><title>8&#45;&gt;14</title>
<path fill="none" stroke="black" d="M190.069,-141.418C186.21,-132.028 181.256,-119.973 176.221,-107.72"/>
<polygon fill="black" stroke="black" points="179.409,-106.271 172.371,-98.352 172.935,-108.932 179.409,-106.271"/>
</g>
<!-- 15 -->
<g id="node16" class="node"><title>15</title>
<path fill="#f6d3ff" stroke="black" d="M616,-98C616,-98 335,-98 335,-98 329,-98 323,-92 323,-86 323,-86 323,-12 323,-12 323,-6 329,-0 335,-0 335,-0 616,-0 616,-0 622,-0 628,-6 628,-12 628,-12 628,-86 628,-86 628,-92 622,-98 616,-98"/>
<text text-anchor="middle" x="475.5" y="-82.8" font-family="Times,serif" font-size="14.00">forward</text>
<text text-anchor="middle" x="475.5" y="-67.8" font-family="Times,serif" font-size="14.00">EB0/C0</text>
<text text-anchor="middle" x="475.5" y="-52.8" font-family="Times,serif" font-size="14.00">dilation rate: 1 &#160;&#160;k width: 3</text>
<text text-anchor="middle" x="475.5" y="-37.8" font-family="Times,serif" font-size="14.00">log gamma1: &#45;11.000000 &#160;&#160;log gamma2: &#45;11.000000</text>
<text text-anchor="middle" x="475.5" y="-22.8" font-family="Times,serif" font-size="14.00">log lambda1: &#45;11.000000 &#160;&#160;log lambda2: &#45;11.000000</text>
<text text-anchor="middle" x="475.5" y="-7.8" font-family="Times,serif" font-size="14.00">n kernels: 64</text>
</g>
<!-- 9&#45;&gt;15 -->
<g id="edge15" class="edge"><title>9&#45;&gt;15</title>
<path fill="none" stroke="black" d="M475.5,-141.418C475.5,-132.212 475.5,-120.445 475.5,-108.441"/>
<polygon fill="black" stroke="black" points="479,-108.352 475.5,-98.352 472,-108.352 479,-108.352"/>
</g>
<!-- 16 -->
<g id="node17" class="node"><title>16</title>
<path fill="#f6d3ff" stroke="black" d="M939,-98C939,-98 658,-98 658,-98 652,-98 646,-92 646,-86 646,-86 646,-12 646,-12 646,-6 652,-0 658,-0 658,-0 939,-0 939,-0 945,-0 951,-6 951,-12 951,-12 951,-86 951,-86 951,-92 945,-98 939,-98"/>
<text text-anchor="middle" x="798.5" y="-82.8" font-family="Times,serif" font-size="14.00">forward</text>
<text text-anchor="middle" x="798.5" y="-67.8" font-family="Times,serif" font-size="14.00">EB0/C1</text>
<text text-anchor="middle" x="798.5" y="-52.8" font-family="Times,serif" font-size="14.00">dilation rate: 1 &#160;&#160;k width: 3</text>
<text text-anchor="middle" x="798.5" y="-37.8" font-family="Times,serif" font-size="14.00">log gamma1: &#45;11.000000 &#160;&#160;log gamma2: &#45;11.000000</text>
<text text-anchor="middle" x="798.5" y="-22.8" font-family="Times,serif" font-size="14.00">log lambda1: &#45;11.000000 &#160;&#160;log lambda2: &#45;11.000000</text>
<text text-anchor="middle" x="798.5" y="-7.8" font-family="Times,serif" font-size="14.00">n kernels: 64</text>
</g>
<!-- 10&#45;&gt;16 -->
<g id="edge16" class="edge"><title>10&#45;&gt;16</title>
<path fill="none" stroke="black" d="M798.5,-142.391C798.5,-132.993 798.5,-120.728 798.5,-108.22"/>
<polygon fill="black" stroke="black" points="802,-108.188 798.5,-98.1876 795,-108.188 802,-108.188"/>
</g>
<!-- 17 -->
<g id="node18" class="node"><title>17</title>
<path fill="#f6d3ff" stroke="black" d="M1262,-98C1262,-98 981,-98 981,-98 975,-98 969,-92 969,-86 969,-86 969,-12 969,-12 969,-6 975,-0 981,-0 981,-0 1262,-0 1262,-0 1268,-0 1274,-6 1274,-12 1274,-12 1274,-86 1274,-86 1274,-92 1268,-98 1262,-98"/>
<text text-anchor="middle" x="1121.5" y="-82.8" font-family="Times,serif" font-size="14.00">forward</text>
<text text-anchor="middle" x="1121.5" y="-67.8" font-family="Times,serif" font-size="14.00">EB1/C0</text>
<text text-anchor="middle" x="1121.5" y="-52.8" font-family="Times,serif" font-size="14.00">dilation rate: 1 &#160;&#160;k width: 3</text>
<text text-anchor="middle" x="1121.5" y="-37.8" font-family="Times,serif" font-size="14.00">log gamma1: &#45;11.000000 &#160;&#160;log gamma2: &#45;11.000000</text>
<text text-anchor="middle" x="1121.5" y="-22.8" font-family="Times,serif" font-size="14.00">log lambda1: &#45;11.000000 &#160;&#160;log lambda2: &#45;11.000000</text>
<text text-anchor="middle" x="1121.5" y="-7.8" font-family="Times,serif" font-size="14.00">n kernels: 64</text>
</g>
<!-- 11&#45;&gt;17 -->
<g id="edge17" class="edge"><title>11&#45;&gt;17</title>
<path fill="none" stroke="black" d="M1134.02,-141.418C1132.76,-132.212 1131.15,-120.445 1129.51,-108.441"/>
<polygon fill="black" stroke="black" points="1132.95,-107.784 1128.12,-98.352 1126.01,-108.735 1132.95,-107.784"/>
</g>
<!-- 18 -->
<g id="node19" class="node"><title>18</title>
<path fill="#f6d3ff" stroke="black" d="M1585,-98C1585,-98 1304,-98 1304,-98 1298,-98 1292,-92 1292,-86 1292,-86 1292,-12 1292,-12 1292,-6 1298,-0 1304,-0 1304,-0 1585,-0 1585,-0 1591,-0 1597,-6 1597,-12 1597,-12 1597,-86 1597,-86 1597,-92 1591,-98 1585,-98"/>
<text text-anchor="middle" x="1444.5" y="-82.8" font-family="Times,serif" font-size="14.00">forward</text>
<text text-anchor="middle" x="1444.5" y="-67.8" font-family="Times,serif" font-size="14.00">DB2/C0</text>
<text text-anchor="middle" x="1444.5" y="-52.8" font-family="Times,serif" font-size="14.00">dilation rate: 1 &#160;&#160;k width: 3</text>
<text text-anchor="middle" x="1444.5" y="-37.8" font-family="Times,serif" font-size="14.00">log gamma1: &#45;11.000000 &#160;&#160;log gamma2: &#45;11.000000</text>
<text text-anchor="middle" x="1444.5" y="-22.8" font-family="Times,serif" font-size="14.00">log lambda1: &#45;11.000000 &#160;&#160;log lambda2: &#45;11.000000</text>
<text text-anchor="middle" x="1444.5" y="-7.8" font-family="Times,serif" font-size="14.00">n kernels: 64</text>
</g>
<!-- 12&#45;&gt;18 -->
<g id="edge18" class="edge"><title>12&#45;&gt;18</title>
<path fill="none" stroke="black" d="M1444.5,-133.827C1444.5,-126.111 1444.5,-117.31 1444.5,-108.379"/>
<polygon fill="black" stroke="black" points="1448,-108.292 1444.5,-98.2922 1441,-108.292 1448,-108.292"/>
</g>
<!-- 19 -->
<g id="node20" class="node"><title>19</title>
<path fill="#debfe6" stroke="black" d="M1908,-98C1908,-98 1627,-98 1627,-98 1621,-98 1615,-92 1615,-86 1615,-86 1615,-12 1615,-12 1615,-6 1621,-0 1627,-0 1627,-0 1908,-0 1908,-0 1914,-0 1920,-6 1920,-12 1920,-12 1920,-86 1920,-86 1920,-92 1914,-98 1908,-98"/>
<text text-anchor="middle" x="1767.5" y="-82.8" font-family="Times,serif" font-size="14.00">merge</text>
<text text-anchor="middle" x="1767.5" y="-67.8" font-family="Times,serif" font-size="14.00">EB1/C0</text>
<text text-anchor="middle" x="1767.5" y="-52.8" font-family="Times,serif" font-size="14.00">dilation rate: 1 &#160;&#160;k width: 3</text>
<text text-anchor="middle" x="1767.5" y="-37.8" font-family="Times,serif" font-size="14.00">log gamma1: &#45;11.000000 &#160;&#160;log gamma2: &#45;11.000000</text>
<text text-anchor="middle" x="1767.5" y="-22.8" font-family="Times,serif" font-size="14.00">log lambda1: &#45;11.000000 &#160;&#160;log lambda2: &#45;11.000000</text>
<text text-anchor="middle" x="1767.5" y="-7.8" font-family="Times,serif" font-size="14.00">n kernels: 64</text>
</g>
<!-- 12&#45;&gt;19 -->
<g id="edge19" class="edge"><title>12&#45;&gt;19</title>
<path fill="none" stroke="black" d="M1519.82,-133.965C1548.58,-124.216 1582.49,-112.719 1615.85,-101.412"/>
<polygon fill="black" stroke="black" points="1617.35,-104.596 1625.7,-98.0711 1615.11,-97.9671 1617.35,-104.596"/>
</g>
<!-- 20 -->
<g id="node21" class="node"><title>20</title>
<path fill="#f6d3ff" stroke="black" d="M2231,-98C2231,-98 1950,-98 1950,-98 1944,-98 1938,-92 1938,-86 1938,-86 1938,-12 1938,-12 1938,-6 1944,-0 1950,-0 1950,-0 2231,-0 2231,-0 2237,-0 2243,-6 2243,-12 2243,-12 2243,-86 2243,-86 2243,-92 2237,-98 2231,-98"/>
<text text-anchor="middle" x="2090.5" y="-82.8" font-family="Times,serif" font-size="14.00">forward</text>
<text text-anchor="middle" x="2090.5" y="-67.8" font-family="Times,serif" font-size="14.00">DB1/C0</text>
<text text-anchor="middle" x="2090.5" y="-52.8" font-family="Times,serif" font-size="14.00">dilation rate: 1 &#160;&#160;k width: 3</text>
<text text-anchor="middle" x="2090.5" y="-37.8" font-family="Times,serif" font-size="14.00">log gamma1: &#45;11.000000 &#160;&#160;log gamma2: &#45;11.000000</text>
<text text-anchor="middle" x="2090.5" y="-22.8" font-family="Times,serif" font-size="14.00">log lambda1: &#45;11.000000 &#160;&#160;log lambda2: &#45;11.000000</text>
<text text-anchor="middle" x="2090.5" y="-7.8" font-family="Times,serif" font-size="14.00">n kernels: 64</text>
</g>
<!-- 13&#45;&gt;20 -->
<g id="edge20" class="edge"><title>13&#45;&gt;20</title>
<path fill="none" stroke="black" d="M2090.5,-141.418C2090.5,-132.212 2090.5,-120.445 2090.5,-108.441"/>
<polygon fill="black" stroke="black" points="2094,-108.352 2090.5,-98.352 2087,-108.352 2094,-108.352"/>
</g>
<!-- 21 -->
<g id="node22" class="node"><title>21</title>
<path fill="#debfe6" stroke="black" d="M2554,-98C2554,-98 2273,-98 2273,-98 2267,-98 2261,-92 2261,-86 2261,-86 2261,-12 2261,-12 2261,-6 2267,-0 2273,-0 2273,-0 2554,-0 2554,-0 2560,-0 2566,-6 2566,-12 2566,-12 2566,-86 2566,-86 2566,-92 2560,-98 2554,-98"/>
<text text-anchor="middle" x="2413.5" y="-82.8" font-family="Times,serif" font-size="14.00">merge</text>
<text text-anchor="middle" x="2413.5" y="-67.8" font-family="Times,serif" font-size="14.00">EB0/C1</text>
<text text-anchor="middle" x="2413.5" y="-52.8" font-family="Times,serif" font-size="14.00">dilation rate: 1 &#160;&#160;k width: 3</text>
<text text-anchor="middle" x="2413.5" y="-37.8" font-family="Times,serif" font-size="14.00">log gamma1: &#45;11.000000 &#160;&#160;log gamma2: &#45;11.000000</text>
<text text-anchor="middle" x="2413.5" y="-22.8" font-family="Times,serif" font-size="14.00">log lambda1: &#45;11.000000 &#160;&#160;log lambda2: &#45;11.000000</text>
<text text-anchor="middle" x="2413.5" y="-7.8" font-family="Times,serif" font-size="14.00">n kernels: 64</text>
</g>
<!-- 13&#45;&gt;21 -->
<g id="edge21" class="edge"><title>13&#45;&gt;21</title>
<path fill="none" stroke="black" d="M2143.84,-141.418C2176.32,-130.406 2219.61,-115.731 2261.98,-101.367"/>
<polygon fill="black" stroke="black" points="2263.22,-104.641 2271.57,-98.1154 2260.98,-98.0114 2263.22,-104.641"/>
</g>
</g>
</svg>
