<?xml version="1.0" encoding="UTF-8" standalone="no"?>
<!DOCTYPE svg PUBLIC "-//W3C//DTD SVG 1.1//EN"
 "http://www.w3.org/Graphics/SVG/1.1/DTD/svg11.dtd">
<!-- Generated by graphviz version 2.38.0 (20140413.2041)
 -->
<!-- Title: %3 Pages: 1 -->
<svg width="2875pt" height="357pt"
 viewBox="0.00 0.00 2874.50 357.00" xmlns="http://www.w3.org/2000/svg" xmlns:xlink="http://www.w3.org/1999/xlink">
<g id="graph0" class="graph" transform="scale(1 1) rotate(0) translate(4 353)">
<title>%3</title>
<polygon fill="none" stroke="none" points="-4,4 -4,-353 2870.5,-353 2870.5,4 -4,4"/>
<!-- 0 -->
<g id="node1" class="node"><title>0</title>
<path fill="#ffd3d3" stroke="black" d="M1171,-349C1171,-349 1014,-349 1014,-349 1008,-349 1002,-343 1002,-337 1002,-337 1002,-323 1002,-323 1002,-317 1008,-311 1014,-311 1014,-311 1171,-311 1171,-311 1177,-311 1183,-317 1183,-323 1183,-323 1183,-337 1183,-337 1183,-343 1177,-349 1171,-349"/>
<text text-anchor="middle" x="1092.5" y="-333.8" font-family="Times,serif" font-size="14.00">net</text>
<text text-anchor="middle" x="1092.5" y="-318.8" font-family="Times,serif" font-size="14.00">n kernels: 85 &#160;&#160;pooling type: 0</text>
</g>
<!-- 1 -->
<g id="node2" class="node"><title>1</title>
<path fill="#f6ffd3" stroke="black" d="M579.5,-275C579.5,-275 523.5,-275 523.5,-275 517.5,-275 511.5,-269 511.5,-263 511.5,-263 511.5,-249 511.5,-249 511.5,-243 517.5,-237 523.5,-237 523.5,-237 579.5,-237 579.5,-237 585.5,-237 591.5,-243 591.5,-249 591.5,-249 591.5,-263 591.5,-263 591.5,-269 585.5,-275 579.5,-275"/>
<text text-anchor="middle" x="551.5" y="-259.8" font-family="Times,serif" font-size="14.00">encoder</text>
<text text-anchor="middle" x="551.5" y="-244.8" font-family="Times,serif" font-size="14.00">n kernels: 2</text>
</g>
<!-- 0&#45;&gt;1 -->
<g id="edge1" class="edge"><title>0&#45;&gt;1</title>
<path fill="none" stroke="black" d="M1001.95,-316.949C887.108,-301.665 693.071,-275.841 601.802,-263.695"/>
<polygon fill="black" stroke="black" points="602.093,-260.202 591.718,-262.353 601.169,-267.141 602.093,-260.202"/>
</g>
<!-- 2 -->
<g id="node3" class="node"><title>2</title>
<path fill="#f6ffd3" stroke="black" d="M1670,-274C1670,-274 1635,-274 1635,-274 1629,-274 1623,-268 1623,-262 1623,-262 1623,-250 1623,-250 1623,-244 1629,-238 1635,-238 1635,-238 1670,-238 1670,-238 1676,-238 1682,-244 1682,-250 1682,-250 1682,-262 1682,-262 1682,-268 1676,-274 1670,-274"/>
<text text-anchor="middle" x="1652.5" y="-252.3" font-family="Times,serif" font-size="14.00">decoder</text>
</g>
<!-- 0&#45;&gt;2 -->
<g id="edge2" class="edge"><title>0&#45;&gt;2</title>
<path fill="none" stroke="black" d="M1183.1,-317.352C1306.97,-301.426 1523.94,-273.529 1612.82,-262.102"/>
<polygon fill="black" stroke="black" points="1613.29,-265.57 1622.76,-260.823 1612.4,-258.627 1613.29,-265.57"/>
</g>
<!-- 3 -->
<g id="node4" class="node"><title>3</title>
<path fill="#d3ffe4" stroke="black" d="M164,-193.5C164,-193.5 89,-193.5 89,-193.5 83,-193.5 77,-187.5 77,-181.5 77,-181.5 77,-167.5 77,-167.5 77,-161.5 83,-155.5 89,-155.5 89,-155.5 164,-155.5 164,-155.5 170,-155.5 176,-161.5 176,-167.5 176,-167.5 176,-181.5 176,-181.5 176,-187.5 170,-193.5 164,-193.5"/>
<text text-anchor="middle" x="126.5" y="-178.3" font-family="Times,serif" font-size="14.00">encode block 0</text>
<text text-anchor="middle" x="126.5" y="-163.3" font-family="Times,serif" font-size="14.00">n kernels: &#45;9</text>
</g>
<!-- 1&#45;&gt;3 -->
<g id="edge3" class="edge"><title>1&#45;&gt;3</title>
<path fill="none" stroke="black" d="M511.252,-249.799C448.692,-241.409 324.495,-223.526 220.5,-201 209.252,-198.564 197.34,-195.62 185.913,-192.612"/>
<polygon fill="black" stroke="black" points="186.59,-189.17 176.025,-189.962 184.778,-195.931 186.59,-189.17"/>
</g>
<!-- 4 -->
<g id="node5" class="node"><title>4</title>
<path fill="#bfe6cf" stroke="black" d="M403,-193.5C403,-193.5 242,-193.5 242,-193.5 236,-193.5 230,-187.5 230,-181.5 230,-181.5 230,-167.5 230,-167.5 230,-161.5 236,-155.5 242,-155.5 242,-155.5 403,-155.5 403,-155.5 409,-155.5 415,-161.5 415,-167.5 415,-167.5 415,-181.5 415,-181.5 415,-187.5 409,-193.5 403,-193.5"/>
<text text-anchor="middle" x="322.5" y="-178.3" font-family="Times,serif" font-size="14.00">encode block 1</text>
<text text-anchor="middle" x="322.5" y="-163.3" font-family="Times,serif" font-size="14.00">n kernels: 110 &#160;&#160;spatial scale: 1</text>
</g>
<!-- 1&#45;&gt;4 -->
<g id="edge4" class="edge"><title>1&#45;&gt;4</title>
<path fill="none" stroke="black" d="M511.349,-241.061C476.198,-228.858 424.577,-210.937 384.185,-196.915"/>
<polygon fill="black" stroke="black" points="385.296,-193.595 374.701,-193.622 383,-200.208 385.296,-193.595"/>
</g>
<!-- 5 -->
<g id="node6" class="node"><title>5</title>
<path fill="#abceb9" stroke="black" d="M658,-201C658,-201 445,-201 445,-201 439,-201 433,-195 433,-189 433,-189 433,-160 433,-160 433,-154 439,-148 445,-148 445,-148 658,-148 658,-148 664,-148 670,-154 670,-160 670,-160 670,-189 670,-189 670,-195 664,-201 658,-201"/>
<text text-anchor="middle" x="551.5" y="-185.8" font-family="Times,serif" font-size="14.00">encode block 2</text>
<text text-anchor="middle" x="551.5" y="-170.8" font-family="Times,serif" font-size="14.00">log gamma1: &#45;0.085116 &#160;&#160;n kernels: 412</text>
<text text-anchor="middle" x="551.5" y="-155.8" font-family="Times,serif" font-size="14.00">spatial scale: 2</text>
</g>
<!-- 1&#45;&gt;5 -->
<g id="edge5" class="edge"><title>1&#45;&gt;5</title>
<path fill="none" stroke="black" d="M551.5,-236.96C551.5,-229.321 551.5,-220.139 551.5,-211.229"/>
<polygon fill="black" stroke="black" points="555,-211.003 551.5,-201.003 548,-211.003 555,-211.003"/>
</g>
<!-- 6 -->
<g id="node7" class="node"><title>6</title>
<path fill="#97b6a3" stroke="black" d="M912.5,-193.5C912.5,-193.5 744.5,-193.5 744.5,-193.5 738.5,-193.5 732.5,-187.5 732.5,-181.5 732.5,-181.5 732.5,-167.5 732.5,-167.5 732.5,-161.5 738.5,-155.5 744.5,-155.5 744.5,-155.5 912.5,-155.5 912.5,-155.5 918.5,-155.5 924.5,-161.5 924.5,-167.5 924.5,-167.5 924.5,-181.5 924.5,-181.5 924.5,-187.5 918.5,-193.5 912.5,-193.5"/>
<text text-anchor="middle" x="828.5" y="-178.3" font-family="Times,serif" font-size="14.00">encode block 3</text>
<text text-anchor="middle" x="828.5" y="-163.3" font-family="Times,serif" font-size="14.00">n kernels: 1016 &#160;&#160;spatial scale: 3</text>
</g>
<!-- 1&#45;&gt;6 -->
<g id="edge6" class="edge"><title>1&#45;&gt;6</title>
<path fill="none" stroke="black" d="M591.778,-243.44C634.631,-231.141 703.331,-211.424 755.71,-196.391"/>
<polygon fill="black" stroke="black" points="756.976,-199.669 765.623,-193.546 755.045,-192.941 756.976,-199.669"/>
</g>
<!-- 7 -->
<g id="node8" class="node"><title>7</title>
<path fill="#d3ffe4" stroke="black" d="M1321.5,-193.5C1321.5,-193.5 1153.5,-193.5 1153.5,-193.5 1147.5,-193.5 1141.5,-187.5 1141.5,-181.5 1141.5,-181.5 1141.5,-167.5 1141.5,-167.5 1141.5,-161.5 1147.5,-155.5 1153.5,-155.5 1153.5,-155.5 1321.5,-155.5 1321.5,-155.5 1327.5,-155.5 1333.5,-161.5 1333.5,-167.5 1333.5,-167.5 1333.5,-181.5 1333.5,-181.5 1333.5,-187.5 1327.5,-193.5 1321.5,-193.5"/>
<text text-anchor="middle" x="1237.5" y="-178.3" font-family="Times,serif" font-size="14.00">decode block 4</text>
<text text-anchor="middle" x="1237.5" y="-163.3" font-family="Times,serif" font-size="14.00">n kernels: 4448 &#160;&#160;spatial scale: 4</text>
</g>
<!-- 2&#45;&gt;7 -->
<g id="edge7" class="edge"><title>2&#45;&gt;7</title>
<path fill="none" stroke="black" d="M1622.93,-249.626C1570.59,-240.079 1458.19,-219.428 1363.5,-201 1354.39,-199.228 1344.92,-197.359 1335.45,-195.472"/>
<polygon fill="black" stroke="black" points="1336.08,-192.029 1325.59,-193.502 1334.71,-198.893 1336.08,-192.029"/>
</g>
<!-- 8 -->
<g id="node9" class="node"><title>8</title>
<path fill="#bfe6cf" stroke="black" d="M1644,-201C1644,-201 1385,-201 1385,-201 1379,-201 1373,-195 1373,-189 1373,-189 1373,-160 1373,-160 1373,-154 1379,-148 1385,-148 1385,-148 1644,-148 1644,-148 1650,-148 1656,-154 1656,-160 1656,-160 1656,-189 1656,-189 1656,-195 1650,-201 1644,-201"/>
<text text-anchor="middle" x="1514.5" y="-185.8" font-family="Times,serif" font-size="14.00">decode block 3</text>
<text text-anchor="middle" x="1514.5" y="-170.8" font-family="Times,serif" font-size="14.00">log gamma1: 0.293817 &#160;&#160;log gamma2: 0.106361</text>
<text text-anchor="middle" x="1514.5" y="-155.8" font-family="Times,serif" font-size="14.00">n kernels: 1936 &#160;&#160;spatial scale: 3</text>
</g>
<!-- 2&#45;&gt;8 -->
<g id="edge8" class="edge"><title>2&#45;&gt;8</title>
<path fill="none" stroke="black" d="M1622.9,-237.945C1606.83,-228.689 1586.48,-216.965 1567.76,-206.18"/>
<polygon fill="black" stroke="black" points="1569.42,-203.1 1559.01,-201.141 1565.93,-209.166 1569.42,-203.1"/>
</g>
<!-- 9 -->
<g id="node10" class="node"><title>9</title>
<path fill="#abceb9" stroke="black" d="M1890.5,-201C1890.5,-201 1690.5,-201 1690.5,-201 1684.5,-201 1678.5,-195 1678.5,-189 1678.5,-189 1678.5,-160 1678.5,-160 1678.5,-154 1684.5,-148 1690.5,-148 1690.5,-148 1890.5,-148 1890.5,-148 1896.5,-148 1902.5,-154 1902.5,-160 1902.5,-160 1902.5,-189 1902.5,-189 1902.5,-195 1896.5,-201 1890.5,-201"/>
<text text-anchor="middle" x="1790.5" y="-185.8" font-family="Times,serif" font-size="14.00">decode block 2</text>
<text text-anchor="middle" x="1790.5" y="-170.8" font-family="Times,serif" font-size="14.00">log gamma1: &#45;0.155951 &#160;&#160;n kernels: 4</text>
<text text-anchor="middle" x="1790.5" y="-155.8" font-family="Times,serif" font-size="14.00">spatial scale: 2</text>
</g>
<!-- 2&#45;&gt;9 -->
<g id="edge9" class="edge"><title>2&#45;&gt;9</title>
<path fill="none" stroke="black" d="M1682.1,-237.945C1698.17,-228.689 1718.52,-216.965 1737.24,-206.18"/>
<polygon fill="black" stroke="black" points="1739.07,-209.166 1745.99,-201.141 1735.58,-203.1 1739.07,-209.166"/>
</g>
<!-- 10 -->
<g id="node11" class="node"><title>10</title>
<path fill="#97b6a3" stroke="black" d="M2402,-193.5C2402,-193.5 2243,-193.5 2243,-193.5 2237,-193.5 2231,-187.5 2231,-181.5 2231,-181.5 2231,-167.5 2231,-167.5 2231,-161.5 2237,-155.5 2243,-155.5 2243,-155.5 2402,-155.5 2402,-155.5 2408,-155.5 2414,-161.5 2414,-167.5 2414,-167.5 2414,-181.5 2414,-181.5 2414,-187.5 2408,-193.5 2402,-193.5"/>
<text text-anchor="middle" x="2322.5" y="-178.3" font-family="Times,serif" font-size="14.00">decode block 1</text>
<text text-anchor="middle" x="2322.5" y="-163.3" font-family="Times,serif" font-size="14.00">n kernels: &#45;10 &#160;&#160;spatial scale: 1</text>
</g>
<!-- 2&#45;&gt;10 -->
<g id="edge10" class="edge"><title>2&#45;&gt;10</title>
<path fill="none" stroke="black" d="M1682.15,-251.481C1775.27,-240.433 2064.87,-206.069 2220.74,-187.574"/>
<polygon fill="black" stroke="black" points="2221.29,-191.034 2230.81,-186.38 2220.47,-184.082 2221.29,-191.034"/>
</g>
<!-- 11 -->
<g id="node12" class="node"><title>11</title>
<path fill="#839e8d" stroke="black" d="M2691,-192.5C2691,-192.5 2616,-192.5 2616,-192.5 2610,-192.5 2604,-186.5 2604,-180.5 2604,-180.5 2604,-168.5 2604,-168.5 2604,-162.5 2610,-156.5 2616,-156.5 2616,-156.5 2691,-156.5 2691,-156.5 2697,-156.5 2703,-162.5 2703,-168.5 2703,-168.5 2703,-180.5 2703,-180.5 2703,-186.5 2697,-192.5 2691,-192.5"/>
<text text-anchor="middle" x="2653.5" y="-170.8" font-family="Times,serif" font-size="14.00">decode block 0</text>
</g>
<!-- 2&#45;&gt;11 -->
<g id="edge11" class="edge"><title>2&#45;&gt;11</title>
<path fill="none" stroke="black" d="M1682.26,-253.342C1785.05,-247.524 2134.55,-226.98 2422.5,-201 2480.78,-195.742 2547.17,-188.257 2593.77,-182.756"/>
<polygon fill="black" stroke="black" points="2594.47,-186.197 2603.99,-181.544 2593.65,-179.246 2594.47,-186.197"/>
</g>
<!-- 12 -->
<g id="node13" class="node"><title>12</title>
<path fill="#d3e4ff" stroke="black" d="M47.5,-111C47.5,-111 13.5,-111 13.5,-111 7.5,-111 1.5,-105 1.5,-99 1.5,-99 1.5,-87 1.5,-87 1.5,-81 7.5,-75 13.5,-75 13.5,-75 47.5,-75 47.5,-75 53.5,-75 59.5,-81 59.5,-87 59.5,-87 59.5,-99 59.5,-99 59.5,-105 53.5,-111 47.5,-111"/>
<text text-anchor="middle" x="30.5" y="-89.3" font-family="Times,serif" font-size="14.00">comp 0</text>
</g>
<!-- 3&#45;&gt;12 -->
<g id="edge12" class="edge"><title>3&#45;&gt;12</title>
<path fill="none" stroke="black" d="M104.716,-155.46C91.1799,-144.251 73.6313,-129.718 58.9969,-117.599"/>
<polygon fill="black" stroke="black" points="61.1448,-114.833 51.2105,-111.151 56.6801,-120.225 61.1448,-114.833"/>
</g>
<!-- 13 -->
<g id="node14" class="node"><title>13</title>
<path fill="#bfcfe6" stroke="black" d="M124.5,-111C124.5,-111 90.5,-111 90.5,-111 84.5,-111 78.5,-105 78.5,-99 78.5,-99 78.5,-87 78.5,-87 78.5,-81 84.5,-75 90.5,-75 90.5,-75 124.5,-75 124.5,-75 130.5,-75 136.5,-81 136.5,-87 136.5,-87 136.5,-99 136.5,-99 136.5,-105 130.5,-111 124.5,-111"/>
<text text-anchor="middle" x="107.5" y="-89.3" font-family="Times,serif" font-size="14.00">comp 1</text>
</g>
<!-- 3&#45;&gt;13 -->
<g id="edge13" class="edge"><title>3&#45;&gt;13</title>
<path fill="none" stroke="black" d="M122.189,-155.46C119.758,-145.288 116.673,-132.381 113.958,-121.023"/>
<polygon fill="black" stroke="black" points="117.328,-120.063 111.599,-111.151 110.519,-121.691 117.328,-120.063"/>
</g>
<!-- 14 -->
<g id="node15" class="node"><title>14</title>
<path fill="#abb9ce" stroke="black" d="M201.5,-111C201.5,-111 167.5,-111 167.5,-111 161.5,-111 155.5,-105 155.5,-99 155.5,-99 155.5,-87 155.5,-87 155.5,-81 161.5,-75 167.5,-75 167.5,-75 201.5,-75 201.5,-75 207.5,-75 213.5,-81 213.5,-87 213.5,-87 213.5,-99 213.5,-99 213.5,-105 207.5,-111 201.5,-111"/>
<text text-anchor="middle" x="184.5" y="-89.3" font-family="Times,serif" font-size="14.00">comp 2</text>
</g>
<!-- 3&#45;&gt;14 -->
<g id="edge14" class="edge"><title>3&#45;&gt;14</title>
<path fill="none" stroke="black" d="M139.661,-155.46C147.461,-144.77 157.465,-131.057 166.044,-119.297"/>
<polygon fill="black" stroke="black" points="168.921,-121.292 171.987,-111.151 163.266,-117.167 168.921,-121.292"/>
</g>
<!-- 15 -->
<g id="node16" class="node"><title>15</title>
<path fill="#d3e4ff" stroke="black" d="M280.5,-111C280.5,-111 246.5,-111 246.5,-111 240.5,-111 234.5,-105 234.5,-99 234.5,-99 234.5,-87 234.5,-87 234.5,-81 240.5,-75 246.5,-75 246.5,-75 280.5,-75 280.5,-75 286.5,-75 292.5,-81 292.5,-87 292.5,-87 292.5,-99 292.5,-99 292.5,-105 286.5,-111 280.5,-111"/>
<text text-anchor="middle" x="263.5" y="-89.3" font-family="Times,serif" font-size="14.00">comp 0</text>
</g>
<!-- 4&#45;&gt;15 -->
<g id="edge15" class="edge"><title>4&#45;&gt;15</title>
<path fill="none" stroke="black" d="M309.112,-155.46C301.178,-144.77 291.001,-131.057 282.274,-119.297"/>
<polygon fill="black" stroke="black" points="284.998,-117.095 276.228,-111.151 279.377,-121.267 284.998,-117.095"/>
</g>
<!-- 16 -->
<g id="node17" class="node"><title>16</title>
<path fill="#bfcfe6" stroke="black" d="M357.5,-111C357.5,-111 323.5,-111 323.5,-111 317.5,-111 311.5,-105 311.5,-99 311.5,-99 311.5,-87 311.5,-87 311.5,-81 317.5,-75 323.5,-75 323.5,-75 357.5,-75 357.5,-75 363.5,-75 369.5,-81 369.5,-87 369.5,-87 369.5,-99 369.5,-99 369.5,-105 363.5,-111 357.5,-111"/>
<text text-anchor="middle" x="340.5" y="-89.3" font-family="Times,serif" font-size="14.00">comp 1</text>
</g>
<!-- 4&#45;&gt;16 -->
<g id="edge16" class="edge"><title>4&#45;&gt;16</title>
<path fill="none" stroke="black" d="M326.584,-155.46C328.888,-145.288 331.81,-132.381 334.382,-121.023"/>
<polygon fill="black" stroke="black" points="337.822,-121.677 336.617,-111.151 330.995,-120.131 337.822,-121.677"/>
</g>
<!-- 17 -->
<g id="node18" class="node"><title>17</title>
<path fill="#d3e4ff" stroke="black" d="M436.5,-111C436.5,-111 402.5,-111 402.5,-111 396.5,-111 390.5,-105 390.5,-99 390.5,-99 390.5,-87 390.5,-87 390.5,-81 396.5,-75 402.5,-75 402.5,-75 436.5,-75 436.5,-75 442.5,-75 448.5,-81 448.5,-87 448.5,-87 448.5,-99 448.5,-99 448.5,-105 442.5,-111 436.5,-111"/>
<text text-anchor="middle" x="419.5" y="-89.3" font-family="Times,serif" font-size="14.00">comp 0</text>
</g>
<!-- 5&#45;&gt;17 -->
<g id="edge17" class="edge"><title>5&#45;&gt;17</title>
<path fill="none" stroke="black" d="M509.008,-147.908C492.093,-137.721 472.808,-126.106 456.481,-116.273"/>
<polygon fill="black" stroke="black" points="458.121,-113.175 447.749,-111.014 454.51,-119.171 458.121,-113.175"/>
</g>
<!-- 18 -->
<g id="node19" class="node"><title>18</title>
<path fill="#bfcfe6" stroke="black" d="M512.5,-111C512.5,-111 478.5,-111 478.5,-111 472.5,-111 466.5,-105 466.5,-99 466.5,-99 466.5,-87 466.5,-87 466.5,-81 472.5,-75 478.5,-75 478.5,-75 512.5,-75 512.5,-75 518.5,-75 524.5,-81 524.5,-87 524.5,-87 524.5,-99 524.5,-99 524.5,-105 518.5,-111 512.5,-111"/>
<text text-anchor="middle" x="495.5" y="-89.3" font-family="Times,serif" font-size="14.00">comp 1</text>
</g>
<!-- 5&#45;&gt;18 -->
<g id="edge18" class="edge"><title>5&#45;&gt;18</title>
<path fill="none" stroke="black" d="M533.473,-147.908C527.076,-138.827 519.881,-128.612 513.487,-119.535"/>
<polygon fill="black" stroke="black" points="516.276,-117.416 507.655,-111.256 510.553,-121.447 516.276,-117.416"/>
</g>
<!-- 19 -->
<g id="node20" class="node"><title>19</title>
<path fill="#abb9ce" stroke="black" d="M674.5,-112C674.5,-112 554.5,-112 554.5,-112 548.5,-112 542.5,-106 542.5,-100 542.5,-100 542.5,-86 542.5,-86 542.5,-80 548.5,-74 554.5,-74 554.5,-74 674.5,-74 674.5,-74 680.5,-74 686.5,-80 686.5,-86 686.5,-86 686.5,-100 686.5,-100 686.5,-106 680.5,-112 674.5,-112"/>
<text text-anchor="middle" x="614.5" y="-96.8" font-family="Times,serif" font-size="14.00">comp 2</text>
<text text-anchor="middle" x="614.5" y="-81.8" font-family="Times,serif" font-size="14.00">log gamma1: 0.172223</text>
</g>
<!-- 5&#45;&gt;19 -->
<g id="edge19" class="edge"><title>5&#45;&gt;19</title>
<path fill="none" stroke="black" d="M571.78,-147.908C578.831,-139.011 586.743,-129.026 593.825,-120.09"/>
<polygon fill="black" stroke="black" points="596.579,-122.25 600.047,-112.239 591.093,-117.903 596.579,-122.25"/>
</g>
<!-- 20 -->
<g id="node21" class="node"><title>20</title>
<path fill="#d3e4ff" stroke="black" d="M750.5,-111C750.5,-111 716.5,-111 716.5,-111 710.5,-111 704.5,-105 704.5,-99 704.5,-99 704.5,-87 704.5,-87 704.5,-81 710.5,-75 716.5,-75 716.5,-75 750.5,-75 750.5,-75 756.5,-75 762.5,-81 762.5,-87 762.5,-87 762.5,-99 762.5,-99 762.5,-105 756.5,-111 750.5,-111"/>
<text text-anchor="middle" x="733.5" y="-89.3" font-family="Times,serif" font-size="14.00">comp 0</text>
</g>
<!-- 6&#45;&gt;20 -->
<g id="edge20" class="edge"><title>6&#45;&gt;20</title>
<path fill="none" stroke="black" d="M806.943,-155.46C793.548,-144.251 776.182,-129.718 761.7,-117.599"/>
<polygon fill="black" stroke="black" points="763.91,-114.885 753.995,-111.151 759.418,-120.253 763.91,-114.885"/>
</g>
<!-- 21 -->
<g id="node22" class="node"><title>21</title>
<path fill="#bfcfe6" stroke="black" d="M917,-112C917,-112 792,-112 792,-112 786,-112 780,-106 780,-100 780,-100 780,-86 780,-86 780,-80 786,-74 792,-74 792,-74 917,-74 917,-74 923,-74 929,-80 929,-86 929,-86 929,-100 929,-100 929,-106 923,-112 917,-112"/>
<text text-anchor="middle" x="854.5" y="-96.8" font-family="Times,serif" font-size="14.00">comp 1</text>
<text text-anchor="middle" x="854.5" y="-81.8" font-family="Times,serif" font-size="14.00">log gamma2: &#45;0.293344</text>
</g>
<!-- 6&#45;&gt;21 -->
<g id="edge21" class="edge"><title>6&#45;&gt;21</title>
<path fill="none" stroke="black" d="M834.4,-155.46C837.635,-145.569 841.716,-133.091 845.354,-121.966"/>
<polygon fill="black" stroke="black" points="848.752,-122.836 848.534,-112.244 842.098,-120.66 848.752,-122.836"/>
</g>
<!-- 22 -->
<g id="node23" class="node"><title>22</title>
<path fill="#abb9ce" stroke="black" d="M992.5,-111C992.5,-111 958.5,-111 958.5,-111 952.5,-111 946.5,-105 946.5,-99 946.5,-99 946.5,-87 946.5,-87 946.5,-81 952.5,-75 958.5,-75 958.5,-75 992.5,-75 992.5,-75 998.5,-75 1004.5,-81 1004.5,-87 1004.5,-87 1004.5,-99 1004.5,-99 1004.5,-105 998.5,-111 992.5,-111"/>
<text text-anchor="middle" x="975.5" y="-89.3" font-family="Times,serif" font-size="14.00">comp 2</text>
</g>
<!-- 6&#45;&gt;22 -->
<g id="edge22" class="edge"><title>6&#45;&gt;22</title>
<path fill="none" stroke="black" d="M861.857,-155.46C884.291,-143.327 913.924,-127.301 937.305,-114.656"/>
<polygon fill="black" stroke="black" points="939.123,-117.652 946.254,-109.817 935.793,-111.495 939.123,-117.652"/>
</g>
<!-- 23 -->
<g id="node24" class="node"><title>23</title>
<path fill="#d3e4ff" stroke="black" d="M1159,-112C1159,-112 1034,-112 1034,-112 1028,-112 1022,-106 1022,-100 1022,-100 1022,-86 1022,-86 1022,-80 1028,-74 1034,-74 1034,-74 1159,-74 1159,-74 1165,-74 1171,-80 1171,-86 1171,-86 1171,-100 1171,-100 1171,-106 1165,-112 1159,-112"/>
<text text-anchor="middle" x="1096.5" y="-96.8" font-family="Times,serif" font-size="14.00">comp 0</text>
<text text-anchor="middle" x="1096.5" y="-81.8" font-family="Times,serif" font-size="14.00">log gamma2: &#45;0.088447</text>
</g>
<!-- 7&#45;&gt;23 -->
<g id="edge23" class="edge"><title>7&#45;&gt;23</title>
<path fill="none" stroke="black" d="M1205.5,-155.46C1185.46,-144.156 1159.41,-129.473 1137.81,-117.293"/>
<polygon fill="black" stroke="black" points="1139.29,-114.106 1128.86,-112.244 1135.85,-120.204 1139.29,-114.106"/>
</g>
<!-- 24 -->
<g id="node25" class="node"><title>24</title>
<path fill="#bfcfe6" stroke="black" d="M1234.5,-111C1234.5,-111 1200.5,-111 1200.5,-111 1194.5,-111 1188.5,-105 1188.5,-99 1188.5,-99 1188.5,-87 1188.5,-87 1188.5,-81 1194.5,-75 1200.5,-75 1200.5,-75 1234.5,-75 1234.5,-75 1240.5,-75 1246.5,-81 1246.5,-87 1246.5,-87 1246.5,-99 1246.5,-99 1246.5,-105 1240.5,-111 1234.5,-111"/>
<text text-anchor="middle" x="1217.5" y="-89.3" font-family="Times,serif" font-size="14.00">comp 1</text>
</g>
<!-- 7&#45;&gt;24 -->
<g id="edge24" class="edge"><title>7&#45;&gt;24</title>
<path fill="none" stroke="black" d="M1232.96,-155.46C1230.4,-145.288 1227.16,-132.381 1224.3,-121.023"/>
<polygon fill="black" stroke="black" points="1227.65,-119.995 1221.81,-111.151 1220.86,-121.703 1227.65,-119.995"/>
</g>
<!-- 25 -->
<g id="node26" class="node"><title>25</title>
<path fill="#abb9ce" stroke="black" d="M1310.5,-111C1310.5,-111 1276.5,-111 1276.5,-111 1270.5,-111 1264.5,-105 1264.5,-99 1264.5,-99 1264.5,-87 1264.5,-87 1264.5,-81 1270.5,-75 1276.5,-75 1276.5,-75 1310.5,-75 1310.5,-75 1316.5,-75 1322.5,-81 1322.5,-87 1322.5,-87 1322.5,-99 1322.5,-99 1322.5,-105 1316.5,-111 1310.5,-111"/>
<text text-anchor="middle" x="1293.5" y="-89.3" font-family="Times,serif" font-size="14.00">comp 2</text>
</g>
<!-- 7&#45;&gt;25 -->
<g id="edge25" class="edge"><title>7&#45;&gt;25</title>
<path fill="none" stroke="black" d="M1250.21,-155.46C1257.66,-144.873 1267.21,-131.323 1275.44,-119.64"/>
<polygon fill="black" stroke="black" points="1278.52,-121.342 1281.42,-111.151 1272.8,-117.311 1278.52,-121.342"/>
</g>
<!-- 26 -->
<g id="node27" class="node"><title>26</title>
<path fill="#d3e4ff" stroke="black" d="M1442.5,-111C1442.5,-111 1408.5,-111 1408.5,-111 1402.5,-111 1396.5,-105 1396.5,-99 1396.5,-99 1396.5,-87 1396.5,-87 1396.5,-81 1402.5,-75 1408.5,-75 1408.5,-75 1442.5,-75 1442.5,-75 1448.5,-75 1454.5,-81 1454.5,-87 1454.5,-87 1454.5,-99 1454.5,-99 1454.5,-105 1448.5,-111 1442.5,-111"/>
<text text-anchor="middle" x="1425.5" y="-89.3" font-family="Times,serif" font-size="14.00">comp 0</text>
</g>
<!-- 8&#45;&gt;26 -->
<g id="edge26" class="edge"><title>8&#45;&gt;26</title>
<path fill="none" stroke="black" d="M1485.85,-147.908C1475.08,-138.287 1462.88,-127.392 1452.29,-117.928"/>
<polygon fill="black" stroke="black" points="1454.34,-115.065 1444.55,-111.014 1449.67,-120.286 1454.34,-115.065"/>
</g>
<!-- 27 -->
<g id="node28" class="node"><title>27</title>
<path fill="#bfcfe6" stroke="black" d="M1540.5,-112C1540.5,-112 1484.5,-112 1484.5,-112 1478.5,-112 1472.5,-106 1472.5,-100 1472.5,-100 1472.5,-86 1472.5,-86 1472.5,-80 1478.5,-74 1484.5,-74 1484.5,-74 1540.5,-74 1540.5,-74 1546.5,-74 1552.5,-80 1552.5,-86 1552.5,-86 1552.5,-100 1552.5,-100 1552.5,-106 1546.5,-112 1540.5,-112"/>
<text text-anchor="middle" x="1512.5" y="-96.8" font-family="Times,serif" font-size="14.00">comp 1</text>
<text text-anchor="middle" x="1512.5" y="-81.8" font-family="Times,serif" font-size="14.00">n kernels: 5</text>
</g>
<!-- 8&#45;&gt;27 -->
<g id="edge27" class="edge"><title>8&#45;&gt;27</title>
<path fill="none" stroke="black" d="M1513.86,-147.908C1513.65,-139.738 1513.42,-130.649 1513.21,-122.298"/>
<polygon fill="black" stroke="black" points="1516.71,-122.148 1512.96,-112.239 1509.71,-122.324 1516.71,-122.148"/>
</g>
<!-- 28 -->
<g id="node29" class="node"><title>28</title>
<path fill="#abb9ce" stroke="black" d="M1616.5,-111C1616.5,-111 1582.5,-111 1582.5,-111 1576.5,-111 1570.5,-105 1570.5,-99 1570.5,-99 1570.5,-87 1570.5,-87 1570.5,-81 1576.5,-75 1582.5,-75 1582.5,-75 1616.5,-75 1616.5,-75 1622.5,-75 1628.5,-81 1628.5,-87 1628.5,-87 1628.5,-99 1628.5,-99 1628.5,-105 1622.5,-111 1616.5,-111"/>
<text text-anchor="middle" x="1599.5" y="-89.3" font-family="Times,serif" font-size="14.00">comp 2</text>
</g>
<!-- 8&#45;&gt;28 -->
<g id="edge28" class="edge"><title>8&#45;&gt;28</title>
<path fill="none" stroke="black" d="M1541.86,-147.908C1552.15,-138.287 1563.8,-127.392 1573.92,-117.928"/>
<polygon fill="black" stroke="black" points="1576.4,-120.401 1581.31,-111.014 1571.62,-115.288 1576.4,-120.401"/>
</g>
<!-- 29 -->
<g id="node30" class="node"><title>29</title>
<path fill="#d3e4ff" stroke="black" d="M1731.5,-111C1731.5,-111 1697.5,-111 1697.5,-111 1691.5,-111 1685.5,-105 1685.5,-99 1685.5,-99 1685.5,-87 1685.5,-87 1685.5,-81 1691.5,-75 1697.5,-75 1697.5,-75 1731.5,-75 1731.5,-75 1737.5,-75 1743.5,-81 1743.5,-87 1743.5,-87 1743.5,-99 1743.5,-99 1743.5,-105 1737.5,-111 1731.5,-111"/>
<text text-anchor="middle" x="1714.5" y="-89.3" font-family="Times,serif" font-size="14.00">comp 0</text>
</g>
<!-- 9&#45;&gt;29 -->
<g id="edge29" class="edge"><title>9&#45;&gt;29</title>
<path fill="none" stroke="black" d="M1766.03,-147.908C1757.08,-138.546 1746.98,-127.979 1738.11,-118.697"/>
<polygon fill="black" stroke="black" points="1740.44,-116.066 1731,-111.256 1735.38,-120.903 1740.44,-116.066"/>
</g>
<!-- 30 -->
<g id="node31" class="node"><title>30</title>
<path fill="#bfcfe6" stroke="black" d="M1807.5,-111C1807.5,-111 1773.5,-111 1773.5,-111 1767.5,-111 1761.5,-105 1761.5,-99 1761.5,-99 1761.5,-87 1761.5,-87 1761.5,-81 1767.5,-75 1773.5,-75 1773.5,-75 1807.5,-75 1807.5,-75 1813.5,-75 1819.5,-81 1819.5,-87 1819.5,-87 1819.5,-99 1819.5,-99 1819.5,-105 1813.5,-111 1807.5,-111"/>
<text text-anchor="middle" x="1790.5" y="-89.3" font-family="Times,serif" font-size="14.00">comp 1</text>
</g>
<!-- 9&#45;&gt;30 -->
<g id="edge30" class="edge"><title>9&#45;&gt;30</title>
<path fill="none" stroke="black" d="M1790.5,-147.908C1790.5,-139.482 1790.5,-130.08 1790.5,-121.517"/>
<polygon fill="black" stroke="black" points="1794,-121.256 1790.5,-111.256 1787,-121.256 1794,-121.256"/>
</g>
<!-- 31 -->
<g id="node32" class="node"><title>31</title>
<path fill="#abb9ce" stroke="black" d="M1883.5,-111C1883.5,-111 1849.5,-111 1849.5,-111 1843.5,-111 1837.5,-105 1837.5,-99 1837.5,-99 1837.5,-87 1837.5,-87 1837.5,-81 1843.5,-75 1849.5,-75 1849.5,-75 1883.5,-75 1883.5,-75 1889.5,-75 1895.5,-81 1895.5,-87 1895.5,-87 1895.5,-99 1895.5,-99 1895.5,-105 1889.5,-111 1883.5,-111"/>
<text text-anchor="middle" x="1866.5" y="-89.3" font-family="Times,serif" font-size="14.00">comp 2</text>
</g>
<!-- 9&#45;&gt;31 -->
<g id="edge31" class="edge"><title>9&#45;&gt;31</title>
<path fill="none" stroke="black" d="M1814.97,-147.908C1823.92,-138.546 1834.02,-127.979 1842.89,-118.697"/>
<polygon fill="black" stroke="black" points="1845.62,-120.903 1850,-111.256 1840.56,-116.066 1845.62,-120.903"/>
</g>
<!-- 32 -->
<g id="node33" class="node"><title>32</title>
<path fill="#97a3b6" stroke="black" d="M2050,-112C2050,-112 1925,-112 1925,-112 1919,-112 1913,-106 1913,-100 1913,-100 1913,-86 1913,-86 1913,-80 1919,-74 1925,-74 1925,-74 2050,-74 2050,-74 2056,-74 2062,-80 2062,-86 2062,-86 2062,-100 2062,-100 2062,-106 2056,-112 2050,-112"/>
<text text-anchor="middle" x="1987.5" y="-96.8" font-family="Times,serif" font-size="14.00">comp 3</text>
<text text-anchor="middle" x="1987.5" y="-81.8" font-family="Times,serif" font-size="14.00">log gamma1: &#45;0.006370</text>
</g>
<!-- 9&#45;&gt;32 -->
<g id="edge32" class="edge"><title>9&#45;&gt;32</title>
<path fill="none" stroke="black" d="M1853.92,-147.908C1879.44,-137.61 1908.57,-125.853 1933.1,-115.952"/>
<polygon fill="black" stroke="black" points="1934.65,-119.103 1942.61,-112.115 1932.03,-112.612 1934.65,-119.103"/>
</g>
<!-- 33 -->
<g id="node34" class="node"><title>33</title>
<path fill="#d3e4ff" stroke="black" d="M2360.5,-112C2360.5,-112 2092.5,-112 2092.5,-112 2086.5,-112 2080.5,-106 2080.5,-100 2080.5,-100 2080.5,-86 2080.5,-86 2080.5,-80 2086.5,-74 2092.5,-74 2092.5,-74 2360.5,-74 2360.5,-74 2366.5,-74 2372.5,-80 2372.5,-86 2372.5,-86 2372.5,-100 2372.5,-100 2372.5,-106 2366.5,-112 2360.5,-112"/>
<text text-anchor="middle" x="2226.5" y="-96.8" font-family="Times,serif" font-size="14.00">comp 0</text>
<text text-anchor="middle" x="2226.5" y="-81.8" font-family="Times,serif" font-size="14.00">log gamma1: &#45;0.054694 &#160;&#160;log gamma2: &#45;0.442350</text>
</g>
<!-- 10&#45;&gt;33 -->
<g id="edge33" class="edge"><title>10&#45;&gt;33</title>
<path fill="none" stroke="black" d="M2300.72,-155.46C2287.68,-144.661 2270.91,-130.777 2256.61,-118.939"/>
<polygon fill="black" stroke="black" points="2258.46,-115.926 2248.53,-112.244 2254,-121.317 2258.46,-115.926"/>
</g>
<!-- 34 -->
<g id="node35" class="node"><title>34</title>
<path fill="#bfcfe6" stroke="black" d="M2436.5,-111C2436.5,-111 2402.5,-111 2402.5,-111 2396.5,-111 2390.5,-105 2390.5,-99 2390.5,-99 2390.5,-87 2390.5,-87 2390.5,-81 2396.5,-75 2402.5,-75 2402.5,-75 2436.5,-75 2436.5,-75 2442.5,-75 2448.5,-81 2448.5,-87 2448.5,-87 2448.5,-99 2448.5,-99 2448.5,-105 2442.5,-111 2436.5,-111"/>
<text text-anchor="middle" x="2419.5" y="-89.3" font-family="Times,serif" font-size="14.00">comp 1</text>
</g>
<!-- 10&#45;&gt;34 -->
<g id="edge34" class="edge"><title>10&#45;&gt;34</title>
<path fill="none" stroke="black" d="M2344.51,-155.46C2358.19,-144.251 2375.92,-129.718 2390.71,-117.599"/>
<polygon fill="black" stroke="black" points="2393.06,-120.197 2398.57,-111.151 2388.62,-114.783 2393.06,-120.197"/>
</g>
<!-- 35 -->
<g id="node36" class="node"><title>35</title>
<path fill="#abb9ce" stroke="black" d="M2512.5,-111C2512.5,-111 2478.5,-111 2478.5,-111 2472.5,-111 2466.5,-105 2466.5,-99 2466.5,-99 2466.5,-87 2466.5,-87 2466.5,-81 2472.5,-75 2478.5,-75 2478.5,-75 2512.5,-75 2512.5,-75 2518.5,-75 2524.5,-81 2524.5,-87 2524.5,-87 2524.5,-99 2524.5,-99 2524.5,-105 2518.5,-111 2512.5,-111"/>
<text text-anchor="middle" x="2495.5" y="-89.3" font-family="Times,serif" font-size="14.00">comp 2</text>
</g>
<!-- 10&#45;&gt;35 -->
<g id="edge35" class="edge"><title>10&#45;&gt;35</title>
<path fill="none" stroke="black" d="M2362.44,-155.491C2387.25,-144.265 2420.01,-129.364 2456.99,-112.212"/>
<polygon fill="black" stroke="black" points="2458.88,-115.191 2466.47,-107.803 2455.93,-108.842 2458.88,-115.191"/>
</g>
<!-- 36 -->
<g id="node37" class="node"><title>36</title>
<path fill="#d3e4ff" stroke="black" d="M2610.5,-111C2610.5,-111 2576.5,-111 2576.5,-111 2570.5,-111 2564.5,-105 2564.5,-99 2564.5,-99 2564.5,-87 2564.5,-87 2564.5,-81 2570.5,-75 2576.5,-75 2576.5,-75 2610.5,-75 2610.5,-75 2616.5,-75 2622.5,-81 2622.5,-87 2622.5,-87 2622.5,-99 2622.5,-99 2622.5,-105 2616.5,-111 2610.5,-111"/>
<text text-anchor="middle" x="2593.5" y="-89.3" font-family="Times,serif" font-size="14.00">comp 0</text>
</g>
<!-- 11&#45;&gt;36 -->
<g id="edge36" class="edge"><title>11&#45;&gt;36</title>
<path fill="none" stroke="black" d="M2640.48,-156.25C2632.38,-145.519 2621.82,-131.527 2612.77,-119.527"/>
<polygon fill="black" stroke="black" points="2615.31,-117.09 2606.49,-111.217 2609.72,-121.307 2615.31,-117.09"/>
</g>
<!-- 37 -->
<g id="node38" class="node"><title>37</title>
<path fill="#bfcfe6" stroke="black" d="M2777,-112C2777,-112 2652,-112 2652,-112 2646,-112 2640,-106 2640,-100 2640,-100 2640,-86 2640,-86 2640,-80 2646,-74 2652,-74 2652,-74 2777,-74 2777,-74 2783,-74 2789,-80 2789,-86 2789,-86 2789,-100 2789,-100 2789,-106 2783,-112 2777,-112"/>
<text text-anchor="middle" x="2714.5" y="-96.8" font-family="Times,serif" font-size="14.00">comp 1</text>
<text text-anchor="middle" x="2714.5" y="-81.8" font-family="Times,serif" font-size="14.00">log gamma2: &#45;0.086518</text>
</g>
<!-- 11&#45;&gt;37 -->
<g id="edge37" class="edge"><title>11&#45;&gt;37</title>
<path fill="none" stroke="black" d="M2666.74,-156.25C2674.8,-145.74 2685.27,-132.101 2694.34,-120.27"/>
<polygon fill="black" stroke="black" points="2697.34,-122.109 2700.65,-112.044 2691.79,-117.847 2697.34,-122.109"/>
</g>
<!-- 38 -->
<g id="node39" class="node"><title>38</title>
<path fill="#abb9ce" stroke="black" d="M2852.5,-111C2852.5,-111 2818.5,-111 2818.5,-111 2812.5,-111 2806.5,-105 2806.5,-99 2806.5,-99 2806.5,-87 2806.5,-87 2806.5,-81 2812.5,-75 2818.5,-75 2818.5,-75 2852.5,-75 2852.5,-75 2858.5,-75 2864.5,-81 2864.5,-87 2864.5,-87 2864.5,-99 2864.5,-99 2864.5,-105 2858.5,-111 2852.5,-111"/>
<text text-anchor="middle" x="2835.5" y="-89.3" font-family="Times,serif" font-size="14.00">comp 2</text>
</g>
<!-- 11&#45;&gt;38 -->
<g id="edge38" class="edge"><title>11&#45;&gt;38</title>
<path fill="none" stroke="black" d="M2694.65,-156.424C2721.41,-145.209 2757.24,-129.979 2796.57,-112.352"/>
<polygon fill="black" stroke="black" points="2798.41,-115.362 2806.09,-108.067 2795.54,-108.978 2798.41,-115.362"/>
</g>
<!-- 39 -->
<g id="node40" class="node"><title>39</title>
<path fill="#f6d3ff" stroke="black" d="M47,-38C47,-38 12,-38 12,-38 6,-38 0,-32 0,-26 0,-26 0,-12 0,-12 0,-6 6,-0 12,-0 12,-0 47,-0 47,-0 53,-0 59,-6 59,-12 59,-12 59,-26 59,-26 59,-32 53,-38 47,-38"/>
<text text-anchor="middle" x="29.5" y="-22.8" font-family="Times,serif" font-size="14.00">forward</text>
<text text-anchor="middle" x="29.5" y="-7.8" font-family="Times,serif" font-size="14.00">input</text>
</g>
<!-- 12&#45;&gt;39 -->
<g id="edge39" class="edge"><title>12&#45;&gt;39</title>
<path fill="none" stroke="black" d="M30.263,-74.937C30.1526,-66.9865 30.0182,-57.3134 29.8932,-48.3127"/>
<polygon fill="black" stroke="black" points="33.3914,-48.1496 29.7528,-38.1992 26.3921,-48.2468 33.3914,-48.1496"/>
</g>
<!-- 40 -->
<g id="node41" class="node"><title>40</title>
<path fill="#f6d3ff" stroke="black" d="M125.5,-38C125.5,-38 89.5,-38 89.5,-38 83.5,-38 77.5,-32 77.5,-26 77.5,-26 77.5,-12 77.5,-12 77.5,-6 83.5,-0 89.5,-0 89.5,-0 125.5,-0 125.5,-0 131.5,-0 137.5,-6 137.5,-12 137.5,-12 137.5,-26 137.5,-26 137.5,-32 131.5,-38 125.5,-38"/>
<text text-anchor="middle" x="107.5" y="-22.8" font-family="Times,serif" font-size="14.00">forward</text>
<text text-anchor="middle" x="107.5" y="-7.8" font-family="Times,serif" font-size="14.00">EB0/C0</text>
</g>
<!-- 13&#45;&gt;40 -->
<g id="edge40" class="edge"><title>13&#45;&gt;40</title>
<path fill="none" stroke="black" d="M107.5,-74.937C107.5,-66.9865 107.5,-57.3134 107.5,-48.3127"/>
<polygon fill="black" stroke="black" points="111,-48.1991 107.5,-38.1992 104,-48.1992 111,-48.1991"/>
</g>
<!-- 41 -->
<g id="node42" class="node"><title>41</title>
<path fill="#f6d3ff" stroke="black" d="M203.5,-38C203.5,-38 167.5,-38 167.5,-38 161.5,-38 155.5,-32 155.5,-26 155.5,-26 155.5,-12 155.5,-12 155.5,-6 161.5,-0 167.5,-0 167.5,-0 203.5,-0 203.5,-0 209.5,-0 215.5,-6 215.5,-12 215.5,-12 215.5,-26 215.5,-26 215.5,-32 209.5,-38 203.5,-38"/>
<text text-anchor="middle" x="185.5" y="-22.8" font-family="Times,serif" font-size="14.00">forward</text>
<text text-anchor="middle" x="185.5" y="-7.8" font-family="Times,serif" font-size="14.00">EB0/C1</text>
</g>
<!-- 14&#45;&gt;41 -->
<g id="edge41" class="edge"><title>14&#45;&gt;41</title>
<path fill="none" stroke="black" d="M184.737,-74.937C184.847,-66.9865 184.982,-57.3134 185.107,-48.3127"/>
<polygon fill="black" stroke="black" points="188.608,-48.2468 185.247,-38.1992 181.609,-48.1496 188.608,-48.2468"/>
</g>
<!-- 42 -->
<g id="node43" class="node"><title>42</title>
<path fill="#f6d3ff" stroke="black" d="M281.5,-38C281.5,-38 245.5,-38 245.5,-38 239.5,-38 233.5,-32 233.5,-26 233.5,-26 233.5,-12 233.5,-12 233.5,-6 239.5,-0 245.5,-0 245.5,-0 281.5,-0 281.5,-0 287.5,-0 293.5,-6 293.5,-12 293.5,-12 293.5,-26 293.5,-26 293.5,-32 287.5,-38 281.5,-38"/>
<text text-anchor="middle" x="263.5" y="-22.8" font-family="Times,serif" font-size="14.00">forward</text>
<text text-anchor="middle" x="263.5" y="-7.8" font-family="Times,serif" font-size="14.00">EB0/C2</text>
</g>
<!-- 15&#45;&gt;42 -->
<g id="edge42" class="edge"><title>15&#45;&gt;42</title>
<path fill="none" stroke="black" d="M263.5,-74.937C263.5,-66.9865 263.5,-57.3134 263.5,-48.3127"/>
<polygon fill="black" stroke="black" points="267,-48.1991 263.5,-38.1992 260,-48.1992 267,-48.1991"/>
</g>
<!-- 43 -->
<g id="node44" class="node"><title>43</title>
<path fill="#f6d3ff" stroke="black" d="M359.5,-38C359.5,-38 323.5,-38 323.5,-38 317.5,-38 311.5,-32 311.5,-26 311.5,-26 311.5,-12 311.5,-12 311.5,-6 317.5,-0 323.5,-0 323.5,-0 359.5,-0 359.5,-0 365.5,-0 371.5,-6 371.5,-12 371.5,-12 371.5,-26 371.5,-26 371.5,-32 365.5,-38 359.5,-38"/>
<text text-anchor="middle" x="341.5" y="-22.8" font-family="Times,serif" font-size="14.00">forward</text>
<text text-anchor="middle" x="341.5" y="-7.8" font-family="Times,serif" font-size="14.00">EB1/C0</text>
</g>
<!-- 16&#45;&gt;43 -->
<g id="edge43" class="edge"><title>16&#45;&gt;43</title>
<path fill="none" stroke="black" d="M340.737,-74.937C340.847,-66.9865 340.982,-57.3134 341.107,-48.3127"/>
<polygon fill="black" stroke="black" points="344.608,-48.2468 341.247,-38.1992 337.609,-48.1496 344.608,-48.2468"/>
</g>
<!-- 44 -->
<g id="node45" class="node"><title>44</title>
<path fill="#f6d3ff" stroke="black" d="M437.5,-38C437.5,-38 401.5,-38 401.5,-38 395.5,-38 389.5,-32 389.5,-26 389.5,-26 389.5,-12 389.5,-12 389.5,-6 395.5,-0 401.5,-0 401.5,-0 437.5,-0 437.5,-0 443.5,-0 449.5,-6 449.5,-12 449.5,-12 449.5,-26 449.5,-26 449.5,-32 443.5,-38 437.5,-38"/>
<text text-anchor="middle" x="419.5" y="-22.8" font-family="Times,serif" font-size="14.00">forward</text>
<text text-anchor="middle" x="419.5" y="-7.8" font-family="Times,serif" font-size="14.00">EB1/C1</text>
</g>
<!-- 17&#45;&gt;44 -->
<g id="edge44" class="edge"><title>17&#45;&gt;44</title>
<path fill="none" stroke="black" d="M419.5,-74.937C419.5,-66.9865 419.5,-57.3134 419.5,-48.3127"/>
<polygon fill="black" stroke="black" points="423,-48.1991 419.5,-38.1992 416,-48.1992 423,-48.1991"/>
</g>
<!-- 45 -->
<g id="node46" class="node"><title>45</title>
<path fill="#f6d3ff" stroke="black" d="M515.5,-38C515.5,-38 479.5,-38 479.5,-38 473.5,-38 467.5,-32 467.5,-26 467.5,-26 467.5,-12 467.5,-12 467.5,-6 473.5,-0 479.5,-0 479.5,-0 515.5,-0 515.5,-0 521.5,-0 527.5,-6 527.5,-12 527.5,-12 527.5,-26 527.5,-26 527.5,-32 521.5,-38 515.5,-38"/>
<text text-anchor="middle" x="497.5" y="-22.8" font-family="Times,serif" font-size="14.00">forward</text>
<text text-anchor="middle" x="497.5" y="-7.8" font-family="Times,serif" font-size="14.00">EB2/C0</text>
</g>
<!-- 18&#45;&gt;45 -->
<g id="edge45" class="edge"><title>18&#45;&gt;45</title>
<path fill="none" stroke="black" d="M495.974,-74.937C496.195,-66.9865 496.464,-57.3134 496.714,-48.3127"/>
<polygon fill="black" stroke="black" points="500.215,-48.2925 496.994,-38.1992 493.218,-48.0981 500.215,-48.2925"/>
</g>
<!-- 46 -->
<g id="node47" class="node"><title>46</title>
<path fill="#f6d3ff" stroke="black" d="M632.5,-38C632.5,-38 596.5,-38 596.5,-38 590.5,-38 584.5,-32 584.5,-26 584.5,-26 584.5,-12 584.5,-12 584.5,-6 590.5,-0 596.5,-0 596.5,-0 632.5,-0 632.5,-0 638.5,-0 644.5,-6 644.5,-12 644.5,-12 644.5,-26 644.5,-26 644.5,-32 638.5,-38 632.5,-38"/>
<text text-anchor="middle" x="614.5" y="-22.8" font-family="Times,serif" font-size="14.00">forward</text>
<text text-anchor="middle" x="614.5" y="-7.8" font-family="Times,serif" font-size="14.00">EB2/C1</text>
</g>
<!-- 19&#45;&gt;46 -->
<g id="edge46" class="edge"><title>19&#45;&gt;46</title>
<path fill="none" stroke="black" d="M614.5,-73.8314C614.5,-66.131 614.5,-56.9743 614.5,-48.4166"/>
<polygon fill="black" stroke="black" points="618,-48.4132 614.5,-38.4133 611,-48.4133 618,-48.4132"/>
</g>
<!-- 47 -->
<g id="node48" class="node"><title>47</title>
<path fill="#f6d3ff" stroke="black" d="M751.5,-38C751.5,-38 715.5,-38 715.5,-38 709.5,-38 703.5,-32 703.5,-26 703.5,-26 703.5,-12 703.5,-12 703.5,-6 709.5,-0 715.5,-0 715.5,-0 751.5,-0 751.5,-0 757.5,-0 763.5,-6 763.5,-12 763.5,-12 763.5,-26 763.5,-26 763.5,-32 757.5,-38 751.5,-38"/>
<text text-anchor="middle" x="733.5" y="-22.8" font-family="Times,serif" font-size="14.00">forward</text>
<text text-anchor="middle" x="733.5" y="-7.8" font-family="Times,serif" font-size="14.00">EB2/C2</text>
</g>
<!-- 20&#45;&gt;47 -->
<g id="edge47" class="edge"><title>20&#45;&gt;47</title>
<path fill="none" stroke="black" d="M733.5,-74.937C733.5,-66.9865 733.5,-57.3134 733.5,-48.3127"/>
<polygon fill="black" stroke="black" points="737,-48.1991 733.5,-38.1992 730,-48.1992 737,-48.1991"/>
</g>
<!-- 48 -->
<g id="node49" class="node"><title>48</title>
<path fill="#f6d3ff" stroke="black" d="M872.5,-38C872.5,-38 836.5,-38 836.5,-38 830.5,-38 824.5,-32 824.5,-26 824.5,-26 824.5,-12 824.5,-12 824.5,-6 830.5,-0 836.5,-0 836.5,-0 872.5,-0 872.5,-0 878.5,-0 884.5,-6 884.5,-12 884.5,-12 884.5,-26 884.5,-26 884.5,-32 878.5,-38 872.5,-38"/>
<text text-anchor="middle" x="854.5" y="-22.8" font-family="Times,serif" font-size="14.00">forward</text>
<text text-anchor="middle" x="854.5" y="-7.8" font-family="Times,serif" font-size="14.00">EB3/C0</text>
</g>
<!-- 21&#45;&gt;48 -->
<g id="edge48" class="edge"><title>21&#45;&gt;48</title>
<path fill="none" stroke="black" d="M854.5,-73.8314C854.5,-66.131 854.5,-56.9743 854.5,-48.4166"/>
<polygon fill="black" stroke="black" points="858,-48.4132 854.5,-38.4133 851,-48.4133 858,-48.4132"/>
</g>
<!-- 49 -->
<g id="node50" class="node"><title>49</title>
<path fill="#f6d3ff" stroke="black" d="M993.5,-38C993.5,-38 957.5,-38 957.5,-38 951.5,-38 945.5,-32 945.5,-26 945.5,-26 945.5,-12 945.5,-12 945.5,-6 951.5,-0 957.5,-0 957.5,-0 993.5,-0 993.5,-0 999.5,-0 1005.5,-6 1005.5,-12 1005.5,-12 1005.5,-26 1005.5,-26 1005.5,-32 999.5,-38 993.5,-38"/>
<text text-anchor="middle" x="975.5" y="-22.8" font-family="Times,serif" font-size="14.00">forward</text>
<text text-anchor="middle" x="975.5" y="-7.8" font-family="Times,serif" font-size="14.00">EB3/C1</text>
</g>
<!-- 22&#45;&gt;49 -->
<g id="edge49" class="edge"><title>22&#45;&gt;49</title>
<path fill="none" stroke="black" d="M975.5,-74.937C975.5,-66.9865 975.5,-57.3134 975.5,-48.3127"/>
<polygon fill="black" stroke="black" points="979,-48.1991 975.5,-38.1992 972,-48.1992 979,-48.1991"/>
</g>
<!-- 50 -->
<g id="node51" class="node"><title>50</title>
<path fill="#f6d3ff" stroke="black" d="M1114.5,-38C1114.5,-38 1078.5,-38 1078.5,-38 1072.5,-38 1066.5,-32 1066.5,-26 1066.5,-26 1066.5,-12 1066.5,-12 1066.5,-6 1072.5,-0 1078.5,-0 1078.5,-0 1114.5,-0 1114.5,-0 1120.5,-0 1126.5,-6 1126.5,-12 1126.5,-12 1126.5,-26 1126.5,-26 1126.5,-32 1120.5,-38 1114.5,-38"/>
<text text-anchor="middle" x="1096.5" y="-22.8" font-family="Times,serif" font-size="14.00">forward</text>
<text text-anchor="middle" x="1096.5" y="-7.8" font-family="Times,serif" font-size="14.00">EB3/C2</text>
</g>
<!-- 23&#45;&gt;50 -->
<g id="edge50" class="edge"><title>23&#45;&gt;50</title>
<path fill="none" stroke="black" d="M1096.5,-73.8314C1096.5,-66.131 1096.5,-56.9743 1096.5,-48.4166"/>
<polygon fill="black" stroke="black" points="1100,-48.4132 1096.5,-38.4133 1093,-48.4133 1100,-48.4132"/>
</g>
<!-- 51 -->
<g id="node52" class="node"><title>51</title>
<path fill="#f6d3ff" stroke="black" d="M1213.5,-38C1213.5,-38 1175.5,-38 1175.5,-38 1169.5,-38 1163.5,-32 1163.5,-26 1163.5,-26 1163.5,-12 1163.5,-12 1163.5,-6 1169.5,-0 1175.5,-0 1175.5,-0 1213.5,-0 1213.5,-0 1219.5,-0 1225.5,-6 1225.5,-12 1225.5,-12 1225.5,-26 1225.5,-26 1225.5,-32 1219.5,-38 1213.5,-38"/>
<text text-anchor="middle" x="1194.5" y="-22.8" font-family="Times,serif" font-size="14.00">forward</text>
<text text-anchor="middle" x="1194.5" y="-7.8" font-family="Times,serif" font-size="14.00">DB4/C0</text>
</g>
<!-- 24&#45;&gt;51 -->
<g id="edge51" class="edge"><title>24&#45;&gt;51</title>
<path fill="none" stroke="black" d="M1212.05,-74.937C1209.45,-66.8137 1206.28,-56.892 1203.36,-47.7267"/>
<polygon fill="black" stroke="black" points="1206.69,-46.6599 1200.31,-38.1992 1200.02,-48.79 1206.69,-46.6599"/>
</g>
<!-- 52 -->
<g id="node53" class="node"><title>52</title>
<path fill="#f6d3ff" stroke="black" d="M1293.5,-38C1293.5,-38 1255.5,-38 1255.5,-38 1249.5,-38 1243.5,-32 1243.5,-26 1243.5,-26 1243.5,-12 1243.5,-12 1243.5,-6 1249.5,-0 1255.5,-0 1255.5,-0 1293.5,-0 1293.5,-0 1299.5,-0 1305.5,-6 1305.5,-12 1305.5,-12 1305.5,-26 1305.5,-26 1305.5,-32 1299.5,-38 1293.5,-38"/>
<text text-anchor="middle" x="1274.5" y="-22.8" font-family="Times,serif" font-size="14.00">forward</text>
<text text-anchor="middle" x="1274.5" y="-7.8" font-family="Times,serif" font-size="14.00">DB4/C1</text>
</g>
<!-- 25&#45;&gt;52 -->
<g id="edge52" class="edge"><title>25&#45;&gt;52</title>
<path fill="none" stroke="black" d="M1289,-74.937C1286.88,-66.9001 1284.29,-57.1029 1281.89,-48.0195"/>
<polygon fill="black" stroke="black" points="1285.24,-46.9751 1279.3,-38.1992 1278.47,-48.7612 1285.24,-46.9751"/>
</g>
<!-- 53 -->
<g id="node54" class="node"><title>53</title>
<path fill="#f6d3ff" stroke="black" d="M1373.5,-38C1373.5,-38 1335.5,-38 1335.5,-38 1329.5,-38 1323.5,-32 1323.5,-26 1323.5,-26 1323.5,-12 1323.5,-12 1323.5,-6 1329.5,-0 1335.5,-0 1335.5,-0 1373.5,-0 1373.5,-0 1379.5,-0 1385.5,-6 1385.5,-12 1385.5,-12 1385.5,-26 1385.5,-26 1385.5,-32 1379.5,-38 1373.5,-38"/>
<text text-anchor="middle" x="1354.5" y="-22.8" font-family="Times,serif" font-size="14.00">forward</text>
<text text-anchor="middle" x="1354.5" y="-7.8" font-family="Times,serif" font-size="14.00">DB4/C2</text>
</g>
<!-- 26&#45;&gt;53 -->
<g id="edge53" class="edge"><title>26&#45;&gt;53</title>
<path fill="none" stroke="black" d="M1408.67,-74.937C1399.98,-66.1223 1389.2,-55.1902 1379.55,-45.4047"/>
<polygon fill="black" stroke="black" points="1381.96,-42.862 1372.45,-38.1992 1376.98,-47.7771 1381.96,-42.862"/>
</g>
<!-- 54 -->
<g id="node55" class="node"><title>54</title>
<path fill="#debfe6" stroke="black" d="M1451.5,-38C1451.5,-38 1415.5,-38 1415.5,-38 1409.5,-38 1403.5,-32 1403.5,-26 1403.5,-26 1403.5,-12 1403.5,-12 1403.5,-6 1409.5,-0 1415.5,-0 1415.5,-0 1451.5,-0 1451.5,-0 1457.5,-0 1463.5,-6 1463.5,-12 1463.5,-12 1463.5,-26 1463.5,-26 1463.5,-32 1457.5,-38 1451.5,-38"/>
<text text-anchor="middle" x="1433.5" y="-22.8" font-family="Times,serif" font-size="14.00">merge</text>
<text text-anchor="middle" x="1433.5" y="-7.8" font-family="Times,serif" font-size="14.00">EB3/C2</text>
</g>
<!-- 26&#45;&gt;54 -->
<g id="edge54" class="edge"><title>26&#45;&gt;54</title>
<path fill="none" stroke="black" d="M1427.4,-74.937C1428.28,-66.9865 1429.35,-57.3134 1430.35,-48.3127"/>
<polygon fill="black" stroke="black" points="1433.85,-48.5245 1431.48,-38.1992 1426.89,-47.7515 1433.85,-48.5245"/>
</g>
<!-- 55 -->
<g id="node56" class="node"><title>55</title>
<path fill="#f6d3ff" stroke="black" d="M1531.5,-38C1531.5,-38 1493.5,-38 1493.5,-38 1487.5,-38 1481.5,-32 1481.5,-26 1481.5,-26 1481.5,-12 1481.5,-12 1481.5,-6 1487.5,-0 1493.5,-0 1493.5,-0 1531.5,-0 1531.5,-0 1537.5,-0 1543.5,-6 1543.5,-12 1543.5,-12 1543.5,-26 1543.5,-26 1543.5,-32 1537.5,-38 1531.5,-38"/>
<text text-anchor="middle" x="1512.5" y="-22.8" font-family="Times,serif" font-size="14.00">forward</text>
<text text-anchor="middle" x="1512.5" y="-7.8" font-family="Times,serif" font-size="14.00">DB3/C0</text>
</g>
<!-- 27&#45;&gt;55 -->
<g id="edge55" class="edge"><title>27&#45;&gt;55</title>
<path fill="none" stroke="black" d="M1512.5,-73.8314C1512.5,-66.131 1512.5,-56.9743 1512.5,-48.4166"/>
<polygon fill="black" stroke="black" points="1516,-48.4132 1512.5,-38.4133 1509,-48.4133 1516,-48.4132"/>
</g>
<!-- 56 -->
<g id="node57" class="node"><title>56</title>
<path fill="#f6d3ff" stroke="black" d="M1611.5,-38C1611.5,-38 1573.5,-38 1573.5,-38 1567.5,-38 1561.5,-32 1561.5,-26 1561.5,-26 1561.5,-12 1561.5,-12 1561.5,-6 1567.5,-0 1573.5,-0 1573.5,-0 1611.5,-0 1611.5,-0 1617.5,-0 1623.5,-6 1623.5,-12 1623.5,-12 1623.5,-26 1623.5,-26 1623.5,-32 1617.5,-38 1611.5,-38"/>
<text text-anchor="middle" x="1592.5" y="-22.8" font-family="Times,serif" font-size="14.00">forward</text>
<text text-anchor="middle" x="1592.5" y="-7.8" font-family="Times,serif" font-size="14.00">DB3/C1</text>
</g>
<!-- 28&#45;&gt;56 -->
<g id="edge56" class="edge"><title>28&#45;&gt;56</title>
<path fill="none" stroke="black" d="M1597.84,-74.937C1597.07,-66.9865 1596.13,-57.3134 1595.25,-48.3127"/>
<polygon fill="black" stroke="black" points="1598.72,-47.8135 1594.27,-38.1992 1591.75,-48.4909 1598.72,-47.8135"/>
</g>
<!-- 57 -->
<g id="node58" class="node"><title>57</title>
<path fill="#f6d3ff" stroke="black" d="M1691.5,-38C1691.5,-38 1653.5,-38 1653.5,-38 1647.5,-38 1641.5,-32 1641.5,-26 1641.5,-26 1641.5,-12 1641.5,-12 1641.5,-6 1647.5,-0 1653.5,-0 1653.5,-0 1691.5,-0 1691.5,-0 1697.5,-0 1703.5,-6 1703.5,-12 1703.5,-12 1703.5,-26 1703.5,-26 1703.5,-32 1697.5,-38 1691.5,-38"/>
<text text-anchor="middle" x="1672.5" y="-22.8" font-family="Times,serif" font-size="14.00">forward</text>
<text text-anchor="middle" x="1672.5" y="-7.8" font-family="Times,serif" font-size="14.00">DB3/C2</text>
</g>
<!-- 29&#45;&gt;57 -->
<g id="edge57" class="edge"><title>29&#45;&gt;57</title>
<path fill="none" stroke="black" d="M1704.55,-74.937C1699.66,-66.5544 1693.65,-56.2569 1688.16,-46.8516"/>
<polygon fill="black" stroke="black" points="1691.18,-45.0734 1683.12,-38.1992 1685.13,-48.6005 1691.18,-45.0734"/>
</g>
<!-- 58 -->
<g id="node59" class="node"><title>58</title>
<path fill="#debfe6" stroke="black" d="M1769.5,-38C1769.5,-38 1733.5,-38 1733.5,-38 1727.5,-38 1721.5,-32 1721.5,-26 1721.5,-26 1721.5,-12 1721.5,-12 1721.5,-6 1727.5,-0 1733.5,-0 1733.5,-0 1769.5,-0 1769.5,-0 1775.5,-0 1781.5,-6 1781.5,-12 1781.5,-12 1781.5,-26 1781.5,-26 1781.5,-32 1775.5,-38 1769.5,-38"/>
<text text-anchor="middle" x="1751.5" y="-22.8" font-family="Times,serif" font-size="14.00">merge</text>
<text text-anchor="middle" x="1751.5" y="-7.8" font-family="Times,serif" font-size="14.00">EB2/C2</text>
</g>
<!-- 29&#45;&gt;58 -->
<g id="edge58" class="edge"><title>29&#45;&gt;58</title>
<path fill="none" stroke="black" d="M1723.27,-74.937C1727.53,-66.6409 1732.76,-56.469 1737.55,-47.1428"/>
<polygon fill="black" stroke="black" points="1740.69,-48.6932 1742.15,-38.1992 1734.46,-45.4937 1740.69,-48.6932"/>
</g>
<!-- 59 -->
<g id="node60" class="node"><title>59</title>
<path fill="#f6d3ff" stroke="black" d="M1849.5,-38C1849.5,-38 1811.5,-38 1811.5,-38 1805.5,-38 1799.5,-32 1799.5,-26 1799.5,-26 1799.5,-12 1799.5,-12 1799.5,-6 1805.5,-0 1811.5,-0 1811.5,-0 1849.5,-0 1849.5,-0 1855.5,-0 1861.5,-6 1861.5,-12 1861.5,-12 1861.5,-26 1861.5,-26 1861.5,-32 1855.5,-38 1849.5,-38"/>
<text text-anchor="middle" x="1830.5" y="-22.8" font-family="Times,serif" font-size="14.00">forward</text>
<text text-anchor="middle" x="1830.5" y="-7.8" font-family="Times,serif" font-size="14.00">DB2/C0</text>
</g>
<!-- 30&#45;&gt;59 -->
<g id="edge59" class="edge"><title>30&#45;&gt;59</title>
<path fill="none" stroke="black" d="M1799.98,-74.937C1804.59,-66.6409 1810.24,-56.469 1815.42,-47.1428"/>
<polygon fill="black" stroke="black" points="1818.59,-48.6405 1820.39,-38.1992 1812.47,-45.241 1818.59,-48.6405"/>
</g>
<!-- 60 -->
<g id="node61" class="node"><title>60</title>
<path fill="#f6d3ff" stroke="black" d="M1929.5,-38C1929.5,-38 1891.5,-38 1891.5,-38 1885.5,-38 1879.5,-32 1879.5,-26 1879.5,-26 1879.5,-12 1879.5,-12 1879.5,-6 1885.5,-0 1891.5,-0 1891.5,-0 1929.5,-0 1929.5,-0 1935.5,-0 1941.5,-6 1941.5,-12 1941.5,-12 1941.5,-26 1941.5,-26 1941.5,-32 1935.5,-38 1929.5,-38"/>
<text text-anchor="middle" x="1910.5" y="-22.8" font-family="Times,serif" font-size="14.00">forward</text>
<text text-anchor="middle" x="1910.5" y="-7.8" font-family="Times,serif" font-size="14.00">DB2/C1</text>
</g>
<!-- 31&#45;&gt;60 -->
<g id="edge60" class="edge"><title>31&#45;&gt;60</title>
<path fill="none" stroke="black" d="M1876.93,-74.937C1882.05,-66.5544 1888.34,-56.2569 1894.09,-46.8516"/>
<polygon fill="black" stroke="black" points="1897.15,-48.5571 1899.38,-38.1992 1891.18,-44.9069 1897.15,-48.5571"/>
</g>
<!-- 61 -->
<g id="node62" class="node"><title>61</title>
<path fill="#f6d3ff" stroke="black" d="M2009.5,-38C2009.5,-38 1971.5,-38 1971.5,-38 1965.5,-38 1959.5,-32 1959.5,-26 1959.5,-26 1959.5,-12 1959.5,-12 1959.5,-6 1965.5,-0 1971.5,-0 1971.5,-0 2009.5,-0 2009.5,-0 2015.5,-0 2021.5,-6 2021.5,-12 2021.5,-12 2021.5,-26 2021.5,-26 2021.5,-32 2015.5,-38 2009.5,-38"/>
<text text-anchor="middle" x="1990.5" y="-22.8" font-family="Times,serif" font-size="14.00">forward</text>
<text text-anchor="middle" x="1990.5" y="-7.8" font-family="Times,serif" font-size="14.00">DB2/C2</text>
</g>
<!-- 32&#45;&gt;61 -->
<g id="edge61" class="edge"><title>32&#45;&gt;61</title>
<path fill="none" stroke="black" d="M1988.26,-73.8314C1988.58,-66.131 1988.96,-56.9743 1989.32,-48.4166"/>
<polygon fill="black" stroke="black" points="1992.81,-48.5503 1989.73,-38.4133 1985.82,-48.2589 1992.81,-48.5503"/>
</g>
<!-- 62 -->
<g id="node63" class="node"><title>62</title>
<path fill="#f6d3ff" stroke="black" d="M2206.5,-38C2206.5,-38 2168.5,-38 2168.5,-38 2162.5,-38 2156.5,-32 2156.5,-26 2156.5,-26 2156.5,-12 2156.5,-12 2156.5,-6 2162.5,-0 2168.5,-0 2168.5,-0 2206.5,-0 2206.5,-0 2212.5,-0 2218.5,-6 2218.5,-12 2218.5,-12 2218.5,-26 2218.5,-26 2218.5,-32 2212.5,-38 2206.5,-38"/>
<text text-anchor="middle" x="2187.5" y="-22.8" font-family="Times,serif" font-size="14.00">forward</text>
<text text-anchor="middle" x="2187.5" y="-7.8" font-family="Times,serif" font-size="14.00">DB2/C3</text>
</g>
<!-- 33&#45;&gt;62 -->
<g id="edge62" class="edge"><title>33&#45;&gt;62</title>
<path fill="none" stroke="black" d="M2216.66,-73.8314C2212.3,-65.7925 2207.09,-56.1666 2202.28,-47.2918"/>
<polygon fill="black" stroke="black" points="2205.31,-45.5392 2197.47,-38.4133 2199.16,-48.8732 2205.31,-45.5392"/>
</g>
<!-- 63 -->
<g id="node64" class="node"><title>63</title>
<path fill="#debfe6" stroke="black" d="M2284.5,-38C2284.5,-38 2248.5,-38 2248.5,-38 2242.5,-38 2236.5,-32 2236.5,-26 2236.5,-26 2236.5,-12 2236.5,-12 2236.5,-6 2242.5,-0 2248.5,-0 2248.5,-0 2284.5,-0 2284.5,-0 2290.5,-0 2296.5,-6 2296.5,-12 2296.5,-12 2296.5,-26 2296.5,-26 2296.5,-32 2290.5,-38 2284.5,-38"/>
<text text-anchor="middle" x="2266.5" y="-22.8" font-family="Times,serif" font-size="14.00">merge</text>
<text text-anchor="middle" x="2266.5" y="-7.8" font-family="Times,serif" font-size="14.00">EB1/C1</text>
</g>
<!-- 33&#45;&gt;63 -->
<g id="edge63" class="edge"><title>33&#45;&gt;63</title>
<path fill="none" stroke="black" d="M2236.59,-73.8314C2241.06,-65.7925 2246.41,-56.1666 2251.34,-47.2918"/>
<polygon fill="black" stroke="black" points="2254.47,-48.8546 2256.27,-38.4133 2248.35,-45.4551 2254.47,-48.8546"/>
</g>
<!-- 64 -->
<g id="node65" class="node"><title>64</title>
<path fill="#f6d3ff" stroke="black" d="M2434.5,-38C2434.5,-38 2396.5,-38 2396.5,-38 2390.5,-38 2384.5,-32 2384.5,-26 2384.5,-26 2384.5,-12 2384.5,-12 2384.5,-6 2390.5,-0 2396.5,-0 2396.5,-0 2434.5,-0 2434.5,-0 2440.5,-0 2446.5,-6 2446.5,-12 2446.5,-12 2446.5,-26 2446.5,-26 2446.5,-32 2440.5,-38 2434.5,-38"/>
<text text-anchor="middle" x="2415.5" y="-22.8" font-family="Times,serif" font-size="14.00">forward</text>
<text text-anchor="middle" x="2415.5" y="-7.8" font-family="Times,serif" font-size="14.00">DB1/C0</text>
</g>
<!-- 34&#45;&gt;64 -->
<g id="edge64" class="edge"><title>34&#45;&gt;64</title>
<path fill="none" stroke="black" d="M2418.55,-74.937C2418.11,-66.9865 2417.57,-57.3134 2417.07,-48.3127"/>
<polygon fill="black" stroke="black" points="2420.56,-47.9896 2416.51,-38.1992 2413.57,-48.3779 2420.56,-47.9896"/>
</g>
<!-- 65 -->
<g id="node66" class="node"><title>65</title>
<path fill="#f6d3ff" stroke="black" d="M2514.5,-38C2514.5,-38 2476.5,-38 2476.5,-38 2470.5,-38 2464.5,-32 2464.5,-26 2464.5,-26 2464.5,-12 2464.5,-12 2464.5,-6 2470.5,-0 2476.5,-0 2476.5,-0 2514.5,-0 2514.5,-0 2520.5,-0 2526.5,-6 2526.5,-12 2526.5,-12 2526.5,-26 2526.5,-26 2526.5,-32 2520.5,-38 2514.5,-38"/>
<text text-anchor="middle" x="2495.5" y="-22.8" font-family="Times,serif" font-size="14.00">forward</text>
<text text-anchor="middle" x="2495.5" y="-7.8" font-family="Times,serif" font-size="14.00">DB1/C1</text>
</g>
<!-- 35&#45;&gt;65 -->
<g id="edge65" class="edge"><title>35&#45;&gt;65</title>
<path fill="none" stroke="black" d="M2495.5,-74.937C2495.5,-66.9865 2495.5,-57.3134 2495.5,-48.3127"/>
<polygon fill="black" stroke="black" points="2499,-48.1991 2495.5,-38.1992 2492,-48.1992 2499,-48.1991"/>
</g>
<!-- 66 -->
<g id="node67" class="node"><title>66</title>
<path fill="#f6d3ff" stroke="black" d="M2594.5,-38C2594.5,-38 2556.5,-38 2556.5,-38 2550.5,-38 2544.5,-32 2544.5,-26 2544.5,-26 2544.5,-12 2544.5,-12 2544.5,-6 2550.5,-0 2556.5,-0 2556.5,-0 2594.5,-0 2594.5,-0 2600.5,-0 2606.5,-6 2606.5,-12 2606.5,-12 2606.5,-26 2606.5,-26 2606.5,-32 2600.5,-38 2594.5,-38"/>
<text text-anchor="middle" x="2575.5" y="-22.8" font-family="Times,serif" font-size="14.00">forward</text>
<text text-anchor="middle" x="2575.5" y="-7.8" font-family="Times,serif" font-size="14.00">DB1/C2</text>
</g>
<!-- 36&#45;&gt;66 -->
<g id="edge66" class="edge"><title>36&#45;&gt;66</title>
<path fill="none" stroke="black" d="M2589.23,-74.937C2587.23,-66.9001 2584.78,-57.1029 2582.5,-48.0195"/>
<polygon fill="black" stroke="black" points="2585.87,-47.0517 2580.05,-38.1992 2579.08,-48.7495 2585.87,-47.0517"/>
</g>
<!-- 67 -->
<g id="node68" class="node"><title>67</title>
<path fill="#debfe6" stroke="black" d="M2672.5,-38C2672.5,-38 2636.5,-38 2636.5,-38 2630.5,-38 2624.5,-32 2624.5,-26 2624.5,-26 2624.5,-12 2624.5,-12 2624.5,-6 2630.5,-0 2636.5,-0 2636.5,-0 2672.5,-0 2672.5,-0 2678.5,-0 2684.5,-6 2684.5,-12 2684.5,-12 2684.5,-26 2684.5,-26 2684.5,-32 2678.5,-38 2672.5,-38"/>
<text text-anchor="middle" x="2654.5" y="-22.8" font-family="Times,serif" font-size="14.00">merge</text>
<text text-anchor="middle" x="2654.5" y="-7.8" font-family="Times,serif" font-size="14.00">EB0/C2</text>
</g>
<!-- 36&#45;&gt;67 -->
<g id="edge67" class="edge"><title>36&#45;&gt;67</title>
<path fill="none" stroke="black" d="M2607.96,-74.937C2615.28,-66.2952 2624.32,-55.6181 2632.49,-45.9816"/>
<polygon fill="black" stroke="black" points="2635.29,-48.0915 2639.08,-38.1992 2629.95,-43.5666 2635.29,-48.0915"/>
</g>
<!-- 68 -->
<g id="node69" class="node"><title>68</title>
<path fill="#f6d3ff" stroke="black" d="M2752.5,-38C2752.5,-38 2714.5,-38 2714.5,-38 2708.5,-38 2702.5,-32 2702.5,-26 2702.5,-26 2702.5,-12 2702.5,-12 2702.5,-6 2708.5,-0 2714.5,-0 2714.5,-0 2752.5,-0 2752.5,-0 2758.5,-0 2764.5,-6 2764.5,-12 2764.5,-12 2764.5,-26 2764.5,-26 2764.5,-32 2758.5,-38 2752.5,-38"/>
<text text-anchor="middle" x="2733.5" y="-22.8" font-family="Times,serif" font-size="14.00">forward</text>
<text text-anchor="middle" x="2733.5" y="-7.8" font-family="Times,serif" font-size="14.00">DB0/C0</text>
</g>
<!-- 37&#45;&gt;68 -->
<g id="edge68" class="edge"><title>37&#45;&gt;68</title>
<path fill="none" stroke="black" d="M2719.29,-73.8314C2721.35,-66.0463 2723.8,-56.7729 2726.08,-48.1347"/>
<polygon fill="black" stroke="black" points="2729.47,-48.9753 2728.64,-38.4133 2722.71,-47.1892 2729.47,-48.9753"/>
</g>
<!-- 69 -->
<g id="node70" class="node"><title>69</title>
<path fill="#f6d3ff" stroke="black" d="M2854.5,-38C2854.5,-38 2816.5,-38 2816.5,-38 2810.5,-38 2804.5,-32 2804.5,-26 2804.5,-26 2804.5,-12 2804.5,-12 2804.5,-6 2810.5,-0 2816.5,-0 2816.5,-0 2854.5,-0 2854.5,-0 2860.5,-0 2866.5,-6 2866.5,-12 2866.5,-12 2866.5,-26 2866.5,-26 2866.5,-32 2860.5,-38 2854.5,-38"/>
<text text-anchor="middle" x="2835.5" y="-22.8" font-family="Times,serif" font-size="14.00">forward</text>
<text text-anchor="middle" x="2835.5" y="-7.8" font-family="Times,serif" font-size="14.00">DB0/C1</text>
</g>
<!-- 38&#45;&gt;69 -->
<g id="edge69" class="edge"><title>38&#45;&gt;69</title>
<path fill="none" stroke="black" d="M2835.5,-74.937C2835.5,-66.9865 2835.5,-57.3134 2835.5,-48.3127"/>
<polygon fill="black" stroke="black" points="2839,-48.1991 2835.5,-38.1992 2832,-48.1992 2839,-48.1991"/>
</g>
</g>
</svg>
