<?xml version="1.0" encoding="UTF-8" standalone="no"?>
<!DOCTYPE svg PUBLIC "-//W3C//DTD SVG 1.1//EN"
 "http://www.w3.org/Graphics/SVG/1.1/DTD/svg11.dtd">
<!-- Generated by graphviz version 2.38.0 (20140413.2041)
 -->
<!-- Title: %3 Pages: 1 -->
<svg width="3118pt" height="418pt"
 viewBox="0.00 0.00 3118.00 418.00" xmlns="http://www.w3.org/2000/svg" xmlns:xlink="http://www.w3.org/1999/xlink">
<g id="graph0" class="graph" transform="scale(1 1) rotate(0) translate(4 414)">
<title>%3</title>
<polygon fill="none" stroke="none" points="-4,4 -4,-414 3114,-414 3114,4 -4,4"/>
<!-- 0 -->
<g id="node1" class="node"><title>0</title>
<path fill="#ffd3d3" stroke="black" d="M2139,-410C2139,-410 1948,-410 1948,-410 1942,-410 1936,-404 1936,-398 1936,-398 1936,-369 1936,-369 1936,-363 1942,-357 1948,-357 1948,-357 2139,-357 2139,-357 2145,-357 2151,-363 2151,-369 2151,-369 2151,-398 2151,-398 2151,-404 2145,-410 2139,-410"/>
<text text-anchor="middle" x="2043.5" y="-394.8" font-family="Times,serif" font-size="14.00">net</text>
<text text-anchor="middle" x="2043.5" y="-379.8" font-family="Times,serif" font-size="14.00">k width: 3 &#160;&#160;log gamma2: &#45;9.341052</text>
<text text-anchor="middle" x="2043.5" y="-364.8" font-family="Times,serif" font-size="14.00">n kernels: 72</text>
</g>
<!-- 1 -->
<g id="node2" class="node"><title>1</title>
<path fill="#e9ffd3" stroke="black" d="M861,-313.5C861,-313.5 736,-313.5 736,-313.5 730,-313.5 724,-307.5 724,-301.5 724,-301.5 724,-287.5 724,-287.5 724,-281.5 730,-275.5 736,-275.5 736,-275.5 861,-275.5 861,-275.5 867,-275.5 873,-281.5 873,-287.5 873,-287.5 873,-301.5 873,-301.5 873,-307.5 867,-313.5 861,-313.5"/>
<text text-anchor="middle" x="798.5" y="-298.3" font-family="Times,serif" font-size="14.00">conv block 0</text>
<text text-anchor="middle" x="798.5" y="-283.3" font-family="Times,serif" font-size="14.00">log gamma2: &#45;0.011062</text>
</g>
<!-- 0&#45;&gt;1 -->
<g id="edge1" class="edge"><title>0&#45;&gt;1</title>
<path fill="none" stroke="black" d="M1935.73,-374.969C1692.24,-357.954 1103.69,-316.827 883.516,-301.441"/>
<polygon fill="black" stroke="black" points="883.532,-297.934 873.313,-300.728 883.044,-304.917 883.532,-297.934"/>
</g>
<!-- 2 -->
<g id="node3" class="node"><title>2</title>
<path fill="#e9ffd3" stroke="black" d="M2146.5,-321C2146.5,-321 1940.5,-321 1940.5,-321 1934.5,-321 1928.5,-315 1928.5,-309 1928.5,-309 1928.5,-280 1928.5,-280 1928.5,-274 1934.5,-268 1940.5,-268 1940.5,-268 2146.5,-268 2146.5,-268 2152.5,-268 2158.5,-274 2158.5,-280 2158.5,-280 2158.5,-309 2158.5,-309 2158.5,-315 2152.5,-321 2146.5,-321"/>
<text text-anchor="middle" x="2043.5" y="-305.8" font-family="Times,serif" font-size="14.00">conv block 1</text>
<text text-anchor="middle" x="2043.5" y="-290.8" font-family="Times,serif" font-size="14.00">log gamma1: &#45;0.748942 &#160;&#160;n kernels: 72</text>
<text text-anchor="middle" x="2043.5" y="-275.8" font-family="Times,serif" font-size="14.00">pool z: 1 &#160;&#160;spatial scale: 1</text>
</g>
<!-- 0&#45;&gt;2 -->
<g id="edge2" class="edge"><title>0&#45;&gt;2</title>
<path fill="none" stroke="black" d="M2043.5,-356.868C2043.5,-348.886 2043.5,-339.932 2043.5,-331.384"/>
<polygon fill="black" stroke="black" points="2047,-331.25 2043.5,-321.25 2040,-331.25 2047,-331.25"/>
</g>
<!-- 3 -->
<g id="node4" class="node"><title>3</title>
<path fill="#e9ffd3" stroke="black" d="M2668,-312.5C2668,-312.5 2601,-312.5 2601,-312.5 2595,-312.5 2589,-306.5 2589,-300.5 2589,-300.5 2589,-288.5 2589,-288.5 2589,-282.5 2595,-276.5 2601,-276.5 2601,-276.5 2668,-276.5 2668,-276.5 2674,-276.5 2680,-282.5 2680,-288.5 2680,-288.5 2680,-300.5 2680,-300.5 2680,-306.5 2674,-312.5 2668,-312.5"/>
<text text-anchor="middle" x="2634.5" y="-290.8" font-family="Times,serif" font-size="14.00">path combine</text>
</g>
<!-- 0&#45;&gt;3 -->
<g id="edge3" class="edge"><title>0&#45;&gt;3</title>
<path fill="none" stroke="black" d="M2151.21,-366.644C2277.26,-348.088 2481.16,-318.074 2578.84,-303.693"/>
<polygon fill="black" stroke="black" points="2579.42,-307.145 2588.81,-302.226 2578.41,-300.22 2579.42,-307.145"/>
</g>
<!-- 4 -->
<g id="node5" class="node"><title>4</title>
<path fill="#d3ffff" stroke="black" d="M334.5,-201C334.5,-201 300.5,-201 300.5,-201 294.5,-201 288.5,-195 288.5,-189 288.5,-189 288.5,-177 288.5,-177 288.5,-171 294.5,-165 300.5,-165 300.5,-165 334.5,-165 334.5,-165 340.5,-165 346.5,-171 346.5,-177 346.5,-177 346.5,-189 346.5,-189 346.5,-195 340.5,-201 334.5,-201"/>
<text text-anchor="middle" x="317.5" y="-179.3" font-family="Times,serif" font-size="14.00">comp 0</text>
</g>
<!-- 1&#45;&gt;4 -->
<g id="edge4" class="edge"><title>1&#45;&gt;4</title>
<path fill="none" stroke="black" d="M723.788,-277.18C668.007,-264.93 589.931,-247.647 521.5,-232 463.952,-218.842 397.406,-203.082 356.384,-193.303"/>
<polygon fill="black" stroke="black" points="357.065,-189.867 346.526,-190.951 355.441,-196.676 357.065,-189.867"/>
</g>
<!-- 5 -->
<g id="node6" class="node"><title>5</title>
<path fill="#bfe6e6" stroke="black" d="M598.5,-202C598.5,-202 542.5,-202 542.5,-202 536.5,-202 530.5,-196 530.5,-190 530.5,-190 530.5,-176 530.5,-176 530.5,-170 536.5,-164 542.5,-164 542.5,-164 598.5,-164 598.5,-164 604.5,-164 610.5,-170 610.5,-176 610.5,-176 610.5,-190 610.5,-190 610.5,-196 604.5,-202 598.5,-202"/>
<text text-anchor="middle" x="570.5" y="-186.8" font-family="Times,serif" font-size="14.00">comp 1</text>
<text text-anchor="middle" x="570.5" y="-171.8" font-family="Times,serif" font-size="14.00">n kernels: 5</text>
</g>
<!-- 1&#45;&gt;5 -->
<g id="edge5" class="edge"><title>1&#45;&gt;5</title>
<path fill="none" stroke="black" d="M760.85,-275.418C721.576,-256.556 659.926,-226.948 617.487,-206.566"/>
<polygon fill="black" stroke="black" points="618.735,-203.283 608.205,-202.109 615.705,-209.593 618.735,-203.283"/>
</g>
<!-- 6 -->
<g id="node7" class="node"><title>6</title>
<path fill="#abcece" stroke="black" d="M861,-202C861,-202 736,-202 736,-202 730,-202 724,-196 724,-190 724,-190 724,-176 724,-176 724,-170 730,-164 736,-164 736,-164 861,-164 861,-164 867,-164 873,-170 873,-176 873,-176 873,-190 873,-190 873,-196 867,-202 861,-202"/>
<text text-anchor="middle" x="798.5" y="-186.8" font-family="Times,serif" font-size="14.00">comp 2</text>
<text text-anchor="middle" x="798.5" y="-171.8" font-family="Times,serif" font-size="14.00">log gamma1: &#45;0.748942</text>
</g>
<!-- 1&#45;&gt;6 -->
<g id="edge6" class="edge"><title>1&#45;&gt;6</title>
<path fill="none" stroke="black" d="M798.5,-275.418C798.5,-258.221 798.5,-232.089 798.5,-212.163"/>
<polygon fill="black" stroke="black" points="802,-212.109 798.5,-202.109 795,-212.109 802,-212.109"/>
</g>
<!-- 7 -->
<g id="node8" class="node"><title>7</title>
<path fill="#97b6b6" stroke="black" d="M1102.5,-202C1102.5,-202 982.5,-202 982.5,-202 976.5,-202 970.5,-196 970.5,-190 970.5,-190 970.5,-176 970.5,-176 970.5,-170 976.5,-164 982.5,-164 982.5,-164 1102.5,-164 1102.5,-164 1108.5,-164 1114.5,-170 1114.5,-176 1114.5,-176 1114.5,-190 1114.5,-190 1114.5,-196 1108.5,-202 1102.5,-202"/>
<text text-anchor="middle" x="1042.5" y="-186.8" font-family="Times,serif" font-size="14.00">comp 3</text>
<text text-anchor="middle" x="1042.5" y="-171.8" font-family="Times,serif" font-size="14.00">log gamma2: 0.955147</text>
</g>
<!-- 1&#45;&gt;7 -->
<g id="edge7" class="edge"><title>1&#45;&gt;7</title>
<path fill="none" stroke="black" d="M838.792,-275.418C880.999,-256.477 947.353,-226.699 992.787,-206.31"/>
<polygon fill="black" stroke="black" points="994.458,-209.396 1002.15,-202.109 991.592,-203.01 994.458,-209.396"/>
</g>
<!-- 8 -->
<g id="node9" class="node"><title>8</title>
<path fill="#d3ffff" stroke="black" d="M1608.5,-202C1608.5,-202 1540.5,-202 1540.5,-202 1534.5,-202 1528.5,-196 1528.5,-190 1528.5,-190 1528.5,-176 1528.5,-176 1528.5,-170 1534.5,-164 1540.5,-164 1540.5,-164 1608.5,-164 1608.5,-164 1614.5,-164 1620.5,-170 1620.5,-176 1620.5,-176 1620.5,-190 1620.5,-190 1620.5,-196 1614.5,-202 1608.5,-202"/>
<text text-anchor="middle" x="1574.5" y="-186.8" font-family="Times,serif" font-size="14.00">comp 0</text>
<text text-anchor="middle" x="1574.5" y="-171.8" font-family="Times,serif" font-size="14.00">n kernels: &#45;16</text>
</g>
<!-- 2&#45;&gt;8 -->
<g id="edge8" class="edge"><title>2&#45;&gt;8</title>
<path fill="none" stroke="black" d="M1928.22,-269.647C1876.52,-258.663 1814.84,-245.165 1759.5,-232 1716.13,-221.681 1667.32,-208.971 1630.73,-199.222"/>
<polygon fill="black" stroke="black" points="1631.31,-195.756 1620.75,-196.556 1629.51,-202.518 1631.31,-195.756"/>
</g>
<!-- 9 -->
<g id="node10" class="node"><title>9</title>
<path fill="#bfe6e6" stroke="black" d="M1848.5,-202C1848.5,-202 1780.5,-202 1780.5,-202 1774.5,-202 1768.5,-196 1768.5,-190 1768.5,-190 1768.5,-176 1768.5,-176 1768.5,-170 1774.5,-164 1780.5,-164 1780.5,-164 1848.5,-164 1848.5,-164 1854.5,-164 1860.5,-170 1860.5,-176 1860.5,-176 1860.5,-190 1860.5,-190 1860.5,-196 1854.5,-202 1848.5,-202"/>
<text text-anchor="middle" x="1814.5" y="-186.8" font-family="Times,serif" font-size="14.00">comp 1</text>
<text text-anchor="middle" x="1814.5" y="-171.8" font-family="Times,serif" font-size="14.00">n kernels: &#45;16</text>
</g>
<!-- 2&#45;&gt;9 -->
<g id="edge9" class="edge"><title>2&#45;&gt;9</title>
<path fill="none" stroke="black" d="M1990.1,-267.965C1951.11,-249.322 1898.76,-224.288 1861.38,-206.417"/>
<polygon fill="black" stroke="black" points="1862.75,-203.192 1852.22,-202.036 1859.73,-209.507 1862.75,-203.192"/>
</g>
<!-- 10 -->
<g id="node11" class="node"><title>10</title>
<path fill="#abcece" stroke="black" d="M2103.5,-202C2103.5,-202 1983.5,-202 1983.5,-202 1977.5,-202 1971.5,-196 1971.5,-190 1971.5,-190 1971.5,-176 1971.5,-176 1971.5,-170 1977.5,-164 1983.5,-164 1983.5,-164 2103.5,-164 2103.5,-164 2109.5,-164 2115.5,-170 2115.5,-176 2115.5,-176 2115.5,-190 2115.5,-190 2115.5,-196 2109.5,-202 2103.5,-202"/>
<text text-anchor="middle" x="2043.5" y="-186.8" font-family="Times,serif" font-size="14.00">comp 2</text>
<text text-anchor="middle" x="2043.5" y="-171.8" font-family="Times,serif" font-size="14.00">log gamma1: 1.796624</text>
</g>
<!-- 2&#45;&gt;10 -->
<g id="edge10" class="edge"><title>2&#45;&gt;10</title>
<path fill="none" stroke="black" d="M2043.5,-267.827C2043.5,-251.18 2043.5,-229.482 2043.5,-212.332"/>
<polygon fill="black" stroke="black" points="2047,-212.327 2043.5,-202.327 2040,-212.327 2047,-212.327"/>
</g>
<!-- 11 -->
<g id="node12" class="node"><title>11</title>
<path fill="#97b6b6" stroke="black" d="M2271,-202C2271,-202 2146,-202 2146,-202 2140,-202 2134,-196 2134,-190 2134,-190 2134,-176 2134,-176 2134,-170 2140,-164 2146,-164 2146,-164 2271,-164 2271,-164 2277,-164 2283,-170 2283,-176 2283,-176 2283,-190 2283,-190 2283,-196 2277,-202 2271,-202"/>
<text text-anchor="middle" x="2208.5" y="-186.8" font-family="Times,serif" font-size="14.00">comp 3</text>
<text text-anchor="middle" x="2208.5" y="-171.8" font-family="Times,serif" font-size="14.00">log gamma2: &#45;0.658948</text>
</g>
<!-- 2&#45;&gt;11 -->
<g id="edge11" class="edge"><title>2&#45;&gt;11</title>
<path fill="none" stroke="black" d="M2082.19,-267.827C2109.48,-249.71 2145.8,-225.609 2172.49,-207.901"/>
<polygon fill="black" stroke="black" points="2174.74,-210.604 2181.14,-202.158 2170.87,-204.771 2174.74,-210.604"/>
</g>
<!-- 12 -->
<g id="node13" class="node"><title>12</title>
<path fill="#839e9e" stroke="black" d="M2452,-202C2452,-202 2313,-202 2313,-202 2307,-202 2301,-196 2301,-190 2301,-190 2301,-176 2301,-176 2301,-170 2307,-164 2313,-164 2313,-164 2452,-164 2452,-164 2458,-164 2464,-170 2464,-176 2464,-176 2464,-190 2464,-190 2464,-196 2458,-202 2452,-202"/>
<text text-anchor="middle" x="2382.5" y="-186.8" font-family="Times,serif" font-size="14.00">path end 1</text>
<text text-anchor="middle" x="2382.5" y="-171.8" font-family="Times,serif" font-size="14.00">k width: &#45;2 &#160;&#160;n kernels: &#45;72</text>
</g>
<!-- 2&#45;&gt;12 -->
<g id="edge12" class="edge"><title>2&#45;&gt;12</title>
<path fill="none" stroke="black" d="M2158.55,-271.081C2201.03,-261.22 2249.12,-248.158 2291.5,-232 2309.22,-225.245 2327.89,-215.838 2343.68,-207.139"/>
<polygon fill="black" stroke="black" points="2345.61,-210.072 2352.61,-202.126 2342.18,-203.968 2345.61,-210.072"/>
</g>
<!-- 13 -->
<g id="node14" class="node"><title>13</title>
<path fill="#d3ffff" stroke="black" d="M2775,-232C2775,-232 2494,-232 2494,-232 2488,-232 2482,-226 2482,-220 2482,-220 2482,-146 2482,-146 2482,-140 2488,-134 2494,-134 2494,-134 2775,-134 2775,-134 2781,-134 2787,-140 2787,-146 2787,-146 2787,-220 2787,-220 2787,-226 2781,-232 2775,-232"/>
<text text-anchor="middle" x="2634.5" y="-216.8" font-family="Times,serif" font-size="14.00">forward</text>
<text text-anchor="middle" x="2634.5" y="-201.8" font-family="Times,serif" font-size="14.00">CB0/C3</text>
<text text-anchor="middle" x="2634.5" y="-186.8" font-family="Times,serif" font-size="14.00">dilation rate: 1 &#160;&#160;k width: 3</text>
<text text-anchor="middle" x="2634.5" y="-171.8" font-family="Times,serif" font-size="14.00">log gamma1: &#45;11.000000 &#160;&#160;log gamma2: &#45;11.000000</text>
<text text-anchor="middle" x="2634.5" y="-156.8" font-family="Times,serif" font-size="14.00">log lambda1: &#45;11.000000 &#160;&#160;log lambda2: &#45;11.000000</text>
<text text-anchor="middle" x="2634.5" y="-141.8" font-family="Times,serif" font-size="14.00">n kernels: 64</text>
</g>
<!-- 3&#45;&gt;13 -->
<g id="edge13" class="edge"><title>3&#45;&gt;13</title>
<path fill="none" stroke="black" d="M2634.5,-276.391C2634.5,-266.993 2634.5,-254.728 2634.5,-242.22"/>
<polygon fill="black" stroke="black" points="2638,-242.188 2634.5,-232.188 2631,-242.188 2638,-242.188"/>
</g>
<!-- 14 -->
<g id="node15" class="node"><title>14</title>
<path fill="#bfe6e6" stroke="black" d="M3098,-232C3098,-232 2817,-232 2817,-232 2811,-232 2805,-226 2805,-220 2805,-220 2805,-146 2805,-146 2805,-140 2811,-134 2817,-134 2817,-134 3098,-134 3098,-134 3104,-134 3110,-140 3110,-146 3110,-146 3110,-220 3110,-220 3110,-226 3104,-232 3098,-232"/>
<text text-anchor="middle" x="2957.5" y="-216.8" font-family="Times,serif" font-size="14.00">merge 1</text>
<text text-anchor="middle" x="2957.5" y="-201.8" font-family="Times,serif" font-size="14.00">CB1/PE1</text>
<text text-anchor="middle" x="2957.5" y="-186.8" font-family="Times,serif" font-size="14.00">dilation rate: 1 &#160;&#160;k width: 3</text>
<text text-anchor="middle" x="2957.5" y="-171.8" font-family="Times,serif" font-size="14.00">log gamma1: &#45;11.000000 &#160;&#160;log gamma2: &#45;11.000000</text>
<text text-anchor="middle" x="2957.5" y="-156.8" font-family="Times,serif" font-size="14.00">log lambda1: &#45;11.000000 &#160;&#160;log lambda2: &#45;11.000000</text>
<text text-anchor="middle" x="2957.5" y="-141.8" font-family="Times,serif" font-size="14.00">n kernels: 64</text>
</g>
<!-- 3&#45;&gt;14 -->
<g id="edge14" class="edge"><title>3&#45;&gt;14</title>
<path fill="none" stroke="black" d="M2680.09,-278.044C2713.21,-266.816 2760.08,-250.928 2805.88,-235.402"/>
<polygon fill="black" stroke="black" points="2807.28,-238.621 2815.63,-232.096 2805.03,-231.991 2807.28,-238.621"/>
</g>
<!-- 15 -->
<g id="node16" class="node"><title>15</title>
<path fill="#e9d3ff" stroke="black" d="M293,-98C293,-98 12,-98 12,-98 6,-98 0,-92 0,-86 0,-86 0,-12 0,-12 0,-6 6,-0 12,-0 12,-0 293,-0 293,-0 299,-0 305,-6 305,-12 305,-12 305,-86 305,-86 305,-92 299,-98 293,-98"/>
<text text-anchor="middle" x="152.5" y="-82.8" font-family="Times,serif" font-size="14.00">forward</text>
<text text-anchor="middle" x="152.5" y="-67.8" font-family="Times,serif" font-size="14.00">input</text>
<text text-anchor="middle" x="152.5" y="-52.8" font-family="Times,serif" font-size="14.00">dilation rate: 1 &#160;&#160;k width: 3</text>
<text text-anchor="middle" x="152.5" y="-37.8" font-family="Times,serif" font-size="14.00">log gamma1: &#45;11.000000 &#160;&#160;log gamma2: &#45;11.000000</text>
<text text-anchor="middle" x="152.5" y="-22.8" font-family="Times,serif" font-size="14.00">log lambda1: &#45;11.000000 &#160;&#160;log lambda2: &#45;11.000000</text>
<text text-anchor="middle" x="152.5" y="-7.8" font-family="Times,serif" font-size="14.00">n kernels: 64</text>
</g>
<!-- 4&#45;&gt;15 -->
<g id="edge15" class="edge"><title>4&#45;&gt;15</title>
<path fill="none" stroke="black" d="M295.929,-164.743C276.768,-149.415 247.7,-126.16 220.731,-104.584"/>
<polygon fill="black" stroke="black" points="222.812,-101.767 212.817,-98.2533 218.439,-107.233 222.812,-101.767"/>
</g>
<!-- 16 -->
<g id="node17" class="node"><title>16</title>
<path fill="#e9d3ff" stroke="black" d="M616,-98C616,-98 335,-98 335,-98 329,-98 323,-92 323,-86 323,-86 323,-12 323,-12 323,-6 329,-0 335,-0 335,-0 616,-0 616,-0 622,-0 628,-6 628,-12 628,-12 628,-86 628,-86 628,-92 622,-98 616,-98"/>
<text text-anchor="middle" x="475.5" y="-82.8" font-family="Times,serif" font-size="14.00">forward</text>
<text text-anchor="middle" x="475.5" y="-67.8" font-family="Times,serif" font-size="14.00">CB0/C0</text>
<text text-anchor="middle" x="475.5" y="-52.8" font-family="Times,serif" font-size="14.00">dilation rate: 1 &#160;&#160;k width: 3</text>
<text text-anchor="middle" x="475.5" y="-37.8" font-family="Times,serif" font-size="14.00">log gamma1: &#45;11.000000 &#160;&#160;log gamma2: &#45;11.000000</text>
<text text-anchor="middle" x="475.5" y="-22.8" font-family="Times,serif" font-size="14.00">log lambda1: &#45;11.000000 &#160;&#160;log lambda2: &#45;11.000000</text>
<text text-anchor="middle" x="475.5" y="-7.8" font-family="Times,serif" font-size="14.00">n kernels: 64</text>
</g>
<!-- 5&#45;&gt;16 -->
<g id="edge16" class="edge"><title>5&#45;&gt;16</title>
<path fill="none" stroke="black" d="M557.49,-163.923C546.768,-149.025 530.959,-127.059 516.077,-106.381"/>
<polygon fill="black" stroke="black" points="518.896,-104.306 510.214,-98.2336 513.214,-108.395 518.896,-104.306"/>
</g>
<!-- 17 -->
<g id="node18" class="node"><title>17</title>
<path fill="#e9d3ff" stroke="black" d="M939,-98C939,-98 658,-98 658,-98 652,-98 646,-92 646,-86 646,-86 646,-12 646,-12 646,-6 652,-0 658,-0 658,-0 939,-0 939,-0 945,-0 951,-6 951,-12 951,-12 951,-86 951,-86 951,-92 945,-98 939,-98"/>
<text text-anchor="middle" x="798.5" y="-82.8" font-family="Times,serif" font-size="14.00">forward</text>
<text text-anchor="middle" x="798.5" y="-67.8" font-family="Times,serif" font-size="14.00">CB0/C1</text>
<text text-anchor="middle" x="798.5" y="-52.8" font-family="Times,serif" font-size="14.00">dilation rate: 1 &#160;&#160;k width: 3</text>
<text text-anchor="middle" x="798.5" y="-37.8" font-family="Times,serif" font-size="14.00">log gamma1: &#45;11.000000 &#160;&#160;log gamma2: &#45;11.000000</text>
<text text-anchor="middle" x="798.5" y="-22.8" font-family="Times,serif" font-size="14.00">log lambda1: &#45;11.000000 &#160;&#160;log lambda2: &#45;11.000000</text>
<text text-anchor="middle" x="798.5" y="-7.8" font-family="Times,serif" font-size="14.00">n kernels: 64</text>
</g>
<!-- 6&#45;&gt;17 -->
<g id="edge17" class="edge"><title>6&#45;&gt;17</title>
<path fill="none" stroke="black" d="M798.5,-163.923C798.5,-149.486 798.5,-128.413 798.5,-108.306"/>
<polygon fill="black" stroke="black" points="802,-108.234 798.5,-98.2336 795,-108.234 802,-108.234"/>
</g>
<!-- 18 -->
<g id="node19" class="node"><title>18</title>
<path fill="#e9d3ff" stroke="black" d="M1262,-98C1262,-98 981,-98 981,-98 975,-98 969,-92 969,-86 969,-86 969,-12 969,-12 969,-6 975,-0 981,-0 981,-0 1262,-0 1262,-0 1268,-0 1274,-6 1274,-12 1274,-12 1274,-86 1274,-86 1274,-92 1268,-98 1262,-98"/>
<text text-anchor="middle" x="1121.5" y="-82.8" font-family="Times,serif" font-size="14.00">forward</text>
<text text-anchor="middle" x="1121.5" y="-67.8" font-family="Times,serif" font-size="14.00">CB0/C2</text>
<text text-anchor="middle" x="1121.5" y="-52.8" font-family="Times,serif" font-size="14.00">dilation rate: 1 &#160;&#160;k width: 3</text>
<text text-anchor="middle" x="1121.5" y="-37.8" font-family="Times,serif" font-size="14.00">log gamma1: &#45;11.000000 &#160;&#160;log gamma2: &#45;11.000000</text>
<text text-anchor="middle" x="1121.5" y="-22.8" font-family="Times,serif" font-size="14.00">log lambda1: &#45;11.000000 &#160;&#160;log lambda2: &#45;11.000000</text>
<text text-anchor="middle" x="1121.5" y="-7.8" font-family="Times,serif" font-size="14.00">n kernels: 64</text>
</g>
<!-- 7&#45;&gt;18 -->
<g id="edge18" class="edge"><title>7&#45;&gt;18</title>
<path fill="none" stroke="black" d="M1053.32,-163.923C1062.16,-149.157 1075.15,-127.447 1087.43,-106.93"/>
<polygon fill="black" stroke="black" points="1090.5,-108.612 1092.63,-98.2336 1084.49,-105.017 1090.5,-108.612"/>
</g>
<!-- 19 -->
<g id="node20" class="node"><title>19</title>
<path fill="#e9d3ff" stroke="black" d="M1585,-98C1585,-98 1304,-98 1304,-98 1298,-98 1292,-92 1292,-86 1292,-86 1292,-12 1292,-12 1292,-6 1298,-0 1304,-0 1304,-0 1585,-0 1585,-0 1591,-0 1597,-6 1597,-12 1597,-12 1597,-86 1597,-86 1597,-92 1591,-98 1585,-98"/>
<text text-anchor="middle" x="1444.5" y="-82.8" font-family="Times,serif" font-size="14.00">forward</text>
<text text-anchor="middle" x="1444.5" y="-67.8" font-family="Times,serif" font-size="14.00">input</text>
<text text-anchor="middle" x="1444.5" y="-52.8" font-family="Times,serif" font-size="14.00">dilation rate: 1 &#160;&#160;k width: 3</text>
<text text-anchor="middle" x="1444.5" y="-37.8" font-family="Times,serif" font-size="14.00">log gamma1: &#45;11.000000 &#160;&#160;log gamma2: &#45;11.000000</text>
<text text-anchor="middle" x="1444.5" y="-22.8" font-family="Times,serif" font-size="14.00">log lambda1: &#45;11.000000 &#160;&#160;log lambda2: &#45;11.000000</text>
<text text-anchor="middle" x="1444.5" y="-7.8" font-family="Times,serif" font-size="14.00">n kernels: 64</text>
</g>
<!-- 8&#45;&gt;19 -->
<g id="edge19" class="edge"><title>8&#45;&gt;19</title>
<path fill="none" stroke="black" d="M1556.7,-163.923C1541.83,-148.827 1519.82,-126.475 1499.22,-105.558"/>
<polygon fill="black" stroke="black" points="1501.51,-102.903 1492,-98.2336 1496.53,-107.814 1501.51,-102.903"/>
</g>
<!-- 20 -->
<g id="node21" class="node"><title>20</title>
<path fill="#e9d3ff" stroke="black" d="M1908,-98C1908,-98 1627,-98 1627,-98 1621,-98 1615,-92 1615,-86 1615,-86 1615,-12 1615,-12 1615,-6 1621,-0 1627,-0 1627,-0 1908,-0 1908,-0 1914,-0 1920,-6 1920,-12 1920,-12 1920,-86 1920,-86 1920,-92 1914,-98 1908,-98"/>
<text text-anchor="middle" x="1767.5" y="-82.8" font-family="Times,serif" font-size="14.00">forward</text>
<text text-anchor="middle" x="1767.5" y="-67.8" font-family="Times,serif" font-size="14.00">CB1/C0</text>
<text text-anchor="middle" x="1767.5" y="-52.8" font-family="Times,serif" font-size="14.00">dilation rate: 1 &#160;&#160;k width: 3</text>
<text text-anchor="middle" x="1767.5" y="-37.8" font-family="Times,serif" font-size="14.00">log gamma1: &#45;11.000000 &#160;&#160;log gamma2: &#45;11.000000</text>
<text text-anchor="middle" x="1767.5" y="-22.8" font-family="Times,serif" font-size="14.00">log lambda1: &#45;11.000000 &#160;&#160;log lambda2: &#45;11.000000</text>
<text text-anchor="middle" x="1767.5" y="-7.8" font-family="Times,serif" font-size="14.00">n kernels: 64</text>
</g>
<!-- 9&#45;&gt;20 -->
<g id="edge20" class="edge"><title>9&#45;&gt;20</title>
<path fill="none" stroke="black" d="M1808.06,-163.923C1802.88,-149.355 1795.28,-128.028 1788.06,-107.755"/>
<polygon fill="black" stroke="black" points="1791.33,-106.48 1784.67,-98.2336 1784.73,-108.828 1791.33,-106.48"/>
</g>
<!-- 21 -->
<g id="node22" class="node"><title>21</title>
<path fill="#e9d3ff" stroke="black" d="M2231,-98C2231,-98 1950,-98 1950,-98 1944,-98 1938,-92 1938,-86 1938,-86 1938,-12 1938,-12 1938,-6 1944,-0 1950,-0 1950,-0 2231,-0 2231,-0 2237,-0 2243,-6 2243,-12 2243,-12 2243,-86 2243,-86 2243,-92 2237,-98 2231,-98"/>
<text text-anchor="middle" x="2090.5" y="-82.8" font-family="Times,serif" font-size="14.00">forward</text>
<text text-anchor="middle" x="2090.5" y="-67.8" font-family="Times,serif" font-size="14.00">CB1/C1</text>
<text text-anchor="middle" x="2090.5" y="-52.8" font-family="Times,serif" font-size="14.00">dilation rate: 1 &#160;&#160;k width: 3</text>
<text text-anchor="middle" x="2090.5" y="-37.8" font-family="Times,serif" font-size="14.00">log gamma1: &#45;11.000000 &#160;&#160;log gamma2: &#45;11.000000</text>
<text text-anchor="middle" x="2090.5" y="-22.8" font-family="Times,serif" font-size="14.00">log lambda1: &#45;11.000000 &#160;&#160;log lambda2: &#45;11.000000</text>
<text text-anchor="middle" x="2090.5" y="-7.8" font-family="Times,serif" font-size="14.00">n kernels: 64</text>
</g>
<!-- 10&#45;&gt;21 -->
<g id="edge21" class="edge"><title>10&#45;&gt;21</title>
<path fill="none" stroke="black" d="M2049.94,-163.923C2055.12,-149.355 2062.72,-128.028 2069.94,-107.755"/>
<polygon fill="black" stroke="black" points="2073.27,-108.828 2073.33,-98.2336 2066.67,-106.48 2073.27,-108.828"/>
</g>
<!-- 22 -->
<g id="node23" class="node"><title>22</title>
<path fill="#e9d3ff" stroke="black" d="M2554,-98C2554,-98 2273,-98 2273,-98 2267,-98 2261,-92 2261,-86 2261,-86 2261,-12 2261,-12 2261,-6 2267,-0 2273,-0 2273,-0 2554,-0 2554,-0 2560,-0 2566,-6 2566,-12 2566,-12 2566,-86 2566,-86 2566,-92 2560,-98 2554,-98"/>
<text text-anchor="middle" x="2413.5" y="-82.8" font-family="Times,serif" font-size="14.00">forward</text>
<text text-anchor="middle" x="2413.5" y="-67.8" font-family="Times,serif" font-size="14.00">CB1/C2</text>
<text text-anchor="middle" x="2413.5" y="-52.8" font-family="Times,serif" font-size="14.00">dilation rate: 1 &#160;&#160;k width: 3</text>
<text text-anchor="middle" x="2413.5" y="-37.8" font-family="Times,serif" font-size="14.00">log gamma1: &#45;11.000000 &#160;&#160;log gamma2: &#45;11.000000</text>
<text text-anchor="middle" x="2413.5" y="-22.8" font-family="Times,serif" font-size="14.00">log lambda1: &#45;11.000000 &#160;&#160;log lambda2: &#45;11.000000</text>
<text text-anchor="middle" x="2413.5" y="-7.8" font-family="Times,serif" font-size="14.00">n kernels: 64</text>
</g>
<!-- 11&#45;&gt;22 -->
<g id="edge22" class="edge"><title>11&#45;&gt;22</title>
<path fill="none" stroke="black" d="M2236.57,-163.923C2260.63,-148.432 2296.56,-125.298 2329.77,-103.917"/>
<polygon fill="black" stroke="black" points="2332.08,-106.59 2338.59,-98.2336 2328.29,-100.705 2332.08,-106.59"/>
</g>
<!-- 23 -->
<g id="node24" class="node"><title>23</title>
<path fill="#e9d3ff" stroke="black" d="M2877,-98C2877,-98 2596,-98 2596,-98 2590,-98 2584,-92 2584,-86 2584,-86 2584,-12 2584,-12 2584,-6 2590,-0 2596,-0 2596,-0 2877,-0 2877,-0 2883,-0 2889,-6 2889,-12 2889,-12 2889,-86 2889,-86 2889,-92 2883,-98 2877,-98"/>
<text text-anchor="middle" x="2736.5" y="-82.8" font-family="Times,serif" font-size="14.00">forward</text>
<text text-anchor="middle" x="2736.5" y="-67.8" font-family="Times,serif" font-size="14.00">CB1/C3</text>
<text text-anchor="middle" x="2736.5" y="-52.8" font-family="Times,serif" font-size="14.00">dilation rate: 1 &#160;&#160;k width: 3</text>
<text text-anchor="middle" x="2736.5" y="-37.8" font-family="Times,serif" font-size="14.00">log gamma1: &#45;11.000000 &#160;&#160;log gamma2: &#45;11.000000</text>
<text text-anchor="middle" x="2736.5" y="-22.8" font-family="Times,serif" font-size="14.00">log lambda1: &#45;11.000000 &#160;&#160;log lambda2: &#45;11.000000</text>
<text text-anchor="middle" x="2736.5" y="-7.8" font-family="Times,serif" font-size="14.00">n kernels: 64</text>
</g>
<!-- 12&#45;&gt;23 -->
<g id="edge23" class="edge"><title>12&#45;&gt;23</title>
<path fill="none" stroke="black" d="M2413.06,-163.912C2430.17,-154.245 2452.1,-142.6 2472.5,-134 2492.69,-125.488 2531.95,-112.395 2574.14,-99.0598"/>
<polygon fill="black" stroke="black" points="2575.27,-102.374 2583.76,-96.032 2573.17,-95.6966 2575.27,-102.374"/>
</g>
</g>
</svg>
