<?xml version="1.0" encoding="UTF-8" standalone="no"?>
<!DOCTYPE svg PUBLIC "-//W3C//DTD SVG 1.1//EN"
 "http://www.w3.org/Graphics/SVG/1.1/DTD/svg11.dtd">
<!-- Generated by graphviz version 2.38.0 (20140413.2041)
 -->
<!-- Title: %3 Pages: 1 -->
<svg width="1380pt" height="418pt"
 viewBox="0.00 0.00 1380.00 418.00" xmlns="http://www.w3.org/2000/svg" xmlns:xlink="http://www.w3.org/1999/xlink">
<g id="graph0" class="graph" transform="scale(1 1) rotate(0) translate(4 414)">
<title>%3</title>
<polygon fill="none" stroke="none" points="-4,4 -4,-414 1376,-414 1376,4 -4,4"/>
<!-- 0 -->
<g id="node1" class="node"><title>0</title>
<path fill="#ffd3d3" stroke="black" d="M656,-410C656,-410 465,-410 465,-410 459,-410 453,-404 453,-398 453,-398 453,-369 453,-369 453,-363 459,-357 465,-357 465,-357 656,-357 656,-357 662,-357 668,-363 668,-369 668,-369 668,-398 668,-398 668,-404 662,-410 656,-410"/>
<text text-anchor="middle" x="560.5" y="-394.8" font-family="Times,serif" font-size="14.00">net</text>
<text text-anchor="middle" x="560.5" y="-379.8" font-family="Times,serif" font-size="14.00">k width: 3 &#160;&#160;log gamma2: &#45;8.875272</text>
<text text-anchor="middle" x="560.5" y="-364.8" font-family="Times,serif" font-size="14.00">n kernels: 111</text>
</g>
<!-- 1 -->
<g id="node2" class="node"><title>1</title>
<path fill="#e9ffd3" stroke="black" d="M376.5,-313.5C376.5,-313.5 256.5,-313.5 256.5,-313.5 250.5,-313.5 244.5,-307.5 244.5,-301.5 244.5,-301.5 244.5,-287.5 244.5,-287.5 244.5,-281.5 250.5,-275.5 256.5,-275.5 256.5,-275.5 376.5,-275.5 376.5,-275.5 382.5,-275.5 388.5,-281.5 388.5,-287.5 388.5,-287.5 388.5,-301.5 388.5,-301.5 388.5,-307.5 382.5,-313.5 376.5,-313.5"/>
<text text-anchor="middle" x="316.5" y="-298.3" font-family="Times,serif" font-size="14.00">conv block 0</text>
<text text-anchor="middle" x="316.5" y="-283.3" font-family="Times,serif" font-size="14.00">log gamma2: 0.869963</text>
</g>
<!-- 0&#45;&gt;1 -->
<g id="edge1" class="edge"><title>0&#45;&gt;1</title>
<path fill="none" stroke="black" d="M488.941,-356.985C453.36,-344.299 410.833,-329.135 376.915,-317.041"/>
<polygon fill="black" stroke="black" points="377.731,-313.617 367.137,-313.555 375.38,-320.21 377.731,-313.617"/>
</g>
<!-- 2 -->
<g id="node3" class="node"><title>2</title>
<path fill="#e9ffd3" stroke="black" d="M624,-321C624,-321 497,-321 497,-321 491,-321 485,-315 485,-309 485,-309 485,-280 485,-280 485,-274 491,-268 497,-268 497,-268 624,-268 624,-268 630,-268 636,-274 636,-280 636,-280 636,-309 636,-309 636,-315 630,-321 624,-321"/>
<text text-anchor="middle" x="560.5" y="-305.8" font-family="Times,serif" font-size="14.00">conv block 1</text>
<text text-anchor="middle" x="560.5" y="-290.8" font-family="Times,serif" font-size="14.00">n kernels: &#45;16 &#160;&#160;pool z: 1</text>
<text text-anchor="middle" x="560.5" y="-275.8" font-family="Times,serif" font-size="14.00">spatial scale: 1</text>
</g>
<!-- 0&#45;&gt;2 -->
<g id="edge2" class="edge"><title>0&#45;&gt;2</title>
<path fill="none" stroke="black" d="M560.5,-356.868C560.5,-348.886 560.5,-339.932 560.5,-331.384"/>
<polygon fill="black" stroke="black" points="564,-331.25 560.5,-321.25 557,-331.25 564,-331.25"/>
</g>
<!-- 3 -->
<g id="node4" class="node"><title>3</title>
<path fill="#e9ffd3" stroke="black" d="M930,-312.5C930,-312.5 863,-312.5 863,-312.5 857,-312.5 851,-306.5 851,-300.5 851,-300.5 851,-288.5 851,-288.5 851,-282.5 857,-276.5 863,-276.5 863,-276.5 930,-276.5 930,-276.5 936,-276.5 942,-282.5 942,-288.5 942,-288.5 942,-300.5 942,-300.5 942,-306.5 936,-312.5 930,-312.5"/>
<text text-anchor="middle" x="896.5" y="-290.8" font-family="Times,serif" font-size="14.00">path combine</text>
</g>
<!-- 0&#45;&gt;3 -->
<g id="edge3" class="edge"><title>0&#45;&gt;3</title>
<path fill="none" stroke="black" d="M659.041,-356.985C718.28,-341.646 791.504,-322.686 840.852,-309.909"/>
<polygon fill="black" stroke="black" points="841.895,-313.254 850.698,-307.359 840.14,-306.478 841.895,-313.254"/>
</g>
<!-- 4 -->
<g id="node5" class="node"><title>4</title>
<path fill="#d3ffff" stroke="black" d="M254,-202C254,-202 129,-202 129,-202 123,-202 117,-196 117,-190 117,-190 117,-176 117,-176 117,-170 123,-164 129,-164 129,-164 254,-164 254,-164 260,-164 266,-170 266,-176 266,-176 266,-190 266,-190 266,-196 260,-202 254,-202"/>
<text text-anchor="middle" x="191.5" y="-186.8" font-family="Times,serif" font-size="14.00">comp 0</text>
<text text-anchor="middle" x="191.5" y="-171.8" font-family="Times,serif" font-size="14.00">log gamma1: &#45;1.991094</text>
</g>
<!-- 1&#45;&gt;4 -->
<g id="edge4" class="edge"><title>1&#45;&gt;4</title>
<path fill="none" stroke="black" d="M295.859,-275.418C275.141,-257.27 243.066,-229.172 219.944,-208.917"/>
<polygon fill="black" stroke="black" points="222,-206.065 212.172,-202.109 217.388,-211.331 222,-206.065"/>
</g>
<!-- 5 -->
<g id="node6" class="node"><title>5</title>
<path fill="#d3ffff" stroke="black" d="M538,-202C538,-202 413,-202 413,-202 407,-202 401,-196 401,-190 401,-190 401,-176 401,-176 401,-170 407,-164 413,-164 413,-164 538,-164 538,-164 544,-164 550,-170 550,-176 550,-176 550,-190 550,-190 550,-196 544,-202 538,-202"/>
<text text-anchor="middle" x="475.5" y="-186.8" font-family="Times,serif" font-size="14.00">comp 0</text>
<text text-anchor="middle" x="475.5" y="-171.8" font-family="Times,serif" font-size="14.00">log gamma2: &#45;0.819693</text>
</g>
<!-- 2&#45;&gt;5 -->
<g id="edge5" class="edge"><title>2&#45;&gt;5</title>
<path fill="none" stroke="black" d="M540.571,-267.827C527.162,-250.552 509.529,-227.837 496.001,-210.41"/>
<polygon fill="black" stroke="black" points="498.623,-208.08 489.726,-202.327 493.094,-212.372 498.623,-208.08"/>
</g>
<!-- 6 -->
<g id="node7" class="node"><title>6</title>
<path fill="#bfe6e6" stroke="black" d="M713.5,-202C713.5,-202 579.5,-202 579.5,-202 573.5,-202 567.5,-196 567.5,-190 567.5,-190 567.5,-176 567.5,-176 567.5,-170 573.5,-164 579.5,-164 579.5,-164 713.5,-164 713.5,-164 719.5,-164 725.5,-170 725.5,-176 725.5,-176 725.5,-190 725.5,-190 725.5,-196 719.5,-202 713.5,-202"/>
<text text-anchor="middle" x="646.5" y="-186.8" font-family="Times,serif" font-size="14.00">path end 1</text>
<text text-anchor="middle" x="646.5" y="-171.8" font-family="Times,serif" font-size="14.00">k width: &#45;2 &#160;&#160;n kernels: 16</text>
</g>
<!-- 2&#45;&gt;6 -->
<g id="edge6" class="edge"><title>2&#45;&gt;6</title>
<path fill="none" stroke="black" d="M580.663,-267.827C594.231,-250.552 612.071,-227.837 625.758,-210.41"/>
<polygon fill="black" stroke="black" points="628.682,-212.353 632.106,-202.327 623.177,-208.029 628.682,-212.353"/>
</g>
<!-- 7 -->
<g id="node8" class="node"><title>7</title>
<path fill="#d3ffff" stroke="black" d="M1037,-232C1037,-232 756,-232 756,-232 750,-232 744,-226 744,-220 744,-220 744,-146 744,-146 744,-140 750,-134 756,-134 756,-134 1037,-134 1037,-134 1043,-134 1049,-140 1049,-146 1049,-146 1049,-220 1049,-220 1049,-226 1043,-232 1037,-232"/>
<text text-anchor="middle" x="896.5" y="-216.8" font-family="Times,serif" font-size="14.00">forward</text>
<text text-anchor="middle" x="896.5" y="-201.8" font-family="Times,serif" font-size="14.00">CB0/C0</text>
<text text-anchor="middle" x="896.5" y="-186.8" font-family="Times,serif" font-size="14.00">dilation rate: 1 &#160;&#160;k width: 3</text>
<text text-anchor="middle" x="896.5" y="-171.8" font-family="Times,serif" font-size="14.00">log gamma1: &#45;11.000000 &#160;&#160;log gamma2: &#45;11.000000</text>
<text text-anchor="middle" x="896.5" y="-156.8" font-family="Times,serif" font-size="14.00">log lambda1: &#45;11.000000 &#160;&#160;log lambda2: &#45;11.000000</text>
<text text-anchor="middle" x="896.5" y="-141.8" font-family="Times,serif" font-size="14.00">n kernels: 64</text>
</g>
<!-- 3&#45;&gt;7 -->
<g id="edge7" class="edge"><title>3&#45;&gt;7</title>
<path fill="none" stroke="black" d="M896.5,-276.391C896.5,-266.993 896.5,-254.728 896.5,-242.22"/>
<polygon fill="black" stroke="black" points="900,-242.188 896.5,-232.188 893,-242.188 900,-242.188"/>
</g>
<!-- 8 -->
<g id="node9" class="node"><title>8</title>
<path fill="#bfe6e6" stroke="black" d="M1360,-232C1360,-232 1079,-232 1079,-232 1073,-232 1067,-226 1067,-220 1067,-220 1067,-146 1067,-146 1067,-140 1073,-134 1079,-134 1079,-134 1360,-134 1360,-134 1366,-134 1372,-140 1372,-146 1372,-146 1372,-220 1372,-220 1372,-226 1366,-232 1360,-232"/>
<text text-anchor="middle" x="1219.5" y="-216.8" font-family="Times,serif" font-size="14.00">residual 1</text>
<text text-anchor="middle" x="1219.5" y="-201.8" font-family="Times,serif" font-size="14.00">CB1/PE1</text>
<text text-anchor="middle" x="1219.5" y="-186.8" font-family="Times,serif" font-size="14.00">dilation rate: 1 &#160;&#160;k width: 3</text>
<text text-anchor="middle" x="1219.5" y="-171.8" font-family="Times,serif" font-size="14.00">log gamma1: &#45;11.000000 &#160;&#160;log gamma2: &#45;11.000000</text>
<text text-anchor="middle" x="1219.5" y="-156.8" font-family="Times,serif" font-size="14.00">log lambda1: &#45;11.000000 &#160;&#160;log lambda2: &#45;11.000000</text>
<text text-anchor="middle" x="1219.5" y="-141.8" font-family="Times,serif" font-size="14.00">n kernels: 64</text>
</g>
<!-- 3&#45;&gt;8 -->
<g id="edge8" class="edge"><title>3&#45;&gt;8</title>
<path fill="none" stroke="black" d="M942.093,-278.044C975.212,-266.816 1022.08,-250.928 1067.88,-235.402"/>
<polygon fill="black" stroke="black" points="1069.28,-238.621 1077.63,-232.096 1067.03,-231.991 1069.28,-238.621"/>
</g>
<!-- 9 -->
<g id="node10" class="node"><title>9</title>
<path fill="#e9d3ff" stroke="black" d="M293,-98C293,-98 12,-98 12,-98 6,-98 0,-92 0,-86 0,-86 0,-12 0,-12 0,-6 6,-0 12,-0 12,-0 293,-0 293,-0 299,-0 305,-6 305,-12 305,-12 305,-86 305,-86 305,-92 299,-98 293,-98"/>
<text text-anchor="middle" x="152.5" y="-82.8" font-family="Times,serif" font-size="14.00">forward</text>
<text text-anchor="middle" x="152.5" y="-67.8" font-family="Times,serif" font-size="14.00">input</text>
<text text-anchor="middle" x="152.5" y="-52.8" font-family="Times,serif" font-size="14.00">dilation rate: 1 &#160;&#160;k width: 3</text>
<text text-anchor="middle" x="152.5" y="-37.8" font-family="Times,serif" font-size="14.00">log gamma1: &#45;11.000000 &#160;&#160;log gamma2: &#45;11.000000</text>
<text text-anchor="middle" x="152.5" y="-22.8" font-family="Times,serif" font-size="14.00">log lambda1: &#45;11.000000 &#160;&#160;log lambda2: &#45;11.000000</text>
<text text-anchor="middle" x="152.5" y="-7.8" font-family="Times,serif" font-size="14.00">n kernels: 64</text>
</g>
<!-- 4&#45;&gt;9 -->
<g id="edge9" class="edge"><title>4&#45;&gt;9</title>
<path fill="none" stroke="black" d="M186.159,-163.923C181.874,-149.42 175.611,-128.221 169.645,-108.03"/>
<polygon fill="black" stroke="black" points="172.941,-106.832 166.751,-98.2336 166.228,-108.816 172.941,-106.832"/>
</g>
<!-- 10 -->
<g id="node11" class="node"><title>10</title>
<path fill="#e9d3ff" stroke="black" d="M616,-98C616,-98 335,-98 335,-98 329,-98 323,-92 323,-86 323,-86 323,-12 323,-12 323,-6 329,-0 335,-0 335,-0 616,-0 616,-0 622,-0 628,-6 628,-12 628,-12 628,-86 628,-86 628,-92 622,-98 616,-98"/>
<text text-anchor="middle" x="475.5" y="-82.8" font-family="Times,serif" font-size="14.00">forward</text>
<text text-anchor="middle" x="475.5" y="-67.8" font-family="Times,serif" font-size="14.00">input</text>
<text text-anchor="middle" x="475.5" y="-52.8" font-family="Times,serif" font-size="14.00">dilation rate: 1 &#160;&#160;k width: 3</text>
<text text-anchor="middle" x="475.5" y="-37.8" font-family="Times,serif" font-size="14.00">log gamma1: &#45;11.000000 &#160;&#160;log gamma2: &#45;11.000000</text>
<text text-anchor="middle" x="475.5" y="-22.8" font-family="Times,serif" font-size="14.00">log lambda1: &#45;11.000000 &#160;&#160;log lambda2: &#45;11.000000</text>
<text text-anchor="middle" x="475.5" y="-7.8" font-family="Times,serif" font-size="14.00">n kernels: 64</text>
</g>
<!-- 5&#45;&gt;10 -->
<g id="edge10" class="edge"><title>5&#45;&gt;10</title>
<path fill="none" stroke="black" d="M475.5,-163.923C475.5,-149.486 475.5,-128.413 475.5,-108.306"/>
<polygon fill="black" stroke="black" points="479,-108.234 475.5,-98.2336 472,-108.234 479,-108.234"/>
</g>
<!-- 11 -->
<g id="node12" class="node"><title>11</title>
<path fill="#e9d3ff" stroke="black" d="M939,-98C939,-98 658,-98 658,-98 652,-98 646,-92 646,-86 646,-86 646,-12 646,-12 646,-6 652,-0 658,-0 658,-0 939,-0 939,-0 945,-0 951,-6 951,-12 951,-12 951,-86 951,-86 951,-92 945,-98 939,-98"/>
<text text-anchor="middle" x="798.5" y="-82.8" font-family="Times,serif" font-size="14.00">forward</text>
<text text-anchor="middle" x="798.5" y="-67.8" font-family="Times,serif" font-size="14.00">CB1/C0</text>
<text text-anchor="middle" x="798.5" y="-52.8" font-family="Times,serif" font-size="14.00">dilation rate: 1 &#160;&#160;k width: 3</text>
<text text-anchor="middle" x="798.5" y="-37.8" font-family="Times,serif" font-size="14.00">log gamma1: &#45;11.000000 &#160;&#160;log gamma2: &#45;11.000000</text>
<text text-anchor="middle" x="798.5" y="-22.8" font-family="Times,serif" font-size="14.00">log lambda1: &#45;11.000000 &#160;&#160;log lambda2: &#45;11.000000</text>
<text text-anchor="middle" x="798.5" y="-7.8" font-family="Times,serif" font-size="14.00">n kernels: 64</text>
</g>
<!-- 6&#45;&gt;11 -->
<g id="edge11" class="edge"><title>6&#45;&gt;11</title>
<path fill="none" stroke="black" d="M667.316,-163.923C684.851,-148.695 710.888,-126.084 735.155,-105.01"/>
<polygon fill="black" stroke="black" points="737.703,-107.433 742.958,-98.2336 733.113,-102.148 737.703,-107.433"/>
</g>
</g>
</svg>
