<?xml version="1.0" encoding="UTF-8" standalone="no"?>
<!DOCTYPE svg PUBLIC "-//W3C//DTD SVG 1.1//EN"
 "http://www.w3.org/Graphics/SVG/1.1/DTD/svg11.dtd">
<!-- Generated by graphviz version 2.38.0 (20140413.2041)
 -->
<!-- Title: %3 Pages: 1 -->
<svg width="6144pt" height="387pt"
 viewBox="0.00 0.00 6144.00 387.00" xmlns="http://www.w3.org/2000/svg" xmlns:xlink="http://www.w3.org/1999/xlink">
<g id="graph0" class="graph" transform="scale(1 1) rotate(0) translate(4 383)">
<title>%3</title>
<polygon fill="none" stroke="none" points="-4,4 -4,-383 6140,-383 6140,4 -4,4"/>
<!-- 0 -->
<g id="node1" class="node"><title>0</title>
<path fill="#ffd3d3" stroke="black" d="M1948.5,-379C1948.5,-379 1668.5,-379 1668.5,-379 1662.5,-379 1656.5,-373 1656.5,-367 1656.5,-367 1656.5,-338 1656.5,-338 1656.5,-332 1662.5,-326 1668.5,-326 1668.5,-326 1948.5,-326 1948.5,-326 1954.5,-326 1960.5,-332 1960.5,-338 1960.5,-338 1960.5,-367 1960.5,-367 1960.5,-373 1954.5,-379 1948.5,-379"/>
<text text-anchor="middle" x="1808.5" y="-363.8" font-family="Times,serif" font-size="14.00">net</text>
<text text-anchor="middle" x="1808.5" y="-348.8" font-family="Times,serif" font-size="14.00">log lambda1: &#45;11.000000 &#160;&#160;log lambda2: &#45;11.000000</text>
<text text-anchor="middle" x="1808.5" y="-333.8" font-family="Times,serif" font-size="14.00">n kernels: 118 &#160;&#160;pooling type: 0</text>
</g>
<!-- 1 -->
<g id="node2" class="node"><title>1</title>
<path fill="#f6ffd3" stroke="black" d="M730,-289C730,-289 695,-289 695,-289 689,-289 683,-283 683,-277 683,-277 683,-265 683,-265 683,-259 689,-253 695,-253 695,-253 730,-253 730,-253 736,-253 742,-259 742,-265 742,-265 742,-277 742,-277 742,-283 736,-289 730,-289"/>
<text text-anchor="middle" x="712.5" y="-267.3" font-family="Times,serif" font-size="14.00">encoder</text>
</g>
<!-- 0&#45;&gt;1 -->
<g id="edge1" class="edge"><title>0&#45;&gt;1</title>
<path fill="none" stroke="black" d="M1656.39,-340.467C1400.28,-321.889 896.746,-285.365 752.172,-274.878"/>
<polygon fill="black" stroke="black" points="752.229,-271.373 742.002,-274.14 751.722,-278.354 752.229,-271.373"/>
</g>
<!-- 2 -->
<g id="node3" class="node"><title>2</title>
<path fill="#f6ffd3" stroke="black" d="M2830.5,-290C2830.5,-290 2762.5,-290 2762.5,-290 2756.5,-290 2750.5,-284 2750.5,-278 2750.5,-278 2750.5,-264 2750.5,-264 2750.5,-258 2756.5,-252 2762.5,-252 2762.5,-252 2830.5,-252 2830.5,-252 2836.5,-252 2842.5,-258 2842.5,-264 2842.5,-264 2842.5,-278 2842.5,-278 2842.5,-284 2836.5,-290 2830.5,-290"/>
<text text-anchor="middle" x="2796.5" y="-274.8" font-family="Times,serif" font-size="14.00">decoder</text>
<text text-anchor="middle" x="2796.5" y="-259.8" font-family="Times,serif" font-size="14.00">n kernels: &#45;18</text>
</g>
<!-- 0&#45;&gt;2 -->
<g id="edge2" class="edge"><title>0&#45;&gt;2</title>
<path fill="none" stroke="black" d="M1960.71,-339.252C2184.31,-321.26 2591.15,-288.523 2740.01,-276.546"/>
<polygon fill="black" stroke="black" points="2740.59,-280.011 2750.27,-275.72 2740.02,-273.033 2740.59,-280.011"/>
</g>
<!-- 3 -->
<g id="node4" class="node"><title>3</title>
<path fill="#d3ffe4" stroke="black" d="M300,-215C300,-215 225,-215 225,-215 219,-215 213,-209 213,-203 213,-203 213,-191 213,-191 213,-185 219,-179 225,-179 225,-179 300,-179 300,-179 306,-179 312,-185 312,-191 312,-191 312,-203 312,-203 312,-209 306,-215 300,-215"/>
<text text-anchor="middle" x="262.5" y="-193.3" font-family="Times,serif" font-size="14.00">encode block 0</text>
</g>
<!-- 1&#45;&gt;3 -->
<g id="edge3" class="edge"><title>1&#45;&gt;3</title>
<path fill="none" stroke="black" d="M682.974,-265.276C609.984,-253.597 419.918,-223.187 322.291,-207.567"/>
<polygon fill="black" stroke="black" points="322.71,-204.089 312.283,-205.965 321.604,-211.001 322.71,-204.089"/>
</g>
<!-- 4 -->
<g id="node5" class="node"><title>4</title>
<path fill="#bfe6cf" stroke="black" d="M691,-216C691,-216 532,-216 532,-216 526,-216 520,-210 520,-204 520,-204 520,-190 520,-190 520,-184 526,-178 532,-178 532,-178 691,-178 691,-178 697,-178 703,-184 703,-190 703,-190 703,-204 703,-204 703,-210 697,-216 691,-216"/>
<text text-anchor="middle" x="611.5" y="-200.8" font-family="Times,serif" font-size="14.00">encode block 1</text>
<text text-anchor="middle" x="611.5" y="-185.8" font-family="Times,serif" font-size="14.00">n kernels: &#45;20 &#160;&#160;spatial scale: 1</text>
</g>
<!-- 1&#45;&gt;4 -->
<g id="edge4" class="edge"><title>1&#45;&gt;4</title>
<path fill="none" stroke="black" d="M688.564,-252.937C675.714,-243.777 659.657,-232.33 645.53,-222.259"/>
<polygon fill="black" stroke="black" points="647.204,-219.154 637.029,-216.199 643.141,-224.854 647.204,-219.154"/>
</g>
<!-- 5 -->
<g id="node6" class="node"><title>5</title>
<path fill="#abceb9" stroke="black" d="M894,-216C894,-216 733,-216 733,-216 727,-216 721,-210 721,-204 721,-204 721,-190 721,-190 721,-184 727,-178 733,-178 733,-178 894,-178 894,-178 900,-178 906,-184 906,-190 906,-190 906,-204 906,-204 906,-210 900,-216 894,-216"/>
<text text-anchor="middle" x="813.5" y="-200.8" font-family="Times,serif" font-size="14.00">encode block 2</text>
<text text-anchor="middle" x="813.5" y="-185.8" font-family="Times,serif" font-size="14.00">n kernels: 354 &#160;&#160;spatial scale: 2</text>
</g>
<!-- 1&#45;&gt;5 -->
<g id="edge5" class="edge"><title>1&#45;&gt;5</title>
<path fill="none" stroke="black" d="M736.436,-252.937C749.286,-243.777 765.343,-232.33 779.47,-222.259"/>
<polygon fill="black" stroke="black" points="781.859,-224.854 787.971,-216.199 777.796,-219.154 781.859,-224.854"/>
</g>
<!-- 6 -->
<g id="node7" class="node"><title>6</title>
<path fill="#d3ffe4" stroke="black" d="M1737,-216C1737,-216 1576,-216 1576,-216 1570,-216 1564,-210 1564,-204 1564,-204 1564,-190 1564,-190 1564,-184 1570,-178 1576,-178 1576,-178 1737,-178 1737,-178 1743,-178 1749,-184 1749,-190 1749,-190 1749,-204 1749,-204 1749,-210 1743,-216 1737,-216"/>
<text text-anchor="middle" x="1656.5" y="-200.8" font-family="Times,serif" font-size="14.00">decode block 3</text>
<text text-anchor="middle" x="1656.5" y="-185.8" font-family="Times,serif" font-size="14.00">n kernels: 700 &#160;&#160;spatial scale: 3</text>
</g>
<!-- 2&#45;&gt;6 -->
<g id="edge6" class="edge"><title>2&#45;&gt;6</title>
<path fill="none" stroke="black" d="M2750.4,-267.088C2582.03,-256.455 1997.76,-219.553 1759.18,-204.485"/>
<polygon fill="black" stroke="black" points="1759.31,-200.987 1749.11,-203.849 1758.87,-207.973 1759.31,-200.987"/>
</g>
<!-- 7 -->
<g id="node8" class="node"><title>7</title>
<path fill="#bfe6cf" stroke="black" d="M2877,-216C2877,-216 2716,-216 2716,-216 2710,-216 2704,-210 2704,-204 2704,-204 2704,-190 2704,-190 2704,-184 2710,-178 2716,-178 2716,-178 2877,-178 2877,-178 2883,-178 2889,-184 2889,-190 2889,-190 2889,-204 2889,-204 2889,-210 2883,-216 2877,-216"/>
<text text-anchor="middle" x="2796.5" y="-200.8" font-family="Times,serif" font-size="14.00">decode block 2</text>
<text text-anchor="middle" x="2796.5" y="-185.8" font-family="Times,serif" font-size="14.00">n kernels: 300 &#160;&#160;spatial scale: 2</text>
</g>
<!-- 2&#45;&gt;7 -->
<g id="edge7" class="edge"><title>2&#45;&gt;7</title>
<path fill="none" stroke="black" d="M2796.5,-251.831C2796.5,-244.131 2796.5,-234.974 2796.5,-226.417"/>
<polygon fill="black" stroke="black" points="2800,-226.413 2796.5,-216.413 2793,-226.413 2800,-226.413"/>
</g>
<!-- 8 -->
<g id="node9" class="node"><title>8</title>
<path fill="#abceb9" stroke="black" d="M3782,-216C3782,-216 3621,-216 3621,-216 3615,-216 3609,-210 3609,-204 3609,-204 3609,-190 3609,-190 3609,-184 3615,-178 3621,-178 3621,-178 3782,-178 3782,-178 3788,-178 3794,-184 3794,-190 3794,-190 3794,-204 3794,-204 3794,-210 3788,-216 3782,-216"/>
<text text-anchor="middle" x="3701.5" y="-200.8" font-family="Times,serif" font-size="14.00">decode block 1</text>
<text text-anchor="middle" x="3701.5" y="-185.8" font-family="Times,serif" font-size="14.00">n kernels: 100 &#160;&#160;spatial scale: 1</text>
</g>
<!-- 2&#45;&gt;8 -->
<g id="edge8" class="edge"><title>2&#45;&gt;8</title>
<path fill="none" stroke="black" d="M2842.62,-266.331C2982.2,-255.226 3402.5,-221.788 3598.62,-206.185"/>
<polygon fill="black" stroke="black" points="3598.96,-209.669 3608.65,-205.387 3598.4,-202.691 3598.96,-209.669"/>
</g>
<!-- 9 -->
<g id="node10" class="node"><title>9</title>
<path fill="#97b6a3" stroke="black" d="M5187,-215C5187,-215 5112,-215 5112,-215 5106,-215 5100,-209 5100,-203 5100,-203 5100,-191 5100,-191 5100,-185 5106,-179 5112,-179 5112,-179 5187,-179 5187,-179 5193,-179 5199,-185 5199,-191 5199,-191 5199,-203 5199,-203 5199,-209 5193,-215 5187,-215"/>
<text text-anchor="middle" x="5149.5" y="-193.3" font-family="Times,serif" font-size="14.00">decode block 0</text>
</g>
<!-- 2&#45;&gt;9 -->
<g id="edge9" class="edge"><title>2&#45;&gt;9</title>
<path fill="none" stroke="black" d="M2842.71,-268.586C3137.74,-259.558 4756.12,-210.037 5089.45,-199.838"/>
<polygon fill="black" stroke="black" points="5089.96,-203.324 5099.85,-199.519 5089.75,-196.327 5089.96,-203.324"/>
</g>
<!-- 10 -->
<g id="node11" class="node"><title>10</title>
<path fill="#d3e4ff" stroke="black" d="M152.5,-142C152.5,-142 84.5,-142 84.5,-142 78.5,-142 72.5,-136 72.5,-130 72.5,-130 72.5,-116 72.5,-116 72.5,-110 78.5,-104 84.5,-104 84.5,-104 152.5,-104 152.5,-104 158.5,-104 164.5,-110 164.5,-116 164.5,-116 164.5,-130 164.5,-130 164.5,-136 158.5,-142 152.5,-142"/>
<text text-anchor="middle" x="118.5" y="-126.8" font-family="Times,serif" font-size="14.00">comp 0</text>
<text text-anchor="middle" x="118.5" y="-111.8" font-family="Times,serif" font-size="14.00">n kernels: &#45;10</text>
</g>
<!-- 3&#45;&gt;10 -->
<g id="edge10" class="edge"><title>3&#45;&gt;10</title>
<path fill="none" stroke="black" d="M228.374,-178.937C209.03,-169.265 184.588,-157.044 163.671,-146.585"/>
<polygon fill="black" stroke="black" points="165.154,-143.414 154.644,-142.072 162.023,-149.675 165.154,-143.414"/>
</g>
<!-- 11 -->
<g id="node12" class="node"><title>11</title>
<path fill="#bfcfe6" stroke="black" d="M293,-142C293,-142 232,-142 232,-142 226,-142 220,-136 220,-130 220,-130 220,-116 220,-116 220,-110 226,-104 232,-104 232,-104 293,-104 293,-104 299,-104 305,-110 305,-116 305,-116 305,-130 305,-130 305,-136 299,-142 293,-142"/>
<text text-anchor="middle" x="262.5" y="-126.8" font-family="Times,serif" font-size="14.00">comp 1</text>
<text text-anchor="middle" x="262.5" y="-111.8" font-family="Times,serif" font-size="14.00">n kernels: &#45;5</text>
</g>
<!-- 3&#45;&gt;11 -->
<g id="edge11" class="edge"><title>3&#45;&gt;11</title>
<path fill="none" stroke="black" d="M262.5,-178.937C262.5,-170.987 262.5,-161.313 262.5,-152.313"/>
<polygon fill="black" stroke="black" points="266,-152.199 262.5,-142.199 259,-152.199 266,-152.199"/>
</g>
<!-- 12 -->
<g id="node13" class="node"><title>12</title>
<path fill="#d3e4ff" stroke="black" d="M502.5,-141C502.5,-141 468.5,-141 468.5,-141 462.5,-141 456.5,-135 456.5,-129 456.5,-129 456.5,-117 456.5,-117 456.5,-111 462.5,-105 468.5,-105 468.5,-105 502.5,-105 502.5,-105 508.5,-105 514.5,-111 514.5,-117 514.5,-117 514.5,-129 514.5,-129 514.5,-135 508.5,-141 502.5,-141"/>
<text text-anchor="middle" x="485.5" y="-119.3" font-family="Times,serif" font-size="14.00">comp 0</text>
</g>
<!-- 4&#45;&gt;12 -->
<g id="edge12" class="edge"><title>4&#45;&gt;12</title>
<path fill="none" stroke="black" d="M579.705,-177.831C562.695,-168.111 541.624,-156.071 523.726,-145.843"/>
<polygon fill="black" stroke="black" points="525.113,-142.605 514.694,-140.682 521.64,-148.683 525.113,-142.605"/>
</g>
<!-- 13 -->
<g id="node14" class="node"><title>13</title>
<path fill="#bfcfe6" stroke="black" d="M638.5,-141C638.5,-141 604.5,-141 604.5,-141 598.5,-141 592.5,-135 592.5,-129 592.5,-129 592.5,-117 592.5,-117 592.5,-111 598.5,-105 604.5,-105 604.5,-105 638.5,-105 638.5,-105 644.5,-105 650.5,-111 650.5,-117 650.5,-117 650.5,-129 650.5,-129 650.5,-135 644.5,-141 638.5,-141"/>
<text text-anchor="middle" x="621.5" y="-119.3" font-family="Times,serif" font-size="14.00">comp 1</text>
</g>
<!-- 4&#45;&gt;13 -->
<g id="edge13" class="edge"><title>4&#45;&gt;13</title>
<path fill="none" stroke="black" d="M614.023,-177.831C615.138,-169.807 616.472,-160.201 617.703,-151.339"/>
<polygon fill="black" stroke="black" points="621.172,-151.804 619.081,-141.418 614.238,-150.841 621.172,-151.804"/>
</g>
<!-- 14 -->
<g id="node15" class="node"><title>14</title>
<path fill="#d3e4ff" stroke="black" d="M845.5,-142C845.5,-142 771.5,-142 771.5,-142 765.5,-142 759.5,-136 759.5,-130 759.5,-130 759.5,-116 759.5,-116 759.5,-110 765.5,-104 771.5,-104 771.5,-104 845.5,-104 845.5,-104 851.5,-104 857.5,-110 857.5,-116 857.5,-116 857.5,-130 857.5,-130 857.5,-136 851.5,-142 845.5,-142"/>
<text text-anchor="middle" x="808.5" y="-126.8" font-family="Times,serif" font-size="14.00">comp 0</text>
<text text-anchor="middle" x="808.5" y="-111.8" font-family="Times,serif" font-size="14.00">n kernels: &#45;344</text>
</g>
<!-- 5&#45;&gt;14 -->
<g id="edge14" class="edge"><title>5&#45;&gt;14</title>
<path fill="none" stroke="black" d="M812.238,-177.831C811.704,-170.131 811.068,-160.974 810.473,-152.417"/>
<polygon fill="black" stroke="black" points="813.963,-152.147 809.779,-142.413 806.98,-152.632 813.963,-152.147"/>
</g>
<!-- 15 -->
<g id="node16" class="node"><title>15</title>
<path fill="#bfcfe6" stroke="black" d="M993.5,-142C993.5,-142 919.5,-142 919.5,-142 913.5,-142 907.5,-136 907.5,-130 907.5,-130 907.5,-116 907.5,-116 907.5,-110 913.5,-104 919.5,-104 919.5,-104 993.5,-104 993.5,-104 999.5,-104 1005.5,-110 1005.5,-116 1005.5,-116 1005.5,-130 1005.5,-130 1005.5,-136 999.5,-142 993.5,-142"/>
<text text-anchor="middle" x="956.5" y="-126.8" font-family="Times,serif" font-size="14.00">comp 1</text>
<text text-anchor="middle" x="956.5" y="-111.8" font-family="Times,serif" font-size="14.00">n kernels: &#45;344</text>
</g>
<!-- 5&#45;&gt;15 -->
<g id="edge15" class="edge"><title>5&#45;&gt;15</title>
<path fill="none" stroke="black" d="M849.585,-177.831C868.299,-168.409 891.343,-156.806 911.24,-146.788"/>
<polygon fill="black" stroke="black" points="913.069,-149.786 920.427,-142.163 909.921,-143.534 913.069,-149.786"/>
</g>
<!-- 16 -->
<g id="node17" class="node"><title>16</title>
<path fill="#d3e4ff" stroke="black" d="M1293.5,-141C1293.5,-141 1259.5,-141 1259.5,-141 1253.5,-141 1247.5,-135 1247.5,-129 1247.5,-129 1247.5,-117 1247.5,-117 1247.5,-111 1253.5,-105 1259.5,-105 1259.5,-105 1293.5,-105 1293.5,-105 1299.5,-105 1305.5,-111 1305.5,-117 1305.5,-117 1305.5,-129 1305.5,-129 1305.5,-135 1299.5,-141 1293.5,-141"/>
<text text-anchor="middle" x="1276.5" y="-119.3" font-family="Times,serif" font-size="14.00">comp 0</text>
</g>
<!-- 6&#45;&gt;16 -->
<g id="edge16" class="edge"><title>6&#45;&gt;16</title>
<path fill="none" stroke="black" d="M1563.74,-178.673C1507.52,-168.141 1434.37,-154.38 1369.5,-142 1351.84,-138.63 1332.31,-134.856 1315.72,-131.637"/>
<polygon fill="black" stroke="black" points="1316.3,-128.185 1305.81,-129.714 1314.96,-135.056 1316.3,-128.185"/>
</g>
<!-- 17 -->
<g id="node18" class="node"><title>17</title>
<path fill="#bfcfe6" stroke="black" d="M1464.5,-142C1464.5,-142 1390.5,-142 1390.5,-142 1384.5,-142 1378.5,-136 1378.5,-130 1378.5,-130 1378.5,-116 1378.5,-116 1378.5,-110 1384.5,-104 1390.5,-104 1390.5,-104 1464.5,-104 1464.5,-104 1470.5,-104 1476.5,-110 1476.5,-116 1476.5,-116 1476.5,-130 1476.5,-130 1476.5,-136 1470.5,-142 1464.5,-142"/>
<text text-anchor="middle" x="1427.5" y="-126.8" font-family="Times,serif" font-size="14.00">comp 1</text>
<text text-anchor="middle" x="1427.5" y="-111.8" font-family="Times,serif" font-size="14.00">n kernels: &#45;672</text>
</g>
<!-- 6&#45;&gt;17 -->
<g id="edge17" class="edge"><title>6&#45;&gt;17</title>
<path fill="none" stroke="black" d="M1599.01,-177.924C1564.76,-167.157 1521.38,-153.517 1486.82,-142.65"/>
<polygon fill="black" stroke="black" points="1487.45,-139.179 1476.86,-139.518 1485.35,-145.857 1487.45,-139.179"/>
</g>
<!-- 18 -->
<g id="node19" class="node"><title>18</title>
<path fill="#abb9ce" stroke="black" d="M1673.5,-141C1673.5,-141 1639.5,-141 1639.5,-141 1633.5,-141 1627.5,-135 1627.5,-129 1627.5,-129 1627.5,-117 1627.5,-117 1627.5,-111 1633.5,-105 1639.5,-105 1639.5,-105 1673.5,-105 1673.5,-105 1679.5,-105 1685.5,-111 1685.5,-117 1685.5,-117 1685.5,-129 1685.5,-129 1685.5,-135 1679.5,-141 1673.5,-141"/>
<text text-anchor="middle" x="1656.5" y="-119.3" font-family="Times,serif" font-size="14.00">comp 2</text>
</g>
<!-- 6&#45;&gt;18 -->
<g id="edge18" class="edge"><title>6&#45;&gt;18</title>
<path fill="none" stroke="black" d="M1656.5,-177.831C1656.5,-169.894 1656.5,-160.409 1656.5,-151.628"/>
<polygon fill="black" stroke="black" points="1660,-151.418 1656.5,-141.418 1653,-151.418 1660,-151.418"/>
</g>
<!-- 19 -->
<g id="node20" class="node"><title>19</title>
<path fill="#97a3b6" stroke="black" d="M2018.5,-142C2018.5,-142 1944.5,-142 1944.5,-142 1938.5,-142 1932.5,-136 1932.5,-130 1932.5,-130 1932.5,-116 1932.5,-116 1932.5,-110 1938.5,-104 1944.5,-104 1944.5,-104 2018.5,-104 2018.5,-104 2024.5,-104 2030.5,-110 2030.5,-116 2030.5,-116 2030.5,-130 2030.5,-130 2030.5,-136 2024.5,-142 2018.5,-142"/>
<text text-anchor="middle" x="1981.5" y="-126.8" font-family="Times,serif" font-size="14.00">comp 3</text>
<text text-anchor="middle" x="1981.5" y="-111.8" font-family="Times,serif" font-size="14.00">n kernels: &#45;672</text>
</g>
<!-- 6&#45;&gt;19 -->
<g id="edge19" class="edge"><title>6&#45;&gt;19</title>
<path fill="none" stroke="black" d="M1738.09,-177.924C1795.38,-165.232 1870.69,-148.55 1922.28,-137.121"/>
<polygon fill="black" stroke="black" points="1923.26,-140.488 1932.26,-134.908 1921.74,-133.653 1923.26,-140.488"/>
</g>
<!-- 20 -->
<g id="node21" class="node"><title>20</title>
<path fill="#d3e4ff" stroke="black" d="M2632.5,-141C2632.5,-141 2598.5,-141 2598.5,-141 2592.5,-141 2586.5,-135 2586.5,-129 2586.5,-129 2586.5,-117 2586.5,-117 2586.5,-111 2592.5,-105 2598.5,-105 2598.5,-105 2632.5,-105 2632.5,-105 2638.5,-105 2644.5,-111 2644.5,-117 2644.5,-117 2644.5,-129 2644.5,-129 2644.5,-135 2638.5,-141 2632.5,-141"/>
<text text-anchor="middle" x="2615.5" y="-119.3" font-family="Times,serif" font-size="14.00">comp 0</text>
</g>
<!-- 7&#45;&gt;20 -->
<g id="edge20" class="edge"><title>7&#45;&gt;20</title>
<path fill="none" stroke="black" d="M2750.83,-177.831C2721.04,-165.981 2682.58,-150.682 2654.27,-139.424"/>
<polygon fill="black" stroke="black" points="2655.3,-136.067 2644.72,-135.623 2652.72,-142.571 2655.3,-136.067"/>
</g>
<!-- 21 -->
<g id="node22" class="node"><title>21</title>
<path fill="#bfcfe6" stroke="black" d="M2813.5,-141C2813.5,-141 2779.5,-141 2779.5,-141 2773.5,-141 2767.5,-135 2767.5,-129 2767.5,-129 2767.5,-117 2767.5,-117 2767.5,-111 2773.5,-105 2779.5,-105 2779.5,-105 2813.5,-105 2813.5,-105 2819.5,-105 2825.5,-111 2825.5,-117 2825.5,-117 2825.5,-129 2825.5,-129 2825.5,-135 2819.5,-141 2813.5,-141"/>
<text text-anchor="middle" x="2796.5" y="-119.3" font-family="Times,serif" font-size="14.00">comp 1</text>
</g>
<!-- 7&#45;&gt;21 -->
<g id="edge21" class="edge"><title>7&#45;&gt;21</title>
<path fill="none" stroke="black" d="M2796.5,-177.831C2796.5,-169.894 2796.5,-160.409 2796.5,-151.628"/>
<polygon fill="black" stroke="black" points="2800,-151.418 2796.5,-141.418 2793,-151.418 2800,-151.418"/>
</g>
<!-- 22 -->
<g id="node23" class="node"><title>22</title>
<path fill="#abb9ce" stroke="black" d="M3014.5,-142C3014.5,-142 2940.5,-142 2940.5,-142 2934.5,-142 2928.5,-136 2928.5,-130 2928.5,-130 2928.5,-116 2928.5,-116 2928.5,-110 2934.5,-104 2940.5,-104 2940.5,-104 3014.5,-104 3014.5,-104 3020.5,-104 3026.5,-110 3026.5,-116 3026.5,-116 3026.5,-130 3026.5,-130 3026.5,-136 3020.5,-142 3014.5,-142"/>
<text text-anchor="middle" x="2977.5" y="-126.8" font-family="Times,serif" font-size="14.00">comp 2</text>
<text text-anchor="middle" x="2977.5" y="-111.8" font-family="Times,serif" font-size="14.00">n kernels: &#45;272</text>
</g>
<!-- 7&#45;&gt;22 -->
<g id="edge22" class="edge"><title>7&#45;&gt;22</title>
<path fill="none" stroke="black" d="M2842.17,-177.831C2866.6,-168.116 2896.85,-156.083 2922.55,-145.859"/>
<polygon fill="black" stroke="black" points="2924.16,-148.986 2932.15,-142.038 2921.57,-142.482 2924.16,-148.986"/>
</g>
<!-- 23 -->
<g id="node24" class="node"><title>23</title>
<path fill="#d3e4ff" stroke="black" d="M3554.5,-142C3554.5,-142 3486.5,-142 3486.5,-142 3480.5,-142 3474.5,-136 3474.5,-130 3474.5,-130 3474.5,-116 3474.5,-116 3474.5,-110 3480.5,-104 3486.5,-104 3486.5,-104 3554.5,-104 3554.5,-104 3560.5,-104 3566.5,-110 3566.5,-116 3566.5,-116 3566.5,-130 3566.5,-130 3566.5,-136 3560.5,-142 3554.5,-142"/>
<text text-anchor="middle" x="3520.5" y="-126.8" font-family="Times,serif" font-size="14.00">comp 0</text>
<text text-anchor="middle" x="3520.5" y="-111.8" font-family="Times,serif" font-size="14.00">n kernels: &#45;72</text>
</g>
<!-- 8&#45;&gt;23 -->
<g id="edge23" class="edge"><title>8&#45;&gt;23</title>
<path fill="none" stroke="black" d="M3655.83,-177.831C3631.4,-168.116 3601.15,-156.083 3575.45,-145.859"/>
<polygon fill="black" stroke="black" points="3576.43,-142.482 3565.85,-142.038 3573.84,-148.986 3576.43,-142.482"/>
</g>
<!-- 24 -->
<g id="node25" class="node"><title>24</title>
<path fill="#bfcfe6" stroke="black" d="M3735.5,-142C3735.5,-142 3667.5,-142 3667.5,-142 3661.5,-142 3655.5,-136 3655.5,-130 3655.5,-130 3655.5,-116 3655.5,-116 3655.5,-110 3661.5,-104 3667.5,-104 3667.5,-104 3735.5,-104 3735.5,-104 3741.5,-104 3747.5,-110 3747.5,-116 3747.5,-116 3747.5,-130 3747.5,-130 3747.5,-136 3741.5,-142 3735.5,-142"/>
<text text-anchor="middle" x="3701.5" y="-126.8" font-family="Times,serif" font-size="14.00">comp 1</text>
<text text-anchor="middle" x="3701.5" y="-111.8" font-family="Times,serif" font-size="14.00">n kernels: &#45;72</text>
</g>
<!-- 8&#45;&gt;24 -->
<g id="edge24" class="edge"><title>8&#45;&gt;24</title>
<path fill="none" stroke="black" d="M3701.5,-177.831C3701.5,-170.131 3701.5,-160.974 3701.5,-152.417"/>
<polygon fill="black" stroke="black" points="3705,-152.413 3701.5,-142.413 3698,-152.413 3705,-152.413"/>
</g>
<!-- 25 -->
<g id="node26" class="node"><title>25</title>
<path fill="#abb9ce" stroke="black" d="M3916.5,-142C3916.5,-142 3848.5,-142 3848.5,-142 3842.5,-142 3836.5,-136 3836.5,-130 3836.5,-130 3836.5,-116 3836.5,-116 3836.5,-110 3842.5,-104 3848.5,-104 3848.5,-104 3916.5,-104 3916.5,-104 3922.5,-104 3928.5,-110 3928.5,-116 3928.5,-116 3928.5,-130 3928.5,-130 3928.5,-136 3922.5,-142 3916.5,-142"/>
<text text-anchor="middle" x="3882.5" y="-126.8" font-family="Times,serif" font-size="14.00">comp 2</text>
<text text-anchor="middle" x="3882.5" y="-111.8" font-family="Times,serif" font-size="14.00">n kernels: &#45;72</text>
</g>
<!-- 8&#45;&gt;25 -->
<g id="edge25" class="edge"><title>8&#45;&gt;25</title>
<path fill="none" stroke="black" d="M3747.17,-177.831C3771.6,-168.116 3801.85,-156.083 3827.55,-145.859"/>
<polygon fill="black" stroke="black" points="3829.16,-148.986 3837.15,-142.038 3826.57,-142.482 3829.16,-148.986"/>
</g>
<!-- 26 -->
<g id="node27" class="node"><title>26</title>
<path fill="#97a3b6" stroke="black" d="M4369.5,-142C4369.5,-142 4301.5,-142 4301.5,-142 4295.5,-142 4289.5,-136 4289.5,-130 4289.5,-130 4289.5,-116 4289.5,-116 4289.5,-110 4295.5,-104 4301.5,-104 4301.5,-104 4369.5,-104 4369.5,-104 4375.5,-104 4381.5,-110 4381.5,-116 4381.5,-116 4381.5,-130 4381.5,-130 4381.5,-136 4375.5,-142 4369.5,-142"/>
<text text-anchor="middle" x="4335.5" y="-126.8" font-family="Times,serif" font-size="14.00">comp 3</text>
<text text-anchor="middle" x="4335.5" y="-111.8" font-family="Times,serif" font-size="14.00">n kernels: &#45;72</text>
</g>
<!-- 8&#45;&gt;26 -->
<g id="edge26" class="edge"><title>8&#45;&gt;26</title>
<path fill="none" stroke="black" d="M3794.03,-185.492C3927.37,-170.349 4169.56,-142.845 4279.06,-130.41"/>
<polygon fill="black" stroke="black" points="4279.69,-133.861 4289.23,-129.255 4278.9,-126.905 4279.69,-133.861"/>
</g>
<!-- 27 -->
<g id="node28" class="node"><title>27</title>
<path fill="#d3e4ff" stroke="black" d="M4985.5,-141C4985.5,-141 4951.5,-141 4951.5,-141 4945.5,-141 4939.5,-135 4939.5,-129 4939.5,-129 4939.5,-117 4939.5,-117 4939.5,-111 4945.5,-105 4951.5,-105 4951.5,-105 4985.5,-105 4985.5,-105 4991.5,-105 4997.5,-111 4997.5,-117 4997.5,-117 4997.5,-129 4997.5,-129 4997.5,-135 4991.5,-141 4985.5,-141"/>
<text text-anchor="middle" x="4968.5" y="-119.3" font-family="Times,serif" font-size="14.00">comp 0</text>
</g>
<!-- 9&#45;&gt;27 -->
<g id="edge27" class="edge"><title>9&#45;&gt;27</title>
<path fill="none" stroke="black" d="M5106.61,-178.937C5076.36,-166.907 5036.2,-150.932 5006.99,-139.311"/>
<polygon fill="black" stroke="black" points="5008.12,-135.993 4997.53,-135.549 5005.53,-142.498 5008.12,-135.993"/>
</g>
<!-- 28 -->
<g id="node29" class="node"><title>28</title>
<path fill="#bfcfe6" stroke="black" d="M5183.5,-142C5183.5,-142 5115.5,-142 5115.5,-142 5109.5,-142 5103.5,-136 5103.5,-130 5103.5,-130 5103.5,-116 5103.5,-116 5103.5,-110 5109.5,-104 5115.5,-104 5115.5,-104 5183.5,-104 5183.5,-104 5189.5,-104 5195.5,-110 5195.5,-116 5195.5,-116 5195.5,-130 5195.5,-130 5195.5,-136 5189.5,-142 5183.5,-142"/>
<text text-anchor="middle" x="5149.5" y="-126.8" font-family="Times,serif" font-size="14.00">comp 1</text>
<text text-anchor="middle" x="5149.5" y="-111.8" font-family="Times,serif" font-size="14.00">n kernels: &#45;19</text>
</g>
<!-- 9&#45;&gt;28 -->
<g id="edge28" class="edge"><title>9&#45;&gt;28</title>
<path fill="none" stroke="black" d="M5149.5,-178.937C5149.5,-170.987 5149.5,-161.313 5149.5,-152.313"/>
<polygon fill="black" stroke="black" points="5153,-152.199 5149.5,-142.199 5146,-152.199 5153,-152.199"/>
</g>
<!-- 29 -->
<g id="node30" class="node"><title>29</title>
<path fill="#abb9ce" stroke="black" d="M5347.5,-141C5347.5,-141 5313.5,-141 5313.5,-141 5307.5,-141 5301.5,-135 5301.5,-129 5301.5,-129 5301.5,-117 5301.5,-117 5301.5,-111 5307.5,-105 5313.5,-105 5313.5,-105 5347.5,-105 5347.5,-105 5353.5,-105 5359.5,-111 5359.5,-117 5359.5,-117 5359.5,-129 5359.5,-129 5359.5,-135 5353.5,-141 5347.5,-141"/>
<text text-anchor="middle" x="5330.5" y="-119.3" font-family="Times,serif" font-size="14.00">comp 2</text>
</g>
<!-- 9&#45;&gt;29 -->
<g id="edge29" class="edge"><title>9&#45;&gt;29</title>
<path fill="none" stroke="black" d="M5192.39,-178.937C5222.64,-166.907 5262.8,-150.932 5292.01,-139.311"/>
<polygon fill="black" stroke="black" points="5293.47,-142.498 5301.47,-135.549 5290.88,-135.993 5293.47,-142.498"/>
</g>
<!-- 30 -->
<g id="node31" class="node"><title>30</title>
<path fill="#97a3b6" stroke="black" d="M5816.5,-142C5816.5,-142 5748.5,-142 5748.5,-142 5742.5,-142 5736.5,-136 5736.5,-130 5736.5,-130 5736.5,-116 5736.5,-116 5736.5,-110 5742.5,-104 5748.5,-104 5748.5,-104 5816.5,-104 5816.5,-104 5822.5,-104 5828.5,-110 5828.5,-116 5828.5,-116 5828.5,-130 5828.5,-130 5828.5,-136 5822.5,-142 5816.5,-142"/>
<text text-anchor="middle" x="5782.5" y="-126.8" font-family="Times,serif" font-size="14.00">comp 3</text>
<text text-anchor="middle" x="5782.5" y="-111.8" font-family="Times,serif" font-size="14.00">n kernels: &#45;15</text>
</g>
<!-- 9&#45;&gt;30 -->
<g id="edge30" class="edge"><title>9&#45;&gt;30</title>
<path fill="none" stroke="black" d="M5199.17,-190.35C5315.28,-177.143 5603.87,-144.318 5726.23,-130.4"/>
<polygon fill="black" stroke="black" points="5726.96,-133.84 5736.5,-129.232 5726.17,-126.885 5726.96,-133.84"/>
</g>
<!-- 31 -->
<g id="node32" class="node"><title>31</title>
<path fill="#f6d3ff" stroke="black" d="M151,-68C151,-68 12,-68 12,-68 6,-68 0,-62 0,-56 0,-56 0,-12 0,-12 0,-6 6,-0 12,-0 12,-0 151,-0 151,-0 157,-0 163,-6 163,-12 163,-12 163,-56 163,-56 163,-62 157,-68 151,-68"/>
<text text-anchor="middle" x="81.5" y="-52.8" font-family="Times,serif" font-size="14.00">forward</text>
<text text-anchor="middle" x="81.5" y="-37.8" font-family="Times,serif" font-size="14.00">input</text>
<text text-anchor="middle" x="81.5" y="-22.8" font-family="Times,serif" font-size="14.00">dilation rate: 1 &#160;&#160;k width: 3</text>
<text text-anchor="middle" x="81.5" y="-7.8" font-family="Times,serif" font-size="14.00">n kernels: 64</text>
</g>
<!-- 10&#45;&gt;31 -->
<g id="edge31" class="edge"><title>10&#45;&gt;31</title>
<path fill="none" stroke="black" d="M110.834,-103.974C107.532,-96.2092 103.518,-86.7732 99.5343,-77.4049"/>
<polygon fill="black" stroke="black" points="102.722,-75.9562 95.5871,-68.1236 96.2799,-78.6958 102.722,-75.9562"/>
</g>
<!-- 32 -->
<g id="node33" class="node"><title>32</title>
<path fill="#f6d3ff" stroke="black" d="M332,-68C332,-68 193,-68 193,-68 187,-68 181,-62 181,-56 181,-56 181,-12 181,-12 181,-6 187,-0 193,-0 193,-0 332,-0 332,-0 338,-0 344,-6 344,-12 344,-12 344,-56 344,-56 344,-62 338,-68 332,-68"/>
<text text-anchor="middle" x="262.5" y="-52.8" font-family="Times,serif" font-size="14.00">forward</text>
<text text-anchor="middle" x="262.5" y="-37.8" font-family="Times,serif" font-size="14.00">EB0/C0</text>
<text text-anchor="middle" x="262.5" y="-22.8" font-family="Times,serif" font-size="14.00">dilation rate: 1 &#160;&#160;k width: 3</text>
<text text-anchor="middle" x="262.5" y="-7.8" font-family="Times,serif" font-size="14.00">n kernels: 64</text>
</g>
<!-- 11&#45;&gt;32 -->
<g id="edge32" class="edge"><title>11&#45;&gt;32</title>
<path fill="none" stroke="black" d="M262.5,-103.974C262.5,-96.4519 262.5,-87.3613 262.5,-78.2833"/>
<polygon fill="black" stroke="black" points="266,-78.1236 262.5,-68.1236 259,-78.1237 266,-78.1236"/>
</g>
<!-- 33 -->
<g id="node34" class="node"><title>33</title>
<path fill="#f6d3ff" stroke="black" d="M513,-68C513,-68 374,-68 374,-68 368,-68 362,-62 362,-56 362,-56 362,-12 362,-12 362,-6 368,-0 374,-0 374,-0 513,-0 513,-0 519,-0 525,-6 525,-12 525,-12 525,-56 525,-56 525,-62 519,-68 513,-68"/>
<text text-anchor="middle" x="443.5" y="-52.8" font-family="Times,serif" font-size="14.00">forward</text>
<text text-anchor="middle" x="443.5" y="-37.8" font-family="Times,serif" font-size="14.00">EB0/C1</text>
<text text-anchor="middle" x="443.5" y="-22.8" font-family="Times,serif" font-size="14.00">dilation rate: 1 &#160;&#160;k width: 3</text>
<text text-anchor="middle" x="443.5" y="-7.8" font-family="Times,serif" font-size="14.00">n kernels: 64</text>
</g>
<!-- 12&#45;&gt;33 -->
<g id="edge33" class="edge"><title>12&#45;&gt;33</title>
<path fill="none" stroke="black" d="M477.202,-104.812C473.361,-96.8558 468.613,-87.0192 463.904,-77.2655"/>
<polygon fill="black" stroke="black" points="466.932,-75.4873 459.433,-68.0034 460.628,-78.5306 466.932,-75.4873"/>
</g>
<!-- 34 -->
<g id="node35" class="node"><title>34</title>
<path fill="#f6d3ff" stroke="black" d="M694,-68C694,-68 555,-68 555,-68 549,-68 543,-62 543,-56 543,-56 543,-12 543,-12 543,-6 549,-0 555,-0 555,-0 694,-0 694,-0 700,-0 706,-6 706,-12 706,-12 706,-56 706,-56 706,-62 700,-68 694,-68"/>
<text text-anchor="middle" x="624.5" y="-52.8" font-family="Times,serif" font-size="14.00">forward</text>
<text text-anchor="middle" x="624.5" y="-37.8" font-family="Times,serif" font-size="14.00">EB1/C0</text>
<text text-anchor="middle" x="624.5" y="-22.8" font-family="Times,serif" font-size="14.00">dilation rate: 1 &#160;&#160;k width: 3</text>
<text text-anchor="middle" x="624.5" y="-7.8" font-family="Times,serif" font-size="14.00">n kernels: 64</text>
</g>
<!-- 13&#45;&gt;34 -->
<g id="edge34" class="edge"><title>13&#45;&gt;34</title>
<path fill="none" stroke="black" d="M622.093,-104.812C622.359,-97.1019 622.685,-87.6259 623.011,-78.1706"/>
<polygon fill="black" stroke="black" points="626.515,-78.1181 623.362,-68.0034 619.519,-77.8768 626.515,-78.1181"/>
</g>
<!-- 35 -->
<g id="node36" class="node"><title>35</title>
<path fill="#f6d3ff" stroke="black" d="M875,-68C875,-68 736,-68 736,-68 730,-68 724,-62 724,-56 724,-56 724,-12 724,-12 724,-6 730,-0 736,-0 736,-0 875,-0 875,-0 881,-0 887,-6 887,-12 887,-12 887,-56 887,-56 887,-62 881,-68 875,-68"/>
<text text-anchor="middle" x="805.5" y="-52.8" font-family="Times,serif" font-size="14.00">forward</text>
<text text-anchor="middle" x="805.5" y="-37.8" font-family="Times,serif" font-size="14.00">EB1/C1</text>
<text text-anchor="middle" x="805.5" y="-22.8" font-family="Times,serif" font-size="14.00">dilation rate: 1 &#160;&#160;k width: 3</text>
<text text-anchor="middle" x="805.5" y="-7.8" font-family="Times,serif" font-size="14.00">n kernels: 64</text>
</g>
<!-- 14&#45;&gt;35 -->
<g id="edge35" class="edge"><title>14&#45;&gt;35</title>
<path fill="none" stroke="black" d="M807.878,-103.974C807.619,-96.4519 807.306,-87.3613 806.993,-78.2833"/>
<polygon fill="black" stroke="black" points="810.485,-77.997 806.642,-68.1236 803.489,-78.2383 810.485,-77.997"/>
</g>
<!-- 36 -->
<g id="node37" class="node"><title>36</title>
<path fill="#f6d3ff" stroke="black" d="M1056,-68C1056,-68 917,-68 917,-68 911,-68 905,-62 905,-56 905,-56 905,-12 905,-12 905,-6 911,-0 917,-0 917,-0 1056,-0 1056,-0 1062,-0 1068,-6 1068,-12 1068,-12 1068,-56 1068,-56 1068,-62 1062,-68 1056,-68"/>
<text text-anchor="middle" x="986.5" y="-52.8" font-family="Times,serif" font-size="14.00">forward</text>
<text text-anchor="middle" x="986.5" y="-37.8" font-family="Times,serif" font-size="14.00">EB2/C0</text>
<text text-anchor="middle" x="986.5" y="-22.8" font-family="Times,serif" font-size="14.00">dilation rate: 1 &#160;&#160;k width: 3</text>
<text text-anchor="middle" x="986.5" y="-7.8" font-family="Times,serif" font-size="14.00">n kernels: 64</text>
</g>
<!-- 15&#45;&gt;36 -->
<g id="edge36" class="edge"><title>15&#45;&gt;36</title>
<path fill="none" stroke="black" d="M962.716,-103.974C965.365,-96.2901 968.579,-86.9696 971.777,-77.6977"/>
<polygon fill="black" stroke="black" points="975.127,-78.7184 975.078,-68.1236 968.509,-76.4364 975.127,-78.7184"/>
</g>
<!-- 37 -->
<g id="node38" class="node"><title>37</title>
<path fill="#f6d3ff" stroke="black" d="M1237,-68C1237,-68 1098,-68 1098,-68 1092,-68 1086,-62 1086,-56 1086,-56 1086,-12 1086,-12 1086,-6 1092,-0 1098,-0 1098,-0 1237,-0 1237,-0 1243,-0 1249,-6 1249,-12 1249,-12 1249,-56 1249,-56 1249,-62 1243,-68 1237,-68"/>
<text text-anchor="middle" x="1167.5" y="-52.8" font-family="Times,serif" font-size="14.00">forward</text>
<text text-anchor="middle" x="1167.5" y="-37.8" font-family="Times,serif" font-size="14.00">EB2/C1</text>
<text text-anchor="middle" x="1167.5" y="-22.8" font-family="Times,serif" font-size="14.00">dilation rate: 1 &#160;&#160;k width: 3</text>
<text text-anchor="middle" x="1167.5" y="-7.8" font-family="Times,serif" font-size="14.00">n kernels: 64</text>
</g>
<!-- 16&#45;&gt;37 -->
<g id="edge37" class="edge"><title>16&#45;&gt;37</title>
<path fill="none" stroke="black" d="M1254.97,-104.812C1243.97,-96.0357 1230.11,-84.9711 1216.68,-74.2536"/>
<polygon fill="black" stroke="black" points="1218.85,-71.5061 1208.85,-68.0034 1214.48,-76.9771 1218.85,-71.5061"/>
</g>
<!-- 38 -->
<g id="node39" class="node"><title>38</title>
<path fill="#f6d3ff" stroke="black" d="M1418,-68C1418,-68 1279,-68 1279,-68 1273,-68 1267,-62 1267,-56 1267,-56 1267,-12 1267,-12 1267,-6 1273,-0 1279,-0 1279,-0 1418,-0 1418,-0 1424,-0 1430,-6 1430,-12 1430,-12 1430,-56 1430,-56 1430,-62 1424,-68 1418,-68"/>
<text text-anchor="middle" x="1348.5" y="-52.8" font-family="Times,serif" font-size="14.00">forward</text>
<text text-anchor="middle" x="1348.5" y="-37.8" font-family="Times,serif" font-size="14.00">DB3/C0</text>
<text text-anchor="middle" x="1348.5" y="-22.8" font-family="Times,serif" font-size="14.00">dilation rate: 1 &#160;&#160;k width: 3</text>
<text text-anchor="middle" x="1348.5" y="-7.8" font-family="Times,serif" font-size="14.00">n kernels: 64</text>
</g>
<!-- 17&#45;&gt;38 -->
<g id="edge38" class="edge"><title>17&#45;&gt;38</title>
<path fill="none" stroke="black" d="M1411.13,-103.974C1403.64,-95.724 1394.44,-85.5872 1385.41,-75.6496"/>
<polygon fill="black" stroke="black" points="1387.89,-73.174 1378.58,-68.1236 1382.71,-77.8798 1387.89,-73.174"/>
</g>
<!-- 39 -->
<g id="node40" class="node"><title>39</title>
<path fill="#f6d3ff" stroke="black" d="M1599,-68C1599,-68 1460,-68 1460,-68 1454,-68 1448,-62 1448,-56 1448,-56 1448,-12 1448,-12 1448,-6 1454,-0 1460,-0 1460,-0 1599,-0 1599,-0 1605,-0 1611,-6 1611,-12 1611,-12 1611,-56 1611,-56 1611,-62 1605,-68 1599,-68"/>
<text text-anchor="middle" x="1529.5" y="-52.8" font-family="Times,serif" font-size="14.00">forward</text>
<text text-anchor="middle" x="1529.5" y="-37.8" font-family="Times,serif" font-size="14.00">DB3/C1</text>
<text text-anchor="middle" x="1529.5" y="-22.8" font-family="Times,serif" font-size="14.00">dilation rate: 1 &#160;&#160;k width: 3</text>
<text text-anchor="middle" x="1529.5" y="-7.8" font-family="Times,serif" font-size="14.00">n kernels: 64</text>
</g>
<!-- 18&#45;&gt;39 -->
<g id="edge39" class="edge"><title>18&#45;&gt;39</title>
<path fill="none" stroke="black" d="M1631.41,-104.812C1618.48,-95.9536 1602.14,-84.7641 1586.36,-73.9532"/>
<polygon fill="black" stroke="black" points="1587.91,-70.7675 1577.68,-68.0034 1583.95,-76.5424 1587.91,-70.7675"/>
</g>
<!-- 40 -->
<g id="node41" class="node"><title>40</title>
<path fill="#debfe6" stroke="black" d="M1780,-68C1780,-68 1641,-68 1641,-68 1635,-68 1629,-62 1629,-56 1629,-56 1629,-12 1629,-12 1629,-6 1635,-0 1641,-0 1641,-0 1780,-0 1780,-0 1786,-0 1792,-6 1792,-12 1792,-12 1792,-56 1792,-56 1792,-62 1786,-68 1780,-68"/>
<text text-anchor="middle" x="1710.5" y="-52.8" font-family="Times,serif" font-size="14.00">residual</text>
<text text-anchor="middle" x="1710.5" y="-37.8" font-family="Times,serif" font-size="14.00">DB3/C0</text>
<text text-anchor="middle" x="1710.5" y="-22.8" font-family="Times,serif" font-size="14.00">dilation rate: 1 &#160;&#160;k width: 3</text>
<text text-anchor="middle" x="1710.5" y="-7.8" font-family="Times,serif" font-size="14.00">n kernels: 64</text>
</g>
<!-- 18&#45;&gt;40 -->
<g id="edge40" class="edge"><title>18&#45;&gt;40</title>
<path fill="none" stroke="black" d="M1667.17,-104.812C1672.21,-96.6918 1678.46,-86.6128 1684.64,-76.6623"/>
<polygon fill="black" stroke="black" points="1687.72,-78.3456 1690.02,-68.0034 1681.77,-74.654 1687.72,-78.3456"/>
</g>
<!-- 41 -->
<g id="node42" class="node"><title>41</title>
<path fill="#f6d3ff" stroke="black" d="M1961,-68C1961,-68 1822,-68 1822,-68 1816,-68 1810,-62 1810,-56 1810,-56 1810,-12 1810,-12 1810,-6 1816,-0 1822,-0 1822,-0 1961,-0 1961,-0 1967,-0 1973,-6 1973,-12 1973,-12 1973,-56 1973,-56 1973,-62 1967,-68 1961,-68"/>
<text text-anchor="middle" x="1891.5" y="-52.8" font-family="Times,serif" font-size="14.00">forward</text>
<text text-anchor="middle" x="1891.5" y="-37.8" font-family="Times,serif" font-size="14.00">DB3/C2</text>
<text text-anchor="middle" x="1891.5" y="-22.8" font-family="Times,serif" font-size="14.00">dilation rate: 1 &#160;&#160;k width: 3</text>
<text text-anchor="middle" x="1891.5" y="-7.8" font-family="Times,serif" font-size="14.00">n kernels: 64</text>
</g>
<!-- 19&#45;&gt;41 -->
<g id="edge41" class="edge"><title>19&#45;&gt;41</title>
<path fill="none" stroke="black" d="M1962.85,-103.974C1954.23,-95.6431 1943.63,-85.3882 1933.25,-75.3573"/>
<polygon fill="black" stroke="black" points="1935.39,-72.5574 1925.77,-68.1236 1930.52,-77.5904 1935.39,-72.5574"/>
</g>
<!-- 42 -->
<g id="node43" class="node"><title>42</title>
<path fill="#debfe6" stroke="black" d="M2142,-68C2142,-68 2003,-68 2003,-68 1997,-68 1991,-62 1991,-56 1991,-56 1991,-12 1991,-12 1991,-6 1997,-0 2003,-0 2003,-0 2142,-0 2142,-0 2148,-0 2154,-6 2154,-12 2154,-12 2154,-56 2154,-56 2154,-62 2148,-68 2142,-68"/>
<text text-anchor="middle" x="2072.5" y="-52.8" font-family="Times,serif" font-size="14.00">residual</text>
<text text-anchor="middle" x="2072.5" y="-37.8" font-family="Times,serif" font-size="14.00">DB3/C0</text>
<text text-anchor="middle" x="2072.5" y="-22.8" font-family="Times,serif" font-size="14.00">dilation rate: 1 &#160;&#160;k width: 3</text>
<text text-anchor="middle" x="2072.5" y="-7.8" font-family="Times,serif" font-size="14.00">n kernels: 64</text>
</g>
<!-- 19&#45;&gt;42 -->
<g id="edge42" class="edge"><title>19&#45;&gt;42</title>
<path fill="none" stroke="black" d="M2000.36,-103.974C2009.15,-95.5622 2020,-85.1889 2030.59,-75.0653"/>
<polygon fill="black" stroke="black" points="2033.04,-77.5639 2037.85,-68.1236 2028.21,-72.5042 2033.04,-77.5639"/>
</g>
<!-- 43 -->
<g id="node44" class="node"><title>43</title>
<path fill="#c7abce" stroke="black" d="M2323,-68C2323,-68 2184,-68 2184,-68 2178,-68 2172,-62 2172,-56 2172,-56 2172,-12 2172,-12 2172,-6 2178,-0 2184,-0 2184,-0 2323,-0 2323,-0 2329,-0 2335,-6 2335,-12 2335,-12 2335,-56 2335,-56 2335,-62 2329,-68 2323,-68"/>
<text text-anchor="middle" x="2253.5" y="-52.8" font-family="Times,serif" font-size="14.00">residual</text>
<text text-anchor="middle" x="2253.5" y="-37.8" font-family="Times,serif" font-size="14.00">DB3/C1</text>
<text text-anchor="middle" x="2253.5" y="-22.8" font-family="Times,serif" font-size="14.00">dilation rate: 1 &#160;&#160;k width: 3</text>
<text text-anchor="middle" x="2253.5" y="-7.8" font-family="Times,serif" font-size="14.00">n kernels: 64</text>
</g>
<!-- 19&#45;&gt;43 -->
<g id="edge43" class="edge"><title>19&#45;&gt;43</title>
<path fill="none" stroke="black" d="M2030.52,-108.208C2064.86,-98.3581 2112,-84.4594 2162.02,-68.1007"/>
<polygon fill="black" stroke="black" points="2163.32,-71.3577 2171.73,-64.9076 2161.13,-64.7083 2163.32,-71.3577"/>
</g>
<!-- 44 -->
<g id="node45" class="node"><title>44</title>
<path fill="#f6d3ff" stroke="black" d="M2504,-68C2504,-68 2365,-68 2365,-68 2359,-68 2353,-62 2353,-56 2353,-56 2353,-12 2353,-12 2353,-6 2359,-0 2365,-0 2365,-0 2504,-0 2504,-0 2510,-0 2516,-6 2516,-12 2516,-12 2516,-56 2516,-56 2516,-62 2510,-68 2504,-68"/>
<text text-anchor="middle" x="2434.5" y="-52.8" font-family="Times,serif" font-size="14.00">forward</text>
<text text-anchor="middle" x="2434.5" y="-37.8" font-family="Times,serif" font-size="14.00">DB3/C3</text>
<text text-anchor="middle" x="2434.5" y="-22.8" font-family="Times,serif" font-size="14.00">dilation rate: 1 &#160;&#160;k width: 3</text>
<text text-anchor="middle" x="2434.5" y="-7.8" font-family="Times,serif" font-size="14.00">n kernels: 64</text>
</g>
<!-- 20&#45;&gt;44 -->
<g id="edge44" class="edge"><title>20&#45;&gt;44</title>
<path fill="none" stroke="black" d="M2586.42,-108.022C2566.4,-98.3973 2538.78,-85.122 2512.57,-72.5274"/>
<polygon fill="black" stroke="black" points="2513.91,-69.2858 2503.38,-68.1081 2510.88,-75.5949 2513.91,-69.2858"/>
</g>
<!-- 45 -->
<g id="node46" class="node"><title>45</title>
<path fill="#debfe6" stroke="black" d="M2685,-68C2685,-68 2546,-68 2546,-68 2540,-68 2534,-62 2534,-56 2534,-56 2534,-12 2534,-12 2534,-6 2540,-0 2546,-0 2546,-0 2685,-0 2685,-0 2691,-0 2697,-6 2697,-12 2697,-12 2697,-56 2697,-56 2697,-62 2691,-68 2685,-68"/>
<text text-anchor="middle" x="2615.5" y="-52.8" font-family="Times,serif" font-size="14.00">merge</text>
<text text-anchor="middle" x="2615.5" y="-37.8" font-family="Times,serif" font-size="14.00">EB2/C1</text>
<text text-anchor="middle" x="2615.5" y="-22.8" font-family="Times,serif" font-size="14.00">dilation rate: 1 &#160;&#160;k width: 3</text>
<text text-anchor="middle" x="2615.5" y="-7.8" font-family="Times,serif" font-size="14.00">n kernels: 64</text>
</g>
<!-- 20&#45;&gt;45 -->
<g id="edge45" class="edge"><title>20&#45;&gt;45</title>
<path fill="none" stroke="black" d="M2615.5,-104.812C2615.5,-97.1019 2615.5,-87.6259 2615.5,-78.1706"/>
<polygon fill="black" stroke="black" points="2619,-78.0034 2615.5,-68.0034 2612,-78.0034 2619,-78.0034"/>
</g>
<!-- 46 -->
<g id="node47" class="node"><title>46</title>
<path fill="#f6d3ff" stroke="black" d="M2866,-68C2866,-68 2727,-68 2727,-68 2721,-68 2715,-62 2715,-56 2715,-56 2715,-12 2715,-12 2715,-6 2721,-0 2727,-0 2727,-0 2866,-0 2866,-0 2872,-0 2878,-6 2878,-12 2878,-12 2878,-56 2878,-56 2878,-62 2872,-68 2866,-68"/>
<text text-anchor="middle" x="2796.5" y="-52.8" font-family="Times,serif" font-size="14.00">forward</text>
<text text-anchor="middle" x="2796.5" y="-37.8" font-family="Times,serif" font-size="14.00">DB2/C0</text>
<text text-anchor="middle" x="2796.5" y="-22.8" font-family="Times,serif" font-size="14.00">dilation rate: 1 &#160;&#160;k width: 3</text>
<text text-anchor="middle" x="2796.5" y="-7.8" font-family="Times,serif" font-size="14.00">n kernels: 64</text>
</g>
<!-- 21&#45;&gt;46 -->
<g id="edge46" class="edge"><title>21&#45;&gt;46</title>
<path fill="none" stroke="black" d="M2796.5,-104.812C2796.5,-97.1019 2796.5,-87.6259 2796.5,-78.1706"/>
<polygon fill="black" stroke="black" points="2800,-78.0034 2796.5,-68.0034 2793,-78.0034 2800,-78.0034"/>
</g>
<!-- 47 -->
<g id="node48" class="node"><title>47</title>
<path fill="#f6d3ff" stroke="black" d="M3047,-68C3047,-68 2908,-68 2908,-68 2902,-68 2896,-62 2896,-56 2896,-56 2896,-12 2896,-12 2896,-6 2902,-0 2908,-0 2908,-0 3047,-0 3047,-0 3053,-0 3059,-6 3059,-12 3059,-12 3059,-56 3059,-56 3059,-62 3053,-68 3047,-68"/>
<text text-anchor="middle" x="2977.5" y="-52.8" font-family="Times,serif" font-size="14.00">forward</text>
<text text-anchor="middle" x="2977.5" y="-37.8" font-family="Times,serif" font-size="14.00">DB2/C1</text>
<text text-anchor="middle" x="2977.5" y="-22.8" font-family="Times,serif" font-size="14.00">dilation rate: 1 &#160;&#160;k width: 3</text>
<text text-anchor="middle" x="2977.5" y="-7.8" font-family="Times,serif" font-size="14.00">n kernels: 64</text>
</g>
<!-- 22&#45;&gt;47 -->
<g id="edge47" class="edge"><title>22&#45;&gt;47</title>
<path fill="none" stroke="black" d="M2977.5,-103.974C2977.5,-96.4519 2977.5,-87.3613 2977.5,-78.2833"/>
<polygon fill="black" stroke="black" points="2981,-78.1236 2977.5,-68.1236 2974,-78.1237 2981,-78.1236"/>
</g>
<!-- 48 -->
<g id="node49" class="node"><title>48</title>
<path fill="#debfe6" stroke="black" d="M3228,-68C3228,-68 3089,-68 3089,-68 3083,-68 3077,-62 3077,-56 3077,-56 3077,-12 3077,-12 3077,-6 3083,-0 3089,-0 3089,-0 3228,-0 3228,-0 3234,-0 3240,-6 3240,-12 3240,-12 3240,-56 3240,-56 3240,-62 3234,-68 3228,-68"/>
<text text-anchor="middle" x="3158.5" y="-52.8" font-family="Times,serif" font-size="14.00">residual</text>
<text text-anchor="middle" x="3158.5" y="-37.8" font-family="Times,serif" font-size="14.00">DB2/C0</text>
<text text-anchor="middle" x="3158.5" y="-22.8" font-family="Times,serif" font-size="14.00">dilation rate: 1 &#160;&#160;k width: 3</text>
<text text-anchor="middle" x="3158.5" y="-7.8" font-family="Times,serif" font-size="14.00">n kernels: 64</text>
</g>
<!-- 22&#45;&gt;48 -->
<g id="edge48" class="edge"><title>22&#45;&gt;48</title>
<path fill="none" stroke="black" d="M3015,-103.974C3033.93,-94.8748 3057.64,-83.4802 3080.3,-72.5892"/>
<polygon fill="black" stroke="black" points="3082.09,-75.6104 3089.59,-68.1236 3079.06,-69.3013 3082.09,-75.6104"/>
</g>
<!-- 49 -->
<g id="node50" class="node"><title>49</title>
<path fill="#f6d3ff" stroke="black" d="M3409,-68C3409,-68 3270,-68 3270,-68 3264,-68 3258,-62 3258,-56 3258,-56 3258,-12 3258,-12 3258,-6 3264,-0 3270,-0 3270,-0 3409,-0 3409,-0 3415,-0 3421,-6 3421,-12 3421,-12 3421,-56 3421,-56 3421,-62 3415,-68 3409,-68"/>
<text text-anchor="middle" x="3339.5" y="-52.8" font-family="Times,serif" font-size="14.00">forward</text>
<text text-anchor="middle" x="3339.5" y="-37.8" font-family="Times,serif" font-size="14.00">DB2/C2</text>
<text text-anchor="middle" x="3339.5" y="-22.8" font-family="Times,serif" font-size="14.00">dilation rate: 1 &#160;&#160;k width: 3</text>
<text text-anchor="middle" x="3339.5" y="-7.8" font-family="Times,serif" font-size="14.00">n kernels: 64</text>
</g>
<!-- 23&#45;&gt;49 -->
<g id="edge49" class="edge"><title>23&#45;&gt;49</title>
<path fill="none" stroke="black" d="M3483,-103.974C3464.07,-94.8748 3440.36,-83.4802 3417.7,-72.5892"/>
<polygon fill="black" stroke="black" points="3418.94,-69.3013 3408.41,-68.1236 3415.91,-75.6104 3418.94,-69.3013"/>
</g>
<!-- 50 -->
<g id="node51" class="node"><title>50</title>
<path fill="#debfe6" stroke="black" d="M3590,-68C3590,-68 3451,-68 3451,-68 3445,-68 3439,-62 3439,-56 3439,-56 3439,-12 3439,-12 3439,-6 3445,-0 3451,-0 3451,-0 3590,-0 3590,-0 3596,-0 3602,-6 3602,-12 3602,-12 3602,-56 3602,-56 3602,-62 3596,-68 3590,-68"/>
<text text-anchor="middle" x="3520.5" y="-52.8" font-family="Times,serif" font-size="14.00">merge</text>
<text text-anchor="middle" x="3520.5" y="-37.8" font-family="Times,serif" font-size="14.00">EB1/C1</text>
<text text-anchor="middle" x="3520.5" y="-22.8" font-family="Times,serif" font-size="14.00">dilation rate: 1 &#160;&#160;k width: 3</text>
<text text-anchor="middle" x="3520.5" y="-7.8" font-family="Times,serif" font-size="14.00">n kernels: 64</text>
</g>
<!-- 23&#45;&gt;50 -->
<g id="edge50" class="edge"><title>23&#45;&gt;50</title>
<path fill="none" stroke="black" d="M3520.5,-103.974C3520.5,-96.4519 3520.5,-87.3613 3520.5,-78.2833"/>
<polygon fill="black" stroke="black" points="3524,-78.1236 3520.5,-68.1236 3517,-78.1237 3524,-78.1236"/>
</g>
<!-- 51 -->
<g id="node52" class="node"><title>51</title>
<path fill="#f6d3ff" stroke="black" d="M3771,-68C3771,-68 3632,-68 3632,-68 3626,-68 3620,-62 3620,-56 3620,-56 3620,-12 3620,-12 3620,-6 3626,-0 3632,-0 3632,-0 3771,-0 3771,-0 3777,-0 3783,-6 3783,-12 3783,-12 3783,-56 3783,-56 3783,-62 3777,-68 3771,-68"/>
<text text-anchor="middle" x="3701.5" y="-52.8" font-family="Times,serif" font-size="14.00">forward</text>
<text text-anchor="middle" x="3701.5" y="-37.8" font-family="Times,serif" font-size="14.00">DB1/C0</text>
<text text-anchor="middle" x="3701.5" y="-22.8" font-family="Times,serif" font-size="14.00">dilation rate: 1 &#160;&#160;k width: 3</text>
<text text-anchor="middle" x="3701.5" y="-7.8" font-family="Times,serif" font-size="14.00">n kernels: 64</text>
</g>
<!-- 24&#45;&gt;51 -->
<g id="edge51" class="edge"><title>24&#45;&gt;51</title>
<path fill="none" stroke="black" d="M3701.5,-103.974C3701.5,-96.4519 3701.5,-87.3613 3701.5,-78.2833"/>
<polygon fill="black" stroke="black" points="3705,-78.1236 3701.5,-68.1236 3698,-78.1237 3705,-78.1236"/>
</g>
<!-- 52 -->
<g id="node53" class="node"><title>52</title>
<path fill="#f6d3ff" stroke="black" d="M3952,-68C3952,-68 3813,-68 3813,-68 3807,-68 3801,-62 3801,-56 3801,-56 3801,-12 3801,-12 3801,-6 3807,-0 3813,-0 3813,-0 3952,-0 3952,-0 3958,-0 3964,-6 3964,-12 3964,-12 3964,-56 3964,-56 3964,-62 3958,-68 3952,-68"/>
<text text-anchor="middle" x="3882.5" y="-52.8" font-family="Times,serif" font-size="14.00">forward</text>
<text text-anchor="middle" x="3882.5" y="-37.8" font-family="Times,serif" font-size="14.00">DB1/C1</text>
<text text-anchor="middle" x="3882.5" y="-22.8" font-family="Times,serif" font-size="14.00">dilation rate: 1 &#160;&#160;k width: 3</text>
<text text-anchor="middle" x="3882.5" y="-7.8" font-family="Times,serif" font-size="14.00">n kernels: 64</text>
</g>
<!-- 25&#45;&gt;52 -->
<g id="edge52" class="edge"><title>25&#45;&gt;52</title>
<path fill="none" stroke="black" d="M3882.5,-103.974C3882.5,-96.4519 3882.5,-87.3613 3882.5,-78.2833"/>
<polygon fill="black" stroke="black" points="3886,-78.1236 3882.5,-68.1236 3879,-78.1237 3886,-78.1236"/>
</g>
<!-- 53 -->
<g id="node54" class="node"><title>53</title>
<path fill="#debfe6" stroke="black" d="M4133,-68C4133,-68 3994,-68 3994,-68 3988,-68 3982,-62 3982,-56 3982,-56 3982,-12 3982,-12 3982,-6 3988,-0 3994,-0 3994,-0 4133,-0 4133,-0 4139,-0 4145,-6 4145,-12 4145,-12 4145,-56 4145,-56 4145,-62 4139,-68 4133,-68"/>
<text text-anchor="middle" x="4063.5" y="-52.8" font-family="Times,serif" font-size="14.00">residual</text>
<text text-anchor="middle" x="4063.5" y="-37.8" font-family="Times,serif" font-size="14.00">DB1/C0</text>
<text text-anchor="middle" x="4063.5" y="-22.8" font-family="Times,serif" font-size="14.00">dilation rate: 1 &#160;&#160;k width: 3</text>
<text text-anchor="middle" x="4063.5" y="-7.8" font-family="Times,serif" font-size="14.00">n kernels: 64</text>
</g>
<!-- 25&#45;&gt;53 -->
<g id="edge53" class="edge"><title>25&#45;&gt;53</title>
<path fill="none" stroke="black" d="M3920,-103.974C3938.93,-94.8748 3962.64,-83.4802 3985.3,-72.5892"/>
<polygon fill="black" stroke="black" points="3987.09,-75.6104 3994.59,-68.1236 3984.06,-69.3013 3987.09,-75.6104"/>
</g>
<!-- 54 -->
<g id="node55" class="node"><title>54</title>
<path fill="#f6d3ff" stroke="black" d="M4314,-68C4314,-68 4175,-68 4175,-68 4169,-68 4163,-62 4163,-56 4163,-56 4163,-12 4163,-12 4163,-6 4169,-0 4175,-0 4175,-0 4314,-0 4314,-0 4320,-0 4326,-6 4326,-12 4326,-12 4326,-56 4326,-56 4326,-62 4320,-68 4314,-68"/>
<text text-anchor="middle" x="4244.5" y="-52.8" font-family="Times,serif" font-size="14.00">forward</text>
<text text-anchor="middle" x="4244.5" y="-37.8" font-family="Times,serif" font-size="14.00">DB1/C2</text>
<text text-anchor="middle" x="4244.5" y="-22.8" font-family="Times,serif" font-size="14.00">dilation rate: 1 &#160;&#160;k width: 3</text>
<text text-anchor="middle" x="4244.5" y="-7.8" font-family="Times,serif" font-size="14.00">n kernels: 64</text>
</g>
<!-- 26&#45;&gt;54 -->
<g id="edge54" class="edge"><title>26&#45;&gt;54</title>
<path fill="none" stroke="black" d="M4316.64,-103.974C4307.85,-95.5622 4297,-85.1889 4286.41,-75.0653"/>
<polygon fill="black" stroke="black" points="4288.79,-72.5042 4279.15,-68.1236 4283.96,-77.5639 4288.79,-72.5042"/>
</g>
<!-- 55 -->
<g id="node56" class="node"><title>55</title>
<path fill="#debfe6" stroke="black" d="M4495,-68C4495,-68 4356,-68 4356,-68 4350,-68 4344,-62 4344,-56 4344,-56 4344,-12 4344,-12 4344,-6 4350,-0 4356,-0 4356,-0 4495,-0 4495,-0 4501,-0 4507,-6 4507,-12 4507,-12 4507,-56 4507,-56 4507,-62 4501,-68 4495,-68"/>
<text text-anchor="middle" x="4425.5" y="-52.8" font-family="Times,serif" font-size="14.00">residual</text>
<text text-anchor="middle" x="4425.5" y="-37.8" font-family="Times,serif" font-size="14.00">DB1/C0</text>
<text text-anchor="middle" x="4425.5" y="-22.8" font-family="Times,serif" font-size="14.00">dilation rate: 1 &#160;&#160;k width: 3</text>
<text text-anchor="middle" x="4425.5" y="-7.8" font-family="Times,serif" font-size="14.00">n kernels: 64</text>
</g>
<!-- 26&#45;&gt;55 -->
<g id="edge55" class="edge"><title>26&#45;&gt;55</title>
<path fill="none" stroke="black" d="M4354.15,-103.974C4362.77,-95.6431 4373.37,-85.3882 4383.75,-75.3573"/>
<polygon fill="black" stroke="black" points="4386.48,-77.5904 4391.23,-68.1236 4381.61,-72.5574 4386.48,-77.5904"/>
</g>
<!-- 56 -->
<g id="node57" class="node"><title>56</title>
<path fill="#c7abce" stroke="black" d="M4676,-68C4676,-68 4537,-68 4537,-68 4531,-68 4525,-62 4525,-56 4525,-56 4525,-12 4525,-12 4525,-6 4531,-0 4537,-0 4537,-0 4676,-0 4676,-0 4682,-0 4688,-6 4688,-12 4688,-12 4688,-56 4688,-56 4688,-62 4682,-68 4676,-68"/>
<text text-anchor="middle" x="4606.5" y="-52.8" font-family="Times,serif" font-size="14.00">residual</text>
<text text-anchor="middle" x="4606.5" y="-37.8" font-family="Times,serif" font-size="14.00">DB1/C1</text>
<text text-anchor="middle" x="4606.5" y="-22.8" font-family="Times,serif" font-size="14.00">dilation rate: 1 &#160;&#160;k width: 3</text>
<text text-anchor="middle" x="4606.5" y="-7.8" font-family="Times,serif" font-size="14.00">n kernels: 64</text>
</g>
<!-- 26&#45;&gt;56 -->
<g id="edge56" class="edge"><title>26&#45;&gt;56</title>
<path fill="none" stroke="black" d="M4381.59,-108.949C4415.95,-99.0445 4464.22,-84.7639 4515.18,-68.0502"/>
<polygon fill="black" stroke="black" points="4516.32,-71.3584 4524.72,-64.9016 4514.13,-64.7108 4516.32,-71.3584"/>
</g>
<!-- 57 -->
<g id="node58" class="node"><title>57</title>
<path fill="#f6d3ff" stroke="black" d="M4857,-68C4857,-68 4718,-68 4718,-68 4712,-68 4706,-62 4706,-56 4706,-56 4706,-12 4706,-12 4706,-6 4712,-0 4718,-0 4718,-0 4857,-0 4857,-0 4863,-0 4869,-6 4869,-12 4869,-12 4869,-56 4869,-56 4869,-62 4863,-68 4857,-68"/>
<text text-anchor="middle" x="4787.5" y="-52.8" font-family="Times,serif" font-size="14.00">forward</text>
<text text-anchor="middle" x="4787.5" y="-37.8" font-family="Times,serif" font-size="14.00">DB1/C3</text>
<text text-anchor="middle" x="4787.5" y="-22.8" font-family="Times,serif" font-size="14.00">dilation rate: 1 &#160;&#160;k width: 3</text>
<text text-anchor="middle" x="4787.5" y="-7.8" font-family="Times,serif" font-size="14.00">n kernels: 64</text>
</g>
<!-- 27&#45;&gt;57 -->
<g id="edge57" class="edge"><title>27&#45;&gt;57</title>
<path fill="none" stroke="black" d="M4939.42,-108.022C4919.4,-98.3973 4891.78,-85.122 4865.57,-72.5274"/>
<polygon fill="black" stroke="black" points="4866.91,-69.2858 4856.38,-68.1081 4863.88,-75.5949 4866.91,-69.2858"/>
</g>
<!-- 58 -->
<g id="node59" class="node"><title>58</title>
<path fill="#debfe6" stroke="black" d="M5038,-68C5038,-68 4899,-68 4899,-68 4893,-68 4887,-62 4887,-56 4887,-56 4887,-12 4887,-12 4887,-6 4893,-0 4899,-0 4899,-0 5038,-0 5038,-0 5044,-0 5050,-6 5050,-12 5050,-12 5050,-56 5050,-56 5050,-62 5044,-68 5038,-68"/>
<text text-anchor="middle" x="4968.5" y="-52.8" font-family="Times,serif" font-size="14.00">merge</text>
<text text-anchor="middle" x="4968.5" y="-37.8" font-family="Times,serif" font-size="14.00">EB0/C1</text>
<text text-anchor="middle" x="4968.5" y="-22.8" font-family="Times,serif" font-size="14.00">dilation rate: 1 &#160;&#160;k width: 3</text>
<text text-anchor="middle" x="4968.5" y="-7.8" font-family="Times,serif" font-size="14.00">n kernels: 64</text>
</g>
<!-- 27&#45;&gt;58 -->
<g id="edge58" class="edge"><title>27&#45;&gt;58</title>
<path fill="none" stroke="black" d="M4968.5,-104.812C4968.5,-97.1019 4968.5,-87.6259 4968.5,-78.1706"/>
<polygon fill="black" stroke="black" points="4972,-78.0034 4968.5,-68.0034 4965,-78.0034 4972,-78.0034"/>
</g>
<!-- 59 -->
<g id="node60" class="node"><title>59</title>
<path fill="#f6d3ff" stroke="black" d="M5219,-68C5219,-68 5080,-68 5080,-68 5074,-68 5068,-62 5068,-56 5068,-56 5068,-12 5068,-12 5068,-6 5074,-0 5080,-0 5080,-0 5219,-0 5219,-0 5225,-0 5231,-6 5231,-12 5231,-12 5231,-56 5231,-56 5231,-62 5225,-68 5219,-68"/>
<text text-anchor="middle" x="5149.5" y="-52.8" font-family="Times,serif" font-size="14.00">forward</text>
<text text-anchor="middle" x="5149.5" y="-37.8" font-family="Times,serif" font-size="14.00">DB0/C0</text>
<text text-anchor="middle" x="5149.5" y="-22.8" font-family="Times,serif" font-size="14.00">dilation rate: 1 &#160;&#160;k width: 3</text>
<text text-anchor="middle" x="5149.5" y="-7.8" font-family="Times,serif" font-size="14.00">n kernels: 64</text>
</g>
<!-- 28&#45;&gt;59 -->
<g id="edge59" class="edge"><title>28&#45;&gt;59</title>
<path fill="none" stroke="black" d="M5149.5,-103.974C5149.5,-96.4519 5149.5,-87.3613 5149.5,-78.2833"/>
<polygon fill="black" stroke="black" points="5153,-78.1236 5149.5,-68.1236 5146,-78.1237 5153,-78.1236"/>
</g>
<!-- 60 -->
<g id="node61" class="node"><title>60</title>
<path fill="#f6d3ff" stroke="black" d="M5400,-68C5400,-68 5261,-68 5261,-68 5255,-68 5249,-62 5249,-56 5249,-56 5249,-12 5249,-12 5249,-6 5255,-0 5261,-0 5261,-0 5400,-0 5400,-0 5406,-0 5412,-6 5412,-12 5412,-12 5412,-56 5412,-56 5412,-62 5406,-68 5400,-68"/>
<text text-anchor="middle" x="5330.5" y="-52.8" font-family="Times,serif" font-size="14.00">forward</text>
<text text-anchor="middle" x="5330.5" y="-37.8" font-family="Times,serif" font-size="14.00">DB0/C1</text>
<text text-anchor="middle" x="5330.5" y="-22.8" font-family="Times,serif" font-size="14.00">dilation rate: 1 &#160;&#160;k width: 3</text>
<text text-anchor="middle" x="5330.5" y="-7.8" font-family="Times,serif" font-size="14.00">n kernels: 64</text>
</g>
<!-- 29&#45;&gt;60 -->
<g id="edge60" class="edge"><title>29&#45;&gt;60</title>
<path fill="none" stroke="black" d="M5330.5,-104.812C5330.5,-97.1019 5330.5,-87.6259 5330.5,-78.1706"/>
<polygon fill="black" stroke="black" points="5334,-78.0034 5330.5,-68.0034 5327,-78.0034 5334,-78.0034"/>
</g>
<!-- 61 -->
<g id="node62" class="node"><title>61</title>
<path fill="#debfe6" stroke="black" d="M5581,-68C5581,-68 5442,-68 5442,-68 5436,-68 5430,-62 5430,-56 5430,-56 5430,-12 5430,-12 5430,-6 5436,-0 5442,-0 5442,-0 5581,-0 5581,-0 5587,-0 5593,-6 5593,-12 5593,-12 5593,-56 5593,-56 5593,-62 5587,-68 5581,-68"/>
<text text-anchor="middle" x="5511.5" y="-52.8" font-family="Times,serif" font-size="14.00">residual</text>
<text text-anchor="middle" x="5511.5" y="-37.8" font-family="Times,serif" font-size="14.00">DB0/C0</text>
<text text-anchor="middle" x="5511.5" y="-22.8" font-family="Times,serif" font-size="14.00">dilation rate: 1 &#160;&#160;k width: 3</text>
<text text-anchor="middle" x="5511.5" y="-7.8" font-family="Times,serif" font-size="14.00">n kernels: 64</text>
</g>
<!-- 29&#45;&gt;61 -->
<g id="edge61" class="edge"><title>29&#45;&gt;61</title>
<path fill="none" stroke="black" d="M5359.58,-108.022C5379.6,-98.3973 5407.22,-85.122 5433.43,-72.5274"/>
<polygon fill="black" stroke="black" points="5435.12,-75.5949 5442.62,-68.1081 5432.09,-69.2858 5435.12,-75.5949"/>
</g>
<!-- 62 -->
<g id="node63" class="node"><title>62</title>
<path fill="#f6d3ff" stroke="black" d="M5762,-68C5762,-68 5623,-68 5623,-68 5617,-68 5611,-62 5611,-56 5611,-56 5611,-12 5611,-12 5611,-6 5617,-0 5623,-0 5623,-0 5762,-0 5762,-0 5768,-0 5774,-6 5774,-12 5774,-12 5774,-56 5774,-56 5774,-62 5768,-68 5762,-68"/>
<text text-anchor="middle" x="5692.5" y="-52.8" font-family="Times,serif" font-size="14.00">forward</text>
<text text-anchor="middle" x="5692.5" y="-37.8" font-family="Times,serif" font-size="14.00">DB0/C2</text>
<text text-anchor="middle" x="5692.5" y="-22.8" font-family="Times,serif" font-size="14.00">dilation rate: 1 &#160;&#160;k width: 3</text>
<text text-anchor="middle" x="5692.5" y="-7.8" font-family="Times,serif" font-size="14.00">n kernels: 64</text>
</g>
<!-- 30&#45;&gt;62 -->
<g id="edge62" class="edge"><title>30&#45;&gt;62</title>
<path fill="none" stroke="black" d="M5763.85,-103.974C5755.23,-95.6431 5744.63,-85.3882 5734.25,-75.3573"/>
<polygon fill="black" stroke="black" points="5736.39,-72.5574 5726.77,-68.1236 5731.52,-77.5904 5736.39,-72.5574"/>
</g>
<!-- 63 -->
<g id="node64" class="node"><title>63</title>
<path fill="#debfe6" stroke="black" d="M5943,-68C5943,-68 5804,-68 5804,-68 5798,-68 5792,-62 5792,-56 5792,-56 5792,-12 5792,-12 5792,-6 5798,-0 5804,-0 5804,-0 5943,-0 5943,-0 5949,-0 5955,-6 5955,-12 5955,-12 5955,-56 5955,-56 5955,-62 5949,-68 5943,-68"/>
<text text-anchor="middle" x="5873.5" y="-52.8" font-family="Times,serif" font-size="14.00">residual</text>
<text text-anchor="middle" x="5873.5" y="-37.8" font-family="Times,serif" font-size="14.00">DB0/C0</text>
<text text-anchor="middle" x="5873.5" y="-22.8" font-family="Times,serif" font-size="14.00">dilation rate: 1 &#160;&#160;k width: 3</text>
<text text-anchor="middle" x="5873.5" y="-7.8" font-family="Times,serif" font-size="14.00">n kernels: 64</text>
</g>
<!-- 30&#45;&gt;63 -->
<g id="edge63" class="edge"><title>30&#45;&gt;63</title>
<path fill="none" stroke="black" d="M5801.36,-103.974C5810.15,-95.5622 5821,-85.1889 5831.59,-75.0653"/>
<polygon fill="black" stroke="black" points="5834.04,-77.5639 5838.85,-68.1236 5829.21,-72.5042 5834.04,-77.5639"/>
</g>
<!-- 64 -->
<g id="node65" class="node"><title>64</title>
<path fill="#c7abce" stroke="black" d="M6124,-68C6124,-68 5985,-68 5985,-68 5979,-68 5973,-62 5973,-56 5973,-56 5973,-12 5973,-12 5973,-6 5979,-0 5985,-0 5985,-0 6124,-0 6124,-0 6130,-0 6136,-6 6136,-12 6136,-12 6136,-56 6136,-56 6136,-62 6130,-68 6124,-68"/>
<text text-anchor="middle" x="6054.5" y="-52.8" font-family="Times,serif" font-size="14.00">residual</text>
<text text-anchor="middle" x="6054.5" y="-37.8" font-family="Times,serif" font-size="14.00">DB0/C1</text>
<text text-anchor="middle" x="6054.5" y="-22.8" font-family="Times,serif" font-size="14.00">dilation rate: 1 &#160;&#160;k width: 3</text>
<text text-anchor="middle" x="6054.5" y="-7.8" font-family="Times,serif" font-size="14.00">n kernels: 64</text>
</g>
<!-- 30&#45;&gt;64 -->
<g id="edge64" class="edge"><title>30&#45;&gt;64</title>
<path fill="none" stroke="black" d="M5828.75,-109.148C5863.45,-99.3094 5912.31,-85.0431 5962.87,-68.4855"/>
<polygon fill="black" stroke="black" points="5964.26,-71.7118 5972.66,-65.2561 5962.07,-65.064 5964.26,-71.7118"/>
</g>
</g>
</svg>
