<?xml version="1.0" encoding="UTF-8" standalone="no"?>
<!DOCTYPE svg PUBLIC "-//W3C//DTD SVG 1.1//EN"
 "http://www.w3.org/Graphics/SVG/1.1/DTD/svg11.dtd">
<!-- Generated by graphviz version 2.38.0 (20140413.2041)
 -->
<!-- Title: %3 Pages: 1 -->
<svg width="1131pt" height="372pt"
 viewBox="0.00 0.00 1131.00 372.00" xmlns="http://www.w3.org/2000/svg" xmlns:xlink="http://www.w3.org/1999/xlink">
<g id="graph0" class="graph" transform="scale(1 1) rotate(0) translate(4 368)">
<title>%3</title>
<polygon fill="none" stroke="none" points="-4,4 -4,-368 1127,-368 1127,4 -4,4"/>
<!-- 0 -->
<g id="node1" class="node"><title>0</title>
<path fill="#ffd3d3" stroke="black" d="M564,-364C564,-364 407,-364 407,-364 401,-364 395,-358 395,-352 395,-352 395,-338 395,-338 395,-332 401,-326 407,-326 407,-326 564,-326 564,-326 570,-326 576,-332 576,-338 576,-338 576,-352 576,-352 576,-358 570,-364 564,-364"/>
<text text-anchor="middle" x="485.5" y="-348.8" font-family="Times,serif" font-size="14.00">net</text>
<text text-anchor="middle" x="485.5" y="-333.8" font-family="Times,serif" font-size="14.00">n kernels: 88 &#160;&#160;pooling type: 0</text>
</g>
<!-- 1 -->
<g id="node2" class="node"><title>1</title>
<path fill="#f6ffd3" stroke="black" d="M428,-290C428,-290 169,-290 169,-290 163,-290 157,-284 157,-278 157,-278 157,-249 157,-249 157,-243 163,-237 169,-237 169,-237 428,-237 428,-237 434,-237 440,-243 440,-249 440,-249 440,-278 440,-278 440,-284 434,-290 428,-290"/>
<text text-anchor="middle" x="298.5" y="-274.8" font-family="Times,serif" font-size="14.00">encoder</text>
<text text-anchor="middle" x="298.5" y="-259.8" font-family="Times,serif" font-size="14.00">log gamma1: 0.310591 &#160;&#160;log gamma2: 0.018950</text>
<text text-anchor="middle" x="298.5" y="-244.8" font-family="Times,serif" font-size="14.00">n kernels: &#45;4</text>
</g>
<!-- 0&#45;&gt;1 -->
<g id="edge1" class="edge"><title>0&#45;&gt;1</title>
<path fill="none" stroke="black" d="M443.067,-325.96C420.899,-316.536 393.206,-304.763 368.007,-294.05"/>
<polygon fill="black" stroke="black" points="369.06,-290.694 358.488,-290.003 366.321,-297.136 369.06,-290.694"/>
</g>
<!-- 2 -->
<g id="node3" class="node"><title>2</title>
<path fill="#f6ffd3" stroke="black" d="M772.5,-282.5C772.5,-282.5 572.5,-282.5 572.5,-282.5 566.5,-282.5 560.5,-276.5 560.5,-270.5 560.5,-270.5 560.5,-256.5 560.5,-256.5 560.5,-250.5 566.5,-244.5 572.5,-244.5 572.5,-244.5 772.5,-244.5 772.5,-244.5 778.5,-244.5 784.5,-250.5 784.5,-256.5 784.5,-256.5 784.5,-270.5 784.5,-270.5 784.5,-276.5 778.5,-282.5 772.5,-282.5"/>
<text text-anchor="middle" x="672.5" y="-267.3" font-family="Times,serif" font-size="14.00">decoder</text>
<text text-anchor="middle" x="672.5" y="-252.3" font-family="Times,serif" font-size="14.00">log gamma1: 0.311987 &#160;&#160;n kernels: &#45;7</text>
</g>
<!-- 0&#45;&gt;2 -->
<g id="edge2" class="edge"><title>0&#45;&gt;2</title>
<path fill="none" stroke="black" d="M527.933,-325.96C555.451,-314.261 591.482,-298.944 620.688,-286.527"/>
<polygon fill="black" stroke="black" points="622.078,-289.739 629.911,-282.606 619.339,-283.297 622.078,-289.739"/>
</g>
<!-- 3 -->
<g id="node4" class="node"><title>3</title>
<path fill="#d3ffe4" stroke="black" d="M159,-193.5C159,-193.5 34,-193.5 34,-193.5 28,-193.5 22,-187.5 22,-181.5 22,-181.5 22,-167.5 22,-167.5 22,-161.5 28,-155.5 34,-155.5 34,-155.5 159,-155.5 159,-155.5 165,-155.5 171,-161.5 171,-167.5 171,-167.5 171,-181.5 171,-181.5 171,-187.5 165,-193.5 159,-193.5"/>
<text text-anchor="middle" x="96.5" y="-178.3" font-family="Times,serif" font-size="14.00">encode block 0</text>
<text text-anchor="middle" x="96.5" y="-163.3" font-family="Times,serif" font-size="14.00">log gamma2: &#45;0.017796</text>
</g>
<!-- 1&#45;&gt;3 -->
<g id="edge3" class="edge"><title>1&#45;&gt;3</title>
<path fill="none" stroke="black" d="M239.258,-236.985C210.308,-224.516 175.803,-209.655 147.968,-197.667"/>
<polygon fill="black" stroke="black" points="148.99,-194.296 138.421,-193.555 146.221,-200.725 148.99,-194.296"/>
</g>
<!-- 4 -->
<g id="node5" class="node"><title>4</title>
<path fill="#bfe6cf" stroke="black" d="M396,-201C396,-201 201,-201 201,-201 195,-201 189,-195 189,-189 189,-189 189,-160 189,-160 189,-154 195,-148 201,-148 201,-148 396,-148 396,-148 402,-148 408,-154 408,-160 408,-160 408,-189 408,-189 408,-195 402,-201 396,-201"/>
<text text-anchor="middle" x="298.5" y="-185.8" font-family="Times,serif" font-size="14.00">encode block 1</text>
<text text-anchor="middle" x="298.5" y="-170.8" font-family="Times,serif" font-size="14.00">log gamma2: 0.075982 &#160;&#160;n kernels: 7</text>
<text text-anchor="middle" x="298.5" y="-155.8" font-family="Times,serif" font-size="14.00">spatial scale: 1</text>
</g>
<!-- 1&#45;&gt;4 -->
<g id="edge4" class="edge"><title>1&#45;&gt;4</title>
<path fill="none" stroke="black" d="M298.5,-236.868C298.5,-228.886 298.5,-219.932 298.5,-211.384"/>
<polygon fill="black" stroke="black" points="302,-211.25 298.5,-201.25 295,-211.25 302,-211.25"/>
</g>
<!-- 5 -->
<g id="node6" class="node"><title>5</title>
<path fill="#d3ffe4" stroke="black" d="M653,-201C653,-201 438,-201 438,-201 432,-201 426,-195 426,-189 426,-189 426,-160 426,-160 426,-154 432,-148 438,-148 438,-148 653,-148 653,-148 659,-148 665,-154 665,-160 665,-160 665,-189 665,-189 665,-195 659,-201 653,-201"/>
<text text-anchor="middle" x="545.5" y="-185.8" font-family="Times,serif" font-size="14.00">decode block 2</text>
<text text-anchor="middle" x="545.5" y="-170.8" font-family="Times,serif" font-size="14.00">log gamma1: 0.214864 &#160;&#160;n kernels: 2404</text>
<text text-anchor="middle" x="545.5" y="-155.8" font-family="Times,serif" font-size="14.00">spatial scale: 2</text>
</g>
<!-- 2&#45;&gt;5 -->
<g id="edge5" class="edge"><title>2&#45;&gt;5</title>
<path fill="none" stroke="black" d="M646.186,-244.474C630.308,-233.597 609.642,-219.44 591.167,-206.784"/>
<polygon fill="black" stroke="black" points="593.086,-203.856 582.858,-201.092 589.13,-209.631 593.086,-203.856"/>
</g>
<!-- 6 -->
<g id="node7" class="node"><title>6</title>
<path fill="#bfe6cf" stroke="black" d="M856,-193.5C856,-193.5 695,-193.5 695,-193.5 689,-193.5 683,-187.5 683,-181.5 683,-181.5 683,-167.5 683,-167.5 683,-161.5 689,-155.5 695,-155.5 695,-155.5 856,-155.5 856,-155.5 862,-155.5 868,-161.5 868,-167.5 868,-167.5 868,-181.5 868,-181.5 868,-187.5 862,-193.5 856,-193.5"/>
<text text-anchor="middle" x="775.5" y="-178.3" font-family="Times,serif" font-size="14.00">decode block 1</text>
<text text-anchor="middle" x="775.5" y="-163.3" font-family="Times,serif" font-size="14.00">n kernels: 914 &#160;&#160;spatial scale: 1</text>
</g>
<!-- 2&#45;&gt;6 -->
<g id="edge6" class="edge"><title>2&#45;&gt;6</title>
<path fill="none" stroke="black" d="M693.842,-244.474C709.033,-231.642 729.63,-214.244 746.337,-200.133"/>
<polygon fill="black" stroke="black" points="748.805,-202.63 754.186,-193.503 744.288,-197.282 748.805,-202.63"/>
</g>
<!-- 7 -->
<g id="node8" class="node"><title>7</title>
<path fill="#abceb9" stroke="black" d="M1111,-193.5C1111,-193.5 898,-193.5 898,-193.5 892,-193.5 886,-187.5 886,-181.5 886,-181.5 886,-167.5 886,-167.5 886,-161.5 892,-155.5 898,-155.5 898,-155.5 1111,-155.5 1111,-155.5 1117,-155.5 1123,-161.5 1123,-167.5 1123,-167.5 1123,-181.5 1123,-181.5 1123,-187.5 1117,-193.5 1111,-193.5"/>
<text text-anchor="middle" x="1004.5" y="-178.3" font-family="Times,serif" font-size="14.00">decode block 0</text>
<text text-anchor="middle" x="1004.5" y="-163.3" font-family="Times,serif" font-size="14.00">log gamma1: &#45;0.044490 &#160;&#160;n kernels: 233</text>
</g>
<!-- 2&#45;&gt;7 -->
<g id="edge7" class="edge"><title>2&#45;&gt;7</title>
<path fill="none" stroke="black" d="M741.291,-244.474C795.043,-230.388 869.791,-210.8 925.901,-196.097"/>
<polygon fill="black" stroke="black" points="927.011,-199.424 935.798,-193.503 925.237,-192.653 927.011,-199.424"/>
</g>
<!-- 8 -->
<g id="node9" class="node"><title>8</title>
<path fill="#d3e4ff" stroke="black" d="M47.5,-111C47.5,-111 13.5,-111 13.5,-111 7.5,-111 1.5,-105 1.5,-99 1.5,-99 1.5,-87 1.5,-87 1.5,-81 7.5,-75 13.5,-75 13.5,-75 47.5,-75 47.5,-75 53.5,-75 59.5,-81 59.5,-87 59.5,-87 59.5,-99 59.5,-99 59.5,-105 53.5,-111 47.5,-111"/>
<text text-anchor="middle" x="30.5" y="-89.3" font-family="Times,serif" font-size="14.00">comp 0</text>
</g>
<!-- 3&#45;&gt;8 -->
<g id="edge8" class="edge"><title>3&#45;&gt;8</title>
<path fill="none" stroke="black" d="M81.5236,-155.46C72.5621,-144.666 61.0427,-130.79 51.2175,-118.955"/>
<polygon fill="black" stroke="black" points="53.819,-116.609 44.7385,-111.151 48.4331,-121.081 53.819,-116.609"/>
</g>
<!-- 9 -->
<g id="node10" class="node"><title>9</title>
<path fill="#bfcfe6" stroke="black" d="M123.5,-111C123.5,-111 89.5,-111 89.5,-111 83.5,-111 77.5,-105 77.5,-99 77.5,-99 77.5,-87 77.5,-87 77.5,-81 83.5,-75 89.5,-75 89.5,-75 123.5,-75 123.5,-75 129.5,-75 135.5,-81 135.5,-87 135.5,-87 135.5,-99 135.5,-99 135.5,-105 129.5,-111 123.5,-111"/>
<text text-anchor="middle" x="106.5" y="-89.3" font-family="Times,serif" font-size="14.00">comp 1</text>
</g>
<!-- 3&#45;&gt;9 -->
<g id="edge9" class="edge"><title>3&#45;&gt;9</title>
<path fill="none" stroke="black" d="M98.7692,-155.46C100.036,-145.392 101.639,-132.644 103.057,-121.371"/>
<polygon fill="black" stroke="black" points="106.567,-121.51 104.343,-111.151 99.6219,-120.636 106.567,-121.51"/>
</g>
<!-- 10 -->
<g id="node11" class="node"><title>10</title>
<path fill="#d3e4ff" stroke="black" d="M310,-112C310,-112 185,-112 185,-112 179,-112 173,-106 173,-100 173,-100 173,-86 173,-86 173,-80 179,-74 185,-74 185,-74 310,-74 310,-74 316,-74 322,-80 322,-86 322,-86 322,-100 322,-100 322,-106 316,-112 310,-112"/>
<text text-anchor="middle" x="247.5" y="-96.8" font-family="Times,serif" font-size="14.00">comp 0</text>
<text text-anchor="middle" x="247.5" y="-81.8" font-family="Times,serif" font-size="14.00">log gamma1: &#45;0.151933</text>
</g>
<!-- 4&#45;&gt;10 -->
<g id="edge10" class="edge"><title>4&#45;&gt;10</title>
<path fill="none" stroke="black" d="M282.083,-147.908C276.55,-139.284 270.361,-129.637 264.765,-120.913"/>
<polygon fill="black" stroke="black" points="267.546,-118.766 259.2,-112.239 261.654,-122.546 267.546,-118.766"/>
</g>
<!-- 11 -->
<g id="node12" class="node"><title>11</title>
<path fill="#bfcfe6" stroke="black" d="M477,-112C477,-112 352,-112 352,-112 346,-112 340,-106 340,-100 340,-100 340,-86 340,-86 340,-80 346,-74 352,-74 352,-74 477,-74 477,-74 483,-74 489,-80 489,-86 489,-86 489,-100 489,-100 489,-106 483,-112 477,-112"/>
<text text-anchor="middle" x="414.5" y="-96.8" font-family="Times,serif" font-size="14.00">comp 1</text>
<text text-anchor="middle" x="414.5" y="-81.8" font-family="Times,serif" font-size="14.00">log gamma1: &#45;0.274530</text>
</g>
<!-- 4&#45;&gt;11 -->
<g id="edge11" class="edge"><title>4&#45;&gt;11</title>
<path fill="none" stroke="black" d="M335.842,-147.908C349.883,-138.285 365.782,-127.389 379.593,-117.923"/>
<polygon fill="black" stroke="black" points="381.617,-120.779 387.887,-112.239 377.66,-115.005 381.617,-120.779"/>
</g>
<!-- 12 -->
<g id="node13" class="node"><title>12</title>
<path fill="#d3e4ff" stroke="black" d="M562.5,-111C562.5,-111 528.5,-111 528.5,-111 522.5,-111 516.5,-105 516.5,-99 516.5,-99 516.5,-87 516.5,-87 516.5,-81 522.5,-75 528.5,-75 528.5,-75 562.5,-75 562.5,-75 568.5,-75 574.5,-81 574.5,-87 574.5,-87 574.5,-99 574.5,-99 574.5,-105 568.5,-111 562.5,-111"/>
<text text-anchor="middle" x="545.5" y="-89.3" font-family="Times,serif" font-size="14.00">comp 0</text>
</g>
<!-- 5&#45;&gt;12 -->
<g id="edge12" class="edge"><title>5&#45;&gt;12</title>
<path fill="none" stroke="black" d="M545.5,-147.908C545.5,-139.482 545.5,-130.08 545.5,-121.517"/>
<polygon fill="black" stroke="black" points="549,-121.256 545.5,-111.256 542,-121.256 549,-121.256"/>
</g>
<!-- 13 -->
<g id="node14" class="node"><title>13</title>
<path fill="#d3e4ff" stroke="black" d="M792.5,-111C792.5,-111 758.5,-111 758.5,-111 752.5,-111 746.5,-105 746.5,-99 746.5,-99 746.5,-87 746.5,-87 746.5,-81 752.5,-75 758.5,-75 758.5,-75 792.5,-75 792.5,-75 798.5,-75 804.5,-81 804.5,-87 804.5,-87 804.5,-99 804.5,-99 804.5,-105 798.5,-111 792.5,-111"/>
<text text-anchor="middle" x="775.5" y="-89.3" font-family="Times,serif" font-size="14.00">comp 0</text>
</g>
<!-- 6&#45;&gt;13 -->
<g id="edge13" class="edge"><title>6&#45;&gt;13</title>
<path fill="none" stroke="black" d="M775.5,-155.46C775.5,-145.392 775.5,-132.644 775.5,-121.371"/>
<polygon fill="black" stroke="black" points="779,-121.151 775.5,-111.151 772,-121.151 779,-121.151"/>
</g>
<!-- 14 -->
<g id="node15" class="node"><title>14</title>
<path fill="#d3e4ff" stroke="black" d="M1067,-112C1067,-112 942,-112 942,-112 936,-112 930,-106 930,-100 930,-100 930,-86 930,-86 930,-80 936,-74 942,-74 942,-74 1067,-74 1067,-74 1073,-74 1079,-80 1079,-86 1079,-86 1079,-100 1079,-100 1079,-106 1073,-112 1067,-112"/>
<text text-anchor="middle" x="1004.5" y="-96.8" font-family="Times,serif" font-size="14.00">comp 0</text>
<text text-anchor="middle" x="1004.5" y="-81.8" font-family="Times,serif" font-size="14.00">log gamma1: &#45;0.390878</text>
</g>
<!-- 7&#45;&gt;14 -->
<g id="edge14" class="edge"><title>7&#45;&gt;14</title>
<path fill="none" stroke="black" d="M1004.5,-155.46C1004.5,-145.67 1004.5,-133.345 1004.5,-122.307"/>
<polygon fill="black" stroke="black" points="1008,-122.244 1004.5,-112.244 1001,-122.244 1008,-122.244"/>
</g>
<!-- 15 -->
<g id="node16" class="node"><title>15</title>
<path fill="#f6d3ff" stroke="black" d="M47,-38C47,-38 12,-38 12,-38 6,-38 0,-32 0,-26 0,-26 0,-12 0,-12 0,-6 6,-0 12,-0 12,-0 47,-0 47,-0 53,-0 59,-6 59,-12 59,-12 59,-26 59,-26 59,-32 53,-38 47,-38"/>
<text text-anchor="middle" x="29.5" y="-22.8" font-family="Times,serif" font-size="14.00">forward</text>
<text text-anchor="middle" x="29.5" y="-7.8" font-family="Times,serif" font-size="14.00">input</text>
</g>
<!-- 8&#45;&gt;15 -->
<g id="edge15" class="edge"><title>8&#45;&gt;15</title>
<path fill="none" stroke="black" d="M30.263,-74.937C30.1526,-66.9865 30.0182,-57.3134 29.8932,-48.3127"/>
<polygon fill="black" stroke="black" points="33.3914,-48.1496 29.7528,-38.1992 26.3921,-48.2468 33.3914,-48.1496"/>
</g>
<!-- 16 -->
<g id="node17" class="node"><title>16</title>
<path fill="#f6d3ff" stroke="black" d="M125.5,-38C125.5,-38 89.5,-38 89.5,-38 83.5,-38 77.5,-32 77.5,-26 77.5,-26 77.5,-12 77.5,-12 77.5,-6 83.5,-0 89.5,-0 89.5,-0 125.5,-0 125.5,-0 131.5,-0 137.5,-6 137.5,-12 137.5,-12 137.5,-26 137.5,-26 137.5,-32 131.5,-38 125.5,-38"/>
<text text-anchor="middle" x="107.5" y="-22.8" font-family="Times,serif" font-size="14.00">forward</text>
<text text-anchor="middle" x="107.5" y="-7.8" font-family="Times,serif" font-size="14.00">EB0/C0</text>
</g>
<!-- 9&#45;&gt;16 -->
<g id="edge16" class="edge"><title>9&#45;&gt;16</title>
<path fill="none" stroke="black" d="M106.737,-74.937C106.847,-66.9865 106.982,-57.3134 107.107,-48.3127"/>
<polygon fill="black" stroke="black" points="110.608,-48.2468 107.247,-38.1992 103.609,-48.1496 110.608,-48.2468"/>
</g>
<!-- 17 -->
<g id="node18" class="node"><title>17</title>
<path fill="#f6d3ff" stroke="black" d="M265.5,-38C265.5,-38 229.5,-38 229.5,-38 223.5,-38 217.5,-32 217.5,-26 217.5,-26 217.5,-12 217.5,-12 217.5,-6 223.5,-0 229.5,-0 229.5,-0 265.5,-0 265.5,-0 271.5,-0 277.5,-6 277.5,-12 277.5,-12 277.5,-26 277.5,-26 277.5,-32 271.5,-38 265.5,-38"/>
<text text-anchor="middle" x="247.5" y="-22.8" font-family="Times,serif" font-size="14.00">forward</text>
<text text-anchor="middle" x="247.5" y="-7.8" font-family="Times,serif" font-size="14.00">EB0/C1</text>
</g>
<!-- 10&#45;&gt;17 -->
<g id="edge17" class="edge"><title>10&#45;&gt;17</title>
<path fill="none" stroke="black" d="M247.5,-73.8314C247.5,-66.131 247.5,-56.9743 247.5,-48.4166"/>
<polygon fill="black" stroke="black" points="251,-48.4132 247.5,-38.4133 244,-48.4133 251,-48.4132"/>
</g>
<!-- 18 -->
<g id="node19" class="node"><title>18</title>
<path fill="#f6d3ff" stroke="black" d="M432.5,-38C432.5,-38 396.5,-38 396.5,-38 390.5,-38 384.5,-32 384.5,-26 384.5,-26 384.5,-12 384.5,-12 384.5,-6 390.5,-0 396.5,-0 396.5,-0 432.5,-0 432.5,-0 438.5,-0 444.5,-6 444.5,-12 444.5,-12 444.5,-26 444.5,-26 444.5,-32 438.5,-38 432.5,-38"/>
<text text-anchor="middle" x="414.5" y="-22.8" font-family="Times,serif" font-size="14.00">forward</text>
<text text-anchor="middle" x="414.5" y="-7.8" font-family="Times,serif" font-size="14.00">EB1/C0</text>
</g>
<!-- 11&#45;&gt;18 -->
<g id="edge18" class="edge"><title>11&#45;&gt;18</title>
<path fill="none" stroke="black" d="M414.5,-73.8314C414.5,-66.131 414.5,-56.9743 414.5,-48.4166"/>
<polygon fill="black" stroke="black" points="418,-48.4132 414.5,-38.4133 411,-48.4133 418,-48.4132"/>
</g>
<!-- 19 -->
<g id="node20" class="node"><title>19</title>
<path fill="#f6d3ff" stroke="black" d="M563.5,-38C563.5,-38 527.5,-38 527.5,-38 521.5,-38 515.5,-32 515.5,-26 515.5,-26 515.5,-12 515.5,-12 515.5,-6 521.5,-0 527.5,-0 527.5,-0 563.5,-0 563.5,-0 569.5,-0 575.5,-6 575.5,-12 575.5,-12 575.5,-26 575.5,-26 575.5,-32 569.5,-38 563.5,-38"/>
<text text-anchor="middle" x="545.5" y="-22.8" font-family="Times,serif" font-size="14.00">forward</text>
<text text-anchor="middle" x="545.5" y="-7.8" font-family="Times,serif" font-size="14.00">EB1/C1</text>
</g>
<!-- 12&#45;&gt;19 -->
<g id="edge19" class="edge"><title>12&#45;&gt;19</title>
<path fill="none" stroke="black" d="M545.5,-74.937C545.5,-66.9865 545.5,-57.3134 545.5,-48.3127"/>
<polygon fill="black" stroke="black" points="549,-48.1991 545.5,-38.1992 542,-48.1992 549,-48.1991"/>
</g>
<!-- 20 -->
<g id="node21" class="node"><title>20</title>
<path fill="#f6d3ff" stroke="black" d="M754.5,-38C754.5,-38 716.5,-38 716.5,-38 710.5,-38 704.5,-32 704.5,-26 704.5,-26 704.5,-12 704.5,-12 704.5,-6 710.5,-0 716.5,-0 716.5,-0 754.5,-0 754.5,-0 760.5,-0 766.5,-6 766.5,-12 766.5,-12 766.5,-26 766.5,-26 766.5,-32 760.5,-38 754.5,-38"/>
<text text-anchor="middle" x="735.5" y="-22.8" font-family="Times,serif" font-size="14.00">forward</text>
<text text-anchor="middle" x="735.5" y="-7.8" font-family="Times,serif" font-size="14.00">DB2/C0</text>
</g>
<!-- 13&#45;&gt;20 -->
<g id="edge20" class="edge"><title>13&#45;&gt;20</title>
<path fill="none" stroke="black" d="M766.021,-74.937C761.412,-66.6409 755.761,-56.469 750.579,-47.1428"/>
<polygon fill="black" stroke="black" points="753.527,-45.241 745.611,-38.1992 747.408,-48.6405 753.527,-45.241"/>
</g>
<!-- 21 -->
<g id="node22" class="node"><title>21</title>
<path fill="#debfe6" stroke="black" d="M832.5,-38C832.5,-38 796.5,-38 796.5,-38 790.5,-38 784.5,-32 784.5,-26 784.5,-26 784.5,-12 784.5,-12 784.5,-6 790.5,-0 796.5,-0 796.5,-0 832.5,-0 832.5,-0 838.5,-0 844.5,-6 844.5,-12 844.5,-12 844.5,-26 844.5,-26 844.5,-32 838.5,-38 832.5,-38"/>
<text text-anchor="middle" x="814.5" y="-22.8" font-family="Times,serif" font-size="14.00">merge</text>
<text text-anchor="middle" x="814.5" y="-7.8" font-family="Times,serif" font-size="14.00">EB1/C1</text>
</g>
<!-- 13&#45;&gt;21 -->
<g id="edge21" class="edge"><title>13&#45;&gt;21</title>
<path fill="none" stroke="black" d="M784.742,-74.937C789.236,-66.6409 794.746,-56.469 799.798,-47.1428"/>
<polygon fill="black" stroke="black" points="802.957,-48.6591 804.642,-38.1992 796.802,-45.3251 802.957,-48.6591"/>
</g>
<!-- 22 -->
<g id="node23" class="node"><title>22</title>
<path fill="#f6d3ff" stroke="black" d="M983.5,-38C983.5,-38 945.5,-38 945.5,-38 939.5,-38 933.5,-32 933.5,-26 933.5,-26 933.5,-12 933.5,-12 933.5,-6 939.5,-0 945.5,-0 945.5,-0 983.5,-0 983.5,-0 989.5,-0 995.5,-6 995.5,-12 995.5,-12 995.5,-26 995.5,-26 995.5,-32 989.5,-38 983.5,-38"/>
<text text-anchor="middle" x="964.5" y="-22.8" font-family="Times,serif" font-size="14.00">forward</text>
<text text-anchor="middle" x="964.5" y="-7.8" font-family="Times,serif" font-size="14.00">DB1/C0</text>
</g>
<!-- 14&#45;&gt;22 -->
<g id="edge22" class="edge"><title>14&#45;&gt;22</title>
<path fill="none" stroke="black" d="M994.406,-73.8314C989.94,-65.7925 984.593,-56.1666 979.662,-47.2918"/>
<polygon fill="black" stroke="black" points="982.646,-45.4551 974.73,-38.4133 976.527,-48.8546 982.646,-45.4551"/>
</g>
<!-- 23 -->
<g id="node24" class="node"><title>23</title>
<path fill="#debfe6" stroke="black" d="M1061.5,-38C1061.5,-38 1025.5,-38 1025.5,-38 1019.5,-38 1013.5,-32 1013.5,-26 1013.5,-26 1013.5,-12 1013.5,-12 1013.5,-6 1019.5,-0 1025.5,-0 1025.5,-0 1061.5,-0 1061.5,-0 1067.5,-0 1073.5,-6 1073.5,-12 1073.5,-12 1073.5,-26 1073.5,-26 1073.5,-32 1067.5,-38 1061.5,-38"/>
<text text-anchor="middle" x="1043.5" y="-22.8" font-family="Times,serif" font-size="14.00">merge</text>
<text text-anchor="middle" x="1043.5" y="-7.8" font-family="Times,serif" font-size="14.00">EB0/C1</text>
</g>
<!-- 14&#45;&gt;23 -->
<g id="edge23" class="edge"><title>14&#45;&gt;23</title>
<path fill="none" stroke="black" d="M1014.34,-73.8314C1018.7,-65.7925 1023.91,-56.1666 1028.72,-47.2918"/>
<polygon fill="black" stroke="black" points="1031.84,-48.8732 1033.53,-38.4133 1025.69,-45.5392 1031.84,-48.8732"/>
</g>
</g>
</svg>
