<?xml version="1.0" encoding="UTF-8" standalone="no"?>
<!DOCTYPE svg PUBLIC "-//W3C//DTD SVG 1.1//EN"
 "http://www.w3.org/Graphics/SVG/1.1/DTD/svg11.dtd">
<!-- Generated by graphviz version 2.38.0 (20140413.2041)
 -->
<!-- Title: %3 Pages: 1 -->
<svg width="937pt" height="357pt"
 viewBox="0.00 0.00 936.50 357.00" xmlns="http://www.w3.org/2000/svg" xmlns:xlink="http://www.w3.org/1999/xlink">
<g id="graph0" class="graph" transform="scale(1 1) rotate(0) translate(4 353)">
<title>%3</title>
<polygon fill="none" stroke="none" points="-4,4 -4,-353 932.5,-353 932.5,4 -4,4"/>
<!-- 0 -->
<g id="node1" class="node"><title>0</title>
<path fill="#ffd3d3" stroke="black" d="M352,-349C352,-349 195,-349 195,-349 189,-349 183,-343 183,-337 183,-337 183,-323 183,-323 183,-317 189,-311 195,-311 195,-311 352,-311 352,-311 358,-311 364,-317 364,-323 364,-323 364,-337 364,-337 364,-343 358,-349 352,-349"/>
<text text-anchor="middle" x="273.5" y="-333.8" font-family="Times,serif" font-size="14.00">net</text>
<text text-anchor="middle" x="273.5" y="-318.8" font-family="Times,serif" font-size="14.00">n kernels: 19 &#160;&#160;pooling type: 0</text>
</g>
<!-- 1 -->
<g id="node2" class="node"><title>1</title>
<path fill="#f6ffd3" stroke="black" d="M265.5,-275C265.5,-275 63.5,-275 63.5,-275 57.5,-275 51.5,-269 51.5,-263 51.5,-263 51.5,-249 51.5,-249 51.5,-243 57.5,-237 63.5,-237 63.5,-237 265.5,-237 265.5,-237 271.5,-237 277.5,-243 277.5,-249 277.5,-249 277.5,-263 277.5,-263 277.5,-269 271.5,-275 265.5,-275"/>
<text text-anchor="middle" x="164.5" y="-259.8" font-family="Times,serif" font-size="14.00">encoder</text>
<text text-anchor="middle" x="164.5" y="-244.8" font-family="Times,serif" font-size="14.00">log gamma1: 1.000000 &#160;&#160;n kernels: 12</text>
</g>
<!-- 0&#45;&gt;1 -->
<g id="edge1" class="edge"><title>0&#45;&gt;1</title>
<path fill="none" stroke="black" d="M245.995,-310.831C232.182,-301.707 215.274,-290.539 200.447,-280.745"/>
<polygon fill="black" stroke="black" points="202.27,-277.754 191.997,-275.163 198.411,-283.595 202.27,-277.754"/>
</g>
<!-- 2 -->
<g id="node3" class="node"><title>2</title>
<path fill="#f6ffd3" stroke="black" d="M400,-274C400,-274 365,-274 365,-274 359,-274 353,-268 353,-262 353,-262 353,-250 353,-250 353,-244 359,-238 365,-238 365,-238 400,-238 400,-238 406,-238 412,-244 412,-250 412,-250 412,-262 412,-262 412,-268 406,-274 400,-274"/>
<text text-anchor="middle" x="382.5" y="-252.3" font-family="Times,serif" font-size="14.00">decoder</text>
</g>
<!-- 0&#45;&gt;2 -->
<g id="edge2" class="edge"><title>0&#45;&gt;2</title>
<path fill="none" stroke="black" d="M301.005,-310.831C315.24,-301.429 332.761,-289.855 347.905,-279.852"/>
<polygon fill="black" stroke="black" points="350.089,-282.604 356.504,-274.171 346.231,-276.763 350.089,-282.604"/>
</g>
<!-- 3 -->
<g id="node4" class="node"><title>3</title>
<path fill="#d3ffe4" stroke="black" d="M144,-192.5C144,-192.5 69,-192.5 69,-192.5 63,-192.5 57,-186.5 57,-180.5 57,-180.5 57,-168.5 57,-168.5 57,-162.5 63,-156.5 69,-156.5 69,-156.5 144,-156.5 144,-156.5 150,-156.5 156,-162.5 156,-168.5 156,-168.5 156,-180.5 156,-180.5 156,-186.5 150,-192.5 144,-192.5"/>
<text text-anchor="middle" x="106.5" y="-170.8" font-family="Times,serif" font-size="14.00">encode block 0</text>
</g>
<!-- 1&#45;&gt;3 -->
<g id="edge3" class="edge"><title>1&#45;&gt;3</title>
<path fill="none" stroke="black" d="M151.339,-236.96C143.539,-226.27 133.535,-212.557 124.956,-200.797"/>
<polygon fill="black" stroke="black" points="127.734,-198.667 119.013,-192.651 122.079,-202.792 127.734,-198.667"/>
</g>
<!-- 4 -->
<g id="node5" class="node"><title>4</title>
<path fill="#d3ffe4" stroke="black" d="M485.5,-201C485.5,-201 279.5,-201 279.5,-201 273.5,-201 267.5,-195 267.5,-189 267.5,-189 267.5,-160 267.5,-160 267.5,-154 273.5,-148 279.5,-148 279.5,-148 485.5,-148 485.5,-148 491.5,-148 497.5,-154 497.5,-160 497.5,-160 497.5,-189 497.5,-189 497.5,-195 491.5,-201 485.5,-201"/>
<text text-anchor="middle" x="382.5" y="-185.8" font-family="Times,serif" font-size="14.00">decode block 1</text>
<text text-anchor="middle" x="382.5" y="-170.8" font-family="Times,serif" font-size="14.00">log gamma2: &#45;1.429131 &#160;&#160;n kernels: 19</text>
<text text-anchor="middle" x="382.5" y="-155.8" font-family="Times,serif" font-size="14.00">spatial scale: 1</text>
</g>
<!-- 2&#45;&gt;4 -->
<g id="edge4" class="edge"><title>2&#45;&gt;4</title>
<path fill="none" stroke="black" d="M382.5,-237.75C382.5,-229.986 382.5,-220.514 382.5,-211.325"/>
<polygon fill="black" stroke="black" points="386,-211.176 382.5,-201.176 379,-211.176 386,-211.176"/>
</g>
<!-- 5 -->
<g id="node6" class="node"><title>5</title>
<path fill="#bfe6cf" stroke="black" d="M777,-192.5C777,-192.5 702,-192.5 702,-192.5 696,-192.5 690,-186.5 690,-180.5 690,-180.5 690,-168.5 690,-168.5 690,-162.5 696,-156.5 702,-156.5 702,-156.5 777,-156.5 777,-156.5 783,-156.5 789,-162.5 789,-168.5 789,-168.5 789,-180.5 789,-180.5 789,-186.5 783,-192.5 777,-192.5"/>
<text text-anchor="middle" x="739.5" y="-170.8" font-family="Times,serif" font-size="14.00">decode block 0</text>
</g>
<!-- 2&#45;&gt;5 -->
<g id="edge5" class="edge"><title>2&#45;&gt;5</title>
<path fill="none" stroke="black" d="M412.019,-248.427C470.534,-235.396 602.257,-206.063 679.633,-188.832"/>
<polygon fill="black" stroke="black" points="680.715,-192.177 689.715,-186.586 679.194,-185.344 680.715,-192.177"/>
</g>
<!-- 6 -->
<g id="node7" class="node"><title>6</title>
<path fill="#d3e4ff" stroke="black" d="M47.5,-111C47.5,-111 13.5,-111 13.5,-111 7.5,-111 1.5,-105 1.5,-99 1.5,-99 1.5,-87 1.5,-87 1.5,-81 7.5,-75 13.5,-75 13.5,-75 47.5,-75 47.5,-75 53.5,-75 59.5,-81 59.5,-87 59.5,-87 59.5,-99 59.5,-99 59.5,-105 53.5,-111 47.5,-111"/>
<text text-anchor="middle" x="30.5" y="-89.3" font-family="Times,serif" font-size="14.00">comp 0</text>
</g>
<!-- 3&#45;&gt;6 -->
<g id="edge6" class="edge"><title>3&#45;&gt;6</title>
<path fill="none" stroke="black" d="M90.0091,-156.25C79.4524,-145.207 65.5934,-130.71 53.9061,-118.484"/>
<polygon fill="black" stroke="black" points="56.3988,-116.027 46.9587,-111.217 51.3389,-120.864 56.3988,-116.027"/>
</g>
<!-- 7 -->
<g id="node8" class="node"><title>7</title>
<path fill="#bfcfe6" stroke="black" d="M123.5,-111C123.5,-111 89.5,-111 89.5,-111 83.5,-111 77.5,-105 77.5,-99 77.5,-99 77.5,-87 77.5,-87 77.5,-81 83.5,-75 89.5,-75 89.5,-75 123.5,-75 123.5,-75 129.5,-75 135.5,-81 135.5,-87 135.5,-87 135.5,-99 135.5,-99 135.5,-105 129.5,-111 123.5,-111"/>
<text text-anchor="middle" x="106.5" y="-89.3" font-family="Times,serif" font-size="14.00">comp 1</text>
</g>
<!-- 3&#45;&gt;7 -->
<g id="edge7" class="edge"><title>3&#45;&gt;7</title>
<path fill="none" stroke="black" d="M106.5,-156.25C106.5,-146.04 106.5,-132.878 106.5,-121.288"/>
<polygon fill="black" stroke="black" points="110,-121.217 106.5,-111.217 103,-121.217 110,-121.217"/>
</g>
<!-- 8 -->
<g id="node9" class="node"><title>8</title>
<path fill="#d3e4ff" stroke="black" d="M285.5,-112C285.5,-112 165.5,-112 165.5,-112 159.5,-112 153.5,-106 153.5,-100 153.5,-100 153.5,-86 153.5,-86 153.5,-80 159.5,-74 165.5,-74 165.5,-74 285.5,-74 285.5,-74 291.5,-74 297.5,-80 297.5,-86 297.5,-86 297.5,-100 297.5,-100 297.5,-106 291.5,-112 285.5,-112"/>
<text text-anchor="middle" x="225.5" y="-96.8" font-family="Times,serif" font-size="14.00">comp 0</text>
<text text-anchor="middle" x="225.5" y="-81.8" font-family="Times,serif" font-size="14.00">log gamma1: 1.364165</text>
</g>
<!-- 4&#45;&gt;8 -->
<g id="edge8" class="edge"><title>4&#45;&gt;8</title>
<path fill="none" stroke="black" d="M331.96,-147.908C312.239,-137.922 289.81,-126.565 270.641,-116.858"/>
<polygon fill="black" stroke="black" points="272.022,-113.634 261.519,-112.239 268.859,-119.879 272.022,-113.634"/>
</g>
<!-- 9 -->
<g id="node10" class="node"><title>9</title>
<path fill="#bfcfe6" stroke="black" d="M361.5,-111C361.5,-111 327.5,-111 327.5,-111 321.5,-111 315.5,-105 315.5,-99 315.5,-99 315.5,-87 315.5,-87 315.5,-81 321.5,-75 327.5,-75 327.5,-75 361.5,-75 361.5,-75 367.5,-75 373.5,-81 373.5,-87 373.5,-87 373.5,-99 373.5,-99 373.5,-105 367.5,-111 361.5,-111"/>
<text text-anchor="middle" x="344.5" y="-89.3" font-family="Times,serif" font-size="14.00">comp 1</text>
</g>
<!-- 4&#45;&gt;9 -->
<g id="edge9" class="edge"><title>4&#45;&gt;9</title>
<path fill="none" stroke="black" d="M370.267,-147.908C366.061,-139.108 361.346,-129.243 357.11,-120.381"/>
<polygon fill="black" stroke="black" points="360.219,-118.769 352.748,-111.256 353.903,-121.788 360.219,-118.769"/>
</g>
<!-- 10 -->
<g id="node11" class="node"><title>10</title>
<path fill="#abb9ce" stroke="black" d="M437.5,-111C437.5,-111 403.5,-111 403.5,-111 397.5,-111 391.5,-105 391.5,-99 391.5,-99 391.5,-87 391.5,-87 391.5,-81 397.5,-75 403.5,-75 403.5,-75 437.5,-75 437.5,-75 443.5,-75 449.5,-81 449.5,-87 449.5,-87 449.5,-99 449.5,-99 449.5,-105 443.5,-111 437.5,-111"/>
<text text-anchor="middle" x="420.5" y="-89.3" font-family="Times,serif" font-size="14.00">comp 2</text>
</g>
<!-- 4&#45;&gt;10 -->
<g id="edge10" class="edge"><title>4&#45;&gt;10</title>
<path fill="none" stroke="black" d="M394.733,-147.908C398.939,-139.108 403.654,-129.243 407.89,-120.381"/>
<polygon fill="black" stroke="black" points="411.097,-121.788 412.252,-111.256 404.781,-118.769 411.097,-121.788"/>
</g>
<!-- 11 -->
<g id="node12" class="node"><title>11</title>
<path fill="#97a3b6" stroke="black" d="M515.5,-111C515.5,-111 481.5,-111 481.5,-111 475.5,-111 469.5,-105 469.5,-99 469.5,-99 469.5,-87 469.5,-87 469.5,-81 475.5,-75 481.5,-75 481.5,-75 515.5,-75 515.5,-75 521.5,-75 527.5,-81 527.5,-87 527.5,-87 527.5,-99 527.5,-99 527.5,-105 521.5,-111 515.5,-111"/>
<text text-anchor="middle" x="498.5" y="-89.3" font-family="Times,serif" font-size="14.00">comp 3</text>
</g>
<!-- 4&#45;&gt;11 -->
<g id="edge11" class="edge"><title>4&#45;&gt;11</title>
<path fill="none" stroke="black" d="M419.842,-147.908C434.431,-137.909 451.027,-126.536 465.202,-116.821"/>
<polygon fill="black" stroke="black" points="467.405,-119.554 473.675,-111.014 463.448,-113.78 467.405,-119.554"/>
</g>
<!-- 12 -->
<g id="node13" class="node"><title>12</title>
<path fill="#d3e4ff" stroke="black" d="M680,-112C680,-112 619,-112 619,-112 613,-112 607,-106 607,-100 607,-100 607,-86 607,-86 607,-80 613,-74 619,-74 619,-74 680,-74 680,-74 686,-74 692,-80 692,-86 692,-86 692,-100 692,-100 692,-106 686,-112 680,-112"/>
<text text-anchor="middle" x="649.5" y="-96.8" font-family="Times,serif" font-size="14.00">comp 0</text>
<text text-anchor="middle" x="649.5" y="-81.8" font-family="Times,serif" font-size="14.00">n kernels: &#45;3</text>
</g>
<!-- 5&#45;&gt;12 -->
<g id="edge12" class="edge"><title>5&#45;&gt;12</title>
<path fill="none" stroke="black" d="M719.971,-156.25C707.611,-145.332 691.429,-131.037 677.688,-118.9"/>
<polygon fill="black" stroke="black" points="679.74,-116.042 669.928,-112.044 675.105,-121.288 679.74,-116.042"/>
</g>
<!-- 13 -->
<g id="node14" class="node"><title>13</title>
<path fill="#bfcfe6" stroke="black" d="M756.5,-111C756.5,-111 722.5,-111 722.5,-111 716.5,-111 710.5,-105 710.5,-99 710.5,-99 710.5,-87 710.5,-87 710.5,-81 716.5,-75 722.5,-75 722.5,-75 756.5,-75 756.5,-75 762.5,-75 768.5,-81 768.5,-87 768.5,-87 768.5,-99 768.5,-99 768.5,-105 762.5,-111 756.5,-111"/>
<text text-anchor="middle" x="739.5" y="-89.3" font-family="Times,serif" font-size="14.00">comp 1</text>
</g>
<!-- 5&#45;&gt;13 -->
<g id="edge13" class="edge"><title>5&#45;&gt;13</title>
<path fill="none" stroke="black" d="M739.5,-156.25C739.5,-146.04 739.5,-132.878 739.5,-121.288"/>
<polygon fill="black" stroke="black" points="743,-121.217 739.5,-111.217 736,-121.217 743,-121.217"/>
</g>
<!-- 14 -->
<g id="node15" class="node"><title>14</title>
<path fill="#abb9ce" stroke="black" d="M833.5,-111C833.5,-111 799.5,-111 799.5,-111 793.5,-111 787.5,-105 787.5,-99 787.5,-99 787.5,-87 787.5,-87 787.5,-81 793.5,-75 799.5,-75 799.5,-75 833.5,-75 833.5,-75 839.5,-75 845.5,-81 845.5,-87 845.5,-87 845.5,-99 845.5,-99 845.5,-105 839.5,-111 833.5,-111"/>
<text text-anchor="middle" x="816.5" y="-89.3" font-family="Times,serif" font-size="14.00">comp 2</text>
</g>
<!-- 5&#45;&gt;14 -->
<g id="edge14" class="edge"><title>5&#45;&gt;14</title>
<path fill="none" stroke="black" d="M756.208,-156.25C766.903,-145.207 780.945,-130.71 792.786,-118.484"/>
<polygon fill="black" stroke="black" points="795.382,-120.835 799.825,-111.217 790.353,-115.965 795.382,-120.835"/>
</g>
<!-- 15 -->
<g id="node16" class="node"><title>15</title>
<path fill="#97a3b6" stroke="black" d="M911.5,-111C911.5,-111 877.5,-111 877.5,-111 871.5,-111 865.5,-105 865.5,-99 865.5,-99 865.5,-87 865.5,-87 865.5,-81 871.5,-75 877.5,-75 877.5,-75 911.5,-75 911.5,-75 917.5,-75 923.5,-81 923.5,-87 923.5,-87 923.5,-99 923.5,-99 923.5,-105 917.5,-111 911.5,-111"/>
<text text-anchor="middle" x="894.5" y="-89.3" font-family="Times,serif" font-size="14.00">comp 3</text>
</g>
<!-- 5&#45;&gt;15 -->
<g id="edge15" class="edge"><title>5&#45;&gt;15</title>
<path fill="none" stroke="black" d="M772.751,-156.445C797.311,-143.849 830.786,-126.679 856.42,-113.532"/>
<polygon fill="black" stroke="black" points="858.177,-116.564 865.478,-108.886 854.983,-110.335 858.177,-116.564"/>
</g>
<!-- 16 -->
<g id="node17" class="node"><title>16</title>
<path fill="#f6d3ff" stroke="black" d="M47,-38C47,-38 12,-38 12,-38 6,-38 0,-32 0,-26 0,-26 0,-12 0,-12 0,-6 6,-0 12,-0 12,-0 47,-0 47,-0 53,-0 59,-6 59,-12 59,-12 59,-26 59,-26 59,-32 53,-38 47,-38"/>
<text text-anchor="middle" x="29.5" y="-22.8" font-family="Times,serif" font-size="14.00">forward</text>
<text text-anchor="middle" x="29.5" y="-7.8" font-family="Times,serif" font-size="14.00">input</text>
</g>
<!-- 6&#45;&gt;16 -->
<g id="edge16" class="edge"><title>6&#45;&gt;16</title>
<path fill="none" stroke="black" d="M30.263,-74.937C30.1526,-66.9865 30.0182,-57.3134 29.8932,-48.3127"/>
<polygon fill="black" stroke="black" points="33.3914,-48.1496 29.7528,-38.1992 26.3921,-48.2468 33.3914,-48.1496"/>
</g>
<!-- 17 -->
<g id="node18" class="node"><title>17</title>
<path fill="#f6d3ff" stroke="black" d="M125.5,-38C125.5,-38 89.5,-38 89.5,-38 83.5,-38 77.5,-32 77.5,-26 77.5,-26 77.5,-12 77.5,-12 77.5,-6 83.5,-0 89.5,-0 89.5,-0 125.5,-0 125.5,-0 131.5,-0 137.5,-6 137.5,-12 137.5,-12 137.5,-26 137.5,-26 137.5,-32 131.5,-38 125.5,-38"/>
<text text-anchor="middle" x="107.5" y="-22.8" font-family="Times,serif" font-size="14.00">forward</text>
<text text-anchor="middle" x="107.5" y="-7.8" font-family="Times,serif" font-size="14.00">EB0/C0</text>
</g>
<!-- 7&#45;&gt;17 -->
<g id="edge17" class="edge"><title>7&#45;&gt;17</title>
<path fill="none" stroke="black" d="M106.737,-74.937C106.847,-66.9865 106.982,-57.3134 107.107,-48.3127"/>
<polygon fill="black" stroke="black" points="110.608,-48.2468 107.247,-38.1992 103.609,-48.1496 110.608,-48.2468"/>
</g>
<!-- 18 -->
<g id="node19" class="node"><title>18</title>
<path fill="#f6d3ff" stroke="black" d="M243.5,-38C243.5,-38 207.5,-38 207.5,-38 201.5,-38 195.5,-32 195.5,-26 195.5,-26 195.5,-12 195.5,-12 195.5,-6 201.5,-0 207.5,-0 207.5,-0 243.5,-0 243.5,-0 249.5,-0 255.5,-6 255.5,-12 255.5,-12 255.5,-26 255.5,-26 255.5,-32 249.5,-38 243.5,-38"/>
<text text-anchor="middle" x="225.5" y="-22.8" font-family="Times,serif" font-size="14.00">forward</text>
<text text-anchor="middle" x="225.5" y="-7.8" font-family="Times,serif" font-size="14.00">EB0/C1</text>
</g>
<!-- 8&#45;&gt;18 -->
<g id="edge18" class="edge"><title>8&#45;&gt;18</title>
<path fill="none" stroke="black" d="M225.5,-73.8314C225.5,-66.131 225.5,-56.9743 225.5,-48.4166"/>
<polygon fill="black" stroke="black" points="229,-48.4132 225.5,-38.4133 222,-48.4133 229,-48.4132"/>
</g>
<!-- 19 -->
<g id="node20" class="node"><title>19</title>
<path fill="#f6d3ff" stroke="black" d="M358.5,-38C358.5,-38 320.5,-38 320.5,-38 314.5,-38 308.5,-32 308.5,-26 308.5,-26 308.5,-12 308.5,-12 308.5,-6 314.5,-0 320.5,-0 320.5,-0 358.5,-0 358.5,-0 364.5,-0 370.5,-6 370.5,-12 370.5,-12 370.5,-26 370.5,-26 370.5,-32 364.5,-38 358.5,-38"/>
<text text-anchor="middle" x="339.5" y="-22.8" font-family="Times,serif" font-size="14.00">forward</text>
<text text-anchor="middle" x="339.5" y="-7.8" font-family="Times,serif" font-size="14.00">DB1/C0</text>
</g>
<!-- 9&#45;&gt;19 -->
<g id="edge19" class="edge"><title>9&#45;&gt;19</title>
<path fill="none" stroke="black" d="M343.315,-74.937C342.763,-66.9865 342.091,-57.3134 341.466,-48.3127"/>
<polygon fill="black" stroke="black" points="344.948,-47.9326 340.764,-38.1992 337.965,-48.4176 344.948,-47.9326"/>
</g>
<!-- 20 -->
<g id="node21" class="node"><title>20</title>
<path fill="#f6d3ff" stroke="black" d="M438.5,-38C438.5,-38 400.5,-38 400.5,-38 394.5,-38 388.5,-32 388.5,-26 388.5,-26 388.5,-12 388.5,-12 388.5,-6 394.5,-0 400.5,-0 400.5,-0 438.5,-0 438.5,-0 444.5,-0 450.5,-6 450.5,-12 450.5,-12 450.5,-26 450.5,-26 450.5,-32 444.5,-38 438.5,-38"/>
<text text-anchor="middle" x="419.5" y="-22.8" font-family="Times,serif" font-size="14.00">forward</text>
<text text-anchor="middle" x="419.5" y="-7.8" font-family="Times,serif" font-size="14.00">DB1/C1</text>
</g>
<!-- 10&#45;&gt;20 -->
<g id="edge20" class="edge"><title>10&#45;&gt;20</title>
<path fill="none" stroke="black" d="M420.263,-74.937C420.153,-66.9865 420.018,-57.3134 419.893,-48.3127"/>
<polygon fill="black" stroke="black" points="423.391,-48.1496 419.753,-38.1992 416.392,-48.2468 423.391,-48.1496"/>
</g>
<!-- 21 -->
<g id="node22" class="node"><title>21</title>
<path fill="#f6d3ff" stroke="black" d="M518.5,-38C518.5,-38 480.5,-38 480.5,-38 474.5,-38 468.5,-32 468.5,-26 468.5,-26 468.5,-12 468.5,-12 468.5,-6 474.5,-0 480.5,-0 480.5,-0 518.5,-0 518.5,-0 524.5,-0 530.5,-6 530.5,-12 530.5,-12 530.5,-26 530.5,-26 530.5,-32 524.5,-38 518.5,-38"/>
<text text-anchor="middle" x="499.5" y="-22.8" font-family="Times,serif" font-size="14.00">forward</text>
<text text-anchor="middle" x="499.5" y="-7.8" font-family="Times,serif" font-size="14.00">DB1/C2</text>
</g>
<!-- 11&#45;&gt;21 -->
<g id="edge21" class="edge"><title>11&#45;&gt;21</title>
<path fill="none" stroke="black" d="M498.737,-74.937C498.847,-66.9865 498.982,-57.3134 499.107,-48.3127"/>
<polygon fill="black" stroke="black" points="502.608,-48.2468 499.247,-38.1992 495.609,-48.1496 502.608,-48.2468"/>
</g>
<!-- 22 -->
<g id="node23" class="node"><title>22</title>
<path fill="#f6d3ff" stroke="black" d="M598.5,-38C598.5,-38 560.5,-38 560.5,-38 554.5,-38 548.5,-32 548.5,-26 548.5,-26 548.5,-12 548.5,-12 548.5,-6 554.5,-0 560.5,-0 560.5,-0 598.5,-0 598.5,-0 604.5,-0 610.5,-6 610.5,-12 610.5,-12 610.5,-26 610.5,-26 610.5,-32 604.5,-38 598.5,-38"/>
<text text-anchor="middle" x="579.5" y="-22.8" font-family="Times,serif" font-size="14.00">forward</text>
<text text-anchor="middle" x="579.5" y="-7.8" font-family="Times,serif" font-size="14.00">DB1/C3</text>
</g>
<!-- 12&#45;&gt;22 -->
<g id="edge22" class="edge"><title>12&#45;&gt;22</title>
<path fill="none" stroke="black" d="M631.836,-73.8314C623.527,-65.2848 613.474,-54.9443 604.408,-45.6198"/>
<polygon fill="black" stroke="black" points="606.882,-43.1435 597.402,-38.4133 601.863,-48.023 606.882,-43.1435"/>
</g>
<!-- 23 -->
<g id="node24" class="node"><title>23</title>
<path fill="#debfe6" stroke="black" d="M676.5,-38C676.5,-38 640.5,-38 640.5,-38 634.5,-38 628.5,-32 628.5,-26 628.5,-26 628.5,-12 628.5,-12 628.5,-6 634.5,-0 640.5,-0 640.5,-0 676.5,-0 676.5,-0 682.5,-0 688.5,-6 688.5,-12 688.5,-12 688.5,-26 688.5,-26 688.5,-32 682.5,-38 676.5,-38"/>
<text text-anchor="middle" x="658.5" y="-22.8" font-family="Times,serif" font-size="14.00">merge</text>
<text text-anchor="middle" x="658.5" y="-7.8" font-family="Times,serif" font-size="14.00">EB0/C1</text>
</g>
<!-- 12&#45;&gt;23 -->
<g id="edge23" class="edge"><title>12&#45;&gt;23</title>
<path fill="none" stroke="black" d="M651.771,-73.8314C652.734,-66.131 653.878,-56.9743 654.948,-48.4166"/>
<polygon fill="black" stroke="black" points="658.431,-48.7702 656.198,-38.4133 651.485,-47.9019 658.431,-48.7702"/>
</g>
<!-- 24 -->
<g id="node25" class="node"><title>24</title>
<path fill="#f6d3ff" stroke="black" d="M756.5,-38C756.5,-38 718.5,-38 718.5,-38 712.5,-38 706.5,-32 706.5,-26 706.5,-26 706.5,-12 706.5,-12 706.5,-6 712.5,-0 718.5,-0 718.5,-0 756.5,-0 756.5,-0 762.5,-0 768.5,-6 768.5,-12 768.5,-12 768.5,-26 768.5,-26 768.5,-32 762.5,-38 756.5,-38"/>
<text text-anchor="middle" x="737.5" y="-22.8" font-family="Times,serif" font-size="14.00">forward</text>
<text text-anchor="middle" x="737.5" y="-7.8" font-family="Times,serif" font-size="14.00">DB0/C0</text>
</g>
<!-- 13&#45;&gt;24 -->
<g id="edge24" class="edge"><title>13&#45;&gt;24</title>
<path fill="none" stroke="black" d="M739.026,-74.937C738.805,-66.9865 738.536,-57.3134 738.286,-48.3127"/>
<polygon fill="black" stroke="black" points="741.782,-48.0981 738.006,-38.1992 734.785,-48.2925 741.782,-48.0981"/>
</g>
<!-- 25 -->
<g id="node26" class="node"><title>25</title>
<path fill="#f6d3ff" stroke="black" d="M836.5,-38C836.5,-38 798.5,-38 798.5,-38 792.5,-38 786.5,-32 786.5,-26 786.5,-26 786.5,-12 786.5,-12 786.5,-6 792.5,-0 798.5,-0 798.5,-0 836.5,-0 836.5,-0 842.5,-0 848.5,-6 848.5,-12 848.5,-12 848.5,-26 848.5,-26 848.5,-32 842.5,-38 836.5,-38"/>
<text text-anchor="middle" x="817.5" y="-22.8" font-family="Times,serif" font-size="14.00">forward</text>
<text text-anchor="middle" x="817.5" y="-7.8" font-family="Times,serif" font-size="14.00">DB0/C1</text>
</g>
<!-- 14&#45;&gt;25 -->
<g id="edge25" class="edge"><title>14&#45;&gt;25</title>
<path fill="none" stroke="black" d="M816.737,-74.937C816.847,-66.9865 816.982,-57.3134 817.107,-48.3127"/>
<polygon fill="black" stroke="black" points="820.608,-48.2468 817.247,-38.1992 813.609,-48.1496 820.608,-48.2468"/>
</g>
<!-- 26 -->
<g id="node27" class="node"><title>26</title>
<path fill="#f6d3ff" stroke="black" d="M916.5,-38C916.5,-38 878.5,-38 878.5,-38 872.5,-38 866.5,-32 866.5,-26 866.5,-26 866.5,-12 866.5,-12 866.5,-6 872.5,-0 878.5,-0 878.5,-0 916.5,-0 916.5,-0 922.5,-0 928.5,-6 928.5,-12 928.5,-12 928.5,-26 928.5,-26 928.5,-32 922.5,-38 916.5,-38"/>
<text text-anchor="middle" x="897.5" y="-22.8" font-family="Times,serif" font-size="14.00">forward</text>
<text text-anchor="middle" x="897.5" y="-7.8" font-family="Times,serif" font-size="14.00">DB0/C2</text>
</g>
<!-- 15&#45;&gt;26 -->
<g id="edge26" class="edge"><title>15&#45;&gt;26</title>
<path fill="none" stroke="black" d="M895.211,-74.937C895.542,-66.9865 895.945,-57.3134 896.32,-48.3127"/>
<polygon fill="black" stroke="black" points="899.822,-48.3362 896.742,-38.1992 892.828,-48.0448 899.822,-48.3362"/>
</g>
</g>
</svg>
