<?xml version="1.0" encoding="UTF-8" standalone="no"?>
<!DOCTYPE svg PUBLIC "-//W3C//DTD SVG 1.1//EN"
 "http://www.w3.org/Graphics/SVG/1.1/DTD/svg11.dtd">
<!-- Generated by graphviz version 2.38.0 (20140413.2041)
 -->
<!-- Title: %3 Pages: 1 -->
<svg width="5718pt" height="418pt"
 viewBox="0.00 0.00 5718.00 418.00" xmlns="http://www.w3.org/2000/svg" xmlns:xlink="http://www.w3.org/1999/xlink">
<g id="graph0" class="graph" transform="scale(1 1) rotate(0) translate(4 414)">
<title>%3</title>
<polygon fill="none" stroke="none" points="-4,4 -4,-414 5714,-414 5714,4 -4,4"/>
<!-- 0 -->
<g id="node1" class="node"><title>0</title>
<path fill="#ffd3d3" stroke="black" d="M2983,-410C2983,-410 2792,-410 2792,-410 2786,-410 2780,-404 2780,-398 2780,-398 2780,-369 2780,-369 2780,-363 2786,-357 2792,-357 2792,-357 2983,-357 2983,-357 2989,-357 2995,-363 2995,-369 2995,-369 2995,-398 2995,-398 2995,-404 2989,-410 2983,-410"/>
<text text-anchor="middle" x="2887.5" y="-394.8" font-family="Times,serif" font-size="14.00">net</text>
<text text-anchor="middle" x="2887.5" y="-379.8" font-family="Times,serif" font-size="14.00">k width: 3 &#160;&#160;log gamma2: &#45;4.966047</text>
<text text-anchor="middle" x="2887.5" y="-364.8" font-family="Times,serif" font-size="14.00">n kernels: 45</text>
</g>
<!-- 1 -->
<g id="node2" class="node"><title>1</title>
<path fill="#e9ffd3" stroke="black" d="M680.5,-313.5C680.5,-313.5 560.5,-313.5 560.5,-313.5 554.5,-313.5 548.5,-307.5 548.5,-301.5 548.5,-301.5 548.5,-287.5 548.5,-287.5 548.5,-281.5 554.5,-275.5 560.5,-275.5 560.5,-275.5 680.5,-275.5 680.5,-275.5 686.5,-275.5 692.5,-281.5 692.5,-287.5 692.5,-287.5 692.5,-301.5 692.5,-301.5 692.5,-307.5 686.5,-313.5 680.5,-313.5"/>
<text text-anchor="middle" x="620.5" y="-298.3" font-family="Times,serif" font-size="14.00">conv block 0</text>
<text text-anchor="middle" x="620.5" y="-283.3" font-family="Times,serif" font-size="14.00">log gamma1: 0.398953</text>
</g>
<!-- 0&#45;&gt;1 -->
<g id="edge1" class="edge"><title>0&#45;&gt;1</title>
<path fill="none" stroke="black" d="M2779.68,-378.362C2388.55,-363.352 1049.12,-311.949 702.782,-298.658"/>
<polygon fill="black" stroke="black" points="702.71,-295.152 692.583,-298.266 702.441,-302.147 702.71,-295.152"/>
</g>
<!-- 2 -->
<g id="node3" class="node"><title>2</title>
<path fill="#e9ffd3" stroke="black" d="M1868.5,-321C1868.5,-321 1666.5,-321 1666.5,-321 1660.5,-321 1654.5,-315 1654.5,-309 1654.5,-309 1654.5,-280 1654.5,-280 1654.5,-274 1660.5,-268 1666.5,-268 1666.5,-268 1868.5,-268 1868.5,-268 1874.5,-268 1880.5,-274 1880.5,-280 1880.5,-280 1880.5,-309 1880.5,-309 1880.5,-315 1874.5,-321 1868.5,-321"/>
<text text-anchor="middle" x="1767.5" y="-305.8" font-family="Times,serif" font-size="14.00">conv block 1</text>
<text text-anchor="middle" x="1767.5" y="-290.8" font-family="Times,serif" font-size="14.00">log gamma1: 0.398953 &#160;&#160;n kernels: 45</text>
<text text-anchor="middle" x="1767.5" y="-275.8" font-family="Times,serif" font-size="14.00">pool z: 1 &#160;&#160;spatial scale: 1</text>
</g>
<!-- 0&#45;&gt;2 -->
<g id="edge2" class="edge"><title>0&#45;&gt;2</title>
<path fill="none" stroke="black" d="M2779.86,-374.138C2570.9,-357.907 2111.52,-322.223 1890.74,-305.073"/>
<polygon fill="black" stroke="black" points="1890.97,-301.58 1880.73,-304.295 1890.43,-308.559 1890.97,-301.58"/>
</g>
<!-- 3 -->
<g id="node4" class="node"><title>3</title>
<path fill="#e9ffd3" stroke="black" d="M2988.5,-321C2988.5,-321 2786.5,-321 2786.5,-321 2780.5,-321 2774.5,-315 2774.5,-309 2774.5,-309 2774.5,-280 2774.5,-280 2774.5,-274 2780.5,-268 2786.5,-268 2786.5,-268 2988.5,-268 2988.5,-268 2994.5,-268 3000.5,-274 3000.5,-280 3000.5,-280 3000.5,-309 3000.5,-309 3000.5,-315 2994.5,-321 2988.5,-321"/>
<text text-anchor="middle" x="2887.5" y="-305.8" font-family="Times,serif" font-size="14.00">conv block 2</text>
<text text-anchor="middle" x="2887.5" y="-290.8" font-family="Times,serif" font-size="14.00">log gamma2: 0.792425 &#160;&#160;n kernels: 10</text>
<text text-anchor="middle" x="2887.5" y="-275.8" font-family="Times,serif" font-size="14.00">spatial scale: 2</text>
</g>
<!-- 0&#45;&gt;3 -->
<g id="edge3" class="edge"><title>0&#45;&gt;3</title>
<path fill="none" stroke="black" d="M2887.5,-356.868C2887.5,-348.886 2887.5,-339.932 2887.5,-331.384"/>
<polygon fill="black" stroke="black" points="2891,-331.25 2887.5,-321.25 2884,-331.25 2891,-331.25"/>
</g>
<!-- 4 -->
<g id="node5" class="node"><title>4</title>
<path fill="#e9ffd3" stroke="black" d="M4208,-321C4208,-321 3945,-321 3945,-321 3939,-321 3933,-315 3933,-309 3933,-309 3933,-280 3933,-280 3933,-274 3939,-268 3945,-268 3945,-268 4208,-268 4208,-268 4214,-268 4220,-274 4220,-280 4220,-280 4220,-309 4220,-309 4220,-315 4214,-321 4208,-321"/>
<text text-anchor="middle" x="4076.5" y="-305.8" font-family="Times,serif" font-size="14.00">conv block 3</text>
<text text-anchor="middle" x="4076.5" y="-290.8" font-family="Times,serif" font-size="14.00">log gamma1: 0.398953 &#160;&#160;log gamma2: &#45;1.177260</text>
<text text-anchor="middle" x="4076.5" y="-275.8" font-family="Times,serif" font-size="14.00">n kernels: 315 &#160;&#160;spatial scale: 3</text>
</g>
<!-- 0&#45;&gt;4 -->
<g id="edge4" class="edge"><title>0&#45;&gt;4</title>
<path fill="none" stroke="black" d="M2995.11,-374.626C3206.83,-359.134 3678.1,-324.651 3922.63,-306.759"/>
<polygon fill="black" stroke="black" points="3922.95,-310.245 3932.67,-306.024 3922.44,-303.263 3922.95,-310.245"/>
</g>
<!-- 5 -->
<g id="node6" class="node"><title>5</title>
<path fill="#e9ffd3" stroke="black" d="M4945,-312.5C4945,-312.5 4878,-312.5 4878,-312.5 4872,-312.5 4866,-306.5 4866,-300.5 4866,-300.5 4866,-288.5 4866,-288.5 4866,-282.5 4872,-276.5 4878,-276.5 4878,-276.5 4945,-276.5 4945,-276.5 4951,-276.5 4957,-282.5 4957,-288.5 4957,-288.5 4957,-300.5 4957,-300.5 4957,-306.5 4951,-312.5 4945,-312.5"/>
<text text-anchor="middle" x="4911.5" y="-290.8" font-family="Times,serif" font-size="14.00">path combine</text>
</g>
<!-- 0&#45;&gt;5 -->
<g id="edge5" class="edge"><title>0&#45;&gt;5</title>
<path fill="none" stroke="black" d="M2995.25,-377.869C3365.84,-361.939 4580.34,-309.735 4855.66,-297.9"/>
<polygon fill="black" stroke="black" points="4855.97,-301.39 4865.81,-297.464 4855.67,-294.397 4855.97,-301.39"/>
</g>
<!-- 6 -->
<g id="node7" class="node"><title>6</title>
<path fill="#d3ffff" stroke="black" d="M349,-202C349,-202 154,-202 154,-202 148,-202 142,-196 142,-190 142,-190 142,-176 142,-176 142,-170 148,-164 154,-164 154,-164 349,-164 349,-164 355,-164 361,-170 361,-176 361,-176 361,-190 361,-190 361,-196 355,-202 349,-202"/>
<text text-anchor="middle" x="251.5" y="-186.8" font-family="Times,serif" font-size="14.00">comp 0</text>
<text text-anchor="middle" x="251.5" y="-171.8" font-family="Times,serif" font-size="14.00">log gamma2: 1.479583 &#160;&#160;n kernels: 6</text>
</g>
<!-- 1&#45;&gt;6 -->
<g id="edge6" class="edge"><title>1&#45;&gt;6</title>
<path fill="none" stroke="black" d="M559.567,-275.418C494.305,-256.052 390.866,-225.357 322.102,-204.951"/>
<polygon fill="black" stroke="black" points="322.799,-201.507 312.216,-202.017 320.808,-208.218 322.799,-201.507"/>
</g>
<!-- 7 -->
<g id="node8" class="node"><title>7</title>
<path fill="#bfe6e6" stroke="black" d="M525.5,-201C525.5,-201 491.5,-201 491.5,-201 485.5,-201 479.5,-195 479.5,-189 479.5,-189 479.5,-177 479.5,-177 479.5,-171 485.5,-165 491.5,-165 491.5,-165 525.5,-165 525.5,-165 531.5,-165 537.5,-171 537.5,-177 537.5,-177 537.5,-189 537.5,-189 537.5,-195 531.5,-201 525.5,-201"/>
<text text-anchor="middle" x="508.5" y="-179.3" font-family="Times,serif" font-size="14.00">comp 1</text>
</g>
<!-- 1&#45;&gt;7 -->
<g id="edge7" class="edge"><title>1&#45;&gt;7</title>
<path fill="none" stroke="black" d="M602.005,-275.418C583.191,-257.024 553.924,-228.411 533.15,-208.1"/>
<polygon fill="black" stroke="black" points="535.513,-205.515 525.915,-201.027 530.619,-210.52 535.513,-205.515"/>
</g>
<!-- 8 -->
<g id="node9" class="node"><title>8</title>
<path fill="#abcece" stroke="black" d="M864,-209.5C864,-209.5 601,-209.5 601,-209.5 595,-209.5 589,-203.5 589,-197.5 589,-197.5 589,-168.5 589,-168.5 589,-162.5 595,-156.5 601,-156.5 601,-156.5 864,-156.5 864,-156.5 870,-156.5 876,-162.5 876,-168.5 876,-168.5 876,-197.5 876,-197.5 876,-203.5 870,-209.5 864,-209.5"/>
<text text-anchor="middle" x="732.5" y="-194.3" font-family="Times,serif" font-size="14.00">comp 2</text>
<text text-anchor="middle" x="732.5" y="-179.3" font-family="Times,serif" font-size="14.00">log gamma1: &#45;1.707531 &#160;&#160;log gamma2: 0.018779</text>
<text text-anchor="middle" x="732.5" y="-164.3" font-family="Times,serif" font-size="14.00">n kernels: 16</text>
</g>
<!-- 1&#45;&gt;8 -->
<g id="edge8" class="edge"><title>1&#45;&gt;8</title>
<path fill="none" stroke="black" d="M638.995,-275.418C655.192,-259.583 679.136,-236.172 698.74,-217.007"/>
<polygon fill="black" stroke="black" points="701.312,-219.387 706.015,-209.894 696.418,-214.382 701.312,-219.387"/>
</g>
<!-- 9 -->
<g id="node10" class="node"><title>9</title>
<path fill="#d3ffff" stroke="black" d="M1247,-202C1247,-202 1186,-202 1186,-202 1180,-202 1174,-196 1174,-190 1174,-190 1174,-176 1174,-176 1174,-170 1180,-164 1186,-164 1186,-164 1247,-164 1247,-164 1253,-164 1259,-170 1259,-176 1259,-176 1259,-190 1259,-190 1259,-196 1253,-202 1247,-202"/>
<text text-anchor="middle" x="1216.5" y="-186.8" font-family="Times,serif" font-size="14.00">comp 0</text>
<text text-anchor="middle" x="1216.5" y="-171.8" font-family="Times,serif" font-size="14.00">n kernels: &#45;2</text>
</g>
<!-- 2&#45;&gt;9 -->
<g id="edge9" class="edge"><title>2&#45;&gt;9</title>
<path fill="none" stroke="black" d="M1654.22,-281.315C1572.7,-271.323 1460.48,-255.049 1363.5,-232 1331.49,-224.392 1296.44,-213.068 1268.6,-203.33"/>
<polygon fill="black" stroke="black" points="1269.66,-199.993 1259.06,-199.96 1267.33,-206.593 1269.66,-199.993"/>
</g>
<!-- 10 -->
<g id="node11" class="node"><title>10</title>
<path fill="#bfe6e6" stroke="black" d="M1584.5,-202C1584.5,-202 1384.5,-202 1384.5,-202 1378.5,-202 1372.5,-196 1372.5,-190 1372.5,-190 1372.5,-176 1372.5,-176 1372.5,-170 1378.5,-164 1384.5,-164 1384.5,-164 1584.5,-164 1584.5,-164 1590.5,-164 1596.5,-170 1596.5,-176 1596.5,-176 1596.5,-190 1596.5,-190 1596.5,-196 1590.5,-202 1584.5,-202"/>
<text text-anchor="middle" x="1484.5" y="-186.8" font-family="Times,serif" font-size="14.00">comp 1</text>
<text text-anchor="middle" x="1484.5" y="-171.8" font-family="Times,serif" font-size="14.00">log gamma2: &#45;1.157980 &#160;&#160;n kernels: 6</text>
</g>
<!-- 2&#45;&gt;10 -->
<g id="edge10" class="edge"><title>2&#45;&gt;10</title>
<path fill="none" stroke="black" d="M1701.51,-267.965C1652.71,-249.085 1586.98,-223.651 1540.68,-205.739"/>
<polygon fill="black" stroke="black" points="1541.7,-202.38 1531.11,-202.036 1539.18,-208.908 1541.7,-202.38"/>
</g>
<!-- 11 -->
<g id="node12" class="node"><title>11</title>
<path fill="#abcece" stroke="black" d="M1868.5,-202C1868.5,-202 1666.5,-202 1666.5,-202 1660.5,-202 1654.5,-196 1654.5,-190 1654.5,-190 1654.5,-176 1654.5,-176 1654.5,-170 1660.5,-164 1666.5,-164 1666.5,-164 1868.5,-164 1868.5,-164 1874.5,-164 1880.5,-170 1880.5,-176 1880.5,-176 1880.5,-190 1880.5,-190 1880.5,-196 1874.5,-202 1868.5,-202"/>
<text text-anchor="middle" x="1767.5" y="-186.8" font-family="Times,serif" font-size="14.00">comp 2</text>
<text text-anchor="middle" x="1767.5" y="-171.8" font-family="Times,serif" font-size="14.00">log gamma2: 0.078686 &#160;&#160;n kernels: 16</text>
</g>
<!-- 2&#45;&gt;11 -->
<g id="edge11" class="edge"><title>2&#45;&gt;11</title>
<path fill="none" stroke="black" d="M1767.5,-267.827C1767.5,-251.18 1767.5,-229.482 1767.5,-212.332"/>
<polygon fill="black" stroke="black" points="1771,-212.327 1767.5,-202.327 1764,-212.327 1771,-212.327"/>
</g>
<!-- 12 -->
<g id="node13" class="node"><title>12</title>
<path fill="#97b6b6" stroke="black" d="M2105,-202C2105,-202 1966,-202 1966,-202 1960,-202 1954,-196 1954,-190 1954,-190 1954,-176 1954,-176 1954,-170 1960,-164 1966,-164 1966,-164 2105,-164 2105,-164 2111,-164 2117,-170 2117,-176 2117,-176 2117,-190 2117,-190 2117,-196 2111,-202 2105,-202"/>
<text text-anchor="middle" x="2035.5" y="-186.8" font-family="Times,serif" font-size="14.00">path end 1</text>
<text text-anchor="middle" x="2035.5" y="-171.8" font-family="Times,serif" font-size="14.00">k width: &#45;2 &#160;&#160;n kernels: &#45;45</text>
</g>
<!-- 2&#45;&gt;12 -->
<g id="edge12" class="edge"><title>2&#45;&gt;12</title>
<path fill="none" stroke="black" d="M1830,-267.965C1876.11,-249.125 1938.19,-223.757 1982.02,-205.851"/>
<polygon fill="black" stroke="black" points="1983.42,-209.058 1991.36,-202.036 1980.78,-202.578 1983.42,-209.058"/>
</g>
<!-- 13 -->
<g id="node14" class="node"><title>13</title>
<path fill="#d3ffff" stroke="black" d="M2506.5,-201C2506.5,-201 2472.5,-201 2472.5,-201 2466.5,-201 2460.5,-195 2460.5,-189 2460.5,-189 2460.5,-177 2460.5,-177 2460.5,-171 2466.5,-165 2472.5,-165 2472.5,-165 2506.5,-165 2506.5,-165 2512.5,-165 2518.5,-171 2518.5,-177 2518.5,-177 2518.5,-189 2518.5,-189 2518.5,-195 2512.5,-201 2506.5,-201"/>
<text text-anchor="middle" x="2489.5" y="-179.3" font-family="Times,serif" font-size="14.00">comp 0</text>
</g>
<!-- 3&#45;&gt;13 -->
<g id="edge13" class="edge"><title>3&#45;&gt;13</title>
<path fill="none" stroke="black" d="M2774.29,-273.981C2721.75,-263.656 2658.82,-249.471 2603.5,-232 2577.81,-223.888 2549.93,-212.201 2528.17,-202.391"/>
<polygon fill="black" stroke="black" points="2529.49,-199.145 2518.94,-198.176 2526.58,-205.513 2529.49,-199.145"/>
</g>
<!-- 14 -->
<g id="node15" class="node"><title>14</title>
<path fill="#bfe6e6" stroke="black" d="M2892.5,-209.5C2892.5,-209.5 2624.5,-209.5 2624.5,-209.5 2618.5,-209.5 2612.5,-203.5 2612.5,-197.5 2612.5,-197.5 2612.5,-168.5 2612.5,-168.5 2612.5,-162.5 2618.5,-156.5 2624.5,-156.5 2624.5,-156.5 2892.5,-156.5 2892.5,-156.5 2898.5,-156.5 2904.5,-162.5 2904.5,-168.5 2904.5,-168.5 2904.5,-197.5 2904.5,-197.5 2904.5,-203.5 2898.5,-209.5 2892.5,-209.5"/>
<text text-anchor="middle" x="2758.5" y="-194.3" font-family="Times,serif" font-size="14.00">comp 1</text>
<text text-anchor="middle" x="2758.5" y="-179.3" font-family="Times,serif" font-size="14.00">log gamma1: &#45;1.036191 &#160;&#160;log gamma2: &#45;0.778145</text>
<text text-anchor="middle" x="2758.5" y="-164.3" font-family="Times,serif" font-size="14.00">n kernels: &#45;6</text>
</g>
<!-- 3&#45;&gt;14 -->
<g id="edge14" class="edge"><title>3&#45;&gt;14</title>
<path fill="none" stroke="black" d="M2857.26,-267.827C2839.06,-252.382 2815.74,-232.588 2796.33,-216.113"/>
<polygon fill="black" stroke="black" points="2798.44,-213.315 2788.56,-209.512 2793.91,-218.652 2798.44,-213.315"/>
</g>
<!-- 15 -->
<g id="node16" class="node"><title>15</title>
<path fill="#abcece" stroke="black" d="M3076.5,-202C3076.5,-202 2956.5,-202 2956.5,-202 2950.5,-202 2944.5,-196 2944.5,-190 2944.5,-190 2944.5,-176 2944.5,-176 2944.5,-170 2950.5,-164 2956.5,-164 2956.5,-164 3076.5,-164 3076.5,-164 3082.5,-164 3088.5,-170 3088.5,-176 3088.5,-176 3088.5,-190 3088.5,-190 3088.5,-196 3082.5,-202 3076.5,-202"/>
<text text-anchor="middle" x="3016.5" y="-186.8" font-family="Times,serif" font-size="14.00">comp 2</text>
<text text-anchor="middle" x="3016.5" y="-171.8" font-family="Times,serif" font-size="14.00">log gamma2: 0.504102</text>
</g>
<!-- 3&#45;&gt;15 -->
<g id="edge15" class="edge"><title>3&#45;&gt;15</title>
<path fill="none" stroke="black" d="M2917.74,-267.827C2938.65,-250.081 2966.32,-226.594 2987.05,-208.996"/>
<polygon fill="black" stroke="black" points="2989.55,-211.467 2994.91,-202.327 2985.02,-206.13 2989.55,-211.467"/>
</g>
<!-- 16 -->
<g id="node17" class="node"><title>16</title>
<path fill="#97b6b6" stroke="black" d="M3355,-202C3355,-202 3216,-202 3216,-202 3210,-202 3204,-196 3204,-190 3204,-190 3204,-176 3204,-176 3204,-170 3210,-164 3216,-164 3216,-164 3355,-164 3355,-164 3361,-164 3367,-170 3367,-176 3367,-176 3367,-190 3367,-190 3367,-196 3361,-202 3355,-202"/>
<text text-anchor="middle" x="3285.5" y="-186.8" font-family="Times,serif" font-size="14.00">path end 2</text>
<text text-anchor="middle" x="3285.5" y="-171.8" font-family="Times,serif" font-size="14.00">k width: &#45;2 &#160;&#160;n kernels: &#45;10</text>
</g>
<!-- 3&#45;&gt;16 -->
<g id="edge16" class="edge"><title>3&#45;&gt;16</title>
<path fill="none" stroke="black" d="M2980.31,-267.965C3050.23,-248.73 3144.87,-222.691 3210.13,-204.735"/>
<polygon fill="black" stroke="black" points="3211.23,-208.063 3219.95,-202.036 3209.38,-201.314 3211.23,-208.063"/>
</g>
<!-- 17 -->
<g id="node18" class="node"><title>17</title>
<path fill="#d3ffff" stroke="black" d="M3835.5,-201C3835.5,-201 3801.5,-201 3801.5,-201 3795.5,-201 3789.5,-195 3789.5,-189 3789.5,-189 3789.5,-177 3789.5,-177 3789.5,-171 3795.5,-165 3801.5,-165 3801.5,-165 3835.5,-165 3835.5,-165 3841.5,-165 3847.5,-171 3847.5,-177 3847.5,-177 3847.5,-189 3847.5,-189 3847.5,-195 3841.5,-201 3835.5,-201"/>
<text text-anchor="middle" x="3818.5" y="-179.3" font-family="Times,serif" font-size="14.00">comp 0</text>
</g>
<!-- 4&#45;&gt;17 -->
<g id="edge17" class="edge"><title>4&#45;&gt;17</title>
<path fill="none" stroke="black" d="M4016.34,-267.965C3967.16,-247.093 3899.1,-218.21 3856.99,-200.336"/>
<polygon fill="black" stroke="black" points="3858.22,-197.054 3847.64,-196.369 3855.48,-203.498 3858.22,-197.054"/>
</g>
<!-- 18 -->
<g id="node19" class="node"><title>18</title>
<path fill="#bfe6e6" stroke="black" d="M4065.5,-202C4065.5,-202 3991.5,-202 3991.5,-202 3985.5,-202 3979.5,-196 3979.5,-190 3979.5,-190 3979.5,-176 3979.5,-176 3979.5,-170 3985.5,-164 3991.5,-164 3991.5,-164 4065.5,-164 4065.5,-164 4071.5,-164 4077.5,-170 4077.5,-176 4077.5,-176 4077.5,-190 4077.5,-190 4077.5,-196 4071.5,-202 4065.5,-202"/>
<text text-anchor="middle" x="4028.5" y="-186.8" font-family="Times,serif" font-size="14.00">comp 1</text>
<text text-anchor="middle" x="4028.5" y="-171.8" font-family="Times,serif" font-size="14.00">n kernels: &#45;232</text>
</g>
<!-- 4&#45;&gt;18 -->
<g id="edge18" class="edge"><title>4&#45;&gt;18</title>
<path fill="none" stroke="black" d="M4065.25,-267.827C4057.88,-251.023 4048.26,-229.072 4040.71,-211.847"/>
<polygon fill="black" stroke="black" points="4043.75,-210.08 4036.53,-202.327 4037.34,-212.891 4043.75,-210.08"/>
</g>
<!-- 19 -->
<g id="node20" class="node"><title>19</title>
<path fill="#abcece" stroke="black" d="M4141.5,-201C4141.5,-201 4107.5,-201 4107.5,-201 4101.5,-201 4095.5,-195 4095.5,-189 4095.5,-189 4095.5,-177 4095.5,-177 4095.5,-171 4101.5,-165 4107.5,-165 4107.5,-165 4141.5,-165 4141.5,-165 4147.5,-165 4153.5,-171 4153.5,-177 4153.5,-177 4153.5,-189 4153.5,-189 4153.5,-195 4147.5,-201 4141.5,-201"/>
<text text-anchor="middle" x="4124.5" y="-179.3" font-family="Times,serif" font-size="14.00">comp 2</text>
</g>
<!-- 4&#45;&gt;19 -->
<g id="edge19" class="edge"><title>4&#45;&gt;19</title>
<path fill="none" stroke="black" d="M4087.75,-267.827C4095.26,-250.706 4105.11,-228.242 4112.72,-210.878"/>
<polygon fill="black" stroke="black" points="4116.1,-211.886 4116.91,-201.322 4109.69,-209.076 4116.1,-211.886"/>
</g>
<!-- 20 -->
<g id="node21" class="node"><title>20</title>
<path fill="#97b6b6" stroke="black" d="M4217.5,-201C4217.5,-201 4183.5,-201 4183.5,-201 4177.5,-201 4171.5,-195 4171.5,-189 4171.5,-189 4171.5,-177 4171.5,-177 4171.5,-171 4177.5,-165 4183.5,-165 4183.5,-165 4217.5,-165 4217.5,-165 4223.5,-165 4229.5,-171 4229.5,-177 4229.5,-177 4229.5,-189 4229.5,-189 4229.5,-195 4223.5,-201 4217.5,-201"/>
<text text-anchor="middle" x="4200.5" y="-179.3" font-family="Times,serif" font-size="14.00">comp 3</text>
</g>
<!-- 4&#45;&gt;20 -->
<g id="edge20" class="edge"><title>4&#45;&gt;20</title>
<path fill="none" stroke="black" d="M4117.27,-267.827C4132.21,-257.54 4148.81,-245.038 4162.5,-232 4169.62,-225.218 4176.56,-217.067 4182.52,-209.424"/>
<polygon fill="black" stroke="black" points="4185.33,-211.508 4188.56,-201.418 4179.74,-207.292 4185.33,-211.508"/>
</g>
<!-- 21 -->
<g id="node22" class="node"><title>21</title>
<path fill="#839e9e" stroke="black" d="M4405.5,-202C4405.5,-202 4259.5,-202 4259.5,-202 4253.5,-202 4247.5,-196 4247.5,-190 4247.5,-190 4247.5,-176 4247.5,-176 4247.5,-170 4253.5,-164 4259.5,-164 4259.5,-164 4405.5,-164 4405.5,-164 4411.5,-164 4417.5,-170 4417.5,-176 4417.5,-176 4417.5,-190 4417.5,-190 4417.5,-196 4411.5,-202 4405.5,-202"/>
<text text-anchor="middle" x="4332.5" y="-186.8" font-family="Times,serif" font-size="14.00">path end 3</text>
<text text-anchor="middle" x="4332.5" y="-171.8" font-family="Times,serif" font-size="14.00">k width: &#45;2 &#160;&#160;n kernels: &#45;315</text>
</g>
<!-- 4&#45;&gt;21 -->
<g id="edge21" class="edge"><title>4&#45;&gt;21</title>
<path fill="none" stroke="black" d="M4148.96,-267.919C4177.18,-257.455 4209.63,-244.807 4238.5,-232 4255.72,-224.361 4274.27,-215.115 4290.31,-206.785"/>
<polygon fill="black" stroke="black" points="4292.2,-209.748 4299.43,-202.006 4288.95,-203.547 4292.2,-209.748"/>
</g>
<!-- 22 -->
<g id="node23" class="node"><title>22</title>
<path fill="#d3ffff" stroke="black" d="M4729,-232C4729,-232 4448,-232 4448,-232 4442,-232 4436,-226 4436,-220 4436,-220 4436,-146 4436,-146 4436,-140 4442,-134 4448,-134 4448,-134 4729,-134 4729,-134 4735,-134 4741,-140 4741,-146 4741,-146 4741,-220 4741,-220 4741,-226 4735,-232 4729,-232"/>
<text text-anchor="middle" x="4588.5" y="-216.8" font-family="Times,serif" font-size="14.00">forward</text>
<text text-anchor="middle" x="4588.5" y="-201.8" font-family="Times,serif" font-size="14.00">CB0/C2</text>
<text text-anchor="middle" x="4588.5" y="-186.8" font-family="Times,serif" font-size="14.00">dilation rate: 1 &#160;&#160;k width: 3</text>
<text text-anchor="middle" x="4588.5" y="-171.8" font-family="Times,serif" font-size="14.00">log gamma1: &#45;11.000000 &#160;&#160;log gamma2: &#45;11.000000</text>
<text text-anchor="middle" x="4588.5" y="-156.8" font-family="Times,serif" font-size="14.00">log lambda1: &#45;11.000000 &#160;&#160;log lambda2: &#45;11.000000</text>
<text text-anchor="middle" x="4588.5" y="-141.8" font-family="Times,serif" font-size="14.00">n kernels: 64</text>
</g>
<!-- 5&#45;&gt;22 -->
<g id="edge22" class="edge"><title>5&#45;&gt;22</title>
<path fill="none" stroke="black" d="M4865.91,-278.044C4832.79,-266.816 4785.92,-250.928 4740.12,-235.402"/>
<polygon fill="black" stroke="black" points="4740.97,-231.991 4730.37,-232.096 4738.72,-238.621 4740.97,-231.991"/>
</g>
<!-- 23 -->
<g id="node24" class="node"><title>23</title>
<path fill="#bfe6e6" stroke="black" d="M5052,-232C5052,-232 4771,-232 4771,-232 4765,-232 4759,-226 4759,-220 4759,-220 4759,-146 4759,-146 4759,-140 4765,-134 4771,-134 4771,-134 5052,-134 5052,-134 5058,-134 5064,-140 5064,-146 5064,-146 5064,-220 5064,-220 5064,-226 5058,-232 5052,-232"/>
<text text-anchor="middle" x="4911.5" y="-216.8" font-family="Times,serif" font-size="14.00">residual 1</text>
<text text-anchor="middle" x="4911.5" y="-201.8" font-family="Times,serif" font-size="14.00">CB1/PE1</text>
<text text-anchor="middle" x="4911.5" y="-186.8" font-family="Times,serif" font-size="14.00">dilation rate: 1 &#160;&#160;k width: 3</text>
<text text-anchor="middle" x="4911.5" y="-171.8" font-family="Times,serif" font-size="14.00">log gamma1: &#45;11.000000 &#160;&#160;log gamma2: &#45;11.000000</text>
<text text-anchor="middle" x="4911.5" y="-156.8" font-family="Times,serif" font-size="14.00">log lambda1: &#45;11.000000 &#160;&#160;log lambda2: &#45;11.000000</text>
<text text-anchor="middle" x="4911.5" y="-141.8" font-family="Times,serif" font-size="14.00">n kernels: 64</text>
</g>
<!-- 5&#45;&gt;23 -->
<g id="edge23" class="edge"><title>5&#45;&gt;23</title>
<path fill="none" stroke="black" d="M4911.5,-276.391C4911.5,-266.993 4911.5,-254.728 4911.5,-242.22"/>
<polygon fill="black" stroke="black" points="4915,-242.188 4911.5,-232.188 4908,-242.188 4915,-242.188"/>
</g>
<!-- 24 -->
<g id="node25" class="node"><title>24</title>
<path fill="#abcece" stroke="black" d="M5375,-232C5375,-232 5094,-232 5094,-232 5088,-232 5082,-226 5082,-220 5082,-220 5082,-146 5082,-146 5082,-140 5088,-134 5094,-134 5094,-134 5375,-134 5375,-134 5381,-134 5387,-140 5387,-146 5387,-146 5387,-220 5387,-220 5387,-226 5381,-232 5375,-232"/>
<text text-anchor="middle" x="5234.5" y="-216.8" font-family="Times,serif" font-size="14.00">residual 2</text>
<text text-anchor="middle" x="5234.5" y="-201.8" font-family="Times,serif" font-size="14.00">CB2/PE2</text>
<text text-anchor="middle" x="5234.5" y="-186.8" font-family="Times,serif" font-size="14.00">dilation rate: 1 &#160;&#160;k width: 3</text>
<text text-anchor="middle" x="5234.5" y="-171.8" font-family="Times,serif" font-size="14.00">log gamma1: &#45;11.000000 &#160;&#160;log gamma2: &#45;11.000000</text>
<text text-anchor="middle" x="5234.5" y="-156.8" font-family="Times,serif" font-size="14.00">log lambda1: &#45;11.000000 &#160;&#160;log lambda2: &#45;11.000000</text>
<text text-anchor="middle" x="5234.5" y="-141.8" font-family="Times,serif" font-size="14.00">n kernels: 64</text>
</g>
<!-- 5&#45;&gt;24 -->
<g id="edge24" class="edge"><title>5&#45;&gt;24</title>
<path fill="none" stroke="black" d="M4957.09,-278.044C4990.21,-266.816 5037.08,-250.928 5082.88,-235.402"/>
<polygon fill="black" stroke="black" points="5084.28,-238.621 5092.63,-232.096 5082.03,-231.991 5084.28,-238.621"/>
</g>
<!-- 25 -->
<g id="node26" class="node"><title>25</title>
<path fill="#97b6b6" stroke="black" d="M5698,-232C5698,-232 5417,-232 5417,-232 5411,-232 5405,-226 5405,-220 5405,-220 5405,-146 5405,-146 5405,-140 5411,-134 5417,-134 5417,-134 5698,-134 5698,-134 5704,-134 5710,-140 5710,-146 5710,-146 5710,-220 5710,-220 5710,-226 5704,-232 5698,-232"/>
<text text-anchor="middle" x="5557.5" y="-216.8" font-family="Times,serif" font-size="14.00">residual 3</text>
<text text-anchor="middle" x="5557.5" y="-201.8" font-family="Times,serif" font-size="14.00">CB3/PE3</text>
<text text-anchor="middle" x="5557.5" y="-186.8" font-family="Times,serif" font-size="14.00">dilation rate: 1 &#160;&#160;k width: 3</text>
<text text-anchor="middle" x="5557.5" y="-171.8" font-family="Times,serif" font-size="14.00">log gamma1: &#45;11.000000 &#160;&#160;log gamma2: &#45;11.000000</text>
<text text-anchor="middle" x="5557.5" y="-156.8" font-family="Times,serif" font-size="14.00">log lambda1: &#45;11.000000 &#160;&#160;log lambda2: &#45;11.000000</text>
<text text-anchor="middle" x="5557.5" y="-141.8" font-family="Times,serif" font-size="14.00">n kernels: 64</text>
</g>
<!-- 5&#45;&gt;25 -->
<g id="edge25" class="edge"><title>5&#45;&gt;25</title>
<path fill="none" stroke="black" d="M4957.28,-290.164C5041.99,-283.457 5228.86,-266.154 5394.73,-232.073"/>
<polygon fill="black" stroke="black" points="5395.53,-235.48 5404.61,-230.016 5394.11,-228.626 5395.53,-235.48"/>
</g>
<!-- 26 -->
<g id="node27" class="node"><title>26</title>
<path fill="#e9d3ff" stroke="black" d="M293,-98C293,-98 12,-98 12,-98 6,-98 0,-92 0,-86 0,-86 0,-12 0,-12 0,-6 6,-0 12,-0 12,-0 293,-0 293,-0 299,-0 305,-6 305,-12 305,-12 305,-86 305,-86 305,-92 299,-98 293,-98"/>
<text text-anchor="middle" x="152.5" y="-82.8" font-family="Times,serif" font-size="14.00">forward</text>
<text text-anchor="middle" x="152.5" y="-67.8" font-family="Times,serif" font-size="14.00">input</text>
<text text-anchor="middle" x="152.5" y="-52.8" font-family="Times,serif" font-size="14.00">dilation rate: 1 &#160;&#160;k width: 3</text>
<text text-anchor="middle" x="152.5" y="-37.8" font-family="Times,serif" font-size="14.00">log gamma1: &#45;11.000000 &#160;&#160;log gamma2: &#45;11.000000</text>
<text text-anchor="middle" x="152.5" y="-22.8" font-family="Times,serif" font-size="14.00">log lambda1: &#45;11.000000 &#160;&#160;log lambda2: &#45;11.000000</text>
<text text-anchor="middle" x="152.5" y="-7.8" font-family="Times,serif" font-size="14.00">n kernels: 64</text>
</g>
<!-- 6&#45;&gt;26 -->
<g id="edge26" class="edge"><title>6&#45;&gt;26</title>
<path fill="none" stroke="black" d="M237.942,-163.923C226.769,-149.025 210.294,-127.059 194.786,-106.381"/>
<polygon fill="black" stroke="black" points="197.475,-104.134 188.675,-98.2336 191.875,-108.334 197.475,-104.134"/>
</g>
<!-- 27 -->
<g id="node28" class="node"><title>27</title>
<path fill="#e9d3ff" stroke="black" d="M616,-98C616,-98 335,-98 335,-98 329,-98 323,-92 323,-86 323,-86 323,-12 323,-12 323,-6 329,-0 335,-0 335,-0 616,-0 616,-0 622,-0 628,-6 628,-12 628,-12 628,-86 628,-86 628,-92 622,-98 616,-98"/>
<text text-anchor="middle" x="475.5" y="-82.8" font-family="Times,serif" font-size="14.00">forward</text>
<text text-anchor="middle" x="475.5" y="-67.8" font-family="Times,serif" font-size="14.00">CB0/C0</text>
<text text-anchor="middle" x="475.5" y="-52.8" font-family="Times,serif" font-size="14.00">dilation rate: 1 &#160;&#160;k width: 3</text>
<text text-anchor="middle" x="475.5" y="-37.8" font-family="Times,serif" font-size="14.00">log gamma1: &#45;11.000000 &#160;&#160;log gamma2: &#45;11.000000</text>
<text text-anchor="middle" x="475.5" y="-22.8" font-family="Times,serif" font-size="14.00">log lambda1: &#45;11.000000 &#160;&#160;log lambda2: &#45;11.000000</text>
<text text-anchor="middle" x="475.5" y="-7.8" font-family="Times,serif" font-size="14.00">n kernels: 64</text>
</g>
<!-- 7&#45;&gt;27 -->
<g id="edge27" class="edge"><title>7&#45;&gt;27</title>
<path fill="none" stroke="black" d="M504.186,-164.743C500.567,-150.27 495.183,-128.73 490.052,-108.21"/>
<polygon fill="black" stroke="black" points="493.384,-107.106 487.563,-98.2533 486.593,-108.804 493.384,-107.106"/>
</g>
<!-- 28 -->
<g id="node29" class="node"><title>28</title>
<path fill="#e9d3ff" stroke="black" d="M939,-98C939,-98 658,-98 658,-98 652,-98 646,-92 646,-86 646,-86 646,-12 646,-12 646,-6 652,-0 658,-0 658,-0 939,-0 939,-0 945,-0 951,-6 951,-12 951,-12 951,-86 951,-86 951,-92 945,-98 939,-98"/>
<text text-anchor="middle" x="798.5" y="-82.8" font-family="Times,serif" font-size="14.00">forward</text>
<text text-anchor="middle" x="798.5" y="-67.8" font-family="Times,serif" font-size="14.00">CB0/C1</text>
<text text-anchor="middle" x="798.5" y="-52.8" font-family="Times,serif" font-size="14.00">dilation rate: 1 &#160;&#160;k width: 3</text>
<text text-anchor="middle" x="798.5" y="-37.8" font-family="Times,serif" font-size="14.00">log gamma1: &#45;11.000000 &#160;&#160;log gamma2: &#45;11.000000</text>
<text text-anchor="middle" x="798.5" y="-22.8" font-family="Times,serif" font-size="14.00">log lambda1: &#45;11.000000 &#160;&#160;log lambda2: &#45;11.000000</text>
<text text-anchor="middle" x="798.5" y="-7.8" font-family="Times,serif" font-size="14.00">n kernels: 64</text>
</g>
<!-- 8&#45;&gt;28 -->
<g id="edge28" class="edge"><title>8&#45;&gt;28</title>
<path fill="none" stroke="black" d="M745.382,-156.236C752.346,-142.309 761.242,-124.516 769.754,-107.492"/>
<polygon fill="black" stroke="black" points="773.087,-108.652 774.429,-98.1423 766.826,-105.521 773.087,-108.652"/>
</g>
<!-- 29 -->
<g id="node30" class="node"><title>29</title>
<path fill="#e9d3ff" stroke="black" d="M1262,-98C1262,-98 981,-98 981,-98 975,-98 969,-92 969,-86 969,-86 969,-12 969,-12 969,-6 975,-0 981,-0 981,-0 1262,-0 1262,-0 1268,-0 1274,-6 1274,-12 1274,-12 1274,-86 1274,-86 1274,-92 1268,-98 1262,-98"/>
<text text-anchor="middle" x="1121.5" y="-82.8" font-family="Times,serif" font-size="14.00">forward</text>
<text text-anchor="middle" x="1121.5" y="-67.8" font-family="Times,serif" font-size="14.00">input</text>
<text text-anchor="middle" x="1121.5" y="-52.8" font-family="Times,serif" font-size="14.00">dilation rate: 1 &#160;&#160;k width: 3</text>
<text text-anchor="middle" x="1121.5" y="-37.8" font-family="Times,serif" font-size="14.00">log gamma1: &#45;11.000000 &#160;&#160;log gamma2: &#45;11.000000</text>
<text text-anchor="middle" x="1121.5" y="-22.8" font-family="Times,serif" font-size="14.00">log lambda1: &#45;11.000000 &#160;&#160;log lambda2: &#45;11.000000</text>
<text text-anchor="middle" x="1121.5" y="-7.8" font-family="Times,serif" font-size="14.00">n kernels: 64</text>
</g>
<!-- 9&#45;&gt;29 -->
<g id="edge29" class="edge"><title>9&#45;&gt;29</title>
<path fill="none" stroke="black" d="M1203.49,-163.923C1192.77,-149.025 1176.96,-127.059 1162.08,-106.381"/>
<polygon fill="black" stroke="black" points="1164.9,-104.306 1156.21,-98.2336 1159.21,-108.395 1164.9,-104.306"/>
</g>
<!-- 30 -->
<g id="node31" class="node"><title>30</title>
<path fill="#e9d3ff" stroke="black" d="M1585,-98C1585,-98 1304,-98 1304,-98 1298,-98 1292,-92 1292,-86 1292,-86 1292,-12 1292,-12 1292,-6 1298,-0 1304,-0 1304,-0 1585,-0 1585,-0 1591,-0 1597,-6 1597,-12 1597,-12 1597,-86 1597,-86 1597,-92 1591,-98 1585,-98"/>
<text text-anchor="middle" x="1444.5" y="-82.8" font-family="Times,serif" font-size="14.00">forward</text>
<text text-anchor="middle" x="1444.5" y="-67.8" font-family="Times,serif" font-size="14.00">CB1/C0</text>
<text text-anchor="middle" x="1444.5" y="-52.8" font-family="Times,serif" font-size="14.00">dilation rate: 1 &#160;&#160;k width: 3</text>
<text text-anchor="middle" x="1444.5" y="-37.8" font-family="Times,serif" font-size="14.00">log gamma1: &#45;11.000000 &#160;&#160;log gamma2: &#45;11.000000</text>
<text text-anchor="middle" x="1444.5" y="-22.8" font-family="Times,serif" font-size="14.00">log lambda1: &#45;11.000000 &#160;&#160;log lambda2: &#45;11.000000</text>
<text text-anchor="middle" x="1444.5" y="-7.8" font-family="Times,serif" font-size="14.00">n kernels: 64</text>
</g>
<!-- 10&#45;&gt;30 -->
<g id="edge30" class="edge"><title>10&#45;&gt;30</title>
<path fill="none" stroke="black" d="M1479.02,-163.923C1474.63,-149.42 1468.2,-128.221 1462.08,-108.03"/>
<polygon fill="black" stroke="black" points="1465.37,-106.789 1459.12,-98.2336 1458.67,-108.819 1465.37,-106.789"/>
</g>
<!-- 31 -->
<g id="node32" class="node"><title>31</title>
<path fill="#e9d3ff" stroke="black" d="M1908,-98C1908,-98 1627,-98 1627,-98 1621,-98 1615,-92 1615,-86 1615,-86 1615,-12 1615,-12 1615,-6 1621,-0 1627,-0 1627,-0 1908,-0 1908,-0 1914,-0 1920,-6 1920,-12 1920,-12 1920,-86 1920,-86 1920,-92 1914,-98 1908,-98"/>
<text text-anchor="middle" x="1767.5" y="-82.8" font-family="Times,serif" font-size="14.00">forward</text>
<text text-anchor="middle" x="1767.5" y="-67.8" font-family="Times,serif" font-size="14.00">CB1/C1</text>
<text text-anchor="middle" x="1767.5" y="-52.8" font-family="Times,serif" font-size="14.00">dilation rate: 1 &#160;&#160;k width: 3</text>
<text text-anchor="middle" x="1767.5" y="-37.8" font-family="Times,serif" font-size="14.00">log gamma1: &#45;11.000000 &#160;&#160;log gamma2: &#45;11.000000</text>
<text text-anchor="middle" x="1767.5" y="-22.8" font-family="Times,serif" font-size="14.00">log lambda1: &#45;11.000000 &#160;&#160;log lambda2: &#45;11.000000</text>
<text text-anchor="middle" x="1767.5" y="-7.8" font-family="Times,serif" font-size="14.00">n kernels: 64</text>
</g>
<!-- 11&#45;&gt;31 -->
<g id="edge31" class="edge"><title>11&#45;&gt;31</title>
<path fill="none" stroke="black" d="M1767.5,-163.923C1767.5,-149.486 1767.5,-128.413 1767.5,-108.306"/>
<polygon fill="black" stroke="black" points="1771,-108.234 1767.5,-98.2336 1764,-108.234 1771,-108.234"/>
</g>
<!-- 32 -->
<g id="node33" class="node"><title>32</title>
<path fill="#e9d3ff" stroke="black" d="M2231,-98C2231,-98 1950,-98 1950,-98 1944,-98 1938,-92 1938,-86 1938,-86 1938,-12 1938,-12 1938,-6 1944,-0 1950,-0 1950,-0 2231,-0 2231,-0 2237,-0 2243,-6 2243,-12 2243,-12 2243,-86 2243,-86 2243,-92 2237,-98 2231,-98"/>
<text text-anchor="middle" x="2090.5" y="-82.8" font-family="Times,serif" font-size="14.00">forward</text>
<text text-anchor="middle" x="2090.5" y="-67.8" font-family="Times,serif" font-size="14.00">CB1/C2</text>
<text text-anchor="middle" x="2090.5" y="-52.8" font-family="Times,serif" font-size="14.00">dilation rate: 1 &#160;&#160;k width: 3</text>
<text text-anchor="middle" x="2090.5" y="-37.8" font-family="Times,serif" font-size="14.00">log gamma1: &#45;11.000000 &#160;&#160;log gamma2: &#45;11.000000</text>
<text text-anchor="middle" x="2090.5" y="-22.8" font-family="Times,serif" font-size="14.00">log lambda1: &#45;11.000000 &#160;&#160;log lambda2: &#45;11.000000</text>
<text text-anchor="middle" x="2090.5" y="-7.8" font-family="Times,serif" font-size="14.00">n kernels: 64</text>
</g>
<!-- 12&#45;&gt;32 -->
<g id="edge32" class="edge"><title>12&#45;&gt;32</title>
<path fill="none" stroke="black" d="M2043.03,-163.923C2049.13,-149.289 2058.07,-127.835 2066.55,-107.48"/>
<polygon fill="black" stroke="black" points="2069.79,-108.811 2070.4,-98.2336 2063.33,-106.118 2069.79,-108.811"/>
</g>
<!-- 33 -->
<g id="node34" class="node"><title>33</title>
<path fill="#e9d3ff" stroke="black" d="M2554,-98C2554,-98 2273,-98 2273,-98 2267,-98 2261,-92 2261,-86 2261,-86 2261,-12 2261,-12 2261,-6 2267,-0 2273,-0 2273,-0 2554,-0 2554,-0 2560,-0 2566,-6 2566,-12 2566,-12 2566,-86 2566,-86 2566,-92 2560,-98 2554,-98"/>
<text text-anchor="middle" x="2413.5" y="-82.8" font-family="Times,serif" font-size="14.00">forward</text>
<text text-anchor="middle" x="2413.5" y="-67.8" font-family="Times,serif" font-size="14.00">input</text>
<text text-anchor="middle" x="2413.5" y="-52.8" font-family="Times,serif" font-size="14.00">dilation rate: 1 &#160;&#160;k width: 3</text>
<text text-anchor="middle" x="2413.5" y="-37.8" font-family="Times,serif" font-size="14.00">log gamma1: &#45;11.000000 &#160;&#160;log gamma2: &#45;11.000000</text>
<text text-anchor="middle" x="2413.5" y="-22.8" font-family="Times,serif" font-size="14.00">log lambda1: &#45;11.000000 &#160;&#160;log lambda2: &#45;11.000000</text>
<text text-anchor="middle" x="2413.5" y="-7.8" font-family="Times,serif" font-size="14.00">n kernels: 64</text>
</g>
<!-- 13&#45;&gt;33 -->
<g id="edge33" class="edge"><title>13&#45;&gt;33</title>
<path fill="none" stroke="black" d="M2479.56,-164.743C2471.08,-150.007 2458.38,-127.945 2446.37,-107.092"/>
<polygon fill="black" stroke="black" points="2449.31,-105.173 2441.28,-98.2533 2443.24,-108.666 2449.31,-105.173"/>
</g>
<!-- 34 -->
<g id="node35" class="node"><title>34</title>
<path fill="#e9d3ff" stroke="black" d="M2877,-98C2877,-98 2596,-98 2596,-98 2590,-98 2584,-92 2584,-86 2584,-86 2584,-12 2584,-12 2584,-6 2590,-0 2596,-0 2596,-0 2877,-0 2877,-0 2883,-0 2889,-6 2889,-12 2889,-12 2889,-86 2889,-86 2889,-92 2883,-98 2877,-98"/>
<text text-anchor="middle" x="2736.5" y="-82.8" font-family="Times,serif" font-size="14.00">forward</text>
<text text-anchor="middle" x="2736.5" y="-67.8" font-family="Times,serif" font-size="14.00">CB2/C0</text>
<text text-anchor="middle" x="2736.5" y="-52.8" font-family="Times,serif" font-size="14.00">dilation rate: 1 &#160;&#160;k width: 3</text>
<text text-anchor="middle" x="2736.5" y="-37.8" font-family="Times,serif" font-size="14.00">log gamma1: &#45;11.000000 &#160;&#160;log gamma2: &#45;11.000000</text>
<text text-anchor="middle" x="2736.5" y="-22.8" font-family="Times,serif" font-size="14.00">log lambda1: &#45;11.000000 &#160;&#160;log lambda2: &#45;11.000000</text>
<text text-anchor="middle" x="2736.5" y="-7.8" font-family="Times,serif" font-size="14.00">n kernels: 64</text>
</g>
<!-- 14&#45;&gt;34 -->
<g id="edge34" class="edge"><title>14&#45;&gt;34</title>
<path fill="none" stroke="black" d="M2754.21,-156.236C2751.93,-142.567 2749.03,-125.174 2746.24,-108.438"/>
<polygon fill="black" stroke="black" points="2749.62,-107.431 2744.52,-98.1423 2742.72,-108.582 2749.62,-107.431"/>
</g>
<!-- 35 -->
<g id="node36" class="node"><title>35</title>
<path fill="#e9d3ff" stroke="black" d="M3200,-98C3200,-98 2919,-98 2919,-98 2913,-98 2907,-92 2907,-86 2907,-86 2907,-12 2907,-12 2907,-6 2913,-0 2919,-0 2919,-0 3200,-0 3200,-0 3206,-0 3212,-6 3212,-12 3212,-12 3212,-86 3212,-86 3212,-92 3206,-98 3200,-98"/>
<text text-anchor="middle" x="3059.5" y="-82.8" font-family="Times,serif" font-size="14.00">forward</text>
<text text-anchor="middle" x="3059.5" y="-67.8" font-family="Times,serif" font-size="14.00">CB2/C1</text>
<text text-anchor="middle" x="3059.5" y="-52.8" font-family="Times,serif" font-size="14.00">dilation rate: 1 &#160;&#160;k width: 3</text>
<text text-anchor="middle" x="3059.5" y="-37.8" font-family="Times,serif" font-size="14.00">log gamma1: &#45;11.000000 &#160;&#160;log gamma2: &#45;11.000000</text>
<text text-anchor="middle" x="3059.5" y="-22.8" font-family="Times,serif" font-size="14.00">log lambda1: &#45;11.000000 &#160;&#160;log lambda2: &#45;11.000000</text>
<text text-anchor="middle" x="3059.5" y="-7.8" font-family="Times,serif" font-size="14.00">n kernels: 64</text>
</g>
<!-- 15&#45;&gt;35 -->
<g id="edge35" class="edge"><title>15&#45;&gt;35</title>
<path fill="none" stroke="black" d="M3022.39,-163.923C3027.13,-149.355 3034.08,-128.028 3040.69,-107.755"/>
<polygon fill="black" stroke="black" points="3044.02,-108.826 3043.79,-98.2336 3037.36,-106.658 3044.02,-108.826"/>
</g>
<!-- 36 -->
<g id="node37" class="node"><title>36</title>
<path fill="#e9d3ff" stroke="black" d="M3523,-98C3523,-98 3242,-98 3242,-98 3236,-98 3230,-92 3230,-86 3230,-86 3230,-12 3230,-12 3230,-6 3236,-0 3242,-0 3242,-0 3523,-0 3523,-0 3529,-0 3535,-6 3535,-12 3535,-12 3535,-86 3535,-86 3535,-92 3529,-98 3523,-98"/>
<text text-anchor="middle" x="3382.5" y="-82.8" font-family="Times,serif" font-size="14.00">forward</text>
<text text-anchor="middle" x="3382.5" y="-67.8" font-family="Times,serif" font-size="14.00">CB2/C2</text>
<text text-anchor="middle" x="3382.5" y="-52.8" font-family="Times,serif" font-size="14.00">dilation rate: 1 &#160;&#160;k width: 3</text>
<text text-anchor="middle" x="3382.5" y="-37.8" font-family="Times,serif" font-size="14.00">log gamma1: &#45;11.000000 &#160;&#160;log gamma2: &#45;11.000000</text>
<text text-anchor="middle" x="3382.5" y="-22.8" font-family="Times,serif" font-size="14.00">log lambda1: &#45;11.000000 &#160;&#160;log lambda2: &#45;11.000000</text>
<text text-anchor="middle" x="3382.5" y="-7.8" font-family="Times,serif" font-size="14.00">n kernels: 64</text>
</g>
<!-- 16&#45;&gt;36 -->
<g id="edge36" class="edge"><title>16&#45;&gt;36</title>
<path fill="none" stroke="black" d="M3298.78,-163.923C3309.73,-149.025 3325.87,-127.059 3341.07,-106.381"/>
<polygon fill="black" stroke="black" points="3343.95,-108.364 3347.06,-98.2336 3338.31,-104.219 3343.95,-108.364"/>
</g>
<!-- 37 -->
<g id="node38" class="node"><title>37</title>
<path fill="#e9d3ff" stroke="black" d="M3846,-98C3846,-98 3565,-98 3565,-98 3559,-98 3553,-92 3553,-86 3553,-86 3553,-12 3553,-12 3553,-6 3559,-0 3565,-0 3565,-0 3846,-0 3846,-0 3852,-0 3858,-6 3858,-12 3858,-12 3858,-86 3858,-86 3858,-92 3852,-98 3846,-98"/>
<text text-anchor="middle" x="3705.5" y="-82.8" font-family="Times,serif" font-size="14.00">forward</text>
<text text-anchor="middle" x="3705.5" y="-67.8" font-family="Times,serif" font-size="14.00">input</text>
<text text-anchor="middle" x="3705.5" y="-52.8" font-family="Times,serif" font-size="14.00">dilation rate: 1 &#160;&#160;k width: 3</text>
<text text-anchor="middle" x="3705.5" y="-37.8" font-family="Times,serif" font-size="14.00">log gamma1: &#45;11.000000 &#160;&#160;log gamma2: &#45;11.000000</text>
<text text-anchor="middle" x="3705.5" y="-22.8" font-family="Times,serif" font-size="14.00">log lambda1: &#45;11.000000 &#160;&#160;log lambda2: &#45;11.000000</text>
<text text-anchor="middle" x="3705.5" y="-7.8" font-family="Times,serif" font-size="14.00">n kernels: 64</text>
</g>
<!-- 17&#45;&gt;37 -->
<g id="edge37" class="edge"><title>17&#45;&gt;37</title>
<path fill="none" stroke="black" d="M3803.73,-164.743C3790.89,-149.744 3771.55,-127.155 3753.42,-105.976"/>
<polygon fill="black" stroke="black" points="3755.97,-103.574 3746.81,-98.2533 3750.65,-108.126 3755.97,-103.574"/>
</g>
<!-- 38 -->
<g id="node39" class="node"><title>38</title>
<path fill="#e9d3ff" stroke="black" d="M4169,-98C4169,-98 3888,-98 3888,-98 3882,-98 3876,-92 3876,-86 3876,-86 3876,-12 3876,-12 3876,-6 3882,-0 3888,-0 3888,-0 4169,-0 4169,-0 4175,-0 4181,-6 4181,-12 4181,-12 4181,-86 4181,-86 4181,-92 4175,-98 4169,-98"/>
<text text-anchor="middle" x="4028.5" y="-82.8" font-family="Times,serif" font-size="14.00">forward</text>
<text text-anchor="middle" x="4028.5" y="-67.8" font-family="Times,serif" font-size="14.00">CB3/C0</text>
<text text-anchor="middle" x="4028.5" y="-52.8" font-family="Times,serif" font-size="14.00">dilation rate: 1 &#160;&#160;k width: 3</text>
<text text-anchor="middle" x="4028.5" y="-37.8" font-family="Times,serif" font-size="14.00">log gamma1: &#45;11.000000 &#160;&#160;log gamma2: &#45;11.000000</text>
<text text-anchor="middle" x="4028.5" y="-22.8" font-family="Times,serif" font-size="14.00">log lambda1: &#45;11.000000 &#160;&#160;log lambda2: &#45;11.000000</text>
<text text-anchor="middle" x="4028.5" y="-7.8" font-family="Times,serif" font-size="14.00">n kernels: 64</text>
</g>
<!-- 18&#45;&gt;38 -->
<g id="edge38" class="edge"><title>18&#45;&gt;38</title>
<path fill="none" stroke="black" d="M4028.5,-163.923C4028.5,-149.486 4028.5,-128.413 4028.5,-108.306"/>
<polygon fill="black" stroke="black" points="4032,-108.234 4028.5,-98.2336 4025,-108.234 4032,-108.234"/>
</g>
<!-- 39 -->
<g id="node40" class="node"><title>39</title>
<path fill="#e9d3ff" stroke="black" d="M4492,-98C4492,-98 4211,-98 4211,-98 4205,-98 4199,-92 4199,-86 4199,-86 4199,-12 4199,-12 4199,-6 4205,-0 4211,-0 4211,-0 4492,-0 4492,-0 4498,-0 4504,-6 4504,-12 4504,-12 4504,-86 4504,-86 4504,-92 4498,-98 4492,-98"/>
<text text-anchor="middle" x="4351.5" y="-82.8" font-family="Times,serif" font-size="14.00">forward</text>
<text text-anchor="middle" x="4351.5" y="-67.8" font-family="Times,serif" font-size="14.00">CB3/C1</text>
<text text-anchor="middle" x="4351.5" y="-52.8" font-family="Times,serif" font-size="14.00">dilation rate: 1 &#160;&#160;k width: 3</text>
<text text-anchor="middle" x="4351.5" y="-37.8" font-family="Times,serif" font-size="14.00">log gamma1: &#45;11.000000 &#160;&#160;log gamma2: &#45;11.000000</text>
<text text-anchor="middle" x="4351.5" y="-22.8" font-family="Times,serif" font-size="14.00">log lambda1: &#45;11.000000 &#160;&#160;log lambda2: &#45;11.000000</text>
<text text-anchor="middle" x="4351.5" y="-7.8" font-family="Times,serif" font-size="14.00">n kernels: 64</text>
</g>
<!-- 19&#45;&gt;39 -->
<g id="edge39" class="edge"><title>19&#45;&gt;39</title>
<path fill="none" stroke="black" d="M4135.12,-164.717C4141.95,-154.714 4151.58,-142.468 4162.5,-134 4177.48,-122.381 4194.32,-111.982 4211.62,-102.794"/>
<polygon fill="black" stroke="black" points="4213.42,-105.801 4220.69,-98.0989 4210.2,-99.5833 4213.42,-105.801"/>
</g>
<!-- 40 -->
<g id="node41" class="node"><title>40</title>
<path fill="#e9d3ff" stroke="black" d="M4815,-98C4815,-98 4534,-98 4534,-98 4528,-98 4522,-92 4522,-86 4522,-86 4522,-12 4522,-12 4522,-6 4528,-0 4534,-0 4534,-0 4815,-0 4815,-0 4821,-0 4827,-6 4827,-12 4827,-12 4827,-86 4827,-86 4827,-92 4821,-98 4815,-98"/>
<text text-anchor="middle" x="4674.5" y="-82.8" font-family="Times,serif" font-size="14.00">forward</text>
<text text-anchor="middle" x="4674.5" y="-67.8" font-family="Times,serif" font-size="14.00">CB3/C2</text>
<text text-anchor="middle" x="4674.5" y="-52.8" font-family="Times,serif" font-size="14.00">dilation rate: 1 &#160;&#160;k width: 3</text>
<text text-anchor="middle" x="4674.5" y="-37.8" font-family="Times,serif" font-size="14.00">log gamma1: &#45;11.000000 &#160;&#160;log gamma2: &#45;11.000000</text>
<text text-anchor="middle" x="4674.5" y="-22.8" font-family="Times,serif" font-size="14.00">log lambda1: &#45;11.000000 &#160;&#160;log lambda2: &#45;11.000000</text>
<text text-anchor="middle" x="4674.5" y="-7.8" font-family="Times,serif" font-size="14.00">n kernels: 64</text>
</g>
<!-- 20&#45;&gt;40 -->
<g id="edge40" class="edge"><title>20&#45;&gt;40</title>
<path fill="none" stroke="black" d="M4209.43,-164.948C4215.99,-154.232 4225.93,-141.131 4238.5,-134 4342.52,-75.0064 4389.84,-120.96 4511.55,-98.0173"/>
<polygon fill="black" stroke="black" points="4512.49,-101.399 4521.61,-95.9984 4511.11,-94.5356 4512.49,-101.399"/>
</g>
<!-- 41 -->
<g id="node42" class="node"><title>41</title>
<path fill="#e9d3ff" stroke="black" d="M5138,-98C5138,-98 4857,-98 4857,-98 4851,-98 4845,-92 4845,-86 4845,-86 4845,-12 4845,-12 4845,-6 4851,-0 4857,-0 4857,-0 5138,-0 5138,-0 5144,-0 5150,-6 5150,-12 5150,-12 5150,-86 5150,-86 5150,-92 5144,-98 5138,-98"/>
<text text-anchor="middle" x="4997.5" y="-82.8" font-family="Times,serif" font-size="14.00">forward</text>
<text text-anchor="middle" x="4997.5" y="-67.8" font-family="Times,serif" font-size="14.00">CB3/C3</text>
<text text-anchor="middle" x="4997.5" y="-52.8" font-family="Times,serif" font-size="14.00">dilation rate: 1 &#160;&#160;k width: 3</text>
<text text-anchor="middle" x="4997.5" y="-37.8" font-family="Times,serif" font-size="14.00">log gamma1: &#45;11.000000 &#160;&#160;log gamma2: &#45;11.000000</text>
<text text-anchor="middle" x="4997.5" y="-22.8" font-family="Times,serif" font-size="14.00">log lambda1: &#45;11.000000 &#160;&#160;log lambda2: &#45;11.000000</text>
<text text-anchor="middle" x="4997.5" y="-7.8" font-family="Times,serif" font-size="14.00">n kernels: 64</text>
</g>
<!-- 21&#45;&gt;41 -->
<g id="edge41" class="edge"><title>21&#45;&gt;41</title>
<path fill="none" stroke="black" d="M4360.94,-163.829C4378.99,-153.236 4403.25,-140.683 4426.5,-134 4598.71,-84.4888 4654.23,-130.37 4834.56,-98.0418"/>
<polygon fill="black" stroke="black" points="4835.45,-101.437 4844.64,-96.1768 4834.17,-94.5542 4835.45,-101.437"/>
</g>
</g>
</svg>
