<?xml version="1.0" encoding="UTF-8" standalone="no"?>
<!DOCTYPE svg PUBLIC "-//W3C//DTD SVG 1.1//EN"
 "http://www.w3.org/Graphics/SVG/1.1/DTD/svg11.dtd">
<!-- Generated by graphviz version 2.38.0 (20140413.2041)
 -->
<!-- Title: %3 Pages: 1 -->
<svg width="4804pt" height="418pt"
 viewBox="0.00 0.00 4804.00 418.00" xmlns="http://www.w3.org/2000/svg" xmlns:xlink="http://www.w3.org/1999/xlink">
<g id="graph0" class="graph" transform="scale(1 1) rotate(0) translate(4 414)">
<title>%3</title>
<polygon fill="none" stroke="none" points="-4,4 -4,-414 4800,-414 4800,4 -4,4"/>
<!-- 0 -->
<g id="node1" class="node"><title>0</title>
<path fill="#ffd3d3" stroke="black" d="M2785,-410C2785,-410 2594,-410 2594,-410 2588,-410 2582,-404 2582,-398 2582,-398 2582,-369 2582,-369 2582,-363 2588,-357 2594,-357 2594,-357 2785,-357 2785,-357 2791,-357 2797,-363 2797,-369 2797,-369 2797,-398 2797,-398 2797,-404 2791,-410 2785,-410"/>
<text text-anchor="middle" x="2689.5" y="-394.8" font-family="Times,serif" font-size="14.00">net</text>
<text text-anchor="middle" x="2689.5" y="-379.8" font-family="Times,serif" font-size="14.00">k width: 3 &#160;&#160;log gamma2: &#45;9.496221</text>
<text text-anchor="middle" x="2689.5" y="-364.8" font-family="Times,serif" font-size="14.00">n kernels: 123</text>
</g>
<!-- 1 -->
<g id="node2" class="node"><title>1</title>
<path fill="#e9ffd3" stroke="black" d="M652,-313.5C652,-313.5 589,-313.5 589,-313.5 583,-313.5 577,-307.5 577,-301.5 577,-301.5 577,-287.5 577,-287.5 577,-281.5 583,-275.5 589,-275.5 589,-275.5 652,-275.5 652,-275.5 658,-275.5 664,-281.5 664,-287.5 664,-287.5 664,-301.5 664,-301.5 664,-307.5 658,-313.5 652,-313.5"/>
<text text-anchor="middle" x="620.5" y="-298.3" font-family="Times,serif" font-size="14.00">conv block 0</text>
<text text-anchor="middle" x="620.5" y="-283.3" font-family="Times,serif" font-size="14.00">n kernels: 5</text>
</g>
<!-- 0&#45;&gt;1 -->
<g id="edge1" class="edge"><title>0&#45;&gt;1</title>
<path fill="none" stroke="black" d="M2581.9,-377.975C2204.57,-362.109 949.423,-309.331 674.163,-297.756"/>
<polygon fill="black" stroke="black" points="674.173,-294.254 664.035,-297.331 673.879,-301.248 674.173,-294.254"/>
</g>
<!-- 2 -->
<g id="node3" class="node"><title>2</title>
<path fill="#e9ffd3" stroke="black" d="M2021,-321C2021,-321 1808,-321 1808,-321 1802,-321 1796,-315 1796,-309 1796,-309 1796,-280 1796,-280 1796,-274 1802,-268 1808,-268 1808,-268 2021,-268 2021,-268 2027,-268 2033,-274 2033,-280 2033,-280 2033,-309 2033,-309 2033,-315 2027,-321 2021,-321"/>
<text text-anchor="middle" x="1914.5" y="-305.8" font-family="Times,serif" font-size="14.00">conv block 1</text>
<text text-anchor="middle" x="1914.5" y="-290.8" font-family="Times,serif" font-size="14.00">log gamma1: &#45;1.637002 &#160;&#160;n kernels: 123</text>
<text text-anchor="middle" x="1914.5" y="-275.8" font-family="Times,serif" font-size="14.00">pool z: 1 &#160;&#160;spatial scale: 1</text>
</g>
<!-- 0&#45;&gt;2 -->
<g id="edge2" class="edge"><title>0&#45;&gt;2</title>
<path fill="none" stroke="black" d="M2581.74,-370.403C2440.76,-354.577 2194,-326.876 2043.31,-309.961"/>
<polygon fill="black" stroke="black" points="2043.41,-306.449 2033.08,-308.812 2042.63,-313.406 2043.41,-306.449"/>
</g>
<!-- 3 -->
<g id="node4" class="node"><title>3</title>
<path fill="#e9ffd3" stroke="black" d="M3497,-321C3497,-321 3234,-321 3234,-321 3228,-321 3222,-315 3222,-309 3222,-309 3222,-280 3222,-280 3222,-274 3228,-268 3234,-268 3234,-268 3497,-268 3497,-268 3503,-268 3509,-274 3509,-280 3509,-280 3509,-309 3509,-309 3509,-315 3503,-321 3497,-321"/>
<text text-anchor="middle" x="3365.5" y="-305.8" font-family="Times,serif" font-size="14.00">conv block 2</text>
<text text-anchor="middle" x="3365.5" y="-290.8" font-family="Times,serif" font-size="14.00">log gamma1: 0.031824 &#160;&#160;log gamma2: &#45;0.343186</text>
<text text-anchor="middle" x="3365.5" y="-275.8" font-family="Times,serif" font-size="14.00">n kernels: 369 &#160;&#160;spatial scale: 2</text>
</g>
<!-- 0&#45;&gt;3 -->
<g id="edge3" class="edge"><title>0&#45;&gt;3</title>
<path fill="none" stroke="black" d="M2797.36,-368.618C2909.24,-354.22 3085.17,-331.578 3211.62,-315.304"/>
<polygon fill="black" stroke="black" points="3212.31,-318.744 3221.78,-313.996 3211.42,-311.802 3212.31,-318.744"/>
</g>
<!-- 4 -->
<g id="node5" class="node"><title>4</title>
<path fill="#e9ffd3" stroke="black" d="M4192,-312.5C4192,-312.5 4125,-312.5 4125,-312.5 4119,-312.5 4113,-306.5 4113,-300.5 4113,-300.5 4113,-288.5 4113,-288.5 4113,-282.5 4119,-276.5 4125,-276.5 4125,-276.5 4192,-276.5 4192,-276.5 4198,-276.5 4204,-282.5 4204,-288.5 4204,-288.5 4204,-300.5 4204,-300.5 4204,-306.5 4198,-312.5 4192,-312.5"/>
<text text-anchor="middle" x="4158.5" y="-290.8" font-family="Times,serif" font-size="14.00">path combine</text>
</g>
<!-- 0&#45;&gt;4 -->
<g id="edge4" class="edge"><title>0&#45;&gt;4</title>
<path fill="none" stroke="black" d="M2797.22,-376.12C3088.53,-358.868 3884.64,-311.719 4102.66,-298.807"/>
<polygon fill="black" stroke="black" points="4103.12,-302.286 4112.9,-298.201 4102.71,-295.298 4103.12,-302.286"/>
</g>
<!-- 5 -->
<g id="node6" class="node"><title>5</title>
<path fill="#d3ffff" stroke="black" d="M309.5,-201C309.5,-201 275.5,-201 275.5,-201 269.5,-201 263.5,-195 263.5,-189 263.5,-189 263.5,-177 263.5,-177 263.5,-171 269.5,-165 275.5,-165 275.5,-165 309.5,-165 309.5,-165 315.5,-165 321.5,-171 321.5,-177 321.5,-177 321.5,-189 321.5,-189 321.5,-195 315.5,-201 309.5,-201"/>
<text text-anchor="middle" x="292.5" y="-179.3" font-family="Times,serif" font-size="14.00">comp 0</text>
</g>
<!-- 1&#45;&gt;5 -->
<g id="edge5" class="edge"><title>1&#45;&gt;5</title>
<path fill="none" stroke="black" d="M576.944,-278.959C512.566,-257.467 393,-217.551 331.406,-196.988"/>
<polygon fill="black" stroke="black" points="332.271,-193.587 321.678,-193.741 330.055,-200.227 332.271,-193.587"/>
</g>
<!-- 6 -->
<g id="node7" class="node"><title>6</title>
<path fill="#bfe6e6" stroke="black" d="M525.5,-201C525.5,-201 491.5,-201 491.5,-201 485.5,-201 479.5,-195 479.5,-189 479.5,-189 479.5,-177 479.5,-177 479.5,-171 485.5,-165 491.5,-165 491.5,-165 525.5,-165 525.5,-165 531.5,-165 537.5,-171 537.5,-177 537.5,-177 537.5,-189 537.5,-189 537.5,-195 531.5,-201 525.5,-201"/>
<text text-anchor="middle" x="508.5" y="-179.3" font-family="Times,serif" font-size="14.00">comp 1</text>
</g>
<!-- 1&#45;&gt;6 -->
<g id="edge6" class="edge"><title>1&#45;&gt;6</title>
<path fill="none" stroke="black" d="M602.005,-275.418C583.191,-257.024 553.924,-228.411 533.15,-208.1"/>
<polygon fill="black" stroke="black" points="535.513,-205.515 525.915,-201.027 530.619,-210.52 535.513,-205.515"/>
</g>
<!-- 7 -->
<g id="node8" class="node"><title>7</title>
<path fill="#abcece" stroke="black" d="M861,-202C861,-202 602,-202 602,-202 596,-202 590,-196 590,-190 590,-190 590,-176 590,-176 590,-170 596,-164 602,-164 602,-164 861,-164 861,-164 867,-164 873,-170 873,-176 873,-176 873,-190 873,-190 873,-196 867,-202 861,-202"/>
<text text-anchor="middle" x="731.5" y="-186.8" font-family="Times,serif" font-size="14.00">comp 2</text>
<text text-anchor="middle" x="731.5" y="-171.8" font-family="Times,serif" font-size="14.00">log gamma1: 0.777238 &#160;&#160;log gamma2: 1.238739</text>
</g>
<!-- 1&#45;&gt;7 -->
<g id="edge7" class="edge"><title>1&#45;&gt;7</title>
<path fill="none" stroke="black" d="M638.829,-275.418C657.146,-257.349 685.461,-229.417 705.972,-209.183"/>
<polygon fill="black" stroke="black" points="708.482,-211.623 713.143,-202.109 703.566,-206.64 708.482,-211.623"/>
</g>
<!-- 8 -->
<g id="node9" class="node"><title>8</title>
<path fill="#d3ffff" stroke="black" d="M1307,-202C1307,-202 1048,-202 1048,-202 1042,-202 1036,-196 1036,-190 1036,-190 1036,-176 1036,-176 1036,-170 1042,-164 1048,-164 1048,-164 1307,-164 1307,-164 1313,-164 1319,-170 1319,-176 1319,-176 1319,-190 1319,-190 1319,-196 1313,-202 1307,-202"/>
<text text-anchor="middle" x="1177.5" y="-186.8" font-family="Times,serif" font-size="14.00">comp 0</text>
<text text-anchor="middle" x="1177.5" y="-171.8" font-family="Times,serif" font-size="14.00">log gamma1: 1.175268 &#160;&#160;log gamma2: 0.425444</text>
</g>
<!-- 2&#45;&gt;8 -->
<g id="edge8" class="edge"><title>2&#45;&gt;8</title>
<path fill="none" stroke="black" d="M1795.81,-283.573C1688.03,-273.649 1524.94,-256.352 1384.5,-232 1341.96,-224.623 1295.05,-213.959 1256.65,-204.554"/>
<polygon fill="black" stroke="black" points="1257.12,-201.065 1246.58,-202.066 1255.45,-207.861 1257.12,-201.065"/>
</g>
<!-- 9 -->
<g id="node10" class="node"><title>9</title>
<path fill="#bfe6e6" stroke="black" d="M1623.5,-202C1623.5,-202 1405.5,-202 1405.5,-202 1399.5,-202 1393.5,-196 1393.5,-190 1393.5,-190 1393.5,-176 1393.5,-176 1393.5,-170 1399.5,-164 1405.5,-164 1405.5,-164 1623.5,-164 1623.5,-164 1629.5,-164 1635.5,-170 1635.5,-176 1635.5,-176 1635.5,-190 1635.5,-190 1635.5,-196 1629.5,-202 1623.5,-202"/>
<text text-anchor="middle" x="1514.5" y="-186.8" font-family="Times,serif" font-size="14.00">comp 1</text>
<text text-anchor="middle" x="1514.5" y="-171.8" font-family="Times,serif" font-size="14.00">log gamma1: &#45;0.333013 &#160;&#160;n kernels: &#45;118</text>
</g>
<!-- 2&#45;&gt;9 -->
<g id="edge9" class="edge"><title>2&#45;&gt;9</title>
<path fill="none" stroke="black" d="M1821.22,-267.965C1750.96,-248.73 1655.84,-222.691 1590.24,-204.735"/>
<polygon fill="black" stroke="black" points="1590.95,-201.3 1580.38,-202.036 1589.1,-208.052 1590.95,-201.3"/>
</g>
<!-- 10 -->
<g id="node11" class="node"><title>10</title>
<path fill="#abcece" stroke="black" d="M1855.5,-202C1855.5,-202 1735.5,-202 1735.5,-202 1729.5,-202 1723.5,-196 1723.5,-190 1723.5,-190 1723.5,-176 1723.5,-176 1723.5,-170 1729.5,-164 1735.5,-164 1735.5,-164 1855.5,-164 1855.5,-164 1861.5,-164 1867.5,-170 1867.5,-176 1867.5,-176 1867.5,-190 1867.5,-190 1867.5,-196 1861.5,-202 1855.5,-202"/>
<text text-anchor="middle" x="1795.5" y="-186.8" font-family="Times,serif" font-size="14.00">comp 2</text>
<text text-anchor="middle" x="1795.5" y="-171.8" font-family="Times,serif" font-size="14.00">log gamma2: 0.603205</text>
</g>
<!-- 2&#45;&gt;10 -->
<g id="edge10" class="edge"><title>2&#45;&gt;10</title>
<path fill="none" stroke="black" d="M1886.6,-267.827C1867.4,-250.16 1842.01,-226.801 1822.92,-209.23"/>
<polygon fill="black" stroke="black" points="1825.15,-206.523 1815.42,-202.327 1820.41,-211.674 1825.15,-206.523"/>
</g>
<!-- 11 -->
<g id="node12" class="node"><title>11</title>
<path fill="#97b6b6" stroke="black" d="M2143.5,-202C2143.5,-202 1925.5,-202 1925.5,-202 1919.5,-202 1913.5,-196 1913.5,-190 1913.5,-190 1913.5,-176 1913.5,-176 1913.5,-170 1919.5,-164 1925.5,-164 1925.5,-164 2143.5,-164 2143.5,-164 2149.5,-164 2155.5,-170 2155.5,-176 2155.5,-176 2155.5,-190 2155.5,-190 2155.5,-196 2149.5,-202 2143.5,-202"/>
<text text-anchor="middle" x="2034.5" y="-186.8" font-family="Times,serif" font-size="14.00">comp 3</text>
<text text-anchor="middle" x="2034.5" y="-171.8" font-family="Times,serif" font-size="14.00">log gamma2: &#45;0.503779 &#160;&#160;n kernels: &#45;118</text>
</g>
<!-- 2&#45;&gt;11 -->
<g id="edge11" class="edge"><title>2&#45;&gt;11</title>
<path fill="none" stroke="black" d="M1942.63,-267.827C1962,-250.16 1987.59,-226.801 2006.85,-209.23"/>
<polygon fill="black" stroke="black" points="2009.39,-211.653 2014.42,-202.327 2004.67,-206.482 2009.39,-211.653"/>
</g>
<!-- 12 -->
<g id="node13" class="node"><title>12</title>
<path fill="#839e9e" stroke="black" d="M2409.5,-202C2409.5,-202 2263.5,-202 2263.5,-202 2257.5,-202 2251.5,-196 2251.5,-190 2251.5,-190 2251.5,-176 2251.5,-176 2251.5,-170 2257.5,-164 2263.5,-164 2263.5,-164 2409.5,-164 2409.5,-164 2415.5,-164 2421.5,-170 2421.5,-176 2421.5,-176 2421.5,-190 2421.5,-190 2421.5,-196 2415.5,-202 2409.5,-202"/>
<text text-anchor="middle" x="2336.5" y="-186.8" font-family="Times,serif" font-size="14.00">path end 1</text>
<text text-anchor="middle" x="2336.5" y="-171.8" font-family="Times,serif" font-size="14.00">k width: &#45;2 &#160;&#160;n kernels: &#45;118</text>
</g>
<!-- 2&#45;&gt;12 -->
<g id="edge12" class="edge"><title>2&#45;&gt;12</title>
<path fill="none" stroke="black" d="M2021.43,-267.964C2065.78,-257.175 2117.7,-244.283 2164.5,-232 2197.24,-223.407 2233.34,-213.412 2263.98,-204.775"/>
<polygon fill="black" stroke="black" points="2265.05,-208.109 2273.72,-202.022 2263.15,-201.373 2265.05,-208.109"/>
</g>
<!-- 13 -->
<g id="node14" class="node"><title>13</title>
<path fill="#d3ffff" stroke="black" d="M2897,-202C2897,-202 2634,-202 2634,-202 2628,-202 2622,-196 2622,-190 2622,-190 2622,-176 2622,-176 2622,-170 2628,-164 2634,-164 2634,-164 2897,-164 2897,-164 2903,-164 2909,-170 2909,-176 2909,-176 2909,-190 2909,-190 2909,-196 2903,-202 2897,-202"/>
<text text-anchor="middle" x="2765.5" y="-186.8" font-family="Times,serif" font-size="14.00">comp 0</text>
<text text-anchor="middle" x="2765.5" y="-171.8" font-family="Times,serif" font-size="14.00">log gamma1: &#45;0.931023 &#160;&#160;log gamma2: 0.975766</text>
</g>
<!-- 3&#45;&gt;13 -->
<g id="edge13" class="edge"><title>3&#45;&gt;13</title>
<path fill="none" stroke="black" d="M3221.65,-276.372C3140.72,-265.728 3038.04,-250.54 2947.5,-232 2910.64,-224.453 2870.12,-213.985 2836.69,-204.751"/>
<polygon fill="black" stroke="black" points="2837.58,-201.365 2827.01,-202.056 2835.71,-208.109 2837.58,-201.365"/>
</g>
<!-- 14 -->
<g id="node15" class="node"><title>14</title>
<path fill="#bfe6e6" stroke="black" d="M3182,-202C3182,-202 2969,-202 2969,-202 2963,-202 2957,-196 2957,-190 2957,-190 2957,-176 2957,-176 2957,-170 2963,-164 2969,-164 2969,-164 3182,-164 3182,-164 3188,-164 3194,-170 3194,-176 3194,-176 3194,-190 3194,-190 3194,-196 3188,-202 3182,-202"/>
<text text-anchor="middle" x="3075.5" y="-186.8" font-family="Times,serif" font-size="14.00">comp 1</text>
<text text-anchor="middle" x="3075.5" y="-171.8" font-family="Times,serif" font-size="14.00">log gamma2: 0.470754 &#160;&#160;n kernels: &#45;364</text>
</g>
<!-- 3&#45;&gt;14 -->
<g id="edge14" class="edge"><title>3&#45;&gt;14</title>
<path fill="none" stroke="black" d="M3297.87,-267.965C3247.77,-249.046 3180.23,-223.544 3132.78,-205.626"/>
<polygon fill="black" stroke="black" points="3133.86,-202.294 3123.27,-202.036 3131.38,-208.843 3133.86,-202.294"/>
</g>
<!-- 15 -->
<g id="node16" class="node"><title>15</title>
<path fill="#abcece" stroke="black" d="M3474.5,-202C3474.5,-202 3256.5,-202 3256.5,-202 3250.5,-202 3244.5,-196 3244.5,-190 3244.5,-190 3244.5,-176 3244.5,-176 3244.5,-170 3250.5,-164 3256.5,-164 3256.5,-164 3474.5,-164 3474.5,-164 3480.5,-164 3486.5,-170 3486.5,-176 3486.5,-176 3486.5,-190 3486.5,-190 3486.5,-196 3480.5,-202 3474.5,-202"/>
<text text-anchor="middle" x="3365.5" y="-186.8" font-family="Times,serif" font-size="14.00">comp 2</text>
<text text-anchor="middle" x="3365.5" y="-171.8" font-family="Times,serif" font-size="14.00">log gamma2: &#45;0.160593 &#160;&#160;n kernels: &#45;364</text>
</g>
<!-- 3&#45;&gt;15 -->
<g id="edge15" class="edge"><title>3&#45;&gt;15</title>
<path fill="none" stroke="black" d="M3365.5,-267.827C3365.5,-251.18 3365.5,-229.482 3365.5,-212.332"/>
<polygon fill="black" stroke="black" points="3369,-212.327 3365.5,-202.327 3362,-212.327 3369,-212.327"/>
</g>
<!-- 16 -->
<g id="node17" class="node"><title>16</title>
<path fill="#97b6b6" stroke="black" d="M3550.5,-201C3550.5,-201 3516.5,-201 3516.5,-201 3510.5,-201 3504.5,-195 3504.5,-189 3504.5,-189 3504.5,-177 3504.5,-177 3504.5,-171 3510.5,-165 3516.5,-165 3516.5,-165 3550.5,-165 3550.5,-165 3556.5,-165 3562.5,-171 3562.5,-177 3562.5,-177 3562.5,-189 3562.5,-189 3562.5,-195 3556.5,-201 3550.5,-201"/>
<text text-anchor="middle" x="3533.5" y="-179.3" font-family="Times,serif" font-size="14.00">comp 3</text>
</g>
<!-- 3&#45;&gt;16 -->
<g id="edge16" class="edge"><title>3&#45;&gt;16</title>
<path fill="none" stroke="black" d="M3434.72,-267.869C3455.43,-258.384 3477.42,-246.369 3495.5,-232 3503.44,-225.687 3510.75,-217.407 3516.78,-209.505"/>
<polygon fill="black" stroke="black" points="3519.78,-211.342 3522.81,-201.19 3514.11,-207.235 3519.78,-211.342"/>
</g>
<!-- 17 -->
<g id="node18" class="node"><title>17</title>
<path fill="#839e9e" stroke="black" d="M3626.5,-201C3626.5,-201 3592.5,-201 3592.5,-201 3586.5,-201 3580.5,-195 3580.5,-189 3580.5,-189 3580.5,-177 3580.5,-177 3580.5,-171 3586.5,-165 3592.5,-165 3592.5,-165 3626.5,-165 3626.5,-165 3632.5,-165 3638.5,-171 3638.5,-177 3638.5,-177 3638.5,-189 3638.5,-189 3638.5,-195 3632.5,-201 3626.5,-201"/>
<text text-anchor="middle" x="3609.5" y="-179.3" font-family="Times,serif" font-size="14.00">comp 4</text>
</g>
<!-- 3&#45;&gt;17 -->
<g id="edge17" class="edge"><title>3&#45;&gt;17</title>
<path fill="none" stroke="black" d="M3495.15,-267.941C3521.78,-259.172 3548.64,-247.496 3571.5,-232 3580.12,-226.158 3587.71,-217.758 3593.79,-209.613"/>
<polygon fill="black" stroke="black" points="3596.71,-211.539 3599.56,-201.335 3590.97,-207.534 3596.71,-211.539"/>
</g>
<!-- 18 -->
<g id="node19" class="node"><title>18</title>
<path fill="#6f8585" stroke="black" d="M3814.5,-202C3814.5,-202 3668.5,-202 3668.5,-202 3662.5,-202 3656.5,-196 3656.5,-190 3656.5,-190 3656.5,-176 3656.5,-176 3656.5,-170 3662.5,-164 3668.5,-164 3668.5,-164 3814.5,-164 3814.5,-164 3820.5,-164 3826.5,-170 3826.5,-176 3826.5,-176 3826.5,-190 3826.5,-190 3826.5,-196 3820.5,-202 3814.5,-202"/>
<text text-anchor="middle" x="3741.5" y="-186.8" font-family="Times,serif" font-size="14.00">path end 2</text>
<text text-anchor="middle" x="3741.5" y="-171.8" font-family="Times,serif" font-size="14.00">k width: &#45;2 &#160;&#160;n kernels: &#45;364</text>
</g>
<!-- 3&#45;&gt;18 -->
<g id="edge18" class="edge"><title>3&#45;&gt;18</title>
<path fill="none" stroke="black" d="M3509.16,-269.612C3554.14,-260.165 3603.5,-247.733 3647.5,-232 3666.13,-225.337 3685.78,-215.752 3702.26,-206.898"/>
<polygon fill="black" stroke="black" points="3703.97,-209.949 3711.06,-202.077 3700.61,-203.809 3703.97,-209.949"/>
</g>
<!-- 19 -->
<g id="node20" class="node"><title>19</title>
<path fill="#d3ffff" stroke="black" d="M4138,-232C4138,-232 3857,-232 3857,-232 3851,-232 3845,-226 3845,-220 3845,-220 3845,-146 3845,-146 3845,-140 3851,-134 3857,-134 3857,-134 4138,-134 4138,-134 4144,-134 4150,-140 4150,-146 4150,-146 4150,-220 4150,-220 4150,-226 4144,-232 4138,-232"/>
<text text-anchor="middle" x="3997.5" y="-216.8" font-family="Times,serif" font-size="14.00">forward</text>
<text text-anchor="middle" x="3997.5" y="-201.8" font-family="Times,serif" font-size="14.00">CB0/C2</text>
<text text-anchor="middle" x="3997.5" y="-186.8" font-family="Times,serif" font-size="14.00">dilation rate: 1 &#160;&#160;k width: 3</text>
<text text-anchor="middle" x="3997.5" y="-171.8" font-family="Times,serif" font-size="14.00">log gamma1: &#45;11.000000 &#160;&#160;log gamma2: &#45;11.000000</text>
<text text-anchor="middle" x="3997.5" y="-156.8" font-family="Times,serif" font-size="14.00">log lambda1: &#45;11.000000 &#160;&#160;log lambda2: &#45;11.000000</text>
<text text-anchor="middle" x="3997.5" y="-141.8" font-family="Times,serif" font-size="14.00">n kernels: 64</text>
</g>
<!-- 4&#45;&gt;19 -->
<g id="edge19" class="edge"><title>4&#45;&gt;19</title>
<path fill="none" stroke="black" d="M4133.34,-276.391C4117.95,-265.923 4097.33,-251.898 4076.81,-237.942"/>
<polygon fill="black" stroke="black" points="4078.59,-234.917 4068.35,-232.188 4074.65,-240.706 4078.59,-234.917"/>
</g>
<!-- 20 -->
<g id="node21" class="node"><title>20</title>
<path fill="#bfe6e6" stroke="black" d="M4461,-232C4461,-232 4180,-232 4180,-232 4174,-232 4168,-226 4168,-220 4168,-220 4168,-146 4168,-146 4168,-140 4174,-134 4180,-134 4180,-134 4461,-134 4461,-134 4467,-134 4473,-140 4473,-146 4473,-146 4473,-220 4473,-220 4473,-226 4467,-232 4461,-232"/>
<text text-anchor="middle" x="4320.5" y="-216.8" font-family="Times,serif" font-size="14.00">merge 1</text>
<text text-anchor="middle" x="4320.5" y="-201.8" font-family="Times,serif" font-size="14.00">CB1/PE1</text>
<text text-anchor="middle" x="4320.5" y="-186.8" font-family="Times,serif" font-size="14.00">dilation rate: 1 &#160;&#160;k width: 3</text>
<text text-anchor="middle" x="4320.5" y="-171.8" font-family="Times,serif" font-size="14.00">log gamma1: &#45;11.000000 &#160;&#160;log gamma2: &#45;11.000000</text>
<text text-anchor="middle" x="4320.5" y="-156.8" font-family="Times,serif" font-size="14.00">log lambda1: &#45;11.000000 &#160;&#160;log lambda2: &#45;11.000000</text>
<text text-anchor="middle" x="4320.5" y="-141.8" font-family="Times,serif" font-size="14.00">n kernels: 64</text>
</g>
<!-- 4&#45;&gt;20 -->
<g id="edge20" class="edge"><title>4&#45;&gt;20</title>
<path fill="none" stroke="black" d="M4183.81,-276.391C4199.3,-265.923 4220.05,-251.898 4240.69,-237.942"/>
<polygon fill="black" stroke="black" points="4242.88,-240.687 4249.21,-232.188 4238.96,-234.888 4242.88,-240.687"/>
</g>
<!-- 21 -->
<g id="node22" class="node"><title>21</title>
<path fill="#abcece" stroke="black" d="M4784,-232C4784,-232 4503,-232 4503,-232 4497,-232 4491,-226 4491,-220 4491,-220 4491,-146 4491,-146 4491,-140 4497,-134 4503,-134 4503,-134 4784,-134 4784,-134 4790,-134 4796,-140 4796,-146 4796,-146 4796,-220 4796,-220 4796,-226 4790,-232 4784,-232"/>
<text text-anchor="middle" x="4643.5" y="-216.8" font-family="Times,serif" font-size="14.00">merge 2</text>
<text text-anchor="middle" x="4643.5" y="-201.8" font-family="Times,serif" font-size="14.00">CB2/PE2</text>
<text text-anchor="middle" x="4643.5" y="-186.8" font-family="Times,serif" font-size="14.00">dilation rate: 1 &#160;&#160;k width: 3</text>
<text text-anchor="middle" x="4643.5" y="-171.8" font-family="Times,serif" font-size="14.00">log gamma1: &#45;11.000000 &#160;&#160;log gamma2: &#45;11.000000</text>
<text text-anchor="middle" x="4643.5" y="-156.8" font-family="Times,serif" font-size="14.00">log lambda1: &#45;11.000000 &#160;&#160;log lambda2: &#45;11.000000</text>
<text text-anchor="middle" x="4643.5" y="-141.8" font-family="Times,serif" font-size="14.00">n kernels: 64</text>
</g>
<!-- 4&#45;&gt;21 -->
<g id="edge21" class="edge"><title>4&#45;&gt;21</title>
<path fill="none" stroke="black" d="M4204.01,-286.309C4264.92,-276.361 4376.44,-257.014 4481.2,-232.009"/>
<polygon fill="black" stroke="black" points="4482.09,-235.395 4490.99,-229.651 4480.45,-228.59 4482.09,-235.395"/>
</g>
<!-- 22 -->
<g id="node23" class="node"><title>22</title>
<path fill="#e9d3ff" stroke="black" d="M293,-98C293,-98 12,-98 12,-98 6,-98 0,-92 0,-86 0,-86 0,-12 0,-12 0,-6 6,-0 12,-0 12,-0 293,-0 293,-0 299,-0 305,-6 305,-12 305,-12 305,-86 305,-86 305,-92 299,-98 293,-98"/>
<text text-anchor="middle" x="152.5" y="-82.8" font-family="Times,serif" font-size="14.00">forward</text>
<text text-anchor="middle" x="152.5" y="-67.8" font-family="Times,serif" font-size="14.00">input</text>
<text text-anchor="middle" x="152.5" y="-52.8" font-family="Times,serif" font-size="14.00">dilation rate: 1 &#160;&#160;k width: 3</text>
<text text-anchor="middle" x="152.5" y="-37.8" font-family="Times,serif" font-size="14.00">log gamma1: &#45;11.000000 &#160;&#160;log gamma2: &#45;11.000000</text>
<text text-anchor="middle" x="152.5" y="-22.8" font-family="Times,serif" font-size="14.00">log lambda1: &#45;11.000000 &#160;&#160;log lambda2: &#45;11.000000</text>
<text text-anchor="middle" x="152.5" y="-7.8" font-family="Times,serif" font-size="14.00">n kernels: 64</text>
</g>
<!-- 5&#45;&gt;22 -->
<g id="edge22" class="edge"><title>5&#45;&gt;22</title>
<path fill="none" stroke="black" d="M274.197,-164.743C258.079,-149.546 233.699,-126.559 210.982,-105.14"/>
<polygon fill="black" stroke="black" points="213.355,-102.567 203.678,-98.2533 208.553,-107.66 213.355,-102.567"/>
</g>
<!-- 23 -->
<g id="node24" class="node"><title>23</title>
<path fill="#e9d3ff" stroke="black" d="M616,-98C616,-98 335,-98 335,-98 329,-98 323,-92 323,-86 323,-86 323,-12 323,-12 323,-6 329,-0 335,-0 335,-0 616,-0 616,-0 622,-0 628,-6 628,-12 628,-12 628,-86 628,-86 628,-92 622,-98 616,-98"/>
<text text-anchor="middle" x="475.5" y="-82.8" font-family="Times,serif" font-size="14.00">forward</text>
<text text-anchor="middle" x="475.5" y="-67.8" font-family="Times,serif" font-size="14.00">CB0/C0</text>
<text text-anchor="middle" x="475.5" y="-52.8" font-family="Times,serif" font-size="14.00">dilation rate: 1 &#160;&#160;k width: 3</text>
<text text-anchor="middle" x="475.5" y="-37.8" font-family="Times,serif" font-size="14.00">log gamma1: &#45;11.000000 &#160;&#160;log gamma2: &#45;11.000000</text>
<text text-anchor="middle" x="475.5" y="-22.8" font-family="Times,serif" font-size="14.00">log lambda1: &#45;11.000000 &#160;&#160;log lambda2: &#45;11.000000</text>
<text text-anchor="middle" x="475.5" y="-7.8" font-family="Times,serif" font-size="14.00">n kernels: 64</text>
</g>
<!-- 6&#45;&gt;23 -->
<g id="edge23" class="edge"><title>6&#45;&gt;23</title>
<path fill="none" stroke="black" d="M504.186,-164.743C500.567,-150.27 495.183,-128.73 490.052,-108.21"/>
<polygon fill="black" stroke="black" points="493.384,-107.106 487.563,-98.2533 486.593,-108.804 493.384,-107.106"/>
</g>
<!-- 24 -->
<g id="node25" class="node"><title>24</title>
<path fill="#e9d3ff" stroke="black" d="M939,-98C939,-98 658,-98 658,-98 652,-98 646,-92 646,-86 646,-86 646,-12 646,-12 646,-6 652,-0 658,-0 658,-0 939,-0 939,-0 945,-0 951,-6 951,-12 951,-12 951,-86 951,-86 951,-92 945,-98 939,-98"/>
<text text-anchor="middle" x="798.5" y="-82.8" font-family="Times,serif" font-size="14.00">forward</text>
<text text-anchor="middle" x="798.5" y="-67.8" font-family="Times,serif" font-size="14.00">CB0/C1</text>
<text text-anchor="middle" x="798.5" y="-52.8" font-family="Times,serif" font-size="14.00">dilation rate: 1 &#160;&#160;k width: 3</text>
<text text-anchor="middle" x="798.5" y="-37.8" font-family="Times,serif" font-size="14.00">log gamma1: &#45;11.000000 &#160;&#160;log gamma2: &#45;11.000000</text>
<text text-anchor="middle" x="798.5" y="-22.8" font-family="Times,serif" font-size="14.00">log lambda1: &#45;11.000000 &#160;&#160;log lambda2: &#45;11.000000</text>
<text text-anchor="middle" x="798.5" y="-7.8" font-family="Times,serif" font-size="14.00">n kernels: 64</text>
</g>
<!-- 7&#45;&gt;24 -->
<g id="edge24" class="edge"><title>7&#45;&gt;24</title>
<path fill="none" stroke="black" d="M740.676,-163.923C748.137,-149.223 759.091,-127.641 769.464,-107.205"/>
<polygon fill="black" stroke="black" points="772.613,-108.735 774.018,-98.2336 766.371,-105.567 772.613,-108.735"/>
</g>
<!-- 25 -->
<g id="node26" class="node"><title>25</title>
<path fill="#e9d3ff" stroke="black" d="M1262,-98C1262,-98 981,-98 981,-98 975,-98 969,-92 969,-86 969,-86 969,-12 969,-12 969,-6 975,-0 981,-0 981,-0 1262,-0 1262,-0 1268,-0 1274,-6 1274,-12 1274,-12 1274,-86 1274,-86 1274,-92 1268,-98 1262,-98"/>
<text text-anchor="middle" x="1121.5" y="-82.8" font-family="Times,serif" font-size="14.00">forward</text>
<text text-anchor="middle" x="1121.5" y="-67.8" font-family="Times,serif" font-size="14.00">input</text>
<text text-anchor="middle" x="1121.5" y="-52.8" font-family="Times,serif" font-size="14.00">dilation rate: 1 &#160;&#160;k width: 3</text>
<text text-anchor="middle" x="1121.5" y="-37.8" font-family="Times,serif" font-size="14.00">log gamma1: &#45;11.000000 &#160;&#160;log gamma2: &#45;11.000000</text>
<text text-anchor="middle" x="1121.5" y="-22.8" font-family="Times,serif" font-size="14.00">log lambda1: &#45;11.000000 &#160;&#160;log lambda2: &#45;11.000000</text>
<text text-anchor="middle" x="1121.5" y="-7.8" font-family="Times,serif" font-size="14.00">n kernels: 64</text>
</g>
<!-- 8&#45;&gt;25 -->
<g id="edge25" class="edge"><title>8&#45;&gt;25</title>
<path fill="none" stroke="black" d="M1169.83,-163.923C1163.62,-149.289 1154.52,-127.835 1145.89,-107.48"/>
<polygon fill="black" stroke="black" points="1149.09,-106.072 1141.96,-98.2336 1142.65,-108.806 1149.09,-106.072"/>
</g>
<!-- 26 -->
<g id="node27" class="node"><title>26</title>
<path fill="#e9d3ff" stroke="black" d="M1585,-98C1585,-98 1304,-98 1304,-98 1298,-98 1292,-92 1292,-86 1292,-86 1292,-12 1292,-12 1292,-6 1298,-0 1304,-0 1304,-0 1585,-0 1585,-0 1591,-0 1597,-6 1597,-12 1597,-12 1597,-86 1597,-86 1597,-92 1591,-98 1585,-98"/>
<text text-anchor="middle" x="1444.5" y="-82.8" font-family="Times,serif" font-size="14.00">forward</text>
<text text-anchor="middle" x="1444.5" y="-67.8" font-family="Times,serif" font-size="14.00">CB1/C0</text>
<text text-anchor="middle" x="1444.5" y="-52.8" font-family="Times,serif" font-size="14.00">dilation rate: 1 &#160;&#160;k width: 3</text>
<text text-anchor="middle" x="1444.5" y="-37.8" font-family="Times,serif" font-size="14.00">log gamma1: &#45;11.000000 &#160;&#160;log gamma2: &#45;11.000000</text>
<text text-anchor="middle" x="1444.5" y="-22.8" font-family="Times,serif" font-size="14.00">log lambda1: &#45;11.000000 &#160;&#160;log lambda2: &#45;11.000000</text>
<text text-anchor="middle" x="1444.5" y="-7.8" font-family="Times,serif" font-size="14.00">n kernels: 64</text>
</g>
<!-- 9&#45;&gt;26 -->
<g id="edge26" class="edge"><title>9&#45;&gt;26</title>
<path fill="none" stroke="black" d="M1504.91,-163.923C1497.12,-149.223 1485.67,-127.641 1474.84,-107.205"/>
<polygon fill="black" stroke="black" points="1477.86,-105.428 1470.08,-98.2336 1471.67,-108.708 1477.86,-105.428"/>
</g>
<!-- 27 -->
<g id="node28" class="node"><title>27</title>
<path fill="#e9d3ff" stroke="black" d="M1908,-98C1908,-98 1627,-98 1627,-98 1621,-98 1615,-92 1615,-86 1615,-86 1615,-12 1615,-12 1615,-6 1621,-0 1627,-0 1627,-0 1908,-0 1908,-0 1914,-0 1920,-6 1920,-12 1920,-12 1920,-86 1920,-86 1920,-92 1914,-98 1908,-98"/>
<text text-anchor="middle" x="1767.5" y="-82.8" font-family="Times,serif" font-size="14.00">forward</text>
<text text-anchor="middle" x="1767.5" y="-67.8" font-family="Times,serif" font-size="14.00">CB1/C1</text>
<text text-anchor="middle" x="1767.5" y="-52.8" font-family="Times,serif" font-size="14.00">dilation rate: 1 &#160;&#160;k width: 3</text>
<text text-anchor="middle" x="1767.5" y="-37.8" font-family="Times,serif" font-size="14.00">log gamma1: &#45;11.000000 &#160;&#160;log gamma2: &#45;11.000000</text>
<text text-anchor="middle" x="1767.5" y="-22.8" font-family="Times,serif" font-size="14.00">log lambda1: &#45;11.000000 &#160;&#160;log lambda2: &#45;11.000000</text>
<text text-anchor="middle" x="1767.5" y="-7.8" font-family="Times,serif" font-size="14.00">n kernels: 64</text>
</g>
<!-- 10&#45;&gt;27 -->
<g id="edge27" class="edge"><title>10&#45;&gt;27</title>
<path fill="none" stroke="black" d="M1791.67,-163.923C1788.59,-149.42 1784.09,-128.221 1779.81,-108.03"/>
<polygon fill="black" stroke="black" points="1783.23,-107.29 1777.73,-98.2336 1776.38,-108.742 1783.23,-107.29"/>
</g>
<!-- 28 -->
<g id="node29" class="node"><title>28</title>
<path fill="#e9d3ff" stroke="black" d="M2231,-98C2231,-98 1950,-98 1950,-98 1944,-98 1938,-92 1938,-86 1938,-86 1938,-12 1938,-12 1938,-6 1944,-0 1950,-0 1950,-0 2231,-0 2231,-0 2237,-0 2243,-6 2243,-12 2243,-12 2243,-86 2243,-86 2243,-92 2237,-98 2231,-98"/>
<text text-anchor="middle" x="2090.5" y="-82.8" font-family="Times,serif" font-size="14.00">forward</text>
<text text-anchor="middle" x="2090.5" y="-67.8" font-family="Times,serif" font-size="14.00">CB1/C2</text>
<text text-anchor="middle" x="2090.5" y="-52.8" font-family="Times,serif" font-size="14.00">dilation rate: 1 &#160;&#160;k width: 3</text>
<text text-anchor="middle" x="2090.5" y="-37.8" font-family="Times,serif" font-size="14.00">log gamma1: &#45;11.000000 &#160;&#160;log gamma2: &#45;11.000000</text>
<text text-anchor="middle" x="2090.5" y="-22.8" font-family="Times,serif" font-size="14.00">log lambda1: &#45;11.000000 &#160;&#160;log lambda2: &#45;11.000000</text>
<text text-anchor="middle" x="2090.5" y="-7.8" font-family="Times,serif" font-size="14.00">n kernels: 64</text>
</g>
<!-- 11&#45;&gt;28 -->
<g id="edge28" class="edge"><title>11&#45;&gt;28</title>
<path fill="none" stroke="black" d="M2042.17,-163.923C2048.38,-149.289 2057.48,-127.835 2066.11,-107.48"/>
<polygon fill="black" stroke="black" points="2069.35,-108.806 2070.04,-98.2336 2062.91,-106.072 2069.35,-108.806"/>
</g>
<!-- 29 -->
<g id="node30" class="node"><title>29</title>
<path fill="#e9d3ff" stroke="black" d="M2554,-98C2554,-98 2273,-98 2273,-98 2267,-98 2261,-92 2261,-86 2261,-86 2261,-12 2261,-12 2261,-6 2267,-0 2273,-0 2273,-0 2554,-0 2554,-0 2560,-0 2566,-6 2566,-12 2566,-12 2566,-86 2566,-86 2566,-92 2560,-98 2554,-98"/>
<text text-anchor="middle" x="2413.5" y="-82.8" font-family="Times,serif" font-size="14.00">forward</text>
<text text-anchor="middle" x="2413.5" y="-67.8" font-family="Times,serif" font-size="14.00">CB1/C3</text>
<text text-anchor="middle" x="2413.5" y="-52.8" font-family="Times,serif" font-size="14.00">dilation rate: 1 &#160;&#160;k width: 3</text>
<text text-anchor="middle" x="2413.5" y="-37.8" font-family="Times,serif" font-size="14.00">log gamma1: &#45;11.000000 &#160;&#160;log gamma2: &#45;11.000000</text>
<text text-anchor="middle" x="2413.5" y="-22.8" font-family="Times,serif" font-size="14.00">log lambda1: &#45;11.000000 &#160;&#160;log lambda2: &#45;11.000000</text>
<text text-anchor="middle" x="2413.5" y="-7.8" font-family="Times,serif" font-size="14.00">n kernels: 64</text>
</g>
<!-- 12&#45;&gt;29 -->
<g id="edge29" class="edge"><title>12&#45;&gt;29</title>
<path fill="none" stroke="black" d="M2347.05,-163.923C2355.66,-149.157 2368.32,-127.447 2380.29,-106.93"/>
<polygon fill="black" stroke="black" points="2383.35,-108.635 2385.36,-98.2336 2377.3,-105.108 2383.35,-108.635"/>
</g>
<!-- 30 -->
<g id="node31" class="node"><title>30</title>
<path fill="#e9d3ff" stroke="black" d="M2877,-98C2877,-98 2596,-98 2596,-98 2590,-98 2584,-92 2584,-86 2584,-86 2584,-12 2584,-12 2584,-6 2590,-0 2596,-0 2596,-0 2877,-0 2877,-0 2883,-0 2889,-6 2889,-12 2889,-12 2889,-86 2889,-86 2889,-92 2883,-98 2877,-98"/>
<text text-anchor="middle" x="2736.5" y="-82.8" font-family="Times,serif" font-size="14.00">forward</text>
<text text-anchor="middle" x="2736.5" y="-67.8" font-family="Times,serif" font-size="14.00">input</text>
<text text-anchor="middle" x="2736.5" y="-52.8" font-family="Times,serif" font-size="14.00">dilation rate: 1 &#160;&#160;k width: 3</text>
<text text-anchor="middle" x="2736.5" y="-37.8" font-family="Times,serif" font-size="14.00">log gamma1: &#45;11.000000 &#160;&#160;log gamma2: &#45;11.000000</text>
<text text-anchor="middle" x="2736.5" y="-22.8" font-family="Times,serif" font-size="14.00">log lambda1: &#45;11.000000 &#160;&#160;log lambda2: &#45;11.000000</text>
<text text-anchor="middle" x="2736.5" y="-7.8" font-family="Times,serif" font-size="14.00">n kernels: 64</text>
</g>
<!-- 13&#45;&gt;30 -->
<g id="edge30" class="edge"><title>13&#45;&gt;30</title>
<path fill="none" stroke="black" d="M2761.53,-163.923C2758.34,-149.42 2753.68,-128.221 2749.25,-108.03"/>
<polygon fill="black" stroke="black" points="2752.66,-107.25 2747.1,-98.2336 2745.82,-108.752 2752.66,-107.25"/>
</g>
<!-- 31 -->
<g id="node32" class="node"><title>31</title>
<path fill="#e9d3ff" stroke="black" d="M3200,-98C3200,-98 2919,-98 2919,-98 2913,-98 2907,-92 2907,-86 2907,-86 2907,-12 2907,-12 2907,-6 2913,-0 2919,-0 2919,-0 3200,-0 3200,-0 3206,-0 3212,-6 3212,-12 3212,-12 3212,-86 3212,-86 3212,-92 3206,-98 3200,-98"/>
<text text-anchor="middle" x="3059.5" y="-82.8" font-family="Times,serif" font-size="14.00">forward</text>
<text text-anchor="middle" x="3059.5" y="-67.8" font-family="Times,serif" font-size="14.00">CB2/C0</text>
<text text-anchor="middle" x="3059.5" y="-52.8" font-family="Times,serif" font-size="14.00">dilation rate: 1 &#160;&#160;k width: 3</text>
<text text-anchor="middle" x="3059.5" y="-37.8" font-family="Times,serif" font-size="14.00">log gamma1: &#45;11.000000 &#160;&#160;log gamma2: &#45;11.000000</text>
<text text-anchor="middle" x="3059.5" y="-22.8" font-family="Times,serif" font-size="14.00">log lambda1: &#45;11.000000 &#160;&#160;log lambda2: &#45;11.000000</text>
<text text-anchor="middle" x="3059.5" y="-7.8" font-family="Times,serif" font-size="14.00">n kernels: 64</text>
</g>
<!-- 14&#45;&gt;31 -->
<g id="edge31" class="edge"><title>14&#45;&gt;31</title>
<path fill="none" stroke="black" d="M3073.31,-163.923C3071.56,-149.486 3069,-128.413 3066.57,-108.306"/>
<polygon fill="black" stroke="black" points="3070.02,-107.74 3065.35,-98.2336 3063.08,-108.582 3070.02,-107.74"/>
</g>
<!-- 32 -->
<g id="node33" class="node"><title>32</title>
<path fill="#e9d3ff" stroke="black" d="M3523,-98C3523,-98 3242,-98 3242,-98 3236,-98 3230,-92 3230,-86 3230,-86 3230,-12 3230,-12 3230,-6 3236,-0 3242,-0 3242,-0 3523,-0 3523,-0 3529,-0 3535,-6 3535,-12 3535,-12 3535,-86 3535,-86 3535,-92 3529,-98 3523,-98"/>
<text text-anchor="middle" x="3382.5" y="-82.8" font-family="Times,serif" font-size="14.00">forward</text>
<text text-anchor="middle" x="3382.5" y="-67.8" font-family="Times,serif" font-size="14.00">CB2/C1</text>
<text text-anchor="middle" x="3382.5" y="-52.8" font-family="Times,serif" font-size="14.00">dilation rate: 1 &#160;&#160;k width: 3</text>
<text text-anchor="middle" x="3382.5" y="-37.8" font-family="Times,serif" font-size="14.00">log gamma1: &#45;11.000000 &#160;&#160;log gamma2: &#45;11.000000</text>
<text text-anchor="middle" x="3382.5" y="-22.8" font-family="Times,serif" font-size="14.00">log lambda1: &#45;11.000000 &#160;&#160;log lambda2: &#45;11.000000</text>
<text text-anchor="middle" x="3382.5" y="-7.8" font-family="Times,serif" font-size="14.00">n kernels: 64</text>
</g>
<!-- 15&#45;&gt;32 -->
<g id="edge32" class="edge"><title>15&#45;&gt;32</title>
<path fill="none" stroke="black" d="M3367.83,-163.923C3369.69,-149.486 3372.4,-128.413 3374.99,-108.306"/>
<polygon fill="black" stroke="black" points="3378.48,-108.599 3376.29,-98.2336 3371.54,-107.705 3378.48,-108.599"/>
</g>
<!-- 33 -->
<g id="node34" class="node"><title>33</title>
<path fill="#e9d3ff" stroke="black" d="M3846,-98C3846,-98 3565,-98 3565,-98 3559,-98 3553,-92 3553,-86 3553,-86 3553,-12 3553,-12 3553,-6 3559,-0 3565,-0 3565,-0 3846,-0 3846,-0 3852,-0 3858,-6 3858,-12 3858,-12 3858,-86 3858,-86 3858,-92 3852,-98 3846,-98"/>
<text text-anchor="middle" x="3705.5" y="-82.8" font-family="Times,serif" font-size="14.00">forward</text>
<text text-anchor="middle" x="3705.5" y="-67.8" font-family="Times,serif" font-size="14.00">CB2/C2</text>
<text text-anchor="middle" x="3705.5" y="-52.8" font-family="Times,serif" font-size="14.00">dilation rate: 1 &#160;&#160;k width: 3</text>
<text text-anchor="middle" x="3705.5" y="-37.8" font-family="Times,serif" font-size="14.00">log gamma1: &#45;11.000000 &#160;&#160;log gamma2: &#45;11.000000</text>
<text text-anchor="middle" x="3705.5" y="-22.8" font-family="Times,serif" font-size="14.00">log lambda1: &#45;11.000000 &#160;&#160;log lambda2: &#45;11.000000</text>
<text text-anchor="middle" x="3705.5" y="-7.8" font-family="Times,serif" font-size="14.00">n kernels: 64</text>
</g>
<!-- 16&#45;&gt;33 -->
<g id="edge33" class="edge"><title>16&#45;&gt;33</title>
<path fill="none" stroke="black" d="M3544.9,-164.809C3551.87,-155.078 3561.37,-143.078 3571.5,-134 3583.44,-123.303 3596.9,-113.117 3610.57,-103.764"/>
<polygon fill="black" stroke="black" points="3612.74,-106.525 3619.1,-98.0512 3608.84,-100.709 3612.74,-106.525"/>
</g>
<!-- 34 -->
<g id="node35" class="node"><title>34</title>
<path fill="#e9d3ff" stroke="black" d="M4169,-98C4169,-98 3888,-98 3888,-98 3882,-98 3876,-92 3876,-86 3876,-86 3876,-12 3876,-12 3876,-6 3882,-0 3888,-0 3888,-0 4169,-0 4169,-0 4175,-0 4181,-6 4181,-12 4181,-12 4181,-86 4181,-86 4181,-92 4175,-98 4169,-98"/>
<text text-anchor="middle" x="4028.5" y="-82.8" font-family="Times,serif" font-size="14.00">forward</text>
<text text-anchor="middle" x="4028.5" y="-67.8" font-family="Times,serif" font-size="14.00">CB2/C3</text>
<text text-anchor="middle" x="4028.5" y="-52.8" font-family="Times,serif" font-size="14.00">dilation rate: 1 &#160;&#160;k width: 3</text>
<text text-anchor="middle" x="4028.5" y="-37.8" font-family="Times,serif" font-size="14.00">log gamma1: &#45;11.000000 &#160;&#160;log gamma2: &#45;11.000000</text>
<text text-anchor="middle" x="4028.5" y="-22.8" font-family="Times,serif" font-size="14.00">log lambda1: &#45;11.000000 &#160;&#160;log lambda2: &#45;11.000000</text>
<text text-anchor="middle" x="4028.5" y="-7.8" font-family="Times,serif" font-size="14.00">n kernels: 64</text>
</g>
<!-- 17&#45;&gt;34 -->
<g id="edge34" class="edge"><title>17&#45;&gt;34</title>
<path fill="none" stroke="black" d="M3618.8,-164.609C3625.39,-154.038 3635.23,-141.225 3647.5,-134 3729.77,-85.5733 3767.87,-117.817 3865.61,-98.0202"/>
<polygon fill="black" stroke="black" points="3866.54,-101.399 3875.58,-95.8644 3865.06,-94.5577 3866.54,-101.399"/>
</g>
<!-- 35 -->
<g id="node36" class="node"><title>35</title>
<path fill="#e9d3ff" stroke="black" d="M4492,-98C4492,-98 4211,-98 4211,-98 4205,-98 4199,-92 4199,-86 4199,-86 4199,-12 4199,-12 4199,-6 4205,-0 4211,-0 4211,-0 4492,-0 4492,-0 4498,-0 4504,-6 4504,-12 4504,-12 4504,-86 4504,-86 4504,-92 4498,-98 4492,-98"/>
<text text-anchor="middle" x="4351.5" y="-82.8" font-family="Times,serif" font-size="14.00">forward</text>
<text text-anchor="middle" x="4351.5" y="-67.8" font-family="Times,serif" font-size="14.00">CB2/C4</text>
<text text-anchor="middle" x="4351.5" y="-52.8" font-family="Times,serif" font-size="14.00">dilation rate: 1 &#160;&#160;k width: 3</text>
<text text-anchor="middle" x="4351.5" y="-37.8" font-family="Times,serif" font-size="14.00">log gamma1: &#45;11.000000 &#160;&#160;log gamma2: &#45;11.000000</text>
<text text-anchor="middle" x="4351.5" y="-22.8" font-family="Times,serif" font-size="14.00">log lambda1: &#45;11.000000 &#160;&#160;log lambda2: &#45;11.000000</text>
<text text-anchor="middle" x="4351.5" y="-7.8" font-family="Times,serif" font-size="14.00">n kernels: 64</text>
</g>
<!-- 18&#45;&gt;35 -->
<g id="edge35" class="edge"><title>18&#45;&gt;35</title>
<path fill="none" stroke="black" d="M3769.97,-163.94C3788.03,-153.389 3812.3,-140.841 3835.5,-134 3984.08,-90.1905 4032.37,-127.019 4188.67,-98.0291"/>
<polygon fill="black" stroke="black" points="4189.47,-101.44 4198.63,-96.1203 4188.15,-94.5648 4189.47,-101.44"/>
</g>
</g>
</svg>
