<?xml version="1.0" encoding="UTF-8" standalone="no"?>
<!DOCTYPE svg PUBLIC "-//W3C//DTD SVG 1.1//EN"
 "http://www.w3.org/Graphics/SVG/1.1/DTD/svg11.dtd">
<!-- Generated by graphviz version 2.38.0 (20140413.2041)
 -->
<!-- Title: %3 Pages: 1 -->
<svg width="3866pt" height="418pt"
 viewBox="0.00 0.00 3866.00 418.00" xmlns="http://www.w3.org/2000/svg" xmlns:xlink="http://www.w3.org/1999/xlink">
<g id="graph0" class="graph" transform="scale(1 1) rotate(0) translate(4 414)">
<title>%3</title>
<polygon fill="none" stroke="none" points="-4,4 -4,-414 3862,-414 3862,4 -4,4"/>
<!-- 0 -->
<g id="node1" class="node"><title>0</title>
<path fill="#ffd3d3" stroke="black" d="M2770,-410C2770,-410 2579,-410 2579,-410 2573,-410 2567,-404 2567,-398 2567,-398 2567,-369 2567,-369 2567,-363 2573,-357 2579,-357 2579,-357 2770,-357 2770,-357 2776,-357 2782,-363 2782,-369 2782,-369 2782,-398 2782,-398 2782,-404 2776,-410 2770,-410"/>
<text text-anchor="middle" x="2674.5" y="-394.8" font-family="Times,serif" font-size="14.00">net</text>
<text text-anchor="middle" x="2674.5" y="-379.8" font-family="Times,serif" font-size="14.00">k width: 3 &#160;&#160;log gamma2: &#45;3.191436</text>
<text text-anchor="middle" x="2674.5" y="-364.8" font-family="Times,serif" font-size="14.00">n kernels: 110</text>
</g>
<!-- 1 -->
<g id="node2" class="node"><title>1</title>
<path fill="#e9ffd3" stroke="black" d="M968,-312.5C968,-312.5 905,-312.5 905,-312.5 899,-312.5 893,-306.5 893,-300.5 893,-300.5 893,-288.5 893,-288.5 893,-282.5 899,-276.5 905,-276.5 905,-276.5 968,-276.5 968,-276.5 974,-276.5 980,-282.5 980,-288.5 980,-288.5 980,-300.5 980,-300.5 980,-306.5 974,-312.5 968,-312.5"/>
<text text-anchor="middle" x="936.5" y="-290.8" font-family="Times,serif" font-size="14.00">conv block 0</text>
</g>
<!-- 0&#45;&gt;1 -->
<g id="edge1" class="edge"><title>0&#45;&gt;1</title>
<path fill="none" stroke="black" d="M2566.76,-377.107C2234.45,-360.472 1233.13,-310.349 990.083,-298.182"/>
<polygon fill="black" stroke="black" points="990.246,-294.686 980.084,-297.682 989.896,-301.677 990.246,-294.686"/>
</g>
<!-- 2 -->
<g id="node3" class="node"><title>2</title>
<path fill="#e9ffd3" stroke="black" d="M2781,-321C2781,-321 2568,-321 2568,-321 2562,-321 2556,-315 2556,-309 2556,-309 2556,-280 2556,-280 2556,-274 2562,-268 2568,-268 2568,-268 2781,-268 2781,-268 2787,-268 2793,-274 2793,-280 2793,-280 2793,-309 2793,-309 2793,-315 2787,-321 2781,-321"/>
<text text-anchor="middle" x="2674.5" y="-305.8" font-family="Times,serif" font-size="14.00">conv block 1</text>
<text text-anchor="middle" x="2674.5" y="-290.8" font-family="Times,serif" font-size="14.00">log gamma1: &#45;1.880776 &#160;&#160;n kernels: 110</text>
<text text-anchor="middle" x="2674.5" y="-275.8" font-family="Times,serif" font-size="14.00">pool z: 1 &#160;&#160;spatial scale: 1</text>
</g>
<!-- 0&#45;&gt;2 -->
<g id="edge2" class="edge"><title>0&#45;&gt;2</title>
<path fill="none" stroke="black" d="M2674.5,-356.868C2674.5,-348.886 2674.5,-339.932 2674.5,-331.384"/>
<polygon fill="black" stroke="black" points="2678,-331.25 2674.5,-321.25 2671,-331.25 2678,-331.25"/>
</g>
<!-- 3 -->
<g id="node4" class="node"><title>3</title>
<path fill="#e9ffd3" stroke="black" d="M3248,-312.5C3248,-312.5 3181,-312.5 3181,-312.5 3175,-312.5 3169,-306.5 3169,-300.5 3169,-300.5 3169,-288.5 3169,-288.5 3169,-282.5 3175,-276.5 3181,-276.5 3181,-276.5 3248,-276.5 3248,-276.5 3254,-276.5 3260,-282.5 3260,-288.5 3260,-288.5 3260,-300.5 3260,-300.5 3260,-306.5 3254,-312.5 3248,-312.5"/>
<text text-anchor="middle" x="3214.5" y="-290.8" font-family="Times,serif" font-size="14.00">path combine</text>
</g>
<!-- 0&#45;&gt;3 -->
<g id="edge3" class="edge"><title>0&#45;&gt;3</title>
<path fill="none" stroke="black" d="M2782.16,-365.155C2895.66,-346.869 3070.04,-318.774 3158.65,-304.497"/>
<polygon fill="black" stroke="black" points="3159.45,-307.914 3168.77,-302.868 3158.34,-301.003 3159.45,-307.914"/>
</g>
<!-- 4 -->
<g id="node5" class="node"><title>4</title>
<path fill="#d3ffff" stroke="black" d="M327,-209.5C327,-209.5 68,-209.5 68,-209.5 62,-209.5 56,-203.5 56,-197.5 56,-197.5 56,-168.5 56,-168.5 56,-162.5 62,-156.5 68,-156.5 68,-156.5 327,-156.5 327,-156.5 333,-156.5 339,-162.5 339,-168.5 339,-168.5 339,-197.5 339,-197.5 339,-203.5 333,-209.5 327,-209.5"/>
<text text-anchor="middle" x="197.5" y="-194.3" font-family="Times,serif" font-size="14.00">comp 0</text>
<text text-anchor="middle" x="197.5" y="-179.3" font-family="Times,serif" font-size="14.00">log gamma1: 0.032964 &#160;&#160;log gamma2: 0.191436</text>
<text text-anchor="middle" x="197.5" y="-164.3" font-family="Times,serif" font-size="14.00">n kernels: &#45;15</text>
</g>
<!-- 1&#45;&gt;4 -->
<g id="edge4" class="edge"><title>1&#45;&gt;4</title>
<path fill="none" stroke="black" d="M892.941,-290.461C800.429,-283.591 577.732,-264.854 393.5,-232 363.288,-226.612 330.803,-219.292 301.138,-211.992"/>
<polygon fill="black" stroke="black" points="301.742,-208.535 291.193,-209.52 300.054,-215.329 301.742,-208.535"/>
</g>
<!-- 5 -->
<g id="node6" class="node"><title>5</title>
<path fill="#bfe6e6" stroke="black" d="M674,-202C674,-202 415,-202 415,-202 409,-202 403,-196 403,-190 403,-190 403,-176 403,-176 403,-170 409,-164 415,-164 415,-164 674,-164 674,-164 680,-164 686,-170 686,-176 686,-176 686,-190 686,-190 686,-196 680,-202 674,-202"/>
<text text-anchor="middle" x="544.5" y="-186.8" font-family="Times,serif" font-size="14.00">comp 1</text>
<text text-anchor="middle" x="544.5" y="-171.8" font-family="Times,serif" font-size="14.00">log gamma1: 1.379378 &#160;&#160;log gamma2: 0.191436</text>
</g>
<!-- 1&#45;&gt;5 -->
<g id="edge5" class="edge"><title>1&#45;&gt;5</title>
<path fill="none" stroke="black" d="M892.674,-281.258C826.478,-262.767 700.151,-227.479 619.238,-204.877"/>
<polygon fill="black" stroke="black" points="619.687,-201.368 609.114,-202.049 617.803,-208.11 619.687,-201.368"/>
</g>
<!-- 6 -->
<g id="node7" class="node"><title>6</title>
<path fill="#abcece" stroke="black" d="M905.5,-202C905.5,-202 785.5,-202 785.5,-202 779.5,-202 773.5,-196 773.5,-190 773.5,-190 773.5,-176 773.5,-176 773.5,-170 779.5,-164 785.5,-164 785.5,-164 905.5,-164 905.5,-164 911.5,-164 917.5,-170 917.5,-176 917.5,-176 917.5,-190 917.5,-190 917.5,-196 911.5,-202 905.5,-202"/>
<text text-anchor="middle" x="845.5" y="-186.8" font-family="Times,serif" font-size="14.00">comp 2</text>
<text text-anchor="middle" x="845.5" y="-171.8" font-family="Times,serif" font-size="14.00">log gamma1: 0.313803</text>
</g>
<!-- 1&#45;&gt;6 -->
<g id="edge6" class="edge"><title>1&#45;&gt;6</title>
<path fill="none" stroke="black" d="M922.281,-276.391C907.454,-258.549 884.036,-230.37 866.958,-209.82"/>
<polygon fill="black" stroke="black" points="869.61,-207.536 860.527,-202.082 864.227,-212.01 869.61,-207.536"/>
</g>
<!-- 7 -->
<g id="node8" class="node"><title>7</title>
<path fill="#97b6b6" stroke="black" d="M1057,-202C1057,-202 996,-202 996,-202 990,-202 984,-196 984,-190 984,-190 984,-176 984,-176 984,-170 990,-164 996,-164 996,-164 1057,-164 1057,-164 1063,-164 1069,-170 1069,-176 1069,-176 1069,-190 1069,-190 1069,-196 1063,-202 1057,-202"/>
<text text-anchor="middle" x="1026.5" y="-186.8" font-family="Times,serif" font-size="14.00">comp 3</text>
<text text-anchor="middle" x="1026.5" y="-171.8" font-family="Times,serif" font-size="14.00">n kernels: &#45;4</text>
</g>
<!-- 1&#45;&gt;7 -->
<g id="edge7" class="edge"><title>1&#45;&gt;7</title>
<path fill="none" stroke="black" d="M950.562,-276.391C965.227,-258.549 988.388,-230.37 1005.28,-209.82"/>
<polygon fill="black" stroke="black" points="1007.99,-212.03 1011.64,-202.082 1002.58,-207.585 1007.99,-212.03"/>
</g>
<!-- 8 -->
<g id="node9" class="node"><title>8</title>
<path fill="#839e9e" stroke="black" d="M1362.5,-202C1362.5,-202 1242.5,-202 1242.5,-202 1236.5,-202 1230.5,-196 1230.5,-190 1230.5,-190 1230.5,-176 1230.5,-176 1230.5,-170 1236.5,-164 1242.5,-164 1242.5,-164 1362.5,-164 1362.5,-164 1368.5,-164 1374.5,-170 1374.5,-176 1374.5,-176 1374.5,-190 1374.5,-190 1374.5,-196 1368.5,-202 1362.5,-202"/>
<text text-anchor="middle" x="1302.5" y="-186.8" font-family="Times,serif" font-size="14.00">comp 4</text>
<text text-anchor="middle" x="1302.5" y="-171.8" font-family="Times,serif" font-size="14.00">log gamma1: 0.938699</text>
</g>
<!-- 1&#45;&gt;8 -->
<g id="edge8" class="edge"><title>1&#45;&gt;8</title>
<path fill="none" stroke="black" d="M980.285,-280.401C1042.75,-261.712 1158.11,-227.2 1232.51,-204.94"/>
<polygon fill="black" stroke="black" points="1233.7,-208.238 1242.27,-202.018 1231.69,-201.532 1233.7,-208.238"/>
</g>
<!-- 9 -->
<g id="node10" class="node"><title>9</title>
<path fill="#d3ffff" stroke="black" d="M1975,-202C1975,-202 1716,-202 1716,-202 1710,-202 1704,-196 1704,-190 1704,-190 1704,-176 1704,-176 1704,-170 1710,-164 1716,-164 1716,-164 1975,-164 1975,-164 1981,-164 1987,-170 1987,-176 1987,-176 1987,-190 1987,-190 1987,-196 1981,-202 1975,-202"/>
<text text-anchor="middle" x="1845.5" y="-186.8" font-family="Times,serif" font-size="14.00">comp 0</text>
<text text-anchor="middle" x="1845.5" y="-171.8" font-family="Times,serif" font-size="14.00">log gamma1: 1.027548 &#160;&#160;log gamma2: 0.191436</text>
</g>
<!-- 2&#45;&gt;9 -->
<g id="edge9" class="edge"><title>2&#45;&gt;9</title>
<path fill="none" stroke="black" d="M2556,-285.086C2434.44,-275.586 2240.09,-257.985 2073.5,-232 2026.04,-224.597 1973.55,-213.734 1930.91,-204.213"/>
<polygon fill="black" stroke="black" points="1931.66,-200.794 1921.13,-202.015 1930.12,-207.623 1931.66,-200.794"/>
</g>
<!-- 10 -->
<g id="node11" class="node"><title>10</title>
<path fill="#bfe6e6" stroke="black" d="M2306,-202C2306,-202 2095,-202 2095,-202 2089,-202 2083,-196 2083,-190 2083,-190 2083,-176 2083,-176 2083,-170 2089,-164 2095,-164 2095,-164 2306,-164 2306,-164 2312,-164 2318,-170 2318,-176 2318,-176 2318,-190 2318,-190 2318,-196 2312,-202 2306,-202"/>
<text text-anchor="middle" x="2200.5" y="-186.8" font-family="Times,serif" font-size="14.00">comp 1</text>
<text text-anchor="middle" x="2200.5" y="-171.8" font-family="Times,serif" font-size="14.00">log gamma1: &#45;0.600570 &#160;&#160;n kernels: &#45;92</text>
</g>
<!-- 2&#45;&gt;10 -->
<g id="edge10" class="edge"><title>2&#45;&gt;10</title>
<path fill="none" stroke="black" d="M2563.97,-267.965C2480.02,-248.572 2366.13,-222.262 2288.35,-204.294"/>
<polygon fill="black" stroke="black" points="2289.1,-200.876 2278.57,-202.036 2287.53,-207.697 2289.1,-200.876"/>
</g>
<!-- 11 -->
<g id="node12" class="node"><title>11</title>
<path fill="#abcece" stroke="black" d="M2492.5,-201C2492.5,-201 2458.5,-201 2458.5,-201 2452.5,-201 2446.5,-195 2446.5,-189 2446.5,-189 2446.5,-177 2446.5,-177 2446.5,-171 2452.5,-165 2458.5,-165 2458.5,-165 2492.5,-165 2492.5,-165 2498.5,-165 2504.5,-171 2504.5,-177 2504.5,-177 2504.5,-189 2504.5,-189 2504.5,-195 2498.5,-201 2492.5,-201"/>
<text text-anchor="middle" x="2475.5" y="-179.3" font-family="Times,serif" font-size="14.00">comp 2</text>
</g>
<!-- 2&#45;&gt;11 -->
<g id="edge11" class="edge"><title>2&#45;&gt;11</title>
<path fill="none" stroke="black" d="M2628.09,-267.965C2593.24,-248.787 2546.1,-222.846 2513.47,-204.896"/>
<polygon fill="black" stroke="black" points="2515.13,-201.811 2504.68,-200.057 2511.76,-207.944 2515.13,-201.811"/>
</g>
<!-- 12 -->
<g id="node13" class="node"><title>12</title>
<path fill="#97b6b6" stroke="black" d="M2691.5,-201C2691.5,-201 2657.5,-201 2657.5,-201 2651.5,-201 2645.5,-195 2645.5,-189 2645.5,-189 2645.5,-177 2645.5,-177 2645.5,-171 2651.5,-165 2657.5,-165 2657.5,-165 2691.5,-165 2691.5,-165 2697.5,-165 2703.5,-171 2703.5,-177 2703.5,-177 2703.5,-189 2703.5,-189 2703.5,-195 2697.5,-201 2691.5,-201"/>
<text text-anchor="middle" x="2674.5" y="-179.3" font-family="Times,serif" font-size="14.00">comp 3</text>
</g>
<!-- 2&#45;&gt;12 -->
<g id="edge12" class="edge"><title>2&#45;&gt;12</title>
<path fill="none" stroke="black" d="M2674.5,-267.827C2674.5,-250.866 2674.5,-228.661 2674.5,-211.366"/>
<polygon fill="black" stroke="black" points="2678,-211.322 2674.5,-201.322 2671,-211.322 2678,-211.322"/>
</g>
<!-- 13 -->
<g id="node14" class="node"><title>13</title>
<path fill="#839e9e" stroke="black" d="M2767.5,-201C2767.5,-201 2733.5,-201 2733.5,-201 2727.5,-201 2721.5,-195 2721.5,-189 2721.5,-189 2721.5,-177 2721.5,-177 2721.5,-171 2727.5,-165 2733.5,-165 2733.5,-165 2767.5,-165 2767.5,-165 2773.5,-165 2779.5,-171 2779.5,-177 2779.5,-177 2779.5,-189 2779.5,-189 2779.5,-195 2773.5,-201 2767.5,-201"/>
<text text-anchor="middle" x="2750.5" y="-179.3" font-family="Times,serif" font-size="14.00">comp 4</text>
</g>
<!-- 2&#45;&gt;13 -->
<g id="edge13" class="edge"><title>2&#45;&gt;13</title>
<path fill="none" stroke="black" d="M2692.32,-267.827C2704.42,-250.386 2720.38,-227.4 2732.52,-209.909"/>
<polygon fill="black" stroke="black" points="2735.65,-211.533 2738.48,-201.322 2729.9,-207.542 2735.65,-211.533"/>
</g>
<!-- 14 -->
<g id="node15" class="node"><title>14</title>
<path fill="#6f8585" stroke="black" d="M2843.5,-201C2843.5,-201 2809.5,-201 2809.5,-201 2803.5,-201 2797.5,-195 2797.5,-189 2797.5,-189 2797.5,-177 2797.5,-177 2797.5,-171 2803.5,-165 2809.5,-165 2809.5,-165 2843.5,-165 2843.5,-165 2849.5,-165 2855.5,-171 2855.5,-177 2855.5,-177 2855.5,-189 2855.5,-189 2855.5,-195 2849.5,-201 2843.5,-201"/>
<text text-anchor="middle" x="2826.5" y="-179.3" font-family="Times,serif" font-size="14.00">comp 5</text>
</g>
<!-- 2&#45;&gt;14 -->
<g id="edge14" class="edge"><title>2&#45;&gt;14</title>
<path fill="none" stroke="black" d="M2732.75,-267.869C2751.58,-258.117 2771.87,-245.946 2788.5,-232 2796.15,-225.579 2803.31,-217.402 2809.3,-209.624"/>
<polygon fill="black" stroke="black" points="2812.21,-211.573 2815.32,-201.443 2806.57,-207.427 2812.21,-211.573"/>
</g>
<!-- 15 -->
<g id="node16" class="node"><title>15</title>
<path fill="#5b6d6d" stroke="black" d="M3031.5,-202C3031.5,-202 2885.5,-202 2885.5,-202 2879.5,-202 2873.5,-196 2873.5,-190 2873.5,-190 2873.5,-176 2873.5,-176 2873.5,-170 2879.5,-164 2885.5,-164 2885.5,-164 3031.5,-164 3031.5,-164 3037.5,-164 3043.5,-170 3043.5,-176 3043.5,-176 3043.5,-190 3043.5,-190 3043.5,-196 3037.5,-202 3031.5,-202"/>
<text text-anchor="middle" x="2958.5" y="-186.8" font-family="Times,serif" font-size="14.00">path end 1</text>
<text text-anchor="middle" x="2958.5" y="-171.8" font-family="Times,serif" font-size="14.00">k width: &#45;2 &#160;&#160;n kernels: &#45;110</text>
</g>
<!-- 2&#45;&gt;15 -->
<g id="edge15" class="edge"><title>2&#45;&gt;15</title>
<path fill="none" stroke="black" d="M2763.53,-267.898C2795.75,-257.796 2832.15,-245.397 2864.5,-232 2882.05,-224.733 2900.8,-215.482 2916.9,-207.044"/>
<polygon fill="black" stroke="black" points="2918.85,-209.971 2926.04,-202.191 2915.57,-203.787 2918.85,-209.971"/>
</g>
<!-- 16 -->
<g id="node17" class="node"><title>16</title>
<path fill="#d3ffff" stroke="black" d="M3355,-232C3355,-232 3074,-232 3074,-232 3068,-232 3062,-226 3062,-220 3062,-220 3062,-146 3062,-146 3062,-140 3068,-134 3074,-134 3074,-134 3355,-134 3355,-134 3361,-134 3367,-140 3367,-146 3367,-146 3367,-220 3367,-220 3367,-226 3361,-232 3355,-232"/>
<text text-anchor="middle" x="3214.5" y="-216.8" font-family="Times,serif" font-size="14.00">forward</text>
<text text-anchor="middle" x="3214.5" y="-201.8" font-family="Times,serif" font-size="14.00">CB0/C4</text>
<text text-anchor="middle" x="3214.5" y="-186.8" font-family="Times,serif" font-size="14.00">dilation rate: 1 &#160;&#160;k width: 3</text>
<text text-anchor="middle" x="3214.5" y="-171.8" font-family="Times,serif" font-size="14.00">log gamma1: &#45;11.000000 &#160;&#160;log gamma2: &#45;11.000000</text>
<text text-anchor="middle" x="3214.5" y="-156.8" font-family="Times,serif" font-size="14.00">log lambda1: &#45;11.000000 &#160;&#160;log lambda2: &#45;11.000000</text>
<text text-anchor="middle" x="3214.5" y="-141.8" font-family="Times,serif" font-size="14.00">n kernels: 64</text>
</g>
<!-- 3&#45;&gt;16 -->
<g id="edge16" class="edge"><title>3&#45;&gt;16</title>
<path fill="none" stroke="black" d="M3214.5,-276.391C3214.5,-266.993 3214.5,-254.728 3214.5,-242.22"/>
<polygon fill="black" stroke="black" points="3218,-242.188 3214.5,-232.188 3211,-242.188 3218,-242.188"/>
</g>
<!-- 17 -->
<g id="node18" class="node"><title>17</title>
<path fill="#bfe6e6" stroke="black" d="M3678,-232C3678,-232 3397,-232 3397,-232 3391,-232 3385,-226 3385,-220 3385,-220 3385,-146 3385,-146 3385,-140 3391,-134 3397,-134 3397,-134 3678,-134 3678,-134 3684,-134 3690,-140 3690,-146 3690,-146 3690,-220 3690,-220 3690,-226 3684,-232 3678,-232"/>
<text text-anchor="middle" x="3537.5" y="-216.8" font-family="Times,serif" font-size="14.00">residual 1</text>
<text text-anchor="middle" x="3537.5" y="-201.8" font-family="Times,serif" font-size="14.00">CB1/PE1</text>
<text text-anchor="middle" x="3537.5" y="-186.8" font-family="Times,serif" font-size="14.00">dilation rate: 1 &#160;&#160;k width: 3</text>
<text text-anchor="middle" x="3537.5" y="-171.8" font-family="Times,serif" font-size="14.00">log gamma1: &#45;11.000000 &#160;&#160;log gamma2: &#45;11.000000</text>
<text text-anchor="middle" x="3537.5" y="-156.8" font-family="Times,serif" font-size="14.00">log lambda1: &#45;11.000000 &#160;&#160;log lambda2: &#45;11.000000</text>
<text text-anchor="middle" x="3537.5" y="-141.8" font-family="Times,serif" font-size="14.00">n kernels: 64</text>
</g>
<!-- 3&#45;&gt;17 -->
<g id="edge17" class="edge"><title>3&#45;&gt;17</title>
<path fill="none" stroke="black" d="M3260.09,-278.044C3293.21,-266.816 3340.08,-250.928 3385.88,-235.402"/>
<polygon fill="black" stroke="black" points="3387.28,-238.621 3395.63,-232.096 3385.03,-231.991 3387.28,-238.621"/>
</g>
<!-- 18 -->
<g id="node19" class="node"><title>18</title>
<path fill="#e9d3ff" stroke="black" d="M293,-98C293,-98 12,-98 12,-98 6,-98 0,-92 0,-86 0,-86 0,-12 0,-12 0,-6 6,-0 12,-0 12,-0 293,-0 293,-0 299,-0 305,-6 305,-12 305,-12 305,-86 305,-86 305,-92 299,-98 293,-98"/>
<text text-anchor="middle" x="152.5" y="-82.8" font-family="Times,serif" font-size="14.00">forward</text>
<text text-anchor="middle" x="152.5" y="-67.8" font-family="Times,serif" font-size="14.00">input</text>
<text text-anchor="middle" x="152.5" y="-52.8" font-family="Times,serif" font-size="14.00">dilation rate: 1 &#160;&#160;k width: 3</text>
<text text-anchor="middle" x="152.5" y="-37.8" font-family="Times,serif" font-size="14.00">log gamma1: &#45;11.000000 &#160;&#160;log gamma2: &#45;11.000000</text>
<text text-anchor="middle" x="152.5" y="-22.8" font-family="Times,serif" font-size="14.00">log lambda1: &#45;11.000000 &#160;&#160;log lambda2: &#45;11.000000</text>
<text text-anchor="middle" x="152.5" y="-7.8" font-family="Times,serif" font-size="14.00">n kernels: 64</text>
</g>
<!-- 4&#45;&gt;18 -->
<g id="edge18" class="edge"><title>4&#45;&gt;18</title>
<path fill="none" stroke="black" d="M188.717,-156.236C184.013,-142.438 178.015,-124.845 172.261,-107.965"/>
<polygon fill="black" stroke="black" points="175.452,-106.478 168.912,-98.1423 168.826,-108.737 175.452,-106.478"/>
</g>
<!-- 19 -->
<g id="node20" class="node"><title>19</title>
<path fill="#e9d3ff" stroke="black" d="M616,-98C616,-98 335,-98 335,-98 329,-98 323,-92 323,-86 323,-86 323,-12 323,-12 323,-6 329,-0 335,-0 335,-0 616,-0 616,-0 622,-0 628,-6 628,-12 628,-12 628,-86 628,-86 628,-92 622,-98 616,-98"/>
<text text-anchor="middle" x="475.5" y="-82.8" font-family="Times,serif" font-size="14.00">forward</text>
<text text-anchor="middle" x="475.5" y="-67.8" font-family="Times,serif" font-size="14.00">CB0/C0</text>
<text text-anchor="middle" x="475.5" y="-52.8" font-family="Times,serif" font-size="14.00">dilation rate: 1 &#160;&#160;k width: 3</text>
<text text-anchor="middle" x="475.5" y="-37.8" font-family="Times,serif" font-size="14.00">log gamma1: &#45;11.000000 &#160;&#160;log gamma2: &#45;11.000000</text>
<text text-anchor="middle" x="475.5" y="-22.8" font-family="Times,serif" font-size="14.00">log lambda1: &#45;11.000000 &#160;&#160;log lambda2: &#45;11.000000</text>
<text text-anchor="middle" x="475.5" y="-7.8" font-family="Times,serif" font-size="14.00">n kernels: 64</text>
</g>
<!-- 5&#45;&gt;19 -->
<g id="edge19" class="edge"><title>5&#45;&gt;19</title>
<path fill="none" stroke="black" d="M535.051,-163.923C527.366,-149.223 516.085,-127.641 505.403,-107.205"/>
<polygon fill="black" stroke="black" points="508.447,-105.474 500.713,-98.2336 502.244,-108.717 508.447,-105.474"/>
</g>
<!-- 20 -->
<g id="node21" class="node"><title>20</title>
<path fill="#e9d3ff" stroke="black" d="M939,-98C939,-98 658,-98 658,-98 652,-98 646,-92 646,-86 646,-86 646,-12 646,-12 646,-6 652,-0 658,-0 658,-0 939,-0 939,-0 945,-0 951,-6 951,-12 951,-12 951,-86 951,-86 951,-92 945,-98 939,-98"/>
<text text-anchor="middle" x="798.5" y="-82.8" font-family="Times,serif" font-size="14.00">forward</text>
<text text-anchor="middle" x="798.5" y="-67.8" font-family="Times,serif" font-size="14.00">CB0/C1</text>
<text text-anchor="middle" x="798.5" y="-52.8" font-family="Times,serif" font-size="14.00">dilation rate: 1 &#160;&#160;k width: 3</text>
<text text-anchor="middle" x="798.5" y="-37.8" font-family="Times,serif" font-size="14.00">log gamma1: &#45;11.000000 &#160;&#160;log gamma2: &#45;11.000000</text>
<text text-anchor="middle" x="798.5" y="-22.8" font-family="Times,serif" font-size="14.00">log lambda1: &#45;11.000000 &#160;&#160;log lambda2: &#45;11.000000</text>
<text text-anchor="middle" x="798.5" y="-7.8" font-family="Times,serif" font-size="14.00">n kernels: 64</text>
</g>
<!-- 6&#45;&gt;20 -->
<g id="edge20" class="edge"><title>6&#45;&gt;20</title>
<path fill="none" stroke="black" d="M839.063,-163.923C833.876,-149.355 826.283,-128.028 819.064,-107.755"/>
<polygon fill="black" stroke="black" points="822.326,-106.48 815.674,-98.2336 815.731,-108.828 822.326,-106.48"/>
</g>
<!-- 21 -->
<g id="node22" class="node"><title>21</title>
<path fill="#e9d3ff" stroke="black" d="M1262,-98C1262,-98 981,-98 981,-98 975,-98 969,-92 969,-86 969,-86 969,-12 969,-12 969,-6 975,-0 981,-0 981,-0 1262,-0 1262,-0 1268,-0 1274,-6 1274,-12 1274,-12 1274,-86 1274,-86 1274,-92 1268,-98 1262,-98"/>
<text text-anchor="middle" x="1121.5" y="-82.8" font-family="Times,serif" font-size="14.00">forward</text>
<text text-anchor="middle" x="1121.5" y="-67.8" font-family="Times,serif" font-size="14.00">CB0/C2</text>
<text text-anchor="middle" x="1121.5" y="-52.8" font-family="Times,serif" font-size="14.00">dilation rate: 1 &#160;&#160;k width: 3</text>
<text text-anchor="middle" x="1121.5" y="-37.8" font-family="Times,serif" font-size="14.00">log gamma1: &#45;11.000000 &#160;&#160;log gamma2: &#45;11.000000</text>
<text text-anchor="middle" x="1121.5" y="-22.8" font-family="Times,serif" font-size="14.00">log lambda1: &#45;11.000000 &#160;&#160;log lambda2: &#45;11.000000</text>
<text text-anchor="middle" x="1121.5" y="-7.8" font-family="Times,serif" font-size="14.00">n kernels: 64</text>
</g>
<!-- 7&#45;&gt;21 -->
<g id="edge21" class="edge"><title>7&#45;&gt;21</title>
<path fill="none" stroke="black" d="M1039.51,-163.923C1050.23,-149.025 1066.04,-127.059 1080.92,-106.381"/>
<polygon fill="black" stroke="black" points="1083.79,-108.395 1086.79,-98.2336 1078.1,-104.306 1083.79,-108.395"/>
</g>
<!-- 22 -->
<g id="node23" class="node"><title>22</title>
<path fill="#e9d3ff" stroke="black" d="M1585,-98C1585,-98 1304,-98 1304,-98 1298,-98 1292,-92 1292,-86 1292,-86 1292,-12 1292,-12 1292,-6 1298,-0 1304,-0 1304,-0 1585,-0 1585,-0 1591,-0 1597,-6 1597,-12 1597,-12 1597,-86 1597,-86 1597,-92 1591,-98 1585,-98"/>
<text text-anchor="middle" x="1444.5" y="-82.8" font-family="Times,serif" font-size="14.00">forward</text>
<text text-anchor="middle" x="1444.5" y="-67.8" font-family="Times,serif" font-size="14.00">CB0/C3</text>
<text text-anchor="middle" x="1444.5" y="-52.8" font-family="Times,serif" font-size="14.00">dilation rate: 1 &#160;&#160;k width: 3</text>
<text text-anchor="middle" x="1444.5" y="-37.8" font-family="Times,serif" font-size="14.00">log gamma1: &#45;11.000000 &#160;&#160;log gamma2: &#45;11.000000</text>
<text text-anchor="middle" x="1444.5" y="-22.8" font-family="Times,serif" font-size="14.00">log lambda1: &#45;11.000000 &#160;&#160;log lambda2: &#45;11.000000</text>
<text text-anchor="middle" x="1444.5" y="-7.8" font-family="Times,serif" font-size="14.00">n kernels: 64</text>
</g>
<!-- 8&#45;&gt;22 -->
<g id="edge22" class="edge"><title>8&#45;&gt;22</title>
<path fill="none" stroke="black" d="M1321.95,-163.923C1338.26,-148.761 1362.44,-126.279 1385.03,-105.284"/>
<polygon fill="black" stroke="black" points="1387.67,-107.606 1392.61,-98.2336 1382.91,-102.479 1387.67,-107.606"/>
</g>
<!-- 23 -->
<g id="node24" class="node"><title>23</title>
<path fill="#e9d3ff" stroke="black" d="M1908,-98C1908,-98 1627,-98 1627,-98 1621,-98 1615,-92 1615,-86 1615,-86 1615,-12 1615,-12 1615,-6 1621,-0 1627,-0 1627,-0 1908,-0 1908,-0 1914,-0 1920,-6 1920,-12 1920,-12 1920,-86 1920,-86 1920,-92 1914,-98 1908,-98"/>
<text text-anchor="middle" x="1767.5" y="-82.8" font-family="Times,serif" font-size="14.00">forward</text>
<text text-anchor="middle" x="1767.5" y="-67.8" font-family="Times,serif" font-size="14.00">input</text>
<text text-anchor="middle" x="1767.5" y="-52.8" font-family="Times,serif" font-size="14.00">dilation rate: 1 &#160;&#160;k width: 3</text>
<text text-anchor="middle" x="1767.5" y="-37.8" font-family="Times,serif" font-size="14.00">log gamma1: &#45;11.000000 &#160;&#160;log gamma2: &#45;11.000000</text>
<text text-anchor="middle" x="1767.5" y="-22.8" font-family="Times,serif" font-size="14.00">log lambda1: &#45;11.000000 &#160;&#160;log lambda2: &#45;11.000000</text>
<text text-anchor="middle" x="1767.5" y="-7.8" font-family="Times,serif" font-size="14.00">n kernels: 64</text>
</g>
<!-- 9&#45;&gt;23 -->
<g id="edge23" class="edge"><title>9&#45;&gt;23</title>
<path fill="none" stroke="black" d="M1834.82,-163.923C1826.09,-149.157 1813.26,-127.447 1801.14,-106.93"/>
<polygon fill="black" stroke="black" points="1804.1,-105.062 1796,-98.2336 1798.08,-108.623 1804.1,-105.062"/>
</g>
<!-- 24 -->
<g id="node25" class="node"><title>24</title>
<path fill="#e9d3ff" stroke="black" d="M2231,-98C2231,-98 1950,-98 1950,-98 1944,-98 1938,-92 1938,-86 1938,-86 1938,-12 1938,-12 1938,-6 1944,-0 1950,-0 1950,-0 2231,-0 2231,-0 2237,-0 2243,-6 2243,-12 2243,-12 2243,-86 2243,-86 2243,-92 2237,-98 2231,-98"/>
<text text-anchor="middle" x="2090.5" y="-82.8" font-family="Times,serif" font-size="14.00">forward</text>
<text text-anchor="middle" x="2090.5" y="-67.8" font-family="Times,serif" font-size="14.00">CB1/C0</text>
<text text-anchor="middle" x="2090.5" y="-52.8" font-family="Times,serif" font-size="14.00">dilation rate: 1 &#160;&#160;k width: 3</text>
<text text-anchor="middle" x="2090.5" y="-37.8" font-family="Times,serif" font-size="14.00">log gamma1: &#45;11.000000 &#160;&#160;log gamma2: &#45;11.000000</text>
<text text-anchor="middle" x="2090.5" y="-22.8" font-family="Times,serif" font-size="14.00">log lambda1: &#45;11.000000 &#160;&#160;log lambda2: &#45;11.000000</text>
<text text-anchor="middle" x="2090.5" y="-7.8" font-family="Times,serif" font-size="14.00">n kernels: 64</text>
</g>
<!-- 10&#45;&gt;24 -->
<g id="edge24" class="edge"><title>10&#45;&gt;24</title>
<path fill="none" stroke="black" d="M2185.44,-163.923C2172.97,-148.959 2154.55,-126.865 2137.26,-106.106"/>
<polygon fill="black" stroke="black" points="2139.79,-103.675 2130.69,-98.2336 2134.41,-108.156 2139.79,-103.675"/>
</g>
<!-- 25 -->
<g id="node26" class="node"><title>25</title>
<path fill="#e9d3ff" stroke="black" d="M2554,-98C2554,-98 2273,-98 2273,-98 2267,-98 2261,-92 2261,-86 2261,-86 2261,-12 2261,-12 2261,-6 2267,-0 2273,-0 2273,-0 2554,-0 2554,-0 2560,-0 2566,-6 2566,-12 2566,-12 2566,-86 2566,-86 2566,-92 2560,-98 2554,-98"/>
<text text-anchor="middle" x="2413.5" y="-82.8" font-family="Times,serif" font-size="14.00">forward</text>
<text text-anchor="middle" x="2413.5" y="-67.8" font-family="Times,serif" font-size="14.00">CB1/C1</text>
<text text-anchor="middle" x="2413.5" y="-52.8" font-family="Times,serif" font-size="14.00">dilation rate: 1 &#160;&#160;k width: 3</text>
<text text-anchor="middle" x="2413.5" y="-37.8" font-family="Times,serif" font-size="14.00">log gamma1: &#45;11.000000 &#160;&#160;log gamma2: &#45;11.000000</text>
<text text-anchor="middle" x="2413.5" y="-22.8" font-family="Times,serif" font-size="14.00">log lambda1: &#45;11.000000 &#160;&#160;log lambda2: &#45;11.000000</text>
<text text-anchor="middle" x="2413.5" y="-7.8" font-family="Times,serif" font-size="14.00">n kernels: 64</text>
</g>
<!-- 11&#45;&gt;25 -->
<g id="edge25" class="edge"><title>11&#45;&gt;25</title>
<path fill="none" stroke="black" d="M2467.39,-164.743C2460.5,-150.072 2450.2,-128.142 2440.45,-107.371"/>
<polygon fill="black" stroke="black" points="2443.58,-105.817 2436.16,-98.2533 2437.25,-108.793 2443.58,-105.817"/>
</g>
<!-- 26 -->
<g id="node27" class="node"><title>26</title>
<path fill="#e9d3ff" stroke="black" d="M2877,-98C2877,-98 2596,-98 2596,-98 2590,-98 2584,-92 2584,-86 2584,-86 2584,-12 2584,-12 2584,-6 2590,-0 2596,-0 2596,-0 2877,-0 2877,-0 2883,-0 2889,-6 2889,-12 2889,-12 2889,-86 2889,-86 2889,-92 2883,-98 2877,-98"/>
<text text-anchor="middle" x="2736.5" y="-82.8" font-family="Times,serif" font-size="14.00">forward</text>
<text text-anchor="middle" x="2736.5" y="-67.8" font-family="Times,serif" font-size="14.00">CB1/C2</text>
<text text-anchor="middle" x="2736.5" y="-52.8" font-family="Times,serif" font-size="14.00">dilation rate: 1 &#160;&#160;k width: 3</text>
<text text-anchor="middle" x="2736.5" y="-37.8" font-family="Times,serif" font-size="14.00">log gamma1: &#45;11.000000 &#160;&#160;log gamma2: &#45;11.000000</text>
<text text-anchor="middle" x="2736.5" y="-22.8" font-family="Times,serif" font-size="14.00">log lambda1: &#45;11.000000 &#160;&#160;log lambda2: &#45;11.000000</text>
<text text-anchor="middle" x="2736.5" y="-7.8" font-family="Times,serif" font-size="14.00">n kernels: 64</text>
</g>
<!-- 12&#45;&gt;26 -->
<g id="edge26" class="edge"><title>12&#45;&gt;26</title>
<path fill="none" stroke="black" d="M2682.61,-164.743C2689.5,-150.072 2699.8,-128.142 2709.55,-107.371"/>
<polygon fill="black" stroke="black" points="2712.75,-108.793 2713.84,-98.2533 2706.42,-105.817 2712.75,-108.793"/>
</g>
<!-- 27 -->
<g id="node28" class="node"><title>27</title>
<path fill="#e9d3ff" stroke="black" d="M3200,-98C3200,-98 2919,-98 2919,-98 2913,-98 2907,-92 2907,-86 2907,-86 2907,-12 2907,-12 2907,-6 2913,-0 2919,-0 2919,-0 3200,-0 3200,-0 3206,-0 3212,-6 3212,-12 3212,-12 3212,-86 3212,-86 3212,-92 3206,-98 3200,-98"/>
<text text-anchor="middle" x="3059.5" y="-82.8" font-family="Times,serif" font-size="14.00">forward</text>
<text text-anchor="middle" x="3059.5" y="-67.8" font-family="Times,serif" font-size="14.00">CB1/C3</text>
<text text-anchor="middle" x="3059.5" y="-52.8" font-family="Times,serif" font-size="14.00">dilation rate: 1 &#160;&#160;k width: 3</text>
<text text-anchor="middle" x="3059.5" y="-37.8" font-family="Times,serif" font-size="14.00">log gamma1: &#45;11.000000 &#160;&#160;log gamma2: &#45;11.000000</text>
<text text-anchor="middle" x="3059.5" y="-22.8" font-family="Times,serif" font-size="14.00">log lambda1: &#45;11.000000 &#160;&#160;log lambda2: &#45;11.000000</text>
<text text-anchor="middle" x="3059.5" y="-7.8" font-family="Times,serif" font-size="14.00">n kernels: 64</text>
</g>
<!-- 13&#45;&gt;27 -->
<g id="edge27" class="edge"><title>13&#45;&gt;27</title>
<path fill="none" stroke="black" d="M2760.46,-164.708C2767.19,-154.446 2776.93,-141.932 2788.5,-134 2793.95,-130.265 2842.45,-114.902 2896.94,-98.3155"/>
<polygon fill="black" stroke="black" points="2898.27,-101.572 2906.82,-95.317 2896.23,-94.8741 2898.27,-101.572"/>
</g>
<!-- 28 -->
<g id="node29" class="node"><title>28</title>
<path fill="#e9d3ff" stroke="black" d="M3523,-98C3523,-98 3242,-98 3242,-98 3236,-98 3230,-92 3230,-86 3230,-86 3230,-12 3230,-12 3230,-6 3236,-0 3242,-0 3242,-0 3523,-0 3523,-0 3529,-0 3535,-6 3535,-12 3535,-12 3535,-86 3535,-86 3535,-92 3529,-98 3523,-98"/>
<text text-anchor="middle" x="3382.5" y="-82.8" font-family="Times,serif" font-size="14.00">forward</text>
<text text-anchor="middle" x="3382.5" y="-67.8" font-family="Times,serif" font-size="14.00">CB1/C4</text>
<text text-anchor="middle" x="3382.5" y="-52.8" font-family="Times,serif" font-size="14.00">dilation rate: 1 &#160;&#160;k width: 3</text>
<text text-anchor="middle" x="3382.5" y="-37.8" font-family="Times,serif" font-size="14.00">log gamma1: &#45;11.000000 &#160;&#160;log gamma2: &#45;11.000000</text>
<text text-anchor="middle" x="3382.5" y="-22.8" font-family="Times,serif" font-size="14.00">log lambda1: &#45;11.000000 &#160;&#160;log lambda2: &#45;11.000000</text>
<text text-anchor="middle" x="3382.5" y="-7.8" font-family="Times,serif" font-size="14.00">n kernels: 64</text>
</g>
<!-- 14&#45;&gt;28 -->
<g id="edge28" class="edge"><title>14&#45;&gt;28</title>
<path fill="none" stroke="black" d="M2835.36,-164.823C2841.89,-154.055 2851.82,-140.942 2864.5,-134 2931.72,-97.1909 3127.62,-112.166 3219.72,-97.8594"/>
<polygon fill="black" stroke="black" points="3220.39,-101.297 3229.63,-96.1227 3219.18,-94.4017 3220.39,-101.297"/>
</g>
<!-- 29 -->
<g id="node30" class="node"><title>29</title>
<path fill="#e9d3ff" stroke="black" d="M3846,-98C3846,-98 3565,-98 3565,-98 3559,-98 3553,-92 3553,-86 3553,-86 3553,-12 3553,-12 3553,-6 3559,-0 3565,-0 3565,-0 3846,-0 3846,-0 3852,-0 3858,-6 3858,-12 3858,-12 3858,-86 3858,-86 3858,-92 3852,-98 3846,-98"/>
<text text-anchor="middle" x="3705.5" y="-82.8" font-family="Times,serif" font-size="14.00">forward</text>
<text text-anchor="middle" x="3705.5" y="-67.8" font-family="Times,serif" font-size="14.00">CB1/C5</text>
<text text-anchor="middle" x="3705.5" y="-52.8" font-family="Times,serif" font-size="14.00">dilation rate: 1 &#160;&#160;k width: 3</text>
<text text-anchor="middle" x="3705.5" y="-37.8" font-family="Times,serif" font-size="14.00">log gamma1: &#45;11.000000 &#160;&#160;log gamma2: &#45;11.000000</text>
<text text-anchor="middle" x="3705.5" y="-22.8" font-family="Times,serif" font-size="14.00">log lambda1: &#45;11.000000 &#160;&#160;log lambda2: &#45;11.000000</text>
<text text-anchor="middle" x="3705.5" y="-7.8" font-family="Times,serif" font-size="14.00">n kernels: 64</text>
</g>
<!-- 15&#45;&gt;29 -->
<g id="edge29" class="edge"><title>15&#45;&gt;29</title>
<path fill="none" stroke="black" d="M2986.49,-163.951C3004.57,-153.262 3029.03,-140.563 3052.5,-134 3260.04,-75.9692 3326.25,-135.451 3542.57,-98.0326"/>
<polygon fill="black" stroke="black" points="3543.42,-101.436 3552.65,-96.2378 3542.2,-94.5447 3543.42,-101.436"/>
</g>
</g>
</svg>
