<?xml version="1.0" encoding="UTF-8" standalone="no"?>
<!DOCTYPE svg PUBLIC "-//W3C//DTD SVG 1.1//EN"
 "http://www.w3.org/Graphics/SVG/1.1/DTD/svg11.dtd">
<!-- Generated by graphviz version 2.38.0 (20140413.2041)
 -->
<!-- Title: %3 Pages: 1 -->
<svg width="1228pt" height="298pt"
 viewBox="0.00 0.00 1228.00 298.00" xmlns="http://www.w3.org/2000/svg" xmlns:xlink="http://www.w3.org/1999/xlink">
<g id="graph0" class="graph" transform="scale(1 1) rotate(0) translate(4 294)">
<title>%3</title>
<polygon fill="none" stroke="none" points="-4,4 -4,-294 1224,-294 1224,4 -4,4"/>
<!-- 0 -->
<g id="node1" class="node"><title>0</title>
<path fill="#ffd3d3" stroke="black" d="M682.5,-290C682.5,-290 528.5,-290 528.5,-290 522.5,-290 516.5,-284 516.5,-278 516.5,-278 516.5,-249 516.5,-249 516.5,-243 522.5,-237 528.5,-237 528.5,-237 682.5,-237 682.5,-237 688.5,-237 694.5,-243 694.5,-249 694.5,-249 694.5,-278 694.5,-278 694.5,-284 688.5,-290 682.5,-290"/>
<text text-anchor="middle" x="605.5" y="-274.8" font-family="Times,serif" font-size="14.00">net</text>
<text text-anchor="middle" x="605.5" y="-259.8" font-family="Times,serif" font-size="14.00">dilation rate: 1 &#160;&#160;n kernels: 64</text>
<text text-anchor="middle" x="605.5" y="-244.8" font-family="Times,serif" font-size="14.00">pooling type: 0</text>
</g>
<!-- 1 -->
<g id="node2" class="node"><title>1</title>
<path fill="#e9ffd3" stroke="black" d="M443,-201C443,-201 232,-201 232,-201 226,-201 220,-195 220,-189 220,-189 220,-175 220,-175 220,-169 226,-163 232,-163 232,-163 443,-163 443,-163 449,-163 455,-169 455,-175 455,-175 455,-189 455,-189 455,-195 449,-201 443,-201"/>
<text text-anchor="middle" x="337.5" y="-185.8" font-family="Times,serif" font-size="14.00">conv block 0</text>
<text text-anchor="middle" x="337.5" y="-170.8" font-family="Times,serif" font-size="14.00">dilation rate: 1 &#160;&#160;log gamma1: 1.000000</text>
</g>
<!-- 0&#45;&gt;1 -->
<g id="edge1" class="edge"><title>0&#45;&gt;1</title>
<path fill="none" stroke="black" d="M519.228,-236.908C483.436,-226.291 442.417,-214.123 408.419,-204.037"/>
<polygon fill="black" stroke="black" points="409.15,-200.604 398.567,-201.115 407.159,-207.315 409.15,-200.604"/>
</g>
<!-- 2 -->
<g id="node3" class="node"><title>2</title>
<path fill="#e9ffd3" stroke="black" d="M1006,-201C1006,-201 743,-201 743,-201 737,-201 731,-195 731,-189 731,-189 731,-175 731,-175 731,-169 737,-163 743,-163 743,-163 1006,-163 1006,-163 1012,-163 1018,-169 1018,-175 1018,-175 1018,-189 1018,-189 1018,-195 1012,-201 1006,-201"/>
<text text-anchor="middle" x="874.5" y="-185.8" font-family="Times,serif" font-size="14.00">conv block 1</text>
<text text-anchor="middle" x="874.5" y="-170.8" font-family="Times,serif" font-size="14.00">log gamma1: 1.000000 &#160;&#160;log gamma2: &#45;0.511156</text>
</g>
<!-- 0&#45;&gt;2 -->
<g id="edge2" class="edge"><title>0&#45;&gt;2</title>
<path fill="none" stroke="black" d="M692.094,-236.908C728.02,-226.291 769.191,-214.123 803.317,-204.037"/>
<polygon fill="black" stroke="black" points="804.607,-207.306 813.205,-201.115 802.623,-200.593 804.607,-207.306"/>
</g>
<!-- 3 -->
<g id="node4" class="node"><title>3</title>
<path fill="#d3ffff" stroke="black" d="M73,-119.5C73,-119.5 12,-119.5 12,-119.5 6,-119.5 0,-113.5 0,-107.5 0,-107.5 0,-93.5 0,-93.5 0,-87.5 6,-81.5 12,-81.5 12,-81.5 73,-81.5 73,-81.5 79,-81.5 85,-87.5 85,-93.5 85,-93.5 85,-107.5 85,-107.5 85,-113.5 79,-119.5 73,-119.5"/>
<text text-anchor="middle" x="42.5" y="-104.3" font-family="Times,serif" font-size="14.00">comp 0</text>
<text text-anchor="middle" x="42.5" y="-89.3" font-family="Times,serif" font-size="14.00">n kernels: &#45;4</text>
</g>
<!-- 1&#45;&gt;3 -->
<g id="edge3" class="edge"><title>1&#45;&gt;3</title>
<path fill="none" stroke="black" d="M229.304,-162.998C186.361,-154.324 136.948,-142.404 93.5,-127 90.6528,-125.991 87.7598,-124.859 84.8722,-123.65"/>
<polygon fill="black" stroke="black" points="86.29,-120.45 75.7315,-119.574 83.4389,-126.843 86.29,-120.45"/>
</g>
<!-- 4 -->
<g id="node5" class="node"><title>4</title>
<path fill="#bfe6e6" stroke="black" d="M278,-119.5C278,-119.5 115,-119.5 115,-119.5 109,-119.5 103,-113.5 103,-107.5 103,-107.5 103,-93.5 103,-93.5 103,-87.5 109,-81.5 115,-81.5 115,-81.5 278,-81.5 278,-81.5 284,-81.5 290,-87.5 290,-93.5 290,-93.5 290,-107.5 290,-107.5 290,-113.5 284,-119.5 278,-119.5"/>
<text text-anchor="middle" x="196.5" y="-104.3" font-family="Times,serif" font-size="14.00">comp 1</text>
<text text-anchor="middle" x="196.5" y="-89.3" font-family="Times,serif" font-size="14.00">dilation rate: &#45;1 &#160;&#160;n kernels: &#45;20</text>
</g>
<!-- 1&#45;&gt;4 -->
<g id="edge4" class="edge"><title>1&#45;&gt;4</title>
<path fill="none" stroke="black" d="M305.505,-162.96C285.456,-151.656 259.414,-136.973 237.812,-124.793"/>
<polygon fill="black" stroke="black" points="239.286,-121.606 228.857,-119.744 235.848,-127.704 239.286,-121.606"/>
</g>
<!-- 5 -->
<g id="node6" class="node"><title>5</title>
<path fill="#abcece" stroke="black" d="M354.5,-118.5C354.5,-118.5 320.5,-118.5 320.5,-118.5 314.5,-118.5 308.5,-112.5 308.5,-106.5 308.5,-106.5 308.5,-94.5 308.5,-94.5 308.5,-88.5 314.5,-82.5 320.5,-82.5 320.5,-82.5 354.5,-82.5 354.5,-82.5 360.5,-82.5 366.5,-88.5 366.5,-94.5 366.5,-94.5 366.5,-106.5 366.5,-106.5 366.5,-112.5 360.5,-118.5 354.5,-118.5"/>
<text text-anchor="middle" x="337.5" y="-96.8" font-family="Times,serif" font-size="14.00">comp 2</text>
</g>
<!-- 1&#45;&gt;5 -->
<g id="edge5" class="edge"><title>1&#45;&gt;5</title>
<path fill="none" stroke="black" d="M337.5,-162.96C337.5,-152.892 337.5,-140.144 337.5,-128.871"/>
<polygon fill="black" stroke="black" points="341,-128.651 337.5,-118.651 334,-128.651 341,-128.651"/>
</g>
<!-- 6 -->
<g id="node7" class="node"><title>6</title>
<path fill="#97b6b6" stroke="black" d="M430.5,-118.5C430.5,-118.5 396.5,-118.5 396.5,-118.5 390.5,-118.5 384.5,-112.5 384.5,-106.5 384.5,-106.5 384.5,-94.5 384.5,-94.5 384.5,-88.5 390.5,-82.5 396.5,-82.5 396.5,-82.5 430.5,-82.5 430.5,-82.5 436.5,-82.5 442.5,-88.5 442.5,-94.5 442.5,-94.5 442.5,-106.5 442.5,-106.5 442.5,-112.5 436.5,-118.5 430.5,-118.5"/>
<text text-anchor="middle" x="413.5" y="-96.8" font-family="Times,serif" font-size="14.00">identity</text>
</g>
<!-- 1&#45;&gt;6 -->
<g id="edge6" class="edge"><title>1&#45;&gt;6</title>
<path fill="none" stroke="black" d="M354.746,-162.96C365.164,-152.062 378.585,-138.023 389.969,-126.114"/>
<polygon fill="black" stroke="black" points="392.724,-128.298 397.104,-118.651 387.664,-123.461 392.724,-128.298"/>
</g>
<!-- 7 -->
<g id="node8" class="node"><title>7</title>
<path fill="#d3ffff" stroke="black" d="M732,-127C732,-127 473,-127 473,-127 467,-127 461,-121 461,-115 461,-115 461,-86 461,-86 461,-80 467,-74 473,-74 473,-74 732,-74 732,-74 738,-74 744,-80 744,-86 744,-86 744,-115 744,-115 744,-121 738,-127 732,-127"/>
<text text-anchor="middle" x="602.5" y="-111.8" font-family="Times,serif" font-size="14.00">comp 0</text>
<text text-anchor="middle" x="602.5" y="-96.8" font-family="Times,serif" font-size="14.00">log gamma1: 1.158450 &#160;&#160;log gamma2: 0.635792</text>
<text text-anchor="middle" x="602.5" y="-81.8" font-family="Times,serif" font-size="14.00">n kernels: 15</text>
</g>
<!-- 2&#45;&gt;7 -->
<g id="edge7" class="edge"><title>2&#45;&gt;7</title>
<path fill="none" stroke="black" d="M812.779,-162.96C779.398,-153.204 737.405,-140.93 699.74,-129.921"/>
<polygon fill="black" stroke="black" points="700.335,-126.449 689.755,-127.003 698.372,-133.168 700.335,-126.449"/>
</g>
<!-- 8 -->
<g id="node9" class="node"><title>8</title>
<path fill="#bfe6e6" stroke="black" d="M974.5,-119.5C974.5,-119.5 774.5,-119.5 774.5,-119.5 768.5,-119.5 762.5,-113.5 762.5,-107.5 762.5,-107.5 762.5,-93.5 762.5,-93.5 762.5,-87.5 768.5,-81.5 774.5,-81.5 774.5,-81.5 974.5,-81.5 974.5,-81.5 980.5,-81.5 986.5,-87.5 986.5,-93.5 986.5,-93.5 986.5,-107.5 986.5,-107.5 986.5,-113.5 980.5,-119.5 974.5,-119.5"/>
<text text-anchor="middle" x="874.5" y="-104.3" font-family="Times,serif" font-size="14.00">comp 1</text>
<text text-anchor="middle" x="874.5" y="-89.3" font-family="Times,serif" font-size="14.00">log gamma1: 1.483138 &#160;&#160;n kernels: &#45;8</text>
</g>
<!-- 2&#45;&gt;8 -->
<g id="edge8" class="edge"><title>2&#45;&gt;8</title>
<path fill="none" stroke="black" d="M874.5,-162.96C874.5,-153.17 874.5,-140.845 874.5,-129.807"/>
<polygon fill="black" stroke="black" points="878,-129.744 874.5,-119.744 871,-129.744 878,-129.744"/>
</g>
<!-- 9 -->
<g id="node10" class="node"><title>9</title>
<path fill="#abcece" stroke="black" d="M1050.5,-118.5C1050.5,-118.5 1016.5,-118.5 1016.5,-118.5 1010.5,-118.5 1004.5,-112.5 1004.5,-106.5 1004.5,-106.5 1004.5,-94.5 1004.5,-94.5 1004.5,-88.5 1010.5,-82.5 1016.5,-82.5 1016.5,-82.5 1050.5,-82.5 1050.5,-82.5 1056.5,-82.5 1062.5,-88.5 1062.5,-94.5 1062.5,-94.5 1062.5,-106.5 1062.5,-106.5 1062.5,-112.5 1056.5,-118.5 1050.5,-118.5"/>
<text text-anchor="middle" x="1033.5" y="-96.8" font-family="Times,serif" font-size="14.00">comp 2</text>
</g>
<!-- 2&#45;&gt;9 -->
<g id="edge9" class="edge"><title>2&#45;&gt;9</title>
<path fill="none" stroke="black" d="M919.926,-162.909C943.016,-153.171 971.246,-140.421 995.5,-127 997.221,-126.048 998.964,-125.042 1000.71,-124.001"/>
<polygon fill="black" stroke="black" points="1002.73,-126.863 1009.36,-118.594 999.022,-120.927 1002.73,-126.863"/>
</g>
<!-- 10 -->
<g id="node11" class="node"><title>10</title>
<path fill="#97b6b6" stroke="black" d="M1127.5,-118.5C1127.5,-118.5 1093.5,-118.5 1093.5,-118.5 1087.5,-118.5 1081.5,-112.5 1081.5,-106.5 1081.5,-106.5 1081.5,-94.5 1081.5,-94.5 1081.5,-88.5 1087.5,-82.5 1093.5,-82.5 1093.5,-82.5 1127.5,-82.5 1127.5,-82.5 1133.5,-82.5 1139.5,-88.5 1139.5,-94.5 1139.5,-94.5 1139.5,-106.5 1139.5,-106.5 1139.5,-112.5 1133.5,-118.5 1127.5,-118.5"/>
<text text-anchor="middle" x="1110.5" y="-96.8" font-family="Times,serif" font-size="14.00">identity</text>
</g>
<!-- 2&#45;&gt;10 -->
<g id="edge10" class="edge"><title>2&#45;&gt;10</title>
<path fill="none" stroke="black" d="M963.336,-162.889C997.935,-154.241 1037.39,-142.369 1071.5,-127 1073.6,-126.055 1075.71,-125.005 1077.81,-123.886"/>
<polygon fill="black" stroke="black" points="1079.95,-126.692 1086.83,-118.639 1076.43,-120.641 1079.95,-126.692"/>
</g>
<!-- 11 -->
<g id="node12" class="node"><title>11</title>
<path fill="#e9d3ff" stroke="black" d="M60,-38C60,-38 25,-38 25,-38 19,-38 13,-32 13,-26 13,-26 13,-12 13,-12 13,-6 19,-0 25,-0 25,-0 60,-0 60,-0 66,-0 72,-6 72,-12 72,-12 72,-26 72,-26 72,-32 66,-38 60,-38"/>
<text text-anchor="middle" x="42.5" y="-22.8" font-family="Times,serif" font-size="14.00">forward</text>
<text text-anchor="middle" x="42.5" y="-7.8" font-family="Times,serif" font-size="14.00">input</text>
</g>
<!-- 3&#45;&gt;11 -->
<g id="edge11" class="edge"><title>3&#45;&gt;11</title>
<path fill="none" stroke="black" d="M42.5,-81.4602C42.5,-71.67 42.5,-59.3453 42.5,-48.3073"/>
<polygon fill="black" stroke="black" points="46.0001,-48.2435 42.5,-38.2436 39.0001,-48.2436 46.0001,-48.2435"/>
</g>
<!-- 12 -->
<g id="node13" class="node"><title>12</title>
<path fill="#e9d3ff" stroke="black" d="M215,-38C215,-38 178,-38 178,-38 172,-38 166,-32 166,-26 166,-26 166,-12 166,-12 166,-6 172,-0 178,-0 178,-0 215,-0 215,-0 221,-0 227,-6 227,-12 227,-12 227,-26 227,-26 227,-32 221,-38 215,-38"/>
<text text-anchor="middle" x="196.5" y="-22.8" font-family="Times,serif" font-size="14.00">forward</text>
<text text-anchor="middle" x="196.5" y="-7.8" font-family="Times,serif" font-size="14.00">CB0/C0</text>
</g>
<!-- 4&#45;&gt;12 -->
<g id="edge12" class="edge"><title>4&#45;&gt;12</title>
<path fill="none" stroke="black" d="M196.5,-81.4602C196.5,-71.67 196.5,-59.3453 196.5,-48.3073"/>
<polygon fill="black" stroke="black" points="200,-48.2435 196.5,-38.2436 193,-48.2436 200,-48.2435"/>
</g>
<!-- 13 -->
<g id="node14" class="node"><title>13</title>
<path fill="#e9d3ff" stroke="black" d="M353,-38C353,-38 316,-38 316,-38 310,-38 304,-32 304,-26 304,-26 304,-12 304,-12 304,-6 310,-0 316,-0 316,-0 353,-0 353,-0 359,-0 365,-6 365,-12 365,-12 365,-26 365,-26 365,-32 359,-38 353,-38"/>
<text text-anchor="middle" x="334.5" y="-22.8" font-family="Times,serif" font-size="14.00">forward</text>
<text text-anchor="middle" x="334.5" y="-7.8" font-family="Times,serif" font-size="14.00">CB0/C1</text>
</g>
<!-- 5&#45;&gt;13 -->
<g id="edge13" class="edge"><title>5&#45;&gt;13</title>
<path fill="none" stroke="black" d="M336.849,-82.2497C336.476,-72.352 335.997,-59.6794 335.57,-48.3546"/>
<polygon fill="black" stroke="black" points="339.056,-47.9053 335.181,-38.0444 332.061,-48.1693 339.056,-47.9053"/>
</g>
<!-- 14 -->
<g id="node15" class="node"><title>14</title>
<path fill="#e9d3ff" stroke="black" d="M432,-38C432,-38 395,-38 395,-38 389,-38 383,-32 383,-26 383,-26 383,-12 383,-12 383,-6 389,-0 395,-0 395,-0 432,-0 432,-0 438,-0 444,-6 444,-12 444,-12 444,-26 444,-26 444,-32 438,-38 432,-38"/>
<text text-anchor="middle" x="413.5" y="-22.8" font-family="Times,serif" font-size="14.00">residual</text>
<text text-anchor="middle" x="413.5" y="-7.8" font-family="Times,serif" font-size="14.00">CB0/C0</text>
</g>
<!-- 6&#45;&gt;14 -->
<g id="edge14" class="edge"><title>6&#45;&gt;14</title>
<path fill="none" stroke="black" d="M413.5,-82.2497C413.5,-72.352 413.5,-59.6794 413.5,-48.3546"/>
<polygon fill="black" stroke="black" points="417,-48.0444 413.5,-38.0444 410,-48.0445 417,-48.0444"/>
</g>
<!-- 15 -->
<g id="node16" class="node"><title>15</title>
<path fill="#d3bfe6" stroke="black" d="M511,-38C511,-38 474,-38 474,-38 468,-38 462,-32 462,-26 462,-26 462,-12 462,-12 462,-6 468,-0 474,-0 474,-0 511,-0 511,-0 517,-0 523,-6 523,-12 523,-12 523,-26 523,-26 523,-32 517,-38 511,-38"/>
<text text-anchor="middle" x="492.5" y="-22.8" font-family="Times,serif" font-size="14.00">forward</text>
<text text-anchor="middle" x="492.5" y="-7.8" font-family="Times,serif" font-size="14.00">CB0/C2</text>
</g>
<!-- 6&#45;&gt;15 -->
<g id="edge15" class="edge"><title>6&#45;&gt;15</title>
<path fill="none" stroke="black" d="M430.642,-82.2497C441.39,-71.4337 455.431,-57.3038 467.418,-45.2405"/>
<polygon fill="black" stroke="black" points="470.003,-47.6049 474.569,-38.0444 465.038,-42.6707 470.003,-47.6049"/>
</g>
<!-- 16 -->
<g id="node17" class="node"><title>16</title>
<path fill="#e9d3ff" stroke="black" d="M620,-38C620,-38 585,-38 585,-38 579,-38 573,-32 573,-26 573,-26 573,-12 573,-12 573,-6 579,-0 585,-0 585,-0 620,-0 620,-0 626,-0 632,-6 632,-12 632,-12 632,-26 632,-26 632,-32 626,-38 620,-38"/>
<text text-anchor="middle" x="602.5" y="-22.8" font-family="Times,serif" font-size="14.00">forward</text>
<text text-anchor="middle" x="602.5" y="-7.8" font-family="Times,serif" font-size="14.00">CB0/I</text>
</g>
<!-- 7&#45;&gt;16 -->
<g id="edge16" class="edge"><title>7&#45;&gt;16</title>
<path fill="none" stroke="black" d="M602.5,-73.9081C602.5,-65.7377 602.5,-56.6492 602.5,-48.2981"/>
<polygon fill="black" stroke="black" points="606,-48.2389 602.5,-38.2389 599,-48.2389 606,-48.2389"/>
</g>
<!-- 17 -->
<g id="node18" class="node"><title>17</title>
<path fill="#e9d3ff" stroke="black" d="M893,-38C893,-38 856,-38 856,-38 850,-38 844,-32 844,-26 844,-26 844,-12 844,-12 844,-6 850,-0 856,-0 856,-0 893,-0 893,-0 899,-0 905,-6 905,-12 905,-12 905,-26 905,-26 905,-32 899,-38 893,-38"/>
<text text-anchor="middle" x="874.5" y="-22.8" font-family="Times,serif" font-size="14.00">forward</text>
<text text-anchor="middle" x="874.5" y="-7.8" font-family="Times,serif" font-size="14.00">CB1/C0</text>
</g>
<!-- 8&#45;&gt;17 -->
<g id="edge17" class="edge"><title>8&#45;&gt;17</title>
<path fill="none" stroke="black" d="M874.5,-81.4602C874.5,-71.67 874.5,-59.3453 874.5,-48.3073"/>
<polygon fill="black" stroke="black" points="878,-48.2435 874.5,-38.2436 871,-48.2436 878,-48.2435"/>
</g>
<!-- 18 -->
<g id="node19" class="node"><title>18</title>
<path fill="#e9d3ff" stroke="black" d="M1050,-38C1050,-38 1013,-38 1013,-38 1007,-38 1001,-32 1001,-26 1001,-26 1001,-12 1001,-12 1001,-6 1007,-0 1013,-0 1013,-0 1050,-0 1050,-0 1056,-0 1062,-6 1062,-12 1062,-12 1062,-26 1062,-26 1062,-32 1056,-38 1050,-38"/>
<text text-anchor="middle" x="1031.5" y="-22.8" font-family="Times,serif" font-size="14.00">forward</text>
<text text-anchor="middle" x="1031.5" y="-7.8" font-family="Times,serif" font-size="14.00">CB1/C1</text>
</g>
<!-- 9&#45;&gt;18 -->
<g id="edge18" class="edge"><title>9&#45;&gt;18</title>
<path fill="none" stroke="black" d="M1033.07,-82.2497C1032.82,-72.352 1032.5,-59.6794 1032.21,-48.3546"/>
<polygon fill="black" stroke="black" points="1035.7,-47.9532 1031.95,-38.0444 1028.71,-48.1293 1035.7,-47.9532"/>
</g>
<!-- 19 -->
<g id="node20" class="node"><title>19</title>
<path fill="#e9d3ff" stroke="black" d="M1129,-38C1129,-38 1092,-38 1092,-38 1086,-38 1080,-32 1080,-26 1080,-26 1080,-12 1080,-12 1080,-6 1086,-0 1092,-0 1092,-0 1129,-0 1129,-0 1135,-0 1141,-6 1141,-12 1141,-12 1141,-26 1141,-26 1141,-32 1135,-38 1129,-38"/>
<text text-anchor="middle" x="1110.5" y="-22.8" font-family="Times,serif" font-size="14.00">residual</text>
<text text-anchor="middle" x="1110.5" y="-7.8" font-family="Times,serif" font-size="14.00">CB1/C0</text>
</g>
<!-- 10&#45;&gt;19 -->
<g id="edge19" class="edge"><title>10&#45;&gt;19</title>
<path fill="none" stroke="black" d="M1110.5,-82.2497C1110.5,-72.352 1110.5,-59.6794 1110.5,-48.3546"/>
<polygon fill="black" stroke="black" points="1114,-48.0444 1110.5,-38.0444 1107,-48.0445 1114,-48.0444"/>
</g>
<!-- 20 -->
<g id="node21" class="node"><title>20</title>
<path fill="#d3bfe6" stroke="black" d="M1208,-38C1208,-38 1171,-38 1171,-38 1165,-38 1159,-32 1159,-26 1159,-26 1159,-12 1159,-12 1159,-6 1165,-0 1171,-0 1171,-0 1208,-0 1208,-0 1214,-0 1220,-6 1220,-12 1220,-12 1220,-26 1220,-26 1220,-32 1214,-38 1208,-38"/>
<text text-anchor="middle" x="1189.5" y="-22.8" font-family="Times,serif" font-size="14.00">forward</text>
<text text-anchor="middle" x="1189.5" y="-7.8" font-family="Times,serif" font-size="14.00">CB1/C2</text>
</g>
<!-- 10&#45;&gt;20 -->
<g id="edge20" class="edge"><title>10&#45;&gt;20</title>
<path fill="none" stroke="black" d="M1127.64,-82.2497C1138.39,-71.4337 1152.43,-57.3038 1164.42,-45.2405"/>
<polygon fill="black" stroke="black" points="1167,-47.6049 1171.57,-38.0444 1162.04,-42.6707 1167,-47.6049"/>
</g>
</g>
</svg>
