<?xml version="1.0" encoding="UTF-8" standalone="no"?>
<!DOCTYPE svg PUBLIC "-//W3C//DTD SVG 1.1//EN"
 "http://www.w3.org/Graphics/SVG/1.1/DTD/svg11.dtd">
<!-- Generated by graphviz version 2.38.0 (20140413.2041)
 -->
<!-- Title: %3 Pages: 1 -->
<svg width="4019pt" height="418pt"
 viewBox="0.00 0.00 4019.00 418.00" xmlns="http://www.w3.org/2000/svg" xmlns:xlink="http://www.w3.org/1999/xlink">
<g id="graph0" class="graph" transform="scale(1 1) rotate(0) translate(4 414)">
<title>%3</title>
<polygon fill="none" stroke="none" points="-4,4 -4,-414 4015,-414 4015,4 -4,4"/>
<!-- 0 -->
<g id="node1" class="node"><title>0</title>
<path fill="#ffd3d3" stroke="black" d="M1863,-410C1863,-410 1672,-410 1672,-410 1666,-410 1660,-404 1660,-398 1660,-398 1660,-369 1660,-369 1660,-363 1666,-357 1672,-357 1672,-357 1863,-357 1863,-357 1869,-357 1875,-363 1875,-369 1875,-369 1875,-398 1875,-398 1875,-404 1869,-410 1863,-410"/>
<text text-anchor="middle" x="1767.5" y="-394.8" font-family="Times,serif" font-size="14.00">net</text>
<text text-anchor="middle" x="1767.5" y="-379.8" font-family="Times,serif" font-size="14.00">k width: 3 &#160;&#160;log gamma2: &#45;9.128575</text>
<text text-anchor="middle" x="1767.5" y="-364.8" font-family="Times,serif" font-size="14.00">n kernels: 119</text>
</g>
<!-- 1 -->
<g id="node2" class="node"><title>1</title>
<path fill="#e9ffd3" stroke="black" d="M535.5,-313.5C535.5,-313.5 415.5,-313.5 415.5,-313.5 409.5,-313.5 403.5,-307.5 403.5,-301.5 403.5,-301.5 403.5,-287.5 403.5,-287.5 403.5,-281.5 409.5,-275.5 415.5,-275.5 415.5,-275.5 535.5,-275.5 535.5,-275.5 541.5,-275.5 547.5,-281.5 547.5,-287.5 547.5,-287.5 547.5,-301.5 547.5,-301.5 547.5,-307.5 541.5,-313.5 535.5,-313.5"/>
<text text-anchor="middle" x="475.5" y="-298.3" font-family="Times,serif" font-size="14.00">conv block 0</text>
<text text-anchor="middle" x="475.5" y="-283.3" font-family="Times,serif" font-size="14.00">log gamma2: 0.061089</text>
</g>
<!-- 0&#45;&gt;1 -->
<g id="edge1" class="edge"><title>0&#45;&gt;1</title>
<path fill="none" stroke="black" d="M1659.84,-375.251C1407.53,-358.261 782.401,-316.166 557.639,-301.031"/>
<polygon fill="black" stroke="black" points="557.775,-297.532 547.563,-300.353 557.305,-304.517 557.775,-297.532"/>
</g>
<!-- 2 -->
<g id="node3" class="node"><title>2</title>
<path fill="#e9ffd3" stroke="black" d="M1226,-321C1226,-321 1017,-321 1017,-321 1011,-321 1005,-315 1005,-309 1005,-309 1005,-280 1005,-280 1005,-274 1011,-268 1017,-268 1017,-268 1226,-268 1226,-268 1232,-268 1238,-274 1238,-280 1238,-280 1238,-309 1238,-309 1238,-315 1232,-321 1226,-321"/>
<text text-anchor="middle" x="1121.5" y="-305.8" font-family="Times,serif" font-size="14.00">conv block 1</text>
<text text-anchor="middle" x="1121.5" y="-290.8" font-family="Times,serif" font-size="14.00">log gamma1: 0.336231 &#160;&#160;n kernels: 119</text>
<text text-anchor="middle" x="1121.5" y="-275.8" font-family="Times,serif" font-size="14.00">pool z: 1 &#160;&#160;spatial scale: 1</text>
</g>
<!-- 0&#45;&gt;2 -->
<g id="edge2" class="edge"><title>0&#45;&gt;2</title>
<path fill="none" stroke="black" d="M1659.74,-367.987C1546.35,-352.716 1368.01,-328.698 1248.02,-312.539"/>
<polygon fill="black" stroke="black" points="1248.42,-309.061 1238.04,-311.195 1247.48,-315.998 1248.42,-309.061"/>
</g>
<!-- 3 -->
<g id="node4" class="node"><title>3</title>
<path fill="#e9ffd3" stroke="black" d="M1867.5,-321C1867.5,-321 1667.5,-321 1667.5,-321 1661.5,-321 1655.5,-315 1655.5,-309 1655.5,-309 1655.5,-280 1655.5,-280 1655.5,-274 1661.5,-268 1667.5,-268 1667.5,-268 1867.5,-268 1867.5,-268 1873.5,-268 1879.5,-274 1879.5,-280 1879.5,-280 1879.5,-309 1879.5,-309 1879.5,-315 1873.5,-321 1867.5,-321"/>
<text text-anchor="middle" x="1767.5" y="-305.8" font-family="Times,serif" font-size="14.00">conv block 2</text>
<text text-anchor="middle" x="1767.5" y="-290.8" font-family="Times,serif" font-size="14.00">log gamma2: &#45;0.871425 &#160;&#160;n kernels: 9</text>
<text text-anchor="middle" x="1767.5" y="-275.8" font-family="Times,serif" font-size="14.00">spatial scale: 2</text>
</g>
<!-- 0&#45;&gt;3 -->
<g id="edge3" class="edge"><title>0&#45;&gt;3</title>
<path fill="none" stroke="black" d="M1767.5,-356.868C1767.5,-348.886 1767.5,-339.932 1767.5,-331.384"/>
<polygon fill="black" stroke="black" points="1771,-331.25 1767.5,-321.25 1764,-331.25 1771,-331.25"/>
</g>
<!-- 4 -->
<g id="node5" class="node"><title>4</title>
<path fill="#e9ffd3" stroke="black" d="M2534.5,-313.5C2534.5,-313.5 2382.5,-313.5 2382.5,-313.5 2376.5,-313.5 2370.5,-307.5 2370.5,-301.5 2370.5,-301.5 2370.5,-287.5 2370.5,-287.5 2370.5,-281.5 2376.5,-275.5 2382.5,-275.5 2382.5,-275.5 2534.5,-275.5 2534.5,-275.5 2540.5,-275.5 2546.5,-281.5 2546.5,-287.5 2546.5,-287.5 2546.5,-301.5 2546.5,-301.5 2546.5,-307.5 2540.5,-313.5 2534.5,-313.5"/>
<text text-anchor="middle" x="2458.5" y="-298.3" font-family="Times,serif" font-size="14.00">conv block 3</text>
<text text-anchor="middle" x="2458.5" y="-283.3" font-family="Times,serif" font-size="14.00">n kernels: &#45;7 &#160;&#160;spatial scale: 3</text>
</g>
<!-- 0&#45;&gt;4 -->
<g id="edge4" class="edge"><title>0&#45;&gt;4</title>
<path fill="none" stroke="black" d="M1875.09,-368.954C2007.86,-352.237 2231.76,-324.048 2360.14,-307.884"/>
<polygon fill="black" stroke="black" points="2360.87,-311.32 2370.35,-306.598 2359.99,-304.375 2360.87,-311.32"/>
</g>
<!-- 5 -->
<g id="node6" class="node"><title>5</title>
<path fill="#e9ffd3" stroke="black" d="M3246,-312.5C3246,-312.5 3179,-312.5 3179,-312.5 3173,-312.5 3167,-306.5 3167,-300.5 3167,-300.5 3167,-288.5 3167,-288.5 3167,-282.5 3173,-276.5 3179,-276.5 3179,-276.5 3246,-276.5 3246,-276.5 3252,-276.5 3258,-282.5 3258,-288.5 3258,-288.5 3258,-300.5 3258,-300.5 3258,-306.5 3252,-312.5 3246,-312.5"/>
<text text-anchor="middle" x="3212.5" y="-290.8" font-family="Times,serif" font-size="14.00">path combine</text>
</g>
<!-- 0&#45;&gt;5 -->
<g id="edge5" class="edge"><title>0&#45;&gt;5</title>
<path fill="none" stroke="black" d="M1875.22,-376.014C2162.81,-358.699 2941.38,-311.823 3156.67,-298.861"/>
<polygon fill="black" stroke="black" points="3157.02,-302.347 3166.79,-298.252 3156.6,-295.359 3157.02,-302.347"/>
</g>
<!-- 6 -->
<g id="node7" class="node"><title>6</title>
<path fill="#d3ffff" stroke="black" d="M256.5,-202C256.5,-202 136.5,-202 136.5,-202 130.5,-202 124.5,-196 124.5,-190 124.5,-190 124.5,-176 124.5,-176 124.5,-170 130.5,-164 136.5,-164 136.5,-164 256.5,-164 256.5,-164 262.5,-164 268.5,-170 268.5,-176 268.5,-176 268.5,-190 268.5,-190 268.5,-196 262.5,-202 256.5,-202"/>
<text text-anchor="middle" x="196.5" y="-186.8" font-family="Times,serif" font-size="14.00">comp 0</text>
<text text-anchor="middle" x="196.5" y="-171.8" font-family="Times,serif" font-size="14.00">log gamma2: 1.611035</text>
</g>
<!-- 1&#45;&gt;6 -->
<g id="edge6" class="edge"><title>1&#45;&gt;6</title>
<path fill="none" stroke="black" d="M429.429,-275.418C380.764,-256.318 304.023,-226.2 252.045,-205.8"/>
<polygon fill="black" stroke="black" points="253.227,-202.504 242.64,-202.109 250.67,-209.02 253.227,-202.504"/>
</g>
<!-- 7 -->
<g id="node8" class="node"><title>7</title>
<path fill="#bfe6e6" stroke="black" d="M607,-209.5C607,-209.5 344,-209.5 344,-209.5 338,-209.5 332,-203.5 332,-197.5 332,-197.5 332,-168.5 332,-168.5 332,-162.5 338,-156.5 344,-156.5 344,-156.5 607,-156.5 607,-156.5 613,-156.5 619,-162.5 619,-168.5 619,-168.5 619,-197.5 619,-197.5 619,-203.5 613,-209.5 607,-209.5"/>
<text text-anchor="middle" x="475.5" y="-194.3" font-family="Times,serif" font-size="14.00">comp 1</text>
<text text-anchor="middle" x="475.5" y="-179.3" font-family="Times,serif" font-size="14.00">log gamma1: &#45;1.217873 &#160;&#160;log gamma2: 0.626412</text>
<text text-anchor="middle" x="475.5" y="-164.3" font-family="Times,serif" font-size="14.00">n kernels: &#45;6</text>
</g>
<!-- 1&#45;&gt;7 -->
<g id="edge7" class="edge"><title>1&#45;&gt;7</title>
<path fill="none" stroke="black" d="M475.5,-275.418C475.5,-260.42 475.5,-238.626 475.5,-220.08"/>
<polygon fill="black" stroke="black" points="479,-219.894 475.5,-209.894 472,-219.894 479,-219.894"/>
</g>
<!-- 8 -->
<g id="node9" class="node"><title>8</title>
<path fill="#d3ffff" stroke="black" d="M910.5,-201C910.5,-201 876.5,-201 876.5,-201 870.5,-201 864.5,-195 864.5,-189 864.5,-189 864.5,-177 864.5,-177 864.5,-171 870.5,-165 876.5,-165 876.5,-165 910.5,-165 910.5,-165 916.5,-165 922.5,-171 922.5,-177 922.5,-177 922.5,-189 922.5,-189 922.5,-195 916.5,-201 910.5,-201"/>
<text text-anchor="middle" x="893.5" y="-179.3" font-family="Times,serif" font-size="14.00">comp 0</text>
</g>
<!-- 2&#45;&gt;8 -->
<g id="edge8" class="edge"><title>2&#45;&gt;8</title>
<path fill="none" stroke="black" d="M1068.33,-267.965C1026.48,-247.866 969.162,-220.338 931.741,-202.366"/>
<polygon fill="black" stroke="black" points="933.207,-199.187 922.677,-198.013 930.176,-205.497 933.207,-199.187"/>
</g>
<!-- 9 -->
<g id="node10" class="node"><title>9</title>
<path fill="#bfe6e6" stroke="black" d="M1194.5,-202C1194.5,-202 1048.5,-202 1048.5,-202 1042.5,-202 1036.5,-196 1036.5,-190 1036.5,-190 1036.5,-176 1036.5,-176 1036.5,-170 1042.5,-164 1048.5,-164 1048.5,-164 1194.5,-164 1194.5,-164 1200.5,-164 1206.5,-170 1206.5,-176 1206.5,-176 1206.5,-190 1206.5,-190 1206.5,-196 1200.5,-202 1194.5,-202"/>
<text text-anchor="middle" x="1121.5" y="-186.8" font-family="Times,serif" font-size="14.00">path end 1</text>
<text text-anchor="middle" x="1121.5" y="-171.8" font-family="Times,serif" font-size="14.00">k width: &#45;2 &#160;&#160;n kernels: &#45;119</text>
</g>
<!-- 2&#45;&gt;9 -->
<g id="edge9" class="edge"><title>2&#45;&gt;9</title>
<path fill="none" stroke="black" d="M1121.5,-267.827C1121.5,-251.18 1121.5,-229.482 1121.5,-212.332"/>
<polygon fill="black" stroke="black" points="1125,-212.327 1121.5,-202.327 1118,-212.327 1125,-212.327"/>
</g>
<!-- 10 -->
<g id="node11" class="node"><title>10</title>
<path fill="#d3ffff" stroke="black" d="M1606.5,-202C1606.5,-202 1486.5,-202 1486.5,-202 1480.5,-202 1474.5,-196 1474.5,-190 1474.5,-190 1474.5,-176 1474.5,-176 1474.5,-170 1480.5,-164 1486.5,-164 1486.5,-164 1606.5,-164 1606.5,-164 1612.5,-164 1618.5,-170 1618.5,-176 1618.5,-176 1618.5,-190 1618.5,-190 1618.5,-196 1612.5,-202 1606.5,-202"/>
<text text-anchor="middle" x="1546.5" y="-186.8" font-family="Times,serif" font-size="14.00">comp 0</text>
<text text-anchor="middle" x="1546.5" y="-171.8" font-family="Times,serif" font-size="14.00">log gamma1: 1.039233</text>
</g>
<!-- 3&#45;&gt;10 -->
<g id="edge10" class="edge"><title>3&#45;&gt;10</title>
<path fill="none" stroke="black" d="M1715.96,-267.965C1678.5,-249.401 1628.24,-224.5 1592.2,-206.644"/>
<polygon fill="black" stroke="black" points="1593.42,-203.339 1582.9,-202.036 1590.31,-209.612 1593.42,-203.339"/>
</g>
<!-- 11 -->
<g id="node12" class="node"><title>11</title>
<path fill="#bfe6e6" stroke="black" d="M1784.5,-201C1784.5,-201 1750.5,-201 1750.5,-201 1744.5,-201 1738.5,-195 1738.5,-189 1738.5,-189 1738.5,-177 1738.5,-177 1738.5,-171 1744.5,-165 1750.5,-165 1750.5,-165 1784.5,-165 1784.5,-165 1790.5,-165 1796.5,-171 1796.5,-177 1796.5,-177 1796.5,-189 1796.5,-189 1796.5,-195 1790.5,-201 1784.5,-201"/>
<text text-anchor="middle" x="1767.5" y="-179.3" font-family="Times,serif" font-size="14.00">comp 1</text>
</g>
<!-- 3&#45;&gt;11 -->
<g id="edge11" class="edge"><title>3&#45;&gt;11</title>
<path fill="none" stroke="black" d="M1767.5,-267.827C1767.5,-250.866 1767.5,-228.661 1767.5,-211.366"/>
<polygon fill="black" stroke="black" points="1771,-211.322 1767.5,-201.322 1764,-211.322 1771,-211.322"/>
</g>
<!-- 12 -->
<g id="node13" class="node"><title>12</title>
<path fill="#abcece" stroke="black" d="M2057.5,-202C2057.5,-202 1925.5,-202 1925.5,-202 1919.5,-202 1913.5,-196 1913.5,-190 1913.5,-190 1913.5,-176 1913.5,-176 1913.5,-170 1919.5,-164 1925.5,-164 1925.5,-164 2057.5,-164 2057.5,-164 2063.5,-164 2069.5,-170 2069.5,-176 2069.5,-176 2069.5,-190 2069.5,-190 2069.5,-196 2063.5,-202 2057.5,-202"/>
<text text-anchor="middle" x="1991.5" y="-186.8" font-family="Times,serif" font-size="14.00">path end 2</text>
<text text-anchor="middle" x="1991.5" y="-171.8" font-family="Times,serif" font-size="14.00">k width: &#45;2 &#160;&#160;n kernels: &#45;9</text>
</g>
<!-- 3&#45;&gt;12 -->
<g id="edge12" class="edge"><title>3&#45;&gt;12</title>
<path fill="none" stroke="black" d="M1819.74,-267.965C1857.71,-249.401 1908.65,-224.5 1945.18,-206.644"/>
<polygon fill="black" stroke="black" points="1947.16,-209.572 1954.61,-202.036 1944.08,-203.283 1947.16,-209.572"/>
</g>
<!-- 13 -->
<g id="node14" class="node"><title>13</title>
<path fill="#d3ffff" stroke="black" d="M2430.5,-201C2430.5,-201 2396.5,-201 2396.5,-201 2390.5,-201 2384.5,-195 2384.5,-189 2384.5,-189 2384.5,-177 2384.5,-177 2384.5,-171 2390.5,-165 2396.5,-165 2396.5,-165 2430.5,-165 2430.5,-165 2436.5,-165 2442.5,-171 2442.5,-177 2442.5,-177 2442.5,-189 2442.5,-189 2442.5,-195 2436.5,-201 2430.5,-201"/>
<text text-anchor="middle" x="2413.5" y="-179.3" font-family="Times,serif" font-size="14.00">comp 0</text>
</g>
<!-- 4&#45;&gt;13 -->
<g id="edge13" class="edge"><title>4&#45;&gt;13</title>
<path fill="none" stroke="black" d="M2451.07,-275.418C2443.81,-257.75 2432.67,-230.654 2424.41,-210.543"/>
<polygon fill="black" stroke="black" points="2427.54,-208.946 2420.5,-201.027 2421.06,-211.607 2427.54,-208.946"/>
</g>
<!-- 14 -->
<g id="node15" class="node"><title>14</title>
<path fill="#bfe6e6" stroke="black" d="M2536,-202C2536,-202 2473,-202 2473,-202 2467,-202 2461,-196 2461,-190 2461,-190 2461,-176 2461,-176 2461,-170 2467,-164 2473,-164 2473,-164 2536,-164 2536,-164 2542,-164 2548,-170 2548,-176 2548,-176 2548,-190 2548,-190 2548,-196 2542,-202 2536,-202"/>
<text text-anchor="middle" x="2504.5" y="-186.8" font-family="Times,serif" font-size="14.00">comp 1</text>
<text text-anchor="middle" x="2504.5" y="-171.8" font-family="Times,serif" font-size="14.00">n kernels: 12</text>
</g>
<!-- 4&#45;&gt;14 -->
<g id="edge14" class="edge"><title>4&#45;&gt;14</title>
<path fill="none" stroke="black" d="M2466.1,-275.418C2473.42,-257.983 2484.6,-231.365 2493.01,-211.34"/>
<polygon fill="black" stroke="black" points="2496.25,-212.684 2496.89,-202.109 2489.79,-209.973 2496.25,-212.684"/>
</g>
<!-- 15 -->
<g id="node16" class="node"><title>15</title>
<path fill="#abcece" stroke="black" d="M2706.5,-202C2706.5,-202 2578.5,-202 2578.5,-202 2572.5,-202 2566.5,-196 2566.5,-190 2566.5,-190 2566.5,-176 2566.5,-176 2566.5,-170 2572.5,-164 2578.5,-164 2578.5,-164 2706.5,-164 2706.5,-164 2712.5,-164 2718.5,-170 2718.5,-176 2718.5,-176 2718.5,-190 2718.5,-190 2718.5,-196 2712.5,-202 2706.5,-202"/>
<text text-anchor="middle" x="2642.5" y="-186.8" font-family="Times,serif" font-size="14.00">path end 3</text>
<text text-anchor="middle" x="2642.5" y="-171.8" font-family="Times,serif" font-size="14.00">k width: &#45;2 &#160;&#160;n kernels: 7</text>
</g>
<!-- 4&#45;&gt;15 -->
<g id="edge15" class="edge"><title>4&#45;&gt;15</title>
<path fill="none" stroke="black" d="M2488.88,-275.418C2520.18,-256.794 2569.08,-227.693 2603.28,-207.341"/>
<polygon fill="black" stroke="black" points="2605.27,-210.23 2612.07,-202.109 2601.69,-204.215 2605.27,-210.23"/>
</g>
<!-- 16 -->
<g id="node17" class="node"><title>16</title>
<path fill="#d3ffff" stroke="black" d="M3030,-232C3030,-232 2749,-232 2749,-232 2743,-232 2737,-226 2737,-220 2737,-220 2737,-146 2737,-146 2737,-140 2743,-134 2749,-134 2749,-134 3030,-134 3030,-134 3036,-134 3042,-140 3042,-146 3042,-146 3042,-220 3042,-220 3042,-226 3036,-232 3030,-232"/>
<text text-anchor="middle" x="2889.5" y="-216.8" font-family="Times,serif" font-size="14.00">forward</text>
<text text-anchor="middle" x="2889.5" y="-201.8" font-family="Times,serif" font-size="14.00">CB0/C1</text>
<text text-anchor="middle" x="2889.5" y="-186.8" font-family="Times,serif" font-size="14.00">dilation rate: 1 &#160;&#160;k width: 3</text>
<text text-anchor="middle" x="2889.5" y="-171.8" font-family="Times,serif" font-size="14.00">log gamma1: &#45;11.000000 &#160;&#160;log gamma2: &#45;11.000000</text>
<text text-anchor="middle" x="2889.5" y="-156.8" font-family="Times,serif" font-size="14.00">log lambda1: &#45;11.000000 &#160;&#160;log lambda2: &#45;11.000000</text>
<text text-anchor="middle" x="2889.5" y="-141.8" font-family="Times,serif" font-size="14.00">n kernels: 64</text>
</g>
<!-- 5&#45;&gt;16 -->
<g id="edge16" class="edge"><title>5&#45;&gt;16</title>
<path fill="none" stroke="black" d="M3166.91,-278.044C3133.79,-266.816 3086.92,-250.928 3041.12,-235.402"/>
<polygon fill="black" stroke="black" points="3041.97,-231.991 3031.37,-232.096 3039.72,-238.621 3041.97,-231.991"/>
</g>
<!-- 17 -->
<g id="node18" class="node"><title>17</title>
<path fill="#bfe6e6" stroke="black" d="M3353,-232C3353,-232 3072,-232 3072,-232 3066,-232 3060,-226 3060,-220 3060,-220 3060,-146 3060,-146 3060,-140 3066,-134 3072,-134 3072,-134 3353,-134 3353,-134 3359,-134 3365,-140 3365,-146 3365,-146 3365,-220 3365,-220 3365,-226 3359,-232 3353,-232"/>
<text text-anchor="middle" x="3212.5" y="-216.8" font-family="Times,serif" font-size="14.00">merge 1</text>
<text text-anchor="middle" x="3212.5" y="-201.8" font-family="Times,serif" font-size="14.00">CB1/PE1</text>
<text text-anchor="middle" x="3212.5" y="-186.8" font-family="Times,serif" font-size="14.00">dilation rate: 1 &#160;&#160;k width: 3</text>
<text text-anchor="middle" x="3212.5" y="-171.8" font-family="Times,serif" font-size="14.00">log gamma1: &#45;11.000000 &#160;&#160;log gamma2: &#45;11.000000</text>
<text text-anchor="middle" x="3212.5" y="-156.8" font-family="Times,serif" font-size="14.00">log lambda1: &#45;11.000000 &#160;&#160;log lambda2: &#45;11.000000</text>
<text text-anchor="middle" x="3212.5" y="-141.8" font-family="Times,serif" font-size="14.00">n kernels: 64</text>
</g>
<!-- 5&#45;&gt;17 -->
<g id="edge17" class="edge"><title>5&#45;&gt;17</title>
<path fill="none" stroke="black" d="M3212.5,-276.391C3212.5,-266.993 3212.5,-254.728 3212.5,-242.22"/>
<polygon fill="black" stroke="black" points="3216,-242.188 3212.5,-232.188 3209,-242.188 3216,-242.188"/>
</g>
<!-- 18 -->
<g id="node19" class="node"><title>18</title>
<path fill="#abcece" stroke="black" d="M3676,-232C3676,-232 3395,-232 3395,-232 3389,-232 3383,-226 3383,-220 3383,-220 3383,-146 3383,-146 3383,-140 3389,-134 3395,-134 3395,-134 3676,-134 3676,-134 3682,-134 3688,-140 3688,-146 3688,-146 3688,-220 3688,-220 3688,-226 3682,-232 3676,-232"/>
<text text-anchor="middle" x="3535.5" y="-216.8" font-family="Times,serif" font-size="14.00">merge 2</text>
<text text-anchor="middle" x="3535.5" y="-201.8" font-family="Times,serif" font-size="14.00">CB2/PE2</text>
<text text-anchor="middle" x="3535.5" y="-186.8" font-family="Times,serif" font-size="14.00">dilation rate: 1 &#160;&#160;k width: 3</text>
<text text-anchor="middle" x="3535.5" y="-171.8" font-family="Times,serif" font-size="14.00">log gamma1: &#45;11.000000 &#160;&#160;log gamma2: &#45;11.000000</text>
<text text-anchor="middle" x="3535.5" y="-156.8" font-family="Times,serif" font-size="14.00">log lambda1: &#45;11.000000 &#160;&#160;log lambda2: &#45;11.000000</text>
<text text-anchor="middle" x="3535.5" y="-141.8" font-family="Times,serif" font-size="14.00">n kernels: 64</text>
</g>
<!-- 5&#45;&gt;18 -->
<g id="edge18" class="edge"><title>5&#45;&gt;18</title>
<path fill="none" stroke="black" d="M3258.09,-278.044C3291.21,-266.816 3338.08,-250.928 3383.88,-235.402"/>
<polygon fill="black" stroke="black" points="3385.28,-238.621 3393.63,-232.096 3383.03,-231.991 3385.28,-238.621"/>
</g>
<!-- 19 -->
<g id="node20" class="node"><title>19</title>
<path fill="#97b6b6" stroke="black" d="M3999,-232C3999,-232 3718,-232 3718,-232 3712,-232 3706,-226 3706,-220 3706,-220 3706,-146 3706,-146 3706,-140 3712,-134 3718,-134 3718,-134 3999,-134 3999,-134 4005,-134 4011,-140 4011,-146 4011,-146 4011,-220 4011,-220 4011,-226 4005,-232 3999,-232"/>
<text text-anchor="middle" x="3858.5" y="-216.8" font-family="Times,serif" font-size="14.00">merge 3</text>
<text text-anchor="middle" x="3858.5" y="-201.8" font-family="Times,serif" font-size="14.00">CB3/PE3</text>
<text text-anchor="middle" x="3858.5" y="-186.8" font-family="Times,serif" font-size="14.00">dilation rate: 1 &#160;&#160;k width: 3</text>
<text text-anchor="middle" x="3858.5" y="-171.8" font-family="Times,serif" font-size="14.00">log gamma1: &#45;11.000000 &#160;&#160;log gamma2: &#45;11.000000</text>
<text text-anchor="middle" x="3858.5" y="-156.8" font-family="Times,serif" font-size="14.00">log lambda1: &#45;11.000000 &#160;&#160;log lambda2: &#45;11.000000</text>
<text text-anchor="middle" x="3858.5" y="-141.8" font-family="Times,serif" font-size="14.00">n kernels: 64</text>
</g>
<!-- 5&#45;&gt;19 -->
<g id="edge19" class="edge"><title>5&#45;&gt;19</title>
<path fill="none" stroke="black" d="M3258.28,-290.164C3342.99,-283.457 3529.86,-266.154 3695.73,-232.073"/>
<polygon fill="black" stroke="black" points="3696.53,-235.48 3705.61,-230.016 3695.11,-228.626 3696.53,-235.48"/>
</g>
<!-- 20 -->
<g id="node21" class="node"><title>20</title>
<path fill="#e9d3ff" stroke="black" d="M293,-98C293,-98 12,-98 12,-98 6,-98 0,-92 0,-86 0,-86 0,-12 0,-12 0,-6 6,-0 12,-0 12,-0 293,-0 293,-0 299,-0 305,-6 305,-12 305,-12 305,-86 305,-86 305,-92 299,-98 293,-98"/>
<text text-anchor="middle" x="152.5" y="-82.8" font-family="Times,serif" font-size="14.00">forward</text>
<text text-anchor="middle" x="152.5" y="-67.8" font-family="Times,serif" font-size="14.00">input</text>
<text text-anchor="middle" x="152.5" y="-52.8" font-family="Times,serif" font-size="14.00">dilation rate: 1 &#160;&#160;k width: 3</text>
<text text-anchor="middle" x="152.5" y="-37.8" font-family="Times,serif" font-size="14.00">log gamma1: &#45;11.000000 &#160;&#160;log gamma2: &#45;11.000000</text>
<text text-anchor="middle" x="152.5" y="-22.8" font-family="Times,serif" font-size="14.00">log lambda1: &#45;11.000000 &#160;&#160;log lambda2: &#45;11.000000</text>
<text text-anchor="middle" x="152.5" y="-7.8" font-family="Times,serif" font-size="14.00">n kernels: 64</text>
</g>
<!-- 6&#45;&gt;20 -->
<g id="edge20" class="edge"><title>6&#45;&gt;20</title>
<path fill="none" stroke="black" d="M190.474,-163.923C185.618,-149.355 178.509,-128.028 171.752,-107.755"/>
<polygon fill="black" stroke="black" points="175.061,-106.614 168.578,-98.2336 168.42,-108.827 175.061,-106.614"/>
</g>
<!-- 21 -->
<g id="node22" class="node"><title>21</title>
<path fill="#e9d3ff" stroke="black" d="M616,-98C616,-98 335,-98 335,-98 329,-98 323,-92 323,-86 323,-86 323,-12 323,-12 323,-6 329,-0 335,-0 335,-0 616,-0 616,-0 622,-0 628,-6 628,-12 628,-12 628,-86 628,-86 628,-92 622,-98 616,-98"/>
<text text-anchor="middle" x="475.5" y="-82.8" font-family="Times,serif" font-size="14.00">forward</text>
<text text-anchor="middle" x="475.5" y="-67.8" font-family="Times,serif" font-size="14.00">CB0/C0</text>
<text text-anchor="middle" x="475.5" y="-52.8" font-family="Times,serif" font-size="14.00">dilation rate: 1 &#160;&#160;k width: 3</text>
<text text-anchor="middle" x="475.5" y="-37.8" font-family="Times,serif" font-size="14.00">log gamma1: &#45;11.000000 &#160;&#160;log gamma2: &#45;11.000000</text>
<text text-anchor="middle" x="475.5" y="-22.8" font-family="Times,serif" font-size="14.00">log lambda1: &#45;11.000000 &#160;&#160;log lambda2: &#45;11.000000</text>
<text text-anchor="middle" x="475.5" y="-7.8" font-family="Times,serif" font-size="14.00">n kernels: 64</text>
</g>
<!-- 7&#45;&gt;21 -->
<g id="edge21" class="edge"><title>7&#45;&gt;21</title>
<path fill="none" stroke="black" d="M475.5,-156.236C475.5,-142.567 475.5,-125.174 475.5,-108.438"/>
<polygon fill="black" stroke="black" points="479,-108.142 475.5,-98.1423 472,-108.142 479,-108.142"/>
</g>
<!-- 22 -->
<g id="node23" class="node"><title>22</title>
<path fill="#e9d3ff" stroke="black" d="M939,-98C939,-98 658,-98 658,-98 652,-98 646,-92 646,-86 646,-86 646,-12 646,-12 646,-6 652,-0 658,-0 658,-0 939,-0 939,-0 945,-0 951,-6 951,-12 951,-12 951,-86 951,-86 951,-92 945,-98 939,-98"/>
<text text-anchor="middle" x="798.5" y="-82.8" font-family="Times,serif" font-size="14.00">forward</text>
<text text-anchor="middle" x="798.5" y="-67.8" font-family="Times,serif" font-size="14.00">input</text>
<text text-anchor="middle" x="798.5" y="-52.8" font-family="Times,serif" font-size="14.00">dilation rate: 1 &#160;&#160;k width: 3</text>
<text text-anchor="middle" x="798.5" y="-37.8" font-family="Times,serif" font-size="14.00">log gamma1: &#45;11.000000 &#160;&#160;log gamma2: &#45;11.000000</text>
<text text-anchor="middle" x="798.5" y="-22.8" font-family="Times,serif" font-size="14.00">log lambda1: &#45;11.000000 &#160;&#160;log lambda2: &#45;11.000000</text>
<text text-anchor="middle" x="798.5" y="-7.8" font-family="Times,serif" font-size="14.00">n kernels: 64</text>
</g>
<!-- 8&#45;&gt;22 -->
<g id="edge22" class="edge"><title>8&#45;&gt;22</title>
<path fill="none" stroke="black" d="M881.08,-164.743C870.38,-149.875 854.313,-127.55 839.187,-106.533"/>
<polygon fill="black" stroke="black" points="841.91,-104.325 833.228,-98.2533 836.228,-108.414 841.91,-104.325"/>
</g>
<!-- 23 -->
<g id="node24" class="node"><title>23</title>
<path fill="#e9d3ff" stroke="black" d="M1262,-98C1262,-98 981,-98 981,-98 975,-98 969,-92 969,-86 969,-86 969,-12 969,-12 969,-6 975,-0 981,-0 981,-0 1262,-0 1262,-0 1268,-0 1274,-6 1274,-12 1274,-12 1274,-86 1274,-86 1274,-92 1268,-98 1262,-98"/>
<text text-anchor="middle" x="1121.5" y="-82.8" font-family="Times,serif" font-size="14.00">forward</text>
<text text-anchor="middle" x="1121.5" y="-67.8" font-family="Times,serif" font-size="14.00">CB1/C0</text>
<text text-anchor="middle" x="1121.5" y="-52.8" font-family="Times,serif" font-size="14.00">dilation rate: 1 &#160;&#160;k width: 3</text>
<text text-anchor="middle" x="1121.5" y="-37.8" font-family="Times,serif" font-size="14.00">log gamma1: &#45;11.000000 &#160;&#160;log gamma2: &#45;11.000000</text>
<text text-anchor="middle" x="1121.5" y="-22.8" font-family="Times,serif" font-size="14.00">log lambda1: &#45;11.000000 &#160;&#160;log lambda2: &#45;11.000000</text>
<text text-anchor="middle" x="1121.5" y="-7.8" font-family="Times,serif" font-size="14.00">n kernels: 64</text>
</g>
<!-- 9&#45;&gt;23 -->
<g id="edge23" class="edge"><title>9&#45;&gt;23</title>
<path fill="none" stroke="black" d="M1121.5,-163.923C1121.5,-149.486 1121.5,-128.413 1121.5,-108.306"/>
<polygon fill="black" stroke="black" points="1125,-108.234 1121.5,-98.2336 1118,-108.234 1125,-108.234"/>
</g>
<!-- 24 -->
<g id="node25" class="node"><title>24</title>
<path fill="#e9d3ff" stroke="black" d="M1585,-98C1585,-98 1304,-98 1304,-98 1298,-98 1292,-92 1292,-86 1292,-86 1292,-12 1292,-12 1292,-6 1298,-0 1304,-0 1304,-0 1585,-0 1585,-0 1591,-0 1597,-6 1597,-12 1597,-12 1597,-86 1597,-86 1597,-92 1591,-98 1585,-98"/>
<text text-anchor="middle" x="1444.5" y="-82.8" font-family="Times,serif" font-size="14.00">forward</text>
<text text-anchor="middle" x="1444.5" y="-67.8" font-family="Times,serif" font-size="14.00">input</text>
<text text-anchor="middle" x="1444.5" y="-52.8" font-family="Times,serif" font-size="14.00">dilation rate: 1 &#160;&#160;k width: 3</text>
<text text-anchor="middle" x="1444.5" y="-37.8" font-family="Times,serif" font-size="14.00">log gamma1: &#45;11.000000 &#160;&#160;log gamma2: &#45;11.000000</text>
<text text-anchor="middle" x="1444.5" y="-22.8" font-family="Times,serif" font-size="14.00">log lambda1: &#45;11.000000 &#160;&#160;log lambda2: &#45;11.000000</text>
<text text-anchor="middle" x="1444.5" y="-7.8" font-family="Times,serif" font-size="14.00">n kernels: 64</text>
</g>
<!-- 10&#45;&gt;24 -->
<g id="edge24" class="edge"><title>10&#45;&gt;24</title>
<path fill="none" stroke="black" d="M1532.53,-163.923C1521.02,-149.025 1504.05,-127.059 1488.07,-106.381"/>
<polygon fill="black" stroke="black" points="1490.66,-104.006 1481.77,-98.2336 1485.12,-108.287 1490.66,-104.006"/>
</g>
<!-- 25 -->
<g id="node26" class="node"><title>25</title>
<path fill="#e9d3ff" stroke="black" d="M1908,-98C1908,-98 1627,-98 1627,-98 1621,-98 1615,-92 1615,-86 1615,-86 1615,-12 1615,-12 1615,-6 1621,-0 1627,-0 1627,-0 1908,-0 1908,-0 1914,-0 1920,-6 1920,-12 1920,-12 1920,-86 1920,-86 1920,-92 1914,-98 1908,-98"/>
<text text-anchor="middle" x="1767.5" y="-82.8" font-family="Times,serif" font-size="14.00">forward</text>
<text text-anchor="middle" x="1767.5" y="-67.8" font-family="Times,serif" font-size="14.00">CB2/C0</text>
<text text-anchor="middle" x="1767.5" y="-52.8" font-family="Times,serif" font-size="14.00">dilation rate: 1 &#160;&#160;k width: 3</text>
<text text-anchor="middle" x="1767.5" y="-37.8" font-family="Times,serif" font-size="14.00">log gamma1: &#45;11.000000 &#160;&#160;log gamma2: &#45;11.000000</text>
<text text-anchor="middle" x="1767.5" y="-22.8" font-family="Times,serif" font-size="14.00">log lambda1: &#45;11.000000 &#160;&#160;log lambda2: &#45;11.000000</text>
<text text-anchor="middle" x="1767.5" y="-7.8" font-family="Times,serif" font-size="14.00">n kernels: 64</text>
</g>
<!-- 11&#45;&gt;25 -->
<g id="edge25" class="edge"><title>11&#45;&gt;25</title>
<path fill="none" stroke="black" d="M1767.5,-164.743C1767.5,-150.336 1767.5,-128.926 1767.5,-108.49"/>
<polygon fill="black" stroke="black" points="1771,-108.253 1767.5,-98.2533 1764,-108.253 1771,-108.253"/>
</g>
<!-- 26 -->
<g id="node27" class="node"><title>26</title>
<path fill="#e9d3ff" stroke="black" d="M2231,-98C2231,-98 1950,-98 1950,-98 1944,-98 1938,-92 1938,-86 1938,-86 1938,-12 1938,-12 1938,-6 1944,-0 1950,-0 1950,-0 2231,-0 2231,-0 2237,-0 2243,-6 2243,-12 2243,-12 2243,-86 2243,-86 2243,-92 2237,-98 2231,-98"/>
<text text-anchor="middle" x="2090.5" y="-82.8" font-family="Times,serif" font-size="14.00">forward</text>
<text text-anchor="middle" x="2090.5" y="-67.8" font-family="Times,serif" font-size="14.00">CB2/C1</text>
<text text-anchor="middle" x="2090.5" y="-52.8" font-family="Times,serif" font-size="14.00">dilation rate: 1 &#160;&#160;k width: 3</text>
<text text-anchor="middle" x="2090.5" y="-37.8" font-family="Times,serif" font-size="14.00">log gamma1: &#45;11.000000 &#160;&#160;log gamma2: &#45;11.000000</text>
<text text-anchor="middle" x="2090.5" y="-22.8" font-family="Times,serif" font-size="14.00">log lambda1: &#45;11.000000 &#160;&#160;log lambda2: &#45;11.000000</text>
<text text-anchor="middle" x="2090.5" y="-7.8" font-family="Times,serif" font-size="14.00">n kernels: 64</text>
</g>
<!-- 12&#45;&gt;26 -->
<g id="edge26" class="edge"><title>12&#45;&gt;26</title>
<path fill="none" stroke="black" d="M2005.06,-163.923C2016.23,-149.025 2032.71,-127.059 2048.21,-106.381"/>
<polygon fill="black" stroke="black" points="2051.12,-108.334 2054.32,-98.2336 2045.52,-104.134 2051.12,-108.334"/>
</g>
<!-- 27 -->
<g id="node28" class="node"><title>27</title>
<path fill="#e9d3ff" stroke="black" d="M2554,-98C2554,-98 2273,-98 2273,-98 2267,-98 2261,-92 2261,-86 2261,-86 2261,-12 2261,-12 2261,-6 2267,-0 2273,-0 2273,-0 2554,-0 2554,-0 2560,-0 2566,-6 2566,-12 2566,-12 2566,-86 2566,-86 2566,-92 2560,-98 2554,-98"/>
<text text-anchor="middle" x="2413.5" y="-82.8" font-family="Times,serif" font-size="14.00">forward</text>
<text text-anchor="middle" x="2413.5" y="-67.8" font-family="Times,serif" font-size="14.00">input</text>
<text text-anchor="middle" x="2413.5" y="-52.8" font-family="Times,serif" font-size="14.00">dilation rate: 1 &#160;&#160;k width: 3</text>
<text text-anchor="middle" x="2413.5" y="-37.8" font-family="Times,serif" font-size="14.00">log gamma1: &#45;11.000000 &#160;&#160;log gamma2: &#45;11.000000</text>
<text text-anchor="middle" x="2413.5" y="-22.8" font-family="Times,serif" font-size="14.00">log lambda1: &#45;11.000000 &#160;&#160;log lambda2: &#45;11.000000</text>
<text text-anchor="middle" x="2413.5" y="-7.8" font-family="Times,serif" font-size="14.00">n kernels: 64</text>
</g>
<!-- 13&#45;&gt;27 -->
<g id="edge27" class="edge"><title>13&#45;&gt;27</title>
<path fill="none" stroke="black" d="M2413.5,-164.743C2413.5,-150.336 2413.5,-128.926 2413.5,-108.49"/>
<polygon fill="black" stroke="black" points="2417,-108.253 2413.5,-98.2533 2410,-108.253 2417,-108.253"/>
</g>
<!-- 28 -->
<g id="node29" class="node"><title>28</title>
<path fill="#e9d3ff" stroke="black" d="M2877,-98C2877,-98 2596,-98 2596,-98 2590,-98 2584,-92 2584,-86 2584,-86 2584,-12 2584,-12 2584,-6 2590,-0 2596,-0 2596,-0 2877,-0 2877,-0 2883,-0 2889,-6 2889,-12 2889,-12 2889,-86 2889,-86 2889,-92 2883,-98 2877,-98"/>
<text text-anchor="middle" x="2736.5" y="-82.8" font-family="Times,serif" font-size="14.00">forward</text>
<text text-anchor="middle" x="2736.5" y="-67.8" font-family="Times,serif" font-size="14.00">CB3/C0</text>
<text text-anchor="middle" x="2736.5" y="-52.8" font-family="Times,serif" font-size="14.00">dilation rate: 1 &#160;&#160;k width: 3</text>
<text text-anchor="middle" x="2736.5" y="-37.8" font-family="Times,serif" font-size="14.00">log gamma1: &#45;11.000000 &#160;&#160;log gamma2: &#45;11.000000</text>
<text text-anchor="middle" x="2736.5" y="-22.8" font-family="Times,serif" font-size="14.00">log lambda1: &#45;11.000000 &#160;&#160;log lambda2: &#45;11.000000</text>
<text text-anchor="middle" x="2736.5" y="-7.8" font-family="Times,serif" font-size="14.00">n kernels: 64</text>
</g>
<!-- 14&#45;&gt;28 -->
<g id="edge28" class="edge"><title>14&#45;&gt;28</title>
<path fill="none" stroke="black" d="M2522.02,-163.679C2531.85,-154.059 2544.69,-142.53 2557.5,-134 2574.32,-122.802 2592.87,-112.312 2611.47,-102.797"/>
<polygon fill="black" stroke="black" points="2613.23,-105.827 2620.59,-98.205 2610.08,-99.5737 2613.23,-105.827"/>
</g>
<!-- 29 -->
<g id="node30" class="node"><title>29</title>
<path fill="#e9d3ff" stroke="black" d="M3200,-98C3200,-98 2919,-98 2919,-98 2913,-98 2907,-92 2907,-86 2907,-86 2907,-12 2907,-12 2907,-6 2913,-0 2919,-0 2919,-0 3200,-0 3200,-0 3206,-0 3212,-6 3212,-12 3212,-12 3212,-86 3212,-86 3212,-92 3206,-98 3200,-98"/>
<text text-anchor="middle" x="3059.5" y="-82.8" font-family="Times,serif" font-size="14.00">forward</text>
<text text-anchor="middle" x="3059.5" y="-67.8" font-family="Times,serif" font-size="14.00">CB3/C1</text>
<text text-anchor="middle" x="3059.5" y="-52.8" font-family="Times,serif" font-size="14.00">dilation rate: 1 &#160;&#160;k width: 3</text>
<text text-anchor="middle" x="3059.5" y="-37.8" font-family="Times,serif" font-size="14.00">log gamma1: &#45;11.000000 &#160;&#160;log gamma2: &#45;11.000000</text>
<text text-anchor="middle" x="3059.5" y="-22.8" font-family="Times,serif" font-size="14.00">log lambda1: &#45;11.000000 &#160;&#160;log lambda2: &#45;11.000000</text>
<text text-anchor="middle" x="3059.5" y="-7.8" font-family="Times,serif" font-size="14.00">n kernels: 64</text>
</g>
<!-- 15&#45;&gt;29 -->
<g id="edge29" class="edge"><title>15&#45;&gt;29</title>
<path fill="none" stroke="black" d="M2669.4,-163.988C2685.63,-153.857 2707.05,-141.73 2727.5,-134 2796.78,-107.814 2820.68,-116.204 2896.89,-98.043"/>
<polygon fill="black" stroke="black" points="2898.09,-101.352 2906.97,-95.5623 2896.42,-94.555 2898.09,-101.352"/>
</g>
</g>
</svg>
