<?xml version="1.0" encoding="UTF-8" standalone="no"?>
<!DOCTYPE svg PUBLIC "-//W3C//DTD SVG 1.1//EN"
 "http://www.w3.org/Graphics/SVG/1.1/DTD/svg11.dtd">
<!-- Generated by graphviz version 2.38.0 (20140413.2041)
 -->
<!-- Title: %3 Pages: 1 -->
<svg width="2592pt" height="433pt"
 viewBox="0.00 0.00 2592.00 433.00" xmlns="http://www.w3.org/2000/svg" xmlns:xlink="http://www.w3.org/1999/xlink">
<g id="graph0" class="graph" transform="scale(1 1) rotate(0) translate(4 429)">
<title>%3</title>
<polygon fill="none" stroke="none" points="-4,4 -4,-429 2588,-429 2588,4 -4,4"/>
<!-- 0 -->
<g id="node1" class="node"><title>0</title>
<path fill="#ffd3d3" stroke="black" d="M1254,-425C1254,-425 1063,-425 1063,-425 1057,-425 1051,-419 1051,-413 1051,-413 1051,-384 1051,-384 1051,-378 1057,-372 1063,-372 1063,-372 1254,-372 1254,-372 1260,-372 1266,-378 1266,-384 1266,-384 1266,-413 1266,-413 1266,-419 1260,-425 1254,-425"/>
<text text-anchor="middle" x="1158.5" y="-409.8" font-family="Times,serif" font-size="14.00">net</text>
<text text-anchor="middle" x="1158.5" y="-394.8" font-family="Times,serif" font-size="14.00">k width: 3 &#160;&#160;log gamma2: &#45;9.137353</text>
<text text-anchor="middle" x="1158.5" y="-379.8" font-family="Times,serif" font-size="14.00">n kernels: 38</text>
</g>
<!-- 1 -->
<g id="node2" class="node"><title>1</title>
<path fill="#e9ffd3" stroke="black" d="M562,-321C562,-321 499,-321 499,-321 493,-321 487,-315 487,-309 487,-309 487,-295 487,-295 487,-289 493,-283 499,-283 499,-283 562,-283 562,-283 568,-283 574,-289 574,-295 574,-295 574,-309 574,-309 574,-315 568,-321 562,-321"/>
<text text-anchor="middle" x="530.5" y="-305.8" font-family="Times,serif" font-size="14.00">conv block 0</text>
<text text-anchor="middle" x="530.5" y="-290.8" font-family="Times,serif" font-size="14.00">n kernels: 11</text>
</g>
<!-- 0&#45;&gt;1 -->
<g id="edge1" class="edge"><title>0&#45;&gt;1</title>
<path fill="none" stroke="black" d="M1050.9,-381.309C915.352,-360.912 687.681,-326.652 584.379,-311.108"/>
<polygon fill="black" stroke="black" points="584.594,-307.601 574.184,-309.574 583.552,-314.523 584.594,-307.601"/>
</g>
<!-- 2 -->
<g id="node3" class="node"><title>2</title>
<path fill="#e9ffd3" stroke="black" d="M1087,-336C1087,-336 824,-336 824,-336 818,-336 812,-330 812,-324 812,-324 812,-280 812,-280 812,-274 818,-268 824,-268 824,-268 1087,-268 1087,-268 1093,-268 1099,-274 1099,-280 1099,-280 1099,-324 1099,-324 1099,-330 1093,-336 1087,-336"/>
<text text-anchor="middle" x="955.5" y="-320.8" font-family="Times,serif" font-size="14.00">conv block 1</text>
<text text-anchor="middle" x="955.5" y="-305.8" font-family="Times,serif" font-size="14.00">log gamma1: &#45;1.368679 &#160;&#160;log gamma2: 0.387005</text>
<text text-anchor="middle" x="955.5" y="-290.8" font-family="Times,serif" font-size="14.00">n kernels: 18 &#160;&#160;pool z: 1</text>
<text text-anchor="middle" x="955.5" y="-275.8" font-family="Times,serif" font-size="14.00">spatial scale: 1</text>
</g>
<!-- 0&#45;&gt;2 -->
<g id="edge2" class="edge"><title>0&#45;&gt;2</title>
<path fill="none" stroke="black" d="M1103.57,-371.927C1082.72,-362.222 1058.53,-350.96 1035.81,-340.388"/>
<polygon fill="black" stroke="black" points="1037.07,-337.11 1026.52,-336.063 1034.11,-343.456 1037.07,-337.11"/>
</g>
<!-- 3 -->
<g id="node4" class="node"><title>3</title>
<path fill="#e9ffd3" stroke="black" d="M1466.5,-328.5C1466.5,-328.5 1266.5,-328.5 1266.5,-328.5 1260.5,-328.5 1254.5,-322.5 1254.5,-316.5 1254.5,-316.5 1254.5,-287.5 1254.5,-287.5 1254.5,-281.5 1260.5,-275.5 1266.5,-275.5 1266.5,-275.5 1466.5,-275.5 1466.5,-275.5 1472.5,-275.5 1478.5,-281.5 1478.5,-287.5 1478.5,-287.5 1478.5,-316.5 1478.5,-316.5 1478.5,-322.5 1472.5,-328.5 1466.5,-328.5"/>
<text text-anchor="middle" x="1366.5" y="-313.3" font-family="Times,serif" font-size="14.00">conv block 2</text>
<text text-anchor="middle" x="1366.5" y="-298.3" font-family="Times,serif" font-size="14.00">log gamma1: &#45;1.423679 &#160;&#160;n kernels: 1</text>
<text text-anchor="middle" x="1366.5" y="-283.3" font-family="Times,serif" font-size="14.00">spatial scale: 2</text>
</g>
<!-- 0&#45;&gt;3 -->
<g id="edge3" class="edge"><title>0&#45;&gt;3</title>
<path fill="none" stroke="black" d="M1214.79,-371.927C1241.38,-359.846 1273.28,-345.351 1300.96,-332.778"/>
<polygon fill="black" stroke="black" points="1302.51,-335.916 1310.17,-328.594 1299.62,-329.543 1302.51,-335.916"/>
</g>
<!-- 4 -->
<g id="node5" class="node"><title>4</title>
<path fill="#e9ffd3" stroke="black" d="M1980,-320C1980,-320 1913,-320 1913,-320 1907,-320 1901,-314 1901,-308 1901,-308 1901,-296 1901,-296 1901,-290 1907,-284 1913,-284 1913,-284 1980,-284 1980,-284 1986,-284 1992,-290 1992,-296 1992,-296 1992,-308 1992,-308 1992,-314 1986,-320 1980,-320"/>
<text text-anchor="middle" x="1946.5" y="-298.3" font-family="Times,serif" font-size="14.00">path combine</text>
</g>
<!-- 0&#45;&gt;4 -->
<g id="edge4" class="edge"><title>0&#45;&gt;4</title>
<path fill="none" stroke="black" d="M1266,-384.608C1435.97,-364.224 1760.78,-325.272 1890.74,-309.687"/>
<polygon fill="black" stroke="black" points="1891.35,-313.139 1900.86,-308.473 1890.51,-306.189 1891.35,-313.139"/>
</g>
<!-- 5 -->
<g id="node6" class="node"><title>5</title>
<path fill="#d3ffff" stroke="black" d="M290.5,-201C290.5,-201 256.5,-201 256.5,-201 250.5,-201 244.5,-195 244.5,-189 244.5,-189 244.5,-177 244.5,-177 244.5,-171 250.5,-165 256.5,-165 256.5,-165 290.5,-165 290.5,-165 296.5,-165 302.5,-171 302.5,-177 302.5,-177 302.5,-189 302.5,-189 302.5,-195 296.5,-201 290.5,-201"/>
<text text-anchor="middle" x="273.5" y="-179.3" font-family="Times,serif" font-size="14.00">comp 0</text>
</g>
<!-- 1&#45;&gt;5 -->
<g id="edge5" class="edge"><title>1&#45;&gt;5</title>
<path fill="none" stroke="black" d="M490.907,-282.975C442.198,-260.8 360.061,-223.407 311.904,-201.484"/>
<polygon fill="black" stroke="black" points="313.297,-198.272 302.746,-197.314 310.397,-204.643 313.297,-198.272"/>
</g>
<!-- 6 -->
<g id="node7" class="node"><title>6</title>
<path fill="#d3ffff" stroke="black" d="M569.5,-201C569.5,-201 535.5,-201 535.5,-201 529.5,-201 523.5,-195 523.5,-189 523.5,-189 523.5,-177 523.5,-177 523.5,-171 529.5,-165 535.5,-165 535.5,-165 569.5,-165 569.5,-165 575.5,-165 581.5,-171 581.5,-177 581.5,-177 581.5,-189 581.5,-189 581.5,-195 575.5,-201 569.5,-201"/>
<text text-anchor="middle" x="552.5" y="-179.3" font-family="Times,serif" font-size="14.00">comp 0</text>
</g>
<!-- 2&#45;&gt;6 -->
<g id="edge6" class="edge"><title>2&#45;&gt;6</title>
<path fill="none" stroke="black" d="M811.942,-271.132C765.72,-260.283 714.558,-246.964 668.5,-232 642.02,-223.397 613.081,-211.427 590.732,-201.592"/>
<polygon fill="black" stroke="black" points="592.143,-198.39 581.584,-197.525 589.299,-204.786 592.143,-198.39"/>
</g>
<!-- 7 -->
<g id="node8" class="node"><title>7</title>
<path fill="#bfe6e6" stroke="black" d="M949,-202C949,-202 690,-202 690,-202 684,-202 678,-196 678,-190 678,-190 678,-176 678,-176 678,-170 684,-164 690,-164 690,-164 949,-164 949,-164 955,-164 961,-170 961,-176 961,-176 961,-190 961,-190 961,-196 955,-202 949,-202"/>
<text text-anchor="middle" x="819.5" y="-186.8" font-family="Times,serif" font-size="14.00">comp 1</text>
<text text-anchor="middle" x="819.5" y="-171.8" font-family="Times,serif" font-size="14.00">log gamma1: 0.499770 &#160;&#160;log gamma2: 0.702117</text>
</g>
<!-- 2&#45;&gt;7 -->
<g id="edge7" class="edge"><title>2&#45;&gt;7</title>
<path fill="none" stroke="black" d="M916.892,-267.785C895.081,-249.022 868.275,-225.961 848.311,-208.786"/>
<polygon fill="black" stroke="black" points="850.343,-205.917 840.48,-202.049 845.778,-211.224 850.343,-205.917"/>
</g>
<!-- 8 -->
<g id="node9" class="node"><title>8</title>
<path fill="#abcece" stroke="black" d="M1165.5,-202C1165.5,-202 1033.5,-202 1033.5,-202 1027.5,-202 1021.5,-196 1021.5,-190 1021.5,-190 1021.5,-176 1021.5,-176 1021.5,-170 1027.5,-164 1033.5,-164 1033.5,-164 1165.5,-164 1165.5,-164 1171.5,-164 1177.5,-170 1177.5,-176 1177.5,-176 1177.5,-190 1177.5,-190 1177.5,-196 1171.5,-202 1165.5,-202"/>
<text text-anchor="middle" x="1099.5" y="-186.8" font-family="Times,serif" font-size="14.00">path end 1</text>
<text text-anchor="middle" x="1099.5" y="-171.8" font-family="Times,serif" font-size="14.00">k width: &#45;2 &#160;&#160;n kernels: &#45;7</text>
</g>
<!-- 2&#45;&gt;8 -->
<g id="edge8" class="edge"><title>2&#45;&gt;8</title>
<path fill="none" stroke="black" d="M996.379,-267.785C1019.58,-248.939 1048.11,-225.756 1069.28,-208.557"/>
<polygon fill="black" stroke="black" points="1071.73,-211.071 1077.29,-202.049 1067.32,-205.638 1071.73,-211.071"/>
</g>
<!-- 9 -->
<g id="node10" class="node"><title>9</title>
<path fill="#d3ffff" stroke="black" d="M1426.5,-202C1426.5,-202 1306.5,-202 1306.5,-202 1300.5,-202 1294.5,-196 1294.5,-190 1294.5,-190 1294.5,-176 1294.5,-176 1294.5,-170 1300.5,-164 1306.5,-164 1306.5,-164 1426.5,-164 1426.5,-164 1432.5,-164 1438.5,-170 1438.5,-176 1438.5,-176 1438.5,-190 1438.5,-190 1438.5,-196 1432.5,-202 1426.5,-202"/>
<text text-anchor="middle" x="1366.5" y="-186.8" font-family="Times,serif" font-size="14.00">comp 0</text>
<text text-anchor="middle" x="1366.5" y="-171.8" font-family="Times,serif" font-size="14.00">log gamma2: 1.813082</text>
</g>
<!-- 3&#45;&gt;9 -->
<g id="edge9" class="edge"><title>3&#45;&gt;9</title>
<path fill="none" stroke="black" d="M1366.5,-275.324C1366.5,-256.794 1366.5,-231.767 1366.5,-212.599"/>
<polygon fill="black" stroke="black" points="1370,-212.358 1366.5,-202.358 1363,-212.358 1370,-212.358"/>
</g>
<!-- 10 -->
<g id="node11" class="node"><title>10</title>
<path fill="#bfe6e6" stroke="black" d="M1602.5,-202C1602.5,-202 1468.5,-202 1468.5,-202 1462.5,-202 1456.5,-196 1456.5,-190 1456.5,-190 1456.5,-176 1456.5,-176 1456.5,-170 1462.5,-164 1468.5,-164 1468.5,-164 1602.5,-164 1602.5,-164 1608.5,-164 1614.5,-170 1614.5,-176 1614.5,-176 1614.5,-190 1614.5,-190 1614.5,-196 1608.5,-202 1602.5,-202"/>
<text text-anchor="middle" x="1535.5" y="-186.8" font-family="Times,serif" font-size="14.00">path end 2</text>
<text text-anchor="middle" x="1535.5" y="-171.8" font-family="Times,serif" font-size="14.00">k width: &#45;2 &#160;&#160;n kernels: 10</text>
</g>
<!-- 3&#45;&gt;10 -->
<g id="edge10" class="edge"><title>3&#45;&gt;10</title>
<path fill="none" stroke="black" d="M1403.59,-275.324C1432.56,-255.268 1472.52,-227.601 1500.85,-207.989"/>
<polygon fill="black" stroke="black" points="1503.01,-210.748 1509.24,-202.178 1499.03,-204.993 1503.01,-210.748"/>
</g>
<!-- 11 -->
<g id="node12" class="node"><title>11</title>
<path fill="#d3ffff" stroke="black" d="M1926,-232C1926,-232 1645,-232 1645,-232 1639,-232 1633,-226 1633,-220 1633,-220 1633,-146 1633,-146 1633,-140 1639,-134 1645,-134 1645,-134 1926,-134 1926,-134 1932,-134 1938,-140 1938,-146 1938,-146 1938,-220 1938,-220 1938,-226 1932,-232 1926,-232"/>
<text text-anchor="middle" x="1785.5" y="-216.8" font-family="Times,serif" font-size="14.00">forward</text>
<text text-anchor="middle" x="1785.5" y="-201.8" font-family="Times,serif" font-size="14.00">CB0/C0</text>
<text text-anchor="middle" x="1785.5" y="-186.8" font-family="Times,serif" font-size="14.00">dilation rate: 1 &#160;&#160;k width: 3</text>
<text text-anchor="middle" x="1785.5" y="-171.8" font-family="Times,serif" font-size="14.00">log gamma1: &#45;11.000000 &#160;&#160;log gamma2: &#45;11.000000</text>
<text text-anchor="middle" x="1785.5" y="-156.8" font-family="Times,serif" font-size="14.00">log lambda1: &#45;11.000000 &#160;&#160;log lambda2: &#45;11.000000</text>
<text text-anchor="middle" x="1785.5" y="-141.8" font-family="Times,serif" font-size="14.00">n kernels: 64</text>
</g>
<!-- 4&#45;&gt;11 -->
<g id="edge11" class="edge"><title>4&#45;&gt;11</title>
<path fill="none" stroke="black" d="M1923.09,-283.987C1906.39,-271.851 1882.94,-254.808 1860.12,-238.224"/>
<polygon fill="black" stroke="black" points="1861.9,-235.193 1851.75,-232.146 1857.78,-240.856 1861.9,-235.193"/>
</g>
<!-- 12 -->
<g id="node13" class="node"><title>12</title>
<path fill="#bfe6e6" stroke="black" d="M2249,-232C2249,-232 1968,-232 1968,-232 1962,-232 1956,-226 1956,-220 1956,-220 1956,-146 1956,-146 1956,-140 1962,-134 1968,-134 1968,-134 2249,-134 2249,-134 2255,-134 2261,-140 2261,-146 2261,-146 2261,-220 2261,-220 2261,-226 2255,-232 2249,-232"/>
<text text-anchor="middle" x="2108.5" y="-216.8" font-family="Times,serif" font-size="14.00">merge 1</text>
<text text-anchor="middle" x="2108.5" y="-201.8" font-family="Times,serif" font-size="14.00">CB1/PE1</text>
<text text-anchor="middle" x="2108.5" y="-186.8" font-family="Times,serif" font-size="14.00">dilation rate: 1 &#160;&#160;k width: 3</text>
<text text-anchor="middle" x="2108.5" y="-171.8" font-family="Times,serif" font-size="14.00">log gamma1: &#45;11.000000 &#160;&#160;log gamma2: &#45;11.000000</text>
<text text-anchor="middle" x="2108.5" y="-156.8" font-family="Times,serif" font-size="14.00">log lambda1: &#45;11.000000 &#160;&#160;log lambda2: &#45;11.000000</text>
<text text-anchor="middle" x="2108.5" y="-141.8" font-family="Times,serif" font-size="14.00">n kernels: 64</text>
</g>
<!-- 4&#45;&gt;12 -->
<g id="edge12" class="edge"><title>4&#45;&gt;12</title>
<path fill="none" stroke="black" d="M1970.06,-283.987C1986.93,-271.798 2010.67,-254.658 2033.72,-238.006"/>
<polygon fill="black" stroke="black" points="2035.78,-240.838 2041.84,-232.146 2031.68,-235.163 2035.78,-240.838"/>
</g>
<!-- 13 -->
<g id="node14" class="node"><title>13</title>
<path fill="#abcece" stroke="black" d="M2572,-232C2572,-232 2291,-232 2291,-232 2285,-232 2279,-226 2279,-220 2279,-220 2279,-146 2279,-146 2279,-140 2285,-134 2291,-134 2291,-134 2572,-134 2572,-134 2578,-134 2584,-140 2584,-146 2584,-146 2584,-220 2584,-220 2584,-226 2578,-232 2572,-232"/>
<text text-anchor="middle" x="2431.5" y="-216.8" font-family="Times,serif" font-size="14.00">merge 2</text>
<text text-anchor="middle" x="2431.5" y="-201.8" font-family="Times,serif" font-size="14.00">CB2/PE2</text>
<text text-anchor="middle" x="2431.5" y="-186.8" font-family="Times,serif" font-size="14.00">dilation rate: 1 &#160;&#160;k width: 3</text>
<text text-anchor="middle" x="2431.5" y="-171.8" font-family="Times,serif" font-size="14.00">log gamma1: &#45;11.000000 &#160;&#160;log gamma2: &#45;11.000000</text>
<text text-anchor="middle" x="2431.5" y="-156.8" font-family="Times,serif" font-size="14.00">log lambda1: &#45;11.000000 &#160;&#160;log lambda2: &#45;11.000000</text>
<text text-anchor="middle" x="2431.5" y="-141.8" font-family="Times,serif" font-size="14.00">n kernels: 64</text>
</g>
<!-- 4&#45;&gt;13 -->
<g id="edge13" class="edge"><title>4&#45;&gt;13</title>
<path fill="none" stroke="black" d="M1992.11,-292.481C2053.16,-280.814 2164.97,-258.53 2268.91,-232.363"/>
<polygon fill="black" stroke="black" points="2269.78,-235.752 2278.62,-229.901 2268.06,-228.967 2269.78,-235.752"/>
</g>
<!-- 14 -->
<g id="node15" class="node"><title>14</title>
<path fill="#e9d3ff" stroke="black" d="M293,-98C293,-98 12,-98 12,-98 6,-98 0,-92 0,-86 0,-86 0,-12 0,-12 0,-6 6,-0 12,-0 12,-0 293,-0 293,-0 299,-0 305,-6 305,-12 305,-12 305,-86 305,-86 305,-92 299,-98 293,-98"/>
<text text-anchor="middle" x="152.5" y="-82.8" font-family="Times,serif" font-size="14.00">forward</text>
<text text-anchor="middle" x="152.5" y="-67.8" font-family="Times,serif" font-size="14.00">input</text>
<text text-anchor="middle" x="152.5" y="-52.8" font-family="Times,serif" font-size="14.00">dilation rate: 1 &#160;&#160;k width: 3</text>
<text text-anchor="middle" x="152.5" y="-37.8" font-family="Times,serif" font-size="14.00">log gamma1: &#45;11.000000 &#160;&#160;log gamma2: &#45;11.000000</text>
<text text-anchor="middle" x="152.5" y="-22.8" font-family="Times,serif" font-size="14.00">log lambda1: &#45;11.000000 &#160;&#160;log lambda2: &#45;11.000000</text>
<text text-anchor="middle" x="152.5" y="-7.8" font-family="Times,serif" font-size="14.00">n kernels: 64</text>
</g>
<!-- 5&#45;&gt;14 -->
<g id="edge14" class="edge"><title>5&#45;&gt;14</title>
<path fill="none" stroke="black" d="M257.681,-164.743C243.871,-149.678 223.043,-126.956 203.556,-105.697"/>
<polygon fill="black" stroke="black" points="206.07,-103.26 196.732,-98.2533 200.909,-107.99 206.07,-103.26"/>
</g>
<!-- 15 -->
<g id="node16" class="node"><title>15</title>
<path fill="#e9d3ff" stroke="black" d="M616,-98C616,-98 335,-98 335,-98 329,-98 323,-92 323,-86 323,-86 323,-12 323,-12 323,-6 329,-0 335,-0 335,-0 616,-0 616,-0 622,-0 628,-6 628,-12 628,-12 628,-86 628,-86 628,-92 622,-98 616,-98"/>
<text text-anchor="middle" x="475.5" y="-82.8" font-family="Times,serif" font-size="14.00">forward</text>
<text text-anchor="middle" x="475.5" y="-67.8" font-family="Times,serif" font-size="14.00">input</text>
<text text-anchor="middle" x="475.5" y="-52.8" font-family="Times,serif" font-size="14.00">dilation rate: 1 &#160;&#160;k width: 3</text>
<text text-anchor="middle" x="475.5" y="-37.8" font-family="Times,serif" font-size="14.00">log gamma1: &#45;11.000000 &#160;&#160;log gamma2: &#45;11.000000</text>
<text text-anchor="middle" x="475.5" y="-22.8" font-family="Times,serif" font-size="14.00">log lambda1: &#45;11.000000 &#160;&#160;log lambda2: &#45;11.000000</text>
<text text-anchor="middle" x="475.5" y="-7.8" font-family="Times,serif" font-size="14.00">n kernels: 64</text>
</g>
<!-- 6&#45;&gt;15 -->
<g id="edge15" class="edge"><title>6&#45;&gt;15</title>
<path fill="none" stroke="black" d="M542.434,-164.743C533.837,-150.007 520.968,-127.945 508.803,-107.092"/>
<polygon fill="black" stroke="black" points="511.71,-105.128 503.648,-98.2533 505.663,-108.655 511.71,-105.128"/>
</g>
<!-- 16 -->
<g id="node17" class="node"><title>16</title>
<path fill="#e9d3ff" stroke="black" d="M939,-98C939,-98 658,-98 658,-98 652,-98 646,-92 646,-86 646,-86 646,-12 646,-12 646,-6 652,-0 658,-0 658,-0 939,-0 939,-0 945,-0 951,-6 951,-12 951,-12 951,-86 951,-86 951,-92 945,-98 939,-98"/>
<text text-anchor="middle" x="798.5" y="-82.8" font-family="Times,serif" font-size="14.00">forward</text>
<text text-anchor="middle" x="798.5" y="-67.8" font-family="Times,serif" font-size="14.00">CB1/C0</text>
<text text-anchor="middle" x="798.5" y="-52.8" font-family="Times,serif" font-size="14.00">dilation rate: 1 &#160;&#160;k width: 3</text>
<text text-anchor="middle" x="798.5" y="-37.8" font-family="Times,serif" font-size="14.00">log gamma1: &#45;11.000000 &#160;&#160;log gamma2: &#45;11.000000</text>
<text text-anchor="middle" x="798.5" y="-22.8" font-family="Times,serif" font-size="14.00">log lambda1: &#45;11.000000 &#160;&#160;log lambda2: &#45;11.000000</text>
<text text-anchor="middle" x="798.5" y="-7.8" font-family="Times,serif" font-size="14.00">n kernels: 64</text>
</g>
<!-- 7&#45;&gt;16 -->
<g id="edge16" class="edge"><title>7&#45;&gt;16</title>
<path fill="none" stroke="black" d="M816.624,-163.923C814.327,-149.486 810.975,-128.413 807.776,-108.306"/>
<polygon fill="black" stroke="black" points="811.201,-107.559 806.174,-98.2336 804.288,-108.659 811.201,-107.559"/>
</g>
<!-- 17 -->
<g id="node18" class="node"><title>17</title>
<path fill="#e9d3ff" stroke="black" d="M1262,-98C1262,-98 981,-98 981,-98 975,-98 969,-92 969,-86 969,-86 969,-12 969,-12 969,-6 975,-0 981,-0 981,-0 1262,-0 1262,-0 1268,-0 1274,-6 1274,-12 1274,-12 1274,-86 1274,-86 1274,-92 1268,-98 1262,-98"/>
<text text-anchor="middle" x="1121.5" y="-82.8" font-family="Times,serif" font-size="14.00">forward</text>
<text text-anchor="middle" x="1121.5" y="-67.8" font-family="Times,serif" font-size="14.00">CB1/C1</text>
<text text-anchor="middle" x="1121.5" y="-52.8" font-family="Times,serif" font-size="14.00">dilation rate: 1 &#160;&#160;k width: 3</text>
<text text-anchor="middle" x="1121.5" y="-37.8" font-family="Times,serif" font-size="14.00">log gamma1: &#45;11.000000 &#160;&#160;log gamma2: &#45;11.000000</text>
<text text-anchor="middle" x="1121.5" y="-22.8" font-family="Times,serif" font-size="14.00">log lambda1: &#45;11.000000 &#160;&#160;log lambda2: &#45;11.000000</text>
<text text-anchor="middle" x="1121.5" y="-7.8" font-family="Times,serif" font-size="14.00">n kernels: 64</text>
</g>
<!-- 8&#45;&gt;17 -->
<g id="edge17" class="edge"><title>8&#45;&gt;17</title>
<path fill="none" stroke="black" d="M1102.51,-163.923C1104.92,-149.486 1108.43,-128.413 1111.78,-108.306"/>
<polygon fill="black" stroke="black" points="1115.27,-108.673 1113.46,-98.2336 1108.36,-107.522 1115.27,-108.673"/>
</g>
<!-- 18 -->
<g id="node19" class="node"><title>18</title>
<path fill="#e9d3ff" stroke="black" d="M1585,-98C1585,-98 1304,-98 1304,-98 1298,-98 1292,-92 1292,-86 1292,-86 1292,-12 1292,-12 1292,-6 1298,-0 1304,-0 1304,-0 1585,-0 1585,-0 1591,-0 1597,-6 1597,-12 1597,-12 1597,-86 1597,-86 1597,-92 1591,-98 1585,-98"/>
<text text-anchor="middle" x="1444.5" y="-82.8" font-family="Times,serif" font-size="14.00">forward</text>
<text text-anchor="middle" x="1444.5" y="-67.8" font-family="Times,serif" font-size="14.00">input</text>
<text text-anchor="middle" x="1444.5" y="-52.8" font-family="Times,serif" font-size="14.00">dilation rate: 1 &#160;&#160;k width: 3</text>
<text text-anchor="middle" x="1444.5" y="-37.8" font-family="Times,serif" font-size="14.00">log gamma1: &#45;11.000000 &#160;&#160;log gamma2: &#45;11.000000</text>
<text text-anchor="middle" x="1444.5" y="-22.8" font-family="Times,serif" font-size="14.00">log lambda1: &#45;11.000000 &#160;&#160;log lambda2: &#45;11.000000</text>
<text text-anchor="middle" x="1444.5" y="-7.8" font-family="Times,serif" font-size="14.00">n kernels: 64</text>
</g>
<!-- 9&#45;&gt;18 -->
<g id="edge18" class="edge"><title>9&#45;&gt;18</title>
<path fill="none" stroke="black" d="M1377.18,-163.923C1385.91,-149.157 1398.74,-127.447 1410.86,-106.93"/>
<polygon fill="black" stroke="black" points="1413.92,-108.623 1416,-98.2336 1407.9,-105.062 1413.92,-108.623"/>
</g>
<!-- 19 -->
<g id="node20" class="node"><title>19</title>
<path fill="#e9d3ff" stroke="black" d="M1908,-98C1908,-98 1627,-98 1627,-98 1621,-98 1615,-92 1615,-86 1615,-86 1615,-12 1615,-12 1615,-6 1621,-0 1627,-0 1627,-0 1908,-0 1908,-0 1914,-0 1920,-6 1920,-12 1920,-12 1920,-86 1920,-86 1920,-92 1914,-98 1908,-98"/>
<text text-anchor="middle" x="1767.5" y="-82.8" font-family="Times,serif" font-size="14.00">forward</text>
<text text-anchor="middle" x="1767.5" y="-67.8" font-family="Times,serif" font-size="14.00">CB2/C0</text>
<text text-anchor="middle" x="1767.5" y="-52.8" font-family="Times,serif" font-size="14.00">dilation rate: 1 &#160;&#160;k width: 3</text>
<text text-anchor="middle" x="1767.5" y="-37.8" font-family="Times,serif" font-size="14.00">log gamma1: &#45;11.000000 &#160;&#160;log gamma2: &#45;11.000000</text>
<text text-anchor="middle" x="1767.5" y="-22.8" font-family="Times,serif" font-size="14.00">log lambda1: &#45;11.000000 &#160;&#160;log lambda2: &#45;11.000000</text>
<text text-anchor="middle" x="1767.5" y="-7.8" font-family="Times,serif" font-size="14.00">n kernels: 64</text>
</g>
<!-- 10&#45;&gt;19 -->
<g id="edge19" class="edge"><title>10&#45;&gt;19</title>
<path fill="none" stroke="black" d="M1567.27,-163.923C1594.79,-148.267 1636.02,-124.806 1673.93,-103.236"/>
<polygon fill="black" stroke="black" points="1676.02,-106.077 1682.98,-98.0901 1672.56,-99.9933 1676.02,-106.077"/>
</g>
</g>
</svg>
