<?xml version="1.0" encoding="UTF-8" standalone="no"?>
<!DOCTYPE svg PUBLIC "-//W3C//DTD SVG 1.1//EN"
 "http://www.w3.org/Graphics/SVG/1.1/DTD/svg11.dtd">
<!-- Generated by graphviz version 2.38.0 (20140413.2041)
 -->
<!-- Title: %3 Pages: 1 -->
<svg width="2541pt" height="387pt"
 viewBox="0.00 0.00 2540.50 387.00" xmlns="http://www.w3.org/2000/svg" xmlns:xlink="http://www.w3.org/1999/xlink">
<g id="graph0" class="graph" transform="scale(1 1) rotate(0) translate(4 383)">
<title>%3</title>
<polygon fill="none" stroke="none" points="-4,4 -4,-383 2536.5,-383 2536.5,4 -4,4"/>
<!-- 0 -->
<g id="node1" class="node"><title>0</title>
<path fill="#eaebf0" stroke="black" d="M945,-379C945,-379 692,-379 692,-379 686,-379 680,-373 680,-367 680,-367 680,-338 680,-338 680,-332 686,-326 692,-326 692,-326 945,-326 945,-326 951,-326 957,-332 957,-338 957,-338 957,-367 957,-367 957,-373 951,-379 945,-379"/>
<text text-anchor="middle" x="818.5" y="-363.8" font-family="Times,serif" font-size="14.00">Gene graph</text>
<text text-anchor="middle" x="818.5" y="-348.8" font-family="Times,serif" font-size="14.00">n parameters: ???</text>
<text text-anchor="middle" x="818.5" y="-333.8" font-family="Times,serif" font-size="14.00">input shape: [500, 500] output shape:[422, 422]</text>
</g>
<!-- 1 -->
<g id="node2" class="node"><title>1</title>
<path fill="#ffd3d3" stroke="black" d="M1050,-371.5C1050,-371.5 987,-371.5 987,-371.5 981,-371.5 975,-365.5 975,-359.5 975,-359.5 975,-345.5 975,-345.5 975,-339.5 981,-333.5 987,-333.5 987,-333.5 1050,-333.5 1050,-333.5 1056,-333.5 1062,-339.5 1062,-345.5 1062,-345.5 1062,-359.5 1062,-359.5 1062,-365.5 1056,-371.5 1050,-371.5"/>
<text text-anchor="middle" x="1018.5" y="-356.3" font-family="Times,serif" font-size="14.00">net</text>
<text text-anchor="middle" x="1018.5" y="-341.3" font-family="Times,serif" font-size="14.00">n kernels: 64</text>
</g>
<!-- 2 -->
<g id="node3" class="node"><title>2</title>
<path fill="#f6ffd3" stroke="black" d="M493,-290C493,-290 230,-290 230,-290 224,-290 218,-284 218,-278 218,-278 218,-249 218,-249 218,-243 224,-237 230,-237 230,-237 493,-237 493,-237 499,-237 505,-243 505,-249 505,-249 505,-278 505,-278 505,-284 499,-290 493,-290"/>
<text text-anchor="middle" x="361.5" y="-274.8" font-family="Times,serif" font-size="14.00">encoder</text>
<text text-anchor="middle" x="361.5" y="-259.8" font-family="Times,serif" font-size="14.00">log gamma1: &#45;1.791803 &#160;&#160;log gamma2: 1.000000</text>
<text text-anchor="middle" x="361.5" y="-244.8" font-family="Times,serif" font-size="14.00">n kernels: 4</text>
</g>
<!-- 1&#45;&gt;2 -->
<g id="edge1" class="edge"><title>1&#45;&gt;2</title>
<path fill="none" stroke="black" d="M985.544,-333.492C979.055,-330.568 972.183,-327.885 965.5,-326 816.261,-283.9 639.082,-269.877 515.36,-265.564"/>
<polygon fill="black" stroke="black" points="515.165,-262.056 505.054,-265.223 514.933,-269.052 515.165,-262.056"/>
</g>
<!-- 3 -->
<g id="node4" class="node"><title>3</title>
<path fill="#f6ffd3" stroke="black" d="M1148,-282.5C1148,-282.5 889,-282.5 889,-282.5 883,-282.5 877,-276.5 877,-270.5 877,-270.5 877,-256.5 877,-256.5 877,-250.5 883,-244.5 889,-244.5 889,-244.5 1148,-244.5 1148,-244.5 1154,-244.5 1160,-250.5 1160,-256.5 1160,-256.5 1160,-270.5 1160,-270.5 1160,-276.5 1154,-282.5 1148,-282.5"/>
<text text-anchor="middle" x="1018.5" y="-267.3" font-family="Times,serif" font-size="14.00">decoder</text>
<text text-anchor="middle" x="1018.5" y="-252.3" font-family="Times,serif" font-size="14.00">log gamma1: 0.667495 &#160;&#160;log gamma2: 1.000000</text>
</g>
<!-- 1&#45;&gt;3 -->
<g id="edge2" class="edge"><title>1&#45;&gt;3</title>
<path fill="none" stroke="black" d="M1018.5,-333.474C1018.5,-321.692 1018.5,-306.061 1018.5,-292.658"/>
<polygon fill="black" stroke="black" points="1022,-292.503 1018.5,-282.503 1015,-292.503 1022,-292.503"/>
</g>
<!-- 38 -->
<g id="node39" class="node"><title>38</title>
<path fill="#f6ffd3" stroke="black" d="M1919,-282.5C1919,-282.5 1856,-282.5 1856,-282.5 1850,-282.5 1844,-276.5 1844,-270.5 1844,-270.5 1844,-256.5 1844,-256.5 1844,-250.5 1850,-244.5 1856,-244.5 1856,-244.5 1919,-244.5 1919,-244.5 1925,-244.5 1931,-250.5 1931,-256.5 1931,-256.5 1931,-270.5 1931,-270.5 1931,-276.5 1925,-282.5 1919,-282.5"/>
<text text-anchor="middle" x="1887.5" y="-267.3" font-family="Times,serif" font-size="14.00">aspp</text>
<text text-anchor="middle" x="1887.5" y="-252.3" font-family="Times,serif" font-size="14.00">n kernels: 64</text>
</g>
<!-- 1&#45;&gt;38 -->
<g id="edge37" class="edge"><title>1&#45;&gt;38</title>
<path fill="none" stroke="black" d="M1062.19,-347.126C1207.6,-332.569 1674.96,-285.778 1833.96,-269.86"/>
<polygon fill="black" stroke="black" points="1834.38,-273.336 1843.98,-268.857 1833.68,-266.371 1834.38,-273.336"/>
</g>
<!-- 4 -->
<g id="node5" class="node"><title>4</title>
<path fill="#d3ffe4" stroke="black" d="M106,-192.5C106,-192.5 31,-192.5 31,-192.5 25,-192.5 19,-186.5 19,-180.5 19,-180.5 19,-168.5 19,-168.5 19,-162.5 25,-156.5 31,-156.5 31,-156.5 106,-156.5 106,-156.5 112,-156.5 118,-162.5 118,-168.5 118,-168.5 118,-180.5 118,-180.5 118,-186.5 112,-192.5 106,-192.5"/>
<text text-anchor="middle" x="68.5" y="-170.8" font-family="Times,serif" font-size="14.00">encode block 0</text>
</g>
<!-- 2&#45;&gt;4 -->
<g id="edge3" class="edge"><title>2&#45;&gt;4</title>
<path fill="none" stroke="black" d="M250.362,-236.944C211.151,-226.969 167.006,-214.641 127.5,-201 123.466,-199.607 119.319,-198.061 115.185,-196.439"/>
<polygon fill="black" stroke="black" points="116.201,-193.073 105.619,-192.551 113.565,-199.558 116.201,-193.073"/>
</g>
<!-- 5 -->
<g id="node6" class="node"><title>5</title>
<path fill="#bfe6cf" stroke="black" d="M350.5,-201C350.5,-201 148.5,-201 148.5,-201 142.5,-201 136.5,-195 136.5,-189 136.5,-189 136.5,-160 136.5,-160 136.5,-154 142.5,-148 148.5,-148 148.5,-148 350.5,-148 350.5,-148 356.5,-148 362.5,-154 362.5,-160 362.5,-160 362.5,-189 362.5,-189 362.5,-195 356.5,-201 350.5,-201"/>
<text text-anchor="middle" x="249.5" y="-185.8" font-family="Times,serif" font-size="14.00">encode block 1</text>
<text text-anchor="middle" x="249.5" y="-170.8" font-family="Times,serif" font-size="14.00">log gamma2: 0.056006 &#160;&#160;n kernels: 68</text>
<text text-anchor="middle" x="249.5" y="-155.8" font-family="Times,serif" font-size="14.00">spatial scale: 1</text>
</g>
<!-- 2&#45;&gt;5 -->
<g id="edge4" class="edge"><title>2&#45;&gt;5</title>
<path fill="none" stroke="black" d="M328.502,-236.868C316.645,-227.658 303.124,-217.154 290.659,-207.472"/>
<polygon fill="black" stroke="black" points="292.694,-204.62 282.649,-201.25 288.399,-210.148 292.694,-204.62"/>
</g>
<!-- 6 -->
<g id="node7" class="node"><title>6</title>
<path fill="#abceb9" stroke="black" d="M554,-193.5C554,-193.5 393,-193.5 393,-193.5 387,-193.5 381,-187.5 381,-181.5 381,-181.5 381,-167.5 381,-167.5 381,-161.5 387,-155.5 393,-155.5 393,-155.5 554,-155.5 554,-155.5 560,-155.5 566,-161.5 566,-167.5 566,-167.5 566,-181.5 566,-181.5 566,-187.5 560,-193.5 554,-193.5"/>
<text text-anchor="middle" x="473.5" y="-178.3" font-family="Times,serif" font-size="14.00">encode block 2</text>
<text text-anchor="middle" x="473.5" y="-163.3" font-family="Times,serif" font-size="14.00">n kernels: 204 &#160;&#160;spatial scale: 2</text>
</g>
<!-- 2&#45;&gt;6 -->
<g id="edge5" class="edge"><title>2&#45;&gt;6</title>
<path fill="none" stroke="black" d="M394.498,-236.868C409.633,-225.111 427.482,-211.246 442.381,-199.673"/>
<polygon fill="black" stroke="black" points="444.569,-202.405 450.319,-193.507 440.275,-196.877 444.569,-202.405"/>
</g>
<!-- 7 -->
<g id="node8" class="node"><title>7</title>
<path fill="#d3ffe4" stroke="black" d="M757,-193.5C757,-193.5 596,-193.5 596,-193.5 590,-193.5 584,-187.5 584,-181.5 584,-181.5 584,-167.5 584,-167.5 584,-161.5 590,-155.5 596,-155.5 596,-155.5 757,-155.5 757,-155.5 763,-155.5 769,-161.5 769,-167.5 769,-167.5 769,-181.5 769,-181.5 769,-187.5 763,-193.5 757,-193.5"/>
<text text-anchor="middle" x="676.5" y="-178.3" font-family="Times,serif" font-size="14.00">decode block 3</text>
<text text-anchor="middle" x="676.5" y="-163.3" font-family="Times,serif" font-size="14.00">n kernels: 448 &#160;&#160;spatial scale: 3</text>
</g>
<!-- 3&#45;&gt;7 -->
<g id="edge6" class="edge"><title>3&#45;&gt;7</title>
<path fill="none" stroke="black" d="M947.637,-244.474C892.152,-230.359 814.948,-210.719 757.108,-196.005"/>
<polygon fill="black" stroke="black" points="757.826,-192.577 747.272,-193.503 756.1,-199.361 757.826,-192.577"/>
</g>
<!-- 8 -->
<g id="node9" class="node"><title>8</title>
<path fill="#bfe6cf" stroke="black" d="M1012,-201C1012,-201 799,-201 799,-201 793,-201 787,-195 787,-189 787,-189 787,-160 787,-160 787,-154 793,-148 799,-148 799,-148 1012,-148 1012,-148 1018,-148 1024,-154 1024,-160 1024,-160 1024,-189 1024,-189 1024,-195 1018,-201 1012,-201"/>
<text text-anchor="middle" x="905.5" y="-185.8" font-family="Times,serif" font-size="14.00">decode block 2</text>
<text text-anchor="middle" x="905.5" y="-170.8" font-family="Times,serif" font-size="14.00">log gamma1: &#45;1.881853 &#160;&#160;n kernels: 192</text>
<text text-anchor="middle" x="905.5" y="-155.8" font-family="Times,serif" font-size="14.00">spatial scale: 2</text>
</g>
<!-- 3&#45;&gt;8 -->
<g id="edge7" class="edge"><title>3&#45;&gt;8</title>
<path fill="none" stroke="black" d="M995.086,-244.474C981.214,-233.793 963.233,-219.949 947.024,-207.47"/>
<polygon fill="black" stroke="black" points="948.799,-204.419 938.74,-201.092 944.529,-209.966 948.799,-204.419"/>
</g>
<!-- 9 -->
<g id="node10" class="node"><title>9</title>
<path fill="#abceb9" stroke="black" d="M1209,-193.5C1209,-193.5 1054,-193.5 1054,-193.5 1048,-193.5 1042,-187.5 1042,-181.5 1042,-181.5 1042,-167.5 1042,-167.5 1042,-161.5 1048,-155.5 1054,-155.5 1054,-155.5 1209,-155.5 1209,-155.5 1215,-155.5 1221,-161.5 1221,-167.5 1221,-167.5 1221,-181.5 1221,-181.5 1221,-187.5 1215,-193.5 1209,-193.5"/>
<text text-anchor="middle" x="1131.5" y="-178.3" font-family="Times,serif" font-size="14.00">decode block 1</text>
<text text-anchor="middle" x="1131.5" y="-163.3" font-family="Times,serif" font-size="14.00">n kernels: 64 &#160;&#160;spatial scale: 1</text>
</g>
<!-- 3&#45;&gt;9 -->
<g id="edge8" class="edge"><title>3&#45;&gt;9</title>
<path fill="none" stroke="black" d="M1041.91,-244.474C1058.73,-231.525 1081.59,-213.928 1100,-199.749"/>
<polygon fill="black" stroke="black" points="1102.33,-202.377 1108.12,-193.503 1098.06,-196.831 1102.33,-202.377"/>
</g>
<!-- 10 -->
<g id="node11" class="node"><title>10</title>
<path fill="#97b6a3" stroke="black" d="M1371.5,-193.5C1371.5,-193.5 1251.5,-193.5 1251.5,-193.5 1245.5,-193.5 1239.5,-187.5 1239.5,-181.5 1239.5,-181.5 1239.5,-167.5 1239.5,-167.5 1239.5,-161.5 1245.5,-155.5 1251.5,-155.5 1251.5,-155.5 1371.5,-155.5 1371.5,-155.5 1377.5,-155.5 1383.5,-161.5 1383.5,-167.5 1383.5,-167.5 1383.5,-181.5 1383.5,-181.5 1383.5,-187.5 1377.5,-193.5 1371.5,-193.5"/>
<text text-anchor="middle" x="1311.5" y="-178.3" font-family="Times,serif" font-size="14.00">decode block 0</text>
<text text-anchor="middle" x="1311.5" y="-163.3" font-family="Times,serif" font-size="14.00">log gamma1: 0.933307</text>
</g>
<!-- 3&#45;&gt;10 -->
<g id="edge9" class="edge"><title>3&#45;&gt;10</title>
<path fill="none" stroke="black" d="M1081.37,-244.494C1123.37,-232.387 1179.81,-215.966 1229.5,-201 1234.28,-199.559 1239.22,-198.058 1244.19,-196.538"/>
<polygon fill="black" stroke="black" points="1245.22,-199.884 1253.75,-193.601 1243.16,-193.192 1245.22,-199.884"/>
</g>
<!-- 11 -->
<g id="node12" class="node"><title>11</title>
<path fill="#d3e4ff" stroke="black" d="M46.5,-111C46.5,-111 12.5,-111 12.5,-111 6.5,-111 0.5,-105 0.5,-99 0.5,-99 0.5,-87 0.5,-87 0.5,-81 6.5,-75 12.5,-75 12.5,-75 46.5,-75 46.5,-75 52.5,-75 58.5,-81 58.5,-87 58.5,-87 58.5,-99 58.5,-99 58.5,-105 52.5,-111 46.5,-111"/>
<text text-anchor="middle" x="29.5" y="-89.3" font-family="Times,serif" font-size="14.00">comp 0</text>
</g>
<!-- 4&#45;&gt;11 -->
<g id="edge10" class="edge"><title>4&#45;&gt;11</title>
<path fill="none" stroke="black" d="M60.0376,-156.25C54.8758,-145.728 48.1756,-132.069 42.3669,-120.229"/>
<polygon fill="black" stroke="black" points="45.4925,-118.653 37.9459,-111.217 39.2079,-121.736 45.4925,-118.653"/>
</g>
<!-- 12 -->
<g id="node13" class="node"><title>12</title>
<path fill="#bfcfe6" stroke="black" d="M123.5,-111C123.5,-111 89.5,-111 89.5,-111 83.5,-111 77.5,-105 77.5,-99 77.5,-99 77.5,-87 77.5,-87 77.5,-81 83.5,-75 89.5,-75 89.5,-75 123.5,-75 123.5,-75 129.5,-75 135.5,-81 135.5,-87 135.5,-87 135.5,-99 135.5,-99 135.5,-105 129.5,-111 123.5,-111"/>
<text text-anchor="middle" x="106.5" y="-89.3" font-family="Times,serif" font-size="14.00">comp 1</text>
</g>
<!-- 4&#45;&gt;12 -->
<g id="edge11" class="edge"><title>4&#45;&gt;12</title>
<path fill="none" stroke="black" d="M76.7454,-156.25C81.725,-145.832 88.1741,-132.34 93.7947,-120.581"/>
<polygon fill="black" stroke="black" points="97.1159,-121.748 98.2707,-111.217 90.8002,-118.73 97.1159,-121.748"/>
</g>
<!-- 13 -->
<g id="node14" class="node"><title>13</title>
<path fill="#d3e4ff" stroke="black" d="M234.5,-111C234.5,-111 200.5,-111 200.5,-111 194.5,-111 188.5,-105 188.5,-99 188.5,-99 188.5,-87 188.5,-87 188.5,-81 194.5,-75 200.5,-75 200.5,-75 234.5,-75 234.5,-75 240.5,-75 246.5,-81 246.5,-87 246.5,-87 246.5,-99 246.5,-99 246.5,-105 240.5,-111 234.5,-111"/>
<text text-anchor="middle" x="217.5" y="-89.3" font-family="Times,serif" font-size="14.00">comp 0</text>
</g>
<!-- 5&#45;&gt;13 -->
<g id="edge12" class="edge"><title>5&#45;&gt;13</title>
<path fill="none" stroke="black" d="M239.199,-147.908C235.694,-139.201 231.77,-129.452 228.233,-120.664"/>
<polygon fill="black" stroke="black" points="231.427,-119.226 224.446,-111.256 224.933,-121.84 231.427,-119.226"/>
</g>
<!-- 14 -->
<g id="node15" class="node"><title>14</title>
<path fill="#bfcfe6" stroke="black" d="M311.5,-111C311.5,-111 277.5,-111 277.5,-111 271.5,-111 265.5,-105 265.5,-99 265.5,-99 265.5,-87 265.5,-87 265.5,-81 271.5,-75 277.5,-75 277.5,-75 311.5,-75 311.5,-75 317.5,-75 323.5,-81 323.5,-87 323.5,-87 323.5,-99 323.5,-99 323.5,-105 317.5,-111 311.5,-111"/>
<text text-anchor="middle" x="294.5" y="-89.3" font-family="Times,serif" font-size="14.00">comp 1</text>
</g>
<!-- 5&#45;&gt;14 -->
<g id="edge13" class="edge"><title>5&#45;&gt;14</title>
<path fill="none" stroke="black" d="M263.986,-147.908C269.02,-139.014 274.67,-129.033 279.727,-120.098"/>
<polygon fill="black" stroke="black" points="282.852,-121.683 284.732,-111.256 276.76,-118.235 282.852,-121.683"/>
</g>
<!-- 15 -->
<g id="node16" class="node"><title>15</title>
<path fill="#d3e4ff" stroke="black" d="M456.5,-111C456.5,-111 422.5,-111 422.5,-111 416.5,-111 410.5,-105 410.5,-99 410.5,-99 410.5,-87 410.5,-87 410.5,-81 416.5,-75 422.5,-75 422.5,-75 456.5,-75 456.5,-75 462.5,-75 468.5,-81 468.5,-87 468.5,-87 468.5,-99 468.5,-99 468.5,-105 462.5,-111 456.5,-111"/>
<text text-anchor="middle" x="439.5" y="-89.3" font-family="Times,serif" font-size="14.00">comp 0</text>
</g>
<!-- 6&#45;&gt;15 -->
<g id="edge14" class="edge"><title>6&#45;&gt;15</title>
<path fill="none" stroke="black" d="M465.785,-155.46C461.39,-145.185 455.802,-132.117 450.908,-120.676"/>
<polygon fill="black" stroke="black" points="453.985,-118.969 446.835,-111.151 447.549,-121.722 453.985,-118.969"/>
</g>
<!-- 16 -->
<g id="node17" class="node"><title>16</title>
<path fill="#bfcfe6" stroke="black" d="M533.5,-111C533.5,-111 499.5,-111 499.5,-111 493.5,-111 487.5,-105 487.5,-99 487.5,-99 487.5,-87 487.5,-87 487.5,-81 493.5,-75 499.5,-75 499.5,-75 533.5,-75 533.5,-75 539.5,-75 545.5,-81 545.5,-87 545.5,-87 545.5,-99 545.5,-99 545.5,-105 539.5,-111 533.5,-111"/>
<text text-anchor="middle" x="516.5" y="-89.3" font-family="Times,serif" font-size="14.00">comp 1</text>
</g>
<!-- 6&#45;&gt;16 -->
<g id="edge15" class="edge"><title>6&#45;&gt;16</title>
<path fill="none" stroke="black" d="M483.257,-155.46C488.927,-144.977 496.169,-131.588 502.446,-119.984"/>
<polygon fill="black" stroke="black" points="505.544,-121.612 507.223,-111.151 499.387,-118.282 505.544,-121.612"/>
</g>
<!-- 17 -->
<g id="node18" class="node"><title>17</title>
<path fill="#d3e4ff" stroke="black" d="M689.5,-111C689.5,-111 655.5,-111 655.5,-111 649.5,-111 643.5,-105 643.5,-99 643.5,-99 643.5,-87 643.5,-87 643.5,-81 649.5,-75 655.5,-75 655.5,-75 689.5,-75 689.5,-75 695.5,-75 701.5,-81 701.5,-87 701.5,-87 701.5,-99 701.5,-99 701.5,-105 695.5,-111 689.5,-111"/>
<text text-anchor="middle" x="672.5" y="-89.3" font-family="Times,serif" font-size="14.00">comp 0</text>
</g>
<!-- 7&#45;&gt;17 -->
<g id="edge16" class="edge"><title>7&#45;&gt;17</title>
<path fill="none" stroke="black" d="M675.592,-155.46C675.086,-145.392 674.444,-132.644 673.877,-121.371"/>
<polygon fill="black" stroke="black" points="677.361,-120.962 673.363,-111.151 670.37,-121.314 677.361,-120.962"/>
</g>
<!-- 18 -->
<g id="node19" class="node"><title>18</title>
<path fill="#bfcfe6" stroke="black" d="M766.5,-111C766.5,-111 732.5,-111 732.5,-111 726.5,-111 720.5,-105 720.5,-99 720.5,-99 720.5,-87 720.5,-87 720.5,-81 726.5,-75 732.5,-75 732.5,-75 766.5,-75 766.5,-75 772.5,-75 778.5,-81 778.5,-87 778.5,-87 778.5,-99 778.5,-99 778.5,-105 772.5,-111 766.5,-111"/>
<text text-anchor="middle" x="749.5" y="-89.3" font-family="Times,serif" font-size="14.00">comp 1</text>
</g>
<!-- 7&#45;&gt;18 -->
<g id="edge17" class="edge"><title>7&#45;&gt;18</title>
<path fill="none" stroke="black" d="M693.065,-155.46C703.072,-144.562 715.963,-130.523 726.898,-118.614"/>
<polygon fill="black" stroke="black" points="729.566,-120.884 733.751,-111.151 724.41,-116.149 729.566,-120.884"/>
</g>
<!-- 19 -->
<g id="node20" class="node"><title>19</title>
<path fill="#d3e4ff" stroke="black" d="M922.5,-111C922.5,-111 888.5,-111 888.5,-111 882.5,-111 876.5,-105 876.5,-99 876.5,-99 876.5,-87 876.5,-87 876.5,-81 882.5,-75 888.5,-75 888.5,-75 922.5,-75 922.5,-75 928.5,-75 934.5,-81 934.5,-87 934.5,-87 934.5,-99 934.5,-99 934.5,-105 928.5,-111 922.5,-111"/>
<text text-anchor="middle" x="905.5" y="-89.3" font-family="Times,serif" font-size="14.00">comp 0</text>
</g>
<!-- 8&#45;&gt;19 -->
<g id="edge18" class="edge"><title>8&#45;&gt;19</title>
<path fill="none" stroke="black" d="M905.5,-147.908C905.5,-139.482 905.5,-130.08 905.5,-121.517"/>
<polygon fill="black" stroke="black" points="909,-121.256 905.5,-111.256 902,-121.256 909,-121.256"/>
</g>
<!-- 20 -->
<g id="node21" class="node"><title>20</title>
<path fill="#d3e4ff" stroke="black" d="M1142.5,-112C1142.5,-112 1022.5,-112 1022.5,-112 1016.5,-112 1010.5,-106 1010.5,-100 1010.5,-100 1010.5,-86 1010.5,-86 1010.5,-80 1016.5,-74 1022.5,-74 1022.5,-74 1142.5,-74 1142.5,-74 1148.5,-74 1154.5,-80 1154.5,-86 1154.5,-86 1154.5,-100 1154.5,-100 1154.5,-106 1148.5,-112 1142.5,-112"/>
<text text-anchor="middle" x="1082.5" y="-96.8" font-family="Times,serif" font-size="14.00">comp 0</text>
<text text-anchor="middle" x="1082.5" y="-81.8" font-family="Times,serif" font-size="14.00">log gamma1: 1.550770</text>
</g>
<!-- 9&#45;&gt;20 -->
<g id="edge19" class="edge"><title>9&#45;&gt;20</title>
<path fill="none" stroke="black" d="M1120.38,-155.46C1114.1,-145.266 1106.12,-132.324 1099.11,-120.949"/>
<polygon fill="black" stroke="black" points="1101.97,-118.92 1093.74,-112.244 1096.01,-122.593 1101.97,-118.92"/>
</g>
<!-- 21 -->
<g id="node22" class="node"><title>21</title>
<path fill="#bfcfe6" stroke="black" d="M1218.5,-111C1218.5,-111 1184.5,-111 1184.5,-111 1178.5,-111 1172.5,-105 1172.5,-99 1172.5,-99 1172.5,-87 1172.5,-87 1172.5,-81 1178.5,-75 1184.5,-75 1184.5,-75 1218.5,-75 1218.5,-75 1224.5,-75 1230.5,-81 1230.5,-87 1230.5,-87 1230.5,-99 1230.5,-99 1230.5,-105 1224.5,-111 1218.5,-111"/>
<text text-anchor="middle" x="1201.5" y="-89.3" font-family="Times,serif" font-size="14.00">comp 1</text>
</g>
<!-- 9&#45;&gt;21 -->
<g id="edge20" class="edge"><title>9&#45;&gt;21</title>
<path fill="none" stroke="black" d="M1147.38,-155.46C1156.89,-144.666 1169.11,-130.79 1179.53,-118.955"/>
<polygon fill="black" stroke="black" points="1182.42,-120.969 1186.4,-111.151 1177.16,-116.343 1182.42,-120.969"/>
</g>
<!-- 22 -->
<g id="node23" class="node"><title>22</title>
<path fill="#d3e4ff" stroke="black" d="M1306.5,-111C1306.5,-111 1272.5,-111 1272.5,-111 1266.5,-111 1260.5,-105 1260.5,-99 1260.5,-99 1260.5,-87 1260.5,-87 1260.5,-81 1266.5,-75 1272.5,-75 1272.5,-75 1306.5,-75 1306.5,-75 1312.5,-75 1318.5,-81 1318.5,-87 1318.5,-87 1318.5,-99 1318.5,-99 1318.5,-105 1312.5,-111 1306.5,-111"/>
<text text-anchor="middle" x="1289.5" y="-89.3" font-family="Times,serif" font-size="14.00">comp 0</text>
</g>
<!-- 10&#45;&gt;22 -->
<g id="edge21" class="edge"><title>10&#45;&gt;22</title>
<path fill="none" stroke="black" d="M1306.51,-155.46C1303.69,-145.288 1300.12,-132.381 1296.98,-121.023"/>
<polygon fill="black" stroke="black" points="1300.29,-119.855 1294.25,-111.151 1293.54,-121.722 1300.29,-119.855"/>
</g>
<!-- 23 -->
<g id="node24" class="node"><title>23</title>
<path fill="#f6d3ff" stroke="black" d="M47,-38C47,-38 12,-38 12,-38 6,-38 0,-32 0,-26 0,-26 0,-12 0,-12 0,-6 6,-0 12,-0 12,-0 47,-0 47,-0 53,-0 59,-6 59,-12 59,-12 59,-26 59,-26 59,-32 53,-38 47,-38"/>
<text text-anchor="middle" x="29.5" y="-22.8" font-family="Times,serif" font-size="14.00">forward</text>
<text text-anchor="middle" x="29.5" y="-7.8" font-family="Times,serif" font-size="14.00">input</text>
</g>
<!-- 11&#45;&gt;23 -->
<g id="edge22" class="edge"><title>11&#45;&gt;23</title>
<path fill="none" stroke="black" d="M29.5,-74.937C29.5,-66.9865 29.5,-57.3134 29.5,-48.3127"/>
<polygon fill="black" stroke="black" points="33.0001,-48.1991 29.5,-38.1992 26.0001,-48.1992 33.0001,-48.1991"/>
</g>
<!-- 24 -->
<g id="node25" class="node"><title>24</title>
<path fill="#f6d3ff" stroke="black" d="M125.5,-38C125.5,-38 89.5,-38 89.5,-38 83.5,-38 77.5,-32 77.5,-26 77.5,-26 77.5,-12 77.5,-12 77.5,-6 83.5,-0 89.5,-0 89.5,-0 125.5,-0 125.5,-0 131.5,-0 137.5,-6 137.5,-12 137.5,-12 137.5,-26 137.5,-26 137.5,-32 131.5,-38 125.5,-38"/>
<text text-anchor="middle" x="107.5" y="-22.8" font-family="Times,serif" font-size="14.00">forward</text>
<text text-anchor="middle" x="107.5" y="-7.8" font-family="Times,serif" font-size="14.00">EB0/C0</text>
</g>
<!-- 12&#45;&gt;24 -->
<g id="edge23" class="edge"><title>12&#45;&gt;24</title>
<path fill="none" stroke="black" d="M106.737,-74.937C106.847,-66.9865 106.982,-57.3134 107.107,-48.3127"/>
<polygon fill="black" stroke="black" points="110.608,-48.2468 107.247,-38.1992 103.609,-48.1496 110.608,-48.2468"/>
</g>
<!-- 25 -->
<g id="node26" class="node"><title>25</title>
<path fill="#f6d3ff" stroke="black" d="M235.5,-38C235.5,-38 199.5,-38 199.5,-38 193.5,-38 187.5,-32 187.5,-26 187.5,-26 187.5,-12 187.5,-12 187.5,-6 193.5,-0 199.5,-0 199.5,-0 235.5,-0 235.5,-0 241.5,-0 247.5,-6 247.5,-12 247.5,-12 247.5,-26 247.5,-26 247.5,-32 241.5,-38 235.5,-38"/>
<text text-anchor="middle" x="217.5" y="-22.8" font-family="Times,serif" font-size="14.00">forward</text>
<text text-anchor="middle" x="217.5" y="-7.8" font-family="Times,serif" font-size="14.00">EB0/C1</text>
</g>
<!-- 13&#45;&gt;25 -->
<g id="edge24" class="edge"><title>13&#45;&gt;25</title>
<path fill="none" stroke="black" d="M217.5,-74.937C217.5,-66.9865 217.5,-57.3134 217.5,-48.3127"/>
<polygon fill="black" stroke="black" points="221,-48.1991 217.5,-38.1992 214,-48.1992 221,-48.1991"/>
</g>
<!-- 26 -->
<g id="node27" class="node"><title>26</title>
<path fill="#f6d3ff" stroke="black" d="M313.5,-38C313.5,-38 277.5,-38 277.5,-38 271.5,-38 265.5,-32 265.5,-26 265.5,-26 265.5,-12 265.5,-12 265.5,-6 271.5,-0 277.5,-0 277.5,-0 313.5,-0 313.5,-0 319.5,-0 325.5,-6 325.5,-12 325.5,-12 325.5,-26 325.5,-26 325.5,-32 319.5,-38 313.5,-38"/>
<text text-anchor="middle" x="295.5" y="-22.8" font-family="Times,serif" font-size="14.00">forward</text>
<text text-anchor="middle" x="295.5" y="-7.8" font-family="Times,serif" font-size="14.00">EB1/C0</text>
</g>
<!-- 14&#45;&gt;26 -->
<g id="edge25" class="edge"><title>14&#45;&gt;26</title>
<path fill="none" stroke="black" d="M294.737,-74.937C294.847,-66.9865 294.982,-57.3134 295.107,-48.3127"/>
<polygon fill="black" stroke="black" points="298.608,-48.2468 295.247,-38.1992 291.609,-48.1496 298.608,-48.2468"/>
</g>
<!-- 27 -->
<g id="node28" class="node"><title>27</title>
<path fill="#f6d3ff" stroke="black" d="M457.5,-38C457.5,-38 421.5,-38 421.5,-38 415.5,-38 409.5,-32 409.5,-26 409.5,-26 409.5,-12 409.5,-12 409.5,-6 415.5,-0 421.5,-0 421.5,-0 457.5,-0 457.5,-0 463.5,-0 469.5,-6 469.5,-12 469.5,-12 469.5,-26 469.5,-26 469.5,-32 463.5,-38 457.5,-38"/>
<text text-anchor="middle" x="439.5" y="-22.8" font-family="Times,serif" font-size="14.00">forward</text>
<text text-anchor="middle" x="439.5" y="-7.8" font-family="Times,serif" font-size="14.00">EB1/C1</text>
</g>
<!-- 15&#45;&gt;27 -->
<g id="edge26" class="edge"><title>15&#45;&gt;27</title>
<path fill="none" stroke="black" d="M439.5,-74.937C439.5,-66.9865 439.5,-57.3134 439.5,-48.3127"/>
<polygon fill="black" stroke="black" points="443,-48.1991 439.5,-38.1992 436,-48.1992 443,-48.1991"/>
</g>
<!-- 28 -->
<g id="node29" class="node"><title>28</title>
<path fill="#f6d3ff" stroke="black" d="M535.5,-38C535.5,-38 499.5,-38 499.5,-38 493.5,-38 487.5,-32 487.5,-26 487.5,-26 487.5,-12 487.5,-12 487.5,-6 493.5,-0 499.5,-0 499.5,-0 535.5,-0 535.5,-0 541.5,-0 547.5,-6 547.5,-12 547.5,-12 547.5,-26 547.5,-26 547.5,-32 541.5,-38 535.5,-38"/>
<text text-anchor="middle" x="517.5" y="-22.8" font-family="Times,serif" font-size="14.00">forward</text>
<text text-anchor="middle" x="517.5" y="-7.8" font-family="Times,serif" font-size="14.00">EB2/C0</text>
</g>
<!-- 16&#45;&gt;28 -->
<g id="edge27" class="edge"><title>16&#45;&gt;28</title>
<path fill="none" stroke="black" d="M516.737,-74.937C516.847,-66.9865 516.982,-57.3134 517.107,-48.3127"/>
<polygon fill="black" stroke="black" points="520.608,-48.2468 517.247,-38.1992 513.609,-48.1496 520.608,-48.2468"/>
</g>
<!-- 29 -->
<g id="node30" class="node"><title>29</title>
<path fill="#f6d3ff" stroke="black" d="M689.5,-38C689.5,-38 653.5,-38 653.5,-38 647.5,-38 641.5,-32 641.5,-26 641.5,-26 641.5,-12 641.5,-12 641.5,-6 647.5,-0 653.5,-0 653.5,-0 689.5,-0 689.5,-0 695.5,-0 701.5,-6 701.5,-12 701.5,-12 701.5,-26 701.5,-26 701.5,-32 695.5,-38 689.5,-38"/>
<text text-anchor="middle" x="671.5" y="-22.8" font-family="Times,serif" font-size="14.00">forward</text>
<text text-anchor="middle" x="671.5" y="-7.8" font-family="Times,serif" font-size="14.00">EB2/C1</text>
</g>
<!-- 17&#45;&gt;29 -->
<g id="edge28" class="edge"><title>17&#45;&gt;29</title>
<path fill="none" stroke="black" d="M672.263,-74.937C672.153,-66.9865 672.018,-57.3134 671.893,-48.3127"/>
<polygon fill="black" stroke="black" points="675.391,-48.1496 671.753,-38.1992 668.392,-48.2468 675.391,-48.1496"/>
</g>
<!-- 30 -->
<g id="node31" class="node"><title>30</title>
<path fill="#f6d3ff" stroke="black" d="M769.5,-38C769.5,-38 731.5,-38 731.5,-38 725.5,-38 719.5,-32 719.5,-26 719.5,-26 719.5,-12 719.5,-12 719.5,-6 725.5,-0 731.5,-0 731.5,-0 769.5,-0 769.5,-0 775.5,-0 781.5,-6 781.5,-12 781.5,-12 781.5,-26 781.5,-26 781.5,-32 775.5,-38 769.5,-38"/>
<text text-anchor="middle" x="750.5" y="-22.8" font-family="Times,serif" font-size="14.00">forward</text>
<text text-anchor="middle" x="750.5" y="-7.8" font-family="Times,serif" font-size="14.00">DB3/C0</text>
</g>
<!-- 18&#45;&gt;30 -->
<g id="edge29" class="edge"><title>18&#45;&gt;30</title>
<path fill="none" stroke="black" d="M749.737,-74.937C749.847,-66.9865 749.982,-57.3134 750.107,-48.3127"/>
<polygon fill="black" stroke="black" points="753.608,-48.2468 750.247,-38.1992 746.609,-48.1496 753.608,-48.2468"/>
</g>
<!-- 31 -->
<g id="node32" class="node"><title>31</title>
<path fill="#f6d3ff" stroke="black" d="M880.5,-38C880.5,-38 842.5,-38 842.5,-38 836.5,-38 830.5,-32 830.5,-26 830.5,-26 830.5,-12 830.5,-12 830.5,-6 836.5,-0 842.5,-0 842.5,-0 880.5,-0 880.5,-0 886.5,-0 892.5,-6 892.5,-12 892.5,-12 892.5,-26 892.5,-26 892.5,-32 886.5,-38 880.5,-38"/>
<text text-anchor="middle" x="861.5" y="-22.8" font-family="Times,serif" font-size="14.00">forward</text>
<text text-anchor="middle" x="861.5" y="-7.8" font-family="Times,serif" font-size="14.00">DB3/C1</text>
</g>
<!-- 19&#45;&gt;31 -->
<g id="edge30" class="edge"><title>19&#45;&gt;31</title>
<path fill="none" stroke="black" d="M895.073,-74.937C889.95,-66.5544 883.657,-56.2569 877.909,-46.8516"/>
<polygon fill="black" stroke="black" points="880.823,-44.9069 872.622,-38.1992 874.85,-48.5571 880.823,-44.9069"/>
</g>
<!-- 32 -->
<g id="node33" class="node"><title>32</title>
<path fill="#debfe6" stroke="black" d="M958.5,-38C958.5,-38 922.5,-38 922.5,-38 916.5,-38 910.5,-32 910.5,-26 910.5,-26 910.5,-12 910.5,-12 910.5,-6 916.5,-0 922.5,-0 922.5,-0 958.5,-0 958.5,-0 964.5,-0 970.5,-6 970.5,-12 970.5,-12 970.5,-26 970.5,-26 970.5,-32 964.5,-38 958.5,-38"/>
<text text-anchor="middle" x="940.5" y="-22.8" font-family="Times,serif" font-size="14.00">merge</text>
<text text-anchor="middle" x="940.5" y="-7.8" font-family="Times,serif" font-size="14.00">EB2/C1</text>
</g>
<!-- 19&#45;&gt;32 -->
<g id="edge31" class="edge"><title>19&#45;&gt;32</title>
<path fill="none" stroke="black" d="M913.795,-74.937C917.785,-66.7273 922.669,-56.6807 927.164,-47.4345"/>
<polygon fill="black" stroke="black" points="930.429,-48.723 931.653,-38.1992 924.133,-45.6627 930.429,-48.723"/>
</g>
<!-- 33 -->
<g id="node34" class="node"><title>33</title>
<path fill="#f6d3ff" stroke="black" d="M1054.5,-38C1054.5,-38 1016.5,-38 1016.5,-38 1010.5,-38 1004.5,-32 1004.5,-26 1004.5,-26 1004.5,-12 1004.5,-12 1004.5,-6 1010.5,-0 1016.5,-0 1016.5,-0 1054.5,-0 1054.5,-0 1060.5,-0 1066.5,-6 1066.5,-12 1066.5,-12 1066.5,-26 1066.5,-26 1066.5,-32 1060.5,-38 1054.5,-38"/>
<text text-anchor="middle" x="1035.5" y="-22.8" font-family="Times,serif" font-size="14.00">forward</text>
<text text-anchor="middle" x="1035.5" y="-7.8" font-family="Times,serif" font-size="14.00">DB2/C0</text>
</g>
<!-- 20&#45;&gt;33 -->
<g id="edge32" class="edge"><title>20&#45;&gt;33</title>
<path fill="none" stroke="black" d="M1070.64,-73.8314C1065.34,-65.7079 1058.98,-55.9637 1053.13,-47.0118"/>
<polygon fill="black" stroke="black" points="1055.92,-44.8739 1047.52,-38.4133 1050.06,-48.7003 1055.92,-44.8739"/>
</g>
<!-- 34 -->
<g id="node35" class="node"><title>34</title>
<path fill="#debfe6" stroke="black" d="M1132.5,-38C1132.5,-38 1096.5,-38 1096.5,-38 1090.5,-38 1084.5,-32 1084.5,-26 1084.5,-26 1084.5,-12 1084.5,-12 1084.5,-6 1090.5,-0 1096.5,-0 1096.5,-0 1132.5,-0 1132.5,-0 1138.5,-0 1144.5,-6 1144.5,-12 1144.5,-12 1144.5,-26 1144.5,-26 1144.5,-32 1138.5,-38 1132.5,-38"/>
<text text-anchor="middle" x="1114.5" y="-22.8" font-family="Times,serif" font-size="14.00">merge</text>
<text text-anchor="middle" x="1114.5" y="-7.8" font-family="Times,serif" font-size="14.00">EB1/C1</text>
</g>
<!-- 20&#45;&gt;34 -->
<g id="edge33" class="edge"><title>20&#45;&gt;34</title>
<path fill="none" stroke="black" d="M1090.57,-73.8314C1094.11,-65.8771 1098.34,-56.369 1102.25,-47.5723"/>
<polygon fill="black" stroke="black" points="1105.45,-48.9729 1106.32,-38.4133 1099.06,-46.1299 1105.45,-48.9729"/>
</g>
<!-- 35 -->
<g id="node36" class="node"><title>35</title>
<path fill="#f6d3ff" stroke="black" d="M1220.5,-38C1220.5,-38 1182.5,-38 1182.5,-38 1176.5,-38 1170.5,-32 1170.5,-26 1170.5,-26 1170.5,-12 1170.5,-12 1170.5,-6 1176.5,-0 1182.5,-0 1182.5,-0 1220.5,-0 1220.5,-0 1226.5,-0 1232.5,-6 1232.5,-12 1232.5,-12 1232.5,-26 1232.5,-26 1232.5,-32 1226.5,-38 1220.5,-38"/>
<text text-anchor="middle" x="1201.5" y="-22.8" font-family="Times,serif" font-size="14.00">forward</text>
<text text-anchor="middle" x="1201.5" y="-7.8" font-family="Times,serif" font-size="14.00">DB1/C0</text>
</g>
<!-- 21&#45;&gt;35 -->
<g id="edge34" class="edge"><title>21&#45;&gt;35</title>
<path fill="none" stroke="black" d="M1201.5,-74.937C1201.5,-66.9865 1201.5,-57.3134 1201.5,-48.3127"/>
<polygon fill="black" stroke="black" points="1205,-48.1991 1201.5,-38.1992 1198,-48.1992 1205,-48.1991"/>
</g>
<!-- 36 -->
<g id="node37" class="node"><title>36</title>
<path fill="#f6d3ff" stroke="black" d="M1304.5,-38C1304.5,-38 1266.5,-38 1266.5,-38 1260.5,-38 1254.5,-32 1254.5,-26 1254.5,-26 1254.5,-12 1254.5,-12 1254.5,-6 1260.5,-0 1266.5,-0 1266.5,-0 1304.5,-0 1304.5,-0 1310.5,-0 1316.5,-6 1316.5,-12 1316.5,-12 1316.5,-26 1316.5,-26 1316.5,-32 1310.5,-38 1304.5,-38"/>
<text text-anchor="middle" x="1285.5" y="-22.8" font-family="Times,serif" font-size="14.00">forward</text>
<text text-anchor="middle" x="1285.5" y="-7.8" font-family="Times,serif" font-size="14.00">DB1/C1</text>
</g>
<!-- 22&#45;&gt;36 -->
<g id="edge35" class="edge"><title>22&#45;&gt;36</title>
<path fill="none" stroke="black" d="M1288.55,-74.937C1288.11,-66.9865 1287.57,-57.3134 1287.07,-48.3127"/>
<polygon fill="black" stroke="black" points="1290.56,-47.9896 1286.51,-38.1992 1283.57,-48.3779 1290.56,-47.9896"/>
</g>
<!-- 37 -->
<g id="node38" class="node"><title>37</title>
<path fill="#debfe6" stroke="black" d="M1382.5,-38C1382.5,-38 1346.5,-38 1346.5,-38 1340.5,-38 1334.5,-32 1334.5,-26 1334.5,-26 1334.5,-12 1334.5,-12 1334.5,-6 1340.5,-0 1346.5,-0 1346.5,-0 1382.5,-0 1382.5,-0 1388.5,-0 1394.5,-6 1394.5,-12 1394.5,-12 1394.5,-26 1394.5,-26 1394.5,-32 1388.5,-38 1382.5,-38"/>
<text text-anchor="middle" x="1364.5" y="-22.8" font-family="Times,serif" font-size="14.00">merge</text>
<text text-anchor="middle" x="1364.5" y="-7.8" font-family="Times,serif" font-size="14.00">EB0/C1</text>
</g>
<!-- 22&#45;&gt;37 -->
<g id="edge36" class="edge"><title>22&#45;&gt;37</title>
<path fill="none" stroke="black" d="M1307.27,-74.937C1316.46,-66.1223 1327.84,-55.1902 1338.04,-45.4047"/>
<polygon fill="black" stroke="black" points="1340.75,-47.6494 1345.54,-38.1992 1335.9,-42.5996 1340.75,-47.6494"/>
</g>
<!-- 39 -->
<g id="node40" class="node"><title>39</title>
<path fill="#d3ffe4" stroke="black" d="M1581.5,-201C1581.5,-201 1433.5,-201 1433.5,-201 1427.5,-201 1421.5,-195 1421.5,-189 1421.5,-189 1421.5,-160 1421.5,-160 1421.5,-154 1427.5,-148 1433.5,-148 1433.5,-148 1581.5,-148 1581.5,-148 1587.5,-148 1593.5,-154 1593.5,-160 1593.5,-160 1593.5,-189 1593.5,-189 1593.5,-195 1587.5,-201 1581.5,-201"/>
<text text-anchor="middle" x="1507.5" y="-185.8" font-family="Times,serif" font-size="14.00">aspp output</text>
<text text-anchor="middle" x="1507.5" y="-170.8" font-family="Times,serif" font-size="14.00">dilation rate: &#45;5 &#160;&#160;k width: &#45;2</text>
<text text-anchor="middle" x="1507.5" y="-155.8" font-family="Times,serif" font-size="14.00">padding: 1</text>
</g>
<!-- 38&#45;&gt;39 -->
<g id="edge38" class="edge"><title>38&#45;&gt;39</title>
<path fill="none" stroke="black" d="M1843.89,-253.792C1789.82,-242.838 1694.61,-223.047 1603.6,-201.222"/>
<polygon fill="black" stroke="black" points="1604.21,-197.77 1593.67,-198.829 1602.57,-204.575 1604.21,-197.77"/>
</g>
<!-- 40 -->
<g id="node41" class="node"><title>40</title>
<path fill="#bfe6cf" stroke="black" d="M1771.5,-201C1771.5,-201 1623.5,-201 1623.5,-201 1617.5,-201 1611.5,-195 1611.5,-189 1611.5,-189 1611.5,-160 1611.5,-160 1611.5,-154 1617.5,-148 1623.5,-148 1623.5,-148 1771.5,-148 1771.5,-148 1777.5,-148 1783.5,-154 1783.5,-160 1783.5,-160 1783.5,-189 1783.5,-189 1783.5,-195 1777.5,-201 1771.5,-201"/>
<text text-anchor="middle" x="1697.5" y="-185.8" font-family="Times,serif" font-size="14.00">aspp path 0</text>
<text text-anchor="middle" x="1697.5" y="-170.8" font-family="Times,serif" font-size="14.00">dilation rate: &#45;5 &#160;&#160;k width: &#45;2</text>
<text text-anchor="middle" x="1697.5" y="-155.8" font-family="Times,serif" font-size="14.00">padding: 1 &#160;&#160;spatial scale: 1</text>
</g>
<!-- 38&#45;&gt;40 -->
<g id="edge39" class="edge"><title>38&#45;&gt;40</title>
<path fill="none" stroke="black" d="M1848.13,-244.474C1823.52,-233.205 1791.22,-218.415 1762.85,-205.422"/>
<polygon fill="black" stroke="black" points="1763.94,-202.073 1753.39,-201.092 1761.03,-208.438 1763.94,-202.073"/>
</g>
<!-- 41 -->
<g id="node42" class="node"><title>41</title>
<path fill="#abceb9" stroke="black" d="M1961.5,-201C1961.5,-201 1813.5,-201 1813.5,-201 1807.5,-201 1801.5,-195 1801.5,-189 1801.5,-189 1801.5,-160 1801.5,-160 1801.5,-154 1807.5,-148 1813.5,-148 1813.5,-148 1961.5,-148 1961.5,-148 1967.5,-148 1973.5,-154 1973.5,-160 1973.5,-160 1973.5,-189 1973.5,-189 1973.5,-195 1967.5,-201 1961.5,-201"/>
<text text-anchor="middle" x="1887.5" y="-185.8" font-family="Times,serif" font-size="14.00">aspp path 1</text>
<text text-anchor="middle" x="1887.5" y="-170.8" font-family="Times,serif" font-size="14.00">dilation rate: &#45;5 &#160;&#160;k width: &#45;2</text>
<text text-anchor="middle" x="1887.5" y="-155.8" font-family="Times,serif" font-size="14.00">padding: 1</text>
</g>
<!-- 38&#45;&gt;41 -->
<g id="edge40" class="edge"><title>38&#45;&gt;41</title>
<path fill="none" stroke="black" d="M1887.5,-244.474C1887.5,-234.871 1887.5,-222.711 1887.5,-211.285"/>
<polygon fill="black" stroke="black" points="1891,-211.092 1887.5,-201.092 1884,-211.092 1891,-211.092"/>
</g>
<!-- 42 -->
<g id="node43" class="node"><title>42</title>
<path fill="#97b6a3" stroke="black" d="M2147,-193.5C2147,-193.5 2004,-193.5 2004,-193.5 1998,-193.5 1992,-187.5 1992,-181.5 1992,-181.5 1992,-167.5 1992,-167.5 1992,-161.5 1998,-155.5 2004,-155.5 2004,-155.5 2147,-155.5 2147,-155.5 2153,-155.5 2159,-161.5 2159,-167.5 2159,-167.5 2159,-181.5 2159,-181.5 2159,-187.5 2153,-193.5 2147,-193.5"/>
<text text-anchor="middle" x="2075.5" y="-178.3" font-family="Times,serif" font-size="14.00">aspp path 2</text>
<text text-anchor="middle" x="2075.5" y="-163.3" font-family="Times,serif" font-size="14.00">n aspp paths: 1 &#160;&#160;padding: 1</text>
</g>
<!-- 38&#45;&gt;42 -->
<g id="edge41" class="edge"><title>38&#45;&gt;42</title>
<path fill="none" stroke="black" d="M1924.81,-244.43C1930.07,-241.917 1935.41,-239.382 1940.5,-237 1968.75,-223.77 2000.49,-209.292 2026.09,-197.708"/>
<polygon fill="black" stroke="black" points="2027.56,-200.887 2035.23,-193.579 2024.68,-194.508 2027.56,-200.887"/>
</g>
<!-- 43 -->
<g id="node44" class="node"><title>43</title>
<path fill="#839e8d" stroke="black" d="M2330,-193.5C2330,-193.5 2189,-193.5 2189,-193.5 2183,-193.5 2177,-187.5 2177,-181.5 2177,-181.5 2177,-167.5 2177,-167.5 2177,-161.5 2183,-155.5 2189,-155.5 2189,-155.5 2330,-155.5 2330,-155.5 2336,-155.5 2342,-161.5 2342,-167.5 2342,-167.5 2342,-181.5 2342,-181.5 2342,-187.5 2336,-193.5 2330,-193.5"/>
<text text-anchor="middle" x="2259.5" y="-178.3" font-family="Times,serif" font-size="14.00">aspp path 3</text>
<text text-anchor="middle" x="2259.5" y="-163.3" font-family="Times,serif" font-size="14.00">dilation rate: 6 &#160;&#160;padding: 1</text>
</g>
<!-- 38&#45;&gt;43 -->
<g id="edge42" class="edge"><title>38&#45;&gt;43</title>
<path fill="none" stroke="black" d="M1921.4,-244.399C1927.63,-241.595 1934.16,-238.977 1940.5,-237 2038.43,-206.436 2068.27,-222.878 2168.5,-201 2175.07,-199.566 2181.87,-197.938 2188.65,-196.214"/>
<polygon fill="black" stroke="black" points="2189.76,-199.541 2198.56,-193.631 2188,-192.768 2189.76,-199.541"/>
</g>
<!-- 44 -->
<g id="node45" class="node"><title>44</title>
<path fill="#6f8578" stroke="black" d="M2520.5,-193.5C2520.5,-193.5 2372.5,-193.5 2372.5,-193.5 2366.5,-193.5 2360.5,-187.5 2360.5,-181.5 2360.5,-181.5 2360.5,-167.5 2360.5,-167.5 2360.5,-161.5 2366.5,-155.5 2372.5,-155.5 2372.5,-155.5 2520.5,-155.5 2520.5,-155.5 2526.5,-155.5 2532.5,-161.5 2532.5,-167.5 2532.5,-167.5 2532.5,-181.5 2532.5,-181.5 2532.5,-187.5 2526.5,-193.5 2520.5,-193.5"/>
<text text-anchor="middle" x="2446.5" y="-178.3" font-family="Times,serif" font-size="14.00">aspp path 4</text>
<text text-anchor="middle" x="2446.5" y="-163.3" font-family="Times,serif" font-size="14.00">dilation rate: 12 &#160;&#160;padding: 1</text>
</g>
<!-- 38&#45;&gt;44 -->
<g id="edge43" class="edge"><title>38&#45;&gt;44</title>
<path fill="none" stroke="black" d="M1920.43,-244.416C1926.93,-241.499 1933.8,-238.838 1940.5,-237 2117.32,-188.461 2170.93,-232.89 2351.5,-201 2359.39,-199.606 2367.58,-197.867 2375.69,-195.955"/>
<polygon fill="black" stroke="black" points="2376.65,-199.326 2385.53,-193.55 2374.98,-192.526 2376.65,-199.326"/>
</g>
<!-- 45 -->
<g id="node46" class="node"><title>45</title>
<path fill="#d3e4ff" stroke="black" d="M1378.5,-112C1378.5,-112 1348.5,-112 1348.5,-112 1342.5,-112 1336.5,-106 1336.5,-100 1336.5,-100 1336.5,-86 1336.5,-86 1336.5,-80 1342.5,-74 1348.5,-74 1348.5,-74 1378.5,-74 1378.5,-74 1384.5,-74 1390.5,-80 1390.5,-86 1390.5,-86 1390.5,-100 1390.5,-100 1390.5,-106 1384.5,-112 1378.5,-112"/>
<text text-anchor="middle" x="1363.5" y="-96.8" font-family="Times,serif" font-size="14.00">merge</text>
<text text-anchor="middle" x="1363.5" y="-81.8" font-family="Times,serif" font-size="14.00">A/AP0</text>
</g>
<!-- 39&#45;&gt;45 -->
<g id="edge44" class="edge"><title>39&#45;&gt;45</title>
<path fill="none" stroke="black" d="M1461.14,-147.908C1441.22,-136.908 1418.28,-124.243 1399.64,-113.955"/>
<polygon fill="black" stroke="black" points="1401.32,-110.882 1390.87,-109.113 1397.94,-117.01 1401.32,-110.882"/>
</g>
<!-- 46 -->
<g id="node47" class="node"><title>46</title>
<path fill="#bfcfe6" stroke="black" d="M1450.5,-112C1450.5,-112 1420.5,-112 1420.5,-112 1414.5,-112 1408.5,-106 1408.5,-100 1408.5,-100 1408.5,-86 1408.5,-86 1408.5,-80 1414.5,-74 1420.5,-74 1420.5,-74 1450.5,-74 1450.5,-74 1456.5,-74 1462.5,-80 1462.5,-86 1462.5,-86 1462.5,-100 1462.5,-100 1462.5,-106 1456.5,-112 1450.5,-112"/>
<text text-anchor="middle" x="1435.5" y="-96.8" font-family="Times,serif" font-size="14.00">merge</text>
<text text-anchor="middle" x="1435.5" y="-81.8" font-family="Times,serif" font-size="14.00">A/AP1</text>
</g>
<!-- 39&#45;&gt;46 -->
<g id="edge45" class="edge"><title>39&#45;&gt;46</title>
<path fill="none" stroke="black" d="M1484.32,-147.908C1476.18,-138.921 1467.04,-128.822 1458.88,-119.817"/>
<polygon fill="black" stroke="black" points="1461.33,-117.301 1452.02,-112.239 1456.14,-122 1461.33,-117.301"/>
</g>
<!-- 47 -->
<g id="node48" class="node"><title>47</title>
<path fill="#abb9ce" stroke="black" d="M1522.5,-112C1522.5,-112 1492.5,-112 1492.5,-112 1486.5,-112 1480.5,-106 1480.5,-100 1480.5,-100 1480.5,-86 1480.5,-86 1480.5,-80 1486.5,-74 1492.5,-74 1492.5,-74 1522.5,-74 1522.5,-74 1528.5,-74 1534.5,-80 1534.5,-86 1534.5,-86 1534.5,-100 1534.5,-100 1534.5,-106 1528.5,-112 1522.5,-112"/>
<text text-anchor="middle" x="1507.5" y="-96.8" font-family="Times,serif" font-size="14.00">merge</text>
<text text-anchor="middle" x="1507.5" y="-81.8" font-family="Times,serif" font-size="14.00">A/AP2</text>
</g>
<!-- 39&#45;&gt;47 -->
<g id="edge46" class="edge"><title>39&#45;&gt;47</title>
<path fill="none" stroke="black" d="M1507.5,-147.908C1507.5,-139.738 1507.5,-130.649 1507.5,-122.298"/>
<polygon fill="black" stroke="black" points="1511,-122.239 1507.5,-112.239 1504,-122.239 1511,-122.239"/>
</g>
<!-- 48 -->
<g id="node49" class="node"><title>48</title>
<path fill="#97a3b6" stroke="black" d="M1594.5,-112C1594.5,-112 1564.5,-112 1564.5,-112 1558.5,-112 1552.5,-106 1552.5,-100 1552.5,-100 1552.5,-86 1552.5,-86 1552.5,-80 1558.5,-74 1564.5,-74 1564.5,-74 1594.5,-74 1594.5,-74 1600.5,-74 1606.5,-80 1606.5,-86 1606.5,-86 1606.5,-100 1606.5,-100 1606.5,-106 1600.5,-112 1594.5,-112"/>
<text text-anchor="middle" x="1579.5" y="-96.8" font-family="Times,serif" font-size="14.00">merge</text>
<text text-anchor="middle" x="1579.5" y="-81.8" font-family="Times,serif" font-size="14.00">A/AP3</text>
</g>
<!-- 39&#45;&gt;48 -->
<g id="edge47" class="edge"><title>39&#45;&gt;48</title>
<path fill="none" stroke="black" d="M1530.68,-147.908C1538.82,-138.921 1547.96,-128.822 1556.12,-119.817"/>
<polygon fill="black" stroke="black" points="1558.86,-122 1562.98,-112.239 1553.67,-117.301 1558.86,-122"/>
</g>
<!-- 49 -->
<g id="node50" class="node"><title>49</title>
<path fill="#838d9e" stroke="black" d="M1666.5,-112C1666.5,-112 1636.5,-112 1636.5,-112 1630.5,-112 1624.5,-106 1624.5,-100 1624.5,-100 1624.5,-86 1624.5,-86 1624.5,-80 1630.5,-74 1636.5,-74 1636.5,-74 1666.5,-74 1666.5,-74 1672.5,-74 1678.5,-80 1678.5,-86 1678.5,-86 1678.5,-100 1678.5,-100 1678.5,-106 1672.5,-112 1666.5,-112"/>
<text text-anchor="middle" x="1651.5" y="-96.8" font-family="Times,serif" font-size="14.00">merge</text>
<text text-anchor="middle" x="1651.5" y="-81.8" font-family="Times,serif" font-size="14.00">A/AP4</text>
</g>
<!-- 39&#45;&gt;49 -->
<g id="edge48" class="edge"><title>39&#45;&gt;49</title>
<path fill="none" stroke="black" d="M1553.86,-147.908C1573.78,-136.908 1596.72,-124.243 1615.36,-113.955"/>
<polygon fill="black" stroke="black" points="1617.06,-117.01 1624.13,-109.113 1613.68,-110.882 1617.06,-117.01"/>
</g>
<!-- 50 -->
<g id="node51" class="node"><title>50</title>
<path fill="#d3e4ff" stroke="black" d="M1746.5,-112C1746.5,-112 1708.5,-112 1708.5,-112 1702.5,-112 1696.5,-106 1696.5,-100 1696.5,-100 1696.5,-86 1696.5,-86 1696.5,-80 1702.5,-74 1708.5,-74 1708.5,-74 1746.5,-74 1746.5,-74 1752.5,-74 1758.5,-80 1758.5,-86 1758.5,-86 1758.5,-100 1758.5,-100 1758.5,-106 1752.5,-112 1746.5,-112"/>
<text text-anchor="middle" x="1727.5" y="-96.8" font-family="Times,serif" font-size="14.00">forward</text>
<text text-anchor="middle" x="1727.5" y="-81.8" font-family="Times,serif" font-size="14.00">DB0/C0</text>
</g>
<!-- 40&#45;&gt;50 -->
<g id="edge49" class="edge"><title>40&#45;&gt;50</title>
<path fill="none" stroke="black" d="M1707.16,-147.908C1710.31,-139.556 1713.82,-130.245 1717.03,-121.742"/>
<polygon fill="black" stroke="black" points="1720.36,-122.831 1720.62,-112.239 1713.81,-120.359 1720.36,-122.831"/>
</g>
<!-- 51 -->
<g id="node52" class="node"><title>51</title>
<path fill="#d3e4ff" stroke="black" d="M1906.5,-112C1906.5,-112 1868.5,-112 1868.5,-112 1862.5,-112 1856.5,-106 1856.5,-100 1856.5,-100 1856.5,-86 1856.5,-86 1856.5,-80 1862.5,-74 1868.5,-74 1868.5,-74 1906.5,-74 1906.5,-74 1912.5,-74 1918.5,-80 1918.5,-86 1918.5,-86 1918.5,-100 1918.5,-100 1918.5,-106 1912.5,-112 1906.5,-112"/>
<text text-anchor="middle" x="1887.5" y="-96.8" font-family="Times,serif" font-size="14.00">forward</text>
<text text-anchor="middle" x="1887.5" y="-81.8" font-family="Times,serif" font-size="14.00">DB0/C0</text>
</g>
<!-- 41&#45;&gt;51 -->
<g id="edge50" class="edge"><title>41&#45;&gt;51</title>
<path fill="none" stroke="black" d="M1887.5,-147.908C1887.5,-139.738 1887.5,-130.649 1887.5,-122.298"/>
<polygon fill="black" stroke="black" points="1891,-122.239 1887.5,-112.239 1884,-122.239 1891,-122.239"/>
</g>
<!-- 52 -->
<g id="node53" class="node"><title>52</title>
<path fill="#d3e4ff" stroke="black" d="M2094.5,-112C2094.5,-112 2056.5,-112 2056.5,-112 2050.5,-112 2044.5,-106 2044.5,-100 2044.5,-100 2044.5,-86 2044.5,-86 2044.5,-80 2050.5,-74 2056.5,-74 2056.5,-74 2094.5,-74 2094.5,-74 2100.5,-74 2106.5,-80 2106.5,-86 2106.5,-86 2106.5,-100 2106.5,-100 2106.5,-106 2100.5,-112 2094.5,-112"/>
<text text-anchor="middle" x="2075.5" y="-96.8" font-family="Times,serif" font-size="14.00">forward</text>
<text text-anchor="middle" x="2075.5" y="-81.8" font-family="Times,serif" font-size="14.00">DB0/C0</text>
</g>
<!-- 42&#45;&gt;52 -->
<g id="edge51" class="edge"><title>42&#45;&gt;52</title>
<path fill="none" stroke="black" d="M2075.5,-155.46C2075.5,-145.67 2075.5,-133.345 2075.5,-122.307"/>
<polygon fill="black" stroke="black" points="2079,-122.244 2075.5,-112.244 2072,-122.244 2079,-122.244"/>
</g>
<!-- 53 -->
<g id="node54" class="node"><title>53</title>
<path fill="#d3e4ff" stroke="black" d="M2278.5,-112C2278.5,-112 2240.5,-112 2240.5,-112 2234.5,-112 2228.5,-106 2228.5,-100 2228.5,-100 2228.5,-86 2228.5,-86 2228.5,-80 2234.5,-74 2240.5,-74 2240.5,-74 2278.5,-74 2278.5,-74 2284.5,-74 2290.5,-80 2290.5,-86 2290.5,-86 2290.5,-100 2290.5,-100 2290.5,-106 2284.5,-112 2278.5,-112"/>
<text text-anchor="middle" x="2259.5" y="-96.8" font-family="Times,serif" font-size="14.00">forward</text>
<text text-anchor="middle" x="2259.5" y="-81.8" font-family="Times,serif" font-size="14.00">DB0/C0</text>
</g>
<!-- 43&#45;&gt;53 -->
<g id="edge52" class="edge"><title>43&#45;&gt;53</title>
<path fill="none" stroke="black" d="M2259.5,-155.46C2259.5,-145.67 2259.5,-133.345 2259.5,-122.307"/>
<polygon fill="black" stroke="black" points="2263,-122.244 2259.5,-112.244 2256,-122.244 2263,-122.244"/>
</g>
<!-- 54 -->
<g id="node55" class="node"><title>54</title>
<path fill="#d3e4ff" stroke="black" d="M2465.5,-112C2465.5,-112 2427.5,-112 2427.5,-112 2421.5,-112 2415.5,-106 2415.5,-100 2415.5,-100 2415.5,-86 2415.5,-86 2415.5,-80 2421.5,-74 2427.5,-74 2427.5,-74 2465.5,-74 2465.5,-74 2471.5,-74 2477.5,-80 2477.5,-86 2477.5,-86 2477.5,-100 2477.5,-100 2477.5,-106 2471.5,-112 2465.5,-112"/>
<text text-anchor="middle" x="2446.5" y="-96.8" font-family="Times,serif" font-size="14.00">forward</text>
<text text-anchor="middle" x="2446.5" y="-81.8" font-family="Times,serif" font-size="14.00">DB0/C0</text>
</g>
<!-- 44&#45;&gt;54 -->
<g id="edge53" class="edge"><title>44&#45;&gt;54</title>
<path fill="none" stroke="black" d="M2446.5,-155.46C2446.5,-145.67 2446.5,-133.345 2446.5,-122.307"/>
<polygon fill="black" stroke="black" points="2450,-122.244 2446.5,-112.244 2443,-122.244 2450,-122.244"/>
</g>
<!-- 55 -->
<g id="node56" class="node"><title>55</title>
<path fill="#ffd3d3" stroke="black" d="M2010,-371.5C2010,-371.5 1947,-371.5 1947,-371.5 1941,-371.5 1935,-365.5 1935,-359.5 1935,-359.5 1935,-345.5 1935,-345.5 1935,-339.5 1941,-333.5 1947,-333.5 1947,-333.5 2010,-333.5 2010,-333.5 2016,-333.5 2022,-339.5 2022,-345.5 2022,-345.5 2022,-359.5 2022,-359.5 2022,-365.5 2016,-371.5 2010,-371.5"/>
<text text-anchor="middle" x="1978.5" y="-356.3" font-family="Times,serif" font-size="14.00">predictor</text>
<text text-anchor="middle" x="1978.5" y="-341.3" font-family="Times,serif" font-size="14.00">n kernels: 64</text>
</g>
<!-- 56 -->
<g id="node57" class="node"><title>56</title>
<path fill="#d3ffff" stroke="black" d="M1996,-282.5C1996,-282.5 1961,-282.5 1961,-282.5 1955,-282.5 1949,-276.5 1949,-270.5 1949,-270.5 1949,-256.5 1949,-256.5 1949,-250.5 1955,-244.5 1961,-244.5 1961,-244.5 1996,-244.5 1996,-244.5 2002,-244.5 2008,-250.5 2008,-256.5 2008,-256.5 2008,-270.5 2008,-270.5 2008,-276.5 2002,-282.5 1996,-282.5"/>
<text text-anchor="middle" x="1978.5" y="-267.3" font-family="Times,serif" font-size="14.00">forward</text>
<text text-anchor="middle" x="1978.5" y="-252.3" font-family="Times,serif" font-size="14.00">A/AO</text>
</g>
<!-- 55&#45;&gt;56 -->
<g id="edge54" class="edge"><title>55&#45;&gt;56</title>
<path fill="none" stroke="black" d="M1978.5,-333.474C1978.5,-321.692 1978.5,-306.061 1978.5,-292.658"/>
<polygon fill="black" stroke="black" points="1982,-292.503 1978.5,-282.503 1975,-292.503 1982,-292.503"/>
</g>
</g>
</svg>
