<?xml version="1.0" encoding="UTF-8" standalone="no"?>
<!DOCTYPE svg PUBLIC "-//W3C//DTD SVG 1.1//EN"
 "http://www.w3.org/Graphics/SVG/1.1/DTD/svg11.dtd">
<!-- Generated by graphviz version 2.38.0 (20140413.2041)
 -->
<!-- Title: %3 Pages: 1 -->
<svg width="2288pt" height="418pt"
 viewBox="0.00 0.00 2288.00 418.00" xmlns="http://www.w3.org/2000/svg" xmlns:xlink="http://www.w3.org/1999/xlink">
<g id="graph0" class="graph" transform="scale(1 1) rotate(0) translate(4 414)">
<title>%3</title>
<polygon fill="none" stroke="none" points="-4,4 -4,-414 2284,-414 2284,4 -4,4"/>
<!-- 0 -->
<g id="node1" class="node"><title>0</title>
<path fill="#ffd3d3" stroke="black" d="M1026,-410C1026,-410 835,-410 835,-410 829,-410 823,-404 823,-398 823,-398 823,-369 823,-369 823,-363 829,-357 835,-357 835,-357 1026,-357 1026,-357 1032,-357 1038,-363 1038,-369 1038,-369 1038,-398 1038,-398 1038,-404 1032,-410 1026,-410"/>
<text text-anchor="middle" x="930.5" y="-394.8" font-family="Times,serif" font-size="14.00">net</text>
<text text-anchor="middle" x="930.5" y="-379.8" font-family="Times,serif" font-size="14.00">k width: 3 &#160;&#160;log gamma2: &#45;8.562773</text>
<text text-anchor="middle" x="930.5" y="-364.8" font-family="Times,serif" font-size="14.00">n kernels: 64</text>
</g>
<!-- 1 -->
<g id="node2" class="node"><title>1</title>
<path fill="#e9ffd3" stroke="black" d="M441,-312.5C441,-312.5 378,-312.5 378,-312.5 372,-312.5 366,-306.5 366,-300.5 366,-300.5 366,-288.5 366,-288.5 366,-282.5 372,-276.5 378,-276.5 378,-276.5 441,-276.5 441,-276.5 447,-276.5 453,-282.5 453,-288.5 453,-288.5 453,-300.5 453,-300.5 453,-306.5 447,-312.5 441,-312.5"/>
<text text-anchor="middle" x="409.5" y="-290.8" font-family="Times,serif" font-size="14.00">conv block 0</text>
</g>
<!-- 0&#45;&gt;1 -->
<g id="edge1" class="edge"><title>0&#45;&gt;1</title>
<path fill="none" stroke="black" d="M822.864,-364.526C713.2,-346.214 547.605,-318.562 463.153,-304.459"/>
<polygon fill="black" stroke="black" points="463.705,-301.003 453.265,-302.808 462.552,-307.908 463.705,-301.003"/>
</g>
<!-- 2 -->
<g id="node3" class="node"><title>2</title>
<path fill="#e9ffd3" stroke="black" d="M856.5,-321C856.5,-321 740.5,-321 740.5,-321 734.5,-321 728.5,-315 728.5,-309 728.5,-309 728.5,-280 728.5,-280 728.5,-274 734.5,-268 740.5,-268 740.5,-268 856.5,-268 856.5,-268 862.5,-268 868.5,-274 868.5,-280 868.5,-280 868.5,-309 868.5,-309 868.5,-315 862.5,-321 856.5,-321"/>
<text text-anchor="middle" x="798.5" y="-305.8" font-family="Times,serif" font-size="14.00">conv block 1</text>
<text text-anchor="middle" x="798.5" y="-290.8" font-family="Times,serif" font-size="14.00">n kernels: 5 &#160;&#160;pool z: 1</text>
<text text-anchor="middle" x="798.5" y="-275.8" font-family="Times,serif" font-size="14.00">spatial scale: 1</text>
</g>
<!-- 0&#45;&gt;2 -->
<g id="edge2" class="edge"><title>0&#45;&gt;2</title>
<path fill="none" stroke="black" d="M891.61,-356.868C877.37,-347.482 861.092,-336.754 846.171,-326.92"/>
<polygon fill="black" stroke="black" points="847.844,-323.831 837.569,-321.25 843.992,-329.675 847.844,-323.831"/>
</g>
<!-- 3 -->
<g id="node4" class="node"><title>3</title>
<path fill="#e9ffd3" stroke="black" d="M1168,-321C1168,-321 957,-321 957,-321 951,-321 945,-315 945,-309 945,-309 945,-280 945,-280 945,-274 951,-268 957,-268 957,-268 1168,-268 1168,-268 1174,-268 1180,-274 1180,-280 1180,-280 1180,-309 1180,-309 1180,-315 1174,-321 1168,-321"/>
<text text-anchor="middle" x="1062.5" y="-305.8" font-family="Times,serif" font-size="14.00">conv block 2</text>
<text text-anchor="middle" x="1062.5" y="-290.8" font-family="Times,serif" font-size="14.00">log gamma2: &#45;0.638850 &#160;&#160;n kernels: &#45;19</text>
<text text-anchor="middle" x="1062.5" y="-275.8" font-family="Times,serif" font-size="14.00">spatial scale: 2</text>
</g>
<!-- 0&#45;&gt;3 -->
<g id="edge3" class="edge"><title>0&#45;&gt;3</title>
<path fill="none" stroke="black" d="M969.39,-356.868C983.63,-347.482 999.908,-336.754 1014.83,-326.92"/>
<polygon fill="black" stroke="black" points="1017.01,-329.675 1023.43,-321.25 1013.16,-323.831 1017.01,-329.675"/>
</g>
<!-- 4 -->
<g id="node5" class="node"><title>4</title>
<path fill="#e9ffd3" stroke="black" d="M1676,-312.5C1676,-312.5 1609,-312.5 1609,-312.5 1603,-312.5 1597,-306.5 1597,-300.5 1597,-300.5 1597,-288.5 1597,-288.5 1597,-282.5 1603,-276.5 1609,-276.5 1609,-276.5 1676,-276.5 1676,-276.5 1682,-276.5 1688,-282.5 1688,-288.5 1688,-288.5 1688,-300.5 1688,-300.5 1688,-306.5 1682,-312.5 1676,-312.5"/>
<text text-anchor="middle" x="1642.5" y="-290.8" font-family="Times,serif" font-size="14.00">path combine</text>
</g>
<!-- 0&#45;&gt;4 -->
<g id="edge4" class="edge"><title>0&#45;&gt;4</title>
<path fill="none" stroke="black" d="M1038.25,-369.334C1191.84,-350.567 1468.18,-316.8 1586.38,-302.357"/>
<polygon fill="black" stroke="black" points="1587.15,-305.79 1596.65,-301.103 1586.3,-298.842 1587.15,-305.79"/>
</g>
<!-- 5 -->
<g id="node6" class="node"><title>5</title>
<path fill="#d3ffff" stroke="black" d="M366.5,-209.5C366.5,-209.5 98.5,-209.5 98.5,-209.5 92.5,-209.5 86.5,-203.5 86.5,-197.5 86.5,-197.5 86.5,-168.5 86.5,-168.5 86.5,-162.5 92.5,-156.5 98.5,-156.5 98.5,-156.5 366.5,-156.5 366.5,-156.5 372.5,-156.5 378.5,-162.5 378.5,-168.5 378.5,-168.5 378.5,-197.5 378.5,-197.5 378.5,-203.5 372.5,-209.5 366.5,-209.5"/>
<text text-anchor="middle" x="232.5" y="-194.3" font-family="Times,serif" font-size="14.00">comp 0</text>
<text text-anchor="middle" x="232.5" y="-179.3" font-family="Times,serif" font-size="14.00">log gamma1: &#45;1.645180 &#160;&#160;log gamma2: &#45;1.055913</text>
<text text-anchor="middle" x="232.5" y="-164.3" font-family="Times,serif" font-size="14.00">n kernels: 15</text>
</g>
<!-- 1&#45;&gt;5 -->
<g id="edge5" class="edge"><title>1&#45;&gt;5</title>
<path fill="none" stroke="black" d="M381.844,-276.391C355.359,-260.006 314.785,-234.905 282.609,-215"/>
<polygon fill="black" stroke="black" points="284.121,-211.819 273.775,-209.535 280.438,-217.772 284.121,-211.819"/>
</g>
<!-- 6 -->
<g id="node7" class="node"><title>6</title>
<path fill="#d3ffff" stroke="black" d="M614,-202C614,-202 489,-202 489,-202 483,-202 477,-196 477,-190 477,-190 477,-176 477,-176 477,-170 483,-164 489,-164 489,-164 614,-164 614,-164 620,-164 626,-170 626,-176 626,-176 626,-190 626,-190 626,-196 620,-202 614,-202"/>
<text text-anchor="middle" x="551.5" y="-186.8" font-family="Times,serif" font-size="14.00">comp 0</text>
<text text-anchor="middle" x="551.5" y="-171.8" font-family="Times,serif" font-size="14.00">log gamma1: &#45;1.788925</text>
</g>
<!-- 2&#45;&gt;6 -->
<g id="edge6" class="edge"><title>2&#45;&gt;6</title>
<path fill="none" stroke="black" d="M740.901,-267.965C698.67,-249.243 641.9,-224.076 601.554,-206.19"/>
<polygon fill="black" stroke="black" points="602.744,-202.889 592.183,-202.036 599.907,-209.288 602.744,-202.889"/>
</g>
<!-- 7 -->
<g id="node8" class="node"><title>7</title>
<path fill="#bfe6e6" stroke="black" d="M864.5,-202C864.5,-202 732.5,-202 732.5,-202 726.5,-202 720.5,-196 720.5,-190 720.5,-190 720.5,-176 720.5,-176 720.5,-170 726.5,-164 732.5,-164 732.5,-164 864.5,-164 864.5,-164 870.5,-164 876.5,-170 876.5,-176 876.5,-176 876.5,-190 876.5,-190 876.5,-196 870.5,-202 864.5,-202"/>
<text text-anchor="middle" x="798.5" y="-186.8" font-family="Times,serif" font-size="14.00">path end 1</text>
<text text-anchor="middle" x="798.5" y="-171.8" font-family="Times,serif" font-size="14.00">k width: &#45;2 &#160;&#160;n kernels: &#45;5</text>
</g>
<!-- 2&#45;&gt;7 -->
<g id="edge7" class="edge"><title>2&#45;&gt;7</title>
<path fill="none" stroke="black" d="M798.5,-267.827C798.5,-251.18 798.5,-229.482 798.5,-212.332"/>
<polygon fill="black" stroke="black" points="802,-212.327 798.5,-202.327 795,-212.327 802,-212.327"/>
</g>
<!-- 8 -->
<g id="node9" class="node"><title>8</title>
<path fill="#d3ffff" stroke="black" d="M1122.5,-202C1122.5,-202 1002.5,-202 1002.5,-202 996.5,-202 990.5,-196 990.5,-190 990.5,-190 990.5,-176 990.5,-176 990.5,-170 996.5,-164 1002.5,-164 1002.5,-164 1122.5,-164 1122.5,-164 1128.5,-164 1134.5,-170 1134.5,-176 1134.5,-176 1134.5,-190 1134.5,-190 1134.5,-196 1128.5,-202 1122.5,-202"/>
<text text-anchor="middle" x="1062.5" y="-186.8" font-family="Times,serif" font-size="14.00">comp 0</text>
<text text-anchor="middle" x="1062.5" y="-171.8" font-family="Times,serif" font-size="14.00">log gamma2: 0.797290</text>
</g>
<!-- 3&#45;&gt;8 -->
<g id="edge8" class="edge"><title>3&#45;&gt;8</title>
<path fill="none" stroke="black" d="M1062.5,-267.827C1062.5,-251.18 1062.5,-229.482 1062.5,-212.332"/>
<polygon fill="black" stroke="black" points="1066,-212.327 1062.5,-202.327 1059,-212.327 1066,-212.327"/>
</g>
<!-- 9 -->
<g id="node10" class="node"><title>9</title>
<path fill="#bfe6e6" stroke="black" d="M1298.5,-202C1298.5,-202 1164.5,-202 1164.5,-202 1158.5,-202 1152.5,-196 1152.5,-190 1152.5,-190 1152.5,-176 1152.5,-176 1152.5,-170 1158.5,-164 1164.5,-164 1164.5,-164 1298.5,-164 1298.5,-164 1304.5,-164 1310.5,-170 1310.5,-176 1310.5,-176 1310.5,-190 1310.5,-190 1310.5,-196 1304.5,-202 1298.5,-202"/>
<text text-anchor="middle" x="1231.5" y="-186.8" font-family="Times,serif" font-size="14.00">path end 2</text>
<text text-anchor="middle" x="1231.5" y="-171.8" font-family="Times,serif" font-size="14.00">k width: &#45;2 &#160;&#160;n kernels: 19</text>
</g>
<!-- 3&#45;&gt;9 -->
<g id="edge9" class="edge"><title>3&#45;&gt;9</title>
<path fill="none" stroke="black" d="M1102.12,-267.827C1130.21,-249.631 1167.6,-225.4 1194.97,-207.67"/>
<polygon fill="black" stroke="black" points="1196.99,-210.533 1203.48,-202.158 1193.18,-204.658 1196.99,-210.533"/>
</g>
<!-- 10 -->
<g id="node11" class="node"><title>10</title>
<path fill="#d3ffff" stroke="black" d="M1622,-232C1622,-232 1341,-232 1341,-232 1335,-232 1329,-226 1329,-220 1329,-220 1329,-146 1329,-146 1329,-140 1335,-134 1341,-134 1341,-134 1622,-134 1622,-134 1628,-134 1634,-140 1634,-146 1634,-146 1634,-220 1634,-220 1634,-226 1628,-232 1622,-232"/>
<text text-anchor="middle" x="1481.5" y="-216.8" font-family="Times,serif" font-size="14.00">forward</text>
<text text-anchor="middle" x="1481.5" y="-201.8" font-family="Times,serif" font-size="14.00">CB0/C0</text>
<text text-anchor="middle" x="1481.5" y="-186.8" font-family="Times,serif" font-size="14.00">dilation rate: 1 &#160;&#160;k width: 3</text>
<text text-anchor="middle" x="1481.5" y="-171.8" font-family="Times,serif" font-size="14.00">log gamma1: &#45;11.000000 &#160;&#160;log gamma2: &#45;11.000000</text>
<text text-anchor="middle" x="1481.5" y="-156.8" font-family="Times,serif" font-size="14.00">log lambda1: &#45;11.000000 &#160;&#160;log lambda2: &#45;11.000000</text>
<text text-anchor="middle" x="1481.5" y="-141.8" font-family="Times,serif" font-size="14.00">n kernels: 64</text>
</g>
<!-- 4&#45;&gt;10 -->
<g id="edge10" class="edge"><title>4&#45;&gt;10</title>
<path fill="none" stroke="black" d="M1617.34,-276.391C1601.95,-265.923 1581.33,-251.898 1560.81,-237.942"/>
<polygon fill="black" stroke="black" points="1562.59,-234.917 1552.35,-232.188 1558.65,-240.706 1562.59,-234.917"/>
</g>
<!-- 11 -->
<g id="node12" class="node"><title>11</title>
<path fill="#bfe6e6" stroke="black" d="M1945,-232C1945,-232 1664,-232 1664,-232 1658,-232 1652,-226 1652,-220 1652,-220 1652,-146 1652,-146 1652,-140 1658,-134 1664,-134 1664,-134 1945,-134 1945,-134 1951,-134 1957,-140 1957,-146 1957,-146 1957,-220 1957,-220 1957,-226 1951,-232 1945,-232"/>
<text text-anchor="middle" x="1804.5" y="-216.8" font-family="Times,serif" font-size="14.00">merge 1</text>
<text text-anchor="middle" x="1804.5" y="-201.8" font-family="Times,serif" font-size="14.00">CB1/PE1</text>
<text text-anchor="middle" x="1804.5" y="-186.8" font-family="Times,serif" font-size="14.00">dilation rate: 1 &#160;&#160;k width: 3</text>
<text text-anchor="middle" x="1804.5" y="-171.8" font-family="Times,serif" font-size="14.00">log gamma1: &#45;11.000000 &#160;&#160;log gamma2: &#45;11.000000</text>
<text text-anchor="middle" x="1804.5" y="-156.8" font-family="Times,serif" font-size="14.00">log lambda1: &#45;11.000000 &#160;&#160;log lambda2: &#45;11.000000</text>
<text text-anchor="middle" x="1804.5" y="-141.8" font-family="Times,serif" font-size="14.00">n kernels: 64</text>
</g>
<!-- 4&#45;&gt;11 -->
<g id="edge11" class="edge"><title>4&#45;&gt;11</title>
<path fill="none" stroke="black" d="M1667.81,-276.391C1683.3,-265.923 1704.05,-251.898 1724.69,-237.942"/>
<polygon fill="black" stroke="black" points="1726.88,-240.687 1733.21,-232.188 1722.96,-234.888 1726.88,-240.687"/>
</g>
<!-- 12 -->
<g id="node13" class="node"><title>12</title>
<path fill="#abcece" stroke="black" d="M2268,-232C2268,-232 1987,-232 1987,-232 1981,-232 1975,-226 1975,-220 1975,-220 1975,-146 1975,-146 1975,-140 1981,-134 1987,-134 1987,-134 2268,-134 2268,-134 2274,-134 2280,-140 2280,-146 2280,-146 2280,-220 2280,-220 2280,-226 2274,-232 2268,-232"/>
<text text-anchor="middle" x="2127.5" y="-216.8" font-family="Times,serif" font-size="14.00">merge 2</text>
<text text-anchor="middle" x="2127.5" y="-201.8" font-family="Times,serif" font-size="14.00">CB2/PE2</text>
<text text-anchor="middle" x="2127.5" y="-186.8" font-family="Times,serif" font-size="14.00">dilation rate: 1 &#160;&#160;k width: 3</text>
<text text-anchor="middle" x="2127.5" y="-171.8" font-family="Times,serif" font-size="14.00">log gamma1: &#45;11.000000 &#160;&#160;log gamma2: &#45;11.000000</text>
<text text-anchor="middle" x="2127.5" y="-156.8" font-family="Times,serif" font-size="14.00">log lambda1: &#45;11.000000 &#160;&#160;log lambda2: &#45;11.000000</text>
<text text-anchor="middle" x="2127.5" y="-141.8" font-family="Times,serif" font-size="14.00">n kernels: 64</text>
</g>
<!-- 4&#45;&gt;12 -->
<g id="edge12" class="edge"><title>4&#45;&gt;12</title>
<path fill="none" stroke="black" d="M1688.16,-286.346C1749.2,-276.448 1860.91,-257.177 1964.63,-232.399"/>
<polygon fill="black" stroke="black" points="1965.74,-235.732 1974.64,-229.985 1964.1,-228.927 1965.74,-235.732"/>
</g>
<!-- 13 -->
<g id="node14" class="node"><title>13</title>
<path fill="#e9d3ff" stroke="black" d="M293,-98C293,-98 12,-98 12,-98 6,-98 0,-92 0,-86 0,-86 0,-12 0,-12 0,-6 6,-0 12,-0 12,-0 293,-0 293,-0 299,-0 305,-6 305,-12 305,-12 305,-86 305,-86 305,-92 299,-98 293,-98"/>
<text text-anchor="middle" x="152.5" y="-82.8" font-family="Times,serif" font-size="14.00">forward</text>
<text text-anchor="middle" x="152.5" y="-67.8" font-family="Times,serif" font-size="14.00">input</text>
<text text-anchor="middle" x="152.5" y="-52.8" font-family="Times,serif" font-size="14.00">dilation rate: 1 &#160;&#160;k width: 3</text>
<text text-anchor="middle" x="152.5" y="-37.8" font-family="Times,serif" font-size="14.00">log gamma1: &#45;11.000000 &#160;&#160;log gamma2: &#45;11.000000</text>
<text text-anchor="middle" x="152.5" y="-22.8" font-family="Times,serif" font-size="14.00">log lambda1: &#45;11.000000 &#160;&#160;log lambda2: &#45;11.000000</text>
<text text-anchor="middle" x="152.5" y="-7.8" font-family="Times,serif" font-size="14.00">n kernels: 64</text>
</g>
<!-- 5&#45;&gt;13 -->
<g id="edge13" class="edge"><title>5&#45;&gt;13</title>
<path fill="none" stroke="black" d="M216.885,-156.236C208.366,-142.18 197.461,-124.186 187.057,-107.019"/>
<polygon fill="black" stroke="black" points="189.853,-104.88 181.677,-98.1423 183.867,-108.508 189.853,-104.88"/>
</g>
<!-- 14 -->
<g id="node15" class="node"><title>14</title>
<path fill="#e9d3ff" stroke="black" d="M616,-98C616,-98 335,-98 335,-98 329,-98 323,-92 323,-86 323,-86 323,-12 323,-12 323,-6 329,-0 335,-0 335,-0 616,-0 616,-0 622,-0 628,-6 628,-12 628,-12 628,-86 628,-86 628,-92 622,-98 616,-98"/>
<text text-anchor="middle" x="475.5" y="-82.8" font-family="Times,serif" font-size="14.00">forward</text>
<text text-anchor="middle" x="475.5" y="-67.8" font-family="Times,serif" font-size="14.00">input</text>
<text text-anchor="middle" x="475.5" y="-52.8" font-family="Times,serif" font-size="14.00">dilation rate: 1 &#160;&#160;k width: 3</text>
<text text-anchor="middle" x="475.5" y="-37.8" font-family="Times,serif" font-size="14.00">log gamma1: &#45;11.000000 &#160;&#160;log gamma2: &#45;11.000000</text>
<text text-anchor="middle" x="475.5" y="-22.8" font-family="Times,serif" font-size="14.00">log lambda1: &#45;11.000000 &#160;&#160;log lambda2: &#45;11.000000</text>
<text text-anchor="middle" x="475.5" y="-7.8" font-family="Times,serif" font-size="14.00">n kernels: 64</text>
</g>
<!-- 6&#45;&gt;14 -->
<g id="edge14" class="edge"><title>6&#45;&gt;14</title>
<path fill="none" stroke="black" d="M541.092,-163.923C532.59,-149.157 520.091,-127.447 508.278,-106.93"/>
<polygon fill="black" stroke="black" points="511.294,-105.153 503.271,-98.2336 505.227,-108.646 511.294,-105.153"/>
</g>
<!-- 15 -->
<g id="node16" class="node"><title>15</title>
<path fill="#e9d3ff" stroke="black" d="M939,-98C939,-98 658,-98 658,-98 652,-98 646,-92 646,-86 646,-86 646,-12 646,-12 646,-6 652,-0 658,-0 658,-0 939,-0 939,-0 945,-0 951,-6 951,-12 951,-12 951,-86 951,-86 951,-92 945,-98 939,-98"/>
<text text-anchor="middle" x="798.5" y="-82.8" font-family="Times,serif" font-size="14.00">forward</text>
<text text-anchor="middle" x="798.5" y="-67.8" font-family="Times,serif" font-size="14.00">CB1/C0</text>
<text text-anchor="middle" x="798.5" y="-52.8" font-family="Times,serif" font-size="14.00">dilation rate: 1 &#160;&#160;k width: 3</text>
<text text-anchor="middle" x="798.5" y="-37.8" font-family="Times,serif" font-size="14.00">log gamma1: &#45;11.000000 &#160;&#160;log gamma2: &#45;11.000000</text>
<text text-anchor="middle" x="798.5" y="-22.8" font-family="Times,serif" font-size="14.00">log lambda1: &#45;11.000000 &#160;&#160;log lambda2: &#45;11.000000</text>
<text text-anchor="middle" x="798.5" y="-7.8" font-family="Times,serif" font-size="14.00">n kernels: 64</text>
</g>
<!-- 7&#45;&gt;15 -->
<g id="edge15" class="edge"><title>7&#45;&gt;15</title>
<path fill="none" stroke="black" d="M798.5,-163.923C798.5,-149.486 798.5,-128.413 798.5,-108.306"/>
<polygon fill="black" stroke="black" points="802,-108.234 798.5,-98.2336 795,-108.234 802,-108.234"/>
</g>
<!-- 16 -->
<g id="node17" class="node"><title>16</title>
<path fill="#e9d3ff" stroke="black" d="M1262,-98C1262,-98 981,-98 981,-98 975,-98 969,-92 969,-86 969,-86 969,-12 969,-12 969,-6 975,-0 981,-0 981,-0 1262,-0 1262,-0 1268,-0 1274,-6 1274,-12 1274,-12 1274,-86 1274,-86 1274,-92 1268,-98 1262,-98"/>
<text text-anchor="middle" x="1121.5" y="-82.8" font-family="Times,serif" font-size="14.00">forward</text>
<text text-anchor="middle" x="1121.5" y="-67.8" font-family="Times,serif" font-size="14.00">input</text>
<text text-anchor="middle" x="1121.5" y="-52.8" font-family="Times,serif" font-size="14.00">dilation rate: 1 &#160;&#160;k width: 3</text>
<text text-anchor="middle" x="1121.5" y="-37.8" font-family="Times,serif" font-size="14.00">log gamma1: &#45;11.000000 &#160;&#160;log gamma2: &#45;11.000000</text>
<text text-anchor="middle" x="1121.5" y="-22.8" font-family="Times,serif" font-size="14.00">log lambda1: &#45;11.000000 &#160;&#160;log lambda2: &#45;11.000000</text>
<text text-anchor="middle" x="1121.5" y="-7.8" font-family="Times,serif" font-size="14.00">n kernels: 64</text>
</g>
<!-- 8&#45;&gt;16 -->
<g id="edge16" class="edge"><title>8&#45;&gt;16</title>
<path fill="none" stroke="black" d="M1070.58,-163.923C1077.12,-149.289 1086.71,-127.835 1095.81,-107.48"/>
<polygon fill="black" stroke="black" points="1099.06,-108.791 1099.94,-98.2336 1092.67,-105.935 1099.06,-108.791"/>
</g>
<!-- 17 -->
<g id="node18" class="node"><title>17</title>
<path fill="#e9d3ff" stroke="black" d="M1585,-98C1585,-98 1304,-98 1304,-98 1298,-98 1292,-92 1292,-86 1292,-86 1292,-12 1292,-12 1292,-6 1298,-0 1304,-0 1304,-0 1585,-0 1585,-0 1591,-0 1597,-6 1597,-12 1597,-12 1597,-86 1597,-86 1597,-92 1591,-98 1585,-98"/>
<text text-anchor="middle" x="1444.5" y="-82.8" font-family="Times,serif" font-size="14.00">forward</text>
<text text-anchor="middle" x="1444.5" y="-67.8" font-family="Times,serif" font-size="14.00">CB2/C0</text>
<text text-anchor="middle" x="1444.5" y="-52.8" font-family="Times,serif" font-size="14.00">dilation rate: 1 &#160;&#160;k width: 3</text>
<text text-anchor="middle" x="1444.5" y="-37.8" font-family="Times,serif" font-size="14.00">log gamma1: &#45;11.000000 &#160;&#160;log gamma2: &#45;11.000000</text>
<text text-anchor="middle" x="1444.5" y="-22.8" font-family="Times,serif" font-size="14.00">log lambda1: &#45;11.000000 &#160;&#160;log lambda2: &#45;11.000000</text>
<text text-anchor="middle" x="1444.5" y="-7.8" font-family="Times,serif" font-size="14.00">n kernels: 64</text>
</g>
<!-- 9&#45;&gt;17 -->
<g id="edge17" class="edge"><title>9&#45;&gt;17</title>
<path fill="none" stroke="black" d="M1260.67,-163.923C1285.77,-148.366 1323.31,-125.101 1357.94,-103.644"/>
<polygon fill="black" stroke="black" points="1360.01,-106.476 1366.67,-98.2336 1356.32,-100.526 1360.01,-106.476"/>
</g>
</g>
</svg>
