<?xml version="1.0" encoding="UTF-8" standalone="no"?>
<!DOCTYPE svg PUBLIC "-//W3C//DTD SVG 1.1//EN"
 "http://www.w3.org/Graphics/SVG/1.1/DTD/svg11.dtd">
<!-- Generated by graphviz version 2.38.0 (20140413.2041)
 -->
<!-- Title: %3 Pages: 1 -->
<svg width="3542pt" height="418pt"
 viewBox="0.00 0.00 3542.00 418.00" xmlns="http://www.w3.org/2000/svg" xmlns:xlink="http://www.w3.org/1999/xlink">
<g id="graph0" class="graph" transform="scale(1 1) rotate(0) translate(4 414)">
<title>%3</title>
<polygon fill="none" stroke="none" points="-4,4 -4,-414 3538,-414 3538,4 -4,4"/>
<!-- 0 -->
<g id="node1" class="node"><title>0</title>
<path fill="#ffd3d3" stroke="black" d="M1701,-410C1701,-410 1510,-410 1510,-410 1504,-410 1498,-404 1498,-398 1498,-398 1498,-369 1498,-369 1498,-363 1504,-357 1510,-357 1510,-357 1701,-357 1701,-357 1707,-357 1713,-363 1713,-369 1713,-369 1713,-398 1713,-398 1713,-404 1707,-410 1701,-410"/>
<text text-anchor="middle" x="1605.5" y="-394.8" font-family="Times,serif" font-size="14.00">net</text>
<text text-anchor="middle" x="1605.5" y="-379.8" font-family="Times,serif" font-size="14.00">k width: 3 &#160;&#160;log gamma2: &#45;6.147238</text>
<text text-anchor="middle" x="1605.5" y="-364.8" font-family="Times,serif" font-size="14.00">n kernels: 75</text>
</g>
<!-- 1 -->
<g id="node2" class="node"><title>1</title>
<path fill="#e9ffd3" stroke="black" d="M538,-313.5C538,-313.5 413,-313.5 413,-313.5 407,-313.5 401,-307.5 401,-301.5 401,-301.5 401,-287.5 401,-287.5 401,-281.5 407,-275.5 413,-275.5 413,-275.5 538,-275.5 538,-275.5 544,-275.5 550,-281.5 550,-287.5 550,-287.5 550,-301.5 550,-301.5 550,-307.5 544,-313.5 538,-313.5"/>
<text text-anchor="middle" x="475.5" y="-298.3" font-family="Times,serif" font-size="14.00">conv block 0</text>
<text text-anchor="middle" x="475.5" y="-283.3" font-family="Times,serif" font-size="14.00">log gamma1: &#45;1.016243</text>
</g>
<!-- 0&#45;&gt;1 -->
<g id="edge1" class="edge"><title>0&#45;&gt;1</title>
<path fill="none" stroke="black" d="M1497.92,-374.217C1274.15,-356.989 762.604,-317.604 560.196,-302.021"/>
<polygon fill="black" stroke="black" points="560.451,-298.53 550.212,-301.252 559.914,-305.51 560.451,-298.53"/>
</g>
<!-- 2 -->
<g id="node3" class="node"><title>2</title>
<path fill="#e9ffd3" stroke="black" d="M1222.5,-321C1222.5,-321 1020.5,-321 1020.5,-321 1014.5,-321 1008.5,-315 1008.5,-309 1008.5,-309 1008.5,-280 1008.5,-280 1008.5,-274 1014.5,-268 1020.5,-268 1020.5,-268 1222.5,-268 1222.5,-268 1228.5,-268 1234.5,-274 1234.5,-280 1234.5,-280 1234.5,-309 1234.5,-309 1234.5,-315 1228.5,-321 1222.5,-321"/>
<text text-anchor="middle" x="1121.5" y="-305.8" font-family="Times,serif" font-size="14.00">conv block 1</text>
<text text-anchor="middle" x="1121.5" y="-290.8" font-family="Times,serif" font-size="14.00">log gamma1: 1.845017 &#160;&#160;n kernels: 75</text>
<text text-anchor="middle" x="1121.5" y="-275.8" font-family="Times,serif" font-size="14.00">pool z: 1 &#160;&#160;spatial scale: 1</text>
</g>
<!-- 0&#45;&gt;2 -->
<g id="edge2" class="edge"><title>0&#45;&gt;2</title>
<path fill="none" stroke="black" d="M1497.78,-363.138C1422.86,-349.669 1322.79,-331.683 1244.69,-317.644"/>
<polygon fill="black" stroke="black" points="1245.26,-314.19 1234.8,-315.865 1244.02,-321.079 1245.26,-314.19"/>
</g>
<!-- 3 -->
<g id="node4" class="node"><title>3</title>
<path fill="#e9ffd3" stroke="black" d="M1686,-313.5C1686,-313.5 1525,-313.5 1525,-313.5 1519,-313.5 1513,-307.5 1513,-301.5 1513,-301.5 1513,-287.5 1513,-287.5 1513,-281.5 1519,-275.5 1525,-275.5 1525,-275.5 1686,-275.5 1686,-275.5 1692,-275.5 1698,-281.5 1698,-287.5 1698,-287.5 1698,-301.5 1698,-301.5 1698,-307.5 1692,-313.5 1686,-313.5"/>
<text text-anchor="middle" x="1605.5" y="-298.3" font-family="Times,serif" font-size="14.00">conv block 2</text>
<text text-anchor="middle" x="1605.5" y="-283.3" font-family="Times,serif" font-size="14.00">n kernels: 225 &#160;&#160;spatial scale: 2</text>
</g>
<!-- 0&#45;&gt;3 -->
<g id="edge3" class="edge"><title>0&#45;&gt;3</title>
<path fill="none" stroke="black" d="M1605.5,-356.868C1605.5,-346.417 1605.5,-334.301 1605.5,-323.609"/>
<polygon fill="black" stroke="black" points="1609,-323.507 1605.5,-313.507 1602,-323.507 1609,-323.507"/>
</g>
<!-- 4 -->
<g id="node5" class="node"><title>4</title>
<path fill="#e9ffd3" stroke="black" d="M2109,-321C2109,-321 1900,-321 1900,-321 1894,-321 1888,-315 1888,-309 1888,-309 1888,-280 1888,-280 1888,-274 1894,-268 1900,-268 1900,-268 2109,-268 2109,-268 2115,-268 2121,-274 2121,-280 2121,-280 2121,-309 2121,-309 2121,-315 2115,-321 2109,-321"/>
<text text-anchor="middle" x="2004.5" y="-305.8" font-family="Times,serif" font-size="14.00">conv block 3</text>
<text text-anchor="middle" x="2004.5" y="-290.8" font-family="Times,serif" font-size="14.00">log gamma2: 0.017068 &#160;&#160;n kernels: 525</text>
<text text-anchor="middle" x="2004.5" y="-275.8" font-family="Times,serif" font-size="14.00">spatial scale: 3</text>
</g>
<!-- 0&#45;&gt;4 -->
<g id="edge4" class="edge"><title>0&#45;&gt;4</title>
<path fill="none" stroke="black" d="M1713.21,-359.014C1764.06,-347.928 1825.07,-334.624 1878.09,-323.063"/>
<polygon fill="black" stroke="black" points="1878.87,-326.475 1887.9,-320.925 1877.38,-319.636 1878.87,-326.475"/>
</g>
<!-- 5 -->
<g id="node6" class="node"><title>5</title>
<path fill="#e9ffd3" stroke="black" d="M2769,-312.5C2769,-312.5 2702,-312.5 2702,-312.5 2696,-312.5 2690,-306.5 2690,-300.5 2690,-300.5 2690,-288.5 2690,-288.5 2690,-282.5 2696,-276.5 2702,-276.5 2702,-276.5 2769,-276.5 2769,-276.5 2775,-276.5 2781,-282.5 2781,-288.5 2781,-288.5 2781,-300.5 2781,-300.5 2781,-306.5 2775,-312.5 2769,-312.5"/>
<text text-anchor="middle" x="2735.5" y="-290.8" font-family="Times,serif" font-size="14.00">path combine</text>
</g>
<!-- 0&#45;&gt;5 -->
<g id="edge5" class="edge"><title>0&#45;&gt;5</title>
<path fill="none" stroke="black" d="M1713.08,-374.217C1948.48,-356.094 2502.35,-313.451 2679.78,-299.79"/>
<polygon fill="black" stroke="black" points="2680.22,-303.266 2689.93,-299.009 2679.69,-296.287 2680.22,-303.266"/>
</g>
<!-- 6 -->
<g id="node7" class="node"><title>6</title>
<path fill="#d3ffff" stroke="black" d="M293,-202C293,-202 230,-202 230,-202 224,-202 218,-196 218,-190 218,-190 218,-176 218,-176 218,-170 224,-164 230,-164 230,-164 293,-164 293,-164 299,-164 305,-170 305,-176 305,-176 305,-190 305,-190 305,-196 299,-202 293,-202"/>
<text text-anchor="middle" x="261.5" y="-186.8" font-family="Times,serif" font-size="14.00">comp 0</text>
<text text-anchor="middle" x="261.5" y="-171.8" font-family="Times,serif" font-size="14.00">n kernels: 16</text>
</g>
<!-- 1&#45;&gt;6 -->
<g id="edge6" class="edge"><title>1&#45;&gt;6</title>
<path fill="none" stroke="black" d="M440.162,-275.418C403.377,-256.596 345.678,-227.072 305.853,-206.695"/>
<polygon fill="black" stroke="black" points="307.387,-203.548 296.89,-202.109 304.198,-209.78 307.387,-203.548"/>
</g>
<!-- 7 -->
<g id="node8" class="node"><title>7</title>
<path fill="#bfe6e6" stroke="black" d="M507,-202C507,-202 444,-202 444,-202 438,-202 432,-196 432,-190 432,-190 432,-176 432,-176 432,-170 438,-164 444,-164 444,-164 507,-164 507,-164 513,-164 519,-170 519,-176 519,-176 519,-190 519,-190 519,-196 513,-202 507,-202"/>
<text text-anchor="middle" x="475.5" y="-186.8" font-family="Times,serif" font-size="14.00">comp 1</text>
<text text-anchor="middle" x="475.5" y="-171.8" font-family="Times,serif" font-size="14.00">n kernels: 20</text>
</g>
<!-- 1&#45;&gt;7 -->
<g id="edge7" class="edge"><title>1&#45;&gt;7</title>
<path fill="none" stroke="black" d="M475.5,-275.418C475.5,-258.221 475.5,-232.089 475.5,-212.163"/>
<polygon fill="black" stroke="black" points="479,-212.109 475.5,-202.109 472,-212.109 479,-212.109"/>
</g>
<!-- 8 -->
<g id="node9" class="node"><title>8</title>
<path fill="#d3ffff" stroke="black" d="M935,-202C935,-202 810,-202 810,-202 804,-202 798,-196 798,-190 798,-190 798,-176 798,-176 798,-170 804,-164 810,-164 810,-164 935,-164 935,-164 941,-164 947,-170 947,-176 947,-176 947,-190 947,-190 947,-196 941,-202 935,-202"/>
<text text-anchor="middle" x="872.5" y="-186.8" font-family="Times,serif" font-size="14.00">comp 0</text>
<text text-anchor="middle" x="872.5" y="-171.8" font-family="Times,serif" font-size="14.00">log gamma1: &#45;1.631282</text>
</g>
<!-- 2&#45;&gt;8 -->
<g id="edge8" class="edge"><title>2&#45;&gt;8</title>
<path fill="none" stroke="black" d="M1063.43,-267.965C1020.77,-249.204 963.39,-223.97 922.702,-206.077"/>
<polygon fill="black" stroke="black" points="924.076,-202.857 913.513,-202.036 921.258,-209.265 924.076,-202.857"/>
</g>
<!-- 9 -->
<g id="node10" class="node"><title>9</title>
<path fill="#bfe6e6" stroke="black" d="M1191,-202C1191,-202 1052,-202 1052,-202 1046,-202 1040,-196 1040,-190 1040,-190 1040,-176 1040,-176 1040,-170 1046,-164 1052,-164 1052,-164 1191,-164 1191,-164 1197,-164 1203,-170 1203,-176 1203,-176 1203,-190 1203,-190 1203,-196 1197,-202 1191,-202"/>
<text text-anchor="middle" x="1121.5" y="-186.8" font-family="Times,serif" font-size="14.00">path end 1</text>
<text text-anchor="middle" x="1121.5" y="-171.8" font-family="Times,serif" font-size="14.00">k width: &#45;2 &#160;&#160;n kernels: &#45;75</text>
</g>
<!-- 2&#45;&gt;9 -->
<g id="edge9" class="edge"><title>2&#45;&gt;9</title>
<path fill="none" stroke="black" d="M1121.5,-267.827C1121.5,-251.18 1121.5,-229.482 1121.5,-212.332"/>
<polygon fill="black" stroke="black" points="1125,-212.327 1121.5,-202.327 1118,-212.327 1125,-212.327"/>
</g>
<!-- 10 -->
<g id="node11" class="node"><title>10</title>
<path fill="#d3ffff" stroke="black" d="M1509.5,-201C1509.5,-201 1475.5,-201 1475.5,-201 1469.5,-201 1463.5,-195 1463.5,-189 1463.5,-189 1463.5,-177 1463.5,-177 1463.5,-171 1469.5,-165 1475.5,-165 1475.5,-165 1509.5,-165 1509.5,-165 1515.5,-165 1521.5,-171 1521.5,-177 1521.5,-177 1521.5,-189 1521.5,-189 1521.5,-195 1515.5,-201 1509.5,-201"/>
<text text-anchor="middle" x="1492.5" y="-179.3" font-family="Times,serif" font-size="14.00">comp 0</text>
</g>
<!-- 3&#45;&gt;10 -->
<g id="edge10" class="edge"><title>3&#45;&gt;10</title>
<path fill="none" stroke="black" d="M1586.84,-275.418C1567.86,-257.024 1538.33,-228.411 1517.37,-208.1"/>
<polygon fill="black" stroke="black" points="1519.69,-205.472 1510.07,-201.027 1514.82,-210.499 1519.69,-205.472"/>
</g>
<!-- 11 -->
<g id="node12" class="node"><title>11</title>
<path fill="#bfe6e6" stroke="black" d="M1792.5,-202C1792.5,-202 1646.5,-202 1646.5,-202 1640.5,-202 1634.5,-196 1634.5,-190 1634.5,-190 1634.5,-176 1634.5,-176 1634.5,-170 1640.5,-164 1646.5,-164 1646.5,-164 1792.5,-164 1792.5,-164 1798.5,-164 1804.5,-170 1804.5,-176 1804.5,-176 1804.5,-190 1804.5,-190 1804.5,-196 1798.5,-202 1792.5,-202"/>
<text text-anchor="middle" x="1719.5" y="-186.8" font-family="Times,serif" font-size="14.00">path end 2</text>
<text text-anchor="middle" x="1719.5" y="-171.8" font-family="Times,serif" font-size="14.00">k width: &#45;2 &#160;&#160;n kernels: &#45;225</text>
</g>
<!-- 3&#45;&gt;11 -->
<g id="edge11" class="edge"><title>3&#45;&gt;11</title>
<path fill="none" stroke="black" d="M1624.32,-275.418C1643.14,-257.349 1672.22,-229.417 1693.28,-209.183"/>
<polygon fill="black" stroke="black" points="1695.86,-211.56 1700.65,-202.109 1691.01,-206.512 1695.86,-211.56"/>
</g>
<!-- 12 -->
<g id="node13" class="node"><title>12</title>
<path fill="#d3ffff" stroke="black" d="M2041.5,-202C2041.5,-202 1967.5,-202 1967.5,-202 1961.5,-202 1955.5,-196 1955.5,-190 1955.5,-190 1955.5,-176 1955.5,-176 1955.5,-170 1961.5,-164 1967.5,-164 1967.5,-164 2041.5,-164 2041.5,-164 2047.5,-164 2053.5,-170 2053.5,-176 2053.5,-176 2053.5,-190 2053.5,-190 2053.5,-196 2047.5,-202 2041.5,-202"/>
<text text-anchor="middle" x="2004.5" y="-186.8" font-family="Times,serif" font-size="14.00">comp 0</text>
<text text-anchor="middle" x="2004.5" y="-171.8" font-family="Times,serif" font-size="14.00">n kernels: &#45;472</text>
</g>
<!-- 4&#45;&gt;12 -->
<g id="edge12" class="edge"><title>4&#45;&gt;12</title>
<path fill="none" stroke="black" d="M2004.5,-267.827C2004.5,-251.18 2004.5,-229.482 2004.5,-212.332"/>
<polygon fill="black" stroke="black" points="2008,-212.327 2004.5,-202.327 2001,-212.327 2008,-212.327"/>
</g>
<!-- 13 -->
<g id="node14" class="node"><title>13</title>
<path fill="#bfe6e6" stroke="black" d="M2229.5,-202C2229.5,-202 2083.5,-202 2083.5,-202 2077.5,-202 2071.5,-196 2071.5,-190 2071.5,-190 2071.5,-176 2071.5,-176 2071.5,-170 2077.5,-164 2083.5,-164 2083.5,-164 2229.5,-164 2229.5,-164 2235.5,-164 2241.5,-170 2241.5,-176 2241.5,-176 2241.5,-190 2241.5,-190 2241.5,-196 2235.5,-202 2229.5,-202"/>
<text text-anchor="middle" x="2156.5" y="-186.8" font-family="Times,serif" font-size="14.00">path end 3</text>
<text text-anchor="middle" x="2156.5" y="-171.8" font-family="Times,serif" font-size="14.00">k width: &#45;2 &#160;&#160;n kernels: &#45;525</text>
</g>
<!-- 4&#45;&gt;13 -->
<g id="edge13" class="edge"><title>4&#45;&gt;13</title>
<path fill="none" stroke="black" d="M2040.14,-267.827C2065.1,-249.846 2098.24,-225.969 2122.77,-208.299"/>
<polygon fill="black" stroke="black" points="2124.99,-211.012 2131.06,-202.327 2120.9,-205.332 2124.99,-211.012"/>
</g>
<!-- 14 -->
<g id="node15" class="node"><title>14</title>
<path fill="#d3ffff" stroke="black" d="M2553,-232C2553,-232 2272,-232 2272,-232 2266,-232 2260,-226 2260,-220 2260,-220 2260,-146 2260,-146 2260,-140 2266,-134 2272,-134 2272,-134 2553,-134 2553,-134 2559,-134 2565,-140 2565,-146 2565,-146 2565,-220 2565,-220 2565,-226 2559,-232 2553,-232"/>
<text text-anchor="middle" x="2412.5" y="-216.8" font-family="Times,serif" font-size="14.00">forward</text>
<text text-anchor="middle" x="2412.5" y="-201.8" font-family="Times,serif" font-size="14.00">CB0/C1</text>
<text text-anchor="middle" x="2412.5" y="-186.8" font-family="Times,serif" font-size="14.00">dilation rate: 1 &#160;&#160;k width: 3</text>
<text text-anchor="middle" x="2412.5" y="-171.8" font-family="Times,serif" font-size="14.00">log gamma1: &#45;11.000000 &#160;&#160;log gamma2: &#45;11.000000</text>
<text text-anchor="middle" x="2412.5" y="-156.8" font-family="Times,serif" font-size="14.00">log lambda1: &#45;11.000000 &#160;&#160;log lambda2: &#45;11.000000</text>
<text text-anchor="middle" x="2412.5" y="-141.8" font-family="Times,serif" font-size="14.00">n kernels: 64</text>
</g>
<!-- 5&#45;&gt;14 -->
<g id="edge14" class="edge"><title>5&#45;&gt;14</title>
<path fill="none" stroke="black" d="M2689.91,-278.044C2656.79,-266.816 2609.92,-250.928 2564.12,-235.402"/>
<polygon fill="black" stroke="black" points="2564.97,-231.991 2554.37,-232.096 2562.72,-238.621 2564.97,-231.991"/>
</g>
<!-- 15 -->
<g id="node16" class="node"><title>15</title>
<path fill="#bfe6e6" stroke="black" d="M2876,-232C2876,-232 2595,-232 2595,-232 2589,-232 2583,-226 2583,-220 2583,-220 2583,-146 2583,-146 2583,-140 2589,-134 2595,-134 2595,-134 2876,-134 2876,-134 2882,-134 2888,-140 2888,-146 2888,-146 2888,-220 2888,-220 2888,-226 2882,-232 2876,-232"/>
<text text-anchor="middle" x="2735.5" y="-216.8" font-family="Times,serif" font-size="14.00">residual 1</text>
<text text-anchor="middle" x="2735.5" y="-201.8" font-family="Times,serif" font-size="14.00">CB1/PE1</text>
<text text-anchor="middle" x="2735.5" y="-186.8" font-family="Times,serif" font-size="14.00">dilation rate: 1 &#160;&#160;k width: 3</text>
<text text-anchor="middle" x="2735.5" y="-171.8" font-family="Times,serif" font-size="14.00">log gamma1: &#45;11.000000 &#160;&#160;log gamma2: &#45;11.000000</text>
<text text-anchor="middle" x="2735.5" y="-156.8" font-family="Times,serif" font-size="14.00">log lambda1: &#45;11.000000 &#160;&#160;log lambda2: &#45;11.000000</text>
<text text-anchor="middle" x="2735.5" y="-141.8" font-family="Times,serif" font-size="14.00">n kernels: 64</text>
</g>
<!-- 5&#45;&gt;15 -->
<g id="edge15" class="edge"><title>5&#45;&gt;15</title>
<path fill="none" stroke="black" d="M2735.5,-276.391C2735.5,-266.993 2735.5,-254.728 2735.5,-242.22"/>
<polygon fill="black" stroke="black" points="2739,-242.188 2735.5,-232.188 2732,-242.188 2739,-242.188"/>
</g>
<!-- 16 -->
<g id="node17" class="node"><title>16</title>
<path fill="#abcece" stroke="black" d="M3199,-232C3199,-232 2918,-232 2918,-232 2912,-232 2906,-226 2906,-220 2906,-220 2906,-146 2906,-146 2906,-140 2912,-134 2918,-134 2918,-134 3199,-134 3199,-134 3205,-134 3211,-140 3211,-146 3211,-146 3211,-220 3211,-220 3211,-226 3205,-232 3199,-232"/>
<text text-anchor="middle" x="3058.5" y="-216.8" font-family="Times,serif" font-size="14.00">residual 2</text>
<text text-anchor="middle" x="3058.5" y="-201.8" font-family="Times,serif" font-size="14.00">CB2/PE2</text>
<text text-anchor="middle" x="3058.5" y="-186.8" font-family="Times,serif" font-size="14.00">dilation rate: 1 &#160;&#160;k width: 3</text>
<text text-anchor="middle" x="3058.5" y="-171.8" font-family="Times,serif" font-size="14.00">log gamma1: &#45;11.000000 &#160;&#160;log gamma2: &#45;11.000000</text>
<text text-anchor="middle" x="3058.5" y="-156.8" font-family="Times,serif" font-size="14.00">log lambda1: &#45;11.000000 &#160;&#160;log lambda2: &#45;11.000000</text>
<text text-anchor="middle" x="3058.5" y="-141.8" font-family="Times,serif" font-size="14.00">n kernels: 64</text>
</g>
<!-- 5&#45;&gt;16 -->
<g id="edge16" class="edge"><title>5&#45;&gt;16</title>
<path fill="none" stroke="black" d="M2781.09,-278.044C2814.21,-266.816 2861.08,-250.928 2906.88,-235.402"/>
<polygon fill="black" stroke="black" points="2908.28,-238.621 2916.63,-232.096 2906.03,-231.991 2908.28,-238.621"/>
</g>
<!-- 17 -->
<g id="node18" class="node"><title>17</title>
<path fill="#97b6b6" stroke="black" d="M3522,-232C3522,-232 3241,-232 3241,-232 3235,-232 3229,-226 3229,-220 3229,-220 3229,-146 3229,-146 3229,-140 3235,-134 3241,-134 3241,-134 3522,-134 3522,-134 3528,-134 3534,-140 3534,-146 3534,-146 3534,-220 3534,-220 3534,-226 3528,-232 3522,-232"/>
<text text-anchor="middle" x="3381.5" y="-216.8" font-family="Times,serif" font-size="14.00">residual 3</text>
<text text-anchor="middle" x="3381.5" y="-201.8" font-family="Times,serif" font-size="14.00">CB3/PE3</text>
<text text-anchor="middle" x="3381.5" y="-186.8" font-family="Times,serif" font-size="14.00">dilation rate: 1 &#160;&#160;k width: 3</text>
<text text-anchor="middle" x="3381.5" y="-171.8" font-family="Times,serif" font-size="14.00">log gamma1: &#45;11.000000 &#160;&#160;log gamma2: &#45;11.000000</text>
<text text-anchor="middle" x="3381.5" y="-156.8" font-family="Times,serif" font-size="14.00">log lambda1: &#45;11.000000 &#160;&#160;log lambda2: &#45;11.000000</text>
<text text-anchor="middle" x="3381.5" y="-141.8" font-family="Times,serif" font-size="14.00">n kernels: 64</text>
</g>
<!-- 5&#45;&gt;17 -->
<g id="edge17" class="edge"><title>5&#45;&gt;17</title>
<path fill="none" stroke="black" d="M2781.05,-290.225C2865.77,-283.593 3053.33,-266.376 3218.83,-232.274"/>
<polygon fill="black" stroke="black" points="3219.62,-235.685 3228.69,-230.216 3218.19,-228.832 3219.62,-235.685"/>
</g>
<!-- 18 -->
<g id="node19" class="node"><title>18</title>
<path fill="#e9d3ff" stroke="black" d="M293,-98C293,-98 12,-98 12,-98 6,-98 0,-92 0,-86 0,-86 0,-12 0,-12 0,-6 6,-0 12,-0 12,-0 293,-0 293,-0 299,-0 305,-6 305,-12 305,-12 305,-86 305,-86 305,-92 299,-98 293,-98"/>
<text text-anchor="middle" x="152.5" y="-82.8" font-family="Times,serif" font-size="14.00">forward</text>
<text text-anchor="middle" x="152.5" y="-67.8" font-family="Times,serif" font-size="14.00">input</text>
<text text-anchor="middle" x="152.5" y="-52.8" font-family="Times,serif" font-size="14.00">dilation rate: 1 &#160;&#160;k width: 3</text>
<text text-anchor="middle" x="152.5" y="-37.8" font-family="Times,serif" font-size="14.00">log gamma1: &#45;11.000000 &#160;&#160;log gamma2: &#45;11.000000</text>
<text text-anchor="middle" x="152.5" y="-22.8" font-family="Times,serif" font-size="14.00">log lambda1: &#45;11.000000 &#160;&#160;log lambda2: &#45;11.000000</text>
<text text-anchor="middle" x="152.5" y="-7.8" font-family="Times,serif" font-size="14.00">n kernels: 64</text>
</g>
<!-- 6&#45;&gt;18 -->
<g id="edge18" class="edge"><title>6&#45;&gt;18</title>
<path fill="none" stroke="black" d="M246.573,-163.923C234.216,-148.959 215.972,-126.865 198.83,-106.106"/>
<polygon fill="black" stroke="black" points="201.395,-103.716 192.329,-98.2336 195.998,-108.173 201.395,-103.716"/>
</g>
<!-- 19 -->
<g id="node20" class="node"><title>19</title>
<path fill="#e9d3ff" stroke="black" d="M616,-98C616,-98 335,-98 335,-98 329,-98 323,-92 323,-86 323,-86 323,-12 323,-12 323,-6 329,-0 335,-0 335,-0 616,-0 616,-0 622,-0 628,-6 628,-12 628,-12 628,-86 628,-86 628,-92 622,-98 616,-98"/>
<text text-anchor="middle" x="475.5" y="-82.8" font-family="Times,serif" font-size="14.00">forward</text>
<text text-anchor="middle" x="475.5" y="-67.8" font-family="Times,serif" font-size="14.00">CB0/C0</text>
<text text-anchor="middle" x="475.5" y="-52.8" font-family="Times,serif" font-size="14.00">dilation rate: 1 &#160;&#160;k width: 3</text>
<text text-anchor="middle" x="475.5" y="-37.8" font-family="Times,serif" font-size="14.00">log gamma1: &#45;11.000000 &#160;&#160;log gamma2: &#45;11.000000</text>
<text text-anchor="middle" x="475.5" y="-22.8" font-family="Times,serif" font-size="14.00">log lambda1: &#45;11.000000 &#160;&#160;log lambda2: &#45;11.000000</text>
<text text-anchor="middle" x="475.5" y="-7.8" font-family="Times,serif" font-size="14.00">n kernels: 64</text>
</g>
<!-- 7&#45;&gt;19 -->
<g id="edge19" class="edge"><title>7&#45;&gt;19</title>
<path fill="none" stroke="black" d="M475.5,-163.923C475.5,-149.486 475.5,-128.413 475.5,-108.306"/>
<polygon fill="black" stroke="black" points="479,-108.234 475.5,-98.2336 472,-108.234 479,-108.234"/>
</g>
<!-- 20 -->
<g id="node21" class="node"><title>20</title>
<path fill="#e9d3ff" stroke="black" d="M939,-98C939,-98 658,-98 658,-98 652,-98 646,-92 646,-86 646,-86 646,-12 646,-12 646,-6 652,-0 658,-0 658,-0 939,-0 939,-0 945,-0 951,-6 951,-12 951,-12 951,-86 951,-86 951,-92 945,-98 939,-98"/>
<text text-anchor="middle" x="798.5" y="-82.8" font-family="Times,serif" font-size="14.00">forward</text>
<text text-anchor="middle" x="798.5" y="-67.8" font-family="Times,serif" font-size="14.00">input</text>
<text text-anchor="middle" x="798.5" y="-52.8" font-family="Times,serif" font-size="14.00">dilation rate: 1 &#160;&#160;k width: 3</text>
<text text-anchor="middle" x="798.5" y="-37.8" font-family="Times,serif" font-size="14.00">log gamma1: &#45;11.000000 &#160;&#160;log gamma2: &#45;11.000000</text>
<text text-anchor="middle" x="798.5" y="-22.8" font-family="Times,serif" font-size="14.00">log lambda1: &#45;11.000000 &#160;&#160;log lambda2: &#45;11.000000</text>
<text text-anchor="middle" x="798.5" y="-7.8" font-family="Times,serif" font-size="14.00">n kernels: 64</text>
</g>
<!-- 8&#45;&gt;20 -->
<g id="edge20" class="edge"><title>8&#45;&gt;20</title>
<path fill="none" stroke="black" d="M862.366,-163.923C854.125,-149.223 842.026,-127.641 830.569,-107.205"/>
<polygon fill="black" stroke="black" points="833.483,-105.245 825.54,-98.2336 827.377,-108.668 833.483,-105.245"/>
</g>
<!-- 21 -->
<g id="node22" class="node"><title>21</title>
<path fill="#e9d3ff" stroke="black" d="M1262,-98C1262,-98 981,-98 981,-98 975,-98 969,-92 969,-86 969,-86 969,-12 969,-12 969,-6 975,-0 981,-0 981,-0 1262,-0 1262,-0 1268,-0 1274,-6 1274,-12 1274,-12 1274,-86 1274,-86 1274,-92 1268,-98 1262,-98"/>
<text text-anchor="middle" x="1121.5" y="-82.8" font-family="Times,serif" font-size="14.00">forward</text>
<text text-anchor="middle" x="1121.5" y="-67.8" font-family="Times,serif" font-size="14.00">CB1/C0</text>
<text text-anchor="middle" x="1121.5" y="-52.8" font-family="Times,serif" font-size="14.00">dilation rate: 1 &#160;&#160;k width: 3</text>
<text text-anchor="middle" x="1121.5" y="-37.8" font-family="Times,serif" font-size="14.00">log gamma1: &#45;11.000000 &#160;&#160;log gamma2: &#45;11.000000</text>
<text text-anchor="middle" x="1121.5" y="-22.8" font-family="Times,serif" font-size="14.00">log lambda1: &#45;11.000000 &#160;&#160;log lambda2: &#45;11.000000</text>
<text text-anchor="middle" x="1121.5" y="-7.8" font-family="Times,serif" font-size="14.00">n kernels: 64</text>
</g>
<!-- 9&#45;&gt;21 -->
<g id="edge21" class="edge"><title>9&#45;&gt;21</title>
<path fill="none" stroke="black" d="M1121.5,-163.923C1121.5,-149.486 1121.5,-128.413 1121.5,-108.306"/>
<polygon fill="black" stroke="black" points="1125,-108.234 1121.5,-98.2336 1118,-108.234 1125,-108.234"/>
</g>
<!-- 22 -->
<g id="node23" class="node"><title>22</title>
<path fill="#e9d3ff" stroke="black" d="M1585,-98C1585,-98 1304,-98 1304,-98 1298,-98 1292,-92 1292,-86 1292,-86 1292,-12 1292,-12 1292,-6 1298,-0 1304,-0 1304,-0 1585,-0 1585,-0 1591,-0 1597,-6 1597,-12 1597,-12 1597,-86 1597,-86 1597,-92 1591,-98 1585,-98"/>
<text text-anchor="middle" x="1444.5" y="-82.8" font-family="Times,serif" font-size="14.00">forward</text>
<text text-anchor="middle" x="1444.5" y="-67.8" font-family="Times,serif" font-size="14.00">input</text>
<text text-anchor="middle" x="1444.5" y="-52.8" font-family="Times,serif" font-size="14.00">dilation rate: 1 &#160;&#160;k width: 3</text>
<text text-anchor="middle" x="1444.5" y="-37.8" font-family="Times,serif" font-size="14.00">log gamma1: &#45;11.000000 &#160;&#160;log gamma2: &#45;11.000000</text>
<text text-anchor="middle" x="1444.5" y="-22.8" font-family="Times,serif" font-size="14.00">log lambda1: &#45;11.000000 &#160;&#160;log lambda2: &#45;11.000000</text>
<text text-anchor="middle" x="1444.5" y="-7.8" font-family="Times,serif" font-size="14.00">n kernels: 64</text>
</g>
<!-- 10&#45;&gt;22 -->
<g id="edge22" class="edge"><title>10&#45;&gt;22</title>
<path fill="none" stroke="black" d="M1486.22,-164.743C1480.94,-150.204 1473.06,-128.534 1465.57,-107.93"/>
<polygon fill="black" stroke="black" points="1468.75,-106.455 1462.05,-98.2533 1462.17,-108.847 1468.75,-106.455"/>
</g>
<!-- 23 -->
<g id="node24" class="node"><title>23</title>
<path fill="#e9d3ff" stroke="black" d="M1908,-98C1908,-98 1627,-98 1627,-98 1621,-98 1615,-92 1615,-86 1615,-86 1615,-12 1615,-12 1615,-6 1621,-0 1627,-0 1627,-0 1908,-0 1908,-0 1914,-0 1920,-6 1920,-12 1920,-12 1920,-86 1920,-86 1920,-92 1914,-98 1908,-98"/>
<text text-anchor="middle" x="1767.5" y="-82.8" font-family="Times,serif" font-size="14.00">forward</text>
<text text-anchor="middle" x="1767.5" y="-67.8" font-family="Times,serif" font-size="14.00">CB2/C0</text>
<text text-anchor="middle" x="1767.5" y="-52.8" font-family="Times,serif" font-size="14.00">dilation rate: 1 &#160;&#160;k width: 3</text>
<text text-anchor="middle" x="1767.5" y="-37.8" font-family="Times,serif" font-size="14.00">log gamma1: &#45;11.000000 &#160;&#160;log gamma2: &#45;11.000000</text>
<text text-anchor="middle" x="1767.5" y="-22.8" font-family="Times,serif" font-size="14.00">log lambda1: &#45;11.000000 &#160;&#160;log lambda2: &#45;11.000000</text>
<text text-anchor="middle" x="1767.5" y="-7.8" font-family="Times,serif" font-size="14.00">n kernels: 64</text>
</g>
<!-- 11&#45;&gt;23 -->
<g id="edge23" class="edge"><title>11&#45;&gt;23</title>
<path fill="none" stroke="black" d="M1726.07,-163.923C1731.37,-149.355 1739.13,-128.028 1746.5,-107.755"/>
<polygon fill="black" stroke="black" points="1749.83,-108.828 1749.96,-98.2336 1743.25,-106.435 1749.83,-108.828"/>
</g>
<!-- 24 -->
<g id="node25" class="node"><title>24</title>
<path fill="#e9d3ff" stroke="black" d="M2231,-98C2231,-98 1950,-98 1950,-98 1944,-98 1938,-92 1938,-86 1938,-86 1938,-12 1938,-12 1938,-6 1944,-0 1950,-0 1950,-0 2231,-0 2231,-0 2237,-0 2243,-6 2243,-12 2243,-12 2243,-86 2243,-86 2243,-92 2237,-98 2231,-98"/>
<text text-anchor="middle" x="2090.5" y="-82.8" font-family="Times,serif" font-size="14.00">forward</text>
<text text-anchor="middle" x="2090.5" y="-67.8" font-family="Times,serif" font-size="14.00">input</text>
<text text-anchor="middle" x="2090.5" y="-52.8" font-family="Times,serif" font-size="14.00">dilation rate: 1 &#160;&#160;k width: 3</text>
<text text-anchor="middle" x="2090.5" y="-37.8" font-family="Times,serif" font-size="14.00">log gamma1: &#45;11.000000 &#160;&#160;log gamma2: &#45;11.000000</text>
<text text-anchor="middle" x="2090.5" y="-22.8" font-family="Times,serif" font-size="14.00">log lambda1: &#45;11.000000 &#160;&#160;log lambda2: &#45;11.000000</text>
<text text-anchor="middle" x="2090.5" y="-7.8" font-family="Times,serif" font-size="14.00">n kernels: 64</text>
</g>
<!-- 12&#45;&gt;24 -->
<g id="edge24" class="edge"><title>12&#45;&gt;24</title>
<path fill="none" stroke="black" d="M2016.28,-163.923C2025.94,-149.091 2040.17,-127.253 2053.59,-106.655"/>
<polygon fill="black" stroke="black" points="2056.55,-108.523 2059.08,-98.2336 2050.68,-104.702 2056.55,-108.523"/>
</g>
<!-- 25 -->
<g id="node26" class="node"><title>25</title>
<path fill="#e9d3ff" stroke="black" d="M2554,-98C2554,-98 2273,-98 2273,-98 2267,-98 2261,-92 2261,-86 2261,-86 2261,-12 2261,-12 2261,-6 2267,-0 2273,-0 2273,-0 2554,-0 2554,-0 2560,-0 2566,-6 2566,-12 2566,-12 2566,-86 2566,-86 2566,-92 2560,-98 2554,-98"/>
<text text-anchor="middle" x="2413.5" y="-82.8" font-family="Times,serif" font-size="14.00">forward</text>
<text text-anchor="middle" x="2413.5" y="-67.8" font-family="Times,serif" font-size="14.00">CB3/C0</text>
<text text-anchor="middle" x="2413.5" y="-52.8" font-family="Times,serif" font-size="14.00">dilation rate: 1 &#160;&#160;k width: 3</text>
<text text-anchor="middle" x="2413.5" y="-37.8" font-family="Times,serif" font-size="14.00">log gamma1: &#45;11.000000 &#160;&#160;log gamma2: &#45;11.000000</text>
<text text-anchor="middle" x="2413.5" y="-22.8" font-family="Times,serif" font-size="14.00">log lambda1: &#45;11.000000 &#160;&#160;log lambda2: &#45;11.000000</text>
<text text-anchor="middle" x="2413.5" y="-7.8" font-family="Times,serif" font-size="14.00">n kernels: 64</text>
</g>
<!-- 13&#45;&gt;25 -->
<g id="edge25" class="edge"><title>13&#45;&gt;25</title>
<path fill="none" stroke="black" d="M2191.7,-163.923C2222.43,-148.135 2268.63,-124.41 2310.91,-102.691"/>
<polygon fill="black" stroke="black" points="2312.57,-105.772 2319.87,-98.0901 2309.38,-99.5456 2312.57,-105.772"/>
</g>
</g>
</svg>
