<?xml version="1.0" encoding="UTF-8" standalone="no"?>
<!DOCTYPE svg PUBLIC "-//W3C//DTD SVG 1.1//EN"
 "http://www.w3.org/Graphics/SVG/1.1/DTD/svg11.dtd">
<!-- Generated by graphviz version 2.38.0 (20140413.2041)
 -->
<!-- Title: %3 Pages: 1 -->
<svg width="5239pt" height="387pt"
 viewBox="0.00 0.00 5239.00 387.00" xmlns="http://www.w3.org/2000/svg" xmlns:xlink="http://www.w3.org/1999/xlink">
<g id="graph0" class="graph" transform="scale(1 1) rotate(0) translate(4 383)">
<title>%3</title>
<polygon fill="none" stroke="none" points="-4,4 -4,-383 5235,-383 5235,4 -4,4"/>
<!-- 0 -->
<g id="node1" class="node"><title>0</title>
<path fill="#ffd3d3" stroke="black" d="M2264.5,-379C2264.5,-379 1984.5,-379 1984.5,-379 1978.5,-379 1972.5,-373 1972.5,-367 1972.5,-367 1972.5,-338 1972.5,-338 1972.5,-332 1978.5,-326 1984.5,-326 1984.5,-326 2264.5,-326 2264.5,-326 2270.5,-326 2276.5,-332 2276.5,-338 2276.5,-338 2276.5,-367 2276.5,-367 2276.5,-373 2270.5,-379 2264.5,-379"/>
<text text-anchor="middle" x="2124.5" y="-363.8" font-family="Times,serif" font-size="14.00">net</text>
<text text-anchor="middle" x="2124.5" y="-348.8" font-family="Times,serif" font-size="14.00">log lambda1: &#45;11.000000 &#160;&#160;log lambda2: &#45;11.000000</text>
<text text-anchor="middle" x="2124.5" y="-333.8" font-family="Times,serif" font-size="14.00">n kernels: 42 &#160;&#160;pooling type: 0</text>
</g>
<!-- 1 -->
<g id="node2" class="node"><title>1</title>
<path fill="#f6ffd3" stroke="black" d="M1283,-289C1283,-289 1248,-289 1248,-289 1242,-289 1236,-283 1236,-277 1236,-277 1236,-265 1236,-265 1236,-259 1242,-253 1248,-253 1248,-253 1283,-253 1283,-253 1289,-253 1295,-259 1295,-265 1295,-265 1295,-277 1295,-277 1295,-283 1289,-289 1283,-289"/>
<text text-anchor="middle" x="1265.5" y="-267.3" font-family="Times,serif" font-size="14.00">encoder</text>
</g>
<!-- 0&#45;&gt;1 -->
<g id="edge1" class="edge"><title>0&#45;&gt;1</title>
<path fill="none" stroke="black" d="M1972.41,-337.424C1769.61,-318.655 1422.57,-286.537 1305.44,-275.697"/>
<polygon fill="black" stroke="black" points="1305.44,-272.181 1295.16,-274.745 1304.79,-279.152 1305.44,-272.181"/>
</g>
<!-- 2 -->
<g id="node3" class="node"><title>2</title>
<path fill="#f6ffd3" stroke="black" d="M3005.5,-290C3005.5,-290 2937.5,-290 2937.5,-290 2931.5,-290 2925.5,-284 2925.5,-278 2925.5,-278 2925.5,-264 2925.5,-264 2925.5,-258 2931.5,-252 2937.5,-252 2937.5,-252 3005.5,-252 3005.5,-252 3011.5,-252 3017.5,-258 3017.5,-264 3017.5,-264 3017.5,-278 3017.5,-278 3017.5,-284 3011.5,-290 3005.5,-290"/>
<text text-anchor="middle" x="2971.5" y="-274.8" font-family="Times,serif" font-size="14.00">decoder</text>
<text text-anchor="middle" x="2971.5" y="-259.8" font-family="Times,serif" font-size="14.00">n kernels: &#45;13</text>
</g>
<!-- 0&#45;&gt;2 -->
<g id="edge2" class="edge"><title>0&#45;&gt;2</title>
<path fill="none" stroke="black" d="M2276.9,-337.195C2468.19,-319.241 2786.78,-289.338 2915.25,-277.28"/>
<polygon fill="black" stroke="black" points="2915.63,-280.76 2925.26,-276.34 2914.97,-273.79 2915.63,-280.76"/>
</g>
<!-- 3 -->
<g id="node4" class="node"><title>3</title>
<path fill="#d3ffe4" stroke="black" d="M481,-215C481,-215 406,-215 406,-215 400,-215 394,-209 394,-203 394,-203 394,-191 394,-191 394,-185 400,-179 406,-179 406,-179 481,-179 481,-179 487,-179 493,-185 493,-191 493,-191 493,-203 493,-203 493,-209 487,-215 481,-215"/>
<text text-anchor="middle" x="443.5" y="-193.3" font-family="Times,serif" font-size="14.00">encode block 0</text>
</g>
<!-- 1&#45;&gt;3 -->
<g id="edge3" class="edge"><title>1&#45;&gt;3</title>
<path fill="none" stroke="black" d="M1235.76,-267.395C1115.92,-256.898 667.071,-217.583 503.562,-203.261"/>
<polygon fill="black" stroke="black" points="503.479,-199.74 493.212,-202.354 502.868,-206.714 503.479,-199.74"/>
</g>
<!-- 4 -->
<g id="node5" class="node"><title>4</title>
<path fill="#bfe6cf" stroke="black" d="M1064,-216C1064,-216 909,-216 909,-216 903,-216 897,-210 897,-204 897,-204 897,-190 897,-190 897,-184 903,-178 909,-178 909,-178 1064,-178 1064,-178 1070,-178 1076,-184 1076,-190 1076,-190 1076,-204 1076,-204 1076,-210 1070,-216 1064,-216"/>
<text text-anchor="middle" x="986.5" y="-200.8" font-family="Times,serif" font-size="14.00">encode block 1</text>
<text text-anchor="middle" x="986.5" y="-185.8" font-family="Times,serif" font-size="14.00">n kernels: 42 &#160;&#160;spatial scale: 1</text>
</g>
<!-- 1&#45;&gt;4 -->
<g id="edge4" class="edge"><title>1&#45;&gt;4</title>
<path fill="none" stroke="black" d="M1235.91,-262.363C1195.89,-252.035 1123,-233.226 1066.32,-218.598"/>
<polygon fill="black" stroke="black" points="1066.85,-215.121 1056.29,-216.011 1065.1,-221.899 1066.85,-215.121"/>
</g>
<!-- 5 -->
<g id="node6" class="node"><title>5</title>
<path fill="#abceb9" stroke="black" d="M1343,-216C1343,-216 1188,-216 1188,-216 1182,-216 1176,-210 1176,-204 1176,-204 1176,-190 1176,-190 1176,-184 1182,-178 1188,-178 1188,-178 1343,-178 1343,-178 1349,-178 1355,-184 1355,-190 1355,-190 1355,-204 1355,-204 1355,-210 1349,-216 1343,-216"/>
<text text-anchor="middle" x="1265.5" y="-200.8" font-family="Times,serif" font-size="14.00">encode block 2</text>
<text text-anchor="middle" x="1265.5" y="-185.8" font-family="Times,serif" font-size="14.00">n kernels: 10 &#160;&#160;spatial scale: 2</text>
</g>
<!-- 1&#45;&gt;5 -->
<g id="edge5" class="edge"><title>1&#45;&gt;5</title>
<path fill="none" stroke="black" d="M1265.5,-252.937C1265.5,-244.987 1265.5,-235.313 1265.5,-226.313"/>
<polygon fill="black" stroke="black" points="1269,-226.199 1265.5,-216.199 1262,-226.199 1269,-226.199"/>
</g>
<!-- 6 -->
<g id="node7" class="node"><title>6</title>
<path fill="#97b6a3" stroke="black" d="M1603.5,-216C1603.5,-216 1455.5,-216 1455.5,-216 1449.5,-216 1443.5,-210 1443.5,-204 1443.5,-204 1443.5,-190 1443.5,-190 1443.5,-184 1449.5,-178 1455.5,-178 1455.5,-178 1603.5,-178 1603.5,-178 1609.5,-178 1615.5,-184 1615.5,-190 1615.5,-190 1615.5,-204 1615.5,-204 1615.5,-210 1609.5,-216 1603.5,-216"/>
<text text-anchor="middle" x="1529.5" y="-200.8" font-family="Times,serif" font-size="14.00">encode block 3</text>
<text text-anchor="middle" x="1529.5" y="-185.8" font-family="Times,serif" font-size="14.00">n kernels: 2 &#160;&#160;spatial scale: 3</text>
</g>
<!-- 1&#45;&gt;6 -->
<g id="edge6" class="edge"><title>1&#45;&gt;6</title>
<path fill="none" stroke="black" d="M1295.02,-261.95C1333.14,-251.552 1400.89,-233.076 1453.79,-218.647"/>
<polygon fill="black" stroke="black" points="1454.76,-222.011 1463.49,-216.003 1452.92,-215.258 1454.76,-222.011"/>
</g>
<!-- 7 -->
<g id="node8" class="node"><title>7</title>
<path fill="#d3ffe4" stroke="black" d="M2148.5,-216C2148.5,-216 1996.5,-216 1996.5,-216 1990.5,-216 1984.5,-210 1984.5,-204 1984.5,-204 1984.5,-190 1984.5,-190 1984.5,-184 1990.5,-178 1996.5,-178 1996.5,-178 2148.5,-178 2148.5,-178 2154.5,-178 2160.5,-184 2160.5,-190 2160.5,-190 2160.5,-204 2160.5,-204 2160.5,-210 2154.5,-216 2148.5,-216"/>
<text text-anchor="middle" x="2072.5" y="-200.8" font-family="Times,serif" font-size="14.00">decode block 4</text>
<text text-anchor="middle" x="2072.5" y="-185.8" font-family="Times,serif" font-size="14.00">n kernels: &#45;9 &#160;&#160;spatial scale: 4</text>
</g>
<!-- 2&#45;&gt;7 -->
<g id="edge7" class="edge"><title>2&#45;&gt;7</title>
<path fill="none" stroke="black" d="M2925.37,-266.306C2785.48,-255.102 2363.81,-221.331 2170.84,-205.876"/>
<polygon fill="black" stroke="black" points="2170.95,-202.373 2160.7,-205.064 2170.39,-209.351 2170.95,-202.373"/>
</g>
<!-- 8 -->
<g id="node9" class="node"><title>8</title>
<path fill="#bfe6cf" stroke="black" d="M2786,-216C2786,-216 2625,-216 2625,-216 2619,-216 2613,-210 2613,-204 2613,-204 2613,-190 2613,-190 2613,-184 2619,-178 2625,-178 2625,-178 2786,-178 2786,-178 2792,-178 2798,-184 2798,-190 2798,-190 2798,-204 2798,-204 2798,-210 2792,-216 2786,-216"/>
<text text-anchor="middle" x="2705.5" y="-200.8" font-family="Times,serif" font-size="14.00">decode block 3</text>
<text text-anchor="middle" x="2705.5" y="-185.8" font-family="Times,serif" font-size="14.00">n kernels: 203 &#160;&#160;spatial scale: 3</text>
</g>
<!-- 2&#45;&gt;8 -->
<g id="edge8" class="edge"><title>2&#45;&gt;8</title>
<path fill="none" stroke="black" d="M2925.47,-257.541C2885.98,-246.85 2828.26,-231.228 2781.86,-218.668"/>
<polygon fill="black" stroke="black" points="2782.7,-215.272 2772.14,-216.037 2780.88,-222.028 2782.7,-215.272"/>
</g>
<!-- 9 -->
<g id="node10" class="node"><title>9</title>
<path fill="#abceb9" stroke="black" d="M3300,-216C3300,-216 3145,-216 3145,-216 3139,-216 3133,-210 3133,-204 3133,-204 3133,-190 3133,-190 3133,-184 3139,-178 3145,-178 3145,-178 3300,-178 3300,-178 3306,-178 3312,-184 3312,-190 3312,-190 3312,-204 3312,-204 3312,-210 3306,-216 3300,-216"/>
<text text-anchor="middle" x="3222.5" y="-200.8" font-family="Times,serif" font-size="14.00">decode block 2</text>
<text text-anchor="middle" x="3222.5" y="-185.8" font-family="Times,serif" font-size="14.00">n kernels: 87 &#160;&#160;spatial scale: 2</text>
</g>
<!-- 2&#45;&gt;9 -->
<g id="edge9" class="edge"><title>2&#45;&gt;9</title>
<path fill="none" stroke="black" d="M3017.54,-256.794C3054.56,-246.173 3107.27,-231.055 3149.96,-218.809"/>
<polygon fill="black" stroke="black" points="3151.09,-222.125 3159.74,-216.003 3149.16,-215.396 3151.09,-222.125"/>
</g>
<!-- 10 -->
<g id="node11" class="node"><title>10</title>
<path fill="#97b6a3" stroke="black" d="M4029.5,-216C4029.5,-216 3877.5,-216 3877.5,-216 3871.5,-216 3865.5,-210 3865.5,-204 3865.5,-204 3865.5,-190 3865.5,-190 3865.5,-184 3871.5,-178 3877.5,-178 3877.5,-178 4029.5,-178 4029.5,-178 4035.5,-178 4041.5,-184 4041.5,-190 4041.5,-190 4041.5,-204 4041.5,-204 4041.5,-210 4035.5,-216 4029.5,-216"/>
<text text-anchor="middle" x="3953.5" y="-200.8" font-family="Times,serif" font-size="14.00">decode block 1</text>
<text text-anchor="middle" x="3953.5" y="-185.8" font-family="Times,serif" font-size="14.00">n kernels: &#45;7 &#160;&#160;spatial scale: 1</text>
</g>
<!-- 2&#45;&gt;10 -->
<g id="edge10" class="edge"><title>2&#45;&gt;10</title>
<path fill="none" stroke="black" d="M3017.55,-266.624C3167.99,-255.593 3647.3,-220.451 3855.45,-205.189"/>
<polygon fill="black" stroke="black" points="3855.74,-208.677 3865.46,-204.455 3855.23,-201.696 3855.74,-208.677"/>
</g>
<!-- 11 -->
<g id="node12" class="node"><title>11</title>
<path fill="#839e8d" stroke="black" d="M4825,-215C4825,-215 4750,-215 4750,-215 4744,-215 4738,-209 4738,-203 4738,-203 4738,-191 4738,-191 4738,-185 4744,-179 4750,-179 4750,-179 4825,-179 4825,-179 4831,-179 4837,-185 4837,-191 4837,-191 4837,-203 4837,-203 4837,-209 4831,-215 4825,-215"/>
<text text-anchor="middle" x="4787.5" y="-193.3" font-family="Times,serif" font-size="14.00">decode block 0</text>
</g>
<!-- 2&#45;&gt;11 -->
<g id="edge11" class="edge"><title>2&#45;&gt;11</title>
<path fill="none" stroke="black" d="M3017.76,-268.166C3266.69,-258.296 4446.21,-211.531 4727.27,-200.388"/>
<polygon fill="black" stroke="black" points="4727.81,-203.869 4737.67,-199.976 4727.54,-196.875 4727.81,-203.869"/>
</g>
<!-- 12 -->
<g id="node13" class="node"><title>12</title>
<path fill="#d3e4ff" stroke="black" d="M183.5,-142C183.5,-142 127.5,-142 127.5,-142 121.5,-142 115.5,-136 115.5,-130 115.5,-130 115.5,-116 115.5,-116 115.5,-110 121.5,-104 127.5,-104 127.5,-104 183.5,-104 183.5,-104 189.5,-104 195.5,-110 195.5,-116 195.5,-116 195.5,-130 195.5,-130 195.5,-136 189.5,-142 183.5,-142"/>
<text text-anchor="middle" x="155.5" y="-126.8" font-family="Times,serif" font-size="14.00">comp 0</text>
<text text-anchor="middle" x="155.5" y="-111.8" font-family="Times,serif" font-size="14.00">n kernels: 7</text>
</g>
<!-- 3&#45;&gt;12 -->
<g id="edge12" class="edge"><title>3&#45;&gt;12</title>
<path fill="none" stroke="black" d="M393.991,-183.623C341.261,-170.44 258.265,-149.691 205.39,-136.473"/>
<polygon fill="black" stroke="black" points="206.109,-133.044 195.558,-134.015 204.411,-139.835 206.109,-133.044"/>
</g>
<!-- 13 -->
<g id="node14" class="node"><title>13</title>
<path fill="#bfcfe6" stroke="black" d="M332.5,-141C332.5,-141 298.5,-141 298.5,-141 292.5,-141 286.5,-135 286.5,-129 286.5,-129 286.5,-117 286.5,-117 286.5,-111 292.5,-105 298.5,-105 298.5,-105 332.5,-105 332.5,-105 338.5,-105 344.5,-111 344.5,-117 344.5,-117 344.5,-129 344.5,-129 344.5,-135 338.5,-141 332.5,-141"/>
<text text-anchor="middle" x="315.5" y="-119.3" font-family="Times,serif" font-size="14.00">comp 1</text>
</g>
<!-- 3&#45;&gt;13 -->
<g id="edge13" class="edge"><title>3&#45;&gt;13</title>
<path fill="none" stroke="black" d="M413.166,-178.937C395.296,-168.885 372.531,-156.08 353.475,-145.361"/>
<polygon fill="black" stroke="black" points="355.167,-142.297 344.735,-140.445 351.735,-148.398 355.167,-142.297"/>
</g>
<!-- 14 -->
<g id="node15" class="node"><title>14</title>
<path fill="#abb9ce" stroke="black" d="M460.5,-141C460.5,-141 426.5,-141 426.5,-141 420.5,-141 414.5,-135 414.5,-129 414.5,-129 414.5,-117 414.5,-117 414.5,-111 420.5,-105 426.5,-105 426.5,-105 460.5,-105 460.5,-105 466.5,-105 472.5,-111 472.5,-117 472.5,-117 472.5,-129 472.5,-129 472.5,-135 466.5,-141 460.5,-141"/>
<text text-anchor="middle" x="443.5" y="-119.3" font-family="Times,serif" font-size="14.00">comp 2</text>
</g>
<!-- 3&#45;&gt;14 -->
<g id="edge14" class="edge"><title>3&#45;&gt;14</title>
<path fill="none" stroke="black" d="M443.5,-178.937C443.5,-170.807 443.5,-160.876 443.5,-151.705"/>
<polygon fill="black" stroke="black" points="447,-151.441 443.5,-141.441 440,-151.441 447,-151.441"/>
</g>
<!-- 15 -->
<g id="node16" class="node"><title>15</title>
<path fill="#97a3b6" stroke="black" d="M605.5,-142C605.5,-142 549.5,-142 549.5,-142 543.5,-142 537.5,-136 537.5,-130 537.5,-130 537.5,-116 537.5,-116 537.5,-110 543.5,-104 549.5,-104 549.5,-104 605.5,-104 605.5,-104 611.5,-104 617.5,-110 617.5,-116 617.5,-116 617.5,-130 617.5,-130 617.5,-136 611.5,-142 605.5,-142"/>
<text text-anchor="middle" x="577.5" y="-126.8" font-family="Times,serif" font-size="14.00">comp 3</text>
<text text-anchor="middle" x="577.5" y="-111.8" font-family="Times,serif" font-size="14.00">n kernels: 2</text>
</g>
<!-- 3&#45;&gt;15 -->
<g id="edge15" class="edge"><title>3&#45;&gt;15</title>
<path fill="none" stroke="black" d="M475.256,-178.937C493.028,-169.388 515.425,-157.353 534.724,-146.984"/>
<polygon fill="black" stroke="black" points="536.477,-150.016 543.629,-142.199 533.164,-143.849 536.477,-150.016"/>
</g>
<!-- 16 -->
<g id="node17" class="node"><title>16</title>
<path fill="#d3e4ff" stroke="black" d="M867.5,-141C867.5,-141 833.5,-141 833.5,-141 827.5,-141 821.5,-135 821.5,-129 821.5,-129 821.5,-117 821.5,-117 821.5,-111 827.5,-105 833.5,-105 833.5,-105 867.5,-105 867.5,-105 873.5,-105 879.5,-111 879.5,-117 879.5,-117 879.5,-129 879.5,-129 879.5,-135 873.5,-141 867.5,-141"/>
<text text-anchor="middle" x="850.5" y="-119.3" font-family="Times,serif" font-size="14.00">comp 0</text>
</g>
<!-- 4&#45;&gt;16 -->
<g id="edge16" class="edge"><title>4&#45;&gt;16</title>
<path fill="none" stroke="black" d="M952.181,-177.831C932.889,-167.618 908.758,-154.842 888.845,-144.3"/>
<polygon fill="black" stroke="black" points="890.214,-141.065 879.738,-139.479 886.938,-147.251 890.214,-141.065"/>
</g>
<!-- 17 -->
<g id="node18" class="node"><title>17</title>
<path fill="#bfcfe6" stroke="black" d="M1018,-142C1018,-142 955,-142 955,-142 949,-142 943,-136 943,-130 943,-130 943,-116 943,-116 943,-110 949,-104 955,-104 955,-104 1018,-104 1018,-104 1024,-104 1030,-110 1030,-116 1030,-116 1030,-130 1030,-130 1030,-136 1024,-142 1018,-142"/>
<text text-anchor="middle" x="986.5" y="-126.8" font-family="Times,serif" font-size="14.00">comp 1</text>
<text text-anchor="middle" x="986.5" y="-111.8" font-family="Times,serif" font-size="14.00">n kernels: 11</text>
</g>
<!-- 4&#45;&gt;17 -->
<g id="edge17" class="edge"><title>4&#45;&gt;17</title>
<path fill="none" stroke="black" d="M986.5,-177.831C986.5,-170.131 986.5,-160.974 986.5,-152.417"/>
<polygon fill="black" stroke="black" points="990,-152.413 986.5,-142.413 983,-152.413 990,-152.413"/>
</g>
<!-- 18 -->
<g id="node19" class="node"><title>18</title>
<path fill="#d3e4ff" stroke="black" d="M1213.5,-141C1213.5,-141 1179.5,-141 1179.5,-141 1173.5,-141 1167.5,-135 1167.5,-129 1167.5,-129 1167.5,-117 1167.5,-117 1167.5,-111 1173.5,-105 1179.5,-105 1179.5,-105 1213.5,-105 1213.5,-105 1219.5,-105 1225.5,-111 1225.5,-117 1225.5,-117 1225.5,-129 1225.5,-129 1225.5,-135 1219.5,-141 1213.5,-141"/>
<text text-anchor="middle" x="1196.5" y="-119.3" font-family="Times,serif" font-size="14.00">comp 0</text>
</g>
<!-- 5&#45;&gt;18 -->
<g id="edge18" class="edge"><title>5&#45;&gt;18</title>
<path fill="none" stroke="black" d="M1248.09,-177.831C1239.65,-169.022 1229.38,-158.306 1220.23,-148.762"/>
<polygon fill="black" stroke="black" points="1222.64,-146.216 1213.19,-141.418 1217.58,-151.059 1222.64,-146.216"/>
</g>
<!-- 19 -->
<g id="node20" class="node"><title>19</title>
<path fill="#bfcfe6" stroke="black" d="M1335.5,-141C1335.5,-141 1301.5,-141 1301.5,-141 1295.5,-141 1289.5,-135 1289.5,-129 1289.5,-129 1289.5,-117 1289.5,-117 1289.5,-111 1295.5,-105 1301.5,-105 1301.5,-105 1335.5,-105 1335.5,-105 1341.5,-105 1347.5,-111 1347.5,-117 1347.5,-117 1347.5,-129 1347.5,-129 1347.5,-135 1341.5,-141 1335.5,-141"/>
<text text-anchor="middle" x="1318.5" y="-119.3" font-family="Times,serif" font-size="14.00">comp 1</text>
</g>
<!-- 5&#45;&gt;19 -->
<g id="edge19" class="edge"><title>5&#45;&gt;19</title>
<path fill="none" stroke="black" d="M1278.87,-177.831C1285.17,-169.283 1292.78,-158.941 1299.64,-149.616"/>
<polygon fill="black" stroke="black" points="1302.57,-151.546 1305.68,-141.418 1296.93,-147.396 1302.57,-151.546"/>
</g>
<!-- 20 -->
<g id="node21" class="node"><title>20</title>
<path fill="#d3e4ff" stroke="black" d="M1557.5,-142C1557.5,-142 1501.5,-142 1501.5,-142 1495.5,-142 1489.5,-136 1489.5,-130 1489.5,-130 1489.5,-116 1489.5,-116 1489.5,-110 1495.5,-104 1501.5,-104 1501.5,-104 1557.5,-104 1557.5,-104 1563.5,-104 1569.5,-110 1569.5,-116 1569.5,-116 1569.5,-130 1569.5,-130 1569.5,-136 1563.5,-142 1557.5,-142"/>
<text text-anchor="middle" x="1529.5" y="-126.8" font-family="Times,serif" font-size="14.00">comp 0</text>
<text text-anchor="middle" x="1529.5" y="-111.8" font-family="Times,serif" font-size="14.00">n kernels: 2</text>
</g>
<!-- 6&#45;&gt;20 -->
<g id="edge20" class="edge"><title>6&#45;&gt;20</title>
<path fill="none" stroke="black" d="M1529.5,-177.831C1529.5,-170.131 1529.5,-160.974 1529.5,-152.417"/>
<polygon fill="black" stroke="black" points="1533,-152.413 1529.5,-142.413 1526,-152.413 1533,-152.413"/>
</g>
<!-- 21 -->
<g id="node22" class="node"><title>21</title>
<path fill="#bfcfe6" stroke="black" d="M1705.5,-142C1705.5,-142 1637.5,-142 1637.5,-142 1631.5,-142 1625.5,-136 1625.5,-130 1625.5,-130 1625.5,-116 1625.5,-116 1625.5,-110 1631.5,-104 1637.5,-104 1637.5,-104 1705.5,-104 1705.5,-104 1711.5,-104 1717.5,-110 1717.5,-116 1717.5,-116 1717.5,-130 1717.5,-130 1717.5,-136 1711.5,-142 1705.5,-142"/>
<text text-anchor="middle" x="1671.5" y="-126.8" font-family="Times,serif" font-size="14.00">comp 1</text>
<text text-anchor="middle" x="1671.5" y="-111.8" font-family="Times,serif" font-size="14.00">n kernels: &#45;13</text>
</g>
<!-- 6&#45;&gt;21 -->
<g id="edge21" class="edge"><title>6&#45;&gt;21</title>
<path fill="none" stroke="black" d="M1565.33,-177.831C1583.92,-168.409 1606.8,-156.806 1626.56,-146.788"/>
<polygon fill="black" stroke="black" points="1628.34,-149.807 1635.68,-142.163 1625.18,-143.564 1628.34,-149.807"/>
</g>
<!-- 22 -->
<g id="node23" class="node"><title>22</title>
<path fill="#d3e4ff" stroke="black" d="M1960,-142C1960,-142 1899,-142 1899,-142 1893,-142 1887,-136 1887,-130 1887,-130 1887,-116 1887,-116 1887,-110 1893,-104 1899,-104 1899,-104 1960,-104 1960,-104 1966,-104 1972,-110 1972,-116 1972,-116 1972,-130 1972,-130 1972,-136 1966,-142 1960,-142"/>
<text text-anchor="middle" x="1929.5" y="-126.8" font-family="Times,serif" font-size="14.00">comp 0</text>
<text text-anchor="middle" x="1929.5" y="-111.8" font-family="Times,serif" font-size="14.00">n kernels: &#45;4</text>
</g>
<!-- 7&#45;&gt;22 -->
<g id="edge22" class="edge"><title>7&#45;&gt;22</title>
<path fill="none" stroke="black" d="M2036.42,-177.831C2017.7,-168.409 1994.66,-156.806 1974.76,-146.788"/>
<polygon fill="black" stroke="black" points="1976.08,-143.534 1965.57,-142.163 1972.93,-149.786 1976.08,-143.534"/>
</g>
<!-- 23 -->
<g id="node24" class="node"><title>23</title>
<path fill="#bfcfe6" stroke="black" d="M2104,-142C2104,-142 2041,-142 2041,-142 2035,-142 2029,-136 2029,-130 2029,-130 2029,-116 2029,-116 2029,-110 2035,-104 2041,-104 2041,-104 2104,-104 2104,-104 2110,-104 2116,-110 2116,-116 2116,-116 2116,-130 2116,-130 2116,-136 2110,-142 2104,-142"/>
<text text-anchor="middle" x="2072.5" y="-126.8" font-family="Times,serif" font-size="14.00">comp 1</text>
<text text-anchor="middle" x="2072.5" y="-111.8" font-family="Times,serif" font-size="14.00">n kernels: 19</text>
</g>
<!-- 7&#45;&gt;23 -->
<g id="edge23" class="edge"><title>7&#45;&gt;23</title>
<path fill="none" stroke="black" d="M2072.5,-177.831C2072.5,-170.131 2072.5,-160.974 2072.5,-152.417"/>
<polygon fill="black" stroke="black" points="2076,-152.413 2072.5,-142.413 2069,-152.413 2076,-152.413"/>
</g>
<!-- 24 -->
<g id="node25" class="node"><title>24</title>
<path fill="#d3e4ff" stroke="black" d="M2451.5,-141C2451.5,-141 2417.5,-141 2417.5,-141 2411.5,-141 2405.5,-135 2405.5,-129 2405.5,-129 2405.5,-117 2405.5,-117 2405.5,-111 2411.5,-105 2417.5,-105 2417.5,-105 2451.5,-105 2451.5,-105 2457.5,-105 2463.5,-111 2463.5,-117 2463.5,-117 2463.5,-129 2463.5,-129 2463.5,-135 2457.5,-141 2451.5,-141"/>
<text text-anchor="middle" x="2434.5" y="-119.3" font-family="Times,serif" font-size="14.00">comp 0</text>
</g>
<!-- 8&#45;&gt;24 -->
<g id="edge24" class="edge"><title>8&#45;&gt;24</title>
<path fill="none" stroke="black" d="M2637.47,-177.924C2585.65,-164.157 2516.15,-145.694 2473.4,-134.334"/>
<polygon fill="black" stroke="black" points="2474.22,-130.93 2463.65,-131.745 2472.42,-137.696 2474.22,-130.93"/>
</g>
<!-- 25 -->
<g id="node26" class="node"><title>25</title>
<path fill="#bfcfe6" stroke="black" d="M2668.5,-142C2668.5,-142 2594.5,-142 2594.5,-142 2588.5,-142 2582.5,-136 2582.5,-130 2582.5,-130 2582.5,-116 2582.5,-116 2582.5,-110 2588.5,-104 2594.5,-104 2594.5,-104 2668.5,-104 2668.5,-104 2674.5,-104 2680.5,-110 2680.5,-116 2680.5,-116 2680.5,-130 2680.5,-130 2680.5,-136 2674.5,-142 2668.5,-142"/>
<text text-anchor="middle" x="2631.5" y="-126.8" font-family="Times,serif" font-size="14.00">comp 1</text>
<text text-anchor="middle" x="2631.5" y="-111.8" font-family="Times,serif" font-size="14.00">n kernels: &#45;104</text>
</g>
<!-- 8&#45;&gt;25 -->
<g id="edge25" class="edge"><title>8&#45;&gt;25</title>
<path fill="none" stroke="black" d="M2686.83,-177.831C2677.98,-169.219 2667.25,-158.785 2657.61,-149.405"/>
<polygon fill="black" stroke="black" points="2659.78,-146.628 2650.17,-142.163 2654.89,-151.645 2659.78,-146.628"/>
</g>
<!-- 26 -->
<g id="node27" class="node"><title>26</title>
<path fill="#abb9ce" stroke="black" d="M2816.5,-142C2816.5,-142 2742.5,-142 2742.5,-142 2736.5,-142 2730.5,-136 2730.5,-130 2730.5,-130 2730.5,-116 2730.5,-116 2730.5,-110 2736.5,-104 2742.5,-104 2742.5,-104 2816.5,-104 2816.5,-104 2822.5,-104 2828.5,-110 2828.5,-116 2828.5,-116 2828.5,-130 2828.5,-130 2828.5,-136 2822.5,-142 2816.5,-142"/>
<text text-anchor="middle" x="2779.5" y="-126.8" font-family="Times,serif" font-size="14.00">comp 2</text>
<text text-anchor="middle" x="2779.5" y="-111.8" font-family="Times,serif" font-size="14.00">n kernels: &#45;104</text>
</g>
<!-- 8&#45;&gt;26 -->
<g id="edge26" class="edge"><title>8&#45;&gt;26</title>
<path fill="none" stroke="black" d="M2724.17,-177.831C2733.02,-169.219 2743.75,-158.785 2753.39,-149.405"/>
<polygon fill="black" stroke="black" points="2756.11,-151.645 2760.83,-142.163 2751.22,-146.628 2756.11,-151.645"/>
</g>
<!-- 27 -->
<g id="node28" class="node"><title>27</title>
<path fill="#d3e4ff" stroke="black" d="M3175.5,-141C3175.5,-141 3141.5,-141 3141.5,-141 3135.5,-141 3129.5,-135 3129.5,-129 3129.5,-129 3129.5,-117 3129.5,-117 3129.5,-111 3135.5,-105 3141.5,-105 3141.5,-105 3175.5,-105 3175.5,-105 3181.5,-105 3187.5,-111 3187.5,-117 3187.5,-117 3187.5,-129 3187.5,-129 3187.5,-135 3181.5,-141 3175.5,-141"/>
<text text-anchor="middle" x="3158.5" y="-119.3" font-family="Times,serif" font-size="14.00">comp 0</text>
</g>
<!-- 9&#45;&gt;27 -->
<g id="edge27" class="edge"><title>9&#45;&gt;27</title>
<path fill="none" stroke="black" d="M3206.35,-177.831C3198.6,-169.109 3189.18,-158.518 3180.76,-149.046"/>
<polygon fill="black" stroke="black" points="3183.24,-146.567 3173.98,-141.418 3178.01,-151.217 3183.24,-146.567"/>
</g>
<!-- 28 -->
<g id="node29" class="node"><title>28</title>
<path fill="#bfcfe6" stroke="black" d="M3303.5,-141C3303.5,-141 3269.5,-141 3269.5,-141 3263.5,-141 3257.5,-135 3257.5,-129 3257.5,-129 3257.5,-117 3257.5,-117 3257.5,-111 3263.5,-105 3269.5,-105 3269.5,-105 3303.5,-105 3303.5,-105 3309.5,-105 3315.5,-111 3315.5,-117 3315.5,-117 3315.5,-129 3315.5,-129 3315.5,-135 3309.5,-141 3303.5,-141"/>
<text text-anchor="middle" x="3286.5" y="-119.3" font-family="Times,serif" font-size="14.00">comp 1</text>
</g>
<!-- 9&#45;&gt;28 -->
<g id="edge28" class="edge"><title>9&#45;&gt;28</title>
<path fill="none" stroke="black" d="M3238.65,-177.831C3246.4,-169.109 3255.82,-158.518 3264.24,-149.046"/>
<polygon fill="black" stroke="black" points="3266.99,-151.217 3271.02,-141.418 3261.76,-146.567 3266.99,-151.217"/>
</g>
<!-- 29 -->
<g id="node30" class="node"><title>29</title>
<path fill="#abb9ce" stroke="black" d="M3484.5,-141C3484.5,-141 3450.5,-141 3450.5,-141 3444.5,-141 3438.5,-135 3438.5,-129 3438.5,-129 3438.5,-117 3438.5,-117 3438.5,-111 3444.5,-105 3450.5,-105 3450.5,-105 3484.5,-105 3484.5,-105 3490.5,-105 3496.5,-111 3496.5,-117 3496.5,-117 3496.5,-129 3496.5,-129 3496.5,-135 3490.5,-141 3484.5,-141"/>
<text text-anchor="middle" x="3467.5" y="-119.3" font-family="Times,serif" font-size="14.00">comp 2</text>
</g>
<!-- 9&#45;&gt;29 -->
<g id="edge29" class="edge"><title>9&#45;&gt;29</title>
<path fill="none" stroke="black" d="M3284.01,-177.924C3329.29,-164.617 3389.5,-146.923 3428.38,-135.497"/>
<polygon fill="black" stroke="black" points="3429.66,-138.769 3438.26,-132.592 3427.68,-132.053 3429.66,-138.769"/>
</g>
<!-- 30 -->
<g id="node31" class="node"><title>30</title>
<path fill="#d3e4ff" stroke="black" d="M3913,-142C3913,-142 3852,-142 3852,-142 3846,-142 3840,-136 3840,-130 3840,-130 3840,-116 3840,-116 3840,-110 3846,-104 3852,-104 3852,-104 3913,-104 3913,-104 3919,-104 3925,-110 3925,-116 3925,-116 3925,-130 3925,-130 3925,-136 3919,-142 3913,-142"/>
<text text-anchor="middle" x="3882.5" y="-126.8" font-family="Times,serif" font-size="14.00">comp 0</text>
<text text-anchor="middle" x="3882.5" y="-111.8" font-family="Times,serif" font-size="14.00">n kernels: &#45;6</text>
</g>
<!-- 10&#45;&gt;30 -->
<g id="edge30" class="edge"><title>10&#45;&gt;30</title>
<path fill="none" stroke="black" d="M3935.58,-177.831C3927.16,-169.285 3916.96,-158.944 3907.76,-149.62"/>
<polygon fill="black" stroke="black" points="3910.17,-147.076 3900.66,-142.413 3905.19,-151.991 3910.17,-147.076"/>
</g>
<!-- 31 -->
<g id="node32" class="node"><title>31</title>
<path fill="#bfcfe6" stroke="black" d="M4056,-142C4056,-142 3993,-142 3993,-142 3987,-142 3981,-136 3981,-130 3981,-130 3981,-116 3981,-116 3981,-110 3987,-104 3993,-104 3993,-104 4056,-104 4056,-104 4062,-104 4068,-110 4068,-116 4068,-116 4068,-130 4068,-130 4068,-136 4062,-142 4056,-142"/>
<text text-anchor="middle" x="4024.5" y="-126.8" font-family="Times,serif" font-size="14.00">comp 1</text>
<text text-anchor="middle" x="4024.5" y="-111.8" font-family="Times,serif" font-size="14.00">n kernels: 13</text>
</g>
<!-- 10&#45;&gt;31 -->
<g id="edge31" class="edge"><title>10&#45;&gt;31</title>
<path fill="none" stroke="black" d="M3971.42,-177.831C3979.84,-169.285 3990.04,-158.944 3999.24,-149.62"/>
<polygon fill="black" stroke="black" points="4001.81,-151.991 4006.34,-142.413 3996.83,-147.076 4001.81,-151.991"/>
</g>
<!-- 32 -->
<g id="node33" class="node"><title>32</title>
<path fill="#abb9ce" stroke="black" d="M4237,-142C4237,-142 4174,-142 4174,-142 4168,-142 4162,-136 4162,-130 4162,-130 4162,-116 4162,-116 4162,-110 4168,-104 4174,-104 4174,-104 4237,-104 4237,-104 4243,-104 4249,-110 4249,-116 4249,-116 4249,-130 4249,-130 4249,-136 4243,-142 4237,-142"/>
<text text-anchor="middle" x="4205.5" y="-126.8" font-family="Times,serif" font-size="14.00">comp 2</text>
<text text-anchor="middle" x="4205.5" y="-111.8" font-family="Times,serif" font-size="14.00">n kernels: 13</text>
</g>
<!-- 10&#45;&gt;32 -->
<g id="edge32" class="edge"><title>10&#45;&gt;32</title>
<path fill="none" stroke="black" d="M4016.76,-177.924C4058.43,-166.02 4112.38,-150.605 4151.93,-139.307"/>
<polygon fill="black" stroke="black" points="4153,-142.64 4161.65,-136.528 4151.08,-135.91 4153,-142.64"/>
</g>
<!-- 33 -->
<g id="node34" class="node"><title>33</title>
<path fill="#d3e4ff" stroke="black" d="M4623.5,-141C4623.5,-141 4589.5,-141 4589.5,-141 4583.5,-141 4577.5,-135 4577.5,-129 4577.5,-129 4577.5,-117 4577.5,-117 4577.5,-111 4583.5,-105 4589.5,-105 4589.5,-105 4623.5,-105 4623.5,-105 4629.5,-105 4635.5,-111 4635.5,-117 4635.5,-117 4635.5,-129 4635.5,-129 4635.5,-135 4629.5,-141 4623.5,-141"/>
<text text-anchor="middle" x="4606.5" y="-119.3" font-family="Times,serif" font-size="14.00">comp 0</text>
</g>
<!-- 11&#45;&gt;33 -->
<g id="edge33" class="edge"><title>11&#45;&gt;33</title>
<path fill="none" stroke="black" d="M4744.61,-178.937C4714.36,-166.907 4674.2,-150.932 4644.99,-139.311"/>
<polygon fill="black" stroke="black" points="4646.12,-135.993 4635.53,-135.549 4643.53,-142.498 4646.12,-135.993"/>
</g>
<!-- 34 -->
<g id="node35" class="node"><title>34</title>
<path fill="#bfcfe6" stroke="black" d="M4804.5,-141C4804.5,-141 4770.5,-141 4770.5,-141 4764.5,-141 4758.5,-135 4758.5,-129 4758.5,-129 4758.5,-117 4758.5,-117 4758.5,-111 4764.5,-105 4770.5,-105 4770.5,-105 4804.5,-105 4804.5,-105 4810.5,-105 4816.5,-111 4816.5,-117 4816.5,-117 4816.5,-129 4816.5,-129 4816.5,-135 4810.5,-141 4804.5,-141"/>
<text text-anchor="middle" x="4787.5" y="-119.3" font-family="Times,serif" font-size="14.00">comp 1</text>
</g>
<!-- 11&#45;&gt;34 -->
<g id="edge34" class="edge"><title>11&#45;&gt;34</title>
<path fill="none" stroke="black" d="M4787.5,-178.937C4787.5,-170.807 4787.5,-160.876 4787.5,-151.705"/>
<polygon fill="black" stroke="black" points="4791,-151.441 4787.5,-141.441 4784,-151.441 4791,-151.441"/>
</g>
<!-- 35 -->
<g id="node36" class="node"><title>35</title>
<path fill="#abb9ce" stroke="black" d="M4932.5,-141C4932.5,-141 4898.5,-141 4898.5,-141 4892.5,-141 4886.5,-135 4886.5,-129 4886.5,-129 4886.5,-117 4886.5,-117 4886.5,-111 4892.5,-105 4898.5,-105 4898.5,-105 4932.5,-105 4932.5,-105 4938.5,-105 4944.5,-111 4944.5,-117 4944.5,-117 4944.5,-129 4944.5,-129 4944.5,-135 4938.5,-141 4932.5,-141"/>
<text text-anchor="middle" x="4915.5" y="-119.3" font-family="Times,serif" font-size="14.00">comp 2</text>
</g>
<!-- 11&#45;&gt;35 -->
<g id="edge35" class="edge"><title>11&#45;&gt;35</title>
<path fill="none" stroke="black" d="M4817.83,-178.937C4835.7,-168.885 4858.47,-156.08 4877.52,-145.361"/>
<polygon fill="black" stroke="black" points="4879.26,-148.398 4886.26,-140.445 4875.83,-142.297 4879.26,-148.398"/>
</g>
<!-- 36 -->
<g id="node37" class="node"><title>36</title>
<path fill="#97a3b6" stroke="black" d="M5113.5,-141C5113.5,-141 5079.5,-141 5079.5,-141 5073.5,-141 5067.5,-135 5067.5,-129 5067.5,-129 5067.5,-117 5067.5,-117 5067.5,-111 5073.5,-105 5079.5,-105 5079.5,-105 5113.5,-105 5113.5,-105 5119.5,-105 5125.5,-111 5125.5,-117 5125.5,-117 5125.5,-129 5125.5,-129 5125.5,-135 5119.5,-141 5113.5,-141"/>
<text text-anchor="middle" x="5096.5" y="-119.3" font-family="Times,serif" font-size="14.00">comp 3</text>
</g>
<!-- 11&#45;&gt;36 -->
<g id="edge36" class="edge"><title>11&#45;&gt;36</title>
<path fill="none" stroke="black" d="M4837.15,-184.432C4898.5,-170.137 5001.61,-146.11 5057.56,-133.074"/>
<polygon fill="black" stroke="black" points="5058.49,-136.451 5067.43,-130.773 5056.9,-129.633 5058.49,-136.451"/>
</g>
<!-- 37 -->
<g id="node38" class="node"><title>37</title>
<path fill="#f6d3ff" stroke="black" d="M151,-68C151,-68 12,-68 12,-68 6,-68 0,-62 0,-56 0,-56 0,-12 0,-12 0,-6 6,-0 12,-0 12,-0 151,-0 151,-0 157,-0 163,-6 163,-12 163,-12 163,-56 163,-56 163,-62 157,-68 151,-68"/>
<text text-anchor="middle" x="81.5" y="-52.8" font-family="Times,serif" font-size="14.00">forward</text>
<text text-anchor="middle" x="81.5" y="-37.8" font-family="Times,serif" font-size="14.00">input</text>
<text text-anchor="middle" x="81.5" y="-22.8" font-family="Times,serif" font-size="14.00">dilation rate: 1 &#160;&#160;k width: 3</text>
<text text-anchor="middle" x="81.5" y="-7.8" font-family="Times,serif" font-size="14.00">n kernels: 64</text>
</g>
<!-- 12&#45;&gt;37 -->
<g id="edge37" class="edge"><title>12&#45;&gt;37</title>
<path fill="none" stroke="black" d="M140.167,-103.974C133.219,-95.8049 124.697,-85.7857 116.324,-75.9419"/>
<polygon fill="black" stroke="black" points="118.819,-73.4732 109.674,-68.1236 113.487,-78.0086 118.819,-73.4732"/>
</g>
<!-- 38 -->
<g id="node39" class="node"><title>38</title>
<path fill="#f6d3ff" stroke="black" d="M332,-68C332,-68 193,-68 193,-68 187,-68 181,-62 181,-56 181,-56 181,-12 181,-12 181,-6 187,-0 193,-0 193,-0 332,-0 332,-0 338,-0 344,-6 344,-12 344,-12 344,-56 344,-56 344,-62 338,-68 332,-68"/>
<text text-anchor="middle" x="262.5" y="-52.8" font-family="Times,serif" font-size="14.00">forward</text>
<text text-anchor="middle" x="262.5" y="-37.8" font-family="Times,serif" font-size="14.00">EB0/C0</text>
<text text-anchor="middle" x="262.5" y="-22.8" font-family="Times,serif" font-size="14.00">dilation rate: 1 &#160;&#160;k width: 3</text>
<text text-anchor="middle" x="262.5" y="-7.8" font-family="Times,serif" font-size="14.00">n kernels: 64</text>
</g>
<!-- 13&#45;&gt;38 -->
<g id="edge38" class="edge"><title>13&#45;&gt;38</title>
<path fill="none" stroke="black" d="M305.029,-104.812C300.082,-96.6918 293.942,-86.6128 287.88,-76.6623"/>
<polygon fill="black" stroke="black" points="290.797,-74.7226 282.606,-68.0034 284.819,-78.3644 290.797,-74.7226"/>
</g>
<!-- 39 -->
<g id="node40" class="node"><title>39</title>
<path fill="#f6d3ff" stroke="black" d="M513,-68C513,-68 374,-68 374,-68 368,-68 362,-62 362,-56 362,-56 362,-12 362,-12 362,-6 368,-0 374,-0 374,-0 513,-0 513,-0 519,-0 525,-6 525,-12 525,-12 525,-56 525,-56 525,-62 519,-68 513,-68"/>
<text text-anchor="middle" x="443.5" y="-52.8" font-family="Times,serif" font-size="14.00">forward</text>
<text text-anchor="middle" x="443.5" y="-37.8" font-family="Times,serif" font-size="14.00">EB0/C1</text>
<text text-anchor="middle" x="443.5" y="-22.8" font-family="Times,serif" font-size="14.00">dilation rate: 1 &#160;&#160;k width: 3</text>
<text text-anchor="middle" x="443.5" y="-7.8" font-family="Times,serif" font-size="14.00">n kernels: 64</text>
</g>
<!-- 14&#45;&gt;39 -->
<g id="edge39" class="edge"><title>14&#45;&gt;39</title>
<path fill="none" stroke="black" d="M443.5,-104.812C443.5,-97.1019 443.5,-87.6259 443.5,-78.1706"/>
<polygon fill="black" stroke="black" points="447,-78.0034 443.5,-68.0034 440,-78.0034 447,-78.0034"/>
</g>
<!-- 40 -->
<g id="node41" class="node"><title>40</title>
<path fill="#f6d3ff" stroke="black" d="M694,-68C694,-68 555,-68 555,-68 549,-68 543,-62 543,-56 543,-56 543,-12 543,-12 543,-6 549,-0 555,-0 555,-0 694,-0 694,-0 700,-0 706,-6 706,-12 706,-12 706,-56 706,-56 706,-62 700,-68 694,-68"/>
<text text-anchor="middle" x="624.5" y="-52.8" font-family="Times,serif" font-size="14.00">forward</text>
<text text-anchor="middle" x="624.5" y="-37.8" font-family="Times,serif" font-size="14.00">EB0/C2</text>
<text text-anchor="middle" x="624.5" y="-22.8" font-family="Times,serif" font-size="14.00">dilation rate: 1 &#160;&#160;k width: 3</text>
<text text-anchor="middle" x="624.5" y="-7.8" font-family="Times,serif" font-size="14.00">n kernels: 64</text>
</g>
<!-- 15&#45;&gt;40 -->
<g id="edge40" class="edge"><title>15&#45;&gt;40</title>
<path fill="none" stroke="black" d="M587.238,-103.974C591.477,-96.1284 596.637,-86.5764 601.75,-77.1122"/>
<polygon fill="black" stroke="black" points="604.932,-78.5854 606.606,-68.1236 598.773,-75.2583 604.932,-78.5854"/>
</g>
<!-- 41 -->
<g id="node42" class="node"><title>41</title>
<path fill="#f6d3ff" stroke="black" d="M875,-68C875,-68 736,-68 736,-68 730,-68 724,-62 724,-56 724,-56 724,-12 724,-12 724,-6 730,-0 736,-0 736,-0 875,-0 875,-0 881,-0 887,-6 887,-12 887,-12 887,-56 887,-56 887,-62 881,-68 875,-68"/>
<text text-anchor="middle" x="805.5" y="-52.8" font-family="Times,serif" font-size="14.00">forward</text>
<text text-anchor="middle" x="805.5" y="-37.8" font-family="Times,serif" font-size="14.00">EB0/C3</text>
<text text-anchor="middle" x="805.5" y="-22.8" font-family="Times,serif" font-size="14.00">dilation rate: 1 &#160;&#160;k width: 3</text>
<text text-anchor="middle" x="805.5" y="-7.8" font-family="Times,serif" font-size="14.00">n kernels: 64</text>
</g>
<!-- 16&#45;&gt;41 -->
<g id="edge41" class="edge"><title>16&#45;&gt;41</title>
<path fill="none" stroke="black" d="M841.609,-104.812C837.452,-96.7738 832.301,-86.8162 827.205,-76.9638"/>
<polygon fill="black" stroke="black" points="830.274,-75.2776 822.571,-68.0034 824.056,-78.4936 830.274,-75.2776"/>
</g>
<!-- 42 -->
<g id="node43" class="node"><title>42</title>
<path fill="#f6d3ff" stroke="black" d="M1056,-68C1056,-68 917,-68 917,-68 911,-68 905,-62 905,-56 905,-56 905,-12 905,-12 905,-6 911,-0 917,-0 917,-0 1056,-0 1056,-0 1062,-0 1068,-6 1068,-12 1068,-12 1068,-56 1068,-56 1068,-62 1062,-68 1056,-68"/>
<text text-anchor="middle" x="986.5" y="-52.8" font-family="Times,serif" font-size="14.00">forward</text>
<text text-anchor="middle" x="986.5" y="-37.8" font-family="Times,serif" font-size="14.00">EB1/C0</text>
<text text-anchor="middle" x="986.5" y="-22.8" font-family="Times,serif" font-size="14.00">dilation rate: 1 &#160;&#160;k width: 3</text>
<text text-anchor="middle" x="986.5" y="-7.8" font-family="Times,serif" font-size="14.00">n kernels: 64</text>
</g>
<!-- 17&#45;&gt;42 -->
<g id="edge42" class="edge"><title>17&#45;&gt;42</title>
<path fill="none" stroke="black" d="M986.5,-103.974C986.5,-96.4519 986.5,-87.3613 986.5,-78.2833"/>
<polygon fill="black" stroke="black" points="990,-78.1236 986.5,-68.1236 983,-78.1237 990,-78.1236"/>
</g>
<!-- 43 -->
<g id="node44" class="node"><title>43</title>
<path fill="#f6d3ff" stroke="black" d="M1237,-68C1237,-68 1098,-68 1098,-68 1092,-68 1086,-62 1086,-56 1086,-56 1086,-12 1086,-12 1086,-6 1092,-0 1098,-0 1098,-0 1237,-0 1237,-0 1243,-0 1249,-6 1249,-12 1249,-12 1249,-56 1249,-56 1249,-62 1243,-68 1237,-68"/>
<text text-anchor="middle" x="1167.5" y="-52.8" font-family="Times,serif" font-size="14.00">forward</text>
<text text-anchor="middle" x="1167.5" y="-37.8" font-family="Times,serif" font-size="14.00">EB1/C1</text>
<text text-anchor="middle" x="1167.5" y="-22.8" font-family="Times,serif" font-size="14.00">dilation rate: 1 &#160;&#160;k width: 3</text>
<text text-anchor="middle" x="1167.5" y="-7.8" font-family="Times,serif" font-size="14.00">n kernels: 64</text>
</g>
<!-- 18&#45;&gt;43 -->
<g id="edge43" class="edge"><title>18&#45;&gt;43</title>
<path fill="none" stroke="black" d="M1190.77,-104.812C1188.15,-96.9379 1184.91,-87.2219 1181.69,-77.5672"/>
<polygon fill="black" stroke="black" points="1184.98,-76.3834 1178.5,-68.0034 1178.34,-78.597 1184.98,-76.3834"/>
</g>
<!-- 44 -->
<g id="node45" class="node"><title>44</title>
<path fill="#f6d3ff" stroke="black" d="M1418,-68C1418,-68 1279,-68 1279,-68 1273,-68 1267,-62 1267,-56 1267,-56 1267,-12 1267,-12 1267,-6 1273,-0 1279,-0 1279,-0 1418,-0 1418,-0 1424,-0 1430,-6 1430,-12 1430,-12 1430,-56 1430,-56 1430,-62 1424,-68 1418,-68"/>
<text text-anchor="middle" x="1348.5" y="-52.8" font-family="Times,serif" font-size="14.00">forward</text>
<text text-anchor="middle" x="1348.5" y="-37.8" font-family="Times,serif" font-size="14.00">EB2/C0</text>
<text text-anchor="middle" x="1348.5" y="-22.8" font-family="Times,serif" font-size="14.00">dilation rate: 1 &#160;&#160;k width: 3</text>
<text text-anchor="middle" x="1348.5" y="-7.8" font-family="Times,serif" font-size="14.00">n kernels: 64</text>
</g>
<!-- 19&#45;&gt;44 -->
<g id="edge44" class="edge"><title>19&#45;&gt;44</title>
<path fill="none" stroke="black" d="M1324.43,-104.812C1327.14,-96.9379 1330.49,-87.2219 1333.82,-77.5672"/>
<polygon fill="black" stroke="black" points="1337.17,-78.5981 1337.12,-68.0034 1330.55,-76.3161 1337.17,-78.5981"/>
</g>
<!-- 45 -->
<g id="node46" class="node"><title>45</title>
<path fill="#f6d3ff" stroke="black" d="M1599,-68C1599,-68 1460,-68 1460,-68 1454,-68 1448,-62 1448,-56 1448,-56 1448,-12 1448,-12 1448,-6 1454,-0 1460,-0 1460,-0 1599,-0 1599,-0 1605,-0 1611,-6 1611,-12 1611,-12 1611,-56 1611,-56 1611,-62 1605,-68 1599,-68"/>
<text text-anchor="middle" x="1529.5" y="-52.8" font-family="Times,serif" font-size="14.00">forward</text>
<text text-anchor="middle" x="1529.5" y="-37.8" font-family="Times,serif" font-size="14.00">EB2/C1</text>
<text text-anchor="middle" x="1529.5" y="-22.8" font-family="Times,serif" font-size="14.00">dilation rate: 1 &#160;&#160;k width: 3</text>
<text text-anchor="middle" x="1529.5" y="-7.8" font-family="Times,serif" font-size="14.00">n kernels: 64</text>
</g>
<!-- 20&#45;&gt;45 -->
<g id="edge45" class="edge"><title>20&#45;&gt;45</title>
<path fill="none" stroke="black" d="M1529.5,-103.974C1529.5,-96.4519 1529.5,-87.3613 1529.5,-78.2833"/>
<polygon fill="black" stroke="black" points="1533,-78.1236 1529.5,-68.1236 1526,-78.1237 1533,-78.1236"/>
</g>
<!-- 46 -->
<g id="node47" class="node"><title>46</title>
<path fill="#f6d3ff" stroke="black" d="M1780,-68C1780,-68 1641,-68 1641,-68 1635,-68 1629,-62 1629,-56 1629,-56 1629,-12 1629,-12 1629,-6 1635,-0 1641,-0 1641,-0 1780,-0 1780,-0 1786,-0 1792,-6 1792,-12 1792,-12 1792,-56 1792,-56 1792,-62 1786,-68 1780,-68"/>
<text text-anchor="middle" x="1710.5" y="-52.8" font-family="Times,serif" font-size="14.00">forward</text>
<text text-anchor="middle" x="1710.5" y="-37.8" font-family="Times,serif" font-size="14.00">EB3/C0</text>
<text text-anchor="middle" x="1710.5" y="-22.8" font-family="Times,serif" font-size="14.00">dilation rate: 1 &#160;&#160;k width: 3</text>
<text text-anchor="middle" x="1710.5" y="-7.8" font-family="Times,serif" font-size="14.00">n kernels: 64</text>
</g>
<!-- 21&#45;&gt;46 -->
<g id="edge46" class="edge"><title>21&#45;&gt;46</title>
<path fill="none" stroke="black" d="M1679.58,-103.974C1683.06,-96.2092 1687.29,-86.7732 1691.49,-77.4049"/>
<polygon fill="black" stroke="black" points="1694.75,-78.6805 1695.65,-68.1236 1688.37,-75.817 1694.75,-78.6805"/>
</g>
<!-- 47 -->
<g id="node48" class="node"><title>47</title>
<path fill="#f6d3ff" stroke="black" d="M1961,-68C1961,-68 1822,-68 1822,-68 1816,-68 1810,-62 1810,-56 1810,-56 1810,-12 1810,-12 1810,-6 1816,-0 1822,-0 1822,-0 1961,-0 1961,-0 1967,-0 1973,-6 1973,-12 1973,-12 1973,-56 1973,-56 1973,-62 1967,-68 1961,-68"/>
<text text-anchor="middle" x="1891.5" y="-52.8" font-family="Times,serif" font-size="14.00">forward</text>
<text text-anchor="middle" x="1891.5" y="-37.8" font-family="Times,serif" font-size="14.00">EB3/C1</text>
<text text-anchor="middle" x="1891.5" y="-22.8" font-family="Times,serif" font-size="14.00">dilation rate: 1 &#160;&#160;k width: 3</text>
<text text-anchor="middle" x="1891.5" y="-7.8" font-family="Times,serif" font-size="14.00">n kernels: 64</text>
</g>
<!-- 22&#45;&gt;47 -->
<g id="edge47" class="edge"><title>22&#45;&gt;47</title>
<path fill="none" stroke="black" d="M1921.63,-103.974C1918.24,-96.2092 1914.11,-86.7732 1910.02,-77.4049"/>
<polygon fill="black" stroke="black" points="1913.18,-75.8867 1905.97,-68.1236 1906.76,-78.6886 1913.18,-75.8867"/>
</g>
<!-- 48 -->
<g id="node49" class="node"><title>48</title>
<path fill="#f6d3ff" stroke="black" d="M2142,-68C2142,-68 2003,-68 2003,-68 1997,-68 1991,-62 1991,-56 1991,-56 1991,-12 1991,-12 1991,-6 1997,-0 2003,-0 2003,-0 2142,-0 2142,-0 2148,-0 2154,-6 2154,-12 2154,-12 2154,-56 2154,-56 2154,-62 2148,-68 2142,-68"/>
<text text-anchor="middle" x="2072.5" y="-52.8" font-family="Times,serif" font-size="14.00">forward</text>
<text text-anchor="middle" x="2072.5" y="-37.8" font-family="Times,serif" font-size="14.00">DB4/C0</text>
<text text-anchor="middle" x="2072.5" y="-22.8" font-family="Times,serif" font-size="14.00">dilation rate: 1 &#160;&#160;k width: 3</text>
<text text-anchor="middle" x="2072.5" y="-7.8" font-family="Times,serif" font-size="14.00">n kernels: 64</text>
</g>
<!-- 23&#45;&gt;48 -->
<g id="edge48" class="edge"><title>23&#45;&gt;48</title>
<path fill="none" stroke="black" d="M2072.5,-103.974C2072.5,-96.4519 2072.5,-87.3613 2072.5,-78.2833"/>
<polygon fill="black" stroke="black" points="2076,-78.1236 2072.5,-68.1236 2069,-78.1237 2076,-78.1236"/>
</g>
<!-- 49 -->
<g id="node50" class="node"><title>49</title>
<path fill="#f6d3ff" stroke="black" d="M2323,-68C2323,-68 2184,-68 2184,-68 2178,-68 2172,-62 2172,-56 2172,-56 2172,-12 2172,-12 2172,-6 2178,-0 2184,-0 2184,-0 2323,-0 2323,-0 2329,-0 2335,-6 2335,-12 2335,-12 2335,-56 2335,-56 2335,-62 2329,-68 2323,-68"/>
<text text-anchor="middle" x="2253.5" y="-52.8" font-family="Times,serif" font-size="14.00">forward</text>
<text text-anchor="middle" x="2253.5" y="-37.8" font-family="Times,serif" font-size="14.00">DB4/C1</text>
<text text-anchor="middle" x="2253.5" y="-22.8" font-family="Times,serif" font-size="14.00">dilation rate: 1 &#160;&#160;k width: 3</text>
<text text-anchor="middle" x="2253.5" y="-7.8" font-family="Times,serif" font-size="14.00">n kernels: 64</text>
</g>
<!-- 24&#45;&gt;49 -->
<g id="edge49" class="edge"><title>24&#45;&gt;49</title>
<path fill="none" stroke="black" d="M2405.42,-108.022C2385.4,-98.3973 2357.78,-85.122 2331.57,-72.5274"/>
<polygon fill="black" stroke="black" points="2332.91,-69.2858 2322.38,-68.1081 2329.88,-75.5949 2332.91,-69.2858"/>
</g>
<!-- 50 -->
<g id="node51" class="node"><title>50</title>
<path fill="#debfe6" stroke="black" d="M2504,-68C2504,-68 2365,-68 2365,-68 2359,-68 2353,-62 2353,-56 2353,-56 2353,-12 2353,-12 2353,-6 2359,-0 2365,-0 2365,-0 2504,-0 2504,-0 2510,-0 2516,-6 2516,-12 2516,-12 2516,-56 2516,-56 2516,-62 2510,-68 2504,-68"/>
<text text-anchor="middle" x="2434.5" y="-52.8" font-family="Times,serif" font-size="14.00">merge</text>
<text text-anchor="middle" x="2434.5" y="-37.8" font-family="Times,serif" font-size="14.00">EB3/C1</text>
<text text-anchor="middle" x="2434.5" y="-22.8" font-family="Times,serif" font-size="14.00">dilation rate: 1 &#160;&#160;k width: 3</text>
<text text-anchor="middle" x="2434.5" y="-7.8" font-family="Times,serif" font-size="14.00">n kernels: 64</text>
</g>
<!-- 24&#45;&gt;50 -->
<g id="edge50" class="edge"><title>24&#45;&gt;50</title>
<path fill="none" stroke="black" d="M2434.5,-104.812C2434.5,-97.1019 2434.5,-87.6259 2434.5,-78.1706"/>
<polygon fill="black" stroke="black" points="2438,-78.0034 2434.5,-68.0034 2431,-78.0034 2438,-78.0034"/>
</g>
<!-- 51 -->
<g id="node52" class="node"><title>51</title>
<path fill="#f6d3ff" stroke="black" d="M2685,-68C2685,-68 2546,-68 2546,-68 2540,-68 2534,-62 2534,-56 2534,-56 2534,-12 2534,-12 2534,-6 2540,-0 2546,-0 2546,-0 2685,-0 2685,-0 2691,-0 2697,-6 2697,-12 2697,-12 2697,-56 2697,-56 2697,-62 2691,-68 2685,-68"/>
<text text-anchor="middle" x="2615.5" y="-52.8" font-family="Times,serif" font-size="14.00">forward</text>
<text text-anchor="middle" x="2615.5" y="-37.8" font-family="Times,serif" font-size="14.00">DB3/C0</text>
<text text-anchor="middle" x="2615.5" y="-22.8" font-family="Times,serif" font-size="14.00">dilation rate: 1 &#160;&#160;k width: 3</text>
<text text-anchor="middle" x="2615.5" y="-7.8" font-family="Times,serif" font-size="14.00">n kernels: 64</text>
</g>
<!-- 25&#45;&gt;51 -->
<g id="edge51" class="edge"><title>25&#45;&gt;51</title>
<path fill="none" stroke="black" d="M2628.18,-103.974C2626.79,-96.371 2625.09,-87.1656 2623.41,-77.9905"/>
<polygon fill="black" stroke="black" points="2626.84,-77.3256 2621.59,-68.1236 2619.96,-78.5918 2626.84,-77.3256"/>
</g>
<!-- 52 -->
<g id="node53" class="node"><title>52</title>
<path fill="#f6d3ff" stroke="black" d="M2866,-68C2866,-68 2727,-68 2727,-68 2721,-68 2715,-62 2715,-56 2715,-56 2715,-12 2715,-12 2715,-6 2721,-0 2727,-0 2727,-0 2866,-0 2866,-0 2872,-0 2878,-6 2878,-12 2878,-12 2878,-56 2878,-56 2878,-62 2872,-68 2866,-68"/>
<text text-anchor="middle" x="2796.5" y="-52.8" font-family="Times,serif" font-size="14.00">forward</text>
<text text-anchor="middle" x="2796.5" y="-37.8" font-family="Times,serif" font-size="14.00">DB3/C1</text>
<text text-anchor="middle" x="2796.5" y="-22.8" font-family="Times,serif" font-size="14.00">dilation rate: 1 &#160;&#160;k width: 3</text>
<text text-anchor="middle" x="2796.5" y="-7.8" font-family="Times,serif" font-size="14.00">n kernels: 64</text>
</g>
<!-- 26&#45;&gt;52 -->
<g id="edge52" class="edge"><title>26&#45;&gt;52</title>
<path fill="none" stroke="black" d="M2783.02,-103.974C2784.51,-96.371 2786.31,-87.1656 2788.1,-77.9905"/>
<polygon fill="black" stroke="black" points="2791.54,-78.6093 2790.03,-68.1236 2784.67,-77.2668 2791.54,-78.6093"/>
</g>
<!-- 53 -->
<g id="node54" class="node"><title>53</title>
<path fill="#f6d3ff" stroke="black" d="M3047,-68C3047,-68 2908,-68 2908,-68 2902,-68 2896,-62 2896,-56 2896,-56 2896,-12 2896,-12 2896,-6 2902,-0 2908,-0 2908,-0 3047,-0 3047,-0 3053,-0 3059,-6 3059,-12 3059,-12 3059,-56 3059,-56 3059,-62 3053,-68 3047,-68"/>
<text text-anchor="middle" x="2977.5" y="-52.8" font-family="Times,serif" font-size="14.00">forward</text>
<text text-anchor="middle" x="2977.5" y="-37.8" font-family="Times,serif" font-size="14.00">DB3/C2</text>
<text text-anchor="middle" x="2977.5" y="-22.8" font-family="Times,serif" font-size="14.00">dilation rate: 1 &#160;&#160;k width: 3</text>
<text text-anchor="middle" x="2977.5" y="-7.8" font-family="Times,serif" font-size="14.00">n kernels: 64</text>
</g>
<!-- 27&#45;&gt;53 -->
<g id="edge53" class="edge"><title>27&#45;&gt;53</title>
<path fill="none" stroke="black" d="M3129.42,-108.022C3109.4,-98.3973 3081.78,-85.122 3055.57,-72.5274"/>
<polygon fill="black" stroke="black" points="3056.91,-69.2858 3046.38,-68.1081 3053.88,-75.5949 3056.91,-69.2858"/>
</g>
<!-- 54 -->
<g id="node55" class="node"><title>54</title>
<path fill="#debfe6" stroke="black" d="M3228,-68C3228,-68 3089,-68 3089,-68 3083,-68 3077,-62 3077,-56 3077,-56 3077,-12 3077,-12 3077,-6 3083,-0 3089,-0 3089,-0 3228,-0 3228,-0 3234,-0 3240,-6 3240,-12 3240,-12 3240,-56 3240,-56 3240,-62 3234,-68 3228,-68"/>
<text text-anchor="middle" x="3158.5" y="-52.8" font-family="Times,serif" font-size="14.00">merge</text>
<text text-anchor="middle" x="3158.5" y="-37.8" font-family="Times,serif" font-size="14.00">EB2/C1</text>
<text text-anchor="middle" x="3158.5" y="-22.8" font-family="Times,serif" font-size="14.00">dilation rate: 1 &#160;&#160;k width: 3</text>
<text text-anchor="middle" x="3158.5" y="-7.8" font-family="Times,serif" font-size="14.00">n kernels: 64</text>
</g>
<!-- 27&#45;&gt;54 -->
<g id="edge54" class="edge"><title>27&#45;&gt;54</title>
<path fill="none" stroke="black" d="M3158.5,-104.812C3158.5,-97.1019 3158.5,-87.6259 3158.5,-78.1706"/>
<polygon fill="black" stroke="black" points="3162,-78.0034 3158.5,-68.0034 3155,-78.0034 3162,-78.0034"/>
</g>
<!-- 55 -->
<g id="node56" class="node"><title>55</title>
<path fill="#f6d3ff" stroke="black" d="M3409,-68C3409,-68 3270,-68 3270,-68 3264,-68 3258,-62 3258,-56 3258,-56 3258,-12 3258,-12 3258,-6 3264,-0 3270,-0 3270,-0 3409,-0 3409,-0 3415,-0 3421,-6 3421,-12 3421,-12 3421,-56 3421,-56 3421,-62 3415,-68 3409,-68"/>
<text text-anchor="middle" x="3339.5" y="-52.8" font-family="Times,serif" font-size="14.00">forward</text>
<text text-anchor="middle" x="3339.5" y="-37.8" font-family="Times,serif" font-size="14.00">DB2/C0</text>
<text text-anchor="middle" x="3339.5" y="-22.8" font-family="Times,serif" font-size="14.00">dilation rate: 1 &#160;&#160;k width: 3</text>
<text text-anchor="middle" x="3339.5" y="-7.8" font-family="Times,serif" font-size="14.00">n kernels: 64</text>
</g>
<!-- 28&#45;&gt;55 -->
<g id="edge55" class="edge"><title>28&#45;&gt;55</title>
<path fill="none" stroke="black" d="M3296.97,-104.812C3301.92,-96.6918 3308.06,-86.6128 3314.12,-76.6623"/>
<polygon fill="black" stroke="black" points="3317.18,-78.3644 3319.39,-68.0034 3311.2,-74.7226 3317.18,-78.3644"/>
</g>
<!-- 56 -->
<g id="node57" class="node"><title>56</title>
<path fill="#f6d3ff" stroke="black" d="M3590,-68C3590,-68 3451,-68 3451,-68 3445,-68 3439,-62 3439,-56 3439,-56 3439,-12 3439,-12 3439,-6 3445,-0 3451,-0 3451,-0 3590,-0 3590,-0 3596,-0 3602,-6 3602,-12 3602,-12 3602,-56 3602,-56 3602,-62 3596,-68 3590,-68"/>
<text text-anchor="middle" x="3520.5" y="-52.8" font-family="Times,serif" font-size="14.00">forward</text>
<text text-anchor="middle" x="3520.5" y="-37.8" font-family="Times,serif" font-size="14.00">DB2/C1</text>
<text text-anchor="middle" x="3520.5" y="-22.8" font-family="Times,serif" font-size="14.00">dilation rate: 1 &#160;&#160;k width: 3</text>
<text text-anchor="middle" x="3520.5" y="-7.8" font-family="Times,serif" font-size="14.00">n kernels: 64</text>
</g>
<!-- 29&#45;&gt;56 -->
<g id="edge56" class="edge"><title>29&#45;&gt;56</title>
<path fill="none" stroke="black" d="M3477.97,-104.812C3482.92,-96.6918 3489.06,-86.6128 3495.12,-76.6623"/>
<polygon fill="black" stroke="black" points="3498.18,-78.3644 3500.39,-68.0034 3492.2,-74.7226 3498.18,-78.3644"/>
</g>
<!-- 57 -->
<g id="node58" class="node"><title>57</title>
<path fill="#f6d3ff" stroke="black" d="M3771,-68C3771,-68 3632,-68 3632,-68 3626,-68 3620,-62 3620,-56 3620,-56 3620,-12 3620,-12 3620,-6 3626,-0 3632,-0 3632,-0 3771,-0 3771,-0 3777,-0 3783,-6 3783,-12 3783,-12 3783,-56 3783,-56 3783,-62 3777,-68 3771,-68"/>
<text text-anchor="middle" x="3701.5" y="-52.8" font-family="Times,serif" font-size="14.00">forward</text>
<text text-anchor="middle" x="3701.5" y="-37.8" font-family="Times,serif" font-size="14.00">DB2/C2</text>
<text text-anchor="middle" x="3701.5" y="-22.8" font-family="Times,serif" font-size="14.00">dilation rate: 1 &#160;&#160;k width: 3</text>
<text text-anchor="middle" x="3701.5" y="-7.8" font-family="Times,serif" font-size="14.00">n kernels: 64</text>
</g>
<!-- 30&#45;&gt;57 -->
<g id="edge57" class="edge"><title>30&#45;&gt;57</title>
<path fill="none" stroke="black" d="M3845,-103.974C3826.07,-94.8748 3802.36,-83.4802 3779.7,-72.5892"/>
<polygon fill="black" stroke="black" points="3780.94,-69.3013 3770.41,-68.1236 3777.91,-75.6104 3780.94,-69.3013"/>
</g>
<!-- 58 -->
<g id="node59" class="node"><title>58</title>
<path fill="#debfe6" stroke="black" d="M3952,-68C3952,-68 3813,-68 3813,-68 3807,-68 3801,-62 3801,-56 3801,-56 3801,-12 3801,-12 3801,-6 3807,-0 3813,-0 3813,-0 3952,-0 3952,-0 3958,-0 3964,-6 3964,-12 3964,-12 3964,-56 3964,-56 3964,-62 3958,-68 3952,-68"/>
<text text-anchor="middle" x="3882.5" y="-52.8" font-family="Times,serif" font-size="14.00">merge</text>
<text text-anchor="middle" x="3882.5" y="-37.8" font-family="Times,serif" font-size="14.00">EB1/C1</text>
<text text-anchor="middle" x="3882.5" y="-22.8" font-family="Times,serif" font-size="14.00">dilation rate: 1 &#160;&#160;k width: 3</text>
<text text-anchor="middle" x="3882.5" y="-7.8" font-family="Times,serif" font-size="14.00">n kernels: 64</text>
</g>
<!-- 30&#45;&gt;58 -->
<g id="edge58" class="edge"><title>30&#45;&gt;58</title>
<path fill="none" stroke="black" d="M3882.5,-103.974C3882.5,-96.4519 3882.5,-87.3613 3882.5,-78.2833"/>
<polygon fill="black" stroke="black" points="3886,-78.1236 3882.5,-68.1236 3879,-78.1237 3886,-78.1236"/>
</g>
<!-- 59 -->
<g id="node60" class="node"><title>59</title>
<path fill="#f6d3ff" stroke="black" d="M4133,-68C4133,-68 3994,-68 3994,-68 3988,-68 3982,-62 3982,-56 3982,-56 3982,-12 3982,-12 3982,-6 3988,-0 3994,-0 3994,-0 4133,-0 4133,-0 4139,-0 4145,-6 4145,-12 4145,-12 4145,-56 4145,-56 4145,-62 4139,-68 4133,-68"/>
<text text-anchor="middle" x="4063.5" y="-52.8" font-family="Times,serif" font-size="14.00">forward</text>
<text text-anchor="middle" x="4063.5" y="-37.8" font-family="Times,serif" font-size="14.00">DB1/C0</text>
<text text-anchor="middle" x="4063.5" y="-22.8" font-family="Times,serif" font-size="14.00">dilation rate: 1 &#160;&#160;k width: 3</text>
<text text-anchor="middle" x="4063.5" y="-7.8" font-family="Times,serif" font-size="14.00">n kernels: 64</text>
</g>
<!-- 31&#45;&gt;59 -->
<g id="edge59" class="edge"><title>31&#45;&gt;59</title>
<path fill="none" stroke="black" d="M4032.58,-103.974C4036.06,-96.2092 4040.29,-86.7732 4044.49,-77.4049"/>
<polygon fill="black" stroke="black" points="4047.75,-78.6805 4048.65,-68.1236 4041.37,-75.817 4047.75,-78.6805"/>
</g>
<!-- 60 -->
<g id="node61" class="node"><title>60</title>
<path fill="#f6d3ff" stroke="black" d="M4314,-68C4314,-68 4175,-68 4175,-68 4169,-68 4163,-62 4163,-56 4163,-56 4163,-12 4163,-12 4163,-6 4169,-0 4175,-0 4175,-0 4314,-0 4314,-0 4320,-0 4326,-6 4326,-12 4326,-12 4326,-56 4326,-56 4326,-62 4320,-68 4314,-68"/>
<text text-anchor="middle" x="4244.5" y="-52.8" font-family="Times,serif" font-size="14.00">forward</text>
<text text-anchor="middle" x="4244.5" y="-37.8" font-family="Times,serif" font-size="14.00">DB1/C1</text>
<text text-anchor="middle" x="4244.5" y="-22.8" font-family="Times,serif" font-size="14.00">dilation rate: 1 &#160;&#160;k width: 3</text>
<text text-anchor="middle" x="4244.5" y="-7.8" font-family="Times,serif" font-size="14.00">n kernels: 64</text>
</g>
<!-- 32&#45;&gt;60 -->
<g id="edge60" class="edge"><title>32&#45;&gt;60</title>
<path fill="none" stroke="black" d="M4213.58,-103.974C4217.06,-96.2092 4221.29,-86.7732 4225.49,-77.4049"/>
<polygon fill="black" stroke="black" points="4228.75,-78.6805 4229.65,-68.1236 4222.37,-75.817 4228.75,-78.6805"/>
</g>
<!-- 61 -->
<g id="node62" class="node"><title>61</title>
<path fill="#f6d3ff" stroke="black" d="M4495,-68C4495,-68 4356,-68 4356,-68 4350,-68 4344,-62 4344,-56 4344,-56 4344,-12 4344,-12 4344,-6 4350,-0 4356,-0 4356,-0 4495,-0 4495,-0 4501,-0 4507,-6 4507,-12 4507,-12 4507,-56 4507,-56 4507,-62 4501,-68 4495,-68"/>
<text text-anchor="middle" x="4425.5" y="-52.8" font-family="Times,serif" font-size="14.00">forward</text>
<text text-anchor="middle" x="4425.5" y="-37.8" font-family="Times,serif" font-size="14.00">DB1/C2</text>
<text text-anchor="middle" x="4425.5" y="-22.8" font-family="Times,serif" font-size="14.00">dilation rate: 1 &#160;&#160;k width: 3</text>
<text text-anchor="middle" x="4425.5" y="-7.8" font-family="Times,serif" font-size="14.00">n kernels: 64</text>
</g>
<!-- 33&#45;&gt;61 -->
<g id="edge61" class="edge"><title>33&#45;&gt;61</title>
<path fill="none" stroke="black" d="M4577.42,-108.022C4557.4,-98.3973 4529.78,-85.122 4503.57,-72.5274"/>
<polygon fill="black" stroke="black" points="4504.91,-69.2858 4494.38,-68.1081 4501.88,-75.5949 4504.91,-69.2858"/>
</g>
<!-- 62 -->
<g id="node63" class="node"><title>62</title>
<path fill="#debfe6" stroke="black" d="M4676,-68C4676,-68 4537,-68 4537,-68 4531,-68 4525,-62 4525,-56 4525,-56 4525,-12 4525,-12 4525,-6 4531,-0 4537,-0 4537,-0 4676,-0 4676,-0 4682,-0 4688,-6 4688,-12 4688,-12 4688,-56 4688,-56 4688,-62 4682,-68 4676,-68"/>
<text text-anchor="middle" x="4606.5" y="-52.8" font-family="Times,serif" font-size="14.00">merge</text>
<text text-anchor="middle" x="4606.5" y="-37.8" font-family="Times,serif" font-size="14.00">EB0/C3</text>
<text text-anchor="middle" x="4606.5" y="-22.8" font-family="Times,serif" font-size="14.00">dilation rate: 1 &#160;&#160;k width: 3</text>
<text text-anchor="middle" x="4606.5" y="-7.8" font-family="Times,serif" font-size="14.00">n kernels: 64</text>
</g>
<!-- 33&#45;&gt;62 -->
<g id="edge62" class="edge"><title>33&#45;&gt;62</title>
<path fill="none" stroke="black" d="M4606.5,-104.812C4606.5,-97.1019 4606.5,-87.6259 4606.5,-78.1706"/>
<polygon fill="black" stroke="black" points="4610,-78.0034 4606.5,-68.0034 4603,-78.0034 4610,-78.0034"/>
</g>
<!-- 63 -->
<g id="node64" class="node"><title>63</title>
<path fill="#f6d3ff" stroke="black" d="M4857,-68C4857,-68 4718,-68 4718,-68 4712,-68 4706,-62 4706,-56 4706,-56 4706,-12 4706,-12 4706,-6 4712,-0 4718,-0 4718,-0 4857,-0 4857,-0 4863,-0 4869,-6 4869,-12 4869,-12 4869,-56 4869,-56 4869,-62 4863,-68 4857,-68"/>
<text text-anchor="middle" x="4787.5" y="-52.8" font-family="Times,serif" font-size="14.00">forward</text>
<text text-anchor="middle" x="4787.5" y="-37.8" font-family="Times,serif" font-size="14.00">DB0/C0</text>
<text text-anchor="middle" x="4787.5" y="-22.8" font-family="Times,serif" font-size="14.00">dilation rate: 1 &#160;&#160;k width: 3</text>
<text text-anchor="middle" x="4787.5" y="-7.8" font-family="Times,serif" font-size="14.00">n kernels: 64</text>
</g>
<!-- 34&#45;&gt;63 -->
<g id="edge63" class="edge"><title>34&#45;&gt;63</title>
<path fill="none" stroke="black" d="M4787.5,-104.812C4787.5,-97.1019 4787.5,-87.6259 4787.5,-78.1706"/>
<polygon fill="black" stroke="black" points="4791,-78.0034 4787.5,-68.0034 4784,-78.0034 4791,-78.0034"/>
</g>
<!-- 64 -->
<g id="node65" class="node"><title>64</title>
<path fill="#f6d3ff" stroke="black" d="M5038,-68C5038,-68 4899,-68 4899,-68 4893,-68 4887,-62 4887,-56 4887,-56 4887,-12 4887,-12 4887,-6 4893,-0 4899,-0 4899,-0 5038,-0 5038,-0 5044,-0 5050,-6 5050,-12 5050,-12 5050,-56 5050,-56 5050,-62 5044,-68 5038,-68"/>
<text text-anchor="middle" x="4968.5" y="-52.8" font-family="Times,serif" font-size="14.00">forward</text>
<text text-anchor="middle" x="4968.5" y="-37.8" font-family="Times,serif" font-size="14.00">DB0/C1</text>
<text text-anchor="middle" x="4968.5" y="-22.8" font-family="Times,serif" font-size="14.00">dilation rate: 1 &#160;&#160;k width: 3</text>
<text text-anchor="middle" x="4968.5" y="-7.8" font-family="Times,serif" font-size="14.00">n kernels: 64</text>
</g>
<!-- 35&#45;&gt;64 -->
<g id="edge64" class="edge"><title>35&#45;&gt;64</title>
<path fill="none" stroke="black" d="M4925.97,-104.812C4930.92,-96.6918 4937.06,-86.6128 4943.12,-76.6623"/>
<polygon fill="black" stroke="black" points="4946.18,-78.3644 4948.39,-68.0034 4940.2,-74.7226 4946.18,-78.3644"/>
</g>
<!-- 65 -->
<g id="node66" class="node"><title>65</title>
<path fill="#f6d3ff" stroke="black" d="M5219,-68C5219,-68 5080,-68 5080,-68 5074,-68 5068,-62 5068,-56 5068,-56 5068,-12 5068,-12 5068,-6 5074,-0 5080,-0 5080,-0 5219,-0 5219,-0 5225,-0 5231,-6 5231,-12 5231,-12 5231,-56 5231,-56 5231,-62 5225,-68 5219,-68"/>
<text text-anchor="middle" x="5149.5" y="-52.8" font-family="Times,serif" font-size="14.00">forward</text>
<text text-anchor="middle" x="5149.5" y="-37.8" font-family="Times,serif" font-size="14.00">DB0/C2</text>
<text text-anchor="middle" x="5149.5" y="-22.8" font-family="Times,serif" font-size="14.00">dilation rate: 1 &#160;&#160;k width: 3</text>
<text text-anchor="middle" x="5149.5" y="-7.8" font-family="Times,serif" font-size="14.00">n kernels: 64</text>
</g>
<!-- 36&#45;&gt;65 -->
<g id="edge65" class="edge"><title>36&#45;&gt;65</title>
<path fill="none" stroke="black" d="M5106.97,-104.812C5111.92,-96.6918 5118.06,-86.6128 5124.12,-76.6623"/>
<polygon fill="black" stroke="black" points="5127.18,-78.3644 5129.39,-68.0034 5121.2,-74.7226 5127.18,-78.3644"/>
</g>
</g>
</svg>
