<?xml version="1.0" encoding="UTF-8" standalone="no"?>
<!DOCTYPE svg PUBLIC "-//W3C//DTD SVG 1.1//EN"
 "http://www.w3.org/Graphics/SVG/1.1/DTD/svg11.dtd">
<!-- Generated by graphviz version 2.38.0 (20140413.2041)
 -->
<!-- Title: %3 Pages: 1 -->
<svg width="4227pt" height="418pt"
 viewBox="0.00 0.00 4227.00 418.00" xmlns="http://www.w3.org/2000/svg" xmlns:xlink="http://www.w3.org/1999/xlink">
<g id="graph0" class="graph" transform="scale(1 1) rotate(0) translate(4 414)">
<title>%3</title>
<polygon fill="none" stroke="none" points="-4,4 -4,-414 4223,-414 4223,4 -4,4"/>
<!-- 0 -->
<g id="node1" class="node"><title>0</title>
<path fill="#ffd3d3" stroke="black" d="M3122,-410C3122,-410 2931,-410 2931,-410 2925,-410 2919,-404 2919,-398 2919,-398 2919,-369 2919,-369 2919,-363 2925,-357 2931,-357 2931,-357 3122,-357 3122,-357 3128,-357 3134,-363 3134,-369 3134,-369 3134,-398 3134,-398 3134,-404 3128,-410 3122,-410"/>
<text text-anchor="middle" x="3026.5" y="-394.8" font-family="Times,serif" font-size="14.00">net</text>
<text text-anchor="middle" x="3026.5" y="-379.8" font-family="Times,serif" font-size="14.00">k width: 3 &#160;&#160;log gamma2: &#45;9.708218</text>
<text text-anchor="middle" x="3026.5" y="-364.8" font-family="Times,serif" font-size="14.00">n kernels: 107</text>
</g>
<!-- 1 -->
<g id="node2" class="node"><title>1</title>
<path fill="#e9ffd3" stroke="black" d="M1253,-313.5C1253,-313.5 990,-313.5 990,-313.5 984,-313.5 978,-307.5 978,-301.5 978,-301.5 978,-287.5 978,-287.5 978,-281.5 984,-275.5 990,-275.5 990,-275.5 1253,-275.5 1253,-275.5 1259,-275.5 1265,-281.5 1265,-287.5 1265,-287.5 1265,-301.5 1265,-301.5 1265,-307.5 1259,-313.5 1253,-313.5"/>
<text text-anchor="middle" x="1121.5" y="-298.3" font-family="Times,serif" font-size="14.00">conv block 0</text>
<text text-anchor="middle" x="1121.5" y="-283.3" font-family="Times,serif" font-size="14.00">log gamma1: &#45;0.929123 &#160;&#160;log gamma2: 0.539951</text>
</g>
<!-- 0&#45;&gt;1 -->
<g id="edge1" class="edge"><title>0&#45;&gt;1</title>
<path fill="none" stroke="black" d="M2918.97,-377.589C2598.46,-362.952 1648.83,-319.583 1275.09,-302.514"/>
<polygon fill="black" stroke="black" points="1275.17,-299.014 1265.02,-302.054 1274.85,-306.007 1275.17,-299.014"/>
</g>
<!-- 2 -->
<g id="node3" class="node"><title>2</title>
<path fill="#e9ffd3" stroke="black" d="M3131,-321C3131,-321 2922,-321 2922,-321 2916,-321 2910,-315 2910,-309 2910,-309 2910,-280 2910,-280 2910,-274 2916,-268 2922,-268 2922,-268 3131,-268 3131,-268 3137,-268 3143,-274 3143,-280 3143,-280 3143,-309 3143,-309 3143,-315 3137,-321 3131,-321"/>
<text text-anchor="middle" x="3026.5" y="-305.8" font-family="Times,serif" font-size="14.00">conv block 1</text>
<text text-anchor="middle" x="3026.5" y="-290.8" font-family="Times,serif" font-size="14.00">log gamma1: 1.576152 &#160;&#160;n kernels: 107</text>
<text text-anchor="middle" x="3026.5" y="-275.8" font-family="Times,serif" font-size="14.00">pool z: 1 &#160;&#160;spatial scale: 1</text>
</g>
<!-- 0&#45;&gt;2 -->
<g id="edge2" class="edge"><title>0&#45;&gt;2</title>
<path fill="none" stroke="black" d="M3026.5,-356.868C3026.5,-348.886 3026.5,-339.932 3026.5,-331.384"/>
<polygon fill="black" stroke="black" points="3030,-331.25 3026.5,-321.25 3023,-331.25 3030,-331.25"/>
</g>
<!-- 3 -->
<g id="node4" class="node"><title>3</title>
<path fill="#e9ffd3" stroke="black" d="M3777,-312.5C3777,-312.5 3710,-312.5 3710,-312.5 3704,-312.5 3698,-306.5 3698,-300.5 3698,-300.5 3698,-288.5 3698,-288.5 3698,-282.5 3704,-276.5 3710,-276.5 3710,-276.5 3777,-276.5 3777,-276.5 3783,-276.5 3789,-282.5 3789,-288.5 3789,-288.5 3789,-300.5 3789,-300.5 3789,-306.5 3783,-312.5 3777,-312.5"/>
<text text-anchor="middle" x="3743.5" y="-290.8" font-family="Times,serif" font-size="14.00">path combine</text>
</g>
<!-- 0&#45;&gt;3 -->
<g id="edge3" class="edge"><title>0&#45;&gt;3</title>
<path fill="none" stroke="black" d="M3134.23,-369.428C3289.03,-350.645 3568.79,-316.699 3687.65,-302.277"/>
<polygon fill="black" stroke="black" points="3688.12,-305.745 3697.63,-301.066 3687.28,-298.796 3688.12,-305.745"/>
</g>
<!-- 4 -->
<g id="node5" class="node"><title>4</title>
<path fill="#d3ffff" stroke="black" d="M299.5,-209.5C299.5,-209.5 31.5,-209.5 31.5,-209.5 25.5,-209.5 19.5,-203.5 19.5,-197.5 19.5,-197.5 19.5,-168.5 19.5,-168.5 19.5,-162.5 25.5,-156.5 31.5,-156.5 31.5,-156.5 299.5,-156.5 299.5,-156.5 305.5,-156.5 311.5,-162.5 311.5,-168.5 311.5,-168.5 311.5,-197.5 311.5,-197.5 311.5,-203.5 305.5,-209.5 299.5,-209.5"/>
<text text-anchor="middle" x="165.5" y="-194.3" font-family="Times,serif" font-size="14.00">comp 0</text>
<text text-anchor="middle" x="165.5" y="-179.3" font-family="Times,serif" font-size="14.00">log gamma1: &#45;1.505995 &#160;&#160;log gamma2: &#45;0.831732</text>
<text text-anchor="middle" x="165.5" y="-164.3" font-family="Times,serif" font-size="14.00">n kernels: 3</text>
</g>
<!-- 1&#45;&gt;4 -->
<g id="edge4" class="edge"><title>1&#45;&gt;4</title>
<path fill="none" stroke="black" d="M977.687,-290.905C818.874,-286.043 556.166,-272.08 333.5,-232 306.763,-227.187 278.172,-219.867 252.297,-212.384"/>
<polygon fill="black" stroke="black" points="253.104,-208.973 242.523,-209.512 251.131,-215.689 253.104,-208.973"/>
</g>
<!-- 5 -->
<g id="node6" class="node"><title>5</title>
<path fill="#bfe6e6" stroke="black" d="M618,-209.5C618,-209.5 355,-209.5 355,-209.5 349,-209.5 343,-203.5 343,-197.5 343,-197.5 343,-168.5 343,-168.5 343,-162.5 349,-156.5 355,-156.5 355,-156.5 618,-156.5 618,-156.5 624,-156.5 630,-162.5 630,-168.5 630,-168.5 630,-197.5 630,-197.5 630,-203.5 624,-209.5 618,-209.5"/>
<text text-anchor="middle" x="486.5" y="-194.3" font-family="Times,serif" font-size="14.00">comp 1</text>
<text text-anchor="middle" x="486.5" y="-179.3" font-family="Times,serif" font-size="14.00">log gamma1: &#45;0.703016 &#160;&#160;log gamma2: 0.764805</text>
<text text-anchor="middle" x="486.5" y="-164.3" font-family="Times,serif" font-size="14.00">n kernels: 11</text>
</g>
<!-- 1&#45;&gt;5 -->
<g id="edge5" class="edge"><title>1&#45;&gt;5</title>
<path fill="none" stroke="black" d="M977.793,-280.571C884.005,-270.703 759.243,-254.869 650.5,-232 625.511,-226.745 598.786,-219.597 574.318,-212.424"/>
<polygon fill="black" stroke="black" points="575.285,-209.06 564.702,-209.57 573.293,-215.77 575.285,-209.06"/>
</g>
<!-- 6 -->
<g id="node7" class="node"><title>6</title>
<path fill="#abcece" stroke="black" d="M939.5,-209.5C939.5,-209.5 671.5,-209.5 671.5,-209.5 665.5,-209.5 659.5,-203.5 659.5,-197.5 659.5,-197.5 659.5,-168.5 659.5,-168.5 659.5,-162.5 665.5,-156.5 671.5,-156.5 671.5,-156.5 939.5,-156.5 939.5,-156.5 945.5,-156.5 951.5,-162.5 951.5,-168.5 951.5,-168.5 951.5,-197.5 951.5,-197.5 951.5,-203.5 945.5,-209.5 939.5,-209.5"/>
<text text-anchor="middle" x="805.5" y="-194.3" font-family="Times,serif" font-size="14.00">comp 2</text>
<text text-anchor="middle" x="805.5" y="-179.3" font-family="Times,serif" font-size="14.00">log gamma1: &#45;0.243279 &#160;&#160;log gamma2: &#45;0.831732</text>
<text text-anchor="middle" x="805.5" y="-164.3" font-family="Times,serif" font-size="14.00">n kernels: 19</text>
</g>
<!-- 1&#45;&gt;6 -->
<g id="edge6" class="edge"><title>1&#45;&gt;6</title>
<path fill="none" stroke="black" d="M1069.32,-275.418C1020.35,-258.45 946.286,-232.785 889.085,-212.964"/>
<polygon fill="black" stroke="black" points="889.93,-209.553 879.336,-209.585 887.638,-216.167 889.93,-209.553"/>
</g>
<!-- 7 -->
<g id="node8" class="node"><title>7</title>
<path fill="#97b6b6" stroke="black" d="M1253,-202C1253,-202 990,-202 990,-202 984,-202 978,-196 978,-190 978,-190 978,-176 978,-176 978,-170 984,-164 990,-164 990,-164 1253,-164 1253,-164 1259,-164 1265,-170 1265,-176 1265,-176 1265,-190 1265,-190 1265,-196 1259,-202 1253,-202"/>
<text text-anchor="middle" x="1121.5" y="-186.8" font-family="Times,serif" font-size="14.00">comp 3</text>
<text text-anchor="middle" x="1121.5" y="-171.8" font-family="Times,serif" font-size="14.00">log gamma1: 0.768040 &#160;&#160;log gamma2: &#45;0.831732</text>
</g>
<!-- 1&#45;&gt;7 -->
<g id="edge7" class="edge"><title>1&#45;&gt;7</title>
<path fill="none" stroke="black" d="M1121.5,-275.418C1121.5,-258.221 1121.5,-232.089 1121.5,-212.163"/>
<polygon fill="black" stroke="black" points="1125,-212.109 1121.5,-202.109 1118,-212.109 1125,-212.109"/>
</g>
<!-- 8 -->
<g id="node9" class="node"><title>8</title>
<path fill="#839e9e" stroke="black" d="M1421.5,-202C1421.5,-202 1353.5,-202 1353.5,-202 1347.5,-202 1341.5,-196 1341.5,-190 1341.5,-190 1341.5,-176 1341.5,-176 1341.5,-170 1347.5,-164 1353.5,-164 1353.5,-164 1421.5,-164 1421.5,-164 1427.5,-164 1433.5,-170 1433.5,-176 1433.5,-176 1433.5,-190 1433.5,-190 1433.5,-196 1427.5,-202 1421.5,-202"/>
<text text-anchor="middle" x="1387.5" y="-186.8" font-family="Times,serif" font-size="14.00">comp 4</text>
<text text-anchor="middle" x="1387.5" y="-171.8" font-family="Times,serif" font-size="14.00">n kernels: &#45;12</text>
</g>
<!-- 1&#45;&gt;8 -->
<g id="edge8" class="edge"><title>1&#45;&gt;8</title>
<path fill="none" stroke="black" d="M1166.79,-275.367C1197.05,-263.206 1237.71,-246.773 1273.5,-232 1293.88,-223.585 1316.26,-214.197 1335.75,-205.971"/>
<polygon fill="black" stroke="black" points="1337.21,-209.152 1345.06,-202.035 1334.49,-202.704 1337.21,-209.152"/>
</g>
<!-- 9 -->
<g id="node10" class="node"><title>9</title>
<path fill="#6f8585" stroke="black" d="M1762,-202C1762,-202 1567,-202 1567,-202 1561,-202 1555,-196 1555,-190 1555,-190 1555,-176 1555,-176 1555,-170 1561,-164 1567,-164 1567,-164 1762,-164 1762,-164 1768,-164 1774,-170 1774,-176 1774,-176 1774,-190 1774,-190 1774,-196 1768,-202 1762,-202"/>
<text text-anchor="middle" x="1664.5" y="-186.8" font-family="Times,serif" font-size="14.00">comp 5</text>
<text text-anchor="middle" x="1664.5" y="-171.8" font-family="Times,serif" font-size="14.00">log gamma2: 0.940932 &#160;&#160;n kernels: 9</text>
</g>
<!-- 1&#45;&gt;9 -->
<g id="edge9" class="edge"><title>1&#45;&gt;9</title>
<path fill="none" stroke="black" d="M1218.9,-275.459C1282.59,-263.508 1367.58,-247.274 1442.5,-232 1485.6,-223.213 1533.29,-212.971 1573.38,-204.209"/>
<polygon fill="black" stroke="black" points="1574.39,-207.572 1583.41,-202.015 1572.89,-200.734 1574.39,-207.572"/>
</g>
<!-- 10 -->
<g id="node11" class="node"><title>10</title>
<path fill="#d3ffff" stroke="black" d="M2303,-202C2303,-202 2092,-202 2092,-202 2086,-202 2080,-196 2080,-190 2080,-190 2080,-176 2080,-176 2080,-170 2086,-164 2092,-164 2092,-164 2303,-164 2303,-164 2309,-164 2315,-170 2315,-176 2315,-176 2315,-190 2315,-190 2315,-196 2309,-202 2303,-202"/>
<text text-anchor="middle" x="2197.5" y="-186.8" font-family="Times,serif" font-size="14.00">comp 0</text>
<text text-anchor="middle" x="2197.5" y="-171.8" font-family="Times,serif" font-size="14.00">log gamma2: &#45;0.291782 &#160;&#160;n kernels: &#45;86</text>
</g>
<!-- 2&#45;&gt;10 -->
<g id="edge10" class="edge"><title>2&#45;&gt;10</title>
<path fill="none" stroke="black" d="M2909.97,-284.842C2789.89,-275.123 2597.49,-257.328 2432.5,-232 2383.71,-224.51 2329.72,-213.666 2285.81,-204.178"/>
<polygon fill="black" stroke="black" points="2286.54,-200.756 2276.02,-202.051 2285.05,-207.596 2286.54,-200.756"/>
</g>
<!-- 11 -->
<g id="node12" class="node"><title>11</title>
<path fill="#bfe6e6" stroke="black" d="M2521.5,-202C2521.5,-202 2453.5,-202 2453.5,-202 2447.5,-202 2441.5,-196 2441.5,-190 2441.5,-190 2441.5,-176 2441.5,-176 2441.5,-170 2447.5,-164 2453.5,-164 2453.5,-164 2521.5,-164 2521.5,-164 2527.5,-164 2533.5,-170 2533.5,-176 2533.5,-176 2533.5,-190 2533.5,-190 2533.5,-196 2527.5,-202 2521.5,-202"/>
<text text-anchor="middle" x="2487.5" y="-186.8" font-family="Times,serif" font-size="14.00">comp 1</text>
<text text-anchor="middle" x="2487.5" y="-171.8" font-family="Times,serif" font-size="14.00">n kernels: &#45;86</text>
</g>
<!-- 2&#45;&gt;11 -->
<g id="edge11" class="edge"><title>2&#45;&gt;11</title>
<path fill="none" stroke="black" d="M2909.9,-282.521C2827.14,-273.155 2713.9,-257.135 2616.5,-232 2590.27,-225.23 2561.97,-215.042 2538.58,-205.791"/>
<polygon fill="black" stroke="black" points="2539.79,-202.507 2529.21,-202.032 2537.18,-209.003 2539.79,-202.507"/>
</g>
<!-- 12 -->
<g id="node13" class="node"><title>12</title>
<path fill="#abcece" stroke="black" d="M2901,-209.5C2901,-209.5 2638,-209.5 2638,-209.5 2632,-209.5 2626,-203.5 2626,-197.5 2626,-197.5 2626,-168.5 2626,-168.5 2626,-162.5 2632,-156.5 2638,-156.5 2638,-156.5 2901,-156.5 2901,-156.5 2907,-156.5 2913,-162.5 2913,-168.5 2913,-168.5 2913,-197.5 2913,-197.5 2913,-203.5 2907,-209.5 2901,-209.5"/>
<text text-anchor="middle" x="2769.5" y="-194.3" font-family="Times,serif" font-size="14.00">comp 2</text>
<text text-anchor="middle" x="2769.5" y="-179.3" font-family="Times,serif" font-size="14.00">log gamma1: &#45;0.989376 &#160;&#160;log gamma2: 0.747067</text>
<text text-anchor="middle" x="2769.5" y="-164.3" font-family="Times,serif" font-size="14.00">n kernels: &#45;86</text>
</g>
<!-- 2&#45;&gt;12 -->
<g id="edge12" class="edge"><title>2&#45;&gt;12</title>
<path fill="none" stroke="black" d="M2966.57,-267.965C2928.4,-251.701 2878.8,-230.571 2838.92,-213.578"/>
<polygon fill="black" stroke="black" points="2840.1,-210.275 2829.53,-209.575 2837.35,-216.715 2840.1,-210.275"/>
</g>
<!-- 13 -->
<g id="node14" class="node"><title>13</title>
<path fill="#97b6b6" stroke="black" d="M3043.5,-201C3043.5,-201 3009.5,-201 3009.5,-201 3003.5,-201 2997.5,-195 2997.5,-189 2997.5,-189 2997.5,-177 2997.5,-177 2997.5,-171 3003.5,-165 3009.5,-165 3009.5,-165 3043.5,-165 3043.5,-165 3049.5,-165 3055.5,-171 3055.5,-177 3055.5,-177 3055.5,-189 3055.5,-189 3055.5,-195 3049.5,-201 3043.5,-201"/>
<text text-anchor="middle" x="3026.5" y="-179.3" font-family="Times,serif" font-size="14.00">comp 3</text>
</g>
<!-- 2&#45;&gt;13 -->
<g id="edge13" class="edge"><title>2&#45;&gt;13</title>
<path fill="none" stroke="black" d="M3026.5,-267.827C3026.5,-250.866 3026.5,-228.661 3026.5,-211.366"/>
<polygon fill="black" stroke="black" points="3030,-211.322 3026.5,-201.322 3023,-211.322 3030,-211.322"/>
</g>
<!-- 14 -->
<g id="node15" class="node"><title>14</title>
<path fill="#839e9e" stroke="black" d="M3210,-202C3210,-202 3085,-202 3085,-202 3079,-202 3073,-196 3073,-190 3073,-190 3073,-176 3073,-176 3073,-170 3079,-164 3085,-164 3085,-164 3210,-164 3210,-164 3216,-164 3222,-170 3222,-176 3222,-176 3222,-190 3222,-190 3222,-196 3216,-202 3210,-202"/>
<text text-anchor="middle" x="3147.5" y="-186.8" font-family="Times,serif" font-size="14.00">comp 4</text>
<text text-anchor="middle" x="3147.5" y="-171.8" font-family="Times,serif" font-size="14.00">log gamma2: &#45;0.291782</text>
</g>
<!-- 2&#45;&gt;14 -->
<g id="edge14" class="edge"><title>2&#45;&gt;14</title>
<path fill="none" stroke="black" d="M3054.87,-267.827C3074.39,-250.16 3100.2,-226.801 3119.62,-209.23"/>
<polygon fill="black" stroke="black" points="3122.18,-211.632 3127.25,-202.327 3117.49,-206.442 3122.18,-211.632"/>
</g>
<!-- 15 -->
<g id="node16" class="node"><title>15</title>
<path fill="#6f8585" stroke="black" d="M3372.5,-202C3372.5,-202 3252.5,-202 3252.5,-202 3246.5,-202 3240.5,-196 3240.5,-190 3240.5,-190 3240.5,-176 3240.5,-176 3240.5,-170 3246.5,-164 3252.5,-164 3252.5,-164 3372.5,-164 3372.5,-164 3378.5,-164 3384.5,-170 3384.5,-176 3384.5,-176 3384.5,-190 3384.5,-190 3384.5,-196 3378.5,-202 3372.5,-202"/>
<text text-anchor="middle" x="3312.5" y="-186.8" font-family="Times,serif" font-size="14.00">comp 5</text>
<text text-anchor="middle" x="3312.5" y="-171.8" font-family="Times,serif" font-size="14.00">log gamma1: 1.260974</text>
</g>
<!-- 2&#45;&gt;15 -->
<g id="edge15" class="edge"><title>2&#45;&gt;15</title>
<path fill="none" stroke="black" d="M3128.33,-267.941C3161.51,-258.264 3198.12,-246.12 3230.5,-232 3246.13,-225.185 3262.5,-216.049 3276.48,-207.576"/>
<polygon fill="black" stroke="black" points="3278.61,-210.37 3285.28,-202.135 3274.93,-204.416 3278.61,-210.37"/>
</g>
<!-- 16 -->
<g id="node17" class="node"><title>16</title>
<path fill="#5b6d6d" stroke="black" d="M3560.5,-202C3560.5,-202 3414.5,-202 3414.5,-202 3408.5,-202 3402.5,-196 3402.5,-190 3402.5,-190 3402.5,-176 3402.5,-176 3402.5,-170 3408.5,-164 3414.5,-164 3414.5,-164 3560.5,-164 3560.5,-164 3566.5,-164 3572.5,-170 3572.5,-176 3572.5,-176 3572.5,-190 3572.5,-190 3572.5,-196 3566.5,-202 3560.5,-202"/>
<text text-anchor="middle" x="3487.5" y="-186.8" font-family="Times,serif" font-size="14.00">path end 1</text>
<text text-anchor="middle" x="3487.5" y="-171.8" font-family="Times,serif" font-size="14.00">k width: &#45;2 &#160;&#160;n kernels: &#45;107</text>
</g>
<!-- 2&#45;&gt;16 -->
<g id="edge16" class="edge"><title>2&#45;&gt;16</title>
<path fill="none" stroke="black" d="M3143.16,-283.168C3216.4,-274.441 3312.07,-258.903 3393.5,-232 3412.58,-225.695 3432.57,-215.981 3449.18,-206.937"/>
<polygon fill="black" stroke="black" points="3451,-209.929 3458.04,-202.007 3447.6,-203.813 3451,-209.929"/>
</g>
<!-- 17 -->
<g id="node18" class="node"><title>17</title>
<path fill="#d3ffff" stroke="black" d="M3884,-232C3884,-232 3603,-232 3603,-232 3597,-232 3591,-226 3591,-220 3591,-220 3591,-146 3591,-146 3591,-140 3597,-134 3603,-134 3603,-134 3884,-134 3884,-134 3890,-134 3896,-140 3896,-146 3896,-146 3896,-220 3896,-220 3896,-226 3890,-232 3884,-232"/>
<text text-anchor="middle" x="3743.5" y="-216.8" font-family="Times,serif" font-size="14.00">forward</text>
<text text-anchor="middle" x="3743.5" y="-201.8" font-family="Times,serif" font-size="14.00">CB0/C5</text>
<text text-anchor="middle" x="3743.5" y="-186.8" font-family="Times,serif" font-size="14.00">dilation rate: 1 &#160;&#160;k width: 3</text>
<text text-anchor="middle" x="3743.5" y="-171.8" font-family="Times,serif" font-size="14.00">log gamma1: &#45;11.000000 &#160;&#160;log gamma2: &#45;11.000000</text>
<text text-anchor="middle" x="3743.5" y="-156.8" font-family="Times,serif" font-size="14.00">log lambda1: &#45;11.000000 &#160;&#160;log lambda2: &#45;11.000000</text>
<text text-anchor="middle" x="3743.5" y="-141.8" font-family="Times,serif" font-size="14.00">n kernels: 64</text>
</g>
<!-- 3&#45;&gt;17 -->
<g id="edge17" class="edge"><title>3&#45;&gt;17</title>
<path fill="none" stroke="black" d="M3743.5,-276.391C3743.5,-266.993 3743.5,-254.728 3743.5,-242.22"/>
<polygon fill="black" stroke="black" points="3747,-242.188 3743.5,-232.188 3740,-242.188 3747,-242.188"/>
</g>
<!-- 18 -->
<g id="node19" class="node"><title>18</title>
<path fill="#bfe6e6" stroke="black" d="M4207,-232C4207,-232 3926,-232 3926,-232 3920,-232 3914,-226 3914,-220 3914,-220 3914,-146 3914,-146 3914,-140 3920,-134 3926,-134 3926,-134 4207,-134 4207,-134 4213,-134 4219,-140 4219,-146 4219,-146 4219,-220 4219,-220 4219,-226 4213,-232 4207,-232"/>
<text text-anchor="middle" x="4066.5" y="-216.8" font-family="Times,serif" font-size="14.00">merge 1</text>
<text text-anchor="middle" x="4066.5" y="-201.8" font-family="Times,serif" font-size="14.00">CB1/PE1</text>
<text text-anchor="middle" x="4066.5" y="-186.8" font-family="Times,serif" font-size="14.00">dilation rate: 1 &#160;&#160;k width: 3</text>
<text text-anchor="middle" x="4066.5" y="-171.8" font-family="Times,serif" font-size="14.00">log gamma1: &#45;11.000000 &#160;&#160;log gamma2: &#45;11.000000</text>
<text text-anchor="middle" x="4066.5" y="-156.8" font-family="Times,serif" font-size="14.00">log lambda1: &#45;11.000000 &#160;&#160;log lambda2: &#45;11.000000</text>
<text text-anchor="middle" x="4066.5" y="-141.8" font-family="Times,serif" font-size="14.00">n kernels: 64</text>
</g>
<!-- 3&#45;&gt;18 -->
<g id="edge18" class="edge"><title>3&#45;&gt;18</title>
<path fill="none" stroke="black" d="M3789.09,-278.044C3822.21,-266.816 3869.08,-250.928 3914.88,-235.402"/>
<polygon fill="black" stroke="black" points="3916.28,-238.621 3924.63,-232.096 3914.03,-231.991 3916.28,-238.621"/>
</g>
<!-- 19 -->
<g id="node20" class="node"><title>19</title>
<path fill="#e9d3ff" stroke="black" d="M293,-98C293,-98 12,-98 12,-98 6,-98 0,-92 0,-86 0,-86 0,-12 0,-12 0,-6 6,-0 12,-0 12,-0 293,-0 293,-0 299,-0 305,-6 305,-12 305,-12 305,-86 305,-86 305,-92 299,-98 293,-98"/>
<text text-anchor="middle" x="152.5" y="-82.8" font-family="Times,serif" font-size="14.00">forward</text>
<text text-anchor="middle" x="152.5" y="-67.8" font-family="Times,serif" font-size="14.00">input</text>
<text text-anchor="middle" x="152.5" y="-52.8" font-family="Times,serif" font-size="14.00">dilation rate: 1 &#160;&#160;k width: 3</text>
<text text-anchor="middle" x="152.5" y="-37.8" font-family="Times,serif" font-size="14.00">log gamma1: &#45;11.000000 &#160;&#160;log gamma2: &#45;11.000000</text>
<text text-anchor="middle" x="152.5" y="-22.8" font-family="Times,serif" font-size="14.00">log lambda1: &#45;11.000000 &#160;&#160;log lambda2: &#45;11.000000</text>
<text text-anchor="middle" x="152.5" y="-7.8" font-family="Times,serif" font-size="14.00">n kernels: 64</text>
</g>
<!-- 4&#45;&gt;19 -->
<g id="edge19" class="edge"><title>4&#45;&gt;19</title>
<path fill="none" stroke="black" d="M162.963,-156.236C161.616,-142.567 159.903,-125.174 158.255,-108.438"/>
<polygon fill="black" stroke="black" points="161.705,-107.751 157.241,-98.1423 154.738,-108.437 161.705,-107.751"/>
</g>
<!-- 20 -->
<g id="node21" class="node"><title>20</title>
<path fill="#e9d3ff" stroke="black" d="M616,-98C616,-98 335,-98 335,-98 329,-98 323,-92 323,-86 323,-86 323,-12 323,-12 323,-6 329,-0 335,-0 335,-0 616,-0 616,-0 622,-0 628,-6 628,-12 628,-12 628,-86 628,-86 628,-92 622,-98 616,-98"/>
<text text-anchor="middle" x="475.5" y="-82.8" font-family="Times,serif" font-size="14.00">forward</text>
<text text-anchor="middle" x="475.5" y="-67.8" font-family="Times,serif" font-size="14.00">CB0/C0</text>
<text text-anchor="middle" x="475.5" y="-52.8" font-family="Times,serif" font-size="14.00">dilation rate: 1 &#160;&#160;k width: 3</text>
<text text-anchor="middle" x="475.5" y="-37.8" font-family="Times,serif" font-size="14.00">log gamma1: &#45;11.000000 &#160;&#160;log gamma2: &#45;11.000000</text>
<text text-anchor="middle" x="475.5" y="-22.8" font-family="Times,serif" font-size="14.00">log lambda1: &#45;11.000000 &#160;&#160;log lambda2: &#45;11.000000</text>
<text text-anchor="middle" x="475.5" y="-7.8" font-family="Times,serif" font-size="14.00">n kernels: 64</text>
</g>
<!-- 5&#45;&gt;20 -->
<g id="edge20" class="edge"><title>5&#45;&gt;20</title>
<path fill="none" stroke="black" d="M484.353,-156.236C483.214,-142.567 481.764,-125.174 480.37,-108.438"/>
<polygon fill="black" stroke="black" points="483.83,-107.817 479.512,-98.1423 476.854,-108.398 483.83,-107.817"/>
</g>
<!-- 21 -->
<g id="node22" class="node"><title>21</title>
<path fill="#e9d3ff" stroke="black" d="M939,-98C939,-98 658,-98 658,-98 652,-98 646,-92 646,-86 646,-86 646,-12 646,-12 646,-6 652,-0 658,-0 658,-0 939,-0 939,-0 945,-0 951,-6 951,-12 951,-12 951,-86 951,-86 951,-92 945,-98 939,-98"/>
<text text-anchor="middle" x="798.5" y="-82.8" font-family="Times,serif" font-size="14.00">forward</text>
<text text-anchor="middle" x="798.5" y="-67.8" font-family="Times,serif" font-size="14.00">CB0/C1</text>
<text text-anchor="middle" x="798.5" y="-52.8" font-family="Times,serif" font-size="14.00">dilation rate: 1 &#160;&#160;k width: 3</text>
<text text-anchor="middle" x="798.5" y="-37.8" font-family="Times,serif" font-size="14.00">log gamma1: &#45;11.000000 &#160;&#160;log gamma2: &#45;11.000000</text>
<text text-anchor="middle" x="798.5" y="-22.8" font-family="Times,serif" font-size="14.00">log lambda1: &#45;11.000000 &#160;&#160;log lambda2: &#45;11.000000</text>
<text text-anchor="middle" x="798.5" y="-7.8" font-family="Times,serif" font-size="14.00">n kernels: 64</text>
</g>
<!-- 6&#45;&gt;21 -->
<g id="edge21" class="edge"><title>6&#45;&gt;21</title>
<path fill="none" stroke="black" d="M804.134,-156.236C803.409,-142.567 802.486,-125.174 801.599,-108.438"/>
<polygon fill="black" stroke="black" points="805.078,-107.943 801.053,-98.1423 798.088,-108.314 805.078,-107.943"/>
</g>
<!-- 22 -->
<g id="node23" class="node"><title>22</title>
<path fill="#e9d3ff" stroke="black" d="M1262,-98C1262,-98 981,-98 981,-98 975,-98 969,-92 969,-86 969,-86 969,-12 969,-12 969,-6 975,-0 981,-0 981,-0 1262,-0 1262,-0 1268,-0 1274,-6 1274,-12 1274,-12 1274,-86 1274,-86 1274,-92 1268,-98 1262,-98"/>
<text text-anchor="middle" x="1121.5" y="-82.8" font-family="Times,serif" font-size="14.00">forward</text>
<text text-anchor="middle" x="1121.5" y="-67.8" font-family="Times,serif" font-size="14.00">CB0/C2</text>
<text text-anchor="middle" x="1121.5" y="-52.8" font-family="Times,serif" font-size="14.00">dilation rate: 1 &#160;&#160;k width: 3</text>
<text text-anchor="middle" x="1121.5" y="-37.8" font-family="Times,serif" font-size="14.00">log gamma1: &#45;11.000000 &#160;&#160;log gamma2: &#45;11.000000</text>
<text text-anchor="middle" x="1121.5" y="-22.8" font-family="Times,serif" font-size="14.00">log lambda1: &#45;11.000000 &#160;&#160;log lambda2: &#45;11.000000</text>
<text text-anchor="middle" x="1121.5" y="-7.8" font-family="Times,serif" font-size="14.00">n kernels: 64</text>
</g>
<!-- 7&#45;&gt;22 -->
<g id="edge22" class="edge"><title>7&#45;&gt;22</title>
<path fill="none" stroke="black" d="M1121.5,-163.923C1121.5,-149.486 1121.5,-128.413 1121.5,-108.306"/>
<polygon fill="black" stroke="black" points="1125,-108.234 1121.5,-98.2336 1118,-108.234 1125,-108.234"/>
</g>
<!-- 23 -->
<g id="node24" class="node"><title>23</title>
<path fill="#e9d3ff" stroke="black" d="M1585,-98C1585,-98 1304,-98 1304,-98 1298,-98 1292,-92 1292,-86 1292,-86 1292,-12 1292,-12 1292,-6 1298,-0 1304,-0 1304,-0 1585,-0 1585,-0 1591,-0 1597,-6 1597,-12 1597,-12 1597,-86 1597,-86 1597,-92 1591,-98 1585,-98"/>
<text text-anchor="middle" x="1444.5" y="-82.8" font-family="Times,serif" font-size="14.00">forward</text>
<text text-anchor="middle" x="1444.5" y="-67.8" font-family="Times,serif" font-size="14.00">CB0/C3</text>
<text text-anchor="middle" x="1444.5" y="-52.8" font-family="Times,serif" font-size="14.00">dilation rate: 1 &#160;&#160;k width: 3</text>
<text text-anchor="middle" x="1444.5" y="-37.8" font-family="Times,serif" font-size="14.00">log gamma1: &#45;11.000000 &#160;&#160;log gamma2: &#45;11.000000</text>
<text text-anchor="middle" x="1444.5" y="-22.8" font-family="Times,serif" font-size="14.00">log lambda1: &#45;11.000000 &#160;&#160;log lambda2: &#45;11.000000</text>
<text text-anchor="middle" x="1444.5" y="-7.8" font-family="Times,serif" font-size="14.00">n kernels: 64</text>
</g>
<!-- 8&#45;&gt;23 -->
<g id="edge23" class="edge"><title>8&#45;&gt;23</title>
<path fill="none" stroke="black" d="M1395.31,-163.923C1401.63,-149.289 1410.89,-127.835 1419.68,-107.48"/>
<polygon fill="black" stroke="black" points="1422.92,-108.802 1423.67,-98.2336 1416.49,-106.027 1422.92,-108.802"/>
</g>
<!-- 24 -->
<g id="node25" class="node"><title>24</title>
<path fill="#e9d3ff" stroke="black" d="M1908,-98C1908,-98 1627,-98 1627,-98 1621,-98 1615,-92 1615,-86 1615,-86 1615,-12 1615,-12 1615,-6 1621,-0 1627,-0 1627,-0 1908,-0 1908,-0 1914,-0 1920,-6 1920,-12 1920,-12 1920,-86 1920,-86 1920,-92 1914,-98 1908,-98"/>
<text text-anchor="middle" x="1767.5" y="-82.8" font-family="Times,serif" font-size="14.00">forward</text>
<text text-anchor="middle" x="1767.5" y="-67.8" font-family="Times,serif" font-size="14.00">CB0/C4</text>
<text text-anchor="middle" x="1767.5" y="-52.8" font-family="Times,serif" font-size="14.00">dilation rate: 1 &#160;&#160;k width: 3</text>
<text text-anchor="middle" x="1767.5" y="-37.8" font-family="Times,serif" font-size="14.00">log gamma1: &#45;11.000000 &#160;&#160;log gamma2: &#45;11.000000</text>
<text text-anchor="middle" x="1767.5" y="-22.8" font-family="Times,serif" font-size="14.00">log lambda1: &#45;11.000000 &#160;&#160;log lambda2: &#45;11.000000</text>
<text text-anchor="middle" x="1767.5" y="-7.8" font-family="Times,serif" font-size="14.00">n kernels: 64</text>
</g>
<!-- 9&#45;&gt;24 -->
<g id="edge24" class="edge"><title>9&#45;&gt;24</title>
<path fill="none" stroke="black" d="M1678.61,-163.923C1690.23,-149.025 1707.37,-127.059 1723.51,-106.381"/>
<polygon fill="black" stroke="black" points="1726.47,-108.271 1729.86,-98.2336 1720.95,-103.964 1726.47,-108.271"/>
</g>
<!-- 25 -->
<g id="node26" class="node"><title>25</title>
<path fill="#e9d3ff" stroke="black" d="M2231,-98C2231,-98 1950,-98 1950,-98 1944,-98 1938,-92 1938,-86 1938,-86 1938,-12 1938,-12 1938,-6 1944,-0 1950,-0 1950,-0 2231,-0 2231,-0 2237,-0 2243,-6 2243,-12 2243,-12 2243,-86 2243,-86 2243,-92 2237,-98 2231,-98"/>
<text text-anchor="middle" x="2090.5" y="-82.8" font-family="Times,serif" font-size="14.00">forward</text>
<text text-anchor="middle" x="2090.5" y="-67.8" font-family="Times,serif" font-size="14.00">input</text>
<text text-anchor="middle" x="2090.5" y="-52.8" font-family="Times,serif" font-size="14.00">dilation rate: 1 &#160;&#160;k width: 3</text>
<text text-anchor="middle" x="2090.5" y="-37.8" font-family="Times,serif" font-size="14.00">log gamma1: &#45;11.000000 &#160;&#160;log gamma2: &#45;11.000000</text>
<text text-anchor="middle" x="2090.5" y="-22.8" font-family="Times,serif" font-size="14.00">log lambda1: &#45;11.000000 &#160;&#160;log lambda2: &#45;11.000000</text>
<text text-anchor="middle" x="2090.5" y="-7.8" font-family="Times,serif" font-size="14.00">n kernels: 64</text>
</g>
<!-- 10&#45;&gt;25 -->
<g id="edge25" class="edge"><title>10&#45;&gt;25</title>
<path fill="none" stroke="black" d="M2182.85,-163.923C2170.72,-148.959 2152.81,-126.865 2135.98,-106.106"/>
<polygon fill="black" stroke="black" points="2138.61,-103.798 2129.6,-98.2336 2133.18,-108.206 2138.61,-103.798"/>
</g>
<!-- 26 -->
<g id="node27" class="node"><title>26</title>
<path fill="#e9d3ff" stroke="black" d="M2554,-98C2554,-98 2273,-98 2273,-98 2267,-98 2261,-92 2261,-86 2261,-86 2261,-12 2261,-12 2261,-6 2267,-0 2273,-0 2273,-0 2554,-0 2554,-0 2560,-0 2566,-6 2566,-12 2566,-12 2566,-86 2566,-86 2566,-92 2560,-98 2554,-98"/>
<text text-anchor="middle" x="2413.5" y="-82.8" font-family="Times,serif" font-size="14.00">forward</text>
<text text-anchor="middle" x="2413.5" y="-67.8" font-family="Times,serif" font-size="14.00">CB1/C0</text>
<text text-anchor="middle" x="2413.5" y="-52.8" font-family="Times,serif" font-size="14.00">dilation rate: 1 &#160;&#160;k width: 3</text>
<text text-anchor="middle" x="2413.5" y="-37.8" font-family="Times,serif" font-size="14.00">log gamma1: &#45;11.000000 &#160;&#160;log gamma2: &#45;11.000000</text>
<text text-anchor="middle" x="2413.5" y="-22.8" font-family="Times,serif" font-size="14.00">log lambda1: &#45;11.000000 &#160;&#160;log lambda2: &#45;11.000000</text>
<text text-anchor="middle" x="2413.5" y="-7.8" font-family="Times,serif" font-size="14.00">n kernels: 64</text>
</g>
<!-- 11&#45;&gt;26 -->
<g id="edge26" class="edge"><title>11&#45;&gt;26</title>
<path fill="none" stroke="black" d="M2477.37,-163.923C2469.12,-149.223 2457.03,-127.641 2445.57,-107.205"/>
<polygon fill="black" stroke="black" points="2448.48,-105.245 2440.54,-98.2336 2442.38,-108.668 2448.48,-105.245"/>
</g>
<!-- 27 -->
<g id="node28" class="node"><title>27</title>
<path fill="#e9d3ff" stroke="black" d="M2877,-98C2877,-98 2596,-98 2596,-98 2590,-98 2584,-92 2584,-86 2584,-86 2584,-12 2584,-12 2584,-6 2590,-0 2596,-0 2596,-0 2877,-0 2877,-0 2883,-0 2889,-6 2889,-12 2889,-12 2889,-86 2889,-86 2889,-92 2883,-98 2877,-98"/>
<text text-anchor="middle" x="2736.5" y="-82.8" font-family="Times,serif" font-size="14.00">forward</text>
<text text-anchor="middle" x="2736.5" y="-67.8" font-family="Times,serif" font-size="14.00">CB1/C1</text>
<text text-anchor="middle" x="2736.5" y="-52.8" font-family="Times,serif" font-size="14.00">dilation rate: 1 &#160;&#160;k width: 3</text>
<text text-anchor="middle" x="2736.5" y="-37.8" font-family="Times,serif" font-size="14.00">log gamma1: &#45;11.000000 &#160;&#160;log gamma2: &#45;11.000000</text>
<text text-anchor="middle" x="2736.5" y="-22.8" font-family="Times,serif" font-size="14.00">log lambda1: &#45;11.000000 &#160;&#160;log lambda2: &#45;11.000000</text>
<text text-anchor="middle" x="2736.5" y="-7.8" font-family="Times,serif" font-size="14.00">n kernels: 64</text>
</g>
<!-- 12&#45;&gt;27 -->
<g id="edge27" class="edge"><title>12&#45;&gt;27</title>
<path fill="none" stroke="black" d="M2763.06,-156.236C2759.61,-142.438 2755.21,-124.845 2750.99,-107.965"/>
<polygon fill="black" stroke="black" points="2754.36,-106.995 2748.54,-98.1423 2747.57,-108.693 2754.36,-106.995"/>
</g>
<!-- 28 -->
<g id="node29" class="node"><title>28</title>
<path fill="#e9d3ff" stroke="black" d="M3200,-98C3200,-98 2919,-98 2919,-98 2913,-98 2907,-92 2907,-86 2907,-86 2907,-12 2907,-12 2907,-6 2913,-0 2919,-0 2919,-0 3200,-0 3200,-0 3206,-0 3212,-6 3212,-12 3212,-12 3212,-86 3212,-86 3212,-92 3206,-98 3200,-98"/>
<text text-anchor="middle" x="3059.5" y="-82.8" font-family="Times,serif" font-size="14.00">forward</text>
<text text-anchor="middle" x="3059.5" y="-67.8" font-family="Times,serif" font-size="14.00">CB1/C2</text>
<text text-anchor="middle" x="3059.5" y="-52.8" font-family="Times,serif" font-size="14.00">dilation rate: 1 &#160;&#160;k width: 3</text>
<text text-anchor="middle" x="3059.5" y="-37.8" font-family="Times,serif" font-size="14.00">log gamma1: &#45;11.000000 &#160;&#160;log gamma2: &#45;11.000000</text>
<text text-anchor="middle" x="3059.5" y="-22.8" font-family="Times,serif" font-size="14.00">log lambda1: &#45;11.000000 &#160;&#160;log lambda2: &#45;11.000000</text>
<text text-anchor="middle" x="3059.5" y="-7.8" font-family="Times,serif" font-size="14.00">n kernels: 64</text>
</g>
<!-- 13&#45;&gt;28 -->
<g id="edge28" class="edge"><title>13&#45;&gt;28</title>
<path fill="none" stroke="black" d="M3030.81,-164.743C3034.43,-150.27 3039.82,-128.73 3044.95,-108.21"/>
<polygon fill="black" stroke="black" points="3048.41,-108.804 3047.44,-98.2533 3041.62,-107.106 3048.41,-108.804"/>
</g>
<!-- 29 -->
<g id="node30" class="node"><title>29</title>
<path fill="#e9d3ff" stroke="black" d="M3523,-98C3523,-98 3242,-98 3242,-98 3236,-98 3230,-92 3230,-86 3230,-86 3230,-12 3230,-12 3230,-6 3236,-0 3242,-0 3242,-0 3523,-0 3523,-0 3529,-0 3535,-6 3535,-12 3535,-12 3535,-86 3535,-86 3535,-92 3529,-98 3523,-98"/>
<text text-anchor="middle" x="3382.5" y="-82.8" font-family="Times,serif" font-size="14.00">forward</text>
<text text-anchor="middle" x="3382.5" y="-67.8" font-family="Times,serif" font-size="14.00">CB1/C3</text>
<text text-anchor="middle" x="3382.5" y="-52.8" font-family="Times,serif" font-size="14.00">dilation rate: 1 &#160;&#160;k width: 3</text>
<text text-anchor="middle" x="3382.5" y="-37.8" font-family="Times,serif" font-size="14.00">log gamma1: &#45;11.000000 &#160;&#160;log gamma2: &#45;11.000000</text>
<text text-anchor="middle" x="3382.5" y="-22.8" font-family="Times,serif" font-size="14.00">log lambda1: &#45;11.000000 &#160;&#160;log lambda2: &#45;11.000000</text>
<text text-anchor="middle" x="3382.5" y="-7.8" font-family="Times,serif" font-size="14.00">n kernels: 64</text>
</g>
<!-- 14&#45;&gt;29 -->
<g id="edge29" class="edge"><title>14&#45;&gt;29</title>
<path fill="none" stroke="black" d="M3178.96,-163.907C3194.71,-154.879 3214.09,-143.817 3231.5,-134 3249.35,-123.934 3268.43,-113.258 3286.81,-103.014"/>
<polygon fill="black" stroke="black" points="3288.73,-105.949 3295.77,-98.0252 3285.33,-99.8336 3288.73,-105.949"/>
</g>
<!-- 30 -->
<g id="node31" class="node"><title>30</title>
<path fill="#e9d3ff" stroke="black" d="M3846,-98C3846,-98 3565,-98 3565,-98 3559,-98 3553,-92 3553,-86 3553,-86 3553,-12 3553,-12 3553,-6 3559,-0 3565,-0 3565,-0 3846,-0 3846,-0 3852,-0 3858,-6 3858,-12 3858,-12 3858,-86 3858,-86 3858,-92 3852,-98 3846,-98"/>
<text text-anchor="middle" x="3705.5" y="-82.8" font-family="Times,serif" font-size="14.00">forward</text>
<text text-anchor="middle" x="3705.5" y="-67.8" font-family="Times,serif" font-size="14.00">CB1/C4</text>
<text text-anchor="middle" x="3705.5" y="-52.8" font-family="Times,serif" font-size="14.00">dilation rate: 1 &#160;&#160;k width: 3</text>
<text text-anchor="middle" x="3705.5" y="-37.8" font-family="Times,serif" font-size="14.00">log gamma1: &#45;11.000000 &#160;&#160;log gamma2: &#45;11.000000</text>
<text text-anchor="middle" x="3705.5" y="-22.8" font-family="Times,serif" font-size="14.00">log lambda1: &#45;11.000000 &#160;&#160;log lambda2: &#45;11.000000</text>
<text text-anchor="middle" x="3705.5" y="-7.8" font-family="Times,serif" font-size="14.00">n kernels: 64</text>
</g>
<!-- 15&#45;&gt;30 -->
<g id="edge30" class="edge"><title>15&#45;&gt;30</title>
<path fill="none" stroke="black" d="M3338.46,-163.897C3353.86,-153.863 3374.11,-141.863 3393.5,-134 3454.18,-109.393 3475.37,-115.137 3543.07,-98.0196"/>
<polygon fill="black" stroke="black" points="3544.14,-101.356 3552.94,-95.447 3542.38,-94.5826 3544.14,-101.356"/>
</g>
<!-- 31 -->
<g id="node32" class="node"><title>31</title>
<path fill="#e9d3ff" stroke="black" d="M4169,-98C4169,-98 3888,-98 3888,-98 3882,-98 3876,-92 3876,-86 3876,-86 3876,-12 3876,-12 3876,-6 3882,-0 3888,-0 3888,-0 4169,-0 4169,-0 4175,-0 4181,-6 4181,-12 4181,-12 4181,-86 4181,-86 4181,-92 4175,-98 4169,-98"/>
<text text-anchor="middle" x="4028.5" y="-82.8" font-family="Times,serif" font-size="14.00">forward</text>
<text text-anchor="middle" x="4028.5" y="-67.8" font-family="Times,serif" font-size="14.00">CB1/C5</text>
<text text-anchor="middle" x="4028.5" y="-52.8" font-family="Times,serif" font-size="14.00">dilation rate: 1 &#160;&#160;k width: 3</text>
<text text-anchor="middle" x="4028.5" y="-37.8" font-family="Times,serif" font-size="14.00">log gamma1: &#45;11.000000 &#160;&#160;log gamma2: &#45;11.000000</text>
<text text-anchor="middle" x="4028.5" y="-22.8" font-family="Times,serif" font-size="14.00">log lambda1: &#45;11.000000 &#160;&#160;log lambda2: &#45;11.000000</text>
<text text-anchor="middle" x="4028.5" y="-7.8" font-family="Times,serif" font-size="14.00">n kernels: 64</text>
</g>
<!-- 16&#45;&gt;31 -->
<g id="edge31" class="edge"><title>16&#45;&gt;31</title>
<path fill="none" stroke="black" d="M3516.44,-163.899C3534.48,-153.472 3558.56,-141.068 3581.5,-134 3700.41,-97.3604 3739.56,-122.851 3865.58,-98.061"/>
<polygon fill="black" stroke="black" points="3866.51,-101.444 3875.61,-96.0191 3865.11,-94.5846 3866.51,-101.444"/>
</g>
</g>
</svg>
