<?xml version="1.0" encoding="UTF-8" standalone="no"?>
<!DOCTYPE svg PUBLIC "-//W3C//DTD SVG 1.1//EN"
 "http://www.w3.org/Graphics/SVG/1.1/DTD/svg11.dtd">
<!-- Generated by graphviz version 2.38.0 (20140413.2041)
 -->
<!-- Title: %3 Pages: 1 -->
<svg width="1534pt" height="298pt"
 viewBox="0.00 0.00 1533.50 298.00" xmlns="http://www.w3.org/2000/svg" xmlns:xlink="http://www.w3.org/1999/xlink">
<g id="graph0" class="graph" transform="scale(1 1) rotate(0) translate(4 294)">
<title>%3</title>
<polygon fill="none" stroke="none" points="-4,4 -4,-294 1529.5,-294 1529.5,4 -4,4"/>
<!-- 0 -->
<g id="node1" class="node"><title>0</title>
<path fill="#ffd3d3" stroke="black" d="M836,-290C836,-290 645,-290 645,-290 639,-290 633,-284 633,-278 633,-278 633,-249 633,-249 633,-243 639,-237 645,-237 645,-237 836,-237 836,-237 842,-237 848,-243 848,-249 848,-249 848,-278 848,-278 848,-284 842,-290 836,-290"/>
<text text-anchor="middle" x="740.5" y="-274.8" font-family="Times,serif" font-size="14.00">net_3d</text>
<text text-anchor="middle" x="740.5" y="-259.8" font-family="Times,serif" font-size="14.00">k width: 3 &#160;&#160;log gamma2: &#45;5.000000</text>
<text text-anchor="middle" x="740.5" y="-244.8" font-family="Times,serif" font-size="14.00">n kernels: 24</text>
</g>
<!-- 1 -->
<g id="node2" class="node"><title>1</title>
<path fill="#e9ffd3" stroke="black" d="M218,-192.5C218,-192.5 155,-192.5 155,-192.5 149,-192.5 143,-186.5 143,-180.5 143,-180.5 143,-168.5 143,-168.5 143,-162.5 149,-156.5 155,-156.5 155,-156.5 218,-156.5 218,-156.5 224,-156.5 230,-162.5 230,-168.5 230,-168.5 230,-180.5 230,-180.5 230,-186.5 224,-192.5 218,-192.5"/>
<text text-anchor="middle" x="186.5" y="-170.8" font-family="Times,serif" font-size="14.00">conv block 0</text>
</g>
<!-- 0&#45;&gt;1 -->
<g id="edge1" class="edge"><title>0&#45;&gt;1</title>
<path fill="none" stroke="black" d="M632.697,-245.571C514.793,-227.055 330.596,-198.129 240.204,-183.934"/>
<polygon fill="black" stroke="black" points="240.603,-180.453 230.181,-182.36 239.516,-187.369 240.603,-180.453"/>
</g>
<!-- 2 -->
<g id="node3" class="node"><title>2</title>
<path fill="#e9ffd3" stroke="black" d="M596.5,-201C596.5,-201 474.5,-201 474.5,-201 468.5,-201 462.5,-195 462.5,-189 462.5,-189 462.5,-160 462.5,-160 462.5,-154 468.5,-148 474.5,-148 474.5,-148 596.5,-148 596.5,-148 602.5,-148 608.5,-154 608.5,-160 608.5,-160 608.5,-189 608.5,-189 608.5,-195 602.5,-201 596.5,-201"/>
<text text-anchor="middle" x="535.5" y="-185.8" font-family="Times,serif" font-size="14.00">conv block 1</text>
<text text-anchor="middle" x="535.5" y="-170.8" font-family="Times,serif" font-size="14.00">n kernels: 24 &#160;&#160;pool z: 1</text>
<text text-anchor="middle" x="535.5" y="-155.8" font-family="Times,serif" font-size="14.00">spatial scale: 1</text>
</g>
<!-- 0&#45;&gt;2 -->
<g id="edge2" class="edge"><title>0&#45;&gt;2</title>
<path fill="none" stroke="black" d="M680.378,-236.985C656.703,-226.937 629.365,-215.336 604.86,-204.936"/>
<polygon fill="black" stroke="black" points="606.193,-201.699 595.621,-201.015 603.459,-208.143 606.193,-201.699"/>
</g>
<!-- 3 -->
<g id="node4" class="node"><title>3</title>
<path fill="#e9ffd3" stroke="black" d="M1023,-193.5C1023,-193.5 868,-193.5 868,-193.5 862,-193.5 856,-187.5 856,-181.5 856,-181.5 856,-167.5 856,-167.5 856,-161.5 862,-155.5 868,-155.5 868,-155.5 1023,-155.5 1023,-155.5 1029,-155.5 1035,-161.5 1035,-167.5 1035,-167.5 1035,-181.5 1035,-181.5 1035,-187.5 1029,-193.5 1023,-193.5"/>
<text text-anchor="middle" x="945.5" y="-178.3" font-family="Times,serif" font-size="14.00">conv block 2</text>
<text text-anchor="middle" x="945.5" y="-163.3" font-family="Times,serif" font-size="14.00">n kernels: 72 &#160;&#160;spatial scale: 2</text>
</g>
<!-- 0&#45;&gt;3 -->
<g id="edge3" class="edge"><title>0&#45;&gt;3</title>
<path fill="none" stroke="black" d="M800.622,-236.985C830.13,-224.462 865.325,-209.525 893.637,-197.51"/>
<polygon fill="black" stroke="black" points="895.119,-200.684 902.957,-193.555 892.384,-194.24 895.119,-200.684"/>
</g>
<!-- 4 -->
<g id="node5" class="node"><title>4</title>
<path fill="#e9ffd3" stroke="black" d="M1394,-192.5C1394,-192.5 1327,-192.5 1327,-192.5 1321,-192.5 1315,-186.5 1315,-180.5 1315,-180.5 1315,-168.5 1315,-168.5 1315,-162.5 1321,-156.5 1327,-156.5 1327,-156.5 1394,-156.5 1394,-156.5 1400,-156.5 1406,-162.5 1406,-168.5 1406,-168.5 1406,-180.5 1406,-180.5 1406,-186.5 1400,-192.5 1394,-192.5"/>
<text text-anchor="middle" x="1360.5" y="-170.8" font-family="Times,serif" font-size="14.00">path combine</text>
</g>
<!-- 0&#45;&gt;4 -->
<g id="edge4" class="edge"><title>0&#45;&gt;4</title>
<path fill="none" stroke="black" d="M848.142,-247.395C980.901,-228.766 1201.6,-197.798 1304.49,-183.36"/>
<polygon fill="black" stroke="black" points="1305.25,-186.788 1314.66,-181.932 1304.27,-179.855 1305.25,-186.788"/>
</g>
<!-- 5 -->
<g id="node6" class="node"><title>5</title>
<path fill="#d3ffff" stroke="black" d="M47.5,-111C47.5,-111 13.5,-111 13.5,-111 7.5,-111 1.5,-105 1.5,-99 1.5,-99 1.5,-87 1.5,-87 1.5,-81 7.5,-75 13.5,-75 13.5,-75 47.5,-75 47.5,-75 53.5,-75 59.5,-81 59.5,-87 59.5,-87 59.5,-99 59.5,-99 59.5,-105 53.5,-111 47.5,-111"/>
<text text-anchor="middle" x="30.5" y="-89.3" font-family="Times,serif" font-size="14.00">comp 0</text>
</g>
<!-- 1&#45;&gt;5 -->
<g id="edge5" class="edge"><title>1&#45;&gt;5</title>
<path fill="none" stroke="black" d="M153.034,-156.445C128.316,-143.849 94.6251,-126.679 68.826,-113.532"/>
<polygon fill="black" stroke="black" points="70.2084,-110.308 59.7094,-108.886 67.0299,-116.545 70.2084,-110.308"/>
</g>
<!-- 6 -->
<g id="node7" class="node"><title>6</title>
<path fill="#bfe6e6" stroke="black" d="M125.5,-111C125.5,-111 91.5,-111 91.5,-111 85.5,-111 79.5,-105 79.5,-99 79.5,-99 79.5,-87 79.5,-87 79.5,-81 85.5,-75 91.5,-75 91.5,-75 125.5,-75 125.5,-75 131.5,-75 137.5,-81 137.5,-87 137.5,-87 137.5,-99 137.5,-99 137.5,-105 131.5,-111 125.5,-111"/>
<text text-anchor="middle" x="108.5" y="-89.3" font-family="Times,serif" font-size="14.00">comp 1</text>
</g>
<!-- 1&#45;&gt;6 -->
<g id="edge6" class="edge"><title>1&#45;&gt;6</title>
<path fill="none" stroke="black" d="M169.575,-156.25C158.741,-145.207 144.517,-130.71 132.522,-118.484"/>
<polygon fill="black" stroke="black" points="134.894,-115.904 125.392,-111.217 129.897,-120.806 134.894,-115.904"/>
</g>
<!-- 7 -->
<g id="node8" class="node"><title>7</title>
<path fill="#abcece" stroke="black" d="M203.5,-111C203.5,-111 169.5,-111 169.5,-111 163.5,-111 157.5,-105 157.5,-99 157.5,-99 157.5,-87 157.5,-87 157.5,-81 163.5,-75 169.5,-75 169.5,-75 203.5,-75 203.5,-75 209.5,-75 215.5,-81 215.5,-87 215.5,-87 215.5,-99 215.5,-99 215.5,-105 209.5,-111 203.5,-111"/>
<text text-anchor="middle" x="186.5" y="-89.3" font-family="Times,serif" font-size="14.00">comp 2</text>
</g>
<!-- 1&#45;&gt;7 -->
<g id="edge7" class="edge"><title>1&#45;&gt;7</title>
<path fill="none" stroke="black" d="M186.5,-156.25C186.5,-146.04 186.5,-132.878 186.5,-121.288"/>
<polygon fill="black" stroke="black" points="190,-121.217 186.5,-111.217 183,-121.217 190,-121.217"/>
</g>
<!-- 8 -->
<g id="node9" class="node"><title>8</title>
<path fill="#97b6b6" stroke="black" d="M280.5,-111C280.5,-111 246.5,-111 246.5,-111 240.5,-111 234.5,-105 234.5,-99 234.5,-99 234.5,-87 234.5,-87 234.5,-81 240.5,-75 246.5,-75 246.5,-75 280.5,-75 280.5,-75 286.5,-75 292.5,-81 292.5,-87 292.5,-87 292.5,-99 292.5,-99 292.5,-105 286.5,-111 280.5,-111"/>
<text text-anchor="middle" x="263.5" y="-89.3" font-family="Times,serif" font-size="14.00">comp 3</text>
</g>
<!-- 1&#45;&gt;8 -->
<g id="edge8" class="edge"><title>1&#45;&gt;8</title>
<path fill="none" stroke="black" d="M203.208,-156.25C213.903,-145.207 227.945,-130.71 239.786,-118.484"/>
<polygon fill="black" stroke="black" points="242.382,-120.835 246.825,-111.217 237.353,-115.965 242.382,-120.835"/>
</g>
<!-- 9 -->
<g id="node10" class="node"><title>9</title>
<path fill="#d3ffff" stroke="black" d="M361.5,-111C361.5,-111 327.5,-111 327.5,-111 321.5,-111 315.5,-105 315.5,-99 315.5,-99 315.5,-87 315.5,-87 315.5,-81 321.5,-75 327.5,-75 327.5,-75 361.5,-75 361.5,-75 367.5,-75 373.5,-81 373.5,-87 373.5,-87 373.5,-99 373.5,-99 373.5,-105 367.5,-111 361.5,-111"/>
<text text-anchor="middle" x="344.5" y="-89.3" font-family="Times,serif" font-size="14.00">comp 0</text>
</g>
<!-- 2&#45;&gt;9 -->
<g id="edge9" class="edge"><title>2&#45;&gt;9</title>
<path fill="none" stroke="black" d="M470.498,-147.995C443.468,-137.184 411.846,-124.268 383.5,-112 383.402,-111.957 383.303,-111.915 383.204,-111.872"/>
<polygon fill="black" stroke="black" points="384.38,-108.565 373.82,-107.715 381.545,-114.965 384.38,-108.565"/>
</g>
<!-- 10 -->
<g id="node11" class="node"><title>10</title>
<path fill="#bfe6e6" stroke="black" d="M438.5,-111C438.5,-111 404.5,-111 404.5,-111 398.5,-111 392.5,-105 392.5,-99 392.5,-99 392.5,-87 392.5,-87 392.5,-81 398.5,-75 404.5,-75 404.5,-75 438.5,-75 438.5,-75 444.5,-75 450.5,-81 450.5,-87 450.5,-87 450.5,-99 450.5,-99 450.5,-105 444.5,-111 438.5,-111"/>
<text text-anchor="middle" x="421.5" y="-89.3" font-family="Times,serif" font-size="14.00">comp 1</text>
</g>
<!-- 2&#45;&gt;10 -->
<g id="edge10" class="edge"><title>2&#45;&gt;10</title>
<path fill="none" stroke="black" d="M498.802,-147.908C484.464,-137.909 468.155,-126.536 454.224,-116.821"/>
<polygon fill="black" stroke="black" points="456.101,-113.863 445.897,-111.014 452.097,-119.605 456.101,-113.863"/>
</g>
<!-- 11 -->
<g id="node12" class="node"><title>11</title>
<path fill="#abcece" stroke="black" d="M514.5,-111C514.5,-111 480.5,-111 480.5,-111 474.5,-111 468.5,-105 468.5,-99 468.5,-99 468.5,-87 468.5,-87 468.5,-81 474.5,-75 480.5,-75 480.5,-75 514.5,-75 514.5,-75 520.5,-75 526.5,-81 526.5,-87 526.5,-87 526.5,-99 526.5,-99 526.5,-105 520.5,-111 514.5,-111"/>
<text text-anchor="middle" x="497.5" y="-89.3" font-family="Times,serif" font-size="14.00">comp 2</text>
</g>
<!-- 2&#45;&gt;11 -->
<g id="edge11" class="edge"><title>2&#45;&gt;11</title>
<path fill="none" stroke="black" d="M523.267,-147.908C519.061,-139.108 514.346,-129.243 510.11,-120.381"/>
<polygon fill="black" stroke="black" points="513.219,-118.769 505.748,-111.256 506.903,-121.788 513.219,-118.769"/>
</g>
<!-- 12 -->
<g id="node13" class="node"><title>12</title>
<path fill="#97b6b6" stroke="black" d="M590.5,-111C590.5,-111 556.5,-111 556.5,-111 550.5,-111 544.5,-105 544.5,-99 544.5,-99 544.5,-87 544.5,-87 544.5,-81 550.5,-75 556.5,-75 556.5,-75 590.5,-75 590.5,-75 596.5,-75 602.5,-81 602.5,-87 602.5,-87 602.5,-99 602.5,-99 602.5,-105 596.5,-111 590.5,-111"/>
<text text-anchor="middle" x="573.5" y="-89.3" font-family="Times,serif" font-size="14.00">comp 3</text>
</g>
<!-- 2&#45;&gt;12 -->
<g id="edge12" class="edge"><title>2&#45;&gt;12</title>
<path fill="none" stroke="black" d="M547.733,-147.908C551.939,-139.108 556.654,-129.243 560.89,-120.381"/>
<polygon fill="black" stroke="black" points="564.097,-121.788 565.252,-111.256 557.781,-118.769 564.097,-121.788"/>
</g>
<!-- 13 -->
<g id="node14" class="node"><title>13</title>
<path fill="#839e9e" stroke="black" d="M772,-112C772,-112 633,-112 633,-112 627,-112 621,-106 621,-100 621,-100 621,-86 621,-86 621,-80 627,-74 633,-74 633,-74 772,-74 772,-74 778,-74 784,-80 784,-86 784,-86 784,-100 784,-100 784,-106 778,-112 772,-112"/>
<text text-anchor="middle" x="702.5" y="-96.8" font-family="Times,serif" font-size="14.00">path end 1</text>
<text text-anchor="middle" x="702.5" y="-81.8" font-family="Times,serif" font-size="14.00">k width: &#45;2 &#160;&#160;n kernels: &#45;24</text>
</g>
<!-- 2&#45;&gt;13 -->
<g id="edge13" class="edge"><title>2&#45;&gt;13</title>
<path fill="none" stroke="black" d="M589.259,-147.908C610.51,-137.792 634.716,-126.268 655.279,-116.479"/>
<polygon fill="black" stroke="black" points="656.922,-119.574 664.447,-112.115 653.913,-113.253 656.922,-119.574"/>
</g>
<!-- 14 -->
<g id="node15" class="node"><title>14</title>
<path fill="#d3ffff" stroke="black" d="M848.5,-111C848.5,-111 814.5,-111 814.5,-111 808.5,-111 802.5,-105 802.5,-99 802.5,-99 802.5,-87 802.5,-87 802.5,-81 808.5,-75 814.5,-75 814.5,-75 848.5,-75 848.5,-75 854.5,-75 860.5,-81 860.5,-87 860.5,-87 860.5,-99 860.5,-99 860.5,-105 854.5,-111 848.5,-111"/>
<text text-anchor="middle" x="831.5" y="-89.3" font-family="Times,serif" font-size="14.00">comp 0</text>
</g>
<!-- 3&#45;&gt;14 -->
<g id="edge14" class="edge"><title>3&#45;&gt;14</title>
<path fill="none" stroke="black" d="M919.632,-155.46C903.26,-144.043 881.945,-129.179 864.378,-116.928"/>
<polygon fill="black" stroke="black" points="866.298,-114 856.094,-111.151 862.294,-119.742 866.298,-114"/>
</g>
<!-- 15 -->
<g id="node16" class="node"><title>15</title>
<path fill="#bfe6e6" stroke="black" d="M924.5,-111C924.5,-111 890.5,-111 890.5,-111 884.5,-111 878.5,-105 878.5,-99 878.5,-99 878.5,-87 878.5,-87 878.5,-81 884.5,-75 890.5,-75 890.5,-75 924.5,-75 924.5,-75 930.5,-75 936.5,-81 936.5,-87 936.5,-87 936.5,-99 936.5,-99 936.5,-105 930.5,-111 924.5,-111"/>
<text text-anchor="middle" x="907.5" y="-89.3" font-family="Times,serif" font-size="14.00">comp 1</text>
</g>
<!-- 3&#45;&gt;15 -->
<g id="edge15" class="edge"><title>3&#45;&gt;15</title>
<path fill="none" stroke="black" d="M936.877,-155.46C931.916,-145.081 925.593,-131.853 920.085,-120.33"/>
<polygon fill="black" stroke="black" points="923.168,-118.664 915.698,-111.151 916.853,-121.683 923.168,-118.664"/>
</g>
<!-- 16 -->
<g id="node17" class="node"><title>16</title>
<path fill="#abcece" stroke="black" d="M1000.5,-111C1000.5,-111 966.5,-111 966.5,-111 960.5,-111 954.5,-105 954.5,-99 954.5,-99 954.5,-87 954.5,-87 954.5,-81 960.5,-75 966.5,-75 966.5,-75 1000.5,-75 1000.5,-75 1006.5,-75 1012.5,-81 1012.5,-87 1012.5,-87 1012.5,-99 1012.5,-99 1012.5,-105 1006.5,-111 1000.5,-111"/>
<text text-anchor="middle" x="983.5" y="-89.3" font-family="Times,serif" font-size="14.00">comp 2</text>
</g>
<!-- 3&#45;&gt;16 -->
<g id="edge16" class="edge"><title>3&#45;&gt;16</title>
<path fill="none" stroke="black" d="M954.123,-155.46C959.084,-145.081 965.407,-131.853 970.915,-120.33"/>
<polygon fill="black" stroke="black" points="974.147,-121.683 975.302,-111.151 967.832,-118.664 974.147,-121.683"/>
</g>
<!-- 17 -->
<g id="node18" class="node"><title>17</title>
<path fill="#97b6b6" stroke="black" d="M1076.5,-111C1076.5,-111 1042.5,-111 1042.5,-111 1036.5,-111 1030.5,-105 1030.5,-99 1030.5,-99 1030.5,-87 1030.5,-87 1030.5,-81 1036.5,-75 1042.5,-75 1042.5,-75 1076.5,-75 1076.5,-75 1082.5,-75 1088.5,-81 1088.5,-87 1088.5,-87 1088.5,-99 1088.5,-99 1088.5,-105 1082.5,-111 1076.5,-111"/>
<text text-anchor="middle" x="1059.5" y="-89.3" font-family="Times,serif" font-size="14.00">comp 3</text>
</g>
<!-- 3&#45;&gt;17 -->
<g id="edge17" class="edge"><title>3&#45;&gt;17</title>
<path fill="none" stroke="black" d="M971.368,-155.46C987.74,-144.043 1009.06,-129.179 1026.62,-116.928"/>
<polygon fill="black" stroke="black" points="1028.71,-119.742 1034.91,-111.151 1024.7,-114 1028.71,-119.742"/>
</g>
<!-- 18 -->
<g id="node19" class="node"><title>18</title>
<path fill="#839e9e" stroke="black" d="M1258,-112C1258,-112 1119,-112 1119,-112 1113,-112 1107,-106 1107,-100 1107,-100 1107,-86 1107,-86 1107,-80 1113,-74 1119,-74 1119,-74 1258,-74 1258,-74 1264,-74 1270,-80 1270,-86 1270,-86 1270,-100 1270,-100 1270,-106 1264,-112 1258,-112"/>
<text text-anchor="middle" x="1188.5" y="-96.8" font-family="Times,serif" font-size="14.00">path end 2</text>
<text text-anchor="middle" x="1188.5" y="-81.8" font-family="Times,serif" font-size="14.00">k width: &#45;2 &#160;&#160;n kernels: &#45;72</text>
</g>
<!-- 3&#45;&gt;18 -->
<g id="edge18" class="edge"><title>3&#45;&gt;18</title>
<path fill="none" stroke="black" d="M1000.64,-155.46C1037.17,-143.508 1085.25,-127.779 1123.62,-115.225"/>
<polygon fill="black" stroke="black" points="1124.74,-118.542 1133.16,-112.106 1122.57,-111.889 1124.74,-118.542"/>
</g>
<!-- 19 -->
<g id="node20" class="node"><title>19</title>
<path fill="#d3ffff" stroke="black" d="M1337,-112C1337,-112 1300,-112 1300,-112 1294,-112 1288,-106 1288,-100 1288,-100 1288,-86 1288,-86 1288,-80 1294,-74 1300,-74 1300,-74 1337,-74 1337,-74 1343,-74 1349,-80 1349,-86 1349,-86 1349,-100 1349,-100 1349,-106 1343,-112 1337,-112"/>
<text text-anchor="middle" x="1318.5" y="-96.8" font-family="Times,serif" font-size="14.00">forward</text>
<text text-anchor="middle" x="1318.5" y="-81.8" font-family="Times,serif" font-size="14.00">CB0/C3</text>
</g>
<!-- 4&#45;&gt;19 -->
<g id="edge19" class="edge"><title>4&#45;&gt;19</title>
<path fill="none" stroke="black" d="M1351.39,-156.25C1345.94,-145.944 1338.91,-132.629 1332.74,-120.961"/>
<polygon fill="black" stroke="black" points="1335.8,-119.251 1328.03,-112.044 1329.61,-122.521 1335.8,-119.251"/>
</g>
<!-- 20 -->
<g id="node21" class="node"><title>20</title>
<path fill="#bfe6e6" stroke="black" d="M1425.5,-112C1425.5,-112 1379.5,-112 1379.5,-112 1373.5,-112 1367.5,-106 1367.5,-100 1367.5,-100 1367.5,-86 1367.5,-86 1367.5,-80 1373.5,-74 1379.5,-74 1379.5,-74 1425.5,-74 1425.5,-74 1431.5,-74 1437.5,-80 1437.5,-86 1437.5,-86 1437.5,-100 1437.5,-100 1437.5,-106 1431.5,-112 1425.5,-112"/>
<text text-anchor="middle" x="1402.5" y="-96.8" font-family="Times,serif" font-size="14.00">residual 1</text>
<text text-anchor="middle" x="1402.5" y="-81.8" font-family="Times,serif" font-size="14.00">CB1/PE1</text>
</g>
<!-- 4&#45;&gt;20 -->
<g id="edge20" class="edge"><title>4&#45;&gt;20</title>
<path fill="none" stroke="black" d="M1369.61,-156.25C1375.06,-145.944 1382.09,-132.629 1388.26,-120.961"/>
<polygon fill="black" stroke="black" points="1391.39,-122.521 1392.97,-112.044 1385.2,-119.251 1391.39,-122.521"/>
</g>
<!-- 21 -->
<g id="node22" class="node"><title>21</title>
<path fill="#abcece" stroke="black" d="M1513.5,-112C1513.5,-112 1467.5,-112 1467.5,-112 1461.5,-112 1455.5,-106 1455.5,-100 1455.5,-100 1455.5,-86 1455.5,-86 1455.5,-80 1461.5,-74 1467.5,-74 1467.5,-74 1513.5,-74 1513.5,-74 1519.5,-74 1525.5,-80 1525.5,-86 1525.5,-86 1525.5,-100 1525.5,-100 1525.5,-106 1519.5,-112 1513.5,-112"/>
<text text-anchor="middle" x="1490.5" y="-96.8" font-family="Times,serif" font-size="14.00">residual 2</text>
<text text-anchor="middle" x="1490.5" y="-81.8" font-family="Times,serif" font-size="14.00">CB2/PE2</text>
</g>
<!-- 4&#45;&gt;21 -->
<g id="edge21" class="edge"><title>4&#45;&gt;21</title>
<path fill="none" stroke="black" d="M1388.39,-156.445C1406.98,-145.079 1431.65,-129.989 1452.09,-117.49"/>
<polygon fill="black" stroke="black" points="1454.14,-120.335 1460.85,-112.132 1450.49,-114.364 1454.14,-120.335"/>
</g>
<!-- 22 -->
<g id="node23" class="node"><title>22</title>
<path fill="#e9d3ff" stroke="black" d="M47,-38C47,-38 12,-38 12,-38 6,-38 0,-32 0,-26 0,-26 0,-12 0,-12 0,-6 6,-0 12,-0 12,-0 47,-0 47,-0 53,-0 59,-6 59,-12 59,-12 59,-26 59,-26 59,-32 53,-38 47,-38"/>
<text text-anchor="middle" x="29.5" y="-22.8" font-family="Times,serif" font-size="14.00">forward</text>
<text text-anchor="middle" x="29.5" y="-7.8" font-family="Times,serif" font-size="14.00">input</text>
</g>
<!-- 5&#45;&gt;22 -->
<g id="edge22" class="edge"><title>5&#45;&gt;22</title>
<path fill="none" stroke="black" d="M30.263,-74.937C30.1526,-66.9865 30.0182,-57.3134 29.8932,-48.3127"/>
<polygon fill="black" stroke="black" points="33.3914,-48.1496 29.7528,-38.1992 26.3921,-48.2468 33.3914,-48.1496"/>
</g>
<!-- 23 -->
<g id="node24" class="node"><title>23</title>
<path fill="#e9d3ff" stroke="black" d="M126,-38C126,-38 89,-38 89,-38 83,-38 77,-32 77,-26 77,-26 77,-12 77,-12 77,-6 83,-0 89,-0 89,-0 126,-0 126,-0 132,-0 138,-6 138,-12 138,-12 138,-26 138,-26 138,-32 132,-38 126,-38"/>
<text text-anchor="middle" x="107.5" y="-22.8" font-family="Times,serif" font-size="14.00">forward</text>
<text text-anchor="middle" x="107.5" y="-7.8" font-family="Times,serif" font-size="14.00">CB0/C0</text>
</g>
<!-- 6&#45;&gt;23 -->
<g id="edge23" class="edge"><title>6&#45;&gt;23</title>
<path fill="none" stroke="black" d="M108.263,-74.937C108.153,-66.9865 108.018,-57.3134 107.893,-48.3127"/>
<polygon fill="black" stroke="black" points="111.391,-48.1496 107.753,-38.1992 104.392,-48.2468 111.391,-48.1496"/>
</g>
<!-- 24 -->
<g id="node25" class="node"><title>24</title>
<path fill="#e9d3ff" stroke="black" d="M205,-38C205,-38 168,-38 168,-38 162,-38 156,-32 156,-26 156,-26 156,-12 156,-12 156,-6 162,-0 168,-0 168,-0 205,-0 205,-0 211,-0 217,-6 217,-12 217,-12 217,-26 217,-26 217,-32 211,-38 205,-38"/>
<text text-anchor="middle" x="186.5" y="-22.8" font-family="Times,serif" font-size="14.00">forward</text>
<text text-anchor="middle" x="186.5" y="-7.8" font-family="Times,serif" font-size="14.00">CB0/C1</text>
</g>
<!-- 7&#45;&gt;24 -->
<g id="edge24" class="edge"><title>7&#45;&gt;24</title>
<path fill="none" stroke="black" d="M186.5,-74.937C186.5,-66.9865 186.5,-57.3134 186.5,-48.3127"/>
<polygon fill="black" stroke="black" points="190,-48.1991 186.5,-38.1992 183,-48.1992 190,-48.1991"/>
</g>
<!-- 25 -->
<g id="node26" class="node"><title>25</title>
<path fill="#e9d3ff" stroke="black" d="M284,-38C284,-38 247,-38 247,-38 241,-38 235,-32 235,-26 235,-26 235,-12 235,-12 235,-6 241,-0 247,-0 247,-0 284,-0 284,-0 290,-0 296,-6 296,-12 296,-12 296,-26 296,-26 296,-32 290,-38 284,-38"/>
<text text-anchor="middle" x="265.5" y="-22.8" font-family="Times,serif" font-size="14.00">forward</text>
<text text-anchor="middle" x="265.5" y="-7.8" font-family="Times,serif" font-size="14.00">CB0/C2</text>
</g>
<!-- 8&#45;&gt;25 -->
<g id="edge25" class="edge"><title>8&#45;&gt;25</title>
<path fill="none" stroke="black" d="M263.974,-74.937C264.195,-66.9865 264.464,-57.3134 264.714,-48.3127"/>
<polygon fill="black" stroke="black" points="268.215,-48.2925 264.994,-38.1992 261.218,-48.0981 268.215,-48.2925"/>
</g>
<!-- 26 -->
<g id="node27" class="node"><title>26</title>
<path fill="#e9d3ff" stroke="black" d="M361,-38C361,-38 326,-38 326,-38 320,-38 314,-32 314,-26 314,-26 314,-12 314,-12 314,-6 320,-0 326,-0 326,-0 361,-0 361,-0 367,-0 373,-6 373,-12 373,-12 373,-26 373,-26 373,-32 367,-38 361,-38"/>
<text text-anchor="middle" x="343.5" y="-22.8" font-family="Times,serif" font-size="14.00">forward</text>
<text text-anchor="middle" x="343.5" y="-7.8" font-family="Times,serif" font-size="14.00">input</text>
</g>
<!-- 9&#45;&gt;26 -->
<g id="edge26" class="edge"><title>9&#45;&gt;26</title>
<path fill="none" stroke="black" d="M344.263,-74.937C344.153,-66.9865 344.018,-57.3134 343.893,-48.3127"/>
<polygon fill="black" stroke="black" points="347.391,-48.1496 343.753,-38.1992 340.392,-48.2468 347.391,-48.1496"/>
</g>
<!-- 27 -->
<g id="node28" class="node"><title>27</title>
<path fill="#e9d3ff" stroke="black" d="M440,-38C440,-38 403,-38 403,-38 397,-38 391,-32 391,-26 391,-26 391,-12 391,-12 391,-6 397,-0 403,-0 403,-0 440,-0 440,-0 446,-0 452,-6 452,-12 452,-12 452,-26 452,-26 452,-32 446,-38 440,-38"/>
<text text-anchor="middle" x="421.5" y="-22.8" font-family="Times,serif" font-size="14.00">forward</text>
<text text-anchor="middle" x="421.5" y="-7.8" font-family="Times,serif" font-size="14.00">CB1/C0</text>
</g>
<!-- 10&#45;&gt;27 -->
<g id="edge27" class="edge"><title>10&#45;&gt;27</title>
<path fill="none" stroke="black" d="M421.5,-74.937C421.5,-66.9865 421.5,-57.3134 421.5,-48.3127"/>
<polygon fill="black" stroke="black" points="425,-48.1991 421.5,-38.1992 418,-48.1992 425,-48.1991"/>
</g>
<!-- 28 -->
<g id="node29" class="node"><title>28</title>
<path fill="#e9d3ff" stroke="black" d="M519,-38C519,-38 482,-38 482,-38 476,-38 470,-32 470,-26 470,-26 470,-12 470,-12 470,-6 476,-0 482,-0 482,-0 519,-0 519,-0 525,-0 531,-6 531,-12 531,-12 531,-26 531,-26 531,-32 525,-38 519,-38"/>
<text text-anchor="middle" x="500.5" y="-22.8" font-family="Times,serif" font-size="14.00">forward</text>
<text text-anchor="middle" x="500.5" y="-7.8" font-family="Times,serif" font-size="14.00">CB1/C1</text>
</g>
<!-- 11&#45;&gt;28 -->
<g id="edge28" class="edge"><title>11&#45;&gt;28</title>
<path fill="none" stroke="black" d="M498.211,-74.937C498.542,-66.9865 498.945,-57.3134 499.32,-48.3127"/>
<polygon fill="black" stroke="black" points="502.822,-48.3362 499.742,-38.1992 495.828,-48.0448 502.822,-48.3362"/>
</g>
<!-- 29 -->
<g id="node30" class="node"><title>29</title>
<path fill="#e9d3ff" stroke="black" d="M598,-38C598,-38 561,-38 561,-38 555,-38 549,-32 549,-26 549,-26 549,-12 549,-12 549,-6 555,-0 561,-0 561,-0 598,-0 598,-0 604,-0 610,-6 610,-12 610,-12 610,-26 610,-26 610,-32 604,-38 598,-38"/>
<text text-anchor="middle" x="579.5" y="-22.8" font-family="Times,serif" font-size="14.00">forward</text>
<text text-anchor="middle" x="579.5" y="-7.8" font-family="Times,serif" font-size="14.00">CB1/C2</text>
</g>
<!-- 12&#45;&gt;29 -->
<g id="edge29" class="edge"><title>12&#45;&gt;29</title>
<path fill="none" stroke="black" d="M574.922,-74.937C575.584,-66.9865 576.391,-57.3134 577.141,-48.3127"/>
<polygon fill="black" stroke="black" points="580.641,-48.4553 577.983,-38.1992 573.665,-47.8739 580.641,-48.4553"/>
</g>
<!-- 30 -->
<g id="node31" class="node"><title>30</title>
<path fill="#e9d3ff" stroke="black" d="M721,-38C721,-38 684,-38 684,-38 678,-38 672,-32 672,-26 672,-26 672,-12 672,-12 672,-6 678,-0 684,-0 684,-0 721,-0 721,-0 727,-0 733,-6 733,-12 733,-12 733,-26 733,-26 733,-32 727,-38 721,-38"/>
<text text-anchor="middle" x="702.5" y="-22.8" font-family="Times,serif" font-size="14.00">forward</text>
<text text-anchor="middle" x="702.5" y="-7.8" font-family="Times,serif" font-size="14.00">CB1/C3</text>
</g>
<!-- 13&#45;&gt;30 -->
<g id="edge30" class="edge"><title>13&#45;&gt;30</title>
<path fill="none" stroke="black" d="M702.5,-73.8314C702.5,-66.131 702.5,-56.9743 702.5,-48.4166"/>
<polygon fill="black" stroke="black" points="706,-48.4132 702.5,-38.4133 699,-48.4133 706,-48.4132"/>
</g>
<!-- 31 -->
<g id="node32" class="node"><title>31</title>
<path fill="#e9d3ff" stroke="black" d="M845,-38C845,-38 810,-38 810,-38 804,-38 798,-32 798,-26 798,-26 798,-12 798,-12 798,-6 804,-0 810,-0 810,-0 845,-0 845,-0 851,-0 857,-6 857,-12 857,-12 857,-26 857,-26 857,-32 851,-38 845,-38"/>
<text text-anchor="middle" x="827.5" y="-22.8" font-family="Times,serif" font-size="14.00">forward</text>
<text text-anchor="middle" x="827.5" y="-7.8" font-family="Times,serif" font-size="14.00">input</text>
</g>
<!-- 14&#45;&gt;31 -->
<g id="edge31" class="edge"><title>14&#45;&gt;31</title>
<path fill="none" stroke="black" d="M830.552,-74.937C830.11,-66.9865 829.573,-57.3134 829.073,-48.3127"/>
<polygon fill="black" stroke="black" points="832.56,-47.9896 828.511,-38.1992 825.571,-48.3779 832.56,-47.9896"/>
</g>
<!-- 32 -->
<g id="node33" class="node"><title>32</title>
<path fill="#e9d3ff" stroke="black" d="M924,-38C924,-38 887,-38 887,-38 881,-38 875,-32 875,-26 875,-26 875,-12 875,-12 875,-6 881,-0 887,-0 887,-0 924,-0 924,-0 930,-0 936,-6 936,-12 936,-12 936,-26 936,-26 936,-32 930,-38 924,-38"/>
<text text-anchor="middle" x="905.5" y="-22.8" font-family="Times,serif" font-size="14.00">forward</text>
<text text-anchor="middle" x="905.5" y="-7.8" font-family="Times,serif" font-size="14.00">CB2/C0</text>
</g>
<!-- 15&#45;&gt;32 -->
<g id="edge32" class="edge"><title>15&#45;&gt;32</title>
<path fill="none" stroke="black" d="M907.026,-74.937C906.805,-66.9865 906.536,-57.3134 906.286,-48.3127"/>
<polygon fill="black" stroke="black" points="909.782,-48.0981 906.006,-38.1992 902.785,-48.2925 909.782,-48.0981"/>
</g>
<!-- 33 -->
<g id="node34" class="node"><title>33</title>
<path fill="#e9d3ff" stroke="black" d="M1003,-38C1003,-38 966,-38 966,-38 960,-38 954,-32 954,-26 954,-26 954,-12 954,-12 954,-6 960,-0 966,-0 966,-0 1003,-0 1003,-0 1009,-0 1015,-6 1015,-12 1015,-12 1015,-26 1015,-26 1015,-32 1009,-38 1003,-38"/>
<text text-anchor="middle" x="984.5" y="-22.8" font-family="Times,serif" font-size="14.00">forward</text>
<text text-anchor="middle" x="984.5" y="-7.8" font-family="Times,serif" font-size="14.00">CB2/C1</text>
</g>
<!-- 16&#45;&gt;33 -->
<g id="edge33" class="edge"><title>16&#45;&gt;33</title>
<path fill="none" stroke="black" d="M983.737,-74.937C983.847,-66.9865 983.982,-57.3134 984.107,-48.3127"/>
<polygon fill="black" stroke="black" points="987.608,-48.2468 984.247,-38.1992 980.609,-48.1496 987.608,-48.2468"/>
</g>
<!-- 34 -->
<g id="node35" class="node"><title>34</title>
<path fill="#e9d3ff" stroke="black" d="M1082,-38C1082,-38 1045,-38 1045,-38 1039,-38 1033,-32 1033,-26 1033,-26 1033,-12 1033,-12 1033,-6 1039,-0 1045,-0 1045,-0 1082,-0 1082,-0 1088,-0 1094,-6 1094,-12 1094,-12 1094,-26 1094,-26 1094,-32 1088,-38 1082,-38"/>
<text text-anchor="middle" x="1063.5" y="-22.8" font-family="Times,serif" font-size="14.00">forward</text>
<text text-anchor="middle" x="1063.5" y="-7.8" font-family="Times,serif" font-size="14.00">CB2/C2</text>
</g>
<!-- 17&#45;&gt;34 -->
<g id="edge34" class="edge"><title>17&#45;&gt;34</title>
<path fill="none" stroke="black" d="M1060.45,-74.937C1060.89,-66.9865 1061.43,-57.3134 1061.93,-48.3127"/>
<polygon fill="black" stroke="black" points="1065.43,-48.3779 1062.49,-38.1992 1058.44,-47.9896 1065.43,-48.3779"/>
</g>
<!-- 35 -->
<g id="node36" class="node"><title>35</title>
<path fill="#e9d3ff" stroke="black" d="M1207,-38C1207,-38 1170,-38 1170,-38 1164,-38 1158,-32 1158,-26 1158,-26 1158,-12 1158,-12 1158,-6 1164,-0 1170,-0 1170,-0 1207,-0 1207,-0 1213,-0 1219,-6 1219,-12 1219,-12 1219,-26 1219,-26 1219,-32 1213,-38 1207,-38"/>
<text text-anchor="middle" x="1188.5" y="-22.8" font-family="Times,serif" font-size="14.00">forward</text>
<text text-anchor="middle" x="1188.5" y="-7.8" font-family="Times,serif" font-size="14.00">CB2/C3</text>
</g>
<!-- 18&#45;&gt;35 -->
<g id="edge35" class="edge"><title>18&#45;&gt;35</title>
<path fill="none" stroke="black" d="M1188.5,-73.8314C1188.5,-66.131 1188.5,-56.9743 1188.5,-48.4166"/>
<polygon fill="black" stroke="black" points="1192,-48.4132 1188.5,-38.4133 1185,-48.4133 1192,-48.4132"/>
</g>
</g>
</svg>
