<?xml version="1.0" encoding="UTF-8" standalone="no"?>
<!DOCTYPE svg PUBLIC "-//W3C//DTD SVG 1.1//EN"
 "http://www.w3.org/Graphics/SVG/1.1/DTD/svg11.dtd">
<!-- Generated by graphviz version 2.38.0 (20140413.2041)
 -->
<!-- Title: %3 Pages: 1 -->
<svg width="3972pt" height="387pt"
 viewBox="0.00 0.00 3972.00 387.00" xmlns="http://www.w3.org/2000/svg" xmlns:xlink="http://www.w3.org/1999/xlink">
<g id="graph0" class="graph" transform="scale(1 1) rotate(0) translate(4 383)">
<title>%3</title>
<polygon fill="none" stroke="none" points="-4,4 -4,-383 3968,-383 3968,4 -4,4"/>
<!-- 0 -->
<g id="node1" class="node"><title>0</title>
<path fill="#ffd3d3" stroke="black" d="M2269.5,-379C2269.5,-379 1989.5,-379 1989.5,-379 1983.5,-379 1977.5,-373 1977.5,-367 1977.5,-367 1977.5,-338 1977.5,-338 1977.5,-332 1983.5,-326 1989.5,-326 1989.5,-326 2269.5,-326 2269.5,-326 2275.5,-326 2281.5,-332 2281.5,-338 2281.5,-338 2281.5,-367 2281.5,-367 2281.5,-373 2275.5,-379 2269.5,-379"/>
<text text-anchor="middle" x="2129.5" y="-363.8" font-family="Times,serif" font-size="14.00">net</text>
<text text-anchor="middle" x="2129.5" y="-348.8" font-family="Times,serif" font-size="14.00">log lambda1: &#45;11.000000 &#160;&#160;log lambda2: &#45;11.000000</text>
<text text-anchor="middle" x="2129.5" y="-333.8" font-family="Times,serif" font-size="14.00">n kernels: 90 &#160;&#160;pooling type: 0</text>
</g>
<!-- 1 -->
<g id="node2" class="node"><title>1</title>
<path fill="#f6ffd3" stroke="black" d="M1299,-289C1299,-289 1264,-289 1264,-289 1258,-289 1252,-283 1252,-277 1252,-277 1252,-265 1252,-265 1252,-259 1258,-253 1264,-253 1264,-253 1299,-253 1299,-253 1305,-253 1311,-259 1311,-265 1311,-265 1311,-277 1311,-277 1311,-283 1305,-289 1299,-289"/>
<text text-anchor="middle" x="1281.5" y="-267.3" font-family="Times,serif" font-size="14.00">encoder</text>
</g>
<!-- 0&#45;&gt;1 -->
<g id="edge1" class="edge"><title>0&#45;&gt;1</title>
<path fill="none" stroke="black" d="M1977.41,-337.241C1777.28,-318.479 1437.36,-286.612 1321.53,-275.753"/>
<polygon fill="black" stroke="black" points="1321.63,-272.247 1311.35,-274.798 1320.98,-279.217 1321.63,-272.247"/>
</g>
<!-- 2 -->
<g id="node3" class="node"><title>2</title>
<path fill="#f6ffd3" stroke="black" d="M2716.5,-290C2716.5,-290 2648.5,-290 2648.5,-290 2642.5,-290 2636.5,-284 2636.5,-278 2636.5,-278 2636.5,-264 2636.5,-264 2636.5,-258 2642.5,-252 2648.5,-252 2648.5,-252 2716.5,-252 2716.5,-252 2722.5,-252 2728.5,-258 2728.5,-264 2728.5,-264 2728.5,-278 2728.5,-278 2728.5,-284 2722.5,-290 2716.5,-290"/>
<text text-anchor="middle" x="2682.5" y="-274.8" font-family="Times,serif" font-size="14.00">decoder</text>
<text text-anchor="middle" x="2682.5" y="-259.8" font-family="Times,serif" font-size="14.00">n kernels: &#45;18</text>
</g>
<!-- 0&#45;&gt;2 -->
<g id="edge2" class="edge"><title>0&#45;&gt;2</title>
<path fill="none" stroke="black" d="M2281.71,-329.618C2395.84,-313.211 2545.65,-291.674 2625.91,-280.136"/>
<polygon fill="black" stroke="black" points="2626.89,-283.531 2636.29,-278.643 2625.89,-276.602 2626.89,-283.531"/>
</g>
<!-- 3 -->
<g id="node4" class="node"><title>3</title>
<path fill="#d3ffe4" stroke="black" d="M300,-216C300,-216 225,-216 225,-216 219,-216 213,-210 213,-204 213,-204 213,-190 213,-190 213,-184 219,-178 225,-178 225,-178 300,-178 300,-178 306,-178 312,-184 312,-190 312,-190 312,-204 312,-204 312,-210 306,-216 300,-216"/>
<text text-anchor="middle" x="262.5" y="-200.8" font-family="Times,serif" font-size="14.00">encode block 0</text>
<text text-anchor="middle" x="262.5" y="-185.8" font-family="Times,serif" font-size="14.00">n kernels: 6</text>
</g>
<!-- 1&#45;&gt;3 -->
<g id="edge3" class="edge"><title>1&#45;&gt;3</title>
<path fill="none" stroke="black" d="M1251.83,-267.904C1111.69,-258.001 514.838,-215.83 322.495,-202.239"/>
<polygon fill="black" stroke="black" points="322.517,-198.732 312.295,-201.518 322.023,-205.715 322.517,-198.732"/>
</g>
<!-- 4 -->
<g id="node5" class="node"><title>4</title>
<path fill="#bfe6cf" stroke="black" d="M999,-216C999,-216 840,-216 840,-216 834,-216 828,-210 828,-204 828,-204 828,-190 828,-190 828,-184 834,-178 840,-178 840,-178 999,-178 999,-178 1005,-178 1011,-184 1011,-190 1011,-190 1011,-204 1011,-204 1011,-210 1005,-216 999,-216"/>
<text text-anchor="middle" x="919.5" y="-200.8" font-family="Times,serif" font-size="14.00">encode block 1</text>
<text text-anchor="middle" x="919.5" y="-185.8" font-family="Times,serif" font-size="14.00">n kernels: &#45;10 &#160;&#160;spatial scale: 1</text>
</g>
<!-- 1&#45;&gt;4 -->
<g id="edge4" class="edge"><title>1&#45;&gt;4</title>
<path fill="none" stroke="black" d="M1251.88,-264.108C1201.84,-254.156 1098.39,-233.58 1020.11,-218.011"/>
<polygon fill="black" stroke="black" points="1020.7,-214.56 1010.21,-216.042 1019.33,-221.425 1020.7,-214.56"/>
</g>
<!-- 5 -->
<g id="node6" class="node"><title>5</title>
<path fill="#abceb9" stroke="black" d="M1748,-216C1748,-216 1673,-216 1673,-216 1667,-216 1661,-210 1661,-204 1661,-204 1661,-190 1661,-190 1661,-184 1667,-178 1673,-178 1673,-178 1748,-178 1748,-178 1754,-178 1760,-184 1760,-190 1760,-190 1760,-204 1760,-204 1760,-210 1754,-216 1748,-216"/>
<text text-anchor="middle" x="1710.5" y="-200.8" font-family="Times,serif" font-size="14.00">encode block 2</text>
<text text-anchor="middle" x="1710.5" y="-185.8" font-family="Times,serif" font-size="14.00">spatial scale: 2</text>
</g>
<!-- 1&#45;&gt;5 -->
<g id="edge5" class="edge"><title>1&#45;&gt;5</title>
<path fill="none" stroke="black" d="M1311.33,-264.994C1381.38,-253.237 1557.52,-223.675 1650.64,-208.046"/>
<polygon fill="black" stroke="black" points="1651.47,-211.455 1660.76,-206.348 1650.32,-204.552 1651.47,-211.455"/>
</g>
<!-- 6 -->
<g id="node7" class="node"><title>6</title>
<path fill="#d3ffe4" stroke="black" d="M2334,-216C2334,-216 2173,-216 2173,-216 2167,-216 2161,-210 2161,-204 2161,-204 2161,-190 2161,-190 2161,-184 2167,-178 2173,-178 2173,-178 2334,-178 2334,-178 2340,-178 2346,-184 2346,-190 2346,-190 2346,-204 2346,-204 2346,-210 2340,-216 2334,-216"/>
<text text-anchor="middle" x="2253.5" y="-200.8" font-family="Times,serif" font-size="14.00">decode block 3</text>
<text text-anchor="middle" x="2253.5" y="-185.8" font-family="Times,serif" font-size="14.00">n kernels: 504 &#160;&#160;spatial scale: 3</text>
</g>
<!-- 2&#45;&gt;6 -->
<g id="edge6" class="edge"><title>2&#45;&gt;6</title>
<path fill="none" stroke="black" d="M2636.18,-262.226C2569.63,-251.057 2445.2,-230.174 2356.29,-215.251"/>
<polygon fill="black" stroke="black" points="2356.61,-211.757 2346.17,-213.553 2355.46,-218.66 2356.61,-211.757"/>
</g>
<!-- 7 -->
<g id="node8" class="node"><title>7</title>
<path fill="#bfe6cf" stroke="black" d="M2762,-216C2762,-216 2603,-216 2603,-216 2597,-216 2591,-210 2591,-204 2591,-204 2591,-190 2591,-190 2591,-184 2597,-178 2603,-178 2603,-178 2762,-178 2762,-178 2768,-178 2774,-184 2774,-190 2774,-190 2774,-204 2774,-204 2774,-210 2768,-216 2762,-216"/>
<text text-anchor="middle" x="2682.5" y="-200.8" font-family="Times,serif" font-size="14.00">decode block 2</text>
<text text-anchor="middle" x="2682.5" y="-185.8" font-family="Times,serif" font-size="14.00">n kernels: &#45;18 &#160;&#160;spatial scale: 2</text>
</g>
<!-- 2&#45;&gt;7 -->
<g id="edge7" class="edge"><title>2&#45;&gt;7</title>
<path fill="none" stroke="black" d="M2682.5,-251.831C2682.5,-244.131 2682.5,-234.974 2682.5,-226.417"/>
<polygon fill="black" stroke="black" points="2686,-226.413 2682.5,-216.413 2679,-226.413 2686,-226.413"/>
</g>
<!-- 8 -->
<g id="node9" class="node"><title>8</title>
<path fill="#abceb9" stroke="black" d="M3122.5,-216C3122.5,-216 2974.5,-216 2974.5,-216 2968.5,-216 2962.5,-210 2962.5,-204 2962.5,-204 2962.5,-190 2962.5,-190 2962.5,-184 2968.5,-178 2974.5,-178 2974.5,-178 3122.5,-178 3122.5,-178 3128.5,-178 3134.5,-184 3134.5,-190 3134.5,-190 3134.5,-204 3134.5,-204 3134.5,-210 3128.5,-216 3122.5,-216"/>
<text text-anchor="middle" x="3048.5" y="-200.8" font-family="Times,serif" font-size="14.00">decode block 1</text>
<text text-anchor="middle" x="3048.5" y="-185.8" font-family="Times,serif" font-size="14.00">n kernels: 2 &#160;&#160;spatial scale: 1</text>
</g>
<!-- 2&#45;&gt;8 -->
<g id="edge8" class="edge"><title>2&#45;&gt;8</title>
<path fill="none" stroke="black" d="M2728.85,-260.881C2784.79,-249.876 2880.31,-231.086 2952.4,-216.904"/>
<polygon fill="black" stroke="black" points="2953.28,-220.3 2962.41,-214.935 2951.93,-213.431 2953.28,-220.3"/>
</g>
<!-- 9 -->
<g id="node10" class="node"><title>9</title>
<path fill="#97b6a3" stroke="black" d="M3627,-216C3627,-216 3552,-216 3552,-216 3546,-216 3540,-210 3540,-204 3540,-204 3540,-190 3540,-190 3540,-184 3546,-178 3552,-178 3552,-178 3627,-178 3627,-178 3633,-178 3639,-184 3639,-190 3639,-190 3639,-204 3639,-204 3639,-210 3633,-216 3627,-216"/>
<text text-anchor="middle" x="3589.5" y="-200.8" font-family="Times,serif" font-size="14.00">decode block 0</text>
<text text-anchor="middle" x="3589.5" y="-185.8" font-family="Times,serif" font-size="14.00">n kernels: 6</text>
</g>
<!-- 2&#45;&gt;9 -->
<g id="edge9" class="edge"><title>2&#45;&gt;9</title>
<path fill="none" stroke="black" d="M2728.73,-266.331C2880.05,-254.318 3360.57,-216.173 3529.82,-202.738"/>
<polygon fill="black" stroke="black" points="3530.1,-206.226 3539.79,-201.946 3529.55,-199.248 3530.1,-206.226"/>
</g>
<!-- 10 -->
<g id="node11" class="node"><title>10</title>
<path fill="#d3e4ff" stroke="black" d="M144.5,-141C144.5,-141 110.5,-141 110.5,-141 104.5,-141 98.5,-135 98.5,-129 98.5,-129 98.5,-117 98.5,-117 98.5,-111 104.5,-105 110.5,-105 110.5,-105 144.5,-105 144.5,-105 150.5,-105 156.5,-111 156.5,-117 156.5,-117 156.5,-129 156.5,-129 156.5,-135 150.5,-141 144.5,-141"/>
<text text-anchor="middle" x="127.5" y="-119.3" font-family="Times,serif" font-size="14.00">comp 0</text>
</g>
<!-- 3&#45;&gt;10 -->
<g id="edge10" class="edge"><title>3&#45;&gt;10</title>
<path fill="none" stroke="black" d="M228.434,-177.831C209.283,-167.618 185.329,-154.842 165.563,-144.3"/>
<polygon fill="black" stroke="black" points="166.994,-141.097 156.523,-139.479 163.7,-147.273 166.994,-141.097"/>
</g>
<!-- 11 -->
<g id="node12" class="node"><title>11</title>
<path fill="#bfcfe6" stroke="black" d="M293,-142C293,-142 232,-142 232,-142 226,-142 220,-136 220,-130 220,-130 220,-116 220,-116 220,-110 226,-104 232,-104 232,-104 293,-104 293,-104 299,-104 305,-110 305,-116 305,-116 305,-130 305,-130 305,-136 299,-142 293,-142"/>
<text text-anchor="middle" x="262.5" y="-126.8" font-family="Times,serif" font-size="14.00">comp 1</text>
<text text-anchor="middle" x="262.5" y="-111.8" font-family="Times,serif" font-size="14.00">n kernels: &#45;3</text>
</g>
<!-- 3&#45;&gt;11 -->
<g id="edge11" class="edge"><title>3&#45;&gt;11</title>
<path fill="none" stroke="black" d="M262.5,-177.831C262.5,-170.131 262.5,-160.974 262.5,-152.417"/>
<polygon fill="black" stroke="black" points="266,-152.413 262.5,-142.413 259,-152.413 266,-152.413"/>
</g>
<!-- 12 -->
<g id="node13" class="node"><title>12</title>
<path fill="#d3e4ff" stroke="black" d="M571.5,-141C571.5,-141 537.5,-141 537.5,-141 531.5,-141 525.5,-135 525.5,-129 525.5,-129 525.5,-117 525.5,-117 525.5,-111 531.5,-105 537.5,-105 537.5,-105 571.5,-105 571.5,-105 577.5,-105 583.5,-111 583.5,-117 583.5,-117 583.5,-129 583.5,-129 583.5,-135 577.5,-141 571.5,-141"/>
<text text-anchor="middle" x="554.5" y="-119.3" font-family="Times,serif" font-size="14.00">comp 0</text>
</g>
<!-- 4&#45;&gt;12 -->
<g id="edge12" class="edge"><title>4&#45;&gt;12</title>
<path fill="none" stroke="black" d="M827.866,-177.924C752.479,-163.053 649.32,-142.704 593.767,-131.746"/>
<polygon fill="black" stroke="black" points="594.128,-128.25 583.64,-129.748 592.773,-135.117 594.128,-128.25"/>
</g>
<!-- 13 -->
<g id="node14" class="node"><title>13</title>
<path fill="#bfcfe6" stroke="black" d="M792.5,-142C792.5,-142 724.5,-142 724.5,-142 718.5,-142 712.5,-136 712.5,-130 712.5,-130 712.5,-116 712.5,-116 712.5,-110 718.5,-104 724.5,-104 724.5,-104 792.5,-104 792.5,-104 798.5,-104 804.5,-110 804.5,-116 804.5,-116 804.5,-130 804.5,-130 804.5,-136 798.5,-142 792.5,-142"/>
<text text-anchor="middle" x="758.5" y="-126.8" font-family="Times,serif" font-size="14.00">comp 1</text>
<text text-anchor="middle" x="758.5" y="-111.8" font-family="Times,serif" font-size="14.00">n kernels: &#45;17</text>
</g>
<!-- 4&#45;&gt;13 -->
<g id="edge13" class="edge"><title>4&#45;&gt;13</title>
<path fill="none" stroke="black" d="M878.873,-177.831C857.34,-168.202 830.715,-156.295 807.985,-146.13"/>
<polygon fill="black" stroke="black" points="809.393,-142.925 798.835,-142.038 806.535,-149.316 809.393,-142.925"/>
</g>
<!-- 14 -->
<g id="node15" class="node"><title>14</title>
<path fill="#abb9ce" stroke="black" d="M936.5,-141C936.5,-141 902.5,-141 902.5,-141 896.5,-141 890.5,-135 890.5,-129 890.5,-129 890.5,-117 890.5,-117 890.5,-111 896.5,-105 902.5,-105 902.5,-105 936.5,-105 936.5,-105 942.5,-105 948.5,-111 948.5,-117 948.5,-117 948.5,-129 948.5,-129 948.5,-135 942.5,-141 936.5,-141"/>
<text text-anchor="middle" x="919.5" y="-119.3" font-family="Times,serif" font-size="14.00">comp 2</text>
</g>
<!-- 4&#45;&gt;14 -->
<g id="edge14" class="edge"><title>4&#45;&gt;14</title>
<path fill="none" stroke="black" d="M919.5,-177.831C919.5,-169.894 919.5,-160.409 919.5,-151.628"/>
<polygon fill="black" stroke="black" points="923,-151.418 919.5,-141.418 916,-151.418 923,-151.418"/>
</g>
<!-- 15 -->
<g id="node16" class="node"><title>15</title>
<path fill="#97a3b6" stroke="black" d="M1274.5,-141C1274.5,-141 1240.5,-141 1240.5,-141 1234.5,-141 1228.5,-135 1228.5,-129 1228.5,-129 1228.5,-117 1228.5,-117 1228.5,-111 1234.5,-105 1240.5,-105 1240.5,-105 1274.5,-105 1274.5,-105 1280.5,-105 1286.5,-111 1286.5,-117 1286.5,-117 1286.5,-129 1286.5,-129 1286.5,-135 1280.5,-141 1274.5,-141"/>
<text text-anchor="middle" x="1257.5" y="-119.3" font-family="Times,serif" font-size="14.00">comp 3</text>
</g>
<!-- 4&#45;&gt;15 -->
<g id="edge15" class="edge"><title>4&#45;&gt;15</title>
<path fill="none" stroke="black" d="M1004.36,-177.924C1072.92,-163.319 1166.29,-143.428 1218.34,-132.341"/>
<polygon fill="black" stroke="black" points="1219.13,-135.752 1228.18,-130.245 1217.67,-128.906 1219.13,-135.752"/>
</g>
<!-- 16 -->
<g id="node17" class="node"><title>16</title>
<path fill="#d3e4ff" stroke="black" d="M1742,-142C1742,-142 1679,-142 1679,-142 1673,-142 1667,-136 1667,-130 1667,-130 1667,-116 1667,-116 1667,-110 1673,-104 1679,-104 1679,-104 1742,-104 1742,-104 1748,-104 1754,-110 1754,-116 1754,-116 1754,-130 1754,-130 1754,-136 1748,-142 1742,-142"/>
<text text-anchor="middle" x="1710.5" y="-126.8" font-family="Times,serif" font-size="14.00">comp 0</text>
<text text-anchor="middle" x="1710.5" y="-111.8" font-family="Times,serif" font-size="14.00">n kernels: 18</text>
</g>
<!-- 5&#45;&gt;16 -->
<g id="edge16" class="edge"><title>5&#45;&gt;16</title>
<path fill="none" stroke="black" d="M1710.5,-177.831C1710.5,-170.131 1710.5,-160.974 1710.5,-152.417"/>
<polygon fill="black" stroke="black" points="1714,-152.413 1710.5,-142.413 1707,-152.413 1714,-152.413"/>
</g>
<!-- 17 -->
<g id="node18" class="node"><title>17</title>
<path fill="#bfcfe6" stroke="black" d="M1888.5,-142C1888.5,-142 1820.5,-142 1820.5,-142 1814.5,-142 1808.5,-136 1808.5,-130 1808.5,-130 1808.5,-116 1808.5,-116 1808.5,-110 1814.5,-104 1820.5,-104 1820.5,-104 1888.5,-104 1888.5,-104 1894.5,-104 1900.5,-110 1900.5,-116 1900.5,-116 1900.5,-130 1900.5,-130 1900.5,-136 1894.5,-142 1888.5,-142"/>
<text text-anchor="middle" x="1854.5" y="-126.8" font-family="Times,serif" font-size="14.00">comp 1</text>
<text text-anchor="middle" x="1854.5" y="-111.8" font-family="Times,serif" font-size="14.00">n kernels: &#45;19</text>
</g>
<!-- 5&#45;&gt;17 -->
<g id="edge17" class="edge"><title>5&#45;&gt;17</title>
<path fill="none" stroke="black" d="M1746.84,-177.831C1765.84,-168.33 1789.28,-156.612 1809.43,-146.537"/>
<polygon fill="black" stroke="black" points="1811.05,-149.641 1818.42,-142.038 1807.91,-143.38 1811.05,-149.641"/>
</g>
<!-- 18 -->
<g id="node19" class="node"><title>18</title>
<path fill="#d3e4ff" stroke="black" d="M2141.5,-141C2141.5,-141 2107.5,-141 2107.5,-141 2101.5,-141 2095.5,-135 2095.5,-129 2095.5,-129 2095.5,-117 2095.5,-117 2095.5,-111 2101.5,-105 2107.5,-105 2107.5,-105 2141.5,-105 2141.5,-105 2147.5,-105 2153.5,-111 2153.5,-117 2153.5,-117 2153.5,-129 2153.5,-129 2153.5,-135 2147.5,-141 2141.5,-141"/>
<text text-anchor="middle" x="2124.5" y="-119.3" font-family="Times,serif" font-size="14.00">comp 0</text>
</g>
<!-- 6&#45;&gt;18 -->
<g id="edge18" class="edge"><title>6&#45;&gt;18</title>
<path fill="none" stroke="black" d="M2220.95,-177.831C2203.12,-167.879 2180.93,-155.494 2162.33,-145.113"/>
<polygon fill="black" stroke="black" points="2163.96,-142.015 2153.52,-140.197 2160.55,-148.127 2163.96,-142.015"/>
</g>
<!-- 19 -->
<g id="node20" class="node"><title>19</title>
<path fill="#bfcfe6" stroke="black" d="M2270.5,-141C2270.5,-141 2236.5,-141 2236.5,-141 2230.5,-141 2224.5,-135 2224.5,-129 2224.5,-129 2224.5,-117 2224.5,-117 2224.5,-111 2230.5,-105 2236.5,-105 2236.5,-105 2270.5,-105 2270.5,-105 2276.5,-105 2282.5,-111 2282.5,-117 2282.5,-117 2282.5,-129 2282.5,-129 2282.5,-135 2276.5,-141 2270.5,-141"/>
<text text-anchor="middle" x="2253.5" y="-119.3" font-family="Times,serif" font-size="14.00">comp 1</text>
</g>
<!-- 6&#45;&gt;19 -->
<g id="edge19" class="edge"><title>6&#45;&gt;19</title>
<path fill="none" stroke="black" d="M2253.5,-177.831C2253.5,-169.894 2253.5,-160.409 2253.5,-151.628"/>
<polygon fill="black" stroke="black" points="2257,-151.418 2253.5,-141.418 2250,-151.418 2257,-151.418"/>
</g>
<!-- 20 -->
<g id="node21" class="node"><title>20</title>
<path fill="#d3e4ff" stroke="black" d="M2643.5,-142C2643.5,-142 2587.5,-142 2587.5,-142 2581.5,-142 2575.5,-136 2575.5,-130 2575.5,-130 2575.5,-116 2575.5,-116 2575.5,-110 2581.5,-104 2587.5,-104 2587.5,-104 2643.5,-104 2643.5,-104 2649.5,-104 2655.5,-110 2655.5,-116 2655.5,-116 2655.5,-130 2655.5,-130 2655.5,-136 2649.5,-142 2643.5,-142"/>
<text text-anchor="middle" x="2615.5" y="-126.8" font-family="Times,serif" font-size="14.00">comp 0</text>
<text text-anchor="middle" x="2615.5" y="-111.8" font-family="Times,serif" font-size="14.00">n kernels: 9</text>
</g>
<!-- 7&#45;&gt;20 -->
<g id="edge20" class="edge"><title>7&#45;&gt;20</title>
<path fill="none" stroke="black" d="M2665.59,-177.831C2657.72,-169.369 2648.21,-159.149 2639.6,-149.897"/>
<polygon fill="black" stroke="black" points="2642.01,-147.35 2632.63,-142.413 2636.88,-152.118 2642.01,-147.35"/>
</g>
<!-- 21 -->
<g id="node22" class="node"><title>21</title>
<path fill="#bfcfe6" stroke="black" d="M2766.5,-141C2766.5,-141 2732.5,-141 2732.5,-141 2726.5,-141 2720.5,-135 2720.5,-129 2720.5,-129 2720.5,-117 2720.5,-117 2720.5,-111 2726.5,-105 2732.5,-105 2732.5,-105 2766.5,-105 2766.5,-105 2772.5,-105 2778.5,-111 2778.5,-117 2778.5,-117 2778.5,-129 2778.5,-129 2778.5,-135 2772.5,-141 2766.5,-141"/>
<text text-anchor="middle" x="2749.5" y="-119.3" font-family="Times,serif" font-size="14.00">comp 1</text>
</g>
<!-- 7&#45;&gt;21 -->
<g id="edge21" class="edge"><title>7&#45;&gt;21</title>
<path fill="none" stroke="black" d="M2699.41,-177.831C2707.6,-169.022 2717.58,-158.306 2726.46,-148.762"/>
<polygon fill="black" stroke="black" points="2729.04,-151.123 2733.29,-141.418 2723.92,-146.354 2729.04,-151.123"/>
</g>
<!-- 22 -->
<g id="node23" class="node"><title>22</title>
<path fill="#d3e4ff" stroke="black" d="M3065.5,-141C3065.5,-141 3031.5,-141 3031.5,-141 3025.5,-141 3019.5,-135 3019.5,-129 3019.5,-129 3019.5,-117 3019.5,-117 3019.5,-111 3025.5,-105 3031.5,-105 3031.5,-105 3065.5,-105 3065.5,-105 3071.5,-105 3077.5,-111 3077.5,-117 3077.5,-117 3077.5,-129 3077.5,-129 3077.5,-135 3071.5,-141 3065.5,-141"/>
<text text-anchor="middle" x="3048.5" y="-119.3" font-family="Times,serif" font-size="14.00">comp 0</text>
</g>
<!-- 8&#45;&gt;22 -->
<g id="edge22" class="edge"><title>8&#45;&gt;22</title>
<path fill="none" stroke="black" d="M3048.5,-177.831C3048.5,-169.894 3048.5,-160.409 3048.5,-151.628"/>
<polygon fill="black" stroke="black" points="3052,-151.418 3048.5,-141.418 3045,-151.418 3052,-151.418"/>
</g>
<!-- 23 -->
<g id="node24" class="node"><title>23</title>
<path fill="#bfcfe6" stroke="black" d="M3284.5,-141C3284.5,-141 3250.5,-141 3250.5,-141 3244.5,-141 3238.5,-135 3238.5,-129 3238.5,-129 3238.5,-117 3238.5,-117 3238.5,-111 3244.5,-105 3250.5,-105 3250.5,-105 3284.5,-105 3284.5,-105 3290.5,-105 3296.5,-111 3296.5,-117 3296.5,-117 3296.5,-129 3296.5,-129 3296.5,-135 3290.5,-141 3284.5,-141"/>
<text text-anchor="middle" x="3267.5" y="-119.3" font-family="Times,serif" font-size="14.00">comp 1</text>
</g>
<!-- 8&#45;&gt;23 -->
<g id="edge23" class="edge"><title>8&#45;&gt;23</title>
<path fill="none" stroke="black" d="M3103.48,-177.924C3142.46,-165.11 3193.81,-148.227 3228.6,-136.791"/>
<polygon fill="black" stroke="black" points="3229.98,-140.021 3238.38,-133.572 3227.79,-133.371 3229.98,-140.021"/>
</g>
<!-- 24 -->
<g id="node25" class="node"><title>24</title>
<path fill="#d3e4ff" stroke="black" d="M3606.5,-141C3606.5,-141 3572.5,-141 3572.5,-141 3566.5,-141 3560.5,-135 3560.5,-129 3560.5,-129 3560.5,-117 3560.5,-117 3560.5,-111 3566.5,-105 3572.5,-105 3572.5,-105 3606.5,-105 3606.5,-105 3612.5,-105 3618.5,-111 3618.5,-117 3618.5,-117 3618.5,-129 3618.5,-129 3618.5,-135 3612.5,-141 3606.5,-141"/>
<text text-anchor="middle" x="3589.5" y="-119.3" font-family="Times,serif" font-size="14.00">comp 0</text>
</g>
<!-- 9&#45;&gt;24 -->
<g id="edge24" class="edge"><title>9&#45;&gt;24</title>
<path fill="none" stroke="black" d="M3589.5,-177.831C3589.5,-169.894 3589.5,-160.409 3589.5,-151.628"/>
<polygon fill="black" stroke="black" points="3593,-151.418 3589.5,-141.418 3586,-151.418 3593,-151.418"/>
</g>
<!-- 25 -->
<g id="node26" class="node"><title>25</title>
<path fill="#bfcfe6" stroke="black" d="M3841.5,-142C3841.5,-142 3785.5,-142 3785.5,-142 3779.5,-142 3773.5,-136 3773.5,-130 3773.5,-130 3773.5,-116 3773.5,-116 3773.5,-110 3779.5,-104 3785.5,-104 3785.5,-104 3841.5,-104 3841.5,-104 3847.5,-104 3853.5,-110 3853.5,-116 3853.5,-116 3853.5,-130 3853.5,-130 3853.5,-136 3847.5,-142 3841.5,-142"/>
<text text-anchor="middle" x="3813.5" y="-126.8" font-family="Times,serif" font-size="14.00">comp 1</text>
<text text-anchor="middle" x="3813.5" y="-111.8" font-family="Times,serif" font-size="14.00">n kernels: 4</text>
</g>
<!-- 9&#45;&gt;25 -->
<g id="edge25" class="edge"><title>9&#45;&gt;25</title>
<path fill="none" stroke="black" d="M3639.21,-180.021C3676.25,-168.117 3726.6,-151.931 3763.66,-140.018"/>
<polygon fill="black" stroke="black" points="3764.81,-143.325 3773.26,-136.933 3762.67,-136.661 3764.81,-143.325"/>
</g>
<!-- 26 -->
<g id="node27" class="node"><title>26</title>
<path fill="#f6d3ff" stroke="black" d="M151,-68C151,-68 12,-68 12,-68 6,-68 0,-62 0,-56 0,-56 0,-12 0,-12 0,-6 6,-0 12,-0 12,-0 151,-0 151,-0 157,-0 163,-6 163,-12 163,-12 163,-56 163,-56 163,-62 157,-68 151,-68"/>
<text text-anchor="middle" x="81.5" y="-52.8" font-family="Times,serif" font-size="14.00">forward</text>
<text text-anchor="middle" x="81.5" y="-37.8" font-family="Times,serif" font-size="14.00">input</text>
<text text-anchor="middle" x="81.5" y="-22.8" font-family="Times,serif" font-size="14.00">dilation rate: 1 &#160;&#160;k width: 3</text>
<text text-anchor="middle" x="81.5" y="-7.8" font-family="Times,serif" font-size="14.00">n kernels: 64</text>
</g>
<!-- 10&#45;&gt;26 -->
<g id="edge26" class="edge"><title>10&#45;&gt;26</title>
<path fill="none" stroke="black" d="M118.412,-104.812C114.162,-96.7738 108.897,-86.8162 103.688,-76.9638"/>
<polygon fill="black" stroke="black" points="106.718,-75.2078 98.9501,-68.0034 100.53,-78.4797 106.718,-75.2078"/>
</g>
<!-- 27 -->
<g id="node28" class="node"><title>27</title>
<path fill="#f6d3ff" stroke="black" d="M332,-68C332,-68 193,-68 193,-68 187,-68 181,-62 181,-56 181,-56 181,-12 181,-12 181,-6 187,-0 193,-0 193,-0 332,-0 332,-0 338,-0 344,-6 344,-12 344,-12 344,-56 344,-56 344,-62 338,-68 332,-68"/>
<text text-anchor="middle" x="262.5" y="-52.8" font-family="Times,serif" font-size="14.00">forward</text>
<text text-anchor="middle" x="262.5" y="-37.8" font-family="Times,serif" font-size="14.00">EB0/C0</text>
<text text-anchor="middle" x="262.5" y="-22.8" font-family="Times,serif" font-size="14.00">dilation rate: 1 &#160;&#160;k width: 3</text>
<text text-anchor="middle" x="262.5" y="-7.8" font-family="Times,serif" font-size="14.00">n kernels: 64</text>
</g>
<!-- 11&#45;&gt;27 -->
<g id="edge27" class="edge"><title>11&#45;&gt;27</title>
<path fill="none" stroke="black" d="M262.5,-103.974C262.5,-96.4519 262.5,-87.3613 262.5,-78.2833"/>
<polygon fill="black" stroke="black" points="266,-78.1236 262.5,-68.1236 259,-78.1237 266,-78.1236"/>
</g>
<!-- 28 -->
<g id="node29" class="node"><title>28</title>
<path fill="#f6d3ff" stroke="black" d="M513,-68C513,-68 374,-68 374,-68 368,-68 362,-62 362,-56 362,-56 362,-12 362,-12 362,-6 368,-0 374,-0 374,-0 513,-0 513,-0 519,-0 525,-6 525,-12 525,-12 525,-56 525,-56 525,-62 519,-68 513,-68"/>
<text text-anchor="middle" x="443.5" y="-52.8" font-family="Times,serif" font-size="14.00">forward</text>
<text text-anchor="middle" x="443.5" y="-37.8" font-family="Times,serif" font-size="14.00">EB0/C1</text>
<text text-anchor="middle" x="443.5" y="-22.8" font-family="Times,serif" font-size="14.00">dilation rate: 1 &#160;&#160;k width: 3</text>
<text text-anchor="middle" x="443.5" y="-7.8" font-family="Times,serif" font-size="14.00">n kernels: 64</text>
</g>
<!-- 12&#45;&gt;28 -->
<g id="edge28" class="edge"><title>12&#45;&gt;28</title>
<path fill="none" stroke="black" d="M532.57,-104.812C521.373,-96.0357 507.256,-84.9711 493.582,-74.2536"/>
<polygon fill="black" stroke="black" points="495.637,-71.4175 485.608,-68.0034 491.319,-76.9269 495.637,-71.4175"/>
</g>
<!-- 29 -->
<g id="node30" class="node"><title>29</title>
<path fill="#f6d3ff" stroke="black" d="M694,-68C694,-68 555,-68 555,-68 549,-68 543,-62 543,-56 543,-56 543,-12 543,-12 543,-6 549,-0 555,-0 555,-0 694,-0 694,-0 700,-0 706,-6 706,-12 706,-12 706,-56 706,-56 706,-62 700,-68 694,-68"/>
<text text-anchor="middle" x="624.5" y="-52.8" font-family="Times,serif" font-size="14.00">forward</text>
<text text-anchor="middle" x="624.5" y="-37.8" font-family="Times,serif" font-size="14.00">EB1/C0</text>
<text text-anchor="middle" x="624.5" y="-22.8" font-family="Times,serif" font-size="14.00">dilation rate: 1 &#160;&#160;k width: 3</text>
<text text-anchor="middle" x="624.5" y="-7.8" font-family="Times,serif" font-size="14.00">n kernels: 64</text>
</g>
<!-- 13&#45;&gt;29 -->
<g id="edge29" class="edge"><title>13&#45;&gt;29</title>
<path fill="none" stroke="black" d="M730.735,-103.974C717.157,-95.1578 700.259,-84.1869 683.964,-73.6071"/>
<polygon fill="black" stroke="black" points="685.811,-70.6336 675.518,-68.1236 681.999,-76.5047 685.811,-70.6336"/>
</g>
<!-- 30 -->
<g id="node31" class="node"><title>30</title>
<path fill="#f6d3ff" stroke="black" d="M875,-68C875,-68 736,-68 736,-68 730,-68 724,-62 724,-56 724,-56 724,-12 724,-12 724,-6 730,-0 736,-0 736,-0 875,-0 875,-0 881,-0 887,-6 887,-12 887,-12 887,-56 887,-56 887,-62 881,-68 875,-68"/>
<text text-anchor="middle" x="805.5" y="-52.8" font-family="Times,serif" font-size="14.00">forward</text>
<text text-anchor="middle" x="805.5" y="-37.8" font-family="Times,serif" font-size="14.00">EB1/C1</text>
<text text-anchor="middle" x="805.5" y="-22.8" font-family="Times,serif" font-size="14.00">dilation rate: 1 &#160;&#160;k width: 3</text>
<text text-anchor="middle" x="805.5" y="-7.8" font-family="Times,serif" font-size="14.00">n kernels: 64</text>
</g>
<!-- 14&#45;&gt;30 -->
<g id="edge30" class="edge"><title>14&#45;&gt;30</title>
<path fill="none" stroke="black" d="M896.977,-104.812C885.478,-96.0357 870.979,-84.9711 856.936,-74.2536"/>
<polygon fill="black" stroke="black" points="858.819,-71.2878 848.746,-68.0034 854.572,-76.8525 858.819,-71.2878"/>
</g>
<!-- 31 -->
<g id="node32" class="node"><title>31</title>
<path fill="#debfe6" stroke="black" d="M1056,-68C1056,-68 917,-68 917,-68 911,-68 905,-62 905,-56 905,-56 905,-12 905,-12 905,-6 911,-0 917,-0 917,-0 1056,-0 1056,-0 1062,-0 1068,-6 1068,-12 1068,-12 1068,-56 1068,-56 1068,-62 1062,-68 1056,-68"/>
<text text-anchor="middle" x="986.5" y="-52.8" font-family="Times,serif" font-size="14.00">residual</text>
<text text-anchor="middle" x="986.5" y="-37.8" font-family="Times,serif" font-size="14.00">EB1/C0</text>
<text text-anchor="middle" x="986.5" y="-22.8" font-family="Times,serif" font-size="14.00">dilation rate: 1 &#160;&#160;k width: 3</text>
<text text-anchor="middle" x="986.5" y="-7.8" font-family="Times,serif" font-size="14.00">n kernels: 64</text>
</g>
<!-- 14&#45;&gt;31 -->
<g id="edge31" class="edge"><title>14&#45;&gt;31</title>
<path fill="none" stroke="black" d="M932.737,-104.812C939.117,-96.5278 947.066,-86.2048 954.88,-76.0594"/>
<polygon fill="black" stroke="black" points="957.755,-78.0618 961.084,-68.0034 952.209,-73.7907 957.755,-78.0618"/>
</g>
<!-- 32 -->
<g id="node33" class="node"><title>32</title>
<path fill="#f6d3ff" stroke="black" d="M1237,-68C1237,-68 1098,-68 1098,-68 1092,-68 1086,-62 1086,-56 1086,-56 1086,-12 1086,-12 1086,-6 1092,-0 1098,-0 1098,-0 1237,-0 1237,-0 1243,-0 1249,-6 1249,-12 1249,-12 1249,-56 1249,-56 1249,-62 1243,-68 1237,-68"/>
<text text-anchor="middle" x="1167.5" y="-52.8" font-family="Times,serif" font-size="14.00">forward</text>
<text text-anchor="middle" x="1167.5" y="-37.8" font-family="Times,serif" font-size="14.00">EB1/C2</text>
<text text-anchor="middle" x="1167.5" y="-22.8" font-family="Times,serif" font-size="14.00">dilation rate: 1 &#160;&#160;k width: 3</text>
<text text-anchor="middle" x="1167.5" y="-7.8" font-family="Times,serif" font-size="14.00">n kernels: 64</text>
</g>
<!-- 15&#45;&gt;32 -->
<g id="edge32" class="edge"><title>15&#45;&gt;32</title>
<path fill="none" stroke="black" d="M1239.72,-104.812C1230.89,-96.2817 1219.83,-85.5897 1209.04,-75.1559"/>
<polygon fill="black" stroke="black" points="1211.26,-72.4372 1201.64,-68.0034 1206.4,-77.4701 1211.26,-72.4372"/>
</g>
<!-- 33 -->
<g id="node34" class="node"><title>33</title>
<path fill="#debfe6" stroke="black" d="M1418,-68C1418,-68 1279,-68 1279,-68 1273,-68 1267,-62 1267,-56 1267,-56 1267,-12 1267,-12 1267,-6 1273,-0 1279,-0 1279,-0 1418,-0 1418,-0 1424,-0 1430,-6 1430,-12 1430,-12 1430,-56 1430,-56 1430,-62 1424,-68 1418,-68"/>
<text text-anchor="middle" x="1348.5" y="-52.8" font-family="Times,serif" font-size="14.00">residual</text>
<text text-anchor="middle" x="1348.5" y="-37.8" font-family="Times,serif" font-size="14.00">EB1/C0</text>
<text text-anchor="middle" x="1348.5" y="-22.8" font-family="Times,serif" font-size="14.00">dilation rate: 1 &#160;&#160;k width: 3</text>
<text text-anchor="middle" x="1348.5" y="-7.8" font-family="Times,serif" font-size="14.00">n kernels: 64</text>
</g>
<!-- 15&#45;&gt;33 -->
<g id="edge33" class="edge"><title>15&#45;&gt;33</title>
<path fill="none" stroke="black" d="M1275.48,-104.812C1284.4,-96.2817 1295.58,-85.5897 1306.5,-75.1559"/>
<polygon fill="black" stroke="black" points="1309.17,-77.4437 1313.98,-68.0034 1304.33,-72.384 1309.17,-77.4437"/>
</g>
<!-- 34 -->
<g id="node35" class="node"><title>34</title>
<path fill="#c7abce" stroke="black" d="M1599,-68C1599,-68 1460,-68 1460,-68 1454,-68 1448,-62 1448,-56 1448,-56 1448,-12 1448,-12 1448,-6 1454,-0 1460,-0 1460,-0 1599,-0 1599,-0 1605,-0 1611,-6 1611,-12 1611,-12 1611,-56 1611,-56 1611,-62 1605,-68 1599,-68"/>
<text text-anchor="middle" x="1529.5" y="-52.8" font-family="Times,serif" font-size="14.00">residual</text>
<text text-anchor="middle" x="1529.5" y="-37.8" font-family="Times,serif" font-size="14.00">EB1/C1</text>
<text text-anchor="middle" x="1529.5" y="-22.8" font-family="Times,serif" font-size="14.00">dilation rate: 1 &#160;&#160;k width: 3</text>
<text text-anchor="middle" x="1529.5" y="-7.8" font-family="Times,serif" font-size="14.00">n kernels: 64</text>
</g>
<!-- 15&#45;&gt;34 -->
<g id="edge34" class="edge"><title>15&#45;&gt;34</title>
<path fill="none" stroke="black" d="M1286.5,-113.908C1320.56,-104.284 1378.94,-87.4078 1438.21,-68.0371"/>
<polygon fill="black" stroke="black" points="1439.32,-71.3564 1447.73,-64.9076 1437.13,-64.7067 1439.32,-71.3564"/>
</g>
<!-- 35 -->
<g id="node36" class="node"><title>35</title>
<path fill="#f6d3ff" stroke="black" d="M1780,-68C1780,-68 1641,-68 1641,-68 1635,-68 1629,-62 1629,-56 1629,-56 1629,-12 1629,-12 1629,-6 1635,-0 1641,-0 1641,-0 1780,-0 1780,-0 1786,-0 1792,-6 1792,-12 1792,-12 1792,-56 1792,-56 1792,-62 1786,-68 1780,-68"/>
<text text-anchor="middle" x="1710.5" y="-52.8" font-family="Times,serif" font-size="14.00">forward</text>
<text text-anchor="middle" x="1710.5" y="-37.8" font-family="Times,serif" font-size="14.00">EB1/C3</text>
<text text-anchor="middle" x="1710.5" y="-22.8" font-family="Times,serif" font-size="14.00">dilation rate: 1 &#160;&#160;k width: 3</text>
<text text-anchor="middle" x="1710.5" y="-7.8" font-family="Times,serif" font-size="14.00">n kernels: 64</text>
</g>
<!-- 16&#45;&gt;35 -->
<g id="edge35" class="edge"><title>16&#45;&gt;35</title>
<path fill="none" stroke="black" d="M1710.5,-103.974C1710.5,-96.4519 1710.5,-87.3613 1710.5,-78.2833"/>
<polygon fill="black" stroke="black" points="1714,-78.1236 1710.5,-68.1236 1707,-78.1237 1714,-78.1236"/>
</g>
<!-- 36 -->
<g id="node37" class="node"><title>36</title>
<path fill="#f6d3ff" stroke="black" d="M1961,-68C1961,-68 1822,-68 1822,-68 1816,-68 1810,-62 1810,-56 1810,-56 1810,-12 1810,-12 1810,-6 1816,-0 1822,-0 1822,-0 1961,-0 1961,-0 1967,-0 1973,-6 1973,-12 1973,-12 1973,-56 1973,-56 1973,-62 1967,-68 1961,-68"/>
<text text-anchor="middle" x="1891.5" y="-52.8" font-family="Times,serif" font-size="14.00">forward</text>
<text text-anchor="middle" x="1891.5" y="-37.8" font-family="Times,serif" font-size="14.00">EB2/C0</text>
<text text-anchor="middle" x="1891.5" y="-22.8" font-family="Times,serif" font-size="14.00">dilation rate: 1 &#160;&#160;k width: 3</text>
<text text-anchor="middle" x="1891.5" y="-7.8" font-family="Times,serif" font-size="14.00">n kernels: 64</text>
</g>
<!-- 17&#45;&gt;36 -->
<g id="edge36" class="edge"><title>17&#45;&gt;36</title>
<path fill="none" stroke="black" d="M1862.17,-103.974C1865.47,-96.2092 1869.48,-86.7732 1873.47,-77.4049"/>
<polygon fill="black" stroke="black" points="1876.72,-78.6958 1877.41,-68.1236 1870.28,-75.9562 1876.72,-78.6958"/>
</g>
<!-- 37 -->
<g id="node38" class="node"><title>37</title>
<path fill="#f6d3ff" stroke="black" d="M2142,-68C2142,-68 2003,-68 2003,-68 1997,-68 1991,-62 1991,-56 1991,-56 1991,-12 1991,-12 1991,-6 1997,-0 2003,-0 2003,-0 2142,-0 2142,-0 2148,-0 2154,-6 2154,-12 2154,-12 2154,-56 2154,-56 2154,-62 2148,-68 2142,-68"/>
<text text-anchor="middle" x="2072.5" y="-52.8" font-family="Times,serif" font-size="14.00">forward</text>
<text text-anchor="middle" x="2072.5" y="-37.8" font-family="Times,serif" font-size="14.00">EB2/C1</text>
<text text-anchor="middle" x="2072.5" y="-22.8" font-family="Times,serif" font-size="14.00">dilation rate: 1 &#160;&#160;k width: 3</text>
<text text-anchor="middle" x="2072.5" y="-7.8" font-family="Times,serif" font-size="14.00">n kernels: 64</text>
</g>
<!-- 18&#45;&gt;37 -->
<g id="edge37" class="edge"><title>18&#45;&gt;37</title>
<path fill="none" stroke="black" d="M2114.23,-104.812C2109.37,-96.6918 2103.35,-86.6128 2097.4,-76.6623"/>
<polygon fill="black" stroke="black" points="2100.36,-74.7914 2092.23,-68.0034 2094.35,-78.3827 2100.36,-74.7914"/>
</g>
<!-- 38 -->
<g id="node39" class="node"><title>38</title>
<path fill="#f6d3ff" stroke="black" d="M2323,-68C2323,-68 2184,-68 2184,-68 2178,-68 2172,-62 2172,-56 2172,-56 2172,-12 2172,-12 2172,-6 2178,-0 2184,-0 2184,-0 2323,-0 2323,-0 2329,-0 2335,-6 2335,-12 2335,-12 2335,-56 2335,-56 2335,-62 2329,-68 2323,-68"/>
<text text-anchor="middle" x="2253.5" y="-52.8" font-family="Times,serif" font-size="14.00">forward</text>
<text text-anchor="middle" x="2253.5" y="-37.8" font-family="Times,serif" font-size="14.00">DB3/C0</text>
<text text-anchor="middle" x="2253.5" y="-22.8" font-family="Times,serif" font-size="14.00">dilation rate: 1 &#160;&#160;k width: 3</text>
<text text-anchor="middle" x="2253.5" y="-7.8" font-family="Times,serif" font-size="14.00">n kernels: 64</text>
</g>
<!-- 19&#45;&gt;38 -->
<g id="edge38" class="edge"><title>19&#45;&gt;38</title>
<path fill="none" stroke="black" d="M2253.5,-104.812C2253.5,-97.1019 2253.5,-87.6259 2253.5,-78.1706"/>
<polygon fill="black" stroke="black" points="2257,-78.0034 2253.5,-68.0034 2250,-78.0034 2257,-78.0034"/>
</g>
<!-- 39 -->
<g id="node40" class="node"><title>39</title>
<path fill="#f6d3ff" stroke="black" d="M2504,-68C2504,-68 2365,-68 2365,-68 2359,-68 2353,-62 2353,-56 2353,-56 2353,-12 2353,-12 2353,-6 2359,-0 2365,-0 2365,-0 2504,-0 2504,-0 2510,-0 2516,-6 2516,-12 2516,-12 2516,-56 2516,-56 2516,-62 2510,-68 2504,-68"/>
<text text-anchor="middle" x="2434.5" y="-52.8" font-family="Times,serif" font-size="14.00">forward</text>
<text text-anchor="middle" x="2434.5" y="-37.8" font-family="Times,serif" font-size="14.00">DB3/C1</text>
<text text-anchor="middle" x="2434.5" y="-22.8" font-family="Times,serif" font-size="14.00">dilation rate: 1 &#160;&#160;k width: 3</text>
<text text-anchor="middle" x="2434.5" y="-7.8" font-family="Times,serif" font-size="14.00">n kernels: 64</text>
</g>
<!-- 20&#45;&gt;39 -->
<g id="edge39" class="edge"><title>20&#45;&gt;39</title>
<path fill="none" stroke="black" d="M2578,-103.974C2559.07,-94.8748 2535.36,-83.4802 2512.7,-72.5892"/>
<polygon fill="black" stroke="black" points="2513.94,-69.3013 2503.41,-68.1236 2510.91,-75.6104 2513.94,-69.3013"/>
</g>
<!-- 40 -->
<g id="node41" class="node"><title>40</title>
<path fill="#debfe6" stroke="black" d="M2685,-68C2685,-68 2546,-68 2546,-68 2540,-68 2534,-62 2534,-56 2534,-56 2534,-12 2534,-12 2534,-6 2540,-0 2546,-0 2546,-0 2685,-0 2685,-0 2691,-0 2697,-6 2697,-12 2697,-12 2697,-56 2697,-56 2697,-62 2691,-68 2685,-68"/>
<text text-anchor="middle" x="2615.5" y="-52.8" font-family="Times,serif" font-size="14.00">merge</text>
<text text-anchor="middle" x="2615.5" y="-37.8" font-family="Times,serif" font-size="14.00">EB2/C1</text>
<text text-anchor="middle" x="2615.5" y="-22.8" font-family="Times,serif" font-size="14.00">dilation rate: 1 &#160;&#160;k width: 3</text>
<text text-anchor="middle" x="2615.5" y="-7.8" font-family="Times,serif" font-size="14.00">n kernels: 64</text>
</g>
<!-- 20&#45;&gt;40 -->
<g id="edge40" class="edge"><title>20&#45;&gt;40</title>
<path fill="none" stroke="black" d="M2615.5,-103.974C2615.5,-96.4519 2615.5,-87.3613 2615.5,-78.2833"/>
<polygon fill="black" stroke="black" points="2619,-78.1236 2615.5,-68.1236 2612,-78.1237 2619,-78.1236"/>
</g>
<!-- 41 -->
<g id="node42" class="node"><title>41</title>
<path fill="#f6d3ff" stroke="black" d="M2866,-68C2866,-68 2727,-68 2727,-68 2721,-68 2715,-62 2715,-56 2715,-56 2715,-12 2715,-12 2715,-6 2721,-0 2727,-0 2727,-0 2866,-0 2866,-0 2872,-0 2878,-6 2878,-12 2878,-12 2878,-56 2878,-56 2878,-62 2872,-68 2866,-68"/>
<text text-anchor="middle" x="2796.5" y="-52.8" font-family="Times,serif" font-size="14.00">forward</text>
<text text-anchor="middle" x="2796.5" y="-37.8" font-family="Times,serif" font-size="14.00">DB2/C0</text>
<text text-anchor="middle" x="2796.5" y="-22.8" font-family="Times,serif" font-size="14.00">dilation rate: 1 &#160;&#160;k width: 3</text>
<text text-anchor="middle" x="2796.5" y="-7.8" font-family="Times,serif" font-size="14.00">n kernels: 64</text>
</g>
<!-- 21&#45;&gt;41 -->
<g id="edge41" class="edge"><title>21&#45;&gt;41</title>
<path fill="none" stroke="black" d="M2758.79,-104.812C2763.13,-96.7738 2768.51,-86.8162 2773.83,-76.9638"/>
<polygon fill="black" stroke="black" points="2777,-78.4652 2778.67,-68.0034 2770.84,-75.138 2777,-78.4652"/>
</g>
<!-- 42 -->
<g id="node43" class="node"><title>42</title>
<path fill="#f6d3ff" stroke="black" d="M3047,-68C3047,-68 2908,-68 2908,-68 2902,-68 2896,-62 2896,-56 2896,-56 2896,-12 2896,-12 2896,-6 2902,-0 2908,-0 2908,-0 3047,-0 3047,-0 3053,-0 3059,-6 3059,-12 3059,-12 3059,-56 3059,-56 3059,-62 3053,-68 3047,-68"/>
<text text-anchor="middle" x="2977.5" y="-52.8" font-family="Times,serif" font-size="14.00">forward</text>
<text text-anchor="middle" x="2977.5" y="-37.8" font-family="Times,serif" font-size="14.00">DB2/C1</text>
<text text-anchor="middle" x="2977.5" y="-22.8" font-family="Times,serif" font-size="14.00">dilation rate: 1 &#160;&#160;k width: 3</text>
<text text-anchor="middle" x="2977.5" y="-7.8" font-family="Times,serif" font-size="14.00">n kernels: 64</text>
</g>
<!-- 22&#45;&gt;42 -->
<g id="edge42" class="edge"><title>22&#45;&gt;42</title>
<path fill="none" stroke="black" d="M3034.47,-104.812C3027.65,-96.4457 3019.12,-86.0002 3010.76,-75.7581"/>
<polygon fill="black" stroke="black" points="3013.47,-73.538 3004.43,-68.0034 3008.04,-77.9639 3013.47,-73.538"/>
</g>
<!-- 43 -->
<g id="node44" class="node"><title>43</title>
<path fill="#debfe6" stroke="black" d="M3228,-68C3228,-68 3089,-68 3089,-68 3083,-68 3077,-62 3077,-56 3077,-56 3077,-12 3077,-12 3077,-6 3083,-0 3089,-0 3089,-0 3228,-0 3228,-0 3234,-0 3240,-6 3240,-12 3240,-12 3240,-56 3240,-56 3240,-62 3234,-68 3228,-68"/>
<text text-anchor="middle" x="3158.5" y="-52.8" font-family="Times,serif" font-size="14.00">merge</text>
<text text-anchor="middle" x="3158.5" y="-37.8" font-family="Times,serif" font-size="14.00">EB1/C3</text>
<text text-anchor="middle" x="3158.5" y="-22.8" font-family="Times,serif" font-size="14.00">dilation rate: 1 &#160;&#160;k width: 3</text>
<text text-anchor="middle" x="3158.5" y="-7.8" font-family="Times,serif" font-size="14.00">n kernels: 64</text>
</g>
<!-- 22&#45;&gt;43 -->
<g id="edge43" class="edge"><title>22&#45;&gt;43</title>
<path fill="none" stroke="black" d="M3070.23,-104.812C3081.33,-96.0357 3095.32,-84.9711 3108.87,-74.2536"/>
<polygon fill="black" stroke="black" points="3111.1,-76.952 3116.77,-68.0034 3106.76,-71.4616 3111.1,-76.952"/>
</g>
<!-- 44 -->
<g id="node45" class="node"><title>44</title>
<path fill="#f6d3ff" stroke="black" d="M3409,-68C3409,-68 3270,-68 3270,-68 3264,-68 3258,-62 3258,-56 3258,-56 3258,-12 3258,-12 3258,-6 3264,-0 3270,-0 3270,-0 3409,-0 3409,-0 3415,-0 3421,-6 3421,-12 3421,-12 3421,-56 3421,-56 3421,-62 3415,-68 3409,-68"/>
<text text-anchor="middle" x="3339.5" y="-52.8" font-family="Times,serif" font-size="14.00">forward</text>
<text text-anchor="middle" x="3339.5" y="-37.8" font-family="Times,serif" font-size="14.00">DB1/C0</text>
<text text-anchor="middle" x="3339.5" y="-22.8" font-family="Times,serif" font-size="14.00">dilation rate: 1 &#160;&#160;k width: 3</text>
<text text-anchor="middle" x="3339.5" y="-7.8" font-family="Times,serif" font-size="14.00">n kernels: 64</text>
</g>
<!-- 23&#45;&gt;44 -->
<g id="edge44" class="edge"><title>23&#45;&gt;44</title>
<path fill="none" stroke="black" d="M3281.72,-104.812C3288.65,-96.4457 3297.29,-86.0002 3305.77,-75.7581"/>
<polygon fill="black" stroke="black" points="3308.51,-77.9389 3312.19,-68.0034 3303.11,-73.4759 3308.51,-77.9389"/>
</g>
<!-- 45 -->
<g id="node46" class="node"><title>45</title>
<path fill="#f6d3ff" stroke="black" d="M3590,-68C3590,-68 3451,-68 3451,-68 3445,-68 3439,-62 3439,-56 3439,-56 3439,-12 3439,-12 3439,-6 3445,-0 3451,-0 3451,-0 3590,-0 3590,-0 3596,-0 3602,-6 3602,-12 3602,-12 3602,-56 3602,-56 3602,-62 3596,-68 3590,-68"/>
<text text-anchor="middle" x="3520.5" y="-52.8" font-family="Times,serif" font-size="14.00">forward</text>
<text text-anchor="middle" x="3520.5" y="-37.8" font-family="Times,serif" font-size="14.00">DB1/C1</text>
<text text-anchor="middle" x="3520.5" y="-22.8" font-family="Times,serif" font-size="14.00">dilation rate: 1 &#160;&#160;k width: 3</text>
<text text-anchor="middle" x="3520.5" y="-7.8" font-family="Times,serif" font-size="14.00">n kernels: 64</text>
</g>
<!-- 24&#45;&gt;45 -->
<g id="edge45" class="edge"><title>24&#45;&gt;45</title>
<path fill="none" stroke="black" d="M3575.87,-104.812C3569.3,-96.5278 3561.11,-86.2048 3553.06,-76.0594"/>
<polygon fill="black" stroke="black" points="3555.63,-73.6635 3546.68,-68.0034 3550.15,-78.0133 3555.63,-73.6635"/>
</g>
<!-- 46 -->
<g id="node47" class="node"><title>46</title>
<path fill="#debfe6" stroke="black" d="M3771,-68C3771,-68 3632,-68 3632,-68 3626,-68 3620,-62 3620,-56 3620,-56 3620,-12 3620,-12 3620,-6 3626,-0 3632,-0 3632,-0 3771,-0 3771,-0 3777,-0 3783,-6 3783,-12 3783,-12 3783,-56 3783,-56 3783,-62 3777,-68 3771,-68"/>
<text text-anchor="middle" x="3701.5" y="-52.8" font-family="Times,serif" font-size="14.00">merge</text>
<text text-anchor="middle" x="3701.5" y="-37.8" font-family="Times,serif" font-size="14.00">EB0/C1</text>
<text text-anchor="middle" x="3701.5" y="-22.8" font-family="Times,serif" font-size="14.00">dilation rate: 1 &#160;&#160;k width: 3</text>
<text text-anchor="middle" x="3701.5" y="-7.8" font-family="Times,serif" font-size="14.00">n kernels: 64</text>
</g>
<!-- 24&#45;&gt;46 -->
<g id="edge46" class="edge"><title>24&#45;&gt;46</title>
<path fill="none" stroke="black" d="M3611.63,-104.812C3622.93,-96.0357 3637.17,-84.9711 3650.97,-74.2536"/>
<polygon fill="black" stroke="black" points="3653.26,-76.902 3659.01,-68.0034 3648.97,-71.3739 3653.26,-76.902"/>
</g>
<!-- 47 -->
<g id="node48" class="node"><title>47</title>
<path fill="#f6d3ff" stroke="black" d="M3952,-68C3952,-68 3813,-68 3813,-68 3807,-68 3801,-62 3801,-56 3801,-56 3801,-12 3801,-12 3801,-6 3807,-0 3813,-0 3813,-0 3952,-0 3952,-0 3958,-0 3964,-6 3964,-12 3964,-12 3964,-56 3964,-56 3964,-62 3958,-68 3952,-68"/>
<text text-anchor="middle" x="3882.5" y="-52.8" font-family="Times,serif" font-size="14.00">forward</text>
<text text-anchor="middle" x="3882.5" y="-37.8" font-family="Times,serif" font-size="14.00">DB0/C0</text>
<text text-anchor="middle" x="3882.5" y="-22.8" font-family="Times,serif" font-size="14.00">dilation rate: 1 &#160;&#160;k width: 3</text>
<text text-anchor="middle" x="3882.5" y="-7.8" font-family="Times,serif" font-size="14.00">n kernels: 64</text>
</g>
<!-- 25&#45;&gt;47 -->
<g id="edge47" class="edge"><title>25&#45;&gt;47</title>
<path fill="none" stroke="black" d="M3827.8,-103.974C3834.21,-95.8857 3842.06,-85.9839 3849.8,-76.2343"/>
<polygon fill="black" stroke="black" points="3852.76,-78.1335 3856.23,-68.1236 3847.27,-73.7837 3852.76,-78.1335"/>
</g>
</g>
</svg>
