<?xml version="1.0" encoding="UTF-8" standalone="no"?>
<!DOCTYPE svg PUBLIC "-//W3C//DTD SVG 1.1//EN"
 "http://www.w3.org/Graphics/SVG/1.1/DTD/svg11.dtd">
<!-- Generated by graphviz version 2.38.0 (20140413.2041)
 -->
<!-- Title: %3 Pages: 1 -->
<svg width="1979pt" height="357pt"
 viewBox="0.00 0.00 1978.50 357.00" xmlns="http://www.w3.org/2000/svg" xmlns:xlink="http://www.w3.org/1999/xlink">
<g id="graph0" class="graph" transform="scale(1 1) rotate(0) translate(4 353)">
<title>%3</title>
<polygon fill="none" stroke="none" points="-4,4 -4,-353 1974.5,-353 1974.5,4 -4,4"/>
<!-- 0 -->
<g id="node1" class="node"><title>0</title>
<path fill="#ffd3d3" stroke="black" d="M1051,-349C1051,-349 894,-349 894,-349 888,-349 882,-343 882,-337 882,-337 882,-323 882,-323 882,-317 888,-311 894,-311 894,-311 1051,-311 1051,-311 1057,-311 1063,-317 1063,-323 1063,-323 1063,-337 1063,-337 1063,-343 1057,-349 1051,-349"/>
<text text-anchor="middle" x="972.5" y="-333.8" font-family="Times,serif" font-size="14.00">net</text>
<text text-anchor="middle" x="972.5" y="-318.8" font-family="Times,serif" font-size="14.00">n kernels: 88 &#160;&#160;pooling type: 0</text>
</g>
<!-- 1 -->
<g id="node2" class="node"><title>1</title>
<path fill="#f6ffd3" stroke="black" d="M701,-275C701,-275 442,-275 442,-275 436,-275 430,-269 430,-263 430,-263 430,-249 430,-249 430,-243 436,-237 442,-237 442,-237 701,-237 701,-237 707,-237 713,-243 713,-249 713,-249 713,-263 713,-263 713,-269 707,-275 701,-275"/>
<text text-anchor="middle" x="571.5" y="-259.8" font-family="Times,serif" font-size="14.00">encoder</text>
<text text-anchor="middle" x="571.5" y="-244.8" font-family="Times,serif" font-size="14.00">log gamma1: 1.000000 &#160;&#160;log gamma2: 1.174852</text>
</g>
<!-- 0&#45;&gt;1 -->
<g id="edge1" class="edge"><title>0&#45;&gt;1</title>
<path fill="none" stroke="black" d="M881.507,-312.662C822.284,-302.029 744.674,-288.094 681.924,-276.827"/>
<polygon fill="black" stroke="black" points="682.447,-273.365 671.986,-275.042 681.21,-280.255 682.447,-273.365"/>
</g>
<!-- 2 -->
<g id="node3" class="node"><title>2</title>
<path fill="#f6ffd3" stroke="black" d="M1477.5,-275C1477.5,-275 1271.5,-275 1271.5,-275 1265.5,-275 1259.5,-269 1259.5,-263 1259.5,-263 1259.5,-249 1259.5,-249 1259.5,-243 1265.5,-237 1271.5,-237 1271.5,-237 1477.5,-237 1477.5,-237 1483.5,-237 1489.5,-243 1489.5,-249 1489.5,-249 1489.5,-263 1489.5,-263 1489.5,-269 1483.5,-275 1477.5,-275"/>
<text text-anchor="middle" x="1374.5" y="-259.8" font-family="Times,serif" font-size="14.00">decoder</text>
<text text-anchor="middle" x="1374.5" y="-244.8" font-family="Times,serif" font-size="14.00">log gamma1: 1.000000 &#160;&#160;n kernels: &#45;13</text>
</g>
<!-- 0&#45;&gt;2 -->
<g id="edge2" class="edge"><title>0&#45;&gt;2</title>
<path fill="none" stroke="black" d="M1063.22,-312.752C1122.68,-302.103 1200.79,-288.113 1263.88,-276.812"/>
<polygon fill="black" stroke="black" points="1264.65,-280.23 1273.88,-275.022 1263.42,-273.34 1264.65,-280.23"/>
</g>
<!-- 3 -->
<g id="node4" class="node"><title>3</title>
<path fill="#d3ffe4" stroke="black" d="M186,-193.5C186,-193.5 111,-193.5 111,-193.5 105,-193.5 99,-187.5 99,-181.5 99,-181.5 99,-167.5 99,-167.5 99,-161.5 105,-155.5 111,-155.5 111,-155.5 186,-155.5 186,-155.5 192,-155.5 198,-161.5 198,-167.5 198,-167.5 198,-181.5 198,-181.5 198,-187.5 192,-193.5 186,-193.5"/>
<text text-anchor="middle" x="148.5" y="-178.3" font-family="Times,serif" font-size="14.00">encode block 0</text>
<text text-anchor="middle" x="148.5" y="-163.3" font-family="Times,serif" font-size="14.00">n kernels: &#45;1</text>
</g>
<!-- 1&#45;&gt;3 -->
<g id="edge3" class="edge"><title>1&#45;&gt;3</title>
<path fill="none" stroke="black" d="M429.843,-238.918C365.967,-230.176 289.9,-217.686 222.5,-201 217.436,-199.746 212.227,-198.295 207.03,-196.734"/>
<polygon fill="black" stroke="black" points="207.681,-193.27 197.091,-193.619 205.587,-199.95 207.681,-193.27"/>
</g>
<!-- 4 -->
<g id="node5" class="node"><title>4</title>
<path fill="#bfe6cf" stroke="black" d="M449.5,-201C449.5,-201 243.5,-201 243.5,-201 237.5,-201 231.5,-195 231.5,-189 231.5,-189 231.5,-160 231.5,-160 231.5,-154 237.5,-148 243.5,-148 243.5,-148 449.5,-148 449.5,-148 455.5,-148 461.5,-154 461.5,-160 461.5,-160 461.5,-189 461.5,-189 461.5,-195 455.5,-201 449.5,-201"/>
<text text-anchor="middle" x="346.5" y="-185.8" font-family="Times,serif" font-size="14.00">encode block 1</text>
<text text-anchor="middle" x="346.5" y="-170.8" font-family="Times,serif" font-size="14.00">log gamma2: &#45;0.174852 &#160;&#160;n kernels: 88</text>
<text text-anchor="middle" x="346.5" y="-155.8" font-family="Times,serif" font-size="14.00">spatial scale: 1</text>
</g>
<!-- 1&#45;&gt;4 -->
<g id="edge4" class="edge"><title>1&#45;&gt;4</title>
<path fill="none" stroke="black" d="M520.444,-236.96C493.184,-227.328 458.98,-215.243 428.132,-204.343"/>
<polygon fill="black" stroke="black" points="429.273,-201.034 418.678,-201.003 426.941,-207.634 429.273,-201.034"/>
</g>
<!-- 5 -->
<g id="node6" class="node"><title>5</title>
<path fill="#abceb9" stroke="black" d="M652,-193.5C652,-193.5 491,-193.5 491,-193.5 485,-193.5 479,-187.5 479,-181.5 479,-181.5 479,-167.5 479,-167.5 479,-161.5 485,-155.5 491,-155.5 491,-155.5 652,-155.5 652,-155.5 658,-155.5 664,-161.5 664,-167.5 664,-167.5 664,-181.5 664,-181.5 664,-187.5 658,-193.5 652,-193.5"/>
<text text-anchor="middle" x="571.5" y="-178.3" font-family="Times,serif" font-size="14.00">encode block 2</text>
<text text-anchor="middle" x="571.5" y="-163.3" font-family="Times,serif" font-size="14.00">n kernels: 264 &#160;&#160;spatial scale: 2</text>
</g>
<!-- 1&#45;&gt;5 -->
<g id="edge5" class="edge"><title>1&#45;&gt;5</title>
<path fill="none" stroke="black" d="M571.5,-236.96C571.5,-227.17 571.5,-214.845 571.5,-203.807"/>
<polygon fill="black" stroke="black" points="575,-203.744 571.5,-193.744 568,-203.744 575,-203.744"/>
</g>
<!-- 6 -->
<g id="node7" class="node"><title>6</title>
<path fill="#97b6a3" stroke="black" d="M845.5,-193.5C845.5,-193.5 693.5,-193.5 693.5,-193.5 687.5,-193.5 681.5,-187.5 681.5,-181.5 681.5,-181.5 681.5,-167.5 681.5,-167.5 681.5,-161.5 687.5,-155.5 693.5,-155.5 693.5,-155.5 845.5,-155.5 845.5,-155.5 851.5,-155.5 857.5,-161.5 857.5,-167.5 857.5,-167.5 857.5,-181.5 857.5,-181.5 857.5,-187.5 851.5,-193.5 845.5,-193.5"/>
<text text-anchor="middle" x="769.5" y="-178.3" font-family="Times,serif" font-size="14.00">encode block 3</text>
<text text-anchor="middle" x="769.5" y="-163.3" font-family="Times,serif" font-size="14.00">n kernels: &#45;6 &#160;&#160;spatial scale: 3</text>
</g>
<!-- 1&#45;&gt;6 -->
<g id="edge6" class="edge"><title>1&#45;&gt;6</title>
<path fill="none" stroke="black" d="M616.429,-236.96C645.692,-225.211 684.046,-209.811 715.042,-197.366"/>
<polygon fill="black" stroke="black" points="716.43,-200.58 724.406,-193.606 713.822,-194.084 716.43,-200.58"/>
</g>
<!-- 7 -->
<g id="node8" class="node"><title>7</title>
<path fill="#d3ffe4" stroke="black" d="M1102.5,-193.5C1102.5,-193.5 934.5,-193.5 934.5,-193.5 928.5,-193.5 922.5,-187.5 922.5,-181.5 922.5,-181.5 922.5,-167.5 922.5,-167.5 922.5,-161.5 928.5,-155.5 934.5,-155.5 934.5,-155.5 1102.5,-155.5 1102.5,-155.5 1108.5,-155.5 1114.5,-161.5 1114.5,-167.5 1114.5,-167.5 1114.5,-181.5 1114.5,-181.5 1114.5,-187.5 1108.5,-193.5 1102.5,-193.5"/>
<text text-anchor="middle" x="1018.5" y="-178.3" font-family="Times,serif" font-size="14.00">decode block 4</text>
<text text-anchor="middle" x="1018.5" y="-163.3" font-family="Times,serif" font-size="14.00">n kernels: 1125 &#160;&#160;spatial scale: 4</text>
</g>
<!-- 2&#45;&gt;7 -->
<g id="edge7" class="edge"><title>2&#45;&gt;7</title>
<path fill="none" stroke="black" d="M1287.83,-236.942C1239.42,-226.706 1178.03,-213.485 1123.5,-201 1116.32,-199.355 1108.86,-197.615 1101.4,-195.847"/>
<polygon fill="black" stroke="black" points="1102.13,-192.423 1091.59,-193.512 1100.51,-199.233 1102.13,-192.423"/>
</g>
<!-- 8 -->
<g id="node9" class="node"><title>8</title>
<path fill="#bfe6cf" stroke="black" d="M1354,-201C1354,-201 1145,-201 1145,-201 1139,-201 1133,-195 1133,-189 1133,-189 1133,-160 1133,-160 1133,-154 1139,-148 1145,-148 1145,-148 1354,-148 1354,-148 1360,-148 1366,-154 1366,-160 1366,-160 1366,-189 1366,-189 1366,-195 1360,-201 1354,-201"/>
<text text-anchor="middle" x="1249.5" y="-185.8" font-family="Times,serif" font-size="14.00">decode block 3</text>
<text text-anchor="middle" x="1249.5" y="-170.8" font-family="Times,serif" font-size="14.00">log gamma1: 0.703285 &#160;&#160;n kernels: 525</text>
<text text-anchor="middle" x="1249.5" y="-155.8" font-family="Times,serif" font-size="14.00">spatial scale: 3</text>
</g>
<!-- 2&#45;&gt;8 -->
<g id="edge8" class="edge"><title>2&#45;&gt;8</title>
<path fill="none" stroke="black" d="M1346.14,-236.96C1332.04,-227.992 1314.59,-216.898 1298.42,-206.614"/>
<polygon fill="black" stroke="black" points="1299.92,-203.416 1289.6,-201.003 1296.16,-209.323 1299.92,-203.416"/>
</g>
<!-- 9 -->
<g id="node10" class="node"><title>9</title>
<path fill="#abceb9" stroke="black" d="M1605,-201C1605,-201 1396,-201 1396,-201 1390,-201 1384,-195 1384,-189 1384,-189 1384,-160 1384,-160 1384,-154 1390,-148 1396,-148 1396,-148 1605,-148 1605,-148 1611,-148 1617,-154 1617,-160 1617,-160 1617,-189 1617,-189 1617,-195 1611,-201 1605,-201"/>
<text text-anchor="middle" x="1500.5" y="-185.8" font-family="Times,serif" font-size="14.00">decode block 2</text>
<text text-anchor="middle" x="1500.5" y="-170.8" font-family="Times,serif" font-size="14.00">log gamma2: 1.000000 &#160;&#160;n kernels: 225</text>
<text text-anchor="middle" x="1500.5" y="-155.8" font-family="Times,serif" font-size="14.00">spatial scale: 2</text>
</g>
<!-- 2&#45;&gt;9 -->
<g id="edge9" class="edge"><title>2&#45;&gt;9</title>
<path fill="none" stroke="black" d="M1403.09,-236.96C1417.3,-227.992 1434.89,-216.898 1451.19,-206.614"/>
<polygon fill="black" stroke="black" points="1453.49,-209.299 1460.08,-201.003 1449.76,-203.379 1453.49,-209.299"/>
</g>
<!-- 10 -->
<g id="node11" class="node"><title>10</title>
<path fill="#97b6a3" stroke="black" d="M1802,-193.5C1802,-193.5 1647,-193.5 1647,-193.5 1641,-193.5 1635,-187.5 1635,-181.5 1635,-181.5 1635,-167.5 1635,-167.5 1635,-161.5 1641,-155.5 1647,-155.5 1647,-155.5 1802,-155.5 1802,-155.5 1808,-155.5 1814,-161.5 1814,-167.5 1814,-167.5 1814,-181.5 1814,-181.5 1814,-187.5 1808,-193.5 1802,-193.5"/>
<text text-anchor="middle" x="1724.5" y="-178.3" font-family="Times,serif" font-size="14.00">decode block 1</text>
<text text-anchor="middle" x="1724.5" y="-163.3" font-family="Times,serif" font-size="14.00">n kernels: 75 &#160;&#160;spatial scale: 1</text>
</g>
<!-- 2&#45;&gt;10 -->
<g id="edge10" class="edge"><title>2&#45;&gt;10</title>
<path fill="none" stroke="black" d="M1462.4,-236.993C1510.65,-226.88 1571.49,-213.76 1625.5,-201 1632.12,-199.437 1638.97,-197.771 1645.84,-196.068"/>
<polygon fill="black" stroke="black" points="1647.03,-199.376 1655.89,-193.554 1645.34,-192.585 1647.03,-199.376"/>
</g>
<!-- 11 -->
<g id="node12" class="node"><title>11</title>
<path fill="#839e8d" stroke="black" d="M1919,-193.5C1919,-193.5 1844,-193.5 1844,-193.5 1838,-193.5 1832,-187.5 1832,-181.5 1832,-181.5 1832,-167.5 1832,-167.5 1832,-161.5 1838,-155.5 1844,-155.5 1844,-155.5 1919,-155.5 1919,-155.5 1925,-155.5 1931,-161.5 1931,-167.5 1931,-167.5 1931,-181.5 1931,-181.5 1931,-187.5 1925,-193.5 1919,-193.5"/>
<text text-anchor="middle" x="1881.5" y="-178.3" font-family="Times,serif" font-size="14.00">decode block 0</text>
<text text-anchor="middle" x="1881.5" y="-163.3" font-family="Times,serif" font-size="14.00">n kernels: &#45;16</text>
</g>
<!-- 2&#45;&gt;11 -->
<g id="edge11" class="edge"><title>2&#45;&gt;11</title>
<path fill="none" stroke="black" d="M1489.93,-250.217C1581.45,-244.254 1711.89,-230.892 1822.5,-201 1826.5,-199.919 1830.58,-198.616 1834.63,-197.176"/>
<polygon fill="black" stroke="black" points="1835.89,-200.443 1843.99,-193.614 1833.4,-193.9 1835.89,-200.443"/>
</g>
<!-- 12 -->
<g id="node13" class="node"><title>12</title>
<path fill="#d3e4ff" stroke="black" d="M227,-112C227,-112 12,-112 12,-112 6,-112 0,-106 0,-100 0,-100 0,-86 0,-86 0,-80 6,-74 12,-74 12,-74 227,-74 227,-74 233,-74 239,-80 239,-86 239,-86 239,-100 239,-100 239,-106 233,-112 227,-112"/>
<text text-anchor="middle" x="119.5" y="-96.8" font-family="Times,serif" font-size="14.00">comp 0</text>
<text text-anchor="middle" x="119.5" y="-81.8" font-family="Times,serif" font-size="14.00">dilation rate: &#45;1 &#160;&#160;log gamma2: 1.931220</text>
</g>
<!-- 3&#45;&gt;12 -->
<g id="edge12" class="edge"><title>3&#45;&gt;12</title>
<path fill="none" stroke="black" d="M141.919,-155.46C138.311,-145.569 133.76,-133.091 129.702,-121.966"/>
<polygon fill="black" stroke="black" points="132.87,-120.439 126.155,-112.244 126.294,-122.838 132.87,-120.439"/>
</g>
<!-- 13 -->
<g id="node14" class="node"><title>13</title>
<path fill="#d3e4ff" stroke="black" d="M302.5,-111C302.5,-111 268.5,-111 268.5,-111 262.5,-111 256.5,-105 256.5,-99 256.5,-99 256.5,-87 256.5,-87 256.5,-81 262.5,-75 268.5,-75 268.5,-75 302.5,-75 302.5,-75 308.5,-75 314.5,-81 314.5,-87 314.5,-87 314.5,-99 314.5,-99 314.5,-105 308.5,-111 302.5,-111"/>
<text text-anchor="middle" x="285.5" y="-89.3" font-family="Times,serif" font-size="14.00">comp 0</text>
</g>
<!-- 4&#45;&gt;13 -->
<g id="edge13" class="edge"><title>4&#45;&gt;13</title>
<path fill="none" stroke="black" d="M326.863,-147.908C319.824,-138.733 311.896,-128.401 304.878,-119.255"/>
<polygon fill="black" stroke="black" points="307.605,-117.059 298.741,-111.256 302.052,-121.321 307.605,-117.059"/>
</g>
<!-- 14 -->
<g id="node15" class="node"><title>14</title>
<path fill="#bfcfe6" stroke="black" d="M378.5,-111C378.5,-111 344.5,-111 344.5,-111 338.5,-111 332.5,-105 332.5,-99 332.5,-99 332.5,-87 332.5,-87 332.5,-81 338.5,-75 344.5,-75 344.5,-75 378.5,-75 378.5,-75 384.5,-75 390.5,-81 390.5,-87 390.5,-87 390.5,-99 390.5,-99 390.5,-105 384.5,-111 378.5,-111"/>
<text text-anchor="middle" x="361.5" y="-89.3" font-family="Times,serif" font-size="14.00">comp 1</text>
</g>
<!-- 4&#45;&gt;14 -->
<g id="edge14" class="edge"><title>4&#45;&gt;14</title>
<path fill="none" stroke="black" d="M351.329,-147.908C352.936,-139.389 354.732,-129.871 356.362,-121.232"/>
<polygon fill="black" stroke="black" points="359.829,-121.732 358.244,-111.256 352.951,-120.434 359.829,-121.732"/>
</g>
<!-- 15 -->
<g id="node16" class="node"><title>15</title>
<path fill="#abb9ce" stroke="black" d="M455.5,-111C455.5,-111 421.5,-111 421.5,-111 415.5,-111 409.5,-105 409.5,-99 409.5,-99 409.5,-87 409.5,-87 409.5,-81 415.5,-75 421.5,-75 421.5,-75 455.5,-75 455.5,-75 461.5,-75 467.5,-81 467.5,-87 467.5,-87 467.5,-99 467.5,-99 467.5,-105 461.5,-111 455.5,-111"/>
<text text-anchor="middle" x="438.5" y="-89.3" font-family="Times,serif" font-size="14.00">comp 2</text>
</g>
<!-- 4&#45;&gt;15 -->
<g id="edge15" class="edge"><title>4&#45;&gt;15</title>
<path fill="none" stroke="black" d="M376.116,-147.908C387.359,-138.192 400.105,-127.178 411.132,-117.65"/>
<polygon fill="black" stroke="black" points="413.533,-120.2 418.811,-111.014 408.956,-114.904 413.533,-120.2"/>
</g>
<!-- 16 -->
<g id="node17" class="node"><title>16</title>
<path fill="#d3e4ff" stroke="black" d="M588.5,-111C588.5,-111 554.5,-111 554.5,-111 548.5,-111 542.5,-105 542.5,-99 542.5,-99 542.5,-87 542.5,-87 542.5,-81 548.5,-75 554.5,-75 554.5,-75 588.5,-75 588.5,-75 594.5,-75 600.5,-81 600.5,-87 600.5,-87 600.5,-99 600.5,-99 600.5,-105 594.5,-111 588.5,-111"/>
<text text-anchor="middle" x="571.5" y="-89.3" font-family="Times,serif" font-size="14.00">comp 0</text>
</g>
<!-- 5&#45;&gt;16 -->
<g id="edge16" class="edge"><title>5&#45;&gt;16</title>
<path fill="none" stroke="black" d="M571.5,-155.46C571.5,-145.392 571.5,-132.644 571.5,-121.371"/>
<polygon fill="black" stroke="black" points="575,-121.151 571.5,-111.151 568,-121.151 575,-121.151"/>
</g>
<!-- 17 -->
<g id="node18" class="node"><title>17</title>
<path fill="#d3e4ff" stroke="black" d="M858,-112C858,-112 647,-112 647,-112 641,-112 635,-106 635,-100 635,-100 635,-86 635,-86 635,-80 641,-74 647,-74 647,-74 858,-74 858,-74 864,-74 870,-80 870,-86 870,-86 870,-100 870,-100 870,-106 864,-112 858,-112"/>
<text text-anchor="middle" x="752.5" y="-96.8" font-family="Times,serif" font-size="14.00">comp 0</text>
<text text-anchor="middle" x="752.5" y="-81.8" font-family="Times,serif" font-size="14.00">log gamma2: &#45;0.174852 &#160;&#160;n kernels: &#45;18</text>
</g>
<!-- 6&#45;&gt;17 -->
<g id="edge17" class="edge"><title>6&#45;&gt;17</title>
<path fill="none" stroke="black" d="M765.642,-155.46C763.549,-145.67 760.913,-133.345 758.553,-122.307"/>
<polygon fill="black" stroke="black" points="761.915,-121.291 756.401,-112.244 755.07,-122.754 761.915,-121.291"/>
</g>
<!-- 18 -->
<g id="node19" class="node"><title>18</title>
<path fill="#d3e4ff" stroke="black" d="M1159,-112C1159,-112 900,-112 900,-112 894,-112 888,-106 888,-100 888,-100 888,-86 888,-86 888,-80 894,-74 900,-74 900,-74 1159,-74 1159,-74 1165,-74 1171,-80 1171,-86 1171,-86 1171,-100 1171,-100 1171,-106 1165,-112 1159,-112"/>
<text text-anchor="middle" x="1029.5" y="-96.8" font-family="Times,serif" font-size="14.00">comp 0</text>
<text text-anchor="middle" x="1029.5" y="-81.8" font-family="Times,serif" font-size="14.00">log gamma1: 1.607809 &#160;&#160;log gamma2: 1.000000</text>
</g>
<!-- 7&#45;&gt;18 -->
<g id="edge18" class="edge"><title>7&#45;&gt;18</title>
<path fill="none" stroke="black" d="M1021,-155.46C1022.35,-145.67 1024.06,-133.345 1025.58,-122.307"/>
<polygon fill="black" stroke="black" points="1029.07,-122.629 1026.98,-112.244 1022.14,-121.669 1029.07,-122.629"/>
</g>
<!-- 19 -->
<g id="node20" class="node"><title>19</title>
<path fill="#d3e4ff" stroke="black" d="M1286.5,-112C1286.5,-112 1212.5,-112 1212.5,-112 1206.5,-112 1200.5,-106 1200.5,-100 1200.5,-100 1200.5,-86 1200.5,-86 1200.5,-80 1206.5,-74 1212.5,-74 1212.5,-74 1286.5,-74 1286.5,-74 1292.5,-74 1298.5,-80 1298.5,-86 1298.5,-86 1298.5,-100 1298.5,-100 1298.5,-106 1292.5,-112 1286.5,-112"/>
<text text-anchor="middle" x="1249.5" y="-96.8" font-family="Times,serif" font-size="14.00">comp 0</text>
<text text-anchor="middle" x="1249.5" y="-81.8" font-family="Times,serif" font-size="14.00">n kernels: &#45;472</text>
</g>
<!-- 8&#45;&gt;19 -->
<g id="edge19" class="edge"><title>8&#45;&gt;19</title>
<path fill="none" stroke="black" d="M1249.5,-147.908C1249.5,-139.738 1249.5,-130.649 1249.5,-122.298"/>
<polygon fill="black" stroke="black" points="1253,-122.239 1249.5,-112.239 1246,-122.239 1253,-122.239"/>
</g>
<!-- 20 -->
<g id="node21" class="node"><title>20</title>
<path fill="#d3e4ff" stroke="black" d="M1517.5,-111C1517.5,-111 1483.5,-111 1483.5,-111 1477.5,-111 1471.5,-105 1471.5,-99 1471.5,-99 1471.5,-87 1471.5,-87 1471.5,-81 1477.5,-75 1483.5,-75 1483.5,-75 1517.5,-75 1517.5,-75 1523.5,-75 1529.5,-81 1529.5,-87 1529.5,-87 1529.5,-99 1529.5,-99 1529.5,-105 1523.5,-111 1517.5,-111"/>
<text text-anchor="middle" x="1500.5" y="-89.3" font-family="Times,serif" font-size="14.00">comp 0</text>
</g>
<!-- 9&#45;&gt;20 -->
<g id="edge20" class="edge"><title>9&#45;&gt;20</title>
<path fill="none" stroke="black" d="M1500.5,-147.908C1500.5,-139.482 1500.5,-130.08 1500.5,-121.517"/>
<polygon fill="black" stroke="black" points="1504,-121.256 1500.5,-111.256 1497,-121.256 1504,-121.256"/>
</g>
<!-- 21 -->
<g id="node22" class="node"><title>21</title>
<path fill="#d3e4ff" stroke="black" d="M1741.5,-111C1741.5,-111 1707.5,-111 1707.5,-111 1701.5,-111 1695.5,-105 1695.5,-99 1695.5,-99 1695.5,-87 1695.5,-87 1695.5,-81 1701.5,-75 1707.5,-75 1707.5,-75 1741.5,-75 1741.5,-75 1747.5,-75 1753.5,-81 1753.5,-87 1753.5,-87 1753.5,-99 1753.5,-99 1753.5,-105 1747.5,-111 1741.5,-111"/>
<text text-anchor="middle" x="1724.5" y="-89.3" font-family="Times,serif" font-size="14.00">comp 0</text>
</g>
<!-- 10&#45;&gt;21 -->
<g id="edge21" class="edge"><title>10&#45;&gt;21</title>
<path fill="none" stroke="black" d="M1724.5,-155.46C1724.5,-145.392 1724.5,-132.644 1724.5,-121.371"/>
<polygon fill="black" stroke="black" points="1728,-121.151 1724.5,-111.151 1721,-121.151 1728,-121.151"/>
</g>
<!-- 22 -->
<g id="node23" class="node"><title>22</title>
<path fill="#d3e4ff" stroke="black" d="M1898.5,-111C1898.5,-111 1864.5,-111 1864.5,-111 1858.5,-111 1852.5,-105 1852.5,-99 1852.5,-99 1852.5,-87 1852.5,-87 1852.5,-81 1858.5,-75 1864.5,-75 1864.5,-75 1898.5,-75 1898.5,-75 1904.5,-75 1910.5,-81 1910.5,-87 1910.5,-87 1910.5,-99 1910.5,-99 1910.5,-105 1904.5,-111 1898.5,-111"/>
<text text-anchor="middle" x="1881.5" y="-89.3" font-family="Times,serif" font-size="14.00">comp 0</text>
</g>
<!-- 11&#45;&gt;22 -->
<g id="edge22" class="edge"><title>11&#45;&gt;22</title>
<path fill="none" stroke="black" d="M1881.5,-155.46C1881.5,-145.392 1881.5,-132.644 1881.5,-121.371"/>
<polygon fill="black" stroke="black" points="1885,-121.151 1881.5,-111.151 1878,-121.151 1885,-121.151"/>
</g>
<!-- 23 -->
<g id="node24" class="node"><title>23</title>
<path fill="#f6d3ff" stroke="black" d="M137,-38C137,-38 102,-38 102,-38 96,-38 90,-32 90,-26 90,-26 90,-12 90,-12 90,-6 96,-0 102,-0 102,-0 137,-0 137,-0 143,-0 149,-6 149,-12 149,-12 149,-26 149,-26 149,-32 143,-38 137,-38"/>
<text text-anchor="middle" x="119.5" y="-22.8" font-family="Times,serif" font-size="14.00">forward</text>
<text text-anchor="middle" x="119.5" y="-7.8" font-family="Times,serif" font-size="14.00">input</text>
</g>
<!-- 12&#45;&gt;23 -->
<g id="edge23" class="edge"><title>12&#45;&gt;23</title>
<path fill="none" stroke="black" d="M119.5,-73.8314C119.5,-66.131 119.5,-56.9743 119.5,-48.4166"/>
<polygon fill="black" stroke="black" points="123,-48.4132 119.5,-38.4133 116,-48.4133 123,-48.4132"/>
</g>
<!-- 24 -->
<g id="node25" class="node"><title>24</title>
<path fill="#f6d3ff" stroke="black" d="M301.5,-38C301.5,-38 265.5,-38 265.5,-38 259.5,-38 253.5,-32 253.5,-26 253.5,-26 253.5,-12 253.5,-12 253.5,-6 259.5,-0 265.5,-0 265.5,-0 301.5,-0 301.5,-0 307.5,-0 313.5,-6 313.5,-12 313.5,-12 313.5,-26 313.5,-26 313.5,-32 307.5,-38 301.5,-38"/>
<text text-anchor="middle" x="283.5" y="-22.8" font-family="Times,serif" font-size="14.00">forward</text>
<text text-anchor="middle" x="283.5" y="-7.8" font-family="Times,serif" font-size="14.00">EB0/C0</text>
</g>
<!-- 13&#45;&gt;24 -->
<g id="edge24" class="edge"><title>13&#45;&gt;24</title>
<path fill="none" stroke="black" d="M285.026,-74.937C284.805,-66.9865 284.536,-57.3134 284.286,-48.3127"/>
<polygon fill="black" stroke="black" points="287.782,-48.0981 284.006,-38.1992 280.785,-48.2925 287.782,-48.0981"/>
</g>
<!-- 25 -->
<g id="node26" class="node"><title>25</title>
<path fill="#f6d3ff" stroke="black" d="M379.5,-38C379.5,-38 343.5,-38 343.5,-38 337.5,-38 331.5,-32 331.5,-26 331.5,-26 331.5,-12 331.5,-12 331.5,-6 337.5,-0 343.5,-0 343.5,-0 379.5,-0 379.5,-0 385.5,-0 391.5,-6 391.5,-12 391.5,-12 391.5,-26 391.5,-26 391.5,-32 385.5,-38 379.5,-38"/>
<text text-anchor="middle" x="361.5" y="-22.8" font-family="Times,serif" font-size="14.00">forward</text>
<text text-anchor="middle" x="361.5" y="-7.8" font-family="Times,serif" font-size="14.00">EB1/C0</text>
</g>
<!-- 14&#45;&gt;25 -->
<g id="edge25" class="edge"><title>14&#45;&gt;25</title>
<path fill="none" stroke="black" d="M361.5,-74.937C361.5,-66.9865 361.5,-57.3134 361.5,-48.3127"/>
<polygon fill="black" stroke="black" points="365,-48.1991 361.5,-38.1992 358,-48.1992 365,-48.1991"/>
</g>
<!-- 26 -->
<g id="node27" class="node"><title>26</title>
<path fill="#f6d3ff" stroke="black" d="M457.5,-38C457.5,-38 421.5,-38 421.5,-38 415.5,-38 409.5,-32 409.5,-26 409.5,-26 409.5,-12 409.5,-12 409.5,-6 415.5,-0 421.5,-0 421.5,-0 457.5,-0 457.5,-0 463.5,-0 469.5,-6 469.5,-12 469.5,-12 469.5,-26 469.5,-26 469.5,-32 463.5,-38 457.5,-38"/>
<text text-anchor="middle" x="439.5" y="-22.8" font-family="Times,serif" font-size="14.00">forward</text>
<text text-anchor="middle" x="439.5" y="-7.8" font-family="Times,serif" font-size="14.00">EB1/C1</text>
</g>
<!-- 15&#45;&gt;26 -->
<g id="edge26" class="edge"><title>15&#45;&gt;26</title>
<path fill="none" stroke="black" d="M438.737,-74.937C438.847,-66.9865 438.982,-57.3134 439.107,-48.3127"/>
<polygon fill="black" stroke="black" points="442.608,-48.2468 439.247,-38.1992 435.609,-48.1496 442.608,-48.2468"/>
</g>
<!-- 27 -->
<g id="node28" class="node"><title>27</title>
<path fill="#f6d3ff" stroke="black" d="M589.5,-38C589.5,-38 553.5,-38 553.5,-38 547.5,-38 541.5,-32 541.5,-26 541.5,-26 541.5,-12 541.5,-12 541.5,-6 547.5,-0 553.5,-0 553.5,-0 589.5,-0 589.5,-0 595.5,-0 601.5,-6 601.5,-12 601.5,-12 601.5,-26 601.5,-26 601.5,-32 595.5,-38 589.5,-38"/>
<text text-anchor="middle" x="571.5" y="-22.8" font-family="Times,serif" font-size="14.00">forward</text>
<text text-anchor="middle" x="571.5" y="-7.8" font-family="Times,serif" font-size="14.00">EB1/C2</text>
</g>
<!-- 16&#45;&gt;27 -->
<g id="edge27" class="edge"><title>16&#45;&gt;27</title>
<path fill="none" stroke="black" d="M571.5,-74.937C571.5,-66.9865 571.5,-57.3134 571.5,-48.3127"/>
<polygon fill="black" stroke="black" points="575,-48.1991 571.5,-38.1992 568,-48.1992 575,-48.1991"/>
</g>
<!-- 28 -->
<g id="node29" class="node"><title>28</title>
<path fill="#f6d3ff" stroke="black" d="M770.5,-38C770.5,-38 734.5,-38 734.5,-38 728.5,-38 722.5,-32 722.5,-26 722.5,-26 722.5,-12 722.5,-12 722.5,-6 728.5,-0 734.5,-0 734.5,-0 770.5,-0 770.5,-0 776.5,-0 782.5,-6 782.5,-12 782.5,-12 782.5,-26 782.5,-26 782.5,-32 776.5,-38 770.5,-38"/>
<text text-anchor="middle" x="752.5" y="-22.8" font-family="Times,serif" font-size="14.00">forward</text>
<text text-anchor="middle" x="752.5" y="-7.8" font-family="Times,serif" font-size="14.00">EB2/C0</text>
</g>
<!-- 17&#45;&gt;28 -->
<g id="edge28" class="edge"><title>17&#45;&gt;28</title>
<path fill="none" stroke="black" d="M752.5,-73.8314C752.5,-66.131 752.5,-56.9743 752.5,-48.4166"/>
<polygon fill="black" stroke="black" points="756,-48.4132 752.5,-38.4133 749,-48.4133 756,-48.4132"/>
</g>
<!-- 29 -->
<g id="node30" class="node"><title>29</title>
<path fill="#f6d3ff" stroke="black" d="M1047.5,-38C1047.5,-38 1011.5,-38 1011.5,-38 1005.5,-38 999.5,-32 999.5,-26 999.5,-26 999.5,-12 999.5,-12 999.5,-6 1005.5,-0 1011.5,-0 1011.5,-0 1047.5,-0 1047.5,-0 1053.5,-0 1059.5,-6 1059.5,-12 1059.5,-12 1059.5,-26 1059.5,-26 1059.5,-32 1053.5,-38 1047.5,-38"/>
<text text-anchor="middle" x="1029.5" y="-22.8" font-family="Times,serif" font-size="14.00">forward</text>
<text text-anchor="middle" x="1029.5" y="-7.8" font-family="Times,serif" font-size="14.00">EB3/C0</text>
</g>
<!-- 18&#45;&gt;29 -->
<g id="edge29" class="edge"><title>18&#45;&gt;29</title>
<path fill="none" stroke="black" d="M1029.5,-73.8314C1029.5,-66.131 1029.5,-56.9743 1029.5,-48.4166"/>
<polygon fill="black" stroke="black" points="1033,-48.4132 1029.5,-38.4133 1026,-48.4133 1033,-48.4132"/>
</g>
<!-- 30 -->
<g id="node31" class="node"><title>30</title>
<path fill="#f6d3ff" stroke="black" d="M1228.5,-38C1228.5,-38 1190.5,-38 1190.5,-38 1184.5,-38 1178.5,-32 1178.5,-26 1178.5,-26 1178.5,-12 1178.5,-12 1178.5,-6 1184.5,-0 1190.5,-0 1190.5,-0 1228.5,-0 1228.5,-0 1234.5,-0 1240.5,-6 1240.5,-12 1240.5,-12 1240.5,-26 1240.5,-26 1240.5,-32 1234.5,-38 1228.5,-38"/>
<text text-anchor="middle" x="1209.5" y="-22.8" font-family="Times,serif" font-size="14.00">forward</text>
<text text-anchor="middle" x="1209.5" y="-7.8" font-family="Times,serif" font-size="14.00">DB4/C0</text>
</g>
<!-- 19&#45;&gt;30 -->
<g id="edge30" class="edge"><title>19&#45;&gt;30</title>
<path fill="none" stroke="black" d="M1239.41,-73.8314C1234.94,-65.7925 1229.59,-56.1666 1224.66,-47.2918"/>
<polygon fill="black" stroke="black" points="1227.65,-45.4551 1219.73,-38.4133 1221.53,-48.8546 1227.65,-45.4551"/>
</g>
<!-- 31 -->
<g id="node32" class="node"><title>31</title>
<path fill="#debfe6" stroke="black" d="M1306.5,-38C1306.5,-38 1270.5,-38 1270.5,-38 1264.5,-38 1258.5,-32 1258.5,-26 1258.5,-26 1258.5,-12 1258.5,-12 1258.5,-6 1264.5,-0 1270.5,-0 1270.5,-0 1306.5,-0 1306.5,-0 1312.5,-0 1318.5,-6 1318.5,-12 1318.5,-12 1318.5,-26 1318.5,-26 1318.5,-32 1312.5,-38 1306.5,-38"/>
<text text-anchor="middle" x="1288.5" y="-22.8" font-family="Times,serif" font-size="14.00">merge</text>
<text text-anchor="middle" x="1288.5" y="-7.8" font-family="Times,serif" font-size="14.00">EB3/C0</text>
</g>
<!-- 19&#45;&gt;31 -->
<g id="edge31" class="edge"><title>19&#45;&gt;31</title>
<path fill="none" stroke="black" d="M1259.34,-73.8314C1263.7,-65.7925 1268.91,-56.1666 1273.72,-47.2918"/>
<polygon fill="black" stroke="black" points="1276.84,-48.8732 1278.53,-38.4133 1270.69,-45.5392 1276.84,-48.8732"/>
</g>
<!-- 32 -->
<g id="node33" class="node"><title>32</title>
<path fill="#f6d3ff" stroke="black" d="M1473.5,-38C1473.5,-38 1435.5,-38 1435.5,-38 1429.5,-38 1423.5,-32 1423.5,-26 1423.5,-26 1423.5,-12 1423.5,-12 1423.5,-6 1429.5,-0 1435.5,-0 1435.5,-0 1473.5,-0 1473.5,-0 1479.5,-0 1485.5,-6 1485.5,-12 1485.5,-12 1485.5,-26 1485.5,-26 1485.5,-32 1479.5,-38 1473.5,-38"/>
<text text-anchor="middle" x="1454.5" y="-22.8" font-family="Times,serif" font-size="14.00">forward</text>
<text text-anchor="middle" x="1454.5" y="-7.8" font-family="Times,serif" font-size="14.00">DB3/C0</text>
</g>
<!-- 20&#45;&gt;32 -->
<g id="edge32" class="edge"><title>20&#45;&gt;32</title>
<path fill="none" stroke="black" d="M1489.6,-74.937C1484.24,-66.5544 1477.66,-56.2569 1471.66,-46.8516"/>
<polygon fill="black" stroke="black" points="1474.46,-44.7418 1466.13,-38.1992 1468.56,-48.5105 1474.46,-44.7418"/>
</g>
<!-- 33 -->
<g id="node34" class="node"><title>33</title>
<path fill="#debfe6" stroke="black" d="M1551.5,-38C1551.5,-38 1515.5,-38 1515.5,-38 1509.5,-38 1503.5,-32 1503.5,-26 1503.5,-26 1503.5,-12 1503.5,-12 1503.5,-6 1509.5,-0 1515.5,-0 1515.5,-0 1551.5,-0 1551.5,-0 1557.5,-0 1563.5,-6 1563.5,-12 1563.5,-12 1563.5,-26 1563.5,-26 1563.5,-32 1557.5,-38 1551.5,-38"/>
<text text-anchor="middle" x="1533.5" y="-22.8" font-family="Times,serif" font-size="14.00">merge</text>
<text text-anchor="middle" x="1533.5" y="-7.8" font-family="Times,serif" font-size="14.00">EB2/C0</text>
</g>
<!-- 20&#45;&gt;33 -->
<g id="edge33" class="edge"><title>20&#45;&gt;33</title>
<path fill="none" stroke="black" d="M1508.32,-74.937C1512.08,-66.7273 1516.69,-56.6807 1520.93,-47.4345"/>
<polygon fill="black" stroke="black" points="1524.17,-48.7481 1525.16,-38.1992 1517.81,-45.8315 1524.17,-48.7481"/>
</g>
<!-- 34 -->
<g id="node35" class="node"><title>34</title>
<path fill="#f6d3ff" stroke="black" d="M1683.5,-38C1683.5,-38 1645.5,-38 1645.5,-38 1639.5,-38 1633.5,-32 1633.5,-26 1633.5,-26 1633.5,-12 1633.5,-12 1633.5,-6 1639.5,-0 1645.5,-0 1645.5,-0 1683.5,-0 1683.5,-0 1689.5,-0 1695.5,-6 1695.5,-12 1695.5,-12 1695.5,-26 1695.5,-26 1695.5,-32 1689.5,-38 1683.5,-38"/>
<text text-anchor="middle" x="1664.5" y="-22.8" font-family="Times,serif" font-size="14.00">forward</text>
<text text-anchor="middle" x="1664.5" y="-7.8" font-family="Times,serif" font-size="14.00">DB2/C0</text>
</g>
<!-- 21&#45;&gt;34 -->
<g id="edge34" class="edge"><title>21&#45;&gt;34</title>
<path fill="none" stroke="black" d="M1710.28,-74.937C1703.08,-66.2952 1694.18,-55.6181 1686.15,-45.9816"/>
<polygon fill="black" stroke="black" points="1688.76,-43.6407 1679.67,-38.1992 1683.38,-48.1221 1688.76,-43.6407"/>
</g>
<!-- 35 -->
<g id="node36" class="node"><title>35</title>
<path fill="#debfe6" stroke="black" d="M1761.5,-38C1761.5,-38 1725.5,-38 1725.5,-38 1719.5,-38 1713.5,-32 1713.5,-26 1713.5,-26 1713.5,-12 1713.5,-12 1713.5,-6 1719.5,-0 1725.5,-0 1725.5,-0 1761.5,-0 1761.5,-0 1767.5,-0 1773.5,-6 1773.5,-12 1773.5,-12 1773.5,-26 1773.5,-26 1773.5,-32 1767.5,-38 1761.5,-38"/>
<text text-anchor="middle" x="1743.5" y="-22.8" font-family="Times,serif" font-size="14.00">merge</text>
<text text-anchor="middle" x="1743.5" y="-7.8" font-family="Times,serif" font-size="14.00">EB1/C2</text>
</g>
<!-- 21&#45;&gt;35 -->
<g id="edge35" class="edge"><title>21&#45;&gt;35</title>
<path fill="none" stroke="black" d="M1729,-74.937C1731.12,-66.9001 1733.71,-57.1029 1736.11,-48.0195"/>
<polygon fill="black" stroke="black" points="1739.53,-48.7612 1738.7,-38.1992 1732.76,-46.9751 1739.53,-48.7612"/>
</g>
<!-- 36 -->
<g id="node37" class="node"><title>36</title>
<path fill="#f6d3ff" stroke="black" d="M1880.5,-38C1880.5,-38 1842.5,-38 1842.5,-38 1836.5,-38 1830.5,-32 1830.5,-26 1830.5,-26 1830.5,-12 1830.5,-12 1830.5,-6 1836.5,-0 1842.5,-0 1842.5,-0 1880.5,-0 1880.5,-0 1886.5,-0 1892.5,-6 1892.5,-12 1892.5,-12 1892.5,-26 1892.5,-26 1892.5,-32 1886.5,-38 1880.5,-38"/>
<text text-anchor="middle" x="1861.5" y="-22.8" font-family="Times,serif" font-size="14.00">forward</text>
<text text-anchor="middle" x="1861.5" y="-7.8" font-family="Times,serif" font-size="14.00">DB1/C0</text>
</g>
<!-- 22&#45;&gt;36 -->
<g id="edge36" class="edge"><title>22&#45;&gt;36</title>
<path fill="none" stroke="black" d="M1876.76,-74.937C1874.53,-66.9001 1871.81,-57.1029 1869.28,-48.0195"/>
<polygon fill="black" stroke="black" points="1872.6,-46.8976 1866.56,-38.1992 1865.86,-48.7711 1872.6,-46.8976"/>
</g>
<!-- 37 -->
<g id="node38" class="node"><title>37</title>
<path fill="#debfe6" stroke="black" d="M1958.5,-38C1958.5,-38 1922.5,-38 1922.5,-38 1916.5,-38 1910.5,-32 1910.5,-26 1910.5,-26 1910.5,-12 1910.5,-12 1910.5,-6 1916.5,-0 1922.5,-0 1922.5,-0 1958.5,-0 1958.5,-0 1964.5,-0 1970.5,-6 1970.5,-12 1970.5,-12 1970.5,-26 1970.5,-26 1970.5,-32 1964.5,-38 1958.5,-38"/>
<text text-anchor="middle" x="1940.5" y="-22.8" font-family="Times,serif" font-size="14.00">merge</text>
<text text-anchor="middle" x="1940.5" y="-7.8" font-family="Times,serif" font-size="14.00">EB0/C0</text>
</g>
<!-- 22&#45;&gt;37 -->
<g id="edge37" class="edge"><title>22&#45;&gt;37</title>
<path fill="none" stroke="black" d="M1895.48,-74.937C1902.56,-66.2952 1911.31,-55.6181 1919.21,-45.9816"/>
<polygon fill="black" stroke="black" points="1921.96,-48.1524 1925.59,-38.1992 1916.54,-43.7156 1921.96,-48.1524"/>
</g>
</g>
</svg>
