<?xml version="1.0" encoding="UTF-8" standalone="no"?>
<!DOCTYPE svg PUBLIC "-//W3C//DTD SVG 1.1//EN"
 "http://www.w3.org/Graphics/SVG/1.1/DTD/svg11.dtd">
<!-- Generated by graphviz version 2.38.0 (20140413.2041)
 -->
<!-- Title: %3 Pages: 1 -->
<svg width="2100pt" height="403pt"
 viewBox="0.00 0.00 2100.00 403.00" xmlns="http://www.w3.org/2000/svg" xmlns:xlink="http://www.w3.org/1999/xlink">
<g id="graph0" class="graph" transform="scale(1 1) rotate(0) translate(4 399)">
<title>%3</title>
<polygon fill="none" stroke="none" points="-4,4 -4,-399 2096,-399 2096,4 -4,4"/>
<!-- 0 -->
<g id="node1" class="node"><title>0</title>
<path fill="#ffd3d3" stroke="black" d="M1338,-395C1338,-395 1147,-395 1147,-395 1141,-395 1135,-389 1135,-383 1135,-383 1135,-354 1135,-354 1135,-348 1141,-342 1147,-342 1147,-342 1338,-342 1338,-342 1344,-342 1350,-348 1350,-354 1350,-354 1350,-383 1350,-383 1350,-389 1344,-395 1338,-395"/>
<text text-anchor="middle" x="1242.5" y="-379.8" font-family="Times,serif" font-size="14.00">net</text>
<text text-anchor="middle" x="1242.5" y="-364.8" font-family="Times,serif" font-size="14.00">k width: 3 &#160;&#160;log gamma2: &#45;5.756297</text>
<text text-anchor="middle" x="1242.5" y="-349.8" font-family="Times,serif" font-size="14.00">n kernels: 56</text>
</g>
<!-- 1 -->
<g id="node2" class="node"><title>1</title>
<path fill="#e9ffd3" stroke="black" d="M642.5,-306C642.5,-306 574.5,-306 574.5,-306 568.5,-306 562.5,-300 562.5,-294 562.5,-294 562.5,-280 562.5,-280 562.5,-274 568.5,-268 574.5,-268 574.5,-268 642.5,-268 642.5,-268 648.5,-268 654.5,-274 654.5,-280 654.5,-280 654.5,-294 654.5,-294 654.5,-300 648.5,-306 642.5,-306"/>
<text text-anchor="middle" x="608.5" y="-290.8" font-family="Times,serif" font-size="14.00">conv block 0</text>
<text text-anchor="middle" x="608.5" y="-275.8" font-family="Times,serif" font-size="14.00">n kernels: &#45;15</text>
</g>
<!-- 0&#45;&gt;1 -->
<g id="edge1" class="edge"><title>0&#45;&gt;1</title>
<path fill="none" stroke="black" d="M1134.95,-354.014C999.045,-336.972 770.17,-308.273 664.753,-295.054"/>
<polygon fill="black" stroke="black" points="664.998,-291.557 654.64,-293.786 664.127,-298.503 664.998,-291.557"/>
</g>
<!-- 2 -->
<g id="node3" class="node"><title>2</title>
<path fill="#e9ffd3" stroke="black" d="M1308.5,-306C1308.5,-306 1176.5,-306 1176.5,-306 1170.5,-306 1164.5,-300 1164.5,-294 1164.5,-294 1164.5,-280 1164.5,-280 1164.5,-274 1170.5,-268 1176.5,-268 1176.5,-268 1308.5,-268 1308.5,-268 1314.5,-268 1320.5,-274 1320.5,-280 1320.5,-280 1320.5,-294 1320.5,-294 1320.5,-300 1314.5,-306 1308.5,-306"/>
<text text-anchor="middle" x="1242.5" y="-290.8" font-family="Times,serif" font-size="14.00">conv block 1</text>
<text text-anchor="middle" x="1242.5" y="-275.8" font-family="Times,serif" font-size="14.00">pool z: 1 &#160;&#160;spatial scale: 1</text>
</g>
<!-- 0&#45;&gt;2 -->
<g id="edge2" class="edge"><title>0&#45;&gt;2</title>
<path fill="none" stroke="black" d="M1242.5,-341.908C1242.5,-333.738 1242.5,-324.649 1242.5,-316.298"/>
<polygon fill="black" stroke="black" points="1246,-316.239 1242.5,-306.239 1239,-316.239 1246,-316.239"/>
</g>
<!-- 3 -->
<g id="node4" class="node"><title>3</title>
<path fill="#e9ffd3" stroke="black" d="M1650,-305C1650,-305 1583,-305 1583,-305 1577,-305 1571,-299 1571,-293 1571,-293 1571,-281 1571,-281 1571,-275 1577,-269 1583,-269 1583,-269 1650,-269 1650,-269 1656,-269 1662,-275 1662,-281 1662,-281 1662,-293 1662,-293 1662,-299 1656,-305 1650,-305"/>
<text text-anchor="middle" x="1616.5" y="-283.3" font-family="Times,serif" font-size="14.00">path combine</text>
</g>
<!-- 0&#45;&gt;3 -->
<g id="edge3" class="edge"><title>0&#45;&gt;3</title>
<path fill="none" stroke="black" d="M1350.17,-344.612C1419.04,-329.973 1505.53,-311.588 1560.92,-299.815"/>
<polygon fill="black" stroke="black" points="1561.83,-303.199 1570.89,-297.696 1560.38,-296.352 1561.83,-303.199"/>
</g>
<!-- 4 -->
<g id="node5" class="node"><title>4</title>
<path fill="#d3ffff" stroke="black" d="M314.5,-201C314.5,-201 280.5,-201 280.5,-201 274.5,-201 268.5,-195 268.5,-189 268.5,-189 268.5,-177 268.5,-177 268.5,-171 274.5,-165 280.5,-165 280.5,-165 314.5,-165 314.5,-165 320.5,-165 326.5,-171 326.5,-177 326.5,-177 326.5,-189 326.5,-189 326.5,-195 320.5,-201 314.5,-201"/>
<text text-anchor="middle" x="297.5" y="-179.3" font-family="Times,serif" font-size="14.00">comp 0</text>
</g>
<!-- 1&#45;&gt;4 -->
<g id="edge4" class="edge"><title>1&#45;&gt;4</title>
<path fill="none" stroke="black" d="M562.276,-270.84C500.98,-250.736 393.878,-215.609 336.471,-196.781"/>
<polygon fill="black" stroke="black" points="337.281,-193.364 326.688,-193.573 335.099,-200.015 337.281,-193.364"/>
</g>
<!-- 5 -->
<g id="node6" class="node"><title>5</title>
<path fill="#bfe6e6" stroke="black" d="M565,-202C565,-202 502,-202 502,-202 496,-202 490,-196 490,-190 490,-190 490,-176 490,-176 490,-170 496,-164 502,-164 502,-164 565,-164 565,-164 571,-164 577,-170 577,-176 577,-176 577,-190 577,-190 577,-196 571,-202 565,-202"/>
<text text-anchor="middle" x="533.5" y="-186.8" font-family="Times,serif" font-size="14.00">comp 1</text>
<text text-anchor="middle" x="533.5" y="-171.8" font-family="Times,serif" font-size="14.00">n kernels: 14</text>
</g>
<!-- 1&#45;&gt;5 -->
<g id="edge5" class="edge"><title>1&#45;&gt;5</title>
<path fill="none" stroke="black" d="M595.092,-267.764C583.36,-251.809 566.173,-228.435 552.933,-210.429"/>
<polygon fill="black" stroke="black" points="555.536,-208.061 546.792,-202.078 549.897,-212.208 555.536,-208.061"/>
</g>
<!-- 6 -->
<g id="node7" class="node"><title>6</title>
<path fill="#abcece" stroke="black" d="M699.5,-201C699.5,-201 665.5,-201 665.5,-201 659.5,-201 653.5,-195 653.5,-189 653.5,-189 653.5,-177 653.5,-177 653.5,-171 659.5,-165 665.5,-165 665.5,-165 699.5,-165 699.5,-165 705.5,-165 711.5,-171 711.5,-177 711.5,-177 711.5,-189 711.5,-189 711.5,-195 705.5,-201 699.5,-201"/>
<text text-anchor="middle" x="682.5" y="-179.3" font-family="Times,serif" font-size="14.00">comp 2</text>
</g>
<!-- 1&#45;&gt;6 -->
<g id="edge6" class="edge"><title>1&#45;&gt;6</title>
<path fill="none" stroke="black" d="M621.73,-267.764C633.519,-251.514 650.893,-227.567 664.047,-209.435"/>
<polygon fill="black" stroke="black" points="667.084,-211.209 670.123,-201.06 661.418,-207.099 667.084,-211.209"/>
</g>
<!-- 7 -->
<g id="node8" class="node"><title>7</title>
<path fill="#d3ffff" stroke="black" d="M1253,-209.5C1253,-209.5 990,-209.5 990,-209.5 984,-209.5 978,-203.5 978,-197.5 978,-197.5 978,-168.5 978,-168.5 978,-162.5 984,-156.5 990,-156.5 990,-156.5 1253,-156.5 1253,-156.5 1259,-156.5 1265,-162.5 1265,-168.5 1265,-168.5 1265,-197.5 1265,-197.5 1265,-203.5 1259,-209.5 1253,-209.5"/>
<text text-anchor="middle" x="1121.5" y="-194.3" font-family="Times,serif" font-size="14.00">comp 0</text>
<text text-anchor="middle" x="1121.5" y="-179.3" font-family="Times,serif" font-size="14.00">log gamma1: 1.466600 &#160;&#160;log gamma2: &#45;0.950766</text>
<text text-anchor="middle" x="1121.5" y="-164.3" font-family="Times,serif" font-size="14.00">n kernels: 4</text>
</g>
<!-- 2&#45;&gt;7 -->
<g id="edge7" class="edge"><title>2&#45;&gt;7</title>
<path fill="none" stroke="black" d="M1221.15,-267.999C1204.26,-253.761 1180.23,-233.51 1160.01,-216.459"/>
<polygon fill="black" stroke="black" points="1162.08,-213.629 1152.18,-209.859 1157.57,-218.981 1162.08,-213.629"/>
</g>
<!-- 8 -->
<g id="node9" class="node"><title>8</title>
<path fill="#bfe6e6" stroke="black" d="M1434,-202C1434,-202 1295,-202 1295,-202 1289,-202 1283,-196 1283,-190 1283,-190 1283,-176 1283,-176 1283,-170 1289,-164 1295,-164 1295,-164 1434,-164 1434,-164 1440,-164 1446,-170 1446,-176 1446,-176 1446,-190 1446,-190 1446,-196 1440,-202 1434,-202"/>
<text text-anchor="middle" x="1364.5" y="-186.8" font-family="Times,serif" font-size="14.00">path end 1</text>
<text text-anchor="middle" x="1364.5" y="-171.8" font-family="Times,serif" font-size="14.00">k width: &#45;2 &#160;&#160;n kernels: &#45;15</text>
</g>
<!-- 2&#45;&gt;8 -->
<g id="edge8" class="edge"><title>2&#45;&gt;8</title>
<path fill="none" stroke="black" d="M1264.03,-267.999C1283.77,-251.496 1313.17,-226.913 1335.08,-208.6"/>
<polygon fill="black" stroke="black" points="1337.35,-211.263 1342.77,-202.164 1332.86,-205.893 1337.35,-211.263"/>
</g>
<!-- 9 -->
<g id="node10" class="node"><title>9</title>
<path fill="#d3ffff" stroke="black" d="M1757,-232C1757,-232 1476,-232 1476,-232 1470,-232 1464,-226 1464,-220 1464,-220 1464,-146 1464,-146 1464,-140 1470,-134 1476,-134 1476,-134 1757,-134 1757,-134 1763,-134 1769,-140 1769,-146 1769,-146 1769,-220 1769,-220 1769,-226 1763,-232 1757,-232"/>
<text text-anchor="middle" x="1616.5" y="-216.8" font-family="Times,serif" font-size="14.00">forward</text>
<text text-anchor="middle" x="1616.5" y="-201.8" font-family="Times,serif" font-size="14.00">CB0/C2</text>
<text text-anchor="middle" x="1616.5" y="-186.8" font-family="Times,serif" font-size="14.00">dilation rate: 1 &#160;&#160;k width: 3</text>
<text text-anchor="middle" x="1616.5" y="-171.8" font-family="Times,serif" font-size="14.00">log gamma1: &#45;11.000000 &#160;&#160;log gamma2: &#45;11.000000</text>
<text text-anchor="middle" x="1616.5" y="-156.8" font-family="Times,serif" font-size="14.00">log lambda1: &#45;11.000000 &#160;&#160;log lambda2: &#45;11.000000</text>
<text text-anchor="middle" x="1616.5" y="-141.8" font-family="Times,serif" font-size="14.00">n kernels: 64</text>
</g>
<!-- 3&#45;&gt;9 -->
<g id="edge9" class="edge"><title>3&#45;&gt;9</title>
<path fill="none" stroke="black" d="M1616.5,-268.697C1616.5,-261.188 1616.5,-251.915 1616.5,-242.289"/>
<polygon fill="black" stroke="black" points="1620,-242.188 1616.5,-232.188 1613,-242.188 1620,-242.188"/>
</g>
<!-- 10 -->
<g id="node11" class="node"><title>10</title>
<path fill="#bfe6e6" stroke="black" d="M2080,-232C2080,-232 1799,-232 1799,-232 1793,-232 1787,-226 1787,-220 1787,-220 1787,-146 1787,-146 1787,-140 1793,-134 1799,-134 1799,-134 2080,-134 2080,-134 2086,-134 2092,-140 2092,-146 2092,-146 2092,-220 2092,-220 2092,-226 2086,-232 2080,-232"/>
<text text-anchor="middle" x="1939.5" y="-216.8" font-family="Times,serif" font-size="14.00">residual 1</text>
<text text-anchor="middle" x="1939.5" y="-201.8" font-family="Times,serif" font-size="14.00">CB1/PE1</text>
<text text-anchor="middle" x="1939.5" y="-186.8" font-family="Times,serif" font-size="14.00">dilation rate: 1 &#160;&#160;k width: 3</text>
<text text-anchor="middle" x="1939.5" y="-171.8" font-family="Times,serif" font-size="14.00">log gamma1: &#45;11.000000 &#160;&#160;log gamma2: &#45;11.000000</text>
<text text-anchor="middle" x="1939.5" y="-156.8" font-family="Times,serif" font-size="14.00">log lambda1: &#45;11.000000 &#160;&#160;log lambda2: &#45;11.000000</text>
<text text-anchor="middle" x="1939.5" y="-141.8" font-family="Times,serif" font-size="14.00">n kernels: 64</text>
</g>
<!-- 3&#45;&gt;10 -->
<g id="edge10" class="edge"><title>3&#45;&gt;10</title>
<path fill="none" stroke="black" d="M1662.09,-271.602C1692.73,-261.928 1735.13,-248.539 1777.57,-235.137"/>
<polygon fill="black" stroke="black" points="1778.71,-238.447 1787.19,-232.098 1776.6,-231.772 1778.71,-238.447"/>
</g>
<!-- 11 -->
<g id="node12" class="node"><title>11</title>
<path fill="#e9d3ff" stroke="black" d="M293,-98C293,-98 12,-98 12,-98 6,-98 0,-92 0,-86 0,-86 0,-12 0,-12 0,-6 6,-0 12,-0 12,-0 293,-0 293,-0 299,-0 305,-6 305,-12 305,-12 305,-86 305,-86 305,-92 299,-98 293,-98"/>
<text text-anchor="middle" x="152.5" y="-82.8" font-family="Times,serif" font-size="14.00">forward</text>
<text text-anchor="middle" x="152.5" y="-67.8" font-family="Times,serif" font-size="14.00">input</text>
<text text-anchor="middle" x="152.5" y="-52.8" font-family="Times,serif" font-size="14.00">dilation rate: 1 &#160;&#160;k width: 3</text>
<text text-anchor="middle" x="152.5" y="-37.8" font-family="Times,serif" font-size="14.00">log gamma1: &#45;11.000000 &#160;&#160;log gamma2: &#45;11.000000</text>
<text text-anchor="middle" x="152.5" y="-22.8" font-family="Times,serif" font-size="14.00">log lambda1: &#45;11.000000 &#160;&#160;log lambda2: &#45;11.000000</text>
<text text-anchor="middle" x="152.5" y="-7.8" font-family="Times,serif" font-size="14.00">n kernels: 64</text>
</g>
<!-- 4&#45;&gt;11 -->
<g id="edge11" class="edge"><title>4&#45;&gt;11</title>
<path fill="none" stroke="black" d="M278.544,-164.743C261.85,-149.546 236.599,-126.559 213.071,-105.14"/>
<polygon fill="black" stroke="black" points="215.257,-102.397 205.506,-98.2533 210.544,-107.573 215.257,-102.397"/>
</g>
<!-- 12 -->
<g id="node13" class="node"><title>12</title>
<path fill="#e9d3ff" stroke="black" d="M616,-98C616,-98 335,-98 335,-98 329,-98 323,-92 323,-86 323,-86 323,-12 323,-12 323,-6 329,-0 335,-0 335,-0 616,-0 616,-0 622,-0 628,-6 628,-12 628,-12 628,-86 628,-86 628,-92 622,-98 616,-98"/>
<text text-anchor="middle" x="475.5" y="-82.8" font-family="Times,serif" font-size="14.00">forward</text>
<text text-anchor="middle" x="475.5" y="-67.8" font-family="Times,serif" font-size="14.00">CB0/C0</text>
<text text-anchor="middle" x="475.5" y="-52.8" font-family="Times,serif" font-size="14.00">dilation rate: 1 &#160;&#160;k width: 3</text>
<text text-anchor="middle" x="475.5" y="-37.8" font-family="Times,serif" font-size="14.00">log gamma1: &#45;11.000000 &#160;&#160;log gamma2: &#45;11.000000</text>
<text text-anchor="middle" x="475.5" y="-22.8" font-family="Times,serif" font-size="14.00">log lambda1: &#45;11.000000 &#160;&#160;log lambda2: &#45;11.000000</text>
<text text-anchor="middle" x="475.5" y="-7.8" font-family="Times,serif" font-size="14.00">n kernels: 64</text>
</g>
<!-- 5&#45;&gt;12 -->
<g id="edge12" class="edge"><title>5&#45;&gt;12</title>
<path fill="none" stroke="black" d="M525.557,-163.923C519.127,-149.289 509.7,-127.835 500.756,-107.48"/>
<polygon fill="black" stroke="black" points="503.921,-105.981 496.694,-98.2336 497.512,-108.797 503.921,-105.981"/>
</g>
<!-- 13 -->
<g id="node14" class="node"><title>13</title>
<path fill="#e9d3ff" stroke="black" d="M939,-98C939,-98 658,-98 658,-98 652,-98 646,-92 646,-86 646,-86 646,-12 646,-12 646,-6 652,-0 658,-0 658,-0 939,-0 939,-0 945,-0 951,-6 951,-12 951,-12 951,-86 951,-86 951,-92 945,-98 939,-98"/>
<text text-anchor="middle" x="798.5" y="-82.8" font-family="Times,serif" font-size="14.00">forward</text>
<text text-anchor="middle" x="798.5" y="-67.8" font-family="Times,serif" font-size="14.00">CB0/C1</text>
<text text-anchor="middle" x="798.5" y="-52.8" font-family="Times,serif" font-size="14.00">dilation rate: 1 &#160;&#160;k width: 3</text>
<text text-anchor="middle" x="798.5" y="-37.8" font-family="Times,serif" font-size="14.00">log gamma1: &#45;11.000000 &#160;&#160;log gamma2: &#45;11.000000</text>
<text text-anchor="middle" x="798.5" y="-22.8" font-family="Times,serif" font-size="14.00">log lambda1: &#45;11.000000 &#160;&#160;log lambda2: &#45;11.000000</text>
<text text-anchor="middle" x="798.5" y="-7.8" font-family="Times,serif" font-size="14.00">n kernels: 64</text>
</g>
<!-- 6&#45;&gt;13 -->
<g id="edge13" class="edge"><title>6&#45;&gt;13</title>
<path fill="none" stroke="black" d="M697.665,-164.743C710.847,-149.744 730.697,-127.155 749.309,-105.976"/>
<polygon fill="black" stroke="black" points="752.123,-108.075 756.096,-98.2533 746.865,-103.455 752.123,-108.075"/>
</g>
<!-- 14 -->
<g id="node15" class="node"><title>14</title>
<path fill="#e9d3ff" stroke="black" d="M1262,-98C1262,-98 981,-98 981,-98 975,-98 969,-92 969,-86 969,-86 969,-12 969,-12 969,-6 975,-0 981,-0 981,-0 1262,-0 1262,-0 1268,-0 1274,-6 1274,-12 1274,-12 1274,-86 1274,-86 1274,-92 1268,-98 1262,-98"/>
<text text-anchor="middle" x="1121.5" y="-82.8" font-family="Times,serif" font-size="14.00">forward</text>
<text text-anchor="middle" x="1121.5" y="-67.8" font-family="Times,serif" font-size="14.00">input</text>
<text text-anchor="middle" x="1121.5" y="-52.8" font-family="Times,serif" font-size="14.00">dilation rate: 1 &#160;&#160;k width: 3</text>
<text text-anchor="middle" x="1121.5" y="-37.8" font-family="Times,serif" font-size="14.00">log gamma1: &#45;11.000000 &#160;&#160;log gamma2: &#45;11.000000</text>
<text text-anchor="middle" x="1121.5" y="-22.8" font-family="Times,serif" font-size="14.00">log lambda1: &#45;11.000000 &#160;&#160;log lambda2: &#45;11.000000</text>
<text text-anchor="middle" x="1121.5" y="-7.8" font-family="Times,serif" font-size="14.00">n kernels: 64</text>
</g>
<!-- 7&#45;&gt;14 -->
<g id="edge14" class="edge"><title>7&#45;&gt;14</title>
<path fill="none" stroke="black" d="M1121.5,-156.236C1121.5,-142.567 1121.5,-125.174 1121.5,-108.438"/>
<polygon fill="black" stroke="black" points="1125,-108.142 1121.5,-98.1423 1118,-108.142 1125,-108.142"/>
</g>
<!-- 15 -->
<g id="node16" class="node"><title>15</title>
<path fill="#e9d3ff" stroke="black" d="M1585,-98C1585,-98 1304,-98 1304,-98 1298,-98 1292,-92 1292,-86 1292,-86 1292,-12 1292,-12 1292,-6 1298,-0 1304,-0 1304,-0 1585,-0 1585,-0 1591,-0 1597,-6 1597,-12 1597,-12 1597,-86 1597,-86 1597,-92 1591,-98 1585,-98"/>
<text text-anchor="middle" x="1444.5" y="-82.8" font-family="Times,serif" font-size="14.00">forward</text>
<text text-anchor="middle" x="1444.5" y="-67.8" font-family="Times,serif" font-size="14.00">CB1/C0</text>
<text text-anchor="middle" x="1444.5" y="-52.8" font-family="Times,serif" font-size="14.00">dilation rate: 1 &#160;&#160;k width: 3</text>
<text text-anchor="middle" x="1444.5" y="-37.8" font-family="Times,serif" font-size="14.00">log gamma1: &#45;11.000000 &#160;&#160;log gamma2: &#45;11.000000</text>
<text text-anchor="middle" x="1444.5" y="-22.8" font-family="Times,serif" font-size="14.00">log lambda1: &#45;11.000000 &#160;&#160;log lambda2: &#45;11.000000</text>
<text text-anchor="middle" x="1444.5" y="-7.8" font-family="Times,serif" font-size="14.00">n kernels: 64</text>
</g>
<!-- 8&#45;&gt;15 -->
<g id="edge15" class="edge"><title>8&#45;&gt;15</title>
<path fill="none" stroke="black" d="M1375.46,-163.923C1384.4,-149.157 1397.56,-127.447 1410,-106.93"/>
<polygon fill="black" stroke="black" points="1413.08,-108.6 1415.27,-98.2336 1407.09,-104.972 1413.08,-108.6"/>
</g>
</g>
</svg>
