<?xml version="1.0" encoding="UTF-8" standalone="no"?>
<!DOCTYPE svg PUBLIC "-//W3C//DTD SVG 1.1//EN"
 "http://www.w3.org/Graphics/SVG/1.1/DTD/svg11.dtd">
<!-- Generated by graphviz version 2.38.0 (20140413.2041)
 -->
<!-- Title: %3 Pages: 1 -->
<svg width="5003pt" height="418pt"
 viewBox="0.00 0.00 5003.00 418.00" xmlns="http://www.w3.org/2000/svg" xmlns:xlink="http://www.w3.org/1999/xlink">
<g id="graph0" class="graph" transform="scale(1 1) rotate(0) translate(4 414)">
<title>%3</title>
<polygon fill="none" stroke="none" points="-4,4 -4,-414 4999,-414 4999,4 -4,4"/>
<!-- 0 -->
<g id="node1" class="node"><title>0</title>
<path fill="#ffd3d3" stroke="black" d="M2322,-410C2322,-410 2131,-410 2131,-410 2125,-410 2119,-404 2119,-398 2119,-398 2119,-369 2119,-369 2119,-363 2125,-357 2131,-357 2131,-357 2322,-357 2322,-357 2328,-357 2334,-363 2334,-369 2334,-369 2334,-398 2334,-398 2334,-404 2328,-410 2322,-410"/>
<text text-anchor="middle" x="2226.5" y="-394.8" font-family="Times,serif" font-size="14.00">net</text>
<text text-anchor="middle" x="2226.5" y="-379.8" font-family="Times,serif" font-size="14.00">k width: 3 &#160;&#160;log gamma2: &#45;3.482405</text>
<text text-anchor="middle" x="2226.5" y="-364.8" font-family="Times,serif" font-size="14.00">n kernels: 60</text>
</g>
<!-- 1 -->
<g id="node2" class="node"><title>1</title>
<path fill="#e9ffd3" stroke="black" d="M663,-313.5C663,-313.5 600,-313.5 600,-313.5 594,-313.5 588,-307.5 588,-301.5 588,-301.5 588,-287.5 588,-287.5 588,-281.5 594,-275.5 600,-275.5 600,-275.5 663,-275.5 663,-275.5 669,-275.5 675,-281.5 675,-287.5 675,-287.5 675,-301.5 675,-301.5 675,-307.5 669,-313.5 663,-313.5"/>
<text text-anchor="middle" x="631.5" y="-298.3" font-family="Times,serif" font-size="14.00">conv block 0</text>
<text text-anchor="middle" x="631.5" y="-283.3" font-family="Times,serif" font-size="14.00">n kernels: &#45;5</text>
</g>
<!-- 0&#45;&gt;1 -->
<g id="edge1" class="edge"><title>0&#45;&gt;1</title>
<path fill="none" stroke="black" d="M2118.75,-376.623C1807.39,-359.639 914.122,-310.916 685.376,-298.439"/>
<polygon fill="black" stroke="black" points="685.48,-294.939 675.304,-297.889 685.098,-301.929 685.48,-294.939"/>
</g>
<!-- 2 -->
<g id="node3" class="node"><title>2</title>
<path fill="#e9ffd3" stroke="black" d="M1545.5,-321C1545.5,-321 1343.5,-321 1343.5,-321 1337.5,-321 1331.5,-315 1331.5,-309 1331.5,-309 1331.5,-280 1331.5,-280 1331.5,-274 1337.5,-268 1343.5,-268 1343.5,-268 1545.5,-268 1545.5,-268 1551.5,-268 1557.5,-274 1557.5,-280 1557.5,-280 1557.5,-309 1557.5,-309 1557.5,-315 1551.5,-321 1545.5,-321"/>
<text text-anchor="middle" x="1444.5" y="-305.8" font-family="Times,serif" font-size="14.00">conv block 1</text>
<text text-anchor="middle" x="1444.5" y="-290.8" font-family="Times,serif" font-size="14.00">log gamma2: 0.482405 &#160;&#160;n kernels: 60</text>
<text text-anchor="middle" x="1444.5" y="-275.8" font-family="Times,serif" font-size="14.00">pool z: 1 &#160;&#160;spatial scale: 1</text>
</g>
<!-- 0&#45;&gt;2 -->
<g id="edge2" class="edge"><title>0&#45;&gt;2</title>
<path fill="none" stroke="black" d="M2119,-370.54C1974.94,-354.513 1719.87,-326.136 1568.06,-309.247"/>
<polygon fill="black" stroke="black" points="1568.09,-305.728 1557.77,-308.101 1567.32,-312.685 1568.09,-305.728"/>
</g>
<!-- 3 -->
<g id="node4" class="node"><title>3</title>
<path fill="#e9ffd3" stroke="black" d="M2331,-321C2331,-321 2122,-321 2122,-321 2116,-321 2110,-315 2110,-309 2110,-309 2110,-280 2110,-280 2110,-274 2116,-268 2122,-268 2122,-268 2331,-268 2331,-268 2337,-268 2343,-274 2343,-280 2343,-280 2343,-309 2343,-309 2343,-315 2337,-321 2331,-321"/>
<text text-anchor="middle" x="2226.5" y="-305.8" font-family="Times,serif" font-size="14.00">conv block 2</text>
<text text-anchor="middle" x="2226.5" y="-290.8" font-family="Times,serif" font-size="14.00">log gamma2: 0.482405 &#160;&#160;n kernels: 180</text>
<text text-anchor="middle" x="2226.5" y="-275.8" font-family="Times,serif" font-size="14.00">spatial scale: 2</text>
</g>
<!-- 0&#45;&gt;3 -->
<g id="edge3" class="edge"><title>0&#45;&gt;3</title>
<path fill="none" stroke="black" d="M2226.5,-356.868C2226.5,-348.886 2226.5,-339.932 2226.5,-331.384"/>
<polygon fill="black" stroke="black" points="2230,-331.25 2226.5,-321.25 2223,-331.25 2230,-331.25"/>
</g>
<!-- 4 -->
<g id="node5" class="node"><title>4</title>
<path fill="#e9ffd3" stroke="black" d="M3437,-321C3437,-321 3226,-321 3226,-321 3220,-321 3214,-315 3214,-309 3214,-309 3214,-280 3214,-280 3214,-274 3220,-268 3226,-268 3226,-268 3437,-268 3437,-268 3443,-268 3449,-274 3449,-280 3449,-280 3449,-309 3449,-309 3449,-315 3443,-321 3437,-321"/>
<text text-anchor="middle" x="3331.5" y="-305.8" font-family="Times,serif" font-size="14.00">conv block 3</text>
<text text-anchor="middle" x="3331.5" y="-290.8" font-family="Times,serif" font-size="14.00">log gamma1: &#45;0.915125 &#160;&#160;n kernels: &#45;17</text>
<text text-anchor="middle" x="3331.5" y="-275.8" font-family="Times,serif" font-size="14.00">spatial scale: 3</text>
</g>
<!-- 0&#45;&gt;4 -->
<g id="edge4" class="edge"><title>0&#45;&gt;4</title>
<path fill="none" stroke="black" d="M2334.21,-374.02C2539.09,-357.889 2984.01,-322.859 3203.62,-305.568"/>
<polygon fill="black" stroke="black" points="3204.21,-309.033 3213.91,-304.759 3203.66,-302.054 3204.21,-309.033"/>
</g>
<!-- 5 -->
<g id="node6" class="node"><title>5</title>
<path fill="#e9ffd3" stroke="black" d="M4230,-312.5C4230,-312.5 4163,-312.5 4163,-312.5 4157,-312.5 4151,-306.5 4151,-300.5 4151,-300.5 4151,-288.5 4151,-288.5 4151,-282.5 4157,-276.5 4163,-276.5 4163,-276.5 4230,-276.5 4230,-276.5 4236,-276.5 4242,-282.5 4242,-288.5 4242,-288.5 4242,-300.5 4242,-300.5 4242,-306.5 4236,-312.5 4230,-312.5"/>
<text text-anchor="middle" x="4196.5" y="-290.8" font-family="Times,serif" font-size="14.00">path combine</text>
</g>
<!-- 0&#45;&gt;5 -->
<g id="edge5" class="edge"><title>0&#45;&gt;5</title>
<path fill="none" stroke="black" d="M2334.17,-377.745C2697.28,-361.709 3869.27,-309.951 4140.23,-297.985"/>
<polygon fill="black" stroke="black" points="4140.76,-301.465 4150.6,-297.527 4140.45,-294.472 4140.76,-301.465"/>
</g>
<!-- 6 -->
<g id="node7" class="node"><title>6</title>
<path fill="#d3ffff" stroke="black" d="M299.5,-202C299.5,-202 99.5,-202 99.5,-202 93.5,-202 87.5,-196 87.5,-190 87.5,-190 87.5,-176 87.5,-176 87.5,-170 93.5,-164 99.5,-164 99.5,-164 299.5,-164 299.5,-164 305.5,-164 311.5,-170 311.5,-176 311.5,-176 311.5,-190 311.5,-190 311.5,-196 305.5,-202 299.5,-202"/>
<text text-anchor="middle" x="199.5" y="-186.8" font-family="Times,serif" font-size="14.00">comp 0</text>
<text text-anchor="middle" x="199.5" y="-171.8" font-family="Times,serif" font-size="14.00">log gamma2: 0.374153 &#160;&#160;n kernels: &#45;6</text>
</g>
<!-- 1&#45;&gt;6 -->
<g id="edge6" class="edge"><title>1&#45;&gt;6</title>
<path fill="none" stroke="black" d="M587.893,-284.035C535.416,-272.485 444.717,-252.012 367.5,-232 335.315,-223.659 299.892,-213.661 269.905,-204.954"/>
<polygon fill="black" stroke="black" points="270.536,-201.492 259.956,-202.055 268.578,-208.213 270.536,-201.492"/>
</g>
<!-- 7 -->
<g id="node8" class="node"><title>7</title>
<path fill="#bfe6e6" stroke="black" d="M588.5,-202C588.5,-202 388.5,-202 388.5,-202 382.5,-202 376.5,-196 376.5,-190 376.5,-190 376.5,-176 376.5,-176 376.5,-170 382.5,-164 388.5,-164 388.5,-164 588.5,-164 588.5,-164 594.5,-164 600.5,-170 600.5,-176 600.5,-176 600.5,-190 600.5,-190 600.5,-196 594.5,-202 588.5,-202"/>
<text text-anchor="middle" x="488.5" y="-186.8" font-family="Times,serif" font-size="14.00">comp 1</text>
<text text-anchor="middle" x="488.5" y="-171.8" font-family="Times,serif" font-size="14.00">log gamma1: 0.670497 &#160;&#160;n kernels: &#45;5</text>
</g>
<!-- 1&#45;&gt;7 -->
<g id="edge7" class="edge"><title>1&#45;&gt;7</title>
<path fill="none" stroke="black" d="M607.886,-275.418C583.978,-257.111 546.85,-228.68 520.349,-208.388"/>
<polygon fill="black" stroke="black" points="522.216,-205.409 512.149,-202.109 517.96,-210.967 522.216,-205.409"/>
</g>
<!-- 8 -->
<g id="node9" class="node"><title>8</title>
<path fill="#abcece" stroke="black" d="M903,-202C903,-202 644,-202 644,-202 638,-202 632,-196 632,-190 632,-190 632,-176 632,-176 632,-170 638,-164 644,-164 644,-164 903,-164 903,-164 909,-164 915,-170 915,-176 915,-176 915,-190 915,-190 915,-196 909,-202 903,-202"/>
<text text-anchor="middle" x="773.5" y="-186.8" font-family="Times,serif" font-size="14.00">comp 2</text>
<text text-anchor="middle" x="773.5" y="-171.8" font-family="Times,serif" font-size="14.00">log gamma1: 1.801061 &#160;&#160;log gamma2: 0.355361</text>
</g>
<!-- 1&#45;&gt;8 -->
<g id="edge8" class="edge"><title>1&#45;&gt;8</title>
<path fill="none" stroke="black" d="M654.948,-275.418C678.689,-257.111 715.558,-228.68 741.874,-208.388"/>
<polygon fill="black" stroke="black" points="744.235,-210.987 750.017,-202.109 739.96,-205.443 744.235,-210.987"/>
</g>
<!-- 9 -->
<g id="node10" class="node"><title>9</title>
<path fill="#d3ffff" stroke="black" d="M1259,-202C1259,-202 1134,-202 1134,-202 1128,-202 1122,-196 1122,-190 1122,-190 1122,-176 1122,-176 1122,-170 1128,-164 1134,-164 1134,-164 1259,-164 1259,-164 1265,-164 1271,-170 1271,-176 1271,-176 1271,-190 1271,-190 1271,-196 1265,-202 1259,-202"/>
<text text-anchor="middle" x="1196.5" y="-186.8" font-family="Times,serif" font-size="14.00">comp 0</text>
<text text-anchor="middle" x="1196.5" y="-171.8" font-family="Times,serif" font-size="14.00">log gamma1: &#45;0.331847</text>
</g>
<!-- 2&#45;&gt;9 -->
<g id="edge9" class="edge"><title>2&#45;&gt;9</title>
<path fill="none" stroke="black" d="M1386.67,-267.965C1344.18,-249.204 1287.03,-223.97 1246.5,-206.077"/>
<polygon fill="black" stroke="black" points="1247.91,-202.873 1237.35,-202.036 1245.08,-209.277 1247.91,-202.873"/>
</g>
<!-- 10 -->
<g id="node11" class="node"><title>10</title>
<path fill="#bfe6e6" stroke="black" d="M1514,-202C1514,-202 1375,-202 1375,-202 1369,-202 1363,-196 1363,-190 1363,-190 1363,-176 1363,-176 1363,-170 1369,-164 1375,-164 1375,-164 1514,-164 1514,-164 1520,-164 1526,-170 1526,-176 1526,-176 1526,-190 1526,-190 1526,-196 1520,-202 1514,-202"/>
<text text-anchor="middle" x="1444.5" y="-186.8" font-family="Times,serif" font-size="14.00">path end 1</text>
<text text-anchor="middle" x="1444.5" y="-171.8" font-family="Times,serif" font-size="14.00">k width: &#45;2 &#160;&#160;n kernels: &#45;65</text>
</g>
<!-- 2&#45;&gt;10 -->
<g id="edge10" class="edge"><title>2&#45;&gt;10</title>
<path fill="none" stroke="black" d="M1444.5,-267.827C1444.5,-251.18 1444.5,-229.482 1444.5,-212.332"/>
<polygon fill="black" stroke="black" points="1448,-212.327 1444.5,-202.327 1441,-212.327 1448,-212.327"/>
</g>
<!-- 11 -->
<g id="node12" class="node"><title>11</title>
<path fill="#d3ffff" stroke="black" d="M1932.5,-201C1932.5,-201 1898.5,-201 1898.5,-201 1892.5,-201 1886.5,-195 1886.5,-189 1886.5,-189 1886.5,-177 1886.5,-177 1886.5,-171 1892.5,-165 1898.5,-165 1898.5,-165 1932.5,-165 1932.5,-165 1938.5,-165 1944.5,-171 1944.5,-177 1944.5,-177 1944.5,-189 1944.5,-189 1944.5,-195 1938.5,-201 1932.5,-201"/>
<text text-anchor="middle" x="1915.5" y="-179.3" font-family="Times,serif" font-size="14.00">comp 0</text>
</g>
<!-- 3&#45;&gt;11 -->
<g id="edge11" class="edge"><title>3&#45;&gt;11</title>
<path fill="none" stroke="black" d="M2153.98,-267.965C2091.55,-245.985 2003.89,-215.12 1954.08,-197.585"/>
<polygon fill="black" stroke="black" points="1955.24,-194.282 1944.65,-194.262 1952.92,-200.885 1955.24,-194.282"/>
</g>
<!-- 12 -->
<g id="node13" class="node"><title>12</title>
<path fill="#bfe6e6" stroke="black" d="M2157.5,-201C2157.5,-201 2123.5,-201 2123.5,-201 2117.5,-201 2111.5,-195 2111.5,-189 2111.5,-189 2111.5,-177 2111.5,-177 2111.5,-171 2117.5,-165 2123.5,-165 2123.5,-165 2157.5,-165 2157.5,-165 2163.5,-165 2169.5,-171 2169.5,-177 2169.5,-177 2169.5,-189 2169.5,-189 2169.5,-195 2163.5,-201 2157.5,-201"/>
<text text-anchor="middle" x="2140.5" y="-179.3" font-family="Times,serif" font-size="14.00">comp 1</text>
</g>
<!-- 3&#45;&gt;12 -->
<g id="edge12" class="edge"><title>3&#45;&gt;12</title>
<path fill="none" stroke="black" d="M2206.34,-267.827C2192.51,-250.226 2174.25,-226.978 2160.47,-209.429"/>
<polygon fill="black" stroke="black" points="2163.03,-207.025 2154.1,-201.322 2157.53,-211.349 2163.03,-207.025"/>
</g>
<!-- 13 -->
<g id="node14" class="node"><title>13</title>
<path fill="#abcece" stroke="black" d="M2375,-202C2375,-202 2250,-202 2250,-202 2244,-202 2238,-196 2238,-190 2238,-190 2238,-176 2238,-176 2238,-170 2244,-164 2250,-164 2250,-164 2375,-164 2375,-164 2381,-164 2387,-170 2387,-176 2387,-176 2387,-190 2387,-190 2387,-196 2381,-202 2375,-202"/>
<text text-anchor="middle" x="2312.5" y="-186.8" font-family="Times,serif" font-size="14.00">comp 2</text>
<text text-anchor="middle" x="2312.5" y="-171.8" font-family="Times,serif" font-size="14.00">log gamma1: &#45;0.314306</text>
</g>
<!-- 3&#45;&gt;13 -->
<g id="edge13" class="edge"><title>3&#45;&gt;13</title>
<path fill="none" stroke="black" d="M2246.66,-267.827C2260.23,-250.552 2278.07,-227.837 2291.76,-210.41"/>
<polygon fill="black" stroke="black" points="2294.68,-212.353 2298.11,-202.327 2289.18,-208.029 2294.68,-212.353"/>
</g>
<!-- 14 -->
<g id="node15" class="node"><title>14</title>
<path fill="#97b6b6" stroke="black" d="M2686.5,-202C2686.5,-202 2540.5,-202 2540.5,-202 2534.5,-202 2528.5,-196 2528.5,-190 2528.5,-190 2528.5,-176 2528.5,-176 2528.5,-170 2534.5,-164 2540.5,-164 2540.5,-164 2686.5,-164 2686.5,-164 2692.5,-164 2698.5,-170 2698.5,-176 2698.5,-176 2698.5,-190 2698.5,-190 2698.5,-196 2692.5,-202 2686.5,-202"/>
<text text-anchor="middle" x="2613.5" y="-186.8" font-family="Times,serif" font-size="14.00">path end 2</text>
<text text-anchor="middle" x="2613.5" y="-171.8" font-family="Times,serif" font-size="14.00">k width: &#45;2 &#160;&#160;n kernels: &#45;185</text>
</g>
<!-- 3&#45;&gt;14 -->
<g id="edge14" class="edge"><title>3&#45;&gt;14</title>
<path fill="none" stroke="black" d="M2316.75,-267.965C2384.59,-248.77 2476.38,-222.798 2539.83,-204.846"/>
<polygon fill="black" stroke="black" points="2541.09,-208.126 2549.76,-202.036 2539.18,-201.391 2541.09,-208.126"/>
</g>
<!-- 15 -->
<g id="node16" class="node"><title>15</title>
<path fill="#d3ffff" stroke="black" d="M3170.5,-202C3170.5,-202 3050.5,-202 3050.5,-202 3044.5,-202 3038.5,-196 3038.5,-190 3038.5,-190 3038.5,-176 3038.5,-176 3038.5,-170 3044.5,-164 3050.5,-164 3050.5,-164 3170.5,-164 3170.5,-164 3176.5,-164 3182.5,-170 3182.5,-176 3182.5,-176 3182.5,-190 3182.5,-190 3182.5,-196 3176.5,-202 3170.5,-202"/>
<text text-anchor="middle" x="3110.5" y="-186.8" font-family="Times,serif" font-size="14.00">comp 0</text>
<text text-anchor="middle" x="3110.5" y="-171.8" font-family="Times,serif" font-size="14.00">log gamma2: 0.295116</text>
</g>
<!-- 4&#45;&gt;15 -->
<g id="edge15" class="edge"><title>4&#45;&gt;15</title>
<path fill="none" stroke="black" d="M3279.96,-267.965C3242.5,-249.401 3192.24,-224.5 3156.2,-206.644"/>
<polygon fill="black" stroke="black" points="3157.42,-203.339 3146.9,-202.036 3154.31,-209.612 3157.42,-203.339"/>
</g>
<!-- 16 -->
<g id="node17" class="node"><title>16</title>
<path fill="#bfe6e6" stroke="black" d="M3348.5,-201C3348.5,-201 3314.5,-201 3314.5,-201 3308.5,-201 3302.5,-195 3302.5,-189 3302.5,-189 3302.5,-177 3302.5,-177 3302.5,-171 3308.5,-165 3314.5,-165 3314.5,-165 3348.5,-165 3348.5,-165 3354.5,-165 3360.5,-171 3360.5,-177 3360.5,-177 3360.5,-189 3360.5,-189 3360.5,-195 3354.5,-201 3348.5,-201"/>
<text text-anchor="middle" x="3331.5" y="-179.3" font-family="Times,serif" font-size="14.00">comp 1</text>
</g>
<!-- 4&#45;&gt;16 -->
<g id="edge16" class="edge"><title>4&#45;&gt;16</title>
<path fill="none" stroke="black" d="M3331.5,-267.827C3331.5,-250.866 3331.5,-228.661 3331.5,-211.366"/>
<polygon fill="black" stroke="black" points="3335,-211.322 3331.5,-201.322 3328,-211.322 3335,-211.322"/>
</g>
<!-- 17 -->
<g id="node18" class="node"><title>17</title>
<path fill="#abcece" stroke="black" d="M3515,-202C3515,-202 3390,-202 3390,-202 3384,-202 3378,-196 3378,-190 3378,-190 3378,-176 3378,-176 3378,-170 3384,-164 3390,-164 3390,-164 3515,-164 3515,-164 3521,-164 3527,-170 3527,-176 3527,-176 3527,-190 3527,-190 3527,-196 3521,-202 3515,-202"/>
<text text-anchor="middle" x="3452.5" y="-186.8" font-family="Times,serif" font-size="14.00">comp 2</text>
<text text-anchor="middle" x="3452.5" y="-171.8" font-family="Times,serif" font-size="14.00">log gamma1: &#45;0.690351</text>
</g>
<!-- 4&#45;&gt;17 -->
<g id="edge17" class="edge"><title>4&#45;&gt;17</title>
<path fill="none" stroke="black" d="M3359.87,-267.827C3379.39,-250.16 3405.2,-226.801 3424.62,-209.23"/>
<polygon fill="black" stroke="black" points="3427.18,-211.632 3432.25,-202.327 3422.49,-206.442 3427.18,-211.632"/>
</g>
<!-- 18 -->
<g id="node19" class="node"><title>18</title>
<path fill="#97b6b6" stroke="black" d="M3690.5,-202C3690.5,-202 3556.5,-202 3556.5,-202 3550.5,-202 3544.5,-196 3544.5,-190 3544.5,-190 3544.5,-176 3544.5,-176 3544.5,-170 3550.5,-164 3556.5,-164 3556.5,-164 3690.5,-164 3690.5,-164 3696.5,-164 3702.5,-170 3702.5,-176 3702.5,-176 3702.5,-190 3702.5,-190 3702.5,-196 3696.5,-202 3690.5,-202"/>
<text text-anchor="middle" x="3623.5" y="-186.8" font-family="Times,serif" font-size="14.00">path end 3</text>
<text text-anchor="middle" x="3623.5" y="-171.8" font-family="Times,serif" font-size="14.00">k width: &#45;2 &#160;&#160;n kernels: 12</text>
</g>
<!-- 4&#45;&gt;18 -->
<g id="edge18" class="edge"><title>4&#45;&gt;18</title>
<path fill="none" stroke="black" d="M3431,-267.969C3464.71,-258.151 3502.23,-245.914 3535.5,-232 3552.25,-224.994 3569.97,-215.725 3585.08,-207.202"/>
<polygon fill="black" stroke="black" points="3587.19,-210.029 3594.12,-202.018 3583.7,-203.956 3587.19,-210.029"/>
</g>
<!-- 19 -->
<g id="node20" class="node"><title>19</title>
<path fill="#d3ffff" stroke="black" d="M4014,-232C4014,-232 3733,-232 3733,-232 3727,-232 3721,-226 3721,-220 3721,-220 3721,-146 3721,-146 3721,-140 3727,-134 3733,-134 3733,-134 4014,-134 4014,-134 4020,-134 4026,-140 4026,-146 4026,-146 4026,-220 4026,-220 4026,-226 4020,-232 4014,-232"/>
<text text-anchor="middle" x="3873.5" y="-216.8" font-family="Times,serif" font-size="14.00">forward</text>
<text text-anchor="middle" x="3873.5" y="-201.8" font-family="Times,serif" font-size="14.00">CB0/C2</text>
<text text-anchor="middle" x="3873.5" y="-186.8" font-family="Times,serif" font-size="14.00">dilation rate: 1 &#160;&#160;k width: 3</text>
<text text-anchor="middle" x="3873.5" y="-171.8" font-family="Times,serif" font-size="14.00">log gamma1: &#45;11.000000 &#160;&#160;log gamma2: &#45;11.000000</text>
<text text-anchor="middle" x="3873.5" y="-156.8" font-family="Times,serif" font-size="14.00">log lambda1: &#45;11.000000 &#160;&#160;log lambda2: &#45;11.000000</text>
<text text-anchor="middle" x="3873.5" y="-141.8" font-family="Times,serif" font-size="14.00">n kernels: 64</text>
</g>
<!-- 5&#45;&gt;19 -->
<g id="edge19" class="edge"><title>5&#45;&gt;19</title>
<path fill="none" stroke="black" d="M4150.91,-278.044C4117.79,-266.816 4070.92,-250.928 4025.12,-235.402"/>
<polygon fill="black" stroke="black" points="4025.97,-231.991 4015.37,-232.096 4023.72,-238.621 4025.97,-231.991"/>
</g>
<!-- 20 -->
<g id="node21" class="node"><title>20</title>
<path fill="#bfe6e6" stroke="black" d="M4337,-232C4337,-232 4056,-232 4056,-232 4050,-232 4044,-226 4044,-220 4044,-220 4044,-146 4044,-146 4044,-140 4050,-134 4056,-134 4056,-134 4337,-134 4337,-134 4343,-134 4349,-140 4349,-146 4349,-146 4349,-220 4349,-220 4349,-226 4343,-232 4337,-232"/>
<text text-anchor="middle" x="4196.5" y="-216.8" font-family="Times,serif" font-size="14.00">residual 1</text>
<text text-anchor="middle" x="4196.5" y="-201.8" font-family="Times,serif" font-size="14.00">CB1/PE1</text>
<text text-anchor="middle" x="4196.5" y="-186.8" font-family="Times,serif" font-size="14.00">dilation rate: 1 &#160;&#160;k width: 3</text>
<text text-anchor="middle" x="4196.5" y="-171.8" font-family="Times,serif" font-size="14.00">log gamma1: &#45;11.000000 &#160;&#160;log gamma2: &#45;11.000000</text>
<text text-anchor="middle" x="4196.5" y="-156.8" font-family="Times,serif" font-size="14.00">log lambda1: &#45;11.000000 &#160;&#160;log lambda2: &#45;11.000000</text>
<text text-anchor="middle" x="4196.5" y="-141.8" font-family="Times,serif" font-size="14.00">n kernels: 64</text>
</g>
<!-- 5&#45;&gt;20 -->
<g id="edge20" class="edge"><title>5&#45;&gt;20</title>
<path fill="none" stroke="black" d="M4196.5,-276.391C4196.5,-266.993 4196.5,-254.728 4196.5,-242.22"/>
<polygon fill="black" stroke="black" points="4200,-242.188 4196.5,-232.188 4193,-242.188 4200,-242.188"/>
</g>
<!-- 21 -->
<g id="node22" class="node"><title>21</title>
<path fill="#abcece" stroke="black" d="M4660,-232C4660,-232 4379,-232 4379,-232 4373,-232 4367,-226 4367,-220 4367,-220 4367,-146 4367,-146 4367,-140 4373,-134 4379,-134 4379,-134 4660,-134 4660,-134 4666,-134 4672,-140 4672,-146 4672,-146 4672,-220 4672,-220 4672,-226 4666,-232 4660,-232"/>
<text text-anchor="middle" x="4519.5" y="-216.8" font-family="Times,serif" font-size="14.00">residual 2</text>
<text text-anchor="middle" x="4519.5" y="-201.8" font-family="Times,serif" font-size="14.00">CB2/PE2</text>
<text text-anchor="middle" x="4519.5" y="-186.8" font-family="Times,serif" font-size="14.00">dilation rate: 1 &#160;&#160;k width: 3</text>
<text text-anchor="middle" x="4519.5" y="-171.8" font-family="Times,serif" font-size="14.00">log gamma1: &#45;11.000000 &#160;&#160;log gamma2: &#45;11.000000</text>
<text text-anchor="middle" x="4519.5" y="-156.8" font-family="Times,serif" font-size="14.00">log lambda1: &#45;11.000000 &#160;&#160;log lambda2: &#45;11.000000</text>
<text text-anchor="middle" x="4519.5" y="-141.8" font-family="Times,serif" font-size="14.00">n kernels: 64</text>
</g>
<!-- 5&#45;&gt;21 -->
<g id="edge21" class="edge"><title>5&#45;&gt;21</title>
<path fill="none" stroke="black" d="M4242.09,-278.044C4275.21,-266.816 4322.08,-250.928 4367.88,-235.402"/>
<polygon fill="black" stroke="black" points="4369.28,-238.621 4377.63,-232.096 4367.03,-231.991 4369.28,-238.621"/>
</g>
<!-- 22 -->
<g id="node23" class="node"><title>22</title>
<path fill="#97b6b6" stroke="black" d="M4983,-232C4983,-232 4702,-232 4702,-232 4696,-232 4690,-226 4690,-220 4690,-220 4690,-146 4690,-146 4690,-140 4696,-134 4702,-134 4702,-134 4983,-134 4983,-134 4989,-134 4995,-140 4995,-146 4995,-146 4995,-220 4995,-220 4995,-226 4989,-232 4983,-232"/>
<text text-anchor="middle" x="4842.5" y="-216.8" font-family="Times,serif" font-size="14.00">residual 3</text>
<text text-anchor="middle" x="4842.5" y="-201.8" font-family="Times,serif" font-size="14.00">CB3/PE3</text>
<text text-anchor="middle" x="4842.5" y="-186.8" font-family="Times,serif" font-size="14.00">dilation rate: 1 &#160;&#160;k width: 3</text>
<text text-anchor="middle" x="4842.5" y="-171.8" font-family="Times,serif" font-size="14.00">log gamma1: &#45;11.000000 &#160;&#160;log gamma2: &#45;11.000000</text>
<text text-anchor="middle" x="4842.5" y="-156.8" font-family="Times,serif" font-size="14.00">log lambda1: &#45;11.000000 &#160;&#160;log lambda2: &#45;11.000000</text>
<text text-anchor="middle" x="4842.5" y="-141.8" font-family="Times,serif" font-size="14.00">n kernels: 64</text>
</g>
<!-- 5&#45;&gt;22 -->
<g id="edge22" class="edge"><title>5&#45;&gt;22</title>
<path fill="none" stroke="black" d="M4242.28,-290.164C4326.99,-283.457 4513.86,-266.154 4679.73,-232.073"/>
<polygon fill="black" stroke="black" points="4680.53,-235.48 4689.61,-230.016 4679.11,-228.626 4680.53,-235.48"/>
</g>
<!-- 23 -->
<g id="node24" class="node"><title>23</title>
<path fill="#e9d3ff" stroke="black" d="M293,-98C293,-98 12,-98 12,-98 6,-98 0,-92 0,-86 0,-86 0,-12 0,-12 0,-6 6,-0 12,-0 12,-0 293,-0 293,-0 299,-0 305,-6 305,-12 305,-12 305,-86 305,-86 305,-92 299,-98 293,-98"/>
<text text-anchor="middle" x="152.5" y="-82.8" font-family="Times,serif" font-size="14.00">forward</text>
<text text-anchor="middle" x="152.5" y="-67.8" font-family="Times,serif" font-size="14.00">input</text>
<text text-anchor="middle" x="152.5" y="-52.8" font-family="Times,serif" font-size="14.00">dilation rate: 1 &#160;&#160;k width: 3</text>
<text text-anchor="middle" x="152.5" y="-37.8" font-family="Times,serif" font-size="14.00">log gamma1: &#45;11.000000 &#160;&#160;log gamma2: &#45;11.000000</text>
<text text-anchor="middle" x="152.5" y="-22.8" font-family="Times,serif" font-size="14.00">log lambda1: &#45;11.000000 &#160;&#160;log lambda2: &#45;11.000000</text>
<text text-anchor="middle" x="152.5" y="-7.8" font-family="Times,serif" font-size="14.00">n kernels: 64</text>
</g>
<!-- 6&#45;&gt;23 -->
<g id="edge23" class="edge"><title>6&#45;&gt;23</title>
<path fill="none" stroke="black" d="M193.063,-163.923C187.876,-149.355 180.283,-128.028 173.064,-107.755"/>
<polygon fill="black" stroke="black" points="176.326,-106.48 169.674,-98.2336 169.731,-108.828 176.326,-106.48"/>
</g>
<!-- 24 -->
<g id="node25" class="node"><title>24</title>
<path fill="#e9d3ff" stroke="black" d="M616,-98C616,-98 335,-98 335,-98 329,-98 323,-92 323,-86 323,-86 323,-12 323,-12 323,-6 329,-0 335,-0 335,-0 616,-0 616,-0 622,-0 628,-6 628,-12 628,-12 628,-86 628,-86 628,-92 622,-98 616,-98"/>
<text text-anchor="middle" x="475.5" y="-82.8" font-family="Times,serif" font-size="14.00">forward</text>
<text text-anchor="middle" x="475.5" y="-67.8" font-family="Times,serif" font-size="14.00">CB0/C0</text>
<text text-anchor="middle" x="475.5" y="-52.8" font-family="Times,serif" font-size="14.00">dilation rate: 1 &#160;&#160;k width: 3</text>
<text text-anchor="middle" x="475.5" y="-37.8" font-family="Times,serif" font-size="14.00">log gamma1: &#45;11.000000 &#160;&#160;log gamma2: &#45;11.000000</text>
<text text-anchor="middle" x="475.5" y="-22.8" font-family="Times,serif" font-size="14.00">log lambda1: &#45;11.000000 &#160;&#160;log lambda2: &#45;11.000000</text>
<text text-anchor="middle" x="475.5" y="-7.8" font-family="Times,serif" font-size="14.00">n kernels: 64</text>
</g>
<!-- 7&#45;&gt;24 -->
<g id="edge24" class="edge"><title>7&#45;&gt;24</title>
<path fill="none" stroke="black" d="M486.72,-163.923C485.298,-149.486 483.223,-128.413 481.242,-108.306"/>
<polygon fill="black" stroke="black" points="484.714,-107.842 480.25,-98.2336 477.747,-108.529 484.714,-107.842"/>
</g>
<!-- 25 -->
<g id="node26" class="node"><title>25</title>
<path fill="#e9d3ff" stroke="black" d="M939,-98C939,-98 658,-98 658,-98 652,-98 646,-92 646,-86 646,-86 646,-12 646,-12 646,-6 652,-0 658,-0 658,-0 939,-0 939,-0 945,-0 951,-6 951,-12 951,-12 951,-86 951,-86 951,-92 945,-98 939,-98"/>
<text text-anchor="middle" x="798.5" y="-82.8" font-family="Times,serif" font-size="14.00">forward</text>
<text text-anchor="middle" x="798.5" y="-67.8" font-family="Times,serif" font-size="14.00">CB0/C1</text>
<text text-anchor="middle" x="798.5" y="-52.8" font-family="Times,serif" font-size="14.00">dilation rate: 1 &#160;&#160;k width: 3</text>
<text text-anchor="middle" x="798.5" y="-37.8" font-family="Times,serif" font-size="14.00">log gamma1: &#45;11.000000 &#160;&#160;log gamma2: &#45;11.000000</text>
<text text-anchor="middle" x="798.5" y="-22.8" font-family="Times,serif" font-size="14.00">log lambda1: &#45;11.000000 &#160;&#160;log lambda2: &#45;11.000000</text>
<text text-anchor="middle" x="798.5" y="-7.8" font-family="Times,serif" font-size="14.00">n kernels: 64</text>
</g>
<!-- 8&#45;&gt;25 -->
<g id="edge25" class="edge"><title>8&#45;&gt;25</title>
<path fill="none" stroke="black" d="M776.924,-163.923C779.658,-149.486 783.649,-128.413 787.457,-108.306"/>
<polygon fill="black" stroke="black" points="790.943,-108.71 789.365,-98.2336 784.065,-107.408 790.943,-108.71"/>
</g>
<!-- 26 -->
<g id="node27" class="node"><title>26</title>
<path fill="#e9d3ff" stroke="black" d="M1262,-98C1262,-98 981,-98 981,-98 975,-98 969,-92 969,-86 969,-86 969,-12 969,-12 969,-6 975,-0 981,-0 981,-0 1262,-0 1262,-0 1268,-0 1274,-6 1274,-12 1274,-12 1274,-86 1274,-86 1274,-92 1268,-98 1262,-98"/>
<text text-anchor="middle" x="1121.5" y="-82.8" font-family="Times,serif" font-size="14.00">forward</text>
<text text-anchor="middle" x="1121.5" y="-67.8" font-family="Times,serif" font-size="14.00">input</text>
<text text-anchor="middle" x="1121.5" y="-52.8" font-family="Times,serif" font-size="14.00">dilation rate: 1 &#160;&#160;k width: 3</text>
<text text-anchor="middle" x="1121.5" y="-37.8" font-family="Times,serif" font-size="14.00">log gamma1: &#45;11.000000 &#160;&#160;log gamma2: &#45;11.000000</text>
<text text-anchor="middle" x="1121.5" y="-22.8" font-family="Times,serif" font-size="14.00">log lambda1: &#45;11.000000 &#160;&#160;log lambda2: &#45;11.000000</text>
<text text-anchor="middle" x="1121.5" y="-7.8" font-family="Times,serif" font-size="14.00">n kernels: 64</text>
</g>
<!-- 9&#45;&gt;26 -->
<g id="edge26" class="edge"><title>9&#45;&gt;26</title>
<path fill="none" stroke="black" d="M1186.23,-163.923C1177.84,-149.157 1165.5,-127.447 1153.85,-106.93"/>
<polygon fill="black" stroke="black" points="1156.89,-105.199 1148.91,-98.2336 1150.8,-108.657 1156.89,-105.199"/>
</g>
<!-- 27 -->
<g id="node28" class="node"><title>27</title>
<path fill="#e9d3ff" stroke="black" d="M1585,-98C1585,-98 1304,-98 1304,-98 1298,-98 1292,-92 1292,-86 1292,-86 1292,-12 1292,-12 1292,-6 1298,-0 1304,-0 1304,-0 1585,-0 1585,-0 1591,-0 1597,-6 1597,-12 1597,-12 1597,-86 1597,-86 1597,-92 1591,-98 1585,-98"/>
<text text-anchor="middle" x="1444.5" y="-82.8" font-family="Times,serif" font-size="14.00">forward</text>
<text text-anchor="middle" x="1444.5" y="-67.8" font-family="Times,serif" font-size="14.00">CB1/C0</text>
<text text-anchor="middle" x="1444.5" y="-52.8" font-family="Times,serif" font-size="14.00">dilation rate: 1 &#160;&#160;k width: 3</text>
<text text-anchor="middle" x="1444.5" y="-37.8" font-family="Times,serif" font-size="14.00">log gamma1: &#45;11.000000 &#160;&#160;log gamma2: &#45;11.000000</text>
<text text-anchor="middle" x="1444.5" y="-22.8" font-family="Times,serif" font-size="14.00">log lambda1: &#45;11.000000 &#160;&#160;log lambda2: &#45;11.000000</text>
<text text-anchor="middle" x="1444.5" y="-7.8" font-family="Times,serif" font-size="14.00">n kernels: 64</text>
</g>
<!-- 10&#45;&gt;27 -->
<g id="edge27" class="edge"><title>10&#45;&gt;27</title>
<path fill="none" stroke="black" d="M1444.5,-163.923C1444.5,-149.486 1444.5,-128.413 1444.5,-108.306"/>
<polygon fill="black" stroke="black" points="1448,-108.234 1444.5,-98.2336 1441,-108.234 1448,-108.234"/>
</g>
<!-- 28 -->
<g id="node29" class="node"><title>28</title>
<path fill="#e9d3ff" stroke="black" d="M1908,-98C1908,-98 1627,-98 1627,-98 1621,-98 1615,-92 1615,-86 1615,-86 1615,-12 1615,-12 1615,-6 1621,-0 1627,-0 1627,-0 1908,-0 1908,-0 1914,-0 1920,-6 1920,-12 1920,-12 1920,-86 1920,-86 1920,-92 1914,-98 1908,-98"/>
<text text-anchor="middle" x="1767.5" y="-82.8" font-family="Times,serif" font-size="14.00">forward</text>
<text text-anchor="middle" x="1767.5" y="-67.8" font-family="Times,serif" font-size="14.00">input</text>
<text text-anchor="middle" x="1767.5" y="-52.8" font-family="Times,serif" font-size="14.00">dilation rate: 1 &#160;&#160;k width: 3</text>
<text text-anchor="middle" x="1767.5" y="-37.8" font-family="Times,serif" font-size="14.00">log gamma1: &#45;11.000000 &#160;&#160;log gamma2: &#45;11.000000</text>
<text text-anchor="middle" x="1767.5" y="-22.8" font-family="Times,serif" font-size="14.00">log lambda1: &#45;11.000000 &#160;&#160;log lambda2: &#45;11.000000</text>
<text text-anchor="middle" x="1767.5" y="-7.8" font-family="Times,serif" font-size="14.00">n kernels: 64</text>
</g>
<!-- 11&#45;&gt;28 -->
<g id="edge28" class="edge"><title>11&#45;&gt;28</title>
<path fill="none" stroke="black" d="M1896.15,-164.743C1879.11,-149.546 1853.34,-126.559 1829.32,-105.14"/>
<polygon fill="black" stroke="black" points="1831.39,-102.297 1821.6,-98.2533 1826.74,-107.522 1831.39,-102.297"/>
</g>
<!-- 29 -->
<g id="node30" class="node"><title>29</title>
<path fill="#e9d3ff" stroke="black" d="M2231,-98C2231,-98 1950,-98 1950,-98 1944,-98 1938,-92 1938,-86 1938,-86 1938,-12 1938,-12 1938,-6 1944,-0 1950,-0 1950,-0 2231,-0 2231,-0 2237,-0 2243,-6 2243,-12 2243,-12 2243,-86 2243,-86 2243,-92 2237,-98 2231,-98"/>
<text text-anchor="middle" x="2090.5" y="-82.8" font-family="Times,serif" font-size="14.00">forward</text>
<text text-anchor="middle" x="2090.5" y="-67.8" font-family="Times,serif" font-size="14.00">CB2/C0</text>
<text text-anchor="middle" x="2090.5" y="-52.8" font-family="Times,serif" font-size="14.00">dilation rate: 1 &#160;&#160;k width: 3</text>
<text text-anchor="middle" x="2090.5" y="-37.8" font-family="Times,serif" font-size="14.00">log gamma1: &#45;11.000000 &#160;&#160;log gamma2: &#45;11.000000</text>
<text text-anchor="middle" x="2090.5" y="-22.8" font-family="Times,serif" font-size="14.00">log lambda1: &#45;11.000000 &#160;&#160;log lambda2: &#45;11.000000</text>
<text text-anchor="middle" x="2090.5" y="-7.8" font-family="Times,serif" font-size="14.00">n kernels: 64</text>
</g>
<!-- 12&#45;&gt;29 -->
<g id="edge29" class="edge"><title>12&#45;&gt;29</title>
<path fill="none" stroke="black" d="M2133.96,-164.743C2128.43,-150.138 2120.17,-128.338 2112.34,-107.65"/>
<polygon fill="black" stroke="black" points="2115.59,-106.365 2108.78,-98.2533 2109.05,-108.845 2115.59,-106.365"/>
</g>
<!-- 30 -->
<g id="node31" class="node"><title>30</title>
<path fill="#e9d3ff" stroke="black" d="M2554,-98C2554,-98 2273,-98 2273,-98 2267,-98 2261,-92 2261,-86 2261,-86 2261,-12 2261,-12 2261,-6 2267,-0 2273,-0 2273,-0 2554,-0 2554,-0 2560,-0 2566,-6 2566,-12 2566,-12 2566,-86 2566,-86 2566,-92 2560,-98 2554,-98"/>
<text text-anchor="middle" x="2413.5" y="-82.8" font-family="Times,serif" font-size="14.00">forward</text>
<text text-anchor="middle" x="2413.5" y="-67.8" font-family="Times,serif" font-size="14.00">CB2/C1</text>
<text text-anchor="middle" x="2413.5" y="-52.8" font-family="Times,serif" font-size="14.00">dilation rate: 1 &#160;&#160;k width: 3</text>
<text text-anchor="middle" x="2413.5" y="-37.8" font-family="Times,serif" font-size="14.00">log gamma1: &#45;11.000000 &#160;&#160;log gamma2: &#45;11.000000</text>
<text text-anchor="middle" x="2413.5" y="-22.8" font-family="Times,serif" font-size="14.00">log lambda1: &#45;11.000000 &#160;&#160;log lambda2: &#45;11.000000</text>
<text text-anchor="middle" x="2413.5" y="-7.8" font-family="Times,serif" font-size="14.00">n kernels: 64</text>
</g>
<!-- 13&#45;&gt;30 -->
<g id="edge30" class="edge"><title>13&#45;&gt;30</title>
<path fill="none" stroke="black" d="M2326.33,-163.923C2337.73,-149.025 2354.54,-127.059 2370.36,-106.381"/>
<polygon fill="black" stroke="black" points="2373.3,-108.302 2376.59,-98.2336 2367.74,-104.049 2373.3,-108.302"/>
</g>
<!-- 31 -->
<g id="node32" class="node"><title>31</title>
<path fill="#e9d3ff" stroke="black" d="M2877,-98C2877,-98 2596,-98 2596,-98 2590,-98 2584,-92 2584,-86 2584,-86 2584,-12 2584,-12 2584,-6 2590,-0 2596,-0 2596,-0 2877,-0 2877,-0 2883,-0 2889,-6 2889,-12 2889,-12 2889,-86 2889,-86 2889,-92 2883,-98 2877,-98"/>
<text text-anchor="middle" x="2736.5" y="-82.8" font-family="Times,serif" font-size="14.00">forward</text>
<text text-anchor="middle" x="2736.5" y="-67.8" font-family="Times,serif" font-size="14.00">CB2/C2</text>
<text text-anchor="middle" x="2736.5" y="-52.8" font-family="Times,serif" font-size="14.00">dilation rate: 1 &#160;&#160;k width: 3</text>
<text text-anchor="middle" x="2736.5" y="-37.8" font-family="Times,serif" font-size="14.00">log gamma1: &#45;11.000000 &#160;&#160;log gamma2: &#45;11.000000</text>
<text text-anchor="middle" x="2736.5" y="-22.8" font-family="Times,serif" font-size="14.00">log lambda1: &#45;11.000000 &#160;&#160;log lambda2: &#45;11.000000</text>
<text text-anchor="middle" x="2736.5" y="-7.8" font-family="Times,serif" font-size="14.00">n kernels: 64</text>
</g>
<!-- 14&#45;&gt;31 -->
<g id="edge31" class="edge"><title>14&#45;&gt;31</title>
<path fill="none" stroke="black" d="M2630.34,-163.923C2644.41,-148.827 2665.24,-126.475 2684.73,-105.558"/>
<polygon fill="black" stroke="black" points="2687.3,-107.936 2691.56,-98.2336 2682.18,-103.164 2687.3,-107.936"/>
</g>
<!-- 32 -->
<g id="node33" class="node"><title>32</title>
<path fill="#e9d3ff" stroke="black" d="M3200,-98C3200,-98 2919,-98 2919,-98 2913,-98 2907,-92 2907,-86 2907,-86 2907,-12 2907,-12 2907,-6 2913,-0 2919,-0 2919,-0 3200,-0 3200,-0 3206,-0 3212,-6 3212,-12 3212,-12 3212,-86 3212,-86 3212,-92 3206,-98 3200,-98"/>
<text text-anchor="middle" x="3059.5" y="-82.8" font-family="Times,serif" font-size="14.00">forward</text>
<text text-anchor="middle" x="3059.5" y="-67.8" font-family="Times,serif" font-size="14.00">input</text>
<text text-anchor="middle" x="3059.5" y="-52.8" font-family="Times,serif" font-size="14.00">dilation rate: 1 &#160;&#160;k width: 3</text>
<text text-anchor="middle" x="3059.5" y="-37.8" font-family="Times,serif" font-size="14.00">log gamma1: &#45;11.000000 &#160;&#160;log gamma2: &#45;11.000000</text>
<text text-anchor="middle" x="3059.5" y="-22.8" font-family="Times,serif" font-size="14.00">log lambda1: &#45;11.000000 &#160;&#160;log lambda2: &#45;11.000000</text>
<text text-anchor="middle" x="3059.5" y="-7.8" font-family="Times,serif" font-size="14.00">n kernels: 64</text>
</g>
<!-- 15&#45;&gt;32 -->
<g id="edge32" class="edge"><title>15&#45;&gt;32</title>
<path fill="none" stroke="black" d="M3103.52,-163.923C3097.89,-149.355 3089.65,-128.028 3081.81,-107.755"/>
<polygon fill="black" stroke="black" points="3085,-106.3 3078.14,-98.2336 3078.47,-108.823 3085,-106.3"/>
</g>
<!-- 33 -->
<g id="node34" class="node"><title>33</title>
<path fill="#e9d3ff" stroke="black" d="M3523,-98C3523,-98 3242,-98 3242,-98 3236,-98 3230,-92 3230,-86 3230,-86 3230,-12 3230,-12 3230,-6 3236,-0 3242,-0 3242,-0 3523,-0 3523,-0 3529,-0 3535,-6 3535,-12 3535,-12 3535,-86 3535,-86 3535,-92 3529,-98 3523,-98"/>
<text text-anchor="middle" x="3382.5" y="-82.8" font-family="Times,serif" font-size="14.00">forward</text>
<text text-anchor="middle" x="3382.5" y="-67.8" font-family="Times,serif" font-size="14.00">CB3/C0</text>
<text text-anchor="middle" x="3382.5" y="-52.8" font-family="Times,serif" font-size="14.00">dilation rate: 1 &#160;&#160;k width: 3</text>
<text text-anchor="middle" x="3382.5" y="-37.8" font-family="Times,serif" font-size="14.00">log gamma1: &#45;11.000000 &#160;&#160;log gamma2: &#45;11.000000</text>
<text text-anchor="middle" x="3382.5" y="-22.8" font-family="Times,serif" font-size="14.00">log lambda1: &#45;11.000000 &#160;&#160;log lambda2: &#45;11.000000</text>
<text text-anchor="middle" x="3382.5" y="-7.8" font-family="Times,serif" font-size="14.00">n kernels: 64</text>
</g>
<!-- 16&#45;&gt;33 -->
<g id="edge33" class="edge"><title>16&#45;&gt;33</title>
<path fill="none" stroke="black" d="M3338.17,-164.743C3343.81,-150.138 3352.23,-128.338 3360.23,-107.65"/>
<polygon fill="black" stroke="black" points="3363.52,-108.843 3363.86,-98.2533 3356.99,-106.32 3363.52,-108.843"/>
</g>
<!-- 34 -->
<g id="node35" class="node"><title>34</title>
<path fill="#e9d3ff" stroke="black" d="M3846,-98C3846,-98 3565,-98 3565,-98 3559,-98 3553,-92 3553,-86 3553,-86 3553,-12 3553,-12 3553,-6 3559,-0 3565,-0 3565,-0 3846,-0 3846,-0 3852,-0 3858,-6 3858,-12 3858,-12 3858,-86 3858,-86 3858,-92 3852,-98 3846,-98"/>
<text text-anchor="middle" x="3705.5" y="-82.8" font-family="Times,serif" font-size="14.00">forward</text>
<text text-anchor="middle" x="3705.5" y="-67.8" font-family="Times,serif" font-size="14.00">CB3/C1</text>
<text text-anchor="middle" x="3705.5" y="-52.8" font-family="Times,serif" font-size="14.00">dilation rate: 1 &#160;&#160;k width: 3</text>
<text text-anchor="middle" x="3705.5" y="-37.8" font-family="Times,serif" font-size="14.00">log gamma1: &#45;11.000000 &#160;&#160;log gamma2: &#45;11.000000</text>
<text text-anchor="middle" x="3705.5" y="-22.8" font-family="Times,serif" font-size="14.00">log lambda1: &#45;11.000000 &#160;&#160;log lambda2: &#45;11.000000</text>
<text text-anchor="middle" x="3705.5" y="-7.8" font-family="Times,serif" font-size="14.00">n kernels: 64</text>
</g>
<!-- 17&#45;&gt;34 -->
<g id="edge34" class="edge"><title>17&#45;&gt;34</title>
<path fill="none" stroke="black" d="M3482.59,-163.965C3498.23,-154.751 3517.74,-143.508 3535.5,-134 3554.97,-123.576 3575.9,-112.849 3596.2,-102.691"/>
<polygon fill="black" stroke="black" points="3597.78,-105.817 3605.16,-98.2224 3594.65,-99.5523 3597.78,-105.817"/>
</g>
<!-- 35 -->
<g id="node36" class="node"><title>35</title>
<path fill="#e9d3ff" stroke="black" d="M4169,-98C4169,-98 3888,-98 3888,-98 3882,-98 3876,-92 3876,-86 3876,-86 3876,-12 3876,-12 3876,-6 3882,-0 3888,-0 3888,-0 4169,-0 4169,-0 4175,-0 4181,-6 4181,-12 4181,-12 4181,-86 4181,-86 4181,-92 4175,-98 4169,-98"/>
<text text-anchor="middle" x="4028.5" y="-82.8" font-family="Times,serif" font-size="14.00">forward</text>
<text text-anchor="middle" x="4028.5" y="-67.8" font-family="Times,serif" font-size="14.00">CB3/C2</text>
<text text-anchor="middle" x="4028.5" y="-52.8" font-family="Times,serif" font-size="14.00">dilation rate: 1 &#160;&#160;k width: 3</text>
<text text-anchor="middle" x="4028.5" y="-37.8" font-family="Times,serif" font-size="14.00">log gamma1: &#45;11.000000 &#160;&#160;log gamma2: &#45;11.000000</text>
<text text-anchor="middle" x="4028.5" y="-22.8" font-family="Times,serif" font-size="14.00">log lambda1: &#45;11.000000 &#160;&#160;log lambda2: &#45;11.000000</text>
<text text-anchor="middle" x="4028.5" y="-7.8" font-family="Times,serif" font-size="14.00">n kernels: 64</text>
</g>
<!-- 18&#45;&gt;35 -->
<g id="edge35" class="edge"><title>18&#45;&gt;35</title>
<path fill="none" stroke="black" d="M3651.89,-163.944C3668.68,-153.926 3690.68,-141.926 3711.5,-134 3774.75,-109.918 3796.27,-115.493 3866.22,-97.9816"/>
<polygon fill="black" stroke="black" points="3867.13,-101.361 3875.94,-95.4784 3865.39,-94.5823 3867.13,-101.361"/>
</g>
</g>
</svg>
