<?xml version="1.0" encoding="UTF-8" standalone="no"?>
<!DOCTYPE svg PUBLIC "-//W3C//DTD SVG 1.1//EN"
 "http://www.w3.org/Graphics/SVG/1.1/DTD/svg11.dtd">
<!-- Generated by graphviz version 2.38.0 (20140413.2041)
 -->
<!-- Title: %3 Pages: 1 -->
<svg width="3955pt" height="433pt"
 viewBox="0.00 0.00 3955.00 433.00" xmlns="http://www.w3.org/2000/svg" xmlns:xlink="http://www.w3.org/1999/xlink">
<g id="graph0" class="graph" transform="scale(1 1) rotate(0) translate(4 429)">
<title>%3</title>
<polygon fill="none" stroke="none" points="-4,4 -4,-429 3951,-429 3951,4 -4,4"/>
<!-- 0 -->
<g id="node1" class="node"><title>0</title>
<path fill="#ffd3d3" stroke="black" d="M2231,-425C2231,-425 2040,-425 2040,-425 2034,-425 2028,-419 2028,-413 2028,-413 2028,-384 2028,-384 2028,-378 2034,-372 2040,-372 2040,-372 2231,-372 2231,-372 2237,-372 2243,-378 2243,-384 2243,-384 2243,-413 2243,-413 2243,-419 2237,-425 2231,-425"/>
<text text-anchor="middle" x="2135.5" y="-409.8" font-family="Times,serif" font-size="14.00">net</text>
<text text-anchor="middle" x="2135.5" y="-394.8" font-family="Times,serif" font-size="14.00">k width: 3 &#160;&#160;log gamma2: &#45;9.982394</text>
<text text-anchor="middle" x="2135.5" y="-379.8" font-family="Times,serif" font-size="14.00">n kernels: 32</text>
</g>
<!-- 1 -->
<g id="node2" class="node"><title>1</title>
<path fill="#e9ffd3" stroke="black" d="M674,-321C674,-321 549,-321 549,-321 543,-321 537,-315 537,-309 537,-309 537,-295 537,-295 537,-289 543,-283 549,-283 549,-283 674,-283 674,-283 680,-283 686,-289 686,-295 686,-295 686,-309 686,-309 686,-315 680,-321 674,-321"/>
<text text-anchor="middle" x="611.5" y="-305.8" font-family="Times,serif" font-size="14.00">conv block 0</text>
<text text-anchor="middle" x="611.5" y="-290.8" font-family="Times,serif" font-size="14.00">log gamma2: &#45;0.017606</text>
</g>
<!-- 0&#45;&gt;1 -->
<g id="edge1" class="edge"><title>0&#45;&gt;1</title>
<path fill="none" stroke="black" d="M2027.73,-390.817C1739.7,-372.957 956.338,-324.383 696.514,-308.272"/>
<polygon fill="black" stroke="black" points="696.581,-304.769 686.383,-307.643 696.148,-311.756 696.581,-304.769"/>
</g>
<!-- 2 -->
<g id="node3" class="node"><title>2</title>
<path fill="#e9ffd3" stroke="black" d="M1899,-336C1899,-336 1636,-336 1636,-336 1630,-336 1624,-330 1624,-324 1624,-324 1624,-280 1624,-280 1624,-274 1630,-268 1636,-268 1636,-268 1899,-268 1899,-268 1905,-268 1911,-274 1911,-280 1911,-280 1911,-324 1911,-324 1911,-330 1905,-336 1899,-336"/>
<text text-anchor="middle" x="1767.5" y="-320.8" font-family="Times,serif" font-size="14.00">conv block 1</text>
<text text-anchor="middle" x="1767.5" y="-305.8" font-family="Times,serif" font-size="14.00">log gamma1: &#45;0.932254 &#160;&#160;log gamma2: 1.699607</text>
<text text-anchor="middle" x="1767.5" y="-290.8" font-family="Times,serif" font-size="14.00">n kernels: &#45;2 &#160;&#160;pool z: 1</text>
<text text-anchor="middle" x="1767.5" y="-275.8" font-family="Times,serif" font-size="14.00">spatial scale: 1</text>
</g>
<!-- 0&#45;&gt;2 -->
<g id="edge2" class="edge"><title>0&#45;&gt;2</title>
<path fill="none" stroke="black" d="M2035.91,-371.927C1995.94,-361.662 1949.18,-349.654 1905.99,-338.563"/>
<polygon fill="black" stroke="black" points="1906.81,-335.16 1896.25,-336.063 1905.07,-341.94 1906.81,-335.16"/>
</g>
<!-- 3 -->
<g id="node4" class="node"><title>3</title>
<path fill="#e9ffd3" stroke="black" d="M2780.5,-328.5C2780.5,-328.5 2574.5,-328.5 2574.5,-328.5 2568.5,-328.5 2562.5,-322.5 2562.5,-316.5 2562.5,-316.5 2562.5,-287.5 2562.5,-287.5 2562.5,-281.5 2568.5,-275.5 2574.5,-275.5 2574.5,-275.5 2780.5,-275.5 2780.5,-275.5 2786.5,-275.5 2792.5,-281.5 2792.5,-287.5 2792.5,-287.5 2792.5,-316.5 2792.5,-316.5 2792.5,-322.5 2786.5,-328.5 2780.5,-328.5"/>
<text text-anchor="middle" x="2677.5" y="-313.3" font-family="Times,serif" font-size="14.00">conv block 2</text>
<text text-anchor="middle" x="2677.5" y="-298.3" font-family="Times,serif" font-size="14.00">log gamma1: &#45;1.578025 &#160;&#160;n kernels: 96</text>
<text text-anchor="middle" x="2677.5" y="-283.3" font-family="Times,serif" font-size="14.00">spatial scale: 2</text>
</g>
<!-- 0&#45;&gt;3 -->
<g id="edge3" class="edge"><title>0&#45;&gt;3</title>
<path fill="none" stroke="black" d="M2243.23,-378.717C2332.29,-363.189 2458.86,-341.121 2552.4,-324.813"/>
<polygon fill="black" stroke="black" points="2553.23,-328.219 2562.48,-323.053 2552.03,-321.323 2553.23,-328.219"/>
</g>
<!-- 4 -->
<g id="node5" class="node"><title>4</title>
<path fill="#e9ffd3" stroke="black" d="M3343,-320C3343,-320 3276,-320 3276,-320 3270,-320 3264,-314 3264,-308 3264,-308 3264,-296 3264,-296 3264,-290 3270,-284 3276,-284 3276,-284 3343,-284 3343,-284 3349,-284 3355,-290 3355,-296 3355,-296 3355,-308 3355,-308 3355,-314 3349,-320 3343,-320"/>
<text text-anchor="middle" x="3309.5" y="-298.3" font-family="Times,serif" font-size="14.00">path combine</text>
</g>
<!-- 0&#45;&gt;4 -->
<g id="edge4" class="edge"><title>0&#45;&gt;4</title>
<path fill="none" stroke="black" d="M2243.06,-388.842C2486.02,-369.285 3070.34,-322.251 3253.57,-307.502"/>
<polygon fill="black" stroke="black" points="3254.09,-310.971 3263.78,-306.68 3253.53,-303.994 3254.09,-310.971"/>
</g>
<!-- 5 -->
<g id="node6" class="node"><title>5</title>
<path fill="#d3ffff" stroke="black" d="M303.5,-202C303.5,-202 235.5,-202 235.5,-202 229.5,-202 223.5,-196 223.5,-190 223.5,-190 223.5,-176 223.5,-176 223.5,-170 229.5,-164 235.5,-164 235.5,-164 303.5,-164 303.5,-164 309.5,-164 315.5,-170 315.5,-176 315.5,-176 315.5,-190 315.5,-190 315.5,-196 309.5,-202 303.5,-202"/>
<text text-anchor="middle" x="269.5" y="-186.8" font-family="Times,serif" font-size="14.00">comp 0</text>
<text text-anchor="middle" x="269.5" y="-171.8" font-family="Times,serif" font-size="14.00">n kernels: &#45;16</text>
</g>
<!-- 1&#45;&gt;5 -->
<g id="edge5" class="edge"><title>1&#45;&gt;5</title>
<path fill="none" stroke="black" d="M558.812,-282.975C495.543,-261.331 389.892,-225.187 325.279,-203.082"/>
<polygon fill="black" stroke="black" points="326.258,-199.718 315.664,-199.793 323.993,-206.341 326.258,-199.718"/>
</g>
<!-- 6 -->
<g id="node7" class="node"><title>6</title>
<path fill="#bfe6e6" stroke="black" d="M588,-202C588,-202 463,-202 463,-202 457,-202 451,-196 451,-190 451,-190 451,-176 451,-176 451,-170 457,-164 463,-164 463,-164 588,-164 588,-164 594,-164 600,-170 600,-176 600,-176 600,-190 600,-190 600,-196 594,-202 588,-202"/>
<text text-anchor="middle" x="525.5" y="-186.8" font-family="Times,serif" font-size="14.00">comp 1</text>
<text text-anchor="middle" x="525.5" y="-171.8" font-family="Times,serif" font-size="14.00">log gamma1: &#45;0.655684</text>
</g>
<!-- 1&#45;&gt;6 -->
<g id="edge6" class="edge"><title>1&#45;&gt;6</title>
<path fill="none" stroke="black" d="M598.251,-282.975C584.025,-263.622 561.279,-232.676 545.008,-210.54"/>
<polygon fill="black" stroke="black" points="547.649,-208.223 538.906,-202.238 542.008,-212.369 547.649,-208.223"/>
</g>
<!-- 7 -->
<g id="node8" class="node"><title>7</title>
<path fill="#abcece" stroke="black" d="M714.5,-201C714.5,-201 680.5,-201 680.5,-201 674.5,-201 668.5,-195 668.5,-189 668.5,-189 668.5,-177 668.5,-177 668.5,-171 674.5,-165 680.5,-165 680.5,-165 714.5,-165 714.5,-165 720.5,-165 726.5,-171 726.5,-177 726.5,-177 726.5,-189 726.5,-189 726.5,-195 720.5,-201 714.5,-201"/>
<text text-anchor="middle" x="697.5" y="-179.3" font-family="Times,serif" font-size="14.00">comp 2</text>
</g>
<!-- 1&#45;&gt;7 -->
<g id="edge7" class="edge"><title>1&#45;&gt;7</title>
<path fill="none" stroke="black" d="M624.749,-282.975C639.224,-263.282 662.522,-231.587 678.842,-209.383"/>
<polygon fill="black" stroke="black" points="681.833,-211.223 684.936,-201.093 676.193,-207.078 681.833,-211.223"/>
</g>
<!-- 8 -->
<g id="node9" class="node"><title>8</title>
<path fill="#d3ffff" stroke="black" d="M1281.5,-202C1281.5,-202 1161.5,-202 1161.5,-202 1155.5,-202 1149.5,-196 1149.5,-190 1149.5,-190 1149.5,-176 1149.5,-176 1149.5,-170 1155.5,-164 1161.5,-164 1161.5,-164 1281.5,-164 1281.5,-164 1287.5,-164 1293.5,-170 1293.5,-176 1293.5,-176 1293.5,-190 1293.5,-190 1293.5,-196 1287.5,-202 1281.5,-202"/>
<text text-anchor="middle" x="1221.5" y="-186.8" font-family="Times,serif" font-size="14.00">comp 0</text>
<text text-anchor="middle" x="1221.5" y="-171.8" font-family="Times,serif" font-size="14.00">log gamma2: 1.178839</text>
</g>
<!-- 2&#45;&gt;8 -->
<g id="edge8" class="edge"><title>2&#45;&gt;8</title>
<path fill="none" stroke="black" d="M1623.99,-276.35C1556.53,-264.13 1475.14,-248.475 1402.5,-232 1366.87,-223.919 1327.65,-213.684 1294.85,-204.742"/>
<polygon fill="black" stroke="black" points="1295.45,-201.28 1284.88,-202.013 1293.6,-208.031 1295.45,-201.28"/>
</g>
<!-- 9 -->
<g id="node10" class="node"><title>9</title>
<path fill="#bfe6e6" stroke="black" d="M1619,-202C1619,-202 1424,-202 1424,-202 1418,-202 1412,-196 1412,-190 1412,-190 1412,-176 1412,-176 1412,-170 1418,-164 1424,-164 1424,-164 1619,-164 1619,-164 1625,-164 1631,-170 1631,-176 1631,-176 1631,-190 1631,-190 1631,-196 1625,-202 1619,-202"/>
<text text-anchor="middle" x="1521.5" y="-186.8" font-family="Times,serif" font-size="14.00">comp 1</text>
<text text-anchor="middle" x="1521.5" y="-171.8" font-family="Times,serif" font-size="14.00">log gamma2: 0.217326 &#160;&#160;n kernels: 2</text>
</g>
<!-- 2&#45;&gt;9 -->
<g id="edge9" class="edge"><title>2&#45;&gt;9</title>
<path fill="none" stroke="black" d="M1697.99,-267.942C1656.78,-248.34 1605.61,-224.005 1569,-206.592"/>
<polygon fill="black" stroke="black" points="1570.09,-203.232 1559.55,-202.098 1567.08,-209.554 1570.09,-203.232"/>
</g>
<!-- 10 -->
<g id="node11" class="node"><title>10</title>
<path fill="#abcece" stroke="black" d="M1798,-202C1798,-202 1737,-202 1737,-202 1731,-202 1725,-196 1725,-190 1725,-190 1725,-176 1725,-176 1725,-170 1731,-164 1737,-164 1737,-164 1798,-164 1798,-164 1804,-164 1810,-170 1810,-176 1810,-176 1810,-190 1810,-190 1810,-196 1804,-202 1798,-202"/>
<text text-anchor="middle" x="1767.5" y="-186.8" font-family="Times,serif" font-size="14.00">comp 2</text>
<text text-anchor="middle" x="1767.5" y="-171.8" font-family="Times,serif" font-size="14.00">n kernels: &#45;4</text>
</g>
<!-- 2&#45;&gt;10 -->
<g id="edge10" class="edge"><title>2&#45;&gt;10</title>
<path fill="none" stroke="black" d="M1767.5,-267.785C1767.5,-250.273 1767.5,-229.017 1767.5,-212.296"/>
<polygon fill="black" stroke="black" points="1771,-212.049 1767.5,-202.049 1764,-212.049 1771,-212.049"/>
</g>
<!-- 11 -->
<g id="node12" class="node"><title>11</title>
<path fill="#97b6b6" stroke="black" d="M2061.5,-202C2061.5,-202 1933.5,-202 1933.5,-202 1927.5,-202 1921.5,-196 1921.5,-190 1921.5,-190 1921.5,-176 1921.5,-176 1921.5,-170 1927.5,-164 1933.5,-164 1933.5,-164 2061.5,-164 2061.5,-164 2067.5,-164 2073.5,-170 2073.5,-176 2073.5,-176 2073.5,-190 2073.5,-190 2073.5,-196 2067.5,-202 2061.5,-202"/>
<text text-anchor="middle" x="1997.5" y="-186.8" font-family="Times,serif" font-size="14.00">path end 1</text>
<text text-anchor="middle" x="1997.5" y="-171.8" font-family="Times,serif" font-size="14.00">k width: &#45;2 &#160;&#160;n kernels: 2</text>
</g>
<!-- 2&#45;&gt;11 -->
<g id="edge11" class="edge"><title>2&#45;&gt;11</title>
<path fill="none" stroke="black" d="M1832.49,-267.942C1870.86,-248.423 1918.45,-224.212 1952.65,-206.814"/>
<polygon fill="black" stroke="black" points="1954.6,-209.751 1961.92,-202.098 1951.42,-203.512 1954.6,-209.751"/>
</g>
<!-- 12 -->
<g id="node13" class="node"><title>12</title>
<path fill="#d3ffff" stroke="black" d="M2488.5,-201C2488.5,-201 2454.5,-201 2454.5,-201 2448.5,-201 2442.5,-195 2442.5,-189 2442.5,-189 2442.5,-177 2442.5,-177 2442.5,-171 2448.5,-165 2454.5,-165 2454.5,-165 2488.5,-165 2488.5,-165 2494.5,-165 2500.5,-171 2500.5,-177 2500.5,-177 2500.5,-189 2500.5,-189 2500.5,-195 2494.5,-201 2488.5,-201"/>
<text text-anchor="middle" x="2471.5" y="-179.3" font-family="Times,serif" font-size="14.00">comp 0</text>
</g>
<!-- 3&#45;&gt;12 -->
<g id="edge12" class="edge"><title>3&#45;&gt;12</title>
<path fill="none" stroke="black" d="M2632.55,-275.468C2595.82,-254.606 2544.46,-225.438 2509.69,-205.693"/>
<polygon fill="black" stroke="black" points="2511.22,-202.533 2500.79,-200.638 2507.76,-208.62 2511.22,-202.533"/>
</g>
<!-- 13 -->
<g id="node14" class="node"><title>13</title>
<path fill="#bfe6e6" stroke="black" d="M2708,-202C2708,-202 2647,-202 2647,-202 2641,-202 2635,-196 2635,-190 2635,-190 2635,-176 2635,-176 2635,-170 2641,-164 2647,-164 2647,-164 2708,-164 2708,-164 2714,-164 2720,-170 2720,-176 2720,-176 2720,-190 2720,-190 2720,-196 2714,-202 2708,-202"/>
<text text-anchor="middle" x="2677.5" y="-186.8" font-family="Times,serif" font-size="14.00">comp 1</text>
<text text-anchor="middle" x="2677.5" y="-171.8" font-family="Times,serif" font-size="14.00">n kernels: &#45;5</text>
</g>
<!-- 3&#45;&gt;13 -->
<g id="edge13" class="edge"><title>3&#45;&gt;13</title>
<path fill="none" stroke="black" d="M2677.5,-275.324C2677.5,-256.794 2677.5,-231.767 2677.5,-212.599"/>
<polygon fill="black" stroke="black" points="2681,-212.358 2677.5,-202.358 2674,-212.358 2681,-212.358"/>
</g>
<!-- 14 -->
<g id="node15" class="node"><title>14</title>
<path fill="#abcece" stroke="black" d="M2784.5,-201C2784.5,-201 2750.5,-201 2750.5,-201 2744.5,-201 2738.5,-195 2738.5,-189 2738.5,-189 2738.5,-177 2738.5,-177 2738.5,-171 2744.5,-165 2750.5,-165 2750.5,-165 2784.5,-165 2784.5,-165 2790.5,-165 2796.5,-171 2796.5,-177 2796.5,-177 2796.5,-189 2796.5,-189 2796.5,-195 2790.5,-201 2784.5,-201"/>
<text text-anchor="middle" x="2767.5" y="-179.3" font-family="Times,serif" font-size="14.00">comp 2</text>
</g>
<!-- 3&#45;&gt;14 -->
<g id="edge14" class="edge"><title>3&#45;&gt;14</title>
<path fill="none" stroke="black" d="M2697.25,-275.324C2712.31,-255.753 2732.93,-228.935 2747.94,-209.426"/>
<polygon fill="black" stroke="black" points="2750.88,-211.353 2754.2,-201.292 2745.33,-207.085 2750.88,-211.353"/>
</g>
<!-- 15 -->
<g id="node16" class="node"><title>15</title>
<path fill="#97b6b6" stroke="black" d="M2966,-202C2966,-202 2827,-202 2827,-202 2821,-202 2815,-196 2815,-190 2815,-190 2815,-176 2815,-176 2815,-170 2821,-164 2827,-164 2827,-164 2966,-164 2966,-164 2972,-164 2978,-170 2978,-176 2978,-176 2978,-190 2978,-190 2978,-196 2972,-202 2966,-202"/>
<text text-anchor="middle" x="2896.5" y="-186.8" font-family="Times,serif" font-size="14.00">path end 2</text>
<text text-anchor="middle" x="2896.5" y="-171.8" font-family="Times,serif" font-size="14.00">k width: &#45;2 &#160;&#160;n kernels: &#45;96</text>
</g>
<!-- 3&#45;&gt;15 -->
<g id="edge15" class="edge"><title>3&#45;&gt;15</title>
<path fill="none" stroke="black" d="M2725.29,-275.468C2763.58,-255.013 2816.81,-226.573 2853.71,-206.859"/>
<polygon fill="black" stroke="black" points="2855.55,-209.845 2862.72,-202.045 2852.25,-203.67 2855.55,-209.845"/>
</g>
<!-- 16 -->
<g id="node17" class="node"><title>16</title>
<path fill="#d3ffff" stroke="black" d="M3289,-232C3289,-232 3008,-232 3008,-232 3002,-232 2996,-226 2996,-220 2996,-220 2996,-146 2996,-146 2996,-140 3002,-134 3008,-134 3008,-134 3289,-134 3289,-134 3295,-134 3301,-140 3301,-146 3301,-146 3301,-220 3301,-220 3301,-226 3295,-232 3289,-232"/>
<text text-anchor="middle" x="3148.5" y="-216.8" font-family="Times,serif" font-size="14.00">forward</text>
<text text-anchor="middle" x="3148.5" y="-201.8" font-family="Times,serif" font-size="14.00">CB0/C2</text>
<text text-anchor="middle" x="3148.5" y="-186.8" font-family="Times,serif" font-size="14.00">dilation rate: 1 &#160;&#160;k width: 3</text>
<text text-anchor="middle" x="3148.5" y="-171.8" font-family="Times,serif" font-size="14.00">log gamma1: &#45;11.000000 &#160;&#160;log gamma2: &#45;11.000000</text>
<text text-anchor="middle" x="3148.5" y="-156.8" font-family="Times,serif" font-size="14.00">log lambda1: &#45;11.000000 &#160;&#160;log lambda2: &#45;11.000000</text>
<text text-anchor="middle" x="3148.5" y="-141.8" font-family="Times,serif" font-size="14.00">n kernels: 64</text>
</g>
<!-- 4&#45;&gt;16 -->
<g id="edge16" class="edge"><title>4&#45;&gt;16</title>
<path fill="none" stroke="black" d="M3286.09,-283.987C3269.39,-271.851 3245.94,-254.808 3223.12,-238.224"/>
<polygon fill="black" stroke="black" points="3224.9,-235.193 3214.75,-232.146 3220.78,-240.856 3224.9,-235.193"/>
</g>
<!-- 17 -->
<g id="node18" class="node"><title>17</title>
<path fill="#bfe6e6" stroke="black" d="M3612,-232C3612,-232 3331,-232 3331,-232 3325,-232 3319,-226 3319,-220 3319,-220 3319,-146 3319,-146 3319,-140 3325,-134 3331,-134 3331,-134 3612,-134 3612,-134 3618,-134 3624,-140 3624,-146 3624,-146 3624,-220 3624,-220 3624,-226 3618,-232 3612,-232"/>
<text text-anchor="middle" x="3471.5" y="-216.8" font-family="Times,serif" font-size="14.00">merge 1</text>
<text text-anchor="middle" x="3471.5" y="-201.8" font-family="Times,serif" font-size="14.00">CB1/PE1</text>
<text text-anchor="middle" x="3471.5" y="-186.8" font-family="Times,serif" font-size="14.00">dilation rate: 1 &#160;&#160;k width: 3</text>
<text text-anchor="middle" x="3471.5" y="-171.8" font-family="Times,serif" font-size="14.00">log gamma1: &#45;11.000000 &#160;&#160;log gamma2: &#45;11.000000</text>
<text text-anchor="middle" x="3471.5" y="-156.8" font-family="Times,serif" font-size="14.00">log lambda1: &#45;11.000000 &#160;&#160;log lambda2: &#45;11.000000</text>
<text text-anchor="middle" x="3471.5" y="-141.8" font-family="Times,serif" font-size="14.00">n kernels: 64</text>
</g>
<!-- 4&#45;&gt;17 -->
<g id="edge17" class="edge"><title>4&#45;&gt;17</title>
<path fill="none" stroke="black" d="M3333.06,-283.987C3349.93,-271.798 3373.67,-254.658 3396.72,-238.006"/>
<polygon fill="black" stroke="black" points="3398.78,-240.838 3404.84,-232.146 3394.68,-235.163 3398.78,-240.838"/>
</g>
<!-- 18 -->
<g id="node19" class="node"><title>18</title>
<path fill="#abcece" stroke="black" d="M3935,-232C3935,-232 3654,-232 3654,-232 3648,-232 3642,-226 3642,-220 3642,-220 3642,-146 3642,-146 3642,-140 3648,-134 3654,-134 3654,-134 3935,-134 3935,-134 3941,-134 3947,-140 3947,-146 3947,-146 3947,-220 3947,-220 3947,-226 3941,-232 3935,-232"/>
<text text-anchor="middle" x="3794.5" y="-216.8" font-family="Times,serif" font-size="14.00">merge 2</text>
<text text-anchor="middle" x="3794.5" y="-201.8" font-family="Times,serif" font-size="14.00">CB2/PE2</text>
<text text-anchor="middle" x="3794.5" y="-186.8" font-family="Times,serif" font-size="14.00">dilation rate: 1 &#160;&#160;k width: 3</text>
<text text-anchor="middle" x="3794.5" y="-171.8" font-family="Times,serif" font-size="14.00">log gamma1: &#45;11.000000 &#160;&#160;log gamma2: &#45;11.000000</text>
<text text-anchor="middle" x="3794.5" y="-156.8" font-family="Times,serif" font-size="14.00">log lambda1: &#45;11.000000 &#160;&#160;log lambda2: &#45;11.000000</text>
<text text-anchor="middle" x="3794.5" y="-141.8" font-family="Times,serif" font-size="14.00">n kernels: 64</text>
</g>
<!-- 4&#45;&gt;18 -->
<g id="edge18" class="edge"><title>4&#45;&gt;18</title>
<path fill="none" stroke="black" d="M3355.23,-292.393C3416.14,-280.671 3527.42,-258.369 3632.17,-232.033"/>
<polygon fill="black" stroke="black" points="3633.13,-235.402 3641.96,-229.555 3631.41,-228.616 3633.13,-235.402"/>
</g>
<!-- 19 -->
<g id="node20" class="node"><title>19</title>
<path fill="#e9d3ff" stroke="black" d="M293,-98C293,-98 12,-98 12,-98 6,-98 0,-92 0,-86 0,-86 0,-12 0,-12 0,-6 6,-0 12,-0 12,-0 293,-0 293,-0 299,-0 305,-6 305,-12 305,-12 305,-86 305,-86 305,-92 299,-98 293,-98"/>
<text text-anchor="middle" x="152.5" y="-82.8" font-family="Times,serif" font-size="14.00">forward</text>
<text text-anchor="middle" x="152.5" y="-67.8" font-family="Times,serif" font-size="14.00">input</text>
<text text-anchor="middle" x="152.5" y="-52.8" font-family="Times,serif" font-size="14.00">dilation rate: 1 &#160;&#160;k width: 3</text>
<text text-anchor="middle" x="152.5" y="-37.8" font-family="Times,serif" font-size="14.00">log gamma1: &#45;11.000000 &#160;&#160;log gamma2: &#45;11.000000</text>
<text text-anchor="middle" x="152.5" y="-22.8" font-family="Times,serif" font-size="14.00">log lambda1: &#45;11.000000 &#160;&#160;log lambda2: &#45;11.000000</text>
<text text-anchor="middle" x="152.5" y="-7.8" font-family="Times,serif" font-size="14.00">n kernels: 64</text>
</g>
<!-- 5&#45;&gt;19 -->
<g id="edge19" class="edge"><title>5&#45;&gt;19</title>
<path fill="none" stroke="black" d="M253.477,-163.923C240.155,-148.893 220.457,-126.67 201.988,-105.832"/>
<polygon fill="black" stroke="black" points="204.505,-103.396 195.253,-98.2336 199.266,-108.039 204.505,-103.396"/>
</g>
<!-- 20 -->
<g id="node21" class="node"><title>20</title>
<path fill="#e9d3ff" stroke="black" d="M616,-98C616,-98 335,-98 335,-98 329,-98 323,-92 323,-86 323,-86 323,-12 323,-12 323,-6 329,-0 335,-0 335,-0 616,-0 616,-0 622,-0 628,-6 628,-12 628,-12 628,-86 628,-86 628,-92 622,-98 616,-98"/>
<text text-anchor="middle" x="475.5" y="-82.8" font-family="Times,serif" font-size="14.00">forward</text>
<text text-anchor="middle" x="475.5" y="-67.8" font-family="Times,serif" font-size="14.00">CB0/C0</text>
<text text-anchor="middle" x="475.5" y="-52.8" font-family="Times,serif" font-size="14.00">dilation rate: 1 &#160;&#160;k width: 3</text>
<text text-anchor="middle" x="475.5" y="-37.8" font-family="Times,serif" font-size="14.00">log gamma1: &#45;11.000000 &#160;&#160;log gamma2: &#45;11.000000</text>
<text text-anchor="middle" x="475.5" y="-22.8" font-family="Times,serif" font-size="14.00">log lambda1: &#45;11.000000 &#160;&#160;log lambda2: &#45;11.000000</text>
<text text-anchor="middle" x="475.5" y="-7.8" font-family="Times,serif" font-size="14.00">n kernels: 64</text>
</g>
<!-- 6&#45;&gt;20 -->
<g id="edge20" class="edge"><title>6&#45;&gt;20</title>
<path fill="none" stroke="black" d="M518.653,-163.923C513.134,-149.355 505.056,-128.028 497.377,-107.755"/>
<polygon fill="black" stroke="black" points="500.586,-106.345 493.77,-98.2336 494.04,-108.825 500.586,-106.345"/>
</g>
<!-- 21 -->
<g id="node22" class="node"><title>21</title>
<path fill="#e9d3ff" stroke="black" d="M939,-98C939,-98 658,-98 658,-98 652,-98 646,-92 646,-86 646,-86 646,-12 646,-12 646,-6 652,-0 658,-0 658,-0 939,-0 939,-0 945,-0 951,-6 951,-12 951,-12 951,-86 951,-86 951,-92 945,-98 939,-98"/>
<text text-anchor="middle" x="798.5" y="-82.8" font-family="Times,serif" font-size="14.00">forward</text>
<text text-anchor="middle" x="798.5" y="-67.8" font-family="Times,serif" font-size="14.00">CB0/C1</text>
<text text-anchor="middle" x="798.5" y="-52.8" font-family="Times,serif" font-size="14.00">dilation rate: 1 &#160;&#160;k width: 3</text>
<text text-anchor="middle" x="798.5" y="-37.8" font-family="Times,serif" font-size="14.00">log gamma1: &#45;11.000000 &#160;&#160;log gamma2: &#45;11.000000</text>
<text text-anchor="middle" x="798.5" y="-22.8" font-family="Times,serif" font-size="14.00">log lambda1: &#45;11.000000 &#160;&#160;log lambda2: &#45;11.000000</text>
<text text-anchor="middle" x="798.5" y="-7.8" font-family="Times,serif" font-size="14.00">n kernels: 64</text>
</g>
<!-- 7&#45;&gt;21 -->
<g id="edge21" class="edge"><title>7&#45;&gt;21</title>
<path fill="none" stroke="black" d="M710.704,-164.743C722.131,-149.809 739.314,-127.353 755.457,-106.254"/>
<polygon fill="black" stroke="black" points="758.282,-108.322 761.579,-98.2533 752.722,-104.068 758.282,-108.322"/>
</g>
<!-- 22 -->
<g id="node23" class="node"><title>22</title>
<path fill="#e9d3ff" stroke="black" d="M1262,-98C1262,-98 981,-98 981,-98 975,-98 969,-92 969,-86 969,-86 969,-12 969,-12 969,-6 975,-0 981,-0 981,-0 1262,-0 1262,-0 1268,-0 1274,-6 1274,-12 1274,-12 1274,-86 1274,-86 1274,-92 1268,-98 1262,-98"/>
<text text-anchor="middle" x="1121.5" y="-82.8" font-family="Times,serif" font-size="14.00">forward</text>
<text text-anchor="middle" x="1121.5" y="-67.8" font-family="Times,serif" font-size="14.00">input</text>
<text text-anchor="middle" x="1121.5" y="-52.8" font-family="Times,serif" font-size="14.00">dilation rate: 1 &#160;&#160;k width: 3</text>
<text text-anchor="middle" x="1121.5" y="-37.8" font-family="Times,serif" font-size="14.00">log gamma1: &#45;11.000000 &#160;&#160;log gamma2: &#45;11.000000</text>
<text text-anchor="middle" x="1121.5" y="-22.8" font-family="Times,serif" font-size="14.00">log lambda1: &#45;11.000000 &#160;&#160;log lambda2: &#45;11.000000</text>
<text text-anchor="middle" x="1121.5" y="-7.8" font-family="Times,serif" font-size="14.00">n kernels: 64</text>
</g>
<!-- 8&#45;&gt;22 -->
<g id="edge22" class="edge"><title>8&#45;&gt;22</title>
<path fill="none" stroke="black" d="M1207.81,-163.923C1196.52,-149.025 1179.88,-127.059 1164.21,-106.381"/>
<polygon fill="black" stroke="black" points="1166.87,-104.091 1158.04,-98.2336 1161.29,-108.318 1166.87,-104.091"/>
</g>
<!-- 23 -->
<g id="node24" class="node"><title>23</title>
<path fill="#e9d3ff" stroke="black" d="M1585,-98C1585,-98 1304,-98 1304,-98 1298,-98 1292,-92 1292,-86 1292,-86 1292,-12 1292,-12 1292,-6 1298,-0 1304,-0 1304,-0 1585,-0 1585,-0 1591,-0 1597,-6 1597,-12 1597,-12 1597,-86 1597,-86 1597,-92 1591,-98 1585,-98"/>
<text text-anchor="middle" x="1444.5" y="-82.8" font-family="Times,serif" font-size="14.00">forward</text>
<text text-anchor="middle" x="1444.5" y="-67.8" font-family="Times,serif" font-size="14.00">CB1/C0</text>
<text text-anchor="middle" x="1444.5" y="-52.8" font-family="Times,serif" font-size="14.00">dilation rate: 1 &#160;&#160;k width: 3</text>
<text text-anchor="middle" x="1444.5" y="-37.8" font-family="Times,serif" font-size="14.00">log gamma1: &#45;11.000000 &#160;&#160;log gamma2: &#45;11.000000</text>
<text text-anchor="middle" x="1444.5" y="-22.8" font-family="Times,serif" font-size="14.00">log lambda1: &#45;11.000000 &#160;&#160;log lambda2: &#45;11.000000</text>
<text text-anchor="middle" x="1444.5" y="-7.8" font-family="Times,serif" font-size="14.00">n kernels: 64</text>
</g>
<!-- 9&#45;&gt;23 -->
<g id="edge23" class="edge"><title>9&#45;&gt;23</title>
<path fill="none" stroke="black" d="M1510.95,-163.923C1502.34,-149.157 1489.68,-127.447 1477.71,-106.93"/>
<polygon fill="black" stroke="black" points="1480.7,-105.108 1472.64,-98.2336 1474.65,-108.635 1480.7,-105.108"/>
</g>
<!-- 24 -->
<g id="node25" class="node"><title>24</title>
<path fill="#e9d3ff" stroke="black" d="M1908,-98C1908,-98 1627,-98 1627,-98 1621,-98 1615,-92 1615,-86 1615,-86 1615,-12 1615,-12 1615,-6 1621,-0 1627,-0 1627,-0 1908,-0 1908,-0 1914,-0 1920,-6 1920,-12 1920,-12 1920,-86 1920,-86 1920,-92 1914,-98 1908,-98"/>
<text text-anchor="middle" x="1767.5" y="-82.8" font-family="Times,serif" font-size="14.00">forward</text>
<text text-anchor="middle" x="1767.5" y="-67.8" font-family="Times,serif" font-size="14.00">CB1/C1</text>
<text text-anchor="middle" x="1767.5" y="-52.8" font-family="Times,serif" font-size="14.00">dilation rate: 1 &#160;&#160;k width: 3</text>
<text text-anchor="middle" x="1767.5" y="-37.8" font-family="Times,serif" font-size="14.00">log gamma1: &#45;11.000000 &#160;&#160;log gamma2: &#45;11.000000</text>
<text text-anchor="middle" x="1767.5" y="-22.8" font-family="Times,serif" font-size="14.00">log lambda1: &#45;11.000000 &#160;&#160;log lambda2: &#45;11.000000</text>
<text text-anchor="middle" x="1767.5" y="-7.8" font-family="Times,serif" font-size="14.00">n kernels: 64</text>
</g>
<!-- 10&#45;&gt;24 -->
<g id="edge24" class="edge"><title>10&#45;&gt;24</title>
<path fill="none" stroke="black" d="M1767.5,-163.923C1767.5,-149.486 1767.5,-128.413 1767.5,-108.306"/>
<polygon fill="black" stroke="black" points="1771,-108.234 1767.5,-98.2336 1764,-108.234 1771,-108.234"/>
</g>
<!-- 25 -->
<g id="node26" class="node"><title>25</title>
<path fill="#e9d3ff" stroke="black" d="M2231,-98C2231,-98 1950,-98 1950,-98 1944,-98 1938,-92 1938,-86 1938,-86 1938,-12 1938,-12 1938,-6 1944,-0 1950,-0 1950,-0 2231,-0 2231,-0 2237,-0 2243,-6 2243,-12 2243,-12 2243,-86 2243,-86 2243,-92 2237,-98 2231,-98"/>
<text text-anchor="middle" x="2090.5" y="-82.8" font-family="Times,serif" font-size="14.00">forward</text>
<text text-anchor="middle" x="2090.5" y="-67.8" font-family="Times,serif" font-size="14.00">CB1/C2</text>
<text text-anchor="middle" x="2090.5" y="-52.8" font-family="Times,serif" font-size="14.00">dilation rate: 1 &#160;&#160;k width: 3</text>
<text text-anchor="middle" x="2090.5" y="-37.8" font-family="Times,serif" font-size="14.00">log gamma1: &#45;11.000000 &#160;&#160;log gamma2: &#45;11.000000</text>
<text text-anchor="middle" x="2090.5" y="-22.8" font-family="Times,serif" font-size="14.00">log lambda1: &#45;11.000000 &#160;&#160;log lambda2: &#45;11.000000</text>
<text text-anchor="middle" x="2090.5" y="-7.8" font-family="Times,serif" font-size="14.00">n kernels: 64</text>
</g>
<!-- 11&#45;&gt;25 -->
<g id="edge25" class="edge"><title>11&#45;&gt;25</title>
<path fill="none" stroke="black" d="M2010.24,-163.923C2020.69,-149.091 2036.07,-127.253 2050.58,-106.655"/>
<polygon fill="black" stroke="black" points="2053.62,-108.424 2056.52,-98.2336 2047.9,-104.393 2053.62,-108.424"/>
</g>
<!-- 26 -->
<g id="node27" class="node"><title>26</title>
<path fill="#e9d3ff" stroke="black" d="M2554,-98C2554,-98 2273,-98 2273,-98 2267,-98 2261,-92 2261,-86 2261,-86 2261,-12 2261,-12 2261,-6 2267,-0 2273,-0 2273,-0 2554,-0 2554,-0 2560,-0 2566,-6 2566,-12 2566,-12 2566,-86 2566,-86 2566,-92 2560,-98 2554,-98"/>
<text text-anchor="middle" x="2413.5" y="-82.8" font-family="Times,serif" font-size="14.00">forward</text>
<text text-anchor="middle" x="2413.5" y="-67.8" font-family="Times,serif" font-size="14.00">input</text>
<text text-anchor="middle" x="2413.5" y="-52.8" font-family="Times,serif" font-size="14.00">dilation rate: 1 &#160;&#160;k width: 3</text>
<text text-anchor="middle" x="2413.5" y="-37.8" font-family="Times,serif" font-size="14.00">log gamma1: &#45;11.000000 &#160;&#160;log gamma2: &#45;11.000000</text>
<text text-anchor="middle" x="2413.5" y="-22.8" font-family="Times,serif" font-size="14.00">log lambda1: &#45;11.000000 &#160;&#160;log lambda2: &#45;11.000000</text>
<text text-anchor="middle" x="2413.5" y="-7.8" font-family="Times,serif" font-size="14.00">n kernels: 64</text>
</g>
<!-- 12&#45;&gt;26 -->
<g id="edge26" class="edge"><title>12&#45;&gt;26</title>
<path fill="none" stroke="black" d="M2463.92,-164.743C2457.5,-150.138 2447.92,-128.338 2438.83,-107.65"/>
<polygon fill="black" stroke="black" points="2441.93,-106.001 2434.7,-98.2533 2435.52,-108.817 2441.93,-106.001"/>
</g>
<!-- 27 -->
<g id="node28" class="node"><title>27</title>
<path fill="#e9d3ff" stroke="black" d="M2877,-98C2877,-98 2596,-98 2596,-98 2590,-98 2584,-92 2584,-86 2584,-86 2584,-12 2584,-12 2584,-6 2590,-0 2596,-0 2596,-0 2877,-0 2877,-0 2883,-0 2889,-6 2889,-12 2889,-12 2889,-86 2889,-86 2889,-92 2883,-98 2877,-98"/>
<text text-anchor="middle" x="2736.5" y="-82.8" font-family="Times,serif" font-size="14.00">forward</text>
<text text-anchor="middle" x="2736.5" y="-67.8" font-family="Times,serif" font-size="14.00">CB2/C0</text>
<text text-anchor="middle" x="2736.5" y="-52.8" font-family="Times,serif" font-size="14.00">dilation rate: 1 &#160;&#160;k width: 3</text>
<text text-anchor="middle" x="2736.5" y="-37.8" font-family="Times,serif" font-size="14.00">log gamma1: &#45;11.000000 &#160;&#160;log gamma2: &#45;11.000000</text>
<text text-anchor="middle" x="2736.5" y="-22.8" font-family="Times,serif" font-size="14.00">log lambda1: &#45;11.000000 &#160;&#160;log lambda2: &#45;11.000000</text>
<text text-anchor="middle" x="2736.5" y="-7.8" font-family="Times,serif" font-size="14.00">n kernels: 64</text>
</g>
<!-- 13&#45;&gt;27 -->
<g id="edge27" class="edge"><title>13&#45;&gt;27</title>
<path fill="none" stroke="black" d="M2685.58,-163.923C2692.12,-149.289 2701.71,-127.835 2710.81,-107.48"/>
<polygon fill="black" stroke="black" points="2714.06,-108.791 2714.94,-98.2336 2707.67,-105.935 2714.06,-108.791"/>
</g>
<!-- 28 -->
<g id="node29" class="node"><title>28</title>
<path fill="#e9d3ff" stroke="black" d="M3200,-98C3200,-98 2919,-98 2919,-98 2913,-98 2907,-92 2907,-86 2907,-86 2907,-12 2907,-12 2907,-6 2913,-0 2919,-0 2919,-0 3200,-0 3200,-0 3206,-0 3212,-6 3212,-12 3212,-12 3212,-86 3212,-86 3212,-92 3206,-98 3200,-98"/>
<text text-anchor="middle" x="3059.5" y="-82.8" font-family="Times,serif" font-size="14.00">forward</text>
<text text-anchor="middle" x="3059.5" y="-67.8" font-family="Times,serif" font-size="14.00">CB2/C1</text>
<text text-anchor="middle" x="3059.5" y="-52.8" font-family="Times,serif" font-size="14.00">dilation rate: 1 &#160;&#160;k width: 3</text>
<text text-anchor="middle" x="3059.5" y="-37.8" font-family="Times,serif" font-size="14.00">log gamma1: &#45;11.000000 &#160;&#160;log gamma2: &#45;11.000000</text>
<text text-anchor="middle" x="3059.5" y="-22.8" font-family="Times,serif" font-size="14.00">log lambda1: &#45;11.000000 &#160;&#160;log lambda2: &#45;11.000000</text>
<text text-anchor="middle" x="3059.5" y="-7.8" font-family="Times,serif" font-size="14.00">n kernels: 64</text>
</g>
<!-- 14&#45;&gt;28 -->
<g id="edge28" class="edge"><title>14&#45;&gt;28</title>
<path fill="none" stroke="black" d="M2777.52,-164.784C2784.26,-154.551 2794,-142.04 2805.5,-134 2814.69,-127.57 2853.14,-114.027 2897.43,-99.656"/>
<polygon fill="black" stroke="black" points="2898.53,-102.981 2906.97,-96.5791 2896.38,-96.3198 2898.53,-102.981"/>
</g>
<!-- 29 -->
<g id="node30" class="node"><title>29</title>
<path fill="#e9d3ff" stroke="black" d="M3523,-98C3523,-98 3242,-98 3242,-98 3236,-98 3230,-92 3230,-86 3230,-86 3230,-12 3230,-12 3230,-6 3236,-0 3242,-0 3242,-0 3523,-0 3523,-0 3529,-0 3535,-6 3535,-12 3535,-12 3535,-86 3535,-86 3535,-92 3529,-98 3523,-98"/>
<text text-anchor="middle" x="3382.5" y="-82.8" font-family="Times,serif" font-size="14.00">forward</text>
<text text-anchor="middle" x="3382.5" y="-67.8" font-family="Times,serif" font-size="14.00">CB2/C2</text>
<text text-anchor="middle" x="3382.5" y="-52.8" font-family="Times,serif" font-size="14.00">dilation rate: 1 &#160;&#160;k width: 3</text>
<text text-anchor="middle" x="3382.5" y="-37.8" font-family="Times,serif" font-size="14.00">log gamma1: &#45;11.000000 &#160;&#160;log gamma2: &#45;11.000000</text>
<text text-anchor="middle" x="3382.5" y="-22.8" font-family="Times,serif" font-size="14.00">log lambda1: &#45;11.000000 &#160;&#160;log lambda2: &#45;11.000000</text>
<text text-anchor="middle" x="3382.5" y="-7.8" font-family="Times,serif" font-size="14.00">n kernels: 64</text>
</g>
<!-- 15&#45;&gt;29 -->
<g id="edge29" class="edge"><title>15&#45;&gt;29</title>
<path fill="none" stroke="black" d="M2924.57,-163.846C2941.79,-153.534 2964.66,-141.27 2986.5,-134 3083.32,-101.776 3115.85,-119.823 3219.65,-98.064"/>
<polygon fill="black" stroke="black" points="3220.56,-101.449 3229.59,-95.907 3219.07,-94.6087 3220.56,-101.449"/>
</g>
</g>
</svg>
