<?xml version="1.0" encoding="UTF-8" standalone="no"?>
<!DOCTYPE svg PUBLIC "-//W3C//DTD SVG 1.1//EN"
 "http://www.w3.org/Graphics/SVG/1.1/DTD/svg11.dtd">
<!-- Generated by graphviz version 2.38.0 (20140413.2041)
 -->
<!-- Title: %3 Pages: 1 -->
<svg width="4067pt" height="418pt"
 viewBox="0.00 0.00 4067.00 418.00" xmlns="http://www.w3.org/2000/svg" xmlns:xlink="http://www.w3.org/1999/xlink">
<g id="graph0" class="graph" transform="scale(1 1) rotate(0) translate(4 414)">
<title>%3</title>
<polygon fill="none" stroke="none" points="-4,4 -4,-414 4063,-414 4063,4 -4,4"/>
<!-- 0 -->
<g id="node1" class="node"><title>0</title>
<path fill="#ffd3d3" stroke="black" d="M2818,-410C2818,-410 2627,-410 2627,-410 2621,-410 2615,-404 2615,-398 2615,-398 2615,-369 2615,-369 2615,-363 2621,-357 2627,-357 2627,-357 2818,-357 2818,-357 2824,-357 2830,-363 2830,-369 2830,-369 2830,-398 2830,-398 2830,-404 2824,-410 2818,-410"/>
<text text-anchor="middle" x="2722.5" y="-394.8" font-family="Times,serif" font-size="14.00">net</text>
<text text-anchor="middle" x="2722.5" y="-379.8" font-family="Times,serif" font-size="14.00">k width: 3 &#160;&#160;log gamma2: &#45;9.998736</text>
<text text-anchor="middle" x="2722.5" y="-364.8" font-family="Times,serif" font-size="14.00">n kernels: 47</text>
</g>
<!-- 1 -->
<g id="node2" class="node"><title>1</title>
<path fill="#e9ffd3" stroke="black" d="M977,-312.5C977,-312.5 914,-312.5 914,-312.5 908,-312.5 902,-306.5 902,-300.5 902,-300.5 902,-288.5 902,-288.5 902,-282.5 908,-276.5 914,-276.5 914,-276.5 977,-276.5 977,-276.5 983,-276.5 989,-282.5 989,-288.5 989,-288.5 989,-300.5 989,-300.5 989,-306.5 983,-312.5 977,-312.5"/>
<text text-anchor="middle" x="945.5" y="-290.8" font-family="Times,serif" font-size="14.00">conv block 0</text>
</g>
<!-- 0&#45;&gt;1 -->
<g id="edge1" class="edge"><title>0&#45;&gt;1</title>
<path fill="none" stroke="black" d="M2614.68,-377.221C2276.83,-360.68 1246.55,-310.239 999.271,-298.133"/>
<polygon fill="black" stroke="black" points="999.264,-294.628 989.105,-297.635 998.921,-301.62 999.264,-294.628"/>
</g>
<!-- 2 -->
<g id="node3" class="node"><title>2</title>
<path fill="#e9ffd3" stroke="black" d="M2825.5,-321C2825.5,-321 2619.5,-321 2619.5,-321 2613.5,-321 2607.5,-315 2607.5,-309 2607.5,-309 2607.5,-280 2607.5,-280 2607.5,-274 2613.5,-268 2619.5,-268 2619.5,-268 2825.5,-268 2825.5,-268 2831.5,-268 2837.5,-274 2837.5,-280 2837.5,-280 2837.5,-309 2837.5,-309 2837.5,-315 2831.5,-321 2825.5,-321"/>
<text text-anchor="middle" x="2722.5" y="-305.8" font-family="Times,serif" font-size="14.00">conv block 1</text>
<text text-anchor="middle" x="2722.5" y="-290.8" font-family="Times,serif" font-size="14.00">log gamma1: 0.937580 &#160;&#160;n kernels: &#45;18</text>
<text text-anchor="middle" x="2722.5" y="-275.8" font-family="Times,serif" font-size="14.00">pool z: 1 &#160;&#160;spatial scale: 1</text>
</g>
<!-- 0&#45;&gt;2 -->
<g id="edge2" class="edge"><title>0&#45;&gt;2</title>
<path fill="none" stroke="black" d="M2722.5,-356.868C2722.5,-348.886 2722.5,-339.932 2722.5,-331.384"/>
<polygon fill="black" stroke="black" points="2726,-331.25 2722.5,-321.25 2719,-331.25 2726,-331.25"/>
</g>
<!-- 3 -->
<g id="node4" class="node"><title>3</title>
<path fill="#e9ffd3" stroke="black" d="M3617,-312.5C3617,-312.5 3550,-312.5 3550,-312.5 3544,-312.5 3538,-306.5 3538,-300.5 3538,-300.5 3538,-288.5 3538,-288.5 3538,-282.5 3544,-276.5 3550,-276.5 3550,-276.5 3617,-276.5 3617,-276.5 3623,-276.5 3629,-282.5 3629,-288.5 3629,-288.5 3629,-300.5 3629,-300.5 3629,-306.5 3623,-312.5 3617,-312.5"/>
<text text-anchor="middle" x="3583.5" y="-290.8" font-family="Times,serif" font-size="14.00">path combine</text>
</g>
<!-- 0&#45;&gt;3 -->
<g id="edge3" class="edge"><title>0&#45;&gt;3</title>
<path fill="none" stroke="black" d="M2830.24,-371.613C3015.13,-352.931 3386.52,-315.404 3527.49,-301.16"/>
<polygon fill="black" stroke="black" points="3528.04,-304.622 3537.63,-300.135 3527.33,-297.658 3528.04,-304.622"/>
</g>
<!-- 4 -->
<g id="node5" class="node"><title>4</title>
<path fill="#d3ffff" stroke="black" d="M255.5,-201C255.5,-201 221.5,-201 221.5,-201 215.5,-201 209.5,-195 209.5,-189 209.5,-189 209.5,-177 209.5,-177 209.5,-171 215.5,-165 221.5,-165 221.5,-165 255.5,-165 255.5,-165 261.5,-165 267.5,-171 267.5,-177 267.5,-177 267.5,-189 267.5,-189 267.5,-195 261.5,-201 255.5,-201"/>
<text text-anchor="middle" x="238.5" y="-179.3" font-family="Times,serif" font-size="14.00">comp 0</text>
</g>
<!-- 1&#45;&gt;4 -->
<g id="edge4" class="edge"><title>1&#45;&gt;4</title>
<path fill="none" stroke="black" d="M901.681,-292.808C803.673,-290.411 559.859,-279.715 362.5,-232 333.116,-224.896 301.346,-212.499 277.32,-202.084"/>
<polygon fill="black" stroke="black" points="278.419,-198.743 267.857,-197.911 275.595,-205.148 278.419,-198.743"/>
</g>
<!-- 5 -->
<g id="node6" class="node"><title>5</title>
<path fill="#bfe6e6" stroke="black" d="M643,-209.5C643,-209.5 384,-209.5 384,-209.5 378,-209.5 372,-203.5 372,-197.5 372,-197.5 372,-168.5 372,-168.5 372,-162.5 378,-156.5 384,-156.5 384,-156.5 643,-156.5 643,-156.5 649,-156.5 655,-162.5 655,-168.5 655,-168.5 655,-197.5 655,-197.5 655,-203.5 649,-209.5 643,-209.5"/>
<text text-anchor="middle" x="513.5" y="-194.3" font-family="Times,serif" font-size="14.00">comp 1</text>
<text text-anchor="middle" x="513.5" y="-179.3" font-family="Times,serif" font-size="14.00">log gamma1: 0.906639 &#160;&#160;log gamma2: 0.197996</text>
<text text-anchor="middle" x="513.5" y="-164.3" font-family="Times,serif" font-size="14.00">n kernels: &#45;12</text>
</g>
<!-- 1&#45;&gt;5 -->
<g id="edge5" class="edge"><title>1&#45;&gt;5</title>
<path fill="none" stroke="black" d="M901.7,-282.398C837.127,-266.031 714.29,-234.895 624.024,-212.015"/>
<polygon fill="black" stroke="black" points="624.844,-208.612 614.291,-209.548 623.124,-215.397 624.844,-208.612"/>
</g>
<!-- 6 -->
<g id="node7" class="node"><title>6</title>
<path fill="#abcece" stroke="black" d="M930.5,-202C930.5,-202 724.5,-202 724.5,-202 718.5,-202 712.5,-196 712.5,-190 712.5,-190 712.5,-176 712.5,-176 712.5,-170 718.5,-164 724.5,-164 724.5,-164 930.5,-164 930.5,-164 936.5,-164 942.5,-170 942.5,-176 942.5,-176 942.5,-190 942.5,-190 942.5,-196 936.5,-202 930.5,-202"/>
<text text-anchor="middle" x="827.5" y="-186.8" font-family="Times,serif" font-size="14.00">comp 2</text>
<text text-anchor="middle" x="827.5" y="-171.8" font-family="Times,serif" font-size="14.00">log gamma2: &#45;0.001264 &#160;&#160;n kernels: 20</text>
</g>
<!-- 1&#45;&gt;6 -->
<g id="edge6" class="edge"><title>1&#45;&gt;6</title>
<path fill="none" stroke="black" d="M927.062,-276.391C907.58,-258.312 876.661,-229.62 854.447,-209.006"/>
<polygon fill="black" stroke="black" points="856.696,-206.318 846.985,-202.082 851.935,-211.449 856.696,-206.318"/>
</g>
<!-- 7 -->
<g id="node8" class="node"><title>7</title>
<path fill="#97b6b6" stroke="black" d="M1122.5,-202C1122.5,-202 1002.5,-202 1002.5,-202 996.5,-202 990.5,-196 990.5,-190 990.5,-190 990.5,-176 990.5,-176 990.5,-170 996.5,-164 1002.5,-164 1002.5,-164 1122.5,-164 1122.5,-164 1128.5,-164 1134.5,-170 1134.5,-176 1134.5,-176 1134.5,-190 1134.5,-190 1134.5,-196 1128.5,-202 1122.5,-202"/>
<text text-anchor="middle" x="1062.5" y="-186.8" font-family="Times,serif" font-size="14.00">comp 3</text>
<text text-anchor="middle" x="1062.5" y="-171.8" font-family="Times,serif" font-size="14.00">log gamma1: 1.649538</text>
</g>
<!-- 1&#45;&gt;7 -->
<g id="edge7" class="edge"><title>1&#45;&gt;7</title>
<path fill="none" stroke="black" d="M963.781,-276.391C983.098,-258.312 1013.76,-229.62 1035.78,-209.006"/>
<polygon fill="black" stroke="black" points="1038.27,-211.47 1043.18,-202.082 1033.49,-206.359 1038.27,-211.47"/>
</g>
<!-- 8 -->
<g id="node9" class="node"><title>8</title>
<path fill="#839e9e" stroke="black" d="M1399,-202C1399,-202 1274,-202 1274,-202 1268,-202 1262,-196 1262,-190 1262,-190 1262,-176 1262,-176 1262,-170 1268,-164 1274,-164 1274,-164 1399,-164 1399,-164 1405,-164 1411,-170 1411,-176 1411,-176 1411,-190 1411,-190 1411,-196 1405,-202 1399,-202"/>
<text text-anchor="middle" x="1336.5" y="-186.8" font-family="Times,serif" font-size="14.00">comp 4</text>
<text text-anchor="middle" x="1336.5" y="-171.8" font-family="Times,serif" font-size="14.00">log gamma2: &#45;0.001264</text>
</g>
<!-- 1&#45;&gt;8 -->
<g id="edge8" class="edge"><title>1&#45;&gt;8</title>
<path fill="none" stroke="black" d="M989.215,-281.258C1055.24,-262.767 1181.25,-227.479 1261.95,-204.877"/>
<polygon fill="black" stroke="black" points="1263.37,-208.116 1272.05,-202.049 1261.48,-201.375 1263.37,-208.116"/>
</g>
<!-- 9 -->
<g id="node10" class="node"><title>9</title>
<path fill="#d3ffff" stroke="black" d="M1993,-202C1993,-202 1730,-202 1730,-202 1724,-202 1718,-196 1718,-190 1718,-190 1718,-176 1718,-176 1718,-170 1724,-164 1730,-164 1730,-164 1993,-164 1993,-164 1999,-164 2005,-170 2005,-176 2005,-176 2005,-190 2005,-190 2005,-196 1999,-202 1993,-202"/>
<text text-anchor="middle" x="1861.5" y="-186.8" font-family="Times,serif" font-size="14.00">comp 0</text>
<text text-anchor="middle" x="1861.5" y="-171.8" font-family="Times,serif" font-size="14.00">log gamma1: &#45;1.280111 &#160;&#160;log gamma2: 0.543377</text>
</g>
<!-- 2&#45;&gt;9 -->
<g id="edge9" class="edge"><title>2&#45;&gt;9</title>
<path fill="none" stroke="black" d="M2607.44,-285.107C2483.96,-275.365 2282.26,-257.331 2109.5,-232 2057.96,-224.443 2000.85,-213.564 1954.45,-204.074"/>
<polygon fill="black" stroke="black" points="1954.91,-200.596 1944.41,-202.009 1953.5,-207.453 1954.91,-200.596"/>
</g>
<!-- 10 -->
<g id="node11" class="node"><title>10</title>
<path fill="#bfe6e6" stroke="black" d="M2186.5,-202C2186.5,-202 2130.5,-202 2130.5,-202 2124.5,-202 2118.5,-196 2118.5,-190 2118.5,-190 2118.5,-176 2118.5,-176 2118.5,-170 2124.5,-164 2130.5,-164 2130.5,-164 2186.5,-164 2186.5,-164 2192.5,-164 2198.5,-170 2198.5,-176 2198.5,-176 2198.5,-190 2198.5,-190 2198.5,-196 2192.5,-202 2186.5,-202"/>
<text text-anchor="middle" x="2158.5" y="-186.8" font-family="Times,serif" font-size="14.00">comp 1</text>
<text text-anchor="middle" x="2158.5" y="-171.8" font-family="Times,serif" font-size="14.00">n kernels: 7</text>
</g>
<!-- 2&#45;&gt;10 -->
<g id="edge10" class="edge"><title>2&#45;&gt;10</title>
<path fill="none" stroke="black" d="M2607.47,-285.706C2516.24,-277.612 2386.13,-261.787 2275.5,-232 2251.6,-225.565 2226.06,-215.489 2204.96,-206.227"/>
<polygon fill="black" stroke="black" points="2206.16,-202.928 2195.6,-202.044 2203.3,-209.319 2206.16,-202.928"/>
</g>
<!-- 11 -->
<g id="node12" class="node"><title>11</title>
<path fill="#abcece" stroke="black" d="M2556,-202C2556,-202 2297,-202 2297,-202 2291,-202 2285,-196 2285,-190 2285,-190 2285,-176 2285,-176 2285,-170 2291,-164 2297,-164 2297,-164 2556,-164 2556,-164 2562,-164 2568,-170 2568,-176 2568,-176 2568,-190 2568,-190 2568,-196 2562,-202 2556,-202"/>
<text text-anchor="middle" x="2426.5" y="-186.8" font-family="Times,serif" font-size="14.00">comp 2</text>
<text text-anchor="middle" x="2426.5" y="-171.8" font-family="Times,serif" font-size="14.00">log gamma1: 1.633647 &#160;&#160;log gamma2: 1.635980</text>
</g>
<!-- 2&#45;&gt;11 -->
<g id="edge11" class="edge"><title>2&#45;&gt;11</title>
<path fill="none" stroke="black" d="M2653.47,-267.965C2602.23,-249.006 2533.11,-223.438 2484.66,-205.514"/>
<polygon fill="black" stroke="black" points="2485.85,-202.223 2475.25,-202.036 2483.42,-208.788 2485.85,-202.223"/>
</g>
<!-- 12 -->
<g id="node13" class="node"><title>12</title>
<path fill="#97b6b6" stroke="black" d="M2820,-202C2820,-202 2625,-202 2625,-202 2619,-202 2613,-196 2613,-190 2613,-190 2613,-176 2613,-176 2613,-170 2619,-164 2625,-164 2625,-164 2820,-164 2820,-164 2826,-164 2832,-170 2832,-176 2832,-176 2832,-190 2832,-190 2832,-196 2826,-202 2820,-202"/>
<text text-anchor="middle" x="2722.5" y="-186.8" font-family="Times,serif" font-size="14.00">comp 3</text>
<text text-anchor="middle" x="2722.5" y="-171.8" font-family="Times,serif" font-size="14.00">log gamma1: 0.781315 &#160;&#160;n kernels: 5</text>
</g>
<!-- 2&#45;&gt;12 -->
<g id="edge12" class="edge"><title>2&#45;&gt;12</title>
<path fill="none" stroke="black" d="M2722.5,-267.827C2722.5,-251.18 2722.5,-229.482 2722.5,-212.332"/>
<polygon fill="black" stroke="black" points="2726,-212.327 2722.5,-202.327 2719,-212.327 2726,-212.327"/>
</g>
<!-- 13 -->
<g id="node14" class="node"><title>13</title>
<path fill="#839e9e" stroke="black" d="M3062.5,-202C3062.5,-202 2862.5,-202 2862.5,-202 2856.5,-202 2850.5,-196 2850.5,-190 2850.5,-190 2850.5,-176 2850.5,-176 2850.5,-170 2856.5,-164 2862.5,-164 2862.5,-164 3062.5,-164 3062.5,-164 3068.5,-164 3074.5,-170 3074.5,-176 3074.5,-176 3074.5,-190 3074.5,-190 3074.5,-196 3068.5,-202 3062.5,-202"/>
<text text-anchor="middle" x="2962.5" y="-186.8" font-family="Times,serif" font-size="14.00">comp 4</text>
<text text-anchor="middle" x="2962.5" y="-171.8" font-family="Times,serif" font-size="14.00">log gamma1: &#45;1.663546 &#160;&#160;n kernels: 3</text>
</g>
<!-- 2&#45;&gt;13 -->
<g id="edge13" class="edge"><title>2&#45;&gt;13</title>
<path fill="none" stroke="black" d="M2778.47,-267.965C2819.5,-249.243 2874.66,-224.076 2913.86,-206.19"/>
<polygon fill="black" stroke="black" points="2915.32,-209.371 2922.97,-202.036 2912.42,-203.002 2915.32,-209.371"/>
</g>
<!-- 14 -->
<g id="node15" class="node"><title>14</title>
<path fill="#6f8585" stroke="black" d="M3224.5,-202C3224.5,-202 3104.5,-202 3104.5,-202 3098.5,-202 3092.5,-196 3092.5,-190 3092.5,-190 3092.5,-176 3092.5,-176 3092.5,-170 3098.5,-164 3104.5,-164 3104.5,-164 3224.5,-164 3224.5,-164 3230.5,-164 3236.5,-170 3236.5,-176 3236.5,-176 3236.5,-190 3236.5,-190 3236.5,-196 3230.5,-202 3224.5,-202"/>
<text text-anchor="middle" x="3164.5" y="-186.8" font-family="Times,serif" font-size="14.00">comp 5</text>
<text text-anchor="middle" x="3164.5" y="-171.8" font-family="Times,serif" font-size="14.00">log gamma1: 1.063739</text>
</g>
<!-- 2&#45;&gt;14 -->
<g id="edge14" class="edge"><title>2&#45;&gt;14</title>
<path fill="none" stroke="black" d="M2837.86,-284.687C2910.14,-276.544 3004.27,-261.086 3083.5,-232 3099.86,-225.992 3116.65,-216.661 3130.67,-207.817"/>
<polygon fill="black" stroke="black" points="3132.97,-210.497 3139.45,-202.115 3129.15,-204.627 3132.97,-210.497"/>
</g>
<!-- 15 -->
<g id="node16" class="node"><title>15</title>
<path fill="#5b6d6d" stroke="black" d="M3400.5,-202C3400.5,-202 3266.5,-202 3266.5,-202 3260.5,-202 3254.5,-196 3254.5,-190 3254.5,-190 3254.5,-176 3254.5,-176 3254.5,-170 3260.5,-164 3266.5,-164 3266.5,-164 3400.5,-164 3400.5,-164 3406.5,-164 3412.5,-170 3412.5,-176 3412.5,-176 3412.5,-190 3412.5,-190 3412.5,-196 3406.5,-202 3400.5,-202"/>
<text text-anchor="middle" x="3333.5" y="-186.8" font-family="Times,serif" font-size="14.00">path end 1</text>
<text text-anchor="middle" x="3333.5" y="-171.8" font-family="Times,serif" font-size="14.00">k width: &#45;2 &#160;&#160;n kernels: 18</text>
</g>
<!-- 2&#45;&gt;15 -->
<g id="edge15" class="edge"><title>2&#45;&gt;15</title>
<path fill="none" stroke="black" d="M2837.61,-292.474C2945.38,-288.615 3109.71,-275.229 3245.5,-232 3263.66,-226.219 3282.39,-216.601 3297.87,-207.486"/>
<polygon fill="black" stroke="black" points="3299.84,-210.383 3306.58,-202.21 3296.22,-204.395 3299.84,-210.383"/>
</g>
<!-- 16 -->
<g id="node17" class="node"><title>16</title>
<path fill="#d3ffff" stroke="black" d="M3724,-232C3724,-232 3443,-232 3443,-232 3437,-232 3431,-226 3431,-220 3431,-220 3431,-146 3431,-146 3431,-140 3437,-134 3443,-134 3443,-134 3724,-134 3724,-134 3730,-134 3736,-140 3736,-146 3736,-146 3736,-220 3736,-220 3736,-226 3730,-232 3724,-232"/>
<text text-anchor="middle" x="3583.5" y="-216.8" font-family="Times,serif" font-size="14.00">forward</text>
<text text-anchor="middle" x="3583.5" y="-201.8" font-family="Times,serif" font-size="14.00">CB0/C4</text>
<text text-anchor="middle" x="3583.5" y="-186.8" font-family="Times,serif" font-size="14.00">dilation rate: 1 &#160;&#160;k width: 3</text>
<text text-anchor="middle" x="3583.5" y="-171.8" font-family="Times,serif" font-size="14.00">log gamma1: &#45;11.000000 &#160;&#160;log gamma2: &#45;11.000000</text>
<text text-anchor="middle" x="3583.5" y="-156.8" font-family="Times,serif" font-size="14.00">log lambda1: &#45;11.000000 &#160;&#160;log lambda2: &#45;11.000000</text>
<text text-anchor="middle" x="3583.5" y="-141.8" font-family="Times,serif" font-size="14.00">n kernels: 64</text>
</g>
<!-- 3&#45;&gt;16 -->
<g id="edge16" class="edge"><title>3&#45;&gt;16</title>
<path fill="none" stroke="black" d="M3583.5,-276.391C3583.5,-266.993 3583.5,-254.728 3583.5,-242.22"/>
<polygon fill="black" stroke="black" points="3587,-242.188 3583.5,-232.188 3580,-242.188 3587,-242.188"/>
</g>
<!-- 17 -->
<g id="node18" class="node"><title>17</title>
<path fill="#bfe6e6" stroke="black" d="M4047,-232C4047,-232 3766,-232 3766,-232 3760,-232 3754,-226 3754,-220 3754,-220 3754,-146 3754,-146 3754,-140 3760,-134 3766,-134 3766,-134 4047,-134 4047,-134 4053,-134 4059,-140 4059,-146 4059,-146 4059,-220 4059,-220 4059,-226 4053,-232 4047,-232"/>
<text text-anchor="middle" x="3906.5" y="-216.8" font-family="Times,serif" font-size="14.00">merge 1</text>
<text text-anchor="middle" x="3906.5" y="-201.8" font-family="Times,serif" font-size="14.00">CB1/PE1</text>
<text text-anchor="middle" x="3906.5" y="-186.8" font-family="Times,serif" font-size="14.00">dilation rate: 1 &#160;&#160;k width: 3</text>
<text text-anchor="middle" x="3906.5" y="-171.8" font-family="Times,serif" font-size="14.00">log gamma1: &#45;11.000000 &#160;&#160;log gamma2: &#45;11.000000</text>
<text text-anchor="middle" x="3906.5" y="-156.8" font-family="Times,serif" font-size="14.00">log lambda1: &#45;11.000000 &#160;&#160;log lambda2: &#45;11.000000</text>
<text text-anchor="middle" x="3906.5" y="-141.8" font-family="Times,serif" font-size="14.00">n kernels: 64</text>
</g>
<!-- 3&#45;&gt;17 -->
<g id="edge17" class="edge"><title>3&#45;&gt;17</title>
<path fill="none" stroke="black" d="M3629.09,-278.044C3662.21,-266.816 3709.08,-250.928 3754.88,-235.402"/>
<polygon fill="black" stroke="black" points="3756.28,-238.621 3764.63,-232.096 3754.03,-231.991 3756.28,-238.621"/>
</g>
<!-- 18 -->
<g id="node19" class="node"><title>18</title>
<path fill="#e9d3ff" stroke="black" d="M293,-98C293,-98 12,-98 12,-98 6,-98 0,-92 0,-86 0,-86 0,-12 0,-12 0,-6 6,-0 12,-0 12,-0 293,-0 293,-0 299,-0 305,-6 305,-12 305,-12 305,-86 305,-86 305,-92 299,-98 293,-98"/>
<text text-anchor="middle" x="152.5" y="-82.8" font-family="Times,serif" font-size="14.00">forward</text>
<text text-anchor="middle" x="152.5" y="-67.8" font-family="Times,serif" font-size="14.00">input</text>
<text text-anchor="middle" x="152.5" y="-52.8" font-family="Times,serif" font-size="14.00">dilation rate: 1 &#160;&#160;k width: 3</text>
<text text-anchor="middle" x="152.5" y="-37.8" font-family="Times,serif" font-size="14.00">log gamma1: &#45;11.000000 &#160;&#160;log gamma2: &#45;11.000000</text>
<text text-anchor="middle" x="152.5" y="-22.8" font-family="Times,serif" font-size="14.00">log lambda1: &#45;11.000000 &#160;&#160;log lambda2: &#45;11.000000</text>
<text text-anchor="middle" x="152.5" y="-7.8" font-family="Times,serif" font-size="14.00">n kernels: 64</text>
</g>
<!-- 4&#45;&gt;18 -->
<g id="edge18" class="edge"><title>4&#45;&gt;18</title>
<path fill="none" stroke="black" d="M227.257,-164.743C217.613,-149.941 203.154,-127.748 189.514,-106.812"/>
<polygon fill="black" stroke="black" points="192.329,-104.721 183.938,-98.2533 186.464,-108.543 192.329,-104.721"/>
</g>
<!-- 19 -->
<g id="node20" class="node"><title>19</title>
<path fill="#e9d3ff" stroke="black" d="M616,-98C616,-98 335,-98 335,-98 329,-98 323,-92 323,-86 323,-86 323,-12 323,-12 323,-6 329,-0 335,-0 335,-0 616,-0 616,-0 622,-0 628,-6 628,-12 628,-12 628,-86 628,-86 628,-92 622,-98 616,-98"/>
<text text-anchor="middle" x="475.5" y="-82.8" font-family="Times,serif" font-size="14.00">forward</text>
<text text-anchor="middle" x="475.5" y="-67.8" font-family="Times,serif" font-size="14.00">CB0/C0</text>
<text text-anchor="middle" x="475.5" y="-52.8" font-family="Times,serif" font-size="14.00">dilation rate: 1 &#160;&#160;k width: 3</text>
<text text-anchor="middle" x="475.5" y="-37.8" font-family="Times,serif" font-size="14.00">log gamma1: &#45;11.000000 &#160;&#160;log gamma2: &#45;11.000000</text>
<text text-anchor="middle" x="475.5" y="-22.8" font-family="Times,serif" font-size="14.00">log lambda1: &#45;11.000000 &#160;&#160;log lambda2: &#45;11.000000</text>
<text text-anchor="middle" x="475.5" y="-7.8" font-family="Times,serif" font-size="14.00">n kernels: 64</text>
</g>
<!-- 5&#45;&gt;19 -->
<g id="edge19" class="edge"><title>5&#45;&gt;19</title>
<path fill="none" stroke="black" d="M506.083,-156.236C502.111,-142.438 497.046,-124.845 492.187,-107.965"/>
<polygon fill="black" stroke="black" points="495.489,-106.784 489.359,-98.1423 488.762,-108.72 495.489,-106.784"/>
</g>
<!-- 20 -->
<g id="node21" class="node"><title>20</title>
<path fill="#e9d3ff" stroke="black" d="M939,-98C939,-98 658,-98 658,-98 652,-98 646,-92 646,-86 646,-86 646,-12 646,-12 646,-6 652,-0 658,-0 658,-0 939,-0 939,-0 945,-0 951,-6 951,-12 951,-12 951,-86 951,-86 951,-92 945,-98 939,-98"/>
<text text-anchor="middle" x="798.5" y="-82.8" font-family="Times,serif" font-size="14.00">forward</text>
<text text-anchor="middle" x="798.5" y="-67.8" font-family="Times,serif" font-size="14.00">CB0/C1</text>
<text text-anchor="middle" x="798.5" y="-52.8" font-family="Times,serif" font-size="14.00">dilation rate: 1 &#160;&#160;k width: 3</text>
<text text-anchor="middle" x="798.5" y="-37.8" font-family="Times,serif" font-size="14.00">log gamma1: &#45;11.000000 &#160;&#160;log gamma2: &#45;11.000000</text>
<text text-anchor="middle" x="798.5" y="-22.8" font-family="Times,serif" font-size="14.00">log lambda1: &#45;11.000000 &#160;&#160;log lambda2: &#45;11.000000</text>
<text text-anchor="middle" x="798.5" y="-7.8" font-family="Times,serif" font-size="14.00">n kernels: 64</text>
</g>
<!-- 6&#45;&gt;20 -->
<g id="edge20" class="edge"><title>6&#45;&gt;20</title>
<path fill="none" stroke="black" d="M823.528,-163.923C820.342,-149.42 815.685,-128.221 811.249,-108.03"/>
<polygon fill="black" stroke="black" points="814.661,-107.25 809.097,-98.2336 807.824,-108.752 814.661,-107.25"/>
</g>
<!-- 21 -->
<g id="node22" class="node"><title>21</title>
<path fill="#e9d3ff" stroke="black" d="M1262,-98C1262,-98 981,-98 981,-98 975,-98 969,-92 969,-86 969,-86 969,-12 969,-12 969,-6 975,-0 981,-0 981,-0 1262,-0 1262,-0 1268,-0 1274,-6 1274,-12 1274,-12 1274,-86 1274,-86 1274,-92 1268,-98 1262,-98"/>
<text text-anchor="middle" x="1121.5" y="-82.8" font-family="Times,serif" font-size="14.00">forward</text>
<text text-anchor="middle" x="1121.5" y="-67.8" font-family="Times,serif" font-size="14.00">CB0/C2</text>
<text text-anchor="middle" x="1121.5" y="-52.8" font-family="Times,serif" font-size="14.00">dilation rate: 1 &#160;&#160;k width: 3</text>
<text text-anchor="middle" x="1121.5" y="-37.8" font-family="Times,serif" font-size="14.00">log gamma1: &#45;11.000000 &#160;&#160;log gamma2: &#45;11.000000</text>
<text text-anchor="middle" x="1121.5" y="-22.8" font-family="Times,serif" font-size="14.00">log lambda1: &#45;11.000000 &#160;&#160;log lambda2: &#45;11.000000</text>
<text text-anchor="middle" x="1121.5" y="-7.8" font-family="Times,serif" font-size="14.00">n kernels: 64</text>
</g>
<!-- 7&#45;&gt;21 -->
<g id="edge21" class="edge"><title>7&#45;&gt;21</title>
<path fill="none" stroke="black" d="M1070.58,-163.923C1077.12,-149.289 1086.71,-127.835 1095.81,-107.48"/>
<polygon fill="black" stroke="black" points="1099.06,-108.791 1099.94,-98.2336 1092.67,-105.935 1099.06,-108.791"/>
</g>
<!-- 22 -->
<g id="node23" class="node"><title>22</title>
<path fill="#e9d3ff" stroke="black" d="M1585,-98C1585,-98 1304,-98 1304,-98 1298,-98 1292,-92 1292,-86 1292,-86 1292,-12 1292,-12 1292,-6 1298,-0 1304,-0 1304,-0 1585,-0 1585,-0 1591,-0 1597,-6 1597,-12 1597,-12 1597,-86 1597,-86 1597,-92 1591,-98 1585,-98"/>
<text text-anchor="middle" x="1444.5" y="-82.8" font-family="Times,serif" font-size="14.00">forward</text>
<text text-anchor="middle" x="1444.5" y="-67.8" font-family="Times,serif" font-size="14.00">CB0/C3</text>
<text text-anchor="middle" x="1444.5" y="-52.8" font-family="Times,serif" font-size="14.00">dilation rate: 1 &#160;&#160;k width: 3</text>
<text text-anchor="middle" x="1444.5" y="-37.8" font-family="Times,serif" font-size="14.00">log gamma1: &#45;11.000000 &#160;&#160;log gamma2: &#45;11.000000</text>
<text text-anchor="middle" x="1444.5" y="-22.8" font-family="Times,serif" font-size="14.00">log lambda1: &#45;11.000000 &#160;&#160;log lambda2: &#45;11.000000</text>
<text text-anchor="middle" x="1444.5" y="-7.8" font-family="Times,serif" font-size="14.00">n kernels: 64</text>
</g>
<!-- 8&#45;&gt;22 -->
<g id="edge22" class="edge"><title>8&#45;&gt;22</title>
<path fill="none" stroke="black" d="M1351.29,-163.923C1363.53,-148.959 1381.61,-126.865 1398.59,-106.106"/>
<polygon fill="black" stroke="black" points="1401.41,-108.19 1405.04,-98.2336 1395.99,-103.757 1401.41,-108.19"/>
</g>
<!-- 23 -->
<g id="node24" class="node"><title>23</title>
<path fill="#e9d3ff" stroke="black" d="M1908,-98C1908,-98 1627,-98 1627,-98 1621,-98 1615,-92 1615,-86 1615,-86 1615,-12 1615,-12 1615,-6 1621,-0 1627,-0 1627,-0 1908,-0 1908,-0 1914,-0 1920,-6 1920,-12 1920,-12 1920,-86 1920,-86 1920,-92 1914,-98 1908,-98"/>
<text text-anchor="middle" x="1767.5" y="-82.8" font-family="Times,serif" font-size="14.00">forward</text>
<text text-anchor="middle" x="1767.5" y="-67.8" font-family="Times,serif" font-size="14.00">input</text>
<text text-anchor="middle" x="1767.5" y="-52.8" font-family="Times,serif" font-size="14.00">dilation rate: 1 &#160;&#160;k width: 3</text>
<text text-anchor="middle" x="1767.5" y="-37.8" font-family="Times,serif" font-size="14.00">log gamma1: &#45;11.000000 &#160;&#160;log gamma2: &#45;11.000000</text>
<text text-anchor="middle" x="1767.5" y="-22.8" font-family="Times,serif" font-size="14.00">log lambda1: &#45;11.000000 &#160;&#160;log lambda2: &#45;11.000000</text>
<text text-anchor="middle" x="1767.5" y="-7.8" font-family="Times,serif" font-size="14.00">n kernels: 64</text>
</g>
<!-- 9&#45;&gt;23 -->
<g id="edge23" class="edge"><title>9&#45;&gt;23</title>
<path fill="none" stroke="black" d="M1848.63,-163.923C1838.02,-149.025 1822.38,-127.059 1807.65,-106.381"/>
<polygon fill="black" stroke="black" points="1810.5,-104.349 1801.85,-98.2336 1804.8,-108.41 1810.5,-104.349"/>
</g>
<!-- 24 -->
<g id="node25" class="node"><title>24</title>
<path fill="#e9d3ff" stroke="black" d="M2231,-98C2231,-98 1950,-98 1950,-98 1944,-98 1938,-92 1938,-86 1938,-86 1938,-12 1938,-12 1938,-6 1944,-0 1950,-0 1950,-0 2231,-0 2231,-0 2237,-0 2243,-6 2243,-12 2243,-12 2243,-86 2243,-86 2243,-92 2237,-98 2231,-98"/>
<text text-anchor="middle" x="2090.5" y="-82.8" font-family="Times,serif" font-size="14.00">forward</text>
<text text-anchor="middle" x="2090.5" y="-67.8" font-family="Times,serif" font-size="14.00">CB1/C0</text>
<text text-anchor="middle" x="2090.5" y="-52.8" font-family="Times,serif" font-size="14.00">dilation rate: 1 &#160;&#160;k width: 3</text>
<text text-anchor="middle" x="2090.5" y="-37.8" font-family="Times,serif" font-size="14.00">log gamma1: &#45;11.000000 &#160;&#160;log gamma2: &#45;11.000000</text>
<text text-anchor="middle" x="2090.5" y="-22.8" font-family="Times,serif" font-size="14.00">log lambda1: &#45;11.000000 &#160;&#160;log lambda2: &#45;11.000000</text>
<text text-anchor="middle" x="2090.5" y="-7.8" font-family="Times,serif" font-size="14.00">n kernels: 64</text>
</g>
<!-- 10&#45;&gt;24 -->
<g id="edge24" class="edge"><title>10&#45;&gt;24</title>
<path fill="none" stroke="black" d="M2149.19,-163.923C2141.61,-149.223 2130.5,-127.641 2119.97,-107.205"/>
<polygon fill="black" stroke="black" points="2123.04,-105.52 2115.35,-98.2336 2116.82,-108.726 2123.04,-105.52"/>
</g>
<!-- 25 -->
<g id="node26" class="node"><title>25</title>
<path fill="#e9d3ff" stroke="black" d="M2554,-98C2554,-98 2273,-98 2273,-98 2267,-98 2261,-92 2261,-86 2261,-86 2261,-12 2261,-12 2261,-6 2267,-0 2273,-0 2273,-0 2554,-0 2554,-0 2560,-0 2566,-6 2566,-12 2566,-12 2566,-86 2566,-86 2566,-92 2560,-98 2554,-98"/>
<text text-anchor="middle" x="2413.5" y="-82.8" font-family="Times,serif" font-size="14.00">forward</text>
<text text-anchor="middle" x="2413.5" y="-67.8" font-family="Times,serif" font-size="14.00">CB1/C1</text>
<text text-anchor="middle" x="2413.5" y="-52.8" font-family="Times,serif" font-size="14.00">dilation rate: 1 &#160;&#160;k width: 3</text>
<text text-anchor="middle" x="2413.5" y="-37.8" font-family="Times,serif" font-size="14.00">log gamma1: &#45;11.000000 &#160;&#160;log gamma2: &#45;11.000000</text>
<text text-anchor="middle" x="2413.5" y="-22.8" font-family="Times,serif" font-size="14.00">log lambda1: &#45;11.000000 &#160;&#160;log lambda2: &#45;11.000000</text>
<text text-anchor="middle" x="2413.5" y="-7.8" font-family="Times,serif" font-size="14.00">n kernels: 64</text>
</g>
<!-- 11&#45;&gt;25 -->
<g id="edge25" class="edge"><title>11&#45;&gt;25</title>
<path fill="none" stroke="black" d="M2424.72,-163.923C2423.3,-149.486 2421.22,-128.413 2419.24,-108.306"/>
<polygon fill="black" stroke="black" points="2422.71,-107.842 2418.25,-98.2336 2415.75,-108.529 2422.71,-107.842"/>
</g>
<!-- 26 -->
<g id="node27" class="node"><title>26</title>
<path fill="#e9d3ff" stroke="black" d="M2877,-98C2877,-98 2596,-98 2596,-98 2590,-98 2584,-92 2584,-86 2584,-86 2584,-12 2584,-12 2584,-6 2590,-0 2596,-0 2596,-0 2877,-0 2877,-0 2883,-0 2889,-6 2889,-12 2889,-12 2889,-86 2889,-86 2889,-92 2883,-98 2877,-98"/>
<text text-anchor="middle" x="2736.5" y="-82.8" font-family="Times,serif" font-size="14.00">forward</text>
<text text-anchor="middle" x="2736.5" y="-67.8" font-family="Times,serif" font-size="14.00">CB1/C2</text>
<text text-anchor="middle" x="2736.5" y="-52.8" font-family="Times,serif" font-size="14.00">dilation rate: 1 &#160;&#160;k width: 3</text>
<text text-anchor="middle" x="2736.5" y="-37.8" font-family="Times,serif" font-size="14.00">log gamma1: &#45;11.000000 &#160;&#160;log gamma2: &#45;11.000000</text>
<text text-anchor="middle" x="2736.5" y="-22.8" font-family="Times,serif" font-size="14.00">log lambda1: &#45;11.000000 &#160;&#160;log lambda2: &#45;11.000000</text>
<text text-anchor="middle" x="2736.5" y="-7.8" font-family="Times,serif" font-size="14.00">n kernels: 64</text>
</g>
<!-- 12&#45;&gt;26 -->
<g id="edge26" class="edge"><title>12&#45;&gt;26</title>
<path fill="none" stroke="black" d="M2724.42,-163.923C2725.95,-149.486 2728.18,-128.413 2730.32,-108.306"/>
<polygon fill="black" stroke="black" points="2733.81,-108.547 2731.38,-98.2336 2726.85,-107.809 2733.81,-108.547"/>
</g>
<!-- 27 -->
<g id="node28" class="node"><title>27</title>
<path fill="#e9d3ff" stroke="black" d="M3200,-98C3200,-98 2919,-98 2919,-98 2913,-98 2907,-92 2907,-86 2907,-86 2907,-12 2907,-12 2907,-6 2913,-0 2919,-0 2919,-0 3200,-0 3200,-0 3206,-0 3212,-6 3212,-12 3212,-12 3212,-86 3212,-86 3212,-92 3206,-98 3200,-98"/>
<text text-anchor="middle" x="3059.5" y="-82.8" font-family="Times,serif" font-size="14.00">forward</text>
<text text-anchor="middle" x="3059.5" y="-67.8" font-family="Times,serif" font-size="14.00">CB1/C3</text>
<text text-anchor="middle" x="3059.5" y="-52.8" font-family="Times,serif" font-size="14.00">dilation rate: 1 &#160;&#160;k width: 3</text>
<text text-anchor="middle" x="3059.5" y="-37.8" font-family="Times,serif" font-size="14.00">log gamma1: &#45;11.000000 &#160;&#160;log gamma2: &#45;11.000000</text>
<text text-anchor="middle" x="3059.5" y="-22.8" font-family="Times,serif" font-size="14.00">log lambda1: &#45;11.000000 &#160;&#160;log lambda2: &#45;11.000000</text>
<text text-anchor="middle" x="3059.5" y="-7.8" font-family="Times,serif" font-size="14.00">n kernels: 64</text>
</g>
<!-- 13&#45;&gt;27 -->
<g id="edge27" class="edge"><title>13&#45;&gt;27</title>
<path fill="none" stroke="black" d="M2975.78,-163.923C2986.73,-149.025 3002.87,-127.059 3018.07,-106.381"/>
<polygon fill="black" stroke="black" points="3020.95,-108.364 3024.06,-98.2336 3015.31,-104.219 3020.95,-108.364"/>
</g>
<!-- 28 -->
<g id="node29" class="node"><title>28</title>
<path fill="#e9d3ff" stroke="black" d="M3523,-98C3523,-98 3242,-98 3242,-98 3236,-98 3230,-92 3230,-86 3230,-86 3230,-12 3230,-12 3230,-6 3236,-0 3242,-0 3242,-0 3523,-0 3523,-0 3529,-0 3535,-6 3535,-12 3535,-12 3535,-86 3535,-86 3535,-92 3529,-98 3523,-98"/>
<text text-anchor="middle" x="3382.5" y="-82.8" font-family="Times,serif" font-size="14.00">forward</text>
<text text-anchor="middle" x="3382.5" y="-67.8" font-family="Times,serif" font-size="14.00">CB1/C4</text>
<text text-anchor="middle" x="3382.5" y="-52.8" font-family="Times,serif" font-size="14.00">dilation rate: 1 &#160;&#160;k width: 3</text>
<text text-anchor="middle" x="3382.5" y="-37.8" font-family="Times,serif" font-size="14.00">log gamma1: &#45;11.000000 &#160;&#160;log gamma2: &#45;11.000000</text>
<text text-anchor="middle" x="3382.5" y="-22.8" font-family="Times,serif" font-size="14.00">log lambda1: &#45;11.000000 &#160;&#160;log lambda2: &#45;11.000000</text>
<text text-anchor="middle" x="3382.5" y="-7.8" font-family="Times,serif" font-size="14.00">n kernels: 64</text>
</g>
<!-- 14&#45;&gt;28 -->
<g id="edge28" class="edge"><title>14&#45;&gt;28</title>
<path fill="none" stroke="black" d="M3194.35,-163.923C3220.05,-148.366 3258.47,-125.101 3293.91,-103.644"/>
<polygon fill="black" stroke="black" points="3296.1,-106.407 3302.84,-98.2336 3292.47,-100.419 3296.1,-106.407"/>
</g>
<!-- 29 -->
<g id="node30" class="node"><title>29</title>
<path fill="#e9d3ff" stroke="black" d="M3846,-98C3846,-98 3565,-98 3565,-98 3559,-98 3553,-92 3553,-86 3553,-86 3553,-12 3553,-12 3553,-6 3559,-0 3565,-0 3565,-0 3846,-0 3846,-0 3852,-0 3858,-6 3858,-12 3858,-12 3858,-86 3858,-86 3858,-92 3852,-98 3846,-98"/>
<text text-anchor="middle" x="3705.5" y="-82.8" font-family="Times,serif" font-size="14.00">forward</text>
<text text-anchor="middle" x="3705.5" y="-67.8" font-family="Times,serif" font-size="14.00">CB1/C5</text>
<text text-anchor="middle" x="3705.5" y="-52.8" font-family="Times,serif" font-size="14.00">dilation rate: 1 &#160;&#160;k width: 3</text>
<text text-anchor="middle" x="3705.5" y="-37.8" font-family="Times,serif" font-size="14.00">log gamma1: &#45;11.000000 &#160;&#160;log gamma2: &#45;11.000000</text>
<text text-anchor="middle" x="3705.5" y="-22.8" font-family="Times,serif" font-size="14.00">log lambda1: &#45;11.000000 &#160;&#160;log lambda2: &#45;11.000000</text>
<text text-anchor="middle" x="3705.5" y="-7.8" font-family="Times,serif" font-size="14.00">n kernels: 64</text>
</g>
<!-- 15&#45;&gt;29 -->
<g id="edge29" class="edge"><title>15&#45;&gt;29</title>
<path fill="none" stroke="black" d="M3362.86,-163.936C3379.61,-154.159 3401.25,-142.4 3421.5,-134 3470.97,-113.484 3487.54,-113.917 3543.2,-98.0378"/>
<polygon fill="black" stroke="black" points="3544.25,-101.379 3552.87,-95.2277 3542.29,-94.657 3544.25,-101.379"/>
</g>
</g>
</svg>
