<?xml version="1.0" encoding="UTF-8" standalone="no"?>
<!DOCTYPE svg PUBLIC "-//W3C//DTD SVG 1.1//EN"
 "http://www.w3.org/Graphics/SVG/1.1/DTD/svg11.dtd">
<!-- Generated by graphviz version 2.38.0 (20140413.2041)
 -->
<!-- Title: %3 Pages: 1 -->
<svg width="2485pt" height="387pt"
 viewBox="0.00 0.00 2485.00 387.00" xmlns="http://www.w3.org/2000/svg" xmlns:xlink="http://www.w3.org/1999/xlink">
<g id="graph0" class="graph" transform="scale(1 1) rotate(0) translate(4 383)">
<title>%3</title>
<polygon fill="none" stroke="none" points="-4,4 -4,-383 2481,-383 2481,4 -4,4"/>
<!-- 0 -->
<g id="node1" class="node"><title>0</title>
<path fill="#ffd3d3" stroke="black" d="M1332,-379C1332,-379 1262,-379 1262,-379 1256,-379 1250,-373 1250,-367 1250,-367 1250,-353 1250,-353 1250,-347 1256,-341 1262,-341 1262,-341 1332,-341 1332,-341 1338,-341 1344,-347 1344,-353 1344,-353 1344,-367 1344,-367 1344,-373 1338,-379 1332,-379"/>
<text text-anchor="middle" x="1297" y="-363.8" font-family="Times,serif" font-size="14.00">net</text>
<text text-anchor="middle" x="1297" y="-348.8" font-family="Times,serif" font-size="14.00">n kernels: 113</text>
</g>
<!-- 1 -->
<g id="node2" class="node"><title>1</title>
<path fill="#f6ffd3" stroke="black" d="M1039.5,-297.5C1039.5,-297.5 978.5,-297.5 978.5,-297.5 972.5,-297.5 966.5,-291.5 966.5,-285.5 966.5,-285.5 966.5,-271.5 966.5,-271.5 966.5,-265.5 972.5,-259.5 978.5,-259.5 978.5,-259.5 1039.5,-259.5 1039.5,-259.5 1045.5,-259.5 1051.5,-265.5 1051.5,-271.5 1051.5,-271.5 1051.5,-285.5 1051.5,-285.5 1051.5,-291.5 1045.5,-297.5 1039.5,-297.5"/>
<text text-anchor="middle" x="1009" y="-282.3" font-family="Times,serif" font-size="14.00">encoder</text>
<text text-anchor="middle" x="1009" y="-267.3" font-family="Times,serif" font-size="14.00">n kernels: &#45;6</text>
</g>
<!-- 0&#45;&gt;1 -->
<g id="edge1" class="edge"><title>0&#45;&gt;1</title>
<path fill="none" stroke="black" d="M1249.77,-345.961C1197.94,-331.654 1114.98,-308.755 1061.24,-293.921"/>
<polygon fill="black" stroke="black" points="1062.13,-290.536 1051.56,-291.249 1060.27,-297.284 1062.13,-290.536"/>
</g>
<!-- 2 -->
<g id="node3" class="node"><title>2</title>
<path fill="#f6ffd3" stroke="black" d="M1685,-305C1685,-305 1485,-305 1485,-305 1479,-305 1473,-299 1473,-293 1473,-293 1473,-264 1473,-264 1473,-258 1479,-252 1485,-252 1485,-252 1685,-252 1685,-252 1691,-252 1697,-258 1697,-264 1697,-264 1697,-293 1697,-293 1697,-299 1691,-305 1685,-305"/>
<text text-anchor="middle" x="1585" y="-289.8" font-family="Times,serif" font-size="14.00">decoder</text>
<text text-anchor="middle" x="1585" y="-274.8" font-family="Times,serif" font-size="14.00">log gamma2: &#45;0.267407 &#160;&#160;n kernels: 2</text>
<text text-anchor="middle" x="1585" y="-259.8" font-family="Times,serif" font-size="14.00">pooling type: &#45;1</text>
</g>
<!-- 0&#45;&gt;2 -->
<g id="edge2" class="edge"><title>0&#45;&gt;2</title>
<path fill="none" stroke="black" d="M1344.23,-345.961C1381.78,-335.597 1435.67,-320.722 1482.94,-307.672"/>
<polygon fill="black" stroke="black" points="1483.9,-311.038 1492.61,-305.003 1482.04,-304.29 1483.9,-311.038"/>
</g>
<!-- 3 -->
<g id="node4" class="node"><title>3</title>
<path fill="#d3ffe4" stroke="black" d="M564.5,-216C564.5,-216 305.5,-216 305.5,-216 299.5,-216 293.5,-210 293.5,-204 293.5,-204 293.5,-175 293.5,-175 293.5,-169 299.5,-163 305.5,-163 305.5,-163 564.5,-163 564.5,-163 570.5,-163 576.5,-169 576.5,-175 576.5,-175 576.5,-204 576.5,-204 576.5,-210 570.5,-216 564.5,-216"/>
<text text-anchor="middle" x="435" y="-200.8" font-family="Times,serif" font-size="14.00">encode block 0</text>
<text text-anchor="middle" x="435" y="-185.8" font-family="Times,serif" font-size="14.00">log gamma1: 0.304374 &#160;&#160;log gamma2: 0.257512</text>
<text text-anchor="middle" x="435" y="-170.8" font-family="Times,serif" font-size="14.00">n kernels: 10 &#160;&#160;pooling type: &#45;1</text>
</g>
<!-- 1&#45;&gt;3 -->
<g id="edge3" class="edge"><title>1&#45;&gt;3</title>
<path fill="none" stroke="black" d="M966.326,-271.032C887.147,-259.031 713.99,-232.786 586.778,-213.505"/>
<polygon fill="black" stroke="black" points="586.958,-209.992 576.547,-211.954 585.909,-216.913 586.958,-209.992"/>
</g>
<!-- 4 -->
<g id="node5" class="node"><title>4</title>
<path fill="#bfe6cf" stroke="black" d="M1138.5,-216C1138.5,-216 879.5,-216 879.5,-216 873.5,-216 867.5,-210 867.5,-204 867.5,-204 867.5,-175 867.5,-175 867.5,-169 873.5,-163 879.5,-163 879.5,-163 1138.5,-163 1138.5,-163 1144.5,-163 1150.5,-169 1150.5,-175 1150.5,-175 1150.5,-204 1150.5,-204 1150.5,-210 1144.5,-216 1138.5,-216"/>
<text text-anchor="middle" x="1009" y="-200.8" font-family="Times,serif" font-size="14.00">encode block 1</text>
<text text-anchor="middle" x="1009" y="-185.8" font-family="Times,serif" font-size="14.00">log gamma1: 0.398340 &#160;&#160;log gamma2: 0.328318</text>
<text text-anchor="middle" x="1009" y="-170.8" font-family="Times,serif" font-size="14.00">n kernels: &#45;10 &#160;&#160;spatial scale: 1</text>
</g>
<!-- 1&#45;&gt;4 -->
<g id="edge4" class="edge"><title>1&#45;&gt;4</title>
<path fill="none" stroke="black" d="M1009,-259.474C1009,-249.871 1009,-237.711 1009,-226.285"/>
<polygon fill="black" stroke="black" points="1012.5,-226.092 1009,-216.092 1005.5,-226.092 1012.5,-226.092"/>
</g>
<!-- 5 -->
<g id="node6" class="node"><title>5</title>
<path fill="#d3ffe4" stroke="black" d="M1686,-216C1686,-216 1484,-216 1484,-216 1478,-216 1472,-210 1472,-204 1472,-204 1472,-175 1472,-175 1472,-169 1478,-163 1484,-163 1484,-163 1686,-163 1686,-163 1692,-163 1698,-169 1698,-175 1698,-175 1698,-204 1698,-204 1698,-210 1692,-216 1686,-216"/>
<text text-anchor="middle" x="1585" y="-200.8" font-family="Times,serif" font-size="14.00">decode block 1</text>
<text text-anchor="middle" x="1585" y="-185.8" font-family="Times,serif" font-size="14.00">log gamma2: 0.097390 &#160;&#160;n kernels: 64</text>
<text text-anchor="middle" x="1585" y="-170.8" font-family="Times,serif" font-size="14.00">pooling type: &#45;1 &#160;&#160;spatial scale: 1</text>
</g>
<!-- 2&#45;&gt;5 -->
<g id="edge5" class="edge"><title>2&#45;&gt;5</title>
<path fill="none" stroke="black" d="M1585,-251.868C1585,-243.886 1585,-234.932 1585,-226.384"/>
<polygon fill="black" stroke="black" points="1588.5,-226.25 1585,-216.25 1581.5,-226.25 1588.5,-226.25"/>
</g>
<!-- 6 -->
<g id="node7" class="node"><title>6</title>
<path fill="#bfe6cf" stroke="black" d="M2182.5,-208.5C2182.5,-208.5 1971.5,-208.5 1971.5,-208.5 1965.5,-208.5 1959.5,-202.5 1959.5,-196.5 1959.5,-196.5 1959.5,-182.5 1959.5,-182.5 1959.5,-176.5 1965.5,-170.5 1971.5,-170.5 1971.5,-170.5 2182.5,-170.5 2182.5,-170.5 2188.5,-170.5 2194.5,-176.5 2194.5,-182.5 2194.5,-182.5 2194.5,-196.5 2194.5,-196.5 2194.5,-202.5 2188.5,-208.5 2182.5,-208.5"/>
<text text-anchor="middle" x="2077" y="-193.3" font-family="Times,serif" font-size="14.00">decode block 0</text>
<text text-anchor="middle" x="2077" y="-178.3" font-family="Times,serif" font-size="14.00">log gamma2: &#45;0.255888 &#160;&#160;n kernels: &#45;10</text>
</g>
<!-- 2&#45;&gt;6 -->
<g id="edge6" class="edge"><title>2&#45;&gt;6</title>
<path fill="none" stroke="black" d="M1697.26,-257.649C1777.36,-243.486 1884.63,-224.516 1964.73,-210.352"/>
<polygon fill="black" stroke="black" points="1965.62,-213.75 1974.86,-208.562 1964.4,-206.857 1965.62,-213.75"/>
</g>
<!-- 7 -->
<g id="node8" class="node"><title>7</title>
<path fill="#d3e4ff" stroke="black" d="M216,-119.5C216,-119.5 12,-119.5 12,-119.5 6,-119.5 0,-113.5 0,-107.5 0,-107.5 0,-93.5 0,-93.5 0,-87.5 6,-81.5 12,-81.5 12,-81.5 216,-81.5 216,-81.5 222,-81.5 228,-87.5 228,-93.5 228,-93.5 228,-107.5 228,-107.5 228,-113.5 222,-119.5 216,-119.5"/>
<text text-anchor="middle" x="114" y="-104.3" font-family="Times,serif" font-size="14.00">comp 0</text>
<text text-anchor="middle" x="114" y="-89.3" font-family="Times,serif" font-size="14.00">log gamma2: &#45;0.320754 &#160;&#160;n kernels: &#45;8</text>
</g>
<!-- 3&#45;&gt;7 -->
<g id="edge7" class="edge"><title>3&#45;&gt;7</title>
<path fill="none" stroke="black" d="M340.858,-162.985C292.945,-149.999 235.456,-134.418 190.339,-122.19"/>
<polygon fill="black" stroke="black" points="191.184,-118.793 180.616,-119.555 189.353,-125.549 191.184,-118.793"/>
</g>
<!-- 8 -->
<g id="node9" class="node"><title>8</title>
<path fill="#bfcfe6" stroke="black" d="M453.5,-119.5C453.5,-119.5 258.5,-119.5 258.5,-119.5 252.5,-119.5 246.5,-113.5 246.5,-107.5 246.5,-107.5 246.5,-93.5 246.5,-93.5 246.5,-87.5 252.5,-81.5 258.5,-81.5 258.5,-81.5 453.5,-81.5 453.5,-81.5 459.5,-81.5 465.5,-87.5 465.5,-93.5 465.5,-93.5 465.5,-107.5 465.5,-107.5 465.5,-113.5 459.5,-119.5 453.5,-119.5"/>
<text text-anchor="middle" x="356" y="-104.3" font-family="Times,serif" font-size="14.00">comp 1</text>
<text text-anchor="middle" x="356" y="-89.3" font-family="Times,serif" font-size="14.00">log gamma2: 0.357342 &#160;&#160;n kernels: 3</text>
</g>
<!-- 3&#45;&gt;8 -->
<g id="edge8" class="edge"><title>3&#45;&gt;8</title>
<path fill="none" stroke="black" d="M411.725,-162.868C401.444,-151.546 389.389,-138.27 379.126,-126.968"/>
<polygon fill="black" stroke="black" points="381.665,-124.557 372.351,-119.507 376.482,-129.263 381.665,-124.557"/>
</g>
<!-- 9 -->
<g id="node10" class="node"><title>9</title>
<path fill="#abb9ce" stroke="black" d="M530,-118.5C530,-118.5 496,-118.5 496,-118.5 490,-118.5 484,-112.5 484,-106.5 484,-106.5 484,-94.5 484,-94.5 484,-88.5 490,-82.5 496,-82.5 496,-82.5 530,-82.5 530,-82.5 536,-82.5 542,-88.5 542,-94.5 542,-94.5 542,-106.5 542,-106.5 542,-112.5 536,-118.5 530,-118.5"/>
<text text-anchor="middle" x="513" y="-96.8" font-family="Times,serif" font-size="14.00">identity</text>
</g>
<!-- 3&#45;&gt;9 -->
<g id="edge9" class="edge"><title>3&#45;&gt;9</title>
<path fill="none" stroke="black" d="M457.981,-162.868C468.35,-151.302 480.548,-137.696 490.82,-126.239"/>
<polygon fill="black" stroke="black" points="493.509,-128.484 497.578,-118.701 488.297,-123.811 493.509,-128.484"/>
</g>
<!-- 10 -->
<g id="node11" class="node"><title>10</title>
<path fill="#d3e4ff" stroke="black" d="M835.5,-127C835.5,-127 572.5,-127 572.5,-127 566.5,-127 560.5,-121 560.5,-115 560.5,-115 560.5,-86 560.5,-86 560.5,-80 566.5,-74 572.5,-74 572.5,-74 835.5,-74 835.5,-74 841.5,-74 847.5,-80 847.5,-86 847.5,-86 847.5,-115 847.5,-115 847.5,-121 841.5,-127 835.5,-127"/>
<text text-anchor="middle" x="704" y="-111.8" font-family="Times,serif" font-size="14.00">comp 0</text>
<text text-anchor="middle" x="704" y="-96.8" font-family="Times,serif" font-size="14.00">log gamma1: 0.054323 &#160;&#160;log gamma2: &#45;0.258908</text>
<text text-anchor="middle" x="704" y="-81.8" font-family="Times,serif" font-size="14.00">n kernels: &#45;9</text>
</g>
<!-- 4&#45;&gt;10 -->
<g id="edge10" class="edge"><title>4&#45;&gt;10</title>
<path fill="none" stroke="black" d="M919.551,-162.985C883.084,-152.583 840.78,-140.516 803.356,-129.841"/>
<polygon fill="black" stroke="black" points="804.024,-126.392 793.448,-127.015 802.104,-133.123 804.024,-126.392"/>
</g>
<!-- 11 -->
<g id="node12" class="node"><title>11</title>
<path fill="#bfcfe6" stroke="black" d="M1140.5,-127C1140.5,-127 877.5,-127 877.5,-127 871.5,-127 865.5,-121 865.5,-115 865.5,-115 865.5,-86 865.5,-86 865.5,-80 871.5,-74 877.5,-74 877.5,-74 1140.5,-74 1140.5,-74 1146.5,-74 1152.5,-80 1152.5,-86 1152.5,-86 1152.5,-115 1152.5,-115 1152.5,-121 1146.5,-127 1140.5,-127"/>
<text text-anchor="middle" x="1009" y="-111.8" font-family="Times,serif" font-size="14.00">comp 1</text>
<text text-anchor="middle" x="1009" y="-96.8" font-family="Times,serif" font-size="14.00">log gamma1: &#45;0.061208 &#160;&#160;log gamma2: 0.279247</text>
<text text-anchor="middle" x="1009" y="-81.8" font-family="Times,serif" font-size="14.00">n kernels: 4 &#160;&#160;pooling type: 1</text>
</g>
<!-- 4&#45;&gt;11 -->
<g id="edge11" class="edge"><title>4&#45;&gt;11</title>
<path fill="none" stroke="black" d="M1009,-162.868C1009,-154.886 1009,-145.932 1009,-137.384"/>
<polygon fill="black" stroke="black" points="1012.5,-137.25 1009,-127.25 1005.5,-137.25 1012.5,-137.25"/>
</g>
<!-- 12 -->
<g id="node13" class="node"><title>12</title>
<path fill="#abb9ce" stroke="black" d="M1217,-118.5C1217,-118.5 1183,-118.5 1183,-118.5 1177,-118.5 1171,-112.5 1171,-106.5 1171,-106.5 1171,-94.5 1171,-94.5 1171,-88.5 1177,-82.5 1183,-82.5 1183,-82.5 1217,-82.5 1217,-82.5 1223,-82.5 1229,-88.5 1229,-94.5 1229,-94.5 1229,-106.5 1229,-106.5 1229,-112.5 1223,-118.5 1217,-118.5"/>
<text text-anchor="middle" x="1200" y="-96.8" font-family="Times,serif" font-size="14.00">identity</text>
</g>
<!-- 4&#45;&gt;12 -->
<g id="edge12" class="edge"><title>4&#45;&gt;12</title>
<path fill="none" stroke="black" d="M1080.29,-162.966C1106.2,-152.828 1135.39,-140.388 1161,-127 1162.77,-126.072 1164.57,-125.086 1166.37,-124.06"/>
<polygon fill="black" stroke="black" points="1168.5,-126.86 1175.26,-118.701 1164.89,-120.865 1168.5,-126.86"/>
</g>
<!-- 13 -->
<g id="node14" class="node"><title>13</title>
<path fill="#d3e4ff" stroke="black" d="M1409,-119.5C1409,-119.5 1259,-119.5 1259,-119.5 1253,-119.5 1247,-113.5 1247,-107.5 1247,-107.5 1247,-93.5 1247,-93.5 1247,-87.5 1253,-81.5 1259,-81.5 1259,-81.5 1409,-81.5 1409,-81.5 1415,-81.5 1421,-87.5 1421,-93.5 1421,-93.5 1421,-107.5 1421,-107.5 1421,-113.5 1415,-119.5 1409,-119.5"/>
<text text-anchor="middle" x="1334" y="-104.3" font-family="Times,serif" font-size="14.00">comp 0</text>
<text text-anchor="middle" x="1334" y="-89.3" font-family="Times,serif" font-size="14.00">n kernels: 1 &#160;&#160;pooling type: 1</text>
</g>
<!-- 5&#45;&gt;13 -->
<g id="edge13" class="edge"><title>5&#45;&gt;13</title>
<path fill="none" stroke="black" d="M1511.39,-162.985C1474.63,-150.244 1430.66,-135.005 1395.7,-122.886"/>
<polygon fill="black" stroke="black" points="1396.68,-119.523 1386.09,-119.555 1394.39,-126.137 1396.68,-119.523"/>
</g>
<!-- 14 -->
<g id="node15" class="node"><title>14</title>
<path fill="#bfcfe6" stroke="black" d="M1719,-127C1719,-127 1451,-127 1451,-127 1445,-127 1439,-121 1439,-115 1439,-115 1439,-86 1439,-86 1439,-80 1445,-74 1451,-74 1451,-74 1719,-74 1719,-74 1725,-74 1731,-80 1731,-86 1731,-86 1731,-115 1731,-115 1731,-121 1725,-127 1719,-127"/>
<text text-anchor="middle" x="1585" y="-111.8" font-family="Times,serif" font-size="14.00">comp 1</text>
<text text-anchor="middle" x="1585" y="-96.8" font-family="Times,serif" font-size="14.00">log gamma1: &#45;0.020994 &#160;&#160;log gamma2: &#45;0.136691</text>
<text text-anchor="middle" x="1585" y="-81.8" font-family="Times,serif" font-size="14.00">n kernels: &#45;4 &#160;&#160;pooling type: &#45;1</text>
</g>
<!-- 5&#45;&gt;14 -->
<g id="edge14" class="edge"><title>5&#45;&gt;14</title>
<path fill="none" stroke="black" d="M1585,-162.868C1585,-154.886 1585,-145.932 1585,-137.384"/>
<polygon fill="black" stroke="black" points="1588.5,-137.25 1585,-127.25 1581.5,-137.25 1588.5,-137.25"/>
</g>
<!-- 15 -->
<g id="node16" class="node"><title>15</title>
<path fill="#abb9ce" stroke="black" d="M1795,-118.5C1795,-118.5 1761,-118.5 1761,-118.5 1755,-118.5 1749,-112.5 1749,-106.5 1749,-106.5 1749,-94.5 1749,-94.5 1749,-88.5 1755,-82.5 1761,-82.5 1761,-82.5 1795,-82.5 1795,-82.5 1801,-82.5 1807,-88.5 1807,-94.5 1807,-94.5 1807,-106.5 1807,-106.5 1807,-112.5 1801,-118.5 1795,-118.5"/>
<text text-anchor="middle" x="1778" y="-96.8" font-family="Times,serif" font-size="14.00">identity</text>
</g>
<!-- 5&#45;&gt;15 -->
<g id="edge15" class="edge"><title>5&#45;&gt;15</title>
<path fill="none" stroke="black" d="M1658.59,-162.989C1684.83,-152.937 1714.25,-140.548 1740,-127 1741.74,-126.084 1743.5,-125.107 1745.26,-124.09"/>
<polygon fill="black" stroke="black" points="1747.25,-126.97 1753.94,-118.754 1743.59,-121.005 1747.25,-126.97"/>
</g>
<!-- 16 -->
<g id="node17" class="node"><title>16</title>
<path fill="#d3e4ff" stroke="black" d="M2041,-119.5C2041,-119.5 1837,-119.5 1837,-119.5 1831,-119.5 1825,-113.5 1825,-107.5 1825,-107.5 1825,-93.5 1825,-93.5 1825,-87.5 1831,-81.5 1837,-81.5 1837,-81.5 2041,-81.5 2041,-81.5 2047,-81.5 2053,-87.5 2053,-93.5 2053,-93.5 2053,-107.5 2053,-107.5 2053,-113.5 2047,-119.5 2041,-119.5"/>
<text text-anchor="middle" x="1939" y="-104.3" font-family="Times,serif" font-size="14.00">comp 0</text>
<text text-anchor="middle" x="1939" y="-89.3" font-family="Times,serif" font-size="14.00">log gamma2: &#45;0.169789 &#160;&#160;n kernels: &#45;7</text>
</g>
<!-- 6&#45;&gt;16 -->
<g id="edge16" class="edge"><title>6&#45;&gt;16</title>
<path fill="none" stroke="black" d="M2048.41,-170.474C2027.5,-157.292 1998.95,-139.292 1976.25,-124.985"/>
<polygon fill="black" stroke="black" points="1977.88,-121.876 1967.56,-119.503 1974.15,-127.797 1977.88,-121.876"/>
</g>
<!-- 17 -->
<g id="node18" class="node"><title>17</title>
<path fill="#bfcfe6" stroke="black" d="M2346.5,-127C2346.5,-127 2083.5,-127 2083.5,-127 2077.5,-127 2071.5,-121 2071.5,-115 2071.5,-115 2071.5,-86 2071.5,-86 2071.5,-80 2077.5,-74 2083.5,-74 2083.5,-74 2346.5,-74 2346.5,-74 2352.5,-74 2358.5,-80 2358.5,-86 2358.5,-86 2358.5,-115 2358.5,-115 2358.5,-121 2352.5,-127 2346.5,-127"/>
<text text-anchor="middle" x="2215" y="-111.8" font-family="Times,serif" font-size="14.00">comp 1</text>
<text text-anchor="middle" x="2215" y="-96.8" font-family="Times,serif" font-size="14.00">log gamma1: 0.011833 &#160;&#160;log gamma2: &#45;0.389522</text>
<text text-anchor="middle" x="2215" y="-81.8" font-family="Times,serif" font-size="14.00">pooling type: 1</text>
</g>
<!-- 6&#45;&gt;17 -->
<g id="edge17" class="edge"><title>6&#45;&gt;17</title>
<path fill="none" stroke="black" d="M2105.59,-170.474C2123,-159.499 2145.71,-145.185 2165.92,-132.442"/>
<polygon fill="black" stroke="black" points="2167.81,-135.386 2174.41,-127.092 2164.08,-129.464 2167.81,-135.386"/>
</g>
<!-- 18 -->
<g id="node19" class="node"><title>18</title>
<path fill="#abb9ce" stroke="black" d="M2423,-118.5C2423,-118.5 2389,-118.5 2389,-118.5 2383,-118.5 2377,-112.5 2377,-106.5 2377,-106.5 2377,-94.5 2377,-94.5 2377,-88.5 2383,-82.5 2389,-82.5 2389,-82.5 2423,-82.5 2423,-82.5 2429,-82.5 2435,-88.5 2435,-94.5 2435,-94.5 2435,-106.5 2435,-106.5 2435,-112.5 2429,-118.5 2423,-118.5"/>
<text text-anchor="middle" x="2406" y="-96.8" font-family="Times,serif" font-size="14.00">identity</text>
</g>
<!-- 6&#45;&gt;18 -->
<g id="edge18" class="edge"><title>6&#45;&gt;18</title>
<path fill="none" stroke="black" d="M2194.63,-173.7C2248.56,-164.377 2312.47,-149.673 2367,-127 2369.35,-126.022 2371.72,-124.898 2374.05,-123.68"/>
<polygon fill="black" stroke="black" points="2375.93,-126.638 2382.85,-118.618 2372.44,-120.57 2375.93,-126.638"/>
</g>
<!-- 19 -->
<g id="node20" class="node"><title>19</title>
<path fill="#f6d3ff" stroke="black" d="M131.5,-38C131.5,-38 96.5,-38 96.5,-38 90.5,-38 84.5,-32 84.5,-26 84.5,-26 84.5,-12 84.5,-12 84.5,-6 90.5,-0 96.5,-0 96.5,-0 131.5,-0 131.5,-0 137.5,-0 143.5,-6 143.5,-12 143.5,-12 143.5,-26 143.5,-26 143.5,-32 137.5,-38 131.5,-38"/>
<text text-anchor="middle" x="114" y="-22.8" font-family="Times,serif" font-size="14.00">forward</text>
<text text-anchor="middle" x="114" y="-7.8" font-family="Times,serif" font-size="14.00">input</text>
</g>
<!-- 7&#45;&gt;19 -->
<g id="edge19" class="edge"><title>7&#45;&gt;19</title>
<path fill="none" stroke="black" d="M114,-81.4602C114,-71.67 114,-59.3453 114,-48.3073"/>
<polygon fill="black" stroke="black" points="117.5,-48.2435 114,-38.2436 110.5,-48.2436 117.5,-48.2435"/>
</g>
<!-- 20 -->
<g id="node21" class="node"><title>20</title>
<path fill="#f6d3ff" stroke="black" d="M374,-38C374,-38 338,-38 338,-38 332,-38 326,-32 326,-26 326,-26 326,-12 326,-12 326,-6 332,-0 338,-0 338,-0 374,-0 374,-0 380,-0 386,-6 386,-12 386,-12 386,-26 386,-26 386,-32 380,-38 374,-38"/>
<text text-anchor="middle" x="356" y="-22.8" font-family="Times,serif" font-size="14.00">forward</text>
<text text-anchor="middle" x="356" y="-7.8" font-family="Times,serif" font-size="14.00">EB0/C0</text>
</g>
<!-- 8&#45;&gt;20 -->
<g id="edge20" class="edge"><title>8&#45;&gt;20</title>
<path fill="none" stroke="black" d="M356,-81.4602C356,-71.67 356,-59.3453 356,-48.3073"/>
<polygon fill="black" stroke="black" points="359.5,-48.2435 356,-38.2436 352.5,-48.2436 359.5,-48.2435"/>
</g>
<!-- 21 -->
<g id="node22" class="node"><title>21</title>
<path fill="#f6d3ff" stroke="black" d="M492,-38C492,-38 456,-38 456,-38 450,-38 444,-32 444,-26 444,-26 444,-12 444,-12 444,-6 450,-0 456,-0 456,-0 492,-0 492,-0 498,-0 504,-6 504,-12 504,-12 504,-26 504,-26 504,-32 498,-38 492,-38"/>
<text text-anchor="middle" x="474" y="-22.8" font-family="Times,serif" font-size="14.00">residual</text>
<text text-anchor="middle" x="474" y="-7.8" font-family="Times,serif" font-size="14.00">EB0/C0</text>
</g>
<!-- 9&#45;&gt;21 -->
<g id="edge21" class="edge"><title>9&#45;&gt;21</title>
<path fill="none" stroke="black" d="M504.538,-82.2497C499.532,-72.0459 493.079,-58.8928 487.396,-47.3078"/>
<polygon fill="black" stroke="black" points="490.399,-45.4808 482.852,-38.0444 484.114,-48.5639 490.399,-45.4808"/>
</g>
<!-- 22 -->
<g id="node23" class="node"><title>22</title>
<path fill="#debfe6" stroke="black" d="M570,-38C570,-38 534,-38 534,-38 528,-38 522,-32 522,-26 522,-26 522,-12 522,-12 522,-6 528,-0 534,-0 534,-0 570,-0 570,-0 576,-0 582,-6 582,-12 582,-12 582,-26 582,-26 582,-32 576,-38 570,-38"/>
<text text-anchor="middle" x="552" y="-22.8" font-family="Times,serif" font-size="14.00">forward</text>
<text text-anchor="middle" x="552" y="-7.8" font-family="Times,serif" font-size="14.00">EB0/C1</text>
</g>
<!-- 9&#45;&gt;22 -->
<g id="edge22" class="edge"><title>9&#45;&gt;22</title>
<path fill="none" stroke="black" d="M521.462,-82.2497C526.468,-72.0459 532.921,-58.8928 538.604,-47.3078"/>
<polygon fill="black" stroke="black" points="541.886,-48.5639 543.148,-38.0444 535.601,-45.4808 541.886,-48.5639"/>
</g>
<!-- 23 -->
<g id="node24" class="node"><title>23</title>
<path fill="#f6d3ff" stroke="black" d="M721.5,-38C721.5,-38 686.5,-38 686.5,-38 680.5,-38 674.5,-32 674.5,-26 674.5,-26 674.5,-12 674.5,-12 674.5,-6 680.5,-0 686.5,-0 686.5,-0 721.5,-0 721.5,-0 727.5,-0 733.5,-6 733.5,-12 733.5,-12 733.5,-26 733.5,-26 733.5,-32 727.5,-38 721.5,-38"/>
<text text-anchor="middle" x="704" y="-22.8" font-family="Times,serif" font-size="14.00">forward</text>
<text text-anchor="middle" x="704" y="-7.8" font-family="Times,serif" font-size="14.00">EB0/I</text>
</g>
<!-- 10&#45;&gt;23 -->
<g id="edge23" class="edge"><title>10&#45;&gt;23</title>
<path fill="none" stroke="black" d="M704,-73.9081C704,-65.7377 704,-56.6492 704,-48.2981"/>
<polygon fill="black" stroke="black" points="707.5,-48.2389 704,-38.2389 700.5,-48.2389 707.5,-48.2389"/>
</g>
<!-- 24 -->
<g id="node25" class="node"><title>24</title>
<path fill="#f6d3ff" stroke="black" d="M1027,-38C1027,-38 991,-38 991,-38 985,-38 979,-32 979,-26 979,-26 979,-12 979,-12 979,-6 985,-0 991,-0 991,-0 1027,-0 1027,-0 1033,-0 1039,-6 1039,-12 1039,-12 1039,-26 1039,-26 1039,-32 1033,-38 1027,-38"/>
<text text-anchor="middle" x="1009" y="-22.8" font-family="Times,serif" font-size="14.00">forward</text>
<text text-anchor="middle" x="1009" y="-7.8" font-family="Times,serif" font-size="14.00">EB1/C0</text>
</g>
<!-- 11&#45;&gt;24 -->
<g id="edge24" class="edge"><title>11&#45;&gt;24</title>
<path fill="none" stroke="black" d="M1009,-73.9081C1009,-65.7377 1009,-56.6492 1009,-48.2981"/>
<polygon fill="black" stroke="black" points="1012.5,-48.2389 1009,-38.2389 1005.5,-48.2389 1012.5,-48.2389"/>
</g>
<!-- 25 -->
<g id="node26" class="node"><title>25</title>
<path fill="#f6d3ff" stroke="black" d="M1154,-38C1154,-38 1118,-38 1118,-38 1112,-38 1106,-32 1106,-26 1106,-26 1106,-12 1106,-12 1106,-6 1112,-0 1118,-0 1118,-0 1154,-0 1154,-0 1160,-0 1166,-6 1166,-12 1166,-12 1166,-26 1166,-26 1166,-32 1160,-38 1154,-38"/>
<text text-anchor="middle" x="1136" y="-22.8" font-family="Times,serif" font-size="14.00">residual</text>
<text text-anchor="middle" x="1136" y="-7.8" font-family="Times,serif" font-size="14.00">EB1/C0</text>
</g>
<!-- 12&#45;&gt;25 -->
<g id="edge25" class="edge"><title>12&#45;&gt;25</title>
<path fill="none" stroke="black" d="M1186.11,-82.2497C1177.57,-71.6378 1166.46,-57.8359 1156.87,-45.9255"/>
<polygon fill="black" stroke="black" points="1159.52,-43.6392 1150.53,-38.0444 1154.07,-48.0288 1159.52,-43.6392"/>
</g>
<!-- 26 -->
<g id="node27" class="node"><title>26</title>
<path fill="#debfe6" stroke="black" d="M1232,-38C1232,-38 1196,-38 1196,-38 1190,-38 1184,-32 1184,-26 1184,-26 1184,-12 1184,-12 1184,-6 1190,-0 1196,-0 1196,-0 1232,-0 1232,-0 1238,-0 1244,-6 1244,-12 1244,-12 1244,-26 1244,-26 1244,-32 1238,-38 1232,-38"/>
<text text-anchor="middle" x="1214" y="-22.8" font-family="Times,serif" font-size="14.00">forward</text>
<text text-anchor="middle" x="1214" y="-7.8" font-family="Times,serif" font-size="14.00">EB1/C1</text>
</g>
<!-- 12&#45;&gt;26 -->
<g id="edge26" class="edge"><title>12&#45;&gt;26</title>
<path fill="none" stroke="black" d="M1203.04,-82.2497C1204.8,-72.25 1207.06,-59.4178 1209.07,-48.0048"/>
<polygon fill="black" stroke="black" points="1212.53,-48.4999 1210.82,-38.0444 1205.64,-47.2859 1212.53,-48.4999"/>
</g>
<!-- 27 -->
<g id="node28" class="node"><title>27</title>
<path fill="#f6d3ff" stroke="black" d="M1337.5,-38C1337.5,-38 1302.5,-38 1302.5,-38 1296.5,-38 1290.5,-32 1290.5,-26 1290.5,-26 1290.5,-12 1290.5,-12 1290.5,-6 1296.5,-0 1302.5,-0 1302.5,-0 1337.5,-0 1337.5,-0 1343.5,-0 1349.5,-6 1349.5,-12 1349.5,-12 1349.5,-26 1349.5,-26 1349.5,-32 1343.5,-38 1337.5,-38"/>
<text text-anchor="middle" x="1320" y="-22.8" font-family="Times,serif" font-size="14.00">forward</text>
<text text-anchor="middle" x="1320" y="-7.8" font-family="Times,serif" font-size="14.00">EB1/I</text>
</g>
<!-- 13&#45;&gt;27 -->
<g id="edge27" class="edge"><title>13&#45;&gt;27</title>
<path fill="none" stroke="black" d="M1330.82,-81.4602C1329.1,-71.67 1326.93,-59.3453 1324.98,-48.3073"/>
<polygon fill="black" stroke="black" points="1328.39,-47.485 1323.21,-38.2436 1321.5,-48.6991 1328.39,-47.485"/>
</g>
<!-- 28 -->
<g id="node29" class="node"><title>28</title>
<path fill="#debfe6" stroke="black" d="M1410,-38C1410,-38 1380,-38 1380,-38 1374,-38 1368,-32 1368,-26 1368,-26 1368,-12 1368,-12 1368,-6 1374,-0 1380,-0 1380,-0 1410,-0 1410,-0 1416,-0 1422,-6 1422,-12 1422,-12 1422,-26 1422,-26 1422,-32 1416,-38 1410,-38"/>
<text text-anchor="middle" x="1395" y="-22.8" font-family="Times,serif" font-size="14.00">merge</text>
<text text-anchor="middle" x="1395" y="-7.8" font-family="Times,serif" font-size="14.00">EB1/I</text>
</g>
<!-- 13&#45;&gt;28 -->
<g id="edge28" class="edge"><title>13&#45;&gt;28</title>
<path fill="none" stroke="black" d="M1347.84,-81.4602C1355.82,-71.0644 1365.99,-57.8108 1374.84,-46.2747"/>
<polygon fill="black" stroke="black" points="1377.69,-48.3079 1381,-38.2436 1372.14,-44.0466 1377.69,-48.3079"/>
</g>
<!-- 29 -->
<g id="node30" class="node"><title>29</title>
<path fill="#f6d3ff" stroke="black" d="M1604,-38C1604,-38 1566,-38 1566,-38 1560,-38 1554,-32 1554,-26 1554,-26 1554,-12 1554,-12 1554,-6 1560,-0 1566,-0 1566,-0 1604,-0 1604,-0 1610,-0 1616,-6 1616,-12 1616,-12 1616,-26 1616,-26 1616,-32 1610,-38 1604,-38"/>
<text text-anchor="middle" x="1585" y="-22.8" font-family="Times,serif" font-size="14.00">forward</text>
<text text-anchor="middle" x="1585" y="-7.8" font-family="Times,serif" font-size="14.00">DB1/C0</text>
</g>
<!-- 14&#45;&gt;29 -->
<g id="edge29" class="edge"><title>14&#45;&gt;29</title>
<path fill="none" stroke="black" d="M1585,-73.9081C1585,-65.7377 1585,-56.6492 1585,-48.2981"/>
<polygon fill="black" stroke="black" points="1588.5,-48.2389 1585,-38.2389 1581.5,-48.2389 1588.5,-48.2389"/>
</g>
<!-- 30 -->
<g id="node31" class="node"><title>30</title>
<path fill="#f6d3ff" stroke="black" d="M1720,-38C1720,-38 1682,-38 1682,-38 1676,-38 1670,-32 1670,-26 1670,-26 1670,-12 1670,-12 1670,-6 1676,-0 1682,-0 1682,-0 1720,-0 1720,-0 1726,-0 1732,-6 1732,-12 1732,-12 1732,-26 1732,-26 1732,-32 1726,-38 1720,-38"/>
<text text-anchor="middle" x="1701" y="-22.8" font-family="Times,serif" font-size="14.00">residual</text>
<text text-anchor="middle" x="1701" y="-7.8" font-family="Times,serif" font-size="14.00">DB1/C0</text>
</g>
<!-- 15&#45;&gt;30 -->
<g id="edge30" class="edge"><title>15&#45;&gt;30</title>
<path fill="none" stroke="black" d="M1761.29,-82.2497C1750.82,-71.4337 1737.13,-57.3038 1725.45,-45.2405"/>
<polygon fill="black" stroke="black" points="1727.95,-42.7925 1718.48,-38.0444 1722.92,-47.6626 1727.95,-42.7925"/>
</g>
<!-- 31 -->
<g id="node32" class="node"><title>31</title>
<path fill="#debfe6" stroke="black" d="M1800,-38C1800,-38 1762,-38 1762,-38 1756,-38 1750,-32 1750,-26 1750,-26 1750,-12 1750,-12 1750,-6 1756,-0 1762,-0 1762,-0 1800,-0 1800,-0 1806,-0 1812,-6 1812,-12 1812,-12 1812,-26 1812,-26 1812,-32 1806,-38 1800,-38"/>
<text text-anchor="middle" x="1781" y="-22.8" font-family="Times,serif" font-size="14.00">forward</text>
<text text-anchor="middle" x="1781" y="-7.8" font-family="Times,serif" font-size="14.00">DB1/C1</text>
</g>
<!-- 15&#45;&gt;31 -->
<g id="edge31" class="edge"><title>15&#45;&gt;31</title>
<path fill="none" stroke="black" d="M1778.65,-82.2497C1779.02,-72.352 1779.5,-59.6794 1779.93,-48.3546"/>
<polygon fill="black" stroke="black" points="1783.44,-48.1693 1780.32,-38.0444 1776.44,-47.9053 1783.44,-48.1693"/>
</g>
<!-- 32 -->
<g id="node33" class="node"><title>32</title>
<path fill="#f6d3ff" stroke="black" d="M1918.5,-38C1918.5,-38 1883.5,-38 1883.5,-38 1877.5,-38 1871.5,-32 1871.5,-26 1871.5,-26 1871.5,-12 1871.5,-12 1871.5,-6 1877.5,-0 1883.5,-0 1883.5,-0 1918.5,-0 1918.5,-0 1924.5,-0 1930.5,-6 1930.5,-12 1930.5,-12 1930.5,-26 1930.5,-26 1930.5,-32 1924.5,-38 1918.5,-38"/>
<text text-anchor="middle" x="1901" y="-22.8" font-family="Times,serif" font-size="14.00">forward</text>
<text text-anchor="middle" x="1901" y="-7.8" font-family="Times,serif" font-size="14.00">DB1/I</text>
</g>
<!-- 16&#45;&gt;32 -->
<g id="edge32" class="edge"><title>16&#45;&gt;32</title>
<path fill="none" stroke="black" d="M1930.38,-81.4602C1925.55,-71.3672 1919.44,-58.5805 1914.04,-47.287"/>
<polygon fill="black" stroke="black" points="1917.19,-45.7565 1909.72,-38.2436 1910.87,-48.7753 1917.19,-45.7565"/>
</g>
<!-- 33 -->
<g id="node34" class="node"><title>33</title>
<path fill="#debfe6" stroke="black" d="M1991,-38C1991,-38 1961,-38 1961,-38 1955,-38 1949,-32 1949,-26 1949,-26 1949,-12 1949,-12 1949,-6 1955,-0 1961,-0 1961,-0 1991,-0 1991,-0 1997,-0 2003,-6 2003,-12 2003,-12 2003,-26 2003,-26 2003,-32 1997,-38 1991,-38"/>
<text text-anchor="middle" x="1976" y="-22.8" font-family="Times,serif" font-size="14.00">merge</text>
<text text-anchor="middle" x="1976" y="-7.8" font-family="Times,serif" font-size="14.00">EB0/I</text>
</g>
<!-- 16&#45;&gt;33 -->
<g id="edge33" class="edge"><title>16&#45;&gt;33</title>
<path fill="none" stroke="black" d="M1947.4,-81.4602C1952.05,-71.4682 1957.93,-58.8359 1963.14,-47.6262"/>
<polygon fill="black" stroke="black" points="1966.46,-48.7866 1967.51,-38.2436 1960.12,-45.8329 1966.46,-48.7866"/>
</g>
<!-- 34 -->
<g id="node35" class="node"><title>34</title>
<path fill="#f6d3ff" stroke="black" d="M2234,-38C2234,-38 2196,-38 2196,-38 2190,-38 2184,-32 2184,-26 2184,-26 2184,-12 2184,-12 2184,-6 2190,-0 2196,-0 2196,-0 2234,-0 2234,-0 2240,-0 2246,-6 2246,-12 2246,-12 2246,-26 2246,-26 2246,-32 2240,-38 2234,-38"/>
<text text-anchor="middle" x="2215" y="-22.8" font-family="Times,serif" font-size="14.00">forward</text>
<text text-anchor="middle" x="2215" y="-7.8" font-family="Times,serif" font-size="14.00">DB0/C0</text>
</g>
<!-- 17&#45;&gt;34 -->
<g id="edge34" class="edge"><title>17&#45;&gt;34</title>
<path fill="none" stroke="black" d="M2215,-73.9081C2215,-65.7377 2215,-56.6492 2215,-48.2981"/>
<polygon fill="black" stroke="black" points="2218.5,-48.2389 2215,-38.2389 2211.5,-48.2389 2218.5,-48.2389"/>
</g>
<!-- 35 -->
<g id="node36" class="node"><title>35</title>
<path fill="#f6d3ff" stroke="black" d="M2385,-38C2385,-38 2347,-38 2347,-38 2341,-38 2335,-32 2335,-26 2335,-26 2335,-12 2335,-12 2335,-6 2341,-0 2347,-0 2347,-0 2385,-0 2385,-0 2391,-0 2397,-6 2397,-12 2397,-12 2397,-26 2397,-26 2397,-32 2391,-38 2385,-38"/>
<text text-anchor="middle" x="2366" y="-22.8" font-family="Times,serif" font-size="14.00">residual</text>
<text text-anchor="middle" x="2366" y="-7.8" font-family="Times,serif" font-size="14.00">DB0/C0</text>
</g>
<!-- 18&#45;&gt;35 -->
<g id="edge35" class="edge"><title>18&#45;&gt;35</title>
<path fill="none" stroke="black" d="M2397.32,-82.2497C2392.19,-72.0459 2385.57,-58.8928 2379.74,-47.3078"/>
<polygon fill="black" stroke="black" points="2382.7,-45.4043 2375.08,-38.0444 2376.45,-48.5506 2382.7,-45.4043"/>
</g>
<!-- 36 -->
<g id="node37" class="node"><title>36</title>
<path fill="#debfe6" stroke="black" d="M2465,-38C2465,-38 2427,-38 2427,-38 2421,-38 2415,-32 2415,-26 2415,-26 2415,-12 2415,-12 2415,-6 2421,-0 2427,-0 2427,-0 2465,-0 2465,-0 2471,-0 2477,-6 2477,-12 2477,-12 2477,-26 2477,-26 2477,-32 2471,-38 2465,-38"/>
<text text-anchor="middle" x="2446" y="-22.8" font-family="Times,serif" font-size="14.00">forward</text>
<text text-anchor="middle" x="2446" y="-7.8" font-family="Times,serif" font-size="14.00">DB0/C1</text>
</g>
<!-- 18&#45;&gt;36 -->
<g id="edge36" class="edge"><title>18&#45;&gt;36</title>
<path fill="none" stroke="black" d="M2414.68,-82.2497C2419.81,-72.0459 2426.43,-58.8928 2432.26,-47.3078"/>
<polygon fill="black" stroke="black" points="2435.55,-48.5506 2436.92,-38.0444 2429.3,-45.4043 2435.55,-48.5506"/>
</g>
</g>
</svg>
