<?xml version="1.0" encoding="UTF-8" standalone="no"?>
<!DOCTYPE svg PUBLIC "-//W3C//DTD SVG 1.1//EN"
 "http://www.w3.org/Graphics/SVG/1.1/DTD/svg11.dtd">
<!-- Generated by graphviz version 2.38.0 (20140413.2041)
 -->
<!-- Title: %3 Pages: 1 -->
<svg width="1806pt" height="355pt"
 viewBox="0.00 0.00 1805.50 355.00" xmlns="http://www.w3.org/2000/svg" xmlns:xlink="http://www.w3.org/1999/xlink">
<g id="graph0" class="graph" transform="scale(1 1) rotate(0) translate(4 351)">
<title>%3</title>
<polygon fill="none" stroke="none" points="-4,4 -4,-351 1801.5,-351 1801.5,4 -4,4"/>
<!-- 0 -->
<g id="node1" class="node"><title>0</title>
<path fill="#eaebf0" stroke="black" d="M1056,-347C1056,-347 803,-347 803,-347 797,-347 791,-341 791,-335 791,-335 791,-306 791,-306 791,-300 797,-294 803,-294 803,-294 1056,-294 1056,-294 1062,-294 1068,-300 1068,-306 1068,-306 1068,-335 1068,-335 1068,-341 1062,-347 1056,-347"/>
<text text-anchor="middle" x="929.5" y="-331.8" font-family="Times,serif" font-size="14.00">Gene graph</text>
<text text-anchor="middle" x="929.5" y="-316.8" font-family="Times,serif" font-size="14.00">n parameters: ???</text>
<text text-anchor="middle" x="929.5" y="-301.8" font-family="Times,serif" font-size="14.00">input shape: [572, 572] output shape:[388, 388]</text>
</g>
<!-- 1 -->
<g id="node2" class="node"><title>1</title>
<path fill="#ffd3d3" stroke="black" d="M1161,-339.5C1161,-339.5 1098,-339.5 1098,-339.5 1092,-339.5 1086,-333.5 1086,-327.5 1086,-327.5 1086,-313.5 1086,-313.5 1086,-307.5 1092,-301.5 1098,-301.5 1098,-301.5 1161,-301.5 1161,-301.5 1167,-301.5 1173,-307.5 1173,-313.5 1173,-313.5 1173,-327.5 1173,-327.5 1173,-333.5 1167,-339.5 1161,-339.5"/>
<text text-anchor="middle" x="1129.5" y="-324.3" font-family="Times,serif" font-size="14.00">net</text>
<text text-anchor="middle" x="1129.5" y="-309.3" font-family="Times,serif" font-size="14.00">n kernels: 64</text>
</g>
<!-- 2 -->
<g id="node3" class="node"><title>2</title>
<path fill="#f6ffd3" stroke="black" d="M443,-257C443,-257 408,-257 408,-257 402,-257 396,-251 396,-245 396,-245 396,-233 396,-233 396,-227 402,-221 408,-221 408,-221 443,-221 443,-221 449,-221 455,-227 455,-233 455,-233 455,-245 455,-245 455,-251 449,-257 443,-257"/>
<text text-anchor="middle" x="425.5" y="-235.3" font-family="Times,serif" font-size="14.00">encoder</text>
</g>
<!-- 1&#45;&gt;2 -->
<g id="edge1" class="edge"><title>1&#45;&gt;2</title>
<path fill="none" stroke="black" d="M1097.22,-301.385C1090.85,-298.471 1084.09,-295.819 1077.5,-294 961.138,-261.886 588.525,-245.873 465.407,-241.363"/>
<polygon fill="black" stroke="black" points="465.409,-237.861 455.29,-240.998 465.157,-244.856 465.409,-237.861"/>
</g>
<!-- 3 -->
<g id="node4" class="node"><title>3</title>
<path fill="#f6ffd3" stroke="black" d="M1160,-257C1160,-257 1125,-257 1125,-257 1119,-257 1113,-251 1113,-245 1113,-245 1113,-233 1113,-233 1113,-227 1119,-221 1125,-221 1125,-221 1160,-221 1160,-221 1166,-221 1172,-227 1172,-233 1172,-233 1172,-245 1172,-245 1172,-251 1166,-257 1160,-257"/>
<text text-anchor="middle" x="1142.5" y="-235.3" font-family="Times,serif" font-size="14.00">decoder</text>
</g>
<!-- 1&#45;&gt;3 -->
<g id="edge2" class="edge"><title>1&#45;&gt;3</title>
<path fill="none" stroke="black" d="M1132.45,-301.46C1134.11,-291.288 1136.22,-278.381 1138.08,-267.023"/>
<polygon fill="black" stroke="black" points="1141.54,-267.585 1139.7,-257.151 1134.63,-266.455 1141.54,-267.585"/>
</g>
<!-- 4 -->
<g id="node5" class="node"><title>4</title>
<path fill="#d3ffe4" stroke="black" d="M106,-183C106,-183 31,-183 31,-183 25,-183 19,-177 19,-171 19,-171 19,-159 19,-159 19,-153 25,-147 31,-147 31,-147 106,-147 106,-147 112,-147 118,-153 118,-159 118,-159 118,-171 118,-171 118,-177 112,-183 106,-183"/>
<text text-anchor="middle" x="68.5" y="-161.3" font-family="Times,serif" font-size="14.00">encode block 0</text>
</g>
<!-- 2&#45;&gt;4 -->
<g id="edge3" class="edge"><title>2&#45;&gt;4</title>
<path fill="none" stroke="black" d="M395.965,-233.891C343.706,-226.358 231.419,-208.997 128.037,-184.238"/>
<polygon fill="black" stroke="black" points="128.606,-180.774 118.063,-181.819 126.956,-187.577 128.606,-180.774"/>
</g>
<!-- 5 -->
<g id="node6" class="node"><title>5</title>
<path fill="#bfe6cf" stroke="black" d="M303,-184C303,-184 148,-184 148,-184 142,-184 136,-178 136,-172 136,-172 136,-158 136,-158 136,-152 142,-146 148,-146 148,-146 303,-146 303,-146 309,-146 315,-152 315,-158 315,-158 315,-172 315,-172 315,-178 309,-184 303,-184"/>
<text text-anchor="middle" x="225.5" y="-168.8" font-family="Times,serif" font-size="14.00">encode block 1</text>
<text text-anchor="middle" x="225.5" y="-153.8" font-family="Times,serif" font-size="14.00">n kernels: 64 &#160;&#160;spatial scale: 1</text>
</g>
<!-- 2&#45;&gt;5 -->
<g id="edge4" class="edge"><title>2&#45;&gt;5</title>
<path fill="none" stroke="black" d="M395.989,-227.376C366.963,-216.927 321.817,-200.674 285.272,-187.518"/>
<polygon fill="black" stroke="black" points="286.293,-184.166 275.698,-184.071 283.922,-190.752 286.293,-184.166"/>
</g>
<!-- 6 -->
<g id="node7" class="node"><title>6</title>
<path fill="#abceb9" stroke="black" d="M506,-184C506,-184 345,-184 345,-184 339,-184 333,-178 333,-172 333,-172 333,-158 333,-158 333,-152 339,-146 345,-146 345,-146 506,-146 506,-146 512,-146 518,-152 518,-158 518,-158 518,-172 518,-172 518,-178 512,-184 506,-184"/>
<text text-anchor="middle" x="425.5" y="-168.8" font-family="Times,serif" font-size="14.00">encode block 2</text>
<text text-anchor="middle" x="425.5" y="-153.8" font-family="Times,serif" font-size="14.00">n kernels: 192 &#160;&#160;spatial scale: 2</text>
</g>
<!-- 2&#45;&gt;6 -->
<g id="edge5" class="edge"><title>2&#45;&gt;6</title>
<path fill="none" stroke="black" d="M425.5,-220.937C425.5,-212.987 425.5,-203.313 425.5,-194.313"/>
<polygon fill="black" stroke="black" points="429,-194.199 425.5,-184.199 422,-194.199 429,-194.199"/>
</g>
<!-- 7 -->
<g id="node8" class="node"><title>7</title>
<path fill="#97b6a3" stroke="black" d="M709,-184C709,-184 548,-184 548,-184 542,-184 536,-178 536,-172 536,-172 536,-158 536,-158 536,-152 542,-146 548,-146 548,-146 709,-146 709,-146 715,-146 721,-152 721,-158 721,-158 721,-172 721,-172 721,-178 715,-184 709,-184"/>
<text text-anchor="middle" x="628.5" y="-168.8" font-family="Times,serif" font-size="14.00">encode block 3</text>
<text text-anchor="middle" x="628.5" y="-153.8" font-family="Times,serif" font-size="14.00">n kernels: 448 &#160;&#160;spatial scale: 3</text>
</g>
<!-- 2&#45;&gt;7 -->
<g id="edge6" class="edge"><title>2&#45;&gt;7</title>
<path fill="none" stroke="black" d="M455.018,-227.531C484.493,-217.076 530.655,-200.704 567.952,-187.475"/>
<polygon fill="black" stroke="black" points="569.466,-190.652 577.721,-184.01 567.126,-184.055 569.466,-190.652"/>
</g>
<!-- 8 -->
<g id="node9" class="node"><title>8</title>
<path fill="#d3ffe4" stroke="black" d="M912,-184C912,-184 751,-184 751,-184 745,-184 739,-178 739,-172 739,-172 739,-158 739,-158 739,-152 745,-146 751,-146 751,-146 912,-146 912,-146 918,-146 924,-152 924,-158 924,-158 924,-172 924,-172 924,-178 918,-184 912,-184"/>
<text text-anchor="middle" x="831.5" y="-168.8" font-family="Times,serif" font-size="14.00">decode block 4</text>
<text text-anchor="middle" x="831.5" y="-153.8" font-family="Times,serif" font-size="14.00">n kernels: 960 &#160;&#160;spatial scale: 4</text>
</g>
<!-- 3&#45;&gt;8 -->
<g id="edge7" class="edge"><title>3&#45;&gt;8</title>
<path fill="none" stroke="black" d="M1112.96,-231.162C1068.9,-220.961 984.194,-201.35 919.168,-186.296"/>
<polygon fill="black" stroke="black" points="919.849,-182.861 909.317,-184.016 918.27,-189.681 919.849,-182.861"/>
</g>
<!-- 9 -->
<g id="node10" class="node"><title>9</title>
<path fill="#bfe6cf" stroke="black" d="M1122,-184C1122,-184 961,-184 961,-184 955,-184 949,-178 949,-172 949,-172 949,-158 949,-158 949,-152 955,-146 961,-146 961,-146 1122,-146 1122,-146 1128,-146 1134,-152 1134,-158 1134,-158 1134,-172 1134,-172 1134,-178 1128,-184 1122,-184"/>
<text text-anchor="middle" x="1041.5" y="-168.8" font-family="Times,serif" font-size="14.00">decode block 3</text>
<text text-anchor="middle" x="1041.5" y="-153.8" font-family="Times,serif" font-size="14.00">n kernels: 448 &#160;&#160;spatial scale: 3</text>
</g>
<!-- 3&#45;&gt;9 -->
<g id="edge8" class="edge"><title>3&#45;&gt;9</title>
<path fill="none" stroke="black" d="M1118.56,-220.937C1105.71,-211.777 1089.66,-200.33 1075.53,-190.259"/>
<polygon fill="black" stroke="black" points="1077.2,-187.154 1067.03,-184.199 1073.14,-192.854 1077.2,-187.154"/>
</g>
<!-- 10 -->
<g id="node11" class="node"><title>10</title>
<path fill="#abceb9" stroke="black" d="M1325,-184C1325,-184 1164,-184 1164,-184 1158,-184 1152,-178 1152,-172 1152,-172 1152,-158 1152,-158 1152,-152 1158,-146 1164,-146 1164,-146 1325,-146 1325,-146 1331,-146 1337,-152 1337,-158 1337,-158 1337,-172 1337,-172 1337,-178 1331,-184 1325,-184"/>
<text text-anchor="middle" x="1244.5" y="-168.8" font-family="Times,serif" font-size="14.00">decode block 2</text>
<text text-anchor="middle" x="1244.5" y="-153.8" font-family="Times,serif" font-size="14.00">n kernels: 192 &#160;&#160;spatial scale: 2</text>
</g>
<!-- 3&#45;&gt;10 -->
<g id="edge9" class="edge"><title>3&#45;&gt;10</title>
<path fill="none" stroke="black" d="M1166.67,-220.937C1179.77,-211.69 1196.17,-200.113 1210.54,-189.974"/>
<polygon fill="black" stroke="black" points="1212.57,-192.825 1218.72,-184.199 1208.53,-187.107 1212.57,-192.825"/>
</g>
<!-- 11 -->
<g id="node12" class="node"><title>11</title>
<path fill="#97b6a3" stroke="black" d="M1525,-184C1525,-184 1370,-184 1370,-184 1364,-184 1358,-178 1358,-172 1358,-172 1358,-158 1358,-158 1358,-152 1364,-146 1370,-146 1370,-146 1525,-146 1525,-146 1531,-146 1537,-152 1537,-158 1537,-158 1537,-172 1537,-172 1537,-178 1531,-184 1525,-184"/>
<text text-anchor="middle" x="1447.5" y="-168.8" font-family="Times,serif" font-size="14.00">decode block 1</text>
<text text-anchor="middle" x="1447.5" y="-153.8" font-family="Times,serif" font-size="14.00">n kernels: 64 &#160;&#160;spatial scale: 1</text>
</g>
<!-- 3&#45;&gt;11 -->
<g id="edge10" class="edge"><title>3&#45;&gt;11</title>
<path fill="none" stroke="black" d="M1172,-227.084C1179.3,-224.579 1187.14,-222.052 1194.5,-220 1244.59,-206.043 1301.11,-193.667 1348.01,-184.295"/>
<polygon fill="black" stroke="black" points="1348.73,-187.719 1357.86,-182.341 1347.37,-180.853 1348.73,-187.719"/>
</g>
<!-- 12 -->
<g id="node13" class="node"><title>12</title>
<path fill="#839e8d" stroke="black" d="M1666,-183C1666,-183 1591,-183 1591,-183 1585,-183 1579,-177 1579,-171 1579,-171 1579,-159 1579,-159 1579,-153 1585,-147 1591,-147 1591,-147 1666,-147 1666,-147 1672,-147 1678,-153 1678,-159 1678,-159 1678,-171 1678,-171 1678,-177 1672,-183 1666,-183"/>
<text text-anchor="middle" x="1628.5" y="-161.3" font-family="Times,serif" font-size="14.00">decode block 0</text>
</g>
<!-- 3&#45;&gt;12 -->
<g id="edge11" class="edge"><title>3&#45;&gt;12</title>
<path fill="none" stroke="black" d="M1172.13,-226.421C1179.36,-223.967 1187.13,-221.629 1194.5,-220 1348.05,-186.052 1391.22,-208.899 1546.5,-184 1553.8,-182.829 1561.44,-181.414 1568.98,-179.899"/>
<polygon fill="black" stroke="black" points="1569.72,-183.319 1578.81,-177.861 1568.3,-176.465 1569.72,-183.319"/>
</g>
<!-- 13 -->
<g id="node14" class="node"><title>13</title>
<path fill="#d3e4ff" stroke="black" d="M46.5,-110C46.5,-110 12.5,-110 12.5,-110 6.5,-110 0.5,-104 0.5,-98 0.5,-98 0.5,-86 0.5,-86 0.5,-80 6.5,-74 12.5,-74 12.5,-74 46.5,-74 46.5,-74 52.5,-74 58.5,-80 58.5,-86 58.5,-86 58.5,-98 58.5,-98 58.5,-104 52.5,-110 46.5,-110"/>
<text text-anchor="middle" x="29.5" y="-88.3" font-family="Times,serif" font-size="14.00">comp 0</text>
</g>
<!-- 4&#45;&gt;13 -->
<g id="edge12" class="edge"><title>4&#45;&gt;13</title>
<path fill="none" stroke="black" d="M59.0592,-146.813C54.4604,-138.441 48.8336,-128.197 43.7282,-118.903"/>
<polygon fill="black" stroke="black" points="46.736,-117.109 38.8539,-110.029 40.6007,-120.479 46.736,-117.109"/>
</g>
<!-- 14 -->
<g id="node15" class="node"><title>14</title>
<path fill="#bfcfe6" stroke="black" d="M123.5,-110C123.5,-110 89.5,-110 89.5,-110 83.5,-110 77.5,-104 77.5,-98 77.5,-98 77.5,-86 77.5,-86 77.5,-80 83.5,-74 89.5,-74 89.5,-74 123.5,-74 123.5,-74 129.5,-74 135.5,-80 135.5,-86 135.5,-86 135.5,-98 135.5,-98 135.5,-104 129.5,-110 123.5,-110"/>
<text text-anchor="middle" x="106.5" y="-88.3" font-family="Times,serif" font-size="14.00">comp 1</text>
</g>
<!-- 4&#45;&gt;14 -->
<g id="edge13" class="edge"><title>4&#45;&gt;14</title>
<path fill="none" stroke="black" d="M77.6987,-146.813C82.1797,-138.441 87.6621,-128.197 92.6366,-118.903"/>
<polygon fill="black" stroke="black" points="95.753,-120.497 97.386,-110.029 89.5813,-117.194 95.753,-120.497"/>
</g>
<!-- 15 -->
<g id="node16" class="node"><title>15</title>
<path fill="#d3e4ff" stroke="black" d="M222.5,-110C222.5,-110 188.5,-110 188.5,-110 182.5,-110 176.5,-104 176.5,-98 176.5,-98 176.5,-86 176.5,-86 176.5,-80 182.5,-74 188.5,-74 188.5,-74 222.5,-74 222.5,-74 228.5,-74 234.5,-80 234.5,-86 234.5,-86 234.5,-98 234.5,-98 234.5,-104 228.5,-110 222.5,-110"/>
<text text-anchor="middle" x="205.5" y="-88.3" font-family="Times,serif" font-size="14.00">comp 0</text>
</g>
<!-- 5&#45;&gt;15 -->
<g id="edge14" class="edge"><title>5&#45;&gt;15</title>
<path fill="none" stroke="black" d="M220.35,-145.716C218.12,-137.801 215.466,-128.38 213.023,-119.707"/>
<polygon fill="black" stroke="black" points="216.37,-118.68 210.29,-110.003 209.632,-120.578 216.37,-118.68"/>
</g>
<!-- 16 -->
<g id="node17" class="node"><title>16</title>
<path fill="#bfcfe6" stroke="black" d="M299.5,-110C299.5,-110 265.5,-110 265.5,-110 259.5,-110 253.5,-104 253.5,-98 253.5,-98 253.5,-86 253.5,-86 253.5,-80 259.5,-74 265.5,-74 265.5,-74 299.5,-74 299.5,-74 305.5,-74 311.5,-80 311.5,-86 311.5,-86 311.5,-98 311.5,-98 311.5,-104 305.5,-110 299.5,-110"/>
<text text-anchor="middle" x="282.5" y="-88.3" font-family="Times,serif" font-size="14.00">comp 1</text>
</g>
<!-- 5&#45;&gt;16 -->
<g id="edge15" class="edge"><title>5&#45;&gt;16</title>
<path fill="none" stroke="black" d="M240.179,-145.716C246.947,-137.285 255.088,-127.145 262.413,-118.02"/>
<polygon fill="black" stroke="black" points="265.318,-119.993 268.849,-110.003 259.86,-115.61 265.318,-119.993"/>
</g>
<!-- 17 -->
<g id="node18" class="node"><title>17</title>
<path fill="#d3e4ff" stroke="black" d="M395.5,-110C395.5,-110 361.5,-110 361.5,-110 355.5,-110 349.5,-104 349.5,-98 349.5,-98 349.5,-86 349.5,-86 349.5,-80 355.5,-74 361.5,-74 361.5,-74 395.5,-74 395.5,-74 401.5,-74 407.5,-80 407.5,-86 407.5,-86 407.5,-98 407.5,-98 407.5,-104 401.5,-110 395.5,-110"/>
<text text-anchor="middle" x="378.5" y="-88.3" font-family="Times,serif" font-size="14.00">comp 0</text>
</g>
<!-- 6&#45;&gt;17 -->
<g id="edge16" class="edge"><title>6&#45;&gt;17</title>
<path fill="none" stroke="black" d="M413.396,-145.716C407.929,-137.457 401.377,-127.558 395.433,-118.58"/>
<polygon fill="black" stroke="black" points="398.194,-116.41 389.756,-110.003 392.357,-120.274 398.194,-116.41"/>
</g>
<!-- 18 -->
<g id="node19" class="node"><title>18</title>
<path fill="#bfcfe6" stroke="black" d="M472.5,-110C472.5,-110 438.5,-110 438.5,-110 432.5,-110 426.5,-104 426.5,-98 426.5,-98 426.5,-86 426.5,-86 426.5,-80 432.5,-74 438.5,-74 438.5,-74 472.5,-74 472.5,-74 478.5,-74 484.5,-80 484.5,-86 484.5,-86 484.5,-98 484.5,-98 484.5,-104 478.5,-110 472.5,-110"/>
<text text-anchor="middle" x="455.5" y="-88.3" font-family="Times,serif" font-size="14.00">comp 1</text>
</g>
<!-- 6&#45;&gt;18 -->
<g id="edge17" class="edge"><title>6&#45;&gt;18</title>
<path fill="none" stroke="black" d="M433.226,-145.716C436.606,-137.715 440.637,-128.175 444.335,-119.424"/>
<polygon fill="black" stroke="black" points="447.647,-120.577 448.315,-110.003 441.199,-117.853 447.647,-120.577"/>
</g>
<!-- 19 -->
<g id="node20" class="node"><title>19</title>
<path fill="#d3e4ff" stroke="black" d="M582.5,-110C582.5,-110 548.5,-110 548.5,-110 542.5,-110 536.5,-104 536.5,-98 536.5,-98 536.5,-86 536.5,-86 536.5,-80 542.5,-74 548.5,-74 548.5,-74 582.5,-74 582.5,-74 588.5,-74 594.5,-80 594.5,-86 594.5,-86 594.5,-98 594.5,-98 594.5,-104 588.5,-110 582.5,-110"/>
<text text-anchor="middle" x="565.5" y="-88.3" font-family="Times,serif" font-size="14.00">comp 0</text>
</g>
<!-- 7&#45;&gt;19 -->
<g id="edge18" class="edge"><title>7&#45;&gt;19</title>
<path fill="none" stroke="black" d="M612.276,-145.716C604.719,-137.199 595.614,-126.938 587.453,-117.741"/>
<polygon fill="black" stroke="black" points="589.843,-115.16 580.588,-110.003 584.607,-119.806 589.843,-115.16"/>
</g>
<!-- 20 -->
<g id="node21" class="node"><title>20</title>
<path fill="#bfcfe6" stroke="black" d="M659.5,-110C659.5,-110 625.5,-110 625.5,-110 619.5,-110 613.5,-104 613.5,-98 613.5,-98 613.5,-86 613.5,-86 613.5,-80 619.5,-74 625.5,-74 625.5,-74 659.5,-74 659.5,-74 665.5,-74 671.5,-80 671.5,-86 671.5,-86 671.5,-98 671.5,-98 671.5,-104 665.5,-110 659.5,-110"/>
<text text-anchor="middle" x="642.5" y="-88.3" font-family="Times,serif" font-size="14.00">comp 1</text>
</g>
<!-- 7&#45;&gt;20 -->
<g id="edge19" class="edge"><title>7&#45;&gt;20</title>
<path fill="none" stroke="black" d="M632.105,-145.716C633.649,-137.887 635.483,-128.585 637.178,-119.99"/>
<polygon fill="black" stroke="black" points="640.646,-120.492 639.147,-110.003 633.779,-119.137 640.646,-120.492"/>
</g>
<!-- 21 -->
<g id="node22" class="node"><title>21</title>
<path fill="#d3e4ff" stroke="black" d="M757.5,-110C757.5,-110 723.5,-110 723.5,-110 717.5,-110 711.5,-104 711.5,-98 711.5,-98 711.5,-86 711.5,-86 711.5,-80 717.5,-74 723.5,-74 723.5,-74 757.5,-74 757.5,-74 763.5,-74 769.5,-80 769.5,-86 769.5,-86 769.5,-98 769.5,-98 769.5,-104 763.5,-110 757.5,-110"/>
<text text-anchor="middle" x="740.5" y="-88.3" font-family="Times,serif" font-size="14.00">comp 0</text>
</g>
<!-- 8&#45;&gt;21 -->
<g id="edge20" class="edge"><title>8&#45;&gt;21</title>
<path fill="none" stroke="black" d="M808.065,-145.716C796.598,-136.769 782.664,-125.897 770.435,-116.356"/>
<polygon fill="black" stroke="black" points="772.33,-113.395 762.293,-110.003 768.024,-118.914 772.33,-113.395"/>
</g>
<!-- 22 -->
<g id="node23" class="node"><title>22</title>
<path fill="#bfcfe6" stroke="black" d="M839.5,-110C839.5,-110 805.5,-110 805.5,-110 799.5,-110 793.5,-104 793.5,-98 793.5,-98 793.5,-86 793.5,-86 793.5,-80 799.5,-74 805.5,-74 805.5,-74 839.5,-74 839.5,-74 845.5,-74 851.5,-80 851.5,-86 851.5,-86 851.5,-98 851.5,-98 851.5,-104 845.5,-110 839.5,-110"/>
<text text-anchor="middle" x="822.5" y="-88.3" font-family="Times,serif" font-size="14.00">comp 1</text>
</g>
<!-- 8&#45;&gt;22 -->
<g id="edge21" class="edge"><title>8&#45;&gt;22</title>
<path fill="none" stroke="black" d="M829.182,-145.716C828.19,-137.887 827.011,-128.585 825.921,-119.99"/>
<polygon fill="black" stroke="black" points="829.385,-119.484 824.655,-110.003 822.441,-120.364 829.385,-119.484"/>
</g>
<!-- 23 -->
<g id="node24" class="node"><title>23</title>
<path fill="#d3e4ff" stroke="black" d="M990.5,-110C990.5,-110 956.5,-110 956.5,-110 950.5,-110 944.5,-104 944.5,-98 944.5,-98 944.5,-86 944.5,-86 944.5,-80 950.5,-74 956.5,-74 956.5,-74 990.5,-74 990.5,-74 996.5,-74 1002.5,-80 1002.5,-86 1002.5,-86 1002.5,-98 1002.5,-98 1002.5,-104 996.5,-110 990.5,-110"/>
<text text-anchor="middle" x="973.5" y="-88.3" font-family="Times,serif" font-size="14.00">comp 0</text>
</g>
<!-- 9&#45;&gt;23 -->
<g id="edge22" class="edge"><title>9&#45;&gt;23</title>
<path fill="none" stroke="black" d="M1023.99,-145.716C1015.75,-137.113 1005.81,-126.731 996.929,-117.463"/>
<polygon fill="black" stroke="black" points="999.23,-114.805 989.785,-110.003 994.174,-119.646 999.23,-114.805"/>
</g>
<!-- 24 -->
<g id="node25" class="node"><title>24</title>
<path fill="#bfcfe6" stroke="black" d="M1067.5,-110C1067.5,-110 1033.5,-110 1033.5,-110 1027.5,-110 1021.5,-104 1021.5,-98 1021.5,-98 1021.5,-86 1021.5,-86 1021.5,-80 1027.5,-74 1033.5,-74 1033.5,-74 1067.5,-74 1067.5,-74 1073.5,-74 1079.5,-80 1079.5,-86 1079.5,-86 1079.5,-98 1079.5,-98 1079.5,-104 1073.5,-110 1067.5,-110"/>
<text text-anchor="middle" x="1050.5" y="-88.3" font-family="Times,serif" font-size="14.00">comp 1</text>
</g>
<!-- 9&#45;&gt;24 -->
<g id="edge23" class="edge"><title>9&#45;&gt;24</title>
<path fill="none" stroke="black" d="M1043.82,-145.716C1044.81,-137.887 1045.99,-128.585 1047.08,-119.99"/>
<polygon fill="black" stroke="black" points="1050.56,-120.364 1048.34,-110.003 1043.61,-119.484 1050.56,-120.364"/>
</g>
<!-- 25 -->
<g id="node26" class="node"><title>25</title>
<path fill="#d3e4ff" stroke="black" d="M1228.5,-110C1228.5,-110 1194.5,-110 1194.5,-110 1188.5,-110 1182.5,-104 1182.5,-98 1182.5,-98 1182.5,-86 1182.5,-86 1182.5,-80 1188.5,-74 1194.5,-74 1194.5,-74 1228.5,-74 1228.5,-74 1234.5,-74 1240.5,-80 1240.5,-86 1240.5,-86 1240.5,-98 1240.5,-98 1240.5,-104 1234.5,-110 1228.5,-110"/>
<text text-anchor="middle" x="1211.5" y="-88.3" font-family="Times,serif" font-size="14.00">comp 0</text>
</g>
<!-- 10&#45;&gt;25 -->
<g id="edge24" class="edge"><title>10&#45;&gt;25</title>
<path fill="none" stroke="black" d="M1236,-145.716C1232.24,-137.629 1227.75,-127.97 1223.65,-119.142"/>
<polygon fill="black" stroke="black" points="1226.79,-117.597 1219.4,-110.003 1220.44,-120.547 1226.79,-117.597"/>
</g>
<!-- 26 -->
<g id="node27" class="node"><title>26</title>
<path fill="#bfcfe6" stroke="black" d="M1306.5,-110C1306.5,-110 1272.5,-110 1272.5,-110 1266.5,-110 1260.5,-104 1260.5,-98 1260.5,-98 1260.5,-86 1260.5,-86 1260.5,-80 1266.5,-74 1272.5,-74 1272.5,-74 1306.5,-74 1306.5,-74 1312.5,-74 1318.5,-80 1318.5,-86 1318.5,-86 1318.5,-98 1318.5,-98 1318.5,-104 1312.5,-110 1306.5,-110"/>
<text text-anchor="middle" x="1289.5" y="-88.3" font-family="Times,serif" font-size="14.00">comp 1</text>
</g>
<!-- 10&#45;&gt;26 -->
<g id="edge25" class="edge"><title>10&#45;&gt;26</title>
<path fill="none" stroke="black" d="M1256.09,-145.716C1261.32,-137.457 1267.6,-127.558 1273.29,-118.58"/>
<polygon fill="black" stroke="black" points="1276.33,-120.324 1278.72,-110.003 1270.41,-116.576 1276.33,-120.324"/>
</g>
<!-- 27 -->
<g id="node28" class="node"><title>27</title>
<path fill="#d3e4ff" stroke="black" d="M1464.5,-110C1464.5,-110 1430.5,-110 1430.5,-110 1424.5,-110 1418.5,-104 1418.5,-98 1418.5,-98 1418.5,-86 1418.5,-86 1418.5,-80 1424.5,-74 1430.5,-74 1430.5,-74 1464.5,-74 1464.5,-74 1470.5,-74 1476.5,-80 1476.5,-86 1476.5,-86 1476.5,-98 1476.5,-98 1476.5,-104 1470.5,-110 1464.5,-110"/>
<text text-anchor="middle" x="1447.5" y="-88.3" font-family="Times,serif" font-size="14.00">comp 0</text>
</g>
<!-- 11&#45;&gt;27 -->
<g id="edge26" class="edge"><title>11&#45;&gt;27</title>
<path fill="none" stroke="black" d="M1447.5,-145.716C1447.5,-137.973 1447.5,-128.789 1447.5,-120.274"/>
<polygon fill="black" stroke="black" points="1451,-120.003 1447.5,-110.003 1444,-120.003 1451,-120.003"/>
</g>
<!-- 28 -->
<g id="node29" class="node"><title>28</title>
<path fill="#bfcfe6" stroke="black" d="M1544.5,-110C1544.5,-110 1510.5,-110 1510.5,-110 1504.5,-110 1498.5,-104 1498.5,-98 1498.5,-98 1498.5,-86 1498.5,-86 1498.5,-80 1504.5,-74 1510.5,-74 1510.5,-74 1544.5,-74 1544.5,-74 1550.5,-74 1556.5,-80 1556.5,-86 1556.5,-86 1556.5,-98 1556.5,-98 1556.5,-104 1550.5,-110 1544.5,-110"/>
<text text-anchor="middle" x="1527.5" y="-88.3" font-family="Times,serif" font-size="14.00">comp 1</text>
</g>
<!-- 11&#45;&gt;28 -->
<g id="edge27" class="edge"><title>11&#45;&gt;28</title>
<path fill="none" stroke="black" d="M1468.1,-145.716C1477.99,-136.941 1489.96,-126.315 1500.56,-116.908"/>
<polygon fill="black" stroke="black" points="1503.19,-119.259 1508.34,-110.003 1498.54,-114.024 1503.19,-119.259"/>
</g>
<!-- 29 -->
<g id="node30" class="node"><title>29</title>
<path fill="#d3e4ff" stroke="black" d="M1645.5,-110C1645.5,-110 1611.5,-110 1611.5,-110 1605.5,-110 1599.5,-104 1599.5,-98 1599.5,-98 1599.5,-86 1599.5,-86 1599.5,-80 1605.5,-74 1611.5,-74 1611.5,-74 1645.5,-74 1645.5,-74 1651.5,-74 1657.5,-80 1657.5,-86 1657.5,-86 1657.5,-98 1657.5,-98 1657.5,-104 1651.5,-110 1645.5,-110"/>
<text text-anchor="middle" x="1628.5" y="-88.3" font-family="Times,serif" font-size="14.00">comp 0</text>
</g>
<!-- 12&#45;&gt;29 -->
<g id="edge28" class="edge"><title>12&#45;&gt;29</title>
<path fill="none" stroke="black" d="M1628.5,-146.813C1628.5,-138.789 1628.5,-129.047 1628.5,-120.069"/>
<polygon fill="black" stroke="black" points="1632,-120.029 1628.5,-110.029 1625,-120.029 1632,-120.029"/>
</g>
<!-- 30 -->
<g id="node31" class="node"><title>30</title>
<path fill="#bfcfe6" stroke="black" d="M1762.5,-110C1762.5,-110 1728.5,-110 1728.5,-110 1722.5,-110 1716.5,-104 1716.5,-98 1716.5,-98 1716.5,-86 1716.5,-86 1716.5,-80 1722.5,-74 1728.5,-74 1728.5,-74 1762.5,-74 1762.5,-74 1768.5,-74 1774.5,-80 1774.5,-86 1774.5,-86 1774.5,-98 1774.5,-98 1774.5,-104 1768.5,-110 1762.5,-110"/>
<text text-anchor="middle" x="1745.5" y="-88.3" font-family="Times,serif" font-size="14.00">comp 1</text>
</g>
<!-- 12&#45;&gt;30 -->
<g id="edge29" class="edge"><title>12&#45;&gt;30</title>
<path fill="none" stroke="black" d="M1656.52,-146.994C1672.04,-137.579 1691.52,-125.755 1708.3,-115.575"/>
<polygon fill="black" stroke="black" points="1710.57,-118.294 1717.3,-110.114 1706.93,-112.309 1710.57,-118.294"/>
</g>
<!-- 31 -->
<g id="node32" class="node"><title>31</title>
<path fill="#f6d3ff" stroke="black" d="M47,-38C47,-38 12,-38 12,-38 6,-38 0,-32 0,-26 0,-26 0,-12 0,-12 0,-6 6,-0 12,-0 12,-0 47,-0 47,-0 53,-0 59,-6 59,-12 59,-12 59,-26 59,-26 59,-32 53,-38 47,-38"/>
<text text-anchor="middle" x="29.5" y="-22.8" font-family="Times,serif" font-size="14.00">forward</text>
<text text-anchor="middle" x="29.5" y="-7.8" font-family="Times,serif" font-size="14.00">input</text>
</g>
<!-- 13&#45;&gt;31 -->
<g id="edge30" class="edge"><title>13&#45;&gt;31</title>
<path fill="none" stroke="black" d="M29.5,-73.8129C29.5,-66.1101 29.5,-56.8234 29.5,-48.149"/>
<polygon fill="black" stroke="black" points="33.0001,-48.0195 29.5,-38.0196 26.0001,-48.0196 33.0001,-48.0195"/>
</g>
<!-- 32 -->
<g id="node33" class="node"><title>32</title>
<path fill="#f6d3ff" stroke="black" d="M125.5,-38C125.5,-38 89.5,-38 89.5,-38 83.5,-38 77.5,-32 77.5,-26 77.5,-26 77.5,-12 77.5,-12 77.5,-6 83.5,-0 89.5,-0 89.5,-0 125.5,-0 125.5,-0 131.5,-0 137.5,-6 137.5,-12 137.5,-12 137.5,-26 137.5,-26 137.5,-32 131.5,-38 125.5,-38"/>
<text text-anchor="middle" x="107.5" y="-22.8" font-family="Times,serif" font-size="14.00">forward</text>
<text text-anchor="middle" x="107.5" y="-7.8" font-family="Times,serif" font-size="14.00">EB0/C0</text>
</g>
<!-- 14&#45;&gt;32 -->
<g id="edge31" class="edge"><title>14&#45;&gt;32</title>
<path fill="none" stroke="black" d="M106.742,-73.8129C106.851,-66.1101 106.981,-56.8234 107.104,-48.149"/>
<polygon fill="black" stroke="black" points="110.605,-48.0679 107.246,-38.0196 103.606,-47.9692 110.605,-48.0679"/>
</g>
<!-- 33 -->
<g id="node34" class="node"><title>33</title>
<path fill="#f6d3ff" stroke="black" d="M223.5,-38C223.5,-38 187.5,-38 187.5,-38 181.5,-38 175.5,-32 175.5,-26 175.5,-26 175.5,-12 175.5,-12 175.5,-6 181.5,-0 187.5,-0 187.5,-0 223.5,-0 223.5,-0 229.5,-0 235.5,-6 235.5,-12 235.5,-12 235.5,-26 235.5,-26 235.5,-32 229.5,-38 223.5,-38"/>
<text text-anchor="middle" x="205.5" y="-22.8" font-family="Times,serif" font-size="14.00">forward</text>
<text text-anchor="middle" x="205.5" y="-7.8" font-family="Times,serif" font-size="14.00">EB0/C1</text>
</g>
<!-- 15&#45;&gt;33 -->
<g id="edge32" class="edge"><title>15&#45;&gt;33</title>
<path fill="none" stroke="black" d="M205.5,-73.8129C205.5,-66.1101 205.5,-56.8234 205.5,-48.149"/>
<polygon fill="black" stroke="black" points="209,-48.0195 205.5,-38.0196 202,-48.0196 209,-48.0195"/>
</g>
<!-- 34 -->
<g id="node35" class="node"><title>34</title>
<path fill="#f6d3ff" stroke="black" d="M301.5,-38C301.5,-38 265.5,-38 265.5,-38 259.5,-38 253.5,-32 253.5,-26 253.5,-26 253.5,-12 253.5,-12 253.5,-6 259.5,-0 265.5,-0 265.5,-0 301.5,-0 301.5,-0 307.5,-0 313.5,-6 313.5,-12 313.5,-12 313.5,-26 313.5,-26 313.5,-32 307.5,-38 301.5,-38"/>
<text text-anchor="middle" x="283.5" y="-22.8" font-family="Times,serif" font-size="14.00">forward</text>
<text text-anchor="middle" x="283.5" y="-7.8" font-family="Times,serif" font-size="14.00">EB1/C0</text>
</g>
<!-- 16&#45;&gt;34 -->
<g id="edge33" class="edge"><title>16&#45;&gt;34</title>
<path fill="none" stroke="black" d="M282.742,-73.8129C282.851,-66.1101 282.981,-56.8234 283.104,-48.149"/>
<polygon fill="black" stroke="black" points="286.605,-48.0679 283.246,-38.0196 279.606,-47.9692 286.605,-48.0679"/>
</g>
<!-- 35 -->
<g id="node36" class="node"><title>35</title>
<path fill="#f6d3ff" stroke="black" d="M396.5,-38C396.5,-38 360.5,-38 360.5,-38 354.5,-38 348.5,-32 348.5,-26 348.5,-26 348.5,-12 348.5,-12 348.5,-6 354.5,-0 360.5,-0 360.5,-0 396.5,-0 396.5,-0 402.5,-0 408.5,-6 408.5,-12 408.5,-12 408.5,-26 408.5,-26 408.5,-32 402.5,-38 396.5,-38"/>
<text text-anchor="middle" x="378.5" y="-22.8" font-family="Times,serif" font-size="14.00">forward</text>
<text text-anchor="middle" x="378.5" y="-7.8" font-family="Times,serif" font-size="14.00">EB1/C1</text>
</g>
<!-- 17&#45;&gt;35 -->
<g id="edge34" class="edge"><title>17&#45;&gt;35</title>
<path fill="none" stroke="black" d="M378.5,-73.8129C378.5,-66.1101 378.5,-56.8234 378.5,-48.149"/>
<polygon fill="black" stroke="black" points="382,-48.0195 378.5,-38.0196 375,-48.0196 382,-48.0195"/>
</g>
<!-- 36 -->
<g id="node37" class="node"><title>36</title>
<path fill="#f6d3ff" stroke="black" d="M474.5,-38C474.5,-38 438.5,-38 438.5,-38 432.5,-38 426.5,-32 426.5,-26 426.5,-26 426.5,-12 426.5,-12 426.5,-6 432.5,-0 438.5,-0 438.5,-0 474.5,-0 474.5,-0 480.5,-0 486.5,-6 486.5,-12 486.5,-12 486.5,-26 486.5,-26 486.5,-32 480.5,-38 474.5,-38"/>
<text text-anchor="middle" x="456.5" y="-22.8" font-family="Times,serif" font-size="14.00">forward</text>
<text text-anchor="middle" x="456.5" y="-7.8" font-family="Times,serif" font-size="14.00">EB2/C0</text>
</g>
<!-- 18&#45;&gt;36 -->
<g id="edge35" class="edge"><title>18&#45;&gt;36</title>
<path fill="none" stroke="black" d="M455.742,-73.8129C455.851,-66.1101 455.981,-56.8234 456.104,-48.149"/>
<polygon fill="black" stroke="black" points="459.605,-48.0679 456.246,-38.0196 452.606,-47.9692 459.605,-48.0679"/>
</g>
<!-- 37 -->
<g id="node38" class="node"><title>37</title>
<path fill="#f6d3ff" stroke="black" d="M583.5,-38C583.5,-38 547.5,-38 547.5,-38 541.5,-38 535.5,-32 535.5,-26 535.5,-26 535.5,-12 535.5,-12 535.5,-6 541.5,-0 547.5,-0 547.5,-0 583.5,-0 583.5,-0 589.5,-0 595.5,-6 595.5,-12 595.5,-12 595.5,-26 595.5,-26 595.5,-32 589.5,-38 583.5,-38"/>
<text text-anchor="middle" x="565.5" y="-22.8" font-family="Times,serif" font-size="14.00">forward</text>
<text text-anchor="middle" x="565.5" y="-7.8" font-family="Times,serif" font-size="14.00">EB2/C1</text>
</g>
<!-- 19&#45;&gt;37 -->
<g id="edge36" class="edge"><title>19&#45;&gt;37</title>
<path fill="none" stroke="black" d="M565.5,-73.8129C565.5,-66.1101 565.5,-56.8234 565.5,-48.149"/>
<polygon fill="black" stroke="black" points="569,-48.0195 565.5,-38.0196 562,-48.0196 569,-48.0195"/>
</g>
<!-- 38 -->
<g id="node39" class="node"><title>38</title>
<path fill="#f6d3ff" stroke="black" d="M661.5,-38C661.5,-38 625.5,-38 625.5,-38 619.5,-38 613.5,-32 613.5,-26 613.5,-26 613.5,-12 613.5,-12 613.5,-6 619.5,-0 625.5,-0 625.5,-0 661.5,-0 661.5,-0 667.5,-0 673.5,-6 673.5,-12 673.5,-12 673.5,-26 673.5,-26 673.5,-32 667.5,-38 661.5,-38"/>
<text text-anchor="middle" x="643.5" y="-22.8" font-family="Times,serif" font-size="14.00">forward</text>
<text text-anchor="middle" x="643.5" y="-7.8" font-family="Times,serif" font-size="14.00">EB3/C0</text>
</g>
<!-- 20&#45;&gt;38 -->
<g id="edge37" class="edge"><title>20&#45;&gt;38</title>
<path fill="none" stroke="black" d="M642.742,-73.8129C642.851,-66.1101 642.981,-56.8234 643.104,-48.149"/>
<polygon fill="black" stroke="black" points="646.605,-48.0679 643.246,-38.0196 639.606,-47.9692 646.605,-48.0679"/>
</g>
<!-- 39 -->
<g id="node40" class="node"><title>39</title>
<path fill="#f6d3ff" stroke="black" d="M753.5,-38C753.5,-38 717.5,-38 717.5,-38 711.5,-38 705.5,-32 705.5,-26 705.5,-26 705.5,-12 705.5,-12 705.5,-6 711.5,-0 717.5,-0 717.5,-0 753.5,-0 753.5,-0 759.5,-0 765.5,-6 765.5,-12 765.5,-12 765.5,-26 765.5,-26 765.5,-32 759.5,-38 753.5,-38"/>
<text text-anchor="middle" x="735.5" y="-22.8" font-family="Times,serif" font-size="14.00">forward</text>
<text text-anchor="middle" x="735.5" y="-7.8" font-family="Times,serif" font-size="14.00">EB3/C1</text>
</g>
<!-- 21&#45;&gt;39 -->
<g id="edge38" class="edge"><title>21&#45;&gt;39</title>
<path fill="none" stroke="black" d="M739.29,-73.8129C738.747,-66.1101 738.093,-56.8234 737.482,-48.149"/>
<polygon fill="black" stroke="black" points="740.963,-47.749 736.769,-38.0196 733.98,-48.2408 740.963,-47.749"/>
</g>
<!-- 40 -->
<g id="node41" class="node"><title>40</title>
<path fill="#f6d3ff" stroke="black" d="M833.5,-38C833.5,-38 795.5,-38 795.5,-38 789.5,-38 783.5,-32 783.5,-26 783.5,-26 783.5,-12 783.5,-12 783.5,-6 789.5,-0 795.5,-0 795.5,-0 833.5,-0 833.5,-0 839.5,-0 845.5,-6 845.5,-12 845.5,-12 845.5,-26 845.5,-26 845.5,-32 839.5,-38 833.5,-38"/>
<text text-anchor="middle" x="814.5" y="-22.8" font-family="Times,serif" font-size="14.00">forward</text>
<text text-anchor="middle" x="814.5" y="-7.8" font-family="Times,serif" font-size="14.00">DB4/C0</text>
</g>
<!-- 22&#45;&gt;40 -->
<g id="edge39" class="edge"><title>22&#45;&gt;40</title>
<path fill="none" stroke="black" d="M820.563,-73.8129C819.696,-66.1101 818.649,-56.8234 817.672,-48.149"/>
<polygon fill="black" stroke="black" points="821.128,-47.5648 816.53,-38.0196 814.172,-48.3486 821.128,-47.5648"/>
</g>
<!-- 41 -->
<g id="node42" class="node"><title>41</title>
<path fill="#f6d3ff" stroke="black" d="M913.5,-38C913.5,-38 875.5,-38 875.5,-38 869.5,-38 863.5,-32 863.5,-26 863.5,-26 863.5,-12 863.5,-12 863.5,-6 869.5,-0 875.5,-0 875.5,-0 913.5,-0 913.5,-0 919.5,-0 925.5,-6 925.5,-12 925.5,-12 925.5,-26 925.5,-26 925.5,-32 919.5,-38 913.5,-38"/>
<text text-anchor="middle" x="894.5" y="-22.8" font-family="Times,serif" font-size="14.00">forward</text>
<text text-anchor="middle" x="894.5" y="-7.8" font-family="Times,serif" font-size="14.00">DB4/C1</text>
</g>
<!-- 23&#45;&gt;41 -->
<g id="edge40" class="edge"><title>23&#45;&gt;41</title>
<path fill="none" stroke="black" d="M954.376,-73.8129C944.675,-65.0944 932.717,-54.3466 922.044,-44.7544"/>
<polygon fill="black" stroke="black" points="924.327,-42.1009 914.55,-38.0196 919.648,-47.3072 924.327,-42.1009"/>
</g>
<!-- 42 -->
<g id="node43" class="node"><title>42</title>
<path fill="#debfe6" stroke="black" d="M991.5,-38C991.5,-38 955.5,-38 955.5,-38 949.5,-38 943.5,-32 943.5,-26 943.5,-26 943.5,-12 943.5,-12 943.5,-6 949.5,-0 955.5,-0 955.5,-0 991.5,-0 991.5,-0 997.5,-0 1003.5,-6 1003.5,-12 1003.5,-12 1003.5,-26 1003.5,-26 1003.5,-32 997.5,-38 991.5,-38"/>
<text text-anchor="middle" x="973.5" y="-22.8" font-family="Times,serif" font-size="14.00">merge</text>
<text text-anchor="middle" x="973.5" y="-7.8" font-family="Times,serif" font-size="14.00">EB3/C1</text>
</g>
<!-- 23&#45;&gt;42 -->
<g id="edge41" class="edge"><title>23&#45;&gt;42</title>
<path fill="none" stroke="black" d="M973.5,-73.8129C973.5,-66.1101 973.5,-56.8234 973.5,-48.149"/>
<polygon fill="black" stroke="black" points="977,-48.0195 973.5,-38.0196 970,-48.0196 977,-48.0195"/>
</g>
<!-- 43 -->
<g id="node44" class="node"><title>43</title>
<path fill="#f6d3ff" stroke="black" d="M1071.5,-38C1071.5,-38 1033.5,-38 1033.5,-38 1027.5,-38 1021.5,-32 1021.5,-26 1021.5,-26 1021.5,-12 1021.5,-12 1021.5,-6 1027.5,-0 1033.5,-0 1033.5,-0 1071.5,-0 1071.5,-0 1077.5,-0 1083.5,-6 1083.5,-12 1083.5,-12 1083.5,-26 1083.5,-26 1083.5,-32 1077.5,-38 1071.5,-38"/>
<text text-anchor="middle" x="1052.5" y="-22.8" font-family="Times,serif" font-size="14.00">forward</text>
<text text-anchor="middle" x="1052.5" y="-7.8" font-family="Times,serif" font-size="14.00">DB3/C0</text>
</g>
<!-- 24&#45;&gt;43 -->
<g id="edge42" class="edge"><title>24&#45;&gt;43</title>
<path fill="none" stroke="black" d="M1050.98,-73.8129C1051.2,-66.1101 1051.46,-56.8234 1051.71,-48.149"/>
<polygon fill="black" stroke="black" points="1055.21,-48.1142 1051.99,-38.0196 1048.21,-47.917 1055.21,-48.1142"/>
</g>
<!-- 44 -->
<g id="node45" class="node"><title>44</title>
<path fill="#f6d3ff" stroke="black" d="M1151.5,-38C1151.5,-38 1113.5,-38 1113.5,-38 1107.5,-38 1101.5,-32 1101.5,-26 1101.5,-26 1101.5,-12 1101.5,-12 1101.5,-6 1107.5,-0 1113.5,-0 1113.5,-0 1151.5,-0 1151.5,-0 1157.5,-0 1163.5,-6 1163.5,-12 1163.5,-12 1163.5,-26 1163.5,-26 1163.5,-32 1157.5,-38 1151.5,-38"/>
<text text-anchor="middle" x="1132.5" y="-22.8" font-family="Times,serif" font-size="14.00">forward</text>
<text text-anchor="middle" x="1132.5" y="-7.8" font-family="Times,serif" font-size="14.00">DB3/C1</text>
</g>
<!-- 25&#45;&gt;44 -->
<g id="edge43" class="edge"><title>25&#45;&gt;44</title>
<path fill="none" stroke="black" d="M1192.38,-73.8129C1182.68,-65.0944 1170.72,-54.3466 1160.04,-44.7544"/>
<polygon fill="black" stroke="black" points="1162.33,-42.1009 1152.55,-38.0196 1157.65,-47.3072 1162.33,-42.1009"/>
</g>
<!-- 45 -->
<g id="node46" class="node"><title>45</title>
<path fill="#debfe6" stroke="black" d="M1229.5,-38C1229.5,-38 1193.5,-38 1193.5,-38 1187.5,-38 1181.5,-32 1181.5,-26 1181.5,-26 1181.5,-12 1181.5,-12 1181.5,-6 1187.5,-0 1193.5,-0 1193.5,-0 1229.5,-0 1229.5,-0 1235.5,-0 1241.5,-6 1241.5,-12 1241.5,-12 1241.5,-26 1241.5,-26 1241.5,-32 1235.5,-38 1229.5,-38"/>
<text text-anchor="middle" x="1211.5" y="-22.8" font-family="Times,serif" font-size="14.00">merge</text>
<text text-anchor="middle" x="1211.5" y="-7.8" font-family="Times,serif" font-size="14.00">EB2/C1</text>
</g>
<!-- 25&#45;&gt;45 -->
<g id="edge44" class="edge"><title>25&#45;&gt;45</title>
<path fill="none" stroke="black" d="M1211.5,-73.8129C1211.5,-66.1101 1211.5,-56.8234 1211.5,-48.149"/>
<polygon fill="black" stroke="black" points="1215,-48.0195 1211.5,-38.0196 1208,-48.0196 1215,-48.0195"/>
</g>
<!-- 46 -->
<g id="node47" class="node"><title>46</title>
<path fill="#f6d3ff" stroke="black" d="M1309.5,-38C1309.5,-38 1271.5,-38 1271.5,-38 1265.5,-38 1259.5,-32 1259.5,-26 1259.5,-26 1259.5,-12 1259.5,-12 1259.5,-6 1265.5,-0 1271.5,-0 1271.5,-0 1309.5,-0 1309.5,-0 1315.5,-0 1321.5,-6 1321.5,-12 1321.5,-12 1321.5,-26 1321.5,-26 1321.5,-32 1315.5,-38 1309.5,-38"/>
<text text-anchor="middle" x="1290.5" y="-22.8" font-family="Times,serif" font-size="14.00">forward</text>
<text text-anchor="middle" x="1290.5" y="-7.8" font-family="Times,serif" font-size="14.00">DB2/C0</text>
</g>
<!-- 26&#45;&gt;46 -->
<g id="edge45" class="edge"><title>26&#45;&gt;46</title>
<path fill="none" stroke="black" d="M1289.74,-73.8129C1289.85,-66.1101 1289.98,-56.8234 1290.1,-48.149"/>
<polygon fill="black" stroke="black" points="1293.6,-48.0679 1290.25,-38.0196 1286.61,-47.9692 1293.6,-48.0679"/>
</g>
<!-- 47 -->
<g id="node48" class="node"><title>47</title>
<path fill="#f6d3ff" stroke="black" d="M1389.5,-38C1389.5,-38 1351.5,-38 1351.5,-38 1345.5,-38 1339.5,-32 1339.5,-26 1339.5,-26 1339.5,-12 1339.5,-12 1339.5,-6 1345.5,-0 1351.5,-0 1351.5,-0 1389.5,-0 1389.5,-0 1395.5,-0 1401.5,-6 1401.5,-12 1401.5,-12 1401.5,-26 1401.5,-26 1401.5,-32 1395.5,-38 1389.5,-38"/>
<text text-anchor="middle" x="1370.5" y="-22.8" font-family="Times,serif" font-size="14.00">forward</text>
<text text-anchor="middle" x="1370.5" y="-7.8" font-family="Times,serif" font-size="14.00">DB2/C1</text>
</g>
<!-- 27&#45;&gt;47 -->
<g id="edge46" class="edge"><title>27&#45;&gt;47</title>
<path fill="none" stroke="black" d="M1428.86,-73.8129C1419.5,-65.179 1407.98,-54.5551 1397.65,-45.0341"/>
<polygon fill="black" stroke="black" points="1399.77,-42.2253 1390.04,-38.0196 1395.02,-47.3715 1399.77,-42.2253"/>
</g>
<!-- 48 -->
<g id="node49" class="node"><title>48</title>
<path fill="#debfe6" stroke="black" d="M1467.5,-38C1467.5,-38 1431.5,-38 1431.5,-38 1425.5,-38 1419.5,-32 1419.5,-26 1419.5,-26 1419.5,-12 1419.5,-12 1419.5,-6 1425.5,-0 1431.5,-0 1431.5,-0 1467.5,-0 1467.5,-0 1473.5,-0 1479.5,-6 1479.5,-12 1479.5,-12 1479.5,-26 1479.5,-26 1479.5,-32 1473.5,-38 1467.5,-38"/>
<text text-anchor="middle" x="1449.5" y="-22.8" font-family="Times,serif" font-size="14.00">merge</text>
<text text-anchor="middle" x="1449.5" y="-7.8" font-family="Times,serif" font-size="14.00">EB1/C1</text>
</g>
<!-- 27&#45;&gt;48 -->
<g id="edge47" class="edge"><title>27&#45;&gt;48</title>
<path fill="none" stroke="black" d="M1447.98,-73.8129C1448.2,-66.1101 1448.46,-56.8234 1448.71,-48.149"/>
<polygon fill="black" stroke="black" points="1452.21,-48.1142 1448.99,-38.0196 1445.21,-47.917 1452.21,-48.1142"/>
</g>
<!-- 49 -->
<g id="node50" class="node"><title>49</title>
<path fill="#f6d3ff" stroke="black" d="M1547.5,-38C1547.5,-38 1509.5,-38 1509.5,-38 1503.5,-38 1497.5,-32 1497.5,-26 1497.5,-26 1497.5,-12 1497.5,-12 1497.5,-6 1503.5,-0 1509.5,-0 1509.5,-0 1547.5,-0 1547.5,-0 1553.5,-0 1559.5,-6 1559.5,-12 1559.5,-12 1559.5,-26 1559.5,-26 1559.5,-32 1553.5,-38 1547.5,-38"/>
<text text-anchor="middle" x="1528.5" y="-22.8" font-family="Times,serif" font-size="14.00">forward</text>
<text text-anchor="middle" x="1528.5" y="-7.8" font-family="Times,serif" font-size="14.00">DB1/C0</text>
</g>
<!-- 28&#45;&gt;49 -->
<g id="edge48" class="edge"><title>28&#45;&gt;49</title>
<path fill="none" stroke="black" d="M1527.74,-73.8129C1527.85,-66.1101 1527.98,-56.8234 1528.1,-48.149"/>
<polygon fill="black" stroke="black" points="1531.6,-48.0679 1528.25,-38.0196 1524.61,-47.9692 1531.6,-48.0679"/>
</g>
<!-- 50 -->
<g id="node51" class="node"><title>50</title>
<path fill="#f6d3ff" stroke="black" d="M1627.5,-38C1627.5,-38 1589.5,-38 1589.5,-38 1583.5,-38 1577.5,-32 1577.5,-26 1577.5,-26 1577.5,-12 1577.5,-12 1577.5,-6 1583.5,-0 1589.5,-0 1589.5,-0 1627.5,-0 1627.5,-0 1633.5,-0 1639.5,-6 1639.5,-12 1639.5,-12 1639.5,-26 1639.5,-26 1639.5,-32 1633.5,-38 1627.5,-38"/>
<text text-anchor="middle" x="1608.5" y="-22.8" font-family="Times,serif" font-size="14.00">forward</text>
<text text-anchor="middle" x="1608.5" y="-7.8" font-family="Times,serif" font-size="14.00">DB1/C1</text>
</g>
<!-- 29&#45;&gt;50 -->
<g id="edge49" class="edge"><title>29&#45;&gt;50</title>
<path fill="none" stroke="black" d="M1623.66,-73.8129C1621.46,-66.0255 1618.82,-56.6191 1616.35,-47.8633"/>
<polygon fill="black" stroke="black" points="1619.66,-46.696 1613.58,-38.0196 1612.92,-48.594 1619.66,-46.696"/>
</g>
<!-- 51 -->
<g id="node52" class="node"><title>51</title>
<path fill="#debfe6" stroke="black" d="M1705.5,-38C1705.5,-38 1669.5,-38 1669.5,-38 1663.5,-38 1657.5,-32 1657.5,-26 1657.5,-26 1657.5,-12 1657.5,-12 1657.5,-6 1663.5,-0 1669.5,-0 1669.5,-0 1705.5,-0 1705.5,-0 1711.5,-0 1717.5,-6 1717.5,-12 1717.5,-12 1717.5,-26 1717.5,-26 1717.5,-32 1711.5,-38 1705.5,-38"/>
<text text-anchor="middle" x="1687.5" y="-22.8" font-family="Times,serif" font-size="14.00">merge</text>
<text text-anchor="middle" x="1687.5" y="-7.8" font-family="Times,serif" font-size="14.00">EB0/C1</text>
</g>
<!-- 29&#45;&gt;51 -->
<g id="edge50" class="edge"><title>29&#45;&gt;51</title>
<path fill="none" stroke="black" d="M1642.78,-73.8129C1649.75,-65.433 1658.27,-55.1783 1666,-45.877"/>
<polygon fill="black" stroke="black" points="1668.83,-47.9476 1672.53,-38.0196 1663.44,-43.4737 1668.83,-47.9476"/>
</g>
<!-- 52 -->
<g id="node53" class="node"><title>52</title>
<path fill="#f6d3ff" stroke="black" d="M1785.5,-38C1785.5,-38 1747.5,-38 1747.5,-38 1741.5,-38 1735.5,-32 1735.5,-26 1735.5,-26 1735.5,-12 1735.5,-12 1735.5,-6 1741.5,-0 1747.5,-0 1747.5,-0 1785.5,-0 1785.5,-0 1791.5,-0 1797.5,-6 1797.5,-12 1797.5,-12 1797.5,-26 1797.5,-26 1797.5,-32 1791.5,-38 1785.5,-38"/>
<text text-anchor="middle" x="1766.5" y="-22.8" font-family="Times,serif" font-size="14.00">forward</text>
<text text-anchor="middle" x="1766.5" y="-7.8" font-family="Times,serif" font-size="14.00">DB0/C0</text>
</g>
<!-- 30&#45;&gt;52 -->
<g id="edge51" class="edge"><title>30&#45;&gt;52</title>
<path fill="none" stroke="black" d="M1750.58,-73.8129C1752.89,-66.0255 1755.67,-56.6191 1758.26,-47.8633"/>
<polygon fill="black" stroke="black" points="1761.69,-48.6016 1761.17,-38.0196 1754.98,-46.6162 1761.69,-48.6016"/>
</g>
<!-- 53 -->
<g id="node54" class="node"><title>53</title>
<path fill="#ffd3d3" stroke="black" d="M1266,-339.5C1266,-339.5 1203,-339.5 1203,-339.5 1197,-339.5 1191,-333.5 1191,-327.5 1191,-327.5 1191,-313.5 1191,-313.5 1191,-307.5 1197,-301.5 1203,-301.5 1203,-301.5 1266,-301.5 1266,-301.5 1272,-301.5 1278,-307.5 1278,-313.5 1278,-313.5 1278,-327.5 1278,-327.5 1278,-333.5 1272,-339.5 1266,-339.5"/>
<text text-anchor="middle" x="1234.5" y="-324.3" font-family="Times,serif" font-size="14.00">predictor</text>
<text text-anchor="middle" x="1234.5" y="-309.3" font-family="Times,serif" font-size="14.00">n kernels: 64</text>
</g>
<!-- 54 -->
<g id="node55" class="node"><title>54</title>
<path fill="#d3ffff" stroke="black" d="M1253.5,-258C1253.5,-258 1215.5,-258 1215.5,-258 1209.5,-258 1203.5,-252 1203.5,-246 1203.5,-246 1203.5,-232 1203.5,-232 1203.5,-226 1209.5,-220 1215.5,-220 1215.5,-220 1253.5,-220 1253.5,-220 1259.5,-220 1265.5,-226 1265.5,-232 1265.5,-232 1265.5,-246 1265.5,-246 1265.5,-252 1259.5,-258 1253.5,-258"/>
<text text-anchor="middle" x="1234.5" y="-242.8" font-family="Times,serif" font-size="14.00">forward</text>
<text text-anchor="middle" x="1234.5" y="-227.8" font-family="Times,serif" font-size="14.00">DB0/C1</text>
</g>
<!-- 53&#45;&gt;54 -->
<g id="edge52" class="edge"><title>53&#45;&gt;54</title>
<path fill="none" stroke="black" d="M1234.5,-301.46C1234.5,-291.67 1234.5,-279.345 1234.5,-268.307"/>
<polygon fill="black" stroke="black" points="1238,-268.244 1234.5,-258.244 1231,-268.244 1238,-268.244"/>
</g>
<!-- 55 -->
<g id="node56" class="node"><title>55</title>
<path fill="#ffd3d3" stroke="black" d="M1368.5,-338.5C1368.5,-338.5 1338.5,-338.5 1338.5,-338.5 1332.5,-338.5 1326.5,-332.5 1326.5,-326.5 1326.5,-326.5 1326.5,-314.5 1326.5,-314.5 1326.5,-308.5 1332.5,-302.5 1338.5,-302.5 1338.5,-302.5 1368.5,-302.5 1368.5,-302.5 1374.5,-302.5 1380.5,-308.5 1380.5,-314.5 1380.5,-314.5 1380.5,-326.5 1380.5,-326.5 1380.5,-332.5 1374.5,-338.5 1368.5,-338.5"/>
<text text-anchor="middle" x="1353.5" y="-316.8" font-family="Times,serif" font-size="14.00">crfrnn</text>
</g>
<!-- 56 -->
<g id="node57" class="node"><title>56</title>
<path fill="#d3ffff" stroke="black" d="M1325.5,-258C1325.5,-258 1295.5,-258 1295.5,-258 1289.5,-258 1283.5,-252 1283.5,-246 1283.5,-246 1283.5,-232 1283.5,-232 1283.5,-226 1289.5,-220 1295.5,-220 1295.5,-220 1325.5,-220 1325.5,-220 1331.5,-220 1337.5,-226 1337.5,-232 1337.5,-232 1337.5,-246 1337.5,-246 1337.5,-252 1331.5,-258 1325.5,-258"/>
<text text-anchor="middle" x="1310.5" y="-242.8" font-family="Times,serif" font-size="14.00">image</text>
<text text-anchor="middle" x="1310.5" y="-227.8" font-family="Times,serif" font-size="14.00">input</text>
</g>
<!-- 55&#45;&gt;56 -->
<g id="edge53" class="edge"><title>55&#45;&gt;56</title>
<path fill="none" stroke="black" d="M1344.17,-302.25C1338.6,-291.944 1331.39,-278.629 1325.08,-266.961"/>
<polygon fill="black" stroke="black" points="1328.1,-265.175 1320.26,-258.044 1321.94,-268.505 1328.1,-265.175"/>
</g>
<!-- 57 -->
<g id="node58" class="node"><title>57</title>
<path fill="#d3ffff" stroke="black" d="M1399.5,-258C1399.5,-258 1367.5,-258 1367.5,-258 1361.5,-258 1355.5,-252 1355.5,-246 1355.5,-246 1355.5,-232 1355.5,-232 1355.5,-226 1361.5,-220 1367.5,-220 1367.5,-220 1399.5,-220 1399.5,-220 1405.5,-220 1411.5,-226 1411.5,-232 1411.5,-232 1411.5,-246 1411.5,-246 1411.5,-252 1405.5,-258 1399.5,-258"/>
<text text-anchor="middle" x="1383.5" y="-242.8" font-family="Times,serif" font-size="14.00">unaries</text>
<text text-anchor="middle" x="1383.5" y="-227.8" font-family="Times,serif" font-size="14.00">P</text>
</g>
<!-- 55&#45;&gt;57 -->
<g id="edge54" class="edge"><title>55&#45;&gt;57</title>
<path fill="none" stroke="black" d="M1360.01,-302.25C1363.82,-292.148 1368.72,-279.156 1373.06,-267.656"/>
<polygon fill="black" stroke="black" points="1376.43,-268.636 1376.69,-258.044 1369.89,-266.165 1376.43,-268.636"/>
</g>
</g>
</svg>
