<?xml version="1.0" encoding="UTF-8" standalone="no"?>
<!DOCTYPE svg PUBLIC "-//W3C//DTD SVG 1.1//EN"
 "http://www.w3.org/Graphics/SVG/1.1/DTD/svg11.dtd">
<!-- Generated by graphviz version 2.38.0 (20140413.2041)
 -->
<!-- Title: %3 Pages: 1 -->
<svg width="3683pt" height="418pt"
 viewBox="0.00 0.00 3683.00 418.00" xmlns="http://www.w3.org/2000/svg" xmlns:xlink="http://www.w3.org/1999/xlink">
<g id="graph0" class="graph" transform="scale(1 1) rotate(0) translate(4 414)">
<title>%3</title>
<polygon fill="none" stroke="none" points="-4,4 -4,-414 3679,-414 3679,4 -4,4"/>
<!-- 0 -->
<g id="node1" class="node"><title>0</title>
<path fill="#ffd3d3" stroke="black" d="M2793,-410C2793,-410 2602,-410 2602,-410 2596,-410 2590,-404 2590,-398 2590,-398 2590,-369 2590,-369 2590,-363 2596,-357 2602,-357 2602,-357 2793,-357 2793,-357 2799,-357 2805,-363 2805,-369 2805,-369 2805,-398 2805,-398 2805,-404 2799,-410 2793,-410"/>
<text text-anchor="middle" x="2697.5" y="-394.8" font-family="Times,serif" font-size="14.00">net</text>
<text text-anchor="middle" x="2697.5" y="-379.8" font-family="Times,serif" font-size="14.00">k width: 3 &#160;&#160;log gamma2: &#45;5.043642</text>
<text text-anchor="middle" x="2697.5" y="-364.8" font-family="Times,serif" font-size="14.00">n kernels: 95</text>
</g>
<!-- 1 -->
<g id="node2" class="node"><title>1</title>
<path fill="#e9ffd3" stroke="black" d="M1181.5,-313.5C1181.5,-313.5 1061.5,-313.5 1061.5,-313.5 1055.5,-313.5 1049.5,-307.5 1049.5,-301.5 1049.5,-301.5 1049.5,-287.5 1049.5,-287.5 1049.5,-281.5 1055.5,-275.5 1061.5,-275.5 1061.5,-275.5 1181.5,-275.5 1181.5,-275.5 1187.5,-275.5 1193.5,-281.5 1193.5,-287.5 1193.5,-287.5 1193.5,-301.5 1193.5,-301.5 1193.5,-307.5 1187.5,-313.5 1181.5,-313.5"/>
<text text-anchor="middle" x="1121.5" y="-298.3" font-family="Times,serif" font-size="14.00">conv block 0</text>
<text text-anchor="middle" x="1121.5" y="-283.3" font-family="Times,serif" font-size="14.00">log gamma1: 1.610147</text>
</g>
<!-- 0&#45;&gt;1 -->
<g id="edge1" class="edge"><title>0&#45;&gt;1</title>
<path fill="none" stroke="black" d="M2589.8,-376.554C2293.03,-360.172 1468.07,-314.631 1203.96,-300.052"/>
<polygon fill="black" stroke="black" points="1203.86,-296.541 1193.68,-299.484 1203.47,-303.53 1203.86,-296.541"/>
</g>
<!-- 2 -->
<g id="node3" class="node"><title>2</title>
<path fill="#e9ffd3" stroke="black" d="M2800.5,-321C2800.5,-321 2594.5,-321 2594.5,-321 2588.5,-321 2582.5,-315 2582.5,-309 2582.5,-309 2582.5,-280 2582.5,-280 2582.5,-274 2588.5,-268 2594.5,-268 2594.5,-268 2800.5,-268 2800.5,-268 2806.5,-268 2812.5,-274 2812.5,-280 2812.5,-280 2812.5,-309 2812.5,-309 2812.5,-315 2806.5,-321 2800.5,-321"/>
<text text-anchor="middle" x="2697.5" y="-305.8" font-family="Times,serif" font-size="14.00">conv block 1</text>
<text text-anchor="middle" x="2697.5" y="-290.8" font-family="Times,serif" font-size="14.00">log gamma2: &#45;1.373926 &#160;&#160;n kernels: 95</text>
<text text-anchor="middle" x="2697.5" y="-275.8" font-family="Times,serif" font-size="14.00">pool z: 1 &#160;&#160;spatial scale: 1</text>
</g>
<!-- 0&#45;&gt;2 -->
<g id="edge2" class="edge"><title>0&#45;&gt;2</title>
<path fill="none" stroke="black" d="M2697.5,-356.868C2697.5,-348.886 2697.5,-339.932 2697.5,-331.384"/>
<polygon fill="black" stroke="black" points="2701,-331.25 2697.5,-321.25 2694,-331.25 2701,-331.25"/>
</g>
<!-- 3 -->
<g id="node4" class="node"><title>3</title>
<path fill="#e9ffd3" stroke="black" d="M3233,-312.5C3233,-312.5 3166,-312.5 3166,-312.5 3160,-312.5 3154,-306.5 3154,-300.5 3154,-300.5 3154,-288.5 3154,-288.5 3154,-282.5 3160,-276.5 3166,-276.5 3166,-276.5 3233,-276.5 3233,-276.5 3239,-276.5 3245,-282.5 3245,-288.5 3245,-288.5 3245,-300.5 3245,-300.5 3245,-306.5 3239,-312.5 3233,-312.5"/>
<text text-anchor="middle" x="3199.5" y="-290.8" font-family="Times,serif" font-size="14.00">path combine</text>
</g>
<!-- 0&#45;&gt;3 -->
<g id="edge3" class="edge"><title>0&#45;&gt;3</title>
<path fill="none" stroke="black" d="M2805.19,-363.836C2909.07,-345.833 3062.2,-319.295 3143.69,-305.172"/>
<polygon fill="black" stroke="black" points="3144.49,-308.586 3153.75,-303.43 3143.29,-301.689 3144.49,-308.586"/>
</g>
<!-- 4 -->
<g id="node5" class="node"><title>4</title>
<path fill="#d3ffff" stroke="black" d="M356,-202C356,-202 295,-202 295,-202 289,-202 283,-196 283,-190 283,-190 283,-176 283,-176 283,-170 289,-164 295,-164 295,-164 356,-164 356,-164 362,-164 368,-170 368,-176 368,-176 368,-190 368,-190 368,-196 362,-202 356,-202"/>
<text text-anchor="middle" x="325.5" y="-186.8" font-family="Times,serif" font-size="14.00">comp 0</text>
<text text-anchor="middle" x="325.5" y="-171.8" font-family="Times,serif" font-size="14.00">n kernels: &#45;1</text>
</g>
<!-- 1&#45;&gt;4 -->
<g id="edge4" class="edge"><title>1&#45;&gt;4</title>
<path fill="none" stroke="black" d="M1049.07,-288.103C940.352,-279.458 728.698,-260.527 550.5,-232 491.101,-222.491 423.716,-207.557 378.301,-196.872"/>
<polygon fill="black" stroke="black" points="378.924,-193.423 368.387,-194.525 377.312,-200.235 378.924,-193.423"/>
</g>
<!-- 5 -->
<g id="node6" class="node"><title>5</title>
<path fill="#bfe6e6" stroke="black" d="M697,-202C697,-202 572,-202 572,-202 566,-202 560,-196 560,-190 560,-190 560,-176 560,-176 560,-170 566,-164 572,-164 572,-164 697,-164 697,-164 703,-164 709,-170 709,-176 709,-176 709,-190 709,-190 709,-196 703,-202 697,-202"/>
<text text-anchor="middle" x="634.5" y="-186.8" font-family="Times,serif" font-size="14.00">comp 1</text>
<text text-anchor="middle" x="634.5" y="-171.8" font-family="Times,serif" font-size="14.00">log gamma1: &#45;0.874041</text>
</g>
<!-- 1&#45;&gt;5 -->
<g id="edge5" class="edge"><title>1&#45;&gt;5</title>
<path fill="none" stroke="black" d="M1049.38,-277.284C961.371,-257.496 812.778,-224.085 719.356,-203.079"/>
<polygon fill="black" stroke="black" points="719.893,-199.613 709.369,-200.834 718.357,-206.442 719.893,-199.613"/>
</g>
<!-- 6 -->
<g id="node7" class="node"><title>6</title>
<path fill="#abcece" stroke="black" d="M931.5,-201C931.5,-201 897.5,-201 897.5,-201 891.5,-201 885.5,-195 885.5,-189 885.5,-189 885.5,-177 885.5,-177 885.5,-171 891.5,-165 897.5,-165 897.5,-165 931.5,-165 931.5,-165 937.5,-165 943.5,-171 943.5,-177 943.5,-177 943.5,-189 943.5,-189 943.5,-195 937.5,-201 931.5,-201"/>
<text text-anchor="middle" x="914.5" y="-179.3" font-family="Times,serif" font-size="14.00">comp 2</text>
</g>
<!-- 1&#45;&gt;6 -->
<g id="edge6" class="edge"><title>1&#45;&gt;6</title>
<path fill="none" stroke="black" d="M1087.32,-275.418C1050.22,-255.792 991.12,-224.531 952.564,-204.135"/>
<polygon fill="black" stroke="black" points="954.185,-201.033 943.709,-199.451 950.912,-207.221 954.185,-201.033"/>
</g>
<!-- 7 -->
<g id="node8" class="node"><title>7</title>
<path fill="#97b6b6" stroke="black" d="M1153,-202C1153,-202 1090,-202 1090,-202 1084,-202 1078,-196 1078,-190 1078,-190 1078,-176 1078,-176 1078,-170 1084,-164 1090,-164 1090,-164 1153,-164 1153,-164 1159,-164 1165,-170 1165,-176 1165,-176 1165,-190 1165,-190 1165,-196 1159,-202 1153,-202"/>
<text text-anchor="middle" x="1121.5" y="-186.8" font-family="Times,serif" font-size="14.00">comp 3</text>
<text text-anchor="middle" x="1121.5" y="-171.8" font-family="Times,serif" font-size="14.00">n kernels: 10</text>
</g>
<!-- 1&#45;&gt;7 -->
<g id="edge7" class="edge"><title>1&#45;&gt;7</title>
<path fill="none" stroke="black" d="M1121.5,-275.418C1121.5,-258.221 1121.5,-232.089 1121.5,-212.163"/>
<polygon fill="black" stroke="black" points="1125,-212.109 1121.5,-202.109 1118,-212.109 1125,-212.109"/>
</g>
<!-- 8 -->
<g id="node9" class="node"><title>8</title>
<path fill="#839e9e" stroke="black" d="M1410.5,-202C1410.5,-202 1290.5,-202 1290.5,-202 1284.5,-202 1278.5,-196 1278.5,-190 1278.5,-190 1278.5,-176 1278.5,-176 1278.5,-170 1284.5,-164 1290.5,-164 1290.5,-164 1410.5,-164 1410.5,-164 1416.5,-164 1422.5,-170 1422.5,-176 1422.5,-176 1422.5,-190 1422.5,-190 1422.5,-196 1416.5,-202 1410.5,-202"/>
<text text-anchor="middle" x="1350.5" y="-186.8" font-family="Times,serif" font-size="14.00">comp 4</text>
<text text-anchor="middle" x="1350.5" y="-171.8" font-family="Times,serif" font-size="14.00">log gamma2: 1.291575</text>
</g>
<!-- 1&#45;&gt;8 -->
<g id="edge8" class="edge"><title>1&#45;&gt;8</title>
<path fill="none" stroke="black" d="M1159.31,-275.418C1198.84,-256.517 1260.94,-226.824 1303.58,-206.438"/>
<polygon fill="black" stroke="black" points="1305.12,-209.58 1312.63,-202.109 1302.1,-203.265 1305.12,-209.58"/>
</g>
<!-- 9 -->
<g id="node10" class="node"><title>9</title>
<path fill="#6f8585" stroke="black" d="M1760.5,-202C1760.5,-202 1560.5,-202 1560.5,-202 1554.5,-202 1548.5,-196 1548.5,-190 1548.5,-190 1548.5,-176 1548.5,-176 1548.5,-170 1554.5,-164 1560.5,-164 1560.5,-164 1760.5,-164 1760.5,-164 1766.5,-164 1772.5,-170 1772.5,-176 1772.5,-176 1772.5,-190 1772.5,-190 1772.5,-196 1766.5,-202 1760.5,-202"/>
<text text-anchor="middle" x="1660.5" y="-186.8" font-family="Times,serif" font-size="14.00">comp 5</text>
<text text-anchor="middle" x="1660.5" y="-171.8" font-family="Times,serif" font-size="14.00">log gamma2: 1.908732 &#160;&#160;n kernels: &#45;8</text>
</g>
<!-- 1&#45;&gt;9 -->
<g id="edge9" class="edge"><title>1&#45;&gt;9</title>
<path fill="none" stroke="black" d="M1193.58,-279.429C1256.44,-267.103 1350.05,-248.615 1431.5,-232 1475.53,-223.018 1524.27,-212.835 1565.43,-204.167"/>
<polygon fill="black" stroke="black" points="1566.39,-207.542 1575.45,-202.055 1564.94,-200.693 1566.39,-207.542"/>
</g>
<!-- 10 -->
<g id="node11" class="node"><title>10</title>
<path fill="#d3ffff" stroke="black" d="M2248.5,-202C2248.5,-202 2128.5,-202 2128.5,-202 2122.5,-202 2116.5,-196 2116.5,-190 2116.5,-190 2116.5,-176 2116.5,-176 2116.5,-170 2122.5,-164 2128.5,-164 2128.5,-164 2248.5,-164 2248.5,-164 2254.5,-164 2260.5,-170 2260.5,-176 2260.5,-176 2260.5,-190 2260.5,-190 2260.5,-196 2254.5,-202 2248.5,-202"/>
<text text-anchor="middle" x="2188.5" y="-186.8" font-family="Times,serif" font-size="14.00">comp 0</text>
<text text-anchor="middle" x="2188.5" y="-171.8" font-family="Times,serif" font-size="14.00">log gamma1: 1.946160</text>
</g>
<!-- 2&#45;&gt;10 -->
<g id="edge10" class="edge"><title>2&#45;&gt;10</title>
<path fill="none" stroke="black" d="M2582.49,-274.204C2519.12,-263.021 2439.2,-248.01 2368.5,-232 2333.05,-223.973 2294.04,-213.744 2261.43,-204.793"/>
<polygon fill="black" stroke="black" points="2262.09,-201.346 2251.52,-202.06 2260.23,-208.093 2262.09,-201.346"/>
</g>
<!-- 11 -->
<g id="node12" class="node"><title>11</title>
<path fill="#bfe6e6" stroke="black" d="M2515,-202C2515,-202 2390,-202 2390,-202 2384,-202 2378,-196 2378,-190 2378,-190 2378,-176 2378,-176 2378,-170 2384,-164 2390,-164 2390,-164 2515,-164 2515,-164 2521,-164 2527,-170 2527,-176 2527,-176 2527,-190 2527,-190 2527,-196 2521,-202 2515,-202"/>
<text text-anchor="middle" x="2452.5" y="-186.8" font-family="Times,serif" font-size="14.00">comp 1</text>
<text text-anchor="middle" x="2452.5" y="-171.8" font-family="Times,serif" font-size="14.00">log gamma2: &#45;0.959642</text>
</g>
<!-- 2&#45;&gt;11 -->
<g id="edge11" class="edge"><title>2&#45;&gt;11</title>
<path fill="none" stroke="black" d="M2640.37,-267.965C2598.48,-249.243 2542.17,-224.076 2502.15,-206.19"/>
<polygon fill="black" stroke="black" points="2503.41,-202.921 2492.85,-202.036 2500.56,-209.312 2503.41,-202.921"/>
</g>
<!-- 12 -->
<g id="node13" class="node"><title>12</title>
<path fill="#abcece" stroke="black" d="M2760,-202C2760,-202 2635,-202 2635,-202 2629,-202 2623,-196 2623,-190 2623,-190 2623,-176 2623,-176 2623,-170 2629,-164 2635,-164 2635,-164 2760,-164 2760,-164 2766,-164 2772,-170 2772,-176 2772,-176 2772,-190 2772,-190 2772,-196 2766,-202 2760,-202"/>
<text text-anchor="middle" x="2697.5" y="-186.8" font-family="Times,serif" font-size="14.00">comp 2</text>
<text text-anchor="middle" x="2697.5" y="-171.8" font-family="Times,serif" font-size="14.00">log gamma1: &#45;0.400354</text>
</g>
<!-- 2&#45;&gt;12 -->
<g id="edge12" class="edge"><title>2&#45;&gt;12</title>
<path fill="none" stroke="black" d="M2697.5,-267.827C2697.5,-251.18 2697.5,-229.482 2697.5,-212.332"/>
<polygon fill="black" stroke="black" points="2701,-212.327 2697.5,-202.327 2694,-212.327 2701,-212.327"/>
</g>
<!-- 13 -->
<g id="node14" class="node"><title>13</title>
<path fill="#97b6b6" stroke="black" d="M2835.5,-201C2835.5,-201 2801.5,-201 2801.5,-201 2795.5,-201 2789.5,-195 2789.5,-189 2789.5,-189 2789.5,-177 2789.5,-177 2789.5,-171 2795.5,-165 2801.5,-165 2801.5,-165 2835.5,-165 2835.5,-165 2841.5,-165 2847.5,-171 2847.5,-177 2847.5,-177 2847.5,-189 2847.5,-189 2847.5,-195 2841.5,-201 2835.5,-201"/>
<text text-anchor="middle" x="2818.5" y="-179.3" font-family="Times,serif" font-size="14.00">comp 3</text>
</g>
<!-- 2&#45;&gt;13 -->
<g id="edge13" class="edge"><title>2&#45;&gt;13</title>
<path fill="none" stroke="black" d="M2736.37,-267.927C2750.89,-257.559 2767.1,-244.976 2780.5,-232 2787.56,-225.158 2794.49,-216.991 2800.45,-209.351"/>
<polygon fill="black" stroke="black" points="2803.25,-211.441 2806.5,-201.355 2797.67,-207.217 2803.25,-211.441"/>
</g>
<!-- 14 -->
<g id="node15" class="node"><title>14</title>
<path fill="#839e9e" stroke="black" d="M3017,-202C3017,-202 2878,-202 2878,-202 2872,-202 2866,-196 2866,-190 2866,-190 2866,-176 2866,-176 2866,-170 2872,-164 2878,-164 2878,-164 3017,-164 3017,-164 3023,-164 3029,-170 3029,-176 3029,-176 3029,-190 3029,-190 3029,-196 3023,-202 3017,-202"/>
<text text-anchor="middle" x="2947.5" y="-186.8" font-family="Times,serif" font-size="14.00">path end 1</text>
<text text-anchor="middle" x="2947.5" y="-171.8" font-family="Times,serif" font-size="14.00">k width: &#45;2 &#160;&#160;n kernels: &#45;95</text>
</g>
<!-- 2&#45;&gt;14 -->
<g id="edge14" class="edge"><title>2&#45;&gt;14</title>
<path fill="none" stroke="black" d="M2768.68,-267.991C2796.39,-257.536 2828.22,-244.877 2856.5,-232 2873.21,-224.39 2891.18,-215.15 2906.7,-206.817"/>
<polygon fill="black" stroke="black" points="2908.4,-209.876 2915.53,-202.034 2905.07,-203.722 2908.4,-209.876"/>
</g>
<!-- 15 -->
<g id="node16" class="node"><title>15</title>
<path fill="#d3ffff" stroke="black" d="M3340,-232C3340,-232 3059,-232 3059,-232 3053,-232 3047,-226 3047,-220 3047,-220 3047,-146 3047,-146 3047,-140 3053,-134 3059,-134 3059,-134 3340,-134 3340,-134 3346,-134 3352,-140 3352,-146 3352,-146 3352,-220 3352,-220 3352,-226 3346,-232 3340,-232"/>
<text text-anchor="middle" x="3199.5" y="-216.8" font-family="Times,serif" font-size="14.00">forward</text>
<text text-anchor="middle" x="3199.5" y="-201.8" font-family="Times,serif" font-size="14.00">CB0/C5</text>
<text text-anchor="middle" x="3199.5" y="-186.8" font-family="Times,serif" font-size="14.00">dilation rate: 1 &#160;&#160;k width: 3</text>
<text text-anchor="middle" x="3199.5" y="-171.8" font-family="Times,serif" font-size="14.00">log gamma1: &#45;11.000000 &#160;&#160;log gamma2: &#45;11.000000</text>
<text text-anchor="middle" x="3199.5" y="-156.8" font-family="Times,serif" font-size="14.00">log lambda1: &#45;11.000000 &#160;&#160;log lambda2: &#45;11.000000</text>
<text text-anchor="middle" x="3199.5" y="-141.8" font-family="Times,serif" font-size="14.00">n kernels: 64</text>
</g>
<!-- 3&#45;&gt;15 -->
<g id="edge15" class="edge"><title>3&#45;&gt;15</title>
<path fill="none" stroke="black" d="M3199.5,-276.391C3199.5,-266.993 3199.5,-254.728 3199.5,-242.22"/>
<polygon fill="black" stroke="black" points="3203,-242.188 3199.5,-232.188 3196,-242.188 3203,-242.188"/>
</g>
<!-- 16 -->
<g id="node17" class="node"><title>16</title>
<path fill="#bfe6e6" stroke="black" d="M3663,-232C3663,-232 3382,-232 3382,-232 3376,-232 3370,-226 3370,-220 3370,-220 3370,-146 3370,-146 3370,-140 3376,-134 3382,-134 3382,-134 3663,-134 3663,-134 3669,-134 3675,-140 3675,-146 3675,-146 3675,-220 3675,-220 3675,-226 3669,-232 3663,-232"/>
<text text-anchor="middle" x="3522.5" y="-216.8" font-family="Times,serif" font-size="14.00">merge 1</text>
<text text-anchor="middle" x="3522.5" y="-201.8" font-family="Times,serif" font-size="14.00">CB1/PE1</text>
<text text-anchor="middle" x="3522.5" y="-186.8" font-family="Times,serif" font-size="14.00">dilation rate: 1 &#160;&#160;k width: 3</text>
<text text-anchor="middle" x="3522.5" y="-171.8" font-family="Times,serif" font-size="14.00">log gamma1: &#45;11.000000 &#160;&#160;log gamma2: &#45;11.000000</text>
<text text-anchor="middle" x="3522.5" y="-156.8" font-family="Times,serif" font-size="14.00">log lambda1: &#45;11.000000 &#160;&#160;log lambda2: &#45;11.000000</text>
<text text-anchor="middle" x="3522.5" y="-141.8" font-family="Times,serif" font-size="14.00">n kernels: 64</text>
</g>
<!-- 3&#45;&gt;16 -->
<g id="edge16" class="edge"><title>3&#45;&gt;16</title>
<path fill="none" stroke="black" d="M3245.09,-278.044C3278.21,-266.816 3325.08,-250.928 3370.88,-235.402"/>
<polygon fill="black" stroke="black" points="3372.28,-238.621 3380.63,-232.096 3370.03,-231.991 3372.28,-238.621"/>
</g>
<!-- 17 -->
<g id="node18" class="node"><title>17</title>
<path fill="#e9d3ff" stroke="black" d="M293,-98C293,-98 12,-98 12,-98 6,-98 0,-92 0,-86 0,-86 0,-12 0,-12 0,-6 6,-0 12,-0 12,-0 293,-0 293,-0 299,-0 305,-6 305,-12 305,-12 305,-86 305,-86 305,-92 299,-98 293,-98"/>
<text text-anchor="middle" x="152.5" y="-82.8" font-family="Times,serif" font-size="14.00">forward</text>
<text text-anchor="middle" x="152.5" y="-67.8" font-family="Times,serif" font-size="14.00">input</text>
<text text-anchor="middle" x="152.5" y="-52.8" font-family="Times,serif" font-size="14.00">dilation rate: 1 &#160;&#160;k width: 3</text>
<text text-anchor="middle" x="152.5" y="-37.8" font-family="Times,serif" font-size="14.00">log gamma1: &#45;11.000000 &#160;&#160;log gamma2: &#45;11.000000</text>
<text text-anchor="middle" x="152.5" y="-22.8" font-family="Times,serif" font-size="14.00">log lambda1: &#45;11.000000 &#160;&#160;log lambda2: &#45;11.000000</text>
<text text-anchor="middle" x="152.5" y="-7.8" font-family="Times,serif" font-size="14.00">n kernels: 64</text>
</g>
<!-- 4&#45;&gt;17 -->
<g id="edge17" class="edge"><title>4&#45;&gt;17</title>
<path fill="none" stroke="black" d="M301.808,-163.923C281.678,-148.563 251.702,-125.692 223.88,-104.463"/>
<polygon fill="black" stroke="black" points="225.788,-101.517 215.715,-98.2336 221.542,-107.082 225.788,-101.517"/>
</g>
<!-- 18 -->
<g id="node19" class="node"><title>18</title>
<path fill="#e9d3ff" stroke="black" d="M616,-98C616,-98 335,-98 335,-98 329,-98 323,-92 323,-86 323,-86 323,-12 323,-12 323,-6 329,-0 335,-0 335,-0 616,-0 616,-0 622,-0 628,-6 628,-12 628,-12 628,-86 628,-86 628,-92 622,-98 616,-98"/>
<text text-anchor="middle" x="475.5" y="-82.8" font-family="Times,serif" font-size="14.00">forward</text>
<text text-anchor="middle" x="475.5" y="-67.8" font-family="Times,serif" font-size="14.00">CB0/C0</text>
<text text-anchor="middle" x="475.5" y="-52.8" font-family="Times,serif" font-size="14.00">dilation rate: 1 &#160;&#160;k width: 3</text>
<text text-anchor="middle" x="475.5" y="-37.8" font-family="Times,serif" font-size="14.00">log gamma1: &#45;11.000000 &#160;&#160;log gamma2: &#45;11.000000</text>
<text text-anchor="middle" x="475.5" y="-22.8" font-family="Times,serif" font-size="14.00">log lambda1: &#45;11.000000 &#160;&#160;log lambda2: &#45;11.000000</text>
<text text-anchor="middle" x="475.5" y="-7.8" font-family="Times,serif" font-size="14.00">n kernels: 64</text>
</g>
<!-- 5&#45;&gt;18 -->
<g id="edge18" class="edge"><title>5&#45;&gt;18</title>
<path fill="none" stroke="black" d="M612.725,-163.923C594.304,-148.629 566.91,-125.888 541.433,-104.737"/>
<polygon fill="black" stroke="black" points="543.529,-101.928 533.6,-98.2336 539.058,-107.314 543.529,-101.928"/>
</g>
<!-- 19 -->
<g id="node20" class="node"><title>19</title>
<path fill="#e9d3ff" stroke="black" d="M939,-98C939,-98 658,-98 658,-98 652,-98 646,-92 646,-86 646,-86 646,-12 646,-12 646,-6 652,-0 658,-0 658,-0 939,-0 939,-0 945,-0 951,-6 951,-12 951,-12 951,-86 951,-86 951,-92 945,-98 939,-98"/>
<text text-anchor="middle" x="798.5" y="-82.8" font-family="Times,serif" font-size="14.00">forward</text>
<text text-anchor="middle" x="798.5" y="-67.8" font-family="Times,serif" font-size="14.00">CB0/C1</text>
<text text-anchor="middle" x="798.5" y="-52.8" font-family="Times,serif" font-size="14.00">dilation rate: 1 &#160;&#160;k width: 3</text>
<text text-anchor="middle" x="798.5" y="-37.8" font-family="Times,serif" font-size="14.00">log gamma1: &#45;11.000000 &#160;&#160;log gamma2: &#45;11.000000</text>
<text text-anchor="middle" x="798.5" y="-22.8" font-family="Times,serif" font-size="14.00">log lambda1: &#45;11.000000 &#160;&#160;log lambda2: &#45;11.000000</text>
<text text-anchor="middle" x="798.5" y="-7.8" font-family="Times,serif" font-size="14.00">n kernels: 64</text>
</g>
<!-- 6&#45;&gt;19 -->
<g id="edge19" class="edge"><title>6&#45;&gt;19</title>
<path fill="none" stroke="black" d="M899.335,-164.743C886.153,-149.744 866.303,-127.155 847.691,-105.976"/>
<polygon fill="black" stroke="black" points="850.135,-103.455 840.904,-98.2533 844.877,-108.075 850.135,-103.455"/>
</g>
<!-- 20 -->
<g id="node21" class="node"><title>20</title>
<path fill="#e9d3ff" stroke="black" d="M1262,-98C1262,-98 981,-98 981,-98 975,-98 969,-92 969,-86 969,-86 969,-12 969,-12 969,-6 975,-0 981,-0 981,-0 1262,-0 1262,-0 1268,-0 1274,-6 1274,-12 1274,-12 1274,-86 1274,-86 1274,-92 1268,-98 1262,-98"/>
<text text-anchor="middle" x="1121.5" y="-82.8" font-family="Times,serif" font-size="14.00">forward</text>
<text text-anchor="middle" x="1121.5" y="-67.8" font-family="Times,serif" font-size="14.00">CB0/C2</text>
<text text-anchor="middle" x="1121.5" y="-52.8" font-family="Times,serif" font-size="14.00">dilation rate: 1 &#160;&#160;k width: 3</text>
<text text-anchor="middle" x="1121.5" y="-37.8" font-family="Times,serif" font-size="14.00">log gamma1: &#45;11.000000 &#160;&#160;log gamma2: &#45;11.000000</text>
<text text-anchor="middle" x="1121.5" y="-22.8" font-family="Times,serif" font-size="14.00">log lambda1: &#45;11.000000 &#160;&#160;log lambda2: &#45;11.000000</text>
<text text-anchor="middle" x="1121.5" y="-7.8" font-family="Times,serif" font-size="14.00">n kernels: 64</text>
</g>
<!-- 7&#45;&gt;20 -->
<g id="edge20" class="edge"><title>7&#45;&gt;20</title>
<path fill="none" stroke="black" d="M1121.5,-163.923C1121.5,-149.486 1121.5,-128.413 1121.5,-108.306"/>
<polygon fill="black" stroke="black" points="1125,-108.234 1121.5,-98.2336 1118,-108.234 1125,-108.234"/>
</g>
<!-- 21 -->
<g id="node22" class="node"><title>21</title>
<path fill="#e9d3ff" stroke="black" d="M1585,-98C1585,-98 1304,-98 1304,-98 1298,-98 1292,-92 1292,-86 1292,-86 1292,-12 1292,-12 1292,-6 1298,-0 1304,-0 1304,-0 1585,-0 1585,-0 1591,-0 1597,-6 1597,-12 1597,-12 1597,-86 1597,-86 1597,-92 1591,-98 1585,-98"/>
<text text-anchor="middle" x="1444.5" y="-82.8" font-family="Times,serif" font-size="14.00">forward</text>
<text text-anchor="middle" x="1444.5" y="-67.8" font-family="Times,serif" font-size="14.00">CB0/C3</text>
<text text-anchor="middle" x="1444.5" y="-52.8" font-family="Times,serif" font-size="14.00">dilation rate: 1 &#160;&#160;k width: 3</text>
<text text-anchor="middle" x="1444.5" y="-37.8" font-family="Times,serif" font-size="14.00">log gamma1: &#45;11.000000 &#160;&#160;log gamma2: &#45;11.000000</text>
<text text-anchor="middle" x="1444.5" y="-22.8" font-family="Times,serif" font-size="14.00">log lambda1: &#45;11.000000 &#160;&#160;log lambda2: &#45;11.000000</text>
<text text-anchor="middle" x="1444.5" y="-7.8" font-family="Times,serif" font-size="14.00">n kernels: 64</text>
</g>
<!-- 8&#45;&gt;21 -->
<g id="edge21" class="edge"><title>8&#45;&gt;21</title>
<path fill="none" stroke="black" d="M1363.37,-163.923C1373.98,-149.025 1389.62,-127.059 1404.35,-106.381"/>
<polygon fill="black" stroke="black" points="1407.2,-108.41 1410.15,-98.2336 1401.5,-104.349 1407.2,-108.41"/>
</g>
<!-- 22 -->
<g id="node23" class="node"><title>22</title>
<path fill="#e9d3ff" stroke="black" d="M1908,-98C1908,-98 1627,-98 1627,-98 1621,-98 1615,-92 1615,-86 1615,-86 1615,-12 1615,-12 1615,-6 1621,-0 1627,-0 1627,-0 1908,-0 1908,-0 1914,-0 1920,-6 1920,-12 1920,-12 1920,-86 1920,-86 1920,-92 1914,-98 1908,-98"/>
<text text-anchor="middle" x="1767.5" y="-82.8" font-family="Times,serif" font-size="14.00">forward</text>
<text text-anchor="middle" x="1767.5" y="-67.8" font-family="Times,serif" font-size="14.00">CB0/C4</text>
<text text-anchor="middle" x="1767.5" y="-52.8" font-family="Times,serif" font-size="14.00">dilation rate: 1 &#160;&#160;k width: 3</text>
<text text-anchor="middle" x="1767.5" y="-37.8" font-family="Times,serif" font-size="14.00">log gamma1: &#45;11.000000 &#160;&#160;log gamma2: &#45;11.000000</text>
<text text-anchor="middle" x="1767.5" y="-22.8" font-family="Times,serif" font-size="14.00">log lambda1: &#45;11.000000 &#160;&#160;log lambda2: &#45;11.000000</text>
<text text-anchor="middle" x="1767.5" y="-7.8" font-family="Times,serif" font-size="14.00">n kernels: 64</text>
</g>
<!-- 9&#45;&gt;22 -->
<g id="edge22" class="edge"><title>9&#45;&gt;22</title>
<path fill="none" stroke="black" d="M1675.15,-163.923C1687.28,-148.959 1705.19,-126.865 1722.02,-106.106"/>
<polygon fill="black" stroke="black" points="1724.82,-108.206 1728.4,-98.2336 1719.39,-103.798 1724.82,-108.206"/>
</g>
<!-- 23 -->
<g id="node24" class="node"><title>23</title>
<path fill="#e9d3ff" stroke="black" d="M2231,-98C2231,-98 1950,-98 1950,-98 1944,-98 1938,-92 1938,-86 1938,-86 1938,-12 1938,-12 1938,-6 1944,-0 1950,-0 1950,-0 2231,-0 2231,-0 2237,-0 2243,-6 2243,-12 2243,-12 2243,-86 2243,-86 2243,-92 2237,-98 2231,-98"/>
<text text-anchor="middle" x="2090.5" y="-82.8" font-family="Times,serif" font-size="14.00">forward</text>
<text text-anchor="middle" x="2090.5" y="-67.8" font-family="Times,serif" font-size="14.00">input</text>
<text text-anchor="middle" x="2090.5" y="-52.8" font-family="Times,serif" font-size="14.00">dilation rate: 1 &#160;&#160;k width: 3</text>
<text text-anchor="middle" x="2090.5" y="-37.8" font-family="Times,serif" font-size="14.00">log gamma1: &#45;11.000000 &#160;&#160;log gamma2: &#45;11.000000</text>
<text text-anchor="middle" x="2090.5" y="-22.8" font-family="Times,serif" font-size="14.00">log lambda1: &#45;11.000000 &#160;&#160;log lambda2: &#45;11.000000</text>
<text text-anchor="middle" x="2090.5" y="-7.8" font-family="Times,serif" font-size="14.00">n kernels: 64</text>
</g>
<!-- 10&#45;&gt;23 -->
<g id="edge23" class="edge"><title>10&#45;&gt;23</title>
<path fill="none" stroke="black" d="M2175.08,-163.923C2164.02,-149.025 2147.71,-127.059 2132.36,-106.381"/>
<polygon fill="black" stroke="black" points="2135.08,-104.176 2126.31,-98.2336 2129.46,-108.349 2135.08,-104.176"/>
</g>
<!-- 24 -->
<g id="node25" class="node"><title>24</title>
<path fill="#e9d3ff" stroke="black" d="M2554,-98C2554,-98 2273,-98 2273,-98 2267,-98 2261,-92 2261,-86 2261,-86 2261,-12 2261,-12 2261,-6 2267,-0 2273,-0 2273,-0 2554,-0 2554,-0 2560,-0 2566,-6 2566,-12 2566,-12 2566,-86 2566,-86 2566,-92 2560,-98 2554,-98"/>
<text text-anchor="middle" x="2413.5" y="-82.8" font-family="Times,serif" font-size="14.00">forward</text>
<text text-anchor="middle" x="2413.5" y="-67.8" font-family="Times,serif" font-size="14.00">CB1/C0</text>
<text text-anchor="middle" x="2413.5" y="-52.8" font-family="Times,serif" font-size="14.00">dilation rate: 1 &#160;&#160;k width: 3</text>
<text text-anchor="middle" x="2413.5" y="-37.8" font-family="Times,serif" font-size="14.00">log gamma1: &#45;11.000000 &#160;&#160;log gamma2: &#45;11.000000</text>
<text text-anchor="middle" x="2413.5" y="-22.8" font-family="Times,serif" font-size="14.00">log lambda1: &#45;11.000000 &#160;&#160;log lambda2: &#45;11.000000</text>
<text text-anchor="middle" x="2413.5" y="-7.8" font-family="Times,serif" font-size="14.00">n kernels: 64</text>
</g>
<!-- 11&#45;&gt;24 -->
<g id="edge24" class="edge"><title>11&#45;&gt;24</title>
<path fill="none" stroke="black" d="M2447.16,-163.923C2442.87,-149.42 2436.61,-128.221 2430.65,-108.03"/>
<polygon fill="black" stroke="black" points="2433.94,-106.832 2427.75,-98.2336 2427.23,-108.816 2433.94,-106.832"/>
</g>
<!-- 25 -->
<g id="node26" class="node"><title>25</title>
<path fill="#e9d3ff" stroke="black" d="M2877,-98C2877,-98 2596,-98 2596,-98 2590,-98 2584,-92 2584,-86 2584,-86 2584,-12 2584,-12 2584,-6 2590,-0 2596,-0 2596,-0 2877,-0 2877,-0 2883,-0 2889,-6 2889,-12 2889,-12 2889,-86 2889,-86 2889,-92 2883,-98 2877,-98"/>
<text text-anchor="middle" x="2736.5" y="-82.8" font-family="Times,serif" font-size="14.00">forward</text>
<text text-anchor="middle" x="2736.5" y="-67.8" font-family="Times,serif" font-size="14.00">CB1/C1</text>
<text text-anchor="middle" x="2736.5" y="-52.8" font-family="Times,serif" font-size="14.00">dilation rate: 1 &#160;&#160;k width: 3</text>
<text text-anchor="middle" x="2736.5" y="-37.8" font-family="Times,serif" font-size="14.00">log gamma1: &#45;11.000000 &#160;&#160;log gamma2: &#45;11.000000</text>
<text text-anchor="middle" x="2736.5" y="-22.8" font-family="Times,serif" font-size="14.00">log lambda1: &#45;11.000000 &#160;&#160;log lambda2: &#45;11.000000</text>
<text text-anchor="middle" x="2736.5" y="-7.8" font-family="Times,serif" font-size="14.00">n kernels: 64</text>
</g>
<!-- 12&#45;&gt;25 -->
<g id="edge25" class="edge"><title>12&#45;&gt;25</title>
<path fill="none" stroke="black" d="M2702.84,-163.923C2707.13,-149.42 2713.39,-128.221 2719.35,-108.03"/>
<polygon fill="black" stroke="black" points="2722.77,-108.816 2722.25,-98.2336 2716.06,-106.832 2722.77,-108.816"/>
</g>
<!-- 26 -->
<g id="node27" class="node"><title>26</title>
<path fill="#e9d3ff" stroke="black" d="M3200,-98C3200,-98 2919,-98 2919,-98 2913,-98 2907,-92 2907,-86 2907,-86 2907,-12 2907,-12 2907,-6 2913,-0 2919,-0 2919,-0 3200,-0 3200,-0 3206,-0 3212,-6 3212,-12 3212,-12 3212,-86 3212,-86 3212,-92 3206,-98 3200,-98"/>
<text text-anchor="middle" x="3059.5" y="-82.8" font-family="Times,serif" font-size="14.00">forward</text>
<text text-anchor="middle" x="3059.5" y="-67.8" font-family="Times,serif" font-size="14.00">CB1/C2</text>
<text text-anchor="middle" x="3059.5" y="-52.8" font-family="Times,serif" font-size="14.00">dilation rate: 1 &#160;&#160;k width: 3</text>
<text text-anchor="middle" x="3059.5" y="-37.8" font-family="Times,serif" font-size="14.00">log gamma1: &#45;11.000000 &#160;&#160;log gamma2: &#45;11.000000</text>
<text text-anchor="middle" x="3059.5" y="-22.8" font-family="Times,serif" font-size="14.00">log lambda1: &#45;11.000000 &#160;&#160;log lambda2: &#45;11.000000</text>
<text text-anchor="middle" x="3059.5" y="-7.8" font-family="Times,serif" font-size="14.00">n kernels: 64</text>
</g>
<!-- 13&#45;&gt;26 -->
<g id="edge26" class="edge"><title>13&#45;&gt;26</title>
<path fill="none" stroke="black" d="M2829.04,-164.613C2835.85,-154.574 2845.47,-142.326 2856.5,-134 2872.05,-122.257 2889.48,-111.855 2907.42,-102.727"/>
<polygon fill="black" stroke="black" points="2909.43,-105.639 2916.84,-98.0695 2906.33,-99.3641 2909.43,-105.639"/>
</g>
<!-- 27 -->
<g id="node28" class="node"><title>27</title>
<path fill="#e9d3ff" stroke="black" d="M3523,-98C3523,-98 3242,-98 3242,-98 3236,-98 3230,-92 3230,-86 3230,-86 3230,-12 3230,-12 3230,-6 3236,-0 3242,-0 3242,-0 3523,-0 3523,-0 3529,-0 3535,-6 3535,-12 3535,-12 3535,-86 3535,-86 3535,-92 3529,-98 3523,-98"/>
<text text-anchor="middle" x="3382.5" y="-82.8" font-family="Times,serif" font-size="14.00">forward</text>
<text text-anchor="middle" x="3382.5" y="-67.8" font-family="Times,serif" font-size="14.00">CB1/C3</text>
<text text-anchor="middle" x="3382.5" y="-52.8" font-family="Times,serif" font-size="14.00">dilation rate: 1 &#160;&#160;k width: 3</text>
<text text-anchor="middle" x="3382.5" y="-37.8" font-family="Times,serif" font-size="14.00">log gamma1: &#45;11.000000 &#160;&#160;log gamma2: &#45;11.000000</text>
<text text-anchor="middle" x="3382.5" y="-22.8" font-family="Times,serif" font-size="14.00">log lambda1: &#45;11.000000 &#160;&#160;log lambda2: &#45;11.000000</text>
<text text-anchor="middle" x="3382.5" y="-7.8" font-family="Times,serif" font-size="14.00">n kernels: 64</text>
</g>
<!-- 14&#45;&gt;27 -->
<g id="edge27" class="edge"><title>14&#45;&gt;27</title>
<path fill="none" stroke="black" d="M2976.08,-163.939C2993.3,-153.792 3015.98,-141.663 3037.5,-134 3112.69,-107.224 3138.12,-116.989 3220.23,-97.9569"/>
<polygon fill="black" stroke="black" points="3221.07,-101.355 3229.98,-95.6244 3219.44,-94.5467 3221.07,-101.355"/>
</g>
</g>
</svg>
