<?xml version="1.0" encoding="UTF-8" standalone="no"?>
<!DOCTYPE svg PUBLIC "-//W3C//DTD SVG 1.1//EN"
 "http://www.w3.org/Graphics/SVG/1.1/DTD/svg11.dtd">
<!-- Generated by graphviz version 2.38.0 (20140413.2041)
 -->
<!-- Title: %3 Pages: 1 -->
<svg width="3315pt" height="418pt"
 viewBox="0.00 0.00 3315.00 418.00" xmlns="http://www.w3.org/2000/svg" xmlns:xlink="http://www.w3.org/1999/xlink">
<g id="graph0" class="graph" transform="scale(1 1) rotate(0) translate(4 414)">
<title>%3</title>
<polygon fill="none" stroke="none" points="-4,4 -4,-414 3311,-414 3311,4 -4,4"/>
<!-- 0 -->
<g id="node1" class="node"><title>0</title>
<path fill="#ffd3d3" stroke="black" d="M1701,-410C1701,-410 1510,-410 1510,-410 1504,-410 1498,-404 1498,-398 1498,-398 1498,-369 1498,-369 1498,-363 1504,-357 1510,-357 1510,-357 1701,-357 1701,-357 1707,-357 1713,-363 1713,-369 1713,-369 1713,-398 1713,-398 1713,-404 1707,-410 1701,-410"/>
<text text-anchor="middle" x="1605.5" y="-394.8" font-family="Times,serif" font-size="14.00">net</text>
<text text-anchor="middle" x="1605.5" y="-379.8" font-family="Times,serif" font-size="14.00">k width: 3 &#160;&#160;log gamma2: &#45;3.536234</text>
<text text-anchor="middle" x="1605.5" y="-364.8" font-family="Times,serif" font-size="14.00">n kernels: 118</text>
</g>
<!-- 1 -->
<g id="node2" class="node"><title>1</title>
<path fill="#e9ffd3" stroke="black" d="M658,-313.5C658,-313.5 595,-313.5 595,-313.5 589,-313.5 583,-307.5 583,-301.5 583,-301.5 583,-287.5 583,-287.5 583,-281.5 589,-275.5 595,-275.5 595,-275.5 658,-275.5 658,-275.5 664,-275.5 670,-281.5 670,-287.5 670,-287.5 670,-301.5 670,-301.5 670,-307.5 664,-313.5 658,-313.5"/>
<text text-anchor="middle" x="626.5" y="-298.3" font-family="Times,serif" font-size="14.00">conv block 0</text>
<text text-anchor="middle" x="626.5" y="-283.3" font-family="Times,serif" font-size="14.00">n kernels: 1</text>
</g>
<!-- 0&#45;&gt;1 -->
<g id="edge1" class="edge"><title>0&#45;&gt;1</title>
<path fill="none" stroke="black" d="M1497.93,-372.941C1289.26,-354.397 836.351,-314.149 680.482,-300.297"/>
<polygon fill="black" stroke="black" points="680.485,-296.784 670.214,-299.385 679.865,-303.756 680.485,-296.784"/>
</g>
<!-- 2 -->
<g id="node3" class="node"><title>2</title>
<path fill="#e9ffd3" stroke="black" d="M1551,-321C1551,-321 1338,-321 1338,-321 1332,-321 1326,-315 1326,-309 1326,-309 1326,-280 1326,-280 1326,-274 1332,-268 1338,-268 1338,-268 1551,-268 1551,-268 1557,-268 1563,-274 1563,-280 1563,-280 1563,-309 1563,-309 1563,-315 1557,-321 1551,-321"/>
<text text-anchor="middle" x="1444.5" y="-305.8" font-family="Times,serif" font-size="14.00">conv block 1</text>
<text text-anchor="middle" x="1444.5" y="-290.8" font-family="Times,serif" font-size="14.00">log gamma1: &#45;0.123513 &#160;&#160;n kernels: 118</text>
<text text-anchor="middle" x="1444.5" y="-275.8" font-family="Times,serif" font-size="14.00">pool z: 1 &#160;&#160;spatial scale: 1</text>
</g>
<!-- 0&#45;&gt;2 -->
<g id="edge2" class="edge"><title>0&#45;&gt;2</title>
<path fill="none" stroke="black" d="M1558.07,-356.868C1540.13,-347.176 1519.54,-336.052 1500.87,-325.96"/>
<polygon fill="black" stroke="black" points="1502.34,-322.774 1491.87,-321.099 1499.01,-328.933 1502.34,-322.774"/>
</g>
<!-- 3 -->
<g id="node4" class="node"><title>3</title>
<path fill="#e9ffd3" stroke="black" d="M1992,-321C1992,-321 1779,-321 1779,-321 1773,-321 1767,-315 1767,-309 1767,-309 1767,-280 1767,-280 1767,-274 1773,-268 1779,-268 1779,-268 1992,-268 1992,-268 1998,-268 2004,-274 2004,-280 2004,-280 2004,-309 2004,-309 2004,-315 1998,-321 1992,-321"/>
<text text-anchor="middle" x="1885.5" y="-305.8" font-family="Times,serif" font-size="14.00">conv block 2</text>
<text text-anchor="middle" x="1885.5" y="-290.8" font-family="Times,serif" font-size="14.00">log gamma1: &#45;0.034889 &#160;&#160;n kernels: 354</text>
<text text-anchor="middle" x="1885.5" y="-275.8" font-family="Times,serif" font-size="14.00">spatial scale: 2</text>
</g>
<!-- 0&#45;&gt;3 -->
<g id="edge3" class="edge"><title>0&#45;&gt;3</title>
<path fill="none" stroke="black" d="M1687.62,-356.985C1720.81,-346.672 1759.27,-334.721 1793.41,-324.114"/>
<polygon fill="black" stroke="black" points="1794.87,-327.324 1803.38,-321.015 1792.8,-320.639 1794.87,-327.324"/>
</g>
<!-- 4 -->
<g id="node5" class="node"><title>4</title>
<path fill="#e9ffd3" stroke="black" d="M2703,-312.5C2703,-312.5 2636,-312.5 2636,-312.5 2630,-312.5 2624,-306.5 2624,-300.5 2624,-300.5 2624,-288.5 2624,-288.5 2624,-282.5 2630,-276.5 2636,-276.5 2636,-276.5 2703,-276.5 2703,-276.5 2709,-276.5 2715,-282.5 2715,-288.5 2715,-288.5 2715,-300.5 2715,-300.5 2715,-306.5 2709,-312.5 2703,-312.5"/>
<text text-anchor="middle" x="2669.5" y="-290.8" font-family="Times,serif" font-size="14.00">path combine</text>
</g>
<!-- 0&#45;&gt;4 -->
<g id="edge4" class="edge"><title>0&#45;&gt;4</title>
<path fill="none" stroke="black" d="M1713.38,-373.679C1937.06,-355.389 2444.61,-313.889 2613.59,-300.071"/>
<polygon fill="black" stroke="black" points="2614.08,-303.544 2623.76,-299.24 2613.5,-296.567 2614.08,-303.544"/>
</g>
<!-- 5 -->
<g id="node6" class="node"><title>5</title>
<path fill="#d3ffff" stroke="black" d="M267.5,-202C267.5,-202 147.5,-202 147.5,-202 141.5,-202 135.5,-196 135.5,-190 135.5,-190 135.5,-176 135.5,-176 135.5,-170 141.5,-164 147.5,-164 147.5,-164 267.5,-164 267.5,-164 273.5,-164 279.5,-170 279.5,-176 279.5,-176 279.5,-190 279.5,-190 279.5,-196 273.5,-202 267.5,-202"/>
<text text-anchor="middle" x="207.5" y="-186.8" font-family="Times,serif" font-size="14.00">comp 0</text>
<text text-anchor="middle" x="207.5" y="-171.8" font-family="Times,serif" font-size="14.00">log gamma2: 0.536234</text>
</g>
<!-- 1&#45;&gt;5 -->
<g id="edge5" class="edge"><title>1&#45;&gt;5</title>
<path fill="none" stroke="black" d="M582.612,-285.654C526.796,-275.282 427.67,-255.544 344.5,-232 317.74,-224.425 288.594,-214.461 264.092,-205.576"/>
<polygon fill="black" stroke="black" points="265.19,-202.251 254.596,-202.103 262.785,-208.825 265.19,-202.251"/>
</g>
<!-- 6 -->
<g id="node7" class="node"><title>6</title>
<path fill="#bfe6e6" stroke="black" d="M629,-202C629,-202 366,-202 366,-202 360,-202 354,-196 354,-190 354,-190 354,-176 354,-176 354,-170 360,-164 366,-164 366,-164 629,-164 629,-164 635,-164 641,-170 641,-176 641,-176 641,-190 641,-190 641,-196 635,-202 629,-202"/>
<text text-anchor="middle" x="497.5" y="-186.8" font-family="Times,serif" font-size="14.00">comp 1</text>
<text text-anchor="middle" x="497.5" y="-171.8" font-family="Times,serif" font-size="14.00">log gamma1: &#45;1.649781 &#160;&#160;log gamma2: 0.536234</text>
</g>
<!-- 1&#45;&gt;6 -->
<g id="edge6" class="edge"><title>1&#45;&gt;6</title>
<path fill="none" stroke="black" d="M605.198,-275.418C583.724,-257.19 550.427,-228.926 526.542,-208.652"/>
<polygon fill="black" stroke="black" points="528.722,-205.912 518.833,-202.109 524.192,-211.248 528.722,-205.912"/>
</g>
<!-- 7 -->
<g id="node8" class="node"><title>7</title>
<path fill="#abcece" stroke="black" d="M818,-202C818,-202 693,-202 693,-202 687,-202 681,-196 681,-190 681,-190 681,-176 681,-176 681,-170 687,-164 693,-164 693,-164 818,-164 818,-164 824,-164 830,-170 830,-176 830,-176 830,-190 830,-190 830,-196 824,-202 818,-202"/>
<text text-anchor="middle" x="755.5" y="-186.8" font-family="Times,serif" font-size="14.00">comp 2</text>
<text text-anchor="middle" x="755.5" y="-171.8" font-family="Times,serif" font-size="14.00">log gamma2: &#45;1.935073</text>
</g>
<!-- 1&#45;&gt;7 -->
<g id="edge7" class="edge"><title>1&#45;&gt;7</title>
<path fill="none" stroke="black" d="M647.802,-275.418C669.276,-257.19 702.573,-228.926 726.458,-208.652"/>
<polygon fill="black" stroke="black" points="728.808,-211.248 734.167,-202.109 724.278,-205.912 728.808,-211.248"/>
</g>
<!-- 8 -->
<g id="node9" class="node"><title>8</title>
<path fill="#d3ffff" stroke="black" d="M1244.5,-202C1244.5,-202 1170.5,-202 1170.5,-202 1164.5,-202 1158.5,-196 1158.5,-190 1158.5,-190 1158.5,-176 1158.5,-176 1158.5,-170 1164.5,-164 1170.5,-164 1170.5,-164 1244.5,-164 1244.5,-164 1250.5,-164 1256.5,-170 1256.5,-176 1256.5,-176 1256.5,-190 1256.5,-190 1256.5,-196 1250.5,-202 1244.5,-202"/>
<text text-anchor="middle" x="1207.5" y="-186.8" font-family="Times,serif" font-size="14.00">comp 0</text>
<text text-anchor="middle" x="1207.5" y="-171.8" font-family="Times,serif" font-size="14.00">n kernels: &#45;108</text>
</g>
<!-- 2&#45;&gt;8 -->
<g id="edge8" class="edge"><title>2&#45;&gt;8</title>
<path fill="none" stroke="black" d="M1389.23,-267.965C1348.88,-249.322 1294.7,-224.288 1256.02,-206.417"/>
<polygon fill="black" stroke="black" points="1257.08,-203.053 1246.54,-202.036 1254.15,-209.407 1257.08,-203.053"/>
</g>
<!-- 9 -->
<g id="node10" class="node"><title>9</title>
<path fill="#bfe6e6" stroke="black" d="M1517.5,-202C1517.5,-202 1371.5,-202 1371.5,-202 1365.5,-202 1359.5,-196 1359.5,-190 1359.5,-190 1359.5,-176 1359.5,-176 1359.5,-170 1365.5,-164 1371.5,-164 1371.5,-164 1517.5,-164 1517.5,-164 1523.5,-164 1529.5,-170 1529.5,-176 1529.5,-176 1529.5,-190 1529.5,-190 1529.5,-196 1523.5,-202 1517.5,-202"/>
<text text-anchor="middle" x="1444.5" y="-186.8" font-family="Times,serif" font-size="14.00">path end 1</text>
<text text-anchor="middle" x="1444.5" y="-171.8" font-family="Times,serif" font-size="14.00">k width: &#45;2 &#160;&#160;n kernels: &#45;117</text>
</g>
<!-- 2&#45;&gt;9 -->
<g id="edge9" class="edge"><title>2&#45;&gt;9</title>
<path fill="none" stroke="black" d="M1444.5,-267.827C1444.5,-251.18 1444.5,-229.482 1444.5,-212.332"/>
<polygon fill="black" stroke="black" points="1448,-212.327 1444.5,-202.327 1441,-212.327 1448,-212.327"/>
</g>
<!-- 10 -->
<g id="node11" class="node"><title>10</title>
<path fill="#d3ffff" stroke="black" d="M1827.5,-202C1827.5,-202 1707.5,-202 1707.5,-202 1701.5,-202 1695.5,-196 1695.5,-190 1695.5,-190 1695.5,-176 1695.5,-176 1695.5,-170 1701.5,-164 1707.5,-164 1707.5,-164 1827.5,-164 1827.5,-164 1833.5,-164 1839.5,-170 1839.5,-176 1839.5,-176 1839.5,-190 1839.5,-190 1839.5,-196 1833.5,-202 1827.5,-202"/>
<text text-anchor="middle" x="1767.5" y="-186.8" font-family="Times,serif" font-size="14.00">comp 0</text>
<text text-anchor="middle" x="1767.5" y="-171.8" font-family="Times,serif" font-size="14.00">log gamma2: 0.194510</text>
</g>
<!-- 3&#45;&gt;10 -->
<g id="edge10" class="edge"><title>3&#45;&gt;10</title>
<path fill="none" stroke="black" d="M1857.83,-267.827C1838.8,-250.16 1813.62,-226.801 1794.69,-209.23"/>
<polygon fill="black" stroke="black" points="1796.96,-206.563 1787.25,-202.327 1792.2,-211.695 1796.96,-206.563"/>
</g>
<!-- 11 -->
<g id="node12" class="node"><title>11</title>
<path fill="#bfe6e6" stroke="black" d="M2137.5,-202C2137.5,-202 1869.5,-202 1869.5,-202 1863.5,-202 1857.5,-196 1857.5,-190 1857.5,-190 1857.5,-176 1857.5,-176 1857.5,-170 1863.5,-164 1869.5,-164 1869.5,-164 2137.5,-164 2137.5,-164 2143.5,-164 2149.5,-170 2149.5,-176 2149.5,-176 2149.5,-190 2149.5,-190 2149.5,-196 2143.5,-202 2137.5,-202"/>
<text text-anchor="middle" x="2003.5" y="-186.8" font-family="Times,serif" font-size="14.00">comp 1</text>
<text text-anchor="middle" x="2003.5" y="-171.8" font-family="Times,serif" font-size="14.00">log gamma1: &#45;1.964490 &#160;&#160;log gamma2: &#45;0.678354</text>
</g>
<!-- 3&#45;&gt;11 -->
<g id="edge11" class="edge"><title>3&#45;&gt;11</title>
<path fill="none" stroke="black" d="M1913.17,-267.827C1932.2,-250.16 1957.38,-226.801 1976.31,-209.23"/>
<polygon fill="black" stroke="black" points="1978.8,-211.695 1983.75,-202.327 1974.04,-206.563 1978.8,-211.695"/>
</g>
<!-- 12 -->
<g id="node13" class="node"><title>12</title>
<path fill="#abcece" stroke="black" d="M2325.5,-202C2325.5,-202 2179.5,-202 2179.5,-202 2173.5,-202 2167.5,-196 2167.5,-190 2167.5,-190 2167.5,-176 2167.5,-176 2167.5,-170 2173.5,-164 2179.5,-164 2179.5,-164 2325.5,-164 2325.5,-164 2331.5,-164 2337.5,-170 2337.5,-176 2337.5,-176 2337.5,-190 2337.5,-190 2337.5,-196 2331.5,-202 2325.5,-202"/>
<text text-anchor="middle" x="2252.5" y="-186.8" font-family="Times,serif" font-size="14.00">path end 2</text>
<text text-anchor="middle" x="2252.5" y="-171.8" font-family="Times,serif" font-size="14.00">k width: &#45;2 &#160;&#160;n kernels: &#45;353</text>
</g>
<!-- 3&#45;&gt;12 -->
<g id="edge12" class="edge"><title>3&#45;&gt;12</title>
<path fill="none" stroke="black" d="M2004.25,-273.486C2052.86,-263.569 2109.15,-249.837 2158.5,-232 2177.11,-225.273 2196.75,-215.679 2213.24,-206.834"/>
<polygon fill="black" stroke="black" points="2214.95,-209.887 2222.04,-202.02 2211.59,-203.745 2214.95,-209.887"/>
</g>
<!-- 13 -->
<g id="node14" class="node"><title>13</title>
<path fill="#d3ffff" stroke="black" d="M2649,-232C2649,-232 2368,-232 2368,-232 2362,-232 2356,-226 2356,-220 2356,-220 2356,-146 2356,-146 2356,-140 2362,-134 2368,-134 2368,-134 2649,-134 2649,-134 2655,-134 2661,-140 2661,-146 2661,-146 2661,-220 2661,-220 2661,-226 2655,-232 2649,-232"/>
<text text-anchor="middle" x="2508.5" y="-216.8" font-family="Times,serif" font-size="14.00">forward</text>
<text text-anchor="middle" x="2508.5" y="-201.8" font-family="Times,serif" font-size="14.00">CB0/C2</text>
<text text-anchor="middle" x="2508.5" y="-186.8" font-family="Times,serif" font-size="14.00">dilation rate: 1 &#160;&#160;k width: 3</text>
<text text-anchor="middle" x="2508.5" y="-171.8" font-family="Times,serif" font-size="14.00">log gamma1: &#45;11.000000 &#160;&#160;log gamma2: &#45;11.000000</text>
<text text-anchor="middle" x="2508.5" y="-156.8" font-family="Times,serif" font-size="14.00">log lambda1: &#45;11.000000 &#160;&#160;log lambda2: &#45;11.000000</text>
<text text-anchor="middle" x="2508.5" y="-141.8" font-family="Times,serif" font-size="14.00">n kernels: 64</text>
</g>
<!-- 4&#45;&gt;13 -->
<g id="edge13" class="edge"><title>4&#45;&gt;13</title>
<path fill="none" stroke="black" d="M2644.34,-276.391C2628.95,-265.923 2608.33,-251.898 2587.81,-237.942"/>
<polygon fill="black" stroke="black" points="2589.59,-234.917 2579.35,-232.188 2585.65,-240.706 2589.59,-234.917"/>
</g>
<!-- 14 -->
<g id="node15" class="node"><title>14</title>
<path fill="#bfe6e6" stroke="black" d="M2972,-232C2972,-232 2691,-232 2691,-232 2685,-232 2679,-226 2679,-220 2679,-220 2679,-146 2679,-146 2679,-140 2685,-134 2691,-134 2691,-134 2972,-134 2972,-134 2978,-134 2984,-140 2984,-146 2984,-146 2984,-220 2984,-220 2984,-226 2978,-232 2972,-232"/>
<text text-anchor="middle" x="2831.5" y="-216.8" font-family="Times,serif" font-size="14.00">residual 1</text>
<text text-anchor="middle" x="2831.5" y="-201.8" font-family="Times,serif" font-size="14.00">CB1/PE1</text>
<text text-anchor="middle" x="2831.5" y="-186.8" font-family="Times,serif" font-size="14.00">dilation rate: 1 &#160;&#160;k width: 3</text>
<text text-anchor="middle" x="2831.5" y="-171.8" font-family="Times,serif" font-size="14.00">log gamma1: &#45;11.000000 &#160;&#160;log gamma2: &#45;11.000000</text>
<text text-anchor="middle" x="2831.5" y="-156.8" font-family="Times,serif" font-size="14.00">log lambda1: &#45;11.000000 &#160;&#160;log lambda2: &#45;11.000000</text>
<text text-anchor="middle" x="2831.5" y="-141.8" font-family="Times,serif" font-size="14.00">n kernels: 64</text>
</g>
<!-- 4&#45;&gt;14 -->
<g id="edge14" class="edge"><title>4&#45;&gt;14</title>
<path fill="none" stroke="black" d="M2694.81,-276.391C2710.3,-265.923 2731.05,-251.898 2751.69,-237.942"/>
<polygon fill="black" stroke="black" points="2753.88,-240.687 2760.21,-232.188 2749.96,-234.888 2753.88,-240.687"/>
</g>
<!-- 15 -->
<g id="node16" class="node"><title>15</title>
<path fill="#abcece" stroke="black" d="M3295,-232C3295,-232 3014,-232 3014,-232 3008,-232 3002,-226 3002,-220 3002,-220 3002,-146 3002,-146 3002,-140 3008,-134 3014,-134 3014,-134 3295,-134 3295,-134 3301,-134 3307,-140 3307,-146 3307,-146 3307,-220 3307,-220 3307,-226 3301,-232 3295,-232"/>
<text text-anchor="middle" x="3154.5" y="-216.8" font-family="Times,serif" font-size="14.00">residual 2</text>
<text text-anchor="middle" x="3154.5" y="-201.8" font-family="Times,serif" font-size="14.00">CB2/PE2</text>
<text text-anchor="middle" x="3154.5" y="-186.8" font-family="Times,serif" font-size="14.00">dilation rate: 1 &#160;&#160;k width: 3</text>
<text text-anchor="middle" x="3154.5" y="-171.8" font-family="Times,serif" font-size="14.00">log gamma1: &#45;11.000000 &#160;&#160;log gamma2: &#45;11.000000</text>
<text text-anchor="middle" x="3154.5" y="-156.8" font-family="Times,serif" font-size="14.00">log lambda1: &#45;11.000000 &#160;&#160;log lambda2: &#45;11.000000</text>
<text text-anchor="middle" x="3154.5" y="-141.8" font-family="Times,serif" font-size="14.00">n kernels: 64</text>
</g>
<!-- 4&#45;&gt;15 -->
<g id="edge15" class="edge"><title>4&#45;&gt;15</title>
<path fill="none" stroke="black" d="M2715.01,-286.309C2775.92,-276.361 2887.44,-257.014 2992.2,-232.009"/>
<polygon fill="black" stroke="black" points="2993.09,-235.395 3001.99,-229.651 2991.45,-228.59 2993.09,-235.395"/>
</g>
<!-- 16 -->
<g id="node17" class="node"><title>16</title>
<path fill="#e9d3ff" stroke="black" d="M293,-98C293,-98 12,-98 12,-98 6,-98 0,-92 0,-86 0,-86 0,-12 0,-12 0,-6 6,-0 12,-0 12,-0 293,-0 293,-0 299,-0 305,-6 305,-12 305,-12 305,-86 305,-86 305,-92 299,-98 293,-98"/>
<text text-anchor="middle" x="152.5" y="-82.8" font-family="Times,serif" font-size="14.00">forward</text>
<text text-anchor="middle" x="152.5" y="-67.8" font-family="Times,serif" font-size="14.00">input</text>
<text text-anchor="middle" x="152.5" y="-52.8" font-family="Times,serif" font-size="14.00">dilation rate: 1 &#160;&#160;k width: 3</text>
<text text-anchor="middle" x="152.5" y="-37.8" font-family="Times,serif" font-size="14.00">log gamma1: &#45;11.000000 &#160;&#160;log gamma2: &#45;11.000000</text>
<text text-anchor="middle" x="152.5" y="-22.8" font-family="Times,serif" font-size="14.00">log lambda1: &#45;11.000000 &#160;&#160;log lambda2: &#45;11.000000</text>
<text text-anchor="middle" x="152.5" y="-7.8" font-family="Times,serif" font-size="14.00">n kernels: 64</text>
</g>
<!-- 5&#45;&gt;16 -->
<g id="edge16" class="edge"><title>5&#45;&gt;16</title>
<path fill="none" stroke="black" d="M199.968,-163.923C193.87,-149.289 184.931,-127.835 176.45,-107.48"/>
<polygon fill="black" stroke="black" points="179.674,-106.118 172.597,-98.2336 173.213,-108.811 179.674,-106.118"/>
</g>
<!-- 17 -->
<g id="node18" class="node"><title>17</title>
<path fill="#e9d3ff" stroke="black" d="M616,-98C616,-98 335,-98 335,-98 329,-98 323,-92 323,-86 323,-86 323,-12 323,-12 323,-6 329,-0 335,-0 335,-0 616,-0 616,-0 622,-0 628,-6 628,-12 628,-12 628,-86 628,-86 628,-92 622,-98 616,-98"/>
<text text-anchor="middle" x="475.5" y="-82.8" font-family="Times,serif" font-size="14.00">forward</text>
<text text-anchor="middle" x="475.5" y="-67.8" font-family="Times,serif" font-size="14.00">CB0/C0</text>
<text text-anchor="middle" x="475.5" y="-52.8" font-family="Times,serif" font-size="14.00">dilation rate: 1 &#160;&#160;k width: 3</text>
<text text-anchor="middle" x="475.5" y="-37.8" font-family="Times,serif" font-size="14.00">log gamma1: &#45;11.000000 &#160;&#160;log gamma2: &#45;11.000000</text>
<text text-anchor="middle" x="475.5" y="-22.8" font-family="Times,serif" font-size="14.00">log lambda1: &#45;11.000000 &#160;&#160;log lambda2: &#45;11.000000</text>
<text text-anchor="middle" x="475.5" y="-7.8" font-family="Times,serif" font-size="14.00">n kernels: 64</text>
</g>
<!-- 6&#45;&gt;17 -->
<g id="edge17" class="edge"><title>6&#45;&gt;17</title>
<path fill="none" stroke="black" d="M494.487,-163.923C492.081,-149.486 488.569,-128.413 485.218,-108.306"/>
<polygon fill="black" stroke="black" points="488.635,-107.522 483.539,-98.2336 481.731,-108.673 488.635,-107.522"/>
</g>
<!-- 18 -->
<g id="node19" class="node"><title>18</title>
<path fill="#e9d3ff" stroke="black" d="M939,-98C939,-98 658,-98 658,-98 652,-98 646,-92 646,-86 646,-86 646,-12 646,-12 646,-6 652,-0 658,-0 658,-0 939,-0 939,-0 945,-0 951,-6 951,-12 951,-12 951,-86 951,-86 951,-92 945,-98 939,-98"/>
<text text-anchor="middle" x="798.5" y="-82.8" font-family="Times,serif" font-size="14.00">forward</text>
<text text-anchor="middle" x="798.5" y="-67.8" font-family="Times,serif" font-size="14.00">CB0/C1</text>
<text text-anchor="middle" x="798.5" y="-52.8" font-family="Times,serif" font-size="14.00">dilation rate: 1 &#160;&#160;k width: 3</text>
<text text-anchor="middle" x="798.5" y="-37.8" font-family="Times,serif" font-size="14.00">log gamma1: &#45;11.000000 &#160;&#160;log gamma2: &#45;11.000000</text>
<text text-anchor="middle" x="798.5" y="-22.8" font-family="Times,serif" font-size="14.00">log lambda1: &#45;11.000000 &#160;&#160;log lambda2: &#45;11.000000</text>
<text text-anchor="middle" x="798.5" y="-7.8" font-family="Times,serif" font-size="14.00">n kernels: 64</text>
</g>
<!-- 7&#45;&gt;18 -->
<g id="edge18" class="edge"><title>7&#45;&gt;18</title>
<path fill="none" stroke="black" d="M761.389,-163.923C766.135,-149.355 773.082,-128.028 779.686,-107.755"/>
<polygon fill="black" stroke="black" points="783.018,-108.826 782.788,-98.2336 776.362,-106.658 783.018,-108.826"/>
</g>
<!-- 19 -->
<g id="node20" class="node"><title>19</title>
<path fill="#e9d3ff" stroke="black" d="M1262,-98C1262,-98 981,-98 981,-98 975,-98 969,-92 969,-86 969,-86 969,-12 969,-12 969,-6 975,-0 981,-0 981,-0 1262,-0 1262,-0 1268,-0 1274,-6 1274,-12 1274,-12 1274,-86 1274,-86 1274,-92 1268,-98 1262,-98"/>
<text text-anchor="middle" x="1121.5" y="-82.8" font-family="Times,serif" font-size="14.00">forward</text>
<text text-anchor="middle" x="1121.5" y="-67.8" font-family="Times,serif" font-size="14.00">input</text>
<text text-anchor="middle" x="1121.5" y="-52.8" font-family="Times,serif" font-size="14.00">dilation rate: 1 &#160;&#160;k width: 3</text>
<text text-anchor="middle" x="1121.5" y="-37.8" font-family="Times,serif" font-size="14.00">log gamma1: &#45;11.000000 &#160;&#160;log gamma2: &#45;11.000000</text>
<text text-anchor="middle" x="1121.5" y="-22.8" font-family="Times,serif" font-size="14.00">log lambda1: &#45;11.000000 &#160;&#160;log lambda2: &#45;11.000000</text>
<text text-anchor="middle" x="1121.5" y="-7.8" font-family="Times,serif" font-size="14.00">n kernels: 64</text>
</g>
<!-- 8&#45;&gt;19 -->
<g id="edge19" class="edge"><title>8&#45;&gt;19</title>
<path fill="none" stroke="black" d="M1195.72,-163.923C1186.06,-149.091 1171.83,-127.253 1158.41,-106.655"/>
<polygon fill="black" stroke="black" points="1161.32,-104.702 1152.92,-98.2336 1155.45,-108.523 1161.32,-104.702"/>
</g>
<!-- 20 -->
<g id="node21" class="node"><title>20</title>
<path fill="#e9d3ff" stroke="black" d="M1585,-98C1585,-98 1304,-98 1304,-98 1298,-98 1292,-92 1292,-86 1292,-86 1292,-12 1292,-12 1292,-6 1298,-0 1304,-0 1304,-0 1585,-0 1585,-0 1591,-0 1597,-6 1597,-12 1597,-12 1597,-86 1597,-86 1597,-92 1591,-98 1585,-98"/>
<text text-anchor="middle" x="1444.5" y="-82.8" font-family="Times,serif" font-size="14.00">forward</text>
<text text-anchor="middle" x="1444.5" y="-67.8" font-family="Times,serif" font-size="14.00">CB1/C0</text>
<text text-anchor="middle" x="1444.5" y="-52.8" font-family="Times,serif" font-size="14.00">dilation rate: 1 &#160;&#160;k width: 3</text>
<text text-anchor="middle" x="1444.5" y="-37.8" font-family="Times,serif" font-size="14.00">log gamma1: &#45;11.000000 &#160;&#160;log gamma2: &#45;11.000000</text>
<text text-anchor="middle" x="1444.5" y="-22.8" font-family="Times,serif" font-size="14.00">log lambda1: &#45;11.000000 &#160;&#160;log lambda2: &#45;11.000000</text>
<text text-anchor="middle" x="1444.5" y="-7.8" font-family="Times,serif" font-size="14.00">n kernels: 64</text>
</g>
<!-- 9&#45;&gt;20 -->
<g id="edge20" class="edge"><title>9&#45;&gt;20</title>
<path fill="none" stroke="black" d="M1444.5,-163.923C1444.5,-149.486 1444.5,-128.413 1444.5,-108.306"/>
<polygon fill="black" stroke="black" points="1448,-108.234 1444.5,-98.2336 1441,-108.234 1448,-108.234"/>
</g>
<!-- 21 -->
<g id="node22" class="node"><title>21</title>
<path fill="#e9d3ff" stroke="black" d="M1908,-98C1908,-98 1627,-98 1627,-98 1621,-98 1615,-92 1615,-86 1615,-86 1615,-12 1615,-12 1615,-6 1621,-0 1627,-0 1627,-0 1908,-0 1908,-0 1914,-0 1920,-6 1920,-12 1920,-12 1920,-86 1920,-86 1920,-92 1914,-98 1908,-98"/>
<text text-anchor="middle" x="1767.5" y="-82.8" font-family="Times,serif" font-size="14.00">forward</text>
<text text-anchor="middle" x="1767.5" y="-67.8" font-family="Times,serif" font-size="14.00">input</text>
<text text-anchor="middle" x="1767.5" y="-52.8" font-family="Times,serif" font-size="14.00">dilation rate: 1 &#160;&#160;k width: 3</text>
<text text-anchor="middle" x="1767.5" y="-37.8" font-family="Times,serif" font-size="14.00">log gamma1: &#45;11.000000 &#160;&#160;log gamma2: &#45;11.000000</text>
<text text-anchor="middle" x="1767.5" y="-22.8" font-family="Times,serif" font-size="14.00">log lambda1: &#45;11.000000 &#160;&#160;log lambda2: &#45;11.000000</text>
<text text-anchor="middle" x="1767.5" y="-7.8" font-family="Times,serif" font-size="14.00">n kernels: 64</text>
</g>
<!-- 10&#45;&gt;21 -->
<g id="edge21" class="edge"><title>10&#45;&gt;21</title>
<path fill="none" stroke="black" d="M1767.5,-163.923C1767.5,-149.486 1767.5,-128.413 1767.5,-108.306"/>
<polygon fill="black" stroke="black" points="1771,-108.234 1767.5,-98.2336 1764,-108.234 1771,-108.234"/>
</g>
<!-- 22 -->
<g id="node23" class="node"><title>22</title>
<path fill="#e9d3ff" stroke="black" d="M2231,-98C2231,-98 1950,-98 1950,-98 1944,-98 1938,-92 1938,-86 1938,-86 1938,-12 1938,-12 1938,-6 1944,-0 1950,-0 1950,-0 2231,-0 2231,-0 2237,-0 2243,-6 2243,-12 2243,-12 2243,-86 2243,-86 2243,-92 2237,-98 2231,-98"/>
<text text-anchor="middle" x="2090.5" y="-82.8" font-family="Times,serif" font-size="14.00">forward</text>
<text text-anchor="middle" x="2090.5" y="-67.8" font-family="Times,serif" font-size="14.00">CB2/C0</text>
<text text-anchor="middle" x="2090.5" y="-52.8" font-family="Times,serif" font-size="14.00">dilation rate: 1 &#160;&#160;k width: 3</text>
<text text-anchor="middle" x="2090.5" y="-37.8" font-family="Times,serif" font-size="14.00">log gamma1: &#45;11.000000 &#160;&#160;log gamma2: &#45;11.000000</text>
<text text-anchor="middle" x="2090.5" y="-22.8" font-family="Times,serif" font-size="14.00">log lambda1: &#45;11.000000 &#160;&#160;log lambda2: &#45;11.000000</text>
<text text-anchor="middle" x="2090.5" y="-7.8" font-family="Times,serif" font-size="14.00">n kernels: 64</text>
</g>
<!-- 11&#45;&gt;22 -->
<g id="edge22" class="edge"><title>11&#45;&gt;22</title>
<path fill="none" stroke="black" d="M2015.41,-163.923C2025.19,-149.091 2039.58,-127.253 2053.16,-106.655"/>
<polygon fill="black" stroke="black" points="2056.13,-108.509 2058.71,-98.2336 2050.28,-104.657 2056.13,-108.509"/>
</g>
<!-- 23 -->
<g id="node24" class="node"><title>23</title>
<path fill="#e9d3ff" stroke="black" d="M2554,-98C2554,-98 2273,-98 2273,-98 2267,-98 2261,-92 2261,-86 2261,-86 2261,-12 2261,-12 2261,-6 2267,-0 2273,-0 2273,-0 2554,-0 2554,-0 2560,-0 2566,-6 2566,-12 2566,-12 2566,-86 2566,-86 2566,-92 2560,-98 2554,-98"/>
<text text-anchor="middle" x="2413.5" y="-82.8" font-family="Times,serif" font-size="14.00">forward</text>
<text text-anchor="middle" x="2413.5" y="-67.8" font-family="Times,serif" font-size="14.00">CB2/C1</text>
<text text-anchor="middle" x="2413.5" y="-52.8" font-family="Times,serif" font-size="14.00">dilation rate: 1 &#160;&#160;k width: 3</text>
<text text-anchor="middle" x="2413.5" y="-37.8" font-family="Times,serif" font-size="14.00">log gamma1: &#45;11.000000 &#160;&#160;log gamma2: &#45;11.000000</text>
<text text-anchor="middle" x="2413.5" y="-22.8" font-family="Times,serif" font-size="14.00">log lambda1: &#45;11.000000 &#160;&#160;log lambda2: &#45;11.000000</text>
<text text-anchor="middle" x="2413.5" y="-7.8" font-family="Times,serif" font-size="14.00">n kernels: 64</text>
</g>
<!-- 12&#45;&gt;23 -->
<g id="edge23" class="edge"><title>12&#45;&gt;23</title>
<path fill="none" stroke="black" d="M2274.55,-163.923C2293.2,-148.629 2320.94,-125.888 2346.74,-104.737"/>
<polygon fill="black" stroke="black" points="2349.16,-107.28 2354.67,-98.2336 2344.72,-101.867 2349.16,-107.28"/>
</g>
</g>
</svg>
