<?xml version="1.0" encoding="UTF-8" standalone="no"?>
<!DOCTYPE svg PUBLIC "-//W3C//DTD SVG 1.1//EN"
 "http://www.w3.org/Graphics/SVG/1.1/DTD/svg11.dtd">
<!-- Generated by graphviz version 2.38.0 (20140413.2041)
 -->
<!-- Title: %3 Pages: 1 -->
<svg width="5471pt" height="418pt"
 viewBox="0.00 0.00 5471.00 418.00" xmlns="http://www.w3.org/2000/svg" xmlns:xlink="http://www.w3.org/1999/xlink">
<g id="graph0" class="graph" transform="scale(1 1) rotate(0) translate(4 414)">
<title>%3</title>
<polygon fill="none" stroke="none" points="-4,4 -4,-414 5467,-414 5467,4 -4,4"/>
<!-- 0 -->
<g id="node1" class="node"><title>0</title>
<path fill="#ffd3d3" stroke="black" d="M2653,-410C2653,-410 2462,-410 2462,-410 2456,-410 2450,-404 2450,-398 2450,-398 2450,-369 2450,-369 2450,-363 2456,-357 2462,-357 2462,-357 2653,-357 2653,-357 2659,-357 2665,-363 2665,-369 2665,-369 2665,-398 2665,-398 2665,-404 2659,-410 2653,-410"/>
<text text-anchor="middle" x="2557.5" y="-394.8" font-family="Times,serif" font-size="14.00">net</text>
<text text-anchor="middle" x="2557.5" y="-379.8" font-family="Times,serif" font-size="14.00">k width: 3 &#160;&#160;log gamma2: &#45;4.337062</text>
<text text-anchor="middle" x="2557.5" y="-364.8" font-family="Times,serif" font-size="14.00">n kernels: 90</text>
</g>
<!-- 1 -->
<g id="node2" class="node"><title>1</title>
<path fill="#e9ffd3" stroke="black" d="M567,-313.5C567,-313.5 504,-313.5 504,-313.5 498,-313.5 492,-307.5 492,-301.5 492,-301.5 492,-287.5 492,-287.5 492,-281.5 498,-275.5 504,-275.5 504,-275.5 567,-275.5 567,-275.5 573,-275.5 579,-281.5 579,-287.5 579,-287.5 579,-301.5 579,-301.5 579,-307.5 573,-313.5 567,-313.5"/>
<text text-anchor="middle" x="535.5" y="-298.3" font-family="Times,serif" font-size="14.00">conv block 0</text>
<text text-anchor="middle" x="535.5" y="-283.3" font-family="Times,serif" font-size="14.00">n kernels: &#45;9</text>
</g>
<!-- 0&#45;&gt;1 -->
<g id="edge1" class="edge"><title>0&#45;&gt;1</title>
<path fill="none" stroke="black" d="M2449.86,-377.869C2078.81,-361.903 860.923,-309.502 589.462,-297.822"/>
<polygon fill="black" stroke="black" points="589.234,-294.309 579.093,-297.376 588.933,-301.302 589.234,-294.309"/>
</g>
<!-- 2 -->
<g id="node3" class="node"><title>2</title>
<path fill="#e9ffd3" stroke="black" d="M1372.5,-321C1372.5,-321 1166.5,-321 1166.5,-321 1160.5,-321 1154.5,-315 1154.5,-309 1154.5,-309 1154.5,-280 1154.5,-280 1154.5,-274 1160.5,-268 1166.5,-268 1166.5,-268 1372.5,-268 1372.5,-268 1378.5,-268 1384.5,-274 1384.5,-280 1384.5,-280 1384.5,-309 1384.5,-309 1384.5,-315 1378.5,-321 1372.5,-321"/>
<text text-anchor="middle" x="1269.5" y="-305.8" font-family="Times,serif" font-size="14.00">conv block 1</text>
<text text-anchor="middle" x="1269.5" y="-290.8" font-family="Times,serif" font-size="14.00">log gamma2: &#45;0.063058 &#160;&#160;n kernels: 90</text>
<text text-anchor="middle" x="1269.5" y="-275.8" font-family="Times,serif" font-size="14.00">pool z: 1 &#160;&#160;spatial scale: 1</text>
</g>
<!-- 0&#45;&gt;2 -->
<g id="edge2" class="edge"><title>0&#45;&gt;2</title>
<path fill="none" stroke="black" d="M2449.9,-375.232C2213.01,-359.231 1647.4,-321.026 1394.92,-303.972"/>
<polygon fill="black" stroke="black" points="1394.82,-300.457 1384.61,-303.275 1394.35,-307.441 1394.82,-300.457"/>
</g>
<!-- 3 -->
<g id="node4" class="node"><title>3</title>
<path fill="#e9ffd3" stroke="black" d="M2633.5,-313.5C2633.5,-313.5 2481.5,-313.5 2481.5,-313.5 2475.5,-313.5 2469.5,-307.5 2469.5,-301.5 2469.5,-301.5 2469.5,-287.5 2469.5,-287.5 2469.5,-281.5 2475.5,-275.5 2481.5,-275.5 2481.5,-275.5 2633.5,-275.5 2633.5,-275.5 2639.5,-275.5 2645.5,-281.5 2645.5,-287.5 2645.5,-287.5 2645.5,-301.5 2645.5,-301.5 2645.5,-307.5 2639.5,-313.5 2633.5,-313.5"/>
<text text-anchor="middle" x="2557.5" y="-298.3" font-family="Times,serif" font-size="14.00">conv block 2</text>
<text text-anchor="middle" x="2557.5" y="-283.3" font-family="Times,serif" font-size="14.00">n kernels: &#45;3 &#160;&#160;spatial scale: 2</text>
</g>
<!-- 0&#45;&gt;3 -->
<g id="edge3" class="edge"><title>0&#45;&gt;3</title>
<path fill="none" stroke="black" d="M2557.5,-356.868C2557.5,-346.417 2557.5,-334.301 2557.5,-323.609"/>
<polygon fill="black" stroke="black" points="2561,-323.507 2557.5,-313.507 2554,-323.507 2561,-323.507"/>
</g>
<!-- 4 -->
<g id="node5" class="node"><title>4</title>
<path fill="#e9ffd3" stroke="black" d="M3809,-321C3809,-321 3546,-321 3546,-321 3540,-321 3534,-315 3534,-309 3534,-309 3534,-280 3534,-280 3534,-274 3540,-268 3546,-268 3546,-268 3809,-268 3809,-268 3815,-268 3821,-274 3821,-280 3821,-280 3821,-309 3821,-309 3821,-315 3815,-321 3809,-321"/>
<text text-anchor="middle" x="3677.5" y="-305.8" font-family="Times,serif" font-size="14.00">conv block 3</text>
<text text-anchor="middle" x="3677.5" y="-290.8" font-family="Times,serif" font-size="14.00">log gamma1: 0.710337 &#160;&#160;log gamma2: &#45;1.421447</text>
<text text-anchor="middle" x="3677.5" y="-275.8" font-family="Times,serif" font-size="14.00">n kernels: 630 &#160;&#160;spatial scale: 3</text>
</g>
<!-- 0&#45;&gt;4 -->
<g id="edge4" class="edge"><title>0&#45;&gt;4</title>
<path fill="none" stroke="black" d="M2665.14,-374.138C2864.89,-358.622 3293.48,-325.33 3523.73,-307.445"/>
<polygon fill="black" stroke="black" points="3524.16,-310.922 3533.86,-306.658 3523.62,-303.943 3524.16,-310.922"/>
</g>
<!-- 5 -->
<g id="node6" class="node"><title>5</title>
<path fill="#e9ffd3" stroke="black" d="M4698,-312.5C4698,-312.5 4631,-312.5 4631,-312.5 4625,-312.5 4619,-306.5 4619,-300.5 4619,-300.5 4619,-288.5 4619,-288.5 4619,-282.5 4625,-276.5 4631,-276.5 4631,-276.5 4698,-276.5 4698,-276.5 4704,-276.5 4710,-282.5 4710,-288.5 4710,-288.5 4710,-300.5 4710,-300.5 4710,-306.5 4704,-312.5 4698,-312.5"/>
<text text-anchor="middle" x="4664.5" y="-290.8" font-family="Times,serif" font-size="14.00">path combine</text>
</g>
<!-- 0&#45;&gt;5 -->
<g id="edge5" class="edge"><title>0&#45;&gt;5</title>
<path fill="none" stroke="black" d="M2665.25,-378.051C3046.76,-362.298 4325.73,-309.488 4608.74,-297.802"/>
<polygon fill="black" stroke="black" points="4608.93,-301.298 4618.77,-297.388 4608.64,-294.304 4608.93,-301.298"/>
</g>
<!-- 6 -->
<g id="node7" class="node"><title>6</title>
<path fill="#d3ffff" stroke="black" d="M375,-202C375,-202 116,-202 116,-202 110,-202 104,-196 104,-190 104,-190 104,-176 104,-176 104,-170 110,-164 116,-164 116,-164 375,-164 375,-164 381,-164 387,-170 387,-176 387,-176 387,-190 387,-190 387,-196 381,-202 375,-202"/>
<text text-anchor="middle" x="245.5" y="-186.8" font-family="Times,serif" font-size="14.00">comp 0</text>
<text text-anchor="middle" x="245.5" y="-171.8" font-family="Times,serif" font-size="14.00">log gamma1: 1.199412 &#160;&#160;log gamma2: 1.337062</text>
</g>
<!-- 1&#45;&gt;6 -->
<g id="edge6" class="edge"><title>1&#45;&gt;6</title>
<path fill="none" stroke="black" d="M491.77,-276.988C441.467,-257.994 358.684,-226.737 303.151,-205.768"/>
<polygon fill="black" stroke="black" points="304.047,-202.365 293.456,-202.107 301.575,-208.914 304.047,-202.365"/>
</g>
<!-- 7 -->
<g id="node8" class="node"><title>7</title>
<path fill="#d3ffff" stroke="black" d="M578.5,-202C578.5,-202 510.5,-202 510.5,-202 504.5,-202 498.5,-196 498.5,-190 498.5,-190 498.5,-176 498.5,-176 498.5,-170 504.5,-164 510.5,-164 510.5,-164 578.5,-164 578.5,-164 584.5,-164 590.5,-170 590.5,-176 590.5,-176 590.5,-190 590.5,-190 590.5,-196 584.5,-202 578.5,-202"/>
<text text-anchor="middle" x="544.5" y="-186.8" font-family="Times,serif" font-size="14.00">comp 0</text>
<text text-anchor="middle" x="544.5" y="-171.8" font-family="Times,serif" font-size="14.00">n kernels: &#45;52</text>
</g>
<!-- 2&#45;&gt;7 -->
<g id="edge7" class="edge"><title>2&#45;&gt;7</title>
<path fill="none" stroke="black" d="M1154.43,-290.829C1032.33,-285.891 834.483,-271.855 668.5,-232 642.771,-225.822 615.222,-215.553 592.642,-206.096"/>
<polygon fill="black" stroke="black" points="593.86,-202.81 583.289,-202.106 591.114,-209.249 593.86,-202.81"/>
</g>
<!-- 8 -->
<g id="node9" class="node"><title>8</title>
<path fill="#bfe6e6" stroke="black" d="M953,-209.5C953,-209.5 690,-209.5 690,-209.5 684,-209.5 678,-203.5 678,-197.5 678,-197.5 678,-168.5 678,-168.5 678,-162.5 684,-156.5 690,-156.5 690,-156.5 953,-156.5 953,-156.5 959,-156.5 965,-162.5 965,-168.5 965,-168.5 965,-197.5 965,-197.5 965,-203.5 959,-209.5 953,-209.5"/>
<text text-anchor="middle" x="821.5" y="-194.3" font-family="Times,serif" font-size="14.00">comp 1</text>
<text text-anchor="middle" x="821.5" y="-179.3" font-family="Times,serif" font-size="14.00">log gamma1: 1.498385 &#160;&#160;log gamma2: &#45;1.093397</text>
<text text-anchor="middle" x="821.5" y="-164.3" font-family="Times,serif" font-size="14.00">n kernels: &#45;52</text>
</g>
<!-- 2&#45;&gt;8 -->
<g id="edge8" class="edge"><title>2&#45;&gt;8</title>
<path fill="none" stroke="black" d="M1154.43,-268.654C1105.88,-257.869 1048.82,-244.794 997.5,-232 972.948,-225.879 946.578,-218.904 921.917,-212.203"/>
<polygon fill="black" stroke="black" points="922.763,-208.806 912.195,-209.552 920.921,-215.56 922.763,-208.806"/>
</g>
<!-- 9 -->
<g id="node10" class="node"><title>9</title>
<path fill="#abcece" stroke="black" d="M1282,-202C1282,-202 1019,-202 1019,-202 1013,-202 1007,-196 1007,-190 1007,-190 1007,-176 1007,-176 1007,-170 1013,-164 1019,-164 1019,-164 1282,-164 1282,-164 1288,-164 1294,-170 1294,-176 1294,-176 1294,-190 1294,-190 1294,-196 1288,-202 1282,-202"/>
<text text-anchor="middle" x="1150.5" y="-186.8" font-family="Times,serif" font-size="14.00">comp 2</text>
<text text-anchor="middle" x="1150.5" y="-171.8" font-family="Times,serif" font-size="14.00">log gamma1: &#45;0.449755 &#160;&#160;log gamma2: 1.400120</text>
</g>
<!-- 2&#45;&gt;9 -->
<g id="edge9" class="edge"><title>2&#45;&gt;9</title>
<path fill="none" stroke="black" d="M1241.6,-267.827C1222.4,-250.16 1197.01,-226.801 1177.92,-209.23"/>
<polygon fill="black" stroke="black" points="1180.15,-206.523 1170.42,-202.327 1175.41,-211.674 1180.15,-206.523"/>
</g>
<!-- 10 -->
<g id="node11" class="node"><title>10</title>
<path fill="#97b6b6" stroke="black" d="M1421.5,-202C1421.5,-202 1353.5,-202 1353.5,-202 1347.5,-202 1341.5,-196 1341.5,-190 1341.5,-190 1341.5,-176 1341.5,-176 1341.5,-170 1347.5,-164 1353.5,-164 1353.5,-164 1421.5,-164 1421.5,-164 1427.5,-164 1433.5,-170 1433.5,-176 1433.5,-176 1433.5,-190 1433.5,-190 1433.5,-196 1427.5,-202 1421.5,-202"/>
<text text-anchor="middle" x="1387.5" y="-186.8" font-family="Times,serif" font-size="14.00">comp 3</text>
<text text-anchor="middle" x="1387.5" y="-171.8" font-family="Times,serif" font-size="14.00">n kernels: &#45;52</text>
</g>
<!-- 2&#45;&gt;10 -->
<g id="edge10" class="edge"><title>2&#45;&gt;10</title>
<path fill="none" stroke="black" d="M1297.17,-267.827C1316.2,-250.16 1341.38,-226.801 1360.31,-209.23"/>
<polygon fill="black" stroke="black" points="1362.8,-211.695 1367.75,-202.327 1358.04,-206.563 1362.8,-211.695"/>
</g>
<!-- 11 -->
<g id="node12" class="node"><title>11</title>
<path fill="#839e9e" stroke="black" d="M1720,-202C1720,-202 1581,-202 1581,-202 1575,-202 1569,-196 1569,-190 1569,-190 1569,-176 1569,-176 1569,-170 1575,-164 1581,-164 1581,-164 1720,-164 1720,-164 1726,-164 1732,-170 1732,-176 1732,-176 1732,-190 1732,-190 1732,-196 1726,-202 1720,-202"/>
<text text-anchor="middle" x="1650.5" y="-186.8" font-family="Times,serif" font-size="14.00">path end 1</text>
<text text-anchor="middle" x="1650.5" y="-171.8" font-family="Times,serif" font-size="14.00">k width: &#45;2 &#160;&#160;n kernels: &#45;99</text>
</g>
<!-- 2&#45;&gt;11 -->
<g id="edge11" class="edge"><title>2&#45;&gt;11</title>
<path fill="none" stroke="black" d="M1358.35,-267.965C1425.14,-248.77 1515.51,-222.798 1577.97,-204.846"/>
<polygon fill="black" stroke="black" points="1579.1,-208.162 1587.75,-202.036 1577.17,-201.434 1579.1,-208.162"/>
</g>
<!-- 12 -->
<g id="node13" class="node"><title>12</title>
<path fill="#d3ffff" stroke="black" d="M2247.5,-201C2247.5,-201 2213.5,-201 2213.5,-201 2207.5,-201 2201.5,-195 2201.5,-189 2201.5,-189 2201.5,-177 2201.5,-177 2201.5,-171 2207.5,-165 2213.5,-165 2213.5,-165 2247.5,-165 2247.5,-165 2253.5,-165 2259.5,-171 2259.5,-177 2259.5,-177 2259.5,-189 2259.5,-189 2259.5,-195 2253.5,-201 2247.5,-201"/>
<text text-anchor="middle" x="2230.5" y="-179.3" font-family="Times,serif" font-size="14.00">comp 0</text>
</g>
<!-- 3&#45;&gt;12 -->
<g id="edge12" class="edge"><title>3&#45;&gt;12</title>
<path fill="none" stroke="black" d="M2503.5,-275.418C2437.48,-253.311 2327.38,-216.441 2269.22,-196.966"/>
<polygon fill="black" stroke="black" points="2270.26,-193.624 2259.67,-193.767 2268.04,-200.261 2270.26,-193.624"/>
</g>
<!-- 13 -->
<g id="node14" class="node"><title>13</title>
<path fill="#bfe6e6" stroke="black" d="M2463.5,-201C2463.5,-201 2429.5,-201 2429.5,-201 2423.5,-201 2417.5,-195 2417.5,-189 2417.5,-189 2417.5,-177 2417.5,-177 2417.5,-171 2423.5,-165 2429.5,-165 2429.5,-165 2463.5,-165 2463.5,-165 2469.5,-165 2475.5,-171 2475.5,-177 2475.5,-177 2475.5,-189 2475.5,-189 2475.5,-195 2469.5,-201 2463.5,-201"/>
<text text-anchor="middle" x="2446.5" y="-179.3" font-family="Times,serif" font-size="14.00">comp 1</text>
</g>
<!-- 3&#45;&gt;13 -->
<g id="edge13" class="edge"><title>3&#45;&gt;13</title>
<path fill="none" stroke="black" d="M2539.17,-275.418C2520.52,-257.024 2491.52,-228.411 2470.93,-208.1"/>
<polygon fill="black" stroke="black" points="2473.34,-205.558 2463.76,-201.027 2468.42,-210.541 2473.34,-205.558"/>
</g>
<!-- 14 -->
<g id="node15" class="node"><title>14</title>
<path fill="#abcece" stroke="black" d="M2799,-202C2799,-202 2540,-202 2540,-202 2534,-202 2528,-196 2528,-190 2528,-190 2528,-176 2528,-176 2528,-170 2534,-164 2540,-164 2540,-164 2799,-164 2799,-164 2805,-164 2811,-170 2811,-176 2811,-176 2811,-190 2811,-190 2811,-196 2805,-202 2799,-202"/>
<text text-anchor="middle" x="2669.5" y="-186.8" font-family="Times,serif" font-size="14.00">comp 2</text>
<text text-anchor="middle" x="2669.5" y="-171.8" font-family="Times,serif" font-size="14.00">log gamma1: 1.346936 &#160;&#160;log gamma2: 0.583747</text>
</g>
<!-- 3&#45;&gt;14 -->
<g id="edge14" class="edge"><title>3&#45;&gt;14</title>
<path fill="none" stroke="black" d="M2575.99,-275.418C2594.48,-257.349 2623.05,-229.417 2643.74,-209.183"/>
<polygon fill="black" stroke="black" points="2646.27,-211.602 2650.98,-202.109 2641.38,-206.597 2646.27,-211.602"/>
</g>
<!-- 15 -->
<g id="node16" class="node"><title>15</title>
<path fill="#97b6b6" stroke="black" d="M3049.5,-202C3049.5,-202 2917.5,-202 2917.5,-202 2911.5,-202 2905.5,-196 2905.5,-190 2905.5,-190 2905.5,-176 2905.5,-176 2905.5,-170 2911.5,-164 2917.5,-164 2917.5,-164 3049.5,-164 3049.5,-164 3055.5,-164 3061.5,-170 3061.5,-176 3061.5,-176 3061.5,-190 3061.5,-190 3061.5,-196 3055.5,-202 3049.5,-202"/>
<text text-anchor="middle" x="2983.5" y="-186.8" font-family="Times,serif" font-size="14.00">path end 2</text>
<text text-anchor="middle" x="2983.5" y="-171.8" font-family="Times,serif" font-size="14.00">k width: &#45;2 &#160;&#160;n kernels: &#45;6</text>
</g>
<!-- 3&#45;&gt;15 -->
<g id="edge15" class="edge"><title>3&#45;&gt;15</title>
<path fill="none" stroke="black" d="M2639.51,-275.45C2691.3,-263.755 2759.52,-247.804 2819.5,-232 2850.94,-223.714 2885.53,-213.725 2914.8,-205.009"/>
<polygon fill="black" stroke="black" points="2915.93,-208.324 2924.51,-202.106 2913.92,-201.617 2915.93,-208.324"/>
</g>
<!-- 16 -->
<g id="node17" class="node"><title>16</title>
<path fill="#d3ffff" stroke="black" d="M3543.5,-202C3543.5,-202 3275.5,-202 3275.5,-202 3269.5,-202 3263.5,-196 3263.5,-190 3263.5,-190 3263.5,-176 3263.5,-176 3263.5,-170 3269.5,-164 3275.5,-164 3275.5,-164 3543.5,-164 3543.5,-164 3549.5,-164 3555.5,-170 3555.5,-176 3555.5,-176 3555.5,-190 3555.5,-190 3555.5,-196 3549.5,-202 3543.5,-202"/>
<text text-anchor="middle" x="3409.5" y="-186.8" font-family="Times,serif" font-size="14.00">comp 0</text>
<text text-anchor="middle" x="3409.5" y="-171.8" font-family="Times,serif" font-size="14.00">log gamma1: &#45;1.835332 &#160;&#160;log gamma2: &#45;0.808339</text>
</g>
<!-- 4&#45;&gt;16 -->
<g id="edge16" class="edge"><title>4&#45;&gt;16</title>
<path fill="none" stroke="black" d="M3615,-267.965C3568.89,-249.125 3506.81,-223.757 3462.98,-205.851"/>
<polygon fill="black" stroke="black" points="3464.22,-202.578 3453.64,-202.036 3461.58,-209.058 3464.22,-202.578"/>
</g>
<!-- 17 -->
<g id="node18" class="node"><title>17</title>
<path fill="#bfe6e6" stroke="black" d="M3714.5,-202C3714.5,-202 3640.5,-202 3640.5,-202 3634.5,-202 3628.5,-196 3628.5,-190 3628.5,-190 3628.5,-176 3628.5,-176 3628.5,-170 3634.5,-164 3640.5,-164 3640.5,-164 3714.5,-164 3714.5,-164 3720.5,-164 3726.5,-170 3726.5,-176 3726.5,-176 3726.5,-190 3726.5,-190 3726.5,-196 3720.5,-202 3714.5,-202"/>
<text text-anchor="middle" x="3677.5" y="-186.8" font-family="Times,serif" font-size="14.00">comp 1</text>
<text text-anchor="middle" x="3677.5" y="-171.8" font-family="Times,serif" font-size="14.00">n kernels: &#45;592</text>
</g>
<!-- 4&#45;&gt;17 -->
<g id="edge17" class="edge"><title>4&#45;&gt;17</title>
<path fill="none" stroke="black" d="M3677.5,-267.827C3677.5,-251.18 3677.5,-229.482 3677.5,-212.332"/>
<polygon fill="black" stroke="black" points="3681,-212.327 3677.5,-202.327 3674,-212.327 3681,-212.327"/>
</g>
<!-- 18 -->
<g id="node19" class="node"><title>18</title>
<path fill="#abcece" stroke="black" d="M3970,-202C3970,-202 3757,-202 3757,-202 3751,-202 3745,-196 3745,-190 3745,-190 3745,-176 3745,-176 3745,-170 3751,-164 3757,-164 3757,-164 3970,-164 3970,-164 3976,-164 3982,-170 3982,-176 3982,-176 3982,-190 3982,-190 3982,-196 3976,-202 3970,-202"/>
<text text-anchor="middle" x="3863.5" y="-186.8" font-family="Times,serif" font-size="14.00">comp 2</text>
<text text-anchor="middle" x="3863.5" y="-171.8" font-family="Times,serif" font-size="14.00">log gamma2: 1.590741 &#160;&#160;n kernels: &#45;592</text>
</g>
<!-- 4&#45;&gt;18 -->
<g id="edge18" class="edge"><title>4&#45;&gt;18</title>
<path fill="none" stroke="black" d="M3721.11,-267.827C3752.15,-249.553 3793.53,-225.19 3823.68,-207.44"/>
<polygon fill="black" stroke="black" points="3825.81,-210.247 3832.66,-202.158 3822.26,-204.215 3825.81,-210.247"/>
</g>
<!-- 19 -->
<g id="node20" class="node"><title>19</title>
<path fill="#97b6b6" stroke="black" d="M4158.5,-202C4158.5,-202 4012.5,-202 4012.5,-202 4006.5,-202 4000.5,-196 4000.5,-190 4000.5,-190 4000.5,-176 4000.5,-176 4000.5,-170 4006.5,-164 4012.5,-164 4012.5,-164 4158.5,-164 4158.5,-164 4164.5,-164 4170.5,-170 4170.5,-176 4170.5,-176 4170.5,-190 4170.5,-190 4170.5,-196 4164.5,-202 4158.5,-202"/>
<text text-anchor="middle" x="4085.5" y="-186.8" font-family="Times,serif" font-size="14.00">path end 3</text>
<text text-anchor="middle" x="4085.5" y="-171.8" font-family="Times,serif" font-size="14.00">k width: &#45;2 &#160;&#160;n kernels: &#45;639</text>
</g>
<!-- 4&#45;&gt;19 -->
<g id="edge19" class="edge"><title>4&#45;&gt;19</title>
<path fill="none" stroke="black" d="M3821.07,-273.786C3875.05,-264.175 3936.42,-250.579 3990.5,-232 4009.52,-225.465 4029.54,-215.81 4046.27,-206.869"/>
<polygon fill="black" stroke="black" points="4048.1,-209.86 4055.2,-202 4044.75,-203.715 4048.1,-209.86"/>
</g>
<!-- 20 -->
<g id="node21" class="node"><title>20</title>
<path fill="#d3ffff" stroke="black" d="M4482,-232C4482,-232 4201,-232 4201,-232 4195,-232 4189,-226 4189,-220 4189,-220 4189,-146 4189,-146 4189,-140 4195,-134 4201,-134 4201,-134 4482,-134 4482,-134 4488,-134 4494,-140 4494,-146 4494,-146 4494,-220 4494,-220 4494,-226 4488,-232 4482,-232"/>
<text text-anchor="middle" x="4341.5" y="-216.8" font-family="Times,serif" font-size="14.00">forward</text>
<text text-anchor="middle" x="4341.5" y="-201.8" font-family="Times,serif" font-size="14.00">CB0/C0</text>
<text text-anchor="middle" x="4341.5" y="-186.8" font-family="Times,serif" font-size="14.00">dilation rate: 1 &#160;&#160;k width: 3</text>
<text text-anchor="middle" x="4341.5" y="-171.8" font-family="Times,serif" font-size="14.00">log gamma1: &#45;11.000000 &#160;&#160;log gamma2: &#45;11.000000</text>
<text text-anchor="middle" x="4341.5" y="-156.8" font-family="Times,serif" font-size="14.00">log lambda1: &#45;11.000000 &#160;&#160;log lambda2: &#45;11.000000</text>
<text text-anchor="middle" x="4341.5" y="-141.8" font-family="Times,serif" font-size="14.00">n kernels: 64</text>
</g>
<!-- 5&#45;&gt;20 -->
<g id="edge20" class="edge"><title>5&#45;&gt;20</title>
<path fill="none" stroke="black" d="M4618.91,-278.044C4585.79,-266.816 4538.92,-250.928 4493.12,-235.402"/>
<polygon fill="black" stroke="black" points="4493.97,-231.991 4483.37,-232.096 4491.72,-238.621 4493.97,-231.991"/>
</g>
<!-- 21 -->
<g id="node22" class="node"><title>21</title>
<path fill="#bfe6e6" stroke="black" d="M4805,-232C4805,-232 4524,-232 4524,-232 4518,-232 4512,-226 4512,-220 4512,-220 4512,-146 4512,-146 4512,-140 4518,-134 4524,-134 4524,-134 4805,-134 4805,-134 4811,-134 4817,-140 4817,-146 4817,-146 4817,-220 4817,-220 4817,-226 4811,-232 4805,-232"/>
<text text-anchor="middle" x="4664.5" y="-216.8" font-family="Times,serif" font-size="14.00">residual 1</text>
<text text-anchor="middle" x="4664.5" y="-201.8" font-family="Times,serif" font-size="14.00">CB1/PE1</text>
<text text-anchor="middle" x="4664.5" y="-186.8" font-family="Times,serif" font-size="14.00">dilation rate: 1 &#160;&#160;k width: 3</text>
<text text-anchor="middle" x="4664.5" y="-171.8" font-family="Times,serif" font-size="14.00">log gamma1: &#45;11.000000 &#160;&#160;log gamma2: &#45;11.000000</text>
<text text-anchor="middle" x="4664.5" y="-156.8" font-family="Times,serif" font-size="14.00">log lambda1: &#45;11.000000 &#160;&#160;log lambda2: &#45;11.000000</text>
<text text-anchor="middle" x="4664.5" y="-141.8" font-family="Times,serif" font-size="14.00">n kernels: 64</text>
</g>
<!-- 5&#45;&gt;21 -->
<g id="edge21" class="edge"><title>5&#45;&gt;21</title>
<path fill="none" stroke="black" d="M4664.5,-276.391C4664.5,-266.993 4664.5,-254.728 4664.5,-242.22"/>
<polygon fill="black" stroke="black" points="4668,-242.188 4664.5,-232.188 4661,-242.188 4668,-242.188"/>
</g>
<!-- 22 -->
<g id="node23" class="node"><title>22</title>
<path fill="#abcece" stroke="black" d="M5128,-232C5128,-232 4847,-232 4847,-232 4841,-232 4835,-226 4835,-220 4835,-220 4835,-146 4835,-146 4835,-140 4841,-134 4847,-134 4847,-134 5128,-134 5128,-134 5134,-134 5140,-140 5140,-146 5140,-146 5140,-220 5140,-220 5140,-226 5134,-232 5128,-232"/>
<text text-anchor="middle" x="4987.5" y="-216.8" font-family="Times,serif" font-size="14.00">residual 2</text>
<text text-anchor="middle" x="4987.5" y="-201.8" font-family="Times,serif" font-size="14.00">CB2/PE2</text>
<text text-anchor="middle" x="4987.5" y="-186.8" font-family="Times,serif" font-size="14.00">dilation rate: 1 &#160;&#160;k width: 3</text>
<text text-anchor="middle" x="4987.5" y="-171.8" font-family="Times,serif" font-size="14.00">log gamma1: &#45;11.000000 &#160;&#160;log gamma2: &#45;11.000000</text>
<text text-anchor="middle" x="4987.5" y="-156.8" font-family="Times,serif" font-size="14.00">log lambda1: &#45;11.000000 &#160;&#160;log lambda2: &#45;11.000000</text>
<text text-anchor="middle" x="4987.5" y="-141.8" font-family="Times,serif" font-size="14.00">n kernels: 64</text>
</g>
<!-- 5&#45;&gt;22 -->
<g id="edge22" class="edge"><title>5&#45;&gt;22</title>
<path fill="none" stroke="black" d="M4710.09,-278.044C4743.21,-266.816 4790.08,-250.928 4835.88,-235.402"/>
<polygon fill="black" stroke="black" points="4837.28,-238.621 4845.63,-232.096 4835.03,-231.991 4837.28,-238.621"/>
</g>
<!-- 23 -->
<g id="node24" class="node"><title>23</title>
<path fill="#97b6b6" stroke="black" d="M5451,-232C5451,-232 5170,-232 5170,-232 5164,-232 5158,-226 5158,-220 5158,-220 5158,-146 5158,-146 5158,-140 5164,-134 5170,-134 5170,-134 5451,-134 5451,-134 5457,-134 5463,-140 5463,-146 5463,-146 5463,-220 5463,-220 5463,-226 5457,-232 5451,-232"/>
<text text-anchor="middle" x="5310.5" y="-216.8" font-family="Times,serif" font-size="14.00">residual 3</text>
<text text-anchor="middle" x="5310.5" y="-201.8" font-family="Times,serif" font-size="14.00">CB3/PE3</text>
<text text-anchor="middle" x="5310.5" y="-186.8" font-family="Times,serif" font-size="14.00">dilation rate: 1 &#160;&#160;k width: 3</text>
<text text-anchor="middle" x="5310.5" y="-171.8" font-family="Times,serif" font-size="14.00">log gamma1: &#45;11.000000 &#160;&#160;log gamma2: &#45;11.000000</text>
<text text-anchor="middle" x="5310.5" y="-156.8" font-family="Times,serif" font-size="14.00">log lambda1: &#45;11.000000 &#160;&#160;log lambda2: &#45;11.000000</text>
<text text-anchor="middle" x="5310.5" y="-141.8" font-family="Times,serif" font-size="14.00">n kernels: 64</text>
</g>
<!-- 5&#45;&gt;23 -->
<g id="edge23" class="edge"><title>5&#45;&gt;23</title>
<path fill="none" stroke="black" d="M4710.28,-290.164C4794.99,-283.457 4981.86,-266.154 5147.73,-232.073"/>
<polygon fill="black" stroke="black" points="5148.53,-235.48 5157.61,-230.016 5147.11,-228.626 5148.53,-235.48"/>
</g>
<!-- 24 -->
<g id="node25" class="node"><title>24</title>
<path fill="#e9d3ff" stroke="black" d="M293,-98C293,-98 12,-98 12,-98 6,-98 0,-92 0,-86 0,-86 0,-12 0,-12 0,-6 6,-0 12,-0 12,-0 293,-0 293,-0 299,-0 305,-6 305,-12 305,-12 305,-86 305,-86 305,-92 299,-98 293,-98"/>
<text text-anchor="middle" x="152.5" y="-82.8" font-family="Times,serif" font-size="14.00">forward</text>
<text text-anchor="middle" x="152.5" y="-67.8" font-family="Times,serif" font-size="14.00">input</text>
<text text-anchor="middle" x="152.5" y="-52.8" font-family="Times,serif" font-size="14.00">dilation rate: 1 &#160;&#160;k width: 3</text>
<text text-anchor="middle" x="152.5" y="-37.8" font-family="Times,serif" font-size="14.00">log gamma1: &#45;11.000000 &#160;&#160;log gamma2: &#45;11.000000</text>
<text text-anchor="middle" x="152.5" y="-22.8" font-family="Times,serif" font-size="14.00">log lambda1: &#45;11.000000 &#160;&#160;log lambda2: &#45;11.000000</text>
<text text-anchor="middle" x="152.5" y="-7.8" font-family="Times,serif" font-size="14.00">n kernels: 64</text>
</g>
<!-- 6&#45;&gt;24 -->
<g id="edge24" class="edge"><title>6&#45;&gt;24</title>
<path fill="none" stroke="black" d="M232.764,-163.923C222.314,-149.091 206.929,-127.253 192.416,-106.655"/>
<polygon fill="black" stroke="black" points="195.104,-104.393 186.483,-98.2336 189.381,-108.424 195.104,-104.393"/>
</g>
<!-- 25 -->
<g id="node26" class="node"><title>25</title>
<path fill="#e9d3ff" stroke="black" d="M616,-98C616,-98 335,-98 335,-98 329,-98 323,-92 323,-86 323,-86 323,-12 323,-12 323,-6 329,-0 335,-0 335,-0 616,-0 616,-0 622,-0 628,-6 628,-12 628,-12 628,-86 628,-86 628,-92 622,-98 616,-98"/>
<text text-anchor="middle" x="475.5" y="-82.8" font-family="Times,serif" font-size="14.00">forward</text>
<text text-anchor="middle" x="475.5" y="-67.8" font-family="Times,serif" font-size="14.00">input</text>
<text text-anchor="middle" x="475.5" y="-52.8" font-family="Times,serif" font-size="14.00">dilation rate: 1 &#160;&#160;k width: 3</text>
<text text-anchor="middle" x="475.5" y="-37.8" font-family="Times,serif" font-size="14.00">log gamma1: &#45;11.000000 &#160;&#160;log gamma2: &#45;11.000000</text>
<text text-anchor="middle" x="475.5" y="-22.8" font-family="Times,serif" font-size="14.00">log lambda1: &#45;11.000000 &#160;&#160;log lambda2: &#45;11.000000</text>
<text text-anchor="middle" x="475.5" y="-7.8" font-family="Times,serif" font-size="14.00">n kernels: 64</text>
</g>
<!-- 7&#45;&gt;25 -->
<g id="edge25" class="edge"><title>7&#45;&gt;25</title>
<path fill="none" stroke="black" d="M535.051,-163.923C527.366,-149.223 516.085,-127.641 505.403,-107.205"/>
<polygon fill="black" stroke="black" points="508.447,-105.474 500.713,-98.2336 502.244,-108.717 508.447,-105.474"/>
</g>
<!-- 26 -->
<g id="node27" class="node"><title>26</title>
<path fill="#e9d3ff" stroke="black" d="M939,-98C939,-98 658,-98 658,-98 652,-98 646,-92 646,-86 646,-86 646,-12 646,-12 646,-6 652,-0 658,-0 658,-0 939,-0 939,-0 945,-0 951,-6 951,-12 951,-12 951,-86 951,-86 951,-92 945,-98 939,-98"/>
<text text-anchor="middle" x="798.5" y="-82.8" font-family="Times,serif" font-size="14.00">forward</text>
<text text-anchor="middle" x="798.5" y="-67.8" font-family="Times,serif" font-size="14.00">CB1/C0</text>
<text text-anchor="middle" x="798.5" y="-52.8" font-family="Times,serif" font-size="14.00">dilation rate: 1 &#160;&#160;k width: 3</text>
<text text-anchor="middle" x="798.5" y="-37.8" font-family="Times,serif" font-size="14.00">log gamma1: &#45;11.000000 &#160;&#160;log gamma2: &#45;11.000000</text>
<text text-anchor="middle" x="798.5" y="-22.8" font-family="Times,serif" font-size="14.00">log lambda1: &#45;11.000000 &#160;&#160;log lambda2: &#45;11.000000</text>
<text text-anchor="middle" x="798.5" y="-7.8" font-family="Times,serif" font-size="14.00">n kernels: 64</text>
</g>
<!-- 8&#45;&gt;26 -->
<g id="edge26" class="edge"><title>8&#45;&gt;26</title>
<path fill="none" stroke="black" d="M817.011,-156.236C814.629,-142.567 811.598,-125.174 808.682,-108.438"/>
<polygon fill="black" stroke="black" points="812.053,-107.393 806.888,-98.1423 805.157,-108.595 812.053,-107.393"/>
</g>
<!-- 27 -->
<g id="node28" class="node"><title>27</title>
<path fill="#e9d3ff" stroke="black" d="M1262,-98C1262,-98 981,-98 981,-98 975,-98 969,-92 969,-86 969,-86 969,-12 969,-12 969,-6 975,-0 981,-0 981,-0 1262,-0 1262,-0 1268,-0 1274,-6 1274,-12 1274,-12 1274,-86 1274,-86 1274,-92 1268,-98 1262,-98"/>
<text text-anchor="middle" x="1121.5" y="-82.8" font-family="Times,serif" font-size="14.00">forward</text>
<text text-anchor="middle" x="1121.5" y="-67.8" font-family="Times,serif" font-size="14.00">CB1/C1</text>
<text text-anchor="middle" x="1121.5" y="-52.8" font-family="Times,serif" font-size="14.00">dilation rate: 1 &#160;&#160;k width: 3</text>
<text text-anchor="middle" x="1121.5" y="-37.8" font-family="Times,serif" font-size="14.00">log gamma1: &#45;11.000000 &#160;&#160;log gamma2: &#45;11.000000</text>
<text text-anchor="middle" x="1121.5" y="-22.8" font-family="Times,serif" font-size="14.00">log lambda1: &#45;11.000000 &#160;&#160;log lambda2: &#45;11.000000</text>
<text text-anchor="middle" x="1121.5" y="-7.8" font-family="Times,serif" font-size="14.00">n kernels: 64</text>
</g>
<!-- 9&#45;&gt;27 -->
<g id="edge27" class="edge"><title>9&#45;&gt;27</title>
<path fill="none" stroke="black" d="M1146.53,-163.923C1143.34,-149.42 1138.68,-128.221 1134.25,-108.03"/>
<polygon fill="black" stroke="black" points="1137.66,-107.25 1132.1,-98.2336 1130.82,-108.752 1137.66,-107.25"/>
</g>
<!-- 28 -->
<g id="node29" class="node"><title>28</title>
<path fill="#e9d3ff" stroke="black" d="M1585,-98C1585,-98 1304,-98 1304,-98 1298,-98 1292,-92 1292,-86 1292,-86 1292,-12 1292,-12 1292,-6 1298,-0 1304,-0 1304,-0 1585,-0 1585,-0 1591,-0 1597,-6 1597,-12 1597,-12 1597,-86 1597,-86 1597,-92 1591,-98 1585,-98"/>
<text text-anchor="middle" x="1444.5" y="-82.8" font-family="Times,serif" font-size="14.00">forward</text>
<text text-anchor="middle" x="1444.5" y="-67.8" font-family="Times,serif" font-size="14.00">CB1/C2</text>
<text text-anchor="middle" x="1444.5" y="-52.8" font-family="Times,serif" font-size="14.00">dilation rate: 1 &#160;&#160;k width: 3</text>
<text text-anchor="middle" x="1444.5" y="-37.8" font-family="Times,serif" font-size="14.00">log gamma1: &#45;11.000000 &#160;&#160;log gamma2: &#45;11.000000</text>
<text text-anchor="middle" x="1444.5" y="-22.8" font-family="Times,serif" font-size="14.00">log lambda1: &#45;11.000000 &#160;&#160;log lambda2: &#45;11.000000</text>
<text text-anchor="middle" x="1444.5" y="-7.8" font-family="Times,serif" font-size="14.00">n kernels: 64</text>
</g>
<!-- 10&#45;&gt;28 -->
<g id="edge28" class="edge"><title>10&#45;&gt;28</title>
<path fill="none" stroke="black" d="M1395.31,-163.923C1401.63,-149.289 1410.89,-127.835 1419.68,-107.48"/>
<polygon fill="black" stroke="black" points="1422.92,-108.802 1423.67,-98.2336 1416.49,-106.027 1422.92,-108.802"/>
</g>
<!-- 29 -->
<g id="node30" class="node"><title>29</title>
<path fill="#e9d3ff" stroke="black" d="M1908,-98C1908,-98 1627,-98 1627,-98 1621,-98 1615,-92 1615,-86 1615,-86 1615,-12 1615,-12 1615,-6 1621,-0 1627,-0 1627,-0 1908,-0 1908,-0 1914,-0 1920,-6 1920,-12 1920,-12 1920,-86 1920,-86 1920,-92 1914,-98 1908,-98"/>
<text text-anchor="middle" x="1767.5" y="-82.8" font-family="Times,serif" font-size="14.00">forward</text>
<text text-anchor="middle" x="1767.5" y="-67.8" font-family="Times,serif" font-size="14.00">CB1/C3</text>
<text text-anchor="middle" x="1767.5" y="-52.8" font-family="Times,serif" font-size="14.00">dilation rate: 1 &#160;&#160;k width: 3</text>
<text text-anchor="middle" x="1767.5" y="-37.8" font-family="Times,serif" font-size="14.00">log gamma1: &#45;11.000000 &#160;&#160;log gamma2: &#45;11.000000</text>
<text text-anchor="middle" x="1767.5" y="-22.8" font-family="Times,serif" font-size="14.00">log lambda1: &#45;11.000000 &#160;&#160;log lambda2: &#45;11.000000</text>
<text text-anchor="middle" x="1767.5" y="-7.8" font-family="Times,serif" font-size="14.00">n kernels: 64</text>
</g>
<!-- 11&#45;&gt;29 -->
<g id="edge29" class="edge"><title>11&#45;&gt;29</title>
<path fill="none" stroke="black" d="M1666.52,-163.923C1679.84,-148.893 1699.54,-126.67 1718.01,-105.832"/>
<polygon fill="black" stroke="black" points="1720.73,-108.039 1724.75,-98.2336 1715.5,-103.396 1720.73,-108.039"/>
</g>
<!-- 30 -->
<g id="node31" class="node"><title>30</title>
<path fill="#e9d3ff" stroke="black" d="M2231,-98C2231,-98 1950,-98 1950,-98 1944,-98 1938,-92 1938,-86 1938,-86 1938,-12 1938,-12 1938,-6 1944,-0 1950,-0 1950,-0 2231,-0 2231,-0 2237,-0 2243,-6 2243,-12 2243,-12 2243,-86 2243,-86 2243,-92 2237,-98 2231,-98"/>
<text text-anchor="middle" x="2090.5" y="-82.8" font-family="Times,serif" font-size="14.00">forward</text>
<text text-anchor="middle" x="2090.5" y="-67.8" font-family="Times,serif" font-size="14.00">input</text>
<text text-anchor="middle" x="2090.5" y="-52.8" font-family="Times,serif" font-size="14.00">dilation rate: 1 &#160;&#160;k width: 3</text>
<text text-anchor="middle" x="2090.5" y="-37.8" font-family="Times,serif" font-size="14.00">log gamma1: &#45;11.000000 &#160;&#160;log gamma2: &#45;11.000000</text>
<text text-anchor="middle" x="2090.5" y="-22.8" font-family="Times,serif" font-size="14.00">log lambda1: &#45;11.000000 &#160;&#160;log lambda2: &#45;11.000000</text>
<text text-anchor="middle" x="2090.5" y="-7.8" font-family="Times,serif" font-size="14.00">n kernels: 64</text>
</g>
<!-- 12&#45;&gt;30 -->
<g id="edge30" class="edge"><title>12&#45;&gt;30</title>
<path fill="none" stroke="black" d="M2212.2,-164.743C2196.08,-149.546 2171.7,-126.559 2148.98,-105.14"/>
<polygon fill="black" stroke="black" points="2151.35,-102.567 2141.68,-98.2533 2146.55,-107.66 2151.35,-102.567"/>
</g>
<!-- 31 -->
<g id="node32" class="node"><title>31</title>
<path fill="#e9d3ff" stroke="black" d="M2554,-98C2554,-98 2273,-98 2273,-98 2267,-98 2261,-92 2261,-86 2261,-86 2261,-12 2261,-12 2261,-6 2267,-0 2273,-0 2273,-0 2554,-0 2554,-0 2560,-0 2566,-6 2566,-12 2566,-12 2566,-86 2566,-86 2566,-92 2560,-98 2554,-98"/>
<text text-anchor="middle" x="2413.5" y="-82.8" font-family="Times,serif" font-size="14.00">forward</text>
<text text-anchor="middle" x="2413.5" y="-67.8" font-family="Times,serif" font-size="14.00">CB2/C0</text>
<text text-anchor="middle" x="2413.5" y="-52.8" font-family="Times,serif" font-size="14.00">dilation rate: 1 &#160;&#160;k width: 3</text>
<text text-anchor="middle" x="2413.5" y="-37.8" font-family="Times,serif" font-size="14.00">log gamma1: &#45;11.000000 &#160;&#160;log gamma2: &#45;11.000000</text>
<text text-anchor="middle" x="2413.5" y="-22.8" font-family="Times,serif" font-size="14.00">log lambda1: &#45;11.000000 &#160;&#160;log lambda2: &#45;11.000000</text>
<text text-anchor="middle" x="2413.5" y="-7.8" font-family="Times,serif" font-size="14.00">n kernels: 64</text>
</g>
<!-- 13&#45;&gt;31 -->
<g id="edge31" class="edge"><title>13&#45;&gt;31</title>
<path fill="none" stroke="black" d="M2442.19,-164.743C2438.57,-150.27 2433.18,-128.73 2428.05,-108.21"/>
<polygon fill="black" stroke="black" points="2431.38,-107.106 2425.56,-98.2533 2424.59,-108.804 2431.38,-107.106"/>
</g>
<!-- 32 -->
<g id="node33" class="node"><title>32</title>
<path fill="#e9d3ff" stroke="black" d="M2877,-98C2877,-98 2596,-98 2596,-98 2590,-98 2584,-92 2584,-86 2584,-86 2584,-12 2584,-12 2584,-6 2590,-0 2596,-0 2596,-0 2877,-0 2877,-0 2883,-0 2889,-6 2889,-12 2889,-12 2889,-86 2889,-86 2889,-92 2883,-98 2877,-98"/>
<text text-anchor="middle" x="2736.5" y="-82.8" font-family="Times,serif" font-size="14.00">forward</text>
<text text-anchor="middle" x="2736.5" y="-67.8" font-family="Times,serif" font-size="14.00">CB2/C1</text>
<text text-anchor="middle" x="2736.5" y="-52.8" font-family="Times,serif" font-size="14.00">dilation rate: 1 &#160;&#160;k width: 3</text>
<text text-anchor="middle" x="2736.5" y="-37.8" font-family="Times,serif" font-size="14.00">log gamma1: &#45;11.000000 &#160;&#160;log gamma2: &#45;11.000000</text>
<text text-anchor="middle" x="2736.5" y="-22.8" font-family="Times,serif" font-size="14.00">log lambda1: &#45;11.000000 &#160;&#160;log lambda2: &#45;11.000000</text>
<text text-anchor="middle" x="2736.5" y="-7.8" font-family="Times,serif" font-size="14.00">n kernels: 64</text>
</g>
<!-- 14&#45;&gt;32 -->
<g id="edge32" class="edge"><title>14&#45;&gt;32</title>
<path fill="none" stroke="black" d="M2678.68,-163.923C2686.14,-149.223 2697.09,-127.641 2707.46,-107.205"/>
<polygon fill="black" stroke="black" points="2710.61,-108.735 2712.02,-98.2336 2704.37,-105.567 2710.61,-108.735"/>
</g>
<!-- 33 -->
<g id="node34" class="node"><title>33</title>
<path fill="#e9d3ff" stroke="black" d="M3200,-98C3200,-98 2919,-98 2919,-98 2913,-98 2907,-92 2907,-86 2907,-86 2907,-12 2907,-12 2907,-6 2913,-0 2919,-0 2919,-0 3200,-0 3200,-0 3206,-0 3212,-6 3212,-12 3212,-12 3212,-86 3212,-86 3212,-92 3206,-98 3200,-98"/>
<text text-anchor="middle" x="3059.5" y="-82.8" font-family="Times,serif" font-size="14.00">forward</text>
<text text-anchor="middle" x="3059.5" y="-67.8" font-family="Times,serif" font-size="14.00">CB2/C2</text>
<text text-anchor="middle" x="3059.5" y="-52.8" font-family="Times,serif" font-size="14.00">dilation rate: 1 &#160;&#160;k width: 3</text>
<text text-anchor="middle" x="3059.5" y="-37.8" font-family="Times,serif" font-size="14.00">log gamma1: &#45;11.000000 &#160;&#160;log gamma2: &#45;11.000000</text>
<text text-anchor="middle" x="3059.5" y="-22.8" font-family="Times,serif" font-size="14.00">log lambda1: &#45;11.000000 &#160;&#160;log lambda2: &#45;11.000000</text>
<text text-anchor="middle" x="3059.5" y="-7.8" font-family="Times,serif" font-size="14.00">n kernels: 64</text>
</g>
<!-- 15&#45;&gt;33 -->
<g id="edge33" class="edge"><title>15&#45;&gt;33</title>
<path fill="none" stroke="black" d="M2993.91,-163.923C3002.41,-149.157 3014.91,-127.447 3026.72,-106.93"/>
<polygon fill="black" stroke="black" points="3029.77,-108.646 3031.73,-98.2336 3023.71,-105.153 3029.77,-108.646"/>
</g>
<!-- 34 -->
<g id="node35" class="node"><title>34</title>
<path fill="#e9d3ff" stroke="black" d="M3523,-98C3523,-98 3242,-98 3242,-98 3236,-98 3230,-92 3230,-86 3230,-86 3230,-12 3230,-12 3230,-6 3236,-0 3242,-0 3242,-0 3523,-0 3523,-0 3529,-0 3535,-6 3535,-12 3535,-12 3535,-86 3535,-86 3535,-92 3529,-98 3523,-98"/>
<text text-anchor="middle" x="3382.5" y="-82.8" font-family="Times,serif" font-size="14.00">forward</text>
<text text-anchor="middle" x="3382.5" y="-67.8" font-family="Times,serif" font-size="14.00">input</text>
<text text-anchor="middle" x="3382.5" y="-52.8" font-family="Times,serif" font-size="14.00">dilation rate: 1 &#160;&#160;k width: 3</text>
<text text-anchor="middle" x="3382.5" y="-37.8" font-family="Times,serif" font-size="14.00">log gamma1: &#45;11.000000 &#160;&#160;log gamma2: &#45;11.000000</text>
<text text-anchor="middle" x="3382.5" y="-22.8" font-family="Times,serif" font-size="14.00">log lambda1: &#45;11.000000 &#160;&#160;log lambda2: &#45;11.000000</text>
<text text-anchor="middle" x="3382.5" y="-7.8" font-family="Times,serif" font-size="14.00">n kernels: 64</text>
</g>
<!-- 16&#45;&gt;34 -->
<g id="edge34" class="edge"><title>16&#45;&gt;34</title>
<path fill="none" stroke="black" d="M3405.8,-163.923C3402.85,-149.486 3398.54,-128.413 3394.43,-108.306"/>
<polygon fill="black" stroke="black" points="3397.8,-107.329 3392.37,-98.2336 3390.94,-108.732 3397.8,-107.329"/>
</g>
<!-- 35 -->
<g id="node36" class="node"><title>35</title>
<path fill="#e9d3ff" stroke="black" d="M3846,-98C3846,-98 3565,-98 3565,-98 3559,-98 3553,-92 3553,-86 3553,-86 3553,-12 3553,-12 3553,-6 3559,-0 3565,-0 3565,-0 3846,-0 3846,-0 3852,-0 3858,-6 3858,-12 3858,-12 3858,-86 3858,-86 3858,-92 3852,-98 3846,-98"/>
<text text-anchor="middle" x="3705.5" y="-82.8" font-family="Times,serif" font-size="14.00">forward</text>
<text text-anchor="middle" x="3705.5" y="-67.8" font-family="Times,serif" font-size="14.00">CB3/C0</text>
<text text-anchor="middle" x="3705.5" y="-52.8" font-family="Times,serif" font-size="14.00">dilation rate: 1 &#160;&#160;k width: 3</text>
<text text-anchor="middle" x="3705.5" y="-37.8" font-family="Times,serif" font-size="14.00">log gamma1: &#45;11.000000 &#160;&#160;log gamma2: &#45;11.000000</text>
<text text-anchor="middle" x="3705.5" y="-22.8" font-family="Times,serif" font-size="14.00">log lambda1: &#45;11.000000 &#160;&#160;log lambda2: &#45;11.000000</text>
<text text-anchor="middle" x="3705.5" y="-7.8" font-family="Times,serif" font-size="14.00">n kernels: 64</text>
</g>
<!-- 17&#45;&gt;35 -->
<g id="edge35" class="edge"><title>17&#45;&gt;35</title>
<path fill="none" stroke="black" d="M3681.33,-163.923C3684.41,-149.42 3688.91,-128.221 3693.19,-108.03"/>
<polygon fill="black" stroke="black" points="3696.62,-108.742 3695.27,-98.2336 3689.77,-107.29 3696.62,-108.742"/>
</g>
<!-- 36 -->
<g id="node37" class="node"><title>36</title>
<path fill="#e9d3ff" stroke="black" d="M4169,-98C4169,-98 3888,-98 3888,-98 3882,-98 3876,-92 3876,-86 3876,-86 3876,-12 3876,-12 3876,-6 3882,-0 3888,-0 3888,-0 4169,-0 4169,-0 4175,-0 4181,-6 4181,-12 4181,-12 4181,-86 4181,-86 4181,-92 4175,-98 4169,-98"/>
<text text-anchor="middle" x="4028.5" y="-82.8" font-family="Times,serif" font-size="14.00">forward</text>
<text text-anchor="middle" x="4028.5" y="-67.8" font-family="Times,serif" font-size="14.00">CB3/C1</text>
<text text-anchor="middle" x="4028.5" y="-52.8" font-family="Times,serif" font-size="14.00">dilation rate: 1 &#160;&#160;k width: 3</text>
<text text-anchor="middle" x="4028.5" y="-37.8" font-family="Times,serif" font-size="14.00">log gamma1: &#45;11.000000 &#160;&#160;log gamma2: &#45;11.000000</text>
<text text-anchor="middle" x="4028.5" y="-22.8" font-family="Times,serif" font-size="14.00">log lambda1: &#45;11.000000 &#160;&#160;log lambda2: &#45;11.000000</text>
<text text-anchor="middle" x="4028.5" y="-7.8" font-family="Times,serif" font-size="14.00">n kernels: 64</text>
</g>
<!-- 18&#45;&gt;36 -->
<g id="edge36" class="edge"><title>18&#45;&gt;36</title>
<path fill="none" stroke="black" d="M3886.1,-163.923C3905.21,-148.629 3933.64,-125.888 3960.08,-104.737"/>
<polygon fill="black" stroke="black" points="3962.59,-107.214 3968.21,-98.2336 3958.21,-101.748 3962.59,-107.214"/>
</g>
<!-- 37 -->
<g id="node38" class="node"><title>37</title>
<path fill="#e9d3ff" stroke="black" d="M4492,-98C4492,-98 4211,-98 4211,-98 4205,-98 4199,-92 4199,-86 4199,-86 4199,-12 4199,-12 4199,-6 4205,-0 4211,-0 4211,-0 4492,-0 4492,-0 4498,-0 4504,-6 4504,-12 4504,-12 4504,-86 4504,-86 4504,-92 4498,-98 4492,-98"/>
<text text-anchor="middle" x="4351.5" y="-82.8" font-family="Times,serif" font-size="14.00">forward</text>
<text text-anchor="middle" x="4351.5" y="-67.8" font-family="Times,serif" font-size="14.00">CB3/C2</text>
<text text-anchor="middle" x="4351.5" y="-52.8" font-family="Times,serif" font-size="14.00">dilation rate: 1 &#160;&#160;k width: 3</text>
<text text-anchor="middle" x="4351.5" y="-37.8" font-family="Times,serif" font-size="14.00">log gamma1: &#45;11.000000 &#160;&#160;log gamma2: &#45;11.000000</text>
<text text-anchor="middle" x="4351.5" y="-22.8" font-family="Times,serif" font-size="14.00">log lambda1: &#45;11.000000 &#160;&#160;log lambda2: &#45;11.000000</text>
<text text-anchor="middle" x="4351.5" y="-7.8" font-family="Times,serif" font-size="14.00">n kernels: 64</text>
</g>
<!-- 19&#45;&gt;37 -->
<g id="edge37" class="edge"><title>19&#45;&gt;37</title>
<path fill="none" stroke="black" d="M4120.69,-163.844C4138.31,-154.8 4159.99,-143.743 4179.5,-134 4200.05,-123.736 4222.04,-112.89 4243.2,-102.525"/>
<polygon fill="black" stroke="black" points="4244.77,-105.656 4252.21,-98.116 4241.69,-99.3681 4244.77,-105.656"/>
</g>
</g>
</svg>
