<?xml version="1.0" encoding="UTF-8" standalone="no"?>
<!DOCTYPE svg PUBLIC "-//W3C//DTD SVG 1.1//EN"
 "http://www.w3.org/Graphics/SVG/1.1/DTD/svg11.dtd">
<!-- Generated by graphviz version 2.38.0 (20140413.2041)
 -->
<!-- Title: %3 Pages: 1 -->
<svg width="4215pt" height="357pt"
 viewBox="0.00 0.00 4215.00 357.00" xmlns="http://www.w3.org/2000/svg" xmlns:xlink="http://www.w3.org/1999/xlink">
<g id="graph0" class="graph" transform="scale(1 1) rotate(0) translate(4 353)">
<title>%3</title>
<polygon fill="none" stroke="none" points="-4,4 -4,-353 4211,-353 4211,4 -4,4"/>
<!-- 0 -->
<g id="node1" class="node"><title>0</title>
<path fill="#ffd3d3" stroke="black" d="M1993.5,-349C1993.5,-349 1836.5,-349 1836.5,-349 1830.5,-349 1824.5,-343 1824.5,-337 1824.5,-337 1824.5,-323 1824.5,-323 1824.5,-317 1830.5,-311 1836.5,-311 1836.5,-311 1993.5,-311 1993.5,-311 1999.5,-311 2005.5,-317 2005.5,-323 2005.5,-323 2005.5,-337 2005.5,-337 2005.5,-343 1999.5,-349 1993.5,-349"/>
<text text-anchor="middle" x="1915" y="-333.8" font-family="Times,serif" font-size="14.00">net</text>
<text text-anchor="middle" x="1915" y="-318.8" font-family="Times,serif" font-size="14.00">n kernels: 64 &#160;&#160;pooling type: 0</text>
</g>
<!-- 1 -->
<g id="node2" class="node"><title>1</title>
<path fill="#f6ffd3" stroke="black" d="M1085.5,-274C1085.5,-274 1050.5,-274 1050.5,-274 1044.5,-274 1038.5,-268 1038.5,-262 1038.5,-262 1038.5,-250 1038.5,-250 1038.5,-244 1044.5,-238 1050.5,-238 1050.5,-238 1085.5,-238 1085.5,-238 1091.5,-238 1097.5,-244 1097.5,-250 1097.5,-250 1097.5,-262 1097.5,-262 1097.5,-268 1091.5,-274 1085.5,-274"/>
<text text-anchor="middle" x="1068" y="-252.3" font-family="Times,serif" font-size="14.00">encoder</text>
</g>
<!-- 0&#45;&gt;1 -->
<g id="edge1" class="edge"><title>0&#45;&gt;1</title>
<path fill="none" stroke="black" d="M1824.36,-321.295C1641.71,-305.769 1235.95,-271.276 1107.67,-260.373"/>
<polygon fill="black" stroke="black" points="1107.79,-256.869 1097.52,-259.51 1107.19,-263.844 1107.79,-256.869"/>
</g>
<!-- 2 -->
<g id="node3" class="node"><title>2</title>
<path fill="#f6ffd3" stroke="black" d="M2793.5,-275C2793.5,-275 2732.5,-275 2732.5,-275 2726.5,-275 2720.5,-269 2720.5,-263 2720.5,-263 2720.5,-249 2720.5,-249 2720.5,-243 2726.5,-237 2732.5,-237 2732.5,-237 2793.5,-237 2793.5,-237 2799.5,-237 2805.5,-243 2805.5,-249 2805.5,-249 2805.5,-263 2805.5,-263 2805.5,-269 2799.5,-275 2793.5,-275"/>
<text text-anchor="middle" x="2763" y="-259.8" font-family="Times,serif" font-size="14.00">decoder</text>
<text text-anchor="middle" x="2763" y="-244.8" font-family="Times,serif" font-size="14.00">n kernels: &#45;3</text>
</g>
<!-- 0&#45;&gt;2 -->
<g id="edge2" class="edge"><title>0&#45;&gt;2</title>
<path fill="none" stroke="black" d="M2005.75,-321.295C2182.7,-306.271 2568.83,-273.486 2709.97,-261.502"/>
<polygon fill="black" stroke="black" points="2710.43,-264.976 2720.1,-260.642 2709.84,-258.001 2710.43,-264.976"/>
</g>
<!-- 3 -->
<g id="node4" class="node"><title>3</title>
<path fill="#d3ffe4" stroke="black" d="M341.5,-193.5C341.5,-193.5 216.5,-193.5 216.5,-193.5 210.5,-193.5 204.5,-187.5 204.5,-181.5 204.5,-181.5 204.5,-167.5 204.5,-167.5 204.5,-161.5 210.5,-155.5 216.5,-155.5 216.5,-155.5 341.5,-155.5 341.5,-155.5 347.5,-155.5 353.5,-161.5 353.5,-167.5 353.5,-167.5 353.5,-181.5 353.5,-181.5 353.5,-187.5 347.5,-193.5 341.5,-193.5"/>
<text text-anchor="middle" x="279" y="-178.3" font-family="Times,serif" font-size="14.00">encode block 0</text>
<text text-anchor="middle" x="279" y="-163.3" font-family="Times,serif" font-size="14.00">log gamma1: &#45;0.205476</text>
</g>
<!-- 1&#45;&gt;3 -->
<g id="edge3" class="edge"><title>1&#45;&gt;3</title>
<path fill="none" stroke="black" d="M1038.03,-251.981C927.156,-240.808 537.621,-201.559 363.822,-184.047"/>
<polygon fill="black" stroke="black" points="363.997,-180.547 353.696,-183.026 363.295,-187.511 363.997,-180.547"/>
</g>
<!-- 4 -->
<g id="node5" class="node"><title>4</title>
<path fill="#bfe6cf" stroke="black" d="M796.5,-193.5C796.5,-193.5 641.5,-193.5 641.5,-193.5 635.5,-193.5 629.5,-187.5 629.5,-181.5 629.5,-181.5 629.5,-167.5 629.5,-167.5 629.5,-161.5 635.5,-155.5 641.5,-155.5 641.5,-155.5 796.5,-155.5 796.5,-155.5 802.5,-155.5 808.5,-161.5 808.5,-167.5 808.5,-167.5 808.5,-181.5 808.5,-181.5 808.5,-187.5 802.5,-193.5 796.5,-193.5"/>
<text text-anchor="middle" x="719" y="-178.3" font-family="Times,serif" font-size="14.00">encode block 1</text>
<text text-anchor="middle" x="719" y="-163.3" font-family="Times,serif" font-size="14.00">n kernels: 64 &#160;&#160;spatial scale: 1</text>
</g>
<!-- 1&#45;&gt;4 -->
<g id="edge4" class="edge"><title>1&#45;&gt;4</title>
<path fill="none" stroke="black" d="M1038.24,-248.222C987.841,-236.74 883.779,-213.036 808.126,-195.802"/>
<polygon fill="black" stroke="black" points="808.643,-192.33 798.115,-193.522 807.088,-199.156 808.643,-192.33"/>
</g>
<!-- 5 -->
<g id="node6" class="node"><title>5</title>
<path fill="#abceb9" stroke="black" d="M1148.5,-193.5C1148.5,-193.5 987.5,-193.5 987.5,-193.5 981.5,-193.5 975.5,-187.5 975.5,-181.5 975.5,-181.5 975.5,-167.5 975.5,-167.5 975.5,-161.5 981.5,-155.5 987.5,-155.5 987.5,-155.5 1148.5,-155.5 1148.5,-155.5 1154.5,-155.5 1160.5,-161.5 1160.5,-167.5 1160.5,-167.5 1160.5,-181.5 1160.5,-181.5 1160.5,-187.5 1154.5,-193.5 1148.5,-193.5"/>
<text text-anchor="middle" x="1068" y="-178.3" font-family="Times,serif" font-size="14.00">encode block 2</text>
<text text-anchor="middle" x="1068" y="-163.3" font-family="Times,serif" font-size="14.00">n kernels: 320 &#160;&#160;spatial scale: 2</text>
</g>
<!-- 1&#45;&gt;5 -->
<g id="edge5" class="edge"><title>1&#45;&gt;5</title>
<path fill="none" stroke="black" d="M1068,-237.75C1068,-227.852 1068,-215.179 1068,-203.855"/>
<polygon fill="black" stroke="black" points="1071.5,-203.544 1068,-193.544 1064.5,-203.544 1071.5,-203.544"/>
</g>
<!-- 6 -->
<g id="node7" class="node"><title>6</title>
<path fill="#97b6a3" stroke="black" d="M1546.5,-201C1546.5,-201 1287.5,-201 1287.5,-201 1281.5,-201 1275.5,-195 1275.5,-189 1275.5,-189 1275.5,-160 1275.5,-160 1275.5,-154 1281.5,-148 1287.5,-148 1287.5,-148 1546.5,-148 1546.5,-148 1552.5,-148 1558.5,-154 1558.5,-160 1558.5,-160 1558.5,-189 1558.5,-189 1558.5,-195 1552.5,-201 1546.5,-201"/>
<text text-anchor="middle" x="1417" y="-185.8" font-family="Times,serif" font-size="14.00">encode block 3</text>
<text text-anchor="middle" x="1417" y="-170.8" font-family="Times,serif" font-size="14.00">log gamma1: 0.211096 &#160;&#160;log gamma2: 0.382612</text>
<text text-anchor="middle" x="1417" y="-155.8" font-family="Times,serif" font-size="14.00">n kernels: 10 &#160;&#160;spatial scale: 3</text>
</g>
<!-- 1&#45;&gt;6 -->
<g id="edge6" class="edge"><title>1&#45;&gt;6</title>
<path fill="none" stroke="black" d="M1097.76,-248.222C1141.21,-238.324 1224.54,-219.342 1295.17,-203.253"/>
<polygon fill="black" stroke="black" points="1296.07,-206.637 1305.04,-201.003 1294.52,-199.811 1296.07,-206.637"/>
</g>
<!-- 7 -->
<g id="node8" class="node"><title>7</title>
<path fill="#d3ffe4" stroke="black" d="M2146,-193.5C2146,-193.5 1978,-193.5 1978,-193.5 1972,-193.5 1966,-187.5 1966,-181.5 1966,-181.5 1966,-167.5 1966,-167.5 1966,-161.5 1972,-155.5 1978,-155.5 1978,-155.5 2146,-155.5 2146,-155.5 2152,-155.5 2158,-161.5 2158,-167.5 2158,-167.5 2158,-181.5 2158,-181.5 2158,-187.5 2152,-193.5 2146,-193.5"/>
<text text-anchor="middle" x="2062" y="-178.3" font-family="Times,serif" font-size="14.00">decode block 4</text>
<text text-anchor="middle" x="2062" y="-163.3" font-family="Times,serif" font-size="14.00">n kernels: 3728 &#160;&#160;spatial scale: 4</text>
</g>
<!-- 2&#45;&gt;7 -->
<g id="edge7" class="edge"><title>2&#45;&gt;7</title>
<path fill="none" stroke="black" d="M2720.47,-250.176C2612.49,-237.931 2325.22,-205.352 2168.17,-187.541"/>
<polygon fill="black" stroke="black" points="2168.35,-184.039 2158.02,-186.39 2167.56,-190.994 2168.35,-184.039"/>
</g>
<!-- 8 -->
<g id="node9" class="node"><title>8</title>
<path fill="#bfe6cf" stroke="black" d="M2651,-201C2651,-201 2431,-201 2431,-201 2425,-201 2419,-195 2419,-189 2419,-189 2419,-160 2419,-160 2419,-154 2425,-148 2431,-148 2431,-148 2651,-148 2651,-148 2657,-148 2663,-154 2663,-160 2663,-160 2663,-189 2663,-189 2663,-195 2657,-201 2651,-201"/>
<text text-anchor="middle" x="2541" y="-185.8" font-family="Times,serif" font-size="14.00">decode block 3</text>
<text text-anchor="middle" x="2541" y="-170.8" font-family="Times,serif" font-size="14.00">log gamma1: &#45;0.346266 &#160;&#160;n kernels: 1576</text>
<text text-anchor="middle" x="2541" y="-155.8" font-family="Times,serif" font-size="14.00">spatial scale: 3</text>
</g>
<!-- 2&#45;&gt;8 -->
<g id="edge8" class="edge"><title>2&#45;&gt;8</title>
<path fill="none" stroke="black" d="M2720.46,-239.766C2692.61,-229.794 2655.34,-216.445 2621.98,-204.498"/>
<polygon fill="black" stroke="black" points="2622.82,-201.082 2612.22,-201.006 2620.46,-207.672 2622.82,-201.082"/>
</g>
<!-- 9 -->
<g id="node10" class="node"><title>9</title>
<path fill="#abceb9" stroke="black" d="M3064.5,-193.5C3064.5,-193.5 2903.5,-193.5 2903.5,-193.5 2897.5,-193.5 2891.5,-187.5 2891.5,-181.5 2891.5,-181.5 2891.5,-167.5 2891.5,-167.5 2891.5,-161.5 2897.5,-155.5 2903.5,-155.5 2903.5,-155.5 3064.5,-155.5 3064.5,-155.5 3070.5,-155.5 3076.5,-161.5 3076.5,-167.5 3076.5,-167.5 3076.5,-181.5 3076.5,-181.5 3076.5,-187.5 3070.5,-193.5 3064.5,-193.5"/>
<text text-anchor="middle" x="2984" y="-178.3" font-family="Times,serif" font-size="14.00">decode block 2</text>
<text text-anchor="middle" x="2984" y="-163.3" font-family="Times,serif" font-size="14.00">n kernels: 564 &#160;&#160;spatial scale: 2</text>
</g>
<!-- 2&#45;&gt;9 -->
<g id="edge9" class="edge"><title>2&#45;&gt;9</title>
<path fill="none" stroke="black" d="M2805.61,-239.672C2839.23,-227.577 2886.54,-210.558 2924,-197.085"/>
<polygon fill="black" stroke="black" points="2925.56,-200.243 2933.78,-193.565 2923.19,-193.656 2925.56,-200.243"/>
</g>
<!-- 10 -->
<g id="node11" class="node"><title>10</title>
<path fill="#97b6a3" stroke="black" d="M3574.5,-193.5C3574.5,-193.5 3419.5,-193.5 3419.5,-193.5 3413.5,-193.5 3407.5,-187.5 3407.5,-181.5 3407.5,-181.5 3407.5,-167.5 3407.5,-167.5 3407.5,-161.5 3413.5,-155.5 3419.5,-155.5 3419.5,-155.5 3574.5,-155.5 3574.5,-155.5 3580.5,-155.5 3586.5,-161.5 3586.5,-167.5 3586.5,-167.5 3586.5,-181.5 3586.5,-181.5 3586.5,-187.5 3580.5,-193.5 3574.5,-193.5"/>
<text text-anchor="middle" x="3497" y="-178.3" font-family="Times,serif" font-size="14.00">decode block 1</text>
<text text-anchor="middle" x="3497" y="-163.3" font-family="Times,serif" font-size="14.00">n kernels: 61 &#160;&#160;spatial scale: 1</text>
</g>
<!-- 2&#45;&gt;10 -->
<g id="edge10" class="edge"><title>2&#45;&gt;10</title>
<path fill="none" stroke="black" d="M2805.64,-250.382C2919.82,-238.015 3234.85,-203.894 3397.28,-186.301"/>
<polygon fill="black" stroke="black" points="3397.71,-189.775 3407.28,-185.218 3396.96,-182.815 3397.71,-189.775"/>
</g>
<!-- 11 -->
<g id="node12" class="node"><title>11</title>
<path fill="#839e8d" stroke="black" d="M3971.5,-193.5C3971.5,-193.5 3896.5,-193.5 3896.5,-193.5 3890.5,-193.5 3884.5,-187.5 3884.5,-181.5 3884.5,-181.5 3884.5,-167.5 3884.5,-167.5 3884.5,-161.5 3890.5,-155.5 3896.5,-155.5 3896.5,-155.5 3971.5,-155.5 3971.5,-155.5 3977.5,-155.5 3983.5,-161.5 3983.5,-167.5 3983.5,-167.5 3983.5,-181.5 3983.5,-181.5 3983.5,-187.5 3977.5,-193.5 3971.5,-193.5"/>
<text text-anchor="middle" x="3934" y="-178.3" font-family="Times,serif" font-size="14.00">decode block 0</text>
<text text-anchor="middle" x="3934" y="-163.3" font-family="Times,serif" font-size="14.00">n kernels: 8</text>
</g>
<!-- 2&#45;&gt;11 -->
<g id="edge11" class="edge"><title>2&#45;&gt;11</title>
<path fill="none" stroke="black" d="M2805.88,-252.373C2928.77,-244.81 3292.85,-222.169 3595,-201 3692.86,-194.144 3806.56,-185.441 3874.27,-180.18"/>
<polygon fill="black" stroke="black" points="3874.63,-183.662 3884.32,-179.397 3874.08,-176.683 3874.63,-183.662"/>
</g>
<!-- 12 -->
<g id="node13" class="node"><title>12</title>
<path fill="#d3e4ff" stroke="black" d="M68,-112C68,-112 12,-112 12,-112 6,-112 0,-106 0,-100 0,-100 0,-86 0,-86 0,-80 6,-74 12,-74 12,-74 68,-74 68,-74 74,-74 80,-80 80,-86 80,-86 80,-100 80,-100 80,-106 74,-112 68,-112"/>
<text text-anchor="middle" x="40" y="-96.8" font-family="Times,serif" font-size="14.00">comp 0</text>
<text text-anchor="middle" x="40" y="-81.8" font-family="Times,serif" font-size="14.00">n kernels: 9</text>
</g>
<!-- 3&#45;&gt;12 -->
<g id="edge12" class="edge"><title>3&#45;&gt;12</title>
<path fill="none" stroke="black" d="M221.016,-155.377C185.571,-144.15 139.112,-129.17 89.662,-112.173"/>
<polygon fill="black" stroke="black" points="90.6606,-108.815 80.0658,-108.862 88.3775,-115.433 90.6606,-108.815"/>
</g>
<!-- 13 -->
<g id="node14" class="node"><title>13</title>
<path fill="#bfcfe6" stroke="black" d="M144,-111C144,-111 110,-111 110,-111 104,-111 98,-105 98,-99 98,-99 98,-87 98,-87 98,-81 104,-75 110,-75 110,-75 144,-75 144,-75 150,-75 156,-81 156,-87 156,-87 156,-99 156,-99 156,-105 150,-111 144,-111"/>
<text text-anchor="middle" x="127" y="-89.3" font-family="Times,serif" font-size="14.00">comp 1</text>
</g>
<!-- 3&#45;&gt;13 -->
<g id="edge13" class="edge"><title>3&#45;&gt;13</title>
<path fill="none" stroke="black" d="M244.509,-155.46C220.898,-143.111 189.576,-126.729 165.208,-113.984"/>
<polygon fill="black" stroke="black" points="166.723,-110.826 156.24,-109.293 163.479,-117.029 166.723,-110.826"/>
</g>
<!-- 14 -->
<g id="node15" class="node"><title>14</title>
<path fill="#abb9ce" stroke="black" d="M220,-111C220,-111 186,-111 186,-111 180,-111 174,-105 174,-99 174,-99 174,-87 174,-87 174,-81 180,-75 186,-75 186,-75 220,-75 220,-75 226,-75 232,-81 232,-87 232,-87 232,-99 232,-99 232,-105 226,-111 220,-111"/>
<text text-anchor="middle" x="203" y="-89.3" font-family="Times,serif" font-size="14.00">comp 2</text>
</g>
<!-- 3&#45;&gt;14 -->
<g id="edge14" class="edge"><title>3&#45;&gt;14</title>
<path fill="none" stroke="black" d="M261.754,-155.46C251.336,-144.562 237.915,-130.523 226.531,-118.614"/>
<polygon fill="black" stroke="black" points="228.836,-115.961 219.396,-111.151 223.776,-120.798 228.836,-115.961"/>
</g>
<!-- 15 -->
<g id="node16" class="node"><title>15</title>
<path fill="#97a3b6" stroke="black" d="M296,-111C296,-111 262,-111 262,-111 256,-111 250,-105 250,-99 250,-99 250,-87 250,-87 250,-81 256,-75 262,-75 262,-75 296,-75 296,-75 302,-75 308,-81 308,-87 308,-87 308,-99 308,-99 308,-105 302,-111 296,-111"/>
<text text-anchor="middle" x="279" y="-89.3" font-family="Times,serif" font-size="14.00">comp 3</text>
</g>
<!-- 3&#45;&gt;15 -->
<g id="edge15" class="edge"><title>3&#45;&gt;15</title>
<path fill="none" stroke="black" d="M279,-155.46C279,-145.392 279,-132.644 279,-121.371"/>
<polygon fill="black" stroke="black" points="282.5,-121.151 279,-111.151 275.5,-121.151 282.5,-121.151"/>
</g>
<!-- 16 -->
<g id="node17" class="node"><title>16</title>
<path fill="#838d9e" stroke="black" d="M372,-111C372,-111 338,-111 338,-111 332,-111 326,-105 326,-99 326,-99 326,-87 326,-87 326,-81 332,-75 338,-75 338,-75 372,-75 372,-75 378,-75 384,-81 384,-87 384,-87 384,-99 384,-99 384,-105 378,-111 372,-111"/>
<text text-anchor="middle" x="355" y="-89.3" font-family="Times,serif" font-size="14.00">comp 4</text>
</g>
<!-- 3&#45;&gt;16 -->
<g id="edge16" class="edge"><title>3&#45;&gt;16</title>
<path fill="none" stroke="black" d="M296.246,-155.46C306.664,-144.562 320.085,-130.523 331.469,-118.614"/>
<polygon fill="black" stroke="black" points="334.224,-120.798 338.604,-111.151 329.164,-115.961 334.224,-120.798"/>
</g>
<!-- 17 -->
<g id="node18" class="node"><title>17</title>
<path fill="#6f7885" stroke="black" d="M448,-111C448,-111 414,-111 414,-111 408,-111 402,-105 402,-99 402,-99 402,-87 402,-87 402,-81 408,-75 414,-75 414,-75 448,-75 448,-75 454,-75 460,-81 460,-87 460,-87 460,-99 460,-99 460,-105 454,-111 448,-111"/>
<text text-anchor="middle" x="431" y="-89.3" font-family="Times,serif" font-size="14.00">comp 5</text>
</g>
<!-- 3&#45;&gt;17 -->
<g id="edge17" class="edge"><title>3&#45;&gt;17</title>
<path fill="none" stroke="black" d="M313.491,-155.46C337.102,-143.111 368.424,-126.729 392.792,-113.984"/>
<polygon fill="black" stroke="black" points="394.521,-117.029 401.76,-109.293 391.277,-110.826 394.521,-117.029"/>
</g>
<!-- 18 -->
<g id="node19" class="node"><title>18</title>
<path fill="#d3e4ff" stroke="black" d="M546,-112C546,-112 490,-112 490,-112 484,-112 478,-106 478,-100 478,-100 478,-86 478,-86 478,-80 484,-74 490,-74 490,-74 546,-74 546,-74 552,-74 558,-80 558,-86 558,-86 558,-100 558,-100 558,-106 552,-112 546,-112"/>
<text text-anchor="middle" x="518" y="-96.8" font-family="Times,serif" font-size="14.00">comp 0</text>
<text text-anchor="middle" x="518" y="-81.8" font-family="Times,serif" font-size="14.00">n kernels: 9</text>
</g>
<!-- 4&#45;&gt;18 -->
<g id="edge18" class="edge"><title>4&#45;&gt;18</title>
<path fill="none" stroke="black" d="M673.39,-155.46C642.004,-143.047 600.316,-126.558 568.021,-113.785"/>
<polygon fill="black" stroke="black" points="568.909,-110.372 558.322,-109.948 566.334,-116.881 568.909,-110.372"/>
</g>
<!-- 19 -->
<g id="node20" class="node"><title>19</title>
<path fill="#bfcfe6" stroke="black" d="M622,-111C622,-111 588,-111 588,-111 582,-111 576,-105 576,-99 576,-99 576,-87 576,-87 576,-81 582,-75 588,-75 588,-75 622,-75 622,-75 628,-75 634,-81 634,-87 634,-87 634,-99 634,-99 634,-105 628,-111 622,-111"/>
<text text-anchor="middle" x="605" y="-89.3" font-family="Times,serif" font-size="14.00">comp 1</text>
</g>
<!-- 4&#45;&gt;19 -->
<g id="edge19" class="edge"><title>4&#45;&gt;19</title>
<path fill="none" stroke="black" d="M693.132,-155.46C676.76,-144.043 655.445,-129.179 637.878,-116.928"/>
<polygon fill="black" stroke="black" points="639.798,-114 629.594,-111.151 635.794,-119.742 639.798,-114"/>
</g>
<!-- 20 -->
<g id="node21" class="node"><title>20</title>
<path fill="#abb9ce" stroke="black" d="M698,-111C698,-111 664,-111 664,-111 658,-111 652,-105 652,-99 652,-99 652,-87 652,-87 652,-81 658,-75 664,-75 664,-75 698,-75 698,-75 704,-75 710,-81 710,-87 710,-87 710,-99 710,-99 710,-105 704,-111 698,-111"/>
<text text-anchor="middle" x="681" y="-89.3" font-family="Times,serif" font-size="14.00">comp 2</text>
</g>
<!-- 4&#45;&gt;20 -->
<g id="edge20" class="edge"><title>4&#45;&gt;20</title>
<path fill="none" stroke="black" d="M710.377,-155.46C705.416,-145.081 699.093,-131.853 693.585,-120.33"/>
<polygon fill="black" stroke="black" points="696.668,-118.664 689.198,-111.151 690.353,-121.683 696.668,-118.664"/>
</g>
<!-- 21 -->
<g id="node22" class="node"><title>21</title>
<path fill="#97a3b6" stroke="black" d="M774,-111C774,-111 740,-111 740,-111 734,-111 728,-105 728,-99 728,-99 728,-87 728,-87 728,-81 734,-75 740,-75 740,-75 774,-75 774,-75 780,-75 786,-81 786,-87 786,-87 786,-99 786,-99 786,-105 780,-111 774,-111"/>
<text text-anchor="middle" x="757" y="-89.3" font-family="Times,serif" font-size="14.00">comp 3</text>
</g>
<!-- 4&#45;&gt;21 -->
<g id="edge21" class="edge"><title>4&#45;&gt;21</title>
<path fill="none" stroke="black" d="M727.623,-155.46C732.584,-145.081 738.907,-131.853 744.415,-120.33"/>
<polygon fill="black" stroke="black" points="747.647,-121.683 748.802,-111.151 741.332,-118.664 747.647,-121.683"/>
</g>
<!-- 22 -->
<g id="node23" class="node"><title>22</title>
<path fill="#838d9e" stroke="black" d="M851,-111C851,-111 817,-111 817,-111 811,-111 805,-105 805,-99 805,-99 805,-87 805,-87 805,-81 811,-75 817,-75 817,-75 851,-75 851,-75 857,-75 863,-81 863,-87 863,-87 863,-99 863,-99 863,-105 857,-111 851,-111"/>
<text text-anchor="middle" x="834" y="-89.3" font-family="Times,serif" font-size="14.00">comp 4</text>
</g>
<!-- 4&#45;&gt;22 -->
<g id="edge22" class="edge"><title>4&#45;&gt;22</title>
<path fill="none" stroke="black" d="M745.095,-155.46C761.611,-144.043 783.113,-129.179 800.833,-116.928"/>
<polygon fill="black" stroke="black" points="802.955,-119.717 809.191,-111.151 798.974,-113.958 802.955,-119.717"/>
</g>
<!-- 23 -->
<g id="node24" class="node"><title>23</title>
<path fill="#d3e4ff" stroke="black" d="M930,-111C930,-111 896,-111 896,-111 890,-111 884,-105 884,-99 884,-99 884,-87 884,-87 884,-81 890,-75 896,-75 896,-75 930,-75 930,-75 936,-75 942,-81 942,-87 942,-87 942,-99 942,-99 942,-105 936,-111 930,-111"/>
<text text-anchor="middle" x="913" y="-89.3" font-family="Times,serif" font-size="14.00">comp 0</text>
</g>
<!-- 5&#45;&gt;23 -->
<g id="edge23" class="edge"><title>5&#45;&gt;23</title>
<path fill="none" stroke="black" d="M1032.83,-155.46C1008.51,-142.989 976.18,-126.405 951.229,-113.608"/>
<polygon fill="black" stroke="black" points="952.554,-110.354 942.059,-108.905 949.36,-116.583 952.554,-110.354"/>
</g>
<!-- 24 -->
<g id="node25" class="node"><title>24</title>
<path fill="#bfcfe6" stroke="black" d="M1008,-111C1008,-111 974,-111 974,-111 968,-111 962,-105 962,-99 962,-99 962,-87 962,-87 962,-81 968,-75 974,-75 974,-75 1008,-75 1008,-75 1014,-75 1020,-81 1020,-87 1020,-87 1020,-99 1020,-99 1020,-105 1014,-111 1008,-111"/>
<text text-anchor="middle" x="991" y="-89.3" font-family="Times,serif" font-size="14.00">comp 1</text>
</g>
<!-- 5&#45;&gt;24 -->
<g id="edge24" class="edge"><title>5&#45;&gt;24</title>
<path fill="none" stroke="black" d="M1050.53,-155.46C1039.97,-144.562 1026.37,-130.523 1014.84,-118.614"/>
<polygon fill="black" stroke="black" points="1017.08,-115.899 1007.61,-111.151 1012.05,-120.769 1017.08,-115.899"/>
</g>
<!-- 25 -->
<g id="node26" class="node"><title>25</title>
<path fill="#abb9ce" stroke="black" d="M1085,-111C1085,-111 1051,-111 1051,-111 1045,-111 1039,-105 1039,-99 1039,-99 1039,-87 1039,-87 1039,-81 1045,-75 1051,-75 1051,-75 1085,-75 1085,-75 1091,-75 1097,-81 1097,-87 1097,-87 1097,-99 1097,-99 1097,-105 1091,-111 1085,-111"/>
<text text-anchor="middle" x="1068" y="-89.3" font-family="Times,serif" font-size="14.00">comp 2</text>
</g>
<!-- 5&#45;&gt;25 -->
<g id="edge25" class="edge"><title>5&#45;&gt;25</title>
<path fill="none" stroke="black" d="M1068,-155.46C1068,-145.392 1068,-132.644 1068,-121.371"/>
<polygon fill="black" stroke="black" points="1071.5,-121.151 1068,-111.151 1064.5,-121.151 1071.5,-121.151"/>
</g>
<!-- 26 -->
<g id="node27" class="node"><title>26</title>
<path fill="#97a3b6" stroke="black" d="M1162,-111C1162,-111 1128,-111 1128,-111 1122,-111 1116,-105 1116,-99 1116,-99 1116,-87 1116,-87 1116,-81 1122,-75 1128,-75 1128,-75 1162,-75 1162,-75 1168,-75 1174,-81 1174,-87 1174,-87 1174,-99 1174,-99 1174,-105 1168,-111 1162,-111"/>
<text text-anchor="middle" x="1145" y="-89.3" font-family="Times,serif" font-size="14.00">comp 3</text>
</g>
<!-- 5&#45;&gt;26 -->
<g id="edge26" class="edge"><title>5&#45;&gt;26</title>
<path fill="none" stroke="black" d="M1085.47,-155.46C1096.03,-144.562 1109.63,-130.523 1121.16,-118.614"/>
<polygon fill="black" stroke="black" points="1123.95,-120.769 1128.39,-111.151 1118.92,-115.899 1123.95,-120.769"/>
</g>
<!-- 27 -->
<g id="node28" class="node"><title>27</title>
<path fill="#838d9e" stroke="black" d="M1240,-111C1240,-111 1206,-111 1206,-111 1200,-111 1194,-105 1194,-99 1194,-99 1194,-87 1194,-87 1194,-81 1200,-75 1206,-75 1206,-75 1240,-75 1240,-75 1246,-75 1252,-81 1252,-87 1252,-87 1252,-99 1252,-99 1252,-105 1246,-111 1240,-111"/>
<text text-anchor="middle" x="1223" y="-89.3" font-family="Times,serif" font-size="14.00">comp 4</text>
</g>
<!-- 5&#45;&gt;27 -->
<g id="edge27" class="edge"><title>5&#45;&gt;27</title>
<path fill="none" stroke="black" d="M1103.17,-155.46C1127.49,-142.989 1159.82,-126.405 1184.77,-113.608"/>
<polygon fill="black" stroke="black" points="1186.64,-116.583 1193.94,-108.905 1183.45,-110.354 1186.64,-116.583"/>
</g>
<!-- 28 -->
<g id="node29" class="node"><title>28</title>
<path fill="#d3e4ff" stroke="black" d="M1320,-111C1320,-111 1286,-111 1286,-111 1280,-111 1274,-105 1274,-99 1274,-99 1274,-87 1274,-87 1274,-81 1280,-75 1286,-75 1286,-75 1320,-75 1320,-75 1326,-75 1332,-81 1332,-87 1332,-87 1332,-99 1332,-99 1332,-105 1326,-111 1320,-111"/>
<text text-anchor="middle" x="1303" y="-89.3" font-family="Times,serif" font-size="14.00">comp 0</text>
</g>
<!-- 6&#45;&gt;28 -->
<g id="edge28" class="edge"><title>6&#45;&gt;28</title>
<path fill="none" stroke="black" d="M1380.3,-147.908C1365.96,-137.909 1349.65,-126.536 1335.72,-116.821"/>
<polygon fill="black" stroke="black" points="1337.6,-113.863 1327.4,-111.014 1333.6,-119.605 1337.6,-113.863"/>
</g>
<!-- 29 -->
<g id="node30" class="node"><title>29</title>
<path fill="#bfcfe6" stroke="black" d="M1396,-111C1396,-111 1362,-111 1362,-111 1356,-111 1350,-105 1350,-99 1350,-99 1350,-87 1350,-87 1350,-81 1356,-75 1362,-75 1362,-75 1396,-75 1396,-75 1402,-75 1408,-81 1408,-87 1408,-87 1408,-99 1408,-99 1408,-105 1402,-111 1396,-111"/>
<text text-anchor="middle" x="1379" y="-89.3" font-family="Times,serif" font-size="14.00">comp 1</text>
</g>
<!-- 6&#45;&gt;29 -->
<g id="edge29" class="edge"><title>6&#45;&gt;29</title>
<path fill="none" stroke="black" d="M1404.77,-147.908C1400.56,-139.108 1395.85,-129.243 1391.61,-120.381"/>
<polygon fill="black" stroke="black" points="1394.72,-118.769 1387.25,-111.256 1388.4,-121.788 1394.72,-118.769"/>
</g>
<!-- 30 -->
<g id="node31" class="node"><title>30</title>
<path fill="#abb9ce" stroke="black" d="M1472,-111C1472,-111 1438,-111 1438,-111 1432,-111 1426,-105 1426,-99 1426,-99 1426,-87 1426,-87 1426,-81 1432,-75 1438,-75 1438,-75 1472,-75 1472,-75 1478,-75 1484,-81 1484,-87 1484,-87 1484,-99 1484,-99 1484,-105 1478,-111 1472,-111"/>
<text text-anchor="middle" x="1455" y="-89.3" font-family="Times,serif" font-size="14.00">comp 2</text>
</g>
<!-- 6&#45;&gt;30 -->
<g id="edge30" class="edge"><title>6&#45;&gt;30</title>
<path fill="none" stroke="black" d="M1429.23,-147.908C1433.44,-139.108 1438.15,-129.243 1442.39,-120.381"/>
<polygon fill="black" stroke="black" points="1445.6,-121.788 1446.75,-111.256 1439.28,-118.769 1445.6,-121.788"/>
</g>
<!-- 31 -->
<g id="node32" class="node"><title>31</title>
<path fill="#97a3b6" stroke="black" d="M1548,-111C1548,-111 1514,-111 1514,-111 1508,-111 1502,-105 1502,-99 1502,-99 1502,-87 1502,-87 1502,-81 1508,-75 1514,-75 1514,-75 1548,-75 1548,-75 1554,-75 1560,-81 1560,-87 1560,-87 1560,-99 1560,-99 1560,-105 1554,-111 1548,-111"/>
<text text-anchor="middle" x="1531" y="-89.3" font-family="Times,serif" font-size="14.00">comp 3</text>
</g>
<!-- 6&#45;&gt;31 -->
<g id="edge31" class="edge"><title>6&#45;&gt;31</title>
<path fill="none" stroke="black" d="M1453.7,-147.908C1468.04,-137.909 1484.35,-126.536 1498.28,-116.821"/>
<polygon fill="black" stroke="black" points="1500.4,-119.605 1506.6,-111.014 1496.4,-113.863 1500.4,-119.605"/>
</g>
<!-- 32 -->
<g id="node33" class="node"><title>32</title>
<path fill="#838d9e" stroke="black" d="M1790,-112C1790,-112 1590,-112 1590,-112 1584,-112 1578,-106 1578,-100 1578,-100 1578,-86 1578,-86 1578,-80 1584,-74 1590,-74 1590,-74 1790,-74 1790,-74 1796,-74 1802,-80 1802,-86 1802,-86 1802,-100 1802,-100 1802,-106 1796,-112 1790,-112"/>
<text text-anchor="middle" x="1690" y="-96.8" font-family="Times,serif" font-size="14.00">comp 4</text>
<text text-anchor="middle" x="1690" y="-81.8" font-family="Times,serif" font-size="14.00">log gamma2: &#45;0.421023 &#160;&#160;n kernels: 9</text>
</g>
<!-- 6&#45;&gt;32 -->
<g id="edge32" class="edge"><title>6&#45;&gt;32</title>
<path fill="none" stroke="black" d="M1504.88,-147.908C1541.34,-137.291 1583.13,-125.123 1617.76,-115.037"/>
<polygon fill="black" stroke="black" points="1619.17,-118.272 1627.79,-112.115 1617.21,-111.551 1619.17,-118.272"/>
</g>
<!-- 33 -->
<g id="node34" class="node"><title>33</title>
<path fill="#d3e4ff" stroke="black" d="M1866,-111C1866,-111 1832,-111 1832,-111 1826,-111 1820,-105 1820,-99 1820,-99 1820,-87 1820,-87 1820,-81 1826,-75 1832,-75 1832,-75 1866,-75 1866,-75 1872,-75 1878,-81 1878,-87 1878,-87 1878,-99 1878,-99 1878,-105 1872,-111 1866,-111"/>
<text text-anchor="middle" x="1849" y="-89.3" font-family="Times,serif" font-size="14.00">comp 0</text>
</g>
<!-- 7&#45;&gt;33 -->
<g id="edge33" class="edge"><title>7&#45;&gt;33</title>
<path fill="none" stroke="black" d="M2005.88,-155.439C1973.57,-144.66 1932.11,-130.184 1887.82,-112.161"/>
<polygon fill="black" stroke="black" points="1888.9,-108.824 1878.32,-108.261 1886.24,-115.299 1888.9,-108.824"/>
</g>
<!-- 34 -->
<g id="node35" class="node"><title>34</title>
<path fill="#bfcfe6" stroke="black" d="M1942,-111C1942,-111 1908,-111 1908,-111 1902,-111 1896,-105 1896,-99 1896,-99 1896,-87 1896,-87 1896,-81 1902,-75 1908,-75 1908,-75 1942,-75 1942,-75 1948,-75 1954,-81 1954,-87 1954,-87 1954,-99 1954,-99 1954,-105 1948,-111 1942,-111"/>
<text text-anchor="middle" x="1925" y="-89.3" font-family="Times,serif" font-size="14.00">comp 1</text>
</g>
<!-- 7&#45;&gt;34 -->
<g id="edge34" class="edge"><title>7&#45;&gt;34</title>
<path fill="none" stroke="black" d="M2030.91,-155.46C2010.74,-143.755 1984.33,-128.427 1962.92,-116.007"/>
<polygon fill="black" stroke="black" points="1964.5,-112.873 1954.09,-110.881 1960.98,-118.928 1964.5,-112.873"/>
</g>
<!-- 35 -->
<g id="node36" class="node"><title>35</title>
<path fill="#abb9ce" stroke="black" d="M2018,-111C2018,-111 1984,-111 1984,-111 1978,-111 1972,-105 1972,-99 1972,-99 1972,-87 1972,-87 1972,-81 1978,-75 1984,-75 1984,-75 2018,-75 2018,-75 2024,-75 2030,-81 2030,-87 2030,-87 2030,-99 2030,-99 2030,-105 2024,-111 2018,-111"/>
<text text-anchor="middle" x="2001" y="-89.3" font-family="Times,serif" font-size="14.00">comp 2</text>
</g>
<!-- 7&#45;&gt;35 -->
<g id="edge35" class="edge"><title>7&#45;&gt;35</title>
<path fill="none" stroke="black" d="M2048.16,-155.46C2039.96,-144.77 2029.43,-131.057 2020.41,-119.297"/>
<polygon fill="black" stroke="black" points="2023.02,-116.954 2014.16,-111.151 2017.47,-121.215 2023.02,-116.954"/>
</g>
<!-- 36 -->
<g id="node37" class="node"><title>36</title>
<path fill="#97a3b6" stroke="black" d="M2184.5,-112C2184.5,-112 2059.5,-112 2059.5,-112 2053.5,-112 2047.5,-106 2047.5,-100 2047.5,-100 2047.5,-86 2047.5,-86 2047.5,-80 2053.5,-74 2059.5,-74 2059.5,-74 2184.5,-74 2184.5,-74 2190.5,-74 2196.5,-80 2196.5,-86 2196.5,-86 2196.5,-100 2196.5,-100 2196.5,-106 2190.5,-112 2184.5,-112"/>
<text text-anchor="middle" x="2122" y="-96.8" font-family="Times,serif" font-size="14.00">comp 3</text>
<text text-anchor="middle" x="2122" y="-81.8" font-family="Times,serif" font-size="14.00">log gamma1: &#45;0.167408</text>
</g>
<!-- 7&#45;&gt;36 -->
<g id="edge36" class="edge"><title>7&#45;&gt;36</title>
<path fill="none" stroke="black" d="M2075.61,-155.46C2083.46,-145.064 2093.46,-131.811 2102.17,-120.275"/>
<polygon fill="black" stroke="black" points="2105,-122.334 2108.23,-112.244 2099.41,-118.117 2105,-122.334"/>
</g>
<!-- 37 -->
<g id="node38" class="node"><title>37</title>
<path fill="#838d9e" stroke="black" d="M2260,-111C2260,-111 2226,-111 2226,-111 2220,-111 2214,-105 2214,-99 2214,-99 2214,-87 2214,-87 2214,-81 2220,-75 2226,-75 2226,-75 2260,-75 2260,-75 2266,-75 2272,-81 2272,-87 2272,-87 2272,-99 2272,-99 2272,-105 2266,-111 2260,-111"/>
<text text-anchor="middle" x="2243" y="-89.3" font-family="Times,serif" font-size="14.00">comp 4</text>
</g>
<!-- 7&#45;&gt;37 -->
<g id="edge37" class="edge"><title>7&#45;&gt;37</title>
<path fill="none" stroke="black" d="M2105.04,-155.469C2131.41,-144.315 2166.02,-129.477 2204.31,-112.249"/>
<polygon fill="black" stroke="black" points="2205.92,-115.365 2213.59,-108.06 2203.04,-108.985 2205.92,-115.365"/>
</g>
<!-- 38 -->
<g id="node39" class="node"><title>38</title>
<path fill="#d3e4ff" stroke="black" d="M2359,-111C2359,-111 2325,-111 2325,-111 2319,-111 2313,-105 2313,-99 2313,-99 2313,-87 2313,-87 2313,-81 2319,-75 2325,-75 2325,-75 2359,-75 2359,-75 2365,-75 2371,-81 2371,-87 2371,-87 2371,-99 2371,-99 2371,-105 2365,-111 2359,-111"/>
<text text-anchor="middle" x="2342" y="-89.3" font-family="Times,serif" font-size="14.00">comp 0</text>
</g>
<!-- 8&#45;&gt;38 -->
<g id="edge38" class="edge"><title>8&#45;&gt;38</title>
<path fill="none" stroke="black" d="M2476.08,-147.919C2448.31,-136.93 2415.54,-123.901 2386,-112 2384.37,-111.343 2382.7,-110.67 2381.02,-109.989"/>
<polygon fill="black" stroke="black" points="2381.91,-106.573 2371.33,-106.049 2379.28,-113.058 2381.91,-106.573"/>
</g>
<!-- 39 -->
<g id="node40" class="node"><title>39</title>
<path fill="#bfcfe6" stroke="black" d="M2441,-111C2441,-111 2407,-111 2407,-111 2401,-111 2395,-105 2395,-99 2395,-99 2395,-87 2395,-87 2395,-81 2401,-75 2407,-75 2407,-75 2441,-75 2441,-75 2447,-75 2453,-81 2453,-87 2453,-87 2453,-99 2453,-99 2453,-105 2447,-111 2441,-111"/>
<text text-anchor="middle" x="2424" y="-89.3" font-family="Times,serif" font-size="14.00">comp 1</text>
</g>
<!-- 8&#45;&gt;39 -->
<g id="edge39" class="edge"><title>8&#45;&gt;39</title>
<path fill="none" stroke="black" d="M2503.34,-147.908C2488.62,-137.909 2471.88,-126.536 2457.59,-116.821"/>
<polygon fill="black" stroke="black" points="2459.28,-113.739 2449.04,-111.014 2455.34,-119.529 2459.28,-113.739"/>
</g>
<!-- 40 -->
<g id="node41" class="node"><title>40</title>
<path fill="#abb9ce" stroke="black" d="M2519,-111C2519,-111 2485,-111 2485,-111 2479,-111 2473,-105 2473,-99 2473,-99 2473,-87 2473,-87 2473,-81 2479,-75 2485,-75 2485,-75 2519,-75 2519,-75 2525,-75 2531,-81 2531,-87 2531,-87 2531,-99 2531,-99 2531,-105 2525,-111 2519,-111"/>
<text text-anchor="middle" x="2502" y="-89.3" font-family="Times,serif" font-size="14.00">comp 2</text>
</g>
<!-- 8&#45;&gt;40 -->
<g id="edge40" class="edge"><title>8&#45;&gt;40</title>
<path fill="none" stroke="black" d="M2528.45,-147.908C2524.13,-139.108 2519.29,-129.243 2514.94,-120.381"/>
<polygon fill="black" stroke="black" points="2518.01,-118.693 2510.47,-111.256 2511.73,-121.776 2518.01,-118.693"/>
</g>
<!-- 41 -->
<g id="node42" class="node"><title>41</title>
<path fill="#97a3b6" stroke="black" d="M2597,-111C2597,-111 2563,-111 2563,-111 2557,-111 2551,-105 2551,-99 2551,-99 2551,-87 2551,-87 2551,-81 2557,-75 2563,-75 2563,-75 2597,-75 2597,-75 2603,-75 2609,-81 2609,-87 2609,-87 2609,-99 2609,-99 2609,-105 2603,-111 2597,-111"/>
<text text-anchor="middle" x="2580" y="-89.3" font-family="Times,serif" font-size="14.00">comp 3</text>
</g>
<!-- 8&#45;&gt;41 -->
<g id="edge41" class="edge"><title>8&#45;&gt;41</title>
<path fill="none" stroke="black" d="M2553.55,-147.908C2557.87,-139.108 2562.71,-129.243 2567.06,-120.381"/>
<polygon fill="black" stroke="black" points="2570.27,-121.776 2571.53,-111.256 2563.99,-118.693 2570.27,-121.776"/>
</g>
<!-- 42 -->
<g id="node43" class="node"><title>42</title>
<path fill="#838d9e" stroke="black" d="M2676,-111C2676,-111 2642,-111 2642,-111 2636,-111 2630,-105 2630,-99 2630,-99 2630,-87 2630,-87 2630,-81 2636,-75 2642,-75 2642,-75 2676,-75 2676,-75 2682,-75 2688,-81 2688,-87 2688,-87 2688,-99 2688,-99 2688,-105 2682,-111 2676,-111"/>
<text text-anchor="middle" x="2659" y="-89.3" font-family="Times,serif" font-size="14.00">comp 4</text>
</g>
<!-- 8&#45;&gt;42 -->
<g id="edge42" class="edge"><title>8&#45;&gt;42</title>
<path fill="none" stroke="black" d="M2578.99,-147.908C2593.83,-137.909 2610.71,-126.536 2625.13,-116.821"/>
<polygon fill="black" stroke="black" points="2627.41,-119.504 2633.75,-111.014 2623.5,-113.698 2627.41,-119.504"/>
</g>
<!-- 43 -->
<g id="node44" class="node"><title>43</title>
<path fill="#d3e4ff" stroke="black" d="M2821,-111C2821,-111 2787,-111 2787,-111 2781,-111 2775,-105 2775,-99 2775,-99 2775,-87 2775,-87 2775,-81 2781,-75 2787,-75 2787,-75 2821,-75 2821,-75 2827,-75 2833,-81 2833,-87 2833,-87 2833,-99 2833,-99 2833,-105 2827,-111 2821,-111"/>
<text text-anchor="middle" x="2804" y="-89.3" font-family="Times,serif" font-size="14.00">comp 0</text>
</g>
<!-- 9&#45;&gt;43 -->
<g id="edge43" class="edge"><title>9&#45;&gt;43</title>
<path fill="none" stroke="black" d="M2941.27,-155.438C2915.09,-144.272 2880.72,-129.431 2842.64,-112.233"/>
<polygon fill="black" stroke="black" points="2843.97,-108.991 2833.41,-108.052 2841.08,-115.367 2843.97,-108.991"/>
</g>
<!-- 44 -->
<g id="node45" class="node"><title>44</title>
<path fill="#bfcfe6" stroke="black" d="M2924.5,-112C2924.5,-112 2863.5,-112 2863.5,-112 2857.5,-112 2851.5,-106 2851.5,-100 2851.5,-100 2851.5,-86 2851.5,-86 2851.5,-80 2857.5,-74 2863.5,-74 2863.5,-74 2924.5,-74 2924.5,-74 2930.5,-74 2936.5,-80 2936.5,-86 2936.5,-86 2936.5,-100 2936.5,-100 2936.5,-106 2930.5,-112 2924.5,-112"/>
<text text-anchor="middle" x="2894" y="-96.8" font-family="Times,serif" font-size="14.00">comp 1</text>
<text text-anchor="middle" x="2894" y="-81.8" font-family="Times,serif" font-size="14.00">n kernels: &#45;8</text>
</g>
<!-- 9&#45;&gt;44 -->
<g id="edge44" class="edge"><title>9&#45;&gt;44</title>
<path fill="none" stroke="black" d="M2963.58,-155.46C2951.35,-144.661 2935.63,-130.777 2922.23,-118.939"/>
<polygon fill="black" stroke="black" points="2924.47,-116.241 2914.65,-112.244 2919.83,-121.487 2924.47,-116.241"/>
</g>
<!-- 45 -->
<g id="node46" class="node"><title>45</title>
<path fill="#abb9ce" stroke="black" d="M3001,-111C3001,-111 2967,-111 2967,-111 2961,-111 2955,-105 2955,-99 2955,-99 2955,-87 2955,-87 2955,-81 2961,-75 2967,-75 2967,-75 3001,-75 3001,-75 3007,-75 3013,-81 3013,-87 3013,-87 3013,-99 3013,-99 3013,-105 3007,-111 3001,-111"/>
<text text-anchor="middle" x="2984" y="-89.3" font-family="Times,serif" font-size="14.00">comp 2</text>
</g>
<!-- 9&#45;&gt;45 -->
<g id="edge45" class="edge"><title>9&#45;&gt;45</title>
<path fill="none" stroke="black" d="M2984,-155.46C2984,-145.392 2984,-132.644 2984,-121.371"/>
<polygon fill="black" stroke="black" points="2987.5,-121.151 2984,-111.151 2980.5,-121.151 2987.5,-121.151"/>
</g>
<!-- 46 -->
<g id="node47" class="node"><title>46</title>
<path fill="#97a3b6" stroke="black" d="M3077,-111C3077,-111 3043,-111 3043,-111 3037,-111 3031,-105 3031,-99 3031,-99 3031,-87 3031,-87 3031,-81 3037,-75 3043,-75 3043,-75 3077,-75 3077,-75 3083,-75 3089,-81 3089,-87 3089,-87 3089,-99 3089,-99 3089,-105 3083,-111 3077,-111"/>
<text text-anchor="middle" x="3060" y="-89.3" font-family="Times,serif" font-size="14.00">comp 3</text>
</g>
<!-- 9&#45;&gt;46 -->
<g id="edge46" class="edge"><title>9&#45;&gt;46</title>
<path fill="none" stroke="black" d="M3001.25,-155.46C3011.66,-144.562 3025.09,-130.523 3036.47,-118.614"/>
<polygon fill="black" stroke="black" points="3039.22,-120.798 3043.6,-111.151 3034.16,-115.961 3039.22,-120.798"/>
</g>
<!-- 47 -->
<g id="node48" class="node"><title>47</title>
<path fill="#838d9e" stroke="black" d="M3155,-111C3155,-111 3121,-111 3121,-111 3115,-111 3109,-105 3109,-99 3109,-99 3109,-87 3109,-87 3109,-81 3115,-75 3121,-75 3121,-75 3155,-75 3155,-75 3161,-75 3167,-81 3167,-87 3167,-87 3167,-99 3167,-99 3167,-105 3161,-111 3155,-111"/>
<text text-anchor="middle" x="3138" y="-89.3" font-family="Times,serif" font-size="14.00">comp 4</text>
</g>
<!-- 9&#45;&gt;47 -->
<g id="edge47" class="edge"><title>9&#45;&gt;47</title>
<path fill="none" stroke="black" d="M3018.94,-155.46C3043.02,-143.03 3075.02,-126.513 3099.78,-113.733"/>
<polygon fill="black" stroke="black" points="3101.6,-116.731 3108.88,-109.034 3098.39,-110.511 3101.6,-116.731"/>
</g>
<!-- 48 -->
<g id="node49" class="node"><title>48</title>
<path fill="#6f7885" stroke="black" d="M3234,-111C3234,-111 3200,-111 3200,-111 3194,-111 3188,-105 3188,-99 3188,-99 3188,-87 3188,-87 3188,-81 3194,-75 3200,-75 3200,-75 3234,-75 3234,-75 3240,-75 3246,-81 3246,-87 3246,-87 3246,-99 3246,-99 3246,-105 3240,-111 3234,-111"/>
<text text-anchor="middle" x="3217" y="-89.3" font-family="Times,serif" font-size="14.00">comp 5</text>
</g>
<!-- 9&#45;&gt;48 -->
<g id="edge48" class="edge"><title>9&#45;&gt;48</title>
<path fill="none" stroke="black" d="M3045.95,-155.44C3083.85,-143.955 3133.12,-128.231 3176,-112 3176.71,-111.732 3177.42,-111.458 3178.14,-111.179"/>
<polygon fill="black" stroke="black" points="3179.64,-114.349 3187.59,-107.348 3177.01,-107.862 3179.64,-114.349"/>
</g>
<!-- 49 -->
<g id="node50" class="node"><title>49</title>
<path fill="#d3e4ff" stroke="black" d="M3395,-111C3395,-111 3361,-111 3361,-111 3355,-111 3349,-105 3349,-99 3349,-99 3349,-87 3349,-87 3349,-81 3355,-75 3361,-75 3361,-75 3395,-75 3395,-75 3401,-75 3407,-81 3407,-87 3407,-87 3407,-99 3407,-99 3407,-105 3401,-111 3395,-111"/>
<text text-anchor="middle" x="3378" y="-89.3" font-family="Times,serif" font-size="14.00">comp 0</text>
</g>
<!-- 10&#45;&gt;49 -->
<g id="edge49" class="edge"><title>10&#45;&gt;49</title>
<path fill="none" stroke="black" d="M3470,-155.46C3452.91,-144.043 3430.66,-129.179 3412.32,-116.928"/>
<polygon fill="black" stroke="black" points="3413.93,-113.796 3403.67,-111.151 3410.04,-119.616 3413.93,-113.796"/>
</g>
<!-- 50 -->
<g id="node51" class="node"><title>50</title>
<path fill="#bfcfe6" stroke="black" d="M3475,-111C3475,-111 3441,-111 3441,-111 3435,-111 3429,-105 3429,-99 3429,-99 3429,-87 3429,-87 3429,-81 3435,-75 3441,-75 3441,-75 3475,-75 3475,-75 3481,-75 3487,-81 3487,-87 3487,-87 3487,-99 3487,-99 3487,-105 3481,-111 3475,-111"/>
<text text-anchor="middle" x="3458" y="-89.3" font-family="Times,serif" font-size="14.00">comp 1</text>
</g>
<!-- 10&#45;&gt;50 -->
<g id="edge50" class="edge"><title>10&#45;&gt;50</title>
<path fill="none" stroke="black" d="M3488.15,-155.46C3483.06,-145.081 3476.57,-131.853 3470.92,-120.33"/>
<polygon fill="black" stroke="black" points="3473.96,-118.587 3466.41,-111.151 3467.68,-121.67 3473.96,-118.587"/>
</g>
<!-- 51 -->
<g id="node52" class="node"><title>51</title>
<path fill="#abb9ce" stroke="black" d="M3553,-111C3553,-111 3519,-111 3519,-111 3513,-111 3507,-105 3507,-99 3507,-99 3507,-87 3507,-87 3507,-81 3513,-75 3519,-75 3519,-75 3553,-75 3553,-75 3559,-75 3565,-81 3565,-87 3565,-87 3565,-99 3565,-99 3565,-105 3559,-111 3553,-111"/>
<text text-anchor="middle" x="3536" y="-89.3" font-family="Times,serif" font-size="14.00">comp 2</text>
</g>
<!-- 10&#45;&gt;51 -->
<g id="edge51" class="edge"><title>10&#45;&gt;51</title>
<path fill="none" stroke="black" d="M3505.85,-155.46C3510.94,-145.081 3517.43,-131.853 3523.08,-120.33"/>
<polygon fill="black" stroke="black" points="3526.32,-121.67 3527.59,-111.151 3520.04,-118.587 3526.32,-121.67"/>
</g>
<!-- 52 -->
<g id="node53" class="node"><title>52</title>
<path fill="#97a3b6" stroke="black" d="M3632,-111C3632,-111 3598,-111 3598,-111 3592,-111 3586,-105 3586,-99 3586,-99 3586,-87 3586,-87 3586,-81 3592,-75 3598,-75 3598,-75 3632,-75 3632,-75 3638,-75 3644,-81 3644,-87 3644,-87 3644,-99 3644,-99 3644,-105 3638,-111 3632,-111"/>
<text text-anchor="middle" x="3615" y="-89.3" font-family="Times,serif" font-size="14.00">comp 3</text>
</g>
<!-- 10&#45;&gt;52 -->
<g id="edge52" class="edge"><title>10&#45;&gt;52</title>
<path fill="none" stroke="black" d="M3523.78,-155.46C3540.72,-144.043 3562.79,-129.179 3580.97,-116.928"/>
<polygon fill="black" stroke="black" points="3583.21,-119.641 3589.54,-111.151 3579.29,-113.836 3583.21,-119.641"/>
</g>
<!-- 53 -->
<g id="node54" class="node"><title>53</title>
<path fill="#838d9e" stroke="black" d="M3711,-111C3711,-111 3677,-111 3677,-111 3671,-111 3665,-105 3665,-99 3665,-99 3665,-87 3665,-87 3665,-81 3671,-75 3677,-75 3677,-75 3711,-75 3711,-75 3717,-75 3723,-81 3723,-87 3723,-87 3723,-99 3723,-99 3723,-105 3717,-111 3711,-111"/>
<text text-anchor="middle" x="3694" y="-89.3" font-family="Times,serif" font-size="14.00">comp 4</text>
</g>
<!-- 10&#45;&gt;53 -->
<g id="edge53" class="edge"><title>10&#45;&gt;53</title>
<path fill="none" stroke="black" d="M3544.29,-155.396C3575.32,-143.385 3616.72,-127.109 3653,-112 3653.85,-111.647 3654.7,-111.288 3655.57,-110.925"/>
<polygon fill="black" stroke="black" points="3657.12,-114.068 3664.94,-106.921 3654.37,-107.63 3657.12,-114.068"/>
</g>
<!-- 54 -->
<g id="node55" class="node"><title>54</title>
<path fill="#d3e4ff" stroke="black" d="M3875,-112C3875,-112 3755,-112 3755,-112 3749,-112 3743,-106 3743,-100 3743,-100 3743,-86 3743,-86 3743,-80 3749,-74 3755,-74 3755,-74 3875,-74 3875,-74 3881,-74 3887,-80 3887,-86 3887,-86 3887,-100 3887,-100 3887,-106 3881,-112 3875,-112"/>
<text text-anchor="middle" x="3815" y="-96.8" font-family="Times,serif" font-size="14.00">comp 0</text>
<text text-anchor="middle" x="3815" y="-81.8" font-family="Times,serif" font-size="14.00">log gamma2: 0.090740</text>
</g>
<!-- 11&#45;&gt;54 -->
<g id="edge54" class="edge"><title>11&#45;&gt;54</title>
<path fill="none" stroke="black" d="M3907,-155.46C3890.38,-144.358 3868.88,-129.996 3850.85,-117.948"/>
<polygon fill="black" stroke="black" points="3852.57,-114.888 3842.31,-112.244 3848.68,-120.709 3852.57,-114.888"/>
</g>
<!-- 55 -->
<g id="node56" class="node"><title>55</title>
<path fill="#bfcfe6" stroke="black" d="M3951,-111C3951,-111 3917,-111 3917,-111 3911,-111 3905,-105 3905,-99 3905,-99 3905,-87 3905,-87 3905,-81 3911,-75 3917,-75 3917,-75 3951,-75 3951,-75 3957,-75 3963,-81 3963,-87 3963,-87 3963,-99 3963,-99 3963,-105 3957,-111 3951,-111"/>
<text text-anchor="middle" x="3934" y="-89.3" font-family="Times,serif" font-size="14.00">comp 1</text>
</g>
<!-- 11&#45;&gt;55 -->
<g id="edge55" class="edge"><title>11&#45;&gt;55</title>
<path fill="none" stroke="black" d="M3934,-155.46C3934,-145.392 3934,-132.644 3934,-121.371"/>
<polygon fill="black" stroke="black" points="3937.5,-121.151 3934,-111.151 3930.5,-121.151 3937.5,-121.151"/>
</g>
<!-- 56 -->
<g id="node57" class="node"><title>56</title>
<path fill="#abb9ce" stroke="black" d="M4117.5,-112C4117.5,-112 3992.5,-112 3992.5,-112 3986.5,-112 3980.5,-106 3980.5,-100 3980.5,-100 3980.5,-86 3980.5,-86 3980.5,-80 3986.5,-74 3992.5,-74 3992.5,-74 4117.5,-74 4117.5,-74 4123.5,-74 4129.5,-80 4129.5,-86 4129.5,-86 4129.5,-100 4129.5,-100 4129.5,-106 4123.5,-112 4117.5,-112"/>
<text text-anchor="middle" x="4055" y="-96.8" font-family="Times,serif" font-size="14.00">comp 2</text>
<text text-anchor="middle" x="4055" y="-81.8" font-family="Times,serif" font-size="14.00">log gamma1: &#45;0.160514</text>
</g>
<!-- 11&#45;&gt;56 -->
<g id="edge56" class="edge"><title>11&#45;&gt;56</title>
<path fill="none" stroke="black" d="M3961.46,-155.46C3978.35,-144.358 4000.21,-129.996 4018.55,-117.948"/>
<polygon fill="black" stroke="black" points="4020.8,-120.66 4027.23,-112.244 4016.95,-114.81 4020.8,-120.66"/>
</g>
<!-- 57 -->
<g id="node58" class="node"><title>57</title>
<path fill="#97a3b6" stroke="black" d="M4193,-111C4193,-111 4159,-111 4159,-111 4153,-111 4147,-105 4147,-99 4147,-99 4147,-87 4147,-87 4147,-81 4153,-75 4159,-75 4159,-75 4193,-75 4193,-75 4199,-75 4205,-81 4205,-87 4205,-87 4205,-99 4205,-99 4205,-105 4199,-111 4193,-111"/>
<text text-anchor="middle" x="4176" y="-89.3" font-family="Times,serif" font-size="14.00">comp 3</text>
</g>
<!-- 11&#45;&gt;57 -->
<g id="edge57" class="edge"><title>11&#45;&gt;57</title>
<path fill="none" stroke="black" d="M3983.75,-160.743C4023.29,-150.102 4080.02,-133.716 4137.18,-112.061"/>
<polygon fill="black" stroke="black" points="4138.65,-115.247 4146.73,-108.396 4136.14,-108.712 4138.65,-115.247"/>
</g>
<!-- 58 -->
<g id="node59" class="node"><title>58</title>
<path fill="#f6d3ff" stroke="black" d="M57.5,-38C57.5,-38 22.5,-38 22.5,-38 16.5,-38 10.5,-32 10.5,-26 10.5,-26 10.5,-12 10.5,-12 10.5,-6 16.5,-0 22.5,-0 22.5,-0 57.5,-0 57.5,-0 63.5,-0 69.5,-6 69.5,-12 69.5,-12 69.5,-26 69.5,-26 69.5,-32 63.5,-38 57.5,-38"/>
<text text-anchor="middle" x="40" y="-22.8" font-family="Times,serif" font-size="14.00">forward</text>
<text text-anchor="middle" x="40" y="-7.8" font-family="Times,serif" font-size="14.00">input</text>
</g>
<!-- 12&#45;&gt;58 -->
<g id="edge58" class="edge"><title>12&#45;&gt;58</title>
<path fill="none" stroke="black" d="M40,-73.8314C40,-66.131 40,-56.9743 40,-48.4166"/>
<polygon fill="black" stroke="black" points="43.5001,-48.4132 40,-38.4133 36.5001,-48.4133 43.5001,-48.4132"/>
</g>
<!-- 59 -->
<g id="node60" class="node"><title>59</title>
<path fill="#f6d3ff" stroke="black" d="M141,-38C141,-38 105,-38 105,-38 99,-38 93,-32 93,-26 93,-26 93,-12 93,-12 93,-6 99,-0 105,-0 105,-0 141,-0 141,-0 147,-0 153,-6 153,-12 153,-12 153,-26 153,-26 153,-32 147,-38 141,-38"/>
<text text-anchor="middle" x="123" y="-22.8" font-family="Times,serif" font-size="14.00">forward</text>
<text text-anchor="middle" x="123" y="-7.8" font-family="Times,serif" font-size="14.00">EB0/C0</text>
</g>
<!-- 13&#45;&gt;59 -->
<g id="edge59" class="edge"><title>13&#45;&gt;59</title>
<path fill="none" stroke="black" d="M126.052,-74.937C125.61,-66.9865 125.073,-57.3134 124.573,-48.3127"/>
<polygon fill="black" stroke="black" points="128.06,-47.9896 124.011,-38.1992 121.071,-48.3779 128.06,-47.9896"/>
</g>
<!-- 60 -->
<g id="node61" class="node"><title>60</title>
<path fill="#f6d3ff" stroke="black" d="M219,-38C219,-38 183,-38 183,-38 177,-38 171,-32 171,-26 171,-26 171,-12 171,-12 171,-6 177,-0 183,-0 183,-0 219,-0 219,-0 225,-0 231,-6 231,-12 231,-12 231,-26 231,-26 231,-32 225,-38 219,-38"/>
<text text-anchor="middle" x="201" y="-22.8" font-family="Times,serif" font-size="14.00">forward</text>
<text text-anchor="middle" x="201" y="-7.8" font-family="Times,serif" font-size="14.00">EB0/C1</text>
</g>
<!-- 14&#45;&gt;60 -->
<g id="edge60" class="edge"><title>14&#45;&gt;60</title>
<path fill="none" stroke="black" d="M202.526,-74.937C202.305,-66.9865 202.036,-57.3134 201.786,-48.3127"/>
<polygon fill="black" stroke="black" points="205.282,-48.0981 201.506,-38.1992 198.285,-48.2925 205.282,-48.0981"/>
</g>
<!-- 61 -->
<g id="node62" class="node"><title>61</title>
<path fill="#f6d3ff" stroke="black" d="M297,-38C297,-38 261,-38 261,-38 255,-38 249,-32 249,-26 249,-26 249,-12 249,-12 249,-6 255,-0 261,-0 261,-0 297,-0 297,-0 303,-0 309,-6 309,-12 309,-12 309,-26 309,-26 309,-32 303,-38 297,-38"/>
<text text-anchor="middle" x="279" y="-22.8" font-family="Times,serif" font-size="14.00">forward</text>
<text text-anchor="middle" x="279" y="-7.8" font-family="Times,serif" font-size="14.00">EB0/C2</text>
</g>
<!-- 15&#45;&gt;61 -->
<g id="edge61" class="edge"><title>15&#45;&gt;61</title>
<path fill="none" stroke="black" d="M279,-74.937C279,-66.9865 279,-57.3134 279,-48.3127"/>
<polygon fill="black" stroke="black" points="282.5,-48.1991 279,-38.1992 275.5,-48.1992 282.5,-48.1991"/>
</g>
<!-- 62 -->
<g id="node63" class="node"><title>62</title>
<path fill="#f6d3ff" stroke="black" d="M375,-38C375,-38 339,-38 339,-38 333,-38 327,-32 327,-26 327,-26 327,-12 327,-12 327,-6 333,-0 339,-0 339,-0 375,-0 375,-0 381,-0 387,-6 387,-12 387,-12 387,-26 387,-26 387,-32 381,-38 375,-38"/>
<text text-anchor="middle" x="357" y="-22.8" font-family="Times,serif" font-size="14.00">forward</text>
<text text-anchor="middle" x="357" y="-7.8" font-family="Times,serif" font-size="14.00">EB0/C3</text>
</g>
<!-- 16&#45;&gt;62 -->
<g id="edge62" class="edge"><title>16&#45;&gt;62</title>
<path fill="none" stroke="black" d="M355.474,-74.937C355.695,-66.9865 355.964,-57.3134 356.214,-48.3127"/>
<polygon fill="black" stroke="black" points="359.715,-48.2925 356.494,-38.1992 352.718,-48.0981 359.715,-48.2925"/>
</g>
<!-- 63 -->
<g id="node64" class="node"><title>63</title>
<path fill="#f6d3ff" stroke="black" d="M453,-38C453,-38 417,-38 417,-38 411,-38 405,-32 405,-26 405,-26 405,-12 405,-12 405,-6 411,-0 417,-0 417,-0 453,-0 453,-0 459,-0 465,-6 465,-12 465,-12 465,-26 465,-26 465,-32 459,-38 453,-38"/>
<text text-anchor="middle" x="435" y="-22.8" font-family="Times,serif" font-size="14.00">forward</text>
<text text-anchor="middle" x="435" y="-7.8" font-family="Times,serif" font-size="14.00">EB0/C4</text>
</g>
<!-- 17&#45;&gt;63 -->
<g id="edge63" class="edge"><title>17&#45;&gt;63</title>
<path fill="none" stroke="black" d="M431.948,-74.937C432.39,-66.9865 432.927,-57.3134 433.427,-48.3127"/>
<polygon fill="black" stroke="black" points="436.929,-48.3779 433.989,-38.1992 429.94,-47.9896 436.929,-48.3779"/>
</g>
<!-- 64 -->
<g id="node65" class="node"><title>64</title>
<path fill="#f6d3ff" stroke="black" d="M536,-38C536,-38 500,-38 500,-38 494,-38 488,-32 488,-26 488,-26 488,-12 488,-12 488,-6 494,-0 500,-0 500,-0 536,-0 536,-0 542,-0 548,-6 548,-12 548,-12 548,-26 548,-26 548,-32 542,-38 536,-38"/>
<text text-anchor="middle" x="518" y="-22.8" font-family="Times,serif" font-size="14.00">forward</text>
<text text-anchor="middle" x="518" y="-7.8" font-family="Times,serif" font-size="14.00">EB0/C5</text>
</g>
<!-- 18&#45;&gt;64 -->
<g id="edge64" class="edge"><title>18&#45;&gt;64</title>
<path fill="none" stroke="black" d="M518,-73.8314C518,-66.131 518,-56.9743 518,-48.4166"/>
<polygon fill="black" stroke="black" points="521.5,-48.4132 518,-38.4133 514.5,-48.4133 521.5,-48.4132"/>
</g>
<!-- 65 -->
<g id="node66" class="node"><title>65</title>
<path fill="#f6d3ff" stroke="black" d="M618,-38C618,-38 582,-38 582,-38 576,-38 570,-32 570,-26 570,-26 570,-12 570,-12 570,-6 576,-0 582,-0 582,-0 618,-0 618,-0 624,-0 630,-6 630,-12 630,-12 630,-26 630,-26 630,-32 624,-38 618,-38"/>
<text text-anchor="middle" x="600" y="-22.8" font-family="Times,serif" font-size="14.00">forward</text>
<text text-anchor="middle" x="600" y="-7.8" font-family="Times,serif" font-size="14.00">EB1/C0</text>
</g>
<!-- 19&#45;&gt;65 -->
<g id="edge65" class="edge"><title>19&#45;&gt;65</title>
<path fill="none" stroke="black" d="M603.815,-74.937C603.263,-66.9865 602.591,-57.3134 601.966,-48.3127"/>
<polygon fill="black" stroke="black" points="605.448,-47.9326 601.264,-38.1992 598.465,-48.4176 605.448,-47.9326"/>
</g>
<!-- 66 -->
<g id="node67" class="node"><title>66</title>
<path fill="#f6d3ff" stroke="black" d="M696,-38C696,-38 660,-38 660,-38 654,-38 648,-32 648,-26 648,-26 648,-12 648,-12 648,-6 654,-0 660,-0 660,-0 696,-0 696,-0 702,-0 708,-6 708,-12 708,-12 708,-26 708,-26 708,-32 702,-38 696,-38"/>
<text text-anchor="middle" x="678" y="-22.8" font-family="Times,serif" font-size="14.00">forward</text>
<text text-anchor="middle" x="678" y="-7.8" font-family="Times,serif" font-size="14.00">EB1/C1</text>
</g>
<!-- 20&#45;&gt;66 -->
<g id="edge66" class="edge"><title>20&#45;&gt;66</title>
<path fill="none" stroke="black" d="M680.289,-74.937C679.958,-66.9865 679.555,-57.3134 679.18,-48.3127"/>
<polygon fill="black" stroke="black" points="682.672,-48.0448 678.758,-38.1992 675.678,-48.3362 682.672,-48.0448"/>
</g>
<!-- 67 -->
<g id="node68" class="node"><title>67</title>
<path fill="#f6d3ff" stroke="black" d="M774,-38C774,-38 738,-38 738,-38 732,-38 726,-32 726,-26 726,-26 726,-12 726,-12 726,-6 732,-0 738,-0 738,-0 774,-0 774,-0 780,-0 786,-6 786,-12 786,-12 786,-26 786,-26 786,-32 780,-38 774,-38"/>
<text text-anchor="middle" x="756" y="-22.8" font-family="Times,serif" font-size="14.00">forward</text>
<text text-anchor="middle" x="756" y="-7.8" font-family="Times,serif" font-size="14.00">EB1/C2</text>
</g>
<!-- 21&#45;&gt;67 -->
<g id="edge67" class="edge"><title>21&#45;&gt;67</title>
<path fill="none" stroke="black" d="M756.763,-74.937C756.653,-66.9865 756.518,-57.3134 756.393,-48.3127"/>
<polygon fill="black" stroke="black" points="759.891,-48.1496 756.253,-38.1992 752.892,-48.2468 759.891,-48.1496"/>
</g>
<!-- 68 -->
<g id="node69" class="node"><title>68</title>
<path fill="#f6d3ff" stroke="black" d="M852,-38C852,-38 816,-38 816,-38 810,-38 804,-32 804,-26 804,-26 804,-12 804,-12 804,-6 810,-0 816,-0 816,-0 852,-0 852,-0 858,-0 864,-6 864,-12 864,-12 864,-26 864,-26 864,-32 858,-38 852,-38"/>
<text text-anchor="middle" x="834" y="-22.8" font-family="Times,serif" font-size="14.00">forward</text>
<text text-anchor="middle" x="834" y="-7.8" font-family="Times,serif" font-size="14.00">EB1/C3</text>
</g>
<!-- 22&#45;&gt;68 -->
<g id="edge68" class="edge"><title>22&#45;&gt;68</title>
<path fill="none" stroke="black" d="M834,-74.937C834,-66.9865 834,-57.3134 834,-48.3127"/>
<polygon fill="black" stroke="black" points="837.5,-48.1991 834,-38.1992 830.5,-48.1992 837.5,-48.1991"/>
</g>
<!-- 69 -->
<g id="node70" class="node"><title>69</title>
<path fill="#f6d3ff" stroke="black" d="M930,-38C930,-38 894,-38 894,-38 888,-38 882,-32 882,-26 882,-26 882,-12 882,-12 882,-6 888,-0 894,-0 894,-0 930,-0 930,-0 936,-0 942,-6 942,-12 942,-12 942,-26 942,-26 942,-32 936,-38 930,-38"/>
<text text-anchor="middle" x="912" y="-22.8" font-family="Times,serif" font-size="14.00">forward</text>
<text text-anchor="middle" x="912" y="-7.8" font-family="Times,serif" font-size="14.00">EB1/C4</text>
</g>
<!-- 23&#45;&gt;69 -->
<g id="edge69" class="edge"><title>23&#45;&gt;69</title>
<path fill="none" stroke="black" d="M912.763,-74.937C912.653,-66.9865 912.518,-57.3134 912.393,-48.3127"/>
<polygon fill="black" stroke="black" points="915.891,-48.1496 912.253,-38.1992 908.892,-48.2468 915.891,-48.1496"/>
</g>
<!-- 70 -->
<g id="node71" class="node"><title>70</title>
<path fill="#f6d3ff" stroke="black" d="M1008,-38C1008,-38 972,-38 972,-38 966,-38 960,-32 960,-26 960,-26 960,-12 960,-12 960,-6 966,-0 972,-0 972,-0 1008,-0 1008,-0 1014,-0 1020,-6 1020,-12 1020,-12 1020,-26 1020,-26 1020,-32 1014,-38 1008,-38"/>
<text text-anchor="middle" x="990" y="-22.8" font-family="Times,serif" font-size="14.00">forward</text>
<text text-anchor="middle" x="990" y="-7.8" font-family="Times,serif" font-size="14.00">EB2/C0</text>
</g>
<!-- 24&#45;&gt;70 -->
<g id="edge70" class="edge"><title>24&#45;&gt;70</title>
<path fill="none" stroke="black" d="M990.763,-74.937C990.653,-66.9865 990.518,-57.3134 990.393,-48.3127"/>
<polygon fill="black" stroke="black" points="993.891,-48.1496 990.253,-38.1992 986.892,-48.2468 993.891,-48.1496"/>
</g>
<!-- 71 -->
<g id="node72" class="node"><title>71</title>
<path fill="#f6d3ff" stroke="black" d="M1086,-38C1086,-38 1050,-38 1050,-38 1044,-38 1038,-32 1038,-26 1038,-26 1038,-12 1038,-12 1038,-6 1044,-0 1050,-0 1050,-0 1086,-0 1086,-0 1092,-0 1098,-6 1098,-12 1098,-12 1098,-26 1098,-26 1098,-32 1092,-38 1086,-38"/>
<text text-anchor="middle" x="1068" y="-22.8" font-family="Times,serif" font-size="14.00">forward</text>
<text text-anchor="middle" x="1068" y="-7.8" font-family="Times,serif" font-size="14.00">EB2/C1</text>
</g>
<!-- 25&#45;&gt;71 -->
<g id="edge71" class="edge"><title>25&#45;&gt;71</title>
<path fill="none" stroke="black" d="M1068,-74.937C1068,-66.9865 1068,-57.3134 1068,-48.3127"/>
<polygon fill="black" stroke="black" points="1071.5,-48.1991 1068,-38.1992 1064.5,-48.1992 1071.5,-48.1991"/>
</g>
<!-- 72 -->
<g id="node73" class="node"><title>72</title>
<path fill="#f6d3ff" stroke="black" d="M1164,-38C1164,-38 1128,-38 1128,-38 1122,-38 1116,-32 1116,-26 1116,-26 1116,-12 1116,-12 1116,-6 1122,-0 1128,-0 1128,-0 1164,-0 1164,-0 1170,-0 1176,-6 1176,-12 1176,-12 1176,-26 1176,-26 1176,-32 1170,-38 1164,-38"/>
<text text-anchor="middle" x="1146" y="-22.8" font-family="Times,serif" font-size="14.00">forward</text>
<text text-anchor="middle" x="1146" y="-7.8" font-family="Times,serif" font-size="14.00">EB2/C2</text>
</g>
<!-- 26&#45;&gt;72 -->
<g id="edge72" class="edge"><title>26&#45;&gt;72</title>
<path fill="none" stroke="black" d="M1145.24,-74.937C1145.35,-66.9865 1145.48,-57.3134 1145.61,-48.3127"/>
<polygon fill="black" stroke="black" points="1149.11,-48.2468 1145.75,-38.1992 1142.11,-48.1496 1149.11,-48.2468"/>
</g>
<!-- 73 -->
<g id="node74" class="node"><title>73</title>
<path fill="#f6d3ff" stroke="black" d="M1242,-38C1242,-38 1206,-38 1206,-38 1200,-38 1194,-32 1194,-26 1194,-26 1194,-12 1194,-12 1194,-6 1200,-0 1206,-0 1206,-0 1242,-0 1242,-0 1248,-0 1254,-6 1254,-12 1254,-12 1254,-26 1254,-26 1254,-32 1248,-38 1242,-38"/>
<text text-anchor="middle" x="1224" y="-22.8" font-family="Times,serif" font-size="14.00">forward</text>
<text text-anchor="middle" x="1224" y="-7.8" font-family="Times,serif" font-size="14.00">EB2/C3</text>
</g>
<!-- 27&#45;&gt;73 -->
<g id="edge73" class="edge"><title>27&#45;&gt;73</title>
<path fill="none" stroke="black" d="M1223.24,-74.937C1223.35,-66.9865 1223.48,-57.3134 1223.61,-48.3127"/>
<polygon fill="black" stroke="black" points="1227.11,-48.2468 1223.75,-38.1992 1220.11,-48.1496 1227.11,-48.2468"/>
</g>
<!-- 74 -->
<g id="node75" class="node"><title>74</title>
<path fill="#f6d3ff" stroke="black" d="M1320,-38C1320,-38 1284,-38 1284,-38 1278,-38 1272,-32 1272,-26 1272,-26 1272,-12 1272,-12 1272,-6 1278,-0 1284,-0 1284,-0 1320,-0 1320,-0 1326,-0 1332,-6 1332,-12 1332,-12 1332,-26 1332,-26 1332,-32 1326,-38 1320,-38"/>
<text text-anchor="middle" x="1302" y="-22.8" font-family="Times,serif" font-size="14.00">forward</text>
<text text-anchor="middle" x="1302" y="-7.8" font-family="Times,serif" font-size="14.00">EB2/C4</text>
</g>
<!-- 28&#45;&gt;74 -->
<g id="edge74" class="edge"><title>28&#45;&gt;74</title>
<path fill="none" stroke="black" d="M1302.76,-74.937C1302.65,-66.9865 1302.52,-57.3134 1302.39,-48.3127"/>
<polygon fill="black" stroke="black" points="1305.89,-48.1496 1302.25,-38.1992 1298.89,-48.2468 1305.89,-48.1496"/>
</g>
<!-- 75 -->
<g id="node76" class="node"><title>75</title>
<path fill="#f6d3ff" stroke="black" d="M1398,-38C1398,-38 1362,-38 1362,-38 1356,-38 1350,-32 1350,-26 1350,-26 1350,-12 1350,-12 1350,-6 1356,-0 1362,-0 1362,-0 1398,-0 1398,-0 1404,-0 1410,-6 1410,-12 1410,-12 1410,-26 1410,-26 1410,-32 1404,-38 1398,-38"/>
<text text-anchor="middle" x="1380" y="-22.8" font-family="Times,serif" font-size="14.00">forward</text>
<text text-anchor="middle" x="1380" y="-7.8" font-family="Times,serif" font-size="14.00">EB3/C0</text>
</g>
<!-- 29&#45;&gt;75 -->
<g id="edge75" class="edge"><title>29&#45;&gt;75</title>
<path fill="none" stroke="black" d="M1379.24,-74.937C1379.35,-66.9865 1379.48,-57.3134 1379.61,-48.3127"/>
<polygon fill="black" stroke="black" points="1383.11,-48.2468 1379.75,-38.1992 1376.11,-48.1496 1383.11,-48.2468"/>
</g>
<!-- 76 -->
<g id="node77" class="node"><title>76</title>
<path fill="#f6d3ff" stroke="black" d="M1476,-38C1476,-38 1440,-38 1440,-38 1434,-38 1428,-32 1428,-26 1428,-26 1428,-12 1428,-12 1428,-6 1434,-0 1440,-0 1440,-0 1476,-0 1476,-0 1482,-0 1488,-6 1488,-12 1488,-12 1488,-26 1488,-26 1488,-32 1482,-38 1476,-38"/>
<text text-anchor="middle" x="1458" y="-22.8" font-family="Times,serif" font-size="14.00">forward</text>
<text text-anchor="middle" x="1458" y="-7.8" font-family="Times,serif" font-size="14.00">EB3/C1</text>
</g>
<!-- 30&#45;&gt;76 -->
<g id="edge76" class="edge"><title>30&#45;&gt;76</title>
<path fill="none" stroke="black" d="M1455.71,-74.937C1456.04,-66.9865 1456.45,-57.3134 1456.82,-48.3127"/>
<polygon fill="black" stroke="black" points="1460.32,-48.3362 1457.24,-38.1992 1453.33,-48.0448 1460.32,-48.3362"/>
</g>
<!-- 77 -->
<g id="node78" class="node"><title>77</title>
<path fill="#f6d3ff" stroke="black" d="M1554,-38C1554,-38 1518,-38 1518,-38 1512,-38 1506,-32 1506,-26 1506,-26 1506,-12 1506,-12 1506,-6 1512,-0 1518,-0 1518,-0 1554,-0 1554,-0 1560,-0 1566,-6 1566,-12 1566,-12 1566,-26 1566,-26 1566,-32 1560,-38 1554,-38"/>
<text text-anchor="middle" x="1536" y="-22.8" font-family="Times,serif" font-size="14.00">forward</text>
<text text-anchor="middle" x="1536" y="-7.8" font-family="Times,serif" font-size="14.00">EB3/C2</text>
</g>
<!-- 31&#45;&gt;77 -->
<g id="edge77" class="edge"><title>31&#45;&gt;77</title>
<path fill="none" stroke="black" d="M1532.18,-74.937C1532.74,-66.9865 1533.41,-57.3134 1534.03,-48.3127"/>
<polygon fill="black" stroke="black" points="1537.53,-48.4176 1534.74,-38.1992 1530.55,-47.9326 1537.53,-48.4176"/>
</g>
<!-- 78 -->
<g id="node79" class="node"><title>78</title>
<path fill="#f6d3ff" stroke="black" d="M1708,-38C1708,-38 1672,-38 1672,-38 1666,-38 1660,-32 1660,-26 1660,-26 1660,-12 1660,-12 1660,-6 1666,-0 1672,-0 1672,-0 1708,-0 1708,-0 1714,-0 1720,-6 1720,-12 1720,-12 1720,-26 1720,-26 1720,-32 1714,-38 1708,-38"/>
<text text-anchor="middle" x="1690" y="-22.8" font-family="Times,serif" font-size="14.00">forward</text>
<text text-anchor="middle" x="1690" y="-7.8" font-family="Times,serif" font-size="14.00">EB3/C3</text>
</g>
<!-- 32&#45;&gt;78 -->
<g id="edge78" class="edge"><title>32&#45;&gt;78</title>
<path fill="none" stroke="black" d="M1690,-73.8314C1690,-66.131 1690,-56.9743 1690,-48.4166"/>
<polygon fill="black" stroke="black" points="1693.5,-48.4132 1690,-38.4133 1686.5,-48.4133 1693.5,-48.4132"/>
</g>
<!-- 79 -->
<g id="node80" class="node"><title>79</title>
<path fill="#f6d3ff" stroke="black" d="M1864,-38C1864,-38 1828,-38 1828,-38 1822,-38 1816,-32 1816,-26 1816,-26 1816,-12 1816,-12 1816,-6 1822,-0 1828,-0 1828,-0 1864,-0 1864,-0 1870,-0 1876,-6 1876,-12 1876,-12 1876,-26 1876,-26 1876,-32 1870,-38 1864,-38"/>
<text text-anchor="middle" x="1846" y="-22.8" font-family="Times,serif" font-size="14.00">forward</text>
<text text-anchor="middle" x="1846" y="-7.8" font-family="Times,serif" font-size="14.00">EB3/C4</text>
</g>
<!-- 33&#45;&gt;79 -->
<g id="edge79" class="edge"><title>33&#45;&gt;79</title>
<path fill="none" stroke="black" d="M1848.29,-74.937C1847.96,-66.9865 1847.55,-57.3134 1847.18,-48.3127"/>
<polygon fill="black" stroke="black" points="1850.67,-48.0448 1846.76,-38.1992 1843.68,-48.3362 1850.67,-48.0448"/>
</g>
<!-- 80 -->
<g id="node81" class="node"><title>80</title>
<path fill="#f6d3ff" stroke="black" d="M1944,-38C1944,-38 1906,-38 1906,-38 1900,-38 1894,-32 1894,-26 1894,-26 1894,-12 1894,-12 1894,-6 1900,-0 1906,-0 1906,-0 1944,-0 1944,-0 1950,-0 1956,-6 1956,-12 1956,-12 1956,-26 1956,-26 1956,-32 1950,-38 1944,-38"/>
<text text-anchor="middle" x="1925" y="-22.8" font-family="Times,serif" font-size="14.00">forward</text>
<text text-anchor="middle" x="1925" y="-7.8" font-family="Times,serif" font-size="14.00">DB4/C0</text>
</g>
<!-- 34&#45;&gt;80 -->
<g id="edge80" class="edge"><title>34&#45;&gt;80</title>
<path fill="none" stroke="black" d="M1925,-74.937C1925,-66.9865 1925,-57.3134 1925,-48.3127"/>
<polygon fill="black" stroke="black" points="1928.5,-48.1991 1925,-38.1992 1921.5,-48.1992 1928.5,-48.1991"/>
</g>
<!-- 81 -->
<g id="node82" class="node"><title>81</title>
<path fill="#f6d3ff" stroke="black" d="M2024,-38C2024,-38 1986,-38 1986,-38 1980,-38 1974,-32 1974,-26 1974,-26 1974,-12 1974,-12 1974,-6 1980,-0 1986,-0 1986,-0 2024,-0 2024,-0 2030,-0 2036,-6 2036,-12 2036,-12 2036,-26 2036,-26 2036,-32 2030,-38 2024,-38"/>
<text text-anchor="middle" x="2005" y="-22.8" font-family="Times,serif" font-size="14.00">forward</text>
<text text-anchor="middle" x="2005" y="-7.8" font-family="Times,serif" font-size="14.00">DB4/C1</text>
</g>
<!-- 35&#45;&gt;81 -->
<g id="edge81" class="edge"><title>35&#45;&gt;81</title>
<path fill="none" stroke="black" d="M2001.95,-74.937C2002.39,-66.9865 2002.93,-57.3134 2003.43,-48.3127"/>
<polygon fill="black" stroke="black" points="2006.93,-48.3779 2003.99,-38.1992 1999.94,-47.9896 2006.93,-48.3779"/>
</g>
<!-- 82 -->
<g id="node83" class="node"><title>82</title>
<path fill="#f6d3ff" stroke="black" d="M2122,-38C2122,-38 2084,-38 2084,-38 2078,-38 2072,-32 2072,-26 2072,-26 2072,-12 2072,-12 2072,-6 2078,-0 2084,-0 2084,-0 2122,-0 2122,-0 2128,-0 2134,-6 2134,-12 2134,-12 2134,-26 2134,-26 2134,-32 2128,-38 2122,-38"/>
<text text-anchor="middle" x="2103" y="-22.8" font-family="Times,serif" font-size="14.00">forward</text>
<text text-anchor="middle" x="2103" y="-7.8" font-family="Times,serif" font-size="14.00">DB4/C2</text>
</g>
<!-- 36&#45;&gt;82 -->
<g id="edge82" class="edge"><title>36&#45;&gt;82</title>
<path fill="none" stroke="black" d="M2117.21,-73.8314C2115.15,-66.0463 2112.7,-56.7729 2110.42,-48.1347"/>
<polygon fill="black" stroke="black" points="2113.79,-47.1892 2107.86,-38.4133 2107.03,-48.9753 2113.79,-47.1892"/>
</g>
<!-- 83 -->
<g id="node84" class="node"><title>83</title>
<path fill="#f6d3ff" stroke="black" d="M2202,-38C2202,-38 2164,-38 2164,-38 2158,-38 2152,-32 2152,-26 2152,-26 2152,-12 2152,-12 2152,-6 2158,-0 2164,-0 2164,-0 2202,-0 2202,-0 2208,-0 2214,-6 2214,-12 2214,-12 2214,-26 2214,-26 2214,-32 2208,-38 2202,-38"/>
<text text-anchor="middle" x="2183" y="-22.8" font-family="Times,serif" font-size="14.00">forward</text>
<text text-anchor="middle" x="2183" y="-7.8" font-family="Times,serif" font-size="14.00">DB4/C3</text>
</g>
<!-- 37&#45;&gt;83 -->
<g id="edge83" class="edge"><title>37&#45;&gt;83</title>
<path fill="none" stroke="black" d="M2228.78,-74.937C2221.58,-66.2952 2212.68,-55.6181 2204.65,-45.9816"/>
<polygon fill="black" stroke="black" points="2207.26,-43.6407 2198.17,-38.1992 2201.88,-48.1221 2207.26,-43.6407"/>
</g>
<!-- 84 -->
<g id="node85" class="node"><title>84</title>
<path fill="#f6d3ff" stroke="black" d="M2282,-38C2282,-38 2244,-38 2244,-38 2238,-38 2232,-32 2232,-26 2232,-26 2232,-12 2232,-12 2232,-6 2238,-0 2244,-0 2244,-0 2282,-0 2282,-0 2288,-0 2294,-6 2294,-12 2294,-12 2294,-26 2294,-26 2294,-32 2288,-38 2282,-38"/>
<text text-anchor="middle" x="2263" y="-22.8" font-family="Times,serif" font-size="14.00">forward</text>
<text text-anchor="middle" x="2263" y="-7.8" font-family="Times,serif" font-size="14.00">DB4/C4</text>
</g>
<!-- 38&#45;&gt;84 -->
<g id="edge84" class="edge"><title>38&#45;&gt;84</title>
<path fill="none" stroke="black" d="M2323.28,-74.937C2313.51,-66.0359 2301.38,-54.9756 2290.56,-45.1172"/>
<polygon fill="black" stroke="black" points="2292.72,-42.3484 2282.97,-38.1992 2288,-47.5221 2292.72,-42.3484"/>
</g>
<!-- 85 -->
<g id="node86" class="node"><title>85</title>
<path fill="#debfe6" stroke="black" d="M2360,-38C2360,-38 2324,-38 2324,-38 2318,-38 2312,-32 2312,-26 2312,-26 2312,-12 2312,-12 2312,-6 2318,-0 2324,-0 2324,-0 2360,-0 2360,-0 2366,-0 2372,-6 2372,-12 2372,-12 2372,-26 2372,-26 2372,-32 2366,-38 2360,-38"/>
<text text-anchor="middle" x="2342" y="-22.8" font-family="Times,serif" font-size="14.00">merge</text>
<text text-anchor="middle" x="2342" y="-7.8" font-family="Times,serif" font-size="14.00">EB3/C4</text>
</g>
<!-- 38&#45;&gt;85 -->
<g id="edge85" class="edge"><title>38&#45;&gt;85</title>
<path fill="none" stroke="black" d="M2342,-74.937C2342,-66.9865 2342,-57.3134 2342,-48.3127"/>
<polygon fill="black" stroke="black" points="2345.5,-48.1991 2342,-38.1992 2338.5,-48.1992 2345.5,-48.1991"/>
</g>
<!-- 86 -->
<g id="node87" class="node"><title>86</title>
<path fill="#f6d3ff" stroke="black" d="M2440,-38C2440,-38 2402,-38 2402,-38 2396,-38 2390,-32 2390,-26 2390,-26 2390,-12 2390,-12 2390,-6 2396,-0 2402,-0 2402,-0 2440,-0 2440,-0 2446,-0 2452,-6 2452,-12 2452,-12 2452,-26 2452,-26 2452,-32 2446,-38 2440,-38"/>
<text text-anchor="middle" x="2421" y="-22.8" font-family="Times,serif" font-size="14.00">forward</text>
<text text-anchor="middle" x="2421" y="-7.8" font-family="Times,serif" font-size="14.00">DB3/C0</text>
</g>
<!-- 39&#45;&gt;86 -->
<g id="edge86" class="edge"><title>39&#45;&gt;86</title>
<path fill="none" stroke="black" d="M2423.29,-74.937C2422.96,-66.9865 2422.55,-57.3134 2422.18,-48.3127"/>
<polygon fill="black" stroke="black" points="2425.67,-48.0448 2421.76,-38.1992 2418.68,-48.3362 2425.67,-48.0448"/>
</g>
<!-- 87 -->
<g id="node88" class="node"><title>87</title>
<path fill="#f6d3ff" stroke="black" d="M2520,-38C2520,-38 2482,-38 2482,-38 2476,-38 2470,-32 2470,-26 2470,-26 2470,-12 2470,-12 2470,-6 2476,-0 2482,-0 2482,-0 2520,-0 2520,-0 2526,-0 2532,-6 2532,-12 2532,-12 2532,-26 2532,-26 2532,-32 2526,-38 2520,-38"/>
<text text-anchor="middle" x="2501" y="-22.8" font-family="Times,serif" font-size="14.00">forward</text>
<text text-anchor="middle" x="2501" y="-7.8" font-family="Times,serif" font-size="14.00">DB3/C1</text>
</g>
<!-- 40&#45;&gt;87 -->
<g id="edge87" class="edge"><title>40&#45;&gt;87</title>
<path fill="none" stroke="black" d="M2501.76,-74.937C2501.65,-66.9865 2501.52,-57.3134 2501.39,-48.3127"/>
<polygon fill="black" stroke="black" points="2504.89,-48.1496 2501.25,-38.1992 2497.89,-48.2468 2504.89,-48.1496"/>
</g>
<!-- 88 -->
<g id="node89" class="node"><title>88</title>
<path fill="#f6d3ff" stroke="black" d="M2600,-38C2600,-38 2562,-38 2562,-38 2556,-38 2550,-32 2550,-26 2550,-26 2550,-12 2550,-12 2550,-6 2556,-0 2562,-0 2562,-0 2600,-0 2600,-0 2606,-0 2612,-6 2612,-12 2612,-12 2612,-26 2612,-26 2612,-32 2606,-38 2600,-38"/>
<text text-anchor="middle" x="2581" y="-22.8" font-family="Times,serif" font-size="14.00">forward</text>
<text text-anchor="middle" x="2581" y="-7.8" font-family="Times,serif" font-size="14.00">DB3/C2</text>
</g>
<!-- 41&#45;&gt;88 -->
<g id="edge88" class="edge"><title>41&#45;&gt;88</title>
<path fill="none" stroke="black" d="M2580.24,-74.937C2580.35,-66.9865 2580.48,-57.3134 2580.61,-48.3127"/>
<polygon fill="black" stroke="black" points="2584.11,-48.2468 2580.75,-38.1992 2577.11,-48.1496 2584.11,-48.2468"/>
</g>
<!-- 89 -->
<g id="node90" class="node"><title>89</title>
<path fill="#f6d3ff" stroke="black" d="M2680,-38C2680,-38 2642,-38 2642,-38 2636,-38 2630,-32 2630,-26 2630,-26 2630,-12 2630,-12 2630,-6 2636,-0 2642,-0 2642,-0 2680,-0 2680,-0 2686,-0 2692,-6 2692,-12 2692,-12 2692,-26 2692,-26 2692,-32 2686,-38 2680,-38"/>
<text text-anchor="middle" x="2661" y="-22.8" font-family="Times,serif" font-size="14.00">forward</text>
<text text-anchor="middle" x="2661" y="-7.8" font-family="Times,serif" font-size="14.00">DB3/C3</text>
</g>
<!-- 42&#45;&gt;89 -->
<g id="edge89" class="edge"><title>42&#45;&gt;89</title>
<path fill="none" stroke="black" d="M2659.47,-74.937C2659.69,-66.9865 2659.96,-57.3134 2660.21,-48.3127"/>
<polygon fill="black" stroke="black" points="2663.72,-48.2925 2660.49,-38.1992 2656.72,-48.0981 2663.72,-48.2925"/>
</g>
<!-- 90 -->
<g id="node91" class="node"><title>90</title>
<path fill="#f6d3ff" stroke="black" d="M2760,-38C2760,-38 2722,-38 2722,-38 2716,-38 2710,-32 2710,-26 2710,-26 2710,-12 2710,-12 2710,-6 2716,-0 2722,-0 2722,-0 2760,-0 2760,-0 2766,-0 2772,-6 2772,-12 2772,-12 2772,-26 2772,-26 2772,-32 2766,-38 2760,-38"/>
<text text-anchor="middle" x="2741" y="-22.8" font-family="Times,serif" font-size="14.00">forward</text>
<text text-anchor="middle" x="2741" y="-7.8" font-family="Times,serif" font-size="14.00">DB3/C4</text>
</g>
<!-- 43&#45;&gt;90 -->
<g id="edge90" class="edge"><title>43&#45;&gt;90</title>
<path fill="none" stroke="black" d="M2789.07,-74.937C2781.51,-66.2952 2772.17,-55.6181 2763.73,-45.9816"/>
<polygon fill="black" stroke="black" points="2766.14,-43.4202 2756.92,-38.1992 2760.88,-48.0297 2766.14,-43.4202"/>
</g>
<!-- 91 -->
<g id="node92" class="node"><title>91</title>
<path fill="#debfe6" stroke="black" d="M2838,-38C2838,-38 2802,-38 2802,-38 2796,-38 2790,-32 2790,-26 2790,-26 2790,-12 2790,-12 2790,-6 2796,-0 2802,-0 2802,-0 2838,-0 2838,-0 2844,-0 2850,-6 2850,-12 2850,-12 2850,-26 2850,-26 2850,-32 2844,-38 2838,-38"/>
<text text-anchor="middle" x="2820" y="-22.8" font-family="Times,serif" font-size="14.00">merge</text>
<text text-anchor="middle" x="2820" y="-7.8" font-family="Times,serif" font-size="14.00">EB2/C4</text>
</g>
<!-- 43&#45;&gt;91 -->
<g id="edge91" class="edge"><title>43&#45;&gt;91</title>
<path fill="none" stroke="black" d="M2807.79,-74.937C2809.58,-66.9001 2811.75,-57.1029 2813.77,-48.0195"/>
<polygon fill="black" stroke="black" points="2817.2,-48.7203 2815.96,-38.1992 2810.37,-47.2018 2817.2,-48.7203"/>
</g>
<!-- 92 -->
<g id="node93" class="node"><title>92</title>
<path fill="#f6d3ff" stroke="black" d="M2918,-38C2918,-38 2880,-38 2880,-38 2874,-38 2868,-32 2868,-26 2868,-26 2868,-12 2868,-12 2868,-6 2874,-0 2880,-0 2880,-0 2918,-0 2918,-0 2924,-0 2930,-6 2930,-12 2930,-12 2930,-26 2930,-26 2930,-32 2924,-38 2918,-38"/>
<text text-anchor="middle" x="2899" y="-22.8" font-family="Times,serif" font-size="14.00">forward</text>
<text text-anchor="middle" x="2899" y="-7.8" font-family="Times,serif" font-size="14.00">DB2/C0</text>
</g>
<!-- 44&#45;&gt;92 -->
<g id="edge92" class="edge"><title>44&#45;&gt;92</title>
<path fill="none" stroke="black" d="M2895.26,-73.8314C2895.8,-66.131 2896.43,-56.9743 2897.03,-48.4166"/>
<polygon fill="black" stroke="black" points="2900.52,-48.6317 2897.72,-38.4133 2893.54,-48.1467 2900.52,-48.6317"/>
</g>
<!-- 93 -->
<g id="node94" class="node"><title>93</title>
<path fill="#f6d3ff" stroke="black" d="M2998,-38C2998,-38 2960,-38 2960,-38 2954,-38 2948,-32 2948,-26 2948,-26 2948,-12 2948,-12 2948,-6 2954,-0 2960,-0 2960,-0 2998,-0 2998,-0 3004,-0 3010,-6 3010,-12 3010,-12 3010,-26 3010,-26 3010,-32 3004,-38 2998,-38"/>
<text text-anchor="middle" x="2979" y="-22.8" font-family="Times,serif" font-size="14.00">forward</text>
<text text-anchor="middle" x="2979" y="-7.8" font-family="Times,serif" font-size="14.00">DB2/C1</text>
</g>
<!-- 45&#45;&gt;93 -->
<g id="edge93" class="edge"><title>45&#45;&gt;93</title>
<path fill="none" stroke="black" d="M2982.82,-74.937C2982.26,-66.9865 2981.59,-57.3134 2980.97,-48.3127"/>
<polygon fill="black" stroke="black" points="2984.45,-47.9326 2980.26,-38.1992 2977.47,-48.4176 2984.45,-47.9326"/>
</g>
<!-- 94 -->
<g id="node95" class="node"><title>94</title>
<path fill="#f6d3ff" stroke="black" d="M3078,-38C3078,-38 3040,-38 3040,-38 3034,-38 3028,-32 3028,-26 3028,-26 3028,-12 3028,-12 3028,-6 3034,-0 3040,-0 3040,-0 3078,-0 3078,-0 3084,-0 3090,-6 3090,-12 3090,-12 3090,-26 3090,-26 3090,-32 3084,-38 3078,-38"/>
<text text-anchor="middle" x="3059" y="-22.8" font-family="Times,serif" font-size="14.00">forward</text>
<text text-anchor="middle" x="3059" y="-7.8" font-family="Times,serif" font-size="14.00">DB2/C2</text>
</g>
<!-- 46&#45;&gt;94 -->
<g id="edge94" class="edge"><title>46&#45;&gt;94</title>
<path fill="none" stroke="black" d="M3059.76,-74.937C3059.65,-66.9865 3059.52,-57.3134 3059.39,-48.3127"/>
<polygon fill="black" stroke="black" points="3062.89,-48.1496 3059.25,-38.1992 3055.89,-48.2468 3062.89,-48.1496"/>
</g>
<!-- 95 -->
<g id="node96" class="node"><title>95</title>
<path fill="#f6d3ff" stroke="black" d="M3158,-38C3158,-38 3120,-38 3120,-38 3114,-38 3108,-32 3108,-26 3108,-26 3108,-12 3108,-12 3108,-6 3114,-0 3120,-0 3120,-0 3158,-0 3158,-0 3164,-0 3170,-6 3170,-12 3170,-12 3170,-26 3170,-26 3170,-32 3164,-38 3158,-38"/>
<text text-anchor="middle" x="3139" y="-22.8" font-family="Times,serif" font-size="14.00">forward</text>
<text text-anchor="middle" x="3139" y="-7.8" font-family="Times,serif" font-size="14.00">DB2/C3</text>
</g>
<!-- 47&#45;&gt;95 -->
<g id="edge95" class="edge"><title>47&#45;&gt;95</title>
<path fill="none" stroke="black" d="M3138.24,-74.937C3138.35,-66.9865 3138.48,-57.3134 3138.61,-48.3127"/>
<polygon fill="black" stroke="black" points="3142.11,-48.2468 3138.75,-38.1992 3135.11,-48.1496 3142.11,-48.2468"/>
</g>
<!-- 96 -->
<g id="node97" class="node"><title>96</title>
<path fill="#f6d3ff" stroke="black" d="M3238,-38C3238,-38 3200,-38 3200,-38 3194,-38 3188,-32 3188,-26 3188,-26 3188,-12 3188,-12 3188,-6 3194,-0 3200,-0 3200,-0 3238,-0 3238,-0 3244,-0 3250,-6 3250,-12 3250,-12 3250,-26 3250,-26 3250,-32 3244,-38 3238,-38"/>
<text text-anchor="middle" x="3219" y="-22.8" font-family="Times,serif" font-size="14.00">forward</text>
<text text-anchor="middle" x="3219" y="-7.8" font-family="Times,serif" font-size="14.00">DB2/C4</text>
</g>
<!-- 48&#45;&gt;96 -->
<g id="edge96" class="edge"><title>48&#45;&gt;96</title>
<path fill="none" stroke="black" d="M3217.47,-74.937C3217.69,-66.9865 3217.96,-57.3134 3218.21,-48.3127"/>
<polygon fill="black" stroke="black" points="3221.72,-48.2925 3218.49,-38.1992 3214.72,-48.0981 3221.72,-48.2925"/>
</g>
<!-- 97 -->
<g id="node98" class="node"><title>97</title>
<path fill="#f6d3ff" stroke="black" d="M3318,-38C3318,-38 3280,-38 3280,-38 3274,-38 3268,-32 3268,-26 3268,-26 3268,-12 3268,-12 3268,-6 3274,-0 3280,-0 3280,-0 3318,-0 3318,-0 3324,-0 3330,-6 3330,-12 3330,-12 3330,-26 3330,-26 3330,-32 3324,-38 3318,-38"/>
<text text-anchor="middle" x="3299" y="-22.8" font-family="Times,serif" font-size="14.00">forward</text>
<text text-anchor="middle" x="3299" y="-7.8" font-family="Times,serif" font-size="14.00">DB2/C5</text>
</g>
<!-- 49&#45;&gt;97 -->
<g id="edge97" class="edge"><title>49&#45;&gt;97</title>
<path fill="none" stroke="black" d="M3359.28,-74.937C3349.51,-66.0359 3337.38,-54.9756 3326.56,-45.1172"/>
<polygon fill="black" stroke="black" points="3328.72,-42.3484 3318.97,-38.1992 3324,-47.5221 3328.72,-42.3484"/>
</g>
<!-- 98 -->
<g id="node99" class="node"><title>98</title>
<path fill="#debfe6" stroke="black" d="M3396,-38C3396,-38 3360,-38 3360,-38 3354,-38 3348,-32 3348,-26 3348,-26 3348,-12 3348,-12 3348,-6 3354,-0 3360,-0 3360,-0 3396,-0 3396,-0 3402,-0 3408,-6 3408,-12 3408,-12 3408,-26 3408,-26 3408,-32 3402,-38 3396,-38"/>
<text text-anchor="middle" x="3378" y="-22.8" font-family="Times,serif" font-size="14.00">merge</text>
<text text-anchor="middle" x="3378" y="-7.8" font-family="Times,serif" font-size="14.00">EB1/C4</text>
</g>
<!-- 49&#45;&gt;98 -->
<g id="edge98" class="edge"><title>49&#45;&gt;98</title>
<path fill="none" stroke="black" d="M3378,-74.937C3378,-66.9865 3378,-57.3134 3378,-48.3127"/>
<polygon fill="black" stroke="black" points="3381.5,-48.1991 3378,-38.1992 3374.5,-48.1992 3381.5,-48.1991"/>
</g>
<!-- 99 -->
<g id="node100" class="node"><title>99</title>
<path fill="#f6d3ff" stroke="black" d="M3476,-38C3476,-38 3438,-38 3438,-38 3432,-38 3426,-32 3426,-26 3426,-26 3426,-12 3426,-12 3426,-6 3432,-0 3438,-0 3438,-0 3476,-0 3476,-0 3482,-0 3488,-6 3488,-12 3488,-12 3488,-26 3488,-26 3488,-32 3482,-38 3476,-38"/>
<text text-anchor="middle" x="3457" y="-22.8" font-family="Times,serif" font-size="14.00">forward</text>
<text text-anchor="middle" x="3457" y="-7.8" font-family="Times,serif" font-size="14.00">DB1/C0</text>
</g>
<!-- 50&#45;&gt;99 -->
<g id="edge99" class="edge"><title>50&#45;&gt;99</title>
<path fill="none" stroke="black" d="M3457.76,-74.937C3457.65,-66.9865 3457.52,-57.3134 3457.39,-48.3127"/>
<polygon fill="black" stroke="black" points="3460.89,-48.1496 3457.25,-38.1992 3453.89,-48.2468 3460.89,-48.1496"/>
</g>
<!-- 100 -->
<g id="node101" class="node"><title>100</title>
<path fill="#f6d3ff" stroke="black" d="M3556,-38C3556,-38 3518,-38 3518,-38 3512,-38 3506,-32 3506,-26 3506,-26 3506,-12 3506,-12 3506,-6 3512,-0 3518,-0 3518,-0 3556,-0 3556,-0 3562,-0 3568,-6 3568,-12 3568,-12 3568,-26 3568,-26 3568,-32 3562,-38 3556,-38"/>
<text text-anchor="middle" x="3537" y="-22.8" font-family="Times,serif" font-size="14.00">forward</text>
<text text-anchor="middle" x="3537" y="-7.8" font-family="Times,serif" font-size="14.00">DB1/C1</text>
</g>
<!-- 51&#45;&gt;100 -->
<g id="edge100" class="edge"><title>51&#45;&gt;100</title>
<path fill="none" stroke="black" d="M3536.24,-74.937C3536.35,-66.9865 3536.48,-57.3134 3536.61,-48.3127"/>
<polygon fill="black" stroke="black" points="3540.11,-48.2468 3536.75,-38.1992 3533.11,-48.1496 3540.11,-48.2468"/>
</g>
<!-- 101 -->
<g id="node102" class="node"><title>101</title>
<path fill="#f6d3ff" stroke="black" d="M3636,-38C3636,-38 3598,-38 3598,-38 3592,-38 3586,-32 3586,-26 3586,-26 3586,-12 3586,-12 3586,-6 3592,-0 3598,-0 3598,-0 3636,-0 3636,-0 3642,-0 3648,-6 3648,-12 3648,-12 3648,-26 3648,-26 3648,-32 3642,-38 3636,-38"/>
<text text-anchor="middle" x="3617" y="-22.8" font-family="Times,serif" font-size="14.00">forward</text>
<text text-anchor="middle" x="3617" y="-7.8" font-family="Times,serif" font-size="14.00">DB1/C2</text>
</g>
<!-- 52&#45;&gt;101 -->
<g id="edge101" class="edge"><title>52&#45;&gt;101</title>
<path fill="none" stroke="black" d="M3615.47,-74.937C3615.69,-66.9865 3615.96,-57.3134 3616.21,-48.3127"/>
<polygon fill="black" stroke="black" points="3619.72,-48.2925 3616.49,-38.1992 3612.72,-48.0981 3619.72,-48.2925"/>
</g>
<!-- 102 -->
<g id="node103" class="node"><title>102</title>
<path fill="#f6d3ff" stroke="black" d="M3716,-38C3716,-38 3678,-38 3678,-38 3672,-38 3666,-32 3666,-26 3666,-26 3666,-12 3666,-12 3666,-6 3672,-0 3678,-0 3678,-0 3716,-0 3716,-0 3722,-0 3728,-6 3728,-12 3728,-12 3728,-26 3728,-26 3728,-32 3722,-38 3716,-38"/>
<text text-anchor="middle" x="3697" y="-22.8" font-family="Times,serif" font-size="14.00">forward</text>
<text text-anchor="middle" x="3697" y="-7.8" font-family="Times,serif" font-size="14.00">DB1/C3</text>
</g>
<!-- 53&#45;&gt;102 -->
<g id="edge102" class="edge"><title>53&#45;&gt;102</title>
<path fill="none" stroke="black" d="M3694.71,-74.937C3695.04,-66.9865 3695.45,-57.3134 3695.82,-48.3127"/>
<polygon fill="black" stroke="black" points="3699.32,-48.3362 3696.24,-38.1992 3692.33,-48.0448 3699.32,-48.3362"/>
</g>
<!-- 103 -->
<g id="node104" class="node"><title>103</title>
<path fill="#f6d3ff" stroke="black" d="M3796,-38C3796,-38 3758,-38 3758,-38 3752,-38 3746,-32 3746,-26 3746,-26 3746,-12 3746,-12 3746,-6 3752,-0 3758,-0 3758,-0 3796,-0 3796,-0 3802,-0 3808,-6 3808,-12 3808,-12 3808,-26 3808,-26 3808,-32 3802,-38 3796,-38"/>
<text text-anchor="middle" x="3777" y="-22.8" font-family="Times,serif" font-size="14.00">forward</text>
<text text-anchor="middle" x="3777" y="-7.8" font-family="Times,serif" font-size="14.00">DB1/C4</text>
</g>
<!-- 54&#45;&gt;103 -->
<g id="edge103" class="edge"><title>54&#45;&gt;103</title>
<path fill="none" stroke="black" d="M3805.41,-73.8314C3801.17,-65.7925 3796.09,-56.1666 3791.4,-47.2918"/>
<polygon fill="black" stroke="black" points="3794.48,-45.6235 3786.72,-38.4133 3788.29,-48.8908 3794.48,-45.6235"/>
</g>
<!-- 104 -->
<g id="node105" class="node"><title>104</title>
<path fill="#debfe6" stroke="black" d="M3874,-38C3874,-38 3838,-38 3838,-38 3832,-38 3826,-32 3826,-26 3826,-26 3826,-12 3826,-12 3826,-6 3832,-0 3838,-0 3838,-0 3874,-0 3874,-0 3880,-0 3886,-6 3886,-12 3886,-12 3886,-26 3886,-26 3886,-32 3880,-38 3874,-38"/>
<text text-anchor="middle" x="3856" y="-22.8" font-family="Times,serif" font-size="14.00">merge</text>
<text text-anchor="middle" x="3856" y="-7.8" font-family="Times,serif" font-size="14.00">EB0/C5</text>
</g>
<!-- 54&#45;&gt;104 -->
<g id="edge104" class="edge"><title>54&#45;&gt;104</title>
<path fill="none" stroke="black" d="M3825.35,-73.8314C3829.92,-65.7925 3835.41,-56.1666 3840.46,-47.2918"/>
<polygon fill="black" stroke="black" points="3843.61,-48.8351 3845.51,-38.4133 3837.52,-45.3712 3843.61,-48.8351"/>
</g>
<!-- 105 -->
<g id="node106" class="node"><title>105</title>
<path fill="#f6d3ff" stroke="black" d="M3954,-38C3954,-38 3916,-38 3916,-38 3910,-38 3904,-32 3904,-26 3904,-26 3904,-12 3904,-12 3904,-6 3910,-0 3916,-0 3916,-0 3954,-0 3954,-0 3960,-0 3966,-6 3966,-12 3966,-12 3966,-26 3966,-26 3966,-32 3960,-38 3954,-38"/>
<text text-anchor="middle" x="3935" y="-22.8" font-family="Times,serif" font-size="14.00">forward</text>
<text text-anchor="middle" x="3935" y="-7.8" font-family="Times,serif" font-size="14.00">DB0/C0</text>
</g>
<!-- 55&#45;&gt;105 -->
<g id="edge105" class="edge"><title>55&#45;&gt;105</title>
<path fill="none" stroke="black" d="M3934.24,-74.937C3934.35,-66.9865 3934.48,-57.3134 3934.61,-48.3127"/>
<polygon fill="black" stroke="black" points="3938.11,-48.2468 3934.75,-38.1992 3931.11,-48.1496 3938.11,-48.2468"/>
</g>
<!-- 106 -->
<g id="node107" class="node"><title>106</title>
<path fill="#f6d3ff" stroke="black" d="M4074,-38C4074,-38 4036,-38 4036,-38 4030,-38 4024,-32 4024,-26 4024,-26 4024,-12 4024,-12 4024,-6 4030,-0 4036,-0 4036,-0 4074,-0 4074,-0 4080,-0 4086,-6 4086,-12 4086,-12 4086,-26 4086,-26 4086,-32 4080,-38 4074,-38"/>
<text text-anchor="middle" x="4055" y="-22.8" font-family="Times,serif" font-size="14.00">forward</text>
<text text-anchor="middle" x="4055" y="-7.8" font-family="Times,serif" font-size="14.00">DB0/C1</text>
</g>
<!-- 56&#45;&gt;106 -->
<g id="edge106" class="edge"><title>56&#45;&gt;106</title>
<path fill="none" stroke="black" d="M4055,-73.8314C4055,-66.131 4055,-56.9743 4055,-48.4166"/>
<polygon fill="black" stroke="black" points="4058.5,-48.4132 4055,-38.4133 4051.5,-48.4133 4058.5,-48.4132"/>
</g>
<!-- 107 -->
<g id="node108" class="node"><title>107</title>
<path fill="#f6d3ff" stroke="black" d="M4195,-38C4195,-38 4157,-38 4157,-38 4151,-38 4145,-32 4145,-26 4145,-26 4145,-12 4145,-12 4145,-6 4151,-0 4157,-0 4157,-0 4195,-0 4195,-0 4201,-0 4207,-6 4207,-12 4207,-12 4207,-26 4207,-26 4207,-32 4201,-38 4195,-38"/>
<text text-anchor="middle" x="4176" y="-22.8" font-family="Times,serif" font-size="14.00">forward</text>
<text text-anchor="middle" x="4176" y="-7.8" font-family="Times,serif" font-size="14.00">DB0/C2</text>
</g>
<!-- 57&#45;&gt;107 -->
<g id="edge107" class="edge"><title>57&#45;&gt;107</title>
<path fill="none" stroke="black" d="M4176,-74.937C4176,-66.9865 4176,-57.3134 4176,-48.3127"/>
<polygon fill="black" stroke="black" points="4179.5,-48.1991 4176,-38.1992 4172.5,-48.1992 4179.5,-48.1991"/>
</g>
</g>
</svg>
